<svg xmlns="http://www.w3.org/2000/svg" width="600" height="800" preserveAspectRatio="none" viewBox="0 0 600 800"><g fill="none" mask="url(#a)"><path fill="#553e98" d="M0 0h600v800H0z"/><path fill="#371f69" d="M0 580c120 10 180-130 270-190s220-70 290-150c80-90 140-210 120-320S520-250 420-310C340 30 250 0 160-20S-10-50-90-20s-150 70-200 140-60 150-85 230c-30 100-130 200-90 290s190 70 270 130c45-340 85-200 195-190" style="transform:translate(-200px,-100px)"/><path fill="#ff9b85" d="M600 1060c100 30 230 40 310-40s30-210 70-310c35-90 130-150 140-240 10-100-10-220-90-290s-200-40-300-60c-90-20-180-60-270-30S310 200 240 260C170 330 50 380 40 480s110 160 170 240c50 70 90 130 150 180 70 60 140 140 230 160" style="transform:translate(200px,100px)"/><path d="M300 479.05 392.7 535l-24.6-105.45L450 358.6l-107.85-9.3L300 250l-42.15 99.3L150 358.6l81.75 70.95L207.3 535Z" style="fill:#f9f9f9;stroke-width:225"/></g><defs><mask id="a"><path fill="#fff" d="M0 0h600v800H0z"/></mask></defs></svg>