<svg xmlns="http://www.w3.org/2000/svg" width="600" height="800" preserveAspectRatio="none" viewBox="0 0 600 800"><g fill="none" mask="url(#a)"><path fill="#553e98" d="M0 0h600v800H0z"/><path fill="#371f69" d="M0 580c120 10 180-130 270-190s220-70 290-150c80-90 140-210 120-320S520-250 420-310C340 30 250 0 160-20S-10-50-90-20s-150 70-200 140-60 150-85 230c-30 100-130 200-90 290s190 70 270 130c45-340 85-200 195-190" style="transform:translate(-200px,-100px)"/><path fill="#ff9b85" d="M600 1060c100 30 230 40 310-40s30-210 70-310c35-90 130-150 140-240 10-100-10-220-90-290s-200-40-300-60c-90-20-180-60-270-30S310 200 240 260C170 330 50 380 40 480s110 160 170 240c50 70 90 130 150 180 70 60 140 140 230 160" style="transform:translate(200px,100px)"/><path d="M204.545 345.455A54.545 54.545 0 0 1 259.091 400a54.545 54.545 0 0 1-54.546 54.545A54.545 54.545 0 0 1 150 400a54.545 54.545 0 0 1 54.545-54.545M300 250a54.545 54.545 0 0 1 54.545 54.545A54.545 54.545 0 0 1 300 359.091a54.545 54.545 0 0 1-54.545-54.546A54.545 54.545 0 0 1 300 250m0 190.91a54.545 54.545 0 0 1 54.545 54.545A54.545 54.545 0 0 1 300 550a54.545 54.545 0 0 1-54.545-54.545A54.545 54.545 0 0 1 300 440.909m95.455-95.454A54.545 54.545 0 0 1 450 400a54.545 54.545 0 0 1-54.545 54.545A54.545 54.545 0 0 1 340.909 400a54.545 54.545 0 0 1 54.546-54.545m-190.91 27.272A27.273 27.273 0 0 0 177.273 400a27.273 27.273 0 0 0 27.272 27.273A27.273 27.273 0 0 0 231.818 400a27.273 27.273 0 0 0-27.273-27.273m190.91 0A27.273 27.273 0 0 0 368.182 400a27.273 27.273 0 0 0 27.273 27.273A27.273 27.273 0 0 0 422.727 400a27.273 27.273 0 0 0-27.272-27.273M300 468.182a27.273 27.273 0 0 0-27.273 27.273A27.273 27.273 0 0 0 300 522.727a27.273 27.273 0 0 0 27.273-27.272A27.273 27.273 0 0 0 300 468.182" style="fill:#f9f9f9;stroke-width:13.6364"/></g><defs><mask id="a"><path fill="#fff" d="M0 0h600v800H0z"/></mask></defs></svg>