<svg xmlns="http://www.w3.org/2000/svg" width="600" height="800" preserveAspectRatio="none" viewBox="0 0 600 800"><g fill="none" mask="url(#a)"><path fill="#553e98" d="M0 0h600v800H0z"/><path fill="#371f69" d="M0 580c120 10 180-130 270-190s220-70 290-150c80-90 140-210 120-320S520-250 420-310C340 30 250 0 160-20S-10-50-90-20s-150 70-200 140-60 150-85 230c-30 100-130 200-90 290s190 70 270 130c45-340 85-200 195-190" style="transform:translate(-200px,-100px)"/><path fill="#ff9b85" d="M600 1060c100 30 230 40 310-40s30-210 70-310c35-90 130-150 140-240 10-100-10-220-90-290s-200-40-300-60c-90-20-180-60-270-30S310 200 240 260C170 330 50 380 40 480s110 160 170 240c50 70 90 130 150 180 70 60 140 140 230 160" style="transform:translate(200px,100px)"/><path d="M300 225c-8.748 0-17.496 3.324-24.669 10.322L135.366 375.287a34.536 34.536 0 0 0 0 49.338L275.331 564.59a34.536 34.536 0 0 0 49.338 0l139.965-139.965a34.536 34.536 0 0 0 0-49.338L324.669 235.322C317.496 228.324 308.748 225 300 225m0 86.603c47.238 1.925 67.708 49.513 39.89 85.03-7.348 8.747-19.07 14.52-25.019 22.044-6.123 7.523-6.123 16.27-6.123 25.018h-26.244c0-14.871 0-27.293 6.124-36.04 5.773-8.748 17.495-13.997 24.844-19.77 21.52-19.77 15.92-47.589-13.472-49.863-14.346 0-26.243 11.722-26.243 26.418h-26.244c0-29.218 23.62-52.837 52.487-52.837m-17.496 149.588h26.244v26.243h-26.244z" style="fill:#f9f9f9;stroke-width:17.4956"/></g><defs><mask id="a"><path fill="#fff" d="M0 0h600v800H0z"/></mask></defs></svg>