<svg xmlns="http://www.w3.org/2000/svg" xml:space="preserve" width="330.667" height="213.333" viewBox="0 0 330.667 213.333"><defs><clipPath id="a" clipPathUnits="userSpaceOnUse"><path d="M0 256h256V0H0Z"/></clipPath><clipPath id="b" clipPathUnits="userSpaceOnUse"><path d="M4 208h248V48H4Z"/></clipPath></defs><g clip-path="url(#a)" transform="matrix(1.33333 0 0 -1.33333 -5.333 277.333)"><g clip-path="url(#b)" style="opacity:.5"><path d="M0 0h-228c-5.514 0-10-4.486-10-10v-140c0-5.514 4.486-10 10-10H0c5.514 0 10 4.486 10 10v140C10-4.486 5.514 0 0 0" style="fill:#fff;fill-opacity:1;fill-rule:nonzero;stroke:none" transform="translate(242 208)"/></g><path d="M0 0h-228a2 2 0 0 0-2 2v140a2 2 0 0 0 2 2H0a2 2 0 0 0 2-2V2a2 2 0 0 0-2-2" style="fill:#404040;fill-opacity:1;fill-rule:nonzero;stroke:none" transform="translate(242 56)"/><path d="M0 0h-116.065a1.97 1.97 0 0 0-1.967 1.968v96.065c0 1.086.881 1.967 1.967 1.967H0a1.97 1.97 0 0 0 1.968-1.967V1.968A1.97 1.97 0 0 0 0 0" style="fill:#ccc;fill-opacity:1;fill-rule:nonzero;stroke:none" transform="translate(138.032 68)"/><path d="M0 0h-88.555c-.951 0-1.722.771-1.722 1.723v96.554c0 .952.771 1.723 1.722 1.723H0c.951 0 1.723-.771 1.723-1.723V1.723C1.723.771.951 0 0 0" style="fill:#ccc;fill-opacity:1;fill-rule:nonzero;stroke:none" transform="translate(234.277 68)"/><path d="M0 0a.98.98 0 0 0-.982.982v8.036c0 .542.44.982.982.982h212.037c.541 0 .981-.44.981-.982V.982a.98.98 0 0 0-.981-.982Z" style="fill:#262626;fill-opacity:1;fill-rule:nonzero;stroke:none" transform="translate(21.982 181)"/><path d="M0 0h-212.037a1.98 1.98 0 0 1-1.982-1.982v-8.036c0-1.095.888-1.982 1.982-1.982H0c1.094 0 1.981.887 1.981 1.982v8.036A1.98 1.98 0 0 1 0 0m-.019-2L0-10l-212.019-.018-.018 8.018z" style="fill:#8c8c8c;fill-opacity:1;fill-rule:nonzero;stroke:none" transform="translate(234.019 192)"/><path d="M52 140H36v20h16z" style="fill:#333;fill-opacity:1;fill-rule:nonzero;stroke:none"/><path d="M52 144H36v4h16z" style="fill:#404040;fill-opacity:1;fill-rule:nonzero;stroke:none"/><path d="M76 140H60v20h16z" style="fill:#333;fill-opacity:1;fill-rule:nonzero;stroke:none"/><path d="M76 144H60v4h16z" style="fill:#404040;fill-opacity:1;fill-rule:nonzero;stroke:none"/><path d="M100 140H84v20h16z" style="fill:#333;fill-opacity:1;fill-rule:nonzero;stroke:none"/><path d="M100 144H84v4h16z" style="fill:#404040;fill-opacity:1;fill-rule:nonzero;stroke:none"/><path d="M124 140h-16v20h16z" style="fill:#333;fill-opacity:1;fill-rule:nonzero;stroke:none"/><path d="M124 144h-16v4h16z" style="fill:#404040;fill-opacity:1;fill-rule:nonzero;stroke:none"/><path d="M140 124H20v2h120zm0-40H20v2h120z" style="fill:#333;fill-opacity:1;fill-rule:nonzero;stroke:none"/><path d="M0 0h-79.268a2.367 2.367 0 0 1-2.366-2.366v-11.268A2.367 2.367 0 0 1-79.268-16H0a2.366 2.366 0 0 1 2.366 2.366v11.268A2.366 2.366 0 0 1 0 0" style="fill:#000;fill-opacity:1;fill-rule:nonzero;stroke:none" transform="translate(229.634 160)"/><path d="M236 132h-92v2h92zm0-4h-92v2h92zm0-4h-92v2h92zm0-4h-92v2h92zm0-4h-92v2h92zm0-4h-92v2h92zm0-4h-92v2h92zm0-4h-92v2h92zm0-4h-92v2h92zm0-4h-92v2h92zm0-4h-92v2h92zm0-4h-92v2h92zm0-4h-92v2h92zm0-4h-92v2h92z" style="fill:#b3b3b3;fill-opacity:1;fill-rule:nonzero;stroke:none"/><path d="M0 0h-100l4 12h92z" style="fill:#262626;fill-opacity:1;fill-rule:nonzero;stroke:none" transform="translate(240 56)"/><path d="m0 0-4-112 4 12z" style="fill:#333;fill-opacity:1;fill-rule:nonzero;stroke:none" transform="translate(144 168)"/></g></svg>