<?xml version="1.0" encoding="UTF-8" standalone="no"?>
<svg
   xmlns:dc="http://purl.org/dc/elements/1.1/"
   xmlns:cc="http://creativecommons.org/ns#"
   xmlns:rdf="http://www.w3.org/1999/02/22-rdf-syntax-ns#"
   xmlns:svg="http://www.w3.org/2000/svg"
   xmlns="http://www.w3.org/2000/svg"
   viewBox="0 0 330.66665 213.33333"
   height="213.33333"
   width="330.66666"
   xml:space="preserve"
   id="svg2"
   version="1.1"><metadata
     id="metadata8"><rdf:RDF><cc:Work
         rdf:about=""><dc:format>image/svg+xml</dc:format><dc:type
           rdf:resource="http://purl.org/dc/dcmitype/StillImage" /></cc:Work></rdf:RDF></metadata><defs
     id="defs6"><clipPath
       id="clipPath18"
       clipPathUnits="userSpaceOnUse"><path
         id="path16"
         d="M 0,256 H 256 V 0 H 0 Z" /></clipPath><clipPath
       id="clipPath26"
       clipPathUnits="userSpaceOnUse"><path
         id="path24"
         d="M 4,208 H 252 V 48 H 4 Z" /></clipPath></defs><g
     transform="matrix(1.3333333,0,0,-1.3333333,-5.3333332,277.33333)"
     id="g10"><g
       id="g12"><g
         clip-path="url(#clipPath18)"
         id="g14"><g
           id="g20"><g
             id="g22" /><g
             id="g34"><g
               style="opacity:0.5"
               id="g32"
               clip-path="url(#clipPath26)"><g
                 id="g30"
                 transform="translate(242,208)"><path
                   id="path28"
                   style="fill:#ffffff;fill-opacity:1;fill-rule:nonzero;stroke:none"
                   d="m 0,0 h -228 c -5.514,0 -10,-4.486 -10,-10 v -140 c 0,-5.514 4.486,-10 10,-10 H 0 c 5.514,0 10,4.486 10,10 V -10 C 10,-4.486 5.514,0 0,0" /></g></g></g></g><g
           transform="translate(242,56)"
           id="g36"><path
             id="path38"
             style="fill:#404040;fill-opacity:1;fill-rule:nonzero;stroke:none"
             d="m 0,0 h -228 c -1.104,0 -2,0.896 -2,2 v 140 c 0,1.104 0.896,2 2,2 H 0 c 1.104,0 2,-0.896 2,-2 V 2 C 2,0.896 1.104,0 0,0" /></g><g
           transform="translate(138.0322,68)"
           id="g40"><path
             id="path42"
             style="fill:#cccccc;fill-opacity:1;fill-rule:nonzero;stroke:none"
             d="m 0,0 h -116.065 c -1.086,0 -1.967,0.881 -1.967,1.968 v 96.065 c 0,1.086 0.881,1.967 1.967,1.967 H 0 c 1.087,0 1.968,-0.881 1.968,-1.967 V 1.968 C 1.968,0.881 1.087,0 0,0" /></g><g
           transform="translate(234.2773,68)"
           id="g44"><path
             id="path46"
             style="fill:#cccccc;fill-opacity:1;fill-rule:nonzero;stroke:none"
             d="m 0,0 h -88.555 c -0.951,0 -1.722,0.771 -1.722,1.723 v 96.554 c 0,0.952 0.771,1.723 1.722,1.723 H 0 c 0.951,0 1.723,-0.771 1.723,-1.723 V 1.723 C 1.723,0.771 0.951,0 0,0" /></g><g
           transform="translate(21.9819,181)"
           id="g48"><path
             id="path50"
             style="fill:#262626;fill-opacity:1;fill-rule:nonzero;stroke:none"
             d="M 0,0 C -0.542,0 -0.982,0.44 -0.982,0.982 V 9.018 C -0.982,9.56 -0.542,10 0,10 h 212.037 c 0.541,0 0.981,-0.44 0.981,-0.982 V 0.982 C 213.018,0.44 212.578,0 212.037,0 Z" /></g><g
           transform="translate(234.0186,192)"
           id="g52"><path
             id="path54"
             style="fill:#8c8c8c;fill-opacity:1;fill-rule:nonzero;stroke:none"
             d="m 0,0 h -212.037 c -1.094,0 -1.982,-0.887 -1.982,-1.982 v -8.036 c 0,-1.095 0.888,-1.982 1.982,-1.982 L 0,-12 c 1.094,0 1.981,0.887 1.981,1.982 v 8.036 C 1.981,-0.887 1.094,0 0,0 M -0.019,-2 0,-10 -212.019,-10.018 -212.037,-2 H -0.019" /></g><path
           id="path56"
           style="fill:#333333;fill-opacity:1;fill-rule:nonzero;stroke:none"
           d="M 52,140 H 36 v 20 h 16 z" /><path
           id="path58"
           style="fill:#404040;fill-opacity:1;fill-rule:nonzero;stroke:none"
           d="M 52,144 H 36 v 4 h 16 z" /><path
           id="path60"
           style="fill:#333333;fill-opacity:1;fill-rule:nonzero;stroke:none"
           d="M 76,140 H 60 v 20 h 16 z" /><path
           id="path62"
           style="fill:#404040;fill-opacity:1;fill-rule:nonzero;stroke:none"
           d="M 76,144 H 60 v 4 h 16 z" /><path
           id="path64"
           style="fill:#333333;fill-opacity:1;fill-rule:nonzero;stroke:none"
           d="M 100,140 H 84 v 20 h 16 z" /><path
           id="path66"
           style="fill:#404040;fill-opacity:1;fill-rule:nonzero;stroke:none"
           d="M 100,144 H 84 v 4 h 16 z" /><path
           id="path68"
           style="fill:#333333;fill-opacity:1;fill-rule:nonzero;stroke:none"
           d="m 124,140 h -16 v 20 h 16 z" /><path
           id="path70"
           style="fill:#404040;fill-opacity:1;fill-rule:nonzero;stroke:none"
           d="m 124,144 h -16 v 4 h 16 z" /><path
           id="path72"
           style="fill:#333333;fill-opacity:1;fill-rule:nonzero;stroke:none"
           d="M 140,124 H 20 v 2 h 120 z" /><path
           id="path74"
           style="fill:#333333;fill-opacity:1;fill-rule:nonzero;stroke:none"
           d="M 140,84 H 20 v 2 h 120 z" /><g
           transform="translate(229.6338,160)"
           id="g76"><path
             id="path78"
             style="fill:#000000;fill-opacity:1;fill-rule:nonzero;stroke:none"
             d="m 0,0 h -79.268 c -1.306,0 -2.366,-1.06 -2.366,-2.366 v -11.268 c 0,-1.306 1.06,-2.366 2.366,-2.366 H 0 c 1.307,0 2.366,1.06 2.366,2.366 V -2.366 C 2.366,-1.06 1.307,0 0,0" /></g><path
           id="path80"
           style="fill:#b3b3b3;fill-opacity:1;fill-rule:nonzero;stroke:none"
           d="m 236,132 h -92 v 2 h 92 z" /><path
           id="path82"
           style="fill:#b3b3b3;fill-opacity:1;fill-rule:nonzero;stroke:none"
           d="m 236,128 h -92 v 2 h 92 z" /><path
           id="path84"
           style="fill:#b3b3b3;fill-opacity:1;fill-rule:nonzero;stroke:none"
           d="m 236,124 h -92 v 2 h 92 z" /><path
           id="path86"
           style="fill:#b3b3b3;fill-opacity:1;fill-rule:nonzero;stroke:none"
           d="m 236,120 h -92 v 2 h 92 z" /><path
           id="path88"
           style="fill:#b3b3b3;fill-opacity:1;fill-rule:nonzero;stroke:none"
           d="m 236,116 h -92 v 2 h 92 z" /><path
           id="path90"
           style="fill:#b3b3b3;fill-opacity:1;fill-rule:nonzero;stroke:none"
           d="m 236,112 h -92 v 2 h 92 z" /><path
           id="path92"
           style="fill:#b3b3b3;fill-opacity:1;fill-rule:nonzero;stroke:none"
           d="m 236,108 h -92 v 2 h 92 z" /><path
           id="path94"
           style="fill:#b3b3b3;fill-opacity:1;fill-rule:nonzero;stroke:none"
           d="m 236,104 h -92 v 2 h 92 z" /><path
           id="path96"
           style="fill:#b3b3b3;fill-opacity:1;fill-rule:nonzero;stroke:none"
           d="m 236,100 h -92 v 2 h 92 z" /><path
           id="path98"
           style="fill:#b3b3b3;fill-opacity:1;fill-rule:nonzero;stroke:none"
           d="m 236,96 h -92 v 2 h 92 z" /><path
           id="path100"
           style="fill:#b3b3b3;fill-opacity:1;fill-rule:nonzero;stroke:none"
           d="m 236,92 h -92 v 2 h 92 z" /><path
           id="path102"
           style="fill:#b3b3b3;fill-opacity:1;fill-rule:nonzero;stroke:none"
           d="m 236,88 h -92 v 2 h 92 z" /><path
           id="path104"
           style="fill:#b3b3b3;fill-opacity:1;fill-rule:nonzero;stroke:none"
           d="m 236,84 h -92 v 2 h 92 z" /><path
           id="path106"
           style="fill:#b3b3b3;fill-opacity:1;fill-rule:nonzero;stroke:none"
           d="m 236,80 h -92 v 2 h 92 z" /><g
           transform="translate(240,56)"
           id="g108"><path
             id="path110"
             style="fill:#262626;fill-opacity:1;fill-rule:nonzero;stroke:none"
             d="m 0,0 h -100 l 4,12 h 92 z" /></g><g
           transform="translate(144,168)"
           id="g112"><path
             id="path114"
             style="fill:#333333;fill-opacity:1;fill-rule:nonzero;stroke:none"
             d="m 0,0 -4,-112 4,12 z" /></g></g></g></g></svg>