<?xml version="1.0" encoding="UTF-8" standalone="no"?>
<svg
   xmlns:dc="http://purl.org/dc/elements/1.1/"
   xmlns:cc="http://creativecommons.org/ns#"
   xmlns:rdf="http://www.w3.org/1999/02/22-rdf-syntax-ns#"
   xmlns:svg="http://www.w3.org/2000/svg"
   xmlns="http://www.w3.org/2000/svg"
   viewBox="0 0 319.99499 325.33291"
   height="325.33292"
   width="319.995"
   xml:space="preserve"
   id="svg2"
   version="1.1"><metadata
     id="metadata8"><rdf:RDF><cc:Work
         rdf:about=""><dc:format>image/svg+xml</dc:format><dc:type
           rdf:resource="http://purl.org/dc/dcmitype/StillImage" /></cc:Work></rdf:RDF></metadata><defs
     id="defs6"><clipPath
       id="clipPath18"
       clipPathUnits="userSpaceOnUse"><path
         id="path16"
         d="M 0,256 H 256 V 0 H 0 Z" /></clipPath><clipPath
       id="clipPath26"
       clipPathUnits="userSpaceOnUse"><path
         id="path24"
         d="M 8.00174,248 H 247.998 V 4 H 8.00174 Z" /></clipPath></defs><g
     transform="matrix(1.3333333,0,0,-1.3333333,-10.668986,330.66626)"
     id="g10"><g
       id="g12"><g
         clip-path="url(#clipPath18)"
         id="g14"><g
           id="g20"><g
             id="g22" /><g
             id="g34"><g
               style="opacity:0.5"
               id="g32"
               clip-path="url(#clipPath26)"><g
                 id="g30"
                 transform="translate(236.501,63.3447)"><path
                   id="path28"
                   style="fill:#ffffff;fill-opacity:1;fill-rule:nonzero;stroke:none"
                   d="m 0,0 c -0.175,0.179 -0.416,0.6 -0.501,0.864 v 127.582 c 0.085,0.265 0.326,0.685 0.501,0.864 8.113,6.606 12.355,16.782 11.352,27.23 -1.42,14.785 -13.183,26.548 -27.968,27.968 -1.016,0.098 -2.044,0.147 -3.058,0.147 -9.413,0 -18.222,-4.19 -24.173,-11.498 -0.178,-0.176 -0.598,-0.417 -0.863,-0.502 h -127.582 c -0.265,0.085 -0.686,0.327 -0.864,0.502 -5.95,7.308 -14.759,11.498 -24.173,11.498 -1.013,0 -2.042,-0.049 -3.057,-0.147 -14.785,-1.42 -26.548,-13.183 -27.968,-27.968 -1.004,-10.448 3.239,-20.624 11.352,-27.23 0.174,-0.179 0.416,-0.599 0.501,-0.864 V 0.864 C -216.586,0.6 -216.827,0.179 -217.002,0 c -8.113,-6.605 -12.356,-16.781 -11.352,-27.229 0.638,-6.638 3.393,-12.823 7.857,-17.766 0.081,-2.943 1.423,-5.665 3.711,-7.501 4.748,-3.81 10.419,-6.127 16.4,-6.701 1.015,-0.098 2.044,-0.148 3.056,-0.148 5.607,0 11.108,1.509 15.908,4.365 2.732,1.625 4.532,4.461 4.865,7.571 1.224,1.095 2.36,2.285 3.401,3.563 0.179,0.175 0.599,0.416 0.864,0.501 H -44.71 c 0.265,-0.085 0.686,-0.326 0.863,-0.501 1.041,-1.278 2.178,-2.468 3.402,-3.563 0.333,-3.11 2.133,-5.946 4.865,-7.571 4.8,-2.856 10.301,-4.365 15.907,-4.365 1.013,0 2.041,0.05 3.057,0.148 5.98,0.574 11.651,2.891 16.399,6.701 2.288,1.836 3.631,4.558 3.712,7.501 4.464,4.943 7.219,11.128 7.857,17.766 C 12.355,-16.781 8.113,-6.605 0,0" /></g></g></g></g><g
           transform="translate(24,18.6328)"
           id="g36"><path
             id="path38"
             style="fill:#a3834a;fill-opacity:1;fill-rule:nonzero;stroke:none"
             d="m 0,0 c 0,-0.596 0.257,-1.172 0.722,-1.545 3.413,-2.737 7.599,-4.539 12.158,-4.977 5.178,-0.498 10.045,0.711 14.11,3.129 0.618,0.368 1.01,1.022 1.01,1.741 V 9.367 H 0 Z" /></g><g
           transform="translate(232,18.6328)"
           id="g40"><path
             id="path42"
             style="fill:#a3834a;fill-opacity:1;fill-rule:nonzero;stroke:none"
             d="M 0,0 C 0,-0.596 -0.257,-1.172 -0.722,-1.545 -4.135,-4.282 -8.321,-6.084 -12.88,-6.522 -18.058,-7.02 -22.925,-5.811 -26.989,-3.393 -27.607,-3.025 -28,-2.371 -28,-1.652 V 9.367 H 0 Z" /></g><g
           transform="translate(228,64)"
           id="g44"><path
             id="path46"
             style="fill:#333333;fill-opacity:1;fill-rule:nonzero;stroke:none"
             d="m 0,0 v 128 c 0,2.396 1.565,5.328 3.425,6.838 5.775,4.69 9.251,12.099 8.465,20.282 -1.048,10.908 -9.862,19.721 -20.77,20.77 -8.182,0.786 -15.593,-2.69 -20.282,-8.465 C -30.672,165.565 -33.604,164 -36,164 h -128 c -2.396,0 -5.328,1.565 -6.838,3.425 -4.69,5.775 -12.099,9.251 -20.282,8.465 -10.908,-1.049 -19.722,-9.862 -20.77,-20.77 -0.786,-8.183 2.69,-15.592 8.465,-20.282 1.86,-1.51 3.425,-4.442 3.425,-6.838 V 0 c 0,-2.396 -1.565,-5.328 -3.425,-6.838 -5.775,-4.689 -9.251,-12.099 -8.465,-20.282 1.048,-10.908 9.862,-19.722 20.77,-20.77 8.183,-0.786 15.592,2.69 20.282,8.465 1.51,1.86 4.442,3.425 6.838,3.425 h 128 c 2.396,0 5.328,-1.565 6.838,-3.425 4.689,-5.775 12.1,-9.251 20.282,-8.465 10.908,1.048 19.722,9.862 20.77,20.77 0.786,8.183 -2.69,15.593 -8.465,20.282 C 1.565,-5.328 0,-2.396 0,0" /></g><g
           transform="translate(212,32)"
           id="g48"><path
             id="path50"
             style="fill:#404040;fill-opacity:1;fill-rule:nonzero;stroke:none"
             d="m 0,0 h -168 c -6.6,0 -12,5.4 -12,12 v 168 c 0,6.6 5.4,12 12,12 H 0 c 6.6,0 12,-5.4 12,-12 V 12 C 12,5.4 6.6,0 0,0" /></g></g></g></g></svg>