<svg xmlns="http://www.w3.org/2000/svg" xml:space="preserve" width="319.995" height="325.333" viewBox="0 0 319.995 325.333"><defs><clipPath id="a" clipPathUnits="userSpaceOnUse"><path d="M0 256h256V0H0Z"/></clipPath><clipPath id="b" clipPathUnits="userSpaceOnUse"><path d="M8.002 248h239.996V4H8.002Z"/></clipPath></defs><g clip-path="url(#a)" transform="matrix(1.33333 0 0 -1.33333 -10.669 330.666)"><g clip-path="url(#b)" style="opacity:.5"><path d="M0 0c-.175.179-.416.6-.501.864v127.582c.085.265.326.685.501.864 8.113 6.606 12.355 16.782 11.352 27.23-1.42 14.785-13.183 26.548-27.968 27.968a32 32 0 0 1-3.058.147c-9.413 0-18.222-4.19-24.173-11.498-.178-.176-.598-.417-.863-.502h-127.582c-.265.085-.686.327-.864.502-5.95 7.308-14.759 11.498-24.173 11.498-1.013 0-2.042-.049-3.057-.147-14.785-1.42-26.548-13.183-27.968-27.968-1.004-10.448 3.239-20.624 11.352-27.23.174-.179.416-.599.501-.864V.864c-.085-.264-.326-.685-.501-.864-8.113-6.605-12.356-16.781-11.352-27.229.638-6.638 3.393-12.823 7.857-17.766a9.92 9.92 0 0 1 3.711-7.501c4.748-3.81 10.419-6.127 16.4-6.701a32 32 0 0 1 3.056-.148 31.1 31.1 0 0 1 15.908 4.365 10.1 10.1 0 0 1 4.865 7.571 31 31 0 0 1 3.401 3.563c.179.175.599.416.864.501H-44.71c.265-.085.686-.326.863-.501a31 31 0 0 1 3.402-3.563 10.1 10.1 0 0 1 4.865-7.571 31.1 31.1 0 0 1 15.907-4.365c1.013 0 2.041.05 3.057.148 5.98.574 11.651 2.891 16.399 6.701a9.92 9.92 0 0 1 3.712 7.501c4.464 4.943 7.219 11.128 7.857 17.766C12.355-16.781 8.113-6.605 0 0" style="fill:#fff;fill-opacity:1;fill-rule:nonzero;stroke:none" transform="translate(236.501 63.345)"/></g><path d="M0 0c0-.596.257-1.172.722-1.545C4.135-4.282 8.321-6.084 12.88-6.522c5.178-.498 10.045.711 14.11 3.129A2.03 2.03 0 0 1 28-1.652V9.367H0Z" style="fill:#a3834a;fill-opacity:1;fill-rule:nonzero;stroke:none" transform="translate(24 18.633)"/><path d="M0 0c0-.596-.257-1.172-.722-1.545-3.413-2.737-7.599-4.539-12.158-4.977-5.178-.498-10.045.711-14.109 3.129A2.03 2.03 0 0 0-28-1.652V9.367H0Z" style="fill:#a3834a;fill-opacity:1;fill-rule:nonzero;stroke:none" transform="translate(232 18.633)"/><path d="M0 0v128c0 2.396 1.565 5.328 3.425 6.838 5.775 4.69 9.251 12.099 8.465 20.282-1.048 10.908-9.862 19.721-20.77 20.77-8.182.786-15.593-2.69-20.282-8.465-1.51-1.86-4.442-3.425-6.838-3.425h-128c-2.396 0-5.328 1.565-6.838 3.425-4.69 5.775-12.099 9.251-20.282 8.465-10.908-1.049-19.722-9.862-20.77-20.77-.786-8.183 2.69-15.592 8.465-20.282 1.86-1.51 3.425-4.442 3.425-6.838V0c0-2.396-1.565-5.328-3.425-6.838-5.775-4.689-9.251-12.099-8.465-20.282 1.048-10.908 9.862-19.722 20.77-20.77 8.183-.786 15.592 2.69 20.282 8.465 1.51 1.86 4.442 3.425 6.838 3.425h128c2.396 0 5.328-1.565 6.838-3.425 4.689-5.775 12.1-9.251 20.282-8.465 10.908 1.048 19.722 9.862 20.77 20.77.786 8.183-2.69 15.593-8.465 20.282C1.565-5.328 0-2.396 0 0" style="fill:#333;fill-opacity:1;fill-rule:nonzero;stroke:none" transform="translate(228 64)"/><path d="M0 0h-168c-6.6 0-12 5.4-12 12v168c0 6.6 5.4 12 12 12H0c6.6 0 12-5.4 12-12V12C12 5.4 6.6 0 0 0" style="fill:#404040;fill-opacity:1;fill-rule:nonzero;stroke:none" transform="translate(212 32)"/></g></svg>