<?xml version="1.0" encoding="UTF-8" standalone="no"?>
<svg
   xmlns:dc="http://purl.org/dc/elements/1.1/"
   xmlns:cc="http://creativecommons.org/ns#"
   xmlns:rdf="http://www.w3.org/1999/02/22-rdf-syntax-ns#"
   xmlns:svg="http://www.w3.org/2000/svg"
   xmlns="http://www.w3.org/2000/svg"
   viewBox="0 0 298.66665 330.66665"
   height="330.66666"
   width="298.66666"
   xml:space="preserve"
   id="svg2"
   version="1.1"><metadata
     id="metadata8"><rdf:RDF><cc:Work
         rdf:about=""><dc:format>image/svg+xml</dc:format><dc:type
           rdf:resource="http://purl.org/dc/dcmitype/StillImage" /></cc:Work></rdf:RDF></metadata><defs
     id="defs6"><clipPath
       id="clipPath18"
       clipPathUnits="userSpaceOnUse"><path
         id="path16"
         d="M 0,256 H 256 V 0 H 0 Z" /></clipPath><clipPath
       id="clipPath26"
       clipPathUnits="userSpaceOnUse"><path
         id="path24"
         d="M 16,252 H 240 V 4 H 16 Z" /></clipPath></defs><g
     transform="matrix(1.3333333,0,0,-1.3333333,-21.333333,335.99999)"
     id="g10"><g
       id="g12"><g
         clip-path="url(#clipPath18)"
         id="g14"><g
           id="g20"><g
             id="g22" /><g
             id="g34"><g
               style="opacity:0.5"
               id="g32"
               clip-path="url(#clipPath26)"><g
                 id="g30"
                 transform="translate(216,252)"><path
                   id="path28"
                   style="fill:#ffffff;fill-opacity:1;fill-rule:nonzero;stroke:none"
                   d="m 0,0 h -176 c -13.233,0 -24,-10.767 -24,-24 v -90 c 0,-1.573 0.365,-3.063 1.016,-4.389 -0.657,-1.747 -1.016,-3.637 -1.016,-5.611 v -96 c 0,-15.439 12.561,-28 28,-28 h 28 34 2 40 2 34 16 2 6 2 2 c 15.439,0 28,12.561 28,28 v 96 c 0,1.974 -0.359,3.864 -1.016,5.611 0.651,1.326 1.016,2.816 1.016,4.389 v 18 12 8 52 C 24,-10.767 13.233,0 0,0" /></g></g></g></g><g
           transform="translate(216,244)"
           id="g36"><path
             id="path38"
             style="fill:#4c4c4c;fill-opacity:1;fill-rule:nonzero;stroke:none"
             d="m 0,0 h -176 c -8.836,0 -16,-7.164 -16,-16 v -90 c 0,-1.104 0.896,-2 2,-2 h 6 v -4 H 8 v 4 h 6 c 1.104,0 2,0.896 2,2 v 90 C 16,-7.164 8.837,0 0,0" /></g><g
           transform="translate(212,12)"
           id="g40"><path
             id="path42"
             style="fill:#4c4c4c;fill-opacity:1;fill-rule:nonzero;stroke:none"
             d="m 0,0 h -168 c -11.046,0 -20,8.954 -20,20 v 96 H 20 V 20 C 20,8.954 11.046,0 0,0" /></g><path
           id="path44"
           style="fill:#595959;fill-opacity:1;fill-rule:nonzero;stroke:none"
           d="M 106,12 H 72 v 12 h 34 z" /><path
           id="path46"
           style="fill:#595959;fill-opacity:1;fill-rule:nonzero;stroke:none"
           d="m 148,12 h -40 v 12 h 40 z" /><path
           id="path48"
           style="fill:#595959;fill-opacity:1;fill-rule:nonzero;stroke:none"
           d="m 184,12 h -34 v 12 h 34 z" /><g
           transform="translate(184,128)"
           id="g50"><path
             id="path52"
             style="fill:#333333;fill-opacity:1;fill-rule:nonzero;stroke:none"
             d="m 0,0 h -112 c -4.418,0 -8,-3.582 -8,-8 v -100 c 0,-4.418 3.582,-8 8,-8 H 0 c 4.418,0 8,3.582 8,8 V -8 C 8,-3.582 4.418,0 0,0 m 0,-2 c 3.309,0 6,-2.691 6,-6 v -100 c 0,-3.309 -2.691,-6 -6,-6 h -112 c -3.309,0 -6,2.691 -6,6 V -8 c 0,3.309 2.691,6 6,6 H 0" /></g><g
           transform="translate(132,238)"
           id="g54"><path
             id="path56"
             style="fill:#191919;fill-opacity:1;fill-rule:nonzero;stroke:none"
             d="m 0,0 c 0,-2.209 -1.791,-4 -4,-4 -2.209,0 -4,1.791 -4,4 0,2.209 1.791,4 4,4 2.209,0 4,-1.791 4,-4" /></g><g
           transform="translate(126,238)"
           id="g58"><path
             id="path60"
             style="fill:#4f4f4f;fill-opacity:1;fill-rule:nonzero;stroke:none"
             d="M 0,0 C 0,1.104 0.896,2 2,2 3.104,2 4,1.104 4,0 4,-1.104 3.104,-2 2,-2 0.896,-2 0,-1.104 0,0" /></g><g
           transform="translate(129,238)"
           id="g62"><path
             id="path64"
             style="fill:#191919;fill-opacity:1;fill-rule:nonzero;stroke:none"
             d="m 0,0 c 0,-0.552 -0.448,-1 -1,-1 -0.552,0 -1,0.448 -1,1 0,0.552 0.448,1 1,1 0.552,0 1,-0.448 1,-1" /></g><g
           transform="translate(70,237)"
           id="g66"><path
             id="path68"
             style="fill:#404040;fill-opacity:1;fill-rule:nonzero;stroke:none"
             d="m 0,0 c 0,-1.657 -1.343,-3 -3,-3 -1.657,0 -3,1.343 -3,3 0,1.657 1.343,3 3,3 1.657,0 3,-1.343 3,-3" /></g><g
           transform="translate(192,237)"
           id="g70"><path
             id="path72"
             style="fill:#404040;fill-opacity:1;fill-rule:nonzero;stroke:none"
             d="m 0,0 c 0,-1.657 -1.343,-3 -3,-3 -1.657,0 -3,1.343 -3,3 0,1.657 1.343,3 3,3 1.657,0 3,-1.343 3,-3" /></g><g
           transform="translate(221.707,184.707)"
           id="g74"><path
             id="path76"
             style="fill:#191919;fill-opacity:1;fill-rule:nonzero;stroke:none"
             d="m 0,0 c -0.391,0.391 -1.023,0.391 -1.414,0 -0.391,-0.391 -0.391,-1.023 0,-1.414 0.391,-0.391 1.023,-0.391 1.414,0 0.391,0.391 0.391,1.023 0,1.414 m -6,0 c -0.391,0.391 -1.023,0.391 -1.414,0 -0.391,-0.391 -0.391,-1.023 0,-1.414 0.391,-0.391 1.023,-0.391 1.414,0 0.391,0.391 0.391,1.023 0,1.414 M 0,6 C -0.391,6.391 -1.023,6.391 -1.414,6 -1.805,5.609 -1.805,4.977 -1.414,4.586 -1.023,4.195 -0.391,4.195 0,4.586 0.391,4.977 0.391,5.609 0,6 m -6,0 c -0.391,0.391 -1.023,0.391 -1.414,0 -0.391,-0.391 -0.391,-1.023 0,-1.414 0.391,-0.391 1.023,-0.391 1.414,0 0.391,0.391 0.391,1.023 0,1.414 m 3.293,-8.707 c 0,0.552 -0.447,1 -1,1 -0.553,0 -1,-0.448 -1,-1 0,-0.552 0.447,-1 1,-1 0.553,0 1,0.448 1,1 m 0,10 c 0,0.552 -0.447,1 -1,1 -0.553,0 -1,-0.448 -1,-1 0,-0.552 0.447,-1 1,-1 0.553,0 1,0.448 1,1 m 4,-4 c -0.553,0 -1,-0.448 -1,-1 0,-0.552 0.447,-1 1,-1 0.553,0 1,0.448 1,1 0,0.552 -0.447,1 -1,1 m -10,0 c -0.553,0 -1,-0.448 -1,-1 0,-0.552 0.447,-1 1,-1 0.553,0 1,0.448 1,1 0,0.552 -0.447,1 -1,1 m 6,-1 c 0,-0.552 -0.447,-1 -1,-1 -0.553,0 -1,0.448 -1,1 0,0.552 0.447,1 1,1 0.553,0 1,-0.448 1,-1" /></g><g
           transform="translate(41.707,184.707)"
           id="g78"><path
             id="path80"
             style="fill:#191919;fill-opacity:1;fill-rule:nonzero;stroke:none"
             d="m 0,0 c -0.391,0.391 -1.023,0.391 -1.414,0 -0.391,-0.391 -0.391,-1.023 0,-1.414 0.391,-0.391 1.023,-0.391 1.414,0 0.391,0.391 0.391,1.023 0,1.414 m -6,0 c -0.391,0.391 -1.023,0.391 -1.414,0 -0.391,-0.391 -0.391,-1.023 0,-1.414 0.391,-0.391 1.023,-0.391 1.414,0 0.391,0.391 0.391,1.023 0,1.414 M 0,6 C -0.391,6.391 -1.023,6.391 -1.414,6 -1.805,5.609 -1.805,4.977 -1.414,4.586 -1.023,4.195 -0.391,4.195 0,4.586 0.391,4.977 0.391,5.609 0,6 m -6,0 c -0.391,0.391 -1.023,0.391 -1.414,0 -0.391,-0.391 -0.391,-1.023 0,-1.414 0.391,-0.391 1.023,-0.391 1.414,0 0.391,0.391 0.391,1.023 0,1.414 m 3.293,-8.707 c 0,0.552 -0.448,1 -1,1 -0.552,0 -1,-0.448 -1,-1 0,-0.552 0.448,-1 1,-1 0.552,0 1,0.448 1,1 m 0,10 c 0,0.552 -0.448,1 -1,1 -0.552,0 -1,-0.448 -1,-1 0,-0.552 0.448,-1 1,-1 0.552,0 1,0.448 1,1 m 4,-4 c -0.552,0 -1,-0.448 -1,-1 0,-0.552 0.448,-1 1,-1 0.552,0 1,0.448 1,1 0,0.552 -0.448,1 -1,1 m -10,0 c -0.552,0 -1,-0.448 -1,-1 0,-0.552 0.448,-1 1,-1 0.552,0 1,0.448 1,1 0,0.552 -0.448,1 -1,1 m 6,-1 c 0,-0.552 -0.448,-1 -1,-1 -0.552,0 -1,0.448 -1,1 0,0.552 0.448,1 1,1 0.552,0 1,-0.448 1,-1" /></g><path
           id="path82"
           style="fill:#191919;fill-opacity:1;fill-rule:nonzero;stroke:none"
           d="M 200,228 H 56 v -88 h 144 z" /><g
           transform="translate(200,136)"
           id="g84"><path
             id="path86"
             style="fill:#333333;fill-opacity:1;fill-rule:nonzero;stroke:none"
             d="m 0,0 h -144 c -2.209,0 -4,1.791 -4,4 v 88 c 0,2.209 1.791,4 4,4 H 0 c 2.209,0 4,-1.791 4,-4 V 4 C 4,1.791 2.209,0 0,0" /></g><path
           id="path88"
           style="fill:#191919;fill-opacity:1;fill-rule:nonzero;stroke:none"
           d="M 200,140 H 56 v 88 h 144 z" /><path
           id="path90"
           style="fill:#808080;fill-opacity:1;fill-rule:nonzero;stroke:none"
           d="M 198,142 H 58 v 84 h 140 z" /><path
           id="path92"
           style="fill:#808080;fill-opacity:1;fill-rule:nonzero;stroke:none"
           d="m 228,168 h 4 v 8 h -4 z" /><path
           id="path94"
           style="fill:#404040;fill-opacity:1;fill-rule:nonzero;stroke:none"
           d="m 228,156 h 4 v 12 h -4 z" /><g
           transform="translate(224,120)"
           id="g96"><path
             id="path98"
             style="fill:#404040;fill-opacity:1;fill-rule:nonzero;stroke:none"
             d="m 0,0 h -192 c -4.418,0 -8,3.582 -8,8 0,4.418 3.582,8 8,8 H 0 C 4.418,16 8,12.418 8,8 8,3.582 4.418,0 0,0" /></g><path
           id="path100"
           style="fill:#333333;fill-opacity:1;fill-rule:nonzero;stroke:none"
           d="m 42,120 h -2 v 16 h 2 z" /><path
           id="path102"
           style="fill:#333333;fill-opacity:1;fill-rule:nonzero;stroke:none"
           d="m 216,120 h -2 v 16 h 2 z" /><path
           id="path104"
           style="fill:#4c4c4c;fill-opacity:1;fill-rule:nonzero;stroke:none"
           d="m 224,126 h 2 v 4 h -2 z" /><path
           id="path106"
           style="fill:#808080;fill-opacity:1;fill-rule:nonzero;stroke:none"
           d="M 184,28 H 72 v 88 h 112 z" /><g
           transform="translate(60,93.8828)"
           id="g108"><path
             id="path110"
             style="fill:#404040;fill-opacity:1;fill-rule:nonzero;stroke:none"
             d="m 0,0 c 0,-8.285 -6.716,-15 -15,-15 -8.284,0 -15,6.715 -15,15 0,8.284 6.716,15 15,15 C -6.716,15 0,8.284 0,0" /></g><g
           transform="translate(55,93.8828)"
           id="g112"><path
             id="path114"
             style="fill:#b3b3b3;fill-opacity:1;fill-rule:nonzero;stroke:none"
             d="m 0,0 c 0,-5.523 -4.477,-10 -10,-10 -5.523,0 -10,4.477 -10,10 0,5.522 4.477,10 10,10 C -4.477,10 0,5.522 0,0" /></g><g
           transform="translate(52.5,93.8828)"
           id="g116"><path
             id="path118"
             style="fill:#999999;fill-opacity:1;fill-rule:nonzero;stroke:none"
             d="m 0,0 c 0,-4.143 -3.358,-7.5 -7.5,-7.5 -4.142,0 -7.5,3.357 -7.5,7.5 0,4.142 3.358,7.5 7.5,7.5 C -3.358,7.5 0,4.142 0,0" /></g><g
           transform="translate(56.4707,63.8828)"
           id="g120"><path
             id="path122"
             style="fill:#595959;fill-opacity:1;fill-rule:nonzero;stroke:none"
             d="m 0,0 h -7.941 v 7.94 c 0,0.488 -0.395,0.883 -0.883,0.883 h -5.294 C -14.605,8.823 -15,8.428 -15,7.94 V 0 h -7.941 c -0.488,0 -0.883,-0.396 -0.883,-0.883 v -5.294 c 0,-0.487 0.395,-0.883 0.883,-0.883 H -15 V -15 c 0,-0.487 0.395,-0.883 0.882,-0.883 h 5.294 c 0.488,0 0.883,0.396 0.883,0.883 v 7.94 H 0 c 0.487,0 0.882,0.396 0.882,0.883 v 5.294 C 0.882,-0.396 0.487,0 0,0" /></g><path
           id="path124"
           style="fill:#999999;fill-opacity:1;fill-rule:nonzero;stroke:none"
           d="m 44.118,70.941 h 1.765 v -5.294 h -1.765 z" /><path
           id="path126"
           style="fill:#999999;fill-opacity:1;fill-rule:nonzero;stroke:none"
           d="m 44.118,55.059 h 1.765 v -5.294 h -1.765 z" /><path
           id="path128"
           style="fill:#999999;fill-opacity:1;fill-rule:nonzero;stroke:none"
           d="m 55.588,59.471 h -5.294 v 1.765 h 5.294 z" /><path
           id="path130"
           style="fill:#999999;fill-opacity:1;fill-rule:nonzero;stroke:none"
           d="m 39.706,59.471 h -5.294 v 1.765 h 5.294 z" /><path
           id="path132"
           style="fill:#3096cf;fill-opacity:1;fill-rule:nonzero;stroke:none"
           d="m 202,12 h -2 v 4 h 2 z" /><path
           id="path134"
           style="fill:#404040;fill-opacity:1;fill-rule:nonzero;stroke:none"
           d="m 210,12 h -2 v 4 h 2 z" /><g
           transform="translate(196,26)"
           id="g136"><path
             id="path138"
             style="fill:#595959;fill-opacity:1;fill-rule:nonzero;stroke:none"
             d="M 0,0 C 0,-2.209 1.791,-4 4,-4 6.209,-4 8,-2.209 8,0 8,2.209 6.209,4 4,4 1.791,4 0,2.209 0,0" /></g><g
           transform="translate(215,98)"
           id="g140"><path
             id="path142"
             style="fill:#595959;fill-opacity:1;fill-rule:nonzero;stroke:none"
             d="m 0,0 c 0,-2.762 -2.238,-5 -5,-5 -2.762,0 -5,2.238 -5,5 0,2.762 2.238,5 5,5 2.762,0 5,-2.238 5,-5" /></g><g
           transform="translate(215,77)"
           id="g144"><path
             id="path146"
             style="fill:#595959;fill-opacity:1;fill-rule:nonzero;stroke:none"
             d="m 0,0 c 0,-2.762 -2.238,-5 -5,-5 -2.762,0 -5,2.238 -5,5 0,2.762 2.238,5 5,5 2.762,0 5,-2.238 5,-5" /></g><g
           transform="translate(220.5,82)"
           id="g148"><path
             id="path150"
             style="fill:#595959;fill-opacity:1;fill-rule:nonzero;stroke:none"
             d="m 0,0 c -2.762,0 -5,2.238 -5,5 0,2.762 2.238,5 5,5 C 2.762,10 5,7.762 5,5 5,2.238 2.762,0 0,0" /></g><g
           transform="translate(199.5,82)"
           id="g152"><path
             id="path154"
             style="fill:#595959;fill-opacity:1;fill-rule:nonzero;stroke:none"
             d="m 0,0 c -2.762,0 -5,2.238 -5,5 0,2.762 2.238,5 5,5 C 2.762,10 5,7.762 5,5 5,2.238 2.762,0 0,0" /></g></g></g></g></svg>