<svg xmlns="http://www.w3.org/2000/svg" xml:space="preserve" width="298.667" height="330.667" viewBox="0 0 298.667 330.667"><defs><clipPath id="a" clipPathUnits="userSpaceOnUse"><path d="M0 256h256V0H0Z"/></clipPath><clipPath id="b" clipPathUnits="userSpaceOnUse"><path d="M16 252h224V4H16Z"/></clipPath></defs><g clip-path="url(#a)" transform="matrix(1.33333 0 0 -1.33333 -21.333 336)"><g clip-path="url(#b)" style="opacity:.5"><path d="M0 0h-176c-13.233 0-24-10.767-24-24v-90c0-1.573.365-3.063 1.016-4.389A15.9 15.9 0 0 1-200-124v-96c0-15.439 12.561-28 28-28H-4c15.439 0 28 12.561 28 28v96c0 1.974-.359 3.864-1.016 5.611A9.9 9.9 0 0 1 24-114v90C24-10.767 13.233 0 0 0" style="fill:#fff;fill-opacity:1;fill-rule:nonzero;stroke:none" transform="translate(216 252)"/></g><path d="M0 0h-176c-8.836 0-16-7.164-16-16v-90a2 2 0 0 1 2-2h6v-4H8v4h6a2 2 0 0 1 2 2v90C16-7.164 8.837 0 0 0" style="fill:#4c4c4c;fill-opacity:1;fill-rule:nonzero;stroke:none" transform="translate(216 244)"/><path d="M0 0h-168c-11.046 0-20 8.954-20 20v96H20V20C20 8.954 11.046 0 0 0" style="fill:#4c4c4c;fill-opacity:1;fill-rule:nonzero;stroke:none" transform="translate(212 12)"/><path d="M106 12H72v12h34zm42 0h-40v12h40zm36 0h-34v12h34z" style="fill:#595959;fill-opacity:1;fill-rule:nonzero;stroke:none"/><path d="M0 0h-112a8 8 0 0 1-8-8v-100a8 8 0 0 1 8-8H0a8 8 0 0 1 8 8V-8a8 8 0 0 1-8 8m0-2c3.309 0 6-2.691 6-6v-100c0-3.309-2.691-6-6-6h-112c-3.309 0-6 2.691-6 6V-8c0 3.309 2.691 6 6 6z" style="fill:#333;fill-opacity:1;fill-rule:nonzero;stroke:none" transform="translate(184 128)"/><path d="M0 0a4 4 0 1 0-8 0 4 4 0 0 0 8 0" style="fill:#191919;fill-opacity:1;fill-rule:nonzero;stroke:none" transform="translate(132 238)"/><path d="M0 0a2 2 0 1 0 4.001-.001A2 2 0 0 0 0 0" style="fill:#4f4f4f;fill-opacity:1;fill-rule:nonzero;stroke:none" transform="translate(126 238)"/><path d="M0 0a1 1 0 1 0-2 0 1 1 0 0 0 2 0" style="fill:#191919;fill-opacity:1;fill-rule:nonzero;stroke:none" transform="translate(129 238)"/><path d="M0 0a3 3 0 1 0-6 0 3 3 0 0 0 6 0" style="fill:#404040;fill-opacity:1;fill-rule:nonzero;stroke:none" transform="translate(70 237)"/><path d="M0 0a3 3 0 1 0-6 0 3 3 0 0 0 6 0" style="fill:#404040;fill-opacity:1;fill-rule:nonzero;stroke:none" transform="translate(192 237)"/><path d="M0 0a.999.999 0 1 1-1.414-1.414A.999.999 0 1 1 0 0m-6 0a.999.999 0 1 1-1.414-1.414A.999.999 0 1 1-6 0m6 6a.999.999 0 1 1-1.414-1.414A.999.999 0 1 1 0 6m-6 0a.999.999 0 1 1-1.414-1.414A.999.999 0 1 1-6 6m3.293-8.707a1 1 0 1 1-2 0 1 1 0 0 1 2 0m0 10a1 1 0 1 1-2 0 1 1 0 0 1 2 0m4-4a1 1 0 1 1 0-2 1 1 0 0 1 0 2m-10 0a1 1 0 1 1 0-2 1 1 0 0 1 0 2m6-1a1 1 0 1 0-2 0 1 1 0 0 0 2 0" style="fill:#191919;fill-opacity:1;fill-rule:nonzero;stroke:none" transform="translate(221.707 184.707)"/><path d="M0 0a.999.999 0 1 1-1.414-1.414A.999.999 0 1 1 0 0m-6 0a.999.999 0 1 1-1.414-1.414A.999.999 0 1 1-6 0m6 6a.999.999 0 1 1-1.414-1.414A.999.999 0 1 1 0 6m-6 0a.999.999 0 1 1-1.414-1.414A.999.999 0 1 1-6 6m3.293-8.707a1 1 0 1 1-2 0 1 1 0 0 1 2 0m0 10a1 1 0 1 1-2 0 1 1 0 0 1 2 0m4-4a1 1 0 1 1 0-2 1 1 0 0 1 0 2m-10 0a1 1 0 1 1 0-2 1 1 0 0 1 0 2m6-1a1 1 0 1 0-2 0 1 1 0 0 0 2 0" style="fill:#191919;fill-opacity:1;fill-rule:nonzero;stroke:none" transform="translate(41.707 184.707)"/><path d="M200 228H56v-88h144z" style="fill:#191919;fill-opacity:1;fill-rule:nonzero;stroke:none"/><path d="M0 0h-144a4 4 0 0 0-4 4v88a4 4 0 0 0 4 4H0a4 4 0 0 0 4-4V4a4 4 0 0 0-4-4" style="fill:#333;fill-opacity:1;fill-rule:nonzero;stroke:none" transform="translate(200 136)"/><path d="M200 140H56v88h144z" style="fill:#191919;fill-opacity:1;fill-rule:nonzero;stroke:none"/><path d="M198 142H58v84h140zm30 26h4v8h-4z" style="fill:gray;fill-opacity:1;fill-rule:nonzero;stroke:none"/><path d="M228 156h4v12h-4z" style="fill:#404040;fill-opacity:1;fill-rule:nonzero;stroke:none"/><path d="M0 0h-192a8 8 0 0 0 0 16H0A8 8 0 0 0 0 0" style="fill:#404040;fill-opacity:1;fill-rule:nonzero;stroke:none" transform="translate(224 120)"/><path d="M42 120h-2v16h2zm174 0h-2v16h2z" style="fill:#333;fill-opacity:1;fill-rule:nonzero;stroke:none"/><path d="M224 126h2v4h-2z" style="fill:#4c4c4c;fill-opacity:1;fill-rule:nonzero;stroke:none"/><path d="M184 28H72v88h112z" style="fill:gray;fill-opacity:1;fill-rule:nonzero;stroke:none"/><path d="M0 0c0-8.285-6.716-15-15-15S-30-8.285-30 0s6.716 15 15 15S0 8.284 0 0" style="fill:#404040;fill-opacity:1;fill-rule:nonzero;stroke:none" transform="translate(60 93.883)"/><path d="M0 0c0-5.523-4.477-10-10-10S-20-5.523-20 0s4.477 10 10 10S0 5.522 0 0" style="fill:#b3b3b3;fill-opacity:1;fill-rule:nonzero;stroke:none" transform="translate(55 93.883)"/><path d="M0 0a7.5 7.5 0 0 0-7.5-7.5A7.5 7.5 0 1 0 0 0" style="fill:#999;fill-opacity:1;fill-rule:nonzero;stroke:none" transform="translate(52.5 93.883)"/><path d="M0 0h-7.941v7.94a.883.883 0 0 1-.883.883h-5.294A.88.88 0 0 1-15 7.94V0h-7.941a.883.883 0 0 1-.883-.883v-5.294c0-.487.395-.883.883-.883H-15V-15c0-.487.395-.883.882-.883h5.294c.488 0 .883.396.883.883v7.94H0c.487 0 .882.396.882.883v5.294A.883.883 0 0 1 0 0" style="fill:#595959;fill-opacity:1;fill-rule:nonzero;stroke:none" transform="translate(56.47 63.883)"/><path d="M44.118 70.941h1.765v-5.294h-1.765zm0-15.882h1.765v-5.294h-1.765zm11.47 4.412h-5.294v1.765h5.294zm-15.882 0h-5.294v1.765h5.294z" style="fill:#999;fill-opacity:1;fill-rule:nonzero;stroke:none"/><path d="M202 12h-2v4h2z" style="fill:#3096cf;fill-opacity:1;fill-rule:nonzero;stroke:none"/><path d="M210 12h-2v4h2z" style="fill:#404040;fill-opacity:1;fill-rule:nonzero;stroke:none"/><path d="M0 0a4 4 0 1 1 8 0 4 4 0 0 1-8 0" style="fill:#595959;fill-opacity:1;fill-rule:nonzero;stroke:none" transform="translate(196 26)"/><path d="M0 0a5 5 0 0 0-5-5 5 5 0 0 0-5 5 5 5 0 0 0 5 5 5 5 0 0 0 5-5" style="fill:#595959;fill-opacity:1;fill-rule:nonzero;stroke:none" transform="translate(215 98)"/><path d="M0 0a5 5 0 0 0-5-5 5 5 0 0 0-5 5 5 5 0 0 0 5 5 5 5 0 0 0 5-5" style="fill:#595959;fill-opacity:1;fill-rule:nonzero;stroke:none" transform="translate(215 77)"/><path d="M0 0a5 5 0 0 0-5 5 5 5 0 0 0 5 5 5 5 0 0 0 5-5 5 5 0 0 0-5-5" style="fill:#595959;fill-opacity:1;fill-rule:nonzero;stroke:none" transform="translate(220.5 82)"/><path d="M0 0a5 5 0 0 0-5 5 5 5 0 0 0 5 5 5 5 0 0 0 5-5 5 5 0 0 0-5-5" style="fill:#595959;fill-opacity:1;fill-rule:nonzero;stroke:none" transform="translate(199.5 82)"/></g></svg>