<svg xmlns="http://www.w3.org/2000/svg" xml:space="preserve" viewBox="0 0 256 256"><path d="m251.93 110.943-8-60-.926-6.943H12.996l-.926 6.943-8 60-.07.526V212h248V111.469z" style="opacity:.5;fill:#fff"/><path d="M12 112h232v92H12z" style="fill:#c4c0aa"/><path d="M20 132h216v68H20z" style="fill:#d9d4bc"/><path d="M196 152h36v44h-36zm-172 0h136v36H24z" style="fill:#8c8c8c"/><path d="M168 136h20v8h-20z" style="fill:#a6a390"/><path d="M44 136h32v8H44zm40 0h32v8H84zm44 0h32v8h-32z" style="fill:#7b0000"/><path d="M244 112H12l8-60h216z" style="fill:#d9d4bc"/><path d="M24 52h4v36h-4zm12 52a4 4 0 0 1-4-4V52h4zm4-52h4v52h-4zm8 0h4v52h-4zm8 0h4v52h-4zm8 0h4v52h-4zm8 0h4v52h-4zm8 52V52h4v48a4 4 0 0 1-4 4m8-52h4v36h-4zm8 0h4v36h-4zm8 0h4v36h-4zm8 0h4v36h-4zm8 0h4v36h-4zm8 0h4v36h-4zm8 0h4v36h-4zm8 0h4v36h-4zm8 0h4v36h-4zm8 0h4v36h-4zm12 0h4v36h-4zm8 0h4v36h-4zm8 0h4v36h-4zm8 0h4v36h-4zm8 0h4v36h-4zm8 0h4v36h-4zm8 0h4v36h-4zm8 0h4v36h-4z" style="fill:#a6a390"/><path d="M16 116h20v8H16zm180 20h36v8h-36z" style="fill:#bf9a57"/><path d="M16 128h224v4H16zm8 8h8v8h-8z" style="fill:#a6a390"/><path d="M40 136h8v8h-8zm10 0h8v8h-8zm10 0h8v8h-8zm10 0h8v8h-8zm12 0h8v8h-8zm10 0h8v8h-8zm10 0h8v8h-8zm10 0h8v8h-8zm12 0h8v8h-8zm10 0h8v8h-8zm10 0h8v8h-8z" style="fill:#b80000"/><path d="M164 136h8v8h-8zm10 0h8v8h-8zm10 0h8v8h-8z" style="fill:#a6a390"/><path d="M164 152h28v20h-28z" style="fill:#8c8c8c"/><path d="M164 152h8v8h-8zm10 0h8v8h-8zm10 0h8v8h-8zm12 0h8v8h-8zm10 0h8v8h-8zm10 0h8v8h-8z" style="fill:#a6a390"/><path d="M196 164h8v8h-8zm10 0h8v8h-8zm10 0h8v8h-8zm-20 12h8v8h-8zm10 0h8v8h-8zm10 0h8v8h-8zm-20 12h8v8h-8zm10 0h8v8h-8zm10 0h8v8h-8z" style="fill:#c4c0aa"/><path d="M164 164h8v8h-8zm10 0h8v8h-8zm10 0h8v8h-8z" style="fill:#a6a390"/><path d="M164 188h28v8h-28z" style="fill:#8c8c8c"/><path d="M174 176h8v8h-8z" style="fill:#a6a390"/><path d="M174 184h8v8h-8z" style="fill:#8c8c8c"/><path d="M164 188h8v8h-8zm10 0h8v8h-8zm10 0h8v8h-8z" style="fill:#a6a390"/><path d="M154 136h8v8h-8z" style="fill:#b80000"/><path d="M24 152h8v8h-8zm0 12h12v8H24z" style="fill:#a6a390"/><path d="M36 152h8v8h-8zm4 12h8v8h-8z" style="fill:#c4c0aa"/><path d="M24 176h16v8H24zm0 12h12v8H24zm24 0h12v8H48zm80 0h12v8h-12zm20 0h12v8h-12z" style="fill:#a6a390"/><path d="M64 188h60v8H64zm-20-12h8v8h-8zm12 0h8v8h-8zm12 0h8v8h-8zm12 0h8v8h-8zm12 0h8v8h-8zm12 0h8v8h-8zm12 0h8v8h-8zm12 0h8v8h-8z" style="fill:#c4c0aa"/><path d="M140 176h20v8h-20z" style="fill:#a6a390"/><path d="M52 164h8v8h-8zm12 0h8v8h-8zm12 0h8v8h-8zm12 0h8v8h-8zm12 0h8v8h-8zm12 0h8v8h-8zm12 0h8v8h-8zm12 0h8v8h-8z" style="fill:#c4c0aa"/><path d="M148 164h12v8h-12z" style="fill:#a6a390"/><path d="M48 152h8v8h-8zm12 0h8v8h-8zm12 0h8v8h-8zm12 0h8v8h-8zm12 0h8v8h-8zm12 0h8v8h-8zm12 0h8v8h-8zm12 0h8v8h-8zm12 0h8v8h-8z" style="fill:#c4c0aa"/><path d="M156 152h4v8h-4zm70 0h6v8h-6zm0 12h6v8h-6zm0 12h6v8h-6zm0 12h6v8h-6z" style="fill:#a6a390"/></svg>