<?xml version="1.0" encoding="iso-8859-1"?>
<!-- Generator: Adobe Illustrator 27.8.1, SVG Export Plug-In . SVG Version: 6.00 Build 0)  -->
<svg version="1.1" id="Layer_1" xmlns="http://www.w3.org/2000/svg" xmlns:xlink="http://www.w3.org/1999/xlink" x="0px" y="0px"
	 viewBox="0 0 256 256" style="enable-background:new 0 0 256 256;" xml:space="preserve">
<polygon style="opacity:0.5;fill:#FFFFFF;" points="251.93,110.943 243.93,50.943 243.004,44 236,44 232,44 228,44 224,44 220,44 
	216,44 212,44 208,44 204,44 200,44 196,44 192,44 188,44 184,44 180,44 176,44 172,44 164,44 160,44 156,44 152,44 148,44 144,44 
	140,44 136,44 132,44 128,44 124,44 120,44 116,44 112,44 108,44 104,44 100,44 96,44 92,44 88,44 84,44 80,44 76,44 72,44 68,44 
	64,44 60,44 56,44 52,44 48,44 44,44 40,44 36,44 32,44 28,44 24,44 20,44 12.996,44 12.07,50.943 4.07,110.943 4,111.469 4,112 
	4,204 4,212 12,212 244,212 252,212 252,204 252,112 252,111.469 "/>
<rect x="12" y="112" style="fill:#C4C0AA;" width="232" height="92"/>
<rect x="20" y="132" style="fill:#D9D4BC;" width="216" height="68"/>
<rect x="196" y="152" style="fill:#8C8C8C;" width="36" height="44"/>
<rect x="24" y="152" style="fill:#8C8C8C;" width="136" height="36"/>
<rect x="168" y="136" style="fill:#A6A390;" width="20" height="8"/>
<rect x="44" y="136" style="fill:#7B0000;" width="32" height="8"/>
<rect x="84" y="136" style="fill:#7B0000;" width="32" height="8"/>
<rect x="128" y="136" style="fill:#7B0000;" width="32" height="8"/>
<polygon style="fill:#D9D4BC;" points="244,112 12,112 20,52 236,52 "/>
<rect x="24" y="52" style="fill:#A6A390;" width="4" height="36"/>
<path style="fill:#A6A390;" d="M36,104L36,104c-2.209,0-4-1.791-4-4V52h4V104z"/>
<rect x="40" y="52" style="fill:#A6A390;" width="4" height="52"/>
<rect x="48" y="52" style="fill:#A6A390;" width="4" height="52"/>
<rect x="56" y="52" style="fill:#A6A390;" width="4" height="52"/>
<rect x="64" y="52" style="fill:#A6A390;" width="4" height="52"/>
<rect x="72" y="52" style="fill:#A6A390;" width="4" height="52"/>
<path style="fill:#A6A390;" d="M80,104L80,104l0-52h4v48C84,102.209,82.209,104,80,104z"/>
<rect x="88" y="52" style="fill:#A6A390;" width="4" height="36"/>
<rect x="96" y="52" style="fill:#A6A390;" width="4" height="36"/>
<rect x="104" y="52" style="fill:#A6A390;" width="4" height="36"/>
<rect x="112" y="52" style="fill:#A6A390;" width="4" height="36"/>
<rect x="120" y="52" style="fill:#A6A390;" width="4" height="36"/>
<rect x="128" y="52" style="fill:#A6A390;" width="4" height="36"/>
<rect x="136" y="52" style="fill:#A6A390;" width="4" height="36"/>
<rect x="144" y="52" style="fill:#A6A390;" width="4" height="36"/>
<rect x="152" y="52" style="fill:#A6A390;" width="4" height="36"/>
<rect x="160" y="52" style="fill:#A6A390;" width="4" height="36"/>
<rect x="172" y="52" style="fill:#A6A390;" width="4" height="36"/>
<rect x="180" y="52" style="fill:#A6A390;" width="4" height="36"/>
<rect x="188" y="52" style="fill:#A6A390;" width="4" height="36"/>
<rect x="196" y="52" style="fill:#A6A390;" width="4" height="36"/>
<rect x="204" y="52" style="fill:#A6A390;" width="4" height="36"/>
<rect x="212" y="52" style="fill:#A6A390;" width="4" height="36"/>
<rect x="220" y="52" style="fill:#A6A390;" width="4" height="36"/>
<rect x="228" y="52" style="fill:#A6A390;" width="4" height="36"/>
<rect x="16" y="116" style="fill:#BF9A57;" width="20" height="8"/>
<rect x="196" y="136" style="fill:#BF9A57;" width="36" height="8"/>
<rect x="16" y="128" style="fill:#A6A390;" width="224" height="4"/>
<rect x="24" y="136" style="fill:#A6A390;" width="8" height="8"/>
<rect x="40" y="136" style="fill:#B80000;" width="8" height="8"/>
<rect x="50" y="136" style="fill:#B80000;" width="8" height="8"/>
<rect x="60" y="136" style="fill:#B80000;" width="8" height="8"/>
<rect x="70" y="136" style="fill:#B80000;" width="8" height="8"/>
<rect x="82" y="136" style="fill:#B80000;" width="8" height="8"/>
<rect x="92" y="136" style="fill:#B80000;" width="8" height="8"/>
<rect x="102" y="136" style="fill:#B80000;" width="8" height="8"/>
<rect x="112" y="136" style="fill:#B80000;" width="8" height="8"/>
<rect x="124" y="136" style="fill:#B80000;" width="8" height="8"/>
<rect x="134" y="136" style="fill:#B80000;" width="8" height="8"/>
<rect x="144" y="136" style="fill:#B80000;" width="8" height="8"/>
<rect x="164" y="136" style="fill:#A6A390;" width="8" height="8"/>
<rect x="174" y="136" style="fill:#A6A390;" width="8" height="8"/>
<rect x="184" y="136" style="fill:#A6A390;" width="8" height="8"/>
<rect x="164" y="152" style="fill:#8C8C8C;" width="28" height="20"/>
<rect x="164" y="152" style="fill:#A6A390;" width="8" height="8"/>
<rect x="174" y="152" style="fill:#A6A390;" width="8" height="8"/>
<rect x="184" y="152" style="fill:#A6A390;" width="8" height="8"/>
<rect x="196" y="152" style="fill:#A6A390;" width="8" height="8"/>
<rect x="206" y="152" style="fill:#A6A390;" width="8" height="8"/>
<rect x="216" y="152" style="fill:#A6A390;" width="8" height="8"/>
<rect x="196" y="164" style="fill:#C4C0AA;" width="8" height="8"/>
<rect x="206" y="164" style="fill:#C4C0AA;" width="8" height="8"/>
<rect x="216" y="164" style="fill:#C4C0AA;" width="8" height="8"/>
<rect x="196" y="176" style="fill:#C4C0AA;" width="8" height="8"/>
<rect x="206" y="176" style="fill:#C4C0AA;" width="8" height="8"/>
<rect x="216" y="176" style="fill:#C4C0AA;" width="8" height="8"/>
<rect x="196" y="188" style="fill:#C4C0AA;" width="8" height="8"/>
<rect x="206" y="188" style="fill:#C4C0AA;" width="8" height="8"/>
<rect x="216" y="188" style="fill:#C4C0AA;" width="8" height="8"/>
<rect x="164" y="164" style="fill:#A6A390;" width="8" height="8"/>
<rect x="174" y="164" style="fill:#A6A390;" width="8" height="8"/>
<rect x="184" y="164" style="fill:#A6A390;" width="8" height="8"/>
<rect x="164" y="188" style="fill:#8C8C8C;" width="28" height="8"/>
<rect x="174" y="176" style="fill:#A6A390;" width="8" height="8"/>
<rect x="174" y="184" style="fill:#8C8C8C;" width="8" height="8"/>
<rect x="164" y="188" style="fill:#A6A390;" width="8" height="8"/>
<rect x="174" y="188" style="fill:#A6A390;" width="8" height="8"/>
<rect x="184" y="188" style="fill:#A6A390;" width="8" height="8"/>
<rect x="154" y="136" style="fill:#B80000;" width="8" height="8"/>
<rect x="24" y="152" style="fill:#A6A390;" width="8" height="8"/>
<rect x="24" y="164" style="fill:#A6A390;" width="12" height="8"/>
<rect x="36" y="152" style="fill:#C4C0AA;" width="8" height="8"/>
<rect x="40" y="164" style="fill:#C4C0AA;" width="8" height="8"/>
<rect x="24" y="176" style="fill:#A6A390;" width="16" height="8"/>
<rect x="24" y="188" style="fill:#A6A390;" width="12" height="8"/>
<rect x="48" y="188" style="fill:#A6A390;" width="12" height="8"/>
<rect x="128" y="188" style="fill:#A6A390;" width="12" height="8"/>
<rect x="148" y="188" style="fill:#A6A390;" width="12" height="8"/>
<rect x="64" y="188" style="fill:#C4C0AA;" width="60" height="8"/>
<rect x="44" y="176" style="fill:#C4C0AA;" width="8" height="8"/>
<rect x="56" y="176" style="fill:#C4C0AA;" width="8" height="8"/>
<rect x="68" y="176" style="fill:#C4C0AA;" width="8" height="8"/>
<rect x="80" y="176" style="fill:#C4C0AA;" width="8" height="8"/>
<rect x="92" y="176" style="fill:#C4C0AA;" width="8" height="8"/>
<rect x="104" y="176" style="fill:#C4C0AA;" width="8" height="8"/>
<rect x="116" y="176" style="fill:#C4C0AA;" width="8" height="8"/>
<rect x="128" y="176" style="fill:#C4C0AA;" width="8" height="8"/>
<rect x="140" y="176" style="fill:#A6A390;" width="20" height="8"/>
<rect x="52" y="164" style="fill:#C4C0AA;" width="8" height="8"/>
<rect x="64" y="164" style="fill:#C4C0AA;" width="8" height="8"/>
<rect x="76" y="164" style="fill:#C4C0AA;" width="8" height="8"/>
<rect x="88" y="164" style="fill:#C4C0AA;" width="8" height="8"/>
<rect x="100" y="164" style="fill:#C4C0AA;" width="8" height="8"/>
<rect x="112" y="164" style="fill:#C4C0AA;" width="8" height="8"/>
<rect x="124" y="164" style="fill:#C4C0AA;" width="8" height="8"/>
<rect x="136" y="164" style="fill:#C4C0AA;" width="8" height="8"/>
<rect x="148" y="164" style="fill:#A6A390;" width="12" height="8"/>
<rect x="48" y="152" style="fill:#C4C0AA;" width="8" height="8"/>
<rect x="60" y="152" style="fill:#C4C0AA;" width="8" height="8"/>
<rect x="72" y="152" style="fill:#C4C0AA;" width="8" height="8"/>
<rect x="84" y="152" style="fill:#C4C0AA;" width="8" height="8"/>
<rect x="96" y="152" style="fill:#C4C0AA;" width="8" height="8"/>
<rect x="108" y="152" style="fill:#C4C0AA;" width="8" height="8"/>
<rect x="120" y="152" style="fill:#C4C0AA;" width="8" height="8"/>
<rect x="132" y="152" style="fill:#C4C0AA;" width="8" height="8"/>
<rect x="144" y="152" style="fill:#C4C0AA;" width="8" height="8"/>
<rect x="156" y="152" style="fill:#A6A390;" width="4" height="8"/>
<rect x="226" y="152" style="fill:#A6A390;" width="6" height="8"/>
<rect x="226" y="164" style="fill:#A6A390;" width="6" height="8"/>
<rect x="226" y="176" style="fill:#A6A390;" width="6" height="8"/>
<rect x="226" y="188" style="fill:#A6A390;" width="6" height="8"/>
</svg>
