<?xml version="1.0" encoding="UTF-8" standalone="no"?>
<svg
   xmlns:dc="http://purl.org/dc/elements/1.1/"
   xmlns:cc="http://creativecommons.org/ns#"
   xmlns:rdf="http://www.w3.org/1999/02/22-rdf-syntax-ns#"
   xmlns:svg="http://www.w3.org/2000/svg"
   xmlns="http://www.w3.org/2000/svg"
   viewBox="0 0 320 101.33333"
   height="101.33333"
   width="320"
   xml:space="preserve"
   id="svg2"
   version="1.1"><metadata
     id="metadata8"><rdf:RDF><cc:Work
         rdf:about=""><dc:format>image/svg+xml</dc:format><dc:type
           rdf:resource="http://purl.org/dc/dcmitype/StillImage" /></cc:Work></rdf:RDF></metadata><defs
     id="defs6"><clipPath
       id="clipPath18"
       clipPathUnits="userSpaceOnUse"><path
         id="path16"
         d="M 0,256 H 256 V 0 H 0 Z" /></clipPath><clipPath
       id="clipPath26"
       clipPathUnits="userSpaceOnUse"><path
         id="path24"
         d="M 8,164 H 248 V 88 H 8 Z" /></clipPath><clipPath
       id="clipPath154"
       clipPathUnits="userSpaceOnUse"><path
         id="path152"
         d="M 0,256 H 256 V 0 H 0 Z" /></clipPath></defs><g
     transform="matrix(1.3333333,0,0,-1.3333333,-10.666666,218.66666)"
     id="g10"><g
       id="g12"><g
         clip-path="url(#clipPath18)"
         id="g14"><g
           id="g20"><g
             id="g22" /><g
             id="g32"><g
               style="opacity:0.5"
               id="g30"
               clip-path="url(#clipPath26)"><path
                 id="path28"
                 style="fill:#ffffff;fill-opacity:1;fill-rule:nonzero;stroke:none"
                 d="M 248,88 H 8 v 76 h 240 z" /></g></g></g></g></g><path
       id="path34"
       style="fill:#4c4c4c;fill-opacity:1;fill-rule:nonzero;stroke:none"
       d="M 240,152 H 16 v 8 h 224 z" /><g
       transform="translate(234,160)"
       id="g36"><path
         id="path38"
         style="fill:#595959;fill-opacity:1;fill-rule:nonzero;stroke:none"
         d="m 0,0 v -4 h -2 v 4 h -2 v -4 h -2 v 4 h -2 v -4 h -2 v 4 h -2 v -4 h -2 v 4 h -2 v -4 h -2 v 4 h -2 v -4 h -2 v 4 h -2 v -4 h -2 v 4 h -2 v -4 h -2 v 4 h -2 v -4 h -2 v 4 h -2 v -4 h -2 v 4 h -2 v -4 h -2 v 4 h -2 v -4 h -2 v 4 h -2 v -4 h -2 v 4 h -2 v -4 h -2 v 4 h -2 v -4 h -2 v 4 h -2 v -4 h -2 v 4 h -2 v -4 h -2 v 4 h -2 v -4 h -2 v 4 h -2 v -4 h -2 v 4 h -2 v -4 h -2 v 4 h -2 v -4 h -2 v 4 h -2 v -4 h -2 v 4 h -2 v -4 h -2 v 4 h -2 v -4 h -2 v 4 h -2 v -4 h -2 v 4 h -2 v -4 h -2 v 4 h -2 v -4 h -2 v 4 h -2 v -4 h -2 v 4 h -2 v -4 h -2 v 4 h -2 v -4 h -2 v 4 h -2 v -4 h -2 v 4 h -2 v -4 h -2 v 4 h -2 v -4 h -2 v 4 h -2 v -4 h -2 v 4 h -2 v -4 h -2 v 4 h -2 v -4 h -2 v 4 h -2 v -4 h -2 v 4 h -2 v -4 h -2 v 4 h -2 v -4 h -2 v 4 h -2 v -4 h -2 v 4 h -2 v -4 h -2 v 4 h -2 v -4 h -2 v 4 h -2 v -4 h -2 v 4 h -2 v -4 h -2 v 4 h -2 v -4 h -2 v 4 h -2 v -4 h -2 v 4 h -2 v -4 h -2 v 4 h -2 v -4 h -2 v 4 h -2 v -4 h -2 v 4 h -2 v -4 h -2 v 4 h -2 v -4 h -2 v 4 h -2 v -4 h -2 v 4 h -2 v -4 h -2 v 4 h -2 v -4 h -2 v 4 h -8 v -60 -4 -4 H 10 v 4 4 60 z" /></g><path
       id="path40"
       style="fill:#4c4c4c;fill-opacity:1;fill-rule:nonzero;stroke:none"
       d="M 148,144 H 24 v 8 h 124 z" /><path
       id="path42"
       style="fill:#ff0000;fill-opacity:1;fill-rule:nonzero;stroke:none"
       d="m 32,132 h -8 v 8 h 8 z" /><path
       id="path44"
       style="fill:#4eb96f;fill-opacity:1;fill-rule:nonzero;stroke:none"
       d="m 32,120 h -8 v 8 h 8 z" /><path
       id="path46"
       style="fill:#404040;fill-opacity:1;fill-rule:nonzero;stroke:none"
       d="m 44,132 h -8 v 8 h 8 z" /><path
       id="path48"
       style="fill:#404040;fill-opacity:1;fill-rule:nonzero;stroke:none"
       d="m 44,120 h -8 v 8 h 8 z" /><path
       id="path50"
       style="fill:#404040;fill-opacity:1;fill-rule:nonzero;stroke:none"
       d="m 52,108.075 h -8 v 8 h 8 z" /><path
       id="path52"
       style="fill:#404040;fill-opacity:1;fill-rule:nonzero;stroke:none"
       d="m 64,108.075 h -8 v 8 h 8 z" /><path
       id="path54"
       style="fill:#404040;fill-opacity:1;fill-rule:nonzero;stroke:none"
       d="m 76,108.075 h -8 v 8 h 8 z" /><path
       id="path56"
       style="fill:#404040;fill-opacity:1;fill-rule:nonzero;stroke:none"
       d="m 88,108.075 h -8 v 8 h 8 z" /><path
       id="path58"
       style="fill:#404040;fill-opacity:1;fill-rule:nonzero;stroke:none"
       d="m 100,108.075 h -8 v 8 h 8 z" /><path
       id="path60"
       style="fill:#404040;fill-opacity:1;fill-rule:nonzero;stroke:none"
       d="m 112,108.075 h -8 v 8 h 8 z" /><path
       id="path62"
       style="fill:#404040;fill-opacity:1;fill-rule:nonzero;stroke:none"
       d="m 124,108.075 h -8 v 8 h 8 z" /><path
       id="path64"
       style="fill:#4eb96f;fill-opacity:1;fill-rule:nonzero;stroke:none"
       d="m 136,108 h -8 v 8 h 8 z" /><path
       id="path66"
       style="fill:#4eb96f;fill-opacity:1;fill-rule:nonzero;stroke:none"
       d="m 128,96 h -8 v 8 h 8 z" /><path
       id="path68"
       style="fill:#404040;fill-opacity:1;fill-rule:nonzero;stroke:none"
       d="m 56,120 h -8 v 8 h 8 z" /><path
       id="path70"
       style="fill:#404040;fill-opacity:1;fill-rule:nonzero;stroke:none"
       d="m 68,120 h -8 v 8 h 8 z" /><path
       id="path72"
       style="fill:#404040;fill-opacity:1;fill-rule:nonzero;stroke:none"
       d="m 80,120 h -8 v 8 h 8 z" /><path
       id="path74"
       style="fill:#404040;fill-opacity:1;fill-rule:nonzero;stroke:none"
       d="m 92,120 h -8 v 8 h 8 z" /><path
       id="path76"
       style="fill:#404040;fill-opacity:1;fill-rule:nonzero;stroke:none"
       d="m 104,120 h -8 v 8 h 8 z" /><path
       id="path78"
       style="fill:#404040;fill-opacity:1;fill-rule:nonzero;stroke:none"
       d="m 116,120 h -8 v 8 h 8 z" /><path
       id="path80"
       style="fill:#404040;fill-opacity:1;fill-rule:nonzero;stroke:none"
       d="m 128,120 h -8 v 8 h 8 z" /><g
       transform="translate(140,128.0747)"
       id="g82"><path
         id="path84"
         style="fill:#3096cf;fill-opacity:1;fill-rule:nonzero;stroke:none"
         d="m 0,0 v -0.075 h -8 v -8 H 0 V -20 H 8 V 0 Z" /></g><path
       id="path86"
       style="fill:#404040;fill-opacity:1;fill-rule:nonzero;stroke:none"
       d="m 56,132 h -8 v 8 h 8 z" /><path
       id="path88"
       style="fill:#404040;fill-opacity:1;fill-rule:nonzero;stroke:none"
       d="m 68,132 h -8 v 8 h 8 z" /><path
       id="path90"
       style="fill:#404040;fill-opacity:1;fill-rule:nonzero;stroke:none"
       d="m 80,132 h -8 v 8 h 8 z" /><path
       id="path92"
       style="fill:#404040;fill-opacity:1;fill-rule:nonzero;stroke:none"
       d="m 92,132 h -8 v 8 h 8 z" /><path
       id="path94"
       style="fill:#404040;fill-opacity:1;fill-rule:nonzero;stroke:none"
       d="m 104,132 h -8 v 8 h 8 z" /><path
       id="path96"
       style="fill:#404040;fill-opacity:1;fill-rule:nonzero;stroke:none"
       d="m 116,132 h -8 v 8 h 8 z" /><path
       id="path98"
       style="fill:#404040;fill-opacity:1;fill-rule:nonzero;stroke:none"
       d="m 128,132 h -8 v 8 h 8 z" /><path
       id="path100"
       style="fill:#4eb96f;fill-opacity:1;fill-rule:nonzero;stroke:none"
       d="m 172,140 h -8 v 8 h 8 z" /><path
       id="path102"
       style="fill:#404040;fill-opacity:1;fill-rule:nonzero;stroke:none"
       d="m 164,140 h -8 v 8 h 8 z" /><path
       id="path104"
       style="fill:#404040;fill-opacity:1;fill-rule:nonzero;stroke:none"
       d="m 180,140 h -8 v 8 h 8 z" /><path
       id="path106"
       style="fill:#404040;fill-opacity:1;fill-rule:nonzero;stroke:none"
       d="m 172,148 h -8 v 8 h 8 z" /><path
       id="path108"
       style="fill:#404040;fill-opacity:1;fill-rule:nonzero;stroke:none"
       d="m 172,132 h -8 v 8 h 8 z" /><path
       id="path110"
       style="fill:#4eb96f;fill-opacity:1;fill-rule:nonzero;stroke:none"
       d="m 148,132 h -12 v 8 h 12 z" /><path
       id="path112"
       style="fill:#4eb96f;fill-opacity:1;fill-rule:nonzero;stroke:none"
       d="M 40,108.075 H 24 v 8.074 h 16 z" /><path
       id="path114"
       style="fill:#404040;fill-opacity:1;fill-rule:nonzero;stroke:none"
       d="M 116,96 H 48 v 8.075 h 68 z" /><path
       id="path116"
       style="fill:#404040;fill-opacity:1;fill-rule:nonzero;stroke:none"
       d="m 160,120 h -8 v 8 h 8 z" /><path
       id="path118"
       style="fill:#404040;fill-opacity:1;fill-rule:nonzero;stroke:none"
       d="m 172,120 h -8 v 8 h 8 z" /><path
       id="path120"
       style="fill:#404040;fill-opacity:1;fill-rule:nonzero;stroke:none"
       d="m 184,120 h -8 v 8 h 8 z" /><path
       id="path122"
       style="fill:#404040;fill-opacity:1;fill-rule:nonzero;stroke:none"
       d="m 160,108 h -8 v 8 h 8 z" /><path
       id="path124"
       style="fill:#404040;fill-opacity:1;fill-rule:nonzero;stroke:none"
       d="m 172,108 h -8 v 8 h 8 z" /><path
       id="path126"
       style="fill:#404040;fill-opacity:1;fill-rule:nonzero;stroke:none"
       d="m 184,108 h -8 v 8 h 8 z" /><path
       id="path128"
       style="fill:#404040;fill-opacity:1;fill-rule:nonzero;stroke:none"
       d="m 160,96 h -8 v 8 h 8 z" /><path
       id="path130"
       style="fill:#404040;fill-opacity:1;fill-rule:nonzero;stroke:none"
       d="m 172,96 h -8 v 8 h 8 z" /><path
       id="path132"
       style="fill:#3096cf;fill-opacity:1;fill-rule:nonzero;stroke:none"
       d="m 184,96 h -8 v 8 h 8 z" /><path
       id="path134"
       style="fill:#3096cf;fill-opacity:1;fill-rule:nonzero;stroke:none"
       d="m 200,96 h -8 v 8 h 8 z" /><path
       id="path136"
       style="fill:#404040;fill-opacity:1;fill-rule:nonzero;stroke:none"
       d="m 212,96 h -8 v 8 h 8 z" /><path
       id="path138"
       style="fill:#404040;fill-opacity:1;fill-rule:nonzero;stroke:none"
       d="m 224,96 h -8 v 8 h 8 z" /><path
       id="path140"
       style="fill:#404040;fill-opacity:1;fill-rule:nonzero;stroke:none"
       d="m 236,96 h -8 v 8 h 8 z" /><path
       id="path142"
       style="fill:#404040;fill-opacity:1;fill-rule:nonzero;stroke:none"
       d="m 236,108 h -48 v 20 h 48 z" /><path
       id="path144"
       style="fill:#4c4c4c;fill-opacity:1;fill-rule:nonzero;stroke:none"
       d="m 236,124 h -48 v 20 h 48 z" /><path
       id="path146"
       style="fill:#666666;fill-opacity:1;fill-rule:nonzero;stroke:none"
       d="m 232,128 h -40 v 12 h 40 z" /><g
       id="g148"><g
         clip-path="url(#clipPath154)"
         id="g150"><g
           transform="translate(204,130)"
           id="g156"><path
             id="path158"
             style="fill:#404040;fill-opacity:1;fill-rule:nonzero;stroke:none"
             d="m 0,0 c 0,-1.104 -0.896,-2 -2,-2 -1.104,0 -2,0.896 -2,2 0,1.104 0.896,2 2,2 1.104,0 2,-0.896 2,-2" /></g><g
           transform="translate(224,130)"
           id="g160"><path
             id="path162"
             style="fill:#404040;fill-opacity:1;fill-rule:nonzero;stroke:none"
             d="m 0,0 c 0,-1.104 -0.896,-2 -2,-2 -1.104,0 -2,0.896 -2,2 0,1.104 0.896,2 2,2 1.104,0 2,-0.896 2,-2" /></g><path
           id="path164"
           style="fill:#808080;fill-opacity:1;fill-rule:nonzero;stroke:none"
           d="m 216,128 h -8 v 4 h 8 z" /><path
           id="path166"
           style="fill:#ff0000;fill-opacity:1;fill-rule:nonzero;stroke:none"
           d="m 232,116 h -40 v -4 h 40 z" /><g
           transform="translate(143,150)"
           id="g168"><path
             id="path170"
             style="fill:#ff0000;fill-opacity:1;fill-rule:nonzero;stroke:none"
             d="m 0,0 c 0,-0.552 -0.447,-1 -1,-1 -0.553,0 -1,0.448 -1,1 0,0.552 0.447,1 1,1 0.553,0 1,-0.448 1,-1" /></g></g></g></g></svg>