<svg xmlns="http://www.w3.org/2000/svg" xml:space="preserve" width="319.891" height="330.666" viewBox="0 0 319.891 330.666"><defs><clipPath id="a" clipPathUnits="userSpaceOnUse"><path d="M0 256h256V0H0Z"/></clipPath><clipPath id="b" clipPathUnits="userSpaceOnUse"><path d="M8.04 252h239.92V4H8.041Z"/></clipPath><clipPath id="c" clipPathUnits="userSpaceOnUse"><path d="M0 256h256V0H0Z"/></clipPath></defs><g clip-path="url(#a)" transform="matrix(1.33333 0 0 -1.33333 -10.72 336)"><g clip-path="url(#b)" style="opacity:.5"><path d="m0 0-34.013 52.908 3.854 111.759 2.798 5.596a12.06 12.06 0 0 1 1.266 5.367v19.056c0 6.261-4.925 11.496-11.107 11.959a8 8 0 0 1-.811.041h-160c-6.617 0-12-5.384-12-12V175.63c0-1.853.438-3.709 1.267-5.366l2.798-5.597 3.854-111.759L-236.107 0a12 12 0 0 1-1.906-6.489v-22.825c0-6.618 5.383-12 12-12h216q.4 0 .791.039c6.192.453 11.127 5.691 11.127 11.961v22.825C1.905-4.184 1.247-1.939 0 0" style="fill:#fff;fill-opacity:1;fill-rule:nonzero;stroke:none" transform="translate(246.054 45.315)"/></g></g><path d="m0 0-20-32h184L144 0 72 8Z" style="fill:#262626;fill-opacity:1;fill-rule:nonzero;stroke:none" transform="matrix(1.33333 0 0 -1.33333 63.946 208)"/><path d="M0 0h-144l-4 120H4Z" style="fill:#191919;fill-opacity:1;fill-rule:nonzero;stroke:none" transform="matrix(1.33333 0 0 -1.33333 255.946 208)"/><path d="M204 212H52v12h152z" style="fill:#262626;fill-opacity:1;fill-rule:nonzero;stroke:none" transform="matrix(1.33333 0 0 -1.33333 -10.72 336)"/><path d="M208 220H48v24h160z" style="fill:#191919;fill-opacity:1;fill-rule:nonzero;stroke:none" transform="matrix(1.33333 0 0 -1.33333 -10.72 336)"/><path d="M0 0h-216l4 36H-4Z" style="fill:#100d14;fill-opacity:1;fill-rule:nonzero;stroke:none" transform="matrix(1.33333 0 0 -1.33333 303.946 320)"/><path d="M216 68H40v4h176z" style="fill:#262626;fill-opacity:1;fill-rule:nonzero;stroke:none" transform="matrix(1.33333 0 0 -1.33333 -10.72 336)"/><path d="M216 72H40v4h176z" style="fill:#e77f22;fill-opacity:1;fill-rule:nonzero;stroke:none" transform="matrix(1.33333 0 0 -1.33333 -10.72 336)"/><path d="M0 0h-184l4 4H-4Z" style="fill:#b80000;fill-opacity:1;fill-rule:nonzero;stroke:none" transform="matrix(1.33333 0 0 -1.33333 282.612 250.667)"/><path d="M0 0h-208l12 20h184z" style="fill:#4c4c4c;fill-opacity:1;fill-rule:nonzero;stroke:none" transform="matrix(1.33333 0 0 -1.33333 298.612 277.333)"/><g clip-path="url(#c)" transform="matrix(1.33333 0 0 -1.33333 -10.72 336)"><path d="m0 0 2.798-5.596c.514-1.028.8-2.154.84-3.302l3.854-111.758a8 8 0 0 0-1.266-4.603l-34.648-53.896v-28h-4a4 4 0 0 0-4 4v22.825c0 .767.22 1.518.635 2.163l34.013 52.908a8 8 0 0 1 1.266 4.603L-4.362-8.898a8 8 0 0 1-.84 3.302L-8 0a4 4 0 0 0-.422 1.789v19.056a4 4 0 0 0 4 4h4V1.789C-.422 1.168-.278.556 0 0" style="fill:#ccc;fill-opacity:1;fill-rule:nonzero;stroke:none" transform="translate(52.422 219.155)"/><path d="m0 0-2.798-5.596a8 8 0 0 1-.84-3.302l-3.853-111.758a8 8 0 0 1 1.265-4.603l34.649-53.896v-28h4a4 4 0 0 1 4 4v22.825c0 .767-.221 1.518-.636 2.163L1.774-125.259a8 8 0 0 0-1.265 4.603L4.362-8.898a8 8 0 0 0 .84 3.302L8 0a4 4 0 0 1 .423 1.789v19.056a4 4 0 0 1-4 4h-4V1.789A4 4 0 0 0 0 0" style="fill:#ccc;fill-opacity:1;fill-rule:nonzero;stroke:none" transform="translate(203.496 219.155)"/><path d="M0 0h-105.102a8 8 0 0 0-7.98 7.43L-118.551 84a8 8 0 0 0 8 8h116a8 8 0 0 0 8-8L7.979 7.43A8 8 0 0 0 0 0" style="fill:#262626;fill-opacity:1;fill-rule:nonzero;stroke:none" transform="translate(180.55 108)"/><path d="M0 0h-96c-4.4 0-8 3.6-8 8v60c0 4.4 3.6 8 8 8H0c4.4 0 8-3.6 8-8V8c0-4.4-3.6-8-8-8" style="fill:#191919;fill-opacity:1;fill-rule:nonzero;stroke:none" transform="translate(176 112)"/><path d="M0 0h-48l3.088 9.265A4 4 0 0 0-41.117 12h34.234a4 4 0 0 0 3.795-2.735z" style="fill:#191919;fill-opacity:1;fill-rule:nonzero;stroke:none" transform="translate(152 76)"/><path d="M118 76h2v4h-2zm4 0h2v4h-2zm4 0h2v4h-2zm4 0h2v4h-2zm4 0h2v4h-2z" style="fill:#a3834a;fill-opacity:1;fill-rule:nonzero;stroke:none"/><path d="m0 0 8-4 8 4-8 4Z" style="fill:#ccc;fill-opacity:1;fill-rule:nonzero;stroke:none" transform="translate(56 60)"/><path d="m0 0 8-4 8 4-8 4Z" style="fill:#ccc;fill-opacity:1;fill-rule:nonzero;stroke:none" transform="translate(56 48)"/><path d="m0 0 8-4 8 4-8 4Z" style="fill:#ccc;fill-opacity:1;fill-rule:nonzero;stroke:none" transform="translate(46 54)"/><path d="m0 0 8-4 8 4-8 4Z" style="fill:#ccc;fill-opacity:1;fill-rule:nonzero;stroke:none" transform="translate(66 54)"/><path d="m0 0 8-4 8 4-8 4Z" style="fill:#ccc;fill-opacity:1;fill-rule:nonzero;stroke:none" transform="translate(186 60)"/><path d="m0 0 8-4 8 4-8 4Z" style="fill:#ccc;fill-opacity:1;fill-rule:nonzero;stroke:none" transform="translate(186 48)"/><path d="m0 0 8-4 8 4-8 4Z" style="fill:#ccc;fill-opacity:1;fill-rule:nonzero;stroke:none" transform="translate(176 54)"/><path d="m0 0 8-4 8 4-8 4Z" style="fill:#ccc;fill-opacity:1;fill-rule:nonzero;stroke:none" transform="translate(196 54)"/><path d="m0 0-8-20h64L48 0Z" style="fill:#262626;fill-opacity:1;fill-rule:nonzero;stroke:none" transform="translate(104 64)"/><path d="M0 0c-10.665 0-22-3.505-22-10s11.335-10 22-10 22 3.505 22 10S10.665 0 0 0m0-2c11.046 0 20-3.582 20-8s-8.954-8-20-8-20 3.582-20 8 8.954 8 20 8" style="fill:#191919;fill-opacity:1;fill-rule:nonzero;stroke:none" transform="translate(128 64)"/><path d="M0 0c0-3.313-7.163-6-16-6s-16 2.687-16 6 7.164 6 16 6S0 3.313 0 0" style="fill:#191919;fill-opacity:1;fill-rule:nonzero;stroke:none" transform="translate(144 54)"/><path d="m0 0 3.468-20.811a2 2 0 0 1 1.973-1.67h.612a2 2 0 0 1 1.973 1.67L11.538.263a2 2 0 0 1-1.055 2.109c-1.591.816-4.685 1.673-9.281-.193A2 2 0 0 1 0 0" style="fill:gray;fill-opacity:1;fill-rule:nonzero;stroke:none" transform="translate(122.231 74.481)"/><path d="M0 0c-.692 0-1.36.053-2 .143v-21.831c0-1.199.896-2.169 2-2.169s2 .97 2 2.169V.143A14 14 0 0 0 0 0" style="fill:#999;fill-opacity:1;fill-rule:nonzero;stroke:none" transform="translate(128 75.857)"/><path d="M204 224H52v16h152z" style="fill:#e77f22;fill-opacity:1;fill-rule:nonzero;stroke:none"/><path d="M204 229H52v6h152z" style="fill:#b80000;fill-opacity:1;fill-rule:nonzero;stroke:none"/></g></svg>