<?xml version="1.0" encoding="UTF-8" standalone="no"?>
<svg
   xmlns:dc="http://purl.org/dc/elements/1.1/"
   xmlns:cc="http://creativecommons.org/ns#"
   xmlns:rdf="http://www.w3.org/1999/02/22-rdf-syntax-ns#"
   xmlns:svg="http://www.w3.org/2000/svg"
   xmlns="http://www.w3.org/2000/svg"
   viewBox="0 0 319.89065 330.66598"
   height="330.66599"
   width="319.89066"
   xml:space="preserve"
   id="svg2"
   version="1.1"><metadata
     id="metadata8"><rdf:RDF><cc:Work
         rdf:about=""><dc:format>image/svg+xml</dc:format><dc:type
           rdf:resource="http://purl.org/dc/dcmitype/StillImage" /></cc:Work></rdf:RDF></metadata><defs
     id="defs6"><clipPath
       id="clipPath18"
       clipPathUnits="userSpaceOnUse"><path
         id="path16"
         d="M 0,256 H 256 V 0 H 0 Z" /></clipPath><clipPath
       id="clipPath26"
       clipPathUnits="userSpaceOnUse"><path
         id="path24"
         d="M 8.04071,252 H 247.959 V 4 H 8.04071 Z" /></clipPath><clipPath
       id="clipPath70"
       clipPathUnits="userSpaceOnUse"><path
         id="path68"
         d="M 0,256 H 256 V 0 H 0 Z" /></clipPath></defs><g
     transform="matrix(1.3333333,0,0,-1.3333333,-10.720946,335.99999)"
     id="g10"><g
       id="g12"><g
         clip-path="url(#clipPath18)"
         id="g14"><g
           id="g20"><g
             id="g22" /><g
             id="g34"><g
               style="opacity:0.5"
               id="g32"
               clip-path="url(#clipPath26)"><g
                 id="g30"
                 transform="translate(246.0537,45.3145)"><path
                   id="path28"
                   style="fill:#ffffff;fill-opacity:1;fill-rule:nonzero;stroke:none"
                   d="m 0,0 -34.013,52.908 3.854,111.759 2.798,5.596 c 0.829,1.658 1.266,3.514 1.266,5.367 v 19.056 c 0,6.261 -4.925,11.496 -11.107,11.959 -0.267,0.027 -0.537,0.041 -0.811,0.041 h -0.082 -4 -151.918 -4 c -6.617,0 -12,-5.384 -12,-12 V 175.63 c 0,-1.853 0.438,-3.709 1.267,-5.366 l 2.798,-5.597 3.854,-111.759 L -236.107,0 c -1.247,-1.939 -1.906,-4.184 -1.906,-6.489 v -22.825 c 0,-6.618 5.383,-12 12,-12 h 4 207.918 4 0.082 c 0.266,0 0.53,0.013 0.791,0.039 6.192,0.453 11.127,5.691 11.127,11.961 V -6.489 C 1.905,-4.184 1.247,-1.939 0,0" /></g></g></g></g></g></g><g
       transform="translate(56,96)"
       id="g36"><path
         id="path38"
         style="fill:#262626;fill-opacity:1;fill-rule:nonzero;stroke:none"
         d="M 0,0 -20,-32 H 164 L 144,0 72,8 Z" /></g><g
       transform="translate(200,96)"
       id="g40"><path
         id="path42"
         style="fill:#191919;fill-opacity:1;fill-rule:nonzero;stroke:none"
         d="m 0,0 h -144 l -4,120 H 4 Z" /></g><path
       id="path44"
       style="fill:#262626;fill-opacity:1;fill-rule:nonzero;stroke:none"
       d="M 204,212 H 52 v 12 h 152 z" /><path
       id="path46"
       style="fill:#191919;fill-opacity:1;fill-rule:nonzero;stroke:none"
       d="M 208,220 H 48 v 24 h 160 z" /><g
       transform="translate(236,12)"
       id="g48"><path
         id="path50"
         style="fill:#100d14;fill-opacity:1;fill-rule:nonzero;stroke:none"
         d="m 0,0 h -216 l 4,36 H -4 Z" /></g><path
       id="path52"
       style="fill:#262626;fill-opacity:1;fill-rule:nonzero;stroke:none"
       d="M 216,68 H 40 v 4 h 176 z" /><path
       id="path54"
       style="fill:#e77f22;fill-opacity:1;fill-rule:nonzero;stroke:none"
       d="M 216,72 H 40 v 4 h 176 z" /><g
       transform="translate(220,64)"
       id="g56"><path
         id="path58"
         style="fill:#b80000;fill-opacity:1;fill-rule:nonzero;stroke:none"
         d="m 0,0 h -184 l 4,4 H -4 Z" /></g><g
       transform="translate(232,44)"
       id="g60"><path
         id="path62"
         style="fill:#4c4c4c;fill-opacity:1;fill-rule:nonzero;stroke:none"
         d="m 0,0 h -208 l 12,20 h 184 z" /></g><g
       id="g64"><g
         clip-path="url(#clipPath70)"
         id="g66"><g
           transform="translate(52.4224,219.1553)"
           id="g72"><path
             id="path74"
             style="fill:#cccccc;fill-opacity:1;fill-rule:nonzero;stroke:none"
             d="m 0,0 2.798,-5.596 c 0.514,-1.028 0.8,-2.154 0.84,-3.302 l 3.854,-111.758 c 0.055,-1.627 -0.386,-3.233 -1.266,-4.603 l -34.648,-53.896 v -28 h -4 c -2.209,0 -4,1.791 -4,4 v 22.825 c 0,0.767 0.22,1.518 0.635,2.163 l 34.013,52.908 c 0.88,1.37 1.321,2.976 1.266,4.603 L -4.362,-8.898 c -0.04,1.148 -0.326,2.274 -0.84,3.302 L -8,0 c -0.278,0.556 -0.422,1.168 -0.422,1.789 v 19.056 c 0,2.209 1.791,4 4,4 h 4 V 1.789 C -0.422,1.168 -0.278,0.556 0,0" /></g><g
           transform="translate(203.4961,219.1553)"
           id="g76"><path
             id="path78"
             style="fill:#cccccc;fill-opacity:1;fill-rule:nonzero;stroke:none"
             d="m 0,0 -2.798,-5.596 c -0.514,-1.028 -0.8,-2.154 -0.84,-3.302 l -3.853,-111.758 c -0.057,-1.627 0.386,-3.233 1.265,-4.603 l 34.649,-53.896 v -28 h 4 c 2.209,0 4,1.791 4,4 v 22.825 c 0,0.767 -0.221,1.518 -0.636,2.163 l -34.013,52.908 c -0.879,1.37 -1.322,2.976 -1.265,4.603 L 4.362,-8.898 c 0.04,1.148 0.326,2.274 0.84,3.302 L 8,0 c 0.278,0.556 0.423,1.168 0.423,1.789 v 19.056 c 0,2.209 -1.791,4 -4,4 h -4 V 1.789 C 0.423,1.168 0.278,0.556 0,0" /></g><g
           transform="translate(180.5508,108)"
           id="g80"><path
             id="path82"
             style="fill:#262626;fill-opacity:1;fill-rule:nonzero;stroke:none"
             d="m 0,0 h -105.102 c -4.197,0 -7.68,3.243 -7.98,7.43 L -118.551,84 c 0,4.418 3.582,8 8,8 h 116 c 4.418,0 8,-3.582 8,-8 L 7.979,7.43 C 7.681,3.243 4.197,0 0,0" /></g><g
           transform="translate(176,112)"
           id="g84"><path
             id="path86"
             style="fill:#191919;fill-opacity:1;fill-rule:nonzero;stroke:none"
             d="m 0,0 h -96 c -4.4,0 -8,3.6 -8,8 v 60 c 0,4.4 3.6,8 8,8 H 0 c 4.4,0 8,-3.6 8,-8 V 8 C 8,3.6 4.4,0 0,0" /></g><g
           transform="translate(152,76)"
           id="g88"><path
             id="path90"
             style="fill:#191919;fill-opacity:1;fill-rule:nonzero;stroke:none"
             d="m 0,0 h -48 l 3.088,9.265 c 0.545,1.633 2.073,2.735 3.795,2.735 h 34.234 c 1.722,0 3.25,-1.102 3.795,-2.735 z" /></g><path
           id="path92"
           style="fill:#a3834a;fill-opacity:1;fill-rule:nonzero;stroke:none"
           d="m 118,76 h 2 v 4 h -2 z" /><path
           id="path94"
           style="fill:#a3834a;fill-opacity:1;fill-rule:nonzero;stroke:none"
           d="m 122,76 h 2 v 4 h -2 z" /><path
           id="path96"
           style="fill:#a3834a;fill-opacity:1;fill-rule:nonzero;stroke:none"
           d="m 126,76 h 2 v 4 h -2 z" /><path
           id="path98"
           style="fill:#a3834a;fill-opacity:1;fill-rule:nonzero;stroke:none"
           d="m 130,76 h 2 v 4 h -2 z" /><path
           id="path100"
           style="fill:#a3834a;fill-opacity:1;fill-rule:nonzero;stroke:none"
           d="m 134,76 h 2 v 4 h -2 z" /><g
           transform="translate(56,60)"
           id="g102"><path
             id="path104"
             style="fill:#cccccc;fill-opacity:1;fill-rule:nonzero;stroke:none"
             d="M 0,0 8,-4 16,0 8,4 Z" /></g><g
           transform="translate(56,48)"
           id="g106"><path
             id="path108"
             style="fill:#cccccc;fill-opacity:1;fill-rule:nonzero;stroke:none"
             d="M 0,0 8,-4 16,0 8,4 Z" /></g><g
           transform="translate(46,54)"
           id="g110"><path
             id="path112"
             style="fill:#cccccc;fill-opacity:1;fill-rule:nonzero;stroke:none"
             d="M 0,0 8,-4 16,0 8,4 Z" /></g><g
           transform="translate(66,54)"
           id="g114"><path
             id="path116"
             style="fill:#cccccc;fill-opacity:1;fill-rule:nonzero;stroke:none"
             d="M 0,0 8,-4 16,0 8,4 Z" /></g><g
           transform="translate(186,60)"
           id="g118"><path
             id="path120"
             style="fill:#cccccc;fill-opacity:1;fill-rule:nonzero;stroke:none"
             d="M 0,0 8,-4 16,0 8,4 Z" /></g><g
           transform="translate(186,48)"
           id="g122"><path
             id="path124"
             style="fill:#cccccc;fill-opacity:1;fill-rule:nonzero;stroke:none"
             d="M 0,0 8,-4 16,0 8,4 Z" /></g><g
           transform="translate(176,54)"
           id="g126"><path
             id="path128"
             style="fill:#cccccc;fill-opacity:1;fill-rule:nonzero;stroke:none"
             d="M 0,0 8,-4 16,0 8,4 Z" /></g><g
           transform="translate(196,54)"
           id="g130"><path
             id="path132"
             style="fill:#cccccc;fill-opacity:1;fill-rule:nonzero;stroke:none"
             d="M 0,0 8,-4 16,0 8,4 Z" /></g><g
           transform="translate(104,64)"
           id="g134"><path
             id="path136"
             style="fill:#262626;fill-opacity:1;fill-rule:nonzero;stroke:none"
             d="M 0,0 -8,-20 H 56 L 48,0 Z" /></g><g
           transform="translate(128,64)"
           id="g138"><path
             id="path140"
             style="fill:#191919;fill-opacity:1;fill-rule:nonzero;stroke:none"
             d="m 0,0 c -10.665,0 -22,-3.505 -22,-10 0,-6.495 11.335,-10 22,-10 10.665,0 22,3.505 22,10 C 22,-3.505 10.665,0 0,0 m 0,-2 c 11.046,0 20,-3.582 20,-8 0,-4.418 -8.954,-8 -20,-8 -11.046,0 -20,3.582 -20,8 0,4.418 8.954,8 20,8" /></g><g
           transform="translate(144,54)"
           id="g142"><path
             id="path144"
             style="fill:#191919;fill-opacity:1;fill-rule:nonzero;stroke:none"
             d="m 0,0 c 0,-3.313 -7.163,-6 -16,-6 -8.836,0 -16,2.687 -16,6 0,3.313 7.164,6 16,6 C -7.163,6 0,3.313 0,0" /></g><g
           transform="translate(122.231,74.4814)"
           id="g146"><path
             id="path148"
             style="fill:#808080;fill-opacity:1;fill-rule:nonzero;stroke:none"
             d="m 0,0 3.468,-20.811 c 0.161,-0.963 0.995,-1.67 1.973,-1.67 h 0.612 c 0.978,0 1.812,0.707 1.973,1.67 L 11.538,0.263 C 11.681,1.122 11.258,1.975 10.483,2.372 8.892,3.188 5.798,4.045 1.202,2.179 0.343,1.829 -0.152,0.915 0,0" /></g><g
           transform="translate(128,75.8574)"
           id="g150"><path
             id="path152"
             style="fill:#999999;fill-opacity:1;fill-rule:nonzero;stroke:none"
             d="m 0,0 c -0.692,0 -1.36,0.053 -2,0.143 v -21.831 c 0,-1.199 0.896,-2.169 2,-2.169 1.104,0 2,0.97 2,2.169 V 0.143 C 1.359,0.053 0.692,0 0,0" /></g><path
           id="path154"
           style="fill:#e77f22;fill-opacity:1;fill-rule:nonzero;stroke:none"
           d="M 204,224 H 52 v 16 h 152 z" /><path
           id="path156"
           style="fill:#b80000;fill-opacity:1;fill-rule:nonzero;stroke:none"
           d="M 204,229 H 52 v 6 h 152 z" /></g></g></g></svg>