<svg xmlns="http://www.w3.org/2000/svg" xml:space="preserve" width="253.318" height="330.666" viewBox="0 0 253.318 330.666"><defs><clipPath id="a" clipPathUnits="userSpaceOnUse"><path d="M0 256h256V0H0Z"/></clipPath><clipPath id="b" clipPathUnits="userSpaceOnUse"><path d="M33.006 252h189.988V4H33.006Z"/></clipPath><clipPath id="c" clipPathUnits="userSpaceOnUse"><path d="M0 256h256V0H0Z"/></clipPath></defs><g clip-path="url(#a)" transform="matrix(1.33333 0 0 -1.33333 -44.007 336)"><g clip-path="url(#b)" style="opacity:.5"><path d="m0 0-71.474 71.474v9.013h4v52h-4v12h-40v-12h-4v-52h4v-9.013L-182.948 0c-4.694-4.694-4.694-12.331 0-17.025l82.962-82.961a11.96 11.96 0 0 1 8.512-3.527c3.216 0 6.24 1.252 8.513 3.527L0-17.025C4.694-12.331 4.694-4.694 0 0" style="fill:#fff;fill-opacity:1;fill-rule:nonzero;stroke:none" transform="translate(219.474 107.513)"/></g></g><path d="M140 172h-24v32h24z" style="fill:#191919;fill-opacity:1;fill-rule:nonzero;stroke:none" transform="matrix(1.33333 0 0 -1.33333 -44.007 336)"/><g clip-path="url(#c)" transform="matrix(1.33333 0 0 -1.33333 -44.007 336)"><path d="m0 0-82.962 82.962a4.04 4.04 0 0 0 0 5.711L0 171.635a4.04 4.04 0 0 0 5.711 0l82.962-82.962a4.04 4.04 0 0 0 0-5.711L5.711 0A4.04 4.04 0 0 0 0 0" style="fill:#262626;fill-opacity:1;fill-rule:nonzero;stroke:none" transform="translate(125.144 13.183)"/><path d="M140 228h-24v16h24z" style="fill:#b3b3b3;fill-opacity:1;fill-rule:nonzero;stroke:none"/><path d="M140 228h-4v16h4z" style="fill:#a6a6a6;fill-opacity:1;fill-rule:nonzero;stroke:none"/><path d="M120 228h-4v16h4z" style="fill:#bfbfbf;fill-opacity:1;fill-rule:nonzero;stroke:none"/><path d="M144 196h-32v36h32z" style="fill:#404040;fill-opacity:1;fill-rule:nonzero;stroke:none"/></g></svg>