<?xml version="1.0" encoding="UTF-8" standalone="no"?>
<svg
   xmlns:dc="http://purl.org/dc/elements/1.1/"
   xmlns:cc="http://creativecommons.org/ns#"
   xmlns:rdf="http://www.w3.org/1999/02/22-rdf-syntax-ns#"
   xmlns:svg="http://www.w3.org/2000/svg"
   xmlns="http://www.w3.org/2000/svg"
   viewBox="0 0 253.31785 330.66626"
   height="330.66626"
   width="253.31786"
   xml:space="preserve"
   id="svg2"
   version="1.1"><metadata
     id="metadata8"><rdf:RDF><cc:Work
         rdf:about=""><dc:format>image/svg+xml</dc:format><dc:type
           rdf:resource="http://purl.org/dc/dcmitype/StillImage" /></cc:Work></rdf:RDF></metadata><defs
     id="defs6"><clipPath
       id="clipPath18"
       clipPathUnits="userSpaceOnUse"><path
         id="path16"
         d="M 0,256 H 256 V 0 H 0 Z" /></clipPath><clipPath
       id="clipPath26"
       clipPathUnits="userSpaceOnUse"><path
         id="path24"
         d="M 33.0056,252 H 222.994 V 4 H 33.0056 Z" /></clipPath><clipPath
       id="clipPath44"
       clipPathUnits="userSpaceOnUse"><path
         id="path42"
         d="M 0,256 H 256 V 0 H 0 Z" /></clipPath></defs><g
     transform="matrix(1.3333333,0,0,-1.3333333,-44.007466,335.99959)"
     id="g10"><g
       id="g12"><g
         clip-path="url(#clipPath18)"
         id="g14"><g
           id="g20"><g
             id="g22" /><g
             id="g34"><g
               style="opacity:0.5"
               id="g32"
               clip-path="url(#clipPath26)"><g
                 id="g30"
                 transform="translate(219.4736,107.5127)"><path
                   id="path28"
                   style="fill:#ffffff;fill-opacity:1;fill-rule:nonzero;stroke:none"
                   d="m 0,0 -71.474,71.474 v 9.013 h 4 v 8 36 8 h -4 v 4 8 h -8 -4 -16 -4 -8 v -8 -4 h -4 v -8 -36 -8 h 4 V 71.474 L -182.948,0 c -4.694,-4.694 -4.694,-12.331 0,-17.025 l 82.962,-82.961 c 2.274,-2.275 5.297,-3.527 8.512,-3.527 3.216,0 6.24,1.252 8.513,3.527 L 0,-17.025 C 4.694,-12.331 4.694,-4.694 0,0" /></g></g></g></g></g></g><path
       id="path36"
       style="fill:#191919;fill-opacity:1;fill-rule:nonzero;stroke:none"
       d="m 140,172 h -24 v 32 h 24 z" /><g
       id="g38"><g
         clip-path="url(#clipPath44)"
         id="g40"><g
           transform="translate(125.1445,13.1826)"
           id="g46"><path
             id="path48"
             style="fill:#262626;fill-opacity:1;fill-rule:nonzero;stroke:none"
             d="m 0,0 -82.962,82.962 c -1.577,1.577 -1.577,4.134 0,5.711 L 0,171.635 c 1.577,1.576 4.134,1.576 5.711,0 L 88.673,88.673 c 1.577,-1.577 1.577,-4.134 0,-5.711 L 5.711,0 C 4.134,-1.577 1.577,-1.577 0,0" /></g><path
           id="path50"
           style="fill:#b3b3b3;fill-opacity:1;fill-rule:nonzero;stroke:none"
           d="m 140,228 h -24 v 16 h 24 z" /><path
           id="path52"
           style="fill:#a6a6a6;fill-opacity:1;fill-rule:nonzero;stroke:none"
           d="m 140,228 h -4 v 16 h 4 z" /><path
           id="path54"
           style="fill:#bfbfbf;fill-opacity:1;fill-rule:nonzero;stroke:none"
           d="m 120,228 h -4 v 16 h 4 z" /><path
           id="path56"
           style="fill:#404040;fill-opacity:1;fill-rule:nonzero;stroke:none"
           d="m 144,196 h -32 v 36 h 32 z" /></g></g></g></svg>