<?xml version="1.0" encoding="UTF-8" standalone="no"?>
<svg
   xmlns:dc="http://purl.org/dc/elements/1.1/"
   xmlns:cc="http://creativecommons.org/ns#"
   xmlns:rdf="http://www.w3.org/1999/02/22-rdf-syntax-ns#"
   xmlns:svg="http://www.w3.org/2000/svg"
   xmlns="http://www.w3.org/2000/svg"
   viewBox="0 0 330.75729 223.99959"
   height="223.99959"
   width="330.75729"
   xml:space="preserve"
   id="svg2"
   version="1.1"><metadata
     id="metadata8"><rdf:RDF><cc:Work
         rdf:about=""><dc:format>image/svg+xml</dc:format><dc:type
           rdf:resource="http://purl.org/dc/dcmitype/StillImage" /></cc:Work></rdf:RDF></metadata><defs
     id="defs6"><clipPath
       id="clipPath18"
       clipPathUnits="userSpaceOnUse"><path
         id="path16"
         d="M 0,256 H 256 V 0 H 0 Z" /></clipPath><clipPath
       id="clipPath26"
       clipPathUnits="userSpaceOnUse"><path
         id="path24"
         d="M 3.96603,212 H 252.034 V 44 H 3.96603 Z" /></clipPath></defs><g
     transform="matrix(1.3333333,0,0,-1.3333333,-5.2880399,282.66666)"
     id="g10"><g
       id="g12"><g
         clip-path="url(#clipPath18)"
         id="g14"><g
           id="g20"><g
             id="g22" /><g
             id="g34"><g
               style="opacity:0.5"
               id="g32"
               clip-path="url(#clipPath26)"><g
                 id="g30"
                 transform="translate(243.3164,74.9023)"><path
                   id="path28"
                   style="fill:#ffffff;fill-opacity:1;fill-rule:nonzero;stroke:none"
                   d="M 0,0 C 0.289,0.524 0.51,0.88 0.603,1.024 0.51,0.88 0.289,0.524 0,0 M -1.371,-2.902 C -1.41,-3 -1.448,-3.104 -1.487,-3.204 c 0.039,0.1 0.077,0.204 0.116,0.302 0.36,0.902 0.735,1.69 1.062,2.323 C -0.636,-1.212 -1.011,-2 -1.371,-2.902 m -0.762,-2.213 c -0.022,-0.076 -0.044,-0.153 -0.065,-0.229 0.021,0.076 0.043,0.153 0.065,0.229 0.09,0.308 0.183,0.611 0.281,0.904 -0.098,-0.293 -0.191,-0.596 -0.281,-0.904 m -0.763,-5.397 c 0.002,-0.079 0.002,-0.157 0.006,-0.236 -0.004,0.079 -0.004,0.157 -0.006,0.235 z m 0.366,3.801 c 0.019,0.096 0.039,0.19 0.06,0.285 0.062,0.277 0.131,0.546 0.202,0.815 -0.071,-0.269 -0.14,-0.538 -0.202,-0.815 -0.021,-0.095 -0.041,-0.189 -0.06,-0.285 m 7.642,-2.978 c 0.012,0.172 0.032,0.37 0.062,0.598 l 0.021,0.163 c 0.031,0.203 0.068,0.4 0.108,0.593 l 0.036,0.17 c 0.048,0.215 0.099,0.425 0.156,0.631 l 0.029,0.101 0.026,0.086 c 0.058,0.201 0.118,0.4 0.182,0.59 l 0.038,0.106 0.032,0.093 c 0.057,0.163 0.116,0.323 0.176,0.478 l 0.052,0.139 0.031,0.077 c 0.557,1.395 1.163,2.389 1.268,2.558 l 1.389,2.023 -0.069,2.381 v 36 2 2 2 2 2 2 2 2 2 2 2 2 2 2 2 2 2 2 2 2 2 50 8 h -8 -108 -2 -122 -8 v -8 -128 -0.662 l 0.109,-0.654 4,-24 1.115,-6.684 h 6.776 118 2 104 6.778 l 1.114,6.684 1.33,7.983 0.37,2.219 -0.792,1.964 -0.026,0.068 -0.014,0.035 -0.014,0.035 c -0.024,0.06 -0.066,0.178 -0.125,0.395 l -0.038,0.13 c -0.027,0.113 -0.049,0.237 -0.07,0.37 l -0.016,0.106 c -0.02,0.159 -0.034,0.31 -0.041,0.449 l -0.002,0.146 c -0.005,0.206 -0.004,0.385 0.002,0.533 z" /></g></g></g></g><g
           transform="translate(244,76)"
           id="g36"><path
             id="path38"
             style="fill:#666666;fill-opacity:1;fill-rule:nonzero;stroke:none"
             d="m 0,0 h -232 l 4,-24 H -4 l 1.33,7.982 C -5.695,-8.543 0,0 0,0" /></g><path
           id="path40"
           style="fill:#737373;fill-opacity:1;fill-rule:nonzero;stroke:none"
           d="M 244,76 H 12 v 128 h 232 z" /><g
           transform="translate(72,192)"
           id="g42"><path
             id="path44"
             style="fill:#666666;fill-opacity:1;fill-rule:nonzero;stroke:none"
             d="m 0,0 c -30.928,0 -56,-25.072 -56,-56 0,-30.928 25.072,-56 56,-56 30.928,0 56,25.072 56,56 C 56,-25.072 30.928,0 0,0" /></g><g
           transform="translate(72,188)"
           id="g46"><path
             id="path48"
             style="fill:#737373;fill-opacity:1;fill-rule:nonzero;stroke:none"
             d="m 0,0 c 28.673,0 52,-23.327 52,-52 0,-28.673 -23.327,-52 -52,-52 -28.673,0 -52,23.327 -52,52 0,28.673 23.327,52 52,52" /></g><g
           transform="translate(244,152)"
           id="g50"><path
             id="path52"
             style="fill:#262626;fill-opacity:1;fill-rule:nonzero;stroke:none"
             d="m 0,0 v 2 h -108 v 50 h -2 v -152 h 2 v 60 H 0 v 2 h -108 v 2 H 0 v 2 h -108 v 2 H 0 v 2 h -108 v 2 H 0 v 2 h -108 v 2 H 0 v 2 h -108 v 2 H 0 v 2 h -108 v 2 H 0 v 2 h -108 v 2 H 0 v 2 h -108 v 2 H 0 v 2 h -108 v 2 H 0 v 2 h -108 v 2 z" /></g><g
           transform="translate(56,120)"
           id="g54"><path
             id="path56"
             style="fill:#000000;fill-opacity:1;fill-rule:nonzero;stroke:none"
             d="M 0,0 8,-12 -6.924,-30.655 C -0.005,-34.071 7.774,-36 16,-36 36.932,-36 55.007,-23.564 63.244,-5.695 64.468,-3.037 62.539,0 59.612,0 Z" /></g><g
           transform="translate(121.4707,152)"
           id="g58"><path
             id="path60"
             style="fill:#808080;fill-opacity:1;fill-rule:nonzero;stroke:none"
             d="M 0,0 C -6.766,20.866 -26.379,36 -49.471,36 -72.562,36 -92.176,20.866 -98.941,0 Z" /></g><g
           transform="translate(36.3267,98.2139)"
           id="g62"><path
             id="path64"
             style="fill:#808080;fill-opacity:1;fill-rule:nonzero;stroke:none"
             d="m 0,0 3.028,-2.649 c 2.985,-2.416 6.245,-4.504 9.721,-6.22 l 14.924,18.655 -8,12 H -7.939 c -2.935,0 -4.853,-3.047 -3.624,-5.71 C -8.756,9.995 -4.81,4.546 0,0" /></g><g
           transform="translate(93.1489,112)"
           id="g66"><path
             id="path68"
             style="fill:#333333;fill-opacity:1;fill-rule:nonzero;stroke:none"
             d="M 0,0 C -4.697,-4.14 -10.616,-6.927 -17.149,-7.742 V -19.811 C -3.379,-18.569 8.554,-10.981 15.72,0 Z" /></g><g
           transform="translate(241.9795,72)"
           id="g70"><path
             id="path72"
             style="fill:#595959;fill-opacity:1;fill-rule:nonzero;stroke:none"
             d="M 0,0 H -89.979 V -12 H -0.655 C -2.365,-7.753 -1.268,-3.17 0,0" /></g><g
           transform="translate(158,60)"
           id="g74"><path
             id="path76"
             style="fill:#737373;fill-opacity:1;fill-rule:nonzero;stroke:none"
             d="m 0,0 h -12 c -3.313,0 -6,2.687 -6,6 0,3.313 2.687,6 6,6 H 0 C 3.313,12 6,9.313 6,6 6,2.687 3.313,0 0,0" /></g><path
           id="path78"
           style="fill:#737373;fill-opacity:1;fill-rule:nonzero;stroke:none"
           d="m 188,67 h -12 v 2 h 12 z" /><path
           id="path80"
           style="fill:#737373;fill-opacity:1;fill-rule:nonzero;stroke:none"
           d="m 188,63 h -12 v 2 h 12 z" /><path
           id="path82"
           style="fill:#262626;fill-opacity:1;fill-rule:nonzero;stroke:none"
           d="m 212,65 h -20 v 2 h 20 z" /><path
           id="path84"
           style="fill:#737373;fill-opacity:1;fill-rule:nonzero;stroke:none"
           d="m 204,60 h 4 v 12 h -4 z" /><g
           transform="translate(224,66)"
           id="g86"><path
             id="path88"
             style="fill:#262626;fill-opacity:1;fill-rule:nonzero;stroke:none"
             d="M 0,0 C 0,-2.209 1.791,-4 4,-4 6.209,-4 8,-2.209 8,0 8,2.209 6.209,4 4,4 1.791,4 0,2.209 0,0" /></g><g
           transform="translate(231,66)"
           id="g90"><path
             id="path92"
             style="fill:#bfbfbf;fill-opacity:1;fill-rule:nonzero;stroke:none"
             d="m 0,0 c 0,-1.657 -1.343,-3 -3,-3 -1.657,0 -3,1.343 -3,3 0,1.657 1.343,3 3,3 1.657,0 3,-1.343 3,-3" /></g><g
           transform="translate(230,66)"
           id="g94"><path
             id="path96"
             style="fill:#262626;fill-opacity:1;fill-rule:nonzero;stroke:none"
             d="m 0,0 c 0,-1.104 -0.896,-2 -2,-2 -1.104,0 -2,0.896 -2,2 0,1.104 0.896,2 2,2 1.104,0 2,-0.896 2,-2" /></g></g></g></g></svg>