<?xml version="1.0" encoding="iso-8859-1"?>
<!-- Generator: Adobe Illustrator 27.8.1, SVG Export Plug-In . SVG Version: 6.00 Build 0)  -->
<svg version="1.1" id="Layer_1" xmlns="http://www.w3.org/2000/svg" xmlns:xlink="http://www.w3.org/1999/xlink" x="0px" y="0px"
	 viewBox="0 0 256 256" style="enable-background:new 0 0 256 256;" xml:space="preserve">
<path style="opacity:0.5;fill:#FFFFFF;" d="M252,76v-8c0-4.083-3.058-7.451-7.009-7.939c-0.967-1.094-2.131-2.011-3.435-2.695
	C240.467,54.242,237.495,52,234,52h-2c-0.339,0-0.672,0.021-1,0.062c-0.328-0.041-0.661-0.062-1-0.062h-2
	c-0.339,0-0.672,0.021-1,0.062c-0.328-0.041-0.661-0.062-1-0.062h-2c-0.339,0-0.672,0.021-1,0.062c-0.328-0.041-0.661-0.062-1-0.062
	h-2c-0.339,0-0.672,0.021-1,0.062c-0.328-0.041-0.661-0.062-1-0.062h-2c-0.339,0-0.672,0.021-1,0.062
	c-0.328-0.041-0.661-0.062-1-0.062h-2c-0.339,0-0.672,0.021-1,0.062c-0.328-0.041-0.661-0.062-1-0.062h-2
	c-0.339,0-0.672,0.021-1,0.062c-0.328-0.041-0.661-0.062-1-0.062h-2c-0.339,0-0.672,0.021-1,0.062c-0.328-0.041-0.661-0.062-1-0.062
	h-2c-0.339,0-0.672,0.021-1,0.062c-0.328-0.041-0.661-0.062-1-0.062h-2c-0.339,0-0.672,0.021-1,0.062
	c-0.328-0.041-0.661-0.062-1-0.062h-2c-0.339,0-0.672,0.021-1,0.062c-0.328-0.041-0.661-0.062-1-0.062h-2
	c-0.339,0-0.672,0.021-1,0.062c-0.328-0.041-0.661-0.062-1-0.062h-2c-0.339,0-0.672,0.021-1,0.062c-0.328-0.041-0.661-0.062-1-0.062
	h-2c-0.339,0-0.672,0.021-1,0.062c-0.328-0.041-0.661-0.062-1-0.062h-2c-0.339,0-0.672,0.021-1,0.062
	c-0.328-0.041-0.661-0.062-1-0.062h-2c-0.339,0-0.672,0.021-1,0.062c-0.328-0.041-0.661-0.062-1-0.062h-2
	c-0.339,0-0.672,0.021-1,0.062c-0.328-0.041-0.661-0.062-1-0.062h-2c-0.339,0-0.672,0.021-1,0.062c-0.328-0.041-0.661-0.062-1-0.062
	h-2c-0.339,0-0.672,0.021-1,0.062c-0.328-0.041-0.661-0.062-1-0.062h-2c-0.339,0-0.672,0.021-1,0.062
	c-0.328-0.041-0.661-0.062-1-0.062h-2c-0.339,0-0.672,0.021-1,0.062c-0.328-0.041-0.661-0.062-1-0.062h-2
	c-0.339,0-0.672,0.021-1,0.062c-0.328-0.041-0.661-0.062-1-0.062h-2c-0.339,0-0.672,0.021-1,0.062c-0.328-0.041-0.661-0.062-1-0.062
	h-2c-0.339,0-0.672,0.021-1,0.062c-0.328-0.041-0.661-0.062-1-0.062h-2c-0.339,0-0.672,0.021-1,0.062
	c-0.328-0.041-0.661-0.062-1-0.062h-2c-0.339,0-0.672,0.021-1,0.062c-0.328-0.041-0.661-0.062-1-0.062h-2
	c-0.339,0-0.672,0.021-1,0.062c-0.328-0.041-0.661-0.062-1-0.062h-2c-0.339,0-0.672,0.021-1,0.062c-0.328-0.041-0.661-0.062-1-0.062
	h-2c-0.339,0-0.672,0.021-1,0.062c-0.328-0.041-0.661-0.062-1-0.062h-2c-0.339,0-0.672,0.021-1,0.062
	c-0.328-0.041-0.661-0.062-1-0.062h-2c-0.339,0-0.672,0.021-1,0.062c-0.328-0.041-0.661-0.062-1-0.062h-2
	c-0.339,0-0.672,0.021-1,0.062c-0.328-0.041-0.661-0.062-1-0.062h-2c-0.339,0-0.672,0.021-1,0.062c-0.328-0.041-0.661-0.062-1-0.062
	h-2c-0.339,0-0.672,0.021-1,0.062C98.672,52.021,98.339,52,98,52h-2c-0.339,0-0.672,0.021-1,0.062C94.672,52.021,94.339,52,94,52h-2
	c-0.339,0-0.672,0.021-1,0.062C90.672,52.021,90.339,52,90,52h-2c-0.339,0-0.672,0.021-1,0.062C86.672,52.021,86.339,52,86,52h-2
	c-0.339,0-0.672,0.021-1,0.062C82.672,52.021,82.339,52,82,52h-2c-0.339,0-0.672,0.021-1,0.062C78.672,52.021,78.339,52,78,52h-2
	c-0.339,0-0.672,0.021-1,0.062C74.672,52.021,74.339,52,74,52h-2c-0.339,0-0.672,0.021-1,0.062C70.672,52.021,70.339,52,70,52h-2
	c-0.339,0-0.672,0.021-1,0.062C66.672,52.021,66.339,52,66,52h-2c-0.339,0-0.672,0.021-1,0.062C62.672,52.021,62.339,52,62,52h-2
	c-0.339,0-0.672,0.021-1,0.062C58.672,52.021,58.339,52,58,52h-2c-0.339,0-0.672,0.021-1,0.062C54.672,52.021,54.339,52,54,52h-2
	c-0.339,0-0.672,0.021-1,0.062C50.672,52.021,50.339,52,50,52h-2c-0.339,0-0.672,0.021-1,0.062C46.672,52.021,46.339,52,46,52h-2
	c-0.339,0-0.672,0.021-1,0.062C42.672,52.021,42.339,52,42,52h-2c-0.339,0-0.672,0.021-1,0.062C38.672,52.021,38.339,52,38,52h-2
	c-0.339,0-0.672,0.021-1,0.062C34.672,52.021,34.339,52,34,52h-2c-0.339,0-0.672,0.021-1,0.062C30.672,52.021,30.339,52,30,52h-2
	c-0.339,0-0.672,0.021-1,0.062C26.672,52.021,26.339,52,26,52h-2c-0.339,0-0.672,0.021-1,0.062C22.672,52.021,22.339,52,22,52h-2
	c-4.083,0-7.451,3.058-7.939,7.009c-1.729,1.528-3.015,3.546-3.639,5.834C5.8,66.157,4,68.868,4,72v4c0,0.691,0.088,1.361,0.252,2
	C4.088,78.639,4,79.309,4,80v4c0,0.691,0.088,1.361,0.252,2C4.088,86.639,4,87.309,4,88v4c0,0.691,0.088,1.361,0.252,2
	C4.088,94.639,4,95.309,4,96v28c0,0.691,0.088,1.361,0.252,2C4.088,126.639,4,127.309,4,128v64c0,6.617,5.383,12,12,12h224
	c6.617,0,12-5.383,12-12v-64c0-0.691-0.087-1.361-0.252-2c0.165-0.639,0.252-1.309,0.252-2V96c0-2.961-1.609-5.547-4-6.93V82.93
	C250.391,81.547,252,78.961,252,76z"/>
<path style="fill:#A6A390;" d="M236,100H20c-2.209,0-4-1.791-4-4V68c0-2.209,1.791-4,4-4h216c2.209,0,4,1.791,4,4v28
	C240,98.209,238.209,100,236,100z"/>
<polygon style="fill:#C4C0AA;" points="234,68 234,60 232,60 232,68 232,72 230,72 230,60 228,60 228,72 226,72 226,60 224,60 
	224,72 222,72 222,60 220,60 220,72 218,72 218,60 216,60 216,72 214,72 214,60 212,60 212,72 210,72 210,60 208,60 208,72 206,72 
	206,60 204,60 204,72 202,72 202,60 200,60 200,72 198,72 198,60 196,60 196,72 194,72 194,60 192,60 192,72 190,72 190,60 188,60 
	188,72 186,72 186,60 184,60 184,72 182,72 182,60 180,60 180,72 178,72 178,60 176,60 176,72 174,72 174,60 172,60 172,72 170,72 
	170,60 168,60 168,72 166,72 166,60 164,60 164,72 162,72 162,60 160,60 160,72 158,72 158,60 156,60 156,72 154,72 154,60 152,60 
	152,72 150,72 150,60 148,60 148,72 146,72 146,60 144,60 144,72 142,72 142,60 140,60 140,72 138,72 138,60 136,60 136,72 134,72 
	134,60 132,60 132,72 130,72 130,60 128,60 128,72 126,72 126,60 124,60 124,72 122,72 122,60 120,60 120,72 118,72 118,60 116,60 
	116,72 114,72 114,60 112,60 112,72 110,72 110,60 108,60 108,72 106,72 106,60 104,60 104,72 102,72 102,60 100,60 100,72 98,72 
	98,60 96,60 96,72 94,72 94,60 92,60 92,72 90,72 90,60 88,60 88,72 86,72 86,60 84,60 84,72 82,72 82,60 80,60 80,72 78,72 78,60 
	76,60 76,72 74,72 74,60 72,60 72,72 70,72 70,60 68,60 68,72 66,72 66,60 64,60 64,72 62,72 62,60 60,60 60,72 58,72 58,60 56,60 
	56,72 54,72 54,60 52,60 52,72 50,72 50,60 48,60 48,72 46,72 46,60 44,60 44,72 42,72 42,60 40,60 40,72 38,72 38,60 36,60 36,72 
	34,72 34,60 32,60 32,72 30,72 30,60 28,60 28,72 26,72 26,60 24,60 24,72 22,72 22,60 20,60 20,72 12,72 12,76 228,76 228,80 
	12,80 12,84 228,84 228,88 12,88 12,92 228,92 228,96 12,96 12,124 244,124 244,96 240,96 240,76 244,76 244,68 "/>
<rect x="196" y="116" style="fill:#D9D4BC;" width="40" height="8"/>
<path style="fill:#C4C0AA;" d="M240,196H16c-2.209,0-4-1.791-4-4v-64h232v64C244,194.209,242.209,196,240,196z"/>
<rect x="16" y="124" style="fill:#A6A390;" width="224" height="4"/>
<rect x="224" y="134" style="fill:#FF0000;" width="8" height="2"/>
<rect x="224" y="138" style="fill:#666666;" width="8" height="2"/>
<rect x="16" y="147.925" style="fill:#A6A390;" width="8" height="8"/>
<rect x="16" y="159.925" style="fill:#A6A390;" width="12" height="8"/>
<rect x="28" y="147.925" style="fill:#D9D4BC;" width="8" height="8"/>
<rect x="32" y="159.925" style="fill:#D9D4BC;" width="8" height="8"/>
<rect x="36" y="171.925" style="fill:#D9D4BC;" width="8" height="8"/>
<rect x="48" y="171.925" style="fill:#D9D4BC;" width="8" height="8"/>
<rect x="60" y="171.925" style="fill:#D9D4BC;" width="8" height="8"/>
<rect x="72" y="171.925" style="fill:#D9D4BC;" width="8" height="8"/>
<rect x="84" y="171.925" style="fill:#D9D4BC;" width="8" height="8"/>
<rect x="96" y="171.925" style="fill:#D9D4BC;" width="8" height="8"/>
<rect x="108" y="171.925" style="fill:#D9D4BC;" width="8" height="8"/>
<rect x="120" y="171.925" style="fill:#D9D4BC;" width="8" height="8"/>
<rect x="132" y="171.925" style="fill:#A6A390;" width="8" height="8"/>
<rect x="44" y="159.925" style="fill:#D9D4BC;" width="8" height="8"/>
<rect x="56" y="159.925" style="fill:#D9D4BC;" width="8" height="8"/>
<rect x="68" y="159.925" style="fill:#D9D4BC;" width="8" height="8"/>
<rect x="80" y="159.925" style="fill:#D9D4BC;" width="8" height="8"/>
<rect x="92" y="159.925" style="fill:#D9D4BC;" width="8" height="8"/>
<rect x="104" y="159.925" style="fill:#D9D4BC;" width="8" height="8"/>
<rect x="116" y="159.925" style="fill:#D9D4BC;" width="8" height="8"/>
<rect x="128" y="159.925" style="fill:#D9D4BC;" width="8" height="8"/>
<rect x="196" y="147.925" style="fill:#A6A390;" width="8" height="8"/>
<rect x="208" y="147.925" style="fill:#A6A390;" width="8" height="8"/>
<rect x="220" y="147.925" style="fill:#A6A390;" width="8" height="8"/>
<rect x="232" y="147.925" style="fill:#A6A390;" width="8" height="8"/>
<rect x="196" y="159.925" style="fill:#D9D4BC;" width="8" height="8"/>
<rect x="208" y="159.925" style="fill:#D9D4BC;" width="8" height="8"/>
<rect x="220" y="159.925" style="fill:#D9D4BC;" width="8" height="8"/>
<rect x="232" y="159.925" style="fill:#A6A390;" width="8" height="8"/>
<rect x="196" y="171.925" style="fill:#D9D4BC;" width="8" height="8"/>
<rect x="208" y="171.925" style="fill:#D9D4BC;" width="8" height="8"/>
<rect x="220" y="171.925" style="fill:#D9D4BC;" width="8" height="8"/>
<rect x="196" y="183.925" style="fill:#D9D4BC;" width="8" height="8"/>
<rect x="208" y="183.925" style="fill:#D9D4BC;" width="8" height="8"/>
<rect x="220" y="183.925" style="fill:#D9D4BC;" width="8" height="8"/>
<rect x="232" y="171.925" style="fill:#A6A390;" width="8" height="20"/>
<rect x="168" y="172" style="fill:#D9D4BC;" width="8" height="8"/>
<rect x="156" y="184" style="fill:#D9D4BC;" width="8" height="8"/>
<rect x="168" y="184" style="fill:#D9D4BC;" width="8" height="8"/>
<rect x="180" y="184" style="fill:#D9D4BC;" width="8" height="8"/>
<rect x="140" y="159.925" style="fill:#A6A390;" width="8" height="20"/>
<rect x="40" y="147.925" style="fill:#D9D4BC;" width="8" height="8"/>
<rect x="52" y="147.925" style="fill:#D9D4BC;" width="8" height="8"/>
<rect x="64" y="147.925" style="fill:#D9D4BC;" width="8" height="8"/>
<rect x="76" y="147.925" style="fill:#D9D4BC;" width="8" height="8"/>
<rect x="88" y="147.925" style="fill:#D9D4BC;" width="8" height="8"/>
<rect x="100" y="147.925" style="fill:#D9D4BC;" width="8" height="8"/>
<rect x="112" y="147.925" style="fill:#D9D4BC;" width="8" height="8"/>
<rect x="124" y="147.925" style="fill:#D9D4BC;" width="8" height="8"/>
<rect x="136" y="147.925" style="fill:#A6A390;" width="12" height="8"/>
<rect x="16" y="136" style="fill:#A6A390;" width="8" height="8"/>
<rect x="28" y="136" style="fill:#A6A390;" width="8" height="8"/>
<rect x="40" y="136" style="fill:#A6A390;" width="8" height="8"/>
<rect x="52" y="136" style="fill:#A6A390;" width="8" height="8"/>
<rect x="64" y="136" style="fill:#A6A390;" width="8" height="8"/>
<rect x="76" y="136" style="fill:#A6A390;" width="8" height="8"/>
<rect x="88" y="136" style="fill:#A6A390;" width="8" height="8"/>
<rect x="100" y="136" style="fill:#A6A390;" width="8" height="8"/>
<rect x="112" y="136" style="fill:#A6A390;" width="8" height="8"/>
<rect x="124" y="136" style="fill:#A6A390;" width="8" height="8"/>
<rect x="136" y="136" style="fill:#A6A390;" width="8" height="8"/>
<rect x="156" y="147.925" style="fill:#A6A390;" width="12" height="8"/>
<rect x="176" y="147.925" style="fill:#A6A390;" width="12" height="8"/>
<rect x="16" y="171.85" style="fill:#A6A390;" width="16" height="8.075"/>
<rect x="20" y="183.925" style="fill:#A6A390;" width="12" height="8.075"/>
<rect x="120" y="183.925" style="fill:#A6A390;" width="12" height="8.075"/>
<rect x="136" y="183.925" style="fill:#A6A390;" width="8" height="8.075"/>
<rect x="36" y="183.925" style="fill:#D9D4BC;" width="80" height="8.075"/>
</svg>
