<svg xmlns="http://www.w3.org/2000/svg" xml:space="preserve" width="330.757" height="224" viewBox="0 0 330.757 224"><defs><clipPath id="a" clipPathUnits="userSpaceOnUse"><path d="M0 256h256V0H0Z"/></clipPath><clipPath id="b" clipPathUnits="userSpaceOnUse"><path d="M3.966 212h248.068V44H3.966Z"/></clipPath></defs><g clip-path="url(#a)" transform="matrix(1.33333 0 0 -1.33333 -5.288 282.667)"><g clip-path="url(#b)" style="opacity:.5"><path d="M-1.371-2.902c-.039-.098-.077-.202-.116-.302.039.1.077.204.116.302m-1.525-7.61.006-.236-.006.235zm.366 3.801q.028.143.06.285zm7.642-2.978q.018.257.062.598l.021.163q.047.304.108.593l.036.17q.071.322.156.631l.029.101.026.086q.087.303.182.59l.038.106.032.093q.086.245.176.478l.052.139.031.077a17 17 0 0 0 1.268 2.558l1.389 2.023-.069 2.381v136h-248V.436l.109-.654 4-24 1.115-6.684H3.427l1.114 6.684 1.33 7.983.37 2.219-.792 1.964-.026.068-.014.035-.014.035c-.024.06-.066.178-.125.395l-.038.13a5 5 0 0 0-.07.37l-.016.106q-.03.24-.041.449l-.002.146q-.007.31.002.533z" style="fill:#fff;fill-opacity:1;fill-rule:nonzero;stroke:none" transform="translate(243.316 74.902)"/></g><path d="M0 0h-232l4-24H-4l1.33 7.982C-5.695-8.543 0 0 0 0" style="fill:#666;fill-opacity:1;fill-rule:nonzero;stroke:none" transform="translate(244 76)"/><path d="M244 76H12v128h232z" style="fill:#737373;fill-opacity:1;fill-rule:nonzero;stroke:none"/><path d="M0 0c-30.928 0-56-25.072-56-56s25.072-56 56-56 56 25.072 56 56S30.928 0 0 0" style="fill:#666;fill-opacity:1;fill-rule:nonzero;stroke:none" transform="translate(72 192)"/><path d="M0 0c28.673 0 52-23.327 52-52s-23.327-52-52-52-52 23.327-52 52S-28.673 0 0 0" style="fill:#737373;fill-opacity:1;fill-rule:nonzero;stroke:none" transform="translate(72 188)"/><path d="M0 0v2h-108v50h-2v-152h2v60H0v2h-108v2H0v2h-108v2H0v2h-108v2H0v2h-108v2H0v2h-108v2H0v2h-108v2H0v2h-108v2H0v2h-108v2H0v2h-108v2H0v2h-108v2z" style="fill:#262626;fill-opacity:1;fill-rule:nonzero;stroke:none" transform="translate(244 152)"/><path d="m0 0 8-12-14.924-18.655A51.64 51.64 0 0 1 16-36c20.932 0 39.007 12.436 47.244 30.305C64.468-3.037 62.539 0 59.612 0Z" style="fill:#000;fill-opacity:1;fill-rule:nonzero;stroke:none" transform="translate(56 120)"/><path d="M0 0c-6.766 20.866-26.379 36-49.471 36s-42.705-15.134-49.47-36Z" style="fill:gray;fill-opacity:1;fill-rule:nonzero;stroke:none" transform="translate(121.47 152)"/><path d="m0 0 3.028-2.649a52 52 0 0 1 9.721-6.22L27.673 9.786l-8 12H-7.939c-2.935 0-4.853-3.047-3.624-5.71A52.3 52.3 0 0 1 0 0" style="fill:gray;fill-opacity:1;fill-rule:nonzero;stroke:none" transform="translate(36.327 98.214)"/><path d="M0 0a31.9 31.9 0 0 0-17.149-7.742v-12.069C-3.379-18.569 8.554-10.981 15.72 0Z" style="fill:#333;fill-opacity:1;fill-rule:nonzero;stroke:none" transform="translate(93.149 112)"/><path d="M0 0h-89.979v-12H-.655C-2.365-7.753-1.268-3.17 0 0" style="fill:#595959;fill-opacity:1;fill-rule:nonzero;stroke:none" transform="translate(241.98 72)"/><path d="M0 0h-12a6 6 0 0 0 0 12H0A6 6 0 0 0 0 0" style="fill:#737373;fill-opacity:1;fill-rule:nonzero;stroke:none" transform="translate(158 60)"/><path d="M188 67h-12v2h12zm0-4h-12v2h12z" style="fill:#737373;fill-opacity:1;fill-rule:nonzero;stroke:none"/><path d="M212 65h-20v2h20z" style="fill:#262626;fill-opacity:1;fill-rule:nonzero;stroke:none"/><path d="M204 60h4v12h-4z" style="fill:#737373;fill-opacity:1;fill-rule:nonzero;stroke:none"/><path d="M0 0a4 4 0 1 1 8 0 4 4 0 0 1-8 0" style="fill:#262626;fill-opacity:1;fill-rule:nonzero;stroke:none" transform="translate(224 66)"/><path d="M0 0a3 3 0 1 0-6 0 3 3 0 0 0 6 0" style="fill:#bfbfbf;fill-opacity:1;fill-rule:nonzero;stroke:none" transform="translate(231 66)"/><path d="M0 0a2 2 0 1 0-4.001.001A2 2 0 0 0 0 0" style="fill:#262626;fill-opacity:1;fill-rule:nonzero;stroke:none" transform="translate(230 66)"/></g></svg>