<svg xmlns="http://www.w3.org/2000/svg" xml:space="preserve" viewBox="0 0 256 256"><path d="m251.993 151.667-4-96-.319-7.667H132V32H48v16H8.326l-.319 7.667-4 96-.086 2.063.924 1.848L8 161.888V228h240v-66.112l3.155-6.31.924-1.848z" style="opacity:.5;fill:#fff"/><path d="M240 160H16l-4-8h232z" style="fill:#c4c0aa"/><path d="M244 152H12l4-96h224z" style="fill:#d9d4bc"/><path d="M240 148h-72V64h64zM56 40h68v24H56z" style="fill:#c4c0aa"/><path d="M176 64h56v20h-56z" style="fill:#a6a390"/><path d="M176 92h56v36h-56z" style="fill:#4d4d4d"/><path d="M184 100h40v16h-40z" style="fill:#595959"/><circle cx="192" cy="108" r="4" style="fill:#1a1a1a"/><circle cx="216" cy="108" r="4" style="fill:#1a1a1a"/><path d="M200 104h8v8h-8z" style="fill:#666"/><path d="M188 76h8v4h-8z" style="fill:#1a1a1a"/><circle cx="202" cy="78" r="2" style="fill:#1a1a1a"/><path d="M176 128h56v12h-56z" style="fill:#c4c0aa"/><path d="M176 140h56v16h-56z" style="fill:#333"/><path d="M176 140h8v12h-8zm12 0h8v12h-8zm12 0h8v12h-8zm12 0h8v12h-8zm12 0h8v12h-8z" style="fill:#4d4d4d"/><path d="M188 152h8v4h-8zm12 0h8v4h-8zm12 0h8v4h-8zm12 0h8v4h-8zm-48 0h8v4h-8z" style="fill:#404040"/><path d="M16 64h148v84H16z" style="fill:#4d4d4d"/><path d="M28 128h124v12H28zm92-68h36v56h-36z" style="fill:#404040"/><path d="M124 88h28v24h-28z" style="fill:#333"/><path d="M124 64h28v20h-28z" style="fill:#4d4d4d"/><path d="M138 60c-5.523 0-10 4.477-10 10s4.477 10 10 10 10-4.477 10-10-4.477-10-10-10" style="fill:#595959"/><path d="M138 62c4.411 0 8 3.589 8 8s-3.589 8-8 8-8-3.589-8-8 3.589-8 8-8m-11 34h-2a1 1 0 0 1-1-1v-2a1 1 0 0 1 1-1h2a1 1 0 0 1 1 1v2a1 1 0 0 1-1 1m8 0h-2a1 1 0 0 1-1-1v-2a1 1 0 0 1 1-1h2a1 1 0 0 1 1 1v2a1 1 0 0 1-1 1m8 0h-2a1 1 0 0 1-1-1v-2a1 1 0 0 1 1-1h2a1 1 0 0 1 1 1v2a1 1 0 0 1-1 1m8 0h-2a1 1 0 0 1-1-1v-2a1 1 0 0 1 1-1h2a1 1 0 0 1 1 1v2a1 1 0 0 1-1 1m-24 8h-2a1 1 0 0 1-1-1v-2a1 1 0 0 1 1-1h2a1 1 0 0 1 1 1v2a1 1 0 0 1-1 1m8 0h-2a1 1 0 0 1-1-1v-2a1 1 0 0 1 1-1h2a1 1 0 0 1 1 1v2a1 1 0 0 1-1 1m8 0h-2a1 1 0 0 1-1-1v-2a1 1 0 0 1 1-1h2a1 1 0 0 1 1 1v2a1 1 0 0 1-1 1" style="fill:#e6e6e6"/><path d="M151 104h-2a1 1 0 0 1-1-1v-2a1 1 0 0 1 1-1h2a1 1 0 0 1 1 1v2a1 1 0 0 1-1 1" style="fill:#9bc2dd"/><path d="M127 112h-2a1 1 0 0 1-1-1v-2a1 1 0 0 1 1-1h2a1 1 0 0 1 1 1v2a1 1 0 0 1-1 1m8 0h-2a1 1 0 0 1-1-1v-2a1 1 0 0 1 1-1h2a1 1 0 0 1 1 1v2a1 1 0 0 1-1 1m8 0h-2a1 1 0 0 1-1-1v-2a1 1 0 0 1 1-1h2a1 1 0 0 1 1 1v2a1 1 0 0 1-1 1" style="fill:#e6e6e6"/><path d="M151 112h-2a1 1 0 0 1-1-1v-2a1 1 0 0 1 1-1h2a1 1 0 0 1 1 1v2a1 1 0 0 1-1 1" style="fill:#9bc2dd"/><path d="M24 60h36v56H24z" style="fill:#404040"/><path d="M28 88h28v24H28z" style="fill:#333"/><path d="M28 64h28v20H28z" style="fill:#4d4d4d"/><path d="M42 60c-5.523 0-10 4.477-10 10s4.477 10 10 10 10-4.477 10-10-4.477-10-10-10" style="fill:#595959"/><path d="M42 62c4.411 0 8 3.589 8 8s-3.589 8-8 8-8-3.589-8-8 3.589-8 8-8M31 96h-2a1 1 0 0 1-1-1v-2a1 1 0 0 1 1-1h2a1 1 0 0 1 1 1v2a1 1 0 0 1-1 1m8 0h-2a1 1 0 0 1-1-1v-2a1 1 0 0 1 1-1h2a1 1 0 0 1 1 1v2a1 1 0 0 1-1 1m8 0h-2a1 1 0 0 1-1-1v-2a1 1 0 0 1 1-1h2a1 1 0 0 1 1 1v2a1 1 0 0 1-1 1m8 0h-2a1 1 0 0 1-1-1v-2a1 1 0 0 1 1-1h2a1 1 0 0 1 1 1v2a1 1 0 0 1-1 1m-24 8h-2a1 1 0 0 1-1-1v-2a1 1 0 0 1 1-1h2a1 1 0 0 1 1 1v2a1 1 0 0 1-1 1m8 0h-2a1 1 0 0 1-1-1v-2a1 1 0 0 1 1-1h2a1 1 0 0 1 1 1v2a1 1 0 0 1-1 1m8 0h-2a1 1 0 0 1-1-1v-2a1 1 0 0 1 1-1h2a1 1 0 0 1 1 1v2a1 1 0 0 1-1 1" style="fill:#e6e6e6"/><path d="M55 104h-2a1 1 0 0 1-1-1v-2a1 1 0 0 1 1-1h2a1 1 0 0 1 1 1v2a1 1 0 0 1-1 1" style="fill:#9bc2dd"/><path d="M31 112h-2a1 1 0 0 1-1-1v-2a1 1 0 0 1 1-1h2a1 1 0 0 1 1 1v2a1 1 0 0 1-1 1m8 0h-2a1 1 0 0 1-1-1v-2a1 1 0 0 1 1-1h2a1 1 0 0 1 1 1v2a1 1 0 0 1-1 1m8 0h-2a1 1 0 0 1-1-1v-2a1 1 0 0 1 1-1h2a1 1 0 0 1 1 1v2a1 1 0 0 1-1 1" style="fill:#e6e6e6"/><path d="M55 112h-2a1 1 0 0 1-1-1v-2a1 1 0 0 1 1-1h2a1 1 0 0 1 1 1v2a1 1 0 0 1-1 1" style="fill:#9bc2dd"/><path d="M64 92h52v28H64z" style="fill:#404040"/><path d="M68 112h20v4H68zm24 0h20v4H92z" style="fill:#e6e6e6"/><path d="M64 52h52v32H64z" style="fill:#404040"/><path d="M64 44h52v8H64z" style="fill:#4d4d4d"/><path d="M16 160h224v60H16z" style="fill:#d9d4bc"/><path d="M176 172h52v32h-52z" style="fill:#c4c0aa"/><path d="M232 180h4v12h-4z" style="fill:#333"/><circle cx="234" cy="174" r="2" style="fill:#333"/><circle cx="234" cy="210" r="2" style="fill:red"/><path d="M24 172h128v36H24z" style="fill:#a6a390"/><path d="M24 172h8v8h-8zm-4 12h8v8h-8zm12 0h8v8h-8zm12 0h8v8h-8zm12 0h8v8h-8zm12 0h8v8h-8zm12 0h8v8h-8zm12 0h8v8h-8zm12 0h8v8h-8zm12 0h8v8h-8z" style="fill:#c4c0aa"/><path d="M128 184h8v8h-8zm12 0h12v8h-12z" style="fill:#4d4d4d"/><path d="M36 172h8v8h-8zm12 0h8v8h-8zm12 0h8v8h-8zm12 0h8v8h-8zm12 0h8v8h-8zm12 0h8v8h-8zm12 0h8v8h-8zm12 0h8v8h-8zm12 0h8v8h-8z" style="fill:#c4c0aa"/><path d="M144 172h8v8h-8z" style="fill:#4d4d4d"/><path d="M24 196h8v8h-8zm12 0h8v8h-8zm12 0h8v8h-8zm12 0h8v8h-8zm12 0h8v8h-8zm12 0h8v8h-8zm12 0h8v8h-8zm12 0h8v8h-8zm12 0h8v8h-8z" style="fill:#c4c0aa"/><path d="M132 196h8v8h-8zm12 0h8v8h-8zm-92 12h72v8H52z" style="fill:#4d4d4d"/><path d="M180 176h4v24h-4zm8 0h4v24h-4zm8 0h4v24h-4zm8 0h4v24h-4zm8 0h4v24h-4zm8 0h4v24h-4z" style="fill:#a6a390"/></svg>