<?xml version="1.0" encoding="iso-8859-1"?>
<!-- Generator: Adobe Illustrator 27.8.1, SVG Export Plug-In . SVG Version: 6.00 Build 0)  -->
<svg version="1.1" id="Layer_1" xmlns="http://www.w3.org/2000/svg" xmlns:xlink="http://www.w3.org/1999/xlink" x="0px" y="0px"
	 viewBox="0 0 256 256" style="enable-background:new 0 0 256 256;" xml:space="preserve">
<polygon style="opacity:0.5;fill:#FFFFFF;" points="251.993,151.667 247.993,55.667 247.674,48 240,48 132,48 132,40 132,32 124,32 
	56,32 48,32 48,40 48,48 16,48 8.326,48 8.007,55.667 4.007,151.667 3.921,153.73 4.845,155.578 8,161.888 8,220 8,228 16,228 
	240,228 248,228 248,220 248,161.888 251.155,155.578 252.079,153.73 "/>
<polygon style="fill:#C4C0AA;" points="240,160 16,160 12,152 244,152 "/>
<polygon style="fill:#D9D4BC;" points="244,152 12,152 16,56 240,56 "/>
<polygon style="fill:#C4C0AA;" points="240,148 168,148 168,64 232,64 "/>
<rect x="56" y="40" style="fill:#C4C0AA;" width="68" height="24"/>
<rect x="176" y="64" style="fill:#A6A390;" width="56" height="20"/>
<rect x="176" y="92" style="fill:#4D4D4D;" width="56" height="36"/>
<rect x="184" y="100" style="fill:#595959;" width="40" height="16"/>
<circle style="fill:#1A1A1A;" cx="192" cy="108" r="4"/>
<circle style="fill:#1A1A1A;" cx="216" cy="108" r="4"/>
<rect x="200" y="104" style="fill:#666666;" width="8" height="8"/>
<rect x="188" y="76" style="fill:#1A1A1A;" width="8" height="4"/>
<circle style="fill:#1A1A1A;" cx="202" cy="78" r="2"/>
<rect x="176" y="128" style="fill:#C4C0AA;" width="56" height="12"/>
<rect x="176" y="140" style="fill:#333333;" width="56" height="16"/>
<rect x="176" y="140" style="fill:#4D4D4D;" width="8" height="12"/>
<rect x="188" y="140" style="fill:#4D4D4D;" width="8" height="12"/>
<rect x="200" y="140" style="fill:#4D4D4D;" width="8" height="12"/>
<rect x="212" y="140" style="fill:#4D4D4D;" width="8" height="12"/>
<rect x="224" y="140" style="fill:#4D4D4D;" width="8" height="12"/>
<rect x="188" y="152" style="fill:#404040;" width="8" height="4"/>
<rect x="200" y="152" style="fill:#404040;" width="8" height="4"/>
<rect x="212" y="152" style="fill:#404040;" width="8" height="4"/>
<rect x="224" y="152" style="fill:#404040;" width="8" height="4"/>
<rect x="176" y="152" style="fill:#404040;" width="8" height="4"/>
<rect x="16" y="64" style="fill:#4D4D4D;" width="148" height="84"/>
<rect x="28" y="128" style="fill:#404040;" width="124" height="12"/>
<g>
	<rect x="120" y="60" style="fill:#404040;" width="36" height="56"/>
	<rect x="124" y="88" style="fill:#333333;" width="28" height="24"/>
	<rect x="124" y="64" style="fill:#4D4D4D;" width="28" height="20"/>
	<path style="fill:#595959;" d="M138,60c-5.523,0-10,4.477-10,10s4.477,10,10,10s10-4.477,10-10S143.523,60,138,60L138,60z"/>
	<path style="fill:#E6E6E6;" d="M138,62c4.411,0,8,3.589,8,8s-3.589,8-8,8s-8-3.589-8-8S133.589,62,138,62"/>
	<path style="fill:#E6E6E6;" d="M127,96h-2c-0.552,0-1-0.448-1-1v-2c0-0.552,0.448-1,1-1h2c0.552,0,1,0.448,1,1v2
		C128,95.552,127.552,96,127,96z"/>
	<path style="fill:#E6E6E6;" d="M135,96h-2c-0.552,0-1-0.448-1-1v-2c0-0.552,0.448-1,1-1h2c0.552,0,1,0.448,1,1v2
		C136,95.552,135.552,96,135,96z"/>
	<path style="fill:#E6E6E6;" d="M143,96h-2c-0.552,0-1-0.448-1-1v-2c0-0.552,0.448-1,1-1h2c0.552,0,1,0.448,1,1v2
		C144,95.552,143.552,96,143,96z"/>
	<path style="fill:#E6E6E6;" d="M151,96h-2c-0.552,0-1-0.448-1-1v-2c0-0.552,0.448-1,1-1h2c0.552,0,1,0.448,1,1v2
		C152,95.552,151.552,96,151,96z"/>
	<path style="fill:#E6E6E6;" d="M127,104h-2c-0.552,0-1-0.448-1-1v-2c0-0.552,0.448-1,1-1h2c0.552,0,1,0.448,1,1v2
		C128,103.552,127.552,104,127,104z"/>
	<path style="fill:#E6E6E6;" d="M135,104h-2c-0.552,0-1-0.448-1-1v-2c0-0.552,0.448-1,1-1h2c0.552,0,1,0.448,1,1v2
		C136,103.552,135.552,104,135,104z"/>
	<path style="fill:#E6E6E6;" d="M143,104h-2c-0.552,0-1-0.448-1-1v-2c0-0.552,0.448-1,1-1h2c0.552,0,1,0.448,1,1v2
		C144,103.552,143.552,104,143,104z"/>
	<path style="fill:#9BC2DD;" d="M151,104h-2c-0.552,0-1-0.448-1-1v-2c0-0.552,0.448-1,1-1h2c0.552,0,1,0.448,1,1v2
		C152,103.552,151.552,104,151,104z"/>
	<path style="fill:#E6E6E6;" d="M127,112h-2c-0.552,0-1-0.448-1-1v-2c0-0.552,0.448-1,1-1h2c0.552,0,1,0.448,1,1v2
		C128,111.552,127.552,112,127,112z"/>
	<path style="fill:#E6E6E6;" d="M135,112h-2c-0.552,0-1-0.448-1-1v-2c0-0.552,0.448-1,1-1h2c0.552,0,1,0.448,1,1v2
		C136,111.552,135.552,112,135,112z"/>
	<path style="fill:#E6E6E6;" d="M143,112h-2c-0.552,0-1-0.448-1-1v-2c0-0.552,0.448-1,1-1h2c0.552,0,1,0.448,1,1v2
		C144,111.552,143.552,112,143,112z"/>
	<path style="fill:#9BC2DD;" d="M151,112h-2c-0.552,0-1-0.448-1-1v-2c0-0.552,0.448-1,1-1h2c0.552,0,1,0.448,1,1v2
		C152,111.552,151.552,112,151,112z"/>
</g>
<g>
	<rect x="24" y="60" style="fill:#404040;" width="36" height="56"/>
	<rect x="28" y="88" style="fill:#333333;" width="28" height="24"/>
	<rect x="28" y="64" style="fill:#4D4D4D;" width="28" height="20"/>
	<path style="fill:#595959;" d="M42,60c-5.523,0-10,4.477-10,10s4.477,10,10,10s10-4.477,10-10S47.523,60,42,60L42,60z"/>
	<path style="fill:#E6E6E6;" d="M42,62c4.411,0,8,3.589,8,8s-3.589,8-8,8s-8-3.589-8-8S37.589,62,42,62"/>
	<path style="fill:#E6E6E6;" d="M31,96h-2c-0.552,0-1-0.448-1-1v-2c0-0.552,0.448-1,1-1h2c0.552,0,1,0.448,1,1v2
		C32,95.552,31.552,96,31,96z"/>
	<path style="fill:#E6E6E6;" d="M39,96h-2c-0.552,0-1-0.448-1-1v-2c0-0.552,0.448-1,1-1h2c0.552,0,1,0.448,1,1v2
		C40,95.552,39.552,96,39,96z"/>
	<path style="fill:#E6E6E6;" d="M47,96h-2c-0.552,0-1-0.448-1-1v-2c0-0.552,0.448-1,1-1h2c0.552,0,1,0.448,1,1v2
		C48,95.552,47.552,96,47,96z"/>
	<path style="fill:#E6E6E6;" d="M55,96h-2c-0.552,0-1-0.448-1-1v-2c0-0.552,0.448-1,1-1h2c0.552,0,1,0.448,1,1v2
		C56,95.552,55.552,96,55,96z"/>
	<path style="fill:#E6E6E6;" d="M31,104h-2c-0.552,0-1-0.448-1-1v-2c0-0.552,0.448-1,1-1h2c0.552,0,1,0.448,1,1v2
		C32,103.552,31.552,104,31,104z"/>
	<path style="fill:#E6E6E6;" d="M39,104h-2c-0.552,0-1-0.448-1-1v-2c0-0.552,0.448-1,1-1h2c0.552,0,1,0.448,1,1v2
		C40,103.552,39.552,104,39,104z"/>
	<path style="fill:#E6E6E6;" d="M47,104h-2c-0.552,0-1-0.448-1-1v-2c0-0.552,0.448-1,1-1h2c0.552,0,1,0.448,1,1v2
		C48,103.552,47.552,104,47,104z"/>
	<path style="fill:#9BC2DD;" d="M55,104h-2c-0.552,0-1-0.448-1-1v-2c0-0.552,0.448-1,1-1h2c0.552,0,1,0.448,1,1v2
		C56,103.552,55.552,104,55,104z"/>
	<path style="fill:#E6E6E6;" d="M31,112h-2c-0.552,0-1-0.448-1-1v-2c0-0.552,0.448-1,1-1h2c0.552,0,1,0.448,1,1v2
		C32,111.552,31.552,112,31,112z"/>
	<path style="fill:#E6E6E6;" d="M39,112h-2c-0.552,0-1-0.448-1-1v-2c0-0.552,0.448-1,1-1h2c0.552,0,1,0.448,1,1v2
		C40,111.552,39.552,112,39,112z"/>
	<path style="fill:#E6E6E6;" d="M47,112h-2c-0.552,0-1-0.448-1-1v-2c0-0.552,0.448-1,1-1h2c0.552,0,1,0.448,1,1v2
		C48,111.552,47.552,112,47,112z"/>
	<path style="fill:#9BC2DD;" d="M55,112h-2c-0.552,0-1-0.448-1-1v-2c0-0.552,0.448-1,1-1h2c0.552,0,1,0.448,1,1v2
		C56,111.552,55.552,112,55,112z"/>
</g>
<rect x="64" y="92" style="fill:#404040;" width="52" height="28"/>
<rect x="68" y="112" style="fill:#E6E6E6;" width="20" height="4"/>
<rect x="92" y="112" style="fill:#E6E6E6;" width="20" height="4"/>
<rect x="64" y="52" style="fill:#404040;" width="52" height="32"/>
<rect x="64" y="44" style="fill:#4D4D4D;" width="52" height="8"/>
<rect x="16" y="160" style="fill:#D9D4BC;" width="224" height="60"/>
<rect x="176" y="172" style="fill:#C4C0AA;" width="52" height="32"/>
<rect x="232" y="180" style="fill:#333333;" width="4" height="12"/>
<circle style="fill:#333333;" cx="234" cy="174" r="2"/>
<circle style="fill:#FF0000;" cx="234" cy="210" r="2"/>
<rect x="24" y="172" style="fill:#A6A390;" width="128" height="36"/>
<rect x="24" y="172" style="fill:#C4C0AA;" width="8" height="8"/>
<rect x="20" y="184" style="fill:#C4C0AA;" width="8" height="8"/>
<rect x="32" y="184" style="fill:#C4C0AA;" width="8" height="8"/>
<rect x="44" y="184" style="fill:#C4C0AA;" width="8" height="8"/>
<rect x="56" y="184" style="fill:#C4C0AA;" width="8" height="8"/>
<rect x="68" y="184" style="fill:#C4C0AA;" width="8" height="8"/>
<rect x="80" y="184" style="fill:#C4C0AA;" width="8" height="8"/>
<rect x="92" y="184" style="fill:#C4C0AA;" width="8" height="8"/>
<rect x="104" y="184" style="fill:#C4C0AA;" width="8" height="8"/>
<rect x="116" y="184" style="fill:#C4C0AA;" width="8" height="8"/>
<rect x="128" y="184" style="fill:#4D4D4D;" width="8" height="8"/>
<rect x="140" y="184" style="fill:#4D4D4D;" width="12" height="8"/>
<rect x="36" y="172" style="fill:#C4C0AA;" width="8" height="8"/>
<rect x="48" y="172" style="fill:#C4C0AA;" width="8" height="8"/>
<rect x="60" y="172" style="fill:#C4C0AA;" width="8" height="8"/>
<rect x="72" y="172" style="fill:#C4C0AA;" width="8" height="8"/>
<rect x="84" y="172" style="fill:#C4C0AA;" width="8" height="8"/>
<rect x="96" y="172" style="fill:#C4C0AA;" width="8" height="8"/>
<rect x="108" y="172" style="fill:#C4C0AA;" width="8" height="8"/>
<rect x="120" y="172" style="fill:#C4C0AA;" width="8" height="8"/>
<rect x="132" y="172" style="fill:#C4C0AA;" width="8" height="8"/>
<rect x="144" y="172" style="fill:#4D4D4D;" width="8" height="8"/>
<rect x="24" y="196" style="fill:#C4C0AA;" width="8" height="8"/>
<rect x="36" y="196" style="fill:#C4C0AA;" width="8" height="8"/>
<rect x="48" y="196" style="fill:#C4C0AA;" width="8" height="8"/>
<rect x="60" y="196" style="fill:#C4C0AA;" width="8" height="8"/>
<rect x="72" y="196" style="fill:#C4C0AA;" width="8" height="8"/>
<rect x="84" y="196" style="fill:#C4C0AA;" width="8" height="8"/>
<rect x="96" y="196" style="fill:#C4C0AA;" width="8" height="8"/>
<rect x="108" y="196" style="fill:#C4C0AA;" width="8" height="8"/>
<rect x="120" y="196" style="fill:#C4C0AA;" width="8" height="8"/>
<rect x="132" y="196" style="fill:#4D4D4D;" width="8" height="8"/>
<rect x="144" y="196" style="fill:#4D4D4D;" width="8" height="8"/>
<rect x="52" y="208" style="fill:#4D4D4D;" width="72" height="8"/>
<rect x="180" y="176" style="fill:#A6A390;" width="4" height="24"/>
<rect x="188" y="176" style="fill:#A6A390;" width="4" height="24"/>
<rect x="196" y="176" style="fill:#A6A390;" width="4" height="24"/>
<rect x="204" y="176" style="fill:#A6A390;" width="4" height="24"/>
<rect x="212" y="176" style="fill:#A6A390;" width="4" height="24"/>
<rect x="220" y="176" style="fill:#A6A390;" width="4" height="24"/>
</svg>
