<?xml version="1.0" encoding="iso-8859-1"?>
<!-- Generator: Adobe Illustrator 27.8.1, SVG Export Plug-In . SVG Version: 6.00 Build 0)  -->
<svg version="1.1" id="Layer_1" xmlns="http://www.w3.org/2000/svg" xmlns:xlink="http://www.w3.org/1999/xlink" x="0px" y="0px"
	 viewBox="0 0 256 256" style="enable-background:new 0 0 256 256;" xml:space="preserve">
<path style="opacity:0.5;fill:#FFFFFF;" d="M244,52h-32h-8v4h-8h-40H28H16h-4H4v8v128v8h8h220h8v-4h8v-8v-2v-2v-2v-2v-2v-2v-2v-2v-2
	v-2v-2v-2v-2v-2v-2v-2v-2v-2v-2v-2v-2v-2v-2v-2v-2v-2v-2c0-3.268-1.575-6.174-4.006-8c2.431-1.826,4.006-4.732,4.006-8v-2v-12v-4h4
	v-8V60v-8H244z"/>
<path style="fill:#1ABF9F;" d="M240,118V64h-8h-8H12v128h220v-4h8v-54c0-1.105-0.895-2-2-2h-4c-1.105,0-2-0.895-2-2v-8
	c0-1.105,0.895-2,2-2h4C239.105,120,240,119.105,240,118z"/>
<rect x="196" y="104" style="fill:#3096CF;" width="36" height="8"/>
<rect x="196" y="112" style="fill:#2C8BBF;" width="36" height="4"/>
<rect x="196" y="100" style="fill:#9BC2DD;" width="36" height="4"/>
<rect x="156" y="68" style="fill:#3096CF;" width="40" height="8"/>
<rect x="156" y="76" style="fill:#2C8BBF;" width="40" height="4"/>
<rect x="156" y="64" style="fill:#9BC2DD;" width="40" height="4"/>
<rect x="196" y="124" style="fill:#3096CF;" width="36" height="8"/>
<rect x="196" y="120" style="fill:#9BC2DD;" width="36" height="4"/>
<rect x="16" y="64" style="fill:#E6E6E6;" width="12" height="8"/>
<rect x="236" y="104" style="fill:#E6E6E6;" width="4" height="12"/>
<rect x="28" y="88" style="fill:#8C8C8C;" width="20" height="8"/>
<rect x="44" y="112" style="fill:#8C8C8C;" width="4" height="12"/>
<rect x="64" y="140" style="fill:#8C8C8C;" width="4" height="12"/>
<rect x="76" y="140" style="fill:#8C8C8C;" width="4" height="12"/>
<rect x="88" y="140" style="fill:#8C8C8C;" width="4" height="12"/>
<rect x="100" y="140" style="fill:#8C8C8C;" width="4" height="12"/>
<rect x="56" y="84" style="fill:#8C8C8C;" width="4" height="12"/>
<rect x="68" y="84" style="fill:#8C8C8C;" width="4" height="12"/>
<rect x="76" y="84" style="fill:#4D4D4D;" width="4" height="12"/>
<rect x="20" y="84" style="fill:#4D4D4D;" width="4" height="12"/>
<rect x="20" y="112" style="fill:#4D4D4D;" width="4" height="12"/>
<rect x="20" y="140" style="fill:#4D4D4D;" width="4" height="12"/>
<rect x="20" y="168" style="fill:#4D4D4D;" width="4" height="12"/>
<rect x="28" y="168" style="fill:#4D4D4D;" width="4" height="12"/>
<rect x="112" y="168" style="fill:#4D4D4D;" width="4" height="12"/>
<rect x="124" y="168" style="fill:#4D4D4D;" width="4" height="12"/>
<rect x="136" y="168" style="fill:#4D4D4D;" width="4" height="12"/>
<rect x="148" y="168" style="fill:#4D4D4D;" width="4" height="12"/>
<rect x="160" y="168" style="fill:#4D4D4D;" width="4" height="12"/>
<rect x="172" y="168" style="fill:#4D4D4D;" width="4" height="12"/>
<rect x="184" y="168" style="fill:#4D4D4D;" width="4" height="12"/>
<rect x="196" y="168" style="fill:#4D4D4D;" width="4" height="12"/>
<rect x="208" y="168" style="fill:#4D4D4D;" width="4" height="12"/>
<rect x="220" y="168" style="fill:#4D4D4D;" width="4" height="12"/>
<rect x="32" y="140" style="fill:#4D4D4D;" width="4" height="12"/>
<rect x="44" y="140" style="fill:#4D4D4D;" width="4" height="12"/>
<rect x="56" y="140" style="fill:#4D4D4D;" width="4" height="12"/>
<rect x="136" y="140" style="fill:#4D4D4D;" width="4" height="12"/>
<rect x="148" y="140" style="fill:#4D4D4D;" width="4" height="12"/>
<rect x="160" y="140" style="fill:#4D4D4D;" width="4" height="12"/>
<rect x="172" y="140" style="fill:#4D4D4D;" width="4" height="12"/>
<rect x="184" y="140" style="fill:#4D4D4D;" width="4" height="12"/>
<rect x="196" y="140" style="fill:#4D4D4D;" width="4" height="12"/>
<rect x="208" y="140" style="fill:#4D4D4D;" width="4" height="12"/>
<rect x="220" y="140" style="fill:#4D4D4D;" width="4" height="12"/>
<rect x="56" y="112" style="fill:#4D4D4D;" width="4" height="12"/>
<rect x="68" y="112" style="fill:#4D4D4D;" width="4" height="12"/>
<rect x="76" y="112" style="fill:#4D4D4D;" width="4" height="12"/>
<rect x="88" y="112" style="fill:#4D4D4D;" width="4" height="12"/>
<rect x="112" y="112" style="fill:#4D4D4D;" width="4" height="12"/>
<rect x="124" y="112" style="fill:#4D4D4D;" width="4" height="12"/>
<rect x="136" y="112" style="fill:#4D4D4D;" width="4" height="12"/>
<rect x="148" y="112" style="fill:#4D4D4D;" width="4" height="12"/>
<rect x="160" y="112" style="fill:#4D4D4D;" width="4" height="12"/>
<rect x="172" y="112" style="fill:#4D4D4D;" width="4" height="12"/>
<rect x="184" y="112" style="fill:#4D4D4D;" width="4" height="12"/>
<rect x="100" y="112" style="fill:#8C8C8C;" width="4" height="12"/>
<rect x="88" y="84" style="fill:#4D4D4D;" width="4" height="12"/>
<rect x="100" y="84" style="fill:#4D4D4D;" width="4" height="12"/>
<rect x="112" y="84" style="fill:#4D4D4D;" width="4" height="12"/>
<rect x="124" y="88" style="fill:#4D4D4D;" width="4" height="8"/>
<rect x="136" y="84" style="fill:#4D4D4D;" width="4" height="12"/>
<rect x="148" y="88" style="fill:#4D4D4D;" width="4" height="8"/>
<rect x="160" y="92" style="fill:#4D4D4D;" width="4" height="4"/>
<rect x="172" y="84" style="fill:#4D4D4D;" width="4" height="12"/>
<rect x="184" y="84" style="fill:#4D4D4D;" width="4" height="12"/>
<rect x="112" y="140" style="fill:#4D4D4D;" width="20" height="8"/>
<rect x="40" y="172" style="fill:#4D4D4D;" width="32" height="8"/>
<rect x="76" y="172" style="fill:#E6E6E6;" width="32" height="8"/>
<ellipse style="fill:#E77F22;" cx="206" cy="172" rx="2" ry="4"/>
<ellipse style="fill:#E77F22;" cx="226" cy="172" rx="2" ry="4"/>
<ellipse style="fill:#E77F22;" cx="202" cy="144" rx="2" ry="4"/>
<ellipse style="fill:#E77F22;" cx="182" cy="140" rx="2" ry="4"/>
<ellipse style="fill:#E77F22;" cx="182" cy="172" rx="2" ry="4"/>
<ellipse style="fill:#E77F22;" cx="158" cy="140" rx="2" ry="4"/>
<ellipse style="fill:#E77F22;" cx="158" cy="172" rx="2" ry="4"/>
<ellipse style="fill:#E77F22;" cx="110" cy="176" rx="2" ry="4"/>
<ellipse style="fill:#E77F22;" cx="106" cy="144" rx="2" ry="4"/>
<ellipse style="fill:#E77F22;" cx="50" cy="140" rx="2" ry="4"/>
<ellipse style="fill:#E77F22;" cx="110" cy="116" rx="2" ry="4"/>
<ellipse style="fill:#E77F22;" cx="134" cy="112" rx="2" ry="4"/>
<ellipse style="fill:#E77F22;" cx="130" cy="116" rx="2" ry="4"/>
<ellipse style="fill:#E77F22;" cx="142" cy="112" rx="2" ry="4"/>
<ellipse style="fill:#E77F22;" cx="154" cy="92" rx="2" ry="4"/>
<ellipse style="fill:#E77F22;" cx="146" cy="116" rx="2" ry="4"/>
<ellipse style="fill:#E77F22;" cx="194" cy="120" rx="2" ry="4"/>
<ellipse style="fill:#E77F22;" cx="194" cy="92" rx="2" ry="4"/>
<ellipse style="fill:#E77F22;" cx="110" cy="92" rx="2" ry="4"/>
<ellipse style="fill:#E77F22;" cx="150" cy="78" rx="4" ry="2"/>
<ellipse style="fill:#E77F22;" cx="168" cy="136" rx="4" ry="2"/>
<ellipse style="fill:#E77F22;" cx="226" cy="144" rx="2" ry="4"/>
<rect x="212" y="60" style="fill:#4D4D4D;" width="32" height="32"/>
<path style="fill:#666666;" d="M229.258,61.825l0.396-0.976c0.563-1.387,2.627-0.976,2.616,0.52l-0.008,1.053
	c-0.009,1.219,1.469,1.831,2.325,0.963l0.739-0.75c1.051-1.066,2.8,0.103,2.218,1.482l-0.41,0.97
	c-0.475,1.123,0.656,2.254,1.779,1.779l0.97-0.41c1.379-0.583,2.548,1.167,1.482,2.218l-0.75,0.739
	c-0.868,0.856-0.256,2.333,0.963,2.325l1.053-0.008c1.497-0.011,1.907,2.053,0.52,2.616l-0.976,0.396
	c-1.13,0.458-1.13,2.058,0,2.516l0.976,0.396c1.387,0.563,0.976,2.627-0.52,2.616l-1.053-0.008
	c-1.219-0.009-1.831,1.469-0.963,2.325l0.75,0.739c1.066,1.051-0.103,2.8-1.482,2.218l-0.97-0.41
	c-1.123-0.475-2.254,0.656-1.779,1.779l0.41,0.97c0.583,1.379-1.167,2.548-2.218,1.482l-0.739-0.75
	c-0.856-0.868-2.333-0.256-2.325,0.963l0.008,1.053c0.011,1.497-2.053,1.907-2.616,0.52l-0.396-0.976
	c-0.458-1.13-2.058-1.13-2.516,0l-0.396,0.976c-0.563,1.387-2.627,0.976-2.616-0.52l0.008-1.053
	c0.009-1.219-1.469-1.831-2.325-0.963l-0.739,0.75c-1.051,1.066-2.8-0.103-2.218-1.482l0.41-0.97
	c0.475-1.123-0.656-2.254-1.779-1.779l-0.97,0.41c-1.379,0.583-2.548-1.167-1.482-2.218l0.75-0.739
	c0.868-0.856,0.256-2.333-0.963-2.325l-1.053,0.008c-1.497,0.011-1.907-2.053-0.52-2.616l0.976-0.396c1.13-0.458,1.13-2.058,0-2.516
	l-0.976-0.396c-1.387-0.563-0.976-2.627,0.52-2.616l1.053,0.008c1.219,0.009,1.831-1.469,0.963-2.325l-0.75-0.739
	c-1.066-1.051,0.103-2.8,1.482-2.218l0.97,0.41c1.123,0.475,2.254-0.656,1.779-1.779l-0.41-0.97
	c-0.583-1.379,1.167-2.548,2.218-1.482l0.739,0.75c0.856,0.868,2.333,0.256,2.325-0.963l-0.008-1.053
	c-0.011-1.497,2.053-1.907,2.616-0.52l0.396,0.976C227.2,62.954,228.8,62.954,229.258,61.825z"/>
<path style="fill:#404040;" d="M226.545,64.449l0.147-0.849c0.209-1.206,1.93-1.236,2.182-0.038l0.177,0.843
	c0.205,0.976,1.492,1.209,2.026,0.366l0.461-0.728c0.655-1.035,2.257-0.404,2.03,0.8l-0.159,0.847
	c-0.185,0.98,0.916,1.688,1.731,1.114l0.704-0.496c1.001-0.705,2.239,0.491,1.57,1.516l-0.471,0.721
	c-0.546,0.835,0.2,1.91,1.173,1.691l0.841-0.189c1.195-0.268,1.881,1.31,0.87,2.001l-0.711,0.486
	c-0.824,0.563-0.546,1.841,0.437,2.012l0.849,0.147c1.206,0.209,1.236,1.93,0.038,2.182l-0.843,0.177
	c-0.976,0.205-1.209,1.492-0.366,2.026l0.728,0.461c1.035,0.655,0.404,2.257-0.8,2.03l-0.847-0.159
	c-0.98-0.185-1.688,0.916-1.114,1.731l0.496,0.704c0.705,1.001-0.491,2.239-1.516,1.57l-0.721-0.471
	c-0.835-0.546-1.91,0.2-1.691,1.173l0.189,0.841c0.268,1.195-1.31,1.881-2.001,0.87l-0.486-0.711
	c-0.563-0.824-1.841-0.546-2.012,0.437l-0.147,0.849c-0.209,1.206-1.93,1.236-2.182,0.038l-0.177-0.843
	c-0.205-0.976-1.492-1.209-2.026-0.366l-0.461,0.728c-0.655,1.035-2.257,0.404-2.03-0.8l0.159-0.847
	c0.185-0.98-0.916-1.688-1.731-1.114l-0.704,0.496c-1.001,0.705-2.239-0.491-1.57-1.516l0.471-0.721
	c0.546-0.835-0.2-1.91-1.173-1.691l-0.841,0.189c-1.195,0.268-1.881-1.31-0.87-2.001l0.711-0.486
	c0.824-0.563,0.546-1.841-0.437-2.012l-0.849-0.147c-1.206-0.209-1.236-1.93-0.038-2.182l0.843-0.177
	c0.976-0.205,1.209-1.492,0.366-2.026l-0.728-0.461c-1.035-0.655-0.404-2.257,0.8-2.03l0.847,0.159
	c0.98,0.185,1.688-0.916,1.114-1.731l-0.496-0.704c-0.705-1.001,0.491-2.239,1.516-1.57l0.721,0.471
	c0.835,0.546,1.91-0.2,1.691-1.173l-0.189-0.841c-0.268-1.195,1.31-1.881,2.001-0.87l0.486,0.711
	C225.096,65.709,226.375,65.432,226.545,64.449z"/>
<circle style="fill:#D9D9D9;" cx="228" cy="76" r="8"/>
<polygon style="fill:#D9D9D9;" points="196,64 196,72 204,72 204,76 200,76 200,92 212,92 212,76 212,72 212,64 "/>
<rect x="200" y="68" style="fill:#BFBFBF;" width="8" height="4"/>
<rect x="200" y="76" style="fill:#BFBFBF;" width="8" height="4"/>
<rect x="200" y="84" style="fill:#BFBFBF;" width="8" height="4"/>
<path style="fill:#3096CF;" d="M163,88h-2c-0.552,0-1-0.448-1-1v-2c0-0.552,0.448-1,1-1h2c0.552,0,1,0.448,1,1v2
	C164,87.552,163.552,88,163,88z"/>
<path style="fill:#3096CF;" d="M183,132h-2c-0.552,0-1-0.448-1-1v-2c0-0.552,0.448-1,1-1h2c0.552,0,1,0.448,1,1v2
	C184,131.552,183.552,132,183,132z"/>
<path style="fill:#3096CF;" d="M183,128h-2c-0.552,0-1-0.448-1-1v-2c0-0.552,0.448-1,1-1h2c0.552,0,1,0.448,1,1v2
	C184,127.552,183.552,128,183,128z"/>
<rect x="236" y="136" style="fill:#BF9A57;" width="4" height="2"/>
<rect x="236" y="138" style="fill:#CCA37A;" width="4" height="2"/>
<rect x="236" y="142" style="fill:#CCA37A;" width="4" height="2"/>
<rect x="236" y="146" style="fill:#CCA37A;" width="4" height="2"/>
<rect x="236" y="150" style="fill:#CCA37A;" width="4" height="2"/>
<rect x="236" y="154" style="fill:#CCA37A;" width="4" height="2"/>
<rect x="236" y="158" style="fill:#CCA37A;" width="4" height="2"/>
<rect x="236" y="162" style="fill:#CCA37A;" width="4" height="2"/>
<rect x="236" y="166" style="fill:#CCA37A;" width="4" height="2"/>
<rect x="236" y="170" style="fill:#CCA37A;" width="4" height="2"/>
<rect x="236" y="174" style="fill:#CCA37A;" width="4" height="2"/>
<rect x="236" y="178" style="fill:#CCA37A;" width="4" height="2"/>
<rect x="236" y="182" style="fill:#CCA37A;" width="4" height="2"/>
<rect x="236" y="140" style="fill:#BF9A57;" width="4" height="2"/>
<rect x="236" y="144" style="fill:#BF9A57;" width="4" height="2"/>
<rect x="236" y="148" style="fill:#BF9A57;" width="4" height="2"/>
<rect x="236" y="152" style="fill:#BF9A57;" width="4" height="2"/>
<rect x="236" y="156" style="fill:#BF9A57;" width="4" height="2"/>
<rect x="236" y="160" style="fill:#BF9A57;" width="4" height="2"/>
<rect x="236" y="164" style="fill:#BF9A57;" width="4" height="2"/>
<rect x="236" y="168" style="fill:#BF9A57;" width="4" height="2"/>
<rect x="236" y="172" style="fill:#BF9A57;" width="4" height="2"/>
<rect x="236" y="176" style="fill:#BF9A57;" width="4" height="2"/>
<rect x="236" y="180" style="fill:#BF9A57;" width="4" height="2"/>
<rect x="236" y="184" style="fill:#BF9A57;" width="4" height="2"/>
<rect x="228" y="132" style="fill:#16A085;" width="8" height="56"/>
<rect x="196" y="132" style="fill:#2C8BBF;" width="36" height="4"/>
<rect x="230" y="136" style="fill:#0E6654;" width="4" height="48"/>
<rect x="230" y="138" style="fill:#BF9A57;" width="4" height="2"/>
<rect x="230" y="142" style="fill:#BF9A57;" width="4" height="2"/>
<rect x="230" y="146" style="fill:#BF9A57;" width="4" height="2"/>
<rect x="230" y="150" style="fill:#BF9A57;" width="4" height="2"/>
<rect x="230" y="154" style="fill:#BF9A57;" width="4" height="2"/>
<rect x="230" y="158" style="fill:#BF9A57;" width="4" height="2"/>
<rect x="230" y="162" style="fill:#BF9A57;" width="4" height="2"/>
<rect x="230" y="166" style="fill:#BF9A57;" width="4" height="2"/>
<rect x="230" y="170" style="fill:#BF9A57;" width="4" height="2"/>
<rect x="230" y="174" style="fill:#BF9A57;" width="4" height="2"/>
<rect x="230" y="178" style="fill:#BF9A57;" width="4" height="2"/>
<rect x="230" y="182" style="fill:#BF9A57;" width="4" height="2"/>
<path style="fill:#7B0000;" d="M63,96h-2c-0.552,0-1-0.448-1-1v-2c0-0.552,0.448-1,1-1h2c0.552,0,1,0.448,1,1v2
	C64,95.552,63.552,96,63,96z"/>
<path style="fill:#7B0000;" d="M35,116h-2c-0.552,0-1-0.448-1-1v-2c0-0.552,0.448-1,1-1h2c0.552,0,1,0.448,1,1v2
	C36,115.552,35.552,116,35,116z"/>
<path style="fill:#7B0000;" d="M35,120h-2c-0.552,0-1-0.448-1-1v-2c0-0.552,0.448-1,1-1h2c0.552,0,1,0.448,1,1v2
	C36,119.552,35.552,120,35,120z"/>
<path style="fill:#7B0000;" d="M123,120h-2c-0.552,0-1-0.448-1-1v-2c0-0.552,0.448-1,1-1h2c0.552,0,1,0.448,1,1v2
	C124,119.552,123.552,120,123,120z"/>
<path style="fill:#7B0000;" d="M107,168h-2c-0.552,0-1-0.448-1-1v-2c0-0.552,0.448-1,1-1h2c0.552,0,1,0.448,1,1v2
	C108,167.552,107.552,168,107,168z"/>
<path style="fill:#7B0000;" d="M75,180h-2c-0.552,0-1-0.448-1-1v-2c0-0.552,0.448-1,1-1h2c0.552,0,1,0.448,1,1v2
	C76,179.552,75.552,180,75,180z"/>
<path style="fill:#7B0000;" d="M51,152h-2c-0.552,0-1-0.448-1-1v-2c0-0.552,0.448-1,1-1h2c0.552,0,1,0.448,1,1v2
	C52,151.552,51.552,152,51,152z"/>
<path style="fill:#7B0000;" d="M39,152h-2c-0.552,0-1-0.448-1-1v-2c0-0.552,0.448-1,1-1h2c0.552,0,1,0.448,1,1v2
	C40,151.552,39.552,152,39,152z"/>
<path style="fill:#7B0000;" d="M143,124h-2c-0.552,0-1-0.448-1-1v-2c0-0.552,0.448-1,1-1h2c0.552,0,1,0.448,1,1v2
	C144,123.552,143.552,124,143,124z"/>
<path style="fill:#7B0000;" d="M159,96h-2c-0.552,0-1-0.448-1-1v-2c0-0.552,0.448-1,1-1h2c0.552,0,1,0.448,1,1v2
	C160,95.552,159.552,96,159,96z"/>
<path style="fill:#7B0000;" d="M187,104h-2c-0.552,0-1-0.448-1-1v-2c0-0.552,0.448-1,1-1h2c0.552,0,1,0.448,1,1v2
	C188,103.552,187.552,104,187,104z"/>
<path style="fill:#7B0000;" d="M35,124h-2c-0.552,0-1-0.448-1-1v-2c0-0.552,0.448-1,1-1h2c0.552,0,1,0.448,1,1v2
	C36,123.552,35.552,124,35,124z"/>
<path style="fill:#7B0000;" d="M75,96h-2c-0.552,0-1-0.448-1-1v-2c0-0.552,0.448-1,1-1h2c0.552,0,1,0.448,1,1v2
	C76,95.552,75.552,96,75,96z"/>
<path style="fill:#7B0000;" d="M31,84h-2c-0.552,0-1-0.448-1-1v-2c0-0.552,0.448-1,1-1h2c0.552,0,1,0.448,1,1v2
	C32,83.552,31.552,84,31,84z"/>
<path style="fill:#7B0000;" d="M23,84h-2c-0.552,0-1-0.448-1-1v-2c0-0.552,0.448-1,1-1h2c0.552,0,1,0.448,1,1v2
	C24,83.552,23.552,84,23,84z"/>
<rect x="212" y="92" style="fill:#D9D9D9;" width="4" height="4"/>
<rect x="220" y="92" style="fill:#D9D9D9;" width="16" height="4"/>
<rect x="232" y="100" style="fill:#D9D9D9;" width="4" height="4"/>
<circle style="fill:#BFBFBF;" cx="234" cy="98" r="2"/>
<circle style="fill:#BFBFBF;" cx="222" cy="98" r="2"/>
<circle style="fill:#BFBFBF;" cx="228" cy="98" r="2"/>
</svg>
