<?xml version="1.0" encoding="iso-8859-1"?>
<!-- Generator: Adobe Illustrator 27.8.1, SVG Export Plug-In . SVG Version: 6.00 Build 0)  -->
<svg version="1.1" id="Layer_1" xmlns="http://www.w3.org/2000/svg" xmlns:xlink="http://www.w3.org/1999/xlink" x="0px" y="0px"
	 viewBox="0 0 256 256" style="enable-background:new 0 0 256 256;" xml:space="preserve">
<path style="opacity:0.5;fill:#FFFFFF;" d="M232,112h-4V14c0-5.514-4.486-10-10-10H42c-5.514,0-10,4.486-10,10v98h-8
	c-6.617,0-12,5.383-12,12v8v4v64v4.944l4.422,2.211L44,220.944V226c0,3.265,1.572,6.169,4,7.995V242c0,5.514,4.486,10,10,10h140
	c5.514,0,10-4.486,10-10v-8.005c2.428-1.826,4-4.73,4-7.995v-5.056l27.578-13.789l4.422-2.211V200v-64v-4v-8
	C244,117.383,238.617,112,232,112z"/>
<path style="fill:#BFBFBF;" d="M200,224H56v18c0,1.105,0.895,2,2,2h140c1.105,0,2-0.895,2-2V224z"/>
<path style="fill:#CCCCCC;" d="M202,228H54c-1.105,0-2-0.895-2-2v-14h152v14C204,227.105,203.105,228,202,228z"/>
<path style="fill:#D9D9D9;" d="M220,128H40V14c0-1.105,0.895-2,2-2h176c1.105,0,2,0.895,2,2V128z"/>
<rect x="42" y="16" style="fill:#A6A6A6;" width="2" height="112"/>
<rect x="46" y="16" style="fill:#A6A6A6;" width="2" height="112"/>
<rect x="50" y="16" style="fill:#A6A6A6;" width="2" height="112"/>
<rect x="54" y="16" style="fill:#A6A6A6;" width="2" height="112"/>
<rect x="58" y="16" style="fill:#A6A6A6;" width="2" height="112"/>
<rect x="62" y="16" style="fill:#A6A6A6;" width="2" height="112"/>
<rect x="66" y="16" style="fill:#A6A6A6;" width="2" height="112"/>
<rect x="70" y="16" style="fill:#A6A6A6;" width="2" height="112"/>
<rect x="74" y="16" style="fill:#A6A6A6;" width="2" height="112"/>
<rect x="78" y="16" style="fill:#A6A6A6;" width="2" height="112"/>
<rect x="82" y="16" style="fill:#A6A6A6;" width="2" height="112"/>
<rect x="86" y="16" style="fill:#A6A6A6;" width="2" height="112"/>
<rect x="90" y="16" style="fill:#A6A6A6;" width="2" height="112"/>
<rect x="94" y="16" style="fill:#A6A6A6;" width="2" height="112"/>
<rect x="98" y="16" style="fill:#A6A6A6;" width="2" height="112"/>
<rect x="102" y="16" style="fill:#A6A6A6;" width="2" height="112"/>
<rect x="106" y="16" style="fill:#A6A6A6;" width="2" height="112"/>
<rect x="110" y="16" style="fill:#A6A6A6;" width="2" height="112"/>
<rect x="114" y="16" style="fill:#A6A6A6;" width="2" height="112"/>
<rect x="118" y="16" style="fill:#A6A6A6;" width="2" height="112"/>
<rect x="122" y="16" style="fill:#A6A6A6;" width="2" height="112"/>
<rect x="126" y="16" style="fill:#A6A6A6;" width="2" height="112"/>
<rect x="130" y="16" style="fill:#A6A6A6;" width="2" height="112"/>
<rect x="134" y="16" style="fill:#A6A6A6;" width="2" height="112"/>
<rect x="138" y="16" style="fill:#A6A6A6;" width="2" height="112"/>
<rect x="142" y="16" style="fill:#A6A6A6;" width="2" height="112"/>
<rect x="146" y="16" style="fill:#A6A6A6;" width="2" height="112"/>
<rect x="150" y="16" style="fill:#A6A6A6;" width="2" height="112"/>
<rect x="154" y="16" style="fill:#A6A6A6;" width="2" height="112"/>
<rect x="158" y="16" style="fill:#A6A6A6;" width="2" height="112"/>
<rect x="162" y="16" style="fill:#A6A6A6;" width="2" height="112"/>
<rect x="166" y="16" style="fill:#A6A6A6;" width="2" height="112"/>
<rect x="170" y="16" style="fill:#A6A6A6;" width="2" height="112"/>
<rect x="174" y="16" style="fill:#A6A6A6;" width="2" height="112"/>
<rect x="178" y="16" style="fill:#A6A6A6;" width="2" height="112"/>
<rect x="182" y="16" style="fill:#A6A6A6;" width="2" height="112"/>
<rect x="186" y="16" style="fill:#A6A6A6;" width="2" height="112"/>
<rect x="190" y="16" style="fill:#A6A6A6;" width="2" height="112"/>
<rect x="194" y="16" style="fill:#A6A6A6;" width="2" height="112"/>
<rect x="198" y="16" style="fill:#A6A6A6;" width="2" height="112"/>
<rect x="202" y="16" style="fill:#A6A6A6;" width="2" height="112"/>
<rect x="206" y="16" style="fill:#A6A6A6;" width="2" height="112"/>
<rect x="210" y="16" style="fill:#A6A6A6;" width="2" height="112"/>
<rect x="214" y="16" style="fill:#A6A6A6;" width="2" height="112"/>
<path style="fill:#E6E6E6;" d="M236,200H20v-76c0-2.209,1.791-4,4-4h208c2.209,0,4,1.791,4,4V200z"/>
<rect x="20" y="132" style="fill:#A6A6A6;" width="216" height="4"/>
<polygon style="fill:#D9D9D9;" points="204,216 52,216 20,200 236,200 "/>
<polygon style="fill:#A6A6A6;" points="196,212 60,212 52,204 204,204 "/>
<path d="M56,204l4,4c0,2.209,30.445,4,68,4s68-1.791,68-4l4-4H56z"/>
<polygon style="fill:#00FF00;" points="189,240 187,240 190,232 192,232 "/>
</svg>
