<svg xmlns="http://www.w3.org/2000/svg" xml:space="preserve" viewBox="0 0 256 256"><path d="M244 52h-40v4H4v144h236v-4h8v-62a9.99 9.99 0 0 0-4.006-8 9.99 9.99 0 0 0 4.006-8v-18h4V52z" style="opacity:.5;fill:#fff"/><path d="M240 118V64H12v128h220v-4h8v-54a2 2 0 0 0-2-2h-4a2 2 0 0 1-2-2v-8a2 2 0 0 1 2-2h4a2 2 0 0 0 2-2" style="fill:#1abf9f"/><path d="M196 104h36v8h-36z" style="fill:#3096cf"/><path d="M196 112h36v4h-36z" style="fill:#2c8bbf"/><path d="M196 100h36v4h-36z" style="fill:#9bc2dd"/><path d="M156 68h40v8h-40z" style="fill:#3096cf"/><path d="M156 76h40v4h-40z" style="fill:#2c8bbf"/><path d="M156 64h40v4h-40z" style="fill:#9bc2dd"/><path d="M196 124h36v8h-36z" style="fill:#3096cf"/><path d="M196 120h36v4h-36z" style="fill:#9bc2dd"/><path d="M16 64h12v8H16zm220 40h4v12h-4z" style="fill:#e6e6e6"/><path d="M28 88h20v8H28zm16 24h4v12h-4zm20 28h4v12h-4zm12 0h4v12h-4zm12 0h4v12h-4zm12 0h4v12h-4zM56 84h4v12h-4zm12 0h4v12h-4z" style="fill:#8c8c8c"/><path d="M76 84h4v12h-4zm-56 0h4v12h-4zm0 28h4v12h-4zm0 28h4v12h-4zm0 28h4v12h-4zm8 0h4v12h-4zm84 0h4v12h-4zm12 0h4v12h-4zm12 0h4v12h-4zm12 0h4v12h-4zm12 0h4v12h-4zm12 0h4v12h-4zm12 0h4v12h-4zm12 0h4v12h-4zm12 0h4v12h-4zm12 0h4v12h-4zM32 140h4v12h-4zm12 0h4v12h-4zm12 0h4v12h-4zm80 0h4v12h-4zm12 0h4v12h-4zm12 0h4v12h-4zm12 0h4v12h-4zm12 0h4v12h-4zm12 0h4v12h-4zm12 0h4v12h-4zm12 0h4v12h-4zM56 112h4v12h-4zm12 0h4v12h-4zm8 0h4v12h-4zm12 0h4v12h-4zm24 0h4v12h-4zm12 0h4v12h-4zm12 0h4v12h-4zm12 0h4v12h-4zm12 0h4v12h-4zm12 0h4v12h-4zm12 0h4v12h-4z" style="fill:#4d4d4d"/><path d="M100 112h4v12h-4z" style="fill:#8c8c8c"/><path d="M88 84h4v12h-4zm12 0h4v12h-4zm12 0h4v12h-4zm12 4h4v8h-4zm12-4h4v12h-4zm12 4h4v8h-4zm12 4h4v4h-4zm12-8h4v12h-4zm12 0h4v12h-4zm-72 56h20v8h-20zm-72 32h32v8H40z" style="fill:#4d4d4d"/><path d="M76 172h32v8H76z" style="fill:#e6e6e6"/><ellipse cx="206" cy="172" rx="2" ry="4" style="fill:#e77f22"/><ellipse cx="226" cy="172" rx="2" ry="4" style="fill:#e77f22"/><ellipse cx="202" cy="144" rx="2" ry="4" style="fill:#e77f22"/><ellipse cx="182" cy="140" rx="2" ry="4" style="fill:#e77f22"/><ellipse cx="182" cy="172" rx="2" ry="4" style="fill:#e77f22"/><ellipse cx="158" cy="140" rx="2" ry="4" style="fill:#e77f22"/><ellipse cx="158" cy="172" rx="2" ry="4" style="fill:#e77f22"/><ellipse cx="110" cy="176" rx="2" ry="4" style="fill:#e77f22"/><ellipse cx="106" cy="144" rx="2" ry="4" style="fill:#e77f22"/><ellipse cx="50" cy="140" rx="2" ry="4" style="fill:#e77f22"/><ellipse cx="110" cy="116" rx="2" ry="4" style="fill:#e77f22"/><ellipse cx="134" cy="112" rx="2" ry="4" style="fill:#e77f22"/><ellipse cx="130" cy="116" rx="2" ry="4" style="fill:#e77f22"/><ellipse cx="142" cy="112" rx="2" ry="4" style="fill:#e77f22"/><ellipse cx="154" cy="92" rx="2" ry="4" style="fill:#e77f22"/><ellipse cx="146" cy="116" rx="2" ry="4" style="fill:#e77f22"/><ellipse cx="194" cy="120" rx="2" ry="4" style="fill:#e77f22"/><ellipse cx="194" cy="92" rx="2" ry="4" style="fill:#e77f22"/><ellipse cx="110" cy="92" rx="2" ry="4" style="fill:#e77f22"/><ellipse cx="150" cy="78" rx="4" ry="2" style="fill:#e77f22"/><ellipse cx="168" cy="136" rx="4" ry="2" style="fill:#e77f22"/><ellipse cx="226" cy="144" rx="2" ry="4" style="fill:#e77f22"/><path d="M212 60h32v32h-32z" style="fill:#4d4d4d"/><path d="m229.258 61.825.396-.976c.563-1.387 2.627-.976 2.616.52l-.008 1.053c-.009 1.219 1.469 1.831 2.325.963l.739-.75c1.051-1.066 2.8.103 2.218 1.482l-.41.97c-.475 1.123.656 2.254 1.779 1.779l.97-.41c1.379-.583 2.548 1.167 1.482 2.218l-.75.739c-.868.856-.256 2.333.963 2.325l1.053-.008c1.497-.011 1.907 2.053.52 2.616l-.976.396c-1.13.458-1.13 2.058 0 2.516l.976.396c1.387.563.976 2.627-.52 2.616l-1.053-.008c-1.219-.009-1.831 1.469-.963 2.325l.75.739c1.066 1.051-.103 2.8-1.482 2.218l-.97-.41c-1.123-.475-2.254.656-1.779 1.779l.41.97c.583 1.379-1.167 2.548-2.218 1.482l-.739-.75c-.856-.868-2.333-.256-2.325.963l.008 1.053c.011 1.497-2.053 1.907-2.616.52l-.396-.976c-.458-1.13-2.058-1.13-2.516 0l-.396.976c-.563 1.387-2.627.976-2.616-.52l.008-1.053c.009-1.219-1.469-1.831-2.325-.963l-.739.75c-1.051 1.066-2.8-.103-2.218-1.482l.41-.97c.475-1.123-.656-2.254-1.779-1.779l-.97.41c-1.379.583-2.548-1.167-1.482-2.218l.75-.739c.868-.856.256-2.333-.963-2.325l-1.053.008c-1.497.011-1.907-2.053-.52-2.616l.976-.396c1.13-.458 1.13-2.058 0-2.516l-.976-.396c-1.387-.563-.976-2.627.52-2.616l1.053.008c1.219.009 1.831-1.469.963-2.325l-.75-.739c-1.066-1.051.103-2.8 1.482-2.218l.97.41c1.123.475 2.254-.656 1.779-1.779l-.41-.97c-.583-1.379 1.167-2.548 2.218-1.482l.739.75c.856.868 2.333.256 2.325-.963l-.008-1.053c-.011-1.497 2.053-1.907 2.616-.52l.396.976c.458 1.129 2.058 1.129 2.516 0" style="fill:#666"/><path d="m226.545 64.449.147-.849c.209-1.206 1.93-1.236 2.182-.038l.177.843c.205.976 1.492 1.209 2.026.366l.461-.728c.655-1.035 2.257-.404 2.03.8l-.159.847c-.185.98.916 1.688 1.731 1.114l.704-.496c1.001-.705 2.239.491 1.57 1.516l-.471.721c-.546.835.2 1.91 1.173 1.691l.841-.189c1.195-.268 1.881 1.31.87 2.001l-.711.486c-.824.563-.546 1.841.437 2.012l.849.147c1.206.209 1.236 1.93.038 2.182l-.843.177c-.976.205-1.209 1.492-.366 2.026l.728.461c1.035.655.404 2.257-.8 2.03l-.847-.159c-.98-.185-1.688.916-1.114 1.731l.496.704c.705 1.001-.491 2.239-1.516 1.57l-.721-.471c-.835-.546-1.91.2-1.691 1.173l.189.841c.268 1.195-1.31 1.881-2.001.87l-.486-.711c-.563-.824-1.841-.546-2.012.437l-.147.849c-.209 1.206-1.93 1.236-2.182.038l-.177-.843c-.205-.976-1.492-1.209-2.026-.366l-.461.728c-.655 1.035-2.257.404-2.03-.8l.159-.847c.185-.98-.916-1.688-1.731-1.114l-.704.496c-1.001.705-2.239-.491-1.57-1.516l.471-.721c.546-.835-.2-1.91-1.173-1.691l-.841.189c-1.195.268-1.881-1.31-.87-2.001l.711-.486c.824-.563.546-1.841-.437-2.012l-.849-.147c-1.206-.209-1.236-1.93-.038-2.182l.843-.177c.976-.205 1.209-1.492.366-2.026l-.728-.461c-1.035-.655-.404-2.257.8-2.03l.847.159c.98.185 1.688-.916 1.114-1.731l-.496-.704c-.705-1.001.491-2.239 1.516-1.57l.721.471c.835.546 1.91-.2 1.691-1.173l-.189-.841c-.268-1.195 1.31-1.881 2.001-.87l.486.711c.563.823 1.842.546 2.012-.437" style="fill:#404040"/><circle cx="228" cy="76" r="8" style="fill:#d9d9d9"/><path d="M196 64v8h8v4h-4v16h12V64z" style="fill:#d9d9d9"/><path d="M200 68h8v4h-8zm0 8h8v4h-8zm0 8h8v4h-8z" style="fill:#bfbfbf"/><path d="M163 88h-2a1 1 0 0 1-1-1v-2a1 1 0 0 1 1-1h2a1 1 0 0 1 1 1v2a1 1 0 0 1-1 1m20 44h-2a1 1 0 0 1-1-1v-2a1 1 0 0 1 1-1h2a1 1 0 0 1 1 1v2a1 1 0 0 1-1 1m0-4h-2a1 1 0 0 1-1-1v-2a1 1 0 0 1 1-1h2a1 1 0 0 1 1 1v2a1 1 0 0 1-1 1" style="fill:#3096cf"/><path d="M236 136h4v2h-4z" style="fill:#bf9a57"/><path d="M236 138h4v2h-4zm0 4h4v2h-4zm0 4h4v2h-4zm0 4h4v2h-4zm0 4h4v2h-4zm0 4h4v2h-4zm0 4h4v2h-4zm0 4h4v2h-4zm0 4h4v2h-4zm0 4h4v2h-4zm0 4h4v2h-4zm0 4h4v2h-4z" style="fill:#cca37a"/><path d="M236 140h4v2h-4zm0 4h4v2h-4zm0 4h4v2h-4zm0 4h4v2h-4zm0 4h4v2h-4zm0 4h4v2h-4zm0 4h4v2h-4zm0 4h4v2h-4zm0 4h4v2h-4zm0 4h4v2h-4zm0 4h4v2h-4zm0 4h4v2h-4z" style="fill:#bf9a57"/><path d="M228 132h8v56h-8z" style="fill:#16a085"/><path d="M196 132h36v4h-36z" style="fill:#2c8bbf"/><path d="M230 136h4v48h-4z" style="fill:#0e6654"/><path d="M230 138h4v2h-4zm0 4h4v2h-4zm0 4h4v2h-4zm0 4h4v2h-4zm0 4h4v2h-4zm0 4h4v2h-4zm0 4h4v2h-4zm0 4h4v2h-4zm0 4h4v2h-4zm0 4h4v2h-4zm0 4h4v2h-4zm0 4h4v2h-4z" style="fill:#bf9a57"/><path d="M63 96h-2a1 1 0 0 1-1-1v-2a1 1 0 0 1 1-1h2a1 1 0 0 1 1 1v2a1 1 0 0 1-1 1m-28 20h-2a1 1 0 0 1-1-1v-2a1 1 0 0 1 1-1h2a1 1 0 0 1 1 1v2a1 1 0 0 1-1 1m0 4h-2a1 1 0 0 1-1-1v-2a1 1 0 0 1 1-1h2a1 1 0 0 1 1 1v2a1 1 0 0 1-1 1m88 0h-2a1 1 0 0 1-1-1v-2a1 1 0 0 1 1-1h2a1 1 0 0 1 1 1v2a1 1 0 0 1-1 1m-16 48h-2a1 1 0 0 1-1-1v-2a1 1 0 0 1 1-1h2a1 1 0 0 1 1 1v2a1 1 0 0 1-1 1m-32 12h-2a1 1 0 0 1-1-1v-2a1 1 0 0 1 1-1h2a1 1 0 0 1 1 1v2a1 1 0 0 1-1 1m-24-28h-2a1 1 0 0 1-1-1v-2a1 1 0 0 1 1-1h2a1 1 0 0 1 1 1v2a1 1 0 0 1-1 1m-12 0h-2a1 1 0 0 1-1-1v-2a1 1 0 0 1 1-1h2a1 1 0 0 1 1 1v2a1 1 0 0 1-1 1m104-28h-2a1 1 0 0 1-1-1v-2a1 1 0 0 1 1-1h2a1 1 0 0 1 1 1v2a1 1 0 0 1-1 1m16-28h-2a1 1 0 0 1-1-1v-2a1 1 0 0 1 1-1h2a1 1 0 0 1 1 1v2a1 1 0 0 1-1 1m28 8h-2a1 1 0 0 1-1-1v-2a1 1 0 0 1 1-1h2a1 1 0 0 1 1 1v2a1 1 0 0 1-1 1M35 124h-2a1 1 0 0 1-1-1v-2a1 1 0 0 1 1-1h2a1 1 0 0 1 1 1v2a1 1 0 0 1-1 1m40-28h-2a1 1 0 0 1-1-1v-2a1 1 0 0 1 1-1h2a1 1 0 0 1 1 1v2a1 1 0 0 1-1 1M31 84h-2a1 1 0 0 1-1-1v-2a1 1 0 0 1 1-1h2a1 1 0 0 1 1 1v2a1 1 0 0 1-1 1m-8 0h-2a1 1 0 0 1-1-1v-2a1 1 0 0 1 1-1h2a1 1 0 0 1 1 1v2a1 1 0 0 1-1 1" style="fill:#7b0000"/><path d="M212 92h4v4h-4zm8 0h16v4h-16zm12 8h4v4h-4z" style="fill:#d9d9d9"/><circle cx="234" cy="98" r="2" style="fill:#bfbfbf"/><circle cx="222" cy="98" r="2" style="fill:#bfbfbf"/><circle cx="228" cy="98" r="2" style="fill:#bfbfbf"/></svg>