<svg xmlns="http://www.w3.org/2000/svg" xml:space="preserve" viewBox="0 0 256 256"><path d="M232 112h-4V14c0-5.514-4.486-10-10-10H42c-5.514 0-10 4.486-10 10v98h-8c-6.617 0-12 5.383-12 12v80.944l4.422 2.211L44 220.944V226a9.99 9.99 0 0 0 4 7.995V242c0 5.514 4.486 10 10 10h140c5.514 0 10-4.486 10-10v-8.005a9.99 9.99 0 0 0 4-7.995v-5.056l27.578-13.789 4.422-2.211V124c0-6.617-5.383-12-12-12" style="opacity:.5;fill:#fff"/><path d="M200 224H56v18a2 2 0 0 0 2 2h140a2 2 0 0 0 2-2z" style="fill:#bfbfbf"/><path d="M202 228H54a2 2 0 0 1-2-2v-14h152v14a2 2 0 0 1-2 2" style="fill:#ccc"/><path d="M220 128H40V14a2 2 0 0 1 2-2h176a2 2 0 0 1 2 2z" style="fill:#d9d9d9"/><path d="M42 16h2v112h-2zm4 0h2v112h-2zm4 0h2v112h-2zm4 0h2v112h-2zm4 0h2v112h-2zm4 0h2v112h-2zm4 0h2v112h-2zm4 0h2v112h-2zm4 0h2v112h-2zm4 0h2v112h-2zm4 0h2v112h-2zm4 0h2v112h-2zm4 0h2v112h-2zm4 0h2v112h-2zm4 0h2v112h-2zm4 0h2v112h-2zm4 0h2v112h-2zm4 0h2v112h-2zm4 0h2v112h-2zm4 0h2v112h-2zm4 0h2v112h-2zm4 0h2v112h-2zm4 0h2v112h-2zm4 0h2v112h-2zm4 0h2v112h-2zm4 0h2v112h-2zm4 0h2v112h-2zm4 0h2v112h-2zm4 0h2v112h-2zm4 0h2v112h-2zm4 0h2v112h-2zm4 0h2v112h-2zm4 0h2v112h-2zm4 0h2v112h-2zm4 0h2v112h-2zm4 0h2v112h-2zm4 0h2v112h-2zm4 0h2v112h-2zm4 0h2v112h-2zm4 0h2v112h-2zm4 0h2v112h-2zm4 0h2v112h-2zm4 0h2v112h-2zm4 0h2v112h-2z" style="fill:#a6a6a6"/><path d="M236 200H20v-76a4 4 0 0 1 4-4h208a4 4 0 0 1 4 4z" style="fill:#e6e6e6"/><path d="M20 132h216v4H20z" style="fill:#a6a6a6"/><path d="M204 216H52l-32-16h216z" style="fill:#d9d9d9"/><path d="M196 212H60l-8-8h152z" style="fill:#a6a6a6"/><path d="m56 204 4 4c0 2.209 30.445 4 68 4s68-1.791 68-4l4-4z"/><path d="M189 240h-2l3-8h2z" style="fill:#0f0"/></svg>