<?xml version="1.0" encoding="iso-8859-1"?>
<!-- Generator: Adobe Illustrator 27.8.1, SVG Export Plug-In . SVG Version: 6.00 Build 0)  -->
<svg version="1.1" id="Layer_1" xmlns="http://www.w3.org/2000/svg" xmlns:xlink="http://www.w3.org/1999/xlink" x="0px" y="0px"
	 viewBox="0 0 256 256" style="enable-background:new 0 0 256 256;" xml:space="preserve">
<path style="opacity:0.5;fill:#FFFFFF;" d="M220,4h-12h-2H50h-2H36c-8.822,0-16,7.178-16,16v4v4v4v4v4v4v4v4v4v4v4v4v4v4v4v4v4v4v4
	v4v4v4v4v4v32v0.182l0.008,0.182l0.896,19.704c-0.515,1.472-0.744,3.037-0.657,4.598l3.556,64C24.156,243.021,29.419,248,35.784,248
	H36h184h0.216c6.366,0,11.628-4.979,11.982-11.334l3.556-64c0.087-1.561-0.142-3.126-0.657-4.598l0.896-19.704l0.008-0.182V148v-32
	v-4v-4v-4v-4v-4v-4v-4v-4v-4v-4v-4v-4v-4v-4v-4v-4v-4v-4v-4v-4v-4v-4v-4v-4C236,11.178,228.822,4,220,4z"/>
<path style="fill:#C4C0AA;" d="M220,240H36c-2.209,0-4-1.791-4-4l-4-88h200l-4,88C224,238.209,222.209,240,220,240z"/>
<path style="fill:#D9D4BC;" d="M220,156H36c-4.418,0-8-3.582-8-8v-32h200v32C228,152.418,224.418,156,220,156z"/>
<path style="fill:#C4C0AA;" d="M228,116H28V20c0-4.418,3.582-8,8-8h184c4.418,0,8,3.582,8,8V116z"/>
<path style="fill:#D9D4BC;" d="M212,108H44c-2.209,0-4-1.791-4-4V24c0-2.209,1.791-4,4-4h168c2.209,0,4,1.791,4,4v80
	C216,106.209,214.209,108,212,108z"/>
<rect x="48" y="12" style="fill:#A6A390;" width="2" height="144"/>
<rect x="206" y="12" style="fill:#A6A390;" width="2" height="144"/>
<path style="fill:#A6A390;" d="M34,24h-6v-4h6c1.105,0,2,0.895,2,2v0C36,23.105,35.105,24,34,24z"/>
<path style="fill:#A6A390;" d="M34,32h-6v-4h6c1.105,0,2,0.895,2,2v0C36,31.105,35.105,32,34,32z"/>
<path style="fill:#A6A390;" d="M34,40h-6v-4h6c1.105,0,2,0.895,2,2v0C36,39.105,35.105,40,34,40z"/>
<path style="fill:#A6A390;" d="M34,48h-6v-4h6c1.105,0,2,0.895,2,2v0C36,47.105,35.105,48,34,48z"/>
<path style="fill:#A6A390;" d="M34,56h-6v-4h6c1.105,0,2,0.895,2,2v0C36,55.105,35.105,56,34,56z"/>
<path style="fill:#A6A390;" d="M34,64h-6v-4h6c1.105,0,2,0.895,2,2v0C36,63.105,35.105,64,34,64z"/>
<path style="fill:#A6A390;" d="M34,72h-6v-4h6c1.105,0,2,0.895,2,2l0,0C36,71.105,35.105,72,34,72z"/>
<path style="fill:#A6A390;" d="M34,80h-6v-4h6c1.105,0,2,0.895,2,2l0,0C36,79.105,35.105,80,34,80z"/>
<path style="fill:#A6A390;" d="M34,88h-6v-4h6c1.105,0,2,0.895,2,2l0,0C36,87.105,35.105,88,34,88z"/>
<path style="fill:#A6A390;" d="M34,96h-6v-4h6c1.105,0,2,0.895,2,2l0,0C36,95.105,35.105,96,34,96z"/>
<path style="fill:#A6A390;" d="M34,104h-6v-4h6c1.105,0,2,0.895,2,2l0,0C36,103.105,35.105,104,34,104z"/>
<path style="fill:#A6A390;" d="M34,112h-6v-4h6c1.105,0,2,0.895,2,2l0,0C36,111.105,35.105,112,34,112z"/>
<path style="fill:#A6A390;" d="M222,24h6v-4h-6c-1.105,0-2,0.895-2,2v0C220,23.105,220.895,24,222,24z"/>
<path style="fill:#A6A390;" d="M222,32h6v-4h-6c-1.105,0-2,0.895-2,2v0C220,31.105,220.895,32,222,32z"/>
<path style="fill:#A6A390;" d="M222,40h6v-4h-6c-1.105,0-2,0.895-2,2v0C220,39.105,220.895,40,222,40z"/>
<path style="fill:#A6A390;" d="M222,48h6v-4h-6c-1.105,0-2,0.895-2,2v0C220,47.105,220.895,48,222,48z"/>
<path style="fill:#A6A390;" d="M222,56h6v-4h-6c-1.105,0-2,0.895-2,2v0C220,55.105,220.895,56,222,56z"/>
<path style="fill:#A6A390;" d="M222,64h6v-4h-6c-1.105,0-2,0.895-2,2v0C220,63.105,220.895,64,222,64z"/>
<path style="fill:#A6A390;" d="M222,72h6v-4h-6c-1.105,0-2,0.895-2,2l0,0C220,71.105,220.895,72,222,72z"/>
<path style="fill:#A6A390;" d="M222,80h6v-4h-6c-1.105,0-2,0.895-2,2l0,0C220,79.105,220.895,80,222,80z"/>
<path style="fill:#A6A390;" d="M222,88h6v-4h-6c-1.105,0-2,0.895-2,2l0,0C220,87.105,220.895,88,222,88z"/>
<path style="fill:#A6A390;" d="M222,96h6v-4h-6c-1.105,0-2,0.895-2,2l0,0C220,95.105,220.895,96,222,96z"/>
<path style="fill:#A6A390;" d="M222,104h6v-4h-6c-1.105,0-2,0.895-2,2l0,0C220,103.105,220.895,104,222,104z"/>
<path style="fill:#A6A390;" d="M222,112h6v-4h-6c-1.105,0-2,0.895-2,2l0,0C220,111.105,220.895,112,222,112z"/>
<path style="fill:#A6A390;" d="M150,152h-44c-1.105,0-2-0.895-2-2v-12c0-1.105,0.895-2,2-2h44c1.105,0,2,0.895,2,2v12
	C152,151.105,151.105,152,150,152z"/>
<rect x="52" y="160" style="fill:#A6A390;" width="2" height="8"/>
<rect x="202" y="160" style="fill:#A6A390;" width="2" height="8"/>
<polygon style="fill:#8C8C8C;" points="48,156 52,160 54,160 50,156 "/>
<polygon style="fill:#8C8C8C;" points="202,160 206,156 208,156 204,160 "/>
<path style="fill:#D9D4BC;" d="M220.216,240H35.784c-2.123,0-3.876-1.658-3.994-3.778l-3.556-64
	c-0.127-2.293,1.698-4.222,3.994-4.222h191.543c2.296,0,4.121,1.929,3.994,4.222l-3.556,64C224.092,238.342,222.339,240,220.216,240
	z"/>
<path style="fill:#C4C0AA;" d="M212,232H44c-2.209,0-4-1.791-4-4v-44c0-2.209,1.791-4,4-4h168c2.209,0,4,1.791,4,4v44
	C216,230.209,214.209,232,212,232z"/>
<rect x="56" y="184" style="fill:#404040;" width="144" height="36"/>
<rect x="56" y="184" style="fill:#595959;" width="8" height="8"/>
<rect x="56" y="196" style="fill:#595959;" width="12" height="8"/>
<rect x="56" y="208" style="fill:#595959;" width="16" height="8"/>
<rect x="96" y="220" style="fill:#595959;" width="56" height="8"/>
<rect x="68" y="184" style="fill:#595959;" width="8" height="8"/>
<rect x="72" y="196" style="fill:#595959;" width="8" height="8"/>
<rect x="76" y="208" style="fill:#595959;" width="8" height="8"/>
<rect x="88" y="208" style="fill:#595959;" width="8" height="8"/>
<rect x="100" y="208" style="fill:#595959;" width="8" height="8"/>
<rect x="112" y="208" style="fill:#595959;" width="8" height="8"/>
<rect x="124" y="208" style="fill:#595959;" width="8" height="8"/>
<rect x="136" y="208" style="fill:#595959;" width="8" height="8"/>
<rect x="148" y="208" style="fill:#595959;" width="8" height="8"/>
<rect x="160" y="208" style="fill:#595959;" width="8" height="8"/>
<rect x="172" y="208" style="fill:#595959;" width="8" height="8"/>
<rect x="184" y="208" style="fill:#595959;" width="16" height="8"/>
<rect x="84" y="196" style="fill:#595959;" width="8" height="8"/>
<rect x="96" y="196" style="fill:#595959;" width="8" height="8"/>
<rect x="108" y="196" style="fill:#595959;" width="8" height="8"/>
<rect x="120" y="196" style="fill:#595959;" width="8" height="8"/>
<rect x="132" y="196" style="fill:#595959;" width="8" height="8"/>
<rect x="144" y="196" style="fill:#595959;" width="8" height="8"/>
<rect x="156" y="196" style="fill:#595959;" width="8" height="8"/>
<rect x="168" y="196" style="fill:#595959;" width="8" height="8"/>
<rect x="180" y="196" style="fill:#595959;" width="8" height="8"/>
<rect x="192" y="196" style="fill:#595959;" width="8" height="8"/>
<rect x="80" y="184" style="fill:#595959;" width="8" height="8"/>
<rect x="92" y="184" style="fill:#595959;" width="8" height="8"/>
<rect x="104" y="184" style="fill:#595959;" width="8" height="8"/>
<rect x="116" y="184" style="fill:#595959;" width="8" height="8"/>
<rect x="128" y="184" style="fill:#595959;" width="8" height="8"/>
<rect x="140" y="184" style="fill:#595959;" width="8" height="8"/>
<rect x="152" y="184" style="fill:#595959;" width="8" height="8"/>
<rect x="164" y="184" style="fill:#595959;" width="8" height="8"/>
<rect x="176" y="184" style="fill:#595959;" width="8" height="8"/>
<rect x="188" y="184" style="fill:#595959;" width="12" height="8"/>
<rect x="56" y="220" style="fill:#D9D4BC;" width="8" height="8"/>
</svg>
