<svg xmlns="http://www.w3.org/2000/svg" xml:space="preserve" viewBox="0 0 256 256"><path d="M220 4H36c-8.822 0-16 7.178-16 16v128.182l.008.182.896 19.704a11.9 11.9 0 0 0-.657 4.598l3.556 64C24.156 243.021 29.419 248 35.784 248h184.432c6.366 0 11.628-4.979 11.982-11.334l3.556-64a11.9 11.9 0 0 0-.657-4.598l.896-19.704.008-.182V20C236 11.178 228.822 4 220 4" style="opacity:.5;fill:#fff"/><path d="M220 240H36a4 4 0 0 1-4-4l-4-88h200l-4 88a4 4 0 0 1-4 4" style="fill:#c4c0aa"/><path d="M220 156H36a8 8 0 0 1-8-8v-32h200v32a8 8 0 0 1-8 8" style="fill:#d9d4bc"/><path d="M228 116H28V20a8 8 0 0 1 8-8h184a8 8 0 0 1 8 8z" style="fill:#c4c0aa"/><path d="M212 108H44a4 4 0 0 1-4-4V24a4 4 0 0 1 4-4h168a4 4 0 0 1 4 4v80a4 4 0 0 1-4 4" style="fill:#d9d4bc"/><path d="M48 12h2v144h-2zm158 0h2v144h-2zM34 24h-6v-4h6a2 2 0 1 1 0 4m0 8h-6v-4h6a2 2 0 1 1 0 4m0 8h-6v-4h6a2 2 0 1 1 0 4m0 8h-6v-4h6a2 2 0 1 1 0 4m0 8h-6v-4h6a2 2 0 1 1 0 4m0 8h-6v-4h6a2 2 0 1 1 0 4m0 8h-6v-4h6a2 2 0 1 1 0 4m0 8h-6v-4h6a2 2 0 1 1 0 4m0 8h-6v-4h6a2 2 0 1 1 0 4m0 8h-6v-4h6a2 2 0 1 1 0 4m0 8h-6v-4h6a2 2 0 1 1 0 4m0 8h-6v-4h6a2 2 0 1 1 0 4m188-88h6v-4h-6a2 2 0 1 0 0 4m0 8h6v-4h-6a2 2 0 1 0 0 4m0 8h6v-4h-6a2 2 0 1 0 0 4m0 8h6v-4h-6a2 2 0 1 0 0 4m0 8h6v-4h-6a2 2 0 1 0 0 4m0 8h6v-4h-6a2 2 0 1 0 0 4m0 8h6v-4h-6a2 2 0 1 0 0 4m0 8h6v-4h-6a2 2 0 1 0 0 4m0 8h6v-4h-6a2 2 0 1 0 0 4m0 8h6v-4h-6a2 2 0 1 0 0 4m0 8h6v-4h-6a2 2 0 1 0 0 4m0 8h6v-4h-6a2 2 0 1 0 0 4m-72 40h-44a2 2 0 0 1-2-2v-12a2 2 0 0 1 2-2h44a2 2 0 0 1 2 2v12a2 2 0 0 1-2 2m-98 8h2v8h-2zm150 0h2v8h-2z" style="fill:#a6a390"/><path d="m48 156 4 4h2l-4-4zm154 4 4-4h2l-4 4z" style="fill:#8c8c8c"/><path d="M220.216 240H35.784a4 4 0 0 1-3.994-3.778l-3.556-64A4 4 0 0 1 32.228 168h191.543a4 4 0 0 1 3.994 4.222l-3.556 64a4 4 0 0 1-3.993 3.778" style="fill:#d9d4bc"/><path d="M212 232H44a4 4 0 0 1-4-4v-44a4 4 0 0 1 4-4h168a4 4 0 0 1 4 4v44a4 4 0 0 1-4 4" style="fill:#c4c0aa"/><path d="M56 184h144v36H56z" style="fill:#404040"/><path d="M56 184h8v8h-8zm0 12h12v8H56zm0 12h16v8H56zm40 12h56v8H96zm-28-36h8v8h-8zm4 12h8v8h-8zm4 12h8v8h-8zm12 0h8v8h-8zm12 0h8v8h-8zm12 0h8v8h-8zm12 0h8v8h-8zm12 0h8v8h-8zm12 0h8v8h-8zm12 0h8v8h-8zm12 0h8v8h-8zm12 0h16v8h-16zM84 196h8v8h-8zm12 0h8v8h-8zm12 0h8v8h-8zm12 0h8v8h-8zm12 0h8v8h-8zm12 0h8v8h-8zm12 0h8v8h-8zm12 0h8v8h-8zm12 0h8v8h-8zm12 0h8v8h-8zM80 184h8v8h-8zm12 0h8v8h-8zm12 0h8v8h-8zm12 0h8v8h-8zm12 0h8v8h-8zm12 0h8v8h-8zm12 0h8v8h-8zm12 0h8v8h-8zm12 0h8v8h-8zm12 0h12v8h-12z" style="fill:#595959"/><path d="M56 220h8v8h-8z" style="fill:#d9d4bc"/></svg>