<svg xmlns="http://www.w3.org/2000/svg" id="Layer_1" viewBox="0 0 256 256"><defs><style>.st1{fill:#7b0000}.st2{fill:#ffcb05}.st3{fill:#306}.st4{fill:#0d0d0d}.st5{fill:#4d4d4d}.st6{fill:#262626}.st7{fill:#3096cf}.st8{fill:#b80000}.st9{fill:#333}.st10{fill:#1a1a1a}</style></defs><path d="m211.2 156.4-14.9-29.8c-2-4.1-6.2-6.6-10.7-6.6h-4.1l-3.3-46.4 10.6-21.2c.8-1.7 1.3-3.5 1.3-5.4V15.9c0-6.6-5.4-12-12-12h-100c-6.6 0-12 5.4-12 12V47c0 1.9.4 3.7 1.3 5.4L78 73.6 74.7 120h-4.1c-4.6 0-8.7 2.5-10.7 6.6L45 156.4c-.9 1.9-1.1 4-.5 6l3.1 9.7c1.6 5.1 6.2 8.5 11.4 8.5h9.8l3.4 63.8c.2 4.2 3.7 7.6 8 7.6h96c4.3 0 7.8-3.3 8-7.6l3.4-63.8h9.8c5.2 0 9.8-3.4 11.4-8.5l3.1-9.7c.6-2 .5-4.1-.5-6Z" style="fill:#fff;isolation:isolate;opacity:.6"/><path d="M200 156H56l-4 4 3.1 9.7c.5 1.7 2.1 2.9 3.8 2.9h17.3L80 244h96l3.8-71.4h17.3c1.7 0 3.2-1.2 3.8-2.9l3.1-9.7zM178 12H78c-2.2 0-4 1.8-4 4v31.1c0 .6.1 1.2.4 1.8L86 72.1l-4 56h92l-4-56 11.6-23.2c.3-.6.4-1.2.4-1.8V16c0-2.2-1.8-4-4-4" class="st6"/><path d="M172.1 240H83.9l-3.5-67.9h95.2zm31.9-80H52l14.9-29.8c.7-1.4 2.1-2.2 3.6-2.2h115.1c1.5 0 2.9.9 3.6 2.2l14.9 29.8Z" class="st5"/><path d="M116.7 224H99.4c-1.8 0-3.3-1.5-3.3-3.3v-41.3c0-1.8 1.5-3.3 3.3-3.3h17.3c1.8 0 3.3 1.5 3.3 3.3v41.3c0 1.8-1.5 3.3-3.3 3.3" class="st6"/><path d="M116 182v16h-16v-16zm2-2H98v20h20z" class="st10"/><path d="M102 184h4v4h-4zm8 0h4v4h-4z" class="st1"/><path d="M102 192h4v4h-4zm8 0h4v4h-4z" class="st4"/><path d="M156.7 224h-17.3c-1.8 0-3.3-1.5-3.3-3.3v-41.3c0-1.8 1.5-3.3 3.3-3.3h17.3c1.8 0 3.3 1.5 3.3 3.3v41.3c0 1.8-1.5 3.3-3.3 3.3" class="st6"/><path d="M156 182v16h-16v-16zm2-2h-20v20h20z" class="st10"/><path d="M142 184h4v4h-4zm8 0h4v4h-4z" class="st1"/><path d="M142 192h4v4h-4zm8 0h4v4h-4z" class="st4"/><ellipse cx="118" cy="145" class="st2" rx="2" ry="1"/><ellipse cx="158" cy="143" class="st3" rx="2" ry="1"/><ellipse cx="182" cy="137" class="st8" rx="2" ry="1"/><ellipse cx="82" cy="141" class="st7" rx="2" ry="1"/><ellipse cx="122" cy="147" class="st2" rx="2" ry="1"/><ellipse cx="154" cy="145" class="st3" rx="2" ry="1"/><ellipse cx="178" cy="139" class="st8" rx="2" ry="1"/><ellipse cx="86" cy="143" class="st7" rx="2" ry="1"/><ellipse cx="80" cy="136.2" class="st10" rx="4.5" ry="2.2"/><path d="m78.9 136.3-1.1-6.7c0-.9 1-1.7 2.2-1.7s2.2.7 2.2 1.7l-1.1 6.7c0 .9-2.2.9-2.2 0" class="st9"/><ellipse cx="107.5" cy="144.2" class="st10" rx="4.5" ry="2.2"/><path d="m106.4 144.3-1.1-6.7c0-.9 1-1.7 2.2-1.7s2.2.7 2.2 1.7l-1.1 6.7c0 .9-2.2.9-2.2 0" class="st9"/><ellipse cx="143.5" cy="145.8" class="st10" rx="4.5" ry="2.2"/><path d="m142.4 145.8-1.1-6.7c0-.9 1-1.7 2.2-1.7s2.2.7 2.2 1.7l-1.1 6.7c0 .9-2.2.9-2.2 0" class="st9"/><ellipse cx="175.5" cy="144.2" class="st10" rx="4.5" ry="2.2"/><path d="m174.4 144.3-1.1-6.7c0-.9 1-1.7 2.2-1.7s2.2.7 2.2 1.7l-1.1 6.7c0 .9-2.2.9-2.2 0" class="st9"/><path d="m175.5 52-8 16h-79l-8-16z" style="fill:#404040"/><path d="M159.7 124H96.4c-2.3 0-4.2-2-4-4.3l3.3-40c.2-2.1 1.9-3.7 4-3.7h56.6c2.1 0 3.8 1.6 4 3.7l3.3 40c.2 2.3-1.6 4.3-4 4.3Z" class="st10"/><path d="M78 16h100v32H78z" class="st5"/></svg>