<svg xmlns="http://www.w3.org/2000/svg" xml:space="preserve" width="330.667" height="192" viewBox="0 0 330.667 192"><defs><clipPath id="a" clipPathUnits="userSpaceOnUse"><path d="M0 256h256V0H0Z"/></clipPath><clipPath id="b" clipPathUnits="userSpaceOnUse"><path d="M4 200h248V56H4Z"/></clipPath><clipPath id="c" clipPathUnits="userSpaceOnUse"><path d="M0 256h256V0H0Z"/></clipPath></defs><g clip-path="url(#a)" transform="matrix(1.33333 0 0 -1.33333 -5.333 266.667)"><g clip-path="url(#b)" style="opacity:.5"><path d="M0 0h-248v-144H0V-8z" style="fill:#fff;fill-opacity:1;fill-rule:nonzero;stroke:none" transform="translate(252 200)"/></g></g><path d="M244 64H12v128h232z" style="fill:#666;fill-opacity:1;fill-rule:nonzero;stroke:none" transform="matrix(1.33333 0 0 -1.33333 -5.333 266.667)"/><path d="M172 104H84v44h88z" style="fill:#d9d9d9;fill-opacity:1;fill-rule:nonzero;stroke:none" transform="matrix(1.33333 0 0 -1.33333 -5.333 266.667)"/><path d="M164 108H92v12h72z" style="fill:#666;fill-opacity:1;fill-rule:nonzero;stroke:none" transform="matrix(1.33333 0 0 -1.33333 -5.333 266.667)"/><path d="M160 110h-16v8h16z" style="fill:#d9af63;fill-opacity:1;fill-rule:nonzero;stroke:none" transform="matrix(1.33333 0 0 -1.33333 -5.333 266.667)"/><g clip-path="url(#c)" transform="matrix(1.33333 0 0 -1.33333 -5.333 266.667)"><path d="M0 0a4 4 0 1 1 8 0 4 4 0 0 1-8 0" style="fill:#d9af63;fill-opacity:1;fill-rule:nonzero;stroke:none" transform="translate(94 114)"/><path d="M0 0a4 4 0 1 1 8 0 4 4 0 0 1-8 0" style="fill:#d9af63;fill-opacity:1;fill-rule:nonzero;stroke:none" transform="translate(106 114)"/><path d="M0 0a4 4 0 1 1 8 0 4 4 0 0 1-8 0" style="fill:#d9af63;fill-opacity:1;fill-rule:nonzero;stroke:none" transform="translate(118 114)"/><path d="M0 0a4 4 0 1 1 8 0 4 4 0 0 1-8 0" style="fill:#d9af63;fill-opacity:1;fill-rule:nonzero;stroke:none" transform="translate(130 114)"/><path d="M0 0a2 2 0 1 0-4.001.001A2 2 0 0 0 0 0" style="fill:red;fill-opacity:1;fill-rule:nonzero;stroke:none" transform="translate(162 142)"/><path d="M172 72H84v20h88z" style="fill:#595959;fill-opacity:1;fill-rule:nonzero;stroke:none"/><path d="M90 72h-2v20h2zm-4 0h-2v20h2zm8 0h-2v20h2zm4 0h-2v20h2zm4 0h-2v20h2zm4 0h-2v20h2zm4 0h-2v20h2zm4 0h-2v20h2zm4 0h-2v20h2zm4 0h-2v20h2zm4 0h-2v20h2zm4 0h-2v20h2zm4 0h-2v20h2zm4 0h-2v20h2zm4 0h-2v20h2zm4 0h-2v20h2zm4 0h-2v20h2zm4 0h-2v20h2zm4 0h-2v20h2zm4 0h-2v20h2zm4 0h-2v20h2zm4 0h-2v20h2z" style="fill:#4c4c4c;fill-opacity:1;fill-rule:nonzero;stroke:none"/><path d="M172 160H84v20h88z" style="fill:#595959;fill-opacity:1;fill-rule:nonzero;stroke:none"/><path d="M170 162H86v16h84z" style="fill:#4c4c4c;fill-opacity:1;fill-rule:nonzero;stroke:none"/><path d="M170 169.5H86v1h84z" style="fill:#333;fill-opacity:1;fill-rule:nonzero;stroke:none"/><path d="M76 68H20v124h56z" style="fill:#4c4c4c;fill-opacity:1;fill-rule:nonzero;stroke:none"/><path d="M72 112H24v64h48z" style="fill:#666;fill-opacity:1;fill-rule:nonzero;stroke:none"/><path d="M76 172H20v16h56zm0-100H20v44h56z" style="fill:#737373;fill-opacity:1;fill-rule:nonzero;stroke:none"/><path d="M68 120H28v52h40z" style="fill:#d9af63;fill-opacity:1;fill-rule:nonzero;stroke:none"/><path d="M0 0a4 4 0 1 1 0-8 4 4 0 0 1 0 8m0-1c1.654 0 3-1.346 3-3S1.654-7 0-7s-3 1.346-3 3 1.346 3 3 3" style="fill:gray;fill-opacity:1;fill-rule:nonzero;stroke:none" transform="translate(36 168)"/><path d="M0 0a4 4 0 1 1 0-8 4 4 0 0 1 0 8m0-1c1.654 0 3-1.346 3-3S1.654-7 0-7s-3 1.346-3 3 1.346 3 3 3" style="fill:gray;fill-opacity:1;fill-rule:nonzero;stroke:none" transform="translate(48 168)"/><path d="M0 0a4 4 0 1 1 0-8 4 4 0 0 1 0 8m0-1c1.654 0 3-1.346 3-3S1.654-7 0-7s-3 1.346-3 3 1.346 3 3 3" style="fill:gray;fill-opacity:1;fill-rule:nonzero;stroke:none" transform="translate(60 168)"/><path d="M0 0a4 4 0 1 1 0-8 4 4 0 0 1 0 8m0-1c1.654 0 3-1.346 3-3S1.654-7 0-7s-3 1.346-3 3 1.346 3 3 3" style="fill:gray;fill-opacity:1;fill-rule:nonzero;stroke:none" transform="translate(36 156)"/><path d="M0 0a4 4 0 1 1 0-8 4 4 0 0 1 0 8m0-1c1.654 0 3-1.346 3-3S1.654-7 0-7s-3 1.346-3 3 1.346 3 3 3" style="fill:gray;fill-opacity:1;fill-rule:nonzero;stroke:none" transform="translate(48 156)"/><path d="M0 0a4 4 0 1 1 0-8 4 4 0 0 1 0 8m0-1c1.654 0 3-1.346 3-3S1.654-7 0-7s-3 1.346-3 3 1.346 3 3 3" style="fill:gray;fill-opacity:1;fill-rule:nonzero;stroke:none" transform="translate(60 156)"/><path d="M0 0a4 4 0 1 1 0-8 4 4 0 0 1 0 8m0-1c1.654 0 3-1.346 3-3S1.654-7 0-7s-3 1.346-3 3 1.346 3 3 3" style="fill:gray;fill-opacity:1;fill-rule:nonzero;stroke:none" transform="translate(36 144)"/><path d="M0 0a4 4 0 1 1 0-8 4 4 0 0 1 0 8m0-1c1.654 0 3-1.346 3-3S1.654-7 0-7s-3 1.346-3 3 1.346 3 3 3" style="fill:gray;fill-opacity:1;fill-rule:nonzero;stroke:none" transform="translate(48 144)"/><path d="M0 0a4 4 0 1 1 0-8 4 4 0 0 1 0 8m0-1c1.654 0 3-1.346 3-3S1.654-7 0-7s-3 1.346-3 3 1.346 3 3 3" style="fill:gray;fill-opacity:1;fill-rule:nonzero;stroke:none" transform="translate(60 144)"/><path d="M0 0a4 4 0 1 1 0-8 4 4 0 0 1 0 8m0-1c1.654 0 3-1.346 3-3S1.654-7 0-7s-3 1.346-3 3 1.346 3 3 3" style="fill:gray;fill-opacity:1;fill-rule:nonzero;stroke:none" transform="translate(36 132)"/><path d="M0 0a4 4 0 1 1 0-8 4 4 0 0 1 0 8m0-1c1.654 0 3-1.346 3-3S1.654-7 0-7s-3 1.346-3 3 1.346 3 3 3" style="fill:gray;fill-opacity:1;fill-rule:nonzero;stroke:none" transform="translate(48 132)"/><path d="M0 0a4 4 0 1 1 0-8 4 4 0 0 1 0 8m0-1c1.654 0 3-1.346 3-3S1.654-7 0-7s-3 1.346-3 3 1.346 3 3 3" style="fill:gray;fill-opacity:1;fill-rule:nonzero;stroke:none" transform="translate(60 132)"/><path d="M0 0c0-8.837-7.164-16-16-16S-32-8.837-32 0s7.164 16 16 16S0 8.837 0 0" style="fill:#d9af63;fill-opacity:1;fill-rule:nonzero;stroke:none" transform="translate(64 92)"/><path d="M0 0a4 4 0 1 0-8 0 4 4 0 0 0 8 0" style="fill:#595959;fill-opacity:1;fill-rule:nonzero;stroke:none" transform="translate(52 92)"/><path d="M0 0a2 2 0 1 0-4.001.001A2 2 0 0 0 0 0" style="fill:#4c4c4c;fill-opacity:1;fill-rule:nonzero;stroke:none" transform="translate(50 92)"/><path d="M72 176H24v8h48z" style="fill:#d9d9d9;fill-opacity:1;fill-rule:nonzero;stroke:none"/><path d="M236 68h-56v124h56z" style="fill:#4c4c4c;fill-opacity:1;fill-rule:nonzero;stroke:none"/><path d="M232 112h-48v64h48z" style="fill:#666;fill-opacity:1;fill-rule:nonzero;stroke:none"/><path d="M236 172h-56v16h56zm0-100h-56v44h56z" style="fill:#737373;fill-opacity:1;fill-rule:nonzero;stroke:none"/><path d="M228 120h-40v52h40z" style="fill:#d9af63;fill-opacity:1;fill-rule:nonzero;stroke:none"/><path d="M0 0a4 4 0 1 1 0-8 4 4 0 0 1 0 8m0-1c1.654 0 3-1.346 3-3S1.654-7 0-7s-3 1.346-3 3 1.346 3 3 3" style="fill:gray;fill-opacity:1;fill-rule:nonzero;stroke:none" transform="translate(196 168)"/><path d="M0 0a4 4 0 1 1 0-8 4 4 0 0 1 0 8m0-1c1.654 0 3-1.346 3-3S1.654-7 0-7s-3 1.346-3 3 1.346 3 3 3" style="fill:gray;fill-opacity:1;fill-rule:nonzero;stroke:none" transform="translate(208 168)"/><path d="M0 0a4 4 0 1 1 0-8 4 4 0 0 1 0 8m0-1c1.654 0 3-1.346 3-3S1.654-7 0-7s-3 1.346-3 3 1.346 3 3 3" style="fill:gray;fill-opacity:1;fill-rule:nonzero;stroke:none" transform="translate(220 168)"/><path d="M0 0a4 4 0 1 1 0-8 4 4 0 0 1 0 8m0-1c1.654 0 3-1.346 3-3S1.654-7 0-7s-3 1.346-3 3 1.346 3 3 3" style="fill:gray;fill-opacity:1;fill-rule:nonzero;stroke:none" transform="translate(196 156)"/><path d="M0 0a4 4 0 1 1 0-8 4 4 0 0 1 0 8m0-1c1.654 0 3-1.346 3-3S1.654-7 0-7s-3 1.346-3 3 1.346 3 3 3" style="fill:gray;fill-opacity:1;fill-rule:nonzero;stroke:none" transform="translate(208 156)"/><path d="M0 0a4 4 0 1 1 0-8 4 4 0 0 1 0 8m0-1c1.654 0 3-1.346 3-3S1.654-7 0-7s-3 1.346-3 3 1.346 3 3 3" style="fill:gray;fill-opacity:1;fill-rule:nonzero;stroke:none" transform="translate(220 156)"/><path d="M0 0a4 4 0 1 1 0-8 4 4 0 0 1 0 8m0-1c1.654 0 3-1.346 3-3S1.654-7 0-7s-3 1.346-3 3 1.346 3 3 3" style="fill:gray;fill-opacity:1;fill-rule:nonzero;stroke:none" transform="translate(196 144)"/><path d="M0 0a4 4 0 1 1 0-8 4 4 0 0 1 0 8m0-1c1.654 0 3-1.346 3-3S1.654-7 0-7s-3 1.346-3 3 1.346 3 3 3" style="fill:gray;fill-opacity:1;fill-rule:nonzero;stroke:none" transform="translate(208 144)"/><path d="M0 0a4 4 0 1 1 0-8 4 4 0 0 1 0 8m0-1c1.654 0 3-1.346 3-3S1.654-7 0-7s-3 1.346-3 3 1.346 3 3 3" style="fill:gray;fill-opacity:1;fill-rule:nonzero;stroke:none" transform="translate(220 144)"/><path d="M0 0a4 4 0 1 1 0-8 4 4 0 0 1 0 8m0-1c1.654 0 3-1.346 3-3S1.654-7 0-7s-3 1.346-3 3 1.346 3 3 3" style="fill:gray;fill-opacity:1;fill-rule:nonzero;stroke:none" transform="translate(196 132)"/><path d="M0 0a4 4 0 1 1 0-8 4 4 0 0 1 0 8m0-1c1.654 0 3-1.346 3-3S1.654-7 0-7s-3 1.346-3 3 1.346 3 3 3" style="fill:gray;fill-opacity:1;fill-rule:nonzero;stroke:none" transform="translate(208 132)"/><path d="M0 0a4 4 0 1 1 0-8 4 4 0 0 1 0 8m0-1c1.654 0 3-1.346 3-3S1.654-7 0-7s-3 1.346-3 3 1.346 3 3 3" style="fill:gray;fill-opacity:1;fill-rule:nonzero;stroke:none" transform="translate(220 132)"/><path d="M0 0c0-8.837-7.163-16-16-16S-32-8.837-32 0s7.163 16 16 16S0 8.837 0 0" style="fill:#d9af63;fill-opacity:1;fill-rule:nonzero;stroke:none" transform="translate(224 92)"/><path d="M0 0a4 4 0 1 0-8 0 4 4 0 0 0 8 0" style="fill:#595959;fill-opacity:1;fill-rule:nonzero;stroke:none" transform="translate(212 92)"/><path d="M0 0a2 2 0 1 0-4.001.001A2 2 0 0 0 0 0" style="fill:#4c4c4c;fill-opacity:1;fill-rule:nonzero;stroke:none" transform="translate(210 92)"/><path d="M232 176h-48v8h48z" style="fill:#d9d9d9;fill-opacity:1;fill-rule:nonzero;stroke:none"/></g></svg>