<?xml version="1.0" encoding="UTF-8"?>
<svg id="Layer_1" xmlns="http://www.w3.org/2000/svg" xmlns:xlink="http://www.w3.org/1999/xlink" version="1.1" viewBox="0 0 256 256">
  <!-- Generator: Adobe Illustrator 29.3.0, SVG Export Plug-In . SVG Version: 2.1.0 Build 146)  -->
  <defs>
    <style>
      .st0 {
        fill: #404040;
      }

      .st1 {
        fill: #7b0000;
      }

      .st2 {
        fill: #ffcb05;
      }

      .st3 {
        fill: #306;
      }

      .st4 {
        fill: #0d0d0d;
      }

      .st5 {
        fill: #4d4d4d;
      }

      .st6 {
        fill: #262626;
      }

      .st7 {
        fill: #3096cf;
      }

      .st8 {
        fill: #b80000;
      }

      .st9 {
        fill: #333;
      }

      .st10 {
        fill: #1a1a1a;
      }

      .st11 {
        fill: #fff;
        isolation: isolate;
        opacity: .6;
      }
    </style>
  </defs>
  <path class="st11" d="M211.2,156.4l-14.9-29.8c-2-4.1-6.2-6.6-10.7-6.6h-4.1l-3.3-46.4,10.6-21.2c.8-1.7,1.3-3.5,1.3-5.4v-31.1c0-6.6-5.4-12-12-12h-100c-6.6,0-12,5.4-12,12v31.1c0,1.9.4,3.7,1.3,5.4l10.6,21.2-3.3,46.4h-4.1c-4.6,0-8.7,2.5-10.7,6.6l-14.9,29.8c-.9,1.9-1.1,4-.5,6l3.1,9.7c1.6,5.1,6.2,8.5,11.4,8.5h9.8l3.4,63.8c.2,4.2,3.7,7.6,8,7.6h96c4.3,0,7.8-3.3,8-7.6l3.4-63.8h9.8c5.2,0,9.8-3.4,11.4-8.5l3.1-9.7c.6-2,.5-4.1-.5-6Z"/>
  <path class="st6" d="M200,156H56l-4,4,3.1,9.7c.5,1.7,2.1,2.9,3.8,2.9h17.3l3.8,71.4h96l3.8-71.4h17.3c1.7,0,3.2-1.2,3.8-2.9l3.1-9.7-4-4Z"/>
  <path class="st6" d="M178,12h-100c-2.2,0-4,1.8-4,4v31.1c0,.6.1,1.2.4,1.8l11.6,23.2-4,56h92l-4-56,11.6-23.2c.3-.6.4-1.2.4-1.8v-31.1c0-2.2-1.8-4-4-4Z"/>
  <polygon class="st5" points="172.1 240 83.9 240 80.4 172.1 175.6 172.1 172.1 240"/>
  <path class="st5" d="M204,160H52l14.9-29.8c.7-1.4,2.1-2.2,3.6-2.2h115.1c1.5,0,2.9.9,3.6,2.2l14.9,29.8Z"/>
  <g>
    <g>
      <path class="st6" d="M116.7,224h-17.3c-1.8,0-3.3-1.5-3.3-3.3v-41.3c0-1.8,1.5-3.3,3.3-3.3h17.3c1.8,0,3.3,1.5,3.3,3.3v41.3c0,1.8-1.5,3.3-3.3,3.3Z"/>
      <path class="st10" d="M116,182v16h-16v-16h16M118,180h-20v20h20v-20h0Z"/>
      <rect class="st1" x="102" y="184" width="4" height="4"/>
      <rect class="st1" x="110" y="184" width="4" height="4"/>
      <rect class="st4" x="102" y="192" width="4" height="4"/>
      <rect class="st4" x="110" y="192" width="4" height="4"/>
    </g>
    <g>
      <path class="st6" d="M156.7,224h-17.3c-1.8,0-3.3-1.5-3.3-3.3v-41.3c0-1.8,1.5-3.3,3.3-3.3h17.3c1.8,0,3.3,1.5,3.3,3.3v41.3c0,1.8-1.5,3.3-3.3,3.3Z"/>
      <path class="st10" d="M156,182v16h-16v-16h16M158,180h-20v20h20v-20h0Z"/>
      <rect class="st1" x="142" y="184" width="4" height="4"/>
      <rect class="st1" x="150" y="184" width="4" height="4"/>
      <rect class="st4" x="142" y="192" width="4" height="4"/>
      <rect class="st4" x="150" y="192" width="4" height="4"/>
    </g>
  </g>
  <g>
    <ellipse class="st2" cx="118" cy="145" rx="2" ry="1"/>
    <ellipse class="st3" cx="158" cy="143" rx="2" ry="1"/>
    <ellipse class="st8" cx="182" cy="137" rx="2" ry="1"/>
    <ellipse class="st7" cx="82" cy="141" rx="2" ry="1"/>
    <ellipse class="st2" cx="122" cy="147" rx="2" ry="1"/>
    <ellipse class="st3" cx="154" cy="145" rx="2" ry="1"/>
    <ellipse class="st8" cx="178" cy="139" rx="2" ry="1"/>
    <ellipse class="st7" cx="86" cy="143" rx="2" ry="1"/>
    <ellipse class="st10" cx="80" cy="136.2" rx="4.5" ry="2.2"/>
    <path class="st9" d="M78.9,136.3l-1.1-6.7c0-.9,1-1.7,2.2-1.7h0c1.2,0,2.2.7,2.2,1.7l-1.1,6.7c0,.9-2.2.9-2.2,0Z"/>
    <ellipse class="st10" cx="107.5" cy="144.2" rx="4.5" ry="2.2"/>
    <path class="st9" d="M106.4,144.3l-1.1-6.7c0-.9,1-1.7,2.2-1.7h0c1.2,0,2.2.7,2.2,1.7l-1.1,6.7c0,.9-2.2.9-2.2,0Z"/>
    <ellipse class="st10" cx="143.5" cy="145.8" rx="4.5" ry="2.2"/>
    <path class="st9" d="M142.4,145.8l-1.1-6.7c0-.9,1-1.7,2.2-1.7h0c1.2,0,2.2.7,2.2,1.7l-1.1,6.7c0,.9-2.2.9-2.2,0Z"/>
    <ellipse class="st10" cx="175.5" cy="144.2" rx="4.5" ry="2.2"/>
    <path class="st9" d="M174.4,144.3l-1.1-6.7c0-.9,1-1.7,2.2-1.7h0c1.2,0,2.2.7,2.2,1.7l-1.1,6.7c0,.9-2.2.9-2.2,0Z"/>
  </g>
  <polyline class="st0" points="175.5 52 167.5 68 88.5 68 80.5 52 175.5 52"/>
  <path class="st10" d="M159.7,124h-63.3c-2.3,0-4.2-2-4-4.3l3.3-40c.2-2.1,1.9-3.7,4-3.7h56.6c2.1,0,3.8,1.6,4,3.7l3.3,40c.2,2.3-1.6,4.3-4,4.3Z"/>
  <rect class="st5" x="78" y="16" width="100" height="32"/>
</svg>