<svg xmlns="http://www.w3.org/2000/svg" xml:space="preserve" viewBox="0 0 256 256"><path d="M192 4H64c-8.822 0-16 7.178-16 16v216c0 8.822 7.178 16 16 16h128c8.822 0 16-7.178 16-16V20c0-8.822-7.178-16-16-16" style="opacity:.5;fill:#fff"/><path d="M192 12H64a8 8 0 0 0-8 8v216a8 8 0 0 0 8 8h128a8 8 0 0 0 8-8V20a8 8 0 0 0-8-8" style="fill:#d9d9d9"/><path d="M192 16c2.206 0 4 1.794 4 4v216c0 2.206-1.794 4-4 4H64c-2.206 0-4-1.794-4-4V20c0-2.206 1.794-4 4-4z" style="fill:#f2f2f2"/><path d="M80 80h96v16H80z" style="fill:#ccc"/><path d="M120 180h16v16h-16z" style="fill:#262626"/><path d="M140 96h4v4h-4zM70 21c2.757 0 5 2.243 5 5s-2.243 5-5 5-5-2.243-5-5 2.243-5 5-5m0-1a6 6 0 1 0 0 12 6 6 0 0 0 0-12" style="fill:#a3834a"/><path d="M70 23c1.654 0 3 1.346 3 3s-1.346 3-3 3-3-1.346-3-3 1.346-3 3-3m0-1c-2.206 0-4 1.794-4 4s1.794 4 4 4 4-1.794 4-4-1.794-4-4-4" style="fill:#bf9a57"/><path d="M186 21c2.757 0 5 2.243 5 5s-2.243 5-5 5-5-2.243-5-5 2.243-5 5-5m0-1a6 6 0 1 0 0 12 6 6 0 0 0 0-12" style="fill:#a3834a"/><path d="M186 23c1.654 0 3 1.346 3 3s-1.346 3-3 3-3-1.346-3-3 1.346-3 3-3m0-1c-2.206 0-4 1.794-4 4s1.794 4 4 4 4-1.794 4-4-1.794-4-4-4" style="fill:#bf9a57"/><path d="M70 225c2.757 0 5 2.243 5 5s-2.243 5-5 5-5-2.243-5-5 2.243-5 5-5m0-1a6 6 0 1 0 0 12 6 6 0 0 0 0-12" style="fill:#a3834a"/><path d="M70 227c1.654 0 3 1.346 3 3s-1.346 3-3 3-3-1.346-3-3 1.346-3 3-3m0-1c-2.206 0-4 1.794-4 4s1.794 4 4 4 4-1.794 4-4-1.794-4-4-4" style="fill:#bf9a57"/><path d="M186 225c2.757 0 5 2.243 5 5s-2.243 5-5 5-5-2.243-5-5 2.243-5 5-5m0-1a6 6 0 1 0 0 12 6 6 0 0 0 0-12" style="fill:#a3834a"/><path d="M186 227c1.654 0 3 1.346 3 3s-1.346 3-3 3-3-1.346-3-3 1.346-3 3-3m0-1c-2.206 0-4 1.794-4 4s1.794 4 4 4 4-1.794 4-4-1.794-4-4-4" style="fill:#bf9a57"/><circle cx="70" cy="230" r="2" style="fill:#d9d9d9"/><circle cx="186" cy="230" r="2" style="fill:#d9d9d9"/><circle cx="70" cy="26" r="2" style="fill:#d9d9d9"/><circle cx="186" cy="26" r="2" style="fill:#d9d9d9"/><path d="M180 72h8v16h-8zm0-12h8v4h-8z" style="fill:#262626"/><path d="M180 54h8v2h-8zm0-6h8v2h-8zm0-6h8v2h-8zM64 50h8v2h-8zm0-6h8v2h-8zm0-6h8v2h-8z" style="fill:gray"/><path d="M64 76h8v4h-8zm0 8h8v4h-8z" style="fill:#262626"/><path d="M66 38h4v2h-4z" style="fill:#bf9a57"/><path d="M64 68h8v2h-8z" style="fill:gray"/><path d="M66 68h4v2h-4z" style="fill:#bf9a57"/><path d="M64 92h8v2h-8z" style="fill:gray"/><path d="M66 92h4v2h-4zm0-34h4v4h-4z" style="fill:#bf9a57"/><path d="M66 44h4v2h-4zm0 6h4v2h-4zm116-8h4v2h-4zm0 6h4v2h-4z" style="fill:#262626"/><path d="M182 54h4v2h-4z" style="fill:#bf9a57"/><path d="M84 16h16v8H84z" style="fill:#ccc"/><path d="M88 12h4v4h-4z" style="fill:#585858"/><path d="M92 12h4v4h-4z" style="fill:#fc9"/><path d="M96 12h2v4h-2z" style="fill:#585858"/><path d="M152.101 194.101H171.9V213.9h-19.799z" style="fill:#262626" transform="rotate(45.001 162.003 204)"/><path d="M92 236h4v4h-4z" style="fill:#d9d9d9"/><path d="M92 240h4v4h-4z" style="fill:#ccc"/><path d="M98 228h-8v4h2v4h4v-4h2z" style="fill:#262626"/><path d="M176 104V28H80v76H60v4h136v-4zm-92 0V32h88v72z" style="fill:#e6e6e6"/><path d="M120 202h12v4h-12z" style="fill:gray"/><path d="M123 202h6v4h-6z" style="fill:#262626"/><path d="M86 208h2v8h-2z" style="fill:gray"/><path d="M86 210h2v4h-2z" style="fill:#262626"/><path d="M92 208h2v8h-2z" style="fill:gray"/><path d="M92 210h2v4h-2z" style="fill:#262626"/><path d="M98 208h2v8h-2z" style="fill:gray"/><path d="M98 210h2v4h-2z" style="fill:#262626"/><path d="M86 218h2v8h-2z" style="fill:gray"/><path d="M86 220h2v4h-2z" style="fill:#bf9a57"/><path d="M92 218h2v8h-2z" style="fill:gray"/><path d="M92 220h2v4h-2z" style="fill:#bf9a57"/><path d="M98 218h2v8h-2z" style="fill:gray"/><path d="M98 220h2v4h-2z" style="fill:#bf9a57"/><path d="M104 208h2v8h-2z" style="fill:gray"/><path d="M104 210h2v4h-2z" style="fill:#262626"/><path d="M124 208h2v8h-2z" style="fill:gray"/><path d="M124 210h2v4h-2z" style="fill:#262626"/><path d="M130 208h2v8h-2z" style="fill:gray"/><path d="M130 210h2v4h-2z" style="fill:#262626"/><path d="M142 200h2v8h-2z" style="fill:gray"/><path d="M142 202h2v4h-2z" style="fill:#262626"/><path d="M161 182h2v8h-2z" style="fill:gray" transform="rotate(90 162 186)"/><path d="M161 184h2v4h-2z" style="fill:#262626" transform="rotate(90 162 186)"/><path d="M161 218h2v8h-2z" style="fill:gray" transform="rotate(90 162 222)"/><path d="M161 220h2v4h-2z" style="fill:#262626" transform="rotate(90 162 222)"/><path d="M173.728 187.272h2v8h-2z" style="fill:gray" transform="rotate(134.999 174.73 191.273)"/><path d="M173.728 189.272h2v4h-2z" style="fill:#262626" transform="rotate(134.999 174.73 191.273)"/><path d="M148.272 212.728h2v8h-2z" style="fill:gray" transform="rotate(134.999 149.273 216.729)"/><path d="M148.272 214.728h2v4h-2z" style="fill:#262626" transform="rotate(134.999 149.273 216.729)"/><path d="M148.272 187.536h2v8h-2z" style="fill:gray" transform="rotate(45.001 149.275 191.535)"/><path d="M148.272 189.536h2v4h-2z" style="fill:#262626" transform="rotate(45.001 149.275 191.535)"/><path d="M173.728 212.991h2v8h-2z" style="fill:gray" transform="rotate(45.001 174.731 216.99)"/><path d="M173.728 214.991h2v4h-2z" style="fill:#262626" transform="rotate(45.001 174.731 216.99)"/><path d="M140 224v-4h-4v2l-2 2h-12l-2-2v-2h-4v4h4v8h-4v4h4v4h16v-4h4v-4h-4v-8z" style="fill:#262626"/><path d="M118 220h2v20h-2zm18 0h2v20h-2zm30 0h1v4h-1z" style="fill:#bf9a57"/><path d="M176 136c-8.223 0-15.011 6.237-15.896 14.228A15.9 15.9 0 0 0 152 148c-8.822 0-16 7.178-16 16s7.178 16 16 16c8.223 0 15.011-6.237 15.896-14.228A15.9 15.9 0 0 0 176 168c8.822 0 16-7.178 16-16s-7.178-16-16-16" style="fill:#e6e6e6"/><path d="M80 32v52c0 6.627 5.373 12 12 12h20v4h28v-4h27a5 5 0 0 0 5-5v-3a4 4 0 0 0 4-4V32z" style="fill:#262626"/><path d="M88 84h-8v-8zm80 0h8v-8z" style="fill:#333"/><circle cx="152" cy="164" r="12" style="fill:red"/><circle cx="176" cy="152" r="12" style="fill:red"/><path d="M124 108h8v4h-8z" style="fill:gray"/><path d="M126 108h4v4h-4z" style="fill:#bf9a57"/><path d="M114 108h8v4h-8z" style="fill:gray"/><path d="M116 108h4v4h-4z" style="fill:#bf9a57"/><path d="M104 108h8v4h-8z" style="fill:gray"/><path d="M106 108h4v4h-4z" style="fill:#bf9a57"/><path d="M144 108h8v4h-8z" style="fill:gray"/><path d="M146 108h4v4h-4z" style="fill:#bf9a57"/><path d="M134 108h8v4h-8z" style="fill:gray"/><path d="M136 108h4v4h-4z" style="fill:#bf9a57"/><path d="M105.586 120h-20c-3.308 0-6 2.692-6 6v13.172q0 .43.059.847a6 6 0 0 0-.473-.019H66c-3.308 0-6 2.692-6 6v20c0 3.308 2.692 6 6 6h13.172q.208 0 .414-.014v13.186c0 3.308 2.692 6 6 6h20c3.308 0 6-2.692 6-6v-13.186q.206.014.414.014h13.172c3.308 0 6-2.692 6-6v-20c0-3.308-2.692-6-6-6H112q-.238 0-.473.018.059-.417.059-.847V126c0-3.308-2.692-6-6-6" style="fill:#e6e6e6"/><path d="m80.586 144.586 10 10a2 2 0 0 1 0 2.828l-10 10a2 2 0 0 1-1.414.586H66a2 2 0 0 1-2-2v-20a2 2 0 0 1 2-2h13.172a2 2 0 0 1 1.414.586M112 168h13.172a2 2 0 0 0 2-2v-20a2 2 0 0 0-2-2H112a2 2 0 0 0-1.414.586l-10 10a2 2 0 0 0 0 2.828l10 10A2 2 0 0 0 112 168m-4.414-28.828V126a2 2 0 0 0-2-2h-20a2 2 0 0 0-2 2v13.172a2 2 0 0 0 .586 1.414l10 10a2 2 0 0 0 2.828 0l10-10a2 2 0 0 0 .586-1.414m-24 32.828v13.172a2 2 0 0 0 2 2h20a2 2 0 0 0 2-2V172a2 2 0 0 0-.586-1.414l-10-10a2 2 0 0 0-2.828 0l-10 10a2 2 0 0 0-.586 1.414" style="fill:#1a1a1a"/><path d="M64 12h12v4H64zm116 0h12v4h-12zM64 240h12v4H64zm116 0h12v4h-12z" style="fill:#e6e6e6"/><path d="M118 240h20v4h-20z" style="fill:#ccc"/></svg>