<?xml version="1.0" encoding="iso-8859-1"?>
<!-- Generator: Adobe Illustrator 28.0.0, SVG Export Plug-In . SVG Version: 6.00 Build 0)  -->
<svg version="1.1" id="Layer_1" xmlns="http://www.w3.org/2000/svg" xmlns:xlink="http://www.w3.org/1999/xlink" x="0px" y="0px"
	 viewBox="0 0 256 256" style="enable-background:new 0 0 256 256;" xml:space="preserve">
<path style="opacity:0.5;fill:#FFFFFF;" d="M192,4H64c-8.822,0-16,7.178-16,16v216c0,8.822,7.178,16,16,16h128
	c8.822,0,16-7.178,16-16V20C208,11.178,200.822,4,192,4L192,4z"/>
<path style="fill:#D9D9D9;" d="M192,12H64c-4.418,0-8,3.582-8,8v216c0,4.418,3.582,8,8,8h128c4.418,0,8-3.582,8-8V20
	C200,15.582,196.418,12,192,12L192,12z"/>
<path style="fill:#F2F2F2;" d="M192,16c2.206,0,4,1.794,4,4v216c0,2.206-1.794,4-4,4H64c-2.206,0-4-1.794-4-4V20
	c0-2.206,1.794-4,4-4H192"/>
<rect x="80" y="80" style="fill:#CCCCCC;" width="96" height="16"/>
<rect x="120" y="180" style="fill:#262626;" width="16" height="16"/>
<rect x="140" y="96" style="fill:#A3834A;" width="4" height="4"/>
<g>
	<path style="fill:#A3834A;" d="M70,21c2.757,0,5,2.243,5,5s-2.243,5-5,5s-5-2.243-5-5S67.243,21,70,21 M70,20c-3.314,0-6,2.686-6,6
		s2.686,6,6,6s6-2.686,6-6S73.314,20,70,20L70,20z"/>
</g>
<path style="fill:#BF9A57;" d="M70,23c1.654,0,3,1.346,3,3s-1.346,3-3,3s-3-1.346-3-3S68.346,23,70,23 M70,22c-2.206,0-4,1.794-4,4
	s1.794,4,4,4s4-1.794,4-4S72.206,22,70,22L70,22z"/>
<g>
	<path style="fill:#A3834A;" d="M186,21c2.757,0,5,2.243,5,5s-2.243,5-5,5s-5-2.243-5-5S183.243,21,186,21 M186,20
		c-3.314,0-6,2.686-6,6s2.686,6,6,6s6-2.686,6-6S189.314,20,186,20L186,20z"/>
</g>
<path style="fill:#BF9A57;" d="M186,23c1.654,0,3,1.346,3,3s-1.346,3-3,3s-3-1.346-3-3S184.346,23,186,23 M186,22
	c-2.206,0-4,1.794-4,4s1.794,4,4,4s4-1.794,4-4S188.206,22,186,22L186,22z"/>
<g>
	<path style="fill:#A3834A;" d="M70,225c2.757,0,5,2.243,5,5s-2.243,5-5,5s-5-2.243-5-5S67.243,225,70,225 M70,224
		c-3.314,0-6,2.686-6,6s2.686,6,6,6s6-2.686,6-6S73.314,224,70,224L70,224z"/>
</g>
<path style="fill:#BF9A57;" d="M70,227c1.654,0,3,1.346,3,3s-1.346,3-3,3s-3-1.346-3-3S68.346,227,70,227 M70,226
	c-2.206,0-4,1.794-4,4s1.794,4,4,4s4-1.794,4-4S72.206,226,70,226L70,226z"/>
<g>
	<path style="fill:#A3834A;" d="M186,225c2.757,0,5,2.243,5,5s-2.243,5-5,5s-5-2.243-5-5S183.243,225,186,225 M186,224
		c-3.314,0-6,2.686-6,6s2.686,6,6,6s6-2.686,6-6S189.314,224,186,224L186,224z"/>
</g>
<path style="fill:#BF9A57;" d="M186,227c1.654,0,3,1.346,3,3s-1.346,3-3,3s-3-1.346-3-3S184.346,227,186,227 M186,226
	c-2.206,0-4,1.794-4,4s1.794,4,4,4s4-1.794,4-4S188.206,226,186,226L186,226z"/>
<circle style="fill:#D9D9D9;" cx="70" cy="230" r="2"/>
<circle style="fill:#D9D9D9;" cx="186" cy="230" r="2"/>
<circle style="fill:#D9D9D9;" cx="70" cy="26" r="2"/>
<circle style="fill:#D9D9D9;" cx="186" cy="26" r="2"/>
<rect x="180" y="72" style="fill:#262626;" width="8" height="16"/>
<rect x="180" y="60" style="fill:#262626;" width="8" height="4"/>
<rect x="180" y="54" style="fill:#808080;" width="8" height="2"/>
<rect x="180" y="48" style="fill:#808080;" width="8" height="2"/>
<rect x="180" y="42" style="fill:#808080;" width="8" height="2"/>
<rect x="64" y="50" style="fill:#808080;" width="8" height="2"/>
<rect x="64" y="44" style="fill:#808080;" width="8" height="2"/>
<rect x="64" y="38" style="fill:#808080;" width="8" height="2"/>
<rect x="64" y="76" style="fill:#262626;" width="8" height="4"/>
<rect x="64" y="84" style="fill:#262626;" width="8" height="4"/>
<g>
	<rect x="66" y="38" style="fill:#BF9A57;" width="4" height="2"/>
</g>
<rect x="64" y="68" style="fill:#808080;" width="8" height="2"/>
<g>
	<rect x="66" y="68" style="fill:#BF9A57;" width="4" height="2"/>
</g>
<rect x="64" y="92" style="fill:#808080;" width="8" height="2"/>
<g>
	<rect x="66" y="92" style="fill:#BF9A57;" width="4" height="2"/>
</g>
<g>
	<rect x="66" y="58" style="fill:#BF9A57;" width="4" height="4"/>
</g>
<rect x="66" y="44" style="fill:#262626;" width="4" height="2"/>
<rect x="66" y="50" style="fill:#262626;" width="4" height="2"/>
<rect x="182" y="42" style="fill:#262626;" width="4" height="2"/>
<rect x="182" y="48" style="fill:#262626;" width="4" height="2"/>
<g>
	<rect x="182" y="54" style="fill:#BF9A57;" width="4" height="2"/>
</g>
<rect x="84" y="16" style="fill:#CCCCCC;" width="16" height="8"/>
<rect x="88" y="12" style="fill:#585858;" width="4" height="4"/>
<rect x="92" y="12" style="fill:#FFCC99;" width="4" height="4"/>
<rect x="96" y="12" style="fill:#585858;" width="2" height="4"/>
<rect x="152.101" y="194.101" transform="matrix(0.7071 0.7071 -0.7071 0.7071 191.6985 -54.8011)" style="fill:#262626;" width="19.799" height="19.799"/>
<rect x="92" y="236" style="fill:#D9D9D9;" width="4" height="4"/>
<rect x="92" y="240" style="fill:#CCCCCC;" width="4" height="4"/>
<polygon style="fill:#262626;" points="98,228 96,228 92,228 90,228 90,232 92,232 92,236 96,236 96,232 98,232 "/>
<path style="fill:#E6E6E6;" d="M176,104V32v-4h-4H84h-4v4v72H60v4h136v-4H176z M84,104V32h88v72H84z"/>
<rect x="120" y="202" style="fill:#808080;" width="12" height="4"/>
<rect x="123" y="202" style="fill:#262626;" width="6" height="4"/>
<rect x="86" y="208" style="fill:#808080;" width="2" height="8"/>
<rect x="86" y="210" style="fill:#262626;" width="2" height="4"/>
<rect x="92" y="208" style="fill:#808080;" width="2" height="8"/>
<rect x="92" y="210" style="fill:#262626;" width="2" height="4"/>
<rect x="98" y="208" style="fill:#808080;" width="2" height="8"/>
<rect x="98" y="210" style="fill:#262626;" width="2" height="4"/>
<rect x="86" y="218" style="fill:#808080;" width="2" height="8"/>
<g>
	<rect x="86" y="220" style="fill:#BF9A57;" width="2" height="4"/>
</g>
<rect x="92" y="218" style="fill:#808080;" width="2" height="8"/>
<g>
	<rect x="92" y="220" style="fill:#BF9A57;" width="2" height="4"/>
</g>
<rect x="98" y="218" style="fill:#808080;" width="2" height="8"/>
<g>
	<rect x="98" y="220" style="fill:#BF9A57;" width="2" height="4"/>
</g>
<rect x="104" y="208" style="fill:#808080;" width="2" height="8"/>
<rect x="104" y="210" style="fill:#262626;" width="2" height="4"/>
<rect x="124" y="208" style="fill:#808080;" width="2" height="8"/>
<rect x="124" y="210" style="fill:#262626;" width="2" height="4"/>
<rect x="130" y="208" style="fill:#808080;" width="2" height="8"/>
<rect x="130" y="210" style="fill:#262626;" width="2" height="4"/>
<rect x="142" y="200" style="fill:#808080;" width="2" height="8"/>
<rect x="142" y="202" style="fill:#262626;" width="2" height="4"/>
<g>
	<rect x="161" y="182" transform="matrix(-1.836970e-16 1 -1 -1.836970e-16 348 24)" style="fill:#808080;" width="2" height="8"/>
	<rect x="161" y="184" transform="matrix(-1.836970e-16 1 -1 -1.836970e-16 348 24)" style="fill:#262626;" width="2" height="4"/>
	<rect x="161" y="218" transform="matrix(-1.836970e-16 1 -1 -1.836970e-16 384 60)" style="fill:#808080;" width="2" height="8"/>
	<rect x="161" y="220" transform="matrix(-1.836970e-16 1 -1 -1.836970e-16 384 60)" style="fill:#262626;" width="2" height="4"/>
</g>
<g>
	
		<rect x="173.728" y="187.272" transform="matrix(-0.7071 0.7071 -0.7071 -0.7071 433.529 202.9707)" style="fill:#808080;" width="2" height="8"/>
	
		<rect x="173.728" y="189.272" transform="matrix(-0.7071 0.7071 -0.7071 -0.7071 433.529 202.9707)" style="fill:#262626;" width="2" height="4"/>
	
		<rect x="148.272" y="212.728" transform="matrix(-0.7071 0.7071 -0.7071 -0.7071 408.0731 264.4265)" style="fill:#808080;" width="2" height="8"/>
	
		<rect x="148.272" y="214.728" transform="matrix(-0.7071 0.7071 -0.7071 -0.7071 408.0731 264.4265)" style="fill:#262626;" width="2" height="4"/>
</g>
<g>
	
		<rect x="148.272" y="187.536" transform="matrix(0.7071 0.7071 -0.7071 0.7071 179.1568 -49.4518)" style="fill:#808080;" width="2" height="8"/>
	
		<rect x="148.272" y="189.536" transform="matrix(0.7071 0.7071 -0.7071 0.7071 179.1568 -49.4518)" style="fill:#262626;" width="2" height="4"/>
	
		<rect x="173.728" y="212.991" transform="matrix(0.7071 0.7071 -0.7071 0.7071 204.6126 -59.996)" style="fill:#808080;" width="2" height="8"/>
	
		<rect x="173.728" y="214.991" transform="matrix(0.7071 0.7071 -0.7071 0.7071 204.6126 -59.996)" style="fill:#262626;" width="2" height="4"/>
</g>
<polygon style="fill:#262626;" points="140,224 140,220 136,220 136,222 134,224 122,224 120,222 120,220 116,220 116,224 120,224 
	120,232 116,232 116,236 120,236 120,240 136,240 136,236 140,236 140,232 136,232 136,224 "/>
<g>
	<rect x="118" y="220" style="fill:#BF9A57;" width="2" height="20"/>
</g>
<g>
	<rect x="136" y="220" style="fill:#BF9A57;" width="2" height="20"/>
</g>
<rect x="166" y="220" style="fill:#BF9A57;" width="1" height="4"/>
<path style="fill:#E6E6E6;" d="M176,136c-8.223,0-15.011,6.237-15.896,14.228c-2.38-1.406-5.145-2.228-8.104-2.228
	c-8.822,0-16,7.178-16,16s7.178,16,16,16c8.223,0,15.011-6.237,15.896-14.228c2.38,1.406,5.145,2.228,8.104,2.228
	c8.822,0,16-7.178,16-16S184.822,136,176,136z"/>
<path style="fill:#262626;" d="M80,32v52c0,6.627,5.373,12,12,12h20v4h28v-4h27c2.761,0,5-2.239,5-5v-3c2.209,0,4-1.791,4-4v-4V32
	H80z"/>
<polygon style="fill:#333333;" points="88,84 80,84 80,76 "/>
<polygon style="fill:#333333;" points="168,84 176,84 176,76 "/>
<circle style="fill:#FF0000;" cx="152" cy="164" r="12"/>
<circle style="fill:#FF0000;" cx="176" cy="152" r="12"/>
<rect x="124" y="108" style="fill:#808080;" width="8" height="4"/>
<g>
	<rect x="126" y="108" style="fill:#BF9A57;" width="4" height="4"/>
</g>
<rect x="114" y="108" style="fill:#808080;" width="8" height="4"/>
<g>
	<rect x="116" y="108" style="fill:#BF9A57;" width="4" height="4"/>
</g>
<rect x="104" y="108" style="fill:#808080;" width="8" height="4"/>
<g>
	<rect x="106" y="108" style="fill:#BF9A57;" width="4" height="4"/>
</g>
<rect x="144" y="108" style="fill:#808080;" width="8" height="4"/>
<g>
	<rect x="146" y="108" style="fill:#BF9A57;" width="4" height="4"/>
</g>
<rect x="134" y="108" style="fill:#808080;" width="8" height="4"/>
<g>
	<rect x="136" y="108" style="fill:#BF9A57;" width="4" height="4"/>
</g>
<path style="fill:#E6E6E6;" d="M105.586,120h-20c-3.308,0-6,2.692-6,6v13.172c0,0.286,0.02,0.569,0.059,0.847
	C79.488,140.006,79.33,140,79.172,140H66c-3.308,0-6,2.692-6,6v20c0,3.308,2.692,6,6,6h13.172c0.139,0,0.277-0.005,0.414-0.014
	c0,0.005,0,0.009,0,0.014v13.172c0,3.308,2.692,6,6,6h20c3.308,0,6-2.692,6-6V172c0-0.005,0-0.009,0-0.014
	c0.137,0.009,0.275,0.014,0.414,0.014h13.172c3.308,0,6-2.692,6-6v-20c0-3.308-2.692-6-6-6H112c-0.159,0-0.316,0.006-0.473,0.018
	c0.039-0.278,0.059-0.561,0.059-0.847V126C111.586,122.692,108.894,120,105.586,120L105.586,120z"/>
<path style="fill:#1A1A1A;" d="M80.586,144.586l10,10c0.781,0.781,0.781,2.047,0,2.828l-10,10c-0.375,0.375-0.884,0.586-1.414,0.586
	H66c-1.105,0-2-0.895-2-2v-20c0-1.105,0.895-2,2-2h13.172C79.702,144,80.211,144.211,80.586,144.586z M112,168h13.172
	c1.105,0,2-0.895,2-2v-20c0-1.105-0.895-2-2-2H112c-0.53,0-1.039,0.211-1.414,0.586l-10,10c-0.781,0.781-0.781,2.047,0,2.828l10,10
	C110.961,167.789,111.47,168,112,168z M107.586,139.172V126c0-1.105-0.895-2-2-2h-20c-1.105,0-2,0.895-2,2v13.172
	c0,0.53,0.211,1.039,0.586,1.414l10,10c0.781,0.781,2.047,0.781,2.828,0l10-10C107.375,140.211,107.586,139.702,107.586,139.172z
	 M83.586,172v13.172c0,1.105,0.895,2,2,2h20c1.105,0,2-0.895,2-2V172c0-0.53-0.211-1.039-0.586-1.414l-10-10
	c-0.781-0.781-2.047-0.781-2.828,0l-10,10C83.797,170.961,83.586,171.47,83.586,172z"/>
<rect x="64" y="12" style="fill:#E6E6E6;" width="12" height="4"/>
<rect x="180" y="12" style="fill:#E6E6E6;" width="12" height="4"/>
<rect x="64" y="240" style="fill:#E6E6E6;" width="12" height="4"/>
<rect x="180" y="240" style="fill:#E6E6E6;" width="12" height="4"/>
<rect x="118" y="240" style="fill:#CCCCCC;" width="20" height="4"/>
</svg>
