<?xml version="1.0" encoding="iso-8859-1"?>
<!-- Generator: Adobe Illustrator 27.8.1, SVG Export Plug-In . SVG Version: 6.00 Build 0)  -->
<svg version="1.1" id="Layer_1" xmlns="http://www.w3.org/2000/svg" xmlns:xlink="http://www.w3.org/1999/xlink" x="0px" y="0px"
	 viewBox="0 0 256 256" style="enable-background:new 0 0 256 256;" xml:space="preserve">
<polygon style="opacity:0.5;fill:#FFFFFF;" points="247.657,50.343 239.657,42.343 237.314,40 234,40 230,40 26,40 22,40 18.686,40 
	16.343,42.343 8.343,50.343 6,52.686 6,56 6,208 6,216 14,216 242,216 250,216 250,208 250,56 250,52.686 "/>
<rect x="16" y="52" style="fill:#404040;" width="220" height="144"/>
<rect x="24" y="48" style="fill:#4D4D4D;" width="204" height="56"/>
<polygon style="fill:#1A1A1A;" points="224,128 28,128 24,104 228,104 "/>
<polygon style="fill:#A3834A;" points="240,208 12,208 16,196 236,196 "/>
<path style="fill:#D9AF63;" d="M202,132h-82h-2H76v60h42h2h82c1.105,0,2-0.895,2-2v-56C204,132.895,203.105,132,202,132z M202,190
	h-82v-56h82V190z"/>
<rect x="82" y="140" style="fill:#1A1A1A;" width="6" height="4"/>
<rect x="90" y="140" style="fill:#1A1A1A;" width="6" height="4"/>
<rect x="98" y="140" style="fill:#1A1A1A;" width="6" height="4"/>
<rect x="106" y="140" style="fill:#1A1A1A;" width="6" height="4"/>
<rect x="82" y="148" style="fill:#1A1A1A;" width="6" height="4"/>
<rect x="90" y="148" style="fill:#1A1A1A;" width="6" height="4"/>
<rect x="98" y="148" style="fill:#1A1A1A;" width="6" height="4"/>
<rect x="106" y="148" style="fill:#1A1A1A;" width="6" height="4"/>
<rect x="82" y="156" style="fill:#1A1A1A;" width="6" height="4"/>
<rect x="90" y="156" style="fill:#1A1A1A;" width="6" height="4"/>
<rect x="98" y="156" style="fill:#1A1A1A;" width="6" height="4"/>
<rect x="106" y="156" style="fill:#1A1A1A;" width="6" height="4"/>
<rect x="82" y="164" style="fill:#1A1A1A;" width="6" height="4"/>
<rect x="90" y="164" style="fill:#1A1A1A;" width="6" height="4"/>
<rect x="98" y="164" style="fill:#1A1A1A;" width="6" height="4"/>
<rect x="106" y="164" style="fill:#1A1A1A;" width="6" height="4"/>
<rect x="82" y="172" style="fill:#1A1A1A;" width="6" height="4"/>
<rect x="90" y="172" style="fill:#1A1A1A;" width="6" height="4"/>
<rect x="98" y="172" style="fill:#1A1A1A;" width="6" height="4"/>
<rect x="106" y="172" style="fill:#1A1A1A;" width="6" height="4"/>
<rect x="82" y="180" style="fill:#1A1A1A;" width="6" height="4"/>
<rect x="90" y="180" style="fill:#1A1A1A;" width="6" height="4"/>
<rect x="98" y="180" style="fill:#1A1A1A;" width="6" height="4"/>
<rect x="106" y="180" style="fill:#1A1A1A;" width="6" height="4"/>
<rect x="128" y="144" style="fill:#1A1A1A;" width="64" height="12"/>
<rect x="128" y="156" style="fill:#333333;" width="64" height="16"/>
<rect x="148" y="176" style="fill:#333333;" width="20" height="8"/>
<rect x="148" y="184" style="fill:#262626;" width="20" height="4"/>
<rect x="132" y="176" style="fill:#333333;" width="12" height="8"/>
<path style="fill:#262626;" d="M174.343,176h-28.686c-1.061,0-2.078-0.421-2.828-1.172L140,172h40l-2.828,2.828
	C176.421,175.579,175.404,176,174.343,176z"/>
<rect x="124" y="112" style="fill:#A3834A;" width="72" height="12"/>
<circle style="fill:#1A1A1A;" cx="62" cy="138" r="2"/>
<polygon style="fill:#262626;" points="24,104 28,128 16,196 "/>
<polygon style="fill:#262626;" points="228,104 224,128 236,196 "/>
<polygon style="fill:#D9AF63;" points="24,48 20,48 12,56 12,208 16,196 24,104 "/>
<polygon style="fill:#D9AF63;" points="228,48 232,48 240,56 240,208 236,196 228,104 "/>
<rect x="132" y="144" style="fill:#262626;" width="56" height="8"/>
<rect x="126" y="114" style="fill:#A6A390;" width="34" height="8"/>
<rect x="160" y="114" style="fill:#B80000;" width="34" height="8"/>
</svg>
