<svg xmlns="http://www.w3.org/2000/svg" xml:space="preserve" viewBox="0 0 256 256"><path d="m247.657 50.343-8-8L237.314 40H18.686l-2.343 2.343-8 8L6 52.686V216h244V52.686z" style="opacity:.5;fill:#fff"/><path d="M16 52h220v144H16z" style="fill:#404040"/><path d="M24 48h204v56H24z" style="fill:#4d4d4d"/><path d="M224 128H28l-4-24h204z" style="fill:#1a1a1a"/><path d="M240 208H12l4-12h220z" style="fill:#a3834a"/><path d="M202 132H76v60h126a2 2 0 0 0 2-2v-56a2 2 0 0 0-2-2m0 58h-82v-56h82z" style="fill:#d9af63"/><path d="M82 140h6v4h-6zm8 0h6v4h-6zm8 0h6v4h-6zm8 0h6v4h-6zm-24 8h6v4h-6zm8 0h6v4h-6zm8 0h6v4h-6zm8 0h6v4h-6zm-24 8h6v4h-6zm8 0h6v4h-6zm8 0h6v4h-6zm8 0h6v4h-6zm-24 8h6v4h-6zm8 0h6v4h-6zm8 0h6v4h-6zm8 0h6v4h-6zm-24 8h6v4h-6zm8 0h6v4h-6zm8 0h6v4h-6zm8 0h6v4h-6zm-24 8h6v4h-6zm8 0h6v4h-6zm8 0h6v4h-6zm8 0h6v4h-6zm22-36h64v12h-64z" style="fill:#1a1a1a"/><path d="M128 156h64v16h-64zm20 20h20v8h-20z" style="fill:#333"/><path d="M148 184h20v4h-20z" style="fill:#262626"/><path d="M132 176h12v8h-12z" style="fill:#333"/><path d="M174.343 176h-28.686a4 4 0 0 1-2.828-1.172L140 172h40l-2.828 2.828a4 4 0 0 1-2.829 1.172" style="fill:#262626"/><path d="M124 112h72v12h-72z" style="fill:#a3834a"/><circle cx="62" cy="138" r="2" style="fill:#1a1a1a"/><path d="m24 104 4 24-12 68zm204 0-4 24 12 68z" style="fill:#262626"/><path d="M24 48h-4l-8 8v152l4-12 8-92zm204 0h4l8 8v152l-4-12-8-92z" style="fill:#d9af63"/><path d="M132 144h56v8h-56z" style="fill:#262626"/><path d="M126 114h34v8h-34z" style="fill:#a6a390"/><path d="M160 114h34v8h-34z" style="fill:#b80000"/></svg>