<?xml version="1.0" encoding="UTF-8" standalone="no"?>
<svg
   xmlns:dc="http://purl.org/dc/elements/1.1/"
   xmlns:cc="http://creativecommons.org/ns#"
   xmlns:rdf="http://www.w3.org/1999/02/22-rdf-syntax-ns#"
   xmlns:svg="http://www.w3.org/2000/svg"
   xmlns="http://www.w3.org/2000/svg"
   viewBox="0 0 330.66665 157.33333"
   height="157.33333"
   width="330.66666"
   xml:space="preserve"
   id="svg2"
   version="1.1"><metadata
     id="metadata8"><rdf:RDF><cc:Work
         rdf:about=""><dc:format>image/svg+xml</dc:format><dc:type
           rdf:resource="http://purl.org/dc/dcmitype/StillImage" /></cc:Work></rdf:RDF></metadata><defs
     id="defs6"><clipPath
       id="clipPath18"
       clipPathUnits="userSpaceOnUse"><path
         id="path16"
         d="M 0,256 H 256 V 0 H 0 Z" /></clipPath><clipPath
       id="clipPath26"
       clipPathUnits="userSpaceOnUse"><path
         id="path24"
         d="M 4,187 H 252 V 69 H 4 Z" /></clipPath></defs><g
     transform="matrix(1.3333333,0,0,-1.3333333,-5.3333332,249.33333)"
     id="g10"><g
       id="g12"><g
         clip-path="url(#clipPath18)"
         id="g14"><g
           id="g20"><g
             id="g22" /><g
             id="g32"><g
               style="opacity:0.5"
               id="g30"
               clip-path="url(#clipPath26)"><path
                 id="path28"
                 style="fill:#ffffff;fill-opacity:1;fill-rule:nonzero;stroke:none"
                 d="M 4,69 H 252 V 187 H 4 Z" /></g></g></g></g></g><path
       id="path34"
       style="fill:#b3b3b3;fill-opacity:1;fill-rule:nonzero;stroke:none"
       d="M 242,125.501 H 14 V 156 h 228 z" /><path
       id="path36"
       style="fill:#bfbfbf;fill-opacity:1;fill-rule:nonzero;stroke:none"
       d="M 244,152 H 12 v 28 h 232 z" /><g
       transform="translate(244,128)"
       id="g38"><path
         id="path40"
         style="fill:#bfbfbf;fill-opacity:1;fill-rule:nonzero;stroke:none"
         d="M 0,0 H -218.407 -232 V -52 H 0 Z" /></g><g
       transform="translate(32.2328,156)"
       id="g42"><path
         id="path44"
         style="fill:#808080;fill-opacity:1;fill-rule:nonzero;stroke:none"
         d="M 0,0 31.408,24 H 27.175 L -4.233,0 Z" /></g><g
       transform="translate(41.6657,156)"
       id="g46"><path
         id="path48"
         style="fill:#808080;fill-opacity:1;fill-rule:nonzero;stroke:none"
         d="M 0,0 31.408,24 H 27.175 L -4.233,0 Z" /></g><g
       transform="translate(51.0986,156)"
       id="g50"><path
         id="path52"
         style="fill:#808080;fill-opacity:1;fill-rule:nonzero;stroke:none"
         d="M 0,0 31.408,24 H 27.175 L -4.233,0 Z" /></g><g
       transform="translate(60.5315,156)"
       id="g54"><path
         id="path56"
         style="fill:#808080;fill-opacity:1;fill-rule:nonzero;stroke:none"
         d="M 0,0 31.408,24 H 27.175 L -4.233,0 Z" /></g><g
       transform="translate(69.9644,156)"
       id="g58"><path
         id="path60"
         style="fill:#808080;fill-opacity:1;fill-rule:nonzero;stroke:none"
         d="M 0,0 31.408,24 H 27.175 L -4.233,0 Z" /></g><g
       transform="translate(79.3973,156)"
       id="g62"><path
         id="path64"
         style="fill:#808080;fill-opacity:1;fill-rule:nonzero;stroke:none"
         d="M 0,0 31.408,24 H 27.175 L -4.233,0 Z" /></g><g
       transform="translate(88.8302,156)"
       id="g66"><path
         id="path68"
         style="fill:#808080;fill-opacity:1;fill-rule:nonzero;stroke:none"
         d="M 0,0 31.408,24 H 27.175 L -4.233,0 Z" /></g><g
       transform="translate(98.2631,156)"
       id="g70"><path
         id="path72"
         style="fill:#808080;fill-opacity:1;fill-rule:nonzero;stroke:none"
         d="M 0,0 31.408,24 H 27.175 L -4.233,0 Z" /></g><g
       transform="translate(107.696,156)"
       id="g74"><path
         id="path76"
         style="fill:#808080;fill-opacity:1;fill-rule:nonzero;stroke:none"
         d="M 0,0 31.408,24 H 27.175 L -4.233,0 Z" /></g><g
       transform="translate(117.1288,156)"
       id="g78"><path
         id="path80"
         style="fill:#808080;fill-opacity:1;fill-rule:nonzero;stroke:none"
         d="M 0,0 31.408,24 H 27.175 L -4.233,0 Z" /></g><g
       transform="translate(126.5618,156)"
       id="g82"><path
         id="path84"
         style="fill:#808080;fill-opacity:1;fill-rule:nonzero;stroke:none"
         d="M 0,0 31.408,24 H 27.175 L -4.233,0 Z" /></g><g
       transform="translate(135.9946,156)"
       id="g86"><path
         id="path88"
         style="fill:#808080;fill-opacity:1;fill-rule:nonzero;stroke:none"
         d="M 0,0 31.408,24 H 27.175 L -4.233,0 Z" /></g><g
       transform="translate(145.4275,156)"
       id="g90"><path
         id="path92"
         style="fill:#808080;fill-opacity:1;fill-rule:nonzero;stroke:none"
         d="M 0,0 31.408,24 H 27.175 L -4.233,0 Z" /></g><g
       transform="translate(154.8604,156)"
       id="g94"><path
         id="path96"
         style="fill:#808080;fill-opacity:1;fill-rule:nonzero;stroke:none"
         d="M 0,0 31.408,24 H 27.175 L -4.233,0 Z" /></g><g
       transform="translate(164.2933,156)"
       id="g98"><path
         id="path100"
         style="fill:#808080;fill-opacity:1;fill-rule:nonzero;stroke:none"
         d="M 0,0 31.408,24 H 27.175 L -4.233,0 Z" /></g><g
       transform="translate(173.7262,156)"
       id="g102"><path
         id="path104"
         style="fill:#808080;fill-opacity:1;fill-rule:nonzero;stroke:none"
         d="M 0,0 31.408,24 H 27.175 L -4.233,0 Z" /></g><g
       transform="translate(183.1591,156)"
       id="g106"><path
         id="path108"
         style="fill:#808080;fill-opacity:1;fill-rule:nonzero;stroke:none"
         d="M 0,0 31.408,24 H 27.175 L -4.233,0 Z" /></g><g
       transform="translate(192.592,156)"
       id="g110"><path
         id="path112"
         style="fill:#808080;fill-opacity:1;fill-rule:nonzero;stroke:none"
         d="M 0,0 31.408,24 H 27.175 L -4.233,0 Z" /></g><path
       id="path114"
       style="fill:#bfbfbf;fill-opacity:1;fill-rule:nonzero;stroke:none"
       d="M 244,148 H 12 v -16 h 232 z" /><g
       transform="translate(156.706,129.6914)"
       id="g116"><path
         id="path118"
         style="fill:#808080;fill-opacity:1;fill-rule:nonzero;stroke:none"
         d="m 0,0 h -11.471 l 4.556,3.668 4.028,2.949 H 9.039 Z m -13.236,0 h -11.472 l 4.555,3.667 4.03,2.95 H -4.502 L -7.551,4.162 Z m -13.237,0 h -11.471 l 4.556,3.668 4.029,2.949 h 11.621 L -20.789,4.161 Z M -39.709,0 H -51.18 l 4.556,3.668 4.028,2.949 h 11.622 l -3.05,-2.455 z m -13.236,0 h -11.472 l 4.555,3.667 4.03,2.95 h 11.621 L -47.26,4.162 Z m -13.237,0 h -11.471 l 4.556,3.668 4.029,2.949 h 11.621 l -3.051,-2.456 z m -13.236,0 h -11.471 l 4.556,3.668 4.028,2.949 h 11.622 l -3.05,-2.455 z m -13.236,0 h -11.472 l 4.555,3.667 4.03,2.95 h 11.621 l -3.049,-2.455 z m -13.237,0 h -11.471 l 4.556,3.668 4.029,2.949 h 11.621 l -3.051,-2.456 z m -13.236,0 h -11.471 l 8.218,6.617 h 11.988 l -3.05,-2.455 z m -3.643,7.309 -9.936,-8 H 0.365 l 10.929,8 z" /></g><g
       transform="translate(176,138)"
       id="g120"><path
         id="path122"
         style="fill:#b3b3b3;fill-opacity:1;fill-rule:nonzero;stroke:none"
         d="M 0,0 3.805,4 H 52 L 48.119,0 Z" /></g><path
       id="path124"
       style="fill:#d9d9d9;fill-opacity:1;fill-rule:nonzero;stroke:none"
       d="m 24,116.075 h -8 v 8 h 8 z" /><path
       id="path126"
       style="fill:#d9d9d9;fill-opacity:1;fill-rule:nonzero;stroke:none"
       d="M 28,104.075 H 16 v 8 h 12 z" /><path
       id="path128"
       style="fill:#d9d9d9;fill-opacity:1;fill-rule:nonzero;stroke:none"
       d="m 36,116.075 h -8 v 8 h 8 z" /><path
       id="path130"
       style="fill:#d9d9d9;fill-opacity:1;fill-rule:nonzero;stroke:none"
       d="m 40,104.075 h -8 v 8 h 8 z" /><path
       id="path132"
       style="fill:#d9d9d9;fill-opacity:1;fill-rule:nonzero;stroke:none"
       d="m 44,92.075 h -8 v 8 h 8 z" /><path
       id="path134"
       style="fill:#d9d9d9;fill-opacity:1;fill-rule:nonzero;stroke:none"
       d="m 56,92.075 h -8 v 8 h 8 z" /><path
       id="path136"
       style="fill:#d9d9d9;fill-opacity:1;fill-rule:nonzero;stroke:none"
       d="m 68,92.075 h -8 v 8 h 8 z" /><path
       id="path138"
       style="fill:#d9d9d9;fill-opacity:1;fill-rule:nonzero;stroke:none"
       d="m 80,92.075 h -8 v 8 h 8 z" /><path
       id="path140"
       style="fill:#d9d9d9;fill-opacity:1;fill-rule:nonzero;stroke:none"
       d="m 92,92.075 h -8 v 8 h 8 z" /><path
       id="path142"
       style="fill:#d9d9d9;fill-opacity:1;fill-rule:nonzero;stroke:none"
       d="m 104,92.075 h -8 v 8 h 8 z" /><path
       id="path144"
       style="fill:#d9d9d9;fill-opacity:1;fill-rule:nonzero;stroke:none"
       d="m 116,92.075 h -8 v 8 h 8 z" /><path
       id="path146"
       style="fill:#d9d9d9;fill-opacity:1;fill-rule:nonzero;stroke:none"
       d="m 128,92.075 h -8 v 8 h 8 z" /><path
       id="path148"
       style="fill:#d9d9d9;fill-opacity:1;fill-rule:nonzero;stroke:none"
       d="m 140,92.075 h -8 v 8 h 8 z" /><path
       id="path150"
       style="fill:#d9d9d9;fill-opacity:1;fill-rule:nonzero;stroke:none"
       d="m 52,104.075 h -8 v 8 h 8 z" /><path
       id="path152"
       style="fill:#d9d9d9;fill-opacity:1;fill-rule:nonzero;stroke:none"
       d="m 64,104.075 h -8 v 8 h 8 z" /><path
       id="path154"
       style="fill:#d9d9d9;fill-opacity:1;fill-rule:nonzero;stroke:none"
       d="m 76,104.075 h -8 v 8 h 8 z" /><path
       id="path156"
       style="fill:#d9d9d9;fill-opacity:1;fill-rule:nonzero;stroke:none"
       d="m 88,104.075 h -8 v 8 h 8 z" /><path
       id="path158"
       style="fill:#d9d9d9;fill-opacity:1;fill-rule:nonzero;stroke:none"
       d="m 100,104.075 h -8 v 8 h 8 z" /><path
       id="path160"
       style="fill:#d9d9d9;fill-opacity:1;fill-rule:nonzero;stroke:none"
       d="m 112,104.075 h -8 v 8 h 8 z" /><path
       id="path162"
       style="fill:#d9d9d9;fill-opacity:1;fill-rule:nonzero;stroke:none"
       d="m 124,104.075 h -8 v 8 h 8 z" /><path
       id="path164"
       style="fill:#d9d9d9;fill-opacity:1;fill-rule:nonzero;stroke:none"
       d="m 136,104.075 h -8 v 8 h 8 z" /><path
       id="path166"
       style="fill:#d9d9d9;fill-opacity:1;fill-rule:nonzero;stroke:none"
       d="m 164,104.075 h -8 v 8 h 8 z" /><path
       id="path168"
       style="fill:#d9d9d9;fill-opacity:1;fill-rule:nonzero;stroke:none"
       d="m 204,116.075 h -8 v 8 h 8 z" /><path
       id="path170"
       style="fill:#d9d9d9;fill-opacity:1;fill-rule:nonzero;stroke:none"
       d="m 216,116.075 h -8 v 8 h 8 z" /><path
       id="path172"
       style="fill:#d9d9d9;fill-opacity:1;fill-rule:nonzero;stroke:none"
       d="m 228,116.075 h -8 v 8 h 8 z" /><path
       id="path174"
       style="fill:#d9d9d9;fill-opacity:1;fill-rule:nonzero;stroke:none"
       d="m 240,116.075 h -8 v 8 h 8 z" /><path
       id="path176"
       style="fill:#d9d9d9;fill-opacity:1;fill-rule:nonzero;stroke:none"
       d="m 204,104.075 h -8 v 8 h 8 z" /><path
       id="path178"
       style="fill:#d9d9d9;fill-opacity:1;fill-rule:nonzero;stroke:none"
       d="m 216,104.075 h -8 v 8 h 8 z" /><path
       id="path180"
       style="fill:#d9d9d9;fill-opacity:1;fill-rule:nonzero;stroke:none"
       d="m 228,104.075 h -8 v 8 h 8 z" /><path
       id="path182"
       style="fill:#d9d9d9;fill-opacity:1;fill-rule:nonzero;stroke:none"
       d="m 240,104.075 h -8 v 8 h 8 z" /><path
       id="path184"
       style="fill:#d9d9d9;fill-opacity:1;fill-rule:nonzero;stroke:none"
       d="m 204,92.075 h -8 v 8 h 8 z" /><path
       id="path186"
       style="fill:#d9d9d9;fill-opacity:1;fill-rule:nonzero;stroke:none"
       d="m 216,92.075 h -8 v 8 h 8 z" /><path
       id="path188"
       style="fill:#d9d9d9;fill-opacity:1;fill-rule:nonzero;stroke:none"
       d="m 228,92.075 h -8 v 8 h 8 z" /><path
       id="path190"
       style="fill:#d9d9d9;fill-opacity:1;fill-rule:nonzero;stroke:none"
       d="m 204,80.075 h -8 v 8 h 8 z" /><path
       id="path192"
       style="fill:#d9d9d9;fill-opacity:1;fill-rule:nonzero;stroke:none"
       d="m 216,80.075 h -8 v 8 h 8 z" /><path
       id="path194"
       style="fill:#d9d9d9;fill-opacity:1;fill-rule:nonzero;stroke:none"
       d="m 228,80.075 h -8 v 8 h 8 z" /><path
       id="path196"
       style="fill:#d9d9d9;fill-opacity:1;fill-rule:nonzero;stroke:none"
       d="m 240,80.075 h -8 v 20 h 8 z" /><path
       id="path198"
       style="fill:#d9d9d9;fill-opacity:1;fill-rule:nonzero;stroke:none"
       d="m 176,104.075 h -8 v 8 h 8 z" /><path
       id="path200"
       style="fill:#d9d9d9;fill-opacity:1;fill-rule:nonzero;stroke:none"
       d="m 188,104.075 h -8 v 8 h 8 z" /><path
       id="path202"
       style="fill:#d9d9d9;fill-opacity:1;fill-rule:nonzero;stroke:none"
       d="m 164,92.075 h -8 v 8 h 8 z" /><path
       id="path204"
       style="fill:#d9d9d9;fill-opacity:1;fill-rule:nonzero;stroke:none"
       d="m 176,92.075 h -8 v 8 h 8 z" /><path
       id="path206"
       style="fill:#d9d9d9;fill-opacity:1;fill-rule:nonzero;stroke:none"
       d="m 188,92.075 h -8 v 8 h 8 z" /><path
       id="path208"
       style="fill:#d9d9d9;fill-opacity:1;fill-rule:nonzero;stroke:none"
       d="m 148,92.075 h -8 v 20 h 8 z" /><path
       id="path210"
       style="fill:#d9d9d9;fill-opacity:1;fill-rule:nonzero;stroke:none"
       d="m 48,116.075 h -8 v 8 h 8 z" /><path
       id="path212"
       style="fill:#d9d9d9;fill-opacity:1;fill-rule:nonzero;stroke:none"
       d="m 60,116.075 h -8 v 8 h 8 z" /><path
       id="path214"
       style="fill:#d9d9d9;fill-opacity:1;fill-rule:nonzero;stroke:none"
       d="m 72,116.075 h -8 v 8 h 8 z" /><path
       id="path216"
       style="fill:#d9d9d9;fill-opacity:1;fill-rule:nonzero;stroke:none"
       d="m 84,116.075 h -8 v 8 h 8 z" /><path
       id="path218"
       style="fill:#d9d9d9;fill-opacity:1;fill-rule:nonzero;stroke:none"
       d="m 96,116.075 h -8 v 8 h 8 z" /><path
       id="path220"
       style="fill:#d9d9d9;fill-opacity:1;fill-rule:nonzero;stroke:none"
       d="m 108,116.075 h -8 v 8 h 8 z" /><path
       id="path222"
       style="fill:#d9d9d9;fill-opacity:1;fill-rule:nonzero;stroke:none"
       d="m 120,116.075 h -8 v 8 h 8 z" /><path
       id="path224"
       style="fill:#d9d9d9;fill-opacity:1;fill-rule:nonzero;stroke:none"
       d="m 132,116.075 h -8 v 8 h 8 z" /><path
       id="path226"
       style="fill:#d9d9d9;fill-opacity:1;fill-rule:nonzero;stroke:none"
       d="m 148,116.075 h -12 v 8 h 12 z" /><path
       id="path228"
       style="fill:#d9d9d9;fill-opacity:1;fill-rule:nonzero;stroke:none"
       d="m 168,116.075 h -12 v 8 h 12 z" /><path
       id="path230"
       style="fill:#d9d9d9;fill-opacity:1;fill-rule:nonzero;stroke:none"
       d="m 188,116.075 h -12 v 8 h 12 z" /><path
       id="path232"
       style="fill:#d9d9d9;fill-opacity:1;fill-rule:nonzero;stroke:none"
       d="M 32,92.075 H 16 v 8.075 h 16 z" /><path
       id="path234"
       style="fill:#d9d9d9;fill-opacity:1;fill-rule:nonzero;stroke:none"
       d="M 32,80 H 16 v 8.075 h 16 z" /><path
       id="path236"
       style="fill:#d9d9d9;fill-opacity:1;fill-rule:nonzero;stroke:none"
       d="m 136,80 h -16 v 8.075 h 16 z" /><path
       id="path238"
       style="fill:#d9d9d9;fill-opacity:1;fill-rule:nonzero;stroke:none"
       d="M 116,80 H 36 v 8.075 h 80 z" /></g></svg>