<svg xmlns="http://www.w3.org/2000/svg" xml:space="preserve" width="330.666" height="170.666" viewBox="0 0 330.666 170.666"><defs><clipPath id="a" clipPathUnits="userSpaceOnUse"><path d="M0 256h256V0H0Z"/></clipPath><clipPath id="b" clipPathUnits="userSpaceOnUse"><path d="M4 192h248V64H4Z"/></clipPath></defs><g clip-path="url(#a)" transform="matrix(1.33333 0 0 -1.33333 -5.333 256)"><g clip-path="url(#b)" style="opacity:.5"><path d="m-5.127 104.868-49.502 7.92-.628.101h-121.271l-.628-.101-49.502-7.92c-7.365-.399-13.235-6.516-13.235-13.979v-90q0-.476.041-.956a14 14 0 0 1-.041-1.044c0-7.72 6.281-14 14-14h220c7.72 0 14 6.28 14 14q0 .518-.04 1.044.04.48.04.956v90c0 7.463-5.869 13.58-13.234 13.979" style="fill:#fff;fill-opacity:1;fill-rule:nonzero;stroke:none" transform="translate(243.893 79.111)"/></g><path d="m0 0-50 10h-120l-50-10a6 6 0 0 1-5.651-4H-226v-90a4 4 0 0 1 4-4H2a4 4 0 0 1 4 4v90h-.349A6 6 0 0 1 0 0" style="fill:#262626;fill-opacity:1;fill-rule:nonzero;stroke:none" transform="translate(238 174)"/><path d="M0 0h-220a6 6 0 0 0 0 12H0A6 6 0 0 0 0 0" style="fill:#191919;fill-opacity:1;fill-rule:nonzero;stroke:none" transform="translate(238 72)"/><path d="M0 0h220a6 6 0 0 0 5.651-4H226a6 6 0 0 1-6 6H0a6 6 0 0 1-6-6h.349C-4.827-1.671-2.611 0 0 0" style="fill:#595959;fill-opacity:1;fill-rule:nonzero;stroke:none" transform="translate(18 88)"/><path d="M236 88H20v2h216z" style="fill:#4c4c4c;fill-opacity:1;fill-rule:nonzero;stroke:none"/><path d="M0 0h220a6 6 0 0 0 5.651-4H226a6 6 0 0 1-6 6H0a6 6 0 0 1-6-6h.349C-4.827-1.671-2.611 0 0 0" style="fill:#595959;fill-opacity:1;fill-rule:nonzero;stroke:none" transform="translate(18 92)"/><path d="M236 92H20v2h216z" style="fill:#4c4c4c;fill-opacity:1;fill-rule:nonzero;stroke:none"/><path d="M0 0h220a6 6 0 0 0 5.651-4H226a6 6 0 0 1-6 6H0a6 6 0 0 1-6-6h.349C-4.827-1.671-2.611 0 0 0" style="fill:#595959;fill-opacity:1;fill-rule:nonzero;stroke:none" transform="translate(18 96)"/><path d="M236 96H20v2h216z" style="fill:#4c4c4c;fill-opacity:1;fill-rule:nonzero;stroke:none"/><path d="M0 0h220a6 6 0 0 0 5.651-4H226a6 6 0 0 1-6 6H0a6 6 0 0 1-6-6h.349C-4.827-1.671-2.611 0 0 0" style="fill:#595959;fill-opacity:1;fill-rule:nonzero;stroke:none" transform="translate(18 100)"/><path d="M236 100H20v2h216z" style="fill:#4c4c4c;fill-opacity:1;fill-rule:nonzero;stroke:none"/><path d="M0 0h220a6 6 0 0 0 5.651-4H226a6 6 0 0 1-6 6H0a6 6 0 0 1-6-6h.349C-4.827-1.671-2.611 0 0 0" style="fill:#595959;fill-opacity:1;fill-rule:nonzero;stroke:none" transform="translate(18 104)"/><path d="M236 104H20v2h216z" style="fill:#4c4c4c;fill-opacity:1;fill-rule:nonzero;stroke:none"/><path d="M0 0h220a6 6 0 0 0 5.651-4H226a6 6 0 0 1-6 6H0a6 6 0 0 1-6-6h.349C-4.827-1.671-2.611 0 0 0" style="fill:#595959;fill-opacity:1;fill-rule:nonzero;stroke:none" transform="translate(18 108)"/><path d="M236 108H20v2h216z" style="fill:#4c4c4c;fill-opacity:1;fill-rule:nonzero;stroke:none"/><path d="M0 0h220a6 6 0 0 0 5.651-4H226a6 6 0 0 1-6 6H0a6 6 0 0 1-6-6h.349C-4.827-1.671-2.611 0 0 0" style="fill:#595959;fill-opacity:1;fill-rule:nonzero;stroke:none" transform="translate(18 112)"/><path d="M236 112H20v2h216z" style="fill:#4c4c4c;fill-opacity:1;fill-rule:nonzero;stroke:none"/><path d="M0 0h220a6 6 0 0 0 5.651-4H226a6 6 0 0 1-6 6H0a6 6 0 0 1-6-6h.349C-4.827-1.671-2.611 0 0 0" style="fill:#595959;fill-opacity:1;fill-rule:nonzero;stroke:none" transform="translate(18 116)"/><path d="M236 116H20v2h216z" style="fill:#4c4c4c;fill-opacity:1;fill-rule:nonzero;stroke:none"/><path d="M0 0h220a6 6 0 0 0 5.651-4H226a6 6 0 0 1-6 6H0a6 6 0 0 1-6-6h.349C-4.827-1.671-2.611 0 0 0" style="fill:#595959;fill-opacity:1;fill-rule:nonzero;stroke:none" transform="translate(18 120)"/><path d="M236 120H20v2h216z" style="fill:#4c4c4c;fill-opacity:1;fill-rule:nonzero;stroke:none"/><path d="M0 0h220a6 6 0 0 0 5.651-4H226a6 6 0 0 1-6 6H0a6 6 0 0 1-6-6h.349C-4.827-1.671-2.611 0 0 0" style="fill:#595959;fill-opacity:1;fill-rule:nonzero;stroke:none" transform="translate(18 124)"/><path d="M236 124H20v2h216z" style="fill:#4c4c4c;fill-opacity:1;fill-rule:nonzero;stroke:none"/><path d="M0 0h220a6 6 0 0 0 5.651-4H226a6 6 0 0 1-6 6H0a6 6 0 0 1-6-6h.349C-4.827-1.671-2.611 0 0 0" style="fill:#595959;fill-opacity:1;fill-rule:nonzero;stroke:none" transform="translate(18 128)"/><path d="M0 0a6 6 0 0 1-6 6h-220a6 6 0 0 1-6-6v-2h.349c.824 2.329 3.04 4 5.651 4H-6A6 6 0 0 0-.349-2H0Z" style="fill:#595959;fill-opacity:1;fill-rule:nonzero;stroke:none" transform="translate(244 130)"/><path d="M0 0a6 6 0 0 1-6 6h-220a6 6 0 0 1-6-6v-2h.349c.824 2.329 3.04 4 5.651 4H-6A6 6 0 0 0-.349-2H0Z" style="fill:#595959;fill-opacity:1;fill-rule:nonzero;stroke:none" transform="translate(244 138)"/><path d="M236 128H20v2h216z" style="fill:#4c4c4c;fill-opacity:1;fill-rule:nonzero;stroke:none"/><path d="M36 148h184v4H36Zm8 8h168v4H44Zm-16-16h200v4H28Zm40 40h120v4H68Zm-48-48h216v4H20Zm40 40h136v4H60Zm-8-8h152v4H52Z" style="fill:#404040;fill-opacity:1;fill-rule:nonzero;stroke:none"/><path d="m0 0-42-6.72a6 6 0 0 1-6-6h.349c.824 2.329 3.04 4 5.651 4L0-4Z" style="fill:#595959;fill-opacity:1;fill-rule:nonzero;stroke:none" transform="translate(60 176)"/><path d="m0 0-34-5.44a6 6 0 0 1-6-6h.349c.824 2.329 3.04 4 5.651 4L0-4Z" style="fill:#595959;fill-opacity:1;fill-rule:nonzero;stroke:none" transform="translate(52 168)"/><path d="m0 0-26-4.16a6 6 0 0 1-6-6h.349c.824 2.329 3.04 4 5.651 4L0-4Z" style="fill:#595959;fill-opacity:1;fill-rule:nonzero;stroke:none" transform="translate(44 160)"/><path d="m0 0-18-2.88a6 6 0 0 1-6-6h.349c.824 2.329 3.04 4 5.651 4L0-4Z" style="fill:#595959;fill-opacity:1;fill-rule:nonzero;stroke:none" transform="translate(36 152)"/><path d="m0 0-10-1.6a6 6 0 0 1-6-6h.349c.824 2.329 3.04 4 5.651 4L0-4Z" style="fill:#595959;fill-opacity:1;fill-rule:nonzero;stroke:none" transform="translate(28 144)"/><path d="m0 0-50-8a6 6 0 0 1-6-6h.349c.824 2.329 3.04 4 5.651 4L0-4z" style="fill:#595959;fill-opacity:1;fill-rule:nonzero;stroke:none" transform="translate(68 184)"/><path d="m0 0 50-8a6 6 0 0 0 6-6h-.349A6 6 0 0 1 50-10L0-4Z" style="fill:#595959;fill-opacity:1;fill-rule:nonzero;stroke:none" transform="translate(188 184)"/><path d="m0 0 42-6.72a6 6 0 0 0 6-6h-.349a6 6 0 0 1-5.651 4L0-4Z" style="fill:#595959;fill-opacity:1;fill-rule:nonzero;stroke:none" transform="translate(196 176)"/><path d="m0 0 34-5.44a6 6 0 0 0 6-6h-.349a6 6 0 0 1-5.651 4L0-4Z" style="fill:#595959;fill-opacity:1;fill-rule:nonzero;stroke:none" transform="translate(204 168)"/><path d="m0 0 26-4.16a6 6 0 0 0 6-6h-.349a6 6 0 0 1-5.651 4L0-4Z" style="fill:#595959;fill-opacity:1;fill-rule:nonzero;stroke:none" transform="translate(212 160)"/><path d="m0 0 18-2.88a6 6 0 0 0 6-6h-.349a6 6 0 0 1-5.651 4L0-4Z" style="fill:#595959;fill-opacity:1;fill-rule:nonzero;stroke:none" transform="translate(220 152)"/><path d="m0 0 10-1.6a6 6 0 0 0 6-6h-.349A6 6 0 0 1 10-3.6L0-4Z" style="fill:#595959;fill-opacity:1;fill-rule:nonzero;stroke:none" transform="translate(228 144)"/></g></svg>