<svg xmlns="http://www.w3.org/2000/svg" xml:space="preserve" width="330.667" height="157.333" viewBox="0 0 330.667 157.333"><defs><clipPath id="a" clipPathUnits="userSpaceOnUse"><path d="M0 256h256V0H0Z"/></clipPath><clipPath id="b" clipPathUnits="userSpaceOnUse"><path d="M4 187h248V69H4Z"/></clipPath></defs><g clip-path="url(#a)" transform="matrix(1.33333 0 0 -1.33333 -5.333 249.333)"><g clip-path="url(#b)" style="opacity:.5"><path d="M4 69h248v118H4Z" style="fill:#fff;fill-opacity:1;fill-rule:nonzero;stroke:none"/></g></g><path d="M242 125.501H14V156h228z" style="fill:#b3b3b3;fill-opacity:1;fill-rule:nonzero;stroke:none" transform="matrix(1.33333 0 0 -1.33333 -5.333 249.333)"/><path d="M244 152H12v28h232z" style="fill:#bfbfbf;fill-opacity:1;fill-rule:nonzero;stroke:none" transform="matrix(1.33333 0 0 -1.33333 -5.333 249.333)"/><path d="M0 0h-232v-52H0Z" style="fill:#bfbfbf;fill-opacity:1;fill-rule:nonzero;stroke:none" transform="matrix(1.33333 0 0 -1.33333 320 78.667)"/><path d="m0 0 31.408 24h-4.233L-4.233 0Z" style="fill:gray;fill-opacity:1;fill-rule:nonzero;stroke:none" transform="matrix(1.33333 0 0 -1.33333 37.644 41.333)"/><path d="m0 0 31.408 24h-4.233L-4.233 0Z" style="fill:gray;fill-opacity:1;fill-rule:nonzero;stroke:none" transform="matrix(1.33333 0 0 -1.33333 50.22 41.333)"/><path d="m0 0 31.408 24h-4.233L-4.233 0Z" style="fill:gray;fill-opacity:1;fill-rule:nonzero;stroke:none" transform="matrix(1.33333 0 0 -1.33333 62.798 41.333)"/><path d="m0 0 31.408 24h-4.233L-4.233 0Z" style="fill:gray;fill-opacity:1;fill-rule:nonzero;stroke:none" transform="matrix(1.33333 0 0 -1.33333 75.375 41.333)"/><path d="m0 0 31.408 24h-4.233L-4.233 0Z" style="fill:gray;fill-opacity:1;fill-rule:nonzero;stroke:none" transform="matrix(1.33333 0 0 -1.33333 87.953 41.333)"/><path d="m0 0 31.408 24h-4.233L-4.233 0Z" style="fill:gray;fill-opacity:1;fill-rule:nonzero;stroke:none" transform="matrix(1.33333 0 0 -1.33333 100.53 41.333)"/><path d="m0 0 31.408 24h-4.233L-4.233 0Z" style="fill:gray;fill-opacity:1;fill-rule:nonzero;stroke:none" transform="matrix(1.33333 0 0 -1.33333 113.107 41.333)"/><path d="m0 0 31.408 24h-4.233L-4.233 0Z" style="fill:gray;fill-opacity:1;fill-rule:nonzero;stroke:none" transform="matrix(1.33333 0 0 -1.33333 125.684 41.333)"/><path d="m0 0 31.408 24h-4.233L-4.233 0Z" style="fill:gray;fill-opacity:1;fill-rule:nonzero;stroke:none" transform="matrix(1.33333 0 0 -1.33333 138.261 41.333)"/><path d="m0 0 31.408 24h-4.233L-4.233 0Z" style="fill:gray;fill-opacity:1;fill-rule:nonzero;stroke:none" transform="matrix(1.33333 0 0 -1.33333 150.838 41.333)"/><path d="m0 0 31.408 24h-4.233L-4.233 0Z" style="fill:gray;fill-opacity:1;fill-rule:nonzero;stroke:none" transform="matrix(1.33333 0 0 -1.33333 163.416 41.333)"/><path d="m0 0 31.408 24h-4.233L-4.233 0Z" style="fill:gray;fill-opacity:1;fill-rule:nonzero;stroke:none" transform="matrix(1.33333 0 0 -1.33333 175.993 41.333)"/><path d="m0 0 31.408 24h-4.233L-4.233 0Z" style="fill:gray;fill-opacity:1;fill-rule:nonzero;stroke:none" transform="matrix(1.33333 0 0 -1.33333 188.57 41.333)"/><path d="m0 0 31.408 24h-4.233L-4.233 0Z" style="fill:gray;fill-opacity:1;fill-rule:nonzero;stroke:none" transform="matrix(1.33333 0 0 -1.33333 201.147 41.333)"/><path d="m0 0 31.408 24h-4.233L-4.233 0Z" style="fill:gray;fill-opacity:1;fill-rule:nonzero;stroke:none" transform="matrix(1.33333 0 0 -1.33333 213.724 41.333)"/><path d="m0 0 31.408 24h-4.233L-4.233 0Z" style="fill:gray;fill-opacity:1;fill-rule:nonzero;stroke:none" transform="matrix(1.33333 0 0 -1.33333 226.302 41.333)"/><path d="m0 0 31.408 24h-4.233L-4.233 0Z" style="fill:gray;fill-opacity:1;fill-rule:nonzero;stroke:none" transform="matrix(1.33333 0 0 -1.33333 238.879 41.333)"/><path d="m0 0 31.408 24h-4.233L-4.233 0Z" style="fill:gray;fill-opacity:1;fill-rule:nonzero;stroke:none" transform="matrix(1.33333 0 0 -1.33333 251.456 41.333)"/><path d="M244 148H12v-16h232z" style="fill:#bfbfbf;fill-opacity:1;fill-rule:nonzero;stroke:none" transform="matrix(1.33333 0 0 -1.33333 -5.333 249.333)"/><path d="M0 0h-11.471l4.556 3.668 4.028 2.949H9.039Zm-13.236 0h-11.472l4.555 3.667 4.03 2.95h11.621l-3.049-2.455Zm-13.237 0h-11.471l4.556 3.668 4.029 2.949h11.621l-3.051-2.456Zm-13.236 0H-51.18l4.556 3.668 4.028 2.949h11.622l-3.05-2.455zm-13.236 0h-11.472l4.555 3.667 4.03 2.95h11.621l-3.049-2.455Zm-13.237 0h-11.471l4.556 3.668 4.029 2.949h11.621l-3.051-2.456zm-13.236 0h-11.471l4.556 3.668 4.028 2.949h11.622l-3.05-2.455zm-13.236 0h-11.472l4.555 3.667 4.03 2.95h11.621l-3.049-2.455zm-13.237 0h-11.471l4.556 3.668 4.029 2.949h11.621l-3.051-2.456zm-13.236 0h-11.471l8.218 6.617h11.988l-3.05-2.455zm-3.643 7.309-9.936-8H.365l10.929 8z" style="fill:gray;fill-opacity:1;fill-rule:nonzero;stroke:none" transform="matrix(1.33333 0 0 -1.33333 203.608 76.411)"/><path d="m0 0 3.805 4H52l-3.881-4Z" style="fill:#b3b3b3;fill-opacity:1;fill-rule:nonzero;stroke:none" transform="matrix(1.33333 0 0 -1.33333 229.333 65.333)"/><path d="M24 116.075h-8v8h8zm4-12H16v8h12zm8 12h-8v8h8zm4-12h-8v8h8zm4-12h-8v8h8zm12 0h-8v8h8zm12 0h-8v8h8zm12 0h-8v8h8zm12 0h-8v8h8zm12 0h-8v8h8zm12 0h-8v8h8zm12 0h-8v8h8zm12 0h-8v8h8zm-88 12h-8v8h8zm12 0h-8v8h8zm12 0h-8v8h8zm12 0h-8v8h8zm12 0h-8v8h8zm12 0h-8v8h8zm12 0h-8v8h8zm12 0h-8v8h8zm28 0h-8v8h8zm40 12h-8v8h8zm12 0h-8v8h8zm12 0h-8v8h8zm12 0h-8v8h8zm-36-12h-8v8h8zm12 0h-8v8h8zm12 0h-8v8h8zm12 0h-8v8h8zm-36-12h-8v8h8zm12 0h-8v8h8zm12 0h-8v8h8zm-24-12h-8v8h8zm12 0h-8v8h8zm12 0h-8v8h8zm12 0h-8v20h8zm-64 24h-8v8h8zm12 0h-8v8h8zm-24-12h-8v8h8zm12 0h-8v8h8zm12 0h-8v8h8zm-40 0h-8v20h8zm-100 24h-8v8h8zm12 0h-8v8h8zm12 0h-8v8h8zm12 0h-8v8h8zm12 0h-8v8h8zm12 0h-8v8h8zm12 0h-8v8h8zm12 0h-8v8h8zm16 0h-12v8h12zm20 0h-12v8h12zm20 0h-12v8h12zm-156-24H16v8.075h16zM32 80H16v8.075h16zm104 0h-16v8.075h16zm-20 0H36v8.075h80z" style="fill:#d9d9d9;fill-opacity:1;fill-rule:nonzero;stroke:none" transform="matrix(1.33333 0 0 -1.33333 -5.333 249.333)"/></svg>