<svg xmlns="http://www.w3.org/2000/svg" xml:space="preserve" width="319.999" height="330.666" viewBox="0 0 319.999 330.666"><defs><clipPath id="a" clipPathUnits="userSpaceOnUse"><path d="M0 256h256V0H0Z"/></clipPath><clipPath id="b" clipPathUnits="userSpaceOnUse"><path d="M8 252h240V4H8Z"/></clipPath></defs><g clip-path="url(#a)" transform="matrix(1.33333 0 0 -1.33333 -10.667 336)"><g clip-path="url(#b)" style="opacity:.5"><path d="M0 0a8 8 0 0 1-.722 1.598A46.6 46.6 0 0 1-5.55 8.271a8 8 0 0 1-1.556 1.388 58 58 0 0 1-1.734 1.76 8 8 0 0 1-1.356 1.625 69 69 0 0 1-4.527 3.802 8 8 0 0 1-.894.598v7.726c0 4.218-2.249 8.174-5.869 10.323-6.974 4.142-15.52 7.154-22.12 9.093v2.801a8 8 0 0 1-8 8h-128a8 8 0 0 1-8-8v-2.798c-6.608-1.939-15.165-4.953-22.142-9.095a12.06 12.06 0 0 1-5.87-10.324v-7.991c-13.097-9.788-19.988-21.405-19.988-33.792v-84c0-5.419 1.344-10.747 4-15.87v-29.656a11 11 0 0 1-.012-.474q0-.239.012-.476v-5.524c0-1.05.206-2.077.595-3.029 3.047-13.012 17.671-23.833 42.479-31.379.951-.29 1.935-.437 2.927-.437 2.164 0 4.27.707 5.991 1.979 18.834-4.676 40.803-7.134 63.996-7.134 23.44 0 45.598 2.504 64.546 7.269a10.07 10.07 0 0 1 5.956-1.965c1 0 1.993.15 2.953.446 24.492 7.542 38.937 18.308 41.962 31.223a8 8 0 0 1 .595 3.027v36.13c2.655 5.123 4 10.451 4 15.87v84C4.394-10.931 2.916-5.348 0 0" style="fill:#fff;fill-opacity:1;fill-rule:nonzero;stroke:none" transform="translate(243.606 196.613)"/></g><path d="M0 0c0-20.987-48.354-38-108-38S-216-20.987-216 0s48.353 38 108 38S0 20.987 0 0" style="fill:#191919;fill-opacity:1;fill-rule:nonzero;stroke:none" transform="translate(235.99 50)"/><path d="M0 0c0 11.028-7.4 21.251-20.011 29.665v12.119c0 1.412-.74 2.723-1.954 3.444-11.011 6.539-26.872 10.101-29.621 10.686a4 4 0 0 1-.827.086h-119.175c-.28 0-.551-.028-.825-.086-2.751-.584-18.63-4.146-29.644-10.686a4 4 0 0 1-1.954-3.445V29.65C-216.609 21.239-224 11.021-224 0v-84c0-4.78 1.397-9.409 4-13.806V-136l.153.017c1.562-10.688 15.672-20.207 37.25-26.772 1.33-.405 2.719.619 2.623 2.006q-.026.373-.026.749c0 15.464 30.557 28 68.25 28s68.25-12.536 68.25-28q0-.3-.017-.598c-.078-1.389 1.277-2.416 2.607-2.006 21.3 6.559 35.207 16.015 36.758 26.621L-4-136v38.194C-1.396-93.409 0-88.78 0-84z" style="fill:#262626;fill-opacity:1;fill-rule:nonzero;stroke:none" transform="translate(240 180)"/><path d="M0 0c0-3.313-5.373-6-12-6-6.628 0-12 2.687-12 6s5.372 6 12 6C-5.373 6 0 3.313 0 0" style="fill:#b80000;fill-opacity:1;fill-rule:nonzero;stroke:none" transform="translate(139.99 46)"/><path d="M0 0a130 130 0 0 1-4-1.637v-54.191h4Z" style="fill:#191919;fill-opacity:1;fill-rule:nonzero;stroke:none" transform="translate(56 219.158)"/><path d="M0 0a61 61 0 0 1-4-3.358v-39.437h4Z" style="fill:#191919;fill-opacity:1;fill-rule:nonzero;stroke:none" transform="translate(32 206.125)"/><path d="M0 0a107 107 0 0 1-4-1.997v-50.39h4z" style="fill:#191919;fill-opacity:1;fill-rule:nonzero;stroke:none" transform="translate(48 215.717)"/><path d="M0 0a84 84 0 0 1-4-2.511v-45.657h4Z" style="fill:#191919;fill-opacity:1;fill-rule:nonzero;stroke:none" transform="translate(40 211.499)"/><path d="M0 0a38.4 38.4 0 0 1 4-5.521v122.66a38.6 38.6 0 0 1-4-5.522z" style="fill:#191919;fill-opacity:1;fill-rule:nonzero;stroke:none" transform="translate(20 81.522)"/><path d="M0 0v-57.317h4V1.357A150 150 0 0 1 0 0" style="fill:#191919;fill-opacity:1;fill-rule:nonzero;stroke:none" transform="translate(60 220.648)"/><path d="M0 0a130 130 0 0 0 4-1.637v-54.191H0Z" style="fill:#191919;fill-opacity:1;fill-rule:nonzero;stroke:none" transform="translate(200 220.156)"/><path d="M0 0a61 61 0 0 0 4-3.358v-39.437H0Z" style="fill:#191919;fill-opacity:1;fill-rule:nonzero;stroke:none" transform="translate(224 207.123)"/><path d="M0 0q2.056-.974 4-1.997v-50.39H0Z" style="fill:#191919;fill-opacity:1;fill-rule:nonzero;stroke:none" transform="translate(208 216.715)"/><path d="M0 0a83 83 0 0 0 4-2.511v-45.657H0Z" style="fill:#191919;fill-opacity:1;fill-rule:nonzero;stroke:none" transform="translate(216 212.496)"/><path d="M0 0a38.4 38.4 0 0 0-4-5.521v122.66a38.4 38.4 0 0 0 4-5.521z" style="fill:#191919;fill-opacity:1;fill-rule:nonzero;stroke:none" transform="translate(236 82.519)"/><path d="M0 0v-57.317h-4V1.357Q-1.967.699 0 0" style="fill:#191919;fill-opacity:1;fill-rule:nonzero;stroke:none" transform="translate(196 221.645)"/><path d="m0 0-64 4-64-4v-36H0Z" style="fill:#333;fill-opacity:1;fill-rule:nonzero;stroke:none" transform="translate(192 240)"/><path d="M74 192h-4v12h4zm8 0h-4v12h4zm8 0h-4v12h4zm8 0h-4v12h4zm8 0h-4v12h4zm8 0h-4v12h4zm8 0h-4v12h4zm8 0h-4v12h4zm8 0h-4v12h4zm8 0h-4v12h4zm8 0h-4v12h4zm8 0h-4v12h4zm8 0h-4v12h4zm8 0h-4v12h4zm8 0h-4v12h4z" style="fill:#333;fill-opacity:1;fill-rule:nonzero;stroke:none"/><path d="m0 0 64 4 64-4v-20H0Z" style="fill:#333;fill-opacity:1;fill-rule:nonzero;stroke:none" transform="translate(64 196)"/><path d="M0 0v-76h.137C2.204-109.481 29.999-136 64-136s61.796 26.519 63.863 60H128V0Z" style="fill:#333;fill-opacity:1;fill-rule:nonzero;stroke:none" transform="translate(64 192)"/><path d="M0 0a7.99 7.99 0 0 1-4.12-6.993 8 8 0 0 1 8-8 7.98 7.98 0 0 1 6.098 2.828A56.3 56.3 0 0 0 0 0" style="fill:#262626;fill-opacity:1;fill-rule:nonzero;stroke:none" transform="translate(80.12 90.993)"/><path d="M0 0v-77.411l-.114-1.85C-1.801-106.591-24.592-128-52-128s-50.199 21.409-51.886 48.739l-.114 1.85V0h-4v-77.535l.122-1.972C-106.061-108.942-81.517-132-52-132S2.062-108.942 3.878-79.507L4-77.535V0Z" style="fill:#191919;fill-opacity:1;fill-rule:nonzero;stroke:none" transform="translate(180 196)"/><path d="M0 0a58.3 58.3 0 0 0-8.854-11.627C-10.087-12.883-9.194-15-7.435-15h.008c.536 0 1.053.211 1.429.593A62.3 62.3 0 0 1 3.469-1.98C4.234-.658 3.263 1 1.735 1h-.019C1.005 1 .356.615 0 0" style="fill:#262626;fill-opacity:1;fill-rule:nonzero;stroke:none" transform="translate(178.203 91)"/><path d="M0 0h-67.914c-8.172 0-14.079-8.033-11.399-15.753C-72.793-34.524-54.949-48-33.957-48S4.879-34.524 11.398-15.753C14.079-8.033 8.172 0 0 0m0-2c3.302 0 6.296-1.548 8.216-4.246 1.864-2.622 2.336-5.848 1.293-8.851C3.09-33.581-14.378-46-33.957-46s-37.047 12.419-43.466 30.903c-1.043 3.003-.571 6.229 1.294 8.851C-74.21-3.548-71.215-2-67.914-2z" style="fill:#262626;fill-opacity:1;fill-rule:nonzero;stroke:none" transform="translate(161.957 124)"/><path d="M0 0c-11.876 1.164-21.804 8.041-26.111 17.406-.667 1.452-2.075 2.419-3.672 2.419-2.878 0-4.859-2.971-3.671-5.592C-28.024 2.255-15.637-6.502-.808-7.96a4.006 4.006 0 0 1 4.392 3.986v.005A3.98 3.98 0 0 1 0 0" style="fill:#404040;fill-opacity:1;fill-rule:nonzero;stroke:none" transform="translate(124.415 91.98)"/><path d="M0 0h104v20s-12 8-52 8-48-8-52-8c-.276 0-.257-.039 0-.11Z" style="fill:#191919;fill-opacity:1;fill-rule:nonzero;stroke:none" transform="translate(76.089 208)"/><path d="M192 240H64v4h128z" style="fill:#4c4c4c;fill-opacity:1;fill-rule:nonzero;stroke:none"/></g></svg>