<svg xmlns="http://www.w3.org/2000/svg" xml:space="preserve" width="330.667" height="245.333" viewBox="0 0 330.667 245.333"><defs><clipPath id="a" clipPathUnits="userSpaceOnUse"><path d="M0 256h256V0H0Z"/></clipPath><clipPath id="b" clipPathUnits="userSpaceOnUse"><path d="M4 220h248V36H4Z"/></clipPath></defs><g clip-path="url(#a)" transform="matrix(1.33333 0 0 -1.33333 -5.333 293.333)"><g clip-path="url(#b)" style="opacity:.5"><path d="M0 0h-224c-6.617 0-12-5.383-12-12v-160c0-6.617 5.383-12 12-12H0c6.617 0 12 5.383 12 12v160C12-5.383 6.617 0 0 0" style="fill:#fff;fill-opacity:1;fill-rule:nonzero;stroke:none" transform="translate(240 220)"/></g><path d="M0 0v-156a4 4 0 0 1 4-4h224a4 4 0 0 1 4 4V0Z" style="fill:#404040;fill-opacity:1;fill-rule:nonzero;stroke:none" transform="translate(12 204)"/><path d="M244 56H12v8h232z" style="fill:#333;fill-opacity:1;fill-rule:nonzero;stroke:none"/><path d="M244 104H12v36h232z" style="fill:#999;fill-opacity:1;fill-rule:nonzero;stroke:none"/><path d="M0 0h-59.733c-1.178 0-2.133-.896-2.133-2v-12c0-1.104.955-2 2.133-2H0c1.179 0 2.134.896 2.134 2v12c0 1.104-.955 2-2.134 2" style="fill:#262626;fill-opacity:1;fill-rule:nonzero;stroke:none" transform="translate(157.866 160)"/><path d="M0 0h-232v8a4 4 0 0 0 4 4H-4a4 4 0 0 0 4-4z" style="fill:#4c4c4c;fill-opacity:1;fill-rule:nonzero;stroke:none" transform="translate(244 200)"/><path d="M40 204h-4v8h4zm8 0h-4v8h4zm8 0h-4v8h4zm8 0h-4v8h4zm8 0h-4v8h4zm8 0h-4v8h4zm8 0h-4v8h4zm8 0h-4v8h4zm8 0h-4v8h4zm8 0h-4v8h4zm8 0h-4v8h4zm8 0h-4v8h4zm8 0h-4v8h4zm8 0h-4v8h4zm8 0h-4v8h4zm8 0h-4v8h4zm8 0h-4v8h4zm8 0h-4v8h4zm8 0h-4v8h4zm8 0h-4v8h4zm8 0h-4v8h4zm8 0h-4v8h4zm8 0h-4v8h4z" style="fill:#404040;fill-opacity:1;fill-rule:nonzero;stroke:none"/><path d="M24 56h-4v8h4zm44 0h-4v8h4zm-28 0h-4v8h4zm12 0h-4v8h4zm140 0h-4v8h4zm44 0h-4v8h4zm-28 0h-4v8h4zm12 0h-4v8h4z" style="fill:#262626;fill-opacity:1;fill-rule:nonzero;stroke:none"/><path d="M64 108H20v4h44z" style="fill:#e77f22;fill-opacity:1;fill-rule:nonzero;stroke:none"/><path d="M108 108H64v4h44z" style="fill:#eac500;fill-opacity:1;fill-rule:nonzero;stroke:none"/><path d="M148 108h-40v4h40z" style="fill:#007b00;fill-opacity:1;fill-rule:nonzero;stroke:none"/><path d="M192 108h-44v4h44z" style="fill:#3096cf;fill-opacity:1;fill-rule:nonzero;stroke:none"/><path d="M236 108h-44v4h44z" style="fill:#4b5da7;fill-opacity:1;fill-rule:nonzero;stroke:none"/></g></svg>