<?xml version="1.0" encoding="UTF-8" standalone="no"?>
<svg
   xmlns:dc="http://purl.org/dc/elements/1.1/"
   xmlns:cc="http://creativecommons.org/ns#"
   xmlns:rdf="http://www.w3.org/1999/02/22-rdf-syntax-ns#"
   xmlns:svg="http://www.w3.org/2000/svg"
   xmlns="http://www.w3.org/2000/svg"
   viewBox="0 0 330.66665 288"
   height="288"
   width="330.66666"
   xml:space="preserve"
   id="svg2"
   version="1.1"><metadata
     id="metadata8"><rdf:RDF><cc:Work
         rdf:about=""><dc:format>image/svg+xml</dc:format><dc:type
           rdf:resource="http://purl.org/dc/dcmitype/StillImage" /></cc:Work></rdf:RDF></metadata><defs
     id="defs6"><clipPath
       id="clipPath18"
       clipPathUnits="userSpaceOnUse"><path
         id="path16"
         d="M 0,256 H 256 V 0 H 0 Z" /></clipPath><clipPath
       id="clipPath26"
       clipPathUnits="userSpaceOnUse"><path
         id="path24"
         d="M 4,236 H 252 V 20 H 4 Z" /></clipPath><clipPath
       id="clipPath46"
       clipPathUnits="userSpaceOnUse"><path
         id="path44"
         d="M 0,256 H 256 V 0 H 0 Z" /></clipPath></defs><g
     transform="matrix(1.3333333,0,0,-1.3333333,-5.3333332,314.66666)"
     id="g10"><g
       id="g12"><g
         clip-path="url(#clipPath18)"
         id="g14"><g
           id="g20"><g
             id="g22" /><g
             id="g34"><g
               style="opacity:0.5"
               id="g32"
               clip-path="url(#clipPath26)"><g
                 id="g30"
                 transform="translate(252,236)"><path
                   id="path28"
                   style="fill:#ffffff;fill-opacity:1;fill-rule:nonzero;stroke:none"
                   d="m 0,0 h -8 -232 -8 v -8 -200 -8 h 8 232 8 v 8 200 z" /></g></g></g></g></g></g><path
       id="path36"
       style="fill:#404040;fill-opacity:1;fill-rule:nonzero;stroke:none"
       d="M 244,28 H 12 v 200 h 232 z" /><path
       id="path38"
       style="fill:#999999;fill-opacity:1;fill-rule:nonzero;stroke:none"
       d="M 244,83.467 H 12 v 48 h 232 z" /><g
       id="g40"><g
         clip-path="url(#clipPath46)"
         id="g42"><g
           transform="translate(157.8662,151.4668)"
           id="g48"><path
             id="path50"
             style="fill:#333333;fill-opacity:1;fill-rule:nonzero;stroke:none"
             d="m 0,0 h -59.733 c -1.178,0 -2.133,-0.896 -2.133,-2 v -12 c 0,-1.104 0.955,-2 2.133,-2 H 0 c 1.179,0 2.134,0.896 2.134,2 V -2 C 2.134,-0.896 1.179,0 0,0" /></g><path
           id="path52"
           style="fill:#333333;fill-opacity:1;fill-rule:nonzero;stroke:none"
           d="m 80,47.467 h 4 v 8 h -4 z" /><path
           id="path54"
           style="fill:#333333;fill-opacity:1;fill-rule:nonzero;stroke:none"
           d="m 88,47.467 h 4 v 8 h -4 z" /><path
           id="path56"
           style="fill:#333333;fill-opacity:1;fill-rule:nonzero;stroke:none"
           d="m 64,47.467 h 4 v 8 h -4 z" /><path
           id="path58"
           style="fill:#333333;fill-opacity:1;fill-rule:nonzero;stroke:none"
           d="m 72,47.467 h 4 v 8 h -4 z" /><path
           id="path60"
           style="fill:#333333;fill-opacity:1;fill-rule:nonzero;stroke:none"
           d="m 96,47.467 h 4 v 8 h -4 z" /><path
           id="path62"
           style="fill:#333333;fill-opacity:1;fill-rule:nonzero;stroke:none"
           d="m 120,47.467 h 4 v 8 h -4 z" /><path
           id="path64"
           style="fill:#333333;fill-opacity:1;fill-rule:nonzero;stroke:none"
           d="m 104,47.467 h 4 v 8 h -4 z" /><path
           id="path66"
           style="fill:#333333;fill-opacity:1;fill-rule:nonzero;stroke:none"
           d="m 112,47.467 h 4 v 8 h -4 z" /><path
           id="path68"
           style="fill:#333333;fill-opacity:1;fill-rule:nonzero;stroke:none"
           d="m 24,47.467 h 4 v 8 h -4 z" /><path
           id="path70"
           style="fill:#333333;fill-opacity:1;fill-rule:nonzero;stroke:none"
           d="m 32,47.467 h 4 v 8 h -4 z" /><path
           id="path72"
           style="fill:#333333;fill-opacity:1;fill-rule:nonzero;stroke:none"
           d="m 16,47.467 h 4 v 8 h -4 z" /><path
           id="path74"
           style="fill:#333333;fill-opacity:1;fill-rule:nonzero;stroke:none"
           d="m 48,47.467 h 4 v 8 h -4 z" /><path
           id="path76"
           style="fill:#333333;fill-opacity:1;fill-rule:nonzero;stroke:none"
           d="m 232,47.467 h 4 v 8 h -4 z" /><path
           id="path78"
           style="fill:#333333;fill-opacity:1;fill-rule:nonzero;stroke:none"
           d="m 40,47.467 h 4 v 8 h -4 z" /><path
           id="path80"
           style="fill:#333333;fill-opacity:1;fill-rule:nonzero;stroke:none"
           d="m 56,47.467 h 4 v 8 h -4 z" /><path
           id="path82"
           style="fill:#333333;fill-opacity:1;fill-rule:nonzero;stroke:none"
           d="m 200,47.467 h 4 v 8 h -4 z" /><path
           id="path84"
           style="fill:#333333;fill-opacity:1;fill-rule:nonzero;stroke:none"
           d="m 192,47.467 h 4 v 8 h -4 z" /><path
           id="path86"
           style="fill:#333333;fill-opacity:1;fill-rule:nonzero;stroke:none"
           d="m 208,47.467 h 4 v 8 h -4 z" /><path
           id="path88"
           style="fill:#333333;fill-opacity:1;fill-rule:nonzero;stroke:none"
           d="m 224,47.467 h 4 v 8 h -4 z" /><path
           id="path90"
           style="fill:#333333;fill-opacity:1;fill-rule:nonzero;stroke:none"
           d="m 184,47.467 h 4 v 8 h -4 z" /><path
           id="path92"
           style="fill:#333333;fill-opacity:1;fill-rule:nonzero;stroke:none"
           d="m 216,47.467 h 4 v 8 h -4 z" /><path
           id="path94"
           style="fill:#333333;fill-opacity:1;fill-rule:nonzero;stroke:none"
           d="m 152,47.467 h 4 v 8 h -4 z" /><path
           id="path96"
           style="fill:#333333;fill-opacity:1;fill-rule:nonzero;stroke:none"
           d="m 144,47.467 h 4 v 8 h -4 z" /><path
           id="path98"
           style="fill:#333333;fill-opacity:1;fill-rule:nonzero;stroke:none"
           d="m 176,47.467 h 4 v 8 h -4 z" /><path
           id="path100"
           style="fill:#333333;fill-opacity:1;fill-rule:nonzero;stroke:none"
           d="m 136,47.467 h 4 v 8 h -4 z" /><path
           id="path102"
           style="fill:#333333;fill-opacity:1;fill-rule:nonzero;stroke:none"
           d="m 128,47.467 h 4 v 8 h -4 z" /><path
           id="path104"
           style="fill:#333333;fill-opacity:1;fill-rule:nonzero;stroke:none"
           d="m 168,47.467 h 4 v 8 h -4 z" /><path
           id="path106"
           style="fill:#333333;fill-opacity:1;fill-rule:nonzero;stroke:none"
           d="m 160,47.467 h 4 v 8 h -4 z" /><path
           id="path108"
           style="fill:#333333;fill-opacity:1;fill-rule:nonzero;stroke:none"
           d="m 236,75.467 h -20 v -16 h 20 z m -1,-15 h -18 v 14 h 18 z" /><g
           transform="translate(12,160)"
           id="g110"><path
             id="path112"
             style="fill:#333333;fill-opacity:1;fill-rule:nonzero;stroke:none"
             d="m 0,0 v -4 h 4 v -24 h 4 v 24 h 4 v -24 h 4 v 24 h 4 v -24 h 4 v 24 h 4 v -24 h 4 v 24 h 4 v -24 h 4 v 24 h 4 v -24 h 4 v 24 h 4 v -24 h 4 v 24 h 4 v -24 h 4 v 24 h 4 v -24 h 4 v 24 h 4 v -24 h 4 v 24 h 72 v -24 h 4 v 24 h 4 v -24 h 4 v 24 h 4 v -24 h 4 v 24 h 4 v -24 h 4 v 24 h 4 v -24 h 4 v 24 h 4 v -24 h 4 v 24 h 4 v -24 h 4 v 24 h 4 v -24 h 4 v 24 h 4 v -24 h 4 v 24 h 4 v -24 h 4 v 24 h 4 v 4 z" /></g></g></g></g></svg>