<?xml version="1.0" encoding="iso-8859-1"?>
<!-- Generator: Adobe Illustrator 27.8.1, SVG Export Plug-In . SVG Version: 6.00 Build 0)  -->
<svg version="1.1" id="Layer_1" xmlns="http://www.w3.org/2000/svg" xmlns:xlink="http://www.w3.org/1999/xlink" x="0px" y="0px"
	 viewBox="0 0 256 256" style="enable-background:new 0 0 256 256;" xml:space="preserve">
<polygon style="opacity:0.5;fill:#FFFFFF;" points="244,32 216,32 212,32 210,32 208,32 206,32 204,32 202,32 200,32 198,32 196,32 
	194,32 192,32 190,32 188,32 186,32 184,32 182,32 180,32 178,32 176,32 174,32 172,32 170,32 168,32 166,32 164,32 162,32 160,32 
	158,32 156,32 154,32 152,32 150,32 148,32 146,32 144,32 142,32 140,32 138,32 136,32 134,32 132,32 130,32 128,32 126,32 124,32 
	122,32 120,32 118,32 116,32 114,32 112,32 110,32 108,32 106,32 104,32 102,32 100,32 98,32 96,32 94,32 92,32 90,32 88,32 86,32 
	84,32 82,32 80,32 78,32 76,32 74,32 72,32 70,32 68,32 66,32 64,32 62,32 60,32 58,32 56,32 54,32 52,32 50,32 48,32 46,32 44,32 
	42,32 40,32 12,32 4,32 4,40 4,124 4,144 4,216 4,224 12,224 244,224 252,224 252,216 252,144 252,124 252,40 252,32 "/>
<rect x="12" y="40" style="fill:#D9D4BC;" width="232" height="176"/>
<rect x="204" y="156" style="fill:#B80000;" width="16" height="8"/>
<rect x="204" y="168" style="fill:#D35400;" width="16" height="8"/>
<rect x="204" y="180" style="fill:#F99D1C;" width="16" height="8"/>
<rect x="204" y="192" style="fill:#FDB913;" width="16" height="8"/>
<polygon style="fill:#262626;" points="36,152 36,176 40,176 40,196 64,196 64,208 160,208 160,196 184,196 184,176 196,176 
	196,152 "/>
<rect x="12" y="124" style="fill:#C4C0AA;" width="232" height="20"/>
<polygon style="fill:#D9D4BC;" points="40,124 12,144 12,40 40,40 "/>
<polygon style="fill:#D9D4BC;" points="216,124 244,144 244,40 216,40 "/>
<rect x="40" y="100" style="fill:#C4C0AA;" width="176" height="24"/>
<rect x="40" y="40" style="fill:#A6A390;" width="176" height="60"/>
<rect x="42" y="40" style="fill:#8C8C8C;" width="2" height="56"/>
<rect x="46" y="40" style="fill:#8C8C8C;" width="2" height="56"/>
<rect x="50" y="40" style="fill:#8C8C8C;" width="2" height="56"/>
<rect x="54" y="40" style="fill:#8C8C8C;" width="2" height="56"/>
<rect x="58" y="40" style="fill:#8C8C8C;" width="2" height="56"/>
<rect x="62" y="40" style="fill:#8C8C8C;" width="2" height="56"/>
<rect x="66" y="40" style="fill:#8C8C8C;" width="2" height="56"/>
<rect x="70" y="40" style="fill:#8C8C8C;" width="2" height="56"/>
<rect x="74" y="40" style="fill:#8C8C8C;" width="2" height="56"/>
<rect x="78" y="40" style="fill:#8C8C8C;" width="2" height="56"/>
<rect x="82" y="40" style="fill:#8C8C8C;" width="2" height="56"/>
<rect x="86" y="40" style="fill:#8C8C8C;" width="2" height="56"/>
<rect x="90" y="40" style="fill:#8C8C8C;" width="2" height="56"/>
<rect x="94" y="40" style="fill:#8C8C8C;" width="2" height="56"/>
<rect x="98" y="40" style="fill:#8C8C8C;" width="2" height="56"/>
<rect x="102" y="40" style="fill:#8C8C8C;" width="2" height="56"/>
<rect x="106" y="40" style="fill:#8C8C8C;" width="2" height="56"/>
<rect x="110" y="40" style="fill:#8C8C8C;" width="2" height="56"/>
<rect x="114" y="40" style="fill:#8C8C8C;" width="2" height="56"/>
<rect x="118" y="40" style="fill:#8C8C8C;" width="2" height="56"/>
<rect x="122" y="40" style="fill:#8C8C8C;" width="2" height="56"/>
<rect x="126" y="40" style="fill:#8C8C8C;" width="2" height="56"/>
<rect x="130" y="40" style="fill:#8C8C8C;" width="2" height="56"/>
<rect x="134" y="40" style="fill:#8C8C8C;" width="2" height="56"/>
<rect x="138" y="40" style="fill:#8C8C8C;" width="2" height="56"/>
<rect x="142" y="40" style="fill:#8C8C8C;" width="2" height="56"/>
<rect x="146" y="40" style="fill:#8C8C8C;" width="2" height="56"/>
<rect x="150" y="40" style="fill:#8C8C8C;" width="2" height="56"/>
<rect x="154" y="40" style="fill:#8C8C8C;" width="2" height="56"/>
<rect x="158" y="40" style="fill:#8C8C8C;" width="2" height="56"/>
<rect x="162" y="40" style="fill:#8C8C8C;" width="2" height="56"/>
<rect x="166" y="40" style="fill:#8C8C8C;" width="2" height="56"/>
<rect x="170" y="40" style="fill:#8C8C8C;" width="2" height="56"/>
<rect x="174" y="40" style="fill:#8C8C8C;" width="2" height="56"/>
<rect x="178" y="40" style="fill:#8C8C8C;" width="2" height="56"/>
<rect x="182" y="40" style="fill:#8C8C8C;" width="2" height="56"/>
<rect x="186" y="40" style="fill:#8C8C8C;" width="2" height="56"/>
<rect x="190" y="40" style="fill:#8C8C8C;" width="2" height="56"/>
<rect x="194" y="40" style="fill:#8C8C8C;" width="2" height="56"/>
<rect x="198" y="40" style="fill:#8C8C8C;" width="2" height="56"/>
<rect x="202" y="40" style="fill:#8C8C8C;" width="2" height="56"/>
<rect x="206" y="40" style="fill:#8C8C8C;" width="2" height="56"/>
<rect x="50" y="44" style="fill:#737373;" width="2" height="12"/>
<rect x="54" y="44" style="fill:#737373;" width="2" height="12"/>
<rect x="54" y="60" style="fill:#737373;" width="2" height="24"/>
<rect x="58" y="60" style="fill:#737373;" width="2" height="24"/>
<rect x="62" y="60" style="fill:#737373;" width="2" height="24"/>
<rect x="190" y="60" style="fill:#737373;" width="2" height="24"/>
<rect x="194" y="60" style="fill:#737373;" width="2" height="24"/>
<rect x="198" y="60" style="fill:#737373;" width="2" height="24"/>
<rect x="58" y="44" style="fill:#737373;" width="2" height="12"/>
<rect x="62" y="44" style="fill:#737373;" width="2" height="12"/>
<rect x="66" y="44" style="fill:#737373;" width="2" height="12"/>
<rect x="70" y="44" style="fill:#737373;" width="2" height="12"/>
<rect x="74" y="44" style="fill:#737373;" width="2" height="12"/>
<rect x="78" y="44" style="fill:#737373;" width="2" height="12"/>
<rect x="82" y="44" style="fill:#737373;" width="2" height="12"/>
<rect x="86" y="44" style="fill:#737373;" width="2" height="12"/>
<rect x="90" y="44" style="fill:#737373;" width="2" height="12"/>
<rect x="94" y="44" style="fill:#737373;" width="2" height="12"/>
<rect x="98" y="44" style="fill:#737373;" width="2" height="12"/>
<rect x="102" y="44" style="fill:#737373;" width="2" height="12"/>
<rect x="106" y="44" style="fill:#737373;" width="2" height="12"/>
<rect x="110" y="44" style="fill:#737373;" width="2" height="12"/>
<rect x="114" y="44" style="fill:#737373;" width="2" height="12"/>
<rect x="118" y="44" style="fill:#737373;" width="2" height="12"/>
<rect x="122" y="44" style="fill:#737373;" width="2" height="12"/>
<rect x="126" y="44" style="fill:#737373;" width="2" height="12"/>
<rect x="130" y="44" style="fill:#737373;" width="2" height="12"/>
<rect x="134" y="44" style="fill:#737373;" width="2" height="12"/>
<rect x="138" y="44" style="fill:#737373;" width="2" height="12"/>
<rect x="142" y="44" style="fill:#737373;" width="2" height="12"/>
<rect x="146" y="44" style="fill:#737373;" width="2" height="12"/>
<rect x="150" y="44" style="fill:#737373;" width="2" height="12"/>
<rect x="154" y="44" style="fill:#737373;" width="2" height="12"/>
<rect x="158" y="44" style="fill:#737373;" width="2" height="12"/>
<rect x="162" y="44" style="fill:#737373;" width="2" height="12"/>
<rect x="166" y="44" style="fill:#737373;" width="2" height="12"/>
<rect x="170" y="44" style="fill:#737373;" width="2" height="12"/>
<rect x="174" y="44" style="fill:#737373;" width="2" height="12"/>
<rect x="178" y="44" style="fill:#737373;" width="2" height="12"/>
<rect x="182" y="44" style="fill:#737373;" width="2" height="12"/>
<rect x="186" y="44" style="fill:#737373;" width="2" height="12"/>
<rect x="190" y="44" style="fill:#737373;" width="2" height="12"/>
<rect x="194" y="44" style="fill:#737373;" width="2" height="12"/>
<rect x="198" y="44" style="fill:#737373;" width="2" height="12"/>
<rect x="202" y="44" style="fill:#737373;" width="2" height="12"/>
<rect x="206" y="44" style="fill:#737373;" width="2" height="12"/>
<rect x="210" y="40" style="fill:#8C8C8C;" width="2" height="56"/>
<rect x="210" y="44" style="fill:#737373;" width="2" height="12"/>
<rect x="46" y="44" style="fill:#737373;" width="2" height="12"/>
<rect x="42" y="44" style="fill:#737373;" width="2" height="12"/>
<polygon style="fill:#D9D4BC;" points="208,140 44,140 40,124 212,124 "/>
<rect x="112" y="140" style="fill:#A6A390;" width="32" height="4"/>
<rect x="36" y="152" style="fill:#333333;" width="8" height="8"/>
<rect x="48" y="152" style="fill:#333333;" width="8" height="8"/>
<rect x="60" y="152" style="fill:#333333;" width="8" height="8"/>
<rect x="72" y="152" style="fill:#333333;" width="8" height="8"/>
<rect x="84" y="152" style="fill:#333333;" width="8" height="8"/>
<rect x="96" y="152" style="fill:#333333;" width="8" height="8"/>
<rect x="108" y="152" style="fill:#333333;" width="8" height="8"/>
<rect x="120" y="152" style="fill:#333333;" width="8" height="8"/>
<rect x="132" y="152" style="fill:#333333;" width="8" height="8"/>
<rect x="144" y="152" style="fill:#333333;" width="8" height="8"/>
<rect x="156" y="152" style="fill:#333333;" width="8" height="8"/>
<rect x="168" y="152" style="fill:#333333;" width="8" height="8"/>
<rect x="180" y="152" style="fill:#333333;" width="8" height="8"/>
<rect x="36" y="164" style="fill:#333333;" width="12" height="8"/>
<rect x="40" y="176" style="fill:#333333;" width="12" height="8"/>
<rect x="52" y="164" style="fill:#333333;" width="8" height="8"/>
<rect x="64" y="164" style="fill:#333333;" width="8" height="8"/>
<rect x="76" y="164" style="fill:#333333;" width="8" height="8"/>
<rect x="88" y="164" style="fill:#333333;" width="8" height="8"/>
<rect x="100" y="164" style="fill:#333333;" width="8" height="8"/>
<rect x="112" y="164" style="fill:#333333;" width="8" height="8"/>
<rect x="124" y="164" style="fill:#333333;" width="8" height="8"/>
<rect x="136" y="164" style="fill:#333333;" width="8" height="8"/>
<rect x="148" y="164" style="fill:#333333;" width="8" height="8"/>
<rect x="160" y="164" style="fill:#333333;" width="8" height="8"/>
<rect x="172" y="164" style="fill:#333333;" width="8" height="8"/>
<rect x="56" y="176" style="fill:#333333;" width="8" height="8"/>
<rect x="68" y="176" style="fill:#333333;" width="8" height="8"/>
<rect x="80" y="176" style="fill:#333333;" width="8" height="8"/>
<rect x="92" y="176" style="fill:#333333;" width="8" height="8"/>
<rect x="104" y="176" style="fill:#333333;" width="8" height="8"/>
<rect x="116" y="176" style="fill:#333333;" width="8" height="8"/>
<rect x="128" y="176" style="fill:#333333;" width="8" height="8"/>
<rect x="140" y="176" style="fill:#333333;" width="8" height="8"/>
<rect x="152" y="176" style="fill:#333333;" width="8" height="8"/>
<rect x="164" y="176" style="fill:#333333;" width="8" height="8"/>
<rect x="176" y="176" style="fill:#333333;" width="8" height="8"/>
<rect x="40" y="188" style="fill:#333333;" width="16" height="8"/>
<rect x="60" y="188" style="fill:#333333;" width="8" height="8"/>
<rect x="72" y="188" style="fill:#333333;" width="8" height="8"/>
<rect x="84" y="188" style="fill:#333333;" width="8" height="8"/>
<rect x="96" y="188" style="fill:#333333;" width="8" height="8"/>
<rect x="108" y="188" style="fill:#333333;" width="8" height="8"/>
<rect x="120" y="188" style="fill:#333333;" width="8" height="8"/>
<rect x="132" y="188" style="fill:#333333;" width="8" height="8"/>
<rect x="144" y="188" style="fill:#333333;" width="8" height="8"/>
<rect x="156" y="188" style="fill:#333333;" width="8" height="8"/>
<rect x="168" y="188" style="fill:#333333;" width="8" height="8"/>
<rect x="180" y="188" style="fill:#333333;" width="4" height="8"/>
<rect x="184" y="164" style="fill:#333333;" width="12" height="8"/>
<rect x="192" y="152" style="fill:#333333;" width="4" height="8"/>
<rect x="64" y="200" style="fill:#333333;" width="96" height="8"/>
<rect x="204" y="164" style="fill:#F99D1C;" width="16" height="8"/>
<rect x="204" y="176" style="fill:#FDB913;" width="16" height="8"/>
<rect x="204" y="188" style="fill:#FFCB05;" width="16" height="8"/>
<rect x="204" y="200" style="fill:#C4C0AA;" width="16" height="8"/>
<rect x="204" y="152" style="fill:#D35400;" width="16" height="8"/>
</svg>
