<?xml version="1.0" encoding="UTF-8" standalone="no"?>
<svg
   xmlns:dc="http://purl.org/dc/elements/1.1/"
   xmlns:cc="http://creativecommons.org/ns#"
   xmlns:rdf="http://www.w3.org/1999/02/22-rdf-syntax-ns#"
   xmlns:svg="http://www.w3.org/2000/svg"
   xmlns="http://www.w3.org/2000/svg"
   viewBox="0 0 330.66665 213.33333"
   height="213.33333"
   width="330.66666"
   xml:space="preserve"
   id="svg2"
   version="1.1"><metadata
     id="metadata8"><rdf:RDF><cc:Work
         rdf:about=""><dc:format>image/svg+xml</dc:format><dc:type
           rdf:resource="http://purl.org/dc/dcmitype/StillImage" /></cc:Work></rdf:RDF></metadata><defs
     id="defs6"><clipPath
       id="clipPath18"
       clipPathUnits="userSpaceOnUse"><path
         id="path16"
         d="M 0,256 H 256 V 0 H 0 Z" /></clipPath><clipPath
       id="clipPath26"
       clipPathUnits="userSpaceOnUse"><path
         id="path24"
         d="M 4,208 H 252 V 48 H 4 Z" /></clipPath><clipPath
       id="clipPath70"
       clipPathUnits="userSpaceOnUse"><path
         id="path68"
         d="M 0,256 H 256 V 0 H 0 Z" /></clipPath></defs><g
     transform="matrix(1.3333333,0,0,-1.3333333,-5.3333332,277.33333)"
     id="g10"><g
       id="g12"><g
         clip-path="url(#clipPath18)"
         id="g14"><g
           id="g20"><g
             id="g22" /><g
             id="g34"><g
               style="opacity:0.5"
               id="g32"
               clip-path="url(#clipPath26)"><g
                 id="g30"
                 transform="translate(252,208)"><path
                   id="path28"
                   style="fill:#ffffff;fill-opacity:1;fill-rule:nonzero;stroke:none"
                   d="m 0,0 h -8 -232 -8 v -8 -144 -8 h 8 232 8 v 8 144 z" /></g></g></g></g></g></g><path
       id="path36"
       style="fill:#0d0d0d;fill-opacity:1;fill-rule:nonzero;stroke:none"
       d="M 244,56 H 12 v 144 h 232 z" /><path
       id="path38"
       style="fill:#191919;fill-opacity:1;fill-rule:nonzero;stroke:none"
       d="M 240,72 H 16 v 68 h 224 z" /><path
       id="path40"
       style="fill:#e77f22;fill-opacity:1;fill-rule:nonzero;stroke:none"
       d="M 240,56 H 16 v 12 h 224 z" /><path
       id="path42"
       style="fill:#262626;fill-opacity:1;fill-rule:nonzero;stroke:none"
       d="M 236,128 H 20 v 4 h 216 z" /><path
       id="path44"
       style="fill:#262626;fill-opacity:1;fill-rule:nonzero;stroke:none"
       d="M 236,136 H 20 v 4 h 216 z" /><path
       id="path46"
       style="fill:#262626;fill-opacity:1;fill-rule:nonzero;stroke:none"
       d="M 236,120 H 20 v 4 h 216 z" /><path
       id="path48"
       style="fill:#262626;fill-opacity:1;fill-rule:nonzero;stroke:none"
       d="M 236,112 H 20 v 4 h 216 z" /><path
       id="path50"
       style="fill:#262626;fill-opacity:1;fill-rule:nonzero;stroke:none"
       d="M 236,104 H 20 v 4 h 216 z" /><path
       id="path52"
       style="fill:#262626;fill-opacity:1;fill-rule:nonzero;stroke:none"
       d="M 236,96 H 20 v 4 h 216 z" /><path
       id="path54"
       style="fill:#262626;fill-opacity:1;fill-rule:nonzero;stroke:none"
       d="M 236,88 H 20 v 4 h 216 z" /><path
       id="path56"
       style="fill:#262626;fill-opacity:1;fill-rule:nonzero;stroke:none"
       d="M 236,80 H 20 v 4 h 216 z" /><path
       id="path58"
       style="fill:#262626;fill-opacity:1;fill-rule:nonzero;stroke:none"
       d="M 236,72 H 20 v 4 h 216 z" /><path
       id="path60"
       style="fill:#333333;fill-opacity:1;fill-rule:nonzero;stroke:none"
       d="M 236,144 H 20 v 28 h 216 z" /><path
       id="path62"
       style="fill:#e77f22;fill-opacity:1;fill-rule:nonzero;stroke:none"
       d="M 236,172 H 20 v -28 h 216 z m -1,-27 H 21 v 26 h 214 z" /><g
       id="g64"><g
         clip-path="url(#clipPath70)"
         id="g66"><g
           transform="translate(40,148)"
           id="g72"><path
             id="path74"
             style="fill:#0d0d0d;fill-opacity:1;fill-rule:nonzero;stroke:none"
             d="m 0,0 v 0 c -2.2,0 -4,1.8 -4,4 v 8 c 0,2.2 1.8,4 4,4 2.2,0 4,-1.8 4,-4 V 4 C 4,1.8 2.2,0 0,0" /></g><g
           transform="translate(42,160)"
           id="g76"><path
             id="path78"
             style="fill:#cccccc;fill-opacity:1;fill-rule:nonzero;stroke:none"
             d="m 0,0 c 0,-1.104 -0.896,-2 -2,-2 -1.104,0 -2,0.896 -2,2 0,1.104 0.896,2 2,2 1.104,0 2,-0.896 2,-2" /></g><g
           transform="translate(60,148)"
           id="g80"><path
             id="path82"
             style="fill:#0d0d0d;fill-opacity:1;fill-rule:nonzero;stroke:none"
             d="m 0,0 v 0 c -2.2,0 -4,1.8 -4,4 v 8 c 0,2.2 1.8,4 4,4 2.2,0 4,-1.8 4,-4 V 4 C 4,1.8 2.2,0 0,0" /></g><g
           transform="translate(62,160)"
           id="g84"><path
             id="path86"
             style="fill:#cccccc;fill-opacity:1;fill-rule:nonzero;stroke:none"
             d="m 0,0 c 0,-1.104 -0.896,-2 -2,-2 -1.104,0 -2,0.896 -2,2 0,1.104 0.896,2 2,2 1.104,0 2,-0.896 2,-2" /></g><g
           transform="translate(80,148)"
           id="g88"><path
             id="path90"
             style="fill:#0d0d0d;fill-opacity:1;fill-rule:nonzero;stroke:none"
             d="m 0,0 v 0 c -2.2,0 -4,1.8 -4,4 v 8 c 0,2.2 1.8,4 4,4 2.2,0 4,-1.8 4,-4 V 4 C 4,1.8 2.2,0 0,0" /></g><g
           transform="translate(82,152)"
           id="g92"><path
             id="path94"
             style="fill:#cccccc;fill-opacity:1;fill-rule:nonzero;stroke:none"
             d="m 0,0 c 0,-1.104 -0.896,-2 -2,-2 -1.104,0 -2,0.896 -2,2 0,1.104 0.896,2 2,2 1.104,0 2,-0.896 2,-2" /></g><g
           transform="translate(172,148)"
           id="g96"><path
             id="path98"
             style="fill:#0d0d0d;fill-opacity:1;fill-rule:nonzero;stroke:none"
             d="m 0,0 v 0 c -2.2,0 -4,1.8 -4,4 v 8 c 0,2.2 1.8,4 4,4 2.2,0 4,-1.8 4,-4 V 4 C 4,1.8 2.2,0 0,0" /></g><g
           transform="translate(174,152)"
           id="g100"><path
             id="path102"
             style="fill:#cccccc;fill-opacity:1;fill-rule:nonzero;stroke:none"
             d="m 0,0 c 0,-1.104 -0.896,-2 -2,-2 -1.104,0 -2,0.896 -2,2 0,1.104 0.896,2 2,2 1.104,0 2,-0.896 2,-2" /></g><g
           transform="translate(192,148)"
           id="g104"><path
             id="path106"
             style="fill:#0d0d0d;fill-opacity:1;fill-rule:nonzero;stroke:none"
             d="m 0,0 v 0 c -2.2,0 -4,1.8 -4,4 v 8 c 0,2.2 1.8,4 4,4 2.2,0 4,-1.8 4,-4 V 4 C 4,1.8 2.2,0 0,0" /></g><g
           transform="translate(236,172)"
           id="g108"><path
             id="path110"
             style="fill:#262626;fill-opacity:1;fill-rule:nonzero;stroke:none"
             d="m 0,0 h -216 l -4,24 H 4 Z" /></g><g
           transform="translate(194,160)"
           id="g112"><path
             id="path114"
             style="fill:#cccccc;fill-opacity:1;fill-rule:nonzero;stroke:none"
             d="m 0,0 c 0,-1.104 -0.896,-2 -2,-2 -1.104,0 -2,0.896 -2,2 0,1.104 0.896,2 2,2 1.104,0 2,-0.896 2,-2" /></g><g
           transform="translate(212,148)"
           id="g116"><path
             id="path118"
             style="fill:#0d0d0d;fill-opacity:1;fill-rule:nonzero;stroke:none"
             d="m 0,0 v 0 c -2.2,0 -4,1.8 -4,4 v 8 c 0,2.2 1.8,4 4,4 2.2,0 4,-1.8 4,-4 V 4 C 4,1.8 2.2,0 0,0" /></g><g
           transform="translate(214,160)"
           id="g120"><path
             id="path122"
             style="fill:#cccccc;fill-opacity:1;fill-rule:nonzero;stroke:none"
             d="m 0,0 c 0,-1.104 -0.896,-2 -2,-2 -1.104,0 -2,0.896 -2,2 0,1.104 0.896,2 2,2 1.104,0 2,-0.896 2,-2" /></g><g
           transform="translate(154,164)"
           id="g124"><path
             id="path126"
             style="fill:#0d0d0d;fill-opacity:1;fill-rule:nonzero;stroke:none"
             d="m 0,0 h -56 c -1.104,0 -2,-0.896 -2,-2 v -12 c 0,-1.104 0.896,-2 2,-2 H 0 c 1.104,0 2,0.896 2,2 V -2 C 2,-0.896 1.104,0 0,0 M 0,-14 H -56 V -2 H 0 Z" /></g><path
           id="path128"
           style="fill:#0d0d0d;fill-opacity:1;fill-rule:nonzero;stroke:none"
           d="m 52,124 h -8 v 4 h 8 z" /><path
           id="path130"
           style="fill:#0d0d0d;fill-opacity:1;fill-rule:nonzero;stroke:none"
           d="m 52,92 h -8 v 4 h 8 z" /><path
           id="path132"
           style="fill:#0d0d0d;fill-opacity:1;fill-rule:nonzero;stroke:none"
           d="M 64,108 H 32 v 4 h 32 z" /><path
           id="path134"
           style="fill:#0d0d0d;fill-opacity:1;fill-rule:nonzero;stroke:none"
           d="M 60,100 H 36 v 4 h 24 z" /><path
           id="path136"
           style="fill:#0d0d0d;fill-opacity:1;fill-rule:nonzero;stroke:none"
           d="m 208,124 h -8 v 4 h 8 z" /><path
           id="path138"
           style="fill:#0d0d0d;fill-opacity:1;fill-rule:nonzero;stroke:none"
           d="m 208,92 h -8 v 4 h 8 z" /><path
           id="path140"
           style="fill:#0d0d0d;fill-opacity:1;fill-rule:nonzero;stroke:none"
           d="m 220,108 h -32 v 4 h 32 z" /><path
           id="path142"
           style="fill:#0d0d0d;fill-opacity:1;fill-rule:nonzero;stroke:none"
           d="M 60,116 H 36 v 4 h 24 z" /><path
           id="path144"
           style="fill:#0d0d0d;fill-opacity:1;fill-rule:nonzero;stroke:none"
           d="m 216,116 h -24 v 4 h 24 z" /><path
           id="path146"
           style="fill:#0d0d0d;fill-opacity:1;fill-rule:nonzero;stroke:none"
           d="m 216,100 h -24 v 4 h 24 z" /><path
           id="path148"
           style="fill:#0d0d0d;fill-opacity:1;fill-rule:nonzero;stroke:none"
           d="m 108,152 h -8 v 4 h 8 z" /><path
           id="path150"
           style="fill:#0d0d0d;fill-opacity:1;fill-rule:nonzero;stroke:none"
           d="m 152,152 h -8 v 4 h 8 z" /></g></g></g></svg>