<?xml version="1.0" encoding="UTF-8" standalone="no"?>
<svg
   xmlns:dc="http://purl.org/dc/elements/1.1/"
   xmlns:cc="http://creativecommons.org/ns#"
   xmlns:rdf="http://www.w3.org/1999/02/22-rdf-syntax-ns#"
   xmlns:svg="http://www.w3.org/2000/svg"
   xmlns="http://www.w3.org/2000/svg"
   viewBox="0 0 330.66665 245.33333"
   height="245.33333"
   width="330.66666"
   xml:space="preserve"
   id="svg2"
   version="1.1"><metadata
     id="metadata8"><rdf:RDF><cc:Work
         rdf:about=""><dc:format>image/svg+xml</dc:format><dc:type
           rdf:resource="http://purl.org/dc/dcmitype/StillImage" /></cc:Work></rdf:RDF></metadata><defs
     id="defs6"><clipPath
       id="clipPath18"
       clipPathUnits="userSpaceOnUse"><path
         id="path16"
         d="M 0,256 H 256 V 0 H 0 Z" /></clipPath><clipPath
       id="clipPath26"
       clipPathUnits="userSpaceOnUse"><path
         id="path24"
         d="M 4,220 H 252 V 36 H 4 Z" /></clipPath></defs><g
     transform="matrix(1.3333333,0,0,-1.3333333,-5.3333332,293.33333)"
     id="g10"><g
       id="g12"><g
         clip-path="url(#clipPath18)"
         id="g14"><g
           id="g20"><g
             id="g22" /><g
             id="g34"><g
               style="opacity:0.5"
               id="g32"
               clip-path="url(#clipPath26)"><g
                 id="g30"
                 transform="translate(240,220)"><path
                   id="path28"
                   style="fill:#ffffff;fill-opacity:1;fill-rule:nonzero;stroke:none"
                   d="m 0,0 h -24 -4 -4 -4 -4 -4 -4 -4 -4 -4 -4 -4 -4 -4 -4 -4 -4 -4 -4 -4 -4 -4 -4 -4 -4 -4 -4 -4 -4 -4 -4 -4 -4 -4 -4 -4 -4 -4 -4 -4 -4 -4 -4 -4 -4 -4 -20 c -6.617,0 -12,-5.383 -12,-12 v -4 -4 -60 -36 -40 -8 -8 c 0,-6.617 5.383,-12 12,-12 H 0 c 6.617,0 12,5.383 12,12 v 8 8 40 36 60 4 4 C 12,-5.383 6.617,0 0,0" /></g></g></g></g><g
           transform="translate(12,204)"
           id="g36"><path
             id="path38"
             style="fill:#404040;fill-opacity:1;fill-rule:nonzero;stroke:none"
             d="m 0,0 v -156 c 0,-2.209 1.791,-4 4,-4 h 224 c 2.209,0 4,1.791 4,4 V 0 Z" /></g><path
           id="path40"
           style="fill:#333333;fill-opacity:1;fill-rule:nonzero;stroke:none"
           d="M 244,56 H 12 v 8 h 232 z" /><path
           id="path42"
           style="fill:#999999;fill-opacity:1;fill-rule:nonzero;stroke:none"
           d="M 244,104 H 12 v 36 h 232 z" /><g
           transform="translate(157.8662,160)"
           id="g44"><path
             id="path46"
             style="fill:#262626;fill-opacity:1;fill-rule:nonzero;stroke:none"
             d="m 0,0 h -59.733 c -1.178,0 -2.133,-0.896 -2.133,-2 v -12 c 0,-1.104 0.955,-2 2.133,-2 H 0 c 1.179,0 2.134,0.896 2.134,2 V -2 C 2.134,-0.896 1.179,0 0,0" /></g><g
           transform="translate(244,200)"
           id="g48"><path
             id="path50"
             style="fill:#4c4c4c;fill-opacity:1;fill-rule:nonzero;stroke:none"
             d="m 0,0 h -232 v 8 c 0,2.209 1.791,4 4,4 H -4 c 2.209,0 4,-1.791 4,-4 z" /></g><path
           id="path52"
           style="fill:#404040;fill-opacity:1;fill-rule:nonzero;stroke:none"
           d="m 40,204 h -4 v 8 h 4 z" /><path
           id="path54"
           style="fill:#404040;fill-opacity:1;fill-rule:nonzero;stroke:none"
           d="m 48,204 h -4 v 8 h 4 z" /><path
           id="path56"
           style="fill:#404040;fill-opacity:1;fill-rule:nonzero;stroke:none"
           d="m 56,204 h -4 v 8 h 4 z" /><path
           id="path58"
           style="fill:#404040;fill-opacity:1;fill-rule:nonzero;stroke:none"
           d="m 64,204 h -4 v 8 h 4 z" /><path
           id="path60"
           style="fill:#404040;fill-opacity:1;fill-rule:nonzero;stroke:none"
           d="m 72,204 h -4 v 8 h 4 z" /><path
           id="path62"
           style="fill:#404040;fill-opacity:1;fill-rule:nonzero;stroke:none"
           d="m 80,204 h -4 v 8 h 4 z" /><path
           id="path64"
           style="fill:#404040;fill-opacity:1;fill-rule:nonzero;stroke:none"
           d="m 88,204 h -4 v 8 h 4 z" /><path
           id="path66"
           style="fill:#404040;fill-opacity:1;fill-rule:nonzero;stroke:none"
           d="m 96,204 h -4 v 8 h 4 z" /><path
           id="path68"
           style="fill:#404040;fill-opacity:1;fill-rule:nonzero;stroke:none"
           d="m 104,204 h -4 v 8 h 4 z" /><path
           id="path70"
           style="fill:#404040;fill-opacity:1;fill-rule:nonzero;stroke:none"
           d="m 112,204 h -4 v 8 h 4 z" /><path
           id="path72"
           style="fill:#404040;fill-opacity:1;fill-rule:nonzero;stroke:none"
           d="m 120,204 h -4 v 8 h 4 z" /><path
           id="path74"
           style="fill:#404040;fill-opacity:1;fill-rule:nonzero;stroke:none"
           d="m 128,204 h -4 v 8 h 4 z" /><path
           id="path76"
           style="fill:#404040;fill-opacity:1;fill-rule:nonzero;stroke:none"
           d="m 136,204 h -4 v 8 h 4 z" /><path
           id="path78"
           style="fill:#404040;fill-opacity:1;fill-rule:nonzero;stroke:none"
           d="m 144,204 h -4 v 8 h 4 z" /><path
           id="path80"
           style="fill:#404040;fill-opacity:1;fill-rule:nonzero;stroke:none"
           d="m 152,204 h -4 v 8 h 4 z" /><path
           id="path82"
           style="fill:#404040;fill-opacity:1;fill-rule:nonzero;stroke:none"
           d="m 160,204 h -4 v 8 h 4 z" /><path
           id="path84"
           style="fill:#404040;fill-opacity:1;fill-rule:nonzero;stroke:none"
           d="m 168,204 h -4 v 8 h 4 z" /><path
           id="path86"
           style="fill:#404040;fill-opacity:1;fill-rule:nonzero;stroke:none"
           d="m 176,204 h -4 v 8 h 4 z" /><path
           id="path88"
           style="fill:#404040;fill-opacity:1;fill-rule:nonzero;stroke:none"
           d="m 184,204 h -4 v 8 h 4 z" /><path
           id="path90"
           style="fill:#404040;fill-opacity:1;fill-rule:nonzero;stroke:none"
           d="m 192,204 h -4 v 8 h 4 z" /><path
           id="path92"
           style="fill:#404040;fill-opacity:1;fill-rule:nonzero;stroke:none"
           d="m 200,204 h -4 v 8 h 4 z" /><path
           id="path94"
           style="fill:#404040;fill-opacity:1;fill-rule:nonzero;stroke:none"
           d="m 208,204 h -4 v 8 h 4 z" /><path
           id="path96"
           style="fill:#404040;fill-opacity:1;fill-rule:nonzero;stroke:none"
           d="m 216,204 h -4 v 8 h 4 z" /><path
           id="path98"
           style="fill:#262626;fill-opacity:1;fill-rule:nonzero;stroke:none"
           d="m 24,56 h -4 v 8 h 4 z" /><path
           id="path100"
           style="fill:#262626;fill-opacity:1;fill-rule:nonzero;stroke:none"
           d="m 68,56 h -4 v 8 h 4 z" /><path
           id="path102"
           style="fill:#262626;fill-opacity:1;fill-rule:nonzero;stroke:none"
           d="m 40,56 h -4 v 8 h 4 z" /><path
           id="path104"
           style="fill:#262626;fill-opacity:1;fill-rule:nonzero;stroke:none"
           d="m 52,56 h -4 v 8 h 4 z" /><path
           id="path106"
           style="fill:#262626;fill-opacity:1;fill-rule:nonzero;stroke:none"
           d="m 192,56 h -4 v 8 h 4 z" /><path
           id="path108"
           style="fill:#262626;fill-opacity:1;fill-rule:nonzero;stroke:none"
           d="m 236,56 h -4 v 8 h 4 z" /><path
           id="path110"
           style="fill:#262626;fill-opacity:1;fill-rule:nonzero;stroke:none"
           d="m 208,56 h -4 v 8 h 4 z" /><path
           id="path112"
           style="fill:#262626;fill-opacity:1;fill-rule:nonzero;stroke:none"
           d="m 220,56 h -4 v 8 h 4 z" /><path
           id="path114"
           style="fill:#e77f22;fill-opacity:1;fill-rule:nonzero;stroke:none"
           d="M 64,108 H 20 v 4 h 44 z" /><path
           id="path116"
           style="fill:#eac500;fill-opacity:1;fill-rule:nonzero;stroke:none"
           d="M 108,108 H 64 v 4 h 44 z" /><path
           id="path118"
           style="fill:#007b00;fill-opacity:1;fill-rule:nonzero;stroke:none"
           d="m 148,108 h -40 v 4 h 40 z" /><path
           id="path120"
           style="fill:#3096cf;fill-opacity:1;fill-rule:nonzero;stroke:none"
           d="m 192,108 h -44 v 4 h 44 z" /><path
           id="path122"
           style="fill:#4b5da7;fill-opacity:1;fill-rule:nonzero;stroke:none"
           d="m 236,108 h -44 v 4 h 44 z" /></g></g></g></svg>