<?xml version="1.0" encoding="UTF-8" standalone="no"?>
<svg
   xmlns:dc="http://purl.org/dc/elements/1.1/"
   xmlns:cc="http://creativecommons.org/ns#"
   xmlns:rdf="http://www.w3.org/1999/02/22-rdf-syntax-ns#"
   xmlns:svg="http://www.w3.org/2000/svg"
   xmlns="http://www.w3.org/2000/svg"
   viewBox="0 0 330.66613 170.66626"
   height="170.66626"
   width="330.66614"
   xml:space="preserve"
   id="svg2"
   version="1.1"><metadata
     id="metadata8"><rdf:RDF><cc:Work
         rdf:about=""><dc:format>image/svg+xml</dc:format><dc:type
           rdf:resource="http://purl.org/dc/dcmitype/StillImage" /></cc:Work></rdf:RDF></metadata><defs
     id="defs6"><clipPath
       id="clipPath18"
       clipPathUnits="userSpaceOnUse"><path
         id="path16"
         d="M 0,256 H 256 V 0 H 0 Z" /></clipPath><clipPath
       id="clipPath26"
       clipPathUnits="userSpaceOnUse"><path
         id="path24"
         d="M 4,192 H 252 V 64 H 4 Z" /></clipPath></defs><g
     transform="matrix(1.3333333,0,0,-1.3333333,-5.3333332,255.99999)"
     id="g10"><g
       id="g12"><g
         clip-path="url(#clipPath18)"
         id="g14"><g
           id="g20"><g
             id="g22" /><g
             id="g34"><g
               style="opacity:0.5"
               id="g32"
               clip-path="url(#clipPath26)"><g
                 id="g30"
                 transform="translate(243.8926,79.1113)"><path
                   id="path28"
                   style="fill:#ffffff;fill-opacity:1;fill-rule:nonzero;stroke:none"
                   d="M 0,0 C 0.068,-0.36 0.107,-0.731 0.107,-1.111 0.107,-0.731 0.068,-0.36 0,0 m -231.854,-0.479 c -0.023,-0.208 -0.039,-0.418 -0.039,-0.632 0,0.214 0.016,0.424 0.039,0.632 m 226.727,105.347 -49.502,7.92 -0.628,0.101 h -0.636 -120 -0.635 l -0.628,-0.101 -49.502,-7.92 c -7.365,-0.399 -13.235,-6.516 -13.235,-13.979 v -32 -2 -6 -2 -48 c 0,-0.317 0.014,-0.636 0.041,-0.956 -0.027,-0.35 -0.041,-0.699 -0.041,-1.044 0,-7.72 6.281,-14 14,-14 h 220 c 7.72,0 14,6.28 14,14 0,0.345 -0.013,0.694 -0.04,1.044 0.027,0.32 0.04,0.639 0.04,0.956 v 48 2 6 2 32 c 0,7.463 -5.869,13.58 -13.234,13.979" /></g></g></g></g><g
           transform="translate(238,174)"
           id="g36"><path
             id="path38"
             style="fill:#262626;fill-opacity:1;fill-rule:nonzero;stroke:none"
             d="M 0,0 -50,10 H -170 L -220,0 c -2.611,0 -4.827,-1.671 -5.651,-4 H -226 v -90 c 0,-2.209 1.791,-4 4,-4 H 2 c 2.209,0 4,1.791 4,4 V -4 H 5.651 C 4.827,-1.671 2.611,0 0,0" /></g><g
           transform="translate(238,72)"
           id="g40"><path
             id="path42"
             style="fill:#191919;fill-opacity:1;fill-rule:nonzero;stroke:none"
             d="m 0,0 h -220 c -3.313,0 -6,2.687 -6,6 0,3.313 2.687,6 6,6 H 0 C 3.313,12 6,9.313 6,6 6,2.687 3.313,0 0,0" /></g><g
           transform="translate(18,88)"
           id="g44"><path
             id="path46"
             style="fill:#595959;fill-opacity:1;fill-rule:nonzero;stroke:none"
             d="m 0,0 h 220 c 2.611,0 4.827,-1.671 5.651,-4 H 226 c 0,3.313 -2.687,6 -6,6 H 0 c -3.313,0 -6,-2.687 -6,-6 h 0.349 c 0.824,2.329 3.04,4 5.651,4" /></g><path
           id="path48"
           style="fill:#4c4c4c;fill-opacity:1;fill-rule:nonzero;stroke:none"
           d="M 236,88 H 20 v 2 h 216 z" /><g
           transform="translate(18,92)"
           id="g50"><path
             id="path52"
             style="fill:#595959;fill-opacity:1;fill-rule:nonzero;stroke:none"
             d="m 0,0 h 220 c 2.611,0 4.827,-1.671 5.651,-4 H 226 c 0,3.313 -2.687,6 -6,6 H 0 c -3.313,0 -6,-2.687 -6,-6 h 0.349 c 0.824,2.329 3.04,4 5.651,4" /></g><path
           id="path54"
           style="fill:#4c4c4c;fill-opacity:1;fill-rule:nonzero;stroke:none"
           d="M 236,92 H 20 v 2 h 216 z" /><g
           transform="translate(18,96)"
           id="g56"><path
             id="path58"
             style="fill:#595959;fill-opacity:1;fill-rule:nonzero;stroke:none"
             d="m 0,0 h 220 c 2.611,0 4.827,-1.671 5.651,-4 H 226 c 0,3.313 -2.687,6 -6,6 H 0 c -3.313,0 -6,-2.687 -6,-6 h 0.349 c 0.824,2.329 3.04,4 5.651,4" /></g><path
           id="path60"
           style="fill:#4c4c4c;fill-opacity:1;fill-rule:nonzero;stroke:none"
           d="M 236,96 H 20 v 2 h 216 z" /><g
           transform="translate(18,100)"
           id="g62"><path
             id="path64"
             style="fill:#595959;fill-opacity:1;fill-rule:nonzero;stroke:none"
             d="m 0,0 h 220 c 2.611,0 4.827,-1.671 5.651,-4 H 226 c 0,3.313 -2.687,6 -6,6 H 0 c -3.313,0 -6,-2.687 -6,-6 h 0.349 c 0.824,2.329 3.04,4 5.651,4" /></g><path
           id="path66"
           style="fill:#4c4c4c;fill-opacity:1;fill-rule:nonzero;stroke:none"
           d="M 236,100 H 20 v 2 h 216 z" /><g
           transform="translate(18,104)"
           id="g68"><path
             id="path70"
             style="fill:#595959;fill-opacity:1;fill-rule:nonzero;stroke:none"
             d="m 0,0 h 220 c 2.611,0 4.827,-1.671 5.651,-4 H 226 c 0,3.313 -2.687,6 -6,6 H 0 c -3.313,0 -6,-2.687 -6,-6 h 0.349 c 0.824,2.329 3.04,4 5.651,4" /></g><path
           id="path72"
           style="fill:#4c4c4c;fill-opacity:1;fill-rule:nonzero;stroke:none"
           d="M 236,104 H 20 v 2 h 216 z" /><g
           transform="translate(18,108)"
           id="g74"><path
             id="path76"
             style="fill:#595959;fill-opacity:1;fill-rule:nonzero;stroke:none"
             d="m 0,0 h 220 c 2.611,0 4.827,-1.671 5.651,-4 H 226 c 0,3.313 -2.687,6 -6,6 H 0 c -3.313,0 -6,-2.687 -6,-6 h 0.349 c 0.824,2.329 3.04,4 5.651,4" /></g><path
           id="path78"
           style="fill:#4c4c4c;fill-opacity:1;fill-rule:nonzero;stroke:none"
           d="M 236,108 H 20 v 2 h 216 z" /><g
           transform="translate(18,112)"
           id="g80"><path
             id="path82"
             style="fill:#595959;fill-opacity:1;fill-rule:nonzero;stroke:none"
             d="m 0,0 h 220 c 2.611,0 4.827,-1.671 5.651,-4 H 226 c 0,3.313 -2.687,6 -6,6 H 0 c -3.313,0 -6,-2.687 -6,-6 h 0.349 c 0.824,2.329 3.04,4 5.651,4" /></g><path
           id="path84"
           style="fill:#4c4c4c;fill-opacity:1;fill-rule:nonzero;stroke:none"
           d="M 236,112 H 20 v 2 h 216 z" /><g
           transform="translate(18,116)"
           id="g86"><path
             id="path88"
             style="fill:#595959;fill-opacity:1;fill-rule:nonzero;stroke:none"
             d="m 0,0 h 220 c 2.611,0 4.827,-1.671 5.651,-4 H 226 c 0,3.313 -2.687,6 -6,6 H 0 c -3.313,0 -6,-2.687 -6,-6 h 0.349 c 0.824,2.329 3.04,4 5.651,4" /></g><path
           id="path90"
           style="fill:#4c4c4c;fill-opacity:1;fill-rule:nonzero;stroke:none"
           d="M 236,116 H 20 v 2 h 216 z" /><g
           transform="translate(18,120)"
           id="g92"><path
             id="path94"
             style="fill:#595959;fill-opacity:1;fill-rule:nonzero;stroke:none"
             d="m 0,0 h 220 c 2.611,0 4.827,-1.671 5.651,-4 H 226 c 0,3.313 -2.687,6 -6,6 H 0 c -3.313,0 -6,-2.687 -6,-6 h 0.349 c 0.824,2.329 3.04,4 5.651,4" /></g><path
           id="path96"
           style="fill:#4c4c4c;fill-opacity:1;fill-rule:nonzero;stroke:none"
           d="M 236,120 H 20 v 2 h 216 z" /><g
           transform="translate(18,124)"
           id="g98"><path
             id="path100"
             style="fill:#595959;fill-opacity:1;fill-rule:nonzero;stroke:none"
             d="m 0,0 h 220 c 2.611,0 4.827,-1.671 5.651,-4 H 226 c 0,3.313 -2.687,6 -6,6 H 0 c -3.313,0 -6,-2.687 -6,-6 h 0.349 c 0.824,2.329 3.04,4 5.651,4" /></g><path
           id="path102"
           style="fill:#4c4c4c;fill-opacity:1;fill-rule:nonzero;stroke:none"
           d="M 236,124 H 20 v 2 h 216 z" /><g
           transform="translate(18,128)"
           id="g104"><path
             id="path106"
             style="fill:#595959;fill-opacity:1;fill-rule:nonzero;stroke:none"
             d="m 0,0 h 220 c 2.611,0 4.827,-1.671 5.651,-4 H 226 c 0,3.313 -2.687,6 -6,6 H 0 c -3.313,0 -6,-2.687 -6,-6 h 0.349 c 0.824,2.329 3.04,4 5.651,4" /></g><g
           transform="translate(244,130)"
           id="g108"><path
             id="path110"
             style="fill:#595959;fill-opacity:1;fill-rule:nonzero;stroke:none"
             d="m 0,0 c 0,3.313 -2.687,6 -6,6 h -220 c -3.313,0 -6,-2.687 -6,-6 v -2 h 0.349 c 0.824,2.329 3.04,4 5.651,4 H -6 c 2.611,0 4.827,-1.671 5.651,-4 H 0 Z" /></g><g
           transform="translate(244,138)"
           id="g112"><path
             id="path114"
             style="fill:#595959;fill-opacity:1;fill-rule:nonzero;stroke:none"
             d="m 0,0 c 0,3.313 -2.687,6 -6,6 h -220 c -3.313,0 -6,-2.687 -6,-6 v -2 h 0.349 c 0.824,2.329 3.04,4 5.651,4 H -6 c 2.611,0 4.827,-1.671 5.651,-4 H 0 Z" /></g><path
           id="path116"
           style="fill:#4c4c4c;fill-opacity:1;fill-rule:nonzero;stroke:none"
           d="M 236,128 H 20 v 2 h 216 z" /><path
           id="path118"
           style="fill:#404040;fill-opacity:1;fill-rule:nonzero;stroke:none"
           d="m 36,148 h 184 v 4 H 36 Z" /><path
           id="path120"
           style="fill:#404040;fill-opacity:1;fill-rule:nonzero;stroke:none"
           d="m 44,156 h 168 v 4 H 44 Z" /><path
           id="path122"
           style="fill:#404040;fill-opacity:1;fill-rule:nonzero;stroke:none"
           d="m 28,140 h 200 v 4 H 28 Z" /><path
           id="path124"
           style="fill:#404040;fill-opacity:1;fill-rule:nonzero;stroke:none"
           d="m 68,180 h 120 v 4 H 68 Z" /><path
           id="path126"
           style="fill:#404040;fill-opacity:1;fill-rule:nonzero;stroke:none"
           d="m 20,132 h 216 v 4 H 20 Z" /><path
           id="path128"
           style="fill:#404040;fill-opacity:1;fill-rule:nonzero;stroke:none"
           d="m 60,172 h 136 v 4 H 60 Z" /><path
           id="path130"
           style="fill:#404040;fill-opacity:1;fill-rule:nonzero;stroke:none"
           d="m 52,164 h 152 v 4 H 52 Z" /><g
           transform="translate(60,176)"
           id="g132"><path
             id="path134"
             style="fill:#595959;fill-opacity:1;fill-rule:nonzero;stroke:none"
             d="m 0,0 -42,-6.72 c -3.313,0 -6,-2.686 -6,-6 h 0.349 c 0.824,2.329 3.04,4 5.651,4 L 0,-4 Z" /></g><g
           transform="translate(52,168)"
           id="g136"><path
             id="path138"
             style="fill:#595959;fill-opacity:1;fill-rule:nonzero;stroke:none"
             d="m 0,0 -34,-5.44 c -3.313,0 -6,-2.686 -6,-6 h 0.349 c 0.824,2.329 3.04,4 5.651,4 L 0,-4 Z" /></g><g
           transform="translate(44,160)"
           id="g140"><path
             id="path142"
             style="fill:#595959;fill-opacity:1;fill-rule:nonzero;stroke:none"
             d="m 0,0 -26,-4.16 c -3.313,0 -6,-2.686 -6,-6 h 0.349 c 0.824,2.329 3.04,4 5.651,4 L 0,-4 Z" /></g><g
           transform="translate(36,152)"
           id="g144"><path
             id="path146"
             style="fill:#595959;fill-opacity:1;fill-rule:nonzero;stroke:none"
             d="m 0,0 -18,-2.88 c -3.313,0 -6,-2.686 -6,-6 h 0.349 c 0.824,2.329 3.04,4 5.651,4 L 0,-4 Z" /></g><g
           transform="translate(28,144)"
           id="g148"><path
             id="path150"
             style="fill:#595959;fill-opacity:1;fill-rule:nonzero;stroke:none"
             d="m 0,0 -10,-1.6 c -3.313,0 -6,-2.686 -6,-6 h 0.349 c 0.824,2.329 3.04,4 5.651,4 L 0,-4 Z" /></g><g
           transform="translate(68,184)"
           id="g152"><path
             id="path154"
             style="fill:#595959;fill-opacity:1;fill-rule:nonzero;stroke:none"
             d="m 0,0 -50,-8 c -3.313,0 -6,-2.687 -6,-6 h 0.349 c 0.824,2.329 3.04,4 5.651,4 l 50,6 z" /></g><g
           transform="translate(188,184)"
           id="g156"><path
             id="path158"
             style="fill:#595959;fill-opacity:1;fill-rule:nonzero;stroke:none"
             d="m 0,0 50,-8 c 3.313,0 6,-2.686 6,-6 h -0.349 c -0.824,2.329 -3.04,4 -5.651,4 L 0,-4 Z" /></g><g
           transform="translate(196,176)"
           id="g160"><path
             id="path162"
             style="fill:#595959;fill-opacity:1;fill-rule:nonzero;stroke:none"
             d="m 0,0 42,-6.72 c 3.313,0 6,-2.686 6,-6 h -0.349 c -0.824,2.329 -3.04,4 -5.651,4 L 0,-4 Z" /></g><g
           transform="translate(204,168)"
           id="g164"><path
             id="path166"
             style="fill:#595959;fill-opacity:1;fill-rule:nonzero;stroke:none"
             d="m 0,0 34,-5.44 c 3.313,0 6,-2.686 6,-6 h -0.349 c -0.824,2.329 -3.04,4 -5.651,4 L 0,-4 Z" /></g><g
           transform="translate(212,160)"
           id="g168"><path
             id="path170"
             style="fill:#595959;fill-opacity:1;fill-rule:nonzero;stroke:none"
             d="m 0,0 26,-4.16 c 3.313,0 6,-2.686 6,-6 h -0.349 c -0.824,2.329 -3.04,4 -5.651,4 L 0,-4 Z" /></g><g
           transform="translate(220,152)"
           id="g172"><path
             id="path174"
             style="fill:#595959;fill-opacity:1;fill-rule:nonzero;stroke:none"
             d="m 0,0 18,-2.88 c 3.313,0 6,-2.686 6,-6 h -0.349 c -0.824,2.329 -3.04,4 -5.651,4 L 0,-4 Z" /></g><g
           transform="translate(228,144)"
           id="g176"><path
             id="path178"
             style="fill:#595959;fill-opacity:1;fill-rule:nonzero;stroke:none"
             d="m 0,0 10,-1.6 c 3.313,0 6,-2.686 6,-6 h -0.349 c -0.824,2.329 -3.04,4 -5.651,4 L 0,-4 Z" /></g></g></g></g></svg>