<svg xmlns="http://www.w3.org/2000/svg" xml:space="preserve" viewBox="0 0 256 256"><path d="M244 32H4v192h248V32z" style="opacity:.5;fill:#fff"/><path d="M12 40h232v176H12z" style="fill:#d9d4bc"/><path d="M204 156h16v8h-16z" style="fill:#b80000"/><path d="M204 168h16v8h-16z" style="fill:#d35400"/><path d="M204 180h16v8h-16z" style="fill:#f99d1c"/><path d="M204 192h16v8h-16z" style="fill:#fdb913"/><path d="M36 152v24h4v20h24v12h96v-12h24v-20h12v-24z" style="fill:#262626"/><path d="M12 124h232v20H12z" style="fill:#c4c0aa"/><path d="m40 124-28 20V40h28zm176 0 28 20V40h-28z" style="fill:#d9d4bc"/><path d="M40 100h176v24H40z" style="fill:#c4c0aa"/><path d="M40 40h176v60H40z" style="fill:#a6a390"/><path d="M42 40h2v56h-2zm4 0h2v56h-2zm4 0h2v56h-2zm4 0h2v56h-2zm4 0h2v56h-2zm4 0h2v56h-2zm4 0h2v56h-2zm4 0h2v56h-2zm4 0h2v56h-2zm4 0h2v56h-2zm4 0h2v56h-2zm4 0h2v56h-2zm4 0h2v56h-2zm4 0h2v56h-2zm4 0h2v56h-2zm4 0h2v56h-2zm4 0h2v56h-2zm4 0h2v56h-2zm4 0h2v56h-2zm4 0h2v56h-2zm4 0h2v56h-2zm4 0h2v56h-2zm4 0h2v56h-2zm4 0h2v56h-2zm4 0h2v56h-2zm4 0h2v56h-2zm4 0h2v56h-2zm4 0h2v56h-2zm4 0h2v56h-2zm4 0h2v56h-2zm4 0h2v56h-2zm4 0h2v56h-2zm4 0h2v56h-2zm4 0h2v56h-2zm4 0h2v56h-2zm4 0h2v56h-2zm4 0h2v56h-2zm4 0h2v56h-2zm4 0h2v56h-2zm4 0h2v56h-2zm4 0h2v56h-2zm4 0h2v56h-2z" style="fill:#8c8c8c"/><path d="M50 44h2v12h-2zm4 0h2v12h-2zm0 16h2v24h-2zm4 0h2v24h-2zm4 0h2v24h-2zm128 0h2v24h-2zm4 0h2v24h-2zm4 0h2v24h-2zM58 44h2v12h-2zm4 0h2v12h-2zm4 0h2v12h-2zm4 0h2v12h-2zm4 0h2v12h-2zm4 0h2v12h-2zm4 0h2v12h-2zm4 0h2v12h-2zm4 0h2v12h-2zm4 0h2v12h-2zm4 0h2v12h-2zm4 0h2v12h-2zm4 0h2v12h-2zm4 0h2v12h-2zm4 0h2v12h-2zm4 0h2v12h-2zm4 0h2v12h-2zm4 0h2v12h-2zm4 0h2v12h-2zm4 0h2v12h-2zm4 0h2v12h-2zm4 0h2v12h-2zm4 0h2v12h-2zm4 0h2v12h-2zm4 0h2v12h-2zm4 0h2v12h-2zm4 0h2v12h-2zm4 0h2v12h-2zm4 0h2v12h-2zm4 0h2v12h-2zm4 0h2v12h-2zm4 0h2v12h-2zm4 0h2v12h-2zm4 0h2v12h-2zm4 0h2v12h-2zm4 0h2v12h-2zm4 0h2v12h-2zm4 0h2v12h-2z" style="fill:#737373"/><path d="M210 40h2v56h-2z" style="fill:#8c8c8c"/><path d="M210 44h2v12h-2zM46 44h2v12h-2zm-4 0h2v12h-2z" style="fill:#737373"/><path d="M208 140H44l-4-16h172z" style="fill:#d9d4bc"/><path d="M112 140h32v4h-32z" style="fill:#a6a390"/><path d="M36 152h8v8h-8zm12 0h8v8h-8zm12 0h8v8h-8zm12 0h8v8h-8zm12 0h8v8h-8zm12 0h8v8h-8zm12 0h8v8h-8zm12 0h8v8h-8zm12 0h8v8h-8zm12 0h8v8h-8zm12 0h8v8h-8zm12 0h8v8h-8zm12 0h8v8h-8zM36 164h12v8H36zm4 12h12v8H40zm12-12h8v8h-8zm12 0h8v8h-8zm12 0h8v8h-8zm12 0h8v8h-8zm12 0h8v8h-8zm12 0h8v8h-8zm12 0h8v8h-8zm12 0h8v8h-8zm12 0h8v8h-8zm12 0h8v8h-8zm12 0h8v8h-8zM56 176h8v8h-8zm12 0h8v8h-8zm12 0h8v8h-8zm12 0h8v8h-8zm12 0h8v8h-8zm12 0h8v8h-8zm12 0h8v8h-8zm12 0h8v8h-8zm12 0h8v8h-8zm12 0h8v8h-8zm12 0h8v8h-8zM40 188h16v8H40zm20 0h8v8h-8zm12 0h8v8h-8zm12 0h8v8h-8zm12 0h8v8h-8zm12 0h8v8h-8zm12 0h8v8h-8zm12 0h8v8h-8zm12 0h8v8h-8zm12 0h8v8h-8zm12 0h8v8h-8zm12 0h4v8h-4zm4-24h12v8h-12zm8-12h4v8h-4zM64 200h96v8H64z" style="fill:#333"/><path d="M204 164h16v8h-16z" style="fill:#f99d1c"/><path d="M204 176h16v8h-16z" style="fill:#fdb913"/><path d="M204 188h16v8h-16z" style="fill:#ffcb05"/><path d="M204 200h16v8h-16z" style="fill:#c4c0aa"/><path d="M204 152h16v8h-16z" style="fill:#d35400"/></svg>