<?xml version="1.0" encoding="UTF-8" standalone="no"?>
<svg
   xmlns:dc="http://purl.org/dc/elements/1.1/"
   xmlns:cc="http://creativecommons.org/ns#"
   xmlns:rdf="http://www.w3.org/1999/02/22-rdf-syntax-ns#"
   xmlns:svg="http://www.w3.org/2000/svg"
   xmlns="http://www.w3.org/2000/svg"
   viewBox="0 0 319.99945 330.66626"
   height="330.66626"
   width="319.99945"
   xml:space="preserve"
   id="svg2"
   version="1.1"><metadata
     id="metadata8"><rdf:RDF><cc:Work
         rdf:about=""><dc:format>image/svg+xml</dc:format><dc:type
           rdf:resource="http://purl.org/dc/dcmitype/StillImage" /></cc:Work></rdf:RDF></metadata><defs
     id="defs6"><clipPath
       id="clipPath18"
       clipPathUnits="userSpaceOnUse"><path
         id="path16"
         d="M 0,256 H 256 V 0 H 0 Z" /></clipPath><clipPath
       id="clipPath26"
       clipPathUnits="userSpaceOnUse"><path
         id="path24"
         d="M 8,252 H 248 V 4 H 8 Z" /></clipPath></defs><g
     transform="matrix(1.3333333,0,0,-1.3333333,-10.6672,335.99999)"
     id="g10"><g
       id="g12"><g
         clip-path="url(#clipPath18)"
         id="g14"><g
           id="g20"><g
             id="g22" /><g
             id="g34"><g
               style="opacity:0.5"
               id="g32"
               clip-path="url(#clipPath26)"><g
                 id="g30"
                 transform="translate(243.6064,196.6133)"><path
                   id="path28"
                   style="fill:#ffffff;fill-opacity:1;fill-rule:nonzero;stroke:none"
                   d="m 0,0 c -0.181,0.555 -0.422,1.091 -0.722,1.598 -1.348,2.278 -2.972,4.523 -4.828,6.673 -0.464,0.537 -0.988,1.001 -1.556,1.388 -0.556,0.589 -1.134,1.176 -1.734,1.76 -0.375,0.595 -0.83,1.142 -1.356,1.625 -1.411,1.295 -2.934,2.575 -4.527,3.802 -0.287,0.221 -0.586,0.421 -0.894,0.598 v 7.726 c 0,4.218 -2.249,8.174 -5.869,10.323 -6.974,4.142 -15.52,7.154 -22.12,9.093 v 2.801 c 0,4.418 -3.582,8 -8,8 h -128 c -4.419,0 -8,-3.582 -8,-8 v -2.798 c -6.608,-1.939 -15.165,-4.953 -22.142,-9.095 -3.62,-2.15 -5.87,-6.106 -5.87,-10.324 v -7.991 c -13.097,-9.788 -19.988,-21.405 -19.988,-33.792 v -84 c 0,-5.419 1.344,-10.747 4,-15.87 v -29.656 c -0.007,-0.165 -0.012,-0.319 -0.012,-0.474 0,-0.159 0.005,-0.318 0.012,-0.476 v -5.524 c 0,-1.05 0.206,-2.077 0.595,-3.029 3.047,-13.012 17.671,-23.833 42.479,-31.379 0.951,-0.29 1.935,-0.437 2.927,-0.437 2.164,0 4.27,0.707 5.991,1.979 18.834,-4.676 40.803,-7.134 63.996,-7.134 23.44,0 45.598,2.504 64.546,7.269 1.714,-1.262 3.807,-1.965 5.956,-1.965 1,0 1.993,0.15 2.953,0.446 24.492,7.542 38.937,18.308 41.962,31.223 0.388,0.951 0.595,1.977 0.595,3.027 v 36.13 c 2.655,5.123 4,10.451 4,15.87 v 84 C 4.394,-10.931 2.916,-5.348 0,0" /></g></g></g></g><g
           transform="translate(235.9893,50)"
           id="g36"><path
             id="path38"
             style="fill:#191919;fill-opacity:1;fill-rule:nonzero;stroke:none"
             d="m 0,0 c 0,-20.987 -48.354,-38 -108,-38 -59.647,0 -108,17.013 -108,38 0,20.987 48.353,38 108,38 C -48.354,38 0,20.987 0,0" /></g><g
           transform="translate(240,180)"
           id="g40"><path
             id="path42"
             style="fill:#262626;fill-opacity:1;fill-rule:nonzero;stroke:none"
             d="m 0,0 c 0,11.028 -7.4,21.251 -20.011,29.665 v 12.119 c 0,1.412 -0.74,2.723 -1.954,3.444 -11.011,6.539 -26.872,10.101 -29.621,10.686 C -51.86,55.972 -52.133,56 -52.413,56 h -55.598 -8 -55.577 c -0.28,0 -0.551,-0.028 -0.825,-0.086 -2.751,-0.584 -18.63,-4.146 -29.644,-10.686 -1.214,-0.721 -1.954,-2.032 -1.954,-3.445 V 29.65 C -216.609,21.239 -224,11.021 -224,0 v -84 c 0,-4.78 1.397,-9.409 4,-13.806 V -136 l 0.153,0.017 c 1.562,-10.688 15.672,-20.207 37.25,-26.772 1.33,-0.405 2.719,0.619 2.623,2.006 -0.017,0.249 -0.026,0.498 -0.026,0.749 0,15.464 30.557,28 68.25,28 37.693,0 68.25,-12.536 68.25,-28 0,-0.2 -0.006,-0.399 -0.017,-0.598 -0.078,-1.389 1.277,-2.416 2.607,-2.006 21.3,6.559 35.207,16.015 36.758,26.621 L -4,-136 v 38.194 c 2.604,4.397 4,9.026 4,13.806 z" /></g><g
           transform="translate(139.9893,46)"
           id="g44"><path
             id="path46"
             style="fill:#b80000;fill-opacity:1;fill-rule:nonzero;stroke:none"
             d="m 0,0 c 0,-3.313 -5.373,-6 -12,-6 -6.628,0 -12,2.687 -12,6 0,3.313 5.372,6 12,6 C -5.373,6 0,3.313 0,0" /></g><g
           transform="translate(56,219.1582)"
           id="g48"><path
             id="path50"
             style="fill:#191919;fill-opacity:1;fill-rule:nonzero;stroke:none"
             d="M 0,0 C -1.361,-0.531 -2.695,-1.077 -4,-1.637 V -55.828 H 0 Z" /></g><g
           transform="translate(32,206.1255)"
           id="g52"><path
             id="path54"
             style="fill:#191919;fill-opacity:1;fill-rule:nonzero;stroke:none"
             d="M 0,0 C -1.419,-1.094 -2.753,-2.214 -4,-3.358 V -42.795 H 0 Z" /></g><g
           transform="translate(48,215.7173)"
           id="g56"><path
             id="path58"
             style="fill:#191919;fill-opacity:1;fill-rule:nonzero;stroke:none"
             d="m 0,0 c -1.37,-0.649 -2.704,-1.315 -4,-1.997 v -50.39 h 4 z" /></g><g
           transform="translate(40,211.4985)"
           id="g60"><path
             id="path62"
             style="fill:#191919;fill-opacity:1;fill-rule:nonzero;stroke:none"
             d="M 0,0 C -1.387,-0.817 -2.718,-1.655 -4,-2.511 V -48.168 H 0 Z" /></g><g
           transform="translate(20,81.5215)"
           id="g64"><path
             id="path66"
             style="fill:#191919;fill-opacity:1;fill-rule:nonzero;stroke:none"
             d="m 0,0 c 1.116,-1.886 2.453,-3.729 4,-5.521 v 122.66 c -1.547,-1.794 -2.884,-3.637 -4,-5.522 z" /></g><g
           transform="translate(60,220.6475)"
           id="g68"><path
             id="path70"
             style="fill:#191919;fill-opacity:1;fill-rule:nonzero;stroke:none"
             d="M 0,0 V -57.317 H 4 V 1.357 C 2.645,0.918 1.311,0.466 0,0" /></g><g
           transform="translate(200,220.1558)"
           id="g72"><path
             id="path74"
             style="fill:#191919;fill-opacity:1;fill-rule:nonzero;stroke:none"
             d="M 0,0 C 1.361,-0.531 2.695,-1.077 4,-1.637 V -55.828 H 0 Z" /></g><g
           transform="translate(224,207.1226)"
           id="g76"><path
             id="path78"
             style="fill:#191919;fill-opacity:1;fill-rule:nonzero;stroke:none"
             d="M 0,0 C 1.419,-1.094 2.753,-2.214 4,-3.358 V -42.795 H 0 Z" /></g><g
           transform="translate(208,216.7148)"
           id="g80"><path
             id="path82"
             style="fill:#191919;fill-opacity:1;fill-rule:nonzero;stroke:none"
             d="m 0,0 c 1.37,-0.649 2.704,-1.315 4,-1.997 v -50.39 H 0 Z" /></g><g
           transform="translate(216,212.4961)"
           id="g84"><path
             id="path86"
             style="fill:#191919;fill-opacity:1;fill-rule:nonzero;stroke:none"
             d="M 0,0 C 1.388,-0.817 2.718,-1.655 4,-2.511 V -48.168 H 0 Z" /></g><g
           transform="translate(236,82.5186)"
           id="g88"><path
             id="path90"
             style="fill:#191919;fill-opacity:1;fill-rule:nonzero;stroke:none"
             d="m 0,0 c -1.116,-1.885 -2.452,-3.728 -4,-5.521 v 122.66 c 1.548,-1.793 2.884,-3.636 4,-5.521 z" /></g><g
           transform="translate(196,221.645)"
           id="g92"><path
             id="path94"
             style="fill:#191919;fill-opacity:1;fill-rule:nonzero;stroke:none"
             d="M 0,0 V -57.317 H -4 V 1.357 C -2.645,0.918 -1.311,0.466 0,0" /></g><g
           transform="translate(192,240)"
           id="g96"><path
             id="path98"
             style="fill:#333333;fill-opacity:1;fill-rule:nonzero;stroke:none"
             d="M 0,0 -64,4 -128,0 V -36 H 0 Z" /></g><path
           id="path100"
           style="fill:#333333;fill-opacity:1;fill-rule:nonzero;stroke:none"
           d="m 74,192 h -4 v 12 h 4 z" /><path
           id="path102"
           style="fill:#333333;fill-opacity:1;fill-rule:nonzero;stroke:none"
           d="m 82,192 h -4 v 12 h 4 z" /><path
           id="path104"
           style="fill:#333333;fill-opacity:1;fill-rule:nonzero;stroke:none"
           d="m 90,192 h -4 v 12 h 4 z" /><path
           id="path106"
           style="fill:#333333;fill-opacity:1;fill-rule:nonzero;stroke:none"
           d="m 98,192 h -4 v 12 h 4 z" /><path
           id="path108"
           style="fill:#333333;fill-opacity:1;fill-rule:nonzero;stroke:none"
           d="m 106,192 h -4 v 12 h 4 z" /><path
           id="path110"
           style="fill:#333333;fill-opacity:1;fill-rule:nonzero;stroke:none"
           d="m 114,192 h -4 v 12 h 4 z" /><path
           id="path112"
           style="fill:#333333;fill-opacity:1;fill-rule:nonzero;stroke:none"
           d="m 122,192 h -4 v 12 h 4 z" /><path
           id="path114"
           style="fill:#333333;fill-opacity:1;fill-rule:nonzero;stroke:none"
           d="m 130,192 h -4 v 12 h 4 z" /><path
           id="path116"
           style="fill:#333333;fill-opacity:1;fill-rule:nonzero;stroke:none"
           d="m 138,192 h -4 v 12 h 4 z" /><path
           id="path118"
           style="fill:#333333;fill-opacity:1;fill-rule:nonzero;stroke:none"
           d="m 146,192 h -4 v 12 h 4 z" /><path
           id="path120"
           style="fill:#333333;fill-opacity:1;fill-rule:nonzero;stroke:none"
           d="m 154,192 h -4 v 12 h 4 z" /><path
           id="path122"
           style="fill:#333333;fill-opacity:1;fill-rule:nonzero;stroke:none"
           d="m 162,192 h -4 v 12 h 4 z" /><path
           id="path124"
           style="fill:#333333;fill-opacity:1;fill-rule:nonzero;stroke:none"
           d="m 170,192 h -4 v 12 h 4 z" /><path
           id="path126"
           style="fill:#333333;fill-opacity:1;fill-rule:nonzero;stroke:none"
           d="m 178,192 h -4 v 12 h 4 z" /><path
           id="path128"
           style="fill:#333333;fill-opacity:1;fill-rule:nonzero;stroke:none"
           d="m 186,192 h -4 v 12 h 4 z" /><g
           transform="translate(64,196)"
           id="g130"><path
             id="path132"
             style="fill:#333333;fill-opacity:1;fill-rule:nonzero;stroke:none"
             d="M 0,0 64,4 128,0 V -20 H 0 Z" /></g><g
           transform="translate(64,192)"
           id="g134"><path
             id="path136"
             style="fill:#333333;fill-opacity:1;fill-rule:nonzero;stroke:none"
             d="m 0,0 v -76 h 0.137 c 2.067,-33.481 29.862,-60 63.863,-60 34.002,0 61.796,26.519 63.863,60 H 128 V 0 Z" /></g><g
           transform="translate(80.1196,90.9932)"
           id="g138"><path
             id="path140"
             style="fill:#262626;fill-opacity:1;fill-rule:nonzero;stroke:none"
             d="m 0,0 c -2.456,-1.365 -4.12,-3.983 -4.12,-6.993 0,-4.418 3.582,-8 8,-8 2.445,0 4.63,1.099 6.098,2.828 C 6.114,-8.608 2.746,-4.517 0,0" /></g><g
           transform="translate(180,196)"
           id="g142"><path
             id="path144"
             style="fill:#191919;fill-opacity:1;fill-rule:nonzero;stroke:none"
             d="m 0,0 v -77.411 l -0.114,-1.85 C -1.801,-106.591 -24.592,-128 -52,-128 c -27.408,0 -50.199,21.409 -51.886,48.739 l -0.114,1.85 V 0 h -4 v -77.535 l 0.122,-1.972 C -106.061,-108.942 -81.517,-132 -52,-132 c 29.517,0 54.062,23.058 55.878,52.493 L 4,-77.535 V 0 Z" /></g><g
           transform="translate(178.2031,91)"
           id="g146"><path
             id="path148"
             style="fill:#262626;fill-opacity:1;fill-rule:nonzero;stroke:none"
             d="M 0,0 C -2.461,-4.247 -5.44,-8.152 -8.854,-11.627 -10.087,-12.883 -9.194,-15 -7.435,-15 h 0.008 c 0.536,0 1.053,0.211 1.429,0.593 3.65,3.715 6.837,7.886 9.467,12.427 C 4.234,-0.658 3.263,1 1.735,1 H 1.716 C 1.005,1 0.356,0.615 0,0" /></g><g
           transform="translate(161.957,124)"
           id="g150"><path
             id="path152"
             style="fill:#262626;fill-opacity:1;fill-rule:nonzero;stroke:none"
             d="M 0,0 H -67.914 C -76.086,0 -81.993,-8.033 -79.313,-15.753 -72.793,-34.524 -54.949,-48 -33.957,-48 -12.965,-48 4.879,-34.524 11.398,-15.753 14.079,-8.033 8.172,0 0,0 m 0,-2 c 3.302,0 6.296,-1.548 8.216,-4.246 1.864,-2.622 2.336,-5.848 1.293,-8.851 C 3.09,-33.581 -14.378,-46 -33.957,-46 c -19.579,0 -37.047,12.419 -43.466,30.903 -1.043,3.003 -0.571,6.229 1.294,8.851 1.919,2.698 4.914,4.246 8.215,4.246 H 0" /></g><g
           transform="translate(124.4155,91.9795)"
           id="g154"><path
             id="path156"
             style="fill:#404040;fill-opacity:1;fill-rule:nonzero;stroke:none"
             d="m 0,0 c -11.876,1.164 -21.804,8.041 -26.111,17.406 -0.667,1.452 -2.075,2.419 -3.672,2.419 -2.878,0 -4.859,-2.971 -3.671,-5.592 5.43,-11.978 17.817,-20.735 32.646,-22.193 2.352,-0.231 4.392,1.624 4.392,3.986 v 0.005 C 3.584,-1.922 2.037,-0.199 0,0" /></g><g
           transform="translate(76.0889,208)"
           id="g158"><path
             id="path160"
             style="fill:#191919;fill-opacity:1;fill-rule:nonzero;stroke:none"
             d="m 0,0 h 104 v 20 c 0,0 -12,8 -52,8 C 12,28 4,20 0,20 -0.276,20 -0.257,19.961 0,19.89 Z" /></g><path
           id="path162"
           style="fill:#4c4c4c;fill-opacity:1;fill-rule:nonzero;stroke:none"
           d="M 192,240 H 64 v 4 h 128 z" /></g></g></g></svg>