<svg xmlns="http://www.w3.org/2000/svg" xml:space="preserve" width="330.667" height="213.333" viewBox="0 0 330.667 213.333"><defs><clipPath id="a" clipPathUnits="userSpaceOnUse"><path d="M0 256h256V0H0Z"/></clipPath><clipPath id="b" clipPathUnits="userSpaceOnUse"><path d="M4 208h248V48H4Z"/></clipPath><clipPath id="c" clipPathUnits="userSpaceOnUse"><path d="M0 256h256V0H0Z"/></clipPath></defs><g clip-path="url(#a)" transform="matrix(1.33333 0 0 -1.33333 -5.333 277.333)"><g clip-path="url(#b)" style="opacity:.5"><path d="M0 0h-248v-160H0V-8z" style="fill:#fff;fill-opacity:1;fill-rule:nonzero;stroke:none" transform="translate(252 208)"/></g></g><path d="M244 56H12v144h232z" style="fill:#0d0d0d;fill-opacity:1;fill-rule:nonzero;stroke:none" transform="matrix(1.33333 0 0 -1.33333 -5.333 277.333)"/><path d="M240 72H16v68h224z" style="fill:#191919;fill-opacity:1;fill-rule:nonzero;stroke:none" transform="matrix(1.33333 0 0 -1.33333 -5.333 277.333)"/><path d="M240 56H16v12h224z" style="fill:#e77f22;fill-opacity:1;fill-rule:nonzero;stroke:none" transform="matrix(1.33333 0 0 -1.33333 -5.333 277.333)"/><path d="M236 128H20v4h216zm0 8H20v4h216zm0-16H20v4h216zm0-8H20v4h216zm0-8H20v4h216zm0-8H20v4h216zm0-8H20v4h216zm0-8H20v4h216zm0-8H20v4h216z" style="fill:#262626;fill-opacity:1;fill-rule:nonzero;stroke:none" transform="matrix(1.33333 0 0 -1.33333 -5.333 277.333)"/><path d="M236 144H20v28h216z" style="fill:#333;fill-opacity:1;fill-rule:nonzero;stroke:none" transform="matrix(1.33333 0 0 -1.33333 -5.333 277.333)"/><path d="M236 172H20v-28h216zm-1-27H21v26h214z" style="fill:#e77f22;fill-opacity:1;fill-rule:nonzero;stroke:none" transform="matrix(1.33333 0 0 -1.33333 -5.333 277.333)"/><g clip-path="url(#c)" transform="matrix(1.33333 0 0 -1.33333 -5.333 277.333)"><path d="M0 0c-2.2 0-4 1.8-4 4v8c0 2.2 1.8 4 4 4s4-1.8 4-4V4c0-2.2-1.8-4-4-4" style="fill:#0d0d0d;fill-opacity:1;fill-rule:nonzero;stroke:none" transform="translate(40 148)"/><path d="M0 0a2 2 0 1 0-4.001.001A2 2 0 0 0 0 0" style="fill:#ccc;fill-opacity:1;fill-rule:nonzero;stroke:none" transform="translate(42 160)"/><path d="M0 0c-2.2 0-4 1.8-4 4v8c0 2.2 1.8 4 4 4s4-1.8 4-4V4c0-2.2-1.8-4-4-4" style="fill:#0d0d0d;fill-opacity:1;fill-rule:nonzero;stroke:none" transform="translate(60 148)"/><path d="M0 0a2 2 0 1 0-4.001.001A2 2 0 0 0 0 0" style="fill:#ccc;fill-opacity:1;fill-rule:nonzero;stroke:none" transform="translate(62 160)"/><path d="M0 0c-2.2 0-4 1.8-4 4v8c0 2.2 1.8 4 4 4s4-1.8 4-4V4c0-2.2-1.8-4-4-4" style="fill:#0d0d0d;fill-opacity:1;fill-rule:nonzero;stroke:none" transform="translate(80 148)"/><path d="M0 0a2 2 0 1 0-4.001.001A2 2 0 0 0 0 0" style="fill:#ccc;fill-opacity:1;fill-rule:nonzero;stroke:none" transform="translate(82 152)"/><path d="M0 0c-2.2 0-4 1.8-4 4v8c0 2.2 1.8 4 4 4s4-1.8 4-4V4c0-2.2-1.8-4-4-4" style="fill:#0d0d0d;fill-opacity:1;fill-rule:nonzero;stroke:none" transform="translate(172 148)"/><path d="M0 0a2 2 0 1 0-4.001.001A2 2 0 0 0 0 0" style="fill:#ccc;fill-opacity:1;fill-rule:nonzero;stroke:none" transform="translate(174 152)"/><path d="M0 0c-2.2 0-4 1.8-4 4v8c0 2.2 1.8 4 4 4s4-1.8 4-4V4c0-2.2-1.8-4-4-4" style="fill:#0d0d0d;fill-opacity:1;fill-rule:nonzero;stroke:none" transform="translate(192 148)"/><path d="M0 0h-216l-4 24H4Z" style="fill:#262626;fill-opacity:1;fill-rule:nonzero;stroke:none" transform="translate(236 172)"/><path d="M0 0a2 2 0 1 0-4.001.001A2 2 0 0 0 0 0" style="fill:#ccc;fill-opacity:1;fill-rule:nonzero;stroke:none" transform="translate(194 160)"/><path d="M0 0c-2.2 0-4 1.8-4 4v8c0 2.2 1.8 4 4 4s4-1.8 4-4V4c0-2.2-1.8-4-4-4" style="fill:#0d0d0d;fill-opacity:1;fill-rule:nonzero;stroke:none" transform="translate(212 148)"/><path d="M0 0a2 2 0 1 0-4.001.001A2 2 0 0 0 0 0" style="fill:#ccc;fill-opacity:1;fill-rule:nonzero;stroke:none" transform="translate(214 160)"/><path d="M0 0h-56a2 2 0 0 1-2-2v-12a2 2 0 0 1 2-2H0a2 2 0 0 1 2 2v12a2 2 0 0 1-2 2m0-14h-56v12H0Z" style="fill:#0d0d0d;fill-opacity:1;fill-rule:nonzero;stroke:none" transform="translate(154 164)"/><path d="M52 124h-8v4h8zm0-32h-8v4h8zm12 16H32v4h32zm-4-8H36v4h24zm148 24h-8v4h8zm0-32h-8v4h8zm12 16h-32v4h32zm-160 8H36v4h24zm156 0h-24v4h24zm0-16h-24v4h24zm-108 52h-8v4h8zm44 0h-8v4h8z" style="fill:#0d0d0d;fill-opacity:1;fill-rule:nonzero;stroke:none"/></g></svg>