<svg xmlns="http://www.w3.org/2000/svg" xml:space="preserve" viewBox="0 0 256 256"><path d="M240 4H16C9.383 4 4 9.383 4 16v220c0 6.617 5.383 12 12 12h12v4h128v-4h84c6.617 0 12-5.383 12-12V16c0-6.617-5.383-12-12-12" style="opacity:.5;fill:#fff"/><path d="M36 236h24v8H36zm28 0h84v8H64z" style="fill:#0e6654"/><path d="M38 236h2v8h-2zm4 0h2v8h-2zm4 0h2v8h-2zm4 0h2v8h-2zm4 0h2v8h-2zm4 0h2v8h-2zm8 0h2v8h-2zm4 0h2v8h-2zm4 0h2v8h-2zm4 0h2v8h-2zm4 0h2v8h-2zm4 0h2v8h-2zm4 0h2v8h-2zm4 0h2v8h-2zm4 0h2v8h-2zm4 0h2v8h-2zm4 0h2v8h-2zm4 0h2v8h-2zm4 0h2v8h-2zm4 0h2v8h-2zm4 0h2v8h-2zm4 0h2v8h-2zm4 0h2v8h-2zm4 0h2v8h-2zm4 0h2v8h-2zm4 0h2v8h-2zm4 0h2v8h-2z" style="fill:#d9af63"/><path d="M240 240H16a4 4 0 0 1-4-4V16a4 4 0 0 1 4-4h224a4 4 0 0 1 4 4v220a4 4 0 0 1-4 4" style="fill:red"/><path d="M28 36h156v148H28z" style="fill:#b80000"/><path d="M50 60a2 2 0 0 0-2 2v92a2 2 0 0 0 2 2h100a2 2 0 0 0 2-2V62a2 2 0 0 0-2-2z" style="fill:#3d0000"/><path d="M148 150a2 2 0 0 1-2 2H54a2 2 0 0 1-2-2V66a2 2 0 0 1 2-2h92a2 2 0 0 1 2 2z" style="fill:#7b0000"/><path d="M136 78h4v40h-4z" style="fill:#828282"/><circle cx="138" cy="74" r="2" style="fill:#595959"/><circle cx="138" cy="122" r="2" style="fill:#595959"/><circle cx="78" cy="98" r="2" style="fill:#3d0000"/><path d="M100 36v24h12v2h20v-2h12V36zm-54 84h2v12h-2zm106-52h2v12h-2z" style="fill:#7b0000"/><path d="M212 36v176H28v24h212V36z" style="fill:#b80000"/><path d="M235 232h-50a1 1 0 0 1-1-1v-46a1 1 0 0 1 1-1h50a1 1 0 0 1 1 1v46a1 1 0 0 1-1 1" style="fill:#f2f2f2"/><path d="M28 182a2 2 0 0 1 2-2h140a2 2 0 0 1 2 2v58h1.033v-58a3.037 3.037 0 0 0-3.033-3.033H30A3.037 3.037 0 0 0 26.967 182v58H28zm216-26h-61.934a2.066 2.066 0 0 1-2.066-2.066V38.066c0-1.141.925-2.066 2.066-2.066H244v-1.033h-61.934a3.1 3.1 0 0 0-3.098 3.098v115.869a3.1 3.1 0 0 0 3.098 3.098H244z" style="fill:#3d0000"/><path d="M180 104V92h-28v12h-2v24h2v12h28v-12h2v-24zm-48 52v-2h-20v2h-12v24h12v2h20v-2h12v-24z" style="fill:#7b0000"/></svg>