<svg height="202.66666" viewBox="0 0 330.66665 202.66665" width="330.66666" xmlns="http://www.w3.org/2000/svg" xmlns:xlink="http://www.w3.org/1999/xlink"><clipPath id="a"><path d="m0 256h256v-256h-256z"/></clipPath><clipPath id="b"><path d="m4 204h248v-152h-248z"/></clipPath><g transform="matrix(1.3333333 0 0 -1.3333333 -5.333333 271.99999)"><g clip-path="url(#a)"><g clip-path="url(#b)" opacity=".5"><path d="m0 0v84 .531l-.07.526-8 60-.926 6.943h-230.008l-.926-6.943-8-60-.07-.526v-.531-84z" fill="#fff" transform="translate(252 52)"/></g></g><path d="m244 60h-232v76h232z" fill="#d9d9d9"/><path d="m0 0h-232l8 60h216z" fill="#e6e6e6" transform="translate(244 136)"/><path d="m36 60h-4v136h4z" fill="#ccc"/><path d="m44 60h-4v136h4z" fill="#ccc"/><path d="m52 60h-4v136h4z" fill="#ccc"/><path d="m60 60h-4v136h4z" fill="#ccc"/><path d="m68 60h-4v136h4z" fill="#ccc"/><path d="m76 60h-4v136h4z" fill="#ccc"/><path d="m84 60h-4v136h4z" fill="#ccc"/><path d="m92 60h-4v136h4z" fill="#ccc"/><path d="m100 60h-4v136h4z" fill="#ccc"/><path d="m108 60h-4v136h4z" fill="#ccc"/><path d="m116 60h-4v136h4z" fill="#ccc"/><path d="m124 60h-4v136h4z" fill="#ccc"/><path d="m132 60h-4v136h4z" fill="#ccc"/><path d="m140 60h-4v136h4z" fill="#ccc"/><path d="m148 60h-4v136h4z" fill="#ccc"/><path d="m156 60h-4v136h4z" fill="#ccc"/><path d="m164 60h-4v136h4z" fill="#ccc"/><path d="m172 60h-4v136h4z" fill="#ccc"/><path d="m180 60h-4v136h4z" fill="#ccc"/><path d="m188 60h-4v136h4z" fill="#ccc"/><path d="m196 60h-4v136h4z" fill="#ccc"/><path d="m204 60h-4v136h4z" fill="#ccc"/><path d="m212 60h-4v136h4z" fill="#ccc"/><path d="m220 60h-4v136h4z" fill="#ccc"/><path d="m0 0h-200l4 68h192z" fill="#191919" transform="translate(228 68)"/><g fill="#333"><path d="m48 120h-8v8h8z"/><path d="m44 96h-8v8h8z"/><path d="m48 84h-8v8h8z"/><path d="m60 84h-8v8h8z"/><path d="m72 84h-8v8h8z"/><path d="m84 84h-8v8h8z"/><path d="m96 84h-8v8h8z"/><path d="m108 84h-8v8h8z"/><path d="m120 84h-8v8h8z"/><path d="m132 84h-8v8h8z"/><path d="m144 84h-8v8h8z"/><path d="m156 84h-8v8h8z"/><path d="m168 84h-8v8h8z"/><path d="m180 84h-8v8h8z"/><path d="m192 84h-8v8h8z"/><path d="m56 96h-8v8h8z"/><path d="m68 96h-8v8h8z"/><path d="m80 96h-8v8h8z"/><path d="m92 96h-8v8h8z"/><path d="m104 96h-8v8h8z"/><path d="m116 96h-8v8h8z"/><path d="m128 96h-8v8h8z"/><path d="m140 96h-8v8h8z"/><path d="m152 96h-8v8h8z"/><path d="m164 96h-8v8h8z"/><path d="m176 96h-8v8h8z"/><path d="m188 96h-8v8h8z"/><path d="m200 96h-8v8h8z"/><path d="m44 108h-8v8h8z"/><path d="m56 108h-8v8h8z"/><path d="m68 108h-8v8h8z"/><path d="m80 108h-8v8h8z"/><path d="m92 108h-8v8h8z"/><path d="m104 108h-8v8h8z"/><path d="m116 108h-8v8h8z"/><path d="m128 108h-8v8h8z"/><path d="m140 108h-8v8h8z"/><path d="m152 108h-8v8h8z"/><path d="m164 108h-8v8h8z"/><path d="m176 108h-8v8h8z"/><path d="m188 108h-8v8h8z"/><path d="m200 108h-8v8h8z"/><path d="m60 120h-8v8h8z"/><path d="m72 120h-8v8h8z"/><path d="m84 120h-8v8h8z"/><path d="m96 120h-8v8h8z"/><path d="m108 120h-8v8h8z"/><path d="m120 120h-8v8h8z"/><path d="m132 120h-8v8h8z"/><path d="m144 120h-8v8h8z"/><path d="m156 120h-8v8h8z"/><path d="m168 120h-8v8h8z"/><path d="m180 120h-8v8h8z"/><path d="m192 120h-8v8h8z"/><path d="m208 120h-12v8h12z"/><path d="m164 72h-88v8h88z"/></g><path d="m52 72h-20v8h20z" fill="#e6e6e6"/></g></svg>