<svg xmlns="http://www.w3.org/2000/svg" width="330.667" height="202.667" viewBox="0 0 330.667 202.667"><clipPath id="a"><path d="M0 256h256V0H0z"/></clipPath><clipPath id="b"><path d="M4 204h248V52H4z"/></clipPath><g clip-path="url(#a)" transform="matrix(1.33333 0 0 -1.33333 -5.333 272)"><g clip-path="url(#b)" opacity=".5"><path fill="#fff" d="M252 52v84.531l-.07.526-8 60-.926 6.943H12.996l-.926-6.943-8-60-.07-.526V52z"/></g></g><path fill="#d9d9d9" d="M320 192H10.667V90.667H320z"/><path fill="#e6e6e6" d="M320 90.667H10.667l10.666-80h288z"/><path fill="#ccc" d="M42.667 192h-5.334V10.667h5.334zm10.666 0H48V10.667h5.333zM64 192h-5.333V10.667H64zm10.667 0h-5.334V10.667h5.334zm10.666 0H80V10.667h5.333zM96 192h-5.333V10.667H96zm10.667 0h-5.334V10.667h5.334zm10.666 0H112V10.667h5.333zM128 192h-5.333V10.667H128zm10.667 0h-5.334V10.667h5.334zm10.666 0H144V10.667h5.333zM160 192h-5.333V10.667H160zm10.667 0h-5.334V10.667h5.334zm10.666 0H176V10.667h5.333zM192 192h-5.333V10.667H192zm10.667 0h-5.334V10.667h5.334zm10.666 0H208V10.667h5.333zM224 192h-5.333V10.667H224zm10.667 0h-5.334V10.667h5.334zm10.666 0H240V10.667h5.333zM256 192h-5.333V10.667H256zm10.667 0h-5.334V10.667h5.334zm10.666 0H272V10.667h5.333zM288 192h-5.333V10.667H288z"/><path fill="#191919" d="M298.667 181.333H32l5.333-90.666h256z"/><path fill="#333" d="M58.667 112H48v-10.667h10.667zm-5.334 32H42.667v-10.667h10.666zm5.334 16H48v-10.667h10.667zm16 0H64v-10.667h10.667zm16 0H80v-10.667h10.667zm16 0H96v-10.667h10.667zm16 0H112v-10.667h10.667zm16 0H128v-10.667h10.667zm16 0H144v-10.667h10.667zm16 0H160v-10.667h10.667zm16 0H176v-10.667h10.667zm16 0H192v-10.667h10.667zm16 0H208v-10.667h10.667zm16 0H224v-10.667h10.667zm16 0H240v-10.667h10.667zM69.333 144H58.667v-10.667h10.666zm16 0H74.667v-10.667h10.666zm16 0H90.667v-10.667h10.666zm16 0h-10.666v-10.667h10.666zm16 0h-10.666v-10.667h10.666zm16 0h-10.666v-10.667h10.666zm16 0h-10.666v-10.667h10.666zm16 0h-10.666v-10.667h10.666zm16 0h-10.666v-10.667h10.666zm16 0h-10.666v-10.667h10.666zm16 0h-10.666v-10.667h10.666zm16 0h-10.666v-10.667h10.666zm16 0h-10.666v-10.667h10.666zm-208-16H42.667v-10.667h10.666zm16 0H58.667v-10.667h10.666zm16 0H74.667v-10.667h10.666zm16 0H90.667v-10.667h10.666zm16 0h-10.666v-10.667h10.666zm16 0h-10.666v-10.667h10.666zm16 0h-10.666v-10.667h10.666zm16 0h-10.666v-10.667h10.666zm16 0h-10.666v-10.667h10.666zm16 0h-10.666v-10.667h10.666zm16 0h-10.666v-10.667h10.666zm16 0h-10.666v-10.667h10.666zm16 0h-10.666v-10.667h10.666zm16 0h-10.666v-10.667h10.666zM74.667 112H64v-10.667h10.667zm16 0H80v-10.667h10.667zm16 0H96v-10.667h10.667zm16 0H112v-10.667h10.667zm16 0H128v-10.667h10.667zm16 0H144v-10.667h10.667zm16 0H160v-10.667h10.667zm16 0H176v-10.667h10.667zm16 0H192v-10.667h10.667zm16 0H208v-10.667h10.667zm16 0H224v-10.667h10.667zm16 0H240v-10.667h10.667zM272 112h-16v-10.667h16zm-58.667 64H96v-10.667h117.333z"/><path fill="#e6e6e6" d="M64 176H37.333v-10.667H64z"/></svg>