<svg xmlns="http://www.w3.org/2000/svg" xml:space="preserve" width="330.667" height="245.333" viewBox="0 0 330.667 245.333"><defs><clipPath id="a" clipPathUnits="userSpaceOnUse"><path d="M0 256h256V0H0Z"/></clipPath><clipPath id="b" clipPathUnits="userSpaceOnUse"><path d="M4 220h248V36H4Z"/></clipPath></defs><g clip-path="url(#a)" transform="matrix(1.33333 0 0 -1.33333 -5.333 293.333)"><g clip-path="url(#b)" style="opacity:.5"><path d="M0 0h-216c-8.822 0-16-7.178-16-16v-152c0-8.822 7.178-16 16-16H0c8.822 0 16 7.178 16 16v152C16-7.178 8.822 0 0 0" style="fill:#fff;fill-opacity:1;fill-rule:nonzero;stroke:none" transform="translate(236 220)"/></g><path d="M0 0h-216a8 8 0 0 0-8 8v152a8 8 0 0 0 8 8H0a8 8 0 0 0 8-8V8a8 8 0 0 0-8-8" style="fill:#262626;fill-opacity:1;fill-rule:nonzero;stroke:none" transform="translate(236 44)"/><path d="M180 168H76v20h104z" style="fill:#333;fill-opacity:1;fill-rule:nonzero;stroke:none"/><path d="M0 0h-176a4 4 0 0 0-4 4v64a4 4 0 0 0 4 4H0a4 4 0 0 0 4-4V4a4 4 0 0 0-4-4" style="fill:#ccc;fill-opacity:1;fill-rule:nonzero;stroke:none" transform="translate(216 64)"/><path d="M0 0v-144c3.313 0 6 32.235 6 72S3.313 0 0 0" style="fill:#191919;fill-opacity:1;fill-rule:nonzero;stroke:none" transform="translate(22 196)"/><path d="M0 0v-144c-3.313 0-6 32.235-6 72S-3.313 0 0 0" style="fill:#191919;fill-opacity:1;fill-rule:nonzero;stroke:none" transform="translate(238 196)"/><path d="M180 188H76v8h104z" style="fill:#191919;fill-opacity:1;fill-rule:nonzero;stroke:none"/><path d="M162 72H94v32h68zM62 112H50v12h12zm16 0H66v12h12zm16 0H82v12h12zm16 0H98v12h12zm16 0h-12v12h12zm16 0h-12v12h12zm16 0h-12v12h12zm16 0h-12v12h12zm16 0h-12v12h12zm16 0h-12v12h12z" style="fill:#262626;fill-opacity:1;fill-rule:nonzero;stroke:none"/><path d="M0 0a2 2 0 0 0-2 2v8a2 2 0 0 0 4 0V2a2 2 0 0 0-2-2" style="fill:#262626;fill-opacity:1;fill-rule:nonzero;stroke:none" transform="translate(58 84)"/><path d="M0 0a2 2 0 1 1 .001-4.001A2 2 0 0 1 0 0m0-1a1.001 1.001 0 0 0 0-2 1.001 1.001 0 0 0 0 2" style="fill:#595959;fill-opacity:1;fill-rule:nonzero;stroke:none" transform="translate(58 96)"/><path d="M0 0a2 2 0 0 0-2 2v4a2 2 0 0 0 4 0V2a2 2 0 0 0-2-2" style="fill:#262626;fill-opacity:1;fill-rule:nonzero;stroke:none" transform="translate(78 88)"/><path d="M0 0a2 2 0 1 1 .001-4.001A2 2 0 0 1 0 0m0-1a1.001 1.001 0 0 0 0-2 1.001 1.001 0 0 0 0 2" style="fill:#595959;fill-opacity:1;fill-rule:nonzero;stroke:none" transform="translate(78 96)"/><path d="M0 0a2 2 0 0 0 2-2v-4a2 2 0 0 0-4 0v4a2 2 0 0 0 2 2" style="fill:#262626;fill-opacity:1;fill-rule:nonzero;stroke:none" transform="translate(178 96)"/><path d="M0 0a2 2 0 1 1-.001 4.001A2 2 0 0 1 0 0m0 1a1 1 0 1 0 0 2 1 1 0 0 0 0-2" style="fill:#595959;fill-opacity:1;fill-rule:nonzero;stroke:none" transform="translate(178 88)"/><path d="M0 0a2 2 0 0 0 2-2v-4a2 2 0 0 0-4 0v4a2 2 0 0 0 2 2" style="fill:#262626;fill-opacity:1;fill-rule:nonzero;stroke:none" transform="translate(198 96)"/><path d="M0 0a2 2 0 1 1-.001 4.001A2 2 0 0 1 0 0m0 1a1 1 0 1 0 0 2 1 1 0 0 0 0-2" style="fill:#595959;fill-opacity:1;fill-rule:nonzero;stroke:none" transform="translate(198 88)"/><path d="M40 107h-4v2h4zm8 0h-4v2h4zm8 0h-4v2h4zm8 0h-4v2h4zm8 0h-4v2h4zm8 0h-4v2h4zm8 0h-4v2h4zm8 0h-4v2h4zm8 0h-4v2h4zm8 0h-4v2h4zm8 0h-4v2h4zm8 0h-4v2h4zm8 0h-4v2h4zm8 0h-4v2h4zm8 0h-4v2h4zm8 0h-4v2h4zm8 0h-4v2h4zm8 0h-4v2h4zm8 0h-4v2h4zm8 0h-4v2h4zm8 0h-4v2h4zm8 0h-4v2h4zm8 0h-4v2h4z" style="fill:#333;fill-opacity:1;fill-rule:nonzero;stroke:none"/></g></svg>