<?xml version="1.0" encoding="UTF-8" standalone="no"?>
<svg
   xmlns:dc="http://purl.org/dc/elements/1.1/"
   xmlns:cc="http://creativecommons.org/ns#"
   xmlns:rdf="http://www.w3.org/1999/02/22-rdf-syntax-ns#"
   xmlns:svg="http://www.w3.org/2000/svg"
   xmlns="http://www.w3.org/2000/svg"
   viewBox="0 0 330.66653 192"
   height="192"
   width="330.66653"
   xml:space="preserve"
   id="svg2"
   version="1.1"><metadata
     id="metadata8"><rdf:RDF><cc:Work
         rdf:about=""><dc:format>image/svg+xml</dc:format><dc:type
           rdf:resource="http://purl.org/dc/dcmitype/StillImage" /></cc:Work></rdf:RDF></metadata><defs
     id="defs6"><clipPath
       id="clipPath18"
       clipPathUnits="userSpaceOnUse"><path
         id="path16"
         d="M 0,256 H 256 V 0 H 0 Z" /></clipPath><clipPath
       id="clipPath26"
       clipPathUnits="userSpaceOnUse"><path
         id="path24"
         d="M 4,200 H 252 V 56 H 4 Z" /></clipPath></defs><g
     transform="matrix(1.3333333,0,0,-1.3333333,-5.3333332,266.66666)"
     id="g10"><g
       id="g12"><g
         clip-path="url(#clipPath18)"
         id="g14"><g
           id="g20"><g
             id="g22" /><g
             id="g34"><g
               style="opacity:0.5"
               id="g32"
               clip-path="url(#clipPath26)"><g
                 id="g30"
                 transform="translate(160.3799,200)"><path
                   id="path28"
                   style="fill:#ffffff;fill-opacity:1;fill-rule:nonzero;stroke:none"
                   d="m 0,0 h -0.38 -64 -0.38 l -0.378,-0.036 -76.759,-7.31 c -8.256,-0.787 -14.483,-7.634 -14.483,-15.928 v -97.452 c 0,-8.294 6.227,-15.141 14.483,-15.927 l 76.759,-7.311 0.378,-0.036 h 0.38 64 H 0 l 0.379,0.036 76.758,7.311 c 8.257,0.786 14.483,7.633 14.483,15.927 v 97.452 c 0,8.294 -6.226,15.141 -14.483,15.928 l -76.758,7.31 z" /></g></g></g></g><g
           transform="translate(160,192)"
           id="g36"><path
             id="path38"
             style="fill:#404040;fill-opacity:1;fill-rule:nonzero;stroke:none"
             d="m 0,0 h -64 l -76.758,-7.311 c -4.106,-0.39 -7.242,-3.839 -7.242,-7.963 v -97.452 c 0,-4.125 3.136,-7.573 7.242,-7.963 L -64,-128 H 0 l 76.759,7.311 c 4.105,0.39 7.241,3.838 7.241,7.963 v 97.452 c 0,4.124 -3.136,7.573 -7.241,7.963 z" /></g><path
           id="path40"
           style="fill:#333333;fill-opacity:1;fill-rule:nonzero;stroke:none"
           d="M 232,168 H 24 v 4 h 208 z" /><g
           transform="translate(232,176)"
           id="g42"><path
             id="path44"
             style="fill:#333333;fill-opacity:1;fill-rule:nonzero;stroke:none"
             d="m 0,0 h -208 l 88,4 h 32 z" /></g><path
           id="path46"
           style="fill:#333333;fill-opacity:1;fill-rule:nonzero;stroke:none"
           d="M 232,160 H 24 v 4 h 208 z" /><path
           id="path48"
           style="fill:#333333;fill-opacity:1;fill-rule:nonzero;stroke:none"
           d="M 232,152 H 24 v 4 h 208 z" /><path
           id="path50"
           style="fill:#b3b3b3;fill-opacity:1;fill-rule:nonzero;stroke:none"
           d="M 92,152 H 32 v 16 h 60 z" /><g
           transform="translate(230.0771,83.9258)"
           id="g52"><path
             id="path54"
             style="fill:#a6a6a6;fill-opacity:1;fill-rule:nonzero;stroke:none"
             d="m 0,0 -102.077,-3.926 c -0.051,-0.002 0.051,-0.002 0,0 L -204.154,0 c -1.074,0.042 -1.923,0.924 -1.923,1.999 v 52.075 c 0,1.105 0.895,2 2,2 h 204 c 1.104,0 2,-0.895 2,-2 V 1.999 C 1.923,0.924 1.073,0.042 0,0" /></g><path
           id="path56"
           style="fill:#404040;fill-opacity:1;fill-rule:nonzero;stroke:none"
           d="m 80,80 h -4 v 60 h 4 z" /><path
           id="path58"
           style="fill:#404040;fill-opacity:1;fill-rule:nonzero;stroke:none"
           d="m 180,80 h -4 v 60 h 4 z" /><g
           transform="translate(64,114)"
           id="g60"><path
             id="path62"
             style="fill:#262626;fill-opacity:1;fill-rule:nonzero;stroke:none"
             d="m 0,0 c 0,-7.732 -6.268,-14 -14,-14 -7.732,0 -14,6.268 -14,14 0,7.732 6.268,14 14,14 C -6.268,14 0,7.732 0,0" /></g><g
           transform="translate(50,124)"
           id="g64"><path
             id="path66"
             style="fill:#333333;fill-opacity:1;fill-rule:nonzero;stroke:none"
             d="m 0,0 c -5.523,0 -10,-4.478 -10,-10 0,-5.522 4.477,-10 10,-10 5.523,0 10,4.478 10,10 C 10,-4.478 5.523,0 0,0 m 0,-2 c 4.411,0 8,-3.589 8,-8 0,-4.411 -3.589,-8 -8,-8 -4.411,0 -8,3.589 -8,8 0,4.411 3.589,8 8,8" /></g><g
           transform="translate(220,114)"
           id="g68"><path
             id="path70"
             style="fill:#262626;fill-opacity:1;fill-rule:nonzero;stroke:none"
             d="m 0,0 c 0,-7.732 -6.268,-14 -14,-14 -7.732,0 -14,6.268 -14,14 0,7.732 6.268,14 14,14 C -6.268,14 0,7.732 0,0" /></g><g
           transform="translate(206,124)"
           id="g72"><path
             id="path74"
             style="fill:#333333;fill-opacity:1;fill-rule:nonzero;stroke:none"
             d="m 0,0 c -5.522,0 -10,-4.478 -10,-10 0,-5.522 4.478,-10 10,-10 5.522,0 10,4.478 10,10 C 10,-4.478 5.522,0 0,0 m 0,-2 c 4.411,0 8,-3.589 8,-8 0,-4.411 -3.589,-8 -8,-8 -4.411,0 -8,3.589 -8,8 0,4.411 3.589,8 8,8" /></g><path
           id="path76"
           style="fill:#262626;fill-opacity:1;fill-rule:nonzero;stroke:none"
           d="m 144,120 h -28 v 8 h 28 z" /><path
           id="path78"
           style="fill:#262626;fill-opacity:1;fill-rule:nonzero;stroke:none"
           d="m 140,100 h -20 v 8 h 20 z" /><path
           id="path80"
           style="fill:#333333;fill-opacity:1;fill-rule:nonzero;stroke:none"
           d="m 116,120 h 8 v 8 h -8 z" /><path
           id="path82"
           style="fill:#333333;fill-opacity:1;fill-rule:nonzero;stroke:none"
           d="m 140,100 h -8 v 8 h 8 z" /><path
           id="path84"
           style="fill:#262626;fill-opacity:1;fill-rule:nonzero;stroke:none"
           d="m 168,108 h -8 v 12 h 8 z" /><path
           id="path86"
           style="fill:#333333;fill-opacity:1;fill-rule:nonzero;stroke:none"
           d="m 168,116 h -8 v 4 h 8 z" /><g
           transform="translate(104,114)"
           id="g88"><path
             id="path90"
             style="fill:#333333;fill-opacity:1;fill-rule:nonzero;stroke:none"
             d="m 0,0 c 0,-3.313 -2.687,-6 -6,-6 -3.313,0 -6,2.687 -6,6 0,3.313 2.687,6 6,6 3.313,0 6,-2.687 6,-6" /></g><g
           transform="translate(100,114)"
           id="g92"><path
             id="path94"
             style="fill:#262626;fill-opacity:1;fill-rule:nonzero;stroke:none"
             d="m 0,0 c 0,-1.104 -0.896,-2 -2,-2 -1.104,0 -2,0.896 -2,2 0,1.104 0.896,2 2,2 1.104,0 2,-0.896 2,-2" /></g></g></g></g></svg>