<svg xmlns="http://www.w3.org/2000/svg" xml:space="preserve" width="321.687" height="224" viewBox="0 0 321.687 224"><defs><clipPath id="a" clipPathUnits="userSpaceOnUse"><path d="M0 256h256V0H0Z"/></clipPath><clipPath id="b" clipPathUnits="userSpaceOnUse"><path d="M7.367 212h241.266V44H7.367Z"/></clipPath><clipPath id="c" clipPathUnits="userSpaceOnUse"><path d="M0 256h256V0H0Z"/></clipPath></defs><g clip-path="url(#a)" transform="matrix(1.33333 0 0 -1.33333 -9.823 282.667)"><g clip-path="url(#b)" style="opacity:.5"><path d="m0 0-11.92 83.438v40.972l-.572 1.43-8 20-2.012 5.029h-194.832l-2.012-5.029-8-20-.572-1.43V83.438L-239.839 0l-.714-4.99 4.196-2.797 12-8 2.015-1.344h204.844l2.016 1.344 12 8L.713-4.99z" style="fill:#fff;fill-opacity:1;fill-rule:nonzero;stroke:none" transform="translate(247.92 61.13)"/></g></g><path d="M228 144H28v40h200z" style="fill:#737373;fill-opacity:1;fill-rule:nonzero;stroke:none" transform="matrix(1.33333 0 0 -1.33333 -9.823 282.667)"/><path d="M0 0h-200l8 20H-8Z" style="fill:#666;fill-opacity:1;fill-rule:nonzero;stroke:none" transform="matrix(1.33333 0 0 -1.33333 294.177 37.333)"/><path d="M176 172H80v16h96z" style="fill:#191919;fill-opacity:1;fill-rule:nonzero;stroke:none" transform="matrix(1.33333 0 0 -1.33333 -9.823 282.667)"/><path d="M0 0h-96l-4 12H4Z" style="fill:#8c8c8c;fill-opacity:1;fill-rule:nonzero;stroke:none" transform="matrix(1.33333 0 0 -1.33333 224.843 32)"/><path d="M216 144H40v24h176z" style="fill:#262626;fill-opacity:1;fill-rule:nonzero;stroke:none" transform="matrix(1.33333 0 0 -1.33333 -9.823 282.667)"/><g clip-path="url(#c)" transform="matrix(1.33333 0 0 -1.33333 -9.823 282.667)"><path d="M0 0a1 1 0 0 0-1 1v14a1 1 0 0 0 2 0V1a1 1 0 0 0-1-1" style="fill:#191919;fill-opacity:1;fill-rule:nonzero;stroke:none" transform="translate(47 148)"/><path d="M0 0a1 1 0 0 0-1 1v14a1 1 0 0 0 2 0V1a1 1 0 0 0-1-1" style="fill:#191919;fill-opacity:1;fill-rule:nonzero;stroke:none" transform="translate(51 148)"/><path d="M0 0a1 1 0 0 0-1 1v14a1 1 0 0 0 2 0V1a1 1 0 0 0-1-1" style="fill:#191919;fill-opacity:1;fill-rule:nonzero;stroke:none" transform="translate(55 148)"/><path d="M0 0a1 1 0 0 0-1 1v14a1 1 0 0 0 2 0V1a1 1 0 0 0-1-1" style="fill:#191919;fill-opacity:1;fill-rule:nonzero;stroke:none" transform="translate(59 148)"/><path d="M0 0a1 1 0 0 0-1 1v14a1 1 0 0 0 2 0V1a1 1 0 0 0-1-1" style="fill:#191919;fill-opacity:1;fill-rule:nonzero;stroke:none" transform="translate(63 148)"/><path d="M0 0a1 1 0 0 0-1 1v14a1 1 0 0 0 2 0V1a1 1 0 0 0-1-1" style="fill:#191919;fill-opacity:1;fill-rule:nonzero;stroke:none" transform="translate(67 148)"/><path d="M0 0a1 1 0 0 0-1 1v14a1 1 0 0 0 2 0V1a1 1 0 0 0-1-1" style="fill:#191919;fill-opacity:1;fill-rule:nonzero;stroke:none" transform="translate(71 148)"/><path d="M0 0a1 1 0 0 0-1 1v14a1 1 0 0 0 2 0V1a1 1 0 0 0-1-1" style="fill:#191919;fill-opacity:1;fill-rule:nonzero;stroke:none" transform="translate(75 148)"/><path d="M0 0a1 1 0 0 0-1 1v14a1 1 0 1 0 2 0V1a1 1 0 0 0-1-1" style="fill:#191919;fill-opacity:1;fill-rule:nonzero;stroke:none" transform="translate(181 148)"/><path d="M0 0a1 1 0 0 0-1 1v14a1 1 0 1 0 2 0V1a1 1 0 0 0-1-1" style="fill:#191919;fill-opacity:1;fill-rule:nonzero;stroke:none" transform="translate(185 148)"/><path d="M0 0a1 1 0 0 0-1 1v14a1 1 0 1 0 2 0V1a1 1 0 0 0-1-1" style="fill:#191919;fill-opacity:1;fill-rule:nonzero;stroke:none" transform="translate(189 148)"/><path d="M0 0a1 1 0 0 0-1 1v14a1 1 0 1 0 2 0V1a1 1 0 0 0-1-1" style="fill:#191919;fill-opacity:1;fill-rule:nonzero;stroke:none" transform="translate(193 148)"/><path d="M0 0a1 1 0 0 0-1 1v14a1 1 0 1 0 2 0V1a1 1 0 0 0-1-1" style="fill:#191919;fill-opacity:1;fill-rule:nonzero;stroke:none" transform="translate(197 148)"/><path d="M0 0a1 1 0 0 0-1 1v14a1 1 0 1 0 2 0V1a1 1 0 0 0-1-1" style="fill:#191919;fill-opacity:1;fill-rule:nonzero;stroke:none" transform="translate(201 148)"/><path d="M0 0a1 1 0 0 0-1 1v14a1 1 0 1 0 2 0V1a1 1 0 0 0-1-1" style="fill:#191919;fill-opacity:1;fill-rule:nonzero;stroke:none" transform="translate(205 148)"/><path d="M0 0a1 1 0 0 0-1 1v14a1 1 0 1 0 2 0V1a1 1 0 0 0-1-1" style="fill:#191919;fill-opacity:1;fill-rule:nonzero;stroke:none" transform="translate(209 148)"/><path d="M0 0h-224l12 84h200z" style="fill:#666;fill-opacity:1;fill-rule:nonzero;stroke:none" transform="translate(240 60)"/><path d="M0 0h-184l4 60H-4Z" style="fill:#404040;fill-opacity:1;fill-rule:nonzero;stroke:none" transform="translate(220 76)"/><path d="M0 0h-200l-12 8H12Z" style="fill:#4c4c4c;fill-opacity:1;fill-rule:nonzero;stroke:none" transform="translate(228 52)"/><path d="M0 0a4 4 0 1 0-8 0 4 4 0 0 0 8 0" style="fill:#262626;fill-opacity:1;fill-rule:nonzero;stroke:none" transform="translate(164 124)"/><path d="M0 0a4 4 0 1 0-8 0 4 4 0 0 0 8 0" style="fill:#262626;fill-opacity:1;fill-rule:nonzero;stroke:none" transform="translate(176 124)"/><path d="M0 0a4 4 0 1 0-8 0 4 4 0 0 0 8 0" style="fill:#262626;fill-opacity:1;fill-rule:nonzero;stroke:none" transform="translate(188 124)"/><path d="M0 0a4 4 0 1 0-8 0 4 4 0 0 0 8 0" style="fill:#262626;fill-opacity:1;fill-rule:nonzero;stroke:none" transform="translate(200 124)"/><path d="M0 0a4 4 0 1 0-8 0 4 4 0 0 0 8 0" style="fill:#262626;fill-opacity:1;fill-rule:nonzero;stroke:none" transform="translate(212 124)"/><path d="M0 0a4 4 0 1 0-8 0 4 4 0 0 0 8 0" style="fill:#262626;fill-opacity:1;fill-rule:nonzero;stroke:none" transform="translate(164 108)"/><path d="M0 0a4 4 0 1 0-8 0 4 4 0 0 0 8 0" style="fill:#262626;fill-opacity:1;fill-rule:nonzero;stroke:none" transform="translate(176 108)"/><path d="M0 0a4 4 0 1 0-8 0 4 4 0 0 0 8 0" style="fill:#262626;fill-opacity:1;fill-rule:nonzero;stroke:none" transform="translate(188 108)"/><path d="M0 0a4 4 0 1 0-8 0 4 4 0 0 0 8 0" style="fill:#262626;fill-opacity:1;fill-rule:nonzero;stroke:none" transform="translate(200 108)"/><path d="M0 0a4 4 0 1 0-8 0 4 4 0 0 0 8 0" style="fill:#262626;fill-opacity:1;fill-rule:nonzero;stroke:none" transform="translate(212 108)"/><path d="M76 120H64v8h12z" style="fill:#262626;fill-opacity:1;fill-rule:nonzero;stroke:none"/><path d="M0 0h-4a4 4 0 0 0-4 4v8a4 4 0 0 0 4 4h4a4 4 0 0 0 4-4V4a4 4 0 0 0-4-4" style="fill:#262626;fill-opacity:1;fill-rule:nonzero;stroke:none" transform="translate(56 88)"/><path d="M56 96h-4v4h4z" style="fill:#5d5259;fill-opacity:1;fill-rule:nonzero;stroke:none"/><path d="M56 92h-4v4h4z" style="fill:#010000;fill-opacity:1;fill-rule:nonzero;stroke:none"/><path d="M0 0h-4a4 4 0 0 0-4 4v8a4 4 0 0 0 4 4h4a4 4 0 0 0 4-4V4a4 4 0 0 0-4-4" style="fill:#262626;fill-opacity:1;fill-rule:nonzero;stroke:none" transform="translate(84 88)"/><path d="M84 96h-4v4h4z" style="fill:#5d5259;fill-opacity:1;fill-rule:nonzero;stroke:none"/><path d="M84 92h-4v4h4z" style="fill:#010000;fill-opacity:1;fill-rule:nonzero;stroke:none"/><path d="M0 0h-4a4 4 0 0 0-4 4v8a4 4 0 0 0 4 4h4a4 4 0 0 0 4-4V4a4 4 0 0 0-4-4" style="fill:#262626;fill-opacity:1;fill-rule:nonzero;stroke:none" transform="translate(112 88)"/><path d="M112 96h-4v4h4z" style="fill:#5d5259;fill-opacity:1;fill-rule:nonzero;stroke:none"/><path d="M112 92h-4v4h4z" style="fill:#010000;fill-opacity:1;fill-rule:nonzero;stroke:none"/><path d="M0 0h-4a4 4 0 0 0-4 4v8a4 4 0 0 0 4 4h4a4 4 0 0 0 4-4V4a4 4 0 0 0-4-4" style="fill:#262626;fill-opacity:1;fill-rule:nonzero;stroke:none" transform="translate(140 88)"/><path d="M140 96h-4v4h4z" style="fill:#5d5259;fill-opacity:1;fill-rule:nonzero;stroke:none"/><path d="M140 92h-4v4h4z" style="fill:#010000;fill-opacity:1;fill-rule:nonzero;stroke:none"/></g></svg>