<?xml version="1.0" encoding="UTF-8" standalone="no"?>
<svg
   xmlns:dc="http://purl.org/dc/elements/1.1/"
   xmlns:cc="http://creativecommons.org/ns#"
   xmlns:rdf="http://www.w3.org/1999/02/22-rdf-syntax-ns#"
   xmlns:svg="http://www.w3.org/2000/svg"
   xmlns="http://www.w3.org/2000/svg"
   viewBox="0 0 330.66626 191.99972"
   height="191.99973"
   width="330.66626"
   xml:space="preserve"
   id="svg2"
   version="1.1"><metadata
     id="metadata8"><rdf:RDF><cc:Work
         rdf:about=""><dc:format>image/svg+xml</dc:format><dc:type
           rdf:resource="http://purl.org/dc/dcmitype/StillImage" /></cc:Work></rdf:RDF></metadata><defs
     id="defs6"><clipPath
       id="clipPath18"
       clipPathUnits="userSpaceOnUse"><path
         id="path16"
         d="M 0,256 H 256 V 0 H 0 Z" /></clipPath><clipPath
       id="clipPath26"
       clipPathUnits="userSpaceOnUse"><path
         id="path24"
         d="M 4,200 H 252 V 56 H 4 Z" /></clipPath></defs><g
     transform="matrix(1.3333333,0,0,-1.3333333,-5.3337332,266.66666)"
     id="g10"><g
       id="g12"><g
         clip-path="url(#clipPath18)"
         id="g14"><g
           id="g20"><g
             id="g22" /><g
             id="g34"><g
               style="opacity:0.5"
               id="g32"
               clip-path="url(#clipPath26)"><g
                 id="g30"
                 transform="translate(237.7783,64.2842)"><path
                   id="path28"
                   style="fill:#ffffff;fill-opacity:1;fill-rule:nonzero;stroke:none"
                   d="M 0,0 C 0.919,0.366 1.673,1.065 2.109,1.953 1.673,1.065 0.919,0.366 0,0 m 4.192,133.041 c -1.464,1.641 -3.597,2.675 -5.97,2.675 h -4 -44 -120 -44 -4 c -2.374,0 -4.506,-1.034 -5.971,-2.675 -6.116,-3.523 -10.029,-10.104 -10.029,-17.325 v -64 c 0,-0.205 0.007,-0.409 0.023,-0.613 l 3.716,-48.307 c 0.478,-6.213 5.733,-11.08 11.965,-11.08 H -1.482 c 6.231,0 11.486,4.867 11.964,11.08 l 3.716,48.307 c 0.016,0.204 0.024,0.408 0.024,0.613 v 64 c 0,7.221 -3.914,13.802 -10.03,17.325" /></g></g></g></g><g
           transform="translate(244,116)"
           id="g36"><path
             id="path38"
             style="fill:#b3b3b3;fill-opacity:1;fill-rule:nonzero;stroke:none"
             d="m 0,0 h -232 v 64 c 0,6.627 5.373,12 12,12 H -12 C -5.373,76 0,70.627 0,64 Z" /></g><g
           transform="translate(244,116)"
           id="g40"><path
             id="path42"
             style="fill:#b3b3b3;fill-opacity:1;fill-rule:nonzero;stroke:none"
             d="m 0,0 h -232 l 3.716,-48.307 c 0.16,-2.084 1.898,-3.693 3.988,-3.693 H -7.704 c 2.09,0 3.828,1.609 3.988,3.693 z" /></g><path
           id="path44"
           style="fill:#bfbfbf;fill-opacity:1;fill-rule:nonzero;stroke:none"
           d="M 236,116 H 20 v 12 h 216 z" /><g
           transform="translate(184,120)"
           id="g46"><path
             id="path48"
             style="fill:#b3b3b3;fill-opacity:1;fill-rule:nonzero;stroke:none"
             d="m 0,0 h -112 c -2.209,0 -4,1.791 -4,4 V 72 H 4 V 4 C 4,1.791 2.209,0 0,0" /></g><g
           transform="translate(232,68)"
           id="g50"><path
             id="path52"
             style="fill:#a6a6a6;fill-opacity:1;fill-rule:nonzero;stroke:none"
             d="m 0,0 h -208 c -2.209,0 -4,1.791 -4,4 V 48 H 4 V 4 C 4,1.791 2.209,0 0,0" /></g><g
           transform="translate(221.9785,76)"
           id="g54"><path
             id="path56"
             style="fill:#222021;fill-opacity:1;fill-rule:nonzero;stroke:none"
             d="m 0,0 h -187.958 c -1.116,0 -2.021,0.905 -2.021,2.021 v 27.958 c 0,1.116 0.905,2.021 2.021,2.021 H 0 c 1.116,0 2.021,-0.905 2.021,-2.021 V 2.021 C 2.021,0.905 1.116,0 0,0" /></g><g
           transform="translate(218,84)"
           id="g58"><path
             id="path60"
             style="fill:#999999;fill-opacity:1;fill-rule:nonzero;stroke:none"
             d="m 0,0 h -180 c -1.104,0 -2,0.896 -2,2 v 12 c 0,1.104 0.896,2 2,2 H 0 c 1.104,0 2,-0.896 2,-2 V 2 C 2,0.896 1.104,0 0,0" /></g><g
           transform="translate(80,136)"
           id="g62"><path
             id="path64"
             style="fill:#a6a6a6;fill-opacity:1;fill-rule:nonzero;stroke:none"
             d="m 0,0 c -2.209,0 -4,-2.687 -4,-6 v -6 h 8 v 6 C 4,-2.687 2.209,0 0,0" /></g><g
           transform="translate(66,132)"
           id="g66"><path
             id="path68"
             style="fill:#bfbfbf;fill-opacity:1;fill-rule:nonzero;stroke:none"
             d="m 0,0 h -44 c -1.104,0 -2,0.896 -2,2 v 56 c 0,1.104 0.896,2 2,2 H 0 c 1.104,0 2,-0.896 2,-2 V 2 C 2,0.896 1.104,0 0,0" /></g><path
           id="path70"
           style="fill:#b3b3b3;fill-opacity:1;fill-rule:nonzero;stroke:none"
           d="M 60,184 H 28 V 136 H 60 Z M 56,140 H 32 v 40 h 24 z" /><g
           transform="translate(44,166)"
           id="g72"><path
             id="path74"
             style="fill:#b3b3b3;fill-opacity:1;fill-rule:nonzero;stroke:none"
             d="m 0,0 c 3.309,0 6,-2.691 6,-6 0,-3.309 -2.691,-6 -6,-6 -3.309,0 -6,2.691 -6,6 0,3.309 2.691,6 6,6" /></g><path
           id="path76"
           style="fill:#b80000;fill-opacity:1;fill-rule:nonzero;stroke:none"
           d="m 36,136 h -8 v 12 h 8 z" /><g
           transform="translate(190,192)"
           id="g78"><path
             id="path80"
             style="fill:#bfbfbf;fill-opacity:1;fill-rule:nonzero;stroke:none"
             d="m 0,0 h 44 c 1.104,0 2,-0.896 2,-2 v -56 c 0,-1.104 -0.896,-2 -2,-2 H 0 c -1.104,0 -2,0.896 -2,2 v 56 c 0,1.104 0.896,2 2,2" /></g><path
           id="path82"
           style="fill:#b3b3b3;fill-opacity:1;fill-rule:nonzero;stroke:none"
           d="m 228,188 h -32 v -52 h 32 z m -4,-48 h -24 v 44 h 24 z" /><path
           id="path84"
           style="fill:#3096cf;fill-opacity:1;fill-rule:nonzero;stroke:none"
           d="m 204,136 h -8 v 12 h 8 z" /><g
           transform="translate(80,126)"
           id="g86"><path
             id="path88"
             style="fill:#222021;fill-opacity:1;fill-rule:nonzero;stroke:none"
             d="M 0,0 C -2.209,0 -4,-0.896 -4,-2 H 4 C 4,-0.896 2.209,0 0,0" /></g><g
           transform="translate(212,166)"
           id="g90"><path
             id="path92"
             style="fill:#b3b3b3;fill-opacity:1;fill-rule:nonzero;stroke:none"
             d="m 0,0 c 3.309,0 6,-2.691 6,-6 0,-3.309 -2.691,-6 -6,-6 -3.309,0 -6,2.691 -6,6 0,3.309 2.691,6 6,6" /></g><g
           transform="translate(42,88)"
           id="g94"><path
             id="path96"
             style="fill:#333333;fill-opacity:1;fill-rule:nonzero;stroke:none"
             d="M 0,0 V 0 C -1.104,0 -2,0.896 -2,2 V 6 C -2,7.104 -1.104,8 0,8 1.104,8 2,7.104 2,6 V 2 C 2,0.896 1.104,0 0,0" /></g><g
           transform="translate(44,94)"
           id="g98"><path
             id="path100"
             style="fill:#262626;fill-opacity:1;fill-rule:nonzero;stroke:none"
             d="m 0,0 c 0,-1.104 -0.896,-2 -2,-2 -1.104,0 -2,0.896 -2,2 0,1.104 0.896,2 2,2 1.104,0 2,-0.896 2,-2" /></g><g
           transform="translate(54,88)"
           id="g102"><path
             id="path104"
             style="fill:#333333;fill-opacity:1;fill-rule:nonzero;stroke:none"
             d="M 0,0 V 0 C -1.104,0 -2,0.896 -2,2 V 6 C -2,7.104 -1.104,8 0,8 1.104,8 2,7.104 2,6 V 2 C 2,0.896 1.104,0 0,0" /></g><g
           transform="translate(56,90)"
           id="g106"><path
             id="path108"
             style="fill:#262626;fill-opacity:1;fill-rule:nonzero;stroke:none"
             d="m 0,0 c 0,-1.104 -0.896,-2 -2,-2 -1.104,0 -2,0.896 -2,2 0,1.104 0.896,2 2,2 1.104,0 2,-0.896 2,-2" /></g><g
           transform="translate(66,88)"
           id="g110"><path
             id="path112"
             style="fill:#333333;fill-opacity:1;fill-rule:nonzero;stroke:none"
             d="M 0,0 V 0 C -1.104,0 -2,0.896 -2,2 V 6 C -2,7.104 -1.104,8 0,8 1.104,8 2,7.104 2,6 V 2 C 2,0.896 1.104,0 0,0" /></g><g
           transform="translate(68,94)"
           id="g114"><path
             id="path116"
             style="fill:#262626;fill-opacity:1;fill-rule:nonzero;stroke:none"
             d="m 0,0 c 0,-1.104 -0.896,-2 -2,-2 -1.104,0 -2,0.896 -2,2 0,1.104 0.896,2 2,2 1.104,0 2,-0.896 2,-2" /></g><path
           id="path118"
           style="fill:#262626;fill-opacity:1;fill-rule:nonzero;stroke:none"
           d="m 154,90 h -52 v 4 h 52 z" /><path
           id="path120"
           style="fill:#262626;fill-opacity:1;fill-rule:nonzero;stroke:none"
           d="m 216,88 h -2 v 8 h 2 z" /><path
           id="path122"
           style="fill:#262626;fill-opacity:1;fill-rule:nonzero;stroke:none"
           d="m 212,88 h -2 v 8 h 2 z" /><path
           id="path124"
           style="fill:#262626;fill-opacity:1;fill-rule:nonzero;stroke:none"
           d="m 208,88 h -2 v 8 h 2 z" /><path
           id="path126"
           style="fill:#262626;fill-opacity:1;fill-rule:nonzero;stroke:none"
           d="m 204,88 h -2 v 8 h 2 z" /><path
           id="path128"
           style="fill:#262626;fill-opacity:1;fill-rule:nonzero;stroke:none"
           d="m 200,88 h -2 v 8 h 2 z" /><path
           id="path130"
           style="fill:#262626;fill-opacity:1;fill-rule:nonzero;stroke:none"
           d="m 196,88 h -2 v 8 h 2 z" /><path
           id="path132"
           style="fill:#262626;fill-opacity:1;fill-rule:nonzero;stroke:none"
           d="m 192,88 h -2 v 8 h 2 z" /></g></g></g></svg>