<?xml version="1.0" encoding="UTF-8" standalone="no"?>
<svg
   xmlns:dc="http://purl.org/dc/elements/1.1/"
   xmlns:cc="http://creativecommons.org/ns#"
   xmlns:rdf="http://www.w3.org/1999/02/22-rdf-syntax-ns#"
   xmlns:svg="http://www.w3.org/2000/svg"
   xmlns="http://www.w3.org/2000/svg"
   viewBox="0 0 321.68731 223.99986"
   height="223.99986"
   width="321.68732"
   xml:space="preserve"
   id="svg2"
   version="1.1"><metadata
     id="metadata8"><rdf:RDF><cc:Work
         rdf:about=""><dc:format>image/svg+xml</dc:format><dc:type
           rdf:resource="http://purl.org/dc/dcmitype/StillImage" /></cc:Work></rdf:RDF></metadata><defs
     id="defs6"><clipPath
       id="clipPath18"
       clipPathUnits="userSpaceOnUse"><path
         id="path16"
         d="M 0,256 H 256 V 0 H 0 Z" /></clipPath><clipPath
       id="clipPath26"
       clipPathUnits="userSpaceOnUse"><path
         id="path24"
         d="M 7.3674,212 H 248.633 V 44 H 7.3674 Z" /></clipPath><clipPath
       id="clipPath56"
       clipPathUnits="userSpaceOnUse"><path
         id="path54"
         d="M 0,256 H 256 V 0 H 0 Z" /></clipPath></defs><g
     transform="matrix(1.3333333,0,0,-1.3333333,-9.8231998,282.66653)"
     id="g10"><g
       id="g12"><g
         clip-path="url(#clipPath18)"
         id="g14"><g
           id="g20"><g
             id="g22" /><g
             id="g34"><g
               style="opacity:0.5"
               id="g32"
               clip-path="url(#clipPath26)"><g
                 id="g30"
                 transform="translate(247.9199,61.1309)"><path
                   id="path28"
                   style="fill:#ffffff;fill-opacity:1;fill-rule:nonzero;stroke:none"
                   d="m 0,0 -11.92,83.438 v 39.431 1.541 l -0.572,1.43 -8,20 -2.012,5.029 h -5.416 -184 -5.416 l -2.012,-5.029 -8,-20 -0.572,-1.43 V 122.869 83.438 L -239.839,0 l -0.714,-4.99 4.196,-2.797 12,-8 2.015,-1.344 h 2.422 200 2.422 l 2.016,1.344 12,8 4.195,2.797 z" /></g></g></g></g></g></g><path
       id="path36"
       style="fill:#737373;fill-opacity:1;fill-rule:nonzero;stroke:none"
       d="M 228,144 H 28 v 40 h 200 z" /><g
       transform="translate(228,184)"
       id="g38"><path
         id="path40"
         style="fill:#666666;fill-opacity:1;fill-rule:nonzero;stroke:none"
         d="m 0,0 h -200 l 8,20 H -8 Z" /></g><path
       id="path42"
       style="fill:#191919;fill-opacity:1;fill-rule:nonzero;stroke:none"
       d="M 176,172 H 80 v 16 h 96 z" /><g
       transform="translate(176,188)"
       id="g44"><path
         id="path46"
         style="fill:#8c8c8c;fill-opacity:1;fill-rule:nonzero;stroke:none"
         d="m 0,0 h -96 l -4,12 H 4 Z" /></g><path
       id="path48"
       style="fill:#262626;fill-opacity:1;fill-rule:nonzero;stroke:none"
       d="M 216,144 H 40 v 24 h 176 z" /><g
       id="g50"><g
         clip-path="url(#clipPath56)"
         id="g52"><g
           transform="translate(47,148)"
           id="g58"><path
             id="path60"
             style="fill:#191919;fill-opacity:1;fill-rule:nonzero;stroke:none"
             d="m 0,0 v 0 c -0.552,0 -1,0.448 -1,1 v 14 c 0,0.552 0.448,1 1,1 0.552,0 1,-0.448 1,-1 V 1 C 1,0.448 0.552,0 0,0" /></g><g
           transform="translate(51,148)"
           id="g62"><path
             id="path64"
             style="fill:#191919;fill-opacity:1;fill-rule:nonzero;stroke:none"
             d="m 0,0 v 0 c -0.552,0 -1,0.448 -1,1 v 14 c 0,0.552 0.448,1 1,1 0.552,0 1,-0.448 1,-1 V 1 C 1,0.448 0.552,0 0,0" /></g><g
           transform="translate(55,148)"
           id="g66"><path
             id="path68"
             style="fill:#191919;fill-opacity:1;fill-rule:nonzero;stroke:none"
             d="m 0,0 v 0 c -0.552,0 -1,0.448 -1,1 v 14 c 0,0.552 0.448,1 1,1 0.552,0 1,-0.448 1,-1 V 1 C 1,0.448 0.552,0 0,0" /></g><g
           transform="translate(59,148)"
           id="g70"><path
             id="path72"
             style="fill:#191919;fill-opacity:1;fill-rule:nonzero;stroke:none"
             d="m 0,0 v 0 c -0.552,0 -1,0.448 -1,1 v 14 c 0,0.552 0.448,1 1,1 0.552,0 1,-0.448 1,-1 V 1 C 1,0.448 0.552,0 0,0" /></g><g
           transform="translate(63,148)"
           id="g74"><path
             id="path76"
             style="fill:#191919;fill-opacity:1;fill-rule:nonzero;stroke:none"
             d="m 0,0 v 0 c -0.552,0 -1,0.448 -1,1 v 14 c 0,0.552 0.448,1 1,1 0.552,0 1,-0.448 1,-1 V 1 C 1,0.448 0.552,0 0,0" /></g><g
           transform="translate(67,148)"
           id="g78"><path
             id="path80"
             style="fill:#191919;fill-opacity:1;fill-rule:nonzero;stroke:none"
             d="m 0,0 v 0 c -0.552,0 -1,0.448 -1,1 v 14 c 0,0.552 0.448,1 1,1 0.552,0 1,-0.448 1,-1 V 1 C 1,0.448 0.552,0 0,0" /></g><g
           transform="translate(71,148)"
           id="g82"><path
             id="path84"
             style="fill:#191919;fill-opacity:1;fill-rule:nonzero;stroke:none"
             d="m 0,0 v 0 c -0.552,0 -1,0.448 -1,1 v 14 c 0,0.552 0.448,1 1,1 0.552,0 1,-0.448 1,-1 V 1 C 1,0.448 0.552,0 0,0" /></g><g
           transform="translate(75,148)"
           id="g86"><path
             id="path88"
             style="fill:#191919;fill-opacity:1;fill-rule:nonzero;stroke:none"
             d="m 0,0 v 0 c -0.552,0 -1,0.448 -1,1 v 14 c 0,0.552 0.448,1 1,1 0.552,0 1,-0.448 1,-1 V 1 C 1,0.448 0.552,0 0,0" /></g><g
           transform="translate(181,148)"
           id="g90"><path
             id="path92"
             style="fill:#191919;fill-opacity:1;fill-rule:nonzero;stroke:none"
             d="m 0,0 v 0 c -0.553,0 -1,0.448 -1,1 v 14 c 0,0.552 0.447,1 1,1 0.553,0 1,-0.448 1,-1 V 1 C 1,0.448 0.553,0 0,0" /></g><g
           transform="translate(185,148)"
           id="g94"><path
             id="path96"
             style="fill:#191919;fill-opacity:1;fill-rule:nonzero;stroke:none"
             d="m 0,0 v 0 c -0.553,0 -1,0.448 -1,1 v 14 c 0,0.552 0.447,1 1,1 0.553,0 1,-0.448 1,-1 V 1 C 1,0.448 0.553,0 0,0" /></g><g
           transform="translate(189,148)"
           id="g98"><path
             id="path100"
             style="fill:#191919;fill-opacity:1;fill-rule:nonzero;stroke:none"
             d="m 0,0 v 0 c -0.553,0 -1,0.448 -1,1 v 14 c 0,0.552 0.447,1 1,1 0.553,0 1,-0.448 1,-1 V 1 C 1,0.448 0.553,0 0,0" /></g><g
           transform="translate(193,148)"
           id="g102"><path
             id="path104"
             style="fill:#191919;fill-opacity:1;fill-rule:nonzero;stroke:none"
             d="m 0,0 v 0 c -0.553,0 -1,0.448 -1,1 v 14 c 0,0.552 0.447,1 1,1 0.553,0 1,-0.448 1,-1 V 1 C 1,0.448 0.553,0 0,0" /></g><g
           transform="translate(197,148)"
           id="g106"><path
             id="path108"
             style="fill:#191919;fill-opacity:1;fill-rule:nonzero;stroke:none"
             d="m 0,0 v 0 c -0.553,0 -1,0.448 -1,1 v 14 c 0,0.552 0.447,1 1,1 0.553,0 1,-0.448 1,-1 V 1 C 1,0.448 0.553,0 0,0" /></g><g
           transform="translate(201,148)"
           id="g110"><path
             id="path112"
             style="fill:#191919;fill-opacity:1;fill-rule:nonzero;stroke:none"
             d="m 0,0 v 0 c -0.553,0 -1,0.448 -1,1 v 14 c 0,0.552 0.447,1 1,1 0.553,0 1,-0.448 1,-1 V 1 C 1,0.448 0.553,0 0,0" /></g><g
           transform="translate(205,148)"
           id="g114"><path
             id="path116"
             style="fill:#191919;fill-opacity:1;fill-rule:nonzero;stroke:none"
             d="m 0,0 v 0 c -0.553,0 -1,0.448 -1,1 v 14 c 0,0.552 0.447,1 1,1 0.553,0 1,-0.448 1,-1 V 1 C 1,0.448 0.553,0 0,0" /></g><g
           transform="translate(209,148)"
           id="g118"><path
             id="path120"
             style="fill:#191919;fill-opacity:1;fill-rule:nonzero;stroke:none"
             d="m 0,0 v 0 c -0.553,0 -1,0.448 -1,1 v 14 c 0,0.552 0.447,1 1,1 0.553,0 1,-0.448 1,-1 V 1 C 1,0.448 0.553,0 0,0" /></g><g
           transform="translate(240,60)"
           id="g122"><path
             id="path124"
             style="fill:#666666;fill-opacity:1;fill-rule:nonzero;stroke:none"
             d="m 0,0 h -224 l 12,84 h 200 z" /></g><g
           transform="translate(220,76)"
           id="g126"><path
             id="path128"
             style="fill:#404040;fill-opacity:1;fill-rule:nonzero;stroke:none"
             d="m 0,0 h -184 l 4,60 H -4 Z" /></g><g
           transform="translate(228,52)"
           id="g130"><path
             id="path132"
             style="fill:#4c4c4c;fill-opacity:1;fill-rule:nonzero;stroke:none"
             d="m 0,0 h -200 l -12,8 H 12 Z" /></g><g
           transform="translate(164,124)"
           id="g134"><path
             id="path136"
             style="fill:#262626;fill-opacity:1;fill-rule:nonzero;stroke:none"
             d="m 0,0 c 0,-2.209 -1.791,-4 -4,-4 -2.209,0 -4,1.791 -4,4 0,2.209 1.791,4 4,4 2.209,0 4,-1.791 4,-4" /></g><g
           transform="translate(176,124)"
           id="g138"><path
             id="path140"
             style="fill:#262626;fill-opacity:1;fill-rule:nonzero;stroke:none"
             d="m 0,0 c 0,-2.209 -1.791,-4 -4,-4 -2.209,0 -4,1.791 -4,4 0,2.209 1.791,4 4,4 2.209,0 4,-1.791 4,-4" /></g><g
           transform="translate(188,124)"
           id="g142"><path
             id="path144"
             style="fill:#262626;fill-opacity:1;fill-rule:nonzero;stroke:none"
             d="m 0,0 c 0,-2.209 -1.791,-4 -4,-4 -2.209,0 -4,1.791 -4,4 0,2.209 1.791,4 4,4 2.209,0 4,-1.791 4,-4" /></g><g
           transform="translate(200,124)"
           id="g146"><path
             id="path148"
             style="fill:#262626;fill-opacity:1;fill-rule:nonzero;stroke:none"
             d="m 0,0 c 0,-2.209 -1.791,-4 -4,-4 -2.209,0 -4,1.791 -4,4 0,2.209 1.791,4 4,4 2.209,0 4,-1.791 4,-4" /></g><g
           transform="translate(212,124)"
           id="g150"><path
             id="path152"
             style="fill:#262626;fill-opacity:1;fill-rule:nonzero;stroke:none"
             d="m 0,0 c 0,-2.209 -1.791,-4 -4,-4 -2.209,0 -4,1.791 -4,4 0,2.209 1.791,4 4,4 2.209,0 4,-1.791 4,-4" /></g><g
           transform="translate(164,108)"
           id="g154"><path
             id="path156"
             style="fill:#262626;fill-opacity:1;fill-rule:nonzero;stroke:none"
             d="m 0,0 c 0,-2.209 -1.791,-4 -4,-4 -2.209,0 -4,1.791 -4,4 0,2.209 1.791,4 4,4 2.209,0 4,-1.791 4,-4" /></g><g
           transform="translate(176,108)"
           id="g158"><path
             id="path160"
             style="fill:#262626;fill-opacity:1;fill-rule:nonzero;stroke:none"
             d="m 0,0 c 0,-2.209 -1.791,-4 -4,-4 -2.209,0 -4,1.791 -4,4 0,2.209 1.791,4 4,4 2.209,0 4,-1.791 4,-4" /></g><g
           transform="translate(188,108)"
           id="g162"><path
             id="path164"
             style="fill:#262626;fill-opacity:1;fill-rule:nonzero;stroke:none"
             d="m 0,0 c 0,-2.209 -1.791,-4 -4,-4 -2.209,0 -4,1.791 -4,4 0,2.209 1.791,4 4,4 2.209,0 4,-1.791 4,-4" /></g><g
           transform="translate(200,108)"
           id="g166"><path
             id="path168"
             style="fill:#262626;fill-opacity:1;fill-rule:nonzero;stroke:none"
             d="m 0,0 c 0,-2.209 -1.791,-4 -4,-4 -2.209,0 -4,1.791 -4,4 0,2.209 1.791,4 4,4 2.209,0 4,-1.791 4,-4" /></g><g
           transform="translate(212,108)"
           id="g170"><path
             id="path172"
             style="fill:#262626;fill-opacity:1;fill-rule:nonzero;stroke:none"
             d="m 0,0 c 0,-2.209 -1.791,-4 -4,-4 -2.209,0 -4,1.791 -4,4 0,2.209 1.791,4 4,4 2.209,0 4,-1.791 4,-4" /></g><path
           id="path174"
           style="fill:#262626;fill-opacity:1;fill-rule:nonzero;stroke:none"
           d="M 76,120 H 64 v 8 h 12 z" /><g
           transform="translate(56,88)"
           id="g176"><path
             id="path178"
             style="fill:#262626;fill-opacity:1;fill-rule:nonzero;stroke:none"
             d="m 0,0 h -4 c -2.209,0 -4,1.791 -4,4 v 8 c 0,2.209 1.791,4 4,4 h 4 c 2.209,0 4,-1.791 4,-4 V 4 C 4,1.791 2.209,0 0,0" /></g><path
           id="path180"
           style="fill:#5d5259;fill-opacity:1;fill-rule:nonzero;stroke:none"
           d="m 56,96 h -4 v 4 h 4 z" /><path
           id="path182"
           style="fill:#010000;fill-opacity:1;fill-rule:nonzero;stroke:none"
           d="m 56,92 h -4 v 4 h 4 z" /><g
           transform="translate(84,88)"
           id="g184"><path
             id="path186"
             style="fill:#262626;fill-opacity:1;fill-rule:nonzero;stroke:none"
             d="m 0,0 h -4 c -2.209,0 -4,1.791 -4,4 v 8 c 0,2.209 1.791,4 4,4 h 4 c 2.209,0 4,-1.791 4,-4 V 4 C 4,1.791 2.209,0 0,0" /></g><path
           id="path188"
           style="fill:#5d5259;fill-opacity:1;fill-rule:nonzero;stroke:none"
           d="m 84,96 h -4 v 4 h 4 z" /><path
           id="path190"
           style="fill:#010000;fill-opacity:1;fill-rule:nonzero;stroke:none"
           d="m 84,92 h -4 v 4 h 4 z" /><g
           transform="translate(112,88)"
           id="g192"><path
             id="path194"
             style="fill:#262626;fill-opacity:1;fill-rule:nonzero;stroke:none"
             d="m 0,0 h -4 c -2.209,0 -4,1.791 -4,4 v 8 c 0,2.209 1.791,4 4,4 h 4 c 2.209,0 4,-1.791 4,-4 V 4 C 4,1.791 2.209,0 0,0" /></g><path
           id="path196"
           style="fill:#5d5259;fill-opacity:1;fill-rule:nonzero;stroke:none"
           d="m 112,96 h -4 v 4 h 4 z" /><path
           id="path198"
           style="fill:#010000;fill-opacity:1;fill-rule:nonzero;stroke:none"
           d="m 112,92 h -4 v 4 h 4 z" /><g
           transform="translate(140,88)"
           id="g200"><path
             id="path202"
             style="fill:#262626;fill-opacity:1;fill-rule:nonzero;stroke:none"
             d="m 0,0 h -4 c -2.209,0 -4,1.791 -4,4 v 8 c 0,2.209 1.791,4 4,4 h 4 c 2.209,0 4,-1.791 4,-4 V 4 C 4,1.791 2.209,0 0,0" /></g><path
           id="path204"
           style="fill:#5d5259;fill-opacity:1;fill-rule:nonzero;stroke:none"
           d="m 140,96 h -4 v 4 h 4 z" /><path
           id="path206"
           style="fill:#010000;fill-opacity:1;fill-rule:nonzero;stroke:none"
           d="m 140,92 h -4 v 4 h 4 z" /></g></g></g></svg>