<svg xmlns="http://www.w3.org/2000/svg" xml:space="preserve" width="330.666" height="192" viewBox="0 0 330.666 192"><defs><clipPath id="a" clipPathUnits="userSpaceOnUse"><path d="M0 256h256V0H0Z"/></clipPath><clipPath id="b" clipPathUnits="userSpaceOnUse"><path d="M4 200h248V56H4Z"/></clipPath></defs><g clip-path="url(#a)" transform="matrix(1.33333 0 0 -1.33333 -5.334 266.667)"><g clip-path="url(#b)" style="opacity:.5"><path d="M4.192 133.041a7.98 7.98 0 0 1-5.97 2.675h-216a7.98 7.98 0 0 1-5.971-2.675c-6.116-3.523-10.029-10.104-10.029-17.325v-64q0-.307.023-.613l3.716-48.307c.478-6.213 5.733-11.08 11.965-11.08H-1.482c6.231 0 11.486 4.867 11.964 11.08l3.716 48.307q.024.306.024.613v64c0 7.221-3.914 13.802-10.03 17.325" style="fill:#fff;fill-opacity:1;fill-rule:nonzero;stroke:none" transform="translate(237.778 64.284)"/></g><path d="M0 0h-232v64c0 6.627 5.373 12 12 12h208c6.627 0 12-5.373 12-12Zm0 0h-232l3.716-48.307A4 4 0 0 1-224.296-52H-7.704a4 4 0 0 1 3.988 3.693z" style="fill:#b3b3b3;fill-opacity:1;fill-rule:nonzero;stroke:none" transform="translate(244 116)"/><path d="M236 116H20v12h216z" style="fill:#bfbfbf;fill-opacity:1;fill-rule:nonzero;stroke:none"/><path d="M0 0h-112a4 4 0 0 0-4 4v68H4V4a4 4 0 0 0-4-4" style="fill:#b3b3b3;fill-opacity:1;fill-rule:nonzero;stroke:none" transform="translate(184 120)"/><path d="M0 0h-208a4 4 0 0 0-4 4v44H4V4a4 4 0 0 0-4-4" style="fill:#a6a6a6;fill-opacity:1;fill-rule:nonzero;stroke:none" transform="translate(232 68)"/><path d="M0 0h-187.958a2.02 2.02 0 0 0-2.021 2.021v27.958c0 1.116.905 2.021 2.021 2.021H0a2.02 2.02 0 0 0 2.021-2.021V2.021A2.02 2.02 0 0 0 0 0" style="fill:#222021;fill-opacity:1;fill-rule:nonzero;stroke:none" transform="translate(221.978 76)"/><path d="M0 0h-180a2 2 0 0 0-2 2v12a2 2 0 0 0 2 2H0a2 2 0 0 0 2-2V2a2 2 0 0 0-2-2" style="fill:#999;fill-opacity:1;fill-rule:nonzero;stroke:none" transform="translate(218 84)"/><path d="M0 0c-2.209 0-4-2.687-4-6v-6h8v6c0 3.313-1.791 6-4 6" style="fill:#a6a6a6;fill-opacity:1;fill-rule:nonzero;stroke:none" transform="translate(80 136)"/><path d="M0 0h-44a2 2 0 0 0-2 2v56a2 2 0 0 0 2 2H0a2 2 0 0 0 2-2V2a2 2 0 0 0-2-2" style="fill:#bfbfbf;fill-opacity:1;fill-rule:nonzero;stroke:none" transform="translate(66 132)"/><path d="M60 184H28v-48h32Zm-4-44H32v40h24z" style="fill:#b3b3b3;fill-opacity:1;fill-rule:nonzero;stroke:none"/><path d="M0 0c3.309 0 6-2.691 6-6s-2.691-6-6-6-6 2.691-6 6 2.691 6 6 6" style="fill:#b3b3b3;fill-opacity:1;fill-rule:nonzero;stroke:none" transform="translate(44 166)"/><path d="M36 136h-8v12h8z" style="fill:#b80000;fill-opacity:1;fill-rule:nonzero;stroke:none"/><path d="M0 0h44a2 2 0 0 0 2-2v-56a2 2 0 0 0-2-2H0a2 2 0 0 0-2 2v56a2 2 0 0 0 2 2" style="fill:#bfbfbf;fill-opacity:1;fill-rule:nonzero;stroke:none" transform="translate(190 192)"/><path d="M228 188h-32v-52h32zm-4-48h-24v44h24z" style="fill:#b3b3b3;fill-opacity:1;fill-rule:nonzero;stroke:none"/><path d="M204 136h-8v12h8z" style="fill:#3096cf;fill-opacity:1;fill-rule:nonzero;stroke:none"/><path d="M0 0c-2.209 0-4-.896-4-2h8C4-.896 2.209 0 0 0" style="fill:#222021;fill-opacity:1;fill-rule:nonzero;stroke:none" transform="translate(80 126)"/><path d="M0 0c3.309 0 6-2.691 6-6s-2.691-6-6-6-6 2.691-6 6 2.691 6 6 6" style="fill:#b3b3b3;fill-opacity:1;fill-rule:nonzero;stroke:none" transform="translate(212 166)"/><path d="M0 0a2 2 0 0 0-2 2v4a2 2 0 0 0 4 0V2a2 2 0 0 0-2-2" style="fill:#333;fill-opacity:1;fill-rule:nonzero;stroke:none" transform="translate(42 88)"/><path d="M0 0a2 2 0 1 0-4.001.001A2 2 0 0 0 0 0" style="fill:#262626;fill-opacity:1;fill-rule:nonzero;stroke:none" transform="translate(44 94)"/><path d="M0 0a2 2 0 0 0-2 2v4a2 2 0 0 0 4 0V2a2 2 0 0 0-2-2" style="fill:#333;fill-opacity:1;fill-rule:nonzero;stroke:none" transform="translate(54 88)"/><path d="M0 0a2 2 0 1 0-4.001.001A2 2 0 0 0 0 0" style="fill:#262626;fill-opacity:1;fill-rule:nonzero;stroke:none" transform="translate(56 90)"/><path d="M0 0a2 2 0 0 0-2 2v4a2 2 0 0 0 4 0V2a2 2 0 0 0-2-2" style="fill:#333;fill-opacity:1;fill-rule:nonzero;stroke:none" transform="translate(66 88)"/><path d="M0 0a2 2 0 1 0-4.001.001A2 2 0 0 0 0 0" style="fill:#262626;fill-opacity:1;fill-rule:nonzero;stroke:none" transform="translate(68 94)"/><path d="M154 90h-52v4h52zm62-2h-2v8h2zm-4 0h-2v8h2zm-4 0h-2v8h2zm-4 0h-2v8h2zm-4 0h-2v8h2zm-4 0h-2v8h2zm-4 0h-2v8h2z" style="fill:#262626;fill-opacity:1;fill-rule:nonzero;stroke:none"/></g></svg>