<?xml version="1.0" encoding="UTF-8" standalone="no"?>
<svg
   xmlns:dc="http://purl.org/dc/elements/1.1/"
   xmlns:cc="http://creativecommons.org/ns#"
   xmlns:rdf="http://www.w3.org/1999/02/22-rdf-syntax-ns#"
   xmlns:svg="http://www.w3.org/2000/svg"
   xmlns="http://www.w3.org/2000/svg"
   viewBox="0 0 330.66665 245.33333"
   height="245.33333"
   width="330.66666"
   xml:space="preserve"
   id="svg2"
   version="1.1"><metadata
     id="metadata8"><rdf:RDF><cc:Work
         rdf:about=""><dc:format>image/svg+xml</dc:format><dc:type
           rdf:resource="http://purl.org/dc/dcmitype/StillImage" /></cc:Work></rdf:RDF></metadata><defs
     id="defs6"><clipPath
       id="clipPath18"
       clipPathUnits="userSpaceOnUse"><path
         id="path16"
         d="M 0,256 H 256 V 0 H 0 Z" /></clipPath><clipPath
       id="clipPath26"
       clipPathUnits="userSpaceOnUse"><path
         id="path24"
         d="M 4,220 H 252 V 36 H 4 Z" /></clipPath></defs><g
     transform="matrix(1.3333333,0,0,-1.3333333,-5.3333332,293.33333)"
     id="g10"><g
       id="g12"><g
         clip-path="url(#clipPath18)"
         id="g14"><g
           id="g20"><g
             id="g22" /><g
             id="g34"><g
               style="opacity:0.5"
               id="g32"
               clip-path="url(#clipPath26)"><g
                 id="g30"
                 transform="translate(236,220)"><path
                   id="path28"
                   style="fill:#ffffff;fill-opacity:1;fill-rule:nonzero;stroke:none"
                   d="m 0,0 h -216 c -8.822,0 -16,-7.178 -16,-16 v -152 c 0,-8.822 7.178,-16 16,-16 H 0 c 8.822,0 16,7.178 16,16 V -16 C 16,-7.178 8.822,0 0,0" /></g></g></g></g><g
           transform="translate(236,44)"
           id="g36"><path
             id="path38"
             style="fill:#262626;fill-opacity:1;fill-rule:nonzero;stroke:none"
             d="m 0,0 h -216 c -4.418,0 -8,3.582 -8,8 v 152 c 0,4.418 3.582,8 8,8 H 0 c 4.418,0 8,-3.582 8,-8 V 8 C 8,3.582 4.418,0 0,0" /></g><path
           id="path40"
           style="fill:#333333;fill-opacity:1;fill-rule:nonzero;stroke:none"
           d="M 180,168 H 76 v 20 h 104 z" /><g
           transform="translate(216,64)"
           id="g42"><path
             id="path44"
             style="fill:#cccccc;fill-opacity:1;fill-rule:nonzero;stroke:none"
             d="m 0,0 h -176 c -2.209,0 -4,1.791 -4,4 v 64 c 0,2.209 1.791,4 4,4 H 0 c 2.209,0 4,-1.791 4,-4 V 4 C 4,1.791 2.209,0 0,0" /></g><g
           transform="translate(22,196)"
           id="g46"><path
             id="path48"
             style="fill:#191919;fill-opacity:1;fill-rule:nonzero;stroke:none"
             d="m 0,0 v -144 c 3.313,0 6,32.235 6,72 C 6,-32.235 3.313,0 0,0" /></g><g
           transform="translate(238,196)"
           id="g50"><path
             id="path52"
             style="fill:#191919;fill-opacity:1;fill-rule:nonzero;stroke:none"
             d="m 0,0 v -144 c -3.313,0 -6,32.235 -6,72 0,39.765 2.687,72 6,72" /></g><path
           id="path54"
           style="fill:#191919;fill-opacity:1;fill-rule:nonzero;stroke:none"
           d="M 180,188 H 76 v 8 h 104 z" /><path
           id="path56"
           style="fill:#262626;fill-opacity:1;fill-rule:nonzero;stroke:none"
           d="M 162,72 H 94 v 32 h 68 z" /><path
           id="path58"
           style="fill:#262626;fill-opacity:1;fill-rule:nonzero;stroke:none"
           d="M 62,112 H 50 v 12 h 12 z" /><path
           id="path60"
           style="fill:#262626;fill-opacity:1;fill-rule:nonzero;stroke:none"
           d="M 78,112 H 66 v 12 h 12 z" /><path
           id="path62"
           style="fill:#262626;fill-opacity:1;fill-rule:nonzero;stroke:none"
           d="M 94,112 H 82 v 12 h 12 z" /><path
           id="path64"
           style="fill:#262626;fill-opacity:1;fill-rule:nonzero;stroke:none"
           d="M 110,112 H 98 v 12 h 12 z" /><path
           id="path66"
           style="fill:#262626;fill-opacity:1;fill-rule:nonzero;stroke:none"
           d="m 126,112 h -12 v 12 h 12 z" /><path
           id="path68"
           style="fill:#262626;fill-opacity:1;fill-rule:nonzero;stroke:none"
           d="m 142,112 h -12 v 12 h 12 z" /><path
           id="path70"
           style="fill:#262626;fill-opacity:1;fill-rule:nonzero;stroke:none"
           d="m 158,112 h -12 v 12 h 12 z" /><path
           id="path72"
           style="fill:#262626;fill-opacity:1;fill-rule:nonzero;stroke:none"
           d="m 174,112 h -12 v 12 h 12 z" /><path
           id="path74"
           style="fill:#262626;fill-opacity:1;fill-rule:nonzero;stroke:none"
           d="m 190,112 h -12 v 12 h 12 z" /><path
           id="path76"
           style="fill:#262626;fill-opacity:1;fill-rule:nonzero;stroke:none"
           d="m 206,112 h -12 v 12 h 12 z" /><g
           transform="translate(58,84)"
           id="g78"><path
             id="path80"
             style="fill:#262626;fill-opacity:1;fill-rule:nonzero;stroke:none"
             d="m 0,0 v 0 c -1.104,0 -2,0.896 -2,2 v 8 c 0,1.104 0.896,2 2,2 1.104,0 2,-0.896 2,-2 V 2 C 2,0.896 1.104,0 0,0" /></g><g
           transform="translate(58,96)"
           id="g82"><path
             id="path84"
             style="fill:#595959;fill-opacity:1;fill-rule:nonzero;stroke:none"
             d="m 0,0 c -1.104,0 -2,-0.896 -2,-2 0,-1.104 0.896,-2 2,-2 1.104,0 2,0.896 2,2 0,1.104 -0.896,2 -2,2 m 0,-1 c 0.551,0 1,-0.448 1,-1 0,-0.552 -0.449,-1 -1,-1 -0.551,0 -1,0.448 -1,1 0,0.552 0.449,1 1,1" /></g><g
           transform="translate(78,88)"
           id="g86"><path
             id="path88"
             style="fill:#262626;fill-opacity:1;fill-rule:nonzero;stroke:none"
             d="M 0,0 V 0 C -1.104,0 -2,0.896 -2,2 V 6 C -2,7.104 -1.104,8 0,8 1.104,8 2,7.104 2,6 V 2 C 2,0.896 1.104,0 0,0" /></g><g
           transform="translate(78,96)"
           id="g90"><path
             id="path92"
             style="fill:#595959;fill-opacity:1;fill-rule:nonzero;stroke:none"
             d="m 0,0 c -1.104,0 -2,-0.896 -2,-2 0,-1.104 0.896,-2 2,-2 1.104,0 2,0.896 2,2 0,1.104 -0.896,2 -2,2 m 0,-1 c 0.551,0 1,-0.448 1,-1 0,-0.552 -0.449,-1 -1,-1 -0.551,0 -1,0.448 -1,1 0,0.552 0.449,1 1,1" /></g><g
           transform="translate(178,96)"
           id="g94"><path
             id="path96"
             style="fill:#262626;fill-opacity:1;fill-rule:nonzero;stroke:none"
             d="m 0,0 v 0 c 1.104,0 2,-0.896 2,-2 v -4 c 0,-1.104 -0.896,-2 -2,-2 -1.104,0 -2,0.896 -2,2 v 4 c 0,1.104 0.896,2 2,2" /></g><g
           transform="translate(178,88)"
           id="g98"><path
             id="path100"
             style="fill:#595959;fill-opacity:1;fill-rule:nonzero;stroke:none"
             d="M 0,0 C 1.104,0 2,0.896 2,2 2,3.104 1.104,4 0,4 -1.104,4 -2,3.104 -2,2 -2,0.896 -1.104,0 0,0 M 0,1 C -0.552,1 -1,1.448 -1,2 -1,2.552 -0.552,3 0,3 0.552,3 1,2.552 1,2 1,1.448 0.552,1 0,1" /></g><g
           transform="translate(198,96)"
           id="g102"><path
             id="path104"
             style="fill:#262626;fill-opacity:1;fill-rule:nonzero;stroke:none"
             d="m 0,0 v 0 c 1.104,0 2,-0.896 2,-2 v -4 c 0,-1.104 -0.896,-2 -2,-2 -1.104,0 -2,0.896 -2,2 v 4 c 0,1.104 0.896,2 2,2" /></g><g
           transform="translate(198,88)"
           id="g106"><path
             id="path108"
             style="fill:#595959;fill-opacity:1;fill-rule:nonzero;stroke:none"
             d="M 0,0 C 1.104,0 2,0.896 2,2 2,3.104 1.104,4 0,4 -1.104,4 -2,3.104 -2,2 -2,0.896 -1.104,0 0,0 M 0,1 C -0.552,1 -1,1.448 -1,2 -1,2.552 -0.552,3 0,3 0.552,3 1,2.552 1,2 1,1.448 0.552,1 0,1" /></g><path
           id="path110"
           style="fill:#333333;fill-opacity:1;fill-rule:nonzero;stroke:none"
           d="m 40,107 h -4 v 2 h 4 z m 8,0 h -4 v 2 h 4 z m 8,0 h -4 v 2 h 4 z m 8,0 h -4 v 2 h 4 z m 8,0 h -4 v 2 h 4 z m 8,0 h -4 v 2 h 4 z m 8,0 h -4 v 2 h 4 z m 8,0 h -4 v 2 h 4 z m 8,0 h -4 v 2 h 4 z m 8,0 h -4 v 2 h 4 z m 8,0 h -4 v 2 h 4 z m 8,0 h -4 v 2 h 4 z m 8,0 h -4 v 2 h 4 z m 8,0 h -4 v 2 h 4 z m 8,0 h -4 v 2 h 4 z m 8,0 h -4 v 2 h 4 z m 8,0 h -4 v 2 h 4 z m 8,0 h -4 v 2 h 4 z m 8,0 h -4 v 2 h 4 z m 8,0 h -4 v 2 h 4 z m 8,0 h -4 v 2 h 4 z m 8,0 h -4 v 2 h 4 z m 8,0 h -4 v 2 h 4 z" /></g></g></g></svg>