<svg xmlns="http://www.w3.org/2000/svg" xml:space="preserve" width="330.667" height="192" viewBox="0 0 330.667 192"><defs><clipPath id="a" clipPathUnits="userSpaceOnUse"><path d="M0 256h256V0H0Z"/></clipPath><clipPath id="b" clipPathUnits="userSpaceOnUse"><path d="M4 200h248V56H4Z"/></clipPath></defs><g clip-path="url(#a)" transform="matrix(1.33333 0 0 -1.33333 -5.333 266.667)"><g clip-path="url(#b)" style="opacity:.5"><path d="M0 0h-64.76l-.378-.036-76.759-7.31a15.937 15.937 0 0 1-14.483-15.928v-97.452a15.935 15.935 0 0 1 14.483-15.927l76.759-7.311.378-.036H0l.379.036 76.758 7.311a15.934 15.934 0 0 1 14.483 15.927v97.452A15.936 15.936 0 0 1 77.137-7.346L.379-.036z" style="fill:#fff;fill-opacity:1;fill-rule:nonzero;stroke:none" transform="translate(160.38 200)"/></g><path d="M0 0h-64l-76.758-7.311A8 8 0 0 1-148-15.274v-97.452a8 8 0 0 1 7.242-7.963L-64-128H0l76.759 7.311A8 8 0 0 1 84-112.726v97.452a8 8 0 0 1-7.241 7.963z" style="fill:#404040;fill-opacity:1;fill-rule:nonzero;stroke:none" transform="translate(160 192)"/><path d="M232 168H24v4h208z" style="fill:#333;fill-opacity:1;fill-rule:nonzero;stroke:none"/><path d="M0 0h-208l88 4h32z" style="fill:#333;fill-opacity:1;fill-rule:nonzero;stroke:none" transform="translate(232 176)"/><path d="M232 160H24v4h208zm0-8H24v4h208z" style="fill:#333;fill-opacity:1;fill-rule:nonzero;stroke:none"/><path d="M92 152H32v16h60z" style="fill:#b3b3b3;fill-opacity:1;fill-rule:nonzero;stroke:none"/><path d="m0 0-102.077-3.926c-.051-.002.051-.002 0 0L-204.154 0a2 2 0 0 0-1.923 1.999v52.075a2 2 0 0 0 2 2h204a2 2 0 0 0 2-2V1.999C1.923.924 1.073.042 0 0" style="fill:#a6a6a6;fill-opacity:1;fill-rule:nonzero;stroke:none" transform="translate(230.077 83.926)"/><path d="M80 80h-4v60h4zm100 0h-4v60h4z" style="fill:#404040;fill-opacity:1;fill-rule:nonzero;stroke:none"/><path d="M0 0c0-7.732-6.268-14-14-14S-28-7.732-28 0s6.268 14 14 14S0 7.732 0 0" style="fill:#262626;fill-opacity:1;fill-rule:nonzero;stroke:none" transform="translate(64 114)"/><path d="M0 0c-5.523 0-10-4.478-10-10s4.477-10 10-10 10 4.478 10 10S5.523 0 0 0m0-2c4.411 0 8-3.589 8-8s-3.589-8-8-8-8 3.589-8 8 3.589 8 8 8" style="fill:#333;fill-opacity:1;fill-rule:nonzero;stroke:none" transform="translate(50 124)"/><path d="M0 0c0-7.732-6.268-14-14-14S-28-7.732-28 0s6.268 14 14 14S0 7.732 0 0" style="fill:#262626;fill-opacity:1;fill-rule:nonzero;stroke:none" transform="translate(220 114)"/><path d="M0 0c-5.522 0-10-4.478-10-10s4.478-10 10-10 10 4.478 10 10S5.522 0 0 0m0-2c4.411 0 8-3.589 8-8s-3.589-8-8-8-8 3.589-8 8 3.589 8 8 8" style="fill:#333;fill-opacity:1;fill-rule:nonzero;stroke:none" transform="translate(206 124)"/><path d="M144 120h-28v8h28zm-4-20h-20v8h20z" style="fill:#262626;fill-opacity:1;fill-rule:nonzero;stroke:none"/><path d="M116 120h8v8h-8zm24-20h-8v8h8z" style="fill:#333;fill-opacity:1;fill-rule:nonzero;stroke:none"/><path d="M168 108h-8v12h8z" style="fill:#262626;fill-opacity:1;fill-rule:nonzero;stroke:none"/><path d="M168 116h-8v4h8z" style="fill:#333;fill-opacity:1;fill-rule:nonzero;stroke:none"/><path d="M0 0a6 6 0 0 0-12 0A6 6 0 0 0 0 0" style="fill:#333;fill-opacity:1;fill-rule:nonzero;stroke:none" transform="translate(104 114)"/><path d="M0 0a2 2 0 1 0-4.001.001A2 2 0 0 0 0 0" style="fill:#262626;fill-opacity:1;fill-rule:nonzero;stroke:none" transform="translate(100 114)"/></g></svg>