<svg xmlns="http://www.w3.org/2000/svg" xml:space="preserve" viewBox="0 0 256 256"><path d="m251.988 111.556-4-72-.42-7.556H8.432l-.42 7.556-4 72-.012.222V224h248V111.778z" style="opacity:.5;fill:#fff"/><path d="M12 112h232v104H12z" style="fill:#d9d4bc"/><path d="M20 132h216v76H20z" style="fill:#404040"/><path d="M48 148h176v48H48z" style="fill:#1a1a1a"/><path d="M80 136h104v8H80z" style="fill:#7b0000"/><path d="M244 112H12l4-72h224z" style="fill:#d9d4bc"/><path d="M20 116h216v16H20z" style="fill:#737373"/><path d="M27 128a1 1 0 0 0 1-1v-6a1 1 0 0 0-2 0v6a1 1 0 0 0 1 1m4 0a1 1 0 0 0 1-1v-6a1 1 0 0 0-2 0v6a1 1 0 0 0 1 1m4 0a1 1 0 0 0 1-1v-6a1 1 0 0 0-2 0v6a1 1 0 0 0 1 1m4 0a1 1 0 0 0 1-1v-6a1 1 0 0 0-2 0v6a1 1 0 0 0 1 1m4 0a1 1 0 0 0 1-1v-6a1 1 0 0 0-2 0v6a1 1 0 0 0 1 1m4 0a1 1 0 0 0 1-1v-6a1 1 0 0 0-2 0v6a1 1 0 0 0 1 1m4 0a1 1 0 0 0 1-1v-6a1 1 0 0 0-2 0v6a1 1 0 0 0 1 1" style="fill:#595959"/><path d="M76 136h8v8h-8zm12 0h8v8h-8zm12 0h8v8h-8zm12 0h8v8h-8zm12 0h8v8h-8zm12 0h8v8h-8zm12 0h8v8h-8zm12 0h8v8h-8zm12 0h8v8h-8z" style="fill:#b80000"/><path d="M184 136h8v8h-8zM48 148h8v8h-8zm-4 24h8v8h-8zm32 12h8v8h-8zm12 0h8v8h-8zm-4 12h88v8H84zm16-12h8v8h-8zm12 0h8v8h-8zm12 0h8v8h-8zm12 0h8v8h-8zm12 0h8v8h-8zm12 0h8v8h-8zm12 0h8v8h-8zm12 0h12v8h-12zm16 0h8v8h-8zm12 0h8v8h-8zm-156 0h16v8H56zm0-12h8v8h-8zm12 0h8v8h-8zm12 0h8v8h-8zm12 0h8v8h-8zm12 0h8v8h-8zm12 0h8v8h-8zm12 0h8v8h-8zm12 0h8v8h-8zm12 0h8v8h-8zm12 0h8v8h-8zm12 0h8v8h-8zm12 0h8v8h-8zm12 0h20v8h-20zM48 160h12v8H48zm12-12h8v8h-8zm4 12h8v8h-8zm12 0h8v8h-8zm12 0h8v8h-8zm12 0h8v8h-8zm12 0h8v8h-8zm12 0h8v8h-8zm12 0h8v8h-8zm12 0h8v8h-8zm12 0h8v8h-8zm12 0h8v8h-8zm12 0h8v8h-8zm12 0h8v8h-8zm12 0h8v8h-8zm12 0h8v8h-8zM72 148h8v8h-8zm12 0h8v8h-8zm12 0h8v8h-8zm12 0h8v8h-8zm12 0h8v8h-8zm12 0h8v8h-8zm12 0h8v8h-8zm12 0h8v8h-8zm12 0h8v8h-8zm12 0h8v8h-8zm12 0h8v8h-8zm12 0h8v8h-8zm12 0h8v8h-8z" style="fill:#333"/><circle cx="50" cy="202" r="2" style="fill:#3d0000"/><circle cx="74" cy="202" r="2" style="fill:#3d0000"/><circle cx="62" cy="202" r="2" style="fill:red"/></svg>