<?xml version="1.0" encoding="iso-8859-1"?>
<!-- Generator: Adobe Illustrator 27.8.1, SVG Export Plug-In . SVG Version: 6.00 Build 0)  -->
<svg version="1.1" id="Layer_1" xmlns="http://www.w3.org/2000/svg" xmlns:xlink="http://www.w3.org/1999/xlink" x="0px" y="0px"
	 viewBox="0 0 256 256" style="enable-background:new 0 0 256 256;" xml:space="preserve">
<polygon style="opacity:0.5;fill:#FFFFFF;" points="251.988,111.556 247.988,39.556 247.568,32 240,32 16,32 8.432,32 8.012,39.556 
	4.012,111.556 4,111.778 4,112 4,216 4,224 12,224 244,224 252,224 252,216 252,112 252,111.778 "/>
<rect x="12" y="112" style="fill:#D9D4BC;" width="232" height="104"/>
<rect x="20" y="132" style="fill:#404040;" width="216" height="76"/>
<rect x="48" y="148" style="fill:#1A1A1A;" width="176" height="48"/>
<rect x="80" y="136" style="fill:#7B0000;" width="104" height="8"/>
<polygon style="fill:#D9D4BC;" points="244,112 12,112 16,40 240,40 "/>
<rect x="20" y="116" style="fill:#737373;" width="216" height="16"/>
<path style="fill:#595959;" d="M27,128L27,128c0.552,0,1-0.448,1-1v-6c0-0.552-0.448-1-1-1h0c-0.552,0-1,0.448-1,1v6
	C26,127.552,26.448,128,27,128z"/>
<path style="fill:#595959;" d="M31,128L31,128c0.552,0,1-0.448,1-1v-6c0-0.552-0.448-1-1-1h0c-0.552,0-1,0.448-1,1v6
	C30,127.552,30.448,128,31,128z"/>
<path style="fill:#595959;" d="M35,128L35,128c0.552,0,1-0.448,1-1v-6c0-0.552-0.448-1-1-1l0,0c-0.552,0-1,0.448-1,1v6
	C34,127.552,34.448,128,35,128z"/>
<path style="fill:#595959;" d="M39,128L39,128c0.552,0,1-0.448,1-1v-6c0-0.552-0.448-1-1-1l0,0c-0.552,0-1,0.448-1,1v6
	C38,127.552,38.448,128,39,128z"/>
<path style="fill:#595959;" d="M43,128L43,128c0.552,0,1-0.448,1-1v-6c0-0.552-0.448-1-1-1l0,0c-0.552,0-1,0.448-1,1v6
	C42,127.552,42.448,128,43,128z"/>
<path style="fill:#595959;" d="M47,128L47,128c0.552,0,1-0.448,1-1v-6c0-0.552-0.448-1-1-1l0,0c-0.552,0-1,0.448-1,1v6
	C46,127.552,46.448,128,47,128z"/>
<path style="fill:#595959;" d="M51,128L51,128c0.552,0,1-0.448,1-1v-6c0-0.552-0.448-1-1-1l0,0c-0.552,0-1,0.448-1,1v6
	C50,127.552,50.448,128,51,128z"/>
<rect x="76" y="136" style="fill:#B80000;" width="8" height="8"/>
<rect x="88" y="136" style="fill:#B80000;" width="8" height="8"/>
<rect x="100" y="136" style="fill:#B80000;" width="8" height="8"/>
<rect x="112" y="136" style="fill:#B80000;" width="8" height="8"/>
<rect x="124" y="136" style="fill:#B80000;" width="8" height="8"/>
<rect x="136" y="136" style="fill:#B80000;" width="8" height="8"/>
<rect x="148" y="136" style="fill:#B80000;" width="8" height="8"/>
<rect x="160" y="136" style="fill:#B80000;" width="8" height="8"/>
<rect x="172" y="136" style="fill:#B80000;" width="8" height="8"/>
<rect x="184" y="136" style="fill:#333333;" width="8" height="8"/>
<rect x="48" y="148" style="fill:#333333;" width="8" height="8"/>
<rect x="44" y="172" style="fill:#333333;" width="8" height="8"/>
<rect x="76" y="184" style="fill:#333333;" width="8" height="8"/>
<rect x="88" y="184" style="fill:#333333;" width="8" height="8"/>
<rect x="84" y="196" style="fill:#333333;" width="88" height="8"/>
<rect x="100" y="184" style="fill:#333333;" width="8" height="8"/>
<rect x="112" y="184" style="fill:#333333;" width="8" height="8"/>
<rect x="124" y="184" style="fill:#333333;" width="8" height="8"/>
<rect x="136" y="184" style="fill:#333333;" width="8" height="8"/>
<rect x="148" y="184" style="fill:#333333;" width="8" height="8"/>
<rect x="160" y="184" style="fill:#333333;" width="8" height="8"/>
<rect x="172" y="184" style="fill:#333333;" width="8" height="8"/>
<rect x="184" y="184" style="fill:#333333;" width="12" height="8"/>
<rect x="200" y="184" style="fill:#333333;" width="8" height="8"/>
<rect x="212" y="184" style="fill:#333333;" width="8" height="8"/>
<rect x="56" y="184" style="fill:#333333;" width="16" height="8"/>
<rect x="56" y="172" style="fill:#333333;" width="8" height="8"/>
<rect x="68" y="172" style="fill:#333333;" width="8" height="8"/>
<rect x="80" y="172" style="fill:#333333;" width="8" height="8"/>
<rect x="92" y="172" style="fill:#333333;" width="8" height="8"/>
<rect x="104" y="172" style="fill:#333333;" width="8" height="8"/>
<rect x="116" y="172" style="fill:#333333;" width="8" height="8"/>
<rect x="128" y="172" style="fill:#333333;" width="8" height="8"/>
<rect x="140" y="172" style="fill:#333333;" width="8" height="8"/>
<rect x="152" y="172" style="fill:#333333;" width="8" height="8"/>
<rect x="164" y="172" style="fill:#333333;" width="8" height="8"/>
<rect x="176" y="172" style="fill:#333333;" width="8" height="8"/>
<rect x="188" y="172" style="fill:#333333;" width="8" height="8"/>
<rect x="200" y="172" style="fill:#333333;" width="20" height="8"/>
<rect x="48" y="160" style="fill:#333333;" width="12" height="8"/>
<rect x="60" y="148" style="fill:#333333;" width="8" height="8"/>
<rect x="64" y="160" style="fill:#333333;" width="8" height="8"/>
<rect x="76" y="160" style="fill:#333333;" width="8" height="8"/>
<rect x="88" y="160" style="fill:#333333;" width="8" height="8"/>
<rect x="100" y="160" style="fill:#333333;" width="8" height="8"/>
<rect x="112" y="160" style="fill:#333333;" width="8" height="8"/>
<rect x="124" y="160" style="fill:#333333;" width="8" height="8"/>
<rect x="136" y="160" style="fill:#333333;" width="8" height="8"/>
<rect x="148" y="160" style="fill:#333333;" width="8" height="8"/>
<rect x="160" y="160" style="fill:#333333;" width="8" height="8"/>
<rect x="172" y="160" style="fill:#333333;" width="8" height="8"/>
<rect x="184" y="160" style="fill:#333333;" width="8" height="8"/>
<rect x="196" y="160" style="fill:#333333;" width="8" height="8"/>
<rect x="208" y="160" style="fill:#333333;" width="8" height="8"/>
<rect x="220" y="160" style="fill:#333333;" width="8" height="8"/>
<rect x="72" y="148" style="fill:#333333;" width="8" height="8"/>
<rect x="84" y="148" style="fill:#333333;" width="8" height="8"/>
<rect x="96" y="148" style="fill:#333333;" width="8" height="8"/>
<rect x="108" y="148" style="fill:#333333;" width="8" height="8"/>
<rect x="120" y="148" style="fill:#333333;" width="8" height="8"/>
<rect x="132" y="148" style="fill:#333333;" width="8" height="8"/>
<rect x="144" y="148" style="fill:#333333;" width="8" height="8"/>
<rect x="156" y="148" style="fill:#333333;" width="8" height="8"/>
<rect x="168" y="148" style="fill:#333333;" width="8" height="8"/>
<rect x="180" y="148" style="fill:#333333;" width="8" height="8"/>
<rect x="192" y="148" style="fill:#333333;" width="8" height="8"/>
<rect x="204" y="148" style="fill:#333333;" width="8" height="8"/>
<rect x="216" y="148" style="fill:#333333;" width="8" height="8"/>
<circle style="fill:#3D0000;" cx="50" cy="202" r="2"/>
<circle style="fill:#3D0000;" cx="74" cy="202" r="2"/>
<circle style="fill:#FF0000;" cx="62" cy="202" r="2"/>
</svg>
