<?xml version="1.0" encoding="UTF-8" standalone="no"?>
<svg
   xmlns:dc="http://purl.org/dc/elements/1.1/"
   xmlns:cc="http://creativecommons.org/ns#"
   xmlns:rdf="http://www.w3.org/1999/02/22-rdf-syntax-ns#"
   xmlns:svg="http://www.w3.org/2000/svg"
   xmlns="http://www.w3.org/2000/svg"
   viewBox="0 0 314.20804 314.66626"
   height="314.66626"
   width="314.20804"
   xml:space="preserve"
   id="svg2"
   version="1.1"><metadata
     id="metadata8"><rdf:RDF><cc:Work
         rdf:about=""><dc:format>image/svg+xml</dc:format><dc:type
           rdf:resource="http://purl.org/dc/dcmitype/StillImage" /></cc:Work></rdf:RDF></metadata><defs
     id="defs6"><clipPath
       id="clipPath18"
       clipPathUnits="userSpaceOnUse"><path
         id="path16"
         d="M 0,256 H 256 V 0 H 0 Z" /></clipPath><clipPath
       id="clipPath26"
       clipPathUnits="userSpaceOnUse"><path
         id="path24"
         d="M 10.1719,248 H 245.828 V 12 H 10.1719 Z" /></clipPath></defs><g
     transform="matrix(1.3333333,0,0,-1.3333333,-13.56263,330.66626)"
     id="g10"><g
       id="g12"><g
         clip-path="url(#clipPath18)"
         id="g14"><g
           id="g20"><g
             id="g22" /><g
             id="g34"><g
               style="opacity:0.5"
               id="g32"
               clip-path="url(#clipPath26)"><g
                 id="g30"
                 transform="translate(244.7109,45.4707)"><path
                   id="path28"
                   style="fill:#ffffff;fill-opacity:1;fill-rule:nonzero;stroke:none"
                   d="m 0,0 -0.042,0.14 -0.047,0.137 -17.347,51.012 c -0.358,1.153 -0.835,2.241 -1.415,3.253 1.361,2.352 2.14,5.08 2.14,7.987 v 106 c 0,5.316 -2.606,9.592 -7.748,12.71 -1.687,1.022 -3.513,1.884 -5.454,2.574 -5.783,5.628 -16.607,10.155 -32.242,13.476 -15.908,3.379 -35.992,5.24 -56.556,5.24 -22.101,0 -43.331,-2.115 -59.779,-5.957 -17.03,-3.978 -27.517,-9.319 -31.891,-16.269 -4.202,-3.018 -6.33,-6.971 -6.33,-11.774 v -106 c 0,-2.907 0.779,-5.635 2.14,-7.987 -0.579,-1.012 -1.057,-2.1 -1.415,-3.253 L -233.333,0.277 -233.38,0.14 -233.422,0 c -2.385,-7.951 -0.911,-16.331 4.044,-22.991 4.955,-6.66 12.558,-10.48 20.859,-10.48 h 183.616 c 8.3,0 15.904,3.82 20.859,10.48 C 0.911,-16.331 2.386,-7.951 0,0" /></g></g></g></g><g
           transform="translate(219.8076,20)"
           id="g36"><path
             id="path38"
             style="fill:#e6e6e6;fill-opacity:1;fill-rule:nonzero;stroke:none"
             d="m 0,0 h -183.615 c -12.057,0 -20.706,11.623 -17.241,23.172 l 17.386,51.127 c 1.015,3.384 4.13,5.701 7.662,5.701 h 168 c 3.534,0 6.648,-2.317 7.663,-5.701 L 17.24,23.172 C 20.705,11.623 12.058,0 0,0" /></g><g
           transform="translate(126,240)"
           id="g40"><path
             id="path42"
             style="fill:#e6e6e6;fill-opacity:1;fill-rule:nonzero;stroke:none"
             d="m 0,0 c -47.497,0 -86,-9.85 -86,-22 0,-5.443 7.743,-10.42 20.543,-14.261 -5.446,3.064 -8.543,6.554 -8.543,10.261 0,12.15 33.131,22 74,22 40.869,0 74,-9.85 74,-22 0,-3.707 -3.098,-7.197 -8.544,-10.261 C 78.257,-32.42 86,-27.443 86,-22 86,-9.85 47.496,0 0,0" /></g><g
           transform="translate(216.1035,219.8691)"
           id="g44"><path
             id="path46"
             style="fill:#16a085;fill-opacity:1;fill-rule:nonzero;stroke:none"
             d="m 0,0 c -2.441,1.48 -5.166,2.428 -7.976,2.939 -11.583,2.106 -39.381,5.192 -80.128,5.192 -40.746,0 -68.545,-3.086 -80.127,-5.192 -2.81,-0.511 -5.535,-1.459 -7.976,-2.939 -2.243,-1.361 -3.897,-3.029 -3.897,-5.869 v -106 c 0,-4.418 3.582,-8 8,-8 h 168 c 4.418,0 8,3.582 8,8 v 106 C 3.896,-3.029 2.243,-1.361 0,0" /></g><g
           transform="translate(44,213.3315)"
           id="g48"><path
             id="path50"
             style="fill:#1abf9f;fill-opacity:1;fill-rule:nonzero;stroke:none"
             d="m 0,0 v -97.332 c 0,-2.209 1.835,-4 4.1,-4 h 155.8 c 2.264,0 4.1,1.791 4.1,4 V -72 v 4 60 c 0,6.627 -5.507,12 -12.3,12 H 4.1 C 1.835,4 0,2.209 0,0" /></g><g
           transform="translate(198,116)"
           id="g52"><path
             id="path54"
             style="fill:#16a085;fill-opacity:1;fill-rule:nonzero;stroke:none"
             d="m 0,0 h -76 c -3.313,0 -6,2.687 -6,6 v 85.332 c 0,3.313 2.687,6 6,6 h 70 c 6.627,0 12,-5.374 12,-12 V 6 C 6,2.687 3.313,0 0,0" /></g><g
           transform="translate(150,208)"
           id="g56"><path
             id="path58"
             style="fill:#0e6654;fill-opacity:1;fill-rule:nonzero;stroke:none"
             d="m 0,0 c 0,-1.104 -0.896,-2 -2,-2 -1.104,0 -2,0.896 -2,2 0,1.104 0.896,2 2,2 1.104,0 2,-0.896 2,-2" /></g><g
           transform="translate(158,208)"
           id="g60"><path
             id="path62"
             style="fill:#0e6654;fill-opacity:1;fill-rule:nonzero;stroke:none"
             d="m 0,0 c 0,-1.104 -0.896,-2 -2,-2 -1.104,0 -2,0.896 -2,2 0,1.104 0.896,2 2,2 1.104,0 2,-0.896 2,-2" /></g><g
           transform="translate(166,208)"
           id="g64"><path
             id="path66"
             style="fill:#0e6654;fill-opacity:1;fill-rule:nonzero;stroke:none"
             d="m 0,0 c 0,-1.104 -0.896,-2 -2,-2 -1.104,0 -2,0.896 -2,2 0,1.104 0.896,2 2,2 1.104,0 2,-0.896 2,-2" /></g><g
           transform="translate(174,208)"
           id="g68"><path
             id="path70"
             style="fill:#0e6654;fill-opacity:1;fill-rule:nonzero;stroke:none"
             d="m 0,0 c 0,-1.104 -0.896,-2 -2,-2 -1.104,0 -2,0.896 -2,2 0,1.104 0.896,2 2,2 1.104,0 2,-0.896 2,-2" /></g><g
           transform="translate(182,208)"
           id="g72"><path
             id="path74"
             style="fill:#0e6654;fill-opacity:1;fill-rule:nonzero;stroke:none"
             d="m 0,0 c 0,-1.104 -0.896,-2 -2,-2 -1.104,0 -2,0.896 -2,2 0,1.104 0.896,2 2,2 1.104,0 2,-0.896 2,-2" /></g><g
           transform="translate(142,208)"
           id="g76"><path
             id="path78"
             style="fill:#0e6654;fill-opacity:1;fill-rule:nonzero;stroke:none"
             d="m 0,0 c 0,-1.104 -0.896,-2 -2,-2 -1.104,0 -2,0.896 -2,2 0,1.104 0.896,2 2,2 1.104,0 2,-0.896 2,-2" /></g><path
           id="path80"
           style="fill:#d9d9d9;fill-opacity:1;fill-rule:nonzero;stroke:none"
           d="M 192,96 H 64 v 12 h 128 z" /><path
           id="path82"
           style="fill:#e6e6e6;fill-opacity:1;fill-rule:nonzero;stroke:none"
           d="m 208,192 h -4 v 8 h 4 z" /><path
           id="path84"
           style="fill:#cccccc;fill-opacity:1;fill-rule:nonzero;stroke:none"
           d="m 204,192 h -8 v 8 h 8 z" /><path
           id="path86"
           style="fill:#0e6654;fill-opacity:1;fill-rule:nonzero;stroke:none"
           d="m 208,192 h 4 v 8 h -4 z" /><g
           transform="translate(212,120)"
           id="g88"><path
             id="path90"
             style="fill:#0e6654;fill-opacity:1;fill-rule:nonzero;stroke:none"
             d="m 0,0 v 0 c -2.2,0 -4,1.8 -4,4 v 52 c 0,2.2 1.8,4 4,4 2.2,0 4,-1.8 4,-4 V 4 C 4,1.8 2.2,0 0,0" /></g><g
           transform="translate(44,120)"
           id="g92"><path
             id="path94"
             style="fill:#0e6654;fill-opacity:1;fill-rule:nonzero;stroke:none"
             d="m 0,0 v 0 c -2.2,0 -4,1.8 -4,4 v 52 c 0,2.2 1.8,4 4,4 2.2,0 4,-1.8 4,-4 V 4 C 4,1.8 2.2,0 0,0" /></g><g
           transform="translate(104,200)"
           id="g96"><path
             id="path98"
             style="fill:#e6e6e6;fill-opacity:1;fill-rule:nonzero;stroke:none"
             d="m 0,0 h -48 c -2.2,0 -4,1.8 -4,4 0,2.2 1.8,4 4,4 H 0 C 2.2,8 4,6.2 4,4 4,1.8 2.2,0 0,0" /></g><g
           transform="translate(64,116)"
           id="g100"><path
             id="path102"
             style="fill:#e6e6e6;fill-opacity:1;fill-rule:nonzero;stroke:none"
             d="m 0,0 h -8 c -2.2,0 -4,1.8 -4,4 0,2.2 1.8,4 4,4 H 0 C 2.2,8 4,6.2 4,4 4,1.8 2.2,0 0,0" /></g><g
           transform="translate(216,108)"
           id="g104"><path
             id="path106"
             style="fill:#d9d9d9;fill-opacity:1;fill-rule:nonzero;stroke:none"
             d="m 0,0 c 0,-2.209 -1.791,-4 -4,-4 -2.209,0 -4,1.791 -4,4 0,2.209 1.791,4 4,4 2.209,0 4,-1.791 4,-4" /></g><g
           transform="translate(196,28)"
           id="g108"><path
             id="path110"
             style="fill:#4eb96f;fill-opacity:1;fill-rule:nonzero;stroke:none"
             d="m 0,0 h -136 l 16,64 h 104 z" /></g><g
           transform="translate(64,66)"
           id="g112"><path
             id="path114"
             style="fill:#ff0000;fill-opacity:1;fill-rule:nonzero;stroke:none"
             d="m 0,0 c 0,-5.522 -6.268,-10 -14,-10 -7.732,0 -14,4.478 -14,10 0,5.522 6.268,10 14,10 C -6.268,10 0,5.522 0,0" /></g><g
           transform="translate(46.8843,48)"
           id="g116"><path
             id="path118"
             style="fill:#d9d9d9;fill-opacity:1;fill-rule:nonzero;stroke:none"
             d="M 0,0 C 0.736,2.209 -0.458,4 -2.667,4 -4.876,4 -7.264,2.209 -8,0 c -0.102,-0.304 -0.513,-1.539 -0.667,-2 -0.368,-1.104 0.229,-2 1.334,-2 h 4 c 1.104,0 2.298,0.896 2.666,2 0.154,0.461 0.565,1.696 0.667,2" /></g><g
           transform="translate(33.5508,32)"
           id="g120"><path
             id="path122"
             style="fill:#f39b11;fill-opacity:1;fill-rule:nonzero;stroke:none"
             d="M 0,0 C -0.736,-2.209 0.458,-4 2.667,-4 4.876,-4 7.264,-2.209 8,0 8.102,0.304 8.513,1.539 8.667,2 9.035,3.104 8.438,4 7.333,4 h -4 C 2.229,4 1.035,3.104 0.667,2 0.513,1.539 0.102,0.304 0,0" /></g><g
           transform="translate(46.8843,36)"
           id="g124"><path
             id="path126"
             style="fill:#00b800;fill-opacity:1;fill-rule:nonzero;stroke:none"
             d="M 0,0 C 2.209,0 4.597,1.791 5.333,4 6.07,6.209 4.876,8 2.667,8 h -2 C -0.438,8 -1.632,7.104 -2,6 -2.368,4.896 -2.965,3.104 -3.333,2 -3.702,0.896 -3.104,0 -2,0 Z" /></g><g
           transform="translate(33.5508,44)"
           id="g128"><path
             id="path130"
             style="fill:#2c8bbf;fill-opacity:1;fill-rule:nonzero;stroke:none"
             d="m 0,0 c -2.209,0 -4.597,-1.791 -5.333,-4 -0.737,-2.209 0.457,-4 2.666,-4 h 2 C 0.438,-8 1.632,-7.104 2,-6 2.368,-4.896 2.965,-3.104 3.333,-2 3.702,-0.896 3.104,0 2,0 Z" /></g><g
           transform="translate(192,66)"
           id="g132"><path
             id="path134"
             style="fill:#ff0000;fill-opacity:1;fill-rule:nonzero;stroke:none"
             d="m 0,0 c 0,-5.522 6.268,-10 14,-10 7.732,0 14,4.478 14,10 C 28,5.522 21.732,10 14,10 6.268,10 0,5.522 0,0" /></g><g
           transform="translate(209.1162,48)"
           id="g136"><path
             id="path138"
             style="fill:#d9d9d9;fill-opacity:1;fill-rule:nonzero;stroke:none"
             d="M 0,0 C -0.736,2.209 0.457,4 2.666,4 4.875,4 7.264,2.209 8,0 8.101,-0.304 8.513,-1.539 8.666,-2 9.034,-3.104 8.438,-4 7.333,-4 h -4 C 2.229,-4 1.034,-3.104 0.666,-2 0.513,-1.539 0.101,-0.304 0,0" /></g><g
           transform="translate(222.4492,32)"
           id="g140"><path
             id="path142"
             style="fill:#f39b11;fill-opacity:1;fill-rule:nonzero;stroke:none"
             d="m 0,0 c 0.736,-2.209 -0.458,-4 -2.667,-4 -2.209,0 -4.597,1.791 -5.333,4 -0.102,0.304 -0.514,1.539 -0.667,2 -0.368,1.104 0.229,2 1.334,2 h 4 C -2.229,4 -1.035,3.104 -0.667,2 -0.514,1.539 -0.102,0.304 0,0" /></g><g
           transform="translate(209.1162,36)"
           id="g144"><path
             id="path146"
             style="fill:#00b800;fill-opacity:1;fill-rule:nonzero;stroke:none"
             d="m 0,0 c -2.21,0 -4.598,1.791 -5.334,4 -0.736,2.209 0.458,4 2.667,4 h 2 C 0.437,8 1.632,7.104 2,6 2.368,4.896 2.965,3.104 3.333,2 3.701,0.896 3.104,0 2,0 Z" /></g><g
           transform="translate(222.4492,44)"
           id="g148"><path
             id="path150"
             style="fill:#2c8bbf;fill-opacity:1;fill-rule:nonzero;stroke:none"
             d="M 0,0 C 2.209,0 4.597,-1.791 5.333,-4 6.069,-6.209 4.876,-8 2.667,-8 h -2 c -1.104,0 -2.299,0.896 -2.667,2 -0.368,1.104 -0.965,2.896 -1.333,4 -0.368,1.104 0.229,2 1.333,2 z" /></g></g></g></g></svg>