<svg xmlns="http://www.w3.org/2000/svg" xml:space="preserve" width="314.208" height="314.666" viewBox="0 0 314.208 314.666"><defs><clipPath id="a" clipPathUnits="userSpaceOnUse"><path d="M0 256h256V0H0Z"/></clipPath><clipPath id="b" clipPathUnits="userSpaceOnUse"><path d="M10.172 248h235.656V12H10.172Z"/></clipPath></defs><g clip-path="url(#a)" transform="matrix(1.33333 0 0 -1.33333 -13.563 330.666)"><g clip-path="url(#b)" style="opacity:.5"><path d="m0 0-.042.14-.047.137-17.347 51.012a16.2 16.2 0 0 1-1.415 3.253 15.9 15.9 0 0 1 2.14 7.987v106c0 5.316-2.606 9.592-7.748 12.71a29.7 29.7 0 0 1-5.454 2.574c-5.783 5.628-16.607 10.155-32.242 13.476-15.908 3.379-35.992 5.24-56.556 5.24-22.101 0-43.331-2.115-59.779-5.957-17.03-3.978-27.517-9.319-31.891-16.269-4.202-3.018-6.33-6.971-6.33-11.774v-106c0-2.907.779-5.635 2.14-7.987a16.3 16.3 0 0 1-1.415-3.253L-233.333.277l-.047-.137-.042-.14c-2.385-7.951-.911-16.331 4.044-22.991s12.558-10.48 20.859-10.48h183.616c8.3 0 15.904 3.82 20.859 10.48S2.386-7.951 0 0" style="fill:#fff;fill-opacity:1;fill-rule:nonzero;stroke:none" transform="translate(244.71 45.47)"/></g><path d="M0 0h-183.615c-12.057 0-20.706 11.623-17.241 23.172l17.386 51.127A8 8 0 0 0-175.808 80h168a8 8 0 0 0 7.663-5.701L17.24 23.172C20.705 11.623 12.058 0 0 0" style="fill:#e6e6e6;fill-opacity:1;fill-rule:nonzero;stroke:none" transform="translate(219.808 20)"/><path d="M0 0c-47.497 0-86-9.85-86-22 0-5.443 7.743-10.42 20.543-14.261C-70.903-33.197-74-29.707-74-26-74-13.85-40.869-4 0-4s74-9.85 74-22c0-3.707-3.098-7.197-8.544-10.261C78.257-32.42 86-27.443 86-22 86-9.85 47.496 0 0 0" style="fill:#e6e6e6;fill-opacity:1;fill-rule:nonzero;stroke:none" transform="translate(126 240)"/><path d="M0 0c-2.441 1.48-5.166 2.428-7.976 2.939-11.583 2.106-39.381 5.192-80.128 5.192s-68.545-3.086-80.127-5.192c-2.81-.511-5.535-1.459-7.976-2.939-2.243-1.361-3.897-3.029-3.897-5.869v-106a8 8 0 0 1 8-8h168a8 8 0 0 1 8 8v106C3.896-3.029 2.243-1.361 0 0" style="fill:#16a085;fill-opacity:1;fill-rule:nonzero;stroke:none" transform="translate(216.103 219.87)"/><path d="M0 0v-97.332c0-2.209 1.835-4 4.1-4h155.8c2.264 0 4.1 1.791 4.1 4V-8c0 6.627-5.507 12-12.3 12H4.1C1.835 4 0 2.209 0 0" style="fill:#1abf9f;fill-opacity:1;fill-rule:nonzero;stroke:none" transform="translate(44 213.332)"/><path d="M0 0h-76a6 6 0 0 0-6 6v85.332a6 6 0 0 0 6 6h70c6.627 0 12-5.374 12-12V6a6 6 0 0 0-6-6" style="fill:#16a085;fill-opacity:1;fill-rule:nonzero;stroke:none" transform="translate(198 116)"/><path d="M0 0a2 2 0 1 0-4.001.001A2 2 0 0 0 0 0" style="fill:#0e6654;fill-opacity:1;fill-rule:nonzero;stroke:none" transform="translate(150 208)"/><path d="M0 0a2 2 0 1 0-4.001.001A2 2 0 0 0 0 0" style="fill:#0e6654;fill-opacity:1;fill-rule:nonzero;stroke:none" transform="translate(158 208)"/><path d="M0 0a2 2 0 1 0-4.001.001A2 2 0 0 0 0 0" style="fill:#0e6654;fill-opacity:1;fill-rule:nonzero;stroke:none" transform="translate(166 208)"/><path d="M0 0a2 2 0 1 0-4.001.001A2 2 0 0 0 0 0" style="fill:#0e6654;fill-opacity:1;fill-rule:nonzero;stroke:none" transform="translate(174 208)"/><path d="M0 0a2 2 0 1 0-4.001.001A2 2 0 0 0 0 0" style="fill:#0e6654;fill-opacity:1;fill-rule:nonzero;stroke:none" transform="translate(182 208)"/><path d="M0 0a2 2 0 1 0-4.001.001A2 2 0 0 0 0 0" style="fill:#0e6654;fill-opacity:1;fill-rule:nonzero;stroke:none" transform="translate(142 208)"/><path d="M192 96H64v12h128z" style="fill:#d9d9d9;fill-opacity:1;fill-rule:nonzero;stroke:none"/><path d="M208 192h-4v8h4z" style="fill:#e6e6e6;fill-opacity:1;fill-rule:nonzero;stroke:none"/><path d="M204 192h-8v8h8z" style="fill:#ccc;fill-opacity:1;fill-rule:nonzero;stroke:none"/><path d="M208 192h4v8h-4z" style="fill:#0e6654;fill-opacity:1;fill-rule:nonzero;stroke:none"/><path d="M0 0c-2.2 0-4 1.8-4 4v52c0 2.2 1.8 4 4 4s4-1.8 4-4V4c0-2.2-1.8-4-4-4" style="fill:#0e6654;fill-opacity:1;fill-rule:nonzero;stroke:none" transform="translate(212 120)"/><path d="M0 0c-2.2 0-4 1.8-4 4v52c0 2.2 1.8 4 4 4s4-1.8 4-4V4c0-2.2-1.8-4-4-4" style="fill:#0e6654;fill-opacity:1;fill-rule:nonzero;stroke:none" transform="translate(44 120)"/><path d="M0 0h-48c-2.2 0-4 1.8-4 4s1.8 4 4 4H0c2.2 0 4-1.8 4-4S2.2 0 0 0" style="fill:#e6e6e6;fill-opacity:1;fill-rule:nonzero;stroke:none" transform="translate(104 200)"/><path d="M0 0h-8c-2.2 0-4 1.8-4 4s1.8 4 4 4h8c2.2 0 4-1.8 4-4S2.2 0 0 0" style="fill:#e6e6e6;fill-opacity:1;fill-rule:nonzero;stroke:none" transform="translate(64 116)"/><path d="M0 0a4 4 0 1 0-8 0 4 4 0 0 0 8 0" style="fill:#d9d9d9;fill-opacity:1;fill-rule:nonzero;stroke:none" transform="translate(216 108)"/><path d="M0 0h-136l16 64h104z" style="fill:#4eb96f;fill-opacity:1;fill-rule:nonzero;stroke:none" transform="translate(196 28)"/><path d="M0 0c0-5.522-6.268-10-14-10S-28-5.522-28 0s6.268 10 14 10S0 5.522 0 0" style="fill:red;fill-opacity:1;fill-rule:nonzero;stroke:none" transform="translate(64 66)"/><path d="M0 0c.736 2.209-.458 4-2.667 4S-7.264 2.209-8 0l-.667-2c-.368-1.104.229-2 1.334-2h4c1.104 0 2.298.896 2.666 2z" style="fill:#d9d9d9;fill-opacity:1;fill-rule:nonzero;stroke:none" transform="translate(46.884 48)"/><path d="M0 0c-.736-2.209.458-4 2.667-4S7.264-2.209 8 0l.667 2c.368 1.104-.229 2-1.334 2h-4C2.229 4 1.035 3.104.667 2z" style="fill:#f39b11;fill-opacity:1;fill-rule:nonzero;stroke:none" transform="translate(33.55 32)"/><path d="M0 0c2.209 0 4.597 1.791 5.333 4 .737 2.209-.457 4-2.666 4h-2C-.438 8-1.632 7.104-2 6l-1.333-4C-3.702.896-3.104 0-2 0Z" style="fill:#00b800;fill-opacity:1;fill-rule:nonzero;stroke:none" transform="translate(46.884 36)"/><path d="M0 0c-2.209 0-4.597-1.791-5.333-4-.737-2.209.457-4 2.666-4h2C.438-8 1.632-7.104 2-6l1.333 4C3.702-.896 3.104 0 2 0Z" style="fill:#2c8bbf;fill-opacity:1;fill-rule:nonzero;stroke:none" transform="translate(33.55 44)"/><path d="M0 0c0-5.522 6.268-10 14-10S28-5.522 28 0s-6.268 10-14 10S0 5.522 0 0" style="fill:red;fill-opacity:1;fill-rule:nonzero;stroke:none" transform="translate(192 66)"/><path d="M0 0c-.736 2.209.457 4 2.666 4S7.264 2.209 8 0l.666-2c.368-1.104-.228-2-1.333-2h-4C2.229-4 1.034-3.104.666-2z" style="fill:#d9d9d9;fill-opacity:1;fill-rule:nonzero;stroke:none" transform="translate(209.116 48)"/><path d="M0 0c.736-2.209-.458-4-2.667-4S-7.264-2.209-8 0l-.667 2c-.368 1.104.229 2 1.334 2h4c1.104 0 2.298-.896 2.666-2z" style="fill:#f39b11;fill-opacity:1;fill-rule:nonzero;stroke:none" transform="translate(222.45 32)"/><path d="M0 0c-2.21 0-4.598 1.791-5.334 4s.458 4 2.667 4h2C.437 8 1.632 7.104 2 6l1.333-4C3.701.896 3.104 0 2 0Z" style="fill:#00b800;fill-opacity:1;fill-rule:nonzero;stroke:none" transform="translate(209.116 36)"/><path d="M0 0c2.209 0 4.597-1.791 5.333-4s-.457-4-2.666-4h-2C-.437-8-1.632-7.104-2-6l-1.333 4C-3.701-.896-3.104 0-2 0z" style="fill:#2c8bbf;fill-opacity:1;fill-rule:nonzero;stroke:none" transform="translate(222.45 44)"/></g></svg>