<?xml version="1.0" encoding="UTF-8" standalone="no"?>
<svg
   xmlns:dc="http://purl.org/dc/elements/1.1/"
   xmlns:cc="http://creativecommons.org/ns#"
   xmlns:rdf="http://www.w3.org/1999/02/22-rdf-syntax-ns#"
   xmlns:svg="http://www.w3.org/2000/svg"
   xmlns="http://www.w3.org/2000/svg"
   viewBox="0 0 325.33291 213.33279"
   height="213.33279"
   width="325.33292"
   xml:space="preserve"
   id="svg2"
   version="1.1"><metadata
     id="metadata8"><rdf:RDF><cc:Work
         rdf:about=""><dc:format>image/svg+xml</dc:format><dc:type
           rdf:resource="http://purl.org/dc/dcmitype/StillImage" /></cc:Work></rdf:RDF></metadata><defs
     id="defs6"><clipPath
       id="clipPath18"
       clipPathUnits="userSpaceOnUse"><path
         id="path16"
         d="M 0,256 H 256 V 0 H 0 Z" /></clipPath><clipPath
       id="clipPath26"
       clipPathUnits="userSpaceOnUse"><path
         id="path24"
         d="M 6,208 H 250 V 48 H 6 Z" /></clipPath></defs><g
     transform="matrix(1.3333333,0,0,-1.3333333,-8.0003998,277.33333)"
     id="g10"><g
       id="g12"><g
         clip-path="url(#clipPath18)"
         id="g14"><g
           id="g20"><g
             id="g22" /><g
             id="g34"><g
               style="opacity:0.5"
               id="g32"
               clip-path="url(#clipPath26)"><g
                 id="g30"
                 transform="translate(244.5293,199.5894)"><path
                   id="path28"
                   style="fill:#ffffff;fill-opacity:1;fill-rule:nonzero;stroke:none"
                   d="m 0,0 -8.952,2.984 c -1.071,3.156 -4.06,5.427 -7.577,5.427 h -2 c -0.339,0 -0.672,-0.021 -1,-0.062 -0.328,0.041 -0.661,0.062 -1,0.062 h -2 c -0.339,0 -0.672,-0.021 -1,-0.062 -0.328,0.041 -0.661,0.062 -1,0.062 h -2 c -0.339,0 -0.672,-0.021 -1,-0.062 -0.328,0.041 -0.661,0.062 -1,0.062 h -2 c -0.339,0 -0.672,-0.021 -1,-0.062 -0.328,0.041 -0.661,0.062 -1,0.062 h -2 c -0.339,0 -0.672,-0.021 -1,-0.062 -0.328,0.041 -0.661,0.062 -1,0.062 h -2 c -0.339,0 -0.672,-0.021 -1,-0.062 -0.328,0.041 -0.661,0.062 -1,0.062 h -2 c -0.339,0 -0.672,-0.021 -1,-0.062 -0.328,0.041 -0.661,0.062 -1,0.062 h -2 c -0.339,0 -0.672,-0.021 -1,-0.062 -0.328,0.041 -0.661,0.062 -1,0.062 h -2 c -0.339,0 -0.672,-0.021 -1,-0.062 -0.328,0.041 -0.661,0.062 -1,0.062 h -2 c -0.339,0 -0.672,-0.021 -1,-0.062 -0.328,0.041 -0.661,0.062 -1,0.062 h -2 c -0.339,0 -0.672,-0.021 -1,-0.062 -0.328,0.041 -0.661,0.062 -1,0.062 h -2 c -0.339,0 -0.672,-0.021 -1,-0.062 -0.328,0.041 -0.661,0.062 -1,0.062 h -2 c -0.339,0 -0.672,-0.021 -1,-0.062 -0.328,0.041 -0.661,0.062 -1,0.062 h -2 c -0.339,0 -0.672,-0.021 -1,-0.062 -0.328,0.041 -0.661,0.062 -1,0.062 h -2 c -0.339,0 -0.672,-0.021 -1,-0.062 -0.328,0.041 -0.661,0.062 -1,0.062 h -2 c -0.339,0 -0.672,-0.021 -1,-0.062 -0.328,0.041 -0.661,0.062 -1,0.062 h -2 c -0.339,0 -0.672,-0.021 -1,-0.062 -0.328,0.041 -0.661,0.062 -1,0.062 h -2 c -0.339,0 -0.672,-0.021 -1,-0.062 -0.328,0.041 -0.661,0.062 -1,0.062 h -2 c -0.339,0 -0.672,-0.021 -1,-0.062 -0.328,0.041 -0.661,0.062 -1,0.062 h -2 c -0.339,0 -0.672,-0.021 -1,-0.062 -0.328,0.041 -0.661,0.062 -1,0.062 h -2 c -0.339,0 -0.672,-0.021 -1,-0.062 -0.328,0.041 -0.661,0.062 -1,0.062 h -2 c -0.339,0 -0.672,-0.021 -1,-0.062 -0.328,0.041 -0.661,0.062 -1,0.062 h -2 c -0.339,0 -0.672,-0.021 -1,-0.062 -0.328,0.041 -0.661,0.062 -1,0.062 h -2 c -0.339,0 -0.672,-0.021 -1,-0.062 -0.328,0.041 -0.661,0.062 -1,0.062 h -2 c -0.339,0 -0.672,-0.021 -1,-0.062 -0.328,0.041 -0.661,0.062 -1,0.062 h -2 c -0.339,0 -0.673,-0.021 -1,-0.062 -0.328,0.041 -0.661,0.062 -1,0.062 h -2 c -0.339,0 -0.673,-0.021 -1,-0.062 -0.328,0.041 -0.661,0.062 -1,0.062 h -2 c -0.339,0 -0.673,-0.021 -1,-0.062 -0.328,0.041 -0.661,0.062 -1,0.062 h -2 c -0.339,0 -0.673,-0.021 -1,-0.062 -0.328,0.041 -0.661,0.062 -1,0.062 h -2 c -0.339,0 -0.673,-0.021 -1,-0.062 -0.328,0.041 -0.661,0.062 -1,0.062 h -2 c -0.339,0 -0.673,-0.021 -1,-0.062 -0.328,0.041 -0.661,0.062 -1,0.062 h -2 c -0.339,0 -0.673,-0.021 -1,-0.062 -0.328,0.041 -0.661,0.062 -1,0.062 h -2 c -0.339,0 -0.673,-0.021 -1,-0.062 -0.328,0.041 -0.661,0.062 -1,0.062 h -2 c -0.339,0 -0.673,-0.021 -1,-0.062 -0.328,0.041 -0.661,0.062 -1,0.062 h -2 c -0.339,0 -0.673,-0.021 -1,-0.062 -0.328,0.041 -0.661,0.062 -1,0.062 h -2 c -0.339,0 -0.673,-0.021 -1,-0.062 -0.328,0.041 -0.661,0.062 -1,0.062 h -2 c -0.339,0 -0.673,-0.021 -1,-0.062 -0.328,0.041 -0.661,0.062 -1,0.062 h -2 c -0.339,0 -0.673,-0.021 -1,-0.062 -0.328,0.041 -0.661,0.062 -1,0.062 h -2 c -0.339,0 -0.673,-0.021 -1,-0.062 -0.328,0.041 -0.661,0.062 -1,0.062 h -2 c -0.339,0 -0.673,-0.021 -1,-0.062 -0.328,0.041 -0.661,0.062 -1,0.062 h -2 c -0.339,0 -0.673,-0.021 -1,-0.062 -0.328,0.041 -0.661,0.062 -1,0.062 h -2 c -0.339,0 -0.673,-0.021 -1,-0.062 -0.328,0.041 -0.661,0.062 -1,0.062 h -2 c -0.339,0 -0.673,-0.021 -1,-0.062 -0.328,0.041 -0.661,0.062 -1,0.062 h -2 c -0.339,0 -0.673,-0.021 -1,-0.062 -0.328,0.041 -0.661,0.062 -1,0.062 h -2 c -0.339,0 -0.673,-0.021 -1,-0.062 -0.328,0.041 -0.661,0.062 -1,0.062 h -2 c -0.339,0 -0.673,-0.021 -1,-0.062 -0.328,0.041 -0.661,0.062 -1,0.062 h -2 c -0.339,0 -0.673,-0.021 -1,-0.062 -0.328,0.041 -0.661,0.062 -1,0.062 h -2 c -0.339,0 -0.673,-0.021 -1,-0.062 -0.328,0.041 -0.661,0.062 -1,0.062 h -2 c -0.339,0 -0.673,-0.021 -1,-0.062 -0.328,0.041 -0.661,0.062 -1,0.062 h -2 c -3.225,0 -6.005,-1.909 -7.271,-4.658 L -233.059,0 c -3.267,-1.089 -5.47,-4.146 -5.47,-7.589 v -48 -88 c 0,-4.418 3.581,-8 8,-8 h 228 c 4.418,0 8,3.582 8,8 v 88 48 C 5.471,-4.146 3.268,-1.089 0,0" /></g></g></g></g></g></g><g
       transform="translate(228,196)"
       id="g36"><path
         id="path38"
         style="fill:#262626;fill-opacity:1;fill-rule:nonzero;stroke:none"
         d="m 0,0 v -4 h -204 v 4 l -12,-4 v -48 -88 H 12 v 88 48 z" /></g><path
       id="path40"
       style="fill:#191919;fill-opacity:1;fill-rule:nonzero;stroke:none"
       d="M 236,64 H 16 v 80 h 220 z" /><path
       id="path42"
       style="fill:#333333;fill-opacity:1;fill-rule:nonzero;stroke:none"
       d="M 236,68 H 16 v 76 h 220 z" /><g
       transform="translate(24,144)"
       id="g44"><path
         id="path46"
         style="fill:#b3b3b3;fill-opacity:1;fill-rule:nonzero;stroke:none"
         d="m 0,0 v -60 h 44 v -8 h 116 v 8 h 20 v 16 h 16 v 12 h 12 V 0 Z" /></g><path
       id="path48"
       style="fill:#333333;fill-opacity:1;fill-rule:nonzero;stroke:none"
       d="M 228,156 H 24 v 36 h 204 z" /><path
       id="path50"
       style="fill:#191919;fill-opacity:1;fill-rule:nonzero;stroke:none"
       d="M 224,168 H 28 v 28 h 196 z" /><path
       id="path52"
       style="fill:#262626;fill-opacity:1;fill-rule:nonzero;stroke:none"
       d="m 30,172 h -2 v 28 h 2 z" /><path
       id="path54"
       style="fill:#262626;fill-opacity:1;fill-rule:nonzero;stroke:none"
       d="m 34,172 h -2 v 28 h 2 z" /><path
       id="path56"
       style="fill:#262626;fill-opacity:1;fill-rule:nonzero;stroke:none"
       d="m 38,172 h -2 v 28 h 2 z" /><path
       id="path58"
       style="fill:#262626;fill-opacity:1;fill-rule:nonzero;stroke:none"
       d="m 42,172 h -2 v 28 h 2 z" /><path
       id="path60"
       style="fill:#262626;fill-opacity:1;fill-rule:nonzero;stroke:none"
       d="m 46,172 h -2 v 28 h 2 z" /><path
       id="path62"
       style="fill:#262626;fill-opacity:1;fill-rule:nonzero;stroke:none"
       d="m 50,172 h -2 v 28 h 2 z" /><path
       id="path64"
       style="fill:#262626;fill-opacity:1;fill-rule:nonzero;stroke:none"
       d="m 54,172 h -2 v 28 h 2 z" /><path
       id="path66"
       style="fill:#262626;fill-opacity:1;fill-rule:nonzero;stroke:none"
       d="m 58,172 h -2 v 28 h 2 z" /><path
       id="path68"
       style="fill:#262626;fill-opacity:1;fill-rule:nonzero;stroke:none"
       d="m 62,172 h -2 v 28 h 2 z" /><path
       id="path70"
       style="fill:#262626;fill-opacity:1;fill-rule:nonzero;stroke:none"
       d="m 66,172 h -2 v 28 h 2 z" /><path
       id="path72"
       style="fill:#262626;fill-opacity:1;fill-rule:nonzero;stroke:none"
       d="m 70,172 h -2 v 28 h 2 z" /><path
       id="path74"
       style="fill:#262626;fill-opacity:1;fill-rule:nonzero;stroke:none"
       d="m 74,172 h -2 v 28 h 2 z" /><path
       id="path76"
       style="fill:#262626;fill-opacity:1;fill-rule:nonzero;stroke:none"
       d="m 78,172 h -2 v 28 h 2 z" /><path
       id="path78"
       style="fill:#262626;fill-opacity:1;fill-rule:nonzero;stroke:none"
       d="m 82,172 h -2 v 28 h 2 z" /><path
       id="path80"
       style="fill:#262626;fill-opacity:1;fill-rule:nonzero;stroke:none"
       d="m 86,172 h -2 v 28 h 2 z" /><path
       id="path82"
       style="fill:#262626;fill-opacity:1;fill-rule:nonzero;stroke:none"
       d="m 90,172 h -2 v 28 h 2 z" /><path
       id="path84"
       style="fill:#262626;fill-opacity:1;fill-rule:nonzero;stroke:none"
       d="m 94,172 h -2 v 28 h 2 z" /><path
       id="path86"
       style="fill:#262626;fill-opacity:1;fill-rule:nonzero;stroke:none"
       d="m 98,172 h -2 v 28 h 2 z" /><path
       id="path88"
       style="fill:#262626;fill-opacity:1;fill-rule:nonzero;stroke:none"
       d="m 102,172 h -2 v 28 h 2 z" /><path
       id="path90"
       style="fill:#262626;fill-opacity:1;fill-rule:nonzero;stroke:none"
       d="m 106,172 h -2 v 28 h 2 z" /><path
       id="path92"
       style="fill:#262626;fill-opacity:1;fill-rule:nonzero;stroke:none"
       d="m 110,172 h -2 v 28 h 2 z" /><path
       id="path94"
       style="fill:#262626;fill-opacity:1;fill-rule:nonzero;stroke:none"
       d="m 114,172 h -2 v 28 h 2 z" /><path
       id="path96"
       style="fill:#262626;fill-opacity:1;fill-rule:nonzero;stroke:none"
       d="m 118,172 h -2 v 28 h 2 z" /><path
       id="path98"
       style="fill:#262626;fill-opacity:1;fill-rule:nonzero;stroke:none"
       d="m 122,172 h -2 v 28 h 2 z" /><path
       id="path100"
       style="fill:#262626;fill-opacity:1;fill-rule:nonzero;stroke:none"
       d="m 126,172 h -2 v 28 h 2 z" /><path
       id="path102"
       style="fill:#262626;fill-opacity:1;fill-rule:nonzero;stroke:none"
       d="m 130,172 h -2 v 28 h 2 z" /><path
       id="path104"
       style="fill:#262626;fill-opacity:1;fill-rule:nonzero;stroke:none"
       d="m 134,172 h -2 v 28 h 2 z" /><path
       id="path106"
       style="fill:#262626;fill-opacity:1;fill-rule:nonzero;stroke:none"
       d="m 138,172 h -2 v 28 h 2 z" /><path
       id="path108"
       style="fill:#262626;fill-opacity:1;fill-rule:nonzero;stroke:none"
       d="m 142,172 h -2 v 28 h 2 z" /><path
       id="path110"
       style="fill:#262626;fill-opacity:1;fill-rule:nonzero;stroke:none"
       d="m 146,172 h -2 v 28 h 2 z" /><path
       id="path112"
       style="fill:#262626;fill-opacity:1;fill-rule:nonzero;stroke:none"
       d="m 150,172 h -2 v 28 h 2 z" /><path
       id="path114"
       style="fill:#262626;fill-opacity:1;fill-rule:nonzero;stroke:none"
       d="m 154,172 h -2 v 28 h 2 z" /><path
       id="path116"
       style="fill:#262626;fill-opacity:1;fill-rule:nonzero;stroke:none"
       d="m 158,172 h -2 v 28 h 2 z" /><path
       id="path118"
       style="fill:#262626;fill-opacity:1;fill-rule:nonzero;stroke:none"
       d="m 162,172 h -2 v 28 h 2 z" /><path
       id="path120"
       style="fill:#262626;fill-opacity:1;fill-rule:nonzero;stroke:none"
       d="m 166,172 h -2 v 28 h 2 z" /><path
       id="path122"
       style="fill:#262626;fill-opacity:1;fill-rule:nonzero;stroke:none"
       d="m 170,172 h -2 v 28 h 2 z" /><path
       id="path124"
       style="fill:#262626;fill-opacity:1;fill-rule:nonzero;stroke:none"
       d="m 174,172 h -2 v 28 h 2 z" /><path
       id="path126"
       style="fill:#262626;fill-opacity:1;fill-rule:nonzero;stroke:none"
       d="m 178,172 h -2 v 28 h 2 z" /><path
       id="path128"
       style="fill:#262626;fill-opacity:1;fill-rule:nonzero;stroke:none"
       d="m 182,172 h -2 v 28 h 2 z" /><path
       id="path130"
       style="fill:#262626;fill-opacity:1;fill-rule:nonzero;stroke:none"
       d="m 186,172 h -2 v 28 h 2 z" /><path
       id="path132"
       style="fill:#262626;fill-opacity:1;fill-rule:nonzero;stroke:none"
       d="m 190,172 h -2 v 28 h 2 z" /><path
       id="path134"
       style="fill:#262626;fill-opacity:1;fill-rule:nonzero;stroke:none"
       d="m 194,172 h -2 v 28 h 2 z" /><path
       id="path136"
       style="fill:#262626;fill-opacity:1;fill-rule:nonzero;stroke:none"
       d="m 198,172 h -2 v 28 h 2 z" /><path
       id="path138"
       style="fill:#262626;fill-opacity:1;fill-rule:nonzero;stroke:none"
       d="m 202,172 h -2 v 28 h 2 z" /><path
       id="path140"
       style="fill:#262626;fill-opacity:1;fill-rule:nonzero;stroke:none"
       d="m 206,172 h -2 v 28 h 2 z" /><path
       id="path142"
       style="fill:#262626;fill-opacity:1;fill-rule:nonzero;stroke:none"
       d="m 210,172 h -2 v 28 h 2 z" /><path
       id="path144"
       style="fill:#262626;fill-opacity:1;fill-rule:nonzero;stroke:none"
       d="m 214,172 h -2 v 28 h 2 z" /><path
       id="path146"
       style="fill:#262626;fill-opacity:1;fill-rule:nonzero;stroke:none"
       d="m 218,172 h -2 v 28 h 2 z" /><path
       id="path148"
       style="fill:#262626;fill-opacity:1;fill-rule:nonzero;stroke:none"
       d="m 222,172 h -2 v 28 h 2 z" /><path
       id="path150"
       style="fill:#262626;fill-opacity:1;fill-rule:nonzero;stroke:none"
       d="m 226,172 h -2 v 28 h 2 z" /><g
       transform="translate(16,144)"
       id="g152"><path
         id="path154"
         style="fill:#191919;fill-opacity:1;fill-rule:nonzero;stroke:none"
         d="M 0,0 8,12 H 212 L 220,0 Z" /></g><path
       id="path156"
       style="fill:#cccccc;fill-opacity:1;fill-rule:nonzero;stroke:none"
       d="M 36,132 H 24 v 12 h 12 z" /><path
       id="path158"
       style="fill:#cccccc;fill-opacity:1;fill-rule:nonzero;stroke:none"
       d="M 52,132 H 40 v 12 h 12 z" /><path
       id="path160"
       style="fill:#cccccc;fill-opacity:1;fill-rule:nonzero;stroke:none"
       d="M 68,132 H 56 v 12 h 12 z" /><path
       id="path162"
       style="fill:#cccccc;fill-opacity:1;fill-rule:nonzero;stroke:none"
       d="M 84,132 H 72 v 12 h 12 z" /><path
       id="path164"
       style="fill:#cccccc;fill-opacity:1;fill-rule:nonzero;stroke:none"
       d="M 100,132 H 88 v 12 h 12 z" /><path
       id="path166"
       style="fill:#cccccc;fill-opacity:1;fill-rule:nonzero;stroke:none"
       d="m 116,132 h -12 v 12 h 12 z" /><path
       id="path168"
       style="fill:#cccccc;fill-opacity:1;fill-rule:nonzero;stroke:none"
       d="m 132,132 h -12 v 12 h 12 z" /><path
       id="path170"
       style="fill:#cccccc;fill-opacity:1;fill-rule:nonzero;stroke:none"
       d="m 148,132 h -12 v 12 h 12 z" /><path
       id="path172"
       style="fill:#cccccc;fill-opacity:1;fill-rule:nonzero;stroke:none"
       d="m 164,132 h -12 v 12 h 12 z" /><path
       id="path174"
       style="fill:#cccccc;fill-opacity:1;fill-rule:nonzero;stroke:none"
       d="m 180,132 h -12 v 12 h 12 z" /><path
       id="path176"
       style="fill:#cccccc;fill-opacity:1;fill-rule:nonzero;stroke:none"
       d="m 196,132 h -12 v 12 h 12 z" /><path
       id="path178"
       style="fill:#cccccc;fill-opacity:1;fill-rule:nonzero;stroke:none"
       d="m 212,132 h -12 v 12 h 12 z" /><path
       id="path180"
       style="fill:#cccccc;fill-opacity:1;fill-rule:nonzero;stroke:none"
       d="m 228,132 h -12 v 12 h 12 z" /><path
       id="path182"
       style="fill:#cccccc;fill-opacity:1;fill-rule:nonzero;stroke:none"
       d="M 36,100 H 24 v 12 h 12 z" /><path
       id="path184"
       style="fill:#cccccc;fill-opacity:1;fill-rule:nonzero;stroke:none"
       d="M 36,84 H 24 v 12 h 12 z" /><path
       id="path186"
       style="fill:#cccccc;fill-opacity:1;fill-rule:nonzero;stroke:none"
       d="M 52,100 H 40 v 12 h 12 z" /><path
       id="path188"
       style="fill:#cccccc;fill-opacity:1;fill-rule:nonzero;stroke:none"
       d="M 68,100 H 56 v 12 h 12 z" /><path
       id="path190"
       style="fill:#cccccc;fill-opacity:1;fill-rule:nonzero;stroke:none"
       d="M 84,100 H 72 v 12 h 12 z" /><path
       id="path192"
       style="fill:#cccccc;fill-opacity:1;fill-rule:nonzero;stroke:none"
       d="M 100,100 H 88 v 12 h 12 z" /><path
       id="path194"
       style="fill:#cccccc;fill-opacity:1;fill-rule:nonzero;stroke:none"
       d="m 116,100 h -12 v 12 h 12 z" /><path
       id="path196"
       style="fill:#cccccc;fill-opacity:1;fill-rule:nonzero;stroke:none"
       d="m 132,100 h -12 v 12 h 12 z" /><path
       id="path198"
       style="fill:#cccccc;fill-opacity:1;fill-rule:nonzero;stroke:none"
       d="m 148,100 h -12 v 12 h 12 z" /><path
       id="path200"
       style="fill:#cccccc;fill-opacity:1;fill-rule:nonzero;stroke:none"
       d="m 164,100 h -12 v 12 h 12 z" /><path
       id="path202"
       style="fill:#cccccc;fill-opacity:1;fill-rule:nonzero;stroke:none"
       d="m 180,100 h -12 v 12 h 12 z" /><path
       id="path204"
       style="fill:#cccccc;fill-opacity:1;fill-rule:nonzero;stroke:none"
       d="m 196,100 h -12 v 12 h 12 z" /><path
       id="path206"
       style="fill:#cccccc;fill-opacity:1;fill-rule:nonzero;stroke:none"
       d="m 220,100 h -20 v 12 h 20 z" /><path
       id="path208"
       style="fill:#cccccc;fill-opacity:1;fill-rule:nonzero;stroke:none"
       d="M 40,116 H 24 v 12 h 16 z" /><path
       id="path210"
       style="fill:#cccccc;fill-opacity:1;fill-rule:nonzero;stroke:none"
       d="M 56,116 H 44 v 12 h 12 z" /><path
       id="path212"
       style="fill:#cccccc;fill-opacity:1;fill-rule:nonzero;stroke:none"
       d="M 72,116 H 60 v 12 h 12 z" /><path
       id="path214"
       style="fill:#cccccc;fill-opacity:1;fill-rule:nonzero;stroke:none"
       d="M 88,116 H 76 v 12 h 12 z" /><path
       id="path216"
       style="fill:#cccccc;fill-opacity:1;fill-rule:nonzero;stroke:none"
       d="M 104,116 H 92 v 12 h 12 z" /><path
       id="path218"
       style="fill:#cccccc;fill-opacity:1;fill-rule:nonzero;stroke:none"
       d="m 120,116 h -12 v 12 h 12 z" /><path
       id="path220"
       style="fill:#cccccc;fill-opacity:1;fill-rule:nonzero;stroke:none"
       d="m 136,116 h -12 v 12 h 12 z" /><path
       id="path222"
       style="fill:#cccccc;fill-opacity:1;fill-rule:nonzero;stroke:none"
       d="m 152,116 h -12 v 12 h 12 z" /><path
       id="path224"
       style="fill:#cccccc;fill-opacity:1;fill-rule:nonzero;stroke:none"
       d="m 168,116 h -12 v 12 h 12 z" /><path
       id="path226"
       style="fill:#cccccc;fill-opacity:1;fill-rule:nonzero;stroke:none"
       d="m 184,116 h -12 v 12 h 12 z" /><path
       id="path228"
       style="fill:#cccccc;fill-opacity:1;fill-rule:nonzero;stroke:none"
       d="m 200,116 h -12 v 12 h 12 z" /><path
       id="path230"
       style="fill:#cccccc;fill-opacity:1;fill-rule:nonzero;stroke:none"
       d="M 56,84 H 40 v 12 h 16 z" /><path
       id="path232"
       style="fill:#cccccc;fill-opacity:1;fill-rule:nonzero;stroke:none"
       d="M 72,84 H 60 v 12 h 12 z" /><path
       id="path234"
       style="fill:#cccccc;fill-opacity:1;fill-rule:nonzero;stroke:none"
       d="M 88,84 H 76 v 12 h 12 z" /><path
       id="path236"
       style="fill:#cccccc;fill-opacity:1;fill-rule:nonzero;stroke:none"
       d="M 104,84 H 92 v 12 h 12 z" /><path
       id="path238"
       style="fill:#cccccc;fill-opacity:1;fill-rule:nonzero;stroke:none"
       d="m 120,84 h -12 v 12 h 12 z" /><path
       id="path240"
       style="fill:#cccccc;fill-opacity:1;fill-rule:nonzero;stroke:none"
       d="m 136,84 h -12 v 12 h 12 z" /><path
       id="path242"
       style="fill:#cccccc;fill-opacity:1;fill-rule:nonzero;stroke:none"
       d="m 152,84 h -12 v 12 h 12 z" /><path
       id="path244"
       style="fill:#cccccc;fill-opacity:1;fill-rule:nonzero;stroke:none"
       d="m 168,84 h -12 v 12 h 12 z" /><path
       id="path246"
       style="fill:#cccccc;fill-opacity:1;fill-rule:nonzero;stroke:none"
       d="m 184,84 h -12 v 12 h 12 z" /><path
       id="path248"
       style="fill:#cccccc;fill-opacity:1;fill-rule:nonzero;stroke:none"
       d="m 204,84 h -16 v 12 h 16 z" /><path
       id="path250"
       style="fill:#cccccc;fill-opacity:1;fill-rule:nonzero;stroke:none"
       d="m 216,116 h -12 v 12 h 12 z" /><path
       id="path252"
       style="fill:#cccccc;fill-opacity:1;fill-rule:nonzero;stroke:none"
       d="m 232,116 h -12 v 12 h 12 z" /><path
       id="path254"
       style="fill:#cccccc;fill-opacity:1;fill-rule:nonzero;stroke:none"
       d="M 184,68 H 68 v 12 h 116 z" /><path
       id="path256"
       style="fill:#404040;fill-opacity:1;fill-rule:nonzero;stroke:none"
       d="M 60,148 H 36 v 4 h 24 z" /><path
       id="path258"
       style="fill:#404040;fill-opacity:1;fill-rule:nonzero;stroke:none"
       d="M 88,148 H 64 v 4 h 24 z" /><path
       id="path260"
       style="fill:#404040;fill-opacity:1;fill-rule:nonzero;stroke:none"
       d="M 116,148 H 92 v 4 h 24 z" /><path
       id="path262"
       style="fill:#404040;fill-opacity:1;fill-rule:nonzero;stroke:none"
       d="m 144,148 h -24 v 4 h 24 z" /><g
       transform="translate(227.5352,93.4141)"
       id="g264"><path
         id="path266"
         style="fill:#bfbfbf;fill-opacity:1;fill-rule:nonzero;stroke:none"
         d="M 0,0 -5.535,5.535 -11.07,0 l 1.414,-1.414 3.121,3.121 v -7.121 h 2 v 7.121 l 3.121,-3.121 z" /></g><g
       transform="translate(216.4648,78.5859)"
       id="g268"><path
         id="path270"
         style="fill:#bfbfbf;fill-opacity:1;fill-rule:nonzero;stroke:none"
         d="M 0,0 5.535,-5.535 11.07,0 9.656,1.414 6.535,-1.707 v 7.121 h -2 V -1.707 L 1.414,1.414 Z" /></g><g
       transform="translate(229.4141,80.4648)"
       id="g272"><path
         id="path274"
         style="fill:#bfbfbf;fill-opacity:1;fill-rule:nonzero;stroke:none"
         d="M 0,0 5.535,5.535 0,11.07 -1.414,9.656 1.707,6.535 h -7.121 v -2 H 1.707 L -1.414,1.414 Z" /></g><g
       transform="translate(214.5859,91.5352)"
       id="g276"><path
         id="path278"
         style="fill:#bfbfbf;fill-opacity:1;fill-rule:nonzero;stroke:none"
         d="M 0,0 -5.535,-5.535 0,-11.07 l 1.414,1.414 -3.121,3.121 h 7.121 v 2 h -7.121 l 3.121,3.121 z" /></g><path
       id="path280"
       style="fill:#262626;fill-opacity:1;fill-rule:nonzero;stroke:none"
       d="M 144,160 H 36 v 4 h 108 z" /></g></svg>