<svg xmlns="http://www.w3.org/2000/svg" xml:space="preserve" width="325.333" height="213.333" viewBox="0 0 325.333 213.333"><defs><clipPath id="a" clipPathUnits="userSpaceOnUse"><path d="M0 256h256V0H0Z"/></clipPath><clipPath id="b" clipPathUnits="userSpaceOnUse"><path d="M6 208h244V48H6Z"/></clipPath></defs><g clip-path="url(#a)" transform="matrix(1.33333 0 0 -1.33333 -8 277.333)"><g clip-path="url(#b)" style="opacity:.5"><path d="m0 0-8.952 2.984a8 8 0 0 1-7.577 5.427h-2a8 8 0 0 1-1-.062 8 8 0 0 1-1 .062h-2a8 8 0 0 1-1-.062 8 8 0 0 1-1 .062h-2a8 8 0 0 1-1-.062 8 8 0 0 1-1 .062h-2a8 8 0 0 1-1-.062 8 8 0 0 1-1 .062h-2a8 8 0 0 1-1-.062 8 8 0 0 1-1 .062h-2a8 8 0 0 1-1-.062 8 8 0 0 1-1 .062h-2a8 8 0 0 1-1-.062 8 8 0 0 1-1 .062h-2a8 8 0 0 1-1-.062 8 8 0 0 1-1 .062h-2a8 8 0 0 1-1-.062 8 8 0 0 1-1 .062h-2a8 8 0 0 1-1-.062 8 8 0 0 1-1 .062h-2a8 8 0 0 1-1-.062 8 8 0 0 1-1 .062h-2a8 8 0 0 1-1-.062 8 8 0 0 1-1 .062h-2a8 8 0 0 1-1-.062 8 8 0 0 1-1 .062h-2a8 8 0 0 1-1-.062 8 8 0 0 1-1 .062h-2a8 8 0 0 1-1-.062 8 8 0 0 1-1 .062h-2a8 8 0 0 1-1-.062 8 8 0 0 1-1 .062h-2a8 8 0 0 1-1-.062 8 8 0 0 1-1 .062h-2a8 8 0 0 1-1-.062 8 8 0 0 1-1 .062h-2a8 8 0 0 1-1-.062 8 8 0 0 1-1 .062h-2a8 8 0 0 1-1-.062 8 8 0 0 1-1 .062h-2a8 8 0 0 1-1-.062 8 8 0 0 1-1 .062h-2a8 8 0 0 1-1-.062 8 8 0 0 1-1 .062h-2a8 8 0 0 1-1-.062 8 8 0 0 1-1 .062h-2a8 8 0 0 1-1-.062 8 8 0 0 1-1 .062h-2a8 8 0 0 1-1-.062 8 8 0 0 1-1 .062h-2q-.509 0-1-.062a8 8 0 0 1-1 .062h-2q-.509 0-1-.062a8 8 0 0 1-1 .062h-2q-.509 0-1-.062a8 8 0 0 1-1 .062h-2q-.509 0-1-.062a8 8 0 0 1-1 .062h-2q-.509 0-1-.062a8 8 0 0 1-1 .062h-2q-.509 0-1-.062a8 8 0 0 1-1 .062h-2q-.509 0-1-.062a8 8 0 0 1-1 .062h-2q-.509 0-1-.062a8 8 0 0 1-1 .062h-2q-.509 0-1-.062a8 8 0 0 1-1 .062h-2q-.509 0-1-.062a8 8 0 0 1-1 .062h-2q-.509 0-1-.062a8 8 0 0 1-1 .062h-2q-.509 0-1-.062a8 8 0 0 1-1 .062h-2q-.509 0-1-.062a8 8 0 0 1-1 .062h-2q-.509 0-1-.062a8 8 0 0 1-1 .062h-2q-.509 0-1-.062a8 8 0 0 1-1 .062h-2q-.509 0-1-.062a8 8 0 0 1-1 .062h-2q-.509 0-1-.062a8 8 0 0 1-1 .062h-2q-.509 0-1-.062a8 8 0 0 1-1 .062h-2q-.509 0-1-.062a8 8 0 0 1-1 .062h-2q-.509 0-1-.062a8 8 0 0 1-1 .062h-2q-.509 0-1-.062a8 8 0 0 1-1 .062h-2q-.509 0-1-.062a8 8 0 0 1-1 .062h-2q-.509 0-1-.062a8 8 0 0 1-1 .062h-2q-.509 0-1-.062a8 8 0 0 1-1 .062h-2a8 8 0 0 1-7.271-4.658L-233.059 0a8 8 0 0 1-5.47-7.589v-136a8 8 0 0 1 8-8h228a8 8 0 0 1 8 8v136C5.471-4.146 3.268-1.089 0 0" style="fill:#fff;fill-opacity:1;fill-rule:nonzero;stroke:none" transform="translate(244.53 199.59)"/></g></g><path d="M0 0v-4h-204v4l-12-4v-136H12V-4z" style="fill:#262626;fill-opacity:1;fill-rule:nonzero;stroke:none" transform="matrix(1.33333 0 0 -1.33333 296 16)"/><path d="M236 64H16v80h220z" style="fill:#191919;fill-opacity:1;fill-rule:nonzero;stroke:none" transform="matrix(1.33333 0 0 -1.33333 -8 277.333)"/><path d="M236 68H16v76h220z" style="fill:#333;fill-opacity:1;fill-rule:nonzero;stroke:none" transform="matrix(1.33333 0 0 -1.33333 -8 277.333)"/><path d="M0 0v-60h44v-8h116v8h20v16h16v12h12V0Z" style="fill:#b3b3b3;fill-opacity:1;fill-rule:nonzero;stroke:none" transform="matrix(1.33333 0 0 -1.33333 24 85.333)"/><path d="M228 156H24v36h204z" style="fill:#333;fill-opacity:1;fill-rule:nonzero;stroke:none" transform="matrix(1.33333 0 0 -1.33333 -8 277.333)"/><path d="M224 168H28v28h196z" style="fill:#191919;fill-opacity:1;fill-rule:nonzero;stroke:none" transform="matrix(1.33333 0 0 -1.33333 -8 277.333)"/><path d="M30 172h-2v28h2zm4 0h-2v28h2zm4 0h-2v28h2zm4 0h-2v28h2zm4 0h-2v28h2zm4 0h-2v28h2zm4 0h-2v28h2zm4 0h-2v28h2zm4 0h-2v28h2zm4 0h-2v28h2zm4 0h-2v28h2zm4 0h-2v28h2zm4 0h-2v28h2zm4 0h-2v28h2zm4 0h-2v28h2zm4 0h-2v28h2zm4 0h-2v28h2zm4 0h-2v28h2zm4 0h-2v28h2zm4 0h-2v28h2zm4 0h-2v28h2zm4 0h-2v28h2zm4 0h-2v28h2zm4 0h-2v28h2zm4 0h-2v28h2zm4 0h-2v28h2zm4 0h-2v28h2zm4 0h-2v28h2zm4 0h-2v28h2zm4 0h-2v28h2zm4 0h-2v28h2zm4 0h-2v28h2zm4 0h-2v28h2zm4 0h-2v28h2zm4 0h-2v28h2zm4 0h-2v28h2zm4 0h-2v28h2zm4 0h-2v28h2zm4 0h-2v28h2zm4 0h-2v28h2zm4 0h-2v28h2zm4 0h-2v28h2zm4 0h-2v28h2zm4 0h-2v28h2zm4 0h-2v28h2zm4 0h-2v28h2zm4 0h-2v28h2zm4 0h-2v28h2zm4 0h-2v28h2zm4 0h-2v28h2z" style="fill:#262626;fill-opacity:1;fill-rule:nonzero;stroke:none" transform="matrix(1.33333 0 0 -1.33333 -8 277.333)"/><path d="m0 0 8 12h204l8-12Z" style="fill:#191919;fill-opacity:1;fill-rule:nonzero;stroke:none" transform="matrix(1.33333 0 0 -1.33333 13.333 85.333)"/><path d="M36 132H24v12h12zm16 0H40v12h12zm16 0H56v12h12zm16 0H72v12h12zm16 0H88v12h12zm16 0h-12v12h12zm16 0h-12v12h12zm16 0h-12v12h12zm16 0h-12v12h12zm16 0h-12v12h12zm16 0h-12v12h12zm16 0h-12v12h12zm16 0h-12v12h12zM36 100H24v12h12zm0-16H24v12h12zm16 16H40v12h12zm16 0H56v12h12zm16 0H72v12h12zm16 0H88v12h12zm16 0h-12v12h12zm16 0h-12v12h12zm16 0h-12v12h12zm16 0h-12v12h12zm16 0h-12v12h12zm16 0h-12v12h12zm24 0h-20v12h20zM40 116H24v12h16zm16 0H44v12h12zm16 0H60v12h12zm16 0H76v12h12zm16 0H92v12h12zm16 0h-12v12h12zm16 0h-12v12h12zm16 0h-12v12h12zm16 0h-12v12h12zm16 0h-12v12h12zm16 0h-12v12h12zM56 84H40v12h16zm16 0H60v12h12zm16 0H76v12h12zm16 0H92v12h12zm16 0h-12v12h12zm16 0h-12v12h12zm16 0h-12v12h12zm16 0h-12v12h12zm16 0h-12v12h12zm20 0h-16v12h16zm12 32h-12v12h12zm16 0h-12v12h12zm-48-48H68v12h116z" style="fill:#ccc;fill-opacity:1;fill-rule:nonzero;stroke:none" transform="matrix(1.33333 0 0 -1.33333 -8 277.333)"/><path d="M60 148H36v4h24zm28 0H64v4h24zm28 0H92v4h24zm28 0h-24v4h24z" style="fill:#404040;fill-opacity:1;fill-rule:nonzero;stroke:none" transform="matrix(1.33333 0 0 -1.33333 -8 277.333)"/><path d="m0 0-5.535 5.535L-11.07 0l1.414-1.414 3.121 3.121v-7.121h2v7.121l3.121-3.121z" style="fill:#bfbfbf;fill-opacity:1;fill-rule:nonzero;stroke:none" transform="matrix(1.33333 0 0 -1.33333 295.38 152.781)"/><path d="m0 0 5.535-5.535L11.07 0 9.656 1.414 6.535-1.707v7.121h-2v-7.121L1.414 1.414Z" style="fill:#bfbfbf;fill-opacity:1;fill-rule:nonzero;stroke:none" transform="matrix(1.33333 0 0 -1.33333 280.62 172.552)"/><path d="m0 0 5.535 5.535L0 11.07l-1.414-1.414 3.121-3.121h-7.121v-2h7.121l-3.121-3.121Z" style="fill:#bfbfbf;fill-opacity:1;fill-rule:nonzero;stroke:none" transform="matrix(1.33333 0 0 -1.33333 297.885 170.047)"/><path d="m0 0-5.535-5.535L0-11.07l1.414 1.414-3.121 3.121h7.121v2h-7.121l3.121 3.121z" style="fill:#bfbfbf;fill-opacity:1;fill-rule:nonzero;stroke:none" transform="matrix(1.33333 0 0 -1.33333 278.114 155.286)"/><path d="M144 160H36v4h108z" style="fill:#262626;fill-opacity:1;fill-rule:nonzero;stroke:none" transform="matrix(1.33333 0 0 -1.33333 -8 277.333)"/></svg>