<?xml version="1.0" encoding="iso-8859-1"?>
<!-- Generator: Adobe Illustrator 28.0.0, SVG Export Plug-In . SVG Version: 6.00 Build 0)  -->
<svg version="1.1" id="Layer_1" xmlns="http://www.w3.org/2000/svg" xmlns:xlink="http://www.w3.org/1999/xlink" x="0px" y="0px"
	 viewBox="0 0 256 256" style="enable-background:new 0 0 256 256;" xml:space="preserve">
<path style="opacity:0.5;fill:#FFFFFF;" d="M247.155,112.422l-3.419-6.839l-3.674-25.72l-0.142-0.995l-0.286-2l-0.286-2l-0.286-2
	l-0.174-1.216l-0.969-6.784l-0.286-2l-0.286-2l-0.286-2l-0.898-6.283C235.466,47.691,231.21,44,226.265,44H29.735
	c-4.944,0-9.2,3.691-9.899,8.586l-0.898,6.283l-0.286,2l-0.286,2l-0.286,2l-0.969,6.784l-0.174,1.216l-0.286,2l-0.286,2l-0.286,2
	l-0.142,0.995l-3.674,25.72l-3.419,6.839L8,114.111V116v90c0,5.514,4.486,10,10,10h220c5.514,0,10-4.486,10-10v-90v-1.889
	L247.155,112.422z"/>
<path style="fill:#D9D4BC;" d="M238,208H18c-1.105,0-2-0.895-2-2v-90h224v90C240,207.105,239.105,208,238,208z"/>
<polygon style="fill:#A6A390;" points="24,144 24,184 56,184 56,196 148,196 148,184 182,184 182,144 "/>
<rect x="28" y="132" style="fill:#C4C0AA;" width="28" height="8"/>
<rect x="88" y="132" style="fill:#C4C0AA;" width="28" height="8"/>
<rect x="148" y="132" style="fill:#C4C0AA;" width="28" height="8"/>
<rect x="200" y="132" style="fill:#C4C0AA;" width="28" height="8"/>
<rect x="194" y="144" style="fill:#A6A390;" width="38" height="40"/>
<path style="fill:#D9D4BC;" d="M236,108H20l7.755-54.283C27.895,52.732,28.739,52,29.735,52h196.531c0.995,0,1.839,0.732,1.98,1.717
	L236,108z"/>
<polygon style="fill:#C4C0AA;" points="240,116 16,116 20,108 236,108 "/>
<rect x="188" y="96" style="fill:#A6A390;" width="40" height="8"/>
<g>
	<polygon style="fill:#A6A390;" points="25.143,72 24.857,74 231.143,74 230.857,72 	"/>
	<polygon style="fill:#A6A390;" points="24.571,76 24.286,78 231.714,78 231.429,76 	"/>
	<polygon style="fill:#A6A390;" points="232.286,82 232,80 24,80 23.714,82 	"/>
	<polygon style="fill:#A6A390;" points="25.714,68 25.429,70 230.571,70 230.286,68 	"/>
	<polygon style="fill:#A6A390;" points="26.857,60 26.571,62 229.429,62 229.143,60 	"/>
	<polygon style="fill:#A6A390;" points="26.286,64 26,66 230,66 229.714,64 	"/>
</g>
<rect x="24" y="118" style="fill:#808080;" width="8" height="2"/>
<rect x="24" y="132" style="fill:#A6A390;" width="8" height="8"/>
<rect x="34" y="132" style="fill:#A6A390;" width="8" height="8"/>
<rect x="44" y="132" style="fill:#A6A390;" width="8" height="8"/>
<rect x="54" y="132" style="fill:#A6A390;" width="8" height="8"/>
<rect x="24" y="144" style="fill:#C4C0AA;" width="8" height="8"/>
<rect x="34" y="144" style="fill:#C4C0AA;" width="8" height="8"/>
<rect x="44" y="144" style="fill:#C4C0AA;" width="8" height="8"/>
<rect x="54" y="144" style="fill:#C4C0AA;" width="8" height="8"/>
<rect x="64" y="144" style="fill:#C4C0AA;" width="8" height="8"/>
<rect x="74" y="144" style="fill:#C4C0AA;" width="8" height="8"/>
<rect x="84" y="144" style="fill:#C4C0AA;" width="8" height="8"/>
<rect x="94" y="144" style="fill:#C4C0AA;" width="8" height="8"/>
<rect x="104" y="144" style="fill:#C4C0AA;" width="8" height="8"/>
<rect x="114" y="144" style="fill:#C4C0AA;" width="8" height="8"/>
<rect x="124" y="144" style="fill:#C4C0AA;" width="8" height="8"/>
<rect x="134" y="144" style="fill:#C4C0AA;" width="8" height="8"/>
<rect x="144" y="144" style="fill:#C4C0AA;" width="8" height="8"/>
<rect x="154" y="144" style="fill:#C4C0AA;" width="8" height="8"/>
<rect x="164" y="144" style="fill:#C4C0AA;" width="8" height="8"/>
<rect x="24" y="164" style="fill:#C4C0AA;" width="8" height="8"/>
<rect x="34" y="164" style="fill:#C4C0AA;" width="8" height="8"/>
<rect x="44" y="164" style="fill:#C4C0AA;" width="8" height="8"/>
<rect x="54" y="164" style="fill:#C4C0AA;" width="8" height="8"/>
<rect x="64" y="164" style="fill:#C4C0AA;" width="8" height="8"/>
<rect x="74" y="164" style="fill:#C4C0AA;" width="8" height="8"/>
<rect x="84" y="164" style="fill:#C4C0AA;" width="8" height="8"/>
<rect x="94" y="164" style="fill:#C4C0AA;" width="8" height="8"/>
<rect x="104" y="164" style="fill:#C4C0AA;" width="8" height="8"/>
<rect x="114" y="164" style="fill:#C4C0AA;" width="8" height="8"/>
<rect x="124" y="164" style="fill:#C4C0AA;" width="8" height="8"/>
<rect x="134" y="164" style="fill:#C4C0AA;" width="8" height="8"/>
<rect x="144" y="164" style="fill:#C4C0AA;" width="8" height="8"/>
<rect x="154" y="164" style="fill:#C4C0AA;" width="8" height="8"/>
<rect x="164" y="164" style="fill:#C4C0AA;" width="18" height="8"/>
<rect x="24" y="174" style="fill:#C4C0AA;" width="8" height="8"/>
<rect x="34" y="174" style="fill:#C4C0AA;" width="8" height="8"/>
<rect x="44" y="174" style="fill:#C4C0AA;" width="8" height="8"/>
<rect x="54" y="174" style="fill:#C4C0AA;" width="8" height="8"/>
<rect x="64" y="174" style="fill:#C4C0AA;" width="8" height="8"/>
<rect x="56" y="184" style="fill:#C4C0AA;" width="92" height="8"/>
<rect x="74" y="174" style="fill:#C4C0AA;" width="8" height="8"/>
<rect x="84" y="174" style="fill:#C4C0AA;" width="8" height="8"/>
<rect x="94" y="174" style="fill:#C4C0AA;" width="8" height="8"/>
<rect x="104" y="174" style="fill:#C4C0AA;" width="8" height="8"/>
<rect x="114" y="174" style="fill:#C4C0AA;" width="8" height="8"/>
<rect x="124" y="174" style="fill:#C4C0AA;" width="8" height="8"/>
<rect x="134" y="174" style="fill:#C4C0AA;" width="8" height="8"/>
<rect x="144" y="174" style="fill:#C4C0AA;" width="8" height="8"/>
<rect x="154" y="174" style="fill:#C4C0AA;" width="8" height="8"/>
<rect x="164" y="174" style="fill:#C4C0AA;" width="8" height="8"/>
<rect x="174" y="174" style="fill:#C4C0AA;" width="8" height="8"/>
<rect x="174" y="144" style="fill:#C4C0AA;" width="8" height="8"/>
<rect x="194" y="144" style="fill:#C4C0AA;" width="8" height="8"/>
<rect x="204" y="144" style="fill:#C4C0AA;" width="8" height="8"/>
<rect x="214" y="144" style="fill:#C4C0AA;" width="8" height="8"/>
<rect x="224" y="144" style="fill:#C4C0AA;" width="8" height="8"/>
<rect x="194" y="154" style="fill:#C4C0AA;" width="8" height="8"/>
<rect x="204" y="154" style="fill:#C4C0AA;" width="8" height="8"/>
<rect x="214" y="154" style="fill:#C4C0AA;" width="8" height="8"/>
<rect x="224" y="154" style="fill:#C4C0AA;" width="8" height="8"/>
<rect x="140" y="154" style="fill:#C4C0AA;" width="8" height="8"/>
<rect x="150" y="154" style="fill:#C4C0AA;" width="8" height="8"/>
<rect x="160" y="154" style="fill:#C4C0AA;" width="8" height="8"/>
<rect x="170" y="154" style="fill:#C4C0AA;" width="12" height="8"/>
<rect x="100" y="154" style="fill:#C4C0AA;" width="8" height="8"/>
<rect x="110" y="154" style="fill:#C4C0AA;" width="8" height="8"/>
<rect x="120" y="154" style="fill:#C4C0AA;" width="8" height="8"/>
<rect x="130" y="154" style="fill:#C4C0AA;" width="8" height="8"/>
<rect x="60" y="154" style="fill:#C4C0AA;" width="8" height="8"/>
<rect x="70" y="154" style="fill:#C4C0AA;" width="8" height="8"/>
<rect x="80" y="154" style="fill:#C4C0AA;" width="8" height="8"/>
<rect x="90" y="154" style="fill:#C4C0AA;" width="8" height="8"/>
<rect x="24" y="154" style="fill:#C4C0AA;" width="14" height="8"/>
<rect x="40" y="154" style="fill:#C4C0AA;" width="8" height="8"/>
<rect x="50" y="154" style="fill:#C4C0AA;" width="8" height="8"/>
<rect x="194" y="164" style="fill:#C4C0AA;" width="8" height="8"/>
<rect x="204" y="164" style="fill:#C4C0AA;" width="8" height="8"/>
<rect x="214" y="164" style="fill:#C4C0AA;" width="8" height="8"/>
<rect x="194" y="174" style="fill:#C4C0AA;" width="8" height="8"/>
<rect x="204" y="174" style="fill:#C4C0AA;" width="8" height="8"/>
<rect x="214" y="174" style="fill:#C4C0AA;" width="8" height="8"/>
<rect x="224" y="164" style="fill:#C4C0AA;" width="8" height="18"/>
<rect x="84" y="132" style="fill:#A6A390;" width="8" height="8"/>
<rect x="94" y="132" style="fill:#A6A390;" width="8" height="8"/>
<rect x="104" y="132" style="fill:#A6A390;" width="8" height="8"/>
<rect x="114" y="132" style="fill:#A6A390;" width="8" height="8"/>
<rect x="144" y="132" style="fill:#A6A390;" width="8" height="8"/>
<rect x="154" y="132" style="fill:#A6A390;" width="8" height="8"/>
<rect x="164" y="132" style="fill:#A6A390;" width="8" height="8"/>
<rect x="174" y="132" style="fill:#A6A390;" width="8" height="8"/>
<rect x="194" y="132" style="fill:#A6A390;" width="8" height="8"/>
<rect x="204" y="132" style="fill:#A6A390;" width="8" height="8"/>
<rect x="214" y="132" style="fill:#A6A390;" width="8" height="8"/>
<rect x="224" y="132" style="fill:#A6A390;" width="8" height="8"/>
</svg>
