<svg xmlns="http://www.w3.org/2000/svg" xml:space="preserve" viewBox="0 0 256 256"><path d="m247.155 112.422-3.419-6.839-3.674-25.72-.142-.995-.286-2-.286-2-.286-2-.174-1.216-.969-6.784-.286-2-.286-2-.286-2-.898-6.283c-.697-4.894-4.953-8.585-9.898-8.585H29.735c-4.944 0-9.2 3.691-9.899 8.586l-.898 6.283-.286 2-.286 2-.286 2-.969 6.784-.174 1.216-.286 2-.286 2-.286 2-.142.995-3.674 25.72-3.419 6.839L8 114.111V206c0 5.514 4.486 10 10 10h220c5.514 0 10-4.486 10-10v-91.889z" style="opacity:.5;fill:#fff"/><path d="M238 208H18a2 2 0 0 1-2-2v-90h224v90a2 2 0 0 1-2 2" style="fill:#d9d4bc"/><path d="M24 144v40h32v12h92v-12h34v-40z" style="fill:#a6a390"/><path d="M28 132h28v8H28zm60 0h28v8H88zm60 0h28v8h-28zm52 0h28v8h-28z" style="fill:#c4c0aa"/><path d="M194 144h38v40h-38z" style="fill:#a6a390"/><path d="M236 108H20l7.755-54.283A2 2 0 0 1 29.735 52h196.531a2 2 0 0 1 1.98 1.717z" style="fill:#d9d4bc"/><path d="M240 116H16l4-8h216z" style="fill:#c4c0aa"/><path d="M188 96h40v8h-40zM25.143 72l-.286 2h206.286l-.286-2zm-.572 4-.285 2h207.428l-.285-2zm207.715 6L232 80H24l-.286 2zM25.714 68l-.285 2h205.142l-.285-2zm1.143-8-.286 2h202.858l-.286-2zm-.571 4L26 66h204l-.286-2z" style="fill:#a6a390"/><path d="M24 118h8v2h-8z" style="fill:gray"/><path d="M24 132h8v8h-8zm10 0h8v8h-8zm10 0h8v8h-8zm10 0h8v8h-8z" style="fill:#a6a390"/><path d="M24 144h8v8h-8zm10 0h8v8h-8zm10 0h8v8h-8zm10 0h8v8h-8zm10 0h8v8h-8zm10 0h8v8h-8zm10 0h8v8h-8zm10 0h8v8h-8zm10 0h8v8h-8zm10 0h8v8h-8zm10 0h8v8h-8zm10 0h8v8h-8zm10 0h8v8h-8zm10 0h8v8h-8zm10 0h8v8h-8zM24 164h8v8h-8zm10 0h8v8h-8zm10 0h8v8h-8zm10 0h8v8h-8zm10 0h8v8h-8zm10 0h8v8h-8zm10 0h8v8h-8zm10 0h8v8h-8zm10 0h8v8h-8zm10 0h8v8h-8zm10 0h8v8h-8zm10 0h8v8h-8zm10 0h8v8h-8zm10 0h8v8h-8zm10 0h18v8h-18zM24 174h8v8h-8zm10 0h8v8h-8zm10 0h8v8h-8zm10 0h8v8h-8zm10 0h8v8h-8zm-8 10h92v8H56zm18-10h8v8h-8zm10 0h8v8h-8zm10 0h8v8h-8zm10 0h8v8h-8zm10 0h8v8h-8zm10 0h8v8h-8zm10 0h8v8h-8zm10 0h8v8h-8zm10 0h8v8h-8zm10 0h8v8h-8zm10 0h8v8h-8zm0-30h8v8h-8zm20 0h8v8h-8zm10 0h8v8h-8zm10 0h8v8h-8zm10 0h8v8h-8zm-30 10h8v8h-8zm10 0h8v8h-8zm10 0h8v8h-8zm10 0h8v8h-8zm-84 0h8v8h-8zm10 0h8v8h-8zm10 0h8v8h-8zm10 0h12v8h-12zm-70 0h8v8h-8zm10 0h8v8h-8zm10 0h8v8h-8zm10 0h8v8h-8zm-70 0h8v8h-8zm10 0h8v8h-8zm10 0h8v8h-8zm10 0h8v8h-8zm-66 0h14v8H24zm16 0h8v8h-8zm10 0h8v8h-8zm144 10h8v8h-8zm10 0h8v8h-8zm10 0h8v8h-8zm-20 10h8v8h-8zm10 0h8v8h-8zm10 0h8v8h-8zm10-10h8v18h-8z" style="fill:#c4c0aa"/><path d="M84 132h8v8h-8zm10 0h8v8h-8zm10 0h8v8h-8zm10 0h8v8h-8zm30 0h8v8h-8zm10 0h8v8h-8zm10 0h8v8h-8zm10 0h8v8h-8zm20 0h8v8h-8zm10 0h8v8h-8zm10 0h8v8h-8zm10 0h8v8h-8z" style="fill:#a6a390"/></svg>