<?xml version="1.0" encoding="UTF-8" standalone="no"?>
<svg
   xmlns:dc="http://purl.org/dc/elements/1.1/"
   xmlns:cc="http://creativecommons.org/ns#"
   xmlns:rdf="http://www.w3.org/1999/02/22-rdf-syntax-ns#"
   xmlns:svg="http://www.w3.org/2000/svg"
   xmlns="http://www.w3.org/2000/svg"
   viewBox="0 0 330.66665 224"
   height="224"
   width="330.66666"
   xml:space="preserve"
   id="svg2"
   version="1.1"><metadata
     id="metadata8"><rdf:RDF><cc:Work
         rdf:about=""><dc:format>image/svg+xml</dc:format><dc:type
           rdf:resource="http://purl.org/dc/dcmitype/StillImage" /></cc:Work></rdf:RDF></metadata><defs
     id="defs6"><clipPath
       id="clipPath18"
       clipPathUnits="userSpaceOnUse"><path
         id="path16"
         d="M 0,256 H 256 V 0 H 0 Z" /></clipPath><clipPath
       id="clipPath26"
       clipPathUnits="userSpaceOnUse"><path
         id="path24"
         d="M 4,212 H 252 V 44 H 4 Z" /></clipPath></defs><g
     transform="matrix(1.3333333,0,0,-1.3333333,-5.3333332,282.66666)"
     id="g10"><g
       id="g12"><g
         clip-path="url(#clipPath18)"
         id="g14"><g
           id="g20"><g
             id="g22" /><g
             id="g34"><g
               style="opacity:0.5"
               id="g32"
               clip-path="url(#clipPath26)"><g
                 id="g30"
                 transform="translate(242,204)"><path
                   id="path28"
                   style="fill:#ffffff;fill-opacity:1;fill-rule:nonzero;stroke:none"
                   d="m 0,0 h -26 c -6.098,0 -8.326,2.792 -8.798,3.511 C -35.989,6.556 -38.702,8 -42,8 h -144 c -3.003,0 -5.754,-1.682 -7.122,-4.356 -1.352,-2.643 -6.677,-3.607 -8.917,-3.644 H -228 c -5.514,0 -10,-4.486 -10,-10 v -2 -2 -2 -2 -2 -2 -2 -2 -2 -2 -2 -22 -2 -92 c 0,-6.617 5.383,-12 12,-12 H -2 c 6.617,0 12,5.383 12,12 v 92 2 22 2 2 2 2 2 2 2 2 2 2 2 C 10,-4.486 5.514,0 0,0" /></g></g></g></g><g
           transform="translate(240,52)"
           id="g36"><path
             id="path38"
             style="fill:#333333;fill-opacity:1;fill-rule:nonzero;stroke:none"
             d="m 0,0 h -224 c -2.209,0 -4,1.791 -4,4 v 138 c 0,1.104 0.896,2 2,2 H 2 c 1.104,0 2,-0.896 2,-2 V 4 C 4,1.791 2.209,0 0,0" /></g><g
           transform="translate(244,192)"
           id="g40"><path
             id="path42"
             style="fill:#262626;fill-opacity:1;fill-rule:nonzero;stroke:none"
             d="m 0,0 v 2 h -28 v 2 c -12.279,0 -16,8 -16,8 h -144 c -4.093,-8 -16,-8 -16,-8 V 2 h -28 V 0 h 28 v -2 h -28 v -2 h 28 v -2 h -28 v -2 h 28 v -2 h -28 v -2 h 28 v -2 h -28 v -2 h 28 v -2 h -28 v -2 h 28 v -14 c 0,-2.698 0.134,-5.365 0.384,-8 H -232 v -2 h 28.598 c 5.087,-42.727 42.34,-76 87.402,-76 45.062,0 82.315,33.273 87.401,76 H 0 v 2 h -28.384 c 0.25,2.635 0.384,5.302 0.384,8 v 14 H 0 v 2 h -28 v 2 H 0 v 2 h -28 v 2 H 0 v 2 h -28 v 2 H 0 v 2 h -28 v 2 H 0 v 2 h -28 v 2 z" /></g><g
           transform="translate(200,202)"
           id="g44"><path
             id="path46"
             style="fill:#191919;fill-opacity:1;fill-rule:nonzero;stroke:none"
             d="m 0,0 h -144 c -4.093,-8 -16,-8 -16,-8 v -2 c 0,0 11.907,0 16,8 H 0 c 0,0 3.721,-8 16,-8 v 2 C 3.721,-8 0,0 0,0" /></g><g
           transform="translate(200,198)"
           id="g48"><path
             id="path50"
             style="fill:#191919;fill-opacity:1;fill-rule:nonzero;stroke:none"
             d="m 0,0 h -144 c -4.093,-8 -16,-8 -16,-8 v -2 c 0,0 11.907,0 16,8 H 0 c 0,0 3.721,-8 16,-8 v 2 C 3.721,-8 0,0 0,0" /></g><g
           transform="translate(200,194)"
           id="g52"><path
             id="path54"
             style="fill:#191919;fill-opacity:1;fill-rule:nonzero;stroke:none"
             d="m 0,0 h -144 c -4.093,-8 -16,-8 -16,-8 v -2 c 0,0 11.907,0 16,8 H 0 c 0,0 3.721,-8 16,-8 v 2 C 3.721,-8 0,0 0,0" /></g><g
           transform="translate(200,190)"
           id="g56"><path
             id="path58"
             style="fill:#191919;fill-opacity:1;fill-rule:nonzero;stroke:none"
             d="m 0,0 h -144 c -4.093,-8 -16,-8 -16,-8 v -2 c 0,0 11.907,0 16,8 H 0 c 0,0 3.721,-8 16,-8 v 2 C 3.721,-8 0,0 0,0" /></g><g
           transform="translate(200,186)"
           id="g60"><path
             id="path62"
             style="fill:#191919;fill-opacity:1;fill-rule:nonzero;stroke:none"
             d="m 0,0 h -144 c -4.093,-8 -16,-8 -16,-8 v -2 c 0,0 11.907,0 16,8 H 0 c 0,0 3.721,-8 16,-8 v 2 C 3.721,-8 0,0 0,0" /></g><g
           transform="translate(200,182)"
           id="g64"><path
             id="path66"
             style="fill:#191919;fill-opacity:1;fill-rule:nonzero;stroke:none"
             d="m 0,0 h -144 c -4.093,-8 -16,-8 -16,-8 v -2 c 0,0 11.907,0 16,8 H 0 c 0,0 3.721,-8 16,-8 v 2 C 3.721,-8 0,0 0,0" /></g><g
           transform="translate(200,158)"
           id="g68"><path
             id="path70"
             style="fill:#191919;fill-opacity:1;fill-rule:nonzero;stroke:none"
             d="m 0,0 h -144 c -3.66,-7.154 -13.562,-7.91 -15.617,-7.99 0.063,-0.666 0.135,-1.329 0.213,-1.99 2.451,0.124 11.858,1.049 15.404,7.98 H 0 c 0,0 3.616,-7.714 15.404,-7.976 0.079,0.662 0.151,1.326 0.213,1.992 C 3.654,-7.814 0,0 0,0" /></g><g
           transform="translate(130,88)"
           id="g72"><path
             id="path74"
             style="fill:#333333;fill-opacity:1;fill-rule:nonzero;stroke:none"
             d="m 0,0 h -4 c -38.66,0 -70,31.34 -70,70 v 46 H 70 V 70 C 70,31.34 38.66,0 0,0" /></g><path
           id="path76"
           style="fill:#262626;fill-opacity:1;fill-rule:nonzero;stroke:none"
           d="M 200,200 H 56 v 2 h 144 z" /><path
           id="path78"
           style="fill:#191919;fill-opacity:1;fill-rule:nonzero;stroke:none"
           d="M 100,200 H 80 v 2 h 20 z" /><path
           id="path80"
           style="fill:#191919;fill-opacity:1;fill-rule:nonzero;stroke:none"
           d="m 124,200 h -20 v 2 h 20 z" /><path
           id="path82"
           style="fill:#191919;fill-opacity:1;fill-rule:nonzero;stroke:none"
           d="m 148,200 h -20 v 2 h 20 z" /><path
           id="path84"
           style="fill:#191919;fill-opacity:1;fill-rule:nonzero;stroke:none"
           d="m 172,200 h -20 v 2 h 20 z" /><path
           id="path86"
           style="fill:#262626;fill-opacity:1;fill-rule:nonzero;stroke:none"
           d="M 200,196 H 56 v 2 h 144 z" /><path
           id="path88"
           style="fill:#191919;fill-opacity:1;fill-rule:nonzero;stroke:none"
           d="M 100,196 H 80 v 2 h 20 z" /><path
           id="path90"
           style="fill:#191919;fill-opacity:1;fill-rule:nonzero;stroke:none"
           d="m 124,196 h -20 v 2 h 20 z" /><path
           id="path92"
           style="fill:#191919;fill-opacity:1;fill-rule:nonzero;stroke:none"
           d="m 148,196 h -20 v 2 h 20 z" /><path
           id="path94"
           style="fill:#191919;fill-opacity:1;fill-rule:nonzero;stroke:none"
           d="m 172,196 h -20 v 2 h 20 z" /><path
           id="path96"
           style="fill:#262626;fill-opacity:1;fill-rule:nonzero;stroke:none"
           d="M 200,192 H 56 v 2 h 144 z" /><path
           id="path98"
           style="fill:#191919;fill-opacity:1;fill-rule:nonzero;stroke:none"
           d="M 100,192 H 80 v 2 h 20 z" /><path
           id="path100"
           style="fill:#191919;fill-opacity:1;fill-rule:nonzero;stroke:none"
           d="m 124,192 h -20 v 2 h 20 z" /><path
           id="path102"
           style="fill:#191919;fill-opacity:1;fill-rule:nonzero;stroke:none"
           d="m 148,192 h -20 v 2 h 20 z" /><path
           id="path104"
           style="fill:#191919;fill-opacity:1;fill-rule:nonzero;stroke:none"
           d="m 172,192 h -20 v 2 h 20 z" /><path
           id="path106"
           style="fill:#262626;fill-opacity:1;fill-rule:nonzero;stroke:none"
           d="M 200,188 H 56 v 2 h 144 z" /><path
           id="path108"
           style="fill:#191919;fill-opacity:1;fill-rule:nonzero;stroke:none"
           d="M 100,188 H 80 v 2 h 20 z" /><path
           id="path110"
           style="fill:#191919;fill-opacity:1;fill-rule:nonzero;stroke:none"
           d="m 124,188 h -20 v 2 h 20 z" /><path
           id="path112"
           style="fill:#191919;fill-opacity:1;fill-rule:nonzero;stroke:none"
           d="m 148,188 h -20 v 2 h 20 z" /><path
           id="path114"
           style="fill:#191919;fill-opacity:1;fill-rule:nonzero;stroke:none"
           d="m 172,188 h -20 v 2 h 20 z" /><path
           id="path116"
           style="fill:#262626;fill-opacity:1;fill-rule:nonzero;stroke:none"
           d="M 200,184 H 56 v 2 h 144 z" /><path
           id="path118"
           style="fill:#191919;fill-opacity:1;fill-rule:nonzero;stroke:none"
           d="M 100,184 H 80 v 2 h 20 z" /><path
           id="path120"
           style="fill:#191919;fill-opacity:1;fill-rule:nonzero;stroke:none"
           d="m 124,184 h -20 v 2 h 20 z" /><path
           id="path122"
           style="fill:#191919;fill-opacity:1;fill-rule:nonzero;stroke:none"
           d="m 148,184 h -20 v 2 h 20 z" /><path
           id="path124"
           style="fill:#191919;fill-opacity:1;fill-rule:nonzero;stroke:none"
           d="m 172,184 h -20 v 2 h 20 z" /><path
           id="path126"
           style="fill:#262626;fill-opacity:1;fill-rule:nonzero;stroke:none"
           d="M 200,180 H 56 v 2 h 144 z" /><path
           id="path128"
           style="fill:#262626;fill-opacity:1;fill-rule:nonzero;stroke:none"
           d="M 80,156 H 56 v 2 h 24 z" /><path
           id="path130"
           style="fill:#262626;fill-opacity:1;fill-rule:nonzero;stroke:none"
           d="m 200,156 h -24 v 2 h 24 z" /><path
           id="path132"
           style="fill:#191919;fill-opacity:1;fill-rule:nonzero;stroke:none"
           d="M 100,180 H 80 v 2 h 20 z" /><path
           id="path134"
           style="fill:#191919;fill-opacity:1;fill-rule:nonzero;stroke:none"
           d="m 124,180 h -20 v 2 h 20 z" /><path
           id="path136"
           style="fill:#191919;fill-opacity:1;fill-rule:nonzero;stroke:none"
           d="m 148,180 h -20 v 2 h 20 z" /><path
           id="path138"
           style="fill:#191919;fill-opacity:1;fill-rule:nonzero;stroke:none"
           d="m 172,180 h -20 v 2 h 20 z" /><g
           transform="translate(82,162)"
           id="g140"><path
             id="path142"
             style="fill:#191919;fill-opacity:1;fill-rule:nonzero;stroke:none"
             d="m 0,0 h 92 l 2,2 H -2 v -16 l 2,2 z" /></g><g
           transform="translate(174,150)"
           id="g144"><path
             id="path146"
             style="fill:#262626;fill-opacity:1;fill-rule:nonzero;stroke:none"
             d="m 0,0 h -92 l -2,-2 H 2 V 14 L 0,12 Z" /></g><path
           id="path148"
           style="fill:#ff0000;fill-opacity:1;fill-rule:nonzero;stroke:none"
           d="m 230,148 h -4 v 2 h 4 z" /></g></g></g></svg>