<?xml version="1.0" encoding="iso-8859-1"?>
<!-- Generator: Adobe Illustrator 27.8.1, SVG Export Plug-In . SVG Version: 6.00 Build 0)  -->
<svg version="1.1" id="Layer_1" xmlns="http://www.w3.org/2000/svg" xmlns:xlink="http://www.w3.org/1999/xlink" x="0px" y="0px"
	 viewBox="0 0 256 256" style="enable-background:new 0 0 256 256;" xml:space="preserve">
<path style="opacity:0.5;fill:#FFFFFF;" d="M224,36H32C16.561,36,4,48.561,4,64v116v8h1.726c2.505,7.139,7.68,13.547,15.06,18.504
	C29.904,212.628,41.699,216,54,216c8.518,0,21.477-3.539,23.935-4.233c1.856-0.391,16.348-3.323,33.028-3.323
	c10.234,0,19.239,1.086,26.767,3.227C139.722,212.282,165.24,220,182,220c17.814,0,34.686-3.645,47.51-10.264
	C244.013,202.251,252,191.69,252,180V64C252,48.561,239.439,36,224,36L224,36z"/>
<path style="fill:#808080;" d="M224,44H32c-11.046,0-20,8.954-20,20v116h0.103c1.442,15.635,19.643,28,41.897,28c8.039,0,22-4,22-4
	s36-8,64,0c0,0,25.931,8,42,8c34.242,0,62-14.327,62-32V64C244,52.954,235.046,44,224,44z"/>
<circle style="fill:#263979;" cx="50" cy="170" r="22"/>
<circle style="fill:#FFCB05;" cx="92" cy="168" r="8"/>
<path style="fill:#595959;" d="M203,76h-39c-8.837,0-16,7.163-16,16v84v13.816c0,1.397,0.724,2.686,1.915,3.414
	c5.139,3.142,20.016,11.214,37.196,11.214c10.166,0,21.137-2.825,31.38-11.17c0.945-0.77,1.509-1.915,1.509-3.134V176V93
	C220,83.611,212.389,76,203,76z"/>
<path style="fill:#8C8C8C;" d="M150,92c0-7.72,6.28-14,14-14h39c8.271,0,15,6.729,15,15v83c0,1.103-0.897,2-2,2h-64
	c-1.103,0-2-0.897-2-2V92z"/>
<path style="fill:#8C8C8C;" d="M217.227,191.724c-8.731,7.113-18.863,10.72-30.116,10.72c-16.508,0-30.782-7.637-36.152-10.92
	c-0.6-0.367-0.959-1.005-0.959-1.708v-10.371c0.59,0.344,1.268,0.555,2,0.555h64c0.732,0,1.41-0.211,2-0.555v10.696
	C218,190.747,217.718,191.324,217.227,191.724z"/>
<circle style="fill:#FF0000;" cx="114" cy="170" r="2"/>
<path style="fill:#595959;" d="M184,188c5.893,0,10,2.635,10,5s-4.107,5-10,5s-10-2.635-10-5S178.107,188,184,188 M184,186
	c-6.627,0-12,3.134-12,7s5.373,7,12,7s12-3.134,12-7S190.627,186,184,186L184,186z"/>
<g>
	<ellipse style="fill:#262626;" cx="184" cy="118" rx="20" ry="14"/>
</g>
<path style="fill:#666666;" d="M116,100H32c-4.4,0-8-3.6-8-8v-4c0-4.4,3.6-8,8-8h84c4.4,0,8,3.6,8,8v4C124,96.4,120.4,100,116,100z"
	/>
<path style="fill:#808080;" d="M116,96H32c-2.209,0-4-1.791-4-4v-4c0-2.209,1.791-4,4-4h84c2.209,0,4,1.791,4,4v4
	C120,94.209,118.209,96,116,96z"/>
<g>
	<polygon style="fill:#737373;" points="101.82,96 104.22,84 102.18,84 99.78,96 	"/>
	<polygon style="fill:#737373;" points="48.22,96 45.82,84 43.78,84 46.18,96 	"/>
</g>
<path style="fill:#666666;" d="M54,136h-8c-3.3,0-6-2.7-6-6v-12c0-3.3,2.7-6,6-6h8c3.3,0,6,2.7,6,6v12C60,133.3,57.3,136,54,136z"/>
<path style="fill:#8C8C8C;" d="M58,124H42c-1.105,0-2-0.895-2-2v-4c0-1.105,0.895-2,2-2h16c1.105,0,2,0.895,2,2v4
	C60,123.105,59.105,124,58,124z"/>
<circle style="fill:#B80000;" cx="114" cy="170" r="1"/>
<rect x="240" y="152" style="fill:#8C8C8C;" width="4" height="28"/>
<path style="fill:#595959;" d="M244,178h-16c-1.103,0-2-0.897-2-2v-20c0-1.103,0.897-2,2-2h16v-2h-16c-2.209,0-4,1.791-4,4v20
	c0,2.209,1.791,4,4,4h16V178z"/>
</svg>
