<svg xmlns="http://www.w3.org/2000/svg" xml:space="preserve" viewBox="0 0 256 256"><path d="M224 36H32C16.561 36 4 48.561 4 64v124h1.726c2.505 7.139 7.68 13.547 15.06 18.504C29.904 212.628 41.699 216 54 216c8.518 0 21.477-3.539 23.935-4.233 1.856-.391 16.348-3.323 33.028-3.323 10.234 0 19.239 1.086 26.767 3.227 1.992.611 27.51 8.329 44.27 8.329 17.814 0 34.686-3.645 47.51-10.264C244.013 202.251 252 191.69 252 180V64c0-15.439-12.561-28-28-28" style="opacity:.5;fill:#fff"/><path d="M224 44H32c-11.046 0-20 8.954-20 20v116h.103c1.442 15.635 19.643 28 41.897 28 8.039 0 22-4 22-4s36-8 64 0c0 0 25.931 8 42 8 34.242 0 62-14.327 62-32V64c0-11.046-8.954-20-20-20" style="fill:gray"/><circle cx="50" cy="170" r="22" style="fill:#263979"/><circle cx="92" cy="168" r="8" style="fill:#ffcb05"/><path d="M203 76h-39c-8.837 0-16 7.163-16 16v97.816c0 1.397.724 2.686 1.915 3.414 5.139 3.142 20.016 11.214 37.196 11.214 10.166 0 21.137-2.825 31.38-11.17A4.05 4.05 0 0 0 220 190.14V93c0-9.389-7.611-17-17-17" style="fill:#595959"/><path d="M150 92c0-7.72 6.28-14 14-14h39c8.271 0 15 6.729 15 15v83c0 1.103-.897 2-2 2h-64c-1.103 0-2-.897-2-2zm67.227 99.724c-8.731 7.113-18.863 10.72-30.116 10.72-16.508 0-30.782-7.637-36.152-10.92a1.99 1.99 0 0 1-.959-1.708v-10.371c.59.344 1.268.555 2 .555h64c.732 0 1.41-.211 2-.555v10.696c0 .606-.282 1.183-.773 1.583" style="fill:#8c8c8c"/><circle cx="114" cy="170" r="2" style="fill:red"/><path d="M184 188c5.893 0 10 2.635 10 5s-4.107 5-10 5-10-2.635-10-5 4.107-5 10-5m0-2c-6.627 0-12 3.134-12 7s5.373 7 12 7 12-3.134 12-7-5.373-7-12-7" style="fill:#595959"/><ellipse cx="184" cy="118" rx="20" ry="14" style="fill:#262626"/><path d="M116 100H32c-4.4 0-8-3.6-8-8v-4c0-4.4 3.6-8 8-8h84c4.4 0 8 3.6 8 8v4c0 4.4-3.6 8-8 8" style="fill:#666"/><path d="M116 96H32a4 4 0 0 1-4-4v-4a4 4 0 0 1 4-4h84a4 4 0 0 1 4 4v4a4 4 0 0 1-4 4" style="fill:gray"/><path d="m101.82 96 2.4-12h-2.04l-2.4 12zm-53.6 0-2.4-12h-2.04l2.4 12z" style="fill:#737373"/><path d="M54 136h-8c-3.3 0-6-2.7-6-6v-12c0-3.3 2.7-6 6-6h8c3.3 0 6 2.7 6 6v12c0 3.3-2.7 6-6 6" style="fill:#666"/><path d="M58 124H42a2 2 0 0 1-2-2v-4a2 2 0 0 1 2-2h16a2 2 0 0 1 2 2v4a2 2 0 0 1-2 2" style="fill:#8c8c8c"/><circle cx="114" cy="170" r="1" style="fill:#b80000"/><path d="M240 152h4v28h-4z" style="fill:#8c8c8c"/><path d="M244 178h-16c-1.103 0-2-.897-2-2v-20c0-1.103.897-2 2-2h16v-2h-16a4 4 0 0 0-4 4v20a4 4 0 0 0 4 4h16z" style="fill:#595959"/></svg>