<svg xmlns="http://www.w3.org/2000/svg" xml:space="preserve" width="330.667" height="224" viewBox="0 0 330.667 224"><defs><clipPath id="a" clipPathUnits="userSpaceOnUse"><path d="M0 256h256V0H0Z"/></clipPath><clipPath id="b" clipPathUnits="userSpaceOnUse"><path d="M4 212h248V44H4Z"/></clipPath></defs><g clip-path="url(#a)" transform="matrix(1.33333 0 0 -1.33333 -5.333 282.667)"><g clip-path="url(#b)" style="opacity:.5"><path d="M0 0h-26c-6.098 0-8.326 2.792-8.798 3.511C-35.989 6.556-38.702 8-42 8h-144a8 8 0 0 1-7.122-4.356c-1.352-2.643-6.677-3.607-8.917-3.644H-228c-5.514 0-10-4.486-10-10v-138c0-6.617 5.383-12 12-12H-2c6.617 0 12 5.383 12 12v138C10-4.486 5.514 0 0 0" style="fill:#fff;fill-opacity:1;fill-rule:nonzero;stroke:none" transform="translate(242 204)"/></g><path d="M0 0h-224a4 4 0 0 0-4 4v138a2 2 0 0 0 2 2H2a2 2 0 0 0 2-2V4a4 4 0 0 0-4-4" style="fill:#333;fill-opacity:1;fill-rule:nonzero;stroke:none" transform="translate(240 52)"/><path d="M0 0v2h-28v2c-12.279 0-16 8-16 8h-144c-4.093-8-16-8-16-8V2h-28V0h28v-2h-28v-2h28v-2h-28v-2h28v-2h-28v-2h28v-2h-28v-2h28v-2h-28v-2h28v-14c0-2.698.134-5.365.384-8H-232v-2h28.598c5.087-42.727 42.34-76 87.402-76s82.315 33.273 87.401 76H0v2h-28.384A85 85 0 0 1-28-34v14H0v2h-28v2H0v2h-28v2H0v2h-28v2H0v2h-28v2H0v2h-28v2z" style="fill:#262626;fill-opacity:1;fill-rule:nonzero;stroke:none" transform="translate(244 192)"/><path d="M0 0h-144c-4.093-8-16-8-16-8v-2s11.907 0 16 8H0s3.721-8 16-8v2C3.721-8 0 0 0 0" style="fill:#191919;fill-opacity:1;fill-rule:nonzero;stroke:none" transform="translate(200 202)"/><path d="M0 0h-144c-4.093-8-16-8-16-8v-2s11.907 0 16 8H0s3.721-8 16-8v2C3.721-8 0 0 0 0" style="fill:#191919;fill-opacity:1;fill-rule:nonzero;stroke:none" transform="translate(200 198)"/><path d="M0 0h-144c-4.093-8-16-8-16-8v-2s11.907 0 16 8H0s3.721-8 16-8v2C3.721-8 0 0 0 0" style="fill:#191919;fill-opacity:1;fill-rule:nonzero;stroke:none" transform="translate(200 194)"/><path d="M0 0h-144c-4.093-8-16-8-16-8v-2s11.907 0 16 8H0s3.721-8 16-8v2C3.721-8 0 0 0 0" style="fill:#191919;fill-opacity:1;fill-rule:nonzero;stroke:none" transform="translate(200 190)"/><path d="M0 0h-144c-4.093-8-16-8-16-8v-2s11.907 0 16 8H0s3.721-8 16-8v2C3.721-8 0 0 0 0" style="fill:#191919;fill-opacity:1;fill-rule:nonzero;stroke:none" transform="translate(200 186)"/><path d="M0 0h-144c-4.093-8-16-8-16-8v-2s11.907 0 16 8H0s3.721-8 16-8v2C3.721-8 0 0 0 0" style="fill:#191919;fill-opacity:1;fill-rule:nonzero;stroke:none" transform="translate(200 182)"/><path d="M0 0h-144c-3.66-7.154-13.562-7.91-15.617-7.99q.095-.999.213-1.99c2.451.124 11.858 1.049 15.404 7.98H0s3.616-7.714 15.404-7.976q.12.993.213 1.992C3.654-7.814 0 0 0 0" style="fill:#191919;fill-opacity:1;fill-rule:nonzero;stroke:none" transform="translate(200 158)"/><path d="M0 0h-4c-38.66 0-70 31.34-70 70v46H70V70C70 31.34 38.66 0 0 0" style="fill:#333;fill-opacity:1;fill-rule:nonzero;stroke:none" transform="translate(130 88)"/><path d="M200 200H56v2h144z" style="fill:#262626;fill-opacity:1;fill-rule:nonzero;stroke:none"/><path d="M100 200H80v2h20zm24 0h-20v2h20zm24 0h-20v2h20zm24 0h-20v2h20z" style="fill:#191919;fill-opacity:1;fill-rule:nonzero;stroke:none"/><path d="M200 196H56v2h144z" style="fill:#262626;fill-opacity:1;fill-rule:nonzero;stroke:none"/><path d="M100 196H80v2h20zm24 0h-20v2h20zm24 0h-20v2h20zm24 0h-20v2h20z" style="fill:#191919;fill-opacity:1;fill-rule:nonzero;stroke:none"/><path d="M200 192H56v2h144z" style="fill:#262626;fill-opacity:1;fill-rule:nonzero;stroke:none"/><path d="M100 192H80v2h20zm24 0h-20v2h20zm24 0h-20v2h20zm24 0h-20v2h20z" style="fill:#191919;fill-opacity:1;fill-rule:nonzero;stroke:none"/><path d="M200 188H56v2h144z" style="fill:#262626;fill-opacity:1;fill-rule:nonzero;stroke:none"/><path d="M100 188H80v2h20zm24 0h-20v2h20zm24 0h-20v2h20zm24 0h-20v2h20z" style="fill:#191919;fill-opacity:1;fill-rule:nonzero;stroke:none"/><path d="M200 184H56v2h144z" style="fill:#262626;fill-opacity:1;fill-rule:nonzero;stroke:none"/><path d="M100 184H80v2h20zm24 0h-20v2h20zm24 0h-20v2h20zm24 0h-20v2h20z" style="fill:#191919;fill-opacity:1;fill-rule:nonzero;stroke:none"/><path d="M200 180H56v2h144zM80 156H56v2h24zm120 0h-24v2h24z" style="fill:#262626;fill-opacity:1;fill-rule:nonzero;stroke:none"/><path d="M100 180H80v2h20zm24 0h-20v2h20zm24 0h-20v2h20zm24 0h-20v2h20z" style="fill:#191919;fill-opacity:1;fill-rule:nonzero;stroke:none"/><path d="M0 0h92l2 2H-2v-16l2 2z" style="fill:#191919;fill-opacity:1;fill-rule:nonzero;stroke:none" transform="translate(82 162)"/><path d="M0 0h-92l-2-2H2v16l-2-2Z" style="fill:#262626;fill-opacity:1;fill-rule:nonzero;stroke:none" transform="translate(174 150)"/><path d="M230 148h-4v2h4z" style="fill:red;fill-opacity:1;fill-rule:nonzero;stroke:none"/></g></svg>