<svg xmlns="http://www.w3.org/2000/svg" xml:space="preserve" width="330.667" height="202.667" viewBox="0 0 330.667 202.667"><defs><clipPath id="a" clipPathUnits="userSpaceOnUse"><path d="M0 256h256V0H0Z"/></clipPath><clipPath id="b" clipPathUnits="userSpaceOnUse"><path d="M4 204h248V52H4Z"/></clipPath><clipPath id="c" clipPathUnits="userSpaceOnUse"><path d="M0 256h256V0H0Z"/></clipPath></defs><g clip-path="url(#a)" transform="matrix(1.33333 0 0 -1.33333 -5.333 272)"><g clip-path="url(#b)" style="opacity:.5"><path d="M0 0h-24v-4h-184v4h-32v-32h4v-88h-4v-32h32v4h184v-4H8v32H4v88h4V0z" style="fill:#fff;fill-opacity:1;fill-rule:nonzero;stroke:none" transform="translate(244 204)"/></g></g><path d="M28 76H12V60h16zm0 120H12v-16h16zM244 76h-16V60h16zm0 120h-16v-16h16z" style="fill:#4c4c4c;fill-opacity:1;fill-rule:nonzero;stroke:none" transform="matrix(1.33333 0 0 -1.33333 -5.333 272)"/><path d="M240 64H16v128h224z" style="fill:#666;fill-opacity:1;fill-rule:nonzero;stroke:none" transform="matrix(1.33333 0 0 -1.33333 -5.333 272)"/><g clip-path="url(#c)" transform="matrix(1.33333 0 0 -1.33333 -5.333 272)"><path d="M0 0h-192c-2.209 0-4-24.177-4-54s1.791-54 4-54H0c2.209 0 4 24.177 4 54S2.209 0 0 0" style="fill:#4c4c4c;fill-opacity:1;fill-rule:nonzero;stroke:none" transform="translate(224 184)"/><path d="M0 0h-192.254a3.873 3.873 0 0 0-3.873 3.873v52.254A3.873 3.873 0 0 0-192.254 60H0a3.873 3.873 0 0 0 3.873-3.873V3.873A3.873 3.873 0 0 0 0 0" style="fill:#595959;fill-opacity:1;fill-rule:nonzero;stroke:none" transform="translate(224.127 100)"/><path d="M0 0a1 1 0 1 0-2 0 1 1 0 0 0 2 0" style="fill:#404040;fill-opacity:1;fill-rule:nonzero;stroke:none" transform="translate(44 139)"/><path d="M0 0a1 1 0 1 0-2 0 1 1 0 0 0 2 0" style="fill:#404040;fill-opacity:1;fill-rule:nonzero;stroke:none" transform="translate(44 133)"/><path d="M0 0a1 1 0 1 0-2 0 1 1 0 0 0 2 0" style="fill:#404040;fill-opacity:1;fill-rule:nonzero;stroke:none" transform="translate(44 127)"/><path d="M112 170H84v2h28zm0-8H84v2h28zm0-8H84v2h28zm0-8H84v2h28zm0-8H84v2h28zm0-8H84v2h28zm0-8H84v2h28zm0-8H84v2h28zm0-8H84v2h28zm0-8H84v2h28zm0-8H84v2h28zm4-14h-2v108h2zm112 57H116v2h112z" style="fill:#404040;fill-opacity:1;fill-rule:nonzero;stroke:none"/><path d="M188 130h-32v8h32z" style="fill:#404040;fill-opacity:1;fill-rule:nonzero;stroke:none"/><path d="M170 64h2v4h-2z" style="fill:#4c4c4c;fill-opacity:1;fill-rule:nonzero;stroke:none"/><path d="M0 0h2v3a1 1 0 1 1-2 0Z" style="fill:#0f0;fill-opacity:1;fill-rule:nonzero;stroke:none" transform="translate(170 68)"/></g></svg>