<svg xmlns="http://www.w3.org/2000/svg" xml:space="preserve" width="330.667" height="197.333" viewBox="0 0 330.667 197.333"><defs><clipPath id="a" clipPathUnits="userSpaceOnUse"><path d="M0 256h256V0H0Z"/></clipPath><clipPath id="b" clipPathUnits="userSpaceOnUse"><path d="M4 204h248V56H4Z"/></clipPath><clipPath id="c" clipPathUnits="userSpaceOnUse"><path d="M0 256h256V0H0Z"/></clipPath></defs><g clip-path="url(#a)" transform="matrix(1.33333 0 0 -1.33333 -5.333 272)"><g clip-path="url(#b)" style="opacity:.5"><path d="M0 0h-240v-148H8V0z" style="fill:#fff;fill-opacity:1;fill-rule:nonzero;stroke:none" transform="translate(244 204)"/></g></g><path d="M12 64h32v132H12Z" style="fill:gray;fill-opacity:1;fill-rule:nonzero;stroke:none" transform="matrix(1.33333 0 0 -1.33333 -5.333 272)"/><path d="M40 64H16v132h24z" style="fill:#b3b3b3;fill-opacity:1;fill-rule:nonzero;stroke:none" transform="matrix(1.33333 0 0 -1.33333 -5.333 272)"/><path d="M36 80H20v100h16z" style="fill:#e6e6e6;fill-opacity:1;fill-rule:nonzero;stroke:none" transform="matrix(1.33333 0 0 -1.33333 -5.333 272)"/><path d="M32 164h-8v8h8z" style="fill:#262626;fill-opacity:1;fill-rule:nonzero;stroke:none" transform="matrix(1.33333 0 0 -1.33333 -5.333 272)"/><path d="M32 148h-8v8h8z" style="fill:#4b5da7;fill-opacity:1;fill-rule:nonzero;stroke:none" transform="matrix(1.33333 0 0 -1.33333 -5.333 272)"/><path d="M32 128h-8v8h8z" style="fill:#1abf9f;fill-opacity:1;fill-rule:nonzero;stroke:none" transform="matrix(1.33333 0 0 -1.33333 -5.333 272)"/><path d="M212 64h32v132h-32z" style="fill:gray;fill-opacity:1;fill-rule:nonzero;stroke:none" transform="matrix(1.33333 0 0 -1.33333 -5.333 272)"/><path d="M240 64h-24v132h24z" style="fill:#b3b3b3;fill-opacity:1;fill-rule:nonzero;stroke:none" transform="matrix(1.33333 0 0 -1.33333 -5.333 272)"/><path d="M236 80h-16v100h16z" style="fill:#e6e6e6;fill-opacity:1;fill-rule:nonzero;stroke:none" transform="matrix(1.33333 0 0 -1.33333 -5.333 272)"/><path d="M232 164h-8v8h8z" style="fill:#262626;fill-opacity:1;fill-rule:nonzero;stroke:none" transform="matrix(1.33333 0 0 -1.33333 -5.333 272)"/><path d="M232 148h-8v8h8z" style="fill:#4b5da7;fill-opacity:1;fill-rule:nonzero;stroke:none" transform="matrix(1.33333 0 0 -1.33333 -5.333 272)"/><path d="M232 128h-8v8h8z" style="fill:#1abf9f;fill-opacity:1;fill-rule:nonzero;stroke:none" transform="matrix(1.33333 0 0 -1.33333 -5.333 272)"/><path d="M212 64H44v132h168z" style="fill:#b3b3b3;fill-opacity:1;fill-rule:nonzero;stroke:none" transform="matrix(1.33333 0 0 -1.33333 -5.333 272)"/><g clip-path="url(#c)" transform="matrix(1.33333 0 0 -1.33333 -5.333 272)"><path d="M0 0h-136a8 8 0 0 0-8 8v100a8 8 0 0 0 8 8H0a8 8 0 0 0 8-8V8a8 8 0 0 0-8-8" style="fill:gray;fill-opacity:1;fill-rule:nonzero;stroke:none" transform="translate(196 72)"/><path d="M0 0h-128c-4.4 0-8-3.6-8-8l4-36v-56c0-4.4 3.6-8 8-8H-4c4.4 0 8 3.6 8 8v56L8-8c0 4.4-3.6 8-8 8" style="fill:#262626;fill-opacity:1;fill-rule:nonzero;stroke:none" transform="translate(192 184)"/><path d="M0 0h-128a4.005 4.005 0 0 1-3.996-3.816l3.972-35.742.024-.22V-96c0-2.206 1.794-4 4-4H-4c2.206 0 4 1.794 4 4v56.222l.024.22L3.996-3.816A4.005 4.005 0 0 1 0 0m0-2a1.996 1.996 0 0 0 1.988-1.777l-3.951-35.56-.024-.221-.013-.109V-96c0-1.103-.897-2-2-2h-120c-1.103 0-2 .897-2 2v56.333l-.012.109-.025.221-3.951 35.56A1.996 1.996 0 0 0-128-2z" style="fill:#fff;fill-opacity:1;fill-rule:nonzero;stroke:none" transform="translate(192 180)"/><path d="M0 0h-112a2 2 0 0 0-2 2v8a2 2 0 0 0 2 2H0a2 2 0 0 0 2-2V2a2 2 0 0 0-2-2" style="fill:#ccc;fill-opacity:1;fill-rule:nonzero;stroke:none" transform="translate(186 156)"/><path d="M160 132H96v12h64z" style="fill:#404040;fill-opacity:1;fill-rule:nonzero;stroke:none"/><path d="M136 100h-32v20h32z" style="fill:#b3b3b3;fill-opacity:1;fill-rule:nonzero;stroke:none"/><path d="M152 100h-12v20h12z" style="fill:#e77f22;fill-opacity:1;fill-rule:nonzero;stroke:none"/></g></svg>