<?xml version="1.0" encoding="UTF-8" standalone="no"?>
<svg
   xmlns:dc="http://purl.org/dc/elements/1.1/"
   xmlns:cc="http://creativecommons.org/ns#"
   xmlns:rdf="http://www.w3.org/1999/02/22-rdf-syntax-ns#"
   xmlns:svg="http://www.w3.org/2000/svg"
   xmlns="http://www.w3.org/2000/svg"
   viewBox="0 0 330.66665 197.33333"
   height="197.33333"
   width="330.66666"
   xml:space="preserve"
   id="svg2"
   version="1.1"><metadata
     id="metadata8"><rdf:RDF><cc:Work
         rdf:about=""><dc:format>image/svg+xml</dc:format><dc:type
           rdf:resource="http://purl.org/dc/dcmitype/StillImage" /></cc:Work></rdf:RDF></metadata><defs
     id="defs6"><clipPath
       id="clipPath18"
       clipPathUnits="userSpaceOnUse"><path
         id="path16"
         d="M 0,256 H 256 V 0 H 0 Z" /></clipPath><clipPath
       id="clipPath26"
       clipPathUnits="userSpaceOnUse"><path
         id="path24"
         d="M 4,204 H 252 V 56 H 4 Z" /></clipPath><clipPath
       id="clipPath68"
       clipPathUnits="userSpaceOnUse"><path
         id="path66"
         d="M 0,256 H 256 V 0 H 0 Z" /></clipPath></defs><g
     transform="matrix(1.3333333,0,0,-1.3333333,-5.3333332,271.99999)"
     id="g10"><g
       id="g12"><g
         clip-path="url(#clipPath18)"
         id="g14"><g
           id="g20"><g
             id="g22" /><g
             id="g34"><g
               style="opacity:0.5"
               id="g32"
               clip-path="url(#clipPath26)"><g
                 id="g30"
                 transform="translate(244,204)"><path
                   id="path28"
                   style="fill:#ffffff;fill-opacity:1;fill-rule:nonzero;stroke:none"
                   d="m 0,0 h -4 -24 -4 -168 -4 -24 -4 -8 v -8 -132 -8 h 8 4 24 4 168 4 24 4 8 v 8 132 8 z" /></g></g></g></g></g></g><path
       id="path36"
       style="fill:#808080;fill-opacity:1;fill-rule:nonzero;stroke:none"
       d="M 12,64 H 44 V 196 H 12 Z" /><path
       id="path38"
       style="fill:#b3b3b3;fill-opacity:1;fill-rule:nonzero;stroke:none"
       d="M 40,64 H 16 v 132 h 24 z" /><path
       id="path40"
       style="fill:#e6e6e6;fill-opacity:1;fill-rule:nonzero;stroke:none"
       d="M 36,80 H 20 v 100 h 16 z" /><path
       id="path42"
       style="fill:#262626;fill-opacity:1;fill-rule:nonzero;stroke:none"
       d="m 32,164 h -8 v 8 h 8 z" /><path
       id="path44"
       style="fill:#4b5da7;fill-opacity:1;fill-rule:nonzero;stroke:none"
       d="m 32,148 h -8 v 8 h 8 z" /><path
       id="path46"
       style="fill:#1abf9f;fill-opacity:1;fill-rule:nonzero;stroke:none"
       d="m 32,128 h -8 v 8 h 8 z" /><path
       id="path48"
       style="fill:#808080;fill-opacity:1;fill-rule:nonzero;stroke:none"
       d="m 212,64 h 32 v 132 h -32 z" /><path
       id="path50"
       style="fill:#b3b3b3;fill-opacity:1;fill-rule:nonzero;stroke:none"
       d="m 240,64 h -24 v 132 h 24 z" /><path
       id="path52"
       style="fill:#e6e6e6;fill-opacity:1;fill-rule:nonzero;stroke:none"
       d="m 236,80 h -16 v 100 h 16 z" /><path
       id="path54"
       style="fill:#262626;fill-opacity:1;fill-rule:nonzero;stroke:none"
       d="m 232,164 h -8 v 8 h 8 z" /><path
       id="path56"
       style="fill:#4b5da7;fill-opacity:1;fill-rule:nonzero;stroke:none"
       d="m 232,148 h -8 v 8 h 8 z" /><path
       id="path58"
       style="fill:#1abf9f;fill-opacity:1;fill-rule:nonzero;stroke:none"
       d="m 232,128 h -8 v 8 h 8 z" /><path
       id="path60"
       style="fill:#b3b3b3;fill-opacity:1;fill-rule:nonzero;stroke:none"
       d="M 212,64 H 44 v 132 h 168 z" /><g
       id="g62"><g
         clip-path="url(#clipPath68)"
         id="g64"><g
           transform="translate(196,72)"
           id="g70"><path
             id="path72"
             style="fill:#808080;fill-opacity:1;fill-rule:nonzero;stroke:none"
             d="m 0,0 h -136 c -4.418,0 -8,3.582 -8,8 v 100 c 0,4.418 3.582,8 8,8 H 0 c 4.418,0 8,-3.582 8,-8 V 8 C 8,3.582 4.418,0 0,0" /></g><g
           transform="translate(192,184)"
           id="g74"><path
             id="path76"
             style="fill:#262626;fill-opacity:1;fill-rule:nonzero;stroke:none"
             d="m 0,0 h -128 c -4.4,0 -8,-3.6 -8,-8 l 4,-36 v -56 c 0,-4.4 3.6,-8 8,-8 H -4 c 4.4,0 8,3.6 8,8 v 56 L 8,-8 C 8,-3.6 4.4,0 0,0" /></g><g
           transform="translate(192,180)"
           id="g78"><path
             id="path80"
             style="fill:#ffffff;fill-opacity:1;fill-rule:nonzero;stroke:none"
             d="m 0,0 h -128 c -2.144,0 -3.899,-1.695 -3.996,-3.816 l 3.972,-35.742 0.024,-0.22 V -40 -96 c 0,-2.206 1.794,-4 4,-4 H -4 c 2.206,0 4,1.794 4,4 v 56 0.222 l 0.024,0.22 3.972,35.742 C 3.899,-1.695 2.144,0 0,0 m 0,-2 c 1.028,0 1.877,-0.771 1.988,-1.777 L -1.963,-39.337 -1.987,-39.558 -2,-39.667 V -39.778 -40 -96 c 0,-1.103 -0.897,-2 -2,-2 h -120 c -1.103,0 -2,0.897 -2,2 v 56 0.222 0.111 l -0.012,0.109 -0.025,0.221 -3.951,35.56 c 0.111,1.006 0.96,1.777 1.988,1.777 L 0,-2" /></g><g
           transform="translate(186,156)"
           id="g82"><path
             id="path84"
             style="fill:#cccccc;fill-opacity:1;fill-rule:nonzero;stroke:none"
             d="m 0,0 h -112 c -1.104,0 -2,0.896 -2,2 v 8 c 0,1.104 0.896,2 2,2 H 0 c 1.104,0 2,-0.896 2,-2 V 2 C 2,0.896 1.104,0 0,0" /></g><path
           id="path86"
           style="fill:#404040;fill-opacity:1;fill-rule:nonzero;stroke:none"
           d="M 160,132 H 96 v 12 h 64 z" /><path
           id="path88"
           style="fill:#b3b3b3;fill-opacity:1;fill-rule:nonzero;stroke:none"
           d="m 136,100 h -32 v 20 h 32 z" /><path
           id="path90"
           style="fill:#e77f22;fill-opacity:1;fill-rule:nonzero;stroke:none"
           d="m 152,100 h -12 v 20 h 12 z" /></g></g></g></svg>