<svg xmlns="http://www.w3.org/2000/svg" xml:space="preserve" width="330.667" height="309.333" viewBox="0 0 330.667 309.333"><defs><clipPath id="a" clipPathUnits="userSpaceOnUse"><path d="M0 256h256V0H0Z"/></clipPath><clipPath id="b" clipPathUnits="userSpaceOnUse"><path d="M4 244h248V12H4Z"/></clipPath><clipPath id="c" clipPathUnits="userSpaceOnUse"><path d="M0 256h256V0H0Z"/></clipPath></defs><g clip-path="url(#a)" transform="matrix(1.33333 0 0 -1.33333 -5.333 325.333)"><g clip-path="url(#b)" style="opacity:.5"><path d="M252 12H4v232h248z" style="fill:#fff;fill-opacity:1;fill-rule:nonzero;stroke:none"/></g></g><path d="M244 20H12v216h232z" style="fill:#404040;fill-opacity:1;fill-rule:nonzero;stroke:none" transform="matrix(1.33333 0 0 -1.33333 -5.333 325.333)"/><path d="M244 216H12v4h232zm0-12H12v4h232zm0-12H12v4h232zm0-12H12v4h232zm0-12H12v4h232zm0-12H12v4h232zm-16-52h-84v20h84zm0-84h-84v44h84zm16 208H12v8h232z" style="fill:#333;fill-opacity:1;fill-rule:nonzero;stroke:none" transform="matrix(1.33333 0 0 -1.33333 -5.333 325.333)"/><path d="m0 0 8 108v100l-8 8z" style="fill:#3d0000;fill-opacity:1;fill-rule:nonzero;stroke:none" transform="matrix(1.33333 0 0 -1.33333 10.667 298.667)"/><path d="m0 0-8 108v100l8 8z" style="fill:#3d0000;fill-opacity:1;fill-rule:nonzero;stroke:none" transform="matrix(1.33333 0 0 -1.33333 320 298.667)"/><path d="M228 64h-84v12h84z" style="fill:#191919;fill-opacity:1;fill-rule:nonzero;stroke:none" transform="matrix(1.33333 0 0 -1.33333 -5.333 325.333)"/><path d="M216 64h-60v8h60z" style="fill:#404040;fill-opacity:1;fill-rule:nonzero;stroke:none" transform="matrix(1.33333 0 0 -1.33333 -5.333 325.333)"/><g clip-path="url(#c)" transform="matrix(1.33333 0 0 -1.33333 -5.333 325.333)"><path d="M0 0v-44l4-56h104V0a4 4 0 0 1-4 4H4a4 4 0 0 1-4-4" style="fill:#333;fill-opacity:1;fill-rule:nonzero;stroke:none" transform="translate(24 120)"/><path d="M120 40h-12v12h12zm-16 0H92v12h12zm-16 0H76v12h12zm-16 0H60v12h12zm-16 0H44v12h12z" style="fill:#404040;fill-opacity:1;fill-rule:nonzero;stroke:none"/><path d="M216 56h-60v4h60zm0-8h-60v4h60zm0-8h-60v4h60zm0-8h-60v4h60zm0-8h-60v4h60z" style="fill:#191919;fill-opacity:1;fill-rule:nonzero;stroke:none"/><path d="M0 0h-70.234a4 4 0 0 1-3.795-2.735L-77.117-12h84L3.795-2.735A4 4 0 0 1 0 0" style="fill:#4c4c4c;fill-opacity:1;fill-rule:nonzero;stroke:none" transform="translate(221.117 88)"/><path d="M132 100H24V76h108z" style="fill:#262626;fill-opacity:1;fill-rule:nonzero;stroke:none"/><path d="M40 40h-4v12h4z" style="fill:#404040;fill-opacity:1;fill-rule:nonzero;stroke:none"/></g></svg>