<svg xmlns="http://www.w3.org/2000/svg" xml:space="preserve" viewBox="0 0 256 256"><path d="M244 60H4v136h248V60z" style="opacity:.5;fill:#fff"/><path d="M12 68h232v112H12z" style="fill:#d9d4bc"/><path d="M152 136h-2v-8h2a2 2 0 0 1 2 2v4a2 2 0 0 1-2 2" style="fill:#a6a390"/><path d="M12 176h232v12H12z" style="fill:#c4c0aa"/><path d="M86 176h2v12h-2zm-64 0h2v12h-2zm128 0h2v12h-2z" style="fill:#a6a390"/><path d="M150 88H22v88h2V90h126v86h2V88z" style="fill:#c4c0aa"/><path d="M32 160h112v12H32z" style="fill:#131316"/><path d="M26 92h2v16h-2zm4 0h2v16h-2zm4 0h2v16h-2zm4 0h2v16h-2zm4 0h2v16h-2zm4 0h2v16h-2zm4 0h2v16h-2zm4 0h2v16h-2zm4 0h2v16h-2zm4 0h2v16h-2zm4 0h2v16h-2zm4 0h2v16h-2zm4 0h2v16h-2zm4 0h2v16h-2zm4 0h2v16h-2zm4 0h2v16h-2zm4 0h2v16h-2zm4 0h2v16h-2zm4 0h2v16h-2zm4 0h2v16h-2zm4 0h2v16h-2zm4 0h2v16h-2zm4 0h2v16h-2zm4 0h2v16h-2zm4 0h2v16h-2zm4 0h2v16h-2zm4 0h2v16h-2zm4 0h2v16h-2zm4 0h2v16h-2zm4 0h2v16h-2zm4 0h2v16h-2zM26 72h2v12h-2zm4 0h2v12h-2zm4 0h2v12h-2zm4 0h2v12h-2zm4 0h2v12h-2zm4 0h2v12h-2zm4 0h2v12h-2zm4 0h2v12h-2zm4 0h2v12h-2zm4 0h2v12h-2zm4 0h2v12h-2zm4 0h2v12h-2zm4 0h2v12h-2zm4 0h2v12h-2zm4 0h2v12h-2zm4 0h2v12h-2zm4 0h2v12h-2zm4 0h2v12h-2zm4 0h2v12h-2zm4 0h2v12h-2zm4 0h2v12h-2zm4 0h2v12h-2zm4 0h2v12h-2zm4 0h2v12h-2zm4 0h2v12h-2zm4 0h2v12h-2zm4 0h2v12h-2zm4 0h2v12h-2zm4 0h2v12h-2zm4 0h2v12h-2zm4 0h2v12h-2zm8 0h2v36h-2zm4 0h2v36h-2zm4 0h2v36h-2zm4 0h2v36h-2zm4 0h2v36h-2zm4 0h2v36h-2zm4 0h2v36h-2zm4 0h2v36h-2zm4 0h2v36h-2zm4 0h2v36h-2zm4 0h2v36h-2zm4 0h2v36h-2zm4 0h2v36h-2zm4 0h2v36h-2zm4 0h2v36h-2zm4 0h2v36h-2zm4 0h2v36h-2zm4 0h2v36h-2zm4 0h2v36h-2zm4 0h2v36h-2z" style="fill:#a6a390"/><path d="M164 160h8v12h-8z" style="fill:#c4c0aa"/><path d="M164 166h8v2h-8z" style="fill:#a6a390"/><path d="M224 160h8v12h-8z" style="fill:#c4c0aa"/><path d="M224 166h8v2h-8z" style="fill:#a6a390"/><path d="M216 172h-36l-3-4v-8h42v8z" style="fill:#c4c0aa"/></svg>