<?xml version="1.0" encoding="UTF-8" standalone="no"?>
<svg
   xmlns:dc="http://purl.org/dc/elements/1.1/"
   xmlns:cc="http://creativecommons.org/ns#"
   xmlns:rdf="http://www.w3.org/1999/02/22-rdf-syntax-ns#"
   xmlns:svg="http://www.w3.org/2000/svg"
   xmlns="http://www.w3.org/2000/svg"
   viewBox="0 0 330.66665 213.33333"
   height="213.33333"
   width="330.66666"
   xml:space="preserve"
   id="svg2"
   version="1.1"><metadata
     id="metadata8"><rdf:RDF><cc:Work
         rdf:about=""><dc:format>image/svg+xml</dc:format><dc:type
           rdf:resource="http://purl.org/dc/dcmitype/StillImage" /></cc:Work></rdf:RDF></metadata><defs
     id="defs6"><clipPath
       id="clipPath18"
       clipPathUnits="userSpaceOnUse"><path
         id="path16"
         d="M 0,256 H 256 V 0 H 0 Z" /></clipPath><clipPath
       id="clipPath26"
       clipPathUnits="userSpaceOnUse"><path
         id="path24"
         d="M 4,208 H 252 V 48 H 4 Z" /></clipPath><clipPath
       id="clipPath44"
       clipPathUnits="userSpaceOnUse"><path
         id="path42"
         d="M 0,256 H 256 V 0 H 0 Z" /></clipPath></defs><g
     transform="matrix(1.3333333,0,0,-1.3333333,-5.3333332,277.33333)"
     id="g10"><g
       id="g12"><g
         clip-path="url(#clipPath18)"
         id="g14"><g
           id="g20"><g
             id="g22" /><g
             id="g34"><g
               style="opacity:0.5"
               id="g32"
               clip-path="url(#clipPath26)"><g
                 id="g30"
                 transform="translate(252,208)"><path
                   id="path28"
                   style="fill:#ffffff;fill-opacity:1;fill-rule:nonzero;stroke:none"
                   d="m 0,0 h -8 -232 -8 v -8 -144 -8 h 8 232 8 v 8 144 z" /></g></g></g></g></g></g><path
       id="path36"
       style="fill:#333333;fill-opacity:1;fill-rule:nonzero;stroke:none"
       d="M 244,56 H 12 v 144 h 232 z" /><g
       id="g38"><g
         clip-path="url(#clipPath44)"
         id="g40"><g
           transform="translate(124,100)"
           id="g46"><path
             id="path48"
             style="fill:#191919;fill-opacity:1;fill-rule:nonzero;stroke:none"
             d="m 0,0 h -100 c -2.209,0 -4,1.791 -4,4 v 84 c 0,2.209 1.791,4 4,4 H 0 c 2.209,0 4,-1.791 4,-4 V 4 C 4,1.791 2.209,0 0,0" /></g><path
           id="path50"
           style="fill:#191919;fill-opacity:1;fill-rule:nonzero;stroke:none"
           d="M 236,92 H 20 V 64 H 236 Z M 235,65 H 21 v 26 h 214 z" /><path
           id="path52"
           style="fill:#191919;fill-opacity:1;fill-rule:nonzero;stroke:none"
           d="m 140,172 h -4 v 20 h 4 z" /><path
           id="path54"
           style="fill:#191919;fill-opacity:1;fill-rule:nonzero;stroke:none"
           d="m 148,172 h -4 v 20 h 4 z" /><path
           id="path56"
           style="fill:#191919;fill-opacity:1;fill-rule:nonzero;stroke:none"
           d="m 156,172 h -4 v 20 h 4 z" /><path
           id="path58"
           style="fill:#191919;fill-opacity:1;fill-rule:nonzero;stroke:none"
           d="m 164,172 h -4 v 20 h 4 z" /><path
           id="path60"
           style="fill:#191919;fill-opacity:1;fill-rule:nonzero;stroke:none"
           d="m 172,172 h -4 v 20 h 4 z" /><path
           id="path62"
           style="fill:#191919;fill-opacity:1;fill-rule:nonzero;stroke:none"
           d="m 180,172 h -4 v 20 h 4 z" /><path
           id="path64"
           style="fill:#191919;fill-opacity:1;fill-rule:nonzero;stroke:none"
           d="m 188,172 h -4 v 20 h 4 z" /><path
           id="path66"
           style="fill:#191919;fill-opacity:1;fill-rule:nonzero;stroke:none"
           d="m 196,172 h -4 v 20 h 4 z" /><path
           id="path68"
           style="fill:#191919;fill-opacity:1;fill-rule:nonzero;stroke:none"
           d="m 204,172 h -4 v 20 h 4 z" /><path
           id="path70"
           style="fill:#191919;fill-opacity:1;fill-rule:nonzero;stroke:none"
           d="m 212,172 h -4 v 20 h 4 z" /><path
           id="path72"
           style="fill:#191919;fill-opacity:1;fill-rule:nonzero;stroke:none"
           d="m 220,172 h -4 v 20 h 4 z" /><path
           id="path74"
           style="fill:#191919;fill-opacity:1;fill-rule:nonzero;stroke:none"
           d="m 228,172 h -4 v 20 h 4 z" /><path
           id="path76"
           style="fill:#191919;fill-opacity:1;fill-rule:nonzero;stroke:none"
           d="m 28,64 h -4 v 28 h 4 z" /><path
           id="path78"
           style="fill:#191919;fill-opacity:1;fill-rule:nonzero;stroke:none"
           d="m 36,64 h -4 v 28 h 4 z" /><path
           id="path80"
           style="fill:#191919;fill-opacity:1;fill-rule:nonzero;stroke:none"
           d="m 44,64 h -4 v 28 h 4 z" /><path
           id="path82"
           style="fill:#191919;fill-opacity:1;fill-rule:nonzero;stroke:none"
           d="m 52,64 h -4 v 28 h 4 z" /><path
           id="path84"
           style="fill:#191919;fill-opacity:1;fill-rule:nonzero;stroke:none"
           d="m 60,64 h -4 v 28 h 4 z" /><path
           id="path86"
           style="fill:#191919;fill-opacity:1;fill-rule:nonzero;stroke:none"
           d="m 68,64 h -4 v 28 h 4 z" /><path
           id="path88"
           style="fill:#191919;fill-opacity:1;fill-rule:nonzero;stroke:none"
           d="m 76,64 h -4 v 28 h 4 z" /><path
           id="path90"
           style="fill:#191919;fill-opacity:1;fill-rule:nonzero;stroke:none"
           d="m 84,64 h -4 v 28 h 4 z" /><path
           id="path92"
           style="fill:#191919;fill-opacity:1;fill-rule:nonzero;stroke:none"
           d="m 92,64 h -4 v 28 h 4 z" /><path
           id="path94"
           style="fill:#191919;fill-opacity:1;fill-rule:nonzero;stroke:none"
           d="m 100,64 h -4 v 28 h 4 z" /><path
           id="path96"
           style="fill:#191919;fill-opacity:1;fill-rule:nonzero;stroke:none"
           d="m 236,172 h -4 v 20 h 4 z" /><g
           transform="translate(236,192)"
           id="g98"><path
             id="path100"
             style="fill:#191919;fill-opacity:1;fill-rule:nonzero;stroke:none"
             d="m 0,0 h -104 v -92 h 20 v 12.546 h 64 V -92 H 0 Z m -1,-1 v -90 h -18 v 11.546 1 h -1 -64 -1 v -1 V -91 h -18 v 90 z" /></g><g
           transform="translate(132,172)"
           id="g102"><path
             id="path104"
             style="fill:none;stroke:#191919;stroke-width:1;stroke-linecap:butt;stroke-linejoin:miter;stroke-miterlimit:10;stroke-dasharray:none;stroke-opacity:1"
             d="M 0,0 H 104" /></g><g
           transform="translate(156,108)"
           id="g106"><path
             id="path108"
             style="fill:#cccccc;fill-opacity:1;fill-rule:nonzero;stroke:none"
             d="m 0,0 v -8 l 4,-6 h 48 l 4,6 v 8 z" /></g><path
           id="path110"
           style="fill:#cccccc;fill-opacity:1;fill-rule:nonzero;stroke:none"
           d="m 212,76 h -72 v 12 h 72 z" /><path
           id="path112"
           style="fill:#191919;fill-opacity:1;fill-rule:nonzero;stroke:none"
           d="m 212,68 h -72 v 8 h 72 z" /><path
           id="path114"
           style="fill:#191919;fill-opacity:1;fill-rule:nonzero;stroke:none"
           d="m 136,68 h -12 v 20 h 12 z" /><path
           id="path116"
           style="fill:#191919;fill-opacity:1;fill-rule:nonzero;stroke:none"
           d="m 228,68 h -12 v 20 h 12 z" /><g
           transform="translate(226,78)"
           id="g118"><path
             id="path120"
             style="fill:#262626;fill-opacity:1;fill-rule:nonzero;stroke:none"
             d="m 0,0 c 0,-2.209 -1.791,-4 -4,-4 -2.209,0 -4,1.791 -4,4 0,2.209 1.791,4 4,4 2.209,0 4,-1.791 4,-4" /></g><path
           id="path122"
           style="fill:#262626;fill-opacity:1;fill-rule:nonzero;stroke:none"
           d="m 136,76 h -12 v 4 h 12 z" /><g
           transform="translate(130,72)"
           id="g124"><path
             id="path126"
             style="fill:#262626;fill-opacity:1;fill-rule:nonzero;stroke:none"
             d="M 0,0 -2.829,2.828 H 2.828 Z" /></g><g
           transform="translate(130,84)"
           id="g128"><path
             id="path130"
             style="fill:#262626;fill-opacity:1;fill-rule:nonzero;stroke:none"
             d="M 0,0 2.828,-2.828 H -2.829 Z" /></g><g
           transform="translate(95.2178,148)"
           id="g132"><path
             id="path134"
             style="fill:#191919;fill-opacity:1;fill-rule:nonzero;stroke:none"
             d="M 0,0 H 28.782 V 40 H -0.003 L -1.288,38.963 H -21.491 L -22.661,40 h -48.557 l 0.007,-40 h 48.587 l 1.139,1.027 h 20.207 z" /></g><g
           transform="translate(124,188)"
           id="g136"><path
             id="path138"
             style="fill:#333333;fill-opacity:1;fill-rule:nonzero;stroke:none"
             d="m 0,0 h -28.786 l -5.342,-4.302 h -1.722 v -1.614 l -9.257,0.078 v 1.614 h -1.556 L -51.443,0 H -100 l 0.007,-39.88 h 48.587 l 4.77,4.289 h 1.586 v 1.608 h 9.224 v -1.608 h 1.691 l 5.353,-4.289 H 0 Z" /></g><g
           transform="translate(36.0688,169.3901)"
           id="g140"><path
             id="path142"
             style="fill:#cccccc;fill-opacity:1;fill-rule:nonzero;stroke:none"
             d="M 0,0 V -2.78 C 0,-4.316 -0.553,-5.557 -1.234,-5.557 H -7.39 c -0.681,0 -1.231,1.241 -1.231,2.777 V 0 c 0,1.536 0.55,2.776 1.231,2.776 h 6.156 C -0.553,2.776 0,1.536 0,0" /></g><path
           id="path144"
           style="fill:#b3b3b3;fill-opacity:1;fill-rule:nonzero;stroke:none"
           d="M 35.207,171.333 H 28.31 v -6.667 h 6.897 z" /><g
           transform="translate(67.1035,169.3901)"
           id="g146"><path
             id="path148"
             style="fill:#cccccc;fill-opacity:1;fill-rule:nonzero;stroke:none"
             d="M 0,0 V -2.78 C 0,-4.316 -0.553,-5.557 -1.234,-5.557 H -7.39 c -0.681,0 -1.231,1.241 -1.231,2.777 V 0 c 0,1.536 0.55,2.776 1.231,2.776 h 6.156 C -0.553,2.776 0,1.536 0,0" /></g><path
           id="path150"
           style="fill:#b3b3b3;fill-opacity:1;fill-rule:nonzero;stroke:none"
           d="m 66.241,171.333 h -6.896 v -6.667 h 6.896 z" /><g
           transform="translate(120.5518,168)"
           id="g152"><path
             id="path154"
             style="fill:#333333;fill-opacity:1;fill-rule:nonzero;stroke:none"
             d="m 0,0 c 0,-7.363 -6.176,-13.333 -13.793,-13.333 -7.618,0 -13.793,5.97 -13.793,13.333 0,7.363 6.175,13.333 13.793,13.333 C -6.176,13.333 0,7.363 0,0" /></g><g
           transform="translate(118.8276,168.0015)"
           id="g156"><path
             id="path158"
             style="fill:#191919;fill-opacity:1;fill-rule:nonzero;stroke:none"
             d="M 0,0 C -0.001,6.443 -5.404,11.666 -12.069,11.665 -18.734,11.666 -24.137,6.443 -24.138,0 -24.139,-6.444 -18.735,-11.668 -12.069,-11.668 -5.403,-11.668 0,-6.444 0,0" /></g><g
           transform="translate(117.1035,168)"
           id="g160"><path
             id="path162"
             style="fill:#262626;fill-opacity:1;fill-rule:nonzero;stroke:none"
             d="m 0,0 c 0,-5.523 -4.632,-10 -10.345,-10 -5.713,0 -10.345,4.477 -10.345,10 0,5.523 4.632,10 10.345,10 C -4.632,10 0,5.523 0,0" /></g><g
           transform="translate(115.3794,167.9985)"
           id="g164"><path
             id="path166"
             style="fill:#b3b3b3;fill-opacity:1;fill-rule:nonzero;stroke:none"
             d="m 0,0 c 0,4.602 -3.858,8.334 -8.619,8.335 -4.762,0 -8.623,-3.731 -8.623,-8.335 0.001,-4.603 3.862,-8.333 8.623,-8.332 C -3.859,-8.331 -0.001,-4.601 0,0" /></g><g
           transform="translate(91.8594,186.9658)"
           id="g168"><path
             id="path170"
             style="fill:#808080;fill-opacity:1;fill-rule:nonzero;stroke:none"
             d="m 0,0 h -16.113 l 2.412,-2.211 h 1.614 v -1.433 l 7.28,-0.051 v 1.484 h 2.149 z" /></g><g
           transform="translate(91.8594,148.9287)"
           id="g172"><path
             id="path174"
             style="fill:#808080;fill-opacity:1;fill-rule:nonzero;stroke:none"
             d="m 0,0 -2.658,2.214 h -2.149 v 1.485 l -7.28,-0.052 V 2.214 h -1.614 L -16.113,0 Z" /></g><g
           transform="translate(87.793,176.3696)"
           id="g176"><path
             id="path178"
             style="fill:#191919;fill-opacity:1;fill-rule:nonzero;stroke:none"
             d="m 0,0 v -16.739 c 0,-0.442 -0.464,-0.797 -1.037,-0.797 H -4.14 c -0.572,0 -1.032,0.355 -1.032,0.797 V 0 c 0,0.442 0.46,0.797 1.032,0.797 h 3.103 C -0.464,0.797 0,0.442 0,0" /></g><g
           transform="translate(86.9312,175.6548)"
           id="g180"><path
             id="path182"
             style="fill:#262626;fill-opacity:1;fill-rule:nonzero;stroke:none"
             d="M 0,0 C 0,0.375 -0.428,0.679 -0.958,0.679 H -2.495 C -3.025,0.679 -3.448,0.375 -3.448,0 v -15.31 c 0,-0.375 0.423,-0.678 0.953,-0.678 h 1.537 c 0.53,0 0.958,0.303 0.958,0.678 z" /></g><g
           transform="translate(67.1035,181.8901)"
           id="g184"><path
             id="path186"
             style="fill:#cccccc;fill-opacity:1;fill-rule:nonzero;stroke:none"
             d="M 0,0 V -2.78 C 0,-4.316 -0.553,-5.557 -1.234,-5.557 H -7.39 c -0.681,0 -1.231,1.241 -1.231,2.777 V 0 c 0,1.536 0.55,2.776 1.231,2.776 h 6.156 C -0.553,2.776 0,1.536 0,0" /></g><path
           id="path188"
           style="fill:#b3b3b3;fill-opacity:1;fill-rule:nonzero;stroke:none"
           d="m 66.241,183.833 h -6.896 v -6.667 h 6.896 z" /><g
           transform="translate(56.7583,181.8901)"
           id="g190"><path
             id="path192"
             style="fill:#cccccc;fill-opacity:1;fill-rule:nonzero;stroke:none"
             d="M 0,0 V -2.78 C 0,-4.316 -0.553,-5.557 -1.234,-5.557 H -7.39 c -0.681,0 -1.231,1.241 -1.231,2.777 V 0 c 0,1.536 0.55,2.776 1.231,2.776 h 6.156 C -0.553,2.776 0,1.536 0,0" /></g><path
           id="path194"
           style="fill:#b3b3b3;fill-opacity:1;fill-rule:nonzero;stroke:none"
           d="M 55.896,183.833 H 49 v -6.667 h 6.896 z" /><g
           transform="translate(46.4136,181.8901)"
           id="g196"><path
             id="path198"
             style="fill:#cccccc;fill-opacity:1;fill-rule:nonzero;stroke:none"
             d="M 0,0 V -2.78 C 0,-4.316 -0.553,-5.557 -1.234,-5.557 H -7.39 c -0.681,0 -1.231,1.241 -1.231,2.777 V 0 c 0,1.536 0.55,2.776 1.231,2.776 h 6.156 C -0.553,2.776 0,1.536 0,0" /></g><path
           id="path200"
           style="fill:#b3b3b3;fill-opacity:1;fill-rule:nonzero;stroke:none"
           d="m 45.552,183.833 h -6.896 v -6.667 h 6.896 z" /><g
           transform="translate(36.0688,181.8901)"
           id="g202"><path
             id="path204"
             style="fill:#191919;fill-opacity:1;fill-rule:nonzero;stroke:none"
             d="M 0,0 V -2.78 C 0,-4.316 -0.553,-5.557 -1.234,-5.557 H -7.39 c -0.681,0 -1.231,1.241 -1.231,2.777 V 0 c 0,1.536 0.55,2.776 1.231,2.776 h 6.156 C -0.553,2.776 0,1.536 0,0" /></g><g
           transform="translate(56.7583,169.3901)"
           id="g206"><path
             id="path208"
             style="fill:#cccccc;fill-opacity:1;fill-rule:nonzero;stroke:none"
             d="M 0,0 V -2.78 C 0,-4.316 -0.553,-5.557 -1.234,-5.557 H -7.39 c -0.681,0 -1.231,1.241 -1.231,2.777 V 0 c 0,1.536 0.55,2.776 1.231,2.776 h 6.156 C -0.553,2.776 0,1.536 0,0" /></g><path
           id="path210"
           style="fill:#b3b3b3;fill-opacity:1;fill-rule:nonzero;stroke:none"
           d="M 55.896,171.333 H 49 v -6.667 h 6.896 z" /><g
           transform="translate(46.4136,169.3901)"
           id="g212"><path
             id="path214"
             style="fill:#cccccc;fill-opacity:1;fill-rule:nonzero;stroke:none"
             d="M 0,0 V -2.78 C 0,-4.316 -0.553,-5.557 -1.234,-5.557 H -7.39 c -0.681,0 -1.231,1.241 -1.231,2.777 V 0 c 0,1.536 0.55,2.776 1.231,2.776 h 6.156 C -0.553,2.776 0,1.536 0,0" /></g><path
           id="path216"
           style="fill:#b3b3b3;fill-opacity:1;fill-rule:nonzero;stroke:none"
           d="m 45.552,171.333 h -6.896 v -6.667 h 6.896 z" /><g
           transform="translate(36.0688,156.8901)"
           id="g218"><path
             id="path220"
             style="fill:#191919;fill-opacity:1;fill-rule:nonzero;stroke:none"
             d="M 0,0 V -2.78 C 0,-4.316 -0.553,-5.557 -1.234,-5.557 H -7.39 c -0.681,0 -1.231,1.241 -1.231,2.777 V 0 c 0,1.536 0.55,2.776 1.231,2.776 h 6.156 C -0.553,2.776 0,1.536 0,0" /></g><g
           transform="translate(67.1035,156.8901)"
           id="g222"><path
             id="path224"
             style="fill:#cccccc;fill-opacity:1;fill-rule:nonzero;stroke:none"
             d="M 0,0 V -2.78 C 0,-4.316 -0.553,-5.557 -1.234,-5.557 H -7.39 c -0.681,0 -1.231,1.241 -1.231,2.777 V 0 c 0,1.536 0.55,2.776 1.231,2.776 h 6.156 C -0.553,2.776 0,1.536 0,0" /></g><path
           id="path226"
           style="fill:#b3b3b3;fill-opacity:1;fill-rule:nonzero;stroke:none"
           d="m 66.241,158.833 h -6.896 v -6.667 h 6.896 z" /><g
           transform="translate(56.7583,156.8901)"
           id="g228"><path
             id="path230"
             style="fill:#cccccc;fill-opacity:1;fill-rule:nonzero;stroke:none"
             d="M 0,0 V -2.78 C 0,-4.316 -0.553,-5.557 -1.234,-5.557 H -7.39 c -0.681,0 -1.231,1.241 -1.231,2.777 V 0 c 0,1.536 0.55,2.776 1.231,2.776 h 6.156 C -0.553,2.776 0,1.536 0,0" /></g><path
           id="path232"
           style="fill:#b3b3b3;fill-opacity:1;fill-rule:nonzero;stroke:none"
           d="M 55.896,158.833 H 49 v -6.667 h 6.896 z" /><g
           transform="translate(46.4136,156.8901)"
           id="g234"><path
             id="path236"
             style="fill:#cccccc;fill-opacity:1;fill-rule:nonzero;stroke:none"
             d="M 0,0 V -2.78 C 0,-4.316 -0.553,-5.557 -1.234,-5.557 H -7.39 c -0.681,0 -1.231,1.241 -1.231,2.777 V 0 c 0,1.536 0.55,2.776 1.231,2.776 h 6.156 C -0.553,2.776 0,1.536 0,0" /></g><path
           id="path238"
           style="fill:#b3b3b3;fill-opacity:1;fill-rule:nonzero;stroke:none"
           d="m 45.552,158.833 h -6.896 v -6.667 h 6.896 z" /><g
           transform="translate(95.2178,104)"
           id="g240"><path
             id="path242"
             style="fill:#191919;fill-opacity:1;fill-rule:nonzero;stroke:none"
             d="M 0,0 H 28.782 V 40 H -0.003 L -1.288,38.963 H -21.491 L -22.661,40 h -48.557 l 0.007,-40 h 48.587 l 1.139,1.027 h 20.207 z" /></g><g
           transform="translate(124,144)"
           id="g244"><path
             id="path246"
             style="fill:#333333;fill-opacity:1;fill-rule:nonzero;stroke:none"
             d="m 0,0 h -28.786 l -5.342,-4.302 h -1.722 v -1.614 l -9.257,0.078 v 1.614 h -1.556 L -51.443,0 H -100 l 0.007,-39.88 h 48.587 l 4.77,4.289 h 1.586 v 1.608 h 9.224 v -1.608 h 1.691 l 5.353,-4.289 H 0 Z" /></g><g
           transform="translate(36.0688,125.3896)"
           id="g248"><path
             id="path250"
             style="fill:#cccccc;fill-opacity:1;fill-rule:nonzero;stroke:none"
             d="M 0,0 V -2.779 C 0,-4.316 -0.553,-5.557 -1.234,-5.557 H -7.39 c -0.681,0 -1.231,1.241 -1.231,2.778 V 0 c 0,1.537 0.55,2.777 1.231,2.777 h 6.156 C -0.553,2.777 0,1.537 0,0" /></g><path
           id="path252"
           style="fill:#b3b3b3;fill-opacity:1;fill-rule:nonzero;stroke:none"
           d="M 35.207,127.333 H 28.31 v -6.667 h 6.897 z" /><g
           transform="translate(67.1035,125.3896)"
           id="g254"><path
             id="path256"
             style="fill:#cccccc;fill-opacity:1;fill-rule:nonzero;stroke:none"
             d="M 0,0 V -2.779 C 0,-4.316 -0.553,-5.557 -1.234,-5.557 H -7.39 c -0.681,0 -1.231,1.241 -1.231,2.778 V 0 c 0,1.537 0.55,2.777 1.231,2.777 h 6.156 C -0.553,2.777 0,1.537 0,0" /></g><path
           id="path258"
           style="fill:#b3b3b3;fill-opacity:1;fill-rule:nonzero;stroke:none"
           d="m 66.241,127.333 h -6.896 v -6.667 h 6.896 z" /><g
           transform="translate(120.5518,124)"
           id="g260"><path
             id="path262"
             style="fill:#333333;fill-opacity:1;fill-rule:nonzero;stroke:none"
             d="m 0,0 c 0,-7.363 -6.176,-13.333 -13.793,-13.333 -7.618,0 -13.793,5.97 -13.793,13.333 0,7.363 6.175,13.333 13.793,13.333 C -6.176,13.333 0,7.363 0,0" /></g><g
           transform="translate(118.8276,124.002)"
           id="g264"><path
             id="path266"
             style="fill:#191919;fill-opacity:1;fill-rule:nonzero;stroke:none"
             d="m 0,0 c -0.001,6.442 -5.404,11.665 -12.069,11.665 -6.665,0 -12.068,-5.223 -12.069,-11.665 -10e-4,-6.444 5.403,-11.669 12.069,-11.669 C -5.403,-11.669 0,-6.444 0,0" /></g><g
           transform="translate(117.1035,124)"
           id="g268"><path
             id="path270"
             style="fill:#262626;fill-opacity:1;fill-rule:nonzero;stroke:none"
             d="m 0,0 c 0,-5.522 -4.632,-10 -10.345,-10 -5.713,0 -10.345,4.478 -10.345,10 0,5.523 4.632,10 10.345,10 C -4.632,10 0,5.523 0,0" /></g><g
           transform="translate(115.3794,123.998)"
           id="g272"><path
             id="path274"
             style="fill:#b3b3b3;fill-opacity:1;fill-rule:nonzero;stroke:none"
             d="M 0,0 C 0,4.603 -3.858,8.334 -8.619,8.335 -13.381,8.336 -17.242,4.604 -17.242,0 -17.241,-4.602 -13.38,-8.332 -8.619,-8.331 -3.859,-8.33 -0.001,-4.601 0,0" /></g><g
           transform="translate(91.8594,142.9658)"
           id="g276"><path
             id="path278"
             style="fill:#808080;fill-opacity:1;fill-rule:nonzero;stroke:none"
             d="m 0,0 h -16.113 l 2.412,-2.211 h 1.614 v -1.433 l 7.28,-0.051 v 1.484 h 2.149 z" /></g><g
           transform="translate(91.8594,104.9287)"
           id="g280"><path
             id="path282"
             style="fill:#808080;fill-opacity:1;fill-rule:nonzero;stroke:none"
             d="m 0,0 -2.658,2.214 h -2.149 v 1.485 l -7.28,-0.052 V 2.214 h -1.614 L -16.113,0 Z" /></g><g
           transform="translate(87.793,132.3696)"
           id="g284"><path
             id="path286"
             style="fill:#191919;fill-opacity:1;fill-rule:nonzero;stroke:none"
             d="m 0,0 v -16.739 c 0,-0.442 -0.464,-0.798 -1.037,-0.798 H -4.14 c -0.572,0 -1.032,0.356 -1.032,0.798 V 0 c 0,0.442 0.46,0.797 1.032,0.797 h 3.103 C -0.464,0.797 0,0.442 0,0" /></g><g
           transform="translate(86.9312,131.6548)"
           id="g288"><path
             id="path290"
             style="fill:#262626;fill-opacity:1;fill-rule:nonzero;stroke:none"
             d="M 0,0 C 0,0.375 -0.428,0.679 -0.958,0.679 H -2.495 C -3.025,0.679 -3.448,0.375 -3.448,0 v -15.309 c 0,-0.376 0.423,-0.679 0.953,-0.679 h 1.537 c 0.53,0 0.958,0.303 0.958,0.679 z" /></g><g
           transform="translate(67.1035,137.8901)"
           id="g292"><path
             id="path294"
             style="fill:#cccccc;fill-opacity:1;fill-rule:nonzero;stroke:none"
             d="M 0,0 V -2.78 C 0,-4.316 -0.553,-5.557 -1.234,-5.557 H -7.39 c -0.681,0 -1.231,1.241 -1.231,2.777 V 0 c 0,1.536 0.55,2.776 1.231,2.776 h 6.156 C -0.553,2.776 0,1.536 0,0" /></g><path
           id="path296"
           style="fill:#b3b3b3;fill-opacity:1;fill-rule:nonzero;stroke:none"
           d="m 66.241,139.833 h -6.896 v -6.667 h 6.896 z" /><g
           transform="translate(56.7583,137.8901)"
           id="g298"><path
             id="path300"
             style="fill:#cccccc;fill-opacity:1;fill-rule:nonzero;stroke:none"
             d="M 0,0 V -2.78 C 0,-4.316 -0.553,-5.557 -1.234,-5.557 H -7.39 c -0.681,0 -1.231,1.241 -1.231,2.777 V 0 c 0,1.536 0.55,2.776 1.231,2.776 h 6.156 C -0.553,2.776 0,1.536 0,0" /></g><path
           id="path302"
           style="fill:#b3b3b3;fill-opacity:1;fill-rule:nonzero;stroke:none"
           d="M 55.896,139.833 H 49 v -6.667 h 6.896 z" /><g
           transform="translate(46.4136,137.8901)"
           id="g304"><path
             id="path306"
             style="fill:#cccccc;fill-opacity:1;fill-rule:nonzero;stroke:none"
             d="M 0,0 V -2.78 C 0,-4.316 -0.553,-5.557 -1.234,-5.557 H -7.39 c -0.681,0 -1.231,1.241 -1.231,2.777 V 0 c 0,1.536 0.55,2.776 1.231,2.776 h 6.156 C -0.553,2.776 0,1.536 0,0" /></g><path
           id="path308"
           style="fill:#b3b3b3;fill-opacity:1;fill-rule:nonzero;stroke:none"
           d="m 45.552,139.833 h -6.896 v -6.667 h 6.896 z" /><g
           transform="translate(36.0688,137.8901)"
           id="g310"><path
             id="path312"
             style="fill:#191919;fill-opacity:1;fill-rule:nonzero;stroke:none"
             d="M 0,0 V -2.78 C 0,-4.316 -0.553,-5.557 -1.234,-5.557 H -7.39 c -0.681,0 -1.231,1.241 -1.231,2.777 V 0 c 0,1.536 0.55,2.776 1.231,2.776 h 6.156 C -0.553,2.776 0,1.536 0,0" /></g><g
           transform="translate(56.7583,125.3896)"
           id="g314"><path
             id="path316"
             style="fill:#cccccc;fill-opacity:1;fill-rule:nonzero;stroke:none"
             d="M 0,0 V -2.779 C 0,-4.316 -0.553,-5.557 -1.234,-5.557 H -7.39 c -0.681,0 -1.231,1.241 -1.231,2.778 V 0 c 0,1.537 0.55,2.777 1.231,2.777 h 6.156 C -0.553,2.777 0,1.537 0,0" /></g><path
           id="path318"
           style="fill:#b3b3b3;fill-opacity:1;fill-rule:nonzero;stroke:none"
           d="M 55.896,127.333 H 49 v -6.667 h 6.896 z" /><g
           transform="translate(46.4136,125.3896)"
           id="g320"><path
             id="path322"
             style="fill:#cccccc;fill-opacity:1;fill-rule:nonzero;stroke:none"
             d="M 0,0 V -2.779 C 0,-4.316 -0.553,-5.557 -1.234,-5.557 H -7.39 c -0.681,0 -1.231,1.241 -1.231,2.778 V 0 c 0,1.537 0.55,2.777 1.231,2.777 h 6.156 C -0.553,2.777 0,1.537 0,0" /></g><path
           id="path324"
           style="fill:#b3b3b3;fill-opacity:1;fill-rule:nonzero;stroke:none"
           d="m 45.552,127.333 h -6.896 v -6.667 h 6.896 z" /><g
           transform="translate(36.0688,112.8896)"
           id="g326"><path
             id="path328"
             style="fill:#191919;fill-opacity:1;fill-rule:nonzero;stroke:none"
             d="M 0,0 V -2.779 C 0,-4.316 -0.553,-5.557 -1.234,-5.557 H -7.39 c -0.681,0 -1.231,1.241 -1.231,2.778 V 0 c 0,1.537 0.55,2.777 1.231,2.777 h 6.156 C -0.553,2.777 0,1.537 0,0" /></g><g
           transform="translate(67.1035,112.8896)"
           id="g330"><path
             id="path332"
             style="fill:#cccccc;fill-opacity:1;fill-rule:nonzero;stroke:none"
             d="M 0,0 V -2.779 C 0,-4.316 -0.553,-5.557 -1.234,-5.557 H -7.39 c -0.681,0 -1.231,1.241 -1.231,2.778 V 0 c 0,1.537 0.55,2.777 1.231,2.777 h 6.156 C -0.553,2.777 0,1.537 0,0" /></g><path
           id="path334"
           style="fill:#b3b3b3;fill-opacity:1;fill-rule:nonzero;stroke:none"
           d="m 66.241,114.833 h -6.896 v -6.666 h 6.896 z" /><g
           transform="translate(56.7583,112.8896)"
           id="g336"><path
             id="path338"
             style="fill:#cccccc;fill-opacity:1;fill-rule:nonzero;stroke:none"
             d="M 0,0 V -2.779 C 0,-4.316 -0.553,-5.557 -1.234,-5.557 H -7.39 c -0.681,0 -1.231,1.241 -1.231,2.778 V 0 c 0,1.537 0.55,2.777 1.231,2.777 h 6.156 C -0.553,2.777 0,1.537 0,0" /></g><path
           id="path340"
           style="fill:#b3b3b3;fill-opacity:1;fill-rule:nonzero;stroke:none"
           d="M 55.896,114.833 H 49 v -6.666 h 6.896 z" /><g
           transform="translate(46.4136,112.8896)"
           id="g342"><path
             id="path344"
             style="fill:#cccccc;fill-opacity:1;fill-rule:nonzero;stroke:none"
             d="M 0,0 V -2.779 C 0,-4.316 -0.553,-5.557 -1.234,-5.557 H -7.39 c -0.681,0 -1.231,1.241 -1.231,2.778 V 0 c 0,1.537 0.55,2.777 1.231,2.777 h 6.156 C -0.553,2.777 0,1.537 0,0" /></g><path
           id="path346"
           style="fill:#b3b3b3;fill-opacity:1;fill-rule:nonzero;stroke:none"
           d="m 45.552,114.833 h -6.896 v -6.666 h 6.896 z" /></g></g></g></svg>