<?xml version="1.0" encoding="iso-8859-1"?>
<!-- Generator: Adobe Illustrator 27.8.1, SVG Export Plug-In . SVG Version: 6.00 Build 0)  -->
<svg version="1.1" id="Layer_1" xmlns="http://www.w3.org/2000/svg" xmlns:xlink="http://www.w3.org/1999/xlink" x="0px" y="0px"
	 viewBox="0 0 256 256" style="enable-background:new 0 0 256 256;" xml:space="preserve">
<polygon style="opacity:0.5;fill:#FFFFFF;" points="244,60 12,60 4,60 4,68 4,176 4,180 4,188 4,196 12,196 22,196 24,196 86,196 
	88,196 150,196 152,196 244,196 252,196 252,188 252,180 252,176 252,68 252,60 "/>
<rect x="12" y="68" style="fill:#D9D4BC;" width="232" height="112"/>
<path style="fill:#A6A390;" d="M152,136h-2v-8h2c1.105,0,2,0.895,2,2v4C154,135.105,153.105,136,152,136z"/>
<rect x="12" y="176" style="fill:#C4C0AA;" width="232" height="12"/>
<rect x="86" y="176" style="fill:#A6A390;" width="2" height="12"/>
<rect x="22" y="176" style="fill:#A6A390;" width="2" height="12"/>
<rect x="150" y="176" style="fill:#A6A390;" width="2" height="12"/>
<polygon style="fill:#C4C0AA;" points="150,88 24,88 22,88 22,90 22,176 24,176 24,90 150,90 150,176 152,176 152,90 152,88 "/>
<rect x="32" y="160" style="fill:#131316;" width="112" height="12"/>
<rect x="26" y="92" style="fill:#A6A390;" width="2" height="16"/>
<rect x="30" y="92" style="fill:#A6A390;" width="2" height="16"/>
<rect x="34" y="92" style="fill:#A6A390;" width="2" height="16"/>
<rect x="38" y="92" style="fill:#A6A390;" width="2" height="16"/>
<rect x="42" y="92" style="fill:#A6A390;" width="2" height="16"/>
<rect x="46" y="92" style="fill:#A6A390;" width="2" height="16"/>
<rect x="50" y="92" style="fill:#A6A390;" width="2" height="16"/>
<rect x="54" y="92" style="fill:#A6A390;" width="2" height="16"/>
<rect x="58" y="92" style="fill:#A6A390;" width="2" height="16"/>
<rect x="62" y="92" style="fill:#A6A390;" width="2" height="16"/>
<rect x="66" y="92" style="fill:#A6A390;" width="2" height="16"/>
<rect x="70" y="92" style="fill:#A6A390;" width="2" height="16"/>
<rect x="74" y="92" style="fill:#A6A390;" width="2" height="16"/>
<rect x="78" y="92" style="fill:#A6A390;" width="2" height="16"/>
<rect x="82" y="92" style="fill:#A6A390;" width="2" height="16"/>
<rect x="86" y="92" style="fill:#A6A390;" width="2" height="16"/>
<rect x="90" y="92" style="fill:#A6A390;" width="2" height="16"/>
<rect x="94" y="92" style="fill:#A6A390;" width="2" height="16"/>
<rect x="98" y="92" style="fill:#A6A390;" width="2" height="16"/>
<rect x="102" y="92" style="fill:#A6A390;" width="2" height="16"/>
<rect x="106" y="92" style="fill:#A6A390;" width="2" height="16"/>
<rect x="110" y="92" style="fill:#A6A390;" width="2" height="16"/>
<rect x="114" y="92" style="fill:#A6A390;" width="2" height="16"/>
<rect x="118" y="92" style="fill:#A6A390;" width="2" height="16"/>
<rect x="122" y="92" style="fill:#A6A390;" width="2" height="16"/>
<rect x="126" y="92" style="fill:#A6A390;" width="2" height="16"/>
<rect x="130" y="92" style="fill:#A6A390;" width="2" height="16"/>
<rect x="134" y="92" style="fill:#A6A390;" width="2" height="16"/>
<rect x="138" y="92" style="fill:#A6A390;" width="2" height="16"/>
<rect x="142" y="92" style="fill:#A6A390;" width="2" height="16"/>
<rect x="146" y="92" style="fill:#A6A390;" width="2" height="16"/>
<rect x="26" y="72" style="fill:#A6A390;" width="2" height="12"/>
<rect x="30" y="72" style="fill:#A6A390;" width="2" height="12"/>
<rect x="34" y="72" style="fill:#A6A390;" width="2" height="12"/>
<rect x="38" y="72" style="fill:#A6A390;" width="2" height="12"/>
<rect x="42" y="72" style="fill:#A6A390;" width="2" height="12"/>
<rect x="46" y="72" style="fill:#A6A390;" width="2" height="12"/>
<rect x="50" y="72" style="fill:#A6A390;" width="2" height="12"/>
<rect x="54" y="72" style="fill:#A6A390;" width="2" height="12"/>
<rect x="58" y="72" style="fill:#A6A390;" width="2" height="12"/>
<rect x="62" y="72" style="fill:#A6A390;" width="2" height="12"/>
<rect x="66" y="72" style="fill:#A6A390;" width="2" height="12"/>
<rect x="70" y="72" style="fill:#A6A390;" width="2" height="12"/>
<rect x="74" y="72" style="fill:#A6A390;" width="2" height="12"/>
<rect x="78" y="72" style="fill:#A6A390;" width="2" height="12"/>
<rect x="82" y="72" style="fill:#A6A390;" width="2" height="12"/>
<rect x="86" y="72" style="fill:#A6A390;" width="2" height="12"/>
<rect x="90" y="72" style="fill:#A6A390;" width="2" height="12"/>
<rect x="94" y="72" style="fill:#A6A390;" width="2" height="12"/>
<rect x="98" y="72" style="fill:#A6A390;" width="2" height="12"/>
<rect x="102" y="72" style="fill:#A6A390;" width="2" height="12"/>
<rect x="106" y="72" style="fill:#A6A390;" width="2" height="12"/>
<rect x="110" y="72" style="fill:#A6A390;" width="2" height="12"/>
<rect x="114" y="72" style="fill:#A6A390;" width="2" height="12"/>
<rect x="118" y="72" style="fill:#A6A390;" width="2" height="12"/>
<rect x="122" y="72" style="fill:#A6A390;" width="2" height="12"/>
<rect x="126" y="72" style="fill:#A6A390;" width="2" height="12"/>
<rect x="130" y="72" style="fill:#A6A390;" width="2" height="12"/>
<rect x="134" y="72" style="fill:#A6A390;" width="2" height="12"/>
<rect x="138" y="72" style="fill:#A6A390;" width="2" height="12"/>
<rect x="142" y="72" style="fill:#A6A390;" width="2" height="12"/>
<rect x="146" y="72" style="fill:#A6A390;" width="2" height="12"/>
<rect x="154" y="72" style="fill:#A6A390;" width="2" height="36"/>
<rect x="158" y="72" style="fill:#A6A390;" width="2" height="36"/>
<rect x="162" y="72" style="fill:#A6A390;" width="2" height="36"/>
<rect x="166" y="72" style="fill:#A6A390;" width="2" height="36"/>
<rect x="170" y="72" style="fill:#A6A390;" width="2" height="36"/>
<rect x="174" y="72" style="fill:#A6A390;" width="2" height="36"/>
<rect x="178" y="72" style="fill:#A6A390;" width="2" height="36"/>
<rect x="182" y="72" style="fill:#A6A390;" width="2" height="36"/>
<rect x="186" y="72" style="fill:#A6A390;" width="2" height="36"/>
<rect x="190" y="72" style="fill:#A6A390;" width="2" height="36"/>
<rect x="194" y="72" style="fill:#A6A390;" width="2" height="36"/>
<rect x="198" y="72" style="fill:#A6A390;" width="2" height="36"/>
<rect x="202" y="72" style="fill:#A6A390;" width="2" height="36"/>
<rect x="206" y="72" style="fill:#A6A390;" width="2" height="36"/>
<rect x="210" y="72" style="fill:#A6A390;" width="2" height="36"/>
<rect x="214" y="72" style="fill:#A6A390;" width="2" height="36"/>
<rect x="218" y="72" style="fill:#A6A390;" width="2" height="36"/>
<rect x="222" y="72" style="fill:#A6A390;" width="2" height="36"/>
<rect x="226" y="72" style="fill:#A6A390;" width="2" height="36"/>
<rect x="230" y="72" style="fill:#A6A390;" width="2" height="36"/>
<rect x="164" y="160" style="fill:#C4C0AA;" width="8" height="12"/>
<rect x="164" y="166" style="fill:#A6A390;" width="8" height="2"/>
<rect x="224" y="160" style="fill:#C4C0AA;" width="8" height="12"/>
<rect x="224" y="166" style="fill:#A6A390;" width="8" height="2"/>
<polygon style="fill:#C4C0AA;" points="216,172 180,172 177,168 177,160 219,160 219,168 "/>
</svg>
