<svg xmlns="http://www.w3.org/2000/svg" xml:space="preserve" width="330.667" height="213.333" viewBox="0 0 330.667 213.333"><defs><clipPath id="a" clipPathUnits="userSpaceOnUse"><path d="M0 256h256V0H0Z"/></clipPath><clipPath id="b" clipPathUnits="userSpaceOnUse"><path d="M4 208h248V48H4Z"/></clipPath><clipPath id="c" clipPathUnits="userSpaceOnUse"><path d="M0 256h256V0H0Z"/></clipPath></defs><g clip-path="url(#a)" transform="matrix(1.33333 0 0 -1.33333 -5.333 277.333)"><g clip-path="url(#b)" style="opacity:.5"><path d="M0 0h-248v-160H0V-8z" style="fill:#fff;fill-opacity:1;fill-rule:nonzero;stroke:none" transform="translate(252 208)"/></g></g><path d="M244 56H12v144h232z" style="fill:#333;fill-opacity:1;fill-rule:nonzero;stroke:none" transform="matrix(1.33333 0 0 -1.33333 -5.333 277.333)"/><g clip-path="url(#c)" transform="matrix(1.33333 0 0 -1.33333 -5.333 277.333)"><path d="M0 0h-100a4 4 0 0 0-4 4v84a4 4 0 0 0 4 4H0a4 4 0 0 0 4-4V4a4 4 0 0 0-4-4" style="fill:#191919;fill-opacity:1;fill-rule:nonzero;stroke:none" transform="translate(124 100)"/><path d="M236 92H20V64h216Zm-1-27H21v26h214zm-95 107h-4v20h4zm8 0h-4v20h4zm8 0h-4v20h4zm8 0h-4v20h4zm8 0h-4v20h4zm8 0h-4v20h4zm8 0h-4v20h4zm8 0h-4v20h4zm8 0h-4v20h4zm8 0h-4v20h4zm8 0h-4v20h4zm8 0h-4v20h4z" style="fill:#191919;fill-opacity:1;fill-rule:nonzero;stroke:none"/><path d="M28 64h-4v28h4zm8 0h-4v28h4zm8 0h-4v28h4zm8 0h-4v28h4zm8 0h-4v28h4zm8 0h-4v28h4zm8 0h-4v28h4zm8 0h-4v28h4zm8 0h-4v28h4zm8 0h-4v28h4zm136 108h-4v20h4z" style="fill:#191919;fill-opacity:1;fill-rule:nonzero;stroke:none"/><path d="M0 0h-104v-92h20v12.546h64V-92H0Zm-1-1v-90h-18v12.546h-66V-91h-18v90z" style="fill:#191919;fill-opacity:1;fill-rule:nonzero;stroke:none" transform="translate(236 192)"/><path d="M0 0h104" style="fill:none;stroke:#191919;stroke-width:1;stroke-linecap:butt;stroke-linejoin:miter;stroke-miterlimit:10;stroke-dasharray:none;stroke-opacity:1" transform="translate(132 172)"/><path d="M0 0v-8l4-6h48l4 6v8z" style="fill:#ccc;fill-opacity:1;fill-rule:nonzero;stroke:none" transform="translate(156 108)"/><path d="M212 76h-72v12h72z" style="fill:#ccc;fill-opacity:1;fill-rule:nonzero;stroke:none"/><path d="M212 68h-72v8h72zm-76 0h-12v20h12zm92 0h-12v20h12z" style="fill:#191919;fill-opacity:1;fill-rule:nonzero;stroke:none"/><path d="M0 0a4 4 0 1 0-8 0 4 4 0 0 0 8 0" style="fill:#262626;fill-opacity:1;fill-rule:nonzero;stroke:none" transform="translate(226 78)"/><path d="M136 76h-12v4h12z" style="fill:#262626;fill-opacity:1;fill-rule:nonzero;stroke:none"/><path d="m0 0-2.829 2.828h5.657Z" style="fill:#262626;fill-opacity:1;fill-rule:nonzero;stroke:none" transform="translate(130 72)"/><path d="m0 0 2.828-2.828h-5.657Z" style="fill:#262626;fill-opacity:1;fill-rule:nonzero;stroke:none" transform="translate(130 84)"/><path d="M0 0h28.782v40H-.003l-1.285-1.037h-20.203L-22.661 40h-48.557l.007-40h48.587l1.139 1.027h20.207z" style="fill:#191919;fill-opacity:1;fill-rule:nonzero;stroke:none" transform="translate(95.218 148)"/><path d="M0 0h-28.786l-5.342-4.302h-1.722v-1.614l-9.257.078v1.614h-1.556L-51.443 0H-100l.007-39.88h48.587l4.77 4.289h1.586v1.608h9.224v-1.608h1.691l5.353-4.289H0Z" style="fill:#333;fill-opacity:1;fill-rule:nonzero;stroke:none" transform="translate(124 188)"/><path d="M0 0v-2.78c0-1.536-.553-2.777-1.234-2.777H-7.39c-.681 0-1.231 1.241-1.231 2.777V0c0 1.536.55 2.776 1.231 2.776h6.156C-.553 2.776 0 1.536 0 0" style="fill:#ccc;fill-opacity:1;fill-rule:nonzero;stroke:none" transform="translate(36.069 169.39)"/><path d="M35.207 171.333H28.31v-6.667h6.897z" style="fill:#b3b3b3;fill-opacity:1;fill-rule:nonzero;stroke:none"/><path d="M0 0v-2.78c0-1.536-.553-2.777-1.234-2.777H-7.39c-.681 0-1.231 1.241-1.231 2.777V0c0 1.536.55 2.776 1.231 2.776h6.156C-.553 2.776 0 1.536 0 0" style="fill:#ccc;fill-opacity:1;fill-rule:nonzero;stroke:none" transform="translate(67.103 169.39)"/><path d="M66.241 171.333h-6.896v-6.667h6.896z" style="fill:#b3b3b3;fill-opacity:1;fill-rule:nonzero;stroke:none"/><path d="M0 0c0-7.363-6.176-13.333-13.793-13.333-7.618 0-13.793 5.97-13.793 13.333s6.175 13.333 13.793 13.333S0 7.363 0 0" style="fill:#333;fill-opacity:1;fill-rule:nonzero;stroke:none" transform="translate(120.552 168)"/><path d="M0 0c-.001 6.443-5.404 11.666-12.069 11.665-6.665.001-12.068-5.222-12.069-11.665-.001-6.444 5.403-11.668 12.069-11.668S0-6.444 0 0" style="fill:#191919;fill-opacity:1;fill-rule:nonzero;stroke:none" transform="translate(118.828 168.001)"/><path d="M0 0c0-5.523-4.632-10-10.345-10S-20.69-5.523-20.69 0s4.632 10 10.345 10S0 5.523 0 0" style="fill:#262626;fill-opacity:1;fill-rule:nonzero;stroke:none" transform="translate(117.103 168)"/><path d="M0 0c0 4.602-3.858 8.334-8.619 8.335-4.762 0-8.623-3.731-8.623-8.335.001-4.603 3.862-8.333 8.623-8.332S-.001-4.601 0 0" style="fill:#b3b3b3;fill-opacity:1;fill-rule:nonzero;stroke:none" transform="translate(115.38 167.999)"/><path d="M0 0h-16.113l2.412-2.211h1.614v-1.433l7.28-.051v1.484h2.149z" style="fill:gray;fill-opacity:1;fill-rule:nonzero;stroke:none" transform="translate(91.86 186.966)"/><path d="m0 0-2.658 2.214h-2.149v1.485l-7.28-.052V2.214h-1.614L-16.113 0Z" style="fill:gray;fill-opacity:1;fill-rule:nonzero;stroke:none" transform="translate(91.86 148.929)"/><path d="M0 0v-16.739c0-.442-.464-.797-1.037-.797H-4.14c-.572 0-1.032.355-1.032.797V0c0 .442.46.797 1.032.797h3.103C-.464.797 0 .442 0 0" style="fill:#191919;fill-opacity:1;fill-rule:nonzero;stroke:none" transform="translate(87.793 176.37)"/><path d="M0 0c0 .375-.428.679-.958.679h-1.537c-.53 0-.953-.304-.953-.679v-15.31c0-.375.423-.678.953-.678h1.537c.53 0 .958.303.958.678z" style="fill:#262626;fill-opacity:1;fill-rule:nonzero;stroke:none" transform="translate(86.931 175.655)"/><path d="M0 0v-2.78c0-1.536-.553-2.777-1.234-2.777H-7.39c-.681 0-1.231 1.241-1.231 2.777V0c0 1.536.55 2.776 1.231 2.776h6.156C-.553 2.776 0 1.536 0 0" style="fill:#ccc;fill-opacity:1;fill-rule:nonzero;stroke:none" transform="translate(67.103 181.89)"/><path d="M66.241 183.833h-6.896v-6.667h6.896z" style="fill:#b3b3b3;fill-opacity:1;fill-rule:nonzero;stroke:none"/><path d="M0 0v-2.78c0-1.536-.553-2.777-1.234-2.777H-7.39c-.681 0-1.231 1.241-1.231 2.777V0c0 1.536.55 2.776 1.231 2.776h6.156C-.553 2.776 0 1.536 0 0" style="fill:#ccc;fill-opacity:1;fill-rule:nonzero;stroke:none" transform="translate(56.758 181.89)"/><path d="M55.896 183.833H49v-6.667h6.896z" style="fill:#b3b3b3;fill-opacity:1;fill-rule:nonzero;stroke:none"/><path d="M0 0v-2.78c0-1.536-.553-2.777-1.234-2.777H-7.39c-.681 0-1.231 1.241-1.231 2.777V0c0 1.536.55 2.776 1.231 2.776h6.156C-.553 2.776 0 1.536 0 0" style="fill:#ccc;fill-opacity:1;fill-rule:nonzero;stroke:none" transform="translate(46.414 181.89)"/><path d="M45.552 183.833h-6.896v-6.667h6.896z" style="fill:#b3b3b3;fill-opacity:1;fill-rule:nonzero;stroke:none"/><path d="M0 0v-2.78c0-1.536-.553-2.777-1.234-2.777H-7.39c-.681 0-1.231 1.241-1.231 2.777V0c0 1.536.55 2.776 1.231 2.776h6.156C-.553 2.776 0 1.536 0 0" style="fill:#191919;fill-opacity:1;fill-rule:nonzero;stroke:none" transform="translate(36.069 181.89)"/><path d="M0 0v-2.78c0-1.536-.553-2.777-1.234-2.777H-7.39c-.681 0-1.231 1.241-1.231 2.777V0c0 1.536.55 2.776 1.231 2.776h6.156C-.553 2.776 0 1.536 0 0" style="fill:#ccc;fill-opacity:1;fill-rule:nonzero;stroke:none" transform="translate(56.758 169.39)"/><path d="M55.896 171.333H49v-6.667h6.896z" style="fill:#b3b3b3;fill-opacity:1;fill-rule:nonzero;stroke:none"/><path d="M0 0v-2.78c0-1.536-.553-2.777-1.234-2.777H-7.39c-.681 0-1.231 1.241-1.231 2.777V0c0 1.536.55 2.776 1.231 2.776h6.156C-.553 2.776 0 1.536 0 0" style="fill:#ccc;fill-opacity:1;fill-rule:nonzero;stroke:none" transform="translate(46.414 169.39)"/><path d="M45.552 171.333h-6.896v-6.667h6.896z" style="fill:#b3b3b3;fill-opacity:1;fill-rule:nonzero;stroke:none"/><path d="M0 0v-2.78c0-1.536-.553-2.777-1.234-2.777H-7.39c-.681 0-1.231 1.241-1.231 2.777V0c0 1.536.55 2.776 1.231 2.776h6.156C-.553 2.776 0 1.536 0 0" style="fill:#191919;fill-opacity:1;fill-rule:nonzero;stroke:none" transform="translate(36.069 156.89)"/><path d="M0 0v-2.78c0-1.536-.553-2.777-1.234-2.777H-7.39c-.681 0-1.231 1.241-1.231 2.777V0c0 1.536.55 2.776 1.231 2.776h6.156C-.553 2.776 0 1.536 0 0" style="fill:#ccc;fill-opacity:1;fill-rule:nonzero;stroke:none" transform="translate(67.103 156.89)"/><path d="M66.241 158.833h-6.896v-6.667h6.896z" style="fill:#b3b3b3;fill-opacity:1;fill-rule:nonzero;stroke:none"/><path d="M0 0v-2.78c0-1.536-.553-2.777-1.234-2.777H-7.39c-.681 0-1.231 1.241-1.231 2.777V0c0 1.536.55 2.776 1.231 2.776h6.156C-.553 2.776 0 1.536 0 0" style="fill:#ccc;fill-opacity:1;fill-rule:nonzero;stroke:none" transform="translate(56.758 156.89)"/><path d="M55.896 158.833H49v-6.667h6.896z" style="fill:#b3b3b3;fill-opacity:1;fill-rule:nonzero;stroke:none"/><path d="M0 0v-2.78c0-1.536-.553-2.777-1.234-2.777H-7.39c-.681 0-1.231 1.241-1.231 2.777V0c0 1.536.55 2.776 1.231 2.776h6.156C-.553 2.776 0 1.536 0 0" style="fill:#ccc;fill-opacity:1;fill-rule:nonzero;stroke:none" transform="translate(46.414 156.89)"/><path d="M45.552 158.833h-6.896v-6.667h6.896z" style="fill:#b3b3b3;fill-opacity:1;fill-rule:nonzero;stroke:none"/><path d="M0 0h28.782v40H-.003l-1.285-1.037h-20.203L-22.661 40h-48.557l.007-40h48.587l1.139 1.027h20.207z" style="fill:#191919;fill-opacity:1;fill-rule:nonzero;stroke:none" transform="translate(95.218 104)"/><path d="M0 0h-28.786l-5.342-4.302h-1.722v-1.614l-9.257.078v1.614h-1.556L-51.443 0H-100l.007-39.88h48.587l4.77 4.289h1.586v1.608h9.224v-1.608h1.691l5.353-4.289H0Z" style="fill:#333;fill-opacity:1;fill-rule:nonzero;stroke:none" transform="translate(124 144)"/><path d="M0 0v-2.779c0-1.537-.553-2.778-1.234-2.778H-7.39c-.681 0-1.231 1.241-1.231 2.778V0c0 1.537.55 2.777 1.231 2.777h6.156C-.553 2.777 0 1.537 0 0" style="fill:#ccc;fill-opacity:1;fill-rule:nonzero;stroke:none" transform="translate(36.069 125.39)"/><path d="M35.207 127.333H28.31v-6.667h6.897z" style="fill:#b3b3b3;fill-opacity:1;fill-rule:nonzero;stroke:none"/><path d="M0 0v-2.779c0-1.537-.553-2.778-1.234-2.778H-7.39c-.681 0-1.231 1.241-1.231 2.778V0c0 1.537.55 2.777 1.231 2.777h6.156C-.553 2.777 0 1.537 0 0" style="fill:#ccc;fill-opacity:1;fill-rule:nonzero;stroke:none" transform="translate(67.103 125.39)"/><path d="M66.241 127.333h-6.896v-6.667h6.896z" style="fill:#b3b3b3;fill-opacity:1;fill-rule:nonzero;stroke:none"/><path d="M0 0c0-7.363-6.176-13.333-13.793-13.333-7.618 0-13.793 5.97-13.793 13.333s6.175 13.333 13.793 13.333S0 7.363 0 0" style="fill:#333;fill-opacity:1;fill-rule:nonzero;stroke:none" transform="translate(120.552 124)"/><path d="M0 0c-.001 6.442-5.404 11.665-12.069 11.665S-24.137 6.442-24.138 0c-.001-6.444 5.403-11.669 12.069-11.669S0-6.444 0 0" style="fill:#191919;fill-opacity:1;fill-rule:nonzero;stroke:none" transform="translate(118.828 124.002)"/><path d="M0 0c0-5.522-4.632-10-10.345-10S-20.69-5.522-20.69 0s4.632 10 10.345 10S0 5.523 0 0" style="fill:#262626;fill-opacity:1;fill-rule:nonzero;stroke:none" transform="translate(117.103 124)"/><path d="M0 0c0 4.603-3.858 8.334-8.619 8.335-4.762.001-8.623-3.731-8.623-8.335.001-4.602 3.862-8.332 8.623-8.331S-.001-4.601 0 0" style="fill:#b3b3b3;fill-opacity:1;fill-rule:nonzero;stroke:none" transform="translate(115.38 123.998)"/><path d="M0 0h-16.113l2.412-2.211h1.614v-1.433l7.28-.051v1.484h2.149z" style="fill:gray;fill-opacity:1;fill-rule:nonzero;stroke:none" transform="translate(91.86 142.966)"/><path d="m0 0-2.658 2.214h-2.149v1.485l-7.28-.052V2.214h-1.614L-16.113 0Z" style="fill:gray;fill-opacity:1;fill-rule:nonzero;stroke:none" transform="translate(91.86 104.929)"/><path d="M0 0v-16.739c0-.442-.464-.798-1.037-.798H-4.14c-.572 0-1.032.356-1.032.798V0c0 .442.46.797 1.032.797h3.103C-.464.797 0 .442 0 0" style="fill:#191919;fill-opacity:1;fill-rule:nonzero;stroke:none" transform="translate(87.793 132.37)"/><path d="M0 0c0 .375-.428.679-.958.679h-1.537c-.53 0-.953-.304-.953-.679v-15.309c0-.376.423-.679.953-.679h1.537c.53 0 .958.303.958.679z" style="fill:#262626;fill-opacity:1;fill-rule:nonzero;stroke:none" transform="translate(86.931 131.655)"/><path d="M0 0v-2.78c0-1.536-.553-2.777-1.234-2.777H-7.39c-.681 0-1.231 1.241-1.231 2.777V0c0 1.536.55 2.776 1.231 2.776h6.156C-.553 2.776 0 1.536 0 0" style="fill:#ccc;fill-opacity:1;fill-rule:nonzero;stroke:none" transform="translate(67.103 137.89)"/><path d="M66.241 139.833h-6.896v-6.667h6.896z" style="fill:#b3b3b3;fill-opacity:1;fill-rule:nonzero;stroke:none"/><path d="M0 0v-2.78c0-1.536-.553-2.777-1.234-2.777H-7.39c-.681 0-1.231 1.241-1.231 2.777V0c0 1.536.55 2.776 1.231 2.776h6.156C-.553 2.776 0 1.536 0 0" style="fill:#ccc;fill-opacity:1;fill-rule:nonzero;stroke:none" transform="translate(56.758 137.89)"/><path d="M55.896 139.833H49v-6.667h6.896z" style="fill:#b3b3b3;fill-opacity:1;fill-rule:nonzero;stroke:none"/><path d="M0 0v-2.78c0-1.536-.553-2.777-1.234-2.777H-7.39c-.681 0-1.231 1.241-1.231 2.777V0c0 1.536.55 2.776 1.231 2.776h6.156C-.553 2.776 0 1.536 0 0" style="fill:#ccc;fill-opacity:1;fill-rule:nonzero;stroke:none" transform="translate(46.414 137.89)"/><path d="M45.552 139.833h-6.896v-6.667h6.896z" style="fill:#b3b3b3;fill-opacity:1;fill-rule:nonzero;stroke:none"/><path d="M0 0v-2.78c0-1.536-.553-2.777-1.234-2.777H-7.39c-.681 0-1.231 1.241-1.231 2.777V0c0 1.536.55 2.776 1.231 2.776h6.156C-.553 2.776 0 1.536 0 0" style="fill:#191919;fill-opacity:1;fill-rule:nonzero;stroke:none" transform="translate(36.069 137.89)"/><path d="M0 0v-2.779c0-1.537-.553-2.778-1.234-2.778H-7.39c-.681 0-1.231 1.241-1.231 2.778V0c0 1.537.55 2.777 1.231 2.777h6.156C-.553 2.777 0 1.537 0 0" style="fill:#ccc;fill-opacity:1;fill-rule:nonzero;stroke:none" transform="translate(56.758 125.39)"/><path d="M55.896 127.333H49v-6.667h6.896z" style="fill:#b3b3b3;fill-opacity:1;fill-rule:nonzero;stroke:none"/><path d="M0 0v-2.779c0-1.537-.553-2.778-1.234-2.778H-7.39c-.681 0-1.231 1.241-1.231 2.778V0c0 1.537.55 2.777 1.231 2.777h6.156C-.553 2.777 0 1.537 0 0" style="fill:#ccc;fill-opacity:1;fill-rule:nonzero;stroke:none" transform="translate(46.414 125.39)"/><path d="M45.552 127.333h-6.896v-6.667h6.896z" style="fill:#b3b3b3;fill-opacity:1;fill-rule:nonzero;stroke:none"/><path d="M0 0v-2.779c0-1.537-.553-2.778-1.234-2.778H-7.39c-.681 0-1.231 1.241-1.231 2.778V0c0 1.537.55 2.777 1.231 2.777h6.156C-.553 2.777 0 1.537 0 0" style="fill:#191919;fill-opacity:1;fill-rule:nonzero;stroke:none" transform="translate(36.069 112.89)"/><path d="M0 0v-2.779c0-1.537-.553-2.778-1.234-2.778H-7.39c-.681 0-1.231 1.241-1.231 2.778V0c0 1.537.55 2.777 1.231 2.777h6.156C-.553 2.777 0 1.537 0 0" style="fill:#ccc;fill-opacity:1;fill-rule:nonzero;stroke:none" transform="translate(67.103 112.89)"/><path d="M66.241 114.833h-6.896v-6.666h6.896z" style="fill:#b3b3b3;fill-opacity:1;fill-rule:nonzero;stroke:none"/><path d="M0 0v-2.779c0-1.537-.553-2.778-1.234-2.778H-7.39c-.681 0-1.231 1.241-1.231 2.778V0c0 1.537.55 2.777 1.231 2.777h6.156C-.553 2.777 0 1.537 0 0" style="fill:#ccc;fill-opacity:1;fill-rule:nonzero;stroke:none" transform="translate(56.758 112.89)"/><path d="M55.896 114.833H49v-6.666h6.896z" style="fill:#b3b3b3;fill-opacity:1;fill-rule:nonzero;stroke:none"/><path d="M0 0v-2.779c0-1.537-.553-2.778-1.234-2.778H-7.39c-.681 0-1.231 1.241-1.231 2.778V0c0 1.537.55 2.777 1.231 2.777h6.156C-.553 2.777 0 1.537 0 0" style="fill:#ccc;fill-opacity:1;fill-rule:nonzero;stroke:none" transform="translate(46.414 112.89)"/><path d="M45.552 114.833h-6.896v-6.666h6.896z" style="fill:#b3b3b3;fill-opacity:1;fill-rule:nonzero;stroke:none"/></g></svg>