<svg xmlns="http://www.w3.org/2000/svg" xml:space="preserve" width="330.667" height="256" viewBox="0 0 330.667 256"><defs><clipPath id="a" clipPathUnits="userSpaceOnUse"><path d="M0 256h256V0H0Z"/></clipPath><clipPath id="b" clipPathUnits="userSpaceOnUse"><path d="M4 224h248V32H4Z"/></clipPath></defs><g clip-path="url(#a)" transform="matrix(1.33333 0 0 -1.33333 -5.333 298.667)"><g clip-path="url(#b)" style="opacity:.5"><path d="M0 0h-248v-192H0V-8z" style="fill:#fff;fill-opacity:1;fill-rule:nonzero;stroke:none" transform="translate(252 224)"/></g></g><path d="M244 40H12v176h232z" style="fill:#262626;fill-opacity:1;fill-rule:nonzero;stroke:none" transform="matrix(1.33333 0 0 -1.33333 -5.333 298.667)"/><path d="M36 86h-4v2h4zm8 0h-4v2h4zm8 0h-4v2h4zm8 0h-4v2h4zm8 0h-4v2h4zm8 0h-4v2h4zm8 0h-4v2h4zm8 0h-4v2h4zm8 0h-4v2h4zm8 0h-4v2h4zm8 0h-4v2h4zm8 0h-4v2h4zm8 0h-4v2h4zm8 0h-4v2h4zm8 0h-4v2h4zm8 0h-4v2h4zm8 0h-4v2h4zm8 0h-4v2h4zm8 0h-4v2h4zm8 0h-4v2h4zm8 0h-4v2h4zm8 0h-4v2h4zm8 0h-4v2h4zm8 0h-4v2h4zm8 0h-4v2h4zM36 82h-4v2h4zm8 0h-4v2h4zm8 0h-4v2h4zm8 0h-4v2h4zm8 0h-4v2h4zm8 0h-4v2h4zm8 0h-4v2h4zm8 0h-4v2h4zm8 0h-4v2h4zm8 0h-4v2h4zm8 0h-4v2h4zm8 0h-4v2h4zm8 0h-4v2h4zm8 0h-4v2h4zm8 0h-4v2h4zm8 0h-4v2h4zm8 0h-4v2h4zm8 0h-4v2h4zm8 0h-4v2h4zm8 0h-4v2h4zm8 0h-4v2h4zm8 0h-4v2h4zm8 0h-4v2h4zm8 0h-4v2h4zm8 0h-4v2h4zM36 78h-4v2h4zm8 0h-4v2h4zm8 0h-4v2h4zm8 0h-4v2h4zm8 0h-4v2h4zm8 0h-4v2h4zm8 0h-4v2h4zm8 0h-4v2h4zm8 0h-4v2h4zm8 0h-4v2h4zm8 0h-4v2h4zm8 0h-4v2h4zm8 0h-4v2h4zm8 0h-4v2h4zm8 0h-4v2h4zm8 0h-4v2h4zm8 0h-4v2h4zm8 0h-4v2h4zm8 0h-4v2h4zm8 0h-4v2h4zm8 0h-4v2h4zm8 0h-4v2h4zm8 0h-4v2h4zm8 0h-4v2h4zm8 0h-4v2h4zM36 74h-4v2h4zm8 0h-4v2h4zm8 0h-4v2h4zm8 0h-4v2h4zm8 0h-4v2h4zm8 0h-4v2h4zm8 0h-4v2h4zm8 0h-4v2h4zm8 0h-4v2h4zm8 0h-4v2h4zm8 0h-4v2h4zm8 0h-4v2h4zm8 0h-4v2h4zm8 0h-4v2h4zm8 0h-4v2h4zm8 0h-4v2h4zm8 0h-4v2h4zm8 0h-4v2h4zm8 0h-4v2h4zm8 0h-4v2h4zm8 0h-4v2h4zm8 0h-4v2h4zm8 0h-4v2h4zm8 0h-4v2h4zm8 0h-4v2h4zM36 70h-4v2h4zm8 0h-4v2h4zm8 0h-4v2h4zm8 0h-4v2h4zm8 0h-4v2h4zm8 0h-4v2h4zm8 0h-4v2h4zm8 0h-4v2h4zm8 0h-4v2h4zm8 0h-4v2h4zm8 0h-4v2h4zm8 0h-4v2h4zm8 0h-4v2h4zm8 0h-4v2h4zm8 0h-4v2h4zm8 0h-4v2h4zm8 0h-4v2h4zm8 0h-4v2h4zm8 0h-4v2h4zm8 0h-4v2h4zm8 0h-4v2h4zm8 0h-4v2h4zm8 0h-4v2h4zm8 0h-4v2h4zm8 0h-4v2h4zM36 66h-4v2h4zm8 0h-4v2h4zm8 0h-4v2h4zm8 0h-4v2h4zm8 0h-4v2h4zm8 0h-4v2h4zm8 0h-4v2h4zm8 0h-4v2h4zm8 0h-4v2h4zm8 0h-4v2h4zm8 0h-4v2h4zm8 0h-4v2h4zm8 0h-4v2h4zm8 0h-4v2h4zm8 0h-4v2h4zm8 0h-4v2h4zm8 0h-4v2h4zm8 0h-4v2h4zm8 0h-4v2h4zm8 0h-4v2h4zm8 0h-4v2h4zm8 0h-4v2h4zm8 0h-4v2h4zm8 0h-4v2h4zm8 0h-4v2h4zM36 62h-4v2h4zm8 0h-4v2h4zm8 0h-4v2h4zm8 0h-4v2h4zm8 0h-4v2h4zm8 0h-4v2h4zm8 0h-4v2h4zm8 0h-4v2h4zm8 0h-4v2h4zm8 0h-4v2h4zm8 0h-4v2h4zm8 0h-4v2h4zm8 0h-4v2h4zm8 0h-4v2h4zm8 0h-4v2h4zm8 0h-4v2h4zm8 0h-4v2h4zm8 0h-4v2h4zm8 0h-4v2h4zm8 0h-4v2h4zm8 0h-4v2h4zm8 0h-4v2h4zm8 0h-4v2h4zm8 0h-4v2h4zm8 0h-4v2h4z" style="fill:#191919;fill-opacity:1;fill-rule:nonzero;stroke:none" transform="matrix(1.33333 0 0 -1.33333 -5.333 298.667)"/></svg>