<?xml version="1.0" encoding="UTF-8" standalone="no"?>
<svg
   xmlns:dc="http://purl.org/dc/elements/1.1/"
   xmlns:cc="http://creativecommons.org/ns#"
   xmlns:rdf="http://www.w3.org/1999/02/22-rdf-syntax-ns#"
   xmlns:svg="http://www.w3.org/2000/svg"
   xmlns="http://www.w3.org/2000/svg"
   viewBox="0 0 330.66665 256"
   height="256"
   width="330.66666"
   xml:space="preserve"
   id="svg2"
   version="1.1"><metadata
     id="metadata8"><rdf:RDF><cc:Work
         rdf:about=""><dc:format>image/svg+xml</dc:format><dc:type
           rdf:resource="http://purl.org/dc/dcmitype/StillImage" /></cc:Work></rdf:RDF></metadata><defs
     id="defs6"><clipPath
       id="clipPath18"
       clipPathUnits="userSpaceOnUse"><path
         id="path16"
         d="M 0,256 H 256 V 0 H 0 Z" /></clipPath><clipPath
       id="clipPath26"
       clipPathUnits="userSpaceOnUse"><path
         id="path24"
         d="M 4,224 H 252 V 32 H 4 Z" /></clipPath></defs><g
     transform="matrix(1.3333333,0,0,-1.3333333,-5.3333332,298.66666)"
     id="g10"><g
       id="g12"><g
         clip-path="url(#clipPath18)"
         id="g14"><g
           id="g20"><g
             id="g22" /><g
             id="g34"><g
               style="opacity:0.5"
               id="g32"
               clip-path="url(#clipPath26)"><g
                 id="g30"
                 transform="translate(252,224)"><path
                   id="path28"
                   style="fill:#ffffff;fill-opacity:1;fill-rule:nonzero;stroke:none"
                   d="m 0,0 h -8 -232 -8 v -8 -176 -8 h 8 232 8 v 8 176 z" /></g></g></g></g></g></g><path
       id="path36"
       style="fill:#262626;fill-opacity:1;fill-rule:nonzero;stroke:none"
       d="M 244,40 H 12 v 176 h 232 z" /><path
       id="path38"
       style="fill:#191919;fill-opacity:1;fill-rule:nonzero;stroke:none"
       d="m 36,86 h -4 v 2 h 4 z" /><path
       id="path40"
       style="fill:#191919;fill-opacity:1;fill-rule:nonzero;stroke:none"
       d="m 44,86 h -4 v 2 h 4 z" /><path
       id="path42"
       style="fill:#191919;fill-opacity:1;fill-rule:nonzero;stroke:none"
       d="m 52,86 h -4 v 2 h 4 z" /><path
       id="path44"
       style="fill:#191919;fill-opacity:1;fill-rule:nonzero;stroke:none"
       d="m 60,86 h -4 v 2 h 4 z" /><path
       id="path46"
       style="fill:#191919;fill-opacity:1;fill-rule:nonzero;stroke:none"
       d="m 68,86 h -4 v 2 h 4 z" /><path
       id="path48"
       style="fill:#191919;fill-opacity:1;fill-rule:nonzero;stroke:none"
       d="m 76,86 h -4 v 2 h 4 z" /><path
       id="path50"
       style="fill:#191919;fill-opacity:1;fill-rule:nonzero;stroke:none"
       d="m 84,86 h -4 v 2 h 4 z" /><path
       id="path52"
       style="fill:#191919;fill-opacity:1;fill-rule:nonzero;stroke:none"
       d="m 92,86 h -4 v 2 h 4 z" /><path
       id="path54"
       style="fill:#191919;fill-opacity:1;fill-rule:nonzero;stroke:none"
       d="m 100,86 h -4 v 2 h 4 z" /><path
       id="path56"
       style="fill:#191919;fill-opacity:1;fill-rule:nonzero;stroke:none"
       d="m 108,86 h -4 v 2 h 4 z" /><path
       id="path58"
       style="fill:#191919;fill-opacity:1;fill-rule:nonzero;stroke:none"
       d="m 116,86 h -4 v 2 h 4 z" /><path
       id="path60"
       style="fill:#191919;fill-opacity:1;fill-rule:nonzero;stroke:none"
       d="m 124,86 h -4 v 2 h 4 z" /><path
       id="path62"
       style="fill:#191919;fill-opacity:1;fill-rule:nonzero;stroke:none"
       d="m 132,86 h -4 v 2 h 4 z" /><path
       id="path64"
       style="fill:#191919;fill-opacity:1;fill-rule:nonzero;stroke:none"
       d="m 140,86 h -4 v 2 h 4 z" /><path
       id="path66"
       style="fill:#191919;fill-opacity:1;fill-rule:nonzero;stroke:none"
       d="m 148,86 h -4 v 2 h 4 z" /><path
       id="path68"
       style="fill:#191919;fill-opacity:1;fill-rule:nonzero;stroke:none"
       d="m 156,86 h -4 v 2 h 4 z" /><path
       id="path70"
       style="fill:#191919;fill-opacity:1;fill-rule:nonzero;stroke:none"
       d="m 164,86 h -4 v 2 h 4 z" /><path
       id="path72"
       style="fill:#191919;fill-opacity:1;fill-rule:nonzero;stroke:none"
       d="m 172,86 h -4 v 2 h 4 z" /><path
       id="path74"
       style="fill:#191919;fill-opacity:1;fill-rule:nonzero;stroke:none"
       d="m 180,86 h -4 v 2 h 4 z" /><path
       id="path76"
       style="fill:#191919;fill-opacity:1;fill-rule:nonzero;stroke:none"
       d="m 188,86 h -4 v 2 h 4 z" /><path
       id="path78"
       style="fill:#191919;fill-opacity:1;fill-rule:nonzero;stroke:none"
       d="m 196,86 h -4 v 2 h 4 z" /><path
       id="path80"
       style="fill:#191919;fill-opacity:1;fill-rule:nonzero;stroke:none"
       d="m 204,86 h -4 v 2 h 4 z" /><path
       id="path82"
       style="fill:#191919;fill-opacity:1;fill-rule:nonzero;stroke:none"
       d="m 212,86 h -4 v 2 h 4 z" /><path
       id="path84"
       style="fill:#191919;fill-opacity:1;fill-rule:nonzero;stroke:none"
       d="m 220,86 h -4 v 2 h 4 z" /><path
       id="path86"
       style="fill:#191919;fill-opacity:1;fill-rule:nonzero;stroke:none"
       d="m 228,86 h -4 v 2 h 4 z" /><path
       id="path88"
       style="fill:#191919;fill-opacity:1;fill-rule:nonzero;stroke:none"
       d="m 36,82 h -4 v 2 h 4 z" /><path
       id="path90"
       style="fill:#191919;fill-opacity:1;fill-rule:nonzero;stroke:none"
       d="m 44,82 h -4 v 2 h 4 z" /><path
       id="path92"
       style="fill:#191919;fill-opacity:1;fill-rule:nonzero;stroke:none"
       d="m 52,82 h -4 v 2 h 4 z" /><path
       id="path94"
       style="fill:#191919;fill-opacity:1;fill-rule:nonzero;stroke:none"
       d="m 60,82 h -4 v 2 h 4 z" /><path
       id="path96"
       style="fill:#191919;fill-opacity:1;fill-rule:nonzero;stroke:none"
       d="m 68,82 h -4 v 2 h 4 z" /><path
       id="path98"
       style="fill:#191919;fill-opacity:1;fill-rule:nonzero;stroke:none"
       d="m 76,82 h -4 v 2 h 4 z" /><path
       id="path100"
       style="fill:#191919;fill-opacity:1;fill-rule:nonzero;stroke:none"
       d="m 84,82 h -4 v 2 h 4 z" /><path
       id="path102"
       style="fill:#191919;fill-opacity:1;fill-rule:nonzero;stroke:none"
       d="m 92,82 h -4 v 2 h 4 z" /><path
       id="path104"
       style="fill:#191919;fill-opacity:1;fill-rule:nonzero;stroke:none"
       d="m 100,82 h -4 v 2 h 4 z" /><path
       id="path106"
       style="fill:#191919;fill-opacity:1;fill-rule:nonzero;stroke:none"
       d="m 108,82 h -4 v 2 h 4 z" /><path
       id="path108"
       style="fill:#191919;fill-opacity:1;fill-rule:nonzero;stroke:none"
       d="m 116,82 h -4 v 2 h 4 z" /><path
       id="path110"
       style="fill:#191919;fill-opacity:1;fill-rule:nonzero;stroke:none"
       d="m 124,82 h -4 v 2 h 4 z" /><path
       id="path112"
       style="fill:#191919;fill-opacity:1;fill-rule:nonzero;stroke:none"
       d="m 132,82 h -4 v 2 h 4 z" /><path
       id="path114"
       style="fill:#191919;fill-opacity:1;fill-rule:nonzero;stroke:none"
       d="m 140,82 h -4 v 2 h 4 z" /><path
       id="path116"
       style="fill:#191919;fill-opacity:1;fill-rule:nonzero;stroke:none"
       d="m 148,82 h -4 v 2 h 4 z" /><path
       id="path118"
       style="fill:#191919;fill-opacity:1;fill-rule:nonzero;stroke:none"
       d="m 156,82 h -4 v 2 h 4 z" /><path
       id="path120"
       style="fill:#191919;fill-opacity:1;fill-rule:nonzero;stroke:none"
       d="m 164,82 h -4 v 2 h 4 z" /><path
       id="path122"
       style="fill:#191919;fill-opacity:1;fill-rule:nonzero;stroke:none"
       d="m 172,82 h -4 v 2 h 4 z" /><path
       id="path124"
       style="fill:#191919;fill-opacity:1;fill-rule:nonzero;stroke:none"
       d="m 180,82 h -4 v 2 h 4 z" /><path
       id="path126"
       style="fill:#191919;fill-opacity:1;fill-rule:nonzero;stroke:none"
       d="m 188,82 h -4 v 2 h 4 z" /><path
       id="path128"
       style="fill:#191919;fill-opacity:1;fill-rule:nonzero;stroke:none"
       d="m 196,82 h -4 v 2 h 4 z" /><path
       id="path130"
       style="fill:#191919;fill-opacity:1;fill-rule:nonzero;stroke:none"
       d="m 204,82 h -4 v 2 h 4 z" /><path
       id="path132"
       style="fill:#191919;fill-opacity:1;fill-rule:nonzero;stroke:none"
       d="m 212,82 h -4 v 2 h 4 z" /><path
       id="path134"
       style="fill:#191919;fill-opacity:1;fill-rule:nonzero;stroke:none"
       d="m 220,82 h -4 v 2 h 4 z" /><path
       id="path136"
       style="fill:#191919;fill-opacity:1;fill-rule:nonzero;stroke:none"
       d="m 228,82 h -4 v 2 h 4 z" /><path
       id="path138"
       style="fill:#191919;fill-opacity:1;fill-rule:nonzero;stroke:none"
       d="m 36,78 h -4 v 2 h 4 z" /><path
       id="path140"
       style="fill:#191919;fill-opacity:1;fill-rule:nonzero;stroke:none"
       d="m 44,78 h -4 v 2 h 4 z" /><path
       id="path142"
       style="fill:#191919;fill-opacity:1;fill-rule:nonzero;stroke:none"
       d="m 52,78 h -4 v 2 h 4 z" /><path
       id="path144"
       style="fill:#191919;fill-opacity:1;fill-rule:nonzero;stroke:none"
       d="m 60,78 h -4 v 2 h 4 z" /><path
       id="path146"
       style="fill:#191919;fill-opacity:1;fill-rule:nonzero;stroke:none"
       d="m 68,78 h -4 v 2 h 4 z" /><path
       id="path148"
       style="fill:#191919;fill-opacity:1;fill-rule:nonzero;stroke:none"
       d="m 76,78 h -4 v 2 h 4 z" /><path
       id="path150"
       style="fill:#191919;fill-opacity:1;fill-rule:nonzero;stroke:none"
       d="m 84,78 h -4 v 2 h 4 z" /><path
       id="path152"
       style="fill:#191919;fill-opacity:1;fill-rule:nonzero;stroke:none"
       d="m 92,78 h -4 v 2 h 4 z" /><path
       id="path154"
       style="fill:#191919;fill-opacity:1;fill-rule:nonzero;stroke:none"
       d="m 100,78 h -4 v 2 h 4 z" /><path
       id="path156"
       style="fill:#191919;fill-opacity:1;fill-rule:nonzero;stroke:none"
       d="m 108,78 h -4 v 2 h 4 z" /><path
       id="path158"
       style="fill:#191919;fill-opacity:1;fill-rule:nonzero;stroke:none"
       d="m 116,78 h -4 v 2 h 4 z" /><path
       id="path160"
       style="fill:#191919;fill-opacity:1;fill-rule:nonzero;stroke:none"
       d="m 124,78 h -4 v 2 h 4 z" /><path
       id="path162"
       style="fill:#191919;fill-opacity:1;fill-rule:nonzero;stroke:none"
       d="m 132,78 h -4 v 2 h 4 z" /><path
       id="path164"
       style="fill:#191919;fill-opacity:1;fill-rule:nonzero;stroke:none"
       d="m 140,78 h -4 v 2 h 4 z" /><path
       id="path166"
       style="fill:#191919;fill-opacity:1;fill-rule:nonzero;stroke:none"
       d="m 148,78 h -4 v 2 h 4 z" /><path
       id="path168"
       style="fill:#191919;fill-opacity:1;fill-rule:nonzero;stroke:none"
       d="m 156,78 h -4 v 2 h 4 z" /><path
       id="path170"
       style="fill:#191919;fill-opacity:1;fill-rule:nonzero;stroke:none"
       d="m 164,78 h -4 v 2 h 4 z" /><path
       id="path172"
       style="fill:#191919;fill-opacity:1;fill-rule:nonzero;stroke:none"
       d="m 172,78 h -4 v 2 h 4 z" /><path
       id="path174"
       style="fill:#191919;fill-opacity:1;fill-rule:nonzero;stroke:none"
       d="m 180,78 h -4 v 2 h 4 z" /><path
       id="path176"
       style="fill:#191919;fill-opacity:1;fill-rule:nonzero;stroke:none"
       d="m 188,78 h -4 v 2 h 4 z" /><path
       id="path178"
       style="fill:#191919;fill-opacity:1;fill-rule:nonzero;stroke:none"
       d="m 196,78 h -4 v 2 h 4 z" /><path
       id="path180"
       style="fill:#191919;fill-opacity:1;fill-rule:nonzero;stroke:none"
       d="m 204,78 h -4 v 2 h 4 z" /><path
       id="path182"
       style="fill:#191919;fill-opacity:1;fill-rule:nonzero;stroke:none"
       d="m 212,78 h -4 v 2 h 4 z" /><path
       id="path184"
       style="fill:#191919;fill-opacity:1;fill-rule:nonzero;stroke:none"
       d="m 220,78 h -4 v 2 h 4 z" /><path
       id="path186"
       style="fill:#191919;fill-opacity:1;fill-rule:nonzero;stroke:none"
       d="m 228,78 h -4 v 2 h 4 z" /><path
       id="path188"
       style="fill:#191919;fill-opacity:1;fill-rule:nonzero;stroke:none"
       d="m 36,74 h -4 v 2 h 4 z" /><path
       id="path190"
       style="fill:#191919;fill-opacity:1;fill-rule:nonzero;stroke:none"
       d="m 44,74 h -4 v 2 h 4 z" /><path
       id="path192"
       style="fill:#191919;fill-opacity:1;fill-rule:nonzero;stroke:none"
       d="m 52,74 h -4 v 2 h 4 z" /><path
       id="path194"
       style="fill:#191919;fill-opacity:1;fill-rule:nonzero;stroke:none"
       d="m 60,74 h -4 v 2 h 4 z" /><path
       id="path196"
       style="fill:#191919;fill-opacity:1;fill-rule:nonzero;stroke:none"
       d="m 68,74 h -4 v 2 h 4 z" /><path
       id="path198"
       style="fill:#191919;fill-opacity:1;fill-rule:nonzero;stroke:none"
       d="m 76,74 h -4 v 2 h 4 z" /><path
       id="path200"
       style="fill:#191919;fill-opacity:1;fill-rule:nonzero;stroke:none"
       d="m 84,74 h -4 v 2 h 4 z" /><path
       id="path202"
       style="fill:#191919;fill-opacity:1;fill-rule:nonzero;stroke:none"
       d="m 92,74 h -4 v 2 h 4 z" /><path
       id="path204"
       style="fill:#191919;fill-opacity:1;fill-rule:nonzero;stroke:none"
       d="m 100,74 h -4 v 2 h 4 z" /><path
       id="path206"
       style="fill:#191919;fill-opacity:1;fill-rule:nonzero;stroke:none"
       d="m 108,74 h -4 v 2 h 4 z" /><path
       id="path208"
       style="fill:#191919;fill-opacity:1;fill-rule:nonzero;stroke:none"
       d="m 116,74 h -4 v 2 h 4 z" /><path
       id="path210"
       style="fill:#191919;fill-opacity:1;fill-rule:nonzero;stroke:none"
       d="m 124,74 h -4 v 2 h 4 z" /><path
       id="path212"
       style="fill:#191919;fill-opacity:1;fill-rule:nonzero;stroke:none"
       d="m 132,74 h -4 v 2 h 4 z" /><path
       id="path214"
       style="fill:#191919;fill-opacity:1;fill-rule:nonzero;stroke:none"
       d="m 140,74 h -4 v 2 h 4 z" /><path
       id="path216"
       style="fill:#191919;fill-opacity:1;fill-rule:nonzero;stroke:none"
       d="m 148,74 h -4 v 2 h 4 z" /><path
       id="path218"
       style="fill:#191919;fill-opacity:1;fill-rule:nonzero;stroke:none"
       d="m 156,74 h -4 v 2 h 4 z" /><path
       id="path220"
       style="fill:#191919;fill-opacity:1;fill-rule:nonzero;stroke:none"
       d="m 164,74 h -4 v 2 h 4 z" /><path
       id="path222"
       style="fill:#191919;fill-opacity:1;fill-rule:nonzero;stroke:none"
       d="m 172,74 h -4 v 2 h 4 z" /><path
       id="path224"
       style="fill:#191919;fill-opacity:1;fill-rule:nonzero;stroke:none"
       d="m 180,74 h -4 v 2 h 4 z" /><path
       id="path226"
       style="fill:#191919;fill-opacity:1;fill-rule:nonzero;stroke:none"
       d="m 188,74 h -4 v 2 h 4 z" /><path
       id="path228"
       style="fill:#191919;fill-opacity:1;fill-rule:nonzero;stroke:none"
       d="m 196,74 h -4 v 2 h 4 z" /><path
       id="path230"
       style="fill:#191919;fill-opacity:1;fill-rule:nonzero;stroke:none"
       d="m 204,74 h -4 v 2 h 4 z" /><path
       id="path232"
       style="fill:#191919;fill-opacity:1;fill-rule:nonzero;stroke:none"
       d="m 212,74 h -4 v 2 h 4 z" /><path
       id="path234"
       style="fill:#191919;fill-opacity:1;fill-rule:nonzero;stroke:none"
       d="m 220,74 h -4 v 2 h 4 z" /><path
       id="path236"
       style="fill:#191919;fill-opacity:1;fill-rule:nonzero;stroke:none"
       d="m 228,74 h -4 v 2 h 4 z" /><path
       id="path238"
       style="fill:#191919;fill-opacity:1;fill-rule:nonzero;stroke:none"
       d="m 36,70 h -4 v 2 h 4 z" /><path
       id="path240"
       style="fill:#191919;fill-opacity:1;fill-rule:nonzero;stroke:none"
       d="m 44,70 h -4 v 2 h 4 z" /><path
       id="path242"
       style="fill:#191919;fill-opacity:1;fill-rule:nonzero;stroke:none"
       d="m 52,70 h -4 v 2 h 4 z" /><path
       id="path244"
       style="fill:#191919;fill-opacity:1;fill-rule:nonzero;stroke:none"
       d="m 60,70 h -4 v 2 h 4 z" /><path
       id="path246"
       style="fill:#191919;fill-opacity:1;fill-rule:nonzero;stroke:none"
       d="m 68,70 h -4 v 2 h 4 z" /><path
       id="path248"
       style="fill:#191919;fill-opacity:1;fill-rule:nonzero;stroke:none"
       d="m 76,70 h -4 v 2 h 4 z" /><path
       id="path250"
       style="fill:#191919;fill-opacity:1;fill-rule:nonzero;stroke:none"
       d="m 84,70 h -4 v 2 h 4 z" /><path
       id="path252"
       style="fill:#191919;fill-opacity:1;fill-rule:nonzero;stroke:none"
       d="m 92,70 h -4 v 2 h 4 z" /><path
       id="path254"
       style="fill:#191919;fill-opacity:1;fill-rule:nonzero;stroke:none"
       d="m 100,70 h -4 v 2 h 4 z" /><path
       id="path256"
       style="fill:#191919;fill-opacity:1;fill-rule:nonzero;stroke:none"
       d="m 108,70 h -4 v 2 h 4 z" /><path
       id="path258"
       style="fill:#191919;fill-opacity:1;fill-rule:nonzero;stroke:none"
       d="m 116,70 h -4 v 2 h 4 z" /><path
       id="path260"
       style="fill:#191919;fill-opacity:1;fill-rule:nonzero;stroke:none"
       d="m 124,70 h -4 v 2 h 4 z" /><path
       id="path262"
       style="fill:#191919;fill-opacity:1;fill-rule:nonzero;stroke:none"
       d="m 132,70 h -4 v 2 h 4 z" /><path
       id="path264"
       style="fill:#191919;fill-opacity:1;fill-rule:nonzero;stroke:none"
       d="m 140,70 h -4 v 2 h 4 z" /><path
       id="path266"
       style="fill:#191919;fill-opacity:1;fill-rule:nonzero;stroke:none"
       d="m 148,70 h -4 v 2 h 4 z" /><path
       id="path268"
       style="fill:#191919;fill-opacity:1;fill-rule:nonzero;stroke:none"
       d="m 156,70 h -4 v 2 h 4 z" /><path
       id="path270"
       style="fill:#191919;fill-opacity:1;fill-rule:nonzero;stroke:none"
       d="m 164,70 h -4 v 2 h 4 z" /><path
       id="path272"
       style="fill:#191919;fill-opacity:1;fill-rule:nonzero;stroke:none"
       d="m 172,70 h -4 v 2 h 4 z" /><path
       id="path274"
       style="fill:#191919;fill-opacity:1;fill-rule:nonzero;stroke:none"
       d="m 180,70 h -4 v 2 h 4 z" /><path
       id="path276"
       style="fill:#191919;fill-opacity:1;fill-rule:nonzero;stroke:none"
       d="m 188,70 h -4 v 2 h 4 z" /><path
       id="path278"
       style="fill:#191919;fill-opacity:1;fill-rule:nonzero;stroke:none"
       d="m 196,70 h -4 v 2 h 4 z" /><path
       id="path280"
       style="fill:#191919;fill-opacity:1;fill-rule:nonzero;stroke:none"
       d="m 204,70 h -4 v 2 h 4 z" /><path
       id="path282"
       style="fill:#191919;fill-opacity:1;fill-rule:nonzero;stroke:none"
       d="m 212,70 h -4 v 2 h 4 z" /><path
       id="path284"
       style="fill:#191919;fill-opacity:1;fill-rule:nonzero;stroke:none"
       d="m 220,70 h -4 v 2 h 4 z" /><path
       id="path286"
       style="fill:#191919;fill-opacity:1;fill-rule:nonzero;stroke:none"
       d="m 228,70 h -4 v 2 h 4 z" /><path
       id="path288"
       style="fill:#191919;fill-opacity:1;fill-rule:nonzero;stroke:none"
       d="m 36,66 h -4 v 2 h 4 z" /><path
       id="path290"
       style="fill:#191919;fill-opacity:1;fill-rule:nonzero;stroke:none"
       d="m 44,66 h -4 v 2 h 4 z" /><path
       id="path292"
       style="fill:#191919;fill-opacity:1;fill-rule:nonzero;stroke:none"
       d="m 52,66 h -4 v 2 h 4 z" /><path
       id="path294"
       style="fill:#191919;fill-opacity:1;fill-rule:nonzero;stroke:none"
       d="m 60,66 h -4 v 2 h 4 z" /><path
       id="path296"
       style="fill:#191919;fill-opacity:1;fill-rule:nonzero;stroke:none"
       d="m 68,66 h -4 v 2 h 4 z" /><path
       id="path298"
       style="fill:#191919;fill-opacity:1;fill-rule:nonzero;stroke:none"
       d="m 76,66 h -4 v 2 h 4 z" /><path
       id="path300"
       style="fill:#191919;fill-opacity:1;fill-rule:nonzero;stroke:none"
       d="m 84,66 h -4 v 2 h 4 z" /><path
       id="path302"
       style="fill:#191919;fill-opacity:1;fill-rule:nonzero;stroke:none"
       d="m 92,66 h -4 v 2 h 4 z" /><path
       id="path304"
       style="fill:#191919;fill-opacity:1;fill-rule:nonzero;stroke:none"
       d="m 100,66 h -4 v 2 h 4 z" /><path
       id="path306"
       style="fill:#191919;fill-opacity:1;fill-rule:nonzero;stroke:none"
       d="m 108,66 h -4 v 2 h 4 z" /><path
       id="path308"
       style="fill:#191919;fill-opacity:1;fill-rule:nonzero;stroke:none"
       d="m 116,66 h -4 v 2 h 4 z" /><path
       id="path310"
       style="fill:#191919;fill-opacity:1;fill-rule:nonzero;stroke:none"
       d="m 124,66 h -4 v 2 h 4 z" /><path
       id="path312"
       style="fill:#191919;fill-opacity:1;fill-rule:nonzero;stroke:none"
       d="m 132,66 h -4 v 2 h 4 z" /><path
       id="path314"
       style="fill:#191919;fill-opacity:1;fill-rule:nonzero;stroke:none"
       d="m 140,66 h -4 v 2 h 4 z" /><path
       id="path316"
       style="fill:#191919;fill-opacity:1;fill-rule:nonzero;stroke:none"
       d="m 148,66 h -4 v 2 h 4 z" /><path
       id="path318"
       style="fill:#191919;fill-opacity:1;fill-rule:nonzero;stroke:none"
       d="m 156,66 h -4 v 2 h 4 z" /><path
       id="path320"
       style="fill:#191919;fill-opacity:1;fill-rule:nonzero;stroke:none"
       d="m 164,66 h -4 v 2 h 4 z" /><path
       id="path322"
       style="fill:#191919;fill-opacity:1;fill-rule:nonzero;stroke:none"
       d="m 172,66 h -4 v 2 h 4 z" /><path
       id="path324"
       style="fill:#191919;fill-opacity:1;fill-rule:nonzero;stroke:none"
       d="m 180,66 h -4 v 2 h 4 z" /><path
       id="path326"
       style="fill:#191919;fill-opacity:1;fill-rule:nonzero;stroke:none"
       d="m 188,66 h -4 v 2 h 4 z" /><path
       id="path328"
       style="fill:#191919;fill-opacity:1;fill-rule:nonzero;stroke:none"
       d="m 196,66 h -4 v 2 h 4 z" /><path
       id="path330"
       style="fill:#191919;fill-opacity:1;fill-rule:nonzero;stroke:none"
       d="m 204,66 h -4 v 2 h 4 z" /><path
       id="path332"
       style="fill:#191919;fill-opacity:1;fill-rule:nonzero;stroke:none"
       d="m 212,66 h -4 v 2 h 4 z" /><path
       id="path334"
       style="fill:#191919;fill-opacity:1;fill-rule:nonzero;stroke:none"
       d="m 220,66 h -4 v 2 h 4 z" /><path
       id="path336"
       style="fill:#191919;fill-opacity:1;fill-rule:nonzero;stroke:none"
       d="m 228,66 h -4 v 2 h 4 z" /><path
       id="path338"
       style="fill:#191919;fill-opacity:1;fill-rule:nonzero;stroke:none"
       d="m 36,62 h -4 v 2 h 4 z" /><path
       id="path340"
       style="fill:#191919;fill-opacity:1;fill-rule:nonzero;stroke:none"
       d="m 44,62 h -4 v 2 h 4 z" /><path
       id="path342"
       style="fill:#191919;fill-opacity:1;fill-rule:nonzero;stroke:none"
       d="m 52,62 h -4 v 2 h 4 z" /><path
       id="path344"
       style="fill:#191919;fill-opacity:1;fill-rule:nonzero;stroke:none"
       d="m 60,62 h -4 v 2 h 4 z" /><path
       id="path346"
       style="fill:#191919;fill-opacity:1;fill-rule:nonzero;stroke:none"
       d="m 68,62 h -4 v 2 h 4 z" /><path
       id="path348"
       style="fill:#191919;fill-opacity:1;fill-rule:nonzero;stroke:none"
       d="m 76,62 h -4 v 2 h 4 z" /><path
       id="path350"
       style="fill:#191919;fill-opacity:1;fill-rule:nonzero;stroke:none"
       d="m 84,62 h -4 v 2 h 4 z" /><path
       id="path352"
       style="fill:#191919;fill-opacity:1;fill-rule:nonzero;stroke:none"
       d="m 92,62 h -4 v 2 h 4 z" /><path
       id="path354"
       style="fill:#191919;fill-opacity:1;fill-rule:nonzero;stroke:none"
       d="m 100,62 h -4 v 2 h 4 z" /><path
       id="path356"
       style="fill:#191919;fill-opacity:1;fill-rule:nonzero;stroke:none"
       d="m 108,62 h -4 v 2 h 4 z" /><path
       id="path358"
       style="fill:#191919;fill-opacity:1;fill-rule:nonzero;stroke:none"
       d="m 116,62 h -4 v 2 h 4 z" /><path
       id="path360"
       style="fill:#191919;fill-opacity:1;fill-rule:nonzero;stroke:none"
       d="m 124,62 h -4 v 2 h 4 z" /><path
       id="path362"
       style="fill:#191919;fill-opacity:1;fill-rule:nonzero;stroke:none"
       d="m 132,62 h -4 v 2 h 4 z" /><path
       id="path364"
       style="fill:#191919;fill-opacity:1;fill-rule:nonzero;stroke:none"
       d="m 140,62 h -4 v 2 h 4 z" /><path
       id="path366"
       style="fill:#191919;fill-opacity:1;fill-rule:nonzero;stroke:none"
       d="m 148,62 h -4 v 2 h 4 z" /><path
       id="path368"
       style="fill:#191919;fill-opacity:1;fill-rule:nonzero;stroke:none"
       d="m 156,62 h -4 v 2 h 4 z" /><path
       id="path370"
       style="fill:#191919;fill-opacity:1;fill-rule:nonzero;stroke:none"
       d="m 164,62 h -4 v 2 h 4 z" /><path
       id="path372"
       style="fill:#191919;fill-opacity:1;fill-rule:nonzero;stroke:none"
       d="m 172,62 h -4 v 2 h 4 z" /><path
       id="path374"
       style="fill:#191919;fill-opacity:1;fill-rule:nonzero;stroke:none"
       d="m 180,62 h -4 v 2 h 4 z" /><path
       id="path376"
       style="fill:#191919;fill-opacity:1;fill-rule:nonzero;stroke:none"
       d="m 188,62 h -4 v 2 h 4 z" /><path
       id="path378"
       style="fill:#191919;fill-opacity:1;fill-rule:nonzero;stroke:none"
       d="m 196,62 h -4 v 2 h 4 z" /><path
       id="path380"
       style="fill:#191919;fill-opacity:1;fill-rule:nonzero;stroke:none"
       d="m 204,62 h -4 v 2 h 4 z" /><path
       id="path382"
       style="fill:#191919;fill-opacity:1;fill-rule:nonzero;stroke:none"
       d="m 212,62 h -4 v 2 h 4 z" /><path
       id="path384"
       style="fill:#191919;fill-opacity:1;fill-rule:nonzero;stroke:none"
       d="m 220,62 h -4 v 2 h 4 z" /><path
       id="path386"
       style="fill:#191919;fill-opacity:1;fill-rule:nonzero;stroke:none"
       d="m 228,62 h -4 v 2 h 4 z" /></g></svg>