<?xml version="1.0" encoding="iso-8859-1"?>
<!-- Generator: Adobe Illustrator 28.0.0, SVG Export Plug-In . SVG Version: 6.00 Build 0)  -->
<svg version="1.1" id="Layer_1" xmlns="http://www.w3.org/2000/svg" xmlns:xlink="http://www.w3.org/1999/xlink" x="0px" y="0px"
	 viewBox="0 0 256 256" style="enable-background:new 0 0 256 256;" xml:space="preserve">
<path style="opacity:0.5;fill:#FFFFFF;" d="M216,32h-3.056l-9.789-19.578L200.944,8H196L60,8h-4.944l-2.211,4.422L43.056,32H40h-8v8
	v120v1.889l0.845,1.689l3.26,6.519l3.908,70.347l0.42,7.556H48h160h7.568l0.42-7.556l3.908-70.347l3.26-6.519l0.845-1.689V160V40v-8
	H216z"/>
<polygon style="fill:#D9D4BC;" points="208,240 48,240 44,168 212,168 "/>
<rect x="40" y="40" style="fill:#D9D4BC;" width="176" height="120"/>
<rect x="60" y="16" style="fill:#D9D4BC;" width="136" height="128"/>
<polygon style="fill:#C4C0AA;" points="60,144 48,160 48,40 60,16 "/>
<polygon style="fill:#C4C0AA;" points="196,144 208,160 208,40 196,16 "/>
<rect x="112" y="188" style="fill:#A6A390;" width="64" height="28"/>
<rect x="184" y="188" style="fill:#A6A390;" width="22" height="28"/>
<polygon style="fill:#A6A390;" points="196,144 60,144 48,160 208,160 196,144 "/>
<polyline style="fill:#333333;" points="195,146 204,158 52,158 61,146 195,146 "/>
<polygon style="fill:#C4C0AA;" points="216,160 40,160 44,168 212,168 216,160 "/>
<polygon style="fill:#262626;" points="208,162 206,166 50,166 48,162 "/>
<path style="fill:#1A1A1A;" d="M192.812,148H63.188c-1.76,0-3.188,1.343-3.188,3v1c0,2.209,30.445,4,68,4s68-1.791,68-4v-1
	C196,149.343,194.573,148,192.812,148z"/>
<polygon style="fill:#262626;" points="108,232 56,232 52,172 108,172 "/>
<rect x="60" y="176" style="fill:#404040;" width="44" height="28"/>
<rect x="58" y="216" style="fill:#333333;" width="8" height="16"/>
<rect x="68" y="216" style="fill:#333333;" width="8" height="16"/>
<rect x="78" y="216" style="fill:#333333;" width="8" height="16"/>
<rect x="88" y="216" style="fill:#333333;" width="8" height="16"/>
<rect x="98" y="216" style="fill:#333333;" width="8" height="16"/>
<rect x="60" y="208" style="fill:#808080;" width="44" height="4"/>
<g>
	<circle style="fill:#4D4D4D;" cx="72" cy="190" r="2"/>
	<circle style="fill:#4D4D4D;" cx="92" cy="190" r="2"/>
</g>
<rect x="112" y="188" style="fill:#3096CF;" width="4" height="4"/>
<rect x="118" y="188" style="fill:#3096CF;" width="4" height="4"/>
<rect x="124" y="188" style="fill:#3096CF;" width="4" height="4"/>
<rect x="130" y="188" style="fill:#3096CF;" width="4" height="4"/>
<rect x="136" y="188" style="fill:#3096CF;" width="4" height="4"/>
<rect x="142" y="188" style="fill:#3096CF;" width="4" height="4"/>
<rect x="148" y="188" style="fill:#3096CF;" width="4" height="4"/>
<rect x="154" y="188" style="fill:#3096CF;" width="4" height="4"/>
<rect x="160" y="188" style="fill:#3096CF;" width="4" height="4"/>
<rect x="166" y="188" style="fill:#3096CF;" width="4" height="4"/>
<rect x="172" y="188" style="fill:#3096CF;" width="4" height="4"/>
<rect x="184" y="188" style="fill:#B80000;" width="4" height="4"/>
<rect x="190" y="188" style="fill:#354F9F;" width="4" height="4"/>
<rect x="196" y="188" style="fill:#354F9F;" width="4" height="4"/>
<rect x="202" y="188" style="fill:#B80000;" width="4" height="4"/>
<rect x="112" y="194" style="fill:#9BC2DD;" width="4" height="4"/>
<rect x="118" y="194" style="fill:#9BC2DD;" width="4" height="4"/>
<rect x="124" y="194" style="fill:#9BC2DD;" width="4" height="4"/>
<rect x="130" y="194" style="fill:#9BC2DD;" width="4" height="4"/>
<rect x="136" y="194" style="fill:#9BC2DD;" width="4" height="4"/>
<rect x="142" y="194" style="fill:#9BC2DD;" width="4" height="4"/>
<rect x="148" y="194" style="fill:#9BC2DD;" width="4" height="4"/>
<rect x="154" y="194" style="fill:#9BC2DD;" width="4" height="4"/>
<rect x="160" y="194" style="fill:#9BC2DD;" width="4" height="4"/>
<rect x="166" y="194" style="fill:#9BC2DD;" width="4" height="4"/>
<rect x="172" y="194" style="fill:#9BC2DD;" width="4" height="4"/>
<rect x="184" y="194" style="fill:#9BC2DD;" width="4" height="4"/>
<rect x="190" y="194" style="fill:#9BC2DD;" width="4" height="4"/>
<rect x="196" y="194" style="fill:#9BC2DD;" width="4" height="4"/>
<rect x="202" y="194" style="fill:#3096CF;" width="4" height="4"/>
<rect x="112" y="200" style="fill:#9BC2DD;" width="4" height="4"/>
<rect x="118" y="200" style="fill:#9BC2DD;" width="4" height="4"/>
<rect x="124" y="200" style="fill:#9BC2DD;" width="4" height="4"/>
<rect x="130" y="200" style="fill:#9BC2DD;" width="4" height="4"/>
<rect x="136" y="200" style="fill:#9BC2DD;" width="4" height="4"/>
<rect x="142" y="200" style="fill:#9BC2DD;" width="4" height="4"/>
<rect x="148" y="200" style="fill:#9BC2DD;" width="4" height="4"/>
<rect x="154" y="200" style="fill:#9BC2DD;" width="4" height="4"/>
<rect x="160" y="200" style="fill:#9BC2DD;" width="4" height="4"/>
<rect x="166" y="200" style="fill:#9BC2DD;" width="4" height="4"/>
<rect x="172" y="200" style="fill:#B80000;" width="4" height="10"/>
<rect x="184" y="200" style="fill:#9BC2DD;" width="4" height="4"/>
<rect x="190" y="200" style="fill:#9BC2DD;" width="4" height="4"/>
<rect x="196" y="200" style="fill:#9BC2DD;" width="4" height="4"/>
<rect x="202" y="200" style="fill:#3096CF;" width="4" height="4"/>
<rect x="112" y="206" style="fill:#9BC2DD;" width="4" height="4"/>
<rect x="118" y="206" style="fill:#9BC2DD;" width="4" height="4"/>
<rect x="124" y="206" style="fill:#9BC2DD;" width="4" height="4"/>
<rect x="130" y="206" style="fill:#9BC2DD;" width="4" height="4"/>
<rect x="136" y="206" style="fill:#9BC2DD;" width="4" height="4"/>
<rect x="142" y="206" style="fill:#9BC2DD;" width="4" height="4"/>
<rect x="148" y="206" style="fill:#9BC2DD;" width="4" height="4"/>
<rect x="154" y="206" style="fill:#9BC2DD;" width="4" height="4"/>
<rect x="160" y="206" style="fill:#9BC2DD;" width="4" height="4"/>
<rect x="166" y="206" style="fill:#9BC2DD;" width="4" height="4"/>
<rect x="184" y="206" style="fill:#9BC2DD;" width="4" height="4"/>
<rect x="190" y="206" style="fill:#9BC2DD;" width="4" height="4"/>
<rect x="196" y="206" style="fill:#9BC2DD;" width="4" height="4"/>
<rect x="202" y="206" style="fill:#3096CF;" width="4" height="4"/>
<rect x="112" y="212" style="fill:#B80000;" width="4" height="4"/>
<rect x="118" y="212" style="fill:#354F9F;" width="4" height="4"/>
<rect x="124" y="212" style="fill:#3096CF;" width="4" height="4"/>
<rect x="130" y="212" style="fill:#3096CF;" width="4" height="4"/>
<rect x="136" y="212" style="fill:#3096CF;" width="4" height="4"/>
<rect x="142" y="212" style="fill:#B80000;" width="10" height="4"/>
<rect x="154" y="212" style="fill:#3096CF;" width="4" height="4"/>
<rect x="160" y="212" style="fill:#3096CF;" width="4" height="4"/>
<rect x="166" y="212" style="fill:#354F9F;" width="4" height="4"/>
<rect x="172" y="212" style="fill:#B80000;" width="4" height="4"/>
<rect x="184" y="212" style="fill:#3096CF;" width="4" height="4"/>
<rect x="190" y="212" style="fill:#3096CF;" width="4" height="4"/>
<rect x="196" y="212" style="fill:#3096CF;" width="4" height="4"/>
<rect x="202" y="212" style="fill:#3096CF;" width="4" height="4"/>
</svg>
