<svg xmlns="http://www.w3.org/2000/svg" xml:space="preserve" viewBox="0 0 256 256"><path d="M216 32h-3.056l-9.789-19.578L200.944 8H55.056l-2.211 4.422L43.056 32H32v129.889l.845 1.689 3.26 6.519 3.908 70.347.42 7.556h175.135l.42-7.556 3.908-70.347 3.26-6.519.845-1.689V32z" style="opacity:.5;fill:#fff"/><path d="M208 240H48l-4-72h168zM40 40h176v120H40z" style="fill:#d9d4bc"/><path d="M60 16h136v128H60z" style="fill:#d9d4bc"/><path d="m60 144-12 16V40l12-24zm136 0 12 16V40l-12-24z" style="fill:#c4c0aa"/><path d="M112 188h64v28h-64zm72 0h22v28h-22zm12-44H60l-12 16h160z" style="fill:#a6a390"/><path d="m195 146 9 12H52l9-12z" style="fill:#333"/><path d="M216 160H40l4 8h168z" style="fill:#c4c0aa"/><path d="m208 162-2 4H50l-2-4z" style="fill:#262626"/><path d="M192.812 148H63.188c-1.76 0-3.188 1.343-3.188 3v1c0 2.209 30.445 4 68 4s68-1.791 68-4v-1c0-1.657-1.427-3-3.188-3" style="fill:#1a1a1a"/><path d="M108 232H56l-4-60h56z" style="fill:#262626"/><path d="M60 176h44v28H60z" style="fill:#404040"/><path d="M58 216h8v16h-8zm10 0h8v16h-8zm10 0h8v16h-8zm10 0h8v16h-8zm10 0h8v16h-8z" style="fill:#333"/><path d="M60 208h44v4H60z" style="fill:gray"/><circle cx="72" cy="190" r="2" style="fill:#4d4d4d"/><circle cx="92" cy="190" r="2" style="fill:#4d4d4d"/><path d="M112 188h4v4h-4zm6 0h4v4h-4zm6 0h4v4h-4zm6 0h4v4h-4zm6 0h4v4h-4zm6 0h4v4h-4zm6 0h4v4h-4zm6 0h4v4h-4zm6 0h4v4h-4zm6 0h4v4h-4zm6 0h4v4h-4z" style="fill:#3096cf"/><path d="M184 188h4v4h-4z" style="fill:#b80000"/><path d="M190 188h4v4h-4zm6 0h4v4h-4z" style="fill:#354f9f"/><path d="M202 188h4v4h-4z" style="fill:#b80000"/><path d="M112 194h4v4h-4zm6 0h4v4h-4zm6 0h4v4h-4zm6 0h4v4h-4zm6 0h4v4h-4zm6 0h4v4h-4zm6 0h4v4h-4zm6 0h4v4h-4zm6 0h4v4h-4zm6 0h4v4h-4zm6 0h4v4h-4zm12 0h4v4h-4zm6 0h4v4h-4zm6 0h4v4h-4z" style="fill:#9bc2dd"/><path d="M202 194h4v4h-4z" style="fill:#3096cf"/><path d="M112 200h4v4h-4zm6 0h4v4h-4zm6 0h4v4h-4zm6 0h4v4h-4zm6 0h4v4h-4zm6 0h4v4h-4zm6 0h4v4h-4zm6 0h4v4h-4zm6 0h4v4h-4zm6 0h4v4h-4z" style="fill:#9bc2dd"/><path d="M172 200h4v10h-4z" style="fill:#b80000"/><path d="M184 200h4v4h-4zm6 0h4v4h-4zm6 0h4v4h-4z" style="fill:#9bc2dd"/><path d="M202 200h4v4h-4z" style="fill:#3096cf"/><path d="M112 206h4v4h-4zm6 0h4v4h-4zm6 0h4v4h-4zm6 0h4v4h-4zm6 0h4v4h-4zm6 0h4v4h-4zm6 0h4v4h-4zm6 0h4v4h-4zm6 0h4v4h-4zm6 0h4v4h-4zm18 0h4v4h-4zm6 0h4v4h-4zm6 0h4v4h-4z" style="fill:#9bc2dd"/><path d="M202 206h4v4h-4z" style="fill:#3096cf"/><path d="M112 212h4v4h-4z" style="fill:#b80000"/><path d="M118 212h4v4h-4z" style="fill:#354f9f"/><path d="M124 212h4v4h-4zm6 0h4v4h-4zm6 0h4v4h-4z" style="fill:#3096cf"/><path d="M142 212h10v4h-10z" style="fill:#b80000"/><path d="M154 212h4v4h-4zm6 0h4v4h-4z" style="fill:#3096cf"/><path d="M166 212h4v4h-4z" style="fill:#354f9f"/><path d="M172 212h4v4h-4z" style="fill:#b80000"/><path d="M184 212h4v4h-4zm6 0h4v4h-4zm6 0h4v4h-4zm6 0h4v4h-4z" style="fill:#3096cf"/></svg>