<?xml version="1.0" encoding="iso-8859-1"?>
<!-- Generator: Adobe Illustrator 27.8.1, SVG Export Plug-In . SVG Version: 6.00 Build 0)  -->
<svg version="1.1" id="Layer_1" xmlns="http://www.w3.org/2000/svg" xmlns:xlink="http://www.w3.org/1999/xlink" x="0px" y="0px"
	 viewBox="0 0 256 256" style="enable-background:new 0 0 256 256;" xml:space="preserve">
<path style="opacity:0.5;fill:#FFFFFF;" d="M205.891,166.685l-4-24c-0.068-0.411-0.167-0.81-0.295-1.195L194.088,25.1
	c-0.138-2.144-0.695-4.204-1.656-6.125c-0.256-0.512-0.566-0.994-0.924-1.44L188,13.179V12c0-4.418-3.582-8-8-8h-28
	c-0.34,0-0.675,0.021-1.003,0.062C150.666,4.021,150.333,4,150,4h-36c-0.333,0-0.666,0.021-0.997,0.062
	C112.675,4.021,112.34,4,112,4H84c-4.418,0-8,3.582-8,8v1.194l-3.583,4.48c-0.352,0.44-0.656,0.915-0.908,1.419
	c-0.882,1.763-1.425,3.652-1.615,5.615L58.657,140.825c-0.091,0.21-0.173,0.425-0.246,0.646l-8,24C50.139,166.286,50,167.14,50,168
	v8c0,6.617,5.383,12,12,12h2v56c0,4.418,3.582,8,8,8h116c4.418,0,8-3.582,8-8v-56.167c5.668-0.955,10-5.898,10-11.833v-8
	C206,167.559,205.964,167.119,205.891,166.685z"/>
<rect x="72" y="180" style="fill:#CCCCCC;" width="116" height="64"/>
<path style="fill:#DADBD5;" d="M176,204h-32c-2.2,0-4-1.8-4-4v-12c0-2.2,1.8-4,4-4h32c2.2,0,4,1.8,4,4v12
	C180,202.2,178.2,204,176,204z"/>
<path style="fill:#DADBD5;" d="M176,236h-32c-2.2,0-4-1.8-4-4v-20c0-2.2,1.8-4,4-4h32c2.2,0,4,1.8,4,4v20
	C180,234.2,178.2,236,176,236z"/>
<path style="fill:#DADBD5;" d="M185.276,22.552L180,16l-30-4h-36l-30,4l-5.336,6.671c-0.439,0.878-0.713,1.83-0.807,2.807L66,148
	h128l-7.896-122.385C186.035,24.549,185.754,23.508,185.276,22.552z"/>
<path style="fill:#DADBD5;" d="M194,180H62c-2.209,0-4-1.791-4-4v-8h140v8C198,178.209,196.209,180,194,180z"/>
<polygon style="fill:#CCCCCC;" points="66,144 58,168 130,172 198,168 194,144 "/>
<path style="fill:#354F9F;" d="M69.544,153.368l-2.722,8.166c-0.415,1.246,0.462,2.547,1.773,2.629l53.155,3.322
	c5.495,0.343,11.006,0.332,16.499-0.034l49.169-3.278c1.307-0.087,2.178-1.386,1.764-2.628l-2.726-8.177
	c-0.272-0.817-1.036-1.368-1.897-1.368H71.442C70.581,152,69.816,152.551,69.544,153.368z"/>
<g>
	<ellipse style="fill:#FFFFFF;" cx="183" cy="156" rx="3" ry="2"/>
	<ellipse style="fill:#ED4792;" cx="179" cy="162" rx="3" ry="2"/>
	<ellipse style="fill:#FFFFFF;" cx="175" cy="156" rx="3" ry="2"/>
	<ellipse style="fill:#ED4792;" cx="171" cy="162" rx="3" ry="2"/>
	<ellipse style="fill:#FFFFFF;" cx="167" cy="156" rx="3" ry="2"/>
	<g>
		<ellipse style="fill:#FDB913;" cx="134" cy="158" rx="3" ry="2"/>
		<ellipse style="fill:#FDB913;" cx="126" cy="158" rx="3" ry="2"/>
	</g>
	<ellipse style="fill:#ED4792;" cx="163" cy="162" rx="3" ry="2"/>
	<g>
		<ellipse style="fill:#ED4792;" cx="111" cy="156" rx="3" ry="2"/>
		<ellipse style="fill:#FFFFFF;" cx="107" cy="162" rx="3" ry="2"/>
		<ellipse style="fill:#ED4792;" cx="103" cy="156" rx="3" ry="2"/>
		<ellipse style="fill:#FFFFFF;" cx="99" cy="162" rx="3" ry="2"/>
		<ellipse style="fill:#ED4792;" cx="95" cy="156" rx="3" ry="2"/>
		<ellipse style="fill:#FFFFFF;" cx="91" cy="162" rx="3" ry="2"/>
	</g>
	<ellipse style="fill:#1A1A1A;" cx="152" cy="159" rx="6" ry="3"/>
	<ellipse style="fill:#1A1A1A;" cx="80" cy="159" rx="6" ry="3"/>
	<path style="fill:#CCCCCC;" d="M80,160L80,160c-1.1,0-2-0.9-2-2v-4c0-1.1,0.9-2,2-2l0,0c1.1,0,2,0.9,2,2v4
		C82,159.1,81.1,160,80,160z"/>
	<circle style="fill:#ED4792;" cx="80" cy="152" r="4"/>
	<path style="fill:#CCCCCC;" d="M152,160L152,160c-1.1,0-2-0.9-2-2v-4c0-1.1,0.9-2,2-2l0,0c1.1,0,2,0.9,2,2v4
		C154,159.1,153.1,160,152,160z"/>
	<circle style="fill:#FFFFFF;" cx="152" cy="152" r="4"/>
</g>
<path style="fill:#404040;" d="M183.922,144H78.157c-2.269,0-4.084-1.886-3.997-4.154l7.695-98.003
	C81.937,40.803,82.805,40,83.849,40h96.226c1.075,0,1.957,0.849,1.999,1.923l3.846,100C185.964,143.057,185.056,144,183.922,144z"/>
<path style="fill:#2B2B2B;" d="M173.772,128H86.228c-2.296,0-4.121-1.929-3.994-4.222l3.556-64C85.908,57.658,87.661,56,89.784,56
	h80.432c2.123,0,3.876,1.658,3.994,3.778l3.556,64C177.893,126.071,176.068,128,173.772,128z"/>
<polygon style="fill:#262626;" points="112,36 84,32 84,12 112,12 "/>
<polygon style="fill:#262626;" points="152,36 180,32 180,12 152,12 "/>
<rect x="116" y="16" style="fill:#354F9F;" width="32" height="20"/>
<path style="fill:#DADBD5;" d="M127.547,184H80.453c-2.455,0-4.453,1.524-4.453,3.396v45.209c0,1.872,1.998,3.396,4.453,3.396
	h47.094c2.455,0,4.453-1.523,4.453-3.396v-45.209C132,185.524,130.002,184,127.547,184L127.547,184z"/>
<rect x="172" y="196" style="fill:#262626;" width="4" height="4"/>
<circle style="fill:#262626;" cx="158" cy="190" r="2"/>
<circle style="fill:#262626;" cx="106" cy="190" r="2"/>
<circle style="fill:#262626;" cx="146" cy="222" r="2"/>
</svg>
