<svg xmlns="http://www.w3.org/2000/svg" xml:space="preserve" viewBox="0 0 256 256"><path d="m205.891 166.685-4-24a8 8 0 0 0-.295-1.195L194.088 25.1a15.9 15.9 0 0 0-1.656-6.125 8 8 0 0 0-.924-1.44L188 13.179V12a8 8 0 0 0-8-8h-28q-.51 0-1.003.062A8 8 0 0 0 150 4h-36q-.5 0-.997.062A8 8 0 0 0 112 4H84a8 8 0 0 0-8 8v1.194l-3.583 4.48a8 8 0 0 0-.908 1.419 15.9 15.9 0 0 0-1.615 5.615L58.657 140.825q-.136.315-.246.646l-8 24A8 8 0 0 0 50 168v8c0 6.617 5.383 12 12 12h2v56a8 8 0 0 0 8 8h116a8 8 0 0 0 8-8v-56.167c5.668-.955 10-5.898 10-11.833v-8q0-.663-.109-1.315" style="opacity:.5;fill:#fff"/><path d="M72 180h116v64H72z" style="fill:#ccc"/><path d="M176 204h-32c-2.2 0-4-1.8-4-4v-12c0-2.2 1.8-4 4-4h32c2.2 0 4 1.8 4 4v12c0 2.2-1.8 4-4 4m0 32h-32c-2.2 0-4-1.8-4-4v-20c0-2.2 1.8-4 4-4h32c2.2 0 4 1.8 4 4v20c0 2.2-1.8 4-4 4m9.276-213.448L180 16l-30-4h-36l-30 4-5.336 6.671a8 8 0 0 0-.807 2.807L66 148h128l-7.896-122.385a8 8 0 0 0-.828-3.063M194 180H62a4 4 0 0 1-4-4v-8h140v8a4 4 0 0 1-4 4" style="fill:#dadbd5"/><path d="m66 144-8 24 72 4 68-4-4-24z" style="fill:#ccc"/><path d="m69.544 153.368-2.722 8.166a2 2 0 0 0 1.773 2.629l53.155 3.322c5.495.343 11.006.332 16.499-.034l49.169-3.278a2 2 0 0 0 1.764-2.628l-2.726-8.177a2 2 0 0 0-1.897-1.368H71.442a2 2 0 0 0-1.898 1.368" style="fill:#354f9f"/><ellipse cx="183" cy="156" rx="3" ry="2" style="fill:#fff"/><ellipse cx="179" cy="162" rx="3" ry="2" style="fill:#ed4792"/><ellipse cx="175" cy="156" rx="3" ry="2" style="fill:#fff"/><ellipse cx="171" cy="162" rx="3" ry="2" style="fill:#ed4792"/><ellipse cx="167" cy="156" rx="3" ry="2" style="fill:#fff"/><ellipse cx="134" cy="158" rx="3" ry="2" style="fill:#fdb913"/><ellipse cx="126" cy="158" rx="3" ry="2" style="fill:#fdb913"/><ellipse cx="163" cy="162" rx="3" ry="2" style="fill:#ed4792"/><ellipse cx="111" cy="156" rx="3" ry="2" style="fill:#ed4792"/><ellipse cx="107" cy="162" rx="3" ry="2" style="fill:#fff"/><ellipse cx="103" cy="156" rx="3" ry="2" style="fill:#ed4792"/><ellipse cx="99" cy="162" rx="3" ry="2" style="fill:#fff"/><ellipse cx="95" cy="156" rx="3" ry="2" style="fill:#ed4792"/><ellipse cx="91" cy="162" rx="3" ry="2" style="fill:#fff"/><ellipse cx="152" cy="159" rx="6" ry="3" style="fill:#1a1a1a"/><ellipse cx="80" cy="159" rx="6" ry="3" style="fill:#1a1a1a"/><path d="M80 160c-1.1 0-2-.9-2-2v-4c0-1.1.9-2 2-2s2 .9 2 2v4c0 1.1-.9 2-2 2" style="fill:#ccc"/><circle cx="80" cy="152" r="4" style="fill:#ed4792"/><path d="M152 160c-1.1 0-2-.9-2-2v-4c0-1.1.9-2 2-2s2 .9 2 2v4c0 1.1-.9 2-2 2" style="fill:#ccc"/><circle cx="152" cy="152" r="4" style="fill:#fff"/><path d="M183.922 144H78.157a4 4 0 0 1-3.997-4.154l7.695-98.003A2 2 0 0 1 83.849 40h96.226a2 2 0 0 1 1.999 1.923l3.846 100a2 2 0 0 1-1.998 2.077" style="fill:#404040"/><path d="M173.772 128H86.228a4 4 0 0 1-3.994-4.222l3.556-64A4 4 0 0 1 89.784 56h80.432a4 4 0 0 1 3.994 3.778l3.556 64a4 4 0 0 1-3.994 4.222" style="fill:#2b2b2b"/><path d="m112 36-28-4V12h28zm40 0 28-4V12h-28z" style="fill:#262626"/><path d="M116 16h32v20h-32z" style="fill:#354f9f"/><path d="M127.547 184H80.453c-2.455 0-4.453 1.524-4.453 3.396v45.209c0 1.872 1.998 3.396 4.453 3.396h47.094c2.455 0 4.453-1.523 4.453-3.396v-45.209c0-1.872-1.998-3.396-4.453-3.396" style="fill:#dadbd5"/><path d="M172 196h4v4h-4z" style="fill:#262626"/><circle cx="158" cy="190" r="2" style="fill:#262626"/><circle cx="106" cy="190" r="2" style="fill:#262626"/><circle cx="146" cy="222" r="2" style="fill:#262626"/></svg>