<?xml version="1.0" encoding="UTF-8" standalone="no"?>
<svg
   xmlns:dc="http://purl.org/dc/elements/1.1/"
   xmlns:cc="http://creativecommons.org/ns#"
   xmlns:rdf="http://www.w3.org/1999/02/22-rdf-syntax-ns#"
   xmlns:svg="http://www.w3.org/2000/svg"
   xmlns="http://www.w3.org/2000/svg"
   viewBox="0 0 149.33333 330.66626"
   height="330.66626"
   width="149.33333"
   xml:space="preserve"
   id="svg2"
   version="1.1"><metadata
     id="metadata8"><rdf:RDF><cc:Work
         rdf:about=""><dc:format>image/svg+xml</dc:format><dc:type
           rdf:resource="http://purl.org/dc/dcmitype/StillImage" /></cc:Work></rdf:RDF></metadata><defs
     id="defs6"><clipPath
       id="clipPath18"
       clipPathUnits="userSpaceOnUse"><path
         id="path16"
         d="M 0,256 H 256 V 0 H 0 Z" /></clipPath><clipPath
       id="clipPath26"
       clipPathUnits="userSpaceOnUse"><path
         id="path24"
         d="M 72.6667,252 H 184.667 V 4 H 72.6667 Z" /></clipPath><clipPath
       id="clipPath46"
       clipPathUnits="userSpaceOnUse"><path
         id="path44"
         d="M 0,256 H 256 V 0 H 0 Z" /></clipPath></defs><g
     transform="matrix(1.3333333,0,0,-1.3333333,-96.889198,335.99999)"
     id="g10"><g
       id="g12"><g
         clip-path="url(#clipPath18)"
         id="g14"><g
           id="g20"><g
             id="g22" /><g
             id="g34"><g
               style="opacity:0.5"
               id="g32"
               clip-path="url(#clipPath26)"><g
                 id="g30"
                 transform="translate(184.2559,122.5293)"><path
                   id="path28"
                   style="fill:#ffffff;fill-opacity:1;fill-rule:nonzero;stroke:none"
                   d="m 0,0 -3.544,10.633 c -0.8,2.4 -2.443,4.338 -4.536,5.53 l -2.979,38.713 c 2.096,1.443 3.47,3.858 3.47,6.595 v 28 c 0,1.457 -0.39,2.823 -1.07,4 0.68,1.176 1.07,2.543 1.07,4 v 24 c 0,4.418 -3.582,8 -8,8 h -80 c -4.418,0 -8,-3.582 -8,-8 v -24 c 0,-1.457 0.389,-2.824 1.07,-4 -0.681,-1.177 -1.07,-2.543 -1.07,-4 v -28 c 0,-2.737 1.373,-5.152 3.469,-6.595 l -2.978,-38.713 c -2.093,-1.192 -3.736,-3.13 -4.536,-5.53 L -111.179,0 c -0.272,-0.815 -0.41,-1.67 -0.41,-2.529 v -20 c 0,-3.444 2.203,-6.501 5.47,-7.59 l 2.53,-0.843 v -79.567 c 0,-4.418 3.582,-8 8,-8 h 79.999 c 4.419,0 8,3.582 8,8 v 79.567 l 2.53,0.843 c 3.267,1.089 5.471,4.146 5.471,7.59 v 20 C 0.411,-1.67 0.272,-0.815 0,0" /></g></g></g></g></g></g><path
       id="path36"
       style="fill:#191919;fill-opacity:1;fill-rule:nonzero;stroke:none"
       d="m 136,208 h -16 v 16 h 16 z" /><path
       id="path38"
       style="fill:#00007b;fill-opacity:1;fill-rule:nonzero;stroke:none"
       d="M 168,212 H 88 v -28 h 80 z" /><g
       id="g40"><g
         clip-path="url(#clipPath46)"
         id="g42"><g
           transform="translate(170.5586,132)"
           id="g48"><path
             id="path50"
             style="fill:#595959;fill-opacity:1;fill-rule:nonzero;stroke:none"
             d="m 0,0 h -85.117 c -0.861,0 -1.625,-0.551 -1.898,-1.368 L -90.559,-12 l 12,-4 h 72 l 12,4 -3.544,10.632 C 1.625,-0.551 0.86,0 0,0" /></g><path
           id="path52"
           style="fill:#0000ff;fill-opacity:1;fill-rule:nonzero;stroke:none"
           d="M 168,12 H 88 v 92 h 80 z" /><path
           id="path54"
           style="fill:#00007b;fill-opacity:1;fill-rule:nonzero;stroke:none"
           d="M 168,104 H 88 V 12 h 80 z M 166,14.19 H 90 v 87.619 h 76 z" /><g
           transform="translate(137.2812,28)"
           id="g56"><path
             id="path58"
             style="fill:#262626;fill-opacity:1;fill-rule:nonzero;stroke:none"
             d="m 0,0 h -18.562 c -1.496,0 -2.719,1.224 -2.719,2.719 v 46.562 c 0,1.495 1.223,2.719 2.719,2.719 H 0 c 1.495,0 2.719,-1.224 2.719,-2.719 V 2.719 C 2.719,1.224 1.495,0 0,0" /></g><path
           id="path60"
           style="fill:#191919;fill-opacity:1;fill-rule:nonzero;stroke:none"
           d="m 138,75.969 h -20 v -20.01 h 20 z m -2,-18.01 h -16 v 16.01 h 16 z" /><path
           id="path62"
           style="fill:#191919;fill-opacity:1;fill-rule:nonzero;stroke:none"
           d="M 138,52.01 H 118 V 32 h 20 z M 136,34 h -16 v 16.01 h 16 z" /><path
           id="path64"
           style="fill:#7b0000;fill-opacity:1;fill-rule:nonzero;stroke:none"
           d="m 126,68 h -4 v 4 h 4 z" /><path
           id="path66"
           style="fill:#7b0000;fill-opacity:1;fill-rule:nonzero;stroke:none"
           d="m 134,68 h -4 v 4 h 4 z" /><path
           id="path68"
           style="fill:#0d0d0d;fill-opacity:1;fill-rule:nonzero;stroke:none"
           d="m 126,60 h -4 v 4 h 4 z" /><path
           id="path70"
           style="fill:#0d0d0d;fill-opacity:1;fill-rule:nonzero;stroke:none"
           d="m 134,60 h -4 v 4 h 4 z" /><path
           id="path72"
           style="fill:#0000ff;fill-opacity:1;fill-rule:nonzero;stroke:none"
           d="M 168,220 H 88 v 24 h 80 z" /><path
           id="path74"
           style="fill:#00007b;fill-opacity:1;fill-rule:nonzero;stroke:none"
           d="m 140,215 h -24 v 2 h 24 z" /><path
           id="path76"
           style="fill:#00007b;fill-opacity:1;fill-rule:nonzero;stroke:none"
           d="M 168,244 H 88 v -24 h 80 z m -2,-21.6 H 90 v 19.2 h 76 z" /><path
           id="path78"
           style="fill:#0000ff;fill-opacity:1;fill-rule:nonzero;stroke:none"
           d="M 166,186 H 90 v 24 h 76 z" /><path
           id="path80"
           style="fill:#191919;fill-opacity:1;fill-rule:nonzero;stroke:none"
           d="M 116,188 H 92 v 20 h 24 z" /><path
           id="path82"
           style="fill:#191919;fill-opacity:1;fill-rule:nonzero;stroke:none"
           d="m 164,188 h -24 v 20 h 24 z" /><path
           id="path84"
           style="fill:#ffffff;fill-opacity:1;fill-rule:nonzero;stroke:none"
           d="m 134,196 h -12 v 4 h 12 z" /><g
           transform="translate(114,125)"
           id="g86"><path
             id="path88"
             style="fill:#263979;fill-opacity:1;fill-rule:nonzero;stroke:none"
             d="m 0,0 c 0,-0.553 -0.896,-1 -2,-1 -1.104,0 -2,0.447 -2,1 0,0.553 0.896,1 2,1 1.104,0 2,-0.447 2,-1" /></g><g
           transform="translate(120,125)"
           id="g90"><path
             id="path92"
             style="fill:#007b00;fill-opacity:1;fill-rule:nonzero;stroke:none"
             d="m 0,0 c 0,-0.553 -0.896,-1 -2,-1 -1.104,0 -2,0.447 -2,1 0,0.553 0.896,1 2,1 1.104,0 2,-0.447 2,-1" /></g><g
           transform="translate(104,129)"
           id="g94"><path
             id="path96"
             style="fill:#ffffff;fill-opacity:1;fill-rule:nonzero;stroke:none"
             d="m 0,0 c 0,-0.552 -0.896,-1 -2,-1 -1.104,0 -2,0.448 -2,1 0,0.552 0.896,1 2,1 1.104,0 2,-0.448 2,-1" /></g><g
           transform="translate(108,125)"
           id="g98"><path
             id="path100"
             style="fill:#ff0000;fill-opacity:1;fill-rule:nonzero;stroke:none"
             d="m 0,0 c 0,-0.553 -0.896,-1 -2,-1 -1.104,0 -2,0.447 -2,1 0,0.553 0.896,1 2,1 1.104,0 2,-0.447 2,-1" /></g><g
           transform="translate(114,121)"
           id="g102"><path
             id="path104"
             style="fill:#263979;fill-opacity:1;fill-rule:nonzero;stroke:none"
             d="m 0,0 c 0,-0.553 -0.896,-1 -2,-1 -1.104,0 -2,0.447 -2,1 0,0.553 0.896,1 2,1 1.104,0 2,-0.447 2,-1" /></g><g
           transform="translate(120,121)"
           id="g106"><path
             id="path108"
             style="fill:#007b00;fill-opacity:1;fill-rule:nonzero;stroke:none"
             d="m 0,0 c 0,-0.553 -0.896,-1 -2,-1 -1.104,0 -2,0.447 -2,1 0,0.553 0.896,1 2,1 1.104,0 2,-0.447 2,-1" /></g><g
           transform="translate(108,121)"
           id="g110"><path
             id="path112"
             style="fill:#ff0000;fill-opacity:1;fill-rule:nonzero;stroke:none"
             d="m 0,0 c 0,-0.553 -0.896,-1 -2,-1 -1.104,0 -2,0.447 -2,1 0,0.553 0.896,1 2,1 1.104,0 2,-0.447 2,-1" /></g><g
           transform="translate(100.5,123.75)"
           id="g114"><path
             id="path116"
             style="fill:#191919;fill-opacity:1;fill-rule:nonzero;stroke:none"
             d="M 0,0 C 0,-1.242 -2.015,-2.25 -4.5,-2.25 -6.985,-2.25 -9,-1.242 -9,0 -9,1.242 -6.985,2.25 -4.5,2.25 -2.015,2.25 0,1.242 0,0" /></g><g
           transform="translate(94.875,123.6855)"
           id="g118"><path
             id="path120"
             style="fill:#333333;fill-opacity:1;fill-rule:nonzero;stroke:none"
             d="m 0,0 -1.125,6.652 c 0,0.914 1.013,1.662 2.25,1.662 1.237,0 2.25,-0.748 2.25,-1.662 L 2.25,0 C 2.25,-0.914 0,-0.914 0,0" /></g><g
           transform="translate(158,125)"
           id="g122"><path
             id="path124"
             style="fill:#263979;fill-opacity:1;fill-rule:nonzero;stroke:none"
             d="m 0,0 c 0,-0.553 -0.896,-1 -2,-1 -1.104,0 -2,0.447 -2,1 0,0.553 0.896,1 2,1 1.104,0 2,-0.447 2,-1" /></g><g
           transform="translate(164,125)"
           id="g126"><path
             id="path128"
             style="fill:#007b00;fill-opacity:1;fill-rule:nonzero;stroke:none"
             d="m 0,0 c 0,-0.553 -0.896,-1 -2,-1 -1.104,0 -2,0.447 -2,1 0,0.553 0.896,1 2,1 1.104,0 2,-0.447 2,-1" /></g><g
           transform="translate(148,129)"
           id="g130"><path
             id="path132"
             style="fill:#ffffff;fill-opacity:1;fill-rule:nonzero;stroke:none"
             d="m 0,0 c 0,-0.552 -0.896,-1 -2,-1 -1.104,0 -2,0.448 -2,1 0,0.552 0.896,1 2,1 1.104,0 2,-0.448 2,-1" /></g><g
           transform="translate(152,125)"
           id="g134"><path
             id="path136"
             style="fill:#ff0000;fill-opacity:1;fill-rule:nonzero;stroke:none"
             d="m 0,0 c 0,-0.553 -0.896,-1 -2,-1 -1.104,0 -2,0.447 -2,1 0,0.553 0.896,1 2,1 1.104,0 2,-0.447 2,-1" /></g><g
           transform="translate(158,121)"
           id="g138"><path
             id="path140"
             style="fill:#263979;fill-opacity:1;fill-rule:nonzero;stroke:none"
             d="m 0,0 c 0,-0.553 -0.896,-1 -2,-1 -1.104,0 -2,0.447 -2,1 0,0.553 0.896,1 2,1 1.104,0 2,-0.447 2,-1" /></g><g
           transform="translate(164,121)"
           id="g142"><path
             id="path144"
             style="fill:#007b00;fill-opacity:1;fill-rule:nonzero;stroke:none"
             d="m 0,0 c 0,-0.553 -0.896,-1 -2,-1 -1.104,0 -2,0.447 -2,1 0,0.553 0.896,1 2,1 1.104,0 2,-0.447 2,-1" /></g><g
           transform="translate(152,121)"
           id="g146"><path
             id="path148"
             style="fill:#ff0000;fill-opacity:1;fill-rule:nonzero;stroke:none"
             d="m 0,0 c 0,-0.553 -0.896,-1 -2,-1 -1.104,0 -2,0.447 -2,1 0,0.553 0.896,1 2,1 1.104,0 2,-0.447 2,-1" /></g><g
           transform="translate(144.5,123.75)"
           id="g150"><path
             id="path152"
             style="fill:#191919;fill-opacity:1;fill-rule:nonzero;stroke:none"
             d="M 0,0 C 0,-1.242 -2.015,-2.25 -4.5,-2.25 -6.985,-2.25 -9,-1.242 -9,0 -9,1.242 -6.985,2.25 -4.5,2.25 -2.015,2.25 0,1.242 0,0" /></g><g
           transform="translate(138.875,123.6855)"
           id="g154"><path
             id="path156"
             style="fill:#333333;fill-opacity:1;fill-rule:nonzero;stroke:none"
             d="m 0,0 -1.125,6.652 c 0,0.914 1.013,1.662 2.25,1.662 1.237,0 2.25,-0.748 2.25,-1.662 L 2.25,0 C 2.25,-0.914 0,-0.914 0,0" /></g><g
           transform="translate(164,116)"
           id="g158"><path
             id="path160"
             style="fill:#191919;fill-opacity:1;fill-rule:nonzero;stroke:none"
             d="m 0,0 h -72 l -12,4 v -18.559 c 0,-0.86 0.551,-1.625 1.368,-1.897 L -72,-20 H 0 l 10.633,3.544 c 0.816,0.272 1.367,1.037 1.367,1.897 V 4 Z" /></g><path
           id="path162"
           style="fill:#262626;fill-opacity:1;fill-rule:nonzero;stroke:none"
           d="M 164,96 H 92 v 20 h 72 z" /><g
           transform="translate(92,184)"
           id="g164"><path
             id="path166"
             style="fill:#191919;fill-opacity:1;fill-rule:nonzero;stroke:none"
             d="m 0,0 h 72 l 4,-52 H -4 Z" /></g><g
           transform="translate(156.9111,180)"
           id="g168"><path
             id="path170"
             style="fill:#262626;fill-opacity:1;fill-rule:nonzero;stroke:none"
             d="m 0,0 h -57.503 c -2.09,0 -3.828,-1.609 -3.988,-3.693 l -2.769,-36 C -64.439,-42.017 -62.602,-44 -60.272,-44 H 2.77 c 2.33,0 4.167,1.983 3.988,4.307 l -2.77,36 C 3.828,-1.609 2.09,0 0,0" /></g></g></g></g></svg>