<svg xmlns="http://www.w3.org/2000/svg" xml:space="preserve" width="149.333" height="330.666" viewBox="0 0 149.333 330.666"><defs><clipPath id="a" clipPathUnits="userSpaceOnUse"><path d="M0 256h256V0H0Z"/></clipPath><clipPath id="b" clipPathUnits="userSpaceOnUse"><path d="M72.667 252h112V4h-112Z"/></clipPath><clipPath id="c" clipPathUnits="userSpaceOnUse"><path d="M0 256h256V0H0Z"/></clipPath></defs><g clip-path="url(#a)" transform="matrix(1.33333 0 0 -1.33333 -96.89 336)"><g clip-path="url(#b)" style="opacity:.5"><path d="m0 0-3.544 10.633a10 10 0 0 1-4.536 5.53l-2.979 38.713a7.99 7.99 0 0 1 3.47 6.595v28c0 1.457-.39 2.823-1.07 4a7.97 7.97 0 0 1 1.07 4v24a8 8 0 0 1-8 8h-80a8 8 0 0 1-8-8v-24c0-1.457.389-2.824 1.07-4a7.96 7.96 0 0 1-1.07-4v-28a7.99 7.99 0 0 1 3.469-6.595l-2.978-38.713a10 10 0 0 1-4.536-5.53L-111.179 0a8 8 0 0 1-.41-2.529v-20a8 8 0 0 1 5.47-7.59l2.53-.843v-79.567a8 8 0 0 1 8-8h79.999a8 8 0 0 1 8 8v79.567l2.53.843a8 8 0 0 1 5.471 7.59v20C.411-1.67.272-.815 0 0" style="fill:#fff;fill-opacity:1;fill-rule:nonzero;stroke:none" transform="translate(184.256 122.53)"/></g></g><path d="M136 208h-16v16h16z" style="fill:#191919;fill-opacity:1;fill-rule:nonzero;stroke:none" transform="matrix(1.33333 0 0 -1.33333 -96.89 336)"/><path d="M168 212H88v-28h80z" style="fill:#00007b;fill-opacity:1;fill-rule:nonzero;stroke:none" transform="matrix(1.33333 0 0 -1.33333 -96.89 336)"/><g clip-path="url(#c)" transform="matrix(1.33333 0 0 -1.33333 -96.89 336)"><path d="M0 0h-85.117a2 2 0 0 1-1.898-1.368L-90.559-12l12-4h72l12 4L1.897-1.368A2 2 0 0 1 0 0" style="fill:#595959;fill-opacity:1;fill-rule:nonzero;stroke:none" transform="translate(170.559 132)"/><path d="M168 12H88v92h80z" style="fill:#00f;fill-opacity:1;fill-rule:nonzero;stroke:none"/><path d="M168 104H88V12h80zm-2-89.81H90v87.619h76z" style="fill:#00007b;fill-opacity:1;fill-rule:nonzero;stroke:none"/><path d="M0 0h-18.562a2.727 2.727 0 0 0-2.719 2.719v46.562A2.727 2.727 0 0 0-18.562 52H0a2.73 2.73 0 0 0 2.719-2.719V2.719A2.73 2.73 0 0 0 0 0" style="fill:#262626;fill-opacity:1;fill-rule:nonzero;stroke:none" transform="translate(137.281 28)"/><path d="M138 75.969h-20v-20.01h20zm-2-18.01h-16v16.01h16zm2-5.949h-20V32h20zM136 34h-16v16.01h16z" style="fill:#191919;fill-opacity:1;fill-rule:nonzero;stroke:none"/><path d="M126 68h-4v4h4zm8 0h-4v4h4z" style="fill:#7b0000;fill-opacity:1;fill-rule:nonzero;stroke:none"/><path d="M126 60h-4v4h4zm8 0h-4v4h4z" style="fill:#0d0d0d;fill-opacity:1;fill-rule:nonzero;stroke:none"/><path d="M168 220H88v24h80z" style="fill:#00f;fill-opacity:1;fill-rule:nonzero;stroke:none"/><path d="M140 215h-24v2h24zm28 29H88v-24h80zm-2-21.6H90v19.2h76z" style="fill:#00007b;fill-opacity:1;fill-rule:nonzero;stroke:none"/><path d="M166 186H90v24h76z" style="fill:#00f;fill-opacity:1;fill-rule:nonzero;stroke:none"/><path d="M116 188H92v20h24zm48 0h-24v20h24z" style="fill:#191919;fill-opacity:1;fill-rule:nonzero;stroke:none"/><path d="M134 196h-12v4h12z" style="fill:#fff;fill-opacity:1;fill-rule:nonzero;stroke:none"/><path d="M0 0c0-.553-.896-1-2-1s-2 .447-2 1 .896 1 2 1 2-.447 2-1" style="fill:#263979;fill-opacity:1;fill-rule:nonzero;stroke:none" transform="translate(114 125)"/><path d="M0 0c0-.553-.896-1-2-1s-2 .447-2 1 .896 1 2 1 2-.447 2-1" style="fill:#007b00;fill-opacity:1;fill-rule:nonzero;stroke:none" transform="translate(120 125)"/><path d="M0 0c0-.552-.896-1-2-1s-2 .448-2 1 .896 1 2 1 2-.448 2-1" style="fill:#fff;fill-opacity:1;fill-rule:nonzero;stroke:none" transform="translate(104 129)"/><path d="M0 0c0-.553-.896-1-2-1s-2 .447-2 1 .896 1 2 1 2-.447 2-1" style="fill:red;fill-opacity:1;fill-rule:nonzero;stroke:none" transform="translate(108 125)"/><path d="M0 0c0-.553-.896-1-2-1s-2 .447-2 1 .896 1 2 1 2-.447 2-1" style="fill:#263979;fill-opacity:1;fill-rule:nonzero;stroke:none" transform="translate(114 121)"/><path d="M0 0c0-.553-.896-1-2-1s-2 .447-2 1 .896 1 2 1 2-.447 2-1" style="fill:#007b00;fill-opacity:1;fill-rule:nonzero;stroke:none" transform="translate(120 121)"/><path d="M0 0c0-.553-.896-1-2-1s-2 .447-2 1 .896 1 2 1 2-.447 2-1" style="fill:red;fill-opacity:1;fill-rule:nonzero;stroke:none" transform="translate(108 121)"/><path d="M0 0c0-1.242-2.015-2.25-4.5-2.25S-9-1.242-9 0s2.015 2.25 4.5 2.25S0 1.242 0 0" style="fill:#191919;fill-opacity:1;fill-rule:nonzero;stroke:none" transform="translate(100.5 123.75)"/><path d="m0 0-1.125 6.652c0 .914 1.013 1.662 2.25 1.662s2.25-.748 2.25-1.662L2.25 0C2.25-.914 0-.914 0 0" style="fill:#333;fill-opacity:1;fill-rule:nonzero;stroke:none" transform="translate(94.875 123.686)"/><path d="M0 0c0-.553-.896-1-2-1s-2 .447-2 1 .896 1 2 1 2-.447 2-1" style="fill:#263979;fill-opacity:1;fill-rule:nonzero;stroke:none" transform="translate(158 125)"/><path d="M0 0c0-.553-.896-1-2-1s-2 .447-2 1 .896 1 2 1 2-.447 2-1" style="fill:#007b00;fill-opacity:1;fill-rule:nonzero;stroke:none" transform="translate(164 125)"/><path d="M0 0c0-.552-.896-1-2-1s-2 .448-2 1 .896 1 2 1 2-.448 2-1" style="fill:#fff;fill-opacity:1;fill-rule:nonzero;stroke:none" transform="translate(148 129)"/><path d="M0 0c0-.553-.896-1-2-1s-2 .447-2 1 .896 1 2 1 2-.447 2-1" style="fill:red;fill-opacity:1;fill-rule:nonzero;stroke:none" transform="translate(152 125)"/><path d="M0 0c0-.553-.896-1-2-1s-2 .447-2 1 .896 1 2 1 2-.447 2-1" style="fill:#263979;fill-opacity:1;fill-rule:nonzero;stroke:none" transform="translate(158 121)"/><path d="M0 0c0-.553-.896-1-2-1s-2 .447-2 1 .896 1 2 1 2-.447 2-1" style="fill:#007b00;fill-opacity:1;fill-rule:nonzero;stroke:none" transform="translate(164 121)"/><path d="M0 0c0-.553-.896-1-2-1s-2 .447-2 1 .896 1 2 1 2-.447 2-1" style="fill:red;fill-opacity:1;fill-rule:nonzero;stroke:none" transform="translate(152 121)"/><path d="M0 0c0-1.242-2.015-2.25-4.5-2.25S-9-1.242-9 0s2.015 2.25 4.5 2.25S0 1.242 0 0" style="fill:#191919;fill-opacity:1;fill-rule:nonzero;stroke:none" transform="translate(144.5 123.75)"/><path d="m0 0-1.125 6.652c0 .914 1.013 1.662 2.25 1.662s2.25-.748 2.25-1.662L2.25 0C2.25-.914 0-.914 0 0" style="fill:#333;fill-opacity:1;fill-rule:nonzero;stroke:none" transform="translate(138.875 123.686)"/><path d="M0 0h-72l-12 4v-18.559a2 2 0 0 1 1.368-1.897L-72-20H0l10.633 3.544A2 2 0 0 1 12-14.559V4Z" style="fill:#191919;fill-opacity:1;fill-rule:nonzero;stroke:none" transform="translate(164 116)"/><path d="M164 96H92v20h72z" style="fill:#262626;fill-opacity:1;fill-rule:nonzero;stroke:none"/><path d="M0 0h72l4-52H-4Z" style="fill:#191919;fill-opacity:1;fill-rule:nonzero;stroke:none" transform="translate(92 184)"/><path d="M0 0h-57.503a4 4 0 0 1-3.988-3.693l-2.769-36A4 4 0 0 1-60.272-44H2.77a4 4 0 0 1 3.988 4.307l-2.77 36A4 4 0 0 1 0 0" style="fill:#262626;fill-opacity:1;fill-rule:nonzero;stroke:none" transform="translate(156.911 180)"/></g></svg>