<svg xmlns="http://www.w3.org/2000/svg" xml:space="preserve" width="234.667" height="330.666" viewBox="0 0 234.667 330.666"><defs><clipPath id="a" clipPathUnits="userSpaceOnUse"><path d="M0 256h256V0H0Z"/></clipPath><clipPath id="b" clipPathUnits="userSpaceOnUse"><path d="M40 252h176V4H40Z"/></clipPath></defs><g clip-path="url(#a)" transform="matrix(1.33333 0 0 -1.33333 -53.333 336)"><g clip-path="url(#b)" style="opacity:.5"><path d="m0 0-7.296 13.863a12 12 0 0 1-4.646 4.825l-15.137 102.176v19.41a4 4 0 0 1-4 4h-108a4 4 0 0 1-4-4v-19.265l-18.926-102.202a12 12 0 0 1-4.857-4.944L-174.158 0l-.921-1.749v-17.977c0-6.627 5.372-12 12-12h12v-52.686l-5.657-5.656-13.657-13.658H-3.766l-13.656 13.658-5.657 5.656v52.686h12c6.627 0 12 5.373 12 12v17.977z" style="fill:#fff;fill-opacity:1;fill-rule:nonzero;stroke:none" transform="translate(215.08 107.726)"/></g><path d="m0 0 7.296 13.863A4 4 0 0 0 10.836 16h138.328a4 4 0 0 0 3.54-2.137L160 0Z" style="fill:#b3b3b3;fill-opacity:1;fill-rule:nonzero;stroke:none" transform="translate(48 104)"/><path d="M184 16H72v80h112z" style="fill:#354f9f;fill-opacity:1;fill-rule:nonzero;stroke:none"/><path d="M164 20H92v24h72z" style="fill:#263979;fill-opacity:1;fill-rule:nonzero;stroke:none"/><path d="m0 0 20 108v8a8 8 0 0 0 8 8h84a8 8 0 0 0 8-8v-8L136 0Z" style="fill:#bfbfbf;fill-opacity:1;fill-rule:nonzero;stroke:none" transform="translate(60 120)"/><path d="M130 64h-4v4h4z" style="fill:#262626;fill-opacity:1;fill-rule:nonzero;stroke:none"/><path d="m0 0-15.556-84h126.555L98.555 0Z" style="fill:#404040;fill-opacity:1;fill-rule:nonzero;stroke:none" transform="translate(80.364 208)"/><path d="M164 64h-4v4h4zm-68 0h-4v4h4z" style="fill:#262626;fill-opacity:1;fill-rule:nonzero;stroke:none"/><path d="M0 0a2 2 0 1 0-4.001.001A2 2 0 0 0 0 0" style="fill:#bfbfbf;fill-opacity:1;fill-rule:nonzero;stroke:none" transform="translate(130 38)"/><path d="M0 0h-152a4 4 0 0 0-4 4v16H4V4a4 4 0 0 0-4-4" style="fill:#a6a6a6;fill-opacity:1;fill-rule:nonzero;stroke:none" transform="translate(204 84)"/><path d="m0 0-4.659 56a4 4 0 0 1-3.987 3.668h-88.536a4 4 0 0 1-3.969-3.503l-7-56a4 4 0 0 1 3.969-4.497H-3.986A4 4 0 0 1 0 0" style="fill:#262626;fill-opacity:1;fill-rule:nonzero;stroke:none" transform="translate(182.468 136.332)"/><path d="M0 0c0 1.542-1.725 2.5-4.5 2.5-1.91 0-3.305-.462-4-1.248-.695.786-2.09 1.248-4 1.248s-3.305-.462-4-1.248c-.695.786-2.09 1.248-4 1.248-2.775 0-4.5-.958-4.5-2.5 0-.602.27-1.109.753-1.512-.086.002-.164.012-.253.012-2.775 0-4.5-.958-4.5-2.5s1.725-2.5 4.5-2.5c1.91 0 3.305.462 4 1.248.695-.786 2.09-1.248 4-1.248s3.305.462 4 1.248c.695-.786 2.09-1.248 4-1.248C-5.725-6.5-4-5.542-4-4c0 .602-.27 1.109-.753 1.512.086-.002.164-.012.253-.012C-1.725-2.5 0-1.542 0 0" style="fill:#263979;fill-opacity:1;fill-rule:nonzero;stroke:none" transform="translate(187.5 115)"/><path d="M0 0c0-.553-1.343-1-3-1s-3 .447-3 1 1.343 1 3 1 3-.447 3-1" style="fill:#ff0;fill-opacity:1;fill-rule:nonzero;stroke:none" transform="translate(186 115)"/><path d="M0 0c0-.553-1.343-1-3-1s-3 .447-3 1 1.343 1 3 1 3-.447 3-1" style="fill:#ff0;fill-opacity:1;fill-rule:nonzero;stroke:none" transform="translate(182 111)"/><path d="M0 0c0-.553-1.343-1-3-1s-3 .447-3 1 1.343 1 3 1 3-.447 3-1" style="fill:#ff0;fill-opacity:1;fill-rule:nonzero;stroke:none" transform="translate(178 115)"/><path d="M0 0c0-.553-1.343-1-3-1s-3 .447-3 1 1.343 1 3 1 3-.447 3-1" style="fill:#ff0;fill-opacity:1;fill-rule:nonzero;stroke:none" transform="translate(174 111)"/><path d="M0 0c0-.553-1.343-1-3-1s-3 .447-3 1 1.343 1 3 1 3-.447 3-1" style="fill:#ff0;fill-opacity:1;fill-rule:nonzero;stroke:none" transform="translate(170 115)"/><path d="M0 0c0-.553-1.343-1-3-1s-3 .447-3 1 1.343 1 3 1 3-.447 3-1" style="fill:#ff0;fill-opacity:1;fill-rule:nonzero;stroke:none" transform="translate(166 111)"/><path d="M0 0c0-1.657-2.687-3-6-3s-6 1.343-6 3 2.687 3 6 3 6-1.343 6-3" style="fill:#ff0;fill-opacity:1;fill-rule:nonzero;stroke:none" transform="translate(158 113)"/><path d="M0 0c0-1.104-1.791-2-4-2s-4 .896-4 2 1.791 2 4 2 4-.896 4-2" style="fill:#262626;fill-opacity:1;fill-rule:nonzero;stroke:none" transform="translate(156 113)"/><path d="M0 0c0-1.657-2.687-3-6-3s-6 1.343-6 3 2.687 3 6 3 6-1.343 6-3" style="fill:#ff0;fill-opacity:1;fill-rule:nonzero;stroke:none" transform="translate(82 113)"/><path d="M0 0c0-1.104-1.791-2-4-2s-4 .896-4 2 1.791 2 4 2 4-.896 4-2" style="fill:#262626;fill-opacity:1;fill-rule:nonzero;stroke:none" transform="translate(80 113)"/><path d="M0 0c-1.1 0-2 .9-2 2v4c0 1.1.9 2 2 2s2-.9 2-2V2c0-1.1-.9-2-2-2" style="fill:#ccc;fill-opacity:1;fill-rule:nonzero;stroke:none" transform="translate(152 112)"/><path d="M0 0a4 4 0 1 0-8 0 4 4 0 0 0 8 0" style="fill:#354f9f;fill-opacity:1;fill-rule:nonzero;stroke:none" transform="translate(156 120)"/><path d="M0 0c-1.1 0-2 .9-2 2v4c0 1.1.9 2 2 2s2-.9 2-2V2c0-1.1-.9-2-2-2" style="fill:#ccc;fill-opacity:1;fill-rule:nonzero;stroke:none" transform="translate(76 112)"/><path d="M0 0a4 4 0 1 0-8 0 4 4 0 0 0 8 0" style="fill:#354f9f;fill-opacity:1;fill-rule:nonzero;stroke:none" transform="translate(80 120)"/><path d="M0 0c0 1.542-1.724 2.5-4.5 2.5-1.911 0-3.305-.462-4-1.248-.695.786-2.089 1.248-4 1.248s-3.305-.462-4-1.248c-.695.786-2.089 1.248-4 1.248-2.776 0-4.5-.958-4.5-2.5 0-.602.269-1.109.753-1.512-.086.002-.164.012-.253.012-2.776 0-4.5-.958-4.5-2.5s1.724-2.5 4.5-2.5c1.911 0 3.305.462 4 1.248.695-.786 2.089-1.248 4-1.248s3.305.462 4 1.248c.695-.786 2.089-1.248 4-1.248C-5.724-6.5-4-5.542-4-4c0 .602-.269 1.109-.753 1.512.086-.002.164-.012.253-.012C-1.724-2.5 0-1.542 0 0" style="fill:#263979;fill-opacity:1;fill-rule:nonzero;stroke:none" transform="translate(111.5 115)"/><path d="M0 0c0-.553-1.343-1-3-1s-3 .447-3 1 1.343 1 3 1 3-.447 3-1" style="fill:#ff0;fill-opacity:1;fill-rule:nonzero;stroke:none" transform="translate(110 115)"/><path d="M0 0c0-.553-1.343-1-3-1s-3 .447-3 1 1.343 1 3 1 3-.447 3-1" style="fill:#ff0;fill-opacity:1;fill-rule:nonzero;stroke:none" transform="translate(106 111)"/><path d="M0 0c0-.553-1.343-1-3-1s-3 .447-3 1 1.343 1 3 1 3-.447 3-1" style="fill:#ff0;fill-opacity:1;fill-rule:nonzero;stroke:none" transform="translate(102 115)"/><path d="M0 0c0-.553-1.343-1-3-1s-3 .447-3 1 1.343 1 3 1 3-.447 3-1" style="fill:#ff0;fill-opacity:1;fill-rule:nonzero;stroke:none" transform="translate(98 111)"/><path d="M0 0c0-.553-1.343-1-3-1s-3 .447-3 1 1.343 1 3 1 3-.447 3-1" style="fill:#ff0;fill-opacity:1;fill-rule:nonzero;stroke:none" transform="translate(94 115)"/><path d="M0 0c0-.553-1.343-1-3-1s-3 .447-3 1 1.343 1 3 1 3-.447 3-1" style="fill:#ff0;fill-opacity:1;fill-rule:nonzero;stroke:none" transform="translate(90 111)"/><path d="M200 88H56v4h144z" style="fill:#354f9f;fill-opacity:1;fill-rule:nonzero;stroke:none"/><path d="M0 0h-128l8 8H-8Z" style="fill:#bfbfbf;fill-opacity:1;fill-rule:nonzero;stroke:none" transform="translate(192 12)"/><path d="M112 216H80v28h32zm68 0h-32v28h32z" style="fill:#161712;fill-opacity:1;fill-rule:nonzero;stroke:none"/><path d="M144 216h-28v28h28z" style="fill:#ccc;fill-opacity:1;fill-rule:nonzero;stroke:none"/></g></svg>