<?xml version="1.0" encoding="UTF-8" standalone="no"?>
<svg
   xmlns:dc="http://purl.org/dc/elements/1.1/"
   xmlns:cc="http://creativecommons.org/ns#"
   xmlns:rdf="http://www.w3.org/1999/02/22-rdf-syntax-ns#"
   xmlns:svg="http://www.w3.org/2000/svg"
   xmlns="http://www.w3.org/2000/svg"
   viewBox="0 0 234.66653 330.66613"
   height="330.66614"
   width="234.66653"
   xml:space="preserve"
   id="svg2"
   version="1.1"><metadata
     id="metadata8"><rdf:RDF><cc:Work
         rdf:about=""><dc:format>image/svg+xml</dc:format><dc:type
           rdf:resource="http://purl.org/dc/dcmitype/StillImage" /></cc:Work></rdf:RDF></metadata><defs
     id="defs6"><clipPath
       id="clipPath18"
       clipPathUnits="userSpaceOnUse"><path
         id="path16"
         d="M 0,256 H 256 V 0 H 0 Z" /></clipPath><clipPath
       id="clipPath26"
       clipPathUnits="userSpaceOnUse"><path
         id="path24"
         d="M 40,252 H 216 V 4 H 40 Z" /></clipPath></defs><g
     transform="matrix(1.3333333,0,0,-1.3333333,-53.333465,335.99946)"
     id="g10"><g
       id="g12"><g
         clip-path="url(#clipPath18)"
         id="g14"><g
           id="g20"><g
             id="g22" /><g
             id="g34"><g
               style="opacity:0.5"
               id="g32"
               clip-path="url(#clipPath26)"><g
                 id="g30"
                 transform="translate(215.0791,107.7256)"><path
                   id="path28"
                   style="fill:#ffffff;fill-opacity:1;fill-rule:nonzero;stroke:none"
                   d="m 0,0 -7.296,13.863 c -1.084,2.06 -2.708,3.714 -4.646,4.825 l -15.137,102.176 v 7.41 8 4 c 0,2.209 -1.791,4 -4,4 h -4 -8 -24 -4 -28 -4 -24 -8 -4 c -2.209,0 -4,-1.791 -4,-4 v -4 -8 -7.265 L -162.005,18.807 c -2.032,-1.112 -3.734,-2.81 -4.857,-4.944 L -174.158,0 l -0.921,-1.749 v -1.977 -16 c 0,-6.627 5.372,-12 12,-12 h 12 v -52.686 l -5.657,-5.656 -13.657,-13.658 h 19.314 128 19.313 l -13.656,13.658 -5.657,5.656 v 52.686 h 12 c 6.627,0 12,5.373 12,12 v 16 1.977 z" /></g></g></g></g><g
           transform="translate(48,104)"
           id="g36"><path
             id="path38"
             style="fill:#b3b3b3;fill-opacity:1;fill-rule:nonzero;stroke:none"
             d="M 0,0 7.296,13.863 C 7.988,15.177 9.351,16 10.836,16 h 138.328 c 1.485,0 2.848,-0.823 3.54,-2.137 L 160,0 Z" /></g><path
           id="path40"
           style="fill:#354f9f;fill-opacity:1;fill-rule:nonzero;stroke:none"
           d="M 184,16 H 72 v 80 h 112 z" /><path
           id="path42"
           style="fill:#263979;fill-opacity:1;fill-rule:nonzero;stroke:none"
           d="M 164,20 H 92 v 24 h 72 z" /><g
           transform="translate(60,120)"
           id="g44"><path
             id="path46"
             style="fill:#bfbfbf;fill-opacity:1;fill-rule:nonzero;stroke:none"
             d="m 0,0 20,108 v 8 c 0,4.418 3.582,8 8,8 h 84 c 4.418,0 8,-3.582 8,-8 v -8 L 136,0 Z" /></g><path
           id="path48"
           style="fill:#262626;fill-opacity:1;fill-rule:nonzero;stroke:none"
           d="m 130,64 h -4 v 4 h 4 z" /><g
           transform="translate(80.3643,208)"
           id="g50"><path
             id="path52"
             style="fill:#404040;fill-opacity:1;fill-rule:nonzero;stroke:none"
             d="M 0,0 -15.556,-84 H 110.999 L 98.555,0 Z" /></g><path
           id="path54"
           style="fill:#262626;fill-opacity:1;fill-rule:nonzero;stroke:none"
           d="m 164,64 h -4 v 4 h 4 z" /><path
           id="path56"
           style="fill:#262626;fill-opacity:1;fill-rule:nonzero;stroke:none"
           d="m 96,64 h -4 v 4 h 4 z" /><g
           transform="translate(130,38)"
           id="g58"><path
             id="path60"
             style="fill:#bfbfbf;fill-opacity:1;fill-rule:nonzero;stroke:none"
             d="m 0,0 c 0,-1.104 -0.896,-2 -2,-2 -1.104,0 -2,0.896 -2,2 0,1.104 0.896,2 2,2 1.104,0 2,-0.896 2,-2" /></g><g
           transform="translate(204,84)"
           id="g62"><path
             id="path64"
             style="fill:#a6a6a6;fill-opacity:1;fill-rule:nonzero;stroke:none"
             d="m 0,0 h -152 c -2.209,0 -4,1.791 -4,4 V 20 H 4 V 4 C 4,1.791 2.209,0 0,0" /></g><g
           transform="translate(182.4678,136.3315)"
           id="g66"><path
             id="path68"
             style="fill:#262626;fill-opacity:1;fill-rule:nonzero;stroke:none"
             d="m 0,0 -4.659,56 c -0.173,2.074 -1.905,3.668 -3.987,3.668 h -88.536 c -2.017,0 -3.719,-1.501 -3.969,-3.503 l -7,-56 c -0.298,-2.388 1.563,-4.497 3.969,-4.497 H -3.986 c 2.34,0 4.18,2 3.986,4.332" /></g><g
           transform="translate(187.5,115)"
           id="g70"><path
             id="path72"
             style="fill:#263979;fill-opacity:1;fill-rule:nonzero;stroke:none"
             d="m 0,0 c 0,1.542 -1.725,2.5 -4.5,2.5 -1.91,0 -3.305,-0.462 -4,-1.248 -0.695,0.786 -2.09,1.248 -4,1.248 -1.91,0 -3.305,-0.462 -4,-1.248 -0.695,0.786 -2.09,1.248 -4,1.248 -2.775,0 -4.5,-0.958 -4.5,-2.5 0,-0.602 0.27,-1.109 0.753,-1.512 -0.086,0.002 -0.164,0.012 -0.253,0.012 -2.775,0 -4.5,-0.958 -4.5,-2.5 0,-1.542 1.725,-2.5 4.5,-2.5 1.91,0 3.305,0.462 4,1.248 0.695,-0.786 2.09,-1.248 4,-1.248 1.91,0 3.305,0.462 4,1.248 0.695,-0.786 2.09,-1.248 4,-1.248 2.775,0 4.5,0.958 4.5,2.5 0,0.602 -0.27,1.109 -0.753,1.512 C -4.667,-2.49 -4.589,-2.5 -4.5,-2.5 -1.725,-2.5 0,-1.542 0,0" /></g><g
           transform="translate(186,115)"
           id="g74"><path
             id="path76"
             style="fill:#ffff00;fill-opacity:1;fill-rule:nonzero;stroke:none"
             d="m 0,0 c 0,-0.553 -1.343,-1 -3,-1 -1.657,0 -3,0.447 -3,1 0,0.553 1.343,1 3,1 1.657,0 3,-0.447 3,-1" /></g><g
           transform="translate(182,111)"
           id="g78"><path
             id="path80"
             style="fill:#ffff00;fill-opacity:1;fill-rule:nonzero;stroke:none"
             d="m 0,0 c 0,-0.553 -1.343,-1 -3,-1 -1.657,0 -3,0.447 -3,1 0,0.553 1.343,1 3,1 1.657,0 3,-0.447 3,-1" /></g><g
           transform="translate(178,115)"
           id="g82"><path
             id="path84"
             style="fill:#ffff00;fill-opacity:1;fill-rule:nonzero;stroke:none"
             d="m 0,0 c 0,-0.553 -1.343,-1 -3,-1 -1.657,0 -3,0.447 -3,1 0,0.553 1.343,1 3,1 1.657,0 3,-0.447 3,-1" /></g><g
           transform="translate(174,111)"
           id="g86"><path
             id="path88"
             style="fill:#ffff00;fill-opacity:1;fill-rule:nonzero;stroke:none"
             d="m 0,0 c 0,-0.553 -1.343,-1 -3,-1 -1.657,0 -3,0.447 -3,1 0,0.553 1.343,1 3,1 1.657,0 3,-0.447 3,-1" /></g><g
           transform="translate(170,115)"
           id="g90"><path
             id="path92"
             style="fill:#ffff00;fill-opacity:1;fill-rule:nonzero;stroke:none"
             d="m 0,0 c 0,-0.553 -1.343,-1 -3,-1 -1.657,0 -3,0.447 -3,1 0,0.553 1.343,1 3,1 1.657,0 3,-0.447 3,-1" /></g><g
           transform="translate(166,111)"
           id="g94"><path
             id="path96"
             style="fill:#ffff00;fill-opacity:1;fill-rule:nonzero;stroke:none"
             d="m 0,0 c 0,-0.553 -1.343,-1 -3,-1 -1.657,0 -3,0.447 -3,1 0,0.553 1.343,1 3,1 1.657,0 3,-0.447 3,-1" /></g><g
           transform="translate(158,113)"
           id="g98"><path
             id="path100"
             style="fill:#ffff00;fill-opacity:1;fill-rule:nonzero;stroke:none"
             d="m 0,0 c 0,-1.657 -2.687,-3 -6,-3 -3.313,0 -6,1.343 -6,3 0,1.657 2.687,3 6,3 3.313,0 6,-1.343 6,-3" /></g><g
           transform="translate(156,113)"
           id="g102"><path
             id="path104"
             style="fill:#262626;fill-opacity:1;fill-rule:nonzero;stroke:none"
             d="m 0,0 c 0,-1.104 -1.791,-2 -4,-2 -2.209,0 -4,0.896 -4,2 0,1.104 1.791,2 4,2 2.209,0 4,-0.896 4,-2" /></g><g
           transform="translate(82,113)"
           id="g106"><path
             id="path108"
             style="fill:#ffff00;fill-opacity:1;fill-rule:nonzero;stroke:none"
             d="m 0,0 c 0,-1.657 -2.687,-3 -6,-3 -3.313,0 -6,1.343 -6,3 0,1.657 2.687,3 6,3 3.313,0 6,-1.343 6,-3" /></g><g
           transform="translate(80,113)"
           id="g110"><path
             id="path112"
             style="fill:#262626;fill-opacity:1;fill-rule:nonzero;stroke:none"
             d="m 0,0 c 0,-1.104 -1.791,-2 -4,-2 -2.209,0 -4,0.896 -4,2 0,1.104 1.791,2 4,2 2.209,0 4,-0.896 4,-2" /></g><g
           transform="translate(152,112)"
           id="g114"><path
             id="path116"
             style="fill:#cccccc;fill-opacity:1;fill-rule:nonzero;stroke:none"
             d="M 0,0 V 0 C -1.1,0 -2,0.9 -2,2 V 6 C -2,7.1 -1.1,8 0,8 1.1,8 2,7.1 2,6 V 2 C 2,0.9 1.1,0 0,0" /></g><g
           transform="translate(156,120)"
           id="g118"><path
             id="path120"
             style="fill:#354f9f;fill-opacity:1;fill-rule:nonzero;stroke:none"
             d="m 0,0 c 0,-2.209 -1.791,-4 -4,-4 -2.209,0 -4,1.791 -4,4 0,2.209 1.791,4 4,4 2.209,0 4,-1.791 4,-4" /></g><g
           transform="translate(76,112)"
           id="g122"><path
             id="path124"
             style="fill:#cccccc;fill-opacity:1;fill-rule:nonzero;stroke:none"
             d="M 0,0 V 0 C -1.1,0 -2,0.9 -2,2 V 6 C -2,7.1 -1.1,8 0,8 1.1,8 2,7.1 2,6 V 2 C 2,0.9 1.1,0 0,0" /></g><g
           transform="translate(80,120)"
           id="g126"><path
             id="path128"
             style="fill:#354f9f;fill-opacity:1;fill-rule:nonzero;stroke:none"
             d="m 0,0 c 0,-2.209 -1.791,-4 -4,-4 -2.209,0 -4,1.791 -4,4 0,2.209 1.791,4 4,4 2.209,0 4,-1.791 4,-4" /></g><g
           transform="translate(111.5,115)"
           id="g130"><path
             id="path132"
             style="fill:#263979;fill-opacity:1;fill-rule:nonzero;stroke:none"
             d="m 0,0 c 0,1.542 -1.724,2.5 -4.5,2.5 -1.911,0 -3.305,-0.462 -4,-1.248 -0.695,0.786 -2.089,1.248 -4,1.248 -1.911,0 -3.305,-0.462 -4,-1.248 -0.695,0.786 -2.089,1.248 -4,1.248 -2.776,0 -4.5,-0.958 -4.5,-2.5 0,-0.602 0.269,-1.109 0.753,-1.512 -0.086,0.002 -0.164,0.012 -0.253,0.012 -2.776,0 -4.5,-0.958 -4.5,-2.5 0,-1.542 1.724,-2.5 4.5,-2.5 1.911,0 3.305,0.462 4,1.248 0.695,-0.786 2.089,-1.248 4,-1.248 1.911,0 3.305,0.462 4,1.248 0.695,-0.786 2.089,-1.248 4,-1.248 2.776,0 4.5,0.958 4.5,2.5 0,0.602 -0.269,1.109 -0.753,1.512 C -4.667,-2.49 -4.589,-2.5 -4.5,-2.5 -1.724,-2.5 0,-1.542 0,0" /></g><g
           transform="translate(110,115)"
           id="g134"><path
             id="path136"
             style="fill:#ffff00;fill-opacity:1;fill-rule:nonzero;stroke:none"
             d="m 0,0 c 0,-0.553 -1.343,-1 -3,-1 -1.657,0 -3,0.447 -3,1 0,0.553 1.343,1 3,1 1.657,0 3,-0.447 3,-1" /></g><g
           transform="translate(106,111)"
           id="g138"><path
             id="path140"
             style="fill:#ffff00;fill-opacity:1;fill-rule:nonzero;stroke:none"
             d="m 0,0 c 0,-0.553 -1.343,-1 -3,-1 -1.657,0 -3,0.447 -3,1 0,0.553 1.343,1 3,1 1.657,0 3,-0.447 3,-1" /></g><g
           transform="translate(102,115)"
           id="g142"><path
             id="path144"
             style="fill:#ffff00;fill-opacity:1;fill-rule:nonzero;stroke:none"
             d="m 0,0 c 0,-0.553 -1.343,-1 -3,-1 -1.657,0 -3,0.447 -3,1 0,0.553 1.343,1 3,1 1.657,0 3,-0.447 3,-1" /></g><g
           transform="translate(98,111)"
           id="g146"><path
             id="path148"
             style="fill:#ffff00;fill-opacity:1;fill-rule:nonzero;stroke:none"
             d="m 0,0 c 0,-0.553 -1.343,-1 -3,-1 -1.657,0 -3,0.447 -3,1 0,0.553 1.343,1 3,1 1.657,0 3,-0.447 3,-1" /></g><g
           transform="translate(94,115)"
           id="g150"><path
             id="path152"
             style="fill:#ffff00;fill-opacity:1;fill-rule:nonzero;stroke:none"
             d="m 0,0 c 0,-0.553 -1.343,-1 -3,-1 -1.657,0 -3,0.447 -3,1 0,0.553 1.343,1 3,1 1.657,0 3,-0.447 3,-1" /></g><g
           transform="translate(90,111)"
           id="g154"><path
             id="path156"
             style="fill:#ffff00;fill-opacity:1;fill-rule:nonzero;stroke:none"
             d="m 0,0 c 0,-0.553 -1.343,-1 -3,-1 -1.657,0 -3,0.447 -3,1 0,0.553 1.343,1 3,1 1.657,0 3,-0.447 3,-1" /></g><path
           id="path158"
           style="fill:#354f9f;fill-opacity:1;fill-rule:nonzero;stroke:none"
           d="M 200,88 H 56 v 4 h 144 z" /><g
           transform="translate(192,12)"
           id="g160"><path
             id="path162"
             style="fill:#bfbfbf;fill-opacity:1;fill-rule:nonzero;stroke:none"
             d="m 0,0 h -128 l 8,8 H -8 Z" /></g><path
           id="path164"
           style="fill:#161712;fill-opacity:1;fill-rule:nonzero;stroke:none"
           d="M 112,216 H 80 v 28 h 32 z" /><path
           id="path166"
           style="fill:#161712;fill-opacity:1;fill-rule:nonzero;stroke:none"
           d="m 180,216 h -32 v 28 h 32 z" /><path
           id="path168"
           style="fill:#cccccc;fill-opacity:1;fill-rule:nonzero;stroke:none"
           d="m 144,216 h -28 v 28 h 28 z" /></g></g></g></svg>