<?xml version="1.0" encoding="UTF-8" standalone="no"?>
<svg
   xmlns:dc="http://purl.org/dc/elements/1.1/"
   xmlns:cc="http://creativecommons.org/ns#"
   xmlns:rdf="http://www.w3.org/1999/02/22-rdf-syntax-ns#"
   xmlns:svg="http://www.w3.org/2000/svg"
   xmlns="http://www.w3.org/2000/svg"
   viewBox="0 0 330.66665 224"
   height="224"
   width="330.66666"
   xml:space="preserve"
   id="svg2"
   version="1.1"><metadata
     id="metadata8"><rdf:RDF><cc:Work
         rdf:about=""><dc:format>image/svg+xml</dc:format><dc:type
           rdf:resource="http://purl.org/dc/dcmitype/StillImage" /></cc:Work></rdf:RDF></metadata><defs
     id="defs6"><clipPath
       id="clipPath18"
       clipPathUnits="userSpaceOnUse"><path
         id="path16"
         d="M 0,256 H 256 V 0 H 0 Z" /></clipPath><clipPath
       id="clipPath26"
       clipPathUnits="userSpaceOnUse"><path
         id="path24"
         d="M 4,212 H 252 V 44 H 4 Z" /></clipPath><clipPath
       id="clipPath164"
       clipPathUnits="userSpaceOnUse"><path
         id="path162"
         d="M 0,256 H 256 V 0 H 0 Z" /></clipPath></defs><g
     transform="matrix(1.3333333,0,0,-1.3333333,-5.3333332,282.66666)"
     id="g10"><g
       id="g12"><g
         clip-path="url(#clipPath18)"
         id="g14"><g
           id="g20"><g
             id="g22" /><g
             id="g34"><g
               style="opacity:0.5"
               id="g32"
               clip-path="url(#clipPath26)"><g
                 id="g30"
                 transform="translate(244,212)"><path
                   id="path28"
                   style="fill:#ffffff;fill-opacity:1;fill-rule:nonzero;stroke:none"
                   d="m 0,0 h -8 -4 -12 -4 -4 -4 -4 -4 -4 -4 -4 -4 -4 -4 -4 -4 -4 -4 -4 -4 -4 -4 -4 -4 -4 -4 -4 -4 -4 -4 -4 -4 -4 -4 -4 -4 -4 -4 -4 -4 -4 -4 -4 -4 -4 -4 -4 -4 -16 -4 -8 -8 v -8 -88 -0.25 l 0.016,-0.249 4,-64 0.468,-7.501 h 7.516 8 4 200 4 8 7.516 l 0.468,7.501 4,64 L 8,-96.25 V -96 -8 0 Z" /></g></g></g></g></g></g><g
       transform="translate(244,116)"
       id="g36"><path
         id="path38"
         style="fill:#262626;fill-opacity:1;fill-rule:nonzero;stroke:none"
         d="m 0,0 -4,-4 h -224 l -4,4 V 88 H 0 Z" /></g><path
       id="path40"
       style="fill:#191919;fill-opacity:1;fill-rule:nonzero;stroke:none"
       d="M 236,116 H 20 v 88 h 216 z" /><path
       id="path42"
       style="fill:#333333;fill-opacity:1;fill-rule:nonzero;stroke:none"
       d="M 232,116 H 24 v 88 h 208 z" /><path
       id="path44"
       style="fill:#191919;fill-opacity:1;fill-rule:nonzero;stroke:none"
       d="m 44,192 h -4 v 8 h 4 z" /><path
       id="path46"
       style="fill:#191919;fill-opacity:1;fill-rule:nonzero;stroke:none"
       d="m 52,192 h -4 v 8 h 4 z" /><path
       id="path48"
       style="fill:#191919;fill-opacity:1;fill-rule:nonzero;stroke:none"
       d="m 60,192 h -4 v 8 h 4 z" /><path
       id="path50"
       style="fill:#191919;fill-opacity:1;fill-rule:nonzero;stroke:none"
       d="m 68,192 h -4 v 8 h 4 z" /><path
       id="path52"
       style="fill:#191919;fill-opacity:1;fill-rule:nonzero;stroke:none"
       d="m 76,192 h -4 v 8 h 4 z" /><path
       id="path54"
       style="fill:#191919;fill-opacity:1;fill-rule:nonzero;stroke:none"
       d="m 84,192 h -4 v 8 h 4 z" /><path
       id="path56"
       style="fill:#191919;fill-opacity:1;fill-rule:nonzero;stroke:none"
       d="m 92,192 h -4 v 8 h 4 z" /><path
       id="path58"
       style="fill:#191919;fill-opacity:1;fill-rule:nonzero;stroke:none"
       d="m 100,192 h -4 v 8 h 4 z" /><path
       id="path60"
       style="fill:#191919;fill-opacity:1;fill-rule:nonzero;stroke:none"
       d="m 108,192 h -4 v 8 h 4 z" /><path
       id="path62"
       style="fill:#191919;fill-opacity:1;fill-rule:nonzero;stroke:none"
       d="m 116,192 h -4 v 8 h 4 z" /><path
       id="path64"
       style="fill:#191919;fill-opacity:1;fill-rule:nonzero;stroke:none"
       d="m 124,192 h -4 v 8 h 4 z" /><path
       id="path66"
       style="fill:#191919;fill-opacity:1;fill-rule:nonzero;stroke:none"
       d="m 132,192 h -4 v 8 h 4 z" /><path
       id="path68"
       style="fill:#191919;fill-opacity:1;fill-rule:nonzero;stroke:none"
       d="m 140,192 h -4 v 8 h 4 z" /><path
       id="path70"
       style="fill:#191919;fill-opacity:1;fill-rule:nonzero;stroke:none"
       d="m 148,192 h -4 v 8 h 4 z" /><path
       id="path72"
       style="fill:#191919;fill-opacity:1;fill-rule:nonzero;stroke:none"
       d="m 156,192 h -4 v 8 h 4 z" /><path
       id="path74"
       style="fill:#191919;fill-opacity:1;fill-rule:nonzero;stroke:none"
       d="m 164,192 h -4 v 8 h 4 z" /><path
       id="path76"
       style="fill:#191919;fill-opacity:1;fill-rule:nonzero;stroke:none"
       d="m 172,192 h -4 v 8 h 4 z" /><path
       id="path78"
       style="fill:#191919;fill-opacity:1;fill-rule:nonzero;stroke:none"
       d="m 180,192 h -4 v 8 h 4 z" /><path
       id="path80"
       style="fill:#191919;fill-opacity:1;fill-rule:nonzero;stroke:none"
       d="m 188,192 h -4 v 8 h 4 z" /><path
       id="path82"
       style="fill:#191919;fill-opacity:1;fill-rule:nonzero;stroke:none"
       d="m 196,192 h -4 v 8 h 4 z" /><path
       id="path84"
       style="fill:#191919;fill-opacity:1;fill-rule:nonzero;stroke:none"
       d="m 204,192 h -4 v 8 h 4 z" /><path
       id="path86"
       style="fill:#191919;fill-opacity:1;fill-rule:nonzero;stroke:none"
       d="m 212,192 h -4 v 8 h 4 z" /><path
       id="path88"
       style="fill:#191919;fill-opacity:1;fill-rule:nonzero;stroke:none"
       d="m 220,192 h -4 v 8 h 4 z" /><path
       id="path90"
       style="fill:#262626;fill-opacity:1;fill-rule:nonzero;stroke:none"
       d="m 44,200 h -4 v 4 h 4 z" /><path
       id="path92"
       style="fill:#262626;fill-opacity:1;fill-rule:nonzero;stroke:none"
       d="m 52,200 h -4 v 4 h 4 z" /><path
       id="path94"
       style="fill:#262626;fill-opacity:1;fill-rule:nonzero;stroke:none"
       d="m 60,200 h -4 v 4 h 4 z" /><path
       id="path96"
       style="fill:#262626;fill-opacity:1;fill-rule:nonzero;stroke:none"
       d="m 68,200 h -4 v 4 h 4 z" /><path
       id="path98"
       style="fill:#262626;fill-opacity:1;fill-rule:nonzero;stroke:none"
       d="m 76,200 h -4 v 4 h 4 z" /><path
       id="path100"
       style="fill:#262626;fill-opacity:1;fill-rule:nonzero;stroke:none"
       d="m 84,200 h -4 v 4 h 4 z" /><path
       id="path102"
       style="fill:#262626;fill-opacity:1;fill-rule:nonzero;stroke:none"
       d="m 92,200 h -4 v 4 h 4 z" /><path
       id="path104"
       style="fill:#262626;fill-opacity:1;fill-rule:nonzero;stroke:none"
       d="m 100,200 h -4 v 4 h 4 z" /><path
       id="path106"
       style="fill:#262626;fill-opacity:1;fill-rule:nonzero;stroke:none"
       d="m 108,200 h -4 v 4 h 4 z" /><path
       id="path108"
       style="fill:#262626;fill-opacity:1;fill-rule:nonzero;stroke:none"
       d="m 116,200 h -4 v 4 h 4 z" /><path
       id="path110"
       style="fill:#262626;fill-opacity:1;fill-rule:nonzero;stroke:none"
       d="m 124,200 h -4 v 4 h 4 z" /><path
       id="path112"
       style="fill:#262626;fill-opacity:1;fill-rule:nonzero;stroke:none"
       d="m 132,200 h -4 v 4 h 4 z" /><path
       id="path114"
       style="fill:#262626;fill-opacity:1;fill-rule:nonzero;stroke:none"
       d="m 140,200 h -4 v 4 h 4 z" /><path
       id="path116"
       style="fill:#262626;fill-opacity:1;fill-rule:nonzero;stroke:none"
       d="m 148,200 h -4 v 4 h 4 z" /><path
       id="path118"
       style="fill:#262626;fill-opacity:1;fill-rule:nonzero;stroke:none"
       d="m 156,200 h -4 v 4 h 4 z" /><path
       id="path120"
       style="fill:#262626;fill-opacity:1;fill-rule:nonzero;stroke:none"
       d="m 164,200 h -4 v 4 h 4 z" /><path
       id="path122"
       style="fill:#262626;fill-opacity:1;fill-rule:nonzero;stroke:none"
       d="m 172,200 h -4 v 4 h 4 z" /><path
       id="path124"
       style="fill:#262626;fill-opacity:1;fill-rule:nonzero;stroke:none"
       d="m 180,200 h -4 v 4 h 4 z" /><path
       id="path126"
       style="fill:#262626;fill-opacity:1;fill-rule:nonzero;stroke:none"
       d="m 188,200 h -4 v 4 h 4 z" /><path
       id="path128"
       style="fill:#262626;fill-opacity:1;fill-rule:nonzero;stroke:none"
       d="m 196,200 h -4 v 4 h 4 z" /><path
       id="path130"
       style="fill:#262626;fill-opacity:1;fill-rule:nonzero;stroke:none"
       d="m 204,200 h -4 v 4 h 4 z" /><path
       id="path132"
       style="fill:#262626;fill-opacity:1;fill-rule:nonzero;stroke:none"
       d="m 212,200 h -4 v 4 h 4 z" /><path
       id="path134"
       style="fill:#262626;fill-opacity:1;fill-rule:nonzero;stroke:none"
       d="m 220,200 h -4 v 4 h 4 z" /><path
       id="path136"
       style="fill:#404040;fill-opacity:1;fill-rule:nonzero;stroke:none"
       d="M 224,124 H 32 v 16 h 192 z" /><path
       id="path138"
       style="fill:#262626;fill-opacity:1;fill-rule:nonzero;stroke:none"
       d="M 84,128 H 68 v 8 h 16 z" /><path
       id="path140"
       style="fill:#262626;fill-opacity:1;fill-rule:nonzero;stroke:none"
       d="M 60,128 H 44 v 8 h 16 z" /><path
       id="path142"
       style="fill:#333333;fill-opacity:1;fill-rule:nonzero;stroke:none"
       d="m 56,128 h -4 v 8 h 4 z" /><path
       id="path144"
       style="fill:#ff0000;fill-opacity:1;fill-rule:nonzero;stroke:none"
       d="m 44,128 h -4 v 8 h 4 z" /><g
       transform="translate(240,52)"
       id="g146"><path
         id="path148"
         style="fill:#262626;fill-opacity:1;fill-rule:nonzero;stroke:none"
         d="m 0,0 h -224 l -4,64 H 4 Z" /></g><g
       transform="translate(24,52)"
       id="g150"><path
         id="path152"
         style="fill:#191919;fill-opacity:1;fill-rule:nonzero;stroke:none"
         d="m 0,0 h 208 l 4,64 H -4 Z" /></g><g
       transform="translate(228,52)"
       id="g154"><path
         id="path156"
         style="fill:#404040;fill-opacity:1;fill-rule:nonzero;stroke:none"
         d="m 0,0 h -200 l -4,64 H 4 Z" /></g><g
       id="g158"><g
         clip-path="url(#clipPath164)"
         id="g160"><g
           transform="translate(188,64)"
           id="g166"><path
             id="path168"
             style="fill:#333333;fill-opacity:1;fill-rule:nonzero;stroke:none"
             d="m 0,0 h -120 c -2.209,0 -4,1.791 -4,4 v 28 c 0,2.209 1.791,4 4,4 H 0 c 2.209,0 4,-1.791 4,-4 V 4 C 4,1.791 2.209,0 0,0" /></g><path
           id="path170"
           style="fill:#cca37a;fill-opacity:1;fill-rule:nonzero;stroke:none"
           d="m 76,92 h -8 v 4 h 8 z" /><path
           id="path172"
           style="fill:#cca37a;fill-opacity:1;fill-rule:nonzero;stroke:none"
           d="m 88,92 h -8 v 4 h 8 z" /><path
           id="path174"
           style="fill:#cca37a;fill-opacity:1;fill-rule:nonzero;stroke:none"
           d="m 100,92 h -8 v 4 h 8 z" /><path
           id="path176"
           style="fill:#cca37a;fill-opacity:1;fill-rule:nonzero;stroke:none"
           d="m 112,92 h -8 v 4 h 8 z" /><path
           id="path178"
           style="fill:#cca37a;fill-opacity:1;fill-rule:nonzero;stroke:none"
           d="m 124,92 h -8 v 4 h 8 z" /><path
           id="path180"
           style="fill:#cca37a;fill-opacity:1;fill-rule:nonzero;stroke:none"
           d="m 76,84 h -8 v 4 h 8 z" /><path
           id="path182"
           style="fill:#d35400;fill-opacity:1;fill-rule:nonzero;stroke:none"
           d="m 88,84 h -8 v 4 h 8 z" /><path
           id="path184"
           style="fill:#d35400;fill-opacity:1;fill-rule:nonzero;stroke:none"
           d="m 100,84 h -8 v 4 h 8 z" /><path
           id="path186"
           style="fill:#d35400;fill-opacity:1;fill-rule:nonzero;stroke:none"
           d="m 112,84 h -8 v 4 h 8 z" /><path
           id="path188"
           style="fill:#d35400;fill-opacity:1;fill-rule:nonzero;stroke:none"
           d="m 124,84 h -8 v 4 h 8 z" /><path
           id="path190"
           style="fill:#cca37a;fill-opacity:1;fill-rule:nonzero;stroke:none"
           d="m 76,76 h -8 v 4 h 8 z" /><path
           id="path192"
           style="fill:#d35400;fill-opacity:1;fill-rule:nonzero;stroke:none"
           d="m 88,76 h -8 v 4 h 8 z" /><path
           id="path194"
           style="fill:#d35400;fill-opacity:1;fill-rule:nonzero;stroke:none"
           d="m 100,76 h -8 v 4 h 8 z" /><path
           id="path196"
           style="fill:#d35400;fill-opacity:1;fill-rule:nonzero;stroke:none"
           d="m 112,76 h -8 v 4 h 8 z" /><path
           id="path198"
           style="fill:#d35400;fill-opacity:1;fill-rule:nonzero;stroke:none"
           d="m 124,76 h -8 v 4 h 8 z" /><path
           id="path200"
           style="fill:#cca37a;fill-opacity:1;fill-rule:nonzero;stroke:none"
           d="m 76,68 h -8 v 4 h 8 z" /><path
           id="path202"
           style="fill:#d35400;fill-opacity:1;fill-rule:nonzero;stroke:none"
           d="m 88,68 h -8 v 4 h 8 z" /><path
           id="path204"
           style="fill:#d35400;fill-opacity:1;fill-rule:nonzero;stroke:none"
           d="m 100,68 h -8 v 4 h 8 z" /><path
           id="path206"
           style="fill:#d35400;fill-opacity:1;fill-rule:nonzero;stroke:none"
           d="m 112,68 h -8 v 4 h 8 z" /><path
           id="path208"
           style="fill:#d35400;fill-opacity:1;fill-rule:nonzero;stroke:none"
           d="m 124,68 h -8 v 4 h 8 z" /><path
           id="path210"
           style="fill:#cca37a;fill-opacity:1;fill-rule:nonzero;stroke:none"
           d="m 140,92 h -8 v 4 h 8 z" /><path
           id="path212"
           style="fill:#cca37a;fill-opacity:1;fill-rule:nonzero;stroke:none"
           d="m 152,92 h -8 v 4 h 8 z" /><path
           id="path214"
           style="fill:#cca37a;fill-opacity:1;fill-rule:nonzero;stroke:none"
           d="m 164,92 h -8 v 4 h 8 z" /><path
           id="path216"
           style="fill:#cca37a;fill-opacity:1;fill-rule:nonzero;stroke:none"
           d="m 176,92 h -8 v 4 h 8 z" /><path
           id="path218"
           style="fill:#cca37a;fill-opacity:1;fill-rule:nonzero;stroke:none"
           d="m 188,92 h -8 v 4 h 8 z" /><path
           id="path220"
           style="fill:#d35400;fill-opacity:1;fill-rule:nonzero;stroke:none"
           d="m 140,84 h -8 v 4 h 8 z" /><path
           id="path222"
           style="fill:#d35400;fill-opacity:1;fill-rule:nonzero;stroke:none"
           d="m 152,84 h -8 v 4 h 8 z" /><path
           id="path224"
           style="fill:#d35400;fill-opacity:1;fill-rule:nonzero;stroke:none"
           d="m 164,84 h -8 v 4 h 8 z" /><path
           id="path226"
           style="fill:#d35400;fill-opacity:1;fill-rule:nonzero;stroke:none"
           d="m 176,84 h -8 v 4 h 8 z" /><path
           id="path228"
           style="fill:#cca37a;fill-opacity:1;fill-rule:nonzero;stroke:none"
           d="m 188,84 h -8 v 4 h 8 z" /><path
           id="path230"
           style="fill:#d35400;fill-opacity:1;fill-rule:nonzero;stroke:none"
           d="m 140,76 h -8 v 4 h 8 z" /><path
           id="path232"
           style="fill:#d35400;fill-opacity:1;fill-rule:nonzero;stroke:none"
           d="m 152,76 h -8 v 4 h 8 z" /><path
           id="path234"
           style="fill:#d35400;fill-opacity:1;fill-rule:nonzero;stroke:none"
           d="m 164,76 h -8 v 4 h 8 z" /><path
           id="path236"
           style="fill:#cca37a;fill-opacity:1;fill-rule:nonzero;stroke:none"
           d="m 176,76 h -8 v 4 h 8 z" /><path
           id="path238"
           style="fill:#cca37a;fill-opacity:1;fill-rule:nonzero;stroke:none"
           d="m 188,76 h -8 v 4 h 8 z" /><path
           id="path240"
           style="fill:#d35400;fill-opacity:1;fill-rule:nonzero;stroke:none"
           d="m 140,68 h -8 v 4 h 8 z" /><path
           id="path242"
           style="fill:#d35400;fill-opacity:1;fill-rule:nonzero;stroke:none"
           d="m 152,68 h -8 v 4 h 8 z" /><path
           id="path244"
           style="fill:#cca37a;fill-opacity:1;fill-rule:nonzero;stroke:none"
           d="m 164,68 h -8 v 4 h 8 z" /><path
           id="path246"
           style="fill:#cca37a;fill-opacity:1;fill-rule:nonzero;stroke:none"
           d="m 176,68 h -8 v 4 h 8 z" /><path
           id="path248"
           style="fill:#cca37a;fill-opacity:1;fill-rule:nonzero;stroke:none"
           d="m 188,68 h -8 v 4 h 8 z" /><path
           id="path250"
           style="fill:#191919;fill-opacity:1;fill-rule:nonzero;stroke:none"
           d="m 129,57 h -2 v 54 h 2 z" /><path
           id="path252"
           style="fill:#191919;fill-opacity:1;fill-rule:nonzero;stroke:none"
           d="M 232,110 H 24 v 2 h 208 z" /><path
           id="path254"
           style="fill:#191919;fill-opacity:1;fill-rule:nonzero;stroke:none"
           d="M 232,56 H 24 v 2 h 208 z" /><g
           transform="translate(60,84)"
           id="g256"><path
             id="path258"
             style="fill:#262626;fill-opacity:1;fill-rule:nonzero;stroke:none"
             d="m 0,0 c 0,-6.627 -5.373,-12 -12,-12 -6.627,0 -12,5.373 -12,12 0,6.627 5.373,12 12,12 C -5.373,12 0,6.627 0,0" /></g><g
           transform="translate(56,84)"
           id="g260"><path
             id="path262"
             style="fill:#333333;fill-opacity:1;fill-rule:nonzero;stroke:none"
             d="m 0,0 c 0,-4.418 -3.582,-8 -8,-8 -4.418,0 -8,3.582 -8,8 0,4.418 3.582,8 8,8 4.418,0 8,-3.582 8,-8" /></g><g
           transform="translate(52,84)"
           id="g264"><path
             id="path266"
             style="fill:#262626;fill-opacity:1;fill-rule:nonzero;stroke:none"
             d="m 0,0 c 0,-2.209 -1.791,-4 -4,-4 -2.209,0 -4,1.791 -4,4 0,2.209 1.791,4 4,4 2.209,0 4,-1.791 4,-4" /></g><g
           transform="translate(220,84)"
           id="g268"><path
             id="path270"
             style="fill:#262626;fill-opacity:1;fill-rule:nonzero;stroke:none"
             d="m 0,0 c 0,-6.627 -5.373,-12 -12,-12 -6.627,0 -12,5.373 -12,12 0,6.627 5.373,12 12,12 C -5.373,12 0,6.627 0,0" /></g><g
           transform="translate(216,84)"
           id="g272"><path
             id="path274"
             style="fill:#333333;fill-opacity:1;fill-rule:nonzero;stroke:none"
             d="m 0,0 c 0,-4.418 -3.582,-8 -8,-8 -4.418,0 -8,3.582 -8,8 0,4.418 3.582,8 8,8 4.418,0 8,-3.582 8,-8" /></g><g
           transform="translate(212,84)"
           id="g276"><path
             id="path278"
             style="fill:#262626;fill-opacity:1;fill-rule:nonzero;stroke:none"
             d="m 0,0 c 0,-2.209 -1.791,-4 -4,-4 -2.209,0 -4,1.791 -4,4 0,2.209 1.791,4 4,4 2.209,0 4,-1.791 4,-4" /></g></g></g></g></svg>