<svg xmlns="http://www.w3.org/2000/svg" xml:space="preserve" width="330.667" height="224" viewBox="0 0 330.667 224"><defs><clipPath id="a" clipPathUnits="userSpaceOnUse"><path d="M0 256h256V0H0Z"/></clipPath><clipPath id="b" clipPathUnits="userSpaceOnUse"><path d="M4 212h248V44H4Z"/></clipPath><clipPath id="c" clipPathUnits="userSpaceOnUse"><path d="M0 256h256V0H0Z"/></clipPath></defs><g clip-path="url(#a)" transform="matrix(1.33333 0 0 -1.33333 -5.333 282.667)"><g clip-path="url(#b)" style="opacity:.5"><path d="M0 0h-240v-96.25l.016-.249 4-64 .468-7.501H3.516l.468 7.501 4 64L8-96.25V0Z" style="fill:#fff;fill-opacity:1;fill-rule:nonzero;stroke:none" transform="translate(244 212)"/></g></g><path d="m0 0-4-4h-224l-4 4v88H0Z" style="fill:#262626;fill-opacity:1;fill-rule:nonzero;stroke:none" transform="matrix(1.33333 0 0 -1.33333 320 128)"/><path d="M236 116H20v88h216z" style="fill:#191919;fill-opacity:1;fill-rule:nonzero;stroke:none" transform="matrix(1.33333 0 0 -1.33333 -5.333 282.667)"/><path d="M232 116H24v88h208z" style="fill:#333;fill-opacity:1;fill-rule:nonzero;stroke:none" transform="matrix(1.33333 0 0 -1.33333 -5.333 282.667)"/><path d="M44 192h-4v8h4zm8 0h-4v8h4zm8 0h-4v8h4zm8 0h-4v8h4zm8 0h-4v8h4zm8 0h-4v8h4zm8 0h-4v8h4zm8 0h-4v8h4zm8 0h-4v8h4zm8 0h-4v8h4zm8 0h-4v8h4zm8 0h-4v8h4zm8 0h-4v8h4zm8 0h-4v8h4zm8 0h-4v8h4zm8 0h-4v8h4zm8 0h-4v8h4zm8 0h-4v8h4zm8 0h-4v8h4zm8 0h-4v8h4zm8 0h-4v8h4zm8 0h-4v8h4zm8 0h-4v8h4z" style="fill:#191919;fill-opacity:1;fill-rule:nonzero;stroke:none" transform="matrix(1.33333 0 0 -1.33333 -5.333 282.667)"/><path d="M44 200h-4v4h4zm8 0h-4v4h4zm8 0h-4v4h4zm8 0h-4v4h4zm8 0h-4v4h4zm8 0h-4v4h4zm8 0h-4v4h4zm8 0h-4v4h4zm8 0h-4v4h4zm8 0h-4v4h4zm8 0h-4v4h4zm8 0h-4v4h4zm8 0h-4v4h4zm8 0h-4v4h4zm8 0h-4v4h4zm8 0h-4v4h4zm8 0h-4v4h4zm8 0h-4v4h4zm8 0h-4v4h4zm8 0h-4v4h4zm8 0h-4v4h4zm8 0h-4v4h4zm8 0h-4v4h4z" style="fill:#262626;fill-opacity:1;fill-rule:nonzero;stroke:none" transform="matrix(1.33333 0 0 -1.33333 -5.333 282.667)"/><path d="M224 124H32v16h192z" style="fill:#404040;fill-opacity:1;fill-rule:nonzero;stroke:none" transform="matrix(1.33333 0 0 -1.33333 -5.333 282.667)"/><path d="M84 128H68v8h16zm-24 0H44v8h16z" style="fill:#262626;fill-opacity:1;fill-rule:nonzero;stroke:none" transform="matrix(1.33333 0 0 -1.33333 -5.333 282.667)"/><path d="M56 128h-4v8h4z" style="fill:#333;fill-opacity:1;fill-rule:nonzero;stroke:none" transform="matrix(1.33333 0 0 -1.33333 -5.333 282.667)"/><path d="M44 128h-4v8h4z" style="fill:red;fill-opacity:1;fill-rule:nonzero;stroke:none" transform="matrix(1.33333 0 0 -1.33333 -5.333 282.667)"/><path d="M0 0h-224l-4 64H4Z" style="fill:#262626;fill-opacity:1;fill-rule:nonzero;stroke:none" transform="matrix(1.33333 0 0 -1.33333 314.667 213.333)"/><path d="M0 0h208l4 64H-4Z" style="fill:#191919;fill-opacity:1;fill-rule:nonzero;stroke:none" transform="matrix(1.33333 0 0 -1.33333 26.667 213.333)"/><path d="M0 0h-200l-4 64H4Z" style="fill:#404040;fill-opacity:1;fill-rule:nonzero;stroke:none" transform="matrix(1.33333 0 0 -1.33333 298.667 213.333)"/><g clip-path="url(#c)" transform="matrix(1.33333 0 0 -1.33333 -5.333 282.667)"><path d="M0 0h-120a4 4 0 0 0-4 4v28a4 4 0 0 0 4 4H0a4 4 0 0 0 4-4V4a4 4 0 0 0-4-4" style="fill:#333;fill-opacity:1;fill-rule:nonzero;stroke:none" transform="translate(188 64)"/><path d="M76 92h-8v4h8zm12 0h-8v4h8zm12 0h-8v4h8zm12 0h-8v4h8zm12 0h-8v4h8zm-48-8h-8v4h8z" style="fill:#cca37a;fill-opacity:1;fill-rule:nonzero;stroke:none"/><path d="M88 84h-8v4h8zm12 0h-8v4h8zm12 0h-8v4h8zm12 0h-8v4h8z" style="fill:#d35400;fill-opacity:1;fill-rule:nonzero;stroke:none"/><path d="M76 76h-8v4h8z" style="fill:#cca37a;fill-opacity:1;fill-rule:nonzero;stroke:none"/><path d="M88 76h-8v4h8zm12 0h-8v4h8zm12 0h-8v4h8zm12 0h-8v4h8z" style="fill:#d35400;fill-opacity:1;fill-rule:nonzero;stroke:none"/><path d="M76 68h-8v4h8z" style="fill:#cca37a;fill-opacity:1;fill-rule:nonzero;stroke:none"/><path d="M88 68h-8v4h8zm12 0h-8v4h8zm12 0h-8v4h8zm12 0h-8v4h8z" style="fill:#d35400;fill-opacity:1;fill-rule:nonzero;stroke:none"/><path d="M140 92h-8v4h8zm12 0h-8v4h8zm12 0h-8v4h8zm12 0h-8v4h8zm12 0h-8v4h8z" style="fill:#cca37a;fill-opacity:1;fill-rule:nonzero;stroke:none"/><path d="M140 84h-8v4h8zm12 0h-8v4h8zm12 0h-8v4h8zm12 0h-8v4h8z" style="fill:#d35400;fill-opacity:1;fill-rule:nonzero;stroke:none"/><path d="M188 84h-8v4h8z" style="fill:#cca37a;fill-opacity:1;fill-rule:nonzero;stroke:none"/><path d="M140 76h-8v4h8zm12 0h-8v4h8zm12 0h-8v4h8z" style="fill:#d35400;fill-opacity:1;fill-rule:nonzero;stroke:none"/><path d="M176 76h-8v4h8zm12 0h-8v4h8z" style="fill:#cca37a;fill-opacity:1;fill-rule:nonzero;stroke:none"/><path d="M140 68h-8v4h8zm12 0h-8v4h8z" style="fill:#d35400;fill-opacity:1;fill-rule:nonzero;stroke:none"/><path d="M164 68h-8v4h8zm12 0h-8v4h8zm12 0h-8v4h8z" style="fill:#cca37a;fill-opacity:1;fill-rule:nonzero;stroke:none"/><path d="M129 57h-2v54h2z" style="fill:#191919;fill-opacity:1;fill-rule:nonzero;stroke:none"/><path d="M232 110H24v2h208zm0-54H24v2h208z" style="fill:#191919;fill-opacity:1;fill-rule:nonzero;stroke:none"/><path d="M0 0c0-6.627-5.373-12-12-12S-24-6.627-24 0s5.373 12 12 12S0 6.627 0 0" style="fill:#262626;fill-opacity:1;fill-rule:nonzero;stroke:none" transform="translate(60 84)"/><path d="M0 0a8 8 0 1 0-16 0A8 8 0 0 0 0 0" style="fill:#333;fill-opacity:1;fill-rule:nonzero;stroke:none" transform="translate(56 84)"/><path d="M0 0a4 4 0 1 0-8 0 4 4 0 0 0 8 0" style="fill:#262626;fill-opacity:1;fill-rule:nonzero;stroke:none" transform="translate(52 84)"/><path d="M0 0c0-6.627-5.373-12-12-12S-24-6.627-24 0s5.373 12 12 12S0 6.627 0 0" style="fill:#262626;fill-opacity:1;fill-rule:nonzero;stroke:none" transform="translate(220 84)"/><path d="M0 0a8 8 0 1 0-16 0A8 8 0 0 0 0 0" style="fill:#333;fill-opacity:1;fill-rule:nonzero;stroke:none" transform="translate(216 84)"/><path d="M0 0a4 4 0 1 0-8 0 4 4 0 0 0 8 0" style="fill:#262626;fill-opacity:1;fill-rule:nonzero;stroke:none" transform="translate(212 84)"/></g></svg>