<svg xmlns="http://www.w3.org/2000/svg" xml:space="preserve" width="320" height="330.666" viewBox="0 0 320 330.666"><defs><clipPath id="a" clipPathUnits="userSpaceOnUse"><path d="M0 256h256V0H0Z"/></clipPath><clipPath id="b" clipPathUnits="userSpaceOnUse"><path d="M8 252h240V4H8Z"/></clipPath></defs><g clip-path="url(#a)" transform="matrix(1.33333 0 0 -1.33333 -10.667 336)"><g clip-path="url(#b)" style="opacity:.5"><path d="M0 0a8 8 0 0 1-2.114.283h-216.772a8 8 0 0 1-2.068-.272 11.93 11.93 0 0 1-9.549-11.728v-220c0-6.555 5.283-11.899 11.814-11.999l98.415-3.645c2.668-.098 5.377-.157 8.074-.175a8 8 0 0 1 3.394 0c2.698.018 5.407.077 8.075.175l98.415 3.645c6.531.1 11.813 5.444 11.813 11.999v220A11.93 11.93 0 0 1 0 0" style="fill:#fff;fill-opacity:1;fill-rule:nonzero;stroke:none" transform="translate(238.503 251.717)"/></g><path d="m0 0-98.525-3.649a256 256 0 0 0-18.95 0L-216 0c-2.2 0-4 1.8-4 4v220c0 2.2 1.8 4 4 4H0c2.2 0 4-1.8 4-4V4c0-2.2-1.8-4-4-4" style="fill:#e6e6e6;fill-opacity:1;fill-rule:nonzero;stroke:none" transform="translate(236 16)"/><path d="M0 0c6.864-6.863 8.399-16.457 3.428-21.428C-1.542-26.398-11.136-24.863-18-18c-6.864 6.864-8.398 16.458-3.428 21.429C-16.458 8.399-6.864 6.864 0 0" style="fill:#d9d9d9;fill-opacity:1;fill-rule:nonzero;stroke:none" transform="translate(44.572 49.428)"/><path d="M0 0c0-6.627-5.373-12-12-12S-24-6.627-24 0s5.373 12 12 12S0 6.627 0 0" style="fill:#f2f2f2;fill-opacity:1;fill-rule:nonzero;stroke:none" transform="translate(52 36)"/><path d="M0 0c-6.863-6.863-8.398-16.457-3.428-21.428C1.543-26.398 11.137-24.863 18-18c6.864 6.864 8.399 16.458 3.429 21.429C16.458 8.399 6.864 6.864 0 0" style="fill:#d9d9d9;fill-opacity:1;fill-rule:nonzero;stroke:none" transform="translate(211.428 49.428)"/><path d="M0 0c0-53.02-42.98-96-96-96s-96 42.98-96 96 42.98 96 96 96S0 53.02 0 0" style="fill:#e6e6e6;fill-opacity:1;fill-rule:nonzero;stroke:none" transform="translate(224 128)"/><path d="M0 0c0-6.627 5.373-12 12-12 6.628 0 12 5.373 12 12s-5.372 12-12 12C5.373 12 0 6.627 0 0" style="fill:#f2f2f2;fill-opacity:1;fill-rule:nonzero;stroke:none" transform="translate(203.085 36)"/><path d="M0 0c0-39.765-32.235-72-72-72s-72 32.235-72 72 32.235 72 72 72S0 39.765 0 0" style="fill:#f2f2f2;fill-opacity:1;fill-rule:nonzero;stroke:none" transform="translate(200 128)"/><path d="M0 0c-31.79 0-59.965-15.456-77.436-39.258l11.987-26.741C-54.07-41.218-29.054-24 0-24s54.07-17.218 65.449-41.999l11.988 26.741C59.965-15.456 31.789 0 0 0" style="fill:#fff;fill-opacity:1;fill-rule:nonzero;stroke:none" transform="translate(128 224)"/><path d="m0 0 9.162-20.437L18.324 0a97 97 0 0 0-9.162-.437C6.071-.437 3.016-.285 0 0" style="fill:#f39b11;fill-opacity:1;fill-rule:nonzero;stroke:none" transform="translate(118.838 32.438)"/><path d="M36 164h-4v4h4zm0-80h-4v4h4zm-8 60h-4v4h4zm-4-20h-4v4h4zm4-20h-4v4h4zm192 60h4v4h-4zm0-80h4v4h-4zm8 60h4v4h-4zm4-20h4v4h-4zm-4-20h4v4h-4z" style="fill:#f2f2f2;fill-opacity:1;fill-rule:nonzero;stroke:none"/><path d="M0 0c-50.729 0-92 41.271-92 92 0 48.27 37.368 87.974 84.694 91.71a130 130 0 0 0 2.305.153q.618.03 1.24.054c.403.016.804.035 1.208.046q1.273.035 2.553.037 1.28-.002 2.553-.037c.404-.011.805-.03 1.208-.046q.622-.024 1.24-.054a94 94 0 0 0 2.305-.153C54.633 179.974 92 140.27 92 92 92 41.271 50.729 0 0 0m107.65 206.364.734 1.636H104l-26.563-59.258-.001.001a97 97 0 0 1-8.92 10.491l-.044.044a96 96 0 0 1-8.082 7.344l-.182.147a97 97 0 0 1-8.856 6.351l-.129.081q-1.044.66-2.105 1.292l-.391.232q-.962.567-1.937 1.112-.21.119-.423.236-1.047.58-2.11 1.133l-.224.118a95 95 0 0 1-4.876 2.349l-.402.176a94 94 0 0 1-2.012.862q-.314.13-.63.257a99 99 0 0 1-1.855.732l-.671.255q-.987.367-1.984.715l-.516.182a96 96 0 0 1-5.112 1.589c-.22.062-.442.119-.663.179a97 97 0 0 1-2.75.707 96 96 0 0 1-4.542.977l-.752.144a96 96 0 0 1-5.32.813q-.417.049-.837.095a87 87 0 0 1-2.844.286 94 94 0 0 1-1.767.134q-.499.034-1.001.064-.931.05-1.869.085c-.293.011-.586.025-.88.033q-1.37.04-2.75.042-1.38-.001-2.75-.042c-.294-.008-.587-.022-.88-.033q-.937-.034-1.87-.085-.5-.03-1-.064a94 94 0 0 1-1.767-.134q-.492-.041-.985-.088a88 88 0 0 1-1.86-.198q-.419-.046-.836-.095a96 96 0 0 1-5.32-.813q-.376-.07-.752-.144a84 84 0 0 1-1.884-.376q-.44-.093-.878-.191a96 96 0 0 1-4.531-1.117c-.22-.06-.442-.117-.662-.179a96 96 0 0 1-5.112-1.589l-.516-.182q-.997-.348-1.984-.715l-.671-.255a99 99 0 0 1-1.855-.732q-.316-.127-.63-.257a94 94 0 0 1-2.012-.862l-.403-.176a95 95 0 0 1-4.875-2.349l-.224-.118a95 95 0 0 1-2.11-1.133q-.212-.117-.423-.236a98 98 0 0 1-1.937-1.112l-.391-.232a96 96 0 0 1-2.105-1.292l-.129-.081a96 96 0 0 1-6.705-4.666l-.196-.15a97 97 0 0 1-1.955-1.535l-.182-.147a97 97 0 0 1-8.082-7.344l-.044-.044a100 100 0 0 1-1.903-1.996 97 97 0 0 1-7.017-8.495v-.001L-104 208h-4.383l.733-1.636 26.564-59.258.982-2.19C-90.147 129.744-96 111.557-96 92-96 38.98-53.02-4 0-4s96 42.98 96 96c0 19.557-5.854 37.744-15.896 52.916l.982 2.19z" style="fill:#d9d9d9;fill-opacity:1;fill-rule:nonzero;stroke:none" transform="translate(128 36)"/><path d="M0 0a72 72 0 0 0-21.141 3.16l11.979-26.722A97 97 0 0 1 0-24c3.091 0 6.146.152 9.162.438L21.141 3.16A72 72 0 0 0 0 0" style="fill:#d9d9d9;fill-opacity:1;fill-rule:nonzero;stroke:none" transform="translate(128 56)"/></g></svg>