<?xml version="1.0" encoding="UTF-8" standalone="no"?>
<svg
   xmlns:dc="http://purl.org/dc/elements/1.1/"
   xmlns:cc="http://creativecommons.org/ns#"
   xmlns:rdf="http://www.w3.org/1999/02/22-rdf-syntax-ns#"
   xmlns:svg="http://www.w3.org/2000/svg"
   xmlns="http://www.w3.org/2000/svg"
   viewBox="0 0 319.99984 330.66626"
   height="330.66626"
   width="319.99985"
   xml:space="preserve"
   id="svg2"
   version="1.1"><metadata
     id="metadata8"><rdf:RDF><cc:Work
         rdf:about=""><dc:format>image/svg+xml</dc:format><dc:type
           rdf:resource="http://purl.org/dc/dcmitype/StillImage" /></cc:Work></rdf:RDF></metadata><defs
     id="defs6"><clipPath
       id="clipPath18"
       clipPathUnits="userSpaceOnUse"><path
         id="path16"
         d="M 0,256 H 256 V 0 H 0 Z" /></clipPath><clipPath
       id="clipPath26"
       clipPathUnits="userSpaceOnUse"><path
         id="path24"
         d="M 8,252 H 248 V 4 H 8 Z" /></clipPath></defs><g
     transform="matrix(1.3333333,0,0,-1.3333333,-10.666666,335.99999)"
     id="g10"><g
       id="g12"><g
         clip-path="url(#clipPath18)"
         id="g14"><g
           id="g20"><g
             id="g22" /><g
             id="g34"><g
               style="opacity:0.5"
               id="g32"
               clip-path="url(#clipPath26)"><g
                 id="g30"
                 transform="translate(238.5029,251.7173)"><path
                   id="path28"
                   style="fill:#ffffff;fill-opacity:1;fill-rule:nonzero;stroke:none"
                   d="m 0,0 c -0.673,0.185 -1.382,0.283 -2.114,0.283 h -0.005 -0.384 -4 -208 -4 -0.383 c -0.707,0 -1.402,-0.094 -2.068,-0.272 -5.529,-1.138 -9.549,-5.965 -9.549,-11.728 v -220 c 0,-6.555 5.283,-11.899 11.814,-11.999 l 98.415,-3.645 c 2.668,-0.098 5.377,-0.157 8.074,-0.175 0.551,-0.119 1.119,-0.181 1.697,-0.181 0.578,0 1.147,0.062 1.697,0.181 2.698,0.018 5.407,0.077 8.075,0.175 l 98.415,3.645 c 6.531,0.1 11.813,5.444 11.813,11.999 v 220 C 9.497,-5.971 5.503,-1.158 0,0" /></g></g></g></g><g
           transform="translate(236,16)"
           id="g36"><path
             id="path38"
             style="fill:#e6e6e6;fill-opacity:1;fill-rule:nonzero;stroke:none"
             d="m 0,0 -98.525,-3.649 c -6.315,-0.234 -12.636,-0.234 -18.95,0 L -216,0 c -2.2,0 -4,1.8 -4,4 v 220 c 0,2.2 1.8,4 4,4 H 0 c 2.2,0 4,-1.8 4,-4 V 4 C 4,1.8 2.2,0 0,0" /></g><g
           transform="translate(44.5718,49.4277)"
           id="g40"><path
             id="path42"
             style="fill:#d9d9d9;fill-opacity:1;fill-rule:nonzero;stroke:none"
             d="M 0,0 C 6.864,-6.863 8.399,-16.457 3.428,-21.428 -1.542,-26.398 -11.136,-24.863 -18,-18 -24.864,-11.136 -26.398,-1.542 -21.428,3.429 -16.458,8.399 -6.864,6.864 0,0" /></g><g
           transform="translate(52,36)"
           id="g44"><path
             id="path46"
             style="fill:#f2f2f2;fill-opacity:1;fill-rule:nonzero;stroke:none"
             d="m 0,0 c 0,-6.627 -5.373,-12 -12,-12 -6.627,0 -12,5.373 -12,12 0,6.627 5.373,12 12,12 C -5.373,12 0,6.627 0,0" /></g><g
           transform="translate(211.4277,49.4277)"
           id="g48"><path
             id="path50"
             style="fill:#d9d9d9;fill-opacity:1;fill-rule:nonzero;stroke:none"
             d="M 0,0 C -6.863,-6.863 -8.398,-16.457 -3.428,-21.428 1.543,-26.398 11.137,-24.863 18,-18 24.864,-11.136 26.399,-1.542 21.429,3.429 16.458,8.399 6.864,6.864 0,0" /></g><g
           transform="translate(224,128)"
           id="g52"><path
             id="path54"
             style="fill:#e6e6e6;fill-opacity:1;fill-rule:nonzero;stroke:none"
             d="m 0,0 c 0,-53.02 -42.98,-96 -96,-96 -53.02,0 -96,42.98 -96,96 0,53.02 42.98,96 96,96 C -42.98,96 0,53.02 0,0" /></g><g
           transform="translate(203.085,36)"
           id="g56"><path
             id="path58"
             style="fill:#f2f2f2;fill-opacity:1;fill-rule:nonzero;stroke:none"
             d="m 0,0 c 0,-6.627 5.373,-12 12,-12 6.628,0 12,5.373 12,12 C 24,6.627 18.628,12 12,12 5.373,12 0,6.627 0,0" /></g><g
           transform="translate(200,128)"
           id="g60"><path
             id="path62"
             style="fill:#f2f2f2;fill-opacity:1;fill-rule:nonzero;stroke:none"
             d="m 0,0 c 0,-39.765 -32.235,-72 -72,-72 -39.765,0 -72,32.235 -72,72 0,39.765 32.235,72 72,72 C -32.235,72 0,39.765 0,0" /></g><g
           transform="translate(128,224)"
           id="g64"><path
             id="path66"
             style="fill:#ffffff;fill-opacity:1;fill-rule:nonzero;stroke:none"
             d="m 0,0 c -31.79,0 -59.965,-15.456 -77.436,-39.258 l 11.987,-26.741 C -54.07,-41.218 -29.054,-24 0,-24 c 29.054,0 54.07,-17.218 65.449,-41.999 l 11.988,26.741 C 59.965,-15.456 31.789,0 0,0" /></g><g
           transform="translate(118.8384,32.4375)"
           id="g68"><path
             id="path70"
             style="fill:#f39b11;fill-opacity:1;fill-rule:nonzero;stroke:none"
             d="M 0,0 9.162,-20.437 18.324,0 C 15.307,-0.285 12.252,-0.437 9.162,-0.437 6.071,-0.437 3.016,-0.285 0,0" /></g><path
           id="path72"
           style="fill:#f2f2f2;fill-opacity:1;fill-rule:nonzero;stroke:none"
           d="m 36,164 h -4 v 4 h 4 z" /><path
           id="path74"
           style="fill:#f2f2f2;fill-opacity:1;fill-rule:nonzero;stroke:none"
           d="m 36,84 h -4 v 4 h 4 z" /><path
           id="path76"
           style="fill:#f2f2f2;fill-opacity:1;fill-rule:nonzero;stroke:none"
           d="m 28,144 h -4 v 4 h 4 z" /><path
           id="path78"
           style="fill:#f2f2f2;fill-opacity:1;fill-rule:nonzero;stroke:none"
           d="m 24,124 h -4 v 4 h 4 z" /><path
           id="path80"
           style="fill:#f2f2f2;fill-opacity:1;fill-rule:nonzero;stroke:none"
           d="m 28,104 h -4 v 4 h 4 z" /><path
           id="path82"
           style="fill:#f2f2f2;fill-opacity:1;fill-rule:nonzero;stroke:none"
           d="m 220,164 h 4 v 4 h -4 z" /><path
           id="path84"
           style="fill:#f2f2f2;fill-opacity:1;fill-rule:nonzero;stroke:none"
           d="m 220,84 h 4 v 4 h -4 z" /><path
           id="path86"
           style="fill:#f2f2f2;fill-opacity:1;fill-rule:nonzero;stroke:none"
           d="m 228,144 h 4 v 4 h -4 z" /><path
           id="path88"
           style="fill:#f2f2f2;fill-opacity:1;fill-rule:nonzero;stroke:none"
           d="m 232,124 h 4 v 4 h -4 z" /><path
           id="path90"
           style="fill:#f2f2f2;fill-opacity:1;fill-rule:nonzero;stroke:none"
           d="m 228,104 h 4 v 4 h -4 z" /><g
           transform="translate(128,36)"
           id="g92"><path
             id="path94"
             style="fill:#d9d9d9;fill-opacity:1;fill-rule:nonzero;stroke:none"
             d="m 0,0 c -50.729,0 -92,41.271 -92,92 0,48.27 37.368,87.974 84.694,91.71 0.208,0.016 0.415,0.031 0.623,0.046 0.559,0.04 1.12,0.077 1.682,0.107 0.412,0.021 0.826,0.037 1.24,0.054 0.403,0.016 0.804,0.035 1.208,0.046 0.849,0.022 1.699,0.037 2.553,0.037 0.854,0 1.704,-0.015 2.553,-0.037 0.404,-0.011 0.805,-0.03 1.208,-0.046 0.414,-0.017 0.828,-0.033 1.24,-0.054 0.562,-0.03 1.122,-0.067 1.682,-0.107 0.208,-0.015 0.416,-0.03 0.623,-0.046 C 54.633,179.974 92,140.27 92,92 92,41.271 50.729,0 0,0 M 107.65,206.364 108.384,208 H 104 L 77.437,148.742 c 0,0 -10e-4,0 -10e-4,0.001 -2.178,2.966 -4.521,5.802 -7.017,8.495 -0.018,0.019 -0.035,0.037 -0.052,0.056 -0.608,0.655 -1.225,1.302 -1.851,1.94 -0.015,0.015 -0.03,0.03 -0.044,0.044 -2.552,2.597 -5.25,5.05 -8.082,7.344 -0.061,0.049 -0.121,0.098 -0.182,0.147 -0.645,0.52 -1.296,1.031 -1.955,1.535 -0.065,0.05 -0.13,0.1 -0.196,0.15 -2.165,1.647 -4.401,3.205 -6.705,4.666 -0.043,0.027 -0.086,0.054 -0.129,0.081 -0.696,0.44 -1.398,0.87 -2.105,1.292 -0.131,0.078 -0.262,0.154 -0.391,0.232 -0.641,0.378 -1.287,0.749 -1.937,1.112 -0.141,0.079 -0.281,0.158 -0.423,0.236 -0.698,0.386 -1.401,0.764 -2.11,1.133 -0.075,0.039 -0.15,0.079 -0.224,0.118 -1.599,0.827 -3.225,1.611 -4.876,2.349 -0.134,0.059 -0.268,0.117 -0.402,0.176 -0.667,0.295 -1.337,0.582 -2.012,0.862 -0.209,0.087 -0.42,0.172 -0.63,0.257 -0.615,0.25 -1.234,0.494 -1.855,0.732 -0.224,0.085 -0.446,0.171 -0.671,0.255 -0.658,0.245 -1.319,0.483 -1.984,0.715 -0.172,0.06 -0.343,0.122 -0.516,0.182 -1.684,0.575 -3.388,1.106 -5.112,1.589 -0.22,0.062 -0.442,0.119 -0.663,0.179 -0.631,0.172 -1.266,0.34 -1.904,0.5 -0.281,0.07 -0.563,0.139 -0.846,0.207 -0.591,0.142 -1.185,0.279 -1.78,0.41 -0.292,0.065 -0.585,0.13 -0.878,0.191 -0.626,0.133 -1.254,0.257 -1.884,0.376 -0.251,0.048 -0.501,0.098 -0.752,0.144 -1.757,0.319 -3.531,0.591 -5.32,0.813 -0.278,0.034 -0.557,0.063 -0.837,0.095 -0.618,0.072 -1.237,0.139 -1.859,0.198 -0.328,0.032 -0.656,0.06 -0.985,0.088 -0.588,0.05 -1.176,0.095 -1.767,0.134 -0.333,0.022 -0.666,0.045 -1.001,0.064 -0.621,0.035 -1.244,0.061 -1.869,0.085 -0.293,0.011 -0.586,0.025 -0.88,0.033 C 1.836,187.984 0.92,188 0,188 c -0.92,0 -1.836,-0.016 -2.75,-0.042 -0.294,-0.008 -0.587,-0.022 -0.88,-0.033 -0.625,-0.024 -1.248,-0.05 -1.87,-0.085 -0.333,-0.019 -0.667,-0.042 -1,-0.064 -0.59,-0.039 -1.179,-0.084 -1.767,-0.134 -0.328,-0.028 -0.657,-0.056 -0.985,-0.088 -0.622,-0.059 -1.241,-0.126 -1.86,-0.198 -0.279,-0.032 -0.558,-0.061 -0.836,-0.095 -1.789,-0.222 -3.562,-0.494 -5.32,-0.813 -0.251,-0.046 -0.501,-0.096 -0.752,-0.144 -0.63,-0.119 -1.259,-0.243 -1.884,-0.376 -0.294,-0.061 -0.586,-0.126 -0.878,-0.191 -0.595,-0.131 -1.189,-0.268 -1.78,-0.41 -0.282,-0.068 -0.565,-0.137 -0.847,-0.207 -0.637,-0.16 -1.272,-0.328 -1.904,-0.5 -0.22,-0.06 -0.442,-0.117 -0.662,-0.179 -1.724,-0.483 -3.428,-1.014 -5.112,-1.589 -0.173,-0.06 -0.343,-0.122 -0.516,-0.182 -0.664,-0.232 -1.326,-0.47 -1.984,-0.715 -0.225,-0.084 -0.447,-0.17 -0.671,-0.255 -0.621,-0.238 -1.24,-0.482 -1.855,-0.732 -0.21,-0.085 -0.421,-0.17 -0.63,-0.257 -0.675,-0.28 -1.345,-0.567 -2.012,-0.862 -0.134,-0.059 -0.269,-0.117 -0.403,-0.176 -1.65,-0.738 -3.276,-1.522 -4.875,-2.349 -0.075,-0.039 -0.149,-0.079 -0.224,-0.118 -0.709,-0.369 -1.412,-0.747 -2.11,-1.133 -0.142,-0.078 -0.282,-0.157 -0.423,-0.236 -0.65,-0.363 -1.295,-0.734 -1.937,-1.112 -0.13,-0.078 -0.261,-0.154 -0.391,-0.232 -0.707,-0.422 -1.409,-0.852 -2.105,-1.292 -0.043,-0.027 -0.086,-0.054 -0.129,-0.081 -2.304,-1.461 -4.54,-3.019 -6.705,-4.666 -0.066,-0.05 -0.131,-0.1 -0.196,-0.15 -0.659,-0.504 -1.31,-1.015 -1.955,-1.535 -0.061,-0.049 -0.121,-0.098 -0.182,-0.147 -2.831,-2.294 -5.53,-4.747 -8.082,-7.344 -0.014,-0.014 -0.029,-0.029 -0.044,-0.044 -0.626,-0.638 -1.242,-1.285 -1.851,-1.94 -0.017,-0.019 -0.034,-0.037 -0.052,-0.056 -2.496,-2.693 -4.839,-5.529 -7.017,-8.495 0,-0.001 0,-0.001 0,-0.001 L -104,208 h -4.383 l 0.733,-1.636 26.564,-59.258 0.982,-2.19 C -90.147,129.744 -96,111.557 -96,92 -96,38.98 -53.02,-4 0,-4 c 53.02,0 96,42.98 96,96 0,19.557 -5.854,37.744 -15.896,52.916 l 0.982,2.19 z" /></g><g
           transform="translate(128,56)"
           id="g96"><path
             id="path98"
             style="fill:#d9d9d9;fill-opacity:1;fill-rule:nonzero;stroke:none"
             d="M 0,0 C -7.358,0 -14.455,1.109 -21.141,3.16 L -9.162,-23.562 C -6.146,-23.848 -3.091,-24 0,-24 c 3.091,0 6.146,0.152 9.162,0.438 L 21.141,3.16 C 14.455,1.109 7.357,0 0,0" /></g></g></g></g></svg>