<?xml version="1.0" encoding="UTF-8" standalone="no"?>
<svg
   xmlns:dc="http://purl.org/dc/elements/1.1/"
   xmlns:cc="http://creativecommons.org/ns#"
   xmlns:rdf="http://www.w3.org/1999/02/22-rdf-syntax-ns#"
   xmlns:svg="http://www.w3.org/2000/svg"
   xmlns="http://www.w3.org/2000/svg"
   viewBox="0 0 331.19217 191.99959"
   height="191.99959"
   width="331.19217"
   xml:space="preserve"
   id="svg2"
   version="1.1"><metadata
     id="metadata8"><rdf:RDF><cc:Work
         rdf:about=""><dc:format>image/svg+xml</dc:format><dc:type
           rdf:resource="http://purl.org/dc/dcmitype/StillImage" /></cc:Work></rdf:RDF></metadata><defs
     id="defs6"><clipPath
       id="clipPath18"
       clipPathUnits="userSpaceOnUse"><path
         id="path16"
         d="M 0,256 H 256 V 0 H 0 Z" /></clipPath><clipPath
       id="clipPath26"
       clipPathUnits="userSpaceOnUse"><path
         id="path24"
         d="M 3.80286,200 H 252.197 V 56 H 3.80286 Z" /></clipPath><clipPath
       id="clipPath66"
       clipPathUnits="userSpaceOnUse"><path
         id="path64"
         d="M 0,256 H 256 V 0 H 0 Z" /></clipPath></defs><g
     transform="matrix(1.3333333,0,0,-1.3333333,-5.0704799,266.66626)"
     id="g10"><g
       id="g12"><g
         clip-path="url(#clipPath18)"
         id="g14"><g
           id="g20"><g
             id="g22" /><g
             id="g34"><g
               style="opacity:0.5"
               id="g32"
               clip-path="url(#clipPath26)"><g
                 id="g30"
                 transform="translate(251.9863,88.4697)"><path
                   id="path28"
                   style="fill:#ffffff;fill-opacity:1;fill-rule:nonzero;stroke:none"
                   d="m 0,0 -4,68 -0.062,1.056 -0.334,1.004 -11.545,34.632 c -1.364,4.09 -5.176,6.838 -9.487,6.838 h -62.558 -4.945 l -2.211,-4.422 -1.789,-3.578 h -54.111 l -1.789,3.578 -2.211,4.422 h -4.944 -62.559 c -4.311,0 -8.123,-2.748 -9.487,-6.837 l -11.544,-34.633 -0.334,-1.004 -0.063,-1.056 -4,-68 -0.211,-3.586 2.541,-2.541 8,-8 2.343,-2.343 h 3.314 16 v -4 -3.313 l 2.343,-2.344 4,-4 2.343,-2.343 h 3.314 160 3.313 l 2.344,2.343 4,4 2.343,2.344 v 3.313 4 h 16 3.313 l 2.344,2.343 8,8 2.54,2.541 z" /></g></g></g></g></g></g><g
       transform="translate(44,80)"
       id="g36"><path
         id="path38"
         style="fill:#333333;fill-opacity:1;fill-rule:nonzero;stroke:none"
         d="m 0,0 v -12 l 4,-4 h 160 l 4,4 V 0 Z" /></g><g
       transform="translate(44,68)"
       id="g40"><path
         id="path42"
         style="fill:#4c4c4c;fill-opacity:1;fill-rule:nonzero;stroke:none"
         d="m 0,0 8,12 40,4 h 72 l 40,-4 8,-12 z" /></g><g
       transform="translate(168,92)"
       id="g44"><path
         id="path46"
         style="fill:#262626;fill-opacity:1;fill-rule:nonzero;stroke:none"
         d="m 0,0 h -40 -40 l -76,-4 8,-8 h 68 l 4,4 h 36 36 l 4,-4 h 68 l 8,8 z" /></g><g
       transform="translate(174,92)"
       id="g48"><path
         id="path50"
         style="fill:#4c4c4c;fill-opacity:1;fill-rule:nonzero;stroke:none"
         d="m 0,0 h -92 l 8,92 h 76 z" /></g><g
       transform="translate(92,192)"
       id="g52"><path
         id="path54"
         style="fill:#231f20;fill-opacity:1;fill-rule:nonzero;stroke:none"
         d="M 0,0 4,-8 H 0 -4 Z" /></g><g
       transform="translate(164,192)"
       id="g56"><path
         id="path58"
         style="fill:#231f20;fill-opacity:1;fill-rule:nonzero;stroke:none"
         d="M 0,0 4,-8 H 0 -4 Z" /></g><g
       id="g60"><g
         clip-path="url(#clipPath66)"
         id="g62"><g
           transform="translate(92,192)"
           id="g68"><path
             id="path70"
             style="fill:#404040;fill-opacity:1;fill-rule:nonzero;stroke:none"
             d="m 0,0 h -62.559 c -0.86,0 -1.625,-0.551 -1.897,-1.368 L -76,-36 l -4,-68 h 76 z" /></g><g
           transform="translate(87.8433,188)"
           id="g72"><path
             id="path74"
             style="fill:#262626;fill-opacity:1;fill-rule:nonzero;stroke:none"
             d="m 0,0 -3.692,-96 h -67.909 l 3.72,63.237 L -56.96,0 Z" /></g><g
           transform="translate(72,117.333)"
           id="g76"><path
             id="path78"
             style="fill:#4c4c4c;fill-opacity:1;fill-rule:nonzero;stroke:none"
             d="m 0,0 c 0,-11.045 -8.954,-20 -20,-20 -11.046,0 -20,8.955 -20,20 0,11.046 8.954,20 20,20 C -8.954,20 0,11.046 0,0" /></g><g
           transform="translate(62,117.333)"
           id="g80"><path
             id="path82"
             style="fill:#ffffff;fill-opacity:1;fill-rule:nonzero;stroke:none"
             d="m 0,0 c 0,-5.522 -4.477,-10 -10,-10 -5.523,0 -10,4.478 -10,10 0,5.523 4.477,10 10,10 C -4.477,10 0,5.523 0,0" /></g><g
           transform="translate(52,129.3335)"
           id="g84"><path
             id="path86"
             style="fill:#262626;fill-opacity:1;fill-rule:nonzero;stroke:none"
             d="m 0,0 c -6.617,0 -12,-5.383 -12,-12 0,-6.617 5.383,-12 12,-12 6.617,0 12,5.383 12,12 C 12,-5.383 6.617,0 0,0 m 0,-2 c 5.523,0 10,-4.477 10,-10 0,-5.523 -4.477,-10 -10,-10 -5.523,0 -10,4.477 -10,10 0,5.523 4.477,10 10,10" /></g><g
           transform="translate(164,192)"
           id="g88"><path
             id="path90"
             style="fill:#404040;fill-opacity:1;fill-rule:nonzero;stroke:none"
             d="M 0,0 4,-104 H 80 L 76,-36 64.456,-1.368 C 64.184,-0.551 63.419,0 62.559,0 Z" /></g><g
           transform="translate(168.1572,188)"
           id="g92"><path
             id="path94"
             style="fill:#262626;fill-opacity:1;fill-rule:nonzero;stroke:none"
             d="M 0,0 H 56.96 L 67.881,-32.763 71.601,-96 H 3.691 Z" /></g><g
           transform="translate(184,117.333)"
           id="g96"><path
             id="path98"
             style="fill:#4c4c4c;fill-opacity:1;fill-rule:nonzero;stroke:none"
             d="m 0,0 c 0,-11.045 8.954,-20 20,-20 11.046,0 20,8.955 20,20 C 40,11.046 31.046,20 20,20 8.954,20 0,11.046 0,0" /></g><g
           transform="translate(194,117.333)"
           id="g100"><path
             id="path102"
             style="fill:#ffffff;fill-opacity:1;fill-rule:nonzero;stroke:none"
             d="m 0,0 c 0,-5.522 4.478,-10 10,-10 5.522,0 10,4.478 10,10 C 20,5.523 15.522,10 10,10 4.478,10 0,5.523 0,0" /></g><g
           transform="translate(204,129.3335)"
           id="g104"><path
             id="path106"
             style="fill:#262626;fill-opacity:1;fill-rule:nonzero;stroke:none"
             d="m 0,0 c -6.617,0 -12,-5.383 -12,-12 0,-6.617 5.383,-12 12,-12 6.617,0 12,5.383 12,12 C 12,-5.383 6.617,0 0,0 m 0,-2 c 5.522,0 10,-4.477 10,-10 0,-5.523 -4.478,-10 -10,-10 -5.522,0 -10,4.477 -10,10 0,5.523 4.478,10 10,10" /></g><path
           id="path108"
           style="fill:#ffffff;fill-opacity:1;fill-rule:nonzero;stroke:none"
           d="m 156,164 h -56 v 12 h 56 z" /><path
           id="path110"
           style="fill:#404040;fill-opacity:1;fill-rule:nonzero;stroke:none"
           d="m 156,158 h -56 v 2 h 56 z" /><path
           id="path112"
           style="fill:#404040;fill-opacity:1;fill-rule:nonzero;stroke:none"
           d="m 156,154 h -56 v 2 h 56 z" /><path
           id="path114"
           style="fill:#404040;fill-opacity:1;fill-rule:nonzero;stroke:none"
           d="m 156,150 h -56 v 2 h 56 z" /><path
           id="path116"
           style="fill:#404040;fill-opacity:1;fill-rule:nonzero;stroke:none"
           d="m 156,146 h -56 v 2 h 56 z" /><path
           id="path118"
           style="fill:#404040;fill-opacity:1;fill-rule:nonzero;stroke:none"
           d="m 120,142 h -20 v 2 h 20 z" /><path
           id="path120"
           style="fill:#404040;fill-opacity:1;fill-rule:nonzero;stroke:none"
           d="m 156,142 h -20 v 2 h 20 z" /><path
           id="path122"
           style="fill:#404040;fill-opacity:1;fill-rule:nonzero;stroke:none"
           d="m 156,138 h -56 v 2 h 56 z" /><path
           id="path124"
           style="fill:#404040;fill-opacity:1;fill-rule:nonzero;stroke:none"
           d="m 156,134 h -56 v 2 h 56 z" /><path
           id="path126"
           style="fill:#404040;fill-opacity:1;fill-rule:nonzero;stroke:none"
           d="m 156,130 h -56 v 2 h 56 z" /><path
           id="path128"
           style="fill:#404040;fill-opacity:1;fill-rule:nonzero;stroke:none"
           d="m 156,126 h -56 v 2 h 56 z" /><path
           id="path130"
           style="fill:#ffffff;fill-opacity:1;fill-rule:nonzero;stroke:none"
           d="m 136,140 h -16 v 8 h 16 z" /><path
           id="path132"
           style="fill:#404040;fill-opacity:1;fill-rule:nonzero;stroke:none"
           d="m 120,100 h -16 v 8 h 16 z" /><g
           transform="translate(100,102)"
           id="g134"><path
             id="path136"
             style="fill:#ff0000;fill-opacity:1;fill-rule:nonzero;stroke:none"
             d="m 0,0 c 0,-1.104 -0.896,-2 -2,-2 -1.104,0 -2,0.896 -2,2 0,1.104 0.896,2 2,2 1.104,0 2,-0.896 2,-2" /></g><g
           transform="translate(152,102)"
           id="g138"><path
             id="path140"
             style="fill:#4c4c4c;fill-opacity:1;fill-rule:nonzero;stroke:none"
             d="m 0,0 c 0,-1.104 -0.896,-2 -2,-2 -1.104,0 -2,0.896 -2,2 0,1.104 0.896,2 2,2 1.104,0 2,-0.896 2,-2" /></g><g
           transform="translate(150,105)"
           id="g142"><path
             id="path144"
             style="fill:#ffffff;fill-opacity:1;fill-rule:nonzero;stroke:none"
             d="m 0,0 c -1.654,0 -3,-1.346 -3,-3 0,-1.654 1.346,-3 3,-3 1.654,0 3,1.346 3,3 0,1.654 -1.346,3 -3,3 m 0,-1 c 1.104,0 2,-0.896 2,-2 0,-1.104 -0.896,-2 -2,-2 -1.104,0 -2,0.896 -2,2 0,1.104 0.896,2 2,2" /></g><path
           id="path146"
           style="fill:#262626;fill-opacity:1;fill-rule:nonzero;stroke:none"
           d="m 104,100 h 8 v 8 h -8 z" /></g></g></g></svg>