<svg xmlns="http://www.w3.org/2000/svg" xml:space="preserve" width="331.192" height="192" viewBox="0 0 331.192 192"><defs><clipPath id="a" clipPathUnits="userSpaceOnUse"><path d="M0 256h256V0H0Z"/></clipPath><clipPath id="b" clipPathUnits="userSpaceOnUse"><path d="M3.803 200h248.394V56H3.803Z"/></clipPath><clipPath id="c" clipPathUnits="userSpaceOnUse"><path d="M0 256h256V0H0Z"/></clipPath></defs><g clip-path="url(#a)" transform="matrix(1.33333 0 0 -1.33333 -5.07 266.666)"><g clip-path="url(#b)" style="opacity:.5"><path d="m0 0-4 68-.062 1.056-.334 1.004-11.545 34.632a9.99 9.99 0 0 1-9.487 6.838h-67.503l-2.211-4.422-1.789-3.578h-54.111l-1.789 3.578-2.211 4.422h-67.503a9.99 9.99 0 0 1-9.487-6.837l-11.544-34.633-.334-1.004-.063-1.056-4-68-.211-3.586 2.541-2.541 8-8 2.343-2.343h19.314v-7.313l2.343-2.344 4-4 2.343-2.343h166.627l2.344 2.343 4 4 2.343 2.344v7.313h19.313l2.344 2.343 8 8 2.54 2.541z" style="fill:#fff;fill-opacity:1;fill-rule:nonzero;stroke:none" transform="translate(251.986 88.47)"/></g></g><path d="M0 0v-12l4-4h160l4 4V0Z" style="fill:#333;fill-opacity:1;fill-rule:nonzero;stroke:none" transform="matrix(1.33333 0 0 -1.33333 53.596 160)"/><path d="m0 0 8 12 40 4h72l40-4 8-12z" style="fill:#4c4c4c;fill-opacity:1;fill-rule:nonzero;stroke:none" transform="matrix(1.33333 0 0 -1.33333 53.596 176)"/><path d="M0 0h-80l-76-4 8-8h68l4 4h72l4-4h68l8 8z" style="fill:#262626;fill-opacity:1;fill-rule:nonzero;stroke:none" transform="matrix(1.33333 0 0 -1.33333 218.93 144)"/><path d="M0 0h-92l8 92h76z" style="fill:#4c4c4c;fill-opacity:1;fill-rule:nonzero;stroke:none" transform="matrix(1.33333 0 0 -1.33333 226.93 144)"/><path d="m0 0 4-8h-8Z" style="fill:#231f20;fill-opacity:1;fill-rule:nonzero;stroke:none" transform="matrix(1.33333 0 0 -1.33333 117.596 10.666)"/><path d="m0 0 4-8h-8Z" style="fill:#231f20;fill-opacity:1;fill-rule:nonzero;stroke:none" transform="matrix(1.33333 0 0 -1.33333 213.596 10.666)"/><g clip-path="url(#c)" transform="matrix(1.33333 0 0 -1.33333 -5.07 266.666)"><path d="M0 0h-62.559a2 2 0 0 1-1.897-1.368L-76-36l-4-68h76z" style="fill:#404040;fill-opacity:1;fill-rule:nonzero;stroke:none" transform="translate(92 192)"/><path d="m0 0-3.692-96h-67.909l3.72 63.237L-56.96 0Z" style="fill:#262626;fill-opacity:1;fill-rule:nonzero;stroke:none" transform="translate(87.843 188)"/><path d="M0 0c0-11.045-8.954-20-20-20s-20 8.955-20 20 8.954 20 20 20S0 11.046 0 0" style="fill:#4c4c4c;fill-opacity:1;fill-rule:nonzero;stroke:none" transform="translate(72 117.333)"/><path d="M0 0c0-5.522-4.477-10-10-10S-20-5.522-20 0s4.477 10 10 10S0 5.523 0 0" style="fill:#fff;fill-opacity:1;fill-rule:nonzero;stroke:none" transform="translate(62 117.333)"/><path d="M0 0c-6.617 0-12-5.383-12-12s5.383-12 12-12 12 5.383 12 12S6.617 0 0 0m0-2c5.523 0 10-4.477 10-10S5.523-22 0-22s-10 4.477-10 10S-5.523-2 0-2" style="fill:#262626;fill-opacity:1;fill-rule:nonzero;stroke:none" transform="translate(52 129.333)"/><path d="m0 0 4-104h76l-4 68L64.456-1.368A2 2 0 0 1 62.559 0Z" style="fill:#404040;fill-opacity:1;fill-rule:nonzero;stroke:none" transform="translate(164 192)"/><path d="M0 0h56.96l10.921-32.763L71.601-96H3.691Z" style="fill:#262626;fill-opacity:1;fill-rule:nonzero;stroke:none" transform="translate(168.157 188)"/><path d="M0 0c0-11.045 8.954-20 20-20s20 8.955 20 20-8.954 20-20 20S0 11.046 0 0" style="fill:#4c4c4c;fill-opacity:1;fill-rule:nonzero;stroke:none" transform="translate(184 117.333)"/><path d="M0 0c0-5.522 4.478-10 10-10S20-5.522 20 0s-4.478 10-10 10S0 5.523 0 0" style="fill:#fff;fill-opacity:1;fill-rule:nonzero;stroke:none" transform="translate(194 117.333)"/><path d="M0 0c-6.617 0-12-5.383-12-12s5.383-12 12-12 12 5.383 12 12S6.617 0 0 0m0-2c5.522 0 10-4.477 10-10S5.522-22 0-22s-10 4.477-10 10S-5.522-2 0-2" style="fill:#262626;fill-opacity:1;fill-rule:nonzero;stroke:none" transform="translate(204 129.333)"/><path d="M156 164h-56v12h56z" style="fill:#fff;fill-opacity:1;fill-rule:nonzero;stroke:none"/><path d="M156 158h-56v2h56zm0-4h-56v2h56zm0-4h-56v2h56zm0-4h-56v2h56zm-36-4h-20v2h20zm36 0h-20v2h20zm0-4h-56v2h56zm0-4h-56v2h56zm0-4h-56v2h56zm0-4h-56v2h56z" style="fill:#404040;fill-opacity:1;fill-rule:nonzero;stroke:none"/><path d="M136 140h-16v8h16z" style="fill:#fff;fill-opacity:1;fill-rule:nonzero;stroke:none"/><path d="M120 100h-16v8h16z" style="fill:#404040;fill-opacity:1;fill-rule:nonzero;stroke:none"/><path d="M0 0a2 2 0 1 0-4.001.001A2 2 0 0 0 0 0" style="fill:red;fill-opacity:1;fill-rule:nonzero;stroke:none" transform="translate(100 102)"/><path d="M0 0a2 2 0 1 0-4.001.001A2 2 0 0 0 0 0" style="fill:#4c4c4c;fill-opacity:1;fill-rule:nonzero;stroke:none" transform="translate(152 102)"/><path d="M0 0c-1.654 0-3-1.346-3-3s1.346-3 3-3 3 1.346 3 3-1.346 3-3 3m0-1a2 2 0 1 0-.001-4.001A2 2 0 0 0 0-1" style="fill:#fff;fill-opacity:1;fill-rule:nonzero;stroke:none" transform="translate(150 105)"/><path d="M104 100h8v8h-8z" style="fill:#262626;fill-opacity:1;fill-rule:nonzero;stroke:none"/></g></svg>