<?xml version="1.0" encoding="UTF-8" standalone="no"?>
<svg
   xmlns:dc="http://purl.org/dc/elements/1.1/"
   xmlns:cc="http://creativecommons.org/ns#"
   xmlns:rdf="http://www.w3.org/1999/02/22-rdf-syntax-ns#"
   xmlns:svg="http://www.w3.org/2000/svg"
   xmlns="http://www.w3.org/2000/svg"
   viewBox="0 0 224 320"
   height="320"
   width="224"
   xml:space="preserve"
   id="svg2"
   version="1.1"><metadata
     id="metadata8"><rdf:RDF><cc:Work
         rdf:about=""><dc:format>image/svg+xml</dc:format><dc:type
           rdf:resource="http://purl.org/dc/dcmitype/StillImage" /></cc:Work></rdf:RDF></metadata><defs
     id="defs6"><clipPath
       id="clipPath18"
       clipPathUnits="userSpaceOnUse"><path
         id="path16"
         d="M 0,256 H 256 V 0 H 0 Z" /></clipPath><clipPath
       id="clipPath26"
       clipPathUnits="userSpaceOnUse"><path
         id="path24"
         d="M 44,248 H 212 V 8 H 44 Z" /></clipPath></defs><g
     transform="matrix(1.3333333,0,0,-1.3333333,-58.666665,330.66666)"
     id="g10"><g
       id="g12"><g
         clip-path="url(#clipPath18)"
         id="g14"><g
           id="g20"><g
             id="g22" /><g
             id="g34"><g
               style="opacity:0.5"
               id="g32"
               clip-path="url(#clipPath26)"><g
                 id="g30"
                 transform="translate(204,211.915)"><path
                   id="path28"
                   style="fill:#ffffff;fill-opacity:1;fill-rule:nonzero;stroke:none"
                   d="m 0,0 v 26.085 c 0,5.514 -4.486,10 -10,10 h -132 c -5.514,0 -10,-4.486 -10,-10 V 0 c -5.243,-7.652 -8,-16.553 -8,-25.915 0,-9.362 2.757,-18.263 8,-25.915 v -142.085 c 0,-5.514 4.486,-10 10,-10 h 132 c 5.514,0 10,4.486 10,10 V -51.83 c 5.243,7.652 8,16.553 8,25.915 C 8,-16.553 5.243,-7.652 0,0" /></g></g></g></g><g
           transform="translate(194,16)"
           id="g36"><path
             id="path38"
             style="fill:#cccccc;fill-opacity:1;fill-rule:nonzero;stroke:none"
             d="m 0,0 h -132 c -1.104,0 -2,0.896 -2,2 v 220 c 0,1.104 0.896,2 2,2 H 0 c 1.104,0 2,-0.896 2,-2 V 2 C 2,0.896 1.104,0 0,0" /></g><g
           transform="translate(166,224)"
           id="g40"><path
             id="path42"
             style="fill:#d9d9d9;fill-opacity:1;fill-rule:nonzero;stroke:none"
             d="m 0,0 h -76 c -20.987,0 -38,-17.013 -38,-38 0,-20.987 17.013,-38 38,-38 H 0 c 20.986,0 38,17.013 38,38 C 38,-17.013 20.986,0 0,0" /></g><g
           transform="translate(166,220)"
           id="g44"><path
             id="path46"
             style="fill:#bfbfbf;fill-opacity:1;fill-rule:nonzero;stroke:none"
             d="m 0,0 h -76 c -18.748,0 -34,-15.252 -34,-34 0,-18.748 15.252,-34 34,-34 H 0 c 18.748,0 34,15.252 34,34 C 34,-15.252 18.748,0 0,0" /></g><g
           transform="translate(166,216)"
           id="g48"><path
             id="path50"
             style="fill:#d9d9d9;fill-opacity:1;fill-rule:nonzero;stroke:none"
             d="m 0,0 h -76 c -16.542,0 -30,-13.458 -30,-30 0,-16.542 13.458,-30 30,-30 H 0 c 16.542,0 30,13.458 30,30 C 30,-13.458 16.542,0 0,0" /></g><g
           transform="translate(166,212)"
           id="g52"><path
             id="path54"
             style="fill:#bfbfbf;fill-opacity:1;fill-rule:nonzero;stroke:none"
             d="m 0,0 h -76 c -14.336,0 -26,-11.664 -26,-26 0,-14.336 11.664,-26 26,-26 H 0 c 14.337,0 26,11.664 26,26 C 26,-11.664 14.337,0 0,0" /></g><g
           transform="translate(166,208)"
           id="g56"><path
             id="path58"
             style="fill:#00b800;fill-opacity:1;fill-rule:nonzero;stroke:none"
             d="M 0,0 C 12.131,0 22,-9.869 22,-22 22,-34.131 12.131,-44 0,-44 h -76 c -12.131,0 -22,9.869 -22,22 0,12.131 9.869,22 22,22 H 0" /></g><g
           transform="translate(183,228)"
           id="g60"><path
             id="path62"
             style="fill:#29678f;fill-opacity:1;fill-rule:nonzero;stroke:none"
             d="m 0,0 h -110 c -0.552,0 -1,0.448 -1,1 v 6 c 0,0.552 0.448,1 1,1 H 0 C 0.553,8 1,7.552 1,7 V 1 C 1,0.448 0.553,0 0,0" /></g><path
           id="path64"
           style="fill:#29678f;fill-opacity:1;fill-rule:nonzero;stroke:none"
           d="m 84,172 h -4 v 24 h 4 z" /><path
           id="path66"
           style="fill:#29678f;fill-opacity:1;fill-rule:nonzero;stroke:none"
           d="m 176,172 h -4 v 24 h 4 z" /><path
           id="path68"
           style="fill:#191919;fill-opacity:1;fill-rule:nonzero;stroke:none"
           d="m 84,172 h 88 v 24 H 84 Z" /><path
           id="path70"
           style="fill:#8c8c8c;fill-opacity:1;fill-rule:nonzero;stroke:none"
           d="M 164,204 H 88 v 16 h 76 z" /><path
           id="path72"
           style="fill:#191919;fill-opacity:1;fill-rule:nonzero;stroke:none"
           d="M 164,208 H 88 v 8 h 76 z" /><g
           transform="translate(185.9658,84)"
           id="g74"><path
             id="path76"
             style="fill:#1d1d1d;fill-opacity:1;fill-rule:nonzero;stroke:none"
             d="m 0,0 h -115.932 c -1.123,0 -2.034,0.911 -2.034,2.034 v 51.932 c 0,1.123 0.911,2.034 2.034,2.034 H 0 c 1.123,0 2.034,-0.911 2.034,-2.034 V 2.034 C 2.034,0.911 1.123,0 0,0" /></g><path
           id="path78"
           style="fill:#29678f;fill-opacity:1;fill-rule:nonzero;stroke:none"
           d="M 96,112 H 80 v 16 h 16 z" /><path
           id="path80"
           style="fill:#29678f;fill-opacity:1;fill-rule:nonzero;stroke:none"
           d="M 96,92 H 80 v 16 h 16 z" /><path
           id="path82"
           style="fill:#b80000;fill-opacity:1;fill-rule:nonzero;stroke:none"
           d="m 176,112 h -16 v 16 h 16 z" /><path
           id="path84"
           style="fill:#b80000;fill-opacity:1;fill-rule:nonzero;stroke:none"
           d="m 176,92 h -16 v 16 h 16 z" /><path
           id="path86"
           style="fill:#29678f;fill-opacity:1;fill-rule:nonzero;stroke:none"
           d="m 116,104 h -16 v 16 h 16 z" /><path
           id="path88"
           style="fill:#e77f22;fill-opacity:1;fill-rule:nonzero;stroke:none"
           d="m 156,104 h -16 v 16 h 16 z" /><path
           id="path90"
           style="fill:#29678f;fill-opacity:1;fill-rule:nonzero;stroke:none"
           d="m 184,36 h -56 v 12 h 56 z" /><g
           transform="translate(122,72)"
           id="g92"><path
             id="path94"
             style="fill:#bfbfbf;fill-opacity:1;fill-rule:nonzero;stroke:none"
             d="m 0,0 h -52 c -1.104,0 -2,0.896 -2,2 0,1.104 0.896,2 2,2 H 0 C 1.104,4 2,3.104 2,2 2,0.896 1.104,0 0,0" /></g><g
           transform="translate(122,64)"
           id="g96"><path
             id="path98"
             style="fill:#bfbfbf;fill-opacity:1;fill-rule:nonzero;stroke:none"
             d="m 0,0 h -52 c -1.104,0 -2,0.896 -2,2 0,1.104 0.896,2 2,2 H 0 C 1.104,4 2,3.104 2,2 2,0.896 1.104,0 0,0" /></g><g
           transform="translate(122,56)"
           id="g100"><path
             id="path102"
             style="fill:#bfbfbf;fill-opacity:1;fill-rule:nonzero;stroke:none"
             d="m 0,0 h -52 c -1.104,0 -2,0.896 -2,2 0,1.104 0.896,2 2,2 H 0 C 1.104,4 2,3.104 2,2 2,0.896 1.104,0 0,0" /></g><g
           transform="translate(122,48)"
           id="g104"><path
             id="path106"
             style="fill:#bfbfbf;fill-opacity:1;fill-rule:nonzero;stroke:none"
             d="m 0,0 h -52 c -1.104,0 -2,0.896 -2,2 0,1.104 0.896,2 2,2 H 0 C 1.104,4 2,3.104 2,2 2,0.896 1.104,0 0,0" /></g><g
           transform="translate(122,40)"
           id="g108"><path
             id="path110"
             style="fill:#bfbfbf;fill-opacity:1;fill-rule:nonzero;stroke:none"
             d="m 0,0 h -52 c -1.104,0 -2,0.896 -2,2 0,1.104 0.896,2 2,2 H 0 C 1.104,4 2,3.104 2,2 2,0.896 1.104,0 0,0" /></g><g
           transform="translate(122,32)"
           id="g112"><path
             id="path114"
             style="fill:#bfbfbf;fill-opacity:1;fill-rule:nonzero;stroke:none"
             d="m 0,0 h -52 c -1.104,0 -2,0.896 -2,2 0,1.104 0.896,2 2,2 H 0 C 1.104,4 2,3.104 2,2 2,0.896 1.104,0 0,0" /></g></g></g></g></svg>