<svg xmlns="http://www.w3.org/2000/svg" xml:space="preserve" width="224" height="320" viewBox="0 0 224 320"><defs><clipPath id="a" clipPathUnits="userSpaceOnUse"><path d="M0 256h256V0H0Z"/></clipPath><clipPath id="b" clipPathUnits="userSpaceOnUse"><path d="M44 248h168V8H44Z"/></clipPath></defs><g clip-path="url(#a)" transform="matrix(1.33333 0 0 -1.33333 -58.667 330.667)"><g clip-path="url(#b)" style="opacity:.5"><path d="M0 0v26.085c0 5.514-4.486 10-10 10h-132c-5.514 0-10-4.486-10-10V0c-5.243-7.652-8-16.553-8-25.915s2.757-18.263 8-25.915v-142.085c0-5.514 4.486-10 10-10h132c5.514 0 10 4.486 10 10V-51.83c5.243 7.652 8 16.553 8 25.915S5.243-7.652 0 0" style="fill:#fff;fill-opacity:1;fill-rule:nonzero;stroke:none" transform="translate(204 211.915)"/></g><path d="M0 0h-132a2 2 0 0 0-2 2v220a2 2 0 0 0 2 2H0a2 2 0 0 0 2-2V2a2 2 0 0 0-2-2" style="fill:#ccc;fill-opacity:1;fill-rule:nonzero;stroke:none" transform="translate(194 16)"/><path d="M0 0h-76c-20.987 0-38-17.013-38-38s17.013-38 38-38H0c20.986 0 38 17.013 38 38S20.986 0 0 0" style="fill:#d9d9d9;fill-opacity:1;fill-rule:nonzero;stroke:none" transform="translate(166 224)"/><path d="M0 0h-76c-18.748 0-34-15.252-34-34s15.252-34 34-34H0c18.748 0 34 15.252 34 34S18.748 0 0 0" style="fill:#bfbfbf;fill-opacity:1;fill-rule:nonzero;stroke:none" transform="translate(166 220)"/><path d="M0 0h-76c-16.542 0-30-13.458-30-30s13.458-30 30-30H0c16.542 0 30 13.458 30 30S16.542 0 0 0" style="fill:#d9d9d9;fill-opacity:1;fill-rule:nonzero;stroke:none" transform="translate(166 216)"/><path d="M0 0h-76c-14.336 0-26-11.664-26-26s11.664-26 26-26H0c14.337 0 26 11.664 26 26S14.337 0 0 0" style="fill:#bfbfbf;fill-opacity:1;fill-rule:nonzero;stroke:none" transform="translate(166 212)"/><path d="M0 0c12.131 0 22-9.869 22-22S12.131-44 0-44h-76c-12.131 0-22 9.869-22 22s9.869 22 22 22z" style="fill:#00b800;fill-opacity:1;fill-rule:nonzero;stroke:none" transform="translate(166 208)"/><path d="M0 0h-110a1 1 0 0 0-1 1v6a1 1 0 0 0 1 1H0a1 1 0 0 0 1-1V1a1 1 0 0 0-1-1" style="fill:#29678f;fill-opacity:1;fill-rule:nonzero;stroke:none" transform="translate(183 228)"/><path d="M84 172h-4v24h4zm92 0h-4v24h4z" style="fill:#29678f;fill-opacity:1;fill-rule:nonzero;stroke:none"/><path d="M84 172h88v24H84Z" style="fill:#191919;fill-opacity:1;fill-rule:nonzero;stroke:none"/><path d="M164 204H88v16h76z" style="fill:#8c8c8c;fill-opacity:1;fill-rule:nonzero;stroke:none"/><path d="M164 208H88v8h76z" style="fill:#191919;fill-opacity:1;fill-rule:nonzero;stroke:none"/><path d="M0 0h-115.932a2.034 2.034 0 0 0-2.034 2.034v51.932c0 1.123.911 2.034 2.034 2.034H0a2.034 2.034 0 0 0 2.034-2.034V2.034A2.034 2.034 0 0 0 0 0" style="fill:#1d1d1d;fill-opacity:1;fill-rule:nonzero;stroke:none" transform="translate(185.966 84)"/><path d="M96 112H80v16h16zm0-20H80v16h16z" style="fill:#29678f;fill-opacity:1;fill-rule:nonzero;stroke:none"/><path d="M176 112h-16v16h16zm0-20h-16v16h16z" style="fill:#b80000;fill-opacity:1;fill-rule:nonzero;stroke:none"/><path d="M116 104h-16v16h16z" style="fill:#29678f;fill-opacity:1;fill-rule:nonzero;stroke:none"/><path d="M156 104h-16v16h16z" style="fill:#e77f22;fill-opacity:1;fill-rule:nonzero;stroke:none"/><path d="M184 36h-56v12h56z" style="fill:#29678f;fill-opacity:1;fill-rule:nonzero;stroke:none"/><path d="M0 0h-52a2 2 0 0 0 0 4H0a2 2 0 0 0 0-4" style="fill:#bfbfbf;fill-opacity:1;fill-rule:nonzero;stroke:none" transform="translate(122 72)"/><path d="M0 0h-52a2 2 0 0 0 0 4H0a2 2 0 0 0 0-4" style="fill:#bfbfbf;fill-opacity:1;fill-rule:nonzero;stroke:none" transform="translate(122 64)"/><path d="M0 0h-52a2 2 0 0 0 0 4H0a2 2 0 0 0 0-4" style="fill:#bfbfbf;fill-opacity:1;fill-rule:nonzero;stroke:none" transform="translate(122 56)"/><path d="M0 0h-52a2 2 0 0 0 0 4H0a2 2 0 0 0 0-4" style="fill:#bfbfbf;fill-opacity:1;fill-rule:nonzero;stroke:none" transform="translate(122 48)"/><path d="M0 0h-52a2 2 0 0 0 0 4H0a2 2 0 0 0 0-4" style="fill:#bfbfbf;fill-opacity:1;fill-rule:nonzero;stroke:none" transform="translate(122 40)"/><path d="M0 0h-52a2 2 0 0 0 0 4H0a2 2 0 0 0 0-4" style="fill:#bfbfbf;fill-opacity:1;fill-rule:nonzero;stroke:none" transform="translate(122 32)"/></g></svg>