<svg xmlns="http://www.w3.org/2000/svg" id="Layer_1" viewBox="0 0 256 256"><defs><style>.st0{fill:#262626}.st3{fill:#ccc}.st8{fill:#333}</style></defs><path d="M174.9 47c-2.7 0-5.6.6-8.1 1.7-3.2 1.4-6.4 4.8-14.2 13.4-2.8 3.1-6.9 7.6-8.6 9.1h-32c-1.8-1.5-5.9-6.1-8.6-9.1-7.8-8.6-11-12-14.2-13.4-2.5-1.1-5.4-1.7-8.1-1.7-1.1 0-2.3.1-3.3.3-.2 0-1.3.2-2.6.4-3 .5-5.4.8-10.5 2.2-8.2 2.2-16.1 5.5-17.2 6-5.1 2.3-8.5 4.3-10.2 5.9-.9.9-1.8 2-2.4 3 0 0-2.7 4.6-3.8 7.2-2.2 5.2-4.1 10.4-6 15.5L24 90.4v.2c-.5 1.4-1 2.9-1.6 4.4-.6 1.6-1.2 3.2-1.8 4.9-.8 2.3-2.3 6.6-2.8 7.8 0 .1-.2.6-.2.6-1.5 4.3-2.8 8.6-4.3 13.4-1 3.2-2 6.7-2.8 10.1l-.2.7c-1.4 4.8-2.9 9.8-3.8 15-.2 1.1-.9 5.5-1 6-.1 1-.9 7.3-1.1 8.7-.5 4.5-1.5 20.2 5.9 32.6l.2.3.2.3c6.6 9.1 14.4 13.7 23 13.7s14.1-1.2 23.5-12.7c.4-.5.7-.8 1-1.2 2.7-2.9 12.2-12.9 21-19.7l2.3-1.8c.4-.3 1.4-1 2.2-1.4 0 0 .3-.2 1.1-.5.5-.2 2.3-.7 3-.8 1.7-.2 9.1-.3 15.3-.3h50.5c6.1 0 13.2 0 14.8.3.7.1 2.5.6 3 .8.7.3 1 .4 1.1.5.7.4 1.8 1.1 2.2 1.4l2.3 1.8c8.8 6.8 18.3 16.8 21 19.7.3.4.7.8 1 1.2 9.4 11.5 19.5 12.7 23.5 12.7 8.6 0 16.3-4.6 23-13.7l.2-.3.2-.3c7.4-12.4 6.4-28.1 5.9-32.6-.2-1.4-.9-7.8-1.1-8.7 0-.5-.8-4.9-1-6-.9-5.2-2.4-10.2-3.8-15l-.2-.7c-.9-3.4-1.9-6.9-2.8-10.1-1.4-4.7-2.7-9-4.3-13.3l-.2-.5c-.4-1.3-1.9-5.5-2.7-7.8-.6-1.7-1.2-3.3-1.8-4.9-.6-1.5-1.1-2.9-1.6-4.4v-.2l-1.1-2.9c-1.9-5.1-3.9-10.3-6-15.5-1.1-2.6-3.7-7.1-3.8-7.2-.6-1-1.5-2.1-2.4-3-1.7-1.6-5.1-3.6-10.2-5.9-1.1-.5-9-3.8-17.2-6-5.1-1.4-7.5-1.7-10.5-2.2-1.3-.2-2.4-.4-2.7-.4-1-.2-2.2-.3-3.3-.3Z" style="fill:#fff;opacity:.5"/><path d="M243.7 162.9c-.2-1.4-.9-7.6-1-8.5 0-.3-.7-4.6-.9-5.7-.9-5.1-2.4-10-3.9-14.9-1-3.7-2-7.3-2.8-10-1.3-4.3-2.6-8.7-4.1-13-.1-.2-2.1-5.8-3-8.4-1.1-3.1-2.3-6.1-3.3-9.2-2.3-6.1-4.5-12.2-7-18.1-.2-.7-2.2-4.5-3.2-6.1-.2-.4-.7-.9-1.1-1.3-1.1-1-4.8-2.9-8-4.4-.5-.3-8.2-3.4-16-5.5-4.7-1.3-6.7-1.6-9.6-2-1.2-.2-2.6-.4-3-.5-2-.4-4.5 0-6.5.9-3.9 1.8-19 20.9-22.6 22.6-1 .5-1.6.7-4.2.8h-30.6c-2.5 0-3.1-.3-4.2-.8C105 77.2 90 58 86.1 56.2c-2-.9-4.5-1.3-6.5-.9-.4 0-1.8.3-3 .5-3 .4-5 .7-9.6 2-7.8 2.1-15.4 5.3-16 5.5-3.2 1.5-6.9 3.4-8 4.4-.4.4-.9 1-1.1 1.3-1 1.6-3 5.4-3.2 6.1-2.5 6-4.7 12.1-7 18.1-1.1 3.1-2.3 6.1-3.3 9.2-.9 2.7-2.9 8.2-3 8.4-1.5 4.3-2.8 8.6-4.1 13-.8 2.7-1.8 6.2-2.8 10-1.5 4.9-3 9.8-3.9 14.9-.2 1.1-.9 5.4-.9 5.7-.1.8-.9 7-1 8.5-.7 6.5-.6 18.6 4.8 27.6 15.4 21.1 30.8 4.2 33.8.6.5-.6.9-1.1 1.4-1.6 3-3.2 12.7-13.4 21.9-20.6.8-.6 1.8-1.4 2.3-1.8 1.1-.8 2.9-1.9 3.1-2 .3-.2.7-.3 1.8-.9 1.2-.5 3.7-1.2 5.1-1.4 2.2-.3 8.6-.4 24-.4h35c15.4 0 21.8.1 24 .4 1.4.2 3.9.9 5.1 1.4s1.5.7 1.8.9c.2.1 2.1 1.2 3.1 2 .5.4 1.6 1.2 2.3 1.8 9.2 7.2 18.9 17.4 21.9 20.6.5.5.9 1.1 1.4 1.6 2.9 3.6 18.4 20.5 33.8-.6 5.4-9 5.5-21.1 4.8-27.6Z" style="fill:#d9d9d9"/><path d="M184 76c-15.5 0-28 12.5-28 28s12.5 28 28 28 28-12.5 28-28-12.5-28-28-28" class="st3"/><circle cx="184" cy="88" r="8" style="fill:#eac500"/><circle cx="168" cy="103.9" r="8" style="fill:#4b5da7"/><circle cx="200" cy="104" r="8" style="fill:#b80000"/><circle cx="184" cy="120" r="8" style="fill:#1abf9f"/><circle cx="104" cy="144" r="12" class="st0"/><circle cx="152" cy="144" r="12" class="st0"/><circle cx="104" cy="144" r="8" class="st8"/><rect width="12" height="4" x="108" y="116" class="st8" rx="2" ry="2"/><rect width="12" height="4" x="136" y="116" class="st8" rx="2" ry="2"/><circle cx="152" cy="144" r="8" class="st8"/><path d="M68 76c-15.5 0-28 12.5-28 28s12.5 28 28 28 28-12.5 28-28-12.5-28-28-28" class="st3"/><path d="M86 96H76V86c0-1.1-.9-2-2-2H62c-1.1 0-2 .9-2 2v10H50c-1.1 0-2 .9-2 2v12c0 1.1.9 2 2 2h10v10c0 1.1.9 2 2 2h12c1.1 0 2-.9 2-2v-10h10c1.1 0 2-.9 2-2V98c0-1.1-.9-2-2-2" class="st8"/><circle cx="68" cy="104" r="4" class="st0"/><path d="m50.4 102.4 6.3-3.3c.6-.3 1.3 0 1.3.6v6.5c0 .6-.7.9-1.3.6l-6.3-3.3c-.6-.3-.6-1 0-1.3Zm35.2 1.3-6.3 3.3c-.6.3-1.3 0-1.3-.6v-6.5c0-.6.7-.9 1.3-.6l6.3 3.3c.6.3.6 1 0 1.3Zm-17-17.3 3.3 6.3c.3.6 0 1.3-.6 1.3h-6.5c-.6 0-.9-.7-.6-1.3l3.3-6.3c.3-.6 1-.6 1.3 0Zm-1.2 35.2-3.3-6.3c-.3-.6 0-1.3.6-1.3h6.5c.6 0 .9.7.6 1.3l-3.3 6.3c-.3.6-1 .6-1.3 0Z" class="st0"/></svg>