<?xml version="1.0" encoding="UTF-8"?>
<svg id="Layer_1" xmlns="http://www.w3.org/2000/svg" version="1.1" viewBox="0 0 256 256">
  <!-- Generator: Adobe Illustrator 29.3.0, SVG Export Plug-In . SVG Version: 2.1.0 Build 146)  -->
  <defs>
    <style>
      .st0 {
        fill: #262626;
      }

      .st1 {
        fill: #d9d9d9;
      }

      .st2 {
        fill: #fff;
        opacity: .5;
      }

      .st3 {
        fill: #ccc;
      }

      .st4 {
        fill: #1abf9f;
      }

      .st5 {
        fill: #4b5da7;
      }

      .st6 {
        fill: #b80000;
      }

      .st7 {
        fill: #eac500;
      }

      .st8 {
        fill: #333;
      }
    </style>
  </defs>
  <path class="st2" d="M174.9,47c-2.7,0-5.6.6-8.1,1.7-3.2,1.4-6.4,4.8-14.2,13.4-2.8,3.1-6.9,7.6-8.6,9.1-.2,0-.4,0-.8,0h-15.2s-15.2,0-15.2,0c-.4,0-.6,0-.8,0-1.8-1.5-5.9-6.1-8.6-9.1-7.8-8.6-11-12-14.2-13.4-2.5-1.1-5.4-1.7-8.1-1.7-1.1,0-2.3.1-3.3.3-.2,0-1.3.2-2.6.4-3,.5-5.4.8-10.5,2.2-8.2,2.2-16.1,5.5-17.2,6-5.1,2.3-8.5,4.3-10.2,5.9-.9.9-1.8,2-2.4,3,0,0-2.7,4.6-3.8,7.2h0c-2.2,5.2-4.1,10.4-6,15.5l-1.1,2.9h0c0,0,0,.2,0,.2-.5,1.4-1,2.9-1.6,4.4-.6,1.6-1.2,3.2-1.8,4.9-.8,2.3-2.3,6.6-2.8,7.8h0c0,.1-.2.6-.2.6-1.5,4.3-2.8,8.6-4.3,13.4-1,3.2-2,6.7-2.8,10.1l-.2.7c-1.4,4.8-2.9,9.8-3.8,15-.2,1.1-.9,5.5-1,6-.1,1-.9,7.3-1.1,8.7-.5,4.5-1.5,20.2,5.9,32.6l.2.3.2.3c6.6,9.1,14.4,13.7,23,13.7s14.1-1.2,23.5-12.7c.4-.5.7-.8,1-1.2,2.7-2.9,12.2-12.9,21-19.7l2.3-1.8c.4-.3,1.4-1,2.2-1.4,0,0,.3-.2,1.1-.5.5-.2,2.3-.7,3-.8,1.7-.2,9.1-.3,15.3-.3h7.5s17.5,0,17.5,0h17.5s8,0,8,0h0c6.1,0,13.2,0,14.8.3.7.1,2.5.6,3,.8.7.3,1,.4,1.1.5.7.4,1.8,1.1,2.2,1.4l2.3,1.8c8.8,6.8,18.3,16.8,21,19.7.3.4.7.8,1,1.2,9.4,11.5,19.5,12.7,23.5,12.7,8.6,0,16.3-4.6,23-13.7l.2-.3.2-.3c7.4-12.4,6.4-28.1,5.9-32.6-.2-1.4-.9-7.8-1.1-8.7,0-.5-.8-4.9-1-6-.9-5.2-2.4-10.2-3.8-15l-.2-.7c-.9-3.4-1.9-6.9-2.8-10.1-1.4-4.7-2.7-9-4.3-13.3l-.2-.5h0c-.4-1.3-1.9-5.5-2.7-7.8-.6-1.7-1.2-3.3-1.8-4.9-.6-1.5-1.1-2.9-1.6-4.4h0c0,0,0-.2,0-.2l-1.1-2.9c-1.9-5.1-3.9-10.3-6-15.5h0c-1.1-2.6-3.7-7.1-3.8-7.2-.6-1-1.5-2.1-2.4-3-1.7-1.6-5.1-3.6-10.2-5.9-1.1-.5-9-3.8-17.2-6-5.1-1.4-7.5-1.7-10.5-2.2-1.3-.2-2.4-.4-2.7-.4-1-.2-2.2-.3-3.3-.3h0Z"/>
  <path class="st1" d="M243.7,162.9c-.2-1.4-.9-7.6-1-8.5,0-.3-.7-4.6-.9-5.7-.9-5.1-2.4-10-3.9-14.9-1-3.7-2-7.3-2.8-10-1.3-4.3-2.6-8.7-4.1-13-.1-.2-2.1-5.8-3-8.4-1.1-3.1-2.3-6.1-3.3-9.2-2.3-6.1-4.5-12.2-7-18.1-.2-.7-2.2-4.5-3.2-6.1-.2-.4-.7-.9-1.1-1.3-1.1-1-4.8-2.9-8-4.4-.5-.3-8.2-3.4-16-5.5-4.7-1.3-6.7-1.6-9.6-2-1.2-.2-2.6-.4-3-.5-2-.4-4.5,0-6.5.9-3.9,1.8-19,20.9-22.6,22.6-1,.5-1.6.7-4.2.8h-15.3s-15.3,0-15.3,0c-2.5,0-3.1-.3-4.2-.8-3.7-1.6-18.7-20.8-22.6-22.6-2-.9-4.5-1.3-6.5-.9-.4,0-1.8.3-3,.5-3,.4-5,.7-9.6,2-7.8,2.1-15.4,5.3-16,5.5-3.2,1.5-6.9,3.4-8,4.4-.4.4-.9,1-1.1,1.3-1,1.6-3,5.4-3.2,6.1-2.5,6-4.7,12.1-7,18.1-1.1,3.1-2.3,6.1-3.3,9.2-.9,2.7-2.9,8.2-3,8.4-1.5,4.3-2.8,8.6-4.1,13-.8,2.7-1.8,6.2-2.8,10-1.5,4.9-3,9.8-3.9,14.9-.2,1.1-.9,5.4-.9,5.7-.1.8-.9,7-1,8.5-.7,6.5-.6,18.6,4.8,27.6,15.4,21.1,30.8,4.2,33.8.6.5-.6.9-1.1,1.4-1.6,3-3.2,12.7-13.4,21.9-20.6.8-.6,1.8-1.4,2.3-1.8,1.1-.8,2.9-1.9,3.1-2,.3-.2.7-.3,1.8-.9,1.2-.5,3.7-1.2,5.1-1.4,2.2-.3,8.6-.4,24-.4h0s17.5,0,17.5,0h17.5s0,0,0,0c15.4,0,21.8.1,24,.4,1.4.2,3.9.9,5.1,1.4,1.2.5,1.5.7,1.8.9.2.1,2.1,1.2,3.1,2,.5.4,1.6,1.2,2.3,1.8,9.2,7.2,18.9,17.4,21.9,20.6.5.5.9,1.1,1.4,1.6,2.9,3.6,18.4,20.5,33.8-.6,5.4-9,5.5-21.1,4.8-27.6Z"/>
  <path class="st3" d="M184,76c-15.5,0-28,12.5-28,28s12.5,28,28,28c15.5,0,28-12.5,28-28,0-15.5-12.5-28-28-28h0Z"/>
  <circle class="st7" cx="184" cy="88" r="8"/>
  <circle class="st5" cx="168" cy="103.9" r="8"/>
  <circle class="st6" cx="200" cy="104" r="8"/>
  <circle class="st4" cx="184" cy="120" r="8"/>
  <circle class="st0" cx="104" cy="144" r="12"/>
  <circle class="st0" cx="152" cy="144" r="12"/>
  <circle class="st8" cx="104" cy="144" r="8"/>
  <rect class="st8" x="108" y="116" width="12" height="4" rx="2" ry="2"/>
  <rect class="st8" x="136" y="116" width="12" height="4" rx="2" ry="2"/>
  <circle class="st8" cx="152" cy="144" r="8"/>
  <path class="st3" d="M68,76c-15.5,0-28,12.5-28,28s12.5,28,28,28c15.5,0,28-12.5,28-28,0-15.5-12.5-28-28-28h0Z"/>
  <path class="st8" d="M86,96h-10v-10c0-1.1-.9-2-2-2h-12c-1.1,0-2,.9-2,2v10h-10c-1.1,0-2,.9-2,2v12c0,1.1.9,2,2,2h10v10c0,1.1.9,2,2,2h12c1.1,0,2-.9,2-2v-10h10c1.1,0,2-.9,2-2v-12c0-1.1-.9-2-2-2Z"/>
  <circle class="st0" cx="68" cy="104" r="4"/>
  <g>
    <path class="st0" d="M50.4,102.4l6.3-3.3c.6-.3,1.3,0,1.3.6v6.5c0,.6-.7.9-1.3.6l-6.3-3.3c-.6-.3-.6-1,0-1.3Z"/>
    <path class="st0" d="M85.6,103.7l-6.3,3.3c-.6.3-1.3,0-1.3-.6v-6.5c0-.6.7-.9,1.3-.6l6.3,3.3c.6.3.6,1,0,1.3Z"/>
  </g>
  <g>
    <path class="st0" d="M68.6,86.4l3.3,6.3c.3.6,0,1.3-.6,1.3h-6.5c-.6,0-.9-.7-.6-1.3l3.3-6.3c.3-.6,1-.6,1.3,0Z"/>
    <path class="st0" d="M67.4,121.6l-3.3-6.3c-.3-.6,0-1.3.6-1.3h6.5c.6,0,.9.7.6,1.3l-3.3,6.3c-.3.6-1,.6-1.3,0Z"/>
  </g>
</svg>