<svg xmlns="http://www.w3.org/2000/svg" xml:space="preserve" viewBox="0 0 256 256"><path d="m242.848 34.084-15.836-26.22L224.678 4H31.442l-2.338 3.844-15.94 26.22L12 35.979V252h232V35.992z" style="opacity:.5;fill:#fff"/><path d="M220.164 12H35.94L20 38.22v8.127h216V38.22z" style="fill:#666"/><path d="M20 40h216v204H20z" style="fill:#404040"/><path d="M43.455 208h168v8h-168z" style="fill:#262626"/><path d="M20 216h216v8H20z" style="fill:#333"/><path d="M20 200h216v8H20z" style="fill:#262626"/><path d="M47.808 63.06h159.16v129.26H47.808z" style="fill:#b80000"/><path d="M65.523 56H36v-5.523A2.477 2.477 0 0 1 38.477 48h27.046A2.477 2.477 0 0 1 68 50.477v3.046A2.477 2.477 0 0 1 65.523 56m32 0H78.477A2.477 2.477 0 0 1 76 53.523v-3.046A2.477 2.477 0 0 1 78.477 48h19.046A2.477 2.477 0 0 1 100 50.477v3.046A2.477 2.477 0 0 1 97.523 56m80 0h-19.046A2.477 2.477 0 0 1 156 53.523v-3.046A2.477 2.477 0 0 1 158.477 48h19.046A2.477 2.477 0 0 1 180 50.477v3.046A2.477 2.477 0 0 1 177.523 56" style="fill:#1a1a1a"/><path d="M145.523 56h-35.046A2.477 2.477 0 0 1 108 53.523v-3.046A2.477 2.477 0 0 1 110.477 48h35.046A2.477 2.477 0 0 1 148 50.477v3.046A2.477 2.477 0 0 1 145.523 56" style="fill:#262626"/><path d="M220 56h-29.523A2.477 2.477 0 0 1 188 53.523v-3.046A2.477 2.477 0 0 1 190.477 48h27.046A2.477 2.477 0 0 1 220 50.477z" style="fill:#1a1a1a"/><path d="M140 208h-24v-6a2 2 0 0 1 2-2h20a2 2 0 0 1 2 2z" style="fill:#b80000"/><path d="M116 208h24v8h-24z" style="fill:#7b0000"/><path d="M138 224h-20a2 2 0 0 1-2-2v-6h24v6a2 2 0 0 1-2 2" style="fill:#3d0000"/><path d="M122 200h12v8h-12z" style="fill:red"/><path d="M122 208h12v8h-12z" style="fill:#b80000"/><path d="M122 216h12v8h-12z" style="fill:#7b0000"/><path d="M36.175 107.395h-4.262c-2.161 0-3.913 1.248-3.913 2.787v3.031c0 1.539 1.752 2.787 3.913 2.787h8.175c2.161 0 3.913-1.248 3.913-2.787V56h-7.825zm183.65-.63V55.37H212v57.213c0 1.539 1.752 2.787 3.913 2.787h8.175c2.161 0 3.913-1.248 3.913-2.787v-3.031c0-1.539-1.752-2.787-3.913-2.787z" style="fill:#333"/><path d="M66 216h-2v-16h4v14a2 2 0 0 1-2 2m32 0h-2v-16h4v14a2 2 0 0 1-2 2m62 0h-2a2 2 0 0 1-2-2v-14h4zm32 0h-2a2 2 0 0 1-2-2v-14h4z" style="fill:#434343"/><path d="M60 200h4v8h-4zm0 8.14h-2a2 2 0 0 1-2-2v-6h4zm4 7.86h-2a2 2 0 0 1-2-2v-6h4z" style="fill:#1a1a1a"/><path d="M92 200h4v8h-4z" style="fill:#0000b8"/><path d="M92 208h-2a2 2 0 0 1-2-2v-6h4zm4 8h-2a2 2 0 0 1-2-2v-6h4z" style="fill:#00007b"/><path d="M160 200.14h4v8h-4z" style="fill:#0000b8" transform="rotate(-180 162 204.14)"/><path d="M164 208h2a2 2 0 0 0 2-2v-6h-4zm-4 8h2a2 2 0 0 0 2-2v-6h-4z" style="fill:#00007b"/><path d="M192.499 200.14h4v8h-4z" style="fill:#1a1a1a" transform="rotate(-180 194.5 204.14)"/><path d="M196 208h2a2 2 0 0 0 2-2v-6h-4zm-4 8h2a2 2 0 0 0 2-2v-6h-4z" style="fill:#1a1a1a"/><path d="M234.089 228H21.911c-1.055 0-1.911.754-1.911 1.683v4.015c0 .93.855 1.683 1.911 1.683h51.11c1.055 0 1.911.754 1.911 1.683v5.252c0 .93.855 1.683 1.911 1.683h5.256c1.055 0 1.911-.754 1.911-1.683v-5.252c0-.93.855-1.683 1.911-1.683h19.687c1.055 0 1.911.754 1.911 1.683v5.109c0 .93.855 1.683 1.911 1.683h37.765c1.055 0 1.911-.754 1.911-1.683v-5.109c0-.93.855-1.683 1.911-1.683h18.787c1.055 0 1.911.754 1.911 1.683v5.252c0 .93.855 1.683 1.911 1.683h5.256c1.055 0 1.911-.754 1.911-1.683v-5.252c0-.93.855-1.683 1.911-1.683h51.39c1.055 0 1.911-.754 1.911-1.683v-4.015c-.005-.929-.86-1.683-1.916-1.683" style="fill:#262626"/><path d="M223.68 157.3h-3.892v-24.6h3.865c2.135 0 3.865-1.171 3.865-2.615v-3.469c0-1.444-1.731-2.615-3.865-2.615H212v42h8.238v39.385c0 1.444 1.731 2.615 3.865 2.615h.031c2.145 0 3.88-1.182 3.865-2.633l-.455-45.469c-.013-1.439-1.74-2.599-3.864-2.599m-191.36 0h3.892v-24.6h-3.865c-2.135 0-3.865-1.171-3.865-2.615v-3.469c0-1.444 1.731-2.615 3.865-2.615H44v42h-8.238v39.385c0 1.444-1.731 2.615-3.865 2.615h-.031c-2.145 0-3.88-1.182-3.865-2.633l.455-45.469c.013-1.439 1.74-2.599 3.864-2.599" style="fill:#1a1a1a"/><path d="M48 236h16v8H48zm144.5 0h15v8h-15z" style="fill:#333"/><path d="M60 884.362h25.695l2.557 1.739 2.558 1.739.063 23.625.063 23.625.915.774.915.774-.351.272a19250 19250 0 0 1-31.543 24.109c-.329.228-.319.188.282-1.125l.624-1.361v-72.292l-.888-.938zm69.617.122h21.852l2.309 1.531 2.309 1.531v11.984c0 6.591-.038 16.975-.084 23.074l-.083 11.089-2.143 1.657c-6.021 4.657-13.008 10.027-13.045 10.027-.023 0-1.05-.804-2.282-1.787l-7.285-5.803c-2.775-2.209-5.072-4.059-5.105-4.111-.1-.157-.239-44.184-.143-45.183l.09-.932 1.805-1.54zm34.747 0c4.139 0 7.525.021 7.525.047s.539 1.961 1.198 4.302l1.908 6.787c.39 1.393.74 2.532.777 2.531s.386-1.058.775-2.349l2.06-6.833 1.353-4.485H196l-1.584 1.232-1.584 1.232V922.8c0 32.01.021 35.961.196 36.859.238 1.223.831 2.98 1.332 3.945.203.393.35.733.325.757s-.493-.302-1.043-.724c-1.134-.871-7.048-5.406-10.751-8.244l-2.478-1.9.754-.714.754-.714v-16.544c0-9.099-.033-16.513-.072-16.474-.039.038-.201.611-.359 1.271-.158.661-.798 3.261-1.422 5.777s-1.628 6.58-2.23 9.03-1.443 5.854-1.869 7.566l-.775 3.112-.28-1.16c-.154-.638-1.52-6.596-3.036-13.24-3.737-16.388-3.639-15.963-3.732-16.169-.045-.101-.097 6.397-.115 14.44L168 944.3l-.47-.364c-1.099-.851-10.631-8.717-10.663-8.799-.019-.049.362-.433.846-.852l.881-.762v-46.501l-.878-1.212c-.483-.667-.878-1.238-.878-1.269.001-.032 3.387-.057 7.526-.057m-66.601.244h21.912l1.837 1.556 1.836 1.556v46.006l-7.356 5.858c-4.046 3.222-7.389 5.869-7.429 5.883s-1.292-.92-2.783-2.075a6301 6301 0 0 0-7.618-5.883l-4.906-3.783v-46.138l2.254-1.49zm-24.95 10.735v17.819c0 9.8.031 17.819.069 17.819s1.604-1.243 3.48-2.762 3.482-2.847 3.568-2.953c.125-.151.151-3.279.125-15.025l-.032-14.833-3.606-.032zm64.336 0v17.833c0 14.247.032 17.81.157 17.718.086-.064 1.779-1.371 3.763-2.905l3.606-2.789-.032-14.897-.032-14.897-3.731-.032zm-32.326.248-.076.274c-.042.151-.076 6.848-.077 14.881l-.001 14.607.596.492c.646.533 6.846 5.363 6.898 5.373.017.003.032-8.011.032-17.811V895.71z" style="fill:#0000b8" transform="translate(0 -796.362)"/></svg>