<?xml version="1.0" encoding="iso-8859-1"?>
<!-- Generator: Adobe Illustrator 27.8.1, SVG Export Plug-In . SVG Version: 6.00 Build 0)  -->
<svg version="1.1" id="Layer_1" xmlns="http://www.w3.org/2000/svg" xmlns:xlink="http://www.w3.org/1999/xlink" x="0px" y="0px"
	 viewBox="0 0 256 256" style="enable-background:new 0 0 256 256;" xml:space="preserve">
<polygon style="opacity:0.5;fill:#FFFFFF;" points="242.848,34.084 227.012,7.864 224.678,4 220.164,4 35.94,4 31.442,4 
	29.104,7.844 13.164,34.064 12,35.979 12,38.22 12,40 12,46.347 12,200 12,208 12,216 12,224 12,229.683 12,233.699 12,244 12,252 
	20,252 48,252 64,252 76.842,252 82.098,252 173.622,252 178.878,252 192.5,252 207.5,252 236,252 244,252 244,244 244,233.699 
	244,229.683 244,224 244,216 244,208 244,200 244,46.347 244,40 244,38.22 244,35.992 "/>
<g>
	<polygon style="fill:#666666;" points="220.164,12 35.94,12 20,38.22 20,46.347 236,46.347 236,38.22 	"/>
	<rect x="20" y="40" style="fill:#404040;" width="216" height="204"/>
	<rect x="43.455" y="208" style="fill:#262626;" width="168" height="8"/>
	<rect x="20" y="216" style="fill:#333333;" width="216" height="8"/>
	<rect x="20" y="200" style="fill:#262626;" width="216" height="8"/>
	<rect x="47.808" y="63.06" style="fill:#B80000;" width="159.16" height="129.26"/>
	<path style="fill:#1A1A1A;" d="M65.523,56H36v-5.523C36,49.109,37.109,48,38.477,48h27.046C66.891,48,68,49.109,68,50.477v3.046
		C68,54.891,66.891,56,65.523,56z"/>
	<path style="fill:#1A1A1A;" d="M97.523,56H78.477C77.109,56,76,54.891,76,53.523v-3.046C76,49.109,77.109,48,78.477,48h19.046
		c1.368,0,2.477,1.109,2.477,2.477v3.046C100,54.891,98.891,56,97.523,56z"/>
	<path style="fill:#1A1A1A;" d="M177.523,56h-19.046c-1.368,0-2.477-1.109-2.477-2.477v-3.046c0-1.368,1.109-2.477,2.477-2.477
		h19.046c1.368,0,2.477,1.109,2.477,2.477v3.046C180,54.891,178.891,56,177.523,56z"/>
	<path style="fill:#262626;" d="M145.523,56h-35.046c-1.368,0-2.477-1.109-2.477-2.477v-3.046c0-1.368,1.109-2.477,2.477-2.477
		h35.046c1.368,0,2.477,1.109,2.477,2.477v3.046C148,54.891,146.891,56,145.523,56z"/>
	<path style="fill:#1A1A1A;" d="M220,56h-29.523c-1.368,0-2.477-1.109-2.477-2.477v-3.046c0-1.368,1.109-2.477,2.477-2.477h27.046
		c1.368,0,2.477,1.109,2.477,2.477V56z"/>
	<path style="fill:#B80000;" d="M140,208h-24v-6c0-1.105,0.895-2,2-2h20c1.105,0,2,0.895,2,2V208z"/>
	<rect x="116" y="208" style="fill:#7B0000;" width="24" height="8"/>
	<path style="fill:#3D0000;" d="M138,224h-20c-1.105,0-2-0.895-2-2v-6h24v6C140,223.105,139.105,224,138,224z"/>
	<rect x="122" y="200" style="fill:#FF0000;" width="12" height="8"/>
	<rect x="122" y="208" style="fill:#B80000;" width="12" height="8"/>
	<rect x="122" y="216" style="fill:#7B0000;" width="12" height="8"/>
	<path style="fill:#333333;" d="M36.175,107.395h-4.262c-2.161,0-3.913,1.248-3.913,2.787v3.031c0,1.539,1.752,2.787,3.913,2.787
		h4.262h3.913c2.161,0,3.913-1.248,3.913-2.787V56h-7.825V107.395z"/>
	<path style="fill:#333333;" d="M219.825,106.765V55.37H212v57.213c0,1.539,1.752,2.787,3.913,2.787h3.913h4.262
		c2.161,0,3.913-1.248,3.913-2.787v-3.031c0-1.539-1.752-2.787-3.913-2.787H219.825z"/>
	<path style="fill:#434343;" d="M66,216h-2v-16h4v14C68,215.105,67.105,216,66,216z"/>
	<path style="fill:#434343;" d="M98,216h-2v-16h4v14C100,215.105,99.105,216,98,216z"/>
	<path style="fill:#434343;" d="M160,216h-2c-1.105,0-2-0.895-2-2v-14h4V216z"/>
	<path style="fill:#434343;" d="M192,216h-2c-1.105,0-2-0.895-2-2v-14h4V216z"/>
	<rect x="60" y="200" style="fill:#1A1A1A;" width="4" height="8"/>
	<path style="fill:#1A1A1A;" d="M60,208.14h-2c-1.105,0-2-0.895-2-2v-6h4V208.14z"/>
	<path style="fill:#1A1A1A;" d="M64,216h-2c-1.105,0-2-0.895-2-2v-6h4V216z"/>
	<rect x="92" y="200" style="fill:#0000B8;" width="4" height="8"/>
	<path style="fill:#00007B;" d="M92,208h-2c-1.105,0-2-0.895-2-2v-6h4V208z"/>
	<path style="fill:#00007B;" d="M96,216h-2c-1.105,0-2-0.895-2-2v-6h4V216z"/>
	
		<rect x="160" y="200.14" transform="matrix(-1 -6.048152e-11 6.048152e-11 -1 324 408.28)" style="fill:#0000B8;" width="4" height="8"/>
	<path style="fill:#00007B;" d="M164,208h2c1.105,0,2-0.895,2-2v-6h-4V208z"/>
	<path style="fill:#00007B;" d="M160,216h2c1.105,0,2-0.895,2-2v-6h-4V216z"/>
	
		<rect x="192.499" y="200.14" transform="matrix(-1 -6.048152e-11 6.048152e-11 -1 388.9981 408.28)" style="fill:#1A1A1A;" width="4" height="8"/>
	<path style="fill:#1A1A1A;" d="M196,208h2c1.105,0,2-0.895,2-2v-6h-4V208z"/>
	<path style="fill:#1A1A1A;" d="M192,216h2c1.105,0,2-0.895,2-2v-6h-4V216z"/>
	<path style="fill:#262626;" d="M234.089,228H21.911c-1.055,0-1.911,0.754-1.911,1.683v4.015c0,0.93,0.855,1.683,1.911,1.683h51.11
		c1.055,0,1.911,0.754,1.911,1.683v5.252c0,0.93,0.855,1.683,1.911,1.683h5.256c1.055,0,1.911-0.754,1.911-1.683v-5.252
		c0-0.93,0.855-1.683,1.911-1.683h19.687c1.055,0,1.911,0.754,1.911,1.683v5.109c0,0.93,0.855,1.683,1.911,1.683h37.765
		c1.055,0,1.911-0.754,1.911-1.683v-5.109c0-0.93,0.855-1.683,1.911-1.683h18.787c1.055,0,1.911,0.754,1.911,1.683v5.252
		c0,0.93,0.855,1.683,1.911,1.683h5.256c1.055,0,1.911-0.754,1.911-1.683v-5.252c0-0.93,0.855-1.683,1.911-1.683h51.39
		c1.055,0,1.911-0.754,1.911-1.683v-4.015C236,228.754,235.145,228,234.089,228z"/>
	<path style="fill:#1A1A1A;" d="M223.68,157.3h-3.892v-24.6h3.865c2.135,0,3.865-1.171,3.865-2.615v-3.469
		c0-1.444-1.731-2.615-3.865-2.615h-3.865h-7.731H212v42h0.057h7.731h0.45v39.385c0,1.444,1.731,2.615,3.865,2.615h0.031
		c2.145,0,3.88-1.182,3.865-2.633l-0.455-45.469C227.531,158.46,225.804,157.3,223.68,157.3z"/>
	<path style="fill:#1A1A1A;" d="M32.32,157.3h3.892v-24.6h-3.865c-2.135,0-3.865-1.171-3.865-2.615v-3.469
		c0-1.444,1.731-2.615,3.865-2.615h3.865h7.731H44v42h-0.057h-7.731h-0.45v39.385c0,1.444-1.731,2.615-3.865,2.615h-0.031
		c-2.145,0-3.88-1.182-3.865-2.633l0.455-45.469C28.469,158.46,30.196,157.3,32.32,157.3z"/>
	<rect x="48" y="236" style="fill:#333333;" width="16" height="8"/>
	<rect x="192.5" y="236" style="fill:#333333;" width="15" height="8"/>
</g>
<g id="layer1_1_" transform="translate(0,-796.36216)">
	<path id="Settings_1_" style="fill:#0000B8;" d="M60,884.362h12.847h12.848l2.557,1.739l2.558,1.739l0.063,23.625l0.063,23.625
		l0.915,0.774l0.915,0.774l-0.351,0.272c-1.945,1.504-31.288,23.931-31.543,24.109c-0.329,0.228-0.319,0.188,0.282-1.125
		l0.624-1.361v-36.146v-36.146l-0.888-0.938L60,884.362z M129.617,884.484h10.926h10.926l2.309,1.531l2.309,1.531v11.984
		c0,6.591-0.038,16.975-0.084,23.074l-0.083,11.089l-2.143,1.657c-6.021,4.657-13.008,10.027-13.045,10.027
		c-0.023,0-1.05-0.804-2.282-1.787c-1.232-0.982-4.511-3.594-7.285-5.803c-2.775-2.209-5.072-4.059-5.105-4.111
		c-0.1-0.157-0.239-44.184-0.143-45.183l0.09-0.932l1.805-1.54L129.617,884.484L129.617,884.484z M164.364,884.484
		c4.139,0,7.525,0.021,7.525,0.047c0,0.026,0.539,1.961,1.198,4.302c0.659,2.34,1.517,5.394,1.908,6.787
		c0.39,1.393,0.74,2.532,0.777,2.531c0.037,0,0.386-1.058,0.775-2.349c0.389-1.292,1.316-4.366,2.06-6.833l1.353-4.485h8.02H196
		l-1.584,1.232l-1.584,1.232V922.8c0,32.01,0.021,35.961,0.196,36.859c0.238,1.223,0.831,2.98,1.332,3.945
		c0.203,0.393,0.35,0.733,0.325,0.757c-0.024,0.024-0.493-0.302-1.043-0.724c-1.134-0.871-7.048-5.406-10.751-8.244l-2.478-1.9
		l0.754-0.714l0.754-0.714v-16.544c0-9.099-0.033-16.513-0.072-16.474c-0.039,0.038-0.201,0.611-0.359,1.271
		c-0.158,0.661-0.798,3.261-1.422,5.777c-0.624,2.517-1.628,6.58-2.23,9.03c-0.602,2.45-1.443,5.854-1.869,7.566l-0.775,3.112
		l-0.28-1.16c-0.154-0.638-1.52-6.596-3.036-13.24c-3.737-16.388-3.639-15.963-3.732-16.169c-0.045-0.101-0.097,6.397-0.115,14.44
		L168,944.3l-0.47-0.364c-1.099-0.851-10.631-8.717-10.663-8.799c-0.019-0.049,0.362-0.433,0.846-0.852l0.881-0.762v-23.251v-23.25
		l-0.878-1.212c-0.483-0.667-0.878-1.238-0.878-1.269C156.839,884.509,160.225,884.484,164.364,884.484L164.364,884.484z
		 M97.763,884.728h10.956h10.956l1.837,1.556l1.836,1.556v23.003v23.003l-7.356,5.858c-4.046,3.222-7.389,5.869-7.429,5.883
		c-0.04,0.014-1.292-0.92-2.783-2.075h0c-1.492-1.155-4.919-3.802-7.618-5.883l-4.906-3.783l0-23.069l0-23.069l2.254-1.49
		L97.763,884.728L97.763,884.728z M72.813,895.463v17.819c0,9.8,0.031,17.819,0.069,17.819s1.604-1.243,3.48-2.762
		s3.482-2.847,3.568-2.953c0.125-0.151,0.151-3.279,0.125-15.025l-0.032-14.833l-3.606-0.032L72.813,895.463L72.813,895.463z
		 M137.149,895.463v17.833c0,14.247,0.032,17.81,0.157,17.718c0.086-0.064,1.779-1.371,3.763-2.905l3.606-2.789l-0.032-14.897
		l-0.032-14.897l-3.731-0.032L137.149,895.463L137.149,895.463z M104.823,895.711l-0.076,0.274
		c-0.042,0.151-0.076,6.848-0.077,14.881l-0.001,14.607l0.596,0.492c0.646,0.533,6.846,5.363,6.898,5.373
		c0.017,0.003,0.032-8.011,0.032-17.811v-17.817h-3.685H104.823L104.823,895.711z"/>
</g>
</svg>
