<?xml version="1.0" encoding="iso-8859-1"?>
<!-- Generator: Adobe Illustrator 27.8.1, SVG Export Plug-In . SVG Version: 6.00 Build 0)  -->
<svg version="1.1" id="Layer_1" xmlns="http://www.w3.org/2000/svg" xmlns:xlink="http://www.w3.org/1999/xlink" x="0px" y="0px"
	 viewBox="0 0 256 256" style="enable-background:new 0 0 256 256;" xml:space="preserve">
<rect x="36" y="12" transform="matrix(-1.836970e-16 1 -1 -1.836970e-16 256 2.842171e-14)" style="fill:#A6A390;" width="184" height="232"/>
<ellipse style="fill:#00007B;" cx="130" cy="184" rx="82" ry="8"/>
<rect x="12" y="196" style="fill:#C4C0AA;" width="232" height="24"/>
<rect x="96" y="208" style="fill:#A6A390;" width="140" height="12"/>
<rect x="72" y="212" style="fill:#A6A390;" width="4" height="8"/>
<rect x="80" y="212" style="fill:#A6A390;" width="4" height="8"/>
<rect x="64" y="212" style="fill:#A6A390;" width="4" height="8"/>
<rect x="56" y="212" style="fill:#A6A390;" width="4" height="8"/>
<rect x="48" y="212" style="fill:#A6A390;" width="4" height="8"/>
<rect x="40" y="212" style="fill:#A6A390;" width="4" height="8"/>
<rect x="32" y="212" style="fill:#A6A390;" width="4" height="8"/>
<rect x="24" y="212" style="fill:#A6A390;" width="4" height="8"/>
<rect x="48" y="28" style="fill:#C4C0AA;" width="164" height="140"/>
<path style="fill:#D9D4BC;" d="M212,188H48c-2.209,0-4-1.791-4-4v-24h172v24C216,186.209,214.209,188,212,188z"/>
<rect x="52" y="128" style="fill:#A6A390;" width="4" height="24"/>
<rect x="60" y="128" style="fill:#A6A390;" width="4" height="24"/>
<rect x="68" y="128" style="fill:#A6A390;" width="4" height="24"/>
<rect x="76" y="128" style="fill:#A6A390;" width="4" height="24"/>
<rect x="84" y="128" style="fill:#A6A390;" width="4" height="24"/>
<rect x="92" y="128" style="fill:#A6A390;" width="4" height="24"/>
<rect x="100" y="128" style="fill:#A6A390;" width="4" height="24"/>
<rect x="108" y="128" style="fill:#A6A390;" width="4" height="24"/>
<rect x="116" y="128" style="fill:#A6A390;" width="4" height="24"/>
<rect x="124" y="128" style="fill:#A6A390;" width="4" height="24"/>
<rect x="132" y="128" style="fill:#A6A390;" width="4" height="24"/>
<rect x="140" y="128" style="fill:#A6A390;" width="4" height="24"/>
<rect x="148" y="128" style="fill:#A6A390;" width="4" height="24"/>
<rect x="156" y="128" style="fill:#A6A390;" width="4" height="24"/>
<rect x="164" y="128" style="fill:#A6A390;" width="4" height="24"/>
<rect x="172" y="128" style="fill:#A6A390;" width="4" height="24"/>
<rect x="180" y="128" style="fill:#A6A390;" width="4" height="24"/>
<rect x="188" y="128" style="fill:#A6A390;" width="4" height="24"/>
<rect x="196" y="128" style="fill:#A6A390;" width="4" height="24"/>
<rect x="204" y="128" style="fill:#A6A390;" width="4" height="24"/>
<path style="fill:#262626;" d="M236,212H96v-4c0-2.209,1.791-4,4-4h132c2.209,0,4,1.791,4,4V212z"/>
<rect x="100" y="208" style="fill:#0D0D0D;" width="64" height="4"/>
<rect x="168" y="208" style="fill:#0D0D0D;" width="64" height="4"/>
</svg>
