<svg xmlns="http://www.w3.org/2000/svg" xml:space="preserve" viewBox="0 0 256 256"><path d="M36 12h184v232H36z" style="fill:#a6a390" transform="rotate(90 128 128)"/><ellipse cx="130" cy="184" rx="82" ry="8" style="fill:#00007b"/><path d="M12 196h232v24H12z" style="fill:#c4c0aa"/><path d="M96 208h140v12H96zm-24 4h4v8h-4zm8 0h4v8h-4zm-16 0h4v8h-4zm-8 0h4v8h-4zm-8 0h4v8h-4zm-8 0h4v8h-4zm-8 0h4v8h-4zm-8 0h4v8h-4z" style="fill:#a6a390"/><path d="M48 28h164v140H48z" style="fill:#c4c0aa"/><path d="M212 188H48a4 4 0 0 1-4-4v-24h172v24a4 4 0 0 1-4 4" style="fill:#d9d4bc"/><path d="M52 128h4v24h-4zm8 0h4v24h-4zm8 0h4v24h-4zm8 0h4v24h-4zm8 0h4v24h-4zm8 0h4v24h-4zm8 0h4v24h-4zm8 0h4v24h-4zm8 0h4v24h-4zm8 0h4v24h-4zm8 0h4v24h-4zm8 0h4v24h-4zm8 0h4v24h-4zm8 0h4v24h-4zm8 0h4v24h-4zm8 0h4v24h-4zm8 0h4v24h-4zm8 0h4v24h-4zm8 0h4v24h-4zm8 0h4v24h-4z" style="fill:#a6a390"/><path d="M236 212H96v-4a4 4 0 0 1 4-4h132a4 4 0 0 1 4 4z" style="fill:#262626"/><path d="M100 208h64v4h-64zm68 0h64v4h-64z" style="fill:#0d0d0d"/></svg>