<svg xmlns="http://www.w3.org/2000/svg" xml:space="preserve" width="309.333" height="330.667" viewBox="0 0 309.333 330.667"><defs><clipPath id="a" clipPathUnits="userSpaceOnUse"><path d="M0 256h256V0H0Z"/></clipPath><clipPath id="b" clipPathUnits="userSpaceOnUse"><path d="M12 252h232V4H12Z"/></clipPath></defs><g clip-path="url(#a)" transform="matrix(1.33333 0 0 -1.33333 -16 336)"><g clip-path="url(#b)" style="opacity:.5"><path d="M0 0v101.555C0 113.931-10.065 124-22.438 124h-187.054c-12.372 0-22.438-10.069-22.438-22.445V-16h.071v-85.354c0-12.487 10.066-22.646 22.438-22.646h187.053C-9.995-124 .07-113.841.07-101.354V0z" style="fill:#fff;fill-opacity:1;fill-rule:nonzero;stroke:none" transform="translate(243.93 128)"/></g><path d="M0 0h-187.11c-7.977 0-14.445 6.8-14.445 15.188V112h216V15.188C14.445 6.8 7.979 0 0 0" style="fill:#e6e6e6;fill-opacity:1;fill-rule:nonzero;stroke:none" transform="translate(221.625 12)"/><path d="M46 140h164v-20H46Z" style="fill:#d9d9d9;fill-opacity:1;fill-rule:nonzero;stroke:none"/><path d="M0 0h-216v93.555c0 7.978 6.467 14.445 14.445 14.445h187.11C-6.467 108 0 101.533 0 93.555Z" style="fill:#e6e6e6;fill-opacity:1;fill-rule:nonzero;stroke:none" transform="translate(236 136)"/><path d="M0 0h-120v-96H0v93.367z" style="fill:#d9d9d9;fill-opacity:1;fill-rule:nonzero;stroke:none" transform="translate(188 236)"/><path d="M184 144H72v88h112z" style="fill:#191919;fill-opacity:1;fill-rule:nonzero;stroke:none"/><path d="M0 0h-115.167c-1.334 0-2.416-1.117-2.416-2.496v-91.008c0-1.379 1.082-2.496 2.416-2.496H0c1.335 0 2.417 1.117 2.417 2.496v91.008C2.417-1.117 1.335 0 0 0" style="fill:#d9d9d9;fill-opacity:1;fill-rule:nonzero;stroke:none" transform="translate(185.583 116)"/><path d="M0 0h-116v-92H0v89.477z" style="fill:#e6e6e6;fill-opacity:1;fill-rule:nonzero;stroke:none" transform="translate(186 114)"/><path d="M184 24H72v88h112z" style="fill:#191919;fill-opacity:1;fill-rule:nonzero;stroke:none"/><path d="M0 0h-28v11.359C-28 13.922-25.649 16-22.749 16H0Z" style="fill:#ccc;fill-opacity:1;fill-rule:nonzero;stroke:none" transform="translate(48 120)"/><path d="M0 0h28v11.359C28 13.922 25.649 16 22.749 16H0Z" style="fill:#ccc;fill-opacity:1;fill-rule:nonzero;stroke:none" transform="translate(208 120)"/><path d="M0 0a1 1 0 1 0-2 0 1 1 0 0 0 2 0" style="fill:#191919;fill-opacity:1;fill-rule:nonzero;stroke:none" transform="translate(44 179)"/><path d="M0 0a1 1 0 1 0-2 0 1 1 0 0 0 2 0" style="fill:#191919;fill-opacity:1;fill-rule:nonzero;stroke:none" transform="translate(48 179)"/><path d="M0 0a1 1 0 1 0-2 0 1 1 0 0 0 2 0" style="fill:#191919;fill-opacity:1;fill-rule:nonzero;stroke:none" transform="translate(46 175)"/><path d="M0 0a1 1 0 1 0-2 0 1 1 0 0 0 2 0" style="fill:#191919;fill-opacity:1;fill-rule:nonzero;stroke:none" transform="translate(42 175)"/><path d="M0 0a1 1 0 1 0-2 0 1 1 0 0 0 2 0" style="fill:#191919;fill-opacity:1;fill-rule:nonzero;stroke:none" transform="translate(46 183)"/><path d="M0 0a1 1 0 1 0-2 0 1 1 0 0 0 2 0" style="fill:#191919;fill-opacity:1;fill-rule:nonzero;stroke:none" transform="translate(42 183)"/><path d="M0 0a1 1 0 1 0-2 0 1 1 0 0 0 2 0" style="fill:#191919;fill-opacity:1;fill-rule:nonzero;stroke:none" transform="translate(40 179)"/><path d="M0 0a1 1 0 1 0-2 0 1 1 0 0 0 2 0" style="fill:#191919;fill-opacity:1;fill-rule:nonzero;stroke:none" transform="translate(214 179)"/><path d="M0 0a1 1 0 1 0-2 0 1 1 0 0 0 2 0" style="fill:#191919;fill-opacity:1;fill-rule:nonzero;stroke:none" transform="translate(218 179)"/><path d="M0 0a1 1 0 1 0-2 0 1 1 0 0 0 2 0" style="fill:#191919;fill-opacity:1;fill-rule:nonzero;stroke:none" transform="translate(216 175)"/><path d="M0 0a1 1 0 1 0-2 0 1 1 0 0 0 2 0" style="fill:#191919;fill-opacity:1;fill-rule:nonzero;stroke:none" transform="translate(212 175)"/><path d="M0 0a1 1 0 1 0-2 0 1 1 0 0 0 2 0" style="fill:#191919;fill-opacity:1;fill-rule:nonzero;stroke:none" transform="translate(216 183)"/><path d="M0 0a1 1 0 1 0-2 0 1 1 0 0 0 2 0" style="fill:#191919;fill-opacity:1;fill-rule:nonzero;stroke:none" transform="translate(212 183)"/><path d="M0 0a1 1 0 1 0-2 0 1 1 0 0 0 2 0" style="fill:#191919;fill-opacity:1;fill-rule:nonzero;stroke:none" transform="translate(210 179)"/><path d="M44 232h-4v4h4zm172 0h-4v4h4zM44 140h-4v4h4zm172 0h-4v4h4z" style="fill:#d9d9d9;fill-opacity:1;fill-rule:nonzero;stroke:none"/><path d="M0 0a2 2 0 1 0-4.001.001A2 2 0 0 0 0 0" style="fill:#191919;fill-opacity:1;fill-rule:nonzero;stroke:none" transform="translate(140 128)"/><path d="M0 0a4 4 0 1 0-8 0 4 4 0 0 0 8 0" style="fill:#191919;fill-opacity:1;fill-rule:nonzero;stroke:none" transform="translate(132 128)"/><path d="M0 0a4 4 0 1 0-8 0 4 4 0 0 0 8 0" style="fill:#d9d9d9;fill-opacity:1;fill-rule:nonzero;stroke:none" transform="translate(60 32)"/><path d="M0 0h-9.116a1.3 1.3 0 0 1-1.302-1.303V-8.14h-6.838a1.3 1.3 0 0 1-1.302-1.301v-9.118c0-.718.583-1.301 1.302-1.301h6.838v-6.837c0-.72.583-1.303 1.302-1.303H0c.719 0 1.302.583 1.302 1.303v6.837H8.14c.719 0 1.302.583 1.302 1.301v9.118c0 .718-.583 1.301-1.302 1.301H1.302v6.837C1.302-.583.719 0 0 0m0-1.303v-8.138h8.14v-9.118H0v-8.138h-9.116v8.138h-8.14v9.118h8.14v8.138z" style="fill:#d9d9d9;fill-opacity:1;fill-rule:nonzero;stroke:none" transform="translate(46.558 100)"/><path d="M0 0h-3.111c-.245 0-.445.449-.445 1s.2 1 .445 1H0c.245 0 .444-.449.444-1S.245 0 0 0" style="fill:#b3b3b3;fill-opacity:1;fill-rule:nonzero;stroke:none" transform="translate(35.556 85)"/><path d="M0 0h-3.111c-.245 0-.445.449-.445 1s.2 1 .445 1H0c.245 0 .444-.449.444-1S.245 0 0 0" style="fill:#b3b3b3;fill-opacity:1;fill-rule:nonzero;stroke:none" transform="translate(51.556 85)"/><path d="M0 0v3.111c0 .245.449.445 1 .445s1-.2 1-.445V0c0-.245-.449-.444-1-.444S0-.245 0 0" style="fill:#b3b3b3;fill-opacity:1;fill-rule:nonzero;stroke:none" transform="translate(41 92.444)"/><path d="M0 0v3.111c0 .245.449.445 1 .445s1-.2 1-.445V0c0-.245-.449-.444-1-.444S0-.245 0 0" style="fill:#b3b3b3;fill-opacity:1;fill-rule:nonzero;stroke:none" transform="translate(41 76.444)"/><path d="M0 0a4 4 0 1 0-8 0 4 4 0 0 0 8 0" style="fill:#d9d9d9;fill-opacity:1;fill-rule:nonzero;stroke:none" transform="translate(204 40)"/><path d="M0 0a4 4 0 1 0-8 0 4 4 0 0 0 8 0" style="fill:#d9d9d9;fill-opacity:1;fill-rule:nonzero;stroke:none" transform="translate(204 28)"/><path d="M0 0c-3.309 0-6-2.691-6-6s2.691-6 6-6 6 2.691 6 6-2.691 6-6 6" style="fill:#d9d9d9;fill-opacity:1;fill-rule:nonzero;stroke:none" transform="translate(212 82)"/><path d="M0 0a5 5 0 0 0-5-5 5 5 0 0 0-5 5 5 5 0 0 0 5 5 5 5 0 0 0 5-5" style="fill:#e6e6e6;fill-opacity:1;fill-rule:nonzero;stroke:none" transform="translate(217 76)"/><path d="M0 0c-3.309 0-6-2.691-6-6s2.691-6 6-6 6 2.691 6 6-2.691 6-6 6" style="fill:#d9d9d9;fill-opacity:1;fill-rule:nonzero;stroke:none" transform="translate(212 102)"/><path d="M0 0a5 5 0 0 0-5-5 5 5 0 0 0-5 5 5 5 0 0 0 5 5 5 5 0 0 0 5-5" style="fill:#e6e6e6;fill-opacity:1;fill-rule:nonzero;stroke:none" transform="translate(217 96)"/><path d="M0 0c-3.309 0-6-2.691-6-6s2.691-6 6-6 6 2.691 6 6-2.691 6-6 6" style="fill:#d9d9d9;fill-opacity:1;fill-rule:nonzero;stroke:none" transform="translate(202 92)"/><path d="M0 0a5 5 0 0 0-5-5 5 5 0 0 0-5 5 5 5 0 0 0 5 5 5 5 0 0 0 5-5" style="fill:#e6e6e6;fill-opacity:1;fill-rule:nonzero;stroke:none" transform="translate(207 86)"/><path d="M0 0c-3.309 0-6-2.691-6-6s2.691-6 6-6 6 2.691 6 6-2.691 6-6 6" style="fill:#d9d9d9;fill-opacity:1;fill-rule:nonzero;stroke:none" transform="translate(222 92)"/><path d="M0 0a5 5 0 0 0-5-5 5 5 0 0 0-5 5 5 5 0 0 0 5 5 5 5 0 0 0 5-5" style="fill:#e6e6e6;fill-opacity:1;fill-rule:nonzero;stroke:none" transform="translate(227 86)"/><path d="M0 0c-1.1 0-2 .9-2 2v4c0 1.1.9 2 2 2s2-.9 2-2V2c0-1.1-.9-2-2-2" style="fill:#3b96cc;fill-opacity:1;fill-rule:nonzero;stroke:none" transform="translate(42 124)"/><path d="M0 0c-1.1 0-2 .9-2 2v4c0 1.1.9 2 2 2s2-.9 2-2V2c0-1.1-.9-2-2-2" style="fill:#b3b3b3;fill-opacity:1;fill-rule:nonzero;stroke:none" transform="translate(34 124)"/><path d="M0 0c-1.1 0-2 .9-2 2v4c0 1.1.9 2 2 2s2-.9 2-2V2c0-1.1-.9-2-2-2" style="fill:#b3b3b3;fill-opacity:1;fill-rule:nonzero;stroke:none" transform="translate(26 124)"/></g></svg>