<svg xmlns="http://www.w3.org/2000/svg" xml:space="preserve" width="328.693" height="330.667" viewBox="0 0 328.693 330.667"><defs><clipPath id="a" clipPathUnits="userSpaceOnUse"><path d="M0 256h256V0H0Z"/></clipPath><clipPath id="b" clipPathUnits="userSpaceOnUse"><path d="M4.74 252h246.52V4H4.74Z"/></clipPath><clipPath id="c" clipPathUnits="userSpaceOnUse"><path d="M0 256h256V0H0Z"/></clipPath></defs><g clip-path="url(#a)" transform="matrix(1.33333 0 0 -1.33333 -6.32 336)"><g clip-path="url(#b)" style="opacity:.5"><path d="m0 0-1.101 29.712a9 9 0 0 1-.273 1.907c.178.889.221 1.807.121 2.724-.42 3.856-2.912 16.813-17.349 21.625-5.992 1.998-16.385 3.347-30.905 4.012-1.722.552-3.181 1.065-4.344 1.528a40.6 40.6 0 0 1-15.06 2.871h-.22v26.079c3.743 7.202 6.061 9.722 6.834 10.44l.137.053 20 8a8 8 0 0 1 4.619 4.898l4 12a8.002 8.002 0 0 1-6.274 10.421l-1.316.219v.961a8 8 0 0 1 4 6.929v8a8 8 0 0 1-7.387 7.976l-18.715 1.44-.241.241a8 8 0 0 1-5.657 2.343h-18.883c-5.819 5.121-13.331 8-21.117 8h-24c-7.786 0-15.298-2.879-21.117-8h-18.883a8 8 0 0 1-5.657-2.343l-.24-.241-18.717-1.44a8 8 0 0 1-7.386-7.976v-8a8 8 0 0 1 4-6.929v-.961l-1.315-.219a7.998 7.998 0 0 1-6.274-10.421l4-12a8 8 0 0 1 4.618-4.898l20-8 .137-.053c.774-.718 3.091-3.238 6.834-10.44V64.379h-.22a40.6 40.6 0 0 1-15.06-2.871c-1.163-.463-2.622-.976-4.344-1.528-14.519-.665-24.913-2.014-30.906-4.012-14.436-4.812-16.928-17.769-17.348-21.625a9 9 0 0 1 .121-2.724 9 9 0 0 1-.273-1.907L-242.261 0c-3.229-25.393-6.153-49.324 18.159-59.049q.331-.133.672-.234l36.173-10.853a57.4 57.4 0 0 1 9.519-1.989c8.655-1.052 31.498-3.496 56.607-3.496 25.11 0 47.951 2.444 56.607 3.496a57.4 57.4 0 0 1 9.519 1.989l36.173 10.853q.342.101.672.234C6.152-49.324 3.229-25.393 0 0" style="fill:#fff;fill-opacity:1;fill-rule:nonzero;stroke:none" transform="translate(249.13 79.621)"/></g></g><path d="M172 128H84v44h88z" style="fill:#262626;fill-opacity:1;fill-rule:nonzero;stroke:none" transform="matrix(1.33333 0 0 -1.33333 -6.32 336)"/><g clip-path="url(#c)" transform="matrix(1.33333 0 0 -1.33333 -6.32 336)"><path d="m0 0-10 12 1.964 53.037c.02.537.462.963 1 .963H0Z" style="fill:#999;fill-opacity:1;fill-rule:nonzero;stroke:none" transform="translate(24 44)"/><path d="m0 0 10 12-1.964 53.037c-.02.537-.462.963-1 .963H0Z" style="fill:#999;fill-opacity:1;fill-rule:nonzero;stroke:none" transform="translate(232 44)"/><path d="M0 0s-32 0-44-4c-9.788-3.263-11.592-11.848-11.925-14.902A.997.997 0 0 1-54.929-20H0Z" style="fill:#999;fill-opacity:1;fill-rule:nonzero;stroke:none" transform="translate(72 132)"/><path d="M0 0s32 0 44-4c9.788-3.263 11.593-11.848 11.925-14.902A.997.997 0 0 0 54.93-20H0Z" style="fill:#999;fill-opacity:1;fill-rule:nonzero;stroke:none" transform="translate(184 132)"/><path d="M0 0c-1.664 13.311-2.636 21.776-3.203 27.125-.526 4.949-4.315 8.903-9.231 9.681-10.656 1.684-27.202 5.691-35.243 8.889A32.7 32.7 0 0 1-59.78 48h-104.44c-4.148 0-8.249-.771-12.103-2.305-8.041-3.198-24.587-7.205-35.243-8.889-4.916-.778-8.706-4.732-9.231-9.681-.567-5.349-1.539-13.814-3.203-27.125-4-32-8-52 12-60l36.172-10.852a49 49 0 0 1 8.185-1.711C-158.57-73.664-136.453-76-112-76s46.57 2.336 55.643 3.437c2.774.337 5.507.909 8.184 1.711L-12-60C8-52 4-32 0 0" style="fill:#354f9f;fill-opacity:1;fill-rule:nonzero;stroke:none" transform="translate(240 88)"/><path d="M0 0s-2 64-2 72-6 8-6 8l-12.731.979a512 512 0 0 1-78.538 0L-112 80s-6 0-6-8-2-72-2-72-4-16 60-16S0 0 0 0" style="fill:#191919;fill-opacity:1;fill-rule:nonzero;stroke:none" transform="translate(188 40)"/><path d="M180 48H76v64h104z" style="fill:gray;fill-opacity:1;fill-rule:nonzero;stroke:none"/><path d="M0 0a8 8 0 1 0-16 0A8 8 0 0 0 0 0" style="fill:#999;fill-opacity:1;fill-rule:nonzero;stroke:none" transform="translate(212 80)"/><path d="M0 0a8 8 0 1 0-16 0A8 8 0 0 0 0 0" style="fill:#999;fill-opacity:1;fill-rule:nonzero;stroke:none" transform="translate(232 88)"/><path d="m0 0-24-8v2L0 2Z" style="fill:#263979;fill-opacity:1;fill-rule:nonzero;stroke:none" transform="translate(220 60)"/><path d="m0 0-24-8v2L0 2Z" style="fill:#263979;fill-opacity:1;fill-rule:nonzero;stroke:none" transform="translate(220 56)"/><path d="m0 0-24-8v2L0 2Z" style="fill:#263979;fill-opacity:1;fill-rule:nonzero;stroke:none" transform="translate(220 52)"/><path d="m0 0-24-8v2L0 2Z" style="fill:#263979;fill-opacity:1;fill-rule:nonzero;stroke:none" transform="translate(220 48)"/><path d="m0 0-24-8v2L0 2Z" style="fill:#263979;fill-opacity:1;fill-rule:nonzero;stroke:none" transform="translate(220 44)"/><path d="m0 0-20.658 3.443A4 4 0 0 0-24 7.389a3.906 3.906 0 0 0 4.549 3.853L0 8Z" style="fill:#263979;fill-opacity:1;fill-rule:nonzero;stroke:none" transform="translate(60 48)"/><path d="M0 0a4 4 0 1 0-8 0 4 4 0 0 0 8 0" style="fill:#999;fill-opacity:1;fill-rule:nonzero;stroke:none" transform="translate(64 52)"/><path d="m0 0-20.658 3.443A4 4 0 0 0-24 7.389a3.906 3.906 0 0 0 4.549 3.853L0 8Z" style="fill:#263979;fill-opacity:1;fill-rule:nonzero;stroke:none" transform="translate(60 36)"/><path d="M0 0a4 4 0 1 0-8 0 4 4 0 0 0 8 0" style="fill:#999;fill-opacity:1;fill-rule:nonzero;stroke:none" transform="translate(64 40)"/><path d="M0 0a2 2 0 1 0-4.001.001A2 2 0 0 0 0 0" style="fill:#0f0;fill-opacity:1;fill-rule:nonzero;stroke:none" transform="translate(204 114)"/><path d="M0 0h-8v8a2 2 0 0 1-2 2h-8a2 2 0 0 1-2-2V0h-8a2 2 0 0 1-2-2v-8a2 2 0 0 1 2-2h8v-8a2 2 0 0 1 2-2h8a2 2 0 0 1 2 2v8h8a2 2 0 0 1 2 2v8a2 2 0 0 1-2 2" style="fill:#999;fill-opacity:1;fill-rule:nonzero;stroke:none" transform="translate(54 90)"/><path d="M0 0a4 4 0 1 0-8 0 4 4 0 0 0 8 0" style="fill:#8c8c8c;fill-opacity:1;fill-rule:nonzero;stroke:none" transform="translate(44 84)"/><path d="M0 0h4.764a1 1 0 0 1 .894 1.447L3.276 6.211a1 1 0 0 1-1.789 0L-.895 1.447A1 1 0 0 1 0 0" style="fill:#8c8c8c;fill-opacity:1;fill-rule:nonzero;stroke:none" transform="translate(37.618 92)"/><path d="M0 0h-4.764a1 1 0 0 1-.894-1.447l2.382-4.764a1 1 0 0 1 1.789 0L.895-1.447A1 1 0 0 1 0 0" style="fill:#8c8c8c;fill-opacity:1;fill-rule:nonzero;stroke:none" transform="translate(42.382 76)"/><path d="M0 0v-4.764a1 1 0 0 1 1.447-.894l4.764 2.382a1 1 0 0 1 0 1.789L1.447.895A1 1 0 0 1 0 0" style="fill:#8c8c8c;fill-opacity:1;fill-rule:nonzero;stroke:none" transform="translate(48 86.382)"/><path d="m0 0 4.764-2.382a1 1 0 0 1 1.447.895v4.763a1 1 0 0 1-1.447.895" style="fill:#8c8c8c;fill-opacity:1;fill-rule:nonzero;stroke:none" transform="translate(25.79 83.106)"/><path d="M0 0s-12 4-20 20-12 16-12 16l-20 8-4 12 24 4 20-8L0 36z" style="fill:#191919;fill-opacity:1;fill-rule:nonzero;stroke:none" transform="translate(104 152)"/><path d="M200 208H56v16h144z" style="fill:#191919;fill-opacity:1;fill-rule:nonzero;stroke:none"/><path d="M0 0s-12 4-20 20-12 16-12 16l-20 8v4l20 4h24L4 36Z" style="fill:#262626;fill-opacity:1;fill-rule:nonzero;stroke:none" transform="translate(104 160)"/><path d="M0 0s12 4 20 20 12 16 12 16l20 8 4 12-24 4-20-8L0 36Z" style="fill:#191919;fill-opacity:1;fill-rule:nonzero;stroke:none" transform="translate(152 152)"/><path d="M0 0s12 4 20 20 12 16 12 16l20 8v4l-20 4H8L-4 36Z" style="fill:#262626;fill-opacity:1;fill-rule:nonzero;stroke:none" transform="translate(152 160)"/><path d="m0 0 4 4h28l-4-4Z" style="fill:#191919;fill-opacity:1;fill-rule:nonzero;stroke:none" transform="translate(72 232)"/><path d="M0 0v-8s12-4 16-4h28l8 4V4Z" style="fill:#262626;fill-opacity:1;fill-rule:nonzero;stroke:none" transform="translate(52 232)"/><path d="m0 0-4 4h-28l4-4z" style="fill:#191919;fill-opacity:1;fill-rule:nonzero;stroke:none" transform="translate(184 232)"/><path d="M0 0v-8s-12-4-16-4h-28l-8 4V4Z" style="fill:#262626;fill-opacity:1;fill-rule:nonzero;stroke:none" transform="translate(204 232)"/><path d="M0 0h-16c-15.4 0-28 12.6-28 28 0 13.2 10.8 24 24 24H4c13.2 0 24-10.8 24-24C28 12.6 15.4 0 0 0" style="fill:#404040;fill-opacity:1;fill-rule:nonzero;stroke:none" transform="translate(136 192)"/><path d="M0 0h-40a4 4 0 0 0-4 4v56a4 4 0 0 0 4 4H0a4 4 0 0 0 4-4V4a4 4 0 0 0-4-4" style="fill:#333;fill-opacity:1;fill-rule:nonzero;stroke:none" transform="translate(148 136)"/><path d="M0 0h-32a4 4 0 0 0-4 4v24a4 4 0 0 0 4 4H0a4 4 0 0 0 4-4V4a4 4 0 0 0-4-4" style="fill:#262626;fill-opacity:1;fill-rule:nonzero;stroke:none" transform="translate(144 160)"/><path d="M168 212H88v8h80z" style="fill:#191919;fill-opacity:1;fill-rule:nonzero;stroke:none"/><path d="M200 214H56v4h144z" style="fill:#262626;fill-opacity:1;fill-rule:nonzero;stroke:none"/><path d="M164 214H92v4h72z" style="fill:#404040;fill-opacity:1;fill-rule:nonzero;stroke:none"/></g></svg>