<?xml version="1.0" encoding="UTF-8" standalone="no"?>
<svg
   xmlns:dc="http://purl.org/dc/elements/1.1/"
   xmlns:cc="http://creativecommons.org/ns#"
   xmlns:rdf="http://www.w3.org/1999/02/22-rdf-syntax-ns#"
   xmlns:svg="http://www.w3.org/2000/svg"
   xmlns="http://www.w3.org/2000/svg"
   viewBox="0 0 328.69342 330.66653"
   height="330.66653"
   width="328.69342"
   xml:space="preserve"
   id="svg2"
   version="1.1"><metadata
     id="metadata8"><rdf:RDF><cc:Work
         rdf:about=""><dc:format>image/svg+xml</dc:format><dc:type
           rdf:resource="http://purl.org/dc/dcmitype/StillImage" /></cc:Work></rdf:RDF></metadata><defs
     id="defs6"><clipPath
       id="clipPath18"
       clipPathUnits="userSpaceOnUse"><path
         id="path16"
         d="M 0,256 H 256 V 0 H 0 Z" /></clipPath><clipPath
       id="clipPath26"
       clipPathUnits="userSpaceOnUse"><path
         id="path24"
         d="M 4.73978,252 H 251.26 V 4 H 4.73978 Z" /></clipPath><clipPath
       id="clipPath44"
       clipPathUnits="userSpaceOnUse"><path
         id="path42"
         d="M 0,256 H 256 V 0 H 0 Z" /></clipPath></defs><g
     transform="matrix(1.3333333,0,0,-1.3333333,-6.3198952,335.99999)"
     id="g10"><g
       id="g12"><g
         clip-path="url(#clipPath18)"
         id="g14"><g
           id="g20"><g
             id="g22" /><g
             id="g34"><g
               style="opacity:0.5"
               id="g32"
               clip-path="url(#clipPath26)"><g
                 id="g30"
                 transform="translate(249.1309,79.6211)"><path
                   id="path28"
                   style="fill:#ffffff;fill-opacity:1;fill-rule:nonzero;stroke:none"
                   d="m 0,0 -1.101,29.712 c -0.024,0.657 -0.118,1.296 -0.273,1.907 0.178,0.889 0.221,1.807 0.121,2.724 -0.42,3.856 -2.912,16.813 -17.349,21.625 -5.992,1.998 -16.385,3.347 -30.905,4.012 -1.722,0.552 -3.181,1.065 -4.344,1.528 -4.789,1.905 -9.856,2.871 -15.06,2.871 h -0.22 v 26.079 c 3.743,7.202 6.061,9.722 6.834,10.44 0.046,0.017 0.092,0.035 0.137,0.053 l 20,8 c 2.185,0.874 3.875,2.666 4.619,4.898 l 4,12 c 0.739,2.22 0.471,4.652 -0.736,6.656 -1.207,2.005 -3.231,3.381 -5.538,3.765 l -1.316,0.219 v 0.961 c 2.441,1.408 4,4.032 4,6.929 v 8 c 0,4.18 -3.219,7.656 -7.387,7.976 l -18.715,1.44 -0.241,0.241 c -1.501,1.5 -3.535,2.343 -5.657,2.343 h -18.883 c -5.819,5.121 -13.331,8 -21.117,8 h -24 c -7.786,0 -15.298,-2.879 -21.117,-8 h -18.883 c -2.121,0 -4.157,-0.843 -5.657,-2.343 l -0.24,-0.241 -18.717,-1.44 c -4.168,-0.32 -7.386,-3.796 -7.386,-7.976 v -8 c 0,-2.897 1.56,-5.521 4,-6.929 v -0.961 l -1.315,-0.219 c -2.308,-0.384 -4.332,-1.76 -5.538,-3.765 -1.207,-2.004 -1.476,-4.436 -0.736,-6.656 l 4,-12 c 0.744,-2.232 2.433,-4.024 4.618,-4.898 l 20,-8 c 0.045,-0.018 0.091,-0.036 0.137,-0.053 0.774,-0.718 3.091,-3.238 6.834,-10.44 V 64.379 h -0.22 c -5.204,0 -10.271,-0.966 -15.06,-2.871 -1.163,-0.463 -2.622,-0.976 -4.344,-1.528 -14.519,-0.665 -24.913,-2.014 -30.906,-4.012 -14.436,-4.812 -16.928,-17.769 -17.348,-21.625 -0.099,-0.917 -0.056,-1.835 0.121,-2.724 -0.155,-0.611 -0.249,-1.25 -0.273,-1.907 L -242.261,0 c -3.229,-25.393 -6.153,-49.324 18.159,-59.049 0.221,-0.088 0.445,-0.167 0.672,-0.234 l 36.173,-10.853 c 3.098,-0.928 6.301,-1.598 9.519,-1.989 8.655,-1.052 31.498,-3.496 56.607,-3.496 25.11,0 47.951,2.444 56.607,3.496 3.218,0.391 6.42,1.061 9.519,1.989 l 36.173,10.853 c 0.228,0.067 0.452,0.146 0.672,0.234 C 6.152,-49.324 3.229,-25.393 0,0" /></g></g></g></g></g></g><path
       id="path36"
       style="fill:#262626;fill-opacity:1;fill-rule:nonzero;stroke:none"
       d="M 172,128 H 84 v 44 h 88 z" /><g
       id="g38"><g
         clip-path="url(#clipPath44)"
         id="g40"><g
           transform="translate(24,44)"
           id="g46"><path
             id="path48"
             style="fill:#999999;fill-opacity:1;fill-rule:nonzero;stroke:none"
             d="m 0,0 -10,12 1.964,53.037 c 0.02,0.537 0.462,0.963 1,0.963 H 0 Z" /></g><g
           transform="translate(232,44)"
           id="g50"><path
             id="path52"
             style="fill:#999999;fill-opacity:1;fill-rule:nonzero;stroke:none"
             d="M 0,0 10,12 8.036,65.037 C 8.016,65.574 7.574,66 7.036,66 H 0 Z" /></g><g
           transform="translate(72,132)"
           id="g54"><path
             id="path56"
             style="fill:#999999;fill-opacity:1;fill-rule:nonzero;stroke:none"
             d="M 0,0 C 0,0 -32,0 -44,-4 -53.788,-7.263 -55.592,-15.848 -55.925,-18.902 -55.989,-19.49 -55.521,-20 -54.929,-20 H 0 Z" /></g><g
           transform="translate(184,132)"
           id="g58"><path
             id="path60"
             style="fill:#999999;fill-opacity:1;fill-rule:nonzero;stroke:none"
             d="M 0,0 C 0,0 32,0 44,-4 53.788,-7.263 55.593,-15.848 55.925,-18.902 55.989,-19.49 55.521,-20 54.93,-20 H 0 Z" /></g><g
           transform="translate(240,88)"
           id="g62"><path
             id="path64"
             style="fill:#354f9f;fill-opacity:1;fill-rule:nonzero;stroke:none"
             d="m 0,0 c -1.664,13.311 -2.636,21.776 -3.203,27.125 -0.526,4.949 -4.315,8.903 -9.231,9.681 -10.656,1.684 -27.202,5.691 -35.243,8.889 C -51.531,47.229 -55.632,48 -59.78,48 H -112 -164.22 c -4.148,0 -8.249,-0.771 -12.103,-2.305 -8.041,-3.198 -24.587,-7.205 -35.243,-8.889 -4.916,-0.778 -8.706,-4.732 -9.231,-9.681 C -221.364,21.776 -222.336,13.311 -224,0 c -4,-32 -8,-52 12,-60 l 36.172,-10.852 c 2.677,-0.802 5.411,-1.374 8.185,-1.711 9.073,-1.101 31.19,-3.437 55.643,-3.437 24.453,0 46.57,2.336 55.643,3.437 2.774,0.337 5.507,0.909 8.184,1.711 L -12,-60 C 8,-52 4,-32 0,0" /></g><g
           transform="translate(188,40)"
           id="g66"><path
             id="path68"
             style="fill:#191919;fill-opacity:1;fill-rule:nonzero;stroke:none"
             d="m 0,0 c 0,0 -2,64 -2,72 0,8 -6,8 -6,8 l -12.731,0.979 c -26.141,2.011 -52.397,2.011 -78.538,0 L -112,80 c 0,0 -6,0 -6,-8 0,-8 -2,-72 -2,-72 0,0 -4,-16 60,-16 C 4,-16 0,0 0,0" /></g><path
           id="path70"
           style="fill:#808080;fill-opacity:1;fill-rule:nonzero;stroke:none"
           d="M 180,48 H 76 v 64 h 104 z" /><g
           transform="translate(212,80)"
           id="g72"><path
             id="path74"
             style="fill:#999999;fill-opacity:1;fill-rule:nonzero;stroke:none"
             d="m 0,0 c 0,-4.418 -3.582,-8 -8,-8 -4.418,0 -8,3.582 -8,8 0,4.418 3.582,8 8,8 4.418,0 8,-3.582 8,-8" /></g><g
           transform="translate(232,88)"
           id="g76"><path
             id="path78"
             style="fill:#999999;fill-opacity:1;fill-rule:nonzero;stroke:none"
             d="m 0,0 c 0,-4.418 -3.582,-8 -8,-8 -4.418,0 -8,3.582 -8,8 0,4.418 3.582,8 8,8 4.418,0 8,-3.582 8,-8" /></g><g
           transform="translate(220,60)"
           id="g80"><path
             id="path82"
             style="fill:#263979;fill-opacity:1;fill-rule:nonzero;stroke:none"
             d="m 0,0 -24,-8 v 2 L 0,2 Z" /></g><g
           transform="translate(220,56)"
           id="g84"><path
             id="path86"
             style="fill:#263979;fill-opacity:1;fill-rule:nonzero;stroke:none"
             d="m 0,0 -24,-8 v 2 L 0,2 Z" /></g><g
           transform="translate(220,52)"
           id="g88"><path
             id="path90"
             style="fill:#263979;fill-opacity:1;fill-rule:nonzero;stroke:none"
             d="m 0,0 -24,-8 v 2 L 0,2 Z" /></g><g
           transform="translate(220,48)"
           id="g92"><path
             id="path94"
             style="fill:#263979;fill-opacity:1;fill-rule:nonzero;stroke:none"
             d="m 0,0 -24,-8 v 2 L 0,2 Z" /></g><g
           transform="translate(220,44)"
           id="g96"><path
             id="path98"
             style="fill:#263979;fill-opacity:1;fill-rule:nonzero;stroke:none"
             d="m 0,0 -24,-8 v 2 L 0,2 Z" /></g><g
           transform="translate(60,48)"
           id="g100"><path
             id="path102"
             style="fill:#263979;fill-opacity:1;fill-rule:nonzero;stroke:none"
             d="M 0,0 -20.658,3.443 C -22.586,3.765 -24,5.434 -24,7.389 c 0,2.414 2.167,4.25 4.549,3.853 L 0,8 Z" /></g><g
           transform="translate(64,52)"
           id="g104"><path
             id="path106"
             style="fill:#999999;fill-opacity:1;fill-rule:nonzero;stroke:none"
             d="m 0,0 c 0,-2.209 -1.791,-4 -4,-4 -2.209,0 -4,1.791 -4,4 0,2.209 1.791,4 4,4 2.209,0 4,-1.791 4,-4" /></g><g
           transform="translate(60,36)"
           id="g108"><path
             id="path110"
             style="fill:#263979;fill-opacity:1;fill-rule:nonzero;stroke:none"
             d="M 0,0 -20.658,3.443 C -22.586,3.765 -24,5.434 -24,7.389 c 0,2.414 2.167,4.25 4.549,3.853 L 0,8 Z" /></g><g
           transform="translate(64,40)"
           id="g112"><path
             id="path114"
             style="fill:#999999;fill-opacity:1;fill-rule:nonzero;stroke:none"
             d="m 0,0 c 0,-2.209 -1.791,-4 -4,-4 -2.209,0 -4,1.791 -4,4 0,2.209 1.791,4 4,4 2.209,0 4,-1.791 4,-4" /></g><g
           transform="translate(72,116)"
           id="g116"><path
             id="path118"
             style="fill:#191919;fill-opacity:1;fill-rule:nonzero;stroke:none"
             d="M 0,0 Z" /></g><g
           transform="translate(204,114)"
           id="g120"><path
             id="path122"
             style="fill:#00ff00;fill-opacity:1;fill-rule:nonzero;stroke:none"
             d="m 0,0 c 0,-1.104 -0.896,-2 -2,-2 -1.104,0 -2,0.896 -2,2 0,1.104 0.896,2 2,2 1.104,0 2,-0.896 2,-2" /></g><g
           transform="translate(54,90)"
           id="g124"><path
             id="path126"
             style="fill:#999999;fill-opacity:1;fill-rule:nonzero;stroke:none"
             d="m 0,0 h -8 v 8 c 0,1.104 -0.896,2 -2,2 h -8 c -1.104,0 -2,-0.896 -2,-2 V 0 h -8 c -1.104,0 -2,-0.896 -2,-2 v -8 c 0,-1.104 0.896,-2 2,-2 h 8 v -8 c 0,-1.104 0.896,-2 2,-2 h 8 c 1.104,0 2,0.896 2,2 v 8 h 8 c 1.104,0 2,0.896 2,2 v 8 C 2,-0.896 1.104,0 0,0" /></g><g
           transform="translate(44,84)"
           id="g128"><path
             id="path130"
             style="fill:#8c8c8c;fill-opacity:1;fill-rule:nonzero;stroke:none"
             d="m 0,0 c 0,-2.209 -1.791,-4 -4,-4 -2.209,0 -4,1.791 -4,4 0,2.209 1.791,4 4,4 2.209,0 4,-1.791 4,-4" /></g><g
           transform="translate(37.6182,92)"
           id="g132"><path
             id="path134"
             style="fill:#8c8c8c;fill-opacity:1;fill-rule:nonzero;stroke:none"
             d="M 0,0 H 4.764 C 5.507,0 5.991,0.782 5.658,1.447 L 3.276,6.211 c -0.368,0.737 -1.42,0.737 -1.789,0 L -0.895,1.447 C -1.227,0.782 -0.744,0 0,0" /></g><g
           transform="translate(42.3818,76)"
           id="g136"><path
             id="path138"
             style="fill:#8c8c8c;fill-opacity:1;fill-rule:nonzero;stroke:none"
             d="m 0,0 h -4.764 c -0.743,0 -1.227,-0.782 -0.894,-1.447 l 2.382,-4.764 c 0.368,-0.737 1.42,-0.737 1.789,0 l 2.382,4.764 C 1.227,-0.782 0.744,0 0,0" /></g><g
           transform="translate(48,86.3818)"
           id="g140"><path
             id="path142"
             style="fill:#8c8c8c;fill-opacity:1;fill-rule:nonzero;stroke:none"
             d="M 0,0 V -4.764 C 0,-5.507 0.782,-5.99 1.447,-5.658 l 4.764,2.382 c 0.737,0.368 0.737,1.421 0,1.789 L 1.447,0.895 C 0.782,1.227 0,0.743 0,0" /></g><g
           transform="translate(25.7891,83.1055)"
           id="g144"><path
             id="path146"
             style="fill:#8c8c8c;fill-opacity:1;fill-rule:nonzero;stroke:none"
             d="m 0,0 4.764,-2.382 c 0.665,-0.332 1.447,0.152 1.447,0.895 v 4.763 c 0,0.744 -0.782,1.227 -1.447,0.895" /></g><g
           transform="translate(104,152)"
           id="g148"><path
             id="path150"
             style="fill:#191919;fill-opacity:1;fill-rule:nonzero;stroke:none"
             d="m 0,0 c 0,0 -12,4 -20,20 -8,16 -12,16 -12,16 l -20,8 -4,12 24,4 20,-8 12,-16 z" /></g><path
           id="path152"
           style="fill:#191919;fill-opacity:1;fill-rule:nonzero;stroke:none"
           d="M 200,208 H 56 v 16 h 144 z" /><g
           transform="translate(104,160)"
           id="g154"><path
             id="path156"
             style="fill:#262626;fill-opacity:1;fill-rule:nonzero;stroke:none"
             d="m 0,0 c 0,0 -12,4 -20,20 -8,16 -12,16 -12,16 l -20,8 v 4 l 20,4 H -8 L 4,36 Z" /></g><g
           transform="translate(152,152)"
           id="g158"><path
             id="path160"
             style="fill:#191919;fill-opacity:1;fill-rule:nonzero;stroke:none"
             d="m 0,0 c 0,0 12,4 20,20 8,16 12,16 12,16 L 52,44 56,56 32,60 12,52 0,36 Z" /></g><g
           transform="translate(152,160)"
           id="g162"><path
             id="path164"
             style="fill:#262626;fill-opacity:1;fill-rule:nonzero;stroke:none"
             d="m 0,0 c 0,0 12,4 20,20 8,16 12,16 12,16 l 20,8 v 4 L 32,52 H 8 L -4,36 Z" /></g><g
           transform="translate(72,232)"
           id="g166"><path
             id="path168"
             style="fill:#191919;fill-opacity:1;fill-rule:nonzero;stroke:none"
             d="M 0,0 4,4 H 32 L 28,0 Z" /></g><g
           transform="translate(52,232)"
           id="g170"><path
             id="path172"
             style="fill:#262626;fill-opacity:1;fill-rule:nonzero;stroke:none"
             d="m 0,0 v -8 c 0,0 12,-4 16,-4 h 28 l 8,4 V 4 Z" /></g><g
           transform="translate(184,232)"
           id="g174"><path
             id="path176"
             style="fill:#191919;fill-opacity:1;fill-rule:nonzero;stroke:none"
             d="m 0,0 -4,4 h -28 l 4,-4 z" /></g><g
           transform="translate(204,232)"
           id="g178"><path
             id="path180"
             style="fill:#262626;fill-opacity:1;fill-rule:nonzero;stroke:none"
             d="m 0,0 v -8 c 0,0 -12,-4 -16,-4 h -28 l -8,4 V 4 Z" /></g><g
           transform="translate(136,192)"
           id="g182"><path
             id="path184"
             style="fill:#404040;fill-opacity:1;fill-rule:nonzero;stroke:none"
             d="m 0,0 h -16 c -15.4,0 -28,12.6 -28,28 0,13.2 10.8,24 24,24 H 4 C 17.2,52 28,41.2 28,28 28,12.6 15.4,0 0,0" /></g><g
           transform="translate(148,136)"
           id="g186"><path
             id="path188"
             style="fill:#333333;fill-opacity:1;fill-rule:nonzero;stroke:none"
             d="m 0,0 h -40 c -2.209,0 -4,1.791 -4,4 v 56 c 0,2.209 1.791,4 4,4 H 0 c 2.209,0 4,-1.791 4,-4 V 4 C 4,1.791 2.209,0 0,0" /></g><g
           transform="translate(144,160)"
           id="g190"><path
             id="path192"
             style="fill:#262626;fill-opacity:1;fill-rule:nonzero;stroke:none"
             d="m 0,0 h -32 c -2.209,0 -4,1.791 -4,4 v 24 c 0,2.209 1.791,4 4,4 H 0 c 2.209,0 4,-1.791 4,-4 V 4 C 4,1.791 2.209,0 0,0" /></g><path
           id="path194"
           style="fill:#191919;fill-opacity:1;fill-rule:nonzero;stroke:none"
           d="M 168,212 H 88 v 8 h 80 z" /><path
           id="path196"
           style="fill:#262626;fill-opacity:1;fill-rule:nonzero;stroke:none"
           d="M 200,214 H 56 v 4 h 144 z" /><path
           id="path198"
           style="fill:#404040;fill-opacity:1;fill-rule:nonzero;stroke:none"
           d="M 164,214 H 92 v 4 h 72 z" /></g></g></g></svg>