<svg xmlns="http://www.w3.org/2000/svg" xml:space="preserve" viewBox="0 0 256 256"><path d="M240.551 44h-67.614A11.97 11.97 0 0 0 164 40H92a11.97 11.97 0 0 0-8.937 4H15.449C9.136 44 4 49.136 4 55.449V204c0 6.617 5.383 12 12 12h224c6.617 0 12-5.383 12-12V55.449C252 49.136 246.864 44 240.551 44" style="opacity:.5;fill:#fff"/><path d="M240.551 168H15.449A3.45 3.45 0 0 1 12 164.551V55.449A3.45 3.45 0 0 1 15.449 52H240.55a3.45 3.45 0 0 1 3.449 3.449V164.55a3.45 3.45 0 0 1-3.448 3.45" style="fill:#d9d4bc"/><path d="M164 48H92a4 4 0 0 0-4 4v104a4 4 0 0 1-4 4H16a4 4 0 0 0-4 4v40a4 4 0 0 0 4 4h224a4 4 0 0 0 4-4v-40a4 4 0 0 0-4-4h-68a4 4 0 0 1-4-4V52a4 4 0 0 0-4-4" style="fill:#c4c0aa"/><path d="M164 50c1.103 0 2 .897 2 2v104c0 3.308 2.692 6 6 6h68c1.103 0 2 .897 2 2v40c0 1.103-.897 2-2 2H16c-1.103 0-2-.897-2-2v-40c0-1.103.897-2 2-2h68c3.308 0 6-2.692 6-6V52c0-1.103.897-2 2-2h68" style="fill:#262626"/><circle cx="50" cy="90" r="18" style="fill:#262626"/><circle cx="50" cy="90" r="10" style="fill:#333"/><circle cx="50" cy="90" r="6" style="fill:#404040"/><circle cx="50" cy="130" r="18" style="fill:#262626"/><circle cx="50" cy="130" r="10" style="fill:#333"/><circle cx="50" cy="130" r="6" style="fill:#404040"/><circle cx="206" cy="90" r="18" style="fill:#262626"/><circle cx="206" cy="90" r="10" style="fill:#333"/><circle cx="206" cy="90" r="6" style="fill:#404040"/><circle cx="206" cy="130" r="18" style="fill:#262626"/><circle cx="206" cy="130" r="10" style="fill:#333"/><circle cx="206" cy="130" r="6" style="fill:#404040"/><path d="M100 68h56v12h-56z" style="fill:#d9d4bc"/><circle cx="128" cy="122" r="2" style="fill:#d9d9d9"/><path d="M108 140h8v4h-8zm16 0h8v4h-8zm16 0h8v4h-8z" style="fill:#d9d9d9"/><circle cx="128" cy="168" r="4" style="fill:#1a1a1a"/><circle cx="128" cy="168" r="2" style="fill:#0d0d0d"/><path d="M112 180h32v12h-32z" style="fill:#1a1a1a"/><path d="M134 188h-12a2 2 0 1 1 0-4h12a2 2 0 1 1 0 4" style="fill:#262626"/><circle cx="134" cy="186" r="2" style="fill:#4d4d4d"/><path d="M84 180h16v8H84zm-24 0h16v8H60zm120 0h16v8h-16zm-24 0h16v8h-16z" style="fill:#e6e6e6"/><circle cx="40" cy="184" r="4" style="fill:gray"/><circle cx="40" cy="184" r="2" style="fill:#999"/><circle cx="216" cy="184" r="4" style="fill:gray"/><circle cx="216" cy="184" r="2" style="fill:#999"/><path d="M100 73h56v2h-56z" style="fill:#c4c0aa"/></svg>