<svg xmlns="http://www.w3.org/2000/svg" xml:space="preserve" width="330.667" height="224" viewBox="0 0 330.667 224"><defs><clipPath id="a" clipPathUnits="userSpaceOnUse"><path d="M0 256h256V0H0Z"/></clipPath><clipPath id="b" clipPathUnits="userSpaceOnUse"><path d="M4 212h248V44H4Z"/></clipPath></defs><g clip-path="url(#a)" transform="matrix(1.33333 0 0 -1.33333 -5.333 282.667)"><g clip-path="url(#b)" style="opacity:.5"><path d="M0 0h-228c-5.514 0-10-4.486-10-10v-148c0-5.514 4.486-10 10-10H0c5.514 0 10 4.486 10 10v148C10-4.486 5.514 0 0 0" style="fill:#fff;fill-opacity:1;fill-rule:nonzero;stroke:none" transform="translate(242 212)"/></g><path d="M0 0h-228a2 2 0 0 0-2 2v148a2 2 0 0 0 2 2H0a2 2 0 0 0 2-2V2a2 2 0 0 0-2-2" style="fill:#d9d9d9;fill-opacity:1;fill-rule:nonzero;stroke:none" transform="translate(242 52)"/><path d="M0 0v8h-216v-96H0v20h-8V0Z" style="fill:#262626;fill-opacity:1;fill-rule:nonzero;stroke:none" transform="translate(236 192)"/><path d="M56 112H32v28h24zm180-4h-40v16h40z" style="fill:#191919;fill-opacity:1;fill-rule:nonzero;stroke:none"/><path d="M0 0v-48h60l44 44h112v4z" style="fill:#ccc;fill-opacity:1;fill-rule:nonzero;stroke:none" transform="translate(20 104)"/><path d="M0 0c0-11.046-8.954-20-20-20s-20 8.954-20 20 8.954 20 20 20S0 11.046 0 0" style="fill:#d9d9d9;fill-opacity:1;fill-rule:nonzero;stroke:none" transform="translate(64 80)"/><path d="M0 0c0-8.837-7.164-16-16-16S-32-8.837-32 0s7.164 16 16 16S0 8.837 0 0" style="fill:#262626;fill-opacity:1;fill-rule:nonzero;stroke:none" transform="translate(60 80)"/><path d="M212 88h-12v8h12zm20 0h-12v8h12zm-20 24h-12v8h12zm20 0h-12v8h12zm-20-44h-12v8h12zm20 0h-12v8h12z" style="fill:#404040;fill-opacity:1;fill-rule:nonzero;stroke:none"/><path d="M166 110H78v72h88z" style="fill:#b80000;fill-opacity:1;fill-rule:nonzero;stroke:none"/><path d="M164 112H80v68h84z" style="fill:gray;fill-opacity:1;fill-rule:nonzero;stroke:none"/><path d="M156 116H88v60h68z" style="fill:#485915;fill-opacity:1;fill-rule:nonzero;stroke:none"/><path d="M196 132h-32v-2h32z" style="fill:#b80000;fill-opacity:1;fill-rule:nonzero;stroke:none"/><path d="M0 0h-60v-2H0v-48h-4v-2h6V0z" style="fill:#b80000;fill-opacity:1;fill-rule:nonzero;stroke:none" transform="translate(224 182)"/><path d="M220 136h-30v40h30z" style="fill:#b3b3b3;fill-opacity:1;fill-rule:nonzero;stroke:none"/><path d="M52 128H36v8h16z" style="fill:#404040;fill-opacity:1;fill-rule:nonzero;stroke:none"/><path d="M44 128h-4v8h4z" style="fill:#595959;fill-opacity:1;fill-rule:nonzero;stroke:none"/><path d="M52 116H36v8h16z" style="fill:#404040;fill-opacity:1;fill-rule:nonzero;stroke:none"/><path d="M48 116h-4v8h4z" style="fill:#595959;fill-opacity:1;fill-rule:nonzero;stroke:none"/><path d="M244 128h-12v60h12z" style="fill:#ccc;fill-opacity:1;fill-rule:nonzero;stroke:none"/></g></svg>