<?xml version="1.0" encoding="iso-8859-1"?>
<!-- Generator: Adobe Illustrator 27.8.1, SVG Export Plug-In . SVG Version: 6.00 Build 0)  -->
<svg version="1.1" id="Layer_1" xmlns="http://www.w3.org/2000/svg" xmlns:xlink="http://www.w3.org/1999/xlink" x="0px" y="0px"
	 viewBox="0 0 256 256" style="enable-background:new 0 0 256 256;" xml:space="preserve">
<path style="opacity:0.5;fill:#FFFFFF;" d="M240.551,44h-67.614c-2.199-2.454-5.391-4-8.937-4H92c-3.546,0-6.738,1.546-8.937,4
	H15.449C9.136,44,4,49.136,4,55.449V164v0.551V204c0,6.617,5.383,12,12,12h224c6.617,0,12-5.383,12-12v-39.449V164V55.449
	C252,49.136,246.864,44,240.551,44z"/>
<path style="fill:#D9D4BC;" d="M240.551,168H15.449c-1.905,0-3.449-1.544-3.449-3.449V55.449C12,53.544,13.544,52,15.449,52h225.101
	c1.905,0,3.449,1.544,3.449,3.449v109.101C244,166.456,242.456,168,240.551,168z"/>
<path style="fill:#C4C0AA;" d="M164,48H92c-2.209,0-4,1.791-4,4v104c0,2.209-1.791,4-4,4H16c-2.209,0-4,1.791-4,4v40
	c0,2.209,1.791,4,4,4h224c2.209,0,4-1.791,4-4v-40c0-2.209-1.791-4-4-4h-68c-2.209,0-4-1.791-4-4V52C168,49.791,166.209,48,164,48
	L164,48z"/>
<path style="fill:#262626;" d="M164,50c1.103,0,2,0.897,2,2v104c0,3.308,2.692,6,6,6h68c1.103,0,2,0.897,2,2v40c0,1.103-0.897,2-2,2
	H16c-1.103,0-2-0.897-2-2v-40c0-1.103,0.897-2,2-2h68c3.308,0,6-2.692,6-6V52c0-1.103,0.897-2,2-2h68"/>
<circle style="fill:#262626;" cx="50" cy="90" r="18"/>
<circle style="fill:#333333;" cx="50" cy="90" r="10"/>
<circle style="fill:#404040;" cx="50" cy="90" r="6"/>
<circle style="fill:#262626;" cx="50" cy="130" r="18"/>
<circle style="fill:#333333;" cx="50" cy="130" r="10"/>
<circle style="fill:#404040;" cx="50" cy="130" r="6"/>
<circle style="fill:#262626;" cx="206" cy="90" r="18"/>
<circle style="fill:#333333;" cx="206" cy="90" r="10"/>
<circle style="fill:#404040;" cx="206" cy="90" r="6"/>
<circle style="fill:#262626;" cx="206" cy="130" r="18"/>
<circle style="fill:#333333;" cx="206" cy="130" r="10"/>
<circle style="fill:#404040;" cx="206" cy="130" r="6"/>
<rect x="100" y="68" style="fill:#D9D4BC;" width="56" height="12"/>
<circle style="fill:#D9D9D9;" cx="128" cy="122" r="2"/>
<rect x="108" y="140" style="fill:#D9D9D9;" width="8" height="4"/>
<rect x="124" y="140" style="fill:#D9D9D9;" width="8" height="4"/>
<rect x="140" y="140" style="fill:#D9D9D9;" width="8" height="4"/>
<circle style="fill:#1A1A1A;" cx="128" cy="168" r="4"/>
<circle style="fill:#0D0D0D;" cx="128" cy="168" r="2"/>
<rect x="112" y="180" style="fill:#1A1A1A;" width="32" height="12"/>
<path style="fill:#262626;" d="M134,188h-12c-1.105,0-2-0.895-2-2l0,0c0-1.105,0.895-2,2-2h12c1.105,0,2,0.895,2,2l0,0
	C136,187.105,135.105,188,134,188z"/>
<g>
	<circle style="fill:#4D4D4D;" cx="134" cy="186" r="2"/>
</g>
<rect x="84" y="180" style="fill:#E6E6E6;" width="16" height="8"/>
<rect x="60" y="180" style="fill:#E6E6E6;" width="16" height="8"/>
<rect x="180" y="180" style="fill:#E6E6E6;" width="16" height="8"/>
<rect x="156" y="180" style="fill:#E6E6E6;" width="16" height="8"/>
<circle style="fill:#808080;" cx="40" cy="184" r="4"/>
<circle style="fill:#999999;" cx="40" cy="184" r="2"/>
<circle style="fill:#808080;" cx="216" cy="184" r="4"/>
<circle style="fill:#999999;" cx="216" cy="184" r="2"/>
<rect x="100" y="73" style="fill:#C4C0AA;" width="56" height="2"/>
</svg>
