<?xml version="1.0" encoding="UTF-8" standalone="no"?>
<svg
   xmlns:dc="http://purl.org/dc/elements/1.1/"
   xmlns:cc="http://creativecommons.org/ns#"
   xmlns:rdf="http://www.w3.org/1999/02/22-rdf-syntax-ns#"
   xmlns:svg="http://www.w3.org/2000/svg"
   xmlns="http://www.w3.org/2000/svg"
   viewBox="0 0 330.66665 224"
   height="224"
   width="330.66666"
   xml:space="preserve"
   id="svg2"
   version="1.1"><metadata
     id="metadata8"><rdf:RDF><cc:Work
         rdf:about=""><dc:format>image/svg+xml</dc:format><dc:type
           rdf:resource="http://purl.org/dc/dcmitype/StillImage" /></cc:Work></rdf:RDF></metadata><defs
     id="defs6"><clipPath
       id="clipPath18"
       clipPathUnits="userSpaceOnUse"><path
         id="path16"
         d="M 0,256 H 256 V 0 H 0 Z" /></clipPath><clipPath
       id="clipPath26"
       clipPathUnits="userSpaceOnUse"><path
         id="path24"
         d="M 4,212 H 252 V 44 H 4 Z" /></clipPath></defs><g
     transform="matrix(1.3333333,0,0,-1.3333333,-5.3333332,282.66666)"
     id="g10"><g
       id="g12"><g
         clip-path="url(#clipPath18)"
         id="g14"><g
           id="g20"><g
             id="g22" /><g
             id="g34"><g
               style="opacity:0.5"
               id="g32"
               clip-path="url(#clipPath26)"><g
                 id="g30"
                 transform="translate(242,212)"><path
                   id="path28"
                   style="fill:#ffffff;fill-opacity:1;fill-rule:nonzero;stroke:none"
                   d="m 0,0 h -228 c -5.514,0 -10,-4.486 -10,-10 v -148 c 0,-5.514 4.486,-10 10,-10 H 0 c 5.514,0 10,4.486 10,10 V -10 C 10,-4.486 5.514,0 0,0" /></g></g></g></g><g
           transform="translate(242,52)"
           id="g36"><path
             id="path38"
             style="fill:#d9d9d9;fill-opacity:1;fill-rule:nonzero;stroke:none"
             d="m 0,0 h -228 c -1.104,0 -2,0.896 -2,2 v 148 c 0,1.104 0.896,2 2,2 H 0 c 1.104,0 2,-0.896 2,-2 V 2 C 2,0.896 1.104,0 0,0" /></g><g
           transform="translate(236,192)"
           id="g40"><path
             id="path42"
             style="fill:#262626;fill-opacity:1;fill-rule:nonzero;stroke:none"
             d="m 0,0 v 8 h -8 -8 -200 v -96 h 200 8 8 v 20 H -8 V 0 Z" /></g><path
           id="path44"
           style="fill:#191919;fill-opacity:1;fill-rule:nonzero;stroke:none"
           d="M 56,112 H 32 v 28 h 24 z" /><path
           id="path46"
           style="fill:#191919;fill-opacity:1;fill-rule:nonzero;stroke:none"
           d="m 236,108 h -40 v 16 h 40 z" /><g
           transform="translate(20,104)"
           id="g48"><path
             id="path50"
             style="fill:#cccccc;fill-opacity:1;fill-rule:nonzero;stroke:none"
             d="m 0,0 v -48 h 60 l 44,44 h 112 v 4 z" /></g><g
           transform="translate(64,80)"
           id="g52"><path
             id="path54"
             style="fill:#d9d9d9;fill-opacity:1;fill-rule:nonzero;stroke:none"
             d="m 0,0 c 0,-11.046 -8.954,-20 -20,-20 -11.046,0 -20,8.954 -20,20 0,11.046 8.954,20 20,20 C -8.954,20 0,11.046 0,0" /></g><g
           transform="translate(60,80)"
           id="g56"><path
             id="path58"
             style="fill:#262626;fill-opacity:1;fill-rule:nonzero;stroke:none"
             d="m 0,0 c 0,-8.837 -7.164,-16 -16,-16 -8.836,0 -16,7.163 -16,16 0,8.837 7.164,16 16,16 C -7.164,16 0,8.837 0,0" /></g><path
           id="path60"
           style="fill:#404040;fill-opacity:1;fill-rule:nonzero;stroke:none"
           d="m 212,88 h -12 v 8 h 12 z" /><path
           id="path62"
           style="fill:#404040;fill-opacity:1;fill-rule:nonzero;stroke:none"
           d="m 232,88 h -12 v 8 h 12 z" /><path
           id="path64"
           style="fill:#404040;fill-opacity:1;fill-rule:nonzero;stroke:none"
           d="m 212,112 h -12 v 8 h 12 z" /><path
           id="path66"
           style="fill:#404040;fill-opacity:1;fill-rule:nonzero;stroke:none"
           d="m 232,112 h -12 v 8 h 12 z" /><path
           id="path68"
           style="fill:#404040;fill-opacity:1;fill-rule:nonzero;stroke:none"
           d="m 212,68 h -12 v 8 h 12 z" /><path
           id="path70"
           style="fill:#404040;fill-opacity:1;fill-rule:nonzero;stroke:none"
           d="m 232,68 h -12 v 8 h 12 z" /><path
           id="path72"
           style="fill:#b80000;fill-opacity:1;fill-rule:nonzero;stroke:none"
           d="M 166,110 H 78 v 72 h 88 z" /><path
           id="path74"
           style="fill:#808080;fill-opacity:1;fill-rule:nonzero;stroke:none"
           d="M 164,112 H 80 v 68 h 84 z" /><path
           id="path76"
           style="fill:#485915;fill-opacity:1;fill-rule:nonzero;stroke:none"
           d="M 156,116 H 88 v 60 h 68 z" /><path
           id="path78"
           style="fill:#b80000;fill-opacity:1;fill-rule:nonzero;stroke:none"
           d="m 196,132 h -32 v -2 h 32 z" /><g
           transform="translate(224,182)"
           id="g80"><path
             id="path82"
             style="fill:#b80000;fill-opacity:1;fill-rule:nonzero;stroke:none"
             d="M 0,0 H -60 V -2 H 0 v -48 h -4 v -2 h 4 2 v 2 48 2 z" /></g><path
           id="path84"
           style="fill:#b3b3b3;fill-opacity:1;fill-rule:nonzero;stroke:none"
           d="m 220,136 h -30 v 40 h 30 z" /><path
           id="path86"
           style="fill:#404040;fill-opacity:1;fill-rule:nonzero;stroke:none"
           d="M 52,128 H 36 v 8 h 16 z" /><path
           id="path88"
           style="fill:#595959;fill-opacity:1;fill-rule:nonzero;stroke:none"
           d="m 44,128 h -4 v 8 h 4 z" /><path
           id="path90"
           style="fill:#404040;fill-opacity:1;fill-rule:nonzero;stroke:none"
           d="M 52,116 H 36 v 8 h 16 z" /><path
           id="path92"
           style="fill:#595959;fill-opacity:1;fill-rule:nonzero;stroke:none"
           d="m 48,116 h -4 v 8 h 4 z" /><path
           id="path94"
           style="fill:#cccccc;fill-opacity:1;fill-rule:nonzero;stroke:none"
           d="m 244,128 h -12 v 60 h 12 z" /></g></g></g></svg>