<?xml version="1.0" encoding="UTF-8"?>
<svg id="Layer_1" xmlns="http://www.w3.org/2000/svg" version="1.1" viewBox="0 0 256 256">
  <!-- Generator: Adobe Illustrator 29.3.0, SVG Export Plug-In . SVG Version: 2.1.0 Build 146)  -->
  <defs>
    <style>
      .st0 {
        fill: gray;
      }

      .st1 {
        fill: #27262b;
      }

      .st2 {
        fill: #e6e6e6;
      }

      .st3 {
        fill: #fff;
        opacity: .5;
      }

      .st4 {
        fill: red;
      }

      .st5 {
        fill: #b80000;
      }

      .st6 {
        fill: #8c8c8c;
      }

      .st7 {
        fill: #404040;
      }

      .st8 {
        fill: #999;
      }
    </style>
  </defs>
  <path class="st3" d="M220,68H36c-17.6,0-32,14.4-32,32v56c0,17.6,14.4,32,32,32h46.1c2.5,0,4.9-.6,7.2-1.7l3.8-1.9c.6-.3,1.2-.4,1.8-.4h62.3c.6,0,1.2.1,1.8.4l3.8,1.9c2.2,1.1,4.7,1.7,7.2,1.7h50.1c17.6,0,32-14.4,32-32v-56c0-17.6-14.4-32-32-32h0Z"/>
  <path class="st4" d="M220,76H36c-13.3,0-24,10.7-24,24v56c0,13.3,10.7,24,24,24h46.1c1.2,0,2.5-.3,3.6-.8l3.8-1.9c1.7-.8,3.5-1.3,5.4-1.3h62.3c1.9,0,3.7.4,5.4,1.3l3.8,1.9c1.1.6,2.3.8,3.6.8h50.1c13.3,0,24-10.7,24-24v-56c0-13.3-10.7-24-24-24h0Z"/>
  <path class="st2" d="M220,80c11,0,20,9,20,20v56c0,11-9,20-20,20h-50.1c-.6,0-1.2-.1-1.8-.4l-3.8-1.9c-2.2-1.1-4.7-1.7-7.2-1.7h-62.3c-2.5,0-4.9.6-7.2,1.7l-3.8,1.9c-.6.3-1.2.4-1.8.4h-46.1c-11,0-20-9-20-20v-56c0-11,9-20,20-20h184"/>
  <rect class="st4" x="32" y="140" width="12" height="4" rx="2" ry="2"/>
  <rect class="st4" x="200" y="140" width="12" height="4" rx="2" ry="2"/>
  <rect class="st4" x="224" y="140" width="12" height="4" rx="2" ry="2"/>
  <rect class="st7" x="64" y="88" width="124" height="68"/>
  <path class="st4" d="M40,84c-12.2,0-22,9.8-22,22s9.8,22,22,22,22-9.8,22-22-9.8-22-22-22h0Z"/>
  <path class="st0" d="M40,86c11,0,20,9,20,20s-9,20-20,20-20-9-20-20,9-20,20-20"/>
  <path class="st8" d="M44,86.4c-1.3-.3-2.6-.4-4-.4s-2.7.1-4,.4v13.6c0,1.1-.9,2-2,2h-13.6c-.3,1.3-.4,2.6-.4,4s.1,2.7.4,4h13.6c1.1,0,2,.9,2,2v13.6c1.3.3,2.6.4,4,.4s2.7-.1,4-.4v-13.6c0-1.1.9-2,2-2h13.6c.3-1.3.4-2.6.4-4s-.1-2.7-.4-4h-13.6c-1.1,0-2-.9-2-2v-13.6Z"/>
  <g>
    <path class="st6" d="M39.8,88.8l-1.7,2.9c0,.1,0,.3.2.3h3.3c.2,0,.3-.2.2-.3l-1.7-2.9c0-.1-.3-.1-.3,0Z"/>
    <path class="st6" d="M40.2,123.2l1.7-2.9c0-.1,0-.3-.2-.3h-3.3c-.2,0-.3.2-.2.3l1.7,2.9c0,.1.3.1.3,0Z"/>
    <path class="st6" d="M57.2,105.8l-2.9-1.7c-.1,0-.3,0-.3.2v3.3c0,.2.2.3.3.2l2.9-1.7c.1,0,.1-.3,0-.3Z"/>
    <path class="st6" d="M22.8,106.2l2.9,1.7c.1,0,.3,0,.3-.2v-3.3c0-.2-.2-.3-.3-.2l-2.9,1.7c-.1,0-.1.3,0,.3Z"/>
  </g>
  <path class="st4" d="M206,100c-4.4,0-8,3.6-8,8s3.6,8,8,8,8-3.6,8-8-3.6-8-8-8h0Z"/>
  <path class="st7" d="M206,101c3.9,0,7,3.1,7,7s-3.1,7-7,7-7-3.1-7-7,3.1-7,7-7"/>
  <path class="st4" d="M230,100c-4.4,0-8,3.6-8,8s3.6,8,8,8,8-3.6,8-8-3.6-8-8-8h0Z"/>
  <path class="st5" d="M230,101c3.9,0,7,3.1,7,7s-3.1,7-7,7-7-3.1-7-7,3.1-7,7-7"/>
  <path class="st4" d="M218,88c-4.4,0-8,3.6-8,8s3.6,8,8,8,8-3.6,8-8-3.6-8-8-8h0Z"/>
  <path class="st7" d="M218,89c3.9,0,7,3.1,7,7s-3.1,7-7,7-7-3.1-7-7,3.1-7,7-7"/>
  <path class="st4" d="M218,112c-4.4,0-8,3.6-8,8s3.6,8,8,8,8-3.6,8-8-3.6-8-8-8h0Z"/>
  <path class="st5" d="M218,113c3.9,0,7,3.1,7,7s-3.1,7-7,7-7-3.1-7-7,3.1-7,7-7"/>
  <path class="st1" d="M35.6,160c-.1,0-.2,0-.3-.1l-7.1-7.1c-.2-.2-.2-.5,0-.6s.5-.2.6,0l7.1,7.1c.2.2.2.5,0,.6s-.2.1-.3.1Z"/>
  <path class="st1" d="M39.6,160c-.1,0-.2,0-.3-.1l-7.1-7.1c-.2-.2-.2-.5,0-.6s.5-.2.6,0l7.1,7.1c.2.2.2.5,0,.6s-.2.1-.3.1Z"/>
  <path class="st1" d="M43.6,160c-.1,0-.2,0-.3-.1l-7.1-7.1c-.2-.2-.2-.5,0-.6s.5-.2.6,0l7.1,7.1c.2.2.2.5,0,.6s-.2.1-.3.1Z"/>
  <path class="st1" d="M220.4,160c.1,0,.2,0,.3-.1l7.1-7.1c.2-.2.2-.5,0-.6s-.5-.2-.6,0l-7.1,7.1c-.2.2-.2.5,0,.6s.2.1.3.1Z"/>
  <path class="st1" d="M216.4,160c.1,0,.2,0,.3-.1l7.1-7.1c.2-.2.2-.5,0-.6s-.5-.2-.6,0l-7.1,7.1c-.2.2-.2.5,0,.6s.2.1.3.1Z"/>
  <path class="st1" d="M212.4,160c.1,0,.2,0,.3-.1l7.1-7.1c.2-.2.2-.5,0-.6s-.5-.2-.6,0l-7.1,7.1c-.2.2-.2.5,0,.6s.2.1.3.1Z"/>
  <g>
    <path class="st4" d="M192,76v84s0,4-4,4h-40v4h40s8,0,8-8v-84h-4Z"/>
    <path class="st4" d="M100,164H16v4h84v-4Z"/>
  </g>
</svg>