<svg xmlns="http://www.w3.org/2000/svg" id="Layer_1" viewBox="0 0 256 256"><defs><style>.st4{fill:red}.st5{fill:#b80000}.st7{fill:#404040}</style></defs><path d="M220 68H36C18.4 68 4 82.4 4 100v56c0 17.6 14.4 32 32 32h46.1c2.5 0 4.9-.6 7.2-1.7l3.8-1.9c.6-.3 1.2-.4 1.8-.4h62.3c.6 0 1.2.1 1.8.4l3.8 1.9c2.2 1.1 4.7 1.7 7.2 1.7h50.1c17.6 0 32-14.4 32-32v-56c0-17.6-14.4-32-32-32Z" style="fill:#fff;opacity:.5"/><path d="M220 76H36c-13.3 0-24 10.7-24 24v56c0 13.3 10.7 24 24 24h46.1c1.2 0 2.5-.3 3.6-.8l3.8-1.9c1.7-.8 3.5-1.3 5.4-1.3h62.3c1.9 0 3.7.4 5.4 1.3l3.8 1.9c1.1.6 2.3.8 3.6.8h50.1c13.3 0 24-10.7 24-24v-56c0-13.3-10.7-24-24-24Z" class="st4"/><path d="M220 80c11 0 20 9 20 20v56c0 11-9 20-20 20h-50.1c-.6 0-1.2-.1-1.8-.4l-3.8-1.9c-2.2-1.1-4.7-1.7-7.2-1.7H94.8c-2.5 0-4.9.6-7.2 1.7l-3.8 1.9c-.6.3-1.2.4-1.8.4H35.9c-11 0-20-9-20-20v-56c0-11 9-20 20-20h184" style="fill:#e6e6e6"/><rect width="12" height="4" x="32" y="140" class="st4" rx="2" ry="2"/><rect width="12" height="4" x="200" y="140" class="st4" rx="2" ry="2"/><rect width="12" height="4" x="224" y="140" class="st4" rx="2" ry="2"/><path d="M64 88h124v68H64z" class="st7"/><path d="M40 84c-12.2 0-22 9.8-22 22s9.8 22 22 22 22-9.8 22-22-9.8-22-22-22" class="st4"/><path d="M40 86c11 0 20 9 20 20s-9 20-20 20-20-9-20-20 9-20 20-20" style="fill:gray"/><path d="M44 86.4c-1.3-.3-2.6-.4-4-.4s-2.7.1-4 .4V100c0 1.1-.9 2-2 2H20.4c-.3 1.3-.4 2.6-.4 4s.1 2.7.4 4H34c1.1 0 2 .9 2 2v13.6c1.3.3 2.6.4 4 .4s2.7-.1 4-.4V112c0-1.1.9-2 2-2h13.6c.3-1.3.4-2.6.4-4s-.1-2.7-.4-4H46c-1.1 0-2-.9-2-2z" style="fill:#999"/><path d="m39.8 88.8-1.7 2.9c0 .1 0 .3.2.3h3.3c.2 0 .3-.2.2-.3l-1.7-2.9c0-.1-.3-.1-.3 0m.4 34.4 1.7-2.9c0-.1 0-.3-.2-.3h-3.3c-.2 0-.3.2-.2.3l1.7 2.9c0 .1.3.1.3 0m17-17.4-2.9-1.7c-.1 0-.3 0-.3.2v3.3c0 .2.2.3.3.2l2.9-1.7c.1 0 .1-.3 0-.3m-34.4.4 2.9 1.7c.1 0 .3 0 .3-.2v-3.3c0-.2-.2-.3-.3-.2l-2.9 1.7c-.1 0-.1.3 0 .3" style="fill:#8c8c8c"/><path d="M206 100c-4.4 0-8 3.6-8 8s3.6 8 8 8 8-3.6 8-8-3.6-8-8-8" class="st4"/><path d="M206 101c3.9 0 7 3.1 7 7s-3.1 7-7 7-7-3.1-7-7 3.1-7 7-7" class="st7"/><path d="M230 100c-4.4 0-8 3.6-8 8s3.6 8 8 8 8-3.6 8-8-3.6-8-8-8" class="st4"/><path d="M230 101c3.9 0 7 3.1 7 7s-3.1 7-7 7-7-3.1-7-7 3.1-7 7-7" class="st5"/><path d="M218 88c-4.4 0-8 3.6-8 8s3.6 8 8 8 8-3.6 8-8-3.6-8-8-8" class="st4"/><path d="M218 89c3.9 0 7 3.1 7 7s-3.1 7-7 7-7-3.1-7-7 3.1-7 7-7" class="st7"/><path d="M218 112c-4.4 0-8 3.6-8 8s3.6 8 8 8 8-3.6 8-8-3.6-8-8-8" class="st4"/><path d="M218 113c3.9 0 7 3.1 7 7s-3.1 7-7 7-7-3.1-7-7 3.1-7 7-7" class="st5"/><path d="M35.6 160c-.1 0-.2 0-.3-.1l-7.1-7.1c-.2-.2-.2-.5 0-.6s.5-.2.6 0l7.1 7.1c.2.2.2.5 0 .6s-.2.1-.3.1m4 0c-.1 0-.2 0-.3-.1l-7.1-7.1c-.2-.2-.2-.5 0-.6s.5-.2.6 0l7.1 7.1c.2.2.2.5 0 .6s-.2.1-.3.1m4 0c-.1 0-.2 0-.3-.1l-7.1-7.1c-.2-.2-.2-.5 0-.6s.5-.2.6 0l7.1 7.1c.2.2.2.5 0 .6s-.2.1-.3.1m176.8 0c.1 0 .2 0 .3-.1l7.1-7.1c.2-.2.2-.5 0-.6s-.5-.2-.6 0l-7.1 7.1c-.2.2-.2.5 0 .6s.2.1.3.1m-4 0c.1 0 .2 0 .3-.1l7.1-7.1c.2-.2.2-.5 0-.6s-.5-.2-.6 0l-7.1 7.1c-.2.2-.2.5 0 .6s.2.1.3.1m-4 0c.1 0 .2 0 .3-.1l7.1-7.1c.2-.2.2-.5 0-.6s-.5-.2-.6 0l-7.1 7.1c-.2.2-.2.5 0 .6s.2.1.3.1" style="fill:#27262b"/><path d="M192 76v84s0 4-4 4h-40v4h40s8 0 8-8V76zm-92 88H16v4h84z" class="st4"/></svg>