<?xml version="1.0" encoding="UTF-8" standalone="no"?>
<svg
   xmlns:dc="http://purl.org/dc/elements/1.1/"
   xmlns:cc="http://creativecommons.org/ns#"
   xmlns:rdf="http://www.w3.org/1999/02/22-rdf-syntax-ns#"
   xmlns:svg="http://www.w3.org/2000/svg"
   xmlns="http://www.w3.org/2000/svg"
   viewBox="0 0 330.66665 309.33331"
   height="309.33331"
   width="330.66666"
   xml:space="preserve"
   id="svg2"
   version="1.1"><metadata
     id="metadata8"><rdf:RDF><cc:Work
         rdf:about=""><dc:format>image/svg+xml</dc:format><dc:type
           rdf:resource="http://purl.org/dc/dcmitype/StillImage" /></cc:Work></rdf:RDF></metadata><defs
     id="defs6"><clipPath
       id="clipPath18"
       clipPathUnits="userSpaceOnUse"><path
         id="path16"
         d="M 0,256 H 256 V 0 H 0 Z" /></clipPath><clipPath
       id="clipPath26"
       clipPathUnits="userSpaceOnUse"><path
         id="path24"
         d="M 4,244 H 252 V 12 H 4 Z" /></clipPath><clipPath
       id="clipPath72"
       clipPathUnits="userSpaceOnUse"><path
         id="path70"
         d="M 0,256 H 256 V 0 H 0 Z" /></clipPath></defs><g
     transform="matrix(1.3333333,0,0,-1.3333333,-5.3333332,325.33333)"
     id="g10"><g
       id="g12"><g
         clip-path="url(#clipPath18)"
         id="g14"><g
           id="g20"><g
             id="g22" /><g
             id="g32"><g
               style="opacity:0.5"
               id="g30"
               clip-path="url(#clipPath26)"><path
                 id="path28"
                 style="fill:#ffffff;fill-opacity:1;fill-rule:nonzero;stroke:none"
                 d="M 252,12 H 4 v 232 h 248 z" /></g></g></g></g></g><path
       id="path34"
       style="fill:#404040;fill-opacity:1;fill-rule:nonzero;stroke:none"
       d="M 244,20 H 12 v 216 h 232 z" /><path
       id="path36"
       style="fill:#333333;fill-opacity:1;fill-rule:nonzero;stroke:none"
       d="M 244,216 H 12 v 4 h 232 z" /><path
       id="path38"
       style="fill:#333333;fill-opacity:1;fill-rule:nonzero;stroke:none"
       d="M 244,204 H 12 v 4 h 232 z" /><path
       id="path40"
       style="fill:#333333;fill-opacity:1;fill-rule:nonzero;stroke:none"
       d="M 244,192 H 12 v 4 h 232 z" /><path
       id="path42"
       style="fill:#333333;fill-opacity:1;fill-rule:nonzero;stroke:none"
       d="M 244,180 H 12 v 4 h 232 z" /><path
       id="path44"
       style="fill:#333333;fill-opacity:1;fill-rule:nonzero;stroke:none"
       d="M 244,168 H 12 v 4 h 232 z" /><path
       id="path46"
       style="fill:#333333;fill-opacity:1;fill-rule:nonzero;stroke:none"
       d="M 244,156 H 12 v 4 h 232 z" /><path
       id="path48"
       style="fill:#333333;fill-opacity:1;fill-rule:nonzero;stroke:none"
       d="m 228,104 h -84 v 20 h 84 z" /><path
       id="path50"
       style="fill:#333333;fill-opacity:1;fill-rule:nonzero;stroke:none"
       d="m 228,20 h -84 v 44 h 84 z" /><path
       id="path52"
       style="fill:#333333;fill-opacity:1;fill-rule:nonzero;stroke:none"
       d="M 244,228 H 12 v 8 h 232 z" /><g
       transform="translate(12,20)"
       id="g54"><path
         id="path56"
         style="fill:#3d0000;fill-opacity:1;fill-rule:nonzero;stroke:none"
         d="m 0,0 8,108 v 100 l -8,8 z" /></g><g
       transform="translate(244,20)"
       id="g58"><path
         id="path60"
         style="fill:#3d0000;fill-opacity:1;fill-rule:nonzero;stroke:none"
         d="m 0,0 -8,108 v 100 l 8,8 z" /></g><path
       id="path62"
       style="fill:#191919;fill-opacity:1;fill-rule:nonzero;stroke:none"
       d="m 228,64 h -84 v 12 h 84 z" /><path
       id="path64"
       style="fill:#404040;fill-opacity:1;fill-rule:nonzero;stroke:none"
       d="m 216,64 h -60 v 8 h 60 z" /><g
       id="g66"><g
         clip-path="url(#clipPath72)"
         id="g68"><g
           transform="translate(24,120)"
           id="g74"><path
             id="path76"
             style="fill:#333333;fill-opacity:1;fill-rule:nonzero;stroke:none"
             d="m 0,0 v -44 l 4,-56 H 108 V 0 c 0,2.209 -1.791,4 -4,4 H 4 C 1.791,4 0,2.209 0,0" /></g><path
           id="path78"
           style="fill:#404040;fill-opacity:1;fill-rule:nonzero;stroke:none"
           d="m 120,40 h -12 v 12 h 12 z" /><path
           id="path80"
           style="fill:#404040;fill-opacity:1;fill-rule:nonzero;stroke:none"
           d="M 104,40 H 92 v 12 h 12 z" /><path
           id="path82"
           style="fill:#404040;fill-opacity:1;fill-rule:nonzero;stroke:none"
           d="M 88,40 H 76 v 12 h 12 z" /><path
           id="path84"
           style="fill:#404040;fill-opacity:1;fill-rule:nonzero;stroke:none"
           d="M 72,40 H 60 v 12 h 12 z" /><path
           id="path86"
           style="fill:#404040;fill-opacity:1;fill-rule:nonzero;stroke:none"
           d="M 56,40 H 44 v 12 h 12 z" /><path
           id="path88"
           style="fill:#191919;fill-opacity:1;fill-rule:nonzero;stroke:none"
           d="m 216,56 h -60 v 4 h 60 z" /><path
           id="path90"
           style="fill:#191919;fill-opacity:1;fill-rule:nonzero;stroke:none"
           d="m 216,48 h -60 v 4 h 60 z" /><path
           id="path92"
           style="fill:#191919;fill-opacity:1;fill-rule:nonzero;stroke:none"
           d="m 216,40 h -60 v 4 h 60 z" /><path
           id="path94"
           style="fill:#191919;fill-opacity:1;fill-rule:nonzero;stroke:none"
           d="m 216,32 h -60 v 4 h 60 z" /><path
           id="path96"
           style="fill:#191919;fill-opacity:1;fill-rule:nonzero;stroke:none"
           d="m 216,24 h -60 v 4 h 60 z" /><g
           transform="translate(221.1172,88)"
           id="g98"><path
             id="path100"
             style="fill:#4c4c4c;fill-opacity:1;fill-rule:nonzero;stroke:none"
             d="m 0,0 h -70.234 c -1.722,0 -3.25,-1.102 -3.795,-2.735 L -77.117,-12 h 84 L 3.795,-2.735 C 3.25,-1.102 1.722,0 0,0" /></g><path
           id="path102"
           style="fill:#262626;fill-opacity:1;fill-rule:nonzero;stroke:none"
           d="M 132,100 H 24 V 76 h 108 z" /><path
           id="path104"
           style="fill:#404040;fill-opacity:1;fill-rule:nonzero;stroke:none"
           d="m 40,40 h -4 v 12 h 4 z" /></g></g></g></svg>