<?xml version="1.0" encoding="iso-8859-1"?>
<!-- Generator: Adobe Illustrator 27.8.1, SVG Export Plug-In . SVG Version: 6.00 Build 0)  -->
<svg version="1.1" id="Layer_1" xmlns="http://www.w3.org/2000/svg" xmlns:xlink="http://www.w3.org/1999/xlink" x="0px" y="0px"
	 viewBox="0 0 256 256" style="enable-background:new 0 0 256 256;" xml:space="preserve">
<polygon style="opacity:0.5;fill:#FFFFFF;" points="244,8 232,8 232,4 224,4 32,4 24,4 24,8 12,8 4,8 4,16 4,240 4,244 4,252 
	12,252 244,252 252,252 252,244 252,240 252,16 252,8 "/>
<rect x="12" y="16" style="fill:#262626;" width="232" height="224"/>
<polygon style="fill:#3D0000;" points="12,244 32,180 32,16 12,16 "/>
<linearGradient id="SVGID_1_" gradientUnits="userSpaceOnUse" x1="128" y1="16" x2="128" y2="188">
	<stop  offset="0" style="stop-color:#494949"/>
	<stop  offset="0.112" style="stop-color:#3E3F3F"/>
	<stop  offset="1" style="stop-color:#3E3F3F"/>
</linearGradient>
<path style="fill:url(#SVGID_1_);" d="M214.511,16H41.489C38.47,16,36,18.352,36,21.227v161.546c0,2.875,2.47,5.227,5.489,5.227
	h94.461c0.019-0.019,0.031-0.031,0.05-0.05V184c0-2.209,1.791-4,4-4h80V21.227C220,18.352,217.53,16,214.511,16z"/>
<path style="fill:#333333;" d="M128,196v36H29.237l9.818-36H128 M132,192H36l-12,44h108V192L132,192z"/>
<rect x="12" y="240" style="fill:#3D0000;" width="232" height="4"/>
<path style="fill:#C4C0AA;" d="M109,224h10c0.552,0,1-0.448,1-1v-10c0-0.552-0.448-1-1-1h-10c-0.552,0-1,0.448-1,1v10
	C108,223.552,108.448,224,109,224z"/>
<path style="fill:#C4C0AA;" d="M93,224h10c0.552,0,1-0.448,1-1v-10c0-0.552-0.448-1-1-1H93c-0.552,0-1,0.448-1,1v10
	C92,223.552,92.448,224,93,224z"/>
<path style="fill:#C4C0AA;" d="M77,224h10c0.552,0,1-0.448,1-1v-10c0-0.552-0.448-1-1-1H77c-0.552,0-1,0.448-1,1v10
	C76,223.552,76.448,224,77,224z"/>
<path style="fill:#C4C0AA;" d="M61,224h10c0.552,0,1-0.448,1-1v-10c0-0.552-0.448-1-1-1H61c-0.552,0-1,0.448-1,1v10
	C60,223.552,60.448,224,61,224z"/>
<path style="fill:#FDB913;" d="M45,224h10c0.552,0,1-0.448,1-1v-10c0-0.552-0.448-1-1-1H45c-0.552,0-1,0.448-1,1v10
	C44,223.552,44.448,224,45,224z"/>
<polygon style="fill:#3D0000;" points="244,244 224,180 224,16 244,16 "/>
<rect x="140" y="180" style="fill:#0D0D0D;" width="76" height="28"/>
<rect x="140" y="228" style="fill:#1A1A1A;" width="76" height="8"/>
<rect x="140" y="220" style="fill:#1A1A1A;" width="76" height="2"/>
<rect x="140" y="224" style="fill:#1A1A1A;" width="76" height="2"/>
<rect x="32" y="12" style="fill:#333333;" width="192" height="4"/>
<path style="fill:#333333;" d="M209.883,80H46.117C44.948,80,44,79.052,44,77.883V66.117C44,64.948,44.948,64,46.117,64h163.767
	c1.169,0,2.117,0.948,2.117,2.117v11.767C212,79.052,211.052,80,209.883,80z"/>
<rect x="48" y="66" style="fill:#C4C0AA;" width="160" height="2"/>
<rect x="48" y="76" style="fill:#C4C0AA;" width="160" height="2"/>
<path style="fill:#E6E6E6;" d="M208,180v18.121c0,1.038-0.841,1.879-1.879,1.879h-56.243c-1.038,0-1.879-0.841-1.879-1.879V180h-2
	v18.121c0,2.139,1.74,3.879,3.879,3.879h56.243c2.139,0,3.879-1.74,3.879-3.879V180H208z"/>
</svg>
