<svg xmlns="http://www.w3.org/2000/svg" xml:space="preserve" viewBox="0 0 256 256"><path d="M244 8h-12V4H24v4H4v244h248V8z" style="opacity:.5;fill:#fff"/><path d="M12 16h232v224H12z" style="fill:#262626"/><path d="m12 244 20-64V16H12z" style="fill:#3d0000"/><linearGradient id="a" x1="128" x2="128" y1="16" y2="188" gradientUnits="userSpaceOnUse"><stop offset="0" style="stop-color:#494949"/><stop offset=".112" style="stop-color:#3e3f3f"/><stop offset="1" style="stop-color:#3e3f3f"/></linearGradient><path d="M214.511 16H41.489C38.47 16 36 18.352 36 21.227v161.546c0 2.875 2.47 5.227 5.489 5.227h94.461l.05-.05V184a4 4 0 0 1 4-4h80V21.227c0-2.875-2.47-5.227-5.489-5.227" style="fill:url(#a)"/><path d="M128 196v36H29.237l9.818-36zm4-4H36l-12 44h108z" style="fill:#333"/><path d="M12 240h232v4H12z" style="fill:#3d0000"/><path d="M109 224h10a1 1 0 0 0 1-1v-10a1 1 0 0 0-1-1h-10a1 1 0 0 0-1 1v10a1 1 0 0 0 1 1m-16 0h10a1 1 0 0 0 1-1v-10a1 1 0 0 0-1-1H93a1 1 0 0 0-1 1v10a1 1 0 0 0 1 1m-16 0h10a1 1 0 0 0 1-1v-10a1 1 0 0 0-1-1H77a1 1 0 0 0-1 1v10a1 1 0 0 0 1 1m-16 0h10a1 1 0 0 0 1-1v-10a1 1 0 0 0-1-1H61a1 1 0 0 0-1 1v10a1 1 0 0 0 1 1" style="fill:#c4c0aa"/><path d="M45 224h10a1 1 0 0 0 1-1v-10a1 1 0 0 0-1-1H45a1 1 0 0 0-1 1v10a1 1 0 0 0 1 1" style="fill:#fdb913"/><path d="m244 244-20-64V16h20z" style="fill:#3d0000"/><path d="M140 180h76v28h-76z" style="fill:#0d0d0d"/><path d="M140 228h76v8h-76zm0-8h76v2h-76zm0 4h76v2h-76z" style="fill:#1a1a1a"/><path d="M32 12h192v4H32zm177.883 68H46.117A2.117 2.117 0 0 1 44 77.883V66.117c0-1.169.948-2.117 2.117-2.117h163.767c1.169 0 2.117.948 2.117 2.117v11.767A2.12 2.12 0 0 1 209.883 80" style="fill:#333"/><path d="M48 66h160v2H48zm0 10h160v2H48z" style="fill:#c4c0aa"/><path d="M208 180v18.121a1.88 1.88 0 0 1-1.879 1.879h-56.243a1.88 1.88 0 0 1-1.879-1.879V180h-2v18.121a3.883 3.883 0 0 0 3.879 3.879h56.243a3.883 3.883 0 0 0 3.879-3.879V180z" style="fill:#e6e6e6"/></svg>