<svg xmlns="http://www.w3.org/2000/svg" xml:space="preserve" viewBox="0 0 256 256"><path d="M216 32.685V16a8 8 0 0 0-8-8H48a8 8 0 0 0-8 8v16.685c-4.656 1.651-8 6.1-8 11.315v116c0 5.215 3.344 9.664 8 11.315V236a8 8 0 0 0 8 8h160a8 8 0 0 0 8-8v-64.685c4.656-1.651 8-6.1 8-11.315V44c0-5.215-3.344-9.664-8-11.315" style="opacity:.5;fill:#fff"/><path d="M48 88h160v148H48z" style="fill:#d9d4bc"/><path d="M48 56h160v64H48zm32-40h96v40H80zM48 236h4l4-40v-48h-8zm160 0h-4l-4-40v-48h8z" style="fill:#c4c0aa"/><path d="M60 88h136v32H60zm0 124h136v8H60zm0 12h136v4H60z" style="fill:#7b0000"/><path d="M68 180h28v24H68zm92 0h28v24h-28zm-56-48h48v40h-48z" style="fill:#c4c0aa"/><path d="M104 160h48v28h-48z" style="fill:#7b0000"/><path d="M152 188h-48l4-24h40z" style="fill:#3d0000"/><path d="M124 136h8v24h-8z" style="fill:#a6a390"/><path d="M80 184h16v16H80zm80 0h16v16h-16z" style="fill:#7b0000"/><path d="M48 16h32v40H48zm128 0h32v40h-32z" style="fill:#d9d4bc"/><path d="M90 16h4v40h-4zm8 0h4v40h-4zm8 0h4v40h-4zm8 0h4v40h-4zm8 0h4v40h-4zm8 0h4v40h-4zm8 0h4v40h-4zm8 0h4v40h-4zm8 0h4v40h-4zm8 0h4v40h-4z" style="fill:#a6a390"/><path d="M80 192h16v4H80zm110-96H66a2 2 0 1 1 0-4h124a2 2 0 1 1 0 4" style="fill:#3d0000"/><path d="M52 164h-8c-2.2 0-4-1.8-4-4V44c0-2.2 1.8-4 4-4h8c2.2 0 4 1.8 4 4v116c0 2.2-1.8 4-4 4m160 0h-8c-2.2 0-4-1.8-4-4V44c0-2.2 1.8-4 4-4h8c2.2 0 4 1.8 4 4v116c0 2.2-1.8 4-4 4" style="fill:#7b0000"/><path d="M48 40h4v124h-4zm155.333 0h4v124h-4z" style="fill:#3d0000"/><path d="M172 88H84l-4-32h96z" style="fill:#d9d4bc"/><path d="M48 16h4v24h-4zm156 0h4v24h-4z" style="fill:#c4c0aa"/></svg>