<?xml version="1.0" encoding="iso-8859-1"?>
<!-- Generator: Adobe Illustrator 27.8.1, SVG Export Plug-In . SVG Version: 6.00 Build 0)  -->
<svg version="1.1" id="Layer_1" xmlns="http://www.w3.org/2000/svg" xmlns:xlink="http://www.w3.org/1999/xlink" x="0px" y="0px"
	 viewBox="0 0 256 256" style="enable-background:new 0 0 256 256;" xml:space="preserve">
<path style="opacity:0.5;fill:#FFFFFF;" d="M216,32.685V16c0-4.418-3.582-8-8-8h-4h-28h-10h-4h-4h-4h-4h-4h-4h-4h-4h-4h-4h-4h-4h-4
	h-4h-4h-4h-4h-4h-4H80H52h-4c-4.418,0-8,3.582-8,8v16.685c-4.656,1.651-8,6.1-8,11.315v116c0,5.215,3.344,9.664,8,11.315V236
	c0,4.418,3.582,8,8,8h4h152h4c4.418,0,8-3.582,8-8v-64.685c4.656-1.651,8-6.1,8-11.315V44C224,38.785,220.656,34.336,216,32.685z"/>
<rect x="48" y="88" style="fill:#D9D4BC;" width="160" height="148"/>
<rect x="48" y="56" style="fill:#C4C0AA;" width="160" height="64"/>
<rect x="80" y="16" style="fill:#C4C0AA;" width="96" height="40"/>
<path style="fill:#C4C0AA;" d="M48,236h4l4-40v-48h-8C48,152,48,236,48,236z"/>
<path style="fill:#C4C0AA;" d="M208,236h-4l-4-40v-48h8C208,152,208,236,208,236z"/>
<rect x="60" y="88" style="fill:#7B0000;" width="136" height="32"/>
<rect x="60" y="212" style="fill:#7B0000;" width="136" height="8"/>
<rect x="60" y="224" style="fill:#7B0000;" width="136" height="4"/>
<rect x="68" y="180" style="fill:#C4C0AA;" width="28" height="24"/>
<rect x="160" y="180" style="fill:#C4C0AA;" width="28" height="24"/>
<g>
	<rect x="104" y="132" style="fill:#C4C0AA;" width="48" height="40"/>
	<rect x="104" y="160" style="fill:#7B0000;" width="48" height="28"/>
	<polygon style="fill:#3D0000;" points="152,188 104,188 108,164 148,164 	"/>
	<rect x="124" y="136" style="fill:#A6A390;" width="8" height="24"/>
	<rect x="80" y="184" style="fill:#7B0000;" width="16" height="16"/>
	<rect x="160" y="184" style="fill:#7B0000;" width="16" height="16"/>
</g>
<rect x="48" y="16" style="fill:#D9D4BC;" width="32" height="40"/>
<rect x="176" y="16" style="fill:#D9D4BC;" width="32" height="40"/>
<rect x="90" y="16" style="fill:#A6A390;" width="4" height="40"/>
<rect x="98" y="16" style="fill:#A6A390;" width="4" height="40"/>
<rect x="106" y="16" style="fill:#A6A390;" width="4" height="40"/>
<rect x="114" y="16" style="fill:#A6A390;" width="4" height="40"/>
<rect x="122" y="16" style="fill:#A6A390;" width="4" height="40"/>
<rect x="130" y="16" style="fill:#A6A390;" width="4" height="40"/>
<rect x="138" y="16" style="fill:#A6A390;" width="4" height="40"/>
<rect x="146" y="16" style="fill:#A6A390;" width="4" height="40"/>
<rect x="154" y="16" style="fill:#A6A390;" width="4" height="40"/>
<rect x="162" y="16" style="fill:#A6A390;" width="4" height="40"/>
<rect x="80" y="192" style="fill:#3D0000;" width="16" height="4"/>
<path style="fill:#3D0000;" d="M190,96H66c-1.105,0-2-0.895-2-2l0,0c0-1.105,0.895-2,2-2h124c1.105,0,2,0.895,2,2l0,0
	C192,95.105,191.105,96,190,96z"/>
<g>
	<path style="fill:#7B0000;" d="M52,164h-8c-2.2,0-4-1.8-4-4V44c0-2.2,1.8-4,4-4h8c2.2,0,4,1.8,4,4v116C56,162.2,54.2,164,52,164z"
		/>
	<path style="fill:#7B0000;" d="M212,164h-8c-2.2,0-4-1.8-4-4V44c0-2.2,1.8-4,4-4h8c2.2,0,4,1.8,4,4v116
		C216,162.2,214.2,164,212,164z"/>
	<rect x="48" y="40" style="fill:#3D0000;" width="4" height="124"/>
	<rect x="203.333" y="40" style="fill:#3D0000;" width="4" height="124"/>
</g>
<polygon style="fill:#D9D4BC;" points="172,88 84,88 80,56 176,56 "/>
<rect x="48" y="16" style="fill:#C4C0AA;" width="4" height="24"/>
<rect x="204" y="16" style="fill:#C4C0AA;" width="4" height="24"/>
</svg>
