<?xml version="1.0" encoding="iso-8859-1"?>
<!-- Generator: Adobe Illustrator 27.8.1, SVG Export Plug-In . SVG Version: 6.00 Build 0)  -->
<svg version="1.1" id="Layer_1" xmlns="http://www.w3.org/2000/svg" xmlns:xlink="http://www.w3.org/1999/xlink" x="0px" y="0px"
	 viewBox="0 0 256 256" style="enable-background:new 0 0 256 256;" xml:space="preserve">
<path style="opacity:0.5;fill:#FFFFFF;" d="M211.155,144.422l-7.362-14.724l-11.8-106.196C191.729,12.703,182.862,4,172,4H88
	c-10.807,0-19.639,8.614-19.989,19.337L52.273,129.565l-7.429,14.858C44.289,145.533,44,146.758,44,148v10.605
	c0,9.074,7.046,16.547,16,17.328V244c0,4.418,3.582,8,8,8h120c4.418,0,8-3.582,8-8v-68.067c8.954-0.781,16-8.254,16-17.328V148
	C212,146.758,211.711,145.533,211.155,144.422z"/>
<rect x="68" y="148" style="fill:#999999;" width="120" height="96"/>
<path style="fill:#8F8F8F;" d="M184,24c0-6.627-5.373-12-12-12H88c-6.627,0-12,5.373-12,12L60,132h136L184,24z"/>
<polygon style="fill:#262626;" points="187.987,124 68,124 80,40 180,40 "/>
<path style="fill:#1A1A1A;" d="M176,116H80c-2.395,0-4.28-1.622-4-4l8-60c0.237-2.014,1.972-4,4-4h84c2.118,0,3.876,1.886,4,4
	l4,59.765C180.135,114.063,178.301,116,176,116z"/>
<path style="fill:#B3B3B3;" d="M123.547,173.996c1.352,0,2.453,0.978,2.453,2.179v55.641c0,1.202-1.1,2.179-2.453,2.179H76.453
	c-1.352,0-2.453-0.978-2.453-2.179v-55.641c0-1.202,1.1-2.179,2.453-2.179H123.547 M123.547,171.996H76.453
	c-2.455,0-4.453,1.875-4.453,4.179v55.641c0,2.304,1.998,4.179,4.453,4.179h47.094c2.455,0,4.453-1.875,4.453-4.179v-55.641
	C128,173.871,126.002,171.996,123.547,171.996L123.547,171.996z"/>
<g>
	<path style="fill:#B3B3B3;" d="M177.82,174c2.014,0,3.652,1.775,3.652,3.957v20.085c0,2.182-1.638,3.957-3.652,3.957h-24.7
		c-2.014,0-3.652-1.775-3.652-3.957v-20.085c0-2.182,1.638-3.957,3.652-3.957H177.82 M177.82,172h-24.7
		c-3.115,0-5.652,2.674-5.652,5.957v20.085c0,3.284,2.536,5.957,5.652,5.957h24.7c3.115,0,5.652-2.674,5.652-5.957v-20.085
		C183.471,174.674,180.935,172,177.82,172L177.82,172z"/>
</g>
<path style="fill:#B3B3B3;" d="M178.083,210c2.059,0,3.735,1.386,3.735,3.089v21.823c0,1.703-1.675,3.089-3.735,3.089h-36.531
	c-2.059,0-3.735-1.386-3.735-3.089v-21.823c0-1.703,1.675-3.089,3.735-3.089H178.083 M178.083,208h-36.531
	c-3.161,0-5.735,2.284-5.735,5.089v21.823c0,2.805,2.574,5.089,5.735,5.089h36.531c3.161,0,5.735-2.284,5.735-5.089v-21.823
	C183.818,210.284,181.244,208,178.083,208L178.083,208z"/>
<g>
	<rect x="88" y="20" style="fill:#262626;" width="20" height="16"/>
	<rect x="152" y="20" style="fill:#262626;" width="20" height="16"/>
</g>
<g>
	<polygon style="fill:#262626;" points="52,148 60,132 196,132 204,148 	"/>
</g>
<ellipse style="fill:#007B00;" cx="184" cy="136" rx="3" ry="2"/>
<ellipse style="fill:#007B00;" cx="184" cy="142" rx="3" ry="2"/>
<ellipse style="fill:#007B00;" cx="176" cy="136" rx="3" ry="2"/>
<ellipse style="fill:#007B00;" cx="176" cy="142" rx="3" ry="2"/>
<ellipse style="fill:#007B00;" cx="168" cy="136" rx="3" ry="2"/>
<g>
	<ellipse style="fill:#FDB913;" cx="132" cy="138" rx="3" ry="2"/>
	<ellipse style="fill:#FDB913;" cx="124" cy="138" rx="3" ry="2"/>
</g>
<ellipse style="fill:#007B00;" cx="168" cy="142" rx="3" ry="2"/>
<g>
	<ellipse style="fill:#354F9F;" cx="108" cy="136" rx="3" ry="2"/>
	<ellipse style="fill:#354F9F;" cx="108" cy="142" rx="3" ry="2"/>
	<ellipse style="fill:#354F9F;" cx="100" cy="136" rx="3" ry="2"/>
	<ellipse style="fill:#354F9F;" cx="100" cy="142" rx="3" ry="2"/>
	<ellipse style="fill:#354F9F;" cx="92" cy="136" rx="3" ry="2"/>
	<ellipse style="fill:#354F9F;" cx="92" cy="142" rx="3" ry="2"/>
</g>
<ellipse style="fill:#1A1A1A;" cx="150" cy="139" rx="6" ry="3"/>
<g>
	<path style="fill:#808080;" d="M194.448,168H61.552c-5.275,0-9.552-4.206-9.552-9.395V148h152v10.605
		C204,163.794,199.723,168,194.448,168z"/>
</g>
<rect x="168" y="192" style="fill:#262626;" width="4" height="4"/>
<circle style="fill:#262626;" cx="98" cy="182" r="2"/>
<circle style="fill:#262626;" cx="154" cy="182" r="2"/>
<circle style="fill:#262626;" cx="142" cy="222" r="2"/>
<ellipse style="fill:#1A1A1A;" cx="74" cy="139" rx="6" ry="3"/>
<rect x="112" y="20" style="fill:#999999;" width="36" height="16"/>
<path style="fill:#333333;" d="M74,140L74,140c0.828,0,1.5-0.672,1.5-1.5v-9c0-0.828-0.672-1.5-1.5-1.5l0,0
	c-0.828,0-1.5,0.672-1.5,1.5v9C72.5,139.328,73.172,140,74,140z"/>
<circle style="fill:#354F9F;" cx="74" cy="131" r="3"/>
<path style="fill:#333333;" d="M150,140L150,140c0.828,0,1.5-0.672,1.5-1.5v-9c0-0.828-0.672-1.5-1.5-1.5l0,0
	c-0.828,0-1.5,0.672-1.5,1.5v9C148.5,139.328,149.172,140,150,140z"/>
<circle style="fill:#007B00;" cx="150" cy="131" r="3"/>
</svg>
