<svg xmlns="http://www.w3.org/2000/svg" xml:space="preserve" viewBox="0 0 256 256"><path d="m211.155 144.422-7.362-14.724-11.8-106.196C191.729 12.703 182.862 4 172 4H88c-10.807 0-19.639 8.614-19.989 19.337L52.273 129.565l-7.429 14.858A8 8 0 0 0 44 148v10.605c0 9.074 7.046 16.547 16 17.328V244a8 8 0 0 0 8 8h120a8 8 0 0 0 8-8v-68.067c8.954-.781 16-8.254 16-17.328V148a8 8 0 0 0-.845-3.578" style="opacity:.5;fill:#fff"/><path d="M68 148h120v96H68z" style="fill:#999"/><path d="M184 24c0-6.627-5.373-12-12-12H88c-6.627 0-12 5.373-12 12L60 132h136z" style="fill:#8f8f8f"/><path d="M187.987 124H68l12-84h100z" style="fill:#262626"/><path d="M176 116H80c-2.395 0-4.28-1.622-4-4l8-60c.237-2.014 1.972-4 4-4h84c2.118 0 3.876 1.886 4 4l4 59.765a4.006 4.006 0 0 1-4 4.235" style="fill:#1a1a1a"/><path d="M123.547 173.996c1.352 0 2.453.978 2.453 2.179v55.641c0 1.202-1.1 2.179-2.453 2.179H76.453c-1.352 0-2.453-.978-2.453-2.179v-55.641c0-1.202 1.1-2.179 2.453-2.179zm0-2H76.453c-2.455 0-4.453 1.875-4.453 4.179v55.641c0 2.304 1.998 4.179 4.453 4.179h47.094c2.455 0 4.453-1.875 4.453-4.179v-55.641c0-2.304-1.998-4.179-4.453-4.179M177.82 174c2.014 0 3.652 1.775 3.652 3.957v20.085c0 2.182-1.638 3.957-3.652 3.957h-24.7c-2.014 0-3.652-1.775-3.652-3.957v-20.085c0-2.182 1.638-3.957 3.652-3.957zm0-2h-24.7c-3.115 0-5.652 2.674-5.652 5.957v20.085c0 3.284 2.536 5.957 5.652 5.957h24.7c3.115 0 5.652-2.674 5.652-5.957v-20.085c-.001-3.283-2.537-5.957-5.652-5.957m.263 38c2.059 0 3.735 1.386 3.735 3.089v21.823c0 1.703-1.675 3.089-3.735 3.089h-36.531c-2.059 0-3.735-1.386-3.735-3.089v-21.823c0-1.703 1.675-3.089 3.735-3.089zm0-2h-36.531c-3.161 0-5.735 2.284-5.735 5.089v21.823c0 2.805 2.574 5.089 5.735 5.089h36.531c3.161 0 5.735-2.284 5.735-5.089v-21.823c0-2.805-2.574-5.089-5.735-5.089" style="fill:#b3b3b3"/><path d="M88 20h20v16H88zm64 0h20v16h-20zM52 148l8-16h136l8 16z" style="fill:#262626"/><ellipse cx="184" cy="136" rx="3" ry="2" style="fill:#007b00"/><ellipse cx="184" cy="142" rx="3" ry="2" style="fill:#007b00"/><ellipse cx="176" cy="136" rx="3" ry="2" style="fill:#007b00"/><ellipse cx="176" cy="142" rx="3" ry="2" style="fill:#007b00"/><ellipse cx="168" cy="136" rx="3" ry="2" style="fill:#007b00"/><ellipse cx="132" cy="138" rx="3" ry="2" style="fill:#fdb913"/><ellipse cx="124" cy="138" rx="3" ry="2" style="fill:#fdb913"/><ellipse cx="168" cy="142" rx="3" ry="2" style="fill:#007b00"/><ellipse cx="108" cy="136" rx="3" ry="2" style="fill:#354f9f"/><ellipse cx="108" cy="142" rx="3" ry="2" style="fill:#354f9f"/><ellipse cx="100" cy="136" rx="3" ry="2" style="fill:#354f9f"/><ellipse cx="100" cy="142" rx="3" ry="2" style="fill:#354f9f"/><ellipse cx="92" cy="136" rx="3" ry="2" style="fill:#354f9f"/><ellipse cx="92" cy="142" rx="3" ry="2" style="fill:#354f9f"/><ellipse cx="150" cy="139" rx="6" ry="3" style="fill:#1a1a1a"/><path d="M194.448 168H61.552c-5.275 0-9.552-4.206-9.552-9.395V148h152v10.605c0 5.189-4.277 9.395-9.552 9.395" style="fill:gray"/><path d="M168 192h4v4h-4z" style="fill:#262626"/><circle cx="98" cy="182" r="2" style="fill:#262626"/><circle cx="154" cy="182" r="2" style="fill:#262626"/><circle cx="142" cy="222" r="2" style="fill:#262626"/><ellipse cx="74" cy="139" rx="6" ry="3" style="fill:#1a1a1a"/><path d="M112 20h36v16h-36z" style="fill:#999"/><path d="M74 140a1.5 1.5 0 0 0 1.5-1.5v-9a1.5 1.5 0 0 0-3 0v9A1.5 1.5 0 0 0 74 140" style="fill:#333"/><circle cx="74" cy="131" r="3" style="fill:#354f9f"/><path d="M150 140a1.5 1.5 0 0 0 1.5-1.5v-9a1.5 1.5 0 0 0-3 0v9a1.5 1.5 0 0 0 1.5 1.5" style="fill:#333"/><circle cx="150" cy="131" r="3" style="fill:#007b00"/></svg>