<?xml version="1.0" encoding="iso-8859-1"?>
<!-- Generator: Adobe Illustrator 27.8.1, SVG Export Plug-In . SVG Version: 6.00 Build 0)  -->
<svg version="1.1" id="Layer_1" xmlns="http://www.w3.org/2000/svg" xmlns:xlink="http://www.w3.org/1999/xlink" x="0px" y="0px"
	 viewBox="0 0 256 256" style="enable-background:new 0 0 256 256;" xml:space="preserve">
<path style="opacity:0.5;fill:#FFFFFF;" d="M216,28.685V16v-4c0-4.418-3.582-8-8-8h-4h-28h-10h-4h-4h-4h-4h-4h-4h-4h-4h-4h-4h-4h-4
	h-4h-4h-4h-4h-4h-4h-4h-6h-4h-8H52h-4c-4.418,0-8,3.582-8,8v4v12.685c-4.656,1.651-8,6.1-8,11.315v116c0,5.215,3.344,9.664,8,11.315
	V228v16c0,4.418,3.582,8,8,8h160c4.418,0,8-3.582,8-8v-16v-60.685c4.656-1.651,8-6.1,8-11.315V40
	C224,34.785,220.656,30.336,216,28.685z"/>
<rect x="48" y="16" style="fill:#3D0000;" width="160" height="228"/>
<rect x="48" y="72" style="fill:#D9D4BC;" width="160" height="156"/>
<rect x="48" y="52" style="fill:#C4C0AA;" width="160" height="68"/>
<rect x="80" y="12" style="fill:#C4C0AA;" width="96" height="40"/>
<path style="fill:#C4C0AA;" d="M48,228h4l4-40v-48h-8C48,144,48,228,48,228z"/>
<path style="fill:#C4C0AA;" d="M208,228h-4l-4-40v-48h8C208,144,208,228,208,228z"/>
<rect x="60" y="208" style="fill:#7B0000;" width="136" height="8"/>
<rect x="60" y="220" style="fill:#7B0000;" width="136" height="4"/>
<rect x="68" y="176" style="fill:#C4C0AA;" width="28" height="24"/>
<rect x="160" y="176" style="fill:#C4C0AA;" width="28" height="24"/>
<g>
	<rect x="104" y="128" style="fill:#C4C0AA;" width="48" height="40"/>
	<rect x="124" y="132" style="fill:#A6A390;" width="8" height="28"/>
	<rect x="104" y="156" style="fill:#7B0000;" width="48" height="28"/>
	<polygon style="fill:#3D0000;" points="152,184 104,184 108,160 148,160 	"/>
	<rect x="80" y="180" style="fill:#7B0000;" width="16" height="16"/>
	<rect x="160" y="180" style="fill:#7B0000;" width="16" height="16"/>
</g>
<rect x="48" y="12" style="fill:#D9D4BC;" width="32" height="40"/>
<rect x="176" y="12" style="fill:#D9D4BC;" width="32" height="40"/>
<rect x="90" y="12" style="fill:#A6A390;" width="4" height="40"/>
<rect x="98" y="12" style="fill:#A6A390;" width="4" height="40"/>
<rect x="106" y="12" style="fill:#A6A390;" width="4" height="40"/>
<rect x="114" y="12" style="fill:#A6A390;" width="4" height="40"/>
<rect x="122" y="12" style="fill:#A6A390;" width="4" height="40"/>
<rect x="130" y="12" style="fill:#A6A390;" width="4" height="40"/>
<rect x="138" y="12" style="fill:#A6A390;" width="4" height="40"/>
<rect x="146" y="12" style="fill:#A6A390;" width="4" height="40"/>
<rect x="154" y="12" style="fill:#A6A390;" width="4" height="40"/>
<rect x="162" y="12" style="fill:#A6A390;" width="4" height="40"/>
<rect x="80" y="188" style="fill:#3D0000;" width="16" height="4"/>
<g>
	<path style="fill:#7B0000;" d="M52,160h-8c-2.2,0-4-1.8-4-4V40c0-2.2,1.8-4,4-4h8c2.2,0,4,1.8,4,4v116C56,158.2,54.2,160,52,160z"
		/>
	<path style="fill:#7B0000;" d="M212,160h-8c-2.2,0-4-1.8-4-4V40c0-2.2,1.8-4,4-4h8c2.2,0,4,1.8,4,4v116
		C216,158.2,214.2,160,212,160z"/>
	<rect x="48" y="36" style="fill:#3D0000;" width="4" height="124"/>
	<rect x="203.333" y="36" style="fill:#3D0000;" width="4" height="124"/>
</g>
<polygon style="fill:#CCCCCC;" points="172,84 84,84 80,52 176,52 "/>
<rect x="48" y="12" style="fill:#C4C0AA;" width="4" height="24"/>
<rect x="204" y="12" style="fill:#C4C0AA;" width="4" height="24"/>
<rect x="60" y="52" style="fill:#7B0000;" width="136" height="32"/>
<path style="fill:#3D0000;" d="M190,76H66c-1.105,0-2,0.895-2,2l0,0c0,1.105,0.895,2,2,2h124c1.105,0,2-0.895,2-2l0,0
	C192,76.895,191.105,76,190,76z"/>
<polygon style="fill:#262626;" points="176,116 80,116 72,108 72,96 184,96 184,108 "/>
<g>
	<path style="fill:#0D0D0D;" d="M82,24h-8c-1.105,0-2-0.895-2-2V10c0-1.105,0.895-2,2-2h8c1.105,0,2,0.895,2,2v12
		C84,23.105,83.105,24,82,24z"/>
	<path style="fill:#1A1A1A;" d="M194,128H62c-1.105,0-2-0.895-2-2V18c0-1.105,0.895-2,2-2h132c1.105,0,2,0.895,2,2v108
		C196,127.105,195.105,128,194,128z"/>
	<path style="fill:#262626;" d="M68,128h-6c-1.105,0-2-0.895-2-2V18c0-1.105,0.895-2,2-2h6V128z"/>
	<path style="fill:#0D0D0D;" d="M194,128h-6V16h6c1.105,0,2,0.895,2,2v108C196,127.105,195.105,128,194,128z"/>
	<rect x="68" y="60" style="fill:#0D0D0D;" width="120" height="4"/>
	<rect x="68" y="68" style="fill:#0D0D0D;" width="120" height="4"/>
	<rect x="68" y="76" style="fill:#0D0D0D;" width="120" height="4"/>
	<rect x="140" y="64" style="fill:#262626;" width="44" height="12"/>
	<rect x="96" y="80" style="fill:#262626;" width="88" height="4"/>
</g>
</svg>
