<svg xmlns="http://www.w3.org/2000/svg" xml:space="preserve" viewBox="0 0 256 256"><path d="M216 28.685V12a8 8 0 0 0-8-8H48a8 8 0 0 0-8 8v16.685c-4.656 1.651-8 6.1-8 11.315v116c0 5.215 3.344 9.664 8 11.315V244a8 8 0 0 0 8 8h160a8 8 0 0 0 8-8v-76.685c4.656-1.651 8-6.1 8-11.315V40c0-5.215-3.344-9.664-8-11.315" style="opacity:.5;fill:#fff"/><path d="M48 16h160v228H48z" style="fill:#3d0000"/><path d="M48 72h160v156H48z" style="fill:#d9d4bc"/><path d="M48 52h160v68H48zm32-40h96v40H80zM48 228h4l4-40v-48h-8zm160 0h-4l-4-40v-48h8z" style="fill:#c4c0aa"/><path d="M60 208h136v8H60zm0 12h136v4H60z" style="fill:#7b0000"/><path d="M68 176h28v24H68zm92 0h28v24h-28zm-56-48h48v40h-48z" style="fill:#c4c0aa"/><path d="M124 132h8v28h-8z" style="fill:#a6a390"/><path d="M104 156h48v28h-48z" style="fill:#7b0000"/><path d="M152 184h-48l4-24h40z" style="fill:#3d0000"/><path d="M80 180h16v16H80zm80 0h16v16h-16z" style="fill:#7b0000"/><path d="M48 12h32v40H48zm128 0h32v40h-32z" style="fill:#d9d4bc"/><path d="M90 12h4v40h-4zm8 0h4v40h-4zm8 0h4v40h-4zm8 0h4v40h-4zm8 0h4v40h-4zm8 0h4v40h-4zm8 0h4v40h-4zm8 0h4v40h-4zm8 0h4v40h-4zm8 0h4v40h-4z" style="fill:#a6a390"/><path d="M80 188h16v4H80z" style="fill:#3d0000"/><path d="M52 160h-8c-2.2 0-4-1.8-4-4V40c0-2.2 1.8-4 4-4h8c2.2 0 4 1.8 4 4v116c0 2.2-1.8 4-4 4m160 0h-8c-2.2 0-4-1.8-4-4V40c0-2.2 1.8-4 4-4h8c2.2 0 4 1.8 4 4v116c0 2.2-1.8 4-4 4" style="fill:#7b0000"/><path d="M48 36h4v124h-4zm155.333 0h4v124h-4z" style="fill:#3d0000"/><path d="M172 84H84l-4-32h96z" style="fill:#ccc"/><path d="M48 12h4v24h-4zm156 0h4v24h-4z" style="fill:#c4c0aa"/><path d="M60 52h136v32H60z" style="fill:#7b0000"/><path d="M190 76H66a2 2 0 1 0 0 4h124a2 2 0 1 0 0-4" style="fill:#3d0000"/><path d="M176 116H80l-8-8V96h112v12z" style="fill:#262626"/><path d="M82 24h-8a2 2 0 0 1-2-2V10a2 2 0 0 1 2-2h8a2 2 0 0 1 2 2v12a2 2 0 0 1-2 2" style="fill:#0d0d0d"/><path d="M194 128H62a2 2 0 0 1-2-2V18a2 2 0 0 1 2-2h132a2 2 0 0 1 2 2v108a2 2 0 0 1-2 2" style="fill:#1a1a1a"/><path d="M68 128h-6a2 2 0 0 1-2-2V18a2 2 0 0 1 2-2h6z" style="fill:#262626"/><path d="M194 128h-6V16h6a2 2 0 0 1 2 2v108a2 2 0 0 1-2 2M68 60h120v4H68zm0 8h120v4H68zm0 8h120v4H68z" style="fill:#0d0d0d"/><path d="M140 64h44v12h-44zM96 80h88v4H96z" style="fill:#262626"/></svg>