<?xml version="1.0" encoding="iso-8859-1"?>
<!-- Generator: Adobe Illustrator 27.8.1, SVG Export Plug-In . SVG Version: 6.00 Build 0)  -->
<svg version="1.1" id="Layer_1" xmlns="http://www.w3.org/2000/svg" xmlns:xlink="http://www.w3.org/1999/xlink" x="0px" y="0px"
	 viewBox="0 0 256 256" style="enable-background:new 0 0 256 256;" xml:space="preserve">
<path style="opacity:0.5;fill:#FFFFFF;" d="M252,54c0-5.514-4.486-10-10-10H14C8.486,44,4,48.486,4,54v54
	c0,1.878,0.434,3.656,1.206,5.241c-1.004,1.854-1.405,3.996-1.112,6.122l11.536,83.792c0.584,5.06,4.813,8.845,9.938,8.845h204.865
	c5.125,0,9.354-3.785,9.938-8.845l11.536-83.792c0.293-2.126-0.108-4.268-1.112-6.122c0.772-1.584,1.206-3.363,1.206-5.241V54z
	 M231.784,203.477c-0.179,0.163-0.387,0.294-0.616,0.384C231.397,203.771,231.606,203.64,231.784,203.477
	c0.179-0.163,0.328-0.358,0.439-0.577C232.113,203.119,231.963,203.314,231.784,203.477z"/>
<path style="fill:#B3B3B3;" d="M240,112H16c-2.209,0-4-1.791-4-4V54c0-1.105,0.895-2,2-2h228c1.105,0,2,0.895,2,2v54
	C244,110.209,242.209,112,240,112z"/>
<rect x="16" y="56" style="fill:#CCCCCC;" width="224" height="56"/>
<rect x="16" y="78" style="fill:#A6A6A6;" width="224" height="2"/>
<rect x="16" y="74" style="fill:#A6A6A6;" width="224" height="2"/>
<rect x="16" y="70" style="fill:#A6A6A6;" width="224" height="2"/>
<rect x="16" y="66" style="fill:#A6A6A6;" width="224" height="2"/>
<rect x="16" y="62" style="fill:#A6A6A6;" width="224" height="2"/>
<rect x="16" y="58" style="fill:#A6A6A6;" width="224" height="2"/>
<rect x="196" y="56" style="fill:#BFBFBF;" width="36" height="24"/>
<rect x="200" y="60" style="fill:#595959;" width="28" height="18"/>
<rect x="214" y="72" style="fill:#737373;" width="6" height="4"/>
<rect x="208" y="72" style="fill:#808080;" width="6" height="4"/>
<rect x="16" y="112" style="fill:#999999;" width="224" height="4"/>
<path style="fill:#A6A6A6;" d="M230.432,204H25.568c-1.037,0-1.903-0.789-1.997-1.819l-11.552-83.909
	C11.854,117.071,12.79,116,14.005,116h227.989c1.216,0,2.152,1.071,1.986,2.272l-11.552,83.909
	C232.335,203.211,231.469,204,230.432,204z"/>
<rect x="184" y="144" style="fill:#8C8C8C;" width="44" height="56"/>
<rect x="184" y="120" style="fill:#8C8C8C;" width="44" height="20"/>
<rect x="48" y="120" style="fill:#8C8C8C;" width="96" height="20"/>
<rect x="156" y="120" style="fill:#8C8C8C;" width="20" height="20"/>
<rect x="32" y="144" style="fill:#8C8C8C;" width="148" height="44"/>
<rect x="48" y="120" style="fill:#666666;" width="16" height="8"/>
<rect x="52" y="120" style="fill:#737373;" width="8" height="8"/>
<rect x="68" y="120" style="fill:#666666;" width="16" height="8"/>
<rect x="72" y="120" style="fill:#737373;" width="8" height="8"/>
<rect x="88" y="120" style="fill:#666666;" width="16" height="8"/>
<rect x="92" y="120" style="fill:#737373;" width="8" height="8"/>
<rect x="108" y="120" style="fill:#666666;" width="16" height="8"/>
<rect x="112" y="120" style="fill:#737373;" width="8" height="8"/>
<rect x="128" y="120" style="fill:#666666;" width="16" height="8"/>
<rect x="132" y="120" style="fill:#737373;" width="8" height="8"/>
<rect x="48" y="132" style="fill:#666666;" width="16" height="8"/>
<rect x="52" y="132" style="fill:#737373;" width="8" height="8"/>
<rect x="24" y="130" style="fill:#737373;" width="8" height="8"/>
<rect x="24" y="144" style="fill:#737373;" width="8" height="8"/>
<rect x="24" y="156" style="fill:#737373;" width="12" height="8"/>
<rect x="28" y="168" style="fill:#737373;" width="12" height="8"/>
<rect x="32" y="180" style="fill:#737373;" width="12" height="8"/>
<rect x="36" y="144" style="fill:#999999;" width="8" height="8"/>
<rect x="44" y="168" style="fill:#999999;" width="8" height="8"/>
<rect x="48" y="180" style="fill:#999999;" width="8" height="8"/>
<rect x="60" y="180" style="fill:#999999;" width="8" height="8"/>
<rect x="72" y="180" style="fill:#999999;" width="8" height="8"/>
<rect x="84" y="180" style="fill:#999999;" width="8" height="8"/>
<rect x="96" y="180" style="fill:#999999;" width="8" height="8"/>
<rect x="108" y="180" style="fill:#999999;" width="8" height="8"/>
<rect x="120" y="180" style="fill:#999999;" width="8" height="8"/>
<rect x="132" y="180" style="fill:#999999;" width="8" height="8"/>
<rect x="144" y="180" style="fill:#999999;" width="8" height="8"/>
<rect x="156" y="180" style="fill:#999999;" width="8" height="8"/>
<rect x="56" y="168" style="fill:#999999;" width="8" height="8"/>
<rect x="68" y="168" style="fill:#999999;" width="8" height="8"/>
<rect x="80" y="168" style="fill:#999999;" width="8" height="8"/>
<rect x="92" y="168" style="fill:#999999;" width="8" height="8"/>
<rect x="104" y="168" style="fill:#999999;" width="8" height="8"/>
<rect x="116" y="168" style="fill:#999999;" width="8" height="8"/>
<rect x="128" y="168" style="fill:#999999;" width="8" height="8"/>
<rect x="140" y="168" style="fill:#999999;" width="8" height="8"/>
<rect x="152" y="168" style="fill:#999999;" width="8" height="8"/>
<rect x="52" y="156" style="fill:#999999;" width="8" height="8"/>
<rect x="40" y="156" style="fill:#999999;" width="8" height="8"/>
<rect x="64" y="156" style="fill:#999999;" width="8" height="8"/>
<rect x="76" y="156" style="fill:#999999;" width="8" height="8"/>
<rect x="88" y="156" style="fill:#999999;" width="8" height="8"/>
<rect x="100" y="156" style="fill:#999999;" width="8" height="8"/>
<rect x="112" y="156" style="fill:#999999;" width="8" height="8"/>
<rect x="124" y="156" style="fill:#999999;" width="8" height="8"/>
<rect x="136" y="156" style="fill:#999999;" width="8" height="8"/>
<rect x="148" y="156" style="fill:#999999;" width="8" height="8"/>
<rect x="48" y="144" style="fill:#999999;" width="8" height="8"/>
<rect x="60" y="144" style="fill:#999999;" width="8" height="8"/>
<rect x="72" y="144" style="fill:#999999;" width="8" height="8"/>
<rect x="84" y="144" style="fill:#999999;" width="8" height="8"/>
<rect x="96" y="144" style="fill:#999999;" width="8" height="8"/>
<rect x="108" y="144" style="fill:#999999;" width="8" height="8"/>
<rect x="120" y="144" style="fill:#999999;" width="8" height="8"/>
<rect x="132" y="144" style="fill:#999999;" width="8" height="8"/>
<rect x="144" y="144" style="fill:#999999;" width="8" height="8"/>
<rect x="156" y="144" style="fill:#999999;" width="8" height="8"/>
<rect x="168" y="144" style="fill:#737373;" width="12" height="8"/>
<rect x="168" y="180" style="fill:#737373;" width="12" height="8"/>
<rect x="156" y="132" style="fill:#737373;" width="8" height="8"/>
<rect x="168" y="132" style="fill:#737373;" width="8" height="8"/>
<rect x="184" y="144" style="fill:#737373;" width="8" height="8"/>
<rect x="208" y="144" style="fill:#737373;" width="8" height="8"/>
<rect x="220" y="144" style="fill:#737373;" width="8" height="8"/>
<rect x="184" y="156" style="fill:#999999;" width="8" height="8"/>
<rect x="208" y="156" style="fill:#999999;" width="8" height="8"/>
<rect x="220" y="156" style="fill:#737373;" width="8" height="8"/>
<rect x="184" y="168" style="fill:#999999;" width="8" height="8"/>
<rect x="208" y="168" style="fill:#999999;" width="8" height="8"/>
<rect x="220" y="168" style="fill:#737373;" width="8" height="8"/>
<rect x="184" y="180" style="fill:#999999;" width="8" height="8"/>
<rect x="196" y="144" style="fill:#737373;" width="8" height="8"/>
<rect x="196" y="156" style="fill:#999999;" width="8" height="8"/>
<rect x="196" y="168" style="fill:#999999;" width="8" height="8"/>
<rect x="196" y="180" style="fill:#999999;" width="8" height="8"/>
<rect x="184" y="192" style="fill:#737373;" width="20" height="8"/>
<rect x="208" y="180" style="fill:#999999;" width="8" height="8"/>
<rect x="208" y="192" style="fill:#999999;" width="8" height="8"/>
<rect x="220" y="180" style="fill:#737373;" width="8" height="20"/>
<rect x="156" y="120" style="fill:#737373;" width="8" height="8"/>
<rect x="168" y="120" style="fill:#737373;" width="8" height="8"/>
<rect x="200" y="132" style="fill:#737373;" width="12" height="8"/>
<rect x="200" y="120" style="fill:#737373;" width="12" height="8"/>
<rect x="184" y="132" style="fill:#737373;" width="12" height="8"/>
<rect x="184" y="120" style="fill:#737373;" width="12" height="8"/>
<rect x="216" y="132" style="fill:#737373;" width="12" height="8"/>
<rect x="216" y="120" style="fill:#737373;" width="12" height="8"/>
<rect x="68" y="132" style="fill:#666666;" width="16" height="8"/>
<rect x="72" y="132" style="fill:#737373;" width="8" height="8"/>
<rect x="88" y="132" style="fill:#666666;" width="16" height="8"/>
<rect x="92" y="132" style="fill:#737373;" width="8" height="8"/>
<rect x="108" y="132" style="fill:#666666;" width="16" height="8"/>
<rect x="112" y="132" style="fill:#737373;" width="8" height="8"/>
<rect x="128" y="132" style="fill:#666666;" width="16" height="8"/>
<rect x="132" y="132" style="fill:#737373;" width="8" height="8"/>
<polygon style="fill:#666666;" points="160,156 160,164 164,164 164,176 180,176 180,164 180,160 180,156 "/>
<rect x="168" y="156" style="fill:#737373;" width="8" height="20"/>
<rect x="72" y="192" style="fill:#737373;" width="80" height="8"/>
<rect x="56" y="192" style="fill:#737373;" width="12" height="8"/>
<rect x="44" y="192" style="fill:#737373;" width="8" height="8"/>
<rect x="156" y="192" style="fill:#737373;" width="8" height="8"/>
</svg>
