<svg xmlns="http://www.w3.org/2000/svg" xml:space="preserve" viewBox="0 0 256 256"><path d="M252 54c0-5.514-4.486-10-10-10H14C8.486 44 4 48.486 4 54v54c0 1.878.434 3.656 1.206 5.241a10 10 0 0 0-1.112 6.122l11.536 83.792A9.953 9.953 0 0 0 25.568 212h204.865a9.953 9.953 0 0 0 9.938-8.845l11.536-83.792a10 10 0 0 0-1.112-6.122 11.9 11.9 0 0 0 1.206-5.241zm-20.216 149.477" style="opacity:.5;fill:#fff"/><path d="M240 112H16a4 4 0 0 1-4-4V54a2 2 0 0 1 2-2h228a2 2 0 0 1 2 2v54a4 4 0 0 1-4 4" style="fill:#b3b3b3"/><path d="M16 56h224v56H16z" style="fill:#ccc"/><path d="M16 78h224v2H16zm0-4h224v2H16zm0-4h224v2H16zm0-4h224v2H16zm0-4h224v2H16zm0-4h224v2H16z" style="fill:#a6a6a6"/><path d="M196 56h36v24h-36z" style="fill:#bfbfbf"/><path d="M200 60h28v18h-28z" style="fill:#595959"/><path d="M214 72h6v4h-6z" style="fill:#737373"/><path d="M208 72h6v4h-6z" style="fill:gray"/><path d="M16 112h224v4H16z" style="fill:#999"/><path d="M230.432 204H25.568a2.004 2.004 0 0 1-1.997-1.819l-11.552-83.909A2.002 2.002 0 0 1 14.005 116h227.989a2 2 0 0 1 1.986 2.272l-11.552 83.909a2 2 0 0 1-1.996 1.819" style="fill:#a6a6a6"/><path d="M184 144h44v56h-44zm0-24h44v20h-44zm-136 0h96v20H48zm108 0h20v20h-20zM32 144h148v44H32z" style="fill:#8c8c8c"/><path d="M48 120h16v8H48z" style="fill:#666"/><path d="M52 120h8v8h-8z" style="fill:#737373"/><path d="M68 120h16v8H68z" style="fill:#666"/><path d="M72 120h8v8h-8z" style="fill:#737373"/><path d="M88 120h16v8H88z" style="fill:#666"/><path d="M92 120h8v8h-8z" style="fill:#737373"/><path d="M108 120h16v8h-16z" style="fill:#666"/><path d="M112 120h8v8h-8z" style="fill:#737373"/><path d="M128 120h16v8h-16z" style="fill:#666"/><path d="M132 120h8v8h-8z" style="fill:#737373"/><path d="M48 132h16v8H48z" style="fill:#666"/><path d="M52 132h8v8h-8zm-28-2h8v8h-8zm0 14h8v8h-8zm0 12h12v8H24zm4 12h12v8H28zm4 12h12v8H32z" style="fill:#737373"/><path d="M36 144h8v8h-8zm8 24h8v8h-8zm4 12h8v8h-8zm12 0h8v8h-8zm12 0h8v8h-8zm12 0h8v8h-8zm12 0h8v8h-8zm12 0h8v8h-8zm12 0h8v8h-8zm12 0h8v8h-8zm12 0h8v8h-8zm12 0h8v8h-8zM56 168h8v8h-8zm12 0h8v8h-8zm12 0h8v8h-8zm12 0h8v8h-8zm12 0h8v8h-8zm12 0h8v8h-8zm12 0h8v8h-8zm12 0h8v8h-8zm12 0h8v8h-8zM52 156h8v8h-8zm-12 0h8v8h-8zm24 0h8v8h-8zm12 0h8v8h-8zm12 0h8v8h-8zm12 0h8v8h-8zm12 0h8v8h-8zm12 0h8v8h-8zm12 0h8v8h-8zm12 0h8v8h-8zM48 144h8v8h-8zm12 0h8v8h-8zm12 0h8v8h-8zm12 0h8v8h-8zm12 0h8v8h-8zm12 0h8v8h-8zm12 0h8v8h-8zm12 0h8v8h-8zm12 0h8v8h-8zm12 0h8v8h-8z" style="fill:#999"/><path d="M168 144h12v8h-12zm0 36h12v8h-12zm-12-48h8v8h-8zm12 0h8v8h-8zm16 12h8v8h-8zm24 0h8v8h-8zm12 0h8v8h-8z" style="fill:#737373"/><path d="M184 156h8v8h-8zm24 0h8v8h-8z" style="fill:#999"/><path d="M220 156h8v8h-8z" style="fill:#737373"/><path d="M184 168h8v8h-8zm24 0h8v8h-8z" style="fill:#999"/><path d="M220 168h8v8h-8z" style="fill:#737373"/><path d="M184 180h8v8h-8z" style="fill:#999"/><path d="M196 144h8v8h-8z" style="fill:#737373"/><path d="M196 156h8v8h-8zm0 12h8v8h-8zm0 12h8v8h-8z" style="fill:#999"/><path d="M184 192h20v8h-20z" style="fill:#737373"/><path d="M208 180h8v8h-8zm0 12h8v8h-8z" style="fill:#999"/><path d="M220 180h8v20h-8zm-64-60h8v8h-8zm12 0h8v8h-8zm32 12h12v8h-12zm0-12h12v8h-12zm-16 12h12v8h-12zm0-12h12v8h-12zm32 12h12v8h-12zm0-12h12v8h-12z" style="fill:#737373"/><path d="M68 132h16v8H68z" style="fill:#666"/><path d="M72 132h8v8h-8z" style="fill:#737373"/><path d="M88 132h16v8H88z" style="fill:#666"/><path d="M92 132h8v8h-8z" style="fill:#737373"/><path d="M108 132h16v8h-16z" style="fill:#666"/><path d="M112 132h8v8h-8z" style="fill:#737373"/><path d="M128 132h16v8h-16z" style="fill:#666"/><path d="M132 132h8v8h-8z" style="fill:#737373"/><path d="M160 156v8h4v12h16v-20z" style="fill:#666"/><path d="M168 156h8v20h-8zm-96 36h80v8H72zm-16 0h12v8H56zm-12 0h8v8h-8zm112 0h8v8h-8z" style="fill:#737373"/></svg>