<svg xmlns="http://www.w3.org/2000/svg" xml:space="preserve" viewBox="0 0 256 256"><path d="M180 4H76v236c0 6.617 5.383 12 12 12h80c6.617 0 12-5.383 12-12z" style="opacity:.5;fill:#fff"/><path d="M168 244H88a4 4 0 0 1-4-4V12h88v228a4 4 0 0 1-4 4" style="fill:gray"/><path d="M135.924 52c1.146 0 2.076.929 2.076 2.076v107.849a2.076 2.076 0 0 1-2.076 2.076h-15.849a2.076 2.076 0 0 1-2.076-2.076V54.076c0-1.146.929-2.076 2.076-2.076zm0-4h-15.849a6.083 6.083 0 0 0-6.076 6.076v107.849a6.083 6.083 0 0 0 6.076 6.076h15.849a6.083 6.083 0 0 0 6.076-6.076V54.076A6.08 6.08 0 0 0 135.924 48M91 178h74v2H91zm0 4h74v2H91zm0 4h74v2H91zm0 4h74v2H91zm0 4h74v2H91z" style="fill:#666"/><path d="M135 208a1 1 0 0 1 1 1v14a1 1 0 0 1-1 1h-14a1 1 0 0 1-1-1v-14a1 1 0 0 1 1-1zm0-2h-14c-1.654 0-3 1.346-3 3v14c0 1.654 1.346 3 3 3h14c1.654 0 3-1.346 3-3v-14c0-1.654-1.346-3-3-3" style="fill:#737373"/><path d="M126 206h4v2h-4z" style="fill:#666"/><path d="M106 30a2 2 0 0 1 2 2v40a2 2 0 0 1-2 2H94a2 2 0 0 1-2-2V32a2 2 0 0 1 2-2zm0-2H94c-2.206 0-4 1.794-4 4v40c0 2.206 1.794 4 4 4h12c2.206 0 4-1.794 4-4V32c0-2.206-1.794-4-4-4" style="fill:#737373"/><path d="M98 28h4v2h-4z" style="fill:#666"/></svg>