<?xml version="1.0" encoding="iso-8859-1"?>
<!-- Generator: Adobe Illustrator 27.8.1, SVG Export Plug-In . SVG Version: 6.00 Build 0)  -->
<svg version="1.1" id="Layer_1" xmlns="http://www.w3.org/2000/svg" xmlns:xlink="http://www.w3.org/1999/xlink" x="0px" y="0px"
	 viewBox="0 0 256 256" style="enable-background:new 0 0 256 256;" xml:space="preserve">
<path style="opacity:0.5;fill:#FFFFFF;" d="M180,4h-8H84h-8v8v228c0,6.617,5.383,12,12,12h80c6.617,0,12-5.383,12-12V12V4L180,4z"/>
<path style="fill:#808080;" d="M168,244H88c-2.209,0-4-1.791-4-4V12h88v228C172,242.209,170.209,244,168,244z"/>
<path style="fill:#666666;" d="M135.924,52c1.146,0,2.076,0.929,2.076,2.076v107.849c0,1.146-0.929,2.076-2.076,2.076h-15.849
	c-1.146,0-2.076-0.929-2.076-2.076V54.076c0-1.146,0.929-2.076,2.076-2.076H135.924 M135.924,48h-15.849
	c-3.35,0-6.076,2.725-6.076,6.076v107.849c0,3.35,2.725,6.076,6.076,6.076h15.849c3.35,0,6.076-2.725,6.076-6.076V54.076
	C142,50.725,139.275,48,135.924,48L135.924,48z"/>
<g>
	<rect x="91" y="178" style="fill:#666666;" width="74" height="2"/>
</g>
<g>
	<rect x="91" y="182" style="fill:#666666;" width="74" height="2"/>
</g>
<g>
	<rect x="91" y="186" style="fill:#666666;" width="74" height="2"/>
</g>
<g>
	<rect x="91" y="190" style="fill:#666666;" width="74" height="2"/>
</g>
<g>
	<rect x="91" y="194" style="fill:#666666;" width="74" height="2"/>
</g>
<path style="fill:#737373;" d="M135,208c0.552,0,1,0.448,1,1v14c0,0.552-0.448,1-1,1h-14c-0.552,0-1-0.448-1-1v-14
	c0-0.552,0.448-1,1-1H135 M135,206h-14c-1.654,0-3,1.346-3,3v14c0,1.654,1.346,3,3,3h14c1.654,0,3-1.346,3-3v-14
	C138,207.346,136.654,206,135,206L135,206z"/>
<g>
	<rect x="126" y="206" style="fill:#666666;" width="4" height="2"/>
</g>
<path style="fill:#737373;" d="M106,30c1.105,0,2,0.895,2,2v40c0,1.105-0.895,2-2,2H94c-1.105,0-2-0.895-2-2V32c0-1.105,0.895-2,2-2
	H106 M106,28H94c-2.206,0-4,1.794-4,4v40c0,2.206,1.794,4,4,4h12c2.206,0,4-1.794,4-4V32C110,29.794,108.206,28,106,28L106,28z"/>
<g>
	<rect x="98" y="28" style="fill:#666666;" width="4" height="2"/>
</g>
</svg>
