<svg xmlns="http://www.w3.org/2000/svg" xml:space="preserve" width="330.667" height="224" viewBox="0 0 330.667 224"><defs><clipPath id="a" clipPathUnits="userSpaceOnUse"><path d="M0 256h256V0H0Z"/></clipPath><clipPath id="b" clipPathUnits="userSpaceOnUse"><path d="M4 212h248V44H4Z"/></clipPath><clipPath id="c" clipPathUnits="userSpaceOnUse"><path d="M0 256h256V0H0Z"/></clipPath></defs><g clip-path="url(#a)" transform="matrix(1.33333 0 0 -1.33333 -5.333 282.667)"><g clip-path="url(#b)" style="opacity:.5"><path d="M0 0h-232a8 8 0 0 1-8-8v-152a8 8 0 0 1 8-8H0a8 8 0 0 1 8 8V-8a8 8 0 0 1-8 8" style="fill:#fff;fill-opacity:1;fill-rule:nonzero;stroke:none" transform="translate(244 212)"/></g></g><path d="M0 0h-232v-152H0V-6.152z" style="fill:#7b0000;fill-opacity:1;fill-rule:nonzero;stroke:none" transform="matrix(1.33333 0 0 -1.33333 320 10.667)"/><g clip-path="url(#c)" transform="matrix(1.33333 0 0 -1.33333 -5.333 282.667)"><path d="M0 0h-206.499c-2.623 0-4.75 2.117-4.75 4.729v126.542c0 2.612 2.127 4.729 4.75 4.729H0c2.624 0 4.751-2.117 4.751-4.729V4.729C4.751 2.117 2.624 0 0 0" style="fill:#d9d9d9;fill-opacity:1;fill-rule:nonzero;stroke:none" transform="translate(231.249 60)"/><path d="M0 0h-122.348a4.83 4.83 0 0 0-4.826 4.835v98.33a4.83 4.83 0 0 0 4.826 4.835H0a4.83 4.83 0 0 0 4.826-4.835V4.835A4.83 4.83 0 0 0 0 0" style="fill:#ccc;fill-opacity:1;fill-rule:nonzero;stroke:none" transform="translate(189.174 80)"/><path d="M0 0h-104.326c-2.119 0-3.837-1.69-3.837-3.776v-68.448c0-2.086 1.718-3.776 3.837-3.776H0c2.119 0 3.837 1.69 3.837 3.776v68.448C3.837-1.69 2.119 0 0 0" style="fill:#7b0000;fill-opacity:1;fill-rule:nonzero;stroke:none" transform="translate(180.163 172)"/><path d="M0 0a2 2 0 1 0-4.001.001A2 2 0 0 0 0 0" style="fill:#191919;fill-opacity:1;fill-rule:nonzero;stroke:none" transform="translate(92 74)"/><path d="M0 0c-5.514 0-10-4.486-10-10s4.486-10 10-10 10 4.486 10 10S5.514 0 0 0" style="fill:#7b0000;fill-opacity:1;fill-rule:nonzero;stroke:none" transform="translate(38 104)"/><path d="M0 0a8 8 0 1 0-16 0A8 8 0 0 0 0 0" style="fill:red;fill-opacity:1;fill-rule:nonzero;stroke:none" transform="translate(46 94)"/><path d="M0 0c-5.514 0-10-4.486-10-10s4.486-10 10-10 10 4.486 10 10S5.514 0 0 0" style="fill:#7b0000;fill-opacity:1;fill-rule:nonzero;stroke:none" transform="translate(214 104)"/><path d="M0 0a8 8 0 1 0-16 0A8 8 0 0 0 0 0" style="fill:red;fill-opacity:1;fill-rule:nonzero;stroke:none" transform="translate(222 94)"/><path d="M0 0h-4.277c-3.232 0-5.862-2.691-5.862-6s2.63-6 5.862-6H0c3.232 0 5.861 2.691 5.861 6S3.232 0 0 0" style="fill:#7b0000;fill-opacity:1;fill-rule:nonzero;stroke:none" transform="translate(134.139 76)"/><path d="M0 0h-4.906c-1.959 0-3.547 1.697-3.547 3.79v.42C-8.453 6.303-6.865 8-4.906 8H0c1.959 0 3.547-1.697 3.547-3.79v-.42C3.547 1.697 1.959 0 0 0" style="fill:#8c8c8c;fill-opacity:1;fill-rule:nonzero;stroke:none" transform="translate(134.453 66)"/><path d="M0 0h-4.277c-3.233 0-5.862-2.691-5.862-6s2.629-6 5.862-6H0c3.232 0 5.861 2.691 5.861 6S3.232 0 0 0" style="fill:#7b0000;fill-opacity:1;fill-rule:nonzero;stroke:none" transform="translate(158.139 76)"/><path d="M0 0h-4.906c-1.959 0-3.547 1.697-3.547 3.79v.42C-8.453 6.303-6.865 8-4.906 8H0c1.959 0 3.547-1.697 3.547-3.79v-.42C3.547 1.697 1.959 0 0 0" style="fill:#8c8c8c;fill-opacity:1;fill-rule:nonzero;stroke:none" transform="translate(158.453 66)"/><path d="M0 0h-4.277c-3.233 0-5.862-2.691-5.862-6s2.629-6 5.862-6H0c3.232 0 5.861 2.691 5.861 6S3.232 0 0 0" style="fill:#7b0000;fill-opacity:1;fill-rule:nonzero;stroke:none" transform="translate(182.139 76)"/><path d="M0 0h-4.906c-1.959 0-3.547 1.697-3.547 3.79v.42C-8.453 6.303-6.865 8-4.906 8H0c1.959 0 3.547-1.697 3.547-3.79v-.42C3.547 1.697 1.959 0 0 0" style="fill:#8c8c8c;fill-opacity:1;fill-rule:nonzero;stroke:none" transform="translate(182.453 66)"/><path d="M180 100H76v68h104z" style="fill:#485915;fill-opacity:1;fill-rule:nonzero;stroke:none"/><path d="M48 168H28v16h20z" style="fill:#ccc;fill-opacity:1;fill-rule:nonzero;stroke:none"/></g></svg>