<?xml version="1.0" encoding="UTF-8" standalone="no"?>
<svg
   xmlns:dc="http://purl.org/dc/elements/1.1/"
   xmlns:cc="http://creativecommons.org/ns#"
   xmlns:rdf="http://www.w3.org/1999/02/22-rdf-syntax-ns#"
   xmlns:svg="http://www.w3.org/2000/svg"
   xmlns="http://www.w3.org/2000/svg"
   viewBox="0 0 330.66665 224"
   height="224"
   width="330.66666"
   xml:space="preserve"
   id="svg2"
   version="1.1"><metadata
     id="metadata8"><rdf:RDF><cc:Work
         rdf:about=""><dc:format>image/svg+xml</dc:format><dc:type
           rdf:resource="http://purl.org/dc/dcmitype/StillImage" /></cc:Work></rdf:RDF></metadata><defs
     id="defs6"><clipPath
       id="clipPath18"
       clipPathUnits="userSpaceOnUse"><path
         id="path16"
         d="M 0,256 H 256 V 0 H 0 Z" /></clipPath><clipPath
       id="clipPath26"
       clipPathUnits="userSpaceOnUse"><path
         id="path24"
         d="M 4,212 H 252 V 44 H 4 Z" /></clipPath><clipPath
       id="clipPath46"
       clipPathUnits="userSpaceOnUse"><path
         id="path44"
         d="M 0,256 H 256 V 0 H 0 Z" /></clipPath></defs><g
     transform="matrix(1.3333333,0,0,-1.3333333,-5.3333332,282.66666)"
     id="g10"><g
       id="g12"><g
         clip-path="url(#clipPath18)"
         id="g14"><g
           id="g20"><g
             id="g22" /><g
             id="g34"><g
               style="opacity:0.5"
               id="g32"
               clip-path="url(#clipPath26)"><g
                 id="g30"
                 transform="translate(244,212)"><path
                   id="path28"
                   style="fill:#ffffff;fill-opacity:1;fill-rule:nonzero;stroke:none"
                   d="M 0,0 H -6.121 -225.879 -232 c -4.418,0 -8,-3.582 -8,-8 V -14.152 -153.849 -160 c 0,-4.418 3.582,-8 8,-8 h 6.121 H -6.121 0 c 4.418,0 8,3.582 8,8 v 6.151 V -14.152 -8 C 8,-3.582 4.418,0 0,0" /></g></g></g></g></g></g><g
       transform="translate(244,204)"
       id="g36"><path
         id="path38"
         style="fill:#7b0000;fill-opacity:1;fill-rule:nonzero;stroke:none"
         d="M 0,0 H -6.121 -225.879 -232 V -6.152 -145.849 -152 h 6.121 H -6.121 0 v 6.151 139.697 z" /></g><g
       id="g40"><g
         clip-path="url(#clipPath46)"
         id="g42"><g
           transform="translate(231.249,60)"
           id="g48"><path
             id="path50"
             style="fill:#d9d9d9;fill-opacity:1;fill-rule:nonzero;stroke:none"
             d="m 0,0 h -206.499 c -2.623,0 -4.75,2.117 -4.75,4.729 v 126.542 c 0,2.612 2.127,4.729 4.75,4.729 L 0,136 c 2.624,0 4.751,-2.117 4.751,-4.729 V 4.729 C 4.751,2.117 2.624,0 0,0" /></g><g
           transform="translate(189.1738,80)"
           id="g52"><path
             id="path54"
             style="fill:#cccccc;fill-opacity:1;fill-rule:nonzero;stroke:none"
             d="m 0,0 h -122.348 c -2.665,0 -4.826,2.165 -4.826,4.835 v 98.33 c 0,2.67 2.161,4.835 4.826,4.835 L 0,108 c 2.665,0 4.826,-2.165 4.826,-4.835 V 4.835 C 4.826,2.165 2.665,0 0,0" /></g><g
           transform="translate(180.1631,172)"
           id="g56"><path
             id="path58"
             style="fill:#7b0000;fill-opacity:1;fill-rule:nonzero;stroke:none"
             d="m 0,0 h -104.326 c -2.119,0 -3.837,-1.69 -3.837,-3.776 v -68.448 c 0,-2.086 1.718,-3.776 3.837,-3.776 L 0,-76 c 2.119,0 3.837,1.69 3.837,3.776 V -3.776 C 3.837,-1.69 2.119,0 0,0" /></g><g
           transform="translate(92,74)"
           id="g60"><path
             id="path62"
             style="fill:#191919;fill-opacity:1;fill-rule:nonzero;stroke:none"
             d="m 0,0 c 0,-1.104 -0.896,-2 -2,-2 -1.104,0 -2,0.896 -2,2 0,1.104 0.896,2 2,2 1.104,0 2,-0.896 2,-2" /></g><g
           transform="translate(38,104)"
           id="g64"><path
             id="path66"
             style="fill:#7b0000;fill-opacity:1;fill-rule:nonzero;stroke:none"
             d="m 0,0 c -5.514,0 -10,-4.486 -10,-10 0,-5.514 4.486,-10 10,-10 5.514,0 10,4.486 10,10 C 10,-4.486 5.514,0 0,0" /></g><g
           transform="translate(46,94)"
           id="g68"><path
             id="path70"
             style="fill:#ff0000;fill-opacity:1;fill-rule:nonzero;stroke:none"
             d="m 0,0 c 0,-4.418 -3.582,-8 -8,-8 -4.418,0 -8,3.582 -8,8 0,4.418 3.582,8 8,8 4.418,0 8,-3.582 8,-8" /></g><g
           transform="translate(214,104)"
           id="g72"><path
             id="path74"
             style="fill:#7b0000;fill-opacity:1;fill-rule:nonzero;stroke:none"
             d="m 0,0 c -5.514,0 -10,-4.486 -10,-10 0,-5.514 4.486,-10 10,-10 5.514,0 10,4.486 10,10 C 10,-4.486 5.514,0 0,0" /></g><g
           transform="translate(222,94)"
           id="g76"><path
             id="path78"
             style="fill:#ff0000;fill-opacity:1;fill-rule:nonzero;stroke:none"
             d="m 0,0 c 0,-4.418 -3.582,-8 -8,-8 -4.418,0 -8,3.582 -8,8 0,4.418 3.582,8 8,8 4.418,0 8,-3.582 8,-8" /></g><g
           transform="translate(134.1387,76)"
           id="g80"><path
             id="path82"
             style="fill:#7b0000;fill-opacity:1;fill-rule:nonzero;stroke:none"
             d="m 0,0 h -4.277 c -3.232,0 -5.862,-2.691 -5.862,-6 0,-3.309 2.63,-6 5.862,-6 H 0 c 3.232,0 5.861,2.691 5.861,6 0,3.309 -2.629,6 -5.861,6" /></g><g
           transform="translate(134.4531,66)"
           id="g84"><path
             id="path86"
             style="fill:#8c8c8c;fill-opacity:1;fill-rule:nonzero;stroke:none"
             d="m 0,0 h -4.906 c -1.959,0 -3.547,1.697 -3.547,3.79 v 0.42 c 0,2.093 1.588,3.79 3.547,3.79 H 0 C 1.959,8 3.547,6.303 3.547,4.21 V 3.79 C 3.547,1.697 1.959,0 0,0" /></g><g
           transform="translate(158.1387,76)"
           id="g88"><path
             id="path90"
             style="fill:#7b0000;fill-opacity:1;fill-rule:nonzero;stroke:none"
             d="m 0,0 h -4.277 c -3.233,0 -5.862,-2.691 -5.862,-6 0,-3.309 2.629,-6 5.862,-6 H 0 c 3.232,0 5.861,2.691 5.861,6 0,3.309 -2.629,6 -5.861,6" /></g><g
           transform="translate(158.4531,66)"
           id="g92"><path
             id="path94"
             style="fill:#8c8c8c;fill-opacity:1;fill-rule:nonzero;stroke:none"
             d="m 0,0 h -4.906 c -1.959,0 -3.547,1.697 -3.547,3.79 v 0.42 c 0,2.093 1.588,3.79 3.547,3.79 H 0 C 1.959,8 3.547,6.303 3.547,4.21 V 3.79 C 3.547,1.697 1.959,0 0,0" /></g><g
           transform="translate(182.1387,76)"
           id="g96"><path
             id="path98"
             style="fill:#7b0000;fill-opacity:1;fill-rule:nonzero;stroke:none"
             d="m 0,0 h -4.277 c -3.233,0 -5.862,-2.691 -5.862,-6 0,-3.309 2.629,-6 5.862,-6 H 0 c 3.232,0 5.861,2.691 5.861,6 0,3.309 -2.629,6 -5.861,6" /></g><g
           transform="translate(182.4531,66)"
           id="g100"><path
             id="path102"
             style="fill:#8c8c8c;fill-opacity:1;fill-rule:nonzero;stroke:none"
             d="m 0,0 h -4.906 c -1.959,0 -3.547,1.697 -3.547,3.79 v 0.42 c 0,2.093 1.588,3.79 3.547,3.79 H 0 C 1.959,8 3.547,6.303 3.547,4.21 V 3.79 C 3.547,1.697 1.959,0 0,0" /></g><path
           id="path104"
           style="fill:#485915;fill-opacity:1;fill-rule:nonzero;stroke:none"
           d="M 180,100 H 76 v 68 h 104 z" /><path
           id="path106"
           style="fill:#cccccc;fill-opacity:1;fill-rule:nonzero;stroke:none"
           d="M 48,168 H 28 v 16 h 20 z" /></g></g></g></svg>