<?xml version="1.0" encoding="iso-8859-1"?>
<!-- Generator: Adobe Illustrator 27.8.1, SVG Export Plug-In . SVG Version: 6.00 Build 0)  -->
<svg version="1.1" id="Layer_1" xmlns="http://www.w3.org/2000/svg" xmlns:xlink="http://www.w3.org/1999/xlink" x="0px" y="0px"
	 viewBox="0 0 256 256" style="enable-background:new 0 0 256 256;" xml:space="preserve">
<path style="opacity:0.5;fill:#FFFFFF;" d="M235.206,67.756c-7.879-6.753-15.92-7.757-18.471-7.902l-11.196-1.599
	c-0.709-0.745-1.554-1.376-2.513-1.856l-6.001-3c-1.245-0.622-2.636-0.951-4.024-0.951c-1.674,0-3.242,0.459-4.586,1.259
	c-2.036-1.173-4.322-1.894-6.696-2.087l-40.958-3.33l-0.039-0.003l-0.039-0.003c-4.202-0.3-8.469-0.452-12.682-0.452
	s-8.48,0.152-12.682,0.452l-0.039,0.003l-0.039,0.003l-40.958,3.33c-3.779,0.307-7.336,1.953-10.017,4.634l-0.032,0.032
	l-24.968,3.57c-2.552,0.145-10.593,1.15-18.471,7.902C9.65,77.307,4,93.482,4,115.83v27.431c0,0.755,0.054,1.516,0.161,2.263
	l3.865,27.056c0.144,2.376,1.067,9.457,6.828,16.371c8.188,9.826,21.938,14.831,40.873,14.878l59.48,3.983l0.045,0.003l0.045,0.003
	c4.212,0.234,8.485,0.353,12.703,0.353c4.217,0,8.491-0.119,12.703-0.353l0.045-0.003l0.045-0.003l59.48-3.983
	c18.935-0.047,32.685-5.052,40.873-14.878c5.762-6.914,6.684-13.994,6.828-16.371l3.865-27.057c0.107-0.747,0.161-1.508,0.161-2.263
	V115.83C252,93.482,246.35,77.307,235.206,67.756z"/>
<path style="fill:#404040;" d="M199,68h-6c-0.552,0-1-0.448-1-1v-5.382c0-0.743,0.782-1.227,1.447-0.894l6,3
	c0.339,0.169,0.553,0.516,0.553,0.894V67C200,67.552,199.552,68,199,68z"/>
<path style="fill:#4D4D4D;" d="M216,68l-25.36-3.623c-1.714-0.245-3.301-1.039-4.525-2.263l-0.036-0.036
	c-1.342-1.342-3.117-2.163-5.009-2.317L140.112,56C132,56,124,56,115.888,56L74.93,59.762c-1.891,0.154-3.667,0.975-5.009,2.317
	l-0.036,0.036c-1.224,1.224-2.812,2.018-4.525,2.263L40,68c0,0-28,0-28,48v27.431c0,0.379,0.027,0.757,0.08,1.131L16,172
	c0,0,0,24,40,24l59.741,3.66c8.166,0.454,16.351,0.454,24.518,0L200,196c40,0,40-24,40-24l3.92-27.437
	c0.054-0.375,0.08-0.753,0.08-1.131V116C244,68,216,68,216,68z"/>
<circle style="fill:#262626;" cx="35" cy="85" r="1"/>
<circle style="fill:#262626;" cx="39" cy="85" r="1"/>
<circle style="fill:#262626;" cx="43" cy="85" r="1"/>
<circle style="fill:#262626;" cx="47" cy="85" r="1"/>
<circle style="fill:#262626;" cx="51" cy="85" r="1"/>
<circle style="fill:#262626;" cx="55" cy="85" r="1"/>
<circle style="fill:#262626;" cx="59" cy="85" r="1"/>
<circle style="fill:#262626;" cx="35" cy="89" r="1"/>
<circle style="fill:#262626;" cx="39" cy="89" r="1"/>
<circle style="fill:#262626;" cx="43" cy="89" r="1"/>
<circle style="fill:#262626;" cx="47" cy="89" r="1"/>
<circle style="fill:#262626;" cx="51" cy="89" r="1"/>
<circle style="fill:#262626;" cx="55" cy="89" r="1"/>
<circle style="fill:#262626;" cx="59" cy="89" r="1"/>
<circle style="fill:#262626;" cx="35" cy="93" r="1"/>
<circle style="fill:#262626;" cx="39" cy="93" r="1"/>
<circle style="fill:#262626;" cx="43" cy="93" r="1"/>
<circle style="fill:#262626;" cx="47" cy="93" r="1"/>
<circle style="fill:#262626;" cx="51" cy="93" r="1"/>
<circle style="fill:#262626;" cx="55" cy="93" r="1"/>
<circle style="fill:#262626;" cx="59" cy="93" r="1"/>
<circle style="fill:#262626;" cx="35" cy="97" r="1"/>
<circle style="fill:#262626;" cx="39" cy="97" r="1"/>
<circle style="fill:#262626;" cx="43" cy="97" r="1"/>
<circle style="fill:#262626;" cx="47" cy="97" r="1"/>
<circle style="fill:#262626;" cx="51" cy="97" r="1"/>
<circle style="fill:#262626;" cx="55" cy="97" r="1"/>
<circle style="fill:#262626;" cx="59" cy="97" r="1"/>
<circle style="fill:#262626;" cx="35" cy="101" r="1"/>
<circle style="fill:#262626;" cx="39" cy="101" r="1"/>
<circle style="fill:#262626;" cx="43" cy="101" r="1"/>
<circle style="fill:#262626;" cx="47" cy="101" r="1"/>
<circle style="fill:#262626;" cx="51" cy="101" r="1"/>
<circle style="fill:#262626;" cx="55" cy="101" r="1"/>
<circle style="fill:#262626;" cx="59" cy="101" r="1"/>
<circle style="fill:#262626;" cx="35" cy="105" r="1"/>
<circle style="fill:#262626;" cx="39" cy="105" r="1"/>
<circle style="fill:#262626;" cx="43" cy="105" r="1"/>
<circle style="fill:#262626;" cx="47" cy="105" r="1"/>
<circle style="fill:#262626;" cx="51" cy="105" r="1"/>
<circle style="fill:#262626;" cx="55" cy="105" r="1"/>
<circle style="fill:#262626;" cx="59" cy="105" r="1"/>
<circle style="fill:#262626;" cx="35" cy="109" r="1"/>
<circle style="fill:#262626;" cx="39" cy="109" r="1"/>
<circle style="fill:#262626;" cx="43" cy="109" r="1"/>
<circle style="fill:#262626;" cx="47" cy="109" r="1"/>
<circle style="fill:#262626;" cx="51" cy="109" r="1"/>
<circle style="fill:#262626;" cx="55" cy="109" r="1"/>
<circle style="fill:#262626;" cx="59" cy="109" r="1"/>
<g>
	<path style="fill:#404040;" d="M48,122c-12.131,0-22,9.869-22,22s9.869,22,22,22s22-9.869,22-22S60.131,122,48,122L48,122z"/>
	<circle style="fill:#FFFF00;" cx="48" cy="144" r="20"/>
</g>
<g>
	<path style="fill:#FFCB05;" d="M52,124.402V140h15.598c-0.138-0.68-0.312-1.347-0.517-2H54v-13.082
		C53.347,124.713,52.68,124.54,52,124.402z"/>
	<path style="fill:#FFCB05;" d="M52,148v15.598c0.68-0.138,1.347-0.312,2-0.517V150h13.082c0.205-0.653,0.379-1.32,0.517-2H52z"/>
	<path style="fill:#FFCB05;" d="M44,140v-15.598c-0.68,0.138-1.347,0.312-2,0.517V138H28.918c-0.205,0.653-0.379,1.32-0.517,2H44z"
		/>
	<path style="fill:#FFCB05;" d="M44,163.598V148H28.402c0.138,0.68,0.312,1.347,0.517,2H42v13.082
		C42.653,163.287,43.32,163.46,44,163.598z"/>
</g>
<circle style="fill:#FFCB05;" cx="48" cy="144" r="4"/>
<path style="fill:#404040;" d="M176.307,176.284l-47.08,3.622c-0.817,0.063-1.637,0.063-2.454,0l-47.08-3.622
	c-2.084-0.16-3.693-1.898-3.693-3.988V68c0-2.209,1.791-4,4-4h96c2.209,0,4,1.791,4,4v104.296
	C180,174.386,178.391,176.124,176.307,176.284z"/>
<path style="fill:#1A1C1D;" d="M172.332,168.306L129.329,172c-0.884,0.074-1.773,0.074-2.657,0l-43.003-3.694
	C81.595,168.133,80,166.4,80,164.319V72c0-2.209,1.791-4,4-4h88c2.209,0,4,1.791,4,4v92.319
	C176,166.4,174.405,168.133,172.332,168.306z"/>
<rect x="92" y="80" style="fill:#485915;" width="72" height="68"/>
<path style="fill:#404040;stroke:#404040;stroke-miterlimit:10;" d="M194,158L194,158c-3.111-3.111-3.111-8.202,0-11.314
	l16.353-16.353c3.111-3.111,8.202-3.111,11.314,0l0,0c3.111,3.111,3.111,8.202,0,11.314L205.314,158
	C202.202,161.111,197.111,161.111,194,158z"/>
<g>
	<circle style="fill:#FFFF00;" cx="200" cy="152" r="8"/>
</g>
<g>
	<circle style="fill:#FFFF00;" cx="216" cy="136" r="8"/>
</g>
<g>
	<path style="fill:#404040;" d="M202.002,90c-1.07,0-2.074,0.415-2.828,1.169l-5.657,5.657c-1.56,1.56-1.56,4.097,0,5.657
		c0.754,0.754,1.758,1.169,2.828,1.169s2.074-0.415,2.828-1.169l5.657-5.657c1.56-1.56,1.56-4.097,0-5.657
		C204.077,90.415,203.072,90,202.002,90L202.002,90z"/>
	<path style="fill:#D35400;" d="M203.417,95.412l-5.657,5.657c-0.778,0.778-2.051,0.778-2.828,0v0c-0.778-0.778-0.778-2.051,0-2.828
		l5.657-5.657c0.778-0.778,2.051-0.778,2.828,0v0C204.194,93.361,204.194,94.634,203.417,95.412z"/>
</g>
<g>
	<path style="fill:#404040;" d="M222.002,90c-1.07,0-2.074,0.415-2.828,1.169l-5.657,5.657c-1.56,1.56-1.56,4.097,0,5.657
		c0.754,0.754,1.758,1.169,2.828,1.169s2.074-0.415,2.828-1.169l5.657-5.657c1.56-1.56,1.56-4.097,0-5.657
		C224.077,90.415,223.072,90,222.002,90L222.002,90z"/>
	<path style="fill:#D35400;" d="M223.417,95.412l-5.657,5.657c-0.778,0.778-2.051,0.778-2.828,0v0c-0.778-0.778-0.778-2.051,0-2.828
		l5.657-5.657c0.778-0.778,2.051-0.778,2.828,0v0C224.194,93.361,224.194,94.634,223.417,95.412z"/>
</g>
<g>
	<path style="fill:#D35400;" d="M86,152V76c0-1.103,0.897-2,2-2h20v-2H88c-2.2,0-4,1.8-4,4v76c0,2.2,1.8,4,4,4h16v-2H88
		C86.897,154,86,153.103,86,152z"/>
	<path style="fill:#D35400;" d="M168,72h-20v2h20c1.103,0,2,0.897,2,2v76c0,1.103-0.897,2-2,2h-16v2h16c2.2,0,4-1.8,4-4V76
		C172,73.8,170.2,72,168,72z"/>
</g>
</svg>
