<svg xmlns="http://www.w3.org/2000/svg" xml:space="preserve" viewBox="0 0 256 256"><path d="M235.206 67.756c-7.879-6.753-15.92-7.757-18.471-7.902l-11.196-1.599a9 9 0 0 0-2.513-1.856l-6.001-3a9.05 9.05 0 0 0-4.024-.951 8.94 8.94 0 0 0-4.586 1.259 16 16 0 0 0-6.696-2.087l-40.958-3.33-.039-.003-.039-.003c-4.202-.3-8.469-.452-12.682-.452s-8.48.152-12.682.452l-.039.003-.039.003-40.958 3.33a16 16 0 0 0-10.017 4.634l-.032.032-24.968 3.57c-2.552.145-10.593 1.15-18.471 7.902C9.65 77.307 4 93.482 4 115.83v27.431c0 .755.054 1.516.161 2.263l3.865 27.056c.144 2.376 1.067 9.457 6.828 16.371 8.188 9.826 21.938 14.831 40.873 14.878l59.48 3.983.045.003.045.003c4.212.234 8.485.353 12.703.353 4.217 0 8.491-.119 12.703-.353l.045-.003.045-.003 59.48-3.983c18.935-.047 32.685-5.052 40.873-14.878 5.762-6.914 6.684-13.994 6.828-16.371l3.865-27.057a16 16 0 0 0 .161-2.263v-27.43c0-22.348-5.65-38.523-16.794-48.074" style="opacity:.5;fill:#fff"/><path d="M199 68h-6a1 1 0 0 1-1-1v-5.382a1 1 0 0 1 1.447-.894l6 3a1 1 0 0 1 .553.894V67a1 1 0 0 1-1 1" style="fill:#404040"/><path d="m216 68-25.36-3.623a8 8 0 0 1-4.525-2.263l-.036-.036a8 8 0 0 0-5.009-2.317L140.112 56h-24.224L74.93 59.762a8 8 0 0 0-5.009 2.317l-.036.036a8 8 0 0 1-4.525 2.263L40 68s-28 0-28 48v27.431q0 .57.08 1.131L16 172s0 24 40 24l59.741 3.66a221 221 0 0 0 24.518 0L200 196c40 0 40-24 40-24l3.92-27.437q.08-.563.08-1.131V116c0-48-28-48-28-48" style="fill:#4d4d4d"/><circle cx="35" cy="85" r="1" style="fill:#262626"/><circle cx="39" cy="85" r="1" style="fill:#262626"/><circle cx="43" cy="85" r="1" style="fill:#262626"/><circle cx="47" cy="85" r="1" style="fill:#262626"/><circle cx="51" cy="85" r="1" style="fill:#262626"/><circle cx="55" cy="85" r="1" style="fill:#262626"/><circle cx="59" cy="85" r="1" style="fill:#262626"/><circle cx="35" cy="89" r="1" style="fill:#262626"/><circle cx="39" cy="89" r="1" style="fill:#262626"/><circle cx="43" cy="89" r="1" style="fill:#262626"/><circle cx="47" cy="89" r="1" style="fill:#262626"/><circle cx="51" cy="89" r="1" style="fill:#262626"/><circle cx="55" cy="89" r="1" style="fill:#262626"/><circle cx="59" cy="89" r="1" style="fill:#262626"/><circle cx="35" cy="93" r="1" style="fill:#262626"/><circle cx="39" cy="93" r="1" style="fill:#262626"/><circle cx="43" cy="93" r="1" style="fill:#262626"/><circle cx="47" cy="93" r="1" style="fill:#262626"/><circle cx="51" cy="93" r="1" style="fill:#262626"/><circle cx="55" cy="93" r="1" style="fill:#262626"/><circle cx="59" cy="93" r="1" style="fill:#262626"/><circle cx="35" cy="97" r="1" style="fill:#262626"/><circle cx="39" cy="97" r="1" style="fill:#262626"/><circle cx="43" cy="97" r="1" style="fill:#262626"/><circle cx="47" cy="97" r="1" style="fill:#262626"/><circle cx="51" cy="97" r="1" style="fill:#262626"/><circle cx="55" cy="97" r="1" style="fill:#262626"/><circle cx="59" cy="97" r="1" style="fill:#262626"/><circle cx="35" cy="101" r="1" style="fill:#262626"/><circle cx="39" cy="101" r="1" style="fill:#262626"/><circle cx="43" cy="101" r="1" style="fill:#262626"/><circle cx="47" cy="101" r="1" style="fill:#262626"/><circle cx="51" cy="101" r="1" style="fill:#262626"/><circle cx="55" cy="101" r="1" style="fill:#262626"/><circle cx="59" cy="101" r="1" style="fill:#262626"/><circle cx="35" cy="105" r="1" style="fill:#262626"/><circle cx="39" cy="105" r="1" style="fill:#262626"/><circle cx="43" cy="105" r="1" style="fill:#262626"/><circle cx="47" cy="105" r="1" style="fill:#262626"/><circle cx="51" cy="105" r="1" style="fill:#262626"/><circle cx="55" cy="105" r="1" style="fill:#262626"/><circle cx="59" cy="105" r="1" style="fill:#262626"/><circle cx="35" cy="109" r="1" style="fill:#262626"/><circle cx="39" cy="109" r="1" style="fill:#262626"/><circle cx="43" cy="109" r="1" style="fill:#262626"/><circle cx="47" cy="109" r="1" style="fill:#262626"/><circle cx="51" cy="109" r="1" style="fill:#262626"/><circle cx="55" cy="109" r="1" style="fill:#262626"/><circle cx="59" cy="109" r="1" style="fill:#262626"/><path d="M48 122c-12.131 0-22 9.869-22 22s9.869 22 22 22 22-9.869 22-22-9.869-22-22-22" style="fill:#404040"/><circle cx="48" cy="144" r="20" style="fill:#ff0"/><path d="M52 124.402V140h15.598a20 20 0 0 0-.517-2H54v-13.082a20 20 0 0 0-2-.516M52 148v15.598q1.02-.208 2-.517V150h13.082q.309-.98.517-2zm-8-8v-15.598q-1.02.208-2 .517V138H28.918q-.309.98-.517 2zm0 23.598V148H28.402q.208 1.02.517 2H42v13.082q.98.308 2 .516" style="fill:#ffcb05"/><circle cx="48" cy="144" r="4" style="fill:#ffcb05"/><path d="m176.307 176.284-47.08 3.622q-1.227.094-2.454 0l-47.08-3.622A4 4 0 0 1 76 172.296V68a4 4 0 0 1 4-4h96a4 4 0 0 1 4 4v104.296a4 4 0 0 1-3.693 3.988" style="fill:#404040"/><path d="M172.332 168.306 129.329 172c-.884.074-1.773.074-2.657 0l-43.003-3.694A4 4 0 0 1 80 164.319V72a4 4 0 0 1 4-4h88a4 4 0 0 1 4 4v92.319a4 4 0 0 1-3.668 3.987" style="fill:#1a1c1d"/><path d="M92 80h72v68H92z" style="fill:#485915"/><path d="M194 158c-3.111-3.111-3.111-8.202 0-11.314l16.353-16.353c3.111-3.111 8.202-3.111 11.314 0s3.111 8.202 0 11.314L205.314 158c-3.112 3.111-8.203 3.111-11.314 0z" style="fill:#404040;stroke:#404040;stroke-miterlimit:10"/><circle cx="200" cy="152" r="8" style="fill:#ff0"/><circle cx="216" cy="136" r="8" style="fill:#ff0"/><path d="M202.002 90c-1.07 0-2.074.415-2.828 1.169l-5.657 5.657a4.004 4.004 0 0 0 0 5.657c.754.754 1.758 1.169 2.828 1.169s2.074-.415 2.828-1.169l5.657-5.657a4.004 4.004 0 0 0 0-5.657A3.97 3.97 0 0 0 202.002 90" style="fill:#404040"/><path d="m203.417 95.412-5.657 5.657a2.005 2.005 0 0 1-2.828 0 2.005 2.005 0 0 1 0-2.828l5.657-5.657a2.005 2.005 0 0 1 2.828 0c.777.777.777 2.05 0 2.828" style="fill:#d35400"/><path d="M222.002 90c-1.07 0-2.074.415-2.828 1.169l-5.657 5.657a4.004 4.004 0 0 0 0 5.657c.754.754 1.758 1.169 2.828 1.169s2.074-.415 2.828-1.169l5.657-5.657a4.004 4.004 0 0 0 0-5.657A3.97 3.97 0 0 0 222.002 90" style="fill:#404040"/><path d="m223.417 95.412-5.657 5.657a2.005 2.005 0 0 1-2.828 0 2.005 2.005 0 0 1 0-2.828l5.657-5.657a2.005 2.005 0 0 1 2.828 0c.777.777.777 2.05 0 2.828M86 152V76c0-1.103.897-2 2-2h20v-2H88c-2.2 0-4 1.8-4 4v76c0 2.2 1.8 4 4 4h16v-2H88c-1.103 0-2-.897-2-2m82-80h-20v2h20c1.103 0 2 .897 2 2v76c0 1.103-.897 2-2 2h-16v2h16c2.2 0 4-1.8 4-4V76c0-2.2-1.8-4-4-4" style="fill:#d35400"/></svg>