<svg xmlns="http://www.w3.org/2000/svg" xml:space="preserve" width="330.667" height="181.333" viewBox="0 0 330.667 181.333"><defs><clipPath id="a" clipPathUnits="userSpaceOnUse"><path d="M0 256h256V0H0Z"/></clipPath><clipPath id="b" clipPathUnits="userSpaceOnUse"><path d="M4 196h248V60H4Z"/></clipPath></defs><g clip-path="url(#a)" transform="matrix(1.33333 0 0 -1.33333 -5.333 261.333)"><g clip-path="url(#b)" style="opacity:.5"><path d="M0 0c-12.933 0-29.525-.924-44.795-1.833a8 8 0 0 1-4.629 1.125l-19.768-1.268a8 8 0 0 1-4.572-1.808c-8.872-.735-25.881-2.234-27.895-2.568-.799-.13-1.548-.24-2.24-.342-3.533-.519-6.87-1.009-9.936-3.353-3.818-2.918-5.212-7.319-6.071-11.239C-121.883-30.295-124-56.411-124-68c0-12.751 0-24.795 1.782-39.57.779-6.44 5.675-11.723 14.552-15.706 6.419-2.88 15.374-5.325 26.613-7.267C-60.388-134.113-32.361-136 0-136s60.387 1.887 81.051 5.457c11.24 1.942 20.194 4.387 26.613 7.267 8.876 3.982 13.773 9.265 14.554 15.7C124-92.795 124-80.751 124-68c0 11.568-2.119 37.676-4.097 46.704-.866 3.929-2.263 8.329-6.083 11.245-3.068 2.341-6.408 2.831-9.944 3.35-.693.102-1.444.211-2.258.344C97.967-5.746 22.687 0 0 0" style="fill:#fff;fill-opacity:1;fill-rule:nonzero;stroke:none" transform="translate(128 196)"/></g><path d="M0 0c-1.8 8.172-4.12 7.508-11.76 8.756-2.128.356-77.416 6.252-100.328 6.252-13.648 0-31.736-1.064-48.824-2.088l-.088 1.396-19.768-1.268.096-1.436c-5.928-.424-29.98-2.552-31.768-2.848-7.624-1.248-9.948-.584-11.74-8.756-1.792-8.168-3.908-33.4-3.908-45 0-12.54.004-24.348 1.724-38.612 1.728-14.276 52.408-21.388 114.276-21.388S.456-97.88 2.188-83.604c1.72 14.264 1.724 26.072 1.724 38.612C3.912-33.392 1.788-8.16 0 0" style="fill:#333;fill-opacity:1;fill-rule:nonzero;stroke:none" transform="translate(240.088 172.992)"/><path d="M0 0c-1.594 8.24-27.702 9.007-27.702 9.007h-87.843S-141.653 8.24-143.247 0s2.391-14.373 2.391-14.373l14.35-40.052s2.989-12.073 23.118-12.457c7.803-.148 55.726-.148 63.529 0 20.129.384 23.118 12.457 23.118 12.457l14.349 40.052S1.594-8.24 0 0" style="fill:#0d0d0d;fill-opacity:1;fill-rule:nonzero;stroke:none" transform="translate(199.624 170.993)"/><path d="M0 0h-80v-60H0v54.693z" style="fill:#191919;fill-opacity:1;fill-rule:nonzero;stroke:none" transform="translate(168 176)"/><path d="M164 120H92v52h72z" style="fill:#0d0d0d;fill-opacity:1;fill-rule:nonzero;stroke:none"/><path d="M0 0a1 1 0 1 0-2 0 1 1 0 0 0 2 0" style="fill:red;fill-opacity:1;fill-rule:nonzero;stroke:none" transform="translate(76 151)"/><path d="M0 0c2.701-2.251-5.627-12.84-18.602-23.651-12.974-10.812-25.68-17.752-28.381-15.502-2.701 2.251 5.627 12.84 18.601 23.652C-15.408-4.69-2.701 2.251 0 0" style="fill:#262626;fill-opacity:1;fill-rule:nonzero;stroke:none" transform="translate(239.492 147.576)"/><path d="M0 0a8 8 0 1 0-16 0A8 8 0 0 0 0 0" style="fill:#404040;fill-opacity:1;fill-rule:nonzero;stroke:none" transform="translate(216 132)"/><path d="M0 0a8 8 0 1 0-16 0A8 8 0 0 0 0 0" style="fill:#404040;fill-opacity:1;fill-rule:nonzero;stroke:none" transform="translate(232 144)"/><path d="m0 0-3.857-11.235c.77-.472 1.64-.765 2.579-.765 2.994 0 5.421 2.728 5.421 6.094C4.143-3.037 2.375-.648 0 0" style="fill:#4b5da7;fill-opacity:1;fill-rule:nonzero;stroke:none" transform="translate(207.857 169.205)"/><path d="m0 0-.404.002h-58.6c-26.003 0-30.598 15.212-30.779 15.859l-26.653 71.98 2.271.159 26.681-71.406c.196-.661 4.413-14.2 28.48-14.2H-.378c.26-.031 22.828-.302 28.487 14.219C34.075 31.915 53.078 87.435 53.269 88l2.295-.127c-.193-.567-19.213-56.768-25.198-72.12C24.459.6 3.305 0 0 0" style="fill:#262626;fill-opacity:1;fill-rule:nonzero;stroke:none" transform="translate(156.436 95)"/><path d="M0 0a1 1 0 1 0-2 0 1 1 0 0 0 2 0" style="fill:#262626;fill-opacity:1;fill-rule:nonzero;stroke:none" transform="translate(42 99)"/><path d="M0 0a1 1 0 1 0-2 0 1 1 0 0 0 2 0" style="fill:#262626;fill-opacity:1;fill-rule:nonzero;stroke:none" transform="translate(46 99)"/><path d="M0 0a1 1 0 1 0-2 0 1 1 0 0 0 2 0" style="fill:#262626;fill-opacity:1;fill-rule:nonzero;stroke:none" transform="translate(50 99)"/><path d="M0 0a1 1 0 1 0-2 0 1 1 0 0 0 2 0" style="fill:#262626;fill-opacity:1;fill-rule:nonzero;stroke:none" transform="translate(54 99)"/><path d="M0 0a1 1 0 1 0-2 0 1 1 0 0 0 2 0" style="fill:#262626;fill-opacity:1;fill-rule:nonzero;stroke:none" transform="translate(58 99)"/><path d="M0 0a1 1 0 1 0-2 0 1 1 0 0 0 2 0" style="fill:#262626;fill-opacity:1;fill-rule:nonzero;stroke:none" transform="translate(62 99)"/><path d="M0 0a1 1 0 1 0-2 0 1 1 0 0 0 2 0" style="fill:#262626;fill-opacity:1;fill-rule:nonzero;stroke:none" transform="translate(42 95)"/><path d="M0 0a1 1 0 1 0-2 0 1 1 0 0 0 2 0" style="fill:#262626;fill-opacity:1;fill-rule:nonzero;stroke:none" transform="translate(46 95)"/><path d="M0 0a1 1 0 1 0-2 0 1 1 0 0 0 2 0" style="fill:#262626;fill-opacity:1;fill-rule:nonzero;stroke:none" transform="translate(50 95)"/><path d="M0 0a1 1 0 1 0-2 0 1 1 0 0 0 2 0" style="fill:#262626;fill-opacity:1;fill-rule:nonzero;stroke:none" transform="translate(54 95)"/><path d="M0 0a1 1 0 1 0-2 0 1 1 0 0 0 2 0" style="fill:#262626;fill-opacity:1;fill-rule:nonzero;stroke:none" transform="translate(58 95)"/><path d="M0 0a1 1 0 1 0-2 0 1 1 0 0 0 2 0" style="fill:#262626;fill-opacity:1;fill-rule:nonzero;stroke:none" transform="translate(62 95)"/><path d="M0 0a1 1 0 1 0-2 0 1 1 0 0 0 2 0" style="fill:#262626;fill-opacity:1;fill-rule:nonzero;stroke:none" transform="translate(42 91)"/><path d="M0 0a1 1 0 1 0-2 0 1 1 0 0 0 2 0" style="fill:#262626;fill-opacity:1;fill-rule:nonzero;stroke:none" transform="translate(46 91)"/><path d="M0 0a1 1 0 1 0-2 0 1 1 0 0 0 2 0" style="fill:#262626;fill-opacity:1;fill-rule:nonzero;stroke:none" transform="translate(50 91)"/><path d="M0 0a1 1 0 1 0-2 0 1 1 0 0 0 2 0" style="fill:#262626;fill-opacity:1;fill-rule:nonzero;stroke:none" transform="translate(54 91)"/><path d="M0 0a1 1 0 1 0-2 0 1 1 0 0 0 2 0" style="fill:#262626;fill-opacity:1;fill-rule:nonzero;stroke:none" transform="translate(58 91)"/><path d="M0 0a1 1 0 1 0-2 0 1 1 0 0 0 2 0" style="fill:#262626;fill-opacity:1;fill-rule:nonzero;stroke:none" transform="translate(62 91)"/><path d="M0 0a1 1 0 1 0-2 0 1 1 0 0 0 2 0" style="fill:#262626;fill-opacity:1;fill-rule:nonzero;stroke:none" transform="translate(42 87)"/><path d="M0 0a1 1 0 1 0-2 0 1 1 0 0 0 2 0" style="fill:#262626;fill-opacity:1;fill-rule:nonzero;stroke:none" transform="translate(38 95)"/><path d="M0 0a1 1 0 1 0-2 0 1 1 0 0 0 2 0" style="fill:#262626;fill-opacity:1;fill-rule:nonzero;stroke:none" transform="translate(38 91)"/><path d="M0 0a1 1 0 1 0-2 0 1 1 0 0 0 2 0" style="fill:#262626;fill-opacity:1;fill-rule:nonzero;stroke:none" transform="translate(38 87)"/><path d="M0 0a1 1 0 1 0-2 0 1 1 0 0 0 2 0" style="fill:#262626;fill-opacity:1;fill-rule:nonzero;stroke:none" transform="translate(46 87)"/><path d="M0 0a1 1 0 1 0-2 0 1 1 0 0 0 2 0" style="fill:#262626;fill-opacity:1;fill-rule:nonzero;stroke:none" transform="translate(50 87)"/><path d="M0 0a1 1 0 1 0-2 0 1 1 0 0 0 2 0" style="fill:#262626;fill-opacity:1;fill-rule:nonzero;stroke:none" transform="translate(54 87)"/><path d="M0 0a1 1 0 1 0-2 0 1 1 0 0 0 2 0" style="fill:#262626;fill-opacity:1;fill-rule:nonzero;stroke:none" transform="translate(58 87)"/><path d="M0 0a1 1 0 1 0-2 0 1 1 0 0 0 2 0" style="fill:#262626;fill-opacity:1;fill-rule:nonzero;stroke:none" transform="translate(62 87)"/><path d="M0 0a1 1 0 1 0-2 0 1 1 0 0 0 2 0" style="fill:#262626;fill-opacity:1;fill-rule:nonzero;stroke:none" transform="translate(66 95)"/><path d="M0 0a1 1 0 1 0-2 0 1 1 0 0 0 2 0" style="fill:#262626;fill-opacity:1;fill-rule:nonzero;stroke:none" transform="translate(66 91)"/><path d="M0 0a1 1 0 1 0-2 0 1 1 0 0 0 2 0" style="fill:#262626;fill-opacity:1;fill-rule:nonzero;stroke:none" transform="translate(66 87)"/><path d="M0 0a1 1 0 1 0-2 0 1 1 0 0 0 2 0" style="fill:#262626;fill-opacity:1;fill-rule:nonzero;stroke:none" transform="translate(42 83)"/><path d="M0 0a1 1 0 1 0-2 0 1 1 0 0 0 2 0" style="fill:#262626;fill-opacity:1;fill-rule:nonzero;stroke:none" transform="translate(46 83)"/><path d="M0 0a1 1 0 1 0-2 0 1 1 0 0 0 2 0" style="fill:#262626;fill-opacity:1;fill-rule:nonzero;stroke:none" transform="translate(50 83)"/><path d="M0 0a1 1 0 1 0-2 0 1 1 0 0 0 2 0" style="fill:#262626;fill-opacity:1;fill-rule:nonzero;stroke:none" transform="translate(54 83)"/><path d="M0 0a1 1 0 1 0-2 0 1 1 0 0 0 2 0" style="fill:#262626;fill-opacity:1;fill-rule:nonzero;stroke:none" transform="translate(58 83)"/><path d="M0 0a1 1 0 1 0-2 0 1 1 0 0 0 2 0" style="fill:#262626;fill-opacity:1;fill-rule:nonzero;stroke:none" transform="translate(62 83)"/><path d="M0 0c-8.822 0-16-7.178-16-16s7.178-16 16-16 16 7.178 16 16S8.822 0 0 0" style="fill:#404040;fill-opacity:1;fill-rule:nonzero;stroke:none" transform="translate(36 152)"/><path d="M0 0c0-7.732-6.268-14-14-14S-28-7.732-28 0s6.268 14 14 14S0 7.732 0 0" style="fill:#262626;fill-opacity:1;fill-rule:nonzero;stroke:none" transform="translate(50 136)"/><path d="m0 0 4.031 3.527v4.507C4.031 9.12 3.025 10 1.784 10h-3.506c-1.241 0-2.247-.88-2.247-1.966V3.473Z" style="fill:#333;fill-opacity:1;fill-rule:nonzero;stroke:none" transform="translate(35.969 138)"/><path d="m0 0-3.471 3.968h-4.563C-9.12 3.968-10 2.962-10 1.721v-3.506c0-1.241.88-2.247 1.966-2.247h4.507z" style="fill:#333;fill-opacity:1;fill-rule:nonzero;stroke:none" transform="translate(34 136.032)"/><path d="M0 0h-4.592l-3.453-3.968L-4.537-8H0c1.08 0 1.955 1.006 1.955 2.247v3.506C1.955-1.006 1.08 0 0 0" style="fill:#333;fill-opacity:1;fill-rule:nonzero;stroke:none" transform="translate(46.045 140)"/><path d="m0 0-3.969-3.453v-4.592c0-1.08 1.006-1.955 2.247-1.955h3.506c1.241 0 2.247.875 2.247 1.955v4.538z" style="fill:#333;fill-opacity:1;fill-rule:nonzero;stroke:none" transform="translate(35.969 134)"/><path d="m0 0 2.935-2.935L1.869-4l-2.934 2.935Z" style="fill:#333;fill-opacity:1;fill-rule:nonzero;stroke:none" transform="translate(26.853 145.76)"/><path d="m0 0-2.935 2.935L-1.869 4l2.934-2.935Z" style="fill:#333;fill-opacity:1;fill-rule:nonzero;stroke:none" transform="translate(45.147 126.24)"/><path d="m0 0 2.935 2.935L4 1.869 1.065-1.065Z" style="fill:#333;fill-opacity:1;fill-rule:nonzero;stroke:none" transform="translate(42.213 142.825)"/><path d="m0 0-2.935-2.935L-4-1.869l2.935 2.934Z" style="fill:#333;fill-opacity:1;fill-rule:nonzero;stroke:none" transform="translate(29.787 129.175)"/><path d="M0 0s.839-20.217-19.866-31.998C-18.17-30.983 1.959-30.533 0 0" style="fill:#404040;fill-opacity:1;fill-rule:nonzero;stroke:none" transform="translate(55.866 136)"/></g></svg>