<svg xmlns="http://www.w3.org/2000/svg" xml:space="preserve" width="330.667" height="128" viewBox="0 0 330.667 128"><defs><clipPath id="a" clipPathUnits="userSpaceOnUse"><path d="M0 256h256V0H0Z"/></clipPath><clipPath id="b" clipPathUnits="userSpaceOnUse"><path d="M4 176h248V80H4Z"/></clipPath><clipPath id="c" clipPathUnits="userSpaceOnUse"><path d="M0 256h256V0H0Z"/></clipPath></defs><g clip-path="url(#a)" transform="matrix(1.33333 0 0 -1.33333 -5.333 234.667)"><g clip-path="url(#b)" style="opacity:.5"><path d="M0 0h-220v-20h-20v-56h20v-20H8V0z" style="fill:#fff;fill-opacity:1;fill-rule:nonzero;stroke:none" transform="translate(244 176)"/></g></g><path d="M244 88H32v80h212z" style="fill:#e6e6e6;fill-opacity:1;fill-rule:nonzero;stroke:none" transform="matrix(1.33333 0 0 -1.33333 -5.333 234.667)"/><path d="M32 108H12v40h20z" style="fill:#8c8c8c;fill-opacity:1;fill-rule:nonzero;stroke:none" transform="matrix(1.33333 0 0 -1.33333 -5.333 234.667)"/><path d="M32 108H12v8h20z" style="fill:gray;fill-opacity:1;fill-rule:nonzero;stroke:none" transform="matrix(1.33333 0 0 -1.33333 -5.333 234.667)"/><path d="M32 140H12v8h20z" style="fill:#999;fill-opacity:1;fill-rule:nonzero;stroke:none" transform="matrix(1.33333 0 0 -1.33333 -5.333 234.667)"/><path d="M44 88h-4v80h4z" style="fill:#ccc;fill-opacity:1;fill-rule:nonzero;stroke:none" transform="matrix(1.33333 0 0 -1.33333 -5.333 234.667)"/><g clip-path="url(#c)" transform="matrix(1.33333 0 0 -1.33333 -5.333 234.667)"><path d="M0 0a1 1 0 1 0-2 0 1 1 0 0 0 2 0" style="fill:#ccc;fill-opacity:1;fill-rule:nonzero;stroke:none" transform="translate(74 153)"/><path d="M0 0a1 1 0 1 0-2 0 1 1 0 0 0 2 0" style="fill:#ccc;fill-opacity:1;fill-rule:nonzero;stroke:none" transform="translate(78 153)"/><path d="M0 0a1 1 0 1 0-2 0 1 1 0 0 0 2 0" style="fill:#ccc;fill-opacity:1;fill-rule:nonzero;stroke:none" transform="translate(82 153)"/><path d="M0 0a1 1 0 1 0-2 0 1 1 0 0 0 2 0" style="fill:#ccc;fill-opacity:1;fill-rule:nonzero;stroke:none" transform="translate(86 153)"/><path d="M0 0a1 1 0 1 0-2 0 1 1 0 0 0 2 0" style="fill:#ccc;fill-opacity:1;fill-rule:nonzero;stroke:none" transform="translate(90 153)"/><path d="M0 0a1 1 0 1 0-2 0 1 1 0 0 0 2 0" style="fill:#ccc;fill-opacity:1;fill-rule:nonzero;stroke:none" transform="translate(94 153)"/><path d="M0 0a1 1 0 1 0-2 0 1 1 0 0 0 2 0" style="fill:#ccc;fill-opacity:1;fill-rule:nonzero;stroke:none" transform="translate(98 153)"/><path d="M0 0a1 1 0 1 0-2 0 1 1 0 0 0 2 0" style="fill:#ccc;fill-opacity:1;fill-rule:nonzero;stroke:none" transform="translate(102 153)"/><path d="M0 0a1 1 0 1 0-2 0 1 1 0 0 0 2 0" style="fill:#ccc;fill-opacity:1;fill-rule:nonzero;stroke:none" transform="translate(106 153)"/><path d="M0 0a1 1 0 1 0-2 0 1 1 0 0 0 2 0" style="fill:#ccc;fill-opacity:1;fill-rule:nonzero;stroke:none" transform="translate(110 153)"/><path d="M0 0a1 1 0 1 0-2 0 1 1 0 0 0 2 0" style="fill:#ccc;fill-opacity:1;fill-rule:nonzero;stroke:none" transform="translate(114 153)"/><path d="M0 0a1 1 0 1 0-2 0 1 1 0 0 0 2 0" style="fill:#ccc;fill-opacity:1;fill-rule:nonzero;stroke:none" transform="translate(118 153)"/><path d="M0 0a1 1 0 1 0-2 0 1 1 0 0 0 2 0" style="fill:#ccc;fill-opacity:1;fill-rule:nonzero;stroke:none" transform="translate(122 153)"/><path d="M0 0a1 1 0 1 0-2 0 1 1 0 0 0 2 0" style="fill:#ccc;fill-opacity:1;fill-rule:nonzero;stroke:none" transform="translate(126 153)"/><path d="M0 0a1 1 0 1 0-2 0 1 1 0 0 0 2 0" style="fill:#ccc;fill-opacity:1;fill-rule:nonzero;stroke:none" transform="translate(130 153)"/><path d="M0 0a1 1 0 1 0-2 0 1 1 0 0 0 2 0" style="fill:#ccc;fill-opacity:1;fill-rule:nonzero;stroke:none" transform="translate(134 153)"/><path d="M0 0a1 1 0 1 0-2 0 1 1 0 0 0 2 0" style="fill:#ccc;fill-opacity:1;fill-rule:nonzero;stroke:none" transform="translate(138 153)"/><path d="M0 0a1 1 0 1 0-2 0 1 1 0 0 0 2 0" style="fill:#ccc;fill-opacity:1;fill-rule:nonzero;stroke:none" transform="translate(142 153)"/><path d="M0 0a1 1 0 1 0-2 0 1 1 0 0 0 2 0" style="fill:#ccc;fill-opacity:1;fill-rule:nonzero;stroke:none" transform="translate(146 153)"/><path d="M0 0a1 1 0 1 0-2 0 1 1 0 0 0 2 0" style="fill:#ccc;fill-opacity:1;fill-rule:nonzero;stroke:none" transform="translate(150 153)"/><path d="M0 0a1 1 0 1 0-2 0 1 1 0 0 0 2 0" style="fill:#ccc;fill-opacity:1;fill-rule:nonzero;stroke:none" transform="translate(154 153)"/><path d="M0 0a1 1 0 1 0-2 0 1 1 0 0 0 2 0" style="fill:#ccc;fill-opacity:1;fill-rule:nonzero;stroke:none" transform="translate(158 153)"/><path d="M0 0a1 1 0 1 0-2 0 1 1 0 0 0 2 0" style="fill:#ccc;fill-opacity:1;fill-rule:nonzero;stroke:none" transform="translate(162 153)"/><path d="M0 0a1 1 0 1 0-2 0 1 1 0 0 0 2 0" style="fill:#ccc;fill-opacity:1;fill-rule:nonzero;stroke:none" transform="translate(166 153)"/><path d="M0 0a1 1 0 1 0-2 0 1 1 0 0 0 2 0" style="fill:#ccc;fill-opacity:1;fill-rule:nonzero;stroke:none" transform="translate(170 153)"/><path d="M0 0a1 1 0 1 0-2 0 1 1 0 0 0 2 0" style="fill:#ccc;fill-opacity:1;fill-rule:nonzero;stroke:none" transform="translate(174 153)"/><path d="M0 0a1 1 0 1 0-2 0 1 1 0 0 0 2 0" style="fill:#ccc;fill-opacity:1;fill-rule:nonzero;stroke:none" transform="translate(178 153)"/><path d="M0 0a1 1 0 1 0-2 0 1 1 0 0 0 2 0" style="fill:#ccc;fill-opacity:1;fill-rule:nonzero;stroke:none" transform="translate(182 153)"/><path d="M0 0a1 1 0 1 0-2 0 1 1 0 0 0 2 0" style="fill:#ccc;fill-opacity:1;fill-rule:nonzero;stroke:none" transform="translate(186 153)"/><path d="M0 0a1 1 0 1 0-2 0 1 1 0 0 0 2 0" style="fill:#ccc;fill-opacity:1;fill-rule:nonzero;stroke:none" transform="translate(190 153)"/><path d="M0 0a1 1 0 1 0-2 0 1 1 0 0 0 2 0" style="fill:#ccc;fill-opacity:1;fill-rule:nonzero;stroke:none" transform="translate(194 153)"/><path d="M0 0a1 1 0 1 0-2 0 1 1 0 0 0 2 0" style="fill:#ccc;fill-opacity:1;fill-rule:nonzero;stroke:none" transform="translate(198 153)"/><path d="M0 0a1 1 0 1 0-2 0 1 1 0 0 0 2 0" style="fill:#ccc;fill-opacity:1;fill-rule:nonzero;stroke:none" transform="translate(202 153)"/><path d="M0 0a1 1 0 1 0-2 0 1 1 0 0 0 2 0" style="fill:#ccc;fill-opacity:1;fill-rule:nonzero;stroke:none" transform="translate(206 153)"/><path d="M0 0a1 1 0 1 0-2 0 1 1 0 0 0 2 0" style="fill:#ccc;fill-opacity:1;fill-rule:nonzero;stroke:none" transform="translate(210 153)"/><path d="M0 0a1 1 0 1 0-2 0 1 1 0 0 0 2 0" style="fill:#ccc;fill-opacity:1;fill-rule:nonzero;stroke:none" transform="translate(214 153)"/><path d="M0 0a1 1 0 1 0-2 0 1 1 0 0 0 2 0" style="fill:#ccc;fill-opacity:1;fill-rule:nonzero;stroke:none" transform="translate(76 149)"/><path d="M0 0a1 1 0 1 0-2 0 1 1 0 0 0 2 0" style="fill:#ccc;fill-opacity:1;fill-rule:nonzero;stroke:none" transform="translate(80 149)"/><path d="M0 0a1 1 0 1 0-2 0 1 1 0 0 0 2 0" style="fill:#ccc;fill-opacity:1;fill-rule:nonzero;stroke:none" transform="translate(84 149)"/><path d="M0 0a1 1 0 1 0-2 0 1 1 0 0 0 2 0" style="fill:#ccc;fill-opacity:1;fill-rule:nonzero;stroke:none" transform="translate(88 149)"/><path d="M0 0a1 1 0 1 0-2 0 1 1 0 0 0 2 0" style="fill:#ccc;fill-opacity:1;fill-rule:nonzero;stroke:none" transform="translate(92 149)"/><path d="M0 0a1 1 0 1 0-2 0 1 1 0 0 0 2 0" style="fill:#ccc;fill-opacity:1;fill-rule:nonzero;stroke:none" transform="translate(96 149)"/><path d="M0 0a1 1 0 1 0-2 0 1 1 0 0 0 2 0" style="fill:#ccc;fill-opacity:1;fill-rule:nonzero;stroke:none" transform="translate(100 149)"/><path d="M0 0a1 1 0 1 0-2 0 1 1 0 0 0 2 0" style="fill:#ccc;fill-opacity:1;fill-rule:nonzero;stroke:none" transform="translate(104 149)"/><path d="M0 0a1 1 0 1 0-2 0 1 1 0 0 0 2 0" style="fill:#ccc;fill-opacity:1;fill-rule:nonzero;stroke:none" transform="translate(108 149)"/><path d="M0 0a1 1 0 1 0-2 0 1 1 0 0 0 2 0" style="fill:#ccc;fill-opacity:1;fill-rule:nonzero;stroke:none" transform="translate(112 149)"/><path d="M0 0a1 1 0 1 0-2 0 1 1 0 0 0 2 0" style="fill:#ccc;fill-opacity:1;fill-rule:nonzero;stroke:none" transform="translate(116 149)"/><path d="M0 0a1 1 0 1 0-2 0 1 1 0 0 0 2 0" style="fill:#ccc;fill-opacity:1;fill-rule:nonzero;stroke:none" transform="translate(120 149)"/><path d="M0 0a1 1 0 1 0-2 0 1 1 0 0 0 2 0" style="fill:#ccc;fill-opacity:1;fill-rule:nonzero;stroke:none" transform="translate(124 149)"/><path d="M0 0a1 1 0 1 0-2 0 1 1 0 0 0 2 0" style="fill:#ccc;fill-opacity:1;fill-rule:nonzero;stroke:none" transform="translate(128 149)"/><path d="M0 0a1 1 0 1 0-2 0 1 1 0 0 0 2 0" style="fill:#ccc;fill-opacity:1;fill-rule:nonzero;stroke:none" transform="translate(132 149)"/><path d="M0 0a1 1 0 1 0-2 0 1 1 0 0 0 2 0" style="fill:#ccc;fill-opacity:1;fill-rule:nonzero;stroke:none" transform="translate(136 149)"/><path d="M0 0a1 1 0 1 0-2 0 1 1 0 0 0 2 0" style="fill:#ccc;fill-opacity:1;fill-rule:nonzero;stroke:none" transform="translate(140 149)"/><path d="M0 0a1 1 0 1 0-2 0 1 1 0 0 0 2 0" style="fill:#ccc;fill-opacity:1;fill-rule:nonzero;stroke:none" transform="translate(144 149)"/><path d="M0 0a1 1 0 1 0-2 0 1 1 0 0 0 2 0" style="fill:#ccc;fill-opacity:1;fill-rule:nonzero;stroke:none" transform="translate(148 149)"/><path d="M0 0a1 1 0 1 0-2 0 1 1 0 0 0 2 0" style="fill:#ccc;fill-opacity:1;fill-rule:nonzero;stroke:none" transform="translate(152 149)"/><path d="M0 0a1 1 0 1 0-2 0 1 1 0 0 0 2 0" style="fill:#ccc;fill-opacity:1;fill-rule:nonzero;stroke:none" transform="translate(156 149)"/><path d="M0 0a1 1 0 1 0-2 0 1 1 0 0 0 2 0" style="fill:#ccc;fill-opacity:1;fill-rule:nonzero;stroke:none" transform="translate(160 149)"/><path d="M0 0a1 1 0 1 0-2 0 1 1 0 0 0 2 0" style="fill:#ccc;fill-opacity:1;fill-rule:nonzero;stroke:none" transform="translate(164 149)"/><path d="M0 0a1 1 0 1 0-2 0 1 1 0 0 0 2 0" style="fill:#ccc;fill-opacity:1;fill-rule:nonzero;stroke:none" transform="translate(168 149)"/><path d="M0 0a1 1 0 1 0-2 0 1 1 0 0 0 2 0" style="fill:#ccc;fill-opacity:1;fill-rule:nonzero;stroke:none" transform="translate(172 149)"/><path d="M0 0a1 1 0 1 0-2 0 1 1 0 0 0 2 0" style="fill:#ccc;fill-opacity:1;fill-rule:nonzero;stroke:none" transform="translate(176 149)"/><path d="M0 0a1 1 0 1 0-2 0 1 1 0 0 0 2 0" style="fill:#ccc;fill-opacity:1;fill-rule:nonzero;stroke:none" transform="translate(180 149)"/><path d="M0 0a1 1 0 1 0-2 0 1 1 0 0 0 2 0" style="fill:#ccc;fill-opacity:1;fill-rule:nonzero;stroke:none" transform="translate(184 149)"/><path d="M0 0a1 1 0 1 0-2 0 1 1 0 0 0 2 0" style="fill:#ccc;fill-opacity:1;fill-rule:nonzero;stroke:none" transform="translate(188 149)"/><path d="M0 0a1 1 0 1 0-2 0 1 1 0 0 0 2 0" style="fill:#ccc;fill-opacity:1;fill-rule:nonzero;stroke:none" transform="translate(192 149)"/><path d="M0 0a1 1 0 1 0-2 0 1 1 0 0 0 2 0" style="fill:#ccc;fill-opacity:1;fill-rule:nonzero;stroke:none" transform="translate(196 149)"/><path d="M0 0a1 1 0 1 0-2 0 1 1 0 0 0 2 0" style="fill:#ccc;fill-opacity:1;fill-rule:nonzero;stroke:none" transform="translate(200 149)"/><path d="M0 0a1 1 0 1 0-2 0 1 1 0 0 0 2 0" style="fill:#ccc;fill-opacity:1;fill-rule:nonzero;stroke:none" transform="translate(204 149)"/><path d="M0 0a1 1 0 1 0-2 0 1 1 0 0 0 2 0" style="fill:#ccc;fill-opacity:1;fill-rule:nonzero;stroke:none" transform="translate(208 149)"/><path d="M0 0a1 1 0 1 0-2 0 1 1 0 0 0 2 0" style="fill:#ccc;fill-opacity:1;fill-rule:nonzero;stroke:none" transform="translate(212 149)"/><path d="M0 0a1 1 0 1 0-2 0 1 1 0 0 0 2 0" style="fill:#ccc;fill-opacity:1;fill-rule:nonzero;stroke:none" transform="translate(74 145)"/><path d="M0 0a1 1 0 1 0-2 0 1 1 0 0 0 2 0" style="fill:#ccc;fill-opacity:1;fill-rule:nonzero;stroke:none" transform="translate(78 145)"/><path d="M0 0a1 1 0 1 0-2 0 1 1 0 0 0 2 0" style="fill:#ccc;fill-opacity:1;fill-rule:nonzero;stroke:none" transform="translate(82 145)"/><path d="M0 0a1 1 0 1 0-2 0 1 1 0 0 0 2 0" style="fill:#ccc;fill-opacity:1;fill-rule:nonzero;stroke:none" transform="translate(86 145)"/><path d="M0 0a1 1 0 1 0-2 0 1 1 0 0 0 2 0" style="fill:#ccc;fill-opacity:1;fill-rule:nonzero;stroke:none" transform="translate(90 145)"/><path d="M0 0a1 1 0 1 0-2 0 1 1 0 0 0 2 0" style="fill:#ccc;fill-opacity:1;fill-rule:nonzero;stroke:none" transform="translate(94 145)"/><path d="M0 0a1 1 0 1 0-2 0 1 1 0 0 0 2 0" style="fill:#ccc;fill-opacity:1;fill-rule:nonzero;stroke:none" transform="translate(98 145)"/><path d="M0 0a1 1 0 1 0-2 0 1 1 0 0 0 2 0" style="fill:#ccc;fill-opacity:1;fill-rule:nonzero;stroke:none" transform="translate(102 145)"/><path d="M0 0a1 1 0 1 0-2 0 1 1 0 0 0 2 0" style="fill:#ccc;fill-opacity:1;fill-rule:nonzero;stroke:none" transform="translate(106 145)"/><path d="M0 0a1 1 0 1 0-2 0 1 1 0 0 0 2 0" style="fill:#ccc;fill-opacity:1;fill-rule:nonzero;stroke:none" transform="translate(110 145)"/><path d="M0 0a1 1 0 1 0-2 0 1 1 0 0 0 2 0" style="fill:#ccc;fill-opacity:1;fill-rule:nonzero;stroke:none" transform="translate(114 145)"/><path d="M0 0a1 1 0 1 0-2 0 1 1 0 0 0 2 0" style="fill:#ccc;fill-opacity:1;fill-rule:nonzero;stroke:none" transform="translate(118 145)"/><path d="M0 0a1 1 0 1 0-2 0 1 1 0 0 0 2 0" style="fill:#ccc;fill-opacity:1;fill-rule:nonzero;stroke:none" transform="translate(122 145)"/><path d="M0 0a1 1 0 1 0-2 0 1 1 0 0 0 2 0" style="fill:#ccc;fill-opacity:1;fill-rule:nonzero;stroke:none" transform="translate(126 145)"/><path d="M0 0a1 1 0 1 0-2 0 1 1 0 0 0 2 0" style="fill:#ccc;fill-opacity:1;fill-rule:nonzero;stroke:none" transform="translate(130 145)"/><path d="M0 0a1 1 0 1 0-2 0 1 1 0 0 0 2 0" style="fill:#ccc;fill-opacity:1;fill-rule:nonzero;stroke:none" transform="translate(134 145)"/><path d="M0 0a1 1 0 1 0-2 0 1 1 0 0 0 2 0" style="fill:#ccc;fill-opacity:1;fill-rule:nonzero;stroke:none" transform="translate(138 145)"/><path d="M0 0a1 1 0 1 0-2 0 1 1 0 0 0 2 0" style="fill:#ccc;fill-opacity:1;fill-rule:nonzero;stroke:none" transform="translate(142 145)"/><path d="M0 0a1 1 0 1 0-2 0 1 1 0 0 0 2 0" style="fill:#ccc;fill-opacity:1;fill-rule:nonzero;stroke:none" transform="translate(146 145)"/><path d="M0 0a1 1 0 1 0-2 0 1 1 0 0 0 2 0" style="fill:#ccc;fill-opacity:1;fill-rule:nonzero;stroke:none" transform="translate(150 145)"/><path d="M0 0a1 1 0 1 0-2 0 1 1 0 0 0 2 0" style="fill:#ccc;fill-opacity:1;fill-rule:nonzero;stroke:none" transform="translate(154 145)"/><path d="M0 0a1 1 0 1 0-2 0 1 1 0 0 0 2 0" style="fill:#ccc;fill-opacity:1;fill-rule:nonzero;stroke:none" transform="translate(158 145)"/><path d="M0 0a1 1 0 1 0-2 0 1 1 0 0 0 2 0" style="fill:#ccc;fill-opacity:1;fill-rule:nonzero;stroke:none" transform="translate(162 145)"/><path d="M0 0a1 1 0 1 0-2 0 1 1 0 0 0 2 0" style="fill:#ccc;fill-opacity:1;fill-rule:nonzero;stroke:none" transform="translate(166 145)"/><path d="M0 0a1 1 0 1 0-2 0 1 1 0 0 0 2 0" style="fill:#ccc;fill-opacity:1;fill-rule:nonzero;stroke:none" transform="translate(170 145)"/><path d="M0 0a1 1 0 1 0-2 0 1 1 0 0 0 2 0" style="fill:#ccc;fill-opacity:1;fill-rule:nonzero;stroke:none" transform="translate(174 145)"/><path d="M0 0a1 1 0 1 0-2 0 1 1 0 0 0 2 0" style="fill:#ccc;fill-opacity:1;fill-rule:nonzero;stroke:none" transform="translate(178 145)"/><path d="M0 0a1 1 0 1 0-2 0 1 1 0 0 0 2 0" style="fill:#ccc;fill-opacity:1;fill-rule:nonzero;stroke:none" transform="translate(182 145)"/><path d="M0 0a1 1 0 1 0-2 0 1 1 0 0 0 2 0" style="fill:#ccc;fill-opacity:1;fill-rule:nonzero;stroke:none" transform="translate(186 145)"/><path d="M0 0a1 1 0 1 0-2 0 1 1 0 0 0 2 0" style="fill:#ccc;fill-opacity:1;fill-rule:nonzero;stroke:none" transform="translate(190 145)"/><path d="M0 0a1 1 0 1 0-2 0 1 1 0 0 0 2 0" style="fill:#ccc;fill-opacity:1;fill-rule:nonzero;stroke:none" transform="translate(194 145)"/><path d="M0 0a1 1 0 1 0-2 0 1 1 0 0 0 2 0" style="fill:#ccc;fill-opacity:1;fill-rule:nonzero;stroke:none" transform="translate(198 145)"/><path d="M0 0a1 1 0 1 0-2 0 1 1 0 0 0 2 0" style="fill:#ccc;fill-opacity:1;fill-rule:nonzero;stroke:none" transform="translate(202 145)"/><path d="M0 0a1 1 0 1 0-2 0 1 1 0 0 0 2 0" style="fill:#ccc;fill-opacity:1;fill-rule:nonzero;stroke:none" transform="translate(206 145)"/><path d="M0 0a1 1 0 1 0-2 0 1 1 0 0 0 2 0" style="fill:#ccc;fill-opacity:1;fill-rule:nonzero;stroke:none" transform="translate(210 145)"/><path d="M0 0a1 1 0 1 0-2 0 1 1 0 0 0 2 0" style="fill:#ccc;fill-opacity:1;fill-rule:nonzero;stroke:none" transform="translate(214 145)"/><path d="M0 0a1 1 0 1 0-2 0 1 1 0 0 0 2 0" style="fill:#ccc;fill-opacity:1;fill-rule:nonzero;stroke:none" transform="translate(74 111)"/><path d="M0 0a1 1 0 1 0-2 0 1 1 0 0 0 2 0" style="fill:#ccc;fill-opacity:1;fill-rule:nonzero;stroke:none" transform="translate(78 111)"/><path d="M0 0a1 1 0 1 0-2 0 1 1 0 0 0 2 0" style="fill:#ccc;fill-opacity:1;fill-rule:nonzero;stroke:none" transform="translate(82 111)"/><path d="M0 0a1 1 0 1 0-2 0 1 1 0 0 0 2 0" style="fill:#ccc;fill-opacity:1;fill-rule:nonzero;stroke:none" transform="translate(86 111)"/><path d="M0 0a1 1 0 1 0-2 0 1 1 0 0 0 2 0" style="fill:#ccc;fill-opacity:1;fill-rule:nonzero;stroke:none" transform="translate(90 111)"/><path d="M0 0a1 1 0 1 0-2 0 1 1 0 0 0 2 0" style="fill:#ccc;fill-opacity:1;fill-rule:nonzero;stroke:none" transform="translate(94 111)"/><path d="M0 0a1 1 0 1 0-2 0 1 1 0 0 0 2 0" style="fill:#ccc;fill-opacity:1;fill-rule:nonzero;stroke:none" transform="translate(98 111)"/><path d="M0 0a1 1 0 1 0-2 0 1 1 0 0 0 2 0" style="fill:#ccc;fill-opacity:1;fill-rule:nonzero;stroke:none" transform="translate(102 111)"/><path d="M0 0a1 1 0 1 0-2 0 1 1 0 0 0 2 0" style="fill:#ccc;fill-opacity:1;fill-rule:nonzero;stroke:none" transform="translate(106 111)"/><path d="M0 0a1 1 0 1 0-2 0 1 1 0 0 0 2 0" style="fill:#ccc;fill-opacity:1;fill-rule:nonzero;stroke:none" transform="translate(110 111)"/><path d="M0 0a1 1 0 1 0-2 0 1 1 0 0 0 2 0" style="fill:#ccc;fill-opacity:1;fill-rule:nonzero;stroke:none" transform="translate(114 111)"/><path d="M0 0a1 1 0 1 0-2 0 1 1 0 0 0 2 0" style="fill:#ccc;fill-opacity:1;fill-rule:nonzero;stroke:none" transform="translate(118 111)"/><path d="M0 0a1 1 0 1 0-2 0 1 1 0 0 0 2 0" style="fill:#ccc;fill-opacity:1;fill-rule:nonzero;stroke:none" transform="translate(122 111)"/><path d="M0 0a1 1 0 1 0-2 0 1 1 0 0 0 2 0" style="fill:#ccc;fill-opacity:1;fill-rule:nonzero;stroke:none" transform="translate(126 111)"/><path d="M0 0a1 1 0 1 0-1.998-.002A1 1 0 0 0 0 0" style="fill:#ccc;fill-opacity:1;fill-rule:nonzero;stroke:none" transform="translate(130 111)"/><path d="M0 0a1 1 0 1 0-2 0 1 1 0 1 0 2 0" style="fill:#ccc;fill-opacity:1;fill-rule:nonzero;stroke:none" transform="translate(134 111)"/><path d="M0 0a1 1 0 1 0-2 0 1 1 0 1 0 2 0" style="fill:#ccc;fill-opacity:1;fill-rule:nonzero;stroke:none" transform="translate(138 111)"/><path d="M0 0a1 1 0 1 0-2 0 1 1 0 1 0 2 0" style="fill:#ccc;fill-opacity:1;fill-rule:nonzero;stroke:none" transform="translate(142 111)"/><path d="M0 0a1 1 0 1 0-2 0 1 1 0 1 0 2 0" style="fill:#ccc;fill-opacity:1;fill-rule:nonzero;stroke:none" transform="translate(146 111)"/><path d="M0 0a1 1 0 1 0-2 0 1 1 0 1 0 2 0" style="fill:#ccc;fill-opacity:1;fill-rule:nonzero;stroke:none" transform="translate(150 111)"/><path d="M0 0a1 1 0 1 0-2 0 1 1 0 1 0 2 0" style="fill:#ccc;fill-opacity:1;fill-rule:nonzero;stroke:none" transform="translate(154 111)"/><path d="M0 0a1 1 0 1 0-2 0 1 1 0 1 0 2 0" style="fill:#ccc;fill-opacity:1;fill-rule:nonzero;stroke:none" transform="translate(158 111)"/><path d="M0 0a1 1 0 1 0-2 0 1 1 0 1 0 2 0" style="fill:#ccc;fill-opacity:1;fill-rule:nonzero;stroke:none" transform="translate(162 111)"/><path d="M0 0a1 1 0 1 0-2 0 1 1 0 1 0 2 0" style="fill:#ccc;fill-opacity:1;fill-rule:nonzero;stroke:none" transform="translate(166 111)"/><path d="M0 0a1 1 0 1 0-2 0 1 1 0 1 0 2 0" style="fill:#ccc;fill-opacity:1;fill-rule:nonzero;stroke:none" transform="translate(170 111)"/><path d="M0 0a1 1 0 1 0-2 0 1 1 0 1 0 2 0" style="fill:#ccc;fill-opacity:1;fill-rule:nonzero;stroke:none" transform="translate(174 111)"/><path d="M0 0a1 1 0 1 0-2 0 1 1 0 1 0 2 0" style="fill:#ccc;fill-opacity:1;fill-rule:nonzero;stroke:none" transform="translate(178 111)"/><path d="M0 0a1 1 0 1 0-2 0 1 1 0 1 0 2 0" style="fill:#ccc;fill-opacity:1;fill-rule:nonzero;stroke:none" transform="translate(182 111)"/><path d="M0 0a1 1 0 1 0-2 0 1 1 0 1 0 2 0" style="fill:#ccc;fill-opacity:1;fill-rule:nonzero;stroke:none" transform="translate(186 111)"/><path d="M0 0a1 1 0 1 0-2 0 1 1 0 1 0 2 0" style="fill:#ccc;fill-opacity:1;fill-rule:nonzero;stroke:none" transform="translate(190 111)"/><path d="M0 0a1 1 0 1 0-2 0 1 1 0 1 0 2 0" style="fill:#ccc;fill-opacity:1;fill-rule:nonzero;stroke:none" transform="translate(194 111)"/><path d="M0 0a1 1 0 1 0-2 0 1 1 0 1 0 2 0" style="fill:#ccc;fill-opacity:1;fill-rule:nonzero;stroke:none" transform="translate(198 111)"/><path d="M0 0a1 1 0 1 0-2 0 1 1 0 1 0 2 0" style="fill:#ccc;fill-opacity:1;fill-rule:nonzero;stroke:none" transform="translate(202 111)"/><path d="M0 0a1 1 0 1 0-2 0 1 1 0 1 0 2 0" style="fill:#ccc;fill-opacity:1;fill-rule:nonzero;stroke:none" transform="translate(206 111)"/><path d="M0 0a1 1 0 1 0-2 0 1 1 0 1 0 2 0" style="fill:#ccc;fill-opacity:1;fill-rule:nonzero;stroke:none" transform="translate(210 111)"/><path d="M0 0a1 1 0 1 0-2 0 1 1 0 1 0 2 0" style="fill:#ccc;fill-opacity:1;fill-rule:nonzero;stroke:none" transform="translate(214 111)"/><path d="M0 0a1 1 0 1 0-2 0 1 1 0 0 0 2 0" style="fill:#ccc;fill-opacity:1;fill-rule:nonzero;stroke:none" transform="translate(76 107)"/><path d="M0 0a1 1 0 1 0-2 0 1 1 0 0 0 2 0" style="fill:#ccc;fill-opacity:1;fill-rule:nonzero;stroke:none" transform="translate(80 107)"/><path d="M0 0a1 1 0 1 0-2 0 1 1 0 0 0 2 0" style="fill:#ccc;fill-opacity:1;fill-rule:nonzero;stroke:none" transform="translate(84 107)"/><path d="M0 0a1 1 0 1 0-2 0 1 1 0 0 0 2 0" style="fill:#ccc;fill-opacity:1;fill-rule:nonzero;stroke:none" transform="translate(88 107)"/><path d="M0 0a1 1 0 1 0-2 0 1 1 0 0 0 2 0" style="fill:#ccc;fill-opacity:1;fill-rule:nonzero;stroke:none" transform="translate(92 107)"/><path d="M0 0a1 1 0 1 0-2 0 1 1 0 0 0 2 0" style="fill:#ccc;fill-opacity:1;fill-rule:nonzero;stroke:none" transform="translate(96 107)"/><path d="M0 0a1 1 0 1 0-2 0 1 1 0 0 0 2 0" style="fill:#ccc;fill-opacity:1;fill-rule:nonzero;stroke:none" transform="translate(100 107)"/><path d="M0 0a1 1 0 1 0-2 0 1 1 0 0 0 2 0" style="fill:#ccc;fill-opacity:1;fill-rule:nonzero;stroke:none" transform="translate(104 107)"/><path d="M0 0a1 1 0 1 0-2 0 1 1 0 0 0 2 0" style="fill:#ccc;fill-opacity:1;fill-rule:nonzero;stroke:none" transform="translate(108 107)"/><path d="M0 0a1 1 0 1 0-2 0 1 1 0 0 0 2 0" style="fill:#ccc;fill-opacity:1;fill-rule:nonzero;stroke:none" transform="translate(112 107)"/><path d="M0 0a1 1 0 1 0-2 0 1 1 0 0 0 2 0" style="fill:#ccc;fill-opacity:1;fill-rule:nonzero;stroke:none" transform="translate(116 107)"/><path d="M0 0a1 1 0 1 0-2 0 1 1 0 0 0 2 0" style="fill:#ccc;fill-opacity:1;fill-rule:nonzero;stroke:none" transform="translate(120 107)"/><path d="M0 0a1 1 0 1 0-2 0 1 1 0 0 0 2 0" style="fill:#ccc;fill-opacity:1;fill-rule:nonzero;stroke:none" transform="translate(124 107)"/><path d="M0 0a1 1 0 1 0-2 0 1 1 0 0 0 2 0" style="fill:#ccc;fill-opacity:1;fill-rule:nonzero;stroke:none" transform="translate(128 107)"/><path d="M0 0a1 1 0 1 0-2 0 1 1 0 1 0 2 0" style="fill:#ccc;fill-opacity:1;fill-rule:nonzero;stroke:none" transform="translate(132 107)"/><path d="M0 0a1 1 0 1 0-2 0 1 1 0 1 0 2 0" style="fill:#ccc;fill-opacity:1;fill-rule:nonzero;stroke:none" transform="translate(136 107)"/><path d="M0 0a1 1 0 1 0-2 0 1 1 0 1 0 2 0" style="fill:#ccc;fill-opacity:1;fill-rule:nonzero;stroke:none" transform="translate(140 107)"/><path d="M0 0a1 1 0 1 0-2 0 1 1 0 1 0 2 0" style="fill:#ccc;fill-opacity:1;fill-rule:nonzero;stroke:none" transform="translate(144 107)"/><path d="M0 0a1 1 0 1 0-2 0 1 1 0 1 0 2 0" style="fill:#ccc;fill-opacity:1;fill-rule:nonzero;stroke:none" transform="translate(148 107)"/><path d="M0 0a1 1 0 1 0-2 0 1 1 0 1 0 2 0" style="fill:#ccc;fill-opacity:1;fill-rule:nonzero;stroke:none" transform="translate(152 107)"/><path d="M0 0a1 1 0 1 0-2 0 1 1 0 1 0 2 0" style="fill:#ccc;fill-opacity:1;fill-rule:nonzero;stroke:none" transform="translate(156 107)"/><path d="M0 0a1 1 0 1 0-2 0 1 1 0 1 0 2 0" style="fill:#ccc;fill-opacity:1;fill-rule:nonzero;stroke:none" transform="translate(160 107)"/><path d="M0 0a1 1 0 1 0-2 0 1 1 0 1 0 2 0" style="fill:#ccc;fill-opacity:1;fill-rule:nonzero;stroke:none" transform="translate(164 107)"/><path d="M0 0a1 1 0 1 0-2 0 1 1 0 1 0 2 0" style="fill:#ccc;fill-opacity:1;fill-rule:nonzero;stroke:none" transform="translate(168 107)"/><path d="M0 0a1 1 0 1 0-2 0 1 1 0 1 0 2 0" style="fill:#ccc;fill-opacity:1;fill-rule:nonzero;stroke:none" transform="translate(172 107)"/><path d="M0 0a1 1 0 1 0-2 0 1 1 0 1 0 2 0" style="fill:#ccc;fill-opacity:1;fill-rule:nonzero;stroke:none" transform="translate(176 107)"/><path d="M0 0a1 1 0 1 0-2 0 1 1 0 1 0 2 0" style="fill:#ccc;fill-opacity:1;fill-rule:nonzero;stroke:none" transform="translate(180 107)"/><path d="M0 0a1 1 0 1 0-2 0 1 1 0 1 0 2 0" style="fill:#ccc;fill-opacity:1;fill-rule:nonzero;stroke:none" transform="translate(184 107)"/><path d="M0 0a1 1 0 1 0-2 0 1 1 0 1 0 2 0" style="fill:#ccc;fill-opacity:1;fill-rule:nonzero;stroke:none" transform="translate(188 107)"/><path d="M0 0a1 1 0 1 0-2 0 1 1 0 1 0 2 0" style="fill:#ccc;fill-opacity:1;fill-rule:nonzero;stroke:none" transform="translate(192 107)"/><path d="M0 0a1 1 0 1 0-2 0 1 1 0 1 0 2 0" style="fill:#ccc;fill-opacity:1;fill-rule:nonzero;stroke:none" transform="translate(196 107)"/><path d="M0 0a1 1 0 1 0-2 0 1 1 0 1 0 2 0" style="fill:#ccc;fill-opacity:1;fill-rule:nonzero;stroke:none" transform="translate(200 107)"/><path d="M0 0a1 1 0 1 0-2 0 1 1 0 1 0 2 0" style="fill:#ccc;fill-opacity:1;fill-rule:nonzero;stroke:none" transform="translate(204 107)"/><path d="M0 0a1 1 0 1 0-2 0 1 1 0 1 0 2 0" style="fill:#ccc;fill-opacity:1;fill-rule:nonzero;stroke:none" transform="translate(208 107)"/><path d="M0 0a1 1 0 1 0-2 0 1 1 0 1 0 2 0" style="fill:#ccc;fill-opacity:1;fill-rule:nonzero;stroke:none" transform="translate(212 107)"/><path d="M0 0a1 1 0 1 0-2 0 1 1 0 0 0 2 0" style="fill:#ccc;fill-opacity:1;fill-rule:nonzero;stroke:none" transform="translate(74 103)"/><path d="M0 0a1 1 0 1 0-2 0 1 1 0 0 0 2 0" style="fill:#ccc;fill-opacity:1;fill-rule:nonzero;stroke:none" transform="translate(78 103)"/><path d="M0 0a1 1 0 1 0-2 0 1 1 0 0 0 2 0" style="fill:#ccc;fill-opacity:1;fill-rule:nonzero;stroke:none" transform="translate(82 103)"/><path d="M0 0a1 1 0 1 0-2 0 1 1 0 0 0 2 0" style="fill:#ccc;fill-opacity:1;fill-rule:nonzero;stroke:none" transform="translate(86 103)"/><path d="M0 0a1 1 0 1 0-2 0 1 1 0 0 0 2 0" style="fill:#ccc;fill-opacity:1;fill-rule:nonzero;stroke:none" transform="translate(90 103)"/><path d="M0 0a1 1 0 1 0-2 0 1 1 0 0 0 2 0" style="fill:#ccc;fill-opacity:1;fill-rule:nonzero;stroke:none" transform="translate(94 103)"/><path d="M0 0a1 1 0 1 0-2 0 1 1 0 0 0 2 0" style="fill:#ccc;fill-opacity:1;fill-rule:nonzero;stroke:none" transform="translate(98 103)"/><path d="M0 0a1 1 0 1 0-2 0 1 1 0 0 0 2 0" style="fill:#ccc;fill-opacity:1;fill-rule:nonzero;stroke:none" transform="translate(102 103)"/><path d="M0 0a1 1 0 1 0-2 0 1 1 0 0 0 2 0" style="fill:#ccc;fill-opacity:1;fill-rule:nonzero;stroke:none" transform="translate(106 103)"/><path d="M0 0a1 1 0 1 0-2 0 1 1 0 0 0 2 0" style="fill:#ccc;fill-opacity:1;fill-rule:nonzero;stroke:none" transform="translate(110 103)"/><path d="M0 0a1 1 0 1 0-2 0 1 1 0 0 0 2 0" style="fill:#ccc;fill-opacity:1;fill-rule:nonzero;stroke:none" transform="translate(114 103)"/><path d="M0 0a1 1 0 1 0-2 0 1 1 0 0 0 2 0" style="fill:#ccc;fill-opacity:1;fill-rule:nonzero;stroke:none" transform="translate(118 103)"/><path d="M0 0a1 1 0 1 0-2 0 1 1 0 0 0 2 0" style="fill:#ccc;fill-opacity:1;fill-rule:nonzero;stroke:none" transform="translate(122 103)"/><path d="M0 0a1 1 0 1 0-2 0 1 1 0 0 0 2 0" style="fill:#ccc;fill-opacity:1;fill-rule:nonzero;stroke:none" transform="translate(126 103)"/><path d="M0 0a1 1 0 1 0-1.998-.002A1 1 0 0 0 0 0" style="fill:#ccc;fill-opacity:1;fill-rule:nonzero;stroke:none" transform="translate(130 103)"/><path d="M0 0a1 1 0 1 0-2 0 1 1 0 1 0 2 0" style="fill:#ccc;fill-opacity:1;fill-rule:nonzero;stroke:none" transform="translate(134 103)"/><path d="M0 0a1 1 0 1 0-2 0 1 1 0 1 0 2 0" style="fill:#ccc;fill-opacity:1;fill-rule:nonzero;stroke:none" transform="translate(138 103)"/><path d="M0 0a1 1 0 1 0-2 0 1 1 0 1 0 2 0" style="fill:#ccc;fill-opacity:1;fill-rule:nonzero;stroke:none" transform="translate(142 103)"/><path d="M0 0a1 1 0 1 0-2 0 1 1 0 1 0 2 0" style="fill:#ccc;fill-opacity:1;fill-rule:nonzero;stroke:none" transform="translate(146 103)"/><path d="M0 0a1 1 0 1 0-2 0 1 1 0 1 0 2 0" style="fill:#ccc;fill-opacity:1;fill-rule:nonzero;stroke:none" transform="translate(150 103)"/><path d="M0 0a1 1 0 1 0-2 0 1 1 0 1 0 2 0" style="fill:#ccc;fill-opacity:1;fill-rule:nonzero;stroke:none" transform="translate(154 103)"/><path d="M0 0a1 1 0 1 0-2 0 1 1 0 1 0 2 0" style="fill:#ccc;fill-opacity:1;fill-rule:nonzero;stroke:none" transform="translate(158 103)"/><path d="M0 0a1 1 0 1 0-2 0 1 1 0 1 0 2 0" style="fill:#ccc;fill-opacity:1;fill-rule:nonzero;stroke:none" transform="translate(162 103)"/><path d="M0 0a1 1 0 1 0-2 0 1 1 0 1 0 2 0" style="fill:#ccc;fill-opacity:1;fill-rule:nonzero;stroke:none" transform="translate(166 103)"/><path d="M0 0a1 1 0 1 0-2 0 1 1 0 1 0 2 0" style="fill:#ccc;fill-opacity:1;fill-rule:nonzero;stroke:none" transform="translate(170 103)"/><path d="M0 0a1 1 0 1 0-2 0 1 1 0 1 0 2 0" style="fill:#ccc;fill-opacity:1;fill-rule:nonzero;stroke:none" transform="translate(174 103)"/><path d="M0 0a1 1 0 1 0-2 0 1 1 0 1 0 2 0" style="fill:#ccc;fill-opacity:1;fill-rule:nonzero;stroke:none" transform="translate(178 103)"/><path d="M0 0a1 1 0 1 0-2 0 1 1 0 1 0 2 0" style="fill:#ccc;fill-opacity:1;fill-rule:nonzero;stroke:none" transform="translate(182 103)"/><path d="M0 0a1 1 0 1 0-2 0 1 1 0 1 0 2 0" style="fill:#ccc;fill-opacity:1;fill-rule:nonzero;stroke:none" transform="translate(186 103)"/><path d="M0 0a1 1 0 1 0-2 0 1 1 0 1 0 2 0" style="fill:#ccc;fill-opacity:1;fill-rule:nonzero;stroke:none" transform="translate(190 103)"/><path d="M0 0a1 1 0 1 0-2 0 1 1 0 1 0 2 0" style="fill:#ccc;fill-opacity:1;fill-rule:nonzero;stroke:none" transform="translate(194 103)"/><path d="M0 0a1 1 0 1 0-2 0 1 1 0 1 0 2 0" style="fill:#ccc;fill-opacity:1;fill-rule:nonzero;stroke:none" transform="translate(198 103)"/><path d="M0 0a1 1 0 1 0-2 0 1 1 0 1 0 2 0" style="fill:#ccc;fill-opacity:1;fill-rule:nonzero;stroke:none" transform="translate(202 103)"/><path d="M0 0a1 1 0 1 0-2 0 1 1 0 1 0 2 0" style="fill:#ccc;fill-opacity:1;fill-rule:nonzero;stroke:none" transform="translate(206 103)"/><path d="M0 0a1 1 0 1 0-2 0 1 1 0 1 0 2 0" style="fill:#ccc;fill-opacity:1;fill-rule:nonzero;stroke:none" transform="translate(210 103)"/><path d="M0 0a1 1 0 1 0-2 0 1 1 0 1 0 2 0" style="fill:#ccc;fill-opacity:1;fill-rule:nonzero;stroke:none" transform="translate(214 103)"/></g></svg>