<svg xmlns="http://www.w3.org/2000/svg" xml:space="preserve" width="320" height="191.455" viewBox="0 0 320 191.455"><defs><clipPath id="a" clipPathUnits="userSpaceOnUse"><path d="M0 256h256V0H0Z"/></clipPath><clipPath id="b" clipPathUnits="userSpaceOnUse"><path d="M8 199.591h240V56H8Z"/></clipPath></defs><g clip-path="url(#a)" transform="matrix(1.33333 0 0 -1.33333 -10.667 266.121)"><g clip-path="url(#b)" style="opacity:.5"><path d="m0 0-79.396 3.176c-6.892.276-13.885.416-20.784.416s-13.891-.14-20.783-.416L-200.359 0c-10.946-.097-19.821-9.031-19.821-19.999v-100c0-11.028 8.972-20 20-20h200c11.029 0 20 8.972 20 20v100C19.82-9.031 10.945-.097 0 0" style="fill:#fff;fill-opacity:1;fill-rule:nonzero;stroke:none" transform="translate(228.18 195.999)"/></g><path d="M0 0h-224v76c0 6.627 5.373 12 12 12l79.537 3.182c13.636.545 27.29.545 40.927 0L-12 88c6.627 0 12-5.373 12-12Z" style="fill:#adadad;fill-opacity:1;fill-rule:nonzero;stroke:none" transform="translate(240 100)"/><path d="m0 0-52-4h-112l-52 4 4 68.41c0 6.627 5.609 12 12 12l72.268 3.181a477 477 0 0 0 39.465 0L-16 80.41c6.391 0 12-5.373 12-12z" style="fill:#8c8c8c;fill-opacity:1;fill-rule:nonzero;stroke:none" transform="translate(236 104)"/><path d="M0 0h-200c-6.627 0-12 5.373-12 12v28h24l28-4h116l32 4h24V12C12 5.373 6.627 0 0 0" style="fill:#262626;fill-opacity:1;fill-rule:nonzero;stroke:none" transform="translate(228 64)"/><path d="M0 0h-192.857c-6.391 0-11.572 4.835-11.572 10.8V36h23.143l27-3.6h111.857l30.858 3.6h23.142V10.8C11.571 4.835 6.391 0 0 0" style="fill:#333;fill-opacity:1;fill-rule:nonzero;stroke:none" transform="translate(224.429 68)"/><path d="m0 0-38.199-3.82A2 2 0 0 1-40-5.81v-.38a2 2 0 0 1 1.801-1.99L0-12Z" style="fill:#262626;fill-opacity:1;fill-rule:nonzero;stroke:none" transform="translate(100 92)"/><path d="m0 0-38.199 3.82h-60v-12h60L0-4.359A2 2 0 0 1 1.801-2.37v.381A2 2 0 0 1 0 0" style="fill:#191919;fill-opacity:1;fill-rule:nonzero;stroke:none" transform="translate(198.2 88.18)"/><path d="M0 0a4 4 0 1 0-8 0 4 4 0 0 0 8 0" style="fill:#333;fill-opacity:1;fill-rule:nonzero;stroke:none" transform="translate(112 86)"/><path d="M0 0a4 4 0 1 0-8 0 4 4 0 0 0 8 0" style="fill:#0d0d0d;fill-opacity:1;fill-rule:nonzero;stroke:none" transform="translate(128 86)"/><path d="M124 82h-16v8h16z" style="fill:#262626;fill-opacity:1;fill-rule:nonzero;stroke:none"/><path d="m0 0-14.199 1.42v-7.199L0-4.359A2 2 0 0 1 1.801-2.37v.381A2 2 0 0 1 0 0" style="fill:#262626;fill-opacity:1;fill-rule:nonzero;stroke:none" transform="translate(198.2 88.18)"/><path d="M180 108H72v68h108z" style="fill:#adadad;fill-opacity:1;fill-rule:nonzero;stroke:none"/><path d="M164 112H88v60h76z" style="fill:#74b743;fill-opacity:1;fill-rule:nonzero;stroke:none"/><path d="m0 0 16-4v-60L0-68Z" style="fill:#737373;fill-opacity:1;fill-rule:nonzero;stroke:none" transform="translate(72 176)"/><path d="m0 0-16 4v60l16 4Z" style="fill:#737373;fill-opacity:1;fill-rule:nonzero;stroke:none" transform="translate(180 108)"/><path d="M0 0a4 4 0 1 0-8 0 4 4 0 0 0 8 0" style="fill:#29678f;fill-opacity:1;fill-rule:nonzero;stroke:none" transform="translate(196 172)"/><path d="m0 0-22.059-9.454c-4.045-1.734-8.771.157-10.504 4.202-1.734 4.044.157 8.771 4.202 10.504l22.058 9.454c4.045 1.733 8.772-.157 10.505-4.202C5.936 6.46 4.045 1.733 0 0" style="fill:#737373;fill-opacity:1;fill-rule:nonzero;stroke:none" transform="translate(218.18 144.65)"/><path d="M0 0a6 6 0 0 0-3.151-7.878 6 6 0 0 0-7.878 3.151 6 6 0 0 0 3.151 7.878A6 6 0 0 0 0 0" style="fill:#404040;fill-opacity:1;fill-rule:nonzero;stroke:none" transform="translate(200.323 145.7)"/><path d="M0 0a6 6 0 0 0-3.151-7.878 6 6 0 0 0-7.878 3.151 6 6 0 0 0 3.151 7.878A6 6 0 0 0 0 0" style="fill:#404040;fill-opacity:1;fill-rule:nonzero;stroke:none" transform="translate(218.706 153.58)"/><path d="m0 0-22.059-9.454c-4.045-1.734-8.771.157-10.504 4.202-1.734 4.044.157 8.771 4.202 10.504l22.058 9.454c4.045 1.733 8.772-.157 10.505-4.202C5.936 6.46 4.045 1.733 0 0" style="fill:#737373;fill-opacity:1;fill-rule:nonzero;stroke:none" transform="translate(221.207 126.098)"/><path d="M0 0a6 6 0 0 0-3.151-7.878 6 6 0 0 0-7.878 3.151 6 6 0 0 0 3.151 7.878A6 6 0 0 0 0 0" style="fill:#404040;fill-opacity:1;fill-rule:nonzero;stroke:none" transform="translate(203.35 127.148)"/><path d="M0 0a6 6 0 0 0-3.151-7.878 6 6 0 0 0-7.878 3.151 6 6 0 0 0 3.151 7.878A6 6 0 0 0 0 0" style="fill:#404040;fill-opacity:1;fill-rule:nonzero;stroke:none" transform="translate(221.732 135.026)"/><path d="M0 0h-8c-1.1 0-2 .9-2 2s.9 2 2 2h8c1.1 0 2-.9 2-2s-.9-2-2-2" style="fill:#29678f;fill-opacity:1;fill-rule:nonzero;stroke:none" transform="translate(230 108)"/><path d="m0 0-7.955-.846A2.01 2.01 0 0 0-10.156.932a2.006 2.006 0 0 0 1.777 2.2l7.955.846a2.006 2.006 0 0 0 2.201-1.777A2.006 2.006 0 0 0 0 0" style="fill:#29678f;fill-opacity:1;fill-rule:nonzero;stroke:none" transform="translate(214.19 108.01)"/><path d="m0 0-7.812-1.718a2.006 2.006 0 0 0-2.384 1.524 2.005 2.005 0 0 0 1.524 2.382l7.813 1.719a2.005 2.005 0 0 0 2.383-1.524A2.006 2.006 0 0 0 0 0" style="fill:#29678f;fill-opacity:1;fill-rule:nonzero;stroke:none" transform="translate(198.336 105.765)"/><path d="M0 0c0-9.941-8.059-18-18-18S-36-9.941-36 0s8.059 18 18 18S0 9.941 0 0" style="fill:#262626;fill-opacity:1;fill-rule:nonzero;stroke:none" transform="translate(68 130)"/><path d="M0 0h-6a2 2 0 0 0-2 2v6h-8V2a2 2 0 0 0-2-2h-6v-8h6a2 2 0 0 0 2-2v-6h8v6a2 2 0 0 0 2 2h6z" style="fill:#333;fill-opacity:1;fill-rule:nonzero;stroke:none" transform="translate(62 134)"/><path d="M0 0a3 3 0 1 0-6 0 3 3 0 0 0 6 0" style="fill:#262626;fill-opacity:1;fill-rule:nonzero;stroke:none" transform="translate(53 130)"/><path d="M0 0c-8.836 0-16-7.164-16-16s7.164-16 16-16 16 7.163 16 16S8.836 0 0 0m0-2c7.72 0 14-6.28 14-14S7.72-30 0-30s-14 6.28-14 14S-7.72-2 0-2" style="fill:#333;fill-opacity:1;fill-rule:nonzero;stroke:none" transform="translate(50 146)"/><path d="M0 0a.5.5 0 0 0-.354.146l-2 2a.502.502 0 0 0 .708.708l2-2A.502.502 0 0 0 0 0" style="fill:#333;fill-opacity:1;fill-rule:nonzero;stroke:none" transform="translate(44 135.5)"/><path d="M0 0c.128 0 .256.049.354.146l2 2a.502.502 0 0 1-.708.708l-2-2A.502.502 0 0 1 0 0" style="fill:#333;fill-opacity:1;fill-rule:nonzero;stroke:none" transform="translate(56.5 135.5)"/><path d="M0 0a.5.5 0 0 0 .354-.146l2-2a.502.502 0 0 0-.708-.708l-2 2A.502.502 0 0 0 0 0" style="fill:#333;fill-opacity:1;fill-rule:nonzero;stroke:none" transform="translate(56.5 124)"/><path d="M0 0a.5.5 0 0 1-.354-.146l-2-2a.502.502 0 0 1 .708-.708l2 2A.502.502 0 0 1 0 0" style="fill:#333;fill-opacity:1;fill-rule:nonzero;stroke:none" transform="translate(44 124)"/><path d="M0 0c-.55 0-1 .45-1 1s.45 1 1 1 1-.45 1-1-.45-1-1-1" style="fill:#333;fill-opacity:1;fill-rule:nonzero;stroke:none" transform="translate(35 176)"/><path d="M0 0c-.55 0-1 .45-1 1s.45 1 1 1 1-.45 1-1-.45-1-1-1" style="fill:#333;fill-opacity:1;fill-rule:nonzero;stroke:none" transform="translate(31 176)"/><path d="M0 0c-.55 0-1 .45-1 1s.45 1 1 1 1-.45 1-1-.45-1-1-1" style="fill:#333;fill-opacity:1;fill-rule:nonzero;stroke:none" transform="translate(31 172)"/><path d="M0 0c-.55 0-1 .45-1 1s.45 1 1 1 1-.45 1-1-.45-1-1-1" style="fill:#333;fill-opacity:1;fill-rule:nonzero;stroke:none" transform="translate(35 172)"/><path d="M0 0c-.55 0-1 .45-1 1s.45 1 1 1 1-.45 1-1-.45-1-1-1" style="fill:#333;fill-opacity:1;fill-rule:nonzero;stroke:none" transform="translate(35 168)"/><path d="M0 0c-.55 0-1 .45-1 1s.45 1 1 1 1-.45 1-1-.45-1-1-1" style="fill:#333;fill-opacity:1;fill-rule:nonzero;stroke:none" transform="translate(39 172)"/><path d="M0 0c-.55 0-1 .45-1 1s.45 1 1 1 1-.45 1-1-.45-1-1-1" style="fill:#333;fill-opacity:1;fill-rule:nonzero;stroke:none" transform="translate(39 168)"/><path d="M0 0c-.55 0-1 .45-1 1s.45 1 1 1 1-.45 1-1-.45-1-1-1" style="fill:#333;fill-opacity:1;fill-rule:nonzero;stroke:none" transform="translate(43 172)"/><path d="M0 0c-.55 0-1 .45-1 1s.45 1 1 1 1-.45 1-1-.45-1-1-1" style="fill:#333;fill-opacity:1;fill-rule:nonzero;stroke:none" transform="translate(47 168)"/><path d="M0 0c-.55 0-1 .45-1 1s.45 1 1 1 1-.45 1-1-.45-1-1-1" style="fill:#333;fill-opacity:1;fill-rule:nonzero;stroke:none" transform="translate(43 168)"/><path d="M0 0c-.55 0-1 .45-1 1s.45 1 1 1 1-.45 1-1-.45-1-1-1" style="fill:#333;fill-opacity:1;fill-rule:nonzero;stroke:none" transform="translate(43 164)"/><path d="M0 0c-.55 0-1 .45-1 1s.45 1 1 1 1-.45 1-1-.45-1-1-1" style="fill:#333;fill-opacity:1;fill-rule:nonzero;stroke:none" transform="translate(47 172)"/><path d="M0 0c-.55 0-1 .45-1 1s.45 1 1 1 1-.45 1-1-.45-1-1-1" style="fill:#333;fill-opacity:1;fill-rule:nonzero;stroke:none" transform="translate(51 168)"/><path d="M0 0c-.55 0-1 .45-1 1s.45 1 1 1 1-.45 1-1-.45-1-1-1" style="fill:#333;fill-opacity:1;fill-rule:nonzero;stroke:none" transform="translate(51 172)"/><path d="M0 0c-.55 0-1 .45-1 1s.45 1 1 1 1-.45 1-1-.45-1-1-1" style="fill:#333;fill-opacity:1;fill-rule:nonzero;stroke:none" transform="translate(47 164)"/><path d="M0 0c-.55 0-1 .45-1 1s.45 1 1 1 1-.45 1-1-.45-1-1-1" style="fill:#333;fill-opacity:1;fill-rule:nonzero;stroke:none" transform="translate(51 164)"/><path d="M0 0c-.55 0-1 .45-1 1s.45 1 1 1 1-.45 1-1-.45-1-1-1" style="fill:#333;fill-opacity:1;fill-rule:nonzero;stroke:none" transform="translate(55 164)"/><path d="M0 0c-.55 0-1 .45-1 1s.45 1 1 1 1-.45 1-1-.45-1-1-1" style="fill:#333;fill-opacity:1;fill-rule:nonzero;stroke:none" transform="translate(55 160)"/><path d="M0 0c-.55 0-1 .45-1 1s.45 1 1 1 1-.45 1-1-.45-1-1-1" style="fill:#333;fill-opacity:1;fill-rule:nonzero;stroke:none" transform="translate(55 168)"/><path d="M0 0c-.55 0-1 .45-1 1s.45 1 1 1 1-.45 1-1-.45-1-1-1" style="fill:#333;fill-opacity:1;fill-rule:nonzero;stroke:none" transform="translate(59 168)"/><path d="M0 0c-.55 0-1 .45-1 1s.45 1 1 1 1-.45 1-1-.45-1-1-1" style="fill:#333;fill-opacity:1;fill-rule:nonzero;stroke:none" transform="translate(55 172)"/><path d="M0 0c-.55 0-1 .45-1 1s.45 1 1 1 1-.45 1-1-.45-1-1-1" style="fill:#333;fill-opacity:1;fill-rule:nonzero;stroke:none" transform="translate(59 172)"/><path d="M0 0c-.55 0-1 .45-1 1s.45 1 1 1 1-.45 1-1-.45-1-1-1" style="fill:#333;fill-opacity:1;fill-rule:nonzero;stroke:none" transform="translate(59 160)"/><path d="M0 0c-.55 0-1 .45-1 1s.45 1 1 1 1-.45 1-1-.45-1-1-1" style="fill:#333;fill-opacity:1;fill-rule:nonzero;stroke:none" transform="translate(59 164)"/><path d="M0 0c-.55 0-1 .45-1 1s.45 1 1 1 1-.45 1-1-.45-1-1-1" style="fill:#333;fill-opacity:1;fill-rule:nonzero;stroke:none" transform="translate(39 176)"/><path d="M0 0c-.55 0-1 .45-1 1s.45 1 1 1 1-.45 1-1-.45-1-1-1" style="fill:#333;fill-opacity:1;fill-rule:nonzero;stroke:none" transform="translate(43 176)"/><path d="M0 0c-.55 0-1 .45-1 1s.45 1 1 1 1-.45 1-1-.45-1-1-1" style="fill:#333;fill-opacity:1;fill-rule:nonzero;stroke:none" transform="translate(47 176)"/><path d="M0 0c-.55 0-1 .45-1 1s.45 1 1 1 1-.45 1-1-.45-1-1-1" style="fill:#333;fill-opacity:1;fill-rule:nonzero;stroke:none" transform="translate(51 176)"/><path d="M0 0c-.55 0-1 .45-1 1s.45 1 1 1 1-.45 1-1-.45-1-1-1" style="fill:#333;fill-opacity:1;fill-rule:nonzero;stroke:none" transform="translate(55 176)"/><path d="M0 0c-.55 0-1 .45-1 1s.45 1 1 1 1-.45 1-1-.45-1-1-1" style="fill:#333;fill-opacity:1;fill-rule:nonzero;stroke:none" transform="translate(59 176)"/><path d="M0 0c-.55 0-1 .45-1 1s.45 1 1 1 1-.45 1-1-.45-1-1-1" style="fill:#333;fill-opacity:1;fill-rule:nonzero;stroke:none" transform="translate(63 176)"/></g></svg>