<?xml version="1.0" encoding="UTF-8" standalone="no"?>
<svg
   xmlns:dc="http://purl.org/dc/elements/1.1/"
   xmlns:cc="http://creativecommons.org/ns#"
   xmlns:rdf="http://www.w3.org/1999/02/22-rdf-syntax-ns#"
   xmlns:svg="http://www.w3.org/2000/svg"
   xmlns="http://www.w3.org/2000/svg"
   viewBox="0 0 330.66665 330.66665"
   height="330.66666"
   width="330.66666"
   xml:space="preserve"
   id="svg2"
   version="1.1"><metadata
     id="metadata8"><rdf:RDF><cc:Work
         rdf:about=""><dc:format>image/svg+xml</dc:format><dc:type
           rdf:resource="http://purl.org/dc/dcmitype/StillImage" /></cc:Work></rdf:RDF></metadata><defs
     id="defs6"><clipPath
       id="clipPath18"
       clipPathUnits="userSpaceOnUse"><path
         id="path16"
         d="M 0,256 H 256 V 0 H 0 Z" /></clipPath><clipPath
       id="clipPath26"
       clipPathUnits="userSpaceOnUse"><path
         id="path24"
         d="M 4,252 H 252 V 4 H 4 Z" /></clipPath></defs><g
     transform="matrix(1.3333333,0,0,-1.3333333,-5.3333332,335.99999)"
     id="g10"><g
       id="g12"><g
         clip-path="url(#clipPath18)"
         id="g14"><g
           id="g20"><g
             id="g22" /><g
             id="g34"><g
               style="opacity:0.5"
               id="g32"
               clip-path="url(#clipPath26)"><g
                 id="g30"
                 transform="translate(120,252)"><path
                   id="path28"
                   style="fill:#ffffff;fill-opacity:1;fill-rule:nonzero;stroke:none"
                   d="M 0,0 C -44.831,0 -72.168,-3.412 -76.547,-4 H -108 h -8 v -8 -224 -8 h 8 31.453 c 4.379,-0.588 31.716,-4 76.547,-4 47.659,0 123.658,3.971 124.421,4.011 l 7.579,0.399 v 7.59 224 7.59 l -7.579,0.399 C 123.658,-3.971 47.659,0 0,0" /></g></g></g></g><g
           transform="translate(120,244)"
           id="g36"><path
             id="path38"
             style="fill:#808080;fill-opacity:1;fill-rule:nonzero;stroke:none"
             d="m 0,0 c -48,0 -76,-4 -76,-4 h -32 v -224 h 32 c 0,0 28,-4 76,-4 48,0 124,4 124,4 V -4 C 124,-4 48,0 0,0" /></g><g
           transform="translate(32,16)"
           id="g40"><path
             id="path42"
             style="fill:#737373;fill-opacity:1;fill-rule:nonzero;stroke:none"
             d="m 0,0 h 12 c 0,0 2.75,-0.393 8,-0.932 V 224.932 C 14.75,224.393 12,224 12,224 H 0 Z" /></g><g
           transform="translate(224,15.0303)"
           id="g44"><path
             id="path46"
             style="fill:#737373;fill-opacity:1;fill-rule:nonzero;stroke:none"
             d="m 0,0 c 12.188,0.559 20,0.97 20,0.97 v 224 c 0,0 -7.812,0.411 -20,0.969 z" /></g><g
           transform="translate(52,196.3457)"
           id="g48"><path
             id="path50"
             style="fill:#404040;fill-opacity:1;fill-rule:nonzero;stroke:none"
             d="m 0,0 h -26 c -1.104,0 -2,-0.896 -2,-2 0,-1.104 0.896,-2 2,-2 H 0 c 0,0 18.75,0 34.465,3.631 C 35.368,-0.16 36,0.654 36,1.581 V 1.653 C 36,2.881 34.911,3.821 33.697,3.629 27.404,2.638 9.745,0 0,0" /></g><g
           transform="translate(52,184)"
           id="g52"><path
             id="path54"
             style="fill:#404040;fill-opacity:1;fill-rule:nonzero;stroke:none"
             d="m 0,0 h -26 c -1.104,0 -2,-0.896 -2,-2 0,-1.104 0.896,-2 2,-2 H 0 c 0,0 18.75,0 34.465,3.631 C 35.368,-0.16 36,0.654 36,1.581 V 1.653 C 36,2.881 34.911,3.821 33.697,3.629 27.404,2.638 9.745,0 0,0" /></g><g
           transform="translate(52,172)"
           id="g56"><path
             id="path58"
             style="fill:#404040;fill-opacity:1;fill-rule:nonzero;stroke:none"
             d="m 0,0 h -26 c -1.104,0 -2,-0.896 -2,-2 0,-1.104 0.896,-2 2,-2 H 0 c 0,0 18.75,0 34.465,3.631 C 35.368,-0.16 36,0.654 36,1.581 V 1.653 C 36,2.881 34.911,3.821 33.697,3.629 27.404,2.638 9.745,0 0,0" /></g><g
           transform="translate(52,160)"
           id="g60"><path
             id="path62"
             style="fill:#404040;fill-opacity:1;fill-rule:nonzero;stroke:none"
             d="m 0,0 h -26 c -1.104,0 -2,-0.896 -2,-2 0,-1.104 0.896,-2 2,-2 H 0 c 0,0 18.75,0 34.465,3.631 C 35.368,-0.16 36,0.654 36,1.581 V 1.653 C 36,2.881 34.911,3.821 33.697,3.629 27.404,2.638 9.745,0 0,0" /></g><g
           transform="translate(52,148)"
           id="g64"><path
             id="path66"
             style="fill:#404040;fill-opacity:1;fill-rule:nonzero;stroke:none"
             d="m 0,0 h -26 c -1.104,0 -2,-0.896 -2,-2 0,-1.104 0.896,-2 2,-2 H 0 c 0,0 18.75,0 34.465,3.631 C 35.368,-0.16 36,0.654 36,1.581 V 1.653 C 36,2.881 34.911,3.821 33.697,3.629 27.404,2.638 9.745,0 0,0" /></g><g
           transform="translate(52,136)"
           id="g68"><path
             id="path70"
             style="fill:#404040;fill-opacity:1;fill-rule:nonzero;stroke:none"
             d="m 0,0 h -26 c -1.104,0 -2,-0.896 -2,-2 0,-1.104 0.896,-2 2,-2 H 0 c 0,0 18.75,0 34.465,3.631 C 35.368,-0.16 36,0.654 36,1.581 V 1.653 C 36,2.881 34.911,3.821 33.697,3.629 27.404,2.638 9.745,0 0,0" /></g><g
           transform="translate(52,124)"
           id="g72"><path
             id="path74"
             style="fill:#404040;fill-opacity:1;fill-rule:nonzero;stroke:none"
             d="m 0,0 h -26 c -1.104,0 -2,-0.896 -2,-2 0,-1.104 0.896,-2 2,-2 H 0 c 0,0 18.75,0 34.465,3.631 C 35.368,-0.16 36,0.654 36,1.581 V 1.652 C 36,2.881 34.911,3.821 33.697,3.629 27.404,2.638 9.745,0 0,0" /></g><g
           transform="translate(52,112)"
           id="g76"><path
             id="path78"
             style="fill:#404040;fill-opacity:1;fill-rule:nonzero;stroke:none"
             d="m 0,0 h -26 c -1.104,0 -2,-0.896 -2,-2 0,-1.104 0.896,-2 2,-2 H 0 c 0,0 18.75,0 34.465,3.631 C 35.368,-0.16 36,0.654 36,1.581 V 1.652 C 36,2.881 34.911,3.82 33.697,3.63 27.404,2.638 9.745,0 0,0" /></g><g
           transform="translate(52,100)"
           id="g80"><path
             id="path82"
             style="fill:#404040;fill-opacity:1;fill-rule:nonzero;stroke:none"
             d="m 0,0 h -26 c -1.104,0 -2,-0.896 -2,-2 0,-1.104 0.896,-2 2,-2 H 0 c 0,0 18.75,0 34.465,3.631 C 35.368,-0.16 36,0.654 36,1.581 V 1.652 C 36,2.881 34.911,3.82 33.697,3.63 27.404,2.638 9.745,0 0,0" /></g><g
           transform="translate(52,88)"
           id="g84"><path
             id="path86"
             style="fill:#404040;fill-opacity:1;fill-rule:nonzero;stroke:none"
             d="m 0,0 h -26 c -1.104,0 -2,-0.896 -2,-2 0,-1.104 0.896,-2 2,-2 H 0 c 0,0 18.75,0 34.465,3.631 C 35.368,-0.16 36,0.654 36,1.581 V 1.652 C 36,2.881 34.911,3.82 33.697,3.63 27.404,2.638 9.745,0 0,0" /></g><g
           transform="translate(52,76)"
           id="g88"><path
             id="path90"
             style="fill:#404040;fill-opacity:1;fill-rule:nonzero;stroke:none"
             d="m 0,0 h -26 c -1.104,0 -2,-0.896 -2,-2 0,-1.104 0.896,-2 2,-2 H 0 c 0,0 18.75,0 34.465,3.631 C 35.368,-0.16 36,0.654 36,1.581 V 1.652 C 36,2.881 34.911,3.82 33.697,3.63 27.404,2.638 9.745,0 0,0" /></g><g
           transform="translate(52,64)"
           id="g92"><path
             id="path94"
             style="fill:#404040;fill-opacity:1;fill-rule:nonzero;stroke:none"
             d="m 0,0 h -26 c -1.104,0 -2,-0.896 -2,-2 0,-1.104 0.896,-2 2,-2 H 0 c 0,0 18.75,0 34.465,3.631 C 35.368,-0.16 36,0.654 36,1.581 V 1.652 C 36,2.881 34.911,3.82 33.697,3.63 27.404,2.638 9.745,0 0,0" /></g><g
           transform="translate(184,13.3945)"
           id="g96"><path
             id="path98"
             style="fill:#8c8c8c;fill-opacity:1;fill-rule:nonzero;stroke:none"
             d="m 0,0 v 229.211 c -6.533,0.232 -13.26,0.453 -20,0.647 V -0.647 C -13.26,-0.453 -6.533,-0.232 0,0" /></g><g
           transform="translate(84,243.209)"
           id="g100"><path
             id="path102"
             style="fill:#8c8c8c;fill-opacity:1;fill-rule:nonzero;stroke:none"
             d="m 0,0 v -230.418 c 4.921,-0.223 10.264,-0.413 16,-0.552 V 0.552 C 10.264,0.413 4.921,0.223 0,0" /></g><g
           transform="translate(164,243.2524)"
           id="g104"><path
             id="path106"
             style="fill:#999999;fill-opacity:1;fill-rule:nonzero;stroke:none"
             d="m 0,0 c -15.342,0.442 -30.739,0.748 -44,0.748 -7.119,0 -13.787,-0.09 -20,-0.24 v -231.521 c 6.213,-0.15 12.881,-0.239 20,-0.239 13.261,0 28.658,0.305 44,0.747 z" /></g></g></g></g></svg>