<svg xmlns="http://www.w3.org/2000/svg" xml:space="preserve" width="330.667" height="330.667" viewBox="0 0 330.667 330.667"><defs><clipPath id="a" clipPathUnits="userSpaceOnUse"><path d="M0 256h256V0H0Z"/></clipPath><clipPath id="b" clipPathUnits="userSpaceOnUse"><path d="M4 252h248V4H4Z"/></clipPath></defs><g clip-path="url(#a)" transform="matrix(1.33333 0 0 -1.33333 -5.333 336)"><g clip-path="url(#b)" style="opacity:.5"><path d="M0 0c-44.831 0-72.168-3.412-76.547-4H-116v-240h39.453c4.379-.588 31.716-4 76.547-4 47.659 0 123.658 3.971 124.421 4.011l7.579.399V-4.41l-7.579.399C123.658-3.971 47.659 0 0 0" style="fill:#fff;fill-opacity:1;fill-rule:nonzero;stroke:none" transform="translate(120 252)"/></g><path d="M0 0c-48 0-76-4-76-4h-32v-224h32s28-4 76-4 124 4 124 4V-4S48 0 0 0" style="fill:gray;fill-opacity:1;fill-rule:nonzero;stroke:none" transform="translate(120 244)"/><path d="M0 0h12s2.75-.393 8-.932v225.864c-5.25-.539-8-.932-8-.932H0Z" style="fill:#737373;fill-opacity:1;fill-rule:nonzero;stroke:none" transform="translate(32 16)"/><path d="M0 0c12.188.559 20 .97 20 .97v224s-7.812.411-20 .969z" style="fill:#737373;fill-opacity:1;fill-rule:nonzero;stroke:none" transform="translate(224 15.03)"/><path d="M0 0h-26a2 2 0 0 1 0-4H0S18.75-4 34.465-.369A1.996 1.996 0 0 1 36 1.581v.072a1.993 1.993 0 0 1-2.303 1.976C27.404 2.638 9.745 0 0 0" style="fill:#404040;fill-opacity:1;fill-rule:nonzero;stroke:none" transform="translate(52 196.346)"/><path d="M0 0h-26a2 2 0 0 1 0-4H0S18.75-4 34.465-.369A1.996 1.996 0 0 1 36 1.581v.072a1.993 1.993 0 0 1-2.303 1.976C27.404 2.638 9.745 0 0 0" style="fill:#404040;fill-opacity:1;fill-rule:nonzero;stroke:none" transform="translate(52 184)"/><path d="M0 0h-26a2 2 0 0 1 0-4H0S18.75-4 34.465-.369A1.996 1.996 0 0 1 36 1.581v.072a1.993 1.993 0 0 1-2.303 1.976C27.404 2.638 9.745 0 0 0" style="fill:#404040;fill-opacity:1;fill-rule:nonzero;stroke:none" transform="translate(52 172)"/><path d="M0 0h-26a2 2 0 0 1 0-4H0S18.75-4 34.465-.369A1.996 1.996 0 0 1 36 1.581v.072a1.993 1.993 0 0 1-2.303 1.976C27.404 2.638 9.745 0 0 0" style="fill:#404040;fill-opacity:1;fill-rule:nonzero;stroke:none" transform="translate(52 160)"/><path d="M0 0h-26a2 2 0 0 1 0-4H0S18.75-4 34.465-.369A1.996 1.996 0 0 1 36 1.581v.072a1.993 1.993 0 0 1-2.303 1.976C27.404 2.638 9.745 0 0 0" style="fill:#404040;fill-opacity:1;fill-rule:nonzero;stroke:none" transform="translate(52 148)"/><path d="M0 0h-26a2 2 0 0 1 0-4H0S18.75-4 34.465-.369A1.996 1.996 0 0 1 36 1.581v.072a1.993 1.993 0 0 1-2.303 1.976C27.404 2.638 9.745 0 0 0" style="fill:#404040;fill-opacity:1;fill-rule:nonzero;stroke:none" transform="translate(52 136)"/><path d="M0 0h-26a2 2 0 0 1 0-4H0S18.75-4 34.465-.369A1.996 1.996 0 0 1 36 1.581v.071a1.993 1.993 0 0 1-2.303 1.977C27.404 2.638 9.745 0 0 0" style="fill:#404040;fill-opacity:1;fill-rule:nonzero;stroke:none" transform="translate(52 124)"/><path d="M0 0h-26a2 2 0 0 1 0-4H0S18.75-4 34.465-.369A1.996 1.996 0 0 1 36 1.581v.071a1.995 1.995 0 0 1-2.303 1.978C27.404 2.638 9.745 0 0 0" style="fill:#404040;fill-opacity:1;fill-rule:nonzero;stroke:none" transform="translate(52 112)"/><path d="M0 0h-26a2 2 0 0 1 0-4H0S18.75-4 34.465-.369A1.996 1.996 0 0 1 36 1.581v.071a1.995 1.995 0 0 1-2.303 1.978C27.404 2.638 9.745 0 0 0" style="fill:#404040;fill-opacity:1;fill-rule:nonzero;stroke:none" transform="translate(52 100)"/><path d="M0 0h-26a2 2 0 0 1 0-4H0S18.75-4 34.465-.369A1.996 1.996 0 0 1 36 1.581v.071a1.995 1.995 0 0 1-2.303 1.978C27.404 2.638 9.745 0 0 0" style="fill:#404040;fill-opacity:1;fill-rule:nonzero;stroke:none" transform="translate(52 88)"/><path d="M0 0h-26a2 2 0 0 1 0-4H0S18.75-4 34.465-.369A1.996 1.996 0 0 1 36 1.581v.071a1.995 1.995 0 0 1-2.303 1.978C27.404 2.638 9.745 0 0 0" style="fill:#404040;fill-opacity:1;fill-rule:nonzero;stroke:none" transform="translate(52 76)"/><path d="M0 0h-26a2 2 0 0 1 0-4H0S18.75-4 34.465-.369A1.996 1.996 0 0 1 36 1.581v.071a1.995 1.995 0 0 1-2.303 1.978C27.404 2.638 9.745 0 0 0" style="fill:#404040;fill-opacity:1;fill-rule:nonzero;stroke:none" transform="translate(52 64)"/><path d="M0 0v229.211a2988 2988 0 0 1-20 .647V-.647C-13.26-.453-6.533-.232 0 0" style="fill:#8c8c8c;fill-opacity:1;fill-rule:nonzero;stroke:none" transform="translate(184 13.395)"/><path d="M0 0v-230.418a761 761 0 0 1 16-.552V.552A761 761 0 0 1 0 0" style="fill:#8c8c8c;fill-opacity:1;fill-rule:nonzero;stroke:none" transform="translate(84 243.209)"/><path d="M0 0c-15.342.442-30.739.748-44 .748-7.119 0-13.787-.09-20-.24v-231.521c6.213-.15 12.881-.239 20-.239 13.261 0 28.658.305 44 .747z" style="fill:#999;fill-opacity:1;fill-rule:nonzero;stroke:none" transform="translate(164 243.252)"/></g></svg>