<?xml version="1.0" encoding="UTF-8" standalone="no"?>
<svg
   xmlns:dc="http://purl.org/dc/elements/1.1/"
   xmlns:cc="http://creativecommons.org/ns#"
   xmlns:rdf="http://www.w3.org/1999/02/22-rdf-syntax-ns#"
   xmlns:svg="http://www.w3.org/2000/svg"
   xmlns="http://www.w3.org/2000/svg"
   viewBox="0 0 330.66665 181.33333"
   height="181.33333"
   width="330.66666"
   xml:space="preserve"
   id="svg2"
   version="1.1"><metadata
     id="metadata8"><rdf:RDF><cc:Work
         rdf:about=""><dc:format>image/svg+xml</dc:format><dc:type
           rdf:resource="http://purl.org/dc/dcmitype/StillImage" /></cc:Work></rdf:RDF></metadata><defs
     id="defs6"><clipPath
       id="clipPath18"
       clipPathUnits="userSpaceOnUse"><path
         id="path16"
         d="M 0,256 H 256 V 0 H 0 Z" /></clipPath><clipPath
       id="clipPath26"
       clipPathUnits="userSpaceOnUse"><path
         id="path24"
         d="M 4,196 H 252 V 60 H 4 Z" /></clipPath></defs><g
     transform="matrix(1.3333333,0,0,-1.3333333,-5.3333332,261.33333)"
     id="g10"><g
       id="g12"><g
         clip-path="url(#clipPath18)"
         id="g14"><g
           id="g20"><g
             id="g22" /><g
             id="g34"><g
               style="opacity:0.5"
               id="g32"
               clip-path="url(#clipPath26)"><g
                 id="g30"
                 transform="translate(128,196)"><path
                   id="path28"
                   style="fill:#ffffff;fill-opacity:1;fill-rule:nonzero;stroke:none"
                   d="m 0,0 c -12.933,0 -29.525,-0.924 -44.795,-1.833 -1.238,0.744 -2.661,1.141 -4.117,1.141 -0.17,0 -0.341,-0.005 -0.512,-0.016 l -19.768,-1.268 c -1.687,-0.109 -3.284,-0.747 -4.572,-1.808 -8.872,-0.735 -25.881,-2.234 -27.895,-2.568 -0.799,-0.13 -1.548,-0.24 -2.24,-0.342 -3.533,-0.519 -6.87,-1.009 -9.936,-3.353 -3.818,-2.918 -5.212,-7.319 -6.071,-11.239 C -121.883,-30.295 -124,-56.411 -124,-68 c 0,-12.751 0,-24.795 1.782,-39.57 0.779,-6.44 5.675,-11.723 14.552,-15.706 6.419,-2.88 15.374,-5.325 26.613,-7.267 20.665,-3.57 48.692,-5.457 81.053,-5.457 32.361,0 60.387,1.887 81.051,5.457 11.24,1.942 20.194,4.387 26.613,7.267 8.876,3.982 13.773,9.265 14.554,15.7 C 124,-92.795 124,-80.751 124,-68 c 0,11.568 -2.119,37.676 -4.097,46.704 -0.866,3.929 -2.263,8.329 -6.083,11.245 -3.068,2.341 -6.408,2.831 -9.944,3.35 -0.693,0.102 -1.444,0.211 -2.258,0.344 C 97.967,-5.746 22.687,0 0,0" /></g></g></g></g><g
           transform="translate(240.088,172.992)"
           id="g36"><path
             id="path38"
             style="fill:#333333;fill-opacity:1;fill-rule:nonzero;stroke:none"
             d="m 0,0 c -1.8,8.172 -4.12,7.508 -11.76,8.756 -2.128,0.356 -77.416,6.252 -100.328,6.252 -13.648,0 -31.736,-1.064 -48.824,-2.088 l -0.088,1.396 -19.768,-1.268 0.096,-1.436 c -5.928,-0.424 -29.98,-2.552 -31.768,-2.848 -7.624,-1.248 -9.948,-0.584 -11.74,-8.756 -1.792,-8.168 -3.908,-33.4 -3.908,-45 0,-12.54 0.004,-24.348 1.724,-38.612 1.728,-14.276 52.408,-21.388 114.276,-21.388 61.868,0 112.544,7.112 114.276,21.388 1.72,14.264 1.724,26.072 1.724,38.612 C 3.912,-33.392 1.788,-8.16 0,0" /></g><g
           transform="translate(199.6235,170.993)"
           id="g40"><path
             id="path42"
             style="fill:#0d0d0d;fill-opacity:1;fill-rule:nonzero;stroke:none"
             d="m 0,0 c -1.594,8.24 -27.702,9.007 -27.702,9.007 h -87.843 c 0,0 -26.108,-0.767 -27.702,-9.007 -1.594,-8.24 2.391,-14.373 2.391,-14.373 l 14.35,-40.052 c 0,0 2.989,-12.073 23.118,-12.457 7.803,-0.148 55.726,-0.148 63.529,0 20.129,0.384 23.118,12.457 23.118,12.457 l 14.349,40.052 c 0,0 3.986,6.133 2.392,14.373" /></g><g
           transform="translate(168,176)"
           id="g44"><path
             id="path46"
             style="fill:#191919;fill-opacity:1;fill-rule:nonzero;stroke:none"
             d="M 0,0 H -5.414 -74.586 -80 V -5.307 -54.693 -60 H -74.586 -5.414 0 v 5.307 49.386 z" /></g><path
           id="path48"
           style="fill:#0d0d0d;fill-opacity:1;fill-rule:nonzero;stroke:none"
           d="M 164,120 H 92 v 52 h 72 z" /><g
           transform="translate(76,151)"
           id="g50"><path
             id="path52"
             style="fill:#ff0000;fill-opacity:1;fill-rule:nonzero;stroke:none"
             d="m 0,0 c 0,-0.552 -0.448,-1 -1,-1 -0.552,0 -1,0.448 -1,1 0,0.552 0.448,1 1,1 0.552,0 1,-0.448 1,-1" /></g><g
           transform="translate(239.4916,147.5763)"
           id="g54"><path
             id="path56"
             style="fill:#262626;fill-opacity:1;fill-rule:nonzero;stroke:none"
             d="m 0,0 c 2.701,-2.251 -5.627,-12.84 -18.602,-23.651 -12.974,-10.812 -25.68,-17.752 -28.381,-15.502 -2.701,2.251 5.627,12.84 18.601,23.652 C -15.408,-4.69 -2.701,2.251 0,0" /></g><g
           transform="translate(216,132)"
           id="g58"><path
             id="path60"
             style="fill:#404040;fill-opacity:1;fill-rule:nonzero;stroke:none"
             d="m 0,0 c 0,-4.418 -3.582,-8 -8,-8 -4.418,0 -8,3.582 -8,8 0,4.418 3.582,8 8,8 4.418,0 8,-3.582 8,-8" /></g><g
           transform="translate(232,144)"
           id="g62"><path
             id="path64"
             style="fill:#404040;fill-opacity:1;fill-rule:nonzero;stroke:none"
             d="m 0,0 c 0,-4.418 -3.582,-8 -8,-8 -4.418,0 -8,3.582 -8,8 0,4.418 3.582,8 8,8 4.418,0 8,-3.582 8,-8" /></g><g
           transform="translate(207.8568,169.2046)"
           id="g66"><path
             id="path68"
             style="fill:#4b5da7;fill-opacity:1;fill-rule:nonzero;stroke:none"
             d="m 0,0 -3.857,-11.235 c 0.77,-0.472 1.64,-0.765 2.579,-0.765 2.994,0 5.421,2.728 5.421,6.094 C 4.143,-3.037 2.375,-0.648 0,0" /></g><g
           transform="translate(156.4358,95)"
           id="g70"><path
             id="path72"
             style="fill:#262626;fill-opacity:1;fill-rule:nonzero;stroke:none"
             d="m 0,0 c -0.208,0 -0.345,0.002 -0.404,0.002 h -58.6 c -26.003,0 -30.598,15.212 -30.779,15.859 l -26.653,71.98 2.271,0.159 26.681,-71.406 c 0.196,-0.661 4.413,-14.2 28.48,-14.2 H -0.378 C -0.118,2.363 22.45,2.092 28.109,16.613 34.075,31.915 53.078,87.435 53.269,88 l 2.295,-0.127 C 55.371,87.306 36.351,31.105 30.366,15.753 24.459,0.6 3.305,0 0,0" /></g><g
           transform="translate(42,99)"
           id="g74"><path
             id="path76"
             style="fill:#262626;fill-opacity:1;fill-rule:nonzero;stroke:none"
             d="m 0,0 c 0,-0.552 -0.448,-1 -1,-1 -0.552,0 -1,0.448 -1,1 0,0.552 0.448,1 1,1 0.552,0 1,-0.448 1,-1" /></g><g
           transform="translate(46,99)"
           id="g78"><path
             id="path80"
             style="fill:#262626;fill-opacity:1;fill-rule:nonzero;stroke:none"
             d="m 0,0 c 0,-0.552 -0.448,-1 -1,-1 -0.552,0 -1,0.448 -1,1 0,0.552 0.448,1 1,1 0.552,0 1,-0.448 1,-1" /></g><g
           transform="translate(50,99)"
           id="g82"><path
             id="path84"
             style="fill:#262626;fill-opacity:1;fill-rule:nonzero;stroke:none"
             d="m 0,0 c 0,-0.552 -0.448,-1 -1,-1 -0.552,0 -1,0.448 -1,1 0,0.552 0.448,1 1,1 0.552,0 1,-0.448 1,-1" /></g><g
           transform="translate(54,99)"
           id="g86"><path
             id="path88"
             style="fill:#262626;fill-opacity:1;fill-rule:nonzero;stroke:none"
             d="m 0,0 c 0,-0.552 -0.448,-1 -1,-1 -0.552,0 -1,0.448 -1,1 0,0.552 0.448,1 1,1 0.552,0 1,-0.448 1,-1" /></g><g
           transform="translate(58,99)"
           id="g90"><path
             id="path92"
             style="fill:#262626;fill-opacity:1;fill-rule:nonzero;stroke:none"
             d="m 0,0 c 0,-0.552 -0.448,-1 -1,-1 -0.552,0 -1,0.448 -1,1 0,0.552 0.448,1 1,1 0.552,0 1,-0.448 1,-1" /></g><g
           transform="translate(62,99)"
           id="g94"><path
             id="path96"
             style="fill:#262626;fill-opacity:1;fill-rule:nonzero;stroke:none"
             d="m 0,0 c 0,-0.552 -0.448,-1 -1,-1 -0.552,0 -1,0.448 -1,1 0,0.552 0.448,1 1,1 0.552,0 1,-0.448 1,-1" /></g><g
           transform="translate(42,95)"
           id="g98"><path
             id="path100"
             style="fill:#262626;fill-opacity:1;fill-rule:nonzero;stroke:none"
             d="m 0,0 c 0,-0.552 -0.448,-1 -1,-1 -0.552,0 -1,0.448 -1,1 0,0.552 0.448,1 1,1 0.552,0 1,-0.448 1,-1" /></g><g
           transform="translate(46,95)"
           id="g102"><path
             id="path104"
             style="fill:#262626;fill-opacity:1;fill-rule:nonzero;stroke:none"
             d="m 0,0 c 0,-0.552 -0.448,-1 -1,-1 -0.552,0 -1,0.448 -1,1 0,0.552 0.448,1 1,1 0.552,0 1,-0.448 1,-1" /></g><g
           transform="translate(50,95)"
           id="g106"><path
             id="path108"
             style="fill:#262626;fill-opacity:1;fill-rule:nonzero;stroke:none"
             d="m 0,0 c 0,-0.552 -0.448,-1 -1,-1 -0.552,0 -1,0.448 -1,1 0,0.552 0.448,1 1,1 0.552,0 1,-0.448 1,-1" /></g><g
           transform="translate(54,95)"
           id="g110"><path
             id="path112"
             style="fill:#262626;fill-opacity:1;fill-rule:nonzero;stroke:none"
             d="m 0,0 c 0,-0.552 -0.448,-1 -1,-1 -0.552,0 -1,0.448 -1,1 0,0.552 0.448,1 1,1 0.552,0 1,-0.448 1,-1" /></g><g
           transform="translate(58,95)"
           id="g114"><path
             id="path116"
             style="fill:#262626;fill-opacity:1;fill-rule:nonzero;stroke:none"
             d="m 0,0 c 0,-0.552 -0.448,-1 -1,-1 -0.552,0 -1,0.448 -1,1 0,0.552 0.448,1 1,1 0.552,0 1,-0.448 1,-1" /></g><g
           transform="translate(62,95)"
           id="g118"><path
             id="path120"
             style="fill:#262626;fill-opacity:1;fill-rule:nonzero;stroke:none"
             d="m 0,0 c 0,-0.552 -0.448,-1 -1,-1 -0.552,0 -1,0.448 -1,1 0,0.552 0.448,1 1,1 0.552,0 1,-0.448 1,-1" /></g><g
           transform="translate(42,91)"
           id="g122"><path
             id="path124"
             style="fill:#262626;fill-opacity:1;fill-rule:nonzero;stroke:none"
             d="m 0,0 c 0,-0.552 -0.448,-1 -1,-1 -0.552,0 -1,0.448 -1,1 0,0.552 0.448,1 1,1 0.552,0 1,-0.448 1,-1" /></g><g
           transform="translate(46,91)"
           id="g126"><path
             id="path128"
             style="fill:#262626;fill-opacity:1;fill-rule:nonzero;stroke:none"
             d="m 0,0 c 0,-0.552 -0.448,-1 -1,-1 -0.552,0 -1,0.448 -1,1 0,0.552 0.448,1 1,1 0.552,0 1,-0.448 1,-1" /></g><g
           transform="translate(50,91)"
           id="g130"><path
             id="path132"
             style="fill:#262626;fill-opacity:1;fill-rule:nonzero;stroke:none"
             d="m 0,0 c 0,-0.552 -0.448,-1 -1,-1 -0.552,0 -1,0.448 -1,1 0,0.552 0.448,1 1,1 0.552,0 1,-0.448 1,-1" /></g><g
           transform="translate(54,91)"
           id="g134"><path
             id="path136"
             style="fill:#262626;fill-opacity:1;fill-rule:nonzero;stroke:none"
             d="m 0,0 c 0,-0.552 -0.448,-1 -1,-1 -0.552,0 -1,0.448 -1,1 0,0.552 0.448,1 1,1 0.552,0 1,-0.448 1,-1" /></g><g
           transform="translate(58,91)"
           id="g138"><path
             id="path140"
             style="fill:#262626;fill-opacity:1;fill-rule:nonzero;stroke:none"
             d="m 0,0 c 0,-0.552 -0.448,-1 -1,-1 -0.552,0 -1,0.448 -1,1 0,0.552 0.448,1 1,1 0.552,0 1,-0.448 1,-1" /></g><g
           transform="translate(62,91)"
           id="g142"><path
             id="path144"
             style="fill:#262626;fill-opacity:1;fill-rule:nonzero;stroke:none"
             d="m 0,0 c 0,-0.552 -0.448,-1 -1,-1 -0.552,0 -1,0.448 -1,1 0,0.552 0.448,1 1,1 0.552,0 1,-0.448 1,-1" /></g><g
           transform="translate(42,87)"
           id="g146"><path
             id="path148"
             style="fill:#262626;fill-opacity:1;fill-rule:nonzero;stroke:none"
             d="m 0,0 c 0,-0.552 -0.448,-1 -1,-1 -0.552,0 -1,0.448 -1,1 0,0.552 0.448,1 1,1 0.552,0 1,-0.448 1,-1" /></g><g
           transform="translate(38,95)"
           id="g150"><path
             id="path152"
             style="fill:#262626;fill-opacity:1;fill-rule:nonzero;stroke:none"
             d="m 0,0 c 0,-0.552 -0.448,-1 -1,-1 -0.552,0 -1,0.448 -1,1 0,0.552 0.448,1 1,1 0.552,0 1,-0.448 1,-1" /></g><g
           transform="translate(38,91)"
           id="g154"><path
             id="path156"
             style="fill:#262626;fill-opacity:1;fill-rule:nonzero;stroke:none"
             d="m 0,0 c 0,-0.552 -0.448,-1 -1,-1 -0.552,0 -1,0.448 -1,1 0,0.552 0.448,1 1,1 0.552,0 1,-0.448 1,-1" /></g><g
           transform="translate(38,87)"
           id="g158"><path
             id="path160"
             style="fill:#262626;fill-opacity:1;fill-rule:nonzero;stroke:none"
             d="m 0,0 c 0,-0.552 -0.448,-1 -1,-1 -0.552,0 -1,0.448 -1,1 0,0.552 0.448,1 1,1 0.552,0 1,-0.448 1,-1" /></g><g
           transform="translate(46,87)"
           id="g162"><path
             id="path164"
             style="fill:#262626;fill-opacity:1;fill-rule:nonzero;stroke:none"
             d="m 0,0 c 0,-0.552 -0.448,-1 -1,-1 -0.552,0 -1,0.448 -1,1 0,0.552 0.448,1 1,1 0.552,0 1,-0.448 1,-1" /></g><g
           transform="translate(50,87)"
           id="g166"><path
             id="path168"
             style="fill:#262626;fill-opacity:1;fill-rule:nonzero;stroke:none"
             d="m 0,0 c 0,-0.552 -0.448,-1 -1,-1 -0.552,0 -1,0.448 -1,1 0,0.552 0.448,1 1,1 0.552,0 1,-0.448 1,-1" /></g><g
           transform="translate(54,87)"
           id="g170"><path
             id="path172"
             style="fill:#262626;fill-opacity:1;fill-rule:nonzero;stroke:none"
             d="m 0,0 c 0,-0.552 -0.448,-1 -1,-1 -0.552,0 -1,0.448 -1,1 0,0.552 0.448,1 1,1 0.552,0 1,-0.448 1,-1" /></g><g
           transform="translate(58,87)"
           id="g174"><path
             id="path176"
             style="fill:#262626;fill-opacity:1;fill-rule:nonzero;stroke:none"
             d="m 0,0 c 0,-0.552 -0.448,-1 -1,-1 -0.552,0 -1,0.448 -1,1 0,0.552 0.448,1 1,1 0.552,0 1,-0.448 1,-1" /></g><g
           transform="translate(62,87)"
           id="g178"><path
             id="path180"
             style="fill:#262626;fill-opacity:1;fill-rule:nonzero;stroke:none"
             d="m 0,0 c 0,-0.552 -0.448,-1 -1,-1 -0.552,0 -1,0.448 -1,1 0,0.552 0.448,1 1,1 0.552,0 1,-0.448 1,-1" /></g><g
           transform="translate(66,95)"
           id="g182"><path
             id="path184"
             style="fill:#262626;fill-opacity:1;fill-rule:nonzero;stroke:none"
             d="m 0,0 c 0,-0.552 -0.448,-1 -1,-1 -0.552,0 -1,0.448 -1,1 0,0.552 0.448,1 1,1 0.552,0 1,-0.448 1,-1" /></g><g
           transform="translate(66,91)"
           id="g186"><path
             id="path188"
             style="fill:#262626;fill-opacity:1;fill-rule:nonzero;stroke:none"
             d="m 0,0 c 0,-0.552 -0.448,-1 -1,-1 -0.552,0 -1,0.448 -1,1 0,0.552 0.448,1 1,1 0.552,0 1,-0.448 1,-1" /></g><g
           transform="translate(66,87)"
           id="g190"><path
             id="path192"
             style="fill:#262626;fill-opacity:1;fill-rule:nonzero;stroke:none"
             d="m 0,0 c 0,-0.552 -0.448,-1 -1,-1 -0.552,0 -1,0.448 -1,1 0,0.552 0.448,1 1,1 0.552,0 1,-0.448 1,-1" /></g><g
           transform="translate(42,83)"
           id="g194"><path
             id="path196"
             style="fill:#262626;fill-opacity:1;fill-rule:nonzero;stroke:none"
             d="m 0,0 c 0,-0.552 -0.448,-1 -1,-1 -0.552,0 -1,0.448 -1,1 0,0.552 0.448,1 1,1 0.552,0 1,-0.448 1,-1" /></g><g
           transform="translate(46,83)"
           id="g198"><path
             id="path200"
             style="fill:#262626;fill-opacity:1;fill-rule:nonzero;stroke:none"
             d="m 0,0 c 0,-0.552 -0.448,-1 -1,-1 -0.552,0 -1,0.448 -1,1 0,0.552 0.448,1 1,1 0.552,0 1,-0.448 1,-1" /></g><g
           transform="translate(50,83)"
           id="g202"><path
             id="path204"
             style="fill:#262626;fill-opacity:1;fill-rule:nonzero;stroke:none"
             d="m 0,0 c 0,-0.552 -0.448,-1 -1,-1 -0.552,0 -1,0.448 -1,1 0,0.552 0.448,1 1,1 0.552,0 1,-0.448 1,-1" /></g><g
           transform="translate(54,83)"
           id="g206"><path
             id="path208"
             style="fill:#262626;fill-opacity:1;fill-rule:nonzero;stroke:none"
             d="m 0,0 c 0,-0.552 -0.448,-1 -1,-1 -0.552,0 -1,0.448 -1,1 0,0.552 0.448,1 1,1 0.552,0 1,-0.448 1,-1" /></g><g
           transform="translate(58,83)"
           id="g210"><path
             id="path212"
             style="fill:#262626;fill-opacity:1;fill-rule:nonzero;stroke:none"
             d="m 0,0 c 0,-0.552 -0.448,-1 -1,-1 -0.552,0 -1,0.448 -1,1 0,0.552 0.448,1 1,1 0.552,0 1,-0.448 1,-1" /></g><g
           transform="translate(62,83)"
           id="g214"><path
             id="path216"
             style="fill:#262626;fill-opacity:1;fill-rule:nonzero;stroke:none"
             d="m 0,0 c 0,-0.552 -0.448,-1 -1,-1 -0.552,0 -1,0.448 -1,1 0,0.552 0.448,1 1,1 0.552,0 1,-0.448 1,-1" /></g><g
           transform="translate(36,152)"
           id="g218"><path
             id="path220"
             style="fill:#404040;fill-opacity:1;fill-rule:nonzero;stroke:none"
             d="m 0,0 c -8.822,0 -16,-7.178 -16,-16 0,-8.822 7.178,-16 16,-16 8.822,0 16,7.178 16,16 C 16,-7.178 8.822,0 0,0" /></g><g
           transform="translate(50,136)"
           id="g222"><path
             id="path224"
             style="fill:#262626;fill-opacity:1;fill-rule:nonzero;stroke:none"
             d="m 0,0 c 0,-7.732 -6.268,-14 -14,-14 -7.732,0 -14,6.268 -14,14 0,7.732 6.268,14 14,14 C -6.268,14 0,7.732 0,0" /></g><g
           transform="translate(35.969,138)"
           id="g226"><path
             id="path228"
             style="fill:#333333;fill-opacity:1;fill-rule:nonzero;stroke:none"
             d="M 0,0 4.031,3.527 V 8.034 C 4.031,9.12 3.025,10 1.784,10 H -1.722 C -2.963,10 -3.969,9.12 -3.969,8.034 V 3.473 Z" /></g><g
           transform="translate(34,136.0321)"
           id="g230"><path
             id="path232"
             style="fill:#333333;fill-opacity:1;fill-rule:nonzero;stroke:none"
             d="M 0,0 -3.471,3.968 H -8.034 C -9.12,3.968 -10,2.962 -10,1.721 v -3.506 c 0,-1.241 0.88,-2.247 1.966,-2.247 h 4.507 z" /></g><g
           transform="translate(46.045,140.0002)"
           id="g234"><path
             id="path236"
             style="fill:#333333;fill-opacity:1;fill-rule:nonzero;stroke:none"
             d="M 0,0 H -4.592 L -8.045,-3.968 -4.537,-8 H 0 c 1.08,0 1.955,1.006 1.955,2.247 v 3.506 C 1.955,-1.006 1.08,0 0,0" /></g><g
           transform="translate(35.969,134)"
           id="g238"><path
             id="path240"
             style="fill:#333333;fill-opacity:1;fill-rule:nonzero;stroke:none"
             d="m 0,0 -3.969,-3.453 v -4.592 c 0,-1.08 1.006,-1.955 2.247,-1.955 h 3.506 c 1.241,0 2.247,0.875 2.247,1.955 v 4.538 z" /></g><g
           transform="translate(26.8526,145.7592)"
           id="g242"><path
             id="path244"
             style="fill:#333333;fill-opacity:1;fill-rule:nonzero;stroke:none"
             d="M 0,0 2.935,-2.935 1.869,-4 -1.065,-1.065 Z" /></g><g
           transform="translate(45.1474,126.2408)"
           id="g246"><path
             id="path248"
             style="fill:#333333;fill-opacity:1;fill-rule:nonzero;stroke:none"
             d="M 0,0 -2.935,2.935 -1.869,4 1.065,1.065 Z" /></g><g
           transform="translate(42.2129,142.8247)"
           id="g250"><path
             id="path252"
             style="fill:#333333;fill-opacity:1;fill-rule:nonzero;stroke:none"
             d="M 0,0 2.935,2.935 4,1.869 1.065,-1.065 Z" /></g><g
           transform="translate(29.7871,129.1753)"
           id="g254"><path
             id="path256"
             style="fill:#333333;fill-opacity:1;fill-rule:nonzero;stroke:none"
             d="M 0,0 -2.935,-2.935 -4,-1.869 -1.065,1.065 Z" /></g><g
           transform="translate(55.866,136)"
           id="g258"><path
             id="path260"
             style="fill:#404040;fill-opacity:1;fill-rule:nonzero;stroke:none"
             d="M 0,0 C 0,0 0.839,-20.217 -19.866,-31.998 -18.17,-30.983 1.959,-30.533 0,0" /></g></g></g></g></svg>