<?xml version="1.0" encoding="UTF-8" standalone="no"?>
<svg
   xmlns:dc="http://purl.org/dc/elements/1.1/"
   xmlns:cc="http://creativecommons.org/ns#"
   xmlns:rdf="http://www.w3.org/1999/02/22-rdf-syntax-ns#"
   xmlns:svg="http://www.w3.org/2000/svg"
   xmlns="http://www.w3.org/2000/svg"
   viewBox="0 0 319.9996 191.45466"
   height="191.45467"
   width="319.9996"
   xml:space="preserve"
   id="svg2"
   version="1.1"><metadata
     id="metadata8"><rdf:RDF><cc:Work
         rdf:about=""><dc:format>image/svg+xml</dc:format><dc:type
           rdf:resource="http://purl.org/dc/dcmitype/StillImage" /></cc:Work></rdf:RDF></metadata><defs
     id="defs6"><clipPath
       id="clipPath18"
       clipPathUnits="userSpaceOnUse"><path
         id="path16"
         d="M 0,256 H 256 V 0 H 0 Z" /></clipPath><clipPath
       id="clipPath26"
       clipPathUnits="userSpaceOnUse"><path
         id="path24"
         d="M 8,199.591 H 248 V 56 H 8 Z" /></clipPath></defs><g
     transform="matrix(1.3333333,0,0,-1.3333333,-10.666666,266.12133)"
     id="g10"><g
       id="g12"><g
         clip-path="url(#clipPath18)"
         id="g14"><g
           id="g20"><g
             id="g22" /><g
             id="g34"><g
               style="opacity:0.5"
               id="g32"
               clip-path="url(#clipPath26)"><g
                 id="g30"
                 transform="translate(228.1797,195.999)"><path
                   id="path28"
                   style="fill:#ffffff;fill-opacity:1;fill-rule:nonzero;stroke:none"
                   d="m 0,0 -79.396,3.176 c -6.892,0.276 -13.885,0.416 -20.784,0.416 -6.898,0 -13.891,-0.14 -20.783,-0.416 L -200.359,0 c -10.946,-0.097 -19.821,-9.031 -19.821,-19.999 v -72 -4 -24 c 0,-11.028 8.972,-20 20,-20 h 200 c 11.029,0 20,8.972 20,20 v 24 4 72 C 19.82,-9.031 10.945,-0.097 0,0" /></g></g></g></g><g
           transform="translate(240,100)"
           id="g36"><path
             id="path38"
             style="fill:#adadad;fill-opacity:1;fill-rule:nonzero;stroke:none"
             d="m 0,0 h -224 v 76 c 0,6.627 5.373,12 12,12 l 79.537,3.182 c 13.636,0.545 27.29,0.545 40.927,0 L -12,88 C -5.373,88 0,82.627 0,76 Z" /></g><g
           transform="translate(236,104)"
           id="g40"><path
             id="path42"
             style="fill:#8c8c8c;fill-opacity:1;fill-rule:nonzero;stroke:none"
             d="m 0,0 -52,-4 h -112 l -52,4 4,68.41 c 0,6.627 5.609,12 12,12 l 72.268,3.181 c 13.149,0.545 26.315,0.545 39.465,0 L -16,80.41 c 6.391,0 12,-5.373 12,-12 z" /></g><g
           transform="translate(228,64)"
           id="g44"><path
             id="path46"
             style="fill:#262626;fill-opacity:1;fill-rule:nonzero;stroke:none"
             d="m 0,0 h -200 c -6.627,0 -12,5.373 -12,12 v 28 h 24 l 28,-4 h 116 l 32,4 H 12 V 12 C 12,5.373 6.627,0 0,0" /></g><g
           transform="translate(224.4287,68)"
           id="g48"><path
             id="path50"
             style="fill:#333333;fill-opacity:1;fill-rule:nonzero;stroke:none"
             d="m 0,0 h -192.857 c -6.391,0 -11.572,4.835 -11.572,10.8 V 36 h 23.143 l 27,-3.6 H -42.429 L -11.571,36 H 11.571 V 10.8 C 11.571,4.835 6.391,0 0,0" /></g><g
           transform="translate(100,92)"
           id="g52"><path
             id="path54"
             style="fill:#262626;fill-opacity:1;fill-rule:nonzero;stroke:none"
             d="M 0,0 -38.199,-3.82 C -39.221,-3.922 -40,-4.782 -40,-5.81 v -0.38 c 0,-1.028 0.779,-1.888 1.801,-1.99 L 0,-12 Z" /></g><g
           transform="translate(198.1992,88.1797)"
           id="g56"><path
             id="path58"
             style="fill:#191919;fill-opacity:1;fill-rule:nonzero;stroke:none"
             d="m 0,0 -38.199,3.82 h -60 v -12 h 60 L 0,-4.359 c 1.022,0.101 1.801,0.962 1.801,1.989 v 0.381 C 1.801,-0.962 1.022,-0.102 0,0" /></g><g
           transform="translate(112,86)"
           id="g60"><path
             id="path62"
             style="fill:#333333;fill-opacity:1;fill-rule:nonzero;stroke:none"
             d="m 0,0 c 0,-2.209 -1.791,-4 -4,-4 -2.209,0 -4,1.791 -4,4 0,2.209 1.791,4 4,4 2.209,0 4,-1.791 4,-4" /></g><g
           transform="translate(128,86)"
           id="g64"><path
             id="path66"
             style="fill:#0d0d0d;fill-opacity:1;fill-rule:nonzero;stroke:none"
             d="m 0,0 c 0,-2.209 -1.791,-4 -4,-4 -2.209,0 -4,1.791 -4,4 0,2.209 1.791,4 4,4 2.209,0 4,-1.791 4,-4" /></g><path
           id="path68"
           style="fill:#262626;fill-opacity:1;fill-rule:nonzero;stroke:none"
           d="m 124,82 h -16 v 8 h 16 z" /><g
           transform="translate(198.1992,88.1797)"
           id="g70"><path
             id="path72"
             style="fill:#262626;fill-opacity:1;fill-rule:nonzero;stroke:none"
             d="M 0,0 -14.199,1.42 V -5.779 L 0,-4.359 c 1.022,0.101 1.801,0.962 1.801,1.989 v 0.381 C 1.801,-0.962 1.022,-0.102 0,0" /></g><path
           id="path74"
           style="fill:#adadad;fill-opacity:1;fill-rule:nonzero;stroke:none"
           d="M 180,108 H 72 v 68 h 108 z" /><path
           id="path76"
           style="fill:#74b743;fill-opacity:1;fill-rule:nonzero;stroke:none"
           d="M 164,112 H 88 v 60 h 76 z" /><g
           transform="translate(72,176)"
           id="g78"><path
             id="path80"
             style="fill:#737373;fill-opacity:1;fill-rule:nonzero;stroke:none"
             d="M 0,0 16,-4 V -64 L 0,-68 Z" /></g><g
           transform="translate(180,108)"
           id="g82"><path
             id="path84"
             style="fill:#737373;fill-opacity:1;fill-rule:nonzero;stroke:none"
             d="M 0,0 -16,4 V 64 L 0,68 Z" /></g><g
           transform="translate(196,172)"
           id="g86"><path
             id="path88"
             style="fill:#29678f;fill-opacity:1;fill-rule:nonzero;stroke:none"
             d="m 0,0 c 0,-2.209 -1.791,-4 -4,-4 -2.209,0 -4,1.791 -4,4 0,2.209 1.791,4 4,4 2.209,0 4,-1.791 4,-4" /></g><g
           transform="translate(218.1807,144.6504)"
           id="g90"><path
             id="path92"
             style="fill:#737373;fill-opacity:1;fill-rule:nonzero;stroke:none"
             d="m 0,0 -22.059,-9.454 c -4.045,-1.734 -8.771,0.157 -10.504,4.202 -1.734,4.044 0.157,8.771 4.202,10.504 l 22.058,9.454 C -2.258,16.439 2.469,14.549 4.202,10.504 5.936,6.46 4.045,1.733 0,0" /></g><g
           transform="translate(200.3232,145.7007)"
           id="g94"><path
             id="path96"
             style="fill:#404040;fill-opacity:1;fill-rule:nonzero;stroke:none"
             d="m 0,0 c 1.306,-3.046 -0.105,-6.573 -3.151,-7.878 -3.046,-1.306 -6.574,0.105 -7.878,3.151 -1.306,3.046 0.105,6.573 3.151,7.878 C -4.832,4.457 -1.305,3.046 0,0" /></g><g
           transform="translate(218.7061,153.5791)"
           id="g98"><path
             id="path100"
             style="fill:#404040;fill-opacity:1;fill-rule:nonzero;stroke:none"
             d="m 0,0 c 1.306,-3.046 -0.105,-6.573 -3.151,-7.878 -3.046,-1.306 -6.574,0.105 -7.878,3.151 -1.306,3.046 0.105,6.573 3.151,7.878 C -4.832,4.457 -1.305,3.046 0,0" /></g><g
           transform="translate(221.207,126.0977)"
           id="g102"><path
             id="path104"
             style="fill:#737373;fill-opacity:1;fill-rule:nonzero;stroke:none"
             d="m 0,0 -22.059,-9.454 c -4.045,-1.734 -8.771,0.157 -10.504,4.202 -1.734,4.044 0.157,8.771 4.202,10.504 l 22.058,9.454 C -2.258,16.439 2.469,14.549 4.202,10.504 5.936,6.46 4.045,1.733 0,0" /></g><g
           transform="translate(203.3496,127.1479)"
           id="g106"><path
             id="path108"
             style="fill:#404040;fill-opacity:1;fill-rule:nonzero;stroke:none"
             d="m 0,0 c 1.306,-3.045 -0.105,-6.573 -3.151,-7.878 -3.046,-1.306 -6.574,0.105 -7.878,3.151 -1.306,3.046 0.105,6.573 3.151,7.878 C -4.832,4.457 -1.306,3.046 0,0" /></g><g
           transform="translate(221.7324,135.0264)"
           id="g110"><path
             id="path112"
             style="fill:#404040;fill-opacity:1;fill-rule:nonzero;stroke:none"
             d="m 0,0 c 1.306,-3.046 -0.105,-6.573 -3.151,-7.878 -3.046,-1.306 -6.574,0.105 -7.878,3.151 -1.306,3.046 0.105,6.573 3.151,7.878 C -4.832,4.457 -1.305,3.046 0,0" /></g><g
           transform="translate(230,108)"
           id="g114"><path
             id="path116"
             style="fill:#29678f;fill-opacity:1;fill-rule:nonzero;stroke:none"
             d="m 0,0 h -8 c -1.1,0 -2,0.9 -2,2 0,1.1 0.9,2 2,2 H 0 C 1.1,4 2,3.1 2,2 2,0.9 1.1,0 0,0" /></g><g
           transform="translate(214.1895,108.0107)"
           id="g118"><path
             id="path120"
             style="fill:#29678f;fill-opacity:1;fill-rule:nonzero;stroke:none"
             d="m 0,0 -7.955,-0.846 c -1.094,-0.116 -2.084,0.684 -2.201,1.778 -0.116,1.093 0.683,2.084 1.777,2.2 l 7.955,0.846 C 0.67,4.095 1.66,3.295 1.777,2.201 1.894,1.107 1.094,0.117 0,0" /></g><g
           transform="translate(198.3359,105.7646)"
           id="g122"><path
             id="path124"
             style="fill:#29678f;fill-opacity:1;fill-rule:nonzero;stroke:none"
             d="m 0,0 -7.812,-1.718 c -1.076,-0.236 -2.148,0.449 -2.384,1.524 -0.237,1.074 0.45,2.146 1.524,2.382 l 7.813,1.719 C 0.216,4.144 1.288,3.458 1.524,2.383 1.761,1.309 1.074,0.236 0,0" /></g><g
           transform="translate(68,130)"
           id="g126"><path
             id="path128"
             style="fill:#262626;fill-opacity:1;fill-rule:nonzero;stroke:none"
             d="m 0,0 c 0,-9.941 -8.059,-18 -18,-18 -9.941,0 -18,8.059 -18,18 0,9.941 8.059,18 18,18 C -8.059,18 0,9.941 0,0" /></g><g
           transform="translate(62,134)"
           id="g130"><path
             id="path132"
             style="fill:#333333;fill-opacity:1;fill-rule:nonzero;stroke:none"
             d="m 0,0 h -6 c -1.104,0 -2,0.896 -2,2 v 6 h -8 V 2 c 0,-1.104 -0.896,-2 -2,-2 h -6 v -8 h 6 c 1.104,0 2,-0.896 2,-2 v -6 h 8 v 6 c 0,1.104 0.896,2 2,2 h 6 z" /></g><g
           transform="translate(53,130)"
           id="g134"><path
             id="path136"
             style="fill:#262626;fill-opacity:1;fill-rule:nonzero;stroke:none"
             d="m 0,0 c 0,-1.657 -1.343,-3 -3,-3 -1.657,0 -3,1.343 -3,3 0,1.657 1.343,3 3,3 1.657,0 3,-1.343 3,-3" /></g><g
           transform="translate(50,146)"
           id="g138"><path
             id="path140"
             style="fill:#333333;fill-opacity:1;fill-rule:nonzero;stroke:none"
             d="m 0,0 c -8.836,0 -16,-7.164 -16,-16 0,-8.837 7.164,-16 16,-16 8.836,0 16,7.163 16,16 C 16,-7.164 8.836,0 0,0 m 0,-2 c 7.72,0 14,-6.28 14,-14 0,-7.72 -6.28,-14 -14,-14 -7.72,0 -14,6.28 -14,14 0,7.72 6.28,14 14,14" /></g><g
           transform="translate(44,135.5)"
           id="g142"><path
             id="path144"
             style="fill:#333333;fill-opacity:1;fill-rule:nonzero;stroke:none"
             d="m 0,0 c -0.128,0 -0.256,0.049 -0.354,0.146 l -2,2 c -0.195,0.196 -0.195,0.512 0,0.708 0.196,0.195 0.512,0.195 0.708,0 l 2,-2 C 0.549,0.658 0.549,0.342 0.354,0.146 0.256,0.049 0.128,0 0,0" /></g><g
           transform="translate(56.5,135.5)"
           id="g146"><path
             id="path148"
             style="fill:#333333;fill-opacity:1;fill-rule:nonzero;stroke:none"
             d="m 0,0 c 0.128,0 0.256,0.049 0.354,0.146 l 2,2 c 0.195,0.196 0.195,0.512 0,0.708 -0.196,0.195 -0.512,0.195 -0.708,0 l -2,-2 C -0.549,0.658 -0.549,0.342 -0.354,0.146 -0.256,0.049 -0.128,0 0,0" /></g><g
           transform="translate(56.5,124)"
           id="g150"><path
             id="path152"
             style="fill:#333333;fill-opacity:1;fill-rule:nonzero;stroke:none"
             d="m 0,0 c 0.128,0 0.256,-0.049 0.354,-0.146 l 2,-2 c 0.195,-0.196 0.195,-0.512 0,-0.708 -0.196,-0.195 -0.512,-0.195 -0.708,0 l -2,2 c -0.195,0.196 -0.195,0.512 0,0.708 C -0.256,-0.049 -0.128,0 0,0" /></g><g
           transform="translate(44,124)"
           id="g154"><path
             id="path156"
             style="fill:#333333;fill-opacity:1;fill-rule:nonzero;stroke:none"
             d="m 0,0 c -0.128,0 -0.256,-0.049 -0.354,-0.146 l -2,-2 c -0.195,-0.196 -0.195,-0.512 0,-0.708 0.196,-0.195 0.512,-0.195 0.708,0 l 2,2 c 0.195,0.196 0.195,0.512 0,0.708 C 0.256,-0.049 0.128,0 0,0" /></g><g
           transform="translate(35,176)"
           id="g158"><path
             id="path160"
             style="fill:#333333;fill-opacity:1;fill-rule:nonzero;stroke:none"
             d="M 0,0 V 0 C -0.55,0 -1,0.45 -1,1 -1,1.55 -0.55,2 0,2 0.55,2 1,1.55 1,1 1,0.45 0.55,0 0,0" /></g><g
           transform="translate(31,176)"
           id="g162"><path
             id="path164"
             style="fill:#333333;fill-opacity:1;fill-rule:nonzero;stroke:none"
             d="M 0,0 V 0 C -0.55,0 -1,0.45 -1,1 -1,1.55 -0.55,2 0,2 0.55,2 1,1.55 1,1 1,0.45 0.55,0 0,0" /></g><g
           transform="translate(31,172)"
           id="g166"><path
             id="path168"
             style="fill:#333333;fill-opacity:1;fill-rule:nonzero;stroke:none"
             d="M 0,0 V 0 C -0.55,0 -1,0.45 -1,1 -1,1.55 -0.55,2 0,2 0.55,2 1,1.55 1,1 1,0.45 0.55,0 0,0" /></g><g
           transform="translate(35,172)"
           id="g170"><path
             id="path172"
             style="fill:#333333;fill-opacity:1;fill-rule:nonzero;stroke:none"
             d="M 0,0 V 0 C -0.55,0 -1,0.45 -1,1 -1,1.55 -0.55,2 0,2 0.55,2 1,1.55 1,1 1,0.45 0.55,0 0,0" /></g><g
           transform="translate(35,168)"
           id="g174"><path
             id="path176"
             style="fill:#333333;fill-opacity:1;fill-rule:nonzero;stroke:none"
             d="M 0,0 V 0 C -0.55,0 -1,0.45 -1,1 -1,1.55 -0.55,2 0,2 0.55,2 1,1.55 1,1 1,0.45 0.55,0 0,0" /></g><g
           transform="translate(39,172)"
           id="g178"><path
             id="path180"
             style="fill:#333333;fill-opacity:1;fill-rule:nonzero;stroke:none"
             d="M 0,0 V 0 C -0.55,0 -1,0.45 -1,1 -1,1.55 -0.55,2 0,2 0.55,2 1,1.55 1,1 1,0.45 0.55,0 0,0" /></g><g
           transform="translate(39,168)"
           id="g182"><path
             id="path184"
             style="fill:#333333;fill-opacity:1;fill-rule:nonzero;stroke:none"
             d="M 0,0 V 0 C -0.55,0 -1,0.45 -1,1 -1,1.55 -0.55,2 0,2 0.55,2 1,1.55 1,1 1,0.45 0.55,0 0,0" /></g><g
           transform="translate(43,172)"
           id="g186"><path
             id="path188"
             style="fill:#333333;fill-opacity:1;fill-rule:nonzero;stroke:none"
             d="M 0,0 V 0 C -0.55,0 -1,0.45 -1,1 -1,1.55 -0.55,2 0,2 0.55,2 1,1.55 1,1 1,0.45 0.55,0 0,0" /></g><g
           transform="translate(47,168)"
           id="g190"><path
             id="path192"
             style="fill:#333333;fill-opacity:1;fill-rule:nonzero;stroke:none"
             d="M 0,0 V 0 C -0.55,0 -1,0.45 -1,1 -1,1.55 -0.55,2 0,2 0.55,2 1,1.55 1,1 1,0.45 0.55,0 0,0" /></g><g
           transform="translate(43,168)"
           id="g194"><path
             id="path196"
             style="fill:#333333;fill-opacity:1;fill-rule:nonzero;stroke:none"
             d="M 0,0 V 0 C -0.55,0 -1,0.45 -1,1 -1,1.55 -0.55,2 0,2 0.55,2 1,1.55 1,1 1,0.45 0.55,0 0,0" /></g><g
           transform="translate(43,164)"
           id="g198"><path
             id="path200"
             style="fill:#333333;fill-opacity:1;fill-rule:nonzero;stroke:none"
             d="M 0,0 V 0 C -0.55,0 -1,0.45 -1,1 -1,1.55 -0.55,2 0,2 0.55,2 1,1.55 1,1 1,0.45 0.55,0 0,0" /></g><g
           transform="translate(47,172)"
           id="g202"><path
             id="path204"
             style="fill:#333333;fill-opacity:1;fill-rule:nonzero;stroke:none"
             d="M 0,0 V 0 C -0.55,0 -1,0.45 -1,1 -1,1.55 -0.55,2 0,2 0.55,2 1,1.55 1,1 1,0.45 0.55,0 0,0" /></g><g
           transform="translate(51,168)"
           id="g206"><path
             id="path208"
             style="fill:#333333;fill-opacity:1;fill-rule:nonzero;stroke:none"
             d="M 0,0 V 0 C -0.55,0 -1,0.45 -1,1 -1,1.55 -0.55,2 0,2 0.55,2 1,1.55 1,1 1,0.45 0.55,0 0,0" /></g><g
           transform="translate(51,172)"
           id="g210"><path
             id="path212"
             style="fill:#333333;fill-opacity:1;fill-rule:nonzero;stroke:none"
             d="M 0,0 V 0 C -0.55,0 -1,0.45 -1,1 -1,1.55 -0.55,2 0,2 0.55,2 1,1.55 1,1 1,0.45 0.55,0 0,0" /></g><g
           transform="translate(47,164)"
           id="g214"><path
             id="path216"
             style="fill:#333333;fill-opacity:1;fill-rule:nonzero;stroke:none"
             d="M 0,0 V 0 C -0.55,0 -1,0.45 -1,1 -1,1.55 -0.55,2 0,2 0.55,2 1,1.55 1,1 1,0.45 0.55,0 0,0" /></g><g
           transform="translate(51,164)"
           id="g218"><path
             id="path220"
             style="fill:#333333;fill-opacity:1;fill-rule:nonzero;stroke:none"
             d="M 0,0 V 0 C -0.55,0 -1,0.45 -1,1 -1,1.55 -0.55,2 0,2 0.55,2 1,1.55 1,1 1,0.45 0.55,0 0,0" /></g><g
           transform="translate(55,164)"
           id="g222"><path
             id="path224"
             style="fill:#333333;fill-opacity:1;fill-rule:nonzero;stroke:none"
             d="M 0,0 V 0 C -0.55,0 -1,0.45 -1,1 -1,1.55 -0.55,2 0,2 0.55,2 1,1.55 1,1 1,0.45 0.55,0 0,0" /></g><g
           transform="translate(55,160)"
           id="g226"><path
             id="path228"
             style="fill:#333333;fill-opacity:1;fill-rule:nonzero;stroke:none"
             d="M 0,0 V 0 C -0.55,0 -1,0.45 -1,1 -1,1.55 -0.55,2 0,2 0.55,2 1,1.55 1,1 1,0.45 0.55,0 0,0" /></g><g
           transform="translate(55,168)"
           id="g230"><path
             id="path232"
             style="fill:#333333;fill-opacity:1;fill-rule:nonzero;stroke:none"
             d="M 0,0 V 0 C -0.55,0 -1,0.45 -1,1 -1,1.55 -0.55,2 0,2 0.55,2 1,1.55 1,1 1,0.45 0.55,0 0,0" /></g><g
           transform="translate(59,168)"
           id="g234"><path
             id="path236"
             style="fill:#333333;fill-opacity:1;fill-rule:nonzero;stroke:none"
             d="M 0,0 V 0 C -0.55,0 -1,0.45 -1,1 -1,1.55 -0.55,2 0,2 0.55,2 1,1.55 1,1 1,0.45 0.55,0 0,0" /></g><g
           transform="translate(55,172)"
           id="g238"><path
             id="path240"
             style="fill:#333333;fill-opacity:1;fill-rule:nonzero;stroke:none"
             d="M 0,0 V 0 C -0.55,0 -1,0.45 -1,1 -1,1.55 -0.55,2 0,2 0.55,2 1,1.55 1,1 1,0.45 0.55,0 0,0" /></g><g
           transform="translate(59,172)"
           id="g242"><path
             id="path244"
             style="fill:#333333;fill-opacity:1;fill-rule:nonzero;stroke:none"
             d="M 0,0 V 0 C -0.55,0 -1,0.45 -1,1 -1,1.55 -0.55,2 0,2 0.55,2 1,1.55 1,1 1,0.45 0.55,0 0,0" /></g><g
           transform="translate(59,160)"
           id="g246"><path
             id="path248"
             style="fill:#333333;fill-opacity:1;fill-rule:nonzero;stroke:none"
             d="M 0,0 V 0 C -0.55,0 -1,0.45 -1,1 -1,1.55 -0.55,2 0,2 0.55,2 1,1.55 1,1 1,0.45 0.55,0 0,0" /></g><g
           transform="translate(59,164)"
           id="g250"><path
             id="path252"
             style="fill:#333333;fill-opacity:1;fill-rule:nonzero;stroke:none"
             d="M 0,0 V 0 C -0.55,0 -1,0.45 -1,1 -1,1.55 -0.55,2 0,2 0.55,2 1,1.55 1,1 1,0.45 0.55,0 0,0" /></g><g
           transform="translate(39,176)"
           id="g254"><path
             id="path256"
             style="fill:#333333;fill-opacity:1;fill-rule:nonzero;stroke:none"
             d="M 0,0 V 0 C -0.55,0 -1,0.45 -1,1 -1,1.55 -0.55,2 0,2 0.55,2 1,1.55 1,1 1,0.45 0.55,0 0,0" /></g><g
           transform="translate(43,176)"
           id="g258"><path
             id="path260"
             style="fill:#333333;fill-opacity:1;fill-rule:nonzero;stroke:none"
             d="M 0,0 V 0 C -0.55,0 -1,0.45 -1,1 -1,1.55 -0.55,2 0,2 0.55,2 1,1.55 1,1 1,0.45 0.55,0 0,0" /></g><g
           transform="translate(47,176)"
           id="g262"><path
             id="path264"
             style="fill:#333333;fill-opacity:1;fill-rule:nonzero;stroke:none"
             d="M 0,0 V 0 C -0.55,0 -1,0.45 -1,1 -1,1.55 -0.55,2 0,2 0.55,2 1,1.55 1,1 1,0.45 0.55,0 0,0" /></g><g
           transform="translate(51,176)"
           id="g266"><path
             id="path268"
             style="fill:#333333;fill-opacity:1;fill-rule:nonzero;stroke:none"
             d="M 0,0 V 0 C -0.55,0 -1,0.45 -1,1 -1,1.55 -0.55,2 0,2 0.55,2 1,1.55 1,1 1,0.45 0.55,0 0,0" /></g><g
           transform="translate(55,176)"
           id="g270"><path
             id="path272"
             style="fill:#333333;fill-opacity:1;fill-rule:nonzero;stroke:none"
             d="M 0,0 V 0 C -0.55,0 -1,0.45 -1,1 -1,1.55 -0.55,2 0,2 0.55,2 1,1.55 1,1 1,0.45 0.55,0 0,0" /></g><g
           transform="translate(59,176)"
           id="g274"><path
             id="path276"
             style="fill:#333333;fill-opacity:1;fill-rule:nonzero;stroke:none"
             d="M 0,0 V 0 C -0.55,0 -1,0.45 -1,1 -1,1.55 -0.55,2 0,2 0.55,2 1,1.55 1,1 1,0.45 0.55,0 0,0" /></g><g
           transform="translate(63,176)"
           id="g278"><path
             id="path280"
             style="fill:#333333;fill-opacity:1;fill-rule:nonzero;stroke:none"
             d="M 0,0 V 0 C -0.55,0 -1,0.45 -1,1 -1,1.55 -0.55,2 0,2 0.55,2 1,1.55 1,1 1,0.45 0.55,0 0,0" /></g></g></g></g></svg>