<?xml version="1.0" encoding="UTF-8" standalone="no"?>
<svg
   xmlns:dc="http://purl.org/dc/elements/1.1/"
   xmlns:cc="http://creativecommons.org/ns#"
   xmlns:rdf="http://www.w3.org/1999/02/22-rdf-syntax-ns#"
   xmlns:svg="http://www.w3.org/2000/svg"
   xmlns="http://www.w3.org/2000/svg"
   viewBox="0 0 213.33307 330.66665"
   height="330.66666"
   width="213.33307"
   xml:space="preserve"
   id="svg2"
   version="1.1"><metadata
     id="metadata8"><rdf:RDF><cc:Work
         rdf:about=""><dc:format>image/svg+xml</dc:format><dc:type
           rdf:resource="http://purl.org/dc/dcmitype/StillImage" /></cc:Work></rdf:RDF></metadata><defs
     id="defs6"><clipPath
       id="clipPath18"
       clipPathUnits="userSpaceOnUse"><path
         id="path16"
         d="M 0,256 H 256 V 0 H 0 Z" /></clipPath><clipPath
       id="clipPath26"
       clipPathUnits="userSpaceOnUse"><path
         id="path24"
         d="M 48,252 H 208 V 4 H 48 Z" /></clipPath><clipPath
       id="clipPath80"
       clipPathUnits="userSpaceOnUse"><path
         id="path78"
         d="m 151.328,41.1985 h 14.667 v -21.601 h -14.667 z" /></clipPath><clipPath
       id="clipPath96"
       clipPathUnits="userSpaceOnUse"><path
         id="path94"
         d="M 158.663,44.799 H 173.33 V 23.1981 h -14.667 z" /></clipPath><clipPath
       id="clipPath112"
       clipPathUnits="userSpaceOnUse"><path
         id="path110"
         d="m 165.998,48.3995 h 14.667 V 26.7986 h -14.667 z" /></clipPath><clipPath
       id="clipPath128"
       clipPathUnits="userSpaceOnUse"><path
         id="path126"
         d="M 173.333,52 H 188 V 30.3991 h -14.667 z" /></clipPath></defs><g
     transform="matrix(1.3333333,0,0,-1.3333333,-63.999998,335.99999)"
     id="g10"><g
       id="g12"><g
         clip-path="url(#clipPath18)"
         id="g14"><g
           id="g20"><g
             id="g22" /><g
             id="g34"><g
               style="opacity:0.5"
               id="g32"
               clip-path="url(#clipPath26)"><g
                 id="g30"
                 transform="translate(192.7968,252)"><path
                   id="path28"
                   style="fill:#ffffff;fill-opacity:1;fill-rule:nonzero;stroke:none"
                   d="m 0,0 h -34.481 -60.632 -34.481 c -8.383,0 -15.203,-6.779 -15.203,-15.113 v -34.048 -22.081 -105.516 -22.081 -34.048 c 0,-8.333 6.82,-15.113 15.203,-15.113 H -95.113 -72 -34.481 c 27.396,0 49.684,22.054 49.684,49.161 v 22.081 127.597 34.048 C 15.203,-6.779 8.383,0 0,0" /></g></g></g></g><g
           transform="translate(192.7968,244)"
           id="g36"><path
             id="path38"
             style="fill:#bfbfbf;fill-opacity:1;fill-rule:nonzero;stroke:none"
             d="m 0,0 h -34.481 -60.632 -34.481 c -3.978,0 -7.203,-3.184 -7.203,-7.113 v -34.048 -22.081 -105.516 -22.08 -34.049 c 0,-3.928 3.225,-7.113 7.203,-7.113 H -95.113 -72 -34.481 c 23.022,0 41.684,18.429 41.684,41.162 v 22.08 127.597 34.048 C 7.203,-3.184 3.978,0 0,0" /></g><g
           transform="translate(184.2498,228)"
           id="g40"><path
             id="path42"
             style="fill:#595959;fill-opacity:1;fill-rule:nonzero;stroke:none"
             d="m 0,0 h -112.5 c -2.071,0 -3.75,-1.648 -3.75,-3.68 v -84.818 c 0,-1.934 1.598,-3.502 3.569,-3.502 h 52.863 41.068 c 12.427,0 22.5,9.886 22.5,22.08 V -3.68 C 3.75,-1.648 2.071,0 0,0" /></g><g
           transform="translate(166,214)"
           id="g44"><path
             id="path46"
             style="fill:#4c4c4c;fill-opacity:1;fill-rule:nonzero;stroke:none"
             d="m 0,0 h -2 -72 -2 v -2 -68 -2 h 2 72 2 v 2 68 z" /></g><path
           id="path48"
           style="fill:#485915;fill-opacity:1;fill-rule:nonzero;stroke:none"
           d="m 92,212 h 72 V 144 H 92 Z" /><g
           transform="translate(192,98)"
           id="g50"><path
             id="path52"
             style="fill:#b3b3b3;fill-opacity:1;fill-rule:nonzero;stroke:none"
             d="m 0,0 c 0,6.617 -5.383,12 -12,12 -1.395,0 -2.73,-0.252 -3.976,-0.691 l -10e-4,0.003 -0.036,-0.017 C -16.727,11.041 -47.383,-3.267 -47.956,-3.597 L -48,-3.617 -47.998,-3.622 C -51.58,-5.701 -54,-9.569 -54,-14 c 0,-6.617 5.383,-12 12,-12 1.284,0 2.52,0.208 3.681,0.583 l 0.001,-0.003 0.034,0.016 c 0.887,0.29 31.797,14.753 31.797,14.753 l -0.001,0.003 C -2.639,-8.647 0,-4.629 0,0" /></g><g
           transform="translate(160,84)"
           id="g54"><path
             id="path56"
             style="fill:#7b0000;fill-opacity:1;fill-rule:nonzero;stroke:none"
             d="m 0,0 c 0,-5.523 -4.477,-10 -10,-10 -5.523,0 -10,4.477 -10,10 0,5.523 4.477,10 10,10 C -4.477,10 0,5.523 0,0" /></g><g
           transform="translate(190,98)"
           id="g58"><path
             id="path60"
             style="fill:#7b0000;fill-opacity:1;fill-rule:nonzero;stroke:none"
             d="m 0,0 c 0,-5.523 -4.477,-10 -10,-10 -5.523,0 -10,4.477 -10,10 0,5.523 4.477,10 10,10 C -4.477,10 0,5.523 0,0" /></g><g
           transform="translate(115.3781,55.9179)"
           id="g62"><path
             id="path64"
             style="fill:#808080;fill-opacity:1;fill-rule:nonzero;stroke:none"
             d="M 0,0 C -0.774,0.181 -1.62,0.06 -2.326,-0.332 L -13.897,-6.85 c -1.389,-0.785 -1.885,-2.402 -1.127,-3.687 0.389,-0.654 1.037,-1.113 1.825,-1.296 0.243,-0.056 0.489,-0.083 0.732,-0.083 0.553,0 1.098,0.141 1.589,0.418 L 0.691,-4.981 C 2.087,-4.198 2.583,-2.579 1.82,-1.298 1.437,-0.646 0.789,-0.185 0,0" /></g><g
           transform="translate(143.6458,54.6202)"
           id="g66"><path
             id="path68"
             style="fill:#808080;fill-opacity:1;fill-rule:nonzero;stroke:none"
             d="m 0,0 c -0.384,0.654 -1.032,1.113 -1.823,1.298 -0.781,0.18 -1.627,0.06 -2.323,-0.335 l -11.569,-6.517 c -1.396,-0.783 -1.892,-2.402 -1.129,-3.683 0.379,-0.644 1.043,-1.117 1.825,-1.3 0.243,-0.056 0.488,-0.083 0.734,-0.083 0.55,0 1.098,0.141 1.587,0.417 l 11.571,6.518 C 0.262,-2.901 0.758,-1.283 0,0" /></g><g
           transform="translate(147.4166,36.7218)"
           id="g70"><path
             id="path72"
             style="fill:#8c8c8c;fill-opacity:1;fill-rule:nonzero;stroke:none"
             d="m 0,0 10.989,-18.109 c 0.503,-0.827 0.216,-1.88 -0.641,-2.35 l -0.067,-0.037 C 9.424,-20.967 8.322,-20.677 7.82,-19.849 L -3.169,-1.741 c -0.503,0.828 -0.216,1.88 0.641,2.351 L -2.46,0.647 C -1.604,1.117 -0.502,0.828 0,0" /></g><g
           id="g74"><g
             id="g76" /><g
             id="g88"><g
               style="opacity:0.777771"
               id="g86"
               clip-path="url(#clipPath80)"><g
                 id="g84"
                 transform="translate(154.748,40.3253)"><path
                   id="path82"
                   style="fill:#8c8c8c;fill-opacity:1;fill-rule:nonzero;stroke:none"
                   d="m 0,0 10.999,-18.113 c 0.503,-0.829 0.216,-1.882 -0.641,-2.352 l -0.068,-0.037 c -0.857,-0.471 -1.96,-0.181 -2.463,0.647 L -3.172,-1.741 c -0.503,0.828 -0.216,1.881 0.641,2.352 l 0.068,0.037 C -1.606,1.118 -0.503,0.828 0,0" /></g></g></g></g><g
           id="g90"><g
             id="g92" /><g
             id="g104"><g
               style="opacity:0.777771"
               id="g102"
               clip-path="url(#clipPath96)"><g
                 id="g100"
                 transform="translate(162.0831,43.9258)"><path
                   id="path98"
                   style="fill:#8c8c8c;fill-opacity:1;fill-rule:nonzero;stroke:none"
                   d="m 0,0 10.999,-18.113 c 0.503,-0.829 0.216,-1.882 -0.641,-2.352 l -0.068,-0.037 c -0.857,-0.471 -1.96,-0.181 -2.463,0.647 L -3.172,-1.741 c -0.503,0.828 -0.216,1.881 0.641,2.352 l 0.068,0.037 C -1.606,1.118 -0.503,0.828 0,0" /></g></g></g></g><g
           id="g106"><g
             id="g108" /><g
             id="g120"><g
               style="opacity:0.777771"
               id="g118"
               clip-path="url(#clipPath112)"><g
                 id="g116"
                 transform="translate(169.418,47.5264)"><path
                   id="path114"
                   style="fill:#8c8c8c;fill-opacity:1;fill-rule:nonzero;stroke:none"
                   d="m 0,0 10.999,-18.113 c 0.503,-0.829 0.216,-1.882 -0.641,-2.352 l -0.068,-0.037 c -0.857,-0.471 -1.96,-0.181 -2.463,0.647 L -3.172,-1.741 c -0.503,0.828 -0.216,1.881 0.641,2.352 l 0.068,0.037 C -1.606,1.118 -0.503,0.828 0,0" /></g></g></g></g><g
           id="g122"><g
             id="g124" /><g
             id="g136"><g
               style="opacity:0.777771"
               id="g134"
               clip-path="url(#clipPath128)"><g
                 id="g132"
                 transform="translate(176.753,51.1269)"><path
                   id="path130"
                   style="fill:#8c8c8c;fill-opacity:1;fill-rule:nonzero;stroke:none"
                   d="m 0,0 10.999,-18.113 c 0.503,-0.829 0.216,-1.882 -0.641,-2.352 l -0.068,-0.037 c -0.857,-0.471 -1.96,-0.181 -2.463,0.647 L -3.172,-1.741 c -0.503,0.828 -0.216,1.881 0.641,2.352 l 0.068,0.037 C -1.606,1.118 -0.503,0.828 0,0" /></g></g></g></g><g
           transform="translate(80,189.9271)"
           id="g138"><path
             id="path140"
             style="fill:#ff0000;fill-opacity:1;fill-rule:nonzero;stroke:none"
             d="m 0,0 c 0,-1.105 -0.895,-2 -2,-2 -1.105,0 -2,0.895 -2,2 0,1.105 0.895,2 2,2 1.105,0 2,-0.895 2,-2" /></g><path
           id="path142"
           style="fill:#7b0000;fill-opacity:1;fill-rule:nonzero;stroke:none"
           d="M 180,222 H 76 v 2 h 104 z" /><path
           id="path144"
           style="fill:#00003d;fill-opacity:1;fill-rule:nonzero;stroke:none"
           d="M 180,218 H 76 v 2 h 104 z" /><g
           transform="translate(98,89)"
           id="g146"><path
             id="path148"
             style="fill:#191919;fill-opacity:1;fill-rule:nonzero;stroke:none"
             d="m 0,0 h -9 v 8 c 0,1.65 -1.35,3 -3,3 h -4 c -1.65,0 -3,-1.35 -3,-3 V 0 h -9 c -1.1,0 -2,-0.9 -2,-2 v -6 c 0,-1.1 0.9,-2 2,-2 h 9 v -8 c 0,-1.65 1.35,-3 3,-3 h 4 c 1.65,0 3,1.35 3,3 v 8 h 9 c 1.1,0 2,0.9 2,2 v 6 C 2,-0.9 1.1,0 0,0" /></g><g
           transform="translate(88,84)"
           id="g150"><path
             id="path152"
             style="fill:#262626;fill-opacity:1;fill-rule:nonzero;stroke:none"
             d="m 0,0 c 0,-2.209 -1.791,-4 -4,-4 -2.209,0 -4,1.791 -4,4 0,2.209 1.791,4 4,4 2.209,0 4,-1.791 4,-4" /></g><g
           transform="translate(186,234)"
           id="g154"><path
             id="path156"
             style="fill:#a6a6a6;fill-opacity:1;fill-rule:nonzero;stroke:none"
             d="M 0,0 V 10 H -2 V 0 h -112 v 10 h -2 V 0 h -14 v -2 h 14 2 112 2 14 v 2 z" /></g><g
           transform="translate(102,240)"
           id="g158"><path
             id="path160"
             style="fill:#b3b3b3;fill-opacity:1;fill-rule:nonzero;stroke:none"
             d="m 0,0 h -12 v 4 h -2 V 0 h -2 v 4 h -2 V 0 h -2 v 4 h -2 V 0 h -2 c -1.105,0 -2,-0.895 -2,-2 0,-1.105 0.895,-2 2,-2 H 0 c 1.105,0 2,0.895 2,2 0,1.105 -0.895,2 -2,2" /></g><g
           transform="translate(106,16)"
           id="g162"><path
             id="path164"
             style="fill:#b3b3b3;fill-opacity:1;fill-rule:nonzero;stroke:none"
             d="m 0,0 h 12 v -4 h 2 v 4 h 2 v -4 h 2 v 4 h 2 v -4 h 2 v 4 h 2 c 1.105,0 2,0.895 2,2 0,1.105 -0.895,2 -2,2 H 0 C -1.105,4 -2,3.105 -2,2 -2,0.895 -1.105,0 0,0" /></g></g></g></g></svg>