<svg xmlns="http://www.w3.org/2000/svg" xml:space="preserve" width="213.333" height="330.667" viewBox="0 0 213.333 330.667"><defs><clipPath id="a" clipPathUnits="userSpaceOnUse"><path d="M0 256h256V0H0Z"/></clipPath><clipPath id="b" clipPathUnits="userSpaceOnUse"><path d="M48 252h160V4H48Z"/></clipPath><clipPath id="c" clipPathUnits="userSpaceOnUse"><path d="M151.328 41.199h14.667V19.598h-14.667z"/></clipPath><clipPath id="d" clipPathUnits="userSpaceOnUse"><path d="M158.663 44.799h14.667v-21.6h-14.667z"/></clipPath><clipPath id="e" clipPathUnits="userSpaceOnUse"><path d="M165.998 48.4h14.667V26.799h-14.667z"/></clipPath><clipPath id="f" clipPathUnits="userSpaceOnUse"><path d="M173.333 52H188V30.4h-14.667z"/></clipPath></defs><g clip-path="url(#a)" transform="matrix(1.33333 0 0 -1.33333 -64 336)"><g clip-path="url(#b)" style="opacity:.5"><path d="M0 0h-129.594c-8.383 0-15.203-6.779-15.203-15.113v-217.774c0-8.333 6.82-15.113 15.203-15.113h95.113c27.396 0 49.684 22.054 49.684 49.161v183.726C15.203-6.779 8.383 0 0 0" style="fill:#fff;fill-opacity:1;fill-rule:nonzero;stroke:none" transform="translate(192.797 252)"/></g><path d="M0 0h-129.594c-3.978 0-7.203-3.184-7.203-7.113v-217.774c0-3.928 3.225-7.113 7.203-7.113h95.113c23.022 0 41.684 18.429 41.684 41.162V-7.113C7.203-3.184 3.978 0 0 0" style="fill:#bfbfbf;fill-opacity:1;fill-rule:nonzero;stroke:none" transform="translate(192.797 244)"/><path d="M0 0h-112.5c-2.071 0-3.75-1.648-3.75-3.68v-84.818c0-1.934 1.598-3.502 3.569-3.502h93.931c12.427 0 22.5 9.886 22.5 22.08v66.24C3.75-1.648 2.071 0 0 0" style="fill:#595959;fill-opacity:1;fill-rule:nonzero;stroke:none" transform="translate(184.25 228)"/><path d="M0 0h-76v-72H0v70z" style="fill:#4c4c4c;fill-opacity:1;fill-rule:nonzero;stroke:none" transform="translate(166 214)"/><path d="M92 212h72v-68H92Z" style="fill:#485915;fill-opacity:1;fill-rule:nonzero;stroke:none"/><path d="M0 0c0 6.617-5.383 12-12 12-1.395 0-2.73-.252-3.976-.691l-.001.003-.036-.017c-.714-.254-31.37-14.562-31.943-14.892l-.044-.02.002-.005C-51.58-5.701-54-9.569-54-14c0-6.617 5.383-12 12-12 1.284 0 2.52.208 3.681.583l.001-.003.034.016c.887.29 31.797 14.753 31.797 14.753l-.001.003C-2.639-8.647 0-4.629 0 0" style="fill:#b3b3b3;fill-opacity:1;fill-rule:nonzero;stroke:none" transform="translate(192 98)"/><path d="M0 0c0-5.523-4.477-10-10-10S-20-5.523-20 0s4.477 10 10 10S0 5.523 0 0" style="fill:#7b0000;fill-opacity:1;fill-rule:nonzero;stroke:none" transform="translate(160 84)"/><path d="M0 0c0-5.523-4.477-10-10-10S-20-5.523-20 0s4.477 10 10 10S0 5.523 0 0" style="fill:#7b0000;fill-opacity:1;fill-rule:nonzero;stroke:none" transform="translate(190 98)"/><path d="M0 0c-.774.181-1.62.06-2.326-.332L-13.897-6.85c-1.389-.785-1.885-2.402-1.127-3.687.389-.654 1.037-1.113 1.825-1.296q.366-.084.732-.083c.553 0 1.098.141 1.589.418L.691-4.981c1.396.783 1.892 2.402 1.129 3.683C1.437-.646.789-.185 0 0" style="fill:gray;fill-opacity:1;fill-rule:nonzero;stroke:none" transform="translate(115.378 55.918)"/><path d="M0 0c-.384.654-1.032 1.113-1.823 1.298-.781.18-1.627.06-2.323-.335l-11.569-6.517c-1.396-.783-1.892-2.402-1.129-3.683.379-.644 1.043-1.117 1.825-1.3a3.26 3.26 0 0 1 2.321.334l11.571 6.518C.262-2.901.758-1.283 0 0" style="fill:gray;fill-opacity:1;fill-rule:nonzero;stroke:none" transform="translate(143.646 54.62)"/><path d="m0 0 10.989-18.109a1.67 1.67 0 0 0-.641-2.35l-.067-.037c-.857-.471-1.959-.181-2.461.647L-3.169-1.741A1.67 1.67 0 0 0-2.528.61l.068.037C-1.604 1.117-.502.828 0 0" style="fill:#8c8c8c;fill-opacity:1;fill-rule:nonzero;stroke:none" transform="translate(147.417 36.722)"/><g clip-path="url(#c)" style="opacity:.777771"><path d="m0 0 10.999-18.113a1.67 1.67 0 0 0-.641-2.352l-.068-.037c-.857-.471-1.96-.181-2.463.647L-3.172-1.741A1.673 1.673 0 0 0-2.531.611l.068.037C-1.606 1.118-.503.828 0 0" style="fill:#8c8c8c;fill-opacity:1;fill-rule:nonzero;stroke:none" transform="translate(154.748 40.325)"/></g><g clip-path="url(#d)" style="opacity:.777771"><path d="m0 0 10.999-18.113a1.67 1.67 0 0 0-.641-2.352l-.068-.037c-.857-.471-1.96-.181-2.463.647L-3.172-1.741A1.673 1.673 0 0 0-2.531.611l.068.037C-1.606 1.118-.503.828 0 0" style="fill:#8c8c8c;fill-opacity:1;fill-rule:nonzero;stroke:none" transform="translate(162.083 43.926)"/></g><g clip-path="url(#e)" style="opacity:.777771"><path d="m0 0 10.999-18.113a1.67 1.67 0 0 0-.641-2.352l-.068-.037c-.857-.471-1.96-.181-2.463.647L-3.172-1.741A1.673 1.673 0 0 0-2.531.611l.068.037C-1.606 1.118-.503.828 0 0" style="fill:#8c8c8c;fill-opacity:1;fill-rule:nonzero;stroke:none" transform="translate(169.418 47.526)"/></g><g clip-path="url(#f)" style="opacity:.777771"><path d="m0 0 10.999-18.113a1.67 1.67 0 0 0-.641-2.352l-.068-.037c-.857-.471-1.96-.181-2.463.647L-3.172-1.741A1.673 1.673 0 0 0-2.531.611l.068.037C-1.606 1.118-.503.828 0 0" style="fill:#8c8c8c;fill-opacity:1;fill-rule:nonzero;stroke:none" transform="translate(176.753 51.127)"/></g><path d="M0 0a2 2 0 1 0-3.999-.001A2 2 0 0 0 0 0" style="fill:red;fill-opacity:1;fill-rule:nonzero;stroke:none" transform="translate(80 189.927)"/><path d="M180 222H76v2h104z" style="fill:#7b0000;fill-opacity:1;fill-rule:nonzero;stroke:none"/><path d="M180 218H76v2h104z" style="fill:#00003d;fill-opacity:1;fill-rule:nonzero;stroke:none"/><path d="M0 0h-9v8c0 1.65-1.35 3-3 3h-4c-1.65 0-3-1.35-3-3V0h-9c-1.1 0-2-.9-2-2v-6c0-1.1.9-2 2-2h9v-8c0-1.65 1.35-3 3-3h4c1.65 0 3 1.35 3 3v8h9c1.1 0 2 .9 2 2v6c0 1.1-.9 2-2 2" style="fill:#191919;fill-opacity:1;fill-rule:nonzero;stroke:none" transform="translate(98 89)"/><path d="M0 0a4 4 0 1 0-8 0 4 4 0 0 0 8 0" style="fill:#262626;fill-opacity:1;fill-rule:nonzero;stroke:none" transform="translate(88 84)"/><path d="M0 0v10h-2V0h-112v10h-2V0h-14v-2H14v2z" style="fill:#a6a6a6;fill-opacity:1;fill-rule:nonzero;stroke:none" transform="translate(186 234)"/><path d="M0 0h-12v4h-2V0h-2v4h-2V0h-2v4h-2V0h-2a2 2 0 1 1 0-4H0a2 2 0 1 1 0 4" style="fill:#b3b3b3;fill-opacity:1;fill-rule:nonzero;stroke:none" transform="translate(102 240)"/><path d="M0 0h12v-4h2v4h2v-4h2v4h2v-4h2v4h2a2 2 0 1 1 0 4H0a2 2 0 1 1 0-4" style="fill:#b3b3b3;fill-opacity:1;fill-rule:nonzero;stroke:none" transform="translate(106 16)"/></g></svg>