<svg xmlns="http://www.w3.org/2000/svg" xml:space="preserve" width="328.743" height="186.667" viewBox="0 0 328.743 186.667"><defs><clipPath id="a" clipPathUnits="userSpaceOnUse"><path d="M0 256h256V0H0Z"/></clipPath><clipPath id="b" clipPathUnits="userSpaceOnUse"><path d="M4.721 196H251.28V56H4.721Z"/></clipPath></defs><g clip-path="url(#a)" transform="matrix(1.33333 0 0 -1.33333 -6.295 261.333)"><g clip-path="url(#b)" style="opacity:.5"><path d="m0 0-1.311 35.376a9 9 0 0 1-.273 1.908c.178.888.221 1.806.121 2.722-.42 3.857-2.912 16.814-17.349 21.626-10.951 3.651-34.538 4.292-44.45 4.397a9 9 0 0 1-.493.014h-115.172q-.277-.001-.494-.014c-9.911-.105-33.498-.746-44.45-4.397-14.436-4.812-16.928-17.769-17.348-21.625a9 9 0 0 1 .121-2.724 9 9 0 0 1-.273-1.907L-242.681 0c-2.954-23.484-5.873-47.688 18.369-57.385l.331-.133.341-.101 36.173-10.853a57.4 57.4 0 0 1 9.519-1.989c8.656-1.052 31.498-3.496 56.607-3.496 25.11 0 47.951 2.444 56.607 3.496a57.3 57.3 0 0 1 9.519 1.989l36.173 10.853.342.101.33.133C5.873-47.688 2.953-23.484 0 0" style="fill:#fff;fill-opacity:1;fill-rule:nonzero;stroke:none" transform="translate(249.34 129.957)"/></g><path d="m0 0-10 12 1.964 53.037a1 1 0 0 0 1 .963H0Z" style="fill:#999;fill-opacity:1;fill-rule:nonzero;stroke:none" transform="translate(24 96)"/><path d="m0 0 10 12-1.964 53.037a1 1 0 0 1-1 .963H0Z" style="fill:#999;fill-opacity:1;fill-rule:nonzero;stroke:none" transform="translate(232 96)"/><path d="M0 0s-32 0-44-4c-9.788-3.263-11.592-11.848-11.925-14.902A.996.996 0 0 1-54.929-20H0Z" style="fill:#999;fill-opacity:1;fill-rule:nonzero;stroke:none" transform="translate(72 184)"/><path d="M0 0s32 0 44-4c9.788-3.263 11.593-11.848 11.925-14.902A.996.996 0 0 0 54.93-20H0Z" style="fill:#999;fill-opacity:1;fill-rule:nonzero;stroke:none" transform="translate(184 184)"/><path d="M0 0c-1.664 13.31-2.636 21.776-3.203 27.125-.526 4.949-4.315 8.903-9.231 9.681-10.656 1.684-27.202 5.691-35.243 8.889A32.7 32.7 0 0 1-59.78 48h-104.44c-4.148 0-8.249-.771-12.103-2.305-8.041-3.198-24.587-7.205-35.243-8.889-4.916-.778-8.706-4.732-9.231-9.681C-221.364 21.776-222.336 13.31-224 0c-4-32-8-52 12-60l36.172-10.852a49 49 0 0 1 8.185-1.711C-158.57-73.664-136.453-76-112-76s46.57 2.336 55.643 3.437c2.774.337 5.507.909 8.184 1.711L-12-60C8-52 4-32 0 0" style="fill:#f2f2f2;fill-opacity:1;fill-rule:nonzero;stroke:none" transform="translate(240 140)"/><path d="M0 0s-2 64-2 72-6 8-6 8l-12.731.979a512 512 0 0 1-78.538 0L-112 80s-6 0-6-8-2-72-2-72-4-16 60-16S0 0 0 0" style="fill:#191919;fill-opacity:1;fill-rule:nonzero;stroke:none" transform="translate(188 92)"/><path d="M180 100H76v64h104z" style="fill:gray;fill-opacity:1;fill-rule:nonzero;stroke:none"/><path d="M0 0a8 8 0 1 0-16 0A8 8 0 0 0 0 0" style="fill:#999;fill-opacity:1;fill-rule:nonzero;stroke:none" transform="translate(212 132)"/><path d="M0 0a8 8 0 1 0-16 0A8 8 0 0 0 0 0" style="fill:#999;fill-opacity:1;fill-rule:nonzero;stroke:none" transform="translate(232 140)"/><path d="m0 0-24-8v2L0 2Z" style="fill:#e6e6e6;fill-opacity:1;fill-rule:nonzero;stroke:none" transform="translate(220 112)"/><path d="m0 0-24-8v2L0 2Z" style="fill:#e6e6e6;fill-opacity:1;fill-rule:nonzero;stroke:none" transform="translate(220 108)"/><path d="m0 0-24-8v2L0 2Z" style="fill:#e6e6e6;fill-opacity:1;fill-rule:nonzero;stroke:none" transform="translate(220 104)"/><path d="m0 0-24-8v2L0 2Z" style="fill:#e6e6e6;fill-opacity:1;fill-rule:nonzero;stroke:none" transform="translate(220 100)"/><path d="m0 0-24-8v2L0 2Z" style="fill:#e6e6e6;fill-opacity:1;fill-rule:nonzero;stroke:none" transform="translate(220 96)"/><path d="m0 0-20.658 3.443A4 4 0 0 0-24 7.389a3.906 3.906 0 0 0 4.549 3.853L0 8Z" style="fill:#e6e6e6;fill-opacity:1;fill-rule:nonzero;stroke:none" transform="translate(60 100)"/><path d="M0 0a4 4 0 1 0-8 0 4 4 0 0 0 8 0" style="fill:#999;fill-opacity:1;fill-rule:nonzero;stroke:none" transform="translate(64 104)"/><path d="m0 0-20.658 3.443A4 4 0 0 0-24 7.389a3.906 3.906 0 0 0 4.549 3.853L0 8Z" style="fill:#e6e6e6;fill-opacity:1;fill-rule:nonzero;stroke:none" transform="translate(60 88)"/><path d="M0 0a4 4 0 1 0-8 0 4 4 0 0 0 8 0" style="fill:#999;fill-opacity:1;fill-rule:nonzero;stroke:none" transform="translate(64 92)"/><path d="M0 0a2 2 0 1 0-4.001.001A2 2 0 0 0 0 0" style="fill:#0f0;fill-opacity:1;fill-rule:nonzero;stroke:none" transform="translate(204 166)"/><path d="M0 0h-8v8a2 2 0 0 1-2 2h-8a2 2 0 0 1-2-2V0h-8a2 2 0 0 1-2-2v-8a2 2 0 0 1 2-2h8v-8a2 2 0 0 1 2-2h8a2 2 0 0 1 2 2v8h8a2 2 0 0 1 2 2v8a2 2 0 0 1-2 2" style="fill:#999;fill-opacity:1;fill-rule:nonzero;stroke:none" transform="translate(54 142)"/><path d="M0 0a4 4 0 1 0-8 0 4 4 0 0 0 8 0" style="fill:#8c8c8c;fill-opacity:1;fill-rule:nonzero;stroke:none" transform="translate(44 136)"/><path d="M0 0h4.764a1 1 0 0 1 .894 1.447L3.276 6.211a1 1 0 0 1-1.789 0L-.895 1.447A1 1 0 0 1 0 0" style="fill:#8c8c8c;fill-opacity:1;fill-rule:nonzero;stroke:none" transform="translate(37.618 144)"/><path d="M0 0h-4.764a1 1 0 0 1-.894-1.447l2.382-4.764a1 1 0 0 1 1.789 0L.895-1.447A1 1 0 0 1 0 0" style="fill:#8c8c8c;fill-opacity:1;fill-rule:nonzero;stroke:none" transform="translate(42.382 128)"/><path d="M0 0v-4.764a1 1 0 0 1 1.447-.894l4.764 2.382a1 1 0 0 1 0 1.789L1.447.895A1 1 0 0 1 0 0" style="fill:#8c8c8c;fill-opacity:1;fill-rule:nonzero;stroke:none" transform="translate(48 138.382)"/><path d="m0 0 4.764-2.382a1 1 0 0 1 1.447.895v4.763a1 1 0 0 1-1.447.895" style="fill:#8c8c8c;fill-opacity:1;fill-rule:nonzero;stroke:none" transform="translate(25.79 135.106)"/></g></svg>