<svg xmlns="http://www.w3.org/2000/svg" xml:space="preserve" width="202.666" height="330.667" viewBox="0 0 202.666 330.667"><defs><clipPath id="a" clipPathUnits="userSpaceOnUse"><path d="M0 256h256V0H0Z"/></clipPath><clipPath id="b" clipPathUnits="userSpaceOnUse"><path d="M52 252h152V4H52Z"/></clipPath></defs><g clip-path="url(#a)" transform="matrix(1.33333 0 0 -1.33333 -69.333 336)"><g clip-path="url(#b)" style="opacity:.5"><path d="M0 0h-113.333c-10.661 0-19.334-8.625-19.334-19.226V-221.29c0-10.03 9.202-17.365 27.35-21.804C-92.38-246.258-75.103-248-56.667-248s35.714 1.742 48.651 4.906c18.148 4.439 27.349 11.774 27.349 21.804v202.064C19.333-8.625 10.66 0 0 0" style="fill:#fff;fill-opacity:1;fill-rule:nonzero;stroke:none" transform="translate(184.667 252)"/></g><path d="M0 0h-113.333c-6.26 0-11.334-5.026-11.334-11.226V-213.29c0-24.947 136-24.947 136 0v202.064C11.333-5.026 6.259 0 0 0" style="fill:#2c8bbf;fill-opacity:1;fill-rule:nonzero;stroke:none" transform="translate(184.667 244)"/><path d="M172 36H84v208h88z" style="fill:#3096cf;fill-opacity:1;fill-rule:nonzero;stroke:none"/><path d="M0 0h-105.556c-3.988 0-7.222-3.222-7.222-7.196v-85.292c0-4.637 3.773-8.395 8.426-8.395h-.926c35-4.041 70-4.27 105 0h-.926c4.654 0 8.426 3.758 8.426 8.395v85.292C7.222-3.222 3.989 0 0 0" style="fill:#383838;fill-opacity:1;fill-rule:nonzero;stroke:none" transform="translate(180.778 236)"/><path d="M88 224h80v-68H88Z" style="fill:#bfbfbf;fill-opacity:1;fill-rule:nonzero;stroke:none"/><path d="M0 0h-12v12h-12V0h-12v-12h12v-12h12v12H0Z" style="fill:#333;fill-opacity:1;fill-rule:nonzero;stroke:none" transform="translate(104 100)"/><path d="M0 0a4 4 0 1 0-8 0 4 4 0 0 0 8 0" style="fill:#404040;fill-opacity:1;fill-rule:nonzero;stroke:none" transform="translate(90 94)"/><path d="m0 0 5 3v-6Z" style="fill:#404040;fill-opacity:1;fill-rule:nonzero;stroke:none" transform="translate(71 94)"/><path d="m0 0-5 3v-6Z" style="fill:#404040;fill-opacity:1;fill-rule:nonzero;stroke:none" transform="translate(101 94)"/><path d="m0 0-3 5h6Z" style="fill:#404040;fill-opacity:1;fill-rule:nonzero;stroke:none" transform="translate(86 79)"/><path d="m0 0-3-5h6Z" style="fill:#404040;fill-opacity:1;fill-rule:nonzero;stroke:none" transform="translate(86 109)"/><path d="M0 0a8 8 0 1 0-16 0A8 8 0 0 0 0 0" style="fill:#333;fill-opacity:1;fill-rule:nonzero;stroke:none" transform="translate(158 90)"/><path d="M0 0a8 8 0 1 0-16 0A8 8 0 0 0 0 0" style="fill:#333;fill-opacity:1;fill-rule:nonzero;stroke:none" transform="translate(180 100)"/><path d="M0 0h-8.926c-1.946 0-3.537 1.35-3.537 3s1.591 3 3.537 3H0c1.945 0 3.537-1.35 3.537-3S1.945 0 0 0" style="fill:#333;fill-opacity:1;fill-rule:nonzero;stroke:none" transform="translate(116.463 52)"/><path d="M0 0h-8.926c-1.946 0-3.537 1.35-3.537 3s1.591 3 3.537 3H0c1.945 0 3.537-1.35 3.537-3S1.945 0 0 0" style="fill:#333;fill-opacity:1;fill-rule:nonzero;stroke:none" transform="translate(144.463 52)"/><path d="M0 0a1 1 0 1 0-2 0 1 1 0 0 0 2 0" style="fill:#236f99;fill-opacity:1;fill-rule:nonzero;stroke:none" transform="translate(162 27)"/><path d="M0 0a1 1 0 1 0-2 0 1 1 0 0 0 2 0" style="fill:#333;fill-opacity:1;fill-rule:nonzero;stroke:none" transform="translate(162 31)"/><path d="M0 0a1 1 0 1 0-2 0 1 1 0 0 0 2 0" style="fill:#236f99;fill-opacity:1;fill-rule:nonzero;stroke:none" transform="translate(162 35)"/><path d="M0 0a1 1 0 1 0-2 0 1 1 0 0 0 2 0" style="fill:#333;fill-opacity:1;fill-rule:nonzero;stroke:none" transform="translate(162 39)"/><path d="M0 0a1 1 0 1 0-2 0 1 1 0 0 0 2 0" style="fill:#236f99;fill-opacity:1;fill-rule:nonzero;stroke:none" transform="translate(162 43)"/><path d="M0 0a1 1 0 1 0-2 0 1 1 0 0 0 2 0" style="fill:#333;fill-opacity:1;fill-rule:nonzero;stroke:none" transform="translate(162 47)"/><path d="M0 0a1 1 0 1 0-2 0 1 1 0 0 0 2 0" style="fill:#236f99;fill-opacity:1;fill-rule:nonzero;stroke:none" transform="translate(162 51)"/><path d="M0 0a1 1 0 1 0-2 0 1 1 0 0 0 2 0" style="fill:#236f99;fill-opacity:1;fill-rule:nonzero;stroke:none" transform="translate(158 31)"/><path d="M0 0a1 1 0 1 0-2 0 1 1 0 0 0 2 0" style="fill:#333;fill-opacity:1;fill-rule:nonzero;stroke:none" transform="translate(158 35)"/><path d="M0 0a1 1 0 1 0-2 0 1 1 0 0 0 2 0" style="fill:#236f99;fill-opacity:1;fill-rule:nonzero;stroke:none" transform="translate(158 39)"/><path d="M0 0a1 1 0 1 0-2 0 1 1 0 0 0 2 0" style="fill:#333;fill-opacity:1;fill-rule:nonzero;stroke:none" transform="translate(158 43)"/><path d="M0 0a1 1 0 1 0-2 0 1 1 0 0 0 2 0" style="fill:#236f99;fill-opacity:1;fill-rule:nonzero;stroke:none" transform="translate(158 47)"/><path d="M0 0a1 1 0 1 0-2 0 1 1 0 0 0 2 0" style="fill:#333;fill-opacity:1;fill-rule:nonzero;stroke:none" transform="translate(158 51)"/><path d="M0 0a1 1 0 1 0-2 0 1 1 0 0 0 2 0" style="fill:#333;fill-opacity:1;fill-rule:nonzero;stroke:none" transform="translate(162 55)"/><path d="M0 0a1 1 0 1 0-2 0 1 1 0 0 0 2 0" style="fill:#333;fill-opacity:1;fill-rule:nonzero;stroke:none" transform="translate(166 27)"/><path d="M0 0a1 1 0 1 0-2 0 1 1 0 0 0 2 0" style="fill:#236f99;fill-opacity:1;fill-rule:nonzero;stroke:none" transform="translate(166 31)"/><path d="M0 0a1 1 0 1 0-2 0 1 1 0 0 0 2 0" style="fill:#333;fill-opacity:1;fill-rule:nonzero;stroke:none" transform="translate(166 35)"/><path d="M0 0a1 1 0 1 0-2 0 1 1 0 0 0 2 0" style="fill:#236f99;fill-opacity:1;fill-rule:nonzero;stroke:none" transform="translate(166 39)"/><path d="M0 0a1 1 0 1 0-2 0 1 1 0 0 0 2 0" style="fill:#333;fill-opacity:1;fill-rule:nonzero;stroke:none" transform="translate(166 43)"/><path d="M0 0a1 1 0 1 0-2 0 1 1 0 0 0 2 0" style="fill:#236f99;fill-opacity:1;fill-rule:nonzero;stroke:none" transform="translate(166 47)"/><path d="M0 0a1 1 0 1 0-2 0 1 1 0 0 0 2 0" style="fill:#333;fill-opacity:1;fill-rule:nonzero;stroke:none" transform="translate(166 51)"/><path d="M0 0a1 1 0 1 0-2 0 1 1 0 0 0 2 0" style="fill:#236f99;fill-opacity:1;fill-rule:nonzero;stroke:none" transform="translate(166 55)"/><path d="M0 0a1 1 0 1 0-2 0 1 1 0 0 0 2 0" style="fill:#236f99;fill-opacity:1;fill-rule:nonzero;stroke:none" transform="translate(170 27)"/><path d="M0 0a1 1 0 1 0-2 0 1 1 0 0 0 2 0" style="fill:#333;fill-opacity:1;fill-rule:nonzero;stroke:none" transform="translate(170 31)"/><path d="M0 0a1 1 0 1 0-2 0 1 1 0 0 0 2 0" style="fill:#236f99;fill-opacity:1;fill-rule:nonzero;stroke:none" transform="translate(170 35)"/><path d="M0 0a1 1 0 1 0-2 0 1 1 0 0 0 2 0" style="fill:#333;fill-opacity:1;fill-rule:nonzero;stroke:none" transform="translate(170 39)"/><path d="M0 0a1 1 0 1 0-2 0 1 1 0 0 0 2 0" style="fill:#236f99;fill-opacity:1;fill-rule:nonzero;stroke:none" transform="translate(170 43)"/><path d="M0 0a1 1 0 1 0-2 0 1 1 0 0 0 2 0" style="fill:#333;fill-opacity:1;fill-rule:nonzero;stroke:none" transform="translate(170 47)"/><path d="M0 0a1 1 0 1 0-2 0 1 1 0 0 0 2 0" style="fill:#236f99;fill-opacity:1;fill-rule:nonzero;stroke:none" transform="translate(170 51)"/><path d="M0 0a1 1 0 1 0-2 0 1 1 0 0 0 2 0" style="fill:#333;fill-opacity:1;fill-rule:nonzero;stroke:none" transform="translate(170 55)"/><path d="M0 0a1 1 0 1 0-2 0 1 1 0 0 0 2 0" style="fill:#333;fill-opacity:1;fill-rule:nonzero;stroke:none" transform="translate(174 27)"/><path d="M0 0a1 1 0 1 0-2 0 1 1 0 0 0 2 0" style="fill:#236f99;fill-opacity:1;fill-rule:nonzero;stroke:none" transform="translate(174 31)"/><path d="M0 0a1 1 0 1 0-2 0 1 1 0 0 0 2 0" style="fill:#333;fill-opacity:1;fill-rule:nonzero;stroke:none" transform="translate(174 35)"/><path d="M0 0a1 1 0 1 0-2 0 1 1 0 0 0 2 0" style="fill:#236f99;fill-opacity:1;fill-rule:nonzero;stroke:none" transform="translate(174 39)"/><path d="M0 0a1 1 0 1 0-2 0 1 1 0 0 0 2 0" style="fill:#333;fill-opacity:1;fill-rule:nonzero;stroke:none" transform="translate(174 43)"/><path d="M0 0a1 1 0 1 0-2 0 1 1 0 0 0 2 0" style="fill:#236f99;fill-opacity:1;fill-rule:nonzero;stroke:none" transform="translate(174 47)"/><path d="M0 0a1 1 0 1 0-2 0 1 1 0 0 0 2 0" style="fill:#333;fill-opacity:1;fill-rule:nonzero;stroke:none" transform="translate(174 51)"/><path d="M0 0a1 1 0 1 0-2 0 1 1 0 0 0 2 0" style="fill:#236f99;fill-opacity:1;fill-rule:nonzero;stroke:none" transform="translate(174 55)"/><path d="M0 0a1 1 0 1 0-2 0 1 1 0 0 0 2 0" style="fill:#236f99;fill-opacity:1;fill-rule:nonzero;stroke:none" transform="translate(178 27)"/><path d="M0 0a1 1 0 1 0-2 0 1 1 0 0 0 2 0" style="fill:#333;fill-opacity:1;fill-rule:nonzero;stroke:none" transform="translate(178 31)"/><path d="M0 0a1 1 0 1 0-2 0 1 1 0 0 0 2 0" style="fill:#236f99;fill-opacity:1;fill-rule:nonzero;stroke:none" transform="translate(178 35)"/><path d="M0 0a1 1 0 1 0-2 0 1 1 0 0 0 2 0" style="fill:#333;fill-opacity:1;fill-rule:nonzero;stroke:none" transform="translate(178 39)"/><path d="M0 0a1 1 0 1 0-2 0 1 1 0 0 0 2 0" style="fill:#236f99;fill-opacity:1;fill-rule:nonzero;stroke:none" transform="translate(178 43)"/><path d="M0 0a1 1 0 1 0-2 0 1 1 0 0 0 2 0" style="fill:#333;fill-opacity:1;fill-rule:nonzero;stroke:none" transform="translate(178 47)"/><path d="M0 0a1 1 0 1 0-2 0 1 1 0 0 0 2 0" style="fill:#236f99;fill-opacity:1;fill-rule:nonzero;stroke:none" transform="translate(178 51)"/><path d="M0 0a1 1 0 1 0-2 0 1 1 0 0 0 2 0" style="fill:#333;fill-opacity:1;fill-rule:nonzero;stroke:none" transform="translate(178 55)"/><path d="M0 0a1 1 0 1 0-2 0 1 1 0 0 0 2 0" style="fill:#333;fill-opacity:1;fill-rule:nonzero;stroke:none" transform="translate(182 27)"/><path d="M0 0a1 1 0 1 0-2 0 1 1 0 0 0 2 0" style="fill:#236f99;fill-opacity:1;fill-rule:nonzero;stroke:none" transform="translate(182 31)"/><path d="M0 0a1 1 0 1 0-2 0 1 1 0 0 0 2 0" style="fill:#333;fill-opacity:1;fill-rule:nonzero;stroke:none" transform="translate(182 35)"/><path d="M0 0a1 1 0 1 0-2 0 1 1 0 0 0 2 0" style="fill:#236f99;fill-opacity:1;fill-rule:nonzero;stroke:none" transform="translate(182 39)"/><path d="M0 0a1 1 0 1 0-2 0 1 1 0 0 0 2 0" style="fill:#333;fill-opacity:1;fill-rule:nonzero;stroke:none" transform="translate(182 43)"/><path d="M0 0a1 1 0 1 0-2 0 1 1 0 0 0 2 0" style="fill:#236f99;fill-opacity:1;fill-rule:nonzero;stroke:none" transform="translate(182 47)"/><path d="M0 0a1 1 0 1 0-2 0 1 1 0 0 0 2 0" style="fill:#333;fill-opacity:1;fill-rule:nonzero;stroke:none" transform="translate(182 51)"/><path d="M0 0a1 1 0 1 0-2 0 1 1 0 0 0 2 0" style="fill:#333;fill-opacity:1;fill-rule:nonzero;stroke:none" transform="translate(186 31)"/><path d="M0 0a1 1 0 1 0-2 0 1 1 0 0 0 2 0" style="fill:#236f99;fill-opacity:1;fill-rule:nonzero;stroke:none" transform="translate(186 35)"/><path d="M0 0a1 1 0 1 0-2 0 1 1 0 0 0 2 0" style="fill:#333;fill-opacity:1;fill-rule:nonzero;stroke:none" transform="translate(186 39)"/><path d="M0 0a1 1 0 1 0-2 0 1 1 0 0 0 2 0" style="fill:#236f99;fill-opacity:1;fill-rule:nonzero;stroke:none" transform="translate(186 43)"/><path d="M0 0a1 1 0 1 0-2 0 1 1 0 0 0 2 0" style="fill:#333;fill-opacity:1;fill-rule:nonzero;stroke:none" transform="translate(186 47)"/><path d="M0 0a1 1 0 1 0-2 0 1 1 0 0 0 2 0" style="fill:#236f99;fill-opacity:1;fill-rule:nonzero;stroke:none" transform="translate(186 51)"/><path d="M0 0a1 1 0 1 0-2 0 1 1 0 0 0 2 0" style="fill:#236f99;fill-opacity:1;fill-rule:nonzero;stroke:none" transform="translate(182 55)"/><path d="M0 0a2 2 0 1 0-3.999-.001A2 2 0 0 0 0 0" style="fill:red;fill-opacity:1;fill-rule:nonzero;stroke:none" transform="translate(80 198)"/></g></svg>