<?xml version="1.0" encoding="UTF-8" standalone="no"?>
<svg
   xmlns:dc="http://purl.org/dc/elements/1.1/"
   xmlns:cc="http://creativecommons.org/ns#"
   xmlns:rdf="http://www.w3.org/1999/02/22-rdf-syntax-ns#"
   xmlns:svg="http://www.w3.org/2000/svg"
   xmlns="http://www.w3.org/2000/svg"
   viewBox="0 0 330.66598 245.33333"
   height="245.33333"
   width="330.66599"
   xml:space="preserve"
   id="svg2"
   version="1.1"><metadata
     id="metadata8"><rdf:RDF><cc:Work
         rdf:about=""><dc:format>image/svg+xml</dc:format><dc:type
           rdf:resource="http://purl.org/dc/dcmitype/StillImage" /></cc:Work></rdf:RDF></metadata><defs
     id="defs6"><clipPath
       id="clipPath18"
       clipPathUnits="userSpaceOnUse"><path
         id="path16"
         d="M 0,256 H 256 V 0 H 0 Z" /></clipPath><clipPath
       id="clipPath26"
       clipPathUnits="userSpaceOnUse"><path
         id="path24"
         d="M 4,220 H 252 V 36 H 4 Z" /></clipPath><clipPath
       id="clipPath44"
       clipPathUnits="userSpaceOnUse"><path
         id="path42"
         d="M 0,256 H 256 V 0 H 0 Z" /></clipPath></defs><g
     transform="matrix(1.3333333,0,0,-1.3333333,-5.3339999,293.33333)"
     id="g10"><g
       id="g12"><g
         clip-path="url(#clipPath18)"
         id="g14"><g
           id="g20"><g
             id="g22" /><g
             id="g34"><g
               style="opacity:0.5"
               id="g32"
               clip-path="url(#clipPath26)"><g
                 id="g30"
                 transform="translate(247.3135,204)"><path
                   id="path28"
                   style="fill:#ffffff;fill-opacity:1;fill-rule:nonzero;stroke:none"
                   d="M 0,0 -1.656,1.657 C -1.83,1.83 -2.01,1.994 -2.195,2.149 l -6.324,6.257 c -2.258,2.236 -5.253,3.469 -8.433,3.47 l -0.689,0.001 C -18.202,11.959 -18.756,12 -19.313,12 h -50.09 c -8.384,2.655 -17.094,4 -25.91,4 -8.817,0 -17.527,-1.345 -25.911,-4 h -98.089 c -0.063,0 -0.126,-10e-4 -0.189,-0.002 l -2.148,0.001 c -3.213,0 -6.226,-1.248 -8.493,-3.515 L -236.97,1.657 -238.627,0 c -3.022,-3.022 -4.686,-7.04 -4.686,-11.313 V -104 v -8 -36 c 0,-2.122 0.842,-4.156 2.343,-5.657 l 9.657,-9.656 c 3.021,-3.023 7.04,-4.687 11.313,-4.687 h 200.959 c 4.54,0 8.81,1.769 12.02,4.979 l 9.365,9.364 c 1.5,1.501 2.343,3.535 2.343,5.657 v 36 100.662 C 4.687,-7.04 3.022,-3.022 0,0" /></g></g></g></g></g></g><path
       id="path36"
       style="fill:#333333;fill-opacity:1;fill-rule:nonzero;stroke:none"
       d="m 212,56 h 28 v 36 h -28 z" /><g
       id="g38"><g
         clip-path="url(#clipPath44)"
         id="g40"><g
           transform="translate(244,192.6621)"
           id="g46"><path
             id="path48"
             style="fill:#191919;fill-opacity:1;fill-rule:nonzero;stroke:none"
             d="m 0,0 c 0,2.136 -0.854,4.184 -2.373,5.686 l -8.459,8.372 c -0.748,0.74 -1.759,1.156 -2.812,1.156 l -204.698,0.123 c -1.061,0 -2.08,-0.421 -2.83,-1.171 l -8.485,-8.485 C -231.157,4.181 -232,2.146 -232,0.024 V -100.662 H 0 Z" /></g><path
           id="path50"
           style="fill:#191919;fill-opacity:1;fill-rule:nonzero;stroke:none"
           d="M 24,56 H 12 v 44 h 12 z" /><g
           transform="translate(244,56)"
           id="g52"><path
             id="path54"
             style="fill:#262626;fill-opacity:1;fill-rule:nonzero;stroke:none"
             d="m 0,0 h -4 v 144 l 1.657,-1.657 c 1.5,-1.5 2.343,-3.535 2.343,-5.656 z" /></g><g
           transform="translate(12,56)"
           id="g56"><path
             id="path58"
             style="fill:#262626;fill-opacity:1;fill-rule:nonzero;stroke:none"
             d="M 0,0 H 4 V 144 L 2.343,142.343 C 0.843,140.843 0,138.808 0,136.687 Z" /></g><g
           transform="translate(228.2725,44)"
           id="g60"><path
             id="path62"
             style="fill:#404040;fill-opacity:1;fill-rule:nonzero;stroke:none"
             d="m 0,0 h -200.959 c -2.122,0 -4.156,0.843 -5.657,2.343 l -9.656,9.657 116,32 116,-32 L 6.363,2.636 C 4.676,0.948 2.387,0 0,0" /></g><g
           transform="translate(231,100)"
           id="g64"><path
             id="path66"
             style="fill:#333333;fill-opacity:1;fill-rule:nonzero;stroke:none"
             d="m 0,0 h -206 c -0.552,0 -1,0.447 -1,1 v 103 c 0,2.209 1.791,4 4,4 H -3 c 2.209,0 4,-1.791 4,-4 V 1 C 1,0.447 0.553,0 0,0" /></g><g
           transform="translate(22.8286,98.8281)"
           id="g68"><path
             id="path70"
             style="fill:#333333;fill-opacity:1;fill-rule:nonzero;stroke:none"
             d="m 0,0 -6.829,-6.828 v -32.687 c 0,-2.121 0.843,-4.156 2.344,-5.656 l 3.313,-3.314 c 1.501,-1.5 3.535,-2.343 5.657,-2.343 h 201.373 c 2.121,0 4.156,0.843 5.656,2.343 l 3.315,3.314 c 1.5,1.5 2.342,3.535 2.342,5.656 v 32.687 l -5.657,5.657 c -1.5,1.5 -3.535,2.343 -5.656,2.343 H 2.828 C 1.768,1.172 0.75,0.75 0,0" /></g><g
           transform="translate(16,92)"
           id="g72"><path
             id="path74"
             style="fill:#404040;fill-opacity:1;fill-rule:nonzero;stroke:none"
             d="M 0,0 6.829,6.828 C 7.579,7.578 8.596,8 9.657,8 h 204.564 c 1.049,0 2.055,-0.412 2.803,-1.146 L 224,0 Z" /></g><g
           transform="translate(80,52)"
           id="g76"><path
             id="path78"
             style="fill:#333333;fill-opacity:1;fill-rule:nonzero;stroke:none"
             d="M 0,0 V 44.04 H -52 L -52.04,44 H -52 V 0 Z" /></g><g
           transform="translate(24,92)"
           id="g80"><path
             id="path82"
             style="fill:#404040;fill-opacity:1;fill-rule:nonzero;stroke:none"
             d="M 0,0 4,4 V -40 Z" /></g><g
           transform="translate(80,96.04)"
           id="g84"><path
             id="path86"
             style="fill:#404040;fill-opacity:1;fill-rule:nonzero;stroke:none"
             d="m 0,0 4,-4.04 -4,-40 z" /></g><g
           transform="translate(228,138)"
           id="g88"><path
             id="path90"
             style="fill:#404040;fill-opacity:1;fill-rule:nonzero;stroke:none"
             d="m 0,0 c 0,-40.869 -34.026,-74 -76,-74 -41.974,0 -76,33.131 -76,74 0,40.869 34.026,74 76,74 C -34.026,74 0,40.869 0,0" /></g><g
           transform="translate(224,138)"
           id="g92"><path
             id="path94"
             style="fill:#333333;fill-opacity:1;fill-rule:nonzero;stroke:none"
             d="m 0,0 c 0,-38.66 -32.235,-70 -72,-70 -39.765,0 -72,31.34 -72,70 0,38.66 32.235,70 72,70 C -32.235,70 0,38.66 0,0" /></g><g
           transform="translate(216,138)"
           id="g96"><path
             id="path98"
             style="fill:#404040;fill-opacity:1;fill-rule:nonzero;stroke:none"
             d="m 0,0 c 0,-34.241 -28.653,-62 -64,-62 -35.346,0 -64,27.759 -64,62 0,34.242 28.654,62 64,62 C -28.653,62 0,34.242 0,0" /></g><g
           transform="translate(176,76)"
           id="g100"><path
             id="path102"
             style="fill:#333333;fill-opacity:1;fill-rule:nonzero;stroke:none"
             d="m 0,0 h -52 v 44 c 0,2.209 1.791,4 4,4 h 44 c 2.209,0 4,-1.791 4,-4 z" /></g><g
           transform="translate(124,82.2393)"
           id="g104"><path
             id="path106"
             style="fill:#7b0000;fill-opacity:1;fill-rule:nonzero;stroke:none"
             d="m 0,0 v -8.748 c 8.607,-3.536 18.068,-5.491 28,-5.491 8.418,0 16.491,1.418 24,3.999 v 8.525 C 44.587,-4.623 36.49,-6.239 28,-6.239 17.957,-6.239 8.458,-3.993 0,0" /></g><g
           transform="translate(199.209,144.3755)"
           id="g108"><path
             id="path110"
             style="fill:#333333;fill-opacity:1;fill-rule:nonzero;stroke:none"
             d="m 0,0 h -94.417 c -4.836,0 -8.792,3.957 -8.792,8.792 v 6.041 c 0,4.835 3.956,8.792 8.792,8.792 H 0 c 4.835,0 8.791,-3.957 8.791,-8.792 V 8.792 C 8.791,3.957 4.835,0 0,0" /></g><path
           id="path112"
           style="fill:#262626;fill-opacity:1;fill-rule:nonzero;stroke:none"
           d="M 56,112 H 24 v 84 h 32 z" /><g
           transform="translate(16,184)"
           id="g114"><path
             id="path116"
             style="fill:#333333;fill-opacity:1;fill-rule:nonzero;stroke:none"
             d="M 0,0 8,4 H 36 V 8 H 8 L 0,4 Z" /></g><g
           transform="translate(16,176)"
           id="g118"><path
             id="path120"
             style="fill:#333333;fill-opacity:1;fill-rule:nonzero;stroke:none"
             d="M 0,0 8,4 H 36 V 8 H 8 L 0,4 Z" /></g><g
           transform="translate(16,168)"
           id="g122"><path
             id="path124"
             style="fill:#333333;fill-opacity:1;fill-rule:nonzero;stroke:none"
             d="M 0,0 8,4 H 36 V 8 H 8 L 0,4 Z" /></g><g
           transform="translate(16,160)"
           id="g126"><path
             id="path128"
             style="fill:#333333;fill-opacity:1;fill-rule:nonzero;stroke:none"
             d="M 0,0 8,4 H 36 V 8 H 8 L 0,4 Z" /></g><g
           transform="translate(16,152)"
           id="g130"><path
             id="path132"
             style="fill:#333333;fill-opacity:1;fill-rule:nonzero;stroke:none"
             d="M 0,0 8,4 H 36 V 8 H 8 L 0,4 Z" /></g><g
           transform="translate(16,144)"
           id="g134"><path
             id="path136"
             style="fill:#333333;fill-opacity:1;fill-rule:nonzero;stroke:none"
             d="M 0,0 8,4 H 36 V 8 H 8 L 0,4 Z" /></g><g
           transform="translate(16,136)"
           id="g138"><path
             id="path140"
             style="fill:#333333;fill-opacity:1;fill-rule:nonzero;stroke:none"
             d="M 0,0 8,4 H 36 V 8 H 8 L 0,4 Z" /></g><g
           transform="translate(16,128)"
           id="g142"><path
             id="path144"
             style="fill:#333333;fill-opacity:1;fill-rule:nonzero;stroke:none"
             d="M 0,0 8,4 H 36 V 8 H 8 L 0,4 Z" /></g><g
           transform="translate(16,120)"
           id="g146"><path
             id="path148"
             style="fill:#333333;fill-opacity:1;fill-rule:nonzero;stroke:none"
             d="M 0,0 8,4 H 36 V 8 H 8 L 0,4 Z" /></g><g
           transform="translate(16,112)"
           id="g150"><path
             id="path152"
             style="fill:#333333;fill-opacity:1;fill-rule:nonzero;stroke:none"
             d="M 0,0 8,4 H 36 V 8 H 8 L 0,4 Z" /></g><g
           transform="translate(75,56)"
           id="g154"><path
             id="path156"
             style="fill:#ffffff;fill-opacity:1;fill-rule:nonzero;stroke:none"
             d="m 0,0 h -22 c -0.552,0 -1,0.447 -1,1 v 6 c 0,0.553 0.448,1 1,1 H 0 C 0.552,8 1,7.553 1,7 V 1 C 1,0.447 0.552,0 0,0" /></g><path
           id="path158"
           style="fill:#191919;fill-opacity:1;fill-rule:nonzero;stroke:none"
           d="M 76,76 H 52 v 16 h 24 z" /><path
           id="path160"
           style="fill:#191919;fill-opacity:1;fill-rule:nonzero;stroke:none"
           d="M 48,56 H 32 v 36 h 16 z" /><path
           id="path162"
           style="fill:#333333;fill-opacity:1;fill-rule:nonzero;stroke:none"
           d="m 41,60 h -2 v 16 h 2 z" /><path
           id="path164"
           style="fill:#4c4c4c;fill-opacity:1;fill-rule:nonzero;stroke:none"
           d="m 36,88 h 8 v -8 h -8 z" /><path
           id="path166"
           style="fill:#333333;fill-opacity:1;fill-rule:nonzero;stroke:none"
           d="m 36,80 h 8 v -8 h -8 z" /><path
           id="path168"
           style="fill:#7b0000;fill-opacity:1;fill-rule:nonzero;stroke:none"
           d="m 36,81 h 8 v -2 h -8 z" /><path
           id="path170"
           style="fill:#4c4c4c;fill-opacity:1;fill-rule:nonzero;stroke:none"
           d="M 64,80.031 H 56 V 88 h 8 z" /><path
           id="path172"
           style="fill:#333333;fill-opacity:1;fill-rule:nonzero;stroke:none"
           d="M 72,80.031 H 64 V 88 h 8 z" /><g
           transform="translate(152,72)"
           id="g174"><path
             id="path176"
             style="fill:#333333;fill-opacity:1;fill-rule:nonzero;stroke:none"
             d="m 0,0 c 0,-1.104 -0.896,-2 -2,-2 -1.104,0 -2,0.896 -2,2 0,1.104 0.896,2 2,2 1.104,0 2,-0.896 2,-2" /></g><g
           transform="translate(151,72)"
           id="g178"><path
             id="path180"
             style="fill:#ff0000;fill-opacity:1;fill-rule:nonzero;stroke:none"
             d="m 0,0 c 0,-0.553 -0.447,-1 -1,-1 -0.553,0 -1,0.447 -1,1 0,0.553 0.447,1 1,1 0.553,0 1,-0.447 1,-1" /></g><path
           id="path182"
           style="fill:#7b0000;fill-opacity:1;fill-rule:nonzero;stroke:none"
           d="m 59,80 h 2 v 8 h -2 z" /><g
           transform="translate(55,62)"
           id="g184"><path
             id="path186"
             style="fill:#cccccc;fill-opacity:1;fill-rule:nonzero;stroke:none"
             d="m 0,0 c 0,-0.553 -0.448,-1 -1,-1 -0.552,0 -1,0.447 -1,1 0,0.553 0.448,1 1,1 0.552,0 1,-0.447 1,-1" /></g><g
           transform="translate(59,62)"
           id="g188"><path
             id="path190"
             style="fill:#cccccc;fill-opacity:1;fill-rule:nonzero;stroke:none"
             d="m 0,0 c 0,-0.553 -0.448,-1 -1,-1 -0.552,0 -1,0.447 -1,1 0,0.553 0.448,1 1,1 0.552,0 1,-0.447 1,-1" /></g><g
           transform="translate(63,62)"
           id="g192"><path
             id="path194"
             style="fill:#cccccc;fill-opacity:1;fill-rule:nonzero;stroke:none"
             d="m 0,0 c 0,-0.553 -0.448,-1 -1,-1 -0.552,0 -1,0.447 -1,1 0,0.553 0.448,1 1,1 0.552,0 1,-0.447 1,-1" /></g><g
           transform="translate(67,62)"
           id="g196"><path
             id="path198"
             style="fill:#cccccc;fill-opacity:1;fill-rule:nonzero;stroke:none"
             d="m 0,0 c 0,-0.553 -0.448,-1 -1,-1 -0.552,0 -1,0.447 -1,1 0,0.553 0.448,1 1,1 0.552,0 1,-0.447 1,-1" /></g><g
           transform="translate(71,62)"
           id="g200"><path
             id="path202"
             style="fill:#cccccc;fill-opacity:1;fill-rule:nonzero;stroke:none"
             d="m 0,0 c 0,-0.553 -0.448,-1 -1,-1 -0.552,0 -1,0.447 -1,1 0,0.553 0.448,1 1,1 0.552,0 1,-0.447 1,-1" /></g><g
           transform="translate(75,62)"
           id="g204"><path
             id="path206"
             style="fill:#cccccc;fill-opacity:1;fill-rule:nonzero;stroke:none"
             d="m 0,0 c 0,-0.553 -0.448,-1 -1,-1 -0.552,0 -1,0.447 -1,1 0,0.553 0.448,1 1,1 0.552,0 1,-0.447 1,-1" /></g><g
           transform="translate(55,58)"
           id="g208"><path
             id="path210"
             style="fill:#cccccc;fill-opacity:1;fill-rule:nonzero;stroke:none"
             d="m 0,0 c 0,-0.553 -0.448,-1 -1,-1 -0.552,0 -1,0.447 -1,1 0,0.553 0.448,1 1,1 0.552,0 1,-0.447 1,-1" /></g><g
           transform="translate(59,58)"
           id="g212"><path
             id="path214"
             style="fill:#cccccc;fill-opacity:1;fill-rule:nonzero;stroke:none"
             d="m 0,0 c 0,-0.553 -0.448,-1 -1,-1 -0.552,0 -1,0.447 -1,1 0,0.553 0.448,1 1,1 0.552,0 1,-0.447 1,-1" /></g><g
           transform="translate(63,58)"
           id="g216"><path
             id="path218"
             style="fill:#cccccc;fill-opacity:1;fill-rule:nonzero;stroke:none"
             d="m 0,0 c 0,-0.553 -0.448,-1 -1,-1 -0.552,0 -1,0.447 -1,1 0,0.553 0.448,1 1,1 0.552,0 1,-0.447 1,-1" /></g><g
           transform="translate(67,58)"
           id="g220"><path
             id="path222"
             style="fill:#cccccc;fill-opacity:1;fill-rule:nonzero;stroke:none"
             d="m 0,0 c 0,-0.553 -0.448,-1 -1,-1 -0.552,0 -1,0.447 -1,1 0,0.553 0.448,1 1,1 0.552,0 1,-0.447 1,-1" /></g><g
           transform="translate(71,58)"
           id="g224"><path
             id="path226"
             style="fill:#cccccc;fill-opacity:1;fill-rule:nonzero;stroke:none"
             d="m 0,0 c 0,-0.553 -0.448,-1 -1,-1 -0.552,0 -1,0.447 -1,1 0,0.553 0.448,1 1,1 0.552,0 1,-0.447 1,-1" /></g><g
           transform="translate(75,58)"
           id="g228"><path
             id="path230"
             style="fill:#cccccc;fill-opacity:1;fill-rule:nonzero;stroke:none"
             d="m 0,0 c 0,-0.553 -0.448,-1 -1,-1 -0.552,0 -1,0.447 -1,1 0,0.553 0.448,1 1,1 0.552,0 1,-0.447 1,-1" /></g><path
           id="path232"
           style="fill:#404040;fill-opacity:1;fill-rule:nonzero;stroke:none"
           d="m 116,148 h -2 v 16 h 2 z" /><path
           id="path234"
           style="fill:#404040;fill-opacity:1;fill-rule:nonzero;stroke:none"
           d="m 190,148 h -2 v 16 h 2 z" /><g
           transform="translate(104.5,159.5)"
           id="g236"><path
             id="path238"
             style="fill:#262626;fill-opacity:1;fill-rule:nonzero;stroke:none"
             d="M 0,0 V -3.5 C 0,-9.03 5.94,-11 11.5,-11 h 72 c 5.56,0 11.5,1.97 11.5,7.5 V 0 H 91 V 4 H 4 V 0 Z m 83.5,-12 h -72 C 5.457,-12 -1,-9.767 -1,-3.5 V 1 H 3 V 5 H 92 V 1 h 4 V -3.5 C 96,-9.767 89.543,-12 83.5,-12" /></g><path
           id="path240"
           style="fill:#262626;fill-opacity:1;fill-rule:nonzero;stroke:none"
           d="m 200,155.5 h -96 v 1 h 96 z" /></g></g></g></svg>