<svg xmlns="http://www.w3.org/2000/svg" xml:space="preserve" width="330.666" height="245.333" viewBox="0 0 330.666 245.333"><defs><clipPath id="a" clipPathUnits="userSpaceOnUse"><path d="M0 256h256V0H0Z"/></clipPath><clipPath id="b" clipPathUnits="userSpaceOnUse"><path d="M4 220h248V36H4Z"/></clipPath><clipPath id="c" clipPathUnits="userSpaceOnUse"><path d="M0 256h256V0H0Z"/></clipPath></defs><g clip-path="url(#a)" transform="matrix(1.33333 0 0 -1.33333 -5.334 293.333)"><g clip-path="url(#b)" style="opacity:.5"><path d="m0 0-1.656 1.657a9 9 0 0 1-.539.492l-6.324 6.257a11.92 11.92 0 0 1-8.433 3.47l-.689.001c-.561.082-1.115.123-1.672.123h-50.09a85.7 85.7 0 0 1-25.91 4 85.7 85.7 0 0 1-25.911-4h-98.089l-.189-.002-2.148.001a11.93 11.93 0 0 1-8.493-3.515l-6.827-6.827L-238.627 0a15.9 15.9 0 0 1-4.686-11.313V-148c0-2.122.842-4.156 2.343-5.657l9.657-9.656A15.9 15.9 0 0 1-220-168h200.959c4.54 0 8.81 1.769 12.02 4.979l9.365 9.364A8 8 0 0 1 4.687-148v136.662C4.687-7.04 3.022-3.022 0 0" style="fill:#fff;fill-opacity:1;fill-rule:nonzero;stroke:none" transform="translate(247.314 204)"/></g></g><path d="M212 56h28v36h-28z" style="fill:#333;fill-opacity:1;fill-rule:nonzero;stroke:none" transform="matrix(1.33333 0 0 -1.33333 -5.334 293.333)"/><g clip-path="url(#c)" transform="matrix(1.33333 0 0 -1.33333 -5.334 293.333)"><path d="M0 0a8 8 0 0 1-2.373 5.686l-8.459 8.372a4 4 0 0 1-2.812 1.156l-204.698.123a4 4 0 0 1-2.83-1.171l-8.485-8.485A8 8 0 0 1-232 .024v-100.686H0Z" style="fill:#191919;fill-opacity:1;fill-rule:nonzero;stroke:none" transform="translate(244 192.662)"/><path d="M24 56H12v44h12z" style="fill:#191919;fill-opacity:1;fill-rule:nonzero;stroke:none"/><path d="M0 0h-4v144l1.657-1.657A8 8 0 0 0 0 136.687z" style="fill:#262626;fill-opacity:1;fill-rule:nonzero;stroke:none" transform="translate(244 56)"/><path d="M0 0h4v144l-1.657-1.657A8 8 0 0 1 0 136.687Z" style="fill:#262626;fill-opacity:1;fill-rule:nonzero;stroke:none" transform="translate(12 56)"/><path d="M0 0h-200.959a8 8 0 0 0-5.657 2.343L-216.272 12l116 32 116-32-9.365-9.364A9 9 0 0 0 0 0" style="fill:#404040;fill-opacity:1;fill-rule:nonzero;stroke:none" transform="translate(228.273 44)"/><path d="M0 0h-206a1 1 0 0 0-1 1v103a4 4 0 0 0 4 4H-3a4 4 0 0 0 4-4V1a1 1 0 0 0-1-1" style="fill:#333;fill-opacity:1;fill-rule:nonzero;stroke:none" transform="translate(231 100)"/><path d="m0 0-6.829-6.828v-32.687c0-2.121.843-4.156 2.344-5.656l3.313-3.314a8 8 0 0 1 5.657-2.343h201.373a8 8 0 0 1 5.656 2.343l3.315 3.314a8 8 0 0 1 2.342 5.656v32.687l-5.657 5.657a8 8 0 0 1-5.656 2.343H2.828A4 4 0 0 1 0 0" style="fill:#333;fill-opacity:1;fill-rule:nonzero;stroke:none" transform="translate(22.829 98.828)"/><path d="m0 0 6.829 6.828A4 4 0 0 0 9.657 8h204.564a4 4 0 0 0 2.803-1.146L224 0Z" style="fill:#404040;fill-opacity:1;fill-rule:nonzero;stroke:none" transform="translate(16 92)"/><path d="M0 0v44.04h-52l-.04-.04h.04V0Z" style="fill:#333;fill-opacity:1;fill-rule:nonzero;stroke:none" transform="translate(80 52)"/><path d="m0 0 4 4v-44Z" style="fill:#404040;fill-opacity:1;fill-rule:nonzero;stroke:none" transform="translate(24 92)"/><path d="m0 0 4-4.04-4-40z" style="fill:#404040;fill-opacity:1;fill-rule:nonzero;stroke:none" transform="translate(80 96.04)"/><path d="M0 0c0-40.869-34.026-74-76-74s-76 33.131-76 74 34.026 74 76 74S0 40.869 0 0" style="fill:#404040;fill-opacity:1;fill-rule:nonzero;stroke:none" transform="translate(228 138)"/><path d="M0 0c0-38.66-32.235-70-72-70s-72 31.34-72 70 32.235 70 72 70S0 38.66 0 0" style="fill:#333;fill-opacity:1;fill-rule:nonzero;stroke:none" transform="translate(224 138)"/><path d="M0 0c0-34.241-28.653-62-64-62-35.346 0-64 27.759-64 62s28.654 62 64 62S0 34.242 0 0" style="fill:#404040;fill-opacity:1;fill-rule:nonzero;stroke:none" transform="translate(216 138)"/><path d="M0 0h-52v44a4 4 0 0 0 4 4h44a4 4 0 0 0 4-4z" style="fill:#333;fill-opacity:1;fill-rule:nonzero;stroke:none" transform="translate(176 76)"/><path d="M0 0v-8.748c8.607-3.536 18.068-5.491 28-5.491a73.7 73.7 0 0 1 24 3.999v8.525a65.6 65.6 0 0 0-24-4.524C17.957-6.239 8.458-3.993 0 0" style="fill:#7b0000;fill-opacity:1;fill-rule:nonzero;stroke:none" transform="translate(124 82.24)"/><path d="M0 0h-94.417c-4.836 0-8.792 3.957-8.792 8.792v6.041c0 4.835 3.956 8.792 8.792 8.792H0c4.835 0 8.791-3.957 8.791-8.792V8.792C8.791 3.957 4.835 0 0 0" style="fill:#333;fill-opacity:1;fill-rule:nonzero;stroke:none" transform="translate(199.209 144.375)"/><path d="M56 112H24v84h32z" style="fill:#262626;fill-opacity:1;fill-rule:nonzero;stroke:none"/><path d="m0 0 8 4h28v4H8L0 4Z" style="fill:#333;fill-opacity:1;fill-rule:nonzero;stroke:none" transform="translate(16 184)"/><path d="m0 0 8 4h28v4H8L0 4Z" style="fill:#333;fill-opacity:1;fill-rule:nonzero;stroke:none" transform="translate(16 176)"/><path d="m0 0 8 4h28v4H8L0 4Z" style="fill:#333;fill-opacity:1;fill-rule:nonzero;stroke:none" transform="translate(16 168)"/><path d="m0 0 8 4h28v4H8L0 4Z" style="fill:#333;fill-opacity:1;fill-rule:nonzero;stroke:none" transform="translate(16 160)"/><path d="m0 0 8 4h28v4H8L0 4Z" style="fill:#333;fill-opacity:1;fill-rule:nonzero;stroke:none" transform="translate(16 152)"/><path d="m0 0 8 4h28v4H8L0 4Z" style="fill:#333;fill-opacity:1;fill-rule:nonzero;stroke:none" transform="translate(16 144)"/><path d="m0 0 8 4h28v4H8L0 4Z" style="fill:#333;fill-opacity:1;fill-rule:nonzero;stroke:none" transform="translate(16 136)"/><path d="m0 0 8 4h28v4H8L0 4Z" style="fill:#333;fill-opacity:1;fill-rule:nonzero;stroke:none" transform="translate(16 128)"/><path d="m0 0 8 4h28v4H8L0 4Z" style="fill:#333;fill-opacity:1;fill-rule:nonzero;stroke:none" transform="translate(16 120)"/><path d="m0 0 8 4h28v4H8L0 4Z" style="fill:#333;fill-opacity:1;fill-rule:nonzero;stroke:none" transform="translate(16 112)"/><path d="M0 0h-22a1 1 0 0 0-1 1v6a1 1 0 0 0 1 1H0a1 1 0 0 0 1-1V1a1 1 0 0 0-1-1" style="fill:#fff;fill-opacity:1;fill-rule:nonzero;stroke:none" transform="translate(75 56)"/><path d="M76 76H52v16h24zM48 56H32v36h16z" style="fill:#191919;fill-opacity:1;fill-rule:nonzero;stroke:none"/><path d="M41 60h-2v16h2z" style="fill:#333;fill-opacity:1;fill-rule:nonzero;stroke:none"/><path d="M36 88h8v-8h-8z" style="fill:#4c4c4c;fill-opacity:1;fill-rule:nonzero;stroke:none"/><path d="M36 80h8v-8h-8z" style="fill:#333;fill-opacity:1;fill-rule:nonzero;stroke:none"/><path d="M36 81h8v-2h-8z" style="fill:#7b0000;fill-opacity:1;fill-rule:nonzero;stroke:none"/><path d="M64 80.031h-8V88h8z" style="fill:#4c4c4c;fill-opacity:1;fill-rule:nonzero;stroke:none"/><path d="M72 80.031h-8V88h8z" style="fill:#333;fill-opacity:1;fill-rule:nonzero;stroke:none"/><path d="M0 0a2 2 0 1 0-4.001.001A2 2 0 0 0 0 0" style="fill:#333;fill-opacity:1;fill-rule:nonzero;stroke:none" transform="translate(152 72)"/><path d="M0 0a1 1 0 1 0-2 0 1 1 0 1 0 2 0" style="fill:red;fill-opacity:1;fill-rule:nonzero;stroke:none" transform="translate(151 72)"/><path d="M59 80h2v8h-2z" style="fill:#7b0000;fill-opacity:1;fill-rule:nonzero;stroke:none"/><path d="M0 0a1 1 0 1 0-2 0 1 1 0 0 0 2 0" style="fill:#ccc;fill-opacity:1;fill-rule:nonzero;stroke:none" transform="translate(55 62)"/><path d="M0 0a1 1 0 1 0-2 0 1 1 0 0 0 2 0" style="fill:#ccc;fill-opacity:1;fill-rule:nonzero;stroke:none" transform="translate(59 62)"/><path d="M0 0a1 1 0 1 0-2 0 1 1 0 0 0 2 0" style="fill:#ccc;fill-opacity:1;fill-rule:nonzero;stroke:none" transform="translate(63 62)"/><path d="M0 0a1 1 0 1 0-2 0 1 1 0 0 0 2 0" style="fill:#ccc;fill-opacity:1;fill-rule:nonzero;stroke:none" transform="translate(67 62)"/><path d="M0 0a1 1 0 1 0-2 0 1 1 0 0 0 2 0" style="fill:#ccc;fill-opacity:1;fill-rule:nonzero;stroke:none" transform="translate(71 62)"/><path d="M0 0a1 1 0 1 0-2 0 1 1 0 0 0 2 0" style="fill:#ccc;fill-opacity:1;fill-rule:nonzero;stroke:none" transform="translate(75 62)"/><path d="M0 0a1 1 0 1 0-2 0 1 1 0 0 0 2 0" style="fill:#ccc;fill-opacity:1;fill-rule:nonzero;stroke:none" transform="translate(55 58)"/><path d="M0 0a1 1 0 1 0-2 0 1 1 0 0 0 2 0" style="fill:#ccc;fill-opacity:1;fill-rule:nonzero;stroke:none" transform="translate(59 58)"/><path d="M0 0a1 1 0 1 0-2 0 1 1 0 0 0 2 0" style="fill:#ccc;fill-opacity:1;fill-rule:nonzero;stroke:none" transform="translate(63 58)"/><path d="M0 0a1 1 0 1 0-2 0 1 1 0 0 0 2 0" style="fill:#ccc;fill-opacity:1;fill-rule:nonzero;stroke:none" transform="translate(67 58)"/><path d="M0 0a1 1 0 1 0-2 0 1 1 0 0 0 2 0" style="fill:#ccc;fill-opacity:1;fill-rule:nonzero;stroke:none" transform="translate(71 58)"/><path d="M0 0a1 1 0 1 0-2 0 1 1 0 0 0 2 0" style="fill:#ccc;fill-opacity:1;fill-rule:nonzero;stroke:none" transform="translate(75 58)"/><path d="M116 148h-2v16h2zm74 0h-2v16h2z" style="fill:#404040;fill-opacity:1;fill-rule:nonzero;stroke:none"/><path d="M0 0v-3.5C0-9.03 5.94-11 11.5-11h72C89.06-11 95-9.03 95-3.5V0h-4v4H4V0Zm83.5-12h-72C5.457-12-1-9.767-1-3.5V1h4v4h89V1h4v-4.5c0-6.267-6.457-8.5-12.5-8.5" style="fill:#262626;fill-opacity:1;fill-rule:nonzero;stroke:none" transform="translate(104.5 159.5)"/><path d="M200 155.5h-96v1h96z" style="fill:#262626;fill-opacity:1;fill-rule:nonzero;stroke:none"/></g></svg>