<?xml version="1.0" encoding="UTF-8" standalone="no"?>
<svg
   xmlns:dc="http://purl.org/dc/elements/1.1/"
   xmlns:cc="http://creativecommons.org/ns#"
   xmlns:rdf="http://www.w3.org/1999/02/22-rdf-syntax-ns#"
   xmlns:svg="http://www.w3.org/2000/svg"
   xmlns="http://www.w3.org/2000/svg"
   viewBox="0 0 330.66653 202.6664"
   height="202.6664"
   width="330.66653"
   xml:space="preserve"
   id="svg2"
   version="1.1"><metadata
     id="metadata8"><rdf:RDF><cc:Work
         rdf:about=""><dc:format>image/svg+xml</dc:format><dc:type
           rdf:resource="http://purl.org/dc/dcmitype/StillImage" /></cc:Work></rdf:RDF></metadata><defs
     id="defs6"><clipPath
       id="clipPath18"
       clipPathUnits="userSpaceOnUse"><path
         id="path16"
         d="M 0,256 H 256 V 0 H 0 Z" /></clipPath><clipPath
       id="clipPath26"
       clipPathUnits="userSpaceOnUse"><path
         id="path24"
         d="M 4,204 H 252 V 52 H 4 Z" /></clipPath><clipPath
       id="clipPath46"
       clipPathUnits="userSpaceOnUse"><path
         id="path44"
         d="M 0,256 H 256 V 0 H 0 Z" /></clipPath></defs><g
     transform="matrix(1.3333333,0,0,-1.3333333,-5.3334665,271.99999)"
     id="g10"><g
       id="g12"><g
         clip-path="url(#clipPath18)"
         id="g14"><g
           id="g20"><g
             id="g22" /><g
             id="g34"><g
               style="opacity:0.5"
               id="g32"
               clip-path="url(#clipPath26)"><g
                 id="g30"
                 transform="translate(243.4111,146.0742)"><path
                   id="path28"
                   style="fill:#ffffff;fill-opacity:1;fill-rule:nonzero;stroke:none"
                   d="m 0,0 c -3.975,8.467 -9.348,16.549 -15.721,23.686 0.439,1.715 0.416,3.528 -0.077,5.244 0.251,0.827 0.387,1.705 0.387,2.614 v 5.522 c 0,2.78 -1.16,5.45 -3.182,7.324 -8.378,7.767 -19.157,9.219 -23.402,9.484 -0.208,0.013 -0.416,0.019 -0.622,0.019 -2.67,0 -5.181,-1.04 -7.07,-2.929 l -1.418,-1.419 c -0.382,-0.382 -0.716,-0.766 -1.009,-1.149 -1.766,0.538 -3.497,0.965 -5.185,1.28 -2.619,0.947 -11.123,3.765 -24.731,5.837 v 0 l -0.018,0.003 c -0.056,0.008 -0.111,0.016 -0.167,0.025 l -0.032,0.005 -0.007,10e-4 c -0.631,0.095 -1.274,0.188 -1.928,0.28 l -0.089,0.013 v 0 l -0.05,0.007 c -4.708,0.659 -9.596,1.167 -14.533,1.511 -1.206,0.084 -2.499,0.163 -3.849,0.234 l -0.042,0.005 -0.298,0.012 c -4.093,0.21 -8.254,0.317 -12.368,0.317 -4.114,0 -8.276,-0.107 -12.368,-0.317 l -0.297,-0.012 -0.042,-0.005 c -1.351,-0.071 -2.645,-0.15 -3.849,-0.234 -4.937,-0.344 -9.826,-0.852 -14.529,-1.51 l -0.003,-10e-4 -0.053,-0.007 -0.083,-0.012 c -0.658,-0.093 -1.302,-0.186 -1.933,-0.281 l -0.007,-10e-4 -0.032,-0.005 c -0.056,-0.009 -0.111,-0.017 -0.167,-0.025 l -0.018,-0.003 v 0 c -13.608,-2.072 -22.112,-4.89 -24.732,-5.837 -1.687,-0.315 -3.418,-0.742 -5.184,-1.28 -0.292,0.383 -0.627,0.767 -1.008,1.148 l -1.419,1.42 c -1.889,1.889 -4.4,2.929 -7.069,2.929 -0.207,0 -0.414,-0.006 -0.622,-0.019 -4.246,-0.265 -15.026,-1.717 -23.403,-9.484 -2.022,-1.874 -3.182,-4.544 -3.182,-7.324 v -5.522 c 0,-0.909 0.135,-1.787 0.387,-2.614 -0.494,-1.716 -0.516,-3.529 -0.078,-5.244 -6.372,-7.137 -11.746,-15.219 -15.72,-23.686 -5.699,-12.142 -8.589,-24.951 -8.589,-38.074 0,-12.538 3.519,-23.047 10.46,-31.236 6.343,-7.483 15.378,-13.008 27.622,-16.89 20.68,-6.557 48.206,-7.874 85.918,-7.874 37.711,0 65.238,1.317 85.918,7.874 12.244,3.882 21.279,9.407 27.622,16.89 6.94,8.189 10.46,18.698 10.46,31.236 C 8.589,-24.951 5.699,-12.142 0,0" /></g></g></g></g></g></g><g
       transform="translate(36,180)"
       id="g36"><path
         id="path38"
         style="fill:#bfbfbf;fill-opacity:1;fill-rule:nonzero;stroke:none"
         d="M 0,0 4,-8 24,4 20,8 Z" /></g><g
       id="g40"><g
         clip-path="url(#clipPath46)"
         id="g42"><g
           transform="translate(40,168)"
           id="g48"><path
             id="path50"
             style="fill:#333333;fill-opacity:1;fill-rule:nonzero;stroke:none"
             d="m 0,0 -3.413,2.824 c -0.723,0.723 -0.786,1.868 -0.147,2.666 2.059,2.574 8.294,8.681 21.813,14.351 0.976,0.41 2.104,0.002 2.577,-0.944 L 24,12 Z" /></g><g
           transform="translate(37.4473,176.7236)"
           id="g52"><path
             id="path54"
             style="fill:#cccccc;fill-opacity:1;fill-rule:nonzero;stroke:none"
             d="m 0,0 20.071,11.276 c 1.221,0.611 1.485,0.997 0.52,1.962 l -1.419,1.419 C 18.765,15.064 18.208,15.275 17.634,15.24 14.77,15.062 5.798,14.015 -0.827,7.874 -1.229,7.501 -1.447,6.966 -1.447,6.417 V 0.895 C -1.447,0.151 -0.665,-0.333 0,0" /></g><g
           transform="translate(220,180)"
           id="g56"><path
             id="path58"
             style="fill:#bfbfbf;fill-opacity:1;fill-rule:nonzero;stroke:none"
             d="m 0,0 -4,-8 -20,12 4,4 z" /></g><g
           transform="translate(216,168)"
           id="g60"><path
             id="path62"
             style="fill:#333333;fill-opacity:1;fill-rule:nonzero;stroke:none"
             d="m 0,0 3.413,2.824 c 0.723,0.723 0.785,1.868 0.147,2.666 -2.059,2.574 -8.294,8.681 -21.813,14.351 -0.976,0.41 -2.103,0.002 -2.577,-0.944 L -24,12 Z" /></g><g
           transform="translate(218.5527,176.7236)"
           id="g64"><path
             id="path66"
             style="fill:#cccccc;fill-opacity:1;fill-rule:nonzero;stroke:none"
             d="m 0,0 -20.071,11.276 c -1.221,0.611 -1.485,0.997 -0.52,1.962 l 1.419,1.419 c 0.407,0.407 0.964,0.618 1.538,0.583 C -14.77,15.062 -5.798,14.015 0.826,7.874 1.229,7.501 1.447,6.966 1.447,6.417 V 0.895 C 1.447,0.151 0.665,-0.333 0,0" /></g><g
           transform="translate(184,188)"
           id="g68"><path
             id="path70"
             style="fill:#404040;fill-opacity:1;fill-rule:nonzero;stroke:none"
             d="m 0,0 h -112 c -24,-4 -60,-36 -60,-80 0,-44 48,-48 116,-48 68,0 116,4 116,48 0,44 -36,76 -60,80" /></g><g
           transform="translate(128,196)"
           id="g72"><path
             id="path74"
             style="fill:#8c8c8c;fill-opacity:1;fill-rule:nonzero;stroke:none"
             d="m 0,0 c -36,0 -56,-8 -56,-8 v -108 c 0,-2.209 1.791,-4 4,-4 H 52 c 2.209,0 4,1.791 4,4 V -8 C 56,-8 36,0 0,0" /></g><g
           transform="translate(176,92)"
           id="g76"><path
             id="path78"
             style="fill:#808080;fill-opacity:1;fill-rule:nonzero;stroke:none"
             d="m 0,0 h -96 c -2.209,0 -4,1.791 -4,4 v 72 c 0,2.209 1.791,4 4,4 H 0 c 2.209,0 4,-1.791 4,-4 V 4 C 4,1.791 2.209,0 0,0" /></g><path
           id="path80"
           style="fill:#262626;fill-opacity:1;fill-rule:nonzero;stroke:none"
           d="M 176,96 H 80 v 72 h 96 z" /><g
           transform="translate(46,158)"
           id="g82"><path
             id="path84"
             style="fill:#333333;fill-opacity:1;fill-rule:nonzero;stroke:none"
             d="m 0,0 c -13.233,0 -24,-10.767 -24,-24 0,-13.233 10.767,-24 24,-24 13.233,0 24,10.767 24,24 C 24,-10.767 13.233,0 0,0 m 0,-2 c 12.15,0 22,-9.85 22,-22 0,-12.15 -9.85,-22 -22,-22 -12.15,0 -22,9.85 -22,22 0,12.15 9.85,22 22,22" /></g><g
           transform="translate(64,134)"
           id="g86"><path
             id="path88"
             style="fill:#cccccc;fill-opacity:1;fill-rule:nonzero;stroke:none"
             d="m 0,0 c 0,-9.941 -8.059,-18 -18,-18 -9.941,0 -18,8.059 -18,18 0,9.941 8.059,18 18,18 C -8.059,18 0,9.941 0,0" /></g><g
           transform="translate(28,135.146)"
           id="g90"><path
             id="path92"
             style="fill:#bfbfbf;fill-opacity:1;fill-rule:nonzero;stroke:none"
             d="m 0,0 v -2.292 c 0,-2.23 2.347,-3.681 4.342,-2.683 l 4.08,2.04 c 1.474,0.737 1.474,2.841 0,3.578 l -4.08,2.04 C 2.347,3.681 0,2.23 0,0" /></g><g
           transform="translate(64,132.854)"
           id="g94"><path
             id="path96"
             style="fill:#bfbfbf;fill-opacity:1;fill-rule:nonzero;stroke:none"
             d="m 0,0 v 2.292 c 0,2.23 -2.347,3.681 -4.342,2.683 l -4.08,-2.04 c -1.474,-0.737 -1.474,-2.841 0,-3.578 l 4.08,-2.04 C -2.347,-3.681 0,-2.23 0,0" /></g><g
           transform="translate(47.146,152)"
           id="g98"><path
             id="path100"
             style="fill:#bfbfbf;fill-opacity:1;fill-rule:nonzero;stroke:none"
             d="m 0,0 h -2.292 c -2.23,0 -3.681,-2.347 -2.683,-4.342 l 2.04,-4.08 c 0.737,-1.474 2.841,-1.474 3.578,0 l 2.04,4.08 C 3.681,-2.347 2.23,0 0,0" /></g><g
           transform="translate(44.854,116)"
           id="g102"><path
             id="path104"
             style="fill:#bfbfbf;fill-opacity:1;fill-rule:nonzero;stroke:none"
             d="m 0,0 h 2.292 c 2.23,0 3.681,2.347 2.683,4.342 l -2.04,4.08 c -0.737,1.474 -2.841,1.474 -3.578,0 l -2.04,-4.08 C -3.681,2.347 -2.23,0 0,0" /></g><g
           transform="translate(96,193.7051)"
           id="g106"><path
             id="path108"
             style="fill:#e6e6e6;fill-opacity:1;fill-rule:nonzero;stroke:none"
             d="m 0,0 v -15.705 c 0,-1.105 0.896,-2 2,-2 1.104,0 2,0.895 2,2 V 0.56 C 2.618,0.381 1.284,0.194 0,0" /></g><g
           transform="translate(112,195.4517)"
           id="g110"><path
             id="path112"
             style="fill:#e6e6e6;fill-opacity:1;fill-rule:nonzero;stroke:none"
             d="m 0,0 v -17.452 c 0,-1.104 0.896,-2 2,-2 1.104,0 2,0.896 2,2 V 0.24 C 2.639,0.17 1.302,0.091 0,0" /></g><g
           transform="translate(156,194.2646)"
           id="g114"><path
             id="path116"
             style="fill:#e6e6e6;fill-opacity:1;fill-rule:nonzero;stroke:none"
             d="m 0,0 v -16.265 c 0,-1.104 0.896,-2 2,-2 1.104,0 2,0.896 2,2 V -0.56 C 2.716,-0.365 1.382,-0.179 0,0" /></g><g
           transform="translate(128,196)"
           id="g118"><path
             id="path120"
             style="fill:#e6e6e6;fill-opacity:1;fill-rule:nonzero;stroke:none"
             d="M 0,0 C -0.676,0 -1.335,-0.008 -2,-0.014 V -18 c 0,-1.104 0.896,-2 2,-2 1.104,0 2,0.896 2,2 V -0.014 C 1.335,-0.008 0.676,0 0,0" /></g><g
           transform="translate(140,195.6919)"
           id="g122"><path
             id="path124"
             style="fill:#e6e6e6;fill-opacity:1;fill-rule:nonzero;stroke:none"
             d="m 0,0 v -17.692 c 0,-1.104 0.896,-2 2,-2 1.104,0 2,0.896 2,2 V -0.24 C 2.697,-0.149 1.361,-0.07 0,0" /></g><g
           transform="translate(204,134)"
           id="g126"><path
             id="path128"
             style="fill:#cccccc;fill-opacity:1;fill-rule:nonzero;stroke:none"
             d="m 0,0 c 0,-3.313 -2.687,-6 -6,-6 -3.313,0 -6,2.687 -6,6 0,3.313 2.687,6 6,6 3.313,0 6,-2.687 6,-6" /></g><g
           transform="translate(216,146)"
           id="g130"><path
             id="path132"
             style="fill:#cccccc;fill-opacity:1;fill-rule:nonzero;stroke:none"
             d="m 0,0 c 0,-3.313 -2.687,-6 -6,-6 -3.313,0 -6,2.687 -6,6 0,3.313 2.687,6 6,6 3.313,0 6,-2.687 6,-6" /></g><g
           transform="translate(216,122)"
           id="g134"><path
             id="path136"
             style="fill:#cccccc;fill-opacity:1;fill-rule:nonzero;stroke:none"
             d="m 0,0 c 0,-3.313 -2.687,-6 -6,-6 -3.313,0 -6,2.687 -6,6 0,3.313 2.687,6 6,6 3.313,0 6,-2.687 6,-6" /></g><g
           transform="translate(228,134)"
           id="g138"><path
             id="path140"
             style="fill:#cccccc;fill-opacity:1;fill-rule:nonzero;stroke:none"
             d="m 0,0 c 0,-3.313 -2.687,-6 -6,-6 -3.313,0 -6,2.687 -6,6 0,3.313 2.687,6 6,6 3.313,0 6,-2.687 6,-6" /></g><g
           transform="translate(206,103)"
           id="g142"><path
             id="path144"
             style="fill:#262626;fill-opacity:1;fill-rule:nonzero;stroke:none"
             d="m 0,0 c 0,-0.553 -0.447,-1 -1,-1 -0.553,0 -1,0.447 -1,1 0,0.553 0.447,1 1,1 0.553,0 1,-0.447 1,-1" /></g><g
           transform="translate(210,103)"
           id="g146"><path
             id="path148"
             style="fill:#262626;fill-opacity:1;fill-rule:nonzero;stroke:none"
             d="m 0,0 c 0,-0.553 -0.447,-1 -1,-1 -0.553,0 -1,0.447 -1,1 0,0.553 0.447,1 1,1 0.553,0 1,-0.447 1,-1" /></g><g
           transform="translate(214,103)"
           id="g150"><path
             id="path152"
             style="fill:#262626;fill-opacity:1;fill-rule:nonzero;stroke:none"
             d="m 0,0 c 0,-0.553 -0.447,-1 -1,-1 -0.553,0 -1,0.447 -1,1 0,0.553 0.447,1 1,1 0.553,0 1,-0.447 1,-1" /></g><g
           transform="translate(218,103)"
           id="g154"><path
             id="path156"
             style="fill:#262626;fill-opacity:1;fill-rule:nonzero;stroke:none"
             d="m 0,0 c 0,-0.553 -0.447,-1 -1,-1 -0.553,0 -1,0.447 -1,1 0,0.553 0.447,1 1,1 0.553,0 1,-0.447 1,-1" /></g><g
           transform="translate(222,103)"
           id="g158"><path
             id="path160"
             style="fill:#262626;fill-opacity:1;fill-rule:nonzero;stroke:none"
             d="m 0,0 c 0,-0.553 -0.447,-1 -1,-1 -0.553,0 -1,0.447 -1,1 0,0.553 0.447,1 1,1 0.553,0 1,-0.447 1,-1" /></g><g
           transform="translate(206,99)"
           id="g162"><path
             id="path164"
             style="fill:#262626;fill-opacity:1;fill-rule:nonzero;stroke:none"
             d="m 0,0 c 0,-0.553 -0.447,-1 -1,-1 -0.553,0 -1,0.447 -1,1 0,0.553 0.447,1 1,1 0.553,0 1,-0.447 1,-1" /></g><g
           transform="translate(210,99)"
           id="g166"><path
             id="path168"
             style="fill:#262626;fill-opacity:1;fill-rule:nonzero;stroke:none"
             d="m 0,0 c 0,-0.553 -0.447,-1 -1,-1 -0.553,0 -1,0.447 -1,1 0,0.553 0.447,1 1,1 0.553,0 1,-0.447 1,-1" /></g><g
           transform="translate(214,99)"
           id="g170"><path
             id="path172"
             style="fill:#262626;fill-opacity:1;fill-rule:nonzero;stroke:none"
             d="m 0,0 c 0,-0.553 -0.447,-1 -1,-1 -0.553,0 -1,0.447 -1,1 0,0.553 0.447,1 1,1 0.553,0 1,-0.447 1,-1" /></g><g
           transform="translate(218,99)"
           id="g174"><path
             id="path176"
             style="fill:#262626;fill-opacity:1;fill-rule:nonzero;stroke:none"
             d="m 0,0 c 0,-0.553 -0.447,-1 -1,-1 -0.553,0 -1,0.447 -1,1 0,0.553 0.447,1 1,1 0.553,0 1,-0.447 1,-1" /></g><g
           transform="translate(222,99)"
           id="g178"><path
             id="path180"
             style="fill:#262626;fill-opacity:1;fill-rule:nonzero;stroke:none"
             d="m 0,0 c 0,-0.553 -0.447,-1 -1,-1 -0.553,0 -1,0.447 -1,1 0,0.553 0.447,1 1,1 0.553,0 1,-0.447 1,-1" /></g><g
           transform="translate(206,95)"
           id="g182"><path
             id="path184"
             style="fill:#262626;fill-opacity:1;fill-rule:nonzero;stroke:none"
             d="m 0,0 c 0,-0.553 -0.447,-1 -1,-1 -0.553,0 -1,0.447 -1,1 0,0.553 0.447,1 1,1 0.553,0 1,-0.447 1,-1" /></g><g
           transform="translate(210,95)"
           id="g186"><path
             id="path188"
             style="fill:#262626;fill-opacity:1;fill-rule:nonzero;stroke:none"
             d="m 0,0 c 0,-0.553 -0.447,-1 -1,-1 -0.553,0 -1,0.447 -1,1 0,0.553 0.447,1 1,1 0.553,0 1,-0.447 1,-1" /></g><g
           transform="translate(214,95)"
           id="g190"><path
             id="path192"
             style="fill:#262626;fill-opacity:1;fill-rule:nonzero;stroke:none"
             d="m 0,0 c 0,-0.553 -0.447,-1 -1,-1 -0.553,0 -1,0.447 -1,1 0,0.553 0.447,1 1,1 0.553,0 1,-0.447 1,-1" /></g><g
           transform="translate(218,95)"
           id="g194"><path
             id="path196"
             style="fill:#262626;fill-opacity:1;fill-rule:nonzero;stroke:none"
             d="m 0,0 c 0,-0.553 -0.447,-1 -1,-1 -0.553,0 -1,0.447 -1,1 0,0.553 0.447,1 1,1 0.553,0 1,-0.447 1,-1" /></g><g
           transform="translate(222,95)"
           id="g198"><path
             id="path200"
             style="fill:#262626;fill-opacity:1;fill-rule:nonzero;stroke:none"
             d="m 0,0 c 0,-0.553 -0.447,-1 -1,-1 -0.553,0 -1,0.447 -1,1 0,0.553 0.447,1 1,1 0.553,0 1,-0.447 1,-1" /></g><g
           transform="translate(206,91)"
           id="g202"><path
             id="path204"
             style="fill:#262626;fill-opacity:1;fill-rule:nonzero;stroke:none"
             d="m 0,0 c 0,-0.553 -0.447,-1 -1,-1 -0.553,0 -1,0.447 -1,1 0,0.553 0.447,1 1,1 0.553,0 1,-0.447 1,-1" /></g><g
           transform="translate(210,91)"
           id="g206"><path
             id="path208"
             style="fill:#262626;fill-opacity:1;fill-rule:nonzero;stroke:none"
             d="m 0,0 c 0,-0.553 -0.447,-1 -1,-1 -0.553,0 -1,0.447 -1,1 0,0.553 0.447,1 1,1 0.553,0 1,-0.447 1,-1" /></g><g
           transform="translate(214,91)"
           id="g210"><path
             id="path212"
             style="fill:#262626;fill-opacity:1;fill-rule:nonzero;stroke:none"
             d="m 0,0 c 0,-0.553 -0.447,-1 -1,-1 -0.553,0 -1,0.447 -1,1 0,0.553 0.447,1 1,1 0.553,0 1,-0.447 1,-1" /></g><g
           transform="translate(218,91)"
           id="g214"><path
             id="path216"
             style="fill:#262626;fill-opacity:1;fill-rule:nonzero;stroke:none"
             d="m 0,0 c 0,-0.553 -0.447,-1 -1,-1 -0.553,0 -1,0.447 -1,1 0,0.553 0.447,1 1,1 0.553,0 1,-0.447 1,-1" /></g><g
           transform="translate(222,91)"
           id="g218"><path
             id="path220"
             style="fill:#262626;fill-opacity:1;fill-rule:nonzero;stroke:none"
             d="m 0,0 c 0,-0.553 -0.447,-1 -1,-1 -0.553,0 -1,0.447 -1,1 0,0.553 0.447,1 1,1 0.553,0 1,-0.447 1,-1" /></g><g
           transform="translate(206,87)"
           id="g222"><path
             id="path224"
             style="fill:#262626;fill-opacity:1;fill-rule:nonzero;stroke:none"
             d="m 0,0 c 0,-0.553 -0.447,-1 -1,-1 -0.553,0 -1,0.447 -1,1 0,0.553 0.447,1 1,1 0.553,0 1,-0.447 1,-1" /></g><g
           transform="translate(210,87)"
           id="g226"><path
             id="path228"
             style="fill:#262626;fill-opacity:1;fill-rule:nonzero;stroke:none"
             d="m 0,0 c 0,-0.553 -0.447,-1 -1,-1 -0.553,0 -1,0.447 -1,1 0,0.553 0.447,1 1,1 0.553,0 1,-0.447 1,-1" /></g><g
           transform="translate(214,87)"
           id="g230"><path
             id="path232"
             style="fill:#262626;fill-opacity:1;fill-rule:nonzero;stroke:none"
             d="m 0,0 c 0,-0.553 -0.447,-1 -1,-1 -0.553,0 -1,0.447 -1,1 0,0.553 0.447,1 1,1 0.553,0 1,-0.447 1,-1" /></g><g
           transform="translate(218,87)"
           id="g234"><path
             id="path236"
             style="fill:#262626;fill-opacity:1;fill-rule:nonzero;stroke:none"
             d="m 0,0 c 0,-0.553 -0.447,-1 -1,-1 -0.553,0 -1,0.447 -1,1 0,0.553 0.447,1 1,1 0.553,0 1,-0.447 1,-1" /></g><g
           transform="translate(222,87)"
           id="g238"><path
             id="path240"
             style="fill:#262626;fill-opacity:1;fill-rule:nonzero;stroke:none"
             d="m 0,0 c 0,-0.553 -0.447,-1 -1,-1 -0.553,0 -1,0.447 -1,1 0,0.553 0.447,1 1,1 0.553,0 1,-0.447 1,-1" /></g></g></g></g></svg>