<svg xmlns="http://www.w3.org/2000/svg" xml:space="preserve" width="330.667" height="202.666" viewBox="0 0 330.667 202.666"><defs><clipPath id="a" clipPathUnits="userSpaceOnUse"><path d="M0 256h256V0H0Z"/></clipPath><clipPath id="b" clipPathUnits="userSpaceOnUse"><path d="M4 204h248V52H4Z"/></clipPath><clipPath id="c" clipPathUnits="userSpaceOnUse"><path d="M0 256h256V0H0Z"/></clipPath></defs><g clip-path="url(#a)" transform="matrix(1.33333 0 0 -1.33333 -5.333 272)"><g clip-path="url(#b)" style="opacity:.5"><path d="M0 0c-3.975 8.467-9.348 16.549-15.721 23.686a10 10 0 0 1-.077 5.244 9 9 0 0 1 .387 2.614v5.522c0 2.78-1.16 5.45-3.182 7.324-8.378 7.767-19.157 9.219-23.402 9.484a9.93 9.93 0 0 1-7.692-2.91l-1.418-1.419a12 12 0 0 1-1.009-1.149 48 48 0 0 1-5.185 1.28c-2.619.947-11.123 3.765-24.731 5.837l-.018.003-.167.025-.032.005-.007.001q-.947.142-1.928.28l-.089.013-.05.007a211 211 0 0 1-14.533 1.511c-1.206.084-2.499.163-3.849.234l-.042.005-.298.012c-4.093.21-8.254.317-12.368.317s-8.276-.107-12.368-.317l-.297-.012-.042-.005c-1.351-.071-2.645-.15-3.849-.234a211 211 0 0 1-14.529-1.51l-.003-.001-.053-.007-.083-.012q-.987-.139-1.933-.281l-.007-.001-.032-.005-.167-.025-.018-.003c-13.608-2.072-22.112-4.89-24.732-5.837a48 48 0 0 1-5.184-1.28q-.437.576-1.008 1.148l-1.419 1.42a9.93 9.93 0 0 1-7.691 2.91c-4.246-.265-15.026-1.717-23.403-9.484a10 10 0 0 1-3.182-7.324v-5.522c0-.909.135-1.787.387-2.614a10 10 0 0 1-.078-5.244c-6.372-7.137-11.746-15.219-15.72-23.686-5.699-12.142-8.589-24.951-8.589-38.074 0-12.538 3.519-23.047 10.46-31.236 6.343-7.483 15.378-13.008 27.622-16.89 20.68-6.557 48.206-7.874 85.918-7.874 37.711 0 65.238 1.317 85.918 7.874 12.244 3.882 21.279 9.407 27.622 16.89 6.94 8.189 10.46 18.698 10.46 31.236C8.589-24.951 5.699-12.142 0 0" style="fill:#fff;fill-opacity:1;fill-rule:nonzero;stroke:none" transform="translate(243.411 146.074)"/></g></g><path d="m0 0 4-8L24 4l-4 4Z" style="fill:#bfbfbf;fill-opacity:1;fill-rule:nonzero;stroke:none" transform="matrix(1.33333 0 0 -1.33333 42.667 32)"/><g clip-path="url(#c)" transform="matrix(1.33333 0 0 -1.33333 -5.333 272)"><path d="m0 0-3.413 2.824A2 2 0 0 0-3.56 5.49c2.059 2.574 8.294 8.681 21.813 14.351.976.41 2.104.002 2.577-.944L24 12Z" style="fill:#333;fill-opacity:1;fill-rule:nonzero;stroke:none" transform="translate(40 168)"/><path d="m0 0 20.071 11.276c1.221.611 1.485.997.52 1.962l-1.419 1.419a2 2 0 0 1-1.538.583C14.77 15.062 5.798 14.015-.827 7.874a2 2 0 0 1-.62-1.457V.895A1 1 0 0 1 0 0" style="fill:#ccc;fill-opacity:1;fill-rule:nonzero;stroke:none" transform="translate(37.447 176.724)"/><path d="m0 0-4-8-20 12 4 4z" style="fill:#bfbfbf;fill-opacity:1;fill-rule:nonzero;stroke:none" transform="translate(220 180)"/><path d="m0 0 3.413 2.824c.723.723.785 1.868.147 2.666-2.059 2.574-8.294 8.681-21.813 14.351a2.007 2.007 0 0 1-2.577-.944L-24 12Z" style="fill:#333;fill-opacity:1;fill-rule:nonzero;stroke:none" transform="translate(216 168)"/><path d="m0 0-20.071 11.276c-1.221.611-1.485.997-.52 1.962l1.419 1.419c.407.407.964.618 1.538.583 2.864-.178 11.836-1.225 18.46-7.366.403-.373.621-.908.621-1.457V.895A1 1 0 0 0 0 0" style="fill:#ccc;fill-opacity:1;fill-rule:nonzero;stroke:none" transform="translate(218.553 176.724)"/><path d="M0 0h-112c-24-4-60-36-60-80s48-48 116-48 116 4 116 48S24-4 0 0" style="fill:#404040;fill-opacity:1;fill-rule:nonzero;stroke:none" transform="translate(184 188)"/><path d="M0 0c-36 0-56-8-56-8v-108a4 4 0 0 1 4-4H52a4 4 0 0 1 4 4V-8S36 0 0 0" style="fill:#8c8c8c;fill-opacity:1;fill-rule:nonzero;stroke:none" transform="translate(128 196)"/><path d="M0 0h-96a4 4 0 0 0-4 4v72a4 4 0 0 0 4 4H0a4 4 0 0 0 4-4V4a4 4 0 0 0-4-4" style="fill:gray;fill-opacity:1;fill-rule:nonzero;stroke:none" transform="translate(176 92)"/><path d="M176 96H80v72h96z" style="fill:#262626;fill-opacity:1;fill-rule:nonzero;stroke:none"/><path d="M0 0c-13.233 0-24-10.767-24-24s10.767-24 24-24 24 10.767 24 24S13.233 0 0 0m0-2c12.15 0 22-9.85 22-22S12.15-46 0-46s-22 9.85-22 22S-12.15-2 0-2" style="fill:#333;fill-opacity:1;fill-rule:nonzero;stroke:none" transform="translate(46 158)"/><path d="M0 0c0-9.941-8.059-18-18-18S-36-9.941-36 0s8.059 18 18 18S0 9.941 0 0" style="fill:#ccc;fill-opacity:1;fill-rule:nonzero;stroke:none" transform="translate(64 134)"/><path d="M0 0v-2.292c0-2.23 2.347-3.681 4.342-2.683l4.08 2.04c1.474.737 1.474 2.841 0 3.578l-4.08 2.04C2.347 3.681 0 2.23 0 0" style="fill:#bfbfbf;fill-opacity:1;fill-rule:nonzero;stroke:none" transform="translate(28 135.146)"/><path d="M0 0v2.292c0 2.23-2.347 3.681-4.342 2.683l-4.08-2.04c-1.474-.737-1.474-2.841 0-3.578l4.08-2.04C-2.347-3.681 0-2.23 0 0" style="fill:#bfbfbf;fill-opacity:1;fill-rule:nonzero;stroke:none" transform="translate(64 132.854)"/><path d="M0 0h-2.292c-2.23 0-3.681-2.347-2.683-4.342l2.04-4.08c.737-1.474 2.841-1.474 3.578 0l2.04 4.08C3.681-2.347 2.23 0 0 0" style="fill:#bfbfbf;fill-opacity:1;fill-rule:nonzero;stroke:none" transform="translate(47.146 152)"/><path d="M0 0h2.292c2.23 0 3.681 2.347 2.683 4.342l-2.04 4.08c-.737 1.474-2.841 1.474-3.578 0l-2.04-4.08C-3.681 2.347-2.23 0 0 0" style="fill:#bfbfbf;fill-opacity:1;fill-rule:nonzero;stroke:none" transform="translate(44.854 116)"/><path d="M0 0v-15.705a2 2 0 0 1 4 0V.56A191 191 0 0 1 0 0" style="fill:#e6e6e6;fill-opacity:1;fill-rule:nonzero;stroke:none" transform="translate(96 193.705)"/><path d="M0 0v-17.452a2 2 0 0 1 4 0V.24C2.639.17 1.302.091 0 0" style="fill:#e6e6e6;fill-opacity:1;fill-rule:nonzero;stroke:none" transform="translate(112 195.452)"/><path d="M0 0v-16.265a2 2 0 0 1 4 0V-.56Q2.074-.268 0 0" style="fill:#e6e6e6;fill-opacity:1;fill-rule:nonzero;stroke:none" transform="translate(156 194.265)"/><path d="M0 0c-.676 0-1.335-.008-2-.014V-18a2 2 0 0 1 4 0V-.014C1.335-.008.676 0 0 0" style="fill:#e6e6e6;fill-opacity:1;fill-rule:nonzero;stroke:none" transform="translate(128 196)"/><path d="M0 0v-17.692a2 2 0 0 1 4 0V-.24C2.697-.149 1.361-.07 0 0" style="fill:#e6e6e6;fill-opacity:1;fill-rule:nonzero;stroke:none" transform="translate(140 195.692)"/><path d="M0 0a6 6 0 0 0-12 0A6 6 0 0 0 0 0" style="fill:#ccc;fill-opacity:1;fill-rule:nonzero;stroke:none" transform="translate(204 134)"/><path d="M0 0a6 6 0 0 0-12 0A6 6 0 0 0 0 0" style="fill:#ccc;fill-opacity:1;fill-rule:nonzero;stroke:none" transform="translate(216 146)"/><path d="M0 0a6 6 0 0 0-12 0A6 6 0 0 0 0 0" style="fill:#ccc;fill-opacity:1;fill-rule:nonzero;stroke:none" transform="translate(216 122)"/><path d="M0 0a6 6 0 0 0-12 0A6 6 0 0 0 0 0" style="fill:#ccc;fill-opacity:1;fill-rule:nonzero;stroke:none" transform="translate(228 134)"/><path d="M0 0a1 1 0 1 0-2 0 1 1 0 1 0 2 0" style="fill:#262626;fill-opacity:1;fill-rule:nonzero;stroke:none" transform="translate(206 103)"/><path d="M0 0a1 1 0 1 0-2 0 1 1 0 1 0 2 0" style="fill:#262626;fill-opacity:1;fill-rule:nonzero;stroke:none" transform="translate(210 103)"/><path d="M0 0a1 1 0 1 0-2 0 1 1 0 1 0 2 0" style="fill:#262626;fill-opacity:1;fill-rule:nonzero;stroke:none" transform="translate(214 103)"/><path d="M0 0a1 1 0 1 0-2 0 1 1 0 1 0 2 0" style="fill:#262626;fill-opacity:1;fill-rule:nonzero;stroke:none" transform="translate(218 103)"/><path d="M0 0a1 1 0 1 0-2 0 1 1 0 1 0 2 0" style="fill:#262626;fill-opacity:1;fill-rule:nonzero;stroke:none" transform="translate(222 103)"/><path d="M0 0a1 1 0 1 0-2 0 1 1 0 1 0 2 0" style="fill:#262626;fill-opacity:1;fill-rule:nonzero;stroke:none" transform="translate(206 99)"/><path d="M0 0a1 1 0 1 0-2 0 1 1 0 1 0 2 0" style="fill:#262626;fill-opacity:1;fill-rule:nonzero;stroke:none" transform="translate(210 99)"/><path d="M0 0a1 1 0 1 0-2 0 1 1 0 1 0 2 0" style="fill:#262626;fill-opacity:1;fill-rule:nonzero;stroke:none" transform="translate(214 99)"/><path d="M0 0a1 1 0 1 0-2 0 1 1 0 1 0 2 0" style="fill:#262626;fill-opacity:1;fill-rule:nonzero;stroke:none" transform="translate(218 99)"/><path d="M0 0a1 1 0 1 0-2 0 1 1 0 1 0 2 0" style="fill:#262626;fill-opacity:1;fill-rule:nonzero;stroke:none" transform="translate(222 99)"/><path d="M0 0a1 1 0 1 0-2 0 1 1 0 1 0 2 0" style="fill:#262626;fill-opacity:1;fill-rule:nonzero;stroke:none" transform="translate(206 95)"/><path d="M0 0a1 1 0 1 0-2 0 1 1 0 1 0 2 0" style="fill:#262626;fill-opacity:1;fill-rule:nonzero;stroke:none" transform="translate(210 95)"/><path d="M0 0a1 1 0 1 0-2 0 1 1 0 1 0 2 0" style="fill:#262626;fill-opacity:1;fill-rule:nonzero;stroke:none" transform="translate(214 95)"/><path d="M0 0a1 1 0 1 0-2 0 1 1 0 1 0 2 0" style="fill:#262626;fill-opacity:1;fill-rule:nonzero;stroke:none" transform="translate(218 95)"/><path d="M0 0a1 1 0 1 0-2 0 1 1 0 1 0 2 0" style="fill:#262626;fill-opacity:1;fill-rule:nonzero;stroke:none" transform="translate(222 95)"/><path d="M0 0a1 1 0 1 0-2 0 1 1 0 1 0 2 0" style="fill:#262626;fill-opacity:1;fill-rule:nonzero;stroke:none" transform="translate(206 91)"/><path d="M0 0a1 1 0 1 0-2 0 1 1 0 1 0 2 0" style="fill:#262626;fill-opacity:1;fill-rule:nonzero;stroke:none" transform="translate(210 91)"/><path d="M0 0a1 1 0 1 0-2 0 1 1 0 1 0 2 0" style="fill:#262626;fill-opacity:1;fill-rule:nonzero;stroke:none" transform="translate(214 91)"/><path d="M0 0a1 1 0 1 0-2 0 1 1 0 1 0 2 0" style="fill:#262626;fill-opacity:1;fill-rule:nonzero;stroke:none" transform="translate(218 91)"/><path d="M0 0a1 1 0 1 0-2 0 1 1 0 1 0 2 0" style="fill:#262626;fill-opacity:1;fill-rule:nonzero;stroke:none" transform="translate(222 91)"/><path d="M0 0a1 1 0 1 0-2 0 1 1 0 1 0 2 0" style="fill:#262626;fill-opacity:1;fill-rule:nonzero;stroke:none" transform="translate(206 87)"/><path d="M0 0a1 1 0 1 0-2 0 1 1 0 1 0 2 0" style="fill:#262626;fill-opacity:1;fill-rule:nonzero;stroke:none" transform="translate(210 87)"/><path d="M0 0a1 1 0 1 0-2 0 1 1 0 1 0 2 0" style="fill:#262626;fill-opacity:1;fill-rule:nonzero;stroke:none" transform="translate(214 87)"/><path d="M0 0a1 1 0 1 0-2 0 1 1 0 1 0 2 0" style="fill:#262626;fill-opacity:1;fill-rule:nonzero;stroke:none" transform="translate(218 87)"/><path d="M0 0a1 1 0 1 0-2 0 1 1 0 1 0 2 0" style="fill:#262626;fill-opacity:1;fill-rule:nonzero;stroke:none" transform="translate(222 87)"/></g></svg>