<svg xmlns="http://www.w3.org/2000/svg" xml:space="preserve" width="330.667" height="176" viewBox="0 0 330.667 176"><defs><clipPath id="a" clipPathUnits="userSpaceOnUse"><path d="M0 256h256V0H0Z"/></clipPath><clipPath id="b" clipPathUnits="userSpaceOnUse"><path d="M4 194h248V62H4Z"/></clipPath></defs><g clip-path="url(#a)" transform="matrix(1.33333 0 0 -1.33333 -5.333 258.667)"><g clip-path="url(#b)" style="opacity:.5"><path d="M0 0h-3.521a9.22 9.22 0 0 1-5.744 2h-29.47a9.22 9.22 0 0 1-5.744-2h-123.042a9.22 9.22 0 0 1-5.744 2h-29.47a9.22 9.22 0 0 1-5.744-2H-216c-8.822 0-16-7.178-16-16v-96c0-8.822 7.178-16 16-16h15.349a8.96 8.96 0 0 1 5.651-2h18a9 9 0 0 1 3 .514 9 9 0 0 1 3-.514h18c2.139 0 4.105.75 5.651 2H0c8.822 0 16 7.178 16 16v96C16-7.178 8.822 0 0 0" style="fill:#fff;fill-opacity:1;fill-rule:nonzero;stroke:none" transform="translate(236 192)"/></g><path d="M0 0h-18a1 1 0 0 0-1 1v2a1 1 0 0 0 1 1H0a1 1 0 0 0 1-1V1a1 1 0 0 0-1-1" style="fill:#191919;fill-opacity:1;fill-rule:nonzero;stroke:none" transform="translate(59 70)"/><path d="M0 0h-18a1 1 0 0 0-1 1v2a1 1 0 0 0 1 1H0a1 1 0 0 0 1-1V1a1 1 0 0 0-1-1" style="fill:#191919;fill-opacity:1;fill-rule:nonzero;stroke:none" transform="translate(83 70)"/><path d="M0 0h-216a8 8 0 0 0-8 8v96a8 8 0 0 0 8 8H0a8 8 0 0 0 8-8V8a8 8 0 0 0-8-8" style="fill:#333;fill-opacity:1;fill-rule:nonzero;stroke:none" transform="translate(236 72)"/><path d="M0 0h-29.471c-.698 0-1.264.566-1.264 1.265v1.47c0 .699.566 1.265 1.264 1.265H0c.698 0 1.265-.566 1.265-1.265v-1.47C1.265.566.698 0 0 0" style="fill:#191919;fill-opacity:1;fill-rule:nonzero;stroke:none" transform="translate(226.735 182)"/><path d="M0 0h-29.47c-.698 0-1.265.566-1.265 1.265v1.47c0 .699.567 1.265 1.265 1.265H0c.699 0 1.265-.566 1.265-1.265v-1.47C1.265.566.699 0 0 0" style="fill:#191919;fill-opacity:1;fill-rule:nonzero;stroke:none" transform="translate(62.735 182)"/><path d="M0 0h-8a2 2 0 0 0-2 2v8a2 2 0 0 1-2 2h-8a2 2 0 0 1-2-2V2a2 2 0 0 0-2-2h-8a2 2 0 0 1-2-2v-8a2 2 0 0 1 2-2h8a2 2 0 0 0 2-2v-8a2 2 0 0 1 2-2h8a2 2 0 0 1 2 2v8a2 2 0 0 0 2 2h8a2 2 0 0 1 2 2v8a2 2 0 0 1-2 2" style="fill:#404040;fill-opacity:1;fill-rule:nonzero;stroke:none" transform="translate(54 156)"/><path d="M184 88H72v84h112z" style="fill:gray;fill-opacity:1;fill-rule:nonzero;stroke:none"/><path d="M0 0a6 6 0 0 0-12 0A6 6 0 0 0 0 0" style="fill:#404040;fill-opacity:1;fill-rule:nonzero;stroke:none" transform="translate(44 110)"/><path d="M0 0c-3.86 0-7-3.141-7-7s3.14-7 7-7 7 3.141 7 7-3.14 7-7 7m0-1a6 6 0 0 0 0-12A6 6 0 0 0 0-1" style="fill:#fff;fill-opacity:1;fill-rule:nonzero;stroke:none" transform="translate(38 117)"/><path d="M0 0v4a2 2 0 0 0 2 2h8a2 2 0 0 0 2-2V0h1v4c0 1.654-1.346 3-3 3H2C.346 7-1 5.654-1 4V0Z" style="fill:#fff;fill-opacity:1;fill-rule:nonzero;stroke:none" transform="translate(32 162)"/><path d="M0 0h-4a2 2 0 0 0-2 2v8a2 2 0 0 0 2 2h4v1h-4c-1.654 0-3-1.346-3-3V2c0-1.654 1.346-3 3-3h4z" style="fill:#fff;fill-opacity:1;fill-rule:nonzero;stroke:none" transform="translate(26 144)"/><path d="M0 0h-4v-1h4a2 2 0 0 0 2-2v-8a2 2 0 0 0-2-2h-4v-1h4c1.654 0 3 1.346 3 3v8c0 1.654-1.346 3-3 3" style="fill:#fff;fill-opacity:1;fill-rule:nonzero;stroke:none" transform="translate(54 157)"/><path d="M0 0v-4a2 2 0 0 0-2-2h-8a2 2 0 0 0-2 2v4h-1v-4c0-1.654 1.346-3 3-3h8c1.654 0 3 1.346 3 3v4z" style="fill:#fff;fill-opacity:1;fill-rule:nonzero;stroke:none" transform="translate(44 138)"/><path d="m0 0 6.283 6.283a2 2 0 0 0-.707.707L-.707.707-6.99 6.99a2 2 0 0 0-.707-.707L-1.414 0l-6.283-6.283c.292-.173.534-.415.707-.707L-.707-.707 5.576-6.99c.173.292.415.534.707.707z" style="fill:#333;fill-opacity:1;fill-rule:nonzero;stroke:none" transform="translate(38.707 150)"/><path d="M0 0h-8a2 2 0 0 0-2 2v8a2 2 0 0 1-2 2h-8a2 2 0 0 1-2-2V2a2 2 0 0 0-2-2h-8a2 2 0 0 1-2-2v-8a2 2 0 0 1 2-2h8a2 2 0 0 0 2-2v-8a2 2 0 0 1 2-2h8a2 2 0 0 1 2 2v8a2 2 0 0 0 2 2h8a2 2 0 0 1 2 2v8a2 2 0 0 1-2 2" style="fill:#404040;fill-opacity:1;fill-rule:nonzero;stroke:none" transform="translate(233 156)"/><path d="M0 0a6 6 0 0 0-12 0A6 6 0 0 0 0 0" style="fill:#404040;fill-opacity:1;fill-rule:nonzero;stroke:none" transform="translate(223 110)"/><path d="M0 0c-3.859 0-7-3.141-7-7s3.141-7 7-7 7 3.141 7 7-3.141 7-7 7m0-1a6 6 0 0 0 0-12A6 6 0 0 0 0-1" style="fill:#fff;fill-opacity:1;fill-rule:nonzero;stroke:none" transform="translate(217 117)"/><path d="M0 0v4a2 2 0 0 0 2 2h8a2 2 0 0 0 2-2V0h1v4c0 1.654-1.346 3-3 3H2C.346 7-1 5.654-1 4V0Z" style="fill:#fff;fill-opacity:1;fill-rule:nonzero;stroke:none" transform="translate(211 162)"/><path d="M0 0h-4a2 2 0 0 0-2 2v8a2 2 0 0 0 2 2h4v1h-4c-1.654 0-3-1.346-3-3V2c0-1.654 1.346-3 3-3h4z" style="fill:#fff;fill-opacity:1;fill-rule:nonzero;stroke:none" transform="translate(205 144)"/><path d="M0 0h-4v-1h4a2 2 0 0 0 2-2v-8a2 2 0 0 0-2-2h-4v-1h4c1.654 0 3 1.346 3 3v8c0 1.654-1.346 3-3 3" style="fill:#fff;fill-opacity:1;fill-rule:nonzero;stroke:none" transform="translate(233 157)"/><path d="M0 0v-4a2 2 0 0 0-2-2h-8a2 2 0 0 0-2 2v4h-1v-4c0-1.654 1.346-3 3-3h8c1.654 0 3 1.346 3 3v4z" style="fill:#fff;fill-opacity:1;fill-rule:nonzero;stroke:none" transform="translate(223 138)"/><path d="M0 0a4 4 0 0 0 0 5.657l3.455 3.454a2 2 0 0 0-.707.707L-.707 6.364a4 4 0 0 0-5.656 0l-3.455 3.454a2 2 0 0 0-.707-.707l3.455-3.454A4 4 0 0 0-7.07 0l-3.455-3.454c.293-.173.535-.415.707-.707l3.455 3.454a4 4 0 0 0 5.656 0l3.455-3.454c.172.292.414.534.707.707z" style="fill:#333;fill-opacity:1;fill-rule:nonzero;stroke:none" transform="translate(220.535 147.171)"/><path d="M0 0a1 1 0 0 1-1.297-.563l-1.706-4.333-4.333 1.707a1 1 0 1 1-.733-1.861l4.877-1.922 1.43-3.289a1 1 0 0 1 1.316-.517 1 1 0 0 1 .518 1.315l-1.429 3.288L.564-1.297A1 1 0 0 1 0 0" style="fill:#191919;fill-opacity:1;fill-rule:nonzero;stroke:none" transform="translate(31.366 93.193)"/><path d="M0 0a1 1 0 0 0 1.297-.563l1.707-4.333 4.332 1.707a1 1 0 1 0 .733-1.861L3.191-6.972l-1.429-3.289a1 1 0 0 0-1.316-.517.997.997 0 0 0-.518 1.315l1.429 3.288-1.92 4.878A1 1 0 0 0 0 0" style="fill:#191919;fill-opacity:1;fill-rule:nonzero;stroke:none" transform="translate(223.297 93.193)"/></g></svg>