<svg xmlns="http://www.w3.org/2000/svg" xml:space="preserve" width="330.667" height="197.333" viewBox="0 0 330.667 197.333"><defs><clipPath id="a" clipPathUnits="userSpaceOnUse"><path d="M0 256h256V0H0Z"/></clipPath><clipPath id="b" clipPathUnits="userSpaceOnUse"><path d="M4 200h248V52H4Z"/></clipPath></defs><g clip-path="url(#a)" transform="matrix(1.33333 0 0 -1.33333 -5.333 266.667)"><g clip-path="url(#b)" style="opacity:.5"><path d="M0 0h-208c-11.028 0-20-8.972-20-20v-88c0-22.056 17.944-40 40-40h168c22.056 0 40 17.944 40 40v88C20-8.972 11.028 0 0 0" style="fill:#fff;fill-opacity:1;fill-rule:nonzero;stroke:none" transform="translate(232 200)"/></g><path d="M0 0v4h2v4c0 6.627-5.373 12-12 12h-208c-6.627 0-12-5.373-12-12V4h2V0h-2v-64c0-17.673 14.327-32 32-32h168c17.673 0 32 14.327 32 32V0Z" style="fill:#333;fill-opacity:1;fill-rule:nonzero;stroke:none" transform="translate(242 156)"/><path d="M0 0v4h2v4c0 6.627-5.373 12-12 12h-208c-6.627 0-12-5.373-12-12V4h2V0h-2v-72c0-13.255 10.745-24 24-24h184C-8.745-96 2-85.255 2-72V0Z" style="fill:#404040;fill-opacity:1;fill-rule:nonzero;stroke:none" transform="translate(242 172)"/><path d="M196 88H60v96h136z" style="fill:#262626;fill-opacity:1;fill-rule:nonzero;stroke:none"/><path d="M184 96H72v84h112z" style="fill:#333;fill-opacity:1;fill-rule:nonzero;stroke:none"/><path d="M0 0a6 6 0 0 0-12 0A6 6 0 0 0 0 0" style="fill:#4c4c4c;fill-opacity:1;fill-rule:nonzero;stroke:none" transform="translate(212 150)"/><path d="M0 0a6 6 0 0 0-12 0A6 6 0 0 0 0 0" style="fill:#4c4c4c;fill-opacity:1;fill-rule:nonzero;stroke:none" transform="translate(236 150)"/><path d="M0 0c0-8.836-7.164-16-16-16S-32-8.836-32 0s7.164 16 16 16S0 8.836 0 0" style="fill:#333;fill-opacity:1;fill-rule:nonzero;stroke:none" transform="translate(52 148)"/><path d="M0 0a6 6 0 0 0-12 0A6 6 0 0 0 0 0" style="fill:#4c4c4c;fill-opacity:1;fill-rule:nonzero;stroke:none" transform="translate(224 162)"/><path d="M0 0a6 6 0 0 0-12 0A6 6 0 0 0 0 0" style="fill:#4c4c4c;fill-opacity:1;fill-rule:nonzero;stroke:none" transform="translate(224 138)"/><path d="M0 0c0-6.627-5.373-12-12-12S-24-6.627-24 0s5.373 12 12 12S0 6.627 0 0" style="fill:#4c4c4c;fill-opacity:1;fill-rule:nonzero;stroke:none" transform="translate(48 148)"/><path d="M0 0h-24a4 4 0 0 0 0 8H0a4 4 0 0 0 0-8" style="fill:#4c4c4c;fill-opacity:1;fill-rule:nonzero;stroke:none" transform="translate(48 108)"/><path d="m0 0-4.242-4.242A3 3 0 1 1 0-8.485l4.242 4.243a3 3 0 0 1 0 4.242A3 3 0 0 1 0 0" style="fill:#4c4c4c;fill-opacity:1;fill-rule:nonzero;stroke:none" transform="translate(212 115.121)"/><path d="m0 0-4.243-4.242A3.001 3.001 0 0 1 0-8.485l4.242 4.243a3 3 0 0 1 0 4.242A3 3 0 0 1 0 0" style="fill:#4c4c4c;fill-opacity:1;fill-rule:nonzero;stroke:none" transform="translate(226.879 115.121)"/><path d="M0 0h-104a4 4 0 0 0 0 8H0a4 4 0 0 0 0-8" style="fill:#262626;fill-opacity:1;fill-rule:nonzero;stroke:none" transform="translate(180 64)"/><path d="M0 0a2 2 0 1 0-4.001.001A2 2 0 0 0 0 0" style="fill:#595959;fill-opacity:1;fill-rule:nonzero;stroke:none" transform="translate(88 68)"/><path d="M0 0a2 2 0 1 0-4.001.001A2 2 0 0 0 0 0" style="fill:#595959;fill-opacity:1;fill-rule:nonzero;stroke:none" transform="translate(172 68)"/><path d="M0 0h-6a1 1 0 1 0 0 2h6a1 1 0 1 0 0-2" style="fill:#262626;fill-opacity:1;fill-rule:nonzero;stroke:none" transform="translate(39 94)"/><path d="M0 0h-6a1 1 0 1 0 0 2h6a1 1 0 1 0 0-2" style="fill:#262626;fill-opacity:1;fill-rule:nonzero;stroke:none" transform="translate(34 91)"/><path d="M0 0h-6a1 1 0 1 0 0 2h6a1 1 0 1 0 0-2" style="fill:#262626;fill-opacity:1;fill-rule:nonzero;stroke:none" transform="translate(44 91)"/><path d="M0 0h-6a1 1 0 1 0 0 2h6a1 1 0 1 0 0-2" style="fill:#262626;fill-opacity:1;fill-rule:nonzero;stroke:none" transform="translate(39 88)"/><path d="M0 0h-6a1 1 0 1 0 0 2h6a1 1 0 1 0 0-2" style="fill:#262626;fill-opacity:1;fill-rule:nonzero;stroke:none" transform="translate(222 94)"/><path d="M0 0h-6a1 1 0 1 0 0 2h6a1 1 0 1 0 0-2" style="fill:#262626;fill-opacity:1;fill-rule:nonzero;stroke:none" transform="translate(217 91)"/><path d="M0 0h-6a1 1 0 1 0 0 2h6a1 1 0 1 0 0-2" style="fill:#262626;fill-opacity:1;fill-rule:nonzero;stroke:none" transform="translate(227 91)"/><path d="M0 0h-6a1 1 0 1 0 0 2h6a1 1 0 1 0 0-2" style="fill:#262626;fill-opacity:1;fill-rule:nonzero;stroke:none" transform="translate(222 88)"/></g></svg>