<?xml version="1.0" encoding="UTF-8" standalone="no"?>
<svg
   xmlns:dc="http://purl.org/dc/elements/1.1/"
   xmlns:cc="http://creativecommons.org/ns#"
   xmlns:rdf="http://www.w3.org/1999/02/22-rdf-syntax-ns#"
   xmlns:svg="http://www.w3.org/2000/svg"
   xmlns="http://www.w3.org/2000/svg"
   viewBox="0 0 330.66665 176"
   height="176"
   width="330.66666"
   xml:space="preserve"
   id="svg2"
   version="1.1"><metadata
     id="metadata8"><rdf:RDF><cc:Work
         rdf:about=""><dc:format>image/svg+xml</dc:format><dc:type
           rdf:resource="http://purl.org/dc/dcmitype/StillImage" /></cc:Work></rdf:RDF></metadata><defs
     id="defs6"><clipPath
       id="clipPath18"
       clipPathUnits="userSpaceOnUse"><path
         id="path16"
         d="M 0,256 H 256 V 0 H 0 Z" /></clipPath><clipPath
       id="clipPath26"
       clipPathUnits="userSpaceOnUse"><path
         id="path24"
         d="M 4,194 H 252 V 62 H 4 Z" /></clipPath></defs><g
     transform="matrix(1.3333333,0,0,-1.3333333,-5.3333332,258.66666)"
     id="g10"><g
       id="g12"><g
         clip-path="url(#clipPath18)"
         id="g14"><g
           id="g20"><g
             id="g22" /><g
             id="g34"><g
               style="opacity:0.5"
               id="g32"
               clip-path="url(#clipPath26)"><g
                 id="g30"
                 transform="translate(236,192)"><path
                   id="path28"
                   style="fill:#ffffff;fill-opacity:1;fill-rule:nonzero;stroke:none"
                   d="m 0,0 h -3.521 c -1.581,1.252 -3.577,2 -5.744,2 h -29.47 c -2.167,0 -4.163,-0.748 -5.744,-2 h -123.042 c -1.58,1.252 -3.576,2 -5.744,2 h -29.47 c -2.168,0 -4.164,-0.748 -5.744,-2 H -216 c -8.822,0 -16,-7.178 -16,-16 v -96 c 0,-8.822 7.178,-16 16,-16 h 15.349 c 1.546,-1.25 3.512,-2 5.651,-2 h 18 c 1.051,0 2.062,0.182 3,0.514 0.938,-0.332 1.949,-0.514 3,-0.514 h 18 c 2.139,0 4.105,0.75 5.651,2 H 0 c 8.822,0 16,7.178 16,16 v 96 C 16,-7.178 8.822,0 0,0" /></g></g></g></g><g
           transform="translate(59,70)"
           id="g36"><path
             id="path38"
             style="fill:#191919;fill-opacity:1;fill-rule:nonzero;stroke:none"
             d="m 0,0 h -18 c -0.552,0 -1,0.447 -1,1 v 2 c 0,0.553 0.448,1 1,1 H 0 C 0.552,4 1,3.553 1,3 V 1 C 1,0.447 0.552,0 0,0" /></g><g
           transform="translate(83,70)"
           id="g40"><path
             id="path42"
             style="fill:#191919;fill-opacity:1;fill-rule:nonzero;stroke:none"
             d="m 0,0 h -18 c -0.552,0 -1,0.447 -1,1 v 2 c 0,0.553 0.448,1 1,1 H 0 C 0.552,4 1,3.553 1,3 V 1 C 1,0.447 0.552,0 0,0" /></g><g
           transform="translate(236,72)"
           id="g44"><path
             id="path46"
             style="fill:#333333;fill-opacity:1;fill-rule:nonzero;stroke:none"
             d="m 0,0 h -216 c -4.418,0 -8,3.582 -8,8 v 96 c 0,4.418 3.582,8 8,8 H 0 c 4.418,0 8,-3.582 8,-8 V 8 C 8,3.582 4.418,0 0,0" /></g><g
           transform="translate(226.7354,182)"
           id="g48"><path
             id="path50"
             style="fill:#191919;fill-opacity:1;fill-rule:nonzero;stroke:none"
             d="m 0,0 h -29.471 c -0.698,0 -1.264,0.566 -1.264,1.265 v 1.47 c 0,0.699 0.566,1.265 1.264,1.265 H 0 C 0.698,4 1.265,3.434 1.265,2.735 V 1.265 C 1.265,0.566 0.698,0 0,0" /></g><g
           transform="translate(62.7349,182)"
           id="g52"><path
             id="path54"
             style="fill:#191919;fill-opacity:1;fill-rule:nonzero;stroke:none"
             d="m 0,0 h -29.47 c -0.698,0 -1.265,0.566 -1.265,1.265 v 1.47 c 0,0.699 0.567,1.265 1.265,1.265 H 0 C 0.699,4 1.265,3.434 1.265,2.735 V 1.265 C 1.265,0.566 0.699,0 0,0" /></g><g
           transform="translate(54,156)"
           id="g56"><path
             id="path58"
             style="fill:#404040;fill-opacity:1;fill-rule:nonzero;stroke:none"
             d="m 0,0 h -8 c -1.104,0 -2,0.896 -2,2 v 8 c 0,1.104 -0.896,2 -2,2 h -8 c -1.104,0 -2,-0.896 -2,-2 V 2 c 0,-1.104 -0.896,-2 -2,-2 h -8 c -1.104,0 -2,-0.896 -2,-2 v -8 c 0,-1.104 0.896,-2 2,-2 h 8 c 1.104,0 2,-0.896 2,-2 v -8 c 0,-1.104 0.896,-2 2,-2 h 8 c 1.104,0 2,0.896 2,2 v 8 c 0,1.104 0.896,2 2,2 h 8 c 1.104,0 2,0.896 2,2 v 8 C 2,-0.896 1.104,0 0,0" /></g><path
           id="path60"
           style="fill:#808080;fill-opacity:1;fill-rule:nonzero;stroke:none"
           d="M 184,88 H 72 v 84 h 112 z" /><g
           transform="translate(44,110)"
           id="g62"><path
             id="path64"
             style="fill:#404040;fill-opacity:1;fill-rule:nonzero;stroke:none"
             d="m 0,0 c 0,-3.313 -2.687,-6 -6,-6 -3.313,0 -6,2.687 -6,6 0,3.313 2.687,6 6,6 3.313,0 6,-2.687 6,-6" /></g><g
           transform="translate(38,117)"
           id="g66"><path
             id="path68"
             style="fill:#ffffff;fill-opacity:1;fill-rule:nonzero;stroke:none"
             d="m 0,0 c -3.86,0 -7,-3.141 -7,-7 0,-3.859 3.14,-7 7,-7 3.86,0 7,3.141 7,7 0,3.859 -3.14,7 -7,7 m 0,-1 c 3.313,0 6,-2.687 6,-6 0,-3.313 -2.687,-6 -6,-6 -3.313,0 -6,2.687 -6,6 0,3.313 2.687,6 6,6" /></g><g
           transform="translate(32,162)"
           id="g70"><path
             id="path72"
             style="fill:#ffffff;fill-opacity:1;fill-rule:nonzero;stroke:none"
             d="m 0,0 v 4 c 0,1.104 0.896,2 2,2 h 8 c 1.104,0 2,-0.896 2,-2 V 0 h 1 v 4 c 0,1.654 -1.346,3 -3,3 H 2 C 0.346,7 -1,5.654 -1,4 V 0 Z" /></g><g
           transform="translate(26,144)"
           id="g74"><path
             id="path76"
             style="fill:#ffffff;fill-opacity:1;fill-rule:nonzero;stroke:none"
             d="m 0,0 h -4 c -1.104,0 -2,0.896 -2,2 v 8 c 0,1.104 0.896,2 2,2 h 4 v 1 h -4 c -1.654,0 -3,-1.346 -3,-3 V 2 c 0,-1.654 1.346,-3 3,-3 h 4 z" /></g><g
           transform="translate(54,157)"
           id="g78"><path
             id="path80"
             style="fill:#ffffff;fill-opacity:1;fill-rule:nonzero;stroke:none"
             d="m 0,0 h -4 v -1 h 4 c 1.104,0 2,-0.896 2,-2 v -8 c 0,-1.104 -0.896,-2 -2,-2 h -4 v -1 h 4 c 1.654,0 3,1.346 3,3 v 8 C 3,-1.346 1.654,0 0,0" /></g><g
           transform="translate(44,138)"
           id="g82"><path
             id="path84"
             style="fill:#ffffff;fill-opacity:1;fill-rule:nonzero;stroke:none"
             d="m 0,0 v -4 c 0,-1.104 -0.896,-2 -2,-2 h -8 c -1.104,0 -2,0.896 -2,2 v 4 h -1 v -4 c 0,-1.654 1.346,-3 3,-3 h 8 c 1.654,0 3,1.346 3,3 v 4 z" /></g><g
           transform="translate(38.707,150)"
           id="g86"><path
             id="path88"
             style="fill:#333333;fill-opacity:1;fill-rule:nonzero;stroke:none"
             d="M 0,0 6.283,6.283 C 5.991,6.456 5.749,6.698 5.576,6.99 L -0.707,0.707 -6.99,6.99 C -7.163,6.698 -7.405,6.456 -7.697,6.283 L -1.414,0 -7.697,-6.283 c 0.292,-0.173 0.534,-0.415 0.707,-0.707 l 6.283,6.283 6.283,-6.283 c 0.173,0.292 0.415,0.534 0.707,0.707 z" /></g><g
           transform="translate(233,156)"
           id="g90"><path
             id="path92"
             style="fill:#404040;fill-opacity:1;fill-rule:nonzero;stroke:none"
             d="m 0,0 h -8 c -1.104,0 -2,0.896 -2,2 v 8 c 0,1.104 -0.896,2 -2,2 h -8 c -1.104,0 -2,-0.896 -2,-2 V 2 c 0,-1.104 -0.896,-2 -2,-2 h -8 c -1.104,0 -2,-0.896 -2,-2 v -8 c 0,-1.104 0.896,-2 2,-2 h 8 c 1.104,0 2,-0.896 2,-2 v -8 c 0,-1.104 0.896,-2 2,-2 h 8 c 1.104,0 2,0.896 2,2 v 8 c 0,1.104 0.896,2 2,2 h 8 c 1.104,0 2,0.896 2,2 v 8 C 2,-0.896 1.104,0 0,0" /></g><g
           transform="translate(223,110)"
           id="g94"><path
             id="path96"
             style="fill:#404040;fill-opacity:1;fill-rule:nonzero;stroke:none"
             d="m 0,0 c 0,-3.313 -2.687,-6 -6,-6 -3.313,0 -6,2.687 -6,6 0,3.313 2.687,6 6,6 3.313,0 6,-2.687 6,-6" /></g><g
           transform="translate(217,117)"
           id="g98"><path
             id="path100"
             style="fill:#ffffff;fill-opacity:1;fill-rule:nonzero;stroke:none"
             d="m 0,0 c -3.859,0 -7,-3.141 -7,-7 0,-3.859 3.141,-7 7,-7 3.859,0 7,3.141 7,7 0,3.859 -3.141,7 -7,7 m 0,-1 c 3.313,0 6,-2.687 6,-6 0,-3.313 -2.687,-6 -6,-6 -3.313,0 -6,2.687 -6,6 0,3.313 2.687,6 6,6" /></g><g
           transform="translate(211,162)"
           id="g102"><path
             id="path104"
             style="fill:#ffffff;fill-opacity:1;fill-rule:nonzero;stroke:none"
             d="m 0,0 v 4 c 0,1.104 0.896,2 2,2 h 8 c 1.104,0 2,-0.896 2,-2 V 0 h 1 v 4 c 0,1.654 -1.346,3 -3,3 H 2 C 0.346,7 -1,5.654 -1,4 V 0 Z" /></g><g
           transform="translate(205,144)"
           id="g106"><path
             id="path108"
             style="fill:#ffffff;fill-opacity:1;fill-rule:nonzero;stroke:none"
             d="m 0,0 h -4 c -1.104,0 -2,0.896 -2,2 v 8 c 0,1.104 0.896,2 2,2 h 4 v 1 h -4 c -1.654,0 -3,-1.346 -3,-3 V 2 c 0,-1.654 1.346,-3 3,-3 h 4 z" /></g><g
           transform="translate(233,157)"
           id="g110"><path
             id="path112"
             style="fill:#ffffff;fill-opacity:1;fill-rule:nonzero;stroke:none"
             d="m 0,0 h -4 v -1 h 4 c 1.104,0 2,-0.896 2,-2 v -8 c 0,-1.104 -0.896,-2 -2,-2 h -4 v -1 h 4 c 1.654,0 3,1.346 3,3 v 8 C 3,-1.346 1.654,0 0,0" /></g><g
           transform="translate(223,138)"
           id="g114"><path
             id="path116"
             style="fill:#ffffff;fill-opacity:1;fill-rule:nonzero;stroke:none"
             d="m 0,0 v -4 c 0,-1.104 -0.896,-2 -2,-2 h -8 c -1.104,0 -2,0.896 -2,2 v 4 h -1 v -4 c 0,-1.654 1.346,-3 3,-3 h 8 c 1.654,0 3,1.346 3,3 v 4 z" /></g><g
           transform="translate(220.5352,147.1714)"
           id="g118"><path
             id="path120"
             style="fill:#333333;fill-opacity:1;fill-rule:nonzero;stroke:none"
             d="M 0,0 C -1.562,1.562 -1.562,4.095 0,5.657 L 3.455,9.111 C 3.162,9.284 2.92,9.526 2.748,9.818 L -0.707,6.364 c -1.562,-1.562 -4.095,-1.562 -5.656,0 L -9.818,9.818 C -9.99,9.526 -10.232,9.284 -10.525,9.111 L -7.07,5.657 C -5.509,4.095 -5.509,1.562 -7.07,0 l -3.455,-3.454 c 0.293,-0.173 0.535,-0.415 0.707,-0.707 l 3.455,3.454 c 1.561,1.562 4.094,1.562 5.656,0 l 3.455,-3.454 c 0.172,0.292 0.414,0.534 0.707,0.707 z" /></g><g
           transform="translate(31.3662,93.1934)"
           id="g122"><path
             id="path124"
             style="fill:#191919;fill-opacity:1;fill-rule:nonzero;stroke:none"
             d="m 0,0 c -0.514,0.202 -1.094,-0.05 -1.297,-0.563 l -1.706,-4.333 -4.333,1.707 c -0.515,0.202 -1.095,-0.05 -1.297,-0.565 -0.203,-0.514 0.05,-1.094 0.564,-1.296 l 4.877,-1.922 1.43,-3.289 c 0.22,-0.507 0.809,-0.738 1.316,-0.517 0.506,0.219 0.738,0.808 0.518,1.315 l -1.429,3.288 1.921,4.878 C 0.767,-0.782 0.514,-0.202 0,0" /></g><g
           transform="translate(223.2969,93.1934)"
           id="g126"><path
             id="path128"
             style="fill:#191919;fill-opacity:1;fill-rule:nonzero;stroke:none"
             d="m 0,0 c 0.514,0.202 1.094,-0.05 1.297,-0.563 l 1.707,-4.333 4.332,1.707 C 7.851,-2.987 8.431,-3.239 8.633,-3.754 8.836,-4.268 8.583,-4.848 8.069,-5.05 L 3.191,-6.972 1.762,-10.261 c -0.221,-0.507 -0.81,-0.738 -1.316,-0.517 -0.507,0.219 -0.739,0.808 -0.518,1.315 l 1.429,3.288 -1.92,4.878 C -0.767,-0.782 -0.514,-0.202 0,0" /></g></g></g></g></svg>