<?xml version="1.0" encoding="UTF-8" standalone="no"?>
<svg
   xmlns:dc="http://purl.org/dc/elements/1.1/"
   xmlns:cc="http://creativecommons.org/ns#"
   xmlns:rdf="http://www.w3.org/1999/02/22-rdf-syntax-ns#"
   xmlns:svg="http://www.w3.org/2000/svg"
   xmlns="http://www.w3.org/2000/svg"
   viewBox="0 0 319.99984 202.6664"
   height="202.6664"
   width="319.99985"
   xml:space="preserve"
   id="svg2"
   version="1.1"><metadata
     id="metadata8"><rdf:RDF><cc:Work
         rdf:about=""><dc:format>image/svg+xml</dc:format><dc:type
           rdf:resource="http://purl.org/dc/dcmitype/StillImage" /></cc:Work></rdf:RDF></metadata><defs
     id="defs6"><clipPath
       id="clipPath18"
       clipPathUnits="userSpaceOnUse"><path
         id="path16"
         d="M 0,256 H 256 V 0 H 0 Z" /></clipPath><clipPath
       id="clipPath26"
       clipPathUnits="userSpaceOnUse"><path
         id="path24"
         d="M 8,204 H 248 V 52 H 8 Z" /></clipPath></defs><g
     transform="matrix(1.3333333,0,0,-1.3333333,-10.6668,271.99999)"
     id="g10"><g
       id="g12"><g
         clip-path="url(#clipPath18)"
         id="g14"><g
           id="g20"><g
             id="g22" /><g
             id="g34"><g
               style="opacity:0.5"
               id="g32"
               clip-path="url(#clipPath26)"><g
                 id="g30"
                 transform="translate(245.8711,149.4312)"><path
                   id="path28"
                   style="fill:#ffffff;fill-opacity:1;fill-rule:nonzero;stroke:none"
                   d="m 0,0 c -2.308,12.693 -6.147,22.915 -11.447,30.501 0.77,1.708 0.996,3.638 0.6,5.535 -0.622,2.983 -2.686,5.429 -5.522,6.543 -14.236,5.591 -24.983,8.309 -32.853,8.309 -2.897,0 -5.407,-0.364 -7.592,-1.105 -6.897,0.88 -14.613,1.566 -23.005,2.048 l -0.395,0.395 c -1.501,1.5 -3.535,2.343 -5.657,2.343 h -24 c -1.93,0 -3.788,-0.697 -5.237,-1.953 -1.423,-0.017 -2.372,-0.036 -2.763,-0.045 -0.391,0.009 -1.34,0.028 -2.762,0.045 -1.45,1.256 -3.308,1.953 -5.238,1.953 h -24 c -2.122,0 -4.157,-0.843 -5.657,-2.343 l -0.395,-0.395 c -8.392,-0.482 -16.108,-1.168 -23.005,-2.048 -2.185,0.741 -4.695,1.104 -7.592,1.105 -7.87,0 -18.616,-2.718 -32.854,-8.309 -2.835,-1.114 -4.899,-3.56 -5.522,-6.543 -0.395,-1.897 -0.169,-3.827 0.601,-5.535 -5.299,-7.586 -9.139,-17.808 -11.447,-30.501 -2.105,-11.577 -2.129,-21.034 -2.129,-21.431 v -24 c 0,-0.514 0.058,-12.715 5.096,-25.029 7.115,-17.393 20.931,-26.971 38.904,-26.971 17.183,0 24.688,0.894 32.634,1.841 8.907,1.061 18.118,2.159 43.366,2.159 25.248,0 34.459,-1.098 43.365,-2.159 7.946,-0.947 15.452,-1.841 32.635,-1.841 17.973,0 31.789,9.578 38.904,26.971 5.038,12.314 5.096,24.515 5.096,25.029 v 24 C 2.129,-21.034 2.104,-11.577 0,0" /></g></g></g></g><g
           transform="translate(29.0771,182.9229)"
           id="g36"><path
             id="path38"
             style="fill:#cccccc;fill-opacity:1;fill-rule:nonzero;stroke:none"
             d="m 0,0 2.923,-2.923 36,8 c 0,0 0,11.714 -38.578,-3.436 C -0.325,1.377 -0.509,0.509 0,0" /></g><g
           transform="translate(226.9229,182.9229)"
           id="g40"><path
             id="path42"
             style="fill:#cccccc;fill-opacity:1;fill-rule:nonzero;stroke:none"
             d="m 0,0 -2.923,-2.923 -36,8 c 0,0 0,11.714 38.578,-3.436 C 0.325,1.377 0.509,0.509 0,0" /></g><g
           transform="translate(124,192)"
           id="g44"><path
             id="path46"
             style="fill:#cccccc;fill-opacity:1;fill-rule:nonzero;stroke:none"
             d="m 0,0 h -32 l 4,4 h 24 z" /></g><g
           transform="translate(164,192)"
           id="g48"><path
             id="path50"
             style="fill:#cccccc;fill-opacity:1;fill-rule:nonzero;stroke:none"
             d="m 0,0 h -32 l 4,4 h 24 z" /></g><g
           transform="translate(224,180)"
           id="g52"><path
             id="path54"
             style="fill:#e6e6e6;fill-opacity:1;fill-rule:nonzero;stroke:none"
             d="m 0,0 c -16,16 -96,14 -96,14 0,0 -80,2 -96,-14 -16,-16 -16,-52 -16,-52 v -24 c 0,0 0,-44 36,-44 36,0 28,4 76,4 48,0 40,-4 76,-4 36,0 36,44 36,44 v 24 c 0,0 0,36 -16,52" /></g><g
           transform="translate(184,76)"
           id="g56"><path
             id="path58"
             style="fill:#808080;fill-opacity:1;fill-rule:nonzero;stroke:none"
             d="m 0,0 v 0 c -37.286,-2.663 -74.714,-2.663 -112,0 -4.418,0 -8,3.582 -8,8 l -0.36,3.965 c -2.421,26.63 -2.301,53.429 0.36,80.035 0,4.418 3.582,8 8,8 37.286,2.663 74.714,2.663 112,0 4.418,0 8,-3.582 8,-8 2.66,-26.606 2.781,-53.405 0.36,-80.035 L 8,8 C 8,3.582 4.418,0 0,0" /></g><g
           transform="translate(128,177.9976)"
           id="g60"><path
             id="path62"
             style="fill:#737373;fill-opacity:1;fill-rule:nonzero;stroke:none"
             d="m 0,0 c -18.679,0 -37.357,-0.666 -56,-1.998 -4.418,0 -8,-3.581 -8,-8 -2.661,-26.606 -2.781,-53.405 -0.36,-80.035 l 0.36,-3.965 c 0,-4.418 3.582,-8 8,-8 18.643,-1.332 37.321,-1.997 56,-1.997 18.679,0 37.357,0.665 56,1.997 4.418,0 8,3.582 8,8 l 0.36,3.965 c 2.421,26.63 2.3,53.429 -0.36,80.035 0,4.419 -3.582,8 -8,8 C 37.357,-0.666 18.679,0 0,0 m 0,-2 c 18.556,0 37.349,-0.67 55.857,-1.993 l 0.072,-0.005 H 56 c 3.309,0 6,-2.691 6,-6 v -0.099 l 0.01,-0.1 c 2.641,-26.416 2.762,-53.216 0.359,-79.654 L 62.008,-93.817 62,-93.907 v -0.091 c 0,-3.308 -2.691,-6 -6,-6 h -0.071 l -0.072,-0.004 c -18.508,-1.323 -37.301,-1.993 -55.857,-1.993 -18.556,0 -37.349,0.67 -55.857,1.993 l -0.072,0.004 H -56 c -3.309,0 -6,2.692 -6,6 v 0.091 l -0.008,0.09 -0.361,3.966 c -2.403,26.438 -2.282,53.238 0.359,79.654 l 0.01,0.1 v 0.099 c 0,3.309 2.691,6 6,6 h 0.071 l 0.072,0.005 C -37.349,-2.67 -18.556,-2 0,-2" /></g><path
           id="path64"
           style="fill:#b3b3b3;fill-opacity:1;fill-rule:nonzero;stroke:none"
           d="M 184,88 H 72 v 84 h 112 z" /><g
           transform="translate(52,122)"
           id="g66"><path
             id="path68"
             style="fill:#cccccc;fill-opacity:1;fill-rule:nonzero;stroke:none"
             d="m 0,0 c 0,-3.313 -2.687,-6 -6,-6 -3.313,0 -6,2.687 -6,6 0,3.313 2.687,6 6,6 3.313,0 6,-2.687 6,-6" /></g><g
           transform="translate(212,122)"
           id="g70"><path
             id="path72"
             style="fill:#cccccc;fill-opacity:1;fill-rule:nonzero;stroke:none"
             d="m 0,0 c 0,-3.313 -2.687,-6 -6,-6 -3.313,0 -6,2.687 -6,6 0,3.313 2.687,6 6,6 3.313,0 6,-2.687 6,-6" /></g><g
           transform="translate(216,145)"
           id="g74"><path
             id="path76"
             style="fill:#b3b3b3;fill-opacity:1;fill-rule:nonzero;stroke:none"
             d="m 0,0 c 0,-3.866 -3.134,-7 -7,-7 -3.866,0 -7,3.134 -7,7 0,3.866 3.134,7 7,7 3.866,0 7,-3.134 7,-7" /></g><g
           transform="translate(40,167.5)"
           id="g78"><path
             id="path80"
             style="fill:#d9d9d9;fill-opacity:1;fill-rule:nonzero;stroke:none"
             d="m 0,0 c -8.547,0 -15.5,-6.953 -15.5,-15.5 0,-8.547 6.953,-15.5 15.5,-15.5 8.547,0 15.5,6.953 15.5,15.5 C 15.5,-6.953 8.547,0 0,0 m 0,-32 c -9.098,0 -16.5,7.402 -16.5,16.5 C -16.5,-6.402 -9.098,1 0,1 9.098,1 16.5,-6.402 16.5,-15.5 16.5,-24.598 9.098,-32 0,-32" /></g><g
           transform="translate(53,152)"
           id="g82"><path
             id="path84"
             style="fill:#cccccc;fill-opacity:1;fill-rule:nonzero;stroke:none"
             d="m 0,0 c 0,-7.18 -5.82,-13 -13,-13 -7.18,0 -13,5.82 -13,13 0,7.18 5.82,13 13,13 C -5.82,13 0,7.18 0,0" /></g><g
           transform="translate(228,157)"
           id="g86"><path
             id="path88"
             style="fill:#b3b3b3;fill-opacity:1;fill-rule:nonzero;stroke:none"
             d="m 0,0 c 0,-3.866 -3.134,-7 -7,-7 -3.866,0 -7,3.134 -7,7 0,3.866 3.134,7 7,7 3.866,0 7,-3.134 7,-7" /></g><g
           transform="translate(46,152)"
           id="g90"><path
             id="path92"
             style="fill:#bfbfbf;fill-opacity:1;fill-rule:nonzero;stroke:none"
             d="m 0,0 c 0,-3.313 -2.687,-6 -6,-6 -3.313,0 -6,2.687 -6,6 0,3.313 2.687,6 6,6 3.313,0 6,-2.687 6,-6" /></g><g
           transform="translate(46,158)"
           id="g94"><path
             id="path96"
             style="fill:#b3b3b3;fill-opacity:1;fill-rule:nonzero;stroke:none"
             d="m 0,0 c 0,3.313 -2.687,6 -6,6 -3.313,0 -6,-2.687 -6,-6 -3.313,0 -6,-2.687 -6,-6 0,-3.313 2.687,-6 6,-6 0,-3.313 2.687,-6 6,-6 3.313,0 6,2.687 6,6 3.313,0 6,2.687 6,6 0,3.313 -2.687,6 -6,6" /></g><g
           transform="translate(31,152)"
           id="g98"><path
             id="path100"
             style="fill:#a6a6a6;fill-opacity:1;fill-rule:nonzero;stroke:none"
             d="M 0,0 C 0,-0.552 0.448,-1 1,-1 1.552,-1 1.552,1 1,1 0.448,1 0,0.552 0,0" /></g><g
           transform="translate(48,151)"
           id="g102"><path
             id="path104"
             style="fill:#a6a6a6;fill-opacity:1;fill-rule:nonzero;stroke:none"
             d="M 0,0 C 0.552,0 1,0.448 1,1 1,1.552 0.552,2 0,2 -0.552,2 -0.552,0 0,0" /></g><g
           transform="translate(40,161)"
           id="g106"><path
             id="path108"
             style="fill:#a6a6a6;fill-opacity:1;fill-rule:nonzero;stroke:none"
             d="m 0,0 c -0.552,0 -1,-0.448 -1,-1 0,-0.552 2,-0.552 2,0 0,0.552 -0.448,1 -1,1" /></g><g
           transform="translate(39,144)"
           id="g110"><path
             id="path112"
             style="fill:#a6a6a6;fill-opacity:1;fill-rule:nonzero;stroke:none"
             d="M 0,0 C 0,-0.552 0.448,-1 1,-1 1.552,-1 2,-0.552 2,0 2,0.552 0,0.552 0,0" /></g><g
           transform="translate(44,152)"
           id="g114"><path
             id="path116"
             style="fill:#a6a6a6;fill-opacity:1;fill-rule:nonzero;stroke:none"
             d="m 0,0 c 0,-2.209 -1.791,-4 -4,-4 -2.209,0 -4,1.791 -4,4 0,2.209 1.791,4 4,4 2.209,0 4,-1.791 4,-4" /></g><g
           transform="translate(54.856,92)"
           id="g118"><path
             id="path120"
             style="fill:#a6a6a6;fill-opacity:1;fill-rule:nonzero;stroke:none"
             d="M 0,0 C 0,0.32 0.252,0.572 0.572,0.572 0.892,0.572 1.144,0.32 1.144,0 1.144,-0.297 0.892,-0.572 0.572,-0.572 0.252,-0.572 0,-0.297 0,0" /></g><g
           transform="translate(52.5684,92)"
           id="g122"><path
             id="path124"
             style="fill:#a6a6a6;fill-opacity:1;fill-rule:nonzero;stroke:none"
             d="M 0,0 C 0,0.32 0.252,0.572 0.572,0.572 0.891,0.572 1.144,0.32 1.144,0 1.144,-0.297 0.891,-0.572 0.572,-0.572 0.252,-0.572 0,-0.297 0,0" /></g><g
           transform="translate(50.2803,92)"
           id="g126"><path
             id="path128"
             style="fill:#a6a6a6;fill-opacity:1;fill-rule:nonzero;stroke:none"
             d="M 0,0 C 0,0.32 0.252,0.572 0.572,0.572 0.892,0.572 1.144,0.32 1.144,0 1.144,-0.297 0.892,-0.572 0.572,-0.572 0.252,-0.572 0,-0.297 0,0" /></g><g
           transform="translate(36.5532,92)"
           id="g130"><path
             id="path132"
             style="fill:#a6a6a6;fill-opacity:1;fill-rule:nonzero;stroke:none"
             d="M 0,0 C 0,0.32 0.252,0.572 0.572,0.572 0.892,0.572 1.144,0.32 1.144,0 1.144,-0.297 0.892,-0.572 0.572,-0.572 0.252,-0.572 0,-0.297 0,0" /></g><g
           transform="translate(34.2881,92)"
           id="g134"><path
             id="path136"
             style="fill:#a6a6a6;fill-opacity:1;fill-rule:nonzero;stroke:none"
             d="M 0,0 C 0,0.32 0.23,0.572 0.549,0.572 0.869,0.572 1.121,0.32 1.121,0 1.121,-0.297 0.869,-0.572 0.549,-0.572 0.23,-0.572 0,-0.297 0,0" /></g><g
           transform="translate(32,92)"
           id="g138"><path
             id="path140"
             style="fill:#a6a6a6;fill-opacity:1;fill-rule:nonzero;stroke:none"
             d="M 0,0 C 0,0.32 0.23,0.572 0.55,0.572 0.869,0.572 1.122,0.32 1.122,0 1.122,-0.297 0.869,-0.572 0.55,-0.572 0.23,-0.572 0,-0.297 0,0" /></g><g
           transform="translate(44,81.1436)"
           id="g142"><path
             id="path144"
             style="fill:#a6a6a6;fill-opacity:1;fill-rule:nonzero;stroke:none"
             d="m 0,0 c 0.321,0 0.572,-0.252 0.572,-0.571 0,-0.32 -0.251,-0.573 -0.572,-0.573 -0.297,0 -0.572,0.253 -0.572,0.573 C -0.572,-0.252 -0.297,0 0,0" /></g><g
           transform="translate(44,83.4316)"
           id="g146"><path
             id="path148"
             style="fill:#a6a6a6;fill-opacity:1;fill-rule:nonzero;stroke:none"
             d="m 0,0 c 0.321,0 0.572,-0.252 0.572,-0.572 0,-0.32 -0.251,-0.572 -0.572,-0.572 -0.297,0 -0.572,0.252 -0.572,0.572 C -0.572,-0.252 -0.297,0 0,0" /></g><g
           transform="translate(44,85.7197)"
           id="g150"><path
             id="path152"
             style="fill:#a6a6a6;fill-opacity:1;fill-rule:nonzero;stroke:none"
             d="m 0,0 c 0.321,0 0.572,-0.253 0.572,-0.572 0,-0.32 -0.251,-0.572 -0.572,-0.572 -0.297,0 -0.572,0.252 -0.572,0.572 C -0.572,-0.253 -0.297,0 0,0" /></g><g
           transform="translate(44,94.5723)"
           id="g154"><path
             id="path156"
             style="fill:#8c8c8c;fill-opacity:1;fill-rule:nonzero;stroke:none"
             d="m 0,0 c 0.321,0 0.572,-0.253 0.572,-0.572 0,-0.32 -0.251,-0.573 -0.572,-0.573 -0.297,0 -0.572,0.253 -0.572,0.573 C -0.572,-0.253 -0.297,0 0,0" /></g><g
           transform="translate(44,90.5723)"
           id="g158"><path
             id="path160"
             style="fill:#8c8c8c;fill-opacity:1;fill-rule:nonzero;stroke:none"
             d="m 0,0 c 0.321,0 0.572,-0.253 0.572,-0.572 0,-0.32 -0.251,-0.573 -0.572,-0.573 -0.297,0 -0.572,0.253 -0.572,0.573 C -0.572,-0.253 -0.297,0 0,0" /></g><g
           transform="translate(46.5718,92)"
           id="g162"><path
             id="path164"
             style="fill:#8c8c8c;fill-opacity:1;fill-rule:nonzero;stroke:none"
             d="m 0,0 c 0,-0.32 -0.252,-0.572 -0.572,-0.572 -0.319,0 -0.572,0.252 -0.572,0.572 0,0.297 0.253,0.572 0.572,0.572 C -0.252,0.572 0,0.297 0,0" /></g><g
           transform="translate(42.5718,92)"
           id="g166"><path
             id="path168"
             style="fill:#8c8c8c;fill-opacity:1;fill-rule:nonzero;stroke:none"
             d="m 0,0 c 0,-0.32 -0.252,-0.572 -0.572,-0.572 -0.319,0 -0.572,0.252 -0.572,0.572 0,0.297 0.253,0.572 0.572,0.572 C -0.252,0.572 0,0.297 0,0" /></g><g
           transform="translate(44,99.4463)"
           id="g170"><path
             id="path172"
             style="fill:#a6a6a6;fill-opacity:1;fill-rule:nonzero;stroke:none"
             d="m 0,0 c 0.321,0 0.572,-0.252 0.572,-0.571 0,-0.32 -0.251,-0.573 -0.572,-0.573 -0.297,0 -0.572,0.253 -0.572,0.573 C -0.572,-0.252 -0.297,0 0,0" /></g><g
           transform="translate(44,101.7119)"
           id="g174"><path
             id="path176"
             style="fill:#a6a6a6;fill-opacity:1;fill-rule:nonzero;stroke:none"
             d="m 0,0 c 0.321,0 0.572,-0.229 0.572,-0.55 0,-0.319 -0.251,-0.571 -0.572,-0.571 -0.297,0 -0.572,0.252 -0.572,0.571 C -0.572,-0.229 -0.297,0 0,0" /></g><g
           transform="translate(44,104)"
           id="g178"><path
             id="path180"
             style="fill:#a6a6a6;fill-opacity:1;fill-rule:nonzero;stroke:none"
             d="m 0,0 c 0.321,0 0.572,-0.23 0.572,-0.55 0,-0.319 -0.251,-0.571 -0.572,-0.571 -0.297,0 -0.572,0.252 -0.572,0.571 C -0.572,-0.23 -0.297,0 0,0" /></g><g
           transform="translate(51.6836,99.6777)"
           id="g182"><path
             id="path184"
             style="fill:#a6a6a6;fill-opacity:1;fill-rule:nonzero;stroke:none"
             d="m 0,0 c -0.227,0.227 -0.226,0.583 0,0.809 0.226,0.225 0.582,0.226 0.809,0 C 1.019,0.599 1.035,0.226 0.809,0 0.583,-0.227 0.21,-0.21 0,0" /></g><g
           transform="translate(50.0659,98.0596)"
           id="g186"><path
             id="path188"
             style="fill:#a6a6a6;fill-opacity:1;fill-rule:nonzero;stroke:none"
             d="m 0,0 c -0.227,0.227 -0.226,0.583 0,0.809 0.226,0.226 0.582,0.227 0.809,0 C 1.019,0.599 1.035,0.227 0.809,0 0.583,-0.226 0.21,-0.21 0,0" /></g><g
           transform="translate(48.4482,96.4424)"
           id="g190"><path
             id="path192"
             style="fill:#a6a6a6;fill-opacity:1;fill-rule:nonzero;stroke:none"
             d="m 0,0 c -0.227,0.227 -0.226,0.583 0,0.809 0.226,0.225 0.582,0.226 0.809,0 C 1.019,0.599 1.035,0.226 0.809,0 0.583,-0.227 0.21,-0.211 0,0" /></g><g
           transform="translate(38.7417,86.7354)"
           id="g194"><path
             id="path196"
             style="fill:#a6a6a6;fill-opacity:1;fill-rule:nonzero;stroke:none"
             d="m 0,0 c -0.227,0.227 -0.226,0.583 0,0.809 0.226,0.226 0.582,0.227 0.809,0 C 1.019,0.599 1.035,0.226 0.809,0 0.583,-0.226 0.21,-0.21 0,0" /></g><g
           transform="translate(37.1396,85.1338)"
           id="g198"><path
             id="path200"
             style="fill:#a6a6a6;fill-opacity:1;fill-rule:nonzero;stroke:none"
             d="m 0,0 c -0.227,0.227 -0.242,0.567 -0.016,0.793 0.226,0.226 0.582,0.227 0.809,0 0.21,-0.21 0.226,-0.583 0,-0.809 C 0.567,-0.242 0.21,-0.21 0,0" /></g><g
           transform="translate(35.522,83.5156)"
           id="g202"><path
             id="path204"
             style="fill:#a6a6a6;fill-opacity:1;fill-rule:nonzero;stroke:none"
             d="m 0,0 c -0.227,0.227 -0.242,0.567 -0.016,0.793 0.226,0.227 0.582,0.227 0.809,0 0.21,-0.21 0.226,-0.583 0,-0.809 C 0.567,-0.241 0.21,-0.21 0,0" /></g><g
           transform="translate(51.6772,84.3164)"
           id="g206"><path
             id="path208"
             style="fill:#a6a6a6;fill-opacity:1;fill-rule:nonzero;stroke:none"
             d="m 0,0 c 0.227,0.227 0.583,0.226 0.809,0 0.226,-0.226 0.227,-0.582 0,-0.809 C 0.599,-1.019 0.226,-1.035 0,-0.809 -0.226,-0.583 -0.21,-0.21 0,0" /></g><g
           transform="translate(50.0596,85.9346)"
           id="g210"><path
             id="path212"
             style="fill:#a6a6a6;fill-opacity:1;fill-rule:nonzero;stroke:none"
             d="m 0,0 c 0.227,0.227 0.583,0.226 0.809,0 0.226,-0.227 0.227,-0.583 0,-0.81 C 0.599,-1.02 0.226,-1.035 0,-0.81 -0.226,-0.583 -0.21,-0.211 0,0" /></g><g
           transform="translate(48.4419,87.5518)"
           id="g214"><path
             id="path216"
             style="fill:#a6a6a6;fill-opacity:1;fill-rule:nonzero;stroke:none"
             d="m 0,0 c 0.227,0.227 0.583,0.227 0.809,0 0.226,-0.226 0.227,-0.582 0,-0.809 C 0.599,-1.019 0.226,-1.034 0,-0.809 -0.226,-0.583 -0.21,-0.21 0,0" /></g><g
           transform="translate(38.7354,97.2588)"
           id="g218"><path
             id="path220"
             style="fill:#a6a6a6;fill-opacity:1;fill-rule:nonzero;stroke:none"
             d="m 0,0 c 0.227,0.227 0.583,0.226 0.809,0 0.226,-0.227 0.227,-0.582 0,-0.81 C 0.599,-1.02 0.226,-1.035 0,-0.81 -0.226,-0.583 -0.21,-0.211 0,0" /></g><g
           transform="translate(37.1338,98.8604)"
           id="g222"><path
             id="path224"
             style="fill:#a6a6a6;fill-opacity:1;fill-rule:nonzero;stroke:none"
             d="m 0,0 c 0.227,0.227 0.567,0.242 0.793,0.016 0.226,-0.226 0.227,-0.582 0,-0.809 -0.21,-0.21 -0.583,-0.226 -0.809,0 C -0.242,-0.567 -0.21,-0.21 0,0" /></g><g
           transform="translate(35.5156,100.4785)"
           id="g226"><path
             id="path228"
             style="fill:#a6a6a6;fill-opacity:1;fill-rule:nonzero;stroke:none"
             d="m 0,0 c 0.227,0.227 0.567,0.241 0.793,0.016 0.226,-0.227 0.227,-0.582 0,-0.809 -0.21,-0.211 -0.583,-0.227 -0.809,0 C -0.242,-0.567 -0.21,-0.211 0,0" /></g><g
           transform="translate(48.1597,102.0293)"
           id="g230"><path
             id="path232"
             style="fill:#a6a6a6;fill-opacity:1;fill-rule:nonzero;stroke:none"
             d="M 0,0 C -0.296,0.123 -0.432,0.452 -0.31,0.747 -0.187,1.043 0.142,1.18 0.437,1.057 0.712,0.943 0.87,0.604 0.747,0.31 0.625,0.015 0.274,-0.113 0,0" /></g><g
           transform="translate(47.2842,99.916)"
           id="g234"><path
             id="path236"
             style="fill:#a6a6a6;fill-opacity:1;fill-rule:nonzero;stroke:none"
             d="M 0,0 C -0.296,0.122 -0.432,0.452 -0.31,0.747 -0.187,1.042 0.142,1.18 0.437,1.057 0.712,0.943 0.869,0.604 0.747,0.31 0.625,0.014 0.274,-0.114 0,0" /></g><g
           transform="translate(46.4087,97.8018)"
           id="g238"><path
             id="path240"
             style="fill:#a6a6a6;fill-opacity:1;fill-rule:nonzero;stroke:none"
             d="M 0,0 C -0.296,0.123 -0.432,0.452 -0.31,0.748 -0.187,1.043 0.141,1.18 0.437,1.058 0.712,0.943 0.869,0.605 0.747,0.31 0.625,0.015 0.274,-0.113 0,0" /></g><g
           transform="translate(45.5327,95.6885)"
           id="g242"><path
             id="path244"
             style="fill:#8c8c8c;fill-opacity:1;fill-rule:nonzero;stroke:none"
             d="M 0,0 C -0.296,0.123 -0.432,0.452 -0.309,0.747 -0.187,1.042 0.142,1.18 0.438,1.057 0.712,0.943 0.87,0.604 0.748,0.31 0.625,0.015 0.275,-0.114 0,0" /></g><g
           transform="translate(42.0308,87.2334)"
           id="g246"><path
             id="path248"
             style="fill:#8c8c8c;fill-opacity:1;fill-rule:nonzero;stroke:none"
             d="M 0,0 C -0.296,0.123 -0.432,0.452 -0.31,0.747 -0.187,1.043 0.142,1.18 0.438,1.057 0.712,0.943 0.87,0.604 0.748,0.31 0.625,0.015 0.274,-0.113 0,0" /></g><g
           transform="translate(41.1553,85.1201)"
           id="g250"><path
             id="path252"
             style="fill:#a6a6a6;fill-opacity:1;fill-rule:nonzero;stroke:none"
             d="M 0,0 C -0.296,0.122 -0.432,0.452 -0.31,0.747 -0.187,1.042 0.142,1.18 0.438,1.057 0.712,0.943 0.87,0.604 0.748,0.31 0.625,0.015 0.274,-0.114 0,0" /></g><g
           transform="translate(40.2886,83.0273)"
           id="g254"><path
             id="path256"
             style="fill:#a6a6a6;fill-opacity:1;fill-rule:nonzero;stroke:none"
             d="M 0,0 C -0.296,0.122 -0.44,0.431 -0.318,0.727 -0.196,1.021 0.133,1.158 0.429,1.036 0.704,0.922 0.861,0.584 0.739,0.288 0.616,-0.007 0.274,-0.114 0,0" /></g><g
           transform="translate(39.4131,80.9131)"
           id="g258"><path
             id="path260"
             style="fill:#a6a6a6;fill-opacity:1;fill-rule:nonzero;stroke:none"
             d="M 0,0 C -0.296,0.123 -0.44,0.432 -0.318,0.727 -0.196,1.021 0.133,1.159 0.429,1.036 0.704,0.923 0.861,0.584 0.739,0.289 0.616,-0.006 0.274,-0.113 0,0" /></g><g
           transform="translate(54.0293,87.8408)"
           id="g262"><path
             id="path264"
             style="fill:#a6a6a6;fill-opacity:1;fill-rule:nonzero;stroke:none"
             d="M 0,0 C 0.123,0.296 0.452,0.432 0.748,0.31 1.042,0.187 1.18,-0.142 1.057,-0.438 0.943,-0.713 0.605,-0.87 0.31,-0.748 0.015,-0.625 -0.114,-0.274 0,0" /></g><g
           transform="translate(51.916,88.7158)"
           id="g266"><path
             id="path268"
             style="fill:#a6a6a6;fill-opacity:1;fill-rule:nonzero;stroke:none"
             d="M 0,0 C 0.123,0.297 0.452,0.432 0.747,0.31 1.042,0.187 1.179,-0.142 1.057,-0.437 0.943,-0.712 0.604,-0.869 0.309,-0.747 0.014,-0.625 -0.114,-0.274 0,0" /></g><g
           transform="translate(49.8022,89.5918)"
           id="g270"><path
             id="path272"
             style="fill:#a6a6a6;fill-opacity:1;fill-rule:nonzero;stroke:none"
             d="M 0,0 C 0.123,0.296 0.452,0.432 0.747,0.31 1.042,0.187 1.179,-0.142 1.057,-0.438 0.943,-0.713 0.604,-0.87 0.31,-0.748 0.014,-0.625 -0.114,-0.274 0,0" /></g><g
           transform="translate(47.6885,90.4668)"
           id="g274"><path
             id="path276"
             style="fill:#8c8c8c;fill-opacity:1;fill-rule:nonzero;stroke:none"
             d="M 0,0 C 0.123,0.297 0.452,0.432 0.747,0.31 1.042,0.187 1.18,-0.142 1.057,-0.437 0.943,-0.712 0.604,-0.869 0.31,-0.747 0.014,-0.625 -0.114,-0.274 0,0" /></g><g
           transform="translate(39.2334,93.9688)"
           id="g278"><path
             id="path280"
             style="fill:#8c8c8c;fill-opacity:1;fill-rule:nonzero;stroke:none"
             d="M 0,0 C 0.123,0.297 0.452,0.433 0.748,0.31 1.042,0.187 1.18,-0.142 1.057,-0.437 0.943,-0.712 0.605,-0.869 0.31,-0.747 0.015,-0.625 -0.113,-0.274 0,0" /></g><g
           transform="translate(37.1201,94.8447)"
           id="g282"><path
             id="path284"
             style="fill:#a6a6a6;fill-opacity:1;fill-rule:nonzero;stroke:none"
             d="M 0,0 C 0.123,0.296 0.452,0.432 0.747,0.31 1.042,0.187 1.179,-0.142 1.057,-0.437 0.943,-0.712 0.604,-0.87 0.31,-0.747 0.014,-0.625 -0.114,-0.274 0,0" /></g><g
           transform="translate(35.0269,95.7119)"
           id="g286"><path
             id="path288"
             style="fill:#a6a6a6;fill-opacity:1;fill-rule:nonzero;stroke:none"
             d="M 0,0 C 0.123,0.296 0.432,0.44 0.727,0.317 1.022,0.195 1.159,-0.134 1.036,-0.43 0.922,-0.704 0.584,-0.861 0.289,-0.739 -0.006,-0.617 -0.114,-0.274 0,0" /></g><g
           transform="translate(32.9131,96.5869)"
           id="g290"><path
             id="path292"
             style="fill:#a6a6a6;fill-opacity:1;fill-rule:nonzero;stroke:none"
             d="M 0,0 C 0.123,0.297 0.432,0.44 0.727,0.318 1.022,0.196 1.159,-0.133 1.036,-0.429 0.923,-0.703 0.584,-0.86 0.289,-0.738 -0.006,-0.616 -0.114,-0.274 0,0" /></g><g
           transform="translate(54.0332,96.1563)"
           id="g294"><path
             id="path296"
             style="fill:#a6a6a6;fill-opacity:1;fill-rule:nonzero;stroke:none"
             d="M 0,0 C -0.123,0.297 0.015,0.625 0.31,0.748 0.605,0.87 0.934,0.734 1.057,0.438 1.17,0.164 1.042,-0.187 0.748,-0.31 0.452,-0.432 0.114,-0.274 0,0" /></g><g
           transform="translate(51.9194,95.2813)"
           id="g298"><path
             id="path300"
             style="fill:#a6a6a6;fill-opacity:1;fill-rule:nonzero;stroke:none"
             d="M 0,0 C -0.123,0.296 0.015,0.625 0.31,0.747 0.605,0.869 0.934,0.734 1.057,0.437 1.171,0.163 1.042,-0.187 0.748,-0.31 0.452,-0.432 0.114,-0.274 0,0" /></g><g
           transform="translate(49.8057,94.4053)"
           id="g302"><path
             id="path304"
             style="fill:#a6a6a6;fill-opacity:1;fill-rule:nonzero;stroke:none"
             d="M 0,0 C -0.123,0.297 0.015,0.625 0.31,0.748 0.605,0.87 0.935,0.734 1.057,0.438 1.171,0.164 1.042,-0.187 0.748,-0.31 0.452,-0.432 0.114,-0.274 0,0" /></g><g
           transform="translate(47.6924,93.5303)"
           id="g306"><path
             id="path308"
             style="fill:#8c8c8c;fill-opacity:1;fill-rule:nonzero;stroke:none"
             d="M 0,0 C -0.123,0.296 0.014,0.625 0.31,0.747 0.604,0.869 0.934,0.733 1.057,0.437 1.17,0.163 1.042,-0.187 0.747,-0.31 0.452,-0.432 0.114,-0.274 0,0" /></g><g
           transform="translate(39.2373,90.0283)"
           id="g310"><path
             id="path312"
             style="fill:#8c8c8c;fill-opacity:1;fill-rule:nonzero;stroke:none"
             d="M 0,0 C -0.123,0.296 0.015,0.625 0.31,0.747 0.605,0.869 0.934,0.733 1.057,0.437 1.171,0.163 1.042,-0.187 0.748,-0.31 0.452,-0.432 0.114,-0.274 0,0" /></g><g
           transform="translate(37.1235,89.1523)"
           id="g314"><path
             id="path316"
             style="fill:#a6a6a6;fill-opacity:1;fill-rule:nonzero;stroke:none"
             d="M 0,0 C -0.123,0.297 0.015,0.625 0.31,0.747 0.605,0.87 0.935,0.734 1.057,0.437 1.171,0.163 1.042,-0.187 0.748,-0.31 0.452,-0.432 0.114,-0.274 0,0" /></g><g
           transform="translate(35.0308,88.2852)"
           id="g318"><path
             id="path320"
             style="fill:#a6a6a6;fill-opacity:1;fill-rule:nonzero;stroke:none"
             d="M 0,0 C -0.123,0.297 -0.006,0.617 0.289,0.739 0.584,0.861 0.914,0.726 1.036,0.43 1.15,0.155 1.022,-0.195 0.727,-0.317 0.432,-0.44 0.114,-0.274 0,0" /></g><g
           transform="translate(32.917,87.4102)"
           id="g322"><path
             id="path324"
             style="fill:#a6a6a6;fill-opacity:1;fill-rule:nonzero;stroke:none"
             d="M 0,0 C -0.123,0.296 -0.006,0.616 0.289,0.738 0.584,0.861 0.914,0.726 1.036,0.429 1.15,0.154 1.022,-0.196 0.727,-0.318 0.432,-0.44 0.114,-0.274 0,0" /></g><g
           transform="translate(48.1567,81.9668)"
           id="g326"><path
             id="path328"
             style="fill:#a6a6a6;fill-opacity:1;fill-rule:nonzero;stroke:none"
             d="M 0,0 C 0.296,0.123 0.625,-0.015 0.747,-0.31 0.87,-0.604 0.734,-0.935 0.437,-1.057 0.163,-1.171 -0.187,-1.043 -0.31,-0.747 -0.432,-0.452 -0.274,-0.114 0,0" /></g><g
           transform="translate(47.2813,84.0801)"
           id="g330"><path
             id="path332"
             style="fill:#a6a6a6;fill-opacity:1;fill-rule:nonzero;stroke:none"
             d="M 0,0 C 0.296,0.123 0.625,-0.014 0.747,-0.31 0.87,-0.604 0.734,-0.934 0.437,-1.057 0.163,-1.17 -0.187,-1.042 -0.31,-0.747 -0.432,-0.452 -0.274,-0.113 0,0" /></g><g
           transform="translate(46.4058,86.1943)"
           id="g334"><path
             id="path336"
             style="fill:#a6a6a6;fill-opacity:1;fill-rule:nonzero;stroke:none"
             d="M 0,0 C 0.296,0.122 0.625,-0.015 0.747,-0.31 0.87,-0.604 0.734,-0.935 0.437,-1.057 0.163,-1.171 -0.187,-1.043 -0.31,-0.747 -0.432,-0.452 -0.274,-0.114 0,0" /></g><g
           transform="translate(45.5303,88.3076)"
           id="g338"><path
             id="path340"
             style="fill:#8c8c8c;fill-opacity:1;fill-rule:nonzero;stroke:none"
             d="M 0,0 C 0.296,0.123 0.625,-0.015 0.747,-0.31 0.87,-0.604 0.734,-0.934 0.437,-1.057 0.163,-1.17 -0.187,-1.042 -0.31,-0.747 -0.432,-0.452 -0.275,-0.113 0,0" /></g><g
           transform="translate(42.0278,96.7627)"
           id="g342"><path
             id="path344"
             style="fill:#8c8c8c;fill-opacity:1;fill-rule:nonzero;stroke:none"
             d="M 0,0 C 0.296,0.122 0.625,-0.015 0.748,-0.31 0.87,-0.604 0.734,-0.935 0.438,-1.057 0.164,-1.171 -0.187,-1.043 -0.309,-0.747 -0.432,-0.452 -0.274,-0.114 0,0" /></g><g
           transform="translate(41.1523,98.876)"
           id="g346"><path
             id="path348"
             style="fill:#a6a6a6;fill-opacity:1;fill-rule:nonzero;stroke:none"
             d="M 0,0 C 0.296,0.123 0.625,-0.014 0.748,-0.31 0.87,-0.604 0.734,-0.934 0.438,-1.057 0.164,-1.17 -0.187,-1.042 -0.31,-0.747 -0.432,-0.452 -0.274,-0.113 0,0" /></g><g
           transform="translate(40.2856,100.9697)"
           id="g350"><path
             id="path352"
             style="fill:#a6a6a6;fill-opacity:1;fill-rule:nonzero;stroke:none"
             d="M 0,0 C 0.296,0.122 0.616,0.006 0.739,-0.289 0.861,-0.585 0.726,-0.914 0.429,-1.037 0.155,-1.15 -0.196,-1.022 -0.318,-0.728 -0.44,-0.432 -0.274,-0.114 0,0" /></g><g
           transform="translate(39.4102,103.083)"
           id="g354"><path
             id="path356"
             style="fill:#a6a6a6;fill-opacity:1;fill-rule:nonzero;stroke:none"
             d="M 0,0 C 0.296,0.123 0.616,0.006 0.739,-0.289 0.861,-0.584 0.725,-0.913 0.429,-1.036 0.155,-1.15 -0.196,-1.021 -0.318,-0.727 -0.44,-0.432 -0.274,-0.113 0,0" /></g><g
           transform="translate(222.8564,92)"
           id="g358"><path
             id="path360"
             style="fill:#a6a6a6;fill-opacity:1;fill-rule:nonzero;stroke:none"
             d="M 0,0 C 0,0.32 0.252,0.572 0.571,0.572 0.891,0.572 1.144,0.32 1.144,0 1.144,-0.297 0.891,-0.572 0.571,-0.572 0.252,-0.572 0,-0.297 0,0" /></g><g
           transform="translate(220.5684,92)"
           id="g362"><path
             id="path364"
             style="fill:#a6a6a6;fill-opacity:1;fill-rule:nonzero;stroke:none"
             d="M 0,0 C 0,0.32 0.252,0.572 0.572,0.572 0.892,0.572 1.144,0.32 1.144,0 1.144,-0.297 0.892,-0.572 0.572,-0.572 0.252,-0.572 0,-0.297 0,0" /></g><g
           transform="translate(218.2803,92)"
           id="g366"><path
             id="path368"
             style="fill:#a6a6a6;fill-opacity:1;fill-rule:nonzero;stroke:none"
             d="M 0,0 C 0,0.32 0.253,0.572 0.572,0.572 0.892,0.572 1.144,0.32 1.144,0 1.144,-0.297 0.892,-0.572 0.572,-0.572 0.253,-0.572 0,-0.297 0,0" /></g><g
           transform="translate(204.5537,92)"
           id="g370"><path
             id="path372"
             style="fill:#a6a6a6;fill-opacity:1;fill-rule:nonzero;stroke:none"
             d="M 0,0 C 0,0.32 0.252,0.572 0.571,0.572 0.891,0.572 1.144,0.32 1.144,0 1.144,-0.297 0.891,-0.572 0.571,-0.572 0.252,-0.572 0,-0.297 0,0" /></g><g
           transform="translate(202.2881,92)"
           id="g374"><path
             id="path376"
             style="fill:#a6a6a6;fill-opacity:1;fill-rule:nonzero;stroke:none"
             d="M 0,0 C 0,0.32 0.229,0.572 0.55,0.572 0.869,0.572 1.121,0.32 1.121,0 1.121,-0.297 0.869,-0.572 0.55,-0.572 0.229,-0.572 0,-0.297 0,0" /></g><g
           transform="translate(200,92)"
           id="g378"><path
             id="path380"
             style="fill:#a6a6a6;fill-opacity:1;fill-rule:nonzero;stroke:none"
             d="M 0,0 C 0,0.32 0.23,0.572 0.55,0.572 0.869,0.572 1.121,0.32 1.121,0 1.121,-0.297 0.869,-0.572 0.55,-0.572 0.23,-0.572 0,-0.297 0,0" /></g><g
           transform="translate(212,81.1436)"
           id="g382"><path
             id="path384"
             style="fill:#a6a6a6;fill-opacity:1;fill-rule:nonzero;stroke:none"
             d="m 0,0 c 0.32,0 0.572,-0.252 0.572,-0.571 0,-0.32 -0.252,-0.573 -0.572,-0.573 -0.297,0 -0.572,0.253 -0.572,0.573 C -0.572,-0.252 -0.297,0 0,0" /></g><g
           transform="translate(212,83.4316)"
           id="g386"><path
             id="path388"
             style="fill:#a6a6a6;fill-opacity:1;fill-rule:nonzero;stroke:none"
             d="m 0,0 c 0.32,0 0.572,-0.252 0.572,-0.572 0,-0.32 -0.252,-0.572 -0.572,-0.572 -0.297,0 -0.572,0.252 -0.572,0.572 C -0.572,-0.252 -0.297,0 0,0" /></g><g
           transform="translate(212,85.7197)"
           id="g390"><path
             id="path392"
             style="fill:#a6a6a6;fill-opacity:1;fill-rule:nonzero;stroke:none"
             d="m 0,0 c 0.32,0 0.572,-0.253 0.572,-0.572 0,-0.32 -0.252,-0.572 -0.572,-0.572 -0.297,0 -0.572,0.252 -0.572,0.572 C -0.572,-0.253 -0.297,0 0,0" /></g><g
           transform="translate(212,94.5723)"
           id="g394"><path
             id="path396"
             style="fill:#8c8c8c;fill-opacity:1;fill-rule:nonzero;stroke:none"
             d="m 0,0 c 0.32,0 0.572,-0.253 0.572,-0.572 0,-0.32 -0.252,-0.573 -0.572,-0.573 -0.297,0 -0.572,0.253 -0.572,0.573 C -0.572,-0.253 -0.297,0 0,0" /></g><g
           transform="translate(212,90.5723)"
           id="g398"><path
             id="path400"
             style="fill:#8c8c8c;fill-opacity:1;fill-rule:nonzero;stroke:none"
             d="m 0,0 c 0.32,0 0.572,-0.253 0.572,-0.572 0,-0.32 -0.252,-0.573 -0.572,-0.573 -0.297,0 -0.572,0.253 -0.572,0.573 C -0.572,-0.253 -0.297,0 0,0" /></g><g
           transform="translate(214.5723,92)"
           id="g402"><path
             id="path404"
             style="fill:#8c8c8c;fill-opacity:1;fill-rule:nonzero;stroke:none"
             d="m 0,0 c 0,-0.32 -0.253,-0.572 -0.572,-0.572 -0.32,0 -0.573,0.252 -0.573,0.572 0,0.297 0.253,0.572 0.573,0.572 C -0.253,0.572 0,0.297 0,0" /></g><g
           transform="translate(210.5723,92)"
           id="g406"><path
             id="path408"
             style="fill:#8c8c8c;fill-opacity:1;fill-rule:nonzero;stroke:none"
             d="m 0,0 c 0,-0.32 -0.253,-0.572 -0.572,-0.572 -0.32,0 -0.573,0.252 -0.573,0.572 0,0.297 0.253,0.572 0.573,0.572 C -0.253,0.572 0,0.297 0,0" /></g><g
           transform="translate(212,99.4463)"
           id="g410"><path
             id="path412"
             style="fill:#a6a6a6;fill-opacity:1;fill-rule:nonzero;stroke:none"
             d="m 0,0 c 0.32,0 0.572,-0.252 0.572,-0.571 0,-0.32 -0.252,-0.573 -0.572,-0.573 -0.297,0 -0.572,0.253 -0.572,0.573 C -0.572,-0.252 -0.297,0 0,0" /></g><g
           transform="translate(212,101.7119)"
           id="g414"><path
             id="path416"
             style="fill:#a6a6a6;fill-opacity:1;fill-rule:nonzero;stroke:none"
             d="M 0,0 C 0.32,0 0.572,-0.229 0.572,-0.55 0.572,-0.869 0.32,-1.121 0,-1.121 c -0.297,0 -0.572,0.252 -0.572,0.571 C -0.572,-0.229 -0.297,0 0,0" /></g><g
           transform="translate(212,104)"
           id="g418"><path
             id="path420"
             style="fill:#a6a6a6;fill-opacity:1;fill-rule:nonzero;stroke:none"
             d="M 0,0 C 0.32,0 0.572,-0.23 0.572,-0.55 0.572,-0.869 0.32,-1.121 0,-1.121 c -0.297,0 -0.572,0.252 -0.572,0.571 C -0.572,-0.23 -0.297,0 0,0" /></g><g
           transform="translate(219.6836,99.6777)"
           id="g422"><path
             id="path424"
             style="fill:#a6a6a6;fill-opacity:1;fill-rule:nonzero;stroke:none"
             d="m 0,0 c -0.227,0.227 -0.226,0.583 0,0.809 0.226,0.225 0.582,0.226 0.809,0 C 1.019,0.599 1.035,0.226 0.809,0 0.583,-0.227 0.21,-0.21 0,0" /></g><g
           transform="translate(218.0654,98.0596)"
           id="g426"><path
             id="path428"
             style="fill:#a6a6a6;fill-opacity:1;fill-rule:nonzero;stroke:none"
             d="m 0,0 c -0.227,0.227 -0.226,0.583 0,0.809 0.227,0.226 0.583,0.227 0.81,0 C 1.02,0.599 1.035,0.227 0.81,0 0.583,-0.226 0.211,-0.21 0,0" /></g><g
           transform="translate(216.4482,96.4424)"
           id="g430"><path
             id="path432"
             style="fill:#a6a6a6;fill-opacity:1;fill-rule:nonzero;stroke:none"
             d="m 0,0 c -0.227,0.227 -0.227,0.583 0,0.809 0.226,0.225 0.582,0.226 0.809,0 C 1.019,0.599 1.034,0.226 0.809,0 0.583,-0.227 0.21,-0.211 0,0" /></g><g
           transform="translate(206.7412,86.7354)"
           id="g434"><path
             id="path436"
             style="fill:#a6a6a6;fill-opacity:1;fill-rule:nonzero;stroke:none"
             d="m 0,0 c -0.227,0.227 -0.226,0.583 0,0.809 0.227,0.226 0.582,0.227 0.81,0 C 1.02,0.599 1.035,0.226 0.81,0 0.583,-0.226 0.211,-0.21 0,0" /></g><g
           transform="translate(205.1396,85.1338)"
           id="g438"><path
             id="path440"
             style="fill:#a6a6a6;fill-opacity:1;fill-rule:nonzero;stroke:none"
             d="m 0,0 c -0.227,0.227 -0.242,0.567 -0.016,0.793 0.226,0.226 0.582,0.227 0.809,0 0.21,-0.21 0.226,-0.583 0,-0.809 C 0.567,-0.242 0.21,-0.21 0,0" /></g><g
           transform="translate(203.5215,83.5156)"
           id="g442"><path
             id="path444"
             style="fill:#a6a6a6;fill-opacity:1;fill-rule:nonzero;stroke:none"
             d="m 0,0 c -0.227,0.227 -0.241,0.567 -0.016,0.793 0.227,0.227 0.582,0.227 0.809,0 0.211,-0.21 0.227,-0.583 0,-0.809 C 0.567,-0.241 0.211,-0.21 0,0" /></g><g
           transform="translate(219.6777,84.3164)"
           id="g446"><path
             id="path448"
             style="fill:#a6a6a6;fill-opacity:1;fill-rule:nonzero;stroke:none"
             d="m 0,0 c 0.227,0.227 0.583,0.226 0.809,0 0.225,-0.226 0.226,-0.582 0,-0.809 C 0.599,-1.019 0.226,-1.035 0,-0.809 -0.227,-0.583 -0.21,-0.21 0,0" /></g><g
           transform="translate(218.0596,85.9346)"
           id="g450"><path
             id="path452"
             style="fill:#a6a6a6;fill-opacity:1;fill-rule:nonzero;stroke:none"
             d="m 0,0 c 0.227,0.227 0.583,0.226 0.809,0 0.226,-0.227 0.227,-0.583 0,-0.81 C 0.599,-1.02 0.227,-1.035 0,-0.81 -0.226,-0.583 -0.21,-0.211 0,0" /></g><g
           transform="translate(216.4424,87.5518)"
           id="g454"><path
             id="path456"
             style="fill:#a6a6a6;fill-opacity:1;fill-rule:nonzero;stroke:none"
             d="m 0,0 c 0.227,0.227 0.583,0.227 0.809,0 0.225,-0.226 0.226,-0.582 0,-0.809 C 0.599,-1.019 0.226,-1.034 0,-0.809 -0.227,-0.583 -0.211,-0.21 0,0" /></g><g
           transform="translate(206.7354,97.2588)"
           id="g458"><path
             id="path460"
             style="fill:#a6a6a6;fill-opacity:1;fill-rule:nonzero;stroke:none"
             d="m 0,0 c 0.227,0.227 0.583,0.226 0.809,0 0.226,-0.227 0.227,-0.582 0,-0.81 C 0.599,-1.02 0.226,-1.035 0,-0.81 -0.226,-0.583 -0.21,-0.211 0,0" /></g><g
           transform="translate(205.1338,98.8604)"
           id="g462"><path
             id="path464"
             style="fill:#a6a6a6;fill-opacity:1;fill-rule:nonzero;stroke:none"
             d="m 0,0 c 0.227,0.227 0.567,0.242 0.793,0.016 0.226,-0.226 0.227,-0.582 0,-0.809 -0.21,-0.21 -0.583,-0.226 -0.809,0 C -0.242,-0.567 -0.21,-0.21 0,0" /></g><g
           transform="translate(203.5156,100.4785)"
           id="g466"><path
             id="path468"
             style="fill:#a6a6a6;fill-opacity:1;fill-rule:nonzero;stroke:none"
             d="m 0,0 c 0.227,0.227 0.567,0.241 0.793,0.016 0.227,-0.227 0.227,-0.582 0,-0.809 -0.21,-0.211 -0.583,-0.227 -0.809,0 C -0.241,-0.567 -0.21,-0.211 0,0" /></g><g
           transform="translate(216.1592,102.0293)"
           id="g470"><path
             id="path472"
             style="fill:#a6a6a6;fill-opacity:1;fill-rule:nonzero;stroke:none"
             d="M 0,0 C -0.296,0.123 -0.432,0.452 -0.31,0.747 -0.187,1.043 0.142,1.18 0.438,1.057 0.713,0.943 0.87,0.604 0.748,0.31 0.625,0.015 0.274,-0.113 0,0" /></g><g
           transform="translate(215.2842,99.916)"
           id="g474"><path
             id="path476"
             style="fill:#a6a6a6;fill-opacity:1;fill-rule:nonzero;stroke:none"
             d="M 0,0 C -0.297,0.122 -0.432,0.452 -0.31,0.747 -0.187,1.042 0.142,1.18 0.437,1.057 0.712,0.943 0.869,0.604 0.747,0.31 0.625,0.014 0.274,-0.114 0,0" /></g><g
           transform="translate(214.4082,97.8018)"
           id="g478"><path
             id="path480"
             style="fill:#a6a6a6;fill-opacity:1;fill-rule:nonzero;stroke:none"
             d="M 0,0 C -0.296,0.123 -0.432,0.452 -0.31,0.748 -0.187,1.043 0.142,1.18 0.438,1.058 0.713,0.943 0.87,0.605 0.748,0.31 0.625,0.015 0.274,-0.113 0,0" /></g><g
           transform="translate(213.5332,95.6885)"
           id="g482"><path
             id="path484"
             style="fill:#8c8c8c;fill-opacity:1;fill-rule:nonzero;stroke:none"
             d="M 0,0 C -0.297,0.123 -0.432,0.452 -0.31,0.747 -0.187,1.042 0.142,1.18 0.437,1.057 0.712,0.943 0.869,0.604 0.747,0.31 0.625,0.015 0.274,-0.114 0,0" /></g><g
           transform="translate(210.0312,87.2334)"
           id="g486"><path
             id="path488"
             style="fill:#8c8c8c;fill-opacity:1;fill-rule:nonzero;stroke:none"
             d="M 0,0 C -0.297,0.123 -0.433,0.452 -0.31,0.747 -0.187,1.043 0.142,1.18 0.437,1.057 0.712,0.943 0.869,0.604 0.747,0.31 0.625,0.015 0.274,-0.113 0,0" /></g><g
           transform="translate(209.1553,85.1201)"
           id="g490"><path
             id="path492"
             style="fill:#a6a6a6;fill-opacity:1;fill-rule:nonzero;stroke:none"
             d="M 0,0 C -0.296,0.122 -0.432,0.452 -0.31,0.747 -0.187,1.042 0.142,1.18 0.437,1.057 0.712,0.943 0.87,0.604 0.747,0.31 0.625,0.015 0.274,-0.114 0,0" /></g><g
           transform="translate(208.2881,83.0273)"
           id="g494"><path
             id="path496"
             style="fill:#a6a6a6;fill-opacity:1;fill-rule:nonzero;stroke:none"
             d="M 0,0 C -0.296,0.122 -0.44,0.431 -0.317,0.727 -0.195,1.021 0.134,1.158 0.43,1.036 0.704,0.922 0.861,0.584 0.739,0.288 0.617,-0.007 0.274,-0.114 0,0" /></g><g
           transform="translate(207.4131,80.9131)"
           id="g498"><path
             id="path500"
             style="fill:#a6a6a6;fill-opacity:1;fill-rule:nonzero;stroke:none"
             d="M 0,0 C -0.297,0.123 -0.44,0.432 -0.318,0.727 -0.196,1.021 0.133,1.159 0.429,1.036 0.703,0.923 0.86,0.584 0.738,0.289 0.616,-0.006 0.274,-0.113 0,0" /></g><g
           transform="translate(222.0293,87.8408)"
           id="g502"><path
             id="path504"
             style="fill:#a6a6a6;fill-opacity:1;fill-rule:nonzero;stroke:none"
             d="M 0,0 C 0.123,0.296 0.452,0.432 0.747,0.31 1.043,0.187 1.18,-0.142 1.057,-0.438 0.943,-0.713 0.604,-0.87 0.31,-0.748 0.015,-0.625 -0.113,-0.274 0,0" /></g><g
           transform="translate(219.916,88.7158)"
           id="g506"><path
             id="path508"
             style="fill:#a6a6a6;fill-opacity:1;fill-rule:nonzero;stroke:none"
             d="M 0,0 C 0.122,0.297 0.452,0.432 0.747,0.31 1.042,0.187 1.18,-0.142 1.057,-0.437 0.943,-0.712 0.604,-0.869 0.31,-0.747 0.014,-0.625 -0.114,-0.274 0,0" /></g><g
           transform="translate(217.8018,89.5918)"
           id="g510"><path
             id="path512"
             style="fill:#a6a6a6;fill-opacity:1;fill-rule:nonzero;stroke:none"
             d="M 0,0 C 0.123,0.296 0.452,0.432 0.748,0.31 1.043,0.187 1.18,-0.142 1.058,-0.438 0.943,-0.713 0.605,-0.87 0.31,-0.748 0.015,-0.625 -0.113,-0.274 0,0" /></g><g
           transform="translate(215.6885,90.4668)"
           id="g514"><path
             id="path516"
             style="fill:#8c8c8c;fill-opacity:1;fill-rule:nonzero;stroke:none"
             d="M 0,0 C 0.123,0.297 0.452,0.432 0.747,0.31 1.042,0.187 1.18,-0.142 1.057,-0.437 0.943,-0.712 0.604,-0.869 0.31,-0.747 0.015,-0.625 -0.114,-0.274 0,0" /></g><g
           transform="translate(207.2334,93.9688)"
           id="g518"><path
             id="path520"
             style="fill:#8c8c8c;fill-opacity:1;fill-rule:nonzero;stroke:none"
             d="M 0,0 C 0.123,0.297 0.452,0.433 0.747,0.31 1.043,0.187 1.18,-0.142 1.057,-0.437 0.943,-0.712 0.604,-0.869 0.31,-0.747 0.015,-0.625 -0.113,-0.274 0,0" /></g><g
           transform="translate(205.1201,94.8447)"
           id="g522"><path
             id="path524"
             style="fill:#a6a6a6;fill-opacity:1;fill-rule:nonzero;stroke:none"
             d="M 0,0 C 0.122,0.296 0.452,0.432 0.747,0.31 1.042,0.187 1.18,-0.142 1.057,-0.437 0.943,-0.712 0.604,-0.87 0.31,-0.747 0.015,-0.625 -0.114,-0.274 0,0" /></g><g
           transform="translate(203.0273,95.7119)"
           id="g526"><path
             id="path528"
             style="fill:#a6a6a6;fill-opacity:1;fill-rule:nonzero;stroke:none"
             d="M 0,0 C 0.122,0.296 0.431,0.44 0.727,0.317 1.021,0.195 1.158,-0.134 1.036,-0.43 0.922,-0.704 0.584,-0.861 0.288,-0.739 -0.007,-0.617 -0.114,-0.274 0,0" /></g><g
           transform="translate(200.9131,96.5869)"
           id="g530"><path
             id="path532"
             style="fill:#a6a6a6;fill-opacity:1;fill-rule:nonzero;stroke:none"
             d="M 0,0 C 0.123,0.297 0.432,0.44 0.727,0.318 1.021,0.196 1.159,-0.133 1.036,-0.429 0.923,-0.703 0.584,-0.86 0.289,-0.738 -0.006,-0.616 -0.113,-0.274 0,0" /></g><g
           transform="translate(222.0332,96.1563)"
           id="g534"><path
             id="path536"
             style="fill:#a6a6a6;fill-opacity:1;fill-rule:nonzero;stroke:none"
             d="M 0,0 C -0.123,0.297 0.015,0.625 0.31,0.748 0.604,0.87 0.935,0.734 1.057,0.438 1.171,0.164 1.043,-0.187 0.747,-0.31 0.452,-0.432 0.114,-0.274 0,0" /></g><g
           transform="translate(219.9199,95.2813)"
           id="g538"><path
             id="path540"
             style="fill:#a6a6a6;fill-opacity:1;fill-rule:nonzero;stroke:none"
             d="M 0,0 C -0.123,0.296 0.014,0.625 0.31,0.747 0.604,0.869 0.934,0.734 1.057,0.437 1.17,0.163 1.042,-0.187 0.747,-0.31 0.452,-0.432 0.113,-0.274 0,0" /></g><g
           transform="translate(217.8057,94.4053)"
           id="g542"><path
             id="path544"
             style="fill:#a6a6a6;fill-opacity:1;fill-rule:nonzero;stroke:none"
             d="M 0,0 C -0.122,0.297 0.015,0.625 0.31,0.748 0.604,0.87 0.935,0.734 1.057,0.438 1.171,0.164 1.043,-0.187 0.747,-0.31 0.452,-0.432 0.114,-0.274 0,0" /></g><g
           transform="translate(215.6924,93.5303)"
           id="g546"><path
             id="path548"
             style="fill:#8c8c8c;fill-opacity:1;fill-rule:nonzero;stroke:none"
             d="M 0,0 C -0.123,0.296 0.015,0.625 0.31,0.747 0.604,0.869 0.934,0.733 1.057,0.437 1.17,0.163 1.042,-0.187 0.747,-0.31 0.452,-0.432 0.113,-0.274 0,0" /></g><g
           transform="translate(207.2373,90.0283)"
           id="g550"><path
             id="path552"
             style="fill:#8c8c8c;fill-opacity:1;fill-rule:nonzero;stroke:none"
             d="M 0,0 C -0.122,0.296 0.015,0.625 0.31,0.747 0.604,0.869 0.935,0.733 1.057,0.437 1.171,0.163 1.043,-0.187 0.747,-0.31 0.452,-0.432 0.114,-0.274 0,0" /></g><g
           transform="translate(205.124,89.1523)"
           id="g554"><path
             id="path556"
             style="fill:#a6a6a6;fill-opacity:1;fill-rule:nonzero;stroke:none"
             d="M 0,0 C -0.123,0.297 0.014,0.625 0.31,0.747 0.604,0.87 0.934,0.734 1.057,0.437 1.17,0.163 1.042,-0.187 0.747,-0.31 0.452,-0.432 0.113,-0.274 0,0" /></g><g
           transform="translate(203.0303,88.2852)"
           id="g558"><path
             id="path560"
             style="fill:#a6a6a6;fill-opacity:1;fill-rule:nonzero;stroke:none"
             d="M 0,0 C -0.122,0.297 -0.006,0.617 0.289,0.739 0.585,0.861 0.914,0.726 1.037,0.43 1.15,0.155 1.022,-0.195 0.728,-0.317 0.432,-0.44 0.114,-0.274 0,0" /></g><g
           transform="translate(200.917,87.4102)"
           id="g562"><path
             id="path564"
             style="fill:#a6a6a6;fill-opacity:1;fill-rule:nonzero;stroke:none"
             d="M 0,0 C -0.123,0.296 -0.006,0.616 0.289,0.738 0.584,0.861 0.913,0.726 1.036,0.429 1.15,0.154 1.021,-0.196 0.727,-0.318 0.432,-0.44 0.113,-0.274 0,0" /></g><g
           transform="translate(216.1562,81.9668)"
           id="g566"><path
             id="path568"
             style="fill:#a6a6a6;fill-opacity:1;fill-rule:nonzero;stroke:none"
             d="M 0,0 C 0.297,0.123 0.625,-0.015 0.748,-0.31 0.87,-0.604 0.734,-0.935 0.438,-1.057 0.164,-1.171 -0.187,-1.043 -0.31,-0.747 -0.432,-0.452 -0.274,-0.114 0,0" /></g><g
           transform="translate(215.2812,84.0801)"
           id="g570"><path
             id="path572"
             style="fill:#a6a6a6;fill-opacity:1;fill-rule:nonzero;stroke:none"
             d="M 0,0 C 0.296,0.123 0.625,-0.014 0.747,-0.31 0.869,-0.604 0.734,-0.934 0.437,-1.057 0.163,-1.17 -0.187,-1.042 -0.31,-0.747 -0.432,-0.452 -0.274,-0.113 0,0" /></g><g
           transform="translate(214.4053,86.1943)"
           id="g574"><path
             id="path576"
             style="fill:#a6a6a6;fill-opacity:1;fill-rule:nonzero;stroke:none"
             d="M 0,0 C 0.297,0.122 0.625,-0.015 0.748,-0.31 0.87,-0.604 0.734,-0.935 0.438,-1.057 0.164,-1.171 -0.187,-1.043 -0.31,-0.747 -0.432,-0.452 -0.274,-0.114 0,0" /></g><g
           transform="translate(213.5303,88.3076)"
           id="g578"><path
             id="path580"
             style="fill:#8c8c8c;fill-opacity:1;fill-rule:nonzero;stroke:none"
             d="M 0,0 C 0.296,0.123 0.625,-0.015 0.747,-0.31 0.869,-0.604 0.733,-0.934 0.437,-1.057 0.163,-1.17 -0.187,-1.042 -0.31,-0.747 -0.432,-0.452 -0.274,-0.113 0,0" /></g><g
           transform="translate(210.0283,96.7627)"
           id="g582"><path
             id="path584"
             style="fill:#8c8c8c;fill-opacity:1;fill-rule:nonzero;stroke:none"
             d="M 0,0 C 0.296,0.122 0.625,-0.015 0.747,-0.31 0.869,-0.604 0.733,-0.935 0.437,-1.057 0.163,-1.171 -0.187,-1.043 -0.31,-0.747 -0.432,-0.452 -0.274,-0.114 0,0" /></g><g
           transform="translate(209.1523,98.876)"
           id="g586"><path
             id="path588"
             style="fill:#a6a6a6;fill-opacity:1;fill-rule:nonzero;stroke:none"
             d="M 0,0 C 0.297,0.123 0.625,-0.014 0.747,-0.31 0.87,-0.604 0.734,-0.934 0.437,-1.057 0.163,-1.17 -0.187,-1.042 -0.31,-0.747 -0.432,-0.452 -0.274,-0.113 0,0" /></g><g
           transform="translate(208.2852,100.9697)"
           id="g590"><path
             id="path592"
             style="fill:#a6a6a6;fill-opacity:1;fill-rule:nonzero;stroke:none"
             d="M 0,0 C 0.297,0.122 0.617,0.006 0.739,-0.289 0.861,-0.585 0.726,-0.914 0.43,-1.037 0.155,-1.15 -0.195,-1.022 -0.317,-0.728 -0.44,-0.432 -0.274,-0.114 0,0" /></g><g
           transform="translate(207.4102,103.083)"
           id="g594"><path
             id="path596"
             style="fill:#a6a6a6;fill-opacity:1;fill-rule:nonzero;stroke:none"
             d="M 0,0 C 0.296,0.123 0.616,0.006 0.738,-0.289 0.861,-0.584 0.726,-0.913 0.429,-1.036 0.154,-1.15 -0.196,-1.021 -0.318,-0.727 -0.44,-0.432 -0.274,-0.113 0,0" /></g><g
           transform="translate(128,186)"
           id="g598"><path
             id="path600"
             style="fill:#ff0000;fill-opacity:1;fill-rule:nonzero;stroke:none"
             d="M 0,0 V 0 C -1.104,0 -2,0.896 -2,2 V 8 H 2 V 2 C 2,0.896 1.104,0 0,0" /></g></g></g></g></svg>