<svg xmlns="http://www.w3.org/2000/svg" xml:space="preserve" width="320" height="202.666" viewBox="0 0 320 202.666"><defs><clipPath id="a" clipPathUnits="userSpaceOnUse"><path d="M0 256h256V0H0Z"/></clipPath><clipPath id="b" clipPathUnits="userSpaceOnUse"><path d="M8 204h240V52H8Z"/></clipPath></defs><g clip-path="url(#a)" transform="matrix(1.33333 0 0 -1.33333 -10.667 272)"><g clip-path="url(#b)" style="opacity:.5"><path d="M0 0c-2.308 12.693-6.147 22.915-11.447 30.501a8.98 8.98 0 0 1 .6 5.535 8.98 8.98 0 0 1-5.522 6.543c-14.236 5.591-24.983 8.309-32.853 8.309-2.897 0-5.407-.364-7.592-1.105-6.897.88-14.613 1.566-23.005 2.048l-.395.395a8 8 0 0 1-5.657 2.343h-24a8 8 0 0 1-5.237-1.953 266 266 0 0 1-2.763-.045c-.391.009-1.34.028-2.762.045a8 8 0 0 1-5.238 1.953h-24a8 8 0 0 1-5.657-2.343l-.395-.395c-8.392-.482-16.108-1.168-23.005-2.048-2.185.741-4.695 1.104-7.592 1.105-7.87 0-18.616-2.718-32.854-8.309a8.98 8.98 0 0 1-5.522-6.543 9 9 0 0 1 .601-5.535c-5.299-7.586-9.139-17.808-11.447-30.501-2.105-11.577-2.129-21.034-2.129-21.431v-24c0-.514.058-12.715 5.096-25.029 7.115-17.393 20.931-26.971 38.904-26.971 17.183 0 24.688.894 32.634 1.841 8.907 1.061 18.118 2.159 43.366 2.159s34.459-1.098 43.365-2.159c7.946-.947 15.452-1.841 32.635-1.841 17.973 0 31.789 9.578 38.904 26.971 5.038 12.314 5.096 24.515 5.096 25.029v24C2.129-21.034 2.104-11.577 0 0" style="fill:#fff;fill-opacity:1;fill-rule:nonzero;stroke:none" transform="translate(245.871 149.431)"/></g><path d="m0 0 2.923-2.923 36 8s0 11.714-38.578-3.436A1.004 1.004 0 0 1 0 0" style="fill:#ccc;fill-opacity:1;fill-rule:nonzero;stroke:none" transform="translate(29.077 182.923)"/><path d="m0 0-2.923-2.923-36 8s0 11.714 38.578-3.436C.325 1.377.509.509 0 0" style="fill:#ccc;fill-opacity:1;fill-rule:nonzero;stroke:none" transform="translate(226.923 182.923)"/><path d="M0 0h-32l4 4h24z" style="fill:#ccc;fill-opacity:1;fill-rule:nonzero;stroke:none" transform="translate(124 192)"/><path d="M0 0h-32l4 4h24z" style="fill:#ccc;fill-opacity:1;fill-rule:nonzero;stroke:none" transform="translate(164 192)"/><path d="M0 0c-16 16-96 14-96 14s-80 2-96-14-16-52-16-52v-24s0-44 36-44 28 4 76 4 40-4 76-4 36 44 36 44v24S16-16 0 0" style="fill:#e6e6e6;fill-opacity:1;fill-rule:nonzero;stroke:none" transform="translate(224 180)"/><path d="M0 0a786 786 0 0 0-112 0 8 8 0 0 0-8 8l-.36 3.965A421 421 0 0 0-120 92a8 8 0 0 0 8 8 786 786 0 0 0 112 0 8 8 0 0 0 8-8 421 421 0 0 0 .36-80.035L8 8a8 8 0 0 0-8-8" style="fill:gray;fill-opacity:1;fill-rule:nonzero;stroke:none" transform="translate(184 76)"/><path d="M0 0c-18.679 0-37.357-.666-56-1.998a8 8 0 0 1-8-8 421 421 0 0 1-.36-80.035l.36-3.965a8 8 0 0 1 8-8 786 786 0 0 1 112 0 8 8 0 0 1 8 8l.36 3.965A421 421 0 0 1 64-9.998a8 8 0 0 1-8 8A786 786 0 0 1 0 0m0-2c18.556 0 37.349-.67 55.857-1.993l.072-.005H56c3.309 0 6-2.691 6-6v-.099l.01-.1a420 420 0 0 0 .359-79.654l-.361-3.966-.008-.09v-.091c0-3.308-2.691-6-6-6h-.071l-.072-.004A787 787 0 0 0 0-101.995c-18.556 0-37.349.67-55.857 1.993l-.072.004H-56c-3.309 0-6 2.692-6 6v.091l-.008.09-.361 3.966a420 420 0 0 0 .359 79.654l.01.1v.099c0 3.309 2.691 6 6 6h.071l.072.005A787 787 0 0 0 0-2" style="fill:#737373;fill-opacity:1;fill-rule:nonzero;stroke:none" transform="translate(128 177.998)"/><path d="M184 88H72v84h112z" style="fill:#b3b3b3;fill-opacity:1;fill-rule:nonzero;stroke:none"/><path d="M0 0a6 6 0 0 0-12 0A6 6 0 0 0 0 0" style="fill:#ccc;fill-opacity:1;fill-rule:nonzero;stroke:none" transform="translate(52 122)"/><path d="M0 0a6 6 0 0 0-12 0A6 6 0 0 0 0 0" style="fill:#ccc;fill-opacity:1;fill-rule:nonzero;stroke:none" transform="translate(212 122)"/><path d="M0 0a7 7 0 1 0-14 0A7 7 0 0 0 0 0" style="fill:#b3b3b3;fill-opacity:1;fill-rule:nonzero;stroke:none" transform="translate(216 145)"/><path d="M0 0c-8.547 0-15.5-6.953-15.5-15.5S-8.547-31 0-31s15.5 6.953 15.5 15.5S8.547 0 0 0m0-32c-9.098 0-16.5 7.402-16.5 16.5S-9.098 1 0 1s16.5-7.402 16.5-16.5S9.098-32 0-32" style="fill:#d9d9d9;fill-opacity:1;fill-rule:nonzero;stroke:none" transform="translate(40 167.5)"/><path d="M0 0c0-7.18-5.82-13-13-13S-26-7.18-26 0s5.82 13 13 13S0 7.18 0 0" style="fill:#ccc;fill-opacity:1;fill-rule:nonzero;stroke:none" transform="translate(53 152)"/><path d="M0 0a7 7 0 1 0-14 0A7 7 0 0 0 0 0" style="fill:#b3b3b3;fill-opacity:1;fill-rule:nonzero;stroke:none" transform="translate(228 157)"/><path d="M0 0a6 6 0 0 0-12 0A6 6 0 0 0 0 0" style="fill:#bfbfbf;fill-opacity:1;fill-rule:nonzero;stroke:none" transform="translate(46 152)"/><path d="M0 0a6 6 0 0 1-12 0 6 6 0 0 1 0-12 6 6 0 0 1 12 0A6 6 0 0 1 0 0" style="fill:#b3b3b3;fill-opacity:1;fill-rule:nonzero;stroke:none" transform="translate(46 158)"/><path d="M0 0a1 1 0 0 1 1-1c.552 0 .552 2 0 2a1 1 0 0 1-1-1" style="fill:#a6a6a6;fill-opacity:1;fill-rule:nonzero;stroke:none" transform="translate(31 152)"/><path d="M0 0a1 1 0 0 1 0 2c-.552 0-.552-2 0-2" style="fill:#a6a6a6;fill-opacity:1;fill-rule:nonzero;stroke:none" transform="translate(48 151)"/><path d="M0 0a1 1 0 0 1-1-1c0-.552 2-.552 2 0a1 1 0 0 1-1 1" style="fill:#a6a6a6;fill-opacity:1;fill-rule:nonzero;stroke:none" transform="translate(40 161)"/><path d="M0 0a1 1 0 0 1 2 0c0 .552-2 .552-2 0" style="fill:#a6a6a6;fill-opacity:1;fill-rule:nonzero;stroke:none" transform="translate(39 144)"/><path d="M0 0a4 4 0 1 0-8 0 4 4 0 0 0 8 0" style="fill:#a6a6a6;fill-opacity:1;fill-rule:nonzero;stroke:none" transform="translate(44 152)"/><path d="M0 0c0 .32.252.572.572.572S1.144.32 1.144 0a.58.58 0 0 0-.572-.572A.58.58 0 0 0 0 0" style="fill:#a6a6a6;fill-opacity:1;fill-rule:nonzero;stroke:none" transform="translate(54.856 92)"/><path d="M0 0c0 .32.252.572.572.572A.567.567 0 0 0 1.144 0a.58.58 0 0 0-.572-.572A.58.58 0 0 0 0 0" style="fill:#a6a6a6;fill-opacity:1;fill-rule:nonzero;stroke:none" transform="translate(52.568 92)"/><path d="M0 0c0 .32.252.572.572.572S1.144.32 1.144 0a.58.58 0 0 0-.572-.572A.58.58 0 0 0 0 0" style="fill:#a6a6a6;fill-opacity:1;fill-rule:nonzero;stroke:none" transform="translate(50.28 92)"/><path d="M0 0c0 .32.252.572.572.572S1.144.32 1.144 0a.58.58 0 0 0-.572-.572A.58.58 0 0 0 0 0" style="fill:#a6a6a6;fill-opacity:1;fill-rule:nonzero;stroke:none" transform="translate(36.553 92)"/><path d="M0 0c0 .32.23.572.549.572S1.121.32 1.121 0a.58.58 0 0 0-.572-.572C.23-.572 0-.297 0 0" style="fill:#a6a6a6;fill-opacity:1;fill-rule:nonzero;stroke:none" transform="translate(34.288 92)"/><path d="M0 0c0 .32.23.572.55.572A.567.567 0 0 0 1.122 0 .58.58 0 0 0 .55-.572C.23-.572 0-.297 0 0" style="fill:#a6a6a6;fill-opacity:1;fill-rule:nonzero;stroke:none" transform="translate(32 92)"/><path d="M0 0a.566.566 0 0 0 .572-.571A.567.567 0 0 0 0-1.144a.583.583 0 0 0-.572.573C-.572-.252-.297 0 0 0" style="fill:#a6a6a6;fill-opacity:1;fill-rule:nonzero;stroke:none" transform="translate(44 81.144)"/><path d="M0 0a.566.566 0 0 0 .572-.572A.566.566 0 0 0 0-1.144a.58.58 0 0 0-.572.572c0 .32.275.572.572.572" style="fill:#a6a6a6;fill-opacity:1;fill-rule:nonzero;stroke:none" transform="translate(44 83.432)"/><path d="M0 0a.567.567 0 0 0 .572-.572A.566.566 0 0 0 0-1.144a.58.58 0 0 0-.572.572C-.572-.253-.297 0 0 0" style="fill:#a6a6a6;fill-opacity:1;fill-rule:nonzero;stroke:none" transform="translate(44 85.72)"/><path d="M0 0a.567.567 0 0 0 .572-.572A.567.567 0 0 0 0-1.145a.583.583 0 0 0-.572.573C-.572-.253-.297 0 0 0" style="fill:#8c8c8c;fill-opacity:1;fill-rule:nonzero;stroke:none" transform="translate(44 94.572)"/><path d="M0 0a.567.567 0 0 0 .572-.572A.567.567 0 0 0 0-1.145a.583.583 0 0 0-.572.573C-.572-.253-.297 0 0 0" style="fill:#8c8c8c;fill-opacity:1;fill-rule:nonzero;stroke:none" transform="translate(44 90.572)"/><path d="M0 0a.567.567 0 0 0-.572-.572.567.567 0 0 0-.572.572c0 .297.253.572.572.572C-.252.572 0 .297 0 0" style="fill:#8c8c8c;fill-opacity:1;fill-rule:nonzero;stroke:none" transform="translate(46.572 92)"/><path d="M0 0a.567.567 0 0 0-.572-.572.567.567 0 0 0-.572.572c0 .297.253.572.572.572C-.252.572 0 .297 0 0" style="fill:#8c8c8c;fill-opacity:1;fill-rule:nonzero;stroke:none" transform="translate(42.572 92)"/><path d="M0 0a.566.566 0 0 0 .572-.571A.567.567 0 0 0 0-1.144a.583.583 0 0 0-.572.573C-.572-.252-.297 0 0 0" style="fill:#a6a6a6;fill-opacity:1;fill-rule:nonzero;stroke:none" transform="translate(44 99.446)"/><path d="M0 0c.321 0 .572-.229.572-.55A.566.566 0 0 0 0-1.121a.58.58 0 0 0-.572.571c0 .321.275.55.572.55" style="fill:#a6a6a6;fill-opacity:1;fill-rule:nonzero;stroke:none" transform="translate(44 101.712)"/><path d="M0 0c.321 0 .572-.23.572-.55A.566.566 0 0 0 0-1.121a.58.58 0 0 0-.572.571c0 .32.275.55.572.55" style="fill:#a6a6a6;fill-opacity:1;fill-rule:nonzero;stroke:none" transform="translate(44 104)"/><path d="M0 0a.567.567 0 0 0 0 .809.57.57 0 0 0 .809 0 .58.58 0 0 0 0-.809A.58.58 0 0 0 0 0" style="fill:#a6a6a6;fill-opacity:1;fill-rule:nonzero;stroke:none" transform="translate(51.684 99.678)"/><path d="M0 0a.567.567 0 0 0 0 .809.567.567 0 0 0 .809 0 .58.58 0 0 0 0-.809A.58.58 0 0 0 0 0" style="fill:#a6a6a6;fill-opacity:1;fill-rule:nonzero;stroke:none" transform="translate(50.066 98.06)"/><path d="M0 0a.567.567 0 0 0 0 .809.57.57 0 0 0 .809 0 .58.58 0 0 0 0-.809A.58.58 0 0 0 0 0" style="fill:#a6a6a6;fill-opacity:1;fill-rule:nonzero;stroke:none" transform="translate(48.448 96.442)"/><path d="M0 0a.567.567 0 0 0 0 .809.567.567 0 0 0 .809 0 .58.58 0 0 0 0-.809A.58.58 0 0 0 0 0" style="fill:#a6a6a6;fill-opacity:1;fill-rule:nonzero;stroke:none" transform="translate(38.742 86.735)"/><path d="M0 0c-.227.227-.242.567-.016.793a.567.567 0 0 0 .809 0 .58.58 0 0 0 0-.809C.567-.242.21-.21 0 0" style="fill:#a6a6a6;fill-opacity:1;fill-rule:nonzero;stroke:none" transform="translate(37.14 85.134)"/><path d="M0 0c-.227.227-.242.567-.016.793a.566.566 0 0 0 .809 0 .58.58 0 0 0 0-.809C.567-.241.21-.21 0 0" style="fill:#a6a6a6;fill-opacity:1;fill-rule:nonzero;stroke:none" transform="translate(35.522 83.516)"/><path d="M0 0a.567.567 0 0 0 .809 0 .567.567 0 0 0 0-.809.58.58 0 0 0-.809 0A.58.58 0 0 0 0 0" style="fill:#a6a6a6;fill-opacity:1;fill-rule:nonzero;stroke:none" transform="translate(51.677 84.316)"/><path d="M0 0a.567.567 0 0 0 .809 0 .57.57 0 0 0 0-.81.583.583 0 0 0-.809 0A.583.583 0 0 0 0 0" style="fill:#a6a6a6;fill-opacity:1;fill-rule:nonzero;stroke:none" transform="translate(50.06 85.935)"/><path d="M0 0a.566.566 0 0 0 .809 0 .567.567 0 0 0 0-.809.583.583 0 0 0-.809 0A.58.58 0 0 0 0 0" style="fill:#a6a6a6;fill-opacity:1;fill-rule:nonzero;stroke:none" transform="translate(48.442 87.552)"/><path d="M0 0a.567.567 0 0 0 .809 0 .57.57 0 0 0 0-.81.583.583 0 0 0-.809 0A.583.583 0 0 0 0 0" style="fill:#a6a6a6;fill-opacity:1;fill-rule:nonzero;stroke:none" transform="translate(38.735 97.259)"/><path d="M0 0c.227.227.567.242.793.016a.567.567 0 0 0 0-.809.58.58 0 0 0-.809 0C-.242-.567-.21-.21 0 0" style="fill:#a6a6a6;fill-opacity:1;fill-rule:nonzero;stroke:none" transform="translate(37.134 98.86)"/><path d="M0 0c.227.227.567.241.793.016a.567.567 0 0 0 0-.809.58.58 0 0 0-.809 0C-.242-.567-.21-.211 0 0" style="fill:#a6a6a6;fill-opacity:1;fill-rule:nonzero;stroke:none" transform="translate(35.516 100.478)"/><path d="M0 0a.567.567 0 0 0-.31.747.566.566 0 0 0 .747.31.58.58 0 0 0 .31-.747A.583.583 0 0 0 0 0" style="fill:#a6a6a6;fill-opacity:1;fill-rule:nonzero;stroke:none" transform="translate(48.16 102.03)"/><path d="M0 0a.567.567 0 0 0-.31.747.567.567 0 0 0 .747.31.58.58 0 0 0 .31-.747A.58.58 0 0 0 0 0" style="fill:#a6a6a6;fill-opacity:1;fill-rule:nonzero;stroke:none" transform="translate(47.284 99.916)"/><path d="M0 0a.57.57 0 0 0-.31.748.57.57 0 0 0 .747.31.583.583 0 0 0 .31-.748A.583.583 0 0 0 0 0" style="fill:#a6a6a6;fill-opacity:1;fill-rule:nonzero;stroke:none" transform="translate(46.409 97.802)"/><path d="M0 0a.566.566 0 0 0-.309.747.566.566 0 0 0 .747.31.583.583 0 0 0 .31-.747A.583.583 0 0 0 0 0" style="fill:#8c8c8c;fill-opacity:1;fill-rule:nonzero;stroke:none" transform="translate(45.533 95.689)"/><path d="M0 0a.567.567 0 0 0-.31.747.567.567 0 0 0 .748.31.583.583 0 0 0 .31-.747A.584.584 0 0 0 0 0" style="fill:#8c8c8c;fill-opacity:1;fill-rule:nonzero;stroke:none" transform="translate(42.03 87.233)"/><path d="M0 0a.567.567 0 0 0-.31.747.57.57 0 0 0 .748.31.583.583 0 0 0 .31-.747A.583.583 0 0 0 0 0" style="fill:#a6a6a6;fill-opacity:1;fill-rule:nonzero;stroke:none" transform="translate(41.155 85.12)"/><path d="M0 0c-.296.122-.44.431-.318.727a.57.57 0 0 0 .747.309.58.58 0 0 0 .31-.748C.616-.007.274-.114 0 0" style="fill:#a6a6a6;fill-opacity:1;fill-rule:nonzero;stroke:none" transform="translate(40.289 83.027)"/><path d="M0 0c-.296.123-.44.432-.318.727a.567.567 0 0 0 .747.309.58.58 0 0 0 .31-.747C.616-.006.274-.113 0 0" style="fill:#a6a6a6;fill-opacity:1;fill-rule:nonzero;stroke:none" transform="translate(39.413 80.913)"/><path d="M0 0a.57.57 0 0 0 .748.31.57.57 0 0 0 .309-.748.58.58 0 0 0-.747-.31A.583.583 0 0 0 0 0" style="fill:#a6a6a6;fill-opacity:1;fill-rule:nonzero;stroke:none" transform="translate(54.03 87.84)"/><path d="M0 0a.566.566 0 0 0 .747.31.57.57 0 0 0 .31-.747.583.583 0 0 0-.748-.31A.58.58 0 0 0 0 0" style="fill:#a6a6a6;fill-opacity:1;fill-rule:nonzero;stroke:none" transform="translate(51.916 88.716)"/><path d="M0 0a.567.567 0 0 0 .747.31.57.57 0 0 0 .31-.748.58.58 0 0 0-.747-.31A.58.58 0 0 0 0 0" style="fill:#a6a6a6;fill-opacity:1;fill-rule:nonzero;stroke:none" transform="translate(49.802 89.592)"/><path d="M0 0a.566.566 0 0 0 .747.31.567.567 0 0 0 .31-.747.58.58 0 0 0-.747-.31A.58.58 0 0 0 0 0" style="fill:#8c8c8c;fill-opacity:1;fill-rule:nonzero;stroke:none" transform="translate(47.688 90.467)"/><path d="M0 0a.566.566 0 0 0 .748.31.567.567 0 0 0 .309-.747.58.58 0 0 0-.747-.31A.583.583 0 0 0 0 0" style="fill:#8c8c8c;fill-opacity:1;fill-rule:nonzero;stroke:none" transform="translate(39.233 93.969)"/><path d="M0 0a.567.567 0 0 0 .747.31.57.57 0 0 0 .31-.747.58.58 0 0 0-.747-.31A.58.58 0 0 0 0 0" style="fill:#a6a6a6;fill-opacity:1;fill-rule:nonzero;stroke:none" transform="translate(37.12 94.845)"/><path d="M0 0c.123.296.432.44.727.317a.566.566 0 0 0 .309-.747.58.58 0 0 0-.747-.309C-.006-.617-.114-.274 0 0" style="fill:#a6a6a6;fill-opacity:1;fill-rule:nonzero;stroke:none" transform="translate(35.027 95.712)"/><path d="M0 0c.123.297.432.44.727.318a.566.566 0 0 0 .309-.747.58.58 0 0 0-.747-.309C-.006-.616-.114-.274 0 0" style="fill:#a6a6a6;fill-opacity:1;fill-rule:nonzero;stroke:none" transform="translate(32.913 96.587)"/><path d="M0 0a.57.57 0 0 0 .31.748.567.567 0 0 0 .747-.31.585.585 0 0 0-.309-.748A.583.583 0 0 0 0 0" style="fill:#a6a6a6;fill-opacity:1;fill-rule:nonzero;stroke:none" transform="translate(54.033 96.156)"/><path d="M0 0a.566.566 0 0 0 .31.747.566.566 0 0 0 .747-.31.58.58 0 0 0-.309-.747A.583.583 0 0 0 0 0" style="fill:#a6a6a6;fill-opacity:1;fill-rule:nonzero;stroke:none" transform="translate(51.92 95.281)"/><path d="M0 0a.57.57 0 0 0 .31.748.567.567 0 0 0 .747-.31.584.584 0 0 0-.309-.748A.583.583 0 0 0 0 0" style="fill:#a6a6a6;fill-opacity:1;fill-rule:nonzero;stroke:none" transform="translate(49.806 94.405)"/><path d="M0 0a.566.566 0 0 0 .31.747.567.567 0 0 0 .747-.31.583.583 0 0 0-.31-.747A.583.583 0 0 0 0 0" style="fill:#8c8c8c;fill-opacity:1;fill-rule:nonzero;stroke:none" transform="translate(47.692 93.53)"/><path d="M0 0a.566.566 0 0 0 .31.747.567.567 0 0 0 .747-.31.58.58 0 0 0-.309-.747A.583.583 0 0 0 0 0" style="fill:#8c8c8c;fill-opacity:1;fill-rule:nonzero;stroke:none" transform="translate(39.237 90.028)"/><path d="M0 0a.566.566 0 0 0 .31.747.565.565 0 0 0 .747-.31.58.58 0 0 0-.309-.747A.583.583 0 0 0 0 0" style="fill:#a6a6a6;fill-opacity:1;fill-rule:nonzero;stroke:none" transform="translate(37.123 89.152)"/><path d="M0 0c-.123.297-.006.617.289.739A.566.566 0 0 0 1.036.43a.58.58 0 0 0-.309-.747C.432-.44.114-.274 0 0" style="fill:#a6a6a6;fill-opacity:1;fill-rule:nonzero;stroke:none" transform="translate(35.03 88.285)"/><path d="M0 0c-.123.296-.006.616.289.738a.565.565 0 0 0 .747-.309.58.58 0 0 0-.309-.747C.432-.44.114-.274 0 0" style="fill:#a6a6a6;fill-opacity:1;fill-rule:nonzero;stroke:none" transform="translate(32.917 87.41)"/><path d="M0 0a.566.566 0 0 0 .747-.31.566.566 0 0 0-.31-.747.58.58 0 0 0-.747.31A.583.583 0 0 0 0 0" style="fill:#a6a6a6;fill-opacity:1;fill-rule:nonzero;stroke:none" transform="translate(48.157 81.967)"/><path d="M0 0a.566.566 0 0 0 .747-.31.566.566 0 0 0-.31-.747.583.583 0 0 0-.747.31A.58.58 0 0 0 0 0" style="fill:#a6a6a6;fill-opacity:1;fill-rule:nonzero;stroke:none" transform="translate(47.281 84.08)"/><path d="M0 0a.567.567 0 0 0 .747-.31.566.566 0 0 0-.31-.747.58.58 0 0 0-.747.31A.583.583 0 0 0 0 0" style="fill:#a6a6a6;fill-opacity:1;fill-rule:nonzero;stroke:none" transform="translate(46.406 86.194)"/><path d="M0 0a.566.566 0 0 0 .747-.31.566.566 0 0 0-.31-.747.583.583 0 0 0-.747.31A.58.58 0 0 0 0 0" style="fill:#8c8c8c;fill-opacity:1;fill-rule:nonzero;stroke:none" transform="translate(45.53 88.308)"/><path d="M0 0a.57.57 0 0 0 .748-.31.567.567 0 0 0-.31-.747.58.58 0 0 0-.747.31A.58.58 0 0 0 0 0" style="fill:#8c8c8c;fill-opacity:1;fill-rule:nonzero;stroke:none" transform="translate(42.028 96.763)"/><path d="M0 0a.567.567 0 0 0 .748-.31.567.567 0 0 0-.31-.747.584.584 0 0 0-.748.31A.58.58 0 0 0 0 0" style="fill:#a6a6a6;fill-opacity:1;fill-rule:nonzero;stroke:none" transform="translate(41.152 98.876)"/><path d="M0 0c.296.122.616.006.739-.289a.567.567 0 0 0-.31-.748.583.583 0 0 0-.747.309C-.44-.432-.274-.114 0 0" style="fill:#a6a6a6;fill-opacity:1;fill-rule:nonzero;stroke:none" transform="translate(40.286 100.97)"/><path d="M0 0c.296.123.616.006.739-.289a.567.567 0 0 0-.31-.747.58.58 0 0 0-.747.309C-.44-.432-.274-.113 0 0" style="fill:#a6a6a6;fill-opacity:1;fill-rule:nonzero;stroke:none" transform="translate(39.41 103.083)"/><path d="M0 0c0 .32.252.572.571.572.32 0 .573-.252.573-.572a.583.583 0 0 0-.573-.572A.58.58 0 0 0 0 0" style="fill:#a6a6a6;fill-opacity:1;fill-rule:nonzero;stroke:none" transform="translate(222.856 92)"/><path d="M0 0c0 .32.252.572.572.572S1.144.32 1.144 0a.58.58 0 0 0-.572-.572A.58.58 0 0 0 0 0" style="fill:#a6a6a6;fill-opacity:1;fill-rule:nonzero;stroke:none" transform="translate(220.568 92)"/><path d="M0 0c0 .32.253.572.572.572.32 0 .572-.252.572-.572a.58.58 0 0 0-.572-.572A.58.58 0 0 0 0 0" style="fill:#a6a6a6;fill-opacity:1;fill-rule:nonzero;stroke:none" transform="translate(218.28 92)"/><path d="M0 0c0 .32.252.572.571.572.32 0 .573-.252.573-.572a.583.583 0 0 0-.573-.572A.58.58 0 0 0 0 0" style="fill:#a6a6a6;fill-opacity:1;fill-rule:nonzero;stroke:none" transform="translate(204.554 92)"/><path d="M0 0c0 .32.229.572.55.572A.567.567 0 0 0 1.121 0 .58.58 0 0 0 .55-.572C.229-.572 0-.297 0 0" style="fill:#a6a6a6;fill-opacity:1;fill-rule:nonzero;stroke:none" transform="translate(202.288 92)"/><path d="M0 0c0 .32.23.572.55.572A.567.567 0 0 0 1.121 0 .58.58 0 0 0 .55-.572C.23-.572 0-.297 0 0" style="fill:#a6a6a6;fill-opacity:1;fill-rule:nonzero;stroke:none" transform="translate(200 92)"/><path d="M0 0c.32 0 .572-.252.572-.571A.57.57 0 0 0 0-1.144a.583.583 0 0 0-.572.573C-.572-.252-.297 0 0 0" style="fill:#a6a6a6;fill-opacity:1;fill-rule:nonzero;stroke:none" transform="translate(212 81.144)"/><path d="M0 0c.32 0 .572-.252.572-.572A.567.567 0 0 0 0-1.144a.58.58 0 0 0-.572.572c0 .32.275.572.572.572" style="fill:#a6a6a6;fill-opacity:1;fill-rule:nonzero;stroke:none" transform="translate(212 83.432)"/><path d="M0 0c.32 0 .572-.253.572-.572A.567.567 0 0 0 0-1.144a.58.58 0 0 0-.572.572C-.572-.253-.297 0 0 0" style="fill:#a6a6a6;fill-opacity:1;fill-rule:nonzero;stroke:none" transform="translate(212 85.72)"/><path d="M0 0c.32 0 .572-.253.572-.572A.57.57 0 0 0 0-1.145a.583.583 0 0 0-.572.573C-.572-.253-.297 0 0 0" style="fill:#8c8c8c;fill-opacity:1;fill-rule:nonzero;stroke:none" transform="translate(212 94.572)"/><path d="M0 0c.32 0 .572-.253.572-.572A.57.57 0 0 0 0-1.145a.583.583 0 0 0-.572.573C-.572-.253-.297 0 0 0" style="fill:#8c8c8c;fill-opacity:1;fill-rule:nonzero;stroke:none" transform="translate(212 90.572)"/><path d="M0 0a.567.567 0 0 0-.572-.572.57.57 0 0 0-.573.572c0 .297.253.572.573.572A.58.58 0 0 0 0 0" style="fill:#8c8c8c;fill-opacity:1;fill-rule:nonzero;stroke:none" transform="translate(214.572 92)"/><path d="M0 0a.567.567 0 0 0-.572-.572.57.57 0 0 0-.573.572c0 .297.253.572.573.572A.58.58 0 0 0 0 0" style="fill:#8c8c8c;fill-opacity:1;fill-rule:nonzero;stroke:none" transform="translate(210.572 92)"/><path d="M0 0c.32 0 .572-.252.572-.571A.57.57 0 0 0 0-1.144a.583.583 0 0 0-.572.573C-.572-.252-.297 0 0 0" style="fill:#a6a6a6;fill-opacity:1;fill-rule:nonzero;stroke:none" transform="translate(212 99.446)"/><path d="M0 0c.32 0 .572-.229.572-.55A.567.567 0 0 0 0-1.121a.58.58 0 0 0-.572.571c0 .321.275.55.572.55" style="fill:#a6a6a6;fill-opacity:1;fill-rule:nonzero;stroke:none" transform="translate(212 101.712)"/><path d="M0 0c.32 0 .572-.23.572-.55A.567.567 0 0 0 0-1.121a.58.58 0 0 0-.572.571c0 .32.275.55.572.55" style="fill:#a6a6a6;fill-opacity:1;fill-rule:nonzero;stroke:none" transform="translate(212 104)"/><path d="M0 0a.567.567 0 0 0 0 .809.57.57 0 0 0 .809 0 .58.58 0 0 0 0-.809A.58.58 0 0 0 0 0" style="fill:#a6a6a6;fill-opacity:1;fill-rule:nonzero;stroke:none" transform="translate(219.684 99.678)"/><path d="M0 0a.567.567 0 0 0 0 .809.57.57 0 0 0 .81 0A.583.583 0 0 0 .81 0 .583.583 0 0 0 0 0" style="fill:#a6a6a6;fill-opacity:1;fill-rule:nonzero;stroke:none" transform="translate(218.065 98.06)"/><path d="M0 0a.566.566 0 0 0 0 .809.57.57 0 0 0 .809 0 .583.583 0 0 0 0-.809A.58.58 0 0 0 0 0" style="fill:#a6a6a6;fill-opacity:1;fill-rule:nonzero;stroke:none" transform="translate(216.448 96.442)"/><path d="M0 0a.567.567 0 0 0 0 .809.57.57 0 0 0 .81 0A.583.583 0 0 0 .81 0 .583.583 0 0 0 0 0" style="fill:#a6a6a6;fill-opacity:1;fill-rule:nonzero;stroke:none" transform="translate(206.741 86.735)"/><path d="M0 0c-.227.227-.242.567-.016.793a.567.567 0 0 0 .809 0 .58.58 0 0 0 0-.809C.567-.242.21-.21 0 0" style="fill:#a6a6a6;fill-opacity:1;fill-rule:nonzero;stroke:none" transform="translate(205.14 85.134)"/><path d="M0 0c-.227.227-.241.567-.016.793a.566.566 0 0 0 .809 0 .58.58 0 0 0 0-.809C.567-.241.211-.21 0 0" style="fill:#a6a6a6;fill-opacity:1;fill-rule:nonzero;stroke:none" transform="translate(203.522 83.516)"/><path d="M0 0a.567.567 0 0 0 .809 0 .57.57 0 0 0 0-.809.58.58 0 0 0-.809 0A.58.58 0 0 0 0 0" style="fill:#a6a6a6;fill-opacity:1;fill-rule:nonzero;stroke:none" transform="translate(219.678 84.316)"/><path d="M0 0a.567.567 0 0 0 .809 0 .57.57 0 0 0 0-.81.583.583 0 0 0-.809 0A.583.583 0 0 0 0 0" style="fill:#a6a6a6;fill-opacity:1;fill-rule:nonzero;stroke:none" transform="translate(218.06 85.935)"/><path d="M0 0a.566.566 0 0 0 .809 0 .57.57 0 0 0 0-.809.583.583 0 0 0-.809 0A.58.58 0 0 0 0 0" style="fill:#a6a6a6;fill-opacity:1;fill-rule:nonzero;stroke:none" transform="translate(216.442 87.552)"/><path d="M0 0a.567.567 0 0 0 .809 0 .57.57 0 0 0 0-.81.583.583 0 0 0-.809 0A.583.583 0 0 0 0 0" style="fill:#a6a6a6;fill-opacity:1;fill-rule:nonzero;stroke:none" transform="translate(206.735 97.259)"/><path d="M0 0c.227.227.567.242.793.016a.567.567 0 0 0 0-.809.58.58 0 0 0-.809 0C-.242-.567-.21-.21 0 0" style="fill:#a6a6a6;fill-opacity:1;fill-rule:nonzero;stroke:none" transform="translate(205.134 98.86)"/><path d="M0 0c.227.227.567.241.793.016a.566.566 0 0 0 0-.809.58.58 0 0 0-.809 0C-.241-.567-.21-.211 0 0" style="fill:#a6a6a6;fill-opacity:1;fill-rule:nonzero;stroke:none" transform="translate(203.516 100.478)"/><path d="M0 0a.567.567 0 0 0-.31.747.567.567 0 0 0 .748.31.58.58 0 0 0 .31-.747A.584.584 0 0 0 0 0" style="fill:#a6a6a6;fill-opacity:1;fill-rule:nonzero;stroke:none" transform="translate(216.16 102.03)"/><path d="M0 0a.566.566 0 0 0-.31.747.567.567 0 0 0 .747.31.58.58 0 0 0 .31-.747A.58.58 0 0 0 0 0" style="fill:#a6a6a6;fill-opacity:1;fill-rule:nonzero;stroke:none" transform="translate(215.284 99.916)"/><path d="M0 0a.57.57 0 0 0-.31.748.57.57 0 0 0 .748.31.583.583 0 0 0 .31-.748A.584.584 0 0 0 0 0" style="fill:#a6a6a6;fill-opacity:1;fill-rule:nonzero;stroke:none" transform="translate(214.408 97.802)"/><path d="M0 0a.566.566 0 0 0-.31.747.567.567 0 0 0 .747.31.58.58 0 0 0 .31-.747A.58.58 0 0 0 0 0" style="fill:#8c8c8c;fill-opacity:1;fill-rule:nonzero;stroke:none" transform="translate(213.533 95.689)"/><path d="M0 0a.566.566 0 0 0-.31.747.566.566 0 0 0 .747.31.58.58 0 0 0 .31-.747A.583.583 0 0 0 0 0" style="fill:#8c8c8c;fill-opacity:1;fill-rule:nonzero;stroke:none" transform="translate(210.031 87.233)"/><path d="M0 0a.567.567 0 0 0-.31.747.567.567 0 0 0 .747.31.58.58 0 0 0 .31-.747A.58.58 0 0 0 0 0" style="fill:#a6a6a6;fill-opacity:1;fill-rule:nonzero;stroke:none" transform="translate(209.155 85.12)"/><path d="M0 0c-.296.122-.44.431-.317.727a.57.57 0 0 0 .747.309.583.583 0 0 0 .309-.748C.617-.007.274-.114 0 0" style="fill:#a6a6a6;fill-opacity:1;fill-rule:nonzero;stroke:none" transform="translate(208.288 83.027)"/><path d="M0 0c-.297.123-.44.432-.318.727a.567.567 0 0 0 .747.309.58.58 0 0 0 .309-.747C.616-.006.274-.113 0 0" style="fill:#a6a6a6;fill-opacity:1;fill-rule:nonzero;stroke:none" transform="translate(207.413 80.913)"/><path d="M0 0a.567.567 0 0 0 .747.31.567.567 0 0 0 .31-.748.58.58 0 0 0-.747-.31A.584.584 0 0 0 0 0" style="fill:#a6a6a6;fill-opacity:1;fill-rule:nonzero;stroke:none" transform="translate(222.03 87.84)"/><path d="M0 0a.566.566 0 0 0 .747.31.567.567 0 0 0 .31-.747.58.58 0 0 0-.747-.31A.58.58 0 0 0 0 0" style="fill:#a6a6a6;fill-opacity:1;fill-rule:nonzero;stroke:none" transform="translate(219.916 88.716)"/><path d="M0 0a.57.57 0 0 0 .748.31.57.57 0 0 0 .31-.748.583.583 0 0 0-.748-.31A.584.584 0 0 0 0 0" style="fill:#a6a6a6;fill-opacity:1;fill-rule:nonzero;stroke:none" transform="translate(217.802 89.592)"/><path d="M0 0a.566.566 0 0 0 .747.31.567.567 0 0 0 .31-.747.58.58 0 0 0-.747-.31A.58.58 0 0 0 0 0" style="fill:#8c8c8c;fill-opacity:1;fill-rule:nonzero;stroke:none" transform="translate(215.689 90.467)"/><path d="M0 0a.566.566 0 0 0 .747.31.566.566 0 0 0 .31-.747.58.58 0 0 0-.747-.31A.583.583 0 0 0 0 0" style="fill:#8c8c8c;fill-opacity:1;fill-rule:nonzero;stroke:none" transform="translate(207.233 93.969)"/><path d="M0 0a.567.567 0 0 0 .747.31.567.567 0 0 0 .31-.747.58.58 0 0 0-.747-.31A.58.58 0 0 0 0 0" style="fill:#a6a6a6;fill-opacity:1;fill-rule:nonzero;stroke:none" transform="translate(205.12 94.845)"/><path d="M0 0c.122.296.431.44.727.317a.57.57 0 0 0 .309-.747.583.583 0 0 0-.748-.309C-.007-.617-.114-.274 0 0" style="fill:#a6a6a6;fill-opacity:1;fill-rule:nonzero;stroke:none" transform="translate(203.027 95.712)"/><path d="M0 0c.123.297.432.44.727.318a.567.567 0 0 0 .309-.747.58.58 0 0 0-.747-.309C-.006-.616-.113-.274 0 0" style="fill:#a6a6a6;fill-opacity:1;fill-rule:nonzero;stroke:none" transform="translate(200.913 96.587)"/><path d="M0 0a.57.57 0 0 0 .31.748.567.567 0 0 0 .747-.31.58.58 0 0 0-.31-.748A.583.583 0 0 0 0 0" style="fill:#a6a6a6;fill-opacity:1;fill-rule:nonzero;stroke:none" transform="translate(222.033 96.156)"/><path d="M0 0a.566.566 0 0 0 .31.747.567.567 0 0 0 .747-.31.583.583 0 0 0-.31-.747A.58.58 0 0 0 0 0" style="fill:#a6a6a6;fill-opacity:1;fill-rule:nonzero;stroke:none" transform="translate(219.92 95.281)"/><path d="M0 0a.57.57 0 0 0 .31.748.567.567 0 0 0 .747-.31.58.58 0 0 0-.31-.748A.583.583 0 0 0 0 0" style="fill:#a6a6a6;fill-opacity:1;fill-rule:nonzero;stroke:none" transform="translate(217.806 94.405)"/><path d="M0 0a.566.566 0 0 0 .31.747.567.567 0 0 0 .747-.31.583.583 0 0 0-.31-.747A.58.58 0 0 0 0 0" style="fill:#8c8c8c;fill-opacity:1;fill-rule:nonzero;stroke:none" transform="translate(215.692 93.53)"/><path d="M0 0a.567.567 0 0 0 .31.747.567.567 0 0 0 .747-.31.58.58 0 0 0-.31-.747A.583.583 0 0 0 0 0" style="fill:#8c8c8c;fill-opacity:1;fill-rule:nonzero;stroke:none" transform="translate(207.237 90.028)"/><path d="M0 0a.565.565 0 0 0 .31.747.566.566 0 0 0 .747-.31.583.583 0 0 0-.31-.747A.58.58 0 0 0 0 0" style="fill:#a6a6a6;fill-opacity:1;fill-rule:nonzero;stroke:none" transform="translate(205.124 89.152)"/><path d="M0 0c-.122.297-.006.617.289.739A.567.567 0 0 0 1.037.43a.583.583 0 0 0-.309-.747C.432-.44.114-.274 0 0" style="fill:#a6a6a6;fill-opacity:1;fill-rule:nonzero;stroke:none" transform="translate(203.03 88.285)"/><path d="M0 0c-.123.296-.006.616.289.738a.565.565 0 0 0 .747-.309.58.58 0 0 0-.309-.747C.432-.44.113-.274 0 0" style="fill:#a6a6a6;fill-opacity:1;fill-rule:nonzero;stroke:none" transform="translate(200.917 87.41)"/><path d="M0 0a.57.57 0 0 0 .748-.31.567.567 0 0 0-.31-.747.58.58 0 0 0-.748.31A.583.583 0 0 0 0 0" style="fill:#a6a6a6;fill-opacity:1;fill-rule:nonzero;stroke:none" transform="translate(216.156 81.967)"/><path d="M0 0a.566.566 0 0 0 .747-.31.567.567 0 0 0-.31-.747.583.583 0 0 0-.747.31A.58.58 0 0 0 0 0" style="fill:#a6a6a6;fill-opacity:1;fill-rule:nonzero;stroke:none" transform="translate(215.281 84.08)"/><path d="M0 0a.57.57 0 0 0 .748-.31.567.567 0 0 0-.31-.747.58.58 0 0 0-.748.31A.583.583 0 0 0 0 0" style="fill:#a6a6a6;fill-opacity:1;fill-rule:nonzero;stroke:none" transform="translate(214.405 86.194)"/><path d="M0 0a.566.566 0 0 0 .747-.31.567.567 0 0 0-.31-.747.583.583 0 0 0-.747.31A.58.58 0 0 0 0 0" style="fill:#8c8c8c;fill-opacity:1;fill-rule:nonzero;stroke:none" transform="translate(213.53 88.308)"/><path d="M0 0a.567.567 0 0 0 .747-.31.567.567 0 0 0-.31-.747.58.58 0 0 0-.747.31A.583.583 0 0 0 0 0" style="fill:#8c8c8c;fill-opacity:1;fill-rule:nonzero;stroke:none" transform="translate(210.028 96.763)"/><path d="M0 0a.565.565 0 0 0 .747-.31.566.566 0 0 0-.31-.747.583.583 0 0 0-.747.31A.58.58 0 0 0 0 0" style="fill:#a6a6a6;fill-opacity:1;fill-rule:nonzero;stroke:none" transform="translate(209.152 98.876)"/><path d="M0 0c.297.122.617.006.739-.289a.567.567 0 0 0-.309-.748.583.583 0 0 0-.747.309C-.44-.432-.274-.114 0 0" style="fill:#a6a6a6;fill-opacity:1;fill-rule:nonzero;stroke:none" transform="translate(208.285 100.97)"/><path d="M0 0c.296.123.616.006.738-.289a.565.565 0 0 0-.309-.747.58.58 0 0 0-.747.309C-.44-.432-.274-.113 0 0" style="fill:#a6a6a6;fill-opacity:1;fill-rule:nonzero;stroke:none" transform="translate(207.41 103.083)"/><path d="M0 0a2 2 0 0 0-2 2v6h4V2a2 2 0 0 0-2-2" style="fill:red;fill-opacity:1;fill-rule:nonzero;stroke:none" transform="translate(128 186)"/></g></svg>