<svg xmlns="http://www.w3.org/2000/svg" xml:space="preserve" width="332.575" height="202.667" viewBox="0 0 332.575 202.667"><defs><clipPath id="a" clipPathUnits="userSpaceOnUse"><path d="M0 256h256V0H0Z"/></clipPath><clipPath id="b" clipPathUnits="userSpaceOnUse"><path d="M3.284 204h249.432V52H3.284Z"/></clipPath><clipPath id="c" clipPathUnits="userSpaceOnUse"><path d="M0 256h256V0H0Z"/></clipPath></defs><g clip-path="url(#a)" transform="matrix(1.33333 0 0 -1.33333 -4.38 272)"><g clip-path="url(#b)" style="opacity:.5"><path d="M0 0h-195.088l-1.947-5.191-24-64-1.224-3.267 1.56-3.12 36-72 2.211-4.422H-12.6l2.211 4.422 36 72 1.561 3.12-1.226 3.267-24 64z" style="fill:#fff;fill-opacity:1;fill-rule:nonzero;stroke:none" transform="translate(225.544 204)"/></g></g><path d="M0 0h-184l-24-64 36-72h160l36 72z" style="fill:#737373;fill-opacity:1;fill-rule:nonzero;stroke:none" transform="matrix(1.33333 0 0 -1.33333 288.953 10.667)"/><path d="m0 0 88 124H-88Z" style="fill:#354f9f;fill-opacity:1;fill-rule:nonzero;stroke:none" transform="matrix(1.33333 0 0 -1.33333 166.287 181.333)"/><g clip-path="url(#c)" transform="matrix(1.33333 0 0 -1.33333 -4.38 272)"><path d="M0 0h-84a2 2 0 0 0-2 2v64a2 2 0 0 0 2 2H0a2 2 0 0 0 2-2V2a2 2 0 0 0-2-2" style="fill:#666;fill-opacity:1;fill-rule:nonzero;stroke:none" transform="translate(170 88)"/><path d="M168 92H88v60h80z" style="fill:gray;fill-opacity:1;fill-rule:nonzero;stroke:none"/><path d="M0 0h-8a8 8 0 0 0 0 16h8A8 8 0 0 0 0 0" style="fill:red;fill-opacity:1;fill-rule:nonzero;stroke:none" transform="translate(208 112)"/><path d="M0 0h-8a2 2 0 0 0 0 4h8a2 2 0 0 0 0-4" style="fill:#3096cf;fill-opacity:1;fill-rule:nonzero;stroke:none" transform="translate(198 140)"/><path d="M0 0h-8a2 2 0 0 0 0 4h8a2 2 0 0 0 0-4" style="fill:#3096cf;fill-opacity:1;fill-rule:nonzero;stroke:none" transform="translate(218 140)"/><path d="m0 0-2.838 3.999a2 2 0 0 1-1.631.843c-1.625 0-2.572-1.833-1.632-3.158l2.839-3.999a2 2 0 0 1 1.631-.843C-.007-3.158.94-1.325 0 0" style="fill:#4c4c4c;fill-opacity:1;fill-rule:nonzero;stroke:none" transform="translate(114.473 75.158)"/><path d="m0 0-2.838 3.999a2 2 0 0 1-1.631.843c-1.625 0-2.572-1.833-1.632-3.158l2.839-3.999a2 2 0 0 1 1.631-.843C-.007-3.158.94-1.325 0 0" style="fill:#4c4c4c;fill-opacity:1;fill-rule:nonzero;stroke:none" transform="translate(106.473 75.158)"/><path d="m0 0-2.838 3.999a2 2 0 0 1-1.631.843c-1.625 0-2.572-1.833-1.632-3.158l2.839-3.999a2 2 0 0 1 1.631-.843C-.007-3.158.94-1.325 0 0" style="fill:#4c4c4c;fill-opacity:1;fill-rule:nonzero;stroke:none" transform="translate(98.473 75.158)"/><path d="m0 0-2.839-3.999a2 2 0 0 0-1.631-.843c-1.624 0-2.571 1.833-1.632 3.158l2.839 3.999a2 2 0 0 0 1.631.843C-.008 3.158.939 1.325 0 0" style="fill:#4c4c4c;fill-opacity:1;fill-rule:nonzero;stroke:none" transform="translate(163.628 76.842)"/><path d="m0 0-2.839-3.999a2 2 0 0 0-1.631-.843c-1.624 0-2.571 1.833-1.632 3.158l2.839 3.999a2 2 0 0 0 1.631.843C-.008 3.158.939 1.325 0 0" style="fill:#4c4c4c;fill-opacity:1;fill-rule:nonzero;stroke:none" transform="translate(155.628 76.842)"/><path d="m0 0-2.839-3.999a2 2 0 0 0-1.631-.843c-1.624 0-2.571 1.833-1.632 3.158l2.839 3.999a2 2 0 0 0 1.631.843C-.008 3.158.939 1.325 0 0" style="fill:#4c4c4c;fill-opacity:1;fill-rule:nonzero;stroke:none" transform="translate(147.628 76.842)"/><path d="m0 0-6 6h-9.172V-6H-6Z" style="fill:red;fill-opacity:1;fill-rule:nonzero;stroke:none" transform="translate(51.172 122)"/><path d="m0 0 6 6v9.172H-6V6Z" style="fill:red;fill-opacity:1;fill-rule:nonzero;stroke:none" transform="translate(54 124.828)"/><path d="m0 0-6-6v-9.172H6V-6Z" style="fill:red;fill-opacity:1;fill-rule:nonzero;stroke:none" transform="translate(54 119.172)"/><path d="m0 0-6-6 6-6h9.172V0Z" style="fill:red;fill-opacity:1;fill-rule:nonzero;stroke:none" transform="translate(62.828 128)"/><path d="M0 0a2 2 0 1 0-4.001.001A2 2 0 0 0 0 0" style="fill:#3096cf;fill-opacity:1;fill-rule:nonzero;stroke:none" transform="translate(204 102)"/></g></svg>