<?xml version="1.0" encoding="UTF-8" standalone="no"?>
<svg
   xmlns:dc="http://purl.org/dc/elements/1.1/"
   xmlns:cc="http://creativecommons.org/ns#"
   xmlns:rdf="http://www.w3.org/1999/02/22-rdf-syntax-ns#"
   xmlns:svg="http://www.w3.org/2000/svg"
   xmlns="http://www.w3.org/2000/svg"
   viewBox="0 0 332.57464 202.66665"
   height="202.66666"
   width="332.57465"
   xml:space="preserve"
   id="svg2"
   version="1.1"><metadata
     id="metadata8"><rdf:RDF><cc:Work
         rdf:about=""><dc:format>image/svg+xml</dc:format><dc:type
           rdf:resource="http://purl.org/dc/dcmitype/StillImage" /></cc:Work></rdf:RDF></metadata><defs
     id="defs6"><clipPath
       id="clipPath18"
       clipPathUnits="userSpaceOnUse"><path
         id="path16"
         d="M 0,256 H 256 V 0 H 0 Z" /></clipPath><clipPath
       id="clipPath26"
       clipPathUnits="userSpaceOnUse"><path
         id="path24"
         d="M 3.28445,204 H 252.716 V 52 H 3.28445 Z" /></clipPath><clipPath
       id="clipPath50"
       clipPathUnits="userSpaceOnUse"><path
         id="path48"
         d="M 0,256 H 256 V 0 H 0 Z" /></clipPath></defs><g
     transform="matrix(1.3333333,0,0,-1.3333333,-4.3798666,271.99999)"
     id="g10"><g
       id="g12"><g
         clip-path="url(#clipPath18)"
         id="g14"><g
           id="g20"><g
             id="g22" /><g
             id="g34"><g
               style="opacity:0.5"
               id="g32"
               clip-path="url(#clipPath26)"><g
                 id="g30"
                 transform="translate(225.5439,204)"><path
                   id="path28"
                   style="fill:#ffffff;fill-opacity:1;fill-rule:nonzero;stroke:none"
                   d="m 0,0 h -5.544 -184 -5.544 l -1.947,-5.191 -24,-64 -1.224,-3.267 1.56,-3.12 36,-72 2.211,-4.422 h 4.944 160 4.944 l 2.211,4.422 36,72 1.561,3.12 -1.226,3.267 -24,64 z" /></g></g></g></g></g></g><g
       transform="translate(220,196)"
       id="g36"><path
         id="path38"
         style="fill:#737373;fill-opacity:1;fill-rule:nonzero;stroke:none"
         d="m 0,0 h -184 l -24,-64 36,-72 h 160 l 36,72 z" /></g><g
       transform="translate(128,68)"
       id="g40"><path
         id="path42"
         style="fill:#354f9f;fill-opacity:1;fill-rule:nonzero;stroke:none"
         d="M 0,0 88,124 H -88 Z" /></g><g
       id="g44"><g
         clip-path="url(#clipPath50)"
         id="g46"><g
           transform="translate(170,88)"
           id="g52"><path
             id="path54"
             style="fill:#666666;fill-opacity:1;fill-rule:nonzero;stroke:none"
             d="m 0,0 h -84 c -1.104,0 -2,0.896 -2,2 v 64 c 0,1.104 0.896,2 2,2 H 0 c 1.104,0 2,-0.896 2,-2 V 2 C 2,0.896 1.104,0 0,0" /></g><path
           id="path56"
           style="fill:#808080;fill-opacity:1;fill-rule:nonzero;stroke:none"
           d="M 168,92 H 88 v 60 h 80 z" /><g
           transform="translate(208,112)"
           id="g58"><path
             id="path60"
             style="fill:#ff0000;fill-opacity:1;fill-rule:nonzero;stroke:none"
             d="m 0,0 h -8 c -4.418,0 -8,3.582 -8,8 0,4.418 3.582,8 8,8 H 0 C 4.418,16 8,12.418 8,8 8,3.582 4.418,0 0,0" /></g><g
           transform="translate(198,140)"
           id="g62"><path
             id="path64"
             style="fill:#3096cf;fill-opacity:1;fill-rule:nonzero;stroke:none"
             d="m 0,0 h -8 c -1.104,0 -2,0.896 -2,2 0,1.104 0.896,2 2,2 H 0 C 1.104,4 2,3.104 2,2 2,0.896 1.104,0 0,0" /></g><g
           transform="translate(218,140)"
           id="g66"><path
             id="path68"
             style="fill:#3096cf;fill-opacity:1;fill-rule:nonzero;stroke:none"
             d="m 0,0 h -8 c -1.104,0 -2,0.896 -2,2 0,1.104 0.896,2 2,2 H 0 C 1.104,4 2,3.104 2,2 2,0.896 1.104,0 0,0" /></g><g
           transform="translate(114.4731,75.1582)"
           id="g70"><path
             id="path72"
             style="fill:#4c4c4c;fill-opacity:1;fill-rule:nonzero;stroke:none"
             d="m 0,0 -2.838,3.999 c -0.375,0.528 -0.983,0.843 -1.631,0.843 -1.625,0 -2.572,-1.833 -1.632,-3.158 l 2.839,-3.999 c 0.375,-0.529 0.983,-0.843 1.631,-0.843 1.624,0 2.571,1.833 1.631,3.158" /></g><g
           transform="translate(106.4731,75.1582)"
           id="g74"><path
             id="path76"
             style="fill:#4c4c4c;fill-opacity:1;fill-rule:nonzero;stroke:none"
             d="m 0,0 -2.838,3.999 c -0.375,0.528 -0.983,0.843 -1.631,0.843 -1.625,0 -2.572,-1.833 -1.632,-3.158 l 2.839,-3.999 c 0.375,-0.529 0.983,-0.843 1.631,-0.843 1.624,0 2.571,1.833 1.631,3.158" /></g><g
           transform="translate(98.4731,75.1582)"
           id="g78"><path
             id="path80"
             style="fill:#4c4c4c;fill-opacity:1;fill-rule:nonzero;stroke:none"
             d="m 0,0 -2.838,3.999 c -0.375,0.528 -0.983,0.843 -1.631,0.843 -1.625,0 -2.572,-1.833 -1.632,-3.158 l 2.839,-3.999 c 0.375,-0.529 0.983,-0.843 1.631,-0.843 1.624,0 2.571,1.833 1.631,3.158" /></g><g
           transform="translate(163.6279,76.8418)"
           id="g82"><path
             id="path84"
             style="fill:#4c4c4c;fill-opacity:1;fill-rule:nonzero;stroke:none"
             d="m 0,0 -2.839,-3.999 c -0.375,-0.528 -0.983,-0.843 -1.631,-0.843 -1.624,0 -2.571,1.833 -1.632,3.158 l 2.839,3.999 c 0.375,0.529 0.984,0.843 1.631,0.843 C -0.008,3.158 0.939,1.325 0,0" /></g><g
           transform="translate(155.6279,76.8418)"
           id="g86"><path
             id="path88"
             style="fill:#4c4c4c;fill-opacity:1;fill-rule:nonzero;stroke:none"
             d="m 0,0 -2.839,-3.999 c -0.375,-0.528 -0.983,-0.843 -1.631,-0.843 -1.624,0 -2.571,1.833 -1.632,3.158 l 2.839,3.999 c 0.375,0.529 0.984,0.843 1.631,0.843 C -0.008,3.158 0.939,1.325 0,0" /></g><g
           transform="translate(147.6279,76.8418)"
           id="g90"><path
             id="path92"
             style="fill:#4c4c4c;fill-opacity:1;fill-rule:nonzero;stroke:none"
             d="m 0,0 -2.839,-3.999 c -0.375,-0.528 -0.983,-0.843 -1.631,-0.843 -1.624,0 -2.571,1.833 -1.632,3.158 l 2.839,3.999 c 0.375,0.529 0.984,0.843 1.631,0.843 C -0.008,3.158 0.939,1.325 0,0" /></g><g
           transform="translate(51.1719,122)"
           id="g94"><path
             id="path96"
             style="fill:#ff0000;fill-opacity:1;fill-rule:nonzero;stroke:none"
             d="m 0,0 -6,6 h -9.172 V -6 H -6 Z" /></g><g
           transform="translate(54,124.8281)"
           id="g98"><path
             id="path100"
             style="fill:#ff0000;fill-opacity:1;fill-rule:nonzero;stroke:none"
             d="m 0,0 6,6 v 9.172 H -6 V 6 Z" /></g><g
           transform="translate(54,119.1719)"
           id="g102"><path
             id="path104"
             style="fill:#ff0000;fill-opacity:1;fill-rule:nonzero;stroke:none"
             d="m 0,0 -6,-6 v -9.172 H 6 V -6 Z" /></g><g
           transform="translate(62.8281,128)"
           id="g106"><path
             id="path108"
             style="fill:#ff0000;fill-opacity:1;fill-rule:nonzero;stroke:none"
             d="m 0,0 -6,-6 6,-6 H 9.172 V 0 Z" /></g><g
           transform="translate(204,102)"
           id="g110"><path
             id="path112"
             style="fill:#3096cf;fill-opacity:1;fill-rule:nonzero;stroke:none"
             d="m 0,0 c 0,-1.104 -0.896,-2 -2,-2 -1.104,0 -2,0.896 -2,2 0,1.104 0.896,2 2,2 1.104,0 2,-0.896 2,-2" /></g></g></g></g></svg>