<svg xmlns="http://www.w3.org/2000/svg" xml:space="preserve" viewBox="0 0 256 256"><path d="M252 32H4v196h248z" style="opacity:.5;fill:#fff"/><path d="M12 40h232v180H12z" style="fill:#d9d4bc"/><path d="M28 208h200v12H28z" style="fill:gray"/><path d="M17 70a1 1 0 0 1 0-2 1 1 0 0 1 0 2m0 4a1 1 0 0 1 0-2 1 1 0 0 1 0 2m0 4a1 1 0 0 1 0-2 1 1 0 0 1 0 2m0 4a1 1 0 0 1 0-2 1 1 0 0 1 0 2m0 4a1 1 0 0 1 0-2 1 1 0 0 1 0 2m0 4a1 1 0 0 1 0-2 1 1 0 0 1 0 2m0 4a1 1 0 0 1 0-2 1 1 0 0 1 0 2m0 4a1 1 0 0 1 0-2 1 1 0 0 1 0 2m0 4a1 1 0 0 1 0-2 1 1 0 0 1 0 2m0 4a1 1 0 0 1 0-2 1 1 0 0 1 0 2m0 4a1 1 0 0 1 0-2 1 1 0 0 1 0 2m0 4a1 1 0 0 1 0-2 1 1 0 0 1 0 2m0 4a1 1 0 0 1 0-2 1 1 0 0 1 0 2m0 4a1 1 0 0 1 0-2 1 1 0 0 1 0 2m0 4a1 1 0 0 1 0-2 1 1 0 0 1 0 2m0 4a1 1 0 0 1 0-2 1 1 0 0 1 0 2m0 4a1 1 0 0 1 0-2 1 1 0 0 1 0 2m0 4a1 1 0 0 1 0-2 1 1 0 0 1 0 2m0 4a1 1 0 0 1 0-2 1 1 0 0 1 0 2m0 4a1 1 0 0 1 0-2 1 1 0 0 1 0 2m0 4a1 1 0 0 1 0-2 1 1 0 0 1 0 2m0 4a1 1 0 0 1 0-2 1 1 0 0 1 0 2m0 4a1 1 0 0 1 0-2 1 1 0 0 1 0 2m0 4a1 1 0 0 1 0-2 1 1 0 0 1 0 2m0 4a1 1 0 0 1 0-2 1 1 0 0 1 0 2m0 4a1 1 0 0 1 0-2 1 1 0 0 1 0 2m0 4a1 1 0 0 1 0-2 1 1 0 0 1 0 2m0 4a1 1 0 0 1 0-2 1 1 0 0 1 0 2m0 4a1 1 0 0 1 0-2 1 1 0 0 1 0 2m0 4a1 1 0 0 1 0-2 1 1 0 0 1 0 2m0 4a1 1 0 0 1 0-2 1 1 0 0 1 0 2m0 4a1 1 0 0 1 0-2 1 1 0 0 1 0 2m4-124a1 1 0 0 1 0-2 1 1 0 0 1 0 2m0 4a1 1 0 0 1 0-2 1 1 0 0 1 0 2m0 4a1 1 0 0 1 0-2 1 1 0 0 1 0 2m0 4a1 1 0 0 1 0-2 1 1 0 0 1 0 2m0 4a1 1 0 0 1 0-2 1 1 0 0 1 0 2m0 4a1 1 0 0 1 0-2 1 1 0 0 1 0 2m0 4a1 1 0 0 1 0-2 1 1 0 0 1 0 2m0 4a1 1 0 0 1 0-2 1 1 0 0 1 0 2m0 4a1 1 0 0 1 0-2 1 1 0 0 1 0 2m0 4a1 1 0 0 1 0-2 1 1 0 0 1 0 2m0 4a1 1 0 0 1 0-2 1 1 0 0 1 0 2m0 4a1 1 0 0 1 0-2 1 1 0 0 1 0 2m0 4a1 1 0 0 1 0-2 1 1 0 0 1 0 2m0 4a1 1 0 0 1 0-2 1 1 0 0 1 0 2m0 4a1 1 0 0 1 0-2 1 1 0 0 1 0 2m0 4a1 1 0 0 1 0-2 1 1 0 0 1 0 2m0 4a1 1 0 0 1 0-2 1 1 0 0 1 0 2m0 4a1 1 0 0 1 0-2 1 1 0 0 1 0 2m0 4a1 1 0 0 1 0-2 1 1 0 0 1 0 2m0 4a1 1 0 0 1 0-2 1 1 0 0 1 0 2m0 4a1 1 0 0 1 0-2 1 1 0 0 1 0 2m0 4a1 1 0 0 1 0-2 1 1 0 0 1 0 2m0 4a1 1 0 0 1 0-2 1 1 0 0 1 0 2m0 4a1 1 0 0 1 0-2 1 1 0 0 1 0 2m0 4a1 1 0 0 1 0-2 1 1 0 0 1 0 2m0 4a1 1 0 0 1 0-2 1 1 0 0 1 0 2m0 4a1 1 0 0 1 0-2 1 1 0 0 1 0 2m0 4a1 1 0 0 1 0-2 1 1 0 0 1 0 2m0 4a1 1 0 0 1 0-2 1 1 0 0 1 0 2m0 4a1 1 0 0 1 0-2 1 1 0 0 1 0 2m0 4a1 1 0 0 1 0-2 1 1 0 0 1 0 2m0 4a1 1 0 0 1 0-2 1 1 0 0 1 0 2m4-124a1 1 0 0 1 0-2 1 1 0 0 1 0 2m0 4a1 1 0 0 1 0-2 1 1 0 0 1 0 2m0 4a1 1 0 0 1 0-2 1 1 0 0 1 0 2m0 4a1 1 0 0 1 0-2 1 1 0 0 1 0 2m0 4a1 1 0 0 1 0-2 1 1 0 0 1 0 2m0 4a1 1 0 0 1 0-2 1 1 0 0 1 0 2m0 4a1 1 0 0 1 0-2 1 1 0 0 1 0 2m0 4a1 1 0 0 1 0-2 1 1 0 0 1 0 2m0 4a1 1 0 0 1 0-2 1 1 0 0 1 0 2m0 4a1 1 0 0 1 0-2 1 1 0 0 1 0 2m0 4a1 1 0 0 1 0-2 1 1 0 0 1 0 2m0 4a1 1 0 0 1 0-2 1 1 0 0 1 0 2m0 4a1 1 0 0 1 0-2 1 1 0 0 1 0 2m0 4a1 1 0 0 1 0-2 1 1 0 0 1 0 2m0 4a1 1 0 0 1 0-2 1 1 0 0 1 0 2m0 4a1 1 0 0 1 0-2 1 1 0 0 1 0 2m0 4a1 1 0 0 1 0-2 1 1 0 0 1 0 2m0 4a1 1 0 0 1 0-2 1 1 0 0 1 0 2m0 4a1 1 0 0 1 0-2 1 1 0 0 1 0 2m0 4a1 1 0 0 1 0-2 1 1 0 0 1 0 2m0 4a1 1 0 0 1 0-2 1 1 0 0 1 0 2m0 4a1 1 0 0 1 0-2 1 1 0 0 1 0 2m0 4a1 1 0 0 1 0-2 1 1 0 0 1 0 2m0 4a1 1 0 0 1 0-2 1 1 0 0 1 0 2m0 4a1 1 0 0 1 0-2 1 1 0 0 1 0 2m0 4a1 1 0 0 1 0-2 1 1 0 0 1 0 2m0 4a1 1 0 0 1 0-2 1 1 0 0 1 0 2m0 4a1 1 0 0 1 0-2 1 1 0 0 1 0 2m0 4a1 1 0 0 1 0-2 1 1 0 0 1 0 2m0 4a1 1 0 0 1 0-2 1 1 0 0 1 0 2m0 4a1 1 0 0 1 0-2 1 1 0 0 1 0 2m0 4a1 1 0 0 1 0-2 1 1 0 0 1 0 2m4-124a1 1 0 0 1 0-2 1 1 0 0 1 0 2m0 4a1 1 0 0 1 0-2 1 1 0 0 1 0 2m0 4a1 1 0 0 1 0-2 1 1 0 0 1 0 2m0 4a1 1 0 0 1 0-2 1 1 0 0 1 0 2m0 4a1 1 0 0 1 0-2 1 1 0 0 1 0 2m0 4a1 1 0 0 1 0-2 1 1 0 0 1 0 2m0 4a1 1 0 0 1 0-2 1 1 0 0 1 0 2m0 4a1 1 0 0 1 0-2 1 1 0 0 1 0 2m0 4a1 1 0 0 1 0-2 1 1 0 0 1 0 2m0 4a1 1 0 0 1 0-2 1 1 0 0 1 0 2m0 4a1 1 0 0 1 0-2 1 1 0 0 1 0 2m0 4a1 1 0 0 1 0-2 1 1 0 0 1 0 2m0 4a1 1 0 0 1 0-2 1 1 0 0 1 0 2m0 4a1 1 0 0 1 0-2 1 1 0 0 1 0 2m0 4a1 1 0 0 1 0-2 1 1 0 0 1 0 2m0 4a1 1 0 0 1 0-2 1 1 0 0 1 0 2m0 4a1 1 0 0 1 0-2 1 1 0 0 1 0 2m0 4a1 1 0 0 1 0-2 1 1 0 0 1 0 2m0 4a1 1 0 0 1 0-2 1 1 0 0 1 0 2m0 4a1 1 0 0 1 0-2 1 1 0 0 1 0 2m0 4a1 1 0 0 1 0-2 1 1 0 0 1 0 2m0 4a1 1 0 0 1 0-2 1 1 0 0 1 0 2m0 4a1 1 0 0 1 0-2 1 1 0 0 1 0 2m0 4a1 1 0 0 1 0-2 1 1 0 0 1 0 2m0 4a1 1 0 0 1 0-2 1 1 0 0 1 0 2m0 4a1 1 0 0 1 0-2 1 1 0 0 1 0 2m0 4a1 1 0 0 1 0-2 1 1 0 0 1 0 2m0 4a1 1 0 0 1 0-2 1 1 0 0 1 0 2m0 4a1 1 0 0 1 0-2 1 1 0 0 1 0 2m0 4a1 1 0 0 1 0-2 1 1 0 0 1 0 2m0 4a1 1 0 0 1 0-2 1 1 0 0 1 0 2m0 4a1 1 0 0 1 0-2 1 1 0 0 1 0 2M227 70a1 1 0 0 1 0-2 1 1 0 0 1 0 2m0 4a1 1 0 0 1 0-2 1 1 0 0 1 0 2m0 4a1 1 0 0 1 0-2 1 1 0 0 1 0 2m0 4a1 1 0 0 1 0-2 1 1 0 0 1 0 2m0 4a1 1 0 0 1 0-2 1 1 0 0 1 0 2m0 4a1 1 0 0 1 0-2 1 1 0 0 1 0 2m0 4a1 1 0 0 1 0-2 1 1 0 0 1 0 2m0 4a1 1 0 0 1 0-2 1 1 0 0 1 0 2m0 4a1 1 0 0 1 0-2 1 1 0 0 1 0 2m0 4a1 1 0 0 1 0-2 1 1 0 0 1 0 2m0 4a1 1 0 0 1 0-2 1 1 0 0 1 0 2m0 4a1 1 0 0 1 0-2 1 1 0 0 1 0 2m0 4a1 1 0 0 1 0-2 1 1 0 0 1 0 2m0 4a1 1 0 0 1 0-2 1 1 0 0 1 0 2m0 4a1 1 0 0 1 0-2 1 1 0 0 1 0 2m0 4a1 1 0 0 1 0-2 1 1 0 0 1 0 2m0 4a1 1 0 0 1 0-2 1 1 0 0 1 0 2m0 4a1 1 0 0 1 0-2 1 1 0 0 1 0 2m0 4a1 1 0 0 1 0-2 1 1 0 0 1 0 2m0 4a1 1 0 0 1 0-2 1 1 0 0 1 0 2m0 4a1 1 0 0 1 0-2 1 1 0 0 1 0 2m0 4a1 1 0 0 1 0-2 1 1 0 0 1 0 2m0 4a1 1 0 0 1 0-2 1 1 0 0 1 0 2m0 4a1 1 0 0 1 0-2 1 1 0 0 1 0 2m0 4a1 1 0 0 1 0-2 1 1 0 0 1 0 2m0 4a1 1 0 0 1 0-2 1 1 0 0 1 0 2m0 4a1 1 0 0 1 0-2 1 1 0 0 1 0 2m0 4a1 1 0 0 1 0-2 1 1 0 0 1 0 2m0 4a1 1 0 0 1 0-2 1 1 0 0 1 0 2m0 4a1 1 0 0 1 0-2 1 1 0 0 1 0 2m0 4a1 1 0 0 1 0-2 1 1 0 0 1 0 2m0 4a1 1 0 0 1 0-2 1 1 0 0 1 0 2m4-124a1 1 0 0 1 0-2 1 1 0 0 1 0 2m0 4a1 1 0 0 1 0-2 1 1 0 0 1 0 2m0 4a1 1 0 0 1 0-2 1 1 0 0 1 0 2m0 4a1 1 0 0 1 0-2 1 1 0 0 1 0 2m0 4a1 1 0 0 1 0-2 1 1 0 0 1 0 2m0 4a1 1 0 0 1 0-2 1 1 0 0 1 0 2m0 4a1 1 0 0 1 0-2 1 1 0 0 1 0 2m0 4a1 1 0 0 1 0-2 1 1 0 0 1 0 2m0 4a1 1 0 0 1 0-2 1 1 0 0 1 0 2m0 4a1 1 0 0 1 0-2 1 1 0 0 1 0 2m0 4a1 1 0 0 1 0-2 1 1 0 0 1 0 2m0 4a1 1 0 0 1 0-2 1 1 0 0 1 0 2m0 4a1 1 0 0 1 0-2 1 1 0 0 1 0 2m0 4a1 1 0 0 1 0-2 1 1 0 0 1 0 2m0 4a1 1 0 0 1 0-2 1 1 0 0 1 0 2m0 4a1 1 0 0 1 0-2 1 1 0 0 1 0 2m0 4a1 1 0 0 1 0-2 1 1 0 0 1 0 2m0 4a1 1 0 0 1 0-2 1 1 0 0 1 0 2m0 4a1 1 0 0 1 0-2 1 1 0 0 1 0 2m0 4a1 1 0 0 1 0-2 1 1 0 0 1 0 2m0 4a1 1 0 0 1 0-2 1 1 0 0 1 0 2m0 4a1 1 0 0 1 0-2 1 1 0 0 1 0 2m0 4a1 1 0 0 1 0-2 1 1 0 0 1 0 2m0 4a1 1 0 0 1 0-2 1 1 0 0 1 0 2m0 4a1 1 0 0 1 0-2 1 1 0 0 1 0 2m0 4a1 1 0 0 1 0-2 1 1 0 0 1 0 2m0 4a1 1 0 0 1 0-2 1 1 0 0 1 0 2m0 4a1 1 0 0 1 0-2 1 1 0 0 1 0 2m0 4a1 1 0 0 1 0-2 1 1 0 0 1 0 2m0 4a1 1 0 0 1 0-2 1 1 0 0 1 0 2m0 4a1 1 0 0 1 0-2 1 1 0 0 1 0 2m0 4a1 1 0 0 1 0-2 1 1 0 0 1 0 2m4-124a1 1 0 0 1 0-2 1 1 0 0 1 0 2m0 4a1 1 0 0 1 0-2 1 1 0 0 1 0 2m0 4a1 1 0 0 1 0-2 1 1 0 0 1 0 2m0 4a1 1 0 0 1 0-2 1 1 0 0 1 0 2m0 4a1 1 0 0 1 0-2 1 1 0 0 1 0 2m0 4a1 1 0 0 1 0-2 1 1 0 0 1 0 2m0 4a1 1 0 0 1 0-2 1 1 0 0 1 0 2m0 4a1 1 0 0 1 0-2 1 1 0 0 1 0 2m0 4a1 1 0 0 1 0-2 1 1 0 0 1 0 2m0 4a1 1 0 0 1 0-2 1 1 0 0 1 0 2m0 4a1 1 0 0 1 0-2 1 1 0 0 1 0 2m0 4a1 1 0 0 1 0-2 1 1 0 0 1 0 2m0 4a1 1 0 0 1 0-2 1 1 0 0 1 0 2m0 4a1 1 0 0 1 0-2 1 1 0 0 1 0 2m0 4a1 1 0 0 1 0-2 1 1 0 0 1 0 2m0 4a1 1 0 0 1 0-2 1 1 0 0 1 0 2m0 4a1 1 0 0 1 0-2 1 1 0 0 1 0 2m0 4a1 1 0 0 1 0-2 1 1 0 0 1 0 2m0 4a1 1 0 0 1 0-2 1 1 0 0 1 0 2m0 4a1 1 0 0 1 0-2 1 1 0 0 1 0 2m0 4a1 1 0 0 1 0-2 1 1 0 0 1 0 2m0 4a1 1 0 0 1 0-2 1 1 0 0 1 0 2m0 4a1 1 0 0 1 0-2 1 1 0 0 1 0 2m0 4a1 1 0 0 1 0-2 1 1 0 0 1 0 2m0 4a1 1 0 0 1 0-2 1 1 0 0 1 0 2m0 4a1 1 0 0 1 0-2 1 1 0 0 1 0 2m0 4a1 1 0 0 1 0-2 1 1 0 0 1 0 2m0 4a1 1 0 0 1 0-2 1 1 0 0 1 0 2m0 4a1 1 0 0 1 0-2 1 1 0 0 1 0 2m0 4a1 1 0 0 1 0-2 1 1 0 0 1 0 2m0 4a1 1 0 0 1 0-2 1 1 0 0 1 0 2m0 4a1 1 0 0 1 0-2 1 1 0 0 1 0 2m4-124a1 1 0 0 1 0-2 1 1 0 0 1 0 2m0 4a1 1 0 0 1 0-2 1 1 0 0 1 0 2m0 4a1 1 0 0 1 0-2 1 1 0 0 1 0 2m0 4a1 1 0 0 1 0-2 1 1 0 0 1 0 2m0 4a1 1 0 0 1 0-2 1 1 0 0 1 0 2m0 4a1 1 0 0 1 0-2 1 1 0 0 1 0 2m0 4a1 1 0 0 1 0-2 1 1 0 0 1 0 2m0 4a1 1 0 0 1 0-2 1 1 0 0 1 0 2m0 4a1 1 0 0 1 0-2 1 1 0 0 1 0 2m0 4a1 1 0 0 1 0-2 1 1 0 0 1 0 2m0 4a1 1 0 0 1 0-2 1 1 0 0 1 0 2m0 4a1 1 0 0 1 0-2 1 1 0 0 1 0 2m0 4a1 1 0 0 1 0-2 1 1 0 0 1 0 2m0 4a1 1 0 0 1 0-2 1 1 0 0 1 0 2m0 4a1 1 0 0 1 0-2 1 1 0 0 1 0 2m0 4a1 1 0 0 1 0-2 1 1 0 0 1 0 2m0 4a1 1 0 0 1 0-2 1 1 0 0 1 0 2m0 4a1 1 0 0 1 0-2 1 1 0 0 1 0 2m0 4a1 1 0 0 1 0-2 1 1 0 0 1 0 2m0 4a1 1 0 0 1 0-2 1 1 0 0 1 0 2m0 4a1 1 0 0 1 0-2 1 1 0 0 1 0 2m0 4a1 1 0 0 1 0-2 1 1 0 0 1 0 2m0 4a1 1 0 0 1 0-2 1 1 0 0 1 0 2m0 4a1 1 0 0 1 0-2 1 1 0 0 1 0 2m0 4a1 1 0 0 1 0-2 1 1 0 0 1 0 2m0 4a1 1 0 0 1 0-2 1 1 0 0 1 0 2m0 4a1 1 0 0 1 0-2 1 1 0 0 1 0 2m0 4a1 1 0 0 1 0-2 1 1 0 0 1 0 2m0 4a1 1 0 0 1 0-2 1 1 0 0 1 0 2m0 4a1 1 0 0 1 0-2 1 1 0 0 1 0 2m0 4a1 1 0 0 1 0-2 1 1 0 0 1 0 2m0 4a1 1 0 0 1 0-2 1 1 0 0 1 0 2" style="fill:#595959"/><path d="M206 136H46a2 2 0 0 1-2-2l4-88a2 2 0 0 1 2-2h152a2 2 0 0 1 2 2l4 88a2 2 0 0 1-2 2" style="fill:#a6a390"/><ellipse cx="126" cy="212" rx="78" ry="4" style="fill:#262626"/><path d="M12 207h232v1H12z" style="fill:#595959"/><path d="M210 212H42a2 2 0 0 1-2-2v-76a2 2 0 0 1 2-2h168a2 2 0 0 1 2 2v76a2 2 0 0 1-2 2" style="fill:#c4c0aa"/></svg>