<?xml version="1.0" encoding="iso-8859-1"?>
<!-- Generator: Adobe Illustrator 28.0.0, SVG Export Plug-In . SVG Version: 6.00 Build 0)  -->
<svg version="1.1" id="Layer_1" xmlns="http://www.w3.org/2000/svg" xmlns:xlink="http://www.w3.org/1999/xlink" x="0px" y="0px"
	 viewBox="0 0 256 256" style="enable-background:new 0 0 256 256;" xml:space="preserve">
<path style="opacity:0.5;fill:#FFFFFF;" d="M252,32h-8H12H4v8v180v8h8h232h8v-8V40V32L252,32z"/>
<rect x="12" y="40" style="fill:#D9D4BC;" width="232" height="180"/>
<rect x="28" y="208" style="fill:#808080;" width="200" height="12"/>
<path style="fill:#595959;" d="M17,70L17,70c-0.552,0-1-0.448-1-1l0,0c0-0.552,0.448-1,1-1h0c0.552,0,1,0.448,1,1l0,0
	C18,69.552,17.552,70,17,70z"/>
<path style="fill:#595959;" d="M17,74L17,74c-0.552,0-1-0.448-1-1l0,0c0-0.552,0.448-1,1-1h0c0.552,0,1,0.448,1,1l0,0
	C18,73.552,17.552,74,17,74z"/>
<path style="fill:#595959;" d="M17,78L17,78c-0.552,0-1-0.448-1-1l0,0c0-0.552,0.448-1,1-1h0c0.552,0,1,0.448,1,1l0,0
	C18,77.552,17.552,78,17,78z"/>
<path style="fill:#595959;" d="M17,82L17,82c-0.552,0-1-0.448-1-1l0,0c0-0.552,0.448-1,1-1h0c0.552,0,1,0.448,1,1l0,0
	C18,81.552,17.552,82,17,82z"/>
<path style="fill:#595959;" d="M17,86L17,86c-0.552,0-1-0.448-1-1l0,0c0-0.552,0.448-1,1-1h0c0.552,0,1,0.448,1,1l0,0
	C18,85.552,17.552,86,17,86z"/>
<path style="fill:#595959;" d="M17,90L17,90c-0.552,0-1-0.448-1-1l0,0c0-0.552,0.448-1,1-1h0c0.552,0,1,0.448,1,1l0,0
	C18,89.552,17.552,90,17,90z"/>
<path style="fill:#595959;" d="M17,94L17,94c-0.552,0-1-0.448-1-1l0,0c0-0.552,0.448-1,1-1h0c0.552,0,1,0.448,1,1l0,0
	C18,93.552,17.552,94,17,94z"/>
<path style="fill:#595959;" d="M17,98L17,98c-0.552,0-1-0.448-1-1l0,0c0-0.552,0.448-1,1-1h0c0.552,0,1,0.448,1,1l0,0
	C18,97.552,17.552,98,17,98z"/>
<path style="fill:#595959;" d="M17,102L17,102c-0.552,0-1-0.448-1-1l0,0c0-0.552,0.448-1,1-1h0c0.552,0,1,0.448,1,1l0,0
	C18,101.552,17.552,102,17,102z"/>
<path style="fill:#595959;" d="M17,106L17,106c-0.552,0-1-0.448-1-1l0,0c0-0.552,0.448-1,1-1h0c0.552,0,1,0.448,1,1l0,0
	C18,105.552,17.552,106,17,106z"/>
<path style="fill:#595959;" d="M17,110L17,110c-0.552,0-1-0.448-1-1l0,0c0-0.552,0.448-1,1-1h0c0.552,0,1,0.448,1,1l0,0
	C18,109.552,17.552,110,17,110z"/>
<path style="fill:#595959;" d="M17,114L17,114c-0.552,0-1-0.448-1-1l0,0c0-0.552,0.448-1,1-1h0c0.552,0,1,0.448,1,1l0,0
	C18,113.552,17.552,114,17,114z"/>
<path style="fill:#595959;" d="M17,118L17,118c-0.552,0-1-0.448-1-1l0,0c0-0.552,0.448-1,1-1h0c0.552,0,1,0.448,1,1l0,0
	C18,117.552,17.552,118,17,118z"/>
<path style="fill:#595959;" d="M17,122L17,122c-0.552,0-1-0.448-1-1l0,0c0-0.552,0.448-1,1-1h0c0.552,0,1,0.448,1,1l0,0
	C18,121.552,17.552,122,17,122z"/>
<path style="fill:#595959;" d="M17,126L17,126c-0.552,0-1-0.448-1-1l0,0c0-0.552,0.448-1,1-1h0c0.552,0,1,0.448,1,1l0,0
	C18,125.552,17.552,126,17,126z"/>
<path style="fill:#595959;" d="M17,130L17,130c-0.552,0-1-0.448-1-1l0,0c0-0.552,0.448-1,1-1h0c0.552,0,1,0.448,1,1l0,0
	C18,129.552,17.552,130,17,130z"/>
<path style="fill:#595959;" d="M17,134L17,134c-0.552,0-1-0.448-1-1l0,0c0-0.552,0.448-1,1-1h0c0.552,0,1,0.448,1,1l0,0
	C18,133.552,17.552,134,17,134z"/>
<path style="fill:#595959;" d="M17,138L17,138c-0.552,0-1-0.448-1-1l0,0c0-0.552,0.448-1,1-1h0c0.552,0,1,0.448,1,1l0,0
	C18,137.552,17.552,138,17,138z"/>
<path style="fill:#595959;" d="M17,142L17,142c-0.552,0-1-0.448-1-1l0,0c0-0.552,0.448-1,1-1h0c0.552,0,1,0.448,1,1l0,0
	C18,141.552,17.552,142,17,142z"/>
<path style="fill:#595959;" d="M17,146L17,146c-0.552,0-1-0.448-1-1l0,0c0-0.552,0.448-1,1-1h0c0.552,0,1,0.448,1,1l0,0
	C18,145.552,17.552,146,17,146z"/>
<path style="fill:#595959;" d="M17,150L17,150c-0.552,0-1-0.448-1-1l0,0c0-0.552,0.448-1,1-1h0c0.552,0,1,0.448,1,1l0,0
	C18,149.552,17.552,150,17,150z"/>
<path style="fill:#595959;" d="M17,154L17,154c-0.552,0-1-0.448-1-1l0,0c0-0.552,0.448-1,1-1h0c0.552,0,1,0.448,1,1l0,0
	C18,153.552,17.552,154,17,154z"/>
<path style="fill:#595959;" d="M17,158L17,158c-0.552,0-1-0.448-1-1l0,0c0-0.552,0.448-1,1-1h0c0.552,0,1,0.448,1,1l0,0
	C18,157.552,17.552,158,17,158z"/>
<path style="fill:#595959;" d="M17,162L17,162c-0.552,0-1-0.448-1-1l0,0c0-0.552,0.448-1,1-1h0c0.552,0,1,0.448,1,1l0,0
	C18,161.552,17.552,162,17,162z"/>
<path style="fill:#595959;" d="M17,166L17,166c-0.552,0-1-0.448-1-1l0,0c0-0.552,0.448-1,1-1h0c0.552,0,1,0.448,1,1l0,0
	C18,165.552,17.552,166,17,166z"/>
<path style="fill:#595959;" d="M17,170L17,170c-0.552,0-1-0.448-1-1l0,0c0-0.552,0.448-1,1-1h0c0.552,0,1,0.448,1,1l0,0
	C18,169.552,17.552,170,17,170z"/>
<path style="fill:#595959;" d="M17,174L17,174c-0.552,0-1-0.448-1-1l0,0c0-0.552,0.448-1,1-1h0c0.552,0,1,0.448,1,1l0,0
	C18,173.552,17.552,174,17,174z"/>
<path style="fill:#595959;" d="M17,178L17,178c-0.552,0-1-0.448-1-1l0,0c0-0.552,0.448-1,1-1h0c0.552,0,1,0.448,1,1l0,0
	C18,177.552,17.552,178,17,178z"/>
<path style="fill:#595959;" d="M17,182L17,182c-0.552,0-1-0.448-1-1l0,0c0-0.552,0.448-1,1-1h0c0.552,0,1,0.448,1,1l0,0
	C18,181.552,17.552,182,17,182z"/>
<path style="fill:#595959;" d="M17,186L17,186c-0.552,0-1-0.448-1-1l0,0c0-0.552,0.448-1,1-1h0c0.552,0,1,0.448,1,1l0,0
	C18,185.552,17.552,186,17,186z"/>
<path style="fill:#595959;" d="M17,190L17,190c-0.552,0-1-0.448-1-1l0,0c0-0.552,0.448-1,1-1h0c0.552,0,1,0.448,1,1l0,0
	C18,189.552,17.552,190,17,190z"/>
<path style="fill:#595959;" d="M17,194L17,194c-0.552,0-1-0.448-1-1l0,0c0-0.552,0.448-1,1-1h0c0.552,0,1,0.448,1,1l0,0
	C18,193.552,17.552,194,17,194z"/>
<path style="fill:#595959;" d="M21,70L21,70c-0.552,0-1-0.448-1-1l0,0c0-0.552,0.448-1,1-1h0c0.552,0,1,0.448,1,1l0,0
	C22,69.552,21.552,70,21,70z"/>
<path style="fill:#595959;" d="M21,74L21,74c-0.552,0-1-0.448-1-1l0,0c0-0.552,0.448-1,1-1h0c0.552,0,1,0.448,1,1l0,0
	C22,73.552,21.552,74,21,74z"/>
<path style="fill:#595959;" d="M21,78L21,78c-0.552,0-1-0.448-1-1l0,0c0-0.552,0.448-1,1-1h0c0.552,0,1,0.448,1,1l0,0
	C22,77.552,21.552,78,21,78z"/>
<path style="fill:#595959;" d="M21,82L21,82c-0.552,0-1-0.448-1-1l0,0c0-0.552,0.448-1,1-1h0c0.552,0,1,0.448,1,1l0,0
	C22,81.552,21.552,82,21,82z"/>
<path style="fill:#595959;" d="M21,86L21,86c-0.552,0-1-0.448-1-1l0,0c0-0.552,0.448-1,1-1h0c0.552,0,1,0.448,1,1l0,0
	C22,85.552,21.552,86,21,86z"/>
<path style="fill:#595959;" d="M21,90L21,90c-0.552,0-1-0.448-1-1l0,0c0-0.552,0.448-1,1-1h0c0.552,0,1,0.448,1,1l0,0
	C22,89.552,21.552,90,21,90z"/>
<path style="fill:#595959;" d="M21,94L21,94c-0.552,0-1-0.448-1-1l0,0c0-0.552,0.448-1,1-1h0c0.552,0,1,0.448,1,1l0,0
	C22,93.552,21.552,94,21,94z"/>
<path style="fill:#595959;" d="M21,98L21,98c-0.552,0-1-0.448-1-1l0,0c0-0.552,0.448-1,1-1h0c0.552,0,1,0.448,1,1l0,0
	C22,97.552,21.552,98,21,98z"/>
<path style="fill:#595959;" d="M21,102L21,102c-0.552,0-1-0.448-1-1l0,0c0-0.552,0.448-1,1-1h0c0.552,0,1,0.448,1,1l0,0
	C22,101.552,21.552,102,21,102z"/>
<path style="fill:#595959;" d="M21,106L21,106c-0.552,0-1-0.448-1-1l0,0c0-0.552,0.448-1,1-1h0c0.552,0,1,0.448,1,1l0,0
	C22,105.552,21.552,106,21,106z"/>
<path style="fill:#595959;" d="M21,110L21,110c-0.552,0-1-0.448-1-1l0,0c0-0.552,0.448-1,1-1h0c0.552,0,1,0.448,1,1l0,0
	C22,109.552,21.552,110,21,110z"/>
<path style="fill:#595959;" d="M21,114L21,114c-0.552,0-1-0.448-1-1l0,0c0-0.552,0.448-1,1-1h0c0.552,0,1,0.448,1,1l0,0
	C22,113.552,21.552,114,21,114z"/>
<path style="fill:#595959;" d="M21,118L21,118c-0.552,0-1-0.448-1-1l0,0c0-0.552,0.448-1,1-1h0c0.552,0,1,0.448,1,1l0,0
	C22,117.552,21.552,118,21,118z"/>
<path style="fill:#595959;" d="M21,122L21,122c-0.552,0-1-0.448-1-1l0,0c0-0.552,0.448-1,1-1h0c0.552,0,1,0.448,1,1l0,0
	C22,121.552,21.552,122,21,122z"/>
<path style="fill:#595959;" d="M21,126L21,126c-0.552,0-1-0.448-1-1l0,0c0-0.552,0.448-1,1-1h0c0.552,0,1,0.448,1,1l0,0
	C22,125.552,21.552,126,21,126z"/>
<path style="fill:#595959;" d="M21,130L21,130c-0.552,0-1-0.448-1-1l0,0c0-0.552,0.448-1,1-1h0c0.552,0,1,0.448,1,1l0,0
	C22,129.552,21.552,130,21,130z"/>
<path style="fill:#595959;" d="M21,134L21,134c-0.552,0-1-0.448-1-1l0,0c0-0.552,0.448-1,1-1h0c0.552,0,1,0.448,1,1l0,0
	C22,133.552,21.552,134,21,134z"/>
<path style="fill:#595959;" d="M21,138L21,138c-0.552,0-1-0.448-1-1l0,0c0-0.552,0.448-1,1-1h0c0.552,0,1,0.448,1,1l0,0
	C22,137.552,21.552,138,21,138z"/>
<path style="fill:#595959;" d="M21,142L21,142c-0.552,0-1-0.448-1-1l0,0c0-0.552,0.448-1,1-1h0c0.552,0,1,0.448,1,1l0,0
	C22,141.552,21.552,142,21,142z"/>
<path style="fill:#595959;" d="M21,146L21,146c-0.552,0-1-0.448-1-1l0,0c0-0.552,0.448-1,1-1h0c0.552,0,1,0.448,1,1l0,0
	C22,145.552,21.552,146,21,146z"/>
<path style="fill:#595959;" d="M21,150L21,150c-0.552,0-1-0.448-1-1l0,0c0-0.552,0.448-1,1-1h0c0.552,0,1,0.448,1,1l0,0
	C22,149.552,21.552,150,21,150z"/>
<path style="fill:#595959;" d="M21,154L21,154c-0.552,0-1-0.448-1-1l0,0c0-0.552,0.448-1,1-1h0c0.552,0,1,0.448,1,1l0,0
	C22,153.552,21.552,154,21,154z"/>
<path style="fill:#595959;" d="M21,158L21,158c-0.552,0-1-0.448-1-1l0,0c0-0.552,0.448-1,1-1h0c0.552,0,1,0.448,1,1l0,0
	C22,157.552,21.552,158,21,158z"/>
<path style="fill:#595959;" d="M21,162L21,162c-0.552,0-1-0.448-1-1l0,0c0-0.552,0.448-1,1-1h0c0.552,0,1,0.448,1,1l0,0
	C22,161.552,21.552,162,21,162z"/>
<path style="fill:#595959;" d="M21,166L21,166c-0.552,0-1-0.448-1-1l0,0c0-0.552,0.448-1,1-1h0c0.552,0,1,0.448,1,1l0,0
	C22,165.552,21.552,166,21,166z"/>
<path style="fill:#595959;" d="M21,170L21,170c-0.552,0-1-0.448-1-1l0,0c0-0.552,0.448-1,1-1h0c0.552,0,1,0.448,1,1l0,0
	C22,169.552,21.552,170,21,170z"/>
<path style="fill:#595959;" d="M21,174L21,174c-0.552,0-1-0.448-1-1l0,0c0-0.552,0.448-1,1-1h0c0.552,0,1,0.448,1,1l0,0
	C22,173.552,21.552,174,21,174z"/>
<path style="fill:#595959;" d="M21,178L21,178c-0.552,0-1-0.448-1-1l0,0c0-0.552,0.448-1,1-1h0c0.552,0,1,0.448,1,1l0,0
	C22,177.552,21.552,178,21,178z"/>
<path style="fill:#595959;" d="M21,182L21,182c-0.552,0-1-0.448-1-1l0,0c0-0.552,0.448-1,1-1h0c0.552,0,1,0.448,1,1l0,0
	C22,181.552,21.552,182,21,182z"/>
<path style="fill:#595959;" d="M21,186L21,186c-0.552,0-1-0.448-1-1l0,0c0-0.552,0.448-1,1-1h0c0.552,0,1,0.448,1,1l0,0
	C22,185.552,21.552,186,21,186z"/>
<path style="fill:#595959;" d="M21,190L21,190c-0.552,0-1-0.448-1-1l0,0c0-0.552,0.448-1,1-1h0c0.552,0,1,0.448,1,1l0,0
	C22,189.552,21.552,190,21,190z"/>
<path style="fill:#595959;" d="M21,194L21,194c-0.552,0-1-0.448-1-1l0,0c0-0.552,0.448-1,1-1h0c0.552,0,1,0.448,1,1l0,0
	C22,193.552,21.552,194,21,194z"/>
<path style="fill:#595959;" d="M25,70L25,70c-0.552,0-1-0.448-1-1l0,0c0-0.552,0.448-1,1-1h0c0.552,0,1,0.448,1,1l0,0
	C26,69.552,25.552,70,25,70z"/>
<path style="fill:#595959;" d="M25,74L25,74c-0.552,0-1-0.448-1-1l0,0c0-0.552,0.448-1,1-1h0c0.552,0,1,0.448,1,1l0,0
	C26,73.552,25.552,74,25,74z"/>
<path style="fill:#595959;" d="M25,78L25,78c-0.552,0-1-0.448-1-1l0,0c0-0.552,0.448-1,1-1h0c0.552,0,1,0.448,1,1l0,0
	C26,77.552,25.552,78,25,78z"/>
<path style="fill:#595959;" d="M25,82L25,82c-0.552,0-1-0.448-1-1l0,0c0-0.552,0.448-1,1-1h0c0.552,0,1,0.448,1,1l0,0
	C26,81.552,25.552,82,25,82z"/>
<path style="fill:#595959;" d="M25,86L25,86c-0.552,0-1-0.448-1-1l0,0c0-0.552,0.448-1,1-1h0c0.552,0,1,0.448,1,1l0,0
	C26,85.552,25.552,86,25,86z"/>
<path style="fill:#595959;" d="M25,90L25,90c-0.552,0-1-0.448-1-1l0,0c0-0.552,0.448-1,1-1h0c0.552,0,1,0.448,1,1l0,0
	C26,89.552,25.552,90,25,90z"/>
<path style="fill:#595959;" d="M25,94L25,94c-0.552,0-1-0.448-1-1l0,0c0-0.552,0.448-1,1-1h0c0.552,0,1,0.448,1,1l0,0
	C26,93.552,25.552,94,25,94z"/>
<path style="fill:#595959;" d="M25,98L25,98c-0.552,0-1-0.448-1-1l0,0c0-0.552,0.448-1,1-1h0c0.552,0,1,0.448,1,1l0,0
	C26,97.552,25.552,98,25,98z"/>
<path style="fill:#595959;" d="M25,102L25,102c-0.552,0-1-0.448-1-1l0,0c0-0.552,0.448-1,1-1h0c0.552,0,1,0.448,1,1l0,0
	C26,101.552,25.552,102,25,102z"/>
<path style="fill:#595959;" d="M25,106L25,106c-0.552,0-1-0.448-1-1l0,0c0-0.552,0.448-1,1-1h0c0.552,0,1,0.448,1,1l0,0
	C26,105.552,25.552,106,25,106z"/>
<path style="fill:#595959;" d="M25,110L25,110c-0.552,0-1-0.448-1-1l0,0c0-0.552,0.448-1,1-1h0c0.552,0,1,0.448,1,1l0,0
	C26,109.552,25.552,110,25,110z"/>
<path style="fill:#595959;" d="M25,114L25,114c-0.552,0-1-0.448-1-1l0,0c0-0.552,0.448-1,1-1h0c0.552,0,1,0.448,1,1l0,0
	C26,113.552,25.552,114,25,114z"/>
<path style="fill:#595959;" d="M25,118L25,118c-0.552,0-1-0.448-1-1l0,0c0-0.552,0.448-1,1-1h0c0.552,0,1,0.448,1,1l0,0
	C26,117.552,25.552,118,25,118z"/>
<path style="fill:#595959;" d="M25,122L25,122c-0.552,0-1-0.448-1-1l0,0c0-0.552,0.448-1,1-1h0c0.552,0,1,0.448,1,1l0,0
	C26,121.552,25.552,122,25,122z"/>
<path style="fill:#595959;" d="M25,126L25,126c-0.552,0-1-0.448-1-1l0,0c0-0.552,0.448-1,1-1h0c0.552,0,1,0.448,1,1l0,0
	C26,125.552,25.552,126,25,126z"/>
<path style="fill:#595959;" d="M25,130L25,130c-0.552,0-1-0.448-1-1l0,0c0-0.552,0.448-1,1-1h0c0.552,0,1,0.448,1,1l0,0
	C26,129.552,25.552,130,25,130z"/>
<path style="fill:#595959;" d="M25,134L25,134c-0.552,0-1-0.448-1-1l0,0c0-0.552,0.448-1,1-1h0c0.552,0,1,0.448,1,1l0,0
	C26,133.552,25.552,134,25,134z"/>
<path style="fill:#595959;" d="M25,138L25,138c-0.552,0-1-0.448-1-1l0,0c0-0.552,0.448-1,1-1h0c0.552,0,1,0.448,1,1l0,0
	C26,137.552,25.552,138,25,138z"/>
<path style="fill:#595959;" d="M25,142L25,142c-0.552,0-1-0.448-1-1l0,0c0-0.552,0.448-1,1-1h0c0.552,0,1,0.448,1,1l0,0
	C26,141.552,25.552,142,25,142z"/>
<path style="fill:#595959;" d="M25,146L25,146c-0.552,0-1-0.448-1-1l0,0c0-0.552,0.448-1,1-1h0c0.552,0,1,0.448,1,1l0,0
	C26,145.552,25.552,146,25,146z"/>
<path style="fill:#595959;" d="M25,150L25,150c-0.552,0-1-0.448-1-1l0,0c0-0.552,0.448-1,1-1h0c0.552,0,1,0.448,1,1l0,0
	C26,149.552,25.552,150,25,150z"/>
<path style="fill:#595959;" d="M25,154L25,154c-0.552,0-1-0.448-1-1l0,0c0-0.552,0.448-1,1-1h0c0.552,0,1,0.448,1,1l0,0
	C26,153.552,25.552,154,25,154z"/>
<path style="fill:#595959;" d="M25,158L25,158c-0.552,0-1-0.448-1-1l0,0c0-0.552,0.448-1,1-1h0c0.552,0,1,0.448,1,1l0,0
	C26,157.552,25.552,158,25,158z"/>
<path style="fill:#595959;" d="M25,162L25,162c-0.552,0-1-0.448-1-1l0,0c0-0.552,0.448-1,1-1h0c0.552,0,1,0.448,1,1l0,0
	C26,161.552,25.552,162,25,162z"/>
<path style="fill:#595959;" d="M25,166L25,166c-0.552,0-1-0.448-1-1l0,0c0-0.552,0.448-1,1-1h0c0.552,0,1,0.448,1,1l0,0
	C26,165.552,25.552,166,25,166z"/>
<path style="fill:#595959;" d="M25,170L25,170c-0.552,0-1-0.448-1-1l0,0c0-0.552,0.448-1,1-1h0c0.552,0,1,0.448,1,1l0,0
	C26,169.552,25.552,170,25,170z"/>
<path style="fill:#595959;" d="M25,174L25,174c-0.552,0-1-0.448-1-1l0,0c0-0.552,0.448-1,1-1h0c0.552,0,1,0.448,1,1l0,0
	C26,173.552,25.552,174,25,174z"/>
<path style="fill:#595959;" d="M25,178L25,178c-0.552,0-1-0.448-1-1l0,0c0-0.552,0.448-1,1-1h0c0.552,0,1,0.448,1,1l0,0
	C26,177.552,25.552,178,25,178z"/>
<path style="fill:#595959;" d="M25,182L25,182c-0.552,0-1-0.448-1-1l0,0c0-0.552,0.448-1,1-1h0c0.552,0,1,0.448,1,1l0,0
	C26,181.552,25.552,182,25,182z"/>
<path style="fill:#595959;" d="M25,186L25,186c-0.552,0-1-0.448-1-1l0,0c0-0.552,0.448-1,1-1h0c0.552,0,1,0.448,1,1l0,0
	C26,185.552,25.552,186,25,186z"/>
<path style="fill:#595959;" d="M25,190L25,190c-0.552,0-1-0.448-1-1l0,0c0-0.552,0.448-1,1-1h0c0.552,0,1,0.448,1,1l0,0
	C26,189.552,25.552,190,25,190z"/>
<path style="fill:#595959;" d="M25,194L25,194c-0.552,0-1-0.448-1-1l0,0c0-0.552,0.448-1,1-1h0c0.552,0,1,0.448,1,1l0,0
	C26,193.552,25.552,194,25,194z"/>
<path style="fill:#595959;" d="M29,70L29,70c-0.552,0-1-0.448-1-1l0,0c0-0.552,0.448-1,1-1h0c0.552,0,1,0.448,1,1l0,0
	C30,69.552,29.552,70,29,70z"/>
<path style="fill:#595959;" d="M29,74L29,74c-0.552,0-1-0.448-1-1l0,0c0-0.552,0.448-1,1-1h0c0.552,0,1,0.448,1,1l0,0
	C30,73.552,29.552,74,29,74z"/>
<path style="fill:#595959;" d="M29,78L29,78c-0.552,0-1-0.448-1-1l0,0c0-0.552,0.448-1,1-1h0c0.552,0,1,0.448,1,1l0,0
	C30,77.552,29.552,78,29,78z"/>
<path style="fill:#595959;" d="M29,82L29,82c-0.552,0-1-0.448-1-1l0,0c0-0.552,0.448-1,1-1h0c0.552,0,1,0.448,1,1l0,0
	C30,81.552,29.552,82,29,82z"/>
<path style="fill:#595959;" d="M29,86L29,86c-0.552,0-1-0.448-1-1l0,0c0-0.552,0.448-1,1-1h0c0.552,0,1,0.448,1,1l0,0
	C30,85.552,29.552,86,29,86z"/>
<path style="fill:#595959;" d="M29,90L29,90c-0.552,0-1-0.448-1-1l0,0c0-0.552,0.448-1,1-1h0c0.552,0,1,0.448,1,1l0,0
	C30,89.552,29.552,90,29,90z"/>
<path style="fill:#595959;" d="M29,94L29,94c-0.552,0-1-0.448-1-1l0,0c0-0.552,0.448-1,1-1h0c0.552,0,1,0.448,1,1l0,0
	C30,93.552,29.552,94,29,94z"/>
<path style="fill:#595959;" d="M29,98L29,98c-0.552,0-1-0.448-1-1l0,0c0-0.552,0.448-1,1-1h0c0.552,0,1,0.448,1,1l0,0
	C30,97.552,29.552,98,29,98z"/>
<path style="fill:#595959;" d="M29,102L29,102c-0.552,0-1-0.448-1-1l0,0c0-0.552,0.448-1,1-1h0c0.552,0,1,0.448,1,1l0,0
	C30,101.552,29.552,102,29,102z"/>
<path style="fill:#595959;" d="M29,106L29,106c-0.552,0-1-0.448-1-1l0,0c0-0.552,0.448-1,1-1h0c0.552,0,1,0.448,1,1l0,0
	C30,105.552,29.552,106,29,106z"/>
<path style="fill:#595959;" d="M29,110L29,110c-0.552,0-1-0.448-1-1l0,0c0-0.552,0.448-1,1-1h0c0.552,0,1,0.448,1,1l0,0
	C30,109.552,29.552,110,29,110z"/>
<path style="fill:#595959;" d="M29,114L29,114c-0.552,0-1-0.448-1-1l0,0c0-0.552,0.448-1,1-1h0c0.552,0,1,0.448,1,1l0,0
	C30,113.552,29.552,114,29,114z"/>
<path style="fill:#595959;" d="M29,118L29,118c-0.552,0-1-0.448-1-1l0,0c0-0.552,0.448-1,1-1h0c0.552,0,1,0.448,1,1l0,0
	C30,117.552,29.552,118,29,118z"/>
<path style="fill:#595959;" d="M29,122L29,122c-0.552,0-1-0.448-1-1l0,0c0-0.552,0.448-1,1-1h0c0.552,0,1,0.448,1,1l0,0
	C30,121.552,29.552,122,29,122z"/>
<path style="fill:#595959;" d="M29,126L29,126c-0.552,0-1-0.448-1-1l0,0c0-0.552,0.448-1,1-1h0c0.552,0,1,0.448,1,1l0,0
	C30,125.552,29.552,126,29,126z"/>
<path style="fill:#595959;" d="M29,130L29,130c-0.552,0-1-0.448-1-1l0,0c0-0.552,0.448-1,1-1h0c0.552,0,1,0.448,1,1l0,0
	C30,129.552,29.552,130,29,130z"/>
<path style="fill:#595959;" d="M29,134L29,134c-0.552,0-1-0.448-1-1l0,0c0-0.552,0.448-1,1-1h0c0.552,0,1,0.448,1,1l0,0
	C30,133.552,29.552,134,29,134z"/>
<path style="fill:#595959;" d="M29,138L29,138c-0.552,0-1-0.448-1-1l0,0c0-0.552,0.448-1,1-1h0c0.552,0,1,0.448,1,1l0,0
	C30,137.552,29.552,138,29,138z"/>
<path style="fill:#595959;" d="M29,142L29,142c-0.552,0-1-0.448-1-1l0,0c0-0.552,0.448-1,1-1h0c0.552,0,1,0.448,1,1l0,0
	C30,141.552,29.552,142,29,142z"/>
<path style="fill:#595959;" d="M29,146L29,146c-0.552,0-1-0.448-1-1l0,0c0-0.552,0.448-1,1-1h0c0.552,0,1,0.448,1,1l0,0
	C30,145.552,29.552,146,29,146z"/>
<path style="fill:#595959;" d="M29,150L29,150c-0.552,0-1-0.448-1-1l0,0c0-0.552,0.448-1,1-1h0c0.552,0,1,0.448,1,1l0,0
	C30,149.552,29.552,150,29,150z"/>
<path style="fill:#595959;" d="M29,154L29,154c-0.552,0-1-0.448-1-1l0,0c0-0.552,0.448-1,1-1h0c0.552,0,1,0.448,1,1l0,0
	C30,153.552,29.552,154,29,154z"/>
<path style="fill:#595959;" d="M29,158L29,158c-0.552,0-1-0.448-1-1l0,0c0-0.552,0.448-1,1-1h0c0.552,0,1,0.448,1,1l0,0
	C30,157.552,29.552,158,29,158z"/>
<path style="fill:#595959;" d="M29,162L29,162c-0.552,0-1-0.448-1-1l0,0c0-0.552,0.448-1,1-1h0c0.552,0,1,0.448,1,1l0,0
	C30,161.552,29.552,162,29,162z"/>
<path style="fill:#595959;" d="M29,166L29,166c-0.552,0-1-0.448-1-1l0,0c0-0.552,0.448-1,1-1h0c0.552,0,1,0.448,1,1l0,0
	C30,165.552,29.552,166,29,166z"/>
<path style="fill:#595959;" d="M29,170L29,170c-0.552,0-1-0.448-1-1l0,0c0-0.552,0.448-1,1-1h0c0.552,0,1,0.448,1,1l0,0
	C30,169.552,29.552,170,29,170z"/>
<path style="fill:#595959;" d="M29,174L29,174c-0.552,0-1-0.448-1-1l0,0c0-0.552,0.448-1,1-1h0c0.552,0,1,0.448,1,1l0,0
	C30,173.552,29.552,174,29,174z"/>
<path style="fill:#595959;" d="M29,178L29,178c-0.552,0-1-0.448-1-1l0,0c0-0.552,0.448-1,1-1h0c0.552,0,1,0.448,1,1l0,0
	C30,177.552,29.552,178,29,178z"/>
<path style="fill:#595959;" d="M29,182L29,182c-0.552,0-1-0.448-1-1l0,0c0-0.552,0.448-1,1-1h0c0.552,0,1,0.448,1,1l0,0
	C30,181.552,29.552,182,29,182z"/>
<path style="fill:#595959;" d="M29,186L29,186c-0.552,0-1-0.448-1-1l0,0c0-0.552,0.448-1,1-1h0c0.552,0,1,0.448,1,1l0,0
	C30,185.552,29.552,186,29,186z"/>
<path style="fill:#595959;" d="M29,190L29,190c-0.552,0-1-0.448-1-1l0,0c0-0.552,0.448-1,1-1h0c0.552,0,1,0.448,1,1l0,0
	C30,189.552,29.552,190,29,190z"/>
<path style="fill:#595959;" d="M29,194L29,194c-0.552,0-1-0.448-1-1l0,0c0-0.552,0.448-1,1-1h0c0.552,0,1,0.448,1,1l0,0
	C30,193.552,29.552,194,29,194z"/>
<path style="fill:#595959;" d="M227,70L227,70c-0.552,0-1-0.448-1-1l0,0c0-0.552,0.448-1,1-1l0,0c0.552,0,1,0.448,1,1l0,0
	C228,69.552,227.552,70,227,70z"/>
<path style="fill:#595959;" d="M227,74L227,74c-0.552,0-1-0.448-1-1l0,0c0-0.552,0.448-1,1-1l0,0c0.552,0,1,0.448,1,1l0,0
	C228,73.552,227.552,74,227,74z"/>
<path style="fill:#595959;" d="M227,78L227,78c-0.552,0-1-0.448-1-1l0,0c0-0.552,0.448-1,1-1l0,0c0.552,0,1,0.448,1,1l0,0
	C228,77.552,227.552,78,227,78z"/>
<path style="fill:#595959;" d="M227,82L227,82c-0.552,0-1-0.448-1-1l0,0c0-0.552,0.448-1,1-1l0,0c0.552,0,1,0.448,1,1l0,0
	C228,81.552,227.552,82,227,82z"/>
<path style="fill:#595959;" d="M227,86L227,86c-0.552,0-1-0.448-1-1l0,0c0-0.552,0.448-1,1-1l0,0c0.552,0,1,0.448,1,1l0,0
	C228,85.552,227.552,86,227,86z"/>
<path style="fill:#595959;" d="M227,90L227,90c-0.552,0-1-0.448-1-1l0,0c0-0.552,0.448-1,1-1l0,0c0.552,0,1,0.448,1,1l0,0
	C228,89.552,227.552,90,227,90z"/>
<path style="fill:#595959;" d="M227,94L227,94c-0.552,0-1-0.448-1-1l0,0c0-0.552,0.448-1,1-1l0,0c0.552,0,1,0.448,1,1l0,0
	C228,93.552,227.552,94,227,94z"/>
<path style="fill:#595959;" d="M227,98L227,98c-0.552,0-1-0.448-1-1l0,0c0-0.552,0.448-1,1-1l0,0c0.552,0,1,0.448,1,1l0,0
	C228,97.552,227.552,98,227,98z"/>
<path style="fill:#595959;" d="M227,102L227,102c-0.552,0-1-0.448-1-1l0,0c0-0.552,0.448-1,1-1l0,0c0.552,0,1,0.448,1,1l0,0
	C228,101.552,227.552,102,227,102z"/>
<path style="fill:#595959;" d="M227,106L227,106c-0.552,0-1-0.448-1-1l0,0c0-0.552,0.448-1,1-1l0,0c0.552,0,1,0.448,1,1l0,0
	C228,105.552,227.552,106,227,106z"/>
<path style="fill:#595959;" d="M227,110L227,110c-0.552,0-1-0.448-1-1l0,0c0-0.552,0.448-1,1-1l0,0c0.552,0,1,0.448,1,1l0,0
	C228,109.552,227.552,110,227,110z"/>
<path style="fill:#595959;" d="M227,114L227,114c-0.552,0-1-0.448-1-1l0,0c0-0.552,0.448-1,1-1l0,0c0.552,0,1,0.448,1,1l0,0
	C228,113.552,227.552,114,227,114z"/>
<path style="fill:#595959;" d="M227,118L227,118c-0.552,0-1-0.448-1-1l0,0c0-0.552,0.448-1,1-1l0,0c0.552,0,1,0.448,1,1l0,0
	C228,117.552,227.552,118,227,118z"/>
<path style="fill:#595959;" d="M227,122L227,122c-0.552,0-1-0.448-1-1l0,0c0-0.552,0.448-1,1-1l0,0c0.552,0,1,0.448,1,1l0,0
	C228,121.552,227.552,122,227,122z"/>
<path style="fill:#595959;" d="M227,126L227,126c-0.552,0-1-0.448-1-1l0,0c0-0.552,0.448-1,1-1l0,0c0.552,0,1,0.448,1,1l0,0
	C228,125.552,227.552,126,227,126z"/>
<path style="fill:#595959;" d="M227,130L227,130c-0.552,0-1-0.448-1-1l0,0c0-0.552,0.448-1,1-1l0,0c0.552,0,1,0.448,1,1l0,0
	C228,129.552,227.552,130,227,130z"/>
<path style="fill:#595959;" d="M227,134L227,134c-0.552,0-1-0.448-1-1l0,0c0-0.552,0.448-1,1-1l0,0c0.552,0,1,0.448,1,1l0,0
	C228,133.552,227.552,134,227,134z"/>
<path style="fill:#595959;" d="M227,138L227,138c-0.552,0-1-0.448-1-1l0,0c0-0.552,0.448-1,1-1l0,0c0.552,0,1,0.448,1,1l0,0
	C228,137.552,227.552,138,227,138z"/>
<path style="fill:#595959;" d="M227,142L227,142c-0.552,0-1-0.448-1-1l0,0c0-0.552,0.448-1,1-1l0,0c0.552,0,1,0.448,1,1l0,0
	C228,141.552,227.552,142,227,142z"/>
<path style="fill:#595959;" d="M227,146L227,146c-0.552,0-1-0.448-1-1l0,0c0-0.552,0.448-1,1-1l0,0c0.552,0,1,0.448,1,1l0,0
	C228,145.552,227.552,146,227,146z"/>
<path style="fill:#595959;" d="M227,150L227,150c-0.552,0-1-0.448-1-1l0,0c0-0.552,0.448-1,1-1l0,0c0.552,0,1,0.448,1,1l0,0
	C228,149.552,227.552,150,227,150z"/>
<path style="fill:#595959;" d="M227,154L227,154c-0.552,0-1-0.448-1-1l0,0c0-0.552,0.448-1,1-1l0,0c0.552,0,1,0.448,1,1l0,0
	C228,153.552,227.552,154,227,154z"/>
<path style="fill:#595959;" d="M227,158L227,158c-0.552,0-1-0.448-1-1l0,0c0-0.552,0.448-1,1-1l0,0c0.552,0,1,0.448,1,1l0,0
	C228,157.552,227.552,158,227,158z"/>
<path style="fill:#595959;" d="M227,162L227,162c-0.552,0-1-0.448-1-1l0,0c0-0.552,0.448-1,1-1l0,0c0.552,0,1,0.448,1,1l0,0
	C228,161.552,227.552,162,227,162z"/>
<path style="fill:#595959;" d="M227,166L227,166c-0.552,0-1-0.448-1-1l0,0c0-0.552,0.448-1,1-1l0,0c0.552,0,1,0.448,1,1l0,0
	C228,165.552,227.552,166,227,166z"/>
<path style="fill:#595959;" d="M227,170L227,170c-0.552,0-1-0.448-1-1l0,0c0-0.552,0.448-1,1-1l0,0c0.552,0,1,0.448,1,1l0,0
	C228,169.552,227.552,170,227,170z"/>
<path style="fill:#595959;" d="M227,174L227,174c-0.552,0-1-0.448-1-1l0,0c0-0.552,0.448-1,1-1l0,0c0.552,0,1,0.448,1,1l0,0
	C228,173.552,227.552,174,227,174z"/>
<path style="fill:#595959;" d="M227,178L227,178c-0.552,0-1-0.448-1-1l0,0c0-0.552,0.448-1,1-1l0,0c0.552,0,1,0.448,1,1l0,0
	C228,177.552,227.552,178,227,178z"/>
<path style="fill:#595959;" d="M227,182L227,182c-0.552,0-1-0.448-1-1l0,0c0-0.552,0.448-1,1-1l0,0c0.552,0,1,0.448,1,1l0,0
	C228,181.552,227.552,182,227,182z"/>
<path style="fill:#595959;" d="M227,186L227,186c-0.552,0-1-0.448-1-1l0,0c0-0.552,0.448-1,1-1l0,0c0.552,0,1,0.448,1,1l0,0
	C228,185.552,227.552,186,227,186z"/>
<path style="fill:#595959;" d="M227,190L227,190c-0.552,0-1-0.448-1-1l0,0c0-0.552,0.448-1,1-1l0,0c0.552,0,1,0.448,1,1l0,0
	C228,189.552,227.552,190,227,190z"/>
<path style="fill:#595959;" d="M227,194L227,194c-0.552,0-1-0.448-1-1l0,0c0-0.552,0.448-1,1-1l0,0c0.552,0,1,0.448,1,1l0,0
	C228,193.552,227.552,194,227,194z"/>
<path style="fill:#595959;" d="M231,70L231,70c-0.552,0-1-0.448-1-1l0,0c0-0.552,0.448-1,1-1l0,0c0.552,0,1,0.448,1,1l0,0
	C232,69.552,231.552,70,231,70z"/>
<path style="fill:#595959;" d="M231,74L231,74c-0.552,0-1-0.448-1-1l0,0c0-0.552,0.448-1,1-1l0,0c0.552,0,1,0.448,1,1l0,0
	C232,73.552,231.552,74,231,74z"/>
<path style="fill:#595959;" d="M231,78L231,78c-0.552,0-1-0.448-1-1l0,0c0-0.552,0.448-1,1-1l0,0c0.552,0,1,0.448,1,1l0,0
	C232,77.552,231.552,78,231,78z"/>
<path style="fill:#595959;" d="M231,82L231,82c-0.552,0-1-0.448-1-1l0,0c0-0.552,0.448-1,1-1l0,0c0.552,0,1,0.448,1,1l0,0
	C232,81.552,231.552,82,231,82z"/>
<path style="fill:#595959;" d="M231,86L231,86c-0.552,0-1-0.448-1-1l0,0c0-0.552,0.448-1,1-1l0,0c0.552,0,1,0.448,1,1l0,0
	C232,85.552,231.552,86,231,86z"/>
<path style="fill:#595959;" d="M231,90L231,90c-0.552,0-1-0.448-1-1l0,0c0-0.552,0.448-1,1-1l0,0c0.552,0,1,0.448,1,1l0,0
	C232,89.552,231.552,90,231,90z"/>
<path style="fill:#595959;" d="M231,94L231,94c-0.552,0-1-0.448-1-1l0,0c0-0.552,0.448-1,1-1l0,0c0.552,0,1,0.448,1,1l0,0
	C232,93.552,231.552,94,231,94z"/>
<path style="fill:#595959;" d="M231,98L231,98c-0.552,0-1-0.448-1-1l0,0c0-0.552,0.448-1,1-1l0,0c0.552,0,1,0.448,1,1l0,0
	C232,97.552,231.552,98,231,98z"/>
<path style="fill:#595959;" d="M231,102L231,102c-0.552,0-1-0.448-1-1l0,0c0-0.552,0.448-1,1-1l0,0c0.552,0,1,0.448,1,1l0,0
	C232,101.552,231.552,102,231,102z"/>
<path style="fill:#595959;" d="M231,106L231,106c-0.552,0-1-0.448-1-1l0,0c0-0.552,0.448-1,1-1l0,0c0.552,0,1,0.448,1,1l0,0
	C232,105.552,231.552,106,231,106z"/>
<path style="fill:#595959;" d="M231,110L231,110c-0.552,0-1-0.448-1-1l0,0c0-0.552,0.448-1,1-1l0,0c0.552,0,1,0.448,1,1l0,0
	C232,109.552,231.552,110,231,110z"/>
<path style="fill:#595959;" d="M231,114L231,114c-0.552,0-1-0.448-1-1l0,0c0-0.552,0.448-1,1-1l0,0c0.552,0,1,0.448,1,1l0,0
	C232,113.552,231.552,114,231,114z"/>
<path style="fill:#595959;" d="M231,118L231,118c-0.552,0-1-0.448-1-1l0,0c0-0.552,0.448-1,1-1l0,0c0.552,0,1,0.448,1,1l0,0
	C232,117.552,231.552,118,231,118z"/>
<path style="fill:#595959;" d="M231,122L231,122c-0.552,0-1-0.448-1-1l0,0c0-0.552,0.448-1,1-1l0,0c0.552,0,1,0.448,1,1l0,0
	C232,121.552,231.552,122,231,122z"/>
<path style="fill:#595959;" d="M231,126L231,126c-0.552,0-1-0.448-1-1l0,0c0-0.552,0.448-1,1-1l0,0c0.552,0,1,0.448,1,1l0,0
	C232,125.552,231.552,126,231,126z"/>
<path style="fill:#595959;" d="M231,130L231,130c-0.552,0-1-0.448-1-1l0,0c0-0.552,0.448-1,1-1l0,0c0.552,0,1,0.448,1,1l0,0
	C232,129.552,231.552,130,231,130z"/>
<path style="fill:#595959;" d="M231,134L231,134c-0.552,0-1-0.448-1-1l0,0c0-0.552,0.448-1,1-1l0,0c0.552,0,1,0.448,1,1l0,0
	C232,133.552,231.552,134,231,134z"/>
<path style="fill:#595959;" d="M231,138L231,138c-0.552,0-1-0.448-1-1l0,0c0-0.552,0.448-1,1-1l0,0c0.552,0,1,0.448,1,1l0,0
	C232,137.552,231.552,138,231,138z"/>
<path style="fill:#595959;" d="M231,142L231,142c-0.552,0-1-0.448-1-1l0,0c0-0.552,0.448-1,1-1l0,0c0.552,0,1,0.448,1,1l0,0
	C232,141.552,231.552,142,231,142z"/>
<path style="fill:#595959;" d="M231,146L231,146c-0.552,0-1-0.448-1-1l0,0c0-0.552,0.448-1,1-1l0,0c0.552,0,1,0.448,1,1l0,0
	C232,145.552,231.552,146,231,146z"/>
<path style="fill:#595959;" d="M231,150L231,150c-0.552,0-1-0.448-1-1l0,0c0-0.552,0.448-1,1-1l0,0c0.552,0,1,0.448,1,1l0,0
	C232,149.552,231.552,150,231,150z"/>
<path style="fill:#595959;" d="M231,154L231,154c-0.552,0-1-0.448-1-1l0,0c0-0.552,0.448-1,1-1l0,0c0.552,0,1,0.448,1,1l0,0
	C232,153.552,231.552,154,231,154z"/>
<path style="fill:#595959;" d="M231,158L231,158c-0.552,0-1-0.448-1-1l0,0c0-0.552,0.448-1,1-1l0,0c0.552,0,1,0.448,1,1l0,0
	C232,157.552,231.552,158,231,158z"/>
<path style="fill:#595959;" d="M231,162L231,162c-0.552,0-1-0.448-1-1l0,0c0-0.552,0.448-1,1-1l0,0c0.552,0,1,0.448,1,1l0,0
	C232,161.552,231.552,162,231,162z"/>
<path style="fill:#595959;" d="M231,166L231,166c-0.552,0-1-0.448-1-1l0,0c0-0.552,0.448-1,1-1l0,0c0.552,0,1,0.448,1,1l0,0
	C232,165.552,231.552,166,231,166z"/>
<path style="fill:#595959;" d="M231,170L231,170c-0.552,0-1-0.448-1-1l0,0c0-0.552,0.448-1,1-1l0,0c0.552,0,1,0.448,1,1l0,0
	C232,169.552,231.552,170,231,170z"/>
<path style="fill:#595959;" d="M231,174L231,174c-0.552,0-1-0.448-1-1l0,0c0-0.552,0.448-1,1-1l0,0c0.552,0,1,0.448,1,1l0,0
	C232,173.552,231.552,174,231,174z"/>
<path style="fill:#595959;" d="M231,178L231,178c-0.552,0-1-0.448-1-1l0,0c0-0.552,0.448-1,1-1l0,0c0.552,0,1,0.448,1,1l0,0
	C232,177.552,231.552,178,231,178z"/>
<path style="fill:#595959;" d="M231,182L231,182c-0.552,0-1-0.448-1-1l0,0c0-0.552,0.448-1,1-1l0,0c0.552,0,1,0.448,1,1l0,0
	C232,181.552,231.552,182,231,182z"/>
<path style="fill:#595959;" d="M231,186L231,186c-0.552,0-1-0.448-1-1l0,0c0-0.552,0.448-1,1-1l0,0c0.552,0,1,0.448,1,1l0,0
	C232,185.552,231.552,186,231,186z"/>
<path style="fill:#595959;" d="M231,190L231,190c-0.552,0-1-0.448-1-1l0,0c0-0.552,0.448-1,1-1l0,0c0.552,0,1,0.448,1,1l0,0
	C232,189.552,231.552,190,231,190z"/>
<path style="fill:#595959;" d="M231,194L231,194c-0.552,0-1-0.448-1-1l0,0c0-0.552,0.448-1,1-1l0,0c0.552,0,1,0.448,1,1l0,0
	C232,193.552,231.552,194,231,194z"/>
<path style="fill:#595959;" d="M235,70L235,70c-0.552,0-1-0.448-1-1l0,0c0-0.552,0.448-1,1-1l0,0c0.552,0,1,0.448,1,1l0,0
	C236,69.552,235.552,70,235,70z"/>
<path style="fill:#595959;" d="M235,74L235,74c-0.552,0-1-0.448-1-1l0,0c0-0.552,0.448-1,1-1l0,0c0.552,0,1,0.448,1,1l0,0
	C236,73.552,235.552,74,235,74z"/>
<path style="fill:#595959;" d="M235,78L235,78c-0.552,0-1-0.448-1-1l0,0c0-0.552,0.448-1,1-1l0,0c0.552,0,1,0.448,1,1l0,0
	C236,77.552,235.552,78,235,78z"/>
<path style="fill:#595959;" d="M235,82L235,82c-0.552,0-1-0.448-1-1l0,0c0-0.552,0.448-1,1-1l0,0c0.552,0,1,0.448,1,1l0,0
	C236,81.552,235.552,82,235,82z"/>
<path style="fill:#595959;" d="M235,86L235,86c-0.552,0-1-0.448-1-1l0,0c0-0.552,0.448-1,1-1l0,0c0.552,0,1,0.448,1,1l0,0
	C236,85.552,235.552,86,235,86z"/>
<path style="fill:#595959;" d="M235,90L235,90c-0.552,0-1-0.448-1-1l0,0c0-0.552,0.448-1,1-1l0,0c0.552,0,1,0.448,1,1l0,0
	C236,89.552,235.552,90,235,90z"/>
<path style="fill:#595959;" d="M235,94L235,94c-0.552,0-1-0.448-1-1l0,0c0-0.552,0.448-1,1-1l0,0c0.552,0,1,0.448,1,1l0,0
	C236,93.552,235.552,94,235,94z"/>
<path style="fill:#595959;" d="M235,98L235,98c-0.552,0-1-0.448-1-1l0,0c0-0.552,0.448-1,1-1l0,0c0.552,0,1,0.448,1,1l0,0
	C236,97.552,235.552,98,235,98z"/>
<path style="fill:#595959;" d="M235,102L235,102c-0.552,0-1-0.448-1-1l0,0c0-0.552,0.448-1,1-1l0,0c0.552,0,1,0.448,1,1l0,0
	C236,101.552,235.552,102,235,102z"/>
<path style="fill:#595959;" d="M235,106L235,106c-0.552,0-1-0.448-1-1l0,0c0-0.552,0.448-1,1-1l0,0c0.552,0,1,0.448,1,1l0,0
	C236,105.552,235.552,106,235,106z"/>
<path style="fill:#595959;" d="M235,110L235,110c-0.552,0-1-0.448-1-1l0,0c0-0.552,0.448-1,1-1l0,0c0.552,0,1,0.448,1,1l0,0
	C236,109.552,235.552,110,235,110z"/>
<path style="fill:#595959;" d="M235,114L235,114c-0.552,0-1-0.448-1-1l0,0c0-0.552,0.448-1,1-1l0,0c0.552,0,1,0.448,1,1l0,0
	C236,113.552,235.552,114,235,114z"/>
<path style="fill:#595959;" d="M235,118L235,118c-0.552,0-1-0.448-1-1l0,0c0-0.552,0.448-1,1-1l0,0c0.552,0,1,0.448,1,1l0,0
	C236,117.552,235.552,118,235,118z"/>
<path style="fill:#595959;" d="M235,122L235,122c-0.552,0-1-0.448-1-1l0,0c0-0.552,0.448-1,1-1l0,0c0.552,0,1,0.448,1,1l0,0
	C236,121.552,235.552,122,235,122z"/>
<path style="fill:#595959;" d="M235,126L235,126c-0.552,0-1-0.448-1-1l0,0c0-0.552,0.448-1,1-1l0,0c0.552,0,1,0.448,1,1l0,0
	C236,125.552,235.552,126,235,126z"/>
<path style="fill:#595959;" d="M235,130L235,130c-0.552,0-1-0.448-1-1l0,0c0-0.552,0.448-1,1-1l0,0c0.552,0,1,0.448,1,1l0,0
	C236,129.552,235.552,130,235,130z"/>
<path style="fill:#595959;" d="M235,134L235,134c-0.552,0-1-0.448-1-1l0,0c0-0.552,0.448-1,1-1l0,0c0.552,0,1,0.448,1,1l0,0
	C236,133.552,235.552,134,235,134z"/>
<path style="fill:#595959;" d="M235,138L235,138c-0.552,0-1-0.448-1-1l0,0c0-0.552,0.448-1,1-1l0,0c0.552,0,1,0.448,1,1l0,0
	C236,137.552,235.552,138,235,138z"/>
<path style="fill:#595959;" d="M235,142L235,142c-0.552,0-1-0.448-1-1l0,0c0-0.552,0.448-1,1-1l0,0c0.552,0,1,0.448,1,1l0,0
	C236,141.552,235.552,142,235,142z"/>
<path style="fill:#595959;" d="M235,146L235,146c-0.552,0-1-0.448-1-1l0,0c0-0.552,0.448-1,1-1l0,0c0.552,0,1,0.448,1,1l0,0
	C236,145.552,235.552,146,235,146z"/>
<path style="fill:#595959;" d="M235,150L235,150c-0.552,0-1-0.448-1-1l0,0c0-0.552,0.448-1,1-1l0,0c0.552,0,1,0.448,1,1l0,0
	C236,149.552,235.552,150,235,150z"/>
<path style="fill:#595959;" d="M235,154L235,154c-0.552,0-1-0.448-1-1l0,0c0-0.552,0.448-1,1-1l0,0c0.552,0,1,0.448,1,1l0,0
	C236,153.552,235.552,154,235,154z"/>
<path style="fill:#595959;" d="M235,158L235,158c-0.552,0-1-0.448-1-1l0,0c0-0.552,0.448-1,1-1l0,0c0.552,0,1,0.448,1,1l0,0
	C236,157.552,235.552,158,235,158z"/>
<path style="fill:#595959;" d="M235,162L235,162c-0.552,0-1-0.448-1-1l0,0c0-0.552,0.448-1,1-1l0,0c0.552,0,1,0.448,1,1l0,0
	C236,161.552,235.552,162,235,162z"/>
<path style="fill:#595959;" d="M235,166L235,166c-0.552,0-1-0.448-1-1l0,0c0-0.552,0.448-1,1-1l0,0c0.552,0,1,0.448,1,1l0,0
	C236,165.552,235.552,166,235,166z"/>
<path style="fill:#595959;" d="M235,170L235,170c-0.552,0-1-0.448-1-1l0,0c0-0.552,0.448-1,1-1l0,0c0.552,0,1,0.448,1,1l0,0
	C236,169.552,235.552,170,235,170z"/>
<path style="fill:#595959;" d="M235,174L235,174c-0.552,0-1-0.448-1-1l0,0c0-0.552,0.448-1,1-1l0,0c0.552,0,1,0.448,1,1l0,0
	C236,173.552,235.552,174,235,174z"/>
<path style="fill:#595959;" d="M235,178L235,178c-0.552,0-1-0.448-1-1l0,0c0-0.552,0.448-1,1-1l0,0c0.552,0,1,0.448,1,1l0,0
	C236,177.552,235.552,178,235,178z"/>
<path style="fill:#595959;" d="M235,182L235,182c-0.552,0-1-0.448-1-1l0,0c0-0.552,0.448-1,1-1l0,0c0.552,0,1,0.448,1,1l0,0
	C236,181.552,235.552,182,235,182z"/>
<path style="fill:#595959;" d="M235,186L235,186c-0.552,0-1-0.448-1-1l0,0c0-0.552,0.448-1,1-1l0,0c0.552,0,1,0.448,1,1l0,0
	C236,185.552,235.552,186,235,186z"/>
<path style="fill:#595959;" d="M235,190L235,190c-0.552,0-1-0.448-1-1l0,0c0-0.552,0.448-1,1-1l0,0c0.552,0,1,0.448,1,1l0,0
	C236,189.552,235.552,190,235,190z"/>
<path style="fill:#595959;" d="M235,194L235,194c-0.552,0-1-0.448-1-1l0,0c0-0.552,0.448-1,1-1l0,0c0.552,0,1,0.448,1,1l0,0
	C236,193.552,235.552,194,235,194z"/>
<path style="fill:#595959;" d="M239,70L239,70c-0.552,0-1-0.448-1-1l0,0c0-0.552,0.448-1,1-1l0,0c0.552,0,1,0.448,1,1l0,0
	C240,69.552,239.552,70,239,70z"/>
<path style="fill:#595959;" d="M239,74L239,74c-0.552,0-1-0.448-1-1l0,0c0-0.552,0.448-1,1-1l0,0c0.552,0,1,0.448,1,1l0,0
	C240,73.552,239.552,74,239,74z"/>
<path style="fill:#595959;" d="M239,78L239,78c-0.552,0-1-0.448-1-1l0,0c0-0.552,0.448-1,1-1l0,0c0.552,0,1,0.448,1,1l0,0
	C240,77.552,239.552,78,239,78z"/>
<path style="fill:#595959;" d="M239,82L239,82c-0.552,0-1-0.448-1-1l0,0c0-0.552,0.448-1,1-1l0,0c0.552,0,1,0.448,1,1l0,0
	C240,81.552,239.552,82,239,82z"/>
<path style="fill:#595959;" d="M239,86L239,86c-0.552,0-1-0.448-1-1l0,0c0-0.552,0.448-1,1-1l0,0c0.552,0,1,0.448,1,1l0,0
	C240,85.552,239.552,86,239,86z"/>
<path style="fill:#595959;" d="M239,90L239,90c-0.552,0-1-0.448-1-1l0,0c0-0.552,0.448-1,1-1l0,0c0.552,0,1,0.448,1,1l0,0
	C240,89.552,239.552,90,239,90z"/>
<path style="fill:#595959;" d="M239,94L239,94c-0.552,0-1-0.448-1-1l0,0c0-0.552,0.448-1,1-1l0,0c0.552,0,1,0.448,1,1l0,0
	C240,93.552,239.552,94,239,94z"/>
<path style="fill:#595959;" d="M239,98L239,98c-0.552,0-1-0.448-1-1l0,0c0-0.552,0.448-1,1-1l0,0c0.552,0,1,0.448,1,1l0,0
	C240,97.552,239.552,98,239,98z"/>
<path style="fill:#595959;" d="M239,102L239,102c-0.552,0-1-0.448-1-1l0,0c0-0.552,0.448-1,1-1l0,0c0.552,0,1,0.448,1,1l0,0
	C240,101.552,239.552,102,239,102z"/>
<path style="fill:#595959;" d="M239,106L239,106c-0.552,0-1-0.448-1-1l0,0c0-0.552,0.448-1,1-1l0,0c0.552,0,1,0.448,1,1l0,0
	C240,105.552,239.552,106,239,106z"/>
<path style="fill:#595959;" d="M239,110L239,110c-0.552,0-1-0.448-1-1l0,0c0-0.552,0.448-1,1-1l0,0c0.552,0,1,0.448,1,1l0,0
	C240,109.552,239.552,110,239,110z"/>
<path style="fill:#595959;" d="M239,114L239,114c-0.552,0-1-0.448-1-1l0,0c0-0.552,0.448-1,1-1l0,0c0.552,0,1,0.448,1,1l0,0
	C240,113.552,239.552,114,239,114z"/>
<path style="fill:#595959;" d="M239,118L239,118c-0.552,0-1-0.448-1-1l0,0c0-0.552,0.448-1,1-1l0,0c0.552,0,1,0.448,1,1l0,0
	C240,117.552,239.552,118,239,118z"/>
<path style="fill:#595959;" d="M239,122L239,122c-0.552,0-1-0.448-1-1l0,0c0-0.552,0.448-1,1-1l0,0c0.552,0,1,0.448,1,1l0,0
	C240,121.552,239.552,122,239,122z"/>
<path style="fill:#595959;" d="M239,126L239,126c-0.552,0-1-0.448-1-1l0,0c0-0.552,0.448-1,1-1l0,0c0.552,0,1,0.448,1,1l0,0
	C240,125.552,239.552,126,239,126z"/>
<path style="fill:#595959;" d="M239,130L239,130c-0.552,0-1-0.448-1-1l0,0c0-0.552,0.448-1,1-1l0,0c0.552,0,1,0.448,1,1l0,0
	C240,129.552,239.552,130,239,130z"/>
<path style="fill:#595959;" d="M239,134L239,134c-0.552,0-1-0.448-1-1l0,0c0-0.552,0.448-1,1-1l0,0c0.552,0,1,0.448,1,1l0,0
	C240,133.552,239.552,134,239,134z"/>
<path style="fill:#595959;" d="M239,138L239,138c-0.552,0-1-0.448-1-1l0,0c0-0.552,0.448-1,1-1l0,0c0.552,0,1,0.448,1,1l0,0
	C240,137.552,239.552,138,239,138z"/>
<path style="fill:#595959;" d="M239,142L239,142c-0.552,0-1-0.448-1-1l0,0c0-0.552,0.448-1,1-1l0,0c0.552,0,1,0.448,1,1l0,0
	C240,141.552,239.552,142,239,142z"/>
<path style="fill:#595959;" d="M239,146L239,146c-0.552,0-1-0.448-1-1l0,0c0-0.552,0.448-1,1-1l0,0c0.552,0,1,0.448,1,1l0,0
	C240,145.552,239.552,146,239,146z"/>
<path style="fill:#595959;" d="M239,150L239,150c-0.552,0-1-0.448-1-1l0,0c0-0.552,0.448-1,1-1l0,0c0.552,0,1,0.448,1,1l0,0
	C240,149.552,239.552,150,239,150z"/>
<path style="fill:#595959;" d="M239,154L239,154c-0.552,0-1-0.448-1-1l0,0c0-0.552,0.448-1,1-1l0,0c0.552,0,1,0.448,1,1l0,0
	C240,153.552,239.552,154,239,154z"/>
<path style="fill:#595959;" d="M239,158L239,158c-0.552,0-1-0.448-1-1l0,0c0-0.552,0.448-1,1-1l0,0c0.552,0,1,0.448,1,1l0,0
	C240,157.552,239.552,158,239,158z"/>
<path style="fill:#595959;" d="M239,162L239,162c-0.552,0-1-0.448-1-1l0,0c0-0.552,0.448-1,1-1l0,0c0.552,0,1,0.448,1,1l0,0
	C240,161.552,239.552,162,239,162z"/>
<path style="fill:#595959;" d="M239,166L239,166c-0.552,0-1-0.448-1-1l0,0c0-0.552,0.448-1,1-1l0,0c0.552,0,1,0.448,1,1l0,0
	C240,165.552,239.552,166,239,166z"/>
<path style="fill:#595959;" d="M239,170L239,170c-0.552,0-1-0.448-1-1l0,0c0-0.552,0.448-1,1-1l0,0c0.552,0,1,0.448,1,1l0,0
	C240,169.552,239.552,170,239,170z"/>
<path style="fill:#595959;" d="M239,174L239,174c-0.552,0-1-0.448-1-1l0,0c0-0.552,0.448-1,1-1l0,0c0.552,0,1,0.448,1,1l0,0
	C240,173.552,239.552,174,239,174z"/>
<path style="fill:#595959;" d="M239,178L239,178c-0.552,0-1-0.448-1-1l0,0c0-0.552,0.448-1,1-1l0,0c0.552,0,1,0.448,1,1l0,0
	C240,177.552,239.552,178,239,178z"/>
<path style="fill:#595959;" d="M239,182L239,182c-0.552,0-1-0.448-1-1l0,0c0-0.552,0.448-1,1-1l0,0c0.552,0,1,0.448,1,1l0,0
	C240,181.552,239.552,182,239,182z"/>
<path style="fill:#595959;" d="M239,186L239,186c-0.552,0-1-0.448-1-1l0,0c0-0.552,0.448-1,1-1l0,0c0.552,0,1,0.448,1,1l0,0
	C240,185.552,239.552,186,239,186z"/>
<path style="fill:#595959;" d="M239,190L239,190c-0.552,0-1-0.448-1-1l0,0c0-0.552,0.448-1,1-1l0,0c0.552,0,1,0.448,1,1l0,0
	C240,189.552,239.552,190,239,190z"/>
<path style="fill:#595959;" d="M239,194L239,194c-0.552,0-1-0.448-1-1l0,0c0-0.552,0.448-1,1-1l0,0c0.552,0,1,0.448,1,1l0,0
	C240,193.552,239.552,194,239,194z"/>
<path style="fill:#A6A390;" d="M206,136H46c-1.105,0-2-0.895-2-2l4-88c0-1.105,0.895-2,2-2h152c1.105,0,2,0.895,2,2l4,88
	C208,135.105,207.105,136,206,136z"/>
<ellipse style="fill:#262626;" cx="126" cy="212" rx="78" ry="4"/>
<rect x="12" y="207" style="fill:#595959;" width="232" height="1"/>
<path style="fill:#C4C0AA;" d="M210,212H42c-1.105,0-2-0.895-2-2v-76c0-1.105,0.895-2,2-2h168c1.105,0,2,0.895,2,2v76
	C212,211.105,211.105,212,210,212z"/>
</svg>
