<svg xmlns="http://www.w3.org/2000/svg" xml:space="preserve" width="330.666" height="330.666" viewBox="0 0 330.666 330.666"><defs><clipPath id="a" clipPathUnits="userSpaceOnUse"><path d="M0 256h256V0H0Z"/></clipPath><clipPath id="b" clipPathUnits="userSpaceOnUse"><path d="M4 252h248V4H4Z"/></clipPath></defs><g clip-path="url(#a)" transform="matrix(1.33333 0 0 -1.33333 -5.334 336)"><g clip-path="url(#b)" style="opacity:.5"><path d="M0 0h-8c-4.247 0-7.985-2.218-10.119-5.557-29.884 9.326-69.131 16.303-116.786 20.754-40.168 3.752-74.866 4.577-87.921 4.758l-.181.002h-.001a12.98 12.98 0 0 1-9.792-4.458 13 13 0 0 1-3.077-10.325l.029-.215.041-.212c.159-.817 15.807-82.01 15.807-108.79 0-26.788-15.648-107.973-15.807-108.79l-.041-.213-.029-.215a13 13 0 0 1 3.077-10.324 12.98 12.98 0 0 1 9.792-4.458l.189.001c13.048.181 47.747 1.006 87.914 4.758 47.655 4.451 86.902 11.428 116.786 20.754 2.134-3.339 5.872-5.556 10.119-5.556h8c6.616 0 12 5.384 12 12.004v28.262l-.016.249-3.968 63.528 3.968 63.527.016.249v28.262C12-5.386 6.616 0 0 0" style="fill:#fff;fill-opacity:1;fill-rule:nonzero;stroke:none" transform="translate(240 232.043)"/></g><path d="M0 0h-8a4 4 0 0 1-4-4v-184a4 4 0 0 1 4-4h8a4 4 0 0 1 4 4v28L0-96l4 64v28a4 4 0 0 1-4 4" style="fill:#7b0000;fill-opacity:1;fill-rule:nonzero;stroke:none" transform="translate(240 224)"/><path d="M236 32h-4v192h4z" style="fill:#b80000;fill-opacity:1;fill-rule:nonzero;stroke:none"/><path d="M0 0h-8a3.99 3.99 0 0 1-3.121-1.499c-1.029-1.282-2.673-1.877-4.233-1.356C-85.72 20.662-196.58 23.593-222.936 23.958c-3.06.043-5.434-2.652-5.016-5.685 0 0 15.952-82.448 15.952-110.314 0-27.865-15.952-110.314-15.952-110.314-.418-3.033 1.956-5.728 5.016-5.685 26.356.365 137.216 3.296 207.582 26.812 1.56.522 3.204-.073 4.233-1.355A3.99 3.99 0 0 1-8-184.082h8c2.209 0 4 1.792 4 4.002v24.011h-16v128.056H4v24.011A4 4 0 0 1 0 0" style="fill:#404040;fill-opacity:1;fill-rule:nonzero;stroke:none" transform="translate(240 220.041)"/><path d="M0 0c-2.366 0-3.939-1.622-4.677-4.822-.246-1.068-.483-2.502-.706-4.262C-5.754-12.019-6-15.19-6-16v-104c0-.81.246-3.981.617-6.916.223-1.761.46-3.194.706-4.263C-3.939-134.378-2.366-136 0-136s3.939 1.622 4.677 4.821c.246 1.069.483 2.502.706 4.263C5.754-123.981 6-120.81 6-120v104c0 .81-.246 3.981-.617 6.916-.223 1.76-.46 3.194-.706 4.262C3.939-1.622 2.366 0 0 0" style="fill:#333;fill-opacity:1;fill-rule:nonzero;stroke:none" transform="translate(186 196)"/><path d="M0 0c-1.104 0-2 10.896-2 12v104c0 1.104.896 12 2 12s2-10.896 2-12V12c0-1.104-.896-12-2-12" style="fill:#7b0000;fill-opacity:1;fill-rule:nonzero;stroke:none" transform="translate(186 64)"/><path d="M0 0c-2.366 0-3.939-1.622-4.676-4.822-.246-1.068-.484-2.502-.707-4.262C-5.754-12.019-6-15.19-6-16v-104c0-.81.246-3.981.617-6.916.223-1.761.461-3.194.707-4.263C-3.939-134.378-2.366-136 0-136s3.939 1.622 4.677 4.821c.246 1.069.483 2.502.706 4.263C5.754-123.981 6-120.81 6-120v104c0 .81-.246 3.981-.617 6.916-.223 1.76-.46 3.194-.706 4.262C3.939-1.622 2.366 0 0 0" style="fill:#333;fill-opacity:1;fill-rule:nonzero;stroke:none" transform="translate(130 196)"/><path d="M0 0c-1.104 0-2 10.896-2 12v104c0 1.104.896 12 2 12s2-10.896 2-12V12c0-1.104-.896-12-2-12" style="fill:#7b0000;fill-opacity:1;fill-rule:nonzero;stroke:none" transform="translate(130 64)"/><path d="M0 0c-2.366 0-3.939-1.622-4.676-4.822-.246-1.068-.484-2.502-.707-4.262C-5.754-12.019-6-15.19-6-16v-104c0-.81.246-3.981.617-6.916.223-1.761.461-3.194.707-4.263C-3.939-134.378-2.366-136 0-136s3.939 1.622 4.676 4.821c.246 1.069.484 2.502.707 4.263C5.754-123.981 6-120.81 6-120v104c0 .81-.246 3.981-.617 6.916-.223 1.76-.461 3.194-.707 4.262C3.939-1.622 2.366 0 0 0" style="fill:#333;fill-opacity:1;fill-rule:nonzero;stroke:none" transform="translate(74 196)"/><path d="M0 0c-1.104 0-2 10.896-2 12v104c0 1.104.896 12 2 12s2-10.896 2-12V12c0-1.104-.896-12-2-12" style="fill:#7b0000;fill-opacity:1;fill-rule:nonzero;stroke:none" transform="translate(74 64)"/></g></svg>