<?xml version="1.0" encoding="UTF-8" standalone="no"?>
<svg
   xmlns:dc="http://purl.org/dc/elements/1.1/"
   xmlns:cc="http://creativecommons.org/ns#"
   xmlns:rdf="http://www.w3.org/1999/02/22-rdf-syntax-ns#"
   xmlns:svg="http://www.w3.org/2000/svg"
   xmlns="http://www.w3.org/2000/svg"
   viewBox="0 0 330.66577 330.66598"
   height="330.66599"
   width="330.66577"
   xml:space="preserve"
   id="svg2"
   version="1.1"><metadata
     id="metadata8"><rdf:RDF><cc:Work
         rdf:about=""><dc:format>image/svg+xml</dc:format><dc:type
           rdf:resource="http://purl.org/dc/dcmitype/StillImage" /></cc:Work></rdf:RDF></metadata><defs
     id="defs6"><clipPath
       id="clipPath18"
       clipPathUnits="userSpaceOnUse"><path
         id="path16"
         d="M 0,256 H 256 V 0 H 0 Z" /></clipPath><clipPath
       id="clipPath26"
       clipPathUnits="userSpaceOnUse"><path
         id="path24"
         d="M 4.00037,252 H 252 V 4 H 4.00037 Z" /></clipPath></defs><g
     transform="matrix(1.3333333,0,0,-1.3333333,-5.334233,335.99999)"
     id="g10"><g
       id="g12"><g
         clip-path="url(#clipPath18)"
         id="g14"><g
           id="g20"><g
             id="g22" /><g
             id="g34"><g
               style="opacity:0.5"
               id="g32"
               clip-path="url(#clipPath26)"><g
                 id="g30"
                 transform="translate(240,232.0435)"><path
                   id="path28"
                   style="fill:#ffffff;fill-opacity:1;fill-rule:nonzero;stroke:none"
                   d="m 0,0 h -4 -4 c -4.247,0 -7.985,-2.218 -10.119,-5.557 -29.884,9.326 -69.131,16.303 -116.786,20.754 -40.168,3.752 -74.866,4.577 -87.921,4.758 l -0.181,0.002 h -0.001 c -3.755,0 -7.324,-1.625 -9.792,-4.458 -2.47,-2.835 -3.591,-6.598 -3.077,-10.325 l 0.029,-0.215 0.041,-0.212 c 0.159,-0.817 15.807,-82.01 15.807,-108.79 0,-26.788 -15.648,-107.973 -15.807,-108.79 l -0.041,-0.213 -0.029,-0.215 c -0.514,-3.727 0.607,-7.489 3.077,-10.324 2.468,-2.833 6.037,-4.458 9.792,-4.458 l 0.189,0.001 c 13.048,0.181 47.747,1.006 87.914,4.758 47.655,4.451 86.902,11.428 116.786,20.754 2.134,-3.339 5.872,-5.556 10.119,-5.556 h 4 4 c 6.616,0 12,5.384 12,12.004 v 4.002 24.01 0.25 l -0.016,0.249 -3.968,63.528 3.968,63.527 0.016,0.249 v 0.25 24.01 4.002 C 12,-5.386 6.616,0 0,0" /></g></g></g></g><g
           transform="translate(240,224)"
           id="g36"><path
             id="path38"
             style="fill:#7b0000;fill-opacity:1;fill-rule:nonzero;stroke:none"
             d="m 0,0 h -8 c -2.209,0 -4,-1.791 -4,-4 v -4 -24 -128 -24 -4 c 0,-2.209 1.791,-4 4,-4 h 8 c 2.209,0 4,1.791 4,4 v 4 24 l -4,64 4,64 v 24 4 C 4,-1.791 2.209,0 0,0" /></g><path
           id="path40"
           style="fill:#b80000;fill-opacity:1;fill-rule:nonzero;stroke:none"
           d="m 236,32 h -4 v 192 h 4 z" /><g
           transform="translate(240,220.041)"
           id="g42"><path
             id="path44"
             style="fill:#404040;fill-opacity:1;fill-rule:nonzero;stroke:none"
             d="m 0,0 h -8 c -1.263,0 -2.388,-0.585 -3.121,-1.499 -1.029,-1.282 -2.673,-1.877 -4.233,-1.356 -70.366,23.517 -181.226,26.448 -207.582,26.813 -3.06,0.043 -5.434,-2.652 -5.016,-5.685 0,0 15.952,-82.448 15.952,-110.314 0,-27.865 -15.952,-110.314 -15.952,-110.314 -0.418,-3.033 1.956,-5.728 5.016,-5.685 26.356,0.365 137.216,3.296 207.582,26.812 1.56,0.522 3.204,-0.073 4.233,-1.355 0.733,-0.914 1.858,-1.499 3.121,-1.499 h 8 c 2.209,0 4,1.792 4,4.002 v 24.011 H -12 V -28.013 H 4 V -4.002 C 4,-1.792 2.209,0 0,0" /></g><g
           transform="translate(186,196)"
           id="g46"><path
             id="path48"
             style="fill:#333333;fill-opacity:1;fill-rule:nonzero;stroke:none"
             d="M 0,0 C -2.366,0 -3.939,-1.622 -4.677,-4.822 -4.923,-5.89 -5.16,-7.324 -5.383,-9.084 -5.754,-12.019 -6,-15.19 -6,-16 v -104 c 0,-0.81 0.246,-3.981 0.617,-6.916 0.223,-1.761 0.46,-3.194 0.706,-4.263 0.738,-3.199 2.311,-4.821 4.677,-4.821 2.366,0 3.939,1.622 4.677,4.821 0.246,1.069 0.483,2.502 0.706,4.263 C 5.754,-123.981 6,-120.81 6,-120 v 104 c 0,0.81 -0.246,3.981 -0.617,6.916 C 5.16,-7.324 4.923,-5.89 4.677,-4.822 3.939,-1.622 2.366,0 0,0" /></g><g
           transform="translate(186,64)"
           id="g50"><path
             id="path52"
             style="fill:#7b0000;fill-opacity:1;fill-rule:nonzero;stroke:none"
             d="m 0,0 v 0 c -1.104,0 -2,10.896 -2,12 v 104 c 0,1.104 0.896,12 2,12 1.104,0 2,-10.896 2,-12 V 12 C 2,10.896 1.104,0 0,0" /></g><g
           transform="translate(130,196)"
           id="g54"><path
             id="path56"
             style="fill:#333333;fill-opacity:1;fill-rule:nonzero;stroke:none"
             d="M 0,0 C -2.366,0 -3.939,-1.622 -4.676,-4.822 -4.922,-5.89 -5.16,-7.324 -5.383,-9.084 -5.754,-12.019 -6,-15.19 -6,-16 v -104 c 0,-0.81 0.246,-3.981 0.617,-6.916 0.223,-1.761 0.461,-3.194 0.707,-4.263 0.737,-3.199 2.31,-4.821 4.676,-4.821 2.366,0 3.939,1.622 4.677,4.821 0.246,1.069 0.483,2.502 0.706,4.263 C 5.754,-123.981 6,-120.81 6,-120 v 104 c 0,0.81 -0.246,3.981 -0.617,6.916 C 5.16,-7.324 4.923,-5.89 4.677,-4.822 3.939,-1.622 2.366,0 0,0" /></g><g
           transform="translate(130,64)"
           id="g58"><path
             id="path60"
             style="fill:#7b0000;fill-opacity:1;fill-rule:nonzero;stroke:none"
             d="m 0,0 v 0 c -1.104,0 -2,10.896 -2,12 v 104 c 0,1.104 0.896,12 2,12 1.104,0 2,-10.896 2,-12 V 12 C 2,10.896 1.104,0 0,0" /></g><g
           transform="translate(74,196)"
           id="g62"><path
             id="path64"
             style="fill:#333333;fill-opacity:1;fill-rule:nonzero;stroke:none"
             d="M 0,0 C -2.366,0 -3.939,-1.622 -4.676,-4.822 -4.922,-5.89 -5.16,-7.324 -5.383,-9.084 -5.754,-12.019 -6,-15.19 -6,-16 v -104 c 0,-0.81 0.246,-3.981 0.617,-6.916 0.223,-1.761 0.461,-3.194 0.707,-4.263 0.737,-3.199 2.31,-4.821 4.676,-4.821 2.366,0 3.939,1.622 4.676,4.821 0.246,1.069 0.484,2.502 0.707,4.263 C 5.754,-123.981 6,-120.81 6,-120 v 104 c 0,0.81 -0.246,3.981 -0.617,6.916 C 5.16,-7.324 4.922,-5.89 4.676,-4.822 3.939,-1.622 2.366,0 0,0" /></g><g
           transform="translate(74,64)"
           id="g66"><path
             id="path68"
             style="fill:#7b0000;fill-opacity:1;fill-rule:nonzero;stroke:none"
             d="m 0,0 v 0 c -1.104,0 -2,10.896 -2,12 v 104 c 0,1.104 0.896,12 2,12 1.104,0 2,-10.896 2,-12 V 12 C 2,10.896 1.104,0 0,0" /></g></g></g></g></svg>