<?xml version="1.0" encoding="UTF-8" standalone="no"?>
<svg
   xmlns:dc="http://purl.org/dc/elements/1.1/"
   xmlns:cc="http://creativecommons.org/ns#"
   xmlns:rdf="http://www.w3.org/1999/02/22-rdf-syntax-ns#"
   xmlns:svg="http://www.w3.org/2000/svg"
   xmlns="http://www.w3.org/2000/svg"
   viewBox="0 0 330.66665 277.33331"
   height="277.33331"
   width="330.66666"
   xml:space="preserve"
   id="svg2"
   version="1.1"><metadata
     id="metadata8"><rdf:RDF><cc:Work
         rdf:about=""><dc:format>image/svg+xml</dc:format><dc:type
           rdf:resource="http://purl.org/dc/dcmitype/StillImage" /></cc:Work></rdf:RDF></metadata><defs
     id="defs6"><clipPath
       id="clipPath18"
       clipPathUnits="userSpaceOnUse"><path
         id="path16"
         d="M 0,256 H 256 V 0 H 0 Z" /></clipPath><clipPath
       id="clipPath26"
       clipPathUnits="userSpaceOnUse"><path
         id="path24"
         d="M 4,232 H 252 V 24 H 4 Z" /></clipPath></defs><g
     transform="matrix(1.3333333,0,0,-1.3333333,-5.3333332,309.33333)"
     id="g10"><g
       id="g12"><g
         clip-path="url(#clipPath18)"
         id="g14"><g
           id="g20"><g
             id="g22" /><g
             id="g34"><g
               style="opacity:0.5"
               id="g32"
               clip-path="url(#clipPath26)"><g
                 id="g30"
                 transform="translate(212,232)"><path
                   id="path28"
                   style="fill:#ffffff;fill-opacity:1;fill-rule:nonzero;stroke:none"
                   d="m 0,0 h -84 -84 c -22.056,0 -40,-17.944 -40,-40 v -0.498 l 0.062,-0.494 7.408,-59.265 c 0.442,-3.535 1.153,-7.066 2.114,-10.497 l 14.59,-52.066 c 3.95,-24.035 18.24,-39.406 38.299,-41.15 l 0.066,-0.006 0.065,-0.004 56.834,-4 0.281,-0.02 h 0.281 4 4 0.281 l 0.281,0.02 56.834,4 0.065,0.004 0.066,0.006 c 20.059,1.744 34.35,17.115 38.299,41.15 l 14.59,52.066 c 0.961,3.431 1.672,6.962 2.114,10.497 l 7.408,59.265 0.062,0.494 V -40 C 40,-17.944 22.056,0 0,0" /></g></g></g></g><g
           transform="translate(212,224)"
           id="g36"><path
             id="path38"
             style="fill:#1abf9f;fill-opacity:1;fill-rule:nonzero;stroke:none"
             d="m 0,0 h -84 -84 c -17.673,0 -32,-14.327 -32,-32 l 7.408,-59.265 c 0.394,-3.152 1.022,-6.271 1.88,-9.33 L -176,-153.099 c 2.867,-18.154 12.856,-33.309 31.166,-34.901 L -88,-192 h 4 4 l 56.834,4 c 18.31,1.592 28.3,16.747 31.166,34.901 l 14.712,52.504 c 0.857,3.059 1.486,6.178 1.88,9.33 L 32,-32 C 32,-14.327 17.673,0 0,0" /></g><g
           transform="translate(212,220)"
           id="g40"><path
             id="path42"
             style="fill:#d9d9d9;fill-opacity:1;fill-rule:nonzero;stroke:none"
             d="m 0,0 c 15.359,0 27.869,-12.43 27.999,-27.759 l -7.376,-59.01 c -0.368,-2.945 -0.961,-5.888 -1.763,-8.747 l -14.712,-52.504 -0.063,-0.224 -0.036,-0.232 c -1.403,-8.879 -6.891,-29.721 -27.53,-31.537 L -28,-180.33 -32,-184 -80.141,-188 H -84 -87.859 l -48.141,4 -4,3.67 -4.519,0.317 c -20.64,1.816 -26.128,22.658 -27.53,31.537 l -0.036,0.232 -0.063,0.224 -14.713,52.504 c -0.801,2.859 -1.394,5.802 -1.762,8.747 l -7.376,59.01 C -195.87,-12.43 -183.359,0 -168,0 h 8 l 4,4 h 72 72 l 4,-4 h 8" /></g><g
           transform="translate(204.9395,216)"
           id="g44"><path
             id="path46"
             style="fill:#f2f2f2;fill-opacity:1;fill-rule:nonzero;stroke:none"
             d="m 0,0 h -153.879 c -12.171,0 -21.52,-10.78 -19.799,-22.829 l 8.739,-61.171 16.309,-61.976 c 2.201,-8.366 9.531,-14.368 18.167,-14.876 L -88.939,-164 h 24 l 41.523,3.148 c 8.636,0.508 15.966,6.51 18.167,14.876 L 11.061,-84 19.799,-22.829 C 21.521,-10.78 12.171,0 0,0" /></g><g
           transform="translate(133.5283,44)"
           id="g48"><path
             id="path50"
             style="fill:#cccccc;fill-opacity:1;fill-rule:nonzero;stroke:none"
             d="m 0,0 h -11.056 c -1.515,0 -2.901,0.856 -3.578,2.211 L -17.528,8 h 24 L 3.577,2.211 C 2.899,0.856 1.515,0 0,0" /></g><g
           transform="translate(180.1416,68)"
           id="g52"><path
             id="path54"
             style="fill:#e6e6e6;fill-opacity:1;fill-rule:nonzero;stroke:none"
             d="m 0,0 h -104.283 c -6.473,0 -11.779,5.614 -11.994,12.689 l -3.453,113.75 c -0.225,7.416 5.21,13.561 11.994,13.561 H 3.453 c 6.784,0 12.219,-6.145 11.993,-13.561 L 11.993,12.689 C 11.779,5.614 6.473,0 0,0" /></g><g
           transform="translate(94,192)"
           id="g56"><path
             id="path58"
             style="fill:#f2f2f2;fill-opacity:1;fill-rule:nonzero;stroke:none"
             d="m 0,0 c -14.359,0 -26,-1.791 -26,-4 v -112 c 0,-2.209 11.641,-4 26,-4 14.359,0 26,1.791 26,4 V -4 C 26,-1.791 14.359,0 0,0" /></g><g
           transform="translate(94,196)"
           id="g60"><path
             id="path62"
             style="fill:#bfbfbf;fill-opacity:1;fill-rule:nonzero;stroke:none"
             d="M 0,0 C -7.142,0 -13.887,-0.433 -18.993,-1.218 -23.11,-1.852 -30,-2.912 -30,-8 v -112 c 0,-5.089 6.89,-6.148 11.007,-6.782 C -13.887,-127.567 -7.142,-128 0,-128 c 7.142,0 13.887,0.433 18.993,1.218 C 23.11,-126.148 30,-125.089 30,-120 V -8 c 0,5.088 -6.89,6.148 -11.007,6.782 C 13.887,-0.433 7.142,0 0,0 m 0,-4 c 14.359,0 26,-1.791 26,-4 v -112 c 0,-2.209 -11.641,-4 -26,-4 -14.359,0 -26,1.791 -26,4 V -8 c 0,2.209 11.641,4 26,4" /></g><path
           id="path64"
           style="fill:#262626;fill-opacity:1;fill-rule:nonzero;stroke:none"
           d="M 116,124 H 72 v 56 h 44 z" /><g
           transform="translate(94,116)"
           id="g66"><path
             id="path68"
             style="fill:#1abf9f;fill-opacity:1;fill-rule:nonzero;stroke:none"
             d="m 0,0 c -9.941,0 -18,-8.059 -18,-18 0,-9.941 8.059,-18 18,-18 9.941,0 18,8.059 18,18 C 18,-8.059 9.941,0 0,0" /></g><g
           transform="translate(94,112)"
           id="g70"><path
             id="path72"
             style="fill:#f2f2f2;fill-opacity:1;fill-rule:nonzero;stroke:none"
             d="m 0,0 c 7.72,0 14,-6.28 14,-14 0,-7.72 -6.28,-14 -14,-14 -7.72,0 -14,6.28 -14,14 0,7.72 6.28,14 14,14" /></g><g
           transform="translate(120,172)"
           id="g74"><path
             id="path76"
             style="fill:#d9d9d9;fill-opacity:1;fill-rule:nonzero;stroke:none"
             d="m 0,0 v -16 c 2.209,0 4,3.582 4,8 0,4.418 -1.791,8 -4,8" /></g><g
           transform="translate(120,152)"
           id="g78"><path
             id="path80"
             style="fill:#d9d9d9;fill-opacity:1;fill-rule:nonzero;stroke:none"
             d="m 0,0 v -16 c 2.209,0 4,3.582 4,8 0,4.418 -1.791,8 -4,8" /></g><g
           transform="translate(68,136)"
           id="g82"><path
             id="path84"
             style="fill:#d9d9d9;fill-opacity:1;fill-rule:nonzero;stroke:none"
             d="M 0,0 V 16 C -2.209,16 -4,12.418 -4,8 -4,3.582 -2.209,0 0,0" /></g><g
           transform="translate(68,156)"
           id="g86"><path
             id="path88"
             style="fill:#d9d9d9;fill-opacity:1;fill-rule:nonzero;stroke:none"
             d="M 0,0 V 16 C -2.209,16 -4,12.418 -4,8 -4,3.582 -2.209,0 0,0" /></g><g
           transform="translate(96,186)"
           id="g90"><path
             id="path92"
             style="fill:#bfbfbf;fill-opacity:1;fill-rule:nonzero;stroke:none"
             d="m 0,0 c 0,-1.104 -0.896,-2 -2,-2 -1.104,0 -2,0.896 -2,2 0,1.104 0.896,2 2,2 1.104,0 2,-0.896 2,-2" /></g><g
           transform="translate(94,105)"
           id="g94"><path
             id="path96"
             style="fill:#bfbfbf;fill-opacity:1;fill-rule:nonzero;stroke:none"
             d="M 0,0 V 0 C -0.552,0 -1,0.447 -1,1 V 5 C -1,5.553 -0.552,6 0,6 0.552,6 1,5.553 1,5 V 1 C 1,0.447 0.552,0 0,0" /></g><g
           transform="translate(94,85)"
           id="g98"><path
             id="path100"
             style="fill:#bfbfbf;fill-opacity:1;fill-rule:nonzero;stroke:none"
             d="M 0,0 V 0 C -0.552,0 -1,0.447 -1,1 V 5 C -1,5.553 -0.552,6 0,6 0.552,6 1,5.553 1,5 V 1 C 1,0.447 0.552,0 0,0" /></g><g
           transform="translate(100.5,98)"
           id="g102"><path
             id="path104"
             style="fill:#bfbfbf;fill-opacity:1;fill-rule:nonzero;stroke:none"
             d="M 0,0 V 0 C 0,0.553 0.448,1 1,1 H 5 C 5.552,1 6,0.553 6,0 6,-0.553 5.552,-1 5,-1 H 1 C 0.448,-1 0,-0.553 0,0" /></g><g
           transform="translate(81.5,98)"
           id="g106"><path
             id="path108"
             style="fill:#bfbfbf;fill-opacity:1;fill-rule:nonzero;stroke:none"
             d="M 0,0 V 0 C 0,0.553 0.448,1 1,1 H 5 C 5.552,1 6,0.553 6,0 6,-0.553 5.552,-1 5,-1 H 1 C 0.448,-1 0,-0.553 0,0" /></g><g
           transform="translate(87.5327,100.6787)"
           id="g110"><path
             id="path112"
             style="fill:#bfbfbf;fill-opacity:1;fill-rule:nonzero;stroke:none"
             d="m 0,0 v 0 c -0.211,-0.51 -0.796,-0.753 -1.307,-0.541 l -3.695,1.53 c -0.51,0.212 -0.752,0.797 -0.541,1.307 0.211,0.511 0.796,0.753 1.306,0.541 l 3.696,-1.53 C -0.031,1.096 0.211,0.511 0,0" /></g><g
           transform="translate(106.0103,93.0254)"
           id="g114"><path
             id="path116"
             style="fill:#bfbfbf;fill-opacity:1;fill-rule:nonzero;stroke:none"
             d="m 0,0 v 0 c -0.211,-0.511 -0.796,-0.753 -1.306,-0.541 l -3.696,1.53 c -0.51,0.211 -0.752,0.796 -0.541,1.307 0.211,0.51 0.796,0.753 1.307,0.541 l 3.695,-1.53 C -0.031,1.095 0.211,0.51 0,0" /></g><g
           transform="translate(96.4873,104.0049)"
           id="g118"><path
             id="path120"
             style="fill:#bfbfbf;fill-opacity:1;fill-rule:nonzero;stroke:none"
             d="M 0,0 V 0 C -0.51,0.212 -0.752,0.797 -0.541,1.307 L 0.99,5.002 C 1.201,5.513 1.786,5.755 2.296,5.544 2.807,5.332 3.049,4.747 2.837,4.237 L 1.307,0.542 C 1.095,0.031 0.51,-0.211 0,0" /></g><g
           transform="translate(89.2163,86.4512)"
           id="g122"><path
             id="path124"
             style="fill:#bfbfbf;fill-opacity:1;fill-rule:nonzero;stroke:none"
             d="M 0,0 V 0 C -0.51,0.212 -0.752,0.797 -0.541,1.307 L 0.99,5.002 C 1.201,5.513 1.786,5.755 2.296,5.544 2.807,5.332 3.049,4.747 2.837,4.237 L 1.307,0.542 C 1.095,0.031 0.51,-0.211 0,0" /></g><g
           transform="translate(91.3213,104.4668)"
           id="g126"><path
             id="path128"
             style="fill:#bfbfbf;fill-opacity:1;fill-rule:nonzero;stroke:none"
             d="m 0,0 v 0 c -0.51,-0.211 -1.095,0.031 -1.307,0.542 l -1.53,3.695 c -0.212,0.51 0.03,1.095 0.541,1.307 0.51,0.211 1.095,-0.031 1.306,-0.541 L 0.541,1.307 C 0.752,0.797 0.51,0.212 0,0" /></g><g
           transform="translate(98.9751,85.9893)"
           id="g130"><path
             id="path132"
             style="fill:#bfbfbf;fill-opacity:1;fill-rule:nonzero;stroke:none"
             d="m 0,0 v 0 c -0.51,-0.211 -1.095,0.031 -1.307,0.541 l -1.53,3.696 c -0.212,0.51 0.03,1.095 0.541,1.307 0.51,0.211 1.095,-0.031 1.306,-0.542 L 0.541,1.307 C 0.752,0.797 0.51,0.212 0,0" /></g><g
           transform="translate(100.0054,100.4873)"
           id="g134"><path
             id="path136"
             style="fill:#bfbfbf;fill-opacity:1;fill-rule:nonzero;stroke:none"
             d="M 0,0 V 0 C -0.211,0.511 0.031,1.096 0.541,1.307 L 4.236,2.838 C 4.747,3.049 5.332,2.807 5.543,2.296 5.754,1.786 5.512,1.201 5.002,0.989 L 1.307,-0.541 C 0.796,-0.752 0.211,-0.51 0,0" /></g><g
           transform="translate(82.4517,93.2168)"
           id="g138"><path
             id="path140"
             style="fill:#bfbfbf;fill-opacity:1;fill-rule:nonzero;stroke:none"
             d="m 0,0 v 0 c -0.211,0.51 0.031,1.095 0.541,1.307 l 3.695,1.53 C 4.747,3.048 5.332,2.806 5.543,2.296 5.754,1.785 5.512,1.2 5.002,0.989 L 1.307,-0.542 C 0.796,-0.753 0.211,-0.511 0,0" /></g><g
           transform="translate(89.0503,102.9502)"
           id="g142"><path
             id="path144"
             style="fill:#bfbfbf;fill-opacity:1;fill-rule:nonzero;stroke:none"
             d="m 0,0 v 0 c -0.391,-0.391 -1.024,-0.391 -1.414,0 l -2.829,2.828 c -0.39,0.391 -0.39,1.024 0,1.414 0.391,0.391 1.024,0.391 1.414,0 L 0,1.414 C 0.391,1.023 0.391,0.39 0,0" /></g><g
           transform="translate(103.1924,88.8076)"
           id="g146"><path
             id="path148"
             style="fill:#bfbfbf;fill-opacity:1;fill-rule:nonzero;stroke:none"
             d="m 0,0 v 0 c -0.391,-0.391 -1.024,-0.391 -1.414,0 l -2.829,2.828 c -0.39,0.391 -0.39,1.025 0,1.414 0.391,0.391 1.024,0.391 1.414,0 L 0,1.414 C 0.391,1.023 0.391,0.391 0,0" /></g><g
           transform="translate(98.5962,102.5967)"
           id="g150"><path
             id="path152"
             style="fill:#bfbfbf;fill-opacity:1;fill-rule:nonzero;stroke:none"
             d="m 0,0 v 0 c -0.391,0.39 -0.391,1.023 0,1.414 l 2.829,2.828 c 0.39,0.391 1.023,0.391 1.414,0 0.39,-0.39 0.39,-1.023 0,-1.414 L 1.414,0 C 1.024,-0.391 0.391,-0.391 0,0" /></g><g
           transform="translate(85.1611,89.1611)"
           id="g154"><path
             id="path156"
             style="fill:#bfbfbf;fill-opacity:1;fill-rule:nonzero;stroke:none"
             d="m 0,0 v 0 c -0.391,0.391 -0.391,1.023 0,1.414 l 2.829,2.828 c 0.39,0.391 1.023,0.391 1.414,0 0.39,-0.389 0.39,-1.023 0,-1.414 L 1.414,0 C 1.024,-0.391 0.391,-0.391 0,0" /></g><g
           transform="translate(162,192)"
           id="g158"><path
             id="path160"
             style="fill:#f2f2f2;fill-opacity:1;fill-rule:nonzero;stroke:none"
             d="m 0,0 c -14.359,0 -26,-1.791 -26,-4 v -112 c 0,-2.209 11.641,-4 26,-4 14.359,0 26,1.791 26,4 V -4 C 26,-1.791 14.359,0 0,0" /></g><g
           transform="translate(162,196)"
           id="g162"><path
             id="path164"
             style="fill:#bfbfbf;fill-opacity:1;fill-rule:nonzero;stroke:none"
             d="M 0,0 C -7.143,0 -13.888,-0.433 -18.993,-1.218 -23.109,-1.852 -30,-2.912 -30,-8 v -112 c 0,-5.089 6.891,-6.148 11.007,-6.782 C -13.888,-127.567 -7.142,-128 0,-128 c 7.142,0 13.888,0.433 18.993,1.218 C 23.109,-126.148 30,-125.089 30,-120 V -8 c 0,5.088 -6.891,6.148 -11.007,6.782 C 13.888,-0.433 7.143,0 0,0 m 0,-4 c 14.359,0 26,-1.791 26,-4 v -112 c 0,-2.209 -11.641,-4 -26,-4 -14.359,0 -26,1.791 -26,4 V -8 c 0,2.209 11.641,4 26,4" /></g><path
           id="path166"
           style="fill:#262626;fill-opacity:1;fill-rule:nonzero;stroke:none"
           d="m 184,124 h -44 v 56 h 44 z" /><g
           transform="translate(162,116)"
           id="g168"><path
             id="path170"
             style="fill:#1abf9f;fill-opacity:1;fill-rule:nonzero;stroke:none"
             d="m 0,0 c -9.941,0 -18,-8.059 -18,-18 0,-9.941 8.059,-18 18,-18 9.941,0 18,8.059 18,18 C 18,-8.059 9.941,0 0,0" /></g><g
           transform="translate(162,112)"
           id="g172"><path
             id="path174"
             style="fill:#f2f2f2;fill-opacity:1;fill-rule:nonzero;stroke:none"
             d="m 0,0 c 7.72,0 14,-6.28 14,-14 0,-7.72 -6.28,-14 -14,-14 -7.72,0 -14,6.28 -14,14 0,7.72 6.28,14 14,14" /></g><g
           transform="translate(188,172)"
           id="g176"><path
             id="path178"
             style="fill:#d9d9d9;fill-opacity:1;fill-rule:nonzero;stroke:none"
             d="m 0,0 v -16 c 2.209,0 4,3.582 4,8 0,4.418 -1.791,8 -4,8" /></g><g
           transform="translate(188,152)"
           id="g180"><path
             id="path182"
             style="fill:#d9d9d9;fill-opacity:1;fill-rule:nonzero;stroke:none"
             d="m 0,0 v -16 c 2.209,0 4,3.582 4,8 0,4.418 -1.791,8 -4,8" /></g><g
           transform="translate(136,136)"
           id="g184"><path
             id="path186"
             style="fill:#d9d9d9;fill-opacity:1;fill-rule:nonzero;stroke:none"
             d="M 0,0 V 16 C -2.209,16 -4,12.418 -4,8 -4,3.582 -2.209,0 0,0" /></g><g
           transform="translate(136,156)"
           id="g188"><path
             id="path190"
             style="fill:#d9d9d9;fill-opacity:1;fill-rule:nonzero;stroke:none"
             d="M 0,0 V 16 C -2.209,16 -4,12.418 -4,8 -4,3.582 -2.209,0 0,0" /></g><g
           transform="translate(164,186)"
           id="g192"><path
             id="path194"
             style="fill:#bfbfbf;fill-opacity:1;fill-rule:nonzero;stroke:none"
             d="m 0,0 c 0,-1.104 -0.896,-2 -2,-2 -1.104,0 -2,0.896 -2,2 0,1.104 0.896,2 2,2 1.104,0 2,-0.896 2,-2" /></g><g
           transform="translate(162,105)"
           id="g196"><path
             id="path198"
             style="fill:#bfbfbf;fill-opacity:1;fill-rule:nonzero;stroke:none"
             d="M 0,0 V 0 C -0.553,0 -1,0.447 -1,1 V 5 C -1,5.553 -0.553,6 0,6 0.553,6 1,5.553 1,5 V 1 C 1,0.447 0.553,0 0,0" /></g><g
           transform="translate(162,85)"
           id="g200"><path
             id="path202"
             style="fill:#bfbfbf;fill-opacity:1;fill-rule:nonzero;stroke:none"
             d="M 0,0 V 0 C -0.553,0 -1,0.447 -1,1 V 5 C -1,5.553 -0.553,6 0,6 0.553,6 1,5.553 1,5 V 1 C 1,0.447 0.553,0 0,0" /></g><g
           transform="translate(168.5,98)"
           id="g204"><path
             id="path206"
             style="fill:#bfbfbf;fill-opacity:1;fill-rule:nonzero;stroke:none"
             d="M 0,0 V 0 C 0,0.553 0.447,1 1,1 H 5 C 5.553,1 6,0.553 6,0 6,-0.553 5.553,-1 5,-1 H 1 C 0.447,-1 0,-0.553 0,0" /></g><g
           transform="translate(149.5,98)"
           id="g208"><path
             id="path210"
             style="fill:#bfbfbf;fill-opacity:1;fill-rule:nonzero;stroke:none"
             d="M 0,0 V 0 C 0,0.553 0.447,1 1,1 H 5 C 5.553,1 6,0.553 6,0 6,-0.553 5.553,-1 5,-1 H 1 C 0.447,-1 0,-0.553 0,0" /></g><g
           transform="translate(155.5332,100.6787)"
           id="g212"><path
             id="path214"
             style="fill:#bfbfbf;fill-opacity:1;fill-rule:nonzero;stroke:none"
             d="m 0,0 v 0 c -0.212,-0.51 -0.797,-0.753 -1.307,-0.541 l -3.696,1.53 c -0.51,0.212 -0.752,0.797 -0.541,1.307 0.212,0.511 0.797,0.753 1.307,0.541 l 3.695,-1.53 C -0.031,1.096 0.211,0.511 0,0" /></g><g
           transform="translate(174.0107,93.0254)"
           id="g216"><path
             id="path218"
             style="fill:#bfbfbf;fill-opacity:1;fill-rule:nonzero;stroke:none"
             d="m 0,0 v 0 c -0.212,-0.511 -0.797,-0.753 -1.307,-0.541 l -3.695,1.53 c -0.511,0.211 -0.753,0.796 -0.542,1.307 0.212,0.51 0.797,0.753 1.307,0.541 l 3.696,-1.53 C -0.031,1.095 0.211,0.51 0,0" /></g><g
           transform="translate(164.4873,104.0049)"
           id="g220"><path
             id="path222"
             style="fill:#bfbfbf;fill-opacity:1;fill-rule:nonzero;stroke:none"
             d="m 0,0 v 0 c -0.51,0.212 -0.752,0.797 -0.541,1.307 l 1.53,3.695 C 1.201,5.513 1.786,5.755 2.296,5.544 2.807,5.332 3.049,4.747 2.838,4.237 L 1.307,0.542 C 1.096,0.031 0.511,-0.211 0,0" /></g><g
           transform="translate(157.2168,86.4512)"
           id="g224"><path
             id="path226"
             style="fill:#bfbfbf;fill-opacity:1;fill-rule:nonzero;stroke:none"
             d="M 0,0 V 0 C -0.511,0.212 -0.753,0.797 -0.542,1.307 L 0.989,5.002 C 1.2,5.513 1.785,5.755 2.296,5.544 2.806,5.332 3.048,4.747 2.837,4.237 L 1.307,0.542 C 1.095,0.031 0.51,-0.211 0,0" /></g><g
           transform="translate(159.3213,104.4668)"
           id="g228"><path
             id="path230"
             style="fill:#bfbfbf;fill-opacity:1;fill-rule:nonzero;stroke:none"
             d="m 0,0 v 0 c -0.511,-0.211 -1.096,0.031 -1.307,0.542 l -1.53,3.695 c -0.212,0.51 0.03,1.095 0.541,1.307 0.51,0.211 1.095,-0.031 1.307,-0.541 L 0.541,1.307 C 0.753,0.797 0.51,0.212 0,0" /></g><g
           transform="translate(166.9746,85.9893)"
           id="g232"><path
             id="path234"
             style="fill:#bfbfbf;fill-opacity:1;fill-rule:nonzero;stroke:none"
             d="m 0,0 v 0 c -0.51,-0.211 -1.095,0.031 -1.307,0.541 l -1.53,3.696 c -0.212,0.51 0.031,1.095 0.541,1.307 0.511,0.211 1.096,-0.031 1.307,-0.542 L 0.541,1.307 C 0.753,0.797 0.511,0.212 0,0" /></g><g
           transform="translate(168.0049,100.4873)"
           id="g236"><path
             id="path238"
             style="fill:#bfbfbf;fill-opacity:1;fill-rule:nonzero;stroke:none"
             d="M 0,0 V 0 C -0.211,0.511 0.031,1.096 0.542,1.307 L 4.237,2.838 C 4.747,3.049 5.332,2.807 5.544,2.296 5.755,1.786 5.513,1.201 5.002,0.989 L 1.307,-0.541 C 0.797,-0.752 0.212,-0.51 0,0" /></g><g
           transform="translate(150.4512,93.2168)"
           id="g240"><path
             id="path242"
             style="fill:#bfbfbf;fill-opacity:1;fill-rule:nonzero;stroke:none"
             d="m 0,0 v 0 c -0.211,0.51 0.031,1.095 0.542,1.307 l 3.695,1.53 C 4.747,3.048 5.332,2.806 5.544,2.296 5.755,1.785 5.513,1.2 5.002,0.989 L 1.307,-0.542 C 0.797,-0.753 0.212,-0.511 0,0" /></g><g
           transform="translate(157.0498,102.9502)"
           id="g244"><path
             id="path246"
             style="fill:#bfbfbf;fill-opacity:1;fill-rule:nonzero;stroke:none"
             d="m 0,0 v 0 c -0.39,-0.391 -1.023,-0.391 -1.414,0 l -2.828,2.828 c -0.391,0.391 -0.391,1.024 0,1.414 0.39,0.391 1.023,0.391 1.414,0 L 0,1.414 C 0.391,1.023 0.391,0.39 0,0" /></g><g
           transform="translate(171.1924,88.8076)"
           id="g248"><path
             id="path250"
             style="fill:#bfbfbf;fill-opacity:1;fill-rule:nonzero;stroke:none"
             d="m 0,0 v 0 c -0.391,-0.391 -1.023,-0.391 -1.414,0 l -2.828,2.828 c -0.391,0.391 -0.391,1.025 0,1.414 0.389,0.391 1.023,0.391 1.414,0 L 0,1.414 C 0.391,1.023 0.391,0.391 0,0" /></g><g
           transform="translate(166.5967,102.5967)"
           id="g252"><path
             id="path254"
             style="fill:#bfbfbf;fill-opacity:1;fill-rule:nonzero;stroke:none"
             d="m 0,0 v 0 c -0.391,0.39 -0.391,1.023 0,1.414 l 2.828,2.828 c 0.391,0.391 1.024,0.391 1.414,0 0.391,-0.39 0.391,-1.023 0,-1.414 L 1.414,0 C 1.023,-0.391 0.39,-0.391 0,0" /></g><g
           transform="translate(153.1611,89.1611)"
           id="g256"><path
             id="path258"
             style="fill:#bfbfbf;fill-opacity:1;fill-rule:nonzero;stroke:none"
             d="m 0,0 v 0 c -0.391,0.391 -0.391,1.023 0,1.414 l 2.828,2.828 c 0.391,0.391 1.025,0.391 1.414,0 0.391,-0.389 0.391,-1.023 0,-1.414 L 1.414,0 C 1.023,-0.391 0.391,-0.391 0,0" /></g><g
           transform="translate(134,164)"
           id="g260"><path
             id="path262"
             style="fill:#1abf9f;fill-opacity:1;fill-rule:nonzero;stroke:none"
             d="M 0,0 C 0,-4.418 0.896,-8 2,-8 V 8 C 0.896,8 0,4.418 0,0" /></g><g
           transform="translate(134,144)"
           id="g264"><path
             id="path266"
             style="fill:#1abf9f;fill-opacity:1;fill-rule:nonzero;stroke:none"
             d="M 0,0 C 0,-4.418 0.896,-8 2,-8 V 8 C 0.896,8 0,4.418 0,0" /></g><g
           transform="translate(66,164)"
           id="g268"><path
             id="path270"
             style="fill:#1abf9f;fill-opacity:1;fill-rule:nonzero;stroke:none"
             d="M 0,0 C 0,-4.418 0.896,-8 2,-8 V 8 C 0.896,8 0,4.418 0,0" /></g><g
           transform="translate(66,144)"
           id="g272"><path
             id="path274"
             style="fill:#1abf9f;fill-opacity:1;fill-rule:nonzero;stroke:none"
             d="M 0,0 C 0,-4.418 0.896,-8 2,-8 V 8 C 0.896,8 0,4.418 0,0" /></g><g
           transform="translate(190,144)"
           id="g276"><path
             id="path278"
             style="fill:#1abf9f;fill-opacity:1;fill-rule:nonzero;stroke:none"
             d="M 0,0 C 0,4.418 -0.896,8 -2,8 V -8 c 1.104,0 2,3.582 2,8" /></g><g
           transform="translate(190,164)"
           id="g280"><path
             id="path282"
             style="fill:#1abf9f;fill-opacity:1;fill-rule:nonzero;stroke:none"
             d="M 0,0 C 0,4.418 -0.896,8 -2,8 V -8 c 1.104,0 2,3.582 2,8" /></g><g
           transform="translate(122,144)"
           id="g284"><path
             id="path286"
             style="fill:#1abf9f;fill-opacity:1;fill-rule:nonzero;stroke:none"
             d="M 0,0 C 0,4.418 -0.896,8 -2,8 V -8 c 1.104,0 2,3.582 2,8" /></g><g
           transform="translate(122,164)"
           id="g288"><path
             id="path290"
             style="fill:#1abf9f;fill-opacity:1;fill-rule:nonzero;stroke:none"
             d="M 0,0 C 0,4.418 -0.896,8 -2,8 V -8 c 1.104,0 2,3.582 2,8" /></g></g></g></g></svg>