<svg xmlns="http://www.w3.org/2000/svg" xml:space="preserve" width="330.667" height="192" viewBox="0 0 330.667 192"><defs><clipPath id="a" clipPathUnits="userSpaceOnUse"><path d="M0 256h256V0H0Z"/></clipPath><clipPath id="b" clipPathUnits="userSpaceOnUse"><path d="M4 200h248V56H4Z"/></clipPath><clipPath id="c" clipPathUnits="userSpaceOnUse"><path d="M0 256h256V0H0Z"/></clipPath></defs><g clip-path="url(#a)" transform="matrix(1.33333 0 0 -1.33333 -5.333 266.667)"><g clip-path="url(#b)" style="opacity:.5"><path d="M0 0v52c0 6.617-5.383 12-12 12h-216c-6.617 0-12-5.383-12-12V0h-4v-72h4.686c1.65-4.656 6.099-8 11.314-8h216c5.215 0 9.664 3.344 11.314 8H4V0z" style="fill:#fff;fill-opacity:1;fill-rule:nonzero;stroke:none" transform="translate(248 136)"/></g></g><path d="M240 68H16v120h224z" style="fill:#666;fill-opacity:1;fill-rule:nonzero;stroke:none" transform="matrix(1.33333 0 0 -1.33333 -5.333 266.667)"/><g clip-path="url(#c)" transform="matrix(1.33333 0 0 -1.33333 -5.333 266.667)"><path d="M0 0h-216a4 4 0 0 1-4-4v-8H4v8a4 4 0 0 1-4 4" style="fill:#4c4c4c;fill-opacity:1;fill-rule:nonzero;stroke:none" transform="translate(236 192)"/><path d="M100 72H12v56h88z" style="fill:#595959;fill-opacity:1;fill-rule:nonzero;stroke:none"/><path d="M100 128H12v-4h88z" style="fill:#737373;fill-opacity:1;fill-rule:nonzero;stroke:none"/><path d="M100 76H12v-4h88z" style="fill:#474747;fill-opacity:1;fill-rule:nonzero;stroke:none"/><path d="M0 0a6 6 0 0 0-12 0A6 6 0 0 0 0 0" style="fill:#333;fill-opacity:1;fill-rule:nonzero;stroke:none" transform="translate(44 110)"/><path d="M0 0a6 6 0 0 0-12 0A6 6 0 0 0 0 0" style="fill:#333;fill-opacity:1;fill-rule:nonzero;stroke:none" transform="translate(80 110)"/><path d="M0 0a2 2 0 1 0-4.001.001A2 2 0 0 0 0 0" style="fill:#b80000;fill-opacity:1;fill-rule:nonzero;stroke:none" transform="translate(60 98)"/><path d="M92 88H56v4h36z" style="fill:#4c4c4c;fill-opacity:1;fill-rule:nonzero;stroke:none"/><path d="M244 72h-88v56h88z" style="fill:#595959;fill-opacity:1;fill-rule:nonzero;stroke:none"/><path d="M244 76h-88v-4h88z" style="fill:#474747;fill-opacity:1;fill-rule:nonzero;stroke:none"/><path d="M0 0a6 6 0 0 0-12 0A6 6 0 0 0 0 0" style="fill:#333;fill-opacity:1;fill-rule:nonzero;stroke:none" transform="translate(188 110)"/><path d="M0 0a6 6 0 0 0-12 0A6 6 0 0 0 0 0" style="fill:#333;fill-opacity:1;fill-rule:nonzero;stroke:none" transform="translate(224 110)"/><path d="M0 0a2 2 0 1 0-4.001.001A2 2 0 0 0 0 0" style="fill:#b80000;fill-opacity:1;fill-rule:nonzero;stroke:none" transform="translate(204 98)"/><path d="M236 88h-36v4h36z" style="fill:#4c4c4c;fill-opacity:1;fill-rule:nonzero;stroke:none"/><path d="M0 0a1 1 0 1 0-2 0 1 1 0 0 0 2 0" style="fill:#333;fill-opacity:1;fill-rule:nonzero;stroke:none" transform="translate(110 123)"/><path d="M0 0a1 1 0 1 0-2 0 1 1 0 0 0 2 0" style="fill:#333;fill-opacity:1;fill-rule:nonzero;stroke:none" transform="translate(110 119)"/><path d="M0 0a1 1 0 1 0-2 0 1 1 0 0 0 2 0" style="fill:#333;fill-opacity:1;fill-rule:nonzero;stroke:none" transform="translate(110 115)"/><path d="M0 0a1 1 0 1 0-2 0 1 1 0 0 0 2 0" style="fill:#333;fill-opacity:1;fill-rule:nonzero;stroke:none" transform="translate(110 111)"/><path d="M0 0a1 1 0 1 0-2 0 1 1 0 0 0 2 0" style="fill:#333;fill-opacity:1;fill-rule:nonzero;stroke:none" transform="translate(110 107)"/><path d="M0 0a1 1 0 1 0-2 0 1 1 0 0 0 2 0" style="fill:#333;fill-opacity:1;fill-rule:nonzero;stroke:none" transform="translate(110 103)"/><path d="M0 0a1 1 0 1 0-2 0 1 1 0 0 0 2 0" style="fill:#333;fill-opacity:1;fill-rule:nonzero;stroke:none" transform="translate(110 99)"/><path d="M0 0a1 1 0 1 0-2 0 1 1 0 0 0 2 0" style="fill:#333;fill-opacity:1;fill-rule:nonzero;stroke:none" transform="translate(110 95)"/><path d="M0 0a1 1 0 1 0-2 0 1 1 0 0 0 2 0" style="fill:#333;fill-opacity:1;fill-rule:nonzero;stroke:none" transform="translate(110 91)"/><path d="M0 0a1 1 0 1 0-2 0 1 1 0 0 0 2 0" style="fill:#333;fill-opacity:1;fill-rule:nonzero;stroke:none" transform="translate(110 87)"/><path d="M0 0a1 1 0 1 0-2 0 1 1 0 0 0 2 0" style="fill:#333;fill-opacity:1;fill-rule:nonzero;stroke:none" transform="translate(110 83)"/><path d="M0 0a1 1 0 1 0-2 0 1 1 0 0 0 2 0" style="fill:#333;fill-opacity:1;fill-rule:nonzero;stroke:none" transform="translate(110 79)"/><path d="M0 0a1 1 0 1 0-2 0 1 1 0 0 0 2 0" style="fill:#333;fill-opacity:1;fill-rule:nonzero;stroke:none" transform="translate(110 75)"/><path d="M0 0a1 1 0 1 0-2 0 1 1 0 0 0 2 0" style="fill:#333;fill-opacity:1;fill-rule:nonzero;stroke:none" transform="translate(114 123)"/><path d="M0 0a1 1 0 1 0-2 0 1 1 0 0 0 2 0" style="fill:#333;fill-opacity:1;fill-rule:nonzero;stroke:none" transform="translate(114 119)"/><path d="M0 0a1 1 0 1 0-2 0 1 1 0 0 0 2 0" style="fill:#333;fill-opacity:1;fill-rule:nonzero;stroke:none" transform="translate(114 115)"/><path d="M0 0a1 1 0 1 0-2 0 1 1 0 0 0 2 0" style="fill:#333;fill-opacity:1;fill-rule:nonzero;stroke:none" transform="translate(114 111)"/><path d="M0 0a1 1 0 1 0-2 0 1 1 0 0 0 2 0" style="fill:#333;fill-opacity:1;fill-rule:nonzero;stroke:none" transform="translate(114 107)"/><path d="M0 0a1 1 0 1 0-2 0 1 1 0 0 0 2 0" style="fill:#333;fill-opacity:1;fill-rule:nonzero;stroke:none" transform="translate(114 103)"/><path d="M0 0a1 1 0 1 0-2 0 1 1 0 0 0 2 0" style="fill:#333;fill-opacity:1;fill-rule:nonzero;stroke:none" transform="translate(114 99)"/><path d="M0 0a1 1 0 1 0-2 0 1 1 0 0 0 2 0" style="fill:#333;fill-opacity:1;fill-rule:nonzero;stroke:none" transform="translate(114 95)"/><path d="M0 0a1 1 0 1 0-2 0 1 1 0 0 0 2 0" style="fill:#333;fill-opacity:1;fill-rule:nonzero;stroke:none" transform="translate(114 91)"/><path d="M0 0a1 1 0 1 0-2 0 1 1 0 0 0 2 0" style="fill:#333;fill-opacity:1;fill-rule:nonzero;stroke:none" transform="translate(114 87)"/><path d="M0 0a1 1 0 1 0-2 0 1 1 0 0 0 2 0" style="fill:#333;fill-opacity:1;fill-rule:nonzero;stroke:none" transform="translate(114 83)"/><path d="M0 0a1 1 0 1 0-2 0 1 1 0 0 0 2 0" style="fill:#333;fill-opacity:1;fill-rule:nonzero;stroke:none" transform="translate(114 79)"/><path d="M0 0a1 1 0 1 0-2 0 1 1 0 0 0 2 0" style="fill:#333;fill-opacity:1;fill-rule:nonzero;stroke:none" transform="translate(114 75)"/><path d="M0 0a1 1 0 1 0-2 0 1 1 0 0 0 2 0" style="fill:#333;fill-opacity:1;fill-rule:nonzero;stroke:none" transform="translate(118 123)"/><path d="M0 0a1 1 0 1 0-2 0 1 1 0 0 0 2 0" style="fill:#333;fill-opacity:1;fill-rule:nonzero;stroke:none" transform="translate(118 119)"/><path d="M0 0a1 1 0 1 0-2 0 1 1 0 0 0 2 0" style="fill:#333;fill-opacity:1;fill-rule:nonzero;stroke:none" transform="translate(118 115)"/><path d="M0 0a1 1 0 1 0-2 0 1 1 0 0 0 2 0" style="fill:#333;fill-opacity:1;fill-rule:nonzero;stroke:none" transform="translate(118 111)"/><path d="M0 0a1 1 0 1 0-2 0 1 1 0 0 0 2 0" style="fill:#333;fill-opacity:1;fill-rule:nonzero;stroke:none" transform="translate(118 107)"/><path d="M0 0a1 1 0 1 0-2 0 1 1 0 0 0 2 0" style="fill:#333;fill-opacity:1;fill-rule:nonzero;stroke:none" transform="translate(118 103)"/><path d="M0 0a1 1 0 1 0-2 0 1 1 0 0 0 2 0" style="fill:#333;fill-opacity:1;fill-rule:nonzero;stroke:none" transform="translate(118 99)"/><path d="M0 0a1 1 0 1 0-2 0 1 1 0 0 0 2 0" style="fill:#333;fill-opacity:1;fill-rule:nonzero;stroke:none" transform="translate(118 95)"/><path d="M0 0a1 1 0 1 0-2 0 1 1 0 0 0 2 0" style="fill:#333;fill-opacity:1;fill-rule:nonzero;stroke:none" transform="translate(118 91)"/><path d="M0 0a1 1 0 1 0-2 0 1 1 0 0 0 2 0" style="fill:#333;fill-opacity:1;fill-rule:nonzero;stroke:none" transform="translate(118 87)"/><path d="M0 0a1 1 0 1 0-2 0 1 1 0 0 0 2 0" style="fill:#333;fill-opacity:1;fill-rule:nonzero;stroke:none" transform="translate(118 83)"/><path d="M0 0a1 1 0 1 0-2 0 1 1 0 0 0 2 0" style="fill:#333;fill-opacity:1;fill-rule:nonzero;stroke:none" transform="translate(118 79)"/><path d="M0 0a1 1 0 1 0-2 0 1 1 0 0 0 2 0" style="fill:#333;fill-opacity:1;fill-rule:nonzero;stroke:none" transform="translate(118 75)"/><path d="M0 0a1 1 0 1 0-2 0 1 1 0 0 0 2 0" style="fill:#333;fill-opacity:1;fill-rule:nonzero;stroke:none" transform="translate(122 123)"/><path d="M0 0a1 1 0 1 0-2 0 1 1 0 0 0 2 0" style="fill:#333;fill-opacity:1;fill-rule:nonzero;stroke:none" transform="translate(122 119)"/><path d="M0 0a1 1 0 1 0-2 0 1 1 0 0 0 2 0" style="fill:#333;fill-opacity:1;fill-rule:nonzero;stroke:none" transform="translate(122 115)"/><path d="M0 0a1 1 0 1 0-2 0 1 1 0 0 0 2 0" style="fill:#333;fill-opacity:1;fill-rule:nonzero;stroke:none" transform="translate(122 111)"/><path d="M0 0a1 1 0 1 0-2 0 1 1 0 0 0 2 0" style="fill:#333;fill-opacity:1;fill-rule:nonzero;stroke:none" transform="translate(122 107)"/><path d="M0 0a1 1 0 1 0-2 0 1 1 0 0 0 2 0" style="fill:#333;fill-opacity:1;fill-rule:nonzero;stroke:none" transform="translate(122 103)"/><path d="M0 0a1 1 0 1 0-2 0 1 1 0 0 0 2 0" style="fill:#333;fill-opacity:1;fill-rule:nonzero;stroke:none" transform="translate(122 99)"/><path d="M0 0a1 1 0 1 0-2 0 1 1 0 0 0 2 0" style="fill:#333;fill-opacity:1;fill-rule:nonzero;stroke:none" transform="translate(122 95)"/><path d="M0 0a1 1 0 1 0-2 0 1 1 0 0 0 2 0" style="fill:#333;fill-opacity:1;fill-rule:nonzero;stroke:none" transform="translate(122 91)"/><path d="M0 0a1 1 0 1 0-2 0 1 1 0 0 0 2 0" style="fill:#333;fill-opacity:1;fill-rule:nonzero;stroke:none" transform="translate(122 87)"/><path d="M0 0a1 1 0 1 0-2 0 1 1 0 0 0 2 0" style="fill:#333;fill-opacity:1;fill-rule:nonzero;stroke:none" transform="translate(122 83)"/><path d="M0 0a1 1 0 1 0-2 0 1 1 0 0 0 2 0" style="fill:#333;fill-opacity:1;fill-rule:nonzero;stroke:none" transform="translate(122 79)"/><path d="M0 0a1 1 0 1 0-2 0 1 1 0 0 0 2 0" style="fill:#333;fill-opacity:1;fill-rule:nonzero;stroke:none" transform="translate(122 75)"/><path d="M0 0a1 1 0 1 0-2 0 1 1 0 0 0 2 0" style="fill:#333;fill-opacity:1;fill-rule:nonzero;stroke:none" transform="translate(126 123)"/><path d="M0 0a1 1 0 1 0-2 0 1 1 0 0 0 2 0" style="fill:#333;fill-opacity:1;fill-rule:nonzero;stroke:none" transform="translate(126 119)"/><path d="M0 0a1 1 0 1 0-2 0 1 1 0 0 0 2 0" style="fill:#333;fill-opacity:1;fill-rule:nonzero;stroke:none" transform="translate(126 115)"/><path d="M0 0a1 1 0 1 0-2 0 1 1 0 0 0 2 0" style="fill:#333;fill-opacity:1;fill-rule:nonzero;stroke:none" transform="translate(126 111)"/><path d="M0 0a1 1 0 1 0-2 0 1 1 0 0 0 2 0" style="fill:#333;fill-opacity:1;fill-rule:nonzero;stroke:none" transform="translate(126 107)"/><path d="M0 0a1 1 0 1 0-2 0 1 1 0 0 0 2 0" style="fill:#333;fill-opacity:1;fill-rule:nonzero;stroke:none" transform="translate(126 103)"/><path d="M0 0a1 1 0 1 0-2 0 1 1 0 0 0 2 0" style="fill:#333;fill-opacity:1;fill-rule:nonzero;stroke:none" transform="translate(126 99)"/><path d="M0 0a1 1 0 1 0-2 0 1 1 0 0 0 2 0" style="fill:#333;fill-opacity:1;fill-rule:nonzero;stroke:none" transform="translate(126 95)"/><path d="M0 0a1 1 0 1 0-2 0 1 1 0 0 0 2 0" style="fill:#333;fill-opacity:1;fill-rule:nonzero;stroke:none" transform="translate(126 91)"/><path d="M0 0a1 1 0 1 0-2 0 1 1 0 0 0 2 0" style="fill:#333;fill-opacity:1;fill-rule:nonzero;stroke:none" transform="translate(126 87)"/><path d="M0 0a1 1 0 1 0-2 0 1 1 0 0 0 2 0" style="fill:#333;fill-opacity:1;fill-rule:nonzero;stroke:none" transform="translate(126 83)"/><path d="M0 0a1 1 0 1 0-2 0 1 1 0 0 0 2 0" style="fill:#333;fill-opacity:1;fill-rule:nonzero;stroke:none" transform="translate(126 79)"/><path d="M0 0a1 1 0 1 0-2 0 1 1 0 0 0 2 0" style="fill:#333;fill-opacity:1;fill-rule:nonzero;stroke:none" transform="translate(126 75)"/><path d="M0 0a1 1 0 1 0-1.998-.002A1 1 0 0 0 0 0" style="fill:#333;fill-opacity:1;fill-rule:nonzero;stroke:none" transform="translate(130 123)"/><path d="M0 0a1 1 0 1 0-1.998-.002A1 1 0 0 0 0 0" style="fill:#333;fill-opacity:1;fill-rule:nonzero;stroke:none" transform="translate(130 119)"/><path d="M0 0a1 1 0 1 0-1.998-.002A1 1 0 0 0 0 0" style="fill:#333;fill-opacity:1;fill-rule:nonzero;stroke:none" transform="translate(130 115)"/><path d="M0 0a1 1 0 1 0-1.998-.002A1 1 0 0 0 0 0" style="fill:#333;fill-opacity:1;fill-rule:nonzero;stroke:none" transform="translate(130 111)"/><path d="M0 0a1 1 0 1 0-1.998-.002A1 1 0 0 0 0 0" style="fill:#333;fill-opacity:1;fill-rule:nonzero;stroke:none" transform="translate(130 107)"/><path d="M0 0a1 1 0 1 0-1.998-.002A1 1 0 0 0 0 0" style="fill:#333;fill-opacity:1;fill-rule:nonzero;stroke:none" transform="translate(130 103)"/><path d="M0 0a1 1 0 1 0-1.998-.002A1 1 0 0 0 0 0" style="fill:#333;fill-opacity:1;fill-rule:nonzero;stroke:none" transform="translate(130 99)"/><path d="M0 0a1 1 0 1 0-1.998-.002A1 1 0 0 0 0 0" style="fill:#333;fill-opacity:1;fill-rule:nonzero;stroke:none" transform="translate(130 95)"/><path d="M0 0a1 1 0 1 0-1.998-.002A1 1 0 0 0 0 0" style="fill:#333;fill-opacity:1;fill-rule:nonzero;stroke:none" transform="translate(130 91)"/><path d="M0 0a1 1 0 1 0-1.998-.002A1 1 0 0 0 0 0" style="fill:#333;fill-opacity:1;fill-rule:nonzero;stroke:none" transform="translate(130 87)"/><path d="M0 0a1 1 0 1 0-1.998-.002A1 1 0 0 0 0 0" style="fill:#333;fill-opacity:1;fill-rule:nonzero;stroke:none" transform="translate(130 83)"/><path d="M0 0a1 1 0 1 0-1.998-.002A1 1 0 0 0 0 0" style="fill:#333;fill-opacity:1;fill-rule:nonzero;stroke:none" transform="translate(130 79)"/><path d="M0 0a1 1 0 1 0-1.998-.002A1 1 0 0 0 0 0" style="fill:#333;fill-opacity:1;fill-rule:nonzero;stroke:none" transform="translate(130 75)"/><path d="M0 0a1 1 0 1 0-2 0 1 1 0 1 0 2 0" style="fill:#333;fill-opacity:1;fill-rule:nonzero;stroke:none" transform="translate(134 123)"/><path d="M0 0a1 1 0 1 0-2 0 1 1 0 1 0 2 0" style="fill:#333;fill-opacity:1;fill-rule:nonzero;stroke:none" transform="translate(134 119)"/><path d="M0 0a1 1 0 1 0-2 0 1 1 0 1 0 2 0" style="fill:#333;fill-opacity:1;fill-rule:nonzero;stroke:none" transform="translate(134 115)"/><path d="M0 0a1 1 0 1 0-2 0 1 1 0 1 0 2 0" style="fill:#333;fill-opacity:1;fill-rule:nonzero;stroke:none" transform="translate(134 111)"/><path d="M0 0a1 1 0 1 0-2 0 1 1 0 1 0 2 0" style="fill:#333;fill-opacity:1;fill-rule:nonzero;stroke:none" transform="translate(134 107)"/><path d="M0 0a1 1 0 1 0-2 0 1 1 0 1 0 2 0" style="fill:#333;fill-opacity:1;fill-rule:nonzero;stroke:none" transform="translate(134 103)"/><path d="M0 0a1 1 0 1 0-2 0 1 1 0 1 0 2 0" style="fill:#333;fill-opacity:1;fill-rule:nonzero;stroke:none" transform="translate(134 99)"/><path d="M0 0a1 1 0 1 0-2 0 1 1 0 1 0 2 0" style="fill:#333;fill-opacity:1;fill-rule:nonzero;stroke:none" transform="translate(134 95)"/><path d="M0 0a1 1 0 1 0-2 0 1 1 0 1 0 2 0" style="fill:#333;fill-opacity:1;fill-rule:nonzero;stroke:none" transform="translate(134 91)"/><path d="M0 0a1 1 0 1 0-2 0 1 1 0 1 0 2 0" style="fill:#333;fill-opacity:1;fill-rule:nonzero;stroke:none" transform="translate(134 87)"/><path d="M0 0a1 1 0 1 0-2 0 1 1 0 1 0 2 0" style="fill:#333;fill-opacity:1;fill-rule:nonzero;stroke:none" transform="translate(134 83)"/><path d="M0 0a1 1 0 1 0-2 0 1 1 0 1 0 2 0" style="fill:#333;fill-opacity:1;fill-rule:nonzero;stroke:none" transform="translate(134 79)"/><path d="M0 0a1 1 0 1 0-2 0 1 1 0 1 0 2 0" style="fill:#333;fill-opacity:1;fill-rule:nonzero;stroke:none" transform="translate(134 75)"/><path d="M0 0a1 1 0 1 0-2 0 1 1 0 1 0 2 0" style="fill:#333;fill-opacity:1;fill-rule:nonzero;stroke:none" transform="translate(138 123)"/><path d="M0 0a1 1 0 1 0-2 0 1 1 0 1 0 2 0" style="fill:#333;fill-opacity:1;fill-rule:nonzero;stroke:none" transform="translate(138 119)"/><path d="M0 0a1 1 0 1 0-2 0 1 1 0 1 0 2 0" style="fill:#333;fill-opacity:1;fill-rule:nonzero;stroke:none" transform="translate(138 115)"/><path d="M0 0a1 1 0 1 0-2 0 1 1 0 1 0 2 0" style="fill:#333;fill-opacity:1;fill-rule:nonzero;stroke:none" transform="translate(138 111)"/><path d="M0 0a1 1 0 1 0-2 0 1 1 0 1 0 2 0" style="fill:#333;fill-opacity:1;fill-rule:nonzero;stroke:none" transform="translate(138 107)"/><path d="M0 0a1 1 0 1 0-2 0 1 1 0 1 0 2 0" style="fill:#333;fill-opacity:1;fill-rule:nonzero;stroke:none" transform="translate(138 103)"/><path d="M0 0a1 1 0 1 0-2 0 1 1 0 1 0 2 0" style="fill:#333;fill-opacity:1;fill-rule:nonzero;stroke:none" transform="translate(138 99)"/><path d="M0 0a1 1 0 1 0-2 0 1 1 0 1 0 2 0" style="fill:#333;fill-opacity:1;fill-rule:nonzero;stroke:none" transform="translate(138 95)"/><path d="M0 0a1 1 0 1 0-2 0 1 1 0 1 0 2 0" style="fill:#333;fill-opacity:1;fill-rule:nonzero;stroke:none" transform="translate(138 91)"/><path d="M0 0a1 1 0 1 0-2 0 1 1 0 1 0 2 0" style="fill:#333;fill-opacity:1;fill-rule:nonzero;stroke:none" transform="translate(138 87)"/><path d="M0 0a1 1 0 1 0-2 0 1 1 0 1 0 2 0" style="fill:#333;fill-opacity:1;fill-rule:nonzero;stroke:none" transform="translate(138 83)"/><path d="M0 0a1 1 0 1 0-2 0 1 1 0 1 0 2 0" style="fill:#333;fill-opacity:1;fill-rule:nonzero;stroke:none" transform="translate(138 79)"/><path d="M0 0a1 1 0 1 0-2 0 1 1 0 1 0 2 0" style="fill:#333;fill-opacity:1;fill-rule:nonzero;stroke:none" transform="translate(138 75)"/><path d="M0 0a1 1 0 1 0-2 0 1 1 0 1 0 2 0" style="fill:#333;fill-opacity:1;fill-rule:nonzero;stroke:none" transform="translate(142 123)"/><path d="M0 0a1 1 0 1 0-2 0 1 1 0 1 0 2 0" style="fill:#333;fill-opacity:1;fill-rule:nonzero;stroke:none" transform="translate(142 119)"/><path d="M0 0a1 1 0 1 0-2 0 1 1 0 1 0 2 0" style="fill:#333;fill-opacity:1;fill-rule:nonzero;stroke:none" transform="translate(142 115)"/><path d="M0 0a1 1 0 1 0-2 0 1 1 0 1 0 2 0" style="fill:#333;fill-opacity:1;fill-rule:nonzero;stroke:none" transform="translate(142 111)"/><path d="M0 0a1 1 0 1 0-2 0 1 1 0 1 0 2 0" style="fill:#333;fill-opacity:1;fill-rule:nonzero;stroke:none" transform="translate(142 107)"/><path d="M0 0a1 1 0 1 0-2 0 1 1 0 1 0 2 0" style="fill:#333;fill-opacity:1;fill-rule:nonzero;stroke:none" transform="translate(142 103)"/><path d="M0 0a1 1 0 1 0-2 0 1 1 0 1 0 2 0" style="fill:#333;fill-opacity:1;fill-rule:nonzero;stroke:none" transform="translate(142 99)"/><path d="M0 0a1 1 0 1 0-2 0 1 1 0 1 0 2 0" style="fill:#333;fill-opacity:1;fill-rule:nonzero;stroke:none" transform="translate(142 95)"/><path d="M0 0a1 1 0 1 0-2 0 1 1 0 1 0 2 0" style="fill:#333;fill-opacity:1;fill-rule:nonzero;stroke:none" transform="translate(142 91)"/><path d="M0 0a1 1 0 1 0-2 0 1 1 0 1 0 2 0" style="fill:#333;fill-opacity:1;fill-rule:nonzero;stroke:none" transform="translate(142 87)"/><path d="M0 0a1 1 0 1 0-2 0 1 1 0 1 0 2 0" style="fill:#333;fill-opacity:1;fill-rule:nonzero;stroke:none" transform="translate(142 83)"/><path d="M0 0a1 1 0 1 0-2 0 1 1 0 1 0 2 0" style="fill:#333;fill-opacity:1;fill-rule:nonzero;stroke:none" transform="translate(142 79)"/><path d="M0 0a1 1 0 1 0-2 0 1 1 0 1 0 2 0" style="fill:#333;fill-opacity:1;fill-rule:nonzero;stroke:none" transform="translate(142 75)"/><path d="M0 0a1 1 0 1 0-2 0 1 1 0 1 0 2 0" style="fill:#333;fill-opacity:1;fill-rule:nonzero;stroke:none" transform="translate(146 123)"/><path d="M0 0a1 1 0 1 0-2 0 1 1 0 1 0 2 0" style="fill:#333;fill-opacity:1;fill-rule:nonzero;stroke:none" transform="translate(146 119)"/><path d="M0 0a1 1 0 1 0-2 0 1 1 0 1 0 2 0" style="fill:#333;fill-opacity:1;fill-rule:nonzero;stroke:none" transform="translate(146 115)"/><path d="M0 0a1 1 0 1 0-2 0 1 1 0 1 0 2 0" style="fill:#333;fill-opacity:1;fill-rule:nonzero;stroke:none" transform="translate(146 111)"/><path d="M0 0a1 1 0 1 0-2 0 1 1 0 1 0 2 0" style="fill:#333;fill-opacity:1;fill-rule:nonzero;stroke:none" transform="translate(146 107)"/><path d="M0 0a1 1 0 1 0-2 0 1 1 0 1 0 2 0" style="fill:#333;fill-opacity:1;fill-rule:nonzero;stroke:none" transform="translate(146 103)"/><path d="M0 0a1 1 0 1 0-2 0 1 1 0 1 0 2 0" style="fill:#333;fill-opacity:1;fill-rule:nonzero;stroke:none" transform="translate(146 99)"/><path d="M0 0a1 1 0 1 0-2 0 1 1 0 1 0 2 0" style="fill:#333;fill-opacity:1;fill-rule:nonzero;stroke:none" transform="translate(146 95)"/><path d="M0 0a1 1 0 1 0-2 0 1 1 0 1 0 2 0" style="fill:#333;fill-opacity:1;fill-rule:nonzero;stroke:none" transform="translate(146 91)"/><path d="M0 0a1 1 0 1 0-2 0 1 1 0 1 0 2 0" style="fill:#333;fill-opacity:1;fill-rule:nonzero;stroke:none" transform="translate(146 87)"/><path d="M0 0a1 1 0 1 0-2 0 1 1 0 1 0 2 0" style="fill:#333;fill-opacity:1;fill-rule:nonzero;stroke:none" transform="translate(146 83)"/><path d="M0 0a1 1 0 1 0-2 0 1 1 0 1 0 2 0" style="fill:#333;fill-opacity:1;fill-rule:nonzero;stroke:none" transform="translate(146 79)"/><path d="M0 0a1 1 0 1 0-2 0 1 1 0 1 0 2 0" style="fill:#333;fill-opacity:1;fill-rule:nonzero;stroke:none" transform="translate(146 75)"/><path d="M0 0h-216a4 4 0 0 0-4 4v4H4V4a4 4 0 0 0-4-4" style="fill:#4c4c4c;fill-opacity:1;fill-rule:nonzero;stroke:none" transform="translate(236 64)"/><path d="M192 172H64v-44h128zm-2-42H66v40h124z" style="fill:#595959;fill-opacity:1;fill-rule:nonzero;stroke:none"/><path d="M0 0v-4h-64v4h-28v-20H28V0Z" style="fill:#333;fill-opacity:1;fill-rule:nonzero;stroke:none" transform="translate(160 164)"/><path d="M176 148H80v8h96z" style="fill:#0e6654;fill-opacity:1;fill-rule:nonzero;stroke:none"/><path d="M172 148H84v8h88z" style="fill:#595959;fill-opacity:1;fill-rule:nonzero;stroke:none"/><path d="M168 151H88v2h80z" style="fill:#333;fill-opacity:1;fill-rule:nonzero;stroke:none"/><path d="M244 128h-88v-4h88z" style="fill:#737373;fill-opacity:1;fill-rule:nonzero;stroke:none"/><path d="M0 0a6 6 0 0 0-12 0A6 6 0 0 0 0 0" style="fill:#d9d9d9;fill-opacity:1;fill-rule:nonzero;stroke:none" transform="translate(134 134)"/></g></svg>