<svg xmlns="http://www.w3.org/2000/svg" xml:space="preserve" width="330.667" height="277.333" viewBox="0 0 330.667 277.333"><defs><clipPath id="a" clipPathUnits="userSpaceOnUse"><path d="M0 256h256V0H0Z"/></clipPath><clipPath id="b" clipPathUnits="userSpaceOnUse"><path d="M4 232h248V24H4Z"/></clipPath></defs><g clip-path="url(#a)" transform="matrix(1.33333 0 0 -1.33333 -5.333 309.333)"><g clip-path="url(#b)" style="opacity:.5"><path d="M0 0h-168c-22.056 0-40-17.944-40-40v-.498l.062-.494 7.408-59.265a72 72 0 0 1 2.114-10.497l14.59-52.066c3.95-24.035 18.24-39.406 38.299-41.15l.066-.006.065-.004 56.834-4 .281-.02h8.562l.281.02 56.834 4 .065.004.066.006c20.059 1.744 34.35 17.115 38.299 41.15l14.59 52.066a72 72 0 0 1 2.114 10.497l7.408 59.265.062.494V-40C40-17.944 22.056 0 0 0" style="fill:#fff;fill-opacity:1;fill-rule:nonzero;stroke:none" transform="translate(212 232)"/></g><path d="M0 0h-168c-17.673 0-32-14.327-32-32l7.408-59.265a64 64 0 0 1 1.88-9.33L-176-153.099c2.867-18.154 12.856-33.309 31.166-34.901L-88-192h8l56.834 4c18.31 1.592 28.3 16.747 31.166 34.901l14.712 52.504a64 64 0 0 1 1.88 9.33L32-32C32-14.327 17.673 0 0 0" style="fill:#1abf9f;fill-opacity:1;fill-rule:nonzero;stroke:none" transform="translate(212 224)"/><path d="M0 0c15.359 0 27.869-12.43 27.999-27.759l-7.376-59.01a60 60 0 0 0-1.763-8.747L4.148-148.02l-.063-.224-.036-.232c-1.403-8.879-6.891-29.721-27.53-31.537L-28-180.33l-4-3.67-48.141-4h-7.718L-136-184l-4 3.67-4.519.317c-20.64 1.816-26.128 22.658-27.53 31.537l-.036.232-.063.224-14.713 52.504a60 60 0 0 0-1.762 8.747l-7.376 59.01C-195.87-12.43-183.359 0-168 0h8l4 4h144l4-4z" style="fill:#d9d9d9;fill-opacity:1;fill-rule:nonzero;stroke:none" transform="translate(212 220)"/><path d="M0 0h-153.879c-12.171 0-21.52-10.78-19.799-22.829L-164.939-84l16.309-61.976a20 20 0 0 1 18.167-14.876L-88.939-164h24l41.523 3.148a20 20 0 0 1 18.167 14.876L11.061-84l8.738 61.171C21.521-10.78 12.171 0 0 0" style="fill:#f2f2f2;fill-opacity:1;fill-rule:nonzero;stroke:none" transform="translate(204.94 216)"/><path d="M0 0h-11.056a4 4 0 0 0-3.578 2.211L-17.528 8h24L3.577 2.211A4 4 0 0 0 0 0" style="fill:#ccc;fill-opacity:1;fill-rule:nonzero;stroke:none" transform="translate(133.528 44)"/><path d="M0 0h-104.283c-6.473 0-11.779 5.614-11.994 12.689l-3.453 113.75c-.225 7.416 5.21 13.561 11.994 13.561H3.453c6.784 0 12.219-6.145 11.993-13.561l-3.453-113.75C11.779 5.614 6.473 0 0 0" style="fill:#e6e6e6;fill-opacity:1;fill-rule:nonzero;stroke:none" transform="translate(180.142 68)"/><path d="M0 0c-14.359 0-26-1.791-26-4v-112c0-2.209 11.641-4 26-4s26 1.791 26 4V-4c0 2.209-11.641 4-26 4" style="fill:#f2f2f2;fill-opacity:1;fill-rule:nonzero;stroke:none" transform="translate(94 192)"/><path d="M0 0c-7.142 0-13.887-.433-18.993-1.218C-23.11-1.852-30-2.912-30-8v-112c0-5.089 6.89-6.148 11.007-6.782C-13.887-127.567-7.142-128 0-128s13.887.433 18.993 1.218C23.11-126.148 30-125.089 30-120V-8c0 5.088-6.89 6.148-11.007 6.782C13.887-.433 7.142 0 0 0m0-4c14.359 0 26-1.791 26-4v-112c0-2.209-11.641-4-26-4s-26 1.791-26 4V-8c0 2.209 11.641 4 26 4" style="fill:#bfbfbf;fill-opacity:1;fill-rule:nonzero;stroke:none" transform="translate(94 196)"/><path d="M116 124H72v56h44z" style="fill:#262626;fill-opacity:1;fill-rule:nonzero;stroke:none"/><path d="M0 0c-9.941 0-18-8.059-18-18s8.059-18 18-18 18 8.059 18 18S9.941 0 0 0" style="fill:#1abf9f;fill-opacity:1;fill-rule:nonzero;stroke:none" transform="translate(94 116)"/><path d="M0 0c7.72 0 14-6.28 14-14S7.72-28 0-28s-14 6.28-14 14S-7.72 0 0 0" style="fill:#f2f2f2;fill-opacity:1;fill-rule:nonzero;stroke:none" transform="translate(94 112)"/><path d="M0 0v-16c2.209 0 4 3.582 4 8S2.209 0 0 0" style="fill:#d9d9d9;fill-opacity:1;fill-rule:nonzero;stroke:none" transform="translate(120 172)"/><path d="M0 0v-16c2.209 0 4 3.582 4 8S2.209 0 0 0" style="fill:#d9d9d9;fill-opacity:1;fill-rule:nonzero;stroke:none" transform="translate(120 152)"/><path d="M0 0v16c-2.209 0-4-3.582-4-8s1.791-8 4-8" style="fill:#d9d9d9;fill-opacity:1;fill-rule:nonzero;stroke:none" transform="translate(68 136)"/><path d="M0 0v16c-2.209 0-4-3.582-4-8s1.791-8 4-8" style="fill:#d9d9d9;fill-opacity:1;fill-rule:nonzero;stroke:none" transform="translate(68 156)"/><path d="M0 0a2 2 0 1 0-4.001.001A2 2 0 0 0 0 0" style="fill:#bfbfbf;fill-opacity:1;fill-rule:nonzero;stroke:none" transform="translate(96 186)"/><path d="M0 0a1 1 0 0 0-1 1v4a1 1 0 1 0 2 0V1a1 1 0 0 0-1-1" style="fill:#bfbfbf;fill-opacity:1;fill-rule:nonzero;stroke:none" transform="translate(94 105)"/><path d="M0 0a1 1 0 0 0-1 1v4a1 1 0 1 0 2 0V1a1 1 0 0 0-1-1" style="fill:#bfbfbf;fill-opacity:1;fill-rule:nonzero;stroke:none" transform="translate(94 85)"/><path d="M0 0a1 1 0 0 0 1 1h4a1 1 0 1 0 0-2H1a1 1 0 0 0-1 1" style="fill:#bfbfbf;fill-opacity:1;fill-rule:nonzero;stroke:none" transform="translate(100.5 98)"/><path d="M0 0a1 1 0 0 0 1 1h4a1 1 0 1 0 0-2H1a1 1 0 0 0-1 1" style="fill:#bfbfbf;fill-opacity:1;fill-rule:nonzero;stroke:none" transform="translate(81.5 98)"/><path d="M0 0a1 1 0 0 0-1.307-.541L-5.002.989a1.001 1.001 0 0 0 .765 1.848l3.696-1.53A1 1 0 0 0 0 0" style="fill:#bfbfbf;fill-opacity:1;fill-rule:nonzero;stroke:none" transform="translate(87.533 100.679)"/><path d="M0 0a1 1 0 0 0-1.306-.541L-5.002.989a1 1 0 0 0 .766 1.848l3.695-1.53C-.031 1.095.211.51 0 0" style="fill:#bfbfbf;fill-opacity:1;fill-rule:nonzero;stroke:none" transform="translate(106.01 93.025)"/><path d="M0 0c-.51.212-.752.797-.541 1.307L.99 5.002a1 1 0 1 0 1.847-.765L1.307.542A1 1 0 0 0 0 0" style="fill:#bfbfbf;fill-opacity:1;fill-rule:nonzero;stroke:none" transform="translate(96.487 104.005)"/><path d="M0 0c-.51.212-.752.797-.541 1.307L.99 5.002a1 1 0 1 0 1.847-.765L1.307.542A1 1 0 0 0 0 0" style="fill:#bfbfbf;fill-opacity:1;fill-rule:nonzero;stroke:none" transform="translate(89.216 86.451)"/><path d="M0 0a1 1 0 0 0-1.307.542l-1.53 3.695a1 1 0 1 0 1.847.766L.541 1.307A1 1 0 0 0 0 0" style="fill:#bfbfbf;fill-opacity:1;fill-rule:nonzero;stroke:none" transform="translate(91.321 104.467)"/><path d="M0 0a1 1 0 0 0-1.307.541l-1.53 3.696a1 1 0 1 0 1.847.765L.541 1.307A1 1 0 0 0 0 0" style="fill:#bfbfbf;fill-opacity:1;fill-rule:nonzero;stroke:none" transform="translate(98.975 85.99)"/><path d="M0 0a1 1 0 0 0 .541 1.307l3.695 1.531A1 1 0 0 0 5.002.989L1.307-.541A1 1 0 0 0 0 0" style="fill:#bfbfbf;fill-opacity:1;fill-rule:nonzero;stroke:none" transform="translate(100.005 100.487)"/><path d="M0 0c-.211.51.031 1.095.541 1.307l3.695 1.53A1 1 0 0 0 5.002.989L1.307-.542A1 1 0 0 0 0 0" style="fill:#bfbfbf;fill-opacity:1;fill-rule:nonzero;stroke:none" transform="translate(82.452 93.217)"/><path d="M0 0a1 1 0 0 0-1.414 0l-2.829 2.828a1 1 0 0 0 1.414 1.414L0 1.414A1 1 0 0 0 0 0" style="fill:#bfbfbf;fill-opacity:1;fill-rule:nonzero;stroke:none" transform="translate(89.05 102.95)"/><path d="M0 0a1 1 0 0 0-1.414 0l-2.829 2.828a1 1 0 0 0 1.414 1.414L0 1.414A1 1 0 0 0 0 0" style="fill:#bfbfbf;fill-opacity:1;fill-rule:nonzero;stroke:none" transform="translate(103.192 88.808)"/><path d="M0 0a1 1 0 0 0 0 1.414l2.829 2.828a.999.999 0 1 0 1.414-1.414L1.414 0A1 1 0 0 0 0 0" style="fill:#bfbfbf;fill-opacity:1;fill-rule:nonzero;stroke:none" transform="translate(98.596 102.597)"/><path d="M0 0a1 1 0 0 0 0 1.414l2.829 2.828a.999.999 0 1 0 1.414-1.414L1.414 0A1 1 0 0 0 0 0" style="fill:#bfbfbf;fill-opacity:1;fill-rule:nonzero;stroke:none" transform="translate(85.161 89.161)"/><path d="M0 0c-14.359 0-26-1.791-26-4v-112c0-2.209 11.641-4 26-4s26 1.791 26 4V-4c0 2.209-11.641 4-26 4" style="fill:#f2f2f2;fill-opacity:1;fill-rule:nonzero;stroke:none" transform="translate(162 192)"/><path d="M0 0c-7.143 0-13.888-.433-18.993-1.218C-23.109-1.852-30-2.912-30-8v-112c0-5.089 6.891-6.148 11.007-6.782C-13.888-127.567-7.142-128 0-128s13.888.433 18.993 1.218C23.109-126.148 30-125.089 30-120V-8c0 5.088-6.891 6.148-11.007 6.782C13.888-.433 7.143 0 0 0m0-4c14.359 0 26-1.791 26-4v-112c0-2.209-11.641-4-26-4s-26 1.791-26 4V-8c0 2.209 11.641 4 26 4" style="fill:#bfbfbf;fill-opacity:1;fill-rule:nonzero;stroke:none" transform="translate(162 196)"/><path d="M184 124h-44v56h44z" style="fill:#262626;fill-opacity:1;fill-rule:nonzero;stroke:none"/><path d="M0 0c-9.941 0-18-8.059-18-18s8.059-18 18-18 18 8.059 18 18S9.941 0 0 0" style="fill:#1abf9f;fill-opacity:1;fill-rule:nonzero;stroke:none" transform="translate(162 116)"/><path d="M0 0c7.72 0 14-6.28 14-14S7.72-28 0-28s-14 6.28-14 14S-7.72 0 0 0" style="fill:#f2f2f2;fill-opacity:1;fill-rule:nonzero;stroke:none" transform="translate(162 112)"/><path d="M0 0v-16c2.209 0 4 3.582 4 8S2.209 0 0 0" style="fill:#d9d9d9;fill-opacity:1;fill-rule:nonzero;stroke:none" transform="translate(188 172)"/><path d="M0 0v-16c2.209 0 4 3.582 4 8S2.209 0 0 0" style="fill:#d9d9d9;fill-opacity:1;fill-rule:nonzero;stroke:none" transform="translate(188 152)"/><path d="M0 0v16c-2.209 0-4-3.582-4-8s1.791-8 4-8" style="fill:#d9d9d9;fill-opacity:1;fill-rule:nonzero;stroke:none" transform="translate(136 136)"/><path d="M0 0v16c-2.209 0-4-3.582-4-8s1.791-8 4-8" style="fill:#d9d9d9;fill-opacity:1;fill-rule:nonzero;stroke:none" transform="translate(136 156)"/><path d="M0 0a2 2 0 1 0-4.001.001A2 2 0 0 0 0 0" style="fill:#bfbfbf;fill-opacity:1;fill-rule:nonzero;stroke:none" transform="translate(164 186)"/><path d="M0 0a1 1 0 0 0-1 1v4a1 1 0 1 0 2 0V1a1 1 0 0 0-1-1" style="fill:#bfbfbf;fill-opacity:1;fill-rule:nonzero;stroke:none" transform="translate(162 105)"/><path d="M0 0a1 1 0 0 0-1 1v4a1 1 0 1 0 2 0V1a1 1 0 0 0-1-1" style="fill:#bfbfbf;fill-opacity:1;fill-rule:nonzero;stroke:none" transform="translate(162 85)"/><path d="M0 0a1 1 0 0 0 1 1h4a1 1 0 1 0 0-2H1a1 1 0 0 0-1 1" style="fill:#bfbfbf;fill-opacity:1;fill-rule:nonzero;stroke:none" transform="translate(168.5 98)"/><path d="M0 0a1 1 0 0 0 1 1h4a1 1 0 1 0 0-2H1a1 1 0 0 0-1 1" style="fill:#bfbfbf;fill-opacity:1;fill-rule:nonzero;stroke:none" transform="translate(149.5 98)"/><path d="M0 0a1 1 0 0 0-1.307-.541L-5.003.989a1.001 1.001 0 0 0 .766 1.848l3.695-1.53A1 1 0 0 0 0 0" style="fill:#bfbfbf;fill-opacity:1;fill-rule:nonzero;stroke:none" transform="translate(155.533 100.679)"/><path d="M0 0a1 1 0 0 0-1.307-.541L-5.002.989a1 1 0 1 0 .765 1.848l3.696-1.53C-.031 1.095.211.51 0 0" style="fill:#bfbfbf;fill-opacity:1;fill-rule:nonzero;stroke:none" transform="translate(174.01 93.025)"/><path d="M0 0c-.51.212-.752.797-.541 1.307l1.53 3.695a1 1 0 0 0 1.849-.765L1.307.542A1 1 0 0 0 0 0" style="fill:#bfbfbf;fill-opacity:1;fill-rule:nonzero;stroke:none" transform="translate(164.487 104.005)"/><path d="M0 0a1 1 0 0 0-.542 1.307L.989 5.002a1 1 0 1 0 1.848-.765L1.307.542A1 1 0 0 0 0 0" style="fill:#bfbfbf;fill-opacity:1;fill-rule:nonzero;stroke:none" transform="translate(157.217 86.451)"/><path d="M0 0a1 1 0 0 0-1.307.542l-1.53 3.695a1 1 0 1 0 1.848.766l1.53-3.696A1 1 0 0 0 0 0" style="fill:#bfbfbf;fill-opacity:1;fill-rule:nonzero;stroke:none" transform="translate(159.321 104.467)"/><path d="M0 0a1 1 0 0 0-1.307.541l-1.53 3.696a1 1 0 1 0 1.848.765l1.53-3.695A1 1 0 0 0 0 0" style="fill:#bfbfbf;fill-opacity:1;fill-rule:nonzero;stroke:none" transform="translate(166.975 85.99)"/><path d="M0 0a1 1 0 0 0 .542 1.307l3.695 1.531A1 1 0 0 0 5.002.989L1.307-.541A1 1 0 0 0 0 0" style="fill:#bfbfbf;fill-opacity:1;fill-rule:nonzero;stroke:none" transform="translate(168.005 100.487)"/><path d="M0 0a1 1 0 0 0 .542 1.307l3.695 1.53A1.001 1.001 0 0 0 5.002.989L1.307-.542A1 1 0 0 0 0 0" style="fill:#bfbfbf;fill-opacity:1;fill-rule:nonzero;stroke:none" transform="translate(150.451 93.217)"/><path d="M0 0a1 1 0 0 0-1.414 0l-2.828 2.828a.999.999 0 1 0 1.414 1.414L0 1.414A1 1 0 0 0 0 0" style="fill:#bfbfbf;fill-opacity:1;fill-rule:nonzero;stroke:none" transform="translate(157.05 102.95)"/><path d="M0 0a1 1 0 0 0-1.414 0l-2.828 2.828a.999.999 0 1 0 1.414 1.414L0 1.414A1 1 0 0 0 0 0" style="fill:#bfbfbf;fill-opacity:1;fill-rule:nonzero;stroke:none" transform="translate(171.192 88.808)"/><path d="M0 0a1 1 0 0 0 0 1.414l2.828 2.828a.999.999 0 1 0 1.414-1.414L1.414 0A1 1 0 0 0 0 0" style="fill:#bfbfbf;fill-opacity:1;fill-rule:nonzero;stroke:none" transform="translate(166.597 102.597)"/><path d="M0 0a1 1 0 0 0 0 1.414l2.828 2.828a.999.999 0 1 0 1.414-1.414L1.414 0A1 1 0 0 0 0 0" style="fill:#bfbfbf;fill-opacity:1;fill-rule:nonzero;stroke:none" transform="translate(153.161 89.161)"/><path d="M0 0c0-4.418.896-8 2-8V8C.896 8 0 4.418 0 0" style="fill:#1abf9f;fill-opacity:1;fill-rule:nonzero;stroke:none" transform="translate(134 164)"/><path d="M0 0c0-4.418.896-8 2-8V8C.896 8 0 4.418 0 0" style="fill:#1abf9f;fill-opacity:1;fill-rule:nonzero;stroke:none" transform="translate(134 144)"/><path d="M0 0c0-4.418.896-8 2-8V8C.896 8 0 4.418 0 0" style="fill:#1abf9f;fill-opacity:1;fill-rule:nonzero;stroke:none" transform="translate(66 164)"/><path d="M0 0c0-4.418.896-8 2-8V8C.896 8 0 4.418 0 0" style="fill:#1abf9f;fill-opacity:1;fill-rule:nonzero;stroke:none" transform="translate(66 144)"/><path d="M0 0c0 4.418-.896 8-2 8V-8c1.104 0 2 3.582 2 8" style="fill:#1abf9f;fill-opacity:1;fill-rule:nonzero;stroke:none" transform="translate(190 144)"/><path d="M0 0c0 4.418-.896 8-2 8V-8c1.104 0 2 3.582 2 8" style="fill:#1abf9f;fill-opacity:1;fill-rule:nonzero;stroke:none" transform="translate(190 164)"/><path d="M0 0c0 4.418-.896 8-2 8V-8c1.104 0 2 3.582 2 8" style="fill:#1abf9f;fill-opacity:1;fill-rule:nonzero;stroke:none" transform="translate(122 144)"/><path d="M0 0c0 4.418-.896 8-2 8V-8c1.104 0 2 3.582 2 8" style="fill:#1abf9f;fill-opacity:1;fill-rule:nonzero;stroke:none" transform="translate(122 164)"/></g></svg>