<?xml version="1.0" encoding="iso-8859-1"?>
<!-- Generator: Adobe Illustrator 27.8.1, SVG Export Plug-In . SVG Version: 6.00 Build 0)  -->
<svg version="1.1" id="Layer_1" xmlns="http://www.w3.org/2000/svg" xmlns:xlink="http://www.w3.org/1999/xlink" x="0px" y="0px"
	 viewBox="0 0 256 256" style="enable-background:new 0 0 256 256;" xml:space="preserve">
<path style="opacity:0.5;fill:#FFFFFF;" d="M128,52c-87.562,0-115.965,3.914-117.131,4.08L4,57.062V64v128v6.938l6.869,0.981
	C12.035,200.086,40.438,204,128,204s115.965-3.914,117.131-4.08l6.869-0.981V192V64v-6.938l-6.869-0.981
	C243.965,55.914,215.562,52,128,52L128,52z"/>
<path style="fill:#404040;" d="M244,192c0,0-28,4-116,4s-116-4-116-4V64c0,0,28-4,116-4s116,4,116,4V192z"/>
<path style="fill:#A6A390;" d="M232,184H24c-2.209,0-4-1.791-4-4v-20c0-2.209,1.791-4,4-4h208c2.209,0,4,1.791,4,4v20
	C236,182.209,234.209,184,232,184z"/>
<path style="fill:#C4C0AA;" d="M228,180H28c-2.2,0-4-1.8-4-4v-12c0-2.2,1.8-4,4-4h200c2.2,0,4,1.8,4,4v12
	C232,178.2,230.2,180,228,180z"/>
<path style="fill:#A6A390;" d="M232,100H24c-2.209,0-4-1.791-4-4V76c0-2.209,1.791-4,4-4h208c2.209,0,4,1.791,4,4v20
	C236,98.209,234.209,100,232,100z"/>
<rect x="180" y="164" style="fill:#404040;" width="52" height="12"/>
<path style="fill:#333333;" d="M184,176h12c2.209,0,4-1.791,4-4v-4c0-2.209-1.791-4-4-4h-12c-2.209,0-4,1.791-4,4v4
	C180,174.209,181.791,176,184,176z"/>
<path style="fill:#333333;" d="M216,176h12c2.209,0,4-1.791,4-4v-4c0-2.209-1.791-4-4-4h-12c-2.209,0-4,1.791-4,4v4
	C212,174.209,213.791,176,216,176z"/>
<g>
	<path style="fill:#262626;" d="M108,124L108,124c-1.1,0-2-0.9-2-2v-12c0-1.1,0.9-2,2-2l0,0c1.1,0,2,0.9,2,2v12
		C110,123.1,109.1,124,108,124z"/>
	<path style="fill:#262626;" d="M116,124L116,124c-1.1,0-2-0.9-2-2v-12c0-1.1,0.9-2,2-2l0,0c1.1,0,2,0.9,2,2v12
		C118,123.1,117.1,124,116,124z"/>
	<path style="fill:#262626;" d="M124,124L124,124c-1.1,0-2-0.9-2-2v-12c0-1.1,0.9-2,2-2l0,0c1.1,0,2,0.9,2,2v12
		C126,123.1,125.1,124,124,124z"/>
	<path style="fill:#262626;" d="M132,124L132,124c-1.1,0-2-0.9-2-2v-12c0-1.1,0.9-2,2-2l0,0c1.1,0,2,0.9,2,2v12
		C134,123.1,133.1,124,132,124z"/>
	<path style="fill:#262626;" d="M140,124L140,124c-1.1,0-2-0.9-2-2v-12c0-1.1,0.9-2,2-2l0,0c1.1,0,2,0.9,2,2v12
		C142,123.1,141.1,124,140,124z"/>
	<path style="fill:#262626;" d="M148,124L148,124c-1.1,0-2-0.9-2-2v-12c0-1.1,0.9-2,2-2l0,0c1.1,0,2,0.9,2,2v12
		C150,123.1,149.1,124,148,124z"/>
	<path style="fill:#262626;" d="M108,148L108,148c-1.1,0-2-0.9-2-2v-12c0-1.1,0.9-2,2-2l0,0c1.1,0,2,0.9,2,2v12
		C110,147.1,109.1,148,108,148z"/>
	<path style="fill:#262626;" d="M116,148L116,148c-1.1,0-2-0.9-2-2v-12c0-1.1,0.9-2,2-2l0,0c1.1,0,2,0.9,2,2v12
		C118,147.1,117.1,148,116,148z"/>
	<path style="fill:#262626;" d="M124,148L124,148c-1.1,0-2-0.9-2-2v-12c0-1.1,0.9-2,2-2l0,0c1.1,0,2,0.9,2,2v12
		C126,147.1,125.1,148,124,148z"/>
	<path style="fill:#262626;" d="M132,148L132,148c-1.1,0-2-0.9-2-2v-12c0-1.1,0.9-2,2-2l0,0c1.1,0,2,0.9,2,2v12
		C134,147.1,133.1,148,132,148z"/>
	<path style="fill:#262626;" d="M140,148L140,148c-1.1,0-2-0.9-2-2v-12c0-1.1,0.9-2,2-2l0,0c1.1,0,2,0.9,2,2v12
		C142,147.1,141.1,148,140,148z"/>
	<path style="fill:#262626;" d="M148,148L148,148c-1.1,0-2-0.9-2-2v-12c0-1.1,0.9-2,2-2l0,0c1.1,0,2,0.9,2,2v12
		C150,147.1,149.1,148,148,148z"/>
</g>
<rect x="12" y="104" style="fill:#333333;" width="92" height="48"/>
<rect x="152" y="104" style="fill:#333333;" width="92" height="48"/>
<circle style="fill:#D9D4BC;" cx="28" cy="128" r="12"/>
<path style="fill:#A6A390;" d="M92,148H48c-2.209,0-4-1.791-4-4v-32c0-2.209,1.791-4,4-4h44c2.209,0,4,1.791,4,4v32
	C96,146.209,94.209,148,92,148z"/>
<path d="M50,120h4c1.105,0,2-0.895,2-2v-4c0-1.105-0.895-2-2-2h-4c-1.105,0-2,0.895-2,2v4C48,119.105,48.895,120,50,120z"/>
<circle style="fill:#D9D4BC;" cx="52" cy="116" r="4"/>
<path d="M62,120h4c1.105,0,2-0.895,2-2v-4c0-1.105-0.895-2-2-2h-4c-1.105,0-2,0.895-2,2v4C60,119.105,60.895,120,62,120z"/>
<circle style="fill:#D9D4BC;" cx="64" cy="116" r="4"/>
<path d="M74,120h4c1.105,0,2-0.895,2-2v-4c0-1.105-0.895-2-2-2h-4c-1.105,0-2,0.895-2,2v4C72,119.105,72.895,120,74,120z"/>
<circle style="fill:#D9D4BC;" cx="76" cy="116" r="4"/>
<path d="M86,120h4c1.105,0,2-0.895,2-2v-4c0-1.105-0.895-2-2-2h-4c-1.105,0-2,0.895-2,2v4C84,119.105,84.895,120,86,120z"/>
<circle style="fill:#D9D4BC;" cx="88" cy="116" r="4"/>
<path d="M50,132h4c1.105,0,2-0.895,2-2v-4c0-1.105-0.895-2-2-2h-4c-1.105,0-2,0.895-2,2v4C48,131.105,48.895,132,50,132z"/>
<circle style="fill:#D9D4BC;" cx="52" cy="128" r="4"/>
<path d="M62,132h4c1.105,0,2-0.895,2-2v-4c0-1.105-0.895-2-2-2h-4c-1.105,0-2,0.895-2,2v4C60,131.105,60.895,132,62,132z"/>
<circle style="fill:#D9D4BC;" cx="64" cy="128" r="4"/>
<path d="M74,132h4c1.105,0,2-0.895,2-2v-4c0-1.105-0.895-2-2-2h-4c-1.105,0-2,0.895-2,2v4C72,131.105,72.895,132,74,132z"/>
<circle style="fill:#D9D4BC;" cx="76" cy="128" r="4"/>
<path d="M86,132h4c1.105,0,2-0.895,2-2v-4c0-1.105-0.895-2-2-2h-4c-1.105,0-2,0.895-2,2v4C84,131.105,84.895,132,86,132z"/>
<circle style="fill:#D9D4BC;" cx="88" cy="128" r="4"/>
<path d="M50,144h4c1.105,0,2-0.895,2-2v-4c0-1.105-0.895-2-2-2h-4c-1.105,0-2,0.895-2,2v4C48,143.105,48.895,144,50,144z"/>
<circle style="fill:#D9D4BC;" cx="52" cy="140" r="4"/>
<path d="M62,144h4c1.105,0,2-0.895,2-2v-4c0-1.105-0.895-2-2-2h-4c-1.105,0-2,0.895-2,2v4C60,143.105,60.895,144,62,144z"/>
<circle style="fill:#D9D4BC;" cx="64" cy="140" r="4"/>
<path d="M74,144h4c1.105,0,2-0.895,2-2v-4c0-1.105-0.895-2-2-2h-4c-1.105,0-2,0.895-2,2v4C72,143.105,72.895,144,74,144z"/>
<circle style="fill:#D9D4BC;" cx="76" cy="140" r="4"/>
<path d="M86,144h4c1.105,0,2-0.895,2-2v-4c0-1.105-0.895-2-2-2h-4c-1.105,0-2,0.895-2,2v4C84,143.105,84.895,144,86,144z"/>
<circle style="fill:#D9D4BC;" cx="88" cy="140" r="4"/>
<circle style="fill:#D9D4BC;" cx="228" cy="128" r="12"/>
<path style="fill:#A6A390;" d="M164,148h44c2.209,0,4-1.791,4-4v-32c0-2.209-1.791-4-4-4h-44c-2.209,0-4,1.791-4,4v32
	C160,146.209,161.791,148,164,148z"/>
<path d="M206,120h-4c-1.105,0-2-0.895-2-2v-4c0-1.105,0.895-2,2-2h4c1.105,0,2,0.895,2,2v4C208,119.105,207.105,120,206,120z"/>
<circle style="fill:#D9D4BC;" cx="204" cy="116" r="4"/>
<path d="M194,120h-4c-1.105,0-2-0.895-2-2v-4c0-1.105,0.895-2,2-2h4c1.105,0,2,0.895,2,2v4C196,119.105,195.105,120,194,120z"/>
<circle style="fill:#D9D4BC;" cx="192" cy="116" r="4"/>
<path d="M182,120h-4c-1.105,0-2-0.895-2-2v-4c0-1.105,0.895-2,2-2h4c1.105,0,2,0.895,2,2v4C184,119.105,183.105,120,182,120z"/>
<circle style="fill:#D9D4BC;" cx="180" cy="116" r="4"/>
<path d="M170,120h-4c-1.105,0-2-0.895-2-2v-4c0-1.105,0.895-2,2-2h4c1.105,0,2,0.895,2,2v4C172,119.105,171.105,120,170,120z"/>
<circle style="fill:#D9D4BC;" cx="168" cy="116" r="4"/>
<path d="M206,132h-4c-1.105,0-2-0.895-2-2v-4c0-1.105,0.895-2,2-2h4c1.105,0,2,0.895,2,2v4C208,131.105,207.105,132,206,132z"/>
<circle style="fill:#D9D4BC;" cx="204" cy="128" r="4"/>
<path d="M194,132h-4c-1.105,0-2-0.895-2-2v-4c0-1.105,0.895-2,2-2h4c1.105,0,2,0.895,2,2v4C196,131.105,195.105,132,194,132z"/>
<circle style="fill:#D9D4BC;" cx="192" cy="128" r="4"/>
<path d="M182,132h-4c-1.105,0-2-0.895-2-2v-4c0-1.105,0.895-2,2-2h4c1.105,0,2,0.895,2,2v4C184,131.105,183.105,132,182,132z"/>
<circle style="fill:#D9D4BC;" cx="180" cy="128" r="4"/>
<path d="M170,132h-4c-1.105,0-2-0.895-2-2v-4c0-1.105,0.895-2,2-2h4c1.105,0,2,0.895,2,2v4C172,131.105,171.105,132,170,132z"/>
<circle style="fill:#D9D4BC;" cx="168" cy="128" r="4"/>
<path d="M206,144h-4c-1.105,0-2-0.895-2-2v-4c0-1.105,0.895-2,2-2h4c1.105,0,2,0.895,2,2v4C208,143.105,207.105,144,206,144z"/>
<circle style="fill:#D9D4BC;" cx="204" cy="140" r="4"/>
<path d="M194,144h-4c-1.105,0-2-0.895-2-2v-4c0-1.105,0.895-2,2-2h4c1.105,0,2,0.895,2,2v4C196,143.105,195.105,144,194,144z"/>
<circle style="fill:#D9D4BC;" cx="192" cy="140" r="4"/>
<path d="M182,144h-4c-1.105,0-2-0.895-2-2v-4c0-1.105,0.895-2,2-2h4c1.105,0,2,0.895,2,2v4C184,143.105,183.105,144,182,144z"/>
<circle style="fill:#D9D4BC;" cx="180" cy="140" r="4"/>
<path d="M170,144h-4c-1.105,0-2-0.895-2-2v-4c0-1.105,0.895-2,2-2h4c1.105,0,2,0.895,2,2v4C172,143.105,171.105,144,170,144z"/>
<circle style="fill:#D9D4BC;" cx="168" cy="140" r="4"/>
<path style="fill:#C4C0AA;" d="M228,96H28c-2.2,0-4-1.8-4-4V80c0-2.2,1.8-4,4-4h200c2.2,0,4,1.8,4,4v12C232,94.2,230.2,96,228,96z"
	/>
<rect x="220" y="164" style="fill:#404040;" width="4" height="12"/>
</svg>
