<svg xmlns="http://www.w3.org/2000/svg" xml:space="preserve" width="319.999" height="320" viewBox="0 0 319.999 320"><defs><clipPath id="a" clipPathUnits="userSpaceOnUse"><path d="M0 256h256V0H0Z"/></clipPath><clipPath id="b" clipPathUnits="userSpaceOnUse"><path d="M8 252h240V12H8Z"/></clipPath></defs><g clip-path="url(#a)" transform="matrix(1.33333 0 0 -1.33333 -10.667 336)"><g clip-path="url(#b)" style="opacity:.5"><path d="M0 0a8 8 0 0 1-.723 1.6 46.6 46.6 0 0 1-4.828 6.673 8 8 0 0 1-1.53 1.37 57 57 0 0 1-1.784 1.815 8 8 0 0 1-1.332 1.588 69 69 0 0 1-4.527 3.802 8 8 0 0 1-.894.598v9.943a8 8 0 0 1-3.563 6.656c-13.165 8.777-33.977 13.012-34.857 13.188a8 8 0 0 1-1.569.156h-120a8 8 0 0 1-1.569-.156c-.88-.175-21.714-4.411-34.88-13.188a8 8 0 0 1-3.563-6.656v-9.955a8 8 0 0 1-.872-.586 69 69 0 0 1-4.526-3.802 8 8 0 0 1-1.333-1.588 57 57 0 0 1-1.784-1.815 8 8 0 0 1-1.53-1.37 46.6 46.6 0 0 1-4.828-6.673 8 8 0 0 1-.723-1.6c-2.915-5.351-4.392-10.932-4.392-16.611v-84c0-5.419 1.344-10.748 4-15.873v-29.653a11 11 0 0 1-.012-.474q0-.24.012-.476v-5.524c0-1.049.205-2.075.593-3.025 3.181-13.643 18.968-24.806 45.849-32.37a8 8 0 0 1 7.77 1.991c18.331-4.327 39.489-6.596 61.776-6.596 22.547 0 43.908 2.317 62.365 6.734a8 8 0 0 1 7.778-1.966c26.53 7.564 42.118 18.671 45.276 32.209.387.949.593 1.975.593 3.023v36.127c2.655 5.125 4 10.454 4 15.873v84C4.393-10.932 2.916-5.351 0 0" style="fill:#fff;fill-opacity:1;fill-rule:nonzero;stroke:none" transform="translate(243.607 204.611)"/></g><path d="M0 0c0-20.987-48.354-38-108-38S-216-20.987-216 0s48.353 38 108 38S0 20.987 0 0" style="fill:#191919;fill-opacity:1;fill-rule:nonzero;stroke:none" transform="translate(235.99 58)"/><path d="M0 0c0 11.028-7.4 21.251-20.011 29.665v12.119c0 1.412-.74 2.723-1.954 3.444-11.011 6.539-26.872 10.101-29.621 10.686a4 4 0 0 1-.827.086h-119.175c-.28 0-.551-.028-.825-.086-2.751-.584-18.63-4.146-29.644-10.686a4 4 0 0 1-1.954-3.445V29.65C-216.609 21.239-224 11.021-224 0v-84c0-4.78 1.397-9.409 4-13.806V-136l.153.017c1.562-10.688 15.672-20.207 37.25-26.772 1.33-.405 2.719.619 2.623 2.006q-.026.373-.026.749c0 15.464 30.557 28 68.25 28s68.25-12.536 68.25-28q0-.3-.017-.598c-.078-1.389 1.277-2.416 2.607-2.006 21.3 6.559 35.207 16.015 36.758 26.621L-4-136v38.194C-1.396-93.409 0-88.78 0-84z" style="fill:#262626;fill-opacity:1;fill-rule:nonzero;stroke:none" transform="translate(240 188)"/><path d="M0 0c0-3.313-5.373-6-12-6-6.628 0-12 2.687-12 6s5.372 6 12 6C-5.373 6 0 3.313 0 0" style="fill:#b80000;fill-opacity:1;fill-rule:nonzero;stroke:none" transform="translate(139.99 54)"/><path d="M0 0a2 2 0 0 1-2-2l-.011-122c0-28.719 26.863-52 60-52s60 23.281 60 52L118-2a2 2 0 0 1-2 2z" style="fill:#333;fill-opacity:1;fill-rule:nonzero;stroke:none" transform="translate(70 244)"/><path d="M0 0c0-28.719-23.281-52-52-52s-52 23.281-52 52 23.281 52 52 52S0 28.719 0 0" style="fill:#262626;fill-opacity:1;fill-rule:nonzero;stroke:none" transform="translate(179.99 128)"/><path d="M0 0c-40 0-48-8-52-8-.276 0-.257-.039 0-.11V-32H52v24S40 0 0 0" style="fill:#191919;fill-opacity:1;fill-rule:nonzero;stroke:none" transform="translate(128.089 224)"/><path d="M0 0c-.238.08-24.282 7.949-59.684 7.949-35.281 0-51.395-7.816-51.554-7.895l-.893 1.789c.662.331 16.623 8.106 52.447 8.106C-23.935 9.949.391 1.978.633 1.897z" style="fill:#262626;fill-opacity:1;fill-rule:nonzero;stroke:none" transform="translate(183.673 223.051)"/><path d="M0 0a130 130 0 0 1-4-1.637v-54.191h4Z" style="fill:#191919;fill-opacity:1;fill-rule:nonzero;stroke:none" transform="translate(56 228.156)"/><path d="M0 0a61 61 0 0 1-4-3.358v-39.437h4Z" style="fill:#191919;fill-opacity:1;fill-rule:nonzero;stroke:none" transform="translate(32 215.123)"/><path d="M0 0a107 107 0 0 1-4-1.997v-50.39h4z" style="fill:#191919;fill-opacity:1;fill-rule:nonzero;stroke:none" transform="translate(48 224.715)"/><path d="M0 0a84 84 0 0 1-4-2.511v-45.657h4Z" style="fill:#191919;fill-opacity:1;fill-rule:nonzero;stroke:none" transform="translate(40 220.496)"/><path d="M0 0a38.5 38.5 0 0 1 4-5.521v122.66a38.5 38.5 0 0 1-4-5.521z" style="fill:#191919;fill-opacity:1;fill-rule:nonzero;stroke:none" transform="translate(20 90.519)"/><path d="M0 0v-57.317h4V1.357A150 150 0 0 1 0 0" style="fill:#191919;fill-opacity:1;fill-rule:nonzero;stroke:none" transform="translate(60 229.645)"/><path d="M0 0a130 130 0 0 0 4-1.637v-54.191H0Z" style="fill:#191919;fill-opacity:1;fill-rule:nonzero;stroke:none" transform="translate(200 228.156)"/><path d="M0 0a61 61 0 0 0 4-3.358v-39.437H0Z" style="fill:#191919;fill-opacity:1;fill-rule:nonzero;stroke:none" transform="translate(224 215.123)"/><path d="M0 0q2.056-.974 4-1.997v-50.39H0Z" style="fill:#191919;fill-opacity:1;fill-rule:nonzero;stroke:none" transform="translate(208 224.715)"/><path d="M0 0a83 83 0 0 0 4-2.511v-45.657H0Z" style="fill:#191919;fill-opacity:1;fill-rule:nonzero;stroke:none" transform="translate(216 220.496)"/><path d="M0 0a38.4 38.4 0 0 0-4-5.521v122.66a38.4 38.4 0 0 0 4-5.521z" style="fill:#191919;fill-opacity:1;fill-rule:nonzero;stroke:none" transform="translate(236 90.519)"/><path d="M0 0v-57.317h-4V1.357Q-1.967.699 0 0" style="fill:#191919;fill-opacity:1;fill-rule:nonzero;stroke:none" transform="translate(196 229.645)"/></g></svg>