<?xml version="1.0" encoding="UTF-8" standalone="no"?>
<svg
   xmlns:dc="http://purl.org/dc/elements/1.1/"
   xmlns:cc="http://creativecommons.org/ns#"
   xmlns:rdf="http://www.w3.org/1999/02/22-rdf-syntax-ns#"
   xmlns:svg="http://www.w3.org/2000/svg"
   xmlns="http://www.w3.org/2000/svg"
   viewBox="0 0 319.99945 319.9996"
   height="319.9996"
   width="319.99945"
   xml:space="preserve"
   id="svg2"
   version="1.1"><metadata
     id="metadata8"><rdf:RDF><cc:Work
         rdf:about=""><dc:format>image/svg+xml</dc:format><dc:type
           rdf:resource="http://purl.org/dc/dcmitype/StillImage" /></cc:Work></rdf:RDF></metadata><defs
     id="defs6"><clipPath
       id="clipPath18"
       clipPathUnits="userSpaceOnUse"><path
         id="path16"
         d="M 0,256 H 256 V 0 H 0 Z" /></clipPath><clipPath
       id="clipPath26"
       clipPathUnits="userSpaceOnUse"><path
         id="path24"
         d="M 8,252 H 248 V 12 H 8 Z" /></clipPath></defs><g
     transform="matrix(1.3333333,0,0,-1.3333333,-10.6672,335.99999)"
     id="g10"><g
       id="g12"><g
         clip-path="url(#clipPath18)"
         id="g14"><g
           id="g20"><g
             id="g22" /><g
             id="g34"><g
               style="opacity:0.5"
               id="g32"
               clip-path="url(#clipPath26)"><g
                 id="g30"
                 transform="translate(243.6074,204.6113)"><path
                   id="path28"
                   style="fill:#ffffff;fill-opacity:1;fill-rule:nonzero;stroke:none"
                   d="m 0,0 c -0.181,0.556 -0.423,1.092 -0.723,1.6 -1.348,2.278 -2.972,4.523 -4.828,6.673 -0.457,0.529 -0.971,0.987 -1.53,1.37 -0.574,0.611 -1.17,1.217 -1.784,1.815 -0.369,0.58 -0.817,1.115 -1.332,1.588 -1.411,1.295 -2.934,2.575 -4.527,3.802 -0.287,0.221 -0.586,0.421 -0.894,0.598 v 9.943 c 0,2.674 -1.337,5.173 -3.563,6.656 -13.165,8.777 -33.977,13.012 -34.857,13.188 -0.517,0.103 -1.042,0.156 -1.569,0.156 h -56.011 -8.001 -55.988 c -0.527,0 -1.052,-0.052 -1.569,-0.156 -0.88,-0.175 -21.714,-4.411 -34.88,-13.188 -2.226,-1.483 -3.563,-3.982 -3.563,-6.656 v -9.955 c -0.3,-0.175 -0.592,-0.37 -0.872,-0.586 -1.592,-1.227 -3.115,-2.507 -4.526,-3.802 -0.516,-0.473 -0.963,-1.008 -1.333,-1.588 -0.614,-0.598 -1.21,-1.204 -1.784,-1.815 -0.558,-0.383 -1.073,-0.841 -1.53,-1.37 -1.856,-2.15 -3.48,-4.395 -4.828,-6.673 -0.3,-0.508 -0.542,-1.044 -0.723,-1.6 -2.915,-5.351 -4.392,-10.932 -4.392,-16.611 v -84 c 0,-5.419 1.344,-10.748 4,-15.873 v -29.653 c -0.007,-0.165 -0.012,-0.319 -0.012,-0.474 0,-0.16 0.005,-0.318 0.012,-0.476 v -5.524 c 0,-1.049 0.205,-2.075 0.593,-3.025 3.181,-13.643 18.968,-24.806 45.849,-32.37 0.716,-0.201 1.444,-0.299 2.166,-0.299 2.071,0 4.091,0.805 5.604,2.29 18.331,-4.327 39.489,-6.596 61.776,-6.596 22.547,0 43.908,2.317 62.365,6.734 1.513,-1.475 3.525,-2.272 5.586,-2.272 0.731,0 1.469,0.1 2.192,0.306 26.53,7.564 42.118,18.671 45.276,32.209 0.387,0.949 0.593,1.975 0.593,3.023 v 36.127 c 2.655,5.125 4,10.454 4,15.873 v 84 C 4.393,-10.932 2.916,-5.351 0,0" /></g></g></g></g><g
           transform="translate(235.9893,58)"
           id="g36"><path
             id="path38"
             style="fill:#191919;fill-opacity:1;fill-rule:nonzero;stroke:none"
             d="m 0,0 c 0,-20.987 -48.354,-38 -108,-38 -59.647,0 -108,17.013 -108,38 0,20.987 48.353,38 108,38 C -48.354,38 0,20.987 0,0" /></g><g
           transform="translate(240,188)"
           id="g40"><path
             id="path42"
             style="fill:#262626;fill-opacity:1;fill-rule:nonzero;stroke:none"
             d="m 0,0 c 0,11.028 -7.4,21.251 -20.011,29.665 v 12.119 c 0,1.412 -0.74,2.723 -1.954,3.444 -11.011,6.539 -26.872,10.101 -29.621,10.686 C -51.86,55.972 -52.133,56 -52.413,56 h -55.598 -8 -55.577 c -0.28,0 -0.551,-0.028 -0.825,-0.086 -2.751,-0.584 -18.63,-4.146 -29.644,-10.686 -1.214,-0.721 -1.954,-2.032 -1.954,-3.445 V 29.65 C -216.609,21.239 -224,11.021 -224,0 v -84 c 0,-4.78 1.397,-9.409 4,-13.806 V -136 l 0.153,0.017 c 1.562,-10.688 15.672,-20.207 37.25,-26.772 1.33,-0.405 2.719,0.619 2.623,2.006 -0.017,0.249 -0.026,0.498 -0.026,0.749 0,15.464 30.557,28 68.25,28 37.693,0 68.25,-12.536 68.25,-28 0,-0.2 -0.006,-0.399 -0.017,-0.598 -0.078,-1.389 1.277,-2.416 2.607,-2.006 21.3,6.559 35.207,16.015 36.758,26.621 L -4,-136 v 38.194 c 2.604,4.397 4,9.026 4,13.806 z" /></g><g
           transform="translate(139.9893,54)"
           id="g44"><path
             id="path46"
             style="fill:#b80000;fill-opacity:1;fill-rule:nonzero;stroke:none"
             d="m 0,0 c 0,-3.313 -5.373,-6 -12,-6 -6.628,0 -12,2.687 -12,6 0,3.313 5.372,6 12,6 C -5.373,6 0,3.313 0,0" /></g><g
           transform="translate(70,244)"
           id="g48"><path
             id="path50"
             style="fill:#333333;fill-opacity:1;fill-rule:nonzero;stroke:none"
             d="m 0,0 c -1.104,0 -2,-0.896 -2,-2 l -0.011,-122 c 0,-28.719 26.863,-52 60,-52 33.137,0 60,23.281 60,52 L 118,-2 c 0,1.104 -0.896,2 -2,2 z" /></g><g
           transform="translate(179.9893,128)"
           id="g52"><path
             id="path54"
             style="fill:#262626;fill-opacity:1;fill-rule:nonzero;stroke:none"
             d="m 0,0 c 0,-28.719 -23.281,-52 -52,-52 -28.719,0 -52,23.281 -52,52 0,28.719 23.281,52 52,52 C -23.281,52 0,28.719 0,0" /></g><g
           transform="translate(128.0889,224)"
           id="g56"><path
             id="path58"
             style="fill:#191919;fill-opacity:1;fill-rule:nonzero;stroke:none"
             d="m 0,0 c -40,0 -48,-8 -52,-8 -0.276,0 -0.257,-0.039 0,-0.11 V -32 H 52 V -8 C 52,-8 40,0 0,0" /></g><g
           transform="translate(183.6729,223.0513)"
           id="g60"><path
             id="path62"
             style="fill:#262626;fill-opacity:1;fill-rule:nonzero;stroke:none"
             d="m 0,0 c -0.238,0.08 -24.282,7.949 -59.684,7.949 -35.281,0 -51.395,-7.816 -51.554,-7.895 l -0.893,1.789 c 0.662,0.331 16.623,8.106 52.447,8.106 35.749,0 60.075,-7.971 60.317,-8.052 z" /></g><g
           transform="translate(56,228.1558)"
           id="g64"><path
             id="path66"
             style="fill:#191919;fill-opacity:1;fill-rule:nonzero;stroke:none"
             d="M 0,0 C -1.361,-0.531 -2.695,-1.077 -4,-1.637 V -55.828 H 0 Z" /></g><g
           transform="translate(32,215.1226)"
           id="g68"><path
             id="path70"
             style="fill:#191919;fill-opacity:1;fill-rule:nonzero;stroke:none"
             d="M 0,0 C -1.419,-1.094 -2.753,-2.214 -4,-3.358 V -42.795 H 0 Z" /></g><g
           transform="translate(48,224.7148)"
           id="g72"><path
             id="path74"
             style="fill:#191919;fill-opacity:1;fill-rule:nonzero;stroke:none"
             d="m 0,0 c -1.37,-0.649 -2.704,-1.315 -4,-1.997 v -50.39 h 4 z" /></g><g
           transform="translate(40,220.4961)"
           id="g76"><path
             id="path78"
             style="fill:#191919;fill-opacity:1;fill-rule:nonzero;stroke:none"
             d="M 0,0 C -1.387,-0.817 -2.718,-1.655 -4,-2.511 V -48.168 H 0 Z" /></g><g
           transform="translate(20,90.5186)"
           id="g80"><path
             id="path82"
             style="fill:#191919;fill-opacity:1;fill-rule:nonzero;stroke:none"
             d="m 0,0 c 1.116,-1.885 2.453,-3.728 4,-5.521 v 122.66 c -1.547,-1.793 -2.884,-3.636 -4,-5.521 z" /></g><g
           transform="translate(60,229.645)"
           id="g84"><path
             id="path86"
             style="fill:#191919;fill-opacity:1;fill-rule:nonzero;stroke:none"
             d="M 0,0 V -57.317 H 4 V 1.357 C 2.645,0.918 1.311,0.466 0,0" /></g><g
           transform="translate(200,228.1558)"
           id="g88"><path
             id="path90"
             style="fill:#191919;fill-opacity:1;fill-rule:nonzero;stroke:none"
             d="M 0,0 C 1.361,-0.531 2.695,-1.077 4,-1.637 V -55.828 H 0 Z" /></g><g
           transform="translate(224,215.1226)"
           id="g92"><path
             id="path94"
             style="fill:#191919;fill-opacity:1;fill-rule:nonzero;stroke:none"
             d="M 0,0 C 1.419,-1.094 2.753,-2.214 4,-3.358 V -42.795 H 0 Z" /></g><g
           transform="translate(208,224.7148)"
           id="g96"><path
             id="path98"
             style="fill:#191919;fill-opacity:1;fill-rule:nonzero;stroke:none"
             d="m 0,0 c 1.37,-0.649 2.704,-1.315 4,-1.997 v -50.39 H 0 Z" /></g><g
           transform="translate(216,220.4961)"
           id="g100"><path
             id="path102"
             style="fill:#191919;fill-opacity:1;fill-rule:nonzero;stroke:none"
             d="M 0,0 C 1.388,-0.817 2.718,-1.655 4,-2.511 V -48.168 H 0 Z" /></g><g
           transform="translate(236,90.5186)"
           id="g104"><path
             id="path106"
             style="fill:#191919;fill-opacity:1;fill-rule:nonzero;stroke:none"
             d="m 0,0 c -1.116,-1.885 -2.452,-3.728 -4,-5.521 v 122.66 c 1.548,-1.793 2.884,-3.636 4,-5.521 z" /></g><g
           transform="translate(196,229.645)"
           id="g108"><path
             id="path110"
             style="fill:#191919;fill-opacity:1;fill-rule:nonzero;stroke:none"
             d="M 0,0 V -57.317 H -4 V 1.357 C -2.645,0.918 -1.311,0.466 0,0" /></g></g></g></g></svg>