<svg xmlns="http://www.w3.org/2000/svg" xml:space="preserve" width="330.667" height="288" viewBox="0 0 330.667 288"><defs><clipPath id="a" clipPathUnits="userSpaceOnUse"><path d="M0 256h256V0H0Z"/></clipPath><clipPath id="b" clipPathUnits="userSpaceOnUse"><path d="M4 236h248V20H4Z"/></clipPath><clipPath id="c" clipPathUnits="userSpaceOnUse"><path d="M0 256h256V0H0Z"/></clipPath></defs><g clip-path="url(#a)" transform="matrix(1.33333 0 0 -1.33333 -5.333 314.667)"><g clip-path="url(#b)" style="opacity:.5"><path d="M0 0h-248v-192.984l.239-.956 4-16 1.515-6.06H-5.754l1.515 6.06 4 16 .239.956V-8Z" style="fill:#fff;fill-opacity:1;fill-rule:nonzero;stroke:none" transform="translate(252 236)"/></g></g><path d="M0 0h-224l-4 16v184H4V16Z" style="fill:#404040;fill-opacity:1;fill-rule:nonzero;stroke:none" transform="matrix(1.33333 0 0 -1.33333 314.667 277.333)"/><path d="M244 44H12v4h232z" style="fill:#333;fill-opacity:1;fill-rule:nonzero;stroke:none" transform="matrix(1.33333 0 0 -1.33333 -5.333 314.667)"/><g clip-path="url(#c)" transform="matrix(1.33333 0 0 -1.33333 -5.333 314.667)"><path d="m0 0-33 22c-1.329.886-3.109-.066-3.109-1.664a2 2 0 0 1 .89-1.664l33-22a2 2 0 0 1 1.11-.336C.869-3.664 1.646-1.098 0 0" style="fill:#333;fill-opacity:1;fill-rule:nonzero;stroke:none" transform="translate(63.773 71.664)"/><path d="m0 0-69 46c-1.329.886-3.109-.066-3.109-1.664a2 2 0 0 1 .89-1.664l69-46a2 2 0 0 1 1.11-.336C.869-3.664 1.646-1.098 0 0" style="fill:#333;fill-opacity:1;fill-rule:nonzero;stroke:none" transform="translate(99.773 71.664)"/><path d="m0 0-57 38c-1.329.886-3.109-.066-3.109-1.664a2 2 0 0 1 .89-1.664l57-38a2 2 0 0 1 1.11-.336C.869-3.664 1.646-1.098 0 0" style="fill:#333;fill-opacity:1;fill-rule:nonzero;stroke:none" transform="translate(87.773 71.664)"/><path d="m0 0-45 30c-1.329.886-3.109-.066-3.109-1.664a2 2 0 0 1 .89-1.664l45-30a2 2 0 0 1 1.11-.336C.869-3.664 1.646-1.098 0 0" style="fill:#333;fill-opacity:1;fill-rule:nonzero;stroke:none" transform="translate(75.773 71.664)"/><path d="m0 0-88.336 58.891c-1.329.886-3.109-.067-3.109-1.664a2 2 0 0 1 .89-1.664L-2.219-3.328A2 2 0 1 1 0 0" style="fill:#333;fill-opacity:1;fill-rule:nonzero;stroke:none" transform="translate(119.11 127.664)"/><path d="m0 0 88.336-58.891a2 2 0 0 1 2.219 3.328L2.219 3.328c-1.329.886-3.11-.066-3.11-1.664A2 2 0 0 1 0 0" style="fill:#333;fill-opacity:1;fill-rule:nonzero;stroke:none" transform="translate(28.555 151.227)"/><path d="m0 0 88.336-58.891a2 2 0 0 1 2.219 3.328L2.219 3.328c-1.329.886-3.11-.066-3.11-1.664A2 2 0 0 1 0 0" style="fill:#333;fill-opacity:1;fill-rule:nonzero;stroke:none" transform="translate(28.555 159.227)"/><path d="m0 0 88.336-58.891a2 2 0 0 1 2.219 3.328L2.219 3.328c-1.329.886-3.11-.066-3.11-1.664A2 2 0 0 1 0 0" style="fill:#333;fill-opacity:1;fill-rule:nonzero;stroke:none" transform="translate(28.555 175.227)"/><path d="m0 0 88.336-58.891a2 2 0 0 1 2.219 3.328L2.219 3.328c-1.329.886-3.11-.066-3.11-1.664A2 2 0 0 1 0 0" style="fill:#333;fill-opacity:1;fill-rule:nonzero;stroke:none" transform="translate(28.555 167.227)"/><path d="m0 0-37.336 24.891a2 2 0 0 1-1.109.336c-1.979 0-2.756-2.567-1.11-3.665l37.336-24.89A2 2 0 0 1 0 0" style="fill:#333;fill-opacity:1;fill-rule:nonzero;stroke:none" transform="translate(119.11 186.773)"/><path d="m0 0 49.336-32.891a2 2 0 0 1 2.219 3.329L2.219 3.328a2 2 0 0 1-1.11.336C-.87 3.664-1.646 1.098 0 0" style="fill:#333;fill-opacity:1;fill-rule:nonzero;stroke:none" transform="translate(67.555 208.336)"/><path d="m0 0 73.336-48.891a2 2 0 0 1 2.219 3.328L2.219 3.328a2 2 0 0 1-1.11.336C-.87 3.664-1.646 1.098 0 0" style="fill:#333;fill-opacity:1;fill-rule:nonzero;stroke:none" transform="translate(43.555 208.336)"/><path d="m0 0 61.336-40.891a2 2 0 0 1 2.219 3.328L2.219 3.328a2 2 0 0 1-1.11.336C-.87 3.664-1.646 1.098 0 0" style="fill:#333;fill-opacity:1;fill-rule:nonzero;stroke:none" transform="translate(55.555 208.336)"/><path d="m0 0 33 22c1.329.886 3.109-.066 3.109-1.664a2 2 0 0 0-.89-1.664l-33-22a2 2 0 0 0-1.11-.336C-.869-3.664-1.646-1.098 0 0" style="fill:#333;fill-opacity:1;fill-rule:nonzero;stroke:none" transform="translate(191.89 71.664)"/><path d="m0 0 69 46c1.329.886 3.109-.066 3.109-1.664a2 2 0 0 0-.89-1.664l-69-46a2 2 0 0 0-1.11-.336C-.869-3.664-1.646-1.098 0 0" style="fill:#333;fill-opacity:1;fill-rule:nonzero;stroke:none" transform="translate(155.89 71.664)"/><path d="m0 0 57 38c1.329.886 3.109-.066 3.109-1.664a2 2 0 0 0-.89-1.664l-57-38a2 2 0 0 0-1.11-.336C-.869-3.664-1.646-1.098 0 0" style="fill:#333;fill-opacity:1;fill-rule:nonzero;stroke:none" transform="translate(167.89 71.664)"/><path d="m0 0 45 30c1.329.886 3.109-.066 3.109-1.664a2 2 0 0 0-.89-1.664l-45-30a2 2 0 0 0-1.11-.336C-.869-3.664-1.646-1.098 0 0" style="fill:#333;fill-opacity:1;fill-rule:nonzero;stroke:none" transform="translate(179.89 71.664)"/><path d="m0 0 88.336 58.891c1.329.886 3.109-.067 3.109-1.664a2 2 0 0 0-.89-1.664L2.219-3.328A2 2 0 1 0 0 0" style="fill:#333;fill-opacity:1;fill-rule:nonzero;stroke:none" transform="translate(136.555 127.664)"/><path d="m0 0-88.336-58.891a2 2 0 0 0-2.219 3.328L-2.219 3.328c1.329.886 3.11-.066 3.11-1.664A2 2 0 0 0 0 0" style="fill:#333;fill-opacity:1;fill-rule:nonzero;stroke:none" transform="translate(227.11 151.227)"/><path d="m0 0-88.336-58.891a2 2 0 0 0-2.219 3.328L-2.219 3.328c1.329.886 3.11-.066 3.11-1.664A2 2 0 0 0 0 0" style="fill:#333;fill-opacity:1;fill-rule:nonzero;stroke:none" transform="translate(227.11 159.227)"/><path d="m0 0-88.336-58.891a2 2 0 0 0-2.219 3.328L-2.219 3.328c1.329.886 3.11-.066 3.11-1.664A2 2 0 0 0 0 0" style="fill:#333;fill-opacity:1;fill-rule:nonzero;stroke:none" transform="translate(227.11 175.227)"/><path d="m0 0-88.336-58.891a2 2 0 0 0-2.219 3.328L-2.219 3.328c1.329.886 3.11-.066 3.11-1.664A2 2 0 0 0 0 0" style="fill:#333;fill-opacity:1;fill-rule:nonzero;stroke:none" transform="translate(227.11 167.227)"/><path d="m0 0 37.336 24.891a2 2 0 0 0 1.109.336c1.979 0 2.756-2.567 1.11-3.665L2.219-3.328A2 2 0 0 0 0 0" style="fill:#333;fill-opacity:1;fill-rule:nonzero;stroke:none" transform="translate(136.555 186.773)"/><path d="m0 0-49.336-32.891a2 2 0 0 0-2.219 3.329l49.336 32.89a2 2 0 0 0 1.11.336C.869 3.664 1.646 1.098 0 0" style="fill:#333;fill-opacity:1;fill-rule:nonzero;stroke:none" transform="translate(188.11 208.336)"/><path d="m0 0-73.336-48.891a2 2 0 0 0-2.219 3.328L-2.219 3.328a2 2 0 0 0 1.11.336C.869 3.664 1.646 1.098 0 0" style="fill:#333;fill-opacity:1;fill-rule:nonzero;stroke:none" transform="translate(212.11 208.336)"/><path d="m0 0-61.336-40.891a2 2 0 0 0-2.219 3.328L-2.219 3.328a2 2 0 0 0 1.11.336C.869 3.664 1.646 1.098 0 0" style="fill:#333;fill-opacity:1;fill-rule:nonzero;stroke:none" transform="translate(200.11 208.336)"/></g></svg>