<?xml version="1.0" encoding="UTF-8" standalone="no"?>
<svg
   xmlns:dc="http://purl.org/dc/elements/1.1/"
   xmlns:cc="http://creativecommons.org/ns#"
   xmlns:rdf="http://www.w3.org/1999/02/22-rdf-syntax-ns#"
   xmlns:svg="http://www.w3.org/2000/svg"
   xmlns="http://www.w3.org/2000/svg"
   viewBox="0 0 330.66665 288"
   height="288"
   width="330.66666"
   xml:space="preserve"
   id="svg2"
   version="1.1"><metadata
     id="metadata8"><rdf:RDF><cc:Work
         rdf:about=""><dc:format>image/svg+xml</dc:format><dc:type
           rdf:resource="http://purl.org/dc/dcmitype/StillImage" /></cc:Work></rdf:RDF></metadata><defs
     id="defs6"><clipPath
       id="clipPath18"
       clipPathUnits="userSpaceOnUse"><path
         id="path16"
         d="M 0,256 H 256 V 0 H 0 Z" /></clipPath><clipPath
       id="clipPath26"
       clipPathUnits="userSpaceOnUse"><path
         id="path24"
         d="M 4,236 H 252 V 20 H 4 Z" /></clipPath><clipPath
       id="clipPath48"
       clipPathUnits="userSpaceOnUse"><path
         id="path46"
         d="M 0,256 H 256 V 0 H 0 Z" /></clipPath></defs><g
     transform="matrix(1.3333333,0,0,-1.3333333,-5.3333332,314.66666)"
     id="g10"><g
       id="g12"><g
         clip-path="url(#clipPath18)"
         id="g14"><g
           id="g20"><g
             id="g22" /><g
             id="g34"><g
               style="opacity:0.5"
               id="g32"
               clip-path="url(#clipPath26)"><g
                 id="g30"
                 transform="translate(252,236)"><path
                   id="path28"
                   style="fill:#ffffff;fill-opacity:1;fill-rule:nonzero;stroke:none"
                   d="m 0,0 h -8 -232 -8 v -8 -184 -0.984 l 0.239,-0.956 4,-16 1.515,-6.06 h 6.246 224 6.246 l 1.515,6.06 4,16 0.239,0.956 V -192 -8 Z" /></g></g></g></g></g></g><g
       transform="translate(240,28)"
       id="g36"><path
         id="path38"
         style="fill:#404040;fill-opacity:1;fill-rule:nonzero;stroke:none"
         d="m 0,0 h -224 l -4,16 V 200 H 4 V 16 Z" /></g><path
       id="path40"
       style="fill:#333333;fill-opacity:1;fill-rule:nonzero;stroke:none"
       d="M 244,44 H 12 v 4 h 232 z" /><g
       id="g42"><g
         clip-path="url(#clipPath48)"
         id="g44"><g
           transform="translate(63.7734,71.6641)"
           id="g50"><path
             id="path52"
             style="fill:#333333;fill-opacity:1;fill-rule:nonzero;stroke:none"
             d="m 0,0 -33,22 c -1.329,0.886 -3.109,-0.066 -3.109,-1.664 0,-0.669 0.334,-1.293 0.89,-1.664 l 33,-22 c 0.329,-0.219 0.715,-0.336 1.11,-0.336 1.978,0 2.755,2.566 1.109,3.664" /></g><g
           transform="translate(99.7734,71.6641)"
           id="g54"><path
             id="path56"
             style="fill:#333333;fill-opacity:1;fill-rule:nonzero;stroke:none"
             d="m 0,0 -69,46 c -1.329,0.886 -3.109,-0.066 -3.109,-1.664 0,-0.669 0.334,-1.293 0.89,-1.664 l 69,-46 c 0.329,-0.219 0.715,-0.336 1.11,-0.336 1.978,0 2.755,2.566 1.109,3.664" /></g><g
           transform="translate(87.7734,71.6641)"
           id="g58"><path
             id="path60"
             style="fill:#333333;fill-opacity:1;fill-rule:nonzero;stroke:none"
             d="m 0,0 -57,38 c -1.329,0.886 -3.109,-0.066 -3.109,-1.664 0,-0.669 0.334,-1.293 0.89,-1.664 l 57,-38 c 0.329,-0.219 0.715,-0.336 1.11,-0.336 1.978,0 2.755,2.566 1.109,3.664" /></g><g
           transform="translate(75.7734,71.6641)"
           id="g62"><path
             id="path64"
             style="fill:#333333;fill-opacity:1;fill-rule:nonzero;stroke:none"
             d="m 0,0 -45,30 c -1.329,0.886 -3.109,-0.066 -3.109,-1.664 0,-0.669 0.334,-1.293 0.89,-1.664 l 45,-30 c 0.329,-0.219 0.715,-0.336 1.11,-0.336 1.978,0 2.755,2.566 1.109,3.664" /></g><g
           transform="translate(119.1094,127.6641)"
           id="g66"><path
             id="path68"
             style="fill:#333333;fill-opacity:1;fill-rule:nonzero;stroke:none"
             d="m 0,0 -88.336,58.891 c -1.329,0.886 -3.109,-0.067 -3.109,-1.664 0,-0.669 0.334,-1.293 0.89,-1.664 L -2.219,-3.328 C -1.3,-3.94 -0.058,-3.692 0.555,-2.773 1.167,-1.854 0.919,-0.612 0,0" /></g><g
           transform="translate(28.5547,151.2266)"
           id="g70"><path
             id="path72"
             style="fill:#333333;fill-opacity:1;fill-rule:nonzero;stroke:none"
             d="m 0,0 88.336,-58.891 c 0.919,-0.612 2.161,-0.364 2.773,0.555 0.613,0.919 0.365,2.161 -0.554,2.773 L 2.219,3.328 C 0.89,4.214 -0.891,3.262 -0.891,1.664 -0.891,0.996 -0.557,0.371 0,0" /></g><g
           transform="translate(28.5547,159.2266)"
           id="g74"><path
             id="path76"
             style="fill:#333333;fill-opacity:1;fill-rule:nonzero;stroke:none"
             d="m 0,0 88.336,-58.891 c 0.919,-0.612 2.161,-0.364 2.773,0.555 0.613,0.919 0.365,2.161 -0.554,2.773 L 2.219,3.328 C 0.89,4.214 -0.891,3.262 -0.891,1.664 -0.891,0.996 -0.557,0.371 0,0" /></g><g
           transform="translate(28.5547,175.2266)"
           id="g78"><path
             id="path80"
             style="fill:#333333;fill-opacity:1;fill-rule:nonzero;stroke:none"
             d="m 0,0 88.336,-58.891 c 0.919,-0.612 2.161,-0.364 2.773,0.555 0.613,0.919 0.365,2.161 -0.554,2.773 L 2.219,3.328 C 0.89,4.214 -0.891,3.262 -0.891,1.664 -0.891,0.996 -0.557,0.371 0,0" /></g><g
           transform="translate(28.5547,167.2266)"
           id="g82"><path
             id="path84"
             style="fill:#333333;fill-opacity:1;fill-rule:nonzero;stroke:none"
             d="m 0,0 88.336,-58.891 c 0.919,-0.612 2.161,-0.364 2.773,0.555 0.613,0.919 0.365,2.161 -0.554,2.773 L 2.219,3.328 C 0.89,4.214 -0.891,3.262 -0.891,1.664 -0.891,0.996 -0.557,0.371 0,0" /></g><g
           transform="translate(119.1094,186.7734)"
           id="g86"><path
             id="path88"
             style="fill:#333333;fill-opacity:1;fill-rule:nonzero;stroke:none"
             d="m 0,0 -37.336,24.891 c -0.329,0.219 -0.715,0.336 -1.109,0.336 -1.979,0 -2.756,-2.567 -1.11,-3.665 L -2.219,-3.328 C -1.3,-3.941 -0.058,-3.692 0.555,-2.773 1.167,-1.854 0.919,-0.613 0,0" /></g><g
           transform="translate(67.5547,208.3359)"
           id="g90"><path
             id="path92"
             style="fill:#333333;fill-opacity:1;fill-rule:nonzero;stroke:none"
             d="m 0,0 49.336,-32.891 c 0.919,-0.612 2.161,-0.364 2.773,0.555 0.613,0.919 0.365,2.161 -0.554,2.774 L 2.219,3.328 C 1.89,3.547 1.504,3.664 1.109,3.664 -0.87,3.664 -1.646,1.098 0,0" /></g><g
           transform="translate(43.5547,208.3359)"
           id="g94"><path
             id="path96"
             style="fill:#333333;fill-opacity:1;fill-rule:nonzero;stroke:none"
             d="m 0,0 73.336,-48.891 c 0.919,-0.612 2.161,-0.364 2.773,0.555 0.613,0.919 0.365,2.161 -0.554,2.773 L 2.219,3.328 C 1.89,3.547 1.504,3.664 1.109,3.664 -0.87,3.664 -1.646,1.098 0,0" /></g><g
           transform="translate(55.5547,208.3359)"
           id="g98"><path
             id="path100"
             style="fill:#333333;fill-opacity:1;fill-rule:nonzero;stroke:none"
             d="m 0,0 61.336,-40.891 c 0.919,-0.612 2.161,-0.364 2.773,0.555 0.613,0.919 0.365,2.161 -0.554,2.773 L 2.219,3.328 C 1.89,3.547 1.504,3.664 1.109,3.664 -0.87,3.664 -1.646,1.098 0,0" /></g><g
           transform="translate(191.8906,71.6641)"
           id="g102"><path
             id="path104"
             style="fill:#333333;fill-opacity:1;fill-rule:nonzero;stroke:none"
             d="m 0,0 33,22 c 1.329,0.886 3.109,-0.066 3.109,-1.664 0,-0.669 -0.334,-1.293 -0.89,-1.664 l -33,-22 C 1.891,-3.547 1.504,-3.664 1.109,-3.664 -0.869,-3.664 -1.646,-1.098 0,0" /></g><g
           transform="translate(155.8906,71.6641)"
           id="g106"><path
             id="path108"
             style="fill:#333333;fill-opacity:1;fill-rule:nonzero;stroke:none"
             d="m 0,0 69,46 c 1.329,0.886 3.109,-0.066 3.109,-1.664 0,-0.669 -0.334,-1.293 -0.89,-1.664 l -69,-46 C 1.891,-3.547 1.504,-3.664 1.109,-3.664 -0.869,-3.664 -1.646,-1.098 0,0" /></g><g
           transform="translate(167.8906,71.6641)"
           id="g110"><path
             id="path112"
             style="fill:#333333;fill-opacity:1;fill-rule:nonzero;stroke:none"
             d="m 0,0 57,38 c 1.329,0.886 3.109,-0.066 3.109,-1.664 0,-0.669 -0.334,-1.293 -0.89,-1.664 l -57,-38 C 1.891,-3.547 1.504,-3.664 1.109,-3.664 -0.869,-3.664 -1.646,-1.098 0,0" /></g><g
           transform="translate(179.8906,71.6641)"
           id="g114"><path
             id="path116"
             style="fill:#333333;fill-opacity:1;fill-rule:nonzero;stroke:none"
             d="m 0,0 45,30 c 1.329,0.886 3.109,-0.066 3.109,-1.664 0,-0.669 -0.334,-1.293 -0.89,-1.664 l -45,-30 C 1.891,-3.547 1.504,-3.664 1.109,-3.664 -0.869,-3.664 -1.646,-1.098 0,0" /></g><g
           transform="translate(136.5547,127.6641)"
           id="g118"><path
             id="path120"
             style="fill:#333333;fill-opacity:1;fill-rule:nonzero;stroke:none"
             d="m 0,0 88.336,58.891 c 1.329,0.886 3.109,-0.067 3.109,-1.664 0,-0.669 -0.334,-1.293 -0.89,-1.664 L 2.219,-3.328 C 1.3,-3.94 0.058,-3.692 -0.555,-2.773 -1.167,-1.854 -0.919,-0.612 0,0" /></g><g
           transform="translate(227.1094,151.2266)"
           id="g122"><path
             id="path124"
             style="fill:#333333;fill-opacity:1;fill-rule:nonzero;stroke:none"
             d="m 0,0 -88.336,-58.891 c -0.919,-0.612 -2.161,-0.364 -2.773,0.555 -0.613,0.919 -0.365,2.161 0.554,2.773 L -2.219,3.328 C -0.89,4.214 0.891,3.262 0.891,1.664 0.891,0.996 0.557,0.371 0,0" /></g><g
           transform="translate(227.1094,159.2266)"
           id="g126"><path
             id="path128"
             style="fill:#333333;fill-opacity:1;fill-rule:nonzero;stroke:none"
             d="m 0,0 -88.336,-58.891 c -0.919,-0.612 -2.161,-0.364 -2.773,0.555 -0.613,0.919 -0.365,2.161 0.554,2.773 L -2.219,3.328 C -0.89,4.214 0.891,3.262 0.891,1.664 0.891,0.996 0.557,0.371 0,0" /></g><g
           transform="translate(227.1094,175.2266)"
           id="g130"><path
             id="path132"
             style="fill:#333333;fill-opacity:1;fill-rule:nonzero;stroke:none"
             d="m 0,0 -88.336,-58.891 c -0.919,-0.612 -2.161,-0.364 -2.773,0.555 -0.613,0.919 -0.365,2.161 0.554,2.773 L -2.219,3.328 C -0.89,4.214 0.891,3.262 0.891,1.664 0.891,0.996 0.557,0.371 0,0" /></g><g
           transform="translate(227.1094,167.2266)"
           id="g134"><path
             id="path136"
             style="fill:#333333;fill-opacity:1;fill-rule:nonzero;stroke:none"
             d="m 0,0 -88.336,-58.891 c -0.919,-0.612 -2.161,-0.364 -2.773,0.555 -0.613,0.919 -0.365,2.161 0.554,2.773 L -2.219,3.328 C -0.89,4.214 0.891,3.262 0.891,1.664 0.891,0.996 0.557,0.371 0,0" /></g><g
           transform="translate(136.5547,186.7734)"
           id="g138"><path
             id="path140"
             style="fill:#333333;fill-opacity:1;fill-rule:nonzero;stroke:none"
             d="m 0,0 37.336,24.891 c 0.328,0.219 0.715,0.336 1.109,0.336 1.979,0 2.756,-2.567 1.11,-3.665 L 2.219,-3.328 C 1.3,-3.941 0.058,-3.692 -0.555,-2.773 -1.167,-1.854 -0.919,-0.613 0,0" /></g><g
           transform="translate(188.1094,208.3359)"
           id="g142"><path
             id="path144"
             style="fill:#333333;fill-opacity:1;fill-rule:nonzero;stroke:none"
             d="m 0,0 -49.336,-32.891 c -0.919,-0.612 -2.161,-0.364 -2.773,0.555 -0.613,0.919 -0.365,2.161 0.554,2.774 l 49.336,32.89 c 0.328,0.219 0.715,0.336 1.11,0.336 C 0.869,3.664 1.646,1.098 0,0" /></g><g
           transform="translate(212.1094,208.3359)"
           id="g146"><path
             id="path148"
             style="fill:#333333;fill-opacity:1;fill-rule:nonzero;stroke:none"
             d="m 0,0 -73.336,-48.891 c -0.919,-0.612 -2.161,-0.364 -2.773,0.555 -0.613,0.919 -0.365,2.161 0.554,2.773 L -2.219,3.328 c 0.328,0.219 0.715,0.336 1.11,0.336 C 0.869,3.664 1.646,1.098 0,0" /></g><g
           transform="translate(200.1094,208.3359)"
           id="g150"><path
             id="path152"
             style="fill:#333333;fill-opacity:1;fill-rule:nonzero;stroke:none"
             d="m 0,0 -61.336,-40.891 c -0.919,-0.612 -2.161,-0.364 -2.773,0.555 -0.613,0.919 -0.365,2.161 0.554,2.773 L -2.219,3.328 c 0.328,0.219 0.715,0.336 1.11,0.336 C 0.869,3.664 1.646,1.098 0,0" /></g></g></g></g></svg>