<svg xmlns="http://www.w3.org/2000/svg" xml:space="preserve" viewBox="0 0 256 256"><path d="M248.348 118.725a9 9 0 0 0-.612-1.653c-1.082-8.729-3.812-16.644-8.136-23.586a8 8 0 0 0-.731-1.595c-1.246-2.081-12.576-20.423-26.677-23.642a9.93 9.93 0 0 0-5.079.17c-10.004-3.651-18.063-4.361-18.445-4.392l-.096-.008-52.013-3.715C133.724 60.103 130.844 60 128 60s-5.724.103-8.56.305L67.427 64.02l-.096.008c-.382.032-8.441.742-18.445 4.393a9.9 9.9 0 0 0-5.08-.171c-14.1 3.218-25.431 21.561-26.676 23.641a8 8 0 0 0-.731 1.595c-4.324 6.942-7.054 14.856-8.136 23.586a9 9 0 0 0-.612 1.654c-6.414 24.44-4.372 43.695 6.07 57.23 6.001 7.779 14.588 13.396 25.522 16.697 7.36 2.221 15.58 3.347 24.434 3.347 1.098 0 2.204-.018 3.295-.054q.26.022.528.039a8.2 8.2 0 0 0 1.627-.065c.018-.003.338-.048.925-.127a83 83 0 0 0 1.626-.122 9 9 0 0 0 1.678-.303C82.218 194.273 103.126 192 124 192h8c20.873 0 41.781 2.273 50.644 3.368a9 9 0 0 0 1.677.303c.482.041 1.03.082 1.626.122.587.079.907.124.925.127a8 8 0 0 0 1.627.065q.267-.017.527-.039c1.091.036 2.197.055 3.295.055 8.854 0 17.074-1.126 24.433-3.347 10.934-3.3 19.522-8.918 25.523-16.697 10.443-13.536 12.485-32.791 6.071-57.232" style="opacity:.5;fill:#fff"/><path d="M24 96s10.414-17.399 21.591-19.951c1.392-.318 2.625.951 2.376 2.361C46.997 83.913 42.733 96 24 96m208 0s-10.414-17.399-21.591-19.951c-1.392-.318-2.625.951-2.376 2.361C209.003 83.913 213.267 96 232 96" style="fill:#00b800"/><path d="M240 120c-4-44-52-48-52-48l-52.01-3.715Q132 68 128 68t-7.99.285L68 72s-48 4-52 48c0 0-12 64 52 68 0 0 28-4 56-4h8c28 0 56 4 56 4 64-4 52-68 52-68" style="fill:#f2f2f2"/><path d="M180 88c0-2.209-23.281-4-52-4s-52 1.791-52 4c-2.209 0-4 17.909-4 40s1.791 40 4 40c0 2.209 23.281 4 52 4s52-1.791 52-4c2.209 0 4-17.909 4-40s-1.791-40-4-40" style="fill:#00b800"/><path d="M176 128V92H80v72h96z" style="fill:#b0b0b0"/><path d="M15.396 120.756c.206-.785 1.313-1.021 1.894-.408 2.497 2.632 7.444 8.601 7.444 14.569 0 7.983-4.425 23.95 8.85 31.933 12.431 7.475 28.742 12.01 38.033 19.111.738.564.347 1.658-.615 1.74-13.035 1.109-73.884 2.701-55.606-66.945m225.208 0c-.206-.785-1.313-1.021-1.894-.408-2.497 2.632-7.444 8.601-7.444 14.569 0 7.983 4.425 23.95-8.85 31.933-12.431 7.475-28.742 12.01-38.033 19.111-.738.564-.347 1.658.615 1.74 13.035 1.109 73.884 2.701 55.606-66.945" style="fill:#00b800"/><circle cx="52" cy="96" r="4" style="fill:#e6e6e6"/><circle cx="196" cy="96" r="4" style="fill:#e6e6e6"/><circle cx="208" cy="96" r="4" style="fill:#e6e6e6"/><path d="M58 120a6 6 0 0 1-6-6 6 6 0 1 0-12 0 6 6 0 0 1-6 6 6 6 0 1 0 0 12 6 6 0 0 1 6 6 6 6 0 1 0 12 0 6 6 0 0 1 6-6 6 6 0 1 0 0-12" style="fill:#bfbfbf"/><circle cx="34" cy="126" r="2" style="fill:#b3b3b3"/><circle cx="58" cy="126" r="2" style="fill:#b3b3b3"/><circle cx="46" cy="138" r="2" style="fill:#b3b3b3"/><circle cx="46" cy="114" r="2" style="fill:#b3b3b3"/><circle cx="198" cy="122" r="10" style="fill:#b3b3b3"/><circle cx="220" cy="120" r="8" style="fill:#b3b3b3"/><circle cx="214" cy="150" r="2" style="fill:#333"/><circle cx="206" cy="150" r="2" style="fill:#333"/><circle cx="208" cy="144" r="2" style="fill:#333"/><circle cx="200" cy="150" r="2" style="fill:#333"/><circle cx="212" cy="158" r="2" style="fill:#333"/><circle cx="204" cy="156" r="2" style="fill:#333"/><circle cx="201" cy="145" r="1" style="fill:#333"/><circle cx="203" cy="141" r="1" style="fill:#333"/><circle cx="197" cy="147" r="1" style="fill:#333"/><circle cx="199" cy="161" r="1" style="fill:#333"/><circle cx="217" cy="163" r="1" style="fill:#333"/><circle cx="219" cy="157" r="1" style="fill:#333"/><circle cx="221" cy="149" r="1" style="fill:#333"/><circle cx="217" cy="143" r="1" style="fill:#333"/><circle cx="213" cy="139" r="1" style="fill:#333"/><circle cx="205" cy="163" r="1" style="fill:#333"/><circle cx="211" cy="163" r="1" style="fill:#333"/><circle cx="195" cy="155" r="1" style="fill:#333"/></svg>