<?xml version="1.0" encoding="iso-8859-1"?>
<!-- Generator: Adobe Illustrator 28.0.0, SVG Export Plug-In . SVG Version: 6.00 Build 0)  -->
<svg version="1.1" id="Layer_1" xmlns="http://www.w3.org/2000/svg" xmlns:xlink="http://www.w3.org/1999/xlink" x="0px" y="0px"
	 viewBox="0 0 256 256" style="enable-background:new 0 0 256 256;" xml:space="preserve">
<path style="opacity:0.5;fill:#FFFFFF;" d="M248.348,118.725c-0.151-0.576-0.357-1.129-0.612-1.653
	c-1.082-8.729-3.812-16.644-8.136-23.586c-0.182-0.55-0.426-1.085-0.731-1.595c-1.246-2.081-12.576-20.423-26.677-23.642
	c-0.725-0.166-1.47-0.25-2.213-0.25c-0.991,0-1.954,0.146-2.866,0.42c-10.004-3.651-18.063-4.361-18.445-4.392
	c-0.032-0.003-0.064-0.005-0.096-0.008l-52.013-3.715C133.724,60.103,130.844,60,128,60s-5.724,0.103-8.56,0.305L67.427,64.02
	c-0.032,0.002-0.064,0.005-0.096,0.008c-0.382,0.032-8.441,0.742-18.445,4.393C47.973,68.146,47.01,68,46.02,68
	c-0.742,0-1.487,0.084-2.214,0.25c-14.1,3.218-25.431,21.561-26.676,23.641c-0.305,0.509-0.548,1.044-0.731,1.595
	c-4.324,6.942-7.054,14.856-8.136,23.586c-0.255,0.524-0.46,1.077-0.612,1.654c-6.414,24.44-4.372,43.695,6.07,57.23
	c6.001,7.779,14.588,13.396,25.522,16.697C46.603,194.874,54.823,196,63.677,196c1.098,0,2.204-0.018,3.295-0.054
	c0.174,0.014,0.349,0.028,0.528,0.039c0.165,0.01,0.331,0.015,0.497,0.015c0.378,0,0.756-0.027,1.13-0.08
	c0.018-0.003,0.338-0.048,0.925-0.127c0.597-0.039,1.144-0.081,1.626-0.122c0.572-0.049,1.132-0.15,1.678-0.303
	C82.218,194.273,103.126,192,124,192h8c20.873,0,41.781,2.273,50.644,3.368c0.546,0.153,1.106,0.254,1.677,0.303
	c0.482,0.041,1.03,0.082,1.626,0.122c0.587,0.079,0.907,0.124,0.925,0.127c0.374,0.053,0.752,0.08,1.13,0.08
	c0.166,0,0.331-0.005,0.497-0.015c0.178-0.011,0.353-0.025,0.527-0.039c1.091,0.036,2.197,0.055,3.295,0.055
	c8.854,0,17.074-1.126,24.433-3.347c10.934-3.3,19.522-8.918,25.523-16.697C252.72,162.421,254.762,143.166,248.348,118.725z"/>
<path style="fill:#00B800;" d="M24,96c0,0,10.414-17.399,21.591-19.951c1.392-0.318,2.625,0.951,2.376,2.361
	C46.997,83.913,42.733,96,24,96z"/>
<path style="fill:#00B800;" d="M232,96c0,0-10.414-17.399-21.591-19.951c-1.392-0.318-2.625,0.951-2.376,2.361
	C209.003,83.913,213.267,96,232,96z"/>
<path style="fill:#F2F2F2;" d="M240,120c-4-44-52-48-52-48l-52.01-3.715C133.331,68.095,130.666,68,128,68h0
	c-2.666,0-5.331,0.095-7.99,0.285L68,72c0,0-48,4-52,48c0,0-12,64,52,68c0,0,28-4,56-4h8c28,0,56,4,56,4C252,184,240,120,240,120z"
	/>
<path style="fill:#00B800;" d="M180,88c0-2.209-23.281-4-52-4s-52,1.791-52,4c-2.209,0-4,17.909-4,40c0,22.091,1.791,40,4,40
	c0,2.209,23.281,4,52,4s52-1.791,52-4c2.209,0,4-17.909,4-40C184,105.909,182.209,88,180,88z"/>
<polygon style="fill:#B0B0B0;" points="176,128 176,92 128,92 80,92 80,128 80,164 128,164 176,164 "/>
<path style="fill:#00B800;" d="M15.396,120.756c0.206-0.785,1.313-1.021,1.894-0.408c2.497,2.632,7.444,8.601,7.444,14.569
	c0,7.983-4.425,23.95,8.85,31.933c12.431,7.475,28.742,12.01,38.033,19.111c0.738,0.564,0.347,1.658-0.615,1.74
	C57.967,188.81-2.882,190.402,15.396,120.756z"/>
<path style="fill:#00B800;" d="M240.604,120.756c-0.206-0.785-1.313-1.021-1.894-0.408c-2.497,2.632-7.444,8.601-7.444,14.569
	c0,7.983,4.425,23.95-8.85,31.933c-12.431,7.475-28.742,12.01-38.033,19.111c-0.738,0.564-0.347,1.658,0.615,1.74
	C198.033,188.81,258.882,190.402,240.604,120.756z"/>
<circle style="fill:#E6E6E6;" cx="52" cy="96" r="4"/>
<circle style="fill:#E6E6E6;" cx="196" cy="96" r="4"/>
<circle style="fill:#E6E6E6;" cx="208" cy="96" r="4"/>
<path style="fill:#BFBFBF;" d="M58,120L58,120c-3.314,0-6-2.686-6-6v0c0-3.314-2.686-6-6-6h0c-3.314,0-6,2.686-6,6v0
	c0,3.314-2.686,6-6,6h0c-3.314,0-6,2.686-6,6v0c0,3.314,2.686,6,6,6h0c3.314,0,6,2.686,6,6l0,0c0,3.314,2.686,6,6,6h0
	c3.314,0,6-2.686,6-6l0,0c0-3.314,2.686-6,6-6h0c3.314,0,6-2.686,6-6v0C64,122.686,61.314,120,58,120z"/>
<circle style="fill:#B3B3B3;" cx="34" cy="126" r="2"/>
<circle style="fill:#B3B3B3;" cx="58" cy="126" r="2"/>
<circle style="fill:#B3B3B3;" cx="46" cy="138" r="2"/>
<circle style="fill:#B3B3B3;" cx="46" cy="114" r="2"/>
<circle style="fill:#B3B3B3;" cx="198" cy="122" r="10"/>
<circle style="fill:#B3B3B3;" cx="220" cy="120" r="8"/>
<circle style="fill:#333333;" cx="214" cy="150" r="2"/>
<circle style="fill:#333333;" cx="206" cy="150" r="2"/>
<circle style="fill:#333333;" cx="208" cy="144" r="2"/>
<circle style="fill:#333333;" cx="200" cy="150" r="2"/>
<circle style="fill:#333333;" cx="212" cy="158" r="2"/>
<circle style="fill:#333333;" cx="204" cy="156" r="2"/>
<circle style="fill:#333333;" cx="201" cy="145" r="1"/>
<circle style="fill:#333333;" cx="203" cy="141" r="1"/>
<circle style="fill:#333333;" cx="197" cy="147" r="1"/>
<circle style="fill:#333333;" cx="199" cy="161" r="1"/>
<circle style="fill:#333333;" cx="217" cy="163" r="1"/>
<circle style="fill:#333333;" cx="219" cy="157" r="1"/>
<circle style="fill:#333333;" cx="221" cy="149" r="1"/>
<circle style="fill:#333333;" cx="217" cy="143" r="1"/>
<circle style="fill:#333333;" cx="213" cy="139" r="1"/>
<circle style="fill:#333333;" cx="205" cy="163" r="1"/>
<circle style="fill:#333333;" cx="211" cy="163" r="1"/>
<circle style="fill:#333333;" cx="195" cy="155" r="1"/>
</svg>
