<?xml version="1.0" encoding="UTF-8" standalone="no"?>
<svg
   xmlns:dc="http://purl.org/dc/elements/1.1/"
   xmlns:cc="http://creativecommons.org/ns#"
   xmlns:rdf="http://www.w3.org/1999/02/22-rdf-syntax-ns#"
   xmlns:svg="http://www.w3.org/2000/svg"
   xmlns="http://www.w3.org/2000/svg"
   viewBox="0 0 245.33305 330.66665"
   height="330.66666"
   width="245.33305"
   xml:space="preserve"
   id="svg2"
   version="1.1"><metadata
     id="metadata8"><rdf:RDF><cc:Work
         rdf:about=""><dc:format>image/svg+xml</dc:format><dc:type
           rdf:resource="http://purl.org/dc/dcmitype/StillImage" /></cc:Work></rdf:RDF></metadata><defs
     id="defs6"><clipPath
       id="clipPath18"
       clipPathUnits="userSpaceOnUse"><path
         id="path16"
         d="M 0,256 H 256 V 0 H 0 Z" /></clipPath><clipPath
       id="clipPath26"
       clipPathUnits="userSpaceOnUse"><path
         id="path24"
         d="M 36,252 H 220 V 4 H 36 Z" /></clipPath></defs><g
     transform="matrix(1.3333333,0,0,-1.3333333,-47.999999,335.99999)"
     id="g10"><g
       id="g12"><g
         clip-path="url(#clipPath18)"
         id="g14"><g
           id="g20"><g
             id="g22" /><g
             id="g34"><g
               style="opacity:0.5"
               id="g32"
               clip-path="url(#clipPath26)"><g
                 id="g30"
                 transform="translate(128.0278,252)"><path
                   id="path28"
                   style="fill:#ffffff;fill-opacity:1;fill-rule:nonzero;stroke:none"
                   d="m 0,0 c -0.169,0 -0.338,-0.005 -0.508,-0.016 -0.038,-0.003 -0.076,-0.005 -0.114,-0.008 l -59.89,-3.994 c -0.348,-0.023 -0.695,-0.069 -1.037,-0.137 l -6.122,-1.225 c -11.616,-2.324 -20.547,-11.767 -22.222,-23.497 l -1.998,-13.992 c -0.053,-0.373 -0.08,-0.749 -0.08,-1.125 l -0.057,-74.922 c 0,-0.861 0.023,-1.728 0.068,-2.581 l 3.999,-74.93 c 0.012,-0.235 0.035,-0.47 0.069,-0.704 l 2.364,-16.554 c 1.411,-9.884 8.046,-18.329 17.315,-22.037 l 9.26,-3.706 c 0.565,-0.225 1.154,-0.386 1.756,-0.479 l 51.68,-7.953 c 0.602,-0.093 1.216,-0.14 1.825,-0.14 h 7.385 c 0.609,0 1.224,0.047 1.826,0.14 l 51.624,7.954 c 0.601,0.092 1.19,0.253 1.754,0.478 l 9.261,3.706 c 9.268,3.708 15.903,12.153 17.314,22.037 l 2.364,16.554 c 0.034,0.234 0.057,0.469 0.07,0.704 l 3.998,74.924 c 0.046,0.86 0.068,1.727 0.068,2.581 l -0.056,74.928 c 0,0.376 -0.028,0.752 -0.081,1.125 l -1.998,13.992 C 88.162,-17.147 79.232,-7.704 67.615,-5.38 l -6.122,1.225 c -0.342,0.068 -0.689,0.114 -1.037,0.137 L 0.774,-0.038 C 0.518,-0.013 0.259,0 0,0" /></g></g></g></g><g
           transform="translate(211.9434,208)"
           id="g36"><path
             id="path38"
             style="fill:#d9d9d9;fill-opacity:1;fill-rule:nonzero;stroke:none"
             d="m 0,0 -1.998,13.992 c -1.199,8.394 -7.56,15.12 -15.872,16.783 L -23.992,32 -83.915,35.996 V 36 L -83.943,35.998 -83.972,36 V 35.996 L -143.895,32 l -6.122,-1.225 c -8.313,-1.663 -14.673,-8.388 -15.872,-16.783 L -167.887,0 l -0.056,-74.922 c 0,-0.719 0.019,-1.437 0.056,-2.155 l 3.999,-74.923 2.364,-16.553 c 1.011,-7.082 5.727,-13.085 12.367,-15.741 l 9.261,-3.706 51.68,-7.953 c 0.201,-0.031 0.404,-0.047 0.608,-0.047 h 7.385 c 0.204,0 0.408,0.016 0.609,0.047 l 51.624,7.953 9.261,3.706 c 6.639,2.656 11.355,8.658 12.367,15.74 L -3.999,-152 0,-77.077 c 0.038,0.718 0.057,1.436 0.057,2.155 z" /></g><g
           transform="translate(45.999,221.9917)"
           id="g40"><path
             id="path42"
             style="fill:#00b800;fill-opacity:1;fill-rule:nonzero;stroke:none"
             d="m 0,0 -1.999,-13.992 c 0,0 20,16 24,32 L 15.876,16.783 C 7.562,15.121 1.199,8.395 0,0" /></g><g
           transform="translate(72,20)"
           id="g44"><path
             id="path46"
             style="fill:#00b800;fill-opacity:1;fill-rule:nonzero;stroke:none"
             d="m 0,0 c 0,0 -8,28 -24,36 l 2.365,-16.554 c 1.011,-7.081 5.729,-13.084 12.371,-15.74 z" /></g><g
           transform="translate(209.9443,221.9917)"
           id="g48"><path
             id="path50"
             style="fill:#00b800;fill-opacity:1;fill-rule:nonzero;stroke:none"
             d="m 0,0 1.999,-13.992 c 0,0 -20,16 -24,32 l 6.124,-1.225 C -7.562,15.121 -1.199,8.395 0,0" /></g><g
           transform="translate(183.9434,20)"
           id="g52"><path
             id="path54"
             style="fill:#00b800;fill-opacity:1;fill-rule:nonzero;stroke:none"
             d="M 0,0 C 0,0 8,28 24,36 L 21.635,19.446 C 20.623,12.365 15.906,6.362 9.264,3.706 Z" /></g><g
           transform="translate(195.8437,137.8906)"
           id="g56"><path
             id="path58"
             style="fill:#191919;fill-opacity:1;fill-rule:nonzero;stroke:none"
             d="m 0,0 -3.9,74.109 -2.403,9.61 c -0.995,3.98 -3.955,7.176 -7.846,8.473 l -4.431,1.477 c -0.877,0.292 -1.785,0.483 -2.707,0.566 l -42.014,3.825 c -0.362,0.033 -0.724,0.049 -1.088,0.049 h -6.91 c -0.363,0 -0.725,-0.016 -1.087,-0.049 l -42.071,-3.825 c -0.921,-0.083 -1.83,-0.274 -2.708,-0.566 l -4.429,-1.477 c -3.893,-1.297 -6.852,-4.493 -7.847,-8.473 l -2.403,-9.61 -3.9,-74.109 c -0.067,-1.259 -0.033,-2.521 0.098,-3.774 l 7.044,-66.919 c 0.467,-4.427 3.345,-8.232 7.478,-9.885 l 33.28,-13.313 h 2.117 c 0.996,8.99 8.603,15.985 17.855,15.999 9.251,-0.014 16.859,-7.009 17.854,-15.999 h 2.118 l 33.28,13.313 c 4.133,1.653 7.012,5.458 7.477,9.885 l 7.044,66.919 C 0.033,-2.521 0.066,-1.259 0,0" /></g><path
           id="path60"
           style="fill:#808080;fill-opacity:1;fill-rule:nonzero;stroke:none"
           d="M 172,76 H 84 v 144 h 88 z" /><g
           transform="translate(188,204)"
           id="g62"><path
             id="path64"
             style="fill:#d9d9d9;fill-opacity:1;fill-rule:nonzero;stroke:none"
             d="m 0,0 c 0,-2.209 -1.791,-4 -4,-4 -2.209,0 -4,1.791 -4,4 0,2.209 1.791,4 4,4 2.209,0 4,-1.791 4,-4" /></g><g
           transform="translate(80,202)"
           id="g66"><path
             id="path68"
             style="fill:#00b800;fill-opacity:1;fill-rule:nonzero;stroke:none"
             d="m 0,0 c 0,-3.313 -2.687,-6 -6,-6 -3.313,0 -6,2.687 -6,6 0,3.313 2.687,6 6,6 3.313,0 6,-2.687 6,-6" /></g><g
           transform="translate(188,188)"
           id="g70"><path
             id="path72"
             style="fill:#d9d9d9;fill-opacity:1;fill-rule:nonzero;stroke:none"
             d="m 0,0 c 0,-2.209 -1.791,-4 -4,-4 -2.209,0 -4,1.791 -4,4 0,2.209 1.791,4 4,4 2.209,0 4,-1.791 4,-4" /></g><g
           transform="translate(172,38)"
           id="g74"><path
             id="path76"
             style="fill:#00b800;fill-opacity:1;fill-rule:nonzero;stroke:none"
             d="m 0,0 c 0,-3.313 -2.687,-6 -6,-6 -3.313,0 -6,2.687 -6,6 0,3.313 2.687,6 6,6 3.313,0 6,-2.687 6,-6" /></g><g
           transform="translate(144,40)"
           id="g78"><path
             id="path80"
             style="fill:#cccccc;fill-opacity:1;fill-rule:nonzero;stroke:none"
             d="m 0,0 c 0,-8.837 -7.163,-16 -16,-16 -8.836,0 -16,7.163 -16,16 0,8.837 7.164,16 16,16 C -7.163,16 0,8.837 0,0" /></g><g
           transform="translate(134,40)"
           id="g82"><path
             id="path84"
             style="fill:#d9d9d9;fill-opacity:1;fill-rule:nonzero;stroke:none"
             d="m 0,0 c 0,-3.313 -2.687,-6 -6,-6 -3.313,0 -6,2.687 -6,6 0,3.313 2.687,6 6,6 3.313,0 6,-2.687 6,-6" /></g><g
           transform="translate(130,30)"
           id="g86"><path
             id="path88"
             style="fill:#bfbfbf;fill-opacity:1;fill-rule:nonzero;stroke:none"
             d="m 0,0 c 0,-1.104 -0.896,-2 -2,-2 -1.104,0 -2,0.896 -2,2 0,1.104 0.896,2 2,2 1.104,0 2,-0.896 2,-2" /></g><g
           transform="translate(130,50)"
           id="g90"><path
             id="path92"
             style="fill:#bfbfbf;fill-opacity:1;fill-rule:nonzero;stroke:none"
             d="m 0,0 c 0,-1.104 -0.896,-2 -2,-2 -1.104,0 -2,0.896 -2,2 0,1.104 0.896,2 2,2 1.104,0 2,-0.896 2,-2" /></g><g
           transform="translate(118,38)"
           id="g94"><path
             id="path96"
             style="fill:#bfbfbf;fill-opacity:1;fill-rule:nonzero;stroke:none"
             d="M 0,0 C -1.104,0 -2,0.896 -2,2 -2,3.104 -1.104,4 0,4 1.104,4 2,3.104 2,2 2,0.896 1.104,0 0,0" /></g><g
           transform="translate(138,38)"
           id="g98"><path
             id="path100"
             style="fill:#bfbfbf;fill-opacity:1;fill-rule:nonzero;stroke:none"
             d="M 0,0 C -1.104,0 -2,0.896 -2,2 -2,3.104 -1.104,4 0,4 1.104,4 2,3.104 2,2 2,0.896 1.104,0 0,0" /></g></g></g></g></svg>