<svg xmlns="http://www.w3.org/2000/svg" xml:space="preserve" width="245.333" height="330.667" viewBox="0 0 245.333 330.667"><defs><clipPath id="a" clipPathUnits="userSpaceOnUse"><path d="M0 256h256V0H0Z"/></clipPath><clipPath id="b" clipPathUnits="userSpaceOnUse"><path d="M36 252h184V4H36Z"/></clipPath></defs><g clip-path="url(#a)" transform="matrix(1.33333 0 0 -1.33333 -48 336)"><g clip-path="url(#b)" style="opacity:.5"><path d="M0 0q-.253 0-.508-.016l-.114-.008-59.89-3.994a8 8 0 0 1-1.037-.137l-6.122-1.225c-11.616-2.324-20.547-11.767-22.222-23.497l-1.998-13.992a8 8 0 0 1-.08-1.125l-.057-74.922c0-.861.023-1.728.068-2.581l3.999-74.93q.018-.353.069-.704l2.364-16.554c1.411-9.884 8.046-18.329 17.315-22.037l9.26-3.706a8 8 0 0 1 1.756-.479l51.68-7.953c.602-.093 1.216-.14 1.825-.14h7.385c.609 0 1.224.047 1.826.14l51.624 7.954c.601.092 1.19.253 1.754.478l9.261 3.706c9.268 3.708 15.903 12.153 17.314 22.037l2.364 16.554q.05.351.07.704l3.998 74.924c.046.86.068 1.727.068 2.581l-.056 74.928a8 8 0 0 1-.081 1.125l-1.998 13.992C88.162-17.147 79.232-7.704 67.615-5.38l-6.122 1.225a8 8 0 0 1-1.037.137L.774-.038A8 8 0 0 1 0 0" style="fill:#fff;fill-opacity:1;fill-rule:nonzero;stroke:none" transform="translate(128.028 252)"/></g><path d="m0 0-1.998 13.992A20 20 0 0 1-17.87 30.775L-23.992 32l-59.923 3.996V36l-.028-.002-.029.002v-.004L-143.895 32l-6.122-1.225a20 20 0 0 1-15.872-16.783L-167.887 0l-.056-74.922q0-1.078.056-2.155l3.999-74.923 2.364-16.553a20 20 0 0 1 12.367-15.741l9.261-3.706 51.68-7.953q.302-.047.608-.047h7.385a4 4 0 0 1 .609.047L-27.99-188l9.261 3.706a20 20 0 0 1 12.367 15.74L-3.999-152 0-77.077Q.057-76 .057-74.922z" style="fill:#d9d9d9;fill-opacity:1;fill-rule:nonzero;stroke:none" transform="translate(211.943 208)"/><path d="m0 0-1.999-13.992s20 16 24 32l-6.125-1.225A20 20 0 0 1 0 0" style="fill:#00b800;fill-opacity:1;fill-rule:nonzero;stroke:none" transform="translate(45.999 221.992)"/><path d="M0 0s-8 28-24 36l2.365-16.554A20 20 0 0 1-9.264 3.706z" style="fill:#00b800;fill-opacity:1;fill-rule:nonzero;stroke:none" transform="translate(72 20)"/><path d="m0 0 1.999-13.992s-20 16-24 32l6.124-1.225A20 20 0 0 0 0 0" style="fill:#00b800;fill-opacity:1;fill-rule:nonzero;stroke:none" transform="translate(209.944 221.992)"/><path d="M0 0s8 28 24 36l-2.365-16.554A20 20 0 0 0 9.264 3.706Z" style="fill:#00b800;fill-opacity:1;fill-rule:nonzero;stroke:none" transform="translate(183.943 20)"/><path d="m0 0-3.9 74.109-2.403 9.61a12 12 0 0 1-7.846 8.473l-4.431 1.477c-.877.292-1.785.483-2.707.566l-42.014 3.825q-.543.05-1.088.049h-6.91q-.544 0-1.087-.049l-42.071-3.825a12 12 0 0 1-2.708-.566l-4.429-1.477a12 12 0 0 1-7.847-8.473l-2.403-9.61-3.9-74.109a24 24 0 0 1 .098-3.774l7.044-66.919a12 12 0 0 1 7.478-9.885l33.28-13.313h2.117c.996 8.99 8.603 15.985 17.855 15.999 9.251-.014 16.859-7.009 17.854-15.999h2.118l33.28 13.313a12 12 0 0 1 7.477 9.885L-.099-3.774C.033-2.521.066-1.259 0 0" style="fill:#191919;fill-opacity:1;fill-rule:nonzero;stroke:none" transform="translate(195.844 137.89)"/><path d="M172 76H84v144h88z" style="fill:gray;fill-opacity:1;fill-rule:nonzero;stroke:none"/><path d="M0 0a4 4 0 1 0-8 0 4 4 0 0 0 8 0" style="fill:#d9d9d9;fill-opacity:1;fill-rule:nonzero;stroke:none" transform="translate(188 204)"/><path d="M0 0a6 6 0 0 0-12 0A6 6 0 0 0 0 0" style="fill:#00b800;fill-opacity:1;fill-rule:nonzero;stroke:none" transform="translate(80 202)"/><path d="M0 0a4 4 0 1 0-8 0 4 4 0 0 0 8 0" style="fill:#d9d9d9;fill-opacity:1;fill-rule:nonzero;stroke:none" transform="translate(188 188)"/><path d="M0 0a6 6 0 0 0-12 0A6 6 0 0 0 0 0" style="fill:#00b800;fill-opacity:1;fill-rule:nonzero;stroke:none" transform="translate(172 38)"/><path d="M0 0c0-8.837-7.163-16-16-16S-32-8.837-32 0s7.164 16 16 16S0 8.837 0 0" style="fill:#ccc;fill-opacity:1;fill-rule:nonzero;stroke:none" transform="translate(144 40)"/><path d="M0 0a6 6 0 0 0-12 0A6 6 0 0 0 0 0" style="fill:#d9d9d9;fill-opacity:1;fill-rule:nonzero;stroke:none" transform="translate(134 40)"/><path d="M0 0a2 2 0 1 0-4.001.001A2 2 0 0 0 0 0" style="fill:#bfbfbf;fill-opacity:1;fill-rule:nonzero;stroke:none" transform="translate(130 30)"/><path d="M0 0a2 2 0 1 0-4.001.001A2 2 0 0 0 0 0" style="fill:#bfbfbf;fill-opacity:1;fill-rule:nonzero;stroke:none" transform="translate(130 50)"/><path d="M0 0a2 2 0 1 0 .001 4.001A2 2 0 0 0 0 0" style="fill:#bfbfbf;fill-opacity:1;fill-rule:nonzero;stroke:none" transform="translate(118 38)"/><path d="M0 0a2 2 0 1 0 .001 4.001A2 2 0 0 0 0 0" style="fill:#bfbfbf;fill-opacity:1;fill-rule:nonzero;stroke:none" transform="translate(138 38)"/></g></svg>