<svg xmlns="http://www.w3.org/2000/svg" xml:space="preserve" width="330.667" height="213.333" viewBox="0 0 330.667 213.333"><defs><clipPath id="a" clipPathUnits="userSpaceOnUse"><path d="M0 256h256V0H0Z"/></clipPath><clipPath id="b" clipPathUnits="userSpaceOnUse"><path d="M4 208h248V48H4Z"/></clipPath></defs><g clip-path="url(#a)" transform="matrix(1.33333 0 0 -1.33333 -5.333 277.333)"><g clip-path="url(#b)" style="opacity:.5"><path d="M0 0q-.002.436-.014.868a15 15 0 0 0-.008.373l-.004.317c-.009.713-.018 1.428-.043 2.136-.034.931-.088 1.824-.141 2.688l-.019.329a27 27 0 0 1-.037.642c-.065.929-.153 1.93-.275 3.144l-.01.098q-.014.167-.032.332a100 100 0 0 1-.42 3.414l-.007.046C-6.328 52.406-31.979 80-62 80a49 49 0 0 1-7.167-.539 8 8 0 0 1-.474-.084C-69.993 79.303-105.068 72-124 72c-18.934 0-54.394 7.369-54.75 7.443q-.27.057-.546.095A49 49 0 0 1-186 80c-30.021 0-55.671-27.594-60.991-65.613l-.006-.047a100 100 0 0 1-.421-3.421l-.031-.324-.008-.085a100 100 0 0 1-.277-3.164 30 30 0 0 1-.038-.635l-.015-.279c-.056-.914-.111-1.807-.144-2.746-.025-.7-.034-1.415-.043-2.128l-.004-.31a15 15 0 0 0-.008-.38A36 36 0 0 1-248 0v-.098c0-19.276 5.348-37.876 15.059-52.372 10.015-14.95 23.913-24.533 39.135-26.983a8 8 0 0 1 1.274-.103l.082.001A48 48 0 0 1-186-80c2.223 0 4.478.155 6.704.462q.275.038.546.095c.356.074 35.816 7.443 54.75 7.443 18.951 0 54.007-7.303 54.358-7.377q.237-.05.475-.085A49.5 49.5 0 0 1-62-80c2.092 0 4.256.149 6.45.445l.082-.001q.634 0 1.275.103c15.22 2.45 29.119 12.033 39.134 26.983C-5.348-37.974 0-19.374 0-.098v.049z" style="fill:#fff;fill-opacity:1;fill-rule:nonzero;stroke:none" transform="translate(252 128)"/></g><path d="M0 0c-2.029 0-4.029-.162-6-.453C-6-.453-42-8-62-8s-56.387 7.613-56.387 7.613A41 41 0 0 1-124 0c-29.823 0-54-32.235-54-72s24.177-72 54-72c1.896 0 3.768.133 5.613.387 0 0 36.387 7.613 56.387 7.613s56-7.547 56-7.547A41 41 0 0 1 0-144c29.823 0 54 32.235 54 72S29.823 0 0 0" style="fill:#0f0;fill-opacity:1;fill-rule:nonzero;stroke:none" transform="translate(190 200)"/><path d="M0 0c0 21.177-31.137 29.895-38.464 31.653C-46.882 18.956-52 2.279-52-16c0-36.813 20.726-67.153 47.465-71.457C-8.052-83.855-28-62.943-28-52c0 12 4 16 16 28S0 0 0 0" style="fill:#4b5da7;fill-opacity:1;fill-rule:nonzero;stroke:none" transform="translate(64 143.902)"/><path d="M0 0c0 21.177 31.138 29.895 38.464 31.653C46.882 18.956 52 2.279 52-16c0-36.813-20.726-67.153-47.465-71.457C8.052-83.855 28-62.943 28-52c0 12-4 16-16 28S0 0 0 0" style="fill:#4b5da7;fill-opacity:1;fill-rule:nonzero;stroke:none" transform="translate(192 143.902)"/><path d="M0 0h-88c-6.627 0-12-20.595-12-46s5.373-46 12-46H0c6.627 0 12 20.595 12 46S6.627 0 0 0" style="fill:#00b800;fill-opacity:1;fill-rule:nonzero;stroke:none" transform="translate(172 176)"/><path d="M0 0h-76a2 2 0 0 0-2 2v76a2 2 0 0 0 2 2H0a2 2 0 0 0 2-2V2a2 2 0 0 0-2-2" style="fill:gray;fill-opacity:1;fill-rule:nonzero;stroke:none" transform="translate(166 92)"/><path d="M0 0a4 4 0 1 0-8 0 4 4 0 0 0 8 0" style="fill:#b3b3b3;fill-opacity:1;fill-rule:nonzero;stroke:none" transform="translate(44 180)"/><path d="M0 0a4 4 0 1 0-8 0 4 4 0 0 0 8 0" style="fill:#b3b3b3;fill-opacity:1;fill-rule:nonzero;stroke:none" transform="translate(56 176)"/><path d="M0 0a4 4 0 1 0-8 0 4 4 0 0 0 8 0" style="fill:#b3b3b3;fill-opacity:1;fill-rule:nonzero;stroke:none" transform="translate(68 168)"/><path d="M0 0c0-6.627-5.373-12-12-12S-24-6.627-24 0s5.373 12 12 12S0 6.627 0 0" style="fill:#354f9f;fill-opacity:1;fill-rule:nonzero;stroke:none" transform="translate(52 144)"/><path d="M0 0h-8v8h-8V0h-8v-8h8v-8h8v8h8z" style="fill:#b3b3b3;fill-opacity:1;fill-rule:nonzero;stroke:none" transform="translate(52 148)"/><path d="M0 0a4 4 0 1 0-8 0 4 4 0 0 0 8 0" style="fill:#a6a6a6;fill-opacity:1;fill-rule:nonzero;stroke:none" transform="translate(44 144)"/><path d="M0 0c0-6.627-5.373-12-12-12S-24-6.627-24 0s5.373 12 12 12S0 6.627 0 0" style="fill:#b3b3b3;fill-opacity:1;fill-rule:nonzero;stroke:none" transform="translate(220 144)"/><path d="M0 0a6 6 0 0 0-12 0A6 6 0 0 0 0 0" style="fill:#b3b3b3;fill-opacity:1;fill-rule:nonzero;stroke:none" transform="translate(232 158)"/><path d="M0 0c-3.977 0-7.498-1.951-9.681-4.939a1.01 1.01 0 0 1 .244-1.437.987.987 0 0 1 1.346.236A9.97 9.97 0 0 0 0-2a9.97 9.97 0 0 0 8.091-4.14.986.986 0 0 1 1.346-.235c.478.318.584.971.244 1.436C7.498-1.951 3.977 0 0 0" style="fill:#00b800;fill-opacity:1;fill-rule:nonzero;stroke:none" transform="translate(200 107)"/><path d="M0 0c.439-.293 1.043-.199 1.349.232 2.534 3.581 6.697 5.924 11.417 5.924S21.648 3.813 24.183.232c.305-.431.909-.525 1.348-.232l.001.001c.458.305.596.932.279 1.38-2.9 4.092-7.66 6.775-13.045 6.775C7.38 8.156 2.62 5.473-.279 1.381-.597.933-.459.306-.001.001Z" style="fill:#00b800;fill-opacity:1;fill-rule:nonzero;stroke:none" transform="translate(187.234 102.844)"/><path d="M0 0c.442-.295 1.023-.178 1.347.243a5.99 5.99 0 0 0 4.762 2.351A5.99 5.99 0 0 0 10.872.243c.323-.421.904-.538 1.347-.243l.006.004c.474.316.59.973.245 1.427a7.98 7.98 0 0 1-6.361 3.163 7.98 7.98 0 0 1-6.36-3.163A.996.996 0 0 1-.006.004Z" style="fill:#00b800;fill-opacity:1;fill-rule:nonzero;stroke:none" transform="translate(193.89 98.406)"/><path d="M0 0c3.977 0 7.498 1.951 9.681 4.939.34.465.234 1.118-.244 1.437a.987.987 0 0 1-1.346-.236A9.97 9.97 0 0 0 0 2a9.97 9.97 0 0 0-8.091 4.14.986.986 0 0 1-1.346.235 1.007 1.007 0 0 1-.244-1.436C-7.498 1.951-3.977 0 0 0" style="fill:#00b800;fill-opacity:1;fill-rule:nonzero;stroke:none" transform="translate(200 81)"/><path d="M0 0c-.439.293-1.043.199-1.349-.232-2.534-3.581-6.697-5.924-11.417-5.924s-8.882 2.343-11.417 5.924c-.305.431-.909.525-1.348.232l-.001-.001c-.458-.305-.596-.932-.279-1.38 2.9-4.092 7.66-6.775 13.045-6.775C-7.38-8.156-2.62-5.473.279-1.381c.318.448.18 1.075-.278 1.38z" style="fill:#00b800;fill-opacity:1;fill-rule:nonzero;stroke:none" transform="translate(212.766 85.156)"/><path d="M0 0c-.442.295-1.023.178-1.347-.243a5.99 5.99 0 0 0-4.762-2.351 5.99 5.99 0 0 0-4.763 2.351c-.323.421-.904.538-1.347.243l-.006-.004a.997.997 0 0 1-.245-1.427 7.98 7.98 0 0 1 6.361-3.163 7.98 7.98 0 0 1 6.36 3.163.996.996 0 0 1-.245 1.427z" style="fill:#00b800;fill-opacity:1;fill-rule:nonzero;stroke:none" transform="translate(206.11 89.594)"/></g></svg>