<svg xmlns="http://www.w3.org/2000/svg" xml:space="preserve" width="330.755" height="160" viewBox="0 0 330.755 160"><defs><clipPath id="a" clipPathUnits="userSpaceOnUse"><path d="M0 256h256V0H0Z"/></clipPath><clipPath id="b" clipPathUnits="userSpaceOnUse"><path d="M3.966 188h248.068V68H3.966Z"/></clipPath></defs><g clip-path="url(#a)" transform="matrix(1.33333 0 0 -1.33333 -5.289 250.667)"><g clip-path="url(#b)" style="opacity:.5"><path d="M0 0h-37.724a8 8 0 0 1-2.494-.399l-10.101-3.315h-103.068l-10.102 3.315a8 8 0 0 1-2.494.399h-37.724a8 8 0 0 1-7.133-4.378c-20.063-39.507-20.063-71.737 0-111.244a8 8 0 0 1 7.133-4.378h37.724c.847 0 1.689.135 2.494.398l10.102 3.316h103.068l10.101-3.316a8 8 0 0 1 2.494-.398H0a8 8 0 0 1 7.133 4.378c20.062 39.507 20.062 71.737 0 111.244A8 8 0 0 1 0 0" style="fill:#fff;fill-opacity:1;fill-rule:nonzero;stroke:none" transform="translate(229.853 188)"/></g><path d="M0 0h37.724l11.317-3.714h105.626L165.983 0h37.724c18.862-37.143 18.862-66.857 0-104h-37.724l-11.316 3.714H49.041L37.724-104H0C-18.862-66.857-18.862-37.143 0 0" style="fill:#404040;fill-opacity:1;fill-rule:nonzero;stroke:none" transform="translate(26.146 180)"/><path d="M0 0h105.414c15.059-33.231 15.059-62.77 0-96H0C-15.059-62.77-15.053-33.231 0 0" style="fill:#262626;fill-opacity:1;fill-rule:nonzero;stroke:none" transform="translate(75.292 176)"/><path d="M0 0h-82a1 1 0 0 0-1 1v58a1 1 0 0 0 1 1H0a1 1 0 0 0 1-1V1a1 1 0 0 0-1-1" style="fill:#404040;fill-opacity:1;fill-rule:nonzero;stroke:none" transform="translate(169 98)"/><path d="M94 150h68v-44H94Z" style="fill:#888;fill-opacity:1;fill-rule:nonzero;stroke:none"/><path d="M0 0h-7v7a1.75 1.75 0 0 1-1.75 1.75h-7A1.75 1.75 0 0 1-17.5 7V0h-7a1.75 1.75 0 0 1-1.75-1.75v-7c0-.967.784-1.75 1.75-1.75h7v-7c0-.967.784-1.75 1.75-1.75h7c.966 0 1.75.783 1.75 1.75v7h7c.966 0 1.75.783 1.75 1.75v7A1.75 1.75 0 0 1 0 0" style="fill:#262626;fill-opacity:1;fill-rule:nonzero;stroke:none" transform="translate(50.25 133.25)"/><path d="M0 0a.943.943 0 1 0-1.885 0A.943.943 0 0 0 0 0" style="fill:#69bc45;fill-opacity:1;fill-rule:nonzero;stroke:none" transform="translate(81.886 167.057)"/><path d="m0 0 9.919-2.658a1.71 1.71 0 0 0 1.21-2.096l-2.657-9.919a1.71 1.71 0 0 0-2.097-1.21l-9.918 2.657a1.714 1.714 0 0 0-1.211 2.097l2.658 9.918A1.71 1.71 0 0 0 0 0" style="fill:#262626;fill-opacity:1;fill-rule:nonzero;stroke:none" transform="translate(193.918 101.325)"/><path d="m0 0 9.918-2.658a1.71 1.71 0 0 0 1.211-2.096l-2.658-9.919a1.71 1.71 0 0 0-2.096-1.21l-9.919 2.658a1.71 1.71 0 0 0-1.21 2.096l2.657 9.919A1.714 1.714 0 0 0 0 0" style="fill:#262626;fill-opacity:1;fill-rule:nonzero;stroke:none" transform="translate(215.781 95.467)"/><path d="m0 0 9.919 2.658a1.71 1.71 0 0 0 2.096-1.21l2.658-9.919a1.713 1.713 0 0 0-1.21-2.096l-9.919-2.658a1.71 1.71 0 0 0-2.096 1.21L-1.21-2.096A1.71 1.71 0 0 0 0 0" style="fill:#262626;fill-opacity:1;fill-rule:nonzero;stroke:none" transform="translate(190.372 167.9)"/><path d="m0 0 9.919 2.658a1.713 1.713 0 0 0 2.096-1.211l2.657-9.918a1.71 1.71 0 0 0-1.21-2.096l-9.918-2.658a1.71 1.71 0 0 0-2.097 1.21L-1.21-2.096A1.71 1.71 0 0 0 0 0" style="fill:#262626;fill-opacity:1;fill-rule:nonzero;stroke:none" transform="translate(212.235 173.758)"/><path d="M0 0v10.396c0 .445.338.807.773.807h2.454c.427 0 .773-.362.773-.807V0a.786.786 0 0 0-.773-.797H.773A.78.78 0 0 0 0 0" style="fill:#404040;fill-opacity:1;fill-rule:nonzero;stroke:none" transform="translate(72 122.938)"/><path d="M0 0a.784.784 0 0 0-.776-.797h-2.452A.786.786 0 0 0-4 0v10.396c0 .445.346.807.772.807h2.452c.434 0 .776-.362.776-.807Z" style="fill:#404040;fill-opacity:1;fill-rule:nonzero;stroke:none" transform="translate(184 122.938)"/><path d="M0 0a.784.784 0 0 0-.776-.798h-2.452A.786.786 0 0 0-4 0v10.396c0 .444.346.806.772.806h2.452c.434 0 .776-.362.776-.806Z" style="fill:#404040;fill-opacity:1;fill-rule:nonzero;stroke:none" transform="translate(180 136.798)"/><path d="M0 0a.784.784 0 0 0-.776-.798h-2.452A.786.786 0 0 0-4 0v10.396c0 .445.346.806.772.806h2.452c.434 0 .776-.361.776-.806Z" style="fill:#404040;fill-opacity:1;fill-rule:nonzero;stroke:none" transform="translate(180 108.798)"/><path d="M0 0a.784.784 0 0 0-.776-.798h-2.452A.786.786 0 0 0-4 0v10.396c0 .444.346.806.772.806h2.452c.434 0 .776-.362.776-.806Z" style="fill:#404040;fill-opacity:1;fill-rule:nonzero;stroke:none" transform="translate(80 136.798)"/><path d="M0 0a.784.784 0 0 0-.776-.798h-2.452A.786.786 0 0 0-4 0v10.396c0 .445.346.806.772.806h2.452c.434 0 .776-.361.776-.806Z" style="fill:#404040;fill-opacity:1;fill-rule:nonzero;stroke:none" transform="translate(80 108.798)"/><path d="M0 0c-3.313 0-6 2.688-6 6s2.687 6 6 6c3.312 0 6-2.688 6-6S3.312 0 0 0" style="fill:#404040;fill-opacity:1;fill-rule:nonzero;stroke:none" transform="translate(197.103 156.616)"/><path d="M0 0c-3.313 0-6 2.688-6 6s2.687 6 6 6c3.312 0 6-2.688 6-6S3.312 0 0 0" style="fill:#404040;fill-opacity:1;fill-rule:nonzero;stroke:none" transform="translate(197.103 87.384)"/><path d="M0 0c-3.313 0-6 2.688-6 6s2.687 6 6 6c3.312 0 6-2.688 6-6S3.312 0 0 0" style="fill:#404040;fill-opacity:1;fill-rule:nonzero;stroke:none" transform="translate(218.967 81.525)"/><path d="M0 0c-3.313 0-6 2.688-6 6s2.687 6 6 6c3.312 0 6-2.688 6-6S3.312 0 0 0" style="fill:#404040;fill-opacity:1;fill-rule:nonzero;stroke:none" transform="translate(218.967 162.475)"/><path d="m0 0 3.758-.836c6.001 20.278 6.004 39.628.002 59.906l-3.759-.835C5.678 38.539 5.675 19.696 0 0" style="fill:#262626;fill-opacity:1;fill-rule:nonzero;stroke:none" transform="translate(215.03 98.883)"/><path d="m0 0 3.784-.841c5.357 19.116 5.355 37.448-.005 56.563l-3.765-.837C5.063 36.353 5.047 18.533 0 0" style="fill:#262626;fill-opacity:1;fill-rule:nonzero;stroke:none" transform="translate(207.484 100.559)"/><path d="m0 0 3.777-.84c4.749 17.953 4.775 35.256.025 53.209l-3.789-.843C4.471 34.154 4.454 17.373 0 0" style="fill:#262626;fill-opacity:1;fill-rule:nonzero;stroke:none" transform="translate(199.929 102.238)"/><path d="m0 0 3.804-.846C7.976 15.949 7.975 32.207 3.8 49.001l-3.789-.842C3.911 31.944 3.897 16.215 0 0" style="fill:#262626;fill-opacity:1;fill-rule:nonzero;stroke:none" transform="translate(192.352 103.922)"/><path d="m0 0-3.805.845c-4.172-16.795-4.171-33.052.004-49.846l3.789.842C-3.912-31.945-3.898-16.214 0 0" style="fill:#262626;fill-opacity:1;fill-rule:nonzero;stroke:none" transform="translate(62.937 152.079)"/><path d="M0 0h-16a4 4 0 0 1 0-8H0a4 4 0 0 1 0 8" style="fill:#333;fill-opacity:1;fill-rule:nonzero;stroke:none" transform="translate(46 132)"/><path d="M0 0v16a4 4 0 0 1-8 0V0a4 4 0 0 1 8 0" style="fill:#333;fill-opacity:1;fill-rule:nonzero;stroke:none" transform="translate(42 120)"/></g></svg>