<?xml version="1.0" encoding="UTF-8" standalone="no"?>
<svg
   xmlns:dc="http://purl.org/dc/elements/1.1/"
   xmlns:cc="http://creativecommons.org/ns#"
   xmlns:rdf="http://www.w3.org/1999/02/22-rdf-syntax-ns#"
   xmlns:svg="http://www.w3.org/2000/svg"
   xmlns="http://www.w3.org/2000/svg"
   viewBox="0 0 330.7554 160"
   height="160"
   width="330.7554"
   xml:space="preserve"
   id="svg2"
   version="1.1"><metadata
     id="metadata8"><rdf:RDF><cc:Work
         rdf:about=""><dc:format>image/svg+xml</dc:format><dc:type
           rdf:resource="http://purl.org/dc/dcmitype/StillImage" /></cc:Work></rdf:RDF></metadata><defs
     id="defs6"><clipPath
       id="clipPath18"
       clipPathUnits="userSpaceOnUse"><path
         id="path16"
         d="M 0,256 H 256 V 0 H 0 Z" /></clipPath><clipPath
       id="clipPath26"
       clipPathUnits="userSpaceOnUse"><path
         id="path24"
         d="M 3.96645,188 H 252.034 V 68 H 3.96645 Z" /></clipPath></defs><g
     transform="matrix(1.3333333,0,0,-1.3333333,-5.2885999,250.66666)"
     id="g10"><g
       id="g12"><g
         clip-path="url(#clipPath18)"
         id="g14"><g
           id="g20"><g
             id="g22" /><g
             id="g34"><g
               style="opacity:0.5"
               id="g32"
               clip-path="url(#clipPath26)"><g
                 id="g30"
                 transform="translate(229.8535,188)"><path
                   id="path28"
                   style="fill:#ffffff;fill-opacity:1;fill-rule:nonzero;stroke:none"
                   d="m 0,0 h -37.724 c -0.847,0 -1.689,-0.135 -2.494,-0.399 l -10.101,-3.315 h -103.068 l -10.102,3.315 C -164.294,-0.135 -165.136,0 -165.983,0 h -37.724 c -3.012,0 -5.769,-1.692 -7.133,-4.378 -20.063,-39.507 -20.063,-71.737 0,-111.244 1.364,-2.686 4.121,-4.378 7.133,-4.378 h 37.724 c 0.847,0 1.689,0.135 2.494,0.398 l 10.102,3.316 h 103.068 l 10.101,-3.316 c 0.805,-0.263 1.647,-0.398 2.494,-0.398 H 0 c 3.013,0 5.77,1.692 7.133,4.378 20.062,39.507 20.062,71.737 0,111.244 C 5.77,-1.692 3.013,0 0,0" /></g></g></g></g><g
           transform="translate(26.1465,180)"
           id="g36"><path
             id="path38"
             style="fill:#404040;fill-opacity:1;fill-rule:nonzero;stroke:none"
             d="M 0,0 H 37.724 L 49.041,-3.714 H 154.667 L 165.983,0 h 37.724 c 18.862,-37.143 18.862,-66.857 0,-104 h -37.724 l -11.316,3.714 H 49.041 L 37.724,-104 H 0 c -18.862,37.143 -18.862,66.857 0,104" /></g><g
           transform="translate(75.292,176)"
           id="g40"><path
             id="path42"
             style="fill:#262626;fill-opacity:1;fill-rule:nonzero;stroke:none"
             d="m 0,0 h 105.414 c 15.059,-33.231 15.059,-62.77 0,-96 H 0 c -15.059,33.23 -15.053,62.769 0,96" /></g><g
           transform="translate(169,98)"
           id="g44"><path
             id="path46"
             style="fill:#404040;fill-opacity:1;fill-rule:nonzero;stroke:none"
             d="m 0,0 h -82 c -0.552,0 -1,0.447 -1,1 v 58 c 0,0.552 0.448,1 1,1 H 0 c 0.553,0 1,-0.448 1,-1 V 1 C 1,0.447 0.553,0 0,0" /></g><path
           id="path48"
           style="fill:#888888;fill-opacity:1;fill-rule:nonzero;stroke:none"
           d="m 94,150 h 68 V 106 H 94 Z" /><g
           transform="translate(50.25,133.25)"
           id="g50"><path
             id="path52"
             style="fill:#262626;fill-opacity:1;fill-rule:nonzero;stroke:none"
             d="m 0,0 h -7 v 7 c 0,0.966 -0.784,1.75 -1.75,1.75 h -7 C -16.716,8.75 -17.5,7.966 -17.5,7 V 0 h -7 c -0.966,0 -1.75,-0.784 -1.75,-1.75 v -7 c 0,-0.967 0.784,-1.75 1.75,-1.75 h 7 v -7 c 0,-0.967 0.784,-1.75 1.75,-1.75 h 7 c 0.966,0 1.75,0.783 1.75,1.75 v 7 h 7 c 0.966,0 1.75,0.783 1.75,1.75 v 7 C 1.75,-0.784 0.966,0 0,0" /></g><g
           transform="translate(81.8862,167.0571)"
           id="g54"><path
             id="path56"
             style="fill:#69bc45;fill-opacity:1;fill-rule:nonzero;stroke:none"
             d="m 0,0 c 0,-0.521 -0.422,-0.943 -0.943,-0.943 -0.521,0 -0.943,0.422 -0.943,0.943 0,0.521 0.422,0.943 0.943,0.943 C -0.422,0.943 0,0.521 0,0" /></g><g
           transform="translate(193.918,101.3252)"
           id="g58"><path
             id="path60"
             style="fill:#262626;fill-opacity:1;fill-rule:nonzero;stroke:none"
             d="m 0,0 9.919,-2.658 c 0.913,-0.244 1.455,-1.183 1.21,-2.096 l -2.657,-9.919 c -0.245,-0.913 -1.184,-1.455 -2.097,-1.21 l -9.918,2.657 c -0.913,0.246 -1.455,1.184 -1.211,2.097 l 2.658,9.918 C -1.852,-0.298 -0.913,0.244 0,0" /></g><g
           transform="translate(215.7812,95.4668)"
           id="g62"><path
             id="path64"
             style="fill:#262626;fill-opacity:1;fill-rule:nonzero;stroke:none"
             d="m 0,0 9.918,-2.658 c 0.913,-0.244 1.455,-1.183 1.211,-2.096 l -2.658,-9.919 c -0.244,-0.913 -1.183,-1.454 -2.096,-1.21 l -9.919,2.658 c -0.913,0.245 -1.455,1.183 -1.21,2.096 l 2.657,9.919 C -1.852,-0.298 -0.913,0.244 0,0" /></g><g
           transform="translate(190.3721,167.8999)"
           id="g66"><path
             id="path68"
             style="fill:#262626;fill-opacity:1;fill-rule:nonzero;stroke:none"
             d="m 0,0 9.919,2.658 c 0.913,0.244 1.852,-0.298 2.096,-1.21 l 2.658,-9.919 c 0.244,-0.913 -0.298,-1.851 -1.21,-2.096 l -9.919,-2.658 c -0.913,-0.244 -1.852,0.297 -2.096,1.21 L -1.21,-2.096 C -1.454,-1.183 -0.913,-0.245 0,0" /></g><g
           transform="translate(212.2354,173.7583)"
           id="g70"><path
             id="path72"
             style="fill:#262626;fill-opacity:1;fill-rule:nonzero;stroke:none"
             d="M 0,0 9.919,2.658 C 10.831,2.902 11.77,2.36 12.015,1.447 l 2.657,-9.918 c 0.245,-0.913 -0.297,-1.852 -1.21,-2.096 l -9.918,-2.658 c -0.913,-0.245 -1.852,0.297 -2.097,1.21 L -1.21,-2.096 C -1.455,-1.183 -0.913,-0.245 0,0" /></g><g
           transform="translate(72,122.9375)"
           id="g74"><path
             id="path76"
             style="fill:#404040;fill-opacity:1;fill-rule:nonzero;stroke:none"
             d="m 0,0 v 10.396 c 0,0.445 0.338,0.807 0.773,0.807 H 3.227 C 3.654,11.203 4,10.841 4,10.396 V 0 C 4,-0.439 3.654,-0.797 3.227,-0.797 H 0.773 C 0.338,-0.797 0,-0.439 0,0" /></g><g
           transform="translate(184,122.9375)"
           id="g78"><path
             id="path80"
             style="fill:#404040;fill-opacity:1;fill-rule:nonzero;stroke:none"
             d="M 0,0 C 0,-0.439 -0.342,-0.797 -0.776,-0.797 H -3.228 C -3.654,-0.797 -4,-0.439 -4,0 v 10.396 c 0,0.445 0.346,0.807 0.772,0.807 h 2.452 C -0.342,11.203 0,10.841 0,10.396 Z" /></g><g
           transform="translate(180,136.7979)"
           id="g82"><path
             id="path84"
             style="fill:#404040;fill-opacity:1;fill-rule:nonzero;stroke:none"
             d="M 0,0 C 0,-0.44 -0.342,-0.798 -0.776,-0.798 H -3.228 C -3.654,-0.798 -4,-0.44 -4,0 v 10.396 c 0,0.444 0.346,0.806 0.772,0.806 h 2.452 C -0.342,11.202 0,10.84 0,10.396 Z" /></g><g
           transform="translate(180,108.7979)"
           id="g86"><path
             id="path88"
             style="fill:#404040;fill-opacity:1;fill-rule:nonzero;stroke:none"
             d="M 0,0 C 0,-0.44 -0.342,-0.798 -0.776,-0.798 H -3.228 C -3.654,-0.798 -4,-0.44 -4,0 v 10.396 c 0,0.445 0.346,0.806 0.772,0.806 h 2.452 C -0.342,11.202 0,10.841 0,10.396 Z" /></g><g
           transform="translate(80,136.7979)"
           id="g90"><path
             id="path92"
             style="fill:#404040;fill-opacity:1;fill-rule:nonzero;stroke:none"
             d="M 0,0 C 0,-0.44 -0.342,-0.798 -0.776,-0.798 H -3.228 C -3.654,-0.798 -4,-0.44 -4,0 v 10.396 c 0,0.444 0.346,0.806 0.772,0.806 h 2.452 C -0.342,11.202 0,10.84 0,10.396 Z" /></g><g
           transform="translate(80,108.7979)"
           id="g94"><path
             id="path96"
             style="fill:#404040;fill-opacity:1;fill-rule:nonzero;stroke:none"
             d="M 0,0 C 0,-0.44 -0.342,-0.798 -0.776,-0.798 H -3.228 C -3.654,-0.798 -4,-0.44 -4,0 v 10.396 c 0,0.445 0.346,0.806 0.772,0.806 h 2.452 C -0.342,11.202 0,10.841 0,10.396 Z" /></g><g
           transform="translate(197.1035,156.6162)"
           id="g98"><path
             id="path100"
             style="fill:#404040;fill-opacity:1;fill-rule:nonzero;stroke:none"
             d="m 0,0 c -3.313,0 -6,2.688 -6,6 0,3.312 2.687,6 6,6 C 3.312,12 6,9.312 6,6 6,2.688 3.312,0 0,0" /></g><g
           transform="translate(197.1035,87.3838)"
           id="g102"><path
             id="path104"
             style="fill:#404040;fill-opacity:1;fill-rule:nonzero;stroke:none"
             d="m 0,0 c -3.313,0 -6,2.688 -6,6 0,3.312 2.687,6 6,6 C 3.312,12 6,9.312 6,6 6,2.688 3.312,0 0,0" /></g><g
           transform="translate(218.9668,81.5254)"
           id="g106"><path
             id="path108"
             style="fill:#404040;fill-opacity:1;fill-rule:nonzero;stroke:none"
             d="m 0,0 c -3.313,0 -6,2.688 -6,6 0,3.312 2.687,6 6,6 C 3.312,12 6,9.312 6,6 6,2.688 3.312,0 0,0" /></g><g
           transform="translate(218.9668,162.4746)"
           id="g110"><path
             id="path112"
             style="fill:#404040;fill-opacity:1;fill-rule:nonzero;stroke:none"
             d="m 0,0 c -3.313,0 -6,2.688 -6,6 0,3.312 2.687,6 6,6 C 3.312,12 6,9.312 6,6 6,2.688 3.312,0 0,0" /></g><g
           transform="translate(215.0293,98.8828)"
           id="g114"><path
             id="path116"
             style="fill:#262626;fill-opacity:1;fill-rule:nonzero;stroke:none"
             d="M 0,0 3.758,-0.836 C 9.759,19.442 9.762,38.792 3.76,59.07 L 0.001,58.235 C 5.678,38.539 5.675,19.696 0,0" /></g><g
           transform="translate(207.4844,100.5586)"
           id="g118"><path
             id="path120"
             style="fill:#262626;fill-opacity:1;fill-rule:nonzero;stroke:none"
             d="M 0,0 3.784,-0.841 C 9.141,18.275 9.139,36.607 3.779,55.722 L 0.014,54.885 C 5.063,36.353 5.047,18.533 0,0" /></g><g
           transform="translate(199.9287,102.2383)"
           id="g122"><path
             id="path124"
             style="fill:#262626;fill-opacity:1;fill-rule:nonzero;stroke:none"
             d="M 0,0 3.777,-0.84 C 8.526,17.113 8.552,34.416 3.802,52.369 L 0.013,51.526 C 4.471,34.154 4.454,17.373 0,0" /></g><g
           transform="translate(192.3525,103.9219)"
           id="g126"><path
             id="path128"
             style="fill:#262626;fill-opacity:1;fill-rule:nonzero;stroke:none"
             d="M 0,0 3.804,-0.846 C 7.976,15.949 7.975,32.207 3.8,49.001 L 0.011,48.159 C 3.911,31.944 3.897,16.215 0,0" /></g><g
           transform="translate(62.937,152.0786)"
           id="g130"><path
             id="path132"
             style="fill:#262626;fill-opacity:1;fill-rule:nonzero;stroke:none"
             d="m 0,0 -3.805,0.845 c -4.172,-16.795 -4.171,-33.052 0.004,-49.846 l 3.789,0.842 C -3.912,-31.945 -3.898,-16.214 0,0" /></g><g
           transform="translate(46,132)"
           id="g134"><path
             id="path136"
             style="fill:#333333;fill-opacity:1;fill-rule:nonzero;stroke:none"
             d="m 0,0 h -16 c -2.209,0 -4,-1.791 -4,-4 0,-2.209 1.791,-4 4,-4 H 0 c 2.209,0 4,1.791 4,4 0,2.209 -1.791,4 -4,4" /></g><g
           transform="translate(42,120)"
           id="g138"><path
             id="path140"
             style="fill:#333333;fill-opacity:1;fill-rule:nonzero;stroke:none"
             d="m 0,0 v 16 c 0,2.209 -1.791,4 -4,4 -2.209,0 -4,-1.791 -4,-4 V 0 c 0,-2.209 1.791,-4 4,-4 2.209,0 4,1.791 4,4" /></g></g></g></g></svg>