<svg xmlns="http://www.w3.org/2000/svg" xml:space="preserve" viewBox="0 0 256 256"><path d="M231.995 119.704 228.066 13.63c-.2-5.4-4.59-9.63-9.993-9.63H162a9.99 9.99 0 0 0-7.995 4h-52.009a9.99 9.99 0 0 0-7.995-4H37.927a9.967 9.967 0 0 0-9.993 9.63l-3.929 106.074-.005.148v8.302l.006.154 3.926 102.077a9.97 9.97 0 0 0 6.879 9.126l.928 1.856A11.93 11.93 0 0 0 46.472 248h163.056c4.575 0 8.687-2.542 10.733-6.633l.928-1.856a9.97 9.97 0 0 0 6.879-9.126l3.926-102.077.006-.154v-8.302zm-19.92 119.38" style="opacity:.5;fill:#fff"/><path d="M218.073 12H162a2 2 0 0 0-2 2v2H96v-2a2 2 0 0 0-2-2H37.927a2 2 0 0 0-1.999 1.926L32 120h192l-3.929-106.074A2 2 0 0 0 218.073 12" style="fill:#d9d4bc"/><path d="M96 16h64v28H96z" style="fill:#c4c0aa"/><path d="M96 44h64v20H96z" style="fill:#a6a390"/><path d="M214 108h-44a2 2 0 0 1-2-2V22a2 2 0 0 1 2-2h44a2 2 0 0 1 2 2v84a2 2 0 0 1-2 2" style="fill:#c4c0aa"/><path d="M211 24h-38a1 1 0 0 1 0-2h38a1 1 0 0 1 0 2m0 4h-38a1 1 0 0 1 0-2h38a1 1 0 0 1 0 2m0 4h-38a1 1 0 0 1 0-2h38a1 1 0 0 1 0 2m0 4h-38a1 1 0 0 1 0-2h38a1 1 0 0 1 0 2m0 4h-38a1 1 0 0 1 0-2h38a1 1 0 0 1 0 2m0 4h-38a1 1 0 0 1 0-2h38a1 1 0 0 1 0 2m0 4h-38a1 1 0 0 1 0-2h38a1 1 0 0 1 0 2m0 4h-38a1 1 0 0 1 0-2h38a1 1 0 0 1 0 2m0 4h-38a1 1 0 0 1 0-2h38a1 1 0 0 1 0 2m0 4h-38a1 1 0 0 1 0-2h38a1 1 0 0 1 0 2m0 4h-38a1 1 0 0 1 0-2h38a1 1 0 0 1 0 2m0 4h-38a1 1 0 0 1 0-2h38a1 1 0 0 1 0 2m0 4h-38a1 1 0 0 1 0-2h38a1 1 0 0 1 0 2m0 4h-38a1 1 0 0 1 0-2h38a1 1 0 0 1 0 2m0 4h-38a1 1 0 0 1 0-2h38a1 1 0 0 1 0 2m0 4h-38a1 1 0 0 1 0-2h38a1 1 0 0 1 0 2m0 4h-38a1 1 0 0 1 0-2h38a1 1 0 0 1 0 2m0 4h-38a1 1 0 0 1 0-2h38a1 1 0 0 1 0 2m0 4h-38a1 1 0 0 1 0-2h38a1 1 0 0 1 0 2m0 4h-38a1 1 0 0 1 0-2h38a1 1 0 0 1 0 2m0 4h-38a1 1 0 0 1 0-2h38a1 1 0 0 1 0 2" style="fill:#a6a390"/><path d="M86 108H42a2 2 0 0 1-2-2V22a2 2 0 0 1 2-2h44a2 2 0 0 1 2 2v84a2 2 0 0 1-2 2" style="fill:#c4c0aa"/><path d="M83 24H45a1 1 0 0 1 0-2h38a1 1 0 0 1 0 2m0 4H45a1 1 0 0 1 0-2h38a1 1 0 0 1 0 2m0 4H45a1 1 0 0 1 0-2h38a1 1 0 0 1 0 2m0 4H45a1 1 0 0 1 0-2h38a1 1 0 0 1 0 2m0 4H45a1 1 0 0 1 0-2h38a1 1 0 0 1 0 2m0 4H45a1 1 0 0 1 0-2h38a1 1 0 0 1 0 2m0 4H45a1 1 0 0 1 0-2h38a1 1 0 0 1 0 2m0 4H45a1 1 0 0 1 0-2h38a1 1 0 0 1 0 2m0 4H45a1 1 0 0 1 0-2h38a1 1 0 0 1 0 2m0 4H45a1 1 0 0 1 0-2h38a1 1 0 0 1 0 2m0 4H45a1 1 0 0 1 0-2h38a1 1 0 0 1 0 2m0 4H45a1 1 0 0 1 0-2h38a1 1 0 0 1 0 2m0 4H45a1 1 0 0 1 0-2h38a1 1 0 0 1 0 2m0 4H45a1 1 0 0 1 0-2h38a1 1 0 0 1 0 2m0 4H45a1 1 0 0 1 0-2h38a1 1 0 0 1 0 2m0 4H45a1 1 0 0 1 0-2h38a1 1 0 0 1 0 2m0 4H45a1 1 0 0 1 0-2h38a1 1 0 0 1 0 2m0 4H45a1 1 0 0 1 0-2h38a1 1 0 0 1 0 2m0 4H45a1 1 0 0 1 0-2h38a1 1 0 0 1 0 2m0 4H45a1 1 0 0 1 0-2h38a1 1 0 0 1 0 2m0 4H45a1 1 0 0 1 0-2h38a1 1 0 0 1 0 2" style="fill:#a6a390"/><path d="M32 120h192v8H32z" style="fill:#d9d4bc"/><path d="M32 128h192l-3.926 102.077a2 2 0 0 1-1.999 1.923H37.925a2 2 0 0 1-1.999-1.923z" style="fill:#c4c0aa"/><path d="M216 232H40l-4-96h184z" style="fill:#d9d4bc"/><path d="M200.276 200H55.724a4 4 0 0 1-3.99-3.715L48 144h160l-3.735 52.285a4 4 0 0 1-3.989 3.715" style="fill:#c4c0aa"/><path d="M192.563 188.202 132 192h-8l-60.563-3.798a4 4 0 0 1-3.749-3.631L56 144h144l-3.688 40.571a4 4 0 0 1-3.749 3.631" style="fill:#4d4d4d"/><path d="M209.528 240H46.472c-1.515 0-2.9-.856-3.578-2.211L40 232h176l-2.894 5.789a4 4 0 0 1-3.578 2.211" style="fill:#a6a390"/><path d="M176 212v4h-48v4h76v-8z" style="fill:#c4c0aa"/><path d="M180 212h20v4h-20z" style="fill:#a6a390"/><path d="M60 224h12v8H60z" style="fill:#c4c0aa"/></svg>