<?xml version="1.0" encoding="iso-8859-1"?>
<!-- Generator: Adobe Illustrator 27.8.1, SVG Export Plug-In . SVG Version: 6.00 Build 0)  -->
<svg version="1.1" id="Layer_1" xmlns="http://www.w3.org/2000/svg" xmlns:xlink="http://www.w3.org/1999/xlink" x="0px" y="0px"
	 viewBox="0 0 256 256" style="enable-background:new 0 0 256 256;" xml:space="preserve">
<path style="opacity:0.5;fill:#FFFFFF;" d="M231.995,119.704L228.066,13.63c-0.2-5.4-4.59-9.63-9.993-9.63H162
	c-3.265,0-6.169,1.572-7.995,4h-52.009c-1.826-2.428-4.73-4-7.995-4H37.927c-5.403,0-9.793,4.23-9.993,9.63l-3.929,106.074
	L24,119.852V120v8v0.154l0.006,0.154l3.926,102.077c0.166,4.305,2.997,7.866,6.879,9.126l0.928,1.856
	c2.046,4.092,6.159,6.633,10.733,6.633h163.056c4.575,0,8.687-2.542,10.733-6.633l0.928-1.856c3.881-1.26,6.713-4.821,6.879-9.126
	l3.926-102.077l0.006-0.154V128v-8v-0.148L231.995,119.704z M212.075,239.084c0.282-0.233,0.533-0.505,0.744-0.811
	C212.608,238.579,212.357,238.851,212.075,239.084z"/>
<path style="fill:#D9D4BC;" d="M218.073,12H162c-1.105,0-2,0.895-2,2v2H96v-2c0-1.105-0.895-2-2-2H37.927
	c-1.076,0-1.959,0.851-1.999,1.926L32,120h192l-3.929-106.074C220.032,12.851,219.148,12,218.073,12z"/>
<rect x="96" y="16" style="fill:#C4C0AA;" width="64" height="28"/>
<rect x="96" y="44" style="fill:#A6A390;" width="64" height="20"/>
<path style="fill:#C4C0AA;" d="M214,108h-44c-1.105,0-2-0.895-2-2V22c0-1.105,0.895-2,2-2h44c1.105,0,2,0.895,2,2v84
	C216,107.105,215.105,108,214,108z"/>
<path style="fill:#A6A390;" d="M211,24h-38c-0.552,0-1-0.448-1-1v0c0-0.552,0.448-1,1-1h38c0.552,0,1,0.448,1,1v0
	C212,23.552,211.552,24,211,24z"/>
<path style="fill:#A6A390;" d="M211,28h-38c-0.552,0-1-0.448-1-1v0c0-0.552,0.448-1,1-1h38c0.552,0,1,0.448,1,1v0
	C212,27.552,211.552,28,211,28z"/>
<path style="fill:#A6A390;" d="M211,32h-38c-0.552,0-1-0.448-1-1v0c0-0.552,0.448-1,1-1h38c0.552,0,1,0.448,1,1v0
	C212,31.552,211.552,32,211,32z"/>
<path style="fill:#A6A390;" d="M211,36h-38c-0.552,0-1-0.448-1-1l0,0c0-0.552,0.448-1,1-1h38c0.552,0,1,0.448,1,1l0,0
	C212,35.552,211.552,36,211,36z"/>
<path style="fill:#A6A390;" d="M211,40h-38c-0.552,0-1-0.448-1-1l0,0c0-0.552,0.448-1,1-1h38c0.552,0,1,0.448,1,1l0,0
	C212,39.552,211.552,40,211,40z"/>
<path style="fill:#A6A390;" d="M211,44h-38c-0.552,0-1-0.448-1-1l0,0c0-0.552,0.448-1,1-1h38c0.552,0,1,0.448,1,1l0,0
	C212,43.552,211.552,44,211,44z"/>
<path style="fill:#A6A390;" d="M211,48h-38c-0.552,0-1-0.448-1-1l0,0c0-0.552,0.448-1,1-1h38c0.552,0,1,0.448,1,1l0,0
	C212,47.552,211.552,48,211,48z"/>
<path style="fill:#A6A390;" d="M211,52h-38c-0.552,0-1-0.448-1-1l0,0c0-0.552,0.448-1,1-1h38c0.552,0,1,0.448,1,1l0,0
	C212,51.552,211.552,52,211,52z"/>
<path style="fill:#A6A390;" d="M211,56h-38c-0.552,0-1-0.448-1-1l0,0c0-0.552,0.448-1,1-1h38c0.552,0,1,0.448,1,1l0,0
	C212,55.552,211.552,56,211,56z"/>
<path style="fill:#A6A390;" d="M211,60h-38c-0.552,0-1-0.448-1-1l0,0c0-0.552,0.448-1,1-1h38c0.552,0,1,0.448,1,1l0,0
	C212,59.552,211.552,60,211,60z"/>
<path style="fill:#A6A390;" d="M211,64h-38c-0.552,0-1-0.448-1-1l0,0c0-0.552,0.448-1,1-1h38c0.552,0,1,0.448,1,1l0,0
	C212,63.552,211.552,64,211,64z"/>
<path style="fill:#A6A390;" d="M211,68h-38c-0.552,0-1-0.448-1-1l0,0c0-0.552,0.448-1,1-1h38c0.552,0,1,0.448,1,1l0,0
	C212,67.552,211.552,68,211,68z"/>
<path style="fill:#A6A390;" d="M211,72h-38c-0.552,0-1-0.448-1-1l0,0c0-0.552,0.448-1,1-1h38c0.552,0,1,0.448,1,1l0,0
	C212,71.552,211.552,72,211,72z"/>
<path style="fill:#A6A390;" d="M211,76h-38c-0.552,0-1-0.448-1-1l0,0c0-0.552,0.448-1,1-1h38c0.552,0,1,0.448,1,1l0,0
	C212,75.552,211.552,76,211,76z"/>
<path style="fill:#A6A390;" d="M211,80h-38c-0.552,0-1-0.448-1-1l0,0c0-0.552,0.448-1,1-1h38c0.552,0,1,0.448,1,1l0,0
	C212,79.552,211.552,80,211,80z"/>
<path style="fill:#A6A390;" d="M211,84h-38c-0.552,0-1-0.448-1-1l0,0c0-0.552,0.448-1,1-1h38c0.552,0,1,0.448,1,1l0,0
	C212,83.552,211.552,84,211,84z"/>
<path style="fill:#A6A390;" d="M211,88h-38c-0.552,0-1-0.448-1-1l0,0c0-0.552,0.448-1,1-1h38c0.552,0,1,0.448,1,1l0,0
	C212,87.552,211.552,88,211,88z"/>
<path style="fill:#A6A390;" d="M211,92h-38c-0.552,0-1-0.448-1-1l0,0c0-0.552,0.448-1,1-1h38c0.552,0,1,0.448,1,1l0,0
	C212,91.552,211.552,92,211,92z"/>
<path style="fill:#A6A390;" d="M211,96h-38c-0.552,0-1-0.448-1-1l0,0c0-0.552,0.448-1,1-1h38c0.552,0,1,0.448,1,1l0,0
	C212,95.552,211.552,96,211,96z"/>
<path style="fill:#A6A390;" d="M211,100h-38c-0.552,0-1-0.448-1-1l0,0c0-0.552,0.448-1,1-1h38c0.552,0,1,0.448,1,1l0,0
	C212,99.552,211.552,100,211,100z"/>
<path style="fill:#A6A390;" d="M211,104h-38c-0.552,0-1-0.448-1-1l0,0c0-0.552,0.448-1,1-1h38c0.552,0,1,0.448,1,1l0,0
	C212,103.552,211.552,104,211,104z"/>
<path style="fill:#C4C0AA;" d="M86,108H42c-1.105,0-2-0.895-2-2V22c0-1.105,0.895-2,2-2h44c1.105,0,2,0.895,2,2v84
	C88,107.105,87.105,108,86,108z"/>
<path style="fill:#A6A390;" d="M83,24H45c-0.552,0-1-0.448-1-1v0c0-0.552,0.448-1,1-1h38c0.552,0,1,0.448,1,1v0
	C84,23.552,83.552,24,83,24z"/>
<path style="fill:#A6A390;" d="M83,28H45c-0.552,0-1-0.448-1-1v0c0-0.552,0.448-1,1-1h38c0.552,0,1,0.448,1,1v0
	C84,27.552,83.552,28,83,28z"/>
<path style="fill:#A6A390;" d="M83,32H45c-0.552,0-1-0.448-1-1v0c0-0.552,0.448-1,1-1h38c0.552,0,1,0.448,1,1v0
	C84,31.552,83.552,32,83,32z"/>
<path style="fill:#A6A390;" d="M83,36H45c-0.552,0-1-0.448-1-1l0,0c0-0.552,0.448-1,1-1h38c0.552,0,1,0.448,1,1l0,0
	C84,35.552,83.552,36,83,36z"/>
<path style="fill:#A6A390;" d="M83,40H45c-0.552,0-1-0.448-1-1l0,0c0-0.552,0.448-1,1-1h38c0.552,0,1,0.448,1,1l0,0
	C84,39.552,83.552,40,83,40z"/>
<path style="fill:#A6A390;" d="M83,44H45c-0.552,0-1-0.448-1-1l0,0c0-0.552,0.448-1,1-1h38c0.552,0,1,0.448,1,1l0,0
	C84,43.552,83.552,44,83,44z"/>
<path style="fill:#A6A390;" d="M83,48H45c-0.552,0-1-0.448-1-1l0,0c0-0.552,0.448-1,1-1h38c0.552,0,1,0.448,1,1l0,0
	C84,47.552,83.552,48,83,48z"/>
<path style="fill:#A6A390;" d="M83,52H45c-0.552,0-1-0.448-1-1l0,0c0-0.552,0.448-1,1-1h38c0.552,0,1,0.448,1,1l0,0
	C84,51.552,83.552,52,83,52z"/>
<path style="fill:#A6A390;" d="M83,56H45c-0.552,0-1-0.448-1-1l0,0c0-0.552,0.448-1,1-1h38c0.552,0,1,0.448,1,1l0,0
	C84,55.552,83.552,56,83,56z"/>
<path style="fill:#A6A390;" d="M83,60H45c-0.552,0-1-0.448-1-1l0,0c0-0.552,0.448-1,1-1h38c0.552,0,1,0.448,1,1l0,0
	C84,59.552,83.552,60,83,60z"/>
<path style="fill:#A6A390;" d="M83,64H45c-0.552,0-1-0.448-1-1l0,0c0-0.552,0.448-1,1-1h38c0.552,0,1,0.448,1,1l0,0
	C84,63.552,83.552,64,83,64z"/>
<path style="fill:#A6A390;" d="M83,68H45c-0.552,0-1-0.448-1-1l0,0c0-0.552,0.448-1,1-1h38c0.552,0,1,0.448,1,1l0,0
	C84,67.552,83.552,68,83,68z"/>
<path style="fill:#A6A390;" d="M83,72H45c-0.552,0-1-0.448-1-1l0,0c0-0.552,0.448-1,1-1h38c0.552,0,1,0.448,1,1l0,0
	C84,71.552,83.552,72,83,72z"/>
<path style="fill:#A6A390;" d="M83,76H45c-0.552,0-1-0.448-1-1l0,0c0-0.552,0.448-1,1-1h38c0.552,0,1,0.448,1,1l0,0
	C84,75.552,83.552,76,83,76z"/>
<path style="fill:#A6A390;" d="M83,80H45c-0.552,0-1-0.448-1-1l0,0c0-0.552,0.448-1,1-1h38c0.552,0,1,0.448,1,1l0,0
	C84,79.552,83.552,80,83,80z"/>
<path style="fill:#A6A390;" d="M83,84H45c-0.552,0-1-0.448-1-1l0,0c0-0.552,0.448-1,1-1h38c0.552,0,1,0.448,1,1l0,0
	C84,83.552,83.552,84,83,84z"/>
<path style="fill:#A6A390;" d="M83,88H45c-0.552,0-1-0.448-1-1l0,0c0-0.552,0.448-1,1-1h38c0.552,0,1,0.448,1,1l0,0
	C84,87.552,83.552,88,83,88z"/>
<path style="fill:#A6A390;" d="M83,92H45c-0.552,0-1-0.448-1-1l0,0c0-0.552,0.448-1,1-1h38c0.552,0,1,0.448,1,1l0,0
	C84,91.552,83.552,92,83,92z"/>
<path style="fill:#A6A390;" d="M83,96H45c-0.552,0-1-0.448-1-1l0,0c0-0.552,0.448-1,1-1h38c0.552,0,1,0.448,1,1l0,0
	C84,95.552,83.552,96,83,96z"/>
<path style="fill:#A6A390;" d="M83,100H45c-0.552,0-1-0.448-1-1l0,0c0-0.552,0.448-1,1-1h38c0.552,0,1,0.448,1,1l0,0
	C84,99.552,83.552,100,83,100z"/>
<path style="fill:#A6A390;" d="M83,104H45c-0.552,0-1-0.448-1-1l0,0c0-0.552,0.448-1,1-1h38c0.552,0,1,0.448,1,1l0,0
	C84,103.552,83.552,104,83,104z"/>
<rect x="32" y="120" style="fill:#D9D4BC;" width="192" height="8"/>
<path style="fill:#C4C0AA;" d="M32,128h192l-3.926,102.077c-0.041,1.074-0.924,1.923-1.999,1.923H37.925
	c-1.075,0-1.957-0.849-1.999-1.923L32,128z"/>
<polygon style="fill:#D9D4BC;" points="216,232 40,232 36,136 220,136 "/>
<path style="fill:#C4C0AA;" d="M200.276,200H55.724c-2.099,0-3.84-1.622-3.99-3.715L48,144h160l-3.735,52.285
	C204.116,198.378,202.374,200,200.276,200z"/>
<path style="fill:#4D4D4D;" d="M192.563,188.202L132,192h-4h-4l-60.563-3.798c-1.976-0.116-3.569-1.66-3.749-3.631L56,144h144
	l-3.688,40.571C196.133,186.542,194.539,188.086,192.563,188.202z"/>
<path style="fill:#A6A390;" d="M209.528,240H46.472c-1.515,0-2.9-0.856-3.578-2.211L40,232h176l-2.894,5.789
	C212.428,239.144,211.043,240,209.528,240z"/>
<polygon style="fill:#C4C0AA;" points="176,212 176,216 128,216 128,220 176,220 204,220 204,216 204,212 "/>
<rect x="180" y="212" style="fill:#A6A390;" width="20" height="4"/>
<rect x="60" y="224" style="fill:#C4C0AA;" width="12" height="8"/>
</svg>
