<?xml version="1.0" encoding="iso-8859-1"?>
<!-- Generator: Adobe Illustrator 27.8.1, SVG Export Plug-In . SVG Version: 6.00 Build 0)  -->
<svg version="1.1" id="Layer_1" xmlns="http://www.w3.org/2000/svg" xmlns:xlink="http://www.w3.org/1999/xlink" x="0px" y="0px"
	 viewBox="0 0 256 256" style="enable-background:new 0 0 256 256;" xml:space="preserve">
<path style="opacity:0.5;fill:#FFFFFF;" d="M183.732,4H72.268C56.681,4,44,16.681,44,32.268V48v2v20.934
	c0,3.793,0.489,7.568,1.455,11.218c0.646,2.444,1.524,6.136,2.281,10.625C45.314,98.199,44,104.904,44,112
	c0,6.391,1.088,12.553,3.094,17.69c-0.26,0.981-0.541,1.941-0.843,2.872C44.757,137.174,44,141.844,44,146.44V216
	c0,19.85,16.15,36,36,36h96c19.85,0,36-16.15,36-36v-69.56c0-4.597-0.757-9.266-2.251-13.878c-0.302-0.931-0.583-1.891-0.843-2.872
	C210.912,124.553,212,118.391,212,112c0-7.096-1.314-13.801-3.735-19.222c0.757-4.489,1.634-8.181,2.281-10.625
	c0.965-3.651,1.455-7.425,1.455-11.219V50v-2V32.268C212,16.681,199.319,4,183.732,4z"/>
<ellipse style="fill:#4D4D4D;" cx="64" cy="112" rx="12" ry="24"/>
<ellipse style="fill:#4D4D4D;" cx="192" cy="112" rx="12" ry="24"/>
<path style="fill:#E6E6E6;" d="M204,32.268C204,21.074,194.926,12,183.732,12H72.268C61.074,12,52,21.074,52,32.268v38.666
	c0,3.098,0.397,6.178,1.189,9.173c2.505,9.475,7.553,33.677,0.673,54.92C52.667,138.719,52,142.56,52,146.441V216
	c0,15.464,12.536,28,28,28h96c15.464,0,28-12.536,28-28v-69.559c0-3.88-0.667-7.722-1.862-11.413
	c-6.88-21.243-1.832-45.445,0.673-54.92c0.792-2.995,1.189-6.075,1.189-9.173V32.268z"/>
<path style="fill:#4D4D4D;" d="M164,128H92c-11.046,0-20-8.954-20-20V44c0-4.418,3.582-8,8-8h96c4.418,0,8,3.582,8,8v64
	C184,119.046,175.046,128,164,128z"/>
<rect x="92" y="48" style="fill:#485915;" width="72" height="68"/>
<path style="fill:#D9D9D9;" d="M188,154c0-5.523-4.477-10-10-10c-0.671,0-1.327,0.069-1.961,0.195L176,144l-32,4l0.039,0.195
	C139.456,149.107,136,153.149,136,158c0,5.523,4.477,10,10,10c0.671,0,1.327-0.069,1.961-0.195L148,168l32-4l-0.039-0.195
	C184.544,162.893,188,158.851,188,154z"/>
<circle style="fill:#2C8BBF;" cx="146" cy="158" r="10"/>
<circle style="fill:#2C8BBF;" cx="178" cy="154" r="10"/>
<circle style="fill:#29678F;" cx="94" cy="166" r="18"/>
<g>
	<path style="fill:#2C8BBF;" d="M94,158L94,158c-2.209,0-4-1.791-4-4v-8c0-2.209,1.791-4,4-4h0c2.209,0,4,1.791,4,4v8
		C98,156.209,96.209,158,94,158z"/>
	<path style="fill:#2C8BBF;" d="M94,190L94,190c-2.209,0-4-1.791-4-4v-8c0-2.209,1.791-4,4-4h0c2.209,0,4,1.791,4,4v8
		C98,188.209,96.209,190,94,190z"/>
	<path style="fill:#2C8BBF;" d="M102,166L102,166c0-2.209,1.791-4,4-4h8c2.209,0,4,1.791,4,4l0,0c0,2.209-1.791,4-4,4h-8
		C103.791,170,102,168.209,102,166z"/>
	<path style="fill:#2C8BBF;" d="M70,166L70,166c0-2.209,1.791-4,4-4h8c2.209,0,4,1.791,4,4l0,0c0,2.209-1.791,4-4,4h-8
		C71.791,170,70,168.209,70,166z"/>
</g>
<path style="fill:#2C8BBF;" d="M156,192h-20c-2.2,0-4-1.8-4-4l0,0c0-2.2,1.8-4,4-4h20c2.2,0,4,1.8,4,4l0,0
	C160,190.2,158.2,192,156,192z"/>
<path style="fill:#2C8BBF;" d="M188.6,188.486l-20.08,2.869c-2.386,0.341-4.52-1.51-4.52-3.92v0c0-1.971,1.449-3.641,3.4-3.92
	l20.08-2.869c2.386-0.341,4.52,1.51,4.52,3.92v0C192,186.536,190.551,188.207,188.6,188.486z"/>
<path style="fill:#D9D9D9;" d="M141.789,232L141.789,232c-2.66,0-4.389-2.799-3.2-5.178l8.422-16.845
	c0.606-1.212,1.845-1.978,3.2-1.978h0c2.66,0,4.389,2.799,3.2,5.178l-8.422,16.845C144.383,231.234,143.144,232,141.789,232z"/>
<path style="fill:#D9D9D9;" d="M155.582,232L155.582,232c-2.66,0-4.389-2.799-3.2-5.178l8.422-16.845
	c0.606-1.212,1.845-1.978,3.2-1.978l0,0c2.66,0,4.389,2.799,3.2,5.178l-8.422,16.845C158.176,231.234,156.937,232,155.582,232z"/>
<path style="fill:#D9D9D9;" d="M169.376,232L169.376,232c-2.66,0-4.389-2.799-3.2-5.178l8.422-16.845
	c0.606-1.212,1.845-1.978,3.2-1.978l0,0c2.66,0,4.389,2.799,3.2,5.178l-8.422,16.845C171.97,231.234,170.731,232,169.376,232z"/>
<circle style="fill:#D9D9D9;" cx="136" cy="212" r="4"/>
<path style="fill:#D9D9D9;" d="M63,50H52v-2h11c0.552,0,1,0.448,1,1l0,0C64,49.552,63.552,50,63,50z"/>
<path style="fill:#D9D9D9;" d="M204,50h-11c-0.552,0-1-0.448-1-1l0,0c0-0.552,0.448-1,1-1h11V50z"/>
<g>
	<path style="fill:#D9D9D9;" d="M192,103L192,103c0,0.552,0.448,1,1,1h5.901c0.044-0.673,0.093-1.34,0.147-2H193
		C192.448,102,192,102.448,192,103z"/>
	<path style="fill:#D9D9D9;" d="M63,102h-6.048c0.054,0.66,0.103,1.327,0.147,2H63c0.552,0,1-0.448,1-1l0,0
		C64,102.448,63.552,102,63,102z"/>
</g>
<path style="fill:#D9D9D9;" d="M179,24H85c-0.552,0-1-0.448-1-1v0c0-0.552,0.448-1,1-1h94c0.552,0,1,0.448,1,1v0
	C180,23.552,179.552,24,179,24z"/>
</svg>
