<svg xmlns="http://www.w3.org/2000/svg" xml:space="preserve" viewBox="0 0 256 256"><path d="M183.732 4H72.268C56.681 4 44 16.681 44 32.268v38.666c0 3.793.489 7.568 1.455 11.218a120 120 0 0 1 2.281 10.625C45.314 98.199 44 104.904 44 112c0 6.391 1.088 12.553 3.094 17.69a55 55 0 0 1-.843 2.872C44.757 137.174 44 141.844 44 146.44V216c0 19.85 16.15 36 36 36h96c19.85 0 36-16.15 36-36v-69.56c0-4.597-.757-9.266-2.251-13.878a55 55 0 0 1-.843-2.872C210.912 124.553 212 118.391 212 112c0-7.096-1.314-13.801-3.735-19.222a120 120 0 0 1 2.281-10.625 44 44 0 0 0 1.455-11.219V32.268C212 16.681 199.319 4 183.732 4" style="opacity:.5;fill:#fff"/><ellipse cx="64" cy="112" rx="12" ry="24" style="fill:#4d4d4d"/><ellipse cx="192" cy="112" rx="12" ry="24" style="fill:#4d4d4d"/><path d="M204 32.268C204 21.074 194.926 12 183.732 12H72.268C61.074 12 52 21.074 52 32.268v38.666c0 3.098.397 6.178 1.189 9.173 2.505 9.475 7.553 33.677.673 54.92C52.667 138.719 52 142.56 52 146.441V216c0 15.464 12.536 28 28 28h96c15.464 0 28-12.536 28-28v-69.559c0-3.88-.667-7.722-1.862-11.413-6.88-21.243-1.832-45.445.673-54.92A36 36 0 0 0 204 70.935z" style="fill:#e6e6e6"/><path d="M164 128H92c-11.046 0-20-8.954-20-20V44a8 8 0 0 1 8-8h96a8 8 0 0 1 8 8v64c0 11.046-8.954 20-20 20" style="fill:#4d4d4d"/><path d="M92 48h72v68H92z" style="fill:#485915"/><path d="M188 154c0-5.523-4.477-10-10-10-.671 0-1.327.069-1.961.195L176 144l-32 4 .039.195c-4.583.912-8.039 4.954-8.039 9.805 0 5.523 4.477 10 10 10 .671 0 1.327-.069 1.961-.195L148 168l32-4-.039-.195c4.583-.912 8.039-4.954 8.039-9.805" style="fill:#d9d9d9"/><circle cx="146" cy="158" r="10" style="fill:#2c8bbf"/><circle cx="178" cy="154" r="10" style="fill:#2c8bbf"/><circle cx="94" cy="166" r="18" style="fill:#29678f"/><path d="M94 158a4 4 0 0 1-4-4v-8a4 4 0 0 1 8 0v8a4 4 0 0 1-4 4m0 32a4 4 0 0 1-4-4v-8a4 4 0 0 1 8 0v8a4 4 0 0 1-4 4m8-24a4 4 0 0 1 4-4h8a4 4 0 0 1 0 8h-8a4 4 0 0 1-4-4m-32 0a4 4 0 0 1 4-4h8a4 4 0 0 1 0 8h-8a4 4 0 0 1-4-4m86 26h-20c-2.2 0-4-1.8-4-4s1.8-4 4-4h20c2.2 0 4 1.8 4 4s-1.8 4-4 4m32.6-3.514-20.08 2.869a3.96 3.96 0 1 1-1.12-7.84l20.08-2.869a3.96 3.96 0 0 1 1.12 7.84" style="fill:#2c8bbf"/><path d="M141.789 232c-2.66 0-4.389-2.799-3.2-5.178l8.422-16.845a3.58 3.58 0 0 1 3.2-1.978c2.66 0 4.389 2.799 3.2 5.178l-8.422 16.845a3.58 3.58 0 0 1-3.2 1.978m13.793 0c-2.66 0-4.389-2.799-3.2-5.178l8.422-16.845a3.58 3.58 0 0 1 3.2-1.978c2.66 0 4.389 2.799 3.2 5.178l-8.422 16.845a3.58 3.58 0 0 1-3.2 1.978m13.794 0c-2.66 0-4.389-2.799-3.2-5.178l8.422-16.845a3.58 3.58 0 0 1 3.2-1.978c2.66 0 4.389 2.799 3.2 5.178l-8.422 16.845a3.58 3.58 0 0 1-3.2 1.978" style="fill:#d9d9d9"/><circle cx="136" cy="212" r="4" style="fill:#d9d9d9"/><path d="M63 50H52v-2h11a1 1 0 0 1 0 2m141 0h-11a1 1 0 0 1 0-2h11zm-12 53a1 1 0 0 0 1 1h5.901q.066-1.01.147-2H193a1 1 0 0 0-1 1m-129-1h-6.048q.081.99.147 2H63a1 1 0 0 0 0-2m116-78H85a1 1 0 0 1 0-2h94a1 1 0 0 1 0 2" style="fill:#d9d9d9"/></svg>