<svg xmlns="http://www.w3.org/2000/svg" xml:space="preserve" width="128" height="320" viewBox="0 0 128 320"><defs><clipPath id="a" clipPathUnits="userSpaceOnUse"><path d="M0 256h256V0H0Z"/></clipPath><clipPath id="b" clipPathUnits="userSpaceOnUse"><path d="M80 248h96V8H80Z"/></clipPath></defs><g clip-path="url(#a)" transform="matrix(1.33333 0 0 -1.33333 -106.667 330.667)"><g clip-path="url(#b)" style="opacity:.5"><path d="M0 0v164.343h-88V0a6.01 6.01 0 0 1-4-5.657v-8a6.01 6.01 0 0 1 4-5.657v-50.343c0-3.309 2.691-6 6-6h76c3.309 0 6 2.691 6 6v50.343a6.01 6.01 0 0 1 4 5.657v8A6.01 6.01 0 0 1 0 0" style="fill:#fff;fill-opacity:1;fill-rule:nonzero;stroke:none" transform="translate(172 83.657)"/></g><path d="M0 0h-4a2 2 0 0 0-2 2v8a2 2 0 0 0 2 2h4a2 2 0 0 0 2-2V2a2 2 0 0 0-2-2" style="fill:#a3834a;fill-opacity:1;fill-rule:nonzero;stroke:none" transform="translate(90 68)"/><path d="M0 0h-4a2 2 0 0 0-2 2v8a2 2 0 0 0 2 2h4a2 2 0 0 0 2-2V2a2 2 0 0 0-2-2" style="fill:#a3834a;fill-opacity:1;fill-rule:nonzero;stroke:none" transform="translate(170 68)"/><path d="M168 52H88v172h80z" style="fill:#bf9a57;fill-opacity:1;fill-rule:nonzero;stroke:none"/><path d="M0 0h-56v128.136A3.864 3.864 0 0 0-52.136 132h48.272A3.864 3.864 0 0 0 0 128.136Z" style="fill:#d9af63;fill-opacity:1;fill-rule:nonzero;stroke:none" transform="translate(156 52)"/><path d="M0 0h-40.314a3.843 3.843 0 0 0-3.843 3.843v48.314A3.843 3.843 0 0 0-40.314 56H0a3.844 3.844 0 0 0 3.843-3.843V3.843A3.844 3.844 0 0 0 0 0" style="fill:#bf9a57;fill-opacity:1;fill-rule:nonzero;stroke:none" transform="translate(148.157 124)"/><path d="M168 224H88v20h80z" style="fill:#333;fill-opacity:1;fill-rule:nonzero;stroke:none"/><path d="M0 0h-76a2 2 0 0 0-2 2v38H2V2a2 2 0 0 0-2-2" style="fill:#333;fill-opacity:1;fill-rule:nonzero;stroke:none" transform="translate(166 12)"/><path d="M0 0h-44a6 6 0 0 0-6 6v30H6V6a6 6 0 0 0-6-6" style="fill:#404040;fill-opacity:1;fill-rule:nonzero;stroke:none" transform="translate(150 16)"/><path d="M0 0c-6.627 0-12-5.373-12-12s5.373-12 12-12 12 5.373 12 12S6.627 0 0 0" style="fill:#333;fill-opacity:1;fill-rule:nonzero;stroke:none" transform="translate(128 44)"/><path d="M0 0c4.411 0 8-3.589 8-8s-3.589-8-8-8-8 3.589-8 8 3.589 8 8 8" style="fill:#4c4c4c;fill-opacity:1;fill-rule:nonzero;stroke:none" transform="translate(128 40)"/><path d="M148 128h-40v48h40z" style="fill:#74b743;fill-opacity:1;fill-rule:nonzero;stroke:none"/><path d="M0 0h-40c-4.411 0-8-4.102-8-9.143v-13.714C-48-27.898-44.411-32-40-32H0c4.411 0 8 4.102 8 9.143v13.714C8-4.102 4.411 0 0 0" style="fill:#0000b8;fill-opacity:1;fill-rule:nonzero;stroke:none" transform="translate(148 220)"/><path d="M116 92h-12v8h12zm18 0h-12v8h12zm18 0h-12v8h12zm-36 12h-12v8h12zm18 0h-12v8h12zm18 0h-12v8h12zm-36-24h-12v8h12zm18 0h-12v8h12zm18 0h-12v8h12zm-36-12h-12v8h12zm18 0h-12v8h12zm18 0h-12v8h12z" style="fill:#0000b8;fill-opacity:1;fill-rule:nonzero;stroke:none"/></g></svg>