<?xml version="1.0" encoding="UTF-8" standalone="no"?>
<svg
   xmlns:dc="http://purl.org/dc/elements/1.1/"
   xmlns:cc="http://creativecommons.org/ns#"
   xmlns:rdf="http://www.w3.org/1999/02/22-rdf-syntax-ns#"
   xmlns:svg="http://www.w3.org/2000/svg"
   xmlns="http://www.w3.org/2000/svg"
   viewBox="0 0 128 319.99972"
   height="319.99973"
   width="128"
   xml:space="preserve"
   id="svg2"
   version="1.1"><metadata
     id="metadata8"><rdf:RDF><cc:Work
         rdf:about=""><dc:format>image/svg+xml</dc:format><dc:type
           rdf:resource="http://purl.org/dc/dcmitype/StillImage" /></cc:Work></rdf:RDF></metadata><defs
     id="defs6"><clipPath
       id="clipPath18"
       clipPathUnits="userSpaceOnUse"><path
         id="path16"
         d="M 0,256 H 256 V 0 H 0 Z" /></clipPath><clipPath
       id="clipPath26"
       clipPathUnits="userSpaceOnUse"><path
         id="path24"
         d="m 80,248 h 96 V 8 H 80 Z" /></clipPath></defs><g
     transform="matrix(1.3333333,0,0,-1.3333333,-106.66666,330.66666)"
     id="g10"><g
       id="g12"><g
         clip-path="url(#clipPath18)"
         id="g14"><g
           id="g20"><g
             id="g22" /><g
             id="g34"><g
               style="opacity:0.5"
               id="g32"
               clip-path="url(#clipPath26)"><g
                 id="g30"
                 transform="translate(172,83.6572)"><path
                   id="path28"
                   style="fill:#ffffff;fill-opacity:1;fill-rule:nonzero;stroke:none"
                   d="m 0,0 v 140.343 20 4 h -4 -80 -4 v -4 -20 V 0 c -2.328,-0.825 -4,-3.05 -4,-5.657 v -8 c 0,-2.608 1.672,-4.832 4,-5.657 v -12.343 -38 c 0,-3.309 2.691,-6 6,-6 h 76 c 3.309,0 6,2.691 6,6 v 38 12.343 c 2.328,0.825 4,3.049 4,5.657 v 8 C 4,-3.05 2.328,-0.825 0,0" /></g></g></g></g><g
           transform="translate(90,68)"
           id="g36"><path
             id="path38"
             style="fill:#a3834a;fill-opacity:1;fill-rule:nonzero;stroke:none"
             d="m 0,0 h -4 c -1.104,0 -2,0.896 -2,2 v 8 c 0,1.104 0.896,2 2,2 h 4 c 1.104,0 2,-0.896 2,-2 V 2 C 2,0.896 1.104,0 0,0" /></g><g
           transform="translate(170,68)"
           id="g40"><path
             id="path42"
             style="fill:#a3834a;fill-opacity:1;fill-rule:nonzero;stroke:none"
             d="m 0,0 h -4 c -1.104,0 -2,0.896 -2,2 v 8 c 0,1.104 0.896,2 2,2 h 4 c 1.104,0 2,-0.896 2,-2 V 2 C 2,0.896 1.104,0 0,0" /></g><path
           id="path44"
           style="fill:#bf9a57;fill-opacity:1;fill-rule:nonzero;stroke:none"
           d="M 168,52 H 88 v 172 h 80 z" /><g
           transform="translate(156,52)"
           id="g46"><path
             id="path48"
             style="fill:#d9af63;fill-opacity:1;fill-rule:nonzero;stroke:none"
             d="m 0,0 h -56 v 128.136 c 0,2.134 1.73,3.864 3.864,3.864 H -3.864 C -1.73,132 0,130.27 0,128.136 Z" /></g><g
           transform="translate(148.1572,124)"
           id="g50"><path
             id="path52"
             style="fill:#bf9a57;fill-opacity:1;fill-rule:nonzero;stroke:none"
             d="m 0,0 h -40.314 c -2.123,0 -3.843,1.721 -3.843,3.843 v 48.314 c 0,2.122 1.72,3.843 3.843,3.843 H 0 c 2.122,0 3.843,-1.721 3.843,-3.843 V 3.843 C 3.843,1.721 2.122,0 0,0" /></g><path
           id="path54"
           style="fill:#333333;fill-opacity:1;fill-rule:nonzero;stroke:none"
           d="M 168,224 H 88 v 20 h 80 z" /><g
           transform="translate(166,12)"
           id="g56"><path
             id="path58"
             style="fill:#333333;fill-opacity:1;fill-rule:nonzero;stroke:none"
             d="m 0,0 h -76 c -1.104,0 -2,0.896 -2,2 V 40 H 2 V 2 C 2,0.896 1.104,0 0,0" /></g><g
           transform="translate(150,16)"
           id="g60"><path
             id="path62"
             style="fill:#404040;fill-opacity:1;fill-rule:nonzero;stroke:none"
             d="m 0,0 h -44 c -3.313,0 -6,2.687 -6,6 V 36 H 6 V 6 C 6,2.687 3.313,0 0,0" /></g><g
           transform="translate(128,44)"
           id="g64"><path
             id="path66"
             style="fill:#333333;fill-opacity:1;fill-rule:nonzero;stroke:none"
             d="m 0,0 c -6.627,0 -12,-5.373 -12,-12 0,-6.627 5.373,-12 12,-12 6.627,0 12,5.373 12,12 C 12,-5.373 6.627,0 0,0" /></g><g
           transform="translate(128,40)"
           id="g68"><path
             id="path70"
             style="fill:#4c4c4c;fill-opacity:1;fill-rule:nonzero;stroke:none"
             d="m 0,0 c 4.411,0 8,-3.589 8,-8 0,-4.411 -3.589,-8 -8,-8 -4.411,0 -8,3.589 -8,8 0,4.411 3.589,8 8,8" /></g><path
           id="path72"
           style="fill:#74b743;fill-opacity:1;fill-rule:nonzero;stroke:none"
           d="m 148,128 h -40 v 48 h 40 z" /><g
           transform="translate(148,220)"
           id="g74"><path
             id="path76"
             style="fill:#0000b8;fill-opacity:1;fill-rule:nonzero;stroke:none"
             d="m 0,0 h -40 c -4.411,0 -8,-4.102 -8,-9.143 v -13.714 c 0,-5.041 3.589,-9.143 8,-9.143 H 0 c 4.411,0 8,4.102 8,9.143 V -9.143 C 8,-4.102 4.411,0 0,0" /></g><path
           id="path78"
           style="fill:#0000b8;fill-opacity:1;fill-rule:nonzero;stroke:none"
           d="m 116,92 h -12 v 8 h 12 z" /><path
           id="path80"
           style="fill:#0000b8;fill-opacity:1;fill-rule:nonzero;stroke:none"
           d="m 134,92 h -12 v 8 h 12 z" /><path
           id="path82"
           style="fill:#0000b8;fill-opacity:1;fill-rule:nonzero;stroke:none"
           d="m 152,92 h -12 v 8 h 12 z" /><path
           id="path84"
           style="fill:#0000b8;fill-opacity:1;fill-rule:nonzero;stroke:none"
           d="m 116,104 h -12 v 8 h 12 z" /><path
           id="path86"
           style="fill:#0000b8;fill-opacity:1;fill-rule:nonzero;stroke:none"
           d="m 134,104 h -12 v 8 h 12 z" /><path
           id="path88"
           style="fill:#0000b8;fill-opacity:1;fill-rule:nonzero;stroke:none"
           d="m 152,104 h -12 v 8 h 12 z" /><path
           id="path90"
           style="fill:#0000b8;fill-opacity:1;fill-rule:nonzero;stroke:none"
           d="m 116,80 h -12 v 8 h 12 z" /><path
           id="path92"
           style="fill:#0000b8;fill-opacity:1;fill-rule:nonzero;stroke:none"
           d="m 134,80 h -12 v 8 h 12 z" /><path
           id="path94"
           style="fill:#0000b8;fill-opacity:1;fill-rule:nonzero;stroke:none"
           d="m 152,80 h -12 v 8 h 12 z" /><path
           id="path96"
           style="fill:#0000b8;fill-opacity:1;fill-rule:nonzero;stroke:none"
           d="m 116,68 h -12 v 8 h 12 z" /><path
           id="path98"
           style="fill:#0000b8;fill-opacity:1;fill-rule:nonzero;stroke:none"
           d="m 134,68 h -12 v 8 h 12 z" /><path
           id="path100"
           style="fill:#0000b8;fill-opacity:1;fill-rule:nonzero;stroke:none"
           d="m 152,68 h -12 v 8 h 12 z" /></g></g></g></svg>