<?xml version="1.0" encoding="UTF-8" standalone="no"?>
<svg
   xmlns:dc="http://purl.org/dc/elements/1.1/"
   xmlns:cc="http://creativecommons.org/ns#"
   xmlns:rdf="http://www.w3.org/1999/02/22-rdf-syntax-ns#"
   xmlns:svg="http://www.w3.org/2000/svg"
   xmlns="http://www.w3.org/2000/svg"
   viewBox="0 0 330.66665 192"
   height="192"
   width="330.66666"
   xml:space="preserve"
   id="svg2"
   version="1.1"><metadata
     id="metadata8"><rdf:RDF><cc:Work
         rdf:about=""><dc:format>image/svg+xml</dc:format><dc:type
           rdf:resource="http://purl.org/dc/dcmitype/StillImage" /></cc:Work></rdf:RDF></metadata><defs
     id="defs6"><clipPath
       id="clipPath18"
       clipPathUnits="userSpaceOnUse"><path
         id="path16"
         d="M 0,256 H 256 V 0 H 0 Z" /></clipPath><clipPath
       id="clipPath26"
       clipPathUnits="userSpaceOnUse"><path
         id="path24"
         d="M 4,200 H 252 V 56 H 4 Z" /></clipPath></defs><g
     transform="matrix(1.3333333,0,0,-1.3333333,-5.3333332,266.66666)"
     id="g10"><g
       id="g12"><g
         clip-path="url(#clipPath18)"
         id="g14"><g
           id="g20"><g
             id="g22" /><g
             id="g34"><g
               style="opacity:0.5"
               id="g32"
               clip-path="url(#clipPath26)"><g
                 id="g30"
                 transform="translate(244,196)"><path
                   id="path28"
                   style="fill:#ffffff;fill-opacity:1;fill-rule:nonzero;stroke:none"
                   d="m 0,0 h -124 v 4 h -8 -88 -8 V 0 h -4 -8 v -8 -4 -24 -8 -8 h 4 v -80 -8 h 8 224 8 v 8 80 h 4 v 8 8 24 4 8 z" /></g></g></g></g></g></g><path
       id="path36"
       style="fill:#8c8c8c;fill-opacity:1;fill-rule:nonzero;stroke:none"
       d="M 240,64 H 16 v 88 h 224 z" /><path
       id="path38"
       style="fill:#808080;fill-opacity:1;fill-rule:nonzero;stroke:none"
       d="M 244,152 H 12 v 36 h 232 z" /><path
       id="path40"
       style="fill:#8c8c8c;fill-opacity:1;fill-rule:nonzero;stroke:none"
       d="M 244,160 H 12 v 24 h 232 z" /><path
       id="path42"
       style="fill:#999999;fill-opacity:1;fill-rule:nonzero;stroke:none"
       d="m 236,164 h -88 v 16 h 88 z" /><g
       transform="translate(222.8185,176)"
       id="g44"><path
         id="path46"
         style="fill:#333333;fill-opacity:1;fill-rule:nonzero;stroke:none"
         d="m 0,0 h -61.637 -1.181 V -0.762 -7.238 -8 H -61.637 0 1.182 V -7.238 -0.762 0 Z" /></g><path
       id="path48"
       style="fill:#404040;fill-opacity:1;fill-rule:nonzero;stroke:none"
       d="M 112,152 H 24 v 32 h 88 z" /><path
       id="path50"
       style="fill:#b3b3b3;fill-opacity:1;fill-rule:nonzero;stroke:none"
       d="M 112,150 H 24 v 12 h 88 z" /><path
       id="path52"
       style="fill:#b3b3b3;fill-opacity:1;fill-rule:nonzero;stroke:none"
       d="M 112,184 H 24 v 8 h 88 z" /><path
       id="path54"
       style="fill:#b3b3b3;fill-opacity:1;fill-rule:nonzero;stroke:none"
       d="M 112,180 H 24 v 2 h 88 z" /><path
       id="path56"
       style="fill:#b3b3b3;fill-opacity:1;fill-rule:nonzero;stroke:none"
       d="M 112,176 H 24 v 2 h 88 z" /><path
       id="path58"
       style="fill:#b3b3b3;fill-opacity:1;fill-rule:nonzero;stroke:none"
       d="M 112,172 H 24 v 2 h 88 z" /><path
       id="path60"
       style="fill:#b3b3b3;fill-opacity:1;fill-rule:nonzero;stroke:none"
       d="M 112,168 H 24 v 2 h 88 z" /><path
       id="path62"
       style="fill:#b3b3b3;fill-opacity:1;fill-rule:nonzero;stroke:none"
       d="M 112,164 H 24 v 2 h 88 z" /><path
       id="path64"
       style="fill:#4c4c4c;fill-opacity:1;fill-rule:nonzero;stroke:none"
       d="M 236,72 H 20 v 80 h 216 z" /><path
       id="path66"
       style="fill:#999999;fill-opacity:1;fill-rule:nonzero;stroke:none"
       d="M 48,144 H 36 v 4 h 12 z" /><path
       id="path68"
       style="fill:#999999;fill-opacity:1;fill-rule:nonzero;stroke:none"
       d="M 64,144 H 52 v 4 h 12 z" /><path
       id="path70"
       style="fill:#999999;fill-opacity:1;fill-rule:nonzero;stroke:none"
       d="M 80,144 H 68 v 4 h 12 z" /><path
       id="path72"
       style="fill:#999999;fill-opacity:1;fill-rule:nonzero;stroke:none"
       d="M 96,144 H 84 v 4 h 12 z" /><path
       id="path74"
       style="fill:#999999;fill-opacity:1;fill-rule:nonzero;stroke:none"
       d="m 112,144 h -12 v 4 h 12 z" /><path
       id="path76"
       style="fill:#999999;fill-opacity:1;fill-rule:nonzero;stroke:none"
       d="m 168,144 h -12 v 4 h 12 z" /><path
       id="path78"
       style="fill:#999999;fill-opacity:1;fill-rule:nonzero;stroke:none"
       d="m 184,144 h -12 v 4 h 12 z" /><path
       id="path80"
       style="fill:#999999;fill-opacity:1;fill-rule:nonzero;stroke:none"
       d="m 232,144 h -12 v 4 h 12 z" /><path
       id="path82"
       style="fill:#999999;fill-opacity:1;fill-rule:nonzero;stroke:none"
       d="m 216,144 h -12 v 4 h 12 z" /><path
       id="path84"
       style="fill:#999999;fill-opacity:1;fill-rule:nonzero;stroke:none"
       d="m 200,144 h -12 v 4 h 12 z" /><g
       transform="translate(198.17,125.3449)"
       id="g86"><path
         id="path88"
         style="fill:#3b96cc;fill-opacity:1;fill-rule:nonzero;stroke:none"
         d="M 0,0 -2.17,-1.79 V -24.9 L 0,-26.69 13.067,-13.345 Z" /></g><g
       transform="translate(225.83,98.6551)"
       id="g90"><path
         id="path92"
         style="fill:#3b96cc;fill-opacity:1;fill-rule:nonzero;stroke:none"
         d="M 0,0 2.17,1.79 V 24.9 L 0,26.69 -13.067,13.345 Z" /></g><g
       transform="translate(225.3449,125.83)"
       id="g94"><path
         id="path96"
         style="fill:#3b96cc;fill-opacity:1;fill-rule:nonzero;stroke:none"
         d="M 0,0 -1.79,2.17 H -24.9 L -26.69,0 -13.345,-13.067 Z" /></g><g
       transform="translate(198.6551,98.17)"
       id="g98"><path
         id="path100"
         style="fill:#3b96cc;fill-opacity:1;fill-rule:nonzero;stroke:none"
         d="M 0,0 1.79,-2.17 H 24.9 L 26.69,0 13.345,13.067 Z" /></g><path
       id="path102"
       style="fill:#999999;fill-opacity:1;fill-rule:nonzero;stroke:none"
       d="m 32,128 h -8 v 8 h 8 z" /><path
       id="path104"
       style="fill:#d9d9d9;fill-opacity:1;fill-rule:nonzero;stroke:none"
       d="m 44,128 h -8 v 8 h 8 z" /><path
       id="path106"
       style="fill:#d9d9d9;fill-opacity:1;fill-rule:nonzero;stroke:none"
       d="m 56,128 h -8 v 8 h 8 z" /><path
       id="path108"
       style="fill:#d9d9d9;fill-opacity:1;fill-rule:nonzero;stroke:none"
       d="m 68,128 h -8 v 8 h 8 z" /><path
       id="path110"
       style="fill:#d9d9d9;fill-opacity:1;fill-rule:nonzero;stroke:none"
       d="m 80,128 h -8 v 8 h 8 z" /><path
       id="path112"
       style="fill:#d9d9d9;fill-opacity:1;fill-rule:nonzero;stroke:none"
       d="m 92,128 h -8 v 8 h 8 z" /><path
       id="path114"
       style="fill:#d9d9d9;fill-opacity:1;fill-rule:nonzero;stroke:none"
       d="m 104,128 h -8 v 8 h 8 z" /><path
       id="path116"
       style="fill:#d9d9d9;fill-opacity:1;fill-rule:nonzero;stroke:none"
       d="m 116,128 h -8 v 8 h 8 z" /><path
       id="path118"
       style="fill:#d9d9d9;fill-opacity:1;fill-rule:nonzero;stroke:none"
       d="m 128,128 h -8 v 8 h 8 z" /><path
       id="path120"
       style="fill:#d9d9d9;fill-opacity:1;fill-rule:nonzero;stroke:none"
       d="m 140,128 h -8 v 8 h 8 z" /><path
       id="path122"
       style="fill:#d9d9d9;fill-opacity:1;fill-rule:nonzero;stroke:none"
       d="m 152,128 h -8 v 8 h 8 z" /><path
       id="path124"
       style="fill:#d9d9d9;fill-opacity:1;fill-rule:nonzero;stroke:none"
       d="m 164,128 h -8 v 8 h 8 z" /><path
       id="path126"
       style="fill:#d9d9d9;fill-opacity:1;fill-rule:nonzero;stroke:none"
       d="m 48,116 h -8 v 8 h 8 z" /><path
       id="path128"
       style="fill:#999999;fill-opacity:1;fill-rule:nonzero;stroke:none"
       d="M 36,116 H 24 v 8 h 12 z" /><path
       id="path130"
       style="fill:#999999;fill-opacity:1;fill-rule:nonzero;stroke:none"
       d="M 40,104 H 24 v 8 h 16 z" /><path
       id="path132"
       style="fill:#999999;fill-opacity:1;fill-rule:nonzero;stroke:none"
       d="M 48,92 H 24 v 8 h 24 z" /><path
       id="path134"
       style="fill:#d9d9d9;fill-opacity:1;fill-rule:nonzero;stroke:none"
       d="m 60,116 h -8 v 8 h 8 z" /><path
       id="path136"
       style="fill:#d9d9d9;fill-opacity:1;fill-rule:nonzero;stroke:none"
       d="m 72,116 h -8 v 8 h 8 z" /><path
       id="path138"
       style="fill:#d9d9d9;fill-opacity:1;fill-rule:nonzero;stroke:none"
       d="m 84,116 h -8 v 8 h 8 z" /><path
       id="path140"
       style="fill:#d9d9d9;fill-opacity:1;fill-rule:nonzero;stroke:none"
       d="m 96,116 h -8 v 8 h 8 z" /><path
       id="path142"
       style="fill:#d9d9d9;fill-opacity:1;fill-rule:nonzero;stroke:none"
       d="m 108,116 h -8 v 8 h 8 z" /><path
       id="path144"
       style="fill:#d9d9d9;fill-opacity:1;fill-rule:nonzero;stroke:none"
       d="m 120,116 h -8 v 8 h 8 z" /><path
       id="path146"
       style="fill:#d9d9d9;fill-opacity:1;fill-rule:nonzero;stroke:none"
       d="m 132,116 h -8 v 8 h 8 z" /><path
       id="path148"
       style="fill:#d9d9d9;fill-opacity:1;fill-rule:nonzero;stroke:none"
       d="m 144,116 h -8 v 8 h 8 z" /><path
       id="path150"
       style="fill:#d9d9d9;fill-opacity:1;fill-rule:nonzero;stroke:none"
       d="m 156,116 h -8 v 8 h 8 z" /><path
       id="path152"
       style="fill:#d9d9d9;fill-opacity:1;fill-rule:nonzero;stroke:none"
       d="m 168,116 h -8 v 8 h 8 z" /><path
       id="path154"
       style="fill:#d9d9d9;fill-opacity:1;fill-rule:nonzero;stroke:none"
       d="m 60,92 h -8 v 8 h 8 z" /><path
       id="path156"
       style="fill:#d9d9d9;fill-opacity:1;fill-rule:nonzero;stroke:none"
       d="M 148,80 H 52 v 8 h 96 z" /><path
       id="path158"
       style="fill:#d9d9d9;fill-opacity:1;fill-rule:nonzero;stroke:none"
       d="m 72,92 h -8 v 8 h 8 z" /><path
       id="path160"
       style="fill:#d9d9d9;fill-opacity:1;fill-rule:nonzero;stroke:none"
       d="m 84,92 h -8 v 8 h 8 z" /><path
       id="path162"
       style="fill:#d9d9d9;fill-opacity:1;fill-rule:nonzero;stroke:none"
       d="m 96,92 h -8 v 8 h 8 z" /><path
       id="path164"
       style="fill:#d9d9d9;fill-opacity:1;fill-rule:nonzero;stroke:none"
       d="m 108,92 h -8 v 8 h 8 z" /><path
       id="path166"
       style="fill:#d9d9d9;fill-opacity:1;fill-rule:nonzero;stroke:none"
       d="m 120,92 h -8 v 8 h 8 z" /><path
       id="path168"
       style="fill:#d9d9d9;fill-opacity:1;fill-rule:nonzero;stroke:none"
       d="m 132,92 h -8 v 8 h 8 z" /><path
       id="path170"
       style="fill:#d9d9d9;fill-opacity:1;fill-rule:nonzero;stroke:none"
       d="m 144,92 h -8 v 8 h 8 z" /><path
       id="path172"
       style="fill:#d9d9d9;fill-opacity:1;fill-rule:nonzero;stroke:none"
       d="m 156,92 h -8 v 8 h 8 z" /><path
       id="path174"
       style="fill:#d9d9d9;fill-opacity:1;fill-rule:nonzero;stroke:none"
       d="m 168,92 h -8 v 8 h 8 z" /><path
       id="path176"
       style="fill:#d9d9d9;fill-opacity:1;fill-rule:nonzero;stroke:none"
       d="m 52,104 h -8 v 8 h 8 z" /><path
       id="path178"
       style="fill:#d9d9d9;fill-opacity:1;fill-rule:nonzero;stroke:none"
       d="m 64,104 h -8 v 8 h 8 z" /><path
       id="path180"
       style="fill:#d9d9d9;fill-opacity:1;fill-rule:nonzero;stroke:none"
       d="m 76,104 h -8 v 8 h 8 z" /><path
       id="path182"
       style="fill:#d9d9d9;fill-opacity:1;fill-rule:nonzero;stroke:none"
       d="m 88,104 h -8 v 8 h 8 z" /><path
       id="path184"
       style="fill:#d9d9d9;fill-opacity:1;fill-rule:nonzero;stroke:none"
       d="m 100,104 h -8 v 8 h 8 z" /><path
       id="path186"
       style="fill:#d9d9d9;fill-opacity:1;fill-rule:nonzero;stroke:none"
       d="m 112,104 h -8 v 8 h 8 z" /><path
       id="path188"
       style="fill:#d9d9d9;fill-opacity:1;fill-rule:nonzero;stroke:none"
       d="m 124,104 h -8 v 8 h 8 z" /><path
       id="path190"
       style="fill:#d9d9d9;fill-opacity:1;fill-rule:nonzero;stroke:none"
       d="m 136,104 h -8 v 8 h 8 z" /><path
       id="path192"
       style="fill:#d9d9d9;fill-opacity:1;fill-rule:nonzero;stroke:none"
       d="m 148,104 h -8 v 8 h 8 z" /><path
       id="path194"
       style="fill:#d9d9d9;fill-opacity:1;fill-rule:nonzero;stroke:none"
       d="m 160,104 h -8 v 8 h 8 z" /><path
       id="path196"
       style="fill:#999999;fill-opacity:1;fill-rule:nonzero;stroke:none"
       d="m 160,80 h -8 v 8 h 8 z" /><path
       id="path198"
       style="fill:#999999;fill-opacity:1;fill-rule:nonzero;stroke:none"
       d="m 48,80 h -8 v 8 h 8 z" /><path
       id="path200"
       style="fill:#999999;fill-opacity:1;fill-rule:nonzero;stroke:none"
       d="m 36,80 h -8 v 8 h 8 z" /><path
       id="path202"
       style="fill:#d9d9d9;fill-opacity:1;fill-rule:nonzero;stroke:none"
       d="m 172,104 h -8 v 8 h 8 z" /><path
       id="path204"
       style="fill:#999999;fill-opacity:1;fill-rule:nonzero;stroke:none"
       d="m 184,104 h -8 v 12 h 8 z" /><path
       id="path206"
       style="fill:#999999;fill-opacity:1;fill-rule:nonzero;stroke:none"
       d="m 184,128 h -16 v 8 h 16 z" /><path
       id="path208"
       style="fill:#999999;fill-opacity:1;fill-rule:nonzero;stroke:none"
       d="m 184,92 h -12 v 8 h 12 z" /><path
       id="path210"
       style="fill:#999999;fill-opacity:1;fill-rule:nonzero;stroke:none"
       d="m 184,116 h -12 v 8 h 12 z" /></g></svg>