<svg xmlns="http://www.w3.org/2000/svg" xml:space="preserve" width="330.667" height="192" viewBox="0 0 330.667 192"><defs><clipPath id="a" clipPathUnits="userSpaceOnUse"><path d="M0 256h256V0H0Z"/></clipPath><clipPath id="b" clipPathUnits="userSpaceOnUse"><path d="M4 200h248V56H4Z"/></clipPath></defs><g clip-path="url(#a)" transform="matrix(1.33333 0 0 -1.33333 -5.333 266.667)"><g clip-path="url(#b)" style="opacity:.5"><path d="M0 0h-124v4h-104V0h-12v-52h4v-88H4v88h4V0z" style="fill:#fff;fill-opacity:1;fill-rule:nonzero;stroke:none" transform="translate(244 196)"/></g></g><path d="M240 64H16v88h224z" style="fill:#8c8c8c;fill-opacity:1;fill-rule:nonzero;stroke:none" transform="matrix(1.33333 0 0 -1.33333 -5.333 266.667)"/><path d="M244 152H12v36h232z" style="fill:gray;fill-opacity:1;fill-rule:nonzero;stroke:none" transform="matrix(1.33333 0 0 -1.33333 -5.333 266.667)"/><path d="M244 160H12v24h232z" style="fill:#8c8c8c;fill-opacity:1;fill-rule:nonzero;stroke:none" transform="matrix(1.33333 0 0 -1.33333 -5.333 266.667)"/><path d="M236 164h-88v16h88z" style="fill:#999;fill-opacity:1;fill-rule:nonzero;stroke:none" transform="matrix(1.33333 0 0 -1.33333 -5.333 266.667)"/><path d="M0 0h-62.818v-8h64v8Z" style="fill:#333;fill-opacity:1;fill-rule:nonzero;stroke:none" transform="matrix(1.33333 0 0 -1.33333 291.758 32)"/><path d="M112 152H24v32h88z" style="fill:#404040;fill-opacity:1;fill-rule:nonzero;stroke:none" transform="matrix(1.33333 0 0 -1.33333 -5.333 266.667)"/><path d="M112 150H24v12h88zm0 34H24v8h88zm0-4H24v2h88zm0-4H24v2h88zm0-4H24v2h88zm0-4H24v2h88zm0-4H24v2h88z" style="fill:#b3b3b3;fill-opacity:1;fill-rule:nonzero;stroke:none" transform="matrix(1.33333 0 0 -1.33333 -5.333 266.667)"/><path d="M236 72H20v80h216z" style="fill:#4c4c4c;fill-opacity:1;fill-rule:nonzero;stroke:none" transform="matrix(1.33333 0 0 -1.33333 -5.333 266.667)"/><path d="M48 144H36v4h12zm16 0H52v4h12zm16 0H68v4h12zm16 0H84v4h12zm16 0h-12v4h12zm56 0h-12v4h12zm16 0h-12v4h12zm48 0h-12v4h12zm-16 0h-12v4h12zm-16 0h-12v4h12z" style="fill:#999;fill-opacity:1;fill-rule:nonzero;stroke:none" transform="matrix(1.33333 0 0 -1.33333 -5.333 266.667)"/><path d="m0 0-2.17-1.79V-24.9L0-26.69l13.067 13.345Z" style="fill:#3b96cc;fill-opacity:1;fill-rule:nonzero;stroke:none" transform="matrix(1.33333 0 0 -1.33333 258.893 99.54)"/><path d="m0 0 2.17 1.79V24.9L0 26.69l-13.067-13.345Z" style="fill:#3b96cc;fill-opacity:1;fill-rule:nonzero;stroke:none" transform="matrix(1.33333 0 0 -1.33333 295.773 135.127)"/><path d="m0 0-1.79 2.17H-24.9L-26.69 0l13.345-13.067Z" style="fill:#3b96cc;fill-opacity:1;fill-rule:nonzero;stroke:none" transform="matrix(1.33333 0 0 -1.33333 295.127 98.893)"/><path d="m0 0 1.79-2.17H24.9L26.69 0 13.345 13.067Z" style="fill:#3b96cc;fill-opacity:1;fill-rule:nonzero;stroke:none" transform="matrix(1.33333 0 0 -1.33333 259.54 135.773)"/><path d="M32 128h-8v8h8z" style="fill:#999;fill-opacity:1;fill-rule:nonzero;stroke:none" transform="matrix(1.33333 0 0 -1.33333 -5.333 266.667)"/><path d="M44 128h-8v8h8zm12 0h-8v8h8zm12 0h-8v8h8zm12 0h-8v8h8zm12 0h-8v8h8zm12 0h-8v8h8zm12 0h-8v8h8zm12 0h-8v8h8zm12 0h-8v8h8zm12 0h-8v8h8zm12 0h-8v8h8zM48 116h-8v8h8z" style="fill:#d9d9d9;fill-opacity:1;fill-rule:nonzero;stroke:none" transform="matrix(1.33333 0 0 -1.33333 -5.333 266.667)"/><path d="M36 116H24v8h12zm4-12H24v8h16zm8-12H24v8h24z" style="fill:#999;fill-opacity:1;fill-rule:nonzero;stroke:none" transform="matrix(1.33333 0 0 -1.33333 -5.333 266.667)"/><path d="M60 116h-8v8h8zm12 0h-8v8h8zm12 0h-8v8h8zm12 0h-8v8h8zm12 0h-8v8h8zm12 0h-8v8h8zm12 0h-8v8h8zm12 0h-8v8h8zm12 0h-8v8h8zm12 0h-8v8h8zM60 92h-8v8h8zm88-12H52v8h96zM72 92h-8v8h8zm12 0h-8v8h8zm12 0h-8v8h8zm12 0h-8v8h8zm12 0h-8v8h8zm12 0h-8v8h8zm12 0h-8v8h8zm12 0h-8v8h8zm12 0h-8v8h8zM52 104h-8v8h8zm12 0h-8v8h8zm12 0h-8v8h8zm12 0h-8v8h8zm12 0h-8v8h8zm12 0h-8v8h8zm12 0h-8v8h8zm12 0h-8v8h8zm12 0h-8v8h8zm12 0h-8v8h8z" style="fill:#d9d9d9;fill-opacity:1;fill-rule:nonzero;stroke:none" transform="matrix(1.33333 0 0 -1.33333 -5.333 266.667)"/><path d="M160 80h-8v8h8zM48 80h-8v8h8zm-12 0h-8v8h8z" style="fill:#999;fill-opacity:1;fill-rule:nonzero;stroke:none" transform="matrix(1.33333 0 0 -1.33333 -5.333 266.667)"/><path d="M172 104h-8v8h8z" style="fill:#d9d9d9;fill-opacity:1;fill-rule:nonzero;stroke:none" transform="matrix(1.33333 0 0 -1.33333 -5.333 266.667)"/><path d="M184 104h-8v12h8zm0 24h-16v8h16zm0-36h-12v8h12zm0 24h-12v8h12z" style="fill:#999;fill-opacity:1;fill-rule:nonzero;stroke:none" transform="matrix(1.33333 0 0 -1.33333 -5.333 266.667)"/></svg>