<?xml version="1.0" encoding="UTF-8" standalone="no"?>
<svg
   xmlns:dc="http://purl.org/dc/elements/1.1/"
   xmlns:cc="http://creativecommons.org/ns#"
   xmlns:rdf="http://www.w3.org/1999/02/22-rdf-syntax-ns#"
   xmlns:svg="http://www.w3.org/2000/svg"
   xmlns="http://www.w3.org/2000/svg"
   viewBox="0 0 330.66665 234.66665"
   height="234.66666"
   width="330.66666"
   xml:space="preserve"
   id="svg2"
   version="1.1"><metadata
     id="metadata8"><rdf:RDF><cc:Work
         rdf:about=""><dc:format>image/svg+xml</dc:format><dc:type
           rdf:resource="http://purl.org/dc/dcmitype/StillImage" /></cc:Work></rdf:RDF></metadata><defs
     id="defs6"><clipPath
       id="clipPath18"
       clipPathUnits="userSpaceOnUse"><path
         id="path16"
         d="M 0,256 H 256 V 0 H 0 Z" /></clipPath><clipPath
       id="clipPath26"
       clipPathUnits="userSpaceOnUse"><path
         id="path24"
         d="M 4,216 H 252 V 40 H 4 Z" /></clipPath><clipPath
       id="clipPath46"
       clipPathUnits="userSpaceOnUse"><path
         id="path44"
         d="M 0,256 H 256 V 0 H 0 Z" /></clipPath></defs><g
     transform="matrix(1.3333333,0,0,-1.3333333,-5.3333332,287.99999)"
     id="g10"><g
       id="g12"><g
         clip-path="url(#clipPath18)"
         id="g14"><g
           id="g20"><g
             id="g22" /><g
             id="g32"><g
               style="opacity:0.5"
               id="g30"
               clip-path="url(#clipPath26)"><path
                 id="path28"
                 style="fill:#ffffff;fill-opacity:1;fill-rule:nonzero;stroke:none"
                 d="m 237.458,136 v 0 8 0 z M 248,208 v 8 H 240 4 v -8 -64 -8 -88 -8 h 8 228 8 v 8 88 8 4 h 4 v 8 44 8 z" /></g></g></g></g></g><path
       id="path34"
       style="fill:#333333;fill-opacity:1;fill-rule:nonzero;stroke:none"
       d="M 236,132 H 16 v 16 h 220 z" /><path
       id="path36"
       style="fill:#4c4c4c;fill-opacity:1;fill-rule:nonzero;stroke:none"
       d="M 240,48 H 12 v 88 h 228 z" /><path
       id="path38"
       style="fill:#595959;fill-opacity:1;fill-rule:nonzero;stroke:none"
       d="M 240,144 H 12 v 64 h 228 z" /><g
       id="g40"><g
         clip-path="url(#clipPath46)"
         id="g42"><g
           transform="translate(35,120)"
           id="g48"><path
             id="path50"
             style="fill:#404040;fill-opacity:1;fill-rule:nonzero;stroke:none"
             d="m 0,0 h -10 c -0.552,0 -1,0.448 -1,1 v 2 c 0,0.552 0.448,1 1,1 H 0 C 0.552,4 1,3.552 1,3 V 1 C 1,0.448 0.552,0 0,0" /></g><g
           transform="translate(51,120)"
           id="g52"><path
             id="path54"
             style="fill:#404040;fill-opacity:1;fill-rule:nonzero;stroke:none"
             d="m 0,0 h -10 c -0.552,0 -1,0.448 -1,1 v 2 c 0,0.552 0.448,1 1,1 H 0 C 0.552,4 1,3.552 1,3 V 1 C 1,0.448 0.552,0 0,0" /></g><g
           transform="translate(67,120)"
           id="g56"><path
             id="path58"
             style="fill:#404040;fill-opacity:1;fill-rule:nonzero;stroke:none"
             d="m 0,0 h -10 c -0.552,0 -1,0.448 -1,1 v 2 c 0,0.552 0.448,1 1,1 H 0 C 0.552,4 1,3.552 1,3 V 1 C 1,0.448 0.552,0 0,0" /></g><g
           transform="translate(83,120)"
           id="g60"><path
             id="path62"
             style="fill:#404040;fill-opacity:1;fill-rule:nonzero;stroke:none"
             d="m 0,0 h -10 c -0.552,0 -1,0.448 -1,1 v 2 c 0,0.552 0.448,1 1,1 H 0 C 0.552,4 1,3.552 1,3 V 1 C 1,0.448 0.552,0 0,0" /></g><g
           transform="translate(99,120)"
           id="g64"><path
             id="path66"
             style="fill:#404040;fill-opacity:1;fill-rule:nonzero;stroke:none"
             d="m 0,0 h -10 c -0.552,0 -1,0.448 -1,1 v 2 c 0,0.552 0.448,1 1,1 H 0 C 0.552,4 1,3.552 1,3 V 1 C 1,0.448 0.552,0 0,0" /></g><g
           transform="translate(115,120)"
           id="g68"><path
             id="path70"
             style="fill:#404040;fill-opacity:1;fill-rule:nonzero;stroke:none"
             d="m 0,0 h -10 c -0.552,0 -1,0.448 -1,1 v 2 c 0,0.552 0.448,1 1,1 H 0 C 0.552,4 1,3.552 1,3 V 1 C 1,0.448 0.552,0 0,0" /></g><g
           transform="translate(131,120)"
           id="g72"><path
             id="path74"
             style="fill:#404040;fill-opacity:1;fill-rule:nonzero;stroke:none"
             d="m 0,0 h -10 c -0.552,0 -1,0.448 -1,1 v 2 c 0,0.552 0.448,1 1,1 H 0 C 0.552,4 1,3.552 1,3 V 1 C 1,0.448 0.552,0 0,0" /></g><g
           transform="translate(155,120)"
           id="g76"><path
             id="path78"
             style="fill:#404040;fill-opacity:1;fill-rule:nonzero;stroke:none"
             d="m 0,0 h -10 c -0.552,0 -1,0.448 -1,1 v 2 c 0,0.552 0.448,1 1,1 H 0 C 0.552,4 1,3.552 1,3 V 1 C 1,0.448 0.552,0 0,0" /></g><g
           transform="translate(171,120)"
           id="g80"><path
             id="path82"
             style="fill:#f1c40f;fill-opacity:1;fill-rule:nonzero;stroke:none"
             d="m 0,0 h -10 c -0.552,0 -1,0.448 -1,1 v 2 c 0,0.552 0.448,1 1,1 H 0 C 0.552,4 1,3.552 1,3 V 1 C 1,0.448 0.552,0 0,0" /></g><g
           transform="translate(180,122)"
           id="g84"><path
             id="path86"
             style="fill:#ff0000;fill-opacity:1;fill-rule:nonzero;stroke:none"
             d="m 0,0 c 0,-1.105 -0.895,-2 -2,-2 -1.105,0 -2,0.895 -2,2 0,1.105 0.895,2 2,2 1.105,0 2,-0.895 2,-2" /></g><g
           transform="translate(200.1781,76)"
           id="g88"><path
             id="path90"
             style="fill:#404040;fill-opacity:1;fill-rule:nonzero;stroke:none"
             d="M 0,0 H -8.178 V -20 H 0 l 5.731,10.488 z" /></g><g
           transform="translate(227.8219,76)"
           id="g92"><path
             id="path94"
             style="fill:#404040;fill-opacity:1;fill-rule:nonzero;stroke:none"
             d="M 0,0 H 8.178 V -20 H 0 l -5.731,10.488 z" /></g><g
           transform="translate(201.8549,75.9999)"
           id="g96"><path
             id="path98"
             style="fill:#404040;fill-opacity:1;fill-rule:nonzero;stroke:none"
             d="M 0,0 5.487,-9.512 H 18.348 L 24.112,0 Z" /></g><g
           transform="translate(225.9667,56)"
           id="g100"><path
             id="path102"
             style="fill:#404040;fill-opacity:1;fill-rule:nonzero;stroke:none"
             d="M 0,0 -5.487,9.512 H -18.348 L -24.112,0 Z" /></g><path
           id="path104"
           style="fill:#404040;fill-opacity:1;fill-rule:nonzero;stroke:none"
           d="m 32,108 h -8 v 8 h 8 z" /><path
           id="path106"
           style="fill:#404040;fill-opacity:1;fill-rule:nonzero;stroke:none"
           d="m 44,108 h -8 v 8 h 8 z" /><path
           id="path108"
           style="fill:#404040;fill-opacity:1;fill-rule:nonzero;stroke:none"
           d="m 56,108 h -8 v 8 h 8 z" /><path
           id="path110"
           style="fill:#404040;fill-opacity:1;fill-rule:nonzero;stroke:none"
           d="m 68,108 h -8 v 8 h 8 z" /><path
           id="path112"
           style="fill:#404040;fill-opacity:1;fill-rule:nonzero;stroke:none"
           d="m 80,108 h -8 v 8 h 8 z" /><path
           id="path114"
           style="fill:#404040;fill-opacity:1;fill-rule:nonzero;stroke:none"
           d="m 92,108 h -8 v 8 h 8 z" /><path
           id="path116"
           style="fill:#404040;fill-opacity:1;fill-rule:nonzero;stroke:none"
           d="m 104,108 h -8 v 8 h 8 z" /><path
           id="path118"
           style="fill:#404040;fill-opacity:1;fill-rule:nonzero;stroke:none"
           d="m 116,108 h -8 v 8 h 8 z" /><path
           id="path120"
           style="fill:#404040;fill-opacity:1;fill-rule:nonzero;stroke:none"
           d="m 128,108 h -8 v 8 h 8 z" /><path
           id="path122"
           style="fill:#404040;fill-opacity:1;fill-rule:nonzero;stroke:none"
           d="m 140,108 h -8 v 8 h 8 z" /><path
           id="path124"
           style="fill:#404040;fill-opacity:1;fill-rule:nonzero;stroke:none"
           d="m 152,108 h -8 v 8 h 8 z" /><path
           id="path126"
           style="fill:#404040;fill-opacity:1;fill-rule:nonzero;stroke:none"
           d="m 164,108 h -8 v 8 h 8 z" /><path
           id="path128"
           style="fill:#404040;fill-opacity:1;fill-rule:nonzero;stroke:none"
           d="m 48,96 h -8 v 8 h 8 z" /><path
           id="path130"
           style="fill:#404040;fill-opacity:1;fill-rule:nonzero;stroke:none"
           d="M 36,96 H 24 v 8 h 12 z" /><path
           id="path132"
           style="fill:#404040;fill-opacity:1;fill-rule:nonzero;stroke:none"
           d="M 40,84 H 24 v 8 h 16 z" /><path
           id="path134"
           style="fill:#404040;fill-opacity:1;fill-rule:nonzero;stroke:none"
           d="M 48,72 H 24 v 8 h 24 z" /><path
           id="path136"
           style="fill:#404040;fill-opacity:1;fill-rule:nonzero;stroke:none"
           d="m 60,96 h -8 v 8 h 8 z" /><path
           id="path138"
           style="fill:#404040;fill-opacity:1;fill-rule:nonzero;stroke:none"
           d="m 72,96 h -8 v 8 h 8 z" /><path
           id="path140"
           style="fill:#404040;fill-opacity:1;fill-rule:nonzero;stroke:none"
           d="m 84,96 h -8 v 8 h 8 z" /><path
           id="path142"
           style="fill:#404040;fill-opacity:1;fill-rule:nonzero;stroke:none"
           d="m 96,96 h -8 v 8 h 8 z" /><path
           id="path144"
           style="fill:#404040;fill-opacity:1;fill-rule:nonzero;stroke:none"
           d="m 108,96 h -8 v 8 h 8 z" /><path
           id="path146"
           style="fill:#404040;fill-opacity:1;fill-rule:nonzero;stroke:none"
           d="m 120,96 h -8 v 8 h 8 z" /><path
           id="path148"
           style="fill:#404040;fill-opacity:1;fill-rule:nonzero;stroke:none"
           d="m 132,96 h -8 v 8 h 8 z" /><path
           id="path150"
           style="fill:#404040;fill-opacity:1;fill-rule:nonzero;stroke:none"
           d="m 144,96 h -8 v 8 h 8 z" /><path
           id="path152"
           style="fill:#404040;fill-opacity:1;fill-rule:nonzero;stroke:none"
           d="m 156,96 h -8 v 8 h 8 z" /><path
           id="path154"
           style="fill:#404040;fill-opacity:1;fill-rule:nonzero;stroke:none"
           d="m 168,96 h -8 v 8 h 8 z" /><path
           id="path156"
           style="fill:#404040;fill-opacity:1;fill-rule:nonzero;stroke:none"
           d="m 60,72 h -8 v 8 h 8 z" /><path
           id="path158"
           style="fill:#404040;fill-opacity:1;fill-rule:nonzero;stroke:none"
           d="M 148,60 H 52 v 8 h 96 z" /><path
           id="path160"
           style="fill:#404040;fill-opacity:1;fill-rule:nonzero;stroke:none"
           d="m 72,72 h -8 v 8 h 8 z" /><path
           id="path162"
           style="fill:#404040;fill-opacity:1;fill-rule:nonzero;stroke:none"
           d="m 84,72 h -8 v 8 h 8 z" /><path
           id="path164"
           style="fill:#404040;fill-opacity:1;fill-rule:nonzero;stroke:none"
           d="m 96,72 h -8 v 8 h 8 z" /><path
           id="path166"
           style="fill:#404040;fill-opacity:1;fill-rule:nonzero;stroke:none"
           d="m 108,72 h -8 v 8 h 8 z" /><path
           id="path168"
           style="fill:#404040;fill-opacity:1;fill-rule:nonzero;stroke:none"
           d="m 120,72 h -8 v 8 h 8 z" /><path
           id="path170"
           style="fill:#404040;fill-opacity:1;fill-rule:nonzero;stroke:none"
           d="m 132,72 h -8 v 8 h 8 z" /><path
           id="path172"
           style="fill:#404040;fill-opacity:1;fill-rule:nonzero;stroke:none"
           d="m 144,72 h -8 v 8 h 8 z" /><path
           id="path174"
           style="fill:#404040;fill-opacity:1;fill-rule:nonzero;stroke:none"
           d="m 156,72 h -8 v 8 h 8 z" /><path
           id="path176"
           style="fill:#404040;fill-opacity:1;fill-rule:nonzero;stroke:none"
           d="m 168,72 h -8 v 8 h 8 z" /><path
           id="path178"
           style="fill:#404040;fill-opacity:1;fill-rule:nonzero;stroke:none"
           d="m 52,84 h -8 v 8 h 8 z" /><path
           id="path180"
           style="fill:#404040;fill-opacity:1;fill-rule:nonzero;stroke:none"
           d="m 64,84 h -8 v 8 h 8 z" /><path
           id="path182"
           style="fill:#404040;fill-opacity:1;fill-rule:nonzero;stroke:none"
           d="m 76,84 h -8 v 8 h 8 z" /><path
           id="path184"
           style="fill:#404040;fill-opacity:1;fill-rule:nonzero;stroke:none"
           d="m 88,84 h -8 v 8 h 8 z" /><path
           id="path186"
           style="fill:#404040;fill-opacity:1;fill-rule:nonzero;stroke:none"
           d="m 100,84 h -8 v 8 h 8 z" /><path
           id="path188"
           style="fill:#404040;fill-opacity:1;fill-rule:nonzero;stroke:none"
           d="m 112,84 h -8 v 8 h 8 z" /><path
           id="path190"
           style="fill:#404040;fill-opacity:1;fill-rule:nonzero;stroke:none"
           d="m 124,84 h -8 v 8 h 8 z" /><path
           id="path192"
           style="fill:#404040;fill-opacity:1;fill-rule:nonzero;stroke:none"
           d="m 136,84 h -8 v 8 h 8 z" /><path
           id="path194"
           style="fill:#404040;fill-opacity:1;fill-rule:nonzero;stroke:none"
           d="m 148,84 h -8 v 8 h 8 z" /><path
           id="path196"
           style="fill:#404040;fill-opacity:1;fill-rule:nonzero;stroke:none"
           d="m 160,84 h -8 v 8 h 8 z" /><path
           id="path198"
           style="fill:#404040;fill-opacity:1;fill-rule:nonzero;stroke:none"
           d="m 160,60 h -8 v 8 h 8 z" /><path
           id="path200"
           style="fill:#404040;fill-opacity:1;fill-rule:nonzero;stroke:none"
           d="m 48,60 h -8 v 8 h 8 z" /><path
           id="path202"
           style="fill:#404040;fill-opacity:1;fill-rule:nonzero;stroke:none"
           d="m 36,60 h -8 v 8 h 8 z" /><path
           id="path204"
           style="fill:#404040;fill-opacity:1;fill-rule:nonzero;stroke:none"
           d="m 172,84 h -8 v 8 h 8 z" /><path
           id="path206"
           style="fill:#404040;fill-opacity:1;fill-rule:nonzero;stroke:none"
           d="m 184,84 h -8 v 12 h 8 z" /><path
           id="path208"
           style="fill:#404040;fill-opacity:1;fill-rule:nonzero;stroke:none"
           d="m 184,108 h -16 v 8 h 16 z" /><path
           id="path210"
           style="fill:#404040;fill-opacity:1;fill-rule:nonzero;stroke:none"
           d="m 184,72 h -12 v 8 h 12 z" /><path
           id="path212"
           style="fill:#404040;fill-opacity:1;fill-rule:nonzero;stroke:none"
           d="m 184,96 h -12 v 8 h 12 z" /><path
           id="path214"
           style="fill:#404040;fill-opacity:1;fill-rule:nonzero;stroke:none"
           d="m 200,116 h -8 v 8 h 8 z" /><path
           id="path216"
           style="fill:#404040;fill-opacity:1;fill-rule:nonzero;stroke:none"
           d="m 212,116 h -8 v 8 h 8 z" /><path
           id="path218"
           style="fill:#404040;fill-opacity:1;fill-rule:nonzero;stroke:none"
           d="m 224,116 h -8 v 8 h 8 z" /><path
           id="path220"
           style="fill:#404040;fill-opacity:1;fill-rule:nonzero;stroke:none"
           d="m 236,116 h -8 v 8 h 8 z" /><path
           id="path222"
           style="fill:#404040;fill-opacity:1;fill-rule:nonzero;stroke:none"
           d="m 200,104 h -8 v 8 h 8 z" /><path
           id="path224"
           style="fill:#404040;fill-opacity:1;fill-rule:nonzero;stroke:none"
           d="m 212,104 h -8 v 8 h 8 z" /><path
           id="path226"
           style="fill:#404040;fill-opacity:1;fill-rule:nonzero;stroke:none"
           d="m 224,104 h -8 v 8 h 8 z" /><path
           id="path228"
           style="fill:#404040;fill-opacity:1;fill-rule:nonzero;stroke:none"
           d="m 236,104 h -8 v 8 h 8 z" /><path
           id="path230"
           style="fill:#404040;fill-opacity:1;fill-rule:nonzero;stroke:none"
           d="m 200,92 h -8 v 8 h 8 z" /><path
           id="path232"
           style="fill:#404040;fill-opacity:1;fill-rule:nonzero;stroke:none"
           d="m 212,92 h -8 v 8 h 8 z" /><path
           id="path234"
           style="fill:#404040;fill-opacity:1;fill-rule:nonzero;stroke:none"
           d="m 224,92 h -8 v 8 h 8 z" /><path
           id="path236"
           style="fill:#404040;fill-opacity:1;fill-rule:nonzero;stroke:none"
           d="m 236,92 h -8 v 8 h 8 z" /><path
           id="path238"
           style="fill:#404040;fill-opacity:1;fill-rule:nonzero;stroke:none"
           d="m 200,80 h -8 v 8 h 8 z" /><path
           id="path240"
           style="fill:#404040;fill-opacity:1;fill-rule:nonzero;stroke:none"
           d="m 212,80 h -8 v 8 h 8 z" /><path
           id="path242"
           style="fill:#404040;fill-opacity:1;fill-rule:nonzero;stroke:none"
           d="m 224,80 h -8 v 8 h 8 z" /><path
           id="path244"
           style="fill:#404040;fill-opacity:1;fill-rule:nonzero;stroke:none"
           d="m 236,80 h -8 v 8 h 8 z" /><path
           id="path246"
           style="fill:#4c4c4c;fill-opacity:1;fill-rule:nonzero;stroke:none"
           d="M 228,148 H 28 v 20 h 200 z" /><path
           id="path248"
           style="fill:#23282a;fill-opacity:1;fill-rule:nonzero;stroke:none"
           d="M 228,128 H 28 v 20 h 200 z" /><path
           id="path250"
           style="fill:#404040;fill-opacity:1;fill-rule:nonzero;stroke:none"
           d="m 72,152 h 64 v 12 H 72 Z" /><path
           id="path252"
           style="fill:#191919;fill-opacity:1;fill-rule:nonzero;stroke:none"
           d="m 22,200 h -2 v 8 h 2 z" /><path
           id="path254"
           style="fill:#191919;fill-opacity:1;fill-rule:nonzero;stroke:none"
           d="m 22,188 h -2 v 8 h 2 z" /><path
           id="path256"
           style="fill:#191919;fill-opacity:1;fill-rule:nonzero;stroke:none"
           d="m 26,188 h -2 v 8 h 2 z" /><path
           id="path258"
           style="fill:#191919;fill-opacity:1;fill-rule:nonzero;stroke:none"
           d="m 30,188 h -2 v 8 h 2 z" /><path
           id="path260"
           style="fill:#191919;fill-opacity:1;fill-rule:nonzero;stroke:none"
           d="m 34,188 h -2 v 8 h 2 z" /><path
           id="path262"
           style="fill:#191919;fill-opacity:1;fill-rule:nonzero;stroke:none"
           d="m 38,188 h -2 v 8 h 2 z" /><path
           id="path264"
           style="fill:#191919;fill-opacity:1;fill-rule:nonzero;stroke:none"
           d="m 42,188 h -2 v 8 h 2 z" /><path
           id="path266"
           style="fill:#191919;fill-opacity:1;fill-rule:nonzero;stroke:none"
           d="m 46,188 h -2 v 8 h 2 z" /><path
           id="path268"
           style="fill:#191919;fill-opacity:1;fill-rule:nonzero;stroke:none"
           d="m 50,188 h -2 v 8 h 2 z" /><path
           id="path270"
           style="fill:#191919;fill-opacity:1;fill-rule:nonzero;stroke:none"
           d="m 54,188 h -2 v 8 h 2 z" /><path
           id="path272"
           style="fill:#191919;fill-opacity:1;fill-rule:nonzero;stroke:none"
           d="m 58,188 h -2 v 8 h 2 z" /><path
           id="path274"
           style="fill:#191919;fill-opacity:1;fill-rule:nonzero;stroke:none"
           d="m 62,188 h -2 v 8 h 2 z" /><path
           id="path276"
           style="fill:#191919;fill-opacity:1;fill-rule:nonzero;stroke:none"
           d="m 66,188 h -2 v 8 h 2 z" /><path
           id="path278"
           style="fill:#191919;fill-opacity:1;fill-rule:nonzero;stroke:none"
           d="m 70,188 h -2 v 8 h 2 z" /><path
           id="path280"
           style="fill:#191919;fill-opacity:1;fill-rule:nonzero;stroke:none"
           d="m 22,176 h -2 v 8 h 2 z" /><path
           id="path282"
           style="fill:#191919;fill-opacity:1;fill-rule:nonzero;stroke:none"
           d="m 26,176 h -2 v 8 h 2 z" /><path
           id="path284"
           style="fill:#191919;fill-opacity:1;fill-rule:nonzero;stroke:none"
           d="m 30,176 h -2 v 8 h 2 z" /><path
           id="path286"
           style="fill:#191919;fill-opacity:1;fill-rule:nonzero;stroke:none"
           d="m 34,176 h -2 v 8 h 2 z" /><path
           id="path288"
           style="fill:#191919;fill-opacity:1;fill-rule:nonzero;stroke:none"
           d="m 38,176 h -2 v 8 h 2 z" /><path
           id="path290"
           style="fill:#191919;fill-opacity:1;fill-rule:nonzero;stroke:none"
           d="m 42,176 h -2 v 8 h 2 z" /><path
           id="path292"
           style="fill:#191919;fill-opacity:1;fill-rule:nonzero;stroke:none"
           d="m 46,176 h -2 v 8 h 2 z" /><path
           id="path294"
           style="fill:#191919;fill-opacity:1;fill-rule:nonzero;stroke:none"
           d="m 50,176 h -2 v 8 h 2 z" /><path
           id="path296"
           style="fill:#191919;fill-opacity:1;fill-rule:nonzero;stroke:none"
           d="m 54,176 h -2 v 8 h 2 z" /><path
           id="path298"
           style="fill:#191919;fill-opacity:1;fill-rule:nonzero;stroke:none"
           d="m 58,176 h -2 v 8 h 2 z" /><path
           id="path300"
           style="fill:#191919;fill-opacity:1;fill-rule:nonzero;stroke:none"
           d="m 62,176 h -2 v 8 h 2 z" /><path
           id="path302"
           style="fill:#191919;fill-opacity:1;fill-rule:nonzero;stroke:none"
           d="m 66,176 h -2 v 8 h 2 z" /><path
           id="path304"
           style="fill:#191919;fill-opacity:1;fill-rule:nonzero;stroke:none"
           d="m 70,176 h -2 v 8 h 2 z" /><path
           id="path306"
           style="fill:#191919;fill-opacity:1;fill-rule:nonzero;stroke:none"
           d="m 26,200 h -2 v 8 h 2 z" /><path
           id="path308"
           style="fill:#191919;fill-opacity:1;fill-rule:nonzero;stroke:none"
           d="m 30,200 h -2 v 8 h 2 z" /><path
           id="path310"
           style="fill:#191919;fill-opacity:1;fill-rule:nonzero;stroke:none"
           d="m 34,200 h -2 v 8 h 2 z" /><path
           id="path312"
           style="fill:#191919;fill-opacity:1;fill-rule:nonzero;stroke:none"
           d="m 38,200 h -2 v 8 h 2 z" /><path
           id="path314"
           style="fill:#191919;fill-opacity:1;fill-rule:nonzero;stroke:none"
           d="m 42,200 h -2 v 8 h 2 z" /><path
           id="path316"
           style="fill:#191919;fill-opacity:1;fill-rule:nonzero;stroke:none"
           d="m 46,200 h -2 v 8 h 2 z" /><path
           id="path318"
           style="fill:#191919;fill-opacity:1;fill-rule:nonzero;stroke:none"
           d="m 50,200 h -2 v 8 h 2 z" /><path
           id="path320"
           style="fill:#191919;fill-opacity:1;fill-rule:nonzero;stroke:none"
           d="m 54,200 h -2 v 8 h 2 z" /><path
           id="path322"
           style="fill:#191919;fill-opacity:1;fill-rule:nonzero;stroke:none"
           d="m 58,200 h -2 v 8 h 2 z" /><path
           id="path324"
           style="fill:#191919;fill-opacity:1;fill-rule:nonzero;stroke:none"
           d="m 62,200 h -2 v 8 h 2 z" /><path
           id="path326"
           style="fill:#191919;fill-opacity:1;fill-rule:nonzero;stroke:none"
           d="m 66,200 h -2 v 8 h 2 z" /><path
           id="path328"
           style="fill:#191919;fill-opacity:1;fill-rule:nonzero;stroke:none"
           d="m 70,200 h -2 v 8 h 2 z" /><path
           id="path330"
           style="fill:#191919;fill-opacity:1;fill-rule:nonzero;stroke:none"
           d="m 74,200 h -2 v 8 h 2 z" /><path
           id="path332"
           style="fill:#191919;fill-opacity:1;fill-rule:nonzero;stroke:none"
           d="m 78,200 h -2 v 8 h 2 z" /><path
           id="path334"
           style="fill:#191919;fill-opacity:1;fill-rule:nonzero;stroke:none"
           d="m 82,200 h -2 v 8 h 2 z" /><path
           id="path336"
           style="fill:#191919;fill-opacity:1;fill-rule:nonzero;stroke:none"
           d="m 86,200 h -2 v 8 h 2 z" /><path
           id="path338"
           style="fill:#191919;fill-opacity:1;fill-rule:nonzero;stroke:none"
           d="m 90,200 h -2 v 8 h 2 z" /><path
           id="path340"
           style="fill:#191919;fill-opacity:1;fill-rule:nonzero;stroke:none"
           d="m 94,200 h -2 v 8 h 2 z" /><path
           id="path342"
           style="fill:#191919;fill-opacity:1;fill-rule:nonzero;stroke:none"
           d="m 98,200 h -2 v 8 h 2 z" /><path
           id="path344"
           style="fill:#191919;fill-opacity:1;fill-rule:nonzero;stroke:none"
           d="m 102,200 h -2 v 8 h 2 z" /><path
           id="path346"
           style="fill:#191919;fill-opacity:1;fill-rule:nonzero;stroke:none"
           d="m 106,200 h -2 v 8 h 2 z" /><path
           id="path348"
           style="fill:#191919;fill-opacity:1;fill-rule:nonzero;stroke:none"
           d="m 110,200 h -2 v 8 h 2 z" /><path
           id="path350"
           style="fill:#191919;fill-opacity:1;fill-rule:nonzero;stroke:none"
           d="m 114,200 h -2 v 8 h 2 z" /><path
           id="path352"
           style="fill:#191919;fill-opacity:1;fill-rule:nonzero;stroke:none"
           d="m 118,200 h -2 v 8 h 2 z" /><path
           id="path354"
           style="fill:#191919;fill-opacity:1;fill-rule:nonzero;stroke:none"
           d="m 122,200 h -2 v 8 h 2 z" /><path
           id="path356"
           style="fill:#191919;fill-opacity:1;fill-rule:nonzero;stroke:none"
           d="m 126,200 h -2 v 8 h 2 z" /><path
           id="path358"
           style="fill:#191919;fill-opacity:1;fill-rule:nonzero;stroke:none"
           d="m 130,200 h -2 v 8 h 2 z" /><path
           id="path360"
           style="fill:#191919;fill-opacity:1;fill-rule:nonzero;stroke:none"
           d="m 134,200 h -2 v 8 h 2 z" /><path
           id="path362"
           style="fill:#191919;fill-opacity:1;fill-rule:nonzero;stroke:none"
           d="m 138,200 h -2 v 8 h 2 z" /><path
           id="path364"
           style="fill:#191919;fill-opacity:1;fill-rule:nonzero;stroke:none"
           d="m 142,200 h -2 v 8 h 2 z" /><path
           id="path366"
           style="fill:#191919;fill-opacity:1;fill-rule:nonzero;stroke:none"
           d="m 146,200 h -2 v 8 h 2 z" /><path
           id="path368"
           style="fill:#191919;fill-opacity:1;fill-rule:nonzero;stroke:none"
           d="m 150,200 h -2 v 8 h 2 z" /><path
           id="path370"
           style="fill:#191919;fill-opacity:1;fill-rule:nonzero;stroke:none"
           d="m 154,200 h -2 v 8 h 2 z" /><path
           id="path372"
           style="fill:#191919;fill-opacity:1;fill-rule:nonzero;stroke:none"
           d="m 158,200 h -2 v 8 h 2 z" /><path
           id="path374"
           style="fill:#191919;fill-opacity:1;fill-rule:nonzero;stroke:none"
           d="m 162,200 h -2 v 8 h 2 z" /><path
           id="path376"
           style="fill:#191919;fill-opacity:1;fill-rule:nonzero;stroke:none"
           d="m 166,200 h -2 v 8 h 2 z" /><path
           id="path378"
           style="fill:#404040;fill-opacity:1;fill-rule:nonzero;stroke:none"
           d="m 232,156 h 12 v 44 h -12 z" /></g></g></g></svg>