<svg xmlns="http://www.w3.org/2000/svg" xml:space="preserve" width="330.667" height="234.667" viewBox="0 0 330.667 234.667"><defs><clipPath id="a" clipPathUnits="userSpaceOnUse"><path d="M0 256h256V0H0Z"/></clipPath><clipPath id="b" clipPathUnits="userSpaceOnUse"><path d="M4 216h248V40H4Z"/></clipPath><clipPath id="c" clipPathUnits="userSpaceOnUse"><path d="M0 256h256V0H0Z"/></clipPath></defs><g clip-path="url(#a)" transform="matrix(1.33333 0 0 -1.33333 -5.333 288)"><g clip-path="url(#b)" style="opacity:.5"><path d="M237.458 136v8zM248 208v8H4V40h244v108h4v60z" style="fill:#fff;fill-opacity:1;fill-rule:nonzero;stroke:none"/></g></g><path d="M236 132H16v16h220z" style="fill:#333;fill-opacity:1;fill-rule:nonzero;stroke:none" transform="matrix(1.33333 0 0 -1.33333 -5.333 288)"/><path d="M240 48H12v88h228z" style="fill:#4c4c4c;fill-opacity:1;fill-rule:nonzero;stroke:none" transform="matrix(1.33333 0 0 -1.33333 -5.333 288)"/><path d="M240 144H12v64h228z" style="fill:#595959;fill-opacity:1;fill-rule:nonzero;stroke:none" transform="matrix(1.33333 0 0 -1.33333 -5.333 288)"/><g clip-path="url(#c)" transform="matrix(1.33333 0 0 -1.33333 -5.333 288)"><path d="M0 0h-10a1 1 0 0 0-1 1v2a1 1 0 0 0 1 1H0a1 1 0 0 0 1-1V1a1 1 0 0 0-1-1" style="fill:#404040;fill-opacity:1;fill-rule:nonzero;stroke:none" transform="translate(35 120)"/><path d="M0 0h-10a1 1 0 0 0-1 1v2a1 1 0 0 0 1 1H0a1 1 0 0 0 1-1V1a1 1 0 0 0-1-1" style="fill:#404040;fill-opacity:1;fill-rule:nonzero;stroke:none" transform="translate(51 120)"/><path d="M0 0h-10a1 1 0 0 0-1 1v2a1 1 0 0 0 1 1H0a1 1 0 0 0 1-1V1a1 1 0 0 0-1-1" style="fill:#404040;fill-opacity:1;fill-rule:nonzero;stroke:none" transform="translate(67 120)"/><path d="M0 0h-10a1 1 0 0 0-1 1v2a1 1 0 0 0 1 1H0a1 1 0 0 0 1-1V1a1 1 0 0 0-1-1" style="fill:#404040;fill-opacity:1;fill-rule:nonzero;stroke:none" transform="translate(83 120)"/><path d="M0 0h-10a1 1 0 0 0-1 1v2a1 1 0 0 0 1 1H0a1 1 0 0 0 1-1V1a1 1 0 0 0-1-1" style="fill:#404040;fill-opacity:1;fill-rule:nonzero;stroke:none" transform="translate(99 120)"/><path d="M0 0h-10a1 1 0 0 0-1 1v2a1 1 0 0 0 1 1H0a1 1 0 0 0 1-1V1a1 1 0 0 0-1-1" style="fill:#404040;fill-opacity:1;fill-rule:nonzero;stroke:none" transform="translate(115 120)"/><path d="M0 0h-10a1 1 0 0 0-1 1v2a1 1 0 0 0 1 1H0a1 1 0 0 0 1-1V1a1 1 0 0 0-1-1" style="fill:#404040;fill-opacity:1;fill-rule:nonzero;stroke:none" transform="translate(131 120)"/><path d="M0 0h-10a1 1 0 0 0-1 1v2a1 1 0 0 0 1 1H0a1 1 0 0 0 1-1V1a1 1 0 0 0-1-1" style="fill:#404040;fill-opacity:1;fill-rule:nonzero;stroke:none" transform="translate(155 120)"/><path d="M0 0h-10a1 1 0 0 0-1 1v2a1 1 0 0 0 1 1H0a1 1 0 0 0 1-1V1a1 1 0 0 0-1-1" style="fill:#f1c40f;fill-opacity:1;fill-rule:nonzero;stroke:none" transform="translate(171 120)"/><path d="M0 0a2 2 0 1 0-3.999-.001A2 2 0 0 0 0 0" style="fill:red;fill-opacity:1;fill-rule:nonzero;stroke:none" transform="translate(180 122)"/><path d="M0 0h-8.178v-20H0L5.731-9.512z" style="fill:#404040;fill-opacity:1;fill-rule:nonzero;stroke:none" transform="translate(200.178 76)"/><path d="M0 0h8.178v-20H0L-5.731-9.512z" style="fill:#404040;fill-opacity:1;fill-rule:nonzero;stroke:none" transform="translate(227.822 76)"/><path d="m0 0 5.487-9.512h12.861L24.112 0Z" style="fill:#404040;fill-opacity:1;fill-rule:nonzero;stroke:none" transform="translate(201.855 76)"/><path d="m0 0-5.487 9.512h-12.861L-24.112 0Z" style="fill:#404040;fill-opacity:1;fill-rule:nonzero;stroke:none" transform="translate(225.967 56)"/><path d="M32 108h-8v8h8zm12 0h-8v8h8zm12 0h-8v8h8zm12 0h-8v8h8zm12 0h-8v8h8zm12 0h-8v8h8zm12 0h-8v8h8zm12 0h-8v8h8zm12 0h-8v8h8zm12 0h-8v8h8zm12 0h-8v8h8zm12 0h-8v8h8zM48 96h-8v8h8zm-12 0H24v8h12zm4-12H24v8h16zm8-12H24v8h24zm12 24h-8v8h8zm12 0h-8v8h8zm12 0h-8v8h8zm12 0h-8v8h8zm12 0h-8v8h8zm12 0h-8v8h8zm12 0h-8v8h8zm12 0h-8v8h8zm12 0h-8v8h8zm12 0h-8v8h8zM60 72h-8v8h8zm88-12H52v8h96zM72 72h-8v8h8zm12 0h-8v8h8zm12 0h-8v8h8zm12 0h-8v8h8zm12 0h-8v8h8zm12 0h-8v8h8zm12 0h-8v8h8zm12 0h-8v8h8zm12 0h-8v8h8zM52 84h-8v8h8zm12 0h-8v8h8zm12 0h-8v8h8zm12 0h-8v8h8zm12 0h-8v8h8zm12 0h-8v8h8zm12 0h-8v8h8zm12 0h-8v8h8zm12 0h-8v8h8zm12 0h-8v8h8zm0-24h-8v8h8zM48 60h-8v8h8zm-12 0h-8v8h8zm136 24h-8v8h8zm12 0h-8v12h8zm0 24h-16v8h16zm0-36h-12v8h12zm0 24h-12v8h12zm16 20h-8v8h8zm12 0h-8v8h8zm12 0h-8v8h8zm12 0h-8v8h8zm-36-12h-8v8h8zm12 0h-8v8h8zm12 0h-8v8h8zm12 0h-8v8h8zm-36-12h-8v8h8zm12 0h-8v8h8zm12 0h-8v8h8zm12 0h-8v8h8zm-36-12h-8v8h8zm12 0h-8v8h8zm12 0h-8v8h8zm12 0h-8v8h8z" style="fill:#404040;fill-opacity:1;fill-rule:nonzero;stroke:none"/><path d="M228 148H28v20h200z" style="fill:#4c4c4c;fill-opacity:1;fill-rule:nonzero;stroke:none"/><path d="M228 128H28v20h200z" style="fill:#23282a;fill-opacity:1;fill-rule:nonzero;stroke:none"/><path d="M72 152h64v12H72Z" style="fill:#404040;fill-opacity:1;fill-rule:nonzero;stroke:none"/><path d="M22 200h-2v8h2zm0-12h-2v8h2zm4 0h-2v8h2zm4 0h-2v8h2zm4 0h-2v8h2zm4 0h-2v8h2zm4 0h-2v8h2zm4 0h-2v8h2zm4 0h-2v8h2zm4 0h-2v8h2zm4 0h-2v8h2zm4 0h-2v8h2zm4 0h-2v8h2zm4 0h-2v8h2zm-48-12h-2v8h2zm4 0h-2v8h2zm4 0h-2v8h2zm4 0h-2v8h2zm4 0h-2v8h2zm4 0h-2v8h2zm4 0h-2v8h2zm4 0h-2v8h2zm4 0h-2v8h2zm4 0h-2v8h2zm4 0h-2v8h2zm4 0h-2v8h2zm4 0h-2v8h2zm-44 24h-2v8h2zm4 0h-2v8h2zm4 0h-2v8h2zm4 0h-2v8h2zm4 0h-2v8h2zm4 0h-2v8h2zm4 0h-2v8h2zm4 0h-2v8h2zm4 0h-2v8h2zm4 0h-2v8h2zm4 0h-2v8h2zm4 0h-2v8h2zm4 0h-2v8h2zm4 0h-2v8h2zm4 0h-2v8h2zm4 0h-2v8h2zm4 0h-2v8h2zm4 0h-2v8h2zm4 0h-2v8h2zm4 0h-2v8h2zm4 0h-2v8h2zm4 0h-2v8h2zm4 0h-2v8h2zm4 0h-2v8h2zm4 0h-2v8h2zm4 0h-2v8h2zm4 0h-2v8h2zm4 0h-2v8h2zm4 0h-2v8h2zm4 0h-2v8h2zm4 0h-2v8h2zm4 0h-2v8h2zm4 0h-2v8h2zm4 0h-2v8h2zm4 0h-2v8h2zm4 0h-2v8h2z" style="fill:#191919;fill-opacity:1;fill-rule:nonzero;stroke:none"/><path d="M232 156h12v44h-12z" style="fill:#404040;fill-opacity:1;fill-rule:nonzero;stroke:none"/></g></svg>