<svg xmlns="http://www.w3.org/2000/svg" xml:space="preserve" width="330.666" height="245.333" viewBox="0 0 330.666 245.333"><defs><clipPath id="a" clipPathUnits="userSpaceOnUse"><path d="M0 256h256V0H0Z"/></clipPath><clipPath id="b" clipPathUnits="userSpaceOnUse"><path d="M4 220h248V36H4Z"/></clipPath></defs><g clip-path="url(#a)" transform="matrix(1.33333 0 0 -1.33333 -5.333 293.333)"><g clip-path="url(#b)" style="opacity:.5"><path d="m0 0 .004.001-13.344 36.695v78.591c0 13.234-10.766 24-24 24h-168c-13.233 0-24-10.766-24-24V36.696L-242.684.001l.004-.001c-1.056-2.889-2.66-10.418-2.66-12.713 0-17.644 14.355-32 32-32 7.115 0 13.865 2.316 19.37 6.52a9.96 9.96 0 0 1 6.63-2.52h16a9.95 9.95 0 0 1 6 2.005 9.95 9.95 0 0 1 6-2.005h16a9.99 9.99 0 0 1 7.995 4h28.01a9.99 9.99 0 0 1 7.995-4h16a9.95 9.95 0 0 1 6 2.005 9.95 9.95 0 0 1 6-2.005h16a9.96 9.96 0 0 1 6.63 2.52c5.505-4.204 12.256-6.52 19.37-6.52 17.645 0 32 14.356 32 32C2.66-10.418 1.056-2.889 0 0" style="fill:#fff;fill-opacity:1;fill-rule:nonzero;stroke:none" transform="translate(249.34 80.713)"/></g><path d="M0 0h-16a2 2 0 0 0-2 2v6H2V2a2 2 0 0 0-2-2" style="fill:#bfbfbf;fill-opacity:1;fill-rule:nonzero;stroke:none" transform="translate(194 48)"/><path d="M0 0h-16a2 2 0 0 0-2 2v6H2V2a2 2 0 0 0-2-2" style="fill:#bfbfbf;fill-opacity:1;fill-rule:nonzero;stroke:none" transform="translate(78 48)"/><path d="M0 0c-1.364 0-2.699-.12-4-.338V24h-4l-13.825-38.02C-22.356-15.18-24-22.637-24-24c0-13.255 10.745-24 24-24s24 10.745 24 24S13.255 0 0 0" style="fill:#333;fill-opacity:1;fill-rule:nonzero;stroke:none" transform="translate(36 92)"/><path d="m0 0-13.825 38.02h-4V13.682a24.3 24.3 0 0 1-4 .338c-13.255 0-24-10.746-24-24 0-13.255 10.745-24 24-24s24 10.745 24 24C2.175-8.617.531-1.16 0 0" style="fill:#333;fill-opacity:1;fill-rule:nonzero;stroke:none" transform="translate(241.825 77.98)"/><path d="M0 0h-168c-8.8 0-16-7.2-16-16v-124c0-7.418 5.123-13.68 12-15.47l16.074-3.64a36 36 0 0 1 7.952-.89h127.948c2.675 0 5.343.298 7.953.89L4-155.47c6.877 1.79 12 8.052 12 15.47v124C16-7.2 8.8 0 0 0" style="fill:#404040;fill-opacity:1;fill-rule:nonzero;stroke:none" transform="translate(212 212)"/><path d="M0 0h-40c-4.4 0-8-3.6-8-8v-24c0-4.4 3.6-8 8-8H0c4.4 0 8 3.6 8 8v24c0 4.4-3.6 8-8 8m0-2c3.309 0 6-2.691 6-6v-24c0-3.309-2.691-6-6-6h-40c-3.309 0-6 2.691-6 6v24c0 3.309 2.691 6 6 6z" style="fill:#333;fill-opacity:1;fill-rule:nonzero;stroke:none" transform="translate(148 100)"/><path d="M0 0c-5.5 0-10 4.5-10 10v20c0 5.5 4.5 10 10 10s10-4.5 10-10V10C10 4.5 5.5 0 0 0" style="fill:#333;fill-opacity:1;fill-rule:nonzero;stroke:none" transform="translate(190 64)"/><path d="M0 0c-5.5 0-10 4.5-10 10v12c0 5.5 4.5 10 10 10s10-4.5 10-10V10C10 4.5 5.5 0 0 0" style="fill:#4c4c4c;fill-opacity:1;fill-rule:nonzero;stroke:none" transform="translate(190 64)"/><path d="M0 0c-5.5 0-10 4.5-10 10v20c0 5.5 4.5 10 10 10s10-4.5 10-10V10C10 4.5 5.5 0 0 0" style="fill:#333;fill-opacity:1;fill-rule:nonzero;stroke:none" transform="translate(66 64)"/><path d="M0 0c-5.5 0-10 4.5-10 10v12c0 5.5 4.5 10 10 10s10-4.5 10-10V10C10 4.5 5.5 0 0 0" style="fill:#4c4c4c;fill-opacity:1;fill-rule:nonzero;stroke:none" transform="translate(66 64)"/><path d="M76 78H56v4h20z" style="fill:#333;fill-opacity:1;fill-rule:nonzero;stroke:none"/><path d="M0 0h-16a2 2 0 0 0-2 2v2H2V2a2 2 0 0 0-2-2" style="fill:#bfbfbf;fill-opacity:1;fill-rule:nonzero;stroke:none" transform="translate(106 48)"/><path d="M0 0h-16a2 2 0 0 0-2 2v2H2V2a2 2 0 0 0-2-2" style="fill:#bfbfbf;fill-opacity:1;fill-rule:nonzero;stroke:none" transform="translate(166 48)"/><path d="m0 0 11.129-63.067c1.069-6.056 3.809-11.721 8.037-16.186C26.517-87.019 40.868-95.953 68-95.97c27.145-.017 41.497 8.93 48.845 16.709 4.218 4.465 6.954 10.121 8.021 16.171L136 0Z" style="fill:#333;fill-opacity:1;fill-rule:nonzero;stroke:none" transform="translate(60 212)"/><path d="M0 0h-96a8 8 0 0 0-8 8v10a2 2 0 0 0 2 2H6a2 2 0 0 0 2-2V8a8 8 0 0 0-8-8" style="fill:#bfbfbf;fill-opacity:1;fill-rule:nonzero;stroke:none" transform="translate(176 152)"/><path d="M0 0a43 43 0 0 1 4-2.82v14.917H0Z" style="fill:#262626;fill-opacity:1;fill-rule:nonzero;stroke:none" transform="translate(86 131.903)"/><path d="M0 0h-4v-23.948c.661-.012 1.325-.022 2.002-.022h.075c.651 0 1.288.009 1.923.02z" style="fill:#262626;fill-opacity:1;fill-rule:nonzero;stroke:none" transform="translate(130 144)"/><path d="M0 0a53 53 0 0 1 4-1.784v18.937H0Z" style="fill:#262626;fill-opacity:1;fill-rule:nonzero;stroke:none" transform="translate(94 126.847)"/><path d="M0 0a42 42 0 0 1 4 2.823v12.12H0Z" style="fill:#262626;fill-opacity:1;fill-rule:nonzero;stroke:none" transform="translate(166 129.057)"/><path d="M0 0a26.5 26.5 0 0 1 4 5.6v2.843H0Z" style="fill:#262626;fill-opacity:1;fill-rule:nonzero;stroke:none" transform="translate(174 135.557)"/><path d="M0 0a66 66 0 0 1 4-1.13v21.495H0Z" style="fill:#262626;fill-opacity:1;fill-rule:nonzero;stroke:none" transform="translate(102 123.635)"/><path d="M0 0a53 53 0 0 1 4 1.784v17.179H0Z" style="fill:#262626;fill-opacity:1;fill-rule:nonzero;stroke:none" transform="translate(158 125.037)"/><path d="M0 0q2.092.522 4 1.128v20.39H0Z" style="fill:#262626;fill-opacity:1;fill-rule:nonzero;stroke:none" transform="translate(150 122.482)"/><path d="M0 0a26.4 26.4 0 0 1 4-5.594v8.423H0Z" style="fill:#262626;fill-opacity:1;fill-rule:nonzero;stroke:none" transform="translate(78 141.171)"/><path d="M0 0a81 81 0 0 1 4 .659v22.394H0Z" style="fill:#262626;fill-opacity:1;fill-rule:nonzero;stroke:none" transform="translate(142 120.947)"/><path d="M0 0q2.059.11 4 .292V23.81H0Z" style="fill:#262626;fill-opacity:1;fill-rule:nonzero;stroke:none" transform="translate(134 120.19)"/><path d="M0 0a81 81 0 0 1 4-.661v23.036H0Z" style="fill:#262626;fill-opacity:1;fill-rule:nonzero;stroke:none" transform="translate(110 121.625)"/><path d="M0 0a100 100 0 0 1 4-.298v23.803H0Z" style="fill:#262626;fill-opacity:1;fill-rule:nonzero;stroke:none" transform="translate(118 120.495)"/><path d="M0 0h-12a2 2 0 0 0-2 2v6H2V2a2 2 0 0 0-2-2" style="fill:#333;fill-opacity:1;fill-rule:nonzero;stroke:none" transform="translate(134 92)"/><path d="M134 94h-12v4h12z" style="fill:#404040;fill-opacity:1;fill-rule:nonzero;stroke:none"/><path d="M0 0a1 1 0 1 0-2 0 1 1 0 0 0 2 0" style="fill:#4c4c4c;fill-opacity:1;fill-rule:nonzero;stroke:none" transform="translate(120 90)"/><path d="M0 0a1 1 0 1 0-2 0 1 1 0 0 0 2 0" style="fill:#4c4c4c;fill-opacity:1;fill-rule:nonzero;stroke:none" transform="translate(126 90)"/><path d="M0 0a1 1 0 1 0-2 0 1 1 0 1 0 2 0" style="fill:#4c4c4c;fill-opacity:1;fill-rule:nonzero;stroke:none" transform="translate(132 90)"/><path d="M0 0a1 1 0 1 0-2 0 1 1 0 1 0 2 0" style="fill:#4c4c4c;fill-opacity:1;fill-rule:nonzero;stroke:none" transform="translate(138 90)"/><path d="M86 152h-2v20h2zm86 0h-2v20h2z" style="fill:#b3b3b3;fill-opacity:1;fill-rule:nonzero;stroke:none"/><path d="M184 161H72v2h112z" style="fill:#a6a6a6;fill-opacity:1;fill-rule:nonzero;stroke:none"/></g></svg>