<?xml version="1.0" encoding="UTF-8" standalone="no"?>
<svg
   xmlns:dc="http://purl.org/dc/elements/1.1/"
   xmlns:cc="http://creativecommons.org/ns#"
   xmlns:rdf="http://www.w3.org/1999/02/22-rdf-syntax-ns#"
   xmlns:svg="http://www.w3.org/2000/svg"
   xmlns="http://www.w3.org/2000/svg"
   viewBox="0 0 320 330.66665"
   height="330.66666"
   width="320"
   xml:space="preserve"
   id="svg2"
   version="1.1"><metadata
     id="metadata8"><rdf:RDF><cc:Work
         rdf:about=""><dc:format>image/svg+xml</dc:format><dc:type
           rdf:resource="http://purl.org/dc/dcmitype/StillImage" /></cc:Work></rdf:RDF></metadata><defs
     id="defs6"><clipPath
       id="clipPath18"
       clipPathUnits="userSpaceOnUse"><path
         id="path16"
         d="M 0,256 H 256 V 0 H 0 Z" /></clipPath><clipPath
       id="clipPath26"
       clipPathUnits="userSpaceOnUse"><path
         id="path24"
         d="M 8,252 H 248 V 4 H 8 Z" /></clipPath></defs><g
     transform="matrix(1.3333333,0,0,-1.3333333,-10.666666,335.99999)"
     id="g10"><g
       id="g12"><g
         clip-path="url(#clipPath18)"
         id="g14"><g
           id="g20"><g
             id="g22" /><g
             id="g34"><g
               style="opacity:0.5"
               id="g32"
               clip-path="url(#clipPath26)"><g
                 id="g30"
                 transform="translate(248,236)"><path
                   id="path28"
                   style="fill:#ffffff;fill-opacity:1;fill-rule:nonzero;stroke:none"
                   d="m 0,0 c 0,8.822 -7.178,16 -16,16 h -208 c -8.822,0 -16,-7.178 -16,-16 v -98 c 0,-1.573 0.365,-3.063 1.016,-4.389 -0.657,-1.747 -1.016,-3.637 -1.016,-5.611 0,-0.367 0.014,-0.735 0.041,-1.106 -0.027,-0.298 -0.041,-0.596 -0.041,-0.894 v -106 c 0,-8.822 7.178,-16 16,-16 h 208 c 8.822,0 16,7.178 16,16 v 106 c 0,0.298 -0.014,0.596 -0.041,0.894 0.027,0.371 0.041,0.739 0.041,1.106 0,1.974 -0.359,3.864 -1.016,5.611 C -0.365,-101.063 0,-99.573 0,-98 Z" /></g></g></g></g><g
           transform="translate(18,128)"
           id="g36"><path
             id="path38"
             style="fill:#e6e6e6;fill-opacity:1;fill-rule:nonzero;stroke:none"
             d="m 0,0 h 220 c 1.104,0 2,-0.896 2,-2 v -106 c 0,-4.418 -3.582,-8 -8,-8 H 6 c -4.418,0 -8,3.582 -8,8 V -2 c 0,1.104 0.896,2 2,2" /></g><g
           transform="translate(188,20)"
           id="g40"><path
             id="path42"
             style="fill:#d9d9d9;fill-opacity:1;fill-rule:nonzero;stroke:none"
             d="m 0,0 h -120 c -2.209,0 -4,1.791 -4,4 v 96 H 4 V 4 C 4,1.791 2.209,0 0,0" /></g><g
           transform="translate(238,136)"
           id="g44"><path
             id="path46"
             style="fill:#d9d9d9;fill-opacity:1;fill-rule:nonzero;stroke:none"
             d="m 0,0 h -220 c -1.104,0 -2,0.896 -2,2 v 98 c 0,4.418 3.582,8 8,8 H -6 c 4.418,0 8,-3.582 8,-8 V 2 C 2,0.896 1.104,0 0,0" /></g><g
           transform="translate(234,136)"
           id="g48"><path
             id="path50"
             style="fill:#e6e6e6;fill-opacity:1;fill-rule:nonzero;stroke:none"
             d="m 0,0 h -212 c -1.104,0 -2,0.896 -2,2 v 94 c 0,4.418 3.582,8 8,8 H -6 c 4.418,0 8,-3.582 8,-8 V 2 C 2,0.896 1.104,0 0,0" /></g><g
           transform="translate(180,144)"
           id="g52"><path
             id="path54"
             style="fill:#d9d9d9;fill-opacity:1;fill-rule:nonzero;stroke:none"
             d="m 0,0 h -104 c -2.209,0 -4,1.791 -4,4 v 80 c 0,2.209 1.791,4 4,4 H 0 c 2.209,0 4,-1.791 4,-4 V 4 C 4,1.791 2.209,0 0,0" /></g><path
           id="path56"
           style="fill:#191919;fill-opacity:1;fill-rule:nonzero;stroke:none"
           d="M 180,148 H 76 v 80 h 104 z" /><g
           transform="translate(51,228)"
           id="g58"><path
             id="path60"
             style="fill:#d9d9d9;fill-opacity:1;fill-rule:nonzero;stroke:none"
             d="m 0,0 h -6 c -0.552,0 -1,0.448 -1,1 v 6 c 0,0.552 0.448,1 1,1 H 0 C 0.552,8 1,7.552 1,7 V 1 C 1,0.448 0.552,0 0,0" /></g><g
           transform="translate(51,140)"
           id="g62"><path
             id="path64"
             style="fill:#d9d9d9;fill-opacity:1;fill-rule:nonzero;stroke:none"
             d="m 0,0 h -6 c -0.552,0 -1,0.448 -1,1 v 6 c 0,0.552 0.448,1 1,1 H 0 C 0.552,8 1,7.552 1,7 V 1 C 1,0.448 0.552,0 0,0" /></g><g
           transform="translate(211,228)"
           id="g66"><path
             id="path68"
             style="fill:#d9d9d9;fill-opacity:1;fill-rule:nonzero;stroke:none"
             d="m 0,0 h -6 c -0.553,0 -1,0.448 -1,1 v 6 c 0,0.552 0.447,1 1,1 H 0 C 0.553,8 1,7.552 1,7 V 1 C 1,0.448 0.553,0 0,0" /></g><g
           transform="translate(211,140)"
           id="g70"><path
             id="path72"
             style="fill:#d9d9d9;fill-opacity:1;fill-rule:nonzero;stroke:none"
             d="m 0,0 h -6 c -0.553,0 -1,0.448 -1,1 v 6 c 0,0.552 0.447,1 1,1 H 0 C 0.553,8 1,7.552 1,7 V 1 C 1,0.448 0.553,0 0,0" /></g><g
           transform="translate(20,220)"
           id="g74"><path
             id="path76"
             style="fill:#cccccc;fill-opacity:1;fill-rule:nonzero;stroke:none"
             d="m 0,0 v 0 c -1.1,0 -2,0.9 -2,2 v 12 c 0,1.1 0.9,2 2,2 1.1,0 2,-0.9 2,-2 V 2 C 2,0.9 1.1,0 0,0" /></g><g
           transform="translate(236,220)"
           id="g78"><path
             id="path80"
             style="fill:#cccccc;fill-opacity:1;fill-rule:nonzero;stroke:none"
             d="m 0,0 v 0 c -1.1,0 -2,0.9 -2,2 v 12 c 0,1.1 0.9,2 2,2 1.1,0 2,-0.9 2,-2 V 2 C 2,0.9 1.1,0 0,0" /></g><g
           transform="translate(35,190)"
           id="g82"><path
             id="path84"
             style="fill:#191919;fill-opacity:1;fill-rule:nonzero;stroke:none"
             d="M 0,0 V 0 C -0.55,0 -1,0.45 -1,1 -1,1.55 -0.55,2 0,2 0.55,2 1,1.55 1,1 1,0.45 0.55,0 0,0" /></g><g
           transform="translate(43,190)"
           id="g86"><path
             id="path88"
             style="fill:#191919;fill-opacity:1;fill-rule:nonzero;stroke:none"
             d="M 0,0 V 0 C -0.55,0 -1,0.45 -1,1 -1,1.55 -0.55,2 0,2 0.55,2 1,1.55 1,1 1,0.45 0.55,0 0,0" /></g><g
           transform="translate(51,190)"
           id="g90"><path
             id="path92"
             style="fill:#191919;fill-opacity:1;fill-rule:nonzero;stroke:none"
             d="M 0,0 V 0 C -0.55,0 -1,0.45 -1,1 -1,1.55 -0.55,2 0,2 0.55,2 1,1.55 1,1 1,0.45 0.55,0 0,0" /></g><g
           transform="translate(35,182)"
           id="g94"><path
             id="path96"
             style="fill:#191919;fill-opacity:1;fill-rule:nonzero;stroke:none"
             d="M 0,0 V 0 C -0.55,0 -1,0.45 -1,1 -1,1.55 -0.55,2 0,2 0.55,2 1,1.55 1,1 1,0.45 0.55,0 0,0" /></g><g
           transform="translate(43,182)"
           id="g98"><path
             id="path100"
             style="fill:#191919;fill-opacity:1;fill-rule:nonzero;stroke:none"
             d="M 0,0 V 0 C -0.55,0 -1,0.45 -1,1 -1,1.55 -0.55,2 0,2 0.55,2 1,1.55 1,1 1,0.45 0.55,0 0,0" /></g><g
           transform="translate(51,182)"
           id="g102"><path
             id="path104"
             style="fill:#191919;fill-opacity:1;fill-rule:nonzero;stroke:none"
             d="M 0,0 V 0 C -0.55,0 -1,0.45 -1,1 -1,1.55 -0.55,2 0,2 0.55,2 1,1.55 1,1 1,0.45 0.55,0 0,0" /></g><g
           transform="translate(205,190)"
           id="g106"><path
             id="path108"
             style="fill:#191919;fill-opacity:1;fill-rule:nonzero;stroke:none"
             d="M 0,0 V 0 C -0.55,0 -1,0.45 -1,1 -1,1.55 -0.55,2 0,2 0.55,2 1,1.55 1,1 1,0.45 0.55,0 0,0" /></g><g
           transform="translate(213,190)"
           id="g110"><path
             id="path112"
             style="fill:#191919;fill-opacity:1;fill-rule:nonzero;stroke:none"
             d="M 0,0 V 0 C -0.55,0 -1,0.45 -1,1 -1,1.55 -0.55,2 0,2 0.55,2 1,1.55 1,1 1,0.45 0.55,0 0,0" /></g><g
           transform="translate(221,190)"
           id="g114"><path
             id="path116"
             style="fill:#191919;fill-opacity:1;fill-rule:nonzero;stroke:none"
             d="M 0,0 V 0 C -0.55,0 -1,0.45 -1,1 -1,1.55 -0.55,2 0,2 0.55,2 1,1.55 1,1 1,0.45 0.55,0 0,0" /></g><g
           transform="translate(205,182)"
           id="g118"><path
             id="path120"
             style="fill:#191919;fill-opacity:1;fill-rule:nonzero;stroke:none"
             d="M 0,0 V 0 C -0.55,0 -1,0.45 -1,1 -1,1.55 -0.55,2 0,2 0.55,2 1,1.55 1,1 1,0.45 0.55,0 0,0" /></g><g
           transform="translate(213,182)"
           id="g122"><path
             id="path124"
             style="fill:#191919;fill-opacity:1;fill-rule:nonzero;stroke:none"
             d="M 0,0 V 0 C -0.55,0 -1,0.45 -1,1 -1,1.55 -0.55,2 0,2 0.55,2 1,1.55 1,1 1,0.45 0.55,0 0,0" /></g><g
           transform="translate(221,182)"
           id="g126"><path
             id="path128"
             style="fill:#191919;fill-opacity:1;fill-rule:nonzero;stroke:none"
             d="M 0,0 V 0 C -0.55,0 -1,0.45 -1,1 -1,1.55 -0.55,2 0,2 0.55,2 1,1.55 1,1 1,0.45 0.55,0 0,0" /></g><g
           transform="translate(232,120)"
           id="g130"><path
             id="path132"
             style="fill:#cccccc;fill-opacity:1;fill-rule:nonzero;stroke:none"
             d="m 0,0 h -208 c -4.4,0 -8,3.6 -8,8 0,4.4 3.6,8 8,8 H 0 C 4.4,16 8,12.4 8,8 8,3.6 4.4,0 0,0" /></g><g
           transform="translate(127,124)"
           id="g134"><path
             id="path136"
             style="fill:#bfbfbf;fill-opacity:1;fill-rule:nonzero;stroke:none"
             d="M 0,0 V 0 C -0.552,0 -1,0.447 -1,1 V 7 C -1,7.552 -0.552,8 0,8 0.552,8 1,7.552 1,7 V 1 C 1,0.447 0.552,0 0,0" /></g><g
           transform="translate(223,124)"
           id="g138"><path
             id="path140"
             style="fill:#d9d9d9;fill-opacity:1;fill-rule:nonzero;stroke:none"
             d="M 0,0 V 0 C -0.553,0 -1,0.447 -1,1 V 7 C -1,7.552 -0.553,8 0,8 0.553,8 1,7.552 1,7 V 1 C 1,0.447 0.553,0 0,0" /></g><g
           transform="translate(227,124)"
           id="g142"><path
             id="path144"
             style="fill:#00ff00;fill-opacity:1;fill-rule:nonzero;stroke:none"
             d="M 0,0 V 0 C -0.553,0 -1,0.447 -1,1 V 7 C -1,7.552 -0.553,8 0,8 0.553,8 1,7.552 1,7 V 1 C 1,0.447 0.553,0 0,0" /></g><path
           id="path146"
           style="fill:#bfbfbf;fill-opacity:1;fill-rule:nonzero;stroke:none"
           d="m 44,120 h -2 v 16 h 2 z" /><path
           id="path148"
           style="fill:#bfbfbf;fill-opacity:1;fill-rule:nonzero;stroke:none"
           d="m 212,120 h -2 v 16 h 2 z" /><path
           id="path150"
           style="fill:#e6e6e6;fill-opacity:1;fill-rule:nonzero;stroke:none"
           d="M 184,112 H 72 v 8 h 112 z" /><g
           transform="translate(212.5,63.5)"
           id="g152"><path
             id="path154"
             style="fill:#cccccc;fill-opacity:1;fill-rule:nonzero;stroke:none"
             d="m 0,0 c -3.859,0 -7,3.141 -7,7 0,3.859 3.141,7 7,7 C 3.859,14 7,10.859 7,7 7,3.141 3.859,0 0,0" /></g><g
           transform="translate(212.5,76.5)"
           id="g156"><path
             id="path158"
             style="fill:#e6e6e6;fill-opacity:1;fill-rule:nonzero;stroke:none"
             d="m 0,0 c -3.309,0 -6,-2.691 -6,-6 0,-3.309 2.691,-6 6,-6 3.309,0 6,2.691 6,6 0,3.309 -2.691,6 -6,6" /></g><g
           transform="translate(212.5,89.5)"
           id="g160"><path
             id="path162"
             style="fill:#cccccc;fill-opacity:1;fill-rule:nonzero;stroke:none"
             d="m 0,0 c -3.859,0 -7,3.141 -7,7 0,3.859 3.141,7 7,7 C 3.859,14 7,10.859 7,7 7,3.141 3.859,0 0,0" /></g><g
           transform="translate(212.5,102.5)"
           id="g164"><path
             id="path166"
             style="fill:#e6e6e6;fill-opacity:1;fill-rule:nonzero;stroke:none"
             d="m 0,0 c -3.309,0 -6,-2.691 -6,-6 0,-3.309 2.691,-6 6,-6 3.309,0 6,2.691 6,6 0,3.309 -2.691,6 -6,6" /></g><g
           transform="translate(199.5,76.5)"
           id="g168"><path
             id="path170"
             style="fill:#cccccc;fill-opacity:1;fill-rule:nonzero;stroke:none"
             d="m 0,0 c -3.859,0 -7,3.141 -7,7 0,3.859 3.141,7 7,7 C 3.859,14 7,10.859 7,7 7,3.141 3.859,0 0,0" /></g><g
           transform="translate(199.5,89.5)"
           id="g172"><path
             id="path174"
             style="fill:#e6e6e6;fill-opacity:1;fill-rule:nonzero;stroke:none"
             d="m 0,0 c -3.309,0 -6,-2.691 -6,-6 0,-3.309 2.691,-6 6,-6 3.309,0 6,2.691 6,6 0,3.309 -2.691,6 -6,6" /></g><g
           transform="translate(225.5,76.5)"
           id="g176"><path
             id="path178"
             style="fill:#cccccc;fill-opacity:1;fill-rule:nonzero;stroke:none"
             d="m 0,0 c -3.859,0 -7,3.141 -7,7 0,3.859 3.141,7 7,7 C 3.859,14 7,10.859 7,7 7,3.141 3.859,0 0,0" /></g><g
           transform="translate(225.5,89.5)"
           id="g180"><path
             id="path182"
             style="fill:#e6e6e6;fill-opacity:1;fill-rule:nonzero;stroke:none"
             d="m 0,0 c -3.309,0 -6,-2.691 -6,-6 0,-3.309 2.691,-6 6,-6 3.309,0 6,2.691 6,6 0,3.309 -2.691,6 -6,6" /></g><g
           transform="translate(180,24)"
           id="g184"><path
             id="path186"
             style="fill:#cccccc;fill-opacity:1;fill-rule:nonzero;stroke:none"
             d="m 0,0 h -104 c -2.209,0 -4,1.791 -4,4 v 80 c 0,2.209 1.791,4 4,4 H 0 c 2.209,0 4,-1.791 4,-4 V 4 C 4,1.791 2.209,0 0,0" /></g><path
           id="path188"
           style="fill:#191919;fill-opacity:1;fill-rule:nonzero;stroke:none"
           d="M 180,28 H 76 v 80 h 104 z" /><g
           transform="translate(197,47)"
           id="g190"><path
             id="path192"
             style="fill:#cccccc;fill-opacity:1;fill-rule:nonzero;stroke:none"
             d="m 0,0 c -2.206,0 -4,-1.794 -4,-4 0,-2.206 1.794,-4 4,-4 2.206,0 4,1.794 4,4 0,2.206 -1.794,4 -4,4 m 0,-1 c 1.657,0 3,-1.343 3,-3 0,-1.657 -1.343,-3 -3,-3 -1.657,0 -3,1.343 -3,3 0,1.657 1.343,3 3,3" /></g><g
           transform="translate(197,35)"
           id="g194"><path
             id="path196"
             style="fill:#cccccc;fill-opacity:1;fill-rule:nonzero;stroke:none"
             d="m 0,0 c -2.206,0 -4,-1.794 -4,-4 0,-2.206 1.794,-4 4,-4 2.206,0 4,1.794 4,4 0,2.206 -1.794,4 -4,4 m 0,-1 c 1.657,0 3,-1.343 3,-3 0,-1.657 -1.343,-3 -3,-3 -1.657,0 -3,1.343 -3,3 0,1.657 1.343,3 3,3" /></g><g
           transform="translate(45,95)"
           id="g198"><path
             id="path200"
             style="fill:#cccccc;fill-opacity:1;fill-rule:nonzero;stroke:none"
             d="m 0,0 h -6 c -1.103,0 -2,-0.897 -2,-2 v -8 h -8 c -1.103,0 -2,-0.897 -2,-2 v -6 c 0,-1.103 0.897,-2 2,-2 h 8 v -8 c 0,-1.103 0.897,-2 2,-2 h 6 c 1.103,0 2,0.897 2,2 v 8 h 8 c 1.103,0 2,0.897 2,2 v 6 c 0,1.103 -0.897,2 -2,2 H 2 v 8 C 2,-0.897 1.103,0 0,0" /></g><g
           transform="translate(55,84)"
           id="g202"><path
             id="path204"
             style="fill:#e6e6e6;fill-opacity:1;fill-rule:nonzero;stroke:none"
             d="m 0,0 h -9 v 9 c 0,0.553 -0.448,1 -1,1 h -6 c -0.552,0 -1,-0.447 -1,-1 V 0 h -9 c -0.552,0 -1,-0.447 -1,-1 v -6 c 0,-0.553 0.448,-1 1,-1 h 9 v -9 c 0,-0.553 0.448,-1 1,-1 h 6 c 0.552,0 1,0.447 1,1 v 9 h 9 c 0.552,0 1,0.447 1,1 v 6 C 1,-0.447 0.552,0 0,0" /></g><g
           transform="translate(32,80)"
           id="g206"><path
             id="path208"
             style="fill:#cccccc;fill-opacity:1;fill-rule:nonzero;stroke:none"
             d="M 0,0 H 4" /></g><path
           id="path210"
           style="fill:#cccccc;fill-opacity:1;fill-rule:nonzero;stroke:none"
           d="m 36,79.5 h -4 v 1 h 4 z" /><g
           transform="translate(48,80)"
           id="g212"><path
             id="path214"
             style="fill:#cccccc;fill-opacity:1;fill-rule:nonzero;stroke:none"
             d="M 0,0 H 4" /></g><path
           id="path216"
           style="fill:#cccccc;fill-opacity:1;fill-rule:nonzero;stroke:none"
           d="m 52,79.5 h -4 v 1 h 4 z" /><g
           transform="translate(42,90)"
           id="g218"><path
             id="path220"
             style="fill:#cccccc;fill-opacity:1;fill-rule:nonzero;stroke:none"
             d="M 0,0 V -4" /></g><path
           id="path222"
           style="fill:#cccccc;fill-opacity:1;fill-rule:nonzero;stroke:none"
           d="m 41.5,90 h 1 v -4 h -1 z" /><g
           transform="translate(42,74)"
           id="g224"><path
             id="path226"
             style="fill:#cccccc;fill-opacity:1;fill-rule:nonzero;stroke:none"
             d="M 0,0 V -4" /></g><path
           id="path228"
           style="fill:#cccccc;fill-opacity:1;fill-rule:nonzero;stroke:none"
           d="m 41.5,74 h 1 v -4 h -1 z" /></g></g></g></svg>