<svg xmlns="http://www.w3.org/2000/svg" xml:space="preserve" width="320" height="330.667" viewBox="0 0 320 330.667"><defs><clipPath id="a" clipPathUnits="userSpaceOnUse"><path d="M0 256h256V0H0Z"/></clipPath><clipPath id="b" clipPathUnits="userSpaceOnUse"><path d="M8 252h240V4H8Z"/></clipPath></defs><g clip-path="url(#a)" transform="matrix(1.33333 0 0 -1.33333 -10.667 336)"><g clip-path="url(#b)" style="opacity:.5"><path d="M0 0c0 8.822-7.178 16-16 16h-208c-8.822 0-16-7.178-16-16v-98c0-1.573.365-3.063 1.016-4.389a15.9 15.9 0 0 1-.975-6.717A10 10 0 0 1-240-110v-106c0-8.822 7.178-16 16-16h208c8.822 0 16 7.178 16 16v106q0 .447-.041.894.04.556.041 1.106c0 1.974-.359 3.864-1.016 5.611A9.9 9.9 0 0 1 0-98Z" style="fill:#fff;fill-opacity:1;fill-rule:nonzero;stroke:none" transform="translate(248 236)"/></g><path d="M0 0h220a2 2 0 0 0 2-2v-106a8 8 0 0 0-8-8H6a8 8 0 0 0-8 8V-2a2 2 0 0 0 2 2" style="fill:#e6e6e6;fill-opacity:1;fill-rule:nonzero;stroke:none" transform="translate(18 128)"/><path d="M0 0h-120a4 4 0 0 0-4 4v96H4V4a4 4 0 0 0-4-4" style="fill:#d9d9d9;fill-opacity:1;fill-rule:nonzero;stroke:none" transform="translate(188 20)"/><path d="M0 0h-220a2 2 0 0 0-2 2v98a8 8 0 0 0 8 8H-6a8 8 0 0 0 8-8V2a2 2 0 0 0-2-2" style="fill:#d9d9d9;fill-opacity:1;fill-rule:nonzero;stroke:none" transform="translate(238 136)"/><path d="M0 0h-212a2 2 0 0 0-2 2v94a8 8 0 0 0 8 8H-6a8 8 0 0 0 8-8V2a2 2 0 0 0-2-2" style="fill:#e6e6e6;fill-opacity:1;fill-rule:nonzero;stroke:none" transform="translate(234 136)"/><path d="M0 0h-104a4 4 0 0 0-4 4v80a4 4 0 0 0 4 4H0a4 4 0 0 0 4-4V4a4 4 0 0 0-4-4" style="fill:#d9d9d9;fill-opacity:1;fill-rule:nonzero;stroke:none" transform="translate(180 144)"/><path d="M180 148H76v80h104z" style="fill:#191919;fill-opacity:1;fill-rule:nonzero;stroke:none"/><path d="M0 0h-6a1 1 0 0 0-1 1v6a1 1 0 0 0 1 1h6a1 1 0 0 0 1-1V1a1 1 0 0 0-1-1" style="fill:#d9d9d9;fill-opacity:1;fill-rule:nonzero;stroke:none" transform="translate(51 228)"/><path d="M0 0h-6a1 1 0 0 0-1 1v6a1 1 0 0 0 1 1h6a1 1 0 0 0 1-1V1a1 1 0 0 0-1-1" style="fill:#d9d9d9;fill-opacity:1;fill-rule:nonzero;stroke:none" transform="translate(51 140)"/><path d="M0 0h-6a1 1 0 0 0-1 1v6a1 1 0 0 0 1 1h6a1 1 0 0 0 1-1V1a1 1 0 0 0-1-1" style="fill:#d9d9d9;fill-opacity:1;fill-rule:nonzero;stroke:none" transform="translate(211 228)"/><path d="M0 0h-6a1 1 0 0 0-1 1v6a1 1 0 0 0 1 1h6a1 1 0 0 0 1-1V1a1 1 0 0 0-1-1" style="fill:#d9d9d9;fill-opacity:1;fill-rule:nonzero;stroke:none" transform="translate(211 140)"/><path d="M0 0c-1.1 0-2 .9-2 2v12c0 1.1.9 2 2 2s2-.9 2-2V2c0-1.1-.9-2-2-2" style="fill:#ccc;fill-opacity:1;fill-rule:nonzero;stroke:none" transform="translate(20 220)"/><path d="M0 0c-1.1 0-2 .9-2 2v12c0 1.1.9 2 2 2s2-.9 2-2V2c0-1.1-.9-2-2-2" style="fill:#ccc;fill-opacity:1;fill-rule:nonzero;stroke:none" transform="translate(236 220)"/><path d="M0 0c-.55 0-1 .45-1 1s.45 1 1 1 1-.45 1-1-.45-1-1-1" style="fill:#191919;fill-opacity:1;fill-rule:nonzero;stroke:none" transform="translate(35 190)"/><path d="M0 0c-.55 0-1 .45-1 1s.45 1 1 1 1-.45 1-1-.45-1-1-1" style="fill:#191919;fill-opacity:1;fill-rule:nonzero;stroke:none" transform="translate(43 190)"/><path d="M0 0c-.55 0-1 .45-1 1s.45 1 1 1 1-.45 1-1-.45-1-1-1" style="fill:#191919;fill-opacity:1;fill-rule:nonzero;stroke:none" transform="translate(51 190)"/><path d="M0 0c-.55 0-1 .45-1 1s.45 1 1 1 1-.45 1-1-.45-1-1-1" style="fill:#191919;fill-opacity:1;fill-rule:nonzero;stroke:none" transform="translate(35 182)"/><path d="M0 0c-.55 0-1 .45-1 1s.45 1 1 1 1-.45 1-1-.45-1-1-1" style="fill:#191919;fill-opacity:1;fill-rule:nonzero;stroke:none" transform="translate(43 182)"/><path d="M0 0c-.55 0-1 .45-1 1s.45 1 1 1 1-.45 1-1-.45-1-1-1" style="fill:#191919;fill-opacity:1;fill-rule:nonzero;stroke:none" transform="translate(51 182)"/><path d="M0 0c-.55 0-1 .45-1 1s.45 1 1 1 1-.45 1-1-.45-1-1-1" style="fill:#191919;fill-opacity:1;fill-rule:nonzero;stroke:none" transform="translate(205 190)"/><path d="M0 0c-.55 0-1 .45-1 1s.45 1 1 1 1-.45 1-1-.45-1-1-1" style="fill:#191919;fill-opacity:1;fill-rule:nonzero;stroke:none" transform="translate(213 190)"/><path d="M0 0c-.55 0-1 .45-1 1s.45 1 1 1 1-.45 1-1-.45-1-1-1" style="fill:#191919;fill-opacity:1;fill-rule:nonzero;stroke:none" transform="translate(221 190)"/><path d="M0 0c-.55 0-1 .45-1 1s.45 1 1 1 1-.45 1-1-.45-1-1-1" style="fill:#191919;fill-opacity:1;fill-rule:nonzero;stroke:none" transform="translate(205 182)"/><path d="M0 0c-.55 0-1 .45-1 1s.45 1 1 1 1-.45 1-1-.45-1-1-1" style="fill:#191919;fill-opacity:1;fill-rule:nonzero;stroke:none" transform="translate(213 182)"/><path d="M0 0c-.55 0-1 .45-1 1s.45 1 1 1 1-.45 1-1-.45-1-1-1" style="fill:#191919;fill-opacity:1;fill-rule:nonzero;stroke:none" transform="translate(221 182)"/><path d="M0 0h-208c-4.4 0-8 3.6-8 8s3.6 8 8 8H0c4.4 0 8-3.6 8-8S4.4 0 0 0" style="fill:#ccc;fill-opacity:1;fill-rule:nonzero;stroke:none" transform="translate(232 120)"/><path d="M0 0a1 1 0 0 0-1 1v6a1 1 0 0 0 2 0V1a1 1 0 0 0-1-1" style="fill:#bfbfbf;fill-opacity:1;fill-rule:nonzero;stroke:none" transform="translate(127 124)"/><path d="M0 0a1 1 0 0 0-1 1v6a1 1 0 1 0 2 0V1a1 1 0 0 0-1-1" style="fill:#d9d9d9;fill-opacity:1;fill-rule:nonzero;stroke:none" transform="translate(223 124)"/><path d="M0 0a1 1 0 0 0-1 1v6a1 1 0 1 0 2 0V1a1 1 0 0 0-1-1" style="fill:#0f0;fill-opacity:1;fill-rule:nonzero;stroke:none" transform="translate(227 124)"/><path d="M44 120h-2v16h2zm168 0h-2v16h2z" style="fill:#bfbfbf;fill-opacity:1;fill-rule:nonzero;stroke:none"/><path d="M184 112H72v8h112z" style="fill:#e6e6e6;fill-opacity:1;fill-rule:nonzero;stroke:none"/><path d="M0 0c-3.859 0-7 3.141-7 7s3.141 7 7 7 7-3.141 7-7-3.141-7-7-7" style="fill:#ccc;fill-opacity:1;fill-rule:nonzero;stroke:none" transform="translate(212.5 63.5)"/><path d="M0 0c-3.309 0-6-2.691-6-6s2.691-6 6-6 6 2.691 6 6-2.691 6-6 6" style="fill:#e6e6e6;fill-opacity:1;fill-rule:nonzero;stroke:none" transform="translate(212.5 76.5)"/><path d="M0 0c-3.859 0-7 3.141-7 7s3.141 7 7 7 7-3.141 7-7-3.141-7-7-7" style="fill:#ccc;fill-opacity:1;fill-rule:nonzero;stroke:none" transform="translate(212.5 89.5)"/><path d="M0 0c-3.309 0-6-2.691-6-6s2.691-6 6-6 6 2.691 6 6-2.691 6-6 6" style="fill:#e6e6e6;fill-opacity:1;fill-rule:nonzero;stroke:none" transform="translate(212.5 102.5)"/><path d="M0 0c-3.859 0-7 3.141-7 7s3.141 7 7 7 7-3.141 7-7-3.141-7-7-7" style="fill:#ccc;fill-opacity:1;fill-rule:nonzero;stroke:none" transform="translate(199.5 76.5)"/><path d="M0 0c-3.309 0-6-2.691-6-6s2.691-6 6-6 6 2.691 6 6-2.691 6-6 6" style="fill:#e6e6e6;fill-opacity:1;fill-rule:nonzero;stroke:none" transform="translate(199.5 89.5)"/><path d="M0 0c-3.859 0-7 3.141-7 7s3.141 7 7 7 7-3.141 7-7-3.141-7-7-7" style="fill:#ccc;fill-opacity:1;fill-rule:nonzero;stroke:none" transform="translate(225.5 76.5)"/><path d="M0 0c-3.309 0-6-2.691-6-6s2.691-6 6-6 6 2.691 6 6-2.691 6-6 6" style="fill:#e6e6e6;fill-opacity:1;fill-rule:nonzero;stroke:none" transform="translate(225.5 89.5)"/><path d="M0 0h-104a4 4 0 0 0-4 4v80a4 4 0 0 0 4 4H0a4 4 0 0 0 4-4V4a4 4 0 0 0-4-4" style="fill:#ccc;fill-opacity:1;fill-rule:nonzero;stroke:none" transform="translate(180 24)"/><path d="M180 28H76v80h104z" style="fill:#191919;fill-opacity:1;fill-rule:nonzero;stroke:none"/><path d="M0 0c-2.206 0-4-1.794-4-4s1.794-4 4-4 4 1.794 4 4-1.794 4-4 4m0-1a3 3 0 1 0 0-6 3 3 0 0 0 0 6" style="fill:#ccc;fill-opacity:1;fill-rule:nonzero;stroke:none" transform="translate(197 47)"/><path d="M0 0c-2.206 0-4-1.794-4-4s1.794-4 4-4 4 1.794 4 4-1.794 4-4 4m0-1a3 3 0 1 0 0-6 3 3 0 0 0 0 6" style="fill:#ccc;fill-opacity:1;fill-rule:nonzero;stroke:none" transform="translate(197 35)"/><path d="M0 0h-6c-1.103 0-2-.897-2-2v-8h-8c-1.103 0-2-.897-2-2v-6c0-1.103.897-2 2-2h8v-8c0-1.103.897-2 2-2h6c1.103 0 2 .897 2 2v8h8c1.103 0 2 .897 2 2v6c0 1.103-.897 2-2 2H2v8c0 1.103-.897 2-2 2" style="fill:#ccc;fill-opacity:1;fill-rule:nonzero;stroke:none" transform="translate(45 95)"/><path d="M0 0h-9v9a1 1 0 0 1-1 1h-6a1 1 0 0 1-1-1V0h-9a1 1 0 0 1-1-1v-6a1 1 0 0 1 1-1h9v-9a1 1 0 0 1 1-1h6a1 1 0 0 1 1 1v9h9a1 1 0 0 1 1 1v6a1 1 0 0 1-1 1" style="fill:#e6e6e6;fill-opacity:1;fill-rule:nonzero;stroke:none" transform="translate(55 84)"/><path d="M0 0h4" style="fill:#ccc;fill-opacity:1;fill-rule:nonzero;stroke:none" transform="translate(32 80)"/><path d="M36 79.5h-4v1h4z" style="fill:#ccc;fill-opacity:1;fill-rule:nonzero;stroke:none"/><path d="M0 0h4" style="fill:#ccc;fill-opacity:1;fill-rule:nonzero;stroke:none" transform="translate(48 80)"/><path d="M52 79.5h-4v1h4z" style="fill:#ccc;fill-opacity:1;fill-rule:nonzero;stroke:none"/><path d="M0 0v-4" style="fill:#ccc;fill-opacity:1;fill-rule:nonzero;stroke:none" transform="translate(42 90)"/><path d="M41.5 90h1v-4h-1z" style="fill:#ccc;fill-opacity:1;fill-rule:nonzero;stroke:none"/><path d="M0 0v-4" style="fill:#ccc;fill-opacity:1;fill-rule:nonzero;stroke:none" transform="translate(42 74)"/><path d="M41.5 74h1v-4h-1z" style="fill:#ccc;fill-opacity:1;fill-rule:nonzero;stroke:none"/></g></svg>