<svg xmlns="http://www.w3.org/2000/svg" xml:space="preserve" width="330.667" height="160" viewBox="0 0 330.667 160"><defs><clipPath id="a" clipPathUnits="userSpaceOnUse"><path d="M0 256h256V0H0Z"/></clipPath><clipPath id="b" clipPathUnits="userSpaceOnUse"><path d="M4 188h248V68H4Z"/></clipPath></defs><g clip-path="url(#a)" transform="matrix(1.33333 0 0 -1.33333 -5.333 250.667)"><g clip-path="url(#b)" style="opacity:.5"><path d="M0 0h-12c-2.184 0-4.234-.587-6-1.61A11.94 11.94 0 0 1-24 0h-6.343c-3.206 0-6.22-1.248-8.485-3.515L-39.313-4h-121.374l-.484.485A11.92 11.92 0 0 1-169.657 0H-176c-2.184 0-4.234-.587-6-1.61A11.94 11.94 0 0 1-188 0h-12c-13.458 0-24-7.907-24-18v-78c0-13.233 10.767-24 24-24H0c13.233 0 24 10.767 24 24v78C24-7.907 13.458 0 0 0" style="fill:#fff;fill-opacity:1;fill-rule:nonzero;stroke:none" transform="translate(228 188)"/></g><path d="M0 0a4 4 0 0 1-4 4h-12C-24.836 4-32-.477-32-6v-10h16c8.836 0 16 4.477 16 10z" style="fill:#404040;fill-opacity:1;fill-rule:nonzero;stroke:none" transform="translate(44 176)"/><path d="m0 0-16-4v4a4 4 0 0 0 4 4h6.343a4 4 0 0 0 2.828-1.171z" style="fill:#404040;fill-opacity:1;fill-rule:nonzero;stroke:none" transform="translate(64 176)"/><path d="M0 0a4 4 0 0 0 4 4h12C24.837 4 32-.477 32-6v-10H16C7.163-16 0-11.523 0-6Z" style="fill:#404040;fill-opacity:1;fill-rule:nonzero;stroke:none" transform="translate(212 176)"/><path d="m0 0 16-4v4a4 4 0 0 1-4 4H5.657a4 4 0 0 1-2.829-1.171Z" style="fill:#404040;fill-opacity:1;fill-rule:nonzero;stroke:none" transform="translate(192 176)"/><path d="M0 0s0 8-8 8h-208c-8 0-8-8-8-8l-4-4v-72c0-8.837 7.164-16 16-16h200c8.837 0 16 7.163 16 16v72z" style="fill:#262626;fill-opacity:1;fill-rule:nonzero;stroke:none" transform="translate(240 168)"/><path d="M192 92H64v76h128z" style="fill:gray;fill-opacity:1;fill-rule:nonzero;stroke:none"/><path d="M0 0c-11.028 0-20-8.972-20-20s8.972-20 20-20 20 8.972 20 20S11.028 0 0 0m0-2c9.941 0 18-8.059 18-18S9.941-38 0-38s-18 8.059-18 18S-9.941-2 0-2" style="fill:#fff;fill-opacity:1;fill-rule:nonzero;stroke:none" transform="translate(38 166)"/><path d="M0 0c0-7.732-6.268-14-14-14S-28-7.732-28 0s6.268 14 14 14S0 7.732 0 0" style="fill:#0d0d0d;fill-opacity:1;fill-rule:nonzero;stroke:none" transform="translate(52 146)"/><path d="M0 0c0-6.627-5.373-12-12-12S-24-6.627-24 0s5.373 12 12 12S0 6.627 0 0" style="fill:#191919;fill-opacity:1;fill-rule:nonzero;stroke:none" transform="translate(50 146)"/><path d="M0 0c0-5.523-4.477-10-10-10S-20-5.523-20 0s4.477 10 10 10S0 5.523 0 0" style="fill:#262626;fill-opacity:1;fill-rule:nonzero;stroke:none" transform="translate(48 146)"/><path d="M0 0h-4a4 4 0 0 1 0-8h4a4 4 0 0 1 0 8" style="fill:#fff;fill-opacity:1;fill-rule:nonzero;stroke:none" transform="translate(52 108)"/><path d="M0 0c1.654 0 3-1.346 3-3S1.654-6 0-6h-4c-1.654 0-3 1.346-3 3s1.346 3 3 3z" style="fill:#262626;fill-opacity:1;fill-rule:nonzero;stroke:none" transform="translate(52 107)"/><path d="M0 0h-8a2 2 0 0 0 0 4h8a2 2 0 0 0 0-4" style="fill:#404040;fill-opacity:1;fill-rule:nonzero;stroke:none" transform="translate(54 92)"/><path d="M0 0a6 6 0 0 1 0-12A6 6 0 0 1 0 0" style="fill:#fff;fill-opacity:1;fill-rule:nonzero;stroke:none" transform="translate(206 148)"/><path d="M0 0h-4a4 4 0 0 1 0-8h4a4 4 0 0 1 0 8" style="fill:#fff;fill-opacity:1;fill-rule:nonzero;stroke:none" transform="translate(208 108)"/><path d="M0 0a6 6 0 0 1 0-12A6 6 0 0 1 0 0" style="fill:#fff;fill-opacity:1;fill-rule:nonzero;stroke:none" transform="translate(218 160)"/><path d="M0 0c1.654 0 3-1.346 3-3S1.654-6 0-6h-4c-1.654 0-3 1.346-3 3s1.346 3 3 3z" style="fill:#262626;fill-opacity:1;fill-rule:nonzero;stroke:none" transform="translate(208 107)"/><path d="M0 0a6 6 0 0 1 0-12A6 6 0 0 1 0 0" style="fill:#fff;fill-opacity:1;fill-rule:nonzero;stroke:none" transform="translate(218 136)"/><path d="M0 0h-8a2 2 0 0 0 0 4h8a2 2 0 0 0 0-4" style="fill:#404040;fill-opacity:1;fill-rule:nonzero;stroke:none" transform="translate(210 92)"/><path d="M0 0a6 6 0 0 1 0-12A6 6 0 0 1 0 0" style="fill:#fff;fill-opacity:1;fill-rule:nonzero;stroke:none" transform="translate(230 148)"/><path d="M0 0c2.757 0 5-2.243 5-5s-2.243-5-5-5-5 2.243-5 5 2.243 5 5 5" style="fill:#262626;fill-opacity:1;fill-rule:nonzero;stroke:none" transform="translate(206 147)"/><path d="M0 0c2.757 0 5-2.243 5-5s-2.243-5-5-5-5 2.243-5 5 2.243 5 5 5" style="fill:#262626;fill-opacity:1;fill-rule:nonzero;stroke:none" transform="translate(218 159)"/><path d="M0 0c2.757 0 5-2.243 5-5s-2.243-5-5-5-5 2.243-5 5 2.243 5 5 5" style="fill:#262626;fill-opacity:1;fill-rule:nonzero;stroke:none" transform="translate(218 135)"/><path d="M0 0c2.757 0 5-2.243 5-5s-2.243-5-5-5-5 2.243-5 5 2.243 5 5 5" style="fill:#262626;fill-opacity:1;fill-rule:nonzero;stroke:none" transform="translate(230 147)"/></g></svg>