<?xml version="1.0" encoding="UTF-8" standalone="no"?>
<svg
   xmlns:dc="http://purl.org/dc/elements/1.1/"
   xmlns:cc="http://creativecommons.org/ns#"
   xmlns:rdf="http://www.w3.org/1999/02/22-rdf-syntax-ns#"
   xmlns:svg="http://www.w3.org/2000/svg"
   xmlns="http://www.w3.org/2000/svg"
   viewBox="0 0 330.66665 160"
   height="160"
   width="330.66666"
   xml:space="preserve"
   id="svg2"
   version="1.1"><metadata
     id="metadata8"><rdf:RDF><cc:Work
         rdf:about=""><dc:format>image/svg+xml</dc:format><dc:type
           rdf:resource="http://purl.org/dc/dcmitype/StillImage" /></cc:Work></rdf:RDF></metadata><defs
     id="defs6"><clipPath
       id="clipPath18"
       clipPathUnits="userSpaceOnUse"><path
         id="path16"
         d="M 0,256 H 256 V 0 H 0 Z" /></clipPath><clipPath
       id="clipPath26"
       clipPathUnits="userSpaceOnUse"><path
         id="path24"
         d="M 4,188 H 252 V 68 H 4 Z" /></clipPath></defs><g
     transform="matrix(1.3333333,0,0,-1.3333333,-5.3333332,250.66666)"
     id="g10"><g
       id="g12"><g
         clip-path="url(#clipPath18)"
         id="g14"><g
           id="g20"><g
             id="g22" /><g
             id="g34"><g
               style="opacity:0.5"
               id="g32"
               clip-path="url(#clipPath26)"><g
                 id="g30"
                 transform="translate(228,188)"><path
                   id="path28"
                   style="fill:#ffffff;fill-opacity:1;fill-rule:nonzero;stroke:none"
                   d="m 0,0 h -12 c -2.184,0 -4.234,-0.587 -6,-1.61 -1.766,1.023 -3.816,1.61 -6,1.61 h -6.343 c -3.206,0 -6.22,-1.248 -8.485,-3.515 L -39.313,-4 h -121.374 l -0.484,0.485 C -163.438,-1.248 -166.451,0 -169.657,0 H -176 c -2.184,0 -4.234,-0.587 -6,-1.61 -1.766,1.023 -3.816,1.61 -6,1.61 h -12 c -13.458,0 -24,-7.907 -24,-18 v -6 -4 -68 c 0,-13.233 10.767,-24 24,-24 H 0 c 13.233,0 24,10.767 24,24 v 68 4 6 C 24,-7.907 13.458,0 0,0" /></g></g></g></g><g
           transform="translate(44,176)"
           id="g36"><path
             id="path38"
             style="fill:#404040;fill-opacity:1;fill-rule:nonzero;stroke:none"
             d="m 0,0 c 0,2.209 -1.791,4 -4,4 h -12 c -8.836,0 -16,-4.477 -16,-10 v -10 h 16 c 8.836,0 16,4.477 16,10 z" /></g><g
           transform="translate(64,176)"
           id="g40"><path
             id="path42"
             style="fill:#404040;fill-opacity:1;fill-rule:nonzero;stroke:none"
             d="m 0,0 -16,-4 v 4 c 0,2.209 1.791,4 4,4 h 6.343 c 1.061,0 2.078,-0.421 2.828,-1.171 z" /></g><g
           transform="translate(212,176)"
           id="g44"><path
             id="path46"
             style="fill:#404040;fill-opacity:1;fill-rule:nonzero;stroke:none"
             d="M 0,0 C 0,2.209 1.791,4 4,4 H 16 C 24.837,4 32,-0.477 32,-6 V -16 H 16 C 7.163,-16 0,-11.523 0,-6 Z" /></g><g
           transform="translate(192,176)"
           id="g48"><path
             id="path50"
             style="fill:#404040;fill-opacity:1;fill-rule:nonzero;stroke:none"
             d="m 0,0 16,-4 v 4 c 0,2.209 -1.791,4 -4,4 H 5.657 C 4.596,4 3.578,3.579 2.828,2.829 Z" /></g><g
           transform="translate(240,168)"
           id="g52"><path
             id="path54"
             style="fill:#262626;fill-opacity:1;fill-rule:nonzero;stroke:none"
             d="m 0,0 c 0,0 0,8 -8,8 h -208 c -8,0 -8,-8 -8,-8 l -4,-4 v -72 c 0,-8.837 7.164,-16 16,-16 h 200 c 8.837,0 16,7.163 16,16 v 72 z" /></g><path
           id="path56"
           style="fill:#808080;fill-opacity:1;fill-rule:nonzero;stroke:none"
           d="M 192,92 H 64 v 76 h 128 z" /><g
           transform="translate(38,166)"
           id="g58"><path
             id="path60"
             style="fill:#ffffff;fill-opacity:1;fill-rule:nonzero;stroke:none"
             d="m 0,0 c -11.028,0 -20,-8.972 -20,-20 0,-11.028 8.972,-20 20,-20 11.028,0 20,8.972 20,20 C 20,-8.972 11.028,0 0,0 m 0,-2 c 9.941,0 18,-8.059 18,-18 0,-9.941 -8.059,-18 -18,-18 -9.941,0 -18,8.059 -18,18 0,9.941 8.059,18 18,18" /></g><g
           transform="translate(52,146)"
           id="g62"><path
             id="path64"
             style="fill:#0d0d0d;fill-opacity:1;fill-rule:nonzero;stroke:none"
             d="m 0,0 c 0,-7.732 -6.268,-14 -14,-14 -7.732,0 -14,6.268 -14,14 0,7.732 6.268,14 14,14 C -6.268,14 0,7.732 0,0" /></g><g
           transform="translate(50,146)"
           id="g66"><path
             id="path68"
             style="fill:#191919;fill-opacity:1;fill-rule:nonzero;stroke:none"
             d="m 0,0 c 0,-6.627 -5.373,-12 -12,-12 -6.627,0 -12,5.373 -12,12 0,6.627 5.373,12 12,12 C -5.373,12 0,6.627 0,0" /></g><g
           transform="translate(48,146)"
           id="g70"><path
             id="path72"
             style="fill:#262626;fill-opacity:1;fill-rule:nonzero;stroke:none"
             d="m 0,0 c 0,-5.523 -4.477,-10 -10,-10 -5.523,0 -10,4.477 -10,10 0,5.523 4.477,10 10,10 C -4.477,10 0,5.523 0,0" /></g><g
           transform="translate(52,108)"
           id="g74"><path
             id="path76"
             style="fill:#ffffff;fill-opacity:1;fill-rule:nonzero;stroke:none"
             d="m 0,0 h -4 c -2.209,0 -4,-1.791 -4,-4 0,-2.209 1.791,-4 4,-4 h 4 c 2.209,0 4,1.791 4,4 0,2.209 -1.791,4 -4,4" /></g><g
           transform="translate(52,107)"
           id="g78"><path
             id="path80"
             style="fill:#262626;fill-opacity:1;fill-rule:nonzero;stroke:none"
             d="M 0,0 C 1.654,0 3,-1.346 3,-3 3,-4.654 1.654,-6 0,-6 h -4 c -1.654,0 -3,1.346 -3,3 0,1.654 1.346,3 3,3 h 4" /></g><g
           transform="translate(54,92)"
           id="g82"><path
             id="path84"
             style="fill:#404040;fill-opacity:1;fill-rule:nonzero;stroke:none"
             d="m 0,0 h -8 c -1.104,0 -2,0.896 -2,2 0,1.104 0.896,2 2,2 H 0 C 1.104,4 2,3.104 2,2 2,0.896 1.104,0 0,0" /></g><g
           transform="translate(206,148)"
           id="g86"><path
             id="path88"
             style="fill:#ffffff;fill-opacity:1;fill-rule:nonzero;stroke:none"
             d="m 0,0 c -3.313,0 -6,-2.687 -6,-6 0,-3.313 2.687,-6 6,-6 3.313,0 6,2.687 6,6 0,3.313 -2.687,6 -6,6" /></g><g
           transform="translate(208,108)"
           id="g90"><path
             id="path92"
             style="fill:#ffffff;fill-opacity:1;fill-rule:nonzero;stroke:none"
             d="m 0,0 h -4 c -2.209,0 -4,-1.791 -4,-4 0,-2.209 1.791,-4 4,-4 h 4 c 2.209,0 4,1.791 4,4 0,2.209 -1.791,4 -4,4" /></g><g
           transform="translate(218,160)"
           id="g94"><path
             id="path96"
             style="fill:#ffffff;fill-opacity:1;fill-rule:nonzero;stroke:none"
             d="m 0,0 c -3.313,0 -6,-2.687 -6,-6 0,-3.313 2.687,-6 6,-6 3.313,0 6,2.687 6,6 0,3.313 -2.687,6 -6,6" /></g><g
           transform="translate(208,107)"
           id="g98"><path
             id="path100"
             style="fill:#262626;fill-opacity:1;fill-rule:nonzero;stroke:none"
             d="M 0,0 C 1.654,0 3,-1.346 3,-3 3,-4.654 1.654,-6 0,-6 h -4 c -1.654,0 -3,1.346 -3,3 0,1.654 1.346,3 3,3 h 4" /></g><g
           transform="translate(218,136)"
           id="g102"><path
             id="path104"
             style="fill:#ffffff;fill-opacity:1;fill-rule:nonzero;stroke:none"
             d="m 0,0 c -3.313,0 -6,-2.687 -6,-6 0,-3.313 2.687,-6 6,-6 3.313,0 6,2.687 6,6 0,3.313 -2.687,6 -6,6" /></g><g
           transform="translate(210,92)"
           id="g106"><path
             id="path108"
             style="fill:#404040;fill-opacity:1;fill-rule:nonzero;stroke:none"
             d="m 0,0 h -8 c -1.104,0 -2,0.896 -2,2 0,1.104 0.896,2 2,2 H 0 C 1.104,4 2,3.104 2,2 2,0.896 1.104,0 0,0" /></g><g
           transform="translate(230,148)"
           id="g110"><path
             id="path112"
             style="fill:#ffffff;fill-opacity:1;fill-rule:nonzero;stroke:none"
             d="m 0,0 c -3.313,0 -6,-2.687 -6,-6 0,-3.313 2.687,-6 6,-6 3.313,0 6,2.687 6,6 0,3.313 -2.687,6 -6,6" /></g><g
           transform="translate(206,147)"
           id="g114"><path
             id="path116"
             style="fill:#262626;fill-opacity:1;fill-rule:nonzero;stroke:none"
             d="m 0,0 c 2.757,0 5,-2.243 5,-5 0,-2.757 -2.243,-5 -5,-5 -2.757,0 -5,2.243 -5,5 0,2.757 2.243,5 5,5" /></g><g
           transform="translate(218,159)"
           id="g118"><path
             id="path120"
             style="fill:#262626;fill-opacity:1;fill-rule:nonzero;stroke:none"
             d="m 0,0 c 2.757,0 5,-2.243 5,-5 0,-2.757 -2.243,-5 -5,-5 -2.757,0 -5,2.243 -5,5 0,2.757 2.243,5 5,5" /></g><g
           transform="translate(218,135)"
           id="g122"><path
             id="path124"
             style="fill:#262626;fill-opacity:1;fill-rule:nonzero;stroke:none"
             d="m 0,0 c 2.757,0 5,-2.243 5,-5 0,-2.757 -2.243,-5 -5,-5 -2.757,0 -5,2.243 -5,5 0,2.757 2.243,5 5,5" /></g><g
           transform="translate(230,147)"
           id="g126"><path
             id="path128"
             style="fill:#262626;fill-opacity:1;fill-rule:nonzero;stroke:none"
             d="m 0,0 c 2.757,0 5,-2.243 5,-5 0,-2.757 -2.243,-5 -5,-5 -2.757,0 -5,2.243 -5,5 0,2.757 2.243,5 5,5" /></g></g></g></g></svg>