<?xml version="1.0" encoding="UTF-8" standalone="no"?>
<svg
   xmlns:dc="http://purl.org/dc/elements/1.1/"
   xmlns:cc="http://creativecommons.org/ns#"
   xmlns:rdf="http://www.w3.org/1999/02/22-rdf-syntax-ns#"
   xmlns:svg="http://www.w3.org/2000/svg"
   xmlns="http://www.w3.org/2000/svg"
   viewBox="0 0 320 266.66665"
   height="266.66666"
   width="320"
   xml:space="preserve"
   id="svg2"
   version="1.1"><metadata
     id="metadata8"><rdf:RDF><cc:Work
         rdf:about=""><dc:format>image/svg+xml</dc:format><dc:type
           rdf:resource="http://purl.org/dc/dcmitype/StillImage" /></cc:Work></rdf:RDF></metadata><defs
     id="defs6"><clipPath
       id="clipPath18"
       clipPathUnits="userSpaceOnUse"><path
         id="path16"
         d="M 0,256 H 256 V 0 H 0 Z" /></clipPath><clipPath
       id="clipPath26"
       clipPathUnits="userSpaceOnUse"><path
         id="path24"
         d="M 8,228 H 248 V 28 H 8 Z" /></clipPath></defs><g
     transform="matrix(1.3333333,0,0,-1.3333333,-10.666666,303.99999)"
     id="g10"><g
       id="g12"><g
         clip-path="url(#clipPath18)"
         id="g14"><g
           id="g20"><g
             id="g22" /><g
             id="g34"><g
               style="opacity:0.5"
               id="g32"
               clip-path="url(#clipPath26)"><g
                 id="g30"
                 transform="translate(248,212)"><path
                   id="path28"
                   style="fill:#ffffff;fill-opacity:1;fill-rule:nonzero;stroke:none"
                   d="m 0,0 c 0,8.822 -7.178,16 -16,16 h -208 c -8.822,0 -16,-7.178 -16,-16 v -10.54 c 0,-1.204 0.211,-2.373 0.607,-3.46 -0.396,-1.087 -0.607,-2.256 -0.607,-3.46 v -1.08 c 0,-1.204 0.211,-2.373 0.607,-3.46 -0.396,-1.087 -0.607,-2.256 -0.607,-3.46 v -1.08 c 0,-1.204 0.211,-2.373 0.607,-3.46 -0.396,-1.087 -0.607,-2.256 -0.607,-3.46 v -1.08 c 0,-1.204 0.211,-2.373 0.607,-3.46 -0.396,-1.087 -0.607,-2.256 -0.607,-3.46 v -1.08 c 0,-1.204 0.211,-2.373 0.607,-3.46 -0.396,-1.087 -0.607,-2.256 -0.607,-3.46 v -1.08 c 0,-1.204 0.211,-2.373 0.607,-3.46 -0.396,-1.087 -0.607,-2.256 -0.607,-3.46 V -168 c 0,-8.822 7.178,-16 16,-16 h 208 c 8.822,0 16,7.178 16,16 v 110.54 c 0,1.204 -0.211,2.373 -0.607,3.46 0.396,1.087 0.607,2.256 0.607,3.46 v 1.08 c 0,1.204 -0.211,2.373 -0.607,3.46 0.396,1.087 0.607,2.256 0.607,3.46 v 1.08 c 0,1.204 -0.211,2.373 -0.607,3.46 0.396,1.087 0.607,2.256 0.607,3.46 v 1.08 c 0,1.204 -0.211,2.373 -0.607,3.46 0.396,1.087 0.607,2.256 0.607,3.46 v 1.08 c 0,1.204 -0.211,2.373 -0.607,3.46 0.396,1.087 0.607,2.256 0.607,3.46 v 1.08 c 0,1.204 -0.211,2.373 -0.607,3.46 0.396,1.087 0.607,2.256 0.607,3.46 z" /></g></g></g></g><g
           transform="translate(238,158)"
           id="g36"><path
             id="path38"
             style="fill:#4c4c4c;fill-opacity:1;fill-rule:nonzero;stroke:none"
             d="M 0,0 C 0,0.762 0.427,1.425 1.054,1.762 1.663,2.09 2,2.768 2,3.46 V 4.54 C 2,5.232 1.663,5.91 1.054,6.238 0.427,6.575 0,7.238 0,8 0,8.762 0.427,9.425 1.054,9.762 1.663,10.09 2,10.768 2,11.46 v 1.08 C 2,13.232 1.663,13.91 1.054,14.238 0.427,14.575 0,15.238 0,16 0,16.762 0.427,17.425 1.054,17.762 1.663,18.09 2,18.768 2,19.46 v 1.08 C 2,21.232 1.663,21.91 1.054,22.238 0.427,22.575 0,23.238 0,24 0,24.762 0.427,25.425 1.054,25.762 1.663,26.09 2,26.768 2,27.46 v 1.08 C 2,29.232 1.663,29.91 1.054,30.238 0.427,30.575 0,31.238 0,32 0,32.762 0.427,33.425 1.054,33.762 1.663,34.09 2,34.768 2,35.46 v 1.08 C 2,37.232 1.663,37.91 1.054,38.238 0.427,38.575 0,39.238 0,40 0,40.762 0.427,41.425 1.054,41.762 1.663,42.09 2,42.768 2,43.46 V 54 c 0,4.4 -3.6,8 -8,8 h -208 c -4.4,0 -8,-3.6 -8,-8 V 43.46 c 0,-0.692 0.337,-1.37 0.947,-1.698 0.627,-0.337 1.053,-1 1.053,-1.762 0,-0.762 -0.426,-1.425 -1.053,-1.762 C -221.663,37.91 -222,37.232 -222,36.54 v -1.08 c 0,-0.692 0.337,-1.37 0.947,-1.698 0.627,-0.337 1.053,-1 1.053,-1.762 0,-0.762 -0.426,-1.425 -1.053,-1.762 C -221.663,29.91 -222,29.232 -222,28.54 v -1.08 c 0,-0.692 0.337,-1.37 0.947,-1.698 0.627,-0.337 1.053,-1 1.053,-1.762 0,-0.762 -0.426,-1.425 -1.053,-1.762 C -221.663,21.91 -222,21.232 -222,20.54 v -1.08 c 0,-0.692 0.337,-1.37 0.947,-1.698 0.627,-0.337 1.053,-1 1.053,-1.762 0,-0.762 -0.426,-1.425 -1.053,-1.762 C -221.663,13.91 -222,13.232 -222,12.54 v -1.08 c 0,-0.692 0.337,-1.37 0.947,-1.698 0.627,-0.337 1.053,-1 1.053,-1.762 0,-0.762 -0.426,-1.425 -1.053,-1.762 C -221.663,5.91 -222,5.232 -222,4.54 V 3.46 c 0,-0.692 0.337,-1.37 0.947,-1.698 0.627,-0.337 1.053,-1 1.053,-1.762 0,-0.762 -0.426,-1.425 -1.053,-1.762 C -221.663,-2.09 -222,-2.768 -222,-3.46 V -114 c 0,-4.4 3.6,-8 8,-8 H -6 c 4.4,0 8,3.6 8,8 V -3.46 C 2,-2.768 1.663,-2.09 1.054,-1.762 0.427,-1.425 0,-0.762 0,0" /></g><g
           transform="translate(34,52)"
           id="g40"><path
             id="path42"
             style="fill:#a6a6a6;fill-opacity:1;fill-rule:nonzero;stroke:none"
             d="m 0,0 h 23.264 c 2.597,0 3.967,3.076 2.23,5.007 L 0.973,32.252 C -1.479,34.977 -6,33.242 -6,29.576 V 6 C -6,2.687 -3.313,0 0,0" /></g><g
           transform="translate(222.2695,52)"
           id="g44"><path
             id="path46"
             style="fill:#a6a6a6;fill-opacity:1;fill-rule:nonzero;stroke:none"
             d="m 0,0 h -23.264 c -2.597,0 -3.967,3.076 -2.229,5.007 l 24.52,27.245 C 1.479,34.977 6,33.242 6,29.576 V 6 C 6,2.687 3.314,0 0,0" /></g><g
           transform="translate(38,208)"
           id="g48"><path
             id="path50"
             style="fill:#404040;fill-opacity:1;fill-rule:nonzero;stroke:none"
             d="m 0,0 h -12 c -1.104,0 -2,0.896 -2,2 0,1.104 0.896,2 2,2 H 0 C 1.104,4 2,3.104 2,2 2,0.896 1.104,0 0,0" /></g><g
           transform="translate(38,200)"
           id="g52"><path
             id="path54"
             style="fill:#404040;fill-opacity:1;fill-rule:nonzero;stroke:none"
             d="m 0,0 h -12 c -1.104,0 -2,0.896 -2,2 0,1.104 0.896,2 2,2 H 0 C 1.104,4 2,3.104 2,2 2,0.896 1.104,0 0,0" /></g><g
           transform="translate(38,192)"
           id="g56"><path
             id="path58"
             style="fill:#404040;fill-opacity:1;fill-rule:nonzero;stroke:none"
             d="m 0,0 h -12 c -1.104,0 -2,0.896 -2,2 0,1.104 0.896,2 2,2 H 0 C 1.104,4 2,3.104 2,2 2,0.896 1.104,0 0,0" /></g><g
           transform="translate(30,184)"
           id="g60"><path
             id="path62"
             style="fill:#404040;fill-opacity:1;fill-rule:nonzero;stroke:none"
             d="m 0,0 h -4 c -1.104,0 -2,0.896 -2,2 0,1.104 0.896,2 2,2 H 0 C 1.104,4 2,3.104 2,2 2,0.896 1.104,0 0,0" /></g><g
           transform="translate(30,176)"
           id="g64"><path
             id="path66"
             style="fill:#404040;fill-opacity:1;fill-rule:nonzero;stroke:none"
             d="m 0,0 h -4 c -1.104,0 -2,0.896 -2,2 0,1.104 0.896,2 2,2 H 0 C 1.104,4 2,3.104 2,2 2,0.896 1.104,0 0,0" /></g><g
           transform="translate(30,168)"
           id="g68"><path
             id="path70"
             style="fill:#404040;fill-opacity:1;fill-rule:nonzero;stroke:none"
             d="m 0,0 h -4 c -1.104,0 -2,0.896 -2,2 0,1.104 0.896,2 2,2 H 0 C 1.104,4 2,3.104 2,2 2,0.896 1.104,0 0,0" /></g><g
           transform="translate(30,144)"
           id="g72"><path
             id="path74"
             style="fill:#404040;fill-opacity:1;fill-rule:nonzero;stroke:none"
             d="m 0,0 h -4 c -1.104,0 -2,0.896 -2,2 0,1.104 0.896,2 2,2 H 0 C 1.104,4 2,3.104 2,2 2,0.896 1.104,0 0,0" /></g><g
           transform="translate(30,136)"
           id="g76"><path
             id="path78"
             style="fill:#404040;fill-opacity:1;fill-rule:nonzero;stroke:none"
             d="m 0,0 h -4 c -1.104,0 -2,0.896 -2,2 0,1.104 0.896,2 2,2 H 0 C 1.104,4 2,3.104 2,2 2,0.896 1.104,0 0,0" /></g><g
           transform="translate(30,128)"
           id="g80"><path
             id="path82"
             style="fill:#404040;fill-opacity:1;fill-rule:nonzero;stroke:none"
             d="m 0,0 h -4 c -1.104,0 -2,0.896 -2,2 0,1.104 0.896,2 2,2 H 0 C 1.104,4 2,3.104 2,2 2,0.896 1.104,0 0,0" /></g><g
           transform="translate(218,208)"
           id="g84"><path
             id="path86"
             style="fill:#404040;fill-opacity:1;fill-rule:nonzero;stroke:none"
             d="m 0,0 h 12 c 1.104,0 2,0.896 2,2 0,1.104 -0.896,2 -2,2 H 0 C -1.104,4 -2,3.104 -2,2 -2,0.896 -1.104,0 0,0" /></g><g
           transform="translate(218,200)"
           id="g88"><path
             id="path90"
             style="fill:#404040;fill-opacity:1;fill-rule:nonzero;stroke:none"
             d="m 0,0 h 12 c 1.104,0 2,0.896 2,2 0,1.104 -0.896,2 -2,2 H 0 C -1.104,4 -2,3.104 -2,2 -2,0.896 -1.104,0 0,0" /></g><g
           transform="translate(218,192)"
           id="g92"><path
             id="path94"
             style="fill:#404040;fill-opacity:1;fill-rule:nonzero;stroke:none"
             d="m 0,0 h 12 c 1.104,0 2,0.896 2,2 0,1.104 -0.896,2 -2,2 H 0 C -1.104,4 -2,3.104 -2,2 -2,0.896 -1.104,0 0,0" /></g><g
           transform="translate(226,184)"
           id="g96"><path
             id="path98"
             style="fill:#404040;fill-opacity:1;fill-rule:nonzero;stroke:none"
             d="M 0,0 H 4 C 5.104,0 6,0.896 6,2 6,3.104 5.104,4 4,4 H 0 C -1.104,4 -2,3.104 -2,2 -2,0.896 -1.104,0 0,0" /></g><g
           transform="translate(226,176)"
           id="g100"><path
             id="path102"
             style="fill:#404040;fill-opacity:1;fill-rule:nonzero;stroke:none"
             d="M 0,0 H 4 C 5.104,0 6,0.896 6,2 6,3.104 5.104,4 4,4 H 0 C -1.104,4 -2,3.104 -2,2 -2,0.896 -1.104,0 0,0" /></g><g
           transform="translate(226,168)"
           id="g104"><path
             id="path106"
             style="fill:#404040;fill-opacity:1;fill-rule:nonzero;stroke:none"
             d="M 0,0 H 4 C 5.104,0 6,0.896 6,2 6,3.104 5.104,4 4,4 H 0 C -1.104,4 -2,3.104 -2,2 -2,0.896 -1.104,0 0,0" /></g><g
           transform="translate(226,144)"
           id="g108"><path
             id="path110"
             style="fill:#404040;fill-opacity:1;fill-rule:nonzero;stroke:none"
             d="M 0,0 H 4 C 5.104,0 6,0.896 6,2 6,3.104 5.104,4 4,4 H 0 C -1.104,4 -2,3.104 -2,2 -2,0.896 -1.104,0 0,0" /></g><g
           transform="translate(226,136)"
           id="g112"><path
             id="path114"
             style="fill:#404040;fill-opacity:1;fill-rule:nonzero;stroke:none"
             d="M 0,0 H 4 C 5.104,0 6,0.896 6,2 6,3.104 5.104,4 4,4 H 0 C -1.104,4 -2,3.104 -2,2 -2,0.896 -1.104,0 0,0" /></g><g
           transform="translate(226,128)"
           id="g116"><path
             id="path118"
             style="fill:#404040;fill-opacity:1;fill-rule:nonzero;stroke:none"
             d="M 0,0 H 4 C 5.104,0 6,0.896 6,2 6,3.104 5.104,4 4,4 H 0 C -1.104,4 -2,3.104 -2,2 -2,0.896 -1.104,0 0,0" /></g><g
           transform="translate(184,204)"
           id="g120"><path
             id="path122"
             style="fill:#595959;fill-opacity:1;fill-rule:nonzero;stroke:none"
             d="m 0,0 h -112 c -17.6,0 -32,-14.4 -32,-32 v -50 c 0,-0.125 0.016,-0.246 0.019,-0.37 0.795,-44.103 39.877,-79.63 87.981,-79.63 48.104,0 87.186,35.527 87.981,79.63 0.003,0.124 0.019,0.245 0.019,0.37 v 50 C 32,-14.4 17.6,0 0,0" /></g><g
           transform="translate(184,192)"
           id="g124"><path
             id="path126"
             style="fill:#4c4c4c;fill-opacity:1;fill-rule:nonzero;stroke:none"
             d="M 0,0 V 4 H -112 V 0 c -11.028,0 -20,-8.972 -20,-20 v -49.687 c 0.006,-0.123 0.011,-0.245 0.015,-0.368 l 0.001,-0.049 0.001,-0.049 c 0.325,-18.001 8.248,-34.934 22.31,-47.679 C -95.322,-130.838 -76.261,-138 -56,-138 c 20.261,0 39.322,7.162 53.673,20.168 14.062,12.745 21.985,29.678 22.31,47.679 l 0.001,0.049 10e-4,0.049 c 0.003,0.124 0.008,0.246 0.015,0.369 L 20,-20 C 20,-8.972 11.028,0 0,0" /></g><g
           transform="translate(184,188)"
           id="g128"><path
             id="path130"
             style="fill:#333333;fill-opacity:1;fill-rule:nonzero;stroke:none"
             d="M 0,0 V 16 H -2 V 0 -2 h 2 c 7.72,0 14,-6.28 14,-14 v -49.542 c -0.005,-0.121 -0.01,-0.251 -0.014,-0.415 l -0.002,-0.088 C 13.689,-82.373 6.466,-97.765 -6.356,-109.386 -19.601,-121.39 -37.231,-128 -56,-128 c -18.769,0 -36.399,6.61 -49.644,18.614 -12.822,11.621 -20.046,27.031 -20.341,43.403 l -0.002,0.087 c -0.003,0.118 -0.008,0.236 -0.013,0.354 V -16 c 0,7.72 6.28,14 14,14 h 2 v 2 16 h -2 V 0 c -8.822,0 -16,-7.178 -16,-16 v -49.588 c 0.006,-0.12 0.01,-0.24 0.013,-0.361 l 10e-4,-0.017 0.002,-0.067 c 0.305,-16.934 7.762,-32.839 20.998,-44.835 C -93.374,-123.205 -75.266,-130 -56,-130 c 19.266,0 37.373,6.795 50.986,19.132 13.237,11.996 20.694,27.901 20.997,44.787 l 10e-4,0.017 10e-4,0.067 c 0.004,0.158 0.009,0.287 0.015,0.41 L 16,-16 C 16,-7.178 8.822,0 0,0" /></g><path
           id="path132"
           style="fill:#b80000;fill-opacity:1;fill-rule:nonzero;stroke:none"
           d="m 126,44 h 4 v 8 h -4 z" /><g
           transform="translate(24,210)"
           id="g134"><path
             id="path136"
             style="fill:#333333;fill-opacity:1;fill-rule:nonzero;stroke:none"
             d="M 0,0 C 0,-1.104 0.896,-2 2,-2 H 4 V 2 H 2 C 0.896,2 0,1.104 0,0" /></g><g
           transform="translate(24,202)"
           id="g138"><path
             id="path140"
             style="fill:#333333;fill-opacity:1;fill-rule:nonzero;stroke:none"
             d="M 0,0 C 0,-1.104 0.896,-2 2,-2 H 4 V 2 H 2 C 0.896,2 0,1.104 0,0" /></g><g
           transform="translate(24,194)"
           id="g142"><path
             id="path144"
             style="fill:#333333;fill-opacity:1;fill-rule:nonzero;stroke:none"
             d="M 0,0 C 0,-1.104 0.896,-2 2,-2 H 4 V 2 H 2 C 0.896,2 0,1.104 0,0" /></g><g
           transform="translate(24,186)"
           id="g146"><path
             id="path148"
             style="fill:#333333;fill-opacity:1;fill-rule:nonzero;stroke:none"
             d="M 0,0 C 0,-1.104 0.896,-2 2,-2 H 4 V 2 H 2 C 0.896,2 0,1.104 0,0" /></g><g
           transform="translate(24,178)"
           id="g150"><path
             id="path152"
             style="fill:#333333;fill-opacity:1;fill-rule:nonzero;stroke:none"
             d="M 0,0 C 0,-1.104 0.896,-2 2,-2 H 4 V 2 H 2 C 0.896,2 0,1.104 0,0" /></g><g
           transform="translate(24,170)"
           id="g154"><path
             id="path156"
             style="fill:#333333;fill-opacity:1;fill-rule:nonzero;stroke:none"
             d="M 0,0 C 0,-1.104 0.896,-2 2,-2 H 4 V 2 H 2 C 0.896,2 0,1.104 0,0" /></g><g
           transform="translate(24,146)"
           id="g158"><path
             id="path160"
             style="fill:#333333;fill-opacity:1;fill-rule:nonzero;stroke:none"
             d="M 0,0 C 0,-1.104 0.896,-2 2,-2 H 4 V 2 H 2 C 0.896,2 0,1.104 0,0" /></g><g
           transform="translate(24,138)"
           id="g162"><path
             id="path164"
             style="fill:#333333;fill-opacity:1;fill-rule:nonzero;stroke:none"
             d="M 0,0 C 0,-1.104 0.896,-2 2,-2 H 4 V 2 H 2 C 0.896,2 0,1.104 0,0" /></g><g
           transform="translate(24,130)"
           id="g166"><path
             id="path168"
             style="fill:#333333;fill-opacity:1;fill-rule:nonzero;stroke:none"
             d="M 0,0 C 0,-1.104 0.896,-2 2,-2 H 4 V 2 H 2 C 0.896,2 0,1.104 0,0" /></g><g
           transform="translate(232,210)"
           id="g170"><path
             id="path172"
             style="fill:#333333;fill-opacity:1;fill-rule:nonzero;stroke:none"
             d="m 0,0 c 0,1.104 -0.896,2 -2,2 h -2 v -4 h 2 c 1.104,0 2,0.896 2,2" /></g><g
           transform="translate(230,204)"
           id="g174"><path
             id="path176"
             style="fill:#333333;fill-opacity:1;fill-rule:nonzero;stroke:none"
             d="m 0,0 h -2 v -4 h 2 c 1.104,0 2,0.896 2,2 0,1.104 -0.896,2 -2,2" /></g><g
           transform="translate(230,196)"
           id="g178"><path
             id="path180"
             style="fill:#333333;fill-opacity:1;fill-rule:nonzero;stroke:none"
             d="m 0,0 h -2 v -4 h 2 c 1.104,0 2,0.896 2,2 0,1.104 -0.896,2 -2,2" /></g><g
           transform="translate(230,188)"
           id="g182"><path
             id="path184"
             style="fill:#333333;fill-opacity:1;fill-rule:nonzero;stroke:none"
             d="m 0,0 h -2 v -4 h 2 c 1.104,0 2,0.896 2,2 0,1.104 -0.896,2 -2,2" /></g><g
           transform="translate(230,180)"
           id="g186"><path
             id="path188"
             style="fill:#333333;fill-opacity:1;fill-rule:nonzero;stroke:none"
             d="m 0,0 h -2 v -4 h 2 c 1.104,0 2,0.896 2,2 0,1.104 -0.896,2 -2,2" /></g><g
           transform="translate(230,172)"
           id="g190"><path
             id="path192"
             style="fill:#333333;fill-opacity:1;fill-rule:nonzero;stroke:none"
             d="m 0,0 h -2 v -4 h 2 c 1.104,0 2,0.896 2,2 0,1.104 -0.896,2 -2,2" /></g><g
           transform="translate(230,148)"
           id="g194"><path
             id="path196"
             style="fill:#333333;fill-opacity:1;fill-rule:nonzero;stroke:none"
             d="m 0,0 h -2 v -4 h 2 c 1.104,0 2,0.896 2,2 0,1.104 -0.896,2 -2,2" /></g><g
           transform="translate(230,140)"
           id="g198"><path
             id="path200"
             style="fill:#333333;fill-opacity:1;fill-rule:nonzero;stroke:none"
             d="m 0,0 h -2 v -4 h 2 c 1.104,0 2,0.896 2,2 0,1.104 -0.896,2 -2,2" /></g><g
           transform="translate(230,132)"
           id="g202"><path
             id="path204"
             style="fill:#333333;fill-opacity:1;fill-rule:nonzero;stroke:none"
             d="m 0,0 h -2 v -4 h 2 c 1.104,0 2,0.896 2,2 0,1.104 -0.896,2 -2,2" /></g><g
           transform="translate(128,46)"
           id="g206"><path
             id="path208"
             style="fill:#ff0000;fill-opacity:1;fill-rule:nonzero;stroke:none"
             d="M 0,0 V 0 C -1.104,0 -2,0.896 -2,2 -2,3.104 -1.104,4 0,4 1.104,4 2,3.104 2,2 2,0.896 1.104,0 0,0" /></g></g></g></g></svg>