<svg xmlns="http://www.w3.org/2000/svg" xml:space="preserve" width="330.666" height="213.333" viewBox="0 0 330.666 213.333"><defs><clipPath id="a" clipPathUnits="userSpaceOnUse"><path d="M0 256h256V0H0Z"/></clipPath><clipPath id="b" clipPathUnits="userSpaceOnUse"><path d="M4 208h248V48H4Z"/></clipPath></defs><g clip-path="url(#a)" transform="matrix(1.33333 0 0 -1.33333 -5.334 277.333)"><g clip-path="url(#b)" style="opacity:.5"><path d="M0 0h-209.549c-3.125 0-6.964-.769-10.019-2.006-8.309-3.366-9.206-9.288-9.206-11.678V-131.16c0-12.496 15.029-21.881 25.805-23.108 33.891-3.857 65.916-5.732 97.906-5.732 31.987 0 64.198 1.875 98.473 5.731 10.78 1.213 25.816 10.591 25.816 23.109v117.476c0 2.39-.898 8.312-9.206 11.678C6.965-.769 3.125 0 0 0" style="fill:#fff;fill-opacity:1;fill-rule:nonzero;stroke:none" transform="translate(232.774 208)"/></g><path d="M0 0h209.549c3.742 0 11.225-1.895 11.225-5.684V-123.16c0-7.579-11.271-14.321-18.71-15.158-67.354-7.579-128.058-7.573-194.58 0-7.448.847-18.71 7.579-18.71 15.158V-5.684C-11.226-1.895-3.742 0 0 0" style="fill:#2c8bbf;fill-opacity:1;fill-rule:nonzero;stroke:none" transform="translate(23.226 200)"/><path d="M0 0h202.322c3.614 0 10.839-1.895 10.839-5.684V-123.16c0-7.579-10.883-14.321-18.064-15.158-65.033-7.579-123.643-7.573-187.871 0-7.192.847-18.065 7.579-18.065 15.158V-5.684C-10.839-1.895-3.613 0 0 0" style="fill:#3096cf;fill-opacity:1;fill-rule:nonzero;stroke:none" transform="translate(26.839 200)"/><path d="m0 0-23.098-16.698c-5.348-3.866-12.888-2.654-16.756 2.695l-.121.168C-43.841-8.487-42.629-.947-37.28 2.92l23.097 16.698c5.35 3.866 12.889 2.654 16.756-2.695l.121-.168C6.562 11.407 5.349 3.867 0 0" style="fill:#2c8bbf;fill-opacity:1;fill-rule:nonzero;stroke:none" transform="translate(233.21 144.54)"/><path d="M0 0h112.546c2.064 0 3.726-1.686 3.726-3.779v-113.386c0-3.78-120-3.78-120 0V-3.779C-3.728-1.686-2.065 0 0 0" style="fill:#333;fill-opacity:1;fill-rule:nonzero;stroke:none" transform="translate(71.71 196)"/><path d="M0 0h96.617c2.045 0 3.692-1.667 3.692-3.738v-93.458c0-3.739-104-3.739-104 0v93.458C-3.691-1.667-2.045 0 0 0" style="fill:#191919;fill-opacity:1;fill-rule:nonzero;stroke:none" transform="translate(79.691 184)"/><path d="M83.982 176h88V92h-88z" style="fill:#8c8c8c;fill-opacity:1;fill-rule:nonzero;stroke:none"/><path d="M0 0v10.398h-48V0c15.216-.273 32.784-.273 48 0" style="fill:#191919;fill-opacity:1;fill-rule:nonzero;stroke:none" transform="translate(151.982 76.205)"/><path d="M0 0h8.049c2.196 0 3.975-1.791 3.975-4s-1.779-4-3.975-4H0c-2.195 0-3.976 1.791-3.976 4S-2.195 0 0 0" style="fill:#404040;fill-opacity:1;fill-rule:nonzero;stroke:none" transform="translate(26.669 176)"/><path d="M0 0h.049c2.196 0 3.975-1.791 3.975-4S2.245-8 .049-8H0c-2.196 0-3.976 1.791-3.976 4S-2.196 0 0 0" style="fill:#404040;fill-opacity:1;fill-rule:nonzero;stroke:none" transform="translate(55.976 176)"/><path d="M0 0c0-5.523-4.478-10-10-10S-20-5.523-20 0s4.478 10 10 10S0 5.523 0 0" style="fill:#404040;fill-opacity:1;fill-rule:nonzero;stroke:none" transform="translate(214 138)"/><path d="M0 0c0-5.523-4.478-10-10-10S-20-5.523-20 0s4.478 10 10 10S0 5.523 0 0" style="fill:#404040;fill-opacity:1;fill-rule:nonzero;stroke:none" transform="translate(234 154)"/><path d="M0 0c0-11.046-8.954-20-20-20s-20 8.954-20 20 8.954 20 20 20S0 11.046 0 0" style="fill:#2c8bbf;fill-opacity:1;fill-rule:nonzero;stroke:none" transform="translate(60 140)"/><path d="M0 0c0-6.627-5.373-12-12-12S-24-6.627-24 0s5.373 12 12 12S0 6.627 0 0" style="fill:#404040;fill-opacity:1;fill-rule:nonzero;stroke:none" transform="translate(52 140)"/><path d="M0 0a6 6 0 0 0-12 0A6 6 0 0 0 0 0" style="fill:#404040;fill-opacity:1;fill-rule:nonzero;stroke:none" transform="translate(232 182)"/><path d="M0 0a2 2 0 1 0-4.001.001A2 2 0 0 0 0 0" style="fill:#404040;fill-opacity:1;fill-rule:nonzero;stroke:none" transform="translate(34 100)"/><path d="M0 0a2 2 0 1 0-4.001.001A2 2 0 0 0 0 0" style="fill:#404040;fill-opacity:1;fill-rule:nonzero;stroke:none" transform="translate(40 100)"/><path d="M0 0a2 2 0 1 0-4.001.001A2 2 0 0 0 0 0" style="fill:#404040;fill-opacity:1;fill-rule:nonzero;stroke:none" transform="translate(46 100)"/><path d="M0 0a2 2 0 1 0-4.001.001A2 2 0 0 0 0 0" style="fill:#404040;fill-opacity:1;fill-rule:nonzero;stroke:none" transform="translate(52 100)"/><path d="M0 0a2 2 0 1 0-4.001.001A2 2 0 0 0 0 0" style="fill:#404040;fill-opacity:1;fill-rule:nonzero;stroke:none" transform="translate(58 100)"/><path d="M0 0a2 2 0 1 0-4.001.001A2 2 0 0 0 0 0" style="fill:#404040;fill-opacity:1;fill-rule:nonzero;stroke:none" transform="translate(34 94)"/><path d="M0 0a2 2 0 1 0-4.001.001A2 2 0 0 0 0 0" style="fill:#404040;fill-opacity:1;fill-rule:nonzero;stroke:none" transform="translate(40 94)"/><path d="M0 0a2 2 0 1 0-4.001.001A2 2 0 0 0 0 0" style="fill:#404040;fill-opacity:1;fill-rule:nonzero;stroke:none" transform="translate(46 94)"/><path d="M0 0a2 2 0 1 0-4.001.001A2 2 0 0 0 0 0" style="fill:#404040;fill-opacity:1;fill-rule:nonzero;stroke:none" transform="translate(52 94)"/><path d="M0 0a2 2 0 1 0-4.001.001A2 2 0 0 0 0 0" style="fill:#404040;fill-opacity:1;fill-rule:nonzero;stroke:none" transform="translate(58 94)"/><path d="M0 0a2 2 0 1 0-4.001.001A2 2 0 0 0 0 0" style="fill:#404040;fill-opacity:1;fill-rule:nonzero;stroke:none" transform="translate(34 88)"/><path d="M0 0a2 2 0 1 0-4.001.001A2 2 0 0 0 0 0" style="fill:#404040;fill-opacity:1;fill-rule:nonzero;stroke:none" transform="translate(40 88)"/><path d="M0 0a2 2 0 1 0-4.001.001A2 2 0 0 0 0 0" style="fill:#404040;fill-opacity:1;fill-rule:nonzero;stroke:none" transform="translate(46 88)"/><path d="M0 0a2 2 0 1 0-4.001.001A2 2 0 0 0 0 0" style="fill:#404040;fill-opacity:1;fill-rule:nonzero;stroke:none" transform="translate(52 88)"/><path d="M0 0a2 2 0 1 0-4.001.001A2 2 0 0 0 0 0" style="fill:#404040;fill-opacity:1;fill-rule:nonzero;stroke:none" transform="translate(58 88)"/><path d="M0 0a2 2 0 1 0-4.001.001A2 2 0 0 0 0 0" style="fill:#404040;fill-opacity:1;fill-rule:nonzero;stroke:none" transform="translate(34 82)"/><path d="M0 0a2 2 0 1 0-4.001.001A2 2 0 0 0 0 0" style="fill:#404040;fill-opacity:1;fill-rule:nonzero;stroke:none" transform="translate(40 82)"/><path d="M0 0a2 2 0 1 0-4.001.001A2 2 0 0 0 0 0" style="fill:#404040;fill-opacity:1;fill-rule:nonzero;stroke:none" transform="translate(46 82)"/><path d="M0 0a2 2 0 1 0-4.001.001A2 2 0 0 0 0 0" style="fill:#404040;fill-opacity:1;fill-rule:nonzero;stroke:none" transform="translate(52 82)"/><path d="M0 0a2 2 0 1 0-4.001.001A2 2 0 0 0 0 0" style="fill:#404040;fill-opacity:1;fill-rule:nonzero;stroke:none" transform="translate(58 82)"/><path d="M0 0a2 2 0 1 0-4.001.001A2 2 0 0 0 0 0" style="fill:#2c8bbf;fill-opacity:1;fill-rule:nonzero;stroke:none" transform="translate(200 102)"/><path d="M0 0a2 2 0 1 0-4.001.001A2 2 0 0 0 0 0" style="fill:#2c8bbf;fill-opacity:1;fill-rule:nonzero;stroke:none" transform="translate(216 102)"/><path d="M0 0a2 2 0 1 0-4.001.001A2 2 0 0 0 0 0" style="fill:#2c8bbf;fill-opacity:1;fill-rule:nonzero;stroke:none" transform="translate(232 102)"/><path d="M0 0a2 2 0 1 0-4.001.001A2 2 0 0 0 0 0" style="fill:#2c8bbf;fill-opacity:1;fill-rule:nonzero;stroke:none" transform="translate(200 90)"/><path d="M0 0a2 2 0 1 0-4.001.001A2 2 0 0 0 0 0" style="fill:#2c8bbf;fill-opacity:1;fill-rule:nonzero;stroke:none" transform="translate(216 90)"/><path d="M0 0a2 2 0 1 0-4.001.001A2 2 0 0 0 0 0" style="fill:#2c8bbf;fill-opacity:1;fill-rule:nonzero;stroke:none" transform="translate(232 90)"/><path d="M0 0a2 2 0 1 0-4.001.001A2 2 0 0 0 0 0" style="fill:#2c8bbf;fill-opacity:1;fill-rule:nonzero;stroke:none" transform="translate(200 78)"/><path d="M0 0a2 2 0 1 0-4.001.001A2 2 0 0 0 0 0" style="fill:#2c8bbf;fill-opacity:1;fill-rule:nonzero;stroke:none" transform="translate(216 78)"/><path d="M0 0a2 2 0 1 0-4.001.001A2 2 0 0 0 0 0" style="fill:#2c8bbf;fill-opacity:1;fill-rule:nonzero;stroke:none" transform="translate(232 78)"/></g></svg>