<svg xmlns="http://www.w3.org/2000/svg" xml:space="preserve" width="330.667" height="245.333" viewBox="0 0 330.667 245.333"><defs><clipPath id="a" clipPathUnits="userSpaceOnUse"><path d="M0 256h256V0H0Z"/></clipPath><clipPath id="b" clipPathUnits="userSpaceOnUse"><path d="M4 220h248V36H4Z"/></clipPath></defs><g clip-path="url(#a)" transform="matrix(1.33333 0 0 -1.33333 -5.333 293.333)"><g clip-path="url(#b)" style="opacity:.5"><path d="M0 0h-224c-6.617 0-12-5.383-12-12v-160c0-6.617 5.383-12 12-12H0c6.617 0 12 5.383 12 12v160C12-5.383 6.617 0 0 0" style="fill:#fff;fill-opacity:1;fill-rule:nonzero;stroke:none" transform="translate(240 220)"/></g><path d="M0 0h-224a4 4 0 0 0-4 4v160a4 4 0 0 0 4 4H0a4 4 0 0 0 4-4V4a4 4 0 0 0-4-4" style="fill:#4c4c4c;fill-opacity:1;fill-rule:nonzero;stroke:none" transform="translate(240 44)"/><path d="M148 205h-36v2h36zm0-3h-36v2h36zm0-3h-36v2h36zm-40 6H80v2h28zm0-3H84v2h24zm0-3H88v2h20zm44 6h28v2h-28zm0-3h24v2h-24zm0-3h20v2h-20z" style="fill:#404040;fill-opacity:1;fill-rule:nonzero;stroke:none"/><path d="M0 0v-2h-4v2h-4v-2h-4v2h-4v-2h-4v2h-4v-2h-4v2h-4v-2h-4v2h-16l-12-12h-96l-12 12h-16v-2h-4v2h-4v-2h-4v2h-4v-2h-4v2h-4v-2h-4v2h-4v-2h-4v2h-4v-4h48l12-12h112l12 12H4v4z" style="fill:#404040;fill-opacity:1;fill-rule:nonzero;stroke:none" transform="translate(240 208)"/><path d="M0 0c0-9.941-5.82-18-13-18S-26-9.941-26 0s5.82 18 13 18S0 9.941 0 0" style="fill:#333;fill-opacity:1;fill-rule:nonzero;stroke:none" transform="translate(66 98)"/><path d="M0 0h-134c-15.95 0-29-13.05-29-29v-1H29v1C29-13.05 15.95 0 0 0" style="fill:#595959;fill-opacity:1;fill-rule:nonzero;stroke:none" transform="translate(195 180)"/><path d="M0 0h134c15.95 0 29 13.05 29 29v1H-29v-1C-29 13.05-15.95 0 0 0" style="fill:#404040;fill-opacity:1;fill-rule:nonzero;stroke:none" transform="translate(61 120)"/><path d="M0 0h-132c-7.7 0-14 6.3-14 14s6.3 14 14 14H0c7.7 0 14-6.3 14-14S7.7 0 0 0" style="fill:#333;fill-opacity:1;fill-rule:nonzero;stroke:none" transform="translate(194 136)"/><path d="M196 140H60v20h136z" style="fill:#404040;fill-opacity:1;fill-rule:nonzero;stroke:none"/><path d="m0 0 4-16h2L2 0Z" style="fill:#4c4c4c;fill-opacity:1;fill-rule:nonzero;stroke:none" transform="translate(64.666 136)"/><path d="m0 0-4-16h2L2 0Z" style="fill:#4c4c4c;fill-opacity:1;fill-rule:nonzero;stroke:none" transform="translate(190.667 136)"/><path d="M0 0h2l4 16H4Z" style="fill:#4c4c4c;fill-opacity:1;fill-rule:nonzero;stroke:none" transform="translate(64.666 164)"/><path d="M0 0h-2l4-16h2Z" style="fill:#4c4c4c;fill-opacity:1;fill-rule:nonzero;stroke:none" transform="translate(188.667 180)"/><path d="M82 140h-2v20h2zm94 0h-2v20h2z" style="fill:#4c4c4c;fill-opacity:1;fill-rule:nonzero;stroke:none"/><path d="M196 149H60v2h136z" style="fill:#333;fill-opacity:1;fill-rule:nonzero;stroke:none"/><path d="M0 0v76h-1.936V0Z" style="fill:#404040;fill-opacity:1;fill-rule:nonzero;stroke:none" transform="translate(70.602 44)"/><path d="M186.731 44h1.936v76h-1.936z" style="fill:#404040;fill-opacity:1;fill-rule:nonzero;stroke:none"/><path d="M0 0v-8h1.936v6h116.129v-6H120v8z" style="fill:#404040;fill-opacity:1;fill-rule:nonzero;stroke:none" transform="translate(68.666 188)"/><path d="m0 0-28-12v-40h2v38.682L.411-2H2v-50h2V0z" style="fill:#404040;fill-opacity:1;fill-rule:nonzero;stroke:none" transform="translate(48 96)"/><path d="M0 0a8 8 0 1 0-16 0A8 8 0 0 0 0 0" style="fill:#595959;fill-opacity:1;fill-rule:nonzero;stroke:none" transform="translate(60 100)"/><path d="M0 0c-5.514 0-10-4.486-10-10s4.486-10 10-10 10 4.486 10 10S5.514 0 0 0m0-2a8 8 0 1 0 0-16A8 8 0 0 0 0-2" style="fill:#333;fill-opacity:1;fill-rule:nonzero;stroke:none" transform="translate(52 110)"/><path d="M0 0h-136v2a2 2 0 0 0 2 2H-2a2 2 0 0 0 2-2Z" style="fill:#333;fill-opacity:1;fill-rule:nonzero;stroke:none" transform="translate(196 160)"/><path d="M0 0h-132a2 2 0 0 0-2 2v2H2V2a2 2 0 0 0-2-2" style="fill:#333;fill-opacity:1;fill-rule:nonzero;stroke:none" transform="translate(194 136)"/></g></svg>