<svg xmlns="http://www.w3.org/2000/svg" xml:space="preserve" width="320" height="266.667" viewBox="0 0 320 266.667"><defs><clipPath id="a" clipPathUnits="userSpaceOnUse"><path d="M0 256h256V0H0Z"/></clipPath><clipPath id="b" clipPathUnits="userSpaceOnUse"><path d="M8 228h240V28H8Z"/></clipPath></defs><g clip-path="url(#a)" transform="matrix(1.33333 0 0 -1.33333 -10.667 304)"><g clip-path="url(#b)" style="opacity:.5"><path d="M0 0c0 8.822-7.178 16-16 16h-208c-8.822 0-16-7.178-16-16v-10.54c0-1.204.211-2.373.607-3.46a10.1 10.1 0 0 1-.607-3.46v-1.08c0-1.204.211-2.373.607-3.46a10.1 10.1 0 0 1-.607-3.46v-1.08c0-1.204.211-2.373.607-3.46a10.1 10.1 0 0 1-.607-3.46v-1.08c0-1.204.211-2.373.607-3.46a10.1 10.1 0 0 1-.607-3.46v-1.08c0-1.204.211-2.373.607-3.46a10.1 10.1 0 0 1-.607-3.46v-1.08c0-1.204.211-2.373.607-3.46a10.1 10.1 0 0 1-.607-3.46V-168c0-8.822 7.178-16 16-16h208c8.822 0 16 7.178 16 16v110.54c0 1.204-.211 2.373-.607 3.46.396 1.087.607 2.256.607 3.46v1.08c0 1.204-.211 2.373-.607 3.46.396 1.087.607 2.256.607 3.46v1.08c0 1.204-.211 2.373-.607 3.46.396 1.087.607 2.256.607 3.46v1.08c0 1.204-.211 2.373-.607 3.46.396 1.087.607 2.256.607 3.46v1.08c0 1.204-.211 2.373-.607 3.46.396 1.087.607 2.256.607 3.46v1.08c0 1.204-.211 2.373-.607 3.46.396 1.087.607 2.256.607 3.46z" style="fill:#fff;fill-opacity:1;fill-rule:nonzero;stroke:none" transform="translate(248 212)"/></g><path d="M0 0a2 2 0 0 0 1.054 1.762C1.663 2.09 2 2.768 2 3.46v1.08c0 .692-.337 1.37-.946 1.698a2 2 0 0 0 0 3.524c.609.328.946 1.006.946 1.698v1.08c0 .692-.337 1.37-.946 1.698a2 2 0 0 0 0 3.524c.609.328.946 1.006.946 1.698v1.08c0 .692-.337 1.37-.946 1.698a2 2 0 0 0 0 3.524c.609.328.946 1.006.946 1.698v1.08c0 .692-.337 1.37-.946 1.698a2 2 0 0 0 0 3.524c.609.328.946 1.006.946 1.698v1.08c0 .692-.337 1.37-.946 1.698a2 2 0 0 0 0 3.524c.609.328.946 1.006.946 1.698V54c0 4.4-3.6 8-8 8h-208c-4.4 0-8-3.6-8-8V43.46c0-.692.337-1.37.947-1.698a1.999 1.999 0 0 0 0-3.524c-.61-.328-.947-1.006-.947-1.698v-1.08c0-.692.337-1.37.947-1.698a1.999 1.999 0 0 0 0-3.524c-.61-.328-.947-1.006-.947-1.698v-1.08c0-.692.337-1.37.947-1.698a1.999 1.999 0 0 0 0-3.524c-.61-.328-.947-1.006-.947-1.698v-1.08c0-.692.337-1.37.947-1.698a1.999 1.999 0 0 0 0-3.524c-.61-.328-.947-1.006-.947-1.698v-1.08c0-.692.337-1.37.947-1.698a1.999 1.999 0 0 0 0-3.524c-.61-.328-.947-1.006-.947-1.698V3.46c0-.692.337-1.37.947-1.698a1.999 1.999 0 0 0 0-3.524c-.61-.328-.947-1.006-.947-1.698V-114c0-4.4 3.6-8 8-8H-6c4.4 0 8 3.6 8 8V-3.46c0 .692-.337 1.37-.946 1.698A2 2 0 0 0 0 0" style="fill:#4c4c4c;fill-opacity:1;fill-rule:nonzero;stroke:none" transform="translate(238 158)"/><path d="M0 0h23.264c2.597 0 3.967 3.076 2.23 5.007L.973 32.252C-1.479 34.977-6 33.242-6 29.576V6a6 6 0 0 1 6-6" style="fill:#a6a6a6;fill-opacity:1;fill-rule:nonzero;stroke:none" transform="translate(34 52)"/><path d="M0 0h-23.264c-2.597 0-3.967 3.076-2.229 5.007l24.52 27.245C1.479 34.977 6 33.242 6 29.576V6a6 6 0 0 0-6-6" style="fill:#a6a6a6;fill-opacity:1;fill-rule:nonzero;stroke:none" transform="translate(222.27 52)"/><path d="M0 0h-12a2 2 0 0 0 0 4H0a2 2 0 0 0 0-4" style="fill:#404040;fill-opacity:1;fill-rule:nonzero;stroke:none" transform="translate(38 208)"/><path d="M0 0h-12a2 2 0 0 0 0 4H0a2 2 0 0 0 0-4" style="fill:#404040;fill-opacity:1;fill-rule:nonzero;stroke:none" transform="translate(38 200)"/><path d="M0 0h-12a2 2 0 0 0 0 4H0a2 2 0 0 0 0-4" style="fill:#404040;fill-opacity:1;fill-rule:nonzero;stroke:none" transform="translate(38 192)"/><path d="M0 0h-4a2 2 0 0 0 0 4h4a2 2 0 0 0 0-4" style="fill:#404040;fill-opacity:1;fill-rule:nonzero;stroke:none" transform="translate(30 184)"/><path d="M0 0h-4a2 2 0 0 0 0 4h4a2 2 0 0 0 0-4" style="fill:#404040;fill-opacity:1;fill-rule:nonzero;stroke:none" transform="translate(30 176)"/><path d="M0 0h-4a2 2 0 0 0 0 4h4a2 2 0 0 0 0-4" style="fill:#404040;fill-opacity:1;fill-rule:nonzero;stroke:none" transform="translate(30 168)"/><path d="M0 0h-4a2 2 0 0 0 0 4h4a2 2 0 0 0 0-4" style="fill:#404040;fill-opacity:1;fill-rule:nonzero;stroke:none" transform="translate(30 144)"/><path d="M0 0h-4a2 2 0 0 0 0 4h4a2 2 0 0 0 0-4" style="fill:#404040;fill-opacity:1;fill-rule:nonzero;stroke:none" transform="translate(30 136)"/><path d="M0 0h-4a2 2 0 0 0 0 4h4a2 2 0 0 0 0-4" style="fill:#404040;fill-opacity:1;fill-rule:nonzero;stroke:none" transform="translate(30 128)"/><path d="M0 0h12a2 2 0 0 1 0 4H0a2 2 0 0 1 0-4" style="fill:#404040;fill-opacity:1;fill-rule:nonzero;stroke:none" transform="translate(218 208)"/><path d="M0 0h12a2 2 0 0 1 0 4H0a2 2 0 0 1 0-4" style="fill:#404040;fill-opacity:1;fill-rule:nonzero;stroke:none" transform="translate(218 200)"/><path d="M0 0h12a2 2 0 0 1 0 4H0a2 2 0 0 1 0-4" style="fill:#404040;fill-opacity:1;fill-rule:nonzero;stroke:none" transform="translate(218 192)"/><path d="M0 0h4a2 2 0 0 1 0 4H0a2 2 0 0 1 0-4" style="fill:#404040;fill-opacity:1;fill-rule:nonzero;stroke:none" transform="translate(226 184)"/><path d="M0 0h4a2 2 0 0 1 0 4H0a2 2 0 0 1 0-4" style="fill:#404040;fill-opacity:1;fill-rule:nonzero;stroke:none" transform="translate(226 176)"/><path d="M0 0h4a2 2 0 0 1 0 4H0a2 2 0 0 1 0-4" style="fill:#404040;fill-opacity:1;fill-rule:nonzero;stroke:none" transform="translate(226 168)"/><path d="M0 0h4a2 2 0 0 1 0 4H0a2 2 0 0 1 0-4" style="fill:#404040;fill-opacity:1;fill-rule:nonzero;stroke:none" transform="translate(226 144)"/><path d="M0 0h4a2 2 0 0 1 0 4H0a2 2 0 0 1 0-4" style="fill:#404040;fill-opacity:1;fill-rule:nonzero;stroke:none" transform="translate(226 136)"/><path d="M0 0h4a2 2 0 0 1 0 4H0a2 2 0 0 1 0-4" style="fill:#404040;fill-opacity:1;fill-rule:nonzero;stroke:none" transform="translate(226 128)"/><path d="M0 0h-112c-17.6 0-32-14.4-32-32v-50c0-.125.016-.246.019-.37C-143.186-126.473-104.104-162-56-162s87.186 35.527 87.981 79.63c.003.124.019.245.019.37v50C32-14.4 17.6 0 0 0" style="fill:#595959;fill-opacity:1;fill-rule:nonzero;stroke:none" transform="translate(184 204)"/><path d="M0 0v4h-112V0c-11.028 0-20-8.972-20-20v-49.687q.009-.184.015-.368l.001-.049.001-.049c.325-18.001 8.248-34.934 22.31-47.679C-95.322-130.838-76.261-138-56-138s39.322 7.162 53.673 20.168c14.062 12.745 21.985 29.678 22.31 47.679l.001.049.001.049q.005.185.015.369V-20C20-8.972 11.028 0 0 0" style="fill:#4c4c4c;fill-opacity:1;fill-rule:nonzero;stroke:none" transform="translate(184 192)"/><path d="M0 0v16h-2V-2h2c7.72 0 14-6.28 14-14v-49.542c-.005-.121-.01-.251-.014-.415l-.002-.088c-.295-16.328-7.518-31.72-20.34-43.341C-19.601-121.39-37.231-128-56-128s-36.399 6.61-49.644 18.614c-12.822 11.621-20.046 27.031-20.341 43.403l-.002.087q-.005.177-.013.354V-16c0 7.72 6.28 14 14 14h2v18h-2V0c-8.822 0-16-7.178-16-16v-49.588q.009-.18.013-.361l.001-.017.002-.067c.305-16.934 7.762-32.839 20.998-44.835C-93.374-123.205-75.266-130-56-130s37.373 6.795 50.986 19.132C8.223-98.872 15.68-82.967 15.983-66.081l.001.017.001.067c.004.158.009.287.015.41V-16C16-7.178 8.822 0 0 0" style="fill:#333;fill-opacity:1;fill-rule:nonzero;stroke:none" transform="translate(184 188)"/><path d="M126 44h4v8h-4z" style="fill:#b80000;fill-opacity:1;fill-rule:nonzero;stroke:none"/><path d="M0 0a2 2 0 0 1 2-2h2v4H2a2 2 0 0 1-2-2" style="fill:#333;fill-opacity:1;fill-rule:nonzero;stroke:none" transform="translate(24 210)"/><path d="M0 0a2 2 0 0 1 2-2h2v4H2a2 2 0 0 1-2-2" style="fill:#333;fill-opacity:1;fill-rule:nonzero;stroke:none" transform="translate(24 202)"/><path d="M0 0a2 2 0 0 1 2-2h2v4H2a2 2 0 0 1-2-2" style="fill:#333;fill-opacity:1;fill-rule:nonzero;stroke:none" transform="translate(24 194)"/><path d="M0 0a2 2 0 0 1 2-2h2v4H2a2 2 0 0 1-2-2" style="fill:#333;fill-opacity:1;fill-rule:nonzero;stroke:none" transform="translate(24 186)"/><path d="M0 0a2 2 0 0 1 2-2h2v4H2a2 2 0 0 1-2-2" style="fill:#333;fill-opacity:1;fill-rule:nonzero;stroke:none" transform="translate(24 178)"/><path d="M0 0a2 2 0 0 1 2-2h2v4H2a2 2 0 0 1-2-2" style="fill:#333;fill-opacity:1;fill-rule:nonzero;stroke:none" transform="translate(24 170)"/><path d="M0 0a2 2 0 0 1 2-2h2v4H2a2 2 0 0 1-2-2" style="fill:#333;fill-opacity:1;fill-rule:nonzero;stroke:none" transform="translate(24 146)"/><path d="M0 0a2 2 0 0 1 2-2h2v4H2a2 2 0 0 1-2-2" style="fill:#333;fill-opacity:1;fill-rule:nonzero;stroke:none" transform="translate(24 138)"/><path d="M0 0a2 2 0 0 1 2-2h2v4H2a2 2 0 0 1-2-2" style="fill:#333;fill-opacity:1;fill-rule:nonzero;stroke:none" transform="translate(24 130)"/><path d="M0 0a2 2 0 0 1-2 2h-2v-4h2a2 2 0 0 1 2 2" style="fill:#333;fill-opacity:1;fill-rule:nonzero;stroke:none" transform="translate(232 210)"/><path d="M0 0h-2v-4h2a2 2 0 0 1 0 4" style="fill:#333;fill-opacity:1;fill-rule:nonzero;stroke:none" transform="translate(230 204)"/><path d="M0 0h-2v-4h2a2 2 0 0 1 0 4" style="fill:#333;fill-opacity:1;fill-rule:nonzero;stroke:none" transform="translate(230 196)"/><path d="M0 0h-2v-4h2a2 2 0 0 1 0 4" style="fill:#333;fill-opacity:1;fill-rule:nonzero;stroke:none" transform="translate(230 188)"/><path d="M0 0h-2v-4h2a2 2 0 0 1 0 4" style="fill:#333;fill-opacity:1;fill-rule:nonzero;stroke:none" transform="translate(230 180)"/><path d="M0 0h-2v-4h2a2 2 0 0 1 0 4" style="fill:#333;fill-opacity:1;fill-rule:nonzero;stroke:none" transform="translate(230 172)"/><path d="M0 0h-2v-4h2a2 2 0 0 1 0 4" style="fill:#333;fill-opacity:1;fill-rule:nonzero;stroke:none" transform="translate(230 148)"/><path d="M0 0h-2v-4h2a2 2 0 0 1 0 4" style="fill:#333;fill-opacity:1;fill-rule:nonzero;stroke:none" transform="translate(230 140)"/><path d="M0 0h-2v-4h2a2 2 0 0 1 0 4" style="fill:#333;fill-opacity:1;fill-rule:nonzero;stroke:none" transform="translate(230 132)"/><path d="M0 0a2 2 0 1 0 .001 4.001A2 2 0 0 0 0 0" style="fill:red;fill-opacity:1;fill-rule:nonzero;stroke:none" transform="translate(128 46)"/></g></svg>