<?xml version="1.0" encoding="UTF-8" standalone="no"?>
<svg
   xmlns:dc="http://purl.org/dc/elements/1.1/"
   xmlns:cc="http://creativecommons.org/ns#"
   xmlns:rdf="http://www.w3.org/1999/02/22-rdf-syntax-ns#"
   xmlns:svg="http://www.w3.org/2000/svg"
   xmlns="http://www.w3.org/2000/svg"
   viewBox="0 0 330.66665 245.33333"
   height="245.33333"
   width="330.66666"
   xml:space="preserve"
   id="svg2"
   version="1.1"><metadata
     id="metadata8"><rdf:RDF><cc:Work
         rdf:about=""><dc:format>image/svg+xml</dc:format><dc:type
           rdf:resource="http://purl.org/dc/dcmitype/StillImage" /></cc:Work></rdf:RDF></metadata><defs
     id="defs6"><clipPath
       id="clipPath18"
       clipPathUnits="userSpaceOnUse"><path
         id="path16"
         d="M 0,256 H 256 V 0 H 0 Z" /></clipPath><clipPath
       id="clipPath26"
       clipPathUnits="userSpaceOnUse"><path
         id="path24"
         d="M 4,220 H 252 V 36 H 4 Z" /></clipPath></defs><g
     transform="matrix(1.3333333,0,0,-1.3333333,-5.3333332,293.33333)"
     id="g10"><g
       id="g12"><g
         clip-path="url(#clipPath18)"
         id="g14"><g
           id="g20"><g
             id="g22" /><g
             id="g34"><g
               style="opacity:0.5"
               id="g32"
               clip-path="url(#clipPath26)"><g
                 id="g30"
                 transform="translate(240,220)"><path
                   id="path28"
                   style="fill:#ffffff;fill-opacity:1;fill-rule:nonzero;stroke:none"
                   d="m 0,0 h -224 c -6.617,0 -12,-5.383 -12,-12 v -160 c 0,-6.617 5.383,-12 12,-12 H 0 c 6.617,0 12,5.383 12,12 V -12 C 12,-5.383 6.617,0 0,0" /></g></g></g></g><g
           transform="translate(240,44)"
           id="g36"><path
             id="path38"
             style="fill:#4c4c4c;fill-opacity:1;fill-rule:nonzero;stroke:none"
             d="m 0,0 h -224 c -2.209,0 -4,1.791 -4,4 v 160 c 0,2.209 1.791,4 4,4 H 0 c 2.209,0 4,-1.791 4,-4 V 4 C 4,1.791 2.209,0 0,0" /></g><path
           id="path40"
           style="fill:#404040;fill-opacity:1;fill-rule:nonzero;stroke:none"
           d="m 148,205 h -36 v 2 h 36 z" /><path
           id="path42"
           style="fill:#404040;fill-opacity:1;fill-rule:nonzero;stroke:none"
           d="m 148,202 h -36 v 2 h 36 z" /><path
           id="path44"
           style="fill:#404040;fill-opacity:1;fill-rule:nonzero;stroke:none"
           d="m 148,199 h -36 v 2 h 36 z" /><path
           id="path46"
           style="fill:#404040;fill-opacity:1;fill-rule:nonzero;stroke:none"
           d="M 108,205 H 80 v 2 h 28 z" /><path
           id="path48"
           style="fill:#404040;fill-opacity:1;fill-rule:nonzero;stroke:none"
           d="M 108,202 H 84 v 2 h 24 z" /><path
           id="path50"
           style="fill:#404040;fill-opacity:1;fill-rule:nonzero;stroke:none"
           d="M 108,199 H 88 v 2 h 20 z" /><path
           id="path52"
           style="fill:#404040;fill-opacity:1;fill-rule:nonzero;stroke:none"
           d="m 152,205 h 28 v 2 h -28 z" /><path
           id="path54"
           style="fill:#404040;fill-opacity:1;fill-rule:nonzero;stroke:none"
           d="m 152,202 h 24 v 2 h -24 z" /><path
           id="path56"
           style="fill:#404040;fill-opacity:1;fill-rule:nonzero;stroke:none"
           d="m 152,199 h 20 v 2 h -20 z" /><g
           transform="translate(240,208)"
           id="g58"><path
             id="path60"
             style="fill:#404040;fill-opacity:1;fill-rule:nonzero;stroke:none"
             d="m 0,0 v -2 h -4 v 2 h -4 v -2 h -4 v 2 h -4 v -2 h -4 v 2 h -4 v -2 h -4 v 2 h -4 v -2 h -4 v 2 h -16 l -12,-12 h -96 l -12,12 h -16 v -2 h -4 v 2 h -4 v -2 h -4 v 2 h -4 v -2 h -4 v 2 h -4 v -2 h -4 v 2 h -4 v -2 h -4 v 2 h -4 v -4 h 48 l 12,-12 h 112 l 12,12 H 4 v 4 z" /></g><g
           transform="translate(66,98)"
           id="g62"><path
             id="path64"
             style="fill:#333333;fill-opacity:1;fill-rule:nonzero;stroke:none"
             d="m 0,0 c 0,-9.941 -5.82,-18 -13,-18 -7.18,0 -13,8.059 -13,18 0,9.941 5.82,18 13,18 C -5.82,18 0,9.941 0,0" /></g><g
           transform="translate(195,180)"
           id="g66"><path
             id="path68"
             style="fill:#595959;fill-opacity:1;fill-rule:nonzero;stroke:none"
             d="m 0,0 h -134 c -15.95,0 -29,-13.05 -29,-29 v -1 H 29 v 1 C 29,-13.05 15.95,0 0,0" /></g><g
           transform="translate(61,120)"
           id="g70"><path
             id="path72"
             style="fill:#404040;fill-opacity:1;fill-rule:nonzero;stroke:none"
             d="m 0,0 h 134 c 15.95,0 29,13.05 29,29 v 1 H -29 V 29 C -29,13.05 -15.95,0 0,0" /></g><g
           transform="translate(194,136)"
           id="g74"><path
             id="path76"
             style="fill:#333333;fill-opacity:1;fill-rule:nonzero;stroke:none"
             d="m 0,0 h -132 c -7.7,0 -14,6.3 -14,14 0,7.7 6.3,14 14,14 H 0 C 7.7,28 14,21.7 14,14 14,6.3 7.7,0 0,0" /></g><path
           id="path78"
           style="fill:#404040;fill-opacity:1;fill-rule:nonzero;stroke:none"
           d="M 196,140 H 60 v 20 h 136 z" /><g
           transform="translate(64.6665,136)"
           id="g80"><path
             id="path82"
             style="fill:#4c4c4c;fill-opacity:1;fill-rule:nonzero;stroke:none"
             d="M 0,0 4,-16 H 6 L 2,0 Z" /></g><g
           transform="translate(190.667,136)"
           id="g84"><path
             id="path86"
             style="fill:#4c4c4c;fill-opacity:1;fill-rule:nonzero;stroke:none"
             d="m 0,0 -4,-16 h 2 L 2,0 Z" /></g><g
           transform="translate(64.6665,164)"
           id="g88"><path
             id="path90"
             style="fill:#4c4c4c;fill-opacity:1;fill-rule:nonzero;stroke:none"
             d="M 0,0 H 2 L 6,16 H 4 Z" /></g><g
           transform="translate(188.667,180)"
           id="g92"><path
             id="path94"
             style="fill:#4c4c4c;fill-opacity:1;fill-rule:nonzero;stroke:none"
             d="M 0,0 H -2 L 2,-16 H 4 Z" /></g><path
           id="path96"
           style="fill:#4c4c4c;fill-opacity:1;fill-rule:nonzero;stroke:none"
           d="m 82,140 h -2 v 20 h 2 z" /><path
           id="path98"
           style="fill:#4c4c4c;fill-opacity:1;fill-rule:nonzero;stroke:none"
           d="m 176,140 h -2 v 20 h 2 z" /><path
           id="path100"
           style="fill:#333333;fill-opacity:1;fill-rule:nonzero;stroke:none"
           d="M 196,149 H 60 v 2 h 136 z" /><g
           transform="translate(70.6021,44)"
           id="g102"><path
             id="path104"
             style="fill:#404040;fill-opacity:1;fill-rule:nonzero;stroke:none"
             d="M 0,0 V 76 H -1.935 -1.936 V 0 Z" /></g><path
           id="path106"
           style="fill:#404040;fill-opacity:1;fill-rule:nonzero;stroke:none"
           d="m 186.731,44 h 1.936 v 76 h -1.936 z" /><g
           transform="translate(68.6665,188)"
           id="g108"><path
             id="path110"
             style="fill:#404040;fill-opacity:1;fill-rule:nonzero;stroke:none"
             d="m 0,0 v -8 h 1.936 v 6 H 118.065 V -8 H 120 v 8 z" /></g><g
           transform="translate(48,96)"
           id="g112"><path
             id="path114"
             style="fill:#404040;fill-opacity:1;fill-rule:nonzero;stroke:none"
             d="m 0,0 -28,-12 v -40 h 2 v 38.682 L 0.411,-2 H 2 v -10 -40 h 2 v 40 12 z" /></g><g
           transform="translate(60,100)"
           id="g116"><path
             id="path118"
             style="fill:#595959;fill-opacity:1;fill-rule:nonzero;stroke:none"
             d="m 0,0 c 0,-4.418 -3.582,-8 -8,-8 -4.418,0 -8,3.582 -8,8 0,4.418 3.582,8 8,8 4.418,0 8,-3.582 8,-8" /></g><g
           transform="translate(52,110)"
           id="g120"><path
             id="path122"
             style="fill:#333333;fill-opacity:1;fill-rule:nonzero;stroke:none"
             d="m 0,0 c -5.514,0 -10,-4.486 -10,-10 0,-5.514 4.486,-10 10,-10 5.514,0 10,4.486 10,10 C 10,-4.486 5.514,0 0,0 m 0,-2 c 4.418,0 8,-3.582 8,-8 0,-4.418 -3.582,-8 -8,-8 -4.418,0 -8,3.582 -8,8 0,4.418 3.582,8 8,8" /></g><g
           transform="translate(196,160)"
           id="g124"><path
             id="path126"
             style="fill:#333333;fill-opacity:1;fill-rule:nonzero;stroke:none"
             d="m 0,0 h -136 v 2 c 0,1.104 0.896,2 2,2 H -2 C -0.896,4 0,3.104 0,2 Z" /></g><g
           transform="translate(194,136)"
           id="g128"><path
             id="path130"
             style="fill:#333333;fill-opacity:1;fill-rule:nonzero;stroke:none"
             d="m 0,0 h -132 c -1.104,0 -2,0.896 -2,2 V 4 H 2 V 2 C 2,0.896 1.104,0 0,0" /></g></g></g></g></svg>