<svg xmlns="http://www.w3.org/2000/svg" xml:space="preserve" width="330.667" height="269.333" viewBox="0 0 330.667 269.333"><defs><clipPath id="a" clipPathUnits="userSpaceOnUse"><path d="M0 256h256V0H0Z"/></clipPath><clipPath id="b" clipPathUnits="userSpaceOnUse"><path d="M4 229h248V27H4Z"/></clipPath></defs><g clip-path="url(#a)" transform="matrix(1.33333 0 0 -1.33333 -5.333 305.333)"><g clip-path="url(#b)" style="opacity:.5"><path d="M0 0h-240v-200h24v-2h60v2H8V0z" style="fill:#fff;fill-opacity:1;fill-rule:nonzero;stroke:none" transform="translate(244 229)"/></g></g><path d="M56 34H36v4h20zm24 0H60v4h20z" style="fill:#8c8c8c;fill-opacity:1;fill-rule:nonzero;stroke:none" transform="matrix(1.33333 0 0 -1.33333 -5.333 305.333)"/><path d="M244 36H12v184h232z" style="fill:#ccc;fill-opacity:1;fill-rule:nonzero;stroke:none" transform="matrix(1.33333 0 0 -1.33333 -5.333 305.333)"/><path d="M216 180h-40v40h40zm0-144h-40v36h40z" style="fill:#333;fill-opacity:1;fill-rule:nonzero;stroke:none" transform="matrix(1.33333 0 0 -1.33333 -5.333 305.333)"/><path d="M216 172h-40v4h40zm0-8h-40v4h40zm0-8h-40v4h40zm0-8h-40v4h40zm0-8h-40v4h40zm0-8h-40v4h40zm0-8h-40v4h40zm0-8h-40v4h40zm0-8h-40v4h40zm0-8h-40v4h40zm0-8h-40v4h40zm0-8h-40v4h40zm0-8h-40v4h40z" style="fill:#999;fill-opacity:1;fill-rule:nonzero;stroke:none" transform="matrix(1.33333 0 0 -1.33333 -5.333 305.333)"/><path d="M216 200h-40v2h40zm0-148h-40v2h40z" style="fill:#191919;fill-opacity:1;fill-rule:nonzero;stroke:none" transform="matrix(1.33333 0 0 -1.33333 -5.333 305.333)"/><path d="M216 172h-2v4h2zm0-8h-2v4h2zm0-8h-2v4h2zm0-8h-2v4h2zm0-8h-2v4h2zm0-8h-2v4h2zm0-8h-2v4h2zm0-8h-2v4h2zm0-8h-2v4h2zm0-8h-2v4h2zm0-8h-2v4h2zm0-8h-2v4h2zm0-8h-2v4h2z" style="fill:#8c8c8c;fill-opacity:1;fill-rule:nonzero;stroke:none" transform="matrix(1.33333 0 0 -1.33333 -5.333 305.333)"/><path d="M218 36h-2v184h2z" style="fill:gray;fill-opacity:1;fill-rule:nonzero;stroke:none" transform="matrix(1.33333 0 0 -1.33333 -5.333 305.333)"/><path d="M176 36h-2v184h2z" style="fill:#d9d9d9;fill-opacity:1;fill-rule:nonzero;stroke:none" transform="matrix(1.33333 0 0 -1.33333 -5.333 305.333)"/><path d="M0 0h-138v-32h4v24h-2v4H0v-4h-2v-24h4V0z" style="fill:#999;fill-opacity:1;fill-rule:nonzero;stroke:none" transform="matrix(1.33333 0 0 -1.33333 226.667 214.667)"/></svg>