<?xml version="1.0" encoding="UTF-8" standalone="no"?>
<svg
   xmlns:dc="http://purl.org/dc/elements/1.1/"
   xmlns:cc="http://creativecommons.org/ns#"
   xmlns:rdf="http://www.w3.org/1999/02/22-rdf-syntax-ns#"
   xmlns:svg="http://www.w3.org/2000/svg"
   xmlns="http://www.w3.org/2000/svg"
   viewBox="0 0 330.66665 269.33331"
   height="269.33331"
   width="330.66666"
   xml:space="preserve"
   id="svg2"
   version="1.1"><metadata
     id="metadata8"><rdf:RDF><cc:Work
         rdf:about=""><dc:format>image/svg+xml</dc:format><dc:type
           rdf:resource="http://purl.org/dc/dcmitype/StillImage" /></cc:Work></rdf:RDF></metadata><defs
     id="defs6"><clipPath
       id="clipPath18"
       clipPathUnits="userSpaceOnUse"><path
         id="path16"
         d="M 0,256 H 256 V 0 H 0 Z" /></clipPath><clipPath
       id="clipPath26"
       clipPathUnits="userSpaceOnUse"><path
         id="path24"
         d="M 4,229 H 252 V 27 H 4 Z" /></clipPath></defs><g
     transform="matrix(1.3333333,0,0,-1.3333333,-5.3333332,305.33333)"
     id="g10"><g
       id="g12"><g
         clip-path="url(#clipPath18)"
         id="g14"><g
           id="g20"><g
             id="g22" /><g
             id="g34"><g
               style="opacity:0.5"
               id="g32"
               clip-path="url(#clipPath26)"><g
                 id="g30"
                 transform="translate(244,229)"><path
                   id="path28"
                   style="fill:#ffffff;fill-opacity:1;fill-rule:nonzero;stroke:none"
                   d="m 0,0 h -26 -2 -40 -2 -162 -8 v -8 -184 -8 h 8 16 v -2 h 8 20 8 16 8 v 2 h 84 2 2 40 2 26 8 v 8 184 8 z" /></g></g></g></g></g></g><path
       id="path36"
       style="fill:#8c8c8c;fill-opacity:1;fill-rule:nonzero;stroke:none"
       d="M 56,34 H 36 v 4 h 20 z" /><path
       id="path38"
       style="fill:#8c8c8c;fill-opacity:1;fill-rule:nonzero;stroke:none"
       d="M 80,34 H 60 v 4 h 20 z" /><path
       id="path40"
       style="fill:#cccccc;fill-opacity:1;fill-rule:nonzero;stroke:none"
       d="M 244,36 H 12 v 184 h 232 z" /><path
       id="path42"
       style="fill:#333333;fill-opacity:1;fill-rule:nonzero;stroke:none"
       d="m 216,180 h -40 v 40 h 40 z" /><path
       id="path44"
       style="fill:#333333;fill-opacity:1;fill-rule:nonzero;stroke:none"
       d="m 216,36 h -40 v 36 h 40 z" /><path
       id="path46"
       style="fill:#999999;fill-opacity:1;fill-rule:nonzero;stroke:none"
       d="m 216,172 h -40 v 4 h 40 z" /><path
       id="path48"
       style="fill:#999999;fill-opacity:1;fill-rule:nonzero;stroke:none"
       d="m 216,164 h -40 v 4 h 40 z" /><path
       id="path50"
       style="fill:#999999;fill-opacity:1;fill-rule:nonzero;stroke:none"
       d="m 216,156 h -40 v 4 h 40 z" /><path
       id="path52"
       style="fill:#999999;fill-opacity:1;fill-rule:nonzero;stroke:none"
       d="m 216,148 h -40 v 4 h 40 z" /><path
       id="path54"
       style="fill:#999999;fill-opacity:1;fill-rule:nonzero;stroke:none"
       d="m 216,140 h -40 v 4 h 40 z" /><path
       id="path56"
       style="fill:#999999;fill-opacity:1;fill-rule:nonzero;stroke:none"
       d="m 216,132 h -40 v 4 h 40 z" /><path
       id="path58"
       style="fill:#999999;fill-opacity:1;fill-rule:nonzero;stroke:none"
       d="m 216,124 h -40 v 4 h 40 z" /><path
       id="path60"
       style="fill:#999999;fill-opacity:1;fill-rule:nonzero;stroke:none"
       d="m 216,116 h -40 v 4 h 40 z" /><path
       id="path62"
       style="fill:#999999;fill-opacity:1;fill-rule:nonzero;stroke:none"
       d="m 216,108 h -40 v 4 h 40 z" /><path
       id="path64"
       style="fill:#999999;fill-opacity:1;fill-rule:nonzero;stroke:none"
       d="m 216,100 h -40 v 4 h 40 z" /><path
       id="path66"
       style="fill:#999999;fill-opacity:1;fill-rule:nonzero;stroke:none"
       d="m 216,92 h -40 v 4 h 40 z" /><path
       id="path68"
       style="fill:#999999;fill-opacity:1;fill-rule:nonzero;stroke:none"
       d="m 216,84 h -40 v 4 h 40 z" /><path
       id="path70"
       style="fill:#999999;fill-opacity:1;fill-rule:nonzero;stroke:none"
       d="m 216,76 h -40 v 4 h 40 z" /><path
       id="path72"
       style="fill:#191919;fill-opacity:1;fill-rule:nonzero;stroke:none"
       d="m 216,200 h -40 v 2 h 40 z" /><path
       id="path74"
       style="fill:#191919;fill-opacity:1;fill-rule:nonzero;stroke:none"
       d="m 216,52 h -40 v 2 h 40 z" /><path
       id="path76"
       style="fill:#8c8c8c;fill-opacity:1;fill-rule:nonzero;stroke:none"
       d="m 216,172 h -2 v 4 h 2 z" /><path
       id="path78"
       style="fill:#8c8c8c;fill-opacity:1;fill-rule:nonzero;stroke:none"
       d="m 216,164 h -2 v 4 h 2 z" /><path
       id="path80"
       style="fill:#8c8c8c;fill-opacity:1;fill-rule:nonzero;stroke:none"
       d="m 216,156 h -2 v 4 h 2 z" /><path
       id="path82"
       style="fill:#8c8c8c;fill-opacity:1;fill-rule:nonzero;stroke:none"
       d="m 216,148 h -2 v 4 h 2 z" /><path
       id="path84"
       style="fill:#8c8c8c;fill-opacity:1;fill-rule:nonzero;stroke:none"
       d="m 216,140 h -2 v 4 h 2 z" /><path
       id="path86"
       style="fill:#8c8c8c;fill-opacity:1;fill-rule:nonzero;stroke:none"
       d="m 216,132 h -2 v 4 h 2 z" /><path
       id="path88"
       style="fill:#8c8c8c;fill-opacity:1;fill-rule:nonzero;stroke:none"
       d="m 216,124 h -2 v 4 h 2 z" /><path
       id="path90"
       style="fill:#8c8c8c;fill-opacity:1;fill-rule:nonzero;stroke:none"
       d="m 216,116 h -2 v 4 h 2 z" /><path
       id="path92"
       style="fill:#8c8c8c;fill-opacity:1;fill-rule:nonzero;stroke:none"
       d="m 216,108 h -2 v 4 h 2 z" /><path
       id="path94"
       style="fill:#8c8c8c;fill-opacity:1;fill-rule:nonzero;stroke:none"
       d="m 216,100 h -2 v 4 h 2 z" /><path
       id="path96"
       style="fill:#8c8c8c;fill-opacity:1;fill-rule:nonzero;stroke:none"
       d="m 216,92 h -2 v 4 h 2 z" /><path
       id="path98"
       style="fill:#8c8c8c;fill-opacity:1;fill-rule:nonzero;stroke:none"
       d="m 216,84 h -2 v 4 h 2 z" /><path
       id="path100"
       style="fill:#8c8c8c;fill-opacity:1;fill-rule:nonzero;stroke:none"
       d="m 216,76 h -2 v 4 h 2 z" /><path
       id="path102"
       style="fill:#808080;fill-opacity:1;fill-rule:nonzero;stroke:none"
       d="m 218,36 h -2 v 184 h 2 z" /><path
       id="path104"
       style="fill:#d9d9d9;fill-opacity:1;fill-rule:nonzero;stroke:none"
       d="m 176,36 h -2 v 184 h 2 z" /><g
       transform="translate(174,68)"
       id="g106"><path
         id="path108"
         style="fill:#999999;fill-opacity:1;fill-rule:nonzero;stroke:none"
         d="m 0,0 h -6 -4 -128 v -4 -28 h 4 v 24 h -2 v 4 h 126 4 6 v -4 h -2 v -24 h 4 v 24 4 4 z" /></g></g></svg>