<svg xmlns="http://www.w3.org/2000/svg" xml:space="preserve" width="309.333" height="330.667" viewBox="0 0 309.333 330.667"><defs><clipPath id="a" clipPathUnits="userSpaceOnUse"><path d="M0 256h256V0H0Z"/></clipPath><clipPath id="b" clipPathUnits="userSpaceOnUse"><path d="M12 252h232V4H12Z"/></clipPath></defs><g clip-path="url(#a)" transform="matrix(1.33333 0 0 -1.33333 -16 336)"><g clip-path="url(#b)" style="opacity:.5"><path d="M0 0h-176c-15.439 0-28-12.561-28-28v-86c0-1.573.365-3.063 1.016-4.389A15.9 15.9 0 0 1-204-124v-96c0-15.439 12.561-28 28-28H0c15.439 0 28 12.561 28 28v96c0 1.974-.359 3.864-1.016 5.611A9.9 9.9 0 0 1 28-114v86C28-12.561 15.439 0 0 0" style="fill:#fff;fill-opacity:1;fill-rule:nonzero;stroke:none" transform="translate(216 252)"/></g><path d="M0 0h-176c-11.046 0-20-8.954-20-20v-86a2 2 0 0 1 2-2h6v-8H12v8h6a2 2 0 0 1 2 2v86C20-8.954 11.046 0 0 0" style="fill:#666;fill-opacity:1;fill-rule:nonzero;stroke:none" transform="translate(216 244)"/><path d="M0 0h-176c-11.046 0-20 8.954-20 20v96H20V20C20 8.954 11.046 0 0 0" style="fill:#666;fill-opacity:1;fill-rule:nonzero;stroke:none" transform="translate(216 12)"/><path d="M0 0h-200a8 8 0 0 0 0 16H0A8 8 0 0 0 0 0" style="fill:#4c4c4c;fill-opacity:1;fill-rule:nonzero;stroke:none" transform="translate(228 120)"/><path d="M0 0h-2a1 1 0 0 0-1 1v2a1 1 0 0 0 1 1h2a1 1 0 0 0 1-1V1a1 1 0 0 0-1-1" style="fill:#595959;fill-opacity:1;fill-rule:nonzero;stroke:none" transform="translate(37 228)"/><path d="M0 0h-2a1 1 0 0 0-1 1v2a1 1 0 0 0 1 1h2a1 1 0 0 0 1-1V1a1 1 0 0 0-1-1" style="fill:#595959;fill-opacity:1;fill-rule:nonzero;stroke:none" transform="translate(221 228)"/><path d="M0 0h-2a1 1 0 0 0-1 1v2a1 1 0 0 0 1 1h2a1 1 0 0 0 1-1V1a1 1 0 0 0-1-1" style="fill:#595959;fill-opacity:1;fill-rule:nonzero;stroke:none" transform="translate(37 140)"/><path d="M0 0h-2a1 1 0 0 0-1 1v2a1 1 0 0 0 1 1h2a1 1 0 0 0 1-1V1a1 1 0 0 0-1-1" style="fill:#595959;fill-opacity:1;fill-rule:nonzero;stroke:none" transform="translate(221 140)"/><path d="M0 0a4 4 0 1 0-8 0 4 4 0 0 0 8 0" style="fill:#191919;fill-opacity:1;fill-rule:nonzero;stroke:none" transform="translate(132 238)"/><path d="M0 0a2 2 0 1 0 4.001-.001A2 2 0 0 0 0 0" style="fill:#4f4f4f;fill-opacity:1;fill-rule:nonzero;stroke:none" transform="translate(126 238)"/><path d="M0 0a1 1 0 1 0-2 0 1 1 0 0 0 2 0" style="fill:#191919;fill-opacity:1;fill-rule:nonzero;stroke:none" transform="translate(129 238)"/><path d="M0 0a2 2 0 1 1 4.001.001A2 2 0 0 1 0 0" style="fill:#191919;fill-opacity:1;fill-rule:nonzero;stroke:none" transform="translate(133 238)"/><path d="M0 0a3 3 0 1 0-6 0 3 3 0 0 0 6 0" style="fill:#595959;fill-opacity:1;fill-rule:nonzero;stroke:none" transform="translate(80 237)"/><path d="M0 0a3 3 0 1 0-6 0 3 3 0 0 0 6 0" style="fill:#595959;fill-opacity:1;fill-rule:nonzero;stroke:none" transform="translate(182 237)"/><path d="M0 0h-144a4 4 0 0 0-4 4v88a4 4 0 0 0 4 4H0a4 4 0 0 0 4-4V4a4 4 0 0 0-4-4" style="fill:#404040;fill-opacity:1;fill-rule:nonzero;stroke:none" transform="translate(200 136)"/><path d="M200 140H56v88h144z" style="fill:gray;fill-opacity:1;fill-rule:nonzero;stroke:none"/><path d="M0 0a1 1 0 1 1-2 0 1 1 0 0 1 2 0m0 10a1 1 0 1 1-2 0 1 1 0 0 1 2 0m4-4a1 1 0 1 1 0-2 1 1 0 0 1 0 2M-6 6a1 1 0 1 1 0-2 1 1 0 0 1 0 2m6-1a1 1 0 1 0-2 0 1 1 0 0 0 2 0" style="fill:#191919;fill-opacity:1;fill-rule:nonzero;stroke:none" transform="translate(37 187)"/><path d="M0 0a1 1 0 1 1-2 0 1 1 0 0 1 2 0m0 10a1 1 0 1 1-2 0 1 1 0 0 1 2 0m4-4a1 1 0 1 1 0-2 1 1 0 0 1 0 2M-6 6a1 1 0 1 1 0-2 1 1 0 0 1 0 2m6-1a1 1 0 1 0-2 0 1 1 0 0 0 2 0" style="fill:#191919;fill-opacity:1;fill-rule:nonzero;stroke:none" transform="translate(221 187)"/><path d="M24 152h-4v24h4z" style="fill:#404040;fill-opacity:1;fill-rule:nonzero;stroke:none"/><path d="M24 164h-4v8h4z" style="fill:gray;fill-opacity:1;fill-rule:nonzero;stroke:none"/><path d="M236 152h-4v24h4z" style="fill:#404040;fill-opacity:1;fill-rule:nonzero;stroke:none"/><path d="M236 168h-4v8h4z" style="fill:#999;fill-opacity:1;fill-rule:nonzero;stroke:none"/><path d="M42 120h-2v16h2zm174 0h-2v16h2z" style="fill:#404040;fill-opacity:1;fill-rule:nonzero;stroke:none"/><path d="M0 0c-3.313 0-6-1.791-6-4H6c0 2.209-2.687 4-6 4" style="fill:#404040;fill-opacity:1;fill-rule:nonzero;stroke:none" transform="translate(202 124)"/><path d="M0 0a1 1 0 1 1-2 0 1 1 0 0 1 2 0" style="fill:#595959;fill-opacity:1;fill-rule:nonzero;stroke:none" transform="translate(226 128)"/><path d="M0 0c0-8.284-6.716-15-15-15S-30-8.284-30 0s6.716 15 15 15S0 8.284 0 0" style="fill:#4c4c4c;fill-opacity:1;fill-rule:nonzero;stroke:none" transform="translate(58 97)"/><path d="M0 0c0-5.522-4.477-10-10-10S-20-5.522-20 0s4.477 10 10 10S0 5.522 0 0" style="fill:#b3b3b3;fill-opacity:1;fill-rule:nonzero;stroke:none" transform="translate(53 97)"/><path d="M0 0a7.5 7.5 0 0 0-7.5-7.5A7.5 7.5 0 0 0-15 0a7.5 7.5 0 0 0 7.5 7.5A7.5 7.5 0 0 0 0 0" style="fill:#999;fill-opacity:1;fill-rule:nonzero;stroke:none" transform="translate(50.5 97)"/><path d="M192 12h2v4h-2z" style="fill:#3096cf;fill-opacity:1;fill-rule:nonzero;stroke:none"/><path d="M0 0h-7.941v7.941a.88.88 0 0 1-.883.882h-5.294A.88.88 0 0 1-15 7.941V0h-7.941a.883.883 0 0 1-.883-.883v-5.294c0-.487.395-.882.883-.882H-15V-15c0-.487.395-.883.882-.883h5.294c.488 0 .883.396.883.883v7.941H0c.487 0 .882.395.882.882v5.294A.883.883 0 0 1 0 0" style="fill:#4c4c4c;fill-opacity:1;fill-rule:nonzero;stroke:none" transform="translate(54.47 67)"/><path d="M0 0h-112a8 8 0 0 0-8 8v100H8V8a8 8 0 0 0-8-8" style="fill:#595959;fill-opacity:1;fill-rule:nonzero;stroke:none" transform="translate(184 12)"/><path d="M42.118 74.059h1.765v-5.294h-1.765zm0-15.882h1.765v-5.294h-1.765zm11.47 4.411h-5.294v1.765h5.294zm-15.882 0h-5.294v1.765h5.294z" style="fill:#999;fill-opacity:1;fill-rule:nonzero;stroke:none"/><path d="M188 114H68V26h120z" style="fill:gray;fill-opacity:1;fill-rule:nonzero;stroke:none"/><path d="M0 0h-8a4 4 0 0 0 0 8h8a4 4 0 0 0 0-8" style="fill:#666;fill-opacity:1;fill-rule:nonzero;stroke:none" transform="translate(132 14)"/><path d="M178 12h2v4h-2zm23 0h2v4h-2z" style="fill:#4c4c4c;fill-opacity:1;fill-rule:nonzero;stroke:none"/><path d="M210 12h2v4h-2z" style="fill:#ff0;fill-opacity:1;fill-rule:nonzero;stroke:none"/><path d="M0 0a4 4 0 1 1 8 0 4 4 0 0 1-8 0" style="fill:#4c4c4c;fill-opacity:1;fill-rule:nonzero;stroke:none" transform="translate(196 36)"/><path d="M0 0a4 4 0 1 1 8 0 4 4 0 0 1-8 0" style="fill:#4c4c4c;fill-opacity:1;fill-rule:nonzero;stroke:none" transform="translate(196 52)"/><path d="M0 0a5 5 0 0 0-5-5 5 5 0 0 0-5 5 5 5 0 0 0 5 5 5 5 0 0 0 5-5" style="fill:#999;fill-opacity:1;fill-rule:nonzero;stroke:none" transform="translate(206 109)"/><path d="M0 0a6 6 0 0 0-12 0A6 6 0 0 0 0 0" style="fill:#4c4c4c;fill-opacity:1;fill-rule:nonzero;stroke:none" transform="translate(208 86)"/><path d="M0 0a6 6 0 0 0-12 0A6 6 0 0 0 0 0" style="fill:#4c4c4c;fill-opacity:1;fill-rule:nonzero;stroke:none" transform="translate(220 98)"/><path d="M0 0a6 6 0 0 0-12 0A6 6 0 0 0 0 0" style="fill:#4c4c4c;fill-opacity:1;fill-rule:nonzero;stroke:none" transform="translate(220 74)"/><path d="M0 0a6 6 0 0 0-12 0A6 6 0 0 0 0 0" style="fill:#4c4c4c;fill-opacity:1;fill-rule:nonzero;stroke:none" transform="translate(232 86)"/></g></svg>