<?xml version="1.0" encoding="UTF-8" standalone="no"?>
<svg
   xmlns:dc="http://purl.org/dc/elements/1.1/"
   xmlns:cc="http://creativecommons.org/ns#"
   xmlns:rdf="http://www.w3.org/1999/02/22-rdf-syntax-ns#"
   xmlns:svg="http://www.w3.org/2000/svg"
   xmlns="http://www.w3.org/2000/svg"
   viewBox="0 0 330.66665 202.66665"
   height="202.66666"
   width="330.66666"
   xml:space="preserve"
   id="svg2"
   version="1.1"><metadata
     id="metadata8"><rdf:RDF><cc:Work
         rdf:about=""><dc:format>image/svg+xml</dc:format><dc:type
           rdf:resource="http://purl.org/dc/dcmitype/StillImage" /></cc:Work></rdf:RDF></metadata><defs
     id="defs6"><clipPath
       id="clipPath18"
       clipPathUnits="userSpaceOnUse"><path
         id="path16"
         d="M 0,256 H 256 V 0 H 0 Z" /></clipPath><clipPath
       id="clipPath26"
       clipPathUnits="userSpaceOnUse"><path
         id="path24"
         d="M 4,204 H 252 V 52 H 4 Z" /></clipPath></defs><g
     transform="matrix(1.3333333,0,0,-1.3333333,-5.3333332,271.99999)"
     id="g10"><g
       id="g12"><g
         clip-path="url(#clipPath18)"
         id="g14"><g
           id="g20"><g
             id="g22" /><g
             id="g34"><g
               style="opacity:0.5"
               id="g32"
               clip-path="url(#clipPath26)"><g
                 id="g30"
                 transform="translate(124,204)"><path
                   id="path28"
                   style="fill:#ffffff;fill-opacity:1;fill-rule:nonzero;stroke:none"
                   d="m 0,0 c -20.529,0 -36.061,-0.934 -46.166,-2.776 -7.67,-1.398 -12.369,-3.302 -15.105,-6.2 l -32.388,-7.197 C -119.699,-21.467 -120,-58.427 -120,-60 c 0,-30.584 12.829,-55.198 37.1,-71.182 C -62.218,-144.801 -33.552,-152 0,-152 c 25.792,0 45.024,2.172 57.162,6.456 5.74,2.026 9.292,4.325 11.474,6.494 22.239,6.187 38.522,18.721 48.423,37.285 C 124.318,-88.152 128,-71.409 128,-52 c 0,18.074 -9.611,28.046 -17.674,33.229 -6.951,4.469 -13.789,6.071 -16.285,6.538 C 88.643,-10.349 56.421,0 0,0" /></g></g></g></g><g
           transform="translate(180,68)"
           id="g36"><path
             id="path38"
             style="fill:#404040;fill-opacity:1;fill-rule:nonzero;stroke:none"
             d="M 0,0 C -2.209,0 -4,1.791 -4,4 -4,6.209 -2.209,8 0,8 2.209,8 4,6.209 4,4 4,1.791 2.209,0 0,0 m -104,114 c -2.209,0 -4,1.791 -4,4 0,2.209 1.791,4 4,4 2.209,0 4,-1.791 4,-4 0,-2.209 -1.791,-4 -4,-4 m 140,2 c 0,0 -32,12 -92,12 -60,0 -56,-8 -56,-8 l -36,-8 c -20,-4 -20,-36 -20,-36 0,-60 52,-84 112,-84 60,0 64,12 64,12 48,12 56,52 56,80 0,28 -28,32 -28,32" /></g><g
           transform="translate(157.0801,190.2466)"
           id="g40"><path
             id="path42"
             style="fill:#595959;fill-opacity:1;fill-rule:nonzero;stroke:none"
             d="m 0,0 c -17.08,1.753 -38.844,2.336 -58.182,0.187 l -42.898,-6.434 c 0,0 -36,-4 -40,-28 v -24 c 0,0 8,-44 52,-60 0,0 32,-8 64,-8 28.85,0 57.699,6.502 83.617,25.37 5.68,4.133 10.372,9.477 13.758,15.632 4.647,8.451 10.625,21.219 10.625,30.998 v 16 c 0,0 0,24 -44,32 z" /></g><g
           transform="translate(152,184)"
           id="g44"><path
             id="path46"
             style="fill:#8c8c8c;fill-opacity:1;fill-rule:nonzero;stroke:none"
             d="m 0,0 h -48 c -55.229,0 -76,-24.177 -76,-54 0,-29.823 20.771,-54 76,-54 H 0 c 55.229,0 76,24.177 76,54 C 76,-24.177 55.229,0 0,0" /></g><g
           transform="translate(162,180)"
           id="g48"><path
             id="path50"
             style="fill:#333333;fill-opacity:1;fill-rule:nonzero;stroke:none"
             d="m 0,0 h -68 c -27.614,0 -50,-21.49 -50,-48 0,-26.51 22.386,-48 50,-48 H 0 c 27.614,0 50,21.49 50,48 0,20.418 -13.279,37.858 -32,44.795 C 12.415,-1.135 6.346,0 0,0" /></g><path
           id="path52"
           style="fill:#808080;fill-opacity:1;fill-rule:nonzero;stroke:none"
           d="m 92,92 h 68 v 80 H 92 Z" /><g
           transform="translate(76,146)"
           id="g54"><path
             id="path56"
             style="fill:#191919;fill-opacity:1;fill-rule:nonzero;stroke:none"
             d="m 0,0 c 0,-9.941 -8.059,-18 -18,-18 -9.941,0 -18,8.059 -18,18 0,9.941 8.059,18 18,18 C -8.059,18 0,9.941 0,0" /></g><g
           transform="translate(70,152)"
           id="g58"><path
             id="path60"
             style="fill:#d9d9d9;fill-opacity:1;fill-rule:nonzero;stroke:none"
             d="m 0,0 h -6 v 6 c 0,3.313 -2.687,6 -6,6 -3.313,0 -6,-2.687 -6,-6 V 0 h -6 c -3.313,0 -6,-2.687 -6,-6 0,-3.313 2.687,-6 6,-6 h 6 v -6 c 0,-3.313 2.687,-6 6,-6 3.313,0 6,2.687 6,6 v 6 h 6 c 3.313,0 6,2.687 6,6 0,3.313 -2.687,6 -6,6" /></g><g
           transform="translate(60,158)"
           id="g62"><path
             id="path64"
             style="fill:#d9252f;fill-opacity:1;fill-rule:nonzero;stroke:none"
             d="m 0,0 c 0,-1.104 -0.896,-2 -2,-2 -1.104,0 -2,0.896 -2,2 0,1.104 0.896,2 2,2 1.104,0 2,-0.896 2,-2" /></g><g
           transform="translate(60,134)"
           id="g66"><path
             id="path68"
             style="fill:#d9252f;fill-opacity:1;fill-rule:nonzero;stroke:none"
             d="m 0,0 c 0,-1.104 -0.896,-2 -2,-2 -1.104,0 -2,0.896 -2,2 0,1.104 0.896,2 2,2 1.104,0 2,-0.896 2,-2" /></g><g
           transform="translate(48,146)"
           id="g70"><path
             id="path72"
             style="fill:#d9252f;fill-opacity:1;fill-rule:nonzero;stroke:none"
             d="m 0,0 c 0,-1.104 -0.896,-2 -2,-2 -1.104,0 -2,0.896 -2,2 0,1.104 0.896,2 2,2 1.104,0 2,-0.896 2,-2" /></g><g
           transform="translate(72,146)"
           id="g74"><path
             id="path76"
             style="fill:#d9252f;fill-opacity:1;fill-rule:nonzero;stroke:none"
             d="m 0,0 c 0,-1.104 -0.896,-2 -2,-2 -1.104,0 -2,0.896 -2,2 0,1.104 0.896,2 2,2 1.104,0 2,-0.896 2,-2" /></g><g
           transform="translate(80,122)"
           id="g78"><path
             id="path80"
             style="fill:#191919;fill-opacity:1;fill-rule:nonzero;stroke:none"
             d="m 0,0 c 0,-3.313 -2.687,-6 -6,-6 -3.313,0 -6,2.687 -6,6 0,3.313 2.687,6 6,6 3.313,0 6,-2.687 6,-6" /></g><g
           transform="translate(58.1338,98.4375)"
           id="g82"><path
             id="path84"
             style="fill:#191919;fill-opacity:1;fill-rule:nonzero;stroke:none"
             d="M 0,0 11.585,4.338 C 7.328,11.101 5.708,17.562 5.708,17.562 L -10.134,14.394 C -7.685,9.004 -4.225,4.141 0,0" /></g><g
           transform="translate(70.8491,101.0625)"
           id="g86"><path
             id="path88"
             style="fill:#191919;fill-opacity:1;fill-rule:nonzero;stroke:none"
             d="m 0,0 -11.087,-4.151 c 4.483,-4.013 9.726,-7.254 15.513,-9.478 l 4.567,4.566 C 5.262,-6.574 2.305,-3.313 0,0" /></g><g
           transform="translate(59.8027,96.999)"
           id="g90"><path
             id="path92"
             style="fill:#808080;fill-opacity:1;fill-rule:nonzero;stroke:none"
             d="m 0,0 -14.27,-5.343 c 1.984,-1.584 4.141,-3.073 6.499,-4.449 1.548,-0.852 3.256,-1.751 5.073,-2.646 3.423,-1.597 7.168,-3.002 11.275,-4.182 l 7.053,7.055 C 9.796,-7.323 4.507,-4.061 0,0" /></g><g
           transform="translate(176,131)"
           id="g94"><path
             id="path96"
             style="fill:#191919;fill-opacity:1;fill-rule:nonzero;stroke:none"
             d="m 0,0 v -14.283 l 15.893,-1.135 c 1.878,4.817 2.962,10.005 3.082,15.418 z" /></g><g
           transform="translate(212.9805,133)"
           id="g98"><path
             id="path100"
             style="fill:#808080;fill-opacity:1;fill-rule:nonzero;stroke:none"
             d="M 0,0 H 14.934 C 14.637,6.142 13.413,12.01 11.141,17.436 L -2.984,15.418 C -1.156,10.53 -0.116,5.333 0,0" /></g><g
           transform="translate(196.9697,133)"
           id="g102"><path
             id="path104"
             style="fill:#191919;fill-opacity:1;fill-rule:nonzero;stroke:none"
             d="M 0,0 H 14.01 C 13.892,5.239 12.844,10.342 11.002,15.129 L -2.227,13.239 C -0.87,8.996 -0.099,4.547 0,0" /></g><g
           transform="translate(176,133)"
           id="g106"><path
             id="path108"
             style="fill:#191919;fill-opacity:1;fill-rule:nonzero;stroke:none"
             d="m 0,0 h 18.976 c -0.102,4.454 -0.88,8.806 -2.241,12.952 L 0,10.562 Z" /></g><g
           transform="translate(210.9795,131)"
           id="g110"><path
             id="path112"
             style="fill:#191919;fill-opacity:1;fill-rule:nonzero;stroke:none"
             d="m 0,0 h -14.01 c -0.115,-5.454 -1.175,-10.687 -3.005,-15.566 l 13.482,-0.963 C -1.376,-11.402 -0.128,-5.832 0,0" /></g><g
           transform="translate(227.9824,130.7847)"
           id="g114"><path
             id="path116"
             style="fill:#808080;fill-opacity:1;fill-rule:nonzero;stroke:none"
             d="m 0,0 c -0.001,0.072 -0.005,0.143 -0.006,0.215 h -14.996 c -0.124,-5.87 -1.334,-11.486 -3.433,-16.679 l 15.583,-1.113 C -1.168,-12.495 -0.113,-6.676 0,0" /></g><g
           transform="translate(184.8857,163.5967)"
           id="g118"><path
             id="path120"
             style="fill:#191919;fill-opacity:1;fill-rule:nonzero;stroke:none"
             d="M 0,0 11.07,2.214 C 6.495,6.472 1.039,9.911 -5.086,12.203 l -3.8,-3.8 1.49,-1.489 C -4.684,4.851 -2.211,2.528 0,0" /></g><g
           transform="translate(198.3477,166.2896)"
           id="g122"><path
             id="path124"
             style="fill:#808080;fill-opacity:1;fill-rule:nonzero;stroke:none"
             d="M 0,0 11.73,2.346 C 5.21,7.453 -3.231,11.515 -13.889,14.17 l -3.116,-3.117 C -10.512,8.492 -4.761,4.686 0,0" /></g><g
           transform="translate(197.6875,164.1177)"
           id="g126"><path
             id="path128"
             style="fill:#191919;fill-opacity:1;fill-rule:nonzero;stroke:none"
             d="m 0,0 -11.335,-2.267 c 3.294,-4.13 5.907,-8.754 7.719,-13.688 l 13.117,1.874 C 7.23,-8.885 4,-4.113 0,0" /></g><g
           transform="translate(176,159.7803)"
           id="g130"><path
             id="path132"
             style="fill:#191919;fill-opacity:1;fill-rule:nonzero;stroke:none"
             d="m 0,0 v -14.199 l 16.058,2.294 C 14.204,-7.001 11.52,-2.426 8.136,1.627 Z" /></g><g
           transform="translate(212.0723,166.9946)"
           id="g134"><path
             id="path136"
             style="fill:#808080;fill-opacity:1;fill-rule:nonzero;stroke:none"
             d="m 0,0 -12.066,-2.413 c 3.886,-4.205 7.019,-9.03 9.232,-14.252 l 14.033,2.005 C 8.625,-9.229 4.926,-4.289 0,0" /></g><g
           transform="translate(194.8623,97.2031)"
           id="g138"><path
             id="path140"
             style="fill:#191919;fill-opacity:1;fill-rule:nonzero;stroke:none"
             d="M 0,0 C 4.911,4.271 8.926,9.473 11.716,15.325 L -1.683,16.282 C -3.962,10.937 -7.208,6.075 -11.19,1.865 Z" /></g><g
           transform="translate(197.3955,96.7813)"
           id="g142"><path
             id="path144"
             style="fill:#808080;fill-opacity:1;fill-rule:nonzero;stroke:none"
             d="m 0,0 15.935,-2.656 c 0.117,0.109 0.239,0.217 0.354,0.326 4.25,4.297 8.121,9.8 10.763,16.801 L 11.315,15.595 C 8.623,9.7 4.753,4.413 0,0" /></g><g
           transform="translate(181.9561,97.3271)"
           id="g146"><path
             id="path148"
             style="fill:#191919;fill-opacity:1;fill-rule:nonzero;stroke:none"
             d="m 0,0 c -1.401,-1.343 -2.872,-2.619 -4.428,-3.799 l -1.528,-1.528 3.782,-3.782 c 4.752,1.781 9.135,4.264 13.032,7.299 z" /></g><g
           transform="translate(178.082,100)"
           id="g150"><path
             id="path152"
             style="fill:#191919;fill-opacity:1;fill-rule:nonzero;stroke:none"
             d="m 0,0 h 3.762 c 3.852,3.968 6.99,8.577 9.237,13.635 L -2.082,14.712 V 0.347 Z" /></g><g
           transform="translate(195.459,95.0762)"
           id="g154"><path
             id="path156"
             style="fill:#808080;fill-opacity:1;fill-rule:nonzero;stroke:none"
             d="m 0,0 c -4.17,-3.494 -8.931,-6.355 -14.126,-8.409 l 6.288,-6.288 c 9.887,2.839 17.733,6.958 23.785,12.04 z" /></g><g
           transform="translate(223.707,164.8789)"
           id="g158"><path
             id="path160"
             style="fill:#262626;fill-opacity:1;fill-rule:nonzero;stroke:none"
             d="m 0,0 v 0 c -0.391,-0.391 -1.023,-0.391 -1.414,0 l -1.414,1.414 c -0.391,0.391 -0.391,1.024 0,1.414 0.39,0.391 1.023,0.391 1.414,0 L 0,1.414 C 0.391,1.023 0.391,0.39 0,0" /></g><g
           transform="translate(232.0586,148.228)"
           id="g162"><path
             id="path164"
             style="fill:#262626;fill-opacity:1;fill-rule:nonzero;stroke:none"
             d="m 0,0 v 0 c -0.511,-0.211 -1.096,0.031 -1.307,0.542 l -0.765,1.847 c -0.211,0.51 0.031,1.095 0.541,1.307 0.51,0.211 1.095,-0.031 1.306,-0.542 L 0.541,1.307 C 0.752,0.796 0.51,0.211 0,0" /></g><g
           transform="translate(228,159)"
           id="g166"><path
             id="path168"
             style="fill:#262626;fill-opacity:1;fill-rule:nonzero;stroke:none"
             d="m 0,0 c 0,-0.552 -0.447,-1 -1,-1 -0.553,0 -1,0.448 -1,1 0,0.552 0.447,1 1,1 0.553,0 1,-0.448 1,-1" /></g></g></g></g></svg>