<svg xmlns="http://www.w3.org/2000/svg" xml:space="preserve" width="330.667" height="202.667" viewBox="0 0 330.667 202.667"><defs><clipPath id="a" clipPathUnits="userSpaceOnUse"><path d="M0 256h256V0H0Z"/></clipPath><clipPath id="b" clipPathUnits="userSpaceOnUse"><path d="M4 204h248V52H4Z"/></clipPath></defs><g clip-path="url(#a)" transform="matrix(1.33333 0 0 -1.33333 -5.333 272)"><g clip-path="url(#b)" style="opacity:.5"><path d="M0 0c-20.529 0-36.061-.934-46.166-2.776-7.67-1.398-12.369-3.302-15.105-6.2l-32.388-7.197C-119.699-21.467-120-58.427-120-60c0-30.584 12.829-55.198 37.1-71.182C-62.218-144.801-33.552-152 0-152c25.792 0 45.024 2.172 57.162 6.456 5.74 2.026 9.292 4.325 11.474 6.494 22.239 6.187 38.522 18.721 48.423 37.285C124.318-88.152 128-71.409 128-52c0 18.074-9.611 28.046-17.674 33.229-6.951 4.469-13.789 6.071-16.285 6.538C88.643-10.349 56.421 0 0 0" style="fill:#fff;fill-opacity:1;fill-rule:nonzero;stroke:none" transform="translate(124 204)"/></g><path d="M0 0a4 4 0 1 0 0 8 4 4 0 0 0 0-8m-104 114a4 4 0 1 0 0 8 4 4 0 0 0 0-8m140 2s-32 12-92 12-56-8-56-8l-36-8c-20-4-20-36-20-36 0-60 52-84 112-84S8 4 8 4c48 12 56 52 56 80s-28 32-28 32" style="fill:#404040;fill-opacity:1;fill-rule:nonzero;stroke:none" transform="translate(180 68)"/><path d="M0 0c-17.08 1.753-38.844 2.336-58.182.187l-42.898-6.434s-36-4-40-28v-24s8-44 52-60c0 0 32-8 64-8 28.85 0 57.699 6.502 83.617 25.37a47.8 47.8 0 0 1 13.758 15.632c4.647 8.451 10.625 21.219 10.625 30.998v16s0 24-44 32z" style="fill:#595959;fill-opacity:1;fill-rule:nonzero;stroke:none" transform="translate(157.08 190.247)"/><path d="M0 0h-48c-55.229 0-76-24.177-76-54s20.771-54 76-54H0c55.229 0 76 24.177 76 54S55.229 0 0 0" style="fill:#8c8c8c;fill-opacity:1;fill-rule:nonzero;stroke:none" transform="translate(152 184)"/><path d="M0 0h-68c-27.614 0-50-21.49-50-48s22.386-48 50-48H0c27.614 0 50 21.49 50 48 0 20.418-13.279 37.858-32 44.795A51.7 51.7 0 0 1 0 0" style="fill:#333;fill-opacity:1;fill-rule:nonzero;stroke:none" transform="translate(162 180)"/><path d="M92 92h68v80H92Z" style="fill:gray;fill-opacity:1;fill-rule:nonzero;stroke:none"/><path d="M0 0c0-9.941-8.059-18-18-18S-36-9.941-36 0s8.059 18 18 18S0 9.941 0 0" style="fill:#191919;fill-opacity:1;fill-rule:nonzero;stroke:none" transform="translate(76 146)"/><path d="M0 0h-6v6a6 6 0 0 1-12 0V0h-6a6 6 0 0 1 0-12h6v-6a6 6 0 0 1 12 0v6h6A6 6 0 0 1 0 0" style="fill:#d9d9d9;fill-opacity:1;fill-rule:nonzero;stroke:none" transform="translate(70 152)"/><path d="M0 0a2 2 0 1 0-4.001.001A2 2 0 0 0 0 0" style="fill:#d9252f;fill-opacity:1;fill-rule:nonzero;stroke:none" transform="translate(60 158)"/><path d="M0 0a2 2 0 1 0-4.001.001A2 2 0 0 0 0 0" style="fill:#d9252f;fill-opacity:1;fill-rule:nonzero;stroke:none" transform="translate(60 134)"/><path d="M0 0a2 2 0 1 0-4.001.001A2 2 0 0 0 0 0" style="fill:#d9252f;fill-opacity:1;fill-rule:nonzero;stroke:none" transform="translate(48 146)"/><path d="M0 0a2 2 0 1 0-4.001.001A2 2 0 0 0 0 0" style="fill:#d9252f;fill-opacity:1;fill-rule:nonzero;stroke:none" transform="translate(72 146)"/><path d="M0 0a6 6 0 0 0-12 0A6 6 0 0 0 0 0" style="fill:#191919;fill-opacity:1;fill-rule:nonzero;stroke:none" transform="translate(80 122)"/><path d="m0 0 11.585 4.338c-4.257 6.763-5.877 13.224-5.877 13.224l-15.842-3.168C-7.685 9.004-4.225 4.141 0 0" style="fill:#191919;fill-opacity:1;fill-rule:nonzero;stroke:none" transform="translate(58.134 98.438)"/><path d="m0 0-11.087-4.151a50.3 50.3 0 0 1 15.513-9.478l4.567 4.566C5.262-6.574 2.305-3.313 0 0" style="fill:#191919;fill-opacity:1;fill-rule:nonzero;stroke:none" transform="translate(70.85 101.063)"/><path d="m0 0-14.27-5.343a54 54 0 0 1 6.499-4.449 126 126 0 0 1 5.073-2.646C.725-14.035 4.47-15.44 8.577-16.62l7.053 7.055A50.3 50.3 0 0 0 0 0" style="fill:gray;fill-opacity:1;fill-rule:nonzero;stroke:none" transform="translate(59.803 96.999)"/><path d="M0 0v-14.283l15.893-1.135A45.1 45.1 0 0 1 18.975 0z" style="fill:#191919;fill-opacity:1;fill-rule:nonzero;stroke:none" transform="translate(176 131)"/><path d="M0 0h14.934c-.297 6.142-1.521 12.01-3.793 17.436l-14.125-2.018A46.9 46.9 0 0 0 0 0" style="fill:gray;fill-opacity:1;fill-rule:nonzero;stroke:none" transform="translate(212.98 133)"/><path d="M0 0h14.01a44.9 44.9 0 0 1-3.008 15.129l-13.229-1.89A46.8 46.8 0 0 0 0 0" style="fill:#191919;fill-opacity:1;fill-rule:nonzero;stroke:none" transform="translate(196.97 133)"/><path d="M0 0h18.976a44.8 44.8 0 0 1-2.241 12.952L0 10.562Z" style="fill:#191919;fill-opacity:1;fill-rule:nonzero;stroke:none" transform="translate(176 133)"/><path d="M0 0h-14.01a47 47 0 0 0-3.005-15.566l13.482-.963A45.1 45.1 0 0 1 0 0" style="fill:#191919;fill-opacity:1;fill-rule:nonzero;stroke:none" transform="translate(210.98 131)"/><path d="m0 0-.006.215h-14.996a47 47 0 0 0-3.433-16.679l15.583-1.113C-1.168-12.495-.113-6.676 0 0" style="fill:gray;fill-opacity:1;fill-rule:nonzero;stroke:none" transform="translate(227.982 130.785)"/><path d="m0 0 11.07 2.214a48.8 48.8 0 0 1-16.156 9.989l-3.8-3.8 1.49-1.489A50.2 50.2 0 0 0 0 0" style="fill:#191919;fill-opacity:1;fill-rule:nonzero;stroke:none" transform="translate(184.886 163.597)"/><path d="m0 0 11.73 2.346C5.21 7.453-3.231 11.515-13.889 14.17l-3.116-3.117A50.8 50.8 0 0 0 0 0" style="fill:gray;fill-opacity:1;fill-rule:nonzero;stroke:none" transform="translate(198.348 166.29)"/><path d="m0 0-11.335-2.267a49.1 49.1 0 0 0 7.719-13.688l13.117 1.874C7.23-8.885 4-4.113 0 0" style="fill:#191919;fill-opacity:1;fill-rule:nonzero;stroke:none" transform="translate(197.688 164.118)"/><path d="M0 0v-14.199l16.058 2.294A47.2 47.2 0 0 1 8.136 1.627Z" style="fill:#191919;fill-opacity:1;fill-rule:nonzero;stroke:none" transform="translate(176 159.78)"/><path d="m0 0-12.066-2.413a49.5 49.5 0 0 0 9.232-14.252l14.033 2.005C8.625-9.229 4.926-4.289 0 0" style="fill:gray;fill-opacity:1;fill-rule:nonzero;stroke:none" transform="translate(212.072 166.995)"/><path d="M0 0c4.911 4.271 8.926 9.473 11.716 15.325l-13.399.957C-3.962 10.937-7.208 6.075-11.19 1.865Z" style="fill:#191919;fill-opacity:1;fill-rule:nonzero;stroke:none" transform="translate(194.862 97.203)"/><path d="m0 0 15.935-2.656c.117.109.239.217.354.326 4.25 4.297 8.121 9.8 10.763 16.801l-15.737 1.124C8.623 9.7 4.753 4.413 0 0" style="fill:gray;fill-opacity:1;fill-rule:nonzero;stroke:none" transform="translate(197.395 96.781)"/><path d="M0 0a51 51 0 0 0-4.428-3.799l-1.528-1.528 3.782-3.782A49.5 49.5 0 0 1 10.858-1.81z" style="fill:#191919;fill-opacity:1;fill-rule:nonzero;stroke:none" transform="translate(181.956 97.327)"/><path d="M0 0h3.762a47 47 0 0 1 9.237 13.635l-15.081 1.077V.347Z" style="fill:#191919;fill-opacity:1;fill-rule:nonzero;stroke:none" transform="translate(178.082 100)"/><path d="M0 0a51.5 51.5 0 0 0-14.126-8.409l6.288-6.288c9.887 2.839 17.733 6.958 23.785 12.04z" style="fill:gray;fill-opacity:1;fill-rule:nonzero;stroke:none" transform="translate(195.459 95.076)"/><path d="M0 0a1 1 0 0 0-1.414 0l-1.414 1.414a.999.999 0 1 0 1.414 1.414L0 1.414A1 1 0 0 0 0 0" style="fill:#262626;fill-opacity:1;fill-rule:nonzero;stroke:none" transform="translate(223.707 164.879)"/><path d="M0 0a1 1 0 0 0-1.307.542l-.765 1.847a1 1 0 1 0 1.847.765l.766-1.847A1 1 0 0 0 0 0" style="fill:#262626;fill-opacity:1;fill-rule:nonzero;stroke:none" transform="translate(232.059 148.228)"/><path d="M0 0a1 1 0 1 0-2 0 1 1 0 0 0 2 0" style="fill:#262626;fill-opacity:1;fill-rule:nonzero;stroke:none" transform="translate(228 159)"/></g></svg>