<svg xmlns="http://www.w3.org/2000/svg" xml:space="preserve" width="330.987" height="181.583" viewBox="0 0 330.987 181.583"><defs><clipPath id="a" clipPathUnits="userSpaceOnUse"><path d="M0 256h256V0H0Z"/></clipPath><clipPath id="b" clipPathUnits="userSpaceOnUse"><path d="M3.755 196.187h248.24V60H3.755Z"/></clipPath></defs><g clip-path="url(#a)" transform="matrix(1.33333 0 0 -1.33333 -5.007 261.583)"><g clip-path="url(#b)" style="opacity:.5"><path d="M0 0c-10.504 0-18.113-.151-19.576-.182-1.462.031-9.07.182-19.576.182-23.854 0-56.551-.737-77.264-4.236-2.173-.207-6.623-1.225-11.192-5.794-5.896-5.896-9.854-15.662-11.763-29.026l-3.981-27.867c-.261-1.529-1.054-7.615 1.254-15.117 2.285-7.422 8.141-17.838 23.069-25.302 3.634-1.818 7.144-3.713 10.861-5.72 18.826-10.167 40.016-21.609 80.467-22.985v-.138l8-.002.126.001.124-.001h8v.14c40.45 1.376 61.64 12.818 80.467 22.985 3.716 2.007 7.227 3.902 10.861 5.72 14.928 7.464 20.784 17.88 23.068 25.302 2.308 7.502 1.516 13.588 1.254 15.117l-3.98 27.867c-1.909 13.364-5.867 23.13-11.763 29.026-4.569 4.569-9.019 5.587-11.192 5.794C56.551-.737 23.854 0 0 0" style="fill:#fff;fill-opacity:1;fill-rule:nonzero;stroke:none" transform="translate(147.451 196.187)"/></g><path d="m0 0-4 28c-4 28-16 28-16 28-31.216 5.365-92.871 4.069-95.875 4.003-3.004.066-64.659 1.362-95.875-4.003 0 0-12 0-16-28l-4-28s-4-20 20-32c23.961-11.98 43.939-27.945 95.75-27.998V-60l.125.001.125-.001v.002C-63.939-59.945-43.961-43.98-20-32 4-20 0 0 0 0" style="fill:#404040;fill-opacity:1;fill-rule:nonzero;stroke:none" transform="translate(243.75 128)"/><path d="M0 0a4 4 0 0 1-3.454 1.983h-107.529a3.99 3.99 0 0 1-3.443-1.964 93 93 0 0 1-3.235-6.036c-4.735-9.618-11.558-27.103-11.558-48 0-32 12-48 12-48s20-12 60-12 60 12 60 12 12 16 12 48C14.781-27.43 3.736-6.365 0 0" style="fill:#595959;fill-opacity:1;fill-rule:nonzero;stroke:none" transform="translate(185.219 186.017)"/><path d="m0 0 7.935 36.021a3.996 3.996 0 0 0 4.426 3.255c11.873-1.466 46.913-7.929 43.574-27.969-3.298-19.786-39.912-17.3-52.425-16C1.196-4.453-.416-2.289 0 0" style="fill:#4c4c4c;fill-opacity:1;fill-rule:nonzero;stroke:none" transform="translate(20.065 136.693)"/><path d="M0 0c0-8.836-7.164-16-16-16S-32-8.836-32 0s7.164 16 16 16S0 8.836 0 0" style="fill:#d9d9d9;fill-opacity:1;fill-rule:nonzero;stroke:none" transform="translate(68 152)"/><path d="m0 0-32 .003L-64 0s-16-28-16-56c0 0 0-20 4-32s32-20 44-20 40 8 44 20 4 32 4 32C16-28 0 0 0 0" style="fill:#4c4c4c;fill-opacity:1;fill-rule:nonzero;stroke:none" transform="translate(160 188)"/><path d="m0 0-31.875.003h-.25L-64 0s-12-28-12-48 8-36 8-36 4-12 36-12S4-84 4-84s8 16 8 36S0 0 0 0" style="fill:#262626;fill-opacity:1;fill-rule:nonzero;stroke:none" transform="translate(160 188)"/><path d="M158 104H98v72h60z" style="fill:gray;fill-opacity:1;fill-rule:nonzero;stroke:none"/><path d="m0 0-22.789 6.511a2.606 2.606 0 0 0 .084 5.033l3.727.932A24 24 0 0 0 .156 9.162l2.006-1.338a2.6 2.6 0 0 0 1.16-2.168V2.505A2.606 2.606 0 0 0 0 0" style="fill:#d9d9d9;fill-opacity:1;fill-rule:nonzero;stroke:none" transform="translate(76.678 168.95)"/><path d="m0 0 22.789 6.511a2.607 2.607 0 0 1-.084 5.033l-3.726.932A24 24 0 0 1-.155 9.162l-2.006-1.338a2.6 2.6 0 0 1-1.16-2.168V2.505A2.605 2.605 0 0 1 0 0" style="fill:#d9d9d9;fill-opacity:1;fill-rule:nonzero;stroke:none" transform="translate(179.321 168.95)"/><path d="m0 0 6.395 4.263a2 2 0 0 1 0 3.328L0 11.854a1.96 1.96 0 0 1-1.905.156 15.9 15.9 0 0 1-1.204-6.083c0-2.154.432-4.206 1.204-6.082A1.96 1.96 0 0 1 0 0" style="fill:#ccc;fill-opacity:1;fill-rule:nonzero;stroke:none" transform="translate(39.11 146.073)"/><path d="m0 0 4.263-6.395a2 2 0 0 1 3.328 0L11.854 0c.41.614.414 1.319.156 1.905a15.9 15.9 0 0 1-6.083 1.204c-2.154 0-4.206-.432-6.082-1.204A1.96 1.96 0 0 1 0 0" style="fill:#ccc;fill-opacity:1;fill-rule:nonzero;stroke:none" transform="translate(46.073 164.89)"/><path d="m0 0-6.395-4.263a2 2 0 0 1 0-3.328L0-11.854a1.96 1.96 0 0 1 1.905-.156 15.9 15.9 0 0 1 1.204 6.083c0 2.154-.432 4.206-1.204 6.082A1.96 1.96 0 0 1 0 0" style="fill:#ccc;fill-opacity:1;fill-rule:nonzero;stroke:none" transform="translate(64.89 157.927)"/><path d="m0 0-4.263 6.395a2 2 0 0 1-3.328 0L-11.854 0a1.96 1.96 0 0 1-.156-1.905 15.9 15.9 0 0 1 6.083-1.204c2.154 0 4.206.432 6.082 1.204A1.96 1.96 0 0 1 0 0" style="fill:#ccc;fill-opacity:1;fill-rule:nonzero;stroke:none" transform="translate(57.927 139.11)"/><path d="M0 0c4.075-2.925 10.546-4.697 17.66-5.74a108 108 0 0 1 .759 15.255C7.354 9.271 1.228 6.52-.583 4.312-1.672 2.985-1.395 1.001 0 0" style="fill:#d9d9d9;fill-opacity:1;fill-rule:nonzero;stroke:none" transform="translate(180 126.46)"/><path d="M0 0c4.842-1.546 11.129-2.326 17.641-2.667a105 105 0 0 1-1.474 12.869l-.823-.092C7.342 8.51 2.541 6.91-.338 5.565-2.797 4.418-2.584.825 0 0" style="fill:#d9d9d9;fill-opacity:1;fill-rule:nonzero;stroke:none" transform="translate(180.656 141.89)"/><path d="M0 0a114 114 0 0 1 2.472 12.014c-14.745.902-17.238-1.577-17.238-1.577C-16.644 6.682-8.824 2.928 0 0" style="fill:#d9d9d9;fill-opacity:1;fill-rule:nonzero;stroke:none" transform="translate(194.766 105.564)"/><path d="M0 0c-4.979.711-9.187 1.166-12.76 1.438a116 116 0 0 0-2.567-12.49c6.45-2.027 13.097-3.593 16.668-4.382A116 116 0 0 1 4.827-.966z" style="fill:#d9d9d9;fill-opacity:1;fill-rule:nonzero;stroke:none" transform="translate(212 116)"/><path d="m0 0-10.037-1.115a106 106 0 0 0 1.888-15.152c6.005.29 10.486.662 11.706.662 2.826 0 2.1 7.986 0 12.674C2.667-.944 2.164.24 0 0" style="fill:#d9d9d9;fill-opacity:1;fill-rule:nonzero;stroke:none" transform="translate(228.443 155.605)"/><path d="M0 0c5.951-.752 12.228-1.034 17.853-1.082a108 108 0 0 1 .921 16.631H.776A110 110 0 0 0 0 0" style="fill:#d9d9d9;fill-opacity:1;fill-rule:nonzero;stroke:none" transform="translate(199.644 120.451)"/><path d="M0 0c.71-4.012 1.247-8.422 1.488-13.181 6.261-.242 12.612-.112 17.991.116a104 104 0 0 1-1.884 15.02z" style="fill:#d9d9d9;fill-opacity:1;fill-rule:nonzero;stroke:none" transform="translate(198.816 152.313)"/><path d="M0 0a127 127 0 0 1 5.763 14.612c-5.468.541-10.664.782-13.746.885-2.207.074-3.762-2.201-2.84-4.208 2.094-4.562 6.852-8.981 9.356-10.9C-.791-.128.023-.378.854-.398z" style="fill:#d9d9d9;fill-opacity:1;fill-rule:nonzero;stroke:none" transform="translate(187.094 84.423)"/><path d="m0 0-8.822 1.765c-.8-4.607-1.92-9.388-3.43-14.323a4 4 0 0 1 2.089.769L.809-3.561C2.191-2.523 1.695-.339 0 0" style="fill:#d9d9d9;fill-opacity:1;fill-rule:nonzero;stroke:none" transform="translate(227.613 112.877)"/><path d="m0 0-16.478-3.662a106 106 0 0 0 2.901-9.835c.218-.895.428-1.824.631-2.773 5.983.679 12.19 1.565 17.416 2.336A102 102 0 0 1 0 0" style="fill:#d9d9d9;fill-opacity:1;fill-rule:nonzero;stroke:none" transform="translate(211.049 172.233)"/><path d="M0 0c-3.389.889-7.504 1.524-11.594 1.984a129 129 0 0 0-5.718-14.664l.005.001c9.273 2.618 16.002 6.888 18.309 9.403C2.021-2.166 1.457-.383 0 0" style="fill:#d9d9d9;fill-opacity:1;fill-rule:nonzero;stroke:none" transform="translate(206.48 96.836)"/><path d="M0 0h-11.58c.112-5.187-.14-10.753-.908-16.639 5.863.005 10.837.246 13.69.431A2.993 2.993 0 0 1 4-13.215V-4a4 4 0 0 1-4 4" style="fill:#d9d9d9;fill-opacity:1;fill-rule:nonzero;stroke:none" transform="translate(232 136)"/><path d="M0 0c3.93-.153 9.309.224 15.029.83-.179.829-.363 1.643-.553 2.43a103 103 0 0 1-2.955 9.958l-.595-.132C4.474 10.935.334 7.628-2.114 5.03-3.876 3.16-2.567.1 0 0" style="fill:#d9d9d9;fill-opacity:1;fill-rule:nonzero;stroke:none" transform="translate(181.074 154.914)"/><path d="m0 0 .033-.144c5.368.798 9.392 1.408 10.495 1.408 2.308 0 1.84 3.493 0 8-1.469 3.599-2.554 7.432-6.349 6.589l-8.607-1.913A105 105 0 0 0 0 0" style="fill:#d9d9d9;fill-opacity:1;fill-rule:nonzero;stroke:none" transform="translate(217.472 158.736)"/><path d="M0 0a112 112 0 0 0-2.074 15.99c-6.068-.28-12.48-.923-17.892-1.579A112 112 0 0 1-16.708-5.36C-11.984-3.999-5.855-2.12 0 0" style="fill:#d9d9d9;fill-opacity:1;fill-rule:nonzero;stroke:none" transform="translate(57.002 111.419)"/><path d="M0 0c.28-4.865.903-9.999 1.978-15.366 10.154 3.813 18.895 8.277 17.094 11.879C17.524-.393 9.39.304 0 0" style="fill:#d9d9d9;fill-opacity:1;fill-rule:nonzero;stroke:none" transform="translate(56.928 127.487)"/><path d="M0 0a352 352 0 0 1-9.759-1.377A4 4 0 0 1-11.964-2.5l-1.822-1.821c-.833-.833-1.288-1.995-1.157-3.165.913-8.178 7.589-12.362 10.521-13.73a3.94 3.94 0 0 1 2.673-.237c1.111.289 2.877.762 5.071 1.379A114 114 0 0 0 0 0" style="fill:#d9d9d9;fill-opacity:1;fill-rule:nonzero;stroke:none" transform="translate(35.048 125.584)"/><path d="M0 0c-3.229-.108-8.778-.363-14.53-.962a127 127 0 0 1 5.738-14.535l-.098-.046s1.505-.229 2.373.435c2.504 1.919 7.263 6.337 9.357 10.9C3.761-2.201 2.207.074 0 0" style="fill:#d9d9d9;fill-opacity:1;fill-rule:nonzero;stroke:none" transform="translate(76.89 99.92)"/><path d="M0 0c-3.829-.451-7.64-1.064-10.813-1.896-1.457-.383-2.02-2.166-1.001-3.277 2.228-2.429 8.591-6.492 17.379-9.126A129 129 0 0 0 0 0" style="fill:#d9d9d9;fill-opacity:1;fill-rule:nonzero;stroke:none" transform="translate(60.332 98.732)"/></g></svg>