<?xml version="1.0" encoding="UTF-8" standalone="no"?>
<svg
   xmlns:dc="http://purl.org/dc/elements/1.1/"
   xmlns:cc="http://creativecommons.org/ns#"
   xmlns:rdf="http://www.w3.org/1999/02/22-rdf-syntax-ns#"
   xmlns:svg="http://www.w3.org/2000/svg"
   xmlns="http://www.w3.org/2000/svg"
   viewBox="0 0 330.98681 181.58265"
   height="181.58266"
   width="330.98682"
   xml:space="preserve"
   id="svg2"
   version="1.1"><metadata
     id="metadata8"><rdf:RDF><cc:Work
         rdf:about=""><dc:format>image/svg+xml</dc:format><dc:type
           rdf:resource="http://purl.org/dc/dcmitype/StillImage" /></cc:Work></rdf:RDF></metadata><defs
     id="defs6"><clipPath
       id="clipPath18"
       clipPathUnits="userSpaceOnUse"><path
         id="path16"
         d="M 0,256 H 256 V 0 H 0 Z" /></clipPath><clipPath
       id="clipPath26"
       clipPathUnits="userSpaceOnUse"><path
         id="path24"
         d="M 3.75488,196.187 H 251.995 V 60 H 3.75488 Z" /></clipPath></defs><g
     transform="matrix(1.3333333,0,0,-1.3333333,-5.0065065,261.58266)"
     id="g10"><g
       id="g12"><g
         clip-path="url(#clipPath18)"
         id="g14"><g
           id="g20"><g
             id="g22" /><g
             id="g34"><g
               style="opacity:0.5"
               id="g32"
               clip-path="url(#clipPath26)"><g
                 id="g30"
                 transform="translate(147.4512,196.187)"><path
                   id="path28"
                   style="fill:#ffffff;fill-opacity:1;fill-rule:nonzero;stroke:none"
                   d="M 0,0 C -10.504,0 -18.113,-0.151 -19.576,-0.182 -21.038,-0.151 -28.646,0 -39.152,0 c -23.854,0 -56.551,-0.737 -77.264,-4.236 -2.173,-0.207 -6.623,-1.225 -11.192,-5.794 -5.896,-5.896 -9.854,-15.662 -11.763,-29.026 l -3.981,-27.867 c -0.261,-1.529 -1.054,-7.615 1.254,-15.117 2.285,-7.422 8.141,-17.838 23.069,-25.302 3.634,-1.818 7.144,-3.713 10.861,-5.72 18.826,-10.167 40.016,-21.609 80.467,-22.985 v -0.138 l 8,-0.002 0.126,0.001 0.124,-0.001 h 8 v 0.14 c 40.45,1.376 61.64,12.818 80.467,22.985 3.716,2.007 7.227,3.902 10.861,5.72 14.928,7.464 20.784,17.88 23.068,25.302 2.308,7.502 1.516,13.588 1.254,15.117 l -3.98,27.867 c -1.909,13.364 -5.867,23.13 -11.763,29.026 -4.569,4.569 -9.019,5.587 -11.192,5.794 C 56.551,-0.737 23.854,0 0,0" /></g></g></g></g><g
           transform="translate(243.75,128)"
           id="g36"><path
             id="path38"
             style="fill:#404040;fill-opacity:1;fill-rule:nonzero;stroke:none"
             d="m 0,0 -4,28 c -4,28 -16,28 -16,28 -31.216,5.365 -92.871,4.069 -95.875,4.003 -3.004,0.066 -64.659,1.362 -95.875,-4.003 0,0 -12,0 -16,-28 l -4,-28 c 0,0 -4,-20 20,-32 23.961,-11.98 43.939,-27.945 95.75,-27.998 V -60 c 0.042,0 0.083,10e-4 0.125,10e-4 0.042,0 0.083,-10e-4 0.125,-10e-4 v 0.002 C -63.939,-59.945 -43.961,-43.98 -20,-32 4,-20 0,0 0,0" /></g><g
           transform="translate(185.2187,186.0171)"
           id="g40"><path
             id="path42"
             style="fill:#595959;fill-opacity:1;fill-rule:nonzero;stroke:none"
             d="m 0,0 c -0.721,1.228 -2.031,1.983 -3.454,1.983 h -53.765 -53.764 c -1.416,0 -2.726,-0.743 -3.443,-1.964 -0.801,-1.362 -1.94,-3.405 -3.235,-6.036 -4.735,-9.618 -11.558,-27.103 -11.558,-48 0,-32 12,-48 12,-48 0,0 20,-12 60,-12 40,0 60,12 60,12 0,0 12,16 12,48 C 14.781,-27.43 3.736,-6.365 0,0" /></g><g
           transform="translate(20.0654,136.6934)"
           id="g44"><path
             id="path46"
             style="fill:#4c4c4c;fill-opacity:1;fill-rule:nonzero;stroke:none"
             d="m 0,0 7.935,36.021 c 0.379,2.089 2.318,3.515 4.426,3.255 C 24.234,37.81 59.274,31.347 55.935,11.307 52.637,-8.479 16.023,-5.993 3.51,-4.693 1.196,-4.453 -0.416,-2.289 0,0" /></g><g
           transform="translate(68,152)"
           id="g48"><path
             id="path50"
             style="fill:#d9d9d9;fill-opacity:1;fill-rule:nonzero;stroke:none"
             d="m 0,0 c 0,-8.836 -7.164,-16 -16,-16 -8.836,0 -16,7.164 -16,16 0,8.836 7.164,16 16,16 C -7.164,16 0,8.836 0,0" /></g><g
           transform="translate(160,188)"
           id="g52"><path
             id="path54"
             style="fill:#4c4c4c;fill-opacity:1;fill-rule:nonzero;stroke:none"
             d="M 0,0 -32,0.003 -64,0 c 0,0 -16,-28 -16,-56 0,0 0,-20 4,-32 4,-12 32,-20 44,-20 12,0 40,8 44,20 4,12 4,32 4,32 C 16,-28 0,0 0,0" /></g><g
           transform="translate(160,188)"
           id="g56"><path
             id="path58"
             style="fill:#262626;fill-opacity:1;fill-rule:nonzero;stroke:none"
             d="m 0,0 -31.875,0.003 h -0.25 L -64,0 c 0,0 -12,-28 -12,-48 0,-20 8,-36 8,-36 0,0 4,-12 36,-12 32,0 36,12 36,12 0,0 8,16 8,36 C 12,-28 0,0 0,0" /></g><path
           id="path60"
           style="fill:#808080;fill-opacity:1;fill-rule:nonzero;stroke:none"
           d="M 158,104 H 98 v 72 h 60 z" /><g
           transform="translate(76.6782,168.9492)"
           id="g62"><path
             id="path64"
             style="fill:#d9d9d9;fill-opacity:1;fill-rule:nonzero;stroke:none"
             d="m 0,0 -22.789,6.511 c -1.118,0.32 -1.889,1.342 -1.889,2.505 0,1.196 0.814,2.238 1.973,2.528 l 3.727,0.932 c 6.56,1.64 13.507,0.437 19.134,-3.314 L 2.162,7.824 C 2.886,7.341 3.322,6.527 3.322,5.656 V 2.505 C 3.322,0.774 1.665,-0.476 0,0" /></g><g
           transform="translate(179.3213,168.9492)"
           id="g66"><path
             id="path68"
             style="fill:#d9d9d9;fill-opacity:1;fill-rule:nonzero;stroke:none"
             d="m 0,0 22.789,6.511 c 1.118,0.32 1.89,1.342 1.89,2.505 0,1.196 -0.814,2.238 -1.974,2.528 l -3.726,0.932 C 12.419,14.116 5.471,12.913 -0.155,9.162 L -2.161,7.824 C -2.886,7.341 -3.321,6.527 -3.321,5.656 V 2.505 C -3.321,0.774 -1.664,-0.476 0,0" /></g><g
           transform="translate(39.1094,146.0728)"
           id="g70"><path
             id="path72"
             style="fill:#cccccc;fill-opacity:1;fill-rule:nonzero;stroke:none"
             d="m 0,0 6.395,4.263 c 1.187,0.792 1.187,2.537 0,3.328 L 0,11.854 c -0.614,0.41 -1.319,0.414 -1.905,0.156 -0.772,-1.876 -1.204,-3.928 -1.204,-6.083 0,-2.154 0.432,-4.206 1.204,-6.082 C -1.319,-0.413 -0.614,-0.409 0,0" /></g><g
           transform="translate(46.0728,164.8906)"
           id="g74"><path
             id="path76"
             style="fill:#cccccc;fill-opacity:1;fill-rule:nonzero;stroke:none"
             d="m 0,0 4.263,-6.395 c 0.792,-1.187 2.537,-1.187 3.328,0 L 11.854,0 c 0.41,0.614 0.414,1.319 0.156,1.905 C 10.134,2.677 8.082,3.109 5.927,3.109 3.773,3.109 1.721,2.677 -0.155,1.905 -0.413,1.319 -0.409,0.614 0,0" /></g><g
           transform="translate(64.8906,157.9272)"
           id="g78"><path
             id="path80"
             style="fill:#cccccc;fill-opacity:1;fill-rule:nonzero;stroke:none"
             d="m 0,0 -6.395,-4.263 c -1.187,-0.792 -1.187,-2.537 0,-3.328 L 0,-11.854 c 0.614,-0.41 1.319,-0.414 1.905,-0.156 0.772,1.876 1.204,3.928 1.204,6.083 0,2.154 -0.432,4.206 -1.204,6.082 C 1.319,0.413 0.614,0.409 0,0" /></g><g
           transform="translate(57.9272,139.1094)"
           id="g82"><path
             id="path84"
             style="fill:#cccccc;fill-opacity:1;fill-rule:nonzero;stroke:none"
             d="m 0,0 -4.263,6.395 c -0.792,1.187 -2.537,1.187 -3.328,0 L -11.854,0 c -0.41,-0.614 -0.414,-1.318 -0.156,-1.905 1.876,-0.772 3.928,-1.204 6.083,-1.204 2.154,0 4.206,0.432 6.082,1.204 C 0.413,-1.318 0.409,-0.614 0,0" /></g><g
           transform="translate(180,126.4609)"
           id="g86"><path
             id="path88"
             style="fill:#d9d9d9;fill-opacity:1;fill-rule:nonzero;stroke:none"
             d="M 0,0 C 4.075,-2.925 10.546,-4.697 17.66,-5.74 18.308,-0.359 18.522,4.743 18.419,9.515 7.354,9.271 1.228,6.52 -0.583,4.312 -1.672,2.985 -1.395,1.001 0,0" /></g><g
           transform="translate(180.6562,141.8896)"
           id="g90"><path
             id="path92"
             style="fill:#d9d9d9;fill-opacity:1;fill-rule:nonzero;stroke:none"
             d="M 0,0 C 4.842,-1.546 11.129,-2.326 17.641,-2.667 17.397,1.982 16.865,6.287 16.167,10.202 L 15.344,10.11 C 7.342,8.51 2.541,6.91 -0.338,5.565 -2.797,4.418 -2.584,0.825 0,0" /></g><g
           transform="translate(194.7656,105.5635)"
           id="g94"><path
             id="path96"
             style="fill:#d9d9d9;fill-opacity:1;fill-rule:nonzero;stroke:none"
             d="M 0,0 C 1.082,4.129 1.893,8.14 2.472,12.014 -12.273,12.916 -14.766,10.437 -14.766,10.437 -16.644,6.682 -8.824,2.928 0,0" /></g><g
           transform="translate(212,116)"
           id="g98"><path
             id="path100"
             style="fill:#d9d9d9;fill-opacity:1;fill-rule:nonzero;stroke:none"
             d="m 0,0 c -4.979,0.711 -9.187,1.166 -12.76,1.438 -0.596,-4.025 -1.437,-8.195 -2.567,-12.49 6.45,-2.027 13.097,-3.593 16.668,-4.382 1.543,4.99 2.681,9.821 3.486,14.468 z" /></g><g
           transform="translate(228.4434,155.605)"
           id="g102"><path
             id="path104"
             style="fill:#d9d9d9;fill-opacity:1;fill-rule:nonzero;stroke:none"
             d="m 0,0 -10.037,-1.115 c 0.899,-4.52 1.596,-9.596 1.888,-15.152 6.005,0.29 10.486,0.662 11.706,0.662 2.826,0 2.1,7.986 0,12.674 C 2.667,-0.944 2.164,0.24 0,0" /></g><g
           transform="translate(199.6436,120.4512)"
           id="g106"><path
             id="path108"
             style="fill:#d9d9d9;fill-opacity:1;fill-rule:nonzero;stroke:none"
             d="m 0,0 c 5.951,-0.752 12.228,-1.034 17.853,-1.082 0.782,5.891 1.035,11.452 0.921,16.631 H 0.776 C 0.882,10.683 0.661,5.482 0,0" /></g><g
           transform="translate(198.8164,152.313)"
           id="g110"><path
             id="path112"
             style="fill:#d9d9d9;fill-opacity:1;fill-rule:nonzero;stroke:none"
             d="m 0,0 c 0.71,-4.012 1.247,-8.422 1.488,-13.181 6.261,-0.242 12.612,-0.112 17.991,0.116 -0.29,5.517 -0.987,10.549 -1.884,15.02 z" /></g><g
           transform="translate(187.0937,84.4229)"
           id="g114"><path
             id="path116"
             style="fill:#d9d9d9;fill-opacity:1;fill-rule:nonzero;stroke:none"
             d="m 0,0 c 2.33,4.994 4.227,9.871 5.763,14.612 -5.468,0.541 -10.664,0.782 -13.746,0.885 -2.207,0.074 -3.762,-2.201 -2.84,-4.208 2.094,-4.562 6.852,-8.981 9.356,-10.9 0.676,-0.517 1.49,-0.767 2.321,-0.787 z" /></g><g
           transform="translate(227.6133,112.877)"
           id="g118"><path
             id="path120"
             style="fill:#d9d9d9;fill-opacity:1;fill-rule:nonzero;stroke:none"
             d="m 0,0 -8.822,1.765 c -0.8,-4.607 -1.92,-9.388 -3.43,-14.323 0.748,0.059 1.475,0.308 2.089,0.769 L 0.809,-3.561 C 2.191,-2.523 1.695,-0.339 0,0" /></g><g
           transform="translate(211.0488,172.2329)"
           id="g122"><path
             id="path124"
             style="fill:#d9d9d9;fill-opacity:1;fill-rule:nonzero;stroke:none"
             d="m 0,0 -16.478,-3.662 c 1.04,-2.983 2.033,-6.266 2.901,-9.835 0.218,-0.895 0.428,-1.824 0.631,-2.773 5.983,0.679 12.19,1.565 17.416,2.336 C 3.182,-8.648 1.598,-3.975 0,0" /></g><g
           transform="translate(206.4805,96.8359)"
           id="g126"><path
             id="path128"
             style="fill:#d9d9d9;fill-opacity:1;fill-rule:nonzero;stroke:none"
             d="m 0,0 c -3.389,0.889 -7.504,1.524 -11.594,1.984 -1.523,-4.759 -3.409,-9.654 -5.718,-14.664 0.001,0 0.003,0 0.005,10e-4 9.273,2.618 16.002,6.888 18.309,9.403 C 2.021,-2.166 1.457,-0.383 0,0" /></g><g
           transform="translate(232,136)"
           id="g130"><path
             id="path132"
             style="fill:#d9d9d9;fill-opacity:1;fill-rule:nonzero;stroke:none"
             d="m 0,0 h -11.58 c 0.112,-5.187 -0.14,-10.753 -0.908,-16.639 5.863,0.005 10.837,0.246 13.69,0.431 C 2.78,-16.105 4,-14.796 4,-13.215 V -4 C 4,-1.791 2.209,0 0,0" /></g><g
           transform="translate(181.0742,154.9141)"
           id="g134"><path
             id="path136"
             style="fill:#d9d9d9;fill-opacity:1;fill-rule:nonzero;stroke:none"
             d="M 0,0 C 3.93,-0.153 9.309,0.224 15.029,0.83 14.85,1.659 14.666,2.473 14.476,3.26 13.6,6.874 12.584,10.2 11.521,13.218 L 10.926,13.086 C 4.474,10.935 0.334,7.628 -2.114,5.03 -3.876,3.16 -2.567,0.1 0,0" /></g><g
           transform="translate(217.4717,158.7363)"
           id="g138"><path
             id="path140"
             style="fill:#d9d9d9;fill-opacity:1;fill-rule:nonzero;stroke:none"
             d="m 0,0 c 0.012,-0.047 0.022,-0.096 0.033,-0.144 5.368,0.798 9.392,1.408 10.495,1.408 2.308,0 1.84,3.493 0,8 -1.469,3.599 -2.554,7.432 -6.349,6.589 L -4.428,13.94 C -2.848,9.958 -1.287,5.291 0,0" /></g><g
           transform="translate(57.0024,111.4189)"
           id="g142"><path
             id="path144"
             style="fill:#d9d9d9;fill-opacity:1;fill-rule:nonzero;stroke:none"
             d="M 0,0 C -1.136,5.589 -1.785,10.93 -2.074,15.99 -8.142,15.71 -14.554,15.067 -19.966,14.411 -19.515,8.215 -18.499,1.599 -16.708,-5.36 -11.984,-3.999 -5.855,-2.12 0,0" /></g><g
           transform="translate(56.9282,127.4873)"
           id="g146"><path
             id="path148"
             style="fill:#d9d9d9;fill-opacity:1;fill-rule:nonzero;stroke:none"
             d="m 0,0 c 0.28,-4.865 0.903,-9.999 1.978,-15.366 10.154,3.813 18.895,8.277 17.094,11.879 C 17.524,-0.393 9.39,0.304 0,0" /></g><g
           transform="translate(35.0479,125.584)"
           id="g150"><path
             id="path152"
             style="fill:#d9d9d9;fill-opacity:1;fill-rule:nonzero;stroke:none"
             d="M 0,0 C -4.413,-0.561 -7.963,-1.096 -9.759,-1.377 -10.596,-1.509 -11.365,-1.9 -11.964,-2.5 l -1.822,-1.821 c -0.833,-0.833 -1.288,-1.995 -1.157,-3.165 0.913,-8.178 7.589,-12.362 10.521,-13.73 0.838,-0.391 1.778,-0.471 2.673,-0.237 1.111,0.289 2.877,0.762 5.071,1.379 C 1.502,-13.012 0.464,-6.295 0,0" /></g><g
           transform="translate(76.8896,99.9199)"
           id="g154"><path
             id="path156"
             style="fill:#d9d9d9;fill-opacity:1;fill-rule:nonzero;stroke:none"
             d="m 0,0 c -3.229,-0.108 -8.778,-0.363 -14.53,-0.962 1.531,-4.717 3.42,-9.568 5.738,-14.535 l -0.098,-0.046 c 0,0 1.505,-0.229 2.373,0.435 2.504,1.919 7.263,6.337 9.357,10.9 C 3.761,-2.201 2.207,0.074 0,0" /></g><g
           transform="translate(60.332,98.7324)"
           id="g158"><path
             id="path160"
             style="fill:#d9d9d9;fill-opacity:1;fill-rule:nonzero;stroke:none"
             d="m 0,0 c -3.829,-0.451 -7.64,-1.064 -10.813,-1.896 -1.457,-0.383 -2.02,-2.166 -1.001,-3.277 2.228,-2.429 8.591,-6.492 17.379,-9.126 C 3.328,-9.416 1.49,-4.644 0,0" /></g></g></g></g></svg>