<svg xmlns="http://www.w3.org/2000/svg" xml:space="preserve" width="256" height="330.667" viewBox="0 0 256 330.667"><defs><clipPath id="a" clipPathUnits="userSpaceOnUse"><path d="M0 256h256V0H0Z"/></clipPath><clipPath id="b" clipPathUnits="userSpaceOnUse"><path d="M32 252h192V4H32Z"/></clipPath></defs><g clip-path="url(#a)" transform="matrix(1.33333 0 0 -1.33333 -42.667 336)"><g clip-path="url(#b)" style="opacity:.5"><path d="M0 0h-75.596q.641.558 1.315 1.101C-64.755 8.774-51.799 13-37.798 13S-10.84 8.774-1.314 1.101A45 45 0 0 0 0 0m48.202-4h-4.005a10 10 0 0 1-6.491 3.887C26.602 26.129-3.511 44-37.798 44s-64.399-17.871-75.503-44.113A10 10 0 0 1-119.793-4h-4.005c-5.514 0-10-4.486-10-10v-176c0-5.514 4.486-10 10-10h12.005a9.99 9.99 0 0 1 7.995-4h132a9.99 9.99 0 0 1 7.995 4h12.005c5.514 0 10 4.486 10 10v176c0 5.514-4.486 10-10 10" style="fill:#fff;fill-opacity:1;fill-rule:nonzero;stroke:none" transform="translate(165.798 208)"/></g><path d="M0 0a4 4 0 0 1-4 4h-144a4 4 0 0 1-4-4h-10a2 2 0 0 1-2-2v-176a2 2 0 0 1 2-2H10a2 2 0 0 1 2 2V-2a2 2 0 0 1-2 2z" style="fill:#354f9f;fill-opacity:1;fill-rule:nonzero;stroke:none" transform="translate(204 196)"/><path d="M0 0c2.605 5.623 6.775 10.845 12.344 15.331C23.287 24.146 38.026 29 53.846 29s30.56-4.854 41.502-13.669c5.569-4.486 9.739-9.708 12.344-15.331h16.029c-7.776 25.267-36.104 44-69.875 44S-8.252 25.267-16.029 0Z" style="fill:#000;fill-opacity:1;fill-rule:nonzero;stroke:none" transform="translate(74.154 200)"/><path d="M0 0h-132a2 2 0 0 0-2 2v2H2V2a2 2 0 0 0-2-2" style="fill:#d9d9d9;fill-opacity:1;fill-rule:nonzero;stroke:none" transform="translate(194 12)"/><path d="M0 0c0-26.51-21.49-48-48-48S-96-26.51-96 0s21.49 48 48 48S0 26.51 0 0" style="fill:#000;fill-opacity:1;fill-rule:nonzero;stroke:none" transform="translate(176 108)"/><path d="M0 0c0-5.523-4.477-10-10-10S-20-5.523-20 0s4.477 10 10 10S0 5.523 0 0" style="fill:#d9d9d9;fill-opacity:1;fill-rule:nonzero;stroke:none" transform="translate(68 154)"/><path d="M0 0c0-5.522-4.477-10-10-10S-20-5.522-20 0s4.477 10 10 10S0 5.522 0 0" style="fill:#4b5da7;fill-opacity:1;fill-rule:nonzero;stroke:none" transform="translate(68 42)"/><path d="M0 0c0-5.522-4.478-10-10-10S-20-5.522-20 0s4.478 10 10 10S0 5.522 0 0" style="fill:#4b5da7;fill-opacity:1;fill-rule:nonzero;stroke:none" transform="translate(208 42)"/><path d="M0 0a6 6 0 0 0-12 0A6 6 0 0 0 0 0" style="fill:#354f9f;fill-opacity:1;fill-rule:nonzero;stroke:none" transform="translate(204 42)"/><path d="M0 0h-152v2a2 2 0 0 0 2 2H-2a2 2 0 0 0 2-2Z" style="fill:#263979;fill-opacity:1;fill-rule:nonzero;stroke:none" transform="translate(204 196)"/><path d="M164 196H92v4h72z" style="fill:#000;fill-opacity:1;fill-rule:nonzero;stroke:none"/><path d="M0 0s4-8 20-8 20 8 20 8z" style="fill:#e77f22;fill-opacity:1;fill-rule:nonzero;stroke:none" transform="translate(108 36)"/><path d="M0 0v-136.123c-7.999-.892-14.421-7.042-15.734-14.911-7.507-2.136-27.861-7.238-52.266-7.755-24.405.517-44.759 5.619-52.266 7.755-1.313 7.869-7.734 14.019-15.734 14.911v76.241c8.986.999 16 8.633 16 17.882s-7.014 16.883-16 17.882V0h-4v-28.16c.655.095 1.319.16 2 .16 7.72 0 14-6.28 14-14s-6.28-14-14-14c-.681 0-1.345.065-2 .16v-84.32c.655.095 1.319.16 2 .16 6.627 0 12.181-4.633 13.624-10.827l.371-3.27 3.942-1.143c8.595-2.359 28.457-7.042 52.063-7.535 23.606.493 43.468 5.176 52.062 7.535l3.943 1.143.372 3.27C-10.181-144.633-4.627-140 2-140c.681 0 1.345-.065 2-.16V0Z" style="fill:#263979;fill-opacity:1;fill-rule:nonzero;stroke:none" transform="translate(196 196)"/></g></svg>