<?xml version="1.0" encoding="UTF-8" standalone="no"?>
<svg
   xmlns:dc="http://purl.org/dc/elements/1.1/"
   xmlns:cc="http://creativecommons.org/ns#"
   xmlns:rdf="http://www.w3.org/1999/02/22-rdf-syntax-ns#"
   xmlns:svg="http://www.w3.org/2000/svg"
   xmlns="http://www.w3.org/2000/svg"
   viewBox="0 0 255.99986 330.66665"
   height="330.66666"
   width="255.99986"
   xml:space="preserve"
   id="svg2"
   version="1.1"><metadata
     id="metadata8"><rdf:RDF><cc:Work
         rdf:about=""><dc:format>image/svg+xml</dc:format><dc:type
           rdf:resource="http://purl.org/dc/dcmitype/StillImage" /></cc:Work></rdf:RDF></metadata><defs
     id="defs6"><clipPath
       id="clipPath18"
       clipPathUnits="userSpaceOnUse"><path
         id="path16"
         d="M 0,256 H 256 V 0 H 0 Z" /></clipPath><clipPath
       id="clipPath26"
       clipPathUnits="userSpaceOnUse"><path
         id="path24"
         d="M 32,252 H 224 V 4 H 32 Z" /></clipPath></defs><g
     transform="matrix(1.3333333,0,0,-1.3333333,-42.666666,335.99999)"
     id="g10"><g
       id="g12"><g
         clip-path="url(#clipPath18)"
         id="g14"><g
           id="g20"><g
             id="g22" /><g
             id="g34"><g
               style="opacity:0.5"
               id="g32"
               clip-path="url(#clipPath26)"><g
                 id="g30"
                 transform="translate(165.7979,208)"><path
                   id="path28"
                   style="fill:#ffffff;fill-opacity:1;fill-rule:nonzero;stroke:none"
                   d="m 0,0 h -1.798 -72 -1.798 c 0.427,0.372 0.866,0.739 1.315,1.101 C -64.755,8.774 -51.799,13 -37.798,13 -23.797,13 -10.84,8.774 -1.314,1.101 -0.865,0.739 -0.427,0.372 0,0 m 48.202,-4 h -4.005 c -1.54,2.048 -3.847,3.487 -6.491,3.887 C 26.602,26.129 -3.511,44 -37.798,44 c -34.287,0 -64.399,-17.871 -75.503,-44.113 -2.644,-0.4 -4.951,-1.839 -6.492,-3.887 h -4.005 c -5.514,0 -10,-4.486 -10,-10 v -176 c 0,-5.514 4.486,-10 10,-10 h 12.005 c 1.826,-2.428 4.73,-4 7.995,-4 h 132 c 3.265,0 6.169,1.572 7.995,4 h 12.005 c 5.514,0 10,4.486 10,10 v 176 c 0,5.514 -4.486,10 -10,10" /></g></g></g></g><g
           transform="translate(204,196)"
           id="g36"><path
             id="path38"
             style="fill:#354f9f;fill-opacity:1;fill-rule:nonzero;stroke:none"
             d="m 0,0 v 0 c 0,2.209 -1.791,4 -4,4 h -144 c -2.209,0 -4,-1.791 -4,-4 h -10 c -1.104,0 -2,-0.896 -2,-2 v -176 c 0,-1.104 0.896,-2 2,-2 H 10 c 1.104,0 2,0.896 2,2 V -2 c 0,1.104 -0.896,2 -2,2 z" /></g><g
           transform="translate(74.1538,200)"
           id="g40"><path
             id="path42"
             style="fill:#000000;fill-opacity:1;fill-rule:nonzero;stroke:none"
             d="M 0,0 C 2.605,5.623 6.775,10.845 12.344,15.331 23.287,24.146 38.026,29 53.846,29 69.667,29 84.406,24.146 95.348,15.331 100.917,10.845 105.087,5.623 107.692,0 h 16.029 C 115.945,25.267 87.617,44 53.846,44 20.076,44 -8.252,25.267 -16.029,0 Z" /></g><g
           transform="translate(194,12)"
           id="g44"><path
             id="path46"
             style="fill:#d9d9d9;fill-opacity:1;fill-rule:nonzero;stroke:none"
             d="m 0,0 h -132 c -1.104,0 -2,0.896 -2,2 V 4 H 2 V 2 C 2,0.896 1.104,0 0,0" /></g><g
           transform="translate(176,108)"
           id="g48"><path
             id="path50"
             style="fill:#000000;fill-opacity:1;fill-rule:nonzero;stroke:none"
             d="m 0,0 c 0,-26.51 -21.49,-48 -48,-48 -26.51,0 -48,21.49 -48,48 0,26.51 21.49,48 48,48 C -21.49,48 0,26.51 0,0" /></g><g
           transform="translate(68,154)"
           id="g52"><path
             id="path54"
             style="fill:#d9d9d9;fill-opacity:1;fill-rule:nonzero;stroke:none"
             d="m 0,0 c 0,-5.523 -4.477,-10 -10,-10 -5.523,0 -10,4.477 -10,10 0,5.523 4.477,10 10,10 C -4.477,10 0,5.523 0,0" /></g><g
           transform="translate(68,42)"
           id="g56"><path
             id="path58"
             style="fill:#4b5da7;fill-opacity:1;fill-rule:nonzero;stroke:none"
             d="m 0,0 c 0,-5.522 -4.477,-10 -10,-10 -5.523,0 -10,4.478 -10,10 0,5.522 4.477,10 10,10 C -4.477,10 0,5.522 0,0" /></g><g
           transform="translate(208,42)"
           id="g60"><path
             id="path62"
             style="fill:#4b5da7;fill-opacity:1;fill-rule:nonzero;stroke:none"
             d="m 0,0 c 0,-5.522 -4.478,-10 -10,-10 -5.522,0 -10,4.478 -10,10 0,5.522 4.478,10 10,10 C -4.478,10 0,5.522 0,0" /></g><g
           transform="translate(204,42)"
           id="g64"><path
             id="path66"
             style="fill:#354f9f;fill-opacity:1;fill-rule:nonzero;stroke:none"
             d="m 0,0 c 0,-3.313 -2.687,-6 -6,-6 -3.313,0 -6,2.687 -6,6 0,3.313 2.687,6 6,6 3.313,0 6,-2.687 6,-6" /></g><g
           transform="translate(204,196)"
           id="g68"><path
             id="path70"
             style="fill:#263979;fill-opacity:1;fill-rule:nonzero;stroke:none"
             d="m 0,0 h -152 v 2 c 0,1.104 0.896,2 2,2 H -2 C -0.896,4 0,3.104 0,2 Z" /></g><path
           id="path72"
           style="fill:#000000;fill-opacity:1;fill-rule:nonzero;stroke:none"
           d="M 164,196 H 92 v 4 h 72 z" /><g
           transform="translate(108,36)"
           id="g74"><path
             id="path76"
             style="fill:#e77f22;fill-opacity:1;fill-rule:nonzero;stroke:none"
             d="m 0,0 c 0,0 4,-8 20,-8 16,0 20,8 20,8 z" /></g><g
           transform="translate(196,196)"
           id="g78"><path
             id="path80"
             style="fill:#263979;fill-opacity:1;fill-rule:nonzero;stroke:none"
             d="m 0,0 v -136.123 c -7.999,-0.892 -14.421,-7.042 -15.734,-14.911 -7.507,-2.136 -27.861,-7.238 -52.266,-7.755 -24.405,0.517 -44.759,5.619 -52.266,7.755 -1.313,7.869 -7.734,14.019 -15.734,14.911 v 76.241 c 8.986,0.999 16,8.633 16,17.882 0,9.249 -7.014,16.883 -16,17.882 V 0 h -4 V -24.118 -28 -28.16 c 0.655,0.095 1.319,0.16 2,0.16 7.72,0 14,-6.28 14,-14 0,-7.72 -6.28,-14 -14,-14 -0.681,0 -1.345,0.065 -2,0.16 v -0.16 -3.882 -76.236 -3.882 -0.16 c 0.655,0.095 1.319,0.16 2,0.16 6.627,0 12.181,-4.633 13.624,-10.827 l 0.371,-3.27 3.942,-1.143 c 8.595,-2.359 28.457,-7.042 52.063,-7.535 23.606,0.493 43.468,5.176 52.062,7.535 l 3.943,1.143 0.372,3.27 C -10.181,-144.633 -4.627,-140 2,-140 c 0.681,0 1.345,-0.065 2,-0.16 v 0.16 3.882 V 0 Z" /></g></g></g></g></svg>