<?xml version="1.0" encoding="UTF-8" standalone="no"?>
<svg
   xmlns:dc="http://purl.org/dc/elements/1.1/"
   xmlns:cc="http://creativecommons.org/ns#"
   xmlns:rdf="http://www.w3.org/1999/02/22-rdf-syntax-ns#"
   xmlns:svg="http://www.w3.org/2000/svg"
   xmlns="http://www.w3.org/2000/svg"
   viewBox="0 0 330.66638 245.33319"
   height="245.33319"
   width="330.66638"
   xml:space="preserve"
   id="svg2"
   version="1.1"><metadata
     id="metadata8"><rdf:RDF><cc:Work
         rdf:about=""><dc:format>image/svg+xml</dc:format><dc:type
           rdf:resource="http://purl.org/dc/dcmitype/StillImage" /></cc:Work></rdf:RDF></metadata><defs
     id="defs6"><clipPath
       id="clipPath18"
       clipPathUnits="userSpaceOnUse"><path
         id="path16"
         d="M 0,256 H 256 V 0 H 0 Z" /></clipPath><clipPath
       id="clipPath26"
       clipPathUnits="userSpaceOnUse"><path
         id="path24"
         d="M 4,220 H 252 V 36 H 4 Z" /></clipPath><clipPath
       id="clipPath44"
       clipPathUnits="userSpaceOnUse"><path
         id="path42"
         d="M 0,256 H 256 V 0 H 0 Z" /></clipPath></defs><g
     transform="matrix(1.3333333,0,0,-1.3333333,-5.3333332,293.33319)"
     id="g10"><g
       id="g12"><g
         clip-path="url(#clipPath18)"
         id="g14"><g
           id="g20"><g
             id="g22" /><g
             id="g34"><g
               style="opacity:0.5"
               id="g32"
               clip-path="url(#clipPath26)"><g
                 id="g30"
                 transform="translate(249.3398,80.7129)"><path
                   id="path28"
                   style="fill:#ffffff;fill-opacity:1;fill-rule:nonzero;stroke:none"
                   d="M 0,0 0.004,0.001 -13.34,36.696 v 78.591 c 0,13.234 -10.766,24 -24,24 h -16 -136 -16 c -13.233,0 -24,-10.766 -24,-24 V 36.696 L -242.684,0.001 -242.68,0 c -1.056,-2.889 -2.66,-10.418 -2.66,-12.713 0,-17.644 14.355,-32 32,-32 7.115,0 13.865,2.316 19.37,6.52 1.766,-1.567 4.089,-2.52 6.63,-2.52 h 16 c 2.249,0 4.328,0.747 6,2.005 1.673,-1.258 3.751,-2.005 6,-2.005 h 16 c 3.265,0 6.169,1.572 7.995,4 h 28.01 c 1.826,-2.428 4.731,-4 7.995,-4 h 16 c 2.249,0 4.328,0.747 6,2.005 1.673,-1.258 3.751,-2.005 6,-2.005 h 16 c 2.541,0 4.864,0.953 6.63,2.52 5.505,-4.204 12.256,-6.52 19.37,-6.52 17.645,0 32,14.356 32,32 C 2.66,-10.418 1.056,-2.889 0,0" /></g></g></g></g></g></g><path
       id="path36"
       style="fill:#262626;fill-opacity:1;fill-rule:nonzero;stroke:none"
       d="M 208,48 H 48 v 12 h 160 z" /><g
       id="g38"><g
         clip-path="url(#clipPath44)"
         id="g40"><g
           transform="translate(194,48)"
           id="g46"><path
             id="path48"
             style="fill:#bfbfbf;fill-opacity:1;fill-rule:nonzero;stroke:none"
             d="m 0,0 h -16 c -1.104,0 -2,0.896 -2,2 V 8 H 2 V 2 C 2,0.896 1.104,0 0,0" /></g><g
           transform="translate(78,48)"
           id="g50"><path
             id="path52"
             style="fill:#bfbfbf;fill-opacity:1;fill-rule:nonzero;stroke:none"
             d="m 0,0 h -16 c -1.104,0 -2,0.896 -2,2 V 8 H 2 V 2 C 2,0.896 1.104,0 0,0" /></g><g
           transform="translate(36,92)"
           id="g54"><path
             id="path56"
             style="fill:#333333;fill-opacity:1;fill-rule:nonzero;stroke:none"
             d="M 0,0 C -1.364,0 -2.699,-0.12 -4,-0.338 V 24 H -8 L -21.825,-14.02 C -22.356,-15.18 -24,-22.637 -24,-24 c 0,-13.255 10.745,-24 24,-24 13.255,0 24,10.745 24,24 C 24,-10.745 13.255,0 0,0" /></g><g
           transform="translate(241.8252,77.9805)"
           id="g58"><path
             id="path60"
             style="fill:#333333;fill-opacity:1;fill-rule:nonzero;stroke:none"
             d="m 0,0 -13.825,38.02 h -4 V 13.682 c -1.302,0.217 -2.637,0.338 -4,0.338 -13.255,0 -24,-10.746 -24,-24 0,-13.255 10.745,-24 24,-24 13.255,0 24,10.745 24,24 C 2.175,-8.617 0.531,-1.16 0,0" /></g><g
           transform="translate(212,212)"
           id="g62"><path
             id="path64"
             style="fill:#404040;fill-opacity:1;fill-rule:nonzero;stroke:none"
             d="m 0,0 h -168 c -8.8,0 -16,-7.2 -16,-16 v -124 c 0,-7.418 5.123,-13.68 12,-15.47 l 16.074,-3.64 c 2.609,-0.592 5.276,-0.89 7.952,-0.89 h 127.948 c 2.675,0 5.343,0.298 7.953,0.89 L 4,-155.47 c 6.877,1.79 12,8.052 12,15.47 V -16 C 16,-7.2 8.8,0 0,0" /></g><g
           transform="translate(148,100)"
           id="g66"><path
             id="path68"
             style="fill:#333333;fill-opacity:1;fill-rule:nonzero;stroke:none"
             d="m 0,0 h -40 c -4.4,0 -8,-3.6 -8,-8 v -24 c 0,-4.4 3.6,-8 8,-8 H 0 c 4.4,0 8,3.6 8,8 V -8 C 8,-3.6 4.4,0 0,0 m 0,-2 c 3.309,0 6,-2.691 6,-6 v -24 c 0,-3.309 -2.691,-6 -6,-6 h -40 c -3.309,0 -6,2.691 -6,6 v 24 c 0,3.309 2.691,6 6,6 H 0" /></g><g
           transform="translate(190,64)"
           id="g70"><path
             id="path72"
             style="fill:#333333;fill-opacity:1;fill-rule:nonzero;stroke:none"
             d="m 0,0 v 0 c -5.5,0 -10,4.5 -10,10 v 20 c 0,5.5 4.5,10 10,10 5.5,0 10,-4.5 10,-10 V 10 C 10,4.5 5.5,0 0,0" /></g><g
           transform="translate(190,64)"
           id="g74"><path
             id="path76"
             style="fill:#4c4c4c;fill-opacity:1;fill-rule:nonzero;stroke:none"
             d="m 0,0 v 0 c -5.5,0 -10,4.5 -10,10 v 12 c 0,5.5 4.5,10 10,10 5.5,0 10,-4.5 10,-10 V 10 C 10,4.5 5.5,0 0,0" /></g><g
           transform="translate(66,64)"
           id="g78"><path
             id="path80"
             style="fill:#333333;fill-opacity:1;fill-rule:nonzero;stroke:none"
             d="m 0,0 v 0 c -5.5,0 -10,4.5 -10,10 v 20 c 0,5.5 4.5,10 10,10 5.5,0 10,-4.5 10,-10 V 10 C 10,4.5 5.5,0 0,0" /></g><g
           transform="translate(66,64)"
           id="g82"><path
             id="path84"
             style="fill:#4c4c4c;fill-opacity:1;fill-rule:nonzero;stroke:none"
             d="m 0,0 v 0 c -5.5,0 -10,4.5 -10,10 v 12 c 0,5.5 4.5,10 10,10 5.5,0 10,-4.5 10,-10 V 10 C 10,4.5 5.5,0 0,0" /></g><path
           id="path86"
           style="fill:#333333;fill-opacity:1;fill-rule:nonzero;stroke:none"
           d="M 76,78 H 56 v 4 h 20 z" /><g
           transform="translate(106,48)"
           id="g88"><path
             id="path90"
             style="fill:#bfbfbf;fill-opacity:1;fill-rule:nonzero;stroke:none"
             d="m 0,0 h -16 c -1.104,0 -2,0.896 -2,2 V 4 H 2 V 2 C 2,0.896 1.104,0 0,0" /></g><g
           transform="translate(166,48)"
           id="g92"><path
             id="path94"
             style="fill:#bfbfbf;fill-opacity:1;fill-rule:nonzero;stroke:none"
             d="m 0,0 h -16 c -1.104,0 -2,0.896 -2,2 V 4 H 2 V 2 C 2,0.896 1.104,0 0,0" /></g><g
           transform="translate(60,212)"
           id="g96"><path
             id="path98"
             style="fill:#333333;fill-opacity:1;fill-rule:nonzero;stroke:none"
             d="m 0,0 11.129,-63.067 c 1.069,-6.056 3.809,-11.721 8.037,-16.186 7.351,-7.766 21.702,-16.7 48.834,-16.717 27.145,-0.017 41.497,8.93 48.845,16.709 4.218,4.465 6.954,10.121 8.021,16.171 L 136,0 Z" /></g><g
           transform="translate(180,151.2856)"
           id="g100"><path
             id="path102"
             style="fill:#262626;fill-opacity:1;fill-rule:nonzero;stroke:none"
             d="m 0,0 h -104 c -4.418,0 -8,3.582 -8,8 v 11.429 c 0,1.104 0.896,2 2,2 H 6 c 1.104,0 2,-0.896 2,-2 V 8 C 8,3.582 4.418,0 0,0" /></g><path
           id="path104"
           style="fill:#191919;fill-opacity:1;fill-rule:nonzero;stroke:none"
           d="M 188,164 H 68 v 2 h 120 z" /><g
           transform="translate(86,131.9028)"
           id="g106"><path
             id="path108"
             style="fill:#262626;fill-opacity:1;fill-rule:nonzero;stroke:none"
             d="M 0,0 C 1.195,-0.953 2.525,-1.899 4,-2.82 V 12.097 H 0 Z" /></g><g
           transform="translate(130,144)"
           id="g110"><path
             id="path112"
             style="fill:#262626;fill-opacity:1;fill-rule:nonzero;stroke:none"
             d="m 0,0 h -4 v -23.948 c 0.661,-0.012 1.325,-0.022 2.002,-0.022 h 0.075 c 0.651,0 1.288,0.009 1.923,0.02 z" /></g><g
           transform="translate(94,126.8467)"
           id="g114"><path
             id="path116"
             style="fill:#262626;fill-opacity:1;fill-rule:nonzero;stroke:none"
             d="M 0,0 C 1.249,-0.621 2.582,-1.219 4,-1.784 V 17.153 H 0 Z" /></g><g
           transform="translate(166,129.0566)"
           id="g118"><path
             id="path120"
             style="fill:#262626;fill-opacity:1;fill-rule:nonzero;stroke:none"
             d="m 0,0 c 1.476,0.921 2.805,1.869 4,2.823 v 12.12 H 0 Z" /></g><g
           transform="translate(174,135.5571)"
           id="g122"><path
             id="path124"
             style="fill:#262626;fill-opacity:1;fill-rule:nonzero;stroke:none"
             d="M 0,0 C 1.574,1.679 2.906,3.565 4,5.6 V 8.443 H 0 Z" /></g><g
           transform="translate(102,123.6348)"
           id="g126"><path
             id="path128"
             style="fill:#262626;fill-opacity:1;fill-rule:nonzero;stroke:none"
             d="M 0,0 C 1.272,-0.404 2.606,-0.782 4,-1.13 V 20.365 H 0 Z" /></g><g
           transform="translate(158,125.0371)"
           id="g130"><path
             id="path132"
             style="fill:#262626;fill-opacity:1;fill-rule:nonzero;stroke:none"
             d="M 0,0 C 1.419,0.565 2.751,1.162 4,1.784 V 18.963 H 0 Z" /></g><g
           transform="translate(150,122.4824)"
           id="g134"><path
             id="path136"
             style="fill:#262626;fill-opacity:1;fill-rule:nonzero;stroke:none"
             d="m 0,0 c 1.394,0.348 2.729,0.724 4,1.128 v 20.39 H 0 Z" /></g><g
           transform="translate(78,141.1714)"
           id="g138"><path
             id="path140"
             style="fill:#262626;fill-opacity:1;fill-rule:nonzero;stroke:none"
             d="M 0,0 C 1.094,-2.034 2.426,-3.918 4,-5.594 V 2.829 H 0 Z" /></g><g
           transform="translate(142,120.9473)"
           id="g142"><path
             id="path144"
             style="fill:#262626;fill-opacity:1;fill-rule:nonzero;stroke:none"
             d="M 0,0 C 1.382,0.193 2.714,0.413 4,0.659 V 23.053 H 0 Z" /></g><g
           transform="translate(134,120.1904)"
           id="g146"><path
             id="path148"
             style="fill:#262626;fill-opacity:1;fill-rule:nonzero;stroke:none"
             d="M 0,0 C 1.372,0.073 2.706,0.171 4,0.292 V 23.81 H 0 Z" /></g><g
           transform="translate(110,121.625)"
           id="g150"><path
             id="path152"
             style="fill:#262626;fill-opacity:1;fill-rule:nonzero;stroke:none"
             d="M 0,0 C 1.286,-0.246 2.619,-0.468 4,-0.661 V 22.375 H 0 Z" /></g><g
           transform="translate(118,120.4951)"
           id="g154"><path
             id="path156"
             style="fill:#262626;fill-opacity:1;fill-rule:nonzero;stroke:none"
             d="M 0,0 C 1.294,-0.123 2.627,-0.223 4,-0.298 V 23.505 H 0 Z" /></g><g
           transform="translate(134,92)"
           id="g158"><path
             id="path160"
             style="fill:#333333;fill-opacity:1;fill-rule:nonzero;stroke:none"
             d="m 0,0 h -12 c -1.104,0 -2,0.896 -2,2 V 8 H 2 V 2 C 2,0.896 1.104,0 0,0" /></g><path
           id="path162"
           style="fill:#404040;fill-opacity:1;fill-rule:nonzero;stroke:none"
           d="m 134,94 h -12 v 4 h 12 z" /><g
           transform="translate(120,90)"
           id="g164"><path
             id="path166"
             style="fill:#4c4c4c;fill-opacity:1;fill-rule:nonzero;stroke:none"
             d="m 0,0 c 0,-0.553 -0.448,-1 -1,-1 -0.552,0 -1,0.447 -1,1 0,0.553 0.448,1 1,1 0.552,0 1,-0.447 1,-1" /></g><g
           transform="translate(126,90)"
           id="g168"><path
             id="path170"
             style="fill:#4c4c4c;fill-opacity:1;fill-rule:nonzero;stroke:none"
             d="m 0,0 c 0,-0.553 -0.448,-1 -1,-1 -0.552,0 -1,0.447 -1,1 0,0.553 0.448,1 1,1 0.552,0 1,-0.447 1,-1" /></g><g
           transform="translate(132,90)"
           id="g172"><path
             id="path174"
             style="fill:#4c4c4c;fill-opacity:1;fill-rule:nonzero;stroke:none"
             d="m 0,0 c 0,-0.553 -0.447,-1 -1,-1 -0.553,0 -1,0.447 -1,1 0,0.553 0.447,1 1,1 0.553,0 1,-0.447 1,-1" /></g><g
           transform="translate(138,90)"
           id="g176"><path
             id="path178"
             style="fill:#4c4c4c;fill-opacity:1;fill-rule:nonzero;stroke:none"
             d="m 0,0 c 0,-0.553 -0.447,-1 -1,-1 -0.553,0 -1,0.447 -1,1 0,0.553 0.447,1 1,1 0.553,0 1,-0.447 1,-1" /></g></g></g></g></svg>