<svg xmlns="http://www.w3.org/2000/svg" xml:space="preserve" width="330.667" height="202.667" viewBox="0 0 330.667 202.667"><defs><clipPath id="a" clipPathUnits="userSpaceOnUse"><path d="M0 256h256V0H0Z"/></clipPath><clipPath id="b" clipPathUnits="userSpaceOnUse"><path d="M4 204h248V52H4Z"/></clipPath><clipPath id="c" clipPathUnits="userSpaceOnUse"><path d="M0 256h256V0H0Z"/></clipPath></defs><g clip-path="url(#a)" transform="matrix(1.33333 0 0 -1.33333 -5.333 272)"><g clip-path="url(#b)" style="opacity:.5"><path d="M0 0h-248v-152H0V-8z" style="fill:#fff;fill-opacity:1;fill-rule:nonzero;stroke:none" transform="translate(252 204)"/></g></g><path d="M244 60H12v136h232z" style="fill:#d9d9d9;fill-opacity:1;fill-rule:nonzero;stroke:none" transform="matrix(1.33333 0 0 -1.33333 -5.333 272)"/><path d="M0 0v-24h-16v-4H0v-100h-208v100h16v4h-16V0h-4v-132H4V0z" style="fill:#b3b3b3;fill-opacity:1;fill-rule:nonzero;stroke:none" transform="matrix(1.33333 0 0 -1.33333 304 10.667)"/><path d="M216 96H40v76h176z" style="fill:#e6e6e6;fill-opacity:1;fill-rule:nonzero;stroke:none" transform="matrix(1.33333 0 0 -1.33333 -5.333 272)"/><path d="M212 100H44v72h168z" style="fill:#404040;fill-opacity:1;fill-rule:nonzero;stroke:none" transform="matrix(1.33333 0 0 -1.33333 -5.333 272)"/><path d="M0 0h-52l-4 28H0Z" style="fill:#ccc;fill-opacity:1;fill-rule:nonzero;stroke:none" transform="matrix(1.33333 0 0 -1.33333 122.667 181.333)"/><path d="M0 0h-52v28H4Z" style="fill:#ccc;fill-opacity:1;fill-rule:nonzero;stroke:none" transform="matrix(1.33333 0 0 -1.33333 277.333 181.333)"/><path d="M0 0h-64l-4 24H4Z" style="fill:#333;fill-opacity:1;fill-rule:nonzero;stroke:none" transform="matrix(1.33333 0 0 -1.33333 208 170.667)"/><path d="M160 68H96v8h64z" style="fill:#bfbfbf;fill-opacity:1;fill-rule:nonzero;stroke:none" transform="matrix(1.33333 0 0 -1.33333 -5.333 272)"/><path d="M132 176h-8v12h8z" style="fill:#404040;fill-opacity:1;fill-rule:nonzero;stroke:none" transform="matrix(1.33333 0 0 -1.33333 -5.333 272)"/><path d="M104 176H92v16h12zm88 0h-12v16h12z" style="fill:#999;fill-opacity:1;fill-rule:nonzero;stroke:none" transform="matrix(1.33333 0 0 -1.33333 -5.333 272)"/><g clip-path="url(#c)" transform="matrix(1.33333 0 0 -1.33333 -5.333 272)"><path d="M0 0a6 6 0 0 0-12 0A6 6 0 0 0 0 0" style="fill:#404040;fill-opacity:1;fill-rule:nonzero;stroke:none" transform="translate(120 182)"/><path d="M0 0a6 6 0 0 0-12 0A6 6 0 0 0 0 0" style="fill:#404040;fill-opacity:1;fill-rule:nonzero;stroke:none" transform="translate(176 182)"/><path d="M0 0a2 2 0 1 0-4.001.001A2 2 0 0 0 0 0" style="fill:#404040;fill-opacity:1;fill-rule:nonzero;stroke:none" transform="translate(158 178)"/><path d="M0 0h-60a2 2 0 0 0 0 4H0a2 2 0 0 0 0-4" style="fill:#262626;fill-opacity:1;fill-rule:nonzero;stroke:none" transform="translate(158 80)"/></g></svg>