<svg xmlns="http://www.w3.org/2000/svg" xml:space="preserve" width="331.64" height="298.667" viewBox="0 0 331.64 298.667"><defs><clipPath id="a" clipPathUnits="userSpaceOnUse"><path d="M0 256h256V0H0Z"/></clipPath><clipPath id="b" clipPathUnits="userSpaceOnUse"><path d="M3.635 240h248.73V16H3.635Z"/></clipPath></defs><g clip-path="url(#a)" transform="matrix(1.33333 0 0 -1.33333 -4.847 320)"><g clip-path="url(#b)" style="opacity:.5"><path d="m0 0-11.027 29.404c-1.746 4.658-6.262 7.787-11.236 7.787h-202.456c-4.974 0-9.489-3.129-11.236-7.787L-246.981 0l-.948-2.525.775-2.583 11.663-38.875v-130.826c0-6.617 5.383-12 12-12h204c6.617 0 12 5.383 12 12v131.208L.354-4.378l.448 2.239z" style="fill:#fff;fill-opacity:1;fill-rule:nonzero;stroke:none" transform="translate(251.564 202.81)"/></g><path d="M0 0h-232l11.027 29.404A4 4 0 0 0-217.228 32h202.456a4 4 0 0 0 3.746-2.596z" style="fill:#262626;fill-opacity:1;fill-rule:nonzero;stroke:none" transform="translate(244 200)"/><path d="M0 0h-204a4 4 0 0 0-4 4v132H4V4a4 4 0 0 0-4-4" style="fill:#ccc;fill-opacity:1;fill-rule:nonzero;stroke:none" transform="translate(232 24)"/><path d="M0 0h-212l-12 40H8Z" style="fill:#e6e6e6;fill-opacity:1;fill-rule:nonzero;stroke:none" transform="translate(236 160)"/><path d="M0 0h-144a4 4 0 0 0-4 4v100a4 4 0 0 0 4 4H0a4 4 0 0 0 4-4V4a4 4 0 0 0-4-4" style="fill:#404040;fill-opacity:1;fill-rule:nonzero;stroke:none" transform="translate(220 36)"/><path d="M0 0h-144a4 4 0 0 0-4 4l-3.348 23.434a4 4 0 0 0 3.96 4.566H3.388a4 4 0 0 0 3.96-4.566L4 4a4 4 0 0 0-4-4" style="fill:#404040;fill-opacity:1;fill-rule:nonzero;stroke:none" transform="translate(220 164)"/><path d="M88 132H76v8h12zm16 0H92v8h12zm16 0h-12v8h12zm16 0h-12v8h12zm16 0h-12v8h12zm16 0h-12v8h12zm16 0h-12v8h12zm16 0h-12v8h12zm16 0h-12v8h12zM88 116H76v8h12zm16 0H92v8h12zm16 0h-12v8h12zm16 0h-12v8h12zm16 0h-12v8h12zm16 0h-12v8h12zm16 0h-12v8h12zm16 0h-12v8h12zm16 0h-12v8h12zM88 92H76v8h12zm16 0H92v8h12zm16 0h-12v8h12zm16 0h-12v8h12zm16 0h-12v8h12zm16 0h-12v8h12zm16 0h-12v8h12zm16 0h-12v8h12zm16 0h-12v8h12zM88 60H76v8h12zm16 0H92v8h12zm16 0h-12v8h12zm16 0h-12v8h12zm16 0h-12v8h12zm16 0h-12v8h12zm16 0h-12v8h12zm16 0h-12v8h12zm16 0h-12v8h12zM96 76H84v8h12zm16 0h-12v8h12zm16 0h-12v8h12zm16 0h-12v8h12zm16 0h-12v8h12zm16 0h-12v8h12zm16 0h-12v8h12zm16 0h-12v8h12zm-32-32h-60v8h60z" style="fill:#ccc;fill-opacity:1;fill-rule:nonzero;stroke:none"/><path d="M0 0h-64l-4 16H4Z" style="fill:#262626;fill-opacity:1;fill-rule:nonzero;stroke:none" transform="translate(164 172)"/><path d="M112 44h-4v8h4zm-8 0h-4v8h4zm-8 0h-4v8h4zm-8 0h-4v8h4zm-8 0h-4v8h4zm136 0h-4v8h4zm-8 0h-4v8h4zm-8 0h-4v8h4zm-8 0h-4v8h4zm-8 0h-4v8h4z" style="fill:#666;fill-opacity:1;fill-rule:nonzero;stroke:none"/><path d="M0 0h-4l-4 16h4z" style="fill:#666;fill-opacity:1;fill-rule:nonzero;stroke:none" transform="translate(96 172)"/><path d="M0 0h-4l-4 16h4z" style="fill:#666;fill-opacity:1;fill-rule:nonzero;stroke:none" transform="translate(88 172)"/><path d="M0 0h-4l-4 16h4z" style="fill:#666;fill-opacity:1;fill-rule:nonzero;stroke:none" transform="translate(80 172)"/><path d="M0 0h-4l4 16h4Z" style="fill:#666;fill-opacity:1;fill-rule:nonzero;stroke:none" transform="translate(172 172)"/><path d="M0 0h-4l4 16h4Z" style="fill:#666;fill-opacity:1;fill-rule:nonzero;stroke:none" transform="translate(180 172)"/><path d="M0 0h12l2 8H2Z" style="fill:#ed1c24;fill-opacity:1;fill-rule:nonzero;stroke:none" transform="translate(189 176)"/><path d="m0 0 2 8h-4l-2-8Z" style="fill:#666;fill-opacity:1;fill-rule:nonzero;stroke:none" transform="translate(221 176)"/><path d="m0 0 2 8h-4l-2-8Z" style="fill:#666;fill-opacity:1;fill-rule:nonzero;stroke:none" transform="translate(213 176)"/><path d="m0 0 2 8h-4l-2-8Z" style="fill:#666;fill-opacity:1;fill-rule:nonzero;stroke:none" transform="translate(205 176)"/><path d="m0 0 2 8h-4l-2-8Z" style="fill:#666;fill-opacity:1;fill-rule:nonzero;stroke:none" transform="translate(189 176)"/><path d="M0 0h-4l-4-12h4.178zm8 0H4L.355-12h4.178zm8 0h-4L8.711-12h4.178zm8 0h-4l-2.933-12h4.178zm8 0h-4l-2.578-12H29.6Zm8 0h-4l-2.222-12h4.178zm8 0h-4l-1.867-12h4.178zm8 0h-4l-1.511-12h4.178zm8 0h-4l-1.156-12h4.178zm8 0h-4l-.8-12h4.178zm8 0h-4l-.444-12h4.177zm96 0h-4l3.822-12H180Zm-8 0h-4l3.467-12h4.178zm-8 0h-4l3.111-12h4.178zm-8 0h-4l2.756-12h4.178zm-8 0h-4l2.4-12h4.178zm-8 0h-4l2.045-12h4.178zm-8 0h-4l1.688-12h4.178zm-8 0h-4l1.333-12h4.178zm-8 0h-4l.978-12h4.177zm-8 0h-4l.622-12h4.178zm-8 0h-4l.267-12h4.177zm-7.911-12h-4.178L84 0h4z" style="fill:#191919;fill-opacity:1;fill-rule:nonzero;stroke:none" transform="translate(44 228)"/></g></svg>