<?xml version="1.0" encoding="UTF-8" standalone="no"?>
<svg
   xmlns:dc="http://purl.org/dc/elements/1.1/"
   xmlns:cc="http://creativecommons.org/ns#"
   xmlns:rdf="http://www.w3.org/1999/02/22-rdf-syntax-ns#"
   xmlns:svg="http://www.w3.org/2000/svg"
   xmlns="http://www.w3.org/2000/svg"
   viewBox="0 0 330.66665 202.66665"
   height="202.66666"
   width="330.66666"
   xml:space="preserve"
   id="svg2"
   version="1.1"><metadata
     id="metadata8"><rdf:RDF><cc:Work
         rdf:about=""><dc:format>image/svg+xml</dc:format><dc:type
           rdf:resource="http://purl.org/dc/dcmitype/StillImage" /></cc:Work></rdf:RDF></metadata><defs
     id="defs6"><clipPath
       id="clipPath18"
       clipPathUnits="userSpaceOnUse"><path
         id="path16"
         d="M 0,256 H 256 V 0 H 0 Z" /></clipPath><clipPath
       id="clipPath26"
       clipPathUnits="userSpaceOnUse"><path
         id="path24"
         d="M 4,204 H 252 V 52 H 4 Z" /></clipPath><clipPath
       id="clipPath72"
       clipPathUnits="userSpaceOnUse"><path
         id="path70"
         d="M 0,256 H 256 V 0 H 0 Z" /></clipPath></defs><g
     transform="matrix(1.3333333,0,0,-1.3333333,-5.3333332,271.99999)"
     id="g10"><g
       id="g12"><g
         clip-path="url(#clipPath18)"
         id="g14"><g
           id="g20"><g
             id="g22" /><g
             id="g34"><g
               style="opacity:0.5"
               id="g32"
               clip-path="url(#clipPath26)"><g
                 id="g30"
                 transform="translate(252,204)"><path
                   id="path28"
                   style="fill:#ffffff;fill-opacity:1;fill-rule:nonzero;stroke:none"
                   d="m 0,0 h -8 -232 -8 v -8 -136 -8 h 8 232 8 v 8 136 z" /></g></g></g></g></g></g><path
       id="path36"
       style="fill:#d9d9d9;fill-opacity:1;fill-rule:nonzero;stroke:none"
       d="M 244,60 H 12 v 136 h 232 z" /><g
       transform="translate(232,196)"
       id="g38"><path
         id="path40"
         style="fill:#b3b3b3;fill-opacity:1;fill-rule:nonzero;stroke:none"
         d="m 0,0 v -24 h -16 v -4 H 0 v -100 h -208 v 100 h 16 v 4 h -16 V 0 h -4 v -24 -4 -100 -4 h 4 208 4 v 4 100 4 24 z" /></g><path
       id="path42"
       style="fill:#e6e6e6;fill-opacity:1;fill-rule:nonzero;stroke:none"
       d="M 216,96 H 40 v 76 h 176 z" /><path
       id="path44"
       style="fill:#404040;fill-opacity:1;fill-rule:nonzero;stroke:none"
       d="M 212,100 H 44 v 72 h 168 z" /><g
       transform="translate(96,68)"
       id="g46"><path
         id="path48"
         style="fill:#cccccc;fill-opacity:1;fill-rule:nonzero;stroke:none"
         d="m 0,0 h -52 l -4,28 H 0 Z" /></g><g
       transform="translate(212,68)"
       id="g50"><path
         id="path52"
         style="fill:#cccccc;fill-opacity:1;fill-rule:nonzero;stroke:none"
         d="M 0,0 H -52 V 28 H 4 Z" /></g><g
       transform="translate(160,76)"
       id="g54"><path
         id="path56"
         style="fill:#333333;fill-opacity:1;fill-rule:nonzero;stroke:none"
         d="m 0,0 h -64 l -4,24 H 4 Z" /></g><path
       id="path58"
       style="fill:#bfbfbf;fill-opacity:1;fill-rule:nonzero;stroke:none"
       d="M 160,68 H 96 v 8 h 64 z" /><path
       id="path60"
       style="fill:#404040;fill-opacity:1;fill-rule:nonzero;stroke:none"
       d="m 132,176 h -8 v 12 h 8 z" /><path
       id="path62"
       style="fill:#999999;fill-opacity:1;fill-rule:nonzero;stroke:none"
       d="M 104,176 H 92 v 16 h 12 z" /><path
       id="path64"
       style="fill:#999999;fill-opacity:1;fill-rule:nonzero;stroke:none"
       d="m 192,176 h -12 v 16 h 12 z" /><g
       id="g66"><g
         clip-path="url(#clipPath72)"
         id="g68"><g
           transform="translate(120,182)"
           id="g74"><path
             id="path76"
             style="fill:#404040;fill-opacity:1;fill-rule:nonzero;stroke:none"
             d="m 0,0 c 0,-3.313 -2.687,-6 -6,-6 -3.313,0 -6,2.687 -6,6 0,3.313 2.687,6 6,6 3.313,0 6,-2.687 6,-6" /></g><g
           transform="translate(176,182)"
           id="g78"><path
             id="path80"
             style="fill:#404040;fill-opacity:1;fill-rule:nonzero;stroke:none"
             d="m 0,0 c 0,-3.313 -2.687,-6 -6,-6 -3.313,0 -6,2.687 -6,6 0,3.313 2.687,6 6,6 3.313,0 6,-2.687 6,-6" /></g><g
           transform="translate(158,178)"
           id="g82"><path
             id="path84"
             style="fill:#404040;fill-opacity:1;fill-rule:nonzero;stroke:none"
             d="m 0,0 c 0,-1.104 -0.896,-2 -2,-2 -1.104,0 -2,0.896 -2,2 0,1.104 0.896,2 2,2 1.104,0 2,-0.896 2,-2" /></g><g
           transform="translate(158,80)"
           id="g86"><path
             id="path88"
             style="fill:#262626;fill-opacity:1;fill-rule:nonzero;stroke:none"
             d="m 0,0 h -60 c -1.104,0 -2,0.896 -2,2 0,1.104 0.896,2 2,2 H 0 C 1.104,4 2,3.104 2,2 2,0.896 1.104,0 0,0" /></g></g></g></g></svg>