<svg xmlns="http://www.w3.org/2000/svg" xml:space="preserve" width="330.667" height="330.667" viewBox="0 0 330.667 330.667"><defs><clipPath id="a" clipPathUnits="userSpaceOnUse"><path d="M0 256h256V0H0Z"/></clipPath><clipPath id="b" clipPathUnits="userSpaceOnUse"><path d="M4 252h248V4H4Z"/></clipPath></defs><g clip-path="url(#a)" transform="matrix(1.33333 0 0 -1.33333 -5.333 336)"><g clip-path="url(#b)" style="opacity:.5"><path d="M0 0h-228c-5.514 0-10-4.486-10-10v-228c0-5.514 4.486-10 10-10H0c5.514 0 10 4.486 10 10v228C10-4.486 5.514 0 0 0" style="fill:#fff;fill-opacity:1;fill-rule:nonzero;stroke:none" transform="translate(242 252)"/></g><path d="M0 0h-228a2 2 0 0 0-2 2v228a2 2 0 0 0 2 2H0a2 2 0 0 0 2-2V2a2 2 0 0 0-2-2" style="fill:#262626;fill-opacity:1;fill-rule:nonzero;stroke:none" transform="translate(242 12)"/><path d="M236 20H20v216h216z" style="fill:#191919;fill-opacity:1;fill-rule:nonzero;stroke:none"/><path d="M228 24H28v204h200z" style="fill:#262626;fill-opacity:1;fill-rule:nonzero;stroke:none"/><path d="M0 0a6 6 0 0 0-12 0A6 6 0 0 0 0 0" style="fill:#333;fill-opacity:1;fill-rule:nonzero;stroke:none" transform="translate(48 214)"/><path d="M0 0a6 6 0 0 0-12 0A6 6 0 0 0 0 0" style="fill:#333;fill-opacity:1;fill-rule:nonzero;stroke:none" transform="translate(220 214)"/><path d="M0 0a6 6 0 0 0-12 0A6 6 0 0 0 0 0" style="fill:#333;fill-opacity:1;fill-rule:nonzero;stroke:none" transform="translate(48 38)"/><path d="M0 0a6 6 0 0 0-12 0A6 6 0 0 0 0 0" style="fill:#333;fill-opacity:1;fill-rule:nonzero;stroke:none" transform="translate(220 38)"/><path d="M0 0c-15.464 0-28-12.536-28-28s12.536-28 28-28 28 12.536 28 28S15.464 0 0 0m0-4c13.233 0 24-10.766 24-24S13.233-52 0-52s-24 10.767-24 24S-13.234-4 0-4" style="fill:#191919;fill-opacity:1;fill-rule:nonzero;stroke:none" transform="translate(128 156)"/><path d="M0 0a3.98 3.98 0 0 0 1.063-2.698v-132a4 4 0 0 0-4-4h-128a3.98 3.98 0 0 0-2.936 1.303l-5.588-5.736a11.96 11.96 0 0 1 8.524-3.567h128c6.618 0 12 5.383 12 12v132c0 3.285-1.329 6.264-3.475 8.434z" style="fill:#191919;fill-opacity:1;fill-rule:nonzero;stroke:none" transform="translate(194.936 194.698)"/><path d="M0 0a3.98 3.98 0 0 0-1.063 2.698v132a4 4 0 0 0 4 4h128a3.98 3.98 0 0 0 2.936-1.302l5.588 5.735a11.96 11.96 0 0 1-8.524 3.567h-128c-6.617 0-12-5.383-12-12v-132c0-3.285 1.329-6.264 3.475-8.433z" style="fill:#333;fill-opacity:1;fill-rule:nonzero;stroke:none" transform="translate(61.063 57.735)"/></g></svg>