<?xml version="1.0" encoding="UTF-8" standalone="no"?>
<svg
   xmlns:dc="http://purl.org/dc/elements/1.1/"
   xmlns:cc="http://creativecommons.org/ns#"
   xmlns:rdf="http://www.w3.org/1999/02/22-rdf-syntax-ns#"
   xmlns:svg="http://www.w3.org/2000/svg"
   xmlns="http://www.w3.org/2000/svg"
   viewBox="0 0 330.66665 330.66665"
   height="330.66666"
   width="330.66666"
   xml:space="preserve"
   id="svg2"
   version="1.1"><metadata
     id="metadata8"><rdf:RDF><cc:Work
         rdf:about=""><dc:format>image/svg+xml</dc:format><dc:type
           rdf:resource="http://purl.org/dc/dcmitype/StillImage" /></cc:Work></rdf:RDF></metadata><defs
     id="defs6"><clipPath
       id="clipPath18"
       clipPathUnits="userSpaceOnUse"><path
         id="path16"
         d="M 0,256 H 256 V 0 H 0 Z" /></clipPath><clipPath
       id="clipPath26"
       clipPathUnits="userSpaceOnUse"><path
         id="path24"
         d="M 4,252 H 252 V 4 H 4 Z" /></clipPath></defs><g
     transform="matrix(1.3333333,0,0,-1.3333333,-5.3333332,335.99999)"
     id="g10"><g
       id="g12"><g
         clip-path="url(#clipPath18)"
         id="g14"><g
           id="g20"><g
             id="g22" /><g
             id="g34"><g
               style="opacity:0.5"
               id="g32"
               clip-path="url(#clipPath26)"><g
                 id="g30"
                 transform="translate(242,252)"><path
                   id="path28"
                   style="fill:#ffffff;fill-opacity:1;fill-rule:nonzero;stroke:none"
                   d="m 0,0 h -228 c -5.514,0 -10,-4.486 -10,-10 v -228 c 0,-5.514 4.486,-10 10,-10 H 0 c 5.514,0 10,4.486 10,10 V -10 C 10,-4.486 5.514,0 0,0" /></g></g></g></g><g
           transform="translate(242,12)"
           id="g36"><path
             id="path38"
             style="fill:#262626;fill-opacity:1;fill-rule:nonzero;stroke:none"
             d="m 0,0 h -228 c -1.104,0 -2,0.896 -2,2 v 228 c 0,1.104 0.896,2 2,2 H 0 c 1.104,0 2,-0.896 2,-2 V 2 C 2,0.896 1.104,0 0,0" /></g><path
           id="path40"
           style="fill:#191919;fill-opacity:1;fill-rule:nonzero;stroke:none"
           d="M 236,20 H 20 v 216 h 216 z" /><path
           id="path42"
           style="fill:#262626;fill-opacity:1;fill-rule:nonzero;stroke:none"
           d="M 228,24 H 28 v 204 h 200 z" /><g
           transform="translate(48,214)"
           id="g44"><path
             id="path46"
             style="fill:#333333;fill-opacity:1;fill-rule:nonzero;stroke:none"
             d="m 0,0 c 0,-3.313 -2.687,-6 -6,-6 -3.313,0 -6,2.687 -6,6 0,3.313 2.687,6 6,6 3.313,0 6,-2.687 6,-6" /></g><g
           transform="translate(220,214)"
           id="g48"><path
             id="path50"
             style="fill:#333333;fill-opacity:1;fill-rule:nonzero;stroke:none"
             d="m 0,0 c 0,-3.313 -2.687,-6 -6,-6 -3.313,0 -6,2.687 -6,6 0,3.313 2.687,6 6,6 3.313,0 6,-2.687 6,-6" /></g><g
           transform="translate(48,38)"
           id="g52"><path
             id="path54"
             style="fill:#333333;fill-opacity:1;fill-rule:nonzero;stroke:none"
             d="m 0,0 c 0,-3.313 -2.687,-6 -6,-6 -3.313,0 -6,2.687 -6,6 0,3.313 2.687,6 6,6 3.313,0 6,-2.687 6,-6" /></g><g
           transform="translate(220,38)"
           id="g56"><path
             id="path58"
             style="fill:#333333;fill-opacity:1;fill-rule:nonzero;stroke:none"
             d="m 0,0 c 0,-3.313 -2.687,-6 -6,-6 -3.313,0 -6,2.687 -6,6 0,3.313 2.687,6 6,6 3.313,0 6,-2.687 6,-6" /></g><g
           transform="translate(128,156)"
           id="g60"><path
             id="path62"
             style="fill:#191919;fill-opacity:1;fill-rule:nonzero;stroke:none"
             d="m 0,0 c -15.464,0 -28,-12.536 -28,-28 0,-15.464 12.536,-28 28,-28 15.464,0 28,12.536 28,28 C 28,-12.536 15.464,0 0,0 m 0,-4 c 13.233,0 24,-10.766 24,-24 0,-13.233 -10.767,-24 -24,-24 -13.234,0 -24,10.767 -24,24 0,13.234 10.766,24 24,24" /></g><g
           transform="translate(194.9365,194.6978)"
           id="g64"><path
             id="path66"
             style="fill:#191919;fill-opacity:1;fill-rule:nonzero;stroke:none"
             d="m 0,0 c 0.654,-0.712 1.063,-1.654 1.063,-2.698 v -132 c 0,-2.209 -1.791,-4 -4,-4 h -128 c -1.165,0 -2.205,0.507 -2.936,1.303 l -5.588,-5.736 c 2.176,-2.2 5.193,-3.567 8.524,-3.567 h 128 c 6.618,0 12,5.383 12,12 v 132 c 0,3.285 -1.329,6.264 -3.475,8.434 z" /></g><g
           transform="translate(61.0635,57.7354)"
           id="g68"><path
             id="path70"
             style="fill:#333333;fill-opacity:1;fill-rule:nonzero;stroke:none"
             d="m 0,0 c -0.654,0.713 -1.063,1.654 -1.063,2.698 v 132 c 0,2.209 1.791,4 4,4 h 128 c 1.166,0 2.205,-0.507 2.936,-1.302 l 5.588,5.735 c -2.176,2.2 -5.192,3.567 -8.524,3.567 h -128 c -6.617,0 -12,-5.383 -12,-12 v -132 c 0,-3.285 1.329,-6.264 3.475,-8.433 z" /></g></g></g></g></svg>