<svg xmlns="http://www.w3.org/2000/svg" xml:space="preserve" viewBox="0 0 256 256"><path d="M242 56H14C8.486 56 4 60.486 4 66v124c0 5.514 4.486 10 10 10h228c5.514 0 10-4.486 10-10V66c0-5.514-4.486-10-10-10" style="opacity:.5;fill:#fff"/><path d="M242 192H14a2 2 0 0 1-2-2V66a2 2 0 0 1 2-2h228a2 2 0 0 1 2 2v124a2 2 0 0 1-2 2" style="fill:#c4c0aa"/><path d="M20 68h216v12H20zm116 112H24a4 4 0 0 1-4-4V92a4 4 0 0 1 4-4h112a4 4 0 0 1 4 4v84a4 4 0 0 1-4 4m96-8h-76a4 4 0 0 1-4-4V92a4 4 0 0 1 4-4h76a4 4 0 0 1 4 4v76a4 4 0 0 1-4 4" style="fill:#262626"/><path d="M148 180V88l-4 100H12v2a2 2 0 0 0 2 2h228a2 2 0 0 0 2-2v-10z" style="fill:#a6a390"/><path d="M44 100h12v12H44zm16 0h12v12H60zm16 0h12v12H76zm16 0h12v12H92zm16 0h12v12h-12zm-64 16h12v12H44zm16 0h12v12H60zm16 0h12v12H76zm16 0h12v12H92zm16 0h12v12h-12zm-8 36h20v12h-20z" style="fill:#e77f22"/><circle cx="42" cy="158" r="2" style="fill:#b80000"/><circle cx="58" cy="158" r="2"/><circle cx="70" cy="158" r="2"/><circle cx="82" cy="158" r="2"/><path d="M156 96h76v8h-76z"/><path d="M156 104h76v8h-76zm0 13h76v2h-76zm0 5h76v2h-76zm0 5h76v2h-76zm0 5h76v2h-76zm0 5h76v2h-76zm0 5h76v2h-76zm0 5h76v2h-76zm0 5h76v2h-76zm0 5h76v2h-76z" style="fill:#333"/></svg>