<svg xmlns="http://www.w3.org/2000/svg" xml:space="preserve" viewBox="0 0 256 256"><path d="M239 16h-19.316a11.945 11.945 0 0 0-11.321-8H43.724c-5.166 0-9.647 3.329-11.311 8H17C9.832 16 4 21.832 4 29v203c0 6.617 5.383 12 12 12h179.063c2.199 2.454 5.391 4 8.937 4h20c3.546 0 6.738-1.546 8.937-4H240c6.617 0 12-5.383 12-12V29c0-7.168-5.832-13-13-13" style="opacity:.5;fill:#fff"/><path d="M12 232V29a5 5 0 0 1 5-5h222a5 5 0 0 1 5 5v203z" style="fill:#d9d4bc"/><path d="M12 224v8a4 4 0 0 0 4 4h156v-4h56v4h12a4 4 0 0 0 4-4v-8z" style="fill:#c4c0aa"/><ellipse cx="128" cy="208" rx="100" ry="8" style="fill:#999"/><path d="M168 228h64v8h-64z" style="fill:#a6a390"/><path d="M224 240h-20a4 4 0 0 1-4-4v-4a4 4 0 0 1 4-4h20a4 4 0 0 1 4 4v4a4 4 0 0 1-4 4" style="fill:#d9d4bc"/><path d="M208.363 16H43.724a4 4 0 0 0-3.99 3.715l-11.429 160a4 4 0 0 0 3.99 4.285H223.6a4 4 0 0 0 3.982-4.379l-15.238-160A4 4 0 0 0 208.363 16" style="fill:#a6a390"/><path d="M232 212H24a4 4 0 0 1-4-4v-28a4 4 0 0 1 4-4h208a4 4 0 0 1 4 4v28a4 4 0 0 1-4 4M48 16h4v24h-4zm8 0h4v24h-4zm8 0h4v24h-4zm8 0h4v24h-4zm8 0h4v24h-4zm8 0h4v24h-4zm8 0h4v24h-4zm8 0h4v24h-4zm8 0h4v24h-4zm8 0h4v24h-4zm8 0h4v24h-4zm8 0h4v24h-4zm8 0h4v24h-4zm8 0h4v24h-4zm8 0h4v24h-4zm8 0h4v24h-4zm8 0h4v24h-4zm8 0h4v24h-4zm8 0h4v24h-4zm8 0h4v24h-4z" style="fill:#c4c0aa"/></svg>