<?xml version="1.0" encoding="iso-8859-1"?>
<!-- Generator: Adobe Illustrator 27.8.1, SVG Export Plug-In . SVG Version: 6.00 Build 0)  -->
<svg version="1.1" id="Layer_1" xmlns="http://www.w3.org/2000/svg" xmlns:xlink="http://www.w3.org/1999/xlink" x="0px" y="0px"
	 viewBox="0 0 256 256" style="enable-background:new 0 0 256 256;" xml:space="preserve">
<path style="opacity:0.5;fill:#FFFFFF;" d="M239,16h-19.316c-1.648-4.714-6.103-8-11.321-8H43.724c-5.166,0-9.647,3.329-11.311,8H17
	C9.832,16,4,21.832,4,29v195v8c0,6.617,5.383,12,12,12h152h4h23.063c2.199,2.454,5.391,4,8.937,4h20c3.546,0,6.738-1.546,8.937-4
	H240c6.617,0,12-5.383,12-12v-8V29C252,21.832,246.168,16,239,16z"/>
<path style="fill:#D9D4BC;" d="M12,232V29c0-2.761,2.239-5,5-5h222c2.761,0,5,2.239,5,5v203H12z"/>
<path style="fill:#C4C0AA;" d="M12,224v8c0,2.209,1.791,4,4,4h156v-4h28h28v4h12c2.209,0,4-1.791,4-4v-8H12z"/>
<ellipse style="fill:#999999;" cx="128" cy="208" rx="100" ry="8"/>
<rect x="168" y="228" style="fill:#A6A390;" width="64" height="8"/>
<path style="fill:#D9D4BC;" d="M224,240h-20c-2.209,0-4-1.791-4-4v-4c0-2.209,1.791-4,4-4h20c2.209,0,4,1.791,4,4v4
	C228,238.209,226.209,240,224,240z"/>
<path style="fill:#A6A390;" d="M208.363,16H43.724c-2.099,0-3.84,1.622-3.99,3.715l-11.429,160c-0.165,2.315,1.668,4.285,3.99,4.285
	h191.305c2.359,0,4.206-2.031,3.982-4.379l-15.238-160C212.149,17.568,210.425,16,208.363,16z"/>
<path style="fill:#C4C0AA;" d="M232,212H24c-2.209,0-4-1.791-4-4v-28c0-2.209,1.791-4,4-4h208c2.209,0,4,1.791,4,4v28
	C236,210.209,234.209,212,232,212z"/>
<rect x="48" y="16" style="fill:#C4C0AA;" width="4" height="24"/>
<rect x="56" y="16" style="fill:#C4C0AA;" width="4" height="24"/>
<rect x="64" y="16" style="fill:#C4C0AA;" width="4" height="24"/>
<rect x="72" y="16" style="fill:#C4C0AA;" width="4" height="24"/>
<rect x="80" y="16" style="fill:#C4C0AA;" width="4" height="24"/>
<rect x="88" y="16" style="fill:#C4C0AA;" width="4" height="24"/>
<rect x="96" y="16" style="fill:#C4C0AA;" width="4" height="24"/>
<rect x="104" y="16" style="fill:#C4C0AA;" width="4" height="24"/>
<rect x="112" y="16" style="fill:#C4C0AA;" width="4" height="24"/>
<rect x="120" y="16" style="fill:#C4C0AA;" width="4" height="24"/>
<rect x="128" y="16" style="fill:#C4C0AA;" width="4" height="24"/>
<rect x="136" y="16" style="fill:#C4C0AA;" width="4" height="24"/>
<rect x="144" y="16" style="fill:#C4C0AA;" width="4" height="24"/>
<rect x="152" y="16" style="fill:#C4C0AA;" width="4" height="24"/>
<rect x="160" y="16" style="fill:#C4C0AA;" width="4" height="24"/>
<rect x="168" y="16" style="fill:#C4C0AA;" width="4" height="24"/>
<rect x="176" y="16" style="fill:#C4C0AA;" width="4" height="24"/>
<rect x="184" y="16" style="fill:#C4C0AA;" width="4" height="24"/>
<rect x="192" y="16" style="fill:#C4C0AA;" width="4" height="24"/>
<rect x="200" y="16" style="fill:#C4C0AA;" width="4" height="24"/>
</svg>
