<svg xmlns="http://www.w3.org/2000/svg" xml:space="preserve" width="176" height="330.667" viewBox="0 0 176 330.667"><defs><clipPath id="a" clipPathUnits="userSpaceOnUse"><path d="M0 256h256V0H0Z"/></clipPath><clipPath id="b" clipPathUnits="userSpaceOnUse"><path d="M62 252h132V4H62Z"/></clipPath><clipPath id="c" clipPathUnits="userSpaceOnUse"><path d="M0 256h256V0H0Z"/></clipPath></defs><g clip-path="url(#a)" transform="matrix(1.33333 0 0 -1.33333 -82.667 336)"><g clip-path="url(#b)" style="opacity:.5"><path d="M0 0h-54a7.97 7.97 0 0 1-4-1.07A7.97 7.97 0 0 1-62 0h-54a8 8 0 0 1-8-8v-232a8 8 0 0 1 8-8h54c1.457 0 2.823.39 4 1.07a7.97 7.97 0 0 1 4-1.07H0a8 8 0 0 1 8 8V-8a8 8 0 0 1-8 8" style="fill:#fff;fill-opacity:1;fill-rule:nonzero;stroke:none" transform="translate(186 252)"/></g></g><path d="M124 12H70v232h54zm62 0h-54v232h54z" style="fill:#dcdcdc;fill-opacity:1;fill-rule:nonzero;stroke:none" transform="matrix(1.33333 0 0 -1.33333 -82.667 336)"/><path d="M132 16h-8v224h8z" style="fill:#ccc;fill-opacity:1;fill-rule:nonzero;stroke:none" transform="matrix(1.33333 0 0 -1.33333 -82.667 336)"/><path d="M186 164H70v4h116z" style="fill:#bfbfbf;fill-opacity:1;fill-rule:nonzero;stroke:none" transform="matrix(1.33333 0 0 -1.33333 -82.667 336)"/><path d="M132 48h-8v32h8z" style="fill:#404040;fill-opacity:1;fill-rule:nonzero;stroke:none" transform="matrix(1.33333 0 0 -1.33333 -82.667 336)"/><path d="M80 176h-4v60h4zm8 0h-4v60h4zm8 0h-4v60h4zm8 0h-4v60h4zm8 0h-4v60h4zm8 0h-4v60h4zm20 0h-4v60h4zm8 0h-4v60h4zm8 0h-4v60h4zm8 0h-4v60h4zm8 0h-4v60h4z" style="fill:#bfbfbf;fill-opacity:1;fill-rule:nonzero;stroke:none" transform="matrix(1.33333 0 0 -1.33333 -82.667 336)"/><g clip-path="url(#c)" transform="matrix(1.33333 0 0 -1.33333 -82.667 336)"><path d="M0 0c3.883-6.784 27.79-16 56-16s52.117 9.216 56 16z" style="fill:#ccc;fill-opacity:1;fill-rule:nonzero;stroke:none" transform="translate(72 48)"/><path d="M180 176h-4v60h4zm6-132H70v4h116z" style="fill:#bfbfbf;fill-opacity:1;fill-rule:nonzero;stroke:none"/><path d="m0 0-2.612 10.684A1 1 0 0 0-1.664 12h5.225a1 1 0 0 0 .949-1.316L1.897 0C1.594-.912.304-.912 0 0" style="fill:#e6e6e6;fill-opacity:1;fill-rule:nonzero;stroke:none" transform="translate(127.051 36)"/><path d="M0 0a1 1 0 0 0 .949-1.316L-1.664-12a.98.98 0 0 0-.948-.684.98.98 0 0 0-.949.684L-6.174-1.316A1 1 0 0 0-5.225 0h-2.813a3 3 0 0 1-.064-1.85l2.598-10.625.02-.08.026-.078a3 3 0 0 1 2.846-2.051c1.293 0 2.437.825 2.845 2.051l.027.078.019.08L2.878-1.85c.18.613.144 1.258-.065 1.85Z" style="fill:#bfbfbf;fill-opacity:1;fill-rule:nonzero;stroke:none" transform="translate(130.612 48)"/></g></svg>