<?xml version="1.0" encoding="UTF-8" standalone="no"?>
<svg
   xmlns:dc="http://purl.org/dc/elements/1.1/"
   xmlns:cc="http://creativecommons.org/ns#"
   xmlns:rdf="http://www.w3.org/1999/02/22-rdf-syntax-ns#"
   xmlns:svg="http://www.w3.org/2000/svg"
   xmlns="http://www.w3.org/2000/svg"
   viewBox="0 0 176 330.66665"
   height="330.66666"
   width="176"
   xml:space="preserve"
   id="svg2"
   version="1.1"><metadata
     id="metadata8"><rdf:RDF><cc:Work
         rdf:about=""><dc:format>image/svg+xml</dc:format><dc:type
           rdf:resource="http://purl.org/dc/dcmitype/StillImage" /></cc:Work></rdf:RDF></metadata><defs
     id="defs6"><clipPath
       id="clipPath18"
       clipPathUnits="userSpaceOnUse"><path
         id="path16"
         d="M 0,256 H 256 V 0 H 0 Z" /></clipPath><clipPath
       id="clipPath26"
       clipPathUnits="userSpaceOnUse"><path
         id="path24"
         d="M 62,252 H 194 V 4 H 62 Z" /></clipPath><clipPath
       id="clipPath74"
       clipPathUnits="userSpaceOnUse"><path
         id="path72"
         d="M 0,256 H 256 V 0 H 0 Z" /></clipPath></defs><g
     transform="matrix(1.3333333,0,0,-1.3333333,-82.666665,335.99999)"
     id="g10"><g
       id="g12"><g
         clip-path="url(#clipPath18)"
         id="g14"><g
           id="g20"><g
             id="g22" /><g
             id="g34"><g
               style="opacity:0.5"
               id="g32"
               clip-path="url(#clipPath26)"><g
                 id="g30"
                 transform="translate(186,252)"><path
                   id="path28"
                   style="fill:#ffffff;fill-opacity:1;fill-rule:nonzero;stroke:none"
                   d="m 0,0 h -54 c -1.457,0 -2.823,-0.39 -4,-1.07 -1.177,0.68 -2.543,1.07 -4,1.07 h -54 c -4.418,0 -8,-3.582 -8,-8 v -76 -4 -116 -4 -32 c 0,-4.418 3.582,-8 8,-8 h 54 c 1.457,0 2.823,0.39 4,1.07 1.177,-0.68 2.543,-1.07 4,-1.07 H 0 c 4.418,0 8,3.582 8,8 v 32 4 116 4 76 C 8,-3.582 4.418,0 0,0" /></g></g></g></g></g></g><path
       id="path36"
       style="fill:#dcdcdc;fill-opacity:1;fill-rule:nonzero;stroke:none"
       d="M 124,12 H 70 v 232 h 54 z" /><path
       id="path38"
       style="fill:#dcdcdc;fill-opacity:1;fill-rule:nonzero;stroke:none"
       d="m 186,12 h -54 v 232 h 54 z" /><path
       id="path40"
       style="fill:#cccccc;fill-opacity:1;fill-rule:nonzero;stroke:none"
       d="m 132,16 h -8 v 224 h 8 z" /><path
       id="path42"
       style="fill:#bfbfbf;fill-opacity:1;fill-rule:nonzero;stroke:none"
       d="M 186,164 H 70 v 4 h 116 z" /><path
       id="path44"
       style="fill:#404040;fill-opacity:1;fill-rule:nonzero;stroke:none"
       d="m 132,48 h -8 v 32 h 8 z" /><path
       id="path46"
       style="fill:#bfbfbf;fill-opacity:1;fill-rule:nonzero;stroke:none"
       d="m 80,176 h -4 v 60 h 4 z" /><path
       id="path48"
       style="fill:#bfbfbf;fill-opacity:1;fill-rule:nonzero;stroke:none"
       d="m 88,176 h -4 v 60 h 4 z" /><path
       id="path50"
       style="fill:#bfbfbf;fill-opacity:1;fill-rule:nonzero;stroke:none"
       d="m 96,176 h -4 v 60 h 4 z" /><path
       id="path52"
       style="fill:#bfbfbf;fill-opacity:1;fill-rule:nonzero;stroke:none"
       d="m 104,176 h -4 v 60 h 4 z" /><path
       id="path54"
       style="fill:#bfbfbf;fill-opacity:1;fill-rule:nonzero;stroke:none"
       d="m 112,176 h -4 v 60 h 4 z" /><path
       id="path56"
       style="fill:#bfbfbf;fill-opacity:1;fill-rule:nonzero;stroke:none"
       d="m 120,176 h -4 v 60 h 4 z" /><path
       id="path58"
       style="fill:#bfbfbf;fill-opacity:1;fill-rule:nonzero;stroke:none"
       d="m 140,176 h -4 v 60 h 4 z" /><path
       id="path60"
       style="fill:#bfbfbf;fill-opacity:1;fill-rule:nonzero;stroke:none"
       d="m 148,176 h -4 v 60 h 4 z" /><path
       id="path62"
       style="fill:#bfbfbf;fill-opacity:1;fill-rule:nonzero;stroke:none"
       d="m 156,176 h -4 v 60 h 4 z" /><path
       id="path64"
       style="fill:#bfbfbf;fill-opacity:1;fill-rule:nonzero;stroke:none"
       d="m 164,176 h -4 v 60 h 4 z" /><path
       id="path66"
       style="fill:#bfbfbf;fill-opacity:1;fill-rule:nonzero;stroke:none"
       d="m 172,176 h -4 v 60 h 4 z" /><g
       id="g68"><g
         clip-path="url(#clipPath74)"
         id="g70"><g
           transform="translate(72,48)"
           id="g76"><path
             id="path78"
             style="fill:#cccccc;fill-opacity:1;fill-rule:nonzero;stroke:none"
             d="m 0,0 c 3.883,-6.784 27.79,-16 56,-16 28.211,0 52.117,9.216 56,16 z" /></g><path
           id="path80"
           style="fill:#bfbfbf;fill-opacity:1;fill-rule:nonzero;stroke:none"
           d="m 180,176 h -4 v 60 h 4 z" /><path
           id="path82"
           style="fill:#bfbfbf;fill-opacity:1;fill-rule:nonzero;stroke:none"
           d="M 186,44 H 70 v 4 h 116 z" /><g
           transform="translate(127.0513,36)"
           id="g84"><path
             id="path86"
             style="fill:#e6e6e6;fill-opacity:1;fill-rule:nonzero;stroke:none"
             d="M 0,0 -2.612,10.684 C -2.829,11.331 -2.346,12 -1.664,12 H 3.561 C 4.244,12 4.726,11.331 4.51,10.684 L 1.897,0 C 1.594,-0.912 0.304,-0.912 0,0" /></g><g
           transform="translate(130.6123,48)"
           id="g88"><path
             id="path90"
             style="fill:#bfbfbf;fill-opacity:1;fill-rule:nonzero;stroke:none"
             d="M 0,0 C 0.683,0 1.165,-0.669 0.949,-1.316 L -1.664,-12 c -0.151,-0.456 -0.55,-0.684 -0.948,-0.684 -0.399,0 -0.797,0.228 -0.949,0.684 L -6.174,-1.316 C -6.39,-0.669 -5.907,0 -5.225,0 h -2.813 c -0.209,-0.592 -0.245,-1.237 -0.064,-1.85 l 2.598,-10.625 0.02,-0.08 0.026,-0.078 c 0.409,-1.226 1.552,-2.051 2.846,-2.051 1.293,0 2.437,0.825 2.845,2.051 l 0.027,0.078 0.019,0.08 2.599,10.625 C 3.058,-1.237 3.022,-0.592 2.813,0 Z" /></g></g></g></g></svg>