<svg xmlns="http://www.w3.org/2000/svg" xml:space="preserve" width="330.667" height="330.667" viewBox="0 0 330.667 330.667"><defs><clipPath id="a" clipPathUnits="userSpaceOnUse"><path d="M0 256h256V0H0Z"/></clipPath><clipPath id="b" clipPathUnits="userSpaceOnUse"><path d="M4 252h248V4H4Z"/></clipPath></defs><g clip-path="url(#a)" transform="matrix(1.33333 0 0 -1.33333 -5.333 336)"><g clip-path="url(#b)" style="opacity:.5"><path d="M0 0h-208c-11.028 0-20-8.972-20-20v-212c0-6.617 5.383-12 12-12h17.07a8 8 0 0 1 6.93-4h4a8 8 0 0 1 6.93 4H8c6.617 0 12 5.383 12 12v212C20-8.972 11.028 0 0 0" style="fill:#fff;fill-opacity:1;fill-rule:nonzero;stroke:none" transform="translate(232 252)"/></g><path d="M0 0h-224c-2.2 0-4 1.8-4 4v212c0 6.6 5.4 12 12 12H-8c6.6 0 12-5.4 12-12V4c0-2.2-1.8-4-4-4" style="fill:#e6e6e6;fill-opacity:1;fill-rule:nonzero;stroke:none" transform="translate(240 16)"/><path d="M0 0h-216c-2.2 0-4 1.8-4 4v208.069c0 6.6 5.4 12 12 12H-8c6.6 0 12-5.4 12-12V4c0-2.2-1.8-4-4-4" style="fill:#d9d9d9;fill-opacity:1;fill-rule:nonzero;stroke:none" transform="translate(236 16)"/><path d="M64 76H16v4h48zm0-8H16v4h48zm0-8H16v4h48zm0-8H16v4h48zm0-8H16v4h48zm176 32h-48v4h48zm0-8h-48v4h48zm0-8h-48v4h48zm0-8h-48v4h48zm0-8h-48v4h48zM96 40h-2v64h2zm8 24h-2v40h2zm8 0h-2v40h2zm8 0h-2v40h2zm20 0h-2v40h2z" style="fill:#bfbfbf;fill-opacity:1;fill-rule:nonzero;stroke:none"/><path d="M138 64h-2v40h2zm-20 0h-2v40h2zm-8 0h-2v40h2zm-8 0h-2v40h2zm-8-24h-2v64h2z" style="fill:#e6e6e6;fill-opacity:1;fill-rule:nonzero;stroke:none"/><path d="M88 40h-2v64h2z" style="fill:#bfbfbf;fill-opacity:1;fill-rule:nonzero;stroke:none"/><path d="M86 40h-2v64h2z" style="fill:#e6e6e6;fill-opacity:1;fill-rule:nonzero;stroke:none"/><path d="M88 240.069h-4V244h4zm8 0h-4V244h4zm8 0h-4V244h4zm8 0h-4V244h4zm8 0h-4V244h4zm8 0h-4V244h4zm8 0h-4V244h4zm8 0h-4V244h4zm8 0h-4V244h4zm8 0h-4V244h4zm8 0h-4V244h4zm8 0h-4V244h4zm8 0h-4V244h4zm8 0h-4V244h4zm-112 0h-4V244h4zm-8 0h-4V244h4zm-8 0h-4V244h4z" style="fill:#ccc;fill-opacity:1;fill-rule:nonzero;stroke:none"/><path d="M148 64h-2v40h2zm8 0h-2v40h2zm8-24h-2v64h2z" style="fill:#bfbfbf;fill-opacity:1;fill-rule:nonzero;stroke:none"/><path d="M0 0h-8v20a4 4 0 0 0 8 0z" style="fill:#ccc;fill-opacity:1;fill-rule:nonzero;stroke:none" transform="translate(220 16)"/><path d="M0 0h-8v20a4 4 0 0 0 8 0z" style="fill:#ccc;fill-opacity:1;fill-rule:nonzero;stroke:none" transform="translate(44 16)"/><path d="M0 0h-24v12a4 4 0 0 0 4 4h16a4 4 0 0 0 4-4z" style="fill:#ccc;fill-opacity:1;fill-rule:nonzero;stroke:none" transform="translate(52 16)"/><path d="M146 64h-2v40h2zm8 0h-2v40h2zm8-24h-2v64h2z" style="fill:#e6e6e6;fill-opacity:1;fill-rule:nonzero;stroke:none"/><path d="M172 40h-2v64h2z" style="fill:#bfbfbf;fill-opacity:1;fill-rule:nonzero;stroke:none"/><path d="M170 40h-2v64h2z" style="fill:#e6e6e6;fill-opacity:1;fill-rule:nonzero;stroke:none"/><path d="m0 0-4 8c-.169.339-.532.508-.895.508v-36.955h2V1.316l1.106-2.211A1 1 0 0 1 0 0" style="fill:#bfbfbf;fill-opacity:1;fill-rule:nonzero;stroke:none" transform="translate(132.894 92.447)"/><path d="m0 0 4 8c.169.339.532.509.895.509v-36.956h-2V1.316L1.789-.895A1 1 0 0 0 0 0" style="fill:#e6e6e6;fill-opacity:1;fill-rule:nonzero;stroke:none" transform="translate(123.106 92.447)"/><path d="M0 0c-15.464 0-28-12.536-28-28v-16h56v16C28-12.536 15.464 0 0 0" style="fill:#bfbfbf;fill-opacity:1;fill-rule:nonzero;stroke:none" transform="translate(128 60)"/><path d="M0 0h-4a4 4 0 0 1-4-4v-36a4 4 0 0 1 8 0v32h20l4 4-4 4z" style="fill:#ccc;fill-opacity:1;fill-rule:nonzero;stroke:none" transform="translate(220 184)"/><path d="M0 0h4a4 4 0 0 0 4-4v-36a4 4 0 0 0-8 0v32h-20l-4 4 4 4z" style="fill:#ccc;fill-opacity:1;fill-rule:nonzero;stroke:none" transform="translate(36 184)"/><path d="M40 12h4v4h-4z" style="fill:#16a085;fill-opacity:1;fill-rule:nonzero;stroke:none"/><path d="M0 0v92h96V0h16v156c0 33.137-28.653 60-64 60-35.346 0-64-26.863-64-60V0Z" style="fill:#e6e6e6;fill-opacity:1;fill-rule:nonzero;stroke:none" transform="translate(80 16)"/></g></svg>