<?xml version="1.0" encoding="UTF-8" standalone="no"?>
<svg
   xmlns:dc="http://purl.org/dc/elements/1.1/"
   xmlns:cc="http://creativecommons.org/ns#"
   xmlns:rdf="http://www.w3.org/1999/02/22-rdf-syntax-ns#"
   xmlns:svg="http://www.w3.org/2000/svg"
   xmlns="http://www.w3.org/2000/svg"
   viewBox="0 0 298.66665 202.66665"
   height="202.66666"
   width="298.66666"
   xml:space="preserve"
   id="svg2"
   version="1.1"><metadata
     id="metadata8"><rdf:RDF><cc:Work
         rdf:about=""><dc:format>image/svg+xml</dc:format><dc:type
           rdf:resource="http://purl.org/dc/dcmitype/StillImage" /></cc:Work></rdf:RDF></metadata><defs
     id="defs6"><clipPath
       id="clipPath18"
       clipPathUnits="userSpaceOnUse"><path
         id="path16"
         d="M 0,256 H 256 V 0 H 0 Z" /></clipPath><clipPath
       id="clipPath26"
       clipPathUnits="userSpaceOnUse"><path
         id="path24"
         d="M 16,208 H 240 V 56 H 16 Z" /></clipPath><clipPath
       id="clipPath52"
       clipPathUnits="userSpaceOnUse"><path
         id="path50"
         d="M 0,256 H 256 V 0 H 0 Z" /></clipPath></defs><g
     transform="matrix(1.3333333,0,0,-1.3333333,-21.333333,277.33333)"
     id="g10"><g
       id="g12"><g
         clip-path="url(#clipPath18)"
         id="g14"><g
           id="g20"><g
             id="g22" /><g
             id="g34"><g
               style="opacity:0.5"
               id="g32"
               clip-path="url(#clipPath26)"><g
                 id="g30"
                 transform="translate(228,208)"><path
                   id="path28"
                   style="fill:#ffffff;fill-opacity:1;fill-rule:nonzero;stroke:none"
                   d="m 0,0 h -200 c -6.617,0 -12,-5.383 -12,-12 v -28 -4 -28 c 0,-2.029 0.755,-3.881 2,-5.292 V -112 v -1 -23 c 0,-6.617 5.383,-12 12,-12 h 64.111 l 6.311,-3.155 c 1.129,-0.565 2.355,-0.845 3.578,-0.845 1.462,0 2.921,0.4 4.206,1.194 1.144,0.708 2.071,1.678 2.722,2.806 h 9.072 2 12 1.725 0.275 4.069 4 1.003 c 0.651,-1.128 1.578,-2.098 2.722,-2.806 1.285,-0.794 2.744,-1.194 4.206,-1.194 1.223,0 2.448,0.28 3.578,0.845 l 6.311,3.155 h 6.042 24.138 7.931 8 7.931 4 4.344 H -2 c 6.617,0 12,5.383 12,12 v 58.708 c 1.245,1.411 2,3.263 2,5.292 v 28 4 28 C 12,-5.383 6.617,0 0,0" /></g></g></g></g></g></g><path
       id="path36"
       style="fill:#b3b3b3;fill-opacity:1;fill-rule:nonzero;stroke:none"
       d="m 136,68 h -16 v 96 h 16 z" /><g
       transform="translate(152,68)"
       id="g38"><path
         id="path40"
         style="fill:#d9d9d9;fill-opacity:1;fill-rule:nonzero;stroke:none"
         d="M 0,0 V -4 L 8,0 Z" /></g><g
       transform="translate(96,68)"
       id="g42"><path
         id="path44"
         style="fill:#d9d9d9;fill-opacity:1;fill-rule:nonzero;stroke:none"
         d="M 0,0 8,-4 V 0 Z" /></g><g
       id="g46"><g
         clip-path="url(#clipPath52)"
         id="g48"><g
           transform="translate(122,68)"
           id="g54"><path
             id="path56"
             style="fill:#d9d9d9;fill-opacity:1;fill-rule:nonzero;stroke:none"
             d="m 0,0 h -92 c -2.209,0 -4,1.791 -4,4 V 96 H 4 V 4 C 4,1.791 2.209,0 0,0" /></g><g
           transform="translate(226,68)"
           id="g58"><path
             id="path60"
             style="fill:#e6e6e6;fill-opacity:1;fill-rule:nonzero;stroke:none"
             d="m 0,0 h -92 c -2.2,0 -4,1.8 -4,4 v 82.276 c 0,6.6 5.4,12 12,12 h 76 c 6.6,0 12,-5.4 12,-12 V 4 C 4,1.8 2.2,0 0,0" /></g><g
           transform="translate(224.2754,68)"
           id="g62"><path
             id="path64"
             style="fill:#d9d9d9;fill-opacity:1;fill-rule:nonzero;stroke:none"
             d="m 0,0 h -88.551 c -2.2,0 -4,1.8 -4,4 v 80.582 c 0,6.6 5.4,12 12,12 H -8 c 6.601,0 12,-5.4 12,-12 V 4 C 4,1.8 2.2,0 0,0" /></g><path
           id="path66"
           style="fill:#bfbfbf;fill-opacity:1;fill-rule:nonzero;stroke:none"
           d="m 152,93.725 h -20 v 2 h 20 z" /><path
           id="path68"
           style="fill:#bfbfbf;fill-opacity:1;fill-rule:nonzero;stroke:none"
           d="m 152,90 h -20 v 2 h 20 z" /><path
           id="path70"
           style="fill:#bfbfbf;fill-opacity:1;fill-rule:nonzero;stroke:none"
           d="m 152,86.275 h -20 v 2 h 20 z" /><path
           id="path72"
           style="fill:#bfbfbf;fill-opacity:1;fill-rule:nonzero;stroke:none"
           d="m 152,82.552 h -20 v 2 h 20 z" /><path
           id="path74"
           style="fill:#bfbfbf;fill-opacity:1;fill-rule:nonzero;stroke:none"
           d="m 152,78.827 h -20 v 2 h 20 z" /><path
           id="path76"
           style="fill:#bfbfbf;fill-opacity:1;fill-rule:nonzero;stroke:none"
           d="m 228,93.725 h -20 v 2 h 20 z" /><path
           id="path78"
           style="fill:#bfbfbf;fill-opacity:1;fill-rule:nonzero;stroke:none"
           d="m 228,90 h -20 v 2 h 20 z" /><path
           id="path80"
           style="fill:#bfbfbf;fill-opacity:1;fill-rule:nonzero;stroke:none"
           d="m 228,86.275 h -20 v 2 h 20 z" /><path
           id="path82"
           style="fill:#bfbfbf;fill-opacity:1;fill-rule:nonzero;stroke:none"
           d="m 228,82.552 h -20 v 2 h 20 z" /><path
           id="path84"
           style="fill:#bfbfbf;fill-opacity:1;fill-rule:nonzero;stroke:none"
           d="m 228,78.827 h -20 v 2 h 20 z" /><path
           id="path86"
           style="fill:#cccccc;fill-opacity:1;fill-rule:nonzero;stroke:none"
           d="m 162.759,164.582 h -1.725 v 1.694 h 1.725 z" /><path
           id="path88"
           style="fill:#cccccc;fill-opacity:1;fill-rule:nonzero;stroke:none"
           d="m 166.207,164.582 h -1.725 v 1.694 h 1.725 z" /><path
           id="path90"
           style="fill:#cccccc;fill-opacity:1;fill-rule:nonzero;stroke:none"
           d="m 169.655,164.582 h -1.725 v 1.694 h 1.725 z" /><path
           id="path92"
           style="fill:#cccccc;fill-opacity:1;fill-rule:nonzero;stroke:none"
           d="m 173.104,164.582 h -1.725 v 1.694 h 1.725 z" /><path
           id="path94"
           style="fill:#cccccc;fill-opacity:1;fill-rule:nonzero;stroke:none"
           d="m 176.552,164.582 h -1.725 v 1.694 h 1.725 z" /><path
           id="path96"
           style="fill:#cccccc;fill-opacity:1;fill-rule:nonzero;stroke:none"
           d="m 180,164.582 h -1.725 v 1.694 H 180 Z" /><path
           id="path98"
           style="fill:#cccccc;fill-opacity:1;fill-rule:nonzero;stroke:none"
           d="m 183.448,164.582 h -1.724 v 1.694 h 1.724 z" /><path
           id="path100"
           style="fill:#cccccc;fill-opacity:1;fill-rule:nonzero;stroke:none"
           d="m 186.896,164.582 h -1.724 v 1.694 h 1.724 z" /><path
           id="path102"
           style="fill:#cccccc;fill-opacity:1;fill-rule:nonzero;stroke:none"
           d="m 190.345,164.582 h -1.724 v 1.694 h 1.724 z" /><path
           id="path104"
           style="fill:#cccccc;fill-opacity:1;fill-rule:nonzero;stroke:none"
           d="m 193.793,164.582 h -1.724 v 1.694 h 1.724 z" /><path
           id="path106"
           style="fill:#cccccc;fill-opacity:1;fill-rule:nonzero;stroke:none"
           d="m 197.241,164.582 h -1.724 v 1.694 h 1.724 z" /><path
           id="path108"
           style="fill:#cccccc;fill-opacity:1;fill-rule:nonzero;stroke:none"
           d="m 200.689,164.582 h -1.724 v 1.694 h 1.724 z" /><path
           id="path110"
           style="fill:#cccccc;fill-opacity:1;fill-rule:nonzero;stroke:none"
           d="m 204.138,164.582 h -1.724 v 1.694 h 1.724 z" /><path
           id="path112"
           style="fill:#cccccc;fill-opacity:1;fill-rule:nonzero;stroke:none"
           d="m 207.586,164.582 h -1.724 v 1.694 h 1.724 z" /><path
           id="path114"
           style="fill:#cccccc;fill-opacity:1;fill-rule:nonzero;stroke:none"
           d="m 159.311,164.582 h -1.725 v 1.694 h 1.725 z" /><path
           id="path116"
           style="fill:#cccccc;fill-opacity:1;fill-rule:nonzero;stroke:none"
           d="m 155.862,164.582 h -1.725 v 1.694 h 1.725 z" /><path
           id="path118"
           style="fill:#cccccc;fill-opacity:1;fill-rule:nonzero;stroke:none"
           d="m 152.414,164.582 h -1.725 v 1.694 h 1.725 z" /><g
           transform="translate(219.9307,68)"
           id="g120"><path
             id="path122"
             style="fill:#cccccc;fill-opacity:1;fill-rule:nonzero;stroke:none"
             d="m 0,0 h -4 v 6 c 0,1.104 0.896,2 2,2 1.104,0 2,-0.896 2,-2 z" /></g><g
           transform="translate(144.0693,68)"
           id="g124"><path
             id="path126"
             style="fill:#cccccc;fill-opacity:1;fill-rule:nonzero;stroke:none"
             d="m 0,0 h -4 v 6 c 0,1.104 0.896,2 2,2 1.104,0 2,-0.896 2,-2 z" /></g><g
           transform="translate(148,68)"
           id="g128"><path
             id="path130"
             style="fill:#cccccc;fill-opacity:1;fill-rule:nonzero;stroke:none"
             d="m 0,0 h -12 c 0,2.209 1.791,4 4,4 h 4 C -1.791,4 0,2.209 0,0" /></g><g
           transform="translate(180,86.9658)"
           id="g132"><path
             id="path134"
             style="fill:#bfbfbf;fill-opacity:1;fill-rule:nonzero;stroke:none"
             d="m 0,0 c -6.665,0 -12.069,-5.403 -12.069,-12.069 v -3.449 -3.448 h 24.138 v 3.448 3.449 C 12.069,-5.403 6.665,0 0,0" /></g><g
           transform="translate(132,140)"
           id="g136"><path
             id="path138"
             style="fill:#cccccc;fill-opacity:1;fill-rule:nonzero;stroke:none"
             d="m 0,0 -2,-2 2,-2 h 8 v -14 c 0,-1.104 0.896,-2 2,-2 h 0.069 10e-4 c 1.066,0 1.93,0.864 1.93,1.93 V 0 Z" /></g><g
           transform="translate(228,140)"
           id="g140"><path
             id="path142"
             style="fill:#cccccc;fill-opacity:1;fill-rule:nonzero;stroke:none"
             d="M 0,0 2,-2 0,-4 h -8 v -14 c 0,-1.104 -0.896,-2 -2,-2 h -0.069 -10e-4 c -1.066,0 -1.93,0.864 -1.93,1.93 V 0 Z" /></g><g
           transform="translate(180,160)"
           id="g144"><path
             id="path146"
             style="fill:#e6e6e6;fill-opacity:1;fill-rule:nonzero;stroke:none"
             d="M 0,0 C -15.464,0 -28,-11.579 -28,-25.862 V -92 h 8 v 40 h 40 v -40 h 8 v 66.138 C 28,-11.579 15.464,0 0,0" /></g><g
           transform="translate(228,200)"
           id="g148"><path
             id="path150"
             style="fill:#595959;fill-opacity:1;fill-rule:nonzero;stroke:none"
             d="m 0,0 h -200 c -2.209,0 -4,-1.791 -4,-4 v -28 -4 H 4 v 4 28 C 4,-1.791 2.209,0 0,0" /></g><g
           transform="translate(118,118)"
           id="g152"><path
             id="path154"
             style="fill:#e6e6e6;fill-opacity:1;fill-rule:nonzero;stroke:none"
             d="m 0,0 c 0,-23.196 -18.804,-42 -42,-42 -23.196,0 -42,18.804 -42,42 0,23.196 18.804,42 42,42 C -18.804,42 0,23.196 0,0" /></g><g
           transform="translate(42,78)"
           id="g156"><path
             id="path158"
             style="fill:#b3b3b3;fill-opacity:1;fill-rule:nonzero;stroke:none"
             d="m 0,0 c 0,-3.313 -2.687,-6 -6,-6 -3.313,0 -6,2.687 -6,6 0,3.313 2.687,6 6,6 3.313,0 6,-2.687 6,-6" /></g><g
           transform="translate(118,80)"
           id="g160"><path
             id="path162"
             style="fill:#e6e6e6;fill-opacity:1;fill-rule:nonzero;stroke:none"
             d="m 0,0 c 0,-2.209 -1.791,-4 -4,-4 -2.209,0 -4,1.791 -4,4 0,2.209 1.791,4 4,4 2.209,0 4,-1.791 4,-4" /></g><g
           transform="translate(118,90)"
           id="g164"><path
             id="path166"
             style="fill:#e6e6e6;fill-opacity:1;fill-rule:nonzero;stroke:none"
             d="m 0,0 c 0,-1.104 -0.896,-2 -2,-2 -1.104,0 -2,0.896 -2,2 0,1.104 0.896,2 2,2 1.104,0 2,-0.896 2,-2" /></g><g
           transform="translate(108,72)"
           id="g168"><path
             id="path170"
             style="fill:#e6e6e6;fill-opacity:1;fill-rule:nonzero;stroke:none"
             d="m 0,0 h -8 c -1.104,0 -2,0.896 -2,2 0,1.104 0.896,2 2,2 H 0 C 1.104,4 2,3.104 2,2 2,0.896 1.104,0 0,0" /></g><g
           transform="translate(52,72)"
           id="g172"><path
             id="path174"
             style="fill:#e6e6e6;fill-opacity:1;fill-rule:nonzero;stroke:none"
             d="m 0,0 h -4 c -1.104,0 -2,0.896 -2,2 0,1.104 0.896,2 2,2 H 0 C 1.104,4 2,3.104 2,2 2,0.896 1.104,0 0,0" /></g><g
           transform="translate(26,96)"
           id="g176"><path
             id="path178"
             style="fill:#b3b3b3;fill-opacity:1;fill-rule:nonzero;stroke:none"
             d="m 0,0 v -1 h 14.543 c -0.21,0.331 -0.421,0.662 -0.623,1 z" /></g><g
           transform="translate(126,96)"
           id="g180"><path
             id="path182"
             style="fill:#b3b3b3;fill-opacity:1;fill-rule:nonzero;stroke:none"
             d="m 0,0 h -13.92 c -0.202,-0.338 -0.413,-0.669 -0.623,-1 H 0 Z" /></g><path
           id="path184"
           style="fill:#666666;fill-opacity:1;fill-rule:nonzero;stroke:none"
           d="M 104,172 H 32 v 20 h 72 z" /><path
           id="path186"
           style="fill:#666666;fill-opacity:1;fill-rule:nonzero;stroke:none"
           d="m 224,172 h -72 v 20 h 72 z" /><g
           transform="translate(40.2227,96)"
           id="g188"><path
             id="path190"
             style="fill:#b3b3b3;fill-opacity:1;fill-rule:nonzero;stroke:none"
             d="m 0,0 c 0,0 11.777,12 35.777,12 24,0 35.778,-12 35.778,-12 0,0 -7.778,-20 -35.778,-20 C 7.777,-20 0,0 0,0" /></g><path
           id="path192"
           style="fill:#666666;fill-opacity:1;fill-rule:nonzero;stroke:none"
           d="m 148,176 h -40 v 16 h 40 z" /><path
           id="path194"
           style="fill:#e6e6e6;fill-opacity:1;fill-rule:nonzero;stroke:none"
           d="m 228,160 h -98 v 4 h 98 z" /><path
           id="path196"
           style="fill:#e6e6e6;fill-opacity:1;fill-rule:nonzero;stroke:none"
           d="m 232,136 h -4 v 28 h 4 z" /><path
           id="path198"
           style="fill:#e6e6e6;fill-opacity:1;fill-rule:nonzero;stroke:none"
           d="m 132,136 h -4 v 28 h 4 z" /><path
           id="path200"
           style="fill:#e6e6e6;fill-opacity:1;fill-rule:nonzero;stroke:none"
           d="m 26,136 h -2 v 28 h 2 z" /><path
           id="path202"
           style="fill:#e6e6e6;fill-opacity:1;fill-rule:nonzero;stroke:none"
           d="m 168,86 h -2 v 20 h 2 z" /><path
           id="path204"
           style="fill:#bfbfbf;fill-opacity:1;fill-rule:nonzero;stroke:none"
           d="m 170,86 h -2 v 20 h 2 z" /><path
           id="path206"
           style="fill:#bfbfbf;fill-opacity:1;fill-rule:nonzero;stroke:none"
           d="m 178,90 h -2 v 16 h 2 z" /><path
           id="path208"
           style="fill:#bfbfbf;fill-opacity:1;fill-rule:nonzero;stroke:none"
           d="m 186,90 h -2 v 16 h 2 z" /><path
           id="path210"
           style="fill:#bfbfbf;fill-opacity:1;fill-rule:nonzero;stroke:none"
           d="m 194,86 h -2 v 20 h 2 z" /><path
           id="path212"
           style="fill:#e6e6e6;fill-opacity:1;fill-rule:nonzero;stroke:none"
           d="m 176,90 h -2 v 16 h 2 z" /><path
           id="path214"
           style="fill:#e6e6e6;fill-opacity:1;fill-rule:nonzero;stroke:none"
           d="m 184,90 h -2 v 16 h 2 z" /><path
           id="path216"
           style="fill:#e6e6e6;fill-opacity:1;fill-rule:nonzero;stroke:none"
           d="m 192,86 h -2 v 20 h 2 z" /><path
           id="path218"
           style="fill:#404040;fill-opacity:1;fill-rule:nonzero;stroke:none"
           d="m 144,192 h -32 v 4 h 32 z" /><path
           id="path220"
           style="fill:#404040;fill-opacity:1;fill-rule:nonzero;stroke:none"
           d="M 60,192 H 44 v 4 h 16 z" /><path
           id="path222"
           style="fill:#404040;fill-opacity:1;fill-rule:nonzero;stroke:none"
           d="m 212,192 h -16 v 4 h 16 z" /><g
           transform="translate(104,172)"
           id="g224"><path
             id="path226"
             style="fill:#4c4c4c;fill-opacity:1;fill-rule:nonzero;stroke:none"
             d="m 0,0 h -72 l -4,-4 H 0 Z" /></g><g
           transform="translate(224,172)"
           id="g228"><path
             id="path230"
             style="fill:#4c4c4c;fill-opacity:1;fill-rule:nonzero;stroke:none"
             d="M 0,0 H -72 V -4 H 4 Z" /></g><path
           id="path232"
           style="fill:#4c4c4c;fill-opacity:1;fill-rule:nonzero;stroke:none"
           d="m 148,172 h -40 v 4 h 40 z" /></g></g></g></svg>