<svg xmlns="http://www.w3.org/2000/svg" xml:space="preserve" width="298.667" height="202.667" viewBox="0 0 298.667 202.667"><defs><clipPath id="a" clipPathUnits="userSpaceOnUse"><path d="M0 256h256V0H0Z"/></clipPath><clipPath id="b" clipPathUnits="userSpaceOnUse"><path d="M16 208h224V56H16Z"/></clipPath><clipPath id="c" clipPathUnits="userSpaceOnUse"><path d="M0 256h256V0H0Z"/></clipPath></defs><g clip-path="url(#a)" transform="matrix(1.33333 0 0 -1.33333 -21.333 277.333)"><g clip-path="url(#b)" style="opacity:.5"><path d="M0 0h-200c-6.617 0-12-5.383-12-12v-60a7.97 7.97 0 0 1 2-5.292V-136c0-6.617 5.383-12 12-12h64.111l6.311-3.155A8 8 0 0 1-117.072-148h34.144A8 8 0 0 1-76-152c1.223 0 2.448.28 3.578.845l6.311 3.155H-2c6.617 0 12 5.383 12 12v58.708A7.97 7.97 0 0 1 12-72v60C12-5.383 6.617 0 0 0" style="fill:#fff;fill-opacity:1;fill-rule:nonzero;stroke:none" transform="translate(228 208)"/></g></g><path d="M136 68h-16v96h16z" style="fill:#b3b3b3;fill-opacity:1;fill-rule:nonzero;stroke:none" transform="matrix(1.33333 0 0 -1.33333 -21.333 277.333)"/><path d="M0 0v-4l8 4Z" style="fill:#d9d9d9;fill-opacity:1;fill-rule:nonzero;stroke:none" transform="matrix(1.33333 0 0 -1.33333 181.333 186.667)"/><path d="m0 0 8-4v4Z" style="fill:#d9d9d9;fill-opacity:1;fill-rule:nonzero;stroke:none" transform="matrix(1.33333 0 0 -1.33333 106.667 186.667)"/><g clip-path="url(#c)" transform="matrix(1.33333 0 0 -1.33333 -21.333 277.333)"><path d="M0 0h-92a4 4 0 0 0-4 4v92H4V4a4 4 0 0 0-4-4" style="fill:#d9d9d9;fill-opacity:1;fill-rule:nonzero;stroke:none" transform="translate(122 68)"/><path d="M0 0h-92c-2.2 0-4 1.8-4 4v82.276c0 6.6 5.4 12 12 12h76c6.6 0 12-5.4 12-12V4c0-2.2-1.8-4-4-4" style="fill:#e6e6e6;fill-opacity:1;fill-rule:nonzero;stroke:none" transform="translate(226 68)"/><path d="M0 0h-88.551c-2.2 0-4 1.8-4 4v80.582c0 6.6 5.4 12 12 12H-8c6.601 0 12-5.4 12-12V4c0-2.2-1.8-4-4-4" style="fill:#d9d9d9;fill-opacity:1;fill-rule:nonzero;stroke:none" transform="translate(224.275 68)"/><path d="M152 93.725h-20v2h20zM152 90h-20v2h20zm0-3.725h-20v2h20zm0-3.723h-20v2h20zm0-3.725h-20v2h20zm76 14.898h-20v2h20zM228 90h-20v2h20zm0-3.725h-20v2h20zm0-3.723h-20v2h20zm0-3.725h-20v2h20z" style="fill:#bfbfbf;fill-opacity:1;fill-rule:nonzero;stroke:none"/><path d="M162.759 164.582h-1.725v1.694h1.725zm3.448 0h-1.725v1.694h1.725zm3.448 0h-1.725v1.694h1.725zm3.449 0h-1.725v1.694h1.725zm3.448 0h-1.725v1.694h1.725zm3.448 0h-1.725v1.694H180Zm3.448 0h-1.724v1.694h1.724zm3.448 0h-1.724v1.694h1.724zm3.449 0h-1.724v1.694h1.724zm3.448 0h-1.724v1.694h1.724zm3.448 0h-1.724v1.694h1.724zm3.448 0h-1.724v1.694h1.724zm3.449 0h-1.724v1.694h1.724zm3.448 0h-1.724v1.694h1.724zm-48.275 0h-1.725v1.694h1.725zm-3.449 0h-1.725v1.694h1.725zm-3.448 0h-1.725v1.694h1.725z" style="fill:#ccc;fill-opacity:1;fill-rule:nonzero;stroke:none"/><path d="M0 0h-4v6a2 2 0 0 0 4 0z" style="fill:#ccc;fill-opacity:1;fill-rule:nonzero;stroke:none" transform="translate(219.93 68)"/><path d="M0 0h-4v6a2 2 0 0 0 4 0z" style="fill:#ccc;fill-opacity:1;fill-rule:nonzero;stroke:none" transform="translate(144.07 68)"/><path d="M0 0h-12a4 4 0 0 0 4 4h4a4 4 0 0 0 4-4" style="fill:#ccc;fill-opacity:1;fill-rule:nonzero;stroke:none" transform="translate(148 68)"/><path d="M0 0c-6.665 0-12.069-5.403-12.069-12.069v-6.897h24.138v6.897C12.069-5.403 6.665 0 0 0" style="fill:#bfbfbf;fill-opacity:1;fill-rule:nonzero;stroke:none" transform="translate(180 86.966)"/><path d="m0 0-2-2 2-2h8v-14a2 2 0 0 1 2-2h.07A1.93 1.93 0 0 1 12-18.07V0Z" style="fill:#ccc;fill-opacity:1;fill-rule:nonzero;stroke:none" transform="translate(132 140)"/><path d="m0 0 2-2-2-2h-8v-14a2 2 0 0 0-2-2h-.07A1.93 1.93 0 0 0-12-18.07V0Z" style="fill:#ccc;fill-opacity:1;fill-rule:nonzero;stroke:none" transform="translate(228 140)"/><path d="M0 0c-15.464 0-28-11.579-28-25.862V-92h8v40h40v-40h8v66.138C28-11.579 15.464 0 0 0" style="fill:#e6e6e6;fill-opacity:1;fill-rule:nonzero;stroke:none" transform="translate(180 160)"/><path d="M0 0h-200a4 4 0 0 1-4-4v-32H4v32a4 4 0 0 1-4 4" style="fill:#595959;fill-opacity:1;fill-rule:nonzero;stroke:none" transform="translate(228 200)"/><path d="M0 0c0-23.196-18.804-42-42-42S-84-23.196-84 0s18.804 42 42 42S0 23.196 0 0" style="fill:#e6e6e6;fill-opacity:1;fill-rule:nonzero;stroke:none" transform="translate(118 118)"/><path d="M0 0a6 6 0 0 0-12 0A6 6 0 0 0 0 0" style="fill:#b3b3b3;fill-opacity:1;fill-rule:nonzero;stroke:none" transform="translate(42 78)"/><path d="M0 0a4 4 0 1 0-8 0 4 4 0 0 0 8 0" style="fill:#e6e6e6;fill-opacity:1;fill-rule:nonzero;stroke:none" transform="translate(118 80)"/><path d="M0 0a2 2 0 1 0-4.001.001A2 2 0 0 0 0 0" style="fill:#e6e6e6;fill-opacity:1;fill-rule:nonzero;stroke:none" transform="translate(118 90)"/><path d="M0 0h-8a2 2 0 0 0 0 4h8a2 2 0 0 0 0-4" style="fill:#e6e6e6;fill-opacity:1;fill-rule:nonzero;stroke:none" transform="translate(108 72)"/><path d="M0 0h-4a2 2 0 0 0 0 4h4a2 2 0 0 0 0-4" style="fill:#e6e6e6;fill-opacity:1;fill-rule:nonzero;stroke:none" transform="translate(52 72)"/><path d="M0 0v-1h14.543c-.21.331-.421.662-.623 1z" style="fill:#b3b3b3;fill-opacity:1;fill-rule:nonzero;stroke:none" transform="translate(26 96)"/><path d="M0 0h-13.92c-.202-.338-.413-.669-.623-1H0Z" style="fill:#b3b3b3;fill-opacity:1;fill-rule:nonzero;stroke:none" transform="translate(126 96)"/><path d="M104 172H32v20h72zm120 0h-72v20h72z" style="fill:#666;fill-opacity:1;fill-rule:nonzero;stroke:none"/><path d="M0 0s11.777 12 35.777 12S71.555 0 71.555 0s-7.778-20-35.778-20S0 0 0 0" style="fill:#b3b3b3;fill-opacity:1;fill-rule:nonzero;stroke:none" transform="translate(40.223 96)"/><path d="M148 176h-40v16h40z" style="fill:#666;fill-opacity:1;fill-rule:nonzero;stroke:none"/><path d="M228 160h-98v4h98zm4-24h-4v28h4z" style="fill:#e6e6e6;fill-opacity:1;fill-rule:nonzero;stroke:none"/><path d="M132 136h-4v28h4zm-106 0h-2v28h2zm142-50h-2v20h2z" style="fill:#e6e6e6;fill-opacity:1;fill-rule:nonzero;stroke:none"/><path d="M170 86h-2v20h2zm8 4h-2v16h2zm8 0h-2v16h2zm8-4h-2v20h2z" style="fill:#bfbfbf;fill-opacity:1;fill-rule:nonzero;stroke:none"/><path d="M176 90h-2v16h2zm8 0h-2v16h2zm8-4h-2v20h2z" style="fill:#e6e6e6;fill-opacity:1;fill-rule:nonzero;stroke:none"/><path d="M144 192h-32v4h32zm-84 0H44v4h16zm152 0h-16v4h16z" style="fill:#404040;fill-opacity:1;fill-rule:nonzero;stroke:none"/><path d="M0 0h-72l-4-4H0Z" style="fill:#4c4c4c;fill-opacity:1;fill-rule:nonzero;stroke:none" transform="translate(104 172)"/><path d="M0 0h-72v-4H4Z" style="fill:#4c4c4c;fill-opacity:1;fill-rule:nonzero;stroke:none" transform="translate(224 172)"/><path d="M148 172h-40v4h40z" style="fill:#4c4c4c;fill-opacity:1;fill-rule:nonzero;stroke:none"/></g></svg>