<svg xmlns="http://www.w3.org/2000/svg" xml:space="preserve" width="330.667" height="288" viewBox="0 0 330.667 288"><defs><clipPath id="a" clipPathUnits="userSpaceOnUse"><path d="M0 256h256V0H0Z"/></clipPath><clipPath id="b" clipPathUnits="userSpaceOnUse"><path d="M4 236h248V20H4Z"/></clipPath></defs><g clip-path="url(#a)" transform="matrix(1.33333 0 0 -1.33333 -5.333 314.667)"><g clip-path="url(#b)" style="opacity:.5"><path d="M0 0c0 8.822-7.178 16-16 16h-48v92c0 6.617-5.383 12-12 12h-100c-6.617 0-12-5.383-12-12V16h-44c-8.822 0-16-7.178-16-16v-52a8 8 0 0 1 .252-2 8 8 0 0 1-.252-2v-4a8 8 0 0 1 .252-2 8 8 0 0 1-.252-2v-4a8 8 0 0 1 .252-2 8 8 0 0 1-.252-2v-8c0-8.822 7.178-16 16-16h136a8 8 0 0 1 6.93 4h30.14A8 8 0 0 1-52-96h36c8.822 0 16 7.178 16 16v8c0 .69-.088 1.36-.252 2 .164.64.252 1.31.252 2v4c0 .69-.088 1.36-.252 2 .164.64.252 1.31.252 2v4c0 .69-.088 1.36-.252 2 .164.64.252 1.31.252 2z" style="fill:#fff;fill-opacity:1;fill-rule:nonzero;stroke:none" transform="translate(252 116)"/></g><path d="M0 0v52c0 4.4-3.6 8-8 8h-60v32a4 4 0 0 1-4 4h-92a4 4 0 0 1-4-4V60h-56c-4.4 0-8-3.6-8-8V0h4v-4h-4v-4h4v-4h-4v-4h4v-4h-4v-8a8 8 0 0 1 8-8h128l8 4h44l8-4h28a8 8 0 0 1 8 8v8h-4v4h4v4h-4v4h4v4h-4v4z" style="fill:#404040;fill-opacity:1;fill-rule:nonzero;stroke:none" transform="translate(244 64)"/><path d="M144 60H16v4h128zm0-8H16v4h128zm0-8H16v4h128zm96 16h-28v4h28zm0-8h-28v4h28zm0-8h-28v4h28z" style="fill:#333;fill-opacity:1;fill-rule:nonzero;stroke:none"/><path d="M0 0c-1.029 15.635-14.03 28-29.926 28S-58.822 15.635-59.852 0h-.074v-56h8v44h44v-44h8V0Z" style="fill:#4c4c4c;fill-opacity:1;fill-rule:nonzero;stroke:none" transform="translate(207.926 84)"/><path d="M0 0v4c0 6.627-6.268 12-14 12s-14-5.373-14-12V0Z" style="fill:#333;fill-opacity:1;fill-rule:nonzero;stroke:none" transform="translate(192 32)"/><path d="M164 44h-4v28h4zm8 9.333h-4V72h4zM180 58h-4v14h4zm8-4.667h-4V72h4zM196 44h-4v28h4z" style="fill:#333;fill-opacity:1;fill-rule:nonzero;stroke:none"/><path d="M0 0h-16a2 2 0 0 0 0 4H0a2 2 0 0 0 0-4" style="fill:#333;fill-opacity:1;fill-rule:nonzero;stroke:none" transform="translate(34 108)"/><path d="M0 0h-12a2 2 0 0 0 0 4H0a2 2 0 0 0 0-4" style="fill:#333;fill-opacity:1;fill-rule:nonzero;stroke:none" transform="translate(30 96)"/><path d="M0 0h-48a2 2 0 0 0-2 2v12a2 2 0 0 0 2 2H0a2 2 0 0 0 2-2V2a2 2 0 0 0-2-2" style="fill:#333;fill-opacity:1;fill-rule:nonzero;stroke:none" transform="translate(102 68)"/><path d="M0 0h-12a2 2 0 0 1 0-4h10v-2a2 2 0 0 1 4 0v4a2 2 0 0 1-2 2" style="fill:#333;fill-opacity:1;fill-rule:nonzero;stroke:none" transform="translate(130 40)"/><path d="M0 0h12a2 2 0 0 0 0-4H2v-2a2 2 0 0 0-4 0v4a2 2 0 0 0 2 2" style="fill:#333;fill-opacity:1;fill-rule:nonzero;stroke:none" transform="translate(218 40)"/><path d="M0 0h-100a4 4 0 0 1-4-4v-108H4V-4a4 4 0 0 1-4 4" style="fill:#404040;fill-opacity:1;fill-rule:nonzero;stroke:none" transform="translate(176 228)"/><path d="M176 116H76v96h100z" style="fill:#333;fill-opacity:1;fill-rule:nonzero;stroke:none"/><path d="M0 0c0-23.196-18.804-42-42-42S-84-23.196-84 0s18.804 42 42 42S0 23.196 0 0" style="fill:#404040;fill-opacity:1;fill-rule:nonzero;stroke:none" transform="translate(168 166)"/><path d="M0 0h-64a2 2 0 0 0-2 2v16a2 2 0 0 0 2 2H0a2 2 0 0 0 2-2V2a2 2 0 0 0-2-2" style="fill:#262626;fill-opacity:1;fill-rule:nonzero;stroke:none" transform="translate(158 156)"/><path d="M108 160H96v12h12zm48 0h-12v12h12z" style="fill:#333;fill-opacity:1;fill-rule:nonzero;stroke:none"/><path d="M0 0a6 6 0 0 0-12 0A6 6 0 0 0 0 0" style="fill:#262626;fill-opacity:1;fill-rule:nonzero;stroke:none" transform="translate(92 126)"/><path d="M0 0a4 4 0 1 0-8 0 4 4 0 0 0 8 0" style="fill:#404040;fill-opacity:1;fill-rule:nonzero;stroke:none" transform="translate(172 128)"/><path d="M0 0a2 2 0 1 0-4.001.001A2 2 0 0 0 0 0" style="fill:#404040;fill-opacity:1;fill-rule:nonzero;stroke:none" transform="translate(172 138)"/><path d="M0 0h-8a2 2 0 0 0 0 4h8a2 2 0 0 0 0-4" style="fill:#404040;fill-opacity:1;fill-rule:nonzero;stroke:none" transform="translate(162 120)"/><path d="M0 0h-4a2 2 0 0 0 0 4h4a2 2 0 0 0 0-4" style="fill:#404040;fill-opacity:1;fill-rule:nonzero;stroke:none" transform="translate(102 120)"/><path d="M0 0v-1h14.543c-.21.331-.421.663-.623 1z" style="fill:#262626;fill-opacity:1;fill-rule:nonzero;stroke:none" transform="translate(76 144.5)"/><path d="M0 0h-13.92a43 43 0 0 0-.623-1H0Z" style="fill:#262626;fill-opacity:1;fill-rule:nonzero;stroke:none" transform="translate(176 144.5)"/><path d="M0 0c-7.394-11.999-20.649-20-35.777-20s-28.384 8.001-35.778 20h-1.15c7.515-12.565 21.252-21 36.928-21C-20.103-21-6.364-12.565 1.15 0z" style="fill:#262626;fill-opacity:1;fill-rule:nonzero;stroke:none" transform="translate(161.777 144)"/><path d="M76 204h-4v4h4zm0-8h-4v4h4zm0-8h-4v4h4zm0-12h-4v4h4zm0-8h-4v4h4zm0-8h-4v4h4zm104 44h-4v4h4zm0-8h-4v4h4zm0-8h-4v4h4zm0-12h-4v4h4zm0-8h-4v4h4zm0-8h-4v4h4z" style="fill:#333;fill-opacity:1;fill-rule:nonzero;stroke:none"/></g></svg>