<svg xmlns="http://www.w3.org/2000/svg" xml:space="preserve" width="330.667" height="217.093" viewBox="0 0 330.667 217.093"><defs><clipPath id="a" clipPathUnits="userSpaceOnUse"><path d="M0 256h256V0H0Z"/></clipPath><clipPath id="b" clipPathUnits="userSpaceOnUse"><path d="M4 210.82h248V48H4Z"/></clipPath><clipPath id="c" clipPathUnits="userSpaceOnUse"><path d="M0 256h256V0H0Z"/></clipPath></defs><g clip-path="url(#a)" transform="matrix(1.33333 0 0 -1.33333 -5.333 281.093)"><g clip-path="url(#b)" style="opacity:.5"><path d="M0 0c0 4.625-1.973 8.798-5.12 11.722a12 12 0 0 1-.361 3.189l-6.113 24.45a11.98 11.98 0 0 1-9.817 8.951l-44.54 6.852c-1.805 2.757-4.731 4.728-8.225 5.265l-32.772 5.042a116.4 116.4 0 0 1-17.639 1.349c-5.47 0-10.989-.392-16.405-1.166l-36.705-5.244c-3.744-.535-6.901-2.804-8.699-5.915l-40.193-6.184a11.97 11.97 0 0 1-9.817-8.95l-6.113-24.451a12 12 0 0 1-.36-3.188A15.96 15.96 0 0 1-248 0v-52a8 8 0 0 1 .252-2 8 8 0 0 1-.252-2v-4a8 8 0 0 1 .252-2 8 8 0 0 1-.252-2v-4a8 8 0 0 1 .252-2 8 8 0 0 1-.252-2v-8c0-8.822 7.178-16 16-16h136a8 8 0 0 1 6.93 4h30.14A8 8 0 0 1-52-96h36c8.822 0 16 7.178 16 16v8c0 .69-.088 1.36-.252 2 .164.64.252 1.31.252 2v4c0 .69-.088 1.36-.252 2 .164.64.252 1.31.252 2v4c0 .69-.088 1.36-.252 2 .164.64.252 1.31.252 2z" style="fill:#fff;fill-opacity:1;fill-rule:nonzero;stroke:none" transform="translate(252 144)"/></g></g><path d="M232 148H24v8h208z" style="fill:#333;fill-opacity:1;fill-rule:nonzero;stroke:none" transform="matrix(1.33333 0 0 -1.33333 -5.333 281.093)"/><g clip-path="url(#c)" transform="matrix(1.33333 0 0 -1.33333 -5.333 281.093)"><path d="M0 0v52c0 4.4-3.6 8-8 8h-60v32a4 4 0 0 1-4 4h-92a4 4 0 0 1-4-4V60h-56c-4.4 0-8-3.6-8-8V0h4v-4h-4v-4h4v-4h-4v-4h4v-4h-4v-8a8 8 0 0 1 8-8h128l8 4h44l8-4h28a8 8 0 0 1 8 8v8h-4v4h4v4h-4v4h4v4h-4v4z" style="fill:#404040;fill-opacity:1;fill-rule:nonzero;stroke:none" transform="translate(244 92)"/><path d="m0 0-101.373-15.596a4 4 0 0 1-3.272-2.983l-6.112-24.451c-.632-2.525 1.278-4.97 3.88-4.97h213.754c2.602 0 4.512 2.445 3.881 4.97l-6.113 24.451a4 4 0 0 1-3.273 2.983z" style="fill:#262626;fill-opacity:1;fill-rule:nonzero;stroke:none" transform="translate(128 200)"/><path d="M0 0a108 108 0 0 1-31.695.17l-36.706-5.243a4 4 0 0 1-3.434-3.96v-40.531h108v40.568a4 4 0 0 1-3.392 3.954z" style="fill:#333;fill-opacity:1;fill-rule:nonzero;stroke:none" transform="translate(143.835 201.564)"/><path d="M144 88H16v4h128zm0-8H16v4h128zm0-8H16v4h128zm96 16h-28v4h28zm0-8h-28v4h28zm0-8h-28v4h28z" style="fill:#333;fill-opacity:1;fill-rule:nonzero;stroke:none"/><path d="M0 0c-1.029 15.635-14.03 28-29.926 28S-58.822 15.635-59.852 0h-.074v-56h8v44h44v-44h8V0Z" style="fill:#4c4c4c;fill-opacity:1;fill-rule:nonzero;stroke:none" transform="translate(207.926 112)"/><path d="M0 0v4c0 6.627-6.268 12-14 12s-14-5.373-14-12V0Z" style="fill:#333;fill-opacity:1;fill-rule:nonzero;stroke:none" transform="translate(192 60)"/><path d="M164 72h-4v28h4zm8 9.333h-4V100h4zM180 86h-4v14h4zm8-4.667h-4V100h4zM196 72h-4v28h4z" style="fill:#333;fill-opacity:1;fill-rule:nonzero;stroke:none"/><path d="M0 0h-16a2 2 0 0 0 0 4H0a2 2 0 0 0 0-4" style="fill:#333;fill-opacity:1;fill-rule:nonzero;stroke:none" transform="translate(34 136)"/><path d="M0 0h-12a2 2 0 0 0 0 4H0a2 2 0 0 0 0-4" style="fill:#333;fill-opacity:1;fill-rule:nonzero;stroke:none" transform="translate(30 124)"/><path d="M0 0h-48a2 2 0 0 0-2 2v12a2 2 0 0 0 2 2H0a2 2 0 0 0 2-2V2a2 2 0 0 0-2-2" style="fill:#333;fill-opacity:1;fill-rule:nonzero;stroke:none" transform="translate(102 96)"/><path d="M0 0h-12a2 2 0 0 1 0-4h10v-2a2 2 0 0 1 4 0v4a2 2 0 0 1-2 2" style="fill:#333;fill-opacity:1;fill-rule:nonzero;stroke:none" transform="translate(130 68)"/><path d="M0 0h12a2 2 0 0 0 0-4H2v-2a2 2 0 0 0-4 0v4a2 2 0 0 0 2 2" style="fill:#333;fill-opacity:1;fill-rule:nonzero;stroke:none" transform="translate(218 68)"/></g></svg>