<?xml version="1.0" encoding="UTF-8" standalone="no"?>
<svg
   xmlns:dc="http://purl.org/dc/elements/1.1/"
   xmlns:cc="http://creativecommons.org/ns#"
   xmlns:rdf="http://www.w3.org/1999/02/22-rdf-syntax-ns#"
   xmlns:svg="http://www.w3.org/2000/svg"
   xmlns="http://www.w3.org/2000/svg"
   viewBox="0 0 330.66665 202.66665"
   height="202.66666"
   width="330.66666"
   xml:space="preserve"
   id="svg2"
   version="1.1"><metadata
     id="metadata8"><rdf:RDF><cc:Work
         rdf:about=""><dc:format>image/svg+xml</dc:format><dc:type
           rdf:resource="http://purl.org/dc/dcmitype/StillImage" /></cc:Work></rdf:RDF></metadata><defs
     id="defs6"><clipPath
       id="clipPath18"
       clipPathUnits="userSpaceOnUse"><path
         id="path16"
         d="M 0,256 H 256 V 0 H 0 Z" /></clipPath><clipPath
       id="clipPath26"
       clipPathUnits="userSpaceOnUse"><path
         id="path24"
         d="M 4,204 H 252 V 52 H 4 Z" /></clipPath><clipPath
       id="clipPath52"
       clipPathUnits="userSpaceOnUse"><path
         id="path50"
         d="M 0,256 H 256 V 0 H 0 Z" /></clipPath></defs><g
     transform="matrix(1.3333333,0,0,-1.3333333,-5.3333332,271.99999)"
     id="g10"><g
       id="g12"><g
         clip-path="url(#clipPath18)"
         id="g14"><g
           id="g20"><g
             id="g22" /><g
             id="g34"><g
               style="opacity:0.5"
               id="g32"
               clip-path="url(#clipPath26)"><g
                 id="g30"
                 transform="translate(244,204)"><path
                   id="path28"
                   style="fill:#ffffff;fill-opacity:1;fill-rule:nonzero;stroke:none"
                   d="m 0,0 h -16 -8 v -4 h -184 v 4 h -8 -16 -8 v -8 -16 -8 h 4 v -88 h -4 v -8 -16 -8 h 8 16 8 v 4 h 134 2 48 v -4 h 8 16 8 v 8 16 8 H 4 v 88 h 4 v 8 16 8 z" /></g></g></g></g></g></g><path
       id="path36"
       style="fill:#4c4c4c;fill-opacity:1;fill-rule:nonzero;stroke:none"
       d="M 28,76 H 12 V 60 h 16 z" /><path
       id="path38"
       style="fill:#4c4c4c;fill-opacity:1;fill-rule:nonzero;stroke:none"
       d="M 28,196 H 12 v -16 h 16 z" /><path
       id="path40"
       style="fill:#4c4c4c;fill-opacity:1;fill-rule:nonzero;stroke:none"
       d="M 244,76 H 228 V 60 h 16 z" /><path
       id="path42"
       style="fill:#4c4c4c;fill-opacity:1;fill-rule:nonzero;stroke:none"
       d="m 244,196 h -16 v -16 h 16 z" /><path
       id="path44"
       style="fill:#666666;fill-opacity:1;fill-rule:nonzero;stroke:none"
       d="M 240,64 H 16 v 128 h 224 z" /><g
       id="g46"><g
         clip-path="url(#clipPath52)"
         id="g48"><g
           transform="translate(224,184)"
           id="g54"><path
             id="path56"
             style="fill:#4c4c4c;fill-opacity:1;fill-rule:nonzero;stroke:none"
             d="m 0,0 h -192 c -2.209,0 -4,-24.177 -4,-54 0,-29.823 1.791,-54 4,-54 H 0 c 2.209,0 4,24.177 4,54 C 4,-24.177 2.209,0 0,0" /></g><g
           transform="translate(224.127,100)"
           id="g58"><path
             id="path60"
             style="fill:#595959;fill-opacity:1;fill-rule:nonzero;stroke:none"
             d="m 0,0 h -192.254 c -2.139,0 -3.873,1.734 -3.873,3.873 v 52.254 c 0,2.139 1.734,3.873 3.873,3.873 L 0,60 c 2.139,0 3.873,-1.734 3.873,-3.873 V 3.873 C 3.873,1.734 2.139,0 0,0" /></g><g
           transform="translate(44,139)"
           id="g62"><path
             id="path64"
             style="fill:#404040;fill-opacity:1;fill-rule:nonzero;stroke:none"
             d="m 0,0 c 0,-0.552 -0.448,-1 -1,-1 -0.552,0 -1,0.448 -1,1 0,0.552 0.448,1 1,1 0.552,0 1,-0.448 1,-1" /></g><g
           transform="translate(44,133)"
           id="g66"><path
             id="path68"
             style="fill:#404040;fill-opacity:1;fill-rule:nonzero;stroke:none"
             d="m 0,0 c 0,-0.552 -0.448,-1 -1,-1 -0.552,0 -1,0.448 -1,1 0,0.552 0.448,1 1,1 0.552,0 1,-0.448 1,-1" /></g><g
           transform="translate(44,127)"
           id="g70"><path
             id="path72"
             style="fill:#404040;fill-opacity:1;fill-rule:nonzero;stroke:none"
             d="m 0,0 c 0,-0.553 -0.448,-1 -1,-1 -0.552,0 -1,0.447 -1,1 0,0.552 0.448,1 1,1 0.552,0 1,-0.448 1,-1" /></g><path
           id="path74"
           style="fill:#404040;fill-opacity:1;fill-rule:nonzero;stroke:none"
           d="M 112,170 H 84 v 2 h 28 z" /><path
           id="path76"
           style="fill:#404040;fill-opacity:1;fill-rule:nonzero;stroke:none"
           d="M 112,162 H 84 v 2 h 28 z" /><path
           id="path78"
           style="fill:#404040;fill-opacity:1;fill-rule:nonzero;stroke:none"
           d="M 112,154 H 84 v 2 h 28 z" /><path
           id="path80"
           style="fill:#404040;fill-opacity:1;fill-rule:nonzero;stroke:none"
           d="M 112,146 H 84 v 2 h 28 z" /><path
           id="path82"
           style="fill:#404040;fill-opacity:1;fill-rule:nonzero;stroke:none"
           d="M 112,138 H 84 v 2 h 28 z" /><path
           id="path84"
           style="fill:#404040;fill-opacity:1;fill-rule:nonzero;stroke:none"
           d="M 112,130 H 84 v 2 h 28 z" /><path
           id="path86"
           style="fill:#404040;fill-opacity:1;fill-rule:nonzero;stroke:none"
           d="M 112,122 H 84 v 2 h 28 z" /><path
           id="path88"
           style="fill:#404040;fill-opacity:1;fill-rule:nonzero;stroke:none"
           d="M 112,114 H 84 v 2 h 28 z" /><path
           id="path90"
           style="fill:#404040;fill-opacity:1;fill-rule:nonzero;stroke:none"
           d="M 112,106 H 84 v 2 h 28 z" /><path
           id="path92"
           style="fill:#404040;fill-opacity:1;fill-rule:nonzero;stroke:none"
           d="M 112,98 H 84 v 2 h 28 z" /><path
           id="path94"
           style="fill:#404040;fill-opacity:1;fill-rule:nonzero;stroke:none"
           d="M 112,90 H 84 v 2 h 28 z" /><path
           id="path96"
           style="fill:#404040;fill-opacity:1;fill-rule:nonzero;stroke:none"
           d="m 116,76 h -2 v 108 h 2 z" /><path
           id="path98"
           style="fill:#404040;fill-opacity:1;fill-rule:nonzero;stroke:none"
           d="M 228,133 H 116 v 2 h 112 z" /><path
           id="path100"
           style="fill:#404040;fill-opacity:1;fill-rule:nonzero;stroke:none"
           d="m 188,130 h -32 v 8 h 32 z" /><path
           id="path102"
           style="fill:#4c4c4c;fill-opacity:1;fill-rule:nonzero;stroke:none"
           d="m 170,64 h 2 v 4 h -2 z" /><g
           transform="translate(170,68)"
           id="g104"><path
             id="path106"
             style="fill:#00ff00;fill-opacity:1;fill-rule:nonzero;stroke:none"
             d="M 0,0 H 2 V 3 C 2,3.553 1.553,4 1,4 0.447,4 0,3.553 0,3 Z" /></g></g></g></g></svg>