<svg xmlns="http://www.w3.org/2000/svg" xml:space="preserve" width="330.667" height="234.666" viewBox="0 0 330.667 234.666"><defs><clipPath id="a" clipPathUnits="userSpaceOnUse"><path d="M0 256h256V0H0Z"/></clipPath><clipPath id="b" clipPathUnits="userSpaceOnUse"><path d="M4 216h248V40H4Z"/></clipPath></defs><g clip-path="url(#a)" transform="matrix(1.33333 0 0 -1.33333 -5.333 288)"><g clip-path="url(#b)" style="opacity:.5"><path d="m0 0-2.806 108.821c-.433 16.842-13.994 30.51-30.887 31.155l-26.685 1.476a9.94 9.94 0 0 1-5.611 1.727h-12c-1.165 0-2.285-.2-3.326-.569l-2.016.112-8.043.445-.222.012h-64.787l-.221-.012-57.681-3.191c-16.893-.645-30.454-14.313-30.888-31.155L-247.979 0c-.223-8.675 2.996-16.882 9.064-23.108 6.104-6.264 14.292-9.713 23.056-9.713h183.74c8.764 0 16.952 3.449 23.056 9.713C-2.995-16.882.224-8.675 0 0" style="fill:#fff;fill-opacity:1;fill-rule:nonzero;stroke:none" transform="translate(251.99 72.821)"/></g><path d="M0 0c-.327 12.679-10.517 22.917-23.261 23.37l-29.926 1.637v-2.443h-19.784v3.555l-8.043.445h-64.345l-57.754-3.194c-12.743-.453-22.933-10.691-23.26-23.37l-2.805-108.821c-.348-13.491 10.553-24.615 24.121-24.615h183.741c13.568 0 24.469 11.124 24.122 24.615z" style="fill:#ccc;fill-opacity:1;fill-rule:nonzero;stroke:none" transform="translate(241.186 181.436)"/><path d="m0 0 8-16h84l8 16z" style="fill:#ccc;fill-opacity:1;fill-rule:nonzero;stroke:none" transform="translate(80 200)"/><path d="M0 0h-192c-6.6 0-12 5.4-12 12v88c0 6.6 5.4 12 12 12H0c6.6 0 12-5.4 12-12V12C12 5.4 6.6 0 0 0" style="fill:#d9d9d9;fill-opacity:1;fill-rule:nonzero;stroke:none" transform="translate(224 68)"/><path d="M0 0h-128c-2.2 0-4 1.8-4 4v80c0 2.2 1.8 4 4 4H0c2.2 0 4-1.8 4-4V4c0-2.2-1.8-4-4-4" style="fill:#ccc;fill-opacity:1;fill-rule:nonzero;stroke:none" transform="translate(192 76)"/><path d="M192 80H64v80h128z" style="fill:#bfbfbf;fill-opacity:1;fill-rule:nonzero;stroke:none"/><path d="M0 0h-108.138c-2.168 0-3.931-1.695-3.931-3.778v-60.445c0-2.083 1.763-3.777 3.931-3.777H0c2.167 0 3.931 1.694 3.931 3.777v60.445C3.931-1.695 2.167 0 0 0m0-2c1.066 0 1.931-.796 1.931-1.778v-60.445C1.931-65.204 1.066-66 0-66h-108.138c-1.067 0-1.931.796-1.931 1.777v60.445c0 .982.864 1.778 1.931 1.778z" style="fill:#999;fill-opacity:1;fill-rule:nonzero;stroke:none" transform="translate(182.07 154)"/><path d="M0 0a2 2 0 1 0-4.001.001A2 2 0 0 0 0 0" style="fill:#999;fill-opacity:1;fill-rule:nonzero;stroke:none" transform="translate(82 144)"/><path d="M0 0a2 2 0 1 0-4.001.001A2 2 0 0 0 0 0" style="fill:#999;fill-opacity:1;fill-rule:nonzero;stroke:none" transform="translate(82 132)"/><path d="M0 0a2 2 0 1 0-4.001.001A2 2 0 0 0 0 0" style="fill:#999;fill-opacity:1;fill-rule:nonzero;stroke:none" transform="translate(82 120)"/><path d="M0 0a2 2 0 1 0-4.001.001A2 2 0 0 0 0 0" style="fill:#999;fill-opacity:1;fill-rule:nonzero;stroke:none" transform="translate(82 108)"/><path d="M0 0a2 2 0 1 0-4.001.001A2 2 0 0 0 0 0" style="fill:#999;fill-opacity:1;fill-rule:nonzero;stroke:none" transform="translate(82 96)"/><path d="M0 0a2 2 0 1 0-4.001.001A2 2 0 0 0 0 0" style="fill:#999;fill-opacity:1;fill-rule:nonzero;stroke:none" transform="translate(94 144)"/><path d="M0 0a2 2 0 1 0-4.001.001A2 2 0 0 0 0 0" style="fill:#999;fill-opacity:1;fill-rule:nonzero;stroke:none" transform="translate(94 132)"/><path d="M0 0a2 2 0 1 0-4.001.001A2 2 0 0 0 0 0" style="fill:#999;fill-opacity:1;fill-rule:nonzero;stroke:none" transform="translate(94 120)"/><path d="M0 0a2 2 0 1 0-4.001.001A2 2 0 0 0 0 0" style="fill:#999;fill-opacity:1;fill-rule:nonzero;stroke:none" transform="translate(94 108)"/><path d="M0 0a2 2 0 1 0-4.001.001A2 2 0 0 0 0 0" style="fill:#999;fill-opacity:1;fill-rule:nonzero;stroke:none" transform="translate(94 96)"/><path d="M0 0a2 2 0 1 0-4.001.001A2 2 0 0 0 0 0" style="fill:#999;fill-opacity:1;fill-rule:nonzero;stroke:none" transform="translate(106 144)"/><path d="M0 0a2 2 0 1 0-4.001.001A2 2 0 0 0 0 0" style="fill:#999;fill-opacity:1;fill-rule:nonzero;stroke:none" transform="translate(106 132)"/><path d="M0 0a2 2 0 1 0-4.001.001A2 2 0 0 0 0 0" style="fill:#999;fill-opacity:1;fill-rule:nonzero;stroke:none" transform="translate(106 120)"/><path d="M0 0a2 2 0 1 0-4.001.001A2 2 0 0 0 0 0" style="fill:#999;fill-opacity:1;fill-rule:nonzero;stroke:none" transform="translate(106 108)"/><path d="M0 0a2 2 0 1 0-4.001.001A2 2 0 0 0 0 0" style="fill:#999;fill-opacity:1;fill-rule:nonzero;stroke:none" transform="translate(106 96)"/><path d="M0 0a2 2 0 1 0-4.001.001A2 2 0 0 0 0 0" style="fill:#999;fill-opacity:1;fill-rule:nonzero;stroke:none" transform="translate(118 144)"/><path d="M0 0a2 2 0 1 0-4.001.001A2 2 0 0 0 0 0" style="fill:#999;fill-opacity:1;fill-rule:nonzero;stroke:none" transform="translate(118 132)"/><path d="M0 0a2 2 0 1 0-4.001.001A2 2 0 0 0 0 0" style="fill:#999;fill-opacity:1;fill-rule:nonzero;stroke:none" transform="translate(118 120)"/><path d="M0 0a2 2 0 1 0-4.001.001A2 2 0 0 0 0 0" style="fill:#999;fill-opacity:1;fill-rule:nonzero;stroke:none" transform="translate(118 108)"/><path d="M0 0a2 2 0 1 0-4.001.001A2 2 0 0 0 0 0" style="fill:#999;fill-opacity:1;fill-rule:nonzero;stroke:none" transform="translate(118 96)"/><path d="M0 0a2 2 0 1 0-4.001.001A2 2 0 0 0 0 0" style="fill:#999;fill-opacity:1;fill-rule:nonzero;stroke:none" transform="translate(130 144)"/><path d="M0 0a2 2 0 1 0-4.001.001A2 2 0 0 0 0 0" style="fill:#999;fill-opacity:1;fill-rule:nonzero;stroke:none" transform="translate(130 132)"/><path d="M0 0a2 2 0 1 0-4.001.001A2 2 0 0 0 0 0" style="fill:#999;fill-opacity:1;fill-rule:nonzero;stroke:none" transform="translate(130 120)"/><path d="M0 0a2 2 0 1 0-4.001.001A2 2 0 0 0 0 0" style="fill:#999;fill-opacity:1;fill-rule:nonzero;stroke:none" transform="translate(130 108)"/><path d="M0 0a2 2 0 1 0-4.001.001A2 2 0 0 0 0 0" style="fill:#999;fill-opacity:1;fill-rule:nonzero;stroke:none" transform="translate(130 96)"/><path d="M0 0a2 2 0 1 0-4.001.001A2 2 0 0 0 0 0" style="fill:#999;fill-opacity:1;fill-rule:nonzero;stroke:none" transform="translate(142 144)"/><path d="M0 0a2 2 0 1 0-4.001.001A2 2 0 0 0 0 0" style="fill:#999;fill-opacity:1;fill-rule:nonzero;stroke:none" transform="translate(142 132)"/><path d="M0 0a2 2 0 1 0-4.001.001A2 2 0 0 0 0 0" style="fill:#999;fill-opacity:1;fill-rule:nonzero;stroke:none" transform="translate(142 120)"/><path d="M0 0a2 2 0 1 0-4.001.001A2 2 0 0 0 0 0" style="fill:#999;fill-opacity:1;fill-rule:nonzero;stroke:none" transform="translate(142 108)"/><path d="M0 0a2 2 0 1 0-4.001.001A2 2 0 0 0 0 0" style="fill:#999;fill-opacity:1;fill-rule:nonzero;stroke:none" transform="translate(142 96)"/><path d="M0 0a2 2 0 1 0-4.001.001A2 2 0 0 0 0 0" style="fill:#999;fill-opacity:1;fill-rule:nonzero;stroke:none" transform="translate(154 144)"/><path d="M0 0a2 2 0 1 0-4.001.001A2 2 0 0 0 0 0" style="fill:#999;fill-opacity:1;fill-rule:nonzero;stroke:none" transform="translate(154 132)"/><path d="M0 0a2 2 0 1 0-4.001.001A2 2 0 0 0 0 0" style="fill:#999;fill-opacity:1;fill-rule:nonzero;stroke:none" transform="translate(154 120)"/><path d="M0 0a2 2 0 1 0-4.001.001A2 2 0 0 0 0 0" style="fill:#999;fill-opacity:1;fill-rule:nonzero;stroke:none" transform="translate(154 108)"/><path d="M0 0a2 2 0 1 0-4.001.001A2 2 0 0 0 0 0" style="fill:#999;fill-opacity:1;fill-rule:nonzero;stroke:none" transform="translate(154 96)"/><path d="M0 0a2 2 0 1 0-4.001.001A2 2 0 0 0 0 0" style="fill:#999;fill-opacity:1;fill-rule:nonzero;stroke:none" transform="translate(166 144)"/><path d="M0 0a2 2 0 1 0-4.001.001A2 2 0 0 0 0 0" style="fill:#999;fill-opacity:1;fill-rule:nonzero;stroke:none" transform="translate(166 132)"/><path d="M0 0a2 2 0 1 0-4.001.001A2 2 0 0 0 0 0" style="fill:#999;fill-opacity:1;fill-rule:nonzero;stroke:none" transform="translate(166 120)"/><path d="M0 0a2 2 0 1 0-4.001.001A2 2 0 0 0 0 0" style="fill:#999;fill-opacity:1;fill-rule:nonzero;stroke:none" transform="translate(166 108)"/><path d="M0 0a2 2 0 1 0-4.001.001A2 2 0 0 0 0 0" style="fill:#999;fill-opacity:1;fill-rule:nonzero;stroke:none" transform="translate(166 96)"/><path d="M0 0a2 2 0 1 0-4.001.001A2 2 0 0 0 0 0" style="fill:#999;fill-opacity:1;fill-rule:nonzero;stroke:none" transform="translate(178 144)"/><path d="M0 0a2 2 0 1 0-4.001.001A2 2 0 0 0 0 0" style="fill:#999;fill-opacity:1;fill-rule:nonzero;stroke:none" transform="translate(178 132)"/><path d="M0 0a2 2 0 1 0-4.001.001A2 2 0 0 0 0 0" style="fill:#999;fill-opacity:1;fill-rule:nonzero;stroke:none" transform="translate(178 120)"/><path d="M0 0a2 2 0 1 0-4.001.001A2 2 0 0 0 0 0" style="fill:#999;fill-opacity:1;fill-rule:nonzero;stroke:none" transform="translate(178 108)"/><path d="M0 0a2 2 0 1 0-4.001.001A2 2 0 0 0 0 0" style="fill:#999;fill-opacity:1;fill-rule:nonzero;stroke:none" transform="translate(178 96)"/><path d="M0 0c0-2.209-3.582-4-8-4s-8 1.791-8 4 3.582 4 8 4 8-1.791 8-4" style="fill:#bfbfbf;fill-opacity:1;fill-rule:nonzero;stroke:none" transform="translate(136 60)"/><path d="M172 48H84v12h88z" style="fill:#999;fill-opacity:1;fill-rule:nonzero;stroke:none"/><path d="M0 0h-24a4 4 0 0 1-4-4v-20c0-8.836 7.164-16 16-16S4-32.836 4-24v20a4 4 0 0 1-4 4" style="fill:#8c8c8c;fill-opacity:1;fill-rule:nonzero;stroke:none" transform="translate(52 164)"/><path d="M0 0h-24a4 4 0 0 1-4-4v-20c0-8.836 7.163-16 16-16S4-32.836 4-24v20a4 4 0 0 1-4 4" style="fill:#8c8c8c;fill-opacity:1;fill-rule:nonzero;stroke:none" transform="translate(228 164)"/><path d="M76 168h-8v8h8zm12 0h-8v8h8zm12 0h-8v8h8zm12 0h-8v8h8zm12 0h-8v8h8zm16 0h-8v8h8zm12 0h-8v8h8zm12 0h-8v8h8zm12 0h-8v8h8z" style="fill:#bfbfbf;fill-opacity:1;fill-rule:nonzero;stroke:none"/><path d="M0 0a4 4 0 1 0-8 0 4 4 0 0 0 8 0" style="fill:#bfbfbf;fill-opacity:1;fill-rule:nonzero;stroke:none" transform="translate(192 172)"/><path d="M0 0h-12a4 4 0 0 0-4 4v12H4V4a4 4 0 0 0-4-4" style="fill:#bfbfbf;fill-opacity:1;fill-rule:nonzero;stroke:none" transform="translate(112 192)"/><path d="M0 0h-12a4 4 0 0 0-4 4v12H4V4a4 4 0 0 0-4-4" style="fill:#bfbfbf;fill-opacity:1;fill-rule:nonzero;stroke:none" transform="translate(156 192)"/><path d="M0 0h4l-8-8h-4Z" style="fill:#8c8c8c;fill-opacity:1;fill-rule:nonzero;stroke:none" transform="translate(60 188)"/><path d="M0 0h4l-8-8h-4Z" style="fill:#8c8c8c;fill-opacity:1;fill-rule:nonzero;stroke:none" transform="translate(68 188)"/><path d="M42 192h-2v12h2zm4 0h-2v12h2zm4 0h-2v12h2zm4 0h-2v12h2zm4 0h-2v12h2zm4 0h-2v12h2zm4 0h-2v12h2zm126 0h-2v12h2zm4 0h-2v12h2zm4 0h-2v12h2zm4 0h-2v12h2zm4 0h-2v12h2zm4 0h-2v12h2zm4 0h-2v12h2z" style="fill:#8c8c8c;fill-opacity:1;fill-rule:nonzero;stroke:none"/><path d="M0 0c-1.1 0-2 .9-2 2v4c0 1.1.9 2 2 2s2-.9 2-2V2c0-1.1-.9-2-2-2" style="fill:#8c8c8c;fill-opacity:1;fill-rule:nonzero;stroke:none" transform="translate(230 188)"/><path d="M0 0h-16v2c0 1.1.9 2 2 2h12c1.1 0 2-.9 2-2Z" style="fill:#8c8c8c;fill-opacity:1;fill-rule:nonzero;stroke:none" transform="translate(188 204)"/><path d="M0 0h-12v18a2 2 0 0 0 2 2h8a2 2 0 0 0 2-2z" style="fill:#d9d9d9;fill-opacity:1;fill-rule:nonzero;stroke:none" transform="translate(134 184)"/><path d="M0 0h-12l3.621 14.485A2 2 0 0 0-6.438 16h.876c.918 0 1.718-.625 1.941-1.515z" style="fill:#e6e6e6;fill-opacity:1;fill-rule:nonzero;stroke:none" transform="translate(134 184)"/><path d="M94 184h-2v20h2zm4 0h-2v4h2zm4 0h-2v4h2zm4 0h-2v4h2zm4 0h-2v4h2zm4 0h-2v4h2zm4 0h-2v20h2zm22 0h-2v20h2zm4 0h-2v4h2zm4 0h-2v4h2zm4 0h-2v4h2zm4 0h-2v4h2zm4 0h-2v4h2zm4 0h-2v20h2z" style="fill:#d9d9d9;fill-opacity:1;fill-rule:nonzero;stroke:none"/></g></svg>