<?xml version="1.0" encoding="UTF-8" standalone="no"?>
<svg
   xmlns:dc="http://purl.org/dc/elements/1.1/"
   xmlns:cc="http://creativecommons.org/ns#"
   xmlns:rdf="http://www.w3.org/1999/02/22-rdf-syntax-ns#"
   xmlns:svg="http://www.w3.org/2000/svg"
   xmlns="http://www.w3.org/2000/svg"
   viewBox="0 0 330.66665 234.66626"
   height="234.66626"
   width="330.66666"
   xml:space="preserve"
   id="svg2"
   version="1.1"><metadata
     id="metadata8"><rdf:RDF><cc:Work
         rdf:about=""><dc:format>image/svg+xml</dc:format><dc:type
           rdf:resource="http://purl.org/dc/dcmitype/StillImage" /></cc:Work></rdf:RDF></metadata><defs
     id="defs6"><clipPath
       id="clipPath18"
       clipPathUnits="userSpaceOnUse"><path
         id="path16"
         d="M 0,256 H 256 V 0 H 0 Z" /></clipPath><clipPath
       id="clipPath26"
       clipPathUnits="userSpaceOnUse"><path
         id="path24"
         d="M 4,216 H 252 V 40 H 4 Z" /></clipPath></defs><g
     transform="matrix(1.3333333,0,0,-1.3333333,-5.3333332,287.99999)"
     id="g10"><g
       id="g12"><g
         clip-path="url(#clipPath18)"
         id="g14"><g
           id="g20"><g
             id="g22" /><g
             id="g34"><g
               style="opacity:0.5"
               id="g32"
               clip-path="url(#clipPath26)"><g
                 id="g30"
                 transform="translate(251.9893,72.8213)"><path
                   id="path28"
                   style="fill:#ffffff;fill-opacity:1;fill-rule:nonzero;stroke:none"
                   d="m 0,0 -2.806,108.821 c -0.433,16.842 -13.994,30.51 -30.887,31.155 l -26.685,1.476 c -1.601,1.09 -3.533,1.727 -5.611,1.727 h -12 c -1.165,0 -2.285,-0.2 -3.326,-0.569 l -2.016,0.112 -8.043,0.445 -0.222,0.012 h -0.22 -0.173 -20 -24 -20 -0.173 -0.221 l -0.221,-0.012 -57.681,-3.191 c -16.893,-0.645 -30.454,-14.313 -30.888,-31.155 L -247.979,0 c -0.223,-8.675 2.996,-16.882 9.064,-23.108 6.104,-6.264 14.292,-9.713 23.056,-9.713 h 47.87 44 44 47.87 c 8.764,0 16.952,3.449 23.056,9.713 C -2.995,-16.882 0.224,-8.675 0,0" /></g></g></g></g><g
           transform="translate(241.1865,181.436)"
           id="g36"><path
             id="path38"
             style="fill:#cccccc;fill-opacity:1;fill-rule:nonzero;stroke:none"
             d="m 0,0 c -0.327,12.679 -10.517,22.917 -23.261,23.37 l -29.926,1.637 v -2.443 h -19.784 v 3.555 l -8.043,0.445 h -64.345 L -203.113,23.37 C -215.856,22.917 -226.046,12.679 -226.373,0 l -2.805,-108.821 c -0.348,-13.491 10.553,-24.615 24.121,-24.615 h 91.87 91.871 c 13.568,0 24.469,11.124 24.122,24.615 z" /></g><g
           transform="translate(80,200)"
           id="g40"><path
             id="path42"
             style="fill:#cccccc;fill-opacity:1;fill-rule:nonzero;stroke:none"
             d="m 0,0 8,-16 h 84 l 8,16 z" /></g><g
           transform="translate(224,68)"
           id="g44"><path
             id="path46"
             style="fill:#d9d9d9;fill-opacity:1;fill-rule:nonzero;stroke:none"
             d="m 0,0 h -192 c -6.6,0 -12,5.4 -12,12 v 88 c 0,6.6 5.4,12 12,12 H 0 c 6.6,0 12,-5.4 12,-12 V 12 C 12,5.4 6.6,0 0,0" /></g><g
           transform="translate(192,76)"
           id="g48"><path
             id="path50"
             style="fill:#cccccc;fill-opacity:1;fill-rule:nonzero;stroke:none"
             d="m 0,0 h -128 c -2.2,0 -4,1.8 -4,4 v 80 c 0,2.2 1.8,4 4,4 H 0 c 2.2,0 4,-1.8 4,-4 V 4 C 4,1.8 2.2,0 0,0" /></g><path
           id="path52"
           style="fill:#bfbfbf;fill-opacity:1;fill-rule:nonzero;stroke:none"
           d="M 192,80 H 64 v 80 h 128 z" /><g
           transform="translate(182.0693,154)"
           id="g54"><path
             id="path56"
             style="fill:#999999;fill-opacity:1;fill-rule:nonzero;stroke:none"
             d="m 0,0 h -108.138 c -2.168,0 -3.931,-1.695 -3.931,-3.778 v -60.445 c 0,-2.083 1.763,-3.777 3.931,-3.777 H 0 c 2.167,0 3.931,1.694 3.931,3.777 V -3.778 C 3.931,-1.695 2.167,0 0,0 m 0,-2 c 1.066,0 1.931,-0.796 1.931,-1.778 V -64.223 C 1.931,-65.204 1.066,-66 0,-66 h -108.138 c -1.067,0 -1.931,0.796 -1.931,1.777 v 60.445 c 0,0.982 0.864,1.778 1.931,1.778 L 0,-2" /></g><g
           transform="translate(82,144)"
           id="g58"><path
             id="path60"
             style="fill:#999999;fill-opacity:1;fill-rule:nonzero;stroke:none"
             d="m 0,0 c 0,-1.104 -0.896,-2 -2,-2 -1.104,0 -2,0.896 -2,2 0,1.104 0.896,2 2,2 1.104,0 2,-0.896 2,-2" /></g><g
           transform="translate(82,132)"
           id="g62"><path
             id="path64"
             style="fill:#999999;fill-opacity:1;fill-rule:nonzero;stroke:none"
             d="m 0,0 c 0,-1.104 -0.896,-2 -2,-2 -1.104,0 -2,0.896 -2,2 0,1.104 0.896,2 2,2 1.104,0 2,-0.896 2,-2" /></g><g
           transform="translate(82,120)"
           id="g66"><path
             id="path68"
             style="fill:#999999;fill-opacity:1;fill-rule:nonzero;stroke:none"
             d="m 0,0 c 0,-1.104 -0.896,-2 -2,-2 -1.104,0 -2,0.896 -2,2 0,1.104 0.896,2 2,2 1.104,0 2,-0.896 2,-2" /></g><g
           transform="translate(82,108)"
           id="g70"><path
             id="path72"
             style="fill:#999999;fill-opacity:1;fill-rule:nonzero;stroke:none"
             d="m 0,0 c 0,-1.104 -0.896,-2 -2,-2 -1.104,0 -2,0.896 -2,2 0,1.104 0.896,2 2,2 1.104,0 2,-0.896 2,-2" /></g><g
           transform="translate(82,96)"
           id="g74"><path
             id="path76"
             style="fill:#999999;fill-opacity:1;fill-rule:nonzero;stroke:none"
             d="m 0,0 c 0,-1.104 -0.896,-2 -2,-2 -1.104,0 -2,0.896 -2,2 0,1.104 0.896,2 2,2 1.104,0 2,-0.896 2,-2" /></g><g
           transform="translate(94,144)"
           id="g78"><path
             id="path80"
             style="fill:#999999;fill-opacity:1;fill-rule:nonzero;stroke:none"
             d="m 0,0 c 0,-1.104 -0.896,-2 -2,-2 -1.104,0 -2,0.896 -2,2 0,1.104 0.896,2 2,2 1.104,0 2,-0.896 2,-2" /></g><g
           transform="translate(94,132)"
           id="g82"><path
             id="path84"
             style="fill:#999999;fill-opacity:1;fill-rule:nonzero;stroke:none"
             d="m 0,0 c 0,-1.104 -0.896,-2 -2,-2 -1.104,0 -2,0.896 -2,2 0,1.104 0.896,2 2,2 1.104,0 2,-0.896 2,-2" /></g><g
           transform="translate(94,120)"
           id="g86"><path
             id="path88"
             style="fill:#999999;fill-opacity:1;fill-rule:nonzero;stroke:none"
             d="m 0,0 c 0,-1.104 -0.896,-2 -2,-2 -1.104,0 -2,0.896 -2,2 0,1.104 0.896,2 2,2 1.104,0 2,-0.896 2,-2" /></g><g
           transform="translate(94,108)"
           id="g90"><path
             id="path92"
             style="fill:#999999;fill-opacity:1;fill-rule:nonzero;stroke:none"
             d="m 0,0 c 0,-1.104 -0.896,-2 -2,-2 -1.104,0 -2,0.896 -2,2 0,1.104 0.896,2 2,2 1.104,0 2,-0.896 2,-2" /></g><g
           transform="translate(94,96)"
           id="g94"><path
             id="path96"
             style="fill:#999999;fill-opacity:1;fill-rule:nonzero;stroke:none"
             d="m 0,0 c 0,-1.104 -0.896,-2 -2,-2 -1.104,0 -2,0.896 -2,2 0,1.104 0.896,2 2,2 1.104,0 2,-0.896 2,-2" /></g><g
           transform="translate(106,144)"
           id="g98"><path
             id="path100"
             style="fill:#999999;fill-opacity:1;fill-rule:nonzero;stroke:none"
             d="m 0,0 c 0,-1.104 -0.896,-2 -2,-2 -1.104,0 -2,0.896 -2,2 0,1.104 0.896,2 2,2 1.104,0 2,-0.896 2,-2" /></g><g
           transform="translate(106,132)"
           id="g102"><path
             id="path104"
             style="fill:#999999;fill-opacity:1;fill-rule:nonzero;stroke:none"
             d="m 0,0 c 0,-1.104 -0.896,-2 -2,-2 -1.104,0 -2,0.896 -2,2 0,1.104 0.896,2 2,2 1.104,0 2,-0.896 2,-2" /></g><g
           transform="translate(106,120)"
           id="g106"><path
             id="path108"
             style="fill:#999999;fill-opacity:1;fill-rule:nonzero;stroke:none"
             d="m 0,0 c 0,-1.104 -0.896,-2 -2,-2 -1.104,0 -2,0.896 -2,2 0,1.104 0.896,2 2,2 1.104,0 2,-0.896 2,-2" /></g><g
           transform="translate(106,108)"
           id="g110"><path
             id="path112"
             style="fill:#999999;fill-opacity:1;fill-rule:nonzero;stroke:none"
             d="m 0,0 c 0,-1.104 -0.896,-2 -2,-2 -1.104,0 -2,0.896 -2,2 0,1.104 0.896,2 2,2 1.104,0 2,-0.896 2,-2" /></g><g
           transform="translate(106,96)"
           id="g114"><path
             id="path116"
             style="fill:#999999;fill-opacity:1;fill-rule:nonzero;stroke:none"
             d="m 0,0 c 0,-1.104 -0.896,-2 -2,-2 -1.104,0 -2,0.896 -2,2 0,1.104 0.896,2 2,2 1.104,0 2,-0.896 2,-2" /></g><g
           transform="translate(118,144)"
           id="g118"><path
             id="path120"
             style="fill:#999999;fill-opacity:1;fill-rule:nonzero;stroke:none"
             d="m 0,0 c 0,-1.104 -0.896,-2 -2,-2 -1.104,0 -2,0.896 -2,2 0,1.104 0.896,2 2,2 1.104,0 2,-0.896 2,-2" /></g><g
           transform="translate(118,132)"
           id="g122"><path
             id="path124"
             style="fill:#999999;fill-opacity:1;fill-rule:nonzero;stroke:none"
             d="m 0,0 c 0,-1.104 -0.896,-2 -2,-2 -1.104,0 -2,0.896 -2,2 0,1.104 0.896,2 2,2 1.104,0 2,-0.896 2,-2" /></g><g
           transform="translate(118,120)"
           id="g126"><path
             id="path128"
             style="fill:#999999;fill-opacity:1;fill-rule:nonzero;stroke:none"
             d="m 0,0 c 0,-1.104 -0.896,-2 -2,-2 -1.104,0 -2,0.896 -2,2 0,1.104 0.896,2 2,2 1.104,0 2,-0.896 2,-2" /></g><g
           transform="translate(118,108)"
           id="g130"><path
             id="path132"
             style="fill:#999999;fill-opacity:1;fill-rule:nonzero;stroke:none"
             d="m 0,0 c 0,-1.104 -0.896,-2 -2,-2 -1.104,0 -2,0.896 -2,2 0,1.104 0.896,2 2,2 1.104,0 2,-0.896 2,-2" /></g><g
           transform="translate(118,96)"
           id="g134"><path
             id="path136"
             style="fill:#999999;fill-opacity:1;fill-rule:nonzero;stroke:none"
             d="m 0,0 c 0,-1.104 -0.896,-2 -2,-2 -1.104,0 -2,0.896 -2,2 0,1.104 0.896,2 2,2 1.104,0 2,-0.896 2,-2" /></g><g
           transform="translate(130,144)"
           id="g138"><path
             id="path140"
             style="fill:#999999;fill-opacity:1;fill-rule:nonzero;stroke:none"
             d="m 0,0 c 0,-1.104 -0.896,-2 -2,-2 -1.104,0 -2,0.896 -2,2 0,1.104 0.896,2 2,2 1.104,0 2,-0.896 2,-2" /></g><g
           transform="translate(130,132)"
           id="g142"><path
             id="path144"
             style="fill:#999999;fill-opacity:1;fill-rule:nonzero;stroke:none"
             d="m 0,0 c 0,-1.104 -0.896,-2 -2,-2 -1.104,0 -2,0.896 -2,2 0,1.104 0.896,2 2,2 1.104,0 2,-0.896 2,-2" /></g><g
           transform="translate(130,120)"
           id="g146"><path
             id="path148"
             style="fill:#999999;fill-opacity:1;fill-rule:nonzero;stroke:none"
             d="m 0,0 c 0,-1.104 -0.896,-2 -2,-2 -1.104,0 -2,0.896 -2,2 0,1.104 0.896,2 2,2 1.104,0 2,-0.896 2,-2" /></g><g
           transform="translate(130,108)"
           id="g150"><path
             id="path152"
             style="fill:#999999;fill-opacity:1;fill-rule:nonzero;stroke:none"
             d="m 0,0 c 0,-1.104 -0.896,-2 -2,-2 -1.104,0 -2,0.896 -2,2 0,1.104 0.896,2 2,2 1.104,0 2,-0.896 2,-2" /></g><g
           transform="translate(130,96)"
           id="g154"><path
             id="path156"
             style="fill:#999999;fill-opacity:1;fill-rule:nonzero;stroke:none"
             d="m 0,0 c 0,-1.104 -0.896,-2 -2,-2 -1.104,0 -2,0.896 -2,2 0,1.104 0.896,2 2,2 1.104,0 2,-0.896 2,-2" /></g><g
           transform="translate(142,144)"
           id="g158"><path
             id="path160"
             style="fill:#999999;fill-opacity:1;fill-rule:nonzero;stroke:none"
             d="m 0,0 c 0,-1.104 -0.896,-2 -2,-2 -1.104,0 -2,0.896 -2,2 0,1.104 0.896,2 2,2 1.104,0 2,-0.896 2,-2" /></g><g
           transform="translate(142,132)"
           id="g162"><path
             id="path164"
             style="fill:#999999;fill-opacity:1;fill-rule:nonzero;stroke:none"
             d="m 0,0 c 0,-1.104 -0.896,-2 -2,-2 -1.104,0 -2,0.896 -2,2 0,1.104 0.896,2 2,2 1.104,0 2,-0.896 2,-2" /></g><g
           transform="translate(142,120)"
           id="g166"><path
             id="path168"
             style="fill:#999999;fill-opacity:1;fill-rule:nonzero;stroke:none"
             d="m 0,0 c 0,-1.104 -0.896,-2 -2,-2 -1.104,0 -2,0.896 -2,2 0,1.104 0.896,2 2,2 1.104,0 2,-0.896 2,-2" /></g><g
           transform="translate(142,108)"
           id="g170"><path
             id="path172"
             style="fill:#999999;fill-opacity:1;fill-rule:nonzero;stroke:none"
             d="m 0,0 c 0,-1.104 -0.896,-2 -2,-2 -1.104,0 -2,0.896 -2,2 0,1.104 0.896,2 2,2 1.104,0 2,-0.896 2,-2" /></g><g
           transform="translate(142,96)"
           id="g174"><path
             id="path176"
             style="fill:#999999;fill-opacity:1;fill-rule:nonzero;stroke:none"
             d="m 0,0 c 0,-1.104 -0.896,-2 -2,-2 -1.104,0 -2,0.896 -2,2 0,1.104 0.896,2 2,2 1.104,0 2,-0.896 2,-2" /></g><g
           transform="translate(154,144)"
           id="g178"><path
             id="path180"
             style="fill:#999999;fill-opacity:1;fill-rule:nonzero;stroke:none"
             d="m 0,0 c 0,-1.104 -0.896,-2 -2,-2 -1.104,0 -2,0.896 -2,2 0,1.104 0.896,2 2,2 1.104,0 2,-0.896 2,-2" /></g><g
           transform="translate(154,132)"
           id="g182"><path
             id="path184"
             style="fill:#999999;fill-opacity:1;fill-rule:nonzero;stroke:none"
             d="m 0,0 c 0,-1.104 -0.896,-2 -2,-2 -1.104,0 -2,0.896 -2,2 0,1.104 0.896,2 2,2 1.104,0 2,-0.896 2,-2" /></g><g
           transform="translate(154,120)"
           id="g186"><path
             id="path188"
             style="fill:#999999;fill-opacity:1;fill-rule:nonzero;stroke:none"
             d="m 0,0 c 0,-1.104 -0.896,-2 -2,-2 -1.104,0 -2,0.896 -2,2 0,1.104 0.896,2 2,2 1.104,0 2,-0.896 2,-2" /></g><g
           transform="translate(154,108)"
           id="g190"><path
             id="path192"
             style="fill:#999999;fill-opacity:1;fill-rule:nonzero;stroke:none"
             d="m 0,0 c 0,-1.104 -0.896,-2 -2,-2 -1.104,0 -2,0.896 -2,2 0,1.104 0.896,2 2,2 1.104,0 2,-0.896 2,-2" /></g><g
           transform="translate(154,96)"
           id="g194"><path
             id="path196"
             style="fill:#999999;fill-opacity:1;fill-rule:nonzero;stroke:none"
             d="m 0,0 c 0,-1.104 -0.896,-2 -2,-2 -1.104,0 -2,0.896 -2,2 0,1.104 0.896,2 2,2 1.104,0 2,-0.896 2,-2" /></g><g
           transform="translate(166,144)"
           id="g198"><path
             id="path200"
             style="fill:#999999;fill-opacity:1;fill-rule:nonzero;stroke:none"
             d="m 0,0 c 0,-1.104 -0.896,-2 -2,-2 -1.104,0 -2,0.896 -2,2 0,1.104 0.896,2 2,2 1.104,0 2,-0.896 2,-2" /></g><g
           transform="translate(166,132)"
           id="g202"><path
             id="path204"
             style="fill:#999999;fill-opacity:1;fill-rule:nonzero;stroke:none"
             d="m 0,0 c 0,-1.104 -0.896,-2 -2,-2 -1.104,0 -2,0.896 -2,2 0,1.104 0.896,2 2,2 1.104,0 2,-0.896 2,-2" /></g><g
           transform="translate(166,120)"
           id="g206"><path
             id="path208"
             style="fill:#999999;fill-opacity:1;fill-rule:nonzero;stroke:none"
             d="m 0,0 c 0,-1.104 -0.896,-2 -2,-2 -1.104,0 -2,0.896 -2,2 0,1.104 0.896,2 2,2 1.104,0 2,-0.896 2,-2" /></g><g
           transform="translate(166,108)"
           id="g210"><path
             id="path212"
             style="fill:#999999;fill-opacity:1;fill-rule:nonzero;stroke:none"
             d="m 0,0 c 0,-1.104 -0.896,-2 -2,-2 -1.104,0 -2,0.896 -2,2 0,1.104 0.896,2 2,2 1.104,0 2,-0.896 2,-2" /></g><g
           transform="translate(166,96)"
           id="g214"><path
             id="path216"
             style="fill:#999999;fill-opacity:1;fill-rule:nonzero;stroke:none"
             d="m 0,0 c 0,-1.104 -0.896,-2 -2,-2 -1.104,0 -2,0.896 -2,2 0,1.104 0.896,2 2,2 1.104,0 2,-0.896 2,-2" /></g><g
           transform="translate(178,144)"
           id="g218"><path
             id="path220"
             style="fill:#999999;fill-opacity:1;fill-rule:nonzero;stroke:none"
             d="m 0,0 c 0,-1.104 -0.896,-2 -2,-2 -1.104,0 -2,0.896 -2,2 0,1.104 0.896,2 2,2 1.104,0 2,-0.896 2,-2" /></g><g
           transform="translate(178,132)"
           id="g222"><path
             id="path224"
             style="fill:#999999;fill-opacity:1;fill-rule:nonzero;stroke:none"
             d="m 0,0 c 0,-1.104 -0.896,-2 -2,-2 -1.104,0 -2,0.896 -2,2 0,1.104 0.896,2 2,2 1.104,0 2,-0.896 2,-2" /></g><g
           transform="translate(178,120)"
           id="g226"><path
             id="path228"
             style="fill:#999999;fill-opacity:1;fill-rule:nonzero;stroke:none"
             d="m 0,0 c 0,-1.104 -0.896,-2 -2,-2 -1.104,0 -2,0.896 -2,2 0,1.104 0.896,2 2,2 1.104,0 2,-0.896 2,-2" /></g><g
           transform="translate(178,108)"
           id="g230"><path
             id="path232"
             style="fill:#999999;fill-opacity:1;fill-rule:nonzero;stroke:none"
             d="m 0,0 c 0,-1.104 -0.896,-2 -2,-2 -1.104,0 -2,0.896 -2,2 0,1.104 0.896,2 2,2 1.104,0 2,-0.896 2,-2" /></g><g
           transform="translate(178,96)"
           id="g234"><path
             id="path236"
             style="fill:#999999;fill-opacity:1;fill-rule:nonzero;stroke:none"
             d="m 0,0 c 0,-1.104 -0.896,-2 -2,-2 -1.104,0 -2,0.896 -2,2 0,1.104 0.896,2 2,2 1.104,0 2,-0.896 2,-2" /></g><g
           transform="translate(136,60)"
           id="g238"><path
             id="path240"
             style="fill:#bfbfbf;fill-opacity:1;fill-rule:nonzero;stroke:none"
             d="m 0,0 c 0,-2.209 -3.582,-4 -8,-4 -4.418,0 -8,1.791 -8,4 0,2.209 3.582,4 8,4 4.418,0 8,-1.791 8,-4" /></g><path
           id="path242"
           style="fill:#999999;fill-opacity:1;fill-rule:nonzero;stroke:none"
           d="M 172,48 H 84 v 12 h 88 z" /><g
           transform="translate(52,164)"
           id="g244"><path
             id="path246"
             style="fill:#8c8c8c;fill-opacity:1;fill-rule:nonzero;stroke:none"
             d="m 0,0 h -24 c -2.209,0 -4,-1.791 -4,-4 v -20 c 0,-8.836 7.164,-16 16,-16 8.836,0 16,7.164 16,16 V -4 C 4,-1.791 2.209,0 0,0" /></g><g
           transform="translate(228,164)"
           id="g248"><path
             id="path250"
             style="fill:#8c8c8c;fill-opacity:1;fill-rule:nonzero;stroke:none"
             d="m 0,0 h -24 c -2.209,0 -4,-1.791 -4,-4 v -20 c 0,-8.836 7.163,-16 16,-16 8.837,0 16,7.164 16,16 V -4 C 4,-1.791 2.209,0 0,0" /></g><path
           id="path252"
           style="fill:#bfbfbf;fill-opacity:1;fill-rule:nonzero;stroke:none"
           d="m 76,168 h -8 v 8 h 8 z" /><path
           id="path254"
           style="fill:#bfbfbf;fill-opacity:1;fill-rule:nonzero;stroke:none"
           d="m 88,168 h -8 v 8 h 8 z" /><path
           id="path256"
           style="fill:#bfbfbf;fill-opacity:1;fill-rule:nonzero;stroke:none"
           d="m 100,168 h -8 v 8 h 8 z" /><path
           id="path258"
           style="fill:#bfbfbf;fill-opacity:1;fill-rule:nonzero;stroke:none"
           d="m 112,168 h -8 v 8 h 8 z" /><path
           id="path260"
           style="fill:#bfbfbf;fill-opacity:1;fill-rule:nonzero;stroke:none"
           d="m 124,168 h -8 v 8 h 8 z" /><path
           id="path262"
           style="fill:#bfbfbf;fill-opacity:1;fill-rule:nonzero;stroke:none"
           d="m 140,168 h -8 v 8 h 8 z" /><path
           id="path264"
           style="fill:#bfbfbf;fill-opacity:1;fill-rule:nonzero;stroke:none"
           d="m 152,168 h -8 v 8 h 8 z" /><path
           id="path266"
           style="fill:#bfbfbf;fill-opacity:1;fill-rule:nonzero;stroke:none"
           d="m 164,168 h -8 v 8 h 8 z" /><path
           id="path268"
           style="fill:#bfbfbf;fill-opacity:1;fill-rule:nonzero;stroke:none"
           d="m 176,168 h -8 v 8 h 8 z" /><g
           transform="translate(192,172)"
           id="g270"><path
             id="path272"
             style="fill:#bfbfbf;fill-opacity:1;fill-rule:nonzero;stroke:none"
             d="m 0,0 c 0,-2.209 -1.791,-4 -4,-4 -2.209,0 -4,1.791 -4,4 0,2.209 1.791,4 4,4 2.209,0 4,-1.791 4,-4" /></g><g
           transform="translate(112,192)"
           id="g274"><path
             id="path276"
             style="fill:#bfbfbf;fill-opacity:1;fill-rule:nonzero;stroke:none"
             d="m 0,0 h -12 c -2.209,0 -4,1.791 -4,4 V 16 H 4 V 4 C 4,1.791 2.209,0 0,0" /></g><g
           transform="translate(156,192)"
           id="g278"><path
             id="path280"
             style="fill:#bfbfbf;fill-opacity:1;fill-rule:nonzero;stroke:none"
             d="m 0,0 h -12 c -2.209,0 -4,1.791 -4,4 V 16 H 4 V 4 C 4,1.791 2.209,0 0,0" /></g><g
           transform="translate(60,188)"
           id="g282"><path
             id="path284"
             style="fill:#8c8c8c;fill-opacity:1;fill-rule:nonzero;stroke:none"
             d="M 0,0 H 4 L -4,-8 H -8 Z" /></g><g
           transform="translate(68,188)"
           id="g286"><path
             id="path288"
             style="fill:#8c8c8c;fill-opacity:1;fill-rule:nonzero;stroke:none"
             d="M 0,0 H 4 L -4,-8 H -8 Z" /></g><path
           id="path290"
           style="fill:#8c8c8c;fill-opacity:1;fill-rule:nonzero;stroke:none"
           d="m 42,192 h -2 v 12 h 2 z" /><path
           id="path292"
           style="fill:#8c8c8c;fill-opacity:1;fill-rule:nonzero;stroke:none"
           d="m 46,192 h -2 v 12 h 2 z" /><path
           id="path294"
           style="fill:#8c8c8c;fill-opacity:1;fill-rule:nonzero;stroke:none"
           d="m 50,192 h -2 v 12 h 2 z" /><path
           id="path296"
           style="fill:#8c8c8c;fill-opacity:1;fill-rule:nonzero;stroke:none"
           d="m 54,192 h -2 v 12 h 2 z" /><path
           id="path298"
           style="fill:#8c8c8c;fill-opacity:1;fill-rule:nonzero;stroke:none"
           d="m 58,192 h -2 v 12 h 2 z" /><path
           id="path300"
           style="fill:#8c8c8c;fill-opacity:1;fill-rule:nonzero;stroke:none"
           d="m 62,192 h -2 v 12 h 2 z" /><path
           id="path302"
           style="fill:#8c8c8c;fill-opacity:1;fill-rule:nonzero;stroke:none"
           d="m 66,192 h -2 v 12 h 2 z" /><path
           id="path304"
           style="fill:#8c8c8c;fill-opacity:1;fill-rule:nonzero;stroke:none"
           d="m 192,192 h -2 v 12 h 2 z" /><path
           id="path306"
           style="fill:#8c8c8c;fill-opacity:1;fill-rule:nonzero;stroke:none"
           d="m 196,192 h -2 v 12 h 2 z" /><path
           id="path308"
           style="fill:#8c8c8c;fill-opacity:1;fill-rule:nonzero;stroke:none"
           d="m 200,192 h -2 v 12 h 2 z" /><path
           id="path310"
           style="fill:#8c8c8c;fill-opacity:1;fill-rule:nonzero;stroke:none"
           d="m 204,192 h -2 v 12 h 2 z" /><path
           id="path312"
           style="fill:#8c8c8c;fill-opacity:1;fill-rule:nonzero;stroke:none"
           d="m 208,192 h -2 v 12 h 2 z" /><path
           id="path314"
           style="fill:#8c8c8c;fill-opacity:1;fill-rule:nonzero;stroke:none"
           d="m 212,192 h -2 v 12 h 2 z" /><path
           id="path316"
           style="fill:#8c8c8c;fill-opacity:1;fill-rule:nonzero;stroke:none"
           d="m 216,192 h -2 v 12 h 2 z" /><g
           transform="translate(230,188)"
           id="g318"><path
             id="path320"
             style="fill:#8c8c8c;fill-opacity:1;fill-rule:nonzero;stroke:none"
             d="M 0,0 V 0 C -1.1,0 -2,0.9 -2,2 V 6 C -2,7.1 -1.1,8 0,8 1.1,8 2,7.1 2,6 V 2 C 2,0.9 1.1,0 0,0" /></g><g
           transform="translate(188,204)"
           id="g322"><path
             id="path324"
             style="fill:#8c8c8c;fill-opacity:1;fill-rule:nonzero;stroke:none"
             d="m 0,0 h -16 v 2 c 0,1.1 0.9,2 2,2 H -2 C -0.9,4 0,3.1 0,2 Z" /></g><g
           transform="translate(134,184)"
           id="g326"><path
             id="path328"
             style="fill:#d9d9d9;fill-opacity:1;fill-rule:nonzero;stroke:none"
             d="m 0,0 h -12 v 18 c 0,1.104 0.896,2 2,2 h 8 c 1.104,0 2,-0.896 2,-2 z" /></g><g
           transform="translate(134,184)"
           id="g330"><path
             id="path332"
             style="fill:#e6e6e6;fill-opacity:1;fill-rule:nonzero;stroke:none"
             d="m 0,0 h -12 l 3.621,14.485 C -8.156,15.375 -7.356,16 -6.438,16 h 0.876 c 0.918,0 1.718,-0.625 1.941,-1.515 z" /></g><path
           id="path334"
           style="fill:#d9d9d9;fill-opacity:1;fill-rule:nonzero;stroke:none"
           d="m 94,184 h -2 v 20 h 2 z" /><path
           id="path336"
           style="fill:#d9d9d9;fill-opacity:1;fill-rule:nonzero;stroke:none"
           d="m 98,184 h -2 v 4 h 2 z" /><path
           id="path338"
           style="fill:#d9d9d9;fill-opacity:1;fill-rule:nonzero;stroke:none"
           d="m 102,184 h -2 v 4 h 2 z" /><path
           id="path340"
           style="fill:#d9d9d9;fill-opacity:1;fill-rule:nonzero;stroke:none"
           d="m 106,184 h -2 v 4 h 2 z" /><path
           id="path342"
           style="fill:#d9d9d9;fill-opacity:1;fill-rule:nonzero;stroke:none"
           d="m 110,184 h -2 v 4 h 2 z" /><path
           id="path344"
           style="fill:#d9d9d9;fill-opacity:1;fill-rule:nonzero;stroke:none"
           d="m 114,184 h -2 v 4 h 2 z" /><path
           id="path346"
           style="fill:#d9d9d9;fill-opacity:1;fill-rule:nonzero;stroke:none"
           d="m 118,184 h -2 v 20 h 2 z" /><path
           id="path348"
           style="fill:#d9d9d9;fill-opacity:1;fill-rule:nonzero;stroke:none"
           d="m 140,184 h -2 v 20 h 2 z" /><path
           id="path350"
           style="fill:#d9d9d9;fill-opacity:1;fill-rule:nonzero;stroke:none"
           d="m 144,184 h -2 v 4 h 2 z" /><path
           id="path352"
           style="fill:#d9d9d9;fill-opacity:1;fill-rule:nonzero;stroke:none"
           d="m 148,184 h -2 v 4 h 2 z" /><path
           id="path354"
           style="fill:#d9d9d9;fill-opacity:1;fill-rule:nonzero;stroke:none"
           d="m 152,184 h -2 v 4 h 2 z" /><path
           id="path356"
           style="fill:#d9d9d9;fill-opacity:1;fill-rule:nonzero;stroke:none"
           d="m 156,184 h -2 v 4 h 2 z" /><path
           id="path358"
           style="fill:#d9d9d9;fill-opacity:1;fill-rule:nonzero;stroke:none"
           d="m 160,184 h -2 v 4 h 2 z" /><path
           id="path360"
           style="fill:#d9d9d9;fill-opacity:1;fill-rule:nonzero;stroke:none"
           d="m 164,184 h -2 v 20 h 2 z" /></g></g></g></svg>