<?xml version="1.0" encoding="iso-8859-1"?>
<!-- Generator: Adobe Illustrator 27.8.1, SVG Export Plug-In . SVG Version: 6.00 Build 0)  -->
<svg version="1.1" id="Layer_1" xmlns="http://www.w3.org/2000/svg" xmlns:xlink="http://www.w3.org/1999/xlink" x="0px" y="0px"
	 viewBox="0 0 256 256" style="enable-background:new 0 0 256 256;" xml:space="preserve">
<path style="opacity:0.5;fill:#FFFFFF;" d="M236,112c-1.381,0-2.721,0.176-4,0.506V27.926C232,19.144,224.856,12,216.074,12H19.926
	C11.144,12,4,19.144,4,27.926v200.149C4,236.856,11.144,244,19.926,244h196.149c8.781,0,15.926-7.144,15.926-15.926V204h8
	c6.617,0,12-5.383,12-12v-64C252,119.178,244.822,112,236,112z"/>
<rect x="220" y="172" style="fill:#FDB913;" width="12" height="20"/>
<path style="fill:#FFCB05;" d="M216.074,236H19.926c-4.377,0-7.926-3.548-7.926-7.926V27.926C12,23.548,15.548,20,19.926,20h196.149
	c4.377,0,7.926,3.548,7.926,7.926v200.149C224,232.452,220.452,236,216.074,236z"/>
<path style="fill:#333333;" d="M24,136h168c4.418,0,8-3.582,8-8V32c0-4.418-3.582-8-8-8H24c-4.418,0-8,3.582-8,8v96
	C16,132.418,19.582,136,24,136z"/>
<rect x="24" y="32" style="fill:#808080;" width="168" height="96"/>
<path style="fill:#FDB913;" d="M84,176H72v-12c0-4.418-3.582-8-8-8h0c-4.418,0-8,3.582-8,8v12H44c-4.418,0-8,3.582-8,8v0
	c0,4.418,3.582,8,8,8h12v12c0,4.418,3.582,8,8,8h0c4.418,0,8-3.582,8-8v-12h12c4.418,0,8-3.582,8-8v0C92,179.582,88.418,176,84,176z
	"/>
<circle style="fill:#FDB913;" cx="142" cy="170" r="14"/>
<circle style="fill:#FDB913;" cx="182" cy="170" r="14"/>
<circle style="fill:#FDB913;" cx="212" cy="52" r="8"/>
<circle style="fill:#BFBFBF;" cx="212" cy="32" r="8"/>
<circle style="fill:#333333;" cx="212" cy="32" r="4"/>
<circle style="fill:#BFBFBF;" cx="212" cy="224" r="8"/>
<circle style="fill:#333333;" cx="212" cy="224" r="4"/>
<circle style="fill:#BFBFBF;" cx="24" cy="224" r="8"/>
<circle style="fill:#333333;" cx="24" cy="224" r="4"/>
<path style="fill:#BFBFBF;" d="M212,104L212,104c-2.209,0-4-1.791-4-4V72c0-2.209,1.791-4,4-4l0,0c2.209,0,4,1.791,4,4v28
	C216,102.209,214.209,104,212,104z"/>
<path style="fill:#BFBFBF;" d="M236,120L236,120c4.418,0,8,3.582,8,8v64c0,2.209-1.791,4-4,4h-12v-68
	C228,123.582,231.582,120,236,120z"/>
<path style="fill:#FFD500;" d="M236,132L236,132c-2.209,0-4-1.791-4-4v0c0-2.209,1.791-4,4-4l0,0c2.209,0,4,1.791,4,4v0
	C240,130.209,238.209,132,236,132z"/>
</svg>
