<svg xmlns="http://www.w3.org/2000/svg" xml:space="preserve" viewBox="0 0 256 256"><path d="M236 112a16 16 0 0 0-4 .506v-84.58C232 19.144 224.856 12 216.074 12H19.926C11.144 12 4 19.144 4 27.926v200.149C4 236.856 11.144 244 19.926 244h196.149c8.781 0 15.926-7.144 15.926-15.926V204h8c6.617 0 12-5.383 12-12v-64c-.001-8.822-7.179-16-16.001-16" style="opacity:.5;fill:#fff"/><path d="M220 172h12v20h-12z" style="fill:#fdb913"/><path d="M216.074 236H19.926A7.926 7.926 0 0 1 12 228.074V27.926A7.925 7.925 0 0 1 19.926 20h196.149a7.926 7.926 0 0 1 7.926 7.926v200.149a7.927 7.927 0 0 1-7.927 7.925" style="fill:#ffcb05"/><path d="M24 136h168a8 8 0 0 0 8-8V32a8 8 0 0 0-8-8H24a8 8 0 0 0-8 8v96a8 8 0 0 0 8 8" style="fill:#333"/><path d="M24 32h168v96H24z" style="fill:gray"/><path d="M84 176H72v-12a8 8 0 0 0-16 0v12H44a8 8 0 0 0 0 16h12v12a8 8 0 0 0 16 0v-12h12a8 8 0 0 0 0-16" style="fill:#fdb913"/><circle cx="142" cy="170" r="14" style="fill:#fdb913"/><circle cx="182" cy="170" r="14" style="fill:#fdb913"/><circle cx="212" cy="52" r="8" style="fill:#fdb913"/><circle cx="212" cy="32" r="8" style="fill:#bfbfbf"/><circle cx="212" cy="32" r="4" style="fill:#333"/><circle cx="212" cy="224" r="8" style="fill:#bfbfbf"/><circle cx="212" cy="224" r="4" style="fill:#333"/><circle cx="24" cy="224" r="8" style="fill:#bfbfbf"/><circle cx="24" cy="224" r="4" style="fill:#333"/><path d="M212 104a4 4 0 0 1-4-4V72a4 4 0 0 1 8 0v28a4 4 0 0 1-4 4m24 16a8 8 0 0 1 8 8v64a4 4 0 0 1-4 4h-12v-68a8 8 0 0 1 8-8" style="fill:#bfbfbf"/><path d="M236 132a4 4 0 0 1 0-8 4 4 0 0 1 0 8" style="fill:#ffd500"/></svg>