<?xml version="1.0" encoding="UTF-8" standalone="no"?>
<svg
   xmlns:dc="http://purl.org/dc/elements/1.1/"
   xmlns:cc="http://creativecommons.org/ns#"
   xmlns:rdf="http://www.w3.org/1999/02/22-rdf-syntax-ns#"
   xmlns:svg="http://www.w3.org/2000/svg"
   xmlns="http://www.w3.org/2000/svg"
   viewBox="0 0 288 330.66665"
   height="330.66666"
   width="288"
   xml:space="preserve"
   id="svg2"
   version="1.1"><metadata
     id="metadata8"><rdf:RDF><cc:Work
         rdf:about=""><dc:format>image/svg+xml</dc:format><dc:type
           rdf:resource="http://purl.org/dc/dcmitype/StillImage" /></cc:Work></rdf:RDF></metadata><defs
     id="defs6"><clipPath
       id="clipPath18"
       clipPathUnits="userSpaceOnUse"><path
         id="path16"
         d="M 0,256 H 256 V 0 H 0 Z" /></clipPath><clipPath
       id="clipPath26"
       clipPathUnits="userSpaceOnUse"><path
         id="path24"
         d="M 20,252 H 236 V 3.99998 H 20 Z" /></clipPath></defs><g
     transform="matrix(1.3333333,0,0,-1.3333333,-26.666666,335.99999)"
     id="g10"><g
       id="g12"><g
         clip-path="url(#clipPath18)"
         id="g14"><g
           id="g20"><g
             id="g22" /><g
             id="g34"><g
               style="opacity:0.5"
               id="g32"
               clip-path="url(#clipPath26)"><g
                 id="g30"
                 transform="translate(210,252)"><path
                   id="path28"
                   style="fill:#ffffff;fill-opacity:1;fill-rule:nonzero;stroke:none"
                   d="m 0,0 h -164 c -14.336,0 -26,-11.664 -26,-26 v -182.651 c 0,-12.811 9.156,-23.583 21.786,-25.657 l 64.375,-11.938 0.097,-0.018 0.097,-0.015 c 7.136,-1.142 14.418,-1.721 21.645,-1.721 7.227,0 14.509,0.579 21.645,1.721 l 0.097,0.015 0.098,0.018 64.374,11.938 C 16.844,-232.234 26,-221.462 26,-208.651 V -26 C 26,-11.664 14.337,0 0,0" /></g></g></g></g><g
           transform="translate(212.8437,25.5752)"
           id="g36"><path
             id="path38"
             style="fill:#354f9f;fill-opacity:1;fill-rule:nonzero;stroke:none"
             d="m 0,0 -64.463,-11.955 c -13.501,-2.16 -27.26,-2.16 -40.762,0 L -169.687,0 c -8.733,1.397 -15.157,8.931 -15.157,17.773 v 182.652 c 0,9.941 8.059,18 18,18 h 164 c 9.942,0 18,-8.059 18,-18 V 17.773 C 15.156,8.931 8.732,1.397 0,0" /></g><path
           id="path40"
           style="fill:#263979;fill-opacity:1;fill-rule:nonzero;stroke:none"
           d="M 80,108 H 28 v 2 h 52 z" /><path
           id="path42"
           style="fill:#263979;fill-opacity:1;fill-rule:nonzero;stroke:none"
           d="m 228,108 h -52 v 2 h 52 z" /><g
           transform="translate(212,244)"
           id="g44"><path
             id="path46"
             style="fill:#263979;fill-opacity:1;fill-rule:nonzero;stroke:none"
             d="M 0,0 C 0,0 12,-4 8,-40 4,-76 -4,-112 16,-176 V -16 C 16,-7.164 8.837,0 0,0" /></g><g
           transform="translate(44,244)"
           id="g48"><path
             id="path50"
             style="fill:#263979;fill-opacity:1;fill-rule:nonzero;stroke:none"
             d="m 0,0 c 0,0 -12,-4 -8,-40 4,-36 12,-72 -8,-136 v 160 c 0,8.836 7.164,16 16,16" /></g><g
           transform="translate(128,88)"
           id="g52"><path
             id="path54"
             style="fill:#263979;fill-opacity:1;fill-rule:nonzero;stroke:none"
             d="m 0,0 c -33.137,0 -60,26.863 -60,60 0,33.137 26.863,60 60,60 C 33.137,120 60,93.137 60,60 60,26.863 33.137,0 0,0 m -48.694,117 c -3.645,0 -6.641,2.737 -6.972,6.366 L -55.723,124 H 55.723 l -0.057,-0.634 C 55.336,119.737 52.339,117 48.694,117 H 24.375 C 16.889,120.214 8.65,122 0,122 c -8.65,0 -16.889,-1.786 -24.375,-5 z m -7.393,11 H 56.087 l -0.182,-2 h -111.81 z m -0.363,4 h 112.9 l -0.181,-2 H -56.269 Z m -0.364,4 H 56.814 l -0.182,-2 H -56.632 Z m -0.364,4 H 57.178 l -0.182,-2 H -56.996 Z m -0.364,4 H 57.541 l -0.182,-2 H -57.359 Z m -0.363,4 h 115.81 l -0.182,-2 H -57.723 Z m 84.489,-32 h 22.11 c 4.138,0 7.593,3.155 7.967,7.276 l 0.067,0.724 2.909,32 h -1.005 l -0.545,-6 H -58.087 l -0.545,6 h -1.004 l 2.908,-32 0.066,-0.724 c 0.375,-4.121 3.83,-7.276 7.968,-7.276 h 22.111 C -47.504,106.028 -62,84.678 -62,60 -62,25.813 -34.187,-2 0,-2 c 34.187,0 62,27.813 62,62 0,24.678 -14.496,46.028 -35.416,56" /></g><g
           transform="translate(62,96)"
           id="g56"><path
             id="path58"
             style="fill:#16a085;fill-opacity:1;fill-rule:nonzero;stroke:none"
             d="m 0,0 h -12 c -1.104,0 -2,0.896 -2,2 0,1.104 0.896,2 2,2 H 0 C 1.104,4 2,3.104 2,2 2,0.896 1.104,0 0,0" /></g><g
           transform="translate(56,80)"
           id="g60"><path
             id="path62"
             style="fill:#0e6654;fill-opacity:1;fill-rule:nonzero;stroke:none"
             d="m 0,0 h -4 c -2.209,0 -4,1.791 -4,4 0,2.209 1.791,4 4,4 H 0 C 2.209,8 4,6.209 4,4 4,1.791 2.209,0 0,0" /></g><g
           transform="translate(60,80)"
           id="g64"><path
             id="path66"
             style="fill:#16a085;fill-opacity:1;fill-rule:nonzero;stroke:none"
             d="m 0,0 h -4 c -2.209,0 -4,1.791 -4,4 0,2.209 1.791,4 4,4 H 0 C 2.209,8 4,6.209 4,4 4,1.791 2.209,0 0,0" /></g><g
           transform="translate(100,40)"
           id="g68"><path
             id="path70"
             style="fill:#16a085;fill-opacity:1;fill-rule:nonzero;stroke:none"
             d="m 0,0 c 0,-1.657 -1.791,-3 -4,-3 -2.209,0 -4,1.343 -4,3 0,1.657 1.791,3 4,3 2.209,0 4,-1.343 4,-3" /></g><g
           transform="translate(84,40)"
           id="g72"><path
             id="path74"
             style="fill:#4b5da7;fill-opacity:1;fill-rule:nonzero;stroke:none"
             d="m 0,0 c 0,-1.657 -1.791,-3 -4,-3 -2.209,0 -4,1.343 -4,3 0,1.657 1.791,3 4,3 2.209,0 4,-1.343 4,-3" /></g><g
           transform="translate(91,48)"
           id="g76"><path
             id="path78"
             style="fill:#ed4792;fill-opacity:1;fill-rule:nonzero;stroke:none"
             d="m 0,0 c 0,-2.209 -1.343,-4 -3,-4 -1.657,0 -3,1.791 -3,4 0,2.209 1.343,4 3,4 1.657,0 3,-1.791 3,-4" /></g><g
           transform="translate(91,32)"
           id="g80"><path
             id="path82"
             style="fill:#e77f22;fill-opacity:1;fill-rule:nonzero;stroke:none"
             d="m 0,0 c 0,-2.209 -1.343,-4 -3,-4 -1.657,0 -3,1.791 -3,4 0,2.209 1.343,4 3,4 1.657,0 3,-1.791 3,-4" /></g><g
           transform="translate(160,38)"
           id="g84"><path
             id="path86"
             style="fill:#ffff00;fill-opacity:1;fill-rule:nonzero;stroke:none"
             d="m 0,0 c 0,-3.313 -2.687,-6 -6,-6 -3.313,0 -6,2.687 -6,6 0,3.313 2.687,6 6,6 3.313,0 6,-2.687 6,-6" /></g><g
           transform="translate(180,42)"
           id="g88"><path
             id="path90"
             style="fill:#e6e6e6;fill-opacity:1;fill-rule:nonzero;stroke:none"
             d="m 0,0 c 0,-3.313 -2.687,-6 -6,-6 -3.313,0 -6,2.687 -6,6 0,3.313 2.687,6 6,6 3.313,0 6,-2.687 6,-6" /></g><g
           transform="translate(204,92)"
           id="g92"><path
             id="path94"
             style="fill:#ffff00;fill-opacity:1;fill-rule:nonzero;stroke:none"
             d="m 0,0 c 0,-4.418 -3.582,-8 -8,-8 -4.418,0 -8,3.582 -8,8 0,4.418 3.582,8 8,8 4.418,0 8,-3.582 8,-8" /></g><g
           transform="translate(60,24)"
           id="g96"><path
             id="path98"
             style="fill:#263979;fill-opacity:1;fill-rule:nonzero;stroke:none"
             d="M 0,0 7.357,36.784 C 7.731,38.654 9.373,40 11.279,40 h 113.442 c 1.907,0 3.549,-1.346 3.923,-3.216 L 136,0 h 2.04 l -0.079,0.393 -7.357,36.784 C 130.045,39.972 127.571,42 124.721,42 H 11.279 C 8.429,42 5.955,39.972 5.396,37.177 L -1.961,0.393 -2.04,0 Z" /></g><path
           id="path100"
           style="fill:#263979;fill-opacity:1;fill-rule:nonzero;stroke:none"
           d="m 140,60 h -24 v 8 h 24 z" /><g
           transform="translate(88,124)"
           id="g102"><path
             id="path104"
             style="fill:#263979;fill-opacity:1;fill-rule:nonzero;stroke:none"
             d="m 0,0 c 0,-4.418 -0.896,-8 -2,-8 -1.104,0 -2,3.582 -2,8 0,4.418 0.896,8 2,8 1.104,0 2,-3.582 2,-8" /></g><g
           transform="translate(172,124)"
           id="g106"><path
             id="path108"
             style="fill:#263979;fill-opacity:1;fill-rule:nonzero;stroke:none"
             d="m 0,0 c 0,-4.418 -0.896,-8 -2,-8 -1.104,0 -2,3.582 -2,8 0,4.418 0.896,8 2,8 1.104,0 2,-3.582 2,-8" /></g><g
           transform="translate(116,118)"
           id="g110"><path
             id="path112"
             style="fill:#263979;fill-opacity:1;fill-rule:nonzero;stroke:none"
             d="m 0,0 c 0,-7.732 -0.896,-14 -2,-14 -1.104,0 -2,6.268 -2,14 0,7.732 0.896,14 2,14 1.104,0 2,-6.268 2,-14" /></g><g
           transform="translate(144,118)"
           id="g114"><path
             id="path116"
             style="fill:#263979;fill-opacity:1;fill-rule:nonzero;stroke:none"
             d="m 0,0 c 0,-7.732 -0.896,-14 -2,-14 -1.104,0 -2,6.268 -2,14 0,7.732 0.896,14 2,14 1.104,0 2,-6.268 2,-14" /></g></g></g></g></svg>