<svg xmlns="http://www.w3.org/2000/svg" xml:space="preserve" width="288" height="330.667" viewBox="0 0 288 330.667"><defs><clipPath id="a" clipPathUnits="userSpaceOnUse"><path d="M0 256h256V0H0Z"/></clipPath><clipPath id="b" clipPathUnits="userSpaceOnUse"><path d="M20 252h216V4H20Z"/></clipPath></defs><g clip-path="url(#a)" transform="matrix(1.33333 0 0 -1.33333 -26.667 336)"><g clip-path="url(#b)" style="opacity:.5"><path d="M0 0h-164c-14.336 0-26-11.664-26-26v-182.651c0-12.811 9.156-23.583 21.786-25.657l64.375-11.938.097-.018.097-.015A137.4 137.4 0 0 1-82-248c7.227 0 14.509.579 21.645 1.721l.097.015.098.018 64.374 11.938C16.844-232.234 26-221.462 26-208.651V-26C26-11.664 14.337 0 0 0" style="fill:#fff;fill-opacity:1;fill-rule:nonzero;stroke:none" transform="translate(210 252)"/></g><path d="m0 0-64.463-11.955a129 129 0 0 0-40.762 0L-169.687 0c-8.733 1.397-15.157 8.931-15.157 17.773v182.652c0 9.941 8.059 18 18 18h164c9.942 0 18-8.059 18-18V17.773C15.156 8.931 8.732 1.397 0 0" style="fill:#354f9f;fill-opacity:1;fill-rule:nonzero;stroke:none" transform="translate(212.844 25.575)"/><path d="M80 108H28v2h52zm148 0h-52v2h52z" style="fill:#263979;fill-opacity:1;fill-rule:nonzero;stroke:none"/><path d="M0 0s12-4 8-40-12-72 8-136v160C16-7.164 8.837 0 0 0" style="fill:#263979;fill-opacity:1;fill-rule:nonzero;stroke:none" transform="translate(212 244)"/><path d="M0 0s-12-4-8-40 12-72-8-136v160C-16-7.164-8.836 0 0 0" style="fill:#263979;fill-opacity:1;fill-rule:nonzero;stroke:none" transform="translate(44 244)"/><path d="M0 0c-33.137 0-60 26.863-60 60s26.863 60 60 60 60-26.863 60-60S33.137 0 0 0m-48.694 117a6.967 6.967 0 0 0-6.972 6.366l-.057.634H55.723l-.057-.634A6.966 6.966 0 0 0 48.694 117H24.375A61.6 61.6 0 0 1 0 122a61.6 61.6 0 0 1-24.375-5zm-7.393 11H56.087l-.182-2h-111.81zm-.363 4h112.9l-.181-2H-56.269Zm-.364 4H56.814l-.182-2H-56.632Zm-.364 4H57.178l-.182-2H-56.996Zm-.364 4H57.541l-.182-2H-57.359Zm-.363 4h115.81l-.182-2H-57.723Zm84.489-32h22.11a8 8 0 0 1 7.967 7.276l.067.724 2.909 32h-1.005l-.545-6H-58.087l-.545 6h-1.004l2.908-32 .066-.724A8 8 0 0 1-48.694 116h22.111C-47.504 106.028-62 84.678-62 60-62 25.813-34.187-2 0-2s62 27.813 62 62c0 24.678-14.496 46.028-35.416 56" style="fill:#263979;fill-opacity:1;fill-rule:nonzero;stroke:none" transform="translate(128 88)"/><path d="M0 0h-12a2 2 0 0 0 0 4H0a2 2 0 0 0 0-4" style="fill:#16a085;fill-opacity:1;fill-rule:nonzero;stroke:none" transform="translate(62 96)"/><path d="M0 0h-4a4 4 0 0 0 0 8h4a4 4 0 0 0 0-8" style="fill:#0e6654;fill-opacity:1;fill-rule:nonzero;stroke:none" transform="translate(56 80)"/><path d="M0 0h-4a4 4 0 0 0 0 8h4a4 4 0 0 0 0-8" style="fill:#16a085;fill-opacity:1;fill-rule:nonzero;stroke:none" transform="translate(60 80)"/><path d="M0 0c0-1.657-1.791-3-4-3s-4 1.343-4 3 1.791 3 4 3 4-1.343 4-3" style="fill:#16a085;fill-opacity:1;fill-rule:nonzero;stroke:none" transform="translate(100 40)"/><path d="M0 0c0-1.657-1.791-3-4-3s-4 1.343-4 3 1.791 3 4 3 4-1.343 4-3" style="fill:#4b5da7;fill-opacity:1;fill-rule:nonzero;stroke:none" transform="translate(84 40)"/><path d="M0 0c0-2.209-1.343-4-3-4s-3 1.791-3 4 1.343 4 3 4 3-1.791 3-4" style="fill:#ed4792;fill-opacity:1;fill-rule:nonzero;stroke:none" transform="translate(91 48)"/><path d="M0 0c0-2.209-1.343-4-3-4s-3 1.791-3 4 1.343 4 3 4 3-1.791 3-4" style="fill:#e77f22;fill-opacity:1;fill-rule:nonzero;stroke:none" transform="translate(91 32)"/><path d="M0 0a6 6 0 0 0-12 0A6 6 0 0 0 0 0" style="fill:#ff0;fill-opacity:1;fill-rule:nonzero;stroke:none" transform="translate(160 38)"/><path d="M0 0a6 6 0 0 0-12 0A6 6 0 0 0 0 0" style="fill:#e6e6e6;fill-opacity:1;fill-rule:nonzero;stroke:none" transform="translate(180 42)"/><path d="M0 0a8 8 0 1 0-16 0A8 8 0 0 0 0 0" style="fill:#ff0;fill-opacity:1;fill-rule:nonzero;stroke:none" transform="translate(204 92)"/><path d="m0 0 7.357 36.784A4 4 0 0 0 11.279 40h113.442a4 4 0 0 0 3.923-3.216L136 0h2.04l-.079.393-7.357 36.784A6.015 6.015 0 0 1 124.721 42H11.279a6.015 6.015 0 0 1-5.883-4.823L-1.961.393-2.04 0Z" style="fill:#263979;fill-opacity:1;fill-rule:nonzero;stroke:none" transform="translate(60 24)"/><path d="M140 60h-24v8h24z" style="fill:#263979;fill-opacity:1;fill-rule:nonzero;stroke:none"/><path d="M0 0c0-4.418-.896-8-2-8s-2 3.582-2 8 .896 8 2 8 2-3.582 2-8" style="fill:#263979;fill-opacity:1;fill-rule:nonzero;stroke:none" transform="translate(88 124)"/><path d="M0 0c0-4.418-.896-8-2-8s-2 3.582-2 8 .896 8 2 8 2-3.582 2-8" style="fill:#263979;fill-opacity:1;fill-rule:nonzero;stroke:none" transform="translate(172 124)"/><path d="M0 0c0-7.732-.896-14-2-14S-4-7.732-4 0s.896 14 2 14S0 7.732 0 0" style="fill:#263979;fill-opacity:1;fill-rule:nonzero;stroke:none" transform="translate(116 118)"/><path d="M0 0c0-7.732-.896-14-2-14S-4-7.732-4 0s.896 14 2 14S0 7.732 0 0" style="fill:#263979;fill-opacity:1;fill-rule:nonzero;stroke:none" transform="translate(144 118)"/></g></svg>