<svg xmlns="http://www.w3.org/2000/svg" xml:space="preserve" width="330.667" height="197.333" viewBox="0 0 330.667 197.333"><defs><clipPath id="a" clipPathUnits="userSpaceOnUse"><path d="M0 256h256V0H0Z"/></clipPath><clipPath id="b" clipPathUnits="userSpaceOnUse"><path d="M4 200h248V52H4Z"/></clipPath></defs><g clip-path="url(#a)" transform="matrix(1.33333 0 0 -1.33333 -5.333 266.667)"><g clip-path="url(#b)" style="opacity:.5"><path d="M0 0h-200c-9.634 0-19.926-6.26-20-23.81l-3.992-87.827-.008-.181V-112c0-19.851 16.149-36 36-36h176c19.851 0 36 16.149 36 36v.182l-.008.181L20-23.81C19.926-6.26 9.634 0 0 0" style="fill:#fff;fill-opacity:1;fill-rule:nonzero;stroke:none" transform="translate(228 200)"/></g><path d="M0 0h-176c-15.464 0-28 12.536-28 28l4 88c0 8.836 3.164 16 12 16H12c8.837 0 12-7.164 12-16l4-88C28 12.536 15.464 0 0 0" style="fill:#404040;fill-opacity:1;fill-rule:nonzero;stroke:none" transform="translate(216 60)"/><path d="M0 0h-168c-6.627 0-12-12.536-12-28s5.373-28 12-28H0c6.627 0 12 12.536 12 28S6.627 0 0 0" style="fill:#ccc;fill-opacity:1;fill-rule:nonzero;stroke:none" transform="translate(216 188)"/><path d="M216 140H48v40h168z" style="fill:gray;fill-opacity:1;fill-rule:nonzero;stroke:none"/><path d="M0 0h-4a4 4 0 0 0 0 8h4a4 4 0 0 0 0-8" style="fill:#eac500;fill-opacity:1;fill-rule:nonzero;stroke:none" transform="translate(28 116)"/><path d="M0 0c0-2.209-2.687-4-6-4s-6 1.791-6 4 2.687 4 6 4 6-1.791 6-4" style="fill:#262626;fill-opacity:1;fill-rule:nonzero;stroke:none" transform="translate(112 112)"/><path d="M0 0c0-2.209-2.687-4-6-4s-6 1.791-6 4 2.687 4 6 4 6-1.791 6-4" style="fill:#262626;fill-opacity:1;fill-rule:nonzero;stroke:none" transform="translate(112 96)"/><path d="M0 0c0-2.209-2.687-4-6-4s-6 1.791-6 4 2.687 4 6 4 6-1.791 6-4" style="fill:#262626;fill-opacity:1;fill-rule:nonzero;stroke:none" transform="translate(140 112)"/><path d="M0 0c0-2.209-2.687-4-6-4s-6 1.791-6 4 2.687 4 6 4 6-1.791 6-4" style="fill:#262626;fill-opacity:1;fill-rule:nonzero;stroke:none" transform="translate(140 96)"/><path d="M0 0a4 4 0 1 0-8 0 4 4 0 0 0 8 0" style="fill:#262626;fill-opacity:1;fill-rule:nonzero;stroke:none" transform="translate(110 80)"/><path d="M0 0a4 4 0 1 0-8 0 4 4 0 0 0 8 0" style="fill:#262626;fill-opacity:1;fill-rule:nonzero;stroke:none" transform="translate(138 80)"/><path d="M0 0c0-13.255-10.745-24-24-24S-48-13.255-48 0s10.745 24 24 24S0 13.255 0 0" style="fill:#ccc;fill-opacity:1;fill-rule:nonzero;stroke:none" transform="translate(84 96)"/><path d="M0 0a8 8 0 1 0-16 0A8 8 0 0 0 0 0" style="fill:#ccc;fill-opacity:1;fill-rule:nonzero;stroke:none" transform="translate(220 84)"/><path d="m0 0-11.313 11.313L0 22.627a2 2 0 0 1-2.829 2.829l-11.313-11.314-11.314 11.314a2 2 0 0 1-2.828-2.829l11.313-11.314L-28.284 0a2 2 0 0 1 2.828-2.829l11.314 11.314L-2.829-2.829A2 2 0 0 1 0 0" style="fill:#d9d9d9;fill-opacity:1;fill-rule:nonzero;stroke:none" transform="translate(74.142 84.686)"/><path d="M0 0a63.7 63.7 0 0 1-8.028-12.242c-2.838-5.674 1.219-12.356 7.563-12.356 3.262 0 6.188 1.893 7.647 4.811a49 49 0 0 0 5.465 8.545z" style="fill:#ccc;fill-opacity:1;fill-rule:nonzero;stroke:none" transform="translate(165.816 100.598)"/><path d="M0 0a65.7 65.7 0 0 1-25.208-16.578l12.605-11.205c5.439 5.826 12.298 10.411 19.96 13.067z" style="fill:#ccc;fill-opacity:1;fill-rule:nonzero;stroke:none" transform="translate(193.68 120.169)"/><path d="M0 0v.132a65 65 0 0 1-18.48-2.698l7.414-14.829A45.2 45.2 0 0 0 0-16 8 8 0 0 1 0 0" style="fill:#ccc;fill-opacity:1;fill-rule:nonzero;stroke:none" transform="translate(216 124)"/></g></svg>