<svg xmlns="http://www.w3.org/2000/svg" xml:space="preserve" width="325.335" height="213.333" viewBox="0 0 325.335 213.333"><defs><clipPath id="a" clipPathUnits="userSpaceOnUse"><path d="M0 256h256V0H0Z"/></clipPath><clipPath id="b" clipPathUnits="userSpaceOnUse"><path d="M5.999 208.005h244.002v-160H5.999Z"/></clipPath><clipPath id="c" clipPathUnits="userSpaceOnUse"><path d="M0 256h256V0H0Z"/></clipPath></defs><g clip-path="url(#a)" transform="matrix(1.33333 0 0 -1.33333 -7.999 277.34)"><g clip-path="url(#b)" style="opacity:.5"><path d="M0 0h-183.891c-13.137 0-23.841-10.618-23.989-23.727l-5.99-95.911c-.646-10.342 2.833-20.26 9.798-27.927 6.962-7.665 16.485-12.077 26.814-12.424q.343-.012.688-.011c.73 0 1.5.038 2.354.115l41.666 3.785c.657.059 1.326.09 1.987.09h77.236c.661 0 1.329-.031 1.987-.09l41.666-3.785A26 26 0 0 1-7.32-160q.344 0 .688.011c10.328.347 19.852 4.759 26.814 12.424 6.964 7.667 10.443 17.585 9.797 27.927l-2.111 33.802a23.9 23.9 0 0 1 2.119 9.831c0 4.461-1.207 8.728-3.512 12.485l-2.486 39.793C23.842-10.618 13.138 0 0 0" style="fill:#fff;fill-opacity:1;fill-rule:nonzero;stroke:none" transform="translate(219.945 208.005)"/></g></g><path d="M204 56H52v12h152z" style="fill:#f39b11;fill-opacity:1;fill-rule:nonzero;stroke:none" transform="matrix(1.33333 0 0 -1.33333 -7.999 277.34)"/><g clip-path="url(#c)" transform="matrix(1.33333 0 0 -1.33333 -7.999 277.34)"><path d="m0 0-2.248 35.994a15.92 15.92 0 0 1-1.12 17.926l-2.637 42.216c0 8.837-7.159 16.001-15.99 16.001h-183.891c-8.831 0-15.99-7.164-15.99-16.001L-227.881 0c-1.057-16.929 12.09-31.292 28.897-31.856.683-.023 16.363.013 17.044.076l26.671 3.784q1.353.123 2.71.123h77.237q1.358 0 2.711-.123l26.671-3.784c.68-.063 16.361-.099 17.044-.076C-12.09-31.292 1.058-16.929 0 0" style="fill:#d9d9d9;fill-opacity:1;fill-rule:nonzero;stroke:none" transform="translate(241.94 87.868)"/><path d="m0 0 2.999 47.99c0 1.387.195 2.726.527 4.01H.113a16 16 0 0 1-.523-3.996L-3.408 0Z" style="fill:#f39b11;fill-opacity:1;fill-rule:nonzero;stroke:none" transform="translate(20.474 136)"/><path d="m0 0-35.362-2.916a160 160 0 0 0-26.297 0L-97.021 0c-6.425 0-11.71 5.061-11.989 11.479l-2.956 68C-112.263 86.304-106.81 92-99.978 92H2.956c6.832 0 12.285-5.696 11.989-12.521l-2.957-68C11.709 5.061 6.425 0 0 0" style="fill:#a6a6a6;fill-opacity:1;fill-rule:nonzero;stroke:none" transform="translate(176.51 96)"/><path d="M180 104H76v72h104z" style="fill:gray;fill-opacity:1;fill-rule:nonzero;stroke:none"/><path d="M0 0a4 4 0 1 0-8 0 4 4 0 0 0 8 0" style="fill:gray;fill-opacity:1;fill-rule:nonzero;stroke:none" transform="translate(56 144)"/><path d="M0 0a4 4 0 1 0-8 0 4 4 0 0 0 8 0" style="fill:#d35400;fill-opacity:1;fill-rule:nonzero;stroke:none" transform="translate(208 144)"/><path d="M0 0a8 8 0 1 0-16 0A8 8 0 0 0 0 0" style="fill:#d35400;fill-opacity:1;fill-rule:nonzero;stroke:none" transform="translate(48 130)"/><path d="M0 0c0-5.522-4.478-10-10-10S-20-5.522-20 0s4.478 10 10 10S0 5.522 0 0" style="fill:#e77f22;fill-opacity:1;fill-rule:nonzero;stroke:none" transform="translate(224 114)"/><path d="M0 0a6 6 0 0 0-12 0A6 6 0 0 0 0 0" style="fill:#f39b11;fill-opacity:1;fill-rule:nonzero;stroke:none" transform="translate(220 114)"/><path d="M0 0c-5.522 0-10-4.477-10-10 0-.744.087-1.466.241-2.164.572.101 1.157.164 1.759.164 4.779 0 8.769-3.354 9.759-7.836C6.441-19.004 10-14.922 10-10 10-4.477 5.522 0 0 0" style="fill:#e77f22;fill-opacity:1;fill-rule:nonzero;stroke:none" transform="translate(226 140)"/><path d="M0 0c5.522 0 10 4.478 10 10 0 .744-.087 1.467-.241 2.164A10 10 0 0 0 8 12c-4.779 0-8.769 3.354-9.759 7.836C-6.441 19.004-10 14.922-10 10-10 4.478-5.522 0 0 0" style="fill:#e77f22;fill-opacity:1;fill-rule:nonzero;stroke:none" transform="translate(202 88)"/><path d="M0 0a8 8 0 1 0-16 0A8 8 0 0 0 0 0" style="fill:#d35400;fill-opacity:1;fill-rule:nonzero;stroke:none" transform="translate(48 98)"/><path d="M0 0a1 1 0 1 0-2 0 1 1 0 0 0 2 0" style="fill:gray;fill-opacity:1;fill-rule:nonzero;stroke:none" transform="translate(200 185)"/><path d="M0 0a1 1 0 1 0-2 0 1 1 0 0 0 2 0" style="fill:gray;fill-opacity:1;fill-rule:nonzero;stroke:none" transform="translate(204 185)"/><path d="M0 0a1 1 0 1 0-2 0 1 1 0 0 0 2 0" style="fill:gray;fill-opacity:1;fill-rule:nonzero;stroke:none" transform="translate(208 185)"/><path d="M0 0a1 1 0 1 0-2 0 1 1 0 0 0 2 0" style="fill:#4c4c4c;fill-opacity:1;fill-rule:nonzero;stroke:none" transform="translate(212 185)"/><path d="M0 0a1 1 0 1 0-2 0 1 1 0 0 0 2 0" style="fill:gray;fill-opacity:1;fill-rule:nonzero;stroke:none" transform="translate(216 185)"/><path d="M0 0a1 1 0 1 0-2 0 1 1 0 0 0 2 0" style="fill:#4c4c4c;fill-opacity:1;fill-rule:nonzero;stroke:none" transform="translate(220 185)"/><path d="M0 0a1 1 0 1 0-2 0 1 1 0 0 0 2 0" style="fill:gray;fill-opacity:1;fill-rule:nonzero;stroke:none" transform="translate(224 185)"/><path d="M0 0a1 1 0 1 0-2 0 1 1 0 0 0 2 0" style="fill:gray;fill-opacity:1;fill-rule:nonzero;stroke:none" transform="translate(228 185)"/><path d="M0 0a1 1 0 1 0-2 0 1 1 0 0 0 2 0" style="fill:gray;fill-opacity:1;fill-rule:nonzero;stroke:none" transform="translate(200 181)"/><path d="M0 0a1 1 0 1 0-2 0 1 1 0 0 0 2 0" style="fill:gray;fill-opacity:1;fill-rule:nonzero;stroke:none" transform="translate(204 181)"/><path d="M0 0a1 1 0 1 0-2 0 1 1 0 0 0 2 0" style="fill:#4c4c4c;fill-opacity:1;fill-rule:nonzero;stroke:none" transform="translate(208 181)"/><path d="M0 0a1 1 0 1 0-2 0 1 1 0 0 0 2 0" style="fill:gray;fill-opacity:1;fill-rule:nonzero;stroke:none" transform="translate(212 181)"/><path d="M0 0a1 1 0 1 0-2 0 1 1 0 0 0 2 0" style="fill:#4c4c4c;fill-opacity:1;fill-rule:nonzero;stroke:none" transform="translate(216 181)"/><path d="M0 0a1 1 0 1 0-2 0 1 1 0 0 0 2 0" style="fill:gray;fill-opacity:1;fill-rule:nonzero;stroke:none" transform="translate(220 181)"/><path d="M0 0a1 1 0 1 0-2 0 1 1 0 0 0 2 0" style="fill:#4c4c4c;fill-opacity:1;fill-rule:nonzero;stroke:none" transform="translate(224 181)"/><path d="M0 0a1 1 0 1 0-2 0 1 1 0 0 0 2 0" style="fill:gray;fill-opacity:1;fill-rule:nonzero;stroke:none" transform="translate(228 181)"/><path d="M0 0a1 1 0 1 0-2 0 1 1 0 0 0 2 0" style="fill:gray;fill-opacity:1;fill-rule:nonzero;stroke:none" transform="translate(200 177)"/><path d="M0 0a1 1 0 1 0-2 0 1 1 0 0 0 2 0" style="fill:#4c4c4c;fill-opacity:1;fill-rule:nonzero;stroke:none" transform="translate(204 177)"/><path d="M0 0a1 1 0 1 0-2 0 1 1 0 0 0 2 0" style="fill:gray;fill-opacity:1;fill-rule:nonzero;stroke:none" transform="translate(208 177)"/><path d="M0 0a1 1 0 1 0-2 0 1 1 0 0 0 2 0" style="fill:#4c4c4c;fill-opacity:1;fill-rule:nonzero;stroke:none" transform="translate(212 177)"/><path d="M0 0a1 1 0 1 0-2 0 1 1 0 0 0 2 0" style="fill:gray;fill-opacity:1;fill-rule:nonzero;stroke:none" transform="translate(216 177)"/><path d="M0 0a1 1 0 1 0-2 0 1 1 0 0 0 2 0" style="fill:#4c4c4c;fill-opacity:1;fill-rule:nonzero;stroke:none" transform="translate(220 177)"/><path d="M0 0a1 1 0 1 0-2 0 1 1 0 0 0 2 0" style="fill:gray;fill-opacity:1;fill-rule:nonzero;stroke:none" transform="translate(224 177)"/><path d="M0 0a1 1 0 1 0-2 0 1 1 0 0 0 2 0" style="fill:#4c4c4c;fill-opacity:1;fill-rule:nonzero;stroke:none" transform="translate(228 177)"/><path d="M0 0a1 1 0 1 0-2 0 1 1 0 0 0 2 0" style="fill:gray;fill-opacity:1;fill-rule:nonzero;stroke:none" transform="translate(200 173)"/><path d="M0 0a1 1 0 1 0-2 0 1 1 0 0 0 2 0" style="fill:gray;fill-opacity:1;fill-rule:nonzero;stroke:none" transform="translate(204 173)"/><path d="M0 0a1 1 0 1 0-2 0 1 1 0 0 0 2 0" style="fill:#4c4c4c;fill-opacity:1;fill-rule:nonzero;stroke:none" transform="translate(208 173)"/><path d="M0 0a1 1 0 1 0-2 0 1 1 0 0 0 2 0" style="fill:gray;fill-opacity:1;fill-rule:nonzero;stroke:none" transform="translate(212 173)"/><path d="M0 0a1 1 0 1 0-2 0 1 1 0 0 0 2 0" style="fill:#4c4c4c;fill-opacity:1;fill-rule:nonzero;stroke:none" transform="translate(216 173)"/><path d="M0 0a1 1 0 1 0-2 0 1 1 0 0 0 2 0" style="fill:gray;fill-opacity:1;fill-rule:nonzero;stroke:none" transform="translate(220 173)"/><path d="M0 0a1 1 0 1 0-2 0 1 1 0 0 0 2 0" style="fill:#4c4c4c;fill-opacity:1;fill-rule:nonzero;stroke:none" transform="translate(224 173)"/><path d="M0 0a1 1 0 1 0-2 0 1 1 0 0 0 2 0" style="fill:gray;fill-opacity:1;fill-rule:nonzero;stroke:none" transform="translate(228 173)"/><path d="M0 0a1 1 0 1 0-2 0 1 1 0 0 0 2 0" style="fill:gray;fill-opacity:1;fill-rule:nonzero;stroke:none" transform="translate(200 169)"/><path d="M0 0a1 1 0 1 0-2 0 1 1 0 0 0 2 0" style="fill:#4c4c4c;fill-opacity:1;fill-rule:nonzero;stroke:none" transform="translate(204 169)"/><path d="M0 0a1 1 0 1 0-2 0 1 1 0 0 0 2 0" style="fill:gray;fill-opacity:1;fill-rule:nonzero;stroke:none" transform="translate(208 169)"/><path d="M0 0a1 1 0 1 0-2 0 1 1 0 0 0 2 0" style="fill:#4c4c4c;fill-opacity:1;fill-rule:nonzero;stroke:none" transform="translate(212 169)"/><path d="M0 0a1 1 0 1 0-2 0 1 1 0 0 0 2 0" style="fill:gray;fill-opacity:1;fill-rule:nonzero;stroke:none" transform="translate(216 169)"/><path d="M0 0a1 1 0 1 0-2 0 1 1 0 0 0 2 0" style="fill:#4c4c4c;fill-opacity:1;fill-rule:nonzero;stroke:none" transform="translate(220 169)"/><path d="M0 0a1 1 0 1 0-2 0 1 1 0 0 0 2 0" style="fill:gray;fill-opacity:1;fill-rule:nonzero;stroke:none" transform="translate(224 169)"/><path d="M0 0a1 1 0 1 0-2 0 1 1 0 0 0 2 0" style="fill:#4c4c4c;fill-opacity:1;fill-rule:nonzero;stroke:none" transform="translate(228 169)"/><path d="M0 0a1 1 0 1 0-2 0 1 1 0 0 0 2 0" style="fill:gray;fill-opacity:1;fill-rule:nonzero;stroke:none" transform="translate(200 165)"/><path d="M0 0a1 1 0 1 0-2 0 1 1 0 0 0 2 0" style="fill:gray;fill-opacity:1;fill-rule:nonzero;stroke:none" transform="translate(204 165)"/><path d="M0 0a1 1 0 1 0-2 0 1 1 0 0 0 2 0" style="fill:#4c4c4c;fill-opacity:1;fill-rule:nonzero;stroke:none" transform="translate(208 165)"/><path d="M0 0a1 1 0 1 0-2 0 1 1 0 0 0 2 0" style="fill:gray;fill-opacity:1;fill-rule:nonzero;stroke:none" transform="translate(212 165)"/><path d="M0 0a1 1 0 1 0-2 0 1 1 0 0 0 2 0" style="fill:#4c4c4c;fill-opacity:1;fill-rule:nonzero;stroke:none" transform="translate(216 165)"/><path d="M0 0a1 1 0 1 0-2 0 1 1 0 0 0 2 0" style="fill:gray;fill-opacity:1;fill-rule:nonzero;stroke:none" transform="translate(220 165)"/><path d="M0 0a1 1 0 1 0-2 0 1 1 0 0 0 2 0" style="fill:#4c4c4c;fill-opacity:1;fill-rule:nonzero;stroke:none" transform="translate(224 165)"/><path d="M0 0a1 1 0 1 0-2 0 1 1 0 0 0 2 0" style="fill:gray;fill-opacity:1;fill-rule:nonzero;stroke:none" transform="translate(228 165)"/><path d="M0 0a1 1 0 1 0-2 0 1 1 0 0 0 2 0" style="fill:gray;fill-opacity:1;fill-rule:nonzero;stroke:none" transform="translate(200 161)"/><path d="M0 0a1 1 0 1 0-2 0 1 1 0 0 0 2 0" style="fill:gray;fill-opacity:1;fill-rule:nonzero;stroke:none" transform="translate(204 161)"/><path d="M0 0a1 1 0 1 0-2 0 1 1 0 0 0 2 0" style="fill:gray;fill-opacity:1;fill-rule:nonzero;stroke:none" transform="translate(208 161)"/><path d="M0 0a1 1 0 1 0-2 0 1 1 0 0 0 2 0" style="fill:#4c4c4c;fill-opacity:1;fill-rule:nonzero;stroke:none" transform="translate(212 161)"/><path d="M0 0a1 1 0 1 0-2 0 1 1 0 0 0 2 0" style="fill:gray;fill-opacity:1;fill-rule:nonzero;stroke:none" transform="translate(216 161)"/><path d="M0 0a1 1 0 1 0-2 0 1 1 0 0 0 2 0" style="fill:#4c4c4c;fill-opacity:1;fill-rule:nonzero;stroke:none" transform="translate(220 161)"/><path d="M0 0a1 1 0 1 0-2 0 1 1 0 0 0 2 0" style="fill:gray;fill-opacity:1;fill-rule:nonzero;stroke:none" transform="translate(224 161)"/><path d="M0 0a1 1 0 1 0-2 0 1 1 0 0 0 2 0" style="fill:gray;fill-opacity:1;fill-rule:nonzero;stroke:none" transform="translate(228 161)"/><path d="M0 0a1 1 0 1 0-2 0 1 1 0 0 0 2 0" style="fill:gray;fill-opacity:1;fill-rule:nonzero;stroke:none" transform="translate(200 157)"/><path d="M0 0a1 1 0 1 0-2 0 1 1 0 0 0 2 0" style="fill:gray;fill-opacity:1;fill-rule:nonzero;stroke:none" transform="translate(232 185)"/><path d="M0 0a1 1 0 1 0-2 0 1 1 0 0 0 2 0" style="fill:gray;fill-opacity:1;fill-rule:nonzero;stroke:none" transform="translate(232 181)"/><path d="M0 0a1 1 0 1 0-2 0 1 1 0 0 0 2 0" style="fill:gray;fill-opacity:1;fill-rule:nonzero;stroke:none" transform="translate(232 177)"/><path d="M0 0a1 1 0 1 0-2 0 1 1 0 0 0 2 0" style="fill:gray;fill-opacity:1;fill-rule:nonzero;stroke:none" transform="translate(232 173)"/><path d="M0 0a1 1 0 1 0-2 0 1 1 0 0 0 2 0" style="fill:gray;fill-opacity:1;fill-rule:nonzero;stroke:none" transform="translate(232 169)"/><path d="M0 0a1 1 0 1 0-2 0 1 1 0 0 0 2 0" style="fill:gray;fill-opacity:1;fill-rule:nonzero;stroke:none" transform="translate(232 165)"/><path d="M0 0a1 1 0 1 0-2 0 1 1 0 0 0 2 0" style="fill:gray;fill-opacity:1;fill-rule:nonzero;stroke:none" transform="translate(232 161)"/><path d="M0 0a1 1 0 1 0-2 0 1 1 0 0 0 2 0" style="fill:gray;fill-opacity:1;fill-rule:nonzero;stroke:none" transform="translate(232 157)"/><path d="M0 0a1 1 0 1 0-2 0 1 1 0 0 0 2 0" style="fill:gray;fill-opacity:1;fill-rule:nonzero;stroke:none" transform="translate(204 157)"/><path d="M0 0a1 1 0 1 0-2 0 1 1 0 0 0 2 0" style="fill:gray;fill-opacity:1;fill-rule:nonzero;stroke:none" transform="translate(208 157)"/><path d="M0 0a1 1 0 1 0-2 0 1 1 0 0 0 2 0" style="fill:gray;fill-opacity:1;fill-rule:nonzero;stroke:none" transform="translate(212 157)"/><path d="M0 0a1 1 0 1 0-2 0 1 1 0 0 0 2 0" style="fill:gray;fill-opacity:1;fill-rule:nonzero;stroke:none" transform="translate(216 157)"/><path d="M0 0a1 1 0 1 0-2 0 1 1 0 0 0 2 0" style="fill:gray;fill-opacity:1;fill-rule:nonzero;stroke:none" transform="translate(220 157)"/><path d="M0 0a1 1 0 1 0-2 0 1 1 0 0 0 2 0" style="fill:gray;fill-opacity:1;fill-rule:nonzero;stroke:none" transform="translate(224 157)"/><path d="M0 0a1 1 0 1 0-2 0 1 1 0 0 0 2 0" style="fill:gray;fill-opacity:1;fill-rule:nonzero;stroke:none" transform="translate(228 157)"/><path d="M0 0c-.004.059-.003.116-.009.176-.306 4.138-3.753 7.403-7.97 7.403a7.93 7.93 0 0 1-5.164-1.901c-1.509-1.286-3.362-2.099-5.345-2.099h-2.981c-1.983 0-3.836.813-5.345 2.099a7.93 7.93 0 0 1-5.165 1.901c-4.216 0-7.663-3.265-7.969-7.403-.006-.06-.005-.117-.009-.176-.008-.141-.022-.279-.022-.421l.004-.072c.001-.082.008-.163.013-.245.168-4.271 3.672-7.683 7.983-7.683 1.973 0 3.774.716 5.165 1.901 1.509 1.287 3.362 2.099 5.345 2.099h2.981c1.983 0 3.836-.812 5.345-2.099a7.93 7.93 0 0 1 5.164-1.901c4.312 0 7.816 3.412 7.984 7.683.005.082.012.163.013.245l.003.072C.021-.279.008-.141 0 0" style="fill:#d35400;fill-opacity:1;fill-rule:nonzero;stroke:none" transform="translate(59.978 114.42)"/></g></svg>