<?xml version="1.0" encoding="iso-8859-1"?>
<!-- Generator: Adobe Illustrator 27.8.1, SVG Export Plug-In . SVG Version: 6.00 Build 0)  -->
<svg version="1.1" id="Layer_1" xmlns="http://www.w3.org/2000/svg" xmlns:xlink="http://www.w3.org/1999/xlink" x="0px" y="0px"
	 viewBox="0 0 256 256" style="enable-background:new 0 0 256 256;" xml:space="preserve">
<g>
	<path style="opacity:0.5;fill:#FFFFFF;" d="M128,4c-20.927,0-40.715,7.828-55.719,22.043C59.175,38.458,50.956,54.555,48.673,72
		L48,80v146c0,3.753,1.663,9.21,9.587,13.893c4.291,2.536,10.199,4.755,17.561,6.596C89.363,250.043,108.133,252,128,252
		s38.637-1.957,52.852-5.511c7.361-1.84,13.27-4.059,17.561-6.596C206.337,235.21,208,229.753,208,226V80l-0.673-8
		c-2.282-17.445-10.502-33.542-23.607-45.957C168.715,11.828,148.927,4,128,4L128,4z"/>
	<path style="fill:#F2F2F2;" d="M199.948,80C198.856,42.268,167.075,12,128,12S57.144,42.268,56.052,80H56v146
		c0,9.941,32.235,18,72,18s72-8.059,72-18V80H199.948z"/>
</g>
<path style="fill:#FFFFFF;" d="M106.071,22.353c1.122,5.609,6.047,9.647,11.767,9.647h20.325c5.72,0,10.645-4.038,11.767-9.647
	l1.321-6.603C143.955,13.33,136.14,12,128,12s-15.955,1.33-23.25,3.751L106.071,22.353z"/>
<path style="fill:#999999;" d="M160,132H96c-11,0-20-9-20-20V68c0-13.2,10.8-24,24-24h28h28c13.2,0,24,10.8,24,24v44
	C180,123,171,132,160,132z"/>
<rect x="92" y="52" style="fill:#808080;" width="72" height="72"/>
<circle style="fill:#E6E6E6;" cx="80" cy="172" r="12"/>
<circle style="fill:#E6E6E6;" cx="128" cy="180" r="12"/>
<circle style="fill:#E6E6E6;" cx="104" cy="156" r="12"/>
<circle style="fill:#E6E6E6;" cx="104" cy="192" r="12"/>
<circle style="fill:#E6E6E6;" cx="176" cy="172" r="16"/>
<circle style="fill:#FFFFFF;" cx="80" cy="172" r="8"/>
<circle style="fill:#FFFFFF;" cx="104" cy="156" r="8"/>
<circle style="fill:#FFFFFF;" cx="104" cy="192" r="8"/>
<circle style="fill:#FFFFFF;" cx="128" cy="180" r="8"/>
<circle style="fill:#FFFFFF;" cx="176" cy="172" r="12"/>
<path style="fill:#E6E6E6;" d="M64,132c0,6.627,28.654,8,64,8s64-1.373,64-8v-12h8v-4h-8h-4v4v11.273
	c-1.015,0.664-4.912,2.426-18.552,3.542C159.577,135.624,146.407,136,128,136s-31.577-0.376-41.448-1.184
	c-13.64-1.117-17.537-2.878-18.552-3.542V120v-4h-4h-8v4h8V132z"/>
<g>
	<path style="fill:#E6E6E6;" d="M56,176v23c7.006,19.63,22.713,35.495,42.753,43.447C107.693,243.443,117.583,244,128,244
		C88.235,244,56,213.555,56,176z"/>
	<path style="fill:#E6E6E6;" d="M128,244c10.417,0,20.307-0.557,29.247-1.553c20.04-7.952,35.747-23.817,42.753-43.447v-23
		C200,213.555,167.765,244,128,244z"/>
</g>
<g>
	<path style="fill:#E6E6E6;" d="M149.929,22.353l0.605-3.024C143.236,17.124,135.658,16,128,16c-7.658,0-15.236,1.124-22.534,3.329
		l0.605,3.024c0.12,0.598,0.291,1.173,0.493,1.732c-0.099-0.274-0.192-0.55-0.272-0.833C113.143,21.147,120.432,20,128,20
		s14.857,1.147,21.708,3.253c-0.08,0.283-0.173,0.56-0.272,0.833C149.638,23.527,149.81,22.951,149.929,22.353z"/>
</g>
</svg>
