<?xml version="1.0" encoding="UTF-8" standalone="no"?>
<svg
   xmlns:dc="http://purl.org/dc/elements/1.1/"
   xmlns:cc="http://creativecommons.org/ns#"
   xmlns:rdf="http://www.w3.org/1999/02/22-rdf-syntax-ns#"
   xmlns:svg="http://www.w3.org/2000/svg"
   xmlns="http://www.w3.org/2000/svg"
   viewBox="0 0 325.33514 213.33279"
   height="213.33279"
   width="325.33514"
   xml:space="preserve"
   id="svg2"
   version="1.1"><metadata
     id="metadata8"><rdf:RDF><cc:Work
         rdf:about=""><dc:format>image/svg+xml</dc:format><dc:type
           rdf:resource="http://purl.org/dc/dcmitype/StillImage" /></cc:Work></rdf:RDF></metadata><defs
     id="defs6"><clipPath
       id="clipPath18"
       clipPathUnits="userSpaceOnUse"><path
         id="path16"
         d="M 0,256 H 256 V 0 H 0 Z" /></clipPath><clipPath
       id="clipPath26"
       clipPathUnits="userSpaceOnUse"><path
         id="path24"
         d="M 5.99899,208.005 H 250.001 V 48.0052 H 5.99899 Z" /></clipPath><clipPath
       id="clipPath44"
       clipPathUnits="userSpaceOnUse"><path
         id="path42"
         d="M 0,256 H 256 V 0 H 0 Z" /></clipPath></defs><g
     transform="matrix(1.3333333,0,0,-1.3333333,-7.9988195,277.33999)"
     id="g10"><g
       id="g12"><g
         clip-path="url(#clipPath18)"
         id="g14"><g
           id="g20"><g
             id="g22" /><g
             id="g34"><g
               style="opacity:0.5"
               id="g32"
               clip-path="url(#clipPath26)"><g
                 id="g30"
                 transform="translate(219.9453,208.0054)"><path
                   id="path28"
                   style="fill:#ffffff;fill-opacity:1;fill-rule:nonzero;stroke:none"
                   d="m 0,0 h -183.891 c -13.137,0 -23.841,-10.618 -23.989,-23.727 l -5.99,-95.911 c -0.646,-10.342 2.833,-20.26 9.798,-27.927 6.962,-7.665 16.485,-12.077 26.814,-12.424 0.229,-0.008 0.458,-0.011 0.688,-0.011 0.73,0 1.5,0.038 2.354,0.115 l 41.666,3.785 c 0.657,0.059 1.326,0.09 1.987,0.09 h 77.236 c 0.661,0 1.329,-0.031 1.987,-0.09 l 41.666,-3.785 c 0.854,-0.077 1.624,-0.115 2.354,-0.115 0.229,0 0.459,0.003 0.688,0.011 10.328,0.347 19.852,4.759 26.814,12.424 6.964,7.667 10.443,17.585 9.797,27.927 l -2.111,33.802 c 1.392,3.088 2.119,6.441 2.119,9.831 0,4.461 -1.207,8.728 -3.512,12.485 l -2.486,39.793 C 23.842,-10.618 13.138,0 0,0" /></g></g></g></g></g></g><path
       id="path36"
       style="fill:#f39b11;fill-opacity:1;fill-rule:nonzero;stroke:none"
       d="M 204,56 H 52 v 12 h 152 z" /><g
       id="g38"><g
         clip-path="url(#clipPath44)"
         id="g40"><g
           transform="translate(241.9404,87.8682)"
           id="g46"><path
             id="path48"
             style="fill:#d9d9d9;fill-opacity:1;fill-rule:nonzero;stroke:none"
             d="m 0,0 -2.248,35.994 c 1.414,2.387 2.24,5.163 2.24,8.138 0,3.691 -1.262,7.081 -3.36,9.788 l -2.637,42.216 c 0,8.837 -7.159,16.001 -15.99,16.001 h -183.891 c -8.831,0 -15.99,-7.164 -15.99,-16.001 L -227.881,0 c -1.057,-16.929 12.09,-31.292 28.897,-31.856 0.683,-0.023 16.363,0.013 17.044,0.076 l 26.671,3.784 c 0.901,0.082 1.806,0.123 2.71,0.123 h 77.237 c 0.905,0 1.809,-0.041 2.711,-0.123 l 26.671,-3.784 c 0.68,-0.063 16.361,-0.099 17.044,-0.076 C -12.09,-31.292 1.058,-16.929 0,0" /></g><g
           transform="translate(20.4736,136)"
           id="g50"><path
             id="path52"
             style="fill:#f39b11;fill-opacity:1;fill-rule:nonzero;stroke:none"
             d="m 0,0 2.999,47.99 c 0,1.387 0.195,2.726 0.527,4.01 H 0.113 C -0.216,50.721 -0.41,49.387 -0.41,48.004 L -3.408,0 Z" /></g><g
           transform="translate(176.5107,96)"
           id="g54"><path
             id="path56"
             style="fill:#a6a6a6;fill-opacity:1;fill-rule:nonzero;stroke:none"
             d="m 0,0 -35.362,-2.916 c -8.751,-0.722 -17.546,-0.722 -26.297,0 L -97.021,0 c -6.425,0 -11.71,5.061 -11.989,11.479 l -2.956,68 C -112.263,86.304 -106.81,92 -99.978,92 H 2.956 c 6.832,0 12.285,-5.696 11.989,-12.521 l -2.957,-68 C 11.709,5.061 6.425,0 0,0" /></g><path
           id="path58"
           style="fill:#808080;fill-opacity:1;fill-rule:nonzero;stroke:none"
           d="M 180,104 H 76 v 72 h 104 z" /><g
           transform="translate(56,144)"
           id="g60"><path
             id="path62"
             style="fill:#808080;fill-opacity:1;fill-rule:nonzero;stroke:none"
             d="m 0,0 c 0,-2.209 -1.791,-4 -4,-4 -2.209,0 -4,1.791 -4,4 0,2.209 1.791,4 4,4 2.209,0 4,-1.791 4,-4" /></g><g
           transform="translate(208,144)"
           id="g64"><path
             id="path66"
             style="fill:#d35400;fill-opacity:1;fill-rule:nonzero;stroke:none"
             d="m 0,0 c 0,-2.209 -1.791,-4 -4,-4 -2.209,0 -4,1.791 -4,4 0,2.209 1.791,4 4,4 2.209,0 4,-1.791 4,-4" /></g><g
           transform="translate(48,130)"
           id="g68"><path
             id="path70"
             style="fill:#d35400;fill-opacity:1;fill-rule:nonzero;stroke:none"
             d="m 0,0 c 0,-4.418 -3.582,-8 -8,-8 -4.418,0 -8,3.582 -8,8 0,4.418 3.582,8 8,8 4.418,0 8,-3.582 8,-8" /></g><g
           transform="translate(224,114)"
           id="g72"><path
             id="path74"
             style="fill:#e77f22;fill-opacity:1;fill-rule:nonzero;stroke:none"
             d="m 0,0 c 0,-5.522 -4.478,-10 -10,-10 -5.522,0 -10,4.478 -10,10 0,5.522 4.478,10 10,10 C -4.478,10 0,5.522 0,0" /></g><g
           transform="translate(220,114)"
           id="g76"><path
             id="path78"
             style="fill:#f39b11;fill-opacity:1;fill-rule:nonzero;stroke:none"
             d="m 0,0 c 0,-3.313 -2.687,-6 -6,-6 -3.313,0 -6,2.687 -6,6 0,3.313 2.687,6 6,6 3.313,0 6,-2.687 6,-6" /></g><g
           transform="translate(226,140)"
           id="g80"><path
             id="path82"
             style="fill:#e77f22;fill-opacity:1;fill-rule:nonzero;stroke:none"
             d="m 0,0 c -5.522,0 -10,-4.477 -10,-10 0,-0.744 0.087,-1.466 0.241,-2.164 0.572,0.101 1.157,0.164 1.759,0.164 4.779,0 8.769,-3.354 9.759,-7.836 C 6.441,-19.004 10,-14.922 10,-10 10,-4.477 5.522,0 0,0" /></g><g
           transform="translate(202,88)"
           id="g84"><path
             id="path86"
             style="fill:#e77f22;fill-opacity:1;fill-rule:nonzero;stroke:none"
             d="M 0,0 C 5.522,0 10,4.478 10,10 10,10.744 9.913,11.467 9.759,12.164 9.187,12.063 8.602,12 8,12 3.221,12 -0.769,15.354 -1.759,19.836 -6.441,19.004 -10,14.922 -10,10 -10,4.478 -5.522,0 0,0" /></g><g
           transform="translate(48,98)"
           id="g88"><path
             id="path90"
             style="fill:#d35400;fill-opacity:1;fill-rule:nonzero;stroke:none"
             d="m 0,0 c 0,-4.418 -3.582,-8 -8,-8 -4.418,0 -8,3.582 -8,8 0,4.418 3.582,8 8,8 4.418,0 8,-3.582 8,-8" /></g><g
           transform="translate(200,185)"
           id="g92"><path
             id="path94"
             style="fill:#808080;fill-opacity:1;fill-rule:nonzero;stroke:none"
             d="m 0,0 c 0,-0.552 -0.447,-1 -1,-1 -0.553,0 -1,0.448 -1,1 0,0.552 0.447,1 1,1 0.553,0 1,-0.448 1,-1" /></g><g
           transform="translate(204,185)"
           id="g96"><path
             id="path98"
             style="fill:#808080;fill-opacity:1;fill-rule:nonzero;stroke:none"
             d="m 0,0 c 0,-0.552 -0.447,-1 -1,-1 -0.553,0 -1,0.448 -1,1 0,0.552 0.447,1 1,1 0.553,0 1,-0.448 1,-1" /></g><g
           transform="translate(208,185)"
           id="g100"><path
             id="path102"
             style="fill:#808080;fill-opacity:1;fill-rule:nonzero;stroke:none"
             d="m 0,0 c 0,-0.552 -0.447,-1 -1,-1 -0.553,0 -1,0.448 -1,1 0,0.552 0.447,1 1,1 0.553,0 1,-0.448 1,-1" /></g><g
           transform="translate(212,185)"
           id="g104"><path
             id="path106"
             style="fill:#4c4c4c;fill-opacity:1;fill-rule:nonzero;stroke:none"
             d="m 0,0 c 0,-0.552 -0.447,-1 -1,-1 -0.553,0 -1,0.448 -1,1 0,0.552 0.447,1 1,1 0.553,0 1,-0.448 1,-1" /></g><g
           transform="translate(216,185)"
           id="g108"><path
             id="path110"
             style="fill:#808080;fill-opacity:1;fill-rule:nonzero;stroke:none"
             d="m 0,0 c 0,-0.552 -0.447,-1 -1,-1 -0.553,0 -1,0.448 -1,1 0,0.552 0.447,1 1,1 0.553,0 1,-0.448 1,-1" /></g><g
           transform="translate(220,185)"
           id="g112"><path
             id="path114"
             style="fill:#4c4c4c;fill-opacity:1;fill-rule:nonzero;stroke:none"
             d="m 0,0 c 0,-0.552 -0.447,-1 -1,-1 -0.553,0 -1,0.448 -1,1 0,0.552 0.447,1 1,1 0.553,0 1,-0.448 1,-1" /></g><g
           transform="translate(224,185)"
           id="g116"><path
             id="path118"
             style="fill:#808080;fill-opacity:1;fill-rule:nonzero;stroke:none"
             d="m 0,0 c 0,-0.552 -0.447,-1 -1,-1 -0.553,0 -1,0.448 -1,1 0,0.552 0.447,1 1,1 0.553,0 1,-0.448 1,-1" /></g><g
           transform="translate(228,185)"
           id="g120"><path
             id="path122"
             style="fill:#808080;fill-opacity:1;fill-rule:nonzero;stroke:none"
             d="m 0,0 c 0,-0.552 -0.447,-1 -1,-1 -0.553,0 -1,0.448 -1,1 0,0.552 0.447,1 1,1 0.553,0 1,-0.448 1,-1" /></g><g
           transform="translate(200,181)"
           id="g124"><path
             id="path126"
             style="fill:#808080;fill-opacity:1;fill-rule:nonzero;stroke:none"
             d="m 0,0 c 0,-0.552 -0.447,-1 -1,-1 -0.553,0 -1,0.448 -1,1 0,0.552 0.447,1 1,1 0.553,0 1,-0.448 1,-1" /></g><g
           transform="translate(204,181)"
           id="g128"><path
             id="path130"
             style="fill:#808080;fill-opacity:1;fill-rule:nonzero;stroke:none"
             d="m 0,0 c 0,-0.552 -0.447,-1 -1,-1 -0.553,0 -1,0.448 -1,1 0,0.552 0.447,1 1,1 0.553,0 1,-0.448 1,-1" /></g><g
           transform="translate(208,181)"
           id="g132"><path
             id="path134"
             style="fill:#4c4c4c;fill-opacity:1;fill-rule:nonzero;stroke:none"
             d="m 0,0 c 0,-0.552 -0.447,-1 -1,-1 -0.553,0 -1,0.448 -1,1 0,0.552 0.447,1 1,1 0.553,0 1,-0.448 1,-1" /></g><g
           transform="translate(212,181)"
           id="g136"><path
             id="path138"
             style="fill:#808080;fill-opacity:1;fill-rule:nonzero;stroke:none"
             d="m 0,0 c 0,-0.552 -0.447,-1 -1,-1 -0.553,0 -1,0.448 -1,1 0,0.552 0.447,1 1,1 0.553,0 1,-0.448 1,-1" /></g><g
           transform="translate(216,181)"
           id="g140"><path
             id="path142"
             style="fill:#4c4c4c;fill-opacity:1;fill-rule:nonzero;stroke:none"
             d="m 0,0 c 0,-0.552 -0.447,-1 -1,-1 -0.553,0 -1,0.448 -1,1 0,0.552 0.447,1 1,1 0.553,0 1,-0.448 1,-1" /></g><g
           transform="translate(220,181)"
           id="g144"><path
             id="path146"
             style="fill:#808080;fill-opacity:1;fill-rule:nonzero;stroke:none"
             d="m 0,0 c 0,-0.552 -0.447,-1 -1,-1 -0.553,0 -1,0.448 -1,1 0,0.552 0.447,1 1,1 0.553,0 1,-0.448 1,-1" /></g><g
           transform="translate(224,181)"
           id="g148"><path
             id="path150"
             style="fill:#4c4c4c;fill-opacity:1;fill-rule:nonzero;stroke:none"
             d="m 0,0 c 0,-0.552 -0.447,-1 -1,-1 -0.553,0 -1,0.448 -1,1 0,0.552 0.447,1 1,1 0.553,0 1,-0.448 1,-1" /></g><g
           transform="translate(228,181)"
           id="g152"><path
             id="path154"
             style="fill:#808080;fill-opacity:1;fill-rule:nonzero;stroke:none"
             d="m 0,0 c 0,-0.552 -0.447,-1 -1,-1 -0.553,0 -1,0.448 -1,1 0,0.552 0.447,1 1,1 0.553,0 1,-0.448 1,-1" /></g><g
           transform="translate(200,177)"
           id="g156"><path
             id="path158"
             style="fill:#808080;fill-opacity:1;fill-rule:nonzero;stroke:none"
             d="m 0,0 c 0,-0.552 -0.447,-1 -1,-1 -0.553,0 -1,0.448 -1,1 0,0.552 0.447,1 1,1 0.553,0 1,-0.448 1,-1" /></g><g
           transform="translate(204,177)"
           id="g160"><path
             id="path162"
             style="fill:#4c4c4c;fill-opacity:1;fill-rule:nonzero;stroke:none"
             d="m 0,0 c 0,-0.552 -0.447,-1 -1,-1 -0.553,0 -1,0.448 -1,1 0,0.552 0.447,1 1,1 0.553,0 1,-0.448 1,-1" /></g><g
           transform="translate(208,177)"
           id="g164"><path
             id="path166"
             style="fill:#808080;fill-opacity:1;fill-rule:nonzero;stroke:none"
             d="m 0,0 c 0,-0.552 -0.447,-1 -1,-1 -0.553,0 -1,0.448 -1,1 0,0.552 0.447,1 1,1 0.553,0 1,-0.448 1,-1" /></g><g
           transform="translate(212,177)"
           id="g168"><path
             id="path170"
             style="fill:#4c4c4c;fill-opacity:1;fill-rule:nonzero;stroke:none"
             d="m 0,0 c 0,-0.552 -0.447,-1 -1,-1 -0.553,0 -1,0.448 -1,1 0,0.552 0.447,1 1,1 0.553,0 1,-0.448 1,-1" /></g><g
           transform="translate(216,177)"
           id="g172"><path
             id="path174"
             style="fill:#808080;fill-opacity:1;fill-rule:nonzero;stroke:none"
             d="m 0,0 c 0,-0.552 -0.447,-1 -1,-1 -0.553,0 -1,0.448 -1,1 0,0.552 0.447,1 1,1 0.553,0 1,-0.448 1,-1" /></g><g
           transform="translate(220,177)"
           id="g176"><path
             id="path178"
             style="fill:#4c4c4c;fill-opacity:1;fill-rule:nonzero;stroke:none"
             d="m 0,0 c 0,-0.552 -0.447,-1 -1,-1 -0.553,0 -1,0.448 -1,1 0,0.552 0.447,1 1,1 0.553,0 1,-0.448 1,-1" /></g><g
           transform="translate(224,177)"
           id="g180"><path
             id="path182"
             style="fill:#808080;fill-opacity:1;fill-rule:nonzero;stroke:none"
             d="m 0,0 c 0,-0.552 -0.447,-1 -1,-1 -0.553,0 -1,0.448 -1,1 0,0.552 0.447,1 1,1 0.553,0 1,-0.448 1,-1" /></g><g
           transform="translate(228,177)"
           id="g184"><path
             id="path186"
             style="fill:#4c4c4c;fill-opacity:1;fill-rule:nonzero;stroke:none"
             d="m 0,0 c 0,-0.552 -0.447,-1 -1,-1 -0.553,0 -1,0.448 -1,1 0,0.552 0.447,1 1,1 0.553,0 1,-0.448 1,-1" /></g><g
           transform="translate(200,173)"
           id="g188"><path
             id="path190"
             style="fill:#808080;fill-opacity:1;fill-rule:nonzero;stroke:none"
             d="m 0,0 c 0,-0.552 -0.447,-1 -1,-1 -0.553,0 -1,0.448 -1,1 0,0.552 0.447,1 1,1 0.553,0 1,-0.448 1,-1" /></g><g
           transform="translate(204,173)"
           id="g192"><path
             id="path194"
             style="fill:#808080;fill-opacity:1;fill-rule:nonzero;stroke:none"
             d="m 0,0 c 0,-0.552 -0.447,-1 -1,-1 -0.553,0 -1,0.448 -1,1 0,0.552 0.447,1 1,1 0.553,0 1,-0.448 1,-1" /></g><g
           transform="translate(208,173)"
           id="g196"><path
             id="path198"
             style="fill:#4c4c4c;fill-opacity:1;fill-rule:nonzero;stroke:none"
             d="m 0,0 c 0,-0.552 -0.447,-1 -1,-1 -0.553,0 -1,0.448 -1,1 0,0.552 0.447,1 1,1 0.553,0 1,-0.448 1,-1" /></g><g
           transform="translate(212,173)"
           id="g200"><path
             id="path202"
             style="fill:#808080;fill-opacity:1;fill-rule:nonzero;stroke:none"
             d="m 0,0 c 0,-0.552 -0.447,-1 -1,-1 -0.553,0 -1,0.448 -1,1 0,0.552 0.447,1 1,1 0.553,0 1,-0.448 1,-1" /></g><g
           transform="translate(216,173)"
           id="g204"><path
             id="path206"
             style="fill:#4c4c4c;fill-opacity:1;fill-rule:nonzero;stroke:none"
             d="m 0,0 c 0,-0.552 -0.447,-1 -1,-1 -0.553,0 -1,0.448 -1,1 0,0.552 0.447,1 1,1 0.553,0 1,-0.448 1,-1" /></g><g
           transform="translate(220,173)"
           id="g208"><path
             id="path210"
             style="fill:#808080;fill-opacity:1;fill-rule:nonzero;stroke:none"
             d="m 0,0 c 0,-0.552 -0.447,-1 -1,-1 -0.553,0 -1,0.448 -1,1 0,0.552 0.447,1 1,1 0.553,0 1,-0.448 1,-1" /></g><g
           transform="translate(224,173)"
           id="g212"><path
             id="path214"
             style="fill:#4c4c4c;fill-opacity:1;fill-rule:nonzero;stroke:none"
             d="m 0,0 c 0,-0.552 -0.447,-1 -1,-1 -0.553,0 -1,0.448 -1,1 0,0.552 0.447,1 1,1 0.553,0 1,-0.448 1,-1" /></g><g
           transform="translate(228,173)"
           id="g216"><path
             id="path218"
             style="fill:#808080;fill-opacity:1;fill-rule:nonzero;stroke:none"
             d="m 0,0 c 0,-0.552 -0.447,-1 -1,-1 -0.553,0 -1,0.448 -1,1 0,0.552 0.447,1 1,1 0.553,0 1,-0.448 1,-1" /></g><g
           transform="translate(200,169)"
           id="g220"><path
             id="path222"
             style="fill:#808080;fill-opacity:1;fill-rule:nonzero;stroke:none"
             d="m 0,0 c 0,-0.552 -0.447,-1 -1,-1 -0.553,0 -1,0.448 -1,1 0,0.552 0.447,1 1,1 0.553,0 1,-0.448 1,-1" /></g><g
           transform="translate(204,169)"
           id="g224"><path
             id="path226"
             style="fill:#4c4c4c;fill-opacity:1;fill-rule:nonzero;stroke:none"
             d="m 0,0 c 0,-0.552 -0.447,-1 -1,-1 -0.553,0 -1,0.448 -1,1 0,0.552 0.447,1 1,1 0.553,0 1,-0.448 1,-1" /></g><g
           transform="translate(208,169)"
           id="g228"><path
             id="path230"
             style="fill:#808080;fill-opacity:1;fill-rule:nonzero;stroke:none"
             d="m 0,0 c 0,-0.552 -0.447,-1 -1,-1 -0.553,0 -1,0.448 -1,1 0,0.552 0.447,1 1,1 0.553,0 1,-0.448 1,-1" /></g><g
           transform="translate(212,169)"
           id="g232"><path
             id="path234"
             style="fill:#4c4c4c;fill-opacity:1;fill-rule:nonzero;stroke:none"
             d="m 0,0 c 0,-0.552 -0.447,-1 -1,-1 -0.553,0 -1,0.448 -1,1 0,0.552 0.447,1 1,1 0.553,0 1,-0.448 1,-1" /></g><g
           transform="translate(216,169)"
           id="g236"><path
             id="path238"
             style="fill:#808080;fill-opacity:1;fill-rule:nonzero;stroke:none"
             d="m 0,0 c 0,-0.552 -0.447,-1 -1,-1 -0.553,0 -1,0.448 -1,1 0,0.552 0.447,1 1,1 0.553,0 1,-0.448 1,-1" /></g><g
           transform="translate(220,169)"
           id="g240"><path
             id="path242"
             style="fill:#4c4c4c;fill-opacity:1;fill-rule:nonzero;stroke:none"
             d="m 0,0 c 0,-0.552 -0.447,-1 -1,-1 -0.553,0 -1,0.448 -1,1 0,0.552 0.447,1 1,1 0.553,0 1,-0.448 1,-1" /></g><g
           transform="translate(224,169)"
           id="g244"><path
             id="path246"
             style="fill:#808080;fill-opacity:1;fill-rule:nonzero;stroke:none"
             d="m 0,0 c 0,-0.552 -0.447,-1 -1,-1 -0.553,0 -1,0.448 -1,1 0,0.552 0.447,1 1,1 0.553,0 1,-0.448 1,-1" /></g><g
           transform="translate(228,169)"
           id="g248"><path
             id="path250"
             style="fill:#4c4c4c;fill-opacity:1;fill-rule:nonzero;stroke:none"
             d="m 0,0 c 0,-0.552 -0.447,-1 -1,-1 -0.553,0 -1,0.448 -1,1 0,0.552 0.447,1 1,1 0.553,0 1,-0.448 1,-1" /></g><g
           transform="translate(200,165)"
           id="g252"><path
             id="path254"
             style="fill:#808080;fill-opacity:1;fill-rule:nonzero;stroke:none"
             d="m 0,0 c 0,-0.552 -0.447,-1 -1,-1 -0.553,0 -1,0.448 -1,1 0,0.552 0.447,1 1,1 0.553,0 1,-0.448 1,-1" /></g><g
           transform="translate(204,165)"
           id="g256"><path
             id="path258"
             style="fill:#808080;fill-opacity:1;fill-rule:nonzero;stroke:none"
             d="m 0,0 c 0,-0.552 -0.447,-1 -1,-1 -0.553,0 -1,0.448 -1,1 0,0.552 0.447,1 1,1 0.553,0 1,-0.448 1,-1" /></g><g
           transform="translate(208,165)"
           id="g260"><path
             id="path262"
             style="fill:#4c4c4c;fill-opacity:1;fill-rule:nonzero;stroke:none"
             d="m 0,0 c 0,-0.552 -0.447,-1 -1,-1 -0.553,0 -1,0.448 -1,1 0,0.552 0.447,1 1,1 0.553,0 1,-0.448 1,-1" /></g><g
           transform="translate(212,165)"
           id="g264"><path
             id="path266"
             style="fill:#808080;fill-opacity:1;fill-rule:nonzero;stroke:none"
             d="m 0,0 c 0,-0.552 -0.447,-1 -1,-1 -0.553,0 -1,0.448 -1,1 0,0.552 0.447,1 1,1 0.553,0 1,-0.448 1,-1" /></g><g
           transform="translate(216,165)"
           id="g268"><path
             id="path270"
             style="fill:#4c4c4c;fill-opacity:1;fill-rule:nonzero;stroke:none"
             d="m 0,0 c 0,-0.552 -0.447,-1 -1,-1 -0.553,0 -1,0.448 -1,1 0,0.552 0.447,1 1,1 0.553,0 1,-0.448 1,-1" /></g><g
           transform="translate(220,165)"
           id="g272"><path
             id="path274"
             style="fill:#808080;fill-opacity:1;fill-rule:nonzero;stroke:none"
             d="m 0,0 c 0,-0.552 -0.447,-1 -1,-1 -0.553,0 -1,0.448 -1,1 0,0.552 0.447,1 1,1 0.553,0 1,-0.448 1,-1" /></g><g
           transform="translate(224,165)"
           id="g276"><path
             id="path278"
             style="fill:#4c4c4c;fill-opacity:1;fill-rule:nonzero;stroke:none"
             d="m 0,0 c 0,-0.552 -0.447,-1 -1,-1 -0.553,0 -1,0.448 -1,1 0,0.552 0.447,1 1,1 0.553,0 1,-0.448 1,-1" /></g><g
           transform="translate(228,165)"
           id="g280"><path
             id="path282"
             style="fill:#808080;fill-opacity:1;fill-rule:nonzero;stroke:none"
             d="m 0,0 c 0,-0.552 -0.447,-1 -1,-1 -0.553,0 -1,0.448 -1,1 0,0.552 0.447,1 1,1 0.553,0 1,-0.448 1,-1" /></g><g
           transform="translate(200,161)"
           id="g284"><path
             id="path286"
             style="fill:#808080;fill-opacity:1;fill-rule:nonzero;stroke:none"
             d="m 0,0 c 0,-0.552 -0.447,-1 -1,-1 -0.553,0 -1,0.448 -1,1 0,0.552 0.447,1 1,1 0.553,0 1,-0.448 1,-1" /></g><g
           transform="translate(204,161)"
           id="g288"><path
             id="path290"
             style="fill:#808080;fill-opacity:1;fill-rule:nonzero;stroke:none"
             d="m 0,0 c 0,-0.552 -0.447,-1 -1,-1 -0.553,0 -1,0.448 -1,1 0,0.552 0.447,1 1,1 0.553,0 1,-0.448 1,-1" /></g><g
           transform="translate(208,161)"
           id="g292"><path
             id="path294"
             style="fill:#808080;fill-opacity:1;fill-rule:nonzero;stroke:none"
             d="m 0,0 c 0,-0.552 -0.447,-1 -1,-1 -0.553,0 -1,0.448 -1,1 0,0.552 0.447,1 1,1 0.553,0 1,-0.448 1,-1" /></g><g
           transform="translate(212,161)"
           id="g296"><path
             id="path298"
             style="fill:#4c4c4c;fill-opacity:1;fill-rule:nonzero;stroke:none"
             d="m 0,0 c 0,-0.552 -0.447,-1 -1,-1 -0.553,0 -1,0.448 -1,1 0,0.552 0.447,1 1,1 0.553,0 1,-0.448 1,-1" /></g><g
           transform="translate(216,161)"
           id="g300"><path
             id="path302"
             style="fill:#808080;fill-opacity:1;fill-rule:nonzero;stroke:none"
             d="m 0,0 c 0,-0.552 -0.447,-1 -1,-1 -0.553,0 -1,0.448 -1,1 0,0.552 0.447,1 1,1 0.553,0 1,-0.448 1,-1" /></g><g
           transform="translate(220,161)"
           id="g304"><path
             id="path306"
             style="fill:#4c4c4c;fill-opacity:1;fill-rule:nonzero;stroke:none"
             d="m 0,0 c 0,-0.552 -0.447,-1 -1,-1 -0.553,0 -1,0.448 -1,1 0,0.552 0.447,1 1,1 0.553,0 1,-0.448 1,-1" /></g><g
           transform="translate(224,161)"
           id="g308"><path
             id="path310"
             style="fill:#808080;fill-opacity:1;fill-rule:nonzero;stroke:none"
             d="m 0,0 c 0,-0.552 -0.447,-1 -1,-1 -0.553,0 -1,0.448 -1,1 0,0.552 0.447,1 1,1 0.553,0 1,-0.448 1,-1" /></g><g
           transform="translate(228,161)"
           id="g312"><path
             id="path314"
             style="fill:#808080;fill-opacity:1;fill-rule:nonzero;stroke:none"
             d="m 0,0 c 0,-0.552 -0.447,-1 -1,-1 -0.553,0 -1,0.448 -1,1 0,0.552 0.447,1 1,1 0.553,0 1,-0.448 1,-1" /></g><g
           transform="translate(200,157)"
           id="g316"><path
             id="path318"
             style="fill:#808080;fill-opacity:1;fill-rule:nonzero;stroke:none"
             d="m 0,0 c 0,-0.552 -0.447,-1 -1,-1 -0.553,0 -1,0.448 -1,1 0,0.552 0.447,1 1,1 0.553,0 1,-0.448 1,-1" /></g><g
           transform="translate(232,185)"
           id="g320"><path
             id="path322"
             style="fill:#808080;fill-opacity:1;fill-rule:nonzero;stroke:none"
             d="m 0,0 c 0,-0.552 -0.447,-1 -1,-1 -0.553,0 -1,0.448 -1,1 0,0.552 0.447,1 1,1 0.553,0 1,-0.448 1,-1" /></g><g
           transform="translate(232,181)"
           id="g324"><path
             id="path326"
             style="fill:#808080;fill-opacity:1;fill-rule:nonzero;stroke:none"
             d="m 0,0 c 0,-0.552 -0.447,-1 -1,-1 -0.553,0 -1,0.448 -1,1 0,0.552 0.447,1 1,1 0.553,0 1,-0.448 1,-1" /></g><g
           transform="translate(232,177)"
           id="g328"><path
             id="path330"
             style="fill:#808080;fill-opacity:1;fill-rule:nonzero;stroke:none"
             d="m 0,0 c 0,-0.552 -0.447,-1 -1,-1 -0.553,0 -1,0.448 -1,1 0,0.552 0.447,1 1,1 0.553,0 1,-0.448 1,-1" /></g><g
           transform="translate(232,173)"
           id="g332"><path
             id="path334"
             style="fill:#808080;fill-opacity:1;fill-rule:nonzero;stroke:none"
             d="m 0,0 c 0,-0.552 -0.447,-1 -1,-1 -0.553,0 -1,0.448 -1,1 0,0.552 0.447,1 1,1 0.553,0 1,-0.448 1,-1" /></g><g
           transform="translate(232,169)"
           id="g336"><path
             id="path338"
             style="fill:#808080;fill-opacity:1;fill-rule:nonzero;stroke:none"
             d="m 0,0 c 0,-0.552 -0.447,-1 -1,-1 -0.553,0 -1,0.448 -1,1 0,0.552 0.447,1 1,1 0.553,0 1,-0.448 1,-1" /></g><g
           transform="translate(232,165)"
           id="g340"><path
             id="path342"
             style="fill:#808080;fill-opacity:1;fill-rule:nonzero;stroke:none"
             d="m 0,0 c 0,-0.552 -0.447,-1 -1,-1 -0.553,0 -1,0.448 -1,1 0,0.552 0.447,1 1,1 0.553,0 1,-0.448 1,-1" /></g><g
           transform="translate(232,161)"
           id="g344"><path
             id="path346"
             style="fill:#808080;fill-opacity:1;fill-rule:nonzero;stroke:none"
             d="m 0,0 c 0,-0.552 -0.447,-1 -1,-1 -0.553,0 -1,0.448 -1,1 0,0.552 0.447,1 1,1 0.553,0 1,-0.448 1,-1" /></g><g
           transform="translate(232,157)"
           id="g348"><path
             id="path350"
             style="fill:#808080;fill-opacity:1;fill-rule:nonzero;stroke:none"
             d="m 0,0 c 0,-0.552 -0.447,-1 -1,-1 -0.553,0 -1,0.448 -1,1 0,0.552 0.447,1 1,1 0.553,0 1,-0.448 1,-1" /></g><g
           transform="translate(204,157)"
           id="g352"><path
             id="path354"
             style="fill:#808080;fill-opacity:1;fill-rule:nonzero;stroke:none"
             d="m 0,0 c 0,-0.552 -0.447,-1 -1,-1 -0.553,0 -1,0.448 -1,1 0,0.552 0.447,1 1,1 0.553,0 1,-0.448 1,-1" /></g><g
           transform="translate(208,157)"
           id="g356"><path
             id="path358"
             style="fill:#808080;fill-opacity:1;fill-rule:nonzero;stroke:none"
             d="m 0,0 c 0,-0.552 -0.447,-1 -1,-1 -0.553,0 -1,0.448 -1,1 0,0.552 0.447,1 1,1 0.553,0 1,-0.448 1,-1" /></g><g
           transform="translate(212,157)"
           id="g360"><path
             id="path362"
             style="fill:#808080;fill-opacity:1;fill-rule:nonzero;stroke:none"
             d="m 0,0 c 0,-0.552 -0.447,-1 -1,-1 -0.553,0 -1,0.448 -1,1 0,0.552 0.447,1 1,1 0.553,0 1,-0.448 1,-1" /></g><g
           transform="translate(216,157)"
           id="g364"><path
             id="path366"
             style="fill:#808080;fill-opacity:1;fill-rule:nonzero;stroke:none"
             d="m 0,0 c 0,-0.552 -0.447,-1 -1,-1 -0.553,0 -1,0.448 -1,1 0,0.552 0.447,1 1,1 0.553,0 1,-0.448 1,-1" /></g><g
           transform="translate(220,157)"
           id="g368"><path
             id="path370"
             style="fill:#808080;fill-opacity:1;fill-rule:nonzero;stroke:none"
             d="m 0,0 c 0,-0.552 -0.447,-1 -1,-1 -0.553,0 -1,0.448 -1,1 0,0.552 0.447,1 1,1 0.553,0 1,-0.448 1,-1" /></g><g
           transform="translate(224,157)"
           id="g372"><path
             id="path374"
             style="fill:#808080;fill-opacity:1;fill-rule:nonzero;stroke:none"
             d="m 0,0 c 0,-0.552 -0.447,-1 -1,-1 -0.553,0 -1,0.448 -1,1 0,0.552 0.447,1 1,1 0.553,0 1,-0.448 1,-1" /></g><g
           transform="translate(228,157)"
           id="g376"><path
             id="path378"
             style="fill:#808080;fill-opacity:1;fill-rule:nonzero;stroke:none"
             d="m 0,0 c 0,-0.552 -0.447,-1 -1,-1 -0.553,0 -1,0.448 -1,1 0,0.552 0.447,1 1,1 0.553,0 1,-0.448 1,-1" /></g><g
           transform="translate(59.9785,114.4209)"
           id="g380"><path
             id="path382"
             style="fill:#d35400;fill-opacity:1;fill-rule:nonzero;stroke:none"
             d="m 0,0 c -0.004,0.059 -0.003,0.116 -0.009,0.176 -0.306,4.138 -3.753,7.403 -7.97,7.403 -1.972,0 -3.773,-0.716 -5.164,-1.901 -1.509,-1.286 -3.362,-2.099 -5.345,-2.099 h -2.981 c -1.983,0 -3.836,0.813 -5.345,2.099 -1.391,1.185 -3.192,1.901 -5.165,1.901 -4.216,0 -7.663,-3.265 -7.969,-7.403 -0.006,-0.06 -0.005,-0.117 -0.009,-0.176 -0.008,-0.141 -0.022,-0.279 -0.022,-0.421 0,-0.024 0.004,-0.048 0.004,-0.072 0.001,-0.082 0.008,-0.163 0.013,-0.245 0.168,-4.271 3.672,-7.683 7.983,-7.683 1.973,0 3.774,0.716 5.165,1.901 1.509,1.287 3.362,2.099 5.345,2.099 h 2.981 c 1.983,0 3.836,-0.812 5.345,-2.099 1.391,-1.185 3.192,-1.901 5.164,-1.901 4.312,0 7.816,3.412 7.984,7.683 0.005,0.082 0.012,0.163 0.013,0.245 0,0.024 0.003,0.048 0.003,0.072 C 0.021,-0.279 0.008,-0.141 0,0" /></g></g></g></g></svg>