<svg xmlns="http://www.w3.org/2000/svg" xml:space="preserve" viewBox="0 0 256 256"><path d="M128 4c-20.927 0-40.715 7.828-55.719 22.043C59.175 38.458 50.956 54.555 48.673 72L48 80v146c0 3.753 1.663 9.21 9.587 13.893 4.291 2.536 10.199 4.755 17.561 6.596C89.363 250.043 108.133 252 128 252s38.637-1.957 52.852-5.511c7.361-1.84 13.27-4.059 17.561-6.596C206.337 235.21 208 229.753 208 226V80l-.673-8c-2.282-17.445-10.502-33.542-23.607-45.957C168.715 11.828 148.927 4 128 4" style="opacity:.5;fill:#fff"/><path d="M199.948 80C198.856 42.268 167.075 12 128 12S57.144 42.268 56.052 80H56v146c0 9.941 32.235 18 72 18s72-8.059 72-18V80z" style="fill:#f2f2f2"/><path d="M106.071 22.353A12 12 0 0 0 117.838 32h20.325a12 12 0 0 0 11.767-9.647l1.321-6.603C143.955 13.33 136.14 12 128 12s-15.955 1.33-23.25 3.751z" style="fill:#fff"/><path d="M160 132H96c-11 0-20-9-20-20V68c0-13.2 10.8-24 24-24h56c13.2 0 24 10.8 24 24v44c0 11-9 20-20 20" style="fill:#999"/><path d="M92 52h72v72H92z" style="fill:gray"/><circle cx="80" cy="172" r="12" style="fill:#e6e6e6"/><circle cx="128" cy="180" r="12" style="fill:#e6e6e6"/><circle cx="104" cy="156" r="12" style="fill:#e6e6e6"/><circle cx="104" cy="192" r="12" style="fill:#e6e6e6"/><circle cx="176" cy="172" r="16" style="fill:#e6e6e6"/><circle cx="80" cy="172" r="8" style="fill:#fff"/><circle cx="104" cy="156" r="8" style="fill:#fff"/><circle cx="104" cy="192" r="8" style="fill:#fff"/><circle cx="128" cy="180" r="8" style="fill:#fff"/><circle cx="176" cy="172" r="12" style="fill:#fff"/><path d="M64 132c0 6.627 28.654 8 64 8s64-1.373 64-8v-12h8v-4h-12v15.273c-1.015.664-4.912 2.426-18.552 3.542-9.871.809-23.041 1.185-41.448 1.185s-31.577-.376-41.448-1.184c-13.64-1.117-17.537-2.878-18.552-3.542V116H56v4h8zm-8 44v23c7.006 19.63 22.713 35.495 42.753 43.447 8.94.996 18.83 1.553 29.247 1.553-39.765 0-72-30.445-72-68m72 68c10.417 0 20.307-.557 29.247-1.553C177.287 234.495 192.994 218.63 200 199v-23c0 37.555-32.235 68-72 68m21.929-221.647.605-3.024A77.8 77.8 0 0 0 128 16a77.8 77.8 0 0 0-22.534 3.329l.605 3.024a12 12 0 0 0 .221.899C113.143 21.147 120.432 20 128 20s14.857 1.147 21.708 3.253a12 12 0 0 1 .221-.9" style="fill:#e6e6e6"/></svg>