<?xml version="1.0" encoding="UTF-8" standalone="no"?>
<svg
   xmlns:dc="http://purl.org/dc/elements/1.1/"
   xmlns:cc="http://creativecommons.org/ns#"
   xmlns:rdf="http://www.w3.org/1999/02/22-rdf-syntax-ns#"
   xmlns:svg="http://www.w3.org/2000/svg"
   xmlns="http://www.w3.org/2000/svg"
   viewBox="0 0 330.66665 197.33333"
   height="197.33333"
   width="330.66666"
   xml:space="preserve"
   id="svg2"
   version="1.1"><metadata
     id="metadata8"><rdf:RDF><cc:Work
         rdf:about=""><dc:format>image/svg+xml</dc:format><dc:type
           rdf:resource="http://purl.org/dc/dcmitype/StillImage" /></cc:Work></rdf:RDF></metadata><defs
     id="defs6"><clipPath
       id="clipPath18"
       clipPathUnits="userSpaceOnUse"><path
         id="path16"
         d="M 0,256 H 256 V 0 H 0 Z" /></clipPath><clipPath
       id="clipPath26"
       clipPathUnits="userSpaceOnUse"><path
         id="path24"
         d="M 4,200 H 252 V 52 H 4 Z" /></clipPath></defs><g
     transform="matrix(1.3333333,0,0,-1.3333333,-5.3333332,266.66666)"
     id="g10"><g
       id="g12"><g
         clip-path="url(#clipPath18)"
         id="g14"><g
           id="g20"><g
             id="g22" /><g
             id="g34"><g
               style="opacity:0.5"
               id="g32"
               clip-path="url(#clipPath26)"><g
                 id="g30"
                 transform="translate(228,200)"><path
                   id="path28"
                   style="fill:#ffffff;fill-opacity:1;fill-rule:nonzero;stroke:none"
                   d="m 0,0 h -200 c -9.634,0 -19.926,-6.26 -20,-23.81 l -3.992,-87.827 -0.008,-0.181 V -112 c 0,-19.851 16.149,-36 36,-36 h 176 c 19.851,0 36,16.149 36,36 v 0.182 l -0.008,0.181 L 20,-23.81 C 19.926,-6.26 9.634,0 0,0" /></g></g></g></g><g
           transform="translate(216,60)"
           id="g36"><path
             id="path38"
             style="fill:#404040;fill-opacity:1;fill-rule:nonzero;stroke:none"
             d="m 0,0 h -176 c -15.464,0 -28,12.536 -28,28 l 4,88 c 0,8.836 3.164,16 12,16 H 12 c 8.837,0 12,-7.164 12,-16 L 28,28 C 28,12.536 15.464,0 0,0" /></g><g
           transform="translate(216,188)"
           id="g40"><path
             id="path42"
             style="fill:#cccccc;fill-opacity:1;fill-rule:nonzero;stroke:none"
             d="m 0,0 h -168 c -6.627,0 -12,-12.536 -12,-28 0,-15.464 5.373,-28 12,-28 H 0 c 6.627,0 12,12.536 12,28 C 12,-12.536 6.627,0 0,0" /></g><path
           id="path44"
           style="fill:#808080;fill-opacity:1;fill-rule:nonzero;stroke:none"
           d="M 216,140 H 48 v 40 h 168 z" /><g
           transform="translate(28,116)"
           id="g46"><path
             id="path48"
             style="fill:#eac500;fill-opacity:1;fill-rule:nonzero;stroke:none"
             d="m 0,0 h -4 c -2.209,0 -4,1.791 -4,4 0,2.209 1.791,4 4,4 H 0 C 2.209,8 4,6.209 4,4 4,1.791 2.209,0 0,0" /></g><g
           transform="translate(112,112)"
           id="g50"><path
             id="path52"
             style="fill:#262626;fill-opacity:1;fill-rule:nonzero;stroke:none"
             d="m 0,0 c 0,-2.209 -2.687,-4 -6,-4 -3.313,0 -6,1.791 -6,4 0,2.209 2.687,4 6,4 3.313,0 6,-1.791 6,-4" /></g><g
           transform="translate(112,96)"
           id="g54"><path
             id="path56"
             style="fill:#262626;fill-opacity:1;fill-rule:nonzero;stroke:none"
             d="m 0,0 c 0,-2.209 -2.687,-4 -6,-4 -3.313,0 -6,1.791 -6,4 0,2.209 2.687,4 6,4 3.313,0 6,-1.791 6,-4" /></g><g
           transform="translate(140,112)"
           id="g58"><path
             id="path60"
             style="fill:#262626;fill-opacity:1;fill-rule:nonzero;stroke:none"
             d="m 0,0 c 0,-2.209 -2.687,-4 -6,-4 -3.313,0 -6,1.791 -6,4 0,2.209 2.687,4 6,4 3.313,0 6,-1.791 6,-4" /></g><g
           transform="translate(140,96)"
           id="g62"><path
             id="path64"
             style="fill:#262626;fill-opacity:1;fill-rule:nonzero;stroke:none"
             d="m 0,0 c 0,-2.209 -2.687,-4 -6,-4 -3.313,0 -6,1.791 -6,4 0,2.209 2.687,4 6,4 3.313,0 6,-1.791 6,-4" /></g><g
           transform="translate(110,80)"
           id="g66"><path
             id="path68"
             style="fill:#262626;fill-opacity:1;fill-rule:nonzero;stroke:none"
             d="m 0,0 c 0,-2.209 -1.791,-4 -4,-4 -2.209,0 -4,1.791 -4,4 0,2.209 1.791,4 4,4 2.209,0 4,-1.791 4,-4" /></g><g
           transform="translate(138,80)"
           id="g70"><path
             id="path72"
             style="fill:#262626;fill-opacity:1;fill-rule:nonzero;stroke:none"
             d="m 0,0 c 0,-2.209 -1.791,-4 -4,-4 -2.209,0 -4,1.791 -4,4 0,2.209 1.791,4 4,4 2.209,0 4,-1.791 4,-4" /></g><g
           transform="translate(84,96)"
           id="g74"><path
             id="path76"
             style="fill:#cccccc;fill-opacity:1;fill-rule:nonzero;stroke:none"
             d="m 0,0 c 0,-13.255 -10.745,-24 -24,-24 -13.255,0 -24,10.745 -24,24 0,13.255 10.745,24 24,24 C -10.745,24 0,13.255 0,0" /></g><g
           transform="translate(220,84)"
           id="g78"><path
             id="path80"
             style="fill:#cccccc;fill-opacity:1;fill-rule:nonzero;stroke:none"
             d="m 0,0 c 0,-4.418 -3.582,-8 -8,-8 -4.418,0 -8,3.582 -8,8 0,4.418 3.582,8 8,8 4.418,0 8,-3.582 8,-8" /></g><g
           transform="translate(74.1421,84.6865)"
           id="g82"><path
             id="path84"
             style="fill:#d9d9d9;fill-opacity:1;fill-rule:nonzero;stroke:none"
             d="M 0,0 -11.313,11.313 0,22.627 c 0.781,0.781 0.781,2.048 0,2.829 -0.781,0.78 -2.047,0.78 -2.829,0 L -14.142,14.142 -25.456,25.456 c -0.781,0.78 -2.047,0.78 -2.828,0 -0.781,-0.781 -0.781,-2.048 0,-2.829 L -16.971,11.313 -28.284,0 c -0.781,-0.781 -0.781,-2.048 0,-2.829 0.781,-0.78 2.047,-0.78 2.828,0 L -14.142,8.485 -2.829,-2.829 c 0.782,-0.78 2.048,-0.78 2.829,0 0.781,0.781 0.781,2.048 0,2.829" /></g><g
           transform="translate(165.8164,100.5977)"
           id="g86"><path
             id="path88"
             style="fill:#cccccc;fill-opacity:1;fill-rule:nonzero;stroke:none"
             d="m 0,0 c -3.125,-3.752 -5.832,-7.853 -8.028,-12.242 -2.838,-5.674 1.219,-12.356 7.563,-12.356 3.262,0 6.188,1.893 7.647,4.811 1.509,3.017 3.349,5.883 5.465,8.545 z" /></g><g
           transform="translate(193.6797,120.1689)"
           id="g90"><path
             id="path92"
             style="fill:#cccccc;fill-opacity:1;fill-rule:nonzero;stroke:none"
             d="m 0,0 c -9.659,-3.528 -18.296,-9.252 -25.208,-16.578 l 12.605,-11.205 c 5.439,5.826 12.298,10.411 19.96,13.067 z" /></g><g
           transform="translate(216,124)"
           id="g94"><path
             id="path96"
             style="fill:#cccccc;fill-opacity:1;fill-rule:nonzero;stroke:none"
             d="m 0,0 v 0.132 c -6.398,0 -12.601,-0.956 -18.48,-2.698 l 7.414,-14.829 C -7.5,-16.496 -3.796,-16 0,-16 c 4.418,0 8,3.582 8,8 0,4.418 -3.582,8 -8,8" /></g></g></g></g></svg>