<svg xmlns="http://www.w3.org/2000/svg" xml:space="preserve" width="258.674" height="325.333" viewBox="0 0 258.674 325.333"><defs><clipPath id="a" clipPathUnits="userSpaceOnUse"><path d="M0 256h256V0H0Z"/></clipPath><clipPath id="b" clipPathUnits="userSpaceOnUse"><path d="M29.994 248H224V4H29.994Z"/></clipPath></defs><g clip-path="url(#a)" transform="matrix(1.33333 0 0 -1.33333 -39.992 330.666)"><g clip-path="url(#b)" style="opacity:.5"><path d="M0 0c-.663 16.534-2.144 31.474-4.401 44.415-1.098 22.288-5.285 38.59-12.446 48.462-5.592 7.71-11.853 10.016-15.83 10.65-5.62 3.653-10.027 3.972-11.348 3.973H-148.61l-.439-.048c-18.87-2.09-31.832-21.574-38.526-57.91-4.586-24.889-4.638-48.855-4.638-49.863V-68.2c0-11.092 3.397-20.624 10.097-28.332 5.188-5.967 12.277-10.702 21.071-14.074 14.235-5.459 28.305-5.521 28.897-5.521 51.475 0 65.881-5.855 67.794-6.757l.284-.232-.161.172.043-.021c14.856-9.108 27.032-13.535 37.22-13.535 11.55 0 17.998 5.711 21.373 10.502 3.608 5.12 4.919 10.831 5.384 14.72.134 1.124.306 2.321.526 3.66C1.517-100.306 3.073-76.602 0 0" style="fill:#fff;fill-opacity:1;fill-rule:nonzero;stroke:none" transform="translate(222.207 140.5)"/></g><path d="M0 0s24 4 24-64h-8Z" style="fill:#29678f;fill-opacity:1;fill-rule:nonzero;stroke:none" transform="translate(187.111 238.204)"/><path d="M0 0c-4.005 99.821-36.045 99.821-36.045 99.821h-104.13C-176.22 95.829-176.22 0-176.22 0v-67.879c0-39.928 52.065-39.928 52.065-39.928 60.075 0 72.091-7.986 72.091-7.986 44.471-27.284 50.957-2.131 51.903 5.785.16 1.341.356 2.676.576 4.008C1.323-100.47 3.169-78.981 0 0" style="fill:#ccc;fill-opacity:1;fill-rule:nonzero;stroke:none" transform="translate(215.22 142.179)"/><path d="M0 0h20c.859 8.897.894 30.701-1.687 95.203-3.799 95.001-34.2 95.001-34.2 95.001h-96.902c-2.032 0-4.071-.257-5.994-.916C-148.889 178.971-148 95.203-148 95.203V32c0-38 48-40 48-40 57.001 0 68-8 68-8 13.351-8.216 24.891-11.676 32-12z" style="fill:#e6e6e6;fill-opacity:1;fill-rule:nonzero;stroke:none" transform="translate(191.74 48)"/><path d="M0 0c-2.757 0-5-2.243-5-5s2.243-5 5-5 5 2.243 5 5-2.243 5-5 5m0-2a3 3 0 1 0 0-6 3 3 0 0 0 0 6" style="fill:#ccc;fill-opacity:1;fill-rule:nonzero;stroke:none" transform="translate(128 69)"/><path d="M0 0c-5.514 0-10-4.486-10-10s4.486-10 10-10 10 4.486 10 10S5.514 0 0 0m0-2a8 8 0 1 0 0-16A8 8 0 0 0 0-2" style="fill:#ccc;fill-opacity:1;fill-rule:nonzero;stroke:none" transform="translate(128 98)"/><path d="M0 0c-13.655-1.061-24.693-12.166-25.686-25.826a28 28 0 0 1 2.059-12.82 2.025 2.025 0 0 1 1.862-1.267h10.003a2 2 0 0 0 2-2v-10.002c0-.822.507-1.548 1.266-1.863a28 28 0 0 1 12.819-2.059c13.659.991 24.765 12.028 25.827 25.683C31.49-12.927 17.227 1.338 0 0" style="fill:#3096cf;fill-opacity:1;fill-rule:nonzero;stroke:none" transform="translate(77.762 111.913)"/><path d="M0 0c0-28.719-30.444-52-68-52s-68 23.281-68 52 30.445 52 68 52S0 28.719 0 0" style="fill:#000;fill-opacity:1;fill-rule:nonzero;stroke:none" transform="translate(196 168)"/><path d="M0 0h-72c-6.6 0-12 5.4-12 12v40c0 6.6 5.4 12 12 12H0c6.6 0 12-5.4 12-12V12C12 5.4 6.6 0 0 0" style="fill:#999;fill-opacity:1;fill-rule:nonzero;stroke:none" transform="translate(164 136)"/><path d="M0 0h-12v12a3 3 0 0 1-3 3h-12a3 3 0 0 1-3-3V0h-12a3 3 0 0 1-3-3v-12a3 3 0 0 1 3-3h12v-12a3 3 0 0 1 3-3h12a3 3 0 0 1 3 3v12H0a3 3 0 0 1 3 3v12a3 3 0 0 1-3 3" style="fill:#29678f;fill-opacity:1;fill-rule:nonzero;stroke:none" transform="translate(101 93)"/><path d="M0 0a6 6 0 0 0-12 0A6 6 0 0 0 0 0" style="fill:#3096cf;fill-opacity:1;fill-rule:nonzero;stroke:none" transform="translate(86 84)"/><path d="m0 0 7.714 3.932c.429.218.965-.055.965-.492v-7.863c0-.436-.536-.71-.965-.491L0-.982C-.428-.765-.428-.218 0 0" style="fill:#3096cf;fill-opacity:1;fill-rule:nonzero;stroke:none" transform="translate(59.321 84.491)"/><path d="m0 0-7.714-3.932c-.429-.218-.965.055-.965.492v7.863c0 .436.536.71.965.491L0 .982C.428.765.428.218 0 0" style="fill:#3096cf;fill-opacity:1;fill-rule:nonzero;stroke:none" transform="translate(100.679 83.509)"/><path d="m0 0 3.932-7.715c.218-.428-.055-.964-.492-.964h-7.863c-.437 0-.71.536-.492.964L-.983 0c.218.429.764.429.983 0" style="fill:#3096cf;fill-opacity:1;fill-rule:nonzero;stroke:none" transform="translate(80.492 104.679)"/><path d="m0 0-3.932 7.715c-.218.428.055.964.492.964h7.863c.437 0 .71-.536.492-.964L.983 0C.765-.429.219-.429 0 0" style="fill:#3096cf;fill-opacity:1;fill-rule:nonzero;stroke:none" transform="translate(79.508 63.321)"/><path d="M0 0a4 4 0 1 0-8 0 4 4 0 0 0 8 0" style="fill:#ccc;fill-opacity:1;fill-rule:nonzero;stroke:none" transform="translate(132 88)"/><path d="M160 80h-4v8h4z" style="fill:#3096cf;fill-opacity:1;fill-rule:nonzero;stroke:none"/><path d="m0 0-4 4 4 4 4-4Z" style="fill:#3096cf;fill-opacity:1;fill-rule:nonzero;stroke:none" transform="translate(152 56)"/><path d="m0 0-4 4 4 4 4-4Z" style="fill:#3096cf;fill-opacity:1;fill-rule:nonzero;stroke:none" transform="translate(184 80)"/><path d="m0 0-4 4 4 4 4-4Z" style="fill:#3096cf;fill-opacity:1;fill-rule:nonzero;stroke:none" transform="translate(184 100)"/><path d="m0 0-4 4 4 4 4-4Z" style="fill:#3096cf;fill-opacity:1;fill-rule:nonzero;stroke:none" transform="translate(200 80)"/><path d="M0 0a2 2 0 1 0-4.001.001A2 2 0 0 0 0 0" style="fill:#b3b3b3;fill-opacity:1;fill-rule:nonzero;stroke:none" transform="translate(130 64)"/><path d="M152 238h-48v4h48z" style="fill:#b3b3b3;fill-opacity:1;fill-rule:nonzero;stroke:none"/><path d="M0 0a4 4 0 1 0-8 0 4 4 0 0 0 8 0" style="fill:#e6e6e6;fill-opacity:1;fill-rule:nonzero;stroke:none" transform="translate(204 40)"/><path d="M176 68h-8v4h8z" style="fill:#3096cf;fill-opacity:1;fill-rule:nonzero;stroke:none"/><path d="M0 0c0-6.628-5.373-12-12-12S-24-6.628-24 0c0 6.627 5.373 12 12 12S0 6.627 0 0" style="fill:#29678f;fill-opacity:1;fill-rule:nonzero;stroke:none" transform="translate(172 70.204)"/><path d="M0 0c0-6.628-5.373-12-12-12S-24-6.628-24 0c0 6.627 5.373 12 12 12S0 6.627 0 0" style="fill:#29678f;fill-opacity:1;fill-rule:nonzero;stroke:none" transform="translate(204 94.204)"/></g></svg>