<?xml version="1.0" encoding="UTF-8" standalone="no"?>
<svg
   xmlns:dc="http://purl.org/dc/elements/1.1/"
   xmlns:cc="http://creativecommons.org/ns#"
   xmlns:rdf="http://www.w3.org/1999/02/22-rdf-syntax-ns#"
   xmlns:svg="http://www.w3.org/2000/svg"
   xmlns="http://www.w3.org/2000/svg"
   viewBox="0 0 258.67425 325.33267"
   height="325.33267"
   width="258.67426"
   xml:space="preserve"
   id="svg2"
   version="1.1"><metadata
     id="metadata8"><rdf:RDF><cc:Work
         rdf:about=""><dc:format>image/svg+xml</dc:format><dc:type
           rdf:resource="http://purl.org/dc/dcmitype/StillImage" /></cc:Work></rdf:RDF></metadata><defs
     id="defs6"><clipPath
       id="clipPath18"
       clipPathUnits="userSpaceOnUse"><path
         id="path16"
         d="M 0,256 H 256 V 0 H 0 Z" /></clipPath><clipPath
       id="clipPath26"
       clipPathUnits="userSpaceOnUse"><path
         id="path24"
         d="M 29.9937,248 H 224 V 4 H 29.9937 Z" /></clipPath></defs><g
     transform="matrix(1.3333333,0,0,-1.3333333,-39.991999,330.66599)"
     id="g10"><g
       id="g12"><g
         clip-path="url(#clipPath18)"
         id="g14"><g
           id="g20"><g
             id="g22" /><g
             id="g34"><g
               style="opacity:0.5"
               id="g32"
               clip-path="url(#clipPath26)"><g
                 id="g30"
                 transform="translate(222.207,140.4995)"><path
                   id="path28"
                   style="fill:#ffffff;fill-opacity:1;fill-rule:nonzero;stroke:none"
                   d="m 0,0 c -0.663,16.534 -2.144,31.474 -4.401,44.415 -1.098,22.288 -5.285,38.59 -12.446,48.462 -5.592,7.71 -11.853,10.016 -15.83,10.65 -5.62,3.653 -10.027,3.972 -11.348,3.973 h -0.006 -0.007 -96.12 -6.008 -2.002 -0.442 l -0.439,-0.048 c -18.87,-2.09 -31.832,-21.574 -38.526,-57.91 -4.586,-24.889 -4.638,-48.855 -4.638,-49.863 V -68.2 c 0,-11.092 3.397,-20.624 10.097,-28.332 5.188,-5.967 12.277,-10.702 21.071,-14.074 14.235,-5.459 28.305,-5.521 28.897,-5.521 51.475,0 65.881,-5.855 67.794,-6.757 l 0.284,-0.232 -0.161,0.172 c 0.016,-0.008 0.031,-0.015 0.043,-0.021 14.856,-9.108 27.032,-13.535 37.22,-13.535 11.55,0 17.998,5.711 21.373,10.502 3.608,5.12 4.919,10.831 5.384,14.72 0.134,1.124 0.306,2.321 0.526,3.66 C 1.517,-100.306 3.073,-76.602 0,0" /></g></g></g></g><g
           transform="translate(187.1113,238.2041)"
           id="g36"><path
             id="path38"
             style="fill:#29678f;fill-opacity:1;fill-rule:nonzero;stroke:none"
             d="M 0,0 C 0,0 24,4 24,-64 H 16 Z" /></g><g
           transform="translate(215.2197,142.1787)"
           id="g40"><path
             id="path42"
             style="fill:#cccccc;fill-opacity:1;fill-rule:nonzero;stroke:none"
             d="m 0,0 c -4.005,99.821 -36.045,99.821 -36.045,99.821 h -96.12 -6.007 -2.003 C -176.22,95.829 -176.22,0 -176.22,0 v -67.879 c 0,-39.928 52.065,-39.928 52.065,-39.928 60.075,0 72.091,-7.986 72.091,-7.986 44.471,-27.284 50.957,-2.131 51.903,5.785 0.16,1.341 0.356,2.676 0.576,4.008 C 1.323,-100.47 3.169,-78.981 0,0" /></g><g
           transform="translate(191.7393,48)"
           id="g44"><path
             id="path46"
             style="fill:#e6e6e6;fill-opacity:1;fill-rule:nonzero;stroke:none"
             d="m 0,0 h 12 8 c 0.859,8.897 0.894,30.701 -1.687,95.203 -3.799,95.001 -34.2,95.001 -34.2,95.001 h -91.201 -5.701 c -2.032,0 -4.071,-0.257 -5.994,-0.916 C -148.889,178.971 -148,95.203 -148,95.203 V 32 c 0,-38 48,-40 48,-40 57.001,0 68,-8 68,-8 13.351,-8.216 24.891,-11.676 32,-12 z" /></g><g
           transform="translate(128,69)"
           id="g48"><path
             id="path50"
             style="fill:#cccccc;fill-opacity:1;fill-rule:nonzero;stroke:none"
             d="m 0,0 c -2.757,0 -5,-2.243 -5,-5 0,-2.757 2.243,-5 5,-5 2.757,0 5,2.243 5,5 0,2.757 -2.243,5 -5,5 m 0,-2 c 1.657,0 3,-1.343 3,-3 0,-1.657 -1.343,-3 -3,-3 -1.657,0 -3,1.343 -3,3 0,1.657 1.343,3 3,3" /></g><g
           transform="translate(128,98)"
           id="g52"><path
             id="path54"
             style="fill:#cccccc;fill-opacity:1;fill-rule:nonzero;stroke:none"
             d="m 0,0 c -5.514,0 -10,-4.486 -10,-10 0,-5.514 4.486,-10 10,-10 5.514,0 10,4.486 10,10 C 10,-4.486 5.514,0 0,0 m 0,-2 c 4.418,0 8,-3.582 8,-8 0,-4.418 -3.582,-8 -8,-8 -4.418,0 -8,3.582 -8,8 0,4.418 3.582,8 8,8" /></g><g
           transform="translate(77.7622,111.9131)"
           id="g56"><path
             id="path58"
             style="fill:#3096cf;fill-opacity:1;fill-rule:nonzero;stroke:none"
             d="m 0,0 c -13.655,-1.061 -24.693,-12.166 -25.686,-25.826 -0.332,-4.565 0.435,-8.915 2.059,-12.82 0.315,-0.759 1.041,-1.267 1.862,-1.267 h 10.003 c 1.104,0 2,-0.896 2,-2 v -10.002 c 0,-0.822 0.507,-1.548 1.266,-1.863 3.905,-1.623 8.255,-2.391 12.819,-2.059 13.659,0.991 24.765,12.028 25.827,25.683 C 31.49,-12.927 17.227,1.338 0,0" /></g><g
           transform="translate(196,168)"
           id="g60"><path
             id="path62"
             style="fill:#000000;fill-opacity:1;fill-rule:nonzero;stroke:none"
             d="m 0,0 c 0,-28.719 -30.444,-52 -68,-52 -37.555,0 -68,23.281 -68,52 0,28.719 30.445,52 68,52 C -30.444,52 0,28.719 0,0" /></g><g
           transform="translate(164,136)"
           id="g64"><path
             id="path66"
             style="fill:#999999;fill-opacity:1;fill-rule:nonzero;stroke:none"
             d="m 0,0 h -72 c -6.6,0 -12,5.4 -12,12 v 40 c 0,6.6 5.4,12 12,12 H 0 C 6.6,64 12,58.6 12,52 V 12 C 12,5.4 6.6,0 0,0" /></g><g
           transform="translate(101,93)"
           id="g68"><path
             id="path70"
             style="fill:#29678f;fill-opacity:1;fill-rule:nonzero;stroke:none"
             d="m 0,0 h -12 v 12 c 0,1.657 -1.343,3 -3,3 h -12 c -1.657,0 -3,-1.343 -3,-3 V 0 h -12 c -1.657,0 -3,-1.343 -3,-3 v -12 c 0,-1.657 1.343,-3 3,-3 h 12 v -12 c 0,-1.657 1.343,-3 3,-3 h 12 c 1.657,0 3,1.343 3,3 v 12 H 0 c 1.657,0 3,1.343 3,3 V -3 C 3,-1.343 1.657,0 0,0" /></g><g
           transform="translate(86,84)"
           id="g72"><path
             id="path74"
             style="fill:#3096cf;fill-opacity:1;fill-rule:nonzero;stroke:none"
             d="m 0,0 c 0,-3.313 -2.687,-6 -6,-6 -3.313,0 -6,2.687 -6,6 0,3.313 2.687,6 6,6 3.313,0 6,-2.687 6,-6" /></g><g
           transform="translate(59.3213,84.4912)"
           id="g76"><path
             id="path78"
             style="fill:#3096cf;fill-opacity:1;fill-rule:nonzero;stroke:none"
             d="M 0,0 7.714,3.932 C 8.143,4.15 8.679,3.877 8.679,3.44 v -7.863 c 0,-0.436 -0.536,-0.71 -0.965,-0.491 L 0,-0.982 C -0.428,-0.765 -0.428,-0.218 0,0" /></g><g
           transform="translate(100.6787,83.5088)"
           id="g80"><path
             id="path82"
             style="fill:#3096cf;fill-opacity:1;fill-rule:nonzero;stroke:none"
             d="m 0,0 -7.714,-3.932 c -0.429,-0.218 -0.965,0.055 -0.965,0.492 v 7.863 c 0,0.436 0.536,0.71 0.965,0.491 L 0,0.982 C 0.428,0.765 0.428,0.218 0,0" /></g><g
           transform="translate(80.4917,104.6787)"
           id="g84"><path
             id="path86"
             style="fill:#3096cf;fill-opacity:1;fill-rule:nonzero;stroke:none"
             d="M 0,0 3.932,-7.715 C 4.15,-8.143 3.877,-8.679 3.44,-8.679 h -7.863 c -0.437,0 -0.71,0.536 -0.492,0.964 L -0.983,0 C -0.765,0.429 -0.219,0.429 0,0" /></g><g
           transform="translate(79.5083,63.3213)"
           id="g88"><path
             id="path90"
             style="fill:#3096cf;fill-opacity:1;fill-rule:nonzero;stroke:none"
             d="m 0,0 -3.932,7.715 c -0.218,0.428 0.055,0.964 0.492,0.964 h 7.863 c 0.437,0 0.71,-0.536 0.492,-0.964 L 0.983,0 C 0.765,-0.429 0.219,-0.429 0,0" /></g><g
           transform="translate(132,88)"
           id="g92"><path
             id="path94"
             style="fill:#cccccc;fill-opacity:1;fill-rule:nonzero;stroke:none"
             d="m 0,0 c 0,-2.209 -1.791,-4 -4,-4 -2.209,0 -4,1.791 -4,4 0,2.209 1.791,4 4,4 2.209,0 4,-1.791 4,-4" /></g><path
           id="path96"
           style="fill:#3096cf;fill-opacity:1;fill-rule:nonzero;stroke:none"
           d="m 160,80 h -4 v 8 h 4 z" /><g
           transform="translate(152,56)"
           id="g98"><path
             id="path100"
             style="fill:#3096cf;fill-opacity:1;fill-rule:nonzero;stroke:none"
             d="M 0,0 -4,4 0,8 4,4 Z" /></g><g
           transform="translate(184,80)"
           id="g102"><path
             id="path104"
             style="fill:#3096cf;fill-opacity:1;fill-rule:nonzero;stroke:none"
             d="M 0,0 -4,4 0,8 4,4 Z" /></g><g
           transform="translate(184,100)"
           id="g106"><path
             id="path108"
             style="fill:#3096cf;fill-opacity:1;fill-rule:nonzero;stroke:none"
             d="M 0,0 -4,4 0,8 4,4 Z" /></g><g
           transform="translate(200,80)"
           id="g110"><path
             id="path112"
             style="fill:#3096cf;fill-opacity:1;fill-rule:nonzero;stroke:none"
             d="M 0,0 -4,4 0,8 4,4 Z" /></g><g
           transform="translate(130,64)"
           id="g114"><path
             id="path116"
             style="fill:#b3b3b3;fill-opacity:1;fill-rule:nonzero;stroke:none"
             d="m 0,0 c 0,-1.104 -0.896,-2 -2,-2 -1.104,0 -2,0.896 -2,2 0,1.104 0.896,2 2,2 1.104,0 2,-0.896 2,-2" /></g><path
           id="path118"
           style="fill:#b3b3b3;fill-opacity:1;fill-rule:nonzero;stroke:none"
           d="m 152,238 h -48 v 4 h 48 z" /><g
           transform="translate(204,40)"
           id="g120"><path
             id="path122"
             style="fill:#e6e6e6;fill-opacity:1;fill-rule:nonzero;stroke:none"
             d="m 0,0 c 0,-2.209 -1.791,-4 -4,-4 -2.209,0 -4,1.791 -4,4 0,2.209 1.791,4 4,4 2.209,0 4,-1.791 4,-4" /></g><path
           id="path124"
           style="fill:#3096cf;fill-opacity:1;fill-rule:nonzero;stroke:none"
           d="m 176,68 h -8 v 4 h 8 z" /><g
           transform="translate(172,70.2041)"
           id="g126"><path
             id="path128"
             style="fill:#29678f;fill-opacity:1;fill-rule:nonzero;stroke:none"
             d="m 0,0 c 0,-6.628 -5.373,-12 -12,-12 -6.627,0 -12,5.372 -12,12 0,6.627 5.373,12 12,12 C -5.373,12 0,6.627 0,0" /></g><g
           transform="translate(204,94.2041)"
           id="g130"><path
             id="path132"
             style="fill:#29678f;fill-opacity:1;fill-rule:nonzero;stroke:none"
             d="m 0,0 c 0,-6.628 -5.373,-12 -12,-12 -6.627,0 -12,5.372 -12,12 0,6.627 5.373,12 12,12 C -5.373,12 0,6.627 0,0" /></g></g></g></g></svg>