<?xml version="1.0" encoding="iso-8859-1"?>
<!-- Generator: Adobe Illustrator 27.8.1, SVG Export Plug-In . SVG Version: 6.00 Build 0)  -->
<svg version="1.1" id="Layer_1" xmlns="http://www.w3.org/2000/svg" xmlns:xlink="http://www.w3.org/1999/xlink" x="0px" y="0px"
	 viewBox="0 0 256 256" style="enable-background:new 0 0 256 256;" xml:space="preserve">
<path style="opacity:0.5;fill:#FFFFFF;" d="M248,46.005V46c0-5.514-4.486-10-10-10h-56c-4.829,0-8.87-0.559-9.799,4H83.799
	c-0.929-4.559-4.97-4-9.799-4H18c-5.514,0-10,4.486-10,10v0.005C5.572,47.831,4,50.735,4,54v2v4v4v4v4v4v4v4v4v4v4v4v4v4v4v4v4v4v4
	v4v4v4v4v4v4v4v4v4v4v4v4v4v4v4v4v4v4v2c0,3.265,1.572,6.169,4,7.995V210c0,5.514,4.486,10,10,10h24h4h28
	c4.829,0,8.87,0.559,9.799-4h88.402c0.929,4.559,4.97,4,9.799,4h56c5.514,0,10-4.486,10-10v-0.005c2.428-1.826,4-4.73,4-7.995v-2v-4
	v-4v-4v-4v-4v-4v-4v-4v-4v-4v-4v-4v-4v-4v-4v-4v-4v-4v-4v-4v-4v-4v-4v-4v-4v-4v-4v-4v-4v-4v-4v-4v-4v-4v-4v-4v-2
	C252,50.735,250.428,47.831,248,46.005z"/>
<g>
	<rect x="68" y="48" style="fill:#999999;" width="120" height="160"/>
</g>
<g>
	<path style="fill:#808080;" d="M18,204h-4c-1.105,0-2-0.895-2-2V54c0-1.105,0.895-2,2-2h4c1.105,0,2,0.895,2,2v148
		C20,203.105,19.105,204,18,204z"/>
</g>
<g>
	<path style="fill:#808080;" d="M242,204h-4c-1.105,0-2-0.895-2-2V54c0-1.105,0.895-2,2-2h4c1.105,0,2,0.895,2,2v148
		C244,203.105,243.105,204,242,204z"/>
</g>
<path style="fill:#A6A6A6;" d="M74,212H18c-1.105,0-2-0.895-2-2V46c0-1.105,0.895-2,2-2h56c1.105,0,2,0.895,2,2v164
	C76,211.105,75.105,212,74,212z"/>
<g>
	<circle style="fill:#999999;" cx="36" cy="148" r="8"/>
	<path style="fill:#8C8C8C;" d="M36,140c4.418,0,8,3.582,8,8s-3.582,8-8,8s-8-3.582-8-8S31.582,140,36,140 M36,138
		c-5.514,0-10,4.486-10,10s4.486,10,10,10s10-4.486,10-10S41.514,138,36,138L36,138z"/>
</g>
<g>
	<rect x="12" y="196" style="fill:#999999;" width="4" height="4"/>
</g>
<g>
	<rect x="12" y="188" style="fill:#999999;" width="4" height="4"/>
</g>
<g>
	<rect x="12" y="180" style="fill:#999999;" width="4" height="4"/>
</g>
<g>
	<rect x="12" y="172" style="fill:#999999;" width="4" height="4"/>
</g>
<g>
	<rect x="12" y="164" style="fill:#999999;" width="4" height="4"/>
</g>
<g>
	<rect x="12" y="156" style="fill:#999999;" width="4" height="4"/>
</g>
<g>
	<rect x="12" y="148" style="fill:#999999;" width="4" height="4"/>
</g>
<g>
	<rect x="12" y="140" style="fill:#999999;" width="4" height="4"/>
</g>
<g>
	<rect x="12" y="132" style="fill:#999999;" width="4" height="4"/>
</g>
<g>
	<rect x="12" y="124" style="fill:#999999;" width="4" height="4"/>
</g>
<g>
	<rect x="12" y="116" style="fill:#999999;" width="4" height="4"/>
</g>
<g>
	<rect x="12" y="108" style="fill:#999999;" width="4" height="4"/>
</g>
<g>
	<rect x="12" y="100" style="fill:#999999;" width="4" height="4"/>
</g>
<g>
	<rect x="12" y="92" style="fill:#999999;" width="4" height="4"/>
</g>
<g>
	<rect x="12" y="84" style="fill:#999999;" width="4" height="4"/>
</g>
<g>
	<rect x="12" y="76" style="fill:#999999;" width="4" height="4"/>
</g>
<g>
	<rect x="12" y="68" style="fill:#999999;" width="4" height="4"/>
</g>
<g>
	<rect x="12" y="60" style="fill:#999999;" width="4" height="4"/>
</g>
<g>
	<path style="fill:#999999;" d="M16,56h-4v-2c0-1.105,0.895-2,2-2h2V56z"/>
</g>
<rect x="42" y="200" style="fill:#808080;" width="4" height="4"/>
<rect x="42" y="204" style="fill:#00FF00;" width="4" height="8"/>
<circle style="fill:#999999;" cx="44" cy="184" r="16"/>
<path style="fill:#8C8C8C;" d="M44,168c8.837,0,16,7.163,16,16s-7.163,16-16,16s-16-7.163-16-16S35.163,168,44,168 M44,166
	c-9.925,0-18,8.075-18,18s8.075,18,18,18s18-8.075,18-18S53.925,166,44,166L44,166z"/>
<path style="fill:#A6A6A6;" d="M182,212h56c1.105,0,2-0.895,2-2V46c0-1.105-0.895-2-2-2h-56c-1.105,0-2,0.895-2,2v164
	C180,211.105,180.895,212,182,212z"/>
<g>
	<rect x="240" y="196" style="fill:#999999;" width="4" height="4"/>
</g>
<g>
	<rect x="240" y="188" style="fill:#999999;" width="4" height="4"/>
</g>
<g>
	<rect x="240" y="180" style="fill:#999999;" width="4" height="4"/>
</g>
<g>
	<rect x="240" y="172" style="fill:#999999;" width="4" height="4"/>
</g>
<g>
	<rect x="240" y="164" style="fill:#999999;" width="4" height="4"/>
</g>
<g>
	<rect x="240" y="156" style="fill:#999999;" width="4" height="4"/>
</g>
<g>
	<rect x="240" y="148" style="fill:#999999;" width="4" height="4"/>
</g>
<g>
	<rect x="240" y="140" style="fill:#999999;" width="4" height="4"/>
</g>
<g>
	<rect x="240" y="132" style="fill:#999999;" width="4" height="4"/>
</g>
<g>
	<rect x="240" y="124" style="fill:#999999;" width="4" height="4"/>
</g>
<g>
	<rect x="240" y="116" style="fill:#999999;" width="4" height="4"/>
</g>
<g>
	<rect x="240" y="108" style="fill:#999999;" width="4" height="4"/>
</g>
<g>
	<rect x="240" y="100" style="fill:#999999;" width="4" height="4"/>
</g>
<g>
	<rect x="240" y="92" style="fill:#999999;" width="4" height="4"/>
</g>
<g>
	<path style="fill:#8C8C8C;" d="M128,202c20.252,0,38.625-8.184,52-21.411v-2.819c-13.107,13.69-31.55,22.23-52,22.23
		s-38.893-8.539-52-22.23v2.819C89.375,193.816,107.748,202,128,202z"/>
	<path style="fill:#8C8C8C;" d="M128,56c20.45,0,38.893,8.539,52,22.23v-2.819C166.625,62.184,148.252,54,128,54
		s-38.625,8.184-52,21.411v2.819C89.107,64.539,107.55,56,128,56z"/>
</g>
<g>
	<rect x="240" y="84" style="fill:#999999;" width="4" height="4"/>
</g>
<rect x="76" y="48" style="fill:#808080;" width="2" height="160"/>
<rect x="178" y="48" style="fill:#808080;" width="2" height="160"/>
<g>
	<rect x="240" y="76" style="fill:#999999;" width="4" height="4"/>
</g>
<g>
	<rect x="240" y="68" style="fill:#999999;" width="4" height="4"/>
</g>
<g>
	<rect x="240" y="60" style="fill:#999999;" width="4" height="4"/>
</g>
<g>
	<path style="fill:#999999;" d="M240,56h4v-2c0-1.105-0.895-2-2-2h-2V56z"/>
</g>
<circle style="fill:#B3B3B3;" cx="128" cy="128" r="72"/>
<rect x="193" y="164.789" transform="matrix(0.5547 -0.8321 0.8321 0.5547 -56.7245 238.0093)" style="fill:#808080;" width="2" height="14.422"/>
<g>
	<circle style="fill:#999999;" cx="212" cy="184" r="16"/>
	<path style="fill:#8C8C8C;" d="M212,168c8.837,0,16,7.163,16,16s-7.163,16-16,16s-16-7.163-16-16S203.163,168,212,168 M212,166
		c-9.925,0-18,8.075-18,18s8.075,18,18,18s18-8.075,18-18S221.925,166,212,166L212,166z"/>
</g>
<g>
	<path style="fill:#808080;" d="M76,177.77C63.62,164.839,56,147.315,56,128c0-19.315,7.62-36.839,20-49.77v-2.819
		C62.427,88.833,54,107.449,54,128s8.427,39.167,22,52.589V177.77z"/>
	<path style="fill:#808080;" d="M180,75.411v2.819c12.38,12.931,20,30.455,20,49.77c0,19.315-7.62,36.839-20,49.77v2.819
		c13.573-13.422,22-32.037,22-52.589S193.573,88.833,180,75.411z"/>
</g>
<rect x="42" y="210" style="fill:#00B800;" width="4" height="2"/>
</svg>
