<svg xmlns="http://www.w3.org/2000/svg" xml:space="preserve" width="197.333" height="330.667" viewBox="0 0 197.333 330.667"><defs><clipPath id="a" clipPathUnits="userSpaceOnUse"><path d="M0 256h256V0H0Z"/></clipPath><clipPath id="b" clipPathUnits="userSpaceOnUse"><path d="M56 252h148V4H56Z"/></clipPath></defs><g clip-path="url(#a)" transform="matrix(1.33333 0 0 -1.33333 -74.667 336)"><g clip-path="url(#b)" style="opacity:.5"><path d="M0 0h-140v-248h128v4H4v4h4V0z" style="fill:#fff;fill-opacity:1;fill-rule:nonzero;stroke:none" transform="translate(196 252)"/></g></g><path d="M64 16h128v8H64Z" style="fill:#29678f;fill-opacity:1;fill-rule:nonzero;stroke:none" transform="matrix(1.33333 0 0 -1.33333 -74.667 336)"/><path d="M196 20H64v224h132z" style="fill:#333;fill-opacity:1;fill-rule:nonzero;stroke:none" transform="matrix(1.33333 0 0 -1.33333 -74.667 336)"/><path d="M176 12H64v32h112z" style="fill:#2c8bbf;fill-opacity:1;fill-rule:nonzero;stroke:none" transform="matrix(1.33333 0 0 -1.33333 -74.667 336)"/></svg>