<svg xmlns="http://www.w3.org/2000/svg" xml:space="preserve" width="330.666" height="272" viewBox="0 0 330.666 272"><defs><clipPath id="a" clipPathUnits="userSpaceOnUse"><path d="M0 256h256V0H0Z"/></clipPath><clipPath id="b" clipPathUnits="userSpaceOnUse"><path d="M4 230h248V26H4Z"/></clipPath></defs><g clip-path="url(#a)" transform="matrix(1.33333 0 0 -1.33333 -5.334 306.667)"><g clip-path="url(#b)" style="opacity:.5"><path d="M0 0c-.374 8.786-.812 15.719-1.305 20.606-.272 2.714-.559 4.776-.878 6.305-1.554 7.474-6.558 8.281-8.638 8.281h-224c-2.08 0-7.085-.807-8.639-8.281-.318-1.529-.605-3.591-.878-6.305-.492-4.887-.931-11.82-1.305-20.606-.76-17.864-1.178-41.59-1.178-66.808 0-22.935.355-45.06.999-62.299.052-1.389.105-2.726.159-4.028.375-8.933.816-15.978 1.311-20.948.274-2.753.563-4.845.882-6.394 1.549-7.52 6.564-8.331 8.649-8.331h224a8 8 0 0 1 8 8v21.443l1.365 1.917a8 8 0 0 1 1.476 4.304c.05 1.203.099 2.446.147 3.711l.004.098q.015.231.016.467c.64 17.216.992 39.243.992 62.06C1.179-41.59.76-17.864 0 0" style="fill:#fff;fill-opacity:1;fill-rule:nonzero;stroke:none" transform="translate(250.821 194.808)"/></g><path d="M0 0c.619 16.548.994 38.243.994 62 0 51.915-1.791 94-4 94h-224c-2.209 0-4-42.085-4-94s1.791-94 4-94h112S-.051-1.369 0 0" style="fill:#333;fill-opacity:1;fill-rule:nonzero;stroke:none" transform="translate(243.006 66)"/><path d="M0 0h229.695q.083 1.946.159 4H-.159Q-.082 1.946 0 0" style="fill:#ccc;fill-opacity:1;fill-rule:nonzero;stroke:none" transform="translate(13.152 62)"/><path d="M240 34H128v28h112z" style="fill:#404040;fill-opacity:1;fill-rule:nonzero;stroke:none"/><path d="M0 0v-4h112l2.848 4z" style="fill:#4c4c4c;fill-opacity:1;fill-rule:nonzero;stroke:none" transform="translate(128 62)"/><path d="M0 0h-230.426c-.494-15.642-.787-35.017-.787-56 0-12.754.109-24.911.304-36H.482c.196 11.091.305 23.243.305 36C.787-35.017.494-15.642 0 0" style="fill:#262626;fill-opacity:1;fill-rule:nonzero;stroke:none" transform="translate(243.213 184)"/></g></svg>