<?xml version="1.0" encoding="UTF-8" standalone="no"?>
<svg
   xmlns:dc="http://purl.org/dc/elements/1.1/"
   xmlns:cc="http://creativecommons.org/ns#"
   xmlns:rdf="http://www.w3.org/1999/02/22-rdf-syntax-ns#"
   xmlns:svg="http://www.w3.org/2000/svg"
   xmlns="http://www.w3.org/2000/svg"
   viewBox="0 0 309.33331 330.66665"
   height="330.66666"
   width="309.33331"
   xml:space="preserve"
   id="svg2"
   version="1.1"><metadata
     id="metadata8"><rdf:RDF><cc:Work
         rdf:about=""><dc:format>image/svg+xml</dc:format><dc:type
           rdf:resource="http://purl.org/dc/dcmitype/StillImage" /></cc:Work></rdf:RDF></metadata><defs
     id="defs6"><clipPath
       id="clipPath18"
       clipPathUnits="userSpaceOnUse"><path
         id="path16"
         d="M 0,256 H 256 V 0 H 0 Z" /></clipPath><clipPath
       id="clipPath26"
       clipPathUnits="userSpaceOnUse"><path
         id="path24"
         d="M 12,252 H 244 V 4 H 12 Z" /></clipPath></defs><g
     transform="matrix(1.3333333,0,0,-1.3333333,-16,335.99999)"
     id="g10"><g
       id="g12"><g
         clip-path="url(#clipPath18)"
         id="g14"><g
           id="g20"><g
             id="g22" /><g
             id="g34"><g
               style="opacity:0.5"
               id="g32"
               clip-path="url(#clipPath26)"><g
                 id="g30"
                 transform="translate(236,252)"><path
                   id="path28"
                   style="fill:#ffffff;fill-opacity:1;fill-rule:nonzero;stroke:none"
                   d="m 0,0 h -124 -8 -84 -8 v -8 -212 -0.792 l 0.155,-0.777 1.6,-8 0.4,-2 2,-10 1.286,-6.431 h 6.559 80 8 120 6.559 l 1.286,6.431 2,10 0.4,2 1.6,8 0.155,0.777 V -220 -8 0 Z" /></g></g></g></g></g></g><path
       id="path36"
       style="fill:#0000ff;fill-opacity:1;fill-rule:nonzero;stroke:none"
       d="m 112,28 h -12 v 212 h 12 z" /><path
       id="path38"
       style="fill:#191919;fill-opacity:1;fill-rule:nonzero;stroke:none"
       d="m 100,14 h 12 v 18 h -12 z" /><g
       transform="translate(20,244)"
       id="g40"><path
         id="path42"
         style="fill:#262626;fill-opacity:1;fill-rule:nonzero;stroke:none"
         d="m 0,0 v -212 l 4,-20 h 80 v 20 212 z" /></g><g
       transform="translate(108,244)"
       id="g44"><path
         id="path46"
         style="fill:#262626;fill-opacity:1;fill-rule:nonzero;stroke:none"
         d="m 0,0 v -212 -20 h 124 l 4,20 V 0 Z" /></g><g
       transform="translate(24,12)"
       id="g48"><path
         id="path50"
         style="fill:#333333;fill-opacity:1;fill-rule:nonzero;stroke:none"
         d="M 0,0 H 80 V 20 H -4 Z" /></g><g
       transform="translate(108,32)"
       id="g52"><path
         id="path54"
         style="fill:#333333;fill-opacity:1;fill-rule:nonzero;stroke:none"
         d="m 0,0 v -20 h 124 l 4,20 z" /></g><g
       transform="translate(21.6001,24)"
       id="g56"><path
         id="path58"
         style="fill:#262626;fill-opacity:1;fill-rule:nonzero;stroke:none"
         d="M 0,0 0.8,-4 H 212 l 0.8,4 z" /></g></g></svg>