<svg xmlns="http://www.w3.org/2000/svg" xml:space="preserve" width="309.333" height="330.667" viewBox="0 0 309.333 330.667"><defs><clipPath id="a" clipPathUnits="userSpaceOnUse"><path d="M0 256h256V0H0Z"/></clipPath><clipPath id="b" clipPathUnits="userSpaceOnUse"><path d="M12 252h232V4H12Z"/></clipPath></defs><g clip-path="url(#a)" transform="matrix(1.33333 0 0 -1.33333 -16 336)"><g clip-path="url(#b)" style="opacity:.5"><path d="M0 0h-224v-220.792l.155-.777 1.6-8 .4-2 2-10 1.286-6.431H2.559l1.286 6.431 2 10 .4 2 1.6 8 .155.777V0Z" style="fill:#fff;fill-opacity:1;fill-rule:nonzero;stroke:none" transform="translate(236 252)"/></g></g><path d="M112 28h-12v212h12z" style="fill:#00f;fill-opacity:1;fill-rule:nonzero;stroke:none" transform="matrix(1.33333 0 0 -1.33333 -16 336)"/><path d="M100 14h12v18h-12z" style="fill:#191919;fill-opacity:1;fill-rule:nonzero;stroke:none" transform="matrix(1.33333 0 0 -1.33333 -16 336)"/><path d="M0 0v-212l4-20h80V0z" style="fill:#262626;fill-opacity:1;fill-rule:nonzero;stroke:none" transform="matrix(1.33333 0 0 -1.33333 10.667 10.667)"/><path d="M0 0v-232h124l4 20V0Z" style="fill:#262626;fill-opacity:1;fill-rule:nonzero;stroke:none" transform="matrix(1.33333 0 0 -1.33333 128 10.667)"/><path d="M0 0h80v20H-4Z" style="fill:#333;fill-opacity:1;fill-rule:nonzero;stroke:none" transform="matrix(1.33333 0 0 -1.33333 16 320)"/><path d="M0 0v-20h124l4 20z" style="fill:#333;fill-opacity:1;fill-rule:nonzero;stroke:none" transform="matrix(1.33333 0 0 -1.33333 128 293.333)"/><path d="m0 0 .8-4H212l.8 4z" style="fill:#262626;fill-opacity:1;fill-rule:nonzero;stroke:none" transform="matrix(1.33333 0 0 -1.33333 12.8 304)"/></svg>