<svg xmlns="http://www.w3.org/2000/svg" xml:space="preserve" width="330.667" height="224" viewBox="0 0 330.667 224"><defs><clipPath id="a" clipPathUnits="userSpaceOnUse"><path d="M0 256h256V0H0Z"/></clipPath><clipPath id="b" clipPathUnits="userSpaceOnUse"><path d="M4 212h248V44H4Z"/></clipPath></defs><g clip-path="url(#a)" transform="matrix(1.33333 0 0 -1.33333 -5.333 282.667)"><g clip-path="url(#b)" style="opacity:.5"><path d="M0 0h-216c-8.822 0-16-7.181-16-16.007v-135.985c0-8.827 7.176-16.008 15.997-16.008l.277.002L.276-164.271C8.946-164.12 16-156.94 16-148.265v132.258C16-7.181 8.822 0 0 0" style="fill:#fff;fill-opacity:1;fill-rule:nonzero;stroke:none" transform="translate(236 212)"/></g><path d="m0 0-216-3.728c-4.471-.077-8.138 3.531-8.138 8.007v135.985c0 4.423 3.582 8.007 8 8.007h216c4.418 0 8-3.584 8-8.007V8.007C7.862 3.638 4.364.075 0 0" style="fill:#f2f2f2;fill-opacity:1;fill-rule:nonzero;stroke:none" transform="translate(236.138 55.728)"/></g></svg>