<?xml version="1.0" encoding="UTF-8" standalone="no"?>
<svg
   xmlns:dc="http://purl.org/dc/elements/1.1/"
   xmlns:cc="http://creativecommons.org/ns#"
   xmlns:rdf="http://www.w3.org/1999/02/22-rdf-syntax-ns#"
   xmlns:svg="http://www.w3.org/2000/svg"
   xmlns="http://www.w3.org/2000/svg"
   viewBox="0 0 326.66665 154.67946"
   height="154.67946"
   width="326.66666"
   xml:space="preserve"
   id="svg2"
   version="1.1"><metadata
     id="metadata8"><rdf:RDF><cc:Work
         rdf:about=""><dc:format>image/svg+xml</dc:format><dc:type
           rdf:resource="http://purl.org/dc/dcmitype/StillImage" /></cc:Work></rdf:RDF></metadata><defs
     id="defs6"><clipPath
       id="clipPath18"
       clipPathUnits="userSpaceOnUse"><path
         id="path16"
         d="M 0,256 H 256 V 0 H 0 Z" /></clipPath><clipPath
       id="clipPath26"
       clipPathUnits="userSpaceOnUse"><path
         id="path24"
         d="m 5.5,188 h 245 V 71.9902 H 5.5 Z" /></clipPath><clipPath
       id="clipPath42"
       clipPathUnits="userSpaceOnUse"><path
         id="path40"
         d="m 200,180 h 28 v -12 h -28 z" /></clipPath><clipPath
       id="clipPath58"
       clipPathUnits="userSpaceOnUse"><path
         id="path56"
         d="M 28,180 H 56 V 168 H 28 Z" /></clipPath></defs><g
     transform="matrix(1.3333333,0,0,-1.3333333,-7.3333332,250.66666)"
     id="g10"><g
       id="g12"><g
         clip-path="url(#clipPath18)"
         id="g14"><g
           id="g20"><g
             id="g22" /><g
             id="g34"><g
               style="opacity:0.5"
               id="g32"
               clip-path="url(#clipPath26)"><g
                 id="g30"
                 transform="translate(235.0654,176.5264)"><path
                   id="path28"
                   style="fill:#ffffff;fill-opacity:1;fill-rule:nonzero;stroke:none"
                   d="m 0,0 c -0.139,0.201 -0.287,0.396 -0.443,0.584 -0.203,0.244 -2.051,2.441 -4.467,4.709 -4.552,4.274 -8.278,6.181 -12.082,6.181 h -17.756 -144.634 -17.757 c -3.804,0 -7.53,-1.907 -12.082,-6.181 -2.416,-2.268 -4.263,-4.465 -4.466,-4.709 -0.157,-0.188 -0.305,-0.383 -0.444,-0.584 -18.035,-26.167 -17.028,-50.182 -13.008,-65.719 3.885,-15.012 11.263,-25.119 13.05,-27.416 0.122,-0.171 0.25,-0.339 0.387,-0.502 0.202,-0.243 2.05,-2.44 4.466,-4.71 4.552,-4.273 8.278,-6.179 12.082,-6.179 h 17.374 c 0.132,-0.007 0.265,-0.01 0.398,-0.01 h 144.634 c 2.553,0 4.954,1.208 6.469,3.255 1.622,2.149 4.462,4.545 5.642,4.755 h 16.012 c 2.398,0 4.672,1.066 6.198,2.909 0.369,0.445 9.088,11.1 13.435,27.898 C 17.028,-50.182 18.035,-26.167 0,0" /></g></g></g></g><g
           id="g36"><g
             id="g38" /><g
             id="g50"><g
               style="opacity:0.5"
               id="g48"
               clip-path="url(#clipPath42)"><g
                 id="g46"
                 transform="translate(228,172)"><path
                   id="path44"
                   style="fill:#e6e6e6;fill-opacity:1;fill-rule:nonzero;stroke:none"
                   d="M 0,0 C 0,0 -6.644,8 -10.321,8 H -12 -28 V 0 -4 Z" /></g></g></g></g><g
           id="g52"><g
             id="g54" /><g
             id="g66"><g
               style="opacity:0.5"
               id="g64"
               clip-path="url(#clipPath58)"><g
                 id="g62"
                 transform="translate(40,180)"><path
                   id="path60"
                   style="fill:#e6e6e6;fill-opacity:1;fill-rule:nonzero;stroke:none"
                   d="M 0,0 H -1.679 C -5.357,0 -12,-8 -12,-8 l 28,-4 v 4 8 z" /></g></g></g></g><g
           transform="translate(48.6953,81)"
           id="g68"><path
             id="path70"
             style="fill:#404040;fill-opacity:1;fill-rule:nonzero;stroke:none"
             d="m 0,0 h -7.631 c -1.676,0 -4.326,1.344 -5.915,3 -1.591,1.656 -1.521,3 0.154,3 H -5.76 C -4.083,6 -1.435,4.656 0.156,3 1.746,1.344 1.678,0 0,0 m 3.305,7 h -24 c 0,0 8.085,-8 12,-8 h 16 c 0,0 -0.323,8 -4,8" /></g><g
           transform="translate(228,172)"
           id="g72"><path
             id="path74"
             style="fill:#262626;fill-opacity:1;fill-rule:nonzero;stroke:none"
             d="m 0,0 h -16 c 0,0 -5.414,1.414 -12,8 h -144 c -6.586,-6.586 -12,-8 -12,-8 h -16 c -31.466,-45.857 0,-84 0,-84 h 16 c 6.098,0 12,-8.01 12,-8.01 h 144 c 0,0 5.901,8.01 12,8.01 H 0 c 0,0 31.466,38.143 0,84" /></g><g
           transform="translate(18.7349,136)"
           id="g76"><path
             id="path78"
             style="fill:#191919;fill-opacity:1;fill-rule:nonzero;stroke:none"
             d="M 0,0 C 0,9.521 7.746,17.265 17.265,17.265 26.786,17.265 34.53,9.521 34.53,0 34.53,-9.521 26.786,-17.266 17.265,-17.266 7.746,-17.266 0,-9.521 0,0 m -0.735,0 c 0,-9.926 8.074,-18 18,-18 9.926,0 18,8.074 18,18 0,9.926 -8.074,18 -18,18 -9.926,0 -18,-8.074 -18,-18" /></g><g
           transform="translate(44,104)"
           id="g80"><path
             id="path82"
             style="fill:#404040;fill-opacity:1;fill-rule:nonzero;stroke:none"
             d="m 0,0 c 0,-4.418 -3.582,-8 -8,-8 -4.418,0 -8,3.582 -8,8 0,4.418 3.582,8 8,8 4.418,0 8,-3.582 8,-8" /></g><g
           transform="translate(202.7617,134)"
           id="g84"><path
             id="path86"
             style="fill:#191919;fill-opacity:1;fill-rule:nonzero;stroke:none"
             d="M 0,0 C 0,8.402 6.837,15.238 15.238,15.238 23.64,15.238 30.477,8.402 30.477,0 30.477,-8.401 23.64,-15.238 15.238,-15.238 6.837,-15.238 0,-8.401 0,0 m -0.762,0 c 0,-8.821 7.177,-16 16,-16 8.824,0 16,7.179 16,16 0,8.821 -7.176,16 -16,16 -8.823,0 -16,-7.179 -16,-16" /></g><g
           transform="translate(224,148)"
           id="g88"><path
             id="path90"
             style="fill:#404040;fill-opacity:1;fill-rule:nonzero;stroke:none"
             d="m 0,0 c 0,-3.314 -2.686,-6 -6,-6 -3.314,0 -6,2.686 -6,6 0,3.314 2.686,6 6,6 3.314,0 6,-2.686 6,-6" /></g><g
           transform="translate(224,120)"
           id="g92"><path
             id="path94"
             style="fill:#404040;fill-opacity:1;fill-rule:nonzero;stroke:none"
             d="m 0,0 c 0,-3.313 -2.686,-6 -6,-6 -3.314,0 -6,2.687 -6,6 0,3.313 2.686,6 6,6 3.314,0 6,-2.687 6,-6" /></g><g
           transform="translate(210,134)"
           id="g96"><path
             id="path98"
             style="fill:#404040;fill-opacity:1;fill-rule:nonzero;stroke:none"
             d="m 0,0 c 0,-3.313 -2.686,-6 -6,-6 -3.314,0 -6,2.687 -6,6 0,3.314 2.686,6 6,6 3.314,0 6,-2.686 6,-6" /></g><g
           transform="translate(238,134)"
           id="g100"><path
             id="path102"
             style="fill:#404040;fill-opacity:1;fill-rule:nonzero;stroke:none"
             d="m 0,0 c 0,-3.313 -2.686,-6 -6,-6 -3.314,0 -6,2.687 -6,6 0,3.314 2.686,6 6,6 3.314,0 6,-2.686 6,-6" /></g><path
           id="path104"
           style="fill:#191919;fill-opacity:1;fill-rule:nonzero;stroke:none"
           d="M 196,96 H 60 v 76 h 136 z" /><g
           transform="translate(238,111)"
           id="g106"><path
             id="path108"
             style="fill:#00ff00;fill-opacity:1;fill-rule:nonzero;stroke:none"
             d="m 0,0 c 0,-0.552 -0.447,-1 -1,-1 -0.553,0 -1,0.448 -1,1 0,0.553 0.447,1 1,1 0.553,0 1,-0.447 1,-1" /></g><g
           transform="translate(234,103)"
           id="g110"><path
             id="path112"
             style="fill:#404040;fill-opacity:1;fill-rule:nonzero;stroke:none"
             d="m 0,0 c 0,-0.552 -0.447,-1 -1,-1 -0.553,0 -1,0.448 -1,1 0,0.553 0.447,1 1,1 0.553,0 1,-0.447 1,-1" /></g><g
           transform="translate(20,111)"
           id="g114"><path
             id="path116"
             style="fill:#404040;fill-opacity:1;fill-rule:nonzero;stroke:none"
             d="m 0,0 c 0,-0.554 -0.448,-1 -1,-1 -0.552,0 -1,0.446 -1,1 0,0.552 0.448,1 1,1 0.552,0 1,-0.448 1,-1" /></g><g
           transform="translate(24,101.001)"
           id="g118"><path
             id="path120"
             style="fill:#404040;fill-opacity:1;fill-rule:nonzero;stroke:none"
             d="m 0,0 c 0,-0.552 -0.448,-1.001 -1,-1.001 -0.552,0 -1,0.449 -1,1.001 0,0.552 0.448,0.999 1,0.999 0.552,0 1,-0.447 1,-0.999" /></g><g
           transform="translate(194,84)"
           id="g122"><path
             id="path124"
             style="fill:#404040;fill-opacity:1;fill-rule:nonzero;stroke:none"
             d="M 0,0 C 3.313,0 6,2.687 6,6 H -6 C -6,2.687 -3.313,0 0,0" /></g><g
           transform="translate(178,84)"
           id="g126"><path
             id="path128"
             style="fill:#404040;fill-opacity:1;fill-rule:nonzero;stroke:none"
             d="M 0,0 C 3.313,0 6,2.687 6,6 H -6 C -6,2.687 -3.313,0 0,0" /></g><g
           transform="translate(66,84)"
           id="g130"><path
             id="path132"
             style="fill:#404040;fill-opacity:1;fill-rule:nonzero;stroke:none"
             d="M 0,0 C 3.314,0 6,2.687 6,6 H -6 C -6,2.687 -3.314,0 0,0" /></g><g
           transform="translate(84,86)"
           id="g134"><path
             id="path136"
             style="fill:#404040;fill-opacity:1;fill-rule:nonzero;stroke:none"
             d="M 0,0 C 0,-1.104 -0.951,-2 -2.124,-2 H -5.876 C -7.049,-2 -8,-1.104 -8,0 c 0,1.104 0.951,2 2.124,2 h 3.752 C -0.951,2 0,1.104 0,0" /></g><g
           transform="translate(96,86)"
           id="g138"><path
             id="path140"
             style="fill:#404040;fill-opacity:1;fill-rule:nonzero;stroke:none"
             d="M 0,0 C 0,-1.104 -0.951,-2 -2.124,-2 H -5.876 C -7.049,-2 -8,-1.104 -8,0 c 0,1.104 0.951,2 2.124,2 h 3.752 C -0.951,2 0,1.104 0,0" /></g><g
           transform="translate(156,85.999)"
           id="g142"><path
             id="path144"
             style="fill:#404040;fill-opacity:1;fill-rule:nonzero;stroke:none"
             d="M 0,0 C 0,-1.104 -0.95,-1.999 -2.123,-1.999 H -5.877 C -7.047,-1.999 -8,-1.104 -8,0 c 0,1.104 0.953,2.001 2.123,2.001 h 3.754 C -0.95,2.001 0,1.104 0,0" /></g><g
           transform="translate(168,85.999)"
           id="g146"><path
             id="path148"
             style="fill:#404040;fill-opacity:1;fill-rule:nonzero;stroke:none"
             d="M 0,0 C 0,-1.104 -0.95,-1.999 -2.123,-1.999 H -5.877 C -7.047,-1.999 -8,-1.104 -8,0 c 0,1.104 0.953,2.001 2.123,2.001 h 3.754 C -0.95,2.001 0,1.104 0,0" /></g><g
           transform="translate(52,135.4697)"
           id="g150"><path
             id="path152"
             style="fill:#404040;fill-opacity:1;fill-rule:nonzero;stroke:none"
             d="m 0,0 c 0,2.457 -0.687,4.484 -1.584,4.879 v 0.083 h -6.019 l -2.958,-3.063 c 0,0 -2.059,-1.846 0,-3.907 l 2.958,-3.061 h 6.019 V -4.88 C -0.687,-4.484 0,-2.458 0,0" /></g><g
           transform="translate(20,135.4697)"
           id="g154"><path
             id="path156"
             style="fill:#404040;fill-opacity:1;fill-rule:nonzero;stroke:none"
             d="m 0,0 c 0,2.457 0.686,4.484 1.584,4.879 v 0.083 h 6.019 l 2.956,-3.063 c 0,0 2.059,-1.846 0,-3.907 L 7.603,-5.069 H 1.584 V -4.88 C 0.686,-4.484 0,-2.458 0,0" /></g><g
           transform="translate(36.0518,120)"
           id="g158"><path
             id="path160"
             style="fill:#404040;fill-opacity:1;fill-rule:nonzero;stroke:none"
             d="m 0,0 c 2.458,0 4.485,0.687 4.88,1.584 h 0.084 v 6.02 L 1.901,10.56 c 0,0 -1.848,2.059 -3.907,0 L -5.069,7.604 V 1.584 H -4.88 C -4.484,0.687 -2.458,0 0,0" /></g><g
           transform="translate(36.0518,152)"
           id="g162"><path
             id="path164"
             style="fill:#404040;fill-opacity:1;fill-rule:nonzero;stroke:none"
             d="m 0,0 c 2.458,0 4.485,-0.687 4.88,-1.584 h 0.084 v -6.02 L 1.901,-10.56 c 0,0 -1.848,-2.059 -3.907,0 l -3.063,2.956 v 6.02 H -4.88 C -4.484,-0.687 -2.458,0 0,0" /></g><path
           id="path166"
           style="fill:#404040;fill-opacity:1;fill-rule:nonzero;stroke:none"
           d="M 192,100 H 64 v 68 h 128 z" /></g></g></g></svg>