<svg xmlns="http://www.w3.org/2000/svg" xml:space="preserve" width="326.667" height="154.679" viewBox="0 0 326.667 154.679"><defs><clipPath id="a" clipPathUnits="userSpaceOnUse"><path d="M0 256h256V0H0Z"/></clipPath><clipPath id="b" clipPathUnits="userSpaceOnUse"><path d="M5.5 188h245V71.99H5.5Z"/></clipPath><clipPath id="c" clipPathUnits="userSpaceOnUse"><path d="M200 180h28v-12h-28z"/></clipPath><clipPath id="d" clipPathUnits="userSpaceOnUse"><path d="M28 180h28v-12H28Z"/></clipPath></defs><g clip-path="url(#a)" transform="matrix(1.33333 0 0 -1.33333 -7.333 250.667)"><g clip-path="url(#b)" style="opacity:.5"><path d="M0 0a8 8 0 0 1-.443.584A58 58 0 0 1-4.91 5.293c-4.552 4.274-8.278 6.181-12.082 6.181h-180.147c-3.804 0-7.53-1.907-12.082-6.181a58 58 0 0 1-4.466-4.709 8 8 0 0 1-.444-.584c-18.035-26.167-17.028-50.182-13.008-65.719 3.885-15.012 11.263-25.119 13.05-27.416q.182-.257.387-.502a58 58 0 0 1 4.466-4.71c4.552-4.273 8.278-6.179 12.082-6.179h17.374q.198-.01.398-.01h144.634a8.05 8.05 0 0 1 6.469 3.255c1.622 2.149 4.462 4.545 5.642 4.755h16.012a8.05 8.05 0 0 1 6.198 2.909c.369.445 9.088 11.1 13.435 27.898C17.028-50.182 18.035-26.167 0 0" style="fill:#fff;fill-opacity:1;fill-rule:nonzero;stroke:none" transform="translate(235.065 176.526)"/></g><g clip-path="url(#c)" style="opacity:.5"><path d="M0 0s-6.644 8-10.321 8H-28V-4Z" style="fill:#e6e6e6;fill-opacity:1;fill-rule:nonzero;stroke:none" transform="translate(228 172)"/></g><g clip-path="url(#d)" style="opacity:.5"><path d="M0 0h-1.679C-5.357 0-12-8-12-8l28-4V0z" style="fill:#e6e6e6;fill-opacity:1;fill-rule:nonzero;stroke:none" transform="translate(40 180)"/></g><path d="M0 0h-7.631c-1.676 0-4.326 1.344-5.915 3-1.591 1.656-1.521 3 .154 3h7.632C-4.083 6-1.435 4.656.156 3 1.746 1.344 1.678 0 0 0m3.305 7h-24s8.085-8 12-8h16s-.323 8-4 8" style="fill:#404040;fill-opacity:1;fill-rule:nonzero;stroke:none" transform="translate(48.695 81)"/><path d="M0 0h-16s-5.414 1.414-12 8h-144c-6.586-6.586-12-8-12-8h-16c-31.466-45.857 0-84 0-84h16c6.098 0 12-8.01 12-8.01h144S-22.099-84-16-84H0S31.466-45.857 0 0" style="fill:#262626;fill-opacity:1;fill-rule:nonzero;stroke:none" transform="translate(228 172)"/><path d="M0 0c0 9.521 7.746 17.265 17.265 17.265C26.786 17.265 34.53 9.521 34.53 0s-7.744-17.266-17.265-17.266C7.746-17.266 0-9.521 0 0m-.735 0c0-9.926 8.074-18 18-18s18 8.074 18 18-8.074 18-18 18-18-8.074-18-18" style="fill:#191919;fill-opacity:1;fill-rule:nonzero;stroke:none" transform="translate(18.735 136)"/><path d="M0 0a8 8 0 1 0-16 0A8 8 0 0 0 0 0" style="fill:#404040;fill-opacity:1;fill-rule:nonzero;stroke:none" transform="translate(44 104)"/><path d="M0 0c0 8.402 6.837 15.238 15.238 15.238S30.477 8.402 30.477 0 23.64-15.238 15.238-15.238C6.837-15.238 0-8.401 0 0m-.762 0c0-8.821 7.177-16 16-16s16 7.179 16 16-7.176 16-16 16-16-7.179-16-16" style="fill:#191919;fill-opacity:1;fill-rule:nonzero;stroke:none" transform="translate(202.762 134)"/><path d="M0 0a6 6 0 1 0-12 0A6 6 0 0 0 0 0" style="fill:#404040;fill-opacity:1;fill-rule:nonzero;stroke:none" transform="translate(224 148)"/><path d="M0 0a6 6 0 1 0-12 0A6 6 0 0 0 0 0" style="fill:#404040;fill-opacity:1;fill-rule:nonzero;stroke:none" transform="translate(224 120)"/><path d="M0 0a6 6 0 1 0-12 0A6 6 0 0 0 0 0" style="fill:#404040;fill-opacity:1;fill-rule:nonzero;stroke:none" transform="translate(210 134)"/><path d="M0 0a6 6 0 1 0-12 0A6 6 0 0 0 0 0" style="fill:#404040;fill-opacity:1;fill-rule:nonzero;stroke:none" transform="translate(238 134)"/><path d="M196 96H60v76h136z" style="fill:#191919;fill-opacity:1;fill-rule:nonzero;stroke:none"/><path d="M0 0a1 1 0 1 0-2 0 1 1 0 0 0 2 0" style="fill:#0f0;fill-opacity:1;fill-rule:nonzero;stroke:none" transform="translate(238 111)"/><path d="M0 0a1 1 0 1 0-2 0 1 1 0 0 0 2 0" style="fill:#404040;fill-opacity:1;fill-rule:nonzero;stroke:none" transform="translate(234 103)"/><path d="M0 0a1 1 0 1 0-1.998-.002A1 1 0 0 0 0 0" style="fill:#404040;fill-opacity:1;fill-rule:nonzero;stroke:none" transform="translate(20 111)"/><path d="M0 0a1.001 1.001 0 0 0-2 0 1 1 0 0 0 2 0" style="fill:#404040;fill-opacity:1;fill-rule:nonzero;stroke:none" transform="translate(24 101.001)"/><path d="M0 0a6 6 0 0 1 6 6H-6a6 6 0 0 1 6-6" style="fill:#404040;fill-opacity:1;fill-rule:nonzero;stroke:none" transform="translate(194 84)"/><path d="M0 0a6 6 0 0 1 6 6H-6a6 6 0 0 1 6-6" style="fill:#404040;fill-opacity:1;fill-rule:nonzero;stroke:none" transform="translate(178 84)"/><path d="M0 0a6 6 0 0 1 6 6H-6a6 6 0 0 1 6-6" style="fill:#404040;fill-opacity:1;fill-rule:nonzero;stroke:none" transform="translate(66 84)"/><path d="M0 0c0-1.104-.951-2-2.124-2h-3.752C-7.049-2-8-1.104-8 0s.951 2 2.124 2h3.752C-.951 2 0 1.104 0 0" style="fill:#404040;fill-opacity:1;fill-rule:nonzero;stroke:none" transform="translate(84 86)"/><path d="M0 0c0-1.104-.951-2-2.124-2h-3.752C-7.049-2-8-1.104-8 0s.951 2 2.124 2h3.752C-.951 2 0 1.104 0 0" style="fill:#404040;fill-opacity:1;fill-rule:nonzero;stroke:none" transform="translate(96 86)"/><path d="M0 0c0-1.104-.95-1.999-2.123-1.999h-3.754C-7.047-1.999-8-1.104-8 0s.953 2.001 2.123 2.001h3.754C-.95 2.001 0 1.104 0 0" style="fill:#404040;fill-opacity:1;fill-rule:nonzero;stroke:none" transform="translate(156 85.999)"/><path d="M0 0c0-1.104-.95-1.999-2.123-1.999h-3.754C-7.047-1.999-8-1.104-8 0s.953 2.001 2.123 2.001h3.754C-.95 2.001 0 1.104 0 0" style="fill:#404040;fill-opacity:1;fill-rule:nonzero;stroke:none" transform="translate(168 85.999)"/><path d="M0 0c0 2.457-.687 4.484-1.584 4.879v.083h-6.019l-2.958-3.063s-2.059-1.846 0-3.907l2.958-3.061h6.019v.189C-.687-4.484 0-2.458 0 0" style="fill:#404040;fill-opacity:1;fill-rule:nonzero;stroke:none" transform="translate(52 135.47)"/><path d="M0 0c0 2.457.686 4.484 1.584 4.879v.083h6.019l2.956-3.063s2.059-1.846 0-3.907L7.603-5.069H1.584v.189C.686-4.484 0-2.458 0 0" style="fill:#404040;fill-opacity:1;fill-rule:nonzero;stroke:none" transform="translate(20 135.47)"/><path d="M0 0c2.458 0 4.485.687 4.88 1.584h.084v6.02L1.901 10.56s-1.848 2.059-3.907 0l-3.063-2.956v-6.02h.189C-4.484.687-2.458 0 0 0" style="fill:#404040;fill-opacity:1;fill-rule:nonzero;stroke:none" transform="translate(36.052 120)"/><path d="M0 0c2.458 0 4.485-.687 4.88-1.584h.084v-6.02L1.901-10.56s-1.848-2.059-3.907 0l-3.063 2.956v6.02h.189C-4.484-.687-2.458 0 0 0" style="fill:#404040;fill-opacity:1;fill-rule:nonzero;stroke:none" transform="translate(36.052 152)"/><path d="M192 100H64v68h128z" style="fill:#404040;fill-opacity:1;fill-rule:nonzero;stroke:none"/></g></svg>