<svg xmlns="http://www.w3.org/2000/svg" xml:space="preserve" width="330.666" height="160" viewBox="0 0 330.666 160"><defs><clipPath id="a" clipPathUnits="userSpaceOnUse"><path d="M0 256h256V0H0Z"/></clipPath><clipPath id="b" clipPathUnits="userSpaceOnUse"><path d="M4 188h248V68H4Z"/></clipPath></defs><g clip-path="url(#a)" transform="matrix(1.33333 0 0 -1.33333 -5.333 250.667)"><g clip-path="url(#b)" style="opacity:.5"><path d="M0 0c-14.197 13.835-36.359 13.995-37.304 13.995h-136c-.944 0-23.106-.16-37.304-13.995-3.095-2.496-18.696-16.166-18.696-38.005v-14.247c0-1.851.215-3.698.637-5.492 1.798-7.642 5.828-21.335 12.924-29.099 1.919-3.09 7.678-10.674 19.91-14.752 12.86-4.286 21.578-4.41 22.529-4.41h136c.952 0 9.67.124 22.53 4.41 12.232 4.078 17.991 11.662 19.91 14.752 7.095 7.764 11.125 21.457 12.924 29.099.422 1.794.636 3.641.636 5.492v14.247C18.696-16.166 3.095-2.496 0 0" style="fill:#fff;fill-opacity:1;fill-rule:nonzero;stroke:none" transform="translate(233.304 174.005)"/></g><path d="m0 0-4 4S-24 4-36-8v-4h20z" style="fill:#bfbfbf;fill-opacity:1;fill-rule:nonzero;stroke:none" transform="translate(64 176)"/><path d="M0 0s16 0 20-8C20-8 8-8 0 0m20 4H-8S-4-4 8-8s20-4 20-4l4 4z" style="fill:gray;fill-opacity:1;fill-rule:nonzero;stroke:none" transform="translate(32 88)"/><path d="M0 0c4 8 20 8 20 8C12 0 0 0 0 0m-12 0 4-4s8 0 20 4 16 12 16 12H0Z" style="fill:gray;fill-opacity:1;fill-rule:nonzero;stroke:none" transform="translate(204 80)"/><path d="m0 0 4 4S24 4 36-8v-4H16Z" style="fill:#bfbfbf;fill-opacity:1;fill-rule:nonzero;stroke:none" transform="translate(192 176)"/><path d="M0 0c-16 0-20 4-24 8s-8 4-8 4h-136s-4 0-8-4-8-8-24-8c0 0-16-12-16-32v-12.288c0-2.741.351-5.462 1.045-8.113C-213.292-58.758-209.64-70.36-204-76l.864-.864a3.98 3.98 0 0 1 2.684-1.169c3.862-.13 14.068-.775 20.452-3.967 5.06-2.53 8-10 12-10h136c4 0 8 6 12 10 3.276 3.276 15.945 3.869 20.422 3.977a3.98 3.98 0 0 1 2.724 1.169L4-76c5.64 5.64 9.291 17.242 10.955 23.599A32 32 0 0 1 16-44.288V-32C16-12 0 0 0 0" style="fill:#262626;fill-opacity:1;fill-rule:nonzero;stroke:none" transform="translate(228 168)"/><path d="M198 94H58v78h140z" style="fill:gray;fill-opacity:1;fill-rule:nonzero;stroke:none"/><path d="M0 0a40 40 0 0 0-.128 2.361c-.015.637.265 1.261.781 1.636 3.776 2.743 6.209 7.035 6.209 11.86 0 8.285-7.164 15-16 15s-16-6.715-16-15c0-6.976 5.084-12.831 11.966-14.508.414-.101.801-.311 1.067-.645 1.014-1.277 1.439-3.45 1.607-4.681a2 2 0 0 0-.374-1.495 10.95 10.95 0 0 1-2.19-7.984c.585-5.012 4.672-9.072 9.688-9.619 6.629-.723 12.236 4.45 12.236 10.932 0 4.852-3.142 8.967-7.502 10.429A1.99 1.99 0 0 0 0 0" style="fill:#333;fill-opacity:1;fill-rule:nonzero;stroke:none" transform="translate(43.138 129.143)"/><path d="M0 0c.054.643.106 1.465.128 2.361.015.637-.266 1.261-.781 1.636-3.777 2.743-6.209 7.035-6.209 11.86 0 8.285 7.163 15 16 15s16-6.715 16-15c0-6.976-5.084-12.831-11.966-14.508-.415-.101-.802-.311-1.068-.645-1.013-1.277-1.439-3.45-1.606-4.681a2 2 0 0 1 .374-1.495 10.95 10.95 0 0 0 2.189-7.984c-.585-5.012-4.671-9.072-9.688-9.619-6.628-.723-12.235 4.45-12.235 10.932 0 4.852 3.141 8.967 7.501 10.429C-.605-1.46-.067-.794 0 0" style="fill:#333;fill-opacity:1;fill-rule:nonzero;stroke:none" transform="translate(212.862 129.143)"/><path d="M0 0a1 1 0 1 1 2 0 1 1 0 1 1-2 0m4 0a1 1 0 1 1 2 0 1 1 0 1 1-2 0m4 0a1 1 0 1 1 2 0 1 1 0 1 1-2 0M2 4a1 1 0 1 1 2 0 1 1 0 1 1-2 0m4 0a1 1 0 1 1 2 0 1 1 0 1 1-2 0m5 1a1 1 0 1 0 0-2 1 1 0 1 0 0 2" style="fill:#000;fill-opacity:1;fill-rule:nonzero;stroke:none" transform="translate(228 113)"/><path d="M0 0a1 1 0 1 1 0-2 1 1 0 0 1 0 2m-4 0a1 1 0 1 1 0-2 1 1 0 0 1 0 2m-4 0a1 1 0 1 1 0-2 1 1 0 0 1 0 2m6 4a1 1 0 1 1 0-2 1 1 0 0 1 0 2m-4 0a1 1 0 1 1 0-2 1 1 0 0 1 0 2m-3-1a1 1 0 1 0-2 0 1 1 0 0 0 2 0" style="fill:#000;fill-opacity:1;fill-rule:nonzero;stroke:none" transform="translate(27 114)"/><path d="M0 0a3 3 0 1 0-6 0 3 3 0 0 0 6 0" style="fill:#333;fill-opacity:1;fill-rule:nonzero;stroke:none" transform="translate(212 159)"/><path d="M0 0c0-1.104-1.791-2-4-2s-4 .896-4 2 1.791 2 4 2 4-.896 4-2" style="fill:#333;fill-opacity:1;fill-rule:nonzero;stroke:none" transform="translate(216 98)"/><path d="M0 0c0-1.104-1.791-2-4-2s-4 .896-4 2 1.791 2 4 2 4-.896 4-2" style="fill:#333;fill-opacity:1;fill-rule:nonzero;stroke:none" transform="translate(228 98)"/><path d="M0 0c0-2.209-3.582-4-8-4s-8 1.791-8 4 3.582 4 8 4 8-1.791 8-4" style="fill:#333;fill-opacity:1;fill-rule:nonzero;stroke:none" transform="translate(46 98)"/><path d="M0 0c-3.86 0-7-3.141-7-7s3.14-7 7-7 7 3.141 7 7-3.14 7-7 7" style="fill:#191919;fill-opacity:1;fill-rule:nonzero;stroke:none" transform="translate(41 124)"/><path d="M0 0c-4.687 0-8.5-3.813-8.5-8.5S-4.687-17 0-17s8.5 3.813 8.5 8.5S4.687 0 0 0m0-18c-5.238 0-9.5 4.262-9.5 9.5S-5.238 1 0 1s9.5-4.262 9.5-9.5S5.238-18 0-18" style="fill:gray;fill-opacity:1;fill-rule:nonzero;stroke:none" transform="translate(41 125.5)"/><path d="M0 0a6 6 0 0 0-12 0A6 6 0 0 0 0 0" style="fill:#262626;fill-opacity:1;fill-rule:nonzero;stroke:none" transform="translate(47 117)"/><path d="M0 0c-3.859 0-7-3.141-7-7s3.141-7 7-7 7 3.141 7 7-3.141 7-7 7" style="fill:#191919;fill-opacity:1;fill-rule:nonzero;stroke:none" transform="translate(215 124)"/><path d="M0 0c-4.687 0-8.5-3.813-8.5-8.5S-4.687-17 0-17s8.5 3.813 8.5 8.5S4.687 0 0 0m0-18c-5.238 0-9.5 4.262-9.5 9.5S-5.238 1 0 1s9.5-4.262 9.5-9.5S5.238-18 0-18" style="fill:gray;fill-opacity:1;fill-rule:nonzero;stroke:none" transform="translate(215 125.5)"/><path d="m0 0-.211.422-.276.553H-7.52l-.585.642v7.032l-.553.276-.423.212a9.05 9.05 0 0 1-4.024.95 9.05 9.05 0 0 1-4.025-.95l-.423-.212-.552-.276V1.617l-.586-.642h-7.033L-26 .422-26.211 0a9.04 9.04 0 0 1 0-8.05l.211-.422.276-.553h7.033l.586-.53v-7.032l.552-.277.423-.211a9.05 9.05 0 0 1 4.025-.95c1.389 0 2.781.329 4.024.95l.423.211.553.277v7.032l.585.53h7.033l.276.553L0-8.05A9.04 9.04 0 0 1 0 0" style="fill:#191919;fill-opacity:1;fill-rule:nonzero;stroke:none" transform="translate(47.105 149.025)"/><path d="M0 0a6 6 0 0 0-12 0A6 6 0 0 0 0 0" style="fill:#262626;fill-opacity:1;fill-rule:nonzero;stroke:none" transform="translate(221 117)"/><path d="M0 0a5 5 0 1 0-10 0A5 5 0 0 0 0 0" style="fill:#262626;fill-opacity:1;fill-rule:nonzero;stroke:none" transform="translate(227 135.5)"/><path d="M0 0a5 5 0 1 0-10 0A5 5 0 0 0 0 0" style="fill:#262626;fill-opacity:1;fill-rule:nonzero;stroke:none" transform="translate(227 154.5)"/><path d="M0 0a5 5 0 1 0 0 10A5 5 0 0 0 0 0" style="fill:#262626;fill-opacity:1;fill-rule:nonzero;stroke:none" transform="translate(212.5 140)"/><path d="M0 0a5 5 0 1 0 0 10A5 5 0 0 0 0 0" style="fill:#262626;fill-opacity:1;fill-rule:nonzero;stroke:none" transform="translate(231.5 140)"/><path d="M0 0h-6l-.211.422a8 8 0 0 0 0 7.156L-6 8h6l3.293-3.293a1 1 0 0 0 0-1.414z" style="fill:#262626;fill-opacity:1;fill-rule:nonzero;stroke:none" transform="translate(28 141)"/><path d="M0 0h6l.211-.422a8 8 0 0 0 0-7.156L6-8H0l-3.293 3.293a1 1 0 0 0 0 1.414z" style="fill:#262626;fill-opacity:1;fill-rule:nonzero;stroke:none" transform="translate(40 149)"/><path d="M0 0v6l.422.211a8 8 0 0 0 7.156 0L8 6V0L4.707-3.292a1 1 0 0 0-1.414 0z" style="fill:#262626;fill-opacity:1;fill-rule:nonzero;stroke:none" transform="translate(30 151.056)"/><path d="M0 0v-6l-.422-.211a8 8 0 0 0-7.156 0L-8-6v6l3.293 3.293a1 1 0 0 0 1.414 0z" style="fill:#262626;fill-opacity:1;fill-rule:nonzero;stroke:none" transform="translate(38 139.056)"/></g></svg>