<?xml version="1.0" encoding="iso-8859-1"?>
<!-- Generator: Adobe Illustrator 28.0.0, SVG Export Plug-In . SVG Version: 6.00 Build 0)  -->
<svg version="1.1" id="Layer_1" xmlns="http://www.w3.org/2000/svg" xmlns:xlink="http://www.w3.org/1999/xlink" x="0px" y="0px"
	 viewBox="0 0 256 256" style="enable-background:new 0 0 256 256;" xml:space="preserve">
<path style="opacity:0.5;fill:#FFFFFF;" d="M246.104,80.282c-1.863-0.508-46.373-12.438-110.517-12.438
	c-0.652,0-1.305,0.001-1.959,0.004c-0.001-0.048-0.002-0.095-0.004-0.143l-0.074-2c-0.008-0.216-0.025-0.431-0.049-0.642
	l-0.027-0.719c0.009-0.212,0.01-0.425,0.002-0.639l-0.074-2c-0.008-0.223-0.026-0.444-0.052-0.661l-0.026-0.681
	c0.01-0.218,0.011-0.437,0.003-0.657l-0.074-2c-0.008-0.23-0.027-0.457-0.054-0.681l-0.003-0.087C134.932,55.137,136,52.691,136,50
	V40c0-3.428-1.434-6.535-3.764-8.726l-0.242-6.465c-0.15-3.996-3.227-7.268-7.206-7.662C117.097,16.386,109.145,16,101.152,16
	c-29.313-0.001-50.199,5.085-51.074,5.302c-0.197,0.049-0.392,0.105-0.584,0.168c-3.611,1.191-6.088,4.102-7.902,7.241
	C36.025,30.562,32,35.82,32,42v8c0,1.547,0.349,3.015,0.978,4.326c-2.768,11.616-5.573,26.488-8.361,44.331
	C11.982,108.013,4,126.088,4,146c0,17.358,5.921,33.233,16,43.335v26.27C20,229.056,30.944,240,44.395,240H95.21
	c22.492,0,40.79-18.298,40.79-40.79v-48.613c9.205,0.876,18.543,1.345,27.843,1.397c0.015,0,0.039,0,0.054,0
	c0.542,0.003,1.128,0.005,1.711,0.005c7.588,0,15.278-0.278,22.857-0.825c2.005-0.145,3.981-0.306,5.874-0.478
	c3.832-0.349,7.682-0.77,11.444-1.253c0.007-0.001,0.014-0.002,0.021-0.003c0.9-0.116,1.783-0.234,2.658-0.354
	c0.009-0.001,0.018-0.002,0.027-0.004c1.859-0.255,3.702-0.526,5.479-0.803c0.015-0.002,0.03-0.005,0.042-0.007
	c0.963-0.151,1.909-0.305,2.841-0.46c0.882-0.147,1.749-0.294,2.595-0.443c0.96-0.169,1.892-0.338,2.806-0.508
	c0.872-0.162,1.727-0.324,2.554-0.486c0,0,0.001,0,0.001,0v0c0.948-0.186,1.863-0.371,2.754-0.555
	c0.009-0.002,0.018-0.004,0.027-0.006c0.849-0.176,1.669-0.35,2.465-0.522c0.014-0.003,0.027-0.006,0.041-0.009
	c1.347-0.293,2.683-0.594,3.969-0.896c0.01-0.002,0.02-0.005,0.029-0.007c2.19-0.514,4.302-1.042,6.28-1.571
	c0.009-0.002,0.019-0.005,0.028-0.007c0.994-0.266,1.866-0.508,2.619-0.723c0.011-0.003,0.022-0.006,0.032-0.009
	c0.767-0.219,1.411-0.409,1.918-0.562c0.01-0.003,0.049-0.015,0.059-0.018l0.447-0.136c0.006-0.002,0.011-0.003,0.017-0.005
	c0.683-0.211,1.035-0.328,1.035-0.328c3.263-1.091,5.476-4.15,5.476-7.591V132v-0.565v-2.871v-3.129v-2.871v-3.129v-2.871v-3.129
	v-2.871v-3.13v-2.871v-3.129v-2.871v-3.129v-2.871v-3.129V88C252,84.392,249.585,81.23,246.104,80.282z"/>
<path style="fill:#333333;" d="M36,124.134c0,0,186.483-3.822,208,7.866V88c0,0-92-25.088-200.828-3.193L36,124.134z"/>
<path style="fill:#4D4D4D;" d="M124,96.26c0,0,107.586,4.014,120-8.26v45.428c0,0-49.655,16.519-115.862,8.26L124,96.26z"/>
<g>
	<path style="fill:#404040;" d="M161.575,96.887c-1.001,0-1.995-0.002-2.975-0.005l46.164,44.625c0.884-0.113,1.752-0.23,2.61-0.348
		L161.575,96.887z"/>
	<path style="fill:#404040;" d="M142.787,96.726c-1.044-0.017-2.049-0.035-3.026-0.054l48.126,46.522
		c0.926-0.067,1.844-0.137,2.752-0.211L142.787,96.726z"/>
	<path style="fill:#404040;" d="M130.087,96.448c-1.181-0.032-2.204-0.062-3.062-0.089l49.096,47.459
		c0.959-0.033,1.913-0.069,2.857-0.11L130.087,96.448z"/>
	<path style="fill:#404040;" d="M149.085,96.813c-1.027-0.012-2.027-0.024-3.009-0.038l47.538,45.953
		c0.911-0.083,1.813-0.169,2.704-0.258L149.085,96.813z"/>
	<path style="fill:#404040;" d="M124.03,96.594l0.287,3.148l45.748,44.223c0.978-0.014,1.949-0.033,2.913-0.056L124.03,96.594z"/>
	<path style="fill:#404040;" d="M155.348,96.867c-1.012-0.006-2.01-0.013-2.992-0.022l46.88,45.318
		c0.897-0.098,1.782-0.199,2.656-0.303L155.348,96.867z"/>
	<path style="fill:#404040;" d="M136.455,96.604c-1.073-0.023-2.088-0.047-3.043-0.07l48.648,47.027
		c0.943-0.05,1.876-0.105,2.802-0.163L136.455,96.604z"/>
	<path style="fill:#404040;" d="M127.027,129.49l0.287,3.148l10.435,10.087c1.092,0.1,2.179,0.194,3.261,0.281L127.027,129.49z"/>
	<path style="fill:#404040;" d="M124.63,103.173l0.287,3.148l38.971,37.672c0.998,0.006,1.988,0.006,2.972,0.002L124.63,103.173z"/>
	<path style="fill:#404040;" d="M244,89.436V88c-0.23,0.228-0.503,0.448-0.798,0.665L244,89.436z"/>
	<path style="fill:#404040;" d="M126.428,122.911l0.287,3.148l17.804,17.21c1.066,0.074,2.126,0.141,3.18,0.203L126.428,122.911z"/>
	<path style="fill:#404040;" d="M125.828,116.332l0.287,3.148l25.008,24.175c1.041,0.049,2.077,0.093,3.106,0.132L125.828,116.332z"
		/>
	<path style="fill:#404040;" d="M125.229,109.753l0.287,3.148l32.062,30.993c1.018,0.027,2.032,0.049,3.038,0.065L125.229,109.753z"
		/>
	<path style="fill:#404040;" d="M130.796,142.005c1.122,0.13,2.24,0.254,3.352,0.37l-6.522-6.304l0.287,3.148L130.796,142.005z"/>
	<path style="fill:#404040;" d="M180.022,96.719c-0.974,0.019-1.946,0.036-2.916,0.052l43.681,42.225
		c0.846-0.157,1.677-0.315,2.481-0.472L180.022,96.719z"/>
	<path style="fill:#404040;" d="M167.764,96.87c-0.993,0.006-1.979,0.01-2.957,0.013l45.388,43.875
		c0.869-0.128,1.728-0.257,2.568-0.388L167.764,96.87z"/>
	<path style="fill:#404040;" d="M231.717,92.69c-0.799,0.162-1.632,0.318-2.486,0.468L244,107.435v-2.871L231.717,92.69z"/>
	<path style="fill:#404040;" d="M221.018,94.348c-0.872,0.104-1.757,0.204-2.66,0.3L244,119.436v-2.871L221.018,94.348z"/>
	<path style="fill:#404040;" d="M241.183,89.841c-0.627,0.3-1.317,0.589-2.075,0.865L244,95.436v-2.871L241.183,89.841z"/>
	<path style="fill:#404040;" d="M236.686,91.494c-0.736,0.212-1.522,0.415-2.338,0.612l9.652,9.33v-2.871L236.686,91.494z"/>
	<path style="fill:#404040;" d="M215.428,94.945c-0.894,0.084-1.803,0.164-2.72,0.242L244,125.436v-2.871L215.428,94.945z"/>
	<path style="fill:#404040;" d="M226.466,93.615c-0.84,0.129-1.706,0.251-2.587,0.371L244,113.436v-2.871L226.466,93.615z"/>
	<path style="fill:#404040;" d="M186.081,96.576c-0.964,0.027-1.929,0.051-2.893,0.074l42.758,41.333
		c0.839-0.173,1.65-0.346,2.436-0.516L186.081,96.576z"/>
	<path style="fill:#404040;" d="M173.915,96.816c-0.984,0.012-1.963,0.022-2.938,0.031l44.559,43.074
		c0.857-0.143,1.701-0.286,2.524-0.431L173.915,96.816z"/>
	<path style="fill:#404040;" d="M192.088,96.383c-0.954,0.035-1.91,0.068-2.868,0.099l41.792,40.399
		c0.834-0.191,1.631-0.378,2.39-0.56L192.088,96.383z"/>
	<path style="fill:#404040;" d="M209.718,95.425c-0.913,0.069-1.835,0.135-2.766,0.198L244,131.435v-2.871L209.718,95.425z"/>
	<path style="fill:#404040;" d="M198.037,96.134c-0.942,0.045-1.889,0.087-2.839,0.127l40.783,39.423
		c0.843-0.214,1.624-0.418,2.34-0.609L198.037,96.134z"/>
	<path style="fill:#404040;" d="M203.916,95.817c-0.929,0.056-1.863,0.109-2.804,0.16l39.728,38.403
		c0.98-0.279,1.747-0.509,2.275-0.672L203.916,95.817z"/>
</g>
<path style="fill:#262626;" d="M40.015,144.627H76C75.27,119.802,61.234,100,44.018,100C26.335,100,12,120.888,12,146.655
	c0,21.712,10.18,39.948,23.963,45.151c1.962,0.741,4.052-0.737,4.052-2.858V144.627z"/>
<path style="fill:#9BC2DD;" d="M95.21,232H44.395C35.34,232,28,224.66,28,215.605V148h100v51.21C128,217.319,113.319,232,95.21,232z
	"/>
<path style="fill:#2C8BBF;" d="M28,148v39.036c2.466,2.08,5.137,3.703,7.963,4.77c1.962,0.741,4.052-0.737,4.052-2.858V148H28z"/>
<path style="fill:#333333;" d="M127.85,128H28.505c-0.329,2.545-0.505,4-0.505,4v8h100v-8L127.85,128z"/>
<rect x="28" y="136" style="fill:#404040;" width="100" height="12"/>
<path style="fill:#404040;" d="M124,25.109L128,132H28c0,0,12-98.974,24-102.933C52,29.067,84,21.15,124,25.109z"/>
<g>
	<path style="fill:#333333;" d="M125.259,58H65c-0.552,0-1,0.448-1,1c0,0.552,0.448,1,1,1h60.333L125.259,58z"/>
	<path style="fill:#333333;" d="M125.556,66H73c-0.552,0-1,0.448-1,1c0,0.552,0.448,1,1,1h52.63L125.556,66z"/>
	<path style="fill:#333333;" d="M125.407,62H69c-0.552,0-1,0.448-1,1c0,0.552,0.448,1,1,1h56.482L125.407,62z"/>
</g>
<path style="fill:#333333;" d="M44,76c0,0,11.294,20.8,30.118,20.8S108,128,108,128s-18.824-26-33.882-26S44,76,44,76z"/>
<path style="fill:#FF0000;" d="M126,52H42c-1.105,0-2-0.895-2-2v-8c0-3.314,2.686-6,6-6h78c2.209,0,4,1.791,4,4v10
	C128,51.105,127.105,52,126,52z"/>
</svg>
