<?xml version="1.0" encoding="iso-8859-1"?>
<!-- Generator: Adobe Illustrator 27.8.1, SVG Export Plug-In . SVG Version: 6.00 Build 0)  -->
<svg version="1.1" id="Layer_1" xmlns="http://www.w3.org/2000/svg" xmlns:xlink="http://www.w3.org/1999/xlink" x="0px" y="0px"
	 viewBox="0 0 256 256" style="enable-background:new 0 0 256 256;" xml:space="preserve">
<path style="opacity:0.5;fill:#FFFFFF;" d="M251.914,85.606c-0.017-0.182-0.037-0.358-0.06-0.534
	c-0.056-0.47-0.116-0.869-0.186-1.254c-0.038-0.21-0.081-0.419-0.126-0.629c-0.082-0.377-0.177-0.763-0.284-1.148l-0.016-0.06
	c-0.048-0.176-0.098-0.351-0.152-0.524c-0.123-0.393-0.261-0.791-0.423-1.21c-0.054-0.151-0.109-0.294-0.167-0.435
	c-0.215-0.523-0.458-1.048-0.723-1.561c-0.08-0.155-0.166-0.31-0.253-0.463l0.018,0.032c-0.216-0.394-0.418-0.739-0.622-1.062
	c-0.109-0.172-0.22-0.34-0.333-0.507c-0.221-0.327-0.435-0.626-0.657-0.919c-0.128-0.168-0.259-0.338-0.394-0.506
	c-0.232-0.286-0.473-0.565-0.761-0.881c-0.127-0.143-0.249-0.278-0.375-0.408c-0.395-0.41-0.801-0.799-1.207-1.155
	c-0.12-0.106-0.247-0.211-0.376-0.314c-0.335-0.28-0.647-0.526-0.955-0.754c-0.154-0.114-0.315-0.225-0.476-0.336l-0.054-0.037
	c-0.297-0.204-0.596-0.4-0.902-0.588c-0.197-0.12-0.395-0.237-0.596-0.351c-0.316-0.179-0.637-0.346-0.962-0.507l-0.057-0.028
	c-0.176-0.088-0.353-0.175-0.533-0.257c-0.376-0.171-0.764-0.332-1.183-0.491c-0.149-0.061-0.295-0.117-0.443-0.169
	c-1.814-0.641-3.72-1.016-5.657-1.113l-64.575-3.429C168.283,64.004,168.141,64,168,64h-2c-2.961,0-5.547,1.609-6.93,4H132h-8H96.93
	c-1.383-2.391-3.969-4-6.93-4h-2c-0.141,0-0.283,0.004-0.424,0.011l-64.599,3.43c-1.911,0.096-3.818,0.471-5.641,1.115
	c-0.145,0.051-0.291,0.107-0.436,0.166c-0.418,0.158-0.806,0.319-1.181,0.49c-0.181,0.082-0.358,0.169-0.534,0.257l-0.057,0.029
	c-0.325,0.161-0.645,0.328-0.959,0.506c-0.203,0.115-0.401,0.232-0.598,0.352c-0.306,0.187-0.605,0.383-0.9,0.586l-0.056,0.038
	c-0.161,0.11-0.322,0.222-0.479,0.338c-0.307,0.226-0.62,0.474-0.953,0.752c-0.133,0.107-0.258,0.21-0.38,0.317
	C10.402,72.741,9.996,73.13,9.6,73.54c-0.125,0.13-0.247,0.264-0.368,0.4c-0.294,0.324-0.536,0.603-0.766,0.886
	c-0.138,0.17-0.269,0.34-0.399,0.511c-0.22,0.29-0.434,0.589-0.641,0.894c-0.128,0.189-0.239,0.356-0.347,0.527
	c-0.199,0.316-0.396,0.652-0.603,1.027c-0.095,0.167-0.178,0.317-0.257,0.47c-0.263,0.51-0.506,1.035-0.721,1.556
	c-0.06,0.145-0.115,0.29-0.167,0.436c-0.161,0.418-0.3,0.816-0.423,1.212c-0.053,0.171-0.103,0.346-0.151,0.522l-0.016,0.058
	c-0.108,0.387-0.203,0.772-0.284,1.147c-0.046,0.212-0.088,0.421-0.127,0.633c-0.07,0.382-0.129,0.781-0.181,1.218
	c-0.027,0.21-0.048,0.386-0.064,0.563C4.028,86.244,4,86.836,4,87.415v81.006c0,10.822,8.471,19.601,19.286,19.987l100.428,3.587
	c0.095,0.003,0.19,0.005,0.286,0.005h8c0.095,0,0.19-0.002,0.286-0.005l100.428-3.587c10.815-0.386,19.286-9.166,19.286-19.987
	V87.415C252,86.836,251.972,86.244,251.914,85.606z M243.906,85.985c0.014,0.114,0.03,0.226,0.041,0.341
	C243.936,86.211,243.92,86.099,243.906,85.985c-0.029-0.246-0.064-0.49-0.108-0.731C243.842,85.495,243.877,85.739,243.906,85.985z
	 M241.943,80.71c0.071,0.105,0.142,0.21,0.21,0.317C242.085,80.919,242.014,80.815,241.943,80.71
	c-0.124-0.183-0.252-0.363-0.386-0.539C241.69,80.347,241.819,80.526,241.943,80.71z M12.094,85.985
	c0.029-0.246,0.064-0.49,0.108-0.731C12.158,85.495,12.123,85.739,12.094,85.985c-0.014,0.114-0.03,0.226-0.041,0.341
	C12.064,86.211,12.08,86.099,12.094,85.985z"/>
<path style="fill:#C4C0AA;" d="M168,72l-4,4h-32h-8H92l-4-4l-64.599,3.43C17.014,75.749,12,81.021,12,87.415v81.006
	c0,6.461,5.115,11.762,11.572,11.992L124,184h8l100.428-3.587c6.457-0.231,11.572-5.532,11.572-11.992V87.415
	c0-6.394-5.014-11.666-11.401-11.985L168,72z"/>
<path style="fill:#262626;" d="M76,156H36c-2.209,0-4-1.791-4-4V92c0-2.209,1.791-4,4-4h40c2.209,0,4,1.791,4,4v60
	C80,154.209,78.209,156,76,156z"/>
<rect x="36" y="92" style="fill:#B3B3B3;" width="40" height="60"/>
<rect x="40" y="100" style="fill:#262626;" width="8" height="8"/>
<rect x="52" y="100" style="fill:#262626;" width="8" height="8"/>
<rect x="64" y="100" style="fill:#262626;" width="8" height="8"/>
<rect x="40" y="112" style="fill:#262626;" width="8" height="8"/>
<rect x="52" y="112" style="fill:#262626;" width="8" height="8"/>
<rect x="64" y="112" style="fill:#262626;" width="8" height="8"/>
<rect x="40" y="124" style="fill:#262626;" width="8" height="8"/>
<rect x="52" y="124" style="fill:#262626;" width="8" height="8"/>
<rect x="64" y="124" style="fill:#262626;" width="8" height="8"/>
<rect x="52" y="136" style="fill:#262626;" width="8" height="8"/>
<path style="fill:#262626;" d="M220,156h-40c-2.209,0-4-1.791-4-4V92c0-2.209,1.791-4,4-4h40c2.209,0,4,1.791,4,4v60
	C224,154.209,222.209,156,220,156z"/>
<rect x="180" y="92" style="fill:#B3B3B3;" width="40" height="60"/>
<rect x="184" y="100" style="fill:#262626;" width="8" height="8"/>
<rect x="196" y="100" style="fill:#262626;" width="8" height="8"/>
<rect x="208" y="100" style="fill:#262626;" width="8" height="8"/>
<rect x="184" y="112" style="fill:#262626;" width="8" height="8"/>
<rect x="196" y="112" style="fill:#262626;" width="8" height="8"/>
<rect x="208" y="112" style="fill:#262626;" width="8" height="8"/>
<rect x="184" y="124" style="fill:#262626;" width="8" height="8"/>
<rect x="196" y="124" style="fill:#262626;" width="8" height="8"/>
<rect x="208" y="124" style="fill:#262626;" width="8" height="8"/>
<rect x="196" y="136" style="fill:#262626;" width="8" height="8"/>
<path style="fill:#A6A390;" d="M236,76.1v80.586c0,6.354-4.953,11.606-11.295,11.979l-52.47,3.086
	c-2.298,0.135-4.235-1.692-4.235-3.993V72.2V72l-4,4h-32h-8H92l-4-4v0.2v95.558c0,2.301-1.937,4.128-4.235,3.993l-52.47-3.086
	C24.953,168.291,20,163.039,20,156.685V76.1c-4.679,1.653-8,6.112-8,11.315v81.006c0,6.461,5.115,11.762,11.572,11.992L124,184h8
	l100.428-3.587c6.457-0.231,11.572-5.532,11.572-11.992V87.415C244,82.211,240.679,77.752,236,76.1z"/>
<rect x="92" y="92" style="fill:#CCA37A;" width="72" height="40"/>
<rect x="96" y="100" style="fill:#C4C0AA;" width="16" height="16"/>
<rect x="96" y="76" style="fill:#D9D4BC;" width="64" height="12"/>
<path style="fill:#D9D4BC;" d="M166,72v96c0,1.103-0.897,2-2,2H92c-1.103,0-2-0.897-2-2V72h-2v96c0,2.209,1.791,4,4,4h72
	c2.209,0,4-1.791,4-4V72H166z"/>
<rect x="92" y="134" style="fill:#C4C0AA;" width="72" height="2"/>
<rect x="92" y="138" style="fill:#C4C0AA;" width="72" height="2"/>
<rect x="92" y="142" style="fill:#C4C0AA;" width="72" height="2"/>
<rect x="92" y="146" style="fill:#C4C0AA;" width="72" height="2"/>
<rect x="92" y="150" style="fill:#C4C0AA;" width="72" height="2"/>
<rect x="92" y="154" style="fill:#C4C0AA;" width="72" height="2"/>
<rect x="92" y="158" style="fill:#C4C0AA;" width="72" height="2"/>
<rect x="92" y="162" style="fill:#C4C0AA;" width="72" height="2"/>
<rect x="92" y="166" style="fill:#C4C0AA;" width="72" height="2"/>
<rect x="116" y="132" style="fill:#B3B3B3;" width="24" height="36"/>
<rect x="122" y="156" style="fill:#262626;" width="12" height="4"/>
<path style="fill:#A6A6A6;" d="M128,138c-2.206,0-4,1.794-4,4s1.794,4,4,4s4-1.794,4-4S130.206,138,128,138L128,138z"/>
<circle style="fill:#FF0000;" cx="128" cy="142" r="2"/>
<rect x="92" y="92" style="fill:#B3B3B3;" width="72" height="4"/>
<rect x="40" y="104" style="fill:#333333;" width="8" height="4"/>
<rect x="64" y="104" style="fill:#333333;" width="8" height="4"/>
<rect x="52" y="104" style="fill:#333333;" width="8" height="4"/>
<rect x="40" y="116" style="fill:#333333;" width="8" height="4"/>
<rect x="64" y="116" style="fill:#333333;" width="8" height="4"/>
<rect x="52" y="116" style="fill:#333333;" width="8" height="4"/>
<rect x="40" y="128" style="fill:#333333;" width="8" height="4"/>
<rect x="64" y="128" style="fill:#333333;" width="8" height="4"/>
<rect x="52" y="128" style="fill:#333333;" width="8" height="4"/>
<rect x="52" y="140" style="fill:#333333;" width="8" height="4"/>
<rect x="184" y="104" style="fill:#333333;" width="8" height="4"/>
<rect x="208" y="104" style="fill:#333333;" width="8" height="4"/>
<rect x="196" y="104" style="fill:#333333;" width="8" height="4"/>
<rect x="184" y="116" style="fill:#333333;" width="8" height="4"/>
<rect x="208" y="116" style="fill:#333333;" width="8" height="4"/>
<rect x="196" y="116" style="fill:#333333;" width="8" height="4"/>
<rect x="184" y="128" style="fill:#333333;" width="8" height="4"/>
<rect x="208" y="128" style="fill:#333333;" width="8" height="4"/>
<rect x="196" y="128" style="fill:#333333;" width="8" height="4"/>
<rect x="196" y="140" style="fill:#333333;" width="8" height="4"/>
<g>
	<path style="fill:#999999;" d="M95.414,80.586l-2.828,2.828c0.781,0.781,2.047,0.781,2.828,0
		C96.195,82.633,96.195,81.367,95.414,80.586z"/>
	<path style="fill:#B3B3B3;" d="M92.586,83.414l2.828-2.828c-0.781-0.781-2.047-0.781-2.828,0
		C91.805,81.367,91.805,82.633,92.586,83.414z"/>
</g>
<circle style="fill:#CCCCCC;" cx="94" cy="82" r="0.5"/>
<g>
	<path style="fill:#999999;" d="M163.414,80.586l-2.828,2.828c0.781,0.781,2.047,0.781,2.828,0
		C164.195,82.633,164.195,81.367,163.414,80.586z"/>
	<path style="fill:#B3B3B3;" d="M160.586,83.414l2.828-2.828c-0.781-0.781-2.047-0.781-2.828,0
		C159.805,81.367,159.805,82.633,160.586,83.414z"/>
</g>
<circle style="fill:#CCCCCC;" cx="162" cy="82" r="0.5"/>
<polygon style="fill:#C4C0AA;" points="92,92 164,92 160,88 96,88 "/>
<rect x="98" y="81" style="fill:#262626;" width="60" height="2"/>
</svg>
