<svg xmlns="http://www.w3.org/2000/svg" xml:space="preserve" viewBox="0 0 256 256"><path d="M251.914 85.606a15 15 0 0 0-.06-.534 20 20 0 0 0-.312-1.883 21 21 0 0 0-.284-1.148l-.016-.06a15 15 0 0 0-.152-.524 19 19 0 0 0-.423-1.21 10 10 0 0 0-.167-.435 20 20 0 0 0-.723-1.561q-.121-.233-.253-.463l.018.032a20 20 0 0 0-.622-1.062q-.163-.257-.333-.507a21 21 0 0 0-1.051-1.425 20 20 0 0 0-.761-.881 13 13 0 0 0-.375-.408 20 20 0 0 0-1.207-1.155 10 10 0 0 0-.376-.314c-.335-.28-.647-.526-.955-.754q-.233-.17-.476-.336l-.054-.037a21 21 0 0 0-1.498-.939 20 20 0 0 0-.962-.507l-.057-.028a16 16 0 0 0-1.716-.748 9 9 0 0 0-.443-.169 20 20 0 0 0-5.657-1.113l-64.575-3.429A15 15 0 0 0 168 64h-2a8 8 0 0 0-6.93 4H96.93A8 8 0 0 0 90 64h-2a9 9 0 0 0-.424.011l-64.599 3.43a20 20 0 0 0-5.641 1.115 10 10 0 0 0-.436.166c-.418.158-.806.319-1.181.49q-.27.124-.534.257l-.057.029a19.4 19.4 0 0 0-2.457 1.444l-.056.038q-.242.165-.479.338c-.307.226-.62.474-.953.752-.133.107-.258.21-.38.317-.401.354-.807.743-1.203 1.153q-.187.195-.368.4c-.294.324-.536.603-.766.886q-.205.255-.399.511a21 21 0 0 0-.988 1.421c-.199.316-.396.652-.603 1.027-.095.167-.178.317-.257.47-.263.51-.506 1.035-.721 1.556q-.09.217-.167.436c-.161.418-.3.816-.423 1.212q-.08.257-.151.522l-.016.058a20 20 0 0 0-.656 3.561A20 20 0 0 0 4 87.415v81.006a19.93 19.93 0 0 0 19.286 19.987l100.428 3.587q.142.005.286.005h8q.142 0 .286-.005l100.428-3.587A19.93 19.93 0 0 0 252 168.421V87.415c0-.579-.028-1.171-.086-1.809m-8.008.379q.023.17.041.341-.018-.171-.041-.341m-1.963-5.275q.107.157.21.317-.103-.16-.21-.317M12.094 85.985q-.023.17-.041.341.018-.171.041-.341" style="opacity:.5;fill:#fff"/><path d="m168 72-4 4H92l-4-4-64.599 3.43C17.014 75.749 12 81.021 12 87.415v81.006c0 6.461 5.115 11.762 11.572 11.992L124 184h8l100.428-3.587c6.457-.231 11.572-5.532 11.572-11.992V87.415c0-6.394-5.014-11.666-11.401-11.985z" style="fill:#c4c0aa"/><path d="M76 156H36a4 4 0 0 1-4-4V92a4 4 0 0 1 4-4h40a4 4 0 0 1 4 4v60a4 4 0 0 1-4 4" style="fill:#262626"/><path d="M36 92h40v60H36z" style="fill:#b3b3b3"/><path d="M40 100h8v8h-8zm12 0h8v8h-8zm12 0h8v8h-8zm-24 12h8v8h-8zm12 0h8v8h-8zm12 0h8v8h-8zm-24 12h8v8h-8zm12 0h8v8h-8zm12 0h8v8h-8zm-12 12h8v8h-8zm168 20h-40a4 4 0 0 1-4-4V92a4 4 0 0 1 4-4h40a4 4 0 0 1 4 4v60a4 4 0 0 1-4 4" style="fill:#262626"/><path d="M180 92h40v60h-40z" style="fill:#b3b3b3"/><path d="M184 100h8v8h-8zm12 0h8v8h-8zm12 0h8v8h-8zm-24 12h8v8h-8zm12 0h8v8h-8zm12 0h8v8h-8zm-24 12h8v8h-8zm12 0h8v8h-8zm12 0h8v8h-8zm-12 12h8v8h-8z" style="fill:#262626"/><path d="M236 76.1v80.586a12 12 0 0 1-11.295 11.979l-52.47 3.086a4 4 0 0 1-4.235-3.993V72l-4 4H92l-4-4v95.758a4 4 0 0 1-4.235 3.993l-52.47-3.086C24.953 168.291 20 163.039 20 156.685V76.1c-4.679 1.653-8 6.112-8 11.315v81.006c0 6.461 5.115 11.762 11.572 11.992L124 184h8l100.428-3.587c6.457-.231 11.572-5.532 11.572-11.992V87.415c0-5.204-3.321-9.663-8-11.315" style="fill:#a6a390"/><path d="M92 92h72v40H92z" style="fill:#cca37a"/><path d="M96 100h16v16H96z" style="fill:#c4c0aa"/><path d="M96 76h64v12H96z" style="fill:#d9d4bc"/><path d="M166 72v96c0 1.103-.897 2-2 2H92c-1.103 0-2-.897-2-2V72h-2v96a4 4 0 0 0 4 4h72a4 4 0 0 0 4-4V72z" style="fill:#d9d4bc"/><path d="M92 134h72v2H92zm0 4h72v2H92zm0 4h72v2H92zm0 4h72v2H92zm0 4h72v2H92zm0 4h72v2H92zm0 4h72v2H92zm0 4h72v2H92zm0 4h72v2H92z" style="fill:#c4c0aa"/><path d="M116 132h24v36h-24z" style="fill:#b3b3b3"/><path d="M122 156h12v4h-12z" style="fill:#262626"/><path d="M128 138c-2.206 0-4 1.794-4 4s1.794 4 4 4 4-1.794 4-4-1.794-4-4-4" style="fill:#a6a6a6"/><circle cx="128" cy="142" r="2" style="fill:red"/><path d="M92 92h72v4H92z" style="fill:#b3b3b3"/><path d="M40 104h8v4h-8zm24 0h8v4h-8zm-12 0h8v4h-8zm-12 12h8v4h-8zm24 0h8v4h-8zm-12 0h8v4h-8zm-12 12h8v4h-8zm24 0h8v4h-8zm-12 0h8v4h-8zm0 12h8v4h-8zm132-36h8v4h-8zm24 0h8v4h-8zm-12 0h8v4h-8zm-12 12h8v4h-8zm24 0h8v4h-8zm-12 0h8v4h-8zm-12 12h8v4h-8zm24 0h8v4h-8zm-12 0h8v4h-8zm0 12h8v4h-8z" style="fill:#333"/><path d="m95.414 80.586-2.828 2.828a2 2 0 1 0 2.828-2.828" style="fill:#999"/><path d="m92.586 83.414 2.828-2.828a2 2 0 1 0-2.828 2.828" style="fill:#b3b3b3"/><circle cx="94" cy="82" r=".5" style="fill:#ccc"/><path d="m163.414 80.586-2.828 2.828a2 2 0 1 0 2.828-2.828" style="fill:#999"/><path d="m160.586 83.414 2.828-2.828a2 2 0 1 0-2.828 2.828" style="fill:#b3b3b3"/><circle cx="162" cy="82" r=".5" style="fill:#ccc"/><path d="M92 92h72l-4-4H96z" style="fill:#c4c0aa"/><path d="M98 81h60v2H98z" style="fill:#262626"/></svg>