<?xml version="1.0" encoding="UTF-8" standalone="no"?>
<svg
   xmlns:dc="http://purl.org/dc/elements/1.1/"
   xmlns:cc="http://creativecommons.org/ns#"
   xmlns:rdf="http://www.w3.org/1999/02/22-rdf-syntax-ns#"
   xmlns:svg="http://www.w3.org/2000/svg"
   xmlns="http://www.w3.org/2000/svg"
   viewBox="0 0 330.66665 288"
   height="288"
   width="330.66666"
   xml:space="preserve"
   id="svg2"
   version="1.1"><metadata
     id="metadata8"><rdf:RDF><cc:Work
         rdf:about=""><dc:format>image/svg+xml</dc:format><dc:type
           rdf:resource="http://purl.org/dc/dcmitype/StillImage" /></cc:Work></rdf:RDF></metadata><defs
     id="defs6"><clipPath
       id="clipPath18"
       clipPathUnits="userSpaceOnUse"><path
         id="path16"
         d="M 0,256 H 256 V 0 H 0 Z" /></clipPath><clipPath
       id="clipPath26"
       clipPathUnits="userSpaceOnUse"><path
         id="path24"
         d="M 4,236 H 252 V 20 H 4 Z" /></clipPath><clipPath
       id="clipPath48"
       clipPathUnits="userSpaceOnUse"><path
         id="path46"
         d="M 0,256 H 256 V 0 H 0 Z" /></clipPath><clipPath
       id="clipPath202"
       clipPathUnits="userSpaceOnUse"><path
         id="path200"
         d="m 20,212 h 216 v -4 H 20 Z" /></clipPath><clipPath
       id="clipPath216"
       clipPathUnits="userSpaceOnUse"><path
         id="path214"
         d="m 20,204 h 216 v -4 H 20 Z" /></clipPath><clipPath
       id="clipPath230"
       clipPathUnits="userSpaceOnUse"><path
         id="path228"
         d="m 20,196 h 216 v -4 H 20 Z" /></clipPath><clipPath
       id="clipPath244"
       clipPathUnits="userSpaceOnUse"><path
         id="path242"
         d="m 20,188 h 216 v -4 H 20 Z" /></clipPath><clipPath
       id="clipPath258"
       clipPathUnits="userSpaceOnUse"><path
         id="path256"
         d="m 20,180 h 216 v -4 H 20 Z" /></clipPath><clipPath
       id="clipPath272"
       clipPathUnits="userSpaceOnUse"><path
         id="path270"
         d="m 20,172 h 216 v -4 H 20 Z" /></clipPath><clipPath
       id="clipPath286"
       clipPathUnits="userSpaceOnUse"><path
         id="path284"
         d="m 20,164 h 216 v -4 H 20 Z" /></clipPath><clipPath
       id="clipPath300"
       clipPathUnits="userSpaceOnUse"><path
         id="path298"
         d="m 20,156 h 216 v -4 H 20 Z" /></clipPath><clipPath
       id="clipPath314"
       clipPathUnits="userSpaceOnUse"><path
         id="path312"
         d="m 20,148 h 216 v -4 H 20 Z" /></clipPath><clipPath
       id="clipPath328"
       clipPathUnits="userSpaceOnUse"><path
         id="path326"
         d="m 20,140 h 216 v -4 H 20 Z" /></clipPath><clipPath
       id="clipPath342"
       clipPathUnits="userSpaceOnUse"><path
         id="path340"
         d="m 20,132 h 216 v -4 H 20 Z" /></clipPath><clipPath
       id="clipPath356"
       clipPathUnits="userSpaceOnUse"><path
         id="path354"
         d="m 20,124 h 216 v -4 H 20 Z" /></clipPath><clipPath
       id="clipPath370"
       clipPathUnits="userSpaceOnUse"><path
         id="path368"
         d="m 20,116 h 216 v -4 H 20 Z" /></clipPath><clipPath
       id="clipPath384"
       clipPathUnits="userSpaceOnUse"><path
         id="path382"
         d="m 20,108 h 216 v -4 H 20 Z" /></clipPath><clipPath
       id="clipPath398"
       clipPathUnits="userSpaceOnUse"><path
         id="path396"
         d="M 20,100 H 236 V 96 H 20 Z" /></clipPath><clipPath
       id="clipPath412"
       clipPathUnits="userSpaceOnUse"><path
         id="path410"
         d="M 20,92 H 236 V 88 H 20 Z" /></clipPath><clipPath
       id="clipPath426"
       clipPathUnits="userSpaceOnUse"><path
         id="path424"
         d="M 20,84 H 236 V 80 H 20 Z" /></clipPath><clipPath
       id="clipPath440"
       clipPathUnits="userSpaceOnUse"><path
         id="path438"
         d="M 20,76 H 236 V 72 H 20 Z" /></clipPath><clipPath
       id="clipPath454"
       clipPathUnits="userSpaceOnUse"><path
         id="path452"
         d="M 20,68 H 236 V 64 H 20 Z" /></clipPath><clipPath
       id="clipPath468"
       clipPathUnits="userSpaceOnUse"><path
         id="path466"
         d="m 20,220 h 216 v -4 H 20 Z" /></clipPath></defs><g
     transform="matrix(1.3333333,0,0,-1.3333333,-5.3333332,314.66666)"
     id="g10"><g
       id="g12"><g
         clip-path="url(#clipPath18)"
         id="g14"><g
           id="g20"><g
             id="g22" /><g
             id="g34"><g
               style="opacity:0.5"
               id="g32"
               clip-path="url(#clipPath26)"><g
                 id="g30"
                 transform="translate(244,236)"><path
                   id="path28"
                   style="fill:#ffffff;fill-opacity:1;fill-rule:nonzero;stroke:none"
                   d="m 0,0 h -232 -8 v -8 -176 -8 h 8 69.483 c -0.921,-0.273 -1.746,-0.561 -2.483,-0.865 -6.091,-2.514 -7,-6.802 -7,-9.135 0,-3.284 1.649,-7.686 9.505,-10.008 2.833,-0.837 6.723,-1.568 11.561,-2.173 9.385,-1.173 21.791,-1.819 34.934,-1.819 13.143,0 25.549,0.646 34.934,1.819 4.837,0.605 8.728,1.336 11.561,2.173 7.856,2.322 9.505,6.724 9.505,10.008 0,2.333 -0.909,6.621 -7,9.135 -0.737,0.304 -1.563,0.592 -2.483,0.865 H 0 8 v 8 176 8 z" /></g></g></g></g></g></g><path
       id="path36"
       style="fill:#191919;fill-opacity:1;fill-rule:nonzero;stroke:none"
       d="m 148,36 h -40 v 20 h 40 z" /><path
       id="path38"
       style="fill:#262626;fill-opacity:1;fill-rule:nonzero;stroke:none"
       d="M 244,52 H 12 v 176 h 232 z" /><path
       id="path40"
       style="fill:#191919;fill-opacity:1;fill-rule:nonzero;stroke:none"
       d="M 240,56 H 16 v 168 h 224 z" /><g
       id="g42"><g
         clip-path="url(#clipPath48)"
         id="g44"><g
           transform="translate(176,34)"
           id="g50"><path
             id="path52"
             style="fill:#262626;fill-opacity:1;fill-rule:nonzero;stroke:none"
             d="m 0,0 c 0,-3.313 -21.49,-6 -48,-6 -26.51,0 -48,2.687 -48,6 0,3.313 21.49,6 48,6 C -21.49,6 0,3.313 0,0" /></g><g
           transform="translate(237,53)"
           id="g54"><path
             id="path56"
             style="fill:#00ff00;fill-opacity:1;fill-rule:nonzero;stroke:none"
             d="M 0,0 H 2 C 2.553,0 3,0.447 3,1 3,1.553 2.553,2 2,2 H 0 C -0.553,2 -1,1.553 -1,1 -1,0.447 -0.553,0 0,0" /></g><g
           transform="translate(229,53)"
           id="g58"><path
             id="path60"
             style="fill:#191919;fill-opacity:1;fill-rule:nonzero;stroke:none"
             d="M 0,0 H 2 C 2.553,0 3,0.447 3,1 3,1.553 2.553,2 2,2 H 0 C -0.553,2 -1,1.553 -1,1 -1,0.447 -0.553,0 0,0" /></g><g
           transform="translate(221,53)"
           id="g62"><path
             id="path64"
             style="fill:#191919;fill-opacity:1;fill-rule:nonzero;stroke:none"
             d="M 0,0 H 2 C 2.553,0 3,0.447 3,1 3,1.553 2.553,2 2,2 H 0 C -0.553,2 -1,1.553 -1,1 -1,0.447 -0.553,0 0,0" /></g><path
           id="path66"
           style="fill:#00007b;fill-opacity:1;fill-rule:nonzero;stroke:none"
           d="M 236,60 H 20 v 160 h 216 z" /><g
           transform="translate(152,96)"
           id="g68"><path
             id="path70"
             style="fill:#007b00;fill-opacity:1;fill-rule:nonzero;stroke:none"
             d="m 0,0 h -4 v -4 h -8 v 4 h -4 v -4 h -40 v 4 h -8 v -4 h -8 v 4 h -4 v 24 h 4 v 4 h 8 v -4 h 4 v 4 h 44 v -4 h 8 v 4 h 4 V 24 H 0 Z M 8,-4 V 28 H 4 v 4 H 0 v 4 h -72 v 4 h -4 -28 v -76 h 12 16 152 v 32 z" /></g><path
           id="path72"
           style="fill:#cca37a;fill-opacity:1;fill-rule:nonzero;stroke:none"
           d="M 56,60 H 28 v 76 h 28 z" /><path
           id="path74"
           style="fill:#b3b3b3;fill-opacity:1;fill-rule:nonzero;stroke:none"
           d="m 128,96 h -28 v 24 h 28 z" /><path
           id="path76"
           style="fill:#ffffff;fill-opacity:1;fill-rule:nonzero;stroke:none"
           d="m 108,112 h -4 v 4 h 4 z" /><path
           id="path78"
           style="fill:#ffffff;fill-opacity:1;fill-rule:nonzero;stroke:none"
           d="m 116,112 h -4 v 4 h 4 z" /><path
           id="path80"
           style="fill:#ffffff;fill-opacity:1;fill-rule:nonzero;stroke:none"
           d="m 124,112 h -4 v 4 h 4 z" /><path
           id="path82"
           style="fill:#ffffff;fill-opacity:1;fill-rule:nonzero;stroke:none"
           d="m 124,108 h -20 v 4 h 20 z" /><path
           id="path84"
           style="fill:#ffffff;fill-opacity:1;fill-rule:nonzero;stroke:none"
           d="m 104,100 h 4 v 8 h -4 z" /><path
           id="path86"
           style="fill:#ffffff;fill-opacity:1;fill-rule:nonzero;stroke:none"
           d="m 120,100 h 4 v 8 h -4 z" /><path
           id="path88"
           style="fill:#ffffff;fill-opacity:1;fill-rule:nonzero;stroke:none"
           d="m 120,100 h -12 v 4 h 12 z" /><path
           id="path90"
           style="fill:#ffffff;fill-opacity:1;fill-rule:nonzero;stroke:none"
           d="m 116,104 h -4 v 4 h 4 z" /><path
           id="path92"
           style="fill:#b3b3b3;fill-opacity:1;fill-rule:nonzero;stroke:none"
           d="m 120,60 h -12 v 40 h 12 z" /><path
           id="path94"
           style="fill:#595959;fill-opacity:1;fill-rule:nonzero;stroke:none"
           d="m 116,88 h -4 v 4 h 4 z" /><path
           id="path96"
           style="fill:#00ff00;fill-opacity:1;fill-rule:nonzero;stroke:none"
           d="m 116,80 h -4 v 4 h 4 z" /><path
           id="path98"
           style="fill:#ff0000;fill-opacity:1;fill-rule:nonzero;stroke:none"
           d="m 116,72 h -4 v 4 h 4 z" /><path
           id="path100"
           style="fill:#ffff00;fill-opacity:1;fill-rule:nonzero;stroke:none"
           d="m 116,64 h -4 v 4 h 4 z" /><path
           id="path102"
           style="fill:#404040;fill-opacity:1;fill-rule:nonzero;stroke:none"
           d="m 76,80 h -4 v 4 h 4 z" /><path
           id="path104"
           style="fill:#404040;fill-opacity:1;fill-rule:nonzero;stroke:none"
           d="m 60,92 h -4 v 4 h 4 z" /><path
           id="path106"
           style="fill:#404040;fill-opacity:1;fill-rule:nonzero;stroke:none"
           d="m 36,64 h -4 v 4 h 4 z" /><path
           id="path108"
           style="fill:#404040;fill-opacity:1;fill-rule:nonzero;stroke:none"
           d="m 44,76 h -4 v 4 h 4 z" /><path
           id="path110"
           style="fill:#404040;fill-opacity:1;fill-rule:nonzero;stroke:none"
           d="m 36,84 h -4 v 4 h 4 z" /><path
           id="path112"
           style="fill:#404040;fill-opacity:1;fill-rule:nonzero;stroke:none"
           d="m 44,96 h -4 v 4 h 4 z" /><path
           id="path114"
           style="fill:#404040;fill-opacity:1;fill-rule:nonzero;stroke:none"
           d="m 40,112 h -4 v 4 h 4 z" /><path
           id="path116"
           style="fill:#404040;fill-opacity:1;fill-rule:nonzero;stroke:none"
           d="m 36,124 h -4 v 4 h 4 z" /><path
           id="path118"
           style="fill:#404040;fill-opacity:1;fill-rule:nonzero;stroke:none"
           d="m 44,128 h -4 v 4 h 4 z" /><path
           id="path120"
           style="fill:#404040;fill-opacity:1;fill-rule:nonzero;stroke:none"
           d="m 96,64 h -4 v 4 h 4 z" /><path
           id="path122"
           style="fill:#404040;fill-opacity:1;fill-rule:nonzero;stroke:none"
           d="m 92,76 h -4 v 4 h 4 z" /><path
           id="path124"
           style="fill:#404040;fill-opacity:1;fill-rule:nonzero;stroke:none"
           d="m 64,68 h -4 v 4 h 4 z" /><path
           id="path126"
           style="fill:#404040;fill-opacity:1;fill-rule:nonzero;stroke:none"
           d="m 164,72 h -4 v 4 h 4 z" /><path
           id="path128"
           style="fill:#404040;fill-opacity:1;fill-rule:nonzero;stroke:none"
           d="m 184,84 h -4 v 4 h 4 z" /><path
           id="path130"
           style="fill:#404040;fill-opacity:1;fill-rule:nonzero;stroke:none"
           d="m 204,68 h -4 v 4 h 4 z" /><path
           id="path132"
           style="fill:#404040;fill-opacity:1;fill-rule:nonzero;stroke:none"
           d="m 212,80 h -4 v 4 h 4 z" /><path
           id="path134"
           style="fill:#404040;fill-opacity:1;fill-rule:nonzero;stroke:none"
           d="m 144,80 h -4 v 4 h 4 z" /><path
           id="path136"
           style="fill:#404040;fill-opacity:1;fill-rule:nonzero;stroke:none"
           d="m 140,64 h -4 v 4 h 4 z" /><path
           id="path138"
           style="fill:#cca37a;fill-opacity:1;fill-rule:nonzero;stroke:none"
           d="m 96,92 h -8 v 4 h 8 z" /><path
           id="path140"
           style="fill:#cca37a;fill-opacity:1;fill-rule:nonzero;stroke:none"
           d="m 76,92 h 4 v 4 h -4 z" /><path
           id="path142"
           style="fill:#cca37a;fill-opacity:1;fill-rule:nonzero;stroke:none"
           d="m 80,120 h -4 v 4 h 4 z" /><path
           id="path144"
           style="fill:#cca37a;fill-opacity:1;fill-rule:nonzero;stroke:none"
           d="m 92,120 h -4 v 4 h 4 z" /><path
           id="path146"
           style="fill:#cca37a;fill-opacity:1;fill-rule:nonzero;stroke:none"
           d="m 144,120 h -8 v 4 h 8 z" /><path
           id="path148"
           style="fill:#cca37a;fill-opacity:1;fill-rule:nonzero;stroke:none"
           d="m 152,120 h -4 v 4 h 4 z" /><path
           id="path150"
           style="fill:#cca37a;fill-opacity:1;fill-rule:nonzero;stroke:none"
           d="m 152,92 h -4 v 4 h 4 z" /><path
           id="path152"
           style="fill:#cca37a;fill-opacity:1;fill-rule:nonzero;stroke:none"
           d="m 140,92 h -4 v 4 h 4 z" /><path
           id="path154"
           style="fill:#cca37a;fill-opacity:1;fill-rule:nonzero;stroke:none"
           d="m 156,96 h -4 v 24 h 4 z" /><path
           id="path156"
           style="fill:#cca37a;fill-opacity:1;fill-rule:nonzero;stroke:none"
           d="M 136,124 H 92 v 4 h 44 z" /><path
           id="path158"
           style="fill:#cca37a;fill-opacity:1;fill-rule:nonzero;stroke:none"
           d="m 148,124 h -4 v 4 h 4 z" /><path
           id="path160"
           style="fill:#cca37a;fill-opacity:1;fill-rule:nonzero;stroke:none"
           d="m 88,124 h -8 v 4 h 8 z" /><path
           id="path162"
           style="fill:#cca37a;fill-opacity:1;fill-rule:nonzero;stroke:none"
           d="m 76,96 h -4 v 24 h 4 z" /><path
           id="path164"
           style="fill:#cca37a;fill-opacity:1;fill-rule:nonzero;stroke:none"
           d="m 88,88 h -8 v 4 h 8 z" /><path
           id="path166"
           style="fill:#cca37a;fill-opacity:1;fill-rule:nonzero;stroke:none"
           d="m 148,88 h -8 v 4 h 8 z" /><path
           id="path168"
           style="fill:#cca37a;fill-opacity:1;fill-rule:nonzero;stroke:none"
           d="m 136,88 h -16 v 4 h 16 z" /><path
           id="path170"
           style="fill:#cca37a;fill-opacity:1;fill-rule:nonzero;stroke:none"
           d="M 108,88 H 96 v 4 h 12 z" /><g
           transform="translate(164,96)"
           id="g172"><path
             id="path174"
             style="fill:#cca37a;fill-opacity:1;fill-rule:nonzero;stroke:none"
             d="M 0,0 V 4 H -4 V -4 H 0 64 V 0 Z" /></g><path
           id="path176"
           style="fill:#ffffff;fill-opacity:1;fill-rule:nonzero;stroke:none"
           d="m 216,220 h -36 v -68 h 36 z m -2,-66 h -32 v 64 h 32 z" /><path
           id="path178"
           style="fill:#ffffff;fill-opacity:1;fill-rule:nonzero;stroke:none"
           d="M 216,148 H 40 v -12 h 176 z m -2,-10 H 42 v 8 h 172 z" /><path
           id="path180"
           style="fill:#0000b8;fill-opacity:1;fill-rule:nonzero;stroke:none"
           d="M 176,152 H 40 v 68 h 136 z" /><path
           id="path182"
           style="fill:#00ff00;fill-opacity:1;fill-rule:nonzero;stroke:none"
           d="m 208,188 h -12 v 12 h 12 z" /><path
           id="path184"
           style="fill:#ff0000;fill-opacity:1;fill-rule:nonzero;stroke:none"
           d="m 208,172 h -12 v 12 h 12 z" /><path
           id="path186"
           style="fill:#ffff00;fill-opacity:1;fill-rule:nonzero;stroke:none"
           d="m 208,156 h -12 v 12 h 12 z" /><g
           transform="translate(96,200)"
           id="g188"><path
             id="path190"
             style="fill:#808080;fill-opacity:1;fill-rule:nonzero;stroke:none"
             d="m 0,0 v 4 h -4 v 4 h -4 v 4 h -4 V 0 h -8 v 4 h 4 v 8 h -4 V 8 h -4 V 0 h -8 v 4 4 4 h -4 V 8 h -4 V 4 h -4 V 0 h -4 v -20 h 4 v 4 h 4 v 4 h 8 8 v -4 h -4 v -4 h 8 v 4 h 4 v 4 4 h 8 4 v -4 h 4 v -8 H 4 V 0 Z" /></g><path
           id="path192"
           style="fill:#808080;fill-opacity:1;fill-rule:nonzero;stroke:none"
           d="m 64,176 h 4 v 4 h -4 z" /><path
           id="path194"
           style="fill:#808080;fill-opacity:1;fill-rule:nonzero;stroke:none"
           d="m 60,172 h 4 v 4 h -4 z" /><g
           id="g196"><g
             id="g198" /><g
             id="g208"><g
               style="opacity:0.5"
               id="g206"
               clip-path="url(#clipPath202)"><path
                 id="path204"
                 style="fill:#ffffff;fill-opacity:1;fill-rule:nonzero;stroke:none"
                 d="M 236,208 H 20 v 4 h 216 z" /></g></g></g><g
           id="g210"><g
             id="g212" /><g
             id="g222"><g
               style="opacity:0.5"
               id="g220"
               clip-path="url(#clipPath216)"><path
                 id="path218"
                 style="fill:#ffffff;fill-opacity:1;fill-rule:nonzero;stroke:none"
                 d="M 236,200 H 20 v 4 h 216 z" /></g></g></g><g
           id="g224"><g
             id="g226" /><g
             id="g236"><g
               style="opacity:0.5"
               id="g234"
               clip-path="url(#clipPath230)"><path
                 id="path232"
                 style="fill:#ffffff;fill-opacity:1;fill-rule:nonzero;stroke:none"
                 d="M 236,192 H 20 v 4 h 216 z" /></g></g></g><g
           id="g238"><g
             id="g240" /><g
             id="g250"><g
               style="opacity:0.5"
               id="g248"
               clip-path="url(#clipPath244)"><path
                 id="path246"
                 style="fill:#ffffff;fill-opacity:1;fill-rule:nonzero;stroke:none"
                 d="M 236,184 H 20 v 4 h 216 z" /></g></g></g><g
           id="g252"><g
             id="g254" /><g
             id="g264"><g
               style="opacity:0.5"
               id="g262"
               clip-path="url(#clipPath258)"><path
                 id="path260"
                 style="fill:#ffffff;fill-opacity:1;fill-rule:nonzero;stroke:none"
                 d="M 236,176 H 20 v 4 h 216 z" /></g></g></g><g
           id="g266"><g
             id="g268" /><g
             id="g278"><g
               style="opacity:0.5"
               id="g276"
               clip-path="url(#clipPath272)"><path
                 id="path274"
                 style="fill:#ffffff;fill-opacity:1;fill-rule:nonzero;stroke:none"
                 d="M 236,168 H 20 v 4 h 216 z" /></g></g></g><g
           id="g280"><g
             id="g282" /><g
             id="g292"><g
               style="opacity:0.5"
               id="g290"
               clip-path="url(#clipPath286)"><path
                 id="path288"
                 style="fill:#ffffff;fill-opacity:1;fill-rule:nonzero;stroke:none"
                 d="M 236,160 H 20 v 4 h 216 z" /></g></g></g><g
           id="g294"><g
             id="g296" /><g
             id="g306"><g
               style="opacity:0.5"
               id="g304"
               clip-path="url(#clipPath300)"><path
                 id="path302"
                 style="fill:#ffffff;fill-opacity:1;fill-rule:nonzero;stroke:none"
                 d="M 236,152 H 20 v 4 h 216 z" /></g></g></g><g
           id="g308"><g
             id="g310" /><g
             id="g320"><g
               style="opacity:0.5"
               id="g318"
               clip-path="url(#clipPath314)"><path
                 id="path316"
                 style="fill:#ffffff;fill-opacity:1;fill-rule:nonzero;stroke:none"
                 d="M 236,144 H 20 v 4 h 216 z" /></g></g></g><g
           id="g322"><g
             id="g324" /><g
             id="g334"><g
               style="opacity:0.5"
               id="g332"
               clip-path="url(#clipPath328)"><path
                 id="path330"
                 style="fill:#ffffff;fill-opacity:1;fill-rule:nonzero;stroke:none"
                 d="M 236,136 H 20 v 4 h 216 z" /></g></g></g><g
           id="g336"><g
             id="g338" /><g
             id="g348"><g
               style="opacity:0.5"
               id="g346"
               clip-path="url(#clipPath342)"><path
                 id="path344"
                 style="fill:#ffffff;fill-opacity:1;fill-rule:nonzero;stroke:none"
                 d="M 236,128 H 20 v 4 h 216 z" /></g></g></g><g
           id="g350"><g
             id="g352" /><g
             id="g362"><g
               style="opacity:0.5"
               id="g360"
               clip-path="url(#clipPath356)"><path
                 id="path358"
                 style="fill:#ffffff;fill-opacity:1;fill-rule:nonzero;stroke:none"
                 d="M 236,120 H 20 v 4 h 216 z" /></g></g></g><g
           id="g364"><g
             id="g366" /><g
             id="g376"><g
               style="opacity:0.5"
               id="g374"
               clip-path="url(#clipPath370)"><path
                 id="path372"
                 style="fill:#ffffff;fill-opacity:1;fill-rule:nonzero;stroke:none"
                 d="M 236,112 H 20 v 4 h 216 z" /></g></g></g><g
           id="g378"><g
             id="g380" /><g
             id="g390"><g
               style="opacity:0.5"
               id="g388"
               clip-path="url(#clipPath384)"><path
                 id="path386"
                 style="fill:#ffffff;fill-opacity:1;fill-rule:nonzero;stroke:none"
                 d="M 236,104 H 20 v 4 h 216 z" /></g></g></g><g
           id="g392"><g
             id="g394" /><g
             id="g404"><g
               style="opacity:0.5"
               id="g402"
               clip-path="url(#clipPath398)"><path
                 id="path400"
                 style="fill:#ffffff;fill-opacity:1;fill-rule:nonzero;stroke:none"
                 d="M 236,96 H 20 v 4 h 216 z" /></g></g></g><g
           id="g406"><g
             id="g408" /><g
             id="g418"><g
               style="opacity:0.5"
               id="g416"
               clip-path="url(#clipPath412)"><path
                 id="path414"
                 style="fill:#ffffff;fill-opacity:1;fill-rule:nonzero;stroke:none"
                 d="M 236,88 H 20 v 4 h 216 z" /></g></g></g><g
           id="g420"><g
             id="g422" /><g
             id="g432"><g
               style="opacity:0.5"
               id="g430"
               clip-path="url(#clipPath426)"><path
                 id="path428"
                 style="fill:#ffffff;fill-opacity:1;fill-rule:nonzero;stroke:none"
                 d="M 236,80 H 20 v 4 h 216 z" /></g></g></g><g
           id="g434"><g
             id="g436" /><g
             id="g446"><g
               style="opacity:0.5"
               id="g444"
               clip-path="url(#clipPath440)"><path
                 id="path442"
                 style="fill:#ffffff;fill-opacity:1;fill-rule:nonzero;stroke:none"
                 d="M 236,72 H 20 v 4 h 216 z" /></g></g></g><g
           id="g448"><g
             id="g450" /><g
             id="g460"><g
               style="opacity:0.5"
               id="g458"
               clip-path="url(#clipPath454)"><path
                 id="path456"
                 style="fill:#ffffff;fill-opacity:1;fill-rule:nonzero;stroke:none"
                 d="M 236,64 H 20 v 4 h 216 z" /></g></g></g><g
           id="g462"><g
             id="g464" /><g
             id="g474"><g
               style="opacity:0.5"
               id="g472"
               clip-path="url(#clipPath468)"><path
                 id="path470"
                 style="fill:#ffffff;fill-opacity:1;fill-rule:nonzero;stroke:none"
                 d="M 236,216 H 20 v 4 h 216 z" /></g></g></g><path
           id="path476"
           style="fill:#595959;fill-opacity:1;fill-rule:nonzero;stroke:none"
           d="m 208,204 h -12 v 12 h 12 z" /><path
           id="path478"
           style="fill:#ffffff;fill-opacity:1;fill-rule:nonzero;stroke:none"
           d="M 176,220 H 40 v -68 h 136 z m -2,-66 H 42 v 64 h 132 z" /></g></g></g></svg>