<svg xmlns="http://www.w3.org/2000/svg" xml:space="preserve" width="330.667" height="288" viewBox="0 0 330.667 288"><defs><clipPath id="a" clipPathUnits="userSpaceOnUse"><path d="M0 256h256V0H0Z"/></clipPath><clipPath id="b" clipPathUnits="userSpaceOnUse"><path d="M4 236h248V20H4Z"/></clipPath><clipPath id="c" clipPathUnits="userSpaceOnUse"><path d="M0 256h256V0H0Z"/></clipPath><clipPath id="d" clipPathUnits="userSpaceOnUse"><path d="M20 212h216v-4H20Z"/></clipPath><clipPath id="e" clipPathUnits="userSpaceOnUse"><path d="M20 204h216v-4H20Z"/></clipPath><clipPath id="f" clipPathUnits="userSpaceOnUse"><path d="M20 196h216v-4H20Z"/></clipPath><clipPath id="g" clipPathUnits="userSpaceOnUse"><path d="M20 188h216v-4H20Z"/></clipPath><clipPath id="h" clipPathUnits="userSpaceOnUse"><path d="M20 180h216v-4H20Z"/></clipPath><clipPath id="i" clipPathUnits="userSpaceOnUse"><path d="M20 172h216v-4H20Z"/></clipPath><clipPath id="j" clipPathUnits="userSpaceOnUse"><path d="M20 164h216v-4H20Z"/></clipPath><clipPath id="k" clipPathUnits="userSpaceOnUse"><path d="M20 156h216v-4H20Z"/></clipPath><clipPath id="l" clipPathUnits="userSpaceOnUse"><path d="M20 148h216v-4H20Z"/></clipPath><clipPath id="m" clipPathUnits="userSpaceOnUse"><path d="M20 140h216v-4H20Z"/></clipPath><clipPath id="n" clipPathUnits="userSpaceOnUse"><path d="M20 132h216v-4H20Z"/></clipPath><clipPath id="o" clipPathUnits="userSpaceOnUse"><path d="M20 124h216v-4H20Z"/></clipPath><clipPath id="p" clipPathUnits="userSpaceOnUse"><path d="M20 116h216v-4H20Z"/></clipPath><clipPath id="q" clipPathUnits="userSpaceOnUse"><path d="M20 108h216v-4H20Z"/></clipPath><clipPath id="r" clipPathUnits="userSpaceOnUse"><path d="M20 100h216v-4H20Z"/></clipPath><clipPath id="s" clipPathUnits="userSpaceOnUse"><path d="M20 92h216v-4H20Z"/></clipPath><clipPath id="t" clipPathUnits="userSpaceOnUse"><path d="M20 84h216v-4H20Z"/></clipPath><clipPath id="u" clipPathUnits="userSpaceOnUse"><path d="M20 76h216v-4H20Z"/></clipPath><clipPath id="v" clipPathUnits="userSpaceOnUse"><path d="M20 68h216v-4H20Z"/></clipPath><clipPath id="w" clipPathUnits="userSpaceOnUse"><path d="M20 220h216v-4H20Z"/></clipPath></defs><g clip-path="url(#a)" transform="matrix(1.33333 0 0 -1.33333 -5.333 314.667)"><g clip-path="url(#b)" style="opacity:.5"><path d="M0 0h-240v-192h77.483a26 26 0 0 1-2.483-.865c-6.091-2.514-7-6.802-7-9.135 0-3.284 1.649-7.686 9.505-10.008 2.833-.837 6.723-1.568 11.561-2.173C-141.549-215.354-129.143-216-116-216s25.549.646 34.934 1.819c4.837.605 8.728 1.336 11.561 2.173C-61.649-209.686-60-205.284-60-202c0 2.333-.909 6.621-7 9.135q-1.104.456-2.483.865H8V0z" style="fill:#fff;fill-opacity:1;fill-rule:nonzero;stroke:none" transform="translate(244 236)"/></g></g><path d="M148 36h-40v20h40z" style="fill:#191919;fill-opacity:1;fill-rule:nonzero;stroke:none" transform="matrix(1.33333 0 0 -1.33333 -5.333 314.667)"/><path d="M244 52H12v176h232z" style="fill:#262626;fill-opacity:1;fill-rule:nonzero;stroke:none" transform="matrix(1.33333 0 0 -1.33333 -5.333 314.667)"/><path d="M240 56H16v168h224z" style="fill:#191919;fill-opacity:1;fill-rule:nonzero;stroke:none" transform="matrix(1.33333 0 0 -1.33333 -5.333 314.667)"/><g clip-path="url(#c)" transform="matrix(1.33333 0 0 -1.33333 -5.333 314.667)"><path d="M0 0c0-3.313-21.49-6-48-6s-48 2.687-48 6 21.49 6 48 6S0 3.313 0 0" style="fill:#262626;fill-opacity:1;fill-rule:nonzero;stroke:none" transform="translate(176 34)"/><path d="M0 0h2a1 1 0 1 1 0 2H0a1 1 0 1 1 0-2" style="fill:#0f0;fill-opacity:1;fill-rule:nonzero;stroke:none" transform="translate(237 53)"/><path d="M0 0h2a1 1 0 1 1 0 2H0a1 1 0 1 1 0-2" style="fill:#191919;fill-opacity:1;fill-rule:nonzero;stroke:none" transform="translate(229 53)"/><path d="M0 0h2a1 1 0 1 1 0 2H0a1 1 0 1 1 0-2" style="fill:#191919;fill-opacity:1;fill-rule:nonzero;stroke:none" transform="translate(221 53)"/><path d="M236 60H20v160h216z" style="fill:#00007b;fill-opacity:1;fill-rule:nonzero;stroke:none"/><path d="M0 0h-4v-4h-8v4h-4v-4h-40v4h-8v-4h-8v4h-4v24h4v4h8v-4h4v4h44v-4h8v4h4v-4h4Zm8-4v32H4v4H0v4h-72v4h-32v-76H76v32z" style="fill:#007b00;fill-opacity:1;fill-rule:nonzero;stroke:none" transform="translate(152 96)"/><path d="M56 60H28v76h28z" style="fill:#cca37a;fill-opacity:1;fill-rule:nonzero;stroke:none"/><path d="M128 96h-28v24h28z" style="fill:#b3b3b3;fill-opacity:1;fill-rule:nonzero;stroke:none"/><path d="M108 112h-4v4h4zm8 0h-4v4h4zm8 0h-4v4h4zm0-4h-20v4h20zm-20-8h4v8h-4zm16 0h4v8h-4zm0 0h-12v4h12zm-4 4h-4v4h4z" style="fill:#fff;fill-opacity:1;fill-rule:nonzero;stroke:none"/><path d="M120 60h-12v40h12z" style="fill:#b3b3b3;fill-opacity:1;fill-rule:nonzero;stroke:none"/><path d="M116 88h-4v4h4z" style="fill:#595959;fill-opacity:1;fill-rule:nonzero;stroke:none"/><path d="M116 80h-4v4h4z" style="fill:#0f0;fill-opacity:1;fill-rule:nonzero;stroke:none"/><path d="M116 72h-4v4h4z" style="fill:red;fill-opacity:1;fill-rule:nonzero;stroke:none"/><path d="M116 64h-4v4h4z" style="fill:#ff0;fill-opacity:1;fill-rule:nonzero;stroke:none"/><path d="M76 80h-4v4h4zM60 92h-4v4h4zM36 64h-4v4h4zm8 12h-4v4h4zm-8 8h-4v4h4zm8 12h-4v4h4zm-4 16h-4v4h4zm-4 12h-4v4h4zm8 4h-4v4h4zm52-64h-4v4h4zm-4 12h-4v4h4zm-28-8h-4v4h4zm100 4h-4v4h4zm20 12h-4v4h4zm20-16h-4v4h4zm8 12h-4v4h4zm-68 0h-4v4h4zm-4-16h-4v4h4z" style="fill:#404040;fill-opacity:1;fill-rule:nonzero;stroke:none"/><path d="M96 92h-8v4h8zm-20 0h4v4h-4zm4 28h-4v4h4zm12 0h-4v4h4zm52 0h-8v4h8zm8 0h-4v4h4zm0-28h-4v4h4zm-12 0h-4v4h4zm16 4h-4v24h4zm-20 28H92v4h44zm12 0h-4v4h4zm-60 0h-8v4h8zM76 96h-4v24h4zm12-8h-8v4h8zm60 0h-8v4h8zm-12 0h-16v4h16zm-28 0H96v4h12z" style="fill:#cca37a;fill-opacity:1;fill-rule:nonzero;stroke:none"/><path d="M0 0v4h-4v-8h68v4Z" style="fill:#cca37a;fill-opacity:1;fill-rule:nonzero;stroke:none" transform="translate(164 96)"/><path d="M216 220h-36v-68h36zm-2-66h-32v64h32zm2-6H40v-12h176zm-2-10H42v8h172z" style="fill:#fff;fill-opacity:1;fill-rule:nonzero;stroke:none"/><path d="M176 152H40v68h136z" style="fill:#0000b8;fill-opacity:1;fill-rule:nonzero;stroke:none"/><path d="M208 188h-12v12h12z" style="fill:#0f0;fill-opacity:1;fill-rule:nonzero;stroke:none"/><path d="M208 172h-12v12h12z" style="fill:red;fill-opacity:1;fill-rule:nonzero;stroke:none"/><path d="M208 156h-12v12h12z" style="fill:#ff0;fill-opacity:1;fill-rule:nonzero;stroke:none"/><path d="M0 0v4h-4v4h-4v4h-4V0h-8v4h4v8h-4V8h-4V0h-8v12h-4V8h-4V4h-4V0h-4v-20h4v4h4v4h16v-4h-4v-4h8v4h4v8h12v-4h4v-8h4V0Z" style="fill:gray;fill-opacity:1;fill-rule:nonzero;stroke:none" transform="translate(96 200)"/><path d="M64 176h4v4h-4zm-4-4h4v4h-4z" style="fill:gray;fill-opacity:1;fill-rule:nonzero;stroke:none"/><g clip-path="url(#d)" style="opacity:.5"><path d="M236 208H20v4h216z" style="fill:#fff;fill-opacity:1;fill-rule:nonzero;stroke:none"/></g><g clip-path="url(#e)" style="opacity:.5"><path d="M236 200H20v4h216z" style="fill:#fff;fill-opacity:1;fill-rule:nonzero;stroke:none"/></g><g clip-path="url(#f)" style="opacity:.5"><path d="M236 192H20v4h216z" style="fill:#fff;fill-opacity:1;fill-rule:nonzero;stroke:none"/></g><g clip-path="url(#g)" style="opacity:.5"><path d="M236 184H20v4h216z" style="fill:#fff;fill-opacity:1;fill-rule:nonzero;stroke:none"/></g><g clip-path="url(#h)" style="opacity:.5"><path d="M236 176H20v4h216z" style="fill:#fff;fill-opacity:1;fill-rule:nonzero;stroke:none"/></g><g clip-path="url(#i)" style="opacity:.5"><path d="M236 168H20v4h216z" style="fill:#fff;fill-opacity:1;fill-rule:nonzero;stroke:none"/></g><g clip-path="url(#j)" style="opacity:.5"><path d="M236 160H20v4h216z" style="fill:#fff;fill-opacity:1;fill-rule:nonzero;stroke:none"/></g><g clip-path="url(#k)" style="opacity:.5"><path d="M236 152H20v4h216z" style="fill:#fff;fill-opacity:1;fill-rule:nonzero;stroke:none"/></g><g clip-path="url(#l)" style="opacity:.5"><path d="M236 144H20v4h216z" style="fill:#fff;fill-opacity:1;fill-rule:nonzero;stroke:none"/></g><g clip-path="url(#m)" style="opacity:.5"><path d="M236 136H20v4h216z" style="fill:#fff;fill-opacity:1;fill-rule:nonzero;stroke:none"/></g><g clip-path="url(#n)" style="opacity:.5"><path d="M236 128H20v4h216z" style="fill:#fff;fill-opacity:1;fill-rule:nonzero;stroke:none"/></g><g clip-path="url(#o)" style="opacity:.5"><path d="M236 120H20v4h216z" style="fill:#fff;fill-opacity:1;fill-rule:nonzero;stroke:none"/></g><g clip-path="url(#p)" style="opacity:.5"><path d="M236 112H20v4h216z" style="fill:#fff;fill-opacity:1;fill-rule:nonzero;stroke:none"/></g><g clip-path="url(#q)" style="opacity:.5"><path d="M236 104H20v4h216z" style="fill:#fff;fill-opacity:1;fill-rule:nonzero;stroke:none"/></g><g clip-path="url(#r)" style="opacity:.5"><path d="M236 96H20v4h216z" style="fill:#fff;fill-opacity:1;fill-rule:nonzero;stroke:none"/></g><g clip-path="url(#s)" style="opacity:.5"><path d="M236 88H20v4h216z" style="fill:#fff;fill-opacity:1;fill-rule:nonzero;stroke:none"/></g><g clip-path="url(#t)" style="opacity:.5"><path d="M236 80H20v4h216z" style="fill:#fff;fill-opacity:1;fill-rule:nonzero;stroke:none"/></g><g clip-path="url(#u)" style="opacity:.5"><path d="M236 72H20v4h216z" style="fill:#fff;fill-opacity:1;fill-rule:nonzero;stroke:none"/></g><g clip-path="url(#v)" style="opacity:.5"><path d="M236 64H20v4h216z" style="fill:#fff;fill-opacity:1;fill-rule:nonzero;stroke:none"/></g><g clip-path="url(#w)" style="opacity:.5"><path d="M236 216H20v4h216z" style="fill:#fff;fill-opacity:1;fill-rule:nonzero;stroke:none"/></g><path d="M208 204h-12v12h12z" style="fill:#595959;fill-opacity:1;fill-rule:nonzero;stroke:none"/><path d="M176 220H40v-68h136zm-2-66H42v64h132z" style="fill:#fff;fill-opacity:1;fill-rule:nonzero;stroke:none"/></g></svg>