<svg xmlns="http://www.w3.org/2000/svg" xml:space="preserve" viewBox="0 0 256 256"><path d="M246.104 80.282c-1.863-.508-46.373-12.438-110.517-12.438q-.978 0-1.959.004l-.004-.143-.074-2a9 9 0 0 0-.049-.642l-.027-.719q.014-.318.002-.639l-.074-2a8 8 0 0 0-.052-.661l-.026-.681q.015-.327.003-.657l-.074-2a8 8 0 0 0-.054-.681l-.003-.087A9.97 9.97 0 0 0 136 50V40c0-3.428-1.434-6.535-3.764-8.726l-.242-6.465a8 8 0 0 0-7.206-7.662A241 241 0 0 0 101.152 16c-29.313-.001-50.199 5.085-51.074 5.302a8 8 0 0 0-.584.168c-3.611 1.191-6.088 4.102-7.902 7.241C36.025 30.562 32 35.82 32 42v8c0 1.547.349 3.015.978 4.326-2.768 11.616-5.573 26.488-8.361 44.331C11.982 108.013 4 126.088 4 146c0 17.358 5.921 33.233 16 43.335v26.27C20 229.056 30.944 240 44.395 240H95.21c22.492 0 40.79-18.298 40.79-40.79v-48.613a313 313 0 0 0 27.843 1.397h.054a319 319 0 0 0 30.442-1.298c3.832-.349 7.682-.77 11.444-1.253l.021-.003a330 330 0 0 0 2.685-.358c1.859-.255 3.702-.526 5.479-.803l.042-.007a310 310 0 0 0 8.242-1.411c.872-.162 1.727-.324 2.554-.486h.001c.948-.186 1.863-.371 2.754-.555l.027-.006q1.272-.264 2.465-.522l.041-.009a248 248 0 0 0 3.969-.896l.029-.007c2.19-.514 4.302-1.042 6.28-1.571l.028-.007q1.49-.4 2.619-.723l.032-.009c.767-.219 1.411-.409 1.918-.562l.059-.018.447-.136.017-.005c.683-.211 1.035-.328 1.035-.328a8.02 8.02 0 0 0 5.476-7.591V88a8.005 8.005 0 0 0-5.899-7.718" style="opacity:.5;fill:#fff"/><path d="M36 124.134s186.483-3.822 208 7.866V88s-92-25.088-200.828-3.193z" style="fill:#333"/><path d="M124 96.26s107.586 4.014 120-8.26v45.428s-49.655 16.519-115.862 8.26z" style="fill:#4d4d4d"/><path d="M161.575 96.887q-1.503 0-2.975-.005l46.164 44.625q1.324-.17 2.61-.348zm-18.788-.161a955 955 0 0 1-3.026-.054l48.126 46.522q1.39-.1 2.752-.211zm-12.7-.278a709 709 0 0 1-3.062-.089l49.096 47.459q1.44-.049 2.857-.11zm18.998.365c-1.027-.012-2.027-.024-3.009-.038l47.538 45.953q1.367-.125 2.704-.258zm-25.055-.219.287 3.148 45.748 44.223q1.467-.021 2.913-.056zm31.318.273q-1.519-.009-2.992-.022l46.88 45.318q1.345-.147 2.656-.303zm-18.893-.263q-1.61-.035-3.043-.07l48.648 47.027q1.414-.076 2.802-.163zm-9.428 32.886.287 3.148 10.435 10.087q1.638.15 3.261.281zm-2.397-26.317.287 3.148 38.971 37.672q1.496.008 2.972.002zM244 89.436V88c-.23.228-.503.448-.798.665zm-117.572 33.475.287 3.148 17.804 17.21q1.599.11 3.18.203zm-.6-6.579.287 3.148 25.008 24.175q1.562.073 3.106.132zm-.599-6.579.287 3.148 32.062 30.993q1.528.04 3.038.065zm5.567 32.252q1.684.195 3.352.37l-6.522-6.304.287 3.148zm49.226-45.286q-1.461.028-2.916.052l43.681 42.225a271 271 0 0 0 2.481-.472zm-12.258.151q-1.49.009-2.957.013l45.388 43.875a308 308 0 0 0 2.568-.388zm63.953-4.18a97 97 0 0 1-2.486.468L244 107.435v-2.871zm-10.699 1.658q-1.307.156-2.66.3L244 119.436v-2.871zm20.165-4.507a23 23 0 0 1-2.075.865l4.892 4.73v-2.871zm-4.497 1.653c-.736.212-1.522.415-2.338.612l9.652 9.33v-2.871zm-21.258 3.451q-1.343.126-2.72.242L244 125.436v-2.871zm11.038-1.33c-.84.129-1.706.251-2.587.371L244 113.436v-2.871zm-40.385 2.961q-1.447.04-2.893.074l42.758 41.333q1.258-.26 2.436-.516zm-12.166.24q-1.476.018-2.938.031l44.559 43.074c.857-.143 1.701-.286 2.524-.431zm18.173-.433q-1.431.052-2.868.099l41.792 40.399q1.251-.287 2.39-.56zm17.63-.958q-1.37.103-2.766.198L244 131.435v-2.871zm-11.681.709q-1.414.067-2.839.127l40.783 39.423q1.265-.322 2.34-.609zm5.879-.317q-1.393.084-2.804.16l39.728 38.403c.98-.279 1.747-.509 2.275-.672z" style="fill:#404040"/><path d="M40.015 144.627H76C75.27 119.802 61.234 100 44.018 100 26.335 100 12 120.888 12 146.655c0 21.712 10.18 39.948 23.963 45.151 1.962.741 4.052-.737 4.052-2.858z" style="fill:#262626"/><path d="M95.21 232H44.395C35.34 232 28 224.66 28 215.605V148h100v51.21c0 18.109-14.681 32.79-32.79 32.79" style="fill:#9bc2dd"/><path d="M28 148v39.036c2.466 2.08 5.137 3.703 7.963 4.77 1.962.741 4.052-.737 4.052-2.858V148z" style="fill:#2c8bbf"/><path d="M127.85 128H28.505c-.329 2.545-.505 4-.505 4v8h100v-8z" style="fill:#333"/><path d="M28 136h100v12H28zm96-110.891L128 132H28S40 33.026 52 29.067c0 0 32-7.917 72-3.958" style="fill:#404040"/><path d="M125.259 58H65a1 1 0 0 0 0 2h60.333zm.297 8H73a1 1 0 0 0 0 2h52.63zm-.149-4H69a1 1 0 0 0 0 2h56.482zM44 76s11.294 20.8 30.118 20.8S108 128 108 128s-18.824-26-33.882-26S44 76 44 76" style="fill:#333"/><path d="M126 52H42a2 2 0 0 1-2-2v-8a6 6 0 0 1 6-6h78a4 4 0 0 1 4 4v10a2 2 0 0 1-2 2" style="fill:red"/></svg>