<svg xmlns="http://www.w3.org/2000/svg" xml:space="preserve" viewBox="0 0 256 256"><path d="M200.967 15.864C188.967 13.51 160.583 12 128 12q-1.997 0-4 .008V4H56v11.682q-.5.09-.967.182C42.308 16.011 32 26.472 32 39.31v185.379c0 12.838 10.308 23.299 23.033 23.447C67.033 250.49 95.418 252 128 252s60.967-1.51 72.967-3.864C213.692 247.989 224 237.528 224 224.69V39.31c0-12.838-10.307-23.3-23.033-23.446" style="opacity:.5;fill:#fff"/><path d="M64 12h52v12H64z" style="fill:#c4c0aa"/><path d="M200.696 23.862h-.545C189.644 21.612 161.315 20 128 20s-61.644 1.612-72.15 3.862h-.545C46.865 23.862 40 30.792 40 39.31v185.38c0 8.518 6.865 15.448 15.304 15.448h.545C66.356 242.388 94.685 244 128 244s61.644-1.612 72.15-3.862h.545c8.439 0 15.304-6.93 15.304-15.448V39.31c.001-8.518-6.864-15.448-15.303-15.448" style="fill:#a6a390"/><path d="M64 12h20v12H64z" style="fill:#d9d4bc"/><path d="M200.696 24H194v4h-4v-4h-4v4h-4v-4h-4v4h-4v-4h-4v4h-4v-4h-4v4h-4v-4h-4v4h-4v-4h-4v4h-4v-4h-4v4h-4v-4h-4v4h-4v-4h-4v4h-4v-4h-4v4h-4v-4h-4v4h-4v-4h-4v4h-4v-4h-4v4h-4v-4h-4v4h-4v-4h-4v4h-4v-4h-4v4h-4v-4h-6.696C46.865 24 40 30.921 40 39.429v185.143C40 233.079 46.865 240 55.304 240h145.391c8.439 0 15.304-6.921 15.304-15.429V39.429C216 30.921 209.135 24 200.696 24" style="fill:#c4c0aa"/><path d="M200.495 236H55.505C49.151 236 44 230.849 44 224.495V39.505C44 33.151 49.151 28 55.505 28h144.99C206.849 28 212 33.151 212 39.505v184.99c0 6.354-5.151 11.505-11.505 11.505" style="fill:#d9d4bc"/><path d="M60 28h2v208h-2zm134 0h2v208h-2z" style="fill:#a6a390"/><path d="M192.6 200H63.4c-6.296 0-11.4-5.104-11.4-11.4V59.4C52 53.104 57.104 48 63.4 48h129.2c6.296 0 11.4 5.104 11.4 11.4v129.2c0 6.296-5.104 11.4-11.4 11.4" style="fill:#999"/><path d="M186 163h-16c-1.654 0-3 1.346-3 3v20c0 1.654 1.346 3 3 3h16c1.654 0 3-1.346 3-3v-20c0-1.654-1.346-3-3-3m-100 0H70c-1.654 0-3 1.346-3 3v20c0 1.654 1.346 3 3 3h16c1.654 0 3-1.346 3-3v-20c0-1.654-1.346-3-3-3" style="fill:#a6a6a6"/><path d="M186 164c1.103 0 2 .897 2 2v20c0 1.103-.897 2-2 2h-16c-1.103 0-2-.897-2-2v-20c0-1.103.897-2 2-2zm-100 0c1.103 0 2 .897 2 2v20c0 1.103-.897 2-2 2H70c-1.103 0-2-.897-2-2v-20c0-1.103.897-2 2-2z" style="fill:#737373"/><path d="M86 164c1.103 0 2 .748 2 1.667v16.667c0 .919-.897 1.667-2 1.667H70c-1.103 0-2-.748-2-1.667v-16.667c0-.919.897-1.667 2-1.667z" style="fill:gray"/><path d="M152.297 188h-48.593a3.713 3.713 0 0 1-3.703-3.703v-16.593a3.713 3.713 0 0 1 3.703-3.703h48.593a3.713 3.713 0 0 1 3.703 3.703v16.593a3.713 3.713 0 0 1-3.703 3.703" style="fill:#a6a6a6"/><path d="M182.203 104H73.797c-5.962 0-10.841 4.725-10.841 10.5v3.5c0 5.775 4.878 10.5 10.841 10.5l42.548 3.17q4.428.33 8.869.33h11.995c3.495 0 6.988-.153 10.469-.46l34.525-3.04c5.962 0 10.841-4.725 10.841-10.5v-3.5c-.001-5.775-4.879-10.5-10.841-10.5" style="fill:#8c8c8c"/><path d="M181.03 104c3.843 0 6.97 3.589 6.97 8v4c0 4.411-3.127 8-6.97 8h-.17l-.169.017-33.778 3.474a97 97 0 0 1-9.904.508h-11.736a97 97 0 0 1-8.39-.365l-41.628-3.623-.142-.011h-.143c-3.843 0-6.97-3.589-6.97-8v-4c0-4.411 3.127-8 6.97-8z" style="fill:#666"/><path d="M185.391 58.435c5.274 0 9.565 4.291 9.565 9.565s-4.291 9.565-9.565 9.565-9.565-4.291-9.565-9.565 4.291-9.565 9.565-9.565m0-1.913c-6.339 0-11.478 5.139-11.478 11.478s5.139 11.478 11.478 11.478S196.869 74.339 196.869 68s-5.138-11.478-11.478-11.478" style="fill:#8c8c8c"/><path d="M186.234 231.826h-8.469a1.77 1.77 0 0 1-1.766-1.766v-.295c0-.971.795-1.766 1.766-1.766h8.469c.971 0 1.766.795 1.766 1.766v.295a1.77 1.77 0 0 1-1.766 1.766" style="fill:#b80000"/><path d="M86 180H70a2 2 0 0 1-2-2v-2h20v2a2 2 0 0 1-2 2" style="fill:#737373"/><path d="M88 176H68v-2a2 2 0 0 1 2-2h16a2 2 0 0 1 2 2z" style="fill:#8c8c8c"/><path d="M177.739 124.321V104h-1.913v20.518zm-97.577.118V104h-1.913v20.273zm72.708 2.44 1.913-.197v-8.943h-49.74v8.866l1.914.166v-7.119h45.913z" style="fill:#595959"/></svg>