<svg xmlns="http://www.w3.org/2000/svg" xml:space="preserve" width="330.667" height="298.667" viewBox="0 0 330.667 298.667"><defs><clipPath id="a" clipPathUnits="userSpaceOnUse"><path d="M0 256h256V0H0Z"/></clipPath><clipPath id="b" clipPathUnits="userSpaceOnUse"><path d="M4 240h248V16H4Z"/></clipPath></defs><g clip-path="url(#a)" transform="matrix(1.33333 0 0 -1.33333 -5.333 320)"><g clip-path="url(#b)" style="opacity:.5"><path d="M0 0h-216c-8.822 0-16-7.178-16-16v-188c0-8.719 7.009-15.831 15.688-15.997l55.527-3.702c2.998-.199 6.042-.301 9.047-.301h87.476c3.005 0 6.049.102 9.047.301l55.527 3.702C8.991-219.831 16-212.719 16-204v188C16-7.178 8.822 0 0 0" style="fill:#fff;fill-opacity:1;fill-rule:nonzero;stroke:none" transform="translate(236 240)"/></g><path d="m0 0-55.747-3.717A129 129 0 0 0-64.262-4h-87.476q-4.262 0-8.514.283L-216 0c-4.4 0-8 3.6-8 8v188c0 4.4 3.6 8 8 8H0c4.4 0 8-3.6 8-8V8c0-4.4-3.6-8-8-8" style="fill:#d9d9d9;fill-opacity:1;fill-rule:nonzero;stroke:none" transform="translate(236 28)"/><path d="M0 0h-84v-4h-12v-14c0-3.309 2.691-6 6-6H6c3.309 0 6 2.691 6 6v14H0v2z" style="fill:#ccc;fill-opacity:1;fill-rule:nonzero;stroke:none" transform="translate(170 226)"/><path d="M0 0v-4h12v-12a4 4 0 0 0-4-4h-96a4 4 0 0 0-4 4v12h12v4z" style="fill:gray;fill-opacity:1;fill-rule:nonzero;stroke:none" transform="translate(168 224)"/><path d="M0 0h-60a2 2 0 0 0 0 4H0a2 2 0 0 0 0-4" style="fill:#737373;fill-opacity:1;fill-rule:nonzero;stroke:none" transform="translate(158 212)"/><path d="M0 0c-25.773 0-57.986-7.951-60.096-8.717C-64.707-10.392-68-14.811-68-20v-25.352c0-7.096.295-14.188.884-21.259L-64-104h.157C-61.645-119.635-24-132 0-132s61.645 12.365 63.843 28H64l3.115 37.389c.59 7.071.885 14.163.885 21.259V-20c0 5.245-3.364 9.703-8.053 11.335C57.926-7.96 25.966 0 0 0m0-2c25.435 0 57.384-7.89 59.29-8.553A10.01 10.01 0 0 0 66-20v-25.352c0-7.01-.295-14.107-.877-21.093L62.16-102h-.056l-.242-1.722c-.883-6.282-9.086-12.946-22.504-18.283C26.959-126.937 11.878-130 0-130s-26.958 3.063-39.358 7.995c-13.418 5.337-21.621 12.001-22.504 18.283l-.242 1.722h-.056l-2.963 35.555A255 255 0 0 0-66-45.352V-20c0 4.193 2.647 7.972 6.586 9.403C-57.796-10.01-25.79-2 0-2" style="fill:#ccc;fill-opacity:1;fill-rule:nonzero;stroke:none" transform="translate(128 184)"/><path d="m0 0-10.069-36.921a8 8 0 0 0-9.15-5.767l-31.103 5.656A64 64 0 0 1-61.771-36h-12.458c-3.839 0-7.671-.346-11.449-1.032l-31.103-5.656a8.003 8.003 0 0 0-9.15 5.767L-136 0h-2.073l.143-.526 10.07-36.922a10.02 10.02 0 0 1 9.641-7.369c.599 0 1.203.054 1.796.162L-85.32-39c3.65.664 7.382 1 11.091 1h12.458c3.709 0 7.441-.336 11.091-1l31.104-5.655a10 10 0 0 1 1.795-.162c4.493 0 8.458 3.03 9.641 7.369L1.93-.526 2.073 0Z" style="fill:#ccc;fill-opacity:1;fill-rule:nonzero;stroke:none" transform="translate(196 232)"/><path d="M0 0h-8v16H4V4a4 4 0 0 0-4-4" style="fill:#737373;fill-opacity:1;fill-rule:nonzero;stroke:none" transform="translate(176 204)"/><path d="M0 0h-8a4 4 0 0 0-4 4v12H0Z" style="fill:#737373;fill-opacity:1;fill-rule:nonzero;stroke:none" transform="translate(88 204)"/><path d="M0 0c0-4.418-26.863-8-60-8s-60 3.582-60 8 26.863 8 60 8S0 4.418 0 0" style="fill:#ccc;fill-opacity:1;fill-rule:nonzero;stroke:none" transform="translate(188 120)"/><path d="M0 0c-16.401-1.992-28.343-8.082-28.365-15.291q1.983-.019 3.999-.02c33.137 0 60 3.582 60 8C35.634-4.05 20.991-1.246 0 0" style="fill:#666;fill-opacity:1;fill-rule:nonzero;stroke:none" transform="translate(152.366 127.31)"/><path d="M0 0c-1.33 0-1.809 1.399-.886 2.589l3.431 4.422C3.015 7.617 3.74 8 4.418 8c1.33 0 1.809-1.399.886-2.589L1.873.989C1.403.383.678 0 0 0" style="fill:#ccc;fill-opacity:1;fill-rule:nonzero;stroke:none" transform="translate(125.791 60)"/><path d="M0 0c-1.33 0-1.809 1.399-.886 2.589l3.431 4.422C3.016 7.617 3.74 8 4.418 8c1.33 0 1.809-1.399.886-2.589L1.873.989C1.402.383.678 0 0 0" style="fill:#ccc;fill-opacity:1;fill-rule:nonzero;stroke:none" transform="translate(133.791 60)"/><path d="M0 0c-1.33 0-1.809 1.399-.886 2.589l3.431 4.422C3.015 7.617 3.74 8 4.418 8c1.33 0 1.809-1.399.886-2.589L1.873.989C1.403.383.678 0 0 0" style="fill:#ccc;fill-opacity:1;fill-rule:nonzero;stroke:none" transform="translate(117.791 60)"/><path d="M32 188H12v-2h20zm212 0h-20v-2h20z" style="fill:#ccc;fill-opacity:1;fill-rule:nonzero;stroke:none"/><path d="M0 0c-7.978 0-21.923 23.414-24.578 28H-48v2h24.58l.288-.504C-18.761 21.849-6.085 2 0 2Z" style="fill:#ccc;fill-opacity:1;fill-rule:nonzero;stroke:none" transform="translate(60 40)"/><path d="M0 0a8 8 0 1 0-16 0A8 8 0 0 0 0 0" style="fill:#666;fill-opacity:1;fill-rule:nonzero;stroke:none" transform="translate(72 40)"/><path d="M0 0c-5.514 0-10-4.486-10-10s4.486-10 10-10 10 4.486 10 10S5.514 0 0 0m0-2a8 8 0 1 0 0-16A8 8 0 0 0 0-2" style="fill:#ccc;fill-opacity:1;fill-rule:nonzero;stroke:none" transform="translate(64 50)"/><path d="M0 0c7.978 0 21.923 23.414 24.578 28H48v2H23.42l-.288-.504C18.761 21.849 6.085 2 0 2Z" style="fill:#ccc;fill-opacity:1;fill-rule:nonzero;stroke:none" transform="translate(196 40)"/><path d="M0 0a8 8 0 1 1 16 0A8 8 0 0 1 0 0" style="fill:#666;fill-opacity:1;fill-rule:nonzero;stroke:none" transform="translate(184 40)"/><path d="M0 0c-5.514 0-10-4.486-10-10s4.486-10 10-10 10 4.486 10 10S5.514 0 0 0m0-2a8 8 0 1 0 0-16A8 8 0 0 0 0-2" style="fill:#ccc;fill-opacity:1;fill-rule:nonzero;stroke:none" transform="translate(192 50)"/><path d="m0 0-4-64c0-25.348-11.27-48.188-29.296-64.246-.881.15-1.78.246-2.704.246-7.813 0-14.308-5.603-15.71-13.007C-64.981-148.009-80.25-152-96.5-152c-15.909 0-30.782 3.822-43.723 10.552C-141.447-133.827-148.034-128-156-128a16 16 0 0 1-3.159-.315C-176.971-112.254-188-89.385-188-64l-4 64h-2.004l.008-.125L-190-64.063c.009-12.693 2.674-24.947 7.922-36.422 5.09-11.13 12.35-20.994 21.58-29.316l.746-.673.986.198c.914.183 1.845.276 2.766.276a13.92 13.92 0 0 0 13.803-11.766l.159-.993.893-.464C-127.587-150.273-112.149-154-96.5-154c15.993 0 31.805 3.881 45.723 11.224l.852.45.18.946C-48.496-134.786-42.716-130-36-130c.736 0 1.511-.071 2.367-.217l.949-.162.718.64c9.355 8.333 16.72 18.186 21.891 29.288C-4.726-88.967-2.009-76.725-2-64.063L1.996-.125 2.004 0Z" style="fill:#ccc;fill-opacity:1;fill-rule:nonzero;stroke:none" transform="translate(224 188)"/><path d="M0 0q-.185 0-.374-.023l-11.403-1.425a26 26 0 0 0-6.45 0L-29.63-.023a3 3 0 0 1-.859-.016c-1.477-.235-2.513-1.6-2.513-3.096v-5.171c0-1.595.938-3.007 2.351-3.644a22 22 0 0 0 1.857-.933c2.65-1.516 9.211-4.984 13.792-4.984S-3.86-14.399-1.21-12.883c.602.344 1.226.648 1.857.933a3.99 3.99 0 0 1 2.351 3.644V-3c0 1.654-1.345 3-2.998 3" style="fill:#ccc;fill-opacity:1;fill-rule:nonzero;stroke:none" transform="translate(143.002 41.867)"/><path d="m0 0-7.694 1.924a2 2 0 0 0-1.515 1.94V9.17a1 1 0 0 0 1.124.992L3.318 8.737a28 28 0 0 1 6.946 0l11.403 1.425a1 1 0 0 0 1.124-.992V3.864a2 2 0 0 0-1.515-1.94L13.582 0A28 28 0 0 0 0 0" style="fill:#a12868;fill-opacity:1;fill-rule:nonzero;stroke:none" transform="translate(121.209 29.697)"/></g></svg>