<?xml version="1.0" encoding="UTF-8" standalone="no"?>
<svg
   xmlns:dc="http://purl.org/dc/elements/1.1/"
   xmlns:cc="http://creativecommons.org/ns#"
   xmlns:rdf="http://www.w3.org/1999/02/22-rdf-syntax-ns#"
   xmlns:svg="http://www.w3.org/2000/svg"
   xmlns="http://www.w3.org/2000/svg"
   viewBox="0 0 330.66665 298.66665"
   height="298.66666"
   width="330.66666"
   xml:space="preserve"
   id="svg2"
   version="1.1"><metadata
     id="metadata8"><rdf:RDF><cc:Work
         rdf:about=""><dc:format>image/svg+xml</dc:format><dc:type
           rdf:resource="http://purl.org/dc/dcmitype/StillImage" /></cc:Work></rdf:RDF></metadata><defs
     id="defs6"><clipPath
       id="clipPath18"
       clipPathUnits="userSpaceOnUse"><path
         id="path16"
         d="M 0,256 H 256 V 0 H 0 Z" /></clipPath><clipPath
       id="clipPath26"
       clipPathUnits="userSpaceOnUse"><path
         id="path24"
         d="M 4,240 H 252 V 16 H 4 Z" /></clipPath></defs><g
     transform="matrix(1.3333333,0,0,-1.3333333,-5.3333332,319.99999)"
     id="g10"><g
       id="g12"><g
         clip-path="url(#clipPath18)"
         id="g14"><g
           id="g20"><g
             id="g22" /><g
             id="g34"><g
               style="opacity:0.5"
               id="g32"
               clip-path="url(#clipPath26)"><g
                 id="g30"
                 transform="translate(236,240)"><path
                   id="path28"
                   style="fill:#ffffff;fill-opacity:1;fill-rule:nonzero;stroke:none"
                   d="m 0,0 h -216 c -8.822,0 -16,-7.178 -16,-16 v -188 c 0,-8.719 7.009,-15.831 15.688,-15.997 l 55.527,-3.702 c 2.998,-0.199 6.042,-0.301 9.047,-0.301 h 87.476 c 3.005,0 6.049,0.102 9.047,0.301 l 55.527,3.702 C 8.991,-219.831 16,-212.719 16,-204 V -16 C 16,-7.178 8.822,0 0,0" /></g></g></g></g><g
           transform="translate(236,28)"
           id="g36"><path
             id="path38"
             style="fill:#d9d9d9;fill-opacity:1;fill-rule:nonzero;stroke:none"
             d="M 0,0 -55.747,-3.717 C -58.582,-3.905 -61.421,-4 -64.262,-4 h -87.476 c -2.841,0 -5.68,0.095 -8.514,0.283 L -216,0 c -4.4,0 -8,3.6 -8,8 v 188 c 0,4.4 3.6,8 8,8 H 0 c 4.4,0 8,-3.6 8,-8 V 8 C 8,3.6 4.4,0 0,0" /></g><g
           transform="translate(170,226)"
           id="g40"><path
             id="path42"
             style="fill:#cccccc;fill-opacity:1;fill-rule:nonzero;stroke:none"
             d="m 0,0 h -2 -80 -2 v -2 -2 h -10 -2 v -2 -12 c 0,-3.309 2.691,-6 6,-6 H 6 c 3.309,0 6,2.691 6,6 v 12 2 H 10 0 v 2 z" /></g><g
           transform="translate(168,224)"
           id="g44"><path
             id="path46"
             style="fill:#808080;fill-opacity:1;fill-rule:nonzero;stroke:none"
             d="m 0,0 v -4 h 12 v -12 c 0,-2.209 -1.791,-4 -4,-4 h -96 c -2.209,0 -4,1.791 -4,4 v 12 h 12 V 0 H 0" /></g><g
           transform="translate(158,212)"
           id="g48"><path
             id="path50"
             style="fill:#737373;fill-opacity:1;fill-rule:nonzero;stroke:none"
             d="m 0,0 h -60 c -1.104,0 -2,0.896 -2,2 0,1.104 0.896,2 2,2 H 0 C 1.104,4 2,3.104 2,2 2,0.896 1.104,0 0,0" /></g><g
           transform="translate(128,184)"
           id="g52"><path
             id="path54"
             style="fill:#cccccc;fill-opacity:1;fill-rule:nonzero;stroke:none"
             d="M 0,0 C -25.773,0 -57.986,-7.951 -60.096,-8.717 -64.707,-10.392 -68,-14.811 -68,-20 v -25.352 c 0,-7.096 0.295,-14.188 0.884,-21.259 L -64,-104 h 0.157 C -61.645,-119.635 -24,-132 0,-132 c 24,0 61.645,12.365 63.843,28 H 64 l 3.115,37.389 C 67.705,-59.54 68,-52.448 68,-45.352 V -20 c 0,5.245 -3.364,9.703 -8.053,11.335 C 57.926,-7.96 25.966,0 0,0 M 0,-2 C 25.435,-2 57.384,-9.89 59.29,-10.553 63.304,-11.951 66,-15.747 66,-20 v -25.352 c 0,-7.01 -0.295,-14.107 -0.877,-21.093 L 62.16,-102 h -0.056 l -0.242,-1.722 c -0.883,-6.282 -9.086,-12.946 -22.504,-18.283 C 26.959,-126.937 11.878,-130 0,-130 c -11.877,0 -26.958,3.063 -39.358,7.995 -13.418,5.337 -21.621,12.001 -22.504,18.283 l -0.242,1.722 h -0.056 l -2.963,35.555 C -65.705,-59.459 -66,-52.362 -66,-45.352 V -20 c 0,4.193 2.647,7.972 6.586,9.403 C -57.796,-10.01 -25.79,-2 0,-2" /></g><g
           transform="translate(196,232)"
           id="g56"><path
             id="path58"
             style="fill:#cccccc;fill-opacity:1;fill-rule:nonzero;stroke:none"
             d="m 0,0 -10.069,-36.921 c -0.964,-3.532 -4.167,-5.896 -7.712,-5.896 -0.475,0 -0.955,0.042 -1.438,0.129 l -31.103,5.656 C -54.1,-36.346 -57.932,-36 -61.771,-36 H -68 -74.229 c -3.839,0 -7.671,-0.346 -11.449,-1.032 l -31.103,-5.656 c -0.483,-0.087 -0.963,-0.129 -1.438,-0.129 -3.544,0 -6.748,2.364 -7.712,5.896 L -136,0 h -2.073 l 0.143,-0.526 10.07,-36.922 c 1.183,-4.339 5.148,-7.369 9.641,-7.369 0.599,0 1.203,0.054 1.796,0.162 L -85.32,-39 c 3.65,0.664 7.382,1 11.091,1 h 6.229 6.229 c 3.709,0 7.441,-0.336 11.091,-1 l 31.104,-5.655 c 0.592,-0.108 1.196,-0.162 1.795,-0.162 4.493,0 8.458,3.03 9.641,7.369 L 1.93,-0.526 2.073,0 Z" /></g><g
           transform="translate(176,204)"
           id="g60"><path
             id="path62"
             style="fill:#737373;fill-opacity:1;fill-rule:nonzero;stroke:none"
             d="M 0,0 H -8 V 16 H 4 V 4 C 4,1.791 2.209,0 0,0" /></g><g
           transform="translate(88,204)"
           id="g64"><path
             id="path66"
             style="fill:#737373;fill-opacity:1;fill-rule:nonzero;stroke:none"
             d="m 0,0 h -8 c -2.209,0 -4,1.791 -4,4 V 16 H 0 Z" /></g><g
           transform="translate(188,120)"
           id="g68"><path
             id="path70"
             style="fill:#cccccc;fill-opacity:1;fill-rule:nonzero;stroke:none"
             d="m 0,0 c 0,-4.418 -26.863,-8 -60,-8 -33.137,0 -60,3.582 -60,8 0,4.418 26.863,8 60,8 C -26.863,8 0,4.418 0,0" /></g><g
           transform="translate(152.3662,127.3105)"
           id="g72"><path
             id="path74"
             style="fill:#666666;fill-opacity:1;fill-rule:nonzero;stroke:none"
             d="m 0,0 c -16.401,-1.992 -28.343,-8.082 -28.365,-15.291 1.323,-0.012 2.654,-0.02 3.999,-0.02 33.137,0 60,3.582 60,8 C 35.634,-4.05 20.991,-1.246 0,0" /></g><g
           transform="translate(125.791,60)"
           id="g76"><path
             id="path78"
             style="fill:#cccccc;fill-opacity:1;fill-rule:nonzero;stroke:none"
             d="M 0,0 V 0 C -1.33,0 -1.809,1.399 -0.886,2.589 L 2.545,7.011 C 3.015,7.617 3.74,8 4.418,8 5.748,8 6.227,6.601 5.304,5.411 L 1.873,0.989 C 1.403,0.383 0.678,0 0,0" /></g><g
           transform="translate(133.791,60)"
           id="g80"><path
             id="path82"
             style="fill:#cccccc;fill-opacity:1;fill-rule:nonzero;stroke:none"
             d="M 0,0 V 0 C -1.33,0 -1.809,1.399 -0.886,2.589 L 2.545,7.011 C 3.016,7.617 3.74,8 4.418,8 5.748,8 6.227,6.601 5.304,5.411 L 1.873,0.989 C 1.402,0.383 0.678,0 0,0" /></g><g
           transform="translate(117.791,60)"
           id="g84"><path
             id="path86"
             style="fill:#cccccc;fill-opacity:1;fill-rule:nonzero;stroke:none"
             d="M 0,0 V 0 C -1.33,0 -1.809,1.399 -0.886,2.589 L 2.545,7.011 C 3.015,7.617 3.74,8 4.418,8 5.748,8 6.227,6.601 5.304,5.411 L 1.873,0.989 C 1.403,0.383 0.678,0 0,0" /></g><path
           id="path88"
           style="fill:#cccccc;fill-opacity:1;fill-rule:nonzero;stroke:none"
           d="M 32,188 H 12 v -2 h 20 z" /><path
           id="path90"
           style="fill:#cccccc;fill-opacity:1;fill-rule:nonzero;stroke:none"
           d="m 244,188 h -20 v -2 h 20 z" /><g
           transform="translate(60,40)"
           id="g92"><path
             id="path94"
             style="fill:#cccccc;fill-opacity:1;fill-rule:nonzero;stroke:none"
             d="M 0,0 C -7.978,0 -21.923,23.414 -24.578,28 H -48 v 2 h 24.58 l 0.288,-0.504 C -18.761,21.849 -6.085,2 0,2 Z" /></g><g
           transform="translate(72,40)"
           id="g96"><path
             id="path98"
             style="fill:#666666;fill-opacity:1;fill-rule:nonzero;stroke:none"
             d="m 0,0 c 0,-4.418 -3.582,-8 -8,-8 -4.418,0 -8,3.582 -8,8 0,4.418 3.582,8 8,8 4.418,0 8,-3.582 8,-8" /></g><g
           transform="translate(64,50)"
           id="g100"><path
             id="path102"
             style="fill:#cccccc;fill-opacity:1;fill-rule:nonzero;stroke:none"
             d="m 0,0 c -5.514,0 -10,-4.486 -10,-10 0,-5.514 4.486,-10 10,-10 5.514,0 10,4.486 10,10 C 10,-4.486 5.514,0 0,0 m 0,-2 c 4.418,0 8,-3.582 8,-8 0,-4.418 -3.582,-8 -8,-8 -4.418,0 -8,3.582 -8,8 0,4.418 3.582,8 8,8" /></g><g
           transform="translate(196,40)"
           id="g104"><path
             id="path106"
             style="fill:#cccccc;fill-opacity:1;fill-rule:nonzero;stroke:none"
             d="M 0,0 C 7.978,0 21.923,23.414 24.578,28 H 48 v 2 H 23.42 L 23.132,29.496 C 18.761,21.849 6.085,2 0,2 Z" /></g><g
           transform="translate(184,40)"
           id="g108"><path
             id="path110"
             style="fill:#666666;fill-opacity:1;fill-rule:nonzero;stroke:none"
             d="m 0,0 c 0,-4.418 3.582,-8 8,-8 4.418,0 8,3.582 8,8 C 16,4.418 12.418,8 8,8 3.582,8 0,4.418 0,0" /></g><g
           transform="translate(192,50)"
           id="g112"><path
             id="path114"
             style="fill:#cccccc;fill-opacity:1;fill-rule:nonzero;stroke:none"
             d="m 0,0 c -5.514,0 -10,-4.486 -10,-10 0,-5.514 4.486,-10 10,-10 5.514,0 10,4.486 10,10 C 10,-4.486 5.514,0 0,0 m 0,-2 c 4.418,0 8,-3.582 8,-8 0,-4.418 -3.582,-8 -8,-8 -4.418,0 -8,3.582 -8,8 0,4.418 3.582,8 8,8" /></g><g
           transform="translate(224,188)"
           id="g116"><path
             id="path118"
             style="fill:#cccccc;fill-opacity:1;fill-rule:nonzero;stroke:none"
             d="m 0,0 -4,-64 c 0,-25.348 -11.27,-48.188 -29.296,-64.246 -0.881,0.15 -1.78,0.246 -2.704,0.246 -7.813,0 -14.308,-5.603 -15.71,-13.007 C -64.981,-148.009 -80.25,-152 -96.5,-152 c -15.909,0 -30.782,3.822 -43.723,10.552 -1.224,7.621 -7.811,13.448 -15.777,13.448 -1.082,0 -2.137,-0.11 -3.159,-0.315 C -176.971,-112.254 -188,-89.385 -188,-64 l -4,64 h -2.004 l 0.008,-0.125 3.996,-63.938 c 0.009,-12.693 2.674,-24.947 7.922,-36.422 5.09,-11.13 12.35,-20.994 21.58,-29.316 l 0.746,-0.673 0.986,0.198 c 0.914,0.183 1.845,0.276 2.766,0.276 6.902,0 12.708,-4.948 13.803,-11.766 l 0.159,-0.993 0.893,-0.464 c 13.558,-7.05 28.996,-10.777 44.645,-10.777 15.993,0 31.805,3.881 45.723,11.224 l 0.852,0.45 0.18,0.946 c 1.249,6.594 7.029,11.38 13.745,11.38 0.736,0 1.511,-0.071 2.367,-0.217 l 0.949,-0.162 0.718,0.64 c 9.355,8.333 16.72,18.186 21.891,29.288 5.349,11.484 8.066,23.726 8.075,36.388 L 1.996,-0.125 2.004,0 Z" /></g><g
           transform="translate(143.002,41.8672)"
           id="g120"><path
             id="path122"
             style="fill:#cccccc;fill-opacity:1;fill-rule:nonzero;stroke:none"
             d="m 0,0 c -0.123,0 -0.248,-0.008 -0.374,-0.023 l -11.403,-1.425 c -1.066,-0.134 -2.151,-0.201 -3.225,-0.201 -1.074,0 -2.159,0.067 -3.225,0.201 l -11.403,1.425 c -0.293,0.037 -0.581,0.029 -0.859,-0.016 -1.477,-0.235 -2.513,-1.6 -2.513,-3.096 v -5.171 c 0,-1.595 0.938,-3.007 2.351,-3.644 0.631,-0.285 1.255,-0.589 1.857,-0.933 2.65,-1.516 9.211,-4.984 13.792,-4.984 4.581,0 11.142,3.468 13.792,4.984 0.602,0.344 1.226,0.648 1.857,0.933 1.414,0.637 2.351,2.049 2.351,3.644 V -3 C 2.998,-1.346 1.653,0 0,0" /></g><g
           transform="translate(121.209,29.6973)"
           id="g124"><path
             id="path126"
             style="fill:#a12868;fill-opacity:1;fill-rule:nonzero;stroke:none"
             d="m 0,0 -7.694,1.924 c -0.89,0.222 -1.515,1.022 -1.515,1.94 V 9.17 c 0,0.601 0.527,1.067 1.124,0.992 L 3.318,8.737 c 2.307,-0.289 4.64,-0.289 6.946,0 l 11.403,1.425 c 0.597,0.075 1.124,-0.391 1.124,-0.992 V 3.864 c 0,-0.918 -0.625,-1.718 -1.515,-1.94 L 13.582,0 C 9.123,-1.114 4.459,-1.114 0,0" /></g></g></g></g></svg>