<svg xmlns="http://www.w3.org/2000/svg" xml:space="preserve" width="330.666" height="245.333" viewBox="0 0 330.666 245.333"><defs><clipPath id="a" clipPathUnits="userSpaceOnUse"><path d="M0 256h256V0H0Z"/></clipPath><clipPath id="b" clipPathUnits="userSpaceOnUse"><path d="M4 220h248V36H4Z"/></clipPath><clipPath id="c" clipPathUnits="userSpaceOnUse"><path d="M0 256h256V0H0Z"/></clipPath></defs><g clip-path="url(#a)" transform="matrix(1.33333 0 0 -1.33333 -5.334 293.333)"><g clip-path="url(#b)" style="opacity:.5"><path d="M0 0h-212.667c-9.741 0-17.666-7.964-17.666-17.753v-116.494c0-9.789 7.925-17.753 17.666-17.753h-5.666v-32h216v32H0c9.741 0 17.667 7.964 17.667 17.753v116.494C17.667-7.964 9.741 0 0 0" style="fill:#fff;fill-opacity:1;fill-rule:nonzero;stroke:none" transform="translate(234.333 220)"/></g></g><path d="m0 0-24-31.965h128l28 32z" style="fill:#16a085;fill-opacity:1;fill-rule:nonzero;stroke:none" transform="matrix(1.33333 0 0 -1.33333 90.666 186.714)"/><g clip-path="url(#c)" transform="matrix(1.33333 0 0 -1.33333 -5.334 293.333)"><path d="M0 0h-212.667c-5.338 0-9.666 4.367-9.666 9.753v116.494c0 5.386 4.328 9.753 9.666 9.753H0c5.339 0 9.667-4.367 9.667-9.753V9.753C9.667 4.367 5.339 0 0 0" style="fill:#1abf9f;fill-opacity:1;fill-rule:nonzero;stroke:none" transform="translate(234.333 76)"/><path d="M0 0h198c4.971 0 9-2.786 9-6.222v-99.556c0-3.436-4.029-6.222-9-6.222H0c-4.971 0-9 2.786-9 6.222v99.556C-9-2.786-4.971 0 0 0" style="fill:#16a085;fill-opacity:1;fill-rule:nonzero;stroke:none" transform="translate(29 200)"/><path d="M0 0c38.889 3.525 150 3.525 188.889 0 3.047-.276 5.555-1.572 5.555-3.525v-91.661c0-1.954-2.508-3.25-5.555-3.526-38.889-3.525-150-3.525-188.889 0-3.047.276-5.556 1.572-5.556 3.526v91.661C-5.556-1.572-3.047-.276 0 0" style="fill:#000;fill-opacity:1;fill-rule:nonzero;stroke:none" transform="translate(33.556 193.356)"/><path d="M224 44H24v16h200z" style="fill:#1abf9f;fill-opacity:1;fill-rule:nonzero;stroke:none"/><path d="m0 0-4.521-24.143a.6.6 0 0 1 .178-.54.96.96 0 0 1 .619-.264l4.188-.29c.5-.035.962.258 1.031.653l2.447 14 5.409-14.775c.131-.358.598-.669 1.064-.708l2.794-.237c.463-.039 1.008.182 1.241.502l9.425 13.003-1.457-13.472a.4.4 0 0 1-.004-.063c0-.375.361-.7.838-.739l5.02-.413c.245-.021.485.037.675.161.19.125.307.301.329.496l2.72 24.275a.63.63 0 0 1-.212.535c-.158.15-.381.243-.625.26l-4.713.325c-.464.033-1.003-.197-1.226-.522L13.541-18.923l-.002-.002v.001L7.289-.485c-.123.362-.586.675-1.055.712L1.04.643C.54.683.074.395 0 0" style="fill:#e6e6e6;fill-opacity:1;fill-rule:nonzero;stroke:none" transform="translate(168.024 161.063)"/><path d="m0 0-3.486.011-.151.001-.04-.116-1.175-3.378-.007-.02v-.021l-.016-4.876h-2.491l.579 5.347c.031.287-.092.318-.273.069l-9.689-13.367c-.181-.249-.624-.428-.984-.398l-2.793.236c-.361.031-.739.282-.84.559l-2.012 5.496h1.253v5.896h2.722l1.718-5.068c.094-.278.314-.299.487-.046l9.061 13.163H-4.3l.045.108L-2.59 7.57l2.756-.19c.361-.025.63-.281.598-.568Zm-1.56-13.921h-1.812l-.055-.087-.326-.528-1.312-.137-.16-.017-.011-.128-.254-2.88-2.2.181c-.361.029-.63.289-.599.576l.889 8.228h2.92v.157l.017 5.011 1.127 3.241 3.301-.01zm-1.111-4.009-2.427.199.244 2.763 1.257.131.105.011.046.076.32.515h1.53l-.361-3.227c-.032-.287-.354-.498-.714-.468M-26.935-.74c-.102.276-.225.269-.275-.016l-1.471-8.417h-2.713l-.913.394-.043.019-.05.001-1.692.008 2.052 10.958h2.838l.044.109.778 1.946h5.985l2.885-8.509h-3.011v-5.895h-.972zm-3.547-14.941-4.189.291c-.361.025-.612.278-.559.564l.63 3.363 5.429-.514-.564-3.231c-.05-.285-.386-.498-.747-.473m-1.97 6.607.913-.395.044-.019h2.759l-.38-2.177-5.426.513.391 2.087zm2.496 18.856 5.194-.416c.36-.029.732-.28.826-.558l1.435-4.231h-6.168l-.044-.11-.778-1.946h-2.49l1.272 6.795c.054.285.392.495.753.466m24.437-2.491c.174.253.611.439.973.415l1.551-.108-1.59-3.795h-3.336Zm7.848 1.048c-.498.472-1.197.762-1.969.816l-4.712.326c-1.244.086-2.532-.463-3.132-1.334l-9.318-13.538-4.971 14.663c-.337.996-1.474 1.764-2.765 1.867l-5.194.416c-1.559.125-2.961-.743-3.192-1.976l-4.522-24.143c-.116-.62.096-1.256.582-1.745.485-.49 1.213-.802 1.999-.856l4.188-.291c1.557-.108 2.945.771 3.16 2.003l1.175 6.721 2.825-7.719c.356-.972 1.488-1.725 2.753-1.832l2.794-.237c1.239-.105 2.539.422 3.162 1.28l4.981 6.872-.694-6.421a2 2 0 0 1-.011-.197c0-1.169 1.125-2.181 2.611-2.304l5.02-.413c.775-.064 1.534.118 2.135.513.602.394.971.951 1.04 1.569L2.995 6.654c.069.614-.168 1.212-.666 1.685" style="fill:#000;fill-opacity:1;fill-rule:nonzero;stroke:none" transform="translate(198.993 151.715)"/><path d="m0 0-4.822-.773c-.465-.075-.88-.426-.945-.8l-2.723-15.74-9.833 13.917c-.234.331-.783.53-1.251.453l-5.554-.913c-.253-.041-.452-.161-.544-.328-.092-.166-.07-.364.062-.541l16.118-21.601c.241-.324.794-.522 1.259-.453l2.812.423c.464.07.889.414.968.785L.848-.654a.5.5 0 0 1-.189.52C.496-.008.256.041 0 0" style="fill:#e6e6e6;fill-opacity:1;fill-rule:nonzero;stroke:none" transform="translate(164.132 162.32)"/><path d="m0 0-2.123-9.981h-2.403v-.993l-.52-.404-.059-.046v-.066l-.013-3.314v-.157h1.935l-.721-3.389-1.498-.936-1.399.009-.068.001-.054-.033-1.121-.684-.077-.047v-1.467l-3.927-1.153-4.381 5.872 4.843 3.214 2.339-3.309c.177-.252.363-.224.413.062l1.85 10.697h1.936l.055.037.74.493.07.047v2.546l.471.401.054.045v.865l.458.323.067.047v1.317l2.596.416C-.181.47.06.284 0 0m-4.71-11.556.52.404.059.047v.81h1.94l-.925-4.352h-1.606zm-.591-13.361c-.06-.284-.401-.561-.757-.614l-2.812-.423c-.356-.053-.799.106-.984.354l-1.988 2.665 3.987 1.171.129.037v1.532l.99.603 1.4-.009h.069l.055.033 1.21.757zM-25.662-3.442l5.553.913c.355.058.791-.1.968-.351l1.164-1.648h-1.314l-.059-.064-.35-.379h-2.06v-2.093h-1.924l-2.287 3.065c-.185.248-.046.499.309.557m4.1-3.936h.197v2.092h1.866l.059.064.349.38h1.336l5.973-8.453-4.851-3.219-6.817 9.135zM-6.094-.982c.049.285.381.565.736.622l1.83.294v-1.113l-.458-.323-.067-.047v-.882l-.471-.4-.054-.046V-5.4l-.614-.409h-1.737Zm7.763 2.778c-.53.409-1.279.583-2.002.468l-6.113-.98C-7.38 1.134-8.093.531-8.223-.22l-2.011-11.628-7.277 10.298c-.477.676-1.451 1.029-2.406.872l-6.843-1.125c-.71-.117-1.304-.499-1.596-1.026-.293-.526-.247-1.133.123-1.629l16.79-22.502c.481-.645 1.416-.981 2.342-.842l4.106.617c.922.139 1.637.719 1.793 1.454L2.319.22c.123.578-.12 1.168-.65 1.576" style="fill:#000;fill-opacity:1;fill-rule:nonzero;stroke:none" transform="translate(164.72 161.701)"/><path d="M0 0c3.962-1.259 5.004-5.387 4.368-10.066-.276-2.029-.332-4.575-2.826-4.854-.849-.094-1.807.067-2.698.153-.8.078-1.716.333-2.505.256-.48-.047-.846-.358-1.285-.46-.975-.228-2.189-.102-3.532-.102-.822 0-1.655-.011-2.377.102-.434.068-.88.33-1.348.358-.429.025-.862-.163-1.349-.205-1.308-.11-3.062-.144-4.432-.051-.491.034-1.033.261-1.477.256-.438-.006-.929-.264-1.413-.307-1.717-.151-3.522.527-5.01.409-.694-.056-1.395-.545-2.313-.613-1.324-.099-3.5-.038-4.817.153-.493.071-1.001.332-1.477.358-.432.023-.925-.169-1.413-.205-1.249-.092-2.809-.101-4.111-.051-.375.015-.75.119-1.092.102-.591-.029-1.176-.355-1.734-.409a27.4 27.4 0 0 0-4.56-.051c-.501.041-1.009.251-1.542.256-.721.006-1.39-.265-1.991-.307-3.471-.24-6.084 1.086-7.836 2.606-.775-.296-1.271-.843-1.991-1.226-3.22-1.715-8.714-1.221-11.561.562-.404.253-.981 1.028-1.477 1.022-.423-.006-1.161-.789-1.542-1.022-1.516-.925-3.558-1.601-6.102-1.738-3.827-.204-6.884.934-8.863 2.402-1.015.754-2.477 1.99-1.799 3.525.35.79 1.372 1.598 2.12 2.3.276.258.689.511.706.766.032.46-.912 1.145-1.156 1.482-1.104 1.532-1.457 4.06-.385 5.978 1.278 2.286 4.654 3.941 9.249 3.679 1.751-.1 3.55-.529 5.074-1.227 2.177-.995 4.436-1.916 3.725-4.547.918.157 1.445.676 2.248.971 2.791 1.025 7.258.952 9.827-.358.323-.165.817-.559 1.092-.562.511-.005 1.139.814 1.606.971 1.046.351 4.41.37 5.909.255.597-.045 1.208-.378 1.67-.357.503.022 1.152.518 1.541.613 1.198.292 4.884.411 6.231.102.443-.101.915-.515 1.413-.562.473-.045 1.09.135 1.606.153.956.036 2.031.087 2.954.051.666-.025 1.297-.327 1.927-.357.586-.028 1.286.209 1.927.204.513-.003 1.104-.101 1.605-.204.478-.098.956-.36 1.349-.358.586.003 1.215.354 1.734.46 1.799.367 3.799.286 5.653-.255.414-.122 1.166-.667 1.605-.665.521.003 1.134.722 1.606.869 1.315.408 3.255.354 4.817.307.704-.022 1.335-.331 1.991-.358.582-.023 1.206.197 1.799.205.561.007 1.102-.102 1.605-.205C-8.55.1-8.016-.149-7.643-.154c.497-.005.987.311 1.413.409C-4.29.699-1.983.63 0 0" style="fill:#000;fill-opacity:1;fill-rule:nonzero;stroke:none" transform="translate(146.278 150.217)"/><path d="M0 0q-.252 1.161-.931 1.994-.681.832-1.863 1.303-1.182.468-3.074.469-1.419 0-2.439-.493a7 7 0 0 1-.508-.269 5 5 0 0 1-.443-.29c-.116-.086-.265-.292-.448-.25-.13.03-.245.146-.321.23a2.7 2.7 0 0 1-.689.52q-.74.411-1.862.411-.562 0-1.064-.141a4 4 0 0 1-.902-.364 3 3 0 0 1-.65-.469q-.04-.04-.084-.077c-.042-.034-.108-.081-.174-.069-.076.014-.12.103-.137.156-.031.093-.033.191-.045.286l-.048.369c-.032.247-.315.445-.628.439l-4.249-.083a100 100 0 0 0 .192-5.408q.015-1.35 0-2.851c-.01-1.001-.014-2.856-.014-2.856-.001-.249.255-.449.568-.445l4.124.056c.313.004.574.211.581.46l.165 6.445q0 .329.207.669t.976.34q.354 0 .561-.211t.34-.563.177-.81.045-.95v-1.994q0-.774-.015-1.349t-.044-1.08c-.02-.336-.038-.709-.038-.709-.012-.249.235-.457.548-.462h.008l.47-.008 1.013-.018 1.239-.021 1.171-.021c.239-.004.519-.045.754-.002.198.037.154.161.149.288-.007.19-.051.377-.067.566q-.045.516-.059 1.056l-.03 1.032q-.015.493-.015.798 0 2.253.237 3.355Q-7.08.083-6.074.082q.62 0 .96-.41.34-.411.34-1.373 0-.915-.281-2.335c-.187-.946-.775-2.996-.775-2.996-.069-.243.128-.466.438-.497l.398-.04 1.999-.198c.422-.042.846-.078 1.27-.117.256-.024.511-.069.766-.092.159-.014.36-.078.488.035.121.107.113.304.142.438.043.2.068.403.089.605.032.311.082.614.137.923q.07.388.132.778.222 1.36.222 2.651Q.251-1.161 0 0m-23.25 1.994q-.68.832-1.862 1.303-1.182.468-3.074.469-1.419 0-2.439-.493a7 7 0 0 1-.529-.281 5 5 0 0 1-.44-.291c-.103-.077-.192-.196-.342-.217-.038-.005-.078-.012-.118-.009-.137.01-.174.083-.245.164a2.7 2.7 0 0 1-.736.575q-.738.411-1.862.411-.561 0-1.064-.141a4 4 0 0 1-.901-.364c-.225-.125-.42-.277-.634-.412-.105-.066-.147-.157-.295-.149-.153.008-.131.163-.142.246l-.039.295-.028.216c-.033.247-.315.445-.628.439l-4.25-.083q.089-1.432.133-2.745t.059-2.663 0-2.851c-.01-1.001-.014-2.856-.014-2.856 0-.249.255-.449.568-.445l4.124.055c.313.005.574.212.581.46l.165 6.446q0 .329.207.669t.976.34q.354 0 .561-.211.208-.212.34-.563.133-.353.178-.81t.044-.95v-1.994q0-.775-.015-1.349a36 36 0 0 0-.044-1.08c-.02-.336-.038-.709-.038-.709-.011-.249.235-.457.548-.462l4.841-.084q-.06.351-.104.868-.044.516-.059 1.056l-.03 1.032q-.015.493-.014.798 0 2.252.236 3.355.237 1.103 1.242 1.103.621 0 .96-.411.34-.41.341-1.372 0-.916-.282-2.335c-.187-.947-.775-2.996-.775-2.996-.069-.243.128-.467.439-.497l4.874-.484q.325 1.454.547 2.816.222 1.36.222 2.651 0 1.384-.252 2.545-.251 1.162-.931 1.995m-21.536-3.959q-.074 1.46-.148 2.977a341 341 0 0 0-.116 2.805c-.009.25-.274.45-.588.444l-4.854-.084q.088-1.13.163-1.953.074-.824.119-1.577.044-.753.059-1.553t.015-1.882q0-.825-.682-1.306-.682-.483-1.631-.483-1.008 0-1.512.483a1.55 1.55 0 0 0-.504 1.164c0 .814.048 1.578.148 2.377q.148 1.176.297 2.165c.119.753.321 1.717.321 1.717.052.246-.163.445-.477.443l-5.062-.042a48 48 0 0 1-.355-2.354 40 40 0 0 1-.252-2.141 22 22 0 0 1-.104-2.023q0-1.271.385-2.29a4.34 4.34 0 0 1 1.186-1.732q.8-.712 2.06-1.099 1.26-.386 3.009-.386.504 0 1.038.106a6.2 6.2 0 0 1 1.927.73c.124.074.343.308.521.259.232-.065.101-.479.101-.617 0-.25.257-.449.571-.444l4.647.084q-.06 1.729-.134 3.242-.073 1.511-.148 2.97M-69.423.023q.34.294.769.446.428.153.842.153 1.242 0 1.848-.493c.404-.328.587-.664.587-.664.124-.228.475-.366.778-.305l3.586.711q-.561 1.947-2.276 3.144T-67.9 4.212q-1.773 0-3.163-.434t-2.335-1.244A5.25 5.25 0 0 1-74.832.587q-.488-1.139-.488-2.546 0-1.22.444-2.323a5.15 5.15 0 0 1 1.374-1.936q.931-.833 2.35-1.325 1.419-.493 3.399-.493 1.123 0 2.188.27 1.064.27 1.951.821a6 6 0 0 1 1.552 1.396c.443.563.824 1.561.824 1.561.091.238-.08.489-.381.558l-3.473.79a1.45 1.45 0 0 0-.385-.68 3.2 3.2 0 0 0-.665-.528 3.8 3.8 0 0 0-.753-.352 2.3 2.3 0 0 0-.71-.129q-1.153 0-1.877.704t-.724 1.853q0 .61.221 1.056.223.446.562.739M-77.2-.888q.608-.954.608-2.273 0-1.272-.668-2.202a5.3 5.3 0 0 0-1.736-1.531 8.7 8.7 0 0 0-2.418-.895q-1.35-.294-2.715-.294-2.73 0-4.584.8-1.854.801-3.338 2.426l2.108 2.117a.544.544 0 0 0 .736.018s.242-.215.657-.474a8.7 8.7 0 0 1 1.35-.683q.727-.295 1.484-.483a5.8 5.8 0 0 1 1.409-.189q.653 0 .994.189.34.188.341.706 0 .447-.608.848t-1.513.836l-1.959.943Q-88.105-.524-89.01.16a6.7 6.7 0 0 0-1.513 1.566q-.609.884-.609 2.037 0 1.13.535 1.979a4.6 4.6 0 0 0 1.439 1.424q.905.577 2.091.872 1.187.294 2.522.294 2.374 0 4.258-.694 1.884-.696 3.576-2.061l-1.707-2.092c-.171-.209-.505-.247-.743-.083 0 0-.429.295-.903.538q-.713.365-1.395.624a9 9 0 0 1-1.276.389 5 5 0 0 1-1.038.129q-.535 0-.786-.212a.67.67 0 0 1-.253-.541q0-.425.609-.789a12 12 0 0 1 1.528-.754q.919-.388 1.973-.871 1.053-.483 1.973-1.166A6.2 6.2 0 0 0-77.2-.888" style="fill:#1abf9f;fill-opacity:1;fill-rule:nonzero;stroke:none" transform="translate(148.21 145.146)"/></g></svg>