<?xml version="1.0" encoding="UTF-8" standalone="no"?>
<svg
   xmlns:dc="http://purl.org/dc/elements/1.1/"
   xmlns:cc="http://creativecommons.org/ns#"
   xmlns:rdf="http://www.w3.org/1999/02/22-rdf-syntax-ns#"
   xmlns:svg="http://www.w3.org/2000/svg"
   xmlns="http://www.w3.org/2000/svg"
   viewBox="0 0 330.66626 245.33333"
   height="245.33333"
   width="330.66626"
   xml:space="preserve"
   id="svg2"
   version="1.1"><metadata
     id="metadata8"><rdf:RDF><cc:Work
         rdf:about=""><dc:format>image/svg+xml</dc:format><dc:type
           rdf:resource="http://purl.org/dc/dcmitype/StillImage" /></cc:Work></rdf:RDF></metadata><defs
     id="defs6"><clipPath
       id="clipPath18"
       clipPathUnits="userSpaceOnUse"><path
         id="path16"
         d="M 0,256 H 256 V 0 H 0 Z" /></clipPath><clipPath
       id="clipPath26"
       clipPathUnits="userSpaceOnUse"><path
         id="path24"
         d="M 4,220 H 252 V 36 H 4 Z" /></clipPath><clipPath
       id="clipPath46"
       clipPathUnits="userSpaceOnUse"><path
         id="path44"
         d="M 0,256 H 256 V 0 H 0 Z" /></clipPath></defs><g
     transform="matrix(1.3333333,0,0,-1.3333333,-5.3337332,293.33333)"
     id="g10"><g
       id="g12"><g
         clip-path="url(#clipPath18)"
         id="g14"><g
           id="g20"><g
             id="g22" /><g
             id="g34"><g
               style="opacity:0.5"
               id="g32"
               clip-path="url(#clipPath26)"><g
                 id="g30"
                 transform="translate(234.3333,220)"><path
                   id="path28"
                   style="fill:#ffffff;fill-opacity:1;fill-rule:nonzero;stroke:none"
                   d="m 0,0 h -212.667 c -9.741,0 -17.666,-7.964 -17.666,-17.753 v -116.494 c 0,-9.789 7.925,-17.753 17.666,-17.753 h -5.666 v -8 -16 -8 h 8 200 8 v 8 16 8 H 0 c 9.741,0 17.667,7.964 17.667,17.753 V -17.753 C 17.667,-7.964 9.741,0 0,0" /></g></g></g></g></g></g><g
       transform="translate(72,79.9648)"
       id="g36"><path
         id="path38"
         style="fill:#16a085;fill-opacity:1;fill-rule:nonzero;stroke:none"
         d="m 0,0 -24,-31.965 h 128 l 28,32 z" /></g><g
       id="g40"><g
         clip-path="url(#clipPath46)"
         id="g42"><g
           transform="translate(234.3333,76)"
           id="g48"><path
             id="path50"
             style="fill:#1abf9f;fill-opacity:1;fill-rule:nonzero;stroke:none"
             d="m 0,0 h -212.667 c -5.338,0 -9.666,4.367 -9.666,9.753 v 116.494 c 0,5.386 4.328,9.753 9.666,9.753 H 0 c 5.339,0 9.667,-4.367 9.667,-9.753 V 9.753 C 9.667,4.367 5.339,0 0,0" /></g><g
           transform="translate(29,200)"
           id="g52"><path
             id="path54"
             style="fill:#16a085;fill-opacity:1;fill-rule:nonzero;stroke:none"
             d="m 0,0 h 198 c 4.971,0 9,-2.786 9,-6.222 v -99.556 c 0,-3.436 -4.029,-6.222 -9,-6.222 H 0 c -4.971,0 -9,2.786 -9,6.222 V -6.222 C -9,-2.786 -4.971,0 0,0" /></g><g
           transform="translate(33.5556,193.3559)"
           id="g56"><path
             id="path58"
             style="fill:#000000;fill-opacity:1;fill-rule:nonzero;stroke:none"
             d="m 0,0 c 38.889,3.525 150,3.525 188.889,0 3.047,-0.276 5.555,-1.572 5.555,-3.525 v -91.661 c 0,-1.954 -2.508,-3.25 -5.555,-3.526 -38.889,-3.525 -150,-3.525 -188.889,0 -3.047,0.276 -5.556,1.572 -5.556,3.526 v 91.661 c 0,1.953 2.509,3.249 5.556,3.525" /></g><path
           id="path60"
           style="fill:#1abf9f;fill-opacity:1;fill-rule:nonzero;stroke:none"
           d="M 224,44 H 24 v 16 h 200 z" /><g
           transform="translate(168.0237,161.0628)"
           id="g62"><path
             id="path64"
             style="fill:#e6e6e6;fill-opacity:1;fill-rule:nonzero;stroke:none"
             d="m 0,0 -4.521,-24.143 c -0.036,-0.195 0.027,-0.387 0.178,-0.54 0.151,-0.153 0.371,-0.246 0.619,-0.264 l 4.188,-0.29 c 0.5,-0.035 0.962,0.258 1.031,0.653 0,0 2.299,13.153 2.447,14 0.302,-0.825 5.409,-14.775 5.409,-14.775 0.131,-0.358 0.598,-0.669 1.064,-0.708 l 2.794,-0.237 c 0.463,-0.039 1.008,0.182 1.241,0.502 0,0 8.926,12.315 9.425,13.003 -0.085,-0.786 -1.457,-13.472 -1.457,-13.472 -0.003,-0.021 -0.004,-0.042 -0.004,-0.063 0,-0.375 0.361,-0.7 0.838,-0.739 l 5.02,-0.413 c 0.245,-0.021 0.485,0.037 0.675,0.161 0.19,0.125 0.307,0.301 0.329,0.496 l 2.72,24.275 c 0.022,0.195 -0.053,0.385 -0.212,0.535 -0.158,0.15 -0.381,0.243 -0.625,0.26 l -4.713,0.325 C 25.982,-1.401 25.443,-1.631 25.22,-1.956 L 13.541,-18.923 c -0.001,-0.001 -0.001,-0.001 -0.002,-0.002 0,0.001 0,0.001 0,0.001 L 7.289,-0.485 C 7.166,-0.123 6.703,0.19 6.234,0.227 L 1.04,0.643 C 0.54,0.683 0.074,0.395 0,0" /></g><g
           transform="translate(198.9934,151.7155)"
           id="g66"><path
             id="path68"
             style="fill:#000000;fill-opacity:1;fill-rule:nonzero;stroke:none"
             d="m 0,0 -3.486,0.011 -0.151,0.001 -0.04,-0.116 -1.175,-3.378 -0.007,-0.02 v -0.021 l -0.016,-4.876 h -2.491 l 0.579,5.347 c 0.031,0.287 -0.092,0.318 -0.273,0.069 l -9.689,-13.367 c -0.181,-0.249 -0.624,-0.428 -0.984,-0.398 l -2.793,0.236 c -0.361,0.031 -0.739,0.282 -0.84,0.559 l -2.012,5.496 h 1.055 0.198 v 0.158 5.738 h 2.722 l 1.718,-5.068 c 0.094,-0.278 0.314,-0.299 0.487,-0.046 L -8.137,3.488 H -4.443 -4.3 L -4.255,3.596 -2.59,7.57 0.166,7.38 C 0.527,7.355 0.796,7.099 0.764,6.812 Z m -1.56,-13.921 h -1.689 -0.123 l -0.055,-0.087 -0.326,-0.528 -1.312,-0.137 -0.16,-0.017 -0.011,-0.128 -0.254,-2.88 -2.2,0.181 c -0.361,0.029 -0.63,0.289 -0.599,0.576 l 0.889,8.228 h 2.722 0.198 v 0.157 l 0.017,5.011 1.127,3.241 3.301,-0.01 z m -1.111,-4.009 -2.427,0.199 0.244,2.763 1.257,0.131 0.105,0.011 0.046,0.076 0.32,0.515 h 1.53 l -0.361,-3.227 c -0.032,-0.287 -0.354,-0.498 -0.714,-0.468 m -24.264,17.19 c -0.102,0.276 -0.225,0.269 -0.275,-0.016 l -1.471,-8.417 h -2.713 l -0.913,0.394 -0.043,0.019 -0.05,10e-4 -1.692,0.008 2.052,10.958 h 2.694 0.144 l 0.044,0.109 0.778,1.946 h 5.985 l 2.885,-8.509 h -2.813 -0.198 v -0.157 -5.738 h -0.972 z m -3.547,-14.941 -4.189,0.291 c -0.361,0.025 -0.612,0.278 -0.559,0.564 l 0.63,3.363 5.429,-0.514 -0.564,-3.231 c -0.05,-0.285 -0.386,-0.498 -0.747,-0.473 m -1.97,6.607 0.913,-0.395 0.044,-0.019 h 0.05 2.709 l -0.38,-2.177 -5.426,0.513 0.391,2.087 z m 2.496,18.856 5.194,-0.416 c 0.36,-0.029 0.732,-0.28 0.826,-0.558 l 1.435,-4.231 h -6.024 -0.144 l -0.044,-0.11 -0.778,-1.946 h -2.49 l 1.272,6.795 c 0.054,0.285 0.392,0.495 0.753,0.466 M -5.519,7.291 c 0.174,0.253 0.611,0.439 0.973,0.415 L -2.995,7.598 -4.585,3.803 H -7.921 Z M 2.329,8.339 C 1.831,8.811 1.132,9.101 0.36,9.155 l -4.712,0.326 c -1.244,0.086 -2.532,-0.463 -3.132,-1.334 0,0 -6.313,-9.172 -9.318,-13.538 -1.619,4.774 -4.971,14.663 -4.971,14.663 -0.337,0.996 -1.474,1.764 -2.765,1.867 l -5.194,0.416 c -1.559,0.125 -2.961,-0.743 -3.192,-1.976 l -4.522,-24.143 c -0.116,-0.62 0.096,-1.256 0.582,-1.745 0.485,-0.49 1.213,-0.802 1.999,-0.856 l 4.188,-0.291 c 1.557,-0.108 2.945,0.771 3.16,2.003 0,0 0.59,3.377 1.175,6.721 1.412,-3.859 2.825,-7.719 2.825,-7.719 0.356,-0.972 1.488,-1.725 2.753,-1.832 l 2.794,-0.237 c 1.239,-0.105 2.539,0.422 3.162,1.28 0,0 2.492,3.439 4.981,6.872 -0.345,-3.192 -0.694,-6.421 -0.694,-6.421 -0.007,-0.066 -0.011,-0.132 -0.011,-0.197 0,-1.169 1.125,-2.181 2.611,-2.304 l 5.02,-0.413 c 0.775,-0.064 1.534,0.118 2.135,0.513 0.602,0.394 0.971,0.951 1.04,1.569 L 2.995,6.654 C 3.064,7.268 2.827,7.866 2.329,8.339" /></g><g
           transform="translate(164.1322,162.3202)"
           id="g70"><path
             id="path72"
             style="fill:#e6e6e6;fill-opacity:1;fill-rule:nonzero;stroke:none"
             d="m 0,0 v 0 l -4.822,-0.773 c -0.465,-0.075 -0.88,-0.426 -0.945,-0.8 0,0 -2.69,-15.546 -2.723,-15.74 -0.121,0.171 -9.833,13.917 -9.833,13.917 -0.234,0.331 -0.783,0.53 -1.251,0.453 l -5.554,-0.913 c -0.253,-0.041 -0.452,-0.161 -0.544,-0.328 -0.092,-0.166 -0.07,-0.364 0.062,-0.541 l 16.118,-21.601 c 0.241,-0.324 0.794,-0.522 1.259,-0.453 l 2.812,0.423 c 0.464,0.07 0.889,0.414 0.968,0.785 L 0.848,-0.654 C 0.891,-0.449 0.823,-0.26 0.659,-0.134 0.496,-0.008 0.256,0.041 0,0" /></g><g
           transform="translate(164.7203,161.7013)"
           id="g74"><path
             id="path76"
             style="fill:#000000;fill-opacity:1;fill-rule:nonzero;stroke:none"
             d="m 0,0 -2.123,-9.981 h -2.205 -0.198 v -0.158 -0.835 l -0.52,-0.404 -0.059,-0.046 v -0.066 l -0.013,-3.314 v -0.157 h 0.198 1.737 l -0.721,-3.389 -1.498,-0.936 -1.399,0.009 -0.068,0.001 -0.054,-0.033 -1.121,-0.684 -0.077,-0.047 v -0.077 -1.39 l -3.927,-1.153 -4.381,5.872 4.843,3.214 2.339,-3.309 c 0.177,-0.252 0.363,-0.224 0.413,0.062 l 1.85,10.697 h 1.864 0.072 l 0.055,0.037 0.74,0.493 0.07,0.047 v 0.074 2.472 l 0.471,0.401 0.054,0.045 v 0.062 0.803 l 0.458,0.323 0.067,0.047 v 0.071 1.246 l 2.596,0.416 C -0.181,0.47 0.06,0.284 0,0 m -4.71,-11.556 0.52,0.404 0.059,0.047 v 0.066 0.744 h 1.94 l -0.925,-4.352 h -1.606 z m -0.591,-13.361 c -0.06,-0.284 -0.401,-0.561 -0.757,-0.614 l -2.812,-0.423 c -0.356,-0.053 -0.799,0.106 -0.984,0.354 l -1.988,2.665 3.987,1.171 0.129,0.037 v 0.11 1.422 l 0.99,0.603 1.4,-0.009 h 0.069 l 0.055,0.033 1.21,0.757 z m -20.361,21.475 5.553,0.913 c 0.355,0.058 0.791,-0.1 0.968,-0.351 l 1.164,-1.648 h -1.214 -0.1 l -0.059,-0.064 -0.35,-0.379 h -1.862 -0.198 v -0.158 -1.935 h -1.924 l -2.287,3.065 c -0.185,0.248 -0.046,0.499 0.309,0.557 m 4.1,-3.936 h 0.197 v 0.157 1.935 h 1.766 0.1 l 0.059,0.064 0.349,0.38 h 1.336 l 5.973,-8.453 -4.851,-3.219 -6.817,9.135 z m 15.468,6.396 c 0.049,0.285 0.381,0.565 0.736,0.622 l 1.83,0.294 V -1.179 L -3.986,-1.502 -4.053,-1.549 V -1.62 -2.431 l -0.471,-0.4 -0.054,-0.046 V -2.939 -5.4 L -5.192,-5.809 H -6.929 Z M 1.669,1.796 C 1.139,2.205 0.39,2.379 -0.333,2.264 L -6.446,1.284 C -7.38,1.134 -8.093,0.531 -8.223,-0.22 c 0,0 -1.15,-6.645 -2.011,-11.628 -3.111,4.403 -7.277,10.298 -7.277,10.298 -0.477,0.676 -1.451,1.029 -2.406,0.872 l -6.843,-1.125 c -0.71,-0.117 -1.304,-0.499 -1.596,-1.026 -0.293,-0.526 -0.247,-1.133 0.123,-1.629 l 16.79,-22.502 c 0.481,-0.645 1.416,-0.981 2.342,-0.842 l 4.106,0.617 c 0.922,0.139 1.637,0.719 1.793,1.454 L 2.319,0.22 c 0.123,0.578 -0.12,1.168 -0.65,1.576" /></g><g
           transform="translate(146.2782,150.2173)"
           id="g78"><path
             id="path80"
             style="fill:#000000;fill-opacity:1;fill-rule:nonzero;stroke:none"
             d="m 0,0 c 3.962,-1.259 5.004,-5.387 4.368,-10.066 -0.276,-2.029 -0.332,-4.575 -2.826,-4.854 -0.849,-0.094 -1.807,0.067 -2.698,0.153 -0.8,0.078 -1.716,0.333 -2.505,0.256 -0.48,-0.047 -0.846,-0.358 -1.285,-0.46 -0.975,-0.228 -2.189,-0.102 -3.532,-0.102 -0.822,0 -1.655,-0.011 -2.377,0.102 -0.434,0.068 -0.88,0.33 -1.348,0.358 -0.429,0.025 -0.862,-0.163 -1.349,-0.205 -1.308,-0.11 -3.062,-0.144 -4.432,-0.051 -0.491,0.034 -1.033,0.261 -1.477,0.256 -0.438,-0.006 -0.929,-0.264 -1.413,-0.307 -1.717,-0.151 -3.522,0.527 -5.01,0.409 -0.694,-0.056 -1.395,-0.545 -2.313,-0.613 -1.324,-0.099 -3.5,-0.038 -4.817,0.153 -0.493,0.071 -1.001,0.332 -1.477,0.358 -0.432,0.023 -0.925,-0.169 -1.413,-0.205 -1.249,-0.092 -2.809,-0.101 -4.111,-0.051 -0.375,0.015 -0.75,0.119 -1.092,0.102 -0.591,-0.029 -1.176,-0.355 -1.734,-0.409 -1.491,-0.142 -3.151,-0.163 -4.56,-0.051 -0.501,0.041 -1.009,0.251 -1.542,0.256 -0.721,0.006 -1.39,-0.265 -1.991,-0.307 -3.471,-0.24 -6.084,1.086 -7.836,2.606 -0.775,-0.296 -1.271,-0.843 -1.991,-1.226 -3.22,-1.715 -8.714,-1.221 -11.561,0.562 -0.404,0.253 -0.981,1.028 -1.477,1.022 -0.423,-0.006 -1.161,-0.789 -1.542,-1.022 -1.516,-0.925 -3.558,-1.601 -6.102,-1.738 -3.827,-0.204 -6.884,0.934 -8.863,2.402 -1.015,0.754 -2.477,1.99 -1.799,3.525 0.35,0.79 1.372,1.598 2.12,2.3 0.276,0.258 0.689,0.511 0.706,0.766 0.032,0.46 -0.912,1.145 -1.156,1.482 -1.104,1.532 -1.457,4.06 -0.385,5.978 1.278,2.286 4.654,3.941 9.249,3.679 1.751,-0.1 3.55,-0.529 5.074,-1.227 2.177,-0.995 4.436,-1.916 3.725,-4.547 0.918,0.157 1.445,0.676 2.248,0.971 2.791,1.025 7.258,0.952 9.827,-0.358 0.323,-0.165 0.817,-0.559 1.092,-0.562 0.511,-0.005 1.139,0.814 1.606,0.971 1.046,0.351 4.41,0.37 5.909,0.255 0.597,-0.045 1.208,-0.378 1.67,-0.357 0.503,0.022 1.152,0.518 1.541,0.613 1.198,0.292 4.884,0.411 6.231,0.102 0.443,-0.101 0.915,-0.515 1.413,-0.562 0.473,-0.045 1.09,0.135 1.606,0.153 0.956,0.036 2.031,0.087 2.954,0.051 0.666,-0.025 1.297,-0.327 1.927,-0.357 0.586,-0.028 1.286,0.209 1.927,0.204 0.513,-0.003 1.104,-0.101 1.605,-0.204 0.478,-0.098 0.956,-0.36 1.349,-0.358 0.586,0.003 1.215,0.354 1.734,0.46 1.799,0.367 3.799,0.286 5.653,-0.255 0.414,-0.122 1.166,-0.667 1.605,-0.665 0.521,0.003 1.134,0.722 1.606,0.869 1.315,0.408 3.255,0.354 4.817,0.307 0.704,-0.022 1.335,-0.331 1.991,-0.358 0.582,-0.023 1.206,0.197 1.799,0.205 0.561,0.007 1.102,-0.102 1.605,-0.205 0.507,-0.104 1.041,-0.353 1.414,-0.358 0.497,-0.005 0.987,0.311 1.413,0.409 C -4.29,0.699 -1.983,0.63 0,0" /></g><g
           transform="translate(148.2104,145.1458)"
           id="g82"><path
             id="path84"
             style="fill:#1abf9f;fill-opacity:1;fill-rule:nonzero;stroke:none"
             d="M 0,0 C -0.168,0.774 -0.478,1.439 -0.931,1.994 -1.385,2.549 -2.006,2.983 -2.794,3.297 -3.582,3.609 -4.607,3.766 -5.868,3.766 -6.814,3.766 -7.627,3.601 -8.307,3.273 -8.481,3.189 -8.651,3.1 -8.815,3.004 -8.969,2.914 -9.118,2.818 -9.258,2.714 -9.374,2.628 -9.523,2.422 -9.706,2.464 c -0.13,0.03 -0.245,0.146 -0.321,0.23 -0.187,0.204 -0.429,0.376 -0.689,0.52 -0.493,0.274 -1.114,0.411 -1.862,0.411 -0.375,0 -0.729,-0.047 -1.064,-0.141 -0.336,-0.094 -0.636,-0.215 -0.902,-0.364 -0.266,-0.148 -0.483,-0.305 -0.65,-0.469 -0.027,-0.026 -0.054,-0.052 -0.084,-0.077 -0.042,-0.034 -0.108,-0.081 -0.174,-0.069 -0.076,0.014 -0.12,0.103 -0.137,0.156 -0.031,0.093 -0.033,0.191 -0.045,0.286 -0.015,0.122 -0.031,0.246 -0.048,0.369 -0.032,0.247 -0.315,0.445 -0.628,0.439 l -4.249,-0.083 c 0.059,-0.954 0.103,-1.869 0.133,-2.745 0.03,-0.876 0.049,-1.764 0.059,-2.663 0.01,-0.9 0.01,-1.85 0,-2.851 -0.01,-1.001 -0.014,-2.856 -0.014,-2.856 -0.001,-0.249 0.255,-0.449 0.568,-0.445 l 4.124,0.056 c 0.313,0.004 0.574,0.211 0.581,0.46 l 0.165,6.445 c 0,0.219 0.069,0.442 0.207,0.669 0.138,0.227 0.463,0.34 0.976,0.34 0.236,0 0.423,-0.07 0.561,-0.211 0.138,-0.141 0.251,-0.328 0.34,-0.563 0.089,-0.235 0.148,-0.504 0.177,-0.81 0.03,-0.305 0.045,-0.621 0.045,-0.95 v -1.994 c 0,-0.516 -0.005,-0.966 -0.015,-1.349 -0.01,-0.384 -0.025,-0.743 -0.044,-1.08 -0.02,-0.336 -0.038,-0.709 -0.038,-0.709 -0.012,-0.249 0.235,-0.457 0.548,-0.462 0.003,0 0.006,0 0.008,0 0.157,-0.003 0.313,-0.006 0.47,-0.008 0.338,-0.006 0.675,-0.012 1.013,-0.018 0.413,-0.007 0.826,-0.014 1.239,-0.021 0.39,-0.007 0.781,-0.014 1.171,-0.021 0.239,-0.004 0.519,-0.045 0.754,-0.002 0.198,0.037 0.154,0.161 0.149,0.288 -0.007,0.19 -0.051,0.377 -0.067,0.566 -0.03,0.344 -0.05,0.696 -0.059,1.056 -0.01,0.36 -0.02,0.704 -0.03,1.032 -0.01,0.329 -0.015,0.595 -0.015,0.798 0,1.502 0.079,2.62 0.237,3.355 0.158,0.736 0.571,1.103 1.242,1.103 0.413,0 0.733,-0.137 0.96,-0.41 0.226,-0.274 0.34,-0.732 0.34,-1.373 0,-0.61 -0.094,-1.388 -0.281,-2.335 -0.187,-0.946 -0.775,-2.996 -0.775,-2.996 -0.069,-0.243 0.128,-0.466 0.438,-0.497 0.133,-0.013 0.265,-0.026 0.398,-0.04 0.666,-0.066 1.332,-0.132 1.999,-0.198 0.422,-0.042 0.846,-0.078 1.27,-0.117 0.256,-0.024 0.511,-0.069 0.766,-0.092 0.159,-0.014 0.36,-0.078 0.488,0.035 0.121,0.107 0.113,0.304 0.142,0.438 0.043,0.2 0.068,0.403 0.089,0.605 0.032,0.311 0.082,0.614 0.137,0.923 0.047,0.259 0.09,0.518 0.132,0.778 0.148,0.907 0.222,1.791 0.222,2.651 C 0.251,-1.623 0.167,-0.774 0,0 m -23.25,1.994 c -0.453,0.555 -1.074,0.989 -1.862,1.303 -0.788,0.312 -1.813,0.469 -3.074,0.469 -0.946,0 -1.759,-0.165 -2.439,-0.493 -0.181,-0.087 -0.359,-0.181 -0.529,-0.281 -0.153,-0.09 -0.301,-0.186 -0.44,-0.291 -0.103,-0.077 -0.192,-0.196 -0.342,-0.217 -0.038,-0.005 -0.078,-0.012 -0.118,-0.009 -0.137,0.01 -0.174,0.083 -0.245,0.164 -0.196,0.227 -0.452,0.418 -0.736,0.575 -0.492,0.274 -1.113,0.411 -1.862,0.411 -0.374,0 -0.729,-0.047 -1.064,-0.141 -0.335,-0.094 -0.636,-0.215 -0.901,-0.364 -0.225,-0.125 -0.42,-0.277 -0.634,-0.412 -0.105,-0.066 -0.147,-0.157 -0.295,-0.149 -0.153,0.008 -0.131,0.163 -0.142,0.246 -0.013,0.098 -0.026,0.196 -0.039,0.295 -0.009,0.072 -0.019,0.144 -0.028,0.216 -0.033,0.247 -0.315,0.445 -0.628,0.439 l -4.25,-0.083 c 0.059,-0.954 0.104,-1.87 0.133,-2.745 0.03,-0.876 0.049,-1.764 0.059,-2.663 0.01,-0.9 0.01,-1.85 0,-2.851 -0.01,-1.001 -0.014,-2.856 -0.014,-2.856 0,-0.249 0.255,-0.449 0.568,-0.445 l 4.124,0.055 c 0.313,0.005 0.574,0.212 0.581,0.46 l 0.165,6.446 c 0,0.219 0.069,0.442 0.207,0.669 0.138,0.226 0.463,0.34 0.976,0.34 0.236,0 0.423,-0.07 0.561,-0.211 0.138,-0.141 0.252,-0.329 0.34,-0.563 0.089,-0.235 0.148,-0.505 0.178,-0.81 0.029,-0.305 0.044,-0.621 0.044,-0.95 v -1.994 c 0,-0.517 -0.005,-0.966 -0.015,-1.349 -0.01,-0.384 -0.025,-0.744 -0.044,-1.08 -0.02,-0.336 -0.038,-0.709 -0.038,-0.709 -0.011,-0.249 0.235,-0.457 0.548,-0.462 l 4.841,-0.084 c -0.04,0.234 -0.074,0.524 -0.104,0.868 -0.029,0.344 -0.049,0.696 -0.059,1.056 -0.01,0.359 -0.02,0.704 -0.03,1.032 -0.01,0.329 -0.014,0.594 -0.014,0.798 0,1.501 0.078,2.62 0.236,3.355 0.158,0.735 0.572,1.103 1.242,1.103 0.414,0 0.734,-0.137 0.96,-0.411 0.227,-0.274 0.341,-0.731 0.341,-1.372 0,-0.61 -0.094,-1.389 -0.282,-2.335 -0.187,-0.947 -0.775,-2.996 -0.775,-2.996 -0.069,-0.243 0.128,-0.467 0.439,-0.497 l 4.874,-0.484 c 0.217,0.969 0.399,1.908 0.547,2.816 0.148,0.907 0.222,1.79 0.222,2.651 0,0.922 -0.084,1.771 -0.252,2.545 -0.167,0.775 -0.478,1.44 -0.931,1.995 m -21.536,-3.959 c -0.049,0.973 -0.099,1.965 -0.148,2.977 -0.049,1.012 -0.116,2.805 -0.116,2.805 -0.009,0.25 -0.274,0.45 -0.588,0.444 l -4.854,-0.084 c 0.059,-0.753 0.113,-1.404 0.163,-1.953 0.049,-0.549 0.089,-1.075 0.119,-1.577 0.029,-0.502 0.049,-1.02 0.059,-1.553 0.009,-0.533 0.015,-1.161 0.015,-1.882 0,-0.55 -0.228,-0.985 -0.682,-1.306 -0.455,-0.322 -0.998,-0.483 -1.631,-0.483 -0.672,0 -1.176,0.161 -1.512,0.483 -0.336,0.321 -0.504,0.709 -0.504,1.164 0,0.814 0.048,1.578 0.148,2.377 0.099,0.784 0.198,1.506 0.297,2.165 0.119,0.753 0.321,1.717 0.321,1.717 0.052,0.246 -0.163,0.445 -0.477,0.443 L -59.238,3.73 c -0.138,-0.785 -0.257,-1.569 -0.355,-2.354 -0.099,-0.674 -0.183,-1.388 -0.252,-2.141 -0.07,-0.753 -0.104,-1.427 -0.104,-2.023 0,-0.847 0.128,-1.611 0.385,-2.29 0.257,-0.679 0.652,-1.257 1.186,-1.732 0.534,-0.475 1.22,-0.841 2.06,-1.099 0.84,-0.257 1.843,-0.386 3.009,-0.386 0.336,0 0.682,0.036 1.038,0.106 0.356,0.071 0.697,0.169 1.023,0.295 0.326,0.125 0.627,0.27 0.904,0.435 0.124,0.074 0.343,0.308 0.521,0.259 0.232,-0.065 0.101,-0.479 0.101,-0.617 0,-0.25 0.257,-0.449 0.571,-0.444 l 4.647,0.084 c -0.04,1.153 -0.084,2.233 -0.134,3.242 -0.049,1.007 -0.098,1.998 -0.148,2.97 m -24.637,1.988 c 0.227,0.196 0.483,0.344 0.769,0.446 0.285,0.102 0.566,0.153 0.842,0.153 0.828,0 1.444,-0.164 1.848,-0.493 0.404,-0.328 0.587,-0.664 0.587,-0.664 0.124,-0.228 0.475,-0.366 0.778,-0.305 l 3.586,0.711 c -0.374,1.298 -1.133,2.346 -2.276,3.144 -1.143,0.798 -2.68,1.197 -4.611,1.197 -1.182,0 -2.237,-0.145 -3.163,-0.434 -0.927,-0.29 -1.705,-0.704 -2.335,-1.244 -0.631,-0.539 -1.109,-1.189 -1.434,-1.947 -0.325,-0.759 -0.488,-1.608 -0.488,-2.546 0,-0.814 0.148,-1.588 0.444,-2.323 0.295,-0.735 0.753,-1.381 1.374,-1.936 0.621,-0.555 1.404,-0.997 2.35,-1.325 0.946,-0.329 2.079,-0.493 3.399,-0.493 0.749,0 1.478,0.09 2.188,0.27 0.709,0.18 1.36,0.453 1.951,0.821 0.591,0.367 1.108,0.833 1.552,1.396 0.443,0.563 0.824,1.561 0.824,1.561 0.091,0.238 -0.08,0.489 -0.381,0.558 l -3.473,0.79 c -0.059,-0.25 -0.188,-0.477 -0.385,-0.68 -0.197,-0.204 -0.418,-0.38 -0.665,-0.528 -0.246,-0.149 -0.498,-0.266 -0.753,-0.352 -0.257,-0.086 -0.493,-0.129 -0.71,-0.129 -0.769,0 -1.394,0.234 -1.877,0.704 -0.483,0.469 -0.724,1.087 -0.724,1.853 0,0.407 0.074,0.759 0.221,1.056 0.149,0.297 0.336,0.544 0.562,0.739 M -77.2,-0.888 c 0.405,-0.636 0.608,-1.394 0.608,-2.273 0,-0.848 -0.223,-1.582 -0.668,-2.202 -0.445,-0.62 -1.023,-1.131 -1.736,-1.531 -0.712,-0.4 -1.518,-0.698 -2.418,-0.895 -0.9,-0.196 -1.805,-0.294 -2.715,-0.294 -1.82,0 -3.348,0.267 -4.584,0.8 -1.236,0.534 -2.349,1.343 -3.338,2.426 l 2.108,2.117 c 0.195,0.196 0.526,0.204 0.736,0.018 0,0 0.242,-0.215 0.657,-0.474 0.416,-0.26 0.865,-0.487 1.35,-0.683 0.485,-0.197 0.979,-0.358 1.484,-0.483 0.504,-0.126 0.974,-0.189 1.409,-0.189 0.435,0 0.767,0.063 0.994,0.189 0.227,0.125 0.341,0.361 0.341,0.706 0,0.298 -0.203,0.581 -0.608,0.848 -0.405,0.267 -0.91,0.545 -1.513,0.836 -0.604,0.291 -1.257,0.605 -1.959,0.943 -0.702,0.337 -1.355,0.733 -1.958,1.189 -0.604,0.455 -1.108,0.977 -1.513,1.566 -0.406,0.589 -0.609,1.268 -0.609,2.037 0,0.754 0.178,1.413 0.535,1.979 0.356,0.565 0.835,1.039 1.439,1.424 0.603,0.385 1.3,0.675 2.091,0.872 0.791,0.196 1.632,0.294 2.522,0.294 1.583,0 3.002,-0.232 4.258,-0.694 1.256,-0.464 2.448,-1.151 3.576,-2.061 l -1.707,-2.092 c -0.171,-0.209 -0.505,-0.247 -0.743,-0.083 0,0 -0.429,0.295 -0.903,0.538 -0.475,0.243 -0.94,0.451 -1.395,0.624 -0.455,0.173 -0.88,0.302 -1.276,0.389 -0.396,0.086 -0.741,0.129 -1.038,0.129 -0.356,0 -0.619,-0.07 -0.786,-0.212 -0.169,-0.141 -0.253,-0.321 -0.253,-0.541 0,-0.283 0.203,-0.546 0.609,-0.789 0.405,-0.244 0.914,-0.495 1.528,-0.754 0.613,-0.259 1.27,-0.549 1.973,-0.871 0.702,-0.322 1.36,-0.711 1.973,-1.166 0.613,-0.456 1.123,-1.001 1.529,-1.637" /></g></g></g></g></svg>