<svg xmlns="http://www.w3.org/2000/svg" xml:space="preserve" width="330.667" height="266.667" viewBox="0 0 330.667 266.667"><defs><clipPath id="a" clipPathUnits="userSpaceOnUse"><path d="M0 256h256V0H0Z"/></clipPath><clipPath id="b" clipPathUnits="userSpaceOnUse"><path d="M4 228h248V28H4Z"/></clipPath></defs><g clip-path="url(#a)" transform="matrix(1.33333 0 0 -1.33333 -5.333 304)"><g clip-path="url(#b)" style="opacity:.5"><path d="M0 0h-248v-200H0V-8z" style="fill:#fff;fill-opacity:1;fill-rule:nonzero;stroke:none" transform="translate(252 228)"/></g></g><path d="M244 36H12v184h232z" style="fill:#d9d9d9;fill-opacity:1;fill-rule:nonzero;stroke:none" transform="matrix(1.33333 0 0 -1.33333 -5.333 304)"/><path d="M236 36H20v88h216z" style="fill:#333;fill-opacity:1;fill-rule:nonzero;stroke:none" transform="matrix(1.33333 0 0 -1.33333 -5.333 304)"/><path d="M236 214H20v2h216zm0-4H20v2h216zm0-4H20v2h216zm0-4H20v2h216z" style="fill:#bfbfbf;fill-opacity:1;fill-rule:nonzero;stroke:none" transform="matrix(1.33333 0 0 -1.33333 -5.333 304)"/><path d="M236 124H20v64h216z" style="fill:#191919;fill-opacity:1;fill-rule:nonzero;stroke:none" transform="matrix(1.33333 0 0 -1.33333 -5.333 304)"/><path d="M236 182H20v2h216z" style="fill:#4eb96f;fill-opacity:1;fill-rule:nonzero;stroke:none" transform="matrix(1.33333 0 0 -1.33333 -5.333 304)"/><path d="M236 122H20v2h216zm-8 6h-40v52h40z" style="fill:#ccc;fill-opacity:1;fill-rule:nonzero;stroke:none" transform="matrix(1.33333 0 0 -1.33333 -5.333 304)"/><path d="M200 168h-8v8h8zm12 0h-8v8h8zm12 0h-8v8h8zm-24-12h-8v8h8zm12 0h-8v8h8zm12 0h-8v8h8zm-24-12h-8v8h8zm12 0h-8v8h8zm12 0h-8v8h8zm-24-12h-8v8h8zm12 0h-8v8h8zm12 0h-8v8h8z" style="fill:gray;fill-opacity:1;fill-rule:nonzero;stroke:none" transform="matrix(1.33333 0 0 -1.33333 -5.333 304)"/><path d="M0 0h-28v-16H0v14z" style="fill:#e6e6e6;fill-opacity:1;fill-rule:nonzero;stroke:none" transform="matrix(1.33333 0 0 -1.33333 234.667 64)"/><path d="M178 166h-24v12h24z" style="fill:gray;fill-opacity:1;fill-rule:nonzero;stroke:none" transform="matrix(1.33333 0 0 -1.33333 -5.333 304)"/><path d="M0 0h-28v-16H0v14z" style="fill:#e6e6e6;fill-opacity:1;fill-rule:nonzero;stroke:none" transform="matrix(1.33333 0 0 -1.33333 234.667 88)"/><path d="M178 148h-24v12h24z" style="fill:gray;fill-opacity:1;fill-rule:nonzero;stroke:none" transform="matrix(1.33333 0 0 -1.33333 -5.333 304)"/><path d="M0 0h-28v-16H0v14z" style="fill:#e6e6e6;fill-opacity:1;fill-rule:nonzero;stroke:none" transform="matrix(1.33333 0 0 -1.33333 234.667 112)"/><path d="M178 130h-24v12h24z" style="fill:gray;fill-opacity:1;fill-rule:nonzero;stroke:none" transform="matrix(1.33333 0 0 -1.33333 -5.333 304)"/><path d="M170 166h-4v12h4z" style="fill:#999;fill-opacity:1;fill-rule:nonzero;stroke:none" transform="matrix(1.33333 0 0 -1.33333 -5.333 304)"/><path d="M144 128H28v40h116z" style="fill:#666;fill-opacity:1;fill-rule:nonzero;stroke:none" transform="matrix(1.33333 0 0 -1.33333 -5.333 304)"/><path d="M108 136H36v24h72z" style="fill:#ccc;fill-opacity:1;fill-rule:nonzero;stroke:none" transform="matrix(1.33333 0 0 -1.33333 -5.333 304)"/><path d="M0 0v-4h-24v4h-20v-16h64V0Z" style="fill:gray;fill-opacity:1;fill-rule:nonzero;stroke:none" transform="matrix(1.33333 0 0 -1.33333 106.667 96)"/></svg>