<?xml version="1.0" encoding="UTF-8" standalone="no"?>
<svg
   xmlns:dc="http://purl.org/dc/elements/1.1/"
   xmlns:cc="http://creativecommons.org/ns#"
   xmlns:rdf="http://www.w3.org/1999/02/22-rdf-syntax-ns#"
   xmlns:svg="http://www.w3.org/2000/svg"
   xmlns="http://www.w3.org/2000/svg"
   viewBox="0 0 330.66598 213.33307"
   height="213.33307"
   width="330.66599"
   xml:space="preserve"
   id="svg2"
   version="1.1"><metadata
     id="metadata8"><rdf:RDF><cc:Work
         rdf:about=""><dc:format>image/svg+xml</dc:format><dc:type
           rdf:resource="http://purl.org/dc/dcmitype/StillImage" /></cc:Work></rdf:RDF></metadata><defs
     id="defs6"><clipPath
       id="clipPath18"
       clipPathUnits="userSpaceOnUse"><path
         id="path16"
         d="M 0,256 H 256 V 0 H 0 Z" /></clipPath><clipPath
       id="clipPath26"
       clipPathUnits="userSpaceOnUse"><path
         id="path24"
         d="M 4,208 H 252 V 48 H 4 Z" /></clipPath></defs><g
     transform="matrix(1.3333333,0,0,-1.3333333,-5.3339999,277.33333)"
     id="g10"><g
       id="g12"><g
         clip-path="url(#clipPath18)"
         id="g14"><g
           id="g20"><g
             id="g22" /><g
             id="g34"><g
               style="opacity:0.5"
               id="g32"
               clip-path="url(#clipPath26)"><g
                 id="g30"
                 transform="translate(248.4375,166.6562)"><path
                   id="path28"
                   style="fill:#ffffff;fill-opacity:1;fill-rule:nonzero;stroke:none"
                   d="m 0,0 -8.438,5.625 v 3.719 20 c 0,2.121 -0.842,4.156 -2.342,5.656 l -4,4 c -1.501,1.501 -3.535,2.344 -5.657,2.344 h -56.001 -87.999 -56 c -2.122,0 -4.157,-0.843 -5.657,-2.344 l -4,-4 c -1.501,-1.5 -2.343,-3.535 -2.343,-5.656 v -20 -3.719 L -240.875,0 c -2.226,-1.483 -3.562,-3.981 -3.562,-6.656 v -8 -12 -68 c 0,-13.234 10.766,-24 24,-24 h 200 c 13.233,0 24,10.766 24,24 v 68 12 8 C 3.563,-3.981 2.226,-1.483 0,0" /></g></g></g></g><g
           transform="translate(232,168)"
           id="g36"><path
             id="path38"
             style="fill:#bfbfbf;fill-opacity:1;fill-rule:nonzero;stroke:none"
             d="m 0,0 v 8 20 l -4,4 V 12 L -12,8 V -8 -28 H -196 V -8 8 l -8,4 v 20 l -4,-4 V 8 0 l -12,-8 v -8 -12 -68 c 0,-8.837 7.164,-16 16,-16 H -4 c 8.837,0 16,7.163 16,16 v 68 12 8 z" /></g><g
           transform="translate(228,68)"
           id="g40"><path
             id="path42"
             style="fill:#e6e6e6;fill-opacity:1;fill-rule:nonzero;stroke:none"
             d="m 0,0 h -200 c -4.418,0 -8,3.582 -8,8 V 24 H 8 V 8 C 8,3.582 4.418,0 0,0" /></g><path
           id="path44"
           style="fill:#ff0000;fill-opacity:1;fill-rule:nonzero;stroke:none"
           d="m 204,76 h -20 v 12 h 20 z" /><path
           id="path46"
           style="fill:#404040;fill-opacity:1;fill-rule:nonzero;stroke:none"
           d="m 132,86 h -8 v 2 h 8 z" /><g
           transform="translate(36,140)"
           id="g48"><path
             id="path50"
             style="fill:#b3b3b3;fill-opacity:1;fill-rule:nonzero;stroke:none"
             d="M 0,0 -16,-48 H 200 L 184,0 Z" /></g><g
           transform="translate(40,136)"
           id="g52"><path
             id="path54"
             style="fill:#0000b8;fill-opacity:1;fill-rule:nonzero;stroke:none"
             d="M 0,0 -12,-40 H 188 L 176,0 Z" /></g><g
           transform="translate(217.8242,116)"
           id="g56"><path
             id="path58"
             style="fill:#e6e6e6;fill-opacity:1;fill-rule:nonzero;stroke:none"
             d="m 0,0 -4.801,16 h -170.047 l -4.8,-16 z" /></g><g
           transform="translate(38.1763,116)"
           id="g60"><path
             id="path62"
             style="fill:#e77f22;fill-opacity:1;fill-rule:nonzero;stroke:none"
             d="m 0,0 -1.2,-4 h 182.047 l -1.199,4 z" /></g><g
           transform="translate(33.376,100)"
           id="g64"><path
             id="path66"
             style="fill:#bfbfbf;fill-opacity:1;fill-rule:nonzero;stroke:none"
             d="m 0,0 h 189.248 l -1.2,4 H 1.2 Z" /></g><path
           id="path68"
           style="fill:#e6e6e6;fill-opacity:1;fill-rule:nonzero;stroke:none"
           d="M 84,140 H 36 v 36 h 48 z" /><path
           id="path70"
           style="fill:#bfbfbf;fill-opacity:1;fill-rule:nonzero;stroke:none"
           d="M 80,144 H 40 v 4 h 40 z" /><path
           id="path72"
           style="fill:#bfbfbf;fill-opacity:1;fill-rule:nonzero;stroke:none"
           d="M 80,152 H 40 v 4 h 40 z" /><path
           id="path74"
           style="fill:#bfbfbf;fill-opacity:1;fill-rule:nonzero;stroke:none"
           d="M 80,160 H 40 v 4 h 40 z" /><path
           id="path76"
           style="fill:#bfbfbf;fill-opacity:1;fill-rule:nonzero;stroke:none"
           d="M 80,168 H 40 v 4 h 40 z" /><path
           id="path78"
           style="fill:#e6e6e6;fill-opacity:1;fill-rule:nonzero;stroke:none"
           d="m 220,140 h -48 v 36 h 48 z" /><path
           id="path80"
           style="fill:#bfbfbf;fill-opacity:1;fill-rule:nonzero;stroke:none"
           d="m 216,144 h -40 v 4 h 40 z" /><path
           id="path82"
           style="fill:#bfbfbf;fill-opacity:1;fill-rule:nonzero;stroke:none"
           d="m 216,152 h -40 v 4 h 40 z" /><g
           transform="translate(220,176)"
           id="g84"><path
             id="path86"
             style="fill:#d9d9d9;fill-opacity:1;fill-rule:nonzero;stroke:none"
             d="m 0,0 h -184 l -8,4 H 8 Z" /></g><path
           id="path88"
           style="fill:#bfbfbf;fill-opacity:1;fill-rule:nonzero;stroke:none"
           d="m 216,160 h -40 v 4 h 40 z" /><path
           id="path90"
           style="fill:#bfbfbf;fill-opacity:1;fill-rule:nonzero;stroke:none"
           d="m 216,168 h -40 v 4 h 40 z" /><path
           id="path92"
           style="fill:#8c8c8c;fill-opacity:1;fill-rule:nonzero;stroke:none"
           d="M 172,140 H 84 v 48 h 88 z" /><path
           id="path94"
           style="fill:#808080;fill-opacity:1;fill-rule:nonzero;stroke:none"
           d="M 164,148 H 92 v 24 h 72 z" /><path
           id="path96"
           style="fill:#737373;fill-opacity:1;fill-rule:nonzero;stroke:none"
           d="M 164,172 H 92 v 4 h 72 z" /><path
           id="path98"
           style="fill:#737373;fill-opacity:1;fill-rule:nonzero;stroke:none"
           d="M 164,159 H 92 v 2 h 72 z" /><path
           id="path100"
           style="fill:#cccccc;fill-opacity:1;fill-rule:nonzero;stroke:none"
           d="M 84,180 H 28 v 20 h 56 z" /><path
           id="path102"
           style="fill:#cccccc;fill-opacity:1;fill-rule:nonzero;stroke:none"
           d="m 228,180 h -56 v 20 h 56 z" /><path
           id="path104"
           style="fill:#e6e6e6;fill-opacity:1;fill-rule:nonzero;stroke:none"
           d="M 172,188 H 84 v 12 h 88 z" /></g></g></g></svg>