<svg xmlns="http://www.w3.org/2000/svg" xml:space="preserve" width="330.666" height="213.333" viewBox="0 0 330.666 213.333"><defs><clipPath id="a" clipPathUnits="userSpaceOnUse"><path d="M0 256h256V0H0Z"/></clipPath><clipPath id="b" clipPathUnits="userSpaceOnUse"><path d="M4 208h248V48H4Z"/></clipPath></defs><g clip-path="url(#a)" transform="matrix(1.33333 0 0 -1.33333 -5.334 277.333)"><g clip-path="url(#b)" style="opacity:.5"><path d="m0 0-8.438 5.625v23.719A8 8 0 0 1-10.78 35l-4 4a8 8 0 0 1-5.657 2.344h-200A8 8 0 0 1-226.094 39l-4-4a8 8 0 0 1-2.343-5.656V5.625L-240.875 0a8 8 0 0 1-3.562-6.656v-88c0-13.234 10.766-24 24-24h200c13.233 0 24 10.766 24 24v88A8 8 0 0 1 0 0" style="fill:#fff;fill-opacity:1;fill-rule:nonzero;stroke:none" transform="translate(248.438 166.656)"/></g><path d="M0 0v28l-4 4V12l-8-4v-36h-184V8l-8 4v20l-4-4V0l-12-8v-88c0-8.837 7.164-16 16-16H-4c8.837 0 16 7.163 16 16v88z" style="fill:#bfbfbf;fill-opacity:1;fill-rule:nonzero;stroke:none" transform="translate(232 168)"/><path d="M0 0h-200a8 8 0 0 0-8 8v16H8V8a8 8 0 0 0-8-8" style="fill:#e6e6e6;fill-opacity:1;fill-rule:nonzero;stroke:none" transform="translate(228 68)"/><path d="M204 76h-20v12h20z" style="fill:red;fill-opacity:1;fill-rule:nonzero;stroke:none"/><path d="M132 86h-8v2h8z" style="fill:#404040;fill-opacity:1;fill-rule:nonzero;stroke:none"/><path d="m0 0-16-48h216L184 0Z" style="fill:#b3b3b3;fill-opacity:1;fill-rule:nonzero;stroke:none" transform="translate(36 140)"/><path d="m0 0-12-40h200L176 0Z" style="fill:#0000b8;fill-opacity:1;fill-rule:nonzero;stroke:none" transform="translate(40 136)"/><path d="m0 0-4.801 16h-170.047l-4.8-16z" style="fill:#e6e6e6;fill-opacity:1;fill-rule:nonzero;stroke:none" transform="translate(217.824 116)"/><path d="m0 0-1.2-4h182.047l-1.199 4z" style="fill:#e77f22;fill-opacity:1;fill-rule:nonzero;stroke:none" transform="translate(38.176 116)"/><path d="M0 0h189.248l-1.2 4H1.2Z" style="fill:#bfbfbf;fill-opacity:1;fill-rule:nonzero;stroke:none" transform="translate(33.376 100)"/><path d="M84 140H36v36h48z" style="fill:#e6e6e6;fill-opacity:1;fill-rule:nonzero;stroke:none"/><path d="M80 144H40v4h40zm0 8H40v4h40zm0 8H40v4h40zm0 8H40v4h40z" style="fill:#bfbfbf;fill-opacity:1;fill-rule:nonzero;stroke:none"/><path d="M220 140h-48v36h48z" style="fill:#e6e6e6;fill-opacity:1;fill-rule:nonzero;stroke:none"/><path d="M216 144h-40v4h40zm0 8h-40v4h40z" style="fill:#bfbfbf;fill-opacity:1;fill-rule:nonzero;stroke:none"/><path d="M0 0h-184l-8 4H8Z" style="fill:#d9d9d9;fill-opacity:1;fill-rule:nonzero;stroke:none" transform="translate(220 176)"/><path d="M216 160h-40v4h40zm0 8h-40v4h40z" style="fill:#bfbfbf;fill-opacity:1;fill-rule:nonzero;stroke:none"/><path d="M172 140H84v48h88z" style="fill:#8c8c8c;fill-opacity:1;fill-rule:nonzero;stroke:none"/><path d="M164 148H92v24h72z" style="fill:gray;fill-opacity:1;fill-rule:nonzero;stroke:none"/><path d="M164 172H92v4h72zm0-13H92v2h72z" style="fill:#737373;fill-opacity:1;fill-rule:nonzero;stroke:none"/><path d="M84 180H28v20h56zm144 0h-56v20h56z" style="fill:#ccc;fill-opacity:1;fill-rule:nonzero;stroke:none"/><path d="M172 188H84v12h88z" style="fill:#e6e6e6;fill-opacity:1;fill-rule:nonzero;stroke:none"/></g></svg>