<svg xmlns="http://www.w3.org/2000/svg" xml:space="preserve" width="240" height="330.667" viewBox="0 0 240 330.667"><defs><clipPath id="a" clipPathUnits="userSpaceOnUse"><path d="M0 256h256V0H0Z"/></clipPath><clipPath id="b" clipPathUnits="userSpaceOnUse"><path d="M38 252h180V4H38Z"/></clipPath></defs><g clip-path="url(#a)" transform="matrix(1.33333 0 0 -1.33333 -50.667 336)"><g clip-path="url(#b)" style="opacity:.5"><path d="M0 0h-148c-8.822 0-16-7.18-16-16.006v-195.966h2.71a15.94 15.94 0 0 1 6.12-5.391C-132.331-228.806-91.416-248-74-248c17.415 0 58.331 19.194 81.17 30.637a15.9 15.9 0 0 1 6.119 5.391H16v195.966C16-7.18 8.822 0 0 0" style="fill:#fff;fill-opacity:1;fill-rule:nonzero;stroke:none" transform="translate(202 252)"/></g><path d="M0 0h-148c-4.4 0-8-3.603-8-8.006v-187.966h.064a7.98 7.98 0 0 1 4.349-6.239C-137.069-209.483-90.77-232-74-232s63.069 22.517 77.587 29.789a7.98 7.98 0 0 1 4.349 6.239H8V-8.006C8-3.603 4.4 0 0 0" style="fill:#333;fill-opacity:1;fill-rule:nonzero;stroke:none" transform="translate(202 244)"/><path d="M200 204H56v20h144z" style="fill:#404040;fill-opacity:1;fill-rule:nonzero;stroke:none"/><path d="M78 204h-2v20h2zm102 0h-2v20h2z" style="fill:#333;fill-opacity:1;fill-rule:nonzero;stroke:none"/><path d="M0 0h-132v-4h-4v-4c0-7.373 8.893-12 16-12h108c7.107 0 16 4.627 16 12v4H0Zm-2-2v-4h4v-2c0-6.196-8.154-10-14-10h-108c-5.846 0-14 3.804-14 10v2h4v4z" style="fill:#262626;fill-opacity:1;fill-rule:nonzero;stroke:none" transform="translate(194 224)"/><path d="M197 213H59v2h138zm13-21H46v4h164z" style="fill:#262626;fill-opacity:1;fill-rule:nonzero;stroke:none"/><path d="M0 0c-37.495 0-68-30.505-68-68s30.505-68 68-68 68 30.505 68 68S37.495 0 0 0" style="fill:#404040;fill-opacity:1;fill-rule:nonzero;stroke:none" transform="translate(128 188)"/><path d="M0 0c0-30.928-25.072-56-56-56s-56 25.072-56 56 25.072 56 56 56S0 30.928 0 0" style="fill:#333;fill-opacity:1;fill-rule:nonzero;stroke:none" transform="translate(184 120)"/><path d="M0 0h34.79c1.248 0 2.474.301 3.595.848A48.25 48.25 0 0 1 54.39 13.47c2.148 2.597.266 6.53-3.105 6.53h-67.78c-3.371 0-5.253-3.933-3.106-6.53A48.3 48.3 0 0 1-3.595.848 8.2 8.2 0 0 1 0 0" style="fill:#262626;fill-opacity:1;fill-rule:nonzero;stroke:none" transform="translate(110.605 76)"/><path d="M0 0v-6c0-1.104.851-2 1.901-2H22.81c2.467 0 4.868.842 6.842 2.4l7.604 6c1.461 1.153.685 3.6-1.141 3.6H3.802C1.702 4 0 2.209 0 0" style="fill:gray;fill-opacity:1;fill-rule:nonzero;stroke:none" transform="translate(120 88)"/><path d="M0 0c-1.1 0-2 .9-2 2l-3.542 10.624c-.346 1.039.202 2.173 1.239 2.522C-2.777 15.662-.674 16 0 16c1.1 0 2-.9 2-2V2c0-1.1-.9-2-2-2" style="fill:#404040;fill-opacity:1;fill-rule:nonzero;stroke:none" transform="translate(98 32.09)"/><path d="M0 0c-1.1 0-2 .9-2 2l-3.542 10.624c-.346 1.039.202 2.173 1.239 2.522C-2.777 15.662-.674 16 0 16c1.1 0 2-.9 2-2V2c0-1.1-.9-2-2-2" style="fill:#404040;fill-opacity:1;fill-rule:nonzero;stroke:none" transform="translate(82 36.09)"/><path d="M0 0c1.1 0 2 .9 2 2l3.541 10.624c.347 1.039-.201 2.173-1.238 2.522C2.776 15.662.675 16 0 16c-1.1 0-2-.9-2-2V2c0-1.1.9-2 2-2" style="fill:#404040;fill-opacity:1;fill-rule:nonzero;stroke:none" transform="translate(158 32.09)"/><path d="M0 0c1.1 0 2 .9 2 2l3.541 10.624c.347 1.039-.201 2.173-1.238 2.522C2.776 15.662.675 16 0 16c-1.1 0-2-.9-2-2V2c0-1.1.9-2 2-2" style="fill:#404040;fill-opacity:1;fill-rule:nonzero;stroke:none" transform="translate(174 36.09)"/><path d="M0 0h-1.61a3.97 3.97 0 0 1-2.828-1.172L-7.267-4a3.98 3.98 0 0 1-1.171-2.828V-8.93a3.99 3.99 0 0 1 1.781-3.328l11.109-7.406a2 2 0 0 1 3.05 2.149L3.88-3.029A3.99 3.99 0 0 1 0 0" style="fill:#262626;fill-opacity:1;fill-rule:nonzero;stroke:none" transform="translate(60.438 62.09)"/><path d="M0 0a4 4 0 1 0-8 0 4 4 0 0 0 8 0" style="fill:#404040;fill-opacity:1;fill-rule:nonzero;stroke:none" transform="translate(62 56.09)"/><path d="M0 0a2 2 0 1 0-4.001.001A2 2 0 0 0 0 0" style="fill:#404040;fill-opacity:1;fill-rule:nonzero;stroke:none" transform="translate(66 48.09)"/><path d="M0 0a3.995 3.995 0 0 1-3.881-3.029l-3.621-14.486a2.002 2.002 0 0 1 3.05-2.149l11.109 7.406A3.99 3.99 0 0 1 8.438-8.93v2.102A3.98 3.98 0 0 1 7.267-4L4.438-1.172A3.97 3.97 0 0 1 1.61 0Z" style="fill:#262626;fill-opacity:1;fill-rule:nonzero;stroke:none" transform="translate(195.577 62.09)"/><path d="M0 0a4 4 0 1 1 8 0 4 4 0 0 1-8 0" style="fill:#3096cf;fill-opacity:1;fill-rule:nonzero;stroke:none" transform="translate(194.016 56.09)"/><path d="M0 0h-20c-6.6 0-12 5.4-12 12 0 4.4 3.6 8 8 8H4c4.4 0 8-3.6 8-8C12 5.4 6.6 0 0 0" style="fill:#262626;fill-opacity:1;fill-rule:nonzero;stroke:none" transform="translate(138 20)"/><path d="M144 24.091h-32v12h32z" style="fill:gray;fill-opacity:1;fill-rule:nonzero;stroke:none"/><path d="M0 0h-10.408c-3.296 0-6.543.557-9.652 1.653l-61.134 21.576a14.9 14.9 0 0 1-4.524.848l-1.517.049.062 1.998 1.518-.048a17 17 0 0 0 5.127-.96L-19.394 3.54A26.9 26.9 0 0 1-10.408 2H0c3.068 0 6.092.518 8.985 1.54l60.894 21.491c1.822.643 3.725.969 5.657.969h1.26v-2h-1.26c-1.704 0-3.384-.288-4.991-.855L9.651 1.653A29 29 0 0 0 0 0" style="fill:#262626;fill-opacity:1;fill-rule:nonzero;stroke:none" transform="translate(133.22 45.967)"/></g></svg>