<svg xmlns="http://www.w3.org/2000/svg" xml:space="preserve" width="330.667" height="320" viewBox="0 0 330.667 320"><defs><clipPath id="a" clipPathUnits="userSpaceOnUse"><path d="M0 256h256V0H0Z"/></clipPath><clipPath id="b" clipPathUnits="userSpaceOnUse"><path d="M4 248h248V8H4Z"/></clipPath></defs><g clip-path="url(#a)" transform="matrix(1.33333 0 0 -1.33333 -5.333 330.667)"><g clip-path="url(#b)" style="opacity:.5"><path d="M0 0h-208c-12.149 0-20-7.851-20-20v-189.278a12.72 12.72 0 0 1 3.81-9.072l17.157-17.943A12.06 12.06 0 0 1-198.36-240H-9.348c3.297 0 6.484 1.378 8.742 3.779l16.895 17.967A12.72 12.72 0 0 1 20-209.278V-20C20-7.851 12.149 0 0 0" style="fill:#fff;fill-opacity:1;fill-rule:nonzero;stroke:none" transform="translate(232 248)"/></g><path d="M0 0h-208c-7.739 0-12-4.211-12-12v-189.278c0-1.168.426-2.235 1.127-3.057q.167-.195.354-.37l17.268-18.06A4 4 0 0 1-198.36-224H-9.348a4 4 0 0 1 2.914 1.26l16.995 18.073q.163.158.312.331v.001A4.7 4.7 0 0 1 12-201.278V-12C12-4.211 7.739 0 0 0" style="fill:#333;fill-opacity:1;fill-rule:nonzero;stroke:none" transform="translate(232 240)"/><path d="M0 0c-55.14 0-100 26.019-100 58s44.86 58 100 58 100-26.019 100-58S55.14 0 0 0" style="fill:#191919;fill-opacity:1;fill-rule:nonzero;stroke:none" transform="translate(128 108)"/><path d="M0 0c-48.523 0-88 20.636-88 46s39.477 46 88 46 88-20.636 88-46S48.523 0 0 0" style="fill:#333;fill-opacity:1;fill-rule:nonzero;stroke:none" transform="translate(128 120)"/><path d="M0 0h-116.04c-5.503 0-9.98 4.486-9.98 10s4.477 10 9.98 10H0c5.503 0 9.98-4.485 9.98-10S5.503 0 0 0" style="fill:#262626;fill-opacity:1;fill-rule:nonzero;stroke:none" transform="translate(186.313 43.92)"/><path d="M0 0h-21.104c-3.004 0-5.448 2.691-5.448 6s2.444 6 5.448 6H0c3.004 0 5.448-2.691 5.448-6S3.004 0 0 0" style="fill:#333;fill-opacity:1;fill-rule:nonzero;stroke:none" transform="translate(90.552 48)"/><path d="M0 0h-21.104c-3.003 0-5.448 2.691-5.448 6s2.445 6 5.448 6H0c3.004 0 5.448-2.691 5.448-6S3.004 0 0 0" style="fill:#333;fill-opacity:1;fill-rule:nonzero;stroke:none" transform="translate(186.552 48)"/><path d="M128.157 49.786h-1.198v5.229h1.198z" style="fill:#fff;fill-opacity:1;fill-rule:nonzero;stroke:none"/><path d="M0 0h-176a4 4 0 0 0-4 4v8H4V4a4 4 0 0 0-4-4" style="fill:#262626;fill-opacity:1;fill-rule:nonzero;stroke:none" transform="translate(216 228)"/><path d="M0 0h-2a2 2 0 0 0-2 2v6h4Z" style="fill:#333;fill-opacity:1;fill-rule:nonzero;stroke:none" transform="translate(46 232)"/><path d="M54 232h-4v8h4zm8 0h-4v8h4zm8 0h-4v8h4zm8 0h-4v8h4zm8 0h-4v8h4zm8 0h-4v8h4zm8 0h-4v8h4zm8 0h-4v8h4zm8 0h-4v8h4zm8 0h-4v8h4zm8 0h-4v8h4zm8 0h-4v8h4zm8 0h-4v8h4zm8 0h-4v8h4zm8 0h-4v8h4zm8 0h-4v8h4zm8 0h-4v8h4zm8 0h-4v8h4zm8 0h-4v8h4zm8 0h-4v8h4z" style="fill:#333;fill-opacity:1;fill-rule:nonzero;stroke:none"/><path d="M0 0h-2v8h4V2a2 2 0 0 0-2-2" style="fill:#333;fill-opacity:1;fill-rule:nonzero;stroke:none" transform="translate(212 232)"/><path d="M124 48h-4v8h4zm12 0h-4v8h4z" style="fill:#7b0000;fill-opacity:1;fill-rule:nonzero;stroke:none"/><path d="M130 48h-4v8h4z" style="fill:red;fill-opacity:1;fill-rule:nonzero;stroke:none"/><path d="M0 0h1.074L-1.97 42.61A46 46 0 0 0 .274 60.434l2.374 7.122a22.1 22.1 0 0 0 8.667 11.347 18.35 18.35 0 0 0 10.225 3.09l10.711-.012a46 46 0 0 0 6.018-.402l52.6-7a34.2 34.2 0 0 1 8.971 0l52.599 7c1.996.266 4.006.4 6.019.402l10.709.012h.022c2.837 0 5.667-.591 8.186-1.897 5.043-2.617 8.9-7.183 10.687-12.54l2.373-7.122a46 46 0 0 0 2.244-17.824L189.635 0h1.074a1 1 0 0 1 .997.929l2.968 41.539a48 48 0 0 1-2.342 18.598l-2.374 7.122a24 24 0 0 1-9.455 12.379 20.4 20.4 0 0 1-11.314 3.426h-.022l-10.712-.012a48 48 0 0 1-6.278-.419l-52.601-7a32 32 0 0 0-8.443 0l-52.6 7a48 48 0 0 1-6.28.419l-10.711.012h-.022a20.4 20.4 0 0 1-11.314-3.426A24 24 0 0 1 .75 68.188l-2.374-7.122a48 48 0 0 1-2.341-18.598L-.998.929A1 1 0 0 1 0 0" style="fill:#262626;fill-opacity:1;fill-rule:nonzero;stroke:none" transform="translate(32.645 16)"/><path d="M0 0h-49.223a4 4 0 0 0-3.945 3.343L-56.611 24l28.03-3.504a32 32 0 0 1 7.938 0L7.389 24 3.945 3.343A4 4 0 0 0 0 0" style="fill:#262626;fill-opacity:1;fill-rule:nonzero;stroke:none" transform="translate(152.611 72)"/><path d="M0 0h-160c-11 0-20-9-20-20v-52.5c0-8.768 5.718-16.265 13.608-18.946C-163.241-92.518-117.083-104.5-80-104.5S3.241-92.518 6.392-91.446C14.282-88.765 20-81.268 20-72.5V-20C20-9 11 0 0 0" style="fill:#262626;fill-opacity:1;fill-rule:nonzero;stroke:none" transform="translate(208 220.25)"/><path d="M0 0h-152c-6.6 0-12-5.4-12-12v-20c0-5.197 8-12 8-12s36-36 80-36S4-44 4-44s8 6.803 8 12v20C12-5.4 6.6 0 0 0m0-4c4.411 0 8-3.589 8-8v-20c0-1.957-3.476-6.291-6.591-8.953l-.123-.105-.113-.112C.824-41.518-34.227-76-76-76s-76.824 34.482-77.171 34.829l-.115.113-.123.105C-156.526-38.302-160-33.973-160-32v20c0 4.411 3.589 8 8 8z" style="fill:#191919;fill-opacity:1;fill-rule:nonzero;stroke:none" transform="translate(204 215.75)"/><path d="M0 0h-120c-8.8 0-16 7.2-16 16v4c0 8.8 7.2 16 16 16H0c8.8 0 16-7.2 16-16v-4C16 7.2 8.8 0 0 0" style="fill:#262626;fill-opacity:1;fill-rule:nonzero;stroke:none" transform="translate(188 171.75)"/><path d="M0 0h-118.417c-4.836 0-8.792 3.956-8.792 8.792v10.416c0 4.836 3.956 8.792 8.792 8.792H0c4.835 0 8.791-3.956 8.791-8.792V8.792C8.791 3.956 4.835 0 0 0" style="fill:#191919;fill-opacity:1;fill-rule:nonzero;stroke:none" transform="translate(187.209 175.75)"/><path d="M0 0h-89.072c-7.476 0-15.464 2.627-15.464 10v5.294h4.948V20H10.516v-4.706h4.948V10C15.464 2.627 7.476 0 0 0" style="fill:#191919;fill-opacity:1;fill-rule:nonzero;stroke:none" transform="translate(172.536 179.865)"/><path d="M0 0v-4.118c0-6.505 7.349-8.823 14.227-8.823h89.072c6.878 0 14.226 2.318 14.226 8.823V0h-4.948v4.706H4.948V0Z" style="fill:#262626;fill-opacity:1;fill-rule:nonzero;stroke:none" transform="translate(69.237 193.983)"/><path d="M84 180.865h-2v18h2zm4 0h-2v18h2zm86 0h-2v18h2zm-4 0h-2v18h2z" style="fill:#333;fill-opacity:1;fill-rule:nonzero;stroke:none"/><path d="M188 188.75H68v2h120z" style="fill:#191919;fill-opacity:1;fill-rule:nonzero;stroke:none"/><path d="M0 0c-2.06-3.09-10.315-14.25-16-14.25-8.583 0-28.959-4.244-44.895-12.211C-76.373-34.201-92.283-38.25-100-38.25s-23.627 4.049-39.105 11.789C-155.041-18.494-175.417-14.25-184-14.25c-5.668 0-13.934 11.16-16 14.25v-8c.351-.526 7.033-10.25 16-10.25 8.187 0 27.722-4.097 43.105-11.789 16.781-8.39 32.961-12.211 40.895-12.211s24.114 3.821 40.895 12.211C-43.722-22.347-24.187-18.25-16-18.25-7.033-18.25-.351-8.526 0-8z" style="fill:#191919;fill-opacity:1;fill-rule:nonzero;stroke:none" transform="translate(228 168)"/><path d="M36 195.75h-8v4h8zm0-8h-8v4h8zm0-8h-8v4h8zm192 16h-8v4h8zm0-8h-8v4h8zm0-8h-8v4h8z" style="fill:#191919;fill-opacity:1;fill-rule:nonzero;stroke:none"/><path d="M0 0h-24c-16.477 0-25.413-7.423-29.396-12.078-1.618-1.89-1.166-4.786.975-6.056C-36.162-27.784-12-28-12-28s24.162.216 40.421 9.866c2.141 1.27 2.593 4.166.975 6.056C25.412-7.423 16.477 0 0 0" style="fill:#191919;fill-opacity:1;fill-rule:nonzero;stroke:none" transform="translate(140 163.75)"/></g></svg>