<svg xmlns="http://www.w3.org/2000/svg" xml:space="preserve" width="330.667" height="170.667" viewBox="0 0 330.667 170.667"><defs><clipPath id="a" clipPathUnits="userSpaceOnUse"><path d="M0 256h256V0H0Z"/></clipPath><clipPath id="b" clipPathUnits="userSpaceOnUse"><path d="M4 192h248V64H4Z"/></clipPath></defs><g clip-path="url(#a)" transform="matrix(1.33333 0 0 -1.33333 -5.333 256)"><g clip-path="url(#b)" style="opacity:.5"><path d="M0 0h-248v-128H0V-8z" style="fill:#fff;fill-opacity:1;fill-rule:nonzero;stroke:none" transform="translate(252 192)"/></g></g><path d="M244 72H12v112h232z" style="fill:#262626;fill-opacity:1;fill-rule:nonzero;stroke:none" transform="matrix(1.33333 0 0 -1.33333 -5.333 256)"/><path d="M212 140H44v24h168z" style="fill:#333;fill-opacity:1;fill-rule:nonzero;stroke:none" transform="matrix(1.33333 0 0 -1.33333 -5.333 256)"/><path d="M208 144h-80v20h80z" style="fill:#262626;fill-opacity:1;fill-rule:nonzero;stroke:none" transform="matrix(1.33333 0 0 -1.33333 -5.333 256)"/><path d="M208 148h-80v-4h80z" style="fill:#404040;fill-opacity:1;fill-rule:nonzero;stroke:none" transform="matrix(1.33333 0 0 -1.33333 -5.333 256)"/><path d="M136 148h-2v12h2zm66 0h-2v12h2z" style="fill:#333;fill-opacity:1;fill-rule:nonzero;stroke:none" transform="matrix(1.33333 0 0 -1.33333 -5.333 256)"/><path d="M208 160h-80v2h80zm-78 0h4v-4h-4zm72 0h4v-4h-4z" style="fill:#191919;fill-opacity:1;fill-rule:nonzero;stroke:none" transform="matrix(1.33333 0 0 -1.33333 -5.333 256)"/><path d="M208 164h-80v4h80z" style="fill:#333;fill-opacity:1;fill-rule:nonzero;stroke:none" transform="matrix(1.33333 0 0 -1.33333 -5.333 256)"/><path d="M48 176h-2v2h2zm0-4h-2v2h2zm0-4h-2v2h2zm4 8h-2v2h2zm0-4h-2v2h2zm0-4h-2v2h2zm4 8h-2v2h2zm0-4h-2v2h2zm0-4h-2v2h2zm4 8h-2v2h2zm0-4h-2v2h2zm0-4h-2v2h2zm4 8h-2v2h2zm0-4h-2v2h2zm0-4h-2v2h2zm4 8h-2v2h2zm0-4h-2v2h2zm0-4h-2v2h2zm4 8h-2v2h2zm0-4h-2v2h2zm0-4h-2v2h2zm4 8h-2v2h2zm0-4h-2v2h2zm0-4h-2v2h2zm4 8h-2v2h2zm0-4h-2v2h2zm0-4h-2v2h2zm4 8h-2v2h2zm0-4h-2v2h2zm0-4h-2v2h2zm4 8h-2v2h2zm0-4h-2v2h2zm0-4h-2v2h2zm4 8h-2v2h2zm0-4h-2v2h2zm0-4h-2v2h2zm4 8h-2v2h2zm0-4h-2v2h2zm0-4h-2v2h2zm4 8h-2v2h2zm0-4h-2v2h2zm0-4h-2v2h2zm4 8h-2v2h2zm0-4h-2v2h2zm0-4h-2v2h2zm4 8h-2v2h2zm0-4h-2v2h2zm0-4h-2v2h2zm4 8h-2v2h2zm0-4h-2v2h2zm0-4h-2v2h2zm4 8h-2v2h2zm0-4h-2v2h2zm0-4h-2v2h2zm4 8h-2v2h2zm0-4h-2v2h2zm0-4h-2v2h2zm4 8h-2v2h2zm0-4h-2v2h2zm0-4h-2v2h2zm4 8h-2v2h2zm0-4h-2v2h2zm0-4h-2v2h2zm4 8h-2v2h2zm0-4h-2v2h2zm0-4h-2v2h2zm4 8h-2v2h2zm0-4h-2v2h2zm0-4h-2v2h2zm4 8h-2v2h2zm0-4h-2v2h2zm0-4h-2v2h2zm4 8h-2v2h2zm0-4h-2v2h2zm0-4h-2v2h2zm4 8h-2v2h2zm0-4h-2v2h2zm0-4h-2v2h2zm4 8h-2v2h2zm0-4h-2v2h2zm0-4h-2v2h2zm4 8h-2v2h2zm0-4h-2v2h2zm0-4h-2v2h2zm4 8h-2v2h2zm0-4h-2v2h2zm0-4h-2v2h2zm4 8h-2v2h2zm0-4h-2v2h2zm0-4h-2v2h2zm4 8h-2v2h2zm0-4h-2v2h2zm0-4h-2v2h2zm4 8h-2v2h2zm0-4h-2v2h2zm0-4h-2v2h2zm4 8h-2v2h2zm0-4h-2v2h2zm0-4h-2v2h2zm4 8h-2v2h2zm0-4h-2v2h2zm0-4h-2v2h2zm4 8h-2v2h2zm0-4h-2v2h2zm0-4h-2v2h2zm4 8h-2v2h2zm0-4h-2v2h2zm0-4h-2v2h2zm4 8h-2v2h2zm0-4h-2v2h2zm0-4h-2v2h2zm4 8h-2v2h2zm0-4h-2v2h2zm0-4h-2v2h2zm4 8h-2v2h2zm0-4h-2v2h2zm0-4h-2v2h2zm4 8h-2v2h2zm0-4h-2v2h2zm0-4h-2v2h2zm4 8h-2v2h2zm0-4h-2v2h2zm0-4h-2v2h2zm4 8h-2v2h2zm0-4h-2v2h2zm0-4h-2v2h2z" style="fill:#191919;fill-opacity:1;fill-rule:nonzero;stroke:none" transform="matrix(1.33333 0 0 -1.33333 -5.333 256)"/><path d="M208 96h-80v40h80z" style="fill:#b80000;fill-opacity:1;fill-rule:nonzero;stroke:none" transform="matrix(1.33333 0 0 -1.33333 -5.333 256)"/><path d="M208 124h-80v8h80z" style="fill:#0d0d0d;fill-opacity:1;fill-rule:nonzero;stroke:none" transform="matrix(1.33333 0 0 -1.33333 -5.333 256)"/><path d="m0 0 4 8h16l-4-8Z" style="fill:#0d0d0d;fill-opacity:1;fill-rule:nonzero;stroke:none" transform="matrix(1.33333 0 0 -1.33333 234.667 112)"/><path d="M0 0h-16l-4-8h16zm-1.618-1-3-6h-13.764l3 6z" style="fill:#fff;fill-opacity:1;fill-rule:nonzero;stroke:none" transform="matrix(1.33333 0 0 -1.33333 261.333 101.333)"/><path d="m0 0 32-20v-24L0-96Z" style="fill:#191919;fill-opacity:1;fill-rule:nonzero;stroke:none" transform="matrix(1.33333 0 0 -1.33333 10.667 10.667)"/><path d="m0 0-32-20v-24L0-96Z" style="fill:#191919;fill-opacity:1;fill-rule:nonzero;stroke:none" transform="matrix(1.33333 0 0 -1.33333 320 10.667)"/><path d="M244 88H12v1.875h232zM48 76H28v4h20z" style="fill:#b80000;fill-opacity:1;fill-rule:nonzero;stroke:none" transform="matrix(1.33333 0 0 -1.33333 -5.333 256)"/><path d="M124 80h-20v-4h20zm-1-3h-18v2h18zm25 3h-20v-4h20zm-1-3h-18v2h18zm73 3h-20v-4h20zm-1-3h-18v2h18z" style="fill:#fff;fill-opacity:1;fill-rule:nonzero;stroke:none" transform="matrix(1.33333 0 0 -1.33333 -5.333 256)"/><path d="M192 72h-36v12h36z" style="fill:#191919;fill-opacity:1;fill-rule:nonzero;stroke:none" transform="matrix(1.33333 0 0 -1.33333 -5.333 256)"/><path d="M0 0h-16l4 4H4Z" style="fill:#fff;fill-opacity:1;fill-rule:nonzero;stroke:none" transform="matrix(1.33333 0 0 -1.33333 192 98.667)"/><path d="M0 0h-16l-4-4h16zm-2.414-1-2-2h-13.172l2 2z" style="fill:#fff;fill-opacity:1;fill-rule:nonzero;stroke:none" transform="matrix(1.33333 0 0 -1.33333 229.333 93.333)"/><path d="M0 0h-16l-4-4h16zm-2.414-1-2-2h-13.172l2 2z" style="fill:#fff;fill-opacity:1;fill-rule:nonzero;stroke:none" transform="matrix(1.33333 0 0 -1.33333 240 117.333)"/><path d="M0 0h-16l4 4H4Z" style="fill:#fff;fill-opacity:1;fill-rule:nonzero;stroke:none" transform="matrix(1.33333 0 0 -1.33333 202.667 122.667)"/><path d="M136 111.5h46.5v1H136Z" style="fill:#fff;fill-opacity:1;fill-rule:nonzero;stroke:none" transform="matrix(1.33333 0 0 -1.33333 -5.333 256)"/><path d="M163.5 112h1v6h-1zm8-8h1v7.999h-1zm-36-2.5h1V120h-1z" style="fill:#fff;fill-opacity:1;fill-rule:nonzero;stroke:none" transform="matrix(1.33333 0 0 -1.33333 -5.333 256)"/><path d="m0 0 20-4-24-8Z" style="fill:#0d0d0d;fill-opacity:1;fill-rule:nonzero;stroke:none" transform="matrix(1.33333 0 0 -1.33333 186.667 101.333)"/><path d="m0 0-4-12 24 8zm.67-1.153 15.441-3.089-18.53-6.177z" style="fill:#fff;fill-opacity:1;fill-rule:nonzero;stroke:none" transform="matrix(1.33333 0 0 -1.33333 186.667 101.333)"/><path d="M136 101.5h8v1h-8z" style="fill:#fff;fill-opacity:1;fill-rule:nonzero;stroke:none" transform="matrix(1.33333 0 0 -1.33333 -5.333 256)"/></svg>