<svg xmlns="http://www.w3.org/2000/svg" xml:space="preserve" viewBox="0 0 256 256"><path d="m246.734 207.003-14.381-47.994a16 16 0 0 0-4.389-7.093q.035-.454.035-.916v-50.005A9.99 9.99 0 0 0 231.164 89a9.99 9.99 0 0 0-3.165-11.995V43c0-5.322-2.251-12.871-12.973-18.615-5.388-2.887-12.663-5.161-21.622-6.761-4.853-.867-10.197-1.538-15.884-1.996l-4.529-.566a8 8 0 0 0-.992-.062h-88q-.498 0-.992.062l-4.53.566c-5.687.458-11.03 1.13-15.883 1.996-8.959 1.6-16.234 3.875-21.622 6.761C30.25 30.129 27.999 37.678 27.999 43v108q0 .462.035.916a16 16 0 0 0-4.389 7.093L9.264 207.003c-.694 2.085-3.669 12.538 2.891 21.857 5.67 8.056 16.281 12.14 31.538 12.14 7.311 0 15.904-.94 25.55-2.795h117.511c9.646 1.855 18.239 2.795 25.55 2.795 15.261 0 25.874-4.085 31.543-12.142 6.558-9.317 3.584-19.766 2.887-21.855" style="opacity:.5;fill:#fff"/><path d="M164 24H92s-14 0-27.999 2.5C50 29 36 34 36 44v108a4 4 0 0 0 4 4h4v-12h168v12h4a4 4 0 0 0 4-4V44c0-20-56-20-56-20" style="fill:#354f9f"/><path d="M172 24H84l-19.999 2.5S76 28 80 32h96c4-4 15.999-5.5 15.999-5.5z" style="fill:#4b5da7"/><path d="M148 28h16v4h-16z" style="fill:#354f9f"/><path d="M132 132H48a4 4 0 0 1-4-4v-24h88z" style="fill:#4b5da7"/><path d="M44 40v68a4 4 0 0 0 4 4h72v12a8 8 0 0 0 8 8h12v4h56v-4h12a4 4 0 0 0 4-4V48c0-6.627-5.373-12-12-12H48a4 4 0 0 0-4 4" style="fill:#263979"/><path d="m239.115 210.442-14.424-48.137a7.98 7.98 0 0 0-3.386-4.469C218.38 156 216 156 216 156h-4v-12H44v12h-4s-2.38 0-5.305 1.836a7.98 7.98 0 0 0-3.386 4.469l-14.424 48.137S4.98 243.663 68.474 231.205h119.052c63.494 12.458 51.589-20.763 51.589-20.763" style="fill:#16a085"/><path d="M56 148h144v4H56zm4 12c6.6 0 10.457 5.4 8.571 12l-9.143 32C57.543 210.6 50.6 216 44 216h-8c-6.6 0-10.457-5.4-8.571-12l9.143-32c1.886-6.6 8.829-12 15.429-12zm0-2h-8c-7.449 0-15.233 6.034-17.352 13.451l-9.143 32c-1.098 3.843-.532 7.632 1.553 10.396C29.078 216.525 32.254 218 36 218h8c7.449 0 15.233-6.034 17.352-13.451l9.143-32c1.098-3.843.532-7.632-1.553-10.396C66.922 159.475 63.746 158 60 158" style="fill:#0e6654"/><path d="m80 160-8 48h136l-8-48z" style="fill:#ffcb05"/><ellipse cx="48" cy="182" rx="12" ry="6" style="fill:#b80000"/><path d="M224 86a2 2 0 0 0-2-2h-2v-4h-2a2 2 0 0 0-2 2v12a2 2 0 0 0 2 2h4a2 2 0 1 0 0-4h-1a1 1 0 0 1-1-1v-2a1 1 0 0 1 1-1h1a2 2 0 0 0 2-2" style="fill:#b80000"/><ellipse cx="46.395" cy="196.286" rx="5.1" ry="3.362" style="fill:#fff" transform="rotate(-43.886 46.398 196.295)"/><ellipse cx="41.823" cy="207.714" rx="5.1" ry="3.362" style="fill:#f39b11" transform="rotate(-43.886 41.827 207.724)"/><ellipse cx="54.109" cy="202" rx="6.137" ry="2.793" style="fill:#00b800" transform="rotate(-6.316 54.11 202.002)"/><ellipse cx="34.109" cy="202" rx="6.137" ry="2.793" style="fill:#354f9f" transform="rotate(-6.316 34.11 202.002)"/><path d="M225.186 214.153a4.01 4.01 0 0 0 2.747-4.945l-7.692-26.923a4.01 4.01 0 0 0-4.945-2.747 4.01 4.01 0 0 0-2.747 4.945l7.692 26.923a4.013 4.013 0 0 0 4.945 2.747" style="fill:#0e6654"/><path d="M215.296 179.538a4.01 4.01 0 0 0 2.747-4.945l-2.198-7.692a4.01 4.01 0 0 0-4.945-2.747 4.01 4.01 0 0 0-2.747 4.945l2.198 7.692a4.013 4.013 0 0 0 4.945 2.747" style="fill:#b80000"/><path d="M222.988 206.46a4.01 4.01 0 0 0 2.747-4.945l-7.692-26.923a4.01 4.01 0 0 0-4.945-2.747 4.01 4.01 0 0 0-2.747 4.945l7.692 26.923a4.01 4.01 0 0 0 4.945 2.747" style="fill:#ffcb05"/><path d="M182 228h-4c-1.1 0-2-.9-2-2s.9-2 2-2h4c1.1 0 2 .9 2 2s-.9 2-2 2" style="fill:#0e6654"/><path d="M186 228h-4c-1.1 0-2-.9-2-2s.9-2 2-2h4c1.1 0 2 .9 2 2s-.9 2-2 2" style="fill:#ff0"/><path d="M52 108h-2a2 2 0 0 1-2-2V42a2 2 0 0 1 2-2h2zm150 20h-72a6 6 0 0 1-6-6V46a6 6 0 0 1 6-6h66c6.627 0 12 5.373 12 12v70a6 6 0 0 1-6 6" style="fill:#354f9f"/><path d="M140 124h56v12h-56z" style="fill:#354f9f"/><path d="M140 128h56v4h-56z" style="fill:#ffcb05"/><circle cx="194" cy="46" r="2" style="fill:#ffcb05"/><circle cx="186" cy="46" r="2" style="fill:#ffcb05"/><circle cx="178" cy="46" r="2" style="fill:#ffcb05"/><circle cx="170" cy="46" r="2" style="fill:#ffcb05"/></svg>