<?xml version="1.0" encoding="iso-8859-1"?>
<!-- Generator: Adobe Illustrator 27.8.1, SVG Export Plug-In . SVG Version: 6.00 Build 0)  -->
<svg version="1.1" id="Layer_1" xmlns="http://www.w3.org/2000/svg" xmlns:xlink="http://www.w3.org/1999/xlink" x="0px" y="0px"
	 viewBox="0 0 256 256" style="enable-background:new 0 0 256 256;" xml:space="preserve">
<path style="opacity:0.5;fill:#FFFFFF;" d="M246.734,207.003l-14.381-47.994c-0.819-2.734-2.341-5.176-4.389-7.093
	c0.023-0.302,0.035-0.608,0.035-0.916v-12v-38.005c2.428-1.826,4-4.73,4-7.995c0-1.421-0.298-2.775-0.835-4
	c0.537-1.225,0.835-2.579,0.835-4c0-3.265-1.572-6.169-4-7.995V43c0-5.322-2.251-12.871-12.973-18.615
	c-5.388-2.887-12.663-5.161-21.622-6.761c-4.853-0.867-10.197-1.538-15.884-1.996l-4.529-0.566
	c-0.329-0.041-0.661-0.062-0.992-0.062h-8h-24h-8h-8h-8h-24h-8c-0.332,0-0.663,0.021-0.992,0.062l-4.53,0.566
	c-5.687,0.458-11.03,1.13-15.883,1.996c-8.959,1.6-16.234,3.875-21.622,6.761C30.25,30.129,27.999,37.678,27.999,43v4v92v12
	c0,0.308,0.012,0.613,0.035,0.916c-2.048,1.917-3.569,4.359-4.389,7.093L9.264,207.003c-0.694,2.085-3.669,12.538,2.891,21.857
	C17.825,236.916,28.436,241,43.693,241c7.311,0,15.904-0.94,25.55-2.795h50.819h15.873h50.819c9.646,1.855,18.239,2.795,25.55,2.795
	c15.261,0,25.874-4.085,31.543-12.142C250.405,219.541,247.431,209.092,246.734,207.003z"/>
<path style="fill:#354F9F;" d="M164,24c0,0-16,0-72,0c0,0-14,0-27.999,2.5C50,29,36,34,36,44v4v92v12c0,2.209,1.791,4,4,4h4v-12h168
	v12h4c2.209,0,4-1.791,4-4v-12V44C220,24,164,24,164,24z"/>
<path style="fill:#4B5DA7;" d="M172,24h-32h-8h-8h-8H84l-19.999,2.5C64.001,26.5,76,28,80,32h36h8h8h8h36c4-4,15.999-5.5,15.999-5.5
	L172,24z"/>
<rect x="148" y="28" style="fill:#354F9F;" width="16" height="4"/>
<path style="fill:#4B5DA7;" d="M132,132H48c-2.209,0-4-1.791-4-4v-24h88V132z"/>
<path style="fill:#263979;" d="M44,40v68c0,2.209,1.791,4,4,4h72v12c0,4.418,3.582,8,8,8h12v4h56v-4h12c2.209,0,4-1.791,4-4v-16v-4
	V48c0-6.627-5.373-12-12-12H48C45.791,36,44,37.791,44,40z"/>
<path style="fill:#16A085;" d="M239.115,210.442l-14.424-48.137c-0.553-1.847-1.753-3.444-3.386-4.469C218.38,156,216,156,216,156
	h-4v-12h-76.063h-15.874H44v12h-4c0,0-2.38,0-5.305,1.836c-1.633,1.025-2.833,2.622-3.386,4.469l-14.424,48.137
	c0,0-11.905,33.221,51.589,20.763h51.589h15.874h51.589C251.02,243.663,239.115,210.442,239.115,210.442z"/>
<rect x="56" y="148" style="fill:#0E6654;" width="144" height="4"/>
<g>
	<path style="fill:#0E6654;" d="M60,160c6.6,0,10.457,5.4,8.571,12l-9.143,32C57.543,210.6,50.6,216,44,216h-8
		c-6.6,0-10.457-5.4-8.571-12l9.143-32c1.886-6.6,8.829-12,15.429-12H60 M60,158h-8c-7.449,0-15.233,6.034-17.352,13.451l-9.143,32
		c-1.098,3.843-0.532,7.632,1.553,10.396C29.078,216.525,32.254,218,36,218h8c7.449,0,15.233-6.034,17.352-13.451l9.143-32
		c1.098-3.843,0.532-7.632-1.553-10.396C66.922,159.475,63.746,158,60,158L60,158z"/>
</g>
<polygon style="fill:#FFCB05;" points="80,160 72,208 208,208 200,160 "/>
<ellipse style="fill:#B80000;" cx="48" cy="182" rx="12" ry="6"/>
<path style="fill:#B80000;" d="M224,86L224,86c0-1.105-0.895-2-2-2h-2v-4h-2c-1.105,0-2,0.895-2,2v12c0,1.105,0.895,2,2,2h2h2
	c1.105,0,2-0.895,2-2l0,0c0-1.105-0.895-2-2-2h-1c-0.552,0-1-0.448-1-1v-2c0-0.552,0.448-1,1-1h1C223.105,88,224,87.105,224,86z"/>
<ellipse transform="matrix(0.7207 -0.6932 0.6932 0.7207 -123.1141 86.982)" style="fill:#FFFFFF;" cx="46.395" cy="196.286" rx="5.1" ry="3.362"/>
<ellipse transform="matrix(0.7207 -0.6932 0.6932 0.7207 -132.3135 87.0048)" style="fill:#F39B11;" cx="41.823" cy="207.714" rx="5.1" ry="3.362"/>
<ellipse transform="matrix(0.9939 -0.11 0.11 0.9939 -21.8918 7.1779)" style="fill:#00B800;" cx="54.109" cy="202" rx="6.137" ry="2.793"/>
<ellipse transform="matrix(0.9939 -0.11 0.11 0.9939 -22.0132 4.9779)" style="fill:#354F9F;" cx="34.109" cy="202" rx="6.137" ry="2.793"/>
<path style="fill:#0E6654;" d="M225.186,214.153L225.186,214.153c2.115-0.604,3.352-2.83,2.747-4.945l-7.692-26.923
	c-0.604-2.115-2.83-3.352-4.945-2.747h0c-2.115,0.604-3.352,2.83-2.747,4.945l7.692,26.923
	C220.846,213.521,223.071,214.757,225.186,214.153z"/>
<path style="fill:#B80000;" d="M215.296,179.538L215.296,179.538c2.115-0.604,3.352-2.83,2.747-4.945l-2.198-7.692
	c-0.604-2.115-2.83-3.352-4.945-2.747h0c-2.115,0.604-3.352,2.83-2.747,4.945l2.198,7.692
	C210.956,178.906,213.181,180.142,215.296,179.538z"/>
<path style="fill:#FFCB05;" d="M222.988,206.46L222.988,206.46c2.115-0.604,3.352-2.83,2.747-4.945l-7.692-26.923
	c-0.604-2.115-2.83-3.352-4.945-2.747l0,0c-2.115,0.604-3.352,2.83-2.747,4.945l7.692,26.923
	C218.648,205.829,220.873,207.065,222.988,206.46z"/>
<path style="fill:#0E6654;" d="M182,228h-4c-1.1,0-2-0.9-2-2l0,0c0-1.1,0.9-2,2-2h4c1.1,0,2,0.9,2,2l0,0
	C184,227.1,183.1,228,182,228z"/>
<path style="fill:#FFFF00;" d="M186,228h-4c-1.1,0-2-0.9-2-2l0,0c0-1.1,0.9-2,2-2h4c1.1,0,2,0.9,2,2l0,0
	C188,227.1,187.1,228,186,228z"/>
<path style="fill:#354F9F;" d="M52,108h-2c-1.105,0-2-0.895-2-2V42c0-1.105,0.895-2,2-2h2V108z"/>
<path style="fill:#354F9F;" d="M202,128h-72c-3.314,0-6-2.686-6-6V46c0-3.314,2.686-6,6-6h66c6.627,0,12,5.373,12,12v70
	C208,125.314,205.314,128,202,128z"/>
<rect x="140" y="124" style="fill:#354F9F;" width="56" height="12"/>
<rect x="140" y="128" style="fill:#FFCB05;" width="56" height="4"/>
<circle style="fill:#FFCB05;" cx="194" cy="46" r="2"/>
<circle style="fill:#FFCB05;" cx="186" cy="46" r="2"/>
<circle style="fill:#FFCB05;" cx="178" cy="46" r="2"/>
<circle style="fill:#FFCB05;" cx="170" cy="46" r="2"/>
</svg>
