<?xml version="1.0" encoding="UTF-8" standalone="no"?>
<svg
   xmlns:dc="http://purl.org/dc/elements/1.1/"
   xmlns:cc="http://creativecommons.org/ns#"
   xmlns:rdf="http://www.w3.org/1999/02/22-rdf-syntax-ns#"
   xmlns:svg="http://www.w3.org/2000/svg"
   xmlns="http://www.w3.org/2000/svg"
   viewBox="0 0 330.66665 170.66665"
   height="170.66666"
   width="330.66666"
   xml:space="preserve"
   id="svg2"
   version="1.1"><metadata
     id="metadata8"><rdf:RDF><cc:Work
         rdf:about=""><dc:format>image/svg+xml</dc:format><dc:type
           rdf:resource="http://purl.org/dc/dcmitype/StillImage" /></cc:Work></rdf:RDF></metadata><defs
     id="defs6"><clipPath
       id="clipPath18"
       clipPathUnits="userSpaceOnUse"><path
         id="path16"
         d="M 0,256 H 256 V 0 H 0 Z" /></clipPath><clipPath
       id="clipPath26"
       clipPathUnits="userSpaceOnUse"><path
         id="path24"
         d="M 4,192 H 252 V 64 H 4 Z" /></clipPath></defs><g
     transform="matrix(1.3333333,0,0,-1.3333333,-5.3333332,255.99999)"
     id="g10"><g
       id="g12"><g
         clip-path="url(#clipPath18)"
         id="g14"><g
           id="g20"><g
             id="g22" /><g
             id="g34"><g
               style="opacity:0.5"
               id="g32"
               clip-path="url(#clipPath26)"><g
                 id="g30"
                 transform="translate(252,192)"><path
                   id="path28"
                   style="fill:#ffffff;fill-opacity:1;fill-rule:nonzero;stroke:none"
                   d="m 0,0 h -8 -232 -8 v -8 -112 -8 h 8 232 8 v 8 112 z" /></g></g></g></g></g></g><path
       id="path36"
       style="fill:#262626;fill-opacity:1;fill-rule:nonzero;stroke:none"
       d="M 244,72 H 12 v 112 h 232 z" /><path
       id="path38"
       style="fill:#333333;fill-opacity:1;fill-rule:nonzero;stroke:none"
       d="M 212,140 H 44 v 24 h 168 z" /><path
       id="path40"
       style="fill:#262626;fill-opacity:1;fill-rule:nonzero;stroke:none"
       d="m 208,144 h -80 v 20 h 80 z" /><path
       id="path42"
       style="fill:#404040;fill-opacity:1;fill-rule:nonzero;stroke:none"
       d="m 208,148 h -80 v -4 h 80 z" /><path
       id="path44"
       style="fill:#333333;fill-opacity:1;fill-rule:nonzero;stroke:none"
       d="m 136,148 h -2 v 12 h 2 z" /><path
       id="path46"
       style="fill:#333333;fill-opacity:1;fill-rule:nonzero;stroke:none"
       d="m 202,148 h -2 v 12 h 2 z" /><path
       id="path48"
       style="fill:#191919;fill-opacity:1;fill-rule:nonzero;stroke:none"
       d="m 208,160 h -80 v 2 h 80 z" /><path
       id="path50"
       style="fill:#191919;fill-opacity:1;fill-rule:nonzero;stroke:none"
       d="m 130,160 h 4 v -4 h -4 z" /><path
       id="path52"
       style="fill:#191919;fill-opacity:1;fill-rule:nonzero;stroke:none"
       d="m 202,160 h 4 v -4 h -4 z" /><path
       id="path54"
       style="fill:#333333;fill-opacity:1;fill-rule:nonzero;stroke:none"
       d="m 208,164 h -80 v 4 h 80 z" /><path
       id="path56"
       style="fill:#191919;fill-opacity:1;fill-rule:nonzero;stroke:none"
       d="m 48,176 h -2 v 2 h 2 z" /><path
       id="path58"
       style="fill:#191919;fill-opacity:1;fill-rule:nonzero;stroke:none"
       d="m 48,172 h -2 v 2 h 2 z" /><path
       id="path60"
       style="fill:#191919;fill-opacity:1;fill-rule:nonzero;stroke:none"
       d="m 48,168 h -2 v 2 h 2 z" /><path
       id="path62"
       style="fill:#191919;fill-opacity:1;fill-rule:nonzero;stroke:none"
       d="m 52,176 h -2 v 2 h 2 z" /><path
       id="path64"
       style="fill:#191919;fill-opacity:1;fill-rule:nonzero;stroke:none"
       d="m 52,172 h -2 v 2 h 2 z" /><path
       id="path66"
       style="fill:#191919;fill-opacity:1;fill-rule:nonzero;stroke:none"
       d="m 52,168 h -2 v 2 h 2 z" /><path
       id="path68"
       style="fill:#191919;fill-opacity:1;fill-rule:nonzero;stroke:none"
       d="m 56,176 h -2 v 2 h 2 z" /><path
       id="path70"
       style="fill:#191919;fill-opacity:1;fill-rule:nonzero;stroke:none"
       d="m 56,172 h -2 v 2 h 2 z" /><path
       id="path72"
       style="fill:#191919;fill-opacity:1;fill-rule:nonzero;stroke:none"
       d="m 56,168 h -2 v 2 h 2 z" /><path
       id="path74"
       style="fill:#191919;fill-opacity:1;fill-rule:nonzero;stroke:none"
       d="m 60,176 h -2 v 2 h 2 z" /><path
       id="path76"
       style="fill:#191919;fill-opacity:1;fill-rule:nonzero;stroke:none"
       d="m 60,172 h -2 v 2 h 2 z" /><path
       id="path78"
       style="fill:#191919;fill-opacity:1;fill-rule:nonzero;stroke:none"
       d="m 60,168 h -2 v 2 h 2 z" /><path
       id="path80"
       style="fill:#191919;fill-opacity:1;fill-rule:nonzero;stroke:none"
       d="m 64,176 h -2 v 2 h 2 z" /><path
       id="path82"
       style="fill:#191919;fill-opacity:1;fill-rule:nonzero;stroke:none"
       d="m 64,172 h -2 v 2 h 2 z" /><path
       id="path84"
       style="fill:#191919;fill-opacity:1;fill-rule:nonzero;stroke:none"
       d="m 64,168 h -2 v 2 h 2 z" /><path
       id="path86"
       style="fill:#191919;fill-opacity:1;fill-rule:nonzero;stroke:none"
       d="m 68,176 h -2 v 2 h 2 z" /><path
       id="path88"
       style="fill:#191919;fill-opacity:1;fill-rule:nonzero;stroke:none"
       d="m 68,172 h -2 v 2 h 2 z" /><path
       id="path90"
       style="fill:#191919;fill-opacity:1;fill-rule:nonzero;stroke:none"
       d="m 68,168 h -2 v 2 h 2 z" /><path
       id="path92"
       style="fill:#191919;fill-opacity:1;fill-rule:nonzero;stroke:none"
       d="m 72,176 h -2 v 2 h 2 z" /><path
       id="path94"
       style="fill:#191919;fill-opacity:1;fill-rule:nonzero;stroke:none"
       d="m 72,172 h -2 v 2 h 2 z" /><path
       id="path96"
       style="fill:#191919;fill-opacity:1;fill-rule:nonzero;stroke:none"
       d="m 72,168 h -2 v 2 h 2 z" /><path
       id="path98"
       style="fill:#191919;fill-opacity:1;fill-rule:nonzero;stroke:none"
       d="m 76,176 h -2 v 2 h 2 z" /><path
       id="path100"
       style="fill:#191919;fill-opacity:1;fill-rule:nonzero;stroke:none"
       d="m 76,172 h -2 v 2 h 2 z" /><path
       id="path102"
       style="fill:#191919;fill-opacity:1;fill-rule:nonzero;stroke:none"
       d="m 76,168 h -2 v 2 h 2 z" /><path
       id="path104"
       style="fill:#191919;fill-opacity:1;fill-rule:nonzero;stroke:none"
       d="m 80,176 h -2 v 2 h 2 z" /><path
       id="path106"
       style="fill:#191919;fill-opacity:1;fill-rule:nonzero;stroke:none"
       d="m 80,172 h -2 v 2 h 2 z" /><path
       id="path108"
       style="fill:#191919;fill-opacity:1;fill-rule:nonzero;stroke:none"
       d="m 80,168 h -2 v 2 h 2 z" /><path
       id="path110"
       style="fill:#191919;fill-opacity:1;fill-rule:nonzero;stroke:none"
       d="m 84,176 h -2 v 2 h 2 z" /><path
       id="path112"
       style="fill:#191919;fill-opacity:1;fill-rule:nonzero;stroke:none"
       d="m 84,172 h -2 v 2 h 2 z" /><path
       id="path114"
       style="fill:#191919;fill-opacity:1;fill-rule:nonzero;stroke:none"
       d="m 84,168 h -2 v 2 h 2 z" /><path
       id="path116"
       style="fill:#191919;fill-opacity:1;fill-rule:nonzero;stroke:none"
       d="m 88,176 h -2 v 2 h 2 z" /><path
       id="path118"
       style="fill:#191919;fill-opacity:1;fill-rule:nonzero;stroke:none"
       d="m 88,172 h -2 v 2 h 2 z" /><path
       id="path120"
       style="fill:#191919;fill-opacity:1;fill-rule:nonzero;stroke:none"
       d="m 88,168 h -2 v 2 h 2 z" /><path
       id="path122"
       style="fill:#191919;fill-opacity:1;fill-rule:nonzero;stroke:none"
       d="m 92,176 h -2 v 2 h 2 z" /><path
       id="path124"
       style="fill:#191919;fill-opacity:1;fill-rule:nonzero;stroke:none"
       d="m 92,172 h -2 v 2 h 2 z" /><path
       id="path126"
       style="fill:#191919;fill-opacity:1;fill-rule:nonzero;stroke:none"
       d="m 92,168 h -2 v 2 h 2 z" /><path
       id="path128"
       style="fill:#191919;fill-opacity:1;fill-rule:nonzero;stroke:none"
       d="m 96,176 h -2 v 2 h 2 z" /><path
       id="path130"
       style="fill:#191919;fill-opacity:1;fill-rule:nonzero;stroke:none"
       d="m 96,172 h -2 v 2 h 2 z" /><path
       id="path132"
       style="fill:#191919;fill-opacity:1;fill-rule:nonzero;stroke:none"
       d="m 96,168 h -2 v 2 h 2 z" /><path
       id="path134"
       style="fill:#191919;fill-opacity:1;fill-rule:nonzero;stroke:none"
       d="m 100,176 h -2 v 2 h 2 z" /><path
       id="path136"
       style="fill:#191919;fill-opacity:1;fill-rule:nonzero;stroke:none"
       d="m 100,172 h -2 v 2 h 2 z" /><path
       id="path138"
       style="fill:#191919;fill-opacity:1;fill-rule:nonzero;stroke:none"
       d="m 100,168 h -2 v 2 h 2 z" /><path
       id="path140"
       style="fill:#191919;fill-opacity:1;fill-rule:nonzero;stroke:none"
       d="m 104,176 h -2 v 2 h 2 z" /><path
       id="path142"
       style="fill:#191919;fill-opacity:1;fill-rule:nonzero;stroke:none"
       d="m 104,172 h -2 v 2 h 2 z" /><path
       id="path144"
       style="fill:#191919;fill-opacity:1;fill-rule:nonzero;stroke:none"
       d="m 104,168 h -2 v 2 h 2 z" /><path
       id="path146"
       style="fill:#191919;fill-opacity:1;fill-rule:nonzero;stroke:none"
       d="m 108,176 h -2 v 2 h 2 z" /><path
       id="path148"
       style="fill:#191919;fill-opacity:1;fill-rule:nonzero;stroke:none"
       d="m 108,172 h -2 v 2 h 2 z" /><path
       id="path150"
       style="fill:#191919;fill-opacity:1;fill-rule:nonzero;stroke:none"
       d="m 108,168 h -2 v 2 h 2 z" /><path
       id="path152"
       style="fill:#191919;fill-opacity:1;fill-rule:nonzero;stroke:none"
       d="m 112,176 h -2 v 2 h 2 z" /><path
       id="path154"
       style="fill:#191919;fill-opacity:1;fill-rule:nonzero;stroke:none"
       d="m 112,172 h -2 v 2 h 2 z" /><path
       id="path156"
       style="fill:#191919;fill-opacity:1;fill-rule:nonzero;stroke:none"
       d="m 112,168 h -2 v 2 h 2 z" /><path
       id="path158"
       style="fill:#191919;fill-opacity:1;fill-rule:nonzero;stroke:none"
       d="m 116,176 h -2 v 2 h 2 z" /><path
       id="path160"
       style="fill:#191919;fill-opacity:1;fill-rule:nonzero;stroke:none"
       d="m 116,172 h -2 v 2 h 2 z" /><path
       id="path162"
       style="fill:#191919;fill-opacity:1;fill-rule:nonzero;stroke:none"
       d="m 116,168 h -2 v 2 h 2 z" /><path
       id="path164"
       style="fill:#191919;fill-opacity:1;fill-rule:nonzero;stroke:none"
       d="m 120,176 h -2 v 2 h 2 z" /><path
       id="path166"
       style="fill:#191919;fill-opacity:1;fill-rule:nonzero;stroke:none"
       d="m 120,172 h -2 v 2 h 2 z" /><path
       id="path168"
       style="fill:#191919;fill-opacity:1;fill-rule:nonzero;stroke:none"
       d="m 120,168 h -2 v 2 h 2 z" /><path
       id="path170"
       style="fill:#191919;fill-opacity:1;fill-rule:nonzero;stroke:none"
       d="m 124,176 h -2 v 2 h 2 z" /><path
       id="path172"
       style="fill:#191919;fill-opacity:1;fill-rule:nonzero;stroke:none"
       d="m 124,172 h -2 v 2 h 2 z" /><path
       id="path174"
       style="fill:#191919;fill-opacity:1;fill-rule:nonzero;stroke:none"
       d="m 124,168 h -2 v 2 h 2 z" /><path
       id="path176"
       style="fill:#191919;fill-opacity:1;fill-rule:nonzero;stroke:none"
       d="m 128,176 h -2 v 2 h 2 z" /><path
       id="path178"
       style="fill:#191919;fill-opacity:1;fill-rule:nonzero;stroke:none"
       d="m 128,172 h -2 v 2 h 2 z" /><path
       id="path180"
       style="fill:#191919;fill-opacity:1;fill-rule:nonzero;stroke:none"
       d="m 128,168 h -2 v 2 h 2 z" /><path
       id="path182"
       style="fill:#191919;fill-opacity:1;fill-rule:nonzero;stroke:none"
       d="m 132,176 h -2 v 2 h 2 z" /><path
       id="path184"
       style="fill:#191919;fill-opacity:1;fill-rule:nonzero;stroke:none"
       d="m 132,172 h -2 v 2 h 2 z" /><path
       id="path186"
       style="fill:#191919;fill-opacity:1;fill-rule:nonzero;stroke:none"
       d="m 132,168 h -2 v 2 h 2 z" /><path
       id="path188"
       style="fill:#191919;fill-opacity:1;fill-rule:nonzero;stroke:none"
       d="m 136,176 h -2 v 2 h 2 z" /><path
       id="path190"
       style="fill:#191919;fill-opacity:1;fill-rule:nonzero;stroke:none"
       d="m 136,172 h -2 v 2 h 2 z" /><path
       id="path192"
       style="fill:#191919;fill-opacity:1;fill-rule:nonzero;stroke:none"
       d="m 136,168 h -2 v 2 h 2 z" /><path
       id="path194"
       style="fill:#191919;fill-opacity:1;fill-rule:nonzero;stroke:none"
       d="m 140,176 h -2 v 2 h 2 z" /><path
       id="path196"
       style="fill:#191919;fill-opacity:1;fill-rule:nonzero;stroke:none"
       d="m 140,172 h -2 v 2 h 2 z" /><path
       id="path198"
       style="fill:#191919;fill-opacity:1;fill-rule:nonzero;stroke:none"
       d="m 140,168 h -2 v 2 h 2 z" /><path
       id="path200"
       style="fill:#191919;fill-opacity:1;fill-rule:nonzero;stroke:none"
       d="m 144,176 h -2 v 2 h 2 z" /><path
       id="path202"
       style="fill:#191919;fill-opacity:1;fill-rule:nonzero;stroke:none"
       d="m 144,172 h -2 v 2 h 2 z" /><path
       id="path204"
       style="fill:#191919;fill-opacity:1;fill-rule:nonzero;stroke:none"
       d="m 144,168 h -2 v 2 h 2 z" /><path
       id="path206"
       style="fill:#191919;fill-opacity:1;fill-rule:nonzero;stroke:none"
       d="m 148,176 h -2 v 2 h 2 z" /><path
       id="path208"
       style="fill:#191919;fill-opacity:1;fill-rule:nonzero;stroke:none"
       d="m 148,172 h -2 v 2 h 2 z" /><path
       id="path210"
       style="fill:#191919;fill-opacity:1;fill-rule:nonzero;stroke:none"
       d="m 148,168 h -2 v 2 h 2 z" /><path
       id="path212"
       style="fill:#191919;fill-opacity:1;fill-rule:nonzero;stroke:none"
       d="m 152,176 h -2 v 2 h 2 z" /><path
       id="path214"
       style="fill:#191919;fill-opacity:1;fill-rule:nonzero;stroke:none"
       d="m 152,172 h -2 v 2 h 2 z" /><path
       id="path216"
       style="fill:#191919;fill-opacity:1;fill-rule:nonzero;stroke:none"
       d="m 152,168 h -2 v 2 h 2 z" /><path
       id="path218"
       style="fill:#191919;fill-opacity:1;fill-rule:nonzero;stroke:none"
       d="m 156,176 h -2 v 2 h 2 z" /><path
       id="path220"
       style="fill:#191919;fill-opacity:1;fill-rule:nonzero;stroke:none"
       d="m 156,172 h -2 v 2 h 2 z" /><path
       id="path222"
       style="fill:#191919;fill-opacity:1;fill-rule:nonzero;stroke:none"
       d="m 156,168 h -2 v 2 h 2 z" /><path
       id="path224"
       style="fill:#191919;fill-opacity:1;fill-rule:nonzero;stroke:none"
       d="m 160,176 h -2 v 2 h 2 z" /><path
       id="path226"
       style="fill:#191919;fill-opacity:1;fill-rule:nonzero;stroke:none"
       d="m 160,172 h -2 v 2 h 2 z" /><path
       id="path228"
       style="fill:#191919;fill-opacity:1;fill-rule:nonzero;stroke:none"
       d="m 160,168 h -2 v 2 h 2 z" /><path
       id="path230"
       style="fill:#191919;fill-opacity:1;fill-rule:nonzero;stroke:none"
       d="m 164,176 h -2 v 2 h 2 z" /><path
       id="path232"
       style="fill:#191919;fill-opacity:1;fill-rule:nonzero;stroke:none"
       d="m 164,172 h -2 v 2 h 2 z" /><path
       id="path234"
       style="fill:#191919;fill-opacity:1;fill-rule:nonzero;stroke:none"
       d="m 164,168 h -2 v 2 h 2 z" /><path
       id="path236"
       style="fill:#191919;fill-opacity:1;fill-rule:nonzero;stroke:none"
       d="m 168,176 h -2 v 2 h 2 z" /><path
       id="path238"
       style="fill:#191919;fill-opacity:1;fill-rule:nonzero;stroke:none"
       d="m 168,172 h -2 v 2 h 2 z" /><path
       id="path240"
       style="fill:#191919;fill-opacity:1;fill-rule:nonzero;stroke:none"
       d="m 168,168 h -2 v 2 h 2 z" /><path
       id="path242"
       style="fill:#191919;fill-opacity:1;fill-rule:nonzero;stroke:none"
       d="m 172,176 h -2 v 2 h 2 z" /><path
       id="path244"
       style="fill:#191919;fill-opacity:1;fill-rule:nonzero;stroke:none"
       d="m 172,172 h -2 v 2 h 2 z" /><path
       id="path246"
       style="fill:#191919;fill-opacity:1;fill-rule:nonzero;stroke:none"
       d="m 172,168 h -2 v 2 h 2 z" /><path
       id="path248"
       style="fill:#191919;fill-opacity:1;fill-rule:nonzero;stroke:none"
       d="m 176,176 h -2 v 2 h 2 z" /><path
       id="path250"
       style="fill:#191919;fill-opacity:1;fill-rule:nonzero;stroke:none"
       d="m 176,172 h -2 v 2 h 2 z" /><path
       id="path252"
       style="fill:#191919;fill-opacity:1;fill-rule:nonzero;stroke:none"
       d="m 176,168 h -2 v 2 h 2 z" /><path
       id="path254"
       style="fill:#191919;fill-opacity:1;fill-rule:nonzero;stroke:none"
       d="m 180,176 h -2 v 2 h 2 z" /><path
       id="path256"
       style="fill:#191919;fill-opacity:1;fill-rule:nonzero;stroke:none"
       d="m 180,172 h -2 v 2 h 2 z" /><path
       id="path258"
       style="fill:#191919;fill-opacity:1;fill-rule:nonzero;stroke:none"
       d="m 180,168 h -2 v 2 h 2 z" /><path
       id="path260"
       style="fill:#191919;fill-opacity:1;fill-rule:nonzero;stroke:none"
       d="m 184,176 h -2 v 2 h 2 z" /><path
       id="path262"
       style="fill:#191919;fill-opacity:1;fill-rule:nonzero;stroke:none"
       d="m 184,172 h -2 v 2 h 2 z" /><path
       id="path264"
       style="fill:#191919;fill-opacity:1;fill-rule:nonzero;stroke:none"
       d="m 184,168 h -2 v 2 h 2 z" /><path
       id="path266"
       style="fill:#191919;fill-opacity:1;fill-rule:nonzero;stroke:none"
       d="m 188,176 h -2 v 2 h 2 z" /><path
       id="path268"
       style="fill:#191919;fill-opacity:1;fill-rule:nonzero;stroke:none"
       d="m 188,172 h -2 v 2 h 2 z" /><path
       id="path270"
       style="fill:#191919;fill-opacity:1;fill-rule:nonzero;stroke:none"
       d="m 188,168 h -2 v 2 h 2 z" /><path
       id="path272"
       style="fill:#191919;fill-opacity:1;fill-rule:nonzero;stroke:none"
       d="m 192,176 h -2 v 2 h 2 z" /><path
       id="path274"
       style="fill:#191919;fill-opacity:1;fill-rule:nonzero;stroke:none"
       d="m 192,172 h -2 v 2 h 2 z" /><path
       id="path276"
       style="fill:#191919;fill-opacity:1;fill-rule:nonzero;stroke:none"
       d="m 192,168 h -2 v 2 h 2 z" /><path
       id="path278"
       style="fill:#191919;fill-opacity:1;fill-rule:nonzero;stroke:none"
       d="m 196,176 h -2 v 2 h 2 z" /><path
       id="path280"
       style="fill:#191919;fill-opacity:1;fill-rule:nonzero;stroke:none"
       d="m 196,172 h -2 v 2 h 2 z" /><path
       id="path282"
       style="fill:#191919;fill-opacity:1;fill-rule:nonzero;stroke:none"
       d="m 196,168 h -2 v 2 h 2 z" /><path
       id="path284"
       style="fill:#191919;fill-opacity:1;fill-rule:nonzero;stroke:none"
       d="m 200,176 h -2 v 2 h 2 z" /><path
       id="path286"
       style="fill:#191919;fill-opacity:1;fill-rule:nonzero;stroke:none"
       d="m 200,172 h -2 v 2 h 2 z" /><path
       id="path288"
       style="fill:#191919;fill-opacity:1;fill-rule:nonzero;stroke:none"
       d="m 200,168 h -2 v 2 h 2 z" /><path
       id="path290"
       style="fill:#191919;fill-opacity:1;fill-rule:nonzero;stroke:none"
       d="m 204,176 h -2 v 2 h 2 z" /><path
       id="path292"
       style="fill:#191919;fill-opacity:1;fill-rule:nonzero;stroke:none"
       d="m 204,172 h -2 v 2 h 2 z" /><path
       id="path294"
       style="fill:#191919;fill-opacity:1;fill-rule:nonzero;stroke:none"
       d="m 204,168 h -2 v 2 h 2 z" /><path
       id="path296"
       style="fill:#191919;fill-opacity:1;fill-rule:nonzero;stroke:none"
       d="m 208,176 h -2 v 2 h 2 z" /><path
       id="path298"
       style="fill:#191919;fill-opacity:1;fill-rule:nonzero;stroke:none"
       d="m 208,172 h -2 v 2 h 2 z" /><path
       id="path300"
       style="fill:#191919;fill-opacity:1;fill-rule:nonzero;stroke:none"
       d="m 208,168 h -2 v 2 h 2 z" /><path
       id="path302"
       style="fill:#191919;fill-opacity:1;fill-rule:nonzero;stroke:none"
       d="m 212,176 h -2 v 2 h 2 z" /><path
       id="path304"
       style="fill:#191919;fill-opacity:1;fill-rule:nonzero;stroke:none"
       d="m 212,172 h -2 v 2 h 2 z" /><path
       id="path306"
       style="fill:#191919;fill-opacity:1;fill-rule:nonzero;stroke:none"
       d="m 212,168 h -2 v 2 h 2 z" /><path
       id="path308"
       style="fill:#b80000;fill-opacity:1;fill-rule:nonzero;stroke:none"
       d="m 208,96 h -80 v 40 h 80 z" /><path
       id="path310"
       style="fill:#0d0d0d;fill-opacity:1;fill-rule:nonzero;stroke:none"
       d="m 208,124 h -80 v 8 h 80 z" /><g
       transform="translate(180,108)"
       id="g312"><path
         id="path314"
         style="fill:#0d0d0d;fill-opacity:1;fill-rule:nonzero;stroke:none"
         d="M 0,0 4,8 H 20 L 16,0 Z" /></g><g
       transform="translate(200,116)"
       id="g316"><path
         id="path318"
         style="fill:#ffffff;fill-opacity:1;fill-rule:nonzero;stroke:none"
         d="m 0,0 h -16 l -4,-8 h 16 z m -1.618,-1 -3,-6 h -13.764 l 3,6 z" /></g><g
       transform="translate(12,184)"
       id="g320"><path
         id="path322"
         style="fill:#191919;fill-opacity:1;fill-rule:nonzero;stroke:none"
         d="M 0,0 32,-20 V -44 L 0,-96 Z" /></g><g
       transform="translate(244,184)"
       id="g324"><path
         id="path326"
         style="fill:#191919;fill-opacity:1;fill-rule:nonzero;stroke:none"
         d="M 0,0 -32,-20 V -44 L 0,-96 Z" /></g><path
       id="path328"
       style="fill:#b80000;fill-opacity:1;fill-rule:nonzero;stroke:none"
       d="M 244,88 H 12 v 1.875 h 232 z" /><path
       id="path330"
       style="fill:#b80000;fill-opacity:1;fill-rule:nonzero;stroke:none"
       d="M 48,76 H 28 v 4 h 20 z" /><path
       id="path332"
       style="fill:#ffffff;fill-opacity:1;fill-rule:nonzero;stroke:none"
       d="m 124,80 h -20 v -4 h 20 z m -1,-3 h -18 v 2 h 18 z" /><path
       id="path334"
       style="fill:#ffffff;fill-opacity:1;fill-rule:nonzero;stroke:none"
       d="m 148,80 h -20 v -4 h 20 z m -1,-3 h -18 v 2 h 18 z" /><path
       id="path336"
       style="fill:#ffffff;fill-opacity:1;fill-rule:nonzero;stroke:none"
       d="m 220,80 h -20 v -4 h 20 z m -1,-3 h -18 v 2 h 18 z" /><path
       id="path338"
       style="fill:#191919;fill-opacity:1;fill-rule:nonzero;stroke:none"
       d="m 192,72 h -36 v 12 h 36 z" /><g
       transform="translate(148,118)"
       id="g340"><path
         id="path342"
         style="fill:#ffffff;fill-opacity:1;fill-rule:nonzero;stroke:none"
         d="m 0,0 h -16 l 4,4 H 4 Z" /></g><g
       transform="translate(176,122)"
       id="g344"><path
         id="path346"
         style="fill:#ffffff;fill-opacity:1;fill-rule:nonzero;stroke:none"
         d="m 0,0 h -16 l -4,-4 h 16 z m -2.414,-1 -2,-2 h -13.172 l 2,2 z" /></g><g
       transform="translate(184,104)"
       id="g348"><path
         id="path350"
         style="fill:#ffffff;fill-opacity:1;fill-rule:nonzero;stroke:none"
         d="m 0,0 h -16 l -4,-4 h 16 z m -2.414,-1 -2,-2 h -13.172 l 2,2 z" /></g><g
       transform="translate(156,100)"
       id="g352"><path
         id="path354"
         style="fill:#ffffff;fill-opacity:1;fill-rule:nonzero;stroke:none"
         d="m 0,0 h -16 l 4,4 H 4 Z" /></g><path
       id="path356"
       style="fill:#ffffff;fill-opacity:1;fill-rule:nonzero;stroke:none"
       d="m 136,111.5 h 46.5 v 1 H 136 Z" /><path
       id="path358"
       style="fill:#ffffff;fill-opacity:1;fill-rule:nonzero;stroke:none"
       d="m 163.5,112 h 1 v 6 h -1 z" /><path
       id="path360"
       style="fill:#ffffff;fill-opacity:1;fill-rule:nonzero;stroke:none"
       d="m 171.5,104 h 1 v 7.999 h -1 z" /><path
       id="path362"
       style="fill:#ffffff;fill-opacity:1;fill-rule:nonzero;stroke:none"
       d="m 135.5,101.5 h 1 V 120 h -1 z" /><g
       transform="translate(144,116)"
       id="g364"><path
         id="path366"
         style="fill:#0d0d0d;fill-opacity:1;fill-rule:nonzero;stroke:none"
         d="M 0,0 20,-4 -4,-12 Z" /></g><g
       transform="translate(144,116)"
       id="g368"><path
         id="path370"
         style="fill:#ffffff;fill-opacity:1;fill-rule:nonzero;stroke:none"
         d="m 0,0 -4,-12 24,8 z m 0.67,-1.153 15.441,-3.089 -18.53,-6.177 z" /></g><path
       id="path372"
       style="fill:#ffffff;fill-opacity:1;fill-rule:nonzero;stroke:none"
       d="m 136,101.5 h 8 v 1 h -8 z" /></g></svg>