<?xml version="1.0" encoding="UTF-8"?>
<svg id="Layer_1" xmlns="http://www.w3.org/2000/svg" version="1.1" viewBox="0 0 256 256">
  <!-- Generator: Adobe Illustrator 29.3.0, SVG Export Plug-In . SVG Version: 2.1.0 Build 146)  -->
  <defs>
    <style>
      .st0 {
        fill: #262626;
      }

      .st1 {
        fill: #fff;
        opacity: .5;
      }

      .st2 {
        fill: #1a1a1a;
      }
    </style>
  </defs>
  <g>
    <path class="st1" d="M252,4H4v248h248V4h0Z"/>
    <rect class="st0" x="12" y="12" width="232" height="232"/>
  </g>
  <path class="st2" d="M36,28c0,4.4-3.6,8-8,8s-8-3.6-8-8,3.6-8,8-8,8,3.6,8,8ZM48,20c-4.4,0-8,3.6-8,8s3.6,8,8,8,8-3.6,8-8-3.6-8-8-8ZM68,20c-4.4,0-8,3.6-8,8s3.6,8,8,8,8-3.6,8-8-3.6-8-8-8ZM88,20c-4.4,0-8,3.6-8,8s3.6,8,8,8,8-3.6,8-8-3.6-8-8-8ZM108,20c-4.4,0-8,3.6-8,8s3.6,8,8,8,8-3.6,8-8-3.6-8-8-8ZM128,20c-4.4,0-8,3.6-8,8s3.6,8,8,8,8-3.6,8-8-3.6-8-8-8ZM148,20c-4.4,0-8,3.6-8,8s3.6,8,8,8,8-3.6,8-8-3.6-8-8-8ZM168,20c-4.4,0-8,3.6-8,8s3.6,8,8,8,8-3.6,8-8-3.6-8-8-8ZM188,20c-4.4,0-8,3.6-8,8s3.6,8,8,8,8-3.6,8-8-3.6-8-8-8ZM208,20c-4.4,0-8,3.6-8,8s3.6,8,8,8,8-3.6,8-8-3.6-8-8-8ZM228,20c-4.4,0-8,3.6-8,8s3.6,8,8,8,8-3.6,8-8-3.6-8-8-8ZM28,40c-4.4,0-8,3.6-8,8s3.6,8,8,8,8-3.6,8-8-3.6-8-8-8ZM48,40c-4.4,0-8,3.6-8,8s3.6,8,8,8,8-3.6,8-8-3.6-8-8-8ZM68,40c-4.4,0-8,3.6-8,8s3.6,8,8,8,8-3.6,8-8-3.6-8-8-8ZM88,40c-4.4,0-8,3.6-8,8s3.6,8,8,8,8-3.6,8-8-3.6-8-8-8ZM108,40c-4.4,0-8,3.6-8,8s3.6,8,8,8,8-3.6,8-8-3.6-8-8-8ZM128,40c-4.4,0-8,3.6-8,8s3.6,8,8,8,8-3.6,8-8-3.6-8-8-8ZM148,40c-4.4,0-8,3.6-8,8s3.6,8,8,8,8-3.6,8-8-3.6-8-8-8ZM168,40c-4.4,0-8,3.6-8,8s3.6,8,8,8,8-3.6,8-8-3.6-8-8-8ZM188,40c-4.4,0-8,3.6-8,8s3.6,8,8,8,8-3.6,8-8-3.6-8-8-8ZM208,40c-4.4,0-8,3.6-8,8s3.6,8,8,8,8-3.6,8-8-3.6-8-8-8ZM228,40c-4.4,0-8,3.6-8,8s3.6,8,8,8,8-3.6,8-8-3.6-8-8-8ZM28,60c-4.4,0-8,3.6-8,8s3.6,8,8,8,8-3.6,8-8-3.6-8-8-8ZM48,60c-4.4,0-8,3.6-8,8s3.6,8,8,8,8-3.6,8-8-3.6-8-8-8ZM68,60c-4.4,0-8,3.6-8,8s3.6,8,8,8,8-3.6,8-8-3.6-8-8-8ZM88,60c-4.4,0-8,3.6-8,8s3.6,8,8,8,8-3.6,8-8-3.6-8-8-8ZM108,60c-4.4,0-8,3.6-8,8s3.6,8,8,8,8-3.6,8-8-3.6-8-8-8ZM128,60c-4.4,0-8,3.6-8,8s3.6,8,8,8,8-3.6,8-8-3.6-8-8-8ZM148,60c-4.4,0-8,3.6-8,8s3.6,8,8,8,8-3.6,8-8-3.6-8-8-8ZM168,60c-4.4,0-8,3.6-8,8s3.6,8,8,8,8-3.6,8-8-3.6-8-8-8ZM188,60c-4.4,0-8,3.6-8,8s3.6,8,8,8,8-3.6,8-8-3.6-8-8-8ZM208,60c-4.4,0-8,3.6-8,8s3.6,8,8,8,8-3.6,8-8-3.6-8-8-8ZM228,60c-4.4,0-8,3.6-8,8s3.6,8,8,8,8-3.6,8-8-3.6-8-8-8ZM28,80c-4.4,0-8,3.6-8,8s3.6,8,8,8,8-3.6,8-8-3.6-8-8-8ZM48,80c-4.4,0-8,3.6-8,8s3.6,8,8,8,8-3.6,8-8-3.6-8-8-8ZM68,80c-4.4,0-8,3.6-8,8s3.6,8,8,8,8-3.6,8-8-3.6-8-8-8ZM88,80c-4.4,0-8,3.6-8,8s3.6,8,8,8,8-3.6,8-8-3.6-8-8-8ZM108,80c-4.4,0-8,3.6-8,8s3.6,8,8,8,8-3.6,8-8-3.6-8-8-8ZM128,80c-4.4,0-8,3.6-8,8s3.6,8,8,8,8-3.6,8-8-3.6-8-8-8ZM148,80c-4.4,0-8,3.6-8,8s3.6,8,8,8,8-3.6,8-8-3.6-8-8-8ZM168,80c-4.4,0-8,3.6-8,8s3.6,8,8,8,8-3.6,8-8-3.6-8-8-8ZM188,80c-4.4,0-8,3.6-8,8s3.6,8,8,8,8-3.6,8-8-3.6-8-8-8ZM208,80c-4.4,0-8,3.6-8,8s3.6,8,8,8,8-3.6,8-8-3.6-8-8-8ZM228,80c-4.4,0-8,3.6-8,8s3.6,8,8,8,8-3.6,8-8-3.6-8-8-8ZM28,100c-4.4,0-8,3.6-8,8s3.6,8,8,8,8-3.6,8-8-3.6-8-8-8ZM48,100c-4.4,0-8,3.6-8,8s3.6,8,8,8,8-3.6,8-8-3.6-8-8-8ZM68,100c-4.4,0-8,3.6-8,8s3.6,8,8,8,8-3.6,8-8-3.6-8-8-8ZM88,100c-4.4,0-8,3.6-8,8s3.6,8,8,8,8-3.6,8-8-3.6-8-8-8ZM108,100c-4.4,0-8,3.6-8,8s3.6,8,8,8,8-3.6,8-8-3.6-8-8-8ZM128,100c-4.4,0-8,3.6-8,8s3.6,8,8,8,8-3.6,8-8-3.6-8-8-8ZM148,100c-4.4,0-8,3.6-8,8s3.6,8,8,8,8-3.6,8-8-3.6-8-8-8ZM168,100c-4.4,0-8,3.6-8,8s3.6,8,8,8,8-3.6,8-8-3.6-8-8-8ZM188,100c-4.4,0-8,3.6-8,8s3.6,8,8,8,8-3.6,8-8-3.6-8-8-8ZM208,100c-4.4,0-8,3.6-8,8s3.6,8,8,8,8-3.6,8-8-3.6-8-8-8ZM228,100c-4.4,0-8,3.6-8,8s3.6,8,8,8,8-3.6,8-8-3.6-8-8-8ZM28,120c-4.4,0-8,3.6-8,8s3.6,8,8,8,8-3.6,8-8-3.6-8-8-8ZM48,120c-4.4,0-8,3.6-8,8s3.6,8,8,8,8-3.6,8-8-3.6-8-8-8ZM68,120c-4.4,0-8,3.6-8,8s3.6,8,8,8,8-3.6,8-8-3.6-8-8-8ZM88,120c-4.4,0-8,3.6-8,8s3.6,8,8,8,8-3.6,8-8-3.6-8-8-8ZM108,120c-4.4,0-8,3.6-8,8s3.6,8,8,8,8-3.6,8-8-3.6-8-8-8ZM128,120c-4.4,0-8,3.6-8,8s3.6,8,8,8,8-3.6,8-8-3.6-8-8-8ZM148,120c-4.4,0-8,3.6-8,8s3.6,8,8,8,8-3.6,8-8-3.6-8-8-8ZM168,120c-4.4,0-8,3.6-8,8s3.6,8,8,8,8-3.6,8-8-3.6-8-8-8ZM188,120c-4.4,0-8,3.6-8,8s3.6,8,8,8,8-3.6,8-8-3.6-8-8-8ZM208,120c-4.4,0-8,3.6-8,8s3.6,8,8,8,8-3.6,8-8-3.6-8-8-8ZM228,120c-4.4,0-8,3.6-8,8s3.6,8,8,8,8-3.6,8-8-3.6-8-8-8ZM28,140c-4.4,0-8,3.6-8,8s3.6,8,8,8,8-3.6,8-8-3.6-8-8-8ZM48,140c-4.4,0-8,3.6-8,8s3.6,8,8,8,8-3.6,8-8-3.6-8-8-8ZM68,140c-4.4,0-8,3.6-8,8s3.6,8,8,8,8-3.6,8-8-3.6-8-8-8ZM88,140c-4.4,0-8,3.6-8,8s3.6,8,8,8,8-3.6,8-8-3.6-8-8-8ZM108,140c-4.4,0-8,3.6-8,8s3.6,8,8,8,8-3.6,8-8-3.6-8-8-8ZM128,140c-4.4,0-8,3.6-8,8s3.6,8,8,8,8-3.6,8-8-3.6-8-8-8ZM148,140c-4.4,0-8,3.6-8,8s3.6,8,8,8,8-3.6,8-8-3.6-8-8-8ZM168,140c-4.4,0-8,3.6-8,8s3.6,8,8,8,8-3.6,8-8-3.6-8-8-8ZM188,140c-4.4,0-8,3.6-8,8s3.6,8,8,8,8-3.6,8-8-3.6-8-8-8ZM208,140c-4.4,0-8,3.6-8,8s3.6,8,8,8,8-3.6,8-8-3.6-8-8-8ZM228,140c-4.4,0-8,3.6-8,8s3.6,8,8,8,8-3.6,8-8-3.6-8-8-8ZM28,160c-4.4,0-8,3.6-8,8s3.6,8,8,8,8-3.6,8-8-3.6-8-8-8ZM48,160c-4.4,0-8,3.6-8,8s3.6,8,8,8,8-3.6,8-8-3.6-8-8-8ZM68,160c-4.4,0-8,3.6-8,8s3.6,8,8,8,8-3.6,8-8-3.6-8-8-8ZM88,160c-4.4,0-8,3.6-8,8s3.6,8,8,8,8-3.6,8-8-3.6-8-8-8ZM108,160c-4.4,0-8,3.6-8,8s3.6,8,8,8,8-3.6,8-8-3.6-8-8-8ZM128,160c-4.4,0-8,3.6-8,8s3.6,8,8,8,8-3.6,8-8-3.6-8-8-8ZM148,160c-4.4,0-8,3.6-8,8s3.6,8,8,8,8-3.6,8-8-3.6-8-8-8ZM168,160c-4.4,0-8,3.6-8,8s3.6,8,8,8,8-3.6,8-8-3.6-8-8-8ZM188,160c-4.4,0-8,3.6-8,8s3.6,8,8,8,8-3.6,8-8-3.6-8-8-8ZM208,160c-4.4,0-8,3.6-8,8s3.6,8,8,8,8-3.6,8-8-3.6-8-8-8ZM228,160c-4.4,0-8,3.6-8,8s3.6,8,8,8,8-3.6,8-8-3.6-8-8-8ZM28,180c-4.4,0-8,3.6-8,8s3.6,8,8,8,8-3.6,8-8-3.6-8-8-8ZM48,180c-4.4,0-8,3.6-8,8s3.6,8,8,8,8-3.6,8-8-3.6-8-8-8ZM68,180c-4.4,0-8,3.6-8,8s3.6,8,8,8,8-3.6,8-8-3.6-8-8-8ZM88,180c-4.4,0-8,3.6-8,8s3.6,8,8,8,8-3.6,8-8-3.6-8-8-8ZM108,180c-4.4,0-8,3.6-8,8s3.6,8,8,8,8-3.6,8-8-3.6-8-8-8ZM128,180c-4.4,0-8,3.6-8,8s3.6,8,8,8,8-3.6,8-8-3.6-8-8-8ZM148,180c-4.4,0-8,3.6-8,8s3.6,8,8,8,8-3.6,8-8-3.6-8-8-8ZM168,180c-4.4,0-8,3.6-8,8s3.6,8,8,8,8-3.6,8-8-3.6-8-8-8ZM188,180c-4.4,0-8,3.6-8,8s3.6,8,8,8,8-3.6,8-8-3.6-8-8-8ZM208,180c-4.4,0-8,3.6-8,8s3.6,8,8,8,8-3.6,8-8-3.6-8-8-8ZM228,180c-4.4,0-8,3.6-8,8s3.6,8,8,8,8-3.6,8-8-3.6-8-8-8ZM28,200c-4.4,0-8,3.6-8,8s3.6,8,8,8,8-3.6,8-8-3.6-8-8-8ZM48,200c-4.4,0-8,3.6-8,8s3.6,8,8,8,8-3.6,8-8-3.6-8-8-8ZM68,200c-4.4,0-8,3.6-8,8s3.6,8,8,8,8-3.6,8-8-3.6-8-8-8ZM88,200c-4.4,0-8,3.6-8,8s3.6,8,8,8,8-3.6,8-8-3.6-8-8-8ZM108,200c-4.4,0-8,3.6-8,8s3.6,8,8,8,8-3.6,8-8-3.6-8-8-8ZM128,200c-4.4,0-8,3.6-8,8s3.6,8,8,8,8-3.6,8-8-3.6-8-8-8ZM148,200c-4.4,0-8,3.6-8,8s3.6,8,8,8,8-3.6,8-8-3.6-8-8-8ZM168,200c-4.4,0-8,3.6-8,8s3.6,8,8,8,8-3.6,8-8-3.6-8-8-8ZM188,200c-4.4,0-8,3.6-8,8s3.6,8,8,8,8-3.6,8-8-3.6-8-8-8ZM208,200c-4.4,0-8,3.6-8,8s3.6,8,8,8,8-3.6,8-8-3.6-8-8-8ZM228,200c-4.4,0-8,3.6-8,8s3.6,8,8,8,8-3.6,8-8-3.6-8-8-8ZM28,220c-4.4,0-8,3.6-8,8s3.6,8,8,8,8-3.6,8-8-3.6-8-8-8ZM48,220c-4.4,0-8,3.6-8,8s3.6,8,8,8,8-3.6,8-8-3.6-8-8-8ZM68,220c-4.4,0-8,3.6-8,8s3.6,8,8,8,8-3.6,8-8-3.6-8-8-8ZM88,220c-4.4,0-8,3.6-8,8s3.6,8,8,8,8-3.6,8-8-3.6-8-8-8ZM108,220c-4.4,0-8,3.6-8,8s3.6,8,8,8,8-3.6,8-8-3.6-8-8-8ZM128,220c-4.4,0-8,3.6-8,8s3.6,8,8,8,8-3.6,8-8-3.6-8-8-8ZM148,220c-4.4,0-8,3.6-8,8s3.6,8,8,8,8-3.6,8-8-3.6-8-8-8ZM168,220c-4.4,0-8,3.6-8,8s3.6,8,8,8,8-3.6,8-8-3.6-8-8-8ZM188,220c-4.4,0-8,3.6-8,8s3.6,8,8,8,8-3.6,8-8-3.6-8-8-8ZM208,220c-4.4,0-8,3.6-8,8s3.6,8,8,8,8-3.6,8-8-3.6-8-8-8ZM228,220c-4.4,0-8,3.6-8,8s3.6,8,8,8,8-3.6,8-8-3.6-8-8-8Z"/>
</svg>