<?xml version="1.0" encoding="iso-8859-1"?>
<!-- Generator: Adobe Illustrator 27.8.1, SVG Export Plug-In . SVG Version: 6.00 Build 0)  -->
<svg version="1.1" id="Layer_1" xmlns="http://www.w3.org/2000/svg" xmlns:xlink="http://www.w3.org/1999/xlink" x="0px" y="0px"
	 viewBox="0 0 256 256" style="enable-background:new 0 0 256 256;" xml:space="preserve">
<path style="opacity:0.5;fill:#FFFFFF;" d="M212,4h-10h-8h-8h-8h-8h-8h-8h-8h-8h-8h-8h-8h-8h-8h-8h-8h-8h-8h-8H44
	c-11.028,0-20,8.972-20,20v208c0,11.028,8.972,20,20,20h168c11.028,0,20-8.972,20-20V24C232,12.972,223.028,4,212,4z"/>
<path style="fill:#C4C0AA;" d="M212,12h-14v4h-4v-4h-4v4h-4v-4h-4v4h-4v-4h-4v4h-4v-4h-4v4h-4v-4h-4v4h-4v-4h-4v4h-4v-4h-4v4h-4v-4
	h-4v4h-4v-4h-4v4h-4v-4h-4v4h-4v-4h-4v4h-4v-4h-4v4h-4v-4h-4v4h-4v-4h-4v4h-4v-4h-4v4h-4v-4h-4v4h-4v-4h-4v4h-4v-4H44
	c-6.627,0-12,5.373-12,12v208c0,6.627,5.373,12,12,12h168c6.627,0,12-5.373,12-12V24C224,17.373,218.627,12,212,12z"/>
<path style="fill:#D9D4BC;" d="M208,240H48c-6.627,0-12-5.373-12-12V28c0-6.627,5.373-12,12-12h160c6.627,0,12,5.373,12,12v200
	C220,234.627,214.627,240,208,240z"/>
<rect x="56" y="16" style="fill:#C4C0AA;" width="2" height="224"/>
<rect x="198" y="16" style="fill:#C4C0AA;" width="2" height="224"/>
<path style="fill:#999999;" d="M200,204H56c-6.627,0-12-5.373-12-12V48c0-6.627,5.373-12,12-12h144c6.627,0,12,5.373,12,12v144
	C212,198.627,206.627,204,200,204z"/>
<path style="fill:#D9D4BC;" d="M84,192H64c-2.2,0-4-1.8-4-4v-24c0-2.2,1.8-4,4-4h20c2.2,0,4,1.8,4,4v24C88,190.2,86.2,192,84,192z"
	/>
<path style="fill:#D9D4BC;" d="M192,192h-20c-2.2,0-4-1.8-4-4v-24c0-2.2,1.8-4,4-4h20c2.2,0,4,1.8,4,4v24
	C196,190.2,194.2,192,192,192z"/>
<path style="fill:#A6A6A6;" d="M156,192h-56c-2.2,0-4-1.8-4-4v-24c0-2.2,1.8-4,4-4h56c2.2,0,4,1.8,4,4v24
	C160,190.2,158.2,192,156,192z"/>
<path style="fill:#737373;" d="M190,190h-16c-2.2,0-4-1.8-4-4v-20c0-2.2,1.8-4,4-4h16c2.2,0,4,1.8,4,4v20
	C194,188.2,192.2,190,190,190z"/>
<path style="fill:#8C8C8C;" d="M186.333,96H69.667C63.25,96,58,101.4,58,108v4c0,6.6,5.25,12,11.667,12l45.79,3.623
	c3.176,0.251,6.359,0.377,9.544,0.377h12.909c3.761,0,7.521-0.175,11.267-0.526L186.333,124c6.417,0,11.667-5.4,11.667-12v-4
	C198,101.4,192.75,96,186.333,96L186.333,96z"/>
<path style="fill:#737373;" d="M186.333,100c4.227,0,7.667,3.589,7.667,8v4c0,4.411-3.439,8-7.667,8h-0.187l-0.186,0.017
	l-37.156,3.474c-3.607,0.337-7.272,0.508-10.894,0.508h-12.909c-3.066,0-6.171-0.123-9.229-0.365l-45.79-3.623L69.825,120h-0.158
	c-4.227,0-7.667-3.589-7.667-8v-4c0-4.411,3.439-8,7.667-8H186.333"/>
<rect x="75" y="104" style="fill:#808080;" width="2" height="12"/>
<rect x="183" y="104" style="fill:#808080;" width="2" height="12"/>
<path style="fill:#8C8C8C;" d="M192,45c6.065,0,11,4.935,11,11s-4.935,11-11,11s-11-4.935-11-11S185.935,45,192,45 M192,44
	c-6.627,0-12,5.373-12,12s5.373,12,12,12s12-5.373,12-12S198.627,44,192,44L192,44z"/>
<path style="fill:#B80000;" d="M186,236h-8c-1.1,0-2-0.9-2-2l0,0c0-1.1,0.9-2,2-2h8c1.1,0,2,0.9,2,2l0,0
	C188,235.1,187.1,236,186,236z"/>
<path style="fill:#737373;" d="M82,190H66c-2.2,0-4-1.8-4-4v-14c0-2.2,1.8-4,4-4h16c2.2,0,4,1.8,4,4v14C86,188.2,84.2,190,82,190z"
	/>
<path style="fill:#808080;" d="M84,184H64c-1.1,0-2-0.9-2-2v-16c0-2.2,1.8-4,4-4h16c2.2,0,4,1.8,4,4v16C86,183.1,85.1,184,84,184z"
	/>
<path style="fill:#8C8C8C;" d="M86,172v-2c0-1.1-0.9-2-2-2H64c-1.1,0-2,0.9-2,2v2H86z"/>
<path style="fill:#737373;" d="M62,172v2c0,1.1,0.9,2,2,2h20c1.1,0,2-0.9,2-2v-2H62z"/>
<polygon style="fill:#808080;" points="120,112 136,112 128,116 "/>
</svg>
