<svg xmlns="http://www.w3.org/2000/svg" xml:space="preserve" width="330.667" height="277.333" viewBox="0 0 330.667 277.333"><defs><clipPath id="a" clipPathUnits="userSpaceOnUse"><path d="M0 256h256V0H0Z"/></clipPath><clipPath id="b" clipPathUnits="userSpaceOnUse"><path d="M4 232h248V24H4Z"/></clipPath></defs><g clip-path="url(#a)" transform="matrix(1.33333 0 0 -1.33333 -5.333 309.333)"><g clip-path="url(#b)" style="opacity:.5"><path d="M0 0h-52v36a8 8 0 0 1-8 8h-104a8 8 0 0 1-8-8V0h-52c-6.617 0-12-5.383-12-12v-124c0-6.617 5.383-12 12-12h52v-4c0-6.617 5.383-12 12-12h96c6.617 0 12 5.383 12 12v4H0c6.617 0 12 5.383 12 12v124C12-5.383 6.617 0 0 0" style="fill:#fff;fill-opacity:1;fill-rule:nonzero;stroke:none" transform="translate(240 188)"/></g><path d="M0 0h-224a4 4 0 0 0-4 4v124a4 4 0 0 0 4 4H0a4 4 0 0 0 4-4V4a4 4 0 0 0-4-4" style="fill:#333;fill-opacity:1;fill-rule:nonzero;stroke:none" transform="translate(240 48)"/><path d="M184 156H72v16h112zm56-104H16v100h224z" style="fill:#404040;fill-opacity:1;fill-rule:nonzero;stroke:none"/><path d="M0 0h-96a4 4 0 0 0-4 4v188H4V4a4 4 0 0 0-4-4" style="fill:#4c4c4c;fill-opacity:1;fill-rule:nonzero;stroke:none" transform="translate(176 32)"/><path d="M0 0h-104v42a2 2 0 0 0 2 2H-2a2 2 0 0 0 2-2z" style="fill:#333;fill-opacity:1;fill-rule:nonzero;stroke:none" transform="translate(180 180)"/><path d="M0 0h-56a2 2 0 0 0-2 2v20a2 2 0 0 0 2 2H0a2 2 0 0 0 2-2V2a2 2 0 0 0-2-2" style="fill:#4c4c4c;fill-opacity:1;fill-rule:nonzero;stroke:none" transform="translate(70 152)"/><path d="M0 0h-56a2 2 0 0 0-2 2v20a2 2 0 0 0 2 2H0a2 2 0 0 0 2-2V2a2 2 0 0 0-2-2" style="fill:#4c4c4c;fill-opacity:1;fill-rule:nonzero;stroke:none" transform="translate(242 152)"/><path d="M56 160H44v8h12z" style="fill:#0e6654;fill-opacity:1;fill-rule:nonzero;stroke:none"/><path d="M52 160h-4v8h4z" style="fill:#16a085;fill-opacity:1;fill-rule:nonzero;stroke:none"/><path d="M84 44h-4v124h4zm8 0h-4v124h4zm8 0h-4v124h4zm8 0h-4v124h4zm36 0h-32v84h32zm8 0h-4v124h4zm8 0h-4v124h4zm8 0h-4v124h4zm8 0h-4v124h4z" style="fill:#595959;fill-opacity:1;fill-rule:nonzero;stroke:none"/><path d="M76 120H24v12h52z" style="fill:#4c4c4c;fill-opacity:1;fill-rule:nonzero;stroke:none"/><path d="M0 0c0-5.522-4.477-10-10-10S-20-5.522-20 0s4.477 10 10 10S0 5.523 0 0" style="fill:#595959;fill-opacity:1;fill-rule:nonzero;stroke:none" transform="translate(36 126)"/><path d="M76 92H24v12h52z" style="fill:#4c4c4c;fill-opacity:1;fill-rule:nonzero;stroke:none"/><path d="M0 0c0-5.522-4.477-10-10-10S-20-5.522-20 0s4.477 10 10 10S0 5.522 0 0" style="fill:#595959;fill-opacity:1;fill-rule:nonzero;stroke:none" transform="translate(36 98)"/><path d="M76 64H24v12h52z" style="fill:#4c4c4c;fill-opacity:1;fill-rule:nonzero;stroke:none"/><path d="M0 0c0-5.522-4.477-10-10-10S-20-5.522-20 0s4.477 10 10 10S0 5.522 0 0" style="fill:#595959;fill-opacity:1;fill-rule:nonzero;stroke:none" transform="translate(36 70)"/><path d="M180 120h52v12h-52z" style="fill:#4c4c4c;fill-opacity:1;fill-rule:nonzero;stroke:none"/><path d="M0 0c0-5.522 4.478-10 10-10S20-5.522 20 0s-4.478 10-10 10S0 5.523 0 0" style="fill:#595959;fill-opacity:1;fill-rule:nonzero;stroke:none" transform="translate(220 126)"/><path d="M180 92h52v12h-52z" style="fill:#4c4c4c;fill-opacity:1;fill-rule:nonzero;stroke:none"/><path d="M0 0c0-5.522 4.478-10 10-10S20-5.522 20 0s-4.478 10-10 10S0 5.522 0 0" style="fill:#595959;fill-opacity:1;fill-rule:nonzero;stroke:none" transform="translate(220 98)"/><path d="M180 64h52v12h-52z" style="fill:#4c4c4c;fill-opacity:1;fill-rule:nonzero;stroke:none"/><path d="M0 0c0-5.522 4.478-10 10-10S20-5.522 20 0s-4.478 10-10 10S0 5.522 0 0" style="fill:#595959;fill-opacity:1;fill-rule:nonzero;stroke:none" transform="translate(220 70)"/><path d="M144 132h-32v44h32z" style="fill:#404040;fill-opacity:1;fill-rule:nonzero;stroke:none"/><path d="M0 0h-16a2 2 0 0 0-2 2v22H2V2a2 2 0 0 0-2-2" style="fill:#595959;fill-opacity:1;fill-rule:nonzero;stroke:none" transform="translate(136 156)"/><path d="M0 0h-16a2 2 0 0 0-2 2v8a2 2 0 0 0 2 2H0a2 2 0 0 0 2-2V2a2 2 0 0 0-2-2" style="fill:#4c4c4c;fill-opacity:1;fill-rule:nonzero;stroke:none" transform="translate(136 154)"/><path d="M116 136h-2v36h2zm4 0h-2v16h2zm4 0h-2v16h2zm10 0h-2v16h2zm4 0h-2v16h2zm4 0h-2v36h2z" style="fill:#4c4c4c;fill-opacity:1;fill-rule:nonzero;stroke:none"/><path d="m0 0-2 4v12h4V4Z" style="fill:#4c4c4c;fill-opacity:1;fill-rule:nonzero;stroke:none" transform="translate(128 136)"/><path d="M72 144H44v4h28zm140 0h-28v4h28zm-140-8H44v4h28zm140 0h-28v4h28z" style="fill:#333;fill-opacity:1;fill-rule:nonzero;stroke:none"/><path d="M0 0a8 8 0 1 0-16 0A8 8 0 0 0 0 0" style="fill:#4c4c4c;fill-opacity:1;fill-rule:nonzero;stroke:none" transform="translate(34 126)"/><path d="M0 0a8 8 0 1 0-16 0A8 8 0 0 0 0 0" style="fill:#4c4c4c;fill-opacity:1;fill-rule:nonzero;stroke:none" transform="translate(34 98)"/><path d="M0 0a8 8 0 1 0-16 0A8 8 0 0 0 0 0" style="fill:#4c4c4c;fill-opacity:1;fill-rule:nonzero;stroke:none" transform="translate(34 70)"/><path d="M0 0a8 8 0 1 0-16 0A8 8 0 0 0 0 0" style="fill:#4c4c4c;fill-opacity:1;fill-rule:nonzero;stroke:none" transform="translate(238 126)"/><path d="M0 0a8 8 0 1 0-16 0A8 8 0 0 0 0 0" style="fill:#4c4c4c;fill-opacity:1;fill-rule:nonzero;stroke:none" transform="translate(238 98)"/><path d="M0 0a8 8 0 1 0-16 0A8 8 0 0 0 0 0" style="fill:#4c4c4c;fill-opacity:1;fill-rule:nonzero;stroke:none" transform="translate(238 70)"/><path d="M0 0a8 8 0 1 1 0-16A8 8 0 0 1 0 0" style="fill:#404040;fill-opacity:1;fill-rule:nonzero;stroke:none" transform="translate(162 68)"/><path d="M0 0c2.206 0 4-1.794 4-4S2.206-8 0-8s-4 1.794-4 4 1.794 4 4 4" style="fill:#4c4c4c;fill-opacity:1;fill-rule:nonzero;stroke:none" transform="translate(162 64)"/><path d="M0 0a2 2 0 1 0-4.001.001A2 2 0 0 0 0 0" style="fill:#404040;fill-opacity:1;fill-rule:nonzero;stroke:none" transform="translate(164 60)"/><path d="M0 0a8 8 0 1 1 0-16A8 8 0 0 1 0 0" style="fill:#404040;fill-opacity:1;fill-rule:nonzero;stroke:none" transform="translate(162 152)"/><path d="M0 0c2.206 0 4-1.794 4-4S2.206-8 0-8s-4 1.794-4 4 1.794 4 4 4" style="fill:#4c4c4c;fill-opacity:1;fill-rule:nonzero;stroke:none" transform="translate(162 148)"/><path d="M0 0a2 2 0 1 0-4.001.001A2 2 0 0 0 0 0" style="fill:#404040;fill-opacity:1;fill-rule:nonzero;stroke:none" transform="translate(164 144)"/><path d="M0 0a8 8 0 1 1 0-16A8 8 0 0 1 0 0" style="fill:#404040;fill-opacity:1;fill-rule:nonzero;stroke:none" transform="translate(94 68)"/><path d="M0 0c2.206 0 4-1.794 4-4S2.206-8 0-8s-4 1.794-4 4 1.794 4 4 4" style="fill:#4c4c4c;fill-opacity:1;fill-rule:nonzero;stroke:none" transform="translate(94 64)"/><path d="M0 0a2 2 0 1 0-4.001.001A2 2 0 0 0 0 0" style="fill:#404040;fill-opacity:1;fill-rule:nonzero;stroke:none" transform="translate(96 60)"/><path d="M0 0a8 8 0 1 1 0-16A8 8 0 0 1 0 0" style="fill:#404040;fill-opacity:1;fill-rule:nonzero;stroke:none" transform="translate(94 152)"/><path d="M0 0c2.206 0 4-1.794 4-4S2.206-8 0-8s-4 1.794-4 4 1.794 4 4 4" style="fill:#4c4c4c;fill-opacity:1;fill-rule:nonzero;stroke:none" transform="translate(94 148)"/><path d="M0 0a2 2 0 1 0-4.001.001A2 2 0 0 0 0 0" style="fill:#404040;fill-opacity:1;fill-rule:nonzero;stroke:none" transform="translate(96 144)"/><path d="M0 0a2 2 0 1 0-4.001.001A2 2 0 0 0 0 0" style="fill:#404040;fill-opacity:1;fill-rule:nonzero;stroke:none" transform="translate(72 174)"/><path d="M0 0a2 2 0 1 0-4.001.001A2 2 0 0 0 0 0" style="fill:#404040;fill-opacity:1;fill-rule:nonzero;stroke:none" transform="translate(16 174)"/><path d="M0 0a2 2 0 1 0-4.001.001A2 2 0 0 0 0 0" style="fill:#404040;fill-opacity:1;fill-rule:nonzero;stroke:none" transform="translate(72 154)"/><path d="M0 0a2 2 0 1 0-4.001.001A2 2 0 0 0 0 0" style="fill:#404040;fill-opacity:1;fill-rule:nonzero;stroke:none" transform="translate(16 154)"/><path d="M0 0a2 2 0 1 0-4.001.001A2 2 0 0 0 0 0" style="fill:#404040;fill-opacity:1;fill-rule:nonzero;stroke:none" transform="translate(244 174)"/><path d="M0 0a2 2 0 1 0-4.001.001A2 2 0 0 0 0 0" style="fill:#404040;fill-opacity:1;fill-rule:nonzero;stroke:none" transform="translate(188 174)"/><path d="M0 0a2 2 0 1 0-4.001.001A2 2 0 0 0 0 0" style="fill:#404040;fill-opacity:1;fill-rule:nonzero;stroke:none" transform="translate(244 154)"/><path d="M0 0a2 2 0 1 0-4.001.001A2 2 0 0 0 0 0" style="fill:#404040;fill-opacity:1;fill-rule:nonzero;stroke:none" transform="translate(188 154)"/><path d="M92 200H76v4h16z" style="fill:#262626;fill-opacity:1;fill-rule:nonzero;stroke:none"/></g></svg>