<?xml version="1.0" encoding="UTF-8" standalone="no"?>
<svg
   xmlns:dc="http://purl.org/dc/elements/1.1/"
   xmlns:cc="http://creativecommons.org/ns#"
   xmlns:rdf="http://www.w3.org/1999/02/22-rdf-syntax-ns#"
   xmlns:svg="http://www.w3.org/2000/svg"
   xmlns="http://www.w3.org/2000/svg"
   viewBox="0 0 181.33333 330.66665"
   height="330.66666"
   width="181.33333"
   xml:space="preserve"
   id="svg2"
   version="1.1"><metadata
     id="metadata8"><rdf:RDF><cc:Work
         rdf:about=""><dc:format>image/svg+xml</dc:format><dc:type
           rdf:resource="http://purl.org/dc/dcmitype/StillImage" /></cc:Work></rdf:RDF></metadata><defs
     id="defs6"><clipPath
       id="clipPath18"
       clipPathUnits="userSpaceOnUse"><path
         id="path16"
         d="M 0,256 H 256 V 0 H 0 Z" /></clipPath><clipPath
       id="clipPath26"
       clipPathUnits="userSpaceOnUse"><path
         id="path24"
         d="M 60,252 H 196 V 4 H 60 Z" /></clipPath></defs><g
     transform="matrix(1.3333333,0,0,-1.3333333,-79.999998,335.99999)"
     id="g10"><g
       id="g12"><g
         clip-path="url(#clipPath18)"
         id="g14"><g
           id="g20"><g
             id="g22" /><g
             id="g34"><g
               style="opacity:0.5"
               id="g32"
               clip-path="url(#clipPath26)"><g
                 id="g30"
                 transform="translate(184,252)"><path
                   id="path28"
                   style="fill:#ffffff;fill-opacity:1;fill-rule:nonzero;stroke:none"
                   d="m 0,0 h -44 c -3.546,0 -6.738,-1.546 -8.937,-4 h -6.126 c -2.199,2.454 -5.391,4 -8.937,4 h -44 c -6.617,0 -12,-5.383 -12,-12 v -224 c 0,-6.617 5.383,-12 12,-12 h 44 c 3.727,0 7.061,1.707 9.264,4.381 0.87,-0.248 1.788,-0.381 2.736,-0.381 0.948,0 1.866,0.133 2.736,0.381 2.202,-2.674 5.537,-4.381 9.264,-4.381 H 0 c 6.617,0 12,5.383 12,12 V -12 C 12,-5.383 6.617,0 0,0" /></g></g></g></g><g
           transform="translate(128,16)"
           id="g36"><path
             id="path38"
             style="fill:#e77f22;fill-opacity:1;fill-rule:nonzero;stroke:none"
             d="m 0,0 v 0 c -1.104,0 -2,0.896 -2,2 v 5 c 0,0.553 0.448,1 1,1 H 1 C 1.553,8 2,7.553 2,7 V 2 C 2,0.896 1.104,0 0,0" /></g><g
           transform="translate(116,240)"
           id="g40"><path
             id="path42"
             style="fill:#595959;fill-opacity:1;fill-rule:nonzero;stroke:none"
             d="m 0,0 v -224 h 3.087 c 1.124,0 2.203,0.469 2.95,1.309 1.466,1.647 3.597,2.691 5.963,2.691 2.366,0 4.496,-1.044 5.963,-2.691 0.748,-0.84 1.825,-1.309 2.95,-1.309 H 24 V 0 Z" /></g><path
           id="path44"
           style="fill:#8c8c8c;fill-opacity:1;fill-rule:nonzero;stroke:none"
           d="m 140,52 h -24 v 36 h 24 z" /><path
           id="path46"
           style="fill:#8c8c8c;fill-opacity:1;fill-rule:nonzero;stroke:none"
           d="m 140,168 h -24 v 36 h 24 z" /><g
           transform="translate(116,12)"
           id="g48"><path
             id="path50"
             style="fill:#bfbfbf;fill-opacity:1;fill-rule:nonzero;stroke:none"
             d="m 0,0 h -44 c -2.209,0 -4,1.791 -4,4 v 224 c 0,2.209 1.791,4 4,4 H 0 c 2.209,0 4,-1.791 4,-4 V 4 C 4,1.791 2.209,0 0,0" /></g><g
           transform="translate(184,12)"
           id="g52"><path
             id="path54"
             style="fill:#bfbfbf;fill-opacity:1;fill-rule:nonzero;stroke:none"
             d="m 0,0 h -44 c -2.209,0 -4,1.791 -4,4 v 224 c 0,2.209 1.791,4 4,4 H 0 c 2.209,0 4,-1.791 4,-4 V 4 C 4,1.791 2.209,0 0,0" /></g><path
           id="path56"
           style="fill:#737373;fill-opacity:1;fill-rule:nonzero;stroke:none"
           d="m 184,32 h -44 v 204 h 44 z" /><path
           id="path58"
           style="fill:#737373;fill-opacity:1;fill-rule:nonzero;stroke:none"
           d="M 116,32 H 72 v 204 h 44 z" /><g
           transform="translate(128,64)"
           id="g60"><path
             id="path62"
             style="fill:#bfbfbf;fill-opacity:1;fill-rule:nonzero;stroke:none"
             d="m 0,0 v 0 c -2.209,0 -4,1.791 -4,4 v 120 c 0,2.209 1.791,4 4,4 2.209,0 4,-1.791 4,-4 V 4 C 4,1.791 2.209,0 0,0" /></g><g
           transform="translate(72,91.5811)"
           id="g64"><path
             id="path66"
             style="fill:#a6a6a6;fill-opacity:1;fill-rule:nonzero;stroke:none"
             d="m 0,0 v -5.657 l 44,-44 V -44 Z" /></g><g
           transform="translate(72,68.9531)"
           id="g68"><path
             id="path70"
             style="fill:#a6a6a6;fill-opacity:1;fill-rule:nonzero;stroke:none"
             d="m 0,0 v -5.656 l 31.296,-31.297 h 5.657 z" /></g><g
           transform="translate(72,102.8945)"
           id="g72"><path
             id="path74"
             style="fill:#a6a6a6;fill-opacity:1;fill-rule:nonzero;stroke:none"
             d="m 0,0 v -5.657 l 44,-44 V -44 Z" /></g><g
           transform="translate(72,114.208)"
           id="g76"><path
             id="path78"
             style="fill:#a6a6a6;fill-opacity:1;fill-rule:nonzero;stroke:none"
             d="m 0,0 v -5.656 l 44,-44 V -44 Z" /></g><g
           transform="translate(72,125.5215)"
           id="g80"><path
             id="path82"
             style="fill:#a6a6a6;fill-opacity:1;fill-rule:nonzero;stroke:none"
             d="m 0,0 v -5.656 l 44,-44 V -44 Z" /></g><g
           transform="translate(72,57.6396)"
           id="g84"><path
             id="path86"
             style="fill:#a6a6a6;fill-opacity:1;fill-rule:nonzero;stroke:none"
             d="M 0,0 V -5.657 L 19.983,-25.64 h 5.657 z" /></g><g
           transform="translate(72,80.2666)"
           id="g88"><path
             id="path90"
             style="fill:#a6a6a6;fill-opacity:1;fill-rule:nonzero;stroke:none"
             d="M 0,0 V -5.656 L 42.61,-48.267 H 44 V -44 Z" /></g><g
           transform="translate(72,136.8354)"
           id="g92"><path
             id="path94"
             style="fill:#a6a6a6;fill-opacity:1;fill-rule:nonzero;stroke:none"
             d="m 0,0 v -5.657 l 44,-44 V -44 Z" /></g><g
           transform="translate(116,234.2568)"
           id="g96"><path
             id="path98"
             style="fill:#a6a6a6;fill-opacity:1;fill-rule:nonzero;stroke:none"
             d="M 0,0 V 1.743 H -1.743 Z" /></g><g
           transform="translate(72,35.0117)"
           id="g100"><path
             id="path102"
             style="fill:#a6a6a6;fill-opacity:1;fill-rule:nonzero;stroke:none"
             d="M 0,0 V -3.012 H 3.012 Z" /></g><g
           transform="translate(72,46.3262)"
           id="g104"><path
             id="path106"
             style="fill:#a6a6a6;fill-opacity:1;fill-rule:nonzero;stroke:none"
             d="m 0,0 v -5.657 l 8.669,-8.669 h 5.657 z" /></g><g
           transform="translate(72,182.0903)"
           id="g108"><path
             id="path110"
             style="fill:#a6a6a6;fill-opacity:1;fill-rule:nonzero;stroke:none"
             d="m 0,0 v -5.657 l 44,-44 V -44 Z" /></g><g
           transform="translate(74.6592,236)"
           id="g112"><path
             id="path114"
             style="fill:#a6a6a6;fill-opacity:1;fill-rule:nonzero;stroke:none"
             d="m 0,0 h -2.659 v -2.998 l 44,-44 v 5.657 z" /></g><g
           transform="translate(85.9727,236)"
           id="g116"><path
             id="path118"
             style="fill:#a6a6a6;fill-opacity:1;fill-rule:nonzero;stroke:none"
             d="m 0,0 h -5.657 l 35.684,-35.684 v 5.657 z" /></g><g
           transform="translate(108.6001,236)"
           id="g120"><path
             id="path122"
             style="fill:#a6a6a6;fill-opacity:1;fill-rule:nonzero;stroke:none"
             d="M 0,0 H -5.657 L 7.4,-13.057 V -7.4 Z" /></g><g
           transform="translate(97.2861,236)"
           id="g124"><path
             id="path126"
             style="fill:#a6a6a6;fill-opacity:1;fill-rule:nonzero;stroke:none"
             d="m 0,0 h -5.657 l 24.371,-24.371 v 5.657 z" /></g><g
           transform="translate(72,227.3452)"
           id="g128"><path
             id="path130"
             style="fill:#a6a6a6;fill-opacity:1;fill-rule:nonzero;stroke:none"
             d="m 0,0 v -5.657 l 44,-44 V -44 Z" /></g><g
           transform="translate(72,204.7178)"
           id="g132"><path
             id="path134"
             style="fill:#a6a6a6;fill-opacity:1;fill-rule:nonzero;stroke:none"
             d="m 0,0 v -5.657 l 44,-44 V -44 Z" /></g><g
           transform="translate(72,170.7769)"
           id="g136"><path
             id="path138"
             style="fill:#a6a6a6;fill-opacity:1;fill-rule:nonzero;stroke:none"
             d="m 0,0 v -5.657 l 44,-44 V -44 Z" /></g><g
           transform="translate(72,216.0317)"
           id="g140"><path
             id="path142"
             style="fill:#a6a6a6;fill-opacity:1;fill-rule:nonzero;stroke:none"
             d="m 0,0 v -5.657 l 44,-44 V -44 Z" /></g><g
           transform="translate(72,159.4629)"
           id="g144"><path
             id="path146"
             style="fill:#a6a6a6;fill-opacity:1;fill-rule:nonzero;stroke:none"
             d="M 0,0 V -5.657 L 44,-49.656 V -44 Z" /></g><g
           transform="translate(72,193.4043)"
           id="g148"><path
             id="path150"
             style="fill:#a6a6a6;fill-opacity:1;fill-rule:nonzero;stroke:none"
             d="m 0,0 v -5.657 l 44,-44 V -44 Z" /></g><g
           transform="translate(72,148.1494)"
           id="g152"><path
             id="path154"
             style="fill:#a6a6a6;fill-opacity:1;fill-rule:nonzero;stroke:none"
             d="m 0,0 v -5.657 l 44,-44 V -44 Z" /></g><g
           transform="translate(140,91.5811)"
           id="g156"><path
             id="path158"
             style="fill:#a6a6a6;fill-opacity:1;fill-rule:nonzero;stroke:none"
             d="m 0,0 v -5.657 l 44,-44 V -44 Z" /></g><g
           transform="translate(140,68.9531)"
           id="g160"><path
             id="path162"
             style="fill:#a6a6a6;fill-opacity:1;fill-rule:nonzero;stroke:none"
             d="m 0,0 v -5.656 l 31.297,-31.297 h 5.656 z" /></g><g
           transform="translate(140,102.8945)"
           id="g164"><path
             id="path166"
             style="fill:#a6a6a6;fill-opacity:1;fill-rule:nonzero;stroke:none"
             d="m 0,0 v -5.657 l 44,-44 V -44 Z" /></g><g
           transform="translate(140,114.208)"
           id="g168"><path
             id="path170"
             style="fill:#a6a6a6;fill-opacity:1;fill-rule:nonzero;stroke:none"
             d="m 0,0 v -5.656 l 44,-44 V -44 Z" /></g><g
           transform="translate(140,125.5215)"
           id="g172"><path
             id="path174"
             style="fill:#a6a6a6;fill-opacity:1;fill-rule:nonzero;stroke:none"
             d="m 0,0 v -5.656 l 44,-44 V -44 Z" /></g><g
           transform="translate(140,57.6396)"
           id="g176"><path
             id="path178"
             style="fill:#a6a6a6;fill-opacity:1;fill-rule:nonzero;stroke:none"
             d="M 0,0 V -5.657 L 19.982,-25.64 h 5.658 z" /></g><g
           transform="translate(140,80.2666)"
           id="g180"><path
             id="path182"
             style="fill:#a6a6a6;fill-opacity:1;fill-rule:nonzero;stroke:none"
             d="M 0,0 V -5.656 L 42.61,-48.267 H 44 V -44 Z" /></g><g
           transform="translate(140,136.8354)"
           id="g184"><path
             id="path186"
             style="fill:#a6a6a6;fill-opacity:1;fill-rule:nonzero;stroke:none"
             d="m 0,0 v -5.657 l 44,-44 V -44 Z" /></g><g
           transform="translate(184,234.2568)"
           id="g188"><path
             id="path190"
             style="fill:#a6a6a6;fill-opacity:1;fill-rule:nonzero;stroke:none"
             d="M 0,0 V 1.743 H -1.743 Z" /></g><g
           transform="translate(140,35.0117)"
           id="g192"><path
             id="path194"
             style="fill:#a6a6a6;fill-opacity:1;fill-rule:nonzero;stroke:none"
             d="M 0,0 V -3.012 H 3.012 Z" /></g><g
           transform="translate(140,46.3262)"
           id="g196"><path
             id="path198"
             style="fill:#a6a6a6;fill-opacity:1;fill-rule:nonzero;stroke:none"
             d="m 0,0 v -5.657 l 8.669,-8.669 h 5.657 z" /></g><g
           transform="translate(140,182.0903)"
           id="g200"><path
             id="path202"
             style="fill:#a6a6a6;fill-opacity:1;fill-rule:nonzero;stroke:none"
             d="m 0,0 v -5.657 l 44,-44 V -44 Z" /></g><g
           transform="translate(142.6592,236)"
           id="g204"><path
             id="path206"
             style="fill:#a6a6a6;fill-opacity:1;fill-rule:nonzero;stroke:none"
             d="m 0,0 h -2.659 v -2.998 l 44,-44 v 5.657 z" /></g><g
           transform="translate(153.9727,236)"
           id="g208"><path
             id="path210"
             style="fill:#a6a6a6;fill-opacity:1;fill-rule:nonzero;stroke:none"
             d="m 0,0 h -5.657 l 35.684,-35.684 v 5.657 z" /></g><g
           transform="translate(176.5996,236)"
           id="g212"><path
             id="path214"
             style="fill:#a6a6a6;fill-opacity:1;fill-rule:nonzero;stroke:none"
             d="M 0,0 H -5.656 L 7.4,-13.057 V -7.4 Z" /></g><g
           transform="translate(165.2861,236)"
           id="g216"><path
             id="path218"
             style="fill:#a6a6a6;fill-opacity:1;fill-rule:nonzero;stroke:none"
             d="m 0,0 h -5.656 l 24.37,-24.371 v 5.657 z" /></g><g
           transform="translate(140,227.3452)"
           id="g220"><path
             id="path222"
             style="fill:#a6a6a6;fill-opacity:1;fill-rule:nonzero;stroke:none"
             d="m 0,0 v -5.657 l 44,-44 V -44 Z" /></g><g
           transform="translate(140,204.7178)"
           id="g224"><path
             id="path226"
             style="fill:#a6a6a6;fill-opacity:1;fill-rule:nonzero;stroke:none"
             d="m 0,0 v -5.657 l 44,-44 V -44 Z" /></g><g
           transform="translate(140,170.7769)"
           id="g228"><path
             id="path230"
             style="fill:#a6a6a6;fill-opacity:1;fill-rule:nonzero;stroke:none"
             d="m 0,0 v -5.657 l 44,-44 V -44 Z" /></g><g
           transform="translate(140,216.0317)"
           id="g232"><path
             id="path234"
             style="fill:#a6a6a6;fill-opacity:1;fill-rule:nonzero;stroke:none"
             d="m 0,0 v -5.657 l 44,-44 V -44 Z" /></g><g
           transform="translate(140,159.4629)"
           id="g236"><path
             id="path238"
             style="fill:#a6a6a6;fill-opacity:1;fill-rule:nonzero;stroke:none"
             d="M 0,0 V -5.657 L 44,-49.656 V -44 Z" /></g><g
           transform="translate(140,193.4043)"
           id="g240"><path
             id="path242"
             style="fill:#a6a6a6;fill-opacity:1;fill-rule:nonzero;stroke:none"
             d="m 0,0 v -5.657 l 44,-44 V -44 Z" /></g><g
           transform="translate(140,148.1494)"
           id="g244"><path
             id="path246"
             style="fill:#a6a6a6;fill-opacity:1;fill-rule:nonzero;stroke:none"
             d="m 0,0 v -5.657 l 44,-44 V -44 Z" /></g><g
           transform="translate(152,40)"
           id="g248"><path
             id="path250"
             style="fill:#bfbfbf;fill-opacity:1;fill-rule:nonzero;stroke:none"
             d="m 0,0 c 0,2.209 -1.791,4 -4,4 -2.209,0 -4,-1.791 -4,-4 0,-2.209 1.791,-4 4,-4 2.209,0 4,1.791 4,4" /></g><g
           transform="translate(152,56)"
           id="g252"><path
             id="path254"
             style="fill:#bfbfbf;fill-opacity:1;fill-rule:nonzero;stroke:none"
             d="m 0,0 c 0,2.209 -1.791,4 -4,4 -2.209,0 -4,-1.791 -4,-4 0,-2.209 1.791,-4 4,-4 2.209,0 4,1.791 4,4" /></g></g></g></g></svg>