<svg xmlns="http://www.w3.org/2000/svg" xml:space="preserve" width="181.333" height="330.667" viewBox="0 0 181.333 330.667"><defs><clipPath id="a" clipPathUnits="userSpaceOnUse"><path d="M0 256h256V0H0Z"/></clipPath><clipPath id="b" clipPathUnits="userSpaceOnUse"><path d="M60 252h136V4H60Z"/></clipPath></defs><g clip-path="url(#a)" transform="matrix(1.33333 0 0 -1.33333 -80 336)"><g clip-path="url(#b)" style="opacity:.5"><path d="M0 0h-44a11.97 11.97 0 0 1-8.937-4h-6.126A11.97 11.97 0 0 1-68 0h-44c-6.617 0-12-5.383-12-12v-224c0-6.617 5.383-12 12-12h44c3.727 0 7.061 1.707 9.264 4.381A10 10 0 0 1-56-244c.948 0 1.866.133 2.736.381A11.98 11.98 0 0 1-44-248H0c6.617 0 12 5.383 12 12v224C12-5.383 6.617 0 0 0" style="fill:#fff;fill-opacity:1;fill-rule:nonzero;stroke:none" transform="translate(184 252)"/></g><path d="M0 0a2 2 0 0 0-2 2v5a1 1 0 0 0 1 1h2a1 1 0 0 0 1-1V2a2 2 0 0 0-2-2" style="fill:#e77f22;fill-opacity:1;fill-rule:nonzero;stroke:none" transform="translate(128 16)"/><path d="M0 0v-224h3.087c1.124 0 2.203.469 2.95 1.309A7.97 7.97 0 0 0 12-220a7.97 7.97 0 0 0 5.963-2.691 3.94 3.94 0 0 1 2.95-1.309H24V0Z" style="fill:#595959;fill-opacity:1;fill-rule:nonzero;stroke:none" transform="translate(116 240)"/><path d="M140 52h-24v36h24zm0 116h-24v36h24z" style="fill:#8c8c8c;fill-opacity:1;fill-rule:nonzero;stroke:none"/><path d="M0 0h-44a4 4 0 0 0-4 4v224a4 4 0 0 0 4 4H0a4 4 0 0 0 4-4V4a4 4 0 0 0-4-4" style="fill:#bfbfbf;fill-opacity:1;fill-rule:nonzero;stroke:none" transform="translate(116 12)"/><path d="M0 0h-44a4 4 0 0 0-4 4v224a4 4 0 0 0 4 4H0a4 4 0 0 0 4-4V4a4 4 0 0 0-4-4" style="fill:#bfbfbf;fill-opacity:1;fill-rule:nonzero;stroke:none" transform="translate(184 12)"/><path d="M184 32h-44v204h44zm-68 0H72v204h44z" style="fill:#737373;fill-opacity:1;fill-rule:nonzero;stroke:none"/><path d="M0 0a4 4 0 0 0-4 4v120a4 4 0 0 0 8 0V4a4 4 0 0 0-4-4" style="fill:#bfbfbf;fill-opacity:1;fill-rule:nonzero;stroke:none" transform="translate(128 64)"/><path d="M0 0v-5.657l44-44V-44Z" style="fill:#a6a6a6;fill-opacity:1;fill-rule:nonzero;stroke:none" transform="translate(72 91.581)"/><path d="M0 0v-5.656l31.296-31.297h5.657z" style="fill:#a6a6a6;fill-opacity:1;fill-rule:nonzero;stroke:none" transform="translate(72 68.953)"/><path d="M0 0v-5.657l44-44V-44Z" style="fill:#a6a6a6;fill-opacity:1;fill-rule:nonzero;stroke:none" transform="translate(72 102.894)"/><path d="M0 0v-5.656l44-44V-44Z" style="fill:#a6a6a6;fill-opacity:1;fill-rule:nonzero;stroke:none" transform="translate(72 114.208)"/><path d="M0 0v-5.656l44-44V-44Z" style="fill:#a6a6a6;fill-opacity:1;fill-rule:nonzero;stroke:none" transform="translate(72 125.522)"/><path d="M0 0v-5.657L19.983-25.64h5.657z" style="fill:#a6a6a6;fill-opacity:1;fill-rule:nonzero;stroke:none" transform="translate(72 57.64)"/><path d="M0 0v-5.656l42.61-42.611H44V-44Z" style="fill:#a6a6a6;fill-opacity:1;fill-rule:nonzero;stroke:none" transform="translate(72 80.267)"/><path d="M0 0v-5.657l44-44V-44Z" style="fill:#a6a6a6;fill-opacity:1;fill-rule:nonzero;stroke:none" transform="translate(72 136.835)"/><path d="M0 0v1.743h-1.743Z" style="fill:#a6a6a6;fill-opacity:1;fill-rule:nonzero;stroke:none" transform="translate(116 234.257)"/><path d="M0 0v-3.012h3.012Z" style="fill:#a6a6a6;fill-opacity:1;fill-rule:nonzero;stroke:none" transform="translate(72 35.012)"/><path d="M0 0v-5.657l8.669-8.669h5.657z" style="fill:#a6a6a6;fill-opacity:1;fill-rule:nonzero;stroke:none" transform="translate(72 46.326)"/><path d="M0 0v-5.657l44-44V-44Z" style="fill:#a6a6a6;fill-opacity:1;fill-rule:nonzero;stroke:none" transform="translate(72 182.09)"/><path d="M0 0h-2.659v-2.998l44-44v5.657z" style="fill:#a6a6a6;fill-opacity:1;fill-rule:nonzero;stroke:none" transform="translate(74.66 236)"/><path d="M0 0h-5.657l35.684-35.684v5.657z" style="fill:#a6a6a6;fill-opacity:1;fill-rule:nonzero;stroke:none" transform="translate(85.973 236)"/><path d="M0 0h-5.657L7.4-13.057V-7.4Z" style="fill:#a6a6a6;fill-opacity:1;fill-rule:nonzero;stroke:none" transform="translate(108.6 236)"/><path d="M0 0h-5.657l24.371-24.371v5.657z" style="fill:#a6a6a6;fill-opacity:1;fill-rule:nonzero;stroke:none" transform="translate(97.286 236)"/><path d="M0 0v-5.657l44-44V-44Z" style="fill:#a6a6a6;fill-opacity:1;fill-rule:nonzero;stroke:none" transform="translate(72 227.345)"/><path d="M0 0v-5.657l44-44V-44Z" style="fill:#a6a6a6;fill-opacity:1;fill-rule:nonzero;stroke:none" transform="translate(72 204.718)"/><path d="M0 0v-5.657l44-44V-44Z" style="fill:#a6a6a6;fill-opacity:1;fill-rule:nonzero;stroke:none" transform="translate(72 170.777)"/><path d="M0 0v-5.657l44-44V-44Z" style="fill:#a6a6a6;fill-opacity:1;fill-rule:nonzero;stroke:none" transform="translate(72 216.032)"/><path d="M0 0v-5.657l44-43.999V-44Z" style="fill:#a6a6a6;fill-opacity:1;fill-rule:nonzero;stroke:none" transform="translate(72 159.463)"/><path d="M0 0v-5.657l44-44V-44Z" style="fill:#a6a6a6;fill-opacity:1;fill-rule:nonzero;stroke:none" transform="translate(72 193.404)"/><path d="M0 0v-5.657l44-44V-44Z" style="fill:#a6a6a6;fill-opacity:1;fill-rule:nonzero;stroke:none" transform="translate(72 148.15)"/><path d="M0 0v-5.657l44-44V-44Z" style="fill:#a6a6a6;fill-opacity:1;fill-rule:nonzero;stroke:none" transform="translate(140 91.581)"/><path d="M0 0v-5.656l31.297-31.297h5.656z" style="fill:#a6a6a6;fill-opacity:1;fill-rule:nonzero;stroke:none" transform="translate(140 68.953)"/><path d="M0 0v-5.657l44-44V-44Z" style="fill:#a6a6a6;fill-opacity:1;fill-rule:nonzero;stroke:none" transform="translate(140 102.894)"/><path d="M0 0v-5.656l44-44V-44Z" style="fill:#a6a6a6;fill-opacity:1;fill-rule:nonzero;stroke:none" transform="translate(140 114.208)"/><path d="M0 0v-5.656l44-44V-44Z" style="fill:#a6a6a6;fill-opacity:1;fill-rule:nonzero;stroke:none" transform="translate(140 125.522)"/><path d="M0 0v-5.657L19.982-25.64h5.658z" style="fill:#a6a6a6;fill-opacity:1;fill-rule:nonzero;stroke:none" transform="translate(140 57.64)"/><path d="M0 0v-5.656l42.61-42.611H44V-44Z" style="fill:#a6a6a6;fill-opacity:1;fill-rule:nonzero;stroke:none" transform="translate(140 80.267)"/><path d="M0 0v-5.657l44-44V-44Z" style="fill:#a6a6a6;fill-opacity:1;fill-rule:nonzero;stroke:none" transform="translate(140 136.835)"/><path d="M0 0v1.743h-1.743Z" style="fill:#a6a6a6;fill-opacity:1;fill-rule:nonzero;stroke:none" transform="translate(184 234.257)"/><path d="M0 0v-3.012h3.012Z" style="fill:#a6a6a6;fill-opacity:1;fill-rule:nonzero;stroke:none" transform="translate(140 35.012)"/><path d="M0 0v-5.657l8.669-8.669h5.657z" style="fill:#a6a6a6;fill-opacity:1;fill-rule:nonzero;stroke:none" transform="translate(140 46.326)"/><path d="M0 0v-5.657l44-44V-44Z" style="fill:#a6a6a6;fill-opacity:1;fill-rule:nonzero;stroke:none" transform="translate(140 182.09)"/><path d="M0 0h-2.659v-2.998l44-44v5.657z" style="fill:#a6a6a6;fill-opacity:1;fill-rule:nonzero;stroke:none" transform="translate(142.66 236)"/><path d="M0 0h-5.657l35.684-35.684v5.657z" style="fill:#a6a6a6;fill-opacity:1;fill-rule:nonzero;stroke:none" transform="translate(153.973 236)"/><path d="M0 0h-5.656L7.4-13.057V-7.4Z" style="fill:#a6a6a6;fill-opacity:1;fill-rule:nonzero;stroke:none" transform="translate(176.6 236)"/><path d="M0 0h-5.656l24.37-24.371v5.657z" style="fill:#a6a6a6;fill-opacity:1;fill-rule:nonzero;stroke:none" transform="translate(165.286 236)"/><path d="M0 0v-5.657l44-44V-44Z" style="fill:#a6a6a6;fill-opacity:1;fill-rule:nonzero;stroke:none" transform="translate(140 227.345)"/><path d="M0 0v-5.657l44-44V-44Z" style="fill:#a6a6a6;fill-opacity:1;fill-rule:nonzero;stroke:none" transform="translate(140 204.718)"/><path d="M0 0v-5.657l44-44V-44Z" style="fill:#a6a6a6;fill-opacity:1;fill-rule:nonzero;stroke:none" transform="translate(140 170.777)"/><path d="M0 0v-5.657l44-44V-44Z" style="fill:#a6a6a6;fill-opacity:1;fill-rule:nonzero;stroke:none" transform="translate(140 216.032)"/><path d="M0 0v-5.657l44-43.999V-44Z" style="fill:#a6a6a6;fill-opacity:1;fill-rule:nonzero;stroke:none" transform="translate(140 159.463)"/><path d="M0 0v-5.657l44-44V-44Z" style="fill:#a6a6a6;fill-opacity:1;fill-rule:nonzero;stroke:none" transform="translate(140 193.404)"/><path d="M0 0v-5.657l44-44V-44Z" style="fill:#a6a6a6;fill-opacity:1;fill-rule:nonzero;stroke:none" transform="translate(140 148.15)"/><path d="M0 0a4 4 0 1 1-8 0 4 4 0 0 1 8 0" style="fill:#bfbfbf;fill-opacity:1;fill-rule:nonzero;stroke:none" transform="translate(152 40)"/><path d="M0 0a4 4 0 1 1-8 0 4 4 0 0 1 8 0" style="fill:#bfbfbf;fill-opacity:1;fill-rule:nonzero;stroke:none" transform="translate(152 56)"/></g></svg>