<svg xmlns="http://www.w3.org/2000/svg" xml:space="preserve" width="330.666" height="245.333" viewBox="0 0 330.666 245.333"><defs><clipPath id="a" clipPathUnits="userSpaceOnUse"><path d="M0 256h256V0H0Z"/></clipPath><clipPath id="b" clipPathUnits="userSpaceOnUse"><path d="M4 220h248V36H4Z"/></clipPath><clipPath id="c" clipPathUnits="userSpaceOnUse"><path d="M0 256h256V0H0Z"/></clipPath></defs><g clip-path="url(#a)" transform="matrix(1.33333 0 0 -1.33333 -5.334 293.333)"><g clip-path="url(#b)" style="opacity:.5"><path d="M0 0a8 8 0 0 1-5.657 2.343h-232a8 8 0 0 1-8-8v-168a8 8 0 0 1 8-8h232a8 8 0 0 1 8 8v168A8 8 0 0 1 0 0" style="fill:#fff;fill-opacity:1;fill-rule:nonzero;stroke:none" transform="translate(249.657 217.657)"/></g></g><path d="M244 212H12v-28h232z" style="fill:#404040;fill-opacity:1;fill-rule:nonzero;stroke:none" transform="matrix(1.33333 0 0 -1.33333 -5.334 293.333)"/><path d="M244 44H12v144h232z" style="fill:#333;fill-opacity:1;fill-rule:nonzero;stroke:none" transform="matrix(1.33333 0 0 -1.33333 -5.334 293.333)"/><g clip-path="url(#c)" transform="matrix(1.33333 0 0 -1.33333 -5.334 293.333)"><path d="M0 0h-232v91a5 5 0 0 0 5 5H-5a5 5 0 0 0 5-5z" style="fill:#404040;fill-opacity:1;fill-rule:nonzero;stroke:none" transform="translate(244 48)"/><path d="M240 52H16v80h224z" style="fill:#333;fill-opacity:1;fill-rule:nonzero;stroke:none"/><path d="M36 116H20v12h16zm20 0H40v12h16zm20 0H60v12h16zm20 0H80v12h16zm20 0h-16v12h16zm20 0h-16v12h16zm20 0h-16v12h16zm20 0h-16v12h16zm20 0h-16v12h16zm20 0h-16v12h16zM48 96H32v12h16zm20 0H52v12h16zm20 0H72v12h16zm20 0H92v12h16zm20 0h-16v12h16zm20 0h-16v12h16zm20 0h-16v12h16zm20 0h-16v12h16zm20 0h-16v12h16zm20 0h-16v12h16zM40.24 56h-16v12h16zM60 56H44v12h16zm19.76 0h-16v12h16zm19.761 0h-16v12h16zm19.759 0h-16v12h16zm19.761 0h-16v12h16zm19.76 0h-16v12h16zm19.76 0h-16v12h16zm19.76 0h-16v12h16zM52 76H36v12h16zm20 0H56v12h16zm20 0H76v12h16zm20 0H96v12h16zm20 0h-16v12h16zm20 0h-16v12h16zm20 0h-16v12h16zm20 0h-16v12h16zm20 0h-16v12h16zm20 0h-16v12h16zm0-20h-29.919v12H232Z" style="fill:#4c4c4c;fill-opacity:1;fill-rule:nonzero;stroke:none"/></g></svg>