<?xml version="1.0" encoding="UTF-8" standalone="no"?>
<svg
   xmlns:dc="http://purl.org/dc/elements/1.1/"
   xmlns:cc="http://creativecommons.org/ns#"
   xmlns:rdf="http://www.w3.org/1999/02/22-rdf-syntax-ns#"
   xmlns:svg="http://www.w3.org/2000/svg"
   xmlns="http://www.w3.org/2000/svg"
   viewBox="0 0 277.33331 330.66665"
   height="330.66666"
   width="277.33331"
   xml:space="preserve"
   id="svg2"
   version="1.1"><metadata
     id="metadata8"><rdf:RDF><cc:Work
         rdf:about=""><dc:format>image/svg+xml</dc:format><dc:type
           rdf:resource="http://purl.org/dc/dcmitype/StillImage" /></cc:Work></rdf:RDF></metadata><defs
     id="defs6"><clipPath
       id="clipPath18"
       clipPathUnits="userSpaceOnUse"><path
         id="path16"
         d="M 0,256 H 256 V 0 H 0 Z" /></clipPath><clipPath
       id="clipPath26"
       clipPathUnits="userSpaceOnUse"><path
         id="path24"
         d="M 24,252 H 232 V 4 H 24 Z" /></clipPath></defs><g
     transform="matrix(1.3333333,0,0,-1.3333333,-31.999999,335.99999)"
     id="g10"><g
       id="g12"><g
         clip-path="url(#clipPath18)"
         id="g14"><g
           id="g20"><g
             id="g22" /><g
             id="g34"><g
               style="opacity:0.5"
               id="g32"
               clip-path="url(#clipPath26)"><g
                 id="g30"
                 transform="translate(222,252)"><path
                   id="path28"
                   style="fill:#ffffff;fill-opacity:1;fill-rule:nonzero;stroke:none"
                   d="m 0,0 h -188 c -5.514,0 -10,-4.486 -10,-10 v -56 -2 -72 -4 -90 c 0,-5.514 4.486,-10 10,-10 h 16.521 c 2.019,-2.441 5.071,-4 8.479,-4 h 50 c 3.408,0 6.46,1.559 8.479,4 h 21.042 c 2.019,-2.441 5.071,-4 8.479,-4 h 50 c 3.408,0 6.46,1.559 8.479,4 H 0 c 5.514,0 10,4.486 10,10 v 90 4 72 2 56 C 10,-4.486 5.514,0 0,0" /></g></g></g></g><g
           transform="translate(222,244)"
           id="g36"><path
             id="path38"
             style="fill:#cccccc;fill-opacity:1;fill-rule:nonzero;stroke:none"
             d="m 0,0 h -188 c -1.104,0 -2,-0.896 -2,-2 v -56 c 0,-1.104 0.896,-2 2,-2 H 0 c 1.104,0 2,0.896 2,2 V -2 C 2,-0.896 1.104,0 0,0" /></g><g
           transform="translate(222,16)"
           id="g40"><path
             id="path42"
             style="fill:#b3b3b3;fill-opacity:1;fill-rule:nonzero;stroke:none"
             d="m 0,0 h -188 c -1.104,0 -2,0.896 -2,2 v 96 c 0,1.104 0.896,2 2,2 H 0 c 1.104,0 2,-0.896 2,-2 V 2 C 2,0.896 1.104,0 0,0" /></g><path
           id="path44"
           style="fill:#cccccc;fill-opacity:1;fill-rule:nonzero;stroke:none"
           d="M 224,184 H 32 v -72 h 192 z" /><path
           id="path46"
           style="fill:#d9d9d9;fill-opacity:1;fill-rule:nonzero;stroke:none"
           d="M 224,172 H 32 v 12 h 192 z" /><path
           id="path48"
           style="fill:#bfbfbf;fill-opacity:1;fill-rule:nonzero;stroke:none"
           d="M 224,112 H 32 v 12 h 192 z" /><g
           transform="translate(170,160)"
           id="g50"><path
             id="path52"
             style="fill:#a6a6a6;fill-opacity:1;fill-rule:nonzero;stroke:none"
             d="m 0,0 h -84 -30 V 24 H 30 V 0 Z M 0,-2 H 30 V -26 H 0 Z m -82,0 h 80 v -24 h -80 z m -32,0 h 30 v -24 h -30 z m -24,28 v -2 h 22 V 0 -28 -144 h 2 v 116 h 30 84 30 v -116 h 2 V -28 0 24 h 22 v 2 z" /></g><path
           id="path54"
           style="fill:#999999;fill-opacity:1;fill-rule:nonzero;stroke:none"
           d="M 224,108 H 32 v 4 h 192 z" /><path
           id="path56"
           style="fill:#a6a6a6;fill-opacity:1;fill-rule:nonzero;stroke:none"
           d="m 114,16 h -2 v 92 h 2 z" /><path
           id="path58"
           style="fill:#a6a6a6;fill-opacity:1;fill-rule:nonzero;stroke:none"
           d="m 144,16 h -2 v 92 h 2 z" /><path
           id="path60"
           style="fill:#737373;fill-opacity:1;fill-rule:nonzero;stroke:none"
           d="m 144,40 h -32 v 56 h 32 z" /><path
           id="path62"
           style="fill:#666666;fill-opacity:1;fill-rule:nonzero;stroke:none"
           d="M 144,96 H 112 V 40 h 32 z m -2,-54 h -28 v 52 h 28 z" /><g
           transform="translate(84,64)"
           id="g64"><path
             id="path66"
             style="fill:#bfbfbf;fill-opacity:1;fill-rule:nonzero;stroke:none"
             d="m 0,0 h -20 c -2.2,0 -4,1.8 -4,4 v 24 c 0,2.2 1.8,4 4,4 H 0 c 2.2,0 4,-1.8 4,-4 V 4 C 4,1.8 2.2,0 0,0" /></g><g
           transform="translate(192,64)"
           id="g68"><path
             id="path70"
             style="fill:#bfbfbf;fill-opacity:1;fill-rule:nonzero;stroke:none"
             d="m 0,0 h -20 c -2.2,0 -4,1.8 -4,4 v 24 c 0,2.2 1.8,4 4,4 H 0 c 2.2,0 4,-1.8 4,-4 V 4 C 4,1.8 2.2,0 0,0" /></g><g
           transform="translate(82,66)"
           id="g72"><path
             id="path74"
             style="fill:#737373;fill-opacity:1;fill-rule:nonzero;stroke:none"
             d="m 0,0 h -16 c -2.2,0 -4,1.8 -4,4 v 14 c 0,2.2 1.8,4 4,4 H 0 c 2.2,0 4,-1.8 4,-4 V 4 C 4,1.8 2.2,0 0,0" /></g><g
           transform="translate(190,66)"
           id="g76"><path
             id="path78"
             style="fill:#737373;fill-opacity:1;fill-rule:nonzero;stroke:none"
             d="m 0,0 h -16 c -2.2,0 -4,1.8 -4,4 v 20 c 0,2.2 1.8,4 4,4 H 0 c 2.2,0 4,-1.8 4,-4 V 4 C 4,1.8 2.2,0 0,0" /></g><g
           transform="translate(84,72)"
           id="g80"><path
             id="path82"
             style="fill:#808080;fill-opacity:1;fill-rule:nonzero;stroke:none"
             d="m 0,0 h -20 c -1.1,0 -2,0.9 -2,2 v 16 c 0,2.2 1.8,4 4,4 h 16 c 2.2,0 4,-1.8 4,-4 V 2 C 2,0.9 1.1,0 0,0" /></g><g
           transform="translate(86,84)"
           id="g84"><path
             id="path86"
             style="fill:#8c8c8c;fill-opacity:1;fill-rule:nonzero;stroke:none"
             d="m 0,0 v 2 c 0,1.1 -0.9,2 -2,2 h -20 c -1.1,0 -2,-0.9 -2,-2 V 0 Z" /></g><g
           transform="translate(62,84)"
           id="g88"><path
             id="path90"
             style="fill:#737373;fill-opacity:1;fill-rule:nonzero;stroke:none"
             d="m 0,0 v -2 c 0,-1.1 0.9,-2 2,-2 h 20 c 1.1,0 2,0.9 2,2 v 2 z" /></g><g
           transform="translate(109,12)"
           id="g92"><path
             id="path94"
             style="fill:#bfbfbf;fill-opacity:1;fill-rule:nonzero;stroke:none"
             d="m 0,0 h -50 c -1.657,0 -3,1.343 -3,3 v 90 c 0,1.657 1.343,3 3,3 H 0 c 1.657,0 3,-1.343 3,-3 V 3 C 3,1.343 1.657,0 0,0" /></g><g
           transform="translate(197,12)"
           id="g96"><path
             id="path98"
             style="fill:#bfbfbf;fill-opacity:1;fill-rule:nonzero;stroke:none"
             d="m 0,0 h -50 c -1.657,0 -3,1.343 -3,3 v 90 c 0,1.657 1.343,3 3,3 H 0 c 1.657,0 3,-1.343 3,-3 V 3 C 3,1.343 1.657,0 0,0" /></g><g
           transform="translate(114,72)"
           id="g100"><path
             id="path102"
             style="fill:#354f9f;fill-opacity:1;fill-rule:nonzero;stroke:none"
             d="m 0,0 h -60 c -1.104,0 -2,0.896 -2,2 v 20 c 0,1.104 0.896,2 2,2 H 0 c 1.104,0 2,-0.896 2,-2 V 2 C 2,0.896 1.104,0 0,0" /></g><g
           transform="translate(104,76)"
           id="g104"><path
             id="path106"
             style="fill:#263979;fill-opacity:1;fill-rule:nonzero;stroke:none"
             d="m 0,0 h -40 c -4.4,0 -8,3.6 -8,8 0,4.4 3.6,8 8,8 H 0 C 4.4,16 8,12.4 8,8 8,3.6 4.4,0 0,0" /></g><g
           transform="translate(202,72)"
           id="g108"><path
             id="path110"
             style="fill:#354f9f;fill-opacity:1;fill-rule:nonzero;stroke:none"
             d="m 0,0 h -60 c -1.104,0 -2,0.896 -2,2 v 20 c 0,1.104 0.896,2 2,2 H 0 c 1.104,0 2,-0.896 2,-2 V 2 C 2,0.896 1.104,0 0,0" /></g><g
           transform="translate(192,76)"
           id="g112"><path
             id="path114"
             style="fill:#263979;fill-opacity:1;fill-rule:nonzero;stroke:none"
             d="m 0,0 h -40 c -4.4,0 -8,3.6 -8,8 0,4.4 3.6,8 8,8 H 0 C 4.4,16 8,12.4 8,8 8,3.6 4.4,0 0,0" /></g><g
           transform="translate(114,96)"
           id="g116"><path
             id="path118"
             style="fill:#263979;fill-opacity:1;fill-rule:nonzero;stroke:none"
             d="m 0,0 v -22 h -62 c 0,-1.104 0.896,-2 2,-2 H 0 c 1.104,0 2,0.896 2,2 V -2 C 2,-0.896 1.104,0 0,0" /></g><g
           transform="translate(114,96)"
           id="g120"><path
             id="path122"
             style="fill:#4b5da7;fill-opacity:1;fill-rule:nonzero;stroke:none"
             d="m 0,0 h -60 c -1.104,0 -2,-0.896 -2,-2 v -20 c 0,-1.104 0.896,-2 2,-2 V -2 H 2 C 2,-0.896 1.104,0 0,0" /></g><g
           transform="translate(202,96)"
           id="g124"><path
             id="path126"
             style="fill:#263979;fill-opacity:1;fill-rule:nonzero;stroke:none"
             d="m 0,0 v -22 h -62 c 0,-1.104 0.896,-2 2,-2 H 0 c 1.104,0 2,0.896 2,2 V -2 C 2,-0.896 1.104,0 0,0" /></g><g
           transform="translate(202,96)"
           id="g128"><path
             id="path130"
             style="fill:#4b5da7;fill-opacity:1;fill-rule:nonzero;stroke:none"
             d="m 0,0 h -60 c -1.104,0 -2,-0.896 -2,-2 v -20 c 0,-1.104 0.896,-2 2,-2 V -2 H 2 C 2,-0.896 1.104,0 0,0" /></g></g></g></g></svg>