<svg xmlns="http://www.w3.org/2000/svg" xml:space="preserve" width="277.333" height="330.667" viewBox="0 0 277.333 330.667"><defs><clipPath id="a" clipPathUnits="userSpaceOnUse"><path d="M0 256h256V0H0Z"/></clipPath><clipPath id="b" clipPathUnits="userSpaceOnUse"><path d="M24 252h208V4H24Z"/></clipPath></defs><g clip-path="url(#a)" transform="matrix(1.33333 0 0 -1.33333 -32 336)"><g clip-path="url(#b)" style="opacity:.5"><path d="M0 0h-188c-5.514 0-10-4.486-10-10v-224c0-5.514 4.486-10 10-10h16.521c2.019-2.441 5.071-4 8.479-4h50c3.408 0 6.46 1.559 8.479 4h21.042c2.019-2.441 5.071-4 8.479-4h50c3.408 0 6.46 1.559 8.479 4H0c5.514 0 10 4.486 10 10v224C10-4.486 5.514 0 0 0" style="fill:#fff;fill-opacity:1;fill-rule:nonzero;stroke:none" transform="translate(222 252)"/></g><path d="M0 0h-188a2 2 0 0 1-2-2v-56a2 2 0 0 1 2-2H0a2 2 0 0 1 2 2v56a2 2 0 0 1-2 2" style="fill:#ccc;fill-opacity:1;fill-rule:nonzero;stroke:none" transform="translate(222 244)"/><path d="M0 0h-188a2 2 0 0 0-2 2v96a2 2 0 0 0 2 2H0a2 2 0 0 0 2-2V2a2 2 0 0 0-2-2" style="fill:#b3b3b3;fill-opacity:1;fill-rule:nonzero;stroke:none" transform="translate(222 16)"/><path d="M224 184H32v-72h192z" style="fill:#ccc;fill-opacity:1;fill-rule:nonzero;stroke:none"/><path d="M224 172H32v12h192z" style="fill:#d9d9d9;fill-opacity:1;fill-rule:nonzero;stroke:none"/><path d="M224 112H32v12h192z" style="fill:#bfbfbf;fill-opacity:1;fill-rule:nonzero;stroke:none"/><path d="M0 0h-114v24H30V0Zm0-2h30v-24H0Zm-82 0h80v-24h-80zm-32 0h30v-24h-30zm-24 28v-2h22v-168h2v116H30v-116h2V24h22v2z" style="fill:#a6a6a6;fill-opacity:1;fill-rule:nonzero;stroke:none" transform="translate(170 160)"/><path d="M224 108H32v4h192z" style="fill:#999;fill-opacity:1;fill-rule:nonzero;stroke:none"/><path d="M114 16h-2v92h2zm30 0h-2v92h2z" style="fill:#a6a6a6;fill-opacity:1;fill-rule:nonzero;stroke:none"/><path d="M144 40h-32v56h32z" style="fill:#737373;fill-opacity:1;fill-rule:nonzero;stroke:none"/><path d="M144 96h-32V40h32zm-2-54h-28v52h28z" style="fill:#666;fill-opacity:1;fill-rule:nonzero;stroke:none"/><path d="M0 0h-20c-2.2 0-4 1.8-4 4v24c0 2.2 1.8 4 4 4H0c2.2 0 4-1.8 4-4V4c0-2.2-1.8-4-4-4" style="fill:#bfbfbf;fill-opacity:1;fill-rule:nonzero;stroke:none" transform="translate(84 64)"/><path d="M0 0h-20c-2.2 0-4 1.8-4 4v24c0 2.2 1.8 4 4 4H0c2.2 0 4-1.8 4-4V4c0-2.2-1.8-4-4-4" style="fill:#bfbfbf;fill-opacity:1;fill-rule:nonzero;stroke:none" transform="translate(192 64)"/><path d="M0 0h-16c-2.2 0-4 1.8-4 4v14c0 2.2 1.8 4 4 4H0c2.2 0 4-1.8 4-4V4c0-2.2-1.8-4-4-4" style="fill:#737373;fill-opacity:1;fill-rule:nonzero;stroke:none" transform="translate(82 66)"/><path d="M0 0h-16c-2.2 0-4 1.8-4 4v20c0 2.2 1.8 4 4 4H0c2.2 0 4-1.8 4-4V4c0-2.2-1.8-4-4-4" style="fill:#737373;fill-opacity:1;fill-rule:nonzero;stroke:none" transform="translate(190 66)"/><path d="M0 0h-20c-1.1 0-2 .9-2 2v16c0 2.2 1.8 4 4 4h16c2.2 0 4-1.8 4-4V2c0-1.1-.9-2-2-2" style="fill:gray;fill-opacity:1;fill-rule:nonzero;stroke:none" transform="translate(84 72)"/><path d="M0 0v2c0 1.1-.9 2-2 2h-20c-1.1 0-2-.9-2-2V0Z" style="fill:#8c8c8c;fill-opacity:1;fill-rule:nonzero;stroke:none" transform="translate(86 84)"/><path d="M0 0v-2c0-1.1.9-2 2-2h20c1.1 0 2 .9 2 2v2z" style="fill:#737373;fill-opacity:1;fill-rule:nonzero;stroke:none" transform="translate(62 84)"/><path d="M0 0h-50a3 3 0 0 0-3 3v90a3 3 0 0 0 3 3H0a3 3 0 0 0 3-3V3a3 3 0 0 0-3-3" style="fill:#bfbfbf;fill-opacity:1;fill-rule:nonzero;stroke:none" transform="translate(109 12)"/><path d="M0 0h-50a3 3 0 0 0-3 3v90a3 3 0 0 0 3 3H0a3 3 0 0 0 3-3V3a3 3 0 0 0-3-3" style="fill:#bfbfbf;fill-opacity:1;fill-rule:nonzero;stroke:none" transform="translate(197 12)"/><path d="M0 0h-60a2 2 0 0 0-2 2v20a2 2 0 0 0 2 2H0a2 2 0 0 0 2-2V2a2 2 0 0 0-2-2" style="fill:#354f9f;fill-opacity:1;fill-rule:nonzero;stroke:none" transform="translate(114 72)"/><path d="M0 0h-40c-4.4 0-8 3.6-8 8s3.6 8 8 8H0c4.4 0 8-3.6 8-8S4.4 0 0 0" style="fill:#263979;fill-opacity:1;fill-rule:nonzero;stroke:none" transform="translate(104 76)"/><path d="M0 0h-60a2 2 0 0 0-2 2v20a2 2 0 0 0 2 2H0a2 2 0 0 0 2-2V2a2 2 0 0 0-2-2" style="fill:#354f9f;fill-opacity:1;fill-rule:nonzero;stroke:none" transform="translate(202 72)"/><path d="M0 0h-40c-4.4 0-8 3.6-8 8s3.6 8 8 8H0c4.4 0 8-3.6 8-8S4.4 0 0 0" style="fill:#263979;fill-opacity:1;fill-rule:nonzero;stroke:none" transform="translate(192 76)"/><path d="M0 0v-22h-62a2 2 0 0 1 2-2H0a2 2 0 0 1 2 2v20a2 2 0 0 1-2 2" style="fill:#263979;fill-opacity:1;fill-rule:nonzero;stroke:none" transform="translate(114 96)"/><path d="M0 0h-60a2 2 0 0 1-2-2v-20a2 2 0 0 1 2-2v22H2a2 2 0 0 1-2 2" style="fill:#4b5da7;fill-opacity:1;fill-rule:nonzero;stroke:none" transform="translate(114 96)"/><path d="M0 0v-22h-62a2 2 0 0 1 2-2H0a2 2 0 0 1 2 2v20a2 2 0 0 1-2 2" style="fill:#263979;fill-opacity:1;fill-rule:nonzero;stroke:none" transform="translate(202 96)"/><path d="M0 0h-60a2 2 0 0 1-2-2v-20a2 2 0 0 1 2-2v22H2a2 2 0 0 1-2 2" style="fill:#4b5da7;fill-opacity:1;fill-rule:nonzero;stroke:none" transform="translate(202 96)"/></g></svg>