<?xml version="1.0" encoding="UTF-8" standalone="no"?>
<svg
   xmlns:dc="http://purl.org/dc/elements/1.1/"
   xmlns:cc="http://creativecommons.org/ns#"
   xmlns:rdf="http://www.w3.org/1999/02/22-rdf-syntax-ns#"
   xmlns:svg="http://www.w3.org/2000/svg"
   xmlns="http://www.w3.org/2000/svg"
   viewBox="0 0 330.66653 234.66639"
   height="234.6664"
   width="330.66653"
   xml:space="preserve"
   id="svg2"
   version="1.1"><metadata
     id="metadata8"><rdf:RDF><cc:Work
         rdf:about=""><dc:format>image/svg+xml</dc:format><dc:type
           rdf:resource="http://purl.org/dc/dcmitype/StillImage" /></cc:Work></rdf:RDF></metadata><defs
     id="defs6"><clipPath
       id="clipPath18"
       clipPathUnits="userSpaceOnUse"><path
         id="path16"
         d="M 0,256 H 256 V 0 H 0 Z" /></clipPath><clipPath
       id="clipPath26"
       clipPathUnits="userSpaceOnUse"><path
         id="path24"
         d="M 4,216 H 252 V 40 H 4 Z" /></clipPath></defs><g
     transform="matrix(1.3333333,0,0,-1.3333333,-5.3334665,287.99999)"
     id="g10"><g
       id="g12"><g
         clip-path="url(#clipPath18)"
         id="g14"><g
           id="g20"><g
             id="g22" /><g
             id="g34"><g
               style="opacity:0.5"
               id="g32"
               clip-path="url(#clipPath26)"><g
                 id="g30"
                 transform="translate(251.9951,196.3672)"><path
                   id="path28"
                   style="fill:#ffffff;fill-opacity:1;fill-rule:nonzero;stroke:none"
                   d="m 0,0 c -0.009,0.547 -0.042,1.117 -0.099,1.669 -0.022,0.225 -0.053,0.444 -0.089,0.664 -0.045,0.345 -0.107,0.803 -0.213,1.324 -0.059,0.286 -0.13,0.566 -0.206,0.844 l -0.015,0.051 -0.016,0.066 c -0.077,0.324 -0.16,0.646 -0.258,0.962 -0.09,0.29 -0.193,0.572 -0.301,0.852 l -0.024,0.063 -0.02,0.059 c -0.103,0.294 -0.21,0.586 -0.331,0.87 -0.119,0.283 -0.251,0.557 -0.388,0.83 l -0.034,0.068 -0.024,0.051 c -0.126,0.272 -0.256,0.542 -0.399,0.804 -0.14,0.257 -0.291,0.509 -0.448,0.757 L -2.9,9.991 -2.935,10.048 c -0.154,0.265 -0.314,0.526 -0.485,0.779 -0.163,0.24 -0.337,0.474 -0.515,0.705 l -0.04,0.051 -0.038,0.053 c -0.179,0.248 -0.363,0.493 -0.558,0.729 -0.188,0.227 -0.385,0.445 -0.586,0.66 l -0.05,0.053 -0.04,0.046 c -0.199,0.225 -0.401,0.446 -0.614,0.659 -0.204,0.204 -0.421,0.402 -0.642,0.596 l -0.052,0.046 -0.047,0.044 c -0.219,0.206 -0.443,0.408 -0.676,0.6 -0.224,0.185 -0.458,0.361 -0.695,0.532 l -0.055,0.04 -0.053,0.041 c -0.24,0.185 -0.483,0.366 -0.735,0.536 -0.244,0.165 -0.496,0.318 -0.749,0.467 l -0.059,0.035 -0.057,0.035 c -0.257,0.162 -0.518,0.319 -0.787,0.465 -0.261,0.141 -0.528,0.271 -0.799,0.396 l -0.064,0.03 -0.06,0.03 c -0.272,0.136 -0.547,0.268 -0.83,0.387 -0.276,0.117 -0.561,0.222 -0.849,0.322 l -0.07,0.024 -0.058,0.023 c -0.285,0.109 -0.573,0.213 -0.866,0.304 -0.293,0.091 -0.592,0.169 -0.892,0.241 l -0.077,0.018 -0.06,0.017 c -0.295,0.08 -0.592,0.155 -0.893,0.217 -0.308,0.063 -0.619,0.111 -0.932,0.153 l -0.082,0.012 -0.061,0.01 c -0.302,0.051 -0.605,0.096 -0.914,0.127 -0.312,0.031 -0.631,0.049 -0.95,0.059 l -0.085,0.003 -0.052,0.004 c -0.31,0.021 -0.619,0.036 -0.933,0.036 h -208 c -11.028,0 -20,-8.972 -20,-20 v -128 c 0,-11.029 8.972,-20 20,-20 h 13.552 l 0.876,-1.63 c 2.112,-3.929 6.202,-6.37 10.673,-6.37 1.858,0 3.722,0.437 5.389,1.263 l 0.15,0.076 0.146,0.08 11.983,6.581 h 9.231 20 28 3.313 l 2.344,2.343 1.656,1.657 h 100.687 c 11.028,0 20,8.971 20,20 v 75.957 48.043 0.304 z" /></g></g></g></g><g
           transform="translate(232,60)"
           id="g36"><path
             id="path38"
             style="fill:#e6e6e6;fill-opacity:1;fill-rule:nonzero;stroke:none"
             d="m 0,0 h -104 l -4,-4 h -100 c -6.627,0 -12,5.373 -12,12 v 128 c 0,6.627 5.373,12 12,12 H 0 c 6.627,0 12,-5.373 12,-12 V 12 C 12,5.373 6.627,0 0,0" /></g><g
           transform="translate(18.2715,109.6465)"
           id="g40"><path
             id="path42"
             style="fill:#f2f2f2;fill-opacity:1;fill-rule:nonzero;stroke:none"
             d="m 0,0 21.729,10.354 32,-60 -21.065,-11.57 c -1.992,-0.987 -4.414,-0.222 -5.461,1.728 L -1.788,-5.562 C -2.875,-3.539 -2.067,-1.024 0,0" /></g><g
           transform="translate(28.3564,82)"
           id="g44"><path
             id="path46"
             style="fill:#cccccc;fill-opacity:1;fill-rule:nonzero;stroke:none"
             d="M 0,0 1.075,-2 H 32.977 L 31.91,0 Z" /></g><g
           transform="translate(66.6665,70)"
           id="g48"><path
             id="path50"
             style="fill:#cccccc;fill-opacity:1;fill-rule:nonzero;stroke:none"
             d="m 0,0 -1.066,2 h -31.868 l 1.075,-2 z" /></g><g
           transform="translate(17.605,102)"
           id="g52"><path
             id="path54"
             style="fill:#cccccc;fill-opacity:1;fill-rule:nonzero;stroke:none"
             d="M 0,0 1.075,-2 H 33.062 L 31.995,0 Z" /></g><g
           transform="translate(22.981,92)"
           id="g56"><path
             id="path58"
             style="fill:#cccccc;fill-opacity:1;fill-rule:nonzero;stroke:none"
             d="M 0,0 1.075,-2 H 33.019 L 31.953,0 Z" /></g><g
           transform="translate(23.21,112)"
           id="g60"><path
             id="path62"
             style="fill:#cccccc;fill-opacity:1;fill-rule:nonzero;stroke:none"
             d="M 0,0 -4.197,-2 H 22.124 L 21.057,0 Z" /></g><g
           transform="translate(231.9785,208)"
           id="g64"><path
             id="path66"
             style="fill:#d9d9d9;fill-opacity:1;fill-rule:nonzero;stroke:none"
             d="m 0,0 -23.979,-0.043 -168,-88 32,-60 172,88 V -12 C 12.021,-5.364 6.636,0.012 0,0" /></g><g
           transform="translate(150.25,171.7817)"
           id="g68"><path
             id="path70"
             style="fill:#cccccc;fill-opacity:1;fill-rule:nonzero;stroke:none"
             d="m 0,0 0.94,-1.765 36.494,19.076 -0.942,1.765 z" /></g><g
           transform="translate(196.4258,172.7021)"
           id="g72"><path
             id="path74"
             style="fill:#cccccc;fill-opacity:1;fill-rule:nonzero;stroke:none"
             d="m 0,0 -0.941,1.764 -36.493,-19.076 0.941,-1.764 z" /></g><g
           transform="translate(192.0547,180.8975)"
           id="g76"><path
             id="path78"
             style="fill:#cccccc;fill-opacity:1;fill-rule:nonzero;stroke:none"
             d="m 0,0 -0.941,1.765 -36.493,-19.077 0.941,-1.764 z" /></g><g
           transform="translate(205.167,156.311)"
           id="g80"><path
             id="path82"
             style="fill:#cccccc;fill-opacity:1;fill-rule:nonzero;stroke:none"
             d="m 0,0 -0.94,1.765 -36.494,-19.077 0.942,-1.764 z" /></g><g
           transform="translate(213.9092,139.9199)"
           id="g84"><path
             id="path86"
             style="fill:#cccccc;fill-opacity:1;fill-rule:nonzero;stroke:none"
             d="m 0,0 -0.94,1.765 -36.494,-19.077 0.941,-1.763 z" /></g><g
           transform="translate(209.5381,148.1157)"
           id="g88"><path
             id="path90"
             style="fill:#cccccc;fill-opacity:1;fill-rule:nonzero;stroke:none"
             d="m 0,0 -0.94,1.764 -36.494,-19.076 0.941,-1.764 z" /></g><g
           transform="translate(200.7969,164.5068)"
           id="g92"><path
             id="path94"
             style="fill:#cccccc;fill-opacity:1;fill-rule:nonzero;stroke:none"
             d="m 0,0 -0.941,1.764 -36.494,-19.076 0.942,-1.764 z" /></g><g
           transform="translate(71.3818,192)"
           id="g96"><path
             id="path98"
             style="fill:#d9d9d9;fill-opacity:1;fill-rule:nonzero;stroke:none"
             d="m 0,0 h -42.382 c -0.552,0 -1,0.448 -1,1 v 6 c 0,0.552 0.448,1 1,1 H 3 C 3.744,8 4.227,7.218 3.895,6.553 l -3,-6 C 0.725,0.214 0.379,0 0,0" /></g><g
           transform="translate(85.1055,200)"
           id="g100"><path
             id="path102"
             style="fill:#f2f2f2;fill-opacity:1;fill-rule:nonzero;stroke:none"
             d="M 0,0 V 0 C 1.33,0 2.195,-1.399 1.6,-2.589 L -0.611,-7.011 C -0.914,-7.617 -1.534,-8 -2.211,-8 c -1.33,0 -2.195,1.399 -1.6,2.589 L -1.6,-0.989 C -1.297,-0.383 -0.677,0 0,0" /></g><g
           transform="translate(93.1055,200)"
           id="g104"><path
             id="path106"
             style="fill:#f2f2f2;fill-opacity:1;fill-rule:nonzero;stroke:none"
             d="M 0,0 V 0 C 1.33,0 2.195,-1.399 1.6,-2.589 L -0.611,-7.011 C -0.914,-7.617 -1.534,-8 -2.211,-8 c -1.33,0 -2.195,1.399 -1.6,2.589 L -1.6,-0.989 C -1.297,-0.383 -0.677,0 0,0" /></g><g
           transform="translate(101.1055,200)"
           id="g108"><path
             id="path110"
             style="fill:#f2f2f2;fill-opacity:1;fill-rule:nonzero;stroke:none"
             d="M 0,0 V 0 C 1.33,0 2.195,-1.399 1.6,-2.589 L -0.611,-7.011 C -0.914,-7.617 -1.534,-8 -2.211,-8 c -1.33,0 -2.195,1.399 -1.6,2.589 L -1.6,-0.989 C -1.297,-0.383 -0.677,0 0,0" /></g><g
           transform="translate(109.1055,200)"
           id="g112"><path
             id="path114"
             style="fill:#f2f2f2;fill-opacity:1;fill-rule:nonzero;stroke:none"
             d="M 0,0 V 0 C 1.33,0 2.195,-1.399 1.6,-2.589 L -0.611,-7.011 C -0.914,-7.617 -1.534,-8 -2.211,-8 c -1.33,0 -2.195,1.399 -1.6,2.589 L -1.6,-0.989 C -1.297,-0.383 -0.677,0 0,0" /></g><g
           transform="translate(117.1055,200)"
           id="g116"><path
             id="path118"
             style="fill:#f2f2f2;fill-opacity:1;fill-rule:nonzero;stroke:none"
             d="M 0,0 V 0 C 1.33,0 2.195,-1.399 1.6,-2.589 L -0.611,-7.011 C -0.914,-7.617 -1.534,-8 -2.211,-8 c -1.33,0 -2.195,1.399 -1.6,2.589 L -1.6,-0.989 C -1.297,-0.383 -0.677,0 0,0" /></g><g
           transform="translate(125.1055,200)"
           id="g120"><path
             id="path122"
             style="fill:#f2f2f2;fill-opacity:1;fill-rule:nonzero;stroke:none"
             d="M 0,0 V 0 C 1.33,0 2.195,-1.399 1.6,-2.589 L -0.611,-7.011 C -0.914,-7.617 -1.534,-8 -2.211,-8 c -1.33,0 -2.195,1.399 -1.6,2.589 L -1.6,-0.989 C -1.297,-0.383 -0.677,0 0,0" /></g><g
           transform="translate(133.1055,200)"
           id="g124"><path
             id="path126"
             style="fill:#f2f2f2;fill-opacity:1;fill-rule:nonzero;stroke:none"
             d="M 0,0 V 0 C 1.33,0 2.194,-1.399 1.601,-2.589 L -0.611,-7.011 C -0.914,-7.617 -1.533,-8 -2.211,-8 c -1.33,0 -2.195,1.399 -1.601,2.589 L -1.6,-0.989 C -1.297,-0.383 -0.678,0 0,0" /></g><g
           transform="translate(141.1055,200)"
           id="g128"><path
             id="path130"
             style="fill:#f2f2f2;fill-opacity:1;fill-rule:nonzero;stroke:none"
             d="M 0,0 V 0 C 1.33,0 2.194,-1.399 1.601,-2.589 L -0.611,-7.011 C -0.914,-7.617 -1.533,-8 -2.211,-8 c -1.33,0 -2.194,1.399 -1.601,2.589 L -1.6,-0.989 C -1.297,-0.383 -0.678,0 0,0" /></g><g
           transform="translate(149.1055,200)"
           id="g132"><path
             id="path134"
             style="fill:#f2f2f2;fill-opacity:1;fill-rule:nonzero;stroke:none"
             d="M 0,0 V 0 C 1.33,0 2.194,-1.399 1.601,-2.589 L -0.611,-7.011 C -0.914,-7.617 -1.533,-8 -2.211,-8 c -1.33,0 -2.194,1.399 -1.601,2.589 L -1.6,-0.989 C -1.297,-0.383 -0.678,0 0,0" /></g><g
           transform="translate(228,100)"
           id="g136"><path
             id="path138"
             style="fill:#9bc2dd;fill-opacity:1;fill-rule:nonzero;stroke:none"
             d="m 0,0 c 0,-6.627 -5.373,-12 -12,-12 -6.627,0 -12,5.373 -12,12 0,6.627 5.373,12 12,12 C -5.373,12 0,6.627 0,0" /></g><path
           id="path140"
           style="fill:#333333;fill-opacity:1;fill-rule:nonzero;stroke:none"
           d="M 96,56 H 76 v 2 h 20 z" /></g></g></g></svg>