<svg xmlns="http://www.w3.org/2000/svg" xml:space="preserve" width="330.667" height="234.666" viewBox="0 0 330.667 234.666"><defs><clipPath id="a" clipPathUnits="userSpaceOnUse"><path d="M0 256h256V0H0Z"/></clipPath><clipPath id="b" clipPathUnits="userSpaceOnUse"><path d="M4 216h248V40H4Z"/></clipPath></defs><g clip-path="url(#a)" transform="matrix(1.33333 0 0 -1.33333 -5.333 288)"><g clip-path="url(#b)" style="opacity:.5"><path d="M0 0a20 20 0 0 1-.099 1.669q-.034.336-.089.664c-.045.345-.107.803-.213 1.324q-.09.428-.206.844l-.015.051-.016.066c-.077.324-.16.646-.258.962q-.137.433-.301.852l-.024.063-.02.059c-.103.294-.21.586-.331.87-.119.283-.251.557-.388.83l-.034.068-.024.051c-.126.272-.256.542-.399.804q-.211.385-.448.757l-.035.057-.035.057q-.23.399-.485.779-.246.36-.515.705l-.04.051-.038.053q-.267.373-.558.729-.283.339-.586.66l-.05.053-.04.046c-.199.225-.401.446-.614.659a14 14 0 0 1-.642.596l-.052.046-.047.044q-.328.31-.676.6a13 13 0 0 1-.695.532l-.055.04-.053.041q-.359.28-.735.536-.368.245-.749.467l-.059.035-.057.035q-.384.244-.787.465a14 14 0 0 1-.799.396l-.064.03-.06.03c-.272.136-.547.268-.83.387q-.415.174-.849.322l-.07.024-.058.023c-.285.109-.573.213-.866.304q-.44.135-.892.241l-.077.018-.06.017c-.295.08-.592.155-.893.217-.308.063-.619.111-.932.153l-.082.012-.061.01c-.302.051-.605.096-.914.127a14 14 0 0 1-.95.059l-.085.003-.052.004c-.31.021-.619.036-.933.036h-208c-11.028 0-20-8.972-20-20v-128c0-11.029 8.972-20 20-20h13.552l.876-1.63a12.1 12.1 0 0 1 10.673-6.37c1.858 0 3.722.437 5.389 1.263l.15.076.146.08 11.983 6.581h60.544l2.344 2.343 1.656 1.657h100.687c11.028 0 20 8.971 20 20V-.063z" style="fill:#fff;fill-opacity:1;fill-rule:nonzero;stroke:none" transform="translate(251.995 196.367)"/></g><path d="M0 0h-104l-4-4h-100c-6.627 0-12 5.373-12 12v128c0 6.627 5.373 12 12 12H0c6.627 0 12-5.373 12-12V12C12 5.373 6.627 0 0 0" style="fill:#e6e6e6;fill-opacity:1;fill-rule:nonzero;stroke:none" transform="translate(232 60)"/><path d="m0 0 21.729 10.354 32-60-21.065-11.57c-1.992-.987-4.414-.222-5.461 1.728L-1.788-5.562A4.06 4.06 0 0 0 0 0" style="fill:#f2f2f2;fill-opacity:1;fill-rule:nonzero;stroke:none" transform="translate(18.271 109.647)"/><path d="m0 0 1.075-2h31.902L31.91 0Z" style="fill:#ccc;fill-opacity:1;fill-rule:nonzero;stroke:none" transform="translate(28.356 82)"/><path d="m0 0-1.066 2h-31.868l1.075-2z" style="fill:#ccc;fill-opacity:1;fill-rule:nonzero;stroke:none" transform="translate(66.666 70)"/><path d="m0 0 1.075-2h31.987l-1.067 2Z" style="fill:#ccc;fill-opacity:1;fill-rule:nonzero;stroke:none" transform="translate(17.605 102)"/><path d="m0 0 1.075-2h31.944l-1.066 2Z" style="fill:#ccc;fill-opacity:1;fill-rule:nonzero;stroke:none" transform="translate(22.981 92)"/><path d="m0 0-4.197-2h26.321l-1.067 2Z" style="fill:#ccc;fill-opacity:1;fill-rule:nonzero;stroke:none" transform="translate(23.21 112)"/><path d="m0 0-23.979-.043-168-88 32-60 172 88V-12C12.021-5.364 6.636.012 0 0" style="fill:#d9d9d9;fill-opacity:1;fill-rule:nonzero;stroke:none" transform="translate(231.978 208)"/><path d="m0 0 .94-1.765 36.494 19.076-.942 1.765z" style="fill:#ccc;fill-opacity:1;fill-rule:nonzero;stroke:none" transform="translate(150.25 171.782)"/><path d="m0 0-.941 1.764-36.493-19.076.941-1.764z" style="fill:#ccc;fill-opacity:1;fill-rule:nonzero;stroke:none" transform="translate(196.426 172.702)"/><path d="m0 0-.941 1.765-36.493-19.077.941-1.764z" style="fill:#ccc;fill-opacity:1;fill-rule:nonzero;stroke:none" transform="translate(192.055 180.898)"/><path d="m0 0-.94 1.765-36.494-19.077.942-1.764z" style="fill:#ccc;fill-opacity:1;fill-rule:nonzero;stroke:none" transform="translate(205.167 156.311)"/><path d="m0 0-.94 1.765-36.494-19.077.941-1.763z" style="fill:#ccc;fill-opacity:1;fill-rule:nonzero;stroke:none" transform="translate(213.91 139.92)"/><path d="m0 0-.94 1.764-36.494-19.076.941-1.764z" style="fill:#ccc;fill-opacity:1;fill-rule:nonzero;stroke:none" transform="translate(209.538 148.116)"/><path d="m0 0-.941 1.764-36.494-19.076.942-1.764z" style="fill:#ccc;fill-opacity:1;fill-rule:nonzero;stroke:none" transform="translate(200.797 164.507)"/><path d="M0 0h-42.382a1 1 0 0 0-1 1v6a1 1 0 0 0 1 1H3a1 1 0 0 0 .895-1.447l-3-6A1 1 0 0 0 0 0" style="fill:#d9d9d9;fill-opacity:1;fill-rule:nonzero;stroke:none" transform="translate(71.382 192)"/><path d="M0 0a1.79 1.79 0 0 0 1.6-2.589L-.611-7.011a1.79 1.79 0 0 0-3.2 1.6L-1.6-.989A1.79 1.79 0 0 0 0 0" style="fill:#f2f2f2;fill-opacity:1;fill-rule:nonzero;stroke:none" transform="translate(85.106 200)"/><path d="M0 0a1.79 1.79 0 0 0 1.6-2.589L-.611-7.011a1.79 1.79 0 0 0-3.2 1.6L-1.6-.989A1.79 1.79 0 0 0 0 0" style="fill:#f2f2f2;fill-opacity:1;fill-rule:nonzero;stroke:none" transform="translate(93.106 200)"/><path d="M0 0a1.79 1.79 0 0 0 1.6-2.589L-.611-7.011a1.79 1.79 0 0 0-3.2 1.6L-1.6-.989A1.79 1.79 0 0 0 0 0" style="fill:#f2f2f2;fill-opacity:1;fill-rule:nonzero;stroke:none" transform="translate(101.106 200)"/><path d="M0 0a1.79 1.79 0 0 0 1.6-2.589L-.611-7.011a1.79 1.79 0 0 0-3.2 1.6L-1.6-.989A1.79 1.79 0 0 0 0 0" style="fill:#f2f2f2;fill-opacity:1;fill-rule:nonzero;stroke:none" transform="translate(109.106 200)"/><path d="M0 0a1.79 1.79 0 0 0 1.6-2.589L-.611-7.011a1.79 1.79 0 0 0-3.2 1.6L-1.6-.989A1.79 1.79 0 0 0 0 0" style="fill:#f2f2f2;fill-opacity:1;fill-rule:nonzero;stroke:none" transform="translate(117.106 200)"/><path d="M0 0a1.79 1.79 0 0 0 1.6-2.589L-.611-7.011a1.79 1.79 0 0 0-3.2 1.6L-1.6-.989A1.79 1.79 0 0 0 0 0" style="fill:#f2f2f2;fill-opacity:1;fill-rule:nonzero;stroke:none" transform="translate(125.106 200)"/><path d="M0 0a1.79 1.79 0 0 0 1.601-2.589L-.611-7.011a1.79 1.79 0 0 0-3.201 1.6L-1.6-.989C-1.297-.383-.678 0 0 0" style="fill:#f2f2f2;fill-opacity:1;fill-rule:nonzero;stroke:none" transform="translate(133.106 200)"/><path d="M0 0a1.79 1.79 0 0 0 1.601-2.589L-.611-7.011a1.79 1.79 0 0 0-3.201 1.6L-1.6-.989C-1.297-.383-.678 0 0 0" style="fill:#f2f2f2;fill-opacity:1;fill-rule:nonzero;stroke:none" transform="translate(141.106 200)"/><path d="M0 0a1.79 1.79 0 0 0 1.601-2.589L-.611-7.011a1.79 1.79 0 0 0-3.201 1.6L-1.6-.989C-1.297-.383-.678 0 0 0" style="fill:#f2f2f2;fill-opacity:1;fill-rule:nonzero;stroke:none" transform="translate(149.106 200)"/><path d="M0 0c0-6.627-5.373-12-12-12S-24-6.627-24 0s5.373 12 12 12S0 6.627 0 0" style="fill:#9bc2dd;fill-opacity:1;fill-rule:nonzero;stroke:none" transform="translate(228 100)"/><path d="M96 56H76v2h20z" style="fill:#333;fill-opacity:1;fill-rule:nonzero;stroke:none"/></g></svg>