<svg xmlns="http://www.w3.org/2000/svg" xml:space="preserve" viewBox="0 0 256 256"><path d="M242 60H14C8.486 60 4 64.486 4 70v116c0 5.514 4.486 10 10 10h228c5.514 0 10-4.486 10-10V70c0-5.514-4.486-10-10-10" style="opacity:.5;fill:#fff"/><path d="M242 188H14a2 2 0 0 1-2-2V70a2 2 0 0 1 2-2h228a2 2 0 0 1 2 2v116a2 2 0 0 1-2 2" style="fill:#c4c0aa"/><path d="M24 116h208v64H24zm216-12H16l-.198-34.221A2 2 0 0 1 17.79 68h220.42a2 2 0 0 1 1.988 1.779z" style="fill:#d9d4bc"/><path d="M24 92h32v8H24z" style="fill:#262626"/><path d="M56 92h20v8H56z" style="fill:#a6a390"/><path d="M156 68h56v36h-56z" style="fill:#c4c0aa"/><path d="M160 88h48v12h-48z" style="fill:#a6a390"/><path d="M160 82h48v2h-48zm0-4h48v2h-48zm0-4h48v2h-48zm0-4h48v2h-48zm4 18h40v12h-40z" style="fill:#d9d4bc"/><path d="M16 104h224v8H16z" style="fill:#a6a390"/><path d="M32 124h12v4H32zm16 0h12v4H48zm16 0h12v4H64zm16 0h12v4H80zm16 0h12v4H96zm36 0h12v4h-12zm24 0h8v4h-8zm12 0h8v4h-8zm12 0h8v4h-8z" style="fill:#404040"/><path d="M200 120h24v4h-24z" style="fill:#c4c0aa"/><path d="M204 121h4v2h-4z" style="fill:#b80000"/><path d="M32 132h8v4h-8zm-4 20h8v4h-8zm12 0h8v4h-8zm0 8h12v4H40zm16 0h8v4h-8zm12 0h8v4h-8zm-12 8h8v4h-8zm12 0h8v4h-8zm12 0h60v4H80zm0-8h8v4h-8zm12 0h8v4h-8zm12 0h8v4h-8zm12 0h8v4h-8zm12 0h8v4h-8zm12 0h8v4h-8zm12 0h8v4h-8zm12 0h12v4h-12zm-112-8h8v4h-8zm12 0h8v4h-8zm12 0h8v4h-8zm12 0h8v4h-8zm12 0h8v4h-8zm12 0h8v4h-8zm12 0h8v4h-8zm12 0h8v4h-8zm12 0h8v4h-8zm12 0h8v4h-8zm12 0h16v4h-16zm-140-8h12v4H32zm12-12h8v4h-8zm4 12h8v4h-8zm12 0h8v4h-8zm12 0h8v4h-8zm12 0h8v4h-8zm12 0h8v4h-8zm12 0h8v4h-8zm12 0h8v4h-8zm12 0h8v4h-8zm12 0h8v4h-8zm12 0h8v4h-8zm12 0h8v4h-8zm12 0h8v4h-8zM56 132h8v4h-8zm12 0h8v4h-8zm12 0h8v4h-8zm12 0h8v4h-8zm12 0h8v4h-8zm12 0h8v4h-8zm12 0h8v4h-8zm12 0h8v4h-8zm12 0h8v4h-8zm12 0h8v4h-8zm28 0h8v4h-8zm-16 0h12v4h-12z" style="fill:#404040"/><path d="M32 160h4v2h-4z" style="fill:#b80000"/><circle cx="212" cy="152" r="16" style="fill:#404040"/><circle cx="212" cy="140" r="4" style="fill:#333"/><circle cx="200" cy="152" r="4" style="fill:#333"/><circle cx="224" cy="152" r="4" style="fill:#333"/><circle cx="212" cy="152" r="8" style="fill:#b80000"/><circle cx="212" cy="164" r="4" style="fill:#333"/></svg>