<?xml version="1.0" encoding="iso-8859-1"?>
<!-- Generator: Adobe Illustrator 27.8.1, SVG Export Plug-In . SVG Version: 6.00 Build 0)  -->
<svg version="1.1" id="Layer_1" xmlns="http://www.w3.org/2000/svg" xmlns:xlink="http://www.w3.org/1999/xlink" x="0px" y="0px"
	 viewBox="0 0 256 256" style="enable-background:new 0 0 256 256;" xml:space="preserve">
<path style="opacity:0.5;fill:#FFFFFF;" d="M242,60H14C8.486,60,4,64.486,4,70v116c0,5.514,4.486,10,10,10h228
	c5.514,0,10-4.486,10-10V70C252,64.486,247.514,60,242,60L242,60z"/>
<path style="fill:#C4C0AA;" d="M242,188H14c-1.105,0-2-0.895-2-2V70c0-1.105,0.895-2,2-2h228c1.105,0,2,0.895,2,2v116
	C244,187.105,243.105,188,242,188z"/>
<rect x="24" y="116" style="fill:#D9D4BC;" width="208" height="64"/>
<path style="fill:#D9D4BC;" d="M240,104H16l-0.198-34.221C15.915,68.766,16.771,68,17.79,68h220.42c1.019,0,1.875,0.766,1.988,1.779
	L240,104z"/>
<rect x="24" y="92" style="fill:#262626;" width="32" height="8"/>
<rect x="56" y="92" style="fill:#A6A390;" width="20" height="8"/>
<rect x="156" y="68" style="fill:#C4C0AA;" width="56" height="36"/>
<rect x="160" y="88" style="fill:#A6A390;" width="48" height="12"/>
<rect x="160" y="82" style="fill:#D9D4BC;" width="48" height="2"/>
<rect x="160" y="78" style="fill:#D9D4BC;" width="48" height="2"/>
<rect x="160" y="74" style="fill:#D9D4BC;" width="48" height="2"/>
<rect x="160" y="70" style="fill:#D9D4BC;" width="48" height="2"/>
<rect x="164" y="88" style="fill:#D9D4BC;" width="40" height="12"/>
<rect x="16" y="104" style="fill:#A6A390;" width="224" height="8"/>
<rect x="32" y="124" style="fill:#404040;" width="12" height="4"/>
<rect x="48" y="124" style="fill:#404040;" width="12" height="4"/>
<rect x="64" y="124" style="fill:#404040;" width="12" height="4"/>
<rect x="80" y="124" style="fill:#404040;" width="12" height="4"/>
<rect x="96" y="124" style="fill:#404040;" width="12" height="4"/>
<rect x="132" y="124" style="fill:#404040;" width="12" height="4"/>
<rect x="156" y="124" style="fill:#404040;" width="8" height="4"/>
<rect x="168" y="124" style="fill:#404040;" width="8" height="4"/>
<rect x="180" y="124" style="fill:#404040;" width="8" height="4"/>
<rect x="200" y="120" style="fill:#C4C0AA;" width="24" height="4"/>
<rect x="204" y="121" style="fill:#B80000;" width="4" height="2"/>
<rect x="32" y="132" style="fill:#404040;" width="8" height="4"/>
<rect x="28" y="152" style="fill:#404040;" width="8" height="4"/>
<rect x="40" y="152" style="fill:#404040;" width="8" height="4"/>
<rect x="40" y="160" style="fill:#404040;" width="12" height="4"/>
<rect x="56" y="160" style="fill:#404040;" width="8" height="4"/>
<rect x="68" y="160" style="fill:#404040;" width="8" height="4"/>
<rect x="56" y="168" style="fill:#404040;" width="8" height="4"/>
<rect x="68" y="168" style="fill:#404040;" width="8" height="4"/>
<rect x="80" y="168" style="fill:#404040;" width="60" height="4"/>
<rect x="80" y="160" style="fill:#404040;" width="8" height="4"/>
<rect x="92" y="160" style="fill:#404040;" width="8" height="4"/>
<rect x="104" y="160" style="fill:#404040;" width="8" height="4"/>
<rect x="116" y="160" style="fill:#404040;" width="8" height="4"/>
<rect x="128" y="160" style="fill:#404040;" width="8" height="4"/>
<rect x="140" y="160" style="fill:#404040;" width="8" height="4"/>
<rect x="152" y="160" style="fill:#404040;" width="8" height="4"/>
<rect x="164" y="160" style="fill:#404040;" width="12" height="4"/>
<rect x="52" y="152" style="fill:#404040;" width="8" height="4"/>
<rect x="64" y="152" style="fill:#404040;" width="8" height="4"/>
<rect x="76" y="152" style="fill:#404040;" width="8" height="4"/>
<rect x="88" y="152" style="fill:#404040;" width="8" height="4"/>
<rect x="100" y="152" style="fill:#404040;" width="8" height="4"/>
<rect x="112" y="152" style="fill:#404040;" width="8" height="4"/>
<rect x="124" y="152" style="fill:#404040;" width="8" height="4"/>
<rect x="136" y="152" style="fill:#404040;" width="8" height="4"/>
<rect x="148" y="152" style="fill:#404040;" width="8" height="4"/>
<rect x="160" y="152" style="fill:#404040;" width="8" height="4"/>
<rect x="172" y="152" style="fill:#404040;" width="16" height="4"/>
<rect x="32" y="144" style="fill:#404040;" width="12" height="4"/>
<rect x="44" y="132" style="fill:#404040;" width="8" height="4"/>
<rect x="48" y="144" style="fill:#404040;" width="8" height="4"/>
<rect x="60" y="144" style="fill:#404040;" width="8" height="4"/>
<rect x="72" y="144" style="fill:#404040;" width="8" height="4"/>
<rect x="84" y="144" style="fill:#404040;" width="8" height="4"/>
<rect x="96" y="144" style="fill:#404040;" width="8" height="4"/>
<rect x="108" y="144" style="fill:#404040;" width="8" height="4"/>
<rect x="120" y="144" style="fill:#404040;" width="8" height="4"/>
<rect x="132" y="144" style="fill:#404040;" width="8" height="4"/>
<rect x="144" y="144" style="fill:#404040;" width="8" height="4"/>
<rect x="156" y="144" style="fill:#404040;" width="8" height="4"/>
<rect x="168" y="144" style="fill:#404040;" width="8" height="4"/>
<rect x="180" y="144" style="fill:#404040;" width="8" height="4"/>
<rect x="56" y="132" style="fill:#404040;" width="8" height="4"/>
<rect x="68" y="132" style="fill:#404040;" width="8" height="4"/>
<rect x="80" y="132" style="fill:#404040;" width="8" height="4"/>
<rect x="92" y="132" style="fill:#404040;" width="8" height="4"/>
<rect x="104" y="132" style="fill:#404040;" width="8" height="4"/>
<rect x="116" y="132" style="fill:#404040;" width="8" height="4"/>
<rect x="128" y="132" style="fill:#404040;" width="8" height="4"/>
<rect x="140" y="132" style="fill:#404040;" width="8" height="4"/>
<rect x="152" y="132" style="fill:#404040;" width="8" height="4"/>
<rect x="164" y="132" style="fill:#404040;" width="8" height="4"/>
<rect x="192" y="132" style="fill:#404040;" width="8" height="4"/>
<rect x="176" y="132" style="fill:#404040;" width="12" height="4"/>
<rect x="32" y="160" style="fill:#B80000;" width="4" height="2"/>
<circle style="fill:#404040;" cx="212" cy="152" r="16"/>
<circle style="fill:#333333;" cx="212" cy="140" r="4"/>
<circle style="fill:#333333;" cx="200" cy="152" r="4"/>
<circle style="fill:#333333;" cx="224" cy="152" r="4"/>
<circle style="fill:#B80000;" cx="212" cy="152" r="8"/>
<circle style="fill:#333333;" cx="212" cy="164" r="4"/>
</svg>
