<?xml version="1.0" encoding="UTF-8" standalone="no"?>
<svg
   xmlns:dc="http://purl.org/dc/elements/1.1/"
   xmlns:cc="http://creativecommons.org/ns#"
   xmlns:rdf="http://www.w3.org/1999/02/22-rdf-syntax-ns#"
   xmlns:svg="http://www.w3.org/2000/svg"
   xmlns="http://www.w3.org/2000/svg"
   viewBox="0 0 330.66638 223.99972"
   height="223.99973"
   width="330.66638"
   xml:space="preserve"
   id="svg2"
   version="1.1"><metadata
     id="metadata8"><rdf:RDF><cc:Work
         rdf:about=""><dc:format>image/svg+xml</dc:format><dc:type
           rdf:resource="http://purl.org/dc/dcmitype/StillImage" /></cc:Work></rdf:RDF></metadata><defs
     id="defs6"><clipPath
       id="clipPath18"
       clipPathUnits="userSpaceOnUse"><path
         id="path16"
         d="M 0,256 H 256 V 0 H 0 Z" /></clipPath><clipPath
       id="clipPath26"
       clipPathUnits="userSpaceOnUse"><path
         id="path24"
         d="M 4,212 H 252 V 44 H 4 Z" /></clipPath></defs><g
     transform="matrix(1.3333333,0,0,-1.3333333,-5.3333332,282.66639)"
     id="g10"><g
       id="g12"><g
         clip-path="url(#clipPath18)"
         id="g14"><g
           id="g20"><g
             id="g22" /><g
             id="g34"><g
               style="opacity:0.5"
               id="g32"
               clip-path="url(#clipPath26)"><g
                 id="g30"
                 transform="translate(231.5898,174.5298)"><path
                   id="path28"
                   style="fill:#ffffff;fill-opacity:1;fill-rule:nonzero;stroke:none"
                   d="M 0,0 -0.18,0.54 -0.435,1.048 C -4.42,9.02 -9.839,15.875 -16.562,21.46 c -3.192,7.256 -11.439,11.971 -25.137,14.389 -9.086,1.603 -17.535,1.621 -17.891,1.621 h -88 c -0.355,0 -8.805,-0.018 -17.89,-1.621 -13.699,-2.418 -21.945,-7.133 -25.137,-14.389 -6.724,-5.585 -12.142,-12.44 -16.128,-20.412 L -207,0.54 -207.179,0 c -0.834,-2.5 -20.411,-61.519 -20.411,-86.53 0,-13.742 2.403,-24.025 7.344,-31.437 5.479,-8.219 14.005,-12.563 24.656,-12.563 8.333,0 17.047,0.971 24.321,8.013 6.241,6.042 10.739,15.751 15.04,32.466 0.342,1.33 0.568,2.696 0.671,4.059 0.098,1.281 0.603,5.747 3.021,9.455 2.637,4.042 6.871,6.007 12.947,6.007 h 72 c 6.076,0 10.311,-1.965 12.946,-6.007 2.418,-3.708 2.924,-8.174 3.022,-9.455 0.103,-1.363 0.33,-2.729 0.672,-4.058 4.301,-16.716 8.798,-26.425 15.039,-32.467 7.274,-7.042 15.988,-8.013 24.321,-8.013 10.652,0 19.178,4.344 24.656,12.563 4.942,7.412 7.344,17.695 7.344,31.437 C 20.41,-61.519 0.833,-2.5 0,0" /></g></g></g></g><g
           transform="translate(172,204)"
           id="g36"><path
             id="path38"
             style="fill:#333333;fill-opacity:1;fill-rule:nonzero;stroke:none"
             d="m 0,0 c 0,0 32,0 36,-12 v -4 z" /></g><g
           transform="translate(84,204)"
           id="g40"><path
             id="path42"
             style="fill:#333333;fill-opacity:1;fill-rule:nonzero;stroke:none"
             d="m 0,0 c 0,0 -32,0 -36,-12 v -4 z" /></g><g
           transform="translate(224,172)"
           id="g44"><path
             id="path46"
             style="fill:#404040;fill-opacity:1;fill-rule:nonzero;stroke:none"
             d="m 0,0 c -16,32 -52,32 -52,32 h -88 c 0,0 -36,0 -52,-32 0,0 -20,-60 -20,-84 0,-24 8,-36 24,-36 15.742,0 23.74,3.872 31.613,34.473 0.225,0.876 0.374,1.77 0.442,2.672 0.363,4.775 3.114,22.855 23.945,22.855 h 72 c 20.831,0 23.581,-18.08 23.944,-22.855 0.07,-0.902 0.218,-1.796 0.444,-2.672 C -27.739,-116.128 -19.742,-120 -4,-120 c 16,0 24,12 24,36 C 20,-60 0,0 0,0" /></g><g
           transform="translate(108,140)"
           id="g48"><path
             id="path50"
             style="fill:#474747;fill-opacity:1;fill-rule:nonzero;stroke:none"
             d="m 0,0 c 0,-8.836 -8.059,-16 -18,-16 -9.941,0 -18,7.164 -18,16 0,8.836 8.059,16 18,16 C -8.059,16 0,8.836 0,0" /></g><g
           transform="translate(90,156)"
           id="g52"><path
             id="path54"
             style="fill:#e77f22;fill-opacity:1;fill-rule:nonzero;stroke:none"
             d="m 0,0 c -7.72,0 -14,-6.28 -14,-14 0,-7.72 6.28,-14 14,-14 7.72,0 14,6.28 14,14 C 14,-6.28 7.72,0 0,0" /></g><g
           transform="translate(90,160)"
           id="g56"><path
             id="path58"
             style="fill:#333333;fill-opacity:1;fill-rule:nonzero;stroke:none"
             d="m 0,0 c -7.72,0 -14,-6.28 -14,-14 0,-7.72 6.28,-14 14,-14 7.72,0 14,6.28 14,14 C 14,-6.28 7.72,0 0,0" /></g><g
           transform="translate(100,146)"
           id="g60"><path
             id="path62"
             style="fill:#262626;fill-opacity:1;fill-rule:nonzero;stroke:none"
             d="m 0,0 c 0,-5.523 -4.477,-10 -10,-10 -5.523,0 -10,4.477 -10,10 0,5.523 4.477,10 10,10 C -4.477,10 0,5.523 0,0" /></g><g
           transform="translate(184,140)"
           id="g64"><path
             id="path66"
             style="fill:#474747;fill-opacity:1;fill-rule:nonzero;stroke:none"
             d="m 0,0 c 0,-8.836 -8.059,-16 -18,-16 -9.941,0 -18,7.164 -18,16 0,8.836 8.059,16 18,16 C -8.059,16 0,8.836 0,0" /></g><g
           transform="translate(166,156)"
           id="g68"><path
             id="path70"
             style="fill:#e77f22;fill-opacity:1;fill-rule:nonzero;stroke:none"
             d="m 0,0 c -7.72,0 -14,-6.28 -14,-14 0,-7.72 6.28,-14 14,-14 7.72,0 14,6.28 14,14 C 14,-6.28 7.72,0 0,0" /></g><g
           transform="translate(166,160)"
           id="g72"><path
             id="path74"
             style="fill:#333333;fill-opacity:1;fill-rule:nonzero;stroke:none"
             d="m 0,0 c -7.72,0 -14,-6.28 -14,-14 0,-7.72 6.28,-14 14,-14 7.72,0 14,6.28 14,14 C 14,-6.28 7.72,0 0,0" /></g><g
           transform="translate(176,146)"
           id="g76"><path
             id="path78"
             style="fill:#262626;fill-opacity:1;fill-rule:nonzero;stroke:none"
             d="m 0,0 c 0,-5.523 -4.478,-10 -10,-10 -5.522,0 -10,4.477 -10,10 0,5.523 4.478,10 10,10 C -4.478,10 0,5.523 0,0" /></g><g
           transform="translate(136,140)"
           id="g80"><path
             id="path82"
             style="fill:#262626;fill-opacity:1;fill-rule:nonzero;stroke:none"
             d="m 0,0 c 0,-4.418 -3.582,-8 -8,-8 -4.418,0 -8,3.582 -8,8 0,4.418 3.582,8 8,8 4.418,0 8,-3.582 8,-8" /></g><g
           transform="translate(148,172)"
           id="g84"><path
             id="path86"
             style="fill:#262626;fill-opacity:1;fill-rule:nonzero;stroke:none"
             d="m 0,0 c 0,-2.209 -1.791,-4 -4,-4 -2.209,0 -4,1.791 -4,4 0,2.209 1.791,4 4,4 2.209,0 4,-1.791 4,-4" /></g><g
           transform="translate(116,172)"
           id="g88"><path
             id="path90"
             style="fill:#262626;fill-opacity:1;fill-rule:nonzero;stroke:none"
             d="m 0,0 c 0,-2.209 -1.791,-4 -4,-4 -2.209,0 -4,1.791 -4,4 0,2.209 1.791,4 4,4 2.209,0 4,-1.791 4,-4" /></g><g
           transform="translate(157,184)"
           id="g92"><path
             id="path94"
             style="fill:#262626;fill-opacity:1;fill-rule:nonzero;stroke:none"
             d="m 0,0 h -6 c -1.657,0 -3,1.343 -3,3 0,1.657 1.343,3 3,3 H 0 C 1.657,6 3,4.657 3,3 3,1.343 1.657,0 0,0" /></g><g
           transform="translate(105,184)"
           id="g96"><path
             id="path98"
             style="fill:#262626;fill-opacity:1;fill-rule:nonzero;stroke:none"
             d="m 0,0 h -6 c -1.657,0 -3,1.343 -3,3 0,1.657 1.343,3 3,3 H 0 C 1.657,6 3,4.657 3,3 3,1.343 1.657,0 0,0" /></g><g
           transform="translate(184,174)"
           id="g100"><path
             id="path102"
             style="fill:#262626;fill-opacity:1;fill-rule:nonzero;stroke:none"
             d="m 0,0 c 0,-3.313 -2.687,-6 -6,-6 -3.313,0 -6,2.687 -6,6 0,3.313 2.687,6 6,6 3.313,0 6,-2.687 6,-6" /></g><g
           transform="translate(200,158)"
           id="g104"><path
             id="path106"
             style="fill:#262626;fill-opacity:1;fill-rule:nonzero;stroke:none"
             d="m 0,0 c 0,-3.313 -2.687,-6 -6,-6 -3.313,0 -6,2.687 -6,6 0,3.313 2.687,6 6,6 3.313,0 6,-2.687 6,-6" /></g><g
           transform="translate(200,186)"
           id="g108"><path
             id="path110"
             style="fill:#262626;fill-opacity:1;fill-rule:nonzero;stroke:none"
             d="m 0,0 c 0,-3.313 -2.687,-6 -6,-6 -3.313,0 -6,2.687 -6,6 0,3.313 2.687,6 6,6 3.313,0 6,-2.687 6,-6" /></g><g
           transform="translate(216,174)"
           id="g112"><path
             id="path114"
             style="fill:#262626;fill-opacity:1;fill-rule:nonzero;stroke:none"
             d="m 0,0 c 0,-3.313 -2.687,-6 -6,-6 -3.313,0 -6,2.687 -6,6 0,3.313 2.687,6 6,6 3.313,0 6,-2.687 6,-6" /></g><g
           transform="translate(72,178)"
           id="g116"><path
             id="path118"
             style="fill:#262626;fill-opacity:1;fill-rule:nonzero;stroke:none"
             d="m 0,0 h -4 v 4 c 0,3.313 -2.687,6 -6,6 -3.313,0 -6,-2.687 -6,-6 V 0 h -4 c -3.313,0 -6,-2.687 -6,-6 0,-3.313 2.687,-6 6,-6 h 4 v -4 c 0,-3.313 2.687,-6 6,-6 3.313,0 6,2.687 6,6 v 4 h 4 c 3.313,0 6,2.687 6,6 0,3.313 -2.687,6 -6,6" /></g></g></g></g></svg>