<svg xmlns="http://www.w3.org/2000/svg" xml:space="preserve" width="330.666" height="224" viewBox="0 0 330.666 224"><defs><clipPath id="a" clipPathUnits="userSpaceOnUse"><path d="M0 256h256V0H0Z"/></clipPath><clipPath id="b" clipPathUnits="userSpaceOnUse"><path d="M4 212h248V44H4Z"/></clipPath></defs><g clip-path="url(#a)" transform="matrix(1.33333 0 0 -1.33333 -5.333 282.666)"><g clip-path="url(#b)" style="opacity:.5"><path d="m0 0-.18.54-.255.508C-4.42 9.02-9.839 15.875-16.562 21.46c-3.192 7.256-11.439 11.971-25.137 14.389-9.086 1.603-17.535 1.621-17.891 1.621h-88c-.355 0-8.805-.018-17.89-1.621-13.699-2.418-21.945-7.133-25.137-14.389-6.724-5.585-12.142-12.44-16.128-20.412L-207 .54l-.179-.54c-.834-2.5-20.411-61.519-20.411-86.53 0-13.742 2.403-24.025 7.344-31.437 5.479-8.219 14.005-12.563 24.656-12.563 8.333 0 17.047.971 24.321 8.013 6.241 6.042 10.739 15.751 15.04 32.466.342 1.33.568 2.696.671 4.059.098 1.281.603 5.747 3.021 9.455 2.637 4.042 6.871 6.007 12.947 6.007h72c6.076 0 10.311-1.965 12.946-6.007 2.418-3.708 2.924-8.174 3.022-9.455.103-1.363.33-2.729.672-4.058 4.301-16.716 8.798-26.425 15.039-32.467 7.274-7.042 15.988-8.013 24.321-8.013 10.652 0 19.178 4.344 24.656 12.563 4.942 7.412 7.344 17.695 7.344 31.437C20.41-61.519.833-2.5 0 0" style="fill:#fff;fill-opacity:1;fill-rule:nonzero;stroke:none" transform="translate(231.59 174.53)"/></g><path d="M0 0s32 0 36-12v-4z" style="fill:#333;fill-opacity:1;fill-rule:nonzero;stroke:none" transform="translate(172 204)"/><path d="M0 0s-32 0-36-12v-4z" style="fill:#333;fill-opacity:1;fill-rule:nonzero;stroke:none" transform="translate(84 204)"/><path d="M0 0c-16 32-52 32-52 32h-88s-36 0-52-32c0 0-20-60-20-84q0-36 24-36c15.742 0 23.74 3.872 31.613 34.473.225.876.374 1.77.442 2.672C-155.582-78.08-152.831-60-132-60h72c20.831 0 23.581-18.08 23.944-22.855.07-.902.218-1.796.444-2.672C-27.739-116.128-19.742-120-4-120q24 0 24 36C20-60 0 0 0 0" style="fill:#404040;fill-opacity:1;fill-rule:nonzero;stroke:none" transform="translate(224 172)"/><path d="M0 0c0-8.836-8.059-16-18-16S-36-8.836-36 0s8.059 16 18 16S0 8.836 0 0" style="fill:#474747;fill-opacity:1;fill-rule:nonzero;stroke:none" transform="translate(108 140)"/><path d="M0 0c-7.72 0-14-6.28-14-14s6.28-14 14-14 14 6.28 14 14S7.72 0 0 0" style="fill:#e77f22;fill-opacity:1;fill-rule:nonzero;stroke:none" transform="translate(90 156)"/><path d="M0 0c-7.72 0-14-6.28-14-14s6.28-14 14-14 14 6.28 14 14S7.72 0 0 0" style="fill:#333;fill-opacity:1;fill-rule:nonzero;stroke:none" transform="translate(90 160)"/><path d="M0 0c0-5.523-4.477-10-10-10S-20-5.523-20 0s4.477 10 10 10S0 5.523 0 0" style="fill:#262626;fill-opacity:1;fill-rule:nonzero;stroke:none" transform="translate(100 146)"/><path d="M0 0c0-8.836-8.059-16-18-16S-36-8.836-36 0s8.059 16 18 16S0 8.836 0 0" style="fill:#474747;fill-opacity:1;fill-rule:nonzero;stroke:none" transform="translate(184 140)"/><path d="M0 0c-7.72 0-14-6.28-14-14s6.28-14 14-14 14 6.28 14 14S7.72 0 0 0" style="fill:#e77f22;fill-opacity:1;fill-rule:nonzero;stroke:none" transform="translate(166 156)"/><path d="M0 0c-7.72 0-14-6.28-14-14s6.28-14 14-14 14 6.28 14 14S7.72 0 0 0" style="fill:#333;fill-opacity:1;fill-rule:nonzero;stroke:none" transform="translate(166 160)"/><path d="M0 0c0-5.523-4.478-10-10-10S-20-5.523-20 0s4.478 10 10 10S0 5.523 0 0" style="fill:#262626;fill-opacity:1;fill-rule:nonzero;stroke:none" transform="translate(176 146)"/><path d="M0 0a8 8 0 1 0-16 0A8 8 0 0 0 0 0" style="fill:#262626;fill-opacity:1;fill-rule:nonzero;stroke:none" transform="translate(136 140)"/><path d="M0 0a4 4 0 1 0-8 0 4 4 0 0 0 8 0" style="fill:#262626;fill-opacity:1;fill-rule:nonzero;stroke:none" transform="translate(148 172)"/><path d="M0 0a4 4 0 1 0-8 0 4 4 0 0 0 8 0" style="fill:#262626;fill-opacity:1;fill-rule:nonzero;stroke:none" transform="translate(116 172)"/><path d="M0 0h-6a3 3 0 1 0 0 6h6a3 3 0 1 0 0-6" style="fill:#262626;fill-opacity:1;fill-rule:nonzero;stroke:none" transform="translate(157 184)"/><path d="M0 0h-6a3 3 0 1 0 0 6h6a3 3 0 1 0 0-6" style="fill:#262626;fill-opacity:1;fill-rule:nonzero;stroke:none" transform="translate(105 184)"/><path d="M0 0a6 6 0 0 0-12 0A6 6 0 0 0 0 0" style="fill:#262626;fill-opacity:1;fill-rule:nonzero;stroke:none" transform="translate(184 174)"/><path d="M0 0a6 6 0 0 0-12 0A6 6 0 0 0 0 0" style="fill:#262626;fill-opacity:1;fill-rule:nonzero;stroke:none" transform="translate(200 158)"/><path d="M0 0a6 6 0 0 0-12 0A6 6 0 0 0 0 0" style="fill:#262626;fill-opacity:1;fill-rule:nonzero;stroke:none" transform="translate(200 186)"/><path d="M0 0a6 6 0 0 0-12 0A6 6 0 0 0 0 0" style="fill:#262626;fill-opacity:1;fill-rule:nonzero;stroke:none" transform="translate(216 174)"/><path d="M0 0h-4v4a6 6 0 0 1-12 0V0h-4a6 6 0 0 1 0-12h4v-4a6 6 0 0 1 12 0v4h4A6 6 0 0 1 0 0" style="fill:#262626;fill-opacity:1;fill-rule:nonzero;stroke:none" transform="translate(72 178)"/></g></svg>