<svg xmlns="http://www.w3.org/2000/svg" xml:space="preserve" viewBox="0 0 256 256"><path d="M204 60.589V48a8 8 0 0 0-8-8h-4V16c0-6.617-5.383-12-12-12H76c-6.617 0-12 5.383-12 12v24h-3.98C55.602 40 52 43.582 52 48v12.589c-4.642 1.54-8 5.922-8 11.074v96.674c0 5.159 3.367 9.547 8.02 11.081V244a8 8 0 0 0 8 8h135.96a8 8 0 0 0 8-8v-64.583c4.652-1.534 8.02-5.921 8.02-11.081V71.663c0-5.152-3.358-9.534-8-11.074" style="opacity:.5;fill:#fff"/><path d="M60.02 48h135.96v196H60.02z" style="fill:#3d0000"/><path d="M60.02 97.842h135.96V232H60.02z" style="fill:#d9d4bc"/><path d="M60 80h136v60H60z" style="fill:#c4c0aa"/><path d="M88 48h80v32H88z" style="fill:#bfbfbf"/><path d="M60.02 232h3.99L68 197.284v-41.659h-7.98zm135.96 0h-3.99L188 197.284v-41.659h7.98z" style="fill:#c4c0aa"/><path d="M72 212h112v8H72zm0 12h112v4H72z" style="fill:#7b0000"/><path d="M76 188h24v20H76zm80 0h24v20h-24zm-48-42.571h40V172h-40z" style="fill:#c4c0aa"/><path d="M124 148h8v24h-8z" style="fill:#a6a390"/><path d="M108 168h40v24h-40z" style="fill:#7b0000"/><path d="M148 192h-40l4-20h32z" style="fill:#3d0000"/><path d="M88 192h12v12H88zm68 0h12v12h-12z" style="fill:#7b0000"/><path d="M60 48h28v32H60zm108 0h28v32h-28z" style="fill:#d9d4bc"/><path d="M96 48h4v32h-4zm8 0h4v32h-4zm8 0h4v32h-4zm8 0h4v32h-4zm8 0h4v32h-4zm8 0h4v32h-4zm8 0h4v32h-4zm8 0h4v32h-4z" style="fill:#b3b3b3"/><path d="M88 196h12v4H88z" style="fill:#3d0000"/><path d="M64.337 172h-8.674A3.673 3.673 0 0 1 52 168.337V71.663A3.673 3.673 0 0 1 55.663 68h8.674A3.673 3.673 0 0 1 68 71.663v96.674A3.673 3.673 0 0 1 64.337 172m136 0h-8.674a3.673 3.673 0 0 1-3.663-3.663V71.663A3.673 3.673 0 0 1 191.663 68h8.674A3.673 3.673 0 0 1 204 71.663v96.674a3.673 3.673 0 0 1-3.663 3.663" style="fill:#7b0000"/><path d="M60 68h4v104h-4zm132 0h4v104h-4z" style="fill:#3d0000"/><path d="M165.389 108.04H90.611l-3.399-27.193h81.576z" style="fill:#ccc"/><path d="M60 48h4v20h-4zm132 0h3.98v20H192z" style="fill:#c4c0aa"/><path d="M184 80H72v28z" style="fill:#7b0000"/><path d="M178.197 100H77.803c-.996 0-1.803.807-1.803 1.803v.394c0 .996.807 1.803 1.803 1.803h100.394c.996 0 1.803-.807 1.803-1.803v-.394c0-.996-.807-1.803-1.803-1.803" style="fill:#3d0000"/><path d="M168 136H88l-8-8v-12h96v12z" style="fill:#262626"/><path d="M180 144H76a4 4 0 0 1-4-4V16a4 4 0 0 1 4-4h104a4 4 0 0 1 4 4v124a4 4 0 0 1-4 4" style="fill:#666"/><path d="M156 116h-56c-11.046 0-20-8.954-20-20V16a4 4 0 0 1 4-4h88a4 4 0 0 1 4 4v80c0 11.046-8.954 20-20 20" style="fill:#595959"/><path d="M158 108H98c-5.523 0-10-4.477-10-10V16h80v82c0 5.523-4.477 10-10 10" style="fill:#4d4d4d"/><path d="M164 76h-44a4 4 0 0 1 0-8h44z" style="fill:#1a1a1a"/><path d="M152 76h-24a4 4 0 0 1 0-8h24a4 4 0 0 1 0 8" style="fill:#404040"/><circle cx="152" cy="72" r="4" style="fill:#262626"/><path d="M159 118H97a4 4 0 0 1-2.4-.8l-14.132-10.599a3 3 0 0 0-1.802-.601H72v-2h6.668c1.081 0 2.133.351 2.998 1l13.6 10.2c.692.519 1.535.8 2.4.8h60.667c.865 0 1.708-.281 2.4-.8l13.6-10.2a5 5 0 0 1 3-1H184v2h-6.666c-.649 0-1.281.211-1.8.6L161.4 117.2c-.693.519-1.535.8-2.4.8m-53 22h-8a2 2 0 1 1 0-4h8a2 2 0 1 1 0 4" style="fill:#1a1a1a"/></svg>