<?xml version="1.0" encoding="UTF-8" standalone="no"?>
<svg
   xmlns:dc="http://purl.org/dc/elements/1.1/"
   xmlns:cc="http://creativecommons.org/ns#"
   xmlns:rdf="http://www.w3.org/1999/02/22-rdf-syntax-ns#"
   xmlns:svg="http://www.w3.org/2000/svg"
   xmlns="http://www.w3.org/2000/svg"
   viewBox="0 0 330.66665 277.33331"
   height="277.33331"
   width="330.66666"
   xml:space="preserve"
   id="svg2"
   version="1.1"><metadata
     id="metadata8"><rdf:RDF><cc:Work
         rdf:about=""><dc:format>image/svg+xml</dc:format><dc:type
           rdf:resource="http://purl.org/dc/dcmitype/StillImage" /></cc:Work></rdf:RDF></metadata><defs
     id="defs6"><clipPath
       id="clipPath18"
       clipPathUnits="userSpaceOnUse"><path
         id="path16"
         d="M 0,256 H 256 V 0 H 0 Z" /></clipPath><clipPath
       id="clipPath26"
       clipPathUnits="userSpaceOnUse"><path
         id="path24"
         d="M 3.99982,232 H 252 V 24 H 3.99982 Z" /></clipPath></defs><g
     transform="matrix(1.3333333,0,0,-1.3333333,-5.3333332,309.33333)"
     id="g10"><g
       id="g12"><g
         clip-path="url(#clipPath18)"
         id="g14"><g
           id="g20"><g
             id="g22" /><g
             id="g34"><g
               style="opacity:0.5"
               id="g32"
               clip-path="url(#clipPath26)"><g
                 id="g30"
                 transform="translate(240,188)"><path
                   id="path28"
                   style="fill:#ffffff;fill-opacity:1;fill-rule:nonzero;stroke:none"
                   d="m 0,0 h -52 v 34 2 c 0,4.418 -3.582,8 -8,8 h -2 -100 -2 c -4.418,0 -8,-3.582 -8,-8 V 34 16 12 0 h -52 c -6.617,0 -12,-5.383 -12,-12 v -124 c 0,-6.617 5.383,-12 12,-12 h 52 v -4 c 0,-6.617 5.383,-12 12,-12 h 96 c 6.617,0 12,5.383 12,12 v 4 H 0 c 6.617,0 12,5.383 12,12 V -12 C 12,-5.383 6.617,0 0,0" /></g></g></g></g><g
           transform="translate(240,48)"
           id="g36"><path
             id="path38"
             style="fill:#333333;fill-opacity:1;fill-rule:nonzero;stroke:none"
             d="m 0,0 h -224 c -2.209,0 -4,1.791 -4,4 v 124 c 0,2.209 1.791,4 4,4 H 0 c 2.209,0 4,-1.791 4,-4 V 4 C 4,1.791 2.209,0 0,0" /></g><path
           id="path40"
           style="fill:#404040;fill-opacity:1;fill-rule:nonzero;stroke:none"
           d="M 184,156 H 72 v 16 h 112 z" /><path
           id="path42"
           style="fill:#404040;fill-opacity:1;fill-rule:nonzero;stroke:none"
           d="M 240,52 H 16 v 100 h 224 z" /><g
           transform="translate(176,32)"
           id="g44"><path
             id="path46"
             style="fill:#4c4c4c;fill-opacity:1;fill-rule:nonzero;stroke:none"
             d="m 0,0 h -96 c -2.209,0 -4,1.791 -4,4 V 192 H 4 V 4 C 4,1.791 2.209,0 0,0" /></g><g
           transform="translate(180,180)"
           id="g48"><path
             id="path50"
             style="fill:#333333;fill-opacity:1;fill-rule:nonzero;stroke:none"
             d="m 0,0 h -104 v 42 c 0,1.104 0.896,2 2,2 H -2 c 1.104,0 2,-0.896 2,-2 z" /></g><g
           transform="translate(70,152)"
           id="g52"><path
             id="path54"
             style="fill:#4c4c4c;fill-opacity:1;fill-rule:nonzero;stroke:none"
             d="m 0,0 h -56 c -1.104,0 -2,0.896 -2,2 v 20 c 0,1.104 0.896,2 2,2 H 0 c 1.104,0 2,-0.896 2,-2 V 2 C 2,0.896 1.104,0 0,0" /></g><g
           transform="translate(242,152)"
           id="g56"><path
             id="path58"
             style="fill:#4c4c4c;fill-opacity:1;fill-rule:nonzero;stroke:none"
             d="m 0,0 h -56 c -1.104,0 -2,0.896 -2,2 v 20 c 0,1.104 0.896,2 2,2 H 0 c 1.104,0 2,-0.896 2,-2 V 2 C 2,0.896 1.104,0 0,0" /></g><path
           id="path60"
           style="fill:#0e6654;fill-opacity:1;fill-rule:nonzero;stroke:none"
           d="M 56,160 H 44 v 8 h 12 z" /><path
           id="path62"
           style="fill:#16a085;fill-opacity:1;fill-rule:nonzero;stroke:none"
           d="m 52,160 h -4 v 8 h 4 z" /><path
           id="path64"
           style="fill:#595959;fill-opacity:1;fill-rule:nonzero;stroke:none"
           d="m 84,44 h -4 v 124 h 4 z" /><path
           id="path66"
           style="fill:#595959;fill-opacity:1;fill-rule:nonzero;stroke:none"
           d="m 92,44 h -4 v 124 h 4 z" /><path
           id="path68"
           style="fill:#595959;fill-opacity:1;fill-rule:nonzero;stroke:none"
           d="m 100,44 h -4 v 124 h 4 z" /><path
           id="path70"
           style="fill:#595959;fill-opacity:1;fill-rule:nonzero;stroke:none"
           d="m 108,44 h -4 v 124 h 4 z" /><path
           id="path72"
           style="fill:#595959;fill-opacity:1;fill-rule:nonzero;stroke:none"
           d="m 144,44 h -32 v 84 h 32 z" /><path
           id="path74"
           style="fill:#595959;fill-opacity:1;fill-rule:nonzero;stroke:none"
           d="m 152,44 h -4 v 124 h 4 z" /><path
           id="path76"
           style="fill:#595959;fill-opacity:1;fill-rule:nonzero;stroke:none"
           d="m 160,44 h -4 v 124 h 4 z" /><path
           id="path78"
           style="fill:#595959;fill-opacity:1;fill-rule:nonzero;stroke:none"
           d="m 168,44 h -4 v 124 h 4 z" /><path
           id="path80"
           style="fill:#595959;fill-opacity:1;fill-rule:nonzero;stroke:none"
           d="m 176,44 h -4 v 124 h 4 z" /><path
           id="path82"
           style="fill:#4c4c4c;fill-opacity:1;fill-rule:nonzero;stroke:none"
           d="M 76,120 H 24 v 12 h 52 z" /><g
           transform="translate(36,126)"
           id="g84"><path
             id="path86"
             style="fill:#595959;fill-opacity:1;fill-rule:nonzero;stroke:none"
             d="m 0,0 c 0,-5.522 -4.477,-10 -10,-10 -5.523,0 -10,4.478 -10,10 0,5.523 4.477,10 10,10 C -4.477,10 0,5.523 0,0" /></g><path
           id="path88"
           style="fill:#4c4c4c;fill-opacity:1;fill-rule:nonzero;stroke:none"
           d="M 76,92 H 24 v 12 h 52 z" /><g
           transform="translate(36,98)"
           id="g90"><path
             id="path92"
             style="fill:#595959;fill-opacity:1;fill-rule:nonzero;stroke:none"
             d="m 0,0 c 0,-5.522 -4.477,-10 -10,-10 -5.523,0 -10,4.478 -10,10 0,5.522 4.477,10 10,10 C -4.477,10 0,5.522 0,0" /></g><path
           id="path94"
           style="fill:#4c4c4c;fill-opacity:1;fill-rule:nonzero;stroke:none"
           d="M 76,64 H 24 v 12 h 52 z" /><g
           transform="translate(36,70)"
           id="g96"><path
             id="path98"
             style="fill:#595959;fill-opacity:1;fill-rule:nonzero;stroke:none"
             d="m 0,0 c 0,-5.522 -4.477,-10 -10,-10 -5.523,0 -10,4.478 -10,10 0,5.522 4.477,10 10,10 C -4.477,10 0,5.522 0,0" /></g><path
           id="path100"
           style="fill:#4c4c4c;fill-opacity:1;fill-rule:nonzero;stroke:none"
           d="m 180,120 h 52 v 12 h -52 z" /><g
           transform="translate(220,126)"
           id="g102"><path
             id="path104"
             style="fill:#595959;fill-opacity:1;fill-rule:nonzero;stroke:none"
             d="m 0,0 c 0,-5.522 4.478,-10 10,-10 5.522,0 10,4.478 10,10 C 20,5.523 15.522,10 10,10 4.478,10 0,5.523 0,0" /></g><path
           id="path106"
           style="fill:#4c4c4c;fill-opacity:1;fill-rule:nonzero;stroke:none"
           d="m 180,92 h 52 v 12 h -52 z" /><g
           transform="translate(220,98)"
           id="g108"><path
             id="path110"
             style="fill:#595959;fill-opacity:1;fill-rule:nonzero;stroke:none"
             d="m 0,0 c 0,-5.522 4.478,-10 10,-10 5.522,0 10,4.478 10,10 C 20,5.522 15.522,10 10,10 4.478,10 0,5.522 0,0" /></g><path
           id="path112"
           style="fill:#4c4c4c;fill-opacity:1;fill-rule:nonzero;stroke:none"
           d="m 180,64 h 52 v 12 h -52 z" /><g
           transform="translate(220,70)"
           id="g114"><path
             id="path116"
             style="fill:#595959;fill-opacity:1;fill-rule:nonzero;stroke:none"
             d="m 0,0 c 0,-5.522 4.478,-10 10,-10 5.522,0 10,4.478 10,10 C 20,5.522 15.522,10 10,10 4.478,10 0,5.522 0,0" /></g><path
           id="path118"
           style="fill:#404040;fill-opacity:1;fill-rule:nonzero;stroke:none"
           d="m 144,132 h -32 v 44 h 32 z" /><g
           transform="translate(136,156)"
           id="g120"><path
             id="path122"
             style="fill:#595959;fill-opacity:1;fill-rule:nonzero;stroke:none"
             d="m 0,0 h -16 c -1.104,0 -2,0.896 -2,2 V 24 H 2 V 2 C 2,0.896 1.104,0 0,0" /></g><g
           transform="translate(136,154)"
           id="g124"><path
             id="path126"
             style="fill:#4c4c4c;fill-opacity:1;fill-rule:nonzero;stroke:none"
             d="m 0,0 h -16 c -1.104,0 -2,0.896 -2,2 v 8 c 0,1.104 0.896,2 2,2 H 0 c 1.104,0 2,-0.896 2,-2 V 2 C 2,0.896 1.104,0 0,0" /></g><path
           id="path128"
           style="fill:#4c4c4c;fill-opacity:1;fill-rule:nonzero;stroke:none"
           d="m 116,136 h -2 v 36 h 2 z" /><path
           id="path130"
           style="fill:#4c4c4c;fill-opacity:1;fill-rule:nonzero;stroke:none"
           d="m 120,136 h -2 v 16 h 2 z" /><path
           id="path132"
           style="fill:#4c4c4c;fill-opacity:1;fill-rule:nonzero;stroke:none"
           d="m 124,136 h -2 v 16 h 2 z" /><path
           id="path134"
           style="fill:#4c4c4c;fill-opacity:1;fill-rule:nonzero;stroke:none"
           d="m 134,136 h -2 v 16 h 2 z" /><path
           id="path136"
           style="fill:#4c4c4c;fill-opacity:1;fill-rule:nonzero;stroke:none"
           d="m 138,136 h -2 v 16 h 2 z" /><path
           id="path138"
           style="fill:#4c4c4c;fill-opacity:1;fill-rule:nonzero;stroke:none"
           d="m 142,136 h -2 v 36 h 2 z" /><g
           transform="translate(128,136)"
           id="g140"><path
             id="path142"
             style="fill:#4c4c4c;fill-opacity:1;fill-rule:nonzero;stroke:none"
             d="M 0,0 -2,4 V 16 H 2 V 4 Z" /></g><path
           id="path144"
           style="fill:#333333;fill-opacity:1;fill-rule:nonzero;stroke:none"
           d="M 72,144 H 44 v 4 h 28 z" /><path
           id="path146"
           style="fill:#333333;fill-opacity:1;fill-rule:nonzero;stroke:none"
           d="m 212,144 h -28 v 4 h 28 z" /><path
           id="path148"
           style="fill:#333333;fill-opacity:1;fill-rule:nonzero;stroke:none"
           d="M 72,136 H 44 v 4 h 28 z" /><path
           id="path150"
           style="fill:#333333;fill-opacity:1;fill-rule:nonzero;stroke:none"
           d="m 212,136 h -28 v 4 h 28 z" /><g
           transform="translate(34,126)"
           id="g152"><path
             id="path154"
             style="fill:#4c4c4c;fill-opacity:1;fill-rule:nonzero;stroke:none"
             d="m 0,0 c 0,-4.418 -3.582,-8 -8,-8 -4.418,0 -8,3.582 -8,8 0,4.418 3.582,8 8,8 4.418,0 8,-3.582 8,-8" /></g><g
           transform="translate(34,98)"
           id="g156"><path
             id="path158"
             style="fill:#4c4c4c;fill-opacity:1;fill-rule:nonzero;stroke:none"
             d="m 0,0 c 0,-4.418 -3.582,-8 -8,-8 -4.418,0 -8,3.582 -8,8 0,4.418 3.582,8 8,8 4.418,0 8,-3.582 8,-8" /></g><g
           transform="translate(34,70)"
           id="g160"><path
             id="path162"
             style="fill:#4c4c4c;fill-opacity:1;fill-rule:nonzero;stroke:none"
             d="m 0,0 c 0,-4.418 -3.582,-8 -8,-8 -4.418,0 -8,3.582 -8,8 0,4.418 3.582,8 8,8 4.418,0 8,-3.582 8,-8" /></g><g
           transform="translate(238,126)"
           id="g164"><path
             id="path166"
             style="fill:#4c4c4c;fill-opacity:1;fill-rule:nonzero;stroke:none"
             d="m 0,0 c 0,-4.418 -3.582,-8 -8,-8 -4.418,0 -8,3.582 -8,8 0,4.418 3.582,8 8,8 4.418,0 8,-3.582 8,-8" /></g><g
           transform="translate(238,98)"
           id="g168"><path
             id="path170"
             style="fill:#4c4c4c;fill-opacity:1;fill-rule:nonzero;stroke:none"
             d="m 0,0 c 0,-4.418 -3.582,-8 -8,-8 -4.418,0 -8,3.582 -8,8 0,4.418 3.582,8 8,8 4.418,0 8,-3.582 8,-8" /></g><g
           transform="translate(238,70)"
           id="g172"><path
             id="path174"
             style="fill:#4c4c4c;fill-opacity:1;fill-rule:nonzero;stroke:none"
             d="m 0,0 c 0,-4.418 -3.582,-8 -8,-8 -4.418,0 -8,3.582 -8,8 0,4.418 3.582,8 8,8 4.418,0 8,-3.582 8,-8" /></g><g
           transform="translate(162,68)"
           id="g176"><path
             id="path178"
             style="fill:#404040;fill-opacity:1;fill-rule:nonzero;stroke:none"
             d="m 0,0 c -4.418,0 -8,-3.582 -8,-8 0,-4.418 3.582,-8 8,-8 4.418,0 8,3.582 8,8 0,4.418 -3.582,8 -8,8" /></g><g
           transform="translate(162,64)"
           id="g180"><path
             id="path182"
             style="fill:#4c4c4c;fill-opacity:1;fill-rule:nonzero;stroke:none"
             d="m 0,0 c 2.206,0 4,-1.794 4,-4 0,-2.206 -1.794,-4 -4,-4 -2.206,0 -4,1.794 -4,4 0,2.206 1.794,4 4,4" /></g><g
           transform="translate(164,60)"
           id="g184"><path
             id="path186"
             style="fill:#404040;fill-opacity:1;fill-rule:nonzero;stroke:none"
             d="m 0,0 c 0,-1.104 -0.896,-2 -2,-2 -1.104,0 -2,0.896 -2,2 0,1.104 0.896,2 2,2 1.104,0 2,-0.896 2,-2" /></g><g
           transform="translate(162,152)"
           id="g188"><path
             id="path190"
             style="fill:#404040;fill-opacity:1;fill-rule:nonzero;stroke:none"
             d="m 0,0 c -4.418,0 -8,-3.582 -8,-8 0,-4.418 3.582,-8 8,-8 4.418,0 8,3.582 8,8 0,4.418 -3.582,8 -8,8" /></g><g
           transform="translate(162,148)"
           id="g192"><path
             id="path194"
             style="fill:#4c4c4c;fill-opacity:1;fill-rule:nonzero;stroke:none"
             d="m 0,0 c 2.206,0 4,-1.794 4,-4 0,-2.206 -1.794,-4 -4,-4 -2.206,0 -4,1.794 -4,4 0,2.206 1.794,4 4,4" /></g><g
           transform="translate(164,144)"
           id="g196"><path
             id="path198"
             style="fill:#404040;fill-opacity:1;fill-rule:nonzero;stroke:none"
             d="m 0,0 c 0,-1.104 -0.896,-2 -2,-2 -1.104,0 -2,0.896 -2,2 0,1.104 0.896,2 2,2 1.104,0 2,-0.896 2,-2" /></g><g
           transform="translate(94,68)"
           id="g200"><path
             id="path202"
             style="fill:#404040;fill-opacity:1;fill-rule:nonzero;stroke:none"
             d="m 0,0 c -4.418,0 -8,-3.582 -8,-8 0,-4.418 3.582,-8 8,-8 4.418,0 8,3.582 8,8 0,4.418 -3.582,8 -8,8" /></g><g
           transform="translate(94,64)"
           id="g204"><path
             id="path206"
             style="fill:#4c4c4c;fill-opacity:1;fill-rule:nonzero;stroke:none"
             d="m 0,0 c 2.206,0 4,-1.794 4,-4 0,-2.206 -1.794,-4 -4,-4 -2.206,0 -4,1.794 -4,4 0,2.206 1.794,4 4,4" /></g><g
           transform="translate(96,60)"
           id="g208"><path
             id="path210"
             style="fill:#404040;fill-opacity:1;fill-rule:nonzero;stroke:none"
             d="m 0,0 c 0,-1.104 -0.896,-2 -2,-2 -1.104,0 -2,0.896 -2,2 0,1.104 0.896,2 2,2 1.104,0 2,-0.896 2,-2" /></g><g
           transform="translate(94,152)"
           id="g212"><path
             id="path214"
             style="fill:#404040;fill-opacity:1;fill-rule:nonzero;stroke:none"
             d="m 0,0 c -4.418,0 -8,-3.582 -8,-8 0,-4.418 3.582,-8 8,-8 4.418,0 8,3.582 8,8 0,4.418 -3.582,8 -8,8" /></g><g
           transform="translate(94,148)"
           id="g216"><path
             id="path218"
             style="fill:#4c4c4c;fill-opacity:1;fill-rule:nonzero;stroke:none"
             d="m 0,0 c 2.206,0 4,-1.794 4,-4 0,-2.206 -1.794,-4 -4,-4 -2.206,0 -4,1.794 -4,4 0,2.206 1.794,4 4,4" /></g><g
           transform="translate(96,144)"
           id="g220"><path
             id="path222"
             style="fill:#404040;fill-opacity:1;fill-rule:nonzero;stroke:none"
             d="m 0,0 c 0,-1.104 -0.896,-2 -2,-2 -1.104,0 -2,0.896 -2,2 0,1.104 0.896,2 2,2 1.104,0 2,-0.896 2,-2" /></g><g
           transform="translate(72,174)"
           id="g224"><path
             id="path226"
             style="fill:#404040;fill-opacity:1;fill-rule:nonzero;stroke:none"
             d="m 0,0 c 0,-1.104 -0.896,-2 -2,-2 -1.104,0 -2,0.896 -2,2 0,1.104 0.896,2 2,2 1.104,0 2,-0.896 2,-2" /></g><g
           transform="translate(16,174)"
           id="g228"><path
             id="path230"
             style="fill:#404040;fill-opacity:1;fill-rule:nonzero;stroke:none"
             d="m 0,0 c 0,-1.104 -0.896,-2 -2,-2 -1.104,0 -2,0.896 -2,2 0,1.104 0.896,2 2,2 1.104,0 2,-0.896 2,-2" /></g><g
           transform="translate(72,154)"
           id="g232"><path
             id="path234"
             style="fill:#404040;fill-opacity:1;fill-rule:nonzero;stroke:none"
             d="m 0,0 c 0,-1.104 -0.896,-2 -2,-2 -1.104,0 -2,0.896 -2,2 0,1.104 0.896,2 2,2 1.104,0 2,-0.896 2,-2" /></g><g
           transform="translate(16,154)"
           id="g236"><path
             id="path238"
             style="fill:#404040;fill-opacity:1;fill-rule:nonzero;stroke:none"
             d="m 0,0 c 0,-1.104 -0.896,-2 -2,-2 -1.104,0 -2,0.896 -2,2 0,1.104 0.896,2 2,2 1.104,0 2,-0.896 2,-2" /></g><g
           transform="translate(244,174)"
           id="g240"><path
             id="path242"
             style="fill:#404040;fill-opacity:1;fill-rule:nonzero;stroke:none"
             d="m 0,0 c 0,-1.104 -0.896,-2 -2,-2 -1.104,0 -2,0.896 -2,2 0,1.104 0.896,2 2,2 1.104,0 2,-0.896 2,-2" /></g><g
           transform="translate(188,174)"
           id="g244"><path
             id="path246"
             style="fill:#404040;fill-opacity:1;fill-rule:nonzero;stroke:none"
             d="m 0,0 c 0,-1.104 -0.896,-2 -2,-2 -1.104,0 -2,0.896 -2,2 0,1.104 0.896,2 2,2 1.104,0 2,-0.896 2,-2" /></g><g
           transform="translate(244,154)"
           id="g248"><path
             id="path250"
             style="fill:#404040;fill-opacity:1;fill-rule:nonzero;stroke:none"
             d="m 0,0 c 0,-1.104 -0.896,-2 -2,-2 -1.104,0 -2,0.896 -2,2 0,1.104 0.896,2 2,2 1.104,0 2,-0.896 2,-2" /></g><g
           transform="translate(188,154)"
           id="g252"><path
             id="path254"
             style="fill:#404040;fill-opacity:1;fill-rule:nonzero;stroke:none"
             d="m 0,0 c 0,-1.104 -0.896,-2 -2,-2 -1.104,0 -2,0.896 -2,2 0,1.104 0.896,2 2,2 1.104,0 2,-0.896 2,-2" /></g><path
           id="path256"
           style="fill:#262626;fill-opacity:1;fill-rule:nonzero;stroke:none"
           d="M 92,200 H 76 v 4 h 16 z" /></g></g></g></svg>