<?xml version="1.0" encoding="UTF-8" standalone="no"?>
<svg
   xmlns:dc="http://purl.org/dc/elements/1.1/"
   xmlns:cc="http://creativecommons.org/ns#"
   xmlns:rdf="http://www.w3.org/1999/02/22-rdf-syntax-ns#"
   xmlns:svg="http://www.w3.org/2000/svg"
   xmlns="http://www.w3.org/2000/svg"
   viewBox="0 0 320 330.66665"
   height="330.66666"
   width="320"
   xml:space="preserve"
   id="svg2"
   version="1.1"><metadata
     id="metadata8"><rdf:RDF><cc:Work
         rdf:about=""><dc:format>image/svg+xml</dc:format><dc:type
           rdf:resource="http://purl.org/dc/dcmitype/StillImage" /></cc:Work></rdf:RDF></metadata><defs
     id="defs6"><clipPath
       id="clipPath18"
       clipPathUnits="userSpaceOnUse"><path
         id="path16"
         d="M 0,256 H 256 V 0 H 0 Z" /></clipPath><clipPath
       id="clipPath26"
       clipPathUnits="userSpaceOnUse"><path
         id="path24"
         d="M 8,252 H 248 V 4 H 8 Z" /></clipPath><clipPath
       id="clipPath118"
       clipPathUnits="userSpaceOnUse"><path
         id="path116"
         d="M 0,256 H 256 V 0 H 0 Z" /></clipPath></defs><g
     transform="matrix(1.3333333,0,0,-1.3333333,-10.666666,335.99999)"
     id="g10"><g
       id="g12"><g
         clip-path="url(#clipPath18)"
         id="g14"><g
           id="g20"><g
             id="g22" /><g
             id="g34"><g
               style="opacity:0.5"
               id="g32"
               clip-path="url(#clipPath26)"><g
                 id="g30"
                 transform="translate(240,252)"><path
                   id="path28"
                   style="fill:#ffffff;fill-opacity:1;fill-rule:nonzero;stroke:none"
                   d="m 0,0 h -84 -4.944 L -91.155,-4.422 -92.944,-8 h -38.112 l -1.789,3.578 -2.211,4.422 h -4.944 -84 -8 v -8 -8 -4 -68 -2 -50 -8 -4 -20 -4 -64 -8 h 8 224 8 v 8 64 4 20 4 8 50 2 68 4 8 8 z" /></g></g></g></g></g></g><path
       id="path36"
       style="fill:#a6a6a6;fill-opacity:1;fill-rule:nonzero;stroke:none"
       d="M 240,12 H 16 v 68 h 224 z" /><path
       id="path38"
       style="fill:#999999;fill-opacity:1;fill-rule:nonzero;stroke:none"
       d="M 182,68 H 74 V 24 H 182 Z M 180,26 H 76 v 40 h 104 z" /><g
       transform="translate(156,244)"
       id="g40"><path
         id="path42"
         style="fill:#cccccc;fill-opacity:1;fill-rule:nonzero;stroke:none"
         d="m 0,0 -4,-8 h -48 l -4,8 h -84 V -8 -144 H 84 V -8 0 Z" /></g><path
       id="path44"
       style="fill:#1b1b1b;fill-opacity:1;fill-rule:nonzero;stroke:none"
       d="M 240,76 H 16 v 28 h 224 z" /><path
       id="path46"
       style="fill:#cccccc;fill-opacity:1;fill-rule:nonzero;stroke:none"
       d="M 104,80 H 36 v 12 h 68 z" /><path
       id="path48"
       style="fill:#262626;fill-opacity:1;fill-rule:nonzero;stroke:none"
       d="m 76,236 h -2 v 4 h 2 z" /><path
       id="path50"
       style="fill:#262626;fill-opacity:1;fill-rule:nonzero;stroke:none"
       d="m 80,236 h -2 v 4 h 2 z" /><path
       id="path52"
       style="fill:#262626;fill-opacity:1;fill-rule:nonzero;stroke:none"
       d="m 84,236 h -2 v 4 h 2 z" /><path
       id="path54"
       style="fill:#262626;fill-opacity:1;fill-rule:nonzero;stroke:none"
       d="m 88,236 h -2 v 4 h 2 z" /><path
       id="path56"
       style="fill:#262626;fill-opacity:1;fill-rule:nonzero;stroke:none"
       d="m 92,236 h -2 v 4 h 2 z" /><path
       id="path58"
       style="fill:#262626;fill-opacity:1;fill-rule:nonzero;stroke:none"
       d="m 96,236 h -2 v 4 h 2 z" /><path
       id="path60"
       style="fill:#262626;fill-opacity:1;fill-rule:nonzero;stroke:none"
       d="m 162,236 h -2 v 4 h 2 z" /><path
       id="path62"
       style="fill:#262626;fill-opacity:1;fill-rule:nonzero;stroke:none"
       d="m 166,236 h -2 v 4 h 2 z" /><path
       id="path64"
       style="fill:#262626;fill-opacity:1;fill-rule:nonzero;stroke:none"
       d="m 170,236 h -2 v 4 h 2 z" /><path
       id="path66"
       style="fill:#262626;fill-opacity:1;fill-rule:nonzero;stroke:none"
       d="m 174,236 h -2 v 4 h 2 z" /><path
       id="path68"
       style="fill:#262626;fill-opacity:1;fill-rule:nonzero;stroke:none"
       d="m 178,236 h -2 v 4 h 2 z" /><path
       id="path70"
       style="fill:#262626;fill-opacity:1;fill-rule:nonzero;stroke:none"
       d="m 182,236 h -2 v 4 h 2 z" /><path
       id="path72"
       style="fill:#262626;fill-opacity:1;fill-rule:nonzero;stroke:none"
       d="M 172,200 H 84 v 24 h 88 z" /><path
       id="path74"
       style="fill:#262626;fill-opacity:1;fill-rule:nonzero;stroke:none"
       d="M 172,176 H 84 v 8 h 88 z" /><path
       id="path76"
       style="fill:#262626;fill-opacity:1;fill-rule:nonzero;stroke:none"
       d="M 172,116 H 84 v 48 h 88 z" /><path
       id="path78"
       style="fill:#a6a6a6;fill-opacity:1;fill-rule:nonzero;stroke:none"
       d="M 172,200 H 84 v -12 h 88 z" /><path
       id="path80"
       style="fill:#cccccc;fill-opacity:1;fill-rule:nonzero;stroke:none"
       d="M 116,124 H 88 v 16 h 28 z" /><path
       id="path82"
       style="fill:#cccccc;fill-opacity:1;fill-rule:nonzero;stroke:none"
       d="m 168,124 h -28 v 16 h 28 z" /><path
       id="path84"
       style="fill:#b3b3b3;fill-opacity:1;fill-rule:nonzero;stroke:none"
       d="M 72,112 H 16 v 120 h 56 z" /><path
       id="path86"
       style="fill:#262626;fill-opacity:1;fill-rule:nonzero;stroke:none"
       d="m 36,208 h -8 v 8 h 8 z" /><path
       id="path88"
       style="fill:#262626;fill-opacity:1;fill-rule:nonzero;stroke:none"
       d="m 48,208 h -8 v 8 h 8 z" /><path
       id="path90"
       style="fill:#262626;fill-opacity:1;fill-rule:nonzero;stroke:none"
       d="m 60,208 h -8 v 8 h 8 z" /><path
       id="path92"
       style="fill:#262626;fill-opacity:1;fill-rule:nonzero;stroke:none"
       d="m 36,196 h -8 v 8 h 8 z" /><path
       id="path94"
       style="fill:#262626;fill-opacity:1;fill-rule:nonzero;stroke:none"
       d="m 48,196 h -8 v 8 h 8 z" /><path
       id="path96"
       style="fill:#262626;fill-opacity:1;fill-rule:nonzero;stroke:none"
       d="m 60,196 h -8 v 8 h 8 z" /><path
       id="path98"
       style="fill:#262626;fill-opacity:1;fill-rule:nonzero;stroke:none"
       d="m 36,184 h -8 v 8 h 8 z" /><path
       id="path100"
       style="fill:#262626;fill-opacity:1;fill-rule:nonzero;stroke:none"
       d="m 48,184 h -8 v 8 h 8 z" /><path
       id="path102"
       style="fill:#262626;fill-opacity:1;fill-rule:nonzero;stroke:none"
       d="m 60,184 h -8 v 8 h 8 z" /><path
       id="path104"
       style="fill:#262626;fill-opacity:1;fill-rule:nonzero;stroke:none"
       d="m 36,172 h -8 v 8 h 8 z" /><path
       id="path106"
       style="fill:#262626;fill-opacity:1;fill-rule:nonzero;stroke:none"
       d="m 48,172 h -8 v 8 h 8 z" /><path
       id="path108"
       style="fill:#262626;fill-opacity:1;fill-rule:nonzero;stroke:none"
       d="m 60,172 h -8 v 8 h 8 z" /><path
       id="path110"
       style="fill:#999999;fill-opacity:1;fill-rule:nonzero;stroke:none"
       d="M 72,162 H 16 v 2 h 56 z" /><g
       id="g112"><g
         clip-path="url(#clipPath118)"
         id="g114"><g
           transform="translate(42,158)"
           id="g120"><path
             id="path122"
             style="fill:#999999;fill-opacity:1;fill-rule:nonzero;stroke:none"
             d="m 0,0 c -11.028,0 -20,-8.972 -20,-20 0,-11.028 8.972,-20 20,-20 11.028,0 20,8.972 20,20 C 20,-8.972 11.028,0 0,0" /></g><g
           transform="translate(24,138)"
           id="g124"><path
             id="path126"
             style="fill:#cccccc;fill-opacity:1;fill-rule:nonzero;stroke:none"
             d="m 0,0 c 0,-9.941 8.059,-18 18,-18 9.941,0 18,8.059 18,18 C 36,9.941 27.941,18 18,18 8.059,18 0,9.941 0,0" /></g><path
           id="path128"
           style="fill:#b3b3b3;fill-opacity:1;fill-rule:nonzero;stroke:none"
           d="m 240,112 h -56 v 120 h 56 z" /><path
           id="path130"
           style="fill:#262626;fill-opacity:1;fill-rule:nonzero;stroke:none"
           d="m 204,208 h -8 v 8 h 8 z" /><path
           id="path132"
           style="fill:#262626;fill-opacity:1;fill-rule:nonzero;stroke:none"
           d="m 216,208 h -8 v 8 h 8 z" /><path
           id="path134"
           style="fill:#262626;fill-opacity:1;fill-rule:nonzero;stroke:none"
           d="m 228,208 h -8 v 8 h 8 z" /><path
           id="path136"
           style="fill:#262626;fill-opacity:1;fill-rule:nonzero;stroke:none"
           d="m 204,196 h -8 v 8 h 8 z" /><path
           id="path138"
           style="fill:#262626;fill-opacity:1;fill-rule:nonzero;stroke:none"
           d="m 216,196 h -8 v 8 h 8 z" /><path
           id="path140"
           style="fill:#262626;fill-opacity:1;fill-rule:nonzero;stroke:none"
           d="m 228,196 h -8 v 8 h 8 z" /><path
           id="path142"
           style="fill:#262626;fill-opacity:1;fill-rule:nonzero;stroke:none"
           d="m 204,184 h -8 v 8 h 8 z" /><path
           id="path144"
           style="fill:#262626;fill-opacity:1;fill-rule:nonzero;stroke:none"
           d="m 216,184 h -8 v 8 h 8 z" /><path
           id="path146"
           style="fill:#262626;fill-opacity:1;fill-rule:nonzero;stroke:none"
           d="m 228,184 h -8 v 8 h 8 z" /><path
           id="path148"
           style="fill:#262626;fill-opacity:1;fill-rule:nonzero;stroke:none"
           d="m 204,172 h -8 v 8 h 8 z" /><path
           id="path150"
           style="fill:#262626;fill-opacity:1;fill-rule:nonzero;stroke:none"
           d="m 216,172 h -8 v 8 h 8 z" /><path
           id="path152"
           style="fill:#262626;fill-opacity:1;fill-rule:nonzero;stroke:none"
           d="m 228,172 h -8 v 8 h 8 z" /><path
           id="path154"
           style="fill:#999999;fill-opacity:1;fill-rule:nonzero;stroke:none"
           d="m 240,162 h -56 v 2 h 56 z" /><g
           transform="translate(210,158)"
           id="g156"><path
             id="path158"
             style="fill:#999999;fill-opacity:1;fill-rule:nonzero;stroke:none"
             d="m 0,0 c -11.028,0 -20,-8.972 -20,-20 0,-11.028 8.972,-20 20,-20 11.028,0 20,8.972 20,20 C 20,-8.972 11.028,0 0,0" /></g><g
           transform="translate(192,138)"
           id="g160"><path
             id="path162"
             style="fill:#cccccc;fill-opacity:1;fill-rule:nonzero;stroke:none"
             d="m 0,0 c 0,-9.941 8.059,-18 18,-18 9.941,0 18,8.059 18,18 C 36,9.941 27.941,18 18,18 8.059,18 0,9.941 0,0" /></g></g></g></g></svg>