<?xml version="1.0" encoding="UTF-8" standalone="no"?>
<svg
   xmlns:dc="http://purl.org/dc/elements/1.1/"
   xmlns:cc="http://creativecommons.org/ns#"
   xmlns:rdf="http://www.w3.org/1999/02/22-rdf-syntax-ns#"
   xmlns:svg="http://www.w3.org/2000/svg"
   xmlns="http://www.w3.org/2000/svg"
   viewBox="0 0 319.99972 330.66613"
   height="330.66614"
   width="319.99973"
   xml:space="preserve"
   id="svg2"
   version="1.1"><metadata
     id="metadata8"><rdf:RDF><cc:Work
         rdf:about=""><dc:format>image/svg+xml</dc:format><dc:type
           rdf:resource="http://purl.org/dc/dcmitype/StillImage" /></cc:Work></rdf:RDF></metadata><defs
     id="defs6"><clipPath
       id="clipPath18"
       clipPathUnits="userSpaceOnUse"><path
         id="path16"
         d="M 0,256 H 256 V 0 H 0 Z" /></clipPath><clipPath
       id="clipPath26"
       clipPathUnits="userSpaceOnUse"><path
         id="path24"
         d="M 8,252 H 248 V 4 H 8 Z" /></clipPath><clipPath
       id="clipPath54"
       clipPathUnits="userSpaceOnUse"><path
         id="path52"
         d="M 0,256 H 256 V 0 H 0 Z" /></clipPath></defs><g
     transform="matrix(1.3333333,0,0,-1.3333333,-10.666933,335.99946)"
     id="g10"><g
       id="g12"><g
         clip-path="url(#clipPath18)"
         id="g14"><g
           id="g20"><g
             id="g22" /><g
             id="g34"><g
               style="opacity:0.5"
               id="g32"
               clip-path="url(#clipPath26)"><g
                 id="g30"
                 transform="translate(238.9102,232.5186)"><path
                   id="path28"
                   style="fill:#ffffff;fill-opacity:1;fill-rule:nonzero;stroke:none"
                   d="m 0,0 -2.91,0.728 v 6.753 c 0,6.617 -5.383,12 -12,12 h -20 -8 -8 -8 -8 -8 -8 -8 -8 -8 -8 -8 -8 -8 -8 -8 -8 -8 -8 -8 -20 c -6.617,0 -12,-5.383 -12,-12 V 0.728 L -221.82,0 c -5.352,-1.338 -9.09,-6.125 -9.09,-11.642 v -93.754 c 0,-5.516 3.738,-10.303 9.089,-11.641 l 2.911,-0.728 v -87.365 c 0,-5.891 4.217,-10.868 10.027,-11.837 l 13.973,-2.329 v -4.812 l 7.579,-0.4 76.421,-4.011 76.421,4.011 7.579,0.4 v 4.812 l 13.972,2.329 c 5.811,0.969 10.028,5.946 10.028,11.837 v 87.365 l 2.91,0.728 c 5.353,1.338 9.09,6.125 9.09,11.641 v 93.754 C 9.09,-6.125 5.353,-1.338 0,0" /></g></g></g></g></g></g><path
       id="path36"
       style="fill:#404040;fill-opacity:1;fill-rule:nonzero;stroke:none"
       d="M 208,24 H 48 v 112 h 160 z" /><g
       transform="translate(204,16)"
       id="g38"><path
         id="path40"
         style="fill:#595959;fill-opacity:1;fill-rule:nonzero;stroke:none"
         d="m 0,0 -76,-4 -76,4 V 56 H 0 Z" /></g><path
       id="path42"
       style="fill:#595959;fill-opacity:1;fill-rule:nonzero;stroke:none"
       d="M 208,76 H 48 v 56 h 160 z" /><g
       transform="translate(196,240)"
       id="g44"><path
         id="path46"
         style="fill:#4c4c4c;fill-opacity:1;fill-rule:nonzero;stroke:none"
         d="M 0,0 V 4 H -4 V 0 h -4 v 4 h -4 V 0 h -4 v 4 h -4 V 0 h -4 v 4 h -4 V 0 h -4 v 4 h -4 V 0 h -4 v 4 h -4 V 0 h -4 v 4 h -4 V 0 h -4 v 4 h -4 V 0 h -4 v 4 h -4 V 0 h -4 v 4 h -4 V 0 h -4 v 4 h -4 V 0 h -4 v 4 h -4 V 0 h -4 v 4 h -4 V 0 h -4 v 4 h -4 V 0 h -4 v 4 h -4 V 0 h -4 v 4 h -4 V 0 h -4 v 4 h -4 V 0 h -4 v 4 h -4 V 0 h -8 V -12 H 12 V 0 Z" /></g><g
       id="g48"><g
         clip-path="url(#clipPath54)"
         id="g50"><g
           transform="translate(32,120)"
           id="g56"><path
             id="path58"
             style="fill:#333333;fill-opacity:1;fill-rule:nonzero;stroke:none"
             d="M 0,0 -12.97,3.242 C -14.751,3.688 -16,5.288 -16,7.123 v 93.754 c 0,1.835 1.249,3.436 3.03,3.88 L 0,108 Z" /></g><g
           transform="translate(52,20)"
           id="g60"><path
             id="path62"
             style="fill:#404040;fill-opacity:1;fill-rule:nonzero;stroke:none"
             d="M 0,0 -20.658,3.443 C -22.586,3.765 -24,5.434 -24,7.389 V 220 c 0,2.209 1.791,4 4,4 H 0 Z" /></g><g
           transform="translate(224,120)"
           id="g64"><path
             id="path66"
             style="fill:#333333;fill-opacity:1;fill-rule:nonzero;stroke:none"
             d="M 0,0 12.97,3.242 C 14.751,3.688 16,5.288 16,7.123 v 93.754 c 0,1.835 -1.249,3.436 -3.03,3.88 L 0,108 Z" /></g><g
           transform="translate(204,20)"
           id="g68"><path
             id="path70"
             style="fill:#404040;fill-opacity:1;fill-rule:nonzero;stroke:none"
             d="M 0,0 20.657,3.443 C 22.586,3.765 24,5.434 24,7.389 V 220 c 0,2.209 -1.791,4 -4,4 H 0 Z" /></g><g
           transform="translate(128,232)"
           id="g72"><path
             id="path74"
             style="fill:#595959;fill-opacity:1;fill-rule:nonzero;stroke:none"
             d="m 0,0 c -60,0 -88,-4 -88,-4 v -96 H 88 V -4 C 88,-4 60,0 0,0" /></g><g
           transform="translate(46,96)"
           id="g76"><path
             id="path78"
             style="fill:#333333;fill-opacity:1;fill-rule:nonzero;stroke:none"
             d="M 0,0 V 0 C -1.104,0 -2,0.896 -2,2 V 6 C -2,7.104 -1.104,8 0,8 1.104,8 2,7.104 2,6 V 2 C 2,0.896 1.104,0 0,0" /></g><g
           transform="translate(52,184)"
           id="g80"><path
             id="path82"
             style="fill:#333333;fill-opacity:1;fill-rule:nonzero;stroke:none"
             d="m 0,0 c 0,0 32,8 76,8 44,0 76,-8 76,-8 V -4 H 0 Z" /></g><path
           id="path84"
           style="fill:#4c4c4c;fill-opacity:1;fill-rule:nonzero;stroke:none"
           d="M 204,156 H 52 v 28 h 152 z" /><g
           transform="translate(192,180)"
           id="g86"><path
             id="path88"
             style="fill:#404040;fill-opacity:1;fill-rule:nonzero;stroke:none"
             d="m 0,0 h -128 v -12 c 0,-4.418 3.582,-8 8,-8 H -8 c 4.418,0 8,3.582 8,8 z m -2,-2 v -10 c 0,-3.309 -2.691,-6 -6,-6 h -112 c -3.309,0 -6,2.691 -6,6 V -2 H -2" /></g><path
           id="path90"
           style="fill:#404040;fill-opacity:1;fill-rule:nonzero;stroke:none"
           d="m 78,164 h -2 v 12 h 2 z" /><path
           id="path92"
           style="fill:#404040;fill-opacity:1;fill-rule:nonzero;stroke:none"
           d="m 180,164 h -2 v 12 h 2 z" /><g
           transform="translate(124,168)"
           id="g94"><path
             id="path96"
             style="fill:#404040;fill-opacity:1;fill-rule:nonzero;stroke:none"
             d="M 0,0 4,-4 8,0 Z" /></g><path
           id="path98"
           style="fill:#404040;fill-opacity:1;fill-rule:nonzero;stroke:none"
           d="M 92,84 H 64 v 32 h 28 z" /><path
           id="path100"
           style="fill:#666666;fill-opacity:1;fill-rule:nonzero;stroke:none"
           d="m 192,84 h -28 v 28 h 28 z" /><g
           transform="translate(184,98)"
           id="g102"><path
             id="path104"
             style="fill:#595959;fill-opacity:1;fill-rule:nonzero;stroke:none"
             d="m 0,0 c 0,-3.313 -2.687,-6 -6,-6 -3.313,0 -6,2.687 -6,6 0,3.313 2.687,6 6,6 3.313,0 6,-2.687 6,-6" /></g><path
           id="path106"
           style="fill:#666666;fill-opacity:1;fill-rule:nonzero;stroke:none"
           d="m 152,84 h -48 v 28 h 48 z" /><g
           transform="translate(134,98)"
           id="g108"><path
             id="path110"
             style="fill:#595959;fill-opacity:1;fill-rule:nonzero;stroke:none"
             d="m 0,0 c 0,-3.313 -2.687,-6 -6,-6 -3.313,0 -6,2.687 -6,6 0,3.313 2.687,6 6,6 3.313,0 6,-2.687 6,-6" /></g><path
           id="path112"
           style="fill:#666666;fill-opacity:1;fill-rule:nonzero;stroke:none"
           d="M 92,92 H 64 v 24 h 28 z" /><path
           id="path114"
           style="fill:#595959;fill-opacity:1;fill-rule:nonzero;stroke:none"
           d="M 92,106 H 64 v 2 h 28 z" /><path
           id="path116"
           style="fill:#404040;fill-opacity:1;fill-rule:nonzero;stroke:none"
           d="M 92,104 H 64 v 2 h 28 z" /><g
           transform="translate(200,42)"
           id="g118"><path
             id="path120"
             style="fill:#4c4c4c;fill-opacity:1;fill-rule:nonzero;stroke:none"
             d="m 0,0 c 0,-9.941 -8.059,-18 -18,-18 -9.941,0 -18,8.059 -18,18 0,9.941 8.059,18 18,18 C -8.059,18 0,9.941 0,0" /></g><g
           transform="translate(40,132)"
           id="g122"><path
             id="path124"
             style="fill:#333333;fill-opacity:1;fill-rule:nonzero;stroke:none"
             d="m 0,0 c 0,0 28,4 88,4 60,0 88,-4 88,-4 z" /></g></g></g></g></svg>