<svg xmlns="http://www.w3.org/2000/svg" xml:space="preserve" width="320" height="330.667" viewBox="0 0 320 330.667"><defs><clipPath id="a" clipPathUnits="userSpaceOnUse"><path d="M0 256h256V0H0Z"/></clipPath><clipPath id="b" clipPathUnits="userSpaceOnUse"><path d="M8 252h240V4H8Z"/></clipPath><clipPath id="c" clipPathUnits="userSpaceOnUse"><path d="M0 256h256V0H0Z"/></clipPath></defs><g clip-path="url(#a)" transform="matrix(1.33333 0 0 -1.33333 -10.667 336)"><g clip-path="url(#b)" style="opacity:.5"><path d="M0 0h-88.944l-2.211-4.422L-92.944-8h-38.112l-1.789 3.578L-135.056 0H-232v-248H8V0z" style="fill:#fff;fill-opacity:1;fill-rule:nonzero;stroke:none" transform="translate(240 252)"/></g></g><path d="M240 12H16v68h224z" style="fill:#a6a6a6;fill-opacity:1;fill-rule:nonzero;stroke:none" transform="matrix(1.33333 0 0 -1.33333 -10.667 336)"/><path d="M182 68H74V24h108Zm-2-42H76v40h104z" style="fill:#999;fill-opacity:1;fill-rule:nonzero;stroke:none" transform="matrix(1.33333 0 0 -1.33333 -10.667 336)"/><path d="m0 0-4-8h-48l-4 8h-84v-144H84V0Z" style="fill:#ccc;fill-opacity:1;fill-rule:nonzero;stroke:none" transform="matrix(1.33333 0 0 -1.33333 197.333 10.667)"/><path d="M240 76H16v28h224z" style="fill:#1b1b1b;fill-opacity:1;fill-rule:nonzero;stroke:none" transform="matrix(1.33333 0 0 -1.33333 -10.667 336)"/><path d="M104 80H36v12h68z" style="fill:#ccc;fill-opacity:1;fill-rule:nonzero;stroke:none" transform="matrix(1.33333 0 0 -1.33333 -10.667 336)"/><path d="M76 236h-2v4h2zm4 0h-2v4h2zm4 0h-2v4h2zm4 0h-2v4h2zm4 0h-2v4h2zm4 0h-2v4h2zm66 0h-2v4h2zm4 0h-2v4h2zm4 0h-2v4h2zm4 0h-2v4h2zm4 0h-2v4h2zm4 0h-2v4h2zm-10-36H84v24h88zm0-24H84v8h88zm0-60H84v48h88z" style="fill:#262626;fill-opacity:1;fill-rule:nonzero;stroke:none" transform="matrix(1.33333 0 0 -1.33333 -10.667 336)"/><path d="M172 200H84v-12h88z" style="fill:#a6a6a6;fill-opacity:1;fill-rule:nonzero;stroke:none" transform="matrix(1.33333 0 0 -1.33333 -10.667 336)"/><path d="M116 124H88v16h28zm52 0h-28v16h28z" style="fill:#ccc;fill-opacity:1;fill-rule:nonzero;stroke:none" transform="matrix(1.33333 0 0 -1.33333 -10.667 336)"/><path d="M72 112H16v120h56z" style="fill:#b3b3b3;fill-opacity:1;fill-rule:nonzero;stroke:none" transform="matrix(1.33333 0 0 -1.33333 -10.667 336)"/><path d="M36 208h-8v8h8zm12 0h-8v8h8zm12 0h-8v8h8zm-24-12h-8v8h8zm12 0h-8v8h8zm12 0h-8v8h8zm-24-12h-8v8h8zm12 0h-8v8h8zm12 0h-8v8h8zm-24-12h-8v8h8zm12 0h-8v8h8zm12 0h-8v8h8z" style="fill:#262626;fill-opacity:1;fill-rule:nonzero;stroke:none" transform="matrix(1.33333 0 0 -1.33333 -10.667 336)"/><path d="M72 162H16v2h56z" style="fill:#999;fill-opacity:1;fill-rule:nonzero;stroke:none" transform="matrix(1.33333 0 0 -1.33333 -10.667 336)"/><g clip-path="url(#c)" transform="matrix(1.33333 0 0 -1.33333 -10.667 336)"><path d="M0 0c-11.028 0-20-8.972-20-20s8.972-20 20-20 20 8.972 20 20S11.028 0 0 0" style="fill:#999;fill-opacity:1;fill-rule:nonzero;stroke:none" transform="translate(42 158)"/><path d="M0 0c0-9.941 8.059-18 18-18S36-9.941 36 0s-8.059 18-18 18S0 9.941 0 0" style="fill:#ccc;fill-opacity:1;fill-rule:nonzero;stroke:none" transform="translate(24 138)"/><path d="M240 112h-56v120h56z" style="fill:#b3b3b3;fill-opacity:1;fill-rule:nonzero;stroke:none"/><path d="M204 208h-8v8h8zm12 0h-8v8h8zm12 0h-8v8h8zm-24-12h-8v8h8zm12 0h-8v8h8zm12 0h-8v8h8zm-24-12h-8v8h8zm12 0h-8v8h8zm12 0h-8v8h8zm-24-12h-8v8h8zm12 0h-8v8h8zm12 0h-8v8h8z" style="fill:#262626;fill-opacity:1;fill-rule:nonzero;stroke:none"/><path d="M240 162h-56v2h56z" style="fill:#999;fill-opacity:1;fill-rule:nonzero;stroke:none"/><path d="M0 0c-11.028 0-20-8.972-20-20s8.972-20 20-20 20 8.972 20 20S11.028 0 0 0" style="fill:#999;fill-opacity:1;fill-rule:nonzero;stroke:none" transform="translate(210 158)"/><path d="M0 0c0-9.941 8.059-18 18-18S36-9.941 36 0s-8.059 18-18 18S0 9.941 0 0" style="fill:#ccc;fill-opacity:1;fill-rule:nonzero;stroke:none" transform="translate(192 138)"/></g></svg>