<svg xmlns="http://www.w3.org/2000/svg" xml:space="preserve" width="320" height="330.666" viewBox="0 0 320 330.666"><defs><clipPath id="a" clipPathUnits="userSpaceOnUse"><path d="M0 256h256V0H0Z"/></clipPath><clipPath id="b" clipPathUnits="userSpaceOnUse"><path d="M8 252h240V4H8Z"/></clipPath><clipPath id="c" clipPathUnits="userSpaceOnUse"><path d="M0 256h256V0H0Z"/></clipPath></defs><g clip-path="url(#a)" transform="matrix(1.33333 0 0 -1.33333 -10.667 336)"><g clip-path="url(#b)" style="opacity:.5"><path d="m0 0-2.91.728v6.753c0 6.617-5.383 12-12 12h-192c-6.617 0-12-5.383-12-12V.728L-221.82 0a11.98 11.98 0 0 1-9.09-11.642v-93.754a11.98 11.98 0 0 1 9.089-11.641l2.911-.728v-87.365a11.96 11.96 0 0 1 10.027-11.837l13.973-2.329v-4.812l7.579-.4 76.421-4.011 76.421 4.011 7.579.4v4.812l13.972 2.329A11.96 11.96 0 0 1-2.91-205.13v87.365l2.91.728a11.98 11.98 0 0 1 9.09 11.641v93.754A11.98 11.98 0 0 1 0 0" style="fill:#fff;fill-opacity:1;fill-rule:nonzero;stroke:none" transform="translate(238.91 232.519)"/></g></g><path d="M208 24H48v112h160z" style="fill:#404040;fill-opacity:1;fill-rule:nonzero;stroke:none" transform="matrix(1.33333 0 0 -1.33333 -10.667 336)"/><path d="m0 0-76-4-76 4v56H0Z" style="fill:#595959;fill-opacity:1;fill-rule:nonzero;stroke:none" transform="matrix(1.33333 0 0 -1.33333 261.333 314.666)"/><path d="M208 76H48v56h160z" style="fill:#595959;fill-opacity:1;fill-rule:nonzero;stroke:none" transform="matrix(1.33333 0 0 -1.33333 -10.667 336)"/><path d="M0 0v4h-4V0h-4v4h-4V0h-4v4h-4V0h-4v4h-4V0h-4v4h-4V0h-4v4h-4V0h-4v4h-4V0h-4v4h-4V0h-4v4h-4V0h-4v4h-4V0h-4v4h-4V0h-4v4h-4V0h-4v4h-4V0h-4v4h-4V0h-4v4h-4V0h-4v4h-4V0h-4v4h-4V0h-4v4h-4V0h-8v-12H12V0Z" style="fill:#4c4c4c;fill-opacity:1;fill-rule:nonzero;stroke:none" transform="matrix(1.33333 0 0 -1.33333 250.666 16)"/><g clip-path="url(#c)" transform="matrix(1.33333 0 0 -1.33333 -10.667 336)"><path d="m0 0-12.97 3.242A4 4 0 0 0-16 7.123v93.754a4 4 0 0 0 3.03 3.88L0 108Z" style="fill:#333;fill-opacity:1;fill-rule:nonzero;stroke:none" transform="translate(32 120)"/><path d="m0 0-20.658 3.443A4 4 0 0 0-24 7.389V220a4 4 0 0 0 4 4H0Z" style="fill:#404040;fill-opacity:1;fill-rule:nonzero;stroke:none" transform="translate(52 20)"/><path d="m0 0 12.97 3.242A4 4 0 0 1 16 7.123v93.754a4 4 0 0 1-3.03 3.88L0 108Z" style="fill:#333;fill-opacity:1;fill-rule:nonzero;stroke:none" transform="translate(224 120)"/><path d="m0 0 20.657 3.443A4 4 0 0 1 24 7.389V220a4 4 0 0 1-4 4H0Z" style="fill:#404040;fill-opacity:1;fill-rule:nonzero;stroke:none" transform="translate(204 20)"/><path d="M0 0c-60 0-88-4-88-4v-96H88v96S60 0 0 0" style="fill:#595959;fill-opacity:1;fill-rule:nonzero;stroke:none" transform="translate(128 232)"/><path d="M0 0a2 2 0 0 0-2 2v4a2 2 0 0 0 4 0V2a2 2 0 0 0-2-2" style="fill:#333;fill-opacity:1;fill-rule:nonzero;stroke:none" transform="translate(46 96)"/><path d="M0 0s32 8 76 8 76-8 76-8v-4H0Z" style="fill:#333;fill-opacity:1;fill-rule:nonzero;stroke:none" transform="translate(52 184)"/><path d="M204 156H52v28h152z" style="fill:#4c4c4c;fill-opacity:1;fill-rule:nonzero;stroke:none"/><path d="M0 0h-128v-12a8 8 0 0 1 8-8H-8a8 8 0 0 1 8 8zm-2-2v-10c0-3.309-2.691-6-6-6h-112c-3.309 0-6 2.691-6 6v10z" style="fill:#404040;fill-opacity:1;fill-rule:nonzero;stroke:none" transform="translate(192 180)"/><path d="M78 164h-2v12h2zm102 0h-2v12h2z" style="fill:#404040;fill-opacity:1;fill-rule:nonzero;stroke:none"/><path d="m0 0 4-4 4 4Z" style="fill:#404040;fill-opacity:1;fill-rule:nonzero;stroke:none" transform="translate(124 168)"/><path d="M92 84H64v32h28z" style="fill:#404040;fill-opacity:1;fill-rule:nonzero;stroke:none"/><path d="M192 84h-28v28h28z" style="fill:#666;fill-opacity:1;fill-rule:nonzero;stroke:none"/><path d="M0 0a6 6 0 0 0-12 0A6 6 0 0 0 0 0" style="fill:#595959;fill-opacity:1;fill-rule:nonzero;stroke:none" transform="translate(184 98)"/><path d="M152 84h-48v28h48z" style="fill:#666;fill-opacity:1;fill-rule:nonzero;stroke:none"/><path d="M0 0a6 6 0 0 0-12 0A6 6 0 0 0 0 0" style="fill:#595959;fill-opacity:1;fill-rule:nonzero;stroke:none" transform="translate(134 98)"/><path d="M92 92H64v24h28z" style="fill:#666;fill-opacity:1;fill-rule:nonzero;stroke:none"/><path d="M92 106H64v2h28z" style="fill:#595959;fill-opacity:1;fill-rule:nonzero;stroke:none"/><path d="M92 104H64v2h28z" style="fill:#404040;fill-opacity:1;fill-rule:nonzero;stroke:none"/><path d="M0 0c0-9.941-8.059-18-18-18S-36-9.941-36 0s8.059 18 18 18S0 9.941 0 0" style="fill:#4c4c4c;fill-opacity:1;fill-rule:nonzero;stroke:none" transform="translate(200 42)"/><path d="M0 0s28 4 88 4 88-4 88-4z" style="fill:#333;fill-opacity:1;fill-rule:nonzero;stroke:none" transform="translate(40 132)"/></g></svg>