<svg xmlns="http://www.w3.org/2000/svg" xml:space="preserve" width="330.667" height="197.333" viewBox="0 0 330.667 197.333"><defs><clipPath id="a" clipPathUnits="userSpaceOnUse"><path d="M0 256h256V0H0Z"/></clipPath><clipPath id="b" clipPathUnits="userSpaceOnUse"><path d="M4 204h248V56H4Z"/></clipPath></defs><g clip-path="url(#a)" transform="matrix(1.33333 0 0 -1.33333 -5.333 272)"><g clip-path="url(#b)" style="opacity:.5"><path d="M0 0h-126.761c-8.502 0-17.571-.408-29.407-1.321-8.608-.665-18.582-2.697-27.292-12.726-3.908-4.5-6.408-12.415-7.866-24.907-1.111-9.512-1.547-21.431-1.263-34.468.483-22.124 3.146-48.821 8.007-58.592a62 62 0 0 1 1.723-3.23c1.737-3.03 4.586-5.622 8.71-7.922 5.671-3.162 12.305-4.834 19.184-4.834h33.704c3.309 0 6.657.167 9.95.496l27.337 2.734a84 84 0 0 0 14.801.169l40.363-3.104a100 100 0 0 1 7.67-.295h36.008l.497.063 6.865.863 6.029.757.512.064.5.13c16.676 4.331 25.193 12.394 26.038 24.651l.018.275v94.486l-.003.109C54.78-6.635 39.645-4.092 29.629-2.41 20.111-.811 10.143 0 0 0" style="fill:#fff;fill-opacity:1;fill-rule:nonzero;stroke:none" transform="translate(196.673 204)"/></g><path d="M0 0c-9.351 1.571-18.822 2.299-28.304 2.299h-126.76c-9.612 0-19.208-.557-28.792-1.298-7.688-.593-15.127-2.232-21.867-9.994-11.631-13.393-7.492-94.101 0-109.158q.73-1.47 1.501-2.816c1.114-1.943 3.294-3.59 5.665-4.912 4.658-2.598 9.956-3.822 15.288-3.822h33.704c3.057 0 6.112.153 9.154.457l27.337 2.734c5.388.539 10.812.6 16.211.185l40.364-3.105a92 92 0 0 1 7.056-.271h35.507l12.893 1.62c15.186 3.945 19.559 10.081 20.066 17.458v94.102C18.699-4.63 12.541-2.106 0 0" style="fill:#c7c7c7;fill-opacity:1;fill-rule:nonzero;stroke:none" transform="translate(224.977 193.7)"/><path d="M0 0v10.05c0 3.777-1.778 7.334-4.8 9.599L-12 25.05a10 10 0 0 0-4 8v23c0 7.665-1.799 13.53-4.412 18.007-2.442 4.184-6.785 6.891-11.613 7.304-37.801 3.233-138.447 10.689-138.447 10.689-9.568 0-19.153-.3-28.638-1.446-6.275-.759-12.327-2.667-17.887-8.518-11.23-11.817-7.233-83.03 0-96.315a47 47 0 0 1 1.45-2.486c3.499-5.579 10.122-8.874 17.133-8.874 0 0 63.968-1.829 93.826-2.297 31.189.692 74.67 3.356 94.656 12.42C-3.87-12.717 0-6.655 0 0" style="fill:#d9d9d9;fill-opacity:1;fill-rule:nonzero;stroke:none" transform="translate(240 99.95)"/><path d="M0 0c-.82 2.66-3.172 4.694-6.081 5.327-16.518 3.596-70.705 8.263-114.824 6.035-2.808-.142-4.947-2.456-5.903-4.913-4.764-12.239-16.94-51.286-.271-97.397 1.113-3.079 4.301-5.111 7.808-5.111h.991a2 2 0 0 1 2 2v4a2 2 0 0 0 2 2h30a2 2 0 0 0 2-2 2 2 0 0 1 4 0 2 2 0 0 0 2 2h14a2 2 0 0 0 2-2v-3.847c0-1.162.983-2.08 2.142-1.995 8.184.601 37.74 2.79 52.413 4.064 2.875.25 5.398 1.849 6.631 4.266C5.759-78.064 15.525-50.348 0 0" style="fill:#e6e6e6;fill-opacity:1;fill-rule:nonzero;stroke:none" transform="translate(200.28 172.059)"/><path d="M0 0h6.857c1.42 0 2.572-.896 2.572-2S8.277-4 6.857-4H0c-1.42 0-2.571.896-2.571 2S-1.42 0 0 0" style="fill:#fff;fill-opacity:1;fill-rule:nonzero;stroke:none" transform="translate(106.571 80)"/><path d="M0 0h6.857c1.42 0 2.572-.896 2.572-2S8.277-4 6.857-4H0c-1.42 0-2.571.896-2.571 2S-1.42 0 0 0" style="fill:red;fill-opacity:1;fill-rule:nonzero;stroke:none" transform="translate(126.571 80)"/><path d="M0 0h6.857c1.42 0 2.572-.896 2.572-2S8.277-4 6.857-4H0c-1.42 0-2.571.896-2.571 2S-1.42 0 0 0" style="fill:#fff;fill-opacity:1;fill-rule:nonzero;stroke:none" transform="translate(90.571 80)"/><path d="M0 0c-1.873 2.578-5.452 3.853-9.595 3.437-2.718-.283-5.996-1.422-7.051-3.778a1.91 1.91 0 0 1 .304-2.037l6.68-7.636a1.906 1.906 0 0 1 2.874 0l6.68 7.636C.477-1.709.522-.722 0 0" style="fill:#e6e6e6;fill-opacity:1;fill-rule:nonzero;stroke:none" transform="translate(50.225 176.485)"/><path d="m0 0-6.68 7.635c-.727.832-2.147.832-2.874 0L-16.234 0a1.91 1.91 0 0 1-.304-2.038c1.055-2.356 4.333-3.495 7.051-3.778q.79-.08 1.547-.08c3.47 0 6.411 1.266 8.048 3.518A1.91 1.91 0 0 1 0 0" style="fill:#e6e6e6;fill-opacity:1;fill-rule:nonzero;stroke:none" transform="translate(50.117 149.896)"/><path d="m0 0-7.634 6.681a1.91 1.91 0 0 1-2.378.108c-2.58-1.875-3.866-5.462-3.437-9.596.283-2.718 1.422-5.997 3.778-7.052a1.91 1.91 0 0 1 2.037.304L0-2.875A1.91 1.91 0 0 1 0 0" style="fill:#e6e6e6;fill-opacity:1;fill-rule:nonzero;stroke:none" transform="translate(37.53 163.439)"/><path d="M0 0c-.284 2.718-1.422 5.997-3.778 7.052a1.89 1.89 0 0 1-2.037-.304L-13.45.067a1.91 1.91 0 0 1 0-2.875l7.635-6.68a1.905 1.905 0 0 1 2.378-.108C-.857-7.721.429-4.135 0 0" style="fill:#e6e6e6;fill-opacity:1;fill-rule:nonzero;stroke:none" transform="translate(59.919 163.372)"/><path d="M0 0c-1.875 2.577-5.465 3.834-9.591 3.438-2.72-.283-6-1.424-7.055-3.781a1.9 1.9 0 0 1 .304-2.036l6.68-7.637a1.912 1.912 0 0 1 2.874 0l6.68 7.637C.478-1.708.522-.724 0 0" style="fill:#e6e6e6;fill-opacity:1;fill-rule:nonzero;stroke:none" transform="translate(50.225 112.49)"/><path d="m0 0-6.68 7.637c-.727.828-2.147.828-2.874 0L-16.234 0a1.9 1.9 0 0 1-.304-2.036c1.055-2.357 4.335-3.498 7.055-3.781q.787-.078 1.545-.079c3.468 0 6.41 1.264 8.046 3.517A1.914 1.914 0 0 1 0 0" style="fill:#e6e6e6;fill-opacity:1;fill-rule:nonzero;stroke:none" transform="translate(50.117 85.895)"/><path d="m0 0-7.634 6.682a1.905 1.905 0 0 1-2.379.108c-2.579-1.872-3.863-5.459-3.437-9.591.282-2.719 1.423-6 3.779-7.058a1.9 1.9 0 0 1 2.037.305L0-2.872c.416.362.652.884.652 1.436S.416-.362 0 0" style="fill:#e6e6e6;fill-opacity:1;fill-rule:nonzero;stroke:none" transform="translate(37.53 99.44)"/><path d="M0 0c-.282 2.719-1.422 6-3.778 7.059a1.9 1.9 0 0 1-2.037-.306L-13.45.071a1.904 1.904 0 0 1 0-2.872l7.635-6.681a1.9 1.9 0 0 1 2.378-.109C-.857-7.719.427-4.132 0 0" style="fill:#e6e6e6;fill-opacity:1;fill-rule:nonzero;stroke:none" transform="translate(59.92 99.368)"/><path d="m0 0-6.68 7.637c-.727.828-2.147.828-2.875 0L-16.234 0a1.9 1.9 0 0 1-.304-2.036c1.055-2.357 4.335-3.498 7.055-3.781q.786-.078 1.545-.079c3.468 0 6.41 1.264 8.046 3.517A1.914 1.914 0 0 1 0 0" style="fill:#e6e6e6;fill-opacity:1;fill-rule:nonzero;stroke:none" transform="translate(226.117 89.895)"/><path d="M0 0c-.281 2.719-1.422 6-3.777 7.059a1.9 1.9 0 0 1-2.038-.306L-13.449.071a1.9 1.9 0 0 1-.653-1.435c0-.553.237-1.074.653-1.437l7.634-6.681a1.904 1.904 0 0 1 2.378-.109C-.857-7.719.427-4.132 0 0" style="fill:#e6e6e6;fill-opacity:1;fill-rule:nonzero;stroke:none" transform="translate(235.919 103.368)"/><path d="M80 164h108V96H80Z" style="fill:#8c8c8c;fill-opacity:1;fill-rule:nonzero;stroke:none"/><path d="M0 0c.082-.657.139-1.321.139-2h4v2H2.488Z" style="fill:gray;fill-opacity:1;fill-rule:nonzero;stroke:none" transform="translate(239.861 166)"/><path d="M0 0h6.158v2H.984A16 16 0 0 0 0 0" style="fill:gray;fill-opacity:1;fill-rule:nonzero;stroke:none" transform="translate(237.842 156)"/><path d="M0 0a16 16 0 0 0-.386-2h4.525v2H2.047Z" style="fill:gray;fill-opacity:1;fill-rule:nonzero;stroke:none" transform="translate(239.861 162)"/><path d="M0 0c.262-.646.473-1.315.649-2h4.525v2h-1.99z" style="fill:gray;fill-opacity:1;fill-rule:nonzero;stroke:none" transform="translate(238.826 170)"/><path d="M0 0h-5.396c.504-.628.957-1.299 1.363-2h6.158v2Z" style="fill:gray;fill-opacity:1;fill-rule:nonzero;stroke:none" transform="translate(241.875 174)"/></g></svg>