<?xml version="1.0" encoding="UTF-8" standalone="no"?>
<svg
   xmlns:dc="http://purl.org/dc/elements/1.1/"
   xmlns:cc="http://creativecommons.org/ns#"
   xmlns:rdf="http://www.w3.org/1999/02/22-rdf-syntax-ns#"
   xmlns:svg="http://www.w3.org/2000/svg"
   xmlns="http://www.w3.org/2000/svg"
   viewBox="0 0 330.66702 197.33333"
   height="197.33333"
   width="330.66702"
   xml:space="preserve"
   id="svg2"
   version="1.1"><metadata
     id="metadata8"><rdf:RDF><cc:Work
         rdf:about=""><dc:format>image/svg+xml</dc:format><dc:type
           rdf:resource="http://purl.org/dc/dcmitype/StillImage" /></cc:Work></rdf:RDF></metadata><defs
     id="defs6"><clipPath
       id="clipPath18"
       clipPathUnits="userSpaceOnUse"><path
         id="path16"
         d="M 0,256 H 256 V 0 H 0 Z" /></clipPath><clipPath
       id="clipPath26"
       clipPathUnits="userSpaceOnUse"><path
         id="path24"
         d="M 3.99962,204 H 252 V 56 H 3.99962 Z" /></clipPath></defs><g
     transform="matrix(1.3333333,0,0,-1.3333333,-5.3328265,271.99999)"
     id="g10"><g
       id="g12"><g
         clip-path="url(#clipPath18)"
         id="g14"><g
           id="g20"><g
             id="g22" /><g
             id="g34"><g
               style="opacity:0.5"
               id="g32"
               clip-path="url(#clipPath26)"><g
                 id="g30"
                 transform="translate(196.6729,204)"><path
                   id="path28"
                   style="fill:#ffffff;fill-opacity:1;fill-rule:nonzero;stroke:none"
                   d="m 0,0 h -126.761 c -8.502,0 -17.571,-0.408 -29.407,-1.321 -8.608,-0.665 -18.582,-2.697 -27.292,-12.726 -3.908,-4.5 -6.408,-12.415 -7.866,-24.907 -1.111,-9.512 -1.547,-21.431 -1.263,-34.468 0.483,-22.124 3.146,-48.821 8.007,-58.592 0.56,-1.126 1.14,-2.213 1.723,-3.23 1.737,-3.03 4.586,-5.622 8.71,-7.922 5.671,-3.162 12.305,-4.834 19.184,-4.834 h 33.704 c 3.309,0 6.657,0.167 9.95,0.496 l 27.337,2.734 c 2.766,0.277 5.578,0.416 8.358,0.416 2.141,0 4.309,-0.083 6.443,-0.247 l 40.363,-3.104 c 2.541,-0.196 5.122,-0.295 7.67,-0.295 h 35.508 0.5 l 0.497,0.063 6.865,0.863 6.029,0.757 0.512,0.064 0.5,0.13 c 16.676,4.331 25.193,12.394 26.038,24.651 l 0.018,0.275 v 0.275 94.102 0.109 l -0.003,0.109 C 54.78,-6.635 39.645,-4.092 29.629,-2.41 20.111,-0.811 10.143,0 0,0" /></g></g></g></g><g
           transform="translate(224.9766,193.7007)"
           id="g36"><path
             id="path38"
             style="fill:#c7c7c7;fill-opacity:1;fill-rule:nonzero;stroke:none"
             d="m 0,0 c -9.351,1.571 -18.822,2.299 -28.304,2.299 h -126.76 c -9.612,0 -19.208,-0.557 -28.792,-1.298 -7.688,-0.593 -15.127,-2.232 -21.867,-9.994 -11.631,-13.393 -7.492,-94.101 0,-109.158 0.487,-0.979 0.987,-1.919 1.501,-2.816 1.114,-1.943 3.294,-3.59 5.665,-4.912 4.658,-2.598 9.956,-3.822 15.288,-3.822 h 33.704 c 3.057,0 6.112,0.153 9.154,0.457 l 27.337,2.734 c 5.388,0.539 10.812,0.6 16.211,0.185 l 40.364,-3.105 c 2.348,-0.18 4.701,-0.271 7.056,-0.271 h 35.507 c 4.312,0.542 8.581,1.078 12.893,1.62 15.186,3.945 19.559,10.081 20.066,17.458 v 94.102 C 18.699,-4.63 12.541,-2.106 0,0" /></g><g
           transform="translate(240,99.9502)"
           id="g40"><path
             id="path42"
             style="fill:#d9d9d9;fill-opacity:1;fill-rule:nonzero;stroke:none"
             d="m 0,0 v 10.05 c 0,3.777 -1.778,7.334 -4.8,9.599 L -12,25.05 c -2.518,1.888 -4,4.852 -4,8 v 23 c 0,7.665 -1.799,13.53 -4.412,18.007 -2.442,4.184 -6.785,6.891 -11.613,7.304 -37.801,3.233 -138.447,10.689 -138.447,10.689 -9.568,0 -19.153,-0.3 -28.638,-1.446 -6.275,-0.759 -12.327,-2.667 -17.887,-8.518 -11.23,-11.817 -7.233,-83.03 0,-96.315 0.471,-0.865 0.954,-1.694 1.45,-2.486 3.499,-5.579 10.122,-8.874 17.133,-8.874 0,0 63.968,-1.829 93.826,-2.297 31.189,0.692 74.67,3.356 94.656,12.42 C -3.87,-12.717 0,-6.655 0,0" /></g><g
           transform="translate(200.2803,172.0586)"
           id="g44"><path
             id="path46"
             style="fill:#e6e6e6;fill-opacity:1;fill-rule:nonzero;stroke:none"
             d="m 0,0 c -0.82,2.66 -3.172,4.694 -6.081,5.327 -16.518,3.596 -70.705,8.263 -114.824,6.035 -2.808,-0.142 -4.947,-2.456 -5.903,-4.913 -4.764,-12.239 -16.94,-51.286 -0.271,-97.397 1.113,-3.079 4.301,-5.111 7.808,-5.111 h 0.991 c 1.104,0 2,0.896 2,2 v 4 c 0,1.105 0.895,2 2,2 h 30 c 1.104,0 2,-0.895 2,-2 0,-1.104 0.895,-2 2,-2 1.104,0 2,0.896 2,2 0,1.105 0.895,2 2,2 h 14 c 1.104,0 2,-0.895 2,-2 v -3.847 c 0,-1.162 0.983,-2.08 2.142,-1.995 8.184,0.601 37.74,2.79 52.413,4.064 2.875,0.25 5.398,1.849 6.631,4.266 C 5.759,-78.064 15.525,-50.348 0,0" /></g><g
           transform="translate(106.5713,80)"
           id="g48"><path
             id="path50"
             style="fill:#ffffff;fill-opacity:1;fill-rule:nonzero;stroke:none"
             d="m 0,0 h 6.857 c 1.42,0 2.572,-0.896 2.572,-2 0,-1.104 -1.152,-2 -2.572,-2 H 0 c -1.42,0 -2.571,0.896 -2.571,2 0,1.104 1.151,2 2.571,2" /></g><g
           transform="translate(126.5713,80)"
           id="g52"><path
             id="path54"
             style="fill:#ff0000;fill-opacity:1;fill-rule:nonzero;stroke:none"
             d="m 0,0 h 6.857 c 1.42,0 2.572,-0.896 2.572,-2 0,-1.104 -1.152,-2 -2.572,-2 H 0 c -1.42,0 -2.571,0.896 -2.571,2 0,1.104 1.151,2 2.571,2" /></g><g
           transform="translate(90.5713,80)"
           id="g56"><path
             id="path58"
             style="fill:#ffffff;fill-opacity:1;fill-rule:nonzero;stroke:none"
             d="m 0,0 h 6.857 c 1.42,0 2.572,-0.896 2.572,-2 0,-1.104 -1.152,-2 -2.572,-2 H 0 c -1.42,0 -2.571,0.896 -2.571,2 0,1.104 1.151,2 2.571,2" /></g><g
           transform="translate(50.2251,176.4854)"
           id="g60"><path
             id="path62"
             style="fill:#e6e6e6;fill-opacity:1;fill-rule:nonzero;stroke:none"
             d="m 0,0 c -1.873,2.578 -5.452,3.853 -9.595,3.437 -2.718,-0.283 -5.996,-1.422 -7.051,-3.778 -0.306,-0.68 -0.186,-1.476 0.304,-2.037 l 6.68,-7.636 c 0.363,-0.416 0.887,-0.653 1.437,-0.653 0.55,0 1.074,0.237 1.437,0.653 l 6.68,7.636 C 0.477,-1.709 0.522,-0.722 0,0" /></g><g
           transform="translate(50.1172,149.896)"
           id="g64"><path
             id="path66"
             style="fill:#e6e6e6;fill-opacity:1;fill-rule:nonzero;stroke:none"
             d="m 0,0 -6.68,7.635 c -0.727,0.832 -2.147,0.832 -2.874,0 L -16.234,0 c -0.49,-0.561 -0.61,-1.357 -0.304,-2.038 1.055,-2.356 4.333,-3.495 7.051,-3.778 0.526,-0.054 1.042,-0.08 1.547,-0.08 3.47,0 6.411,1.266 8.048,3.518 C 0.63,-1.657 0.585,-0.669 0,0" /></g><g
           transform="translate(37.5303,163.4385)"
           id="g68"><path
             id="path70"
             style="fill:#e6e6e6;fill-opacity:1;fill-rule:nonzero;stroke:none"
             d="m 0,0 -7.634,6.681 c -0.673,0.589 -1.658,0.626 -2.378,0.108 -2.58,-1.875 -3.866,-5.462 -3.437,-9.596 0.283,-2.718 1.422,-5.997 3.778,-7.052 0.252,-0.114 0.516,-0.168 0.781,-0.168 0.453,0 0.902,0.162 1.256,0.472 L 0,-2.875 c 0.416,0.364 0.652,0.888 0.652,1.438 C 0.652,-0.887 0.416,-0.363 0,0" /></g><g
           transform="translate(59.9189,163.3716)"
           id="g72"><path
             id="path74"
             style="fill:#e6e6e6;fill-opacity:1;fill-rule:nonzero;stroke:none"
             d="M 0,0 C -0.284,2.718 -1.422,5.997 -3.778,7.052 -4.46,7.363 -5.256,7.24 -5.815,6.748 L -13.45,0.067 c -0.415,-0.363 -0.652,-0.887 -0.652,-1.437 0,-0.55 0.237,-1.074 0.652,-1.438 l 7.635,-6.68 c 0.357,-0.313 0.807,-0.472 1.256,-0.472 0.393,0 0.787,0.121 1.122,0.364 C -0.857,-7.721 0.429,-4.135 0,0" /></g><g
           transform="translate(50.2251,112.4902)"
           id="g76"><path
             id="path78"
             style="fill:#e6e6e6;fill-opacity:1;fill-rule:nonzero;stroke:none"
             d="m 0,0 c -1.875,2.577 -5.465,3.834 -9.591,3.438 -2.72,-0.283 -6,-1.424 -7.055,-3.781 -0.306,-0.678 -0.187,-1.476 0.304,-2.036 l 6.68,-7.637 c 0.363,-0.414 0.887,-0.652 1.437,-0.652 0.55,0 1.074,0.238 1.437,0.652 l 6.68,7.637 C 0.478,-1.708 0.522,-0.724 0,0" /></g><g
           transform="translate(50.1172,85.8955)"
           id="g80"><path
             id="path82"
             style="fill:#e6e6e6;fill-opacity:1;fill-rule:nonzero;stroke:none"
             d="m 0,0 -6.68,7.637 c -0.727,0.828 -2.147,0.828 -2.874,0 L -16.234,0 c -0.491,-0.56 -0.61,-1.357 -0.304,-2.036 1.055,-2.357 4.335,-3.498 7.055,-3.781 0.524,-0.052 1.04,-0.079 1.545,-0.079 3.468,0 6.41,1.264 8.046,3.517 C 0.63,-1.655 0.585,-0.671 0,0" /></g><g
           transform="translate(37.5303,99.4395)"
           id="g84"><path
             id="path86"
             style="fill:#e6e6e6;fill-opacity:1;fill-rule:nonzero;stroke:none"
             d="m 0,0 -7.634,6.682 c -0.673,0.589 -1.659,0.633 -2.379,0.108 -2.579,-1.872 -3.863,-5.459 -3.437,-9.591 0.282,-2.719 1.423,-6 3.779,-7.058 0.249,-0.113 0.516,-0.168 0.78,-0.168 0.453,0 0.903,0.16 1.257,0.473 L 0,-2.872 C 0.416,-2.51 0.652,-1.988 0.652,-1.436 0.652,-0.884 0.416,-0.362 0,0" /></g><g
           transform="translate(59.9194,99.3682)"
           id="g88"><path
             id="path90"
             style="fill:#e6e6e6;fill-opacity:1;fill-rule:nonzero;stroke:none"
             d="M 0,0 C -0.282,2.719 -1.422,6 -3.778,7.059 -4.455,7.361 -5.256,7.253 -5.815,6.753 L -13.45,0.071 c -0.415,-0.362 -0.652,-0.883 -0.652,-1.435 0,-0.553 0.237,-1.074 0.652,-1.437 l 7.635,-6.681 c 0.357,-0.314 0.807,-0.474 1.256,-0.474 0.393,0 0.787,0.119 1.122,0.365 C -0.857,-7.719 0.427,-4.132 0,0" /></g><g
           transform="translate(226.1172,89.8955)"
           id="g92"><path
             id="path94"
             style="fill:#e6e6e6;fill-opacity:1;fill-rule:nonzero;stroke:none"
             d="m 0,0 -6.68,7.637 c -0.727,0.828 -2.147,0.828 -2.875,0 L -16.234,0 c -0.491,-0.56 -0.61,-1.357 -0.304,-2.036 1.055,-2.357 4.335,-3.498 7.055,-3.781 0.523,-0.052 1.04,-0.079 1.545,-0.079 3.468,0 6.41,1.264 8.046,3.517 C 0.63,-1.655 0.585,-0.671 0,0" /></g><g
           transform="translate(235.9189,103.3682)"
           id="g96"><path
             id="path98"
             style="fill:#e6e6e6;fill-opacity:1;fill-rule:nonzero;stroke:none"
             d="M 0,0 C -0.281,2.719 -1.422,6 -3.777,7.059 -4.454,7.361 -5.256,7.253 -5.815,6.753 l -7.634,-6.682 c -0.416,-0.362 -0.653,-0.883 -0.653,-1.435 0,-0.553 0.237,-1.074 0.653,-1.437 l 7.634,-6.681 c 0.358,-0.314 0.807,-0.474 1.256,-0.474 0.394,0 0.787,0.119 1.122,0.365 C -0.857,-7.719 0.427,-4.132 0,0" /></g><path
           id="path100"
           style="fill:#8c8c8c;fill-opacity:1;fill-rule:nonzero;stroke:none"
           d="M 80,164 H 188 V 96 H 80 Z" /><g
           transform="translate(239.8613,166)"
           id="g102"><path
             id="path104"
             style="fill:#808080;fill-opacity:1;fill-rule:nonzero;stroke:none"
             d="M 0,0 C 0.082,-0.657 0.139,-1.321 0.139,-2 H 2.488 4.139 V -1.219 -0.781 0 H 2.488 Z" /></g><g
           transform="translate(237.8418,156)"
           id="g106"><path
             id="path108"
             style="fill:#808080;fill-opacity:1;fill-rule:nonzero;stroke:none"
             d="M 0,0 H 6.158 V 2 H 0.984 C 0.703,1.307 0.372,0.641 0,0" /></g><g
           transform="translate(239.8613,162)"
           id="g110"><path
             id="path112"
             style="fill:#808080;fill-opacity:1;fill-rule:nonzero;stroke:none"
             d="m 0,0 c -0.085,-0.682 -0.218,-1.348 -0.386,-2 h 2.433 2.092 v 0.997 0.006 L 4.139,0 H 2.047 Z" /></g><g
           transform="translate(238.8262,170)"
           id="g114"><path
             id="path116"
             style="fill:#808080;fill-opacity:1;fill-rule:nonzero;stroke:none"
             d="m 0,0 c 0.262,-0.646 0.473,-1.315 0.649,-2 h 2.535 1.99 V -1.062 -0.937 0 h -1.99 z" /></g><g
           transform="translate(241.875,174)"
           id="g118"><path
             id="path120"
             style="fill:#808080;fill-opacity:1;fill-rule:nonzero;stroke:none"
             d="m 0,0 h -5.396 c 0.504,-0.628 0.957,-1.299 1.363,-2 H 0 2.125 V -1.003 -0.997 0 Z" /></g></g></g></g></svg>