<?xml version="1.0" encoding="UTF-8" standalone="no"?>
<svg
   xmlns:dc="http://purl.org/dc/elements/1.1/"
   xmlns:cc="http://creativecommons.org/ns#"
   xmlns:rdf="http://www.w3.org/1999/02/22-rdf-syntax-ns#"
   xmlns:svg="http://www.w3.org/2000/svg"
   xmlns="http://www.w3.org/2000/svg"
   viewBox="0 0 330.66665 106.666"
   height="106.666"
   width="330.66666"
   xml:space="preserve"
   id="svg2"
   version="1.1"><metadata
     id="metadata8"><rdf:RDF><cc:Work
         rdf:about=""><dc:format>image/svg+xml</dc:format><dc:type
           rdf:resource="http://purl.org/dc/dcmitype/StillImage" /></cc:Work></rdf:RDF></metadata><defs
     id="defs6"><clipPath
       id="clipPath18"
       clipPathUnits="userSpaceOnUse"><path
         id="path16"
         d="M 0,256 H 256 V 0 H 0 Z" /></clipPath><clipPath
       id="clipPath26"
       clipPathUnits="userSpaceOnUse"><path
         id="path24"
         d="M 4,168 H 252 V 88 H 4 Z" /></clipPath><clipPath
       id="clipPath54"
       clipPathUnits="userSpaceOnUse"><path
         id="path52"
         d="M 0,256 H 256 V 0 H 0 Z" /></clipPath></defs><g
     transform="matrix(1.3333333,0,0,-1.3333333,-5.3333332,223.99999)"
     id="g10"><g
       id="g12"><g
         clip-path="url(#clipPath18)"
         id="g14"><g
           id="g20"><g
             id="g22" /><g
             id="g34"><g
               style="opacity:0.5"
               id="g32"
               clip-path="url(#clipPath26)"><g
                 id="g30"
                 transform="translate(244,135.3145)"><path
                   id="path28"
                   style="fill:#ffffff;fill-opacity:1;fill-rule:nonzero;stroke:none"
                   d="m 0,0 v 24.686 8 h -8 -216 -8 v -8 V 0 c -4.656,-1.651 -8,-6.1 -8,-11.314 v -8 c 0,-5.215 3.344,-9.665 8,-11.315 v -8.685 -8 h 8 216 8 v 8 8.685 c 4.656,1.65 8,6.1 8,11.315 v 8 C 8,-6.1 4.656,-1.651 0,0" /></g></g></g></g></g></g><path
       id="path36"
       style="fill:#404040;fill-opacity:1;fill-rule:nonzero;stroke:none"
       d="M 236,132 H 20 v 28 h 216 z" /><path
       id="path38"
       style="fill:#404040;fill-opacity:1;fill-rule:nonzero;stroke:none"
       d="M 236,96 H 20 v 12 h 216 z" /><g
       transform="translate(232,128)"
       id="g40"><path
         id="path42"
         style="fill:#262626;fill-opacity:1;fill-rule:nonzero;stroke:none"
         d="m 0,0 h -208 l -4,4 H 4 Z" /></g><g
       transform="translate(24,112)"
       id="g44"><path
         id="path46"
         style="fill:#262626;fill-opacity:1;fill-rule:nonzero;stroke:none"
         d="m 0,0 h 208 l 4,-4 H -4 Z" /></g><g
       id="g48"><g
         clip-path="url(#clipPath54)"
         id="g50"><g
           transform="translate(240,112)"
           id="g56"><path
             id="path58"
             style="fill:#404040;fill-opacity:1;fill-rule:nonzero;stroke:none"
             d="m 0,0 h -224 c -2.209,0 -4,1.791 -4,4 v 8 c 0,2.209 1.791,4 4,4 H 0 c 2.209,0 4,-1.791 4,-4 V 4 C 4,1.791 2.209,0 0,0" /></g><g
           transform="translate(36,120)"
           id="g60"><path
             id="path62"
             style="fill:#4c4c4c;fill-opacity:1;fill-rule:nonzero;stroke:none"
             d="m 0,0 c 0,-2.209 -1.791,-4 -4,-4 -2.209,0 -4,1.791 -4,4 0,2.209 1.791,4 4,4 2.209,0 4,-1.791 4,-4" /></g><g
           transform="translate(56,116)"
           id="g64"><path
             id="path66"
             style="fill:#4c4c4c;fill-opacity:1;fill-rule:nonzero;stroke:none"
             d="m 0,0 h -12 c -2.209,0 -4,1.791 -4,4 0,2.209 1.791,4 4,4 H 0 C 2.209,8 4,6.209 4,4 4,1.791 2.209,0 0,0" /></g><g
           transform="translate(18,126)"
           id="g68"><path
             id="path70"
             style="fill:#333333;fill-opacity:1;fill-rule:nonzero;stroke:none"
             d="M 0,0 C 1.104,0 2,0.896 2,2 H -2 C -2,0.896 -1.104,0 0,0" /></g><path
           id="path72"
           style="fill:#333333;fill-opacity:1;fill-rule:nonzero;stroke:none"
           d="m 51,116 h -2 v 8 h 2 z" /><g
           transform="translate(120,118)"
           id="g74"><path
             id="path76"
             style="fill:#333333;fill-opacity:1;fill-rule:nonzero;stroke:none"
             d="m 0,0 c 0,-1.104 -0.896,-2 -2,-2 -1.104,0 -2,0.896 -2,2 0,1.104 0.896,2 2,2 1.104,0 2,-0.896 2,-2" /></g><g
           transform="translate(192,120)"
           id="g78"><path
             id="path80"
             style="fill:#191919;fill-opacity:1;fill-rule:nonzero;stroke:none"
             d="m 0,0 c 0,-2.209 -1.791,-4 -4,-4 -2.209,0 -4,1.791 -4,4 0,2.209 1.791,4 4,4 2.209,0 4,-1.791 4,-4" /></g><path
           id="path82"
           style="fill:#191919;fill-opacity:1;fill-rule:nonzero;stroke:none"
           d="m 134,116 h 10 v 8 h -10 z" /><g
           transform="translate(128,124)"
           id="g84"><path
             id="path86"
             style="fill:#191919;fill-opacity:1;fill-rule:nonzero;stroke:none"
             d="m 0,0 c -2.209,0 -4,-1.791 -4,-4 0,-2.209 1.791,-4 4,-4 h 4 v 8 z" /></g><g
           transform="translate(174,116)"
           id="g88"><path
             id="path90"
             style="fill:#191919;fill-opacity:1;fill-rule:nonzero;stroke:none"
             d="M 0,0 C 2.209,0 4,1.791 4,4 4,6.209 2.209,8 0,8 H -4 V 0 Z" /></g><path
           id="path92"
           style="fill:#191919;fill-opacity:1;fill-rule:nonzero;stroke:none"
           d="m 146,116 h 10 v 8 h -10 z" /><path
           id="path94"
           style="fill:#191919;fill-opacity:1;fill-rule:nonzero;stroke:none"
           d="m 158,116 h 10 v 8 h -10 z" /><g
           transform="translate(226,128)"
           id="g96"><path
             id="path98"
             style="fill:#292929;fill-opacity:1;fill-rule:nonzero;stroke:none"
             d="m 0,0 v -8 c 0,-1.103 -0.897,-2 -2,-2 h -24 c -1.103,0 -2,0.897 -2,2 v 8 h -2 v -8 c 0,-2.209 1.791,-4 4,-4 h 24 c 2.209,0 4,1.791 4,4 v 8 z" /></g></g></g></g></svg>