<svg xmlns="http://www.w3.org/2000/svg" xml:space="preserve" width="330.667" height="106.666" viewBox="0 0 330.667 106.666"><defs><clipPath id="a" clipPathUnits="userSpaceOnUse"><path d="M0 256h256V0H0Z"/></clipPath><clipPath id="b" clipPathUnits="userSpaceOnUse"><path d="M4 168h248V88H4Z"/></clipPath><clipPath id="c" clipPathUnits="userSpaceOnUse"><path d="M0 256h256V0H0Z"/></clipPath></defs><g clip-path="url(#a)" transform="matrix(1.33333 0 0 -1.33333 -5.333 224)"><g clip-path="url(#b)" style="opacity:.5"><path d="M0 0v32.686h-232V0c-4.656-1.651-8-6.1-8-11.314v-8c0-5.215 3.344-9.665 8-11.315v-16.685H0v16.685c4.656 1.65 8 6.1 8 11.315v8C8-6.1 4.656-1.651 0 0" style="fill:#fff;fill-opacity:1;fill-rule:nonzero;stroke:none" transform="translate(244 135.315)"/></g></g><path d="M236 132H20v28h216zm0-36H20v12h216z" style="fill:#404040;fill-opacity:1;fill-rule:nonzero;stroke:none" transform="matrix(1.33333 0 0 -1.33333 -5.333 224)"/><path d="M0 0h-208l-4 4H4Z" style="fill:#262626;fill-opacity:1;fill-rule:nonzero;stroke:none" transform="matrix(1.33333 0 0 -1.33333 304 53.333)"/><path d="M0 0h208l4-4H-4Z" style="fill:#262626;fill-opacity:1;fill-rule:nonzero;stroke:none" transform="matrix(1.33333 0 0 -1.33333 26.667 74.667)"/><g clip-path="url(#c)" transform="matrix(1.33333 0 0 -1.33333 -5.333 224)"><path d="M0 0h-224a4 4 0 0 0-4 4v8a4 4 0 0 0 4 4H0a4 4 0 0 0 4-4V4a4 4 0 0 0-4-4" style="fill:#404040;fill-opacity:1;fill-rule:nonzero;stroke:none" transform="translate(240 112)"/><path d="M0 0a4 4 0 1 0-8 0 4 4 0 0 0 8 0" style="fill:#4c4c4c;fill-opacity:1;fill-rule:nonzero;stroke:none" transform="translate(36 120)"/><path d="M0 0h-12a4 4 0 0 0 0 8H0a4 4 0 0 0 0-8" style="fill:#4c4c4c;fill-opacity:1;fill-rule:nonzero;stroke:none" transform="translate(56 116)"/><path d="M0 0a2 2 0 0 1 2 2h-4a2 2 0 0 1 2-2" style="fill:#333;fill-opacity:1;fill-rule:nonzero;stroke:none" transform="translate(18 126)"/><path d="M51 116h-2v8h2z" style="fill:#333;fill-opacity:1;fill-rule:nonzero;stroke:none"/><path d="M0 0a2 2 0 1 0-4.001.001A2 2 0 0 0 0 0" style="fill:#333;fill-opacity:1;fill-rule:nonzero;stroke:none" transform="translate(120 118)"/><path d="M0 0a4 4 0 1 0-8 0 4 4 0 0 0 8 0" style="fill:#191919;fill-opacity:1;fill-rule:nonzero;stroke:none" transform="translate(192 120)"/><path d="M134 116h10v8h-10z" style="fill:#191919;fill-opacity:1;fill-rule:nonzero;stroke:none"/><path d="M0 0a4 4 0 0 1 0-8h4v8z" style="fill:#191919;fill-opacity:1;fill-rule:nonzero;stroke:none" transform="translate(128 124)"/><path d="M0 0a4 4 0 0 1 0 8h-4V0Z" style="fill:#191919;fill-opacity:1;fill-rule:nonzero;stroke:none" transform="translate(174 116)"/><path d="M146 116h10v8h-10zm12 0h10v8h-10z" style="fill:#191919;fill-opacity:1;fill-rule:nonzero;stroke:none"/><path d="M0 0v-8c0-1.103-.897-2-2-2h-24c-1.103 0-2 .897-2 2v8h-2v-8a4 4 0 0 1 4-4h24a4 4 0 0 1 4 4v8z" style="fill:#292929;fill-opacity:1;fill-rule:nonzero;stroke:none" transform="translate(226 128)"/></g></svg>