<svg xmlns="http://www.w3.org/2000/svg" xml:space="preserve" width="256" height="330.667" viewBox="0 0 256 330.667"><defs><clipPath id="a" clipPathUnits="userSpaceOnUse"><path d="M0 256h256V0H0Z"/></clipPath><clipPath id="b" clipPathUnits="userSpaceOnUse"><path d="M32 252h192V4H32Z"/></clipPath></defs><g clip-path="url(#a)" transform="matrix(1.33333 0 0 -1.33333 -42.667 336)"><g clip-path="url(#b)" style="opacity:.5"><path d="M0 0h-160c-8.822 0-16-7.178-16-16v-216c0-8.822 7.178-16 16-16H0c8.822 0 16 7.178 16 16v216C16-7.178 8.822 0 0 0" style="fill:#fff;fill-opacity:1;fill-rule:nonzero;stroke:none" transform="translate(208 252)"/></g><path d="M0 0h-160a8 8 0 0 0-8 8v216a8 8 0 0 0 8 8H0a8 8 0 0 0 8-8V8a8 8 0 0 0-8-8" style="fill:#3096cf;fill-opacity:1;fill-rule:nonzero;stroke:none" transform="translate(208 12)"/><path d="M196 196H60v32h136z" style="fill:#2c3e50;fill-opacity:1;fill-rule:nonzero;stroke:none"/><path d="M192 220H64v-12h128z" style="fill:#191919;fill-opacity:1;fill-rule:nonzero;stroke:none"/><path d="M190 216h-2v4h2zm-4 0h-2v4h2zm-4 0h-2v4h2zm-4 0h-2v4h2zm-4 0h-2v4h2zm-4 0h-2v4h2zm-4 0h-2v4h2zm-4 0h-2v4h2zm-4 0h-2v4h2zm-4 0h-2v4h2zm-4 0h-2v4h2zm-4 0h-2v4h2zm-4 0h-2v4h2zm-4 0h-2v4h2zm-4 0h-2v4h2zm-4 0h-2v4h2zm-4 0h-2v4h2zm-4 0h-2v4h2zm-4 0h-2v4h2zm-4 0h-2v4h2zm-4 0h-2v4h2zm-4 0h-2v4h2zm-4 0h-2v4h2zm-4 0h-2v4h2zm-4 0h-2v4h2zm-4 0h-2v4h2zm-4 0h-2v4h2zm-4 0h-2v4h2zm-4 0h-2v4h2zm-4 0h-2v4h2zm-4 0h-2v4h2z" style="fill:#a3834a;fill-opacity:1;fill-rule:nonzero;stroke:none"/><path d="M196 40H60v152h136z" style="fill:#a6a6a6;fill-opacity:1;fill-rule:nonzero;stroke:none"/><path d="M104 56h-4v116h4zm52 0h-4v116h4z" style="fill:#191919;fill-opacity:1;fill-rule:nonzero;stroke:none"/><path d="M0 0h-20a4 4 0 0 0 0 8H0l4-4Z" style="fill:#b80000;fill-opacity:1;fill-rule:nonzero;stroke:none" transform="translate(112 132)"/><path d="M0 0h20a4 4 0 0 0 0-8H0l-4 4z" style="fill:#b80000;fill-opacity:1;fill-rule:nonzero;stroke:none" transform="translate(144 164)"/><path d="M0 0c-7.732 0-14-6.268-14-14s6.268-14 14-14 14 6.268 14 14S7.732 0 0 0" style="fill:#b80000;fill-opacity:1;fill-rule:nonzero;stroke:none" transform="translate(70 108)"/><path d="M0 0c6.617 0 12-5.383 12-12S6.617-24 0-24s-12 5.383-12 12S-6.617 0 0 0" style="fill:#7b0000;fill-opacity:1;fill-rule:nonzero;stroke:none" transform="translate(70 106)"/><path d="M0 0c-7.732 0-14-6.268-14-14s6.268-14 14-14 14 6.268 14 14S7.732 0 0 0" style="fill:#b80000;fill-opacity:1;fill-rule:nonzero;stroke:none" transform="translate(186 108)"/><path d="M0 0c6.617 0 12-5.383 12-12S6.617-24 0-24s-12 5.383-12 12S-6.617 0 0 0" style="fill:#7b0000;fill-opacity:1;fill-rule:nonzero;stroke:none" transform="translate(186 106)"/></g></svg>