<?xml version="1.0" encoding="UTF-8" standalone="no"?>
<svg
   xmlns:dc="http://purl.org/dc/elements/1.1/"
   xmlns:cc="http://creativecommons.org/ns#"
   xmlns:rdf="http://www.w3.org/1999/02/22-rdf-syntax-ns#"
   xmlns:svg="http://www.w3.org/2000/svg"
   xmlns="http://www.w3.org/2000/svg"
   viewBox="0 0 331.97616 288"
   height="288"
   width="331.97617"
   xml:space="preserve"
   id="svg2"
   version="1.1"><metadata
     id="metadata8"><rdf:RDF><cc:Work
         rdf:about=""><dc:format>image/svg+xml</dc:format><dc:type
           rdf:resource="http://purl.org/dc/dcmitype/StillImage" /></cc:Work></rdf:RDF></metadata><defs
     id="defs6"><clipPath
       id="clipPath18"
       clipPathUnits="userSpaceOnUse"><path
         id="path16"
         d="M 0,256 H 256 V 0 H 0 Z" /></clipPath><clipPath
       id="clipPath26"
       clipPathUnits="userSpaceOnUse"><path
         id="path24"
         d="M 3.50887,236 H 252.491 V 20 H 3.50887 Z" /></clipPath></defs><g
     transform="matrix(1.3333333,0,0,-1.3333333,-4.6784932,314.66666)"
     id="g10"><g
       id="g12"><g
         clip-path="url(#clipPath18)"
         id="g14"><g
           id="g20"><g
             id="g22" /><g
             id="g34"><g
               style="opacity:0.5"
               id="g32"
               clip-path="url(#clipPath26)"><g
                 id="g30"
                 transform="translate(206.9795,130.73)"><path
                   id="path28"
                   style="fill:#ffffff;fill-opacity:1;fill-rule:nonzero;stroke:none"
                   d="m 0,0 c 1.319,1.193 2.767,2.544 4.234,3.991 7.101,6.996 10.212,11.811 11.644,15.205 l 2.527,1.685 c 0.492,-0.035 1.017,-0.055 1.57,-0.055 5.719,0 16.41,2.191 23.748,16.866 l 1.789,3.578 -1.789,3.578 -4,8 -1.752,3.503 -3.841,0.765 c -0.474,0.094 -2.231,0.402 -4.982,0.402 -7.195,0 -21.059,-2.093 -35.577,-15.567 -1.947,-0.301 -3.746,-1.094 -5.239,-2.316 l -11.742,-7.828 -18.853,25.615 -0.031,0.043 -0.032,0.042 c -7.291,9.634 -18.45,15.316 -30.792,15.733 2.436,7.215 2.904,15.758 -3.162,23.297 -4.532,5.631 -11.673,8.733 -20.108,8.733 -12.907,0 -29.844,-7.049 -46.468,-19.339 -10.678,-7.895 -19.686,-16.981 -25.366,-25.585 -5.049,-7.649 -12.069,-22.282 -2.363,-34.343 0.326,-0.405 0.666,-0.798 1.019,-1.176 -1.535,-0.474 -2.941,-1.318 -4.109,-2.486 l -25.172,-25.172 c -3.899,-3.899 -3.899,-10.243 0,-14.141 l 9.172,-9.172 c 1.888,-1.889 4.4,-2.929 7.071,-2.929 2.037,0 3.981,0.605 5.627,1.731 l -18.32,-22.179 -0.069,-0.084 -0.068,-0.086 c -8.956,-11.467 -10.528,-26.05 -4.206,-39.01 6.628,-13.588 20.464,-22.029 36.109,-22.029 H 4.666 c 15.645,0 29.48,8.441 36.108,22.029 6.305,12.925 4.759,27.463 -4.131,38.914 z" /></g></g></g></g><g
           transform="translate(158.7266,183.4102)"
           id="g36"><path
             id="path38"
             style="fill:#595959;fill-opacity:1;fill-rule:nonzero;stroke:none"
             d="m 0,0 c -12.472,16.48 -38.211,16.843 -51.195,0.722 l -89.228,-108.018 c -15.553,-19.912 -0.549,-48.114 25.598,-48.114 H 53.372 c 26.147,0 41.15,28.202 25.598,48.114 z" /></g><g
           transform="translate(132,148)"
           id="g40"><path
             id="path42"
             style="fill:#999999;fill-opacity:1;fill-rule:nonzero;stroke:none"
             d="M 0,0 -32,-44 H 32 Z" /></g><path
           id="path44"
           style="fill:#262626;fill-opacity:1;fill-rule:nonzero;stroke:none"
           d="m 136,132 h -8 v 8 h 8 z" /><g
           transform="translate(92,84)"
           id="g46"><path
             id="path48"
             style="fill:#bf9a57;fill-opacity:1;fill-rule:nonzero;stroke:none"
             d="m 0,0 v -44 h -27.512 c -2.635,0 -4.917,0.216 -6.893,0.59 -8.834,1.671 -12.611,12.464 -6.839,19.472 C -33.435,-14.459 -18.493,0 0,0" /></g><g
           transform="translate(76,54)"
           id="g50"><path
             id="path52"
             style="fill:#191919;fill-opacity:1;fill-rule:nonzero;stroke:none"
             d="m 0,0 c 0,-5.522 -4.477,-10 -10,-10 -5.523,0 -10,4.478 -10,10 0,5.522 4.477,10 10,10 C -4.477,10 0,5.522 0,0" /></g><g
           transform="translate(72,54)"
           id="g54"><path
             id="path56"
             style="fill:#999999;fill-opacity:1;fill-rule:nonzero;stroke:none"
             d="m 0,0 c 0,-3.313 -2.687,-6 -6,-6 -3.313,0 -6,2.687 -6,6 0,3.313 2.687,6 6,6 3.313,0 6,-2.687 6,-6" /></g><g
           transform="translate(76,72)"
           id="g58"><path
             id="path60"
             style="fill:#191919;fill-opacity:1;fill-rule:nonzero;stroke:none"
             d="m 0,0 c 0,-2.209 -1.791,-4 -4,-4 -2.209,0 -4,1.791 -4,4 0,2.209 1.791,4 4,4 2.209,0 4,-1.791 4,-4" /></g><path
           id="path62"
           style="fill:#999999;fill-opacity:1;fill-rule:nonzero;stroke:none"
           d="m 88,68 h -8 v 8 h 8 z" /><g
           transform="translate(172,84)"
           id="g64"><path
             id="path66"
             style="fill:#bf9a57;fill-opacity:1;fill-rule:nonzero;stroke:none"
             d="m 0,0 v -44 h 27.512 c 2.635,0 4.918,0.216 6.893,0.59 8.834,1.671 12.611,12.464 6.838,19.472 C 33.435,-14.459 18.493,0 0,0" /></g><g
           transform="translate(188,54)"
           id="g68"><path
             id="path70"
             style="fill:#191919;fill-opacity:1;fill-rule:nonzero;stroke:none"
             d="m 0,0 c 0,-5.522 4.478,-10 10,-10 5.522,0 10,4.478 10,10 C 20,5.522 15.522,10 10,10 4.478,10 0,5.522 0,0" /></g><g
           transform="translate(192,54)"
           id="g72"><path
             id="path74"
             style="fill:#999999;fill-opacity:1;fill-rule:nonzero;stroke:none"
             d="m 0,0 c 0,-3.313 2.687,-6 6,-6 3.313,0 6,2.687 6,6 C 12,3.313 9.313,6 6,6 2.687,6 0,3.313 0,0" /></g><g
           transform="translate(188,72)"
           id="g76"><path
             id="path78"
             style="fill:#191919;fill-opacity:1;fill-rule:nonzero;stroke:none"
             d="M 0,0 C 0,-2.209 1.791,-4 4,-4 6.209,-4 8,-2.209 8,0 8,2.209 6.209,4 4,4 1.791,4 0,2.209 0,0" /></g><path
           id="path80"
           style="fill:#999999;fill-opacity:1;fill-rule:nonzero;stroke:none"
           d="m 176,68 h 8 v 8 h -8 z" /><path
           id="path82"
           style="fill:#e6e6e6;fill-opacity:1;fill-rule:nonzero;stroke:none"
           d="m 164,60 h -64 v 24 h 64 z" /><path
           id="path84"
           style="fill:#191919;fill-opacity:1;fill-rule:nonzero;stroke:none"
           d="m 164,40 h -64 v 16 h 64 z" /><path
           id="path86"
           style="fill:#e6e6e6;fill-opacity:1;fill-rule:nonzero;stroke:none"
           d="m 156,88 h -48 v 12 h 48 z" /><g
           transform="translate(144,128)"
           id="g88"><path
             id="path90"
             style="fill:#262626;fill-opacity:1;fill-rule:nonzero;stroke:none"
             d="M 0,0 H -24 L -36,-20 H 12 Z" /></g><g
           transform="translate(56,112)"
           id="g92"><path
             id="path94"
             style="fill:#999999;fill-opacity:1;fill-rule:nonzero;stroke:none"
             d="M 0,0 H 24 L 56,44 H 32 Z" /></g><g
           transform="translate(148,156)"
           id="g96"><path
             id="path98"
             style="fill:#191919;fill-opacity:1;fill-rule:nonzero;stroke:none"
             d="M 0,0 H 24 L 56,-44 H 32 Z" /></g><g
           transform="translate(140,72)"
           id="g100"><path
             id="path102"
             style="fill:#262626;fill-opacity:1;fill-rule:nonzero;stroke:none"
             d="m 0,0 c 0,-4.418 -3.582,-8 -8,-8 -4.418,0 -8,3.582 -8,8 0,4.418 3.582,8 8,8 4.418,0 8,-3.582 8,-8" /></g><g
           transform="translate(136,72)"
           id="g104"><path
             id="path106"
             style="fill:#999999;fill-opacity:1;fill-rule:nonzero;stroke:none"
             d="m 0,0 c 0,-2.209 -1.791,-4 -4,-4 -2.209,0 -4,1.791 -4,4 0,2.209 1.791,4 4,4 2.209,0 4,-1.791 4,-4" /></g><g
           transform="translate(116,72)"
           id="g108"><path
             id="path110"
             style="fill:#191919;fill-opacity:1;fill-rule:nonzero;stroke:none"
             d="m 0,0 c 0,-2.209 -1.791,-4 -4,-4 -2.209,0 -4,1.791 -4,4 0,2.209 1.791,4 4,4 2.209,0 4,-1.791 4,-4" /></g><g
           transform="translate(114,72)"
           id="g112"><path
             id="path114"
             style="fill:#262626;fill-opacity:1;fill-rule:nonzero;stroke:none"
             d="m 0,0 c 0,-1.104 -0.896,-2 -2,-2 -1.104,0 -2,0.896 -2,2 0,1.104 0.896,2 2,2 1.104,0 2,-0.896 2,-2" /></g><g
           transform="translate(194,72)"
           id="g116"><path
             id="path118"
             style="fill:#262626;fill-opacity:1;fill-rule:nonzero;stroke:none"
             d="m 0,0 c 0,-1.104 -0.896,-2 -2,-2 -1.104,0 -2,0.896 -2,2 0,1.104 0.896,2 2,2 1.104,0 2,-0.896 2,-2" /></g><g
           transform="translate(74,72)"
           id="g120"><path
             id="path122"
             style="fill:#262626;fill-opacity:1;fill-rule:nonzero;stroke:none"
             d="m 0,0 c 0,-1.104 -0.896,-2 -2,-2 -1.104,0 -2,0.896 -2,2 0,1.104 0.896,2 2,2 1.104,0 2,-0.896 2,-2" /></g><g
           transform="translate(148.1494,156)"
           id="g124"><path
             id="path126"
             style="fill:#bf9a57;fill-opacity:1;fill-rule:nonzero;stroke:none"
             d="M 0,0 H 27.351 L -1.426,32.888 C -3.288,35.016 -6.761,34.619 -7.999,32.077 -9.409,29.179 -10.213,24.252 -8.149,16 -7.263,12.453 -4.21,6.74 0,0" /></g><g
           transform="translate(208,112)"
           id="g128"><path
             id="path130"
             style="fill:#bf9a57;fill-opacity:1;fill-rule:nonzero;stroke:none"
             d="M 0,0 H -28.479 C -21.279,-9.401 -16,-16 -16,-16 l 32,-24 8,8 z" /></g><g
           transform="translate(116,192)"
           id="g132"><path
             id="path134"
             style="fill:#bf9a57;fill-opacity:1;fill-rule:nonzero;stroke:none"
             d="M 0,0 -31.5,-36 H -4.149 C 0.061,-29.26 3.113,-23.547 4,-20 8.339,-2.646 0,0 0,0" /></g><g
           transform="translate(49.3335,112)"
           id="g136"><path
             id="path138"
             style="fill:#bf9a57;fill-opacity:1;fill-rule:nonzero;stroke:none"
             d="m 0,0 -21.333,-32 8,-8 32,24 c 0,0 5.278,6.599 12.479,16 z" /></g><g
           transform="translate(32,124)"
           id="g140"><path
             id="path142"
             style="fill:#191919;fill-opacity:1;fill-rule:nonzero;stroke:none"
             d="m 0,0 24,-24 h 8 l 4,4 H 28 L 4,4 Z" /></g><g
           transform="translate(212,152)"
           id="g144"><path
             id="path146"
             style="fill:#bf9a57;fill-opacity:1;fill-rule:nonzero;stroke:none"
             d="m 0,0 12,8 c 0,0 12,-4 20,12 l -4,8 C 28,28 8,32 -12,8 Z" /></g><g
           transform="translate(26.2427,110.2422)"
           id="g148"><path
             id="path150"
             style="fill:#262626;fill-opacity:1;fill-rule:nonzero;stroke:none"
             d="m 0,0 25.171,25.172 c 0.782,0.781 0.782,2.047 0,2.828 L 16,37.172 c -0.781,0.781 -2.047,0.781 -2.829,0 L -12,12 c -0.781,-0.78 -0.781,-2.047 0,-2.828 L -2.829,0 C -2.047,-0.78 -0.781,-0.78 0,0" /></g><g
           transform="translate(240,180)"
           id="g152"><path
             id="path154"
             style="fill:#262626;fill-opacity:1;fill-rule:nonzero;stroke:none"
             d="m 0,0 4,-8 c 0,0 -8,0 -16,-4 -8,-4 -12,-16 -16,-16 l -12,8 c 0,0 32,20 40,20" /></g><g
           transform="translate(209,93)"
           id="g156"><path
             id="path158"
             style="fill:#262626;fill-opacity:1;fill-rule:nonzero;stroke:none"
             d="M 0,0 C -1.104,0 -2,0.447 -2,1 -2,1.553 -1.104,2 0,2 1.104,2 2,1.553 2,1 2,0.447 1.104,0 0,0" /></g><g
           transform="translate(150,170)"
           id="g160"><path
             id="path162"
             style="fill:#262626;fill-opacity:1;fill-rule:nonzero;stroke:none"
             d="M 0,0 C -1.104,0 -2,0.448 -2,1 -2,1.552 -1.104,2 0,2 1.104,2 2,1.552 2,1 2,0.448 1.104,0 0,0" /></g><g
           transform="translate(208,106)"
           id="g164"><path
             id="path166"
             style="fill:#262626;fill-opacity:1;fill-rule:nonzero;stroke:none"
             d="m 0,0 c 0,-1.104 -1.791,-2 -4,-2 -2.209,0 -4,0.896 -4,2 0,1.104 1.791,2 4,2 2.209,0 4,-0.896 4,-2" /></g><g
           transform="translate(196,106)"
           id="g168"><path
             id="path170"
             style="fill:#262626;fill-opacity:1;fill-rule:nonzero;stroke:none"
             d="m 0,0 c 0,-1.104 -1.791,-2 -4,-2 -2.209,0 -4,0.896 -4,2 0,1.104 1.791,2 4,2 2.209,0 4,-0.896 4,-2" /></g><path
           id="path172"
           style="fill:#191919;fill-opacity:1;fill-rule:nonzero;stroke:none"
           d="m 148,68 h -4 v 8 h 4 z" /><path
           id="path174"
           style="fill:#191919;fill-opacity:1;fill-rule:nonzero;stroke:none"
           d="m 156,68 h -4 v 8 h 4 z" /><path
           id="path176"
           style="fill:#262626;fill-opacity:1;fill-rule:nonzero;stroke:none"
           d="m 148,72 h -4 v 4 h 4 z" /><path
           id="path178"
           style="fill:#262626;fill-opacity:1;fill-rule:nonzero;stroke:none"
           d="m 156,68 h -4 v 4 h 4 z" /><g
           transform="translate(176.6396,144)"
           id="g180"><path
             id="path182"
             style="fill:#262626;fill-opacity:1;fill-rule:nonzero;stroke:none"
             d="m 0,0 -12,-8 c 0,0 -4,-4 8,-4 0,0 4,-8 8,-4 l 4,4 z" /></g><g
           transform="translate(200.6396,164)"
           id="g184"><path
             id="path186"
             style="fill:#333333;fill-opacity:1;fill-rule:nonzero;stroke:none"
             d="m 0,0 -24,-16 v -4 l 8,-12 h 12 c 0,0 20,16 20,24 C 16,-8 4,4 0,0" /></g><g
           transform="translate(180.6396,148)"
           id="g188"><path
             id="path190"
             style="fill:#404040;fill-opacity:1;fill-rule:nonzero;stroke:none"
             d="M 0,0 8,-8 C 8,-8 28,4 24,12 20,20 0,0 0,0" /></g><g
           transform="translate(112,188)"
           id="g192"><path
             id="path194"
             style="fill:#191919;fill-opacity:1;fill-rule:nonzero;stroke:none"
             d="m 0,0 v -20 l -8,-8 h -32 z" /></g><g
           transform="translate(112,220)"
           id="g196"><path
             id="path198"
             style="fill:#191919;fill-opacity:1;fill-rule:nonzero;stroke:none"
             d="m 0,0 h -8 l -7.114,-32.015 c -2.091,-0.133 -5.233,-1.911 -8.096,-4.775 -3.906,-3.904 -5.806,-8.337 -4.243,-9.899 1.562,-1.562 5.994,0.337 9.899,4.243 1.401,1.401 2.538,2.868 3.356,4.248 L 0,-24 Z" /></g><g
           transform="translate(111.0444,228)"
           id="g200"><path
             id="path202"
             style="fill:#262626;fill-opacity:1;fill-rule:nonzero;stroke:none"
             d="m 0,0 c -11.066,0 -26.66,-6.644 -41.712,-17.772 -9.943,-7.351 -18.269,-15.718 -23.445,-23.559 -4.699,-7.12 -9.001,-17.223 -2.807,-24.92 2.11,-2.623 6.231,-5.749 13.875,-5.749 11.066,0 26.66,6.644 41.713,17.772 9.942,7.351 18.269,15.718 23.444,23.559 4.7,7.12 9.002,17.223 2.807,24.921 C 11.765,-3.126 7.645,0 0,0 m 0,-7.8 c 3.365,0 5.95,-0.872 7.431,-2.712 5.356,-6.656 -5.737,-23.463 -24.778,-37.539 -13.776,-10.185 -27.935,-16.149 -36.742,-16.149 -3.365,0 -5.95,0.872 -7.431,2.712 -5.356,6.656 5.737,23.463 24.778,37.539 C -22.966,-13.764 -8.807,-7.8 0,-7.8" /></g></g></g></g></svg>