<svg xmlns="http://www.w3.org/2000/svg" xml:space="preserve" width="331.976" height="288" viewBox="0 0 331.976 288"><defs><clipPath id="a" clipPathUnits="userSpaceOnUse"><path d="M0 256h256V0H0Z"/></clipPath><clipPath id="b" clipPathUnits="userSpaceOnUse"><path d="M3.509 236H252.49V20H3.509Z"/></clipPath></defs><g clip-path="url(#a)" transform="matrix(1.33333 0 0 -1.33333 -4.678 314.667)"><g clip-path="url(#b)" style="opacity:.5"><path d="M0 0a135 135 0 0 1 4.234 3.991c7.101 6.996 10.212 11.811 11.644 15.205l2.527 1.685a22 22 0 0 1 1.57-.055c5.719 0 16.41 2.191 23.748 16.866l1.789 3.578-1.789 3.578-4 8-1.752 3.503-3.841.765c-.474.094-2.231.402-4.982.402-7.195 0-21.059-2.093-35.577-15.567a10.85 10.85 0 0 1-5.239-2.316l-11.742-7.828-18.853 25.615-.031.043-.032.042c-7.291 9.634-18.45 15.316-30.792 15.733 2.436 7.215 2.904 15.758-3.162 23.297-4.532 5.631-11.673 8.733-20.108 8.733-12.907 0-29.844-7.049-46.468-19.339-10.678-7.895-19.686-16.981-25.366-25.585-5.049-7.649-12.069-22.282-2.363-34.343q.49-.608 1.019-1.176a9.96 9.96 0 0 1-4.109-2.486l-25.172-25.172c-3.899-3.899-3.899-10.243 0-14.141l9.172-9.172a9.93 9.93 0 0 1 7.071-2.929c2.037 0 3.981.605 5.627 1.731l-18.32-22.179-.069-.084-.068-.086c-8.956-11.467-10.528-26.05-4.206-39.01 6.628-13.588 20.464-22.029 36.109-22.029H4.666c15.645 0 29.48 8.441 36.108 22.029 6.305 12.925 4.759 27.463-4.131 38.914z" style="fill:#fff;fill-opacity:1;fill-rule:nonzero;stroke:none" transform="translate(206.98 130.73)"/></g><path d="M0 0c-12.472 16.48-38.211 16.843-51.195.722l-89.228-108.018c-15.553-19.912-.549-48.114 25.598-48.114H53.372c26.147 0 41.15 28.202 25.598 48.114z" style="fill:#595959;fill-opacity:1;fill-rule:nonzero;stroke:none" transform="translate(158.727 183.41)"/><path d="m0 0-32-44h64Z" style="fill:#999;fill-opacity:1;fill-rule:nonzero;stroke:none" transform="translate(132 148)"/><path d="M136 132h-8v8h8z" style="fill:#262626;fill-opacity:1;fill-rule:nonzero;stroke:none"/><path d="M0 0v-44h-27.512c-2.635 0-4.917.216-6.893.59-8.834 1.671-12.611 12.464-6.839 19.472C-33.435-14.459-18.493 0 0 0" style="fill:#bf9a57;fill-opacity:1;fill-rule:nonzero;stroke:none" transform="translate(92 84)"/><path d="M0 0c0-5.522-4.477-10-10-10S-20-5.522-20 0s4.477 10 10 10S0 5.522 0 0" style="fill:#191919;fill-opacity:1;fill-rule:nonzero;stroke:none" transform="translate(76 54)"/><path d="M0 0a6 6 0 0 0-12 0A6 6 0 0 0 0 0" style="fill:#999;fill-opacity:1;fill-rule:nonzero;stroke:none" transform="translate(72 54)"/><path d="M0 0a4 4 0 1 0-8 0 4 4 0 0 0 8 0" style="fill:#191919;fill-opacity:1;fill-rule:nonzero;stroke:none" transform="translate(76 72)"/><path d="M88 68h-8v8h8z" style="fill:#999;fill-opacity:1;fill-rule:nonzero;stroke:none"/><path d="M0 0v-44h27.512c2.635 0 4.918.216 6.893.59 8.834 1.671 12.611 12.464 6.838 19.472C33.435-14.459 18.493 0 0 0" style="fill:#bf9a57;fill-opacity:1;fill-rule:nonzero;stroke:none" transform="translate(172 84)"/><path d="M0 0c0-5.522 4.478-10 10-10S20-5.522 20 0s-4.478 10-10 10S0 5.522 0 0" style="fill:#191919;fill-opacity:1;fill-rule:nonzero;stroke:none" transform="translate(188 54)"/><path d="M0 0a6 6 0 0 1 12 0A6 6 0 0 1 0 0" style="fill:#999;fill-opacity:1;fill-rule:nonzero;stroke:none" transform="translate(192 54)"/><path d="M0 0a4 4 0 1 1 8 0 4 4 0 0 1-8 0" style="fill:#191919;fill-opacity:1;fill-rule:nonzero;stroke:none" transform="translate(188 72)"/><path d="M176 68h8v8h-8z" style="fill:#999;fill-opacity:1;fill-rule:nonzero;stroke:none"/><path d="M164 60h-64v24h64z" style="fill:#e6e6e6;fill-opacity:1;fill-rule:nonzero;stroke:none"/><path d="M164 40h-64v16h64z" style="fill:#191919;fill-opacity:1;fill-rule:nonzero;stroke:none"/><path d="M156 88h-48v12h48z" style="fill:#e6e6e6;fill-opacity:1;fill-rule:nonzero;stroke:none"/><path d="M0 0h-24l-12-20h48Z" style="fill:#262626;fill-opacity:1;fill-rule:nonzero;stroke:none" transform="translate(144 128)"/><path d="M0 0h24l32 44H32Z" style="fill:#999;fill-opacity:1;fill-rule:nonzero;stroke:none" transform="translate(56 112)"/><path d="M0 0h24l32-44H32Z" style="fill:#191919;fill-opacity:1;fill-rule:nonzero;stroke:none" transform="translate(148 156)"/><path d="M0 0a8 8 0 1 0-16 0A8 8 0 0 0 0 0" style="fill:#262626;fill-opacity:1;fill-rule:nonzero;stroke:none" transform="translate(140 72)"/><path d="M0 0a4 4 0 1 0-8 0 4 4 0 0 0 8 0" style="fill:#999;fill-opacity:1;fill-rule:nonzero;stroke:none" transform="translate(136 72)"/><path d="M0 0a4 4 0 1 0-8 0 4 4 0 0 0 8 0" style="fill:#191919;fill-opacity:1;fill-rule:nonzero;stroke:none" transform="translate(116 72)"/><path d="M0 0a2 2 0 1 0-4.001.001A2 2 0 0 0 0 0" style="fill:#262626;fill-opacity:1;fill-rule:nonzero;stroke:none" transform="translate(114 72)"/><path d="M0 0a2 2 0 1 0-4.001.001A2 2 0 0 0 0 0" style="fill:#262626;fill-opacity:1;fill-rule:nonzero;stroke:none" transform="translate(194 72)"/><path d="M0 0a2 2 0 1 0-4.001.001A2 2 0 0 0 0 0" style="fill:#262626;fill-opacity:1;fill-rule:nonzero;stroke:none" transform="translate(74 72)"/><path d="M0 0h27.351L-1.426 32.888c-1.862 2.128-5.335 1.731-6.573-.811-1.41-2.898-2.214-7.825-.15-16.077C-7.263 12.453-4.21 6.74 0 0" style="fill:#bf9a57;fill-opacity:1;fill-rule:nonzero;stroke:none" transform="translate(148.15 156)"/><path d="M0 0h-28.479C-21.279-9.401-16-16-16-16l32-24 8 8z" style="fill:#bf9a57;fill-opacity:1;fill-rule:nonzero;stroke:none" transform="translate(208 112)"/><path d="m0 0-31.5-36h27.351C.061-29.26 3.113-23.547 4-20 8.339-2.646 0 0 0 0" style="fill:#bf9a57;fill-opacity:1;fill-rule:nonzero;stroke:none" transform="translate(116 192)"/><path d="m0 0-21.333-32 8-8 32 24s5.278 6.599 12.479 16z" style="fill:#bf9a57;fill-opacity:1;fill-rule:nonzero;stroke:none" transform="translate(49.334 112)"/><path d="m0 0 24-24h8l4 4h-8L4 4Z" style="fill:#191919;fill-opacity:1;fill-rule:nonzero;stroke:none" transform="translate(32 124)"/><path d="m0 0 12 8s12-4 20 12l-4 8S8 32-12 8Z" style="fill:#bf9a57;fill-opacity:1;fill-rule:nonzero;stroke:none" transform="translate(212 152)"/><path d="m0 0 25.171 25.172a2 2 0 0 1 0 2.828L16 37.172a2 2 0 0 1-2.829 0L-12 12a2 2 0 0 1 0-2.828L-2.829 0A2.003 2.003 0 0 1 0 0" style="fill:#262626;fill-opacity:1;fill-rule:nonzero;stroke:none" transform="translate(26.243 110.242)"/><path d="m0 0 4-8s-8 0-16-4-12-16-16-16l-12 8S-8 0 0 0" style="fill:#262626;fill-opacity:1;fill-rule:nonzero;stroke:none" transform="translate(240 180)"/><path d="M0 0c-1.104 0-2 .447-2 1s.896 1 2 1 2-.447 2-1-.896-1-2-1" style="fill:#262626;fill-opacity:1;fill-rule:nonzero;stroke:none" transform="translate(209 93)"/><path d="M0 0c-1.104 0-2 .448-2 1s.896 1 2 1 2-.448 2-1-.896-1-2-1" style="fill:#262626;fill-opacity:1;fill-rule:nonzero;stroke:none" transform="translate(150 170)"/><path d="M0 0c0-1.104-1.791-2-4-2s-4 .896-4 2 1.791 2 4 2 4-.896 4-2" style="fill:#262626;fill-opacity:1;fill-rule:nonzero;stroke:none" transform="translate(208 106)"/><path d="M0 0c0-1.104-1.791-2-4-2s-4 .896-4 2 1.791 2 4 2 4-.896 4-2" style="fill:#262626;fill-opacity:1;fill-rule:nonzero;stroke:none" transform="translate(196 106)"/><path d="M148 68h-4v8h4zm8 0h-4v8h4z" style="fill:#191919;fill-opacity:1;fill-rule:nonzero;stroke:none"/><path d="M148 72h-4v4h4zm8-4h-4v4h4z" style="fill:#262626;fill-opacity:1;fill-rule:nonzero;stroke:none"/><path d="m0 0-12-8s-4-4 8-4c0 0 4-8 8-4l4 4z" style="fill:#262626;fill-opacity:1;fill-rule:nonzero;stroke:none" transform="translate(176.64 144)"/><path d="m0 0-24-16v-4l8-12h12S16-16 16-8C16-8 4 4 0 0" style="fill:#333;fill-opacity:1;fill-rule:nonzero;stroke:none" transform="translate(200.64 164)"/><path d="m0 0 8-8S28 4 24 12 0 0 0 0" style="fill:#404040;fill-opacity:1;fill-rule:nonzero;stroke:none" transform="translate(180.64 148)"/><path d="M0 0v-20l-8-8h-32z" style="fill:#191919;fill-opacity:1;fill-rule:nonzero;stroke:none" transform="translate(112 188)"/><path d="M0 0h-8l-7.114-32.015c-2.091-.133-5.233-1.911-8.096-4.775-3.906-3.904-5.806-8.337-4.243-9.899s5.994.337 9.899 4.243c1.401 1.401 2.538 2.868 3.356 4.248L0-24Z" style="fill:#191919;fill-opacity:1;fill-rule:nonzero;stroke:none" transform="translate(112 220)"/><path d="M0 0c-11.066 0-26.66-6.644-41.712-17.772-9.943-7.351-18.269-15.718-23.445-23.559-4.699-7.12-9.001-17.223-2.807-24.92C-65.854-68.874-61.733-72-54.089-72c11.066 0 26.66 6.644 41.713 17.772 9.942 7.351 18.269 15.718 23.444 23.559 4.7 7.12 9.002 17.223 2.807 24.921C11.765-3.126 7.645 0 0 0m0-7.8c3.365 0 5.95-.872 7.431-2.712 5.356-6.656-5.737-23.463-24.778-37.539C-31.123-58.236-45.282-64.2-54.089-64.2c-3.365 0-5.95.872-7.431 2.712-5.356 6.656 5.737 23.463 24.778 37.539C-22.966-13.764-8.807-7.8 0-7.8" style="fill:#262626;fill-opacity:1;fill-rule:nonzero;stroke:none" transform="translate(111.044 228)"/></g></svg>