<svg xmlns="http://www.w3.org/2000/svg" xml:space="preserve" width="330.667" height="277.333" viewBox="0 0 330.667 277.333"><defs><clipPath id="a" clipPathUnits="userSpaceOnUse"><path d="M0 256h256V0H0Z"/></clipPath><clipPath id="b" clipPathUnits="userSpaceOnUse"><path d="M4 232h248V24H4Z"/></clipPath><clipPath id="c" clipPathUnits="userSpaceOnUse"><path d="M0 256h256V0H0Z"/></clipPath></defs><g clip-path="url(#a)" transform="matrix(1.33333 0 0 -1.33333 -5.333 309.333)"><g clip-path="url(#b)" style="opacity:.5"><path d="M0 0h-148c-7.764 0-14.508-4.447-17.821-10.927C-170.946-4.286-178.982 0-188 0h-12c-15.439 0-28-12.561-28-28v-152c0-15.439 12.561-28 28-28h12c10.667 0 19.961 5.997 24.687 14.796C-161.018-201.718-153.229-208-144-208H0c11.028 0 20 8.972 20 20v168C20-8.972 11.028 0 0 0" style="fill:#fff;fill-opacity:1;fill-rule:nonzero;stroke:none" transform="translate(232 232)"/></g></g><path d="M80 72H60v116h20z" style="fill:#ccc;fill-opacity:1;fill-rule:nonzero;stroke:none" transform="matrix(1.33333 0 0 -1.33333 -5.333 309.333)"/><path d="M80 96H60v72h20z" style="fill:#bfbfbf;fill-opacity:1;fill-rule:nonzero;stroke:none" transform="matrix(1.33333 0 0 -1.33333 -5.333 309.333)"/><g clip-path="url(#c)" transform="matrix(1.33333 0 0 -1.33333 -5.333 309.333)"><path d="M0 0h-12c-11.046 0-20 8.954-20 20v152c0 11.046 8.954 20 20 20H0c11.046 0 20-8.954 20-20V20C20 8.954 11.046 0 0 0" style="fill:#e2e2e2;fill-opacity:1;fill-rule:nonzero;stroke:none" transform="translate(44 32)"/><path d="M0 0c-6.627 0-12-5.373-12-12v-46a2 2 0 0 1 2-2 2 2 0 0 0 2-2v-118c0-6.627 5.373-12 12-12h144c6.627 0 12 5.373 12 12v168c0 6.627-5.373 12-12 12z" style="fill:#e2e2e2;fill-opacity:1;fill-rule:nonzero;stroke:none" transform="translate(84 224)"/><path d="M0 0h-14v4H0a2 2 0 0 0 0-4" style="fill:#ccc;fill-opacity:1;fill-rule:nonzero;stroke:none" transform="translate(86 204)"/><path d="M0 0h-14v4H0a2 2 0 0 0 0-4" style="fill:#ccc;fill-opacity:1;fill-rule:nonzero;stroke:none" transform="translate(86 196)"/><path d="M0 0h-14v4H0a2 2 0 0 0 0-4" style="fill:#ccc;fill-opacity:1;fill-rule:nonzero;stroke:none" transform="translate(86 188)"/><path d="M0 0h18v4H0a2 2 0 0 1 0-4" style="fill:#ccc;fill-opacity:1;fill-rule:nonzero;stroke:none" transform="translate(226 204)"/><path d="M0 0h18v4H0a2 2 0 0 1 0-4" style="fill:#ccc;fill-opacity:1;fill-rule:nonzero;stroke:none" transform="translate(226 196)"/><path d="M0 0h18v4H0a2 2 0 0 1 0-4" style="fill:#ccc;fill-opacity:1;fill-rule:nonzero;stroke:none" transform="translate(226 188)"/><path d="M0 0h-32a8 8 0 0 0-8 8v88a8 8 0 0 0 8 8H0a8 8 0 0 0 8-8V8a8 8 0 0 0-8-8" style="fill:#0000b8;fill-opacity:1;fill-rule:nonzero;stroke:none" transform="translate(216 52)"/><path d="M0 0h-24v4a4 4 0 0 0 4 4h16a4 4 0 0 0 4-4Z" style="fill:#b3b3b3;fill-opacity:1;fill-rule:nonzero;stroke:none" transform="translate(212 64)"/><path d="M0 0h-16a4 4 0 0 0 0 8H0a4 4 0 0 0 0-8" style="fill:#ccc;fill-opacity:1;fill-rule:nonzero;stroke:none" transform="translate(208 60)"/><path d="m0 0 36-36a2 2 0 1 1 2.828 2.828l-36 36a2 2 0 0 1-1.414.586A2 2 0 0 1 0 0" style="fill:#00007b;fill-opacity:1;fill-rule:nonzero;stroke:none" transform="translate(180.586 144.586)"/><path d="M0 0c1.782 0 2.674 2.154 1.414 3.414l-24 24A2 2 0 0 1-24 28c-.561 0-1.12-.234-1.521-.702-.694-.809-.56-2.045.193-2.798L-1.414.586A2 2 0 0 1 0 0" style="fill:#00007b;fill-opacity:1;fill-rule:nonzero;stroke:none" transform="translate(206 108)"/><path d="M0 0h.831c1.52 0 2.28 1.838 1.206 2.912l-.502.502A2 2 0 0 1 .121 4c-.56 0-1.12-.234-1.521-.702-.694-.809-.56-2.045.193-2.798C-.887.18-.453 0 0 0" style="fill:#00007b;fill-opacity:1;fill-rule:nonzero;stroke:none" transform="translate(181.879 108)"/><path d="M0 0c1.782 0 2.674 2.154 1.414 3.414l-12 12A2 2 0 0 1-12 16c-.561 0-1.12-.234-1.521-.702-.694-.809-.56-2.045.193-2.798L-1.414.586A2 2 0 0 1 0 0" style="fill:#00007b;fill-opacity:1;fill-rule:nonzero;stroke:none" transform="translate(194 108)"/><path d="M0 0c-1.782 0-2.674-2.154-1.414-3.414L26.51-31.338c.704-.704 1.839-.876 2.647-.294a2 2 0 0 1 .257 3.046l-28 28A2 2 0 0 1 0 0" style="fill:#00007b;fill-opacity:1;fill-rule:nonzero;stroke:none" transform="translate(190 152)"/><path d="M0 0c-1.782 0-2.674-2.154-1.414-3.414L2.51-7.337c.704-.705 1.839-.877 2.647-.295a2 2 0 0 1 .257 3.046l-4 4A2 2 0 0 1 0 0" style="fill:#00007b;fill-opacity:1;fill-rule:nonzero;stroke:none" transform="translate(214 152)"/><path d="M0 0c-1.782 0-2.674-2.154-1.414-3.414L14.51-19.337c.704-.705 1.839-.877 2.647-.295a2 2 0 0 1 .257 3.046l-16 16A2 2 0 0 1 0 0" style="fill:#00007b;fill-opacity:1;fill-rule:nonzero;stroke:none" transform="translate(202 152)"/><path d="M0 0h-14a2 2 0 0 0-2 2v2a4 4 0 0 1-4 4h-16a4 4 0 0 1-4-4V2a2 2 0 0 0-2-2h-14a8 8 0 0 1-8-8v-88a8 8 0 0 1 8-8H0a8 8 0 0 1 8 8v88a8 8 0 0 1-8 8" style="fill:#ccc;fill-opacity:1;fill-rule:nonzero;stroke:none" transform="translate(156 156)"/><path d="M0 0h-24a2 2 0 0 0-2 2v20a2 2 0 0 0 2 2H0a2 2 0 0 0 2-2V2a2 2 0 0 0-2-2" style="fill:#b80000;fill-opacity:1;fill-rule:nonzero;stroke:none" transform="translate(122 104)"/><path d="M0 0c0-5.522-4.477-10-10-10S-20-5.522-20 0s4.477 10 10 10S0 5.522 0 0" style="fill:red;fill-opacity:1;fill-rule:nonzero;stroke:none" transform="translate(120 116)"/><path d="M0 0h-24a2 2 0 0 0-2 2v20a2 2 0 0 0 2 2H0a2 2 0 0 0 2-2V2a2 2 0 0 0-2-2" style="fill:#007b00;fill-opacity:1;fill-rule:nonzero;stroke:none" transform="translate(158 104)"/><path d="M0 0c0-5.522-4.478-10-10-10S-20-5.522-20 0s4.478 10 10 10S0 5.522 0 0" style="fill:#00b800;fill-opacity:1;fill-rule:nonzero;stroke:none" transform="translate(156 116)"/><path d="M0 0h-24a2 2 0 0 0-2 2v20a2 2 0 0 0 2 2H0a2 2 0 0 0 2-2V2a2 2 0 0 0-2-2" style="fill:#00007b;fill-opacity:1;fill-rule:nonzero;stroke:none" transform="translate(122 56)"/><path d="M0 0c0-5.522-4.477-10-10-10S-20-5.522-20 0s4.477 10 10 10S0 5.522 0 0" style="fill:#0000b8;fill-opacity:1;fill-rule:nonzero;stroke:none" transform="translate(120 68)"/><path d="M0 0h-24a2 2 0 0 0-2 2v20a2 2 0 0 0 2 2H0a2 2 0 0 0 2-2V2a2 2 0 0 0-2-2" style="fill:#d4a600;fill-opacity:1;fill-rule:nonzero;stroke:none" transform="translate(158 56)"/><path d="M0 0c0-5.522-4.478-10-10-10S-20-5.522-20 0s4.478 10 10 10S0 5.522 0 0" style="fill:#eac500;fill-opacity:1;fill-rule:nonzero;stroke:none" transform="translate(156 68)"/></g></svg>