<?xml version="1.0" encoding="UTF-8" standalone="no"?>
<svg
   xmlns:dc="http://purl.org/dc/elements/1.1/"
   xmlns:cc="http://creativecommons.org/ns#"
   xmlns:rdf="http://www.w3.org/1999/02/22-rdf-syntax-ns#"
   xmlns:svg="http://www.w3.org/2000/svg"
   xmlns="http://www.w3.org/2000/svg"
   viewBox="0 0 330.66665 277.33331"
   height="277.33331"
   width="330.66666"
   xml:space="preserve"
   id="svg2"
   version="1.1"><metadata
     id="metadata8"><rdf:RDF><cc:Work
         rdf:about=""><dc:format>image/svg+xml</dc:format><dc:type
           rdf:resource="http://purl.org/dc/dcmitype/StillImage" /></cc:Work></rdf:RDF></metadata><defs
     id="defs6"><clipPath
       id="clipPath18"
       clipPathUnits="userSpaceOnUse"><path
         id="path16"
         d="M 0,256 H 256 V 0 H 0 Z" /></clipPath><clipPath
       id="clipPath26"
       clipPathUnits="userSpaceOnUse"><path
         id="path24"
         d="M 4,232 H 252 V 24 H 4 Z" /></clipPath><clipPath
       id="clipPath46"
       clipPathUnits="userSpaceOnUse"><path
         id="path44"
         d="M 0,256 H 256 V 0 H 0 Z" /></clipPath></defs><g
     transform="matrix(1.3333333,0,0,-1.3333333,-5.3333332,309.33333)"
     id="g10"><g
       id="g12"><g
         clip-path="url(#clipPath18)"
         id="g14"><g
           id="g20"><g
             id="g22" /><g
             id="g34"><g
               style="opacity:0.5"
               id="g32"
               clip-path="url(#clipPath26)"><g
                 id="g30"
                 transform="translate(232,232)"><path
                   id="path28"
                   style="fill:#ffffff;fill-opacity:1;fill-rule:nonzero;stroke:none"
                   d="m 0,0 h -148 c -7.764,0 -14.508,-4.447 -17.821,-10.927 C -170.946,-4.286 -178.982,0 -188,0 h -12 c -15.439,0 -28,-12.561 -28,-28 v -152 c 0,-15.439 12.561,-28 28,-28 h 12 c 10.667,0 19.961,5.997 24.687,14.796 2.295,-8.514 10.084,-14.796 19.313,-14.796 H 0 c 11.028,0 20,8.972 20,20 V -20 C 20,-8.972 11.028,0 0,0" /></g></g></g></g></g></g><path
       id="path36"
       style="fill:#cccccc;fill-opacity:1;fill-rule:nonzero;stroke:none"
       d="M 80,72 H 60 v 116 h 20 z" /><path
       id="path38"
       style="fill:#bfbfbf;fill-opacity:1;fill-rule:nonzero;stroke:none"
       d="M 80,96 H 60 v 72 h 20 z" /><g
       id="g40"><g
         clip-path="url(#clipPath46)"
         id="g42"><g
           transform="translate(44,32)"
           id="g48"><path
             id="path50"
             style="fill:#e2e2e2;fill-opacity:1;fill-rule:nonzero;stroke:none"
             d="m 0,0 h -12 c -11.046,0 -20,8.954 -20,20 v 152 c 0,11.046 8.954,20 20,20 H 0 c 11.046,0 20,-8.954 20,-20 V 20 C 20,8.954 11.046,0 0,0" /></g><g
           transform="translate(84,224)"
           id="g52"><path
             id="path54"
             style="fill:#e2e2e2;fill-opacity:1;fill-rule:nonzero;stroke:none"
             d="m 0,0 c -6.627,0 -12,-5.373 -12,-12 v -46 c 0,-1.104 0.896,-2 2,-2 1.104,0 2,-0.896 2,-2 v -118 c 0,-6.627 5.373,-12 12,-12 h 144 c 6.627,0 12,5.373 12,12 v 168 c 0,6.627 -5.373,12 -12,12 z" /></g><g
           transform="translate(86,204)"
           id="g56"><path
             id="path58"
             style="fill:#cccccc;fill-opacity:1;fill-rule:nonzero;stroke:none"
             d="M 0,0 H -14 V 4 H 0 C 1.104,4 2,3.104 2,2 2,0.896 1.104,0 0,0" /></g><g
           transform="translate(86,196)"
           id="g60"><path
             id="path62"
             style="fill:#cccccc;fill-opacity:1;fill-rule:nonzero;stroke:none"
             d="M 0,0 H -14 V 4 H 0 C 1.104,4 2,3.104 2,2 2,0.896 1.104,0 0,0" /></g><g
           transform="translate(86,188)"
           id="g64"><path
             id="path66"
             style="fill:#cccccc;fill-opacity:1;fill-rule:nonzero;stroke:none"
             d="M 0,0 H -14 V 4 H 0 C 1.104,4 2,3.104 2,2 2,0.896 1.104,0 0,0" /></g><g
           transform="translate(226,204)"
           id="g68"><path
             id="path70"
             style="fill:#cccccc;fill-opacity:1;fill-rule:nonzero;stroke:none"
             d="M 0,0 H 18 V 4 H 0 C -1.104,4 -2,3.104 -2,2 -2,0.896 -1.104,0 0,0" /></g><g
           transform="translate(226,196)"
           id="g72"><path
             id="path74"
             style="fill:#cccccc;fill-opacity:1;fill-rule:nonzero;stroke:none"
             d="M 0,0 H 18 V 4 H 0 C -1.104,4 -2,3.104 -2,2 -2,0.896 -1.104,0 0,0" /></g><g
           transform="translate(226,188)"
           id="g76"><path
             id="path78"
             style="fill:#cccccc;fill-opacity:1;fill-rule:nonzero;stroke:none"
             d="M 0,0 H 18 V 4 H 0 C -1.104,4 -2,3.104 -2,2 -2,0.896 -1.104,0 0,0" /></g><g
           transform="translate(216,52)"
           id="g80"><path
             id="path82"
             style="fill:#0000b8;fill-opacity:1;fill-rule:nonzero;stroke:none"
             d="m 0,0 h -32 c -4.418,0 -8,3.582 -8,8 v 88 c 0,4.418 3.582,8 8,8 H 0 c 4.418,0 8,-3.582 8,-8 V 8 C 8,3.582 4.418,0 0,0" /></g><g
           transform="translate(212,64)"
           id="g84"><path
             id="path86"
             style="fill:#b3b3b3;fill-opacity:1;fill-rule:nonzero;stroke:none"
             d="m 0,0 h -24 v 4 c 0,2.209 1.791,4 4,4 H -4 C -1.791,8 0,6.209 0,4 Z" /></g><g
           transform="translate(208,60)"
           id="g88"><path
             id="path90"
             style="fill:#cccccc;fill-opacity:1;fill-rule:nonzero;stroke:none"
             d="m 0,0 h -16 c -2.209,0 -4,1.791 -4,4 0,2.209 1.791,4 4,4 H 0 C 2.209,8 4,6.209 4,4 4,1.791 2.209,0 0,0" /></g><g
           transform="translate(180.5859,144.5859)"
           id="g92"><path
             id="path94"
             style="fill:#00007b;fill-opacity:1;fill-rule:nonzero;stroke:none"
             d="m 0,0 36,-36 c 0.781,-0.781 2.047,-0.781 2.828,0 0.781,0.781 0.781,2.047 0,2.828 l -36,36 C 2.438,3.219 1.926,3.414 1.414,3.414 0.902,3.414 0.391,3.219 0,2.828 -0.781,2.047 -0.781,0.781 0,0" /></g><g
           transform="translate(206,108)"
           id="g96"><path
             id="path98"
             style="fill:#00007b;fill-opacity:1;fill-rule:nonzero;stroke:none"
             d="m 0,0 v 0 c 1.782,0 2.674,2.154 1.414,3.414 l -24,24 C -22.977,27.805 -23.488,28 -24,28 c -0.561,0 -1.12,-0.234 -1.521,-0.702 -0.694,-0.809 -0.56,-2.045 0.193,-2.798 L -1.414,0.586 C -1.039,0.211 -0.53,0 0,0" /></g><g
           transform="translate(181.8789,108)"
           id="g100"><path
             id="path102"
             style="fill:#00007b;fill-opacity:1;fill-rule:nonzero;stroke:none"
             d="m 0,0 h 0.831 c 1.52,0 2.28,1.838 1.206,2.912 L 1.535,3.414 C 1.145,3.805 0.633,4 0.121,4 -0.439,4 -0.999,3.766 -1.4,3.298 -2.094,2.489 -1.96,1.253 -1.207,0.5 -0.887,0.18 -0.453,0 0,0" /></g><g
           transform="translate(194,108)"
           id="g104"><path
             id="path106"
             style="fill:#00007b;fill-opacity:1;fill-rule:nonzero;stroke:none"
             d="m 0,0 v 0 c 1.782,0 2.674,2.154 1.414,3.414 l -12,12 C -10.977,15.805 -11.488,16 -12,16 c -0.561,0 -1.12,-0.234 -1.521,-0.702 -0.694,-0.809 -0.56,-2.045 0.193,-2.798 L -1.414,0.586 C -1.039,0.211 -0.53,0 0,0" /></g><g
           transform="translate(190,152)"
           id="g108"><path
             id="path110"
             style="fill:#00007b;fill-opacity:1;fill-rule:nonzero;stroke:none"
             d="M 0,0 V 0 C -1.782,0 -2.674,-2.154 -1.414,-3.414 L 26.51,-31.338 c 0.704,-0.704 1.839,-0.876 2.647,-0.294 1.03,0.741 1.116,2.188 0.257,3.046 l -28,28 C 1.039,-0.21 0.53,0 0,0" /></g><g
           transform="translate(214,152)"
           id="g112"><path
             id="path114"
             style="fill:#00007b;fill-opacity:1;fill-rule:nonzero;stroke:none"
             d="M 0,0 V 0 C -1.782,0 -2.674,-2.154 -1.414,-3.414 L 2.51,-7.337 c 0.704,-0.705 1.839,-0.877 2.647,-0.295 1.03,0.741 1.116,2.188 0.257,3.046 l -4,4 C 1.039,-0.21 0.53,0 0,0" /></g><g
           transform="translate(202,152)"
           id="g116"><path
             id="path118"
             style="fill:#00007b;fill-opacity:1;fill-rule:nonzero;stroke:none"
             d="M 0,0 V 0 C -1.782,0 -2.674,-2.154 -1.414,-3.414 L 14.51,-19.337 c 0.704,-0.705 1.839,-0.877 2.647,-0.295 1.03,0.741 1.116,2.188 0.257,3.046 l -16,16 C 1.039,-0.21 0.53,0 0,0" /></g><g
           transform="translate(156,156)"
           id="g120"><path
             id="path122"
             style="fill:#cccccc;fill-opacity:1;fill-rule:nonzero;stroke:none"
             d="m 0,0 h -14 c -1.104,0 -2,0.896 -2,2 v 2 c 0,2.209 -1.791,4 -4,4 h -16 c -2.209,0 -4,-1.791 -4,-4 V 2 c 0,-1.104 -0.896,-2 -2,-2 h -14 c -4.418,0 -8,-3.582 -8,-8 v -88 c 0,-4.418 3.582,-8 8,-8 H 0 c 4.418,0 8,3.582 8,8 V -8 C 8,-3.582 4.418,0 0,0" /></g><g
           transform="translate(122,104)"
           id="g124"><path
             id="path126"
             style="fill:#b80000;fill-opacity:1;fill-rule:nonzero;stroke:none"
             d="m 0,0 h -24 c -1.104,0 -2,0.896 -2,2 v 20 c 0,1.104 0.896,2 2,2 H 0 c 1.104,0 2,-0.896 2,-2 V 2 C 2,0.896 1.104,0 0,0" /></g><g
           transform="translate(120,116)"
           id="g128"><path
             id="path130"
             style="fill:#ff0000;fill-opacity:1;fill-rule:nonzero;stroke:none"
             d="m 0,0 c 0,-5.522 -4.477,-10 -10,-10 -5.523,0 -10,4.478 -10,10 0,5.522 4.477,10 10,10 C -4.477,10 0,5.522 0,0" /></g><g
           transform="translate(158,104)"
           id="g132"><path
             id="path134"
             style="fill:#007b00;fill-opacity:1;fill-rule:nonzero;stroke:none"
             d="m 0,0 h -24 c -1.104,0 -2,0.896 -2,2 v 20 c 0,1.104 0.896,2 2,2 H 0 c 1.104,0 2,-0.896 2,-2 V 2 C 2,0.896 1.104,0 0,0" /></g><g
           transform="translate(156,116)"
           id="g136"><path
             id="path138"
             style="fill:#00b800;fill-opacity:1;fill-rule:nonzero;stroke:none"
             d="m 0,0 c 0,-5.522 -4.478,-10 -10,-10 -5.522,0 -10,4.478 -10,10 0,5.522 4.478,10 10,10 C -4.478,10 0,5.522 0,0" /></g><g
           transform="translate(122,56)"
           id="g140"><path
             id="path142"
             style="fill:#00007b;fill-opacity:1;fill-rule:nonzero;stroke:none"
             d="m 0,0 h -24 c -1.104,0 -2,0.896 -2,2 v 20 c 0,1.104 0.896,2 2,2 H 0 c 1.104,0 2,-0.896 2,-2 V 2 C 2,0.896 1.104,0 0,0" /></g><g
           transform="translate(120,68)"
           id="g144"><path
             id="path146"
             style="fill:#0000b8;fill-opacity:1;fill-rule:nonzero;stroke:none"
             d="m 0,0 c 0,-5.522 -4.477,-10 -10,-10 -5.523,0 -10,4.478 -10,10 0,5.522 4.477,10 10,10 C -4.477,10 0,5.522 0,0" /></g><g
           transform="translate(158,56)"
           id="g148"><path
             id="path150"
             style="fill:#d4a600;fill-opacity:1;fill-rule:nonzero;stroke:none"
             d="m 0,0 h -24 c -1.104,0 -2,0.896 -2,2 v 20 c 0,1.104 0.896,2 2,2 H 0 c 1.104,0 2,-0.896 2,-2 V 2 C 2,0.896 1.104,0 0,0" /></g><g
           transform="translate(156,68)"
           id="g152"><path
             id="path154"
             style="fill:#eac500;fill-opacity:1;fill-rule:nonzero;stroke:none"
             d="m 0,0 c 0,-5.522 -4.478,-10 -10,-10 -5.522,0 -10,4.478 -10,10 0,5.522 4.478,10 10,10 C -4.478,10 0,5.522 0,0" /></g></g></g></g></svg>