<?xml version="1.0" encoding="iso-8859-1"?>
<!-- Generator: Adobe Illustrator 27.8.1, SVG Export Plug-In . SVG Version: 6.00 Build 0)  -->
<svg version="1.1" id="Layer_1" xmlns="http://www.w3.org/2000/svg" xmlns:xlink="http://www.w3.org/1999/xlink" x="0px" y="0px"
	 viewBox="0 0 256 256" style="enable-background:new 0 0 256 256;" xml:space="preserve">
<g id="g12">
	<g id="g14">
		<g id="g22">
		</g>
		<g id="g20">
			<g id="g34">
				<defs>
					<rect id="SVGID_1_" x="4" y="52" width="248" height="152"/>
				</defs>
				<clipPath id="SVGID_00000013896457260750061110000010410132733274331029_">
					<use xlink:href="#SVGID_1_"  style="overflow:visible;"/>
				</clipPath>
				<g id="g32" style="opacity:0.5;clip-path:url(#SVGID_00000013896457260750061110000010410132733274331029_);">
					<g id="g30" transform="translate(252,204)">
						<path id="path28" style="fill:#FFFFFF;" d="M0-152h-8h-232h-8v8V-8v8h8H-8h8v-8v-136V-152z"/>
					</g>
				</g>
			</g>
		</g>
	</g>
</g>
<path id="path36" style="fill:#D9D4BC;" d="M244,196H12V60h232V196z"/>
<path id="path38" style="fill:#808080;" d="M240,176h-40v-48h40V176z"/>
<path id="path40" style="fill:#A6A390;" d="M196,176H24v-48h172V176z"/>
<path id="path42" style="fill:#C4C0AA;" d="M32,136h-8v-8h8V136z"/>
<path id="path44" style="fill:#C4C0AA;" d="M36,148H24v-8h12V148z"/>
<path id="path46" style="fill:#C4C0AA;" d="M44,136h-8v-8h8V136z"/>
<path id="path48" style="fill:#C4C0AA;" d="M48,148h-8v-8h8V148z"/>
<path id="path50" style="fill:#C4C0AA;" d="M60,148h-8v-8h8V148z"/>
<path id="path52" style="fill:#C4C0AA;" d="M72,148h-8v-8h8V148z"/>
<path id="path54" style="fill:#C4C0AA;" d="M84,148h-8v-8h8V148z"/>
<path id="path56" style="fill:#C4C0AA;" d="M96,148h-8v-8h8V148z"/>
<path id="path58" style="fill:#C4C0AA;" d="M108,148h-8v-8h8V148z"/>
<path id="path60" style="fill:#C4C0AA;" d="M120,148h-8v-8h8V148z"/>
<path id="path62" style="fill:#C4C0AA;" d="M132,148h-8v-8h8V148z"/>
<path id="path64" style="fill:#C4C0AA;" d="M144,148h-8v-8h8V148z"/>
<path id="path66" style="fill:#C4C0AA;" d="M156,148h-8v-8h8V148z"/>
<path id="path68" style="fill:#C4C0AA;" d="M52,160h-8v-8h8V160z"/>
<path id="path70" style="fill:#C4C0AA;" d="M40,160h-8v-8h8V160z"/>
<path id="path72" style="fill:#C4C0AA;" d="M64,160h-8v-8h8V160z"/>
<path id="path74" style="fill:#C4C0AA;" d="M76,160h-8v-8h8V160z"/>
<path id="path76" style="fill:#C4C0AA;" d="M88,160h-8v-8h8V160z"/>
<path id="path78" style="fill:#C4C0AA;" d="M100,160h-8v-8h8V160z"/>
<path id="path80" style="fill:#C4C0AA;" d="M112,160h-8v-8h8V160z"/>
<path id="path82" style="fill:#C4C0AA;" d="M124,160h-8v-8h8V160z"/>
<path id="path84" style="fill:#C4C0AA;" d="M136,160h-8v-8h8V160z"/>
<path id="path86" style="fill:#C4C0AA;" d="M148,160h-8v-8h8V160z"/>
<path id="path88" style="fill:#C4C0AA;" d="M160,160h-8v-8h8V160z"/>
<path id="path90" style="fill:#C4C0AA;" d="M60,172h-8v-8h8V172z"/>
<path id="path92" style="fill:#C4C0AA;" d="M48,172H36v-8h12V172z"/>
<path id="path94" style="fill:#C4C0AA;" d="M32,172h-8v-8h8V172z"/>
<path id="path96" style="fill:#C4C0AA;" d="M72,172h-8v-8h8V172z"/>
<path id="path98" style="fill:#C4C0AA;" d="M84,172h-8v-8h8V172z"/>
<path id="path100" style="fill:#C4C0AA;" d="M96,172h-8v-8h8V172z"/>
<path id="path102" style="fill:#C4C0AA;" d="M108,172h-8v-8h8V172z"/>
<path id="path104" style="fill:#C4C0AA;" d="M120,172h-8v-8h8V172z"/>
<path id="path106" style="fill:#C4C0AA;" d="M132,172h-8v-8h8V172z"/>
<path id="path108" style="fill:#C4C0AA;" d="M144,172h-8v-8h8V172z"/>
<path id="path110" style="fill:#C4C0AA;" d="M156,172h-8v-8h8V172z"/>
<path id="path112" style="fill:#C4C0AA;" d="M184,172h-4v-8h4V172z"/>
<path id="path114" style="fill:#C4C0AA;" d="M192,172h-4v-8h4V172z"/>
<path id="path116" style="fill:#C4C0AA;" d="M176,172h-16v-8h16V172z"/>
<path id="path118" style="fill:#C4C0AA;" d="M56,136h-8v-8h8V136z"/>
<path id="path120" style="fill:#C4C0AA;" d="M68,136h-8v-8h8V136z"/>
<path id="path122" style="fill:#C4C0AA;" d="M80,136h-8v-8h8V136z"/>
<path id="path124" style="fill:#C4C0AA;" d="M92,136h-8v-8h8V136z"/>
<path id="path126" style="fill:#C4C0AA;" d="M104,136h-8v-8h8V136z"/>
<path id="path128" style="fill:#C4C0AA;" d="M116,136h-8v-8h8V136z"/>
<path id="path130" style="fill:#C4C0AA;" d="M128,136h-8v-8h8V136z"/>
<path id="path132" style="fill:#C4C0AA;" d="M140,136h-8v-8h8V136z"/>
<path id="path134" style="fill:#C4C0AA;" d="M152,136h-8v-8h8V136z"/>
<path id="path136" style="fill:#C4C0AA;" d="M164,136h-8v-8h8V136z"/>
<path id="path138" style="fill:#C4C0AA;" d="M176,136h-8v-8h8V136z"/>
<path id="path140" style="fill:#A6A390;" d="M212,136h-8v-8h8V136z"/>
<path id="path142" style="fill:#A6A390;" d="M224,136h-8v-8h8V136z"/>
<path id="path144" style="fill:#A6A390;" d="M236,136h-8v-8h8V136z"/>
<path id="path146" style="fill:#A6A390;" d="M212,148h-8v-8h8V148z"/>
<path id="path148" style="fill:#A6A390;" d="M224,148h-8v-8h8V148z"/>
<path id="path150" style="fill:#A6A390;" d="M236,148h-8v-8h8V148z"/>
<path id="path152" style="fill:#A6A390;" d="M212,160h-8v-8h8V160z"/>
<path id="path154" style="fill:#A6A390;" d="M224,160h-8v-8h8V160z"/>
<path id="path156" style="fill:#A6A390;" d="M236,160h-8v-8h8V160z"/>
<path id="path158" style="fill:#A6A390;" d="M212,172h-8v-8h8V172z"/>
<path id="path160" style="fill:#A6A390;" d="M224,172h-8v-8h8V172z"/>
<path id="path162" style="fill:#A6A390;" d="M236,172h-8v-8h8V172z"/>
<path id="path164" style="fill:#EAC500;" d="M176,160h-12v-20h12V160z"/>
<path id="path166" style="fill:#C4C0AA;" d="M152,184H64v-8h88V184z"/>
<path id="path168" style="fill:#C4C0AA;" d="M36,124H24v-4h12V124z"/>
<path id="path170" style="fill:#C4C0AA;" d="M52,124H40v-4h12V124z"/>
<path id="path172" style="fill:#C4C0AA;" d="M68,124H56v-4h12V124z"/>
<path id="path174" style="fill:#C4C0AA;" d="M84,124H72v-4h12V124z"/>
<path id="path176" style="fill:#C4C0AA;" d="M100,124H88v-4h12V124z"/>
<path id="path178" style="fill:#C4C0AA;" d="M240,112H24V60h216V112z"/>
<path id="path180" style="fill:#A6A390;" d="M228,96h-72v-8h72V96z"/>
<path id="path182" style="fill:#4B5DA7;" d="M156,96h-52v-8h52V96z"/>
<path id="path184" style="fill:#A6A390;" d="M228,84h-4V64h4V84z"/>
<path id="path186" style="fill:#A6A390;" d="M220,84h-4V64h4V84z"/>
<path id="path188" style="fill:#A6A390;" d="M212,84h-4V64h4V84z"/>
<path id="path190" style="fill:#A6A390;" d="M204,84h-4V64h4V84z"/>
<path id="path192" style="fill:#A6A390;" d="M196,84h-4V64h4V84z"/>
<path id="path194" style="fill:#A6A390;" d="M188,84h-4V64h4V84z"/>
<path id="path196" style="fill:#A6A390;" d="M180,84h-4V64h4V84z"/>
<path id="path198" style="fill:#A6A390;" d="M172,84h-4V64h4V84z"/>
<path id="path200" style="fill:#A6A390;" d="M164,84h-4V64h4V84z"/>
<path id="path202" style="fill:#A6A390;" d="M156,68h-4v-4h4V68z"/>
<path id="path204" style="fill:#A6A390;" d="M148,68h-4v-4h4V68z"/>
<path id="path206" style="fill:#A6A390;" d="M140,68h-4v-4h4V68z"/>
<path id="path208" style="fill:#A6A390;" d="M132,68h-4v-4h4V68z"/>
<path id="path210" style="fill:#A6A390;" d="M124,68h-4v-4h4V68z"/>
<path id="path212" style="fill:#A6A390;" d="M116,68h-4v-4h4V68z"/>
<path id="path214" style="fill:#A6A390;" d="M108,68h-4v-4h4V68z"/>
<path id="path216" style="fill:#A6A390;" d="M100,68h-4v-4h4V68z"/>
<path id="path218" style="fill:#A6A390;" d="M92,68h-4v-4h4V68z"/>
<path id="path220" style="fill:#A6A390;" d="M84,68h-4v-4h4V68z"/>
<path id="path222" style="fill:#A6A390;" d="M76,68h-4v-4h4V68z"/>
<path id="path224" style="fill:#A6A390;" d="M68,68h-4v-4h4V68z"/>
<path id="path226" style="fill:#A6A390;" d="M60,68h-4v-4h4V68z"/>
<path id="path228" style="fill:#A6A390;" d="M52,68h-4v-4h4V68z"/>
<path id="path230" style="fill:#A6A390;" d="M44,68h-4v-4h4V68z"/>
<path id="path232" style="fill:#A6A390;" d="M36,68h-4v-4h4V68z"/>
<path id="path234" style="fill:#A6A390;" d="M156,76h-4v-4h4V76z"/>
<path id="path236" style="fill:#A6A390;" d="M148,76h-4v-4h4V76z"/>
<path id="path238" style="fill:#A6A390;" d="M140,76h-4v-4h4V76z"/>
<path id="path240" style="fill:#A6A390;" d="M132,76h-4v-4h4V76z"/>
<path id="path242" style="fill:#A6A390;" d="M124,76h-4v-4h4V76z"/>
<path id="path244" style="fill:#A6A390;" d="M116,76h-4v-4h4V76z"/>
<path id="path246" style="fill:#A6A390;" d="M108,76h-4v-4h4V76z"/>
<path id="path248" style="fill:#A6A390;" d="M100,76h-4v-4h4V76z"/>
<path id="path250" style="fill:#A6A390;" d="M92,76h-4v-4h4V76z"/>
<path id="path252" style="fill:#A6A390;" d="M84,76h-4v-4h4V76z"/>
<path id="path254" style="fill:#A6A390;" d="M76,76h-4v-4h4V76z"/>
<path id="path256" style="fill:#A6A390;" d="M68,76h-4v-4h4V76z"/>
<path id="path258" style="fill:#A6A390;" d="M60,76h-4v-4h4V76z"/>
<path id="path260" style="fill:#A6A390;" d="M52,76h-4v-4h4V76z"/>
<path id="path262" style="fill:#A6A390;" d="M44,76h-4v-4h4V76z"/>
<path id="path264" style="fill:#A6A390;" d="M36,76h-4v-4h4V76z"/>
<path id="path266" style="fill:#A6A390;" d="M156,84h-4v-4h4V84z"/>
<path id="path268" style="fill:#A6A390;" d="M148,84h-4v-4h4V84z"/>
<path id="path270" style="fill:#A6A390;" d="M140,84h-4v-4h4V84z"/>
<path id="path272" style="fill:#A6A390;" d="M132,84h-4v-4h4V84z"/>
<path id="path274" style="fill:#A6A390;" d="M124,84h-4v-4h4V84z"/>
<path id="path276" style="fill:#A6A390;" d="M116,84h-4v-4h4V84z"/>
<path id="path278" style="fill:#A6A390;" d="M108,84h-4v-4h4V84z"/>
<path id="path280" style="fill:#A6A390;" d="M100,84h-4v-4h4V84z"/>
<path id="path282" style="fill:#A6A390;" d="M92,84h-4v-4h4V84z"/>
<path id="path284" style="fill:#A6A390;" d="M84,84h-4v-4h4V84z"/>
<path id="path286" style="fill:#A6A390;" d="M76,84h-4v-4h4V84z"/>
<path id="path288" style="fill:#A6A390;" d="M68,84h-4v-4h4V84z"/>
<path id="path290" style="fill:#A6A390;" d="M60,84h-4v-4h4V84z"/>
<path id="path292" style="fill:#A6A390;" d="M52,84h-4v-4h4V84z"/>
<path id="path294" style="fill:#A6A390;" d="M44,84h-4v-4h4V84z"/>
<path id="path296" style="fill:#A6A390;" d="M36,84h-4v-4h4V84z"/>
<path id="path298" style="fill:#A6A390;" d="M100,92h-4v-4h4V92z"/>
<path id="path300" style="fill:#A6A390;" d="M92,92h-4v-4h4V92z"/>
<path id="path302" style="fill:#A6A390;" d="M84,92h-4v-4h4V92z"/>
<path id="path304" style="fill:#A6A390;" d="M76,92h-4v-4h4V92z"/>
<path id="path306" style="fill:#A6A390;" d="M68,92h-4v-4h4V92z"/>
<path id="path308" style="fill:#A6A390;" d="M60,92h-4v-4h4V92z"/>
<path id="path310" style="fill:#A6A390;" d="M52,92h-4v-4h4V92z"/>
<path id="path312" style="fill:#A6A390;" d="M44,92h-4v-4h4V92z"/>
<path id="path314" style="fill:#A6A390;" d="M36,92h-4v-4h4V92z"/>
<path id="path316" style="fill:#A6A390;" d="M100,100h-4v-4h4V100z"/>
<path id="path318" style="fill:#A6A390;" d="M92,100h-4v-4h4V100z"/>
<path id="path320" style="fill:#A6A390;" d="M84,100h-4v-4h4V100z"/>
<path id="path322" style="fill:#A6A390;" d="M76,100h-4v-4h4V100z"/>
<path id="path324" style="fill:#A6A390;" d="M68,100h-4v-4h4V100z"/>
<path id="path326" style="fill:#A6A390;" d="M60,100h-4v-4h4V100z"/>
<path id="path328" style="fill:#A6A390;" d="M52,100h-4v-4h4V100z"/>
<path id="path330" style="fill:#A6A390;" d="M44,100h-4v-4h4V100z"/>
<path id="path332" style="fill:#A6A390;" d="M36,100h-4v-4h4V100z"/>
<path id="path334" style="fill:#A6A390;" d="M100,108h-4v-4h4V108z"/>
<path id="path336" style="fill:#A6A390;" d="M92,108h-4v-4h4V108z"/>
<path id="path338" style="fill:#A6A390;" d="M84,108h-4v-4h4V108z"/>
<path id="path340" style="fill:#A6A390;" d="M76,108h-4v-4h4V108z"/>
<path id="path342" style="fill:#A6A390;" d="M68,108h-4v-4h4V108z"/>
<path id="path344" style="fill:#A6A390;" d="M60,108h-4v-4h4V108z"/>
<path id="path346" style="fill:#A6A390;" d="M52,108h-4v-4h4V108z"/>
<path id="path348" style="fill:#A6A390;" d="M44,108h-4v-4h4V108z"/>
<path id="path350" style="fill:#A6A390;" d="M36,108h-4v-4h4V108z"/>
<path id="path352" style="fill:#A6A390;" d="M204,120h-8v-4h8V120z"/>
<path id="path354" style="fill:#A6A390;" d="M216,120h-8v-4h8V120z"/>
<path id="path356" style="fill:#A6A390;" d="M108,104h-4v-8h4V104z"/>
<path id="path358" style="fill:#A6A390;" d="M156,104h-4v-8h4V104z"/>
<path id="path360" style="fill:#A6A390;" d="M152,108h-44v-4h44V108z"/>
<path id="path362" style="fill:#C4C0AA;" d="M28,160h-4v-8h4V160z"/>
<path id="path364" style="fill:#C4C0AA;" d="M192,160h-12v-8h12V160z"/>
<path id="path366" style="fill:#C4C0AA;" d="M192,136h-12v-8h12V136z"/>
<path id="path368" style="fill:#C4C0AA;" d="M184,148h-4v-8h4V148z"/>
<path id="path370" style="fill:#C4C0AA;" d="M192,148h-4v-8h4V148z"/>
</svg>
