<svg xmlns="http://www.w3.org/2000/svg" xmlns:xlink="http://www.w3.org/1999/xlink" xml:space="preserve" viewBox="0 0 256 256"><defs><path id="a" d="M4 52h248v152H4z"/></defs><clipPath id="b"><use xlink:href="#a" style="overflow:visible"/></clipPath><g style="opacity:.5;clip-path:url(#b)"><path d="M0-152h-248V0H0z" style="fill:#fff" transform="translate(252 204)"/></g><path d="M244 196H12V60h232z" style="fill:#d9d4bc"/><path d="M240 176h-40v-48h40z" style="fill:gray"/><path d="M196 176H24v-48h172z" style="fill:#a6a390"/><path d="M32 136h-8v-8h8zm4 12H24v-8h12zm8-12h-8v-8h8zm4 12h-8v-8h8zm12 0h-8v-8h8zm12 0h-8v-8h8zm12 0h-8v-8h8zm12 0h-8v-8h8zm12 0h-8v-8h8zm12 0h-8v-8h8zm12 0h-8v-8h8zm12 0h-8v-8h8zm12 0h-8v-8h8zM52 160h-8v-8h8zm-12 0h-8v-8h8zm24 0h-8v-8h8zm12 0h-8v-8h8zm12 0h-8v-8h8zm12 0h-8v-8h8zm12 0h-8v-8h8zm12 0h-8v-8h8zm12 0h-8v-8h8zm12 0h-8v-8h8zm12 0h-8v-8h8zM60 172h-8v-8h8zm-12 0H36v-8h12zm-16 0h-8v-8h8zm40 0h-8v-8h8zm12 0h-8v-8h8zm12 0h-8v-8h8zm12 0h-8v-8h8zm12 0h-8v-8h8zm12 0h-8v-8h8zm12 0h-8v-8h8zm12 0h-8v-8h8zm28 0h-4v-8h4zm8 0h-4v-8h4zm-16 0h-16v-8h16zM56 136h-8v-8h8zm12 0h-8v-8h8zm12 0h-8v-8h8zm12 0h-8v-8h8zm12 0h-8v-8h8zm12 0h-8v-8h8zm12 0h-8v-8h8zm12 0h-8v-8h8zm12 0h-8v-8h8zm12 0h-8v-8h8zm12 0h-8v-8h8z" style="fill:#c4c0aa"/><path d="M212 136h-8v-8h8zm12 0h-8v-8h8zm12 0h-8v-8h8zm-24 12h-8v-8h8zm12 0h-8v-8h8zm12 0h-8v-8h8zm-24 12h-8v-8h8zm12 0h-8v-8h8zm12 0h-8v-8h8zm-24 12h-8v-8h8zm12 0h-8v-8h8zm12 0h-8v-8h8z" style="fill:#a6a390"/><path d="M176 160h-12v-20h12z" style="fill:#eac500"/><path d="M152 184H64v-8h88zM36 124H24v-4h12zm16 0H40v-4h12zm16 0H56v-4h12zm16 0H72v-4h12zm16 0H88v-4h12zm140-12H24V60h216z" style="fill:#c4c0aa"/><path d="M228 96h-72v-8h72z" style="fill:#a6a390"/><path d="M156 96h-52v-8h52z" style="fill:#4b5da7"/><path d="M228 84h-4V64h4zm-8 0h-4V64h4zm-8 0h-4V64h4zm-8 0h-4V64h4zm-8 0h-4V64h4zm-8 0h-4V64h4zm-8 0h-4V64h4zm-8 0h-4V64h4zm-8 0h-4V64h4zm-8-16h-4v-4h4zm-8 0h-4v-4h4zm-8 0h-4v-4h4zm-8 0h-4v-4h4zm-8 0h-4v-4h4zm-8 0h-4v-4h4zm-8 0h-4v-4h4zm-8 0h-4v-4h4zm-8 0h-4v-4h4zm-8 0h-4v-4h4zm-8 0h-4v-4h4zm-8 0h-4v-4h4zm-8 0h-4v-4h4zm-8 0h-4v-4h4zm-8 0h-4v-4h4zm-8 0h-4v-4h4zm120 8h-4v-4h4zm-8 0h-4v-4h4zm-8 0h-4v-4h4zm-8 0h-4v-4h4zm-8 0h-4v-4h4zm-8 0h-4v-4h4zm-8 0h-4v-4h4zm-8 0h-4v-4h4zm-8 0h-4v-4h4zm-8 0h-4v-4h4zm-8 0h-4v-4h4zm-8 0h-4v-4h4zm-8 0h-4v-4h4zm-8 0h-4v-4h4zm-8 0h-4v-4h4zm-8 0h-4v-4h4zm120 8h-4v-4h4zm-8 0h-4v-4h4zm-8 0h-4v-4h4zm-8 0h-4v-4h4zm-8 0h-4v-4h4zm-8 0h-4v-4h4zm-8 0h-4v-4h4zm-8 0h-4v-4h4zm-8 0h-4v-4h4zm-8 0h-4v-4h4zm-8 0h-4v-4h4zm-8 0h-4v-4h4zm-8 0h-4v-4h4zm-8 0h-4v-4h4zm-8 0h-4v-4h4zm-8 0h-4v-4h4zm64 8h-4v-4h4zm-8 0h-4v-4h4zm-8 0h-4v-4h4zm-8 0h-4v-4h4zm-8 0h-4v-4h4zm-8 0h-4v-4h4zm-8 0h-4v-4h4zm-8 0h-4v-4h4zm-8 0h-4v-4h4zm64 8h-4v-4h4zm-8 0h-4v-4h4zm-8 0h-4v-4h4zm-8 0h-4v-4h4zm-8 0h-4v-4h4zm-8 0h-4v-4h4zm-8 0h-4v-4h4zm-8 0h-4v-4h4zm-8 0h-4v-4h4zm64 8h-4v-4h4zm-8 0h-4v-4h4zm-8 0h-4v-4h4zm-8 0h-4v-4h4zm-8 0h-4v-4h4zm-8 0h-4v-4h4zm-8 0h-4v-4h4zm-8 0h-4v-4h4zm-8 0h-4v-4h4zm168 12h-8v-4h8zm12 0h-8v-4h8zm-108-16h-4v-8h4zm48 0h-4v-8h4zm-4 4h-44v-4h44z" style="fill:#a6a390"/><path d="M28 160h-4v-8h4zm164 0h-12v-8h12zm0-24h-12v-8h12zm-8 12h-4v-8h4zm8 0h-4v-8h4z" style="fill:#c4c0aa"/></svg>