<?xml version="1.0" encoding="iso-8859-1"?>
<!-- Generator: Adobe Illustrator 27.8.1, SVG Export Plug-In . SVG Version: 6.00 Build 0)  -->
<svg version="1.1" id="Layer_1" xmlns="http://www.w3.org/2000/svg" xmlns:xlink="http://www.w3.org/1999/xlink" x="0px" y="0px"
	 viewBox="0 0 256 256" style="enable-background:new 0 0 256 256;" xml:space="preserve">
<polygon style="opacity:0.5;fill:#FFFFFF;" points="251.966,87.263 247.896,43.263 247.224,36 239.93,36 16.07,36 8.776,36 
	8.104,43.263 4.034,87.263 4,87.631 4,88 4,92 4,116 4,116.167 4.007,116.333 8.007,212.333 8.326,220 16,220 240,220 247.674,220 
	247.993,212.333 251.993,116.333 252,116.167 252,116 252,92 252,88 252,87.631 "/>
<rect x="12" y="88" style="fill:#808080;" width="232" height="4"/>
<polygon style="fill:#CCCCCC;" points="244,88 12,88 16.07,44 239.93,44 "/>
<rect x="12" y="92" style="fill:#BFBFBF;" width="232" height="24"/>
<polygon style="fill:#B3B3B3;" points="240,212 16,212 12,116 244,116 "/>
<path style="fill:#262626;" d="M157,208H23c-1.657,0-3-1.343-3-3v-74c0-1.657,1.343-3,3-3h134c1.657,0,3,1.343,3,3v74
	C160,206.657,158.657,208,157,208z"/>
<path style="fill:#333333;" d="M39,148H29c-0.552,0-1-0.448-1-1v-6c0-0.552,0.448-1,1-1h10c0.552,0,1,0.448,1,1v6
	C40,147.552,39.552,148,39,148z"/>
<path style="fill:#333333;" d="M52,148H42c-0.552,0-1-0.448-1-1v-6c0-0.552,0.448-1,1-1h10c0.552,0,1,0.448,1,1v6
	C53,147.552,52.552,148,52,148z"/>
<path style="fill:#333333;" d="M65,148H55c-0.552,0-1-0.448-1-1v-6c0-0.552,0.448-1,1-1h10c0.552,0,1,0.448,1,1v6
	C66,147.552,65.552,148,65,148z"/>
<path style="fill:#333333;" d="M78,148H68c-0.552,0-1-0.448-1-1v-6c0-0.552,0.448-1,1-1h10c0.552,0,1,0.448,1,1v6
	C79,147.552,78.552,148,78,148z"/>
<path style="fill:#333333;" d="M91,148H81c-0.552,0-1-0.448-1-1v-6c0-0.552,0.448-1,1-1h10c0.552,0,1,0.448,1,1v6
	C92,147.552,91.552,148,91,148z"/>
<path style="fill:#333333;" d="M104,148H94c-0.552,0-1-0.448-1-1v-6c0-0.552,0.448-1,1-1h10c0.552,0,1,0.448,1,1v6
	C105,147.552,104.552,148,104,148z"/>
<path style="fill:#333333;" d="M117,148h-10c-0.552,0-1-0.448-1-1v-6c0-0.552,0.448-1,1-1h10c0.552,0,1,0.448,1,1v6
	C118,147.552,117.552,148,117,148z"/>
<path style="fill:#333333;" d="M130,148h-10c-0.552,0-1-0.448-1-1v-6c0-0.552,0.448-1,1-1h10c0.552,0,1,0.448,1,1v6
	C131,147.552,130.552,148,130,148z"/>
<path style="fill:#333333;" d="M143,148h-10c-0.552,0-1-0.448-1-1v-6c0-0.552,0.448-1,1-1h10c0.552,0,1,0.448,1,1v6
	C144,147.552,143.552,148,143,148z"/>
<path style="fill:#333333;" d="M47,160H37c-0.552,0-1-0.448-1-1v-6c0-0.552,0.448-1,1-1h10c0.552,0,1,0.448,1,1v6
	C48,159.552,47.552,160,47,160z"/>
<path style="fill:#333333;" d="M60,160H50c-0.552,0-1-0.448-1-1v-6c0-0.552,0.448-1,1-1h10c0.552,0,1,0.448,1,1v6
	C61,159.552,60.552,160,60,160z"/>
<path style="fill:#333333;" d="M73,160H63c-0.552,0-1-0.448-1-1v-6c0-0.552,0.448-1,1-1h10c0.552,0,1,0.448,1,1v6
	C74,159.552,73.552,160,73,160z"/>
<path style="fill:#333333;" d="M86,160H76c-0.552,0-1-0.448-1-1v-6c0-0.552,0.448-1,1-1h10c0.552,0,1,0.448,1,1v6
	C87,159.552,86.552,160,86,160z"/>
<path style="fill:#333333;" d="M99,160H89c-0.552,0-1-0.448-1-1v-6c0-0.552,0.448-1,1-1h10c0.552,0,1,0.448,1,1v6
	C100,159.552,99.552,160,99,160z"/>
<path style="fill:#333333;" d="M112,160h-10c-0.552,0-1-0.448-1-1v-6c0-0.552,0.448-1,1-1h10c0.552,0,1,0.448,1,1v6
	C113,159.552,112.552,160,112,160z"/>
<path style="fill:#333333;" d="M125,160h-10c-0.552,0-1-0.448-1-1v-6c0-0.552,0.448-1,1-1h10c0.552,0,1,0.448,1,1v6
	C126,159.552,125.552,160,125,160z"/>
<path style="fill:#333333;" d="M138,160h-10c-0.552,0-1-0.448-1-1v-6c0-0.552,0.448-1,1-1h10c0.552,0,1,0.448,1,1v6
	C139,159.552,138.552,160,138,160z"/>
<path style="fill:#333333;" d="M151,160h-10c-0.552,0-1-0.448-1-1v-6c0-0.552,0.448-1,1-1h10c0.552,0,1,0.448,1,1v6
	C152,159.552,151.552,160,151,160z"/>
<path style="fill:#333333;" d="M39,172H29c-0.552,0-1-0.448-1-1v-6c0-0.552,0.448-1,1-1h10c0.552,0,1,0.448,1,1v6
	C40,171.552,39.552,172,39,172z"/>
<path style="fill:#333333;" d="M52,172H42c-0.552,0-1-0.448-1-1v-6c0-0.552,0.448-1,1-1h10c0.552,0,1,0.448,1,1v6
	C53,171.552,52.552,172,52,172z"/>
<path style="fill:#333333;" d="M65,172H55c-0.552,0-1-0.448-1-1v-6c0-0.552,0.448-1,1-1h10c0.552,0,1,0.448,1,1v6
	C66,171.552,65.552,172,65,172z"/>
<path style="fill:#333333;" d="M78,172H68c-0.552,0-1-0.448-1-1v-6c0-0.552,0.448-1,1-1h10c0.552,0,1,0.448,1,1v6
	C79,171.552,78.552,172,78,172z"/>
<path style="fill:#333333;" d="M91,172H81c-0.552,0-1-0.448-1-1v-6c0-0.552,0.448-1,1-1h10c0.552,0,1,0.448,1,1v6
	C92,171.552,91.552,172,91,172z"/>
<path style="fill:#333333;" d="M104,172H94c-0.552,0-1-0.448-1-1v-6c0-0.552,0.448-1,1-1h10c0.552,0,1,0.448,1,1v6
	C105,171.552,104.552,172,104,172z"/>
<path style="fill:#333333;" d="M117,172h-10c-0.552,0-1-0.448-1-1v-6c0-0.552,0.448-1,1-1h10c0.552,0,1,0.448,1,1v6
	C118,171.552,117.552,172,117,172z"/>
<path style="fill:#333333;" d="M130,172h-10c-0.552,0-1-0.448-1-1v-6c0-0.552,0.448-1,1-1h10c0.552,0,1,0.448,1,1v6
	C131,171.552,130.552,172,130,172z"/>
<path style="fill:#333333;" d="M143,172h-10c-0.552,0-1-0.448-1-1v-6c0-0.552,0.448-1,1-1h10c0.552,0,1,0.448,1,1v6
	C144,171.552,143.552,172,143,172z"/>
<path style="fill:#F39B11;" d="M47,184H37c-0.552,0-1-0.448-1-1v-6c0-0.552,0.448-1,1-1h10c0.552,0,1,0.448,1,1v6
	C48,183.552,47.552,184,47,184z"/>
<path style="fill:#333333;" d="M121.691,196H62.309c-1.275,0-2.309-1.034-2.309-2.309v-3.381c0-1.275,1.034-2.309,2.309-2.309
	h59.381c1.275,0,2.309,1.034,2.309,2.309v3.381C124,194.966,122.966,196,121.691,196z"/>
<path style="fill:#333333;" d="M60,184H50c-0.552,0-1-0.448-1-1v-6c0-0.552,0.448-1,1-1h10c0.552,0,1,0.448,1,1v6
	C61,183.552,60.552,184,60,184z"/>
<path style="fill:#333333;" d="M73,184H63c-0.552,0-1-0.448-1-1v-6c0-0.552,0.448-1,1-1h10c0.552,0,1,0.448,1,1v6
	C74,183.552,73.552,184,73,184z"/>
<path style="fill:#333333;" d="M86,184H76c-0.552,0-1-0.448-1-1v-6c0-0.552,0.448-1,1-1h10c0.552,0,1,0.448,1,1v6
	C87,183.552,86.552,184,86,184z"/>
<path style="fill:#333333;" d="M99,184H89c-0.552,0-1-0.448-1-1v-6c0-0.552,0.448-1,1-1h10c0.552,0,1,0.448,1,1v6
	C100,183.552,99.552,184,99,184z"/>
<path style="fill:#333333;" d="M112,184h-10c-0.552,0-1-0.448-1-1v-6c0-0.552,0.448-1,1-1h10c0.552,0,1,0.448,1,1v6
	C113,183.552,112.552,184,112,184z"/>
<path style="fill:#333333;" d="M125,184h-10c-0.552,0-1-0.448-1-1v-6c0-0.552,0.448-1,1-1h10c0.552,0,1,0.448,1,1v6
	C126,183.552,125.552,184,125,184z"/>
<path style="fill:#333333;" d="M138,184h-10c-0.552,0-1-0.448-1-1v-6c0-0.552,0.448-1,1-1h10c0.552,0,1,0.448,1,1v6
	C139,183.552,138.552,184,138,184z"/>
<path style="fill:#F39B11;" d="M151,184h-10c-0.552,0-1-0.448-1-1v-6c0-0.552,0.448-1,1-1h10c0.552,0,1,0.448,1,1v6
	C152,183.552,151.552,184,151,184z"/>
<path style="fill:#262626;" d="M230,208h-60c-1.105,0-2-0.895-2-2V98c0-1.105,0.895-2,2-2h62v110C232,207.105,231.105,208,230,208z"
	/>
<path style="fill:#333333;" d="M234,96h-2v8v104l4-92v-12v-4v-2C236,96.895,235.105,96,234,96z"/>
<polygon style="fill:#1A1A1A;" points="232,108 168,108 168,104 236,104 "/>
<rect x="172" y="192" style="fill:#1A1A1A;" width="56" height="8"/>
<path style="fill:#333333;" d="M215,200h-10c-0.552,0-1-0.448-1-1v-6c0-0.552,0.448-1,1-1h10c0.552,0,1,0.448,1,1v6
	C216,199.552,215.552,200,215,200z"/>
<path style="fill:#333333;" d="M234,52h-64c-1.105,0-2-0.895-2-2v0c0-1.105,0.895-2,2-2h64c1.105,0,2,0.895,2,2v0
	C236,51.105,235.105,52,234,52z"/>
<path style="fill:#333333;" d="M234,60h-64c-1.105,0-2-0.895-2-2v0c0-1.105,0.895-2,2-2h64c1.105,0,2,0.895,2,2v0
	C236,59.105,235.105,60,234,60z"/>
<path style="fill:#333333;" d="M234,68h-64c-1.105,0-2-0.895-2-2l0,0c0-1.105,0.895-2,2-2h64c1.105,0,2,0.895,2,2l0,0
	C236,67.105,235.105,68,234,68z"/>
<path style="fill:#333333;" d="M234,76h-64c-1.105,0-2-0.895-2-2l0,0c0-1.105,0.895-2,2-2h64c1.105,0,2,0.895,2,2l0,0
	C236,75.105,235.105,76,234,76z"/>
<path style="fill:#333333;" d="M234,84h-64c-1.105,0-2-0.895-2-2l0,0c0-1.105,0.895-2,2-2h64c1.105,0,2,0.895,2,2l0,0
	C236,83.105,235.105,84,234,84z"/>
</svg>
