<svg xmlns="http://www.w3.org/2000/svg" xml:space="preserve" viewBox="0 0 256 256"><path d="m251.966 87.263-4.07-44-.672-7.263H8.776l-.672 7.263-4.07 44-.034.368v28.536l.007.166 4 96L8.326 220h239.348l.319-7.667 4-96 .007-.166V87.631z" style="opacity:.5;fill:#fff"/><path d="M12 88h232v4H12z" style="fill:gray"/><path d="M244 88H12l4.07-44h223.86z" style="fill:#ccc"/><path d="M12 92h232v24H12z" style="fill:#bfbfbf"/><path d="M240 212H16l-4-96h232z" style="fill:#b3b3b3"/><path d="M157 208H23a3 3 0 0 1-3-3v-74a3 3 0 0 1 3-3h134a3 3 0 0 1 3 3v74a3 3 0 0 1-3 3" style="fill:#262626"/><path d="M39 148H29a1 1 0 0 1-1-1v-6a1 1 0 0 1 1-1h10a1 1 0 0 1 1 1v6a1 1 0 0 1-1 1m13 0H42a1 1 0 0 1-1-1v-6a1 1 0 0 1 1-1h10a1 1 0 0 1 1 1v6a1 1 0 0 1-1 1m13 0H55a1 1 0 0 1-1-1v-6a1 1 0 0 1 1-1h10a1 1 0 0 1 1 1v6a1 1 0 0 1-1 1m13 0H68a1 1 0 0 1-1-1v-6a1 1 0 0 1 1-1h10a1 1 0 0 1 1 1v6a1 1 0 0 1-1 1m13 0H81a1 1 0 0 1-1-1v-6a1 1 0 0 1 1-1h10a1 1 0 0 1 1 1v6a1 1 0 0 1-1 1m13 0H94a1 1 0 0 1-1-1v-6a1 1 0 0 1 1-1h10a1 1 0 0 1 1 1v6a1 1 0 0 1-1 1m13 0h-10a1 1 0 0 1-1-1v-6a1 1 0 0 1 1-1h10a1 1 0 0 1 1 1v6a1 1 0 0 1-1 1m13 0h-10a1 1 0 0 1-1-1v-6a1 1 0 0 1 1-1h10a1 1 0 0 1 1 1v6a1 1 0 0 1-1 1m13 0h-10a1 1 0 0 1-1-1v-6a1 1 0 0 1 1-1h10a1 1 0 0 1 1 1v6a1 1 0 0 1-1 1m-96 12H37a1 1 0 0 1-1-1v-6a1 1 0 0 1 1-1h10a1 1 0 0 1 1 1v6a1 1 0 0 1-1 1m13 0H50a1 1 0 0 1-1-1v-6a1 1 0 0 1 1-1h10a1 1 0 0 1 1 1v6a1 1 0 0 1-1 1m13 0H63a1 1 0 0 1-1-1v-6a1 1 0 0 1 1-1h10a1 1 0 0 1 1 1v6a1 1 0 0 1-1 1m13 0H76a1 1 0 0 1-1-1v-6a1 1 0 0 1 1-1h10a1 1 0 0 1 1 1v6a1 1 0 0 1-1 1m13 0H89a1 1 0 0 1-1-1v-6a1 1 0 0 1 1-1h10a1 1 0 0 1 1 1v6a1 1 0 0 1-1 1m13 0h-10a1 1 0 0 1-1-1v-6a1 1 0 0 1 1-1h10a1 1 0 0 1 1 1v6a1 1 0 0 1-1 1m13 0h-10a1 1 0 0 1-1-1v-6a1 1 0 0 1 1-1h10a1 1 0 0 1 1 1v6a1 1 0 0 1-1 1m13 0h-10a1 1 0 0 1-1-1v-6a1 1 0 0 1 1-1h10a1 1 0 0 1 1 1v6a1 1 0 0 1-1 1m13 0h-10a1 1 0 0 1-1-1v-6a1 1 0 0 1 1-1h10a1 1 0 0 1 1 1v6a1 1 0 0 1-1 1M39 172H29a1 1 0 0 1-1-1v-6a1 1 0 0 1 1-1h10a1 1 0 0 1 1 1v6a1 1 0 0 1-1 1m13 0H42a1 1 0 0 1-1-1v-6a1 1 0 0 1 1-1h10a1 1 0 0 1 1 1v6a1 1 0 0 1-1 1m13 0H55a1 1 0 0 1-1-1v-6a1 1 0 0 1 1-1h10a1 1 0 0 1 1 1v6a1 1 0 0 1-1 1m13 0H68a1 1 0 0 1-1-1v-6a1 1 0 0 1 1-1h10a1 1 0 0 1 1 1v6a1 1 0 0 1-1 1m13 0H81a1 1 0 0 1-1-1v-6a1 1 0 0 1 1-1h10a1 1 0 0 1 1 1v6a1 1 0 0 1-1 1m13 0H94a1 1 0 0 1-1-1v-6a1 1 0 0 1 1-1h10a1 1 0 0 1 1 1v6a1 1 0 0 1-1 1m13 0h-10a1 1 0 0 1-1-1v-6a1 1 0 0 1 1-1h10a1 1 0 0 1 1 1v6a1 1 0 0 1-1 1m13 0h-10a1 1 0 0 1-1-1v-6a1 1 0 0 1 1-1h10a1 1 0 0 1 1 1v6a1 1 0 0 1-1 1m13 0h-10a1 1 0 0 1-1-1v-6a1 1 0 0 1 1-1h10a1 1 0 0 1 1 1v6a1 1 0 0 1-1 1" style="fill:#333"/><path d="M47 184H37a1 1 0 0 1-1-1v-6a1 1 0 0 1 1-1h10a1 1 0 0 1 1 1v6a1 1 0 0 1-1 1" style="fill:#f39b11"/><path d="M121.691 196H62.309A2.31 2.31 0 0 1 60 193.691v-3.381a2.31 2.31 0 0 1 2.309-2.309h59.381a2.31 2.31 0 0 1 2.309 2.309v3.381a2.31 2.31 0 0 1-2.308 2.309M60 184H50a1 1 0 0 1-1-1v-6a1 1 0 0 1 1-1h10a1 1 0 0 1 1 1v6a1 1 0 0 1-1 1m13 0H63a1 1 0 0 1-1-1v-6a1 1 0 0 1 1-1h10a1 1 0 0 1 1 1v6a1 1 0 0 1-1 1m13 0H76a1 1 0 0 1-1-1v-6a1 1 0 0 1 1-1h10a1 1 0 0 1 1 1v6a1 1 0 0 1-1 1m13 0H89a1 1 0 0 1-1-1v-6a1 1 0 0 1 1-1h10a1 1 0 0 1 1 1v6a1 1 0 0 1-1 1m13 0h-10a1 1 0 0 1-1-1v-6a1 1 0 0 1 1-1h10a1 1 0 0 1 1 1v6a1 1 0 0 1-1 1m13 0h-10a1 1 0 0 1-1-1v-6a1 1 0 0 1 1-1h10a1 1 0 0 1 1 1v6a1 1 0 0 1-1 1m13 0h-10a1 1 0 0 1-1-1v-6a1 1 0 0 1 1-1h10a1 1 0 0 1 1 1v6a1 1 0 0 1-1 1" style="fill:#333"/><path d="M151 184h-10a1 1 0 0 1-1-1v-6a1 1 0 0 1 1-1h10a1 1 0 0 1 1 1v6a1 1 0 0 1-1 1" style="fill:#f39b11"/><path d="M230 208h-60a2 2 0 0 1-2-2V98a2 2 0 0 1 2-2h62v110a2 2 0 0 1-2 2" style="fill:#262626"/><path d="M234 96h-2v112l4-92V98a2 2 0 0 0-2-2" style="fill:#333"/><path d="M232 108h-64v-4h68zm-60 84h56v8h-56z" style="fill:#1a1a1a"/><path d="M215 200h-10a1 1 0 0 1-1-1v-6a1 1 0 0 1 1-1h10a1 1 0 0 1 1 1v6a1 1 0 0 1-1 1m19-148h-64a2 2 0 1 1 0-4h64a2 2 0 1 1 0 4m0 8h-64a2 2 0 1 1 0-4h64a2 2 0 1 1 0 4m0 8h-64a2 2 0 1 1 0-4h64a2 2 0 1 1 0 4m0 8h-64a2 2 0 1 1 0-4h64a2 2 0 1 1 0 4m0 8h-64a2 2 0 1 1 0-4h64a2 2 0 1 1 0 4" style="fill:#333"/></svg>