<svg xmlns="http://www.w3.org/2000/svg" xml:space="preserve" width="320" height="320" viewBox="0 0 320 320"><defs><clipPath id="a" clipPathUnits="userSpaceOnUse"><path d="M0 256h256V0H0Z"/></clipPath><clipPath id="b" clipPathUnits="userSpaceOnUse"><path d="M8 248h240V8H8Z"/></clipPath></defs><g clip-path="url(#a)" transform="matrix(1.33333 0 0 -1.33333 -10.667 330.667)"><g clip-path="url(#b)" style="opacity:.5"><path d="M0 0h-24v48h-16v16h-176V48h-16v-208h16v-16h64v16h32v-16h64v16h16v16h16v64h16v16H8V0z" style="fill:#fff;fill-opacity:1;fill-rule:nonzero;stroke:none" transform="translate(240 184)"/></g></g><path d="M0 0h-20v-176H0v64h16v16H0Z" style="fill:#000;fill-opacity:1;fill-rule:nonzero;stroke:none" transform="matrix(1.33333 0 0 -1.33333 266.667 32)"/><path d="M224 128h16v48h-16zM176 16h-48v20h48zM32 36h48V16H32Z" style="fill:#000;fill-opacity:1;fill-rule:nonzero;stroke:none" transform="matrix(1.33333 0 0 -1.33333 -10.667 330.667)"/><path d="M192 52H16V32h176zm0 168H32v20h160z" style="fill:#354f9f;fill-opacity:1;fill-rule:nonzero;stroke:none" transform="matrix(1.33333 0 0 -1.33333 -10.667 330.667)"/><path d="M192 48H16v176h176z" style="fill:#4b5da7;fill-opacity:1;fill-rule:nonzero;stroke:none" transform="matrix(1.33333 0 0 -1.33333 -10.667 330.667)"/><path d="M176 188H32v20h144z" style="fill:#354f9f;fill-opacity:1;fill-rule:nonzero;stroke:none" transform="matrix(1.33333 0 0 -1.33333 -10.667 330.667)"/><path d="M176 112H32v80h144z" style="fill:#e6e6e6;fill-opacity:1;fill-rule:nonzero;stroke:none" transform="matrix(1.33333 0 0 -1.33333 -10.667 330.667)"/><path d="M144 128h-16v48h16zm-64 0H64v48h16z" style="fill:#000;fill-opacity:1;fill-rule:nonzero;stroke:none" transform="matrix(1.33333 0 0 -1.33333 -10.667 330.667)"/><path d="M144 96h-16V80h16zm-64 0H64V80h16Zm48-32H80v16h48z" style="fill:#e6e6e6;fill-opacity:1;fill-rule:nonzero;stroke:none" transform="matrix(1.33333 0 0 -1.33333 -10.667 330.667)"/></svg>