<?xml version="1.0" encoding="UTF-8" standalone="no"?>
<svg
   xmlns:dc="http://purl.org/dc/elements/1.1/"
   xmlns:cc="http://creativecommons.org/ns#"
   xmlns:rdf="http://www.w3.org/1999/02/22-rdf-syntax-ns#"
   xmlns:svg="http://www.w3.org/2000/svg"
   xmlns="http://www.w3.org/2000/svg"
   viewBox="0 0 320 320"
   height="320"
   width="320"
   xml:space="preserve"
   id="svg2"
   version="1.1"><metadata
     id="metadata8"><rdf:RDF><cc:Work
         rdf:about=""><dc:format>image/svg+xml</dc:format><dc:type
           rdf:resource="http://purl.org/dc/dcmitype/StillImage" /></cc:Work></rdf:RDF></metadata><defs
     id="defs6"><clipPath
       id="clipPath18"
       clipPathUnits="userSpaceOnUse"><path
         id="path16"
         d="M 0,256 H 256 V 0 H 0 Z" /></clipPath><clipPath
       id="clipPath26"
       clipPathUnits="userSpaceOnUse"><path
         id="path24"
         d="M 8,248 H 248 V 8 H 8 Z" /></clipPath></defs><g
     transform="matrix(1.3333333,0,0,-1.3333333,-10.666666,330.66666)"
     id="g10"><g
       id="g12"><g
         clip-path="url(#clipPath18)"
         id="g14"><g
           id="g20"><g
             id="g22" /><g
             id="g34"><g
               style="opacity:0.5"
               id="g32"
               clip-path="url(#clipPath26)"><g
                 id="g30"
                 transform="translate(240,184)"><path
                   id="path28"
                   style="fill:#ffffff;fill-opacity:1;fill-rule:nonzero;stroke:none"
                   d="m 0,0 h -16 -8 v 40 8 h -8 -8 v 8 8 h -8 -160 -8 v -8 -8 h -8 -8 v -8 -172 -4 -16 -8 h 8 8 v -8 -8 h 8 48 8 v 8 8 h 32 v -8 -8 h 8 48 8 v 8 8 h 8 8 v 8 8 h 8 8 v 8 56 h 8 8 v 8 8 h 8 8 v 8 48 8 z" /></g></g></g></g></g></g><g
       transform="translate(208,224)"
       id="g36"><path
         id="path38"
         style="fill:#000000;fill-opacity:1;fill-rule:nonzero;stroke:none"
         d="M 0,0 H -20 V -176 H 0 v 64 h 16 v 16 H 0 Z" /></g><path
       id="path40"
       style="fill:#000000;fill-opacity:1;fill-rule:nonzero;stroke:none"
       d="m 224,128 h 16 v 48 h -16 z" /><path
       id="path42"
       style="fill:#000000;fill-opacity:1;fill-rule:nonzero;stroke:none"
       d="m 176,16 h -48 v 20 h 48 z" /><path
       id="path44"
       style="fill:#000000;fill-opacity:1;fill-rule:nonzero;stroke:none"
       d="M 32,36 H 80 V 16 H 32 Z" /><path
       id="path46"
       style="fill:#354f9f;fill-opacity:1;fill-rule:nonzero;stroke:none"
       d="M 192,52 H 16 V 32 h 176 z" /><path
       id="path48"
       style="fill:#354f9f;fill-opacity:1;fill-rule:nonzero;stroke:none"
       d="M 192,220 H 32 v 20 h 160 z" /><path
       id="path50"
       style="fill:#4b5da7;fill-opacity:1;fill-rule:nonzero;stroke:none"
       d="M 192,48 H 16 v 176 h 176 z" /><path
       id="path52"
       style="fill:#354f9f;fill-opacity:1;fill-rule:nonzero;stroke:none"
       d="M 176,188 H 32 v 20 h 144 z" /><path
       id="path54"
       style="fill:#e6e6e6;fill-opacity:1;fill-rule:nonzero;stroke:none"
       d="M 176,112 H 32 v 80 h 144 z" /><path
       id="path56"
       style="fill:#000000;fill-opacity:1;fill-rule:nonzero;stroke:none"
       d="m 144,128 h -16 v 48 h 16 z" /><path
       id="path58"
       style="fill:#000000;fill-opacity:1;fill-rule:nonzero;stroke:none"
       d="M 80,128 H 64 v 48 h 16 z" /><path
       id="path60"
       style="fill:#e6e6e6;fill-opacity:1;fill-rule:nonzero;stroke:none"
       d="M 144,96 H 128 V 80 h 16 z M 80,96 H 64 V 80 H 80 Z M 128,64 H 80 v 16 h 48 z" /></g></svg>