<svg xmlns="http://www.w3.org/2000/svg" xml:space="preserve" width="309.333" height="202.667" viewBox="0 0 309.333 202.667"><defs><clipPath id="a" clipPathUnits="userSpaceOnUse"><path d="M0 256h256V0H0Z"/></clipPath><clipPath id="b" clipPathUnits="userSpaceOnUse"><path d="M12 208h232V56H12Z"/></clipPath></defs><g clip-path="url(#a)" transform="matrix(1.33333 0 0 -1.33333 -16 277.333)"><g clip-path="url(#b)" style="opacity:.5"><path d="M0 0h-232v-152H0V-8z" style="fill:#fff;fill-opacity:1;fill-rule:nonzero;stroke:none" transform="translate(244 208)"/></g></g><path d="M236 64H20v136h216z" style="fill:#e6e6e6;fill-opacity:1;fill-rule:nonzero;stroke:none" transform="matrix(1.33333 0 0 -1.33333 -16 277.333)"/><path d="M220 152H36V76h184z" style="fill:#4b5da7;fill-opacity:1;fill-rule:nonzero;stroke:none" transform="matrix(1.33333 0 0 -1.33333 -16 277.333)"/><path d="M60 128h-8v8h8zm8-12h-8v8h8zm4-12h-8v8h8zm8-12h-8v8h8zm12 0h-8v8h8zm12 0h-8v8h8zm12 0h-8v8h8zm12 0h-8v8h8zm12 0h-8v8h8zm12 0h-8v8h8zm12 0h-8v8h8zm12 0h-8v8h8zm12 0h-8v8h8zm4-12h-8v8h8zM88 80h-8v8h8zm-12 0h-8v8h8zm124 12h-8v8h8zM84 104h-8v8h8zm12 0h-8v8h8zm12 0h-8v8h8zm12 0h-8v8h8zm12 0h-8v8h8zm12 0h-8v8h8zm12 0h-8v8h8zm12 0h-8v8h8zm12 0h-8v8h8zm12 0h-8v8h8zm12 0h-8v8h8zM80 116h-8v8h8zm12 0h-8v8h8zm12 0h-8v8h8zm12 0h-8v8h8zm12 0h-8v8h8zm12 0h-8v8h8zm12 0h-8v8h8zm12 0h-8v8h8zm12 0h-8v8h8z" style="fill:#d9d9d9;fill-opacity:1;fill-rule:nonzero;stroke:none" transform="matrix(1.33333 0 0 -1.33333 -16 277.333)"/><path d="M200 116h-16v8h16z" style="fill:#9bc2dd;fill-opacity:1;fill-rule:nonzero;stroke:none" transform="matrix(1.33333 0 0 -1.33333 -16 277.333)"/><path d="M72 128h-8v8h8zm12 0h-8v8h8zm12 0h-8v8h8zm12 0h-8v8h8zm12 0h-8v8h8zm12 0h-8v8h8zm12 0h-8v8h8zm12 0h-8v8h8zm12 0h-8v8h8zm12 0h-8v8h8zm12 0h-8v8h8zm12 0h-8v8h8zm-8 12h-8v8h8zm-12 0h-8v8h8zm-12 0h-8v8h8zm-12 0h-8v8h8z" style="fill:#d9d9d9;fill-opacity:1;fill-rule:nonzero;stroke:none" transform="matrix(1.33333 0 0 -1.33333 -16 277.333)"/><path d="M180 80H92v8h88z" style="fill:#9bc2dd;fill-opacity:1;fill-rule:nonzero;stroke:none" transform="matrix(1.33333 0 0 -1.33333 -16 277.333)"/><path d="M40 192h-2v8h2zm4 0h-2v8h2zm4 0h-2v8h2zm4 0h-2v8h2zm4 0h-2v8h2zm4 0h-2v8h2zm4 0h-2v8h2zm4 0h-2v8h2zm4 0h-2v8h2zm4 0h-2v8h2zm4 0h-2v8h2zm4 0h-2v8h2zm4 0h-2v8h2zm4 0h-2v8h2zm4 0h-2v8h2zm4 0h-2v8h2zm4 0h-2v8h2zm4 0h-2v8h2zm4 0h-2v8h2z" style="fill:#404040;fill-opacity:1;fill-rule:nonzero;stroke:none" transform="matrix(1.33333 0 0 -1.33333 -16 277.333)"/><path d="M116 192h-2v8h2zm4 0h-2v8h2zm4 0h-2v8h2zm4 0h-2v8h2z" style="fill:#d9d9d9;fill-opacity:1;fill-rule:nonzero;stroke:none" transform="matrix(1.33333 0 0 -1.33333 -16 277.333)"/><path d="M148 192h-2v8h2zm-4 0h-2v8h2zm-4 0h-2v8h2zm-4 0h-2v8h2zm-4 0h-2v8h2zm20 0h-2v8h2zm4 0h-2v8h2zm4 0h-2v8h2zm4 0h-2v8h2zm4 0h-2v8h2zm4 0h-2v8h2zm4 0h-2v8h2zm4 0h-2v8h2zm4 0h-2v8h2zm4 0h-2v8h2zm4 0h-2v8h2zm4 0h-2v8h2zm4 0h-2v8h2zm4 0h-2v8h2zm4 0h-2v8h2zm4 0h-2v8h2zm4 0h-2v8h2zm4 0h-2v8h2zm-8-22h-4v2h4z" style="fill:#404040;fill-opacity:1;fill-rule:nonzero;stroke:none" transform="matrix(1.33333 0 0 -1.33333 -16 277.333)"/><path d="M0 0h-64v8l4 4h56l4-4Z" style="fill:#f2f2f2;fill-opacity:1;fill-rule:nonzero;stroke:none" transform="matrix(1.33333 0 0 -1.33333 266.667 42.667)"/><path d="m0 0-4 8h192l-4-8Z" style="fill:#d9d9d9;fill-opacity:1;fill-rule:nonzero;stroke:none" transform="matrix(1.33333 0 0 -1.33333 32 74.667)"/><path d="m0 0 4-8h-192l4 8z" style="fill:#d9d9d9;fill-opacity:1;fill-rule:nonzero;stroke:none" transform="matrix(1.33333 0 0 -1.33333 277.333 176)"/><path d="M224 64h-2v136h2zM34 64h-2v136h2z" style="fill:#d9d9d9;fill-opacity:1;fill-rule:nonzero;stroke:none" transform="matrix(1.33333 0 0 -1.33333 -16 277.333)"/><path d="M224 192h-80v-24h80zm-2-22h-76v20h76z" style="fill:#d9d9d9;fill-opacity:1;fill-rule:nonzero;stroke:none" transform="matrix(1.33333 0 0 -1.33333 -16 277.333)"/></svg>