<?xml version="1.0" encoding="UTF-8" standalone="no"?>
<svg
   xmlns:dc="http://purl.org/dc/elements/1.1/"
   xmlns:cc="http://creativecommons.org/ns#"
   xmlns:rdf="http://www.w3.org/1999/02/22-rdf-syntax-ns#"
   xmlns:svg="http://www.w3.org/2000/svg"
   xmlns="http://www.w3.org/2000/svg"
   viewBox="0 0 309.33331 202.66665"
   height="202.66666"
   width="309.33331"
   xml:space="preserve"
   id="svg2"
   version="1.1"><metadata
     id="metadata8"><rdf:RDF><cc:Work
         rdf:about=""><dc:format>image/svg+xml</dc:format><dc:type
           rdf:resource="http://purl.org/dc/dcmitype/StillImage" /></cc:Work></rdf:RDF></metadata><defs
     id="defs6"><clipPath
       id="clipPath18"
       clipPathUnits="userSpaceOnUse"><path
         id="path16"
         d="M 0,256 H 256 V 0 H 0 Z" /></clipPath><clipPath
       id="clipPath26"
       clipPathUnits="userSpaceOnUse"><path
         id="path24"
         d="M 12,208 H 244 V 56 H 12 Z" /></clipPath></defs><g
     transform="matrix(1.3333333,0,0,-1.3333333,-16,277.33333)"
     id="g10"><g
       id="g12"><g
         clip-path="url(#clipPath18)"
         id="g14"><g
           id="g20"><g
             id="g22" /><g
             id="g34"><g
               style="opacity:0.5"
               id="g32"
               clip-path="url(#clipPath26)"><g
                 id="g30"
                 transform="translate(244,208)"><path
                   id="path28"
                   style="fill:#ffffff;fill-opacity:1;fill-rule:nonzero;stroke:none"
                   d="m 0,0 h -8 -216 -8 v -8 -136 -8 h 8 216 8 v 8 136 z" /></g></g></g></g></g></g><path
       id="path36"
       style="fill:#e6e6e6;fill-opacity:1;fill-rule:nonzero;stroke:none"
       d="M 236,64 H 20 v 136 h 216 z" /><path
       id="path38"
       style="fill:#4b5da7;fill-opacity:1;fill-rule:nonzero;stroke:none"
       d="M 220,152 H 36 V 76 h 184 z" /><path
       id="path40"
       style="fill:#d9d9d9;fill-opacity:1;fill-rule:nonzero;stroke:none"
       d="m 60,128 h -8 v 8 h 8 z" /><path
       id="path42"
       style="fill:#d9d9d9;fill-opacity:1;fill-rule:nonzero;stroke:none"
       d="m 68,116 h -8 v 8 h 8 z" /><path
       id="path44"
       style="fill:#d9d9d9;fill-opacity:1;fill-rule:nonzero;stroke:none"
       d="m 72,104 h -8 v 8 h 8 z" /><path
       id="path46"
       style="fill:#d9d9d9;fill-opacity:1;fill-rule:nonzero;stroke:none"
       d="m 80,92 h -8 v 8 h 8 z" /><path
       id="path48"
       style="fill:#d9d9d9;fill-opacity:1;fill-rule:nonzero;stroke:none"
       d="m 92,92 h -8 v 8 h 8 z" /><path
       id="path50"
       style="fill:#d9d9d9;fill-opacity:1;fill-rule:nonzero;stroke:none"
       d="m 104,92 h -8 v 8 h 8 z" /><path
       id="path52"
       style="fill:#d9d9d9;fill-opacity:1;fill-rule:nonzero;stroke:none"
       d="m 116,92 h -8 v 8 h 8 z" /><path
       id="path54"
       style="fill:#d9d9d9;fill-opacity:1;fill-rule:nonzero;stroke:none"
       d="m 128,92 h -8 v 8 h 8 z" /><path
       id="path56"
       style="fill:#d9d9d9;fill-opacity:1;fill-rule:nonzero;stroke:none"
       d="m 140,92 h -8 v 8 h 8 z" /><path
       id="path58"
       style="fill:#d9d9d9;fill-opacity:1;fill-rule:nonzero;stroke:none"
       d="m 152,92 h -8 v 8 h 8 z" /><path
       id="path60"
       style="fill:#d9d9d9;fill-opacity:1;fill-rule:nonzero;stroke:none"
       d="m 164,92 h -8 v 8 h 8 z" /><path
       id="path62"
       style="fill:#d9d9d9;fill-opacity:1;fill-rule:nonzero;stroke:none"
       d="m 176,92 h -8 v 8 h 8 z" /><path
       id="path64"
       style="fill:#d9d9d9;fill-opacity:1;fill-rule:nonzero;stroke:none"
       d="m 188,92 h -8 v 8 h 8 z" /><path
       id="path66"
       style="fill:#d9d9d9;fill-opacity:1;fill-rule:nonzero;stroke:none"
       d="m 192,80 h -8 v 8 h 8 z" /><path
       id="path68"
       style="fill:#d9d9d9;fill-opacity:1;fill-rule:nonzero;stroke:none"
       d="m 88,80 h -8 v 8 h 8 z" /><path
       id="path70"
       style="fill:#d9d9d9;fill-opacity:1;fill-rule:nonzero;stroke:none"
       d="m 76,80 h -8 v 8 h 8 z" /><path
       id="path72"
       style="fill:#d9d9d9;fill-opacity:1;fill-rule:nonzero;stroke:none"
       d="m 200,92 h -8 v 8 h 8 z" /><path
       id="path74"
       style="fill:#d9d9d9;fill-opacity:1;fill-rule:nonzero;stroke:none"
       d="m 84,104 h -8 v 8 h 8 z" /><path
       id="path76"
       style="fill:#d9d9d9;fill-opacity:1;fill-rule:nonzero;stroke:none"
       d="m 96,104 h -8 v 8 h 8 z" /><path
       id="path78"
       style="fill:#d9d9d9;fill-opacity:1;fill-rule:nonzero;stroke:none"
       d="m 108,104 h -8 v 8 h 8 z" /><path
       id="path80"
       style="fill:#d9d9d9;fill-opacity:1;fill-rule:nonzero;stroke:none"
       d="m 120,104 h -8 v 8 h 8 z" /><path
       id="path82"
       style="fill:#d9d9d9;fill-opacity:1;fill-rule:nonzero;stroke:none"
       d="m 132,104 h -8 v 8 h 8 z" /><path
       id="path84"
       style="fill:#d9d9d9;fill-opacity:1;fill-rule:nonzero;stroke:none"
       d="m 144,104 h -8 v 8 h 8 z" /><path
       id="path86"
       style="fill:#d9d9d9;fill-opacity:1;fill-rule:nonzero;stroke:none"
       d="m 156,104 h -8 v 8 h 8 z" /><path
       id="path88"
       style="fill:#d9d9d9;fill-opacity:1;fill-rule:nonzero;stroke:none"
       d="m 168,104 h -8 v 8 h 8 z" /><path
       id="path90"
       style="fill:#d9d9d9;fill-opacity:1;fill-rule:nonzero;stroke:none"
       d="m 180,104 h -8 v 8 h 8 z" /><path
       id="path92"
       style="fill:#d9d9d9;fill-opacity:1;fill-rule:nonzero;stroke:none"
       d="m 192,104 h -8 v 8 h 8 z" /><path
       id="path94"
       style="fill:#d9d9d9;fill-opacity:1;fill-rule:nonzero;stroke:none"
       d="m 204,104 h -8 v 8 h 8 z" /><path
       id="path96"
       style="fill:#d9d9d9;fill-opacity:1;fill-rule:nonzero;stroke:none"
       d="m 80,116 h -8 v 8 h 8 z" /><path
       id="path98"
       style="fill:#d9d9d9;fill-opacity:1;fill-rule:nonzero;stroke:none"
       d="m 92,116 h -8 v 8 h 8 z" /><path
       id="path100"
       style="fill:#d9d9d9;fill-opacity:1;fill-rule:nonzero;stroke:none"
       d="m 104,116 h -8 v 8 h 8 z" /><path
       id="path102"
       style="fill:#d9d9d9;fill-opacity:1;fill-rule:nonzero;stroke:none"
       d="m 116,116 h -8 v 8 h 8 z" /><path
       id="path104"
       style="fill:#d9d9d9;fill-opacity:1;fill-rule:nonzero;stroke:none"
       d="m 128,116 h -8 v 8 h 8 z" /><path
       id="path106"
       style="fill:#d9d9d9;fill-opacity:1;fill-rule:nonzero;stroke:none"
       d="m 140,116 h -8 v 8 h 8 z" /><path
       id="path108"
       style="fill:#d9d9d9;fill-opacity:1;fill-rule:nonzero;stroke:none"
       d="m 152,116 h -8 v 8 h 8 z" /><path
       id="path110"
       style="fill:#d9d9d9;fill-opacity:1;fill-rule:nonzero;stroke:none"
       d="m 164,116 h -8 v 8 h 8 z" /><path
       id="path112"
       style="fill:#d9d9d9;fill-opacity:1;fill-rule:nonzero;stroke:none"
       d="m 176,116 h -8 v 8 h 8 z" /><path
       id="path114"
       style="fill:#9bc2dd;fill-opacity:1;fill-rule:nonzero;stroke:none"
       d="m 200,116 h -16 v 8 h 16 z" /><path
       id="path116"
       style="fill:#d9d9d9;fill-opacity:1;fill-rule:nonzero;stroke:none"
       d="m 72,128 h -8 v 8 h 8 z" /><path
       id="path118"
       style="fill:#d9d9d9;fill-opacity:1;fill-rule:nonzero;stroke:none"
       d="m 84,128 h -8 v 8 h 8 z" /><path
       id="path120"
       style="fill:#d9d9d9;fill-opacity:1;fill-rule:nonzero;stroke:none"
       d="m 96,128 h -8 v 8 h 8 z" /><path
       id="path122"
       style="fill:#d9d9d9;fill-opacity:1;fill-rule:nonzero;stroke:none"
       d="m 108,128 h -8 v 8 h 8 z" /><path
       id="path124"
       style="fill:#d9d9d9;fill-opacity:1;fill-rule:nonzero;stroke:none"
       d="m 120,128 h -8 v 8 h 8 z" /><path
       id="path126"
       style="fill:#d9d9d9;fill-opacity:1;fill-rule:nonzero;stroke:none"
       d="m 132,128 h -8 v 8 h 8 z" /><path
       id="path128"
       style="fill:#d9d9d9;fill-opacity:1;fill-rule:nonzero;stroke:none"
       d="m 144,128 h -8 v 8 h 8 z" /><path
       id="path130"
       style="fill:#d9d9d9;fill-opacity:1;fill-rule:nonzero;stroke:none"
       d="m 156,128 h -8 v 8 h 8 z" /><path
       id="path132"
       style="fill:#d9d9d9;fill-opacity:1;fill-rule:nonzero;stroke:none"
       d="m 168,128 h -8 v 8 h 8 z" /><path
       id="path134"
       style="fill:#d9d9d9;fill-opacity:1;fill-rule:nonzero;stroke:none"
       d="m 180,128 h -8 v 8 h 8 z" /><path
       id="path136"
       style="fill:#d9d9d9;fill-opacity:1;fill-rule:nonzero;stroke:none"
       d="m 192,128 h -8 v 8 h 8 z" /><path
       id="path138"
       style="fill:#d9d9d9;fill-opacity:1;fill-rule:nonzero;stroke:none"
       d="m 204,128 h -8 v 8 h 8 z" /><path
       id="path140"
       style="fill:#d9d9d9;fill-opacity:1;fill-rule:nonzero;stroke:none"
       d="m 196,140 h -8 v 8 h 8 z" /><path
       id="path142"
       style="fill:#d9d9d9;fill-opacity:1;fill-rule:nonzero;stroke:none"
       d="m 184,140 h -8 v 8 h 8 z" /><path
       id="path144"
       style="fill:#d9d9d9;fill-opacity:1;fill-rule:nonzero;stroke:none"
       d="m 172,140 h -8 v 8 h 8 z" /><path
       id="path146"
       style="fill:#d9d9d9;fill-opacity:1;fill-rule:nonzero;stroke:none"
       d="m 160,140 h -8 v 8 h 8 z" /><path
       id="path148"
       style="fill:#9bc2dd;fill-opacity:1;fill-rule:nonzero;stroke:none"
       d="M 180,80 H 92 v 8 h 88 z" /><path
       id="path150"
       style="fill:#404040;fill-opacity:1;fill-rule:nonzero;stroke:none"
       d="m 40,192 h -2 v 8 h 2 z" /><path
       id="path152"
       style="fill:#404040;fill-opacity:1;fill-rule:nonzero;stroke:none"
       d="m 44,192 h -2 v 8 h 2 z" /><path
       id="path154"
       style="fill:#404040;fill-opacity:1;fill-rule:nonzero;stroke:none"
       d="m 48,192 h -2 v 8 h 2 z" /><path
       id="path156"
       style="fill:#404040;fill-opacity:1;fill-rule:nonzero;stroke:none"
       d="m 52,192 h -2 v 8 h 2 z" /><path
       id="path158"
       style="fill:#404040;fill-opacity:1;fill-rule:nonzero;stroke:none"
       d="m 56,192 h -2 v 8 h 2 z" /><path
       id="path160"
       style="fill:#404040;fill-opacity:1;fill-rule:nonzero;stroke:none"
       d="m 60,192 h -2 v 8 h 2 z" /><path
       id="path162"
       style="fill:#404040;fill-opacity:1;fill-rule:nonzero;stroke:none"
       d="m 64,192 h -2 v 8 h 2 z" /><path
       id="path164"
       style="fill:#404040;fill-opacity:1;fill-rule:nonzero;stroke:none"
       d="m 68,192 h -2 v 8 h 2 z" /><path
       id="path166"
       style="fill:#404040;fill-opacity:1;fill-rule:nonzero;stroke:none"
       d="m 72,192 h -2 v 8 h 2 z" /><path
       id="path168"
       style="fill:#404040;fill-opacity:1;fill-rule:nonzero;stroke:none"
       d="m 76,192 h -2 v 8 h 2 z" /><path
       id="path170"
       style="fill:#404040;fill-opacity:1;fill-rule:nonzero;stroke:none"
       d="m 80,192 h -2 v 8 h 2 z" /><path
       id="path172"
       style="fill:#404040;fill-opacity:1;fill-rule:nonzero;stroke:none"
       d="m 84,192 h -2 v 8 h 2 z" /><path
       id="path174"
       style="fill:#404040;fill-opacity:1;fill-rule:nonzero;stroke:none"
       d="m 88,192 h -2 v 8 h 2 z" /><path
       id="path176"
       style="fill:#404040;fill-opacity:1;fill-rule:nonzero;stroke:none"
       d="m 92,192 h -2 v 8 h 2 z" /><path
       id="path178"
       style="fill:#404040;fill-opacity:1;fill-rule:nonzero;stroke:none"
       d="m 96,192 h -2 v 8 h 2 z" /><path
       id="path180"
       style="fill:#404040;fill-opacity:1;fill-rule:nonzero;stroke:none"
       d="m 100,192 h -2 v 8 h 2 z" /><path
       id="path182"
       style="fill:#404040;fill-opacity:1;fill-rule:nonzero;stroke:none"
       d="m 104,192 h -2 v 8 h 2 z" /><path
       id="path184"
       style="fill:#404040;fill-opacity:1;fill-rule:nonzero;stroke:none"
       d="m 108,192 h -2 v 8 h 2 z" /><path
       id="path186"
       style="fill:#404040;fill-opacity:1;fill-rule:nonzero;stroke:none"
       d="m 112,192 h -2 v 8 h 2 z" /><path
       id="path188"
       style="fill:#d9d9d9;fill-opacity:1;fill-rule:nonzero;stroke:none"
       d="m 116,192 h -2 v 8 h 2 z" /><path
       id="path190"
       style="fill:#d9d9d9;fill-opacity:1;fill-rule:nonzero;stroke:none"
       d="m 120,192 h -2 v 8 h 2 z" /><path
       id="path192"
       style="fill:#d9d9d9;fill-opacity:1;fill-rule:nonzero;stroke:none"
       d="m 124,192 h -2 v 8 h 2 z" /><path
       id="path194"
       style="fill:#d9d9d9;fill-opacity:1;fill-rule:nonzero;stroke:none"
       d="m 128,192 h -2 v 8 h 2 z" /><path
       id="path196"
       style="fill:#404040;fill-opacity:1;fill-rule:nonzero;stroke:none"
       d="m 148,192 h -2 v 8 h 2 z" /><path
       id="path198"
       style="fill:#404040;fill-opacity:1;fill-rule:nonzero;stroke:none"
       d="m 144,192 h -2 v 8 h 2 z" /><path
       id="path200"
       style="fill:#404040;fill-opacity:1;fill-rule:nonzero;stroke:none"
       d="m 140,192 h -2 v 8 h 2 z" /><path
       id="path202"
       style="fill:#404040;fill-opacity:1;fill-rule:nonzero;stroke:none"
       d="m 136,192 h -2 v 8 h 2 z" /><path
       id="path204"
       style="fill:#404040;fill-opacity:1;fill-rule:nonzero;stroke:none"
       d="m 132,192 h -2 v 8 h 2 z" /><path
       id="path206"
       style="fill:#404040;fill-opacity:1;fill-rule:nonzero;stroke:none"
       d="m 152,192 h -2 v 8 h 2 z" /><path
       id="path208"
       style="fill:#404040;fill-opacity:1;fill-rule:nonzero;stroke:none"
       d="m 156,192 h -2 v 8 h 2 z" /><path
       id="path210"
       style="fill:#404040;fill-opacity:1;fill-rule:nonzero;stroke:none"
       d="m 160,192 h -2 v 8 h 2 z" /><path
       id="path212"
       style="fill:#404040;fill-opacity:1;fill-rule:nonzero;stroke:none"
       d="m 164,192 h -2 v 8 h 2 z" /><path
       id="path214"
       style="fill:#404040;fill-opacity:1;fill-rule:nonzero;stroke:none"
       d="m 168,192 h -2 v 8 h 2 z" /><path
       id="path216"
       style="fill:#404040;fill-opacity:1;fill-rule:nonzero;stroke:none"
       d="m 172,192 h -2 v 8 h 2 z" /><path
       id="path218"
       style="fill:#404040;fill-opacity:1;fill-rule:nonzero;stroke:none"
       d="m 176,192 h -2 v 8 h 2 z" /><path
       id="path220"
       style="fill:#404040;fill-opacity:1;fill-rule:nonzero;stroke:none"
       d="m 180,192 h -2 v 8 h 2 z" /><path
       id="path222"
       style="fill:#404040;fill-opacity:1;fill-rule:nonzero;stroke:none"
       d="m 184,192 h -2 v 8 h 2 z" /><path
       id="path224"
       style="fill:#404040;fill-opacity:1;fill-rule:nonzero;stroke:none"
       d="m 188,192 h -2 v 8 h 2 z" /><path
       id="path226"
       style="fill:#404040;fill-opacity:1;fill-rule:nonzero;stroke:none"
       d="m 192,192 h -2 v 8 h 2 z" /><path
       id="path228"
       style="fill:#404040;fill-opacity:1;fill-rule:nonzero;stroke:none"
       d="m 196,192 h -2 v 8 h 2 z" /><path
       id="path230"
       style="fill:#404040;fill-opacity:1;fill-rule:nonzero;stroke:none"
       d="m 200,192 h -2 v 8 h 2 z" /><path
       id="path232"
       style="fill:#404040;fill-opacity:1;fill-rule:nonzero;stroke:none"
       d="m 204,192 h -2 v 8 h 2 z" /><path
       id="path234"
       style="fill:#404040;fill-opacity:1;fill-rule:nonzero;stroke:none"
       d="m 208,192 h -2 v 8 h 2 z" /><path
       id="path236"
       style="fill:#404040;fill-opacity:1;fill-rule:nonzero;stroke:none"
       d="m 212,192 h -2 v 8 h 2 z" /><path
       id="path238"
       style="fill:#404040;fill-opacity:1;fill-rule:nonzero;stroke:none"
       d="m 216,192 h -2 v 8 h 2 z" /><path
       id="path240"
       style="fill:#404040;fill-opacity:1;fill-rule:nonzero;stroke:none"
       d="m 220,192 h -2 v 8 h 2 z" /><path
       id="path242"
       style="fill:#404040;fill-opacity:1;fill-rule:nonzero;stroke:none"
       d="m 212,170 h -4 v 2 h 4 z" /><g
       transform="translate(212,176)"
       id="g244"><path
         id="path246"
         style="fill:#f2f2f2;fill-opacity:1;fill-rule:nonzero;stroke:none"
         d="m 0,0 h -64 v 8 l 4,4 H -4 L 0,8 Z" /></g><g
       transform="translate(36,152)"
       id="g248"><path
         id="path250"
         style="fill:#d9d9d9;fill-opacity:1;fill-rule:nonzero;stroke:none"
         d="M 0,0 -4,8 H 188 L 184,0 Z" /></g><g
       transform="translate(220,76)"
       id="g252"><path
         id="path254"
         style="fill:#d9d9d9;fill-opacity:1;fill-rule:nonzero;stroke:none"
         d="m 0,0 4,-8 h -192 l 4,8 z" /></g><path
       id="path256"
       style="fill:#d9d9d9;fill-opacity:1;fill-rule:nonzero;stroke:none"
       d="m 224,64 h -2 v 136 h 2 z" /><path
       id="path258"
       style="fill:#d9d9d9;fill-opacity:1;fill-rule:nonzero;stroke:none"
       d="m 34,64 h -2 v 136 h 2 z" /><path
       id="path260"
       style="fill:#d9d9d9;fill-opacity:1;fill-rule:nonzero;stroke:none"
       d="m 224,192 h -80 v -24 h 80 z m -2,-22 h -76 v 20 h 76 z" /></g></svg>