<?xml version="1.0" encoding="UTF-8" standalone="no"?>
<svg
   xmlns:dc="http://purl.org/dc/elements/1.1/"
   xmlns:cc="http://creativecommons.org/ns#"
   xmlns:rdf="http://www.w3.org/1999/02/22-rdf-syntax-ns#"
   xmlns:svg="http://www.w3.org/2000/svg"
   xmlns="http://www.w3.org/2000/svg"
   viewBox="0 0 330.66665 288"
   height="288"
   width="330.66666"
   xml:space="preserve"
   id="svg2"
   version="1.1"><metadata
     id="metadata8"><rdf:RDF><cc:Work
         rdf:about=""><dc:format>image/svg+xml</dc:format><dc:type
           rdf:resource="http://purl.org/dc/dcmitype/StillImage" /></cc:Work></rdf:RDF></metadata><defs
     id="defs6"><clipPath
       id="clipPath18"
       clipPathUnits="userSpaceOnUse"><path
         id="path16"
         d="M 0,256 H 256 V 0 H 0 Z" /></clipPath><clipPath
       id="clipPath26"
       clipPathUnits="userSpaceOnUse"><path
         id="path24"
         d="M 4,236 H 252 V 20 H 4 Z" /></clipPath></defs><g
     transform="matrix(1.3333333,0,0,-1.3333333,-5.3333332,314.66666)"
     id="g10"><g
       id="g12"><g
         clip-path="url(#clipPath18)"
         id="g14"><g
           id="g20"><g
             id="g22" /><g
             id="g34"><g
               style="opacity:0.5"
               id="g32"
               clip-path="url(#clipPath26)"><g
                 id="g30"
                 transform="translate(252,116)"><path
                   id="path28"
                   style="fill:#ffffff;fill-opacity:1;fill-rule:nonzero;stroke:none"
                   d="m 0,0 c 0,8.822 -7.178,16 -16,16 h -48 v 28 4 4 4 4 4 8 4 4 4 4 4 16 c 0,6.617 -5.383,12 -12,12 h -100 c -6.617,0 -12,-5.383 -12,-12 V 92 88 84 80 76 72 64 60 56 52 48 44 16 h -44 c -8.822,0 -16,-7.178 -16,-16 v -52 c 0,-0.69 0.087,-1.36 0.252,-2 -0.165,-0.64 -0.252,-1.31 -0.252,-2 v -4 c 0,-0.69 0.087,-1.36 0.252,-2 -0.165,-0.64 -0.252,-1.31 -0.252,-2 v -4 c 0,-0.69 0.087,-1.36 0.252,-2 -0.165,-0.64 -0.252,-1.31 -0.252,-2 v -8 c 0,-8.822 7.178,-16 16,-16 h 128 8 c 2.961,0 5.547,1.608 6.93,4 h 1.07 28 1.07 c 1.383,-2.392 3.969,-4 6.93,-4 h 8 28 c 8.822,0 16,7.178 16,16 v 8 c 0,0.69 -0.088,1.36 -0.252,2 0.164,0.64 0.252,1.31 0.252,2 v 4 c 0,0.69 -0.088,1.36 -0.252,2 0.164,0.64 0.252,1.31 0.252,2 v 4 c 0,0.69 -0.088,1.36 -0.252,2 0.164,0.64 0.252,1.31 0.252,2 z" /></g></g></g></g><g
           transform="translate(244,64)"
           id="g36"><path
             id="path38"
             style="fill:#404040;fill-opacity:1;fill-rule:nonzero;stroke:none"
             d="m 0,0 v 52 c 0,4.4 -3.6,8 -8,8 h -60 v 32 c 0,2.209 -1.791,4 -4,4 h -92 c -2.209,0 -4,-1.791 -4,-4 V 60 h -56 c -4.4,0 -8,-3.6 -8,-8 V 0 h 4 v -4 h -4 v -4 h 4 v -4 h -4 v -4 h 4 v -4 h -4 v -8 c 0,-4.418 3.582,-8 8,-8 h 128 l 8,4 h 44 l 8,-4 h 28 c 4.418,0 8,3.582 8,8 v 8 h -4 v 4 h 4 v 4 h -4 v 4 h 4 v 4 h -4 v 4 z" /></g><path
           id="path40"
           style="fill:#333333;fill-opacity:1;fill-rule:nonzero;stroke:none"
           d="M 144,60 H 16 v 4 h 128 z" /><path
           id="path42"
           style="fill:#333333;fill-opacity:1;fill-rule:nonzero;stroke:none"
           d="M 144,52 H 16 v 4 h 128 z" /><path
           id="path44"
           style="fill:#333333;fill-opacity:1;fill-rule:nonzero;stroke:none"
           d="M 144,44 H 16 v 4 h 128 z" /><path
           id="path46"
           style="fill:#333333;fill-opacity:1;fill-rule:nonzero;stroke:none"
           d="m 240,60 h -28 v 4 h 28 z" /><path
           id="path48"
           style="fill:#333333;fill-opacity:1;fill-rule:nonzero;stroke:none"
           d="m 240,52 h -28 v 4 h 28 z" /><path
           id="path50"
           style="fill:#333333;fill-opacity:1;fill-rule:nonzero;stroke:none"
           d="m 240,44 h -28 v 4 h 28 z" /><g
           transform="translate(207.9258,84)"
           id="g52"><path
             id="path54"
             style="fill:#4c4c4c;fill-opacity:1;fill-rule:nonzero;stroke:none"
             d="M 0,0 C -1.029,15.635 -14.03,28 -29.926,28 -45.821,28 -58.822,15.635 -59.852,0 h -0.074 v -56 h 8 v 4 40 h 44 v -40 -4 h 8 V 0 Z" /></g><g
           transform="translate(192,32)"
           id="g56"><path
             id="path58"
             style="fill:#333333;fill-opacity:1;fill-rule:nonzero;stroke:none"
             d="m 0,0 v 4 c 0,6.627 -6.268,12 -14,12 -7.732,0 -14,-5.373 -14,-12 V 0 Z" /></g><path
           id="path60"
           style="fill:#333333;fill-opacity:1;fill-rule:nonzero;stroke:none"
           d="m 164,44 h -4 v 28 h 4 z" /><path
           id="path62"
           style="fill:#333333;fill-opacity:1;fill-rule:nonzero;stroke:none"
           d="m 172,53.333 h -4 V 72 h 4 z" /><path
           id="path64"
           style="fill:#333333;fill-opacity:1;fill-rule:nonzero;stroke:none"
           d="m 180,58 h -4 v 14 h 4 z" /><path
           id="path66"
           style="fill:#333333;fill-opacity:1;fill-rule:nonzero;stroke:none"
           d="m 188,53.333 h -4 V 72 h 4 z" /><path
           id="path68"
           style="fill:#333333;fill-opacity:1;fill-rule:nonzero;stroke:none"
           d="m 196,44 h -4 v 28 h 4 z" /><g
           transform="translate(34,108)"
           id="g70"><path
             id="path72"
             style="fill:#333333;fill-opacity:1;fill-rule:nonzero;stroke:none"
             d="m 0,0 h -16 c -1.104,0 -2,0.896 -2,2 0,1.104 0.896,2 2,2 H 0 C 1.104,4 2,3.104 2,2 2,0.896 1.104,0 0,0" /></g><g
           transform="translate(30,96)"
           id="g74"><path
             id="path76"
             style="fill:#333333;fill-opacity:1;fill-rule:nonzero;stroke:none"
             d="m 0,0 h -12 c -1.104,0 -2,0.896 -2,2 0,1.104 0.896,2 2,2 H 0 C 1.104,4 2,3.104 2,2 2,0.896 1.104,0 0,0" /></g><g
           transform="translate(102,68)"
           id="g78"><path
             id="path80"
             style="fill:#333333;fill-opacity:1;fill-rule:nonzero;stroke:none"
             d="m 0,0 h -48 c -1.104,0 -2,0.896 -2,2 v 12 c 0,1.104 0.896,2 2,2 H 0 c 1.104,0 2,-0.896 2,-2 V 2 C 2,0.896 1.104,0 0,0" /></g><g
           transform="translate(130,40)"
           id="g82"><path
             id="path84"
             style="fill:#333333;fill-opacity:1;fill-rule:nonzero;stroke:none"
             d="m 0,0 h -12 c -1.104,0 -2,-0.896 -2,-2 0,-1.104 0.896,-2 2,-2 h 10 v -2 c 0,-1.104 0.896,-2 2,-2 1.104,0 2,0.896 2,2 v 4 C 2,-0.896 1.104,0 0,0" /></g><g
           transform="translate(218,40)"
           id="g86"><path
             id="path88"
             style="fill:#333333;fill-opacity:1;fill-rule:nonzero;stroke:none"
             d="m 0,0 h 12 c 1.104,0 2,-0.896 2,-2 0,-1.104 -0.896,-2 -2,-2 H 2 v -2 c 0,-1.104 -0.896,-2 -2,-2 -1.104,0 -2,0.896 -2,2 v 4 c 0,1.104 0.896,2 2,2" /></g><g
           transform="translate(176,228)"
           id="g90"><path
             id="path92"
             style="fill:#404040;fill-opacity:1;fill-rule:nonzero;stroke:none"
             d="m 0,0 h -100 c -2.209,0 -4,-1.791 -4,-4 V -112 H 4 V -4 C 4,-1.791 2.209,0 0,0" /></g><path
           id="path94"
           style="fill:#333333;fill-opacity:1;fill-rule:nonzero;stroke:none"
           d="M 176,116 H 76 v 96 h 100 z" /><g
           transform="translate(168,166)"
           id="g96"><path
             id="path98"
             style="fill:#404040;fill-opacity:1;fill-rule:nonzero;stroke:none"
             d="m 0,0 c 0,-23.196 -18.804,-42 -42,-42 -23.196,0 -42,18.804 -42,42 0,23.196 18.804,42 42,42 C -18.804,42 0,23.196 0,0" /></g><g
           transform="translate(158,156)"
           id="g100"><path
             id="path102"
             style="fill:#262626;fill-opacity:1;fill-rule:nonzero;stroke:none"
             d="m 0,0 h -64 c -1.104,0 -2,0.896 -2,2 v 16 c 0,1.104 0.896,2 2,2 H 0 c 1.104,0 2,-0.896 2,-2 V 2 C 2,0.896 1.104,0 0,0" /></g><path
           id="path104"
           style="fill:#333333;fill-opacity:1;fill-rule:nonzero;stroke:none"
           d="M 108,160 H 96 v 12 h 12 z" /><path
           id="path106"
           style="fill:#333333;fill-opacity:1;fill-rule:nonzero;stroke:none"
           d="m 156,160 h -12 v 12 h 12 z" /><g
           transform="translate(92,126)"
           id="g108"><path
             id="path110"
             style="fill:#262626;fill-opacity:1;fill-rule:nonzero;stroke:none"
             d="m 0,0 c 0,-3.313 -2.687,-6 -6,-6 -3.313,0 -6,2.687 -6,6 0,3.313 2.687,6 6,6 3.313,0 6,-2.687 6,-6" /></g><g
           transform="translate(172,128)"
           id="g112"><path
             id="path114"
             style="fill:#404040;fill-opacity:1;fill-rule:nonzero;stroke:none"
             d="m 0,0 c 0,-2.209 -1.791,-4 -4,-4 -2.209,0 -4,1.791 -4,4 0,2.209 1.791,4 4,4 2.209,0 4,-1.791 4,-4" /></g><g
           transform="translate(172,138)"
           id="g116"><path
             id="path118"
             style="fill:#404040;fill-opacity:1;fill-rule:nonzero;stroke:none"
             d="m 0,0 c 0,-1.104 -0.896,-2 -2,-2 -1.104,0 -2,0.896 -2,2 0,1.104 0.896,2 2,2 1.104,0 2,-0.896 2,-2" /></g><g
           transform="translate(162,120)"
           id="g120"><path
             id="path122"
             style="fill:#404040;fill-opacity:1;fill-rule:nonzero;stroke:none"
             d="m 0,0 h -8 c -1.104,0 -2,0.896 -2,2 0,1.104 0.896,2 2,2 H 0 C 1.104,4 2,3.104 2,2 2,0.896 1.104,0 0,0" /></g><g
           transform="translate(102,120)"
           id="g124"><path
             id="path126"
             style="fill:#404040;fill-opacity:1;fill-rule:nonzero;stroke:none"
             d="m 0,0 h -4 c -1.104,0 -2,0.896 -2,2 0,1.104 0.896,2 2,2 H 0 C 1.104,4 2,3.104 2,2 2,0.896 1.104,0 0,0" /></g><g
           transform="translate(76,144.5)"
           id="g128"><path
             id="path130"
             style="fill:#262626;fill-opacity:1;fill-rule:nonzero;stroke:none"
             d="m 0,0 v -1 h 14.543 c -0.21,0.331 -0.421,0.663 -0.623,1 z" /></g><g
           transform="translate(176,144.5)"
           id="g132"><path
             id="path134"
             style="fill:#262626;fill-opacity:1;fill-rule:nonzero;stroke:none"
             d="m 0,0 h -13.92 c -0.202,-0.337 -0.412,-0.669 -0.623,-1 H 0 Z" /></g><g
           transform="translate(161.7773,144)"
           id="g136"><path
             id="path138"
             style="fill:#262626;fill-opacity:1;fill-rule:nonzero;stroke:none"
             d="m 0,0 c -7.394,-11.999 -20.649,-20 -35.777,-20 -15.128,0 -28.384,8.001 -35.778,20 h -1.15 c 7.515,-12.565 21.252,-21 36.928,-21 15.674,0 29.413,8.435 36.927,21 z" /></g><path
           id="path140"
           style="fill:#333333;fill-opacity:1;fill-rule:nonzero;stroke:none"
           d="m 76,204 h -4 v 4 h 4 z" /><path
           id="path142"
           style="fill:#333333;fill-opacity:1;fill-rule:nonzero;stroke:none"
           d="m 76,196 h -4 v 4 h 4 z" /><path
           id="path144"
           style="fill:#333333;fill-opacity:1;fill-rule:nonzero;stroke:none"
           d="m 76,188 h -4 v 4 h 4 z" /><path
           id="path146"
           style="fill:#333333;fill-opacity:1;fill-rule:nonzero;stroke:none"
           d="m 76,176 h -4 v 4 h 4 z" /><path
           id="path148"
           style="fill:#333333;fill-opacity:1;fill-rule:nonzero;stroke:none"
           d="m 76,168 h -4 v 4 h 4 z" /><path
           id="path150"
           style="fill:#333333;fill-opacity:1;fill-rule:nonzero;stroke:none"
           d="m 76,160 h -4 v 4 h 4 z" /><path
           id="path152"
           style="fill:#333333;fill-opacity:1;fill-rule:nonzero;stroke:none"
           d="m 180,204 h -4 v 4 h 4 z" /><path
           id="path154"
           style="fill:#333333;fill-opacity:1;fill-rule:nonzero;stroke:none"
           d="m 180,196 h -4 v 4 h 4 z" /><path
           id="path156"
           style="fill:#333333;fill-opacity:1;fill-rule:nonzero;stroke:none"
           d="m 180,188 h -4 v 4 h 4 z" /><path
           id="path158"
           style="fill:#333333;fill-opacity:1;fill-rule:nonzero;stroke:none"
           d="m 180,176 h -4 v 4 h 4 z" /><path
           id="path160"
           style="fill:#333333;fill-opacity:1;fill-rule:nonzero;stroke:none"
           d="m 180,168 h -4 v 4 h 4 z" /><path
           id="path162"
           style="fill:#333333;fill-opacity:1;fill-rule:nonzero;stroke:none"
           d="m 180,160 h -4 v 4 h 4 z" /></g></g></g></svg>