<?xml version="1.0" encoding="UTF-8" standalone="no"?>
<svg
   xmlns:dc="http://purl.org/dc/elements/1.1/"
   xmlns:cc="http://creativecommons.org/ns#"
   xmlns:rdf="http://www.w3.org/1999/02/22-rdf-syntax-ns#"
   xmlns:svg="http://www.w3.org/2000/svg"
   xmlns="http://www.w3.org/2000/svg"
   viewBox="0 0 330.66665 245.33319"
   height="245.33319"
   width="330.66666"
   xml:space="preserve"
   id="svg2"
   version="1.1"><metadata
     id="metadata8"><rdf:RDF><cc:Work
         rdf:about=""><dc:format>image/svg+xml</dc:format><dc:type
           rdf:resource="http://purl.org/dc/dcmitype/StillImage" /></cc:Work></rdf:RDF></metadata><defs
     id="defs6"><clipPath
       id="clipPath18"
       clipPathUnits="userSpaceOnUse"><path
         id="path16"
         d="M 0,256 H 256 V 0 H 0 Z" /></clipPath><clipPath
       id="clipPath26"
       clipPathUnits="userSpaceOnUse"><path
         id="path24"
         d="M 4,220 H 252 V 36.0001 H 4 Z" /></clipPath><clipPath
       id="clipPath46"
       clipPathUnits="userSpaceOnUse"><path
         id="path44"
         d="M 0,256 H 256 V 0 H 0 Z" /></clipPath></defs><g
     transform="matrix(1.3333333,0,0,-1.3333333,-5.3333332,293.33333)"
     id="g10"><g
       id="g12"><g
         clip-path="url(#clipPath18)"
         id="g14"><g
           id="g20"><g
             id="g22" /><g
             id="g34"><g
               style="opacity:0.5"
               id="g32"
               clip-path="url(#clipPath26)"><g
                 id="g30"
                 transform="translate(252,158)"><path
                   id="path28"
                   style="fill:#ffffff;fill-opacity:1;fill-rule:nonzero;stroke:none"
                   d="m 0,0 c 0,2.686 -1.063,5.126 -2.792,6.925 l -1.224,19.574 -0.08,1.281 -0.476,1.191 c -0.096,0.239 -2.39,5.925 -6.374,11.617 -4.216,6.022 -11.19,13.183 -20.601,13.407 l -79.657,7.965 -0.397,0.04 h -0.399 -24 -0.399 l -0.397,-0.04 -79.657,-7.965 c -9.411,-0.224 -16.385,-7.385 -20.601,-13.407 -3.985,-5.692 -6.278,-11.378 -6.374,-11.617 l -0.476,-1.191 -0.08,-1.281 -1.224,-19.574 C -246.937,5.126 -248,2.686 -248,0 v -20 c 0,-1.411 0.301,-2.783 0.857,-4.036 l -0.709,-11.34 c -0.042,-0.676 -0.013,-1.354 0.083,-2.024 l -0.168,-1.479 c -0.319,-2.817 0.583,-5.648 2.476,-7.767 1.431,-1.603 3.332,-2.692 5.405,-3.133 l 9.075,-3.645 1.435,-0.576 h 1.546 14 c 2.249,0 4.328,0.747 6,2.005 v -60.11 c 0,-4.797 3.211,-9.895 9.162,-9.895 3.207,0 8.265,1.687 10.838,4.748 5.746,6.836 13.349,19.305 22.718,33.793 10.953,16.939 31.103,21.459 41.282,21.459 10.179,0 30.328,-4.52 41.282,-21.459 9.369,-14.488 16.972,-26.957 22.718,-33.793 2.573,-3.061 7.632,-4.748 10.838,-4.748 5.951,0 9.162,5.098 9.162,9.895 v 60.11 c 1.673,-1.258 3.751,-2.005 6,-2.005 h 14 1.547 l 1.434,0.576 9.075,3.645 c 2.073,0.441 3.974,1.53 5.405,3.133 1.893,2.119 2.795,4.95 2.476,7.767 l -0.168,1.479 c 0.096,0.67 0.125,1.348 0.083,2.025 l -0.709,11.339 C -0.301,-22.783 0,-21.411 0,-20 Z" /></g></g></g></g></g></g><g
       transform="translate(36,204)"
       id="g36"><path
         id="path38"
         style="fill:#7b0000;fill-opacity:1;fill-rule:nonzero;stroke:none"
         d="m 0,0 80,8 h 24 l 80,-8 z" /></g><g
       id="g40"><g
         clip-path="url(#clipPath46)"
         id="g42"><g
           transform="translate(60,45.8945)"
           id="g48"><path
             id="path50"
             style="fill:#333333;fill-opacity:1;fill-rule:nonzero;stroke:none"
             d="m 0,0 c 4.993,5.941 10.41,18.16 20,32.991 12.752,19.72 36,25.114 48,25.114 12,0 35.248,-5.394 48,-25.114 C 125.59,18.16 131.007,5.941 136,0 c 1.819,-2.164 8,-2.864 8,0 V 74.105 H 120 108 28 20 -8 V 0 c 0,-2.864 6.181,-2.164 8,0" /></g><g
           transform="translate(14,136)"
           id="g52"><path
             id="path54"
             style="fill:#404040;fill-opacity:1;fill-rule:nonzero;stroke:none"
             d="M 0,0 H 0.027 L -1.987,-17.779 C -2.122,-18.964 -1.176,-20 0.04,-20 L 10,-24 V 0 h 208 v -24 l 9.96,4 c 1.216,0 2.161,1.036 2.027,2.221 L 227.973,0 H 228 c 1.104,0 2,0.896 2,2 v 20 c 0,1.104 -0.896,2 -2,2 H 0 c -1.104,0 -2,-0.896 -2,-2 V 2 C -2,0.896 -1.104,0 0,0" /></g><path
           id="path56"
           style="fill:#7b0000;fill-opacity:1;fill-rule:nonzero;stroke:none"
           d="M 36,128 H 220 V 116 H 36 Z" /><g
           transform="translate(218,132)"
           id="g58"><path
             id="path60"
             style="fill:#3d0000;fill-opacity:1;fill-rule:nonzero;stroke:none"
             d="m 0,0 h 12 c 1.104,0 2,-0.896 2,-2 V -20 H 0 c -1.104,0 -2,0.896 -2,2 v 16 c 0,1.104 0.896,2 2,2" /></g><g
           transform="translate(38,132)"
           id="g62"><path
             id="path64"
             style="fill:#3d0000;fill-opacity:1;fill-rule:nonzero;stroke:none"
             d="m 0,0 h -12 c -1.104,0 -2,-0.896 -2,-2 V -20 H 0 c 1.104,0 2,0.896 2,2 V -2 C 2,-0.896 1.104,0 0,0" /></g><g
           transform="translate(36,122)"
           id="g66"><path
             id="path68"
             style="fill:#b80000;fill-opacity:1;fill-rule:nonzero;stroke:none"
             d="m 0,0 v 4 c 0,1.104 0.896,2 2,2 h 50 40 40 50 c 1.104,0 2,-0.896 2,-2 V 0 c 0,-1.104 0.896,-2 2,-2 h 19.871 c 1.153,0 2.068,0.974 1.996,2.125 L 204,62 c 0,0 -8,20 -20,20 -12,0 -92,4 -92,4 C 92,86 12,82 0,82 -12,82 -20,62 -20,62 L -23.867,0.125 C -23.939,-1.026 -23.025,-2 -21.871,-2 H -2 c 1.104,0 2,0.896 2,2" /></g><path
           id="path70"
           style="fill:#b80000;fill-opacity:1;fill-rule:nonzero;stroke:none"
           d="m 144,124 h 12 v -4 h -12 z" /><path
           id="path72"
           style="fill:#b80000;fill-opacity:1;fill-rule:nonzero;stroke:none"
           d="m 100,124 h 12 v -4 h -12 z" /><g
           transform="translate(212,164)"
           id="g74"><path
             id="path76"
             style="fill:#ff0000;fill-opacity:1;fill-rule:nonzero;stroke:none"
             d="m 0,0 h -44 l -16,32 h -48 L -124,0 h -44 c -4.418,0 -8,-3.582 -8,-8 v -4 c 0,-4.418 3.582,-8 8,-8 l 44,-4 v -20 l 2.669,-9.338 c 0.784,-1.568 2.492,-2.445 4.223,-2.158 5.158,0.855 16.588,2.557 29.108,3.168 v 0.204 c 1.335,0 2.67,-0.02 4,-0.054 1.329,0.034 2.664,0.054 4,0.054 v -0.204 c 12.52,-0.611 23.95,-2.313 29.108,-3.168 1.732,-0.287 3.439,0.59 4.223,2.158 L -44,-44 v 20 l 44,4 c 4.418,0 8,3.582 8,8 v 4 C 8,-3.582 4.418,0 0,0" /></g><path
           id="path78"
           style="fill:#b80000;fill-opacity:1;fill-rule:nonzero;stroke:none"
           d="m 164,164 h 4 v -24 h -4 z" /><g
           transform="translate(124,168)"
           id="g80"><path
             id="path82"
             style="fill:#999999;fill-opacity:1;fill-rule:nonzero;stroke:none"
             d="m 0,0 h 4 4 l 16,8 v 8 L 8,24 H 4 0 L -16,16 V 8 Z" /></g><g
           transform="translate(223,202)"
           id="g84"><path
             id="path86"
             style="fill:#7b0000;fill-opacity:1;fill-rule:nonzero;stroke:none"
             d="m 0,0 v 0 c 0.553,0 1,-0.448 1,-1 v -68 c 0,-0.552 -0.447,-1 -1,-1 -0.553,0 -1,0.448 -1,1 v 68 c 0,0.552 0.447,1 1,1" /></g><g
           transform="translate(140,178)"
           id="g88"><path
             id="path90"
             style="fill:#b3b3b3;fill-opacity:1;fill-rule:nonzero;stroke:none"
             d="M 0,0 V 4 L 8,6 V -2 Z" /></g><path
           id="path92"
           style="fill:#b80000;fill-opacity:1;fill-rule:nonzero;stroke:none"
           d="m 92,164 h -4 v -24 h 4 z" /><g
           transform="translate(33,202)"
           id="g94"><path
             id="path96"
             style="fill:#7b0000;fill-opacity:1;fill-rule:nonzero;stroke:none"
             d="m 0,0 v 0 c -0.552,0 -1,-0.448 -1,-1 v -68 c 0,-0.552 0.448,-1 1,-1 0.552,0 1,0.448 1,1 V -1 C 1,-0.448 0.552,0 0,0" /></g><g
           transform="translate(116,178)"
           id="g98"><path
             id="path100"
             style="fill:#b3b3b3;fill-opacity:1;fill-rule:nonzero;stroke:none"
             d="M 0,0 V 4 L -8,6 V -2 Z" /></g><g
           transform="translate(116,180)"
           id="g102"><path
             id="path104"
             style="fill:#b3b3b3;fill-opacity:1;fill-rule:nonzero;stroke:none"
             d="M 0,0 C 0,6.627 5.373,12 12,12 18.627,12 24,6.627 24,0 24,-6.627 18.627,-12 12,-12 5.373,-12 0,-6.627 0,0" /></g><path
           id="path106"
           style="fill:#cccccc;fill-opacity:1;fill-rule:nonzero;stroke:none"
           d="m 116,182 h 24 v -4 h -24 z" /><path
           id="path108"
           style="fill:#7b0000;fill-opacity:1;fill-rule:nonzero;stroke:none"
           d="M 164,142 H 92 v 20 h 72 z" /><g
           transform="translate(102,164)"
           id="g110"><path
             id="path112"
             style="fill:#999999;fill-opacity:1;fill-rule:nonzero;stroke:none"
             d="m 0,0 h 52 c 1.104,0 2,-0.896 2,-2 v -20 c 0,-1.104 -0.896,-2 -2,-2 H 0 c -1.104,0 -2,0.896 -2,2 v 20 c 0,1.104 0.896,2 2,2" /></g><path
           id="path114"
           style="fill:#b3b3b3;fill-opacity:1;fill-rule:nonzero;stroke:none"
           d="m 124,164 h 8 v -24 h -8 z" /><g
           transform="translate(116,212)"
           id="g116"><path
             id="path118"
             style="fill:#b80000;fill-opacity:1;fill-rule:nonzero;stroke:none"
             d="M 0,0 12,-4 24,0 Z" /></g><g
           transform="translate(130,184)"
           id="g120"><path
             id="path122"
             style="fill:#999999;fill-opacity:1;fill-rule:nonzero;stroke:none"
             d="m 0,0 h -4 l 2,4 z" /></g><g
           transform="translate(108,154)"
           id="g124"><path
             id="path126"
             style="fill:#8c8c8c;fill-opacity:1;fill-rule:nonzero;stroke:none"
             d="m 0,0 v -4 l -4,2 z" /></g><g
           transform="translate(148,150)"
           id="g128"><path
             id="path130"
             style="fill:#8c8c8c;fill-opacity:1;fill-rule:nonzero;stroke:none"
             d="M 0,0 V 4 L 4,2 Z" /></g></g></g></g></svg>