<svg xmlns="http://www.w3.org/2000/svg" xml:space="preserve" width="319.999" height="213.333" viewBox="0 0 319.999 213.333"><defs><clipPath id="a" clipPathUnits="userSpaceOnUse"><path d="M0 256h256V0H0Z"/></clipPath><clipPath id="b" clipPathUnits="userSpaceOnUse"><path d="M8 208h240V48H8Z"/></clipPath></defs><g clip-path="url(#a)" transform="matrix(1.33333 0 0 -1.33333 -10.667 277.333)"><g clip-path="url(#b)" style="opacity:.5"><path d="m0 0-3.469 48.57c-.595 8.333-7.605 14.86-15.96 14.86h-47.527a11.82 11.82 0 0 1-8.866 4h-88.314a11.82 11.82 0 0 1-8.867-4h-47.527c-8.355 0-15.365-6.527-15.96-14.86L-239.959 0l-.02-.285V-78.57c0-7.72 6.28-14 14-14h212c7.719 0 14 6.28 14 14V-.285z" style="fill:#fff;fill-opacity:1;fill-rule:nonzero;stroke:none" transform="translate(247.98 140.57)"/></g><path d="M0 0h-88.314a3.843 3.843 0 0 0-3.843 3.843v4.314A3.843 3.843 0 0 0-88.314 12H0a3.844 3.844 0 0 0 3.843-3.843V3.843A3.844 3.844 0 0 0 0 0" style="fill:#262626;fill-opacity:1;fill-rule:nonzero;stroke:none" transform="translate(172.157 188)"/><path d="M0 0a8 8 0 0 1-7.979 7.43h-201.102a8 8 0 0 1-7.98-7.43l-3.469-48.57v-78a6 6 0 0 1 6-6h212a6 6 0 0 1 6 6v78z" style="fill:#333;fill-opacity:1;fill-rule:nonzero;stroke:none" transform="translate(236.53 188.57)"/><path d="M0 0h-96l-4-48v-80H4v80z" style="fill:#595959;fill-opacity:1;fill-rule:nonzero;stroke:none" transform="translate(176 192)"/><path d="M0 0h-92.081a1.96 1.96 0 0 0-1.959 1.96v44.081c0 1.082.877 1.959 1.959 1.959H0a1.96 1.96 0 0 0 1.96-1.959V1.96A1.96 1.96 0 0 0 0 0" style="fill:#e6e6e6;fill-opacity:1;fill-rule:nonzero;stroke:none" transform="translate(174.04 92)"/><path d="M0 0h-84.088c-1.08 0-1.956.876-1.956 1.956v20.088c0 1.08.876 1.956 1.956 1.956H0c1.08 0 1.956-.876 1.956-1.956V1.956C1.956.876 1.08 0 0 0" style="fill:#333;fill-opacity:1;fill-rule:nonzero;stroke:none" transform="translate(170.044 112)"/><path d="M0 0h-12.422c-.988 0-1.789.801-1.789 1.789v16.422c0 .988.801 1.789 1.789 1.789H0c.988 0 1.789-.801 1.789-1.789V1.789C1.789.801.988 0 0 0" style="fill:#333;fill-opacity:1;fill-rule:nonzero;stroke:none" transform="translate(98.21 68)"/><path d="M0 0h-12.422c-.988 0-1.789.801-1.789 1.789v16.422c0 .988.801 1.789 1.789 1.789H0c.988 0 1.789-.801 1.789-1.789V1.789C1.789.801.988 0 0 0" style="fill:#4c4c4c;fill-opacity:1;fill-rule:nonzero;stroke:none" transform="translate(94.21 68)"/><path d="M0 0h-16a2 2 0 0 0-2 2v16a2 2 0 0 0 2 2H0a2 2 0 0 0 2-2V2a2 2 0 0 0-2-2" style="fill:#4c4c4c;fill-opacity:1;fill-rule:nonzero;stroke:none" transform="translate(123 68)"/><path d="M0 0h-16a2 2 0 0 0-2 2v16a2 2 0 0 0 2 2H0a2 2 0 0 0 2-2V2a2 2 0 0 0-2-2" style="fill:#4c4c4c;fill-opacity:1;fill-rule:nonzero;stroke:none" transform="translate(149 68)"/><path d="M0 0h-16a2 2 0 0 0-2 2v16a2 2 0 0 0 2 2H0a2 2 0 0 0 2-2V2a2 2 0 0 0-2-2" style="fill:#4c4c4c;fill-opacity:1;fill-rule:nonzero;stroke:none" transform="translate(174 68)"/><path d="M90 68h-4v20h4z" style="fill:#404040;fill-opacity:1;fill-rule:nonzero;stroke:none"/><path d="M0 0a6 6 0 0 0-12 0A6 6 0 0 0 0 0" style="fill:#595959;fill-opacity:1;fill-rule:nonzero;stroke:none" transform="translate(121 78)"/><path d="M0 0a6 6 0 0 0-12 0A6 6 0 0 0 0 0" style="fill:#595959;fill-opacity:1;fill-rule:nonzero;stroke:none" transform="translate(147 78)"/><path d="M0 0a6 6 0 0 0-12 0A6 6 0 0 0 0 0" style="fill:#595959;fill-opacity:1;fill-rule:nonzero;stroke:none" transform="translate(172 78)"/><path d="M0 0v-4h-32v4h-24v-20h80V0z" style="fill:#262626;fill-opacity:1;fill-rule:nonzero;stroke:none" transform="translate(144 172)"/><path d="M172 188H84v2h88zm0-4H84v2h88zm0-4H84v2h88zm0-4H84v2h88z" style="fill:#333;fill-opacity:1;fill-rule:nonzero;stroke:none"/><path d="M90 188h-4v2h4zm0-4h-4v2h4zm0-4h-4v2h4zm0-4h-4v2h4zm8 12h-4v2h4zm0-4h-4v2h4zm0-4h-4v2h4zm0-4h-4v2h4zm8 12h-4v2h4zm0-4h-4v2h4zm0-4h-4v2h4zm0-4h-4v2h4zm8 12h-4v2h4zm0-4h-4v2h4zm0-4h-4v2h4zm0-4h-4v2h4zm8 12h-4v2h4zm0-4h-4v2h4zm0-4h-4v2h4zm0-4h-4v2h4zm8 12h-4v2h4zm0-4h-4v2h4zm0-4h-4v2h4zm0-4h-4v2h4zm8 12h-4v2h4zm0-4h-4v2h4zm0-4h-4v2h4zm0-4h-4v2h4zm8 12h-4v2h4zm0-4h-4v2h4zm0-4h-4v2h4zm0-4h-4v2h4zm8 12h-4v2h4zm0-4h-4v2h4zm0-4h-4v2h4zm0-4h-4v2h4zm8 12h-4v2h4zm0-4h-4v2h4zm0-4h-4v2h4zm0-4h-4v2h4zm8 12h-4v2h4zm0-4h-4v2h4zm0-4h-4v2h4zm0-4h-4v2h4z" style="fill:#262626;fill-opacity:1;fill-rule:nonzero;stroke:none"/><path d="M0 0h-52l-4-48v-70a2 2 0 0 1 2-2h48a2 2 0 0 1 2 2v70z" style="fill:#404040;fill-opacity:1;fill-rule:nonzero;stroke:none" transform="translate(72 188)"/><path d="m0 0 3.681 40H48L44 0Z" style="fill:#333;fill-opacity:1;fill-rule:nonzero;stroke:none" transform="translate(20 144)"/><path d="M0 0h20l-4-20H-4Z" style="fill:#262626;fill-opacity:1;fill-rule:nonzero;stroke:none" transform="translate(36 176)"/><path d="m0 0 12 12h20L44 0Z" style="fill:#4c4c4c;fill-opacity:1;fill-rule:nonzero;stroke:none" transform="translate(20 144)"/><path d="m0 0-12-8h-20l-12.319 8Z" style="fill:#4c4c4c;fill-opacity:1;fill-rule:nonzero;stroke:none" transform="translate(68 184)"/><path d="M64 72H20v68h44z" style="fill:#4c4c4c;fill-opacity:1;fill-rule:nonzero;stroke:none"/><path d="M32 128h-8v4h8zm28 0h-8v4h8z" style="fill:red;fill-opacity:1;fill-rule:nonzero;stroke:none"/><path d="M32 116h-8v4h8zm14 0h-8v4h8zm14 0h-8v4h8zm-28-12h-8v4h8zm14 0h-8v4h8zm14 0h-8v4h8zM32 92h-8v4h8zm14 0h-8v4h8zm14 0h-8v4h8zM32 80h-8v4h8zm14 0h-8v4h8zm14 0h-8v4h8z" style="fill:#404040;fill-opacity:1;fill-rule:nonzero;stroke:none"/><path d="M0 0a6 6 0 0 0-12 0A6 6 0 0 0 0 0" style="fill:#595959;fill-opacity:1;fill-rule:nonzero;stroke:none" transform="translate(50 166)"/><path d="m0 0 4-48v-70a2 2 0 0 1 2-2h48a2 2 0 0 1 2 2v70L52 0Z" style="fill:#404040;fill-opacity:1;fill-rule:nonzero;stroke:none" transform="translate(184 188)"/><path d="m0 0-3.681 40H-48l4-40z" style="fill:#333;fill-opacity:1;fill-rule:nonzero;stroke:none" transform="translate(236 144)"/><path d="M0 0h-20l4-20H4Z" style="fill:#262626;fill-opacity:1;fill-rule:nonzero;stroke:none" transform="translate(220 176)"/><path d="m0 0-12 12h-20L-44 0Z" style="fill:#4c4c4c;fill-opacity:1;fill-rule:nonzero;stroke:none" transform="translate(236 144)"/><path d="m0 0 12-8h20l12.319 8Z" style="fill:#4c4c4c;fill-opacity:1;fill-rule:nonzero;stroke:none" transform="translate(188 184)"/><path d="M192 72h44v68h-44z" style="fill:#4c4c4c;fill-opacity:1;fill-rule:nonzero;stroke:none"/><path d="M224 128h8v4h-8zm-28 0h8v4h-8z" style="fill:red;fill-opacity:1;fill-rule:nonzero;stroke:none"/><path d="M224 116h8v4h-8zm-14 0h8v4h-8zm-14 0h8v4h-8zm28-12h8v4h-8zm-14 0h8v4h-8zm-14 0h8v4h-8zm28-12h8v4h-8zm-14 0h8v4h-8zm-14 0h8v4h-8zm28-12h8v4h-8zm-14 0h8v4h-8zm-14 0h8v4h-8z" style="fill:#404040;fill-opacity:1;fill-rule:nonzero;stroke:none"/><path d="M0 0a6 6 0 0 1 12 0A6 6 0 0 1 0 0" style="fill:#595959;fill-opacity:1;fill-rule:nonzero;stroke:none" transform="translate(206 166)"/></g></svg>