<?xml version="1.0" encoding="UTF-8" standalone="no"?>
<svg
   xmlns:dc="http://purl.org/dc/elements/1.1/"
   xmlns:cc="http://creativecommons.org/ns#"
   xmlns:rdf="http://www.w3.org/1999/02/22-rdf-syntax-ns#"
   xmlns:svg="http://www.w3.org/2000/svg"
   xmlns="http://www.w3.org/2000/svg"
   viewBox="0 0 319.99933 213.33307"
   height="213.33307"
   width="319.99933"
   xml:space="preserve"
   id="svg2"
   version="1.1"><metadata
     id="metadata8"><rdf:RDF><cc:Work
         rdf:about=""><dc:format>image/svg+xml</dc:format><dc:type
           rdf:resource="http://purl.org/dc/dcmitype/StillImage" /></cc:Work></rdf:RDF></metadata><defs
     id="defs6"><clipPath
       id="clipPath18"
       clipPathUnits="userSpaceOnUse"><path
         id="path16"
         d="M 0,256 H 256 V 0 H 0 Z" /></clipPath><clipPath
       id="clipPath26"
       clipPathUnits="userSpaceOnUse"><path
         id="path24"
         d="M 8,208 H 248 V 48 H 8 Z" /></clipPath></defs><g
     transform="matrix(1.3333333,0,0,-1.3333333,-10.667333,277.33306)"
     id="g10"><g
       id="g12"><g
         clip-path="url(#clipPath18)"
         id="g14"><g
           id="g20"><g
             id="g22" /><g
             id="g34"><g
               style="opacity:0.5"
               id="g32"
               clip-path="url(#clipPath26)"><g
                 id="g30"
                 transform="translate(247.9795,140.5698)"><path
                   id="path28"
                   style="fill:#ffffff;fill-opacity:1;fill-rule:nonzero;stroke:none"
                   d="m 0,0 -3.469,48.57 c -0.595,8.333 -7.605,14.86 -15.96,14.86 h -47.527 c -2.171,2.452 -5.342,4 -8.866,4 h -88.314 c -3.526,0 -6.696,-1.548 -8.867,-4 h -47.527 c -8.355,0 -15.365,-6.527 -15.96,-14.86 L -239.959,0 l -0.02,-0.285 v -0.285 -70 -8 c 0,-7.72 6.28,-14 14,-14 h 212 c 7.719,0 14,6.28 14,14 v 8 70 0.285 z" /></g></g></g></g><g
           transform="translate(172.1572,188)"
           id="g36"><path
             id="path38"
             style="fill:#262626;fill-opacity:1;fill-rule:nonzero;stroke:none"
             d="m 0,0 h -88.314 c -2.123,0 -3.843,1.721 -3.843,3.843 v 4.314 c 0,2.122 1.72,3.843 3.843,3.843 H 0 C 2.122,12 3.843,10.279 3.843,8.157 V 3.843 C 3.843,1.721 2.122,0 0,0" /></g><g
           transform="translate(236.5303,188.5698)"
           id="g40"><path
             id="path42"
             style="fill:#333333;fill-opacity:1;fill-rule:nonzero;stroke:none"
             d="m 0,0 c -0.299,4.187 -3.782,7.43 -7.979,7.43 h -201.102 c -4.197,0 -7.681,-3.243 -7.98,-7.43 l -3.469,-48.57 v -78 c 0,-3.313 2.686,-6 6,-6 h 212 c 3.313,0 6,2.687 6,6 v 78 z" /></g><g
           transform="translate(176,192)"
           id="g44"><path
             id="path46"
             style="fill:#595959;fill-opacity:1;fill-rule:nonzero;stroke:none"
             d="m 0,0 h -48 -48 l -4,-48 v -80 h 52 52 v 80 z" /></g><g
           transform="translate(174.04,92)"
           id="g48"><path
             id="path50"
             style="fill:#e6e6e6;fill-opacity:1;fill-rule:nonzero;stroke:none"
             d="m 0,0 h -92.081 c -1.082,0 -1.959,0.877 -1.959,1.96 v 44.081 c 0,1.082 0.877,1.959 1.959,1.959 L 0,48 c 1.083,0 1.96,-0.877 1.96,-1.959 V 1.96 C 1.96,0.877 1.083,0 0,0" /></g><g
           transform="translate(170.0439,112)"
           id="g52"><path
             id="path54"
             style="fill:#333333;fill-opacity:1;fill-rule:nonzero;stroke:none"
             d="m 0,0 h -84.088 c -1.08,0 -1.956,0.876 -1.956,1.956 v 20.088 c 0,1.08 0.876,1.956 1.956,1.956 H 0 c 1.08,0 1.956,-0.876 1.956,-1.956 V 1.956 C 1.956,0.876 1.08,0 0,0" /></g><g
           transform="translate(98.2109,68)"
           id="g56"><path
             id="path58"
             style="fill:#333333;fill-opacity:1;fill-rule:nonzero;stroke:none"
             d="m 0,0 h -12.422 c -0.988,0 -1.789,0.801 -1.789,1.789 v 16.422 c 0,0.988 0.801,1.789 1.789,1.789 L 0,20 c 0.988,0 1.789,-0.801 1.789,-1.789 V 1.789 C 1.789,0.801 0.988,0 0,0" /></g><g
           transform="translate(94.2109,68)"
           id="g60"><path
             id="path62"
             style="fill:#4c4c4c;fill-opacity:1;fill-rule:nonzero;stroke:none"
             d="m 0,0 h -12.422 c -0.988,0 -1.789,0.801 -1.789,1.789 v 16.422 c 0,0.988 0.801,1.789 1.789,1.789 L 0,20 c 0.988,0 1.789,-0.801 1.789,-1.789 V 1.789 C 1.789,0.801 0.988,0 0,0" /></g><g
           transform="translate(123,68)"
           id="g64"><path
             id="path66"
             style="fill:#4c4c4c;fill-opacity:1;fill-rule:nonzero;stroke:none"
             d="m 0,0 h -16 c -1.104,0 -2,0.896 -2,2 v 16 c 0,1.104 0.896,2 2,2 H 0 c 1.104,0 2,-0.896 2,-2 V 2 C 2,0.896 1.104,0 0,0" /></g><g
           transform="translate(149,68)"
           id="g68"><path
             id="path70"
             style="fill:#4c4c4c;fill-opacity:1;fill-rule:nonzero;stroke:none"
             d="m 0,0 h -16 c -1.104,0 -2,0.896 -2,2 v 16 c 0,1.104 0.896,2 2,2 H 0 c 1.104,0 2,-0.896 2,-2 V 2 C 2,0.896 1.104,0 0,0" /></g><g
           transform="translate(174,68)"
           id="g72"><path
             id="path74"
             style="fill:#4c4c4c;fill-opacity:1;fill-rule:nonzero;stroke:none"
             d="m 0,0 h -16 c -1.104,0 -2,0.896 -2,2 v 16 c 0,1.104 0.896,2 2,2 H 0 c 1.104,0 2,-0.896 2,-2 V 2 C 2,0.896 1.104,0 0,0" /></g><path
           id="path76"
           style="fill:#404040;fill-opacity:1;fill-rule:nonzero;stroke:none"
           d="m 90,68 h -4 v 20 h 4 z" /><g
           transform="translate(121,78)"
           id="g78"><path
             id="path80"
             style="fill:#595959;fill-opacity:1;fill-rule:nonzero;stroke:none"
             d="m 0,0 c 0,-3.313 -2.687,-6 -6,-6 -3.313,0 -6,2.687 -6,6 0,3.313 2.687,6 6,6 3.313,0 6,-2.687 6,-6" /></g><g
           transform="translate(147,78)"
           id="g82"><path
             id="path84"
             style="fill:#595959;fill-opacity:1;fill-rule:nonzero;stroke:none"
             d="m 0,0 c 0,-3.313 -2.687,-6 -6,-6 -3.313,0 -6,2.687 -6,6 0,3.313 2.687,6 6,6 3.313,0 6,-2.687 6,-6" /></g><g
           transform="translate(172,78)"
           id="g86"><path
             id="path88"
             style="fill:#595959;fill-opacity:1;fill-rule:nonzero;stroke:none"
             d="m 0,0 c 0,-3.313 -2.687,-6 -6,-6 -3.313,0 -6,2.687 -6,6 0,3.313 2.687,6 6,6 3.313,0 6,-2.687 6,-6" /></g><g
           transform="translate(144,172)"
           id="g90"><path
             id="path92"
             style="fill:#262626;fill-opacity:1;fill-rule:nonzero;stroke:none"
             d="m 0,0 v -4 h -32 v 4 h -24 v -4 -4 -12 h 80 v 12 4 4 z" /></g><path
           id="path94"
           style="fill:#333333;fill-opacity:1;fill-rule:nonzero;stroke:none"
           d="M 172,188 H 84 v 2 h 88 z" /><path
           id="path96"
           style="fill:#333333;fill-opacity:1;fill-rule:nonzero;stroke:none"
           d="M 172,184 H 84 v 2 h 88 z" /><path
           id="path98"
           style="fill:#333333;fill-opacity:1;fill-rule:nonzero;stroke:none"
           d="M 172,180 H 84 v 2 h 88 z" /><path
           id="path100"
           style="fill:#333333;fill-opacity:1;fill-rule:nonzero;stroke:none"
           d="M 172,176 H 84 v 2 h 88 z" /><path
           id="path102"
           style="fill:#262626;fill-opacity:1;fill-rule:nonzero;stroke:none"
           d="m 90,188 h -4 v 2 h 4 z" /><path
           id="path104"
           style="fill:#262626;fill-opacity:1;fill-rule:nonzero;stroke:none"
           d="m 90,184 h -4 v 2 h 4 z" /><path
           id="path106"
           style="fill:#262626;fill-opacity:1;fill-rule:nonzero;stroke:none"
           d="m 90,180 h -4 v 2 h 4 z" /><path
           id="path108"
           style="fill:#262626;fill-opacity:1;fill-rule:nonzero;stroke:none"
           d="m 90,176 h -4 v 2 h 4 z" /><path
           id="path110"
           style="fill:#262626;fill-opacity:1;fill-rule:nonzero;stroke:none"
           d="m 98,188 h -4 v 2 h 4 z" /><path
           id="path112"
           style="fill:#262626;fill-opacity:1;fill-rule:nonzero;stroke:none"
           d="m 98,184 h -4 v 2 h 4 z" /><path
           id="path114"
           style="fill:#262626;fill-opacity:1;fill-rule:nonzero;stroke:none"
           d="m 98,180 h -4 v 2 h 4 z" /><path
           id="path116"
           style="fill:#262626;fill-opacity:1;fill-rule:nonzero;stroke:none"
           d="m 98,176 h -4 v 2 h 4 z" /><path
           id="path118"
           style="fill:#262626;fill-opacity:1;fill-rule:nonzero;stroke:none"
           d="m 106,188 h -4 v 2 h 4 z" /><path
           id="path120"
           style="fill:#262626;fill-opacity:1;fill-rule:nonzero;stroke:none"
           d="m 106,184 h -4 v 2 h 4 z" /><path
           id="path122"
           style="fill:#262626;fill-opacity:1;fill-rule:nonzero;stroke:none"
           d="m 106,180 h -4 v 2 h 4 z" /><path
           id="path124"
           style="fill:#262626;fill-opacity:1;fill-rule:nonzero;stroke:none"
           d="m 106,176 h -4 v 2 h 4 z" /><path
           id="path126"
           style="fill:#262626;fill-opacity:1;fill-rule:nonzero;stroke:none"
           d="m 114,188 h -4 v 2 h 4 z" /><path
           id="path128"
           style="fill:#262626;fill-opacity:1;fill-rule:nonzero;stroke:none"
           d="m 114,184 h -4 v 2 h 4 z" /><path
           id="path130"
           style="fill:#262626;fill-opacity:1;fill-rule:nonzero;stroke:none"
           d="m 114,180 h -4 v 2 h 4 z" /><path
           id="path132"
           style="fill:#262626;fill-opacity:1;fill-rule:nonzero;stroke:none"
           d="m 114,176 h -4 v 2 h 4 z" /><path
           id="path134"
           style="fill:#262626;fill-opacity:1;fill-rule:nonzero;stroke:none"
           d="m 122,188 h -4 v 2 h 4 z" /><path
           id="path136"
           style="fill:#262626;fill-opacity:1;fill-rule:nonzero;stroke:none"
           d="m 122,184 h -4 v 2 h 4 z" /><path
           id="path138"
           style="fill:#262626;fill-opacity:1;fill-rule:nonzero;stroke:none"
           d="m 122,180 h -4 v 2 h 4 z" /><path
           id="path140"
           style="fill:#262626;fill-opacity:1;fill-rule:nonzero;stroke:none"
           d="m 122,176 h -4 v 2 h 4 z" /><path
           id="path142"
           style="fill:#262626;fill-opacity:1;fill-rule:nonzero;stroke:none"
           d="m 130,188 h -4 v 2 h 4 z" /><path
           id="path144"
           style="fill:#262626;fill-opacity:1;fill-rule:nonzero;stroke:none"
           d="m 130,184 h -4 v 2 h 4 z" /><path
           id="path146"
           style="fill:#262626;fill-opacity:1;fill-rule:nonzero;stroke:none"
           d="m 130,180 h -4 v 2 h 4 z" /><path
           id="path148"
           style="fill:#262626;fill-opacity:1;fill-rule:nonzero;stroke:none"
           d="m 130,176 h -4 v 2 h 4 z" /><path
           id="path150"
           style="fill:#262626;fill-opacity:1;fill-rule:nonzero;stroke:none"
           d="m 138,188 h -4 v 2 h 4 z" /><path
           id="path152"
           style="fill:#262626;fill-opacity:1;fill-rule:nonzero;stroke:none"
           d="m 138,184 h -4 v 2 h 4 z" /><path
           id="path154"
           style="fill:#262626;fill-opacity:1;fill-rule:nonzero;stroke:none"
           d="m 138,180 h -4 v 2 h 4 z" /><path
           id="path156"
           style="fill:#262626;fill-opacity:1;fill-rule:nonzero;stroke:none"
           d="m 138,176 h -4 v 2 h 4 z" /><path
           id="path158"
           style="fill:#262626;fill-opacity:1;fill-rule:nonzero;stroke:none"
           d="m 146,188 h -4 v 2 h 4 z" /><path
           id="path160"
           style="fill:#262626;fill-opacity:1;fill-rule:nonzero;stroke:none"
           d="m 146,184 h -4 v 2 h 4 z" /><path
           id="path162"
           style="fill:#262626;fill-opacity:1;fill-rule:nonzero;stroke:none"
           d="m 146,180 h -4 v 2 h 4 z" /><path
           id="path164"
           style="fill:#262626;fill-opacity:1;fill-rule:nonzero;stroke:none"
           d="m 146,176 h -4 v 2 h 4 z" /><path
           id="path166"
           style="fill:#262626;fill-opacity:1;fill-rule:nonzero;stroke:none"
           d="m 154,188 h -4 v 2 h 4 z" /><path
           id="path168"
           style="fill:#262626;fill-opacity:1;fill-rule:nonzero;stroke:none"
           d="m 154,184 h -4 v 2 h 4 z" /><path
           id="path170"
           style="fill:#262626;fill-opacity:1;fill-rule:nonzero;stroke:none"
           d="m 154,180 h -4 v 2 h 4 z" /><path
           id="path172"
           style="fill:#262626;fill-opacity:1;fill-rule:nonzero;stroke:none"
           d="m 154,176 h -4 v 2 h 4 z" /><path
           id="path174"
           style="fill:#262626;fill-opacity:1;fill-rule:nonzero;stroke:none"
           d="m 162,188 h -4 v 2 h 4 z" /><path
           id="path176"
           style="fill:#262626;fill-opacity:1;fill-rule:nonzero;stroke:none"
           d="m 162,184 h -4 v 2 h 4 z" /><path
           id="path178"
           style="fill:#262626;fill-opacity:1;fill-rule:nonzero;stroke:none"
           d="m 162,180 h -4 v 2 h 4 z" /><path
           id="path180"
           style="fill:#262626;fill-opacity:1;fill-rule:nonzero;stroke:none"
           d="m 162,176 h -4 v 2 h 4 z" /><path
           id="path182"
           style="fill:#262626;fill-opacity:1;fill-rule:nonzero;stroke:none"
           d="m 170,188 h -4 v 2 h 4 z" /><path
           id="path184"
           style="fill:#262626;fill-opacity:1;fill-rule:nonzero;stroke:none"
           d="m 170,184 h -4 v 2 h 4 z" /><path
           id="path186"
           style="fill:#262626;fill-opacity:1;fill-rule:nonzero;stroke:none"
           d="m 170,180 h -4 v 2 h 4 z" /><path
           id="path188"
           style="fill:#262626;fill-opacity:1;fill-rule:nonzero;stroke:none"
           d="m 170,176 h -4 v 2 h 4 z" /><g
           transform="translate(72,188)"
           id="g190"><path
             id="path192"
             style="fill:#404040;fill-opacity:1;fill-rule:nonzero;stroke:none"
             d="m 0,0 h -52 l -4,-48 v -70 c 0,-1.104 0.896,-2 2,-2 h 48 c 1.104,0 2,0.896 2,2 v 70 z" /></g><g
           transform="translate(20,144)"
           id="g194"><path
             id="path196"
             style="fill:#333333;fill-opacity:1;fill-rule:nonzero;stroke:none"
             d="M 0,0 3.681,40 H 48 L 44,0 Z" /></g><g
           transform="translate(36,176)"
           id="g198"><path
             id="path200"
             style="fill:#262626;fill-opacity:1;fill-rule:nonzero;stroke:none"
             d="M 0,0 H 20 L 16,-20 H -4 Z" /></g><g
           transform="translate(20,144)"
           id="g202"><path
             id="path204"
             style="fill:#4c4c4c;fill-opacity:1;fill-rule:nonzero;stroke:none"
             d="M 0,0 12,12 H 32 L 44,0 Z" /></g><g
           transform="translate(68,184)"
           id="g206"><path
             id="path208"
             style="fill:#4c4c4c;fill-opacity:1;fill-rule:nonzero;stroke:none"
             d="M 0,0 -12,-8 H -32 L -44.319,0 Z" /></g><path
           id="path210"
           style="fill:#4c4c4c;fill-opacity:1;fill-rule:nonzero;stroke:none"
           d="M 64,72 H 20 v 68 h 44 z" /><path
           id="path212"
           style="fill:#ff0000;fill-opacity:1;fill-rule:nonzero;stroke:none"
           d="m 32,128 h -8 v 4 h 8 z" /><path
           id="path214"
           style="fill:#ff0000;fill-opacity:1;fill-rule:nonzero;stroke:none"
           d="m 60,128 h -8 v 4 h 8 z" /><path
           id="path216"
           style="fill:#404040;fill-opacity:1;fill-rule:nonzero;stroke:none"
           d="m 32,116 h -8 v 4 h 8 z" /><path
           id="path218"
           style="fill:#404040;fill-opacity:1;fill-rule:nonzero;stroke:none"
           d="m 46,116 h -8 v 4 h 8 z" /><path
           id="path220"
           style="fill:#404040;fill-opacity:1;fill-rule:nonzero;stroke:none"
           d="m 60,116 h -8 v 4 h 8 z" /><path
           id="path222"
           style="fill:#404040;fill-opacity:1;fill-rule:nonzero;stroke:none"
           d="m 32,104 h -8 v 4 h 8 z" /><path
           id="path224"
           style="fill:#404040;fill-opacity:1;fill-rule:nonzero;stroke:none"
           d="m 46,104 h -8 v 4 h 8 z" /><path
           id="path226"
           style="fill:#404040;fill-opacity:1;fill-rule:nonzero;stroke:none"
           d="m 60,104 h -8 v 4 h 8 z" /><path
           id="path228"
           style="fill:#404040;fill-opacity:1;fill-rule:nonzero;stroke:none"
           d="m 32,92 h -8 v 4 h 8 z" /><path
           id="path230"
           style="fill:#404040;fill-opacity:1;fill-rule:nonzero;stroke:none"
           d="m 46,92 h -8 v 4 h 8 z" /><path
           id="path232"
           style="fill:#404040;fill-opacity:1;fill-rule:nonzero;stroke:none"
           d="m 60,92 h -8 v 4 h 8 z" /><path
           id="path234"
           style="fill:#404040;fill-opacity:1;fill-rule:nonzero;stroke:none"
           d="m 32,80 h -8 v 4 h 8 z" /><path
           id="path236"
           style="fill:#404040;fill-opacity:1;fill-rule:nonzero;stroke:none"
           d="m 46,80 h -8 v 4 h 8 z" /><path
           id="path238"
           style="fill:#404040;fill-opacity:1;fill-rule:nonzero;stroke:none"
           d="m 60,80 h -8 v 4 h 8 z" /><g
           transform="translate(50,166)"
           id="g240"><path
             id="path242"
             style="fill:#595959;fill-opacity:1;fill-rule:nonzero;stroke:none"
             d="m 0,0 c 0,-3.313 -2.687,-6 -6,-6 -3.313,0 -6,2.687 -6,6 0,3.313 2.687,6 6,6 3.313,0 6,-2.687 6,-6" /></g><g
           transform="translate(184,188)"
           id="g244"><path
             id="path246"
             style="fill:#404040;fill-opacity:1;fill-rule:nonzero;stroke:none"
             d="m 0,0 4,-48 v -70 c 0,-1.104 0.896,-2 2,-2 h 48 c 1.104,0 2,0.896 2,2 v 70 L 52,0 Z" /></g><g
           transform="translate(236,144)"
           id="g248"><path
             id="path250"
             style="fill:#333333;fill-opacity:1;fill-rule:nonzero;stroke:none"
             d="M 0,0 -3.681,40 H -48 l 4,-40 z" /></g><g
           transform="translate(220,176)"
           id="g252"><path
             id="path254"
             style="fill:#262626;fill-opacity:1;fill-rule:nonzero;stroke:none"
             d="m 0,0 h -20 l 4,-20 H 4 Z" /></g><g
           transform="translate(236,144)"
           id="g256"><path
             id="path258"
             style="fill:#4c4c4c;fill-opacity:1;fill-rule:nonzero;stroke:none"
             d="M 0,0 -12,12 H -32 L -44,0 Z" /></g><g
           transform="translate(188,184)"
           id="g260"><path
             id="path262"
             style="fill:#4c4c4c;fill-opacity:1;fill-rule:nonzero;stroke:none"
             d="M 0,0 12,-8 H 32 L 44.319,0 Z" /></g><path
           id="path264"
           style="fill:#4c4c4c;fill-opacity:1;fill-rule:nonzero;stroke:none"
           d="m 192,72 h 44 v 68 h -44 z" /><path
           id="path266"
           style="fill:#ff0000;fill-opacity:1;fill-rule:nonzero;stroke:none"
           d="m 224,128 h 8 v 4 h -8 z" /><path
           id="path268"
           style="fill:#ff0000;fill-opacity:1;fill-rule:nonzero;stroke:none"
           d="m 196,128 h 8 v 4 h -8 z" /><path
           id="path270"
           style="fill:#404040;fill-opacity:1;fill-rule:nonzero;stroke:none"
           d="m 224,116 h 8 v 4 h -8 z" /><path
           id="path272"
           style="fill:#404040;fill-opacity:1;fill-rule:nonzero;stroke:none"
           d="m 210,116 h 8 v 4 h -8 z" /><path
           id="path274"
           style="fill:#404040;fill-opacity:1;fill-rule:nonzero;stroke:none"
           d="m 196,116 h 8 v 4 h -8 z" /><path
           id="path276"
           style="fill:#404040;fill-opacity:1;fill-rule:nonzero;stroke:none"
           d="m 224,104 h 8 v 4 h -8 z" /><path
           id="path278"
           style="fill:#404040;fill-opacity:1;fill-rule:nonzero;stroke:none"
           d="m 210,104 h 8 v 4 h -8 z" /><path
           id="path280"
           style="fill:#404040;fill-opacity:1;fill-rule:nonzero;stroke:none"
           d="m 196,104 h 8 v 4 h -8 z" /><path
           id="path282"
           style="fill:#404040;fill-opacity:1;fill-rule:nonzero;stroke:none"
           d="m 224,92 h 8 v 4 h -8 z" /><path
           id="path284"
           style="fill:#404040;fill-opacity:1;fill-rule:nonzero;stroke:none"
           d="m 210,92 h 8 v 4 h -8 z" /><path
           id="path286"
           style="fill:#404040;fill-opacity:1;fill-rule:nonzero;stroke:none"
           d="m 196,92 h 8 v 4 h -8 z" /><path
           id="path288"
           style="fill:#404040;fill-opacity:1;fill-rule:nonzero;stroke:none"
           d="m 224,80 h 8 v 4 h -8 z" /><path
           id="path290"
           style="fill:#404040;fill-opacity:1;fill-rule:nonzero;stroke:none"
           d="m 210,80 h 8 v 4 h -8 z" /><path
           id="path292"
           style="fill:#404040;fill-opacity:1;fill-rule:nonzero;stroke:none"
           d="m 196,80 h 8 v 4 h -8 z" /><g
           transform="translate(206,166)"
           id="g294"><path
             id="path296"
             style="fill:#595959;fill-opacity:1;fill-rule:nonzero;stroke:none"
             d="m 0,0 c 0,-3.313 2.687,-6 6,-6 3.313,0 6,2.687 6,6 C 12,3.313 9.313,6 6,6 2.687,6 0,3.313 0,0" /></g></g></g></g></svg>