<?xml version="1.0" encoding="UTF-8" standalone="no"?>
<svg
   xmlns:dc="http://purl.org/dc/elements/1.1/"
   xmlns:cc="http://creativecommons.org/ns#"
   xmlns:rdf="http://www.w3.org/1999/02/22-rdf-syntax-ns#"
   xmlns:svg="http://www.w3.org/2000/svg"
   xmlns="http://www.w3.org/2000/svg"
   viewBox="0 0 245.33333 325.33331"
   height="325.33331"
   width="245.33333"
   xml:space="preserve"
   id="svg2"
   version="1.1"><metadata
     id="metadata8"><rdf:RDF><cc:Work
         rdf:about=""><dc:format>image/svg+xml</dc:format><dc:type
           rdf:resource="http://purl.org/dc/dcmitype/StillImage" /></cc:Work></rdf:RDF></metadata><defs
     id="defs6"><clipPath
       id="clipPath18"
       clipPathUnits="userSpaceOnUse"><path
         id="path16"
         d="M 0,256 H 256 V 0 H 0 Z" /></clipPath><clipPath
       id="clipPath26"
       clipPathUnits="userSpaceOnUse"><path
         id="path24"
         d="M 36,252 H 220 V 8 H 36 Z" /></clipPath><clipPath
       id="clipPath46"
       clipPathUnits="userSpaceOnUse"><path
         id="path44"
         d="M 0,256 H 256 V 0 H 0 Z" /></clipPath></defs><g
     transform="matrix(1.3333333,0,0,-1.3333333,-47.999999,335.99999)"
     id="g10"><g
       id="g12"><g
         clip-path="url(#clipPath18)"
         id="g14"><g
           id="g20"><g
             id="g22" /><g
             id="g34"><g
               style="opacity:0.5"
               id="g32"
               clip-path="url(#clipPath26)"><g
                 id="g30"
                 transform="translate(212,252)"><path
                   id="path28"
                   style="fill:#ffffff;fill-opacity:1;fill-rule:nonzero;stroke:none"
                   d="m 0,0 h -168 -8 v -8 -180 -8 h 8 v -40 -8 h 8 8 136 8 8 v 8 40 h 8 v 8 180 8 z" /></g></g></g></g></g></g><path
       id="path36"
       style="fill:#262626;fill-opacity:1;fill-rule:nonzero;stroke:none"
       d="M 204,16 H 52 v 52 h 152 z" /><path
       id="path38"
       style="fill:#333333;fill-opacity:1;fill-rule:nonzero;stroke:none"
       d="M 212,64 H 44 v 180 h 168 z" /><g
       id="g40"><g
         clip-path="url(#clipPath46)"
         id="g42"><g
           transform="translate(192,68)"
           id="g48"><path
             id="path50"
             style="fill:#191919;fill-opacity:1;fill-rule:nonzero;stroke:none"
             d="m 0,0 h -128 c -6.6,0 -12,5.4 -12,12 v 132 c 0,6.6 5.4,12 12,12 H 0 c 6.6,0 12,-5.4 12,-12 V 12 C 12,5.4 6.6,0 0,0" /></g><g
           transform="translate(172,76)"
           id="g52"><path
             id="path54"
             style="fill:#bfbfbf;fill-opacity:1;fill-rule:nonzero;stroke:none"
             d="m 0,0 h -88 c -6.6,0 -12,5.4 -12,12 v 112 c 0,6.6 5.4,12 12,12 H 0 c 6.6,0 12,-5.4 12,-12 V 12 C 12,5.4 6.6,0 0,0" /></g><path
           id="path56"
           style="fill:#191919;fill-opacity:1;fill-rule:nonzero;stroke:none"
           d="M 208,228 H 48 v 12 h 160 z" /><path
           id="path58"
           style="fill:#666666;fill-opacity:1;fill-rule:nonzero;stroke:none"
           d="M 208,232 H 48 v 4 h 160 z" /><path
           id="path60"
           style="fill:#191919;fill-opacity:1;fill-rule:nonzero;stroke:none"
           d="M 196,16 H 60 v 48 h 136 z" /><path
           id="path62"
           style="fill:#0d0d0d;fill-opacity:1;fill-rule:nonzero;stroke:none"
           d="m 68,44 h -4 v 16 h 4 z" /><path
           id="path64"
           style="fill:#0d0d0d;fill-opacity:1;fill-rule:nonzero;stroke:none"
           d="m 76,44 h -4 v 16 h 4 z" /><path
           id="path66"
           style="fill:#0d0d0d;fill-opacity:1;fill-rule:nonzero;stroke:none"
           d="m 84,44 h -4 v 16 h 4 z" /><path
           id="path68"
           style="fill:#0d0d0d;fill-opacity:1;fill-rule:nonzero;stroke:none"
           d="m 92,44 h -4 v 16 h 4 z" /><path
           id="path70"
           style="fill:#0d0d0d;fill-opacity:1;fill-rule:nonzero;stroke:none"
           d="m 100,44 h -4 v 16 h 4 z" /><path
           id="path72"
           style="fill:#0d0d0d;fill-opacity:1;fill-rule:nonzero;stroke:none"
           d="m 108,44 h -4 v 8 h 4 z" /><path
           id="path74"
           style="fill:#0d0d0d;fill-opacity:1;fill-rule:nonzero;stroke:none"
           d="m 116,44 h -4 v 8 h 4 z" /><path
           id="path76"
           style="fill:#0d0d0d;fill-opacity:1;fill-rule:nonzero;stroke:none"
           d="m 68,28 h -4 v 12 h 4 z" /><path
           id="path78"
           style="fill:#0d0d0d;fill-opacity:1;fill-rule:nonzero;stroke:none"
           d="m 76,24 h -4 v 16 h 4 z" /><path
           id="path80"
           style="fill:#0d0d0d;fill-opacity:1;fill-rule:nonzero;stroke:none"
           d="m 84,24 h -4 v 16 h 4 z" /><path
           id="path82"
           style="fill:#0d0d0d;fill-opacity:1;fill-rule:nonzero;stroke:none"
           d="m 92,24 h -4 v 16 h 4 z" /><path
           id="path84"
           style="fill:#0d0d0d;fill-opacity:1;fill-rule:nonzero;stroke:none"
           d="m 100,24 h -4 v 16 h 4 z" /><path
           id="path86"
           style="fill:#0d0d0d;fill-opacity:1;fill-rule:nonzero;stroke:none"
           d="m 108,24 h -4 v 16 h 4 z" /><path
           id="path88"
           style="fill:#0d0d0d;fill-opacity:1;fill-rule:nonzero;stroke:none"
           d="m 116,24 h -4 v 16 h 4 z" /><g
           transform="translate(156,32)"
           id="g90"><path
             id="path92"
             style="fill:#333333;fill-opacity:1;fill-rule:nonzero;stroke:none"
             d="m 0,0 c 0,-4.418 -3.582,-8 -8,-8 -4.418,0 -8,3.582 -8,8 0,4.418 3.582,8 8,8 4.418,0 8,-3.582 8,-8" /></g><g
           transform="translate(184,32)"
           id="g94"><path
             id="path96"
             style="fill:#333333;fill-opacity:1;fill-rule:nonzero;stroke:none"
             d="m 0,0 c 0,-4.418 -3.582,-8 -8,-8 -4.418,0 -8,3.582 -8,8 0,4.418 3.582,8 8,8 4.418,0 8,-3.582 8,-8" /></g><g
           transform="translate(156,60)"
           id="g98"><path
             id="path100"
             style="fill:#333333;fill-opacity:1;fill-rule:nonzero;stroke:none"
             d="m 0,0 h -16 v -8 l 4,-8 h 8 l 4,8 z" /></g><g
           transform="translate(155,59)"
           id="g102"><path
             id="path104"
             style="fill:#0d0d0d;fill-opacity:1;fill-rule:nonzero;stroke:none"
             d="M 0,0 V -6.764 L -3.618,-14 h -6.764 L -14,-6.764 V 0 Z" /></g><g
           transform="translate(184,60)"
           id="g106"><path
             id="path108"
             style="fill:#333333;fill-opacity:1;fill-rule:nonzero;stroke:none"
             d="m 0,0 h -16 v -8 l 4,-8 h 8 l 4,8 z" /></g><g
           transform="translate(183,59)"
           id="g110"><path
             id="path112"
             style="fill:#0d0d0d;fill-opacity:1;fill-rule:nonzero;stroke:none"
             d="M 0,0 V -6.764 L -3.618,-14 h -6.764 L -14,-6.764 V 0 Z" /></g></g></g></g></svg>