<svg xmlns="http://www.w3.org/2000/svg" xml:space="preserve" width="245.333" height="325.333" viewBox="0 0 245.333 325.333"><defs><clipPath id="a" clipPathUnits="userSpaceOnUse"><path d="M0 256h256V0H0Z"/></clipPath><clipPath id="b" clipPathUnits="userSpaceOnUse"><path d="M36 252h184V8H36Z"/></clipPath><clipPath id="c" clipPathUnits="userSpaceOnUse"><path d="M0 256h256V0H0Z"/></clipPath></defs><g clip-path="url(#a)" transform="matrix(1.33333 0 0 -1.33333 -48 336)"><g clip-path="url(#b)" style="opacity:.5"><path d="M0 0h-176v-196h8v-48H0v48h8V0z" style="fill:#fff;fill-opacity:1;fill-rule:nonzero;stroke:none" transform="translate(212 252)"/></g></g><path d="M204 16H52v52h152z" style="fill:#262626;fill-opacity:1;fill-rule:nonzero;stroke:none" transform="matrix(1.33333 0 0 -1.33333 -48 336)"/><path d="M212 64H44v180h168z" style="fill:#333;fill-opacity:1;fill-rule:nonzero;stroke:none" transform="matrix(1.33333 0 0 -1.33333 -48 336)"/><g clip-path="url(#c)" transform="matrix(1.33333 0 0 -1.33333 -48 336)"><path d="M0 0h-128c-6.6 0-12 5.4-12 12v132c0 6.6 5.4 12 12 12H0c6.6 0 12-5.4 12-12V12C12 5.4 6.6 0 0 0" style="fill:#191919;fill-opacity:1;fill-rule:nonzero;stroke:none" transform="translate(192 68)"/><path d="M0 0h-88c-6.6 0-12 5.4-12 12v112c0 6.6 5.4 12 12 12H0c6.6 0 12-5.4 12-12V12C12 5.4 6.6 0 0 0" style="fill:#bfbfbf;fill-opacity:1;fill-rule:nonzero;stroke:none" transform="translate(172 76)"/><path d="M208 228H48v12h160z" style="fill:#191919;fill-opacity:1;fill-rule:nonzero;stroke:none"/><path d="M208 232H48v4h160z" style="fill:#666;fill-opacity:1;fill-rule:nonzero;stroke:none"/><path d="M196 16H60v48h136z" style="fill:#191919;fill-opacity:1;fill-rule:nonzero;stroke:none"/><path d="M68 44h-4v16h4zm8 0h-4v16h4zm8 0h-4v16h4zm8 0h-4v16h4zm8 0h-4v16h4zm8 0h-4v8h4zm8 0h-4v8h4zM68 28h-4v12h4zm8-4h-4v16h4zm8 0h-4v16h4zm8 0h-4v16h4zm8 0h-4v16h4zm8 0h-4v16h4zm8 0h-4v16h4z" style="fill:#0d0d0d;fill-opacity:1;fill-rule:nonzero;stroke:none"/><path d="M0 0a8 8 0 1 0-16 0A8 8 0 0 0 0 0" style="fill:#333;fill-opacity:1;fill-rule:nonzero;stroke:none" transform="translate(156 32)"/><path d="M0 0a8 8 0 1 0-16 0A8 8 0 0 0 0 0" style="fill:#333;fill-opacity:1;fill-rule:nonzero;stroke:none" transform="translate(184 32)"/><path d="M0 0h-16v-8l4-8h8l4 8z" style="fill:#333;fill-opacity:1;fill-rule:nonzero;stroke:none" transform="translate(156 60)"/><path d="M0 0v-6.764L-3.618-14h-6.764L-14-6.764V0Z" style="fill:#0d0d0d;fill-opacity:1;fill-rule:nonzero;stroke:none" transform="translate(155 59)"/><path d="M0 0h-16v-8l4-8h8l4 8z" style="fill:#333;fill-opacity:1;fill-rule:nonzero;stroke:none" transform="translate(184 60)"/><path d="M0 0v-6.764L-3.618-14h-6.764L-14-6.764V0Z" style="fill:#0d0d0d;fill-opacity:1;fill-rule:nonzero;stroke:none" transform="translate(183 59)"/></g></svg>