<?xml version="1.0" encoding="UTF-8" standalone="no"?>
<svg
   xmlns:dc="http://purl.org/dc/elements/1.1/"
   xmlns:cc="http://creativecommons.org/ns#"
   xmlns:rdf="http://www.w3.org/1999/02/22-rdf-syntax-ns#"
   xmlns:svg="http://www.w3.org/2000/svg"
   xmlns="http://www.w3.org/2000/svg"
   viewBox="0 0 330.66665 240"
   height="240"
   width="330.66666"
   xml:space="preserve"
   id="svg2"
   version="1.1"><metadata
     id="metadata8"><rdf:RDF><cc:Work
         rdf:about=""><dc:format>image/svg+xml</dc:format><dc:type
           rdf:resource="http://purl.org/dc/dcmitype/StillImage" /></cc:Work></rdf:RDF></metadata><defs
     id="defs6"><clipPath
       id="clipPath18"
       clipPathUnits="userSpaceOnUse"><path
         id="path16"
         d="M 0,256 H 256 V 0 H 0 Z" /></clipPath><clipPath
       id="clipPath26"
       clipPathUnits="userSpaceOnUse"><path
         id="path24"
         d="M 4,220 H 252 V 40 H 4 Z" /></clipPath></defs><g
     transform="matrix(1.3333333,0,0,-1.3333333,-5.3333332,293.33333)"
     id="g10"><g
       id="g12"><g
         clip-path="url(#clipPath18)"
         id="g14"><g
           id="g20"><g
             id="g22" /><g
             id="g34"><g
               style="opacity:0.5"
               id="g32"
               clip-path="url(#clipPath26)"><g
                 id="g30"
                 transform="translate(232,220)"><path
                   id="path28"
                   style="fill:#ffffff;fill-opacity:1;fill-rule:nonzero;stroke:none"
                   d="m 0,0 h -208 c -11.028,0 -20,-8.972 -20,-20 v -136 c 0,-11.028 8.972,-20 20,-20 h 14.345 c 3.14,0 6.368,0.502 9.595,1.491 5.203,1.595 12.515,2.509 20.06,2.509 8.071,0 15.711,-1.021 20.961,-2.8 2.107,-0.714 4.056,-1.208 5.958,-1.509 l 17.391,-2.755 0.164,-0.027 0.164,-0.018 c 5.08,-0.591 10.248,-0.891 15.362,-0.891 5.114,0 10.282,0.3 15.361,0.891 l 0.165,0.018 0.163,0.027 17.392,2.755 c 1.902,0.301 3.851,0.795 5.957,1.509 5.25,1.779 12.891,2.8 20.962,2.8 7.546,0 14.857,-0.914 20.06,-2.509 3.227,-0.989 6.456,-1.491 9.595,-1.491 H 0 c 11.028,0 20,8.972 20,20 V -20 C 20,-8.972 11.028,0 0,0" /></g></g></g></g><g
           transform="translate(232,212)"
           id="g36"><path
             id="path38"
             style="fill:#cccccc;fill-opacity:1;fill-rule:nonzero;stroke:none"
             d="m 0,0 h -208 c -6.6,0 -12,-5.4 -12,-12 v -136 c 0,-6.6 5.4,-12 12,-12 h 14.345 c 2.462,0 4.898,0.418 7.251,1.14 5.772,1.769 13.68,2.86 22.404,2.86 9.306,0 17.683,-1.241 23.529,-3.224 1.516,-0.512 3.061,-0.933 4.642,-1.183 l 17.391,-2.756 c 9.593,-1.116 19.283,-1.116 28.875,0 l 17.392,2.756 c 1.58,0.25 3.126,0.671 4.642,1.183 5.846,1.983 14.223,3.224 23.529,3.224 8.724,0 16.632,-1.091 22.404,-2.86 2.354,-0.722 4.789,-1.14 7.251,-1.14 H 0 c 6.6,0 12,5.4 12,12 V -12 C 12,-5.4 6.6,0 0,0" /></g><g
           transform="translate(48,68)"
           id="g40"><path
             id="path42"
             style="fill:#bfbfbf;fill-opacity:1;fill-rule:nonzero;stroke:none"
             d="m 0,0 c 0,-2.209 -4.477,-4 -10,-4 -5.523,0 -10,1.791 -10,4 0,2.209 4.477,4 10,4 C -4.477,4 0,2.209 0,0" /></g><g
           transform="translate(196.4775,123.7861)"
           id="g44"><path
             id="path46"
             style="fill:#354f9f;fill-opacity:1;fill-rule:nonzero;stroke:none"
             d="m 0,0 c -6.258,1.082 -12.035,-2.044 -14.837,-7.015 -0.263,-0.465 -0.739,-0.771 -1.274,-0.771 h -0.732 c -0.536,0 -1.012,0.306 -1.275,0.772 -2.428,4.306 -7.088,7.228 -12.36,7.228 -4.745,0 -9.222,-3.119 -11.906,-7.313 -0.269,-0.421 -0.722,-0.687 -1.222,-0.687 h -1.238 c -0.535,0 -1.011,0.306 -1.274,0.771 -2.802,4.971 -8.579,8.097 -14.837,7.015 -6.094,-1.055 -10.837,-6.192 -11.451,-12.347 -0.836,-8.378 5.721,-15.439 13.928,-15.439 5.272,0 9.932,2.922 12.36,7.227 0.263,0.467 0.739,0.773 1.275,0.773 h 0.026 c 0.555,0 1.076,-0.315 1.298,-0.823 2.039,-4.663 7.109,-7.177 13.041,-7.177 5.272,0 9.932,2.922 12.36,7.227 0.263,0.467 0.739,0.773 1.275,0.773 h 0.731 c 0.536,0 1.012,-0.306 1.275,-0.773 2.428,-4.305 7.088,-7.227 12.359,-7.227 8.207,0 14.765,7.061 13.928,15.439 C 10.836,-6.192 6.094,-1.055 0,0" /></g><g
           transform="translate(176,186)"
           id="g48"><path
             id="path50"
             style="fill:#263979;fill-opacity:1;fill-rule:nonzero;stroke:none"
             d="m 0,0 c 0,-5.523 -4.478,-10 -10,-10 -5.522,0 -10,4.477 -10,10 0,5.523 4.478,10 10,10 C -4.478,10 0,5.523 0,0" /></g><g
           transform="translate(227.8945,78)"
           id="g52"><path
             id="path54"
             style="fill:#bfbfbf;fill-opacity:1;fill-rule:nonzero;stroke:none"
             d="M 0,0 C -1.698,0 -3.355,-0.425 -4.793,-1.229 -7.896,-2.964 -12.794,-4 -17.895,-4 c -5.1,0 -9.998,1.036 -13.101,2.771 C -32.434,-0.425 -34.088,0 -35.781,0 h -8.227 c -1.693,0 -3.347,-0.425 -4.785,-1.229 C -51.896,-2.964 -56.794,-4 -61.895,-4 c -5.1,0 -9.998,1.036 -13.101,2.771 C -76.434,-0.425 -78.088,0 -79.781,0 h -8.227 c -1.693,0 -3.347,-0.425 -4.785,-1.229 -3.103,-1.735 -8.001,-2.771 -13.102,-2.771 -5.124,0 -9.87,0.994 -13.022,2.728 -0.507,0.278 -1.037,0.513 -1.583,0.702 -0.823,0.285 -1.395,1.031 -1.395,1.901 V 134 h -2 V 0 h -92 v -2 h 93.144 c 0.141,-0.065 0.288,-0.12 0.445,-0.15 0.846,-0.163 1.664,-0.456 2.426,-0.875 3.297,-1.813 8.331,-2.975 13.985,-2.975 5.711,0 10.791,1.185 14.084,3.029 1.162,0.651 2.465,0.971 3.795,0.971 h 8.243 c 1.33,0 2.633,-0.32 3.794,-0.971 3.294,-1.844 8.374,-3.029 14.084,-3.029 5.711,0 10.791,1.185 14.084,3.029 1.162,0.651 2.465,0.971 3.795,0.971 h 8.243 c 1.33,0 2.633,-0.32 3.794,-0.971 3.294,-1.844 8.374,-3.029 14.084,-3.029 5.707,0 10.784,1.184 14.079,3.025 C -2.651,-2.322 -1.336,-2 0,-2 h 16.105 v 2 z" /></g><g
           transform="translate(244,158)"
           id="g56"><path
             id="path58"
             style="fill:#d9d9d9;fill-opacity:1;fill-rule:nonzero;stroke:none"
             d="m 0,0 c 0,-3.313 -1.791,-6 -4,-6 -2.209,0 -4,2.687 -4,6 0,3.313 1.791,6 4,6 2.209,0 4,-2.687 4,-6" /></g><g
           transform="translate(244,142)"
           id="g60"><path
             id="path62"
             style="fill:#d9d9d9;fill-opacity:1;fill-rule:nonzero;stroke:none"
             d="m 0,0 c 0,-3.313 -1.791,-6 -4,-6 -2.209,0 -4,2.687 -4,6 0,3.313 1.791,6 4,6 2.209,0 4,-2.687 4,-6" /></g><g
           transform="translate(244,126)"
           id="g64"><path
             id="path66"
             style="fill:#d9d9d9;fill-opacity:1;fill-rule:nonzero;stroke:none"
             d="m 0,0 c 0,-3.313 -1.791,-6 -4,-6 -2.209,0 -4,2.687 -4,6 0,3.313 1.791,6 4,6 2.209,0 4,-2.687 4,-6" /></g><g
           transform="translate(244,110)"
           id="g68"><path
             id="path70"
             style="fill:#d9d9d9;fill-opacity:1;fill-rule:nonzero;stroke:none"
             d="m 0,0 c 0,-3.313 -1.791,-6 -4,-6 -2.209,0 -4,2.687 -4,6 0,3.313 1.791,6 4,6 2.209,0 4,-2.687 4,-6" /></g><g
           transform="translate(244,94)"
           id="g72"><path
             id="path74"
             style="fill:#d9d9d9;fill-opacity:1;fill-rule:nonzero;stroke:none"
             d="m 0,0 c 0,-3.313 -1.791,-6 -4,-6 -2.209,0 -4,2.687 -4,6 0,3.313 1.791,6 4,6 2.209,0 4,-2.687 4,-6" /></g><g
           transform="translate(179.7129,66.7695)"
           id="g76"><path
             id="path78"
             style="fill:#999999;fill-opacity:1;fill-rule:nonzero;stroke:none"
             d="m 0,0 c -0.614,1.197 -1.776,1.499 -2.763,0.999 -2.562,-1.298 -6.51,-2.132 -10.95,-2.132 -4.439,0 -8.388,0.834 -10.95,2.132 -0.986,0.5 -2.149,0.198 -2.763,-0.999 -0.187,-0.365 -0.287,-0.744 -0.287,-1.133 0,-3.113 6.268,-5.637 14,-5.637 7.733,0 14,2.524 14,5.637 0,0.389 -0.1,0.768 -0.287,1.133" /></g></g></g></g></svg>