<svg xmlns="http://www.w3.org/2000/svg" xml:space="preserve" width="330.667" height="240" viewBox="0 0 330.667 240"><defs><clipPath id="a" clipPathUnits="userSpaceOnUse"><path d="M0 256h256V0H0Z"/></clipPath><clipPath id="b" clipPathUnits="userSpaceOnUse"><path d="M4 220h248V40H4Z"/></clipPath></defs><g clip-path="url(#a)" transform="matrix(1.33333 0 0 -1.33333 -5.333 293.333)"><g clip-path="url(#b)" style="opacity:.5"><path d="M0 0h-208c-11.028 0-20-8.972-20-20v-136c0-11.028 8.972-20 20-20h14.345c3.14 0 6.368.502 9.595 1.491 5.203 1.595 12.515 2.509 20.06 2.509 8.071 0 15.711-1.021 20.961-2.8 2.107-.714 4.056-1.208 5.958-1.509l17.391-2.755.164-.027.164-.018c5.08-.591 10.248-.891 15.362-.891s10.282.3 15.361.891l.165.018.163.027 17.392 2.755c1.902.301 3.851.795 5.957 1.509 5.25 1.779 12.891 2.8 20.962 2.8 7.546 0 14.857-.914 20.06-2.509 3.227-.989 6.456-1.491 9.595-1.491H0c11.028 0 20 8.972 20 20v136C20-8.972 11.028 0 0 0" style="fill:#fff;fill-opacity:1;fill-rule:nonzero;stroke:none" transform="translate(232 220)"/></g><path d="M0 0h-208c-6.6 0-12-5.4-12-12v-136c0-6.6 5.4-12 12-12h14.345c2.462 0 4.898.418 7.251 1.14 5.772 1.769 13.68 2.86 22.404 2.86 9.306 0 17.683-1.241 23.529-3.224 1.516-.512 3.061-.933 4.642-1.183l17.391-2.756a125 125 0 0 1 28.875 0l17.392 2.756c1.58.25 3.126.671 4.642 1.183C-61.683-157.241-53.306-156-44-156c8.724 0 16.632-1.091 22.404-2.86 2.354-.722 4.789-1.14 7.251-1.14H0c6.6 0 12 5.4 12 12v136C12-5.4 6.6 0 0 0" style="fill:#ccc;fill-opacity:1;fill-rule:nonzero;stroke:none" transform="translate(232 212)"/><path d="M0 0c0-2.209-4.477-4-10-4s-10 1.791-10 4 4.477 4 10 4S0 2.209 0 0" style="fill:#bfbfbf;fill-opacity:1;fill-rule:nonzero;stroke:none" transform="translate(48 68)"/><path d="M0 0c-6.258 1.082-12.035-2.044-14.837-7.015-.263-.465-.739-.771-1.274-.771h-.732c-.536 0-1.012.306-1.275.772-2.428 4.306-7.088 7.228-12.36 7.228-4.745 0-9.222-3.119-11.906-7.313a1.45 1.45 0 0 0-1.222-.687h-1.238c-.535 0-1.011.306-1.274.771C-48.92-2.044-54.697 1.082-60.955 0c-6.094-1.055-10.837-6.192-11.451-12.347-.836-8.378 5.721-15.439 13.928-15.439 5.272 0 9.932 2.922 12.36 7.227.263.467.739.773 1.275.773h.026c.555 0 1.076-.315 1.298-.823 2.039-4.663 7.109-7.177 13.041-7.177 5.272 0 9.932 2.922 12.36 7.227.263.467.739.773 1.275.773h.731c.536 0 1.012-.306 1.275-.773 2.428-4.305 7.088-7.227 12.359-7.227 8.207 0 14.765 7.061 13.928 15.439C10.836-6.192 6.094-1.055 0 0" style="fill:#354f9f;fill-opacity:1;fill-rule:nonzero;stroke:none" transform="translate(196.477 123.786)"/><path d="M0 0c0-5.523-4.478-10-10-10S-20-5.523-20 0s4.478 10 10 10S0 5.523 0 0" style="fill:#263979;fill-opacity:1;fill-rule:nonzero;stroke:none" transform="translate(176 186)"/><path d="M0 0a9.83 9.83 0 0 1-4.793-1.229C-7.896-2.964-12.794-4-17.895-4c-5.1 0-9.998 1.036-13.101 2.771A9.8 9.8 0 0 1-35.781 0h-8.227a9.8 9.8 0 0 1-4.785-1.229C-51.896-2.964-56.794-4-61.895-4c-5.1 0-9.998 1.036-13.101 2.771A9.8 9.8 0 0 1-79.781 0h-8.227a9.8 9.8 0 0 1-4.785-1.229C-95.896-2.964-100.794-4-105.895-4c-5.124 0-9.87.994-13.022 2.728q-.762.418-1.583.702c-.823.285-1.395 1.031-1.395 1.901V134h-2V0h-92v-2h93.144c.141-.065.288-.12.445-.15a8.3 8.3 0 0 0 2.426-.875C-116.583-4.838-111.549-6-105.895-6c5.711 0 10.791 1.185 14.084 3.029A7.73 7.73 0 0 0-88.016-2h8.243c1.33 0 2.633-.32 3.794-.971C-72.685-4.815-67.605-6-61.895-6c5.711 0 10.791 1.185 14.084 3.029A7.73 7.73 0 0 0-44.016-2h8.243c1.33 0 2.633-.32 3.794-.971C-28.685-4.815-23.605-6-17.895-6c5.707 0 10.784 1.184 14.079 3.025A7.8 7.8 0 0 0 0-2h16.105v2z" style="fill:#bfbfbf;fill-opacity:1;fill-rule:nonzero;stroke:none" transform="translate(227.894 78)"/><path d="M0 0c0-3.313-1.791-6-4-6s-4 2.687-4 6 1.791 6 4 6 4-2.687 4-6" style="fill:#d9d9d9;fill-opacity:1;fill-rule:nonzero;stroke:none" transform="translate(244 158)"/><path d="M0 0c0-3.313-1.791-6-4-6s-4 2.687-4 6 1.791 6 4 6 4-2.687 4-6" style="fill:#d9d9d9;fill-opacity:1;fill-rule:nonzero;stroke:none" transform="translate(244 142)"/><path d="M0 0c0-3.313-1.791-6-4-6s-4 2.687-4 6 1.791 6 4 6 4-2.687 4-6" style="fill:#d9d9d9;fill-opacity:1;fill-rule:nonzero;stroke:none" transform="translate(244 126)"/><path d="M0 0c0-3.313-1.791-6-4-6s-4 2.687-4 6 1.791 6 4 6 4-2.687 4-6" style="fill:#d9d9d9;fill-opacity:1;fill-rule:nonzero;stroke:none" transform="translate(244 110)"/><path d="M0 0c0-3.313-1.791-6-4-6s-4 2.687-4 6 1.791 6 4 6 4-2.687 4-6" style="fill:#d9d9d9;fill-opacity:1;fill-rule:nonzero;stroke:none" transform="translate(244 94)"/><path d="M0 0c-.614 1.197-1.776 1.499-2.763.999-2.562-1.298-6.51-2.132-10.95-2.132s-8.388.834-10.95 2.132c-.986.5-2.149.198-2.763-.999a2.5 2.5 0 0 1-.287-1.133c0-3.113 6.268-5.637 14-5.637s14 2.524 14 5.637C.287-.744.187-.365 0 0" style="fill:#999;fill-opacity:1;fill-rule:nonzero;stroke:none" transform="translate(179.713 66.77)"/></g></svg>