<?xml version="1.0" encoding="iso-8859-1"?>
<!-- Generator: Adobe Illustrator 27.8.1, SVG Export Plug-In . SVG Version: 6.00 Build 0)  -->
<svg version="1.1" id="Layer_1" xmlns="http://www.w3.org/2000/svg" xmlns:xlink="http://www.w3.org/1999/xlink" x="0px" y="0px"
	 viewBox="0 0 256 256" style="enable-background:new 0 0 256 256;" xml:space="preserve">
<path style="opacity:0.5;fill:#FFFFFF;" d="M240,64H16C9.383,64,4,69.383,4,76v100c0,8.822,7.178,16,16,16h216
	c8.822,0,16-7.178,16-16V76C252,69.383,246.617,64,240,64z"/>
<path style="fill:#D9D4BC;" d="M236,184H20c-4.418,0-8-3.582-8-8V76c0-2.209,1.791-4,4-4h224c2.209,0,4,1.791,4,4v100
	C244,180.418,240.418,184,236,184z"/>
<polygon style="fill:#404040;" points="24,108 24,128 20,128 20,156 48,156 48,164 148,164 148,156 192,156 192,132 196,132 
	196,108 "/>
<rect x="208" y="108" style="fill:#A3834A;" width="16" height="48"/>
<rect x="12" y="76" style="fill:#C4C0AA;" width="232" height="2"/>
<rect x="12" y="80" style="fill:#C4C0AA;" width="232" height="2"/>
<rect x="12" y="84" style="fill:#C4C0AA;" width="232" height="2"/>
<rect x="12" y="88" style="fill:#C4C0AA;" width="232" height="2"/>
<path style="fill:#A6A390;" d="M218,85h-12c-1.105,0-2-0.895-2-2l0,0c0-1.105,0.895-2,2-2h12c1.105,0,2,0.895,2,2l0,0
	C220,84.105,219.105,85,218,85z"/>
<circle style="fill:#FF0000;" cx="218" cy="83" r="1"/>
<path style="fill:#C4C0AA;" d="M238,106v60H18v-60H238 M238,104H18c-1.105,0-2,0.895-2,2v60c0,1.105,0.895,2,2,2h220
	c1.105,0,2-0.895,2-2v-60C240,104.895,239.105,104,238,104L238,104z"/>
<path style="fill:#4D4D4D;" d="M26,116L26,116c-1.105,0-2-0.895-2-2v-4c0-1.105,0.895-2,2-2h0c1.105,0,2,0.895,2,2v4
	C28,115.105,27.105,116,26,116z"/>
<path style="fill:#4D4D4D;" d="M50,116h-4c-1.105,0-2-0.895-2-2v-4c0-1.105,0.895-2,2-2h4c1.105,0,2,0.895,2,2v4
	C52,115.105,51.105,116,50,116z"/>
<path style="fill:#4D4D4D;" d="M38,116h-4c-1.105,0-2-0.895-2-2v-4c0-1.105,0.895-2,2-2h4c1.105,0,2,0.895,2,2v4
	C40,115.105,39.105,116,38,116z"/>
<path style="fill:#4D4D4D;" d="M62,116h-4c-1.105,0-2-0.895-2-2v-4c0-1.105,0.895-2,2-2h4c1.105,0,2,0.895,2,2v4
	C64,115.105,63.105,116,62,116z"/>
<path style="fill:#4D4D4D;" d="M74,116h-4c-1.105,0-2-0.895-2-2v-4c0-1.105,0.895-2,2-2h4c1.105,0,2,0.895,2,2v4
	C76,115.105,75.105,116,74,116z"/>
<path style="fill:#4D4D4D;" d="M86,116h-4c-1.105,0-2-0.895-2-2v-4c0-1.105,0.895-2,2-2h4c1.105,0,2,0.895,2,2v4
	C88,115.105,87.105,116,86,116z"/>
<path style="fill:#4D4D4D;" d="M98,116h-4c-1.105,0-2-0.895-2-2v-4c0-1.105,0.895-2,2-2h4c1.105,0,2,0.895,2,2v4
	C100,115.105,99.105,116,98,116z"/>
<path style="fill:#4D4D4D;" d="M110,116h-4c-1.105,0-2-0.895-2-2v-4c0-1.105,0.895-2,2-2h4c1.105,0,2,0.895,2,2v4
	C112,115.105,111.105,116,110,116z"/>
<path style="fill:#4D4D4D;" d="M122,116h-4c-1.105,0-2-0.895-2-2v-4c0-1.105,0.895-2,2-2h4c1.105,0,2,0.895,2,2v4
	C124,115.105,123.105,116,122,116z"/>
<path style="fill:#4D4D4D;" d="M134,116h-4c-1.105,0-2-0.895-2-2v-4c0-1.105,0.895-2,2-2h4c1.105,0,2,0.895,2,2v4
	C136,115.105,135.105,116,134,116z"/>
<path style="fill:#4D4D4D;" d="M146,116h-4c-1.105,0-2-0.895-2-2v-4c0-1.105,0.895-2,2-2h4c1.105,0,2,0.895,2,2v4
	C148,115.105,147.105,116,146,116z"/>
<path style="fill:#4D4D4D;" d="M158,116h-4c-1.105,0-2-0.895-2-2v-4c0-1.105,0.895-2,2-2h4c1.105,0,2,0.895,2,2v4
	C160,115.105,159.105,116,158,116z"/>
<path style="fill:#4D4D4D;" d="M170,116h-4c-1.105,0-2-0.895-2-2v-4c0-1.105,0.895-2,2-2h4c1.105,0,2,0.895,2,2v4
	C172,115.105,171.105,116,170,116z"/>
<path style="fill:#4D4D4D;" d="M182,116h-4c-1.105,0-2-0.895-2-2v-4c0-1.105,0.895-2,2-2h4c1.105,0,2,0.895,2,2v4
	C184,115.105,183.105,116,182,116z"/>
<path style="fill:#4D4D4D;" d="M194,116h-4c-1.105,0-2-0.895-2-2v-4c0-1.105,0.895-2,2-2h4c1.105,0,2,0.895,2,2v4
	C196,115.105,195.105,116,194,116z"/>
<path style="fill:#4D4D4D;" d="M26,140h-4c-1.105,0-2-0.895-2-2v-4c0-1.105,0.895-2,2-2h4c1.105,0,2,0.895,2,2v4
	C28,139.105,27.105,140,26,140z"/>
<path style="fill:#4D4D4D;" d="M38,140h-4c-1.105,0-2-0.895-2-2v-4c0-1.105,0.895-2,2-2h4c1.105,0,2,0.895,2,2v4
	C40,139.105,39.105,140,38,140z"/>
<path style="fill:#4D4D4D;" d="M50,140h-4c-1.105,0-2-0.895-2-2v-4c0-1.105,0.895-2,2-2h4c1.105,0,2,0.895,2,2v4
	C52,139.105,51.105,140,50,140z"/>
<path style="fill:#4D4D4D;" d="M62,140h-4c-1.105,0-2-0.895-2-2v-4c0-1.105,0.895-2,2-2h4c1.105,0,2,0.895,2,2v4
	C64,139.105,63.105,140,62,140z"/>
<path style="fill:#4D4D4D;" d="M74,140h-4c-1.105,0-2-0.895-2-2v-4c0-1.105,0.895-2,2-2h4c1.105,0,2,0.895,2,2v4
	C76,139.105,75.105,140,74,140z"/>
<path style="fill:#4D4D4D;" d="M86,140h-4c-1.105,0-2-0.895-2-2v-4c0-1.105,0.895-2,2-2h4c1.105,0,2,0.895,2,2v4
	C88,139.105,87.105,140,86,140z"/>
<path style="fill:#4D4D4D;" d="M98,140h-4c-1.105,0-2-0.895-2-2v-4c0-1.105,0.895-2,2-2h4c1.105,0,2,0.895,2,2v4
	C100,139.105,99.105,140,98,140z"/>
<path style="fill:#4D4D4D;" d="M110,140h-4c-1.105,0-2-0.895-2-2v-4c0-1.105,0.895-2,2-2h4c1.105,0,2,0.895,2,2v4
	C112,139.105,111.105,140,110,140z"/>
<path style="fill:#4D4D4D;" d="M122,140h-4c-1.105,0-2-0.895-2-2v-4c0-1.105,0.895-2,2-2h4c1.105,0,2,0.895,2,2v4
	C124,139.105,123.105,140,122,140z"/>
<path style="fill:#4D4D4D;" d="M134,140h-4c-1.105,0-2-0.895-2-2v-4c0-1.105,0.895-2,2-2h4c1.105,0,2,0.895,2,2v4
	C136,139.105,135.105,140,134,140z"/>
<path style="fill:#4D4D4D;" d="M146,140h-4c-1.105,0-2-0.895-2-2v-4c0-1.105,0.895-2,2-2h4c1.105,0,2,0.895,2,2v4
	C148,139.105,147.105,140,146,140z"/>
<path style="fill:#4D4D4D;" d="M158,140h-4c-1.105,0-2-0.895-2-2v-4c0-1.105,0.895-2,2-2h4c1.105,0,2,0.895,2,2v4
	C160,139.105,159.105,140,158,140z"/>
<path style="fill:#4D4D4D;" d="M170,140h-4c-1.105,0-2-0.895-2-2v-4c0-1.105,0.895-2,2-2h4c1.105,0,2,0.895,2,2v4
	C172,139.105,171.105,140,170,140z"/>
<path style="fill:#4D4D4D;" d="M190,140h-12c-1.105,0-2-0.895-2-2v-4c0-1.105,0.895-2,2-2h12c1.105,0,2,0.895,2,2v4
	C192,139.105,191.105,140,190,140z"/>
<path style="fill:#4D4D4D;" d="M34,128h-8c-1.105,0-2-0.895-2-2v-4c0-1.105,0.895-2,2-2h8c1.105,0,2,0.895,2,2v4
	C36,127.105,35.105,128,34,128z"/>
<path style="fill:#4D4D4D;" d="M46,128h-4c-1.105,0-2-0.895-2-2v-4c0-1.105,0.895-2,2-2h4c1.105,0,2,0.895,2,2v4
	C48,127.105,47.105,128,46,128z"/>
<path style="fill:#4D4D4D;" d="M58,128h-4c-1.105,0-2-0.895-2-2v-4c0-1.105,0.895-2,2-2h4c1.105,0,2,0.895,2,2v4
	C60,127.105,59.105,128,58,128z"/>
<path style="fill:#4D4D4D;" d="M70,128h-4c-1.105,0-2-0.895-2-2v-4c0-1.105,0.895-2,2-2h4c1.105,0,2,0.895,2,2v4
	C72,127.105,71.105,128,70,128z"/>
<path style="fill:#4D4D4D;" d="M82,128h-4c-1.105,0-2-0.895-2-2v-4c0-1.105,0.895-2,2-2h4c1.105,0,2,0.895,2,2v4
	C84,127.105,83.105,128,82,128z"/>
<path style="fill:#4D4D4D;" d="M94,128h-4c-1.105,0-2-0.895-2-2v-4c0-1.105,0.895-2,2-2h4c1.105,0,2,0.895,2,2v4
	C96,127.105,95.105,128,94,128z"/>
<path style="fill:#4D4D4D;" d="M106,128h-4c-1.105,0-2-0.895-2-2v-4c0-1.105,0.895-2,2-2h4c1.105,0,2,0.895,2,2v4
	C108,127.105,107.105,128,106,128z"/>
<path style="fill:#4D4D4D;" d="M118,128h-4c-1.105,0-2-0.895-2-2v-4c0-1.105,0.895-2,2-2h4c1.105,0,2,0.895,2,2v4
	C120,127.105,119.105,128,118,128z"/>
<path style="fill:#4D4D4D;" d="M130,128h-4c-1.105,0-2-0.895-2-2v-4c0-1.105,0.895-2,2-2h4c1.105,0,2,0.895,2,2v4
	C132,127.105,131.105,128,130,128z"/>
<path style="fill:#4D4D4D;" d="M142,128h-4c-1.105,0-2-0.895-2-2v-4c0-1.105,0.895-2,2-2h4c1.105,0,2,0.895,2,2v4
	C144,127.105,143.105,128,142,128z"/>
<path style="fill:#4D4D4D;" d="M154,128h-4c-1.105,0-2-0.895-2-2v-4c0-1.105,0.895-2,2-2h4c1.105,0,2,0.895,2,2v4
	C156,127.105,155.105,128,154,128z"/>
<path style="fill:#4D4D4D;" d="M166,128h-4c-1.105,0-2-0.895-2-2v-4c0-1.105,0.895-2,2-2h4c1.105,0,2,0.895,2,2v4
	C168,127.105,167.105,128,166,128z"/>
<path style="fill:#4D4D4D;" d="M178,128h-4c-1.105,0-2-0.895-2-2v-4c0-1.105,0.895-2,2-2h4c1.105,0,2,0.895,2,2v4
	C180,127.105,179.105,128,178,128z"/>
<path style="fill:#4D4D4D;" d="M42,152h-8c-1.105,0-2-0.895-2-2v-4c0-1.105,0.895-2,2-2h8c1.105,0,2,0.895,2,2v4
	C44,151.105,43.105,152,42,152z"/>
<path style="fill:#4D4D4D;" d="M26,152h-4c-1.105,0-2-0.895-2-2v-4c0-1.105,0.895-2,2-2h4c1.105,0,2,0.895,2,2v4
	C28,151.105,27.105,152,26,152z"/>
<path style="fill:#4D4D4D;" d="M54,152h-4c-1.105,0-2-0.895-2-2v-4c0-1.105,0.895-2,2-2h4c1.105,0,2,0.895,2,2v4
	C56,151.105,55.105,152,54,152z"/>
<path style="fill:#4D4D4D;" d="M66,152h-4c-1.105,0-2-0.895-2-2v-4c0-1.105,0.895-2,2-2h4c1.105,0,2,0.895,2,2v4
	C68,151.105,67.105,152,66,152z"/>
<path style="fill:#4D4D4D;" d="M78,152h-4c-1.105,0-2-0.895-2-2v-4c0-1.105,0.895-2,2-2h4c1.105,0,2,0.895,2,2v4
	C80,151.105,79.105,152,78,152z"/>
<path style="fill:#4D4D4D;" d="M90,152h-4c-1.105,0-2-0.895-2-2v-4c0-1.105,0.895-2,2-2h4c1.105,0,2,0.895,2,2v4
	C92,151.105,91.105,152,90,152z"/>
<path style="fill:#4D4D4D;" d="M102,152h-4c-1.105,0-2-0.895-2-2v-4c0-1.105,0.895-2,2-2h4c1.105,0,2,0.895,2,2v4
	C104,151.105,103.105,152,102,152z"/>
<path style="fill:#4D4D4D;" d="M114,152h-4c-1.105,0-2-0.895-2-2v-4c0-1.105,0.895-2,2-2h4c1.105,0,2,0.895,2,2v4
	C116,151.105,115.105,152,114,152z"/>
<path style="fill:#4D4D4D;" d="M126,152h-4c-1.105,0-2-0.895-2-2v-4c0-1.105,0.895-2,2-2h4c1.105,0,2,0.895,2,2v4
	C128,151.105,127.105,152,126,152z"/>
<path style="fill:#4D4D4D;" d="M138,152h-4c-1.105,0-2-0.895-2-2v-4c0-1.105,0.895-2,2-2h4c1.105,0,2,0.895,2,2v4
	C140,151.105,139.105,152,138,152z"/>
<path style="fill:#4D4D4D;" d="M150,152h-4c-1.105,0-2-0.895-2-2v-4c0-1.105,0.895-2,2-2h4c1.105,0,2,0.895,2,2v4
	C152,151.105,151.105,152,150,152z"/>
<path style="fill:#4D4D4D;" d="M166,152h-8c-1.105,0-2-0.895-2-2v-4c0-1.105,0.895-2,2-2h8c1.105,0,2,0.895,2,2v4
	C168,151.105,167.105,152,166,152z"/>
<path style="fill:#4D4D4D;" d="M178,152h-4c-1.105,0-2-0.895-2-2v-4c0-1.105,0.895-2,2-2h4c1.105,0,2,0.895,2,2v4
	C180,151.105,179.105,152,178,152z"/>
<path style="fill:#4D4D4D;" d="M190,152h-4c-1.105,0-2-0.895-2-2v-4c0-1.105,0.895-2,2-2h4c1.105,0,2,0.895,2,2v4
	C192,151.105,191.105,152,190,152z"/>
<path style="fill:#4D4D4D;" d="M194,128h-8c-1.105,0-2-0.895-2-2v-4c0-1.105,0.895-2,2-2h8c1.105,0,2,0.895,2,2v4
	C196,127.105,195.105,128,194,128z"/>
<path style="fill:#4D4D4D;" d="M146,164H50c-1.105,0-2-0.895-2-2v-4c0-1.105,0.895-2,2-2h96c1.105,0,2,0.895,2,2v4
	C148,163.105,147.105,164,146,164z"/>
<path style="fill:#BF9A57;" d="M222,116h-12c-1.105,0-2-0.895-2-2v-4c0-1.105,0.895-2,2-2h12c1.105,0,2,0.895,2,2v4
	C224,115.105,223.105,116,222,116z"/>
<path style="fill:#BF9A57;" d="M222,128h-12c-1.105,0-2-0.895-2-2v-4c0-1.105,0.895-2,2-2h12c1.105,0,2,0.895,2,2v4
	C224,127.105,223.105,128,222,128z"/>
<path style="fill:#BF9A57;" d="M222,140h-12c-1.105,0-2-0.895-2-2v-4c0-1.105,0.895-2,2-2h12c1.105,0,2,0.895,2,2v4
	C224,139.105,223.105,140,222,140z"/>
<path style="fill:#BF9A57;" d="M222,152h-12c-1.105,0-2-0.895-2-2v-4c0-1.105,0.895-2,2-2h12c1.105,0,2,0.895,2,2v4
	C224,151.105,223.105,152,222,152z"/>
<path style="fill:#A6A390;" d="M88,79H68v8h20c2.209,0,4-1.791,4-4C92,80.791,90.209,79,88,79z"/>
<path style="fill:#808080;" d="M68,79H28c-2.209,0-4,1.791-4,4c0,2.209,1.791,4,4,4h40V79z"/>
</svg>
