<?xml version="1.0" encoding="UTF-8" standalone="no"?>
<svg
   xmlns:dc="http://purl.org/dc/elements/1.1/"
   xmlns:cc="http://creativecommons.org/ns#"
   xmlns:rdf="http://www.w3.org/1999/02/22-rdf-syntax-ns#"
   xmlns:svg="http://www.w3.org/2000/svg"
   xmlns="http://www.w3.org/2000/svg"
   viewBox="0 0 330.66665 266.66665"
   height="266.66666"
   width="330.66666"
   xml:space="preserve"
   id="svg2"
   version="1.1"><metadata
     id="metadata8"><rdf:RDF><cc:Work
         rdf:about=""><dc:format>image/svg+xml</dc:format><dc:type
           rdf:resource="http://purl.org/dc/dcmitype/StillImage" /></cc:Work></rdf:RDF></metadata><defs
     id="defs6"><clipPath
       id="clipPath18"
       clipPathUnits="userSpaceOnUse"><path
         id="path16"
         d="M 0,256 H 256 V 0 H 0 Z" /></clipPath><clipPath
       id="clipPath26"
       clipPathUnits="userSpaceOnUse"><path
         id="path24"
         d="M 4,228 H 252 V 28 H 4 Z" /></clipPath></defs><g
     transform="matrix(1.3333333,0,0,-1.3333333,-5.3333332,303.99999)"
     id="g10"><g
       id="g12"><g
         clip-path="url(#clipPath18)"
         id="g14"><g
           id="g20"><g
             id="g22" /><g
             id="g34"><g
               style="opacity:0.5"
               id="g32"
               clip-path="url(#clipPath26)"><g
                 id="g30"
                 transform="translate(242,228)"><path
                   id="path28"
                   style="fill:#ffffff;fill-opacity:1;fill-rule:nonzero;stroke:none"
                   d="m 0,0 h -228 c -5.514,0 -10,-4.486 -10,-10 v -180 c 0,-5.514 4.486,-10 10,-10 H 0 c 5.514,0 10,4.486 10,10 V -10 C 10,-4.486 5.514,0 0,0" /></g></g></g></g><g
           transform="translate(242,220)"
           id="g36"><path
             id="path38"
             style="fill:#404040;fill-opacity:1;fill-rule:nonzero;stroke:none"
             d="m 0,0 h -228 c -1.104,0 -2,-0.896 -2,-2 v -180 c 0,-1.104 0.896,-2 2,-2 H 0 c 1.104,0 2,0.896 2,2 V -2 C 2,-0.896 1.104,0 0,0" /></g><g
           transform="translate(238,210)"
           id="g40"><path
             id="path42"
             style="fill:#333333;fill-opacity:1;fill-rule:nonzero;stroke:none"
             d="m 0,0 h -2 -216 -2 v -2 -72 -2 h 2 216 2 v 2 72 z M -2,-74 H -218 V -2 H -2 Z" /></g><path
           id="path44"
           style="fill:#262626;fill-opacity:1;fill-rule:nonzero;stroke:none"
           d="m 74,136 h -2 v 72 h 2 z" /><path
           id="path46"
           style="fill:#262626;fill-opacity:1;fill-rule:nonzero;stroke:none"
           d="m 78,136 h -2 v 72 h 2 z" /><path
           id="path48"
           style="fill:#262626;fill-opacity:1;fill-rule:nonzero;stroke:none"
           d="m 82,136 h -2 v 72 h 2 z" /><path
           id="path50"
           style="fill:#262626;fill-opacity:1;fill-rule:nonzero;stroke:none"
           d="m 62,136 h -2 v 72 h 2 z" /><path
           id="path52"
           style="fill:#262626;fill-opacity:1;fill-rule:nonzero;stroke:none"
           d="m 66,136 h -2 v 72 h 2 z" /><path
           id="path54"
           style="fill:#262626;fill-opacity:1;fill-rule:nonzero;stroke:none"
           d="m 70,136 h -2 v 72 h 2 z" /><path
           id="path56"
           style="fill:#262626;fill-opacity:1;fill-rule:nonzero;stroke:none"
           d="m 50,136 h -2 v 72 h 2 z" /><path
           id="path58"
           style="fill:#262626;fill-opacity:1;fill-rule:nonzero;stroke:none"
           d="m 54,136 h -2 v 72 h 2 z" /><path
           id="path60"
           style="fill:#262626;fill-opacity:1;fill-rule:nonzero;stroke:none"
           d="m 58,136 h -2 v 72 h 2 z" /><path
           id="path62"
           style="fill:#262626;fill-opacity:1;fill-rule:nonzero;stroke:none"
           d="m 38,136 h -2 v 72 h 2 z" /><path
           id="path64"
           style="fill:#262626;fill-opacity:1;fill-rule:nonzero;stroke:none"
           d="m 42,136 h -2 v 72 h 2 z" /><path
           id="path66"
           style="fill:#262626;fill-opacity:1;fill-rule:nonzero;stroke:none"
           d="m 46,136 h -2 v 72 h 2 z" /><path
           id="path68"
           style="fill:#262626;fill-opacity:1;fill-rule:nonzero;stroke:none"
           d="m 26,136 h -2 v 72 h 2 z" /><path
           id="path70"
           style="fill:#262626;fill-opacity:1;fill-rule:nonzero;stroke:none"
           d="m 30,136 h -2 v 72 h 2 z" /><path
           id="path72"
           style="fill:#262626;fill-opacity:1;fill-rule:nonzero;stroke:none"
           d="m 34,136 h -2 v 72 h 2 z" /><path
           id="path74"
           style="fill:#262626;fill-opacity:1;fill-rule:nonzero;stroke:none"
           d="m 224,136 h -2 v 72 h 2 z" /><path
           id="path76"
           style="fill:#262626;fill-opacity:1;fill-rule:nonzero;stroke:none"
           d="m 228,136 h -2 v 72 h 2 z" /><path
           id="path78"
           style="fill:#262626;fill-opacity:1;fill-rule:nonzero;stroke:none"
           d="m 232,136 h -2 v 72 h 2 z" /><path
           id="path80"
           style="fill:#262626;fill-opacity:1;fill-rule:nonzero;stroke:none"
           d="m 212,136 h -2 v 72 h 2 z" /><path
           id="path82"
           style="fill:#262626;fill-opacity:1;fill-rule:nonzero;stroke:none"
           d="m 216,136 h -2 v 72 h 2 z" /><path
           id="path84"
           style="fill:#262626;fill-opacity:1;fill-rule:nonzero;stroke:none"
           d="m 220,136 h -2 v 72 h 2 z" /><path
           id="path86"
           style="fill:#262626;fill-opacity:1;fill-rule:nonzero;stroke:none"
           d="m 200,136 h -2 v 72 h 2 z" /><path
           id="path88"
           style="fill:#262626;fill-opacity:1;fill-rule:nonzero;stroke:none"
           d="m 204,136 h -2 v 72 h 2 z" /><path
           id="path90"
           style="fill:#262626;fill-opacity:1;fill-rule:nonzero;stroke:none"
           d="m 208,136 h -2 v 72 h 2 z" /><path
           id="path92"
           style="fill:#262626;fill-opacity:1;fill-rule:nonzero;stroke:none"
           d="m 188,136 h -2 v 72 h 2 z" /><path
           id="path94"
           style="fill:#262626;fill-opacity:1;fill-rule:nonzero;stroke:none"
           d="m 192,136 h -2 v 72 h 2 z" /><path
           id="path96"
           style="fill:#262626;fill-opacity:1;fill-rule:nonzero;stroke:none"
           d="m 196,136 h -2 v 72 h 2 z" /><path
           id="path98"
           style="fill:#262626;fill-opacity:1;fill-rule:nonzero;stroke:none"
           d="m 176,136 h -2 v 72 h 2 z" /><path
           id="path100"
           style="fill:#262626;fill-opacity:1;fill-rule:nonzero;stroke:none"
           d="m 180,136 h -2 v 72 h 2 z" /><path
           id="path102"
           style="fill:#262626;fill-opacity:1;fill-rule:nonzero;stroke:none"
           d="m 184,136 h -2 v 72 h 2 z" /><path
           id="path104"
           style="fill:#191919;fill-opacity:1;fill-rule:nonzero;stroke:none"
           d="m 30,176 h -2 v 32 h 2 z" /><path
           id="path106"
           style="fill:#191919;fill-opacity:1;fill-rule:nonzero;stroke:none"
           d="m 34,176 h -2 v 32 h 2 z" /><path
           id="path108"
           style="fill:#191919;fill-opacity:1;fill-rule:nonzero;stroke:none"
           d="m 38,176 h -2 v 32 h 2 z" /><path
           id="path110"
           style="fill:#191919;fill-opacity:1;fill-rule:nonzero;stroke:none"
           d="m 42,176 h -2 v 32 h 2 z" /><path
           id="path112"
           style="fill:#191919;fill-opacity:1;fill-rule:nonzero;stroke:none"
           d="m 46,176 h -2 v 32 h 2 z" /><path
           id="path114"
           style="fill:#191919;fill-opacity:1;fill-rule:nonzero;stroke:none"
           d="m 50,176 h -2 v 32 h 2 z" /><path
           id="path116"
           style="fill:#191919;fill-opacity:1;fill-rule:nonzero;stroke:none"
           d="m 54,176 h -2 v 32 h 2 z" /><path
           id="path118"
           style="fill:#191919;fill-opacity:1;fill-rule:nonzero;stroke:none"
           d="m 58,176 h -2 v 32 h 2 z" /><path
           id="path120"
           style="fill:#191919;fill-opacity:1;fill-rule:nonzero;stroke:none"
           d="m 62,176 h -2 v 32 h 2 z" /><path
           id="path122"
           style="fill:#191919;fill-opacity:1;fill-rule:nonzero;stroke:none"
           d="m 66,176 h -2 v 32 h 2 z" /><path
           id="path124"
           style="fill:#191919;fill-opacity:1;fill-rule:nonzero;stroke:none"
           d="m 70,176 h -2 v 32 h 2 z" /><path
           id="path126"
           style="fill:#191919;fill-opacity:1;fill-rule:nonzero;stroke:none"
           d="m 30,136 h -2 v 32 h 2 z" /><path
           id="path128"
           style="fill:#191919;fill-opacity:1;fill-rule:nonzero;stroke:none"
           d="m 34,136 h -2 v 32 h 2 z" /><path
           id="path130"
           style="fill:#191919;fill-opacity:1;fill-rule:nonzero;stroke:none"
           d="m 38,136 h -2 v 32 h 2 z" /><path
           id="path132"
           style="fill:#191919;fill-opacity:1;fill-rule:nonzero;stroke:none"
           d="m 42,136 h -2 v 32 h 2 z" /><path
           id="path134"
           style="fill:#191919;fill-opacity:1;fill-rule:nonzero;stroke:none"
           d="m 46,136 h -2 v 32 h 2 z" /><path
           id="path136"
           style="fill:#191919;fill-opacity:1;fill-rule:nonzero;stroke:none"
           d="m 50,136 h -2 v 32 h 2 z" /><path
           id="path138"
           style="fill:#191919;fill-opacity:1;fill-rule:nonzero;stroke:none"
           d="m 54,136 h -2 v 32 h 2 z" /><path
           id="path140"
           style="fill:#191919;fill-opacity:1;fill-rule:nonzero;stroke:none"
           d="m 58,136 h -2 v 32 h 2 z" /><path
           id="path142"
           style="fill:#191919;fill-opacity:1;fill-rule:nonzero;stroke:none"
           d="m 62,136 h -2 v 32 h 2 z" /><path
           id="path144"
           style="fill:#191919;fill-opacity:1;fill-rule:nonzero;stroke:none"
           d="m 66,136 h -2 v 32 h 2 z" /><path
           id="path146"
           style="fill:#191919;fill-opacity:1;fill-rule:nonzero;stroke:none"
           d="m 70,136 h -2 v 32 h 2 z" /><path
           id="path148"
           style="fill:#191919;fill-opacity:1;fill-rule:nonzero;stroke:none"
           d="m 192,176 h -2 v 32 h 2 z" /><path
           id="path150"
           style="fill:#191919;fill-opacity:1;fill-rule:nonzero;stroke:none"
           d="m 196,176 h -2 v 32 h 2 z" /><path
           id="path152"
           style="fill:#191919;fill-opacity:1;fill-rule:nonzero;stroke:none"
           d="m 200,176 h -2 v 32 h 2 z" /><path
           id="path154"
           style="fill:#191919;fill-opacity:1;fill-rule:nonzero;stroke:none"
           d="m 204,176 h -2 v 32 h 2 z" /><path
           id="path156"
           style="fill:#191919;fill-opacity:1;fill-rule:nonzero;stroke:none"
           d="m 208,176 h -2 v 32 h 2 z" /><path
           id="path158"
           style="fill:#191919;fill-opacity:1;fill-rule:nonzero;stroke:none"
           d="m 212,176 h -2 v 32 h 2 z" /><path
           id="path160"
           style="fill:#191919;fill-opacity:1;fill-rule:nonzero;stroke:none"
           d="m 216,176 h -2 v 32 h 2 z" /><path
           id="path162"
           style="fill:#191919;fill-opacity:1;fill-rule:nonzero;stroke:none"
           d="m 220,176 h -2 v 32 h 2 z" /><path
           id="path164"
           style="fill:#191919;fill-opacity:1;fill-rule:nonzero;stroke:none"
           d="m 224,176 h -2 v 32 h 2 z" /><path
           id="path166"
           style="fill:#191919;fill-opacity:1;fill-rule:nonzero;stroke:none"
           d="m 228,176 h -2 v 32 h 2 z" /><path
           id="path168"
           style="fill:#191919;fill-opacity:1;fill-rule:nonzero;stroke:none"
           d="m 232,176 h -2 v 32 h 2 z" /><path
           id="path170"
           style="fill:#191919;fill-opacity:1;fill-rule:nonzero;stroke:none"
           d="m 192,136 h -2 v 32 h 2 z" /><path
           id="path172"
           style="fill:#191919;fill-opacity:1;fill-rule:nonzero;stroke:none"
           d="m 196,136 h -2 v 32 h 2 z" /><path
           id="path174"
           style="fill:#191919;fill-opacity:1;fill-rule:nonzero;stroke:none"
           d="m 200,136 h -2 v 32 h 2 z" /><path
           id="path176"
           style="fill:#191919;fill-opacity:1;fill-rule:nonzero;stroke:none"
           d="m 204,136 h -2 v 32 h 2 z" /><path
           id="path178"
           style="fill:#191919;fill-opacity:1;fill-rule:nonzero;stroke:none"
           d="m 208,136 h -2 v 32 h 2 z" /><path
           id="path180"
           style="fill:#191919;fill-opacity:1;fill-rule:nonzero;stroke:none"
           d="m 212,136 h -2 v 32 h 2 z" /><path
           id="path182"
           style="fill:#191919;fill-opacity:1;fill-rule:nonzero;stroke:none"
           d="m 216,136 h -2 v 32 h 2 z" /><path
           id="path184"
           style="fill:#191919;fill-opacity:1;fill-rule:nonzero;stroke:none"
           d="m 220,136 h -2 v 32 h 2 z" /><path
           id="path186"
           style="fill:#191919;fill-opacity:1;fill-rule:nonzero;stroke:none"
           d="m 224,136 h -2 v 32 h 2 z" /><path
           id="path188"
           style="fill:#191919;fill-opacity:1;fill-rule:nonzero;stroke:none"
           d="m 228,136 h -2 v 32 h 2 z" /><path
           id="path190"
           style="fill:#191919;fill-opacity:1;fill-rule:nonzero;stroke:none"
           d="m 232,136 h -2 v 32 h 2 z" /><path
           id="path192"
           style="fill:#4c4c4c;fill-opacity:1;fill-rule:nonzero;stroke:none"
           d="m 136,124 h -16 v 8 h 16 z" /><g
           transform="translate(208,36)"
           id="g194"><path
             id="path196"
             style="fill:#333333;fill-opacity:1;fill-rule:nonzero;stroke:none"
             d="m 0,0 h -160 v 76 c 0,4.418 3.582,8 8,8 H -8 c 4.418,0 8,-3.582 8,-8 z" /></g><g
           transform="translate(75,96)"
           id="g198"><path
             id="path200"
             style="fill:#666666;fill-opacity:1;fill-rule:nonzero;stroke:none"
             d="m 0,0 h -6 c -0.552,0 -1,0.447 -1,1 v 6 c 0,0.553 0.448,1 1,1 H 0 C 0.552,8 1,7.553 1,7 V 1 C 1,0.447 0.552,0 0,0" /></g><g
           transform="translate(87,96)"
           id="g202"><path
             id="path204"
             style="fill:#666666;fill-opacity:1;fill-rule:nonzero;stroke:none"
             d="m 0,0 h -6 c -0.552,0 -1,0.447 -1,1 v 6 c 0,0.553 0.448,1 1,1 H 0 C 0.552,8 1,7.553 1,7 V 1 C 1,0.447 0.552,0 0,0" /></g><g
           transform="translate(99,96)"
           id="g206"><path
             id="path208"
             style="fill:#666666;fill-opacity:1;fill-rule:nonzero;stroke:none"
             d="m 0,0 h -6 c -0.552,0 -1,0.447 -1,1 v 6 c 0,0.553 0.448,1 1,1 H 0 C 0.552,8 1,7.553 1,7 V 1 C 1,0.447 0.552,0 0,0" /></g><g
           transform="translate(111,96)"
           id="g210"><path
             id="path212"
             style="fill:#666666;fill-opacity:1;fill-rule:nonzero;stroke:none"
             d="m 0,0 h -6 c -0.552,0 -1,0.447 -1,1 v 6 c 0,0.553 0.448,1 1,1 H 0 C 0.552,8 1,7.553 1,7 V 1 C 1,0.447 0.552,0 0,0" /></g><g
           transform="translate(119,84)"
           id="g214"><path
             id="path216"
             style="fill:#666666;fill-opacity:1;fill-rule:nonzero;stroke:none"
             d="m 0,0 h -6 c -0.552,0 -1,0.447 -1,1 v 6 c 0,0.553 0.448,1 1,1 H 0 C 0.552,8 1,7.553 1,7 V 1 C 1,0.447 0.552,0 0,0" /></g><g
           transform="translate(127,72)"
           id="g218"><path
             id="path220"
             style="fill:#666666;fill-opacity:1;fill-rule:nonzero;stroke:none"
             d="m 0,0 h -6 c -0.552,0 -1,0.447 -1,1 v 6 c 0,0.553 0.448,1 1,1 H 0 C 0.552,8 1,7.553 1,7 V 1 C 1,0.447 0.552,0 0,0" /></g><g
           transform="translate(123,96)"
           id="g222"><path
             id="path224"
             style="fill:#666666;fill-opacity:1;fill-rule:nonzero;stroke:none"
             d="m 0,0 h -6 c -0.552,0 -1,0.447 -1,1 v 6 c 0,0.553 0.448,1 1,1 H 0 C 0.552,8 1,7.553 1,7 V 1 C 1,0.447 0.552,0 0,0" /></g><g
           transform="translate(135,96)"
           id="g226"><path
             id="path228"
             style="fill:#666666;fill-opacity:1;fill-rule:nonzero;stroke:none"
             d="m 0,0 h -6 c -0.552,0 -1,0.447 -1,1 v 6 c 0,0.553 0.448,1 1,1 H 0 C 0.553,8 1,7.553 1,7 V 1 C 1,0.447 0.553,0 0,0" /></g><g
           transform="translate(147,96)"
           id="g230"><path
             id="path232"
             style="fill:#666666;fill-opacity:1;fill-rule:nonzero;stroke:none"
             d="m 0,0 h -6 c -0.553,0 -1,0.447 -1,1 v 6 c 0,0.553 0.447,1 1,1 H 0 C 0.553,8 1,7.553 1,7 V 1 C 1,0.447 0.553,0 0,0" /></g><g
           transform="translate(159,96)"
           id="g234"><path
             id="path236"
             style="fill:#666666;fill-opacity:1;fill-rule:nonzero;stroke:none"
             d="m 0,0 h -6 c -0.553,0 -1,0.447 -1,1 v 6 c 0,0.553 0.447,1 1,1 H 0 C 0.553,8 1,7.553 1,7 V 1 C 1,0.447 0.553,0 0,0" /></g><g
           transform="translate(171,96)"
           id="g238"><path
             id="path240"
             style="fill:#666666;fill-opacity:1;fill-rule:nonzero;stroke:none"
             d="m 0,0 h -6 c -0.553,0 -1,0.447 -1,1 v 6 c 0,0.553 0.447,1 1,1 H 0 C 0.553,8 1,7.553 1,7 V 1 C 1,0.447 0.553,0 0,0" /></g><g
           transform="translate(83,84)"
           id="g242"><path
             id="path244"
             style="fill:#666666;fill-opacity:1;fill-rule:nonzero;stroke:none"
             d="m 0,0 h -6 c -0.552,0 -1,0.447 -1,1 v 6 c 0,0.553 0.448,1 1,1 H 0 C 0.552,8 1,7.553 1,7 V 1 C 1,0.447 0.552,0 0,0" /></g><g
           transform="translate(95,84)"
           id="g246"><path
             id="path248"
             style="fill:#666666;fill-opacity:1;fill-rule:nonzero;stroke:none"
             d="m 0,0 h -6 c -0.552,0 -1,0.447 -1,1 v 6 c 0,0.553 0.448,1 1,1 H 0 C 0.552,8 1,7.553 1,7 V 1 C 1,0.447 0.552,0 0,0" /></g><g
           transform="translate(107,84)"
           id="g250"><path
             id="path252"
             style="fill:#666666;fill-opacity:1;fill-rule:nonzero;stroke:none"
             d="m 0,0 h -6 c -0.552,0 -1,0.447 -1,1 v 6 c 0,0.553 0.448,1 1,1 H 0 C 0.552,8 1,7.553 1,7 V 1 C 1,0.447 0.552,0 0,0" /></g><g
           transform="translate(131,84)"
           id="g254"><path
             id="path256"
             style="fill:#666666;fill-opacity:1;fill-rule:nonzero;stroke:none"
             d="m 0,0 h -6 c -0.552,0 -1,0.447 -1,1 v 6 c 0,0.553 0.448,1 1,1 H 0 C 0.553,8 1,7.553 1,7 V 1 C 1,0.447 0.553,0 0,0" /></g><g
           transform="translate(143,84)"
           id="g258"><path
             id="path260"
             style="fill:#666666;fill-opacity:1;fill-rule:nonzero;stroke:none"
             d="m 0,0 h -6 c -0.553,0 -1,0.447 -1,1 v 6 c 0,0.553 0.447,1 1,1 H 0 C 0.553,8 1,7.553 1,7 V 1 C 1,0.447 0.553,0 0,0" /></g><g
           transform="translate(155,84)"
           id="g262"><path
             id="path264"
             style="fill:#666666;fill-opacity:1;fill-rule:nonzero;stroke:none"
             d="m 0,0 h -6 c -0.553,0 -1,0.447 -1,1 v 6 c 0,0.553 0.447,1 1,1 H 0 C 0.553,8 1,7.553 1,7 V 1 C 1,0.447 0.553,0 0,0" /></g><g
           transform="translate(167,84)"
           id="g266"><path
             id="path268"
             style="fill:#666666;fill-opacity:1;fill-rule:nonzero;stroke:none"
             d="m 0,0 h -6 c -0.553,0 -1,0.447 -1,1 v 6 c 0,0.553 0.447,1 1,1 H 0 C 0.553,8 1,7.553 1,7 V 1 C 1,0.447 0.553,0 0,0" /></g><g
           transform="translate(179,84)"
           id="g270"><path
             id="path272"
             style="fill:#666666;fill-opacity:1;fill-rule:nonzero;stroke:none"
             d="m 0,0 h -6 c -0.553,0 -1,0.447 -1,1 v 6 c 0,0.553 0.447,1 1,1 H 0 C 0.553,8 1,7.553 1,7 V 1 C 1,0.447 0.553,0 0,0" /></g><g
           transform="translate(91,72)"
           id="g274"><path
             id="path276"
             style="fill:#666666;fill-opacity:1;fill-rule:nonzero;stroke:none"
             d="m 0,0 h -6 c -0.552,0 -1,0.447 -1,1 v 6 c 0,0.553 0.448,1 1,1 H 0 C 0.552,8 1,7.553 1,7 V 1 C 1,0.447 0.552,0 0,0" /></g><g
           transform="translate(103,72)"
           id="g278"><path
             id="path280"
             style="fill:#666666;fill-opacity:1;fill-rule:nonzero;stroke:none"
             d="m 0,0 h -6 c -0.552,0 -1,0.447 -1,1 v 6 c 0,0.553 0.448,1 1,1 H 0 C 0.552,8 1,7.553 1,7 V 1 C 1,0.447 0.552,0 0,0" /></g><g
           transform="translate(115,72)"
           id="g282"><path
             id="path284"
             style="fill:#666666;fill-opacity:1;fill-rule:nonzero;stroke:none"
             d="m 0,0 h -6 c -0.552,0 -1,0.447 -1,1 v 6 c 0,0.553 0.448,1 1,1 H 0 C 0.552,8 1,7.553 1,7 V 1 C 1,0.447 0.552,0 0,0" /></g><g
           transform="translate(139,72)"
           id="g286"><path
             id="path288"
             style="fill:#666666;fill-opacity:1;fill-rule:nonzero;stroke:none"
             d="m 0,0 h -6 c -0.553,0 -1,0.447 -1,1 v 6 c 0,0.553 0.447,1 1,1 H 0 C 0.553,8 1,7.553 1,7 V 1 C 1,0.447 0.553,0 0,0" /></g><g
           transform="translate(151,72)"
           id="g290"><path
             id="path292"
             style="fill:#666666;fill-opacity:1;fill-rule:nonzero;stroke:none"
             d="m 0,0 h -6 c -0.553,0 -1,0.447 -1,1 v 6 c 0,0.553 0.447,1 1,1 H 0 C 0.553,8 1,7.553 1,7 V 1 C 1,0.447 0.553,0 0,0" /></g><g
           transform="translate(135,60)"
           id="g294"><path
             id="path296"
             style="fill:#3096cf;fill-opacity:1;fill-rule:nonzero;stroke:none"
             d="m 0,0 h -6 c -0.552,0 -1,0.447 -1,1 v 6 c 0,0.553 0.448,1 1,1 H 0 C 0.553,8 1,7.553 1,7 V 1 C 1,0.447 0.553,0 0,0" /></g><g
           transform="translate(99,60)"
           id="g298"><path
             id="path300"
             style="fill:#666666;fill-opacity:1;fill-rule:nonzero;stroke:none"
             d="m 0,0 h -6 c -0.552,0 -1,0.447 -1,1 v 6 c 0,0.553 0.448,1 1,1 H 0 C 0.552,8 1,7.553 1,7 V 1 C 1,0.447 0.552,0 0,0" /></g><g
           transform="translate(75,48)"
           id="g302"><path
             id="path304"
             style="fill:#b80000;fill-opacity:1;fill-rule:nonzero;stroke:none"
             d="m 0,0 h -6 c -0.552,0 -1,0.447 -1,1 v 6 c 0,0.553 0.448,1 1,1 H 0 C 0.552,8 1,7.553 1,7 V 1 C 1,0.447 0.552,0 0,0" /></g><g
           transform="translate(111,60)"
           id="g306"><path
             id="path308"
             style="fill:#3096cf;fill-opacity:1;fill-rule:nonzero;stroke:none"
             d="m 0,0 h -6 c -0.552,0 -1,0.447 -1,1 v 6 c 0,0.553 0.448,1 1,1 H 0 C 0.552,8 1,7.553 1,7 V 1 C 1,0.447 0.552,0 0,0" /></g><g
           transform="translate(123,60)"
           id="g310"><path
             id="path312"
             style="fill:#3096cf;fill-opacity:1;fill-rule:nonzero;stroke:none"
             d="m 0,0 h -6 c -0.552,0 -1,0.447 -1,1 v 6 c 0,0.553 0.448,1 1,1 H 0 C 0.552,8 1,7.553 1,7 V 1 C 1,0.447 0.552,0 0,0" /></g><g
           transform="translate(130.4189,48)"
           id="g314"><path
             id="path316"
             style="fill:#3096cf;fill-opacity:1;fill-rule:nonzero;stroke:none"
             d="m 0,0 h -16.838 c -0.873,0 -1.581,0.708 -1.581,1.581 v 4.838 c 0,0.873 0.708,1.581 1.581,1.581 H 0 C 0.873,8 1.581,7.292 1.581,6.419 V 1.581 C 1.581,0.708 0.873,0 0,0" /></g><g
           transform="translate(147,60)"
           id="g318"><path
             id="path320"
             style="fill:#3096cf;fill-opacity:1;fill-rule:nonzero;stroke:none"
             d="m 0,0 h -6 c -0.553,0 -1,0.447 -1,1 v 6 c 0,0.553 0.447,1 1,1 H 0 C 0.553,8 1,7.553 1,7 V 1 C 1,0.447 0.553,0 0,0" /></g><g
           transform="translate(163,72)"
           id="g322"><path
             id="path324"
             style="fill:#666666;fill-opacity:1;fill-rule:nonzero;stroke:none"
             d="m 0,0 h -6 c -0.553,0 -1,0.447 -1,1 v 6 c 0,0.553 0.447,1 1,1 H 0 C 0.553,8 1,7.553 1,7 V 1 C 1,0.447 0.553,0 0,0" /></g><g
           transform="translate(186.4189,72)"
           id="g326"><path
             id="path328"
             style="fill:#3096cf;fill-opacity:1;fill-rule:nonzero;stroke:none"
             d="m 0,0 h -16.838 c -0.873,0 -1.581,0.708 -1.581,1.581 v 4.838 c 0,0.873 0.708,1.581 1.581,1.581 H 0 C 0.873,8 1.581,7.292 1.581,6.419 V 1.581 C 1.581,0.708 0.873,0 0,0" /></g></g></g></g></svg>