<svg xmlns="http://www.w3.org/2000/svg" xml:space="preserve" width="330.667" height="266.667" viewBox="0 0 330.667 266.667"><defs><clipPath id="a" clipPathUnits="userSpaceOnUse"><path d="M0 256h256V0H0Z"/></clipPath><clipPath id="b" clipPathUnits="userSpaceOnUse"><path d="M4 228h248V28H4Z"/></clipPath></defs><g clip-path="url(#a)" transform="matrix(1.33333 0 0 -1.33333 -5.333 304)"><g clip-path="url(#b)" style="opacity:.5"><path d="M0 0h-228c-5.514 0-10-4.486-10-10v-180c0-5.514 4.486-10 10-10H0c5.514 0 10 4.486 10 10v180C10-4.486 5.514 0 0 0" style="fill:#fff;fill-opacity:1;fill-rule:nonzero;stroke:none" transform="translate(242 228)"/></g><path d="M0 0h-228a2 2 0 0 1-2-2v-180a2 2 0 0 1 2-2H0a2 2 0 0 1 2 2V-2a2 2 0 0 1-2 2" style="fill:#404040;fill-opacity:1;fill-rule:nonzero;stroke:none" transform="translate(242 220)"/><path d="M0 0h-220v-76H0v74zm-2-74h-216v72H-2Z" style="fill:#333;fill-opacity:1;fill-rule:nonzero;stroke:none" transform="translate(238 210)"/><path d="M74 136h-2v72h2zm4 0h-2v72h2zm4 0h-2v72h2zm-20 0h-2v72h2zm4 0h-2v72h2zm4 0h-2v72h2zm-20 0h-2v72h2zm4 0h-2v72h2zm4 0h-2v72h2zm-20 0h-2v72h2zm4 0h-2v72h2zm4 0h-2v72h2zm-20 0h-2v72h2zm4 0h-2v72h2zm4 0h-2v72h2zm190 0h-2v72h2zm4 0h-2v72h2zm4 0h-2v72h2zm-20 0h-2v72h2zm4 0h-2v72h2zm4 0h-2v72h2zm-20 0h-2v72h2zm4 0h-2v72h2zm4 0h-2v72h2zm-20 0h-2v72h2zm4 0h-2v72h2zm4 0h-2v72h2zm-20 0h-2v72h2zm4 0h-2v72h2zm4 0h-2v72h2z" style="fill:#262626;fill-opacity:1;fill-rule:nonzero;stroke:none"/><path d="M30 176h-2v32h2zm4 0h-2v32h2zm4 0h-2v32h2zm4 0h-2v32h2zm4 0h-2v32h2zm4 0h-2v32h2zm4 0h-2v32h2zm4 0h-2v32h2zm4 0h-2v32h2zm4 0h-2v32h2zm4 0h-2v32h2zm-40-40h-2v32h2zm4 0h-2v32h2zm4 0h-2v32h2zm4 0h-2v32h2zm4 0h-2v32h2zm4 0h-2v32h2zm4 0h-2v32h2zm4 0h-2v32h2zm4 0h-2v32h2zm4 0h-2v32h2zm4 0h-2v32h2zm122 40h-2v32h2zm4 0h-2v32h2zm4 0h-2v32h2zm4 0h-2v32h2zm4 0h-2v32h2zm4 0h-2v32h2zm4 0h-2v32h2zm4 0h-2v32h2zm4 0h-2v32h2zm4 0h-2v32h2zm4 0h-2v32h2zm-40-40h-2v32h2zm4 0h-2v32h2zm4 0h-2v32h2zm4 0h-2v32h2zm4 0h-2v32h2zm4 0h-2v32h2zm4 0h-2v32h2zm4 0h-2v32h2zm4 0h-2v32h2zm4 0h-2v32h2zm4 0h-2v32h2z" style="fill:#191919;fill-opacity:1;fill-rule:nonzero;stroke:none"/><path d="M136 124h-16v8h16z" style="fill:#4c4c4c;fill-opacity:1;fill-rule:nonzero;stroke:none"/><path d="M0 0h-160v76a8 8 0 0 0 8 8H-8a8 8 0 0 0 8-8z" style="fill:#333;fill-opacity:1;fill-rule:nonzero;stroke:none" transform="translate(208 36)"/><path d="M0 0h-6a1 1 0 0 0-1 1v6a1 1 0 0 0 1 1h6a1 1 0 0 0 1-1V1a1 1 0 0 0-1-1" style="fill:#666;fill-opacity:1;fill-rule:nonzero;stroke:none" transform="translate(75 96)"/><path d="M0 0h-6a1 1 0 0 0-1 1v6a1 1 0 0 0 1 1h6a1 1 0 0 0 1-1V1a1 1 0 0 0-1-1" style="fill:#666;fill-opacity:1;fill-rule:nonzero;stroke:none" transform="translate(87 96)"/><path d="M0 0h-6a1 1 0 0 0-1 1v6a1 1 0 0 0 1 1h6a1 1 0 0 0 1-1V1a1 1 0 0 0-1-1" style="fill:#666;fill-opacity:1;fill-rule:nonzero;stroke:none" transform="translate(99 96)"/><path d="M0 0h-6a1 1 0 0 0-1 1v6a1 1 0 0 0 1 1h6a1 1 0 0 0 1-1V1a1 1 0 0 0-1-1" style="fill:#666;fill-opacity:1;fill-rule:nonzero;stroke:none" transform="translate(111 96)"/><path d="M0 0h-6a1 1 0 0 0-1 1v6a1 1 0 0 0 1 1h6a1 1 0 0 0 1-1V1a1 1 0 0 0-1-1" style="fill:#666;fill-opacity:1;fill-rule:nonzero;stroke:none" transform="translate(119 84)"/><path d="M0 0h-6a1 1 0 0 0-1 1v6a1 1 0 0 0 1 1h6a1 1 0 0 0 1-1V1a1 1 0 0 0-1-1" style="fill:#666;fill-opacity:1;fill-rule:nonzero;stroke:none" transform="translate(127 72)"/><path d="M0 0h-6a1 1 0 0 0-1 1v6a1 1 0 0 0 1 1h6a1 1 0 0 0 1-1V1a1 1 0 0 0-1-1" style="fill:#666;fill-opacity:1;fill-rule:nonzero;stroke:none" transform="translate(123 96)"/><path d="M0 0h-6a1 1 0 0 0-1 1v6a1 1 0 0 0 1 1h6a1 1 0 0 0 1-1V1a1 1 0 0 0-1-1" style="fill:#666;fill-opacity:1;fill-rule:nonzero;stroke:none" transform="translate(135 96)"/><path d="M0 0h-6a1 1 0 0 0-1 1v6a1 1 0 0 0 1 1h6a1 1 0 0 0 1-1V1a1 1 0 0 0-1-1" style="fill:#666;fill-opacity:1;fill-rule:nonzero;stroke:none" transform="translate(147 96)"/><path d="M0 0h-6a1 1 0 0 0-1 1v6a1 1 0 0 0 1 1h6a1 1 0 0 0 1-1V1a1 1 0 0 0-1-1" style="fill:#666;fill-opacity:1;fill-rule:nonzero;stroke:none" transform="translate(159 96)"/><path d="M0 0h-6a1 1 0 0 0-1 1v6a1 1 0 0 0 1 1h6a1 1 0 0 0 1-1V1a1 1 0 0 0-1-1" style="fill:#666;fill-opacity:1;fill-rule:nonzero;stroke:none" transform="translate(171 96)"/><path d="M0 0h-6a1 1 0 0 0-1 1v6a1 1 0 0 0 1 1h6a1 1 0 0 0 1-1V1a1 1 0 0 0-1-1" style="fill:#666;fill-opacity:1;fill-rule:nonzero;stroke:none" transform="translate(83 84)"/><path d="M0 0h-6a1 1 0 0 0-1 1v6a1 1 0 0 0 1 1h6a1 1 0 0 0 1-1V1a1 1 0 0 0-1-1" style="fill:#666;fill-opacity:1;fill-rule:nonzero;stroke:none" transform="translate(95 84)"/><path d="M0 0h-6a1 1 0 0 0-1 1v6a1 1 0 0 0 1 1h6a1 1 0 0 0 1-1V1a1 1 0 0 0-1-1" style="fill:#666;fill-opacity:1;fill-rule:nonzero;stroke:none" transform="translate(107 84)"/><path d="M0 0h-6a1 1 0 0 0-1 1v6a1 1 0 0 0 1 1h6a1 1 0 0 0 1-1V1a1 1 0 0 0-1-1" style="fill:#666;fill-opacity:1;fill-rule:nonzero;stroke:none" transform="translate(131 84)"/><path d="M0 0h-6a1 1 0 0 0-1 1v6a1 1 0 0 0 1 1h6a1 1 0 0 0 1-1V1a1 1 0 0 0-1-1" style="fill:#666;fill-opacity:1;fill-rule:nonzero;stroke:none" transform="translate(143 84)"/><path d="M0 0h-6a1 1 0 0 0-1 1v6a1 1 0 0 0 1 1h6a1 1 0 0 0 1-1V1a1 1 0 0 0-1-1" style="fill:#666;fill-opacity:1;fill-rule:nonzero;stroke:none" transform="translate(155 84)"/><path d="M0 0h-6a1 1 0 0 0-1 1v6a1 1 0 0 0 1 1h6a1 1 0 0 0 1-1V1a1 1 0 0 0-1-1" style="fill:#666;fill-opacity:1;fill-rule:nonzero;stroke:none" transform="translate(167 84)"/><path d="M0 0h-6a1 1 0 0 0-1 1v6a1 1 0 0 0 1 1h6a1 1 0 0 0 1-1V1a1 1 0 0 0-1-1" style="fill:#666;fill-opacity:1;fill-rule:nonzero;stroke:none" transform="translate(179 84)"/><path d="M0 0h-6a1 1 0 0 0-1 1v6a1 1 0 0 0 1 1h6a1 1 0 0 0 1-1V1a1 1 0 0 0-1-1" style="fill:#666;fill-opacity:1;fill-rule:nonzero;stroke:none" transform="translate(91 72)"/><path d="M0 0h-6a1 1 0 0 0-1 1v6a1 1 0 0 0 1 1h6a1 1 0 0 0 1-1V1a1 1 0 0 0-1-1" style="fill:#666;fill-opacity:1;fill-rule:nonzero;stroke:none" transform="translate(103 72)"/><path d="M0 0h-6a1 1 0 0 0-1 1v6a1 1 0 0 0 1 1h6a1 1 0 0 0 1-1V1a1 1 0 0 0-1-1" style="fill:#666;fill-opacity:1;fill-rule:nonzero;stroke:none" transform="translate(115 72)"/><path d="M0 0h-6a1 1 0 0 0-1 1v6a1 1 0 0 0 1 1h6a1 1 0 0 0 1-1V1a1 1 0 0 0-1-1" style="fill:#666;fill-opacity:1;fill-rule:nonzero;stroke:none" transform="translate(139 72)"/><path d="M0 0h-6a1 1 0 0 0-1 1v6a1 1 0 0 0 1 1h6a1 1 0 0 0 1-1V1a1 1 0 0 0-1-1" style="fill:#666;fill-opacity:1;fill-rule:nonzero;stroke:none" transform="translate(151 72)"/><path d="M0 0h-6a1 1 0 0 0-1 1v6a1 1 0 0 0 1 1h6a1 1 0 0 0 1-1V1a1 1 0 0 0-1-1" style="fill:#3096cf;fill-opacity:1;fill-rule:nonzero;stroke:none" transform="translate(135 60)"/><path d="M0 0h-6a1 1 0 0 0-1 1v6a1 1 0 0 0 1 1h6a1 1 0 0 0 1-1V1a1 1 0 0 0-1-1" style="fill:#666;fill-opacity:1;fill-rule:nonzero;stroke:none" transform="translate(99 60)"/><path d="M0 0h-6a1 1 0 0 0-1 1v6a1 1 0 0 0 1 1h6a1 1 0 0 0 1-1V1a1 1 0 0 0-1-1" style="fill:#b80000;fill-opacity:1;fill-rule:nonzero;stroke:none" transform="translate(75 48)"/><path d="M0 0h-6a1 1 0 0 0-1 1v6a1 1 0 0 0 1 1h6a1 1 0 0 0 1-1V1a1 1 0 0 0-1-1" style="fill:#3096cf;fill-opacity:1;fill-rule:nonzero;stroke:none" transform="translate(111 60)"/><path d="M0 0h-6a1 1 0 0 0-1 1v6a1 1 0 0 0 1 1h6a1 1 0 0 0 1-1V1a1 1 0 0 0-1-1" style="fill:#3096cf;fill-opacity:1;fill-rule:nonzero;stroke:none" transform="translate(123 60)"/><path d="M0 0h-16.838c-.873 0-1.581.708-1.581 1.581v4.838c0 .873.708 1.581 1.581 1.581H0c.873 0 1.581-.708 1.581-1.581V1.581C1.581.708.873 0 0 0" style="fill:#3096cf;fill-opacity:1;fill-rule:nonzero;stroke:none" transform="translate(130.419 48)"/><path d="M0 0h-6a1 1 0 0 0-1 1v6a1 1 0 0 0 1 1h6a1 1 0 0 0 1-1V1a1 1 0 0 0-1-1" style="fill:#3096cf;fill-opacity:1;fill-rule:nonzero;stroke:none" transform="translate(147 60)"/><path d="M0 0h-6a1 1 0 0 0-1 1v6a1 1 0 0 0 1 1h6a1 1 0 0 0 1-1V1a1 1 0 0 0-1-1" style="fill:#666;fill-opacity:1;fill-rule:nonzero;stroke:none" transform="translate(163 72)"/><path d="M0 0h-16.838c-.873 0-1.581.708-1.581 1.581v4.838c0 .873.708 1.581 1.581 1.581H0c.873 0 1.581-.708 1.581-1.581V1.581C1.581.708.873 0 0 0" style="fill:#3096cf;fill-opacity:1;fill-rule:nonzero;stroke:none" transform="translate(186.419 72)"/></g></svg>