<?xml version="1.0" encoding="UTF-8" standalone="no"?>
<svg
   xmlns:dc="http://purl.org/dc/elements/1.1/"
   xmlns:cc="http://creativecommons.org/ns#"
   xmlns:rdf="http://www.w3.org/1999/02/22-rdf-syntax-ns#"
   xmlns:svg="http://www.w3.org/2000/svg"
   xmlns="http://www.w3.org/2000/svg"
   viewBox="0 0 331.63998 298.66653"
   height="298.66653"
   width="331.63998"
   xml:space="preserve"
   id="svg2"
   version="1.1"><metadata
     id="metadata8"><rdf:RDF><cc:Work
         rdf:about=""><dc:format>image/svg+xml</dc:format><dc:type
           rdf:resource="http://purl.org/dc/dcmitype/StillImage" /></cc:Work></rdf:RDF></metadata><defs
     id="defs6"><clipPath
       id="clipPath18"
       clipPathUnits="userSpaceOnUse"><path
         id="path16"
         d="M 0,256 H 256 V 0 H 0 Z" /></clipPath><clipPath
       id="clipPath26"
       clipPathUnits="userSpaceOnUse"><path
         id="path24"
         d="M 3.63501,240 H 252.365 V 16 H 3.63501 Z" /></clipPath></defs><g
     transform="matrix(1.3333333,0,0,-1.3333333,-4.8466799,319.99999)"
     id="g10"><g
       id="g12"><g
         clip-path="url(#clipPath18)"
         id="g14"><g
           id="g20"><g
             id="g22" /><g
             id="g34"><g
               style="opacity:0.5"
               id="g32"
               clip-path="url(#clipPath26)"><g
                 id="g30"
                 transform="translate(251.5635,202.8091)"><path
                   id="path28"
                   style="fill:#ffffff;fill-opacity:1;fill-rule:nonzero;stroke:none"
                   d="m 0,0 -11.027,29.404 c -1.746,4.658 -6.262,7.787 -11.236,7.787 h -202.456 c -4.974,0 -9.489,-3.129 -11.236,-7.787 L -246.981,0 l -0.948,-2.525 0.775,-2.583 11.663,-38.875 v -130.826 c 0,-6.617 5.383,-12 12,-12 h 204 c 6.617,0 12,5.383 12,12 v 131.208 l 7.845,39.223 0.448,2.239 z" /></g></g></g></g><g
           transform="translate(244,200)"
           id="g36"><path
             id="path38"
             style="fill:#262626;fill-opacity:1;fill-rule:nonzero;stroke:none"
             d="m 0,0 h -232 l 11.027,29.404 c 0.585,1.562 2.077,2.596 3.745,2.596 h 202.456 c 1.668,0 3.16,-1.034 3.746,-2.596 z" /></g><g
           transform="translate(232,24)"
           id="g40"><path
             id="path42"
             style="fill:#cccccc;fill-opacity:1;fill-rule:nonzero;stroke:none"
             d="m 0,0 h -204 c -2.209,0 -4,1.791 -4,4 V 136 H 4 V 4 C 4,1.791 2.209,0 0,0" /></g><g
           transform="translate(236,160)"
           id="g44"><path
             id="path46"
             style="fill:#e6e6e6;fill-opacity:1;fill-rule:nonzero;stroke:none"
             d="m 0,0 h -212 l -12,40 H 8 Z" /></g><g
           transform="translate(220,36)"
           id="g48"><path
             id="path50"
             style="fill:#404040;fill-opacity:1;fill-rule:nonzero;stroke:none"
             d="m 0,0 h -144 c -2.209,0 -4,1.791 -4,4 v 100 c 0,2.209 1.791,4 4,4 H 0 c 2.209,0 4,-1.791 4,-4 V 4 C 4,1.791 2.209,0 0,0" /></g><g
           transform="translate(220,164)"
           id="g52"><path
             id="path54"
             style="fill:#404040;fill-opacity:1;fill-rule:nonzero;stroke:none"
             d="m 0,0 h -144 c -2.209,0 -4,1.791 -4,4 l -3.348,23.434 c -0.344,2.41 1.526,4.566 3.96,4.566 H 3.388 c 2.434,0 4.304,-2.156 3.96,-4.566 L 4,4 C 4,1.791 2.209,0 0,0" /></g><path
           id="path56"
           style="fill:#cccccc;fill-opacity:1;fill-rule:nonzero;stroke:none"
           d="M 88,132 H 76 v 8 h 12 z" /><path
           id="path58"
           style="fill:#cccccc;fill-opacity:1;fill-rule:nonzero;stroke:none"
           d="M 104,132 H 92 v 8 h 12 z" /><path
           id="path60"
           style="fill:#cccccc;fill-opacity:1;fill-rule:nonzero;stroke:none"
           d="m 120,132 h -12 v 8 h 12 z" /><path
           id="path62"
           style="fill:#cccccc;fill-opacity:1;fill-rule:nonzero;stroke:none"
           d="m 136,132 h -12 v 8 h 12 z" /><path
           id="path64"
           style="fill:#cccccc;fill-opacity:1;fill-rule:nonzero;stroke:none"
           d="m 152,132 h -12 v 8 h 12 z" /><path
           id="path66"
           style="fill:#cccccc;fill-opacity:1;fill-rule:nonzero;stroke:none"
           d="m 168,132 h -12 v 8 h 12 z" /><path
           id="path68"
           style="fill:#cccccc;fill-opacity:1;fill-rule:nonzero;stroke:none"
           d="m 184,132 h -12 v 8 h 12 z" /><path
           id="path70"
           style="fill:#cccccc;fill-opacity:1;fill-rule:nonzero;stroke:none"
           d="m 200,132 h -12 v 8 h 12 z" /><path
           id="path72"
           style="fill:#cccccc;fill-opacity:1;fill-rule:nonzero;stroke:none"
           d="m 216,132 h -12 v 8 h 12 z" /><path
           id="path74"
           style="fill:#cccccc;fill-opacity:1;fill-rule:nonzero;stroke:none"
           d="M 88,116 H 76 v 8 h 12 z" /><path
           id="path76"
           style="fill:#cccccc;fill-opacity:1;fill-rule:nonzero;stroke:none"
           d="M 104,116 H 92 v 8 h 12 z" /><path
           id="path78"
           style="fill:#cccccc;fill-opacity:1;fill-rule:nonzero;stroke:none"
           d="m 120,116 h -12 v 8 h 12 z" /><path
           id="path80"
           style="fill:#cccccc;fill-opacity:1;fill-rule:nonzero;stroke:none"
           d="m 136,116 h -12 v 8 h 12 z" /><path
           id="path82"
           style="fill:#cccccc;fill-opacity:1;fill-rule:nonzero;stroke:none"
           d="m 152,116 h -12 v 8 h 12 z" /><path
           id="path84"
           style="fill:#cccccc;fill-opacity:1;fill-rule:nonzero;stroke:none"
           d="m 168,116 h -12 v 8 h 12 z" /><path
           id="path86"
           style="fill:#cccccc;fill-opacity:1;fill-rule:nonzero;stroke:none"
           d="m 184,116 h -12 v 8 h 12 z" /><path
           id="path88"
           style="fill:#cccccc;fill-opacity:1;fill-rule:nonzero;stroke:none"
           d="m 200,116 h -12 v 8 h 12 z" /><path
           id="path90"
           style="fill:#cccccc;fill-opacity:1;fill-rule:nonzero;stroke:none"
           d="m 216,116 h -12 v 8 h 12 z" /><path
           id="path92"
           style="fill:#cccccc;fill-opacity:1;fill-rule:nonzero;stroke:none"
           d="M 88,92 H 76 v 8 h 12 z" /><path
           id="path94"
           style="fill:#cccccc;fill-opacity:1;fill-rule:nonzero;stroke:none"
           d="M 104,92 H 92 v 8 h 12 z" /><path
           id="path96"
           style="fill:#cccccc;fill-opacity:1;fill-rule:nonzero;stroke:none"
           d="m 120,92 h -12 v 8 h 12 z" /><path
           id="path98"
           style="fill:#cccccc;fill-opacity:1;fill-rule:nonzero;stroke:none"
           d="m 136,92 h -12 v 8 h 12 z" /><path
           id="path100"
           style="fill:#cccccc;fill-opacity:1;fill-rule:nonzero;stroke:none"
           d="m 152,92 h -12 v 8 h 12 z" /><path
           id="path102"
           style="fill:#cccccc;fill-opacity:1;fill-rule:nonzero;stroke:none"
           d="m 168,92 h -12 v 8 h 12 z" /><path
           id="path104"
           style="fill:#cccccc;fill-opacity:1;fill-rule:nonzero;stroke:none"
           d="m 184,92 h -12 v 8 h 12 z" /><path
           id="path106"
           style="fill:#cccccc;fill-opacity:1;fill-rule:nonzero;stroke:none"
           d="m 200,92 h -12 v 8 h 12 z" /><path
           id="path108"
           style="fill:#cccccc;fill-opacity:1;fill-rule:nonzero;stroke:none"
           d="m 216,92 h -12 v 8 h 12 z" /><path
           id="path110"
           style="fill:#cccccc;fill-opacity:1;fill-rule:nonzero;stroke:none"
           d="M 88,60 H 76 v 8 h 12 z" /><path
           id="path112"
           style="fill:#cccccc;fill-opacity:1;fill-rule:nonzero;stroke:none"
           d="M 104,60 H 92 v 8 h 12 z" /><path
           id="path114"
           style="fill:#cccccc;fill-opacity:1;fill-rule:nonzero;stroke:none"
           d="m 120,60 h -12 v 8 h 12 z" /><path
           id="path116"
           style="fill:#cccccc;fill-opacity:1;fill-rule:nonzero;stroke:none"
           d="m 136,60 h -12 v 8 h 12 z" /><path
           id="path118"
           style="fill:#cccccc;fill-opacity:1;fill-rule:nonzero;stroke:none"
           d="m 152,60 h -12 v 8 h 12 z" /><path
           id="path120"
           style="fill:#cccccc;fill-opacity:1;fill-rule:nonzero;stroke:none"
           d="m 168,60 h -12 v 8 h 12 z" /><path
           id="path122"
           style="fill:#cccccc;fill-opacity:1;fill-rule:nonzero;stroke:none"
           d="m 184,60 h -12 v 8 h 12 z" /><path
           id="path124"
           style="fill:#cccccc;fill-opacity:1;fill-rule:nonzero;stroke:none"
           d="m 200,60 h -12 v 8 h 12 z" /><path
           id="path126"
           style="fill:#cccccc;fill-opacity:1;fill-rule:nonzero;stroke:none"
           d="m 216,60 h -12 v 8 h 12 z" /><path
           id="path128"
           style="fill:#cccccc;fill-opacity:1;fill-rule:nonzero;stroke:none"
           d="M 96,76 H 84 v 8 h 12 z" /><path
           id="path130"
           style="fill:#cccccc;fill-opacity:1;fill-rule:nonzero;stroke:none"
           d="m 112,76 h -12 v 8 h 12 z" /><path
           id="path132"
           style="fill:#cccccc;fill-opacity:1;fill-rule:nonzero;stroke:none"
           d="m 128,76 h -12 v 8 h 12 z" /><path
           id="path134"
           style="fill:#cccccc;fill-opacity:1;fill-rule:nonzero;stroke:none"
           d="m 144,76 h -12 v 8 h 12 z" /><path
           id="path136"
           style="fill:#cccccc;fill-opacity:1;fill-rule:nonzero;stroke:none"
           d="m 160,76 h -12 v 8 h 12 z" /><path
           id="path138"
           style="fill:#cccccc;fill-opacity:1;fill-rule:nonzero;stroke:none"
           d="m 176,76 h -12 v 8 h 12 z" /><path
           id="path140"
           style="fill:#cccccc;fill-opacity:1;fill-rule:nonzero;stroke:none"
           d="m 192,76 h -12 v 8 h 12 z" /><path
           id="path142"
           style="fill:#cccccc;fill-opacity:1;fill-rule:nonzero;stroke:none"
           d="m 208,76 h -12 v 8 h 12 z" /><path
           id="path144"
           style="fill:#cccccc;fill-opacity:1;fill-rule:nonzero;stroke:none"
           d="m 176,44 h -60 v 8 h 60 z" /><g
           transform="translate(164,172)"
           id="g146"><path
             id="path148"
             style="fill:#262626;fill-opacity:1;fill-rule:nonzero;stroke:none"
             d="m 0,0 h -64 l -4,16 H 4 Z" /></g><path
           id="path150"
           style="fill:#666666;fill-opacity:1;fill-rule:nonzero;stroke:none"
           d="m 112,44 h -4 v 8 h 4 z" /><path
           id="path152"
           style="fill:#666666;fill-opacity:1;fill-rule:nonzero;stroke:none"
           d="m 104,44 h -4 v 8 h 4 z" /><path
           id="path154"
           style="fill:#666666;fill-opacity:1;fill-rule:nonzero;stroke:none"
           d="m 96,44 h -4 v 8 h 4 z" /><path
           id="path156"
           style="fill:#666666;fill-opacity:1;fill-rule:nonzero;stroke:none"
           d="m 88,44 h -4 v 8 h 4 z" /><path
           id="path158"
           style="fill:#666666;fill-opacity:1;fill-rule:nonzero;stroke:none"
           d="m 80,44 h -4 v 8 h 4 z" /><path
           id="path160"
           style="fill:#666666;fill-opacity:1;fill-rule:nonzero;stroke:none"
           d="m 216,44 h -4 v 8 h 4 z" /><path
           id="path162"
           style="fill:#666666;fill-opacity:1;fill-rule:nonzero;stroke:none"
           d="m 208,44 h -4 v 8 h 4 z" /><path
           id="path164"
           style="fill:#666666;fill-opacity:1;fill-rule:nonzero;stroke:none"
           d="m 200,44 h -4 v 8 h 4 z" /><path
           id="path166"
           style="fill:#666666;fill-opacity:1;fill-rule:nonzero;stroke:none"
           d="m 192,44 h -4 v 8 h 4 z" /><path
           id="path168"
           style="fill:#666666;fill-opacity:1;fill-rule:nonzero;stroke:none"
           d="m 184,44 h -4 v 8 h 4 z" /><g
           transform="translate(96,172)"
           id="g170"><path
             id="path172"
             style="fill:#666666;fill-opacity:1;fill-rule:nonzero;stroke:none"
             d="m 0,0 h -4 l -4,16 h 4 z" /></g><g
           transform="translate(88,172)"
           id="g174"><path
             id="path176"
             style="fill:#666666;fill-opacity:1;fill-rule:nonzero;stroke:none"
             d="m 0,0 h -4 l -4,16 h 4 z" /></g><g
           transform="translate(80,172)"
           id="g178"><path
             id="path180"
             style="fill:#666666;fill-opacity:1;fill-rule:nonzero;stroke:none"
             d="m 0,0 h -4 l -4,16 h 4 z" /></g><g
           transform="translate(172,172)"
           id="g182"><path
             id="path184"
             style="fill:#666666;fill-opacity:1;fill-rule:nonzero;stroke:none"
             d="M 0,0 H -4 L 0,16 H 4 Z" /></g><g
           transform="translate(180,172)"
           id="g186"><path
             id="path188"
             style="fill:#666666;fill-opacity:1;fill-rule:nonzero;stroke:none"
             d="M 0,0 H -4 L 0,16 H 4 Z" /></g><g
           transform="translate(189,176)"
           id="g190"><path
             id="path192"
             style="fill:#ed1c24;fill-opacity:1;fill-rule:nonzero;stroke:none"
             d="m 0,0 h 12 l 2,8 H 2 Z" /></g><g
           transform="translate(221,176)"
           id="g194"><path
             id="path196"
             style="fill:#666666;fill-opacity:1;fill-rule:nonzero;stroke:none"
             d="M 0,0 2,8 H -2 L -4,0 Z" /></g><g
           transform="translate(213,176)"
           id="g198"><path
             id="path200"
             style="fill:#666666;fill-opacity:1;fill-rule:nonzero;stroke:none"
             d="M 0,0 2,8 H -2 L -4,0 Z" /></g><g
           transform="translate(205,176)"
           id="g202"><path
             id="path204"
             style="fill:#666666;fill-opacity:1;fill-rule:nonzero;stroke:none"
             d="M 0,0 2,8 H -2 L -4,0 Z" /></g><g
           transform="translate(189,176)"
           id="g206"><path
             id="path208"
             style="fill:#666666;fill-opacity:1;fill-rule:nonzero;stroke:none"
             d="M 0,0 2,8 H -2 L -4,0 Z" /></g><g
           transform="translate(44,228)"
           id="g210"><path
             id="path212"
             style="fill:#191919;fill-opacity:1;fill-rule:nonzero;stroke:none"
             d="m 0,0 h -4 l -4,-12 h 4.178 z M 8,0 H 4 L 0.355,-12 h 4.178 z m 8,0 H 12 L 8.711,-12 h 4.178 z m 8,0 h -4 l -2.933,-12 h 4.178 z m 8,0 H 28 L 25.422,-12 H 29.6 Z m 8,0 h -4 l -2.222,-12 h 4.178 z m 8,0 h -4 l -1.867,-12 h 4.178 z m 8,0 h -4 l -1.511,-12 h 4.178 z m 8,0 h -4 l -1.156,-12 h 4.178 z m 8,0 h -4 l -0.8,-12 h 4.178 z m 8,0 h -4 l -0.444,-12 h 4.177 z m 96,0 h -4 l 3.822,-12 H 180 Z m -8,0 h -4 l 3.467,-12 h 4.178 z m -8,0 h -4 l 3.111,-12 h 4.178 z m -8,0 h -4 l 2.756,-12 h 4.178 z m -8,0 h -4 l 2.4,-12 h 4.178 z m -8,0 h -4 l 2.045,-12 h 4.178 z m -8,0 h -4 l 1.688,-12 h 4.178 z m -8,0 h -4 l 1.333,-12 h 4.178 z m -8,0 h -4 l 0.978,-12 h 4.177 z m -8,0 h -4 l 0.622,-12 h 4.178 z m -8,0 h -4 l 0.267,-12 h 4.177 z M 88.089,-12 H 83.911 L 84,0 h 4 z" /></g></g></g></g></svg>