<?xml version="1.0" encoding="UTF-8" standalone="no"?>
<svg
   xmlns:dc="http://purl.org/dc/elements/1.1/"
   xmlns:cc="http://creativecommons.org/ns#"
   xmlns:rdf="http://www.w3.org/1999/02/22-rdf-syntax-ns#"
   xmlns:svg="http://www.w3.org/2000/svg"
   xmlns="http://www.w3.org/2000/svg"
   viewBox="0 0 330.66638 245.33305"
   height="245.33305"
   width="330.66638"
   xml:space="preserve"
   id="svg2"
   version="1.1"><metadata
     id="metadata8"><rdf:RDF><cc:Work
         rdf:about=""><dc:format>image/svg+xml</dc:format><dc:type
           rdf:resource="http://purl.org/dc/dcmitype/StillImage" /></cc:Work></rdf:RDF></metadata><defs
     id="defs6"><clipPath
       id="clipPath18"
       clipPathUnits="userSpaceOnUse"><path
         id="path16"
         d="M 0,256 H 256 V 0 H 0 Z" /></clipPath><clipPath
       id="clipPath26"
       clipPathUnits="userSpaceOnUse"><path
         id="path24"
         d="M 4,220 H 252 V 36 H 4 Z" /></clipPath><clipPath
       id="clipPath62"
       clipPathUnits="userSpaceOnUse"><path
         id="path60"
         d="M 0,256 H 256 V 0 H 0 Z" /></clipPath></defs><g
     transform="matrix(1.3333333,0,0,-1.3333333,-5.3333332,293.33306)"
     id="g10"><g
       id="g12"><g
         clip-path="url(#clipPath18)"
         id="g14"><g
           id="g20"><g
             id="g22" /><g
             id="g34"><g
               style="opacity:0.5"
               id="g32"
               clip-path="url(#clipPath26)"><g
                 id="g30"
                 transform="translate(251.5898,202.5298)"><path
                   id="path28"
                   style="fill:#ffffff;fill-opacity:1;fill-rule:nonzero;stroke:none"
                   d="m 0,0 -4,12 -1.824,5.47 h -5.766 -224 -5.766 l -1.823,-5.47 -4,-12 -0.411,-1.231 v -1.299 -24 -0.792 l 0.155,-0.777 3.845,-19.223 v -15.208 -4 -4 -4 -12 -4 -60 -4 c 0,-6.617 5.383,-12 12,-12 h 216 c 6.617,0 12,5.383 12,12 v 4 60 4 12 4 4 4 15.208 l 3.845,19.223 0.155,0.777 v 0.792 24 1.299 z" /></g></g></g></g></g></g><g
       transform="translate(244,200)"
       id="g36"><path
         id="path38"
         style="fill:#666666;fill-opacity:1;fill-rule:nonzero;stroke:none"
         d="m 0,0 h -232 l 4,12 H -4 Z" /></g><path
       id="path40"
       style="fill:#666666;fill-opacity:1;fill-rule:nonzero;stroke:none"
       d="M 240,128 H 16 v 12 h 224 z" /><path
       id="path42"
       style="fill:#808080;fill-opacity:1;fill-rule:nonzero;stroke:none"
       d="M 240,136 H 16 v 24 h 224 z" /><g
       transform="translate(240,156)"
       id="g44"><path
         id="path46"
         style="fill:#737373;fill-opacity:1;fill-rule:nonzero;stroke:none"
         d="m 0,0 h -224 l -4,20 4,4 H 0 l 4,-4 z" /></g><path
       id="path48"
       style="fill:#808080;fill-opacity:1;fill-rule:nonzero;stroke:none"
       d="M 244,176 H 12 v 24 h 232 z" /><path
       id="path50"
       style="fill:#999999;fill-opacity:1;fill-rule:nonzero;stroke:none"
       d="M 164,176 H 96 v 24 h 68 z" /><g
       transform="translate(160,156)"
       id="g52"><path
         id="path54"
         style="fill:#8c8c8c;fill-opacity:1;fill-rule:nonzero;stroke:none"
         d="m 0,0 h -60 l -4,20 H 4 Z" /></g><g
       id="g56"><g
         clip-path="url(#clipPath62)"
         id="g58"><g
           transform="translate(157,172)"
           id="g64"><path
             id="path66"
             style="fill:#191919;fill-opacity:1;fill-rule:nonzero;stroke:none"
             d="m 0,0 h -54 c -1.657,0 -3,1.343 -3,3 v 14 c 0,1.657 1.343,3 3,3 H 0 c 1.657,0 3,-1.343 3,-3 V 3 C 3,1.343 1.657,0 0,0" /></g><g
           transform="translate(20,176)"
           id="g68"><path
             id="path70"
             style="fill:#b80000;fill-opacity:1;fill-rule:nonzero;stroke:none"
             d="M 0,0 4,-12 H 24 L 20,0 Z" /></g><path
           id="path72"
           style="fill:#ff0000;fill-opacity:1;fill-rule:nonzero;stroke:none"
           d="M 40,176 H 20 v 12 h 20 z" /><g
           transform="translate(34,182)"
           id="g74"><path
             id="path76"
             style="fill:#b80000;fill-opacity:1;fill-rule:nonzero;stroke:none"
             d="m 0,0 c 0,-2.209 -1.791,-4 -4,-4 -2.209,0 -4,1.791 -4,4 0,2.209 1.791,4 4,4 2.209,0 4,-1.791 4,-4" /></g><g
           transform="translate(236,44)"
           id="g78"><path
             id="path80"
             style="fill:#8c8c8c;fill-opacity:1;fill-rule:nonzero;stroke:none"
             d="m 0,0 h -216 c -2.209,0 -4,1.791 -4,4 V 72 H 4 V 4 C 4,1.791 2.209,0 0,0" /></g><path
           id="path82"
           style="fill:#808080;fill-opacity:1;fill-rule:nonzero;stroke:none"
           d="M 240,112 H 16 v 20 h 224 z" /><path
           id="path84"
           style="fill:#8c8c8c;fill-opacity:1;fill-rule:nonzero;stroke:none"
           d="M 96,132 H 24 v 4 h 72 z" /><path
           id="path86"
           style="fill:#8c8c8c;fill-opacity:1;fill-rule:nonzero;stroke:none"
           d="m 232,132 h -68 v 4 h 68 z" /><g
           transform="translate(200,112)"
           id="g88"><path
             id="path90"
             style="fill:#212a2c;fill-opacity:1;fill-rule:nonzero;stroke:none"
             d="m 0,0 h -144 v -4 h -4 v -48.267 c 0,-2.061 1.791,-3.733 4,-3.733 H 0 c 2.209,0 4,1.672 4,3.733 V -4 H 0 Z" /></g><g
           transform="translate(62,100)"
           id="g92"><path
             id="path94"
             style="fill:#d0d6d9;fill-opacity:1;fill-rule:nonzero;stroke:none"
             d="m 0,0 h -4 c -1.104,0 -2,0.896 -2,2 0,1.104 0.896,2 2,2 H 0 C 1.104,4 2,3.104 2,2 2,0.896 1.104,0 0,0" /></g><g
           transform="translate(74,100)"
           id="g96"><path
             id="path98"
             style="fill:#d0d6d9;fill-opacity:1;fill-rule:nonzero;stroke:none"
             d="m 0,0 h -4 c -1.104,0 -2,0.896 -2,2 0,1.104 0.896,2 2,2 H 0 C 1.104,4 2,3.104 2,2 2,0.896 1.104,0 0,0" /></g><g
           transform="translate(66,92)"
           id="g100"><path
             id="path102"
             style="fill:#d0d6d9;fill-opacity:1;fill-rule:nonzero;stroke:none"
             d="m 0,0 h -8 c -1.104,0 -2,0.896 -2,2 0,1.104 0.896,2 2,2 H 0 C 1.104,4 2,3.104 2,2 2,0.896 1.104,0 0,0" /></g><g
           transform="translate(82,92)"
           id="g104"><path
             id="path106"
             style="fill:#d0d6d9;fill-opacity:1;fill-rule:nonzero;stroke:none"
             d="m 0,0 h -8 c -1.104,0 -2,0.896 -2,2 0,1.104 0.896,2 2,2 H 0 C 1.104,4 2,3.104 2,2 2,0.896 1.104,0 0,0" /></g><g
           transform="translate(98,92)"
           id="g108"><path
             id="path110"
             style="fill:#d0d6d9;fill-opacity:1;fill-rule:nonzero;stroke:none"
             d="m 0,0 h -8 c -1.104,0 -2,0.896 -2,2 0,1.104 0.896,2 2,2 H 0 C 1.104,4 2,3.104 2,2 2,0.896 1.104,0 0,0" /></g><g
           transform="translate(114,92)"
           id="g112"><path
             id="path114"
             style="fill:#d0d6d9;fill-opacity:1;fill-rule:nonzero;stroke:none"
             d="m 0,0 h -8 c -1.104,0 -2,0.896 -2,2 0,1.104 0.896,2 2,2 H 0 C 1.104,4 2,3.104 2,2 2,0.896 1.104,0 0,0" /></g><g
           transform="translate(130,92)"
           id="g116"><path
             id="path118"
             style="fill:#d0d6d9;fill-opacity:1;fill-rule:nonzero;stroke:none"
             d="m 0,0 h -8 c -1.104,0 -2,0.896 -2,2 0,1.104 0.896,2 2,2 H 0 C 1.104,4 2,3.104 2,2 2,0.896 1.104,0 0,0" /></g><g
           transform="translate(146,92)"
           id="g120"><path
             id="path122"
             style="fill:#d0d6d9;fill-opacity:1;fill-rule:nonzero;stroke:none"
             d="m 0,0 h -8 c -1.104,0 -2,0.896 -2,2 0,1.104 0.896,2 2,2 H 0 C 1.104,4 2,3.104 2,2 2,0.896 1.104,0 0,0" /></g><g
           transform="translate(162,92)"
           id="g124"><path
             id="path126"
             style="fill:#d0d6d9;fill-opacity:1;fill-rule:nonzero;stroke:none"
             d="m 0,0 h -8 c -1.104,0 -2,0.896 -2,2 0,1.104 0.896,2 2,2 H 0 C 1.104,4 2,3.104 2,2 2,0.896 1.104,0 0,0" /></g><g
           transform="translate(178,92)"
           id="g128"><path
             id="path130"
             style="fill:#d0d6d9;fill-opacity:1;fill-rule:nonzero;stroke:none"
             d="m 0,0 h -8 c -1.104,0 -2,0.896 -2,2 0,1.104 0.896,2 2,2 H 0 C 1.104,4 2,3.104 2,2 2,0.896 1.104,0 0,0" /></g><g
           transform="translate(194,92)"
           id="g132"><path
             id="path134"
             style="fill:#d0d6d9;fill-opacity:1;fill-rule:nonzero;stroke:none"
             d="m 0,0 h -8 c -1.104,0 -2,0.896 -2,2 0,1.104 0.896,2 2,2 H 0 C 1.104,4 2,3.104 2,2 2,0.896 1.104,0 0,0" /></g><g
           transform="translate(66,84)"
           id="g136"><path
             id="path138"
             style="fill:#d0d6d9;fill-opacity:1;fill-rule:nonzero;stroke:none"
             d="m 0,0 h -8 c -1.104,0 -2,0.896 -2,2 0,1.104 0.896,2 2,2 H 0 C 1.104,4 2,3.104 2,2 2,0.896 1.104,0 0,0" /></g><g
           transform="translate(82,84)"
           id="g140"><path
             id="path142"
             style="fill:#d0d6d9;fill-opacity:1;fill-rule:nonzero;stroke:none"
             d="m 0,0 h -8 c -1.104,0 -2,0.896 -2,2 0,1.104 0.896,2 2,2 H 0 C 1.104,4 2,3.104 2,2 2,0.896 1.104,0 0,0" /></g><g
           transform="translate(98,84)"
           id="g144"><path
             id="path146"
             style="fill:#d0d6d9;fill-opacity:1;fill-rule:nonzero;stroke:none"
             d="m 0,0 h -8 c -1.104,0 -2,0.896 -2,2 0,1.104 0.896,2 2,2 H 0 C 1.104,4 2,3.104 2,2 2,0.896 1.104,0 0,0" /></g><g
           transform="translate(114,84)"
           id="g148"><path
             id="path150"
             style="fill:#d0d6d9;fill-opacity:1;fill-rule:nonzero;stroke:none"
             d="m 0,0 h -8 c -1.104,0 -2,0.896 -2,2 0,1.104 0.896,2 2,2 H 0 C 1.104,4 2,3.104 2,2 2,0.896 1.104,0 0,0" /></g><g
           transform="translate(130,84)"
           id="g152"><path
             id="path154"
             style="fill:#d0d6d9;fill-opacity:1;fill-rule:nonzero;stroke:none"
             d="m 0,0 h -8 c -1.104,0 -2,0.896 -2,2 0,1.104 0.896,2 2,2 H 0 C 1.104,4 2,3.104 2,2 2,0.896 1.104,0 0,0" /></g><g
           transform="translate(146,84)"
           id="g156"><path
             id="path158"
             style="fill:#d0d6d9;fill-opacity:1;fill-rule:nonzero;stroke:none"
             d="m 0,0 h -8 c -1.104,0 -2,0.896 -2,2 0,1.104 0.896,2 2,2 H 0 C 1.104,4 2,3.104 2,2 2,0.896 1.104,0 0,0" /></g><g
           transform="translate(162,84)"
           id="g160"><path
             id="path162"
             style="fill:#d0d6d9;fill-opacity:1;fill-rule:nonzero;stroke:none"
             d="m 0,0 h -8 c -1.104,0 -2,0.896 -2,2 0,1.104 0.896,2 2,2 H 0 C 1.104,4 2,3.104 2,2 2,0.896 1.104,0 0,0" /></g><g
           transform="translate(178,84)"
           id="g164"><path
             id="path166"
             style="fill:#d0d6d9;fill-opacity:1;fill-rule:nonzero;stroke:none"
             d="m 0,0 h -8 c -1.104,0 -2,0.896 -2,2 0,1.104 0.896,2 2,2 H 0 C 1.104,4 2,3.104 2,2 2,0.896 1.104,0 0,0" /></g><g
           transform="translate(194,84)"
           id="g168"><path
             id="path170"
             style="fill:#ff0000;fill-opacity:1;fill-rule:nonzero;stroke:none"
             d="m 0,0 h -8 c -1.104,0 -2,0.896 -2,2 0,1.104 0.896,2 2,2 H 0 C 1.104,4 2,3.104 2,2 2,0.896 1.104,0 0,0" /></g><g
           transform="translate(66,76)"
           id="g172"><path
             id="path174"
             style="fill:#d0d6d9;fill-opacity:1;fill-rule:nonzero;stroke:none"
             d="m 0,0 h -8 c -1.104,0 -2,0.896 -2,2 0,1.104 0.896,2 2,2 H 0 C 1.104,4 2,3.104 2,2 2,0.896 1.104,0 0,0" /></g><g
           transform="translate(82,76)"
           id="g176"><path
             id="path178"
             style="fill:#d0d6d9;fill-opacity:1;fill-rule:nonzero;stroke:none"
             d="m 0,0 h -8 c -1.104,0 -2,0.896 -2,2 0,1.104 0.896,2 2,2 H 0 C 1.104,4 2,3.104 2,2 2,0.896 1.104,0 0,0" /></g><g
           transform="translate(98,76)"
           id="g180"><path
             id="path182"
             style="fill:#d0d6d9;fill-opacity:1;fill-rule:nonzero;stroke:none"
             d="m 0,0 h -8 c -1.104,0 -2,0.896 -2,2 0,1.104 0.896,2 2,2 H 0 C 1.104,4 2,3.104 2,2 2,0.896 1.104,0 0,0" /></g><g
           transform="translate(114,76)"
           id="g184"><path
             id="path186"
             style="fill:#d0d6d9;fill-opacity:1;fill-rule:nonzero;stroke:none"
             d="m 0,0 h -8 c -1.104,0 -2,0.896 -2,2 0,1.104 0.896,2 2,2 H 0 C 1.104,4 2,3.104 2,2 2,0.896 1.104,0 0,0" /></g><g
           transform="translate(130,76)"
           id="g188"><path
             id="path190"
             style="fill:#d0d6d9;fill-opacity:1;fill-rule:nonzero;stroke:none"
             d="m 0,0 h -8 c -1.104,0 -2,0.896 -2,2 0,1.104 0.896,2 2,2 H 0 C 1.104,4 2,3.104 2,2 2,0.896 1.104,0 0,0" /></g><g
           transform="translate(146,76)"
           id="g192"><path
             id="path194"
             style="fill:#d0d6d9;fill-opacity:1;fill-rule:nonzero;stroke:none"
             d="m 0,0 h -8 c -1.104,0 -2,0.896 -2,2 0,1.104 0.896,2 2,2 H 0 C 1.104,4 2,3.104 2,2 2,0.896 1.104,0 0,0" /></g><g
           transform="translate(162,76)"
           id="g196"><path
             id="path198"
             style="fill:#d0d6d9;fill-opacity:1;fill-rule:nonzero;stroke:none"
             d="m 0,0 h -8 c -1.104,0 -2,0.896 -2,2 0,1.104 0.896,2 2,2 H 0 C 1.104,4 2,3.104 2,2 2,0.896 1.104,0 0,0" /></g><g
           transform="translate(178,76)"
           id="g200"><path
             id="path202"
             style="fill:#d0d6d9;fill-opacity:1;fill-rule:nonzero;stroke:none"
             d="m 0,0 h -8 c -1.104,0 -2,0.896 -2,2 0,1.104 0.896,2 2,2 H 0 C 1.104,4 2,3.104 2,2 2,0.896 1.104,0 0,0" /></g><g
           transform="translate(194,76)"
           id="g204"><path
             id="path206"
             style="fill:#d0d6d9;fill-opacity:1;fill-rule:nonzero;stroke:none"
             d="m 0,0 h -8 c -1.104,0 -2,0.896 -2,2 0,1.104 0.896,2 2,2 H 0 C 1.104,4 2,3.104 2,2 2,0.896 1.104,0 0,0" /></g><g
           transform="translate(66,60)"
           id="g208"><path
             id="path210"
             style="fill:#d0d6d9;fill-opacity:1;fill-rule:nonzero;stroke:none"
             d="m 0,0 h -8 c -1.104,0 -2,0.896 -2,2 0,1.104 0.896,2 2,2 H 0 C 1.104,4 2,3.104 2,2 2,0.896 1.104,0 0,0" /></g><g
           transform="translate(82,60)"
           id="g212"><path
             id="path214"
             style="fill:#d0d6d9;fill-opacity:1;fill-rule:nonzero;stroke:none"
             d="m 0,0 h -8 c -1.104,0 -2,0.896 -2,2 0,1.104 0.896,2 2,2 H 0 C 1.104,4 2,3.104 2,2 2,0.896 1.104,0 0,0" /></g><g
           transform="translate(98,60)"
           id="g216"><path
             id="path218"
             style="fill:#d0d6d9;fill-opacity:1;fill-rule:nonzero;stroke:none"
             d="m 0,0 h -8 c -1.104,0 -2,0.896 -2,2 0,1.104 0.896,2 2,2 H 0 C 1.104,4 2,3.104 2,2 2,0.896 1.104,0 0,0" /></g><g
           transform="translate(114,60)"
           id="g220"><path
             id="path222"
             style="fill:#d0d6d9;fill-opacity:1;fill-rule:nonzero;stroke:none"
             d="m 0,0 h -8 c -1.104,0 -2,0.896 -2,2 0,1.104 0.896,2 2,2 H 0 C 1.104,4 2,3.104 2,2 2,0.896 1.104,0 0,0" /></g><g
           transform="translate(130,60)"
           id="g224"><path
             id="path226"
             style="fill:#d0d6d9;fill-opacity:1;fill-rule:nonzero;stroke:none"
             d="m 0,0 h -8 c -1.104,0 -2,0.896 -2,2 0,1.104 0.896,2 2,2 H 0 C 1.104,4 2,3.104 2,2 2,0.896 1.104,0 0,0" /></g><g
           transform="translate(146,60)"
           id="g228"><path
             id="path230"
             style="fill:#d0d6d9;fill-opacity:1;fill-rule:nonzero;stroke:none"
             d="m 0,0 h -8 c -1.104,0 -2,0.896 -2,2 0,1.104 0.896,2 2,2 H 0 C 1.104,4 2,3.104 2,2 2,0.896 1.104,0 0,0" /></g><g
           transform="translate(162,60)"
           id="g232"><path
             id="path234"
             style="fill:#d0d6d9;fill-opacity:1;fill-rule:nonzero;stroke:none"
             d="m 0,0 h -8 c -1.104,0 -2,0.896 -2,2 0,1.104 0.896,2 2,2 H 0 C 1.104,4 2,3.104 2,2 2,0.896 1.104,0 0,0" /></g><g
           transform="translate(178,60)"
           id="g236"><path
             id="path238"
             style="fill:#d0d6d9;fill-opacity:1;fill-rule:nonzero;stroke:none"
             d="m 0,0 h -8 c -1.104,0 -2,0.896 -2,2 0,1.104 0.896,2 2,2 H 0 C 1.104,4 2,3.104 2,2 2,0.896 1.104,0 0,0" /></g><g
           transform="translate(194,60)"
           id="g240"><path
             id="path242"
             style="fill:#d0d6d9;fill-opacity:1;fill-rule:nonzero;stroke:none"
             d="m 0,0 h -8 c -1.104,0 -2,0.896 -2,2 0,1.104 0.896,2 2,2 H 0 C 1.104,4 2,3.104 2,2 2,0.896 1.104,0 0,0" /></g><g
           transform="translate(74,68)"
           id="g244"><path
             id="path246"
             style="fill:#d0d6d9;fill-opacity:1;fill-rule:nonzero;stroke:none"
             d="m 0,0 h -8 c -1.104,0 -2,0.896 -2,2 0,1.104 0.896,2 2,2 H 0 C 1.104,4 2,3.104 2,2 2,0.896 1.104,0 0,0" /></g><g
           transform="translate(90,68)"
           id="g248"><path
             id="path250"
             style="fill:#d0d6d9;fill-opacity:1;fill-rule:nonzero;stroke:none"
             d="m 0,0 h -8 c -1.104,0 -2,0.896 -2,2 0,1.104 0.896,2 2,2 H 0 C 1.104,4 2,3.104 2,2 2,0.896 1.104,0 0,0" /></g><g
           transform="translate(106,68)"
           id="g252"><path
             id="path254"
             style="fill:#d0d6d9;fill-opacity:1;fill-rule:nonzero;stroke:none"
             d="m 0,0 h -8 c -1.104,0 -2,0.896 -2,2 0,1.104 0.896,2 2,2 H 0 C 1.104,4 2,3.104 2,2 2,0.896 1.104,0 0,0" /></g><g
           transform="translate(122,68)"
           id="g256"><path
             id="path258"
             style="fill:#d0d6d9;fill-opacity:1;fill-rule:nonzero;stroke:none"
             d="m 0,0 h -8 c -1.104,0 -2,0.896 -2,2 0,1.104 0.896,2 2,2 H 0 C 1.104,4 2,3.104 2,2 2,0.896 1.104,0 0,0" /></g><g
           transform="translate(138,68)"
           id="g260"><path
             id="path262"
             style="fill:#d0d6d9;fill-opacity:1;fill-rule:nonzero;stroke:none"
             d="m 0,0 h -8 c -1.104,0 -2,0.896 -2,2 0,1.104 0.896,2 2,2 H 0 C 1.104,4 2,3.104 2,2 2,0.896 1.104,0 0,0" /></g><g
           transform="translate(154,68)"
           id="g264"><path
             id="path266"
             style="fill:#d0d6d9;fill-opacity:1;fill-rule:nonzero;stroke:none"
             d="m 0,0 h -8 c -1.104,0 -2,0.896 -2,2 0,1.104 0.896,2 2,2 H 0 C 1.104,4 2,3.104 2,2 2,0.896 1.104,0 0,0" /></g><g
           transform="translate(170,68)"
           id="g268"><path
             id="path270"
             style="fill:#d0d6d9;fill-opacity:1;fill-rule:nonzero;stroke:none"
             d="m 0,0 h -8 c -1.104,0 -2,0.896 -2,2 0,1.104 0.896,2 2,2 H 0 C 1.104,4 2,3.104 2,2 2,0.896 1.104,0 0,0" /></g><g
           transform="translate(186,68)"
           id="g272"><path
             id="path274"
             style="fill:#d0d6d9;fill-opacity:1;fill-rule:nonzero;stroke:none"
             d="m 0,0 h -8 c -1.104,0 -2,0.896 -2,2 0,1.104 0.896,2 2,2 H 0 C 1.104,4 2,3.104 2,2 2,0.896 1.104,0 0,0" /></g><g
           transform="translate(86,100)"
           id="g276"><path
             id="path278"
             style="fill:#d0d6d9;fill-opacity:1;fill-rule:nonzero;stroke:none"
             d="m 0,0 h -4 c -1.104,0 -2,0.896 -2,2 0,1.104 0.896,2 2,2 H 0 C 1.104,4 2,3.104 2,2 2,0.896 1.104,0 0,0" /></g><g
           transform="translate(98,100)"
           id="g280"><path
             id="path282"
             style="fill:#d0d6d9;fill-opacity:1;fill-rule:nonzero;stroke:none"
             d="m 0,0 h -4 c -1.104,0 -2,0.896 -2,2 0,1.104 0.896,2 2,2 H 0 C 1.104,4 2,3.104 2,2 2,0.896 1.104,0 0,0" /></g><g
           transform="translate(110,100)"
           id="g284"><path
             id="path286"
             style="fill:#d0d6d9;fill-opacity:1;fill-rule:nonzero;stroke:none"
             d="m 0,0 h -4 c -1.104,0 -2,0.896 -2,2 0,1.104 0.896,2 2,2 H 0 C 1.104,4 2,3.104 2,2 2,0.896 1.104,0 0,0" /></g><g
           transform="translate(122,100)"
           id="g288"><path
             id="path290"
             style="fill:#d0d6d9;fill-opacity:1;fill-rule:nonzero;stroke:none"
             d="m 0,0 h -4 c -1.104,0 -2,0.896 -2,2 0,1.104 0.896,2 2,2 H 0 C 1.104,4 2,3.104 2,2 2,0.896 1.104,0 0,0" /></g><g
           transform="translate(134,100)"
           id="g292"><path
             id="path294"
             style="fill:#d0d6d9;fill-opacity:1;fill-rule:nonzero;stroke:none"
             d="m 0,0 h -4 c -1.104,0 -2,0.896 -2,2 0,1.104 0.896,2 2,2 H 0 C 1.104,4 2,3.104 2,2 2,0.896 1.104,0 0,0" /></g><g
           transform="translate(146,100)"
           id="g296"><path
             id="path298"
             style="fill:#d0d6d9;fill-opacity:1;fill-rule:nonzero;stroke:none"
             d="m 0,0 h -4 c -1.104,0 -2,0.896 -2,2 0,1.104 0.896,2 2,2 H 0 C 1.104,4 2,3.104 2,2 2,0.896 1.104,0 0,0" /></g><g
           transform="translate(158,100)"
           id="g300"><path
             id="path302"
             style="fill:#d0d6d9;fill-opacity:1;fill-rule:nonzero;stroke:none"
             d="m 0,0 h -4 c -1.104,0 -2,0.896 -2,2 0,1.104 0.896,2 2,2 H 0 C 1.104,4 2,3.104 2,2 2,0.896 1.104,0 0,0" /></g><g
           transform="translate(170,100)"
           id="g304"><path
             id="path306"
             style="fill:#d0d6d9;fill-opacity:1;fill-rule:nonzero;stroke:none"
             d="m 0,0 h -4 c -1.104,0 -2,0.896 -2,2 0,1.104 0.896,2 2,2 H 0 C 1.104,4 2,3.104 2,2 2,0.896 1.104,0 0,0" /></g><g
           transform="translate(182,100)"
           id="g308"><path
             id="path310"
             style="fill:#d0d6d9;fill-opacity:1;fill-rule:nonzero;stroke:none"
             d="m 0,0 h -4 c -1.104,0 -2,0.896 -2,2 0,1.104 0.896,2 2,2 H 0 C 1.104,4 2,3.104 2,2 2,0.896 1.104,0 0,0" /></g><g
           transform="translate(194,100)"
           id="g312"><path
             id="path314"
             style="fill:#d0d6d9;fill-opacity:1;fill-rule:nonzero;stroke:none"
             d="m 0,0 h -4 c -1.104,0 -2,0.896 -2,2 0,1.104 0.896,2 2,2 H 0 C 1.104,4 2,3.104 2,2 2,0.896 1.104,0 0,0" /></g><path
           id="path316"
           style="fill:#808080;fill-opacity:1;fill-rule:nonzero;stroke:none"
           d="M 240,48 H 16 v 4 h 224 z" /></g></g></g></svg>