<svg xmlns="http://www.w3.org/2000/svg" xml:space="preserve" width="330.666" height="245.333" viewBox="0 0 330.666 245.333"><defs><clipPath id="a" clipPathUnits="userSpaceOnUse"><path d="M0 256h256V0H0Z"/></clipPath><clipPath id="b" clipPathUnits="userSpaceOnUse"><path d="M4 220h248V36H4Z"/></clipPath><clipPath id="c" clipPathUnits="userSpaceOnUse"><path d="M0 256h256V0H0Z"/></clipPath></defs><g clip-path="url(#a)" transform="matrix(1.33333 0 0 -1.33333 -5.333 293.333)"><g clip-path="url(#b)" style="opacity:.5"><path d="m0 0-4 12-1.824 5.47h-235.532l-1.823-5.47-4-12-.411-1.231v-26.091l.155-.777 3.845-19.223V-154.53c0-6.617 5.383-12 12-12h216c6.617 0 12 5.383 12 12v107.208L.255-28.099l.155.777v26.091z" style="fill:#fff;fill-opacity:1;fill-rule:nonzero;stroke:none" transform="translate(251.59 202.53)"/></g></g><path d="M0 0h-232l4 12H-4Z" style="fill:#666;fill-opacity:1;fill-rule:nonzero;stroke:none" transform="matrix(1.33333 0 0 -1.33333 320 26.666)"/><path d="M240 128H16v12h224z" style="fill:#666;fill-opacity:1;fill-rule:nonzero;stroke:none" transform="matrix(1.33333 0 0 -1.33333 -5.333 293.333)"/><path d="M240 136H16v24h224z" style="fill:gray;fill-opacity:1;fill-rule:nonzero;stroke:none" transform="matrix(1.33333 0 0 -1.33333 -5.333 293.333)"/><path d="M0 0h-224l-4 20 4 4H0l4-4z" style="fill:#737373;fill-opacity:1;fill-rule:nonzero;stroke:none" transform="matrix(1.33333 0 0 -1.33333 314.667 85.333)"/><path d="M244 176H12v24h232z" style="fill:gray;fill-opacity:1;fill-rule:nonzero;stroke:none" transform="matrix(1.33333 0 0 -1.33333 -5.333 293.333)"/><path d="M164 176H96v24h68z" style="fill:#999;fill-opacity:1;fill-rule:nonzero;stroke:none" transform="matrix(1.33333 0 0 -1.33333 -5.333 293.333)"/><path d="M0 0h-60l-4 20H4Z" style="fill:#8c8c8c;fill-opacity:1;fill-rule:nonzero;stroke:none" transform="matrix(1.33333 0 0 -1.33333 208 85.333)"/><g clip-path="url(#c)" transform="matrix(1.33333 0 0 -1.33333 -5.333 293.333)"><path d="M0 0h-54a3 3 0 0 0-3 3v14a3 3 0 0 0 3 3H0a3 3 0 0 0 3-3V3a3 3 0 0 0-3-3" style="fill:#191919;fill-opacity:1;fill-rule:nonzero;stroke:none" transform="translate(157 172)"/><path d="m0 0 4-12h20L20 0Z" style="fill:#b80000;fill-opacity:1;fill-rule:nonzero;stroke:none" transform="translate(20 176)"/><path d="M40 176H20v12h20z" style="fill:red;fill-opacity:1;fill-rule:nonzero;stroke:none"/><path d="M0 0a4 4 0 1 0-8 0 4 4 0 0 0 8 0" style="fill:#b80000;fill-opacity:1;fill-rule:nonzero;stroke:none" transform="translate(34 182)"/><path d="M0 0h-216a4 4 0 0 0-4 4v68H4V4a4 4 0 0 0-4-4" style="fill:#8c8c8c;fill-opacity:1;fill-rule:nonzero;stroke:none" transform="translate(236 44)"/><path d="M240 112H16v20h224z" style="fill:gray;fill-opacity:1;fill-rule:nonzero;stroke:none"/><path d="M96 132H24v4h72zm136 0h-68v4h68z" style="fill:#8c8c8c;fill-opacity:1;fill-rule:nonzero;stroke:none"/><path d="M0 0h-144v-4h-4v-48.267c0-2.061 1.791-3.733 4-3.733H0c2.209 0 4 1.672 4 3.733V-4H0Z" style="fill:#212a2c;fill-opacity:1;fill-rule:nonzero;stroke:none" transform="translate(200 112)"/><path d="M0 0h-4a2 2 0 0 0 0 4h4a2 2 0 0 0 0-4" style="fill:#d0d6d9;fill-opacity:1;fill-rule:nonzero;stroke:none" transform="translate(62 100)"/><path d="M0 0h-4a2 2 0 0 0 0 4h4a2 2 0 0 0 0-4" style="fill:#d0d6d9;fill-opacity:1;fill-rule:nonzero;stroke:none" transform="translate(74 100)"/><path d="M0 0h-8a2 2 0 0 0 0 4h8a2 2 0 0 0 0-4" style="fill:#d0d6d9;fill-opacity:1;fill-rule:nonzero;stroke:none" transform="translate(66 92)"/><path d="M0 0h-8a2 2 0 0 0 0 4h8a2 2 0 0 0 0-4" style="fill:#d0d6d9;fill-opacity:1;fill-rule:nonzero;stroke:none" transform="translate(82 92)"/><path d="M0 0h-8a2 2 0 0 0 0 4h8a2 2 0 0 0 0-4" style="fill:#d0d6d9;fill-opacity:1;fill-rule:nonzero;stroke:none" transform="translate(98 92)"/><path d="M0 0h-8a2 2 0 0 0 0 4h8a2 2 0 0 0 0-4" style="fill:#d0d6d9;fill-opacity:1;fill-rule:nonzero;stroke:none" transform="translate(114 92)"/><path d="M0 0h-8a2 2 0 0 0 0 4h8a2 2 0 0 0 0-4" style="fill:#d0d6d9;fill-opacity:1;fill-rule:nonzero;stroke:none" transform="translate(130 92)"/><path d="M0 0h-8a2 2 0 0 0 0 4h8a2 2 0 0 0 0-4" style="fill:#d0d6d9;fill-opacity:1;fill-rule:nonzero;stroke:none" transform="translate(146 92)"/><path d="M0 0h-8a2 2 0 0 0 0 4h8a2 2 0 0 0 0-4" style="fill:#d0d6d9;fill-opacity:1;fill-rule:nonzero;stroke:none" transform="translate(162 92)"/><path d="M0 0h-8a2 2 0 0 0 0 4h8a2 2 0 0 0 0-4" style="fill:#d0d6d9;fill-opacity:1;fill-rule:nonzero;stroke:none" transform="translate(178 92)"/><path d="M0 0h-8a2 2 0 0 0 0 4h8a2 2 0 0 0 0-4" style="fill:#d0d6d9;fill-opacity:1;fill-rule:nonzero;stroke:none" transform="translate(194 92)"/><path d="M0 0h-8a2 2 0 0 0 0 4h8a2 2 0 0 0 0-4" style="fill:#d0d6d9;fill-opacity:1;fill-rule:nonzero;stroke:none" transform="translate(66 84)"/><path d="M0 0h-8a2 2 0 0 0 0 4h8a2 2 0 0 0 0-4" style="fill:#d0d6d9;fill-opacity:1;fill-rule:nonzero;stroke:none" transform="translate(82 84)"/><path d="M0 0h-8a2 2 0 0 0 0 4h8a2 2 0 0 0 0-4" style="fill:#d0d6d9;fill-opacity:1;fill-rule:nonzero;stroke:none" transform="translate(98 84)"/><path d="M0 0h-8a2 2 0 0 0 0 4h8a2 2 0 0 0 0-4" style="fill:#d0d6d9;fill-opacity:1;fill-rule:nonzero;stroke:none" transform="translate(114 84)"/><path d="M0 0h-8a2 2 0 0 0 0 4h8a2 2 0 0 0 0-4" style="fill:#d0d6d9;fill-opacity:1;fill-rule:nonzero;stroke:none" transform="translate(130 84)"/><path d="M0 0h-8a2 2 0 0 0 0 4h8a2 2 0 0 0 0-4" style="fill:#d0d6d9;fill-opacity:1;fill-rule:nonzero;stroke:none" transform="translate(146 84)"/><path d="M0 0h-8a2 2 0 0 0 0 4h8a2 2 0 0 0 0-4" style="fill:#d0d6d9;fill-opacity:1;fill-rule:nonzero;stroke:none" transform="translate(162 84)"/><path d="M0 0h-8a2 2 0 0 0 0 4h8a2 2 0 0 0 0-4" style="fill:#d0d6d9;fill-opacity:1;fill-rule:nonzero;stroke:none" transform="translate(178 84)"/><path d="M0 0h-8a2 2 0 0 0 0 4h8a2 2 0 0 0 0-4" style="fill:red;fill-opacity:1;fill-rule:nonzero;stroke:none" transform="translate(194 84)"/><path d="M0 0h-8a2 2 0 0 0 0 4h8a2 2 0 0 0 0-4" style="fill:#d0d6d9;fill-opacity:1;fill-rule:nonzero;stroke:none" transform="translate(66 76)"/><path d="M0 0h-8a2 2 0 0 0 0 4h8a2 2 0 0 0 0-4" style="fill:#d0d6d9;fill-opacity:1;fill-rule:nonzero;stroke:none" transform="translate(82 76)"/><path d="M0 0h-8a2 2 0 0 0 0 4h8a2 2 0 0 0 0-4" style="fill:#d0d6d9;fill-opacity:1;fill-rule:nonzero;stroke:none" transform="translate(98 76)"/><path d="M0 0h-8a2 2 0 0 0 0 4h8a2 2 0 0 0 0-4" style="fill:#d0d6d9;fill-opacity:1;fill-rule:nonzero;stroke:none" transform="translate(114 76)"/><path d="M0 0h-8a2 2 0 0 0 0 4h8a2 2 0 0 0 0-4" style="fill:#d0d6d9;fill-opacity:1;fill-rule:nonzero;stroke:none" transform="translate(130 76)"/><path d="M0 0h-8a2 2 0 0 0 0 4h8a2 2 0 0 0 0-4" style="fill:#d0d6d9;fill-opacity:1;fill-rule:nonzero;stroke:none" transform="translate(146 76)"/><path d="M0 0h-8a2 2 0 0 0 0 4h8a2 2 0 0 0 0-4" style="fill:#d0d6d9;fill-opacity:1;fill-rule:nonzero;stroke:none" transform="translate(162 76)"/><path d="M0 0h-8a2 2 0 0 0 0 4h8a2 2 0 0 0 0-4" style="fill:#d0d6d9;fill-opacity:1;fill-rule:nonzero;stroke:none" transform="translate(178 76)"/><path d="M0 0h-8a2 2 0 0 0 0 4h8a2 2 0 0 0 0-4" style="fill:#d0d6d9;fill-opacity:1;fill-rule:nonzero;stroke:none" transform="translate(194 76)"/><path d="M0 0h-8a2 2 0 0 0 0 4h8a2 2 0 0 0 0-4" style="fill:#d0d6d9;fill-opacity:1;fill-rule:nonzero;stroke:none" transform="translate(66 60)"/><path d="M0 0h-8a2 2 0 0 0 0 4h8a2 2 0 0 0 0-4" style="fill:#d0d6d9;fill-opacity:1;fill-rule:nonzero;stroke:none" transform="translate(82 60)"/><path d="M0 0h-8a2 2 0 0 0 0 4h8a2 2 0 0 0 0-4" style="fill:#d0d6d9;fill-opacity:1;fill-rule:nonzero;stroke:none" transform="translate(98 60)"/><path d="M0 0h-8a2 2 0 0 0 0 4h8a2 2 0 0 0 0-4" style="fill:#d0d6d9;fill-opacity:1;fill-rule:nonzero;stroke:none" transform="translate(114 60)"/><path d="M0 0h-8a2 2 0 0 0 0 4h8a2 2 0 0 0 0-4" style="fill:#d0d6d9;fill-opacity:1;fill-rule:nonzero;stroke:none" transform="translate(130 60)"/><path d="M0 0h-8a2 2 0 0 0 0 4h8a2 2 0 0 0 0-4" style="fill:#d0d6d9;fill-opacity:1;fill-rule:nonzero;stroke:none" transform="translate(146 60)"/><path d="M0 0h-8a2 2 0 0 0 0 4h8a2 2 0 0 0 0-4" style="fill:#d0d6d9;fill-opacity:1;fill-rule:nonzero;stroke:none" transform="translate(162 60)"/><path d="M0 0h-8a2 2 0 0 0 0 4h8a2 2 0 0 0 0-4" style="fill:#d0d6d9;fill-opacity:1;fill-rule:nonzero;stroke:none" transform="translate(178 60)"/><path d="M0 0h-8a2 2 0 0 0 0 4h8a2 2 0 0 0 0-4" style="fill:#d0d6d9;fill-opacity:1;fill-rule:nonzero;stroke:none" transform="translate(194 60)"/><path d="M0 0h-8a2 2 0 0 0 0 4h8a2 2 0 0 0 0-4" style="fill:#d0d6d9;fill-opacity:1;fill-rule:nonzero;stroke:none" transform="translate(74 68)"/><path d="M0 0h-8a2 2 0 0 0 0 4h8a2 2 0 0 0 0-4" style="fill:#d0d6d9;fill-opacity:1;fill-rule:nonzero;stroke:none" transform="translate(90 68)"/><path d="M0 0h-8a2 2 0 0 0 0 4h8a2 2 0 0 0 0-4" style="fill:#d0d6d9;fill-opacity:1;fill-rule:nonzero;stroke:none" transform="translate(106 68)"/><path d="M0 0h-8a2 2 0 0 0 0 4h8a2 2 0 0 0 0-4" style="fill:#d0d6d9;fill-opacity:1;fill-rule:nonzero;stroke:none" transform="translate(122 68)"/><path d="M0 0h-8a2 2 0 0 0 0 4h8a2 2 0 0 0 0-4" style="fill:#d0d6d9;fill-opacity:1;fill-rule:nonzero;stroke:none" transform="translate(138 68)"/><path d="M0 0h-8a2 2 0 0 0 0 4h8a2 2 0 0 0 0-4" style="fill:#d0d6d9;fill-opacity:1;fill-rule:nonzero;stroke:none" transform="translate(154 68)"/><path d="M0 0h-8a2 2 0 0 0 0 4h8a2 2 0 0 0 0-4" style="fill:#d0d6d9;fill-opacity:1;fill-rule:nonzero;stroke:none" transform="translate(170 68)"/><path d="M0 0h-8a2 2 0 0 0 0 4h8a2 2 0 0 0 0-4" style="fill:#d0d6d9;fill-opacity:1;fill-rule:nonzero;stroke:none" transform="translate(186 68)"/><path d="M0 0h-4a2 2 0 0 0 0 4h4a2 2 0 0 0 0-4" style="fill:#d0d6d9;fill-opacity:1;fill-rule:nonzero;stroke:none" transform="translate(86 100)"/><path d="M0 0h-4a2 2 0 0 0 0 4h4a2 2 0 0 0 0-4" style="fill:#d0d6d9;fill-opacity:1;fill-rule:nonzero;stroke:none" transform="translate(98 100)"/><path d="M0 0h-4a2 2 0 0 0 0 4h4a2 2 0 0 0 0-4" style="fill:#d0d6d9;fill-opacity:1;fill-rule:nonzero;stroke:none" transform="translate(110 100)"/><path d="M0 0h-4a2 2 0 0 0 0 4h4a2 2 0 0 0 0-4" style="fill:#d0d6d9;fill-opacity:1;fill-rule:nonzero;stroke:none" transform="translate(122 100)"/><path d="M0 0h-4a2 2 0 0 0 0 4h4a2 2 0 0 0 0-4" style="fill:#d0d6d9;fill-opacity:1;fill-rule:nonzero;stroke:none" transform="translate(134 100)"/><path d="M0 0h-4a2 2 0 0 0 0 4h4a2 2 0 0 0 0-4" style="fill:#d0d6d9;fill-opacity:1;fill-rule:nonzero;stroke:none" transform="translate(146 100)"/><path d="M0 0h-4a2 2 0 0 0 0 4h4a2 2 0 0 0 0-4" style="fill:#d0d6d9;fill-opacity:1;fill-rule:nonzero;stroke:none" transform="translate(158 100)"/><path d="M0 0h-4a2 2 0 0 0 0 4h4a2 2 0 0 0 0-4" style="fill:#d0d6d9;fill-opacity:1;fill-rule:nonzero;stroke:none" transform="translate(170 100)"/><path d="M0 0h-4a2 2 0 0 0 0 4h4a2 2 0 0 0 0-4" style="fill:#d0d6d9;fill-opacity:1;fill-rule:nonzero;stroke:none" transform="translate(182 100)"/><path d="M0 0h-4a2 2 0 0 0 0 4h4a2 2 0 0 0 0-4" style="fill:#d0d6d9;fill-opacity:1;fill-rule:nonzero;stroke:none" transform="translate(194 100)"/><path d="M240 48H16v4h224z" style="fill:gray;fill-opacity:1;fill-rule:nonzero;stroke:none"/></g></svg>