<svg xmlns="http://www.w3.org/2000/svg" xml:space="preserve" width="330.667" height="245.333" viewBox="0 0 330.667 245.333"><defs><clipPath id="a" clipPathUnits="userSpaceOnUse"><path d="M0 256h256V0H0Z"/></clipPath><clipPath id="b" clipPathUnits="userSpaceOnUse"><path d="M4 220h248V36H4Z"/></clipPath><clipPath id="c" clipPathUnits="userSpaceOnUse"><path d="M0 256h256V0H0Z"/></clipPath></defs><g clip-path="url(#a)" transform="matrix(1.33333 0 0 -1.33333 -5.333 293.333)"><g clip-path="url(#b)" style="opacity:.5"><path d="M0 0a9.96 9.96 0 0 1-2.792 6.925l-1.224 19.574-.08 1.281-.476 1.191c-.096.239-2.39 5.925-6.374 11.617-4.216 6.022-11.19 13.183-20.601 13.407l-79.657 7.965-.397.04h-24.798l-.397-.04-79.657-7.965c-9.411-.224-16.385-7.385-20.601-13.407-3.985-5.692-6.278-11.378-6.374-11.617l-.476-1.191-.08-1.281-1.224-19.574A9.96 9.96 0 0 1-248 0v-20c0-1.411.301-2.783.857-4.036l-.709-11.34a10 10 0 0 1 .083-2.024l-.168-1.479a10 10 0 0 1 2.476-7.767 10.05 10.05 0 0 1 5.405-3.133l9.075-3.645 1.435-.576H-214a9.95 9.95 0 0 1 6 2.005v-60.11c0-4.797 3.211-9.895 9.162-9.895 3.207 0 8.265 1.687 10.838 4.748 5.746 6.836 13.349 19.305 22.718 33.793C-154.329-66.52-134.179-62-124-62s30.328-4.52 41.282-21.459c9.369-14.488 16.972-26.957 22.718-33.793 2.573-3.061 7.632-4.748 10.838-4.748 5.951 0 9.162 5.098 9.162 9.895v60.11A9.95 9.95 0 0 1-34-54h15.547l1.434.576 9.075 3.645a10.05 10.05 0 0 1 5.405 3.133 10 10 0 0 1 2.476 7.767L-.231-37.4c.096.67.125 1.348.083 2.025l-.709 11.339A9.95 9.95 0 0 1 0-20Z" style="fill:#fff;fill-opacity:1;fill-rule:nonzero;stroke:none" transform="translate(252 158)"/></g></g><path d="m0 0 80 8h24l80-8z" style="fill:#7b0000;fill-opacity:1;fill-rule:nonzero;stroke:none" transform="matrix(1.33333 0 0 -1.33333 42.667 21.333)"/><g clip-path="url(#c)" transform="matrix(1.33333 0 0 -1.33333 -5.333 293.333)"><path d="M0 0c4.993 5.941 10.41 18.16 20 32.991 12.752 19.72 36 25.114 48 25.114s35.248-5.394 48-25.114C125.59 18.16 131.007 5.941 136 0c1.819-2.164 8-2.864 8 0v74.105H-8V0c0-2.864 6.181-2.164 8 0" style="fill:#333;fill-opacity:1;fill-rule:nonzero;stroke:none" transform="translate(60 45.895)"/><path d="M0 0h.027l-2.014-17.779C-2.122-18.964-1.176-20 .04-20L10-24V0h208v-24l9.96 4c1.216 0 2.161 1.036 2.027 2.221L227.973 0H228a2 2 0 0 1 2 2v20a2 2 0 0 1-2 2H0a2 2 0 0 1-2-2V2a2 2 0 0 1 2-2" style="fill:#404040;fill-opacity:1;fill-rule:nonzero;stroke:none" transform="translate(14 136)"/><path d="M36 128h184v-12H36Z" style="fill:#7b0000;fill-opacity:1;fill-rule:nonzero;stroke:none"/><path d="M0 0h12a2 2 0 0 0 2-2v-18H0a2 2 0 0 0-2 2v16a2 2 0 0 0 2 2" style="fill:#3d0000;fill-opacity:1;fill-rule:nonzero;stroke:none" transform="translate(218 132)"/><path d="M0 0h-12a2 2 0 0 1-2-2v-18H0a2 2 0 0 1 2 2v16a2 2 0 0 1-2 2" style="fill:#3d0000;fill-opacity:1;fill-rule:nonzero;stroke:none" transform="translate(38 132)"/><path d="M0 0v4a2 2 0 0 0 2 2h180a2 2 0 0 0 2-2V0a2 2 0 0 1 2-2h19.871a2 2 0 0 1 1.996 2.125L204 62s-8 20-20 20-92 4-92 4-80-4-92-4-20-20-20-20L-23.867.125A2 2 0 0 1-21.871-2H-2a2 2 0 0 1 2 2" style="fill:#b80000;fill-opacity:1;fill-rule:nonzero;stroke:none" transform="translate(36 122)"/><path d="M144 124h12v-4h-12zm-44 0h12v-4h-12z" style="fill:#b80000;fill-opacity:1;fill-rule:nonzero;stroke:none"/><path d="M0 0h-44l-16 32h-48l-16-32h-44a8 8 0 0 1-8-8v-4a8 8 0 0 1 8-8l44-4v-20l2.669-9.338a3.99 3.99 0 0 1 4.223-2.158c5.158.855 16.588 2.557 29.108 3.168v.204q2.004-.002 4-.054 1.995.052 4 .054v-.204c12.52-.611 23.95-2.313 29.108-3.168a3.99 3.99 0 0 1 4.223 2.158L-44-44v20l44 4a8 8 0 0 1 8 8v4a8 8 0 0 1-8 8" style="fill:red;fill-opacity:1;fill-rule:nonzero;stroke:none" transform="translate(212 164)"/><path d="M164 164h4v-24h-4z" style="fill:#b80000;fill-opacity:1;fill-rule:nonzero;stroke:none"/><path d="M0 0h8l16 8v8L8 24H0l-16-8V8Z" style="fill:#999;fill-opacity:1;fill-rule:nonzero;stroke:none" transform="translate(124 168)"/><path d="M0 0a1 1 0 0 0 1-1v-68a1 1 0 1 0-2 0v68a1 1 0 0 0 1 1" style="fill:#7b0000;fill-opacity:1;fill-rule:nonzero;stroke:none" transform="translate(223 202)"/><path d="M0 0v4l8 2v-8Z" style="fill:#b3b3b3;fill-opacity:1;fill-rule:nonzero;stroke:none" transform="translate(140 178)"/><path d="M92 164h-4v-24h4z" style="fill:#b80000;fill-opacity:1;fill-rule:nonzero;stroke:none"/><path d="M0 0a1 1 0 0 1-1-1v-68a1 1 0 0 1 2 0v68a1 1 0 0 1-1 1" style="fill:#7b0000;fill-opacity:1;fill-rule:nonzero;stroke:none" transform="translate(33 202)"/><path d="M0 0v4l-8 2v-8Z" style="fill:#b3b3b3;fill-opacity:1;fill-rule:nonzero;stroke:none" transform="translate(116 178)"/><path d="M0 0c0 6.627 5.373 12 12 12S24 6.627 24 0s-5.373-12-12-12S0-6.627 0 0" style="fill:#b3b3b3;fill-opacity:1;fill-rule:nonzero;stroke:none" transform="translate(116 180)"/><path d="M116 182h24v-4h-24z" style="fill:#ccc;fill-opacity:1;fill-rule:nonzero;stroke:none"/><path d="M164 142H92v20h72z" style="fill:#7b0000;fill-opacity:1;fill-rule:nonzero;stroke:none"/><path d="M0 0h52a2 2 0 0 0 2-2v-20a2 2 0 0 0-2-2H0a2 2 0 0 0-2 2v20a2 2 0 0 0 2 2" style="fill:#999;fill-opacity:1;fill-rule:nonzero;stroke:none" transform="translate(102 164)"/><path d="M124 164h8v-24h-8z" style="fill:#b3b3b3;fill-opacity:1;fill-rule:nonzero;stroke:none"/><path d="m0 0 12-4 12 4Z" style="fill:#b80000;fill-opacity:1;fill-rule:nonzero;stroke:none" transform="translate(116 212)"/><path d="M0 0h-4l2 4z" style="fill:#999;fill-opacity:1;fill-rule:nonzero;stroke:none" transform="translate(130 184)"/><path d="M0 0v-4l-4 2z" style="fill:#8c8c8c;fill-opacity:1;fill-rule:nonzero;stroke:none" transform="translate(108 154)"/><path d="M0 0v4l4-2Z" style="fill:#8c8c8c;fill-opacity:1;fill-rule:nonzero;stroke:none" transform="translate(148 150)"/></g></svg>