<svg xmlns="http://www.w3.org/2000/svg" xml:space="preserve" width="330.667" height="256" viewBox="0 0 330.667 256"><defs><clipPath id="a" clipPathUnits="userSpaceOnUse"><path d="M0 256h256V0H0Z"/></clipPath><clipPath id="b" clipPathUnits="userSpaceOnUse"><path d="M4 224h248V32H4Z"/></clipPath><clipPath id="c" clipPathUnits="userSpaceOnUse"><path d="M0 256h256V0H0Z"/></clipPath></defs><g clip-path="url(#a)" transform="matrix(1.33333 0 0 -1.33333 -5.333 298.667)"><g clip-path="url(#b)" style="opacity:.5"><path d="M0 0h-240v-192H8V0z" style="fill:#fff;fill-opacity:1;fill-rule:nonzero;stroke:none" transform="translate(244 224)"/></g></g><path d="M244 40H12v176h232z" style="fill:#737373;fill-opacity:1;fill-rule:nonzero;stroke:none" transform="matrix(1.33333 0 0 -1.33333 -5.333 298.667)"/><path d="M244 44H12v-4h232z" style="fill:#191919;fill-opacity:1;fill-rule:nonzero;stroke:none" transform="matrix(1.33333 0 0 -1.33333 -5.333 298.667)"/><path d="M244 52H12v-2h232z" style="fill:#595959;fill-opacity:1;fill-rule:nonzero;stroke:none" transform="matrix(1.33333 0 0 -1.33333 -5.333 298.667)"/><g clip-path="url(#c)" transform="matrix(1.33333 0 0 -1.33333 -5.333 298.667)"><path d="M0 0a2 2 0 1 0-4.001.001A2 2 0 0 0 0 0" style="fill:#333;fill-opacity:1;fill-rule:nonzero;stroke:none" transform="translate(24 206)"/><path d="M0 0a2 2 0 1 0-4.001.001A2 2 0 0 0 0 0" style="fill:#333;fill-opacity:1;fill-rule:nonzero;stroke:none" transform="translate(32 206)"/><path d="M0 0a2 2 0 1 0-4.001.001A2 2 0 0 0 0 0" style="fill:#333;fill-opacity:1;fill-rule:nonzero;stroke:none" transform="translate(40 206)"/><path d="M0 0a2 2 0 1 0-4.001.001A2 2 0 0 0 0 0" style="fill:#333;fill-opacity:1;fill-rule:nonzero;stroke:none" transform="translate(48 206)"/><path d="M0 0a2 2 0 1 0-4.001.001A2 2 0 0 0 0 0" style="fill:#333;fill-opacity:1;fill-rule:nonzero;stroke:none" transform="translate(56 206)"/><path d="M0 0a2 2 0 1 0-4.001.001A2 2 0 0 0 0 0" style="fill:#333;fill-opacity:1;fill-rule:nonzero;stroke:none" transform="translate(64 206)"/><path d="M0 0a2 2 0 1 0-4.001.001A2 2 0 0 0 0 0" style="fill:#333;fill-opacity:1;fill-rule:nonzero;stroke:none" transform="translate(72 206)"/><path d="M0 0a2 2 0 1 0-4.001.001A2 2 0 0 0 0 0" style="fill:#333;fill-opacity:1;fill-rule:nonzero;stroke:none" transform="translate(80 206)"/><path d="M0 0a2 2 0 1 0-4.001.001A2 2 0 0 0 0 0" style="fill:#333;fill-opacity:1;fill-rule:nonzero;stroke:none" transform="translate(88 206)"/><path d="M0 0a2 2 0 1 0-4.001.001A2 2 0 0 0 0 0" style="fill:#333;fill-opacity:1;fill-rule:nonzero;stroke:none" transform="translate(96 206)"/><path d="M0 0a2 2 0 1 0-4.001.001A2 2 0 0 0 0 0" style="fill:#333;fill-opacity:1;fill-rule:nonzero;stroke:none" transform="translate(104 206)"/><path d="M0 0a2 2 0 1 0-4.001.001A2 2 0 0 0 0 0" style="fill:#333;fill-opacity:1;fill-rule:nonzero;stroke:none" transform="translate(112 206)"/><path d="M0 0a2 2 0 1 0-4.001.001A2 2 0 0 0 0 0" style="fill:#333;fill-opacity:1;fill-rule:nonzero;stroke:none" transform="translate(120 206)"/><path d="M0 0a2 2 0 1 0-4.001.001A2 2 0 0 0 0 0" style="fill:#333;fill-opacity:1;fill-rule:nonzero;stroke:none" transform="translate(28 202)"/><path d="M0 0a2 2 0 1 0-4.001.001A2 2 0 0 0 0 0" style="fill:#333;fill-opacity:1;fill-rule:nonzero;stroke:none" transform="translate(36 202)"/><path d="M0 0a2 2 0 1 0-4.001.001A2 2 0 0 0 0 0" style="fill:#333;fill-opacity:1;fill-rule:nonzero;stroke:none" transform="translate(44 202)"/><path d="M0 0a2 2 0 1 0-4.001.001A2 2 0 0 0 0 0" style="fill:#333;fill-opacity:1;fill-rule:nonzero;stroke:none" transform="translate(52 202)"/><path d="M0 0a2 2 0 1 0-4.001.001A2 2 0 0 0 0 0" style="fill:#333;fill-opacity:1;fill-rule:nonzero;stroke:none" transform="translate(60 202)"/><path d="M0 0a2 2 0 1 0-4.001.001A2 2 0 0 0 0 0" style="fill:#333;fill-opacity:1;fill-rule:nonzero;stroke:none" transform="translate(68 202)"/><path d="M0 0a2 2 0 1 0-4.001.001A2 2 0 0 0 0 0" style="fill:#333;fill-opacity:1;fill-rule:nonzero;stroke:none" transform="translate(76 202)"/><path d="M0 0a2 2 0 1 0-4.001.001A2 2 0 0 0 0 0" style="fill:#333;fill-opacity:1;fill-rule:nonzero;stroke:none" transform="translate(84 202)"/><path d="M0 0a2 2 0 1 0-4.001.001A2 2 0 0 0 0 0" style="fill:#333;fill-opacity:1;fill-rule:nonzero;stroke:none" transform="translate(92 202)"/><path d="M0 0a2 2 0 1 0-4.001.001A2 2 0 0 0 0 0" style="fill:#333;fill-opacity:1;fill-rule:nonzero;stroke:none" transform="translate(100 202)"/><path d="M0 0a2 2 0 1 0-4.001.001A2 2 0 0 0 0 0" style="fill:#333;fill-opacity:1;fill-rule:nonzero;stroke:none" transform="translate(108 202)"/><path d="M0 0a2 2 0 1 0-4.001.001A2 2 0 0 0 0 0" style="fill:#333;fill-opacity:1;fill-rule:nonzero;stroke:none" transform="translate(116 202)"/><path d="M0 0a2 2 0 1 0-4.001.001A2 2 0 0 0 0 0" style="fill:#333;fill-opacity:1;fill-rule:nonzero;stroke:none" transform="translate(124 202)"/><path d="M0 0a2 2 0 1 0-4.001.001A2 2 0 0 0 0 0" style="fill:#333;fill-opacity:1;fill-rule:nonzero;stroke:none" transform="translate(24 198)"/><path d="M0 0a2 2 0 1 0-4.001.001A2 2 0 0 0 0 0" style="fill:#333;fill-opacity:1;fill-rule:nonzero;stroke:none" transform="translate(32 198)"/><path d="M0 0a2 2 0 1 0-4.001.001A2 2 0 0 0 0 0" style="fill:#333;fill-opacity:1;fill-rule:nonzero;stroke:none" transform="translate(40 198)"/><path d="M0 0a2 2 0 1 0-4.001.001A2 2 0 0 0 0 0" style="fill:#333;fill-opacity:1;fill-rule:nonzero;stroke:none" transform="translate(48 198)"/><path d="M0 0a2 2 0 1 0-4.001.001A2 2 0 0 0 0 0" style="fill:#333;fill-opacity:1;fill-rule:nonzero;stroke:none" transform="translate(56 198)"/><path d="M0 0a2 2 0 1 0-4.001.001A2 2 0 0 0 0 0" style="fill:#333;fill-opacity:1;fill-rule:nonzero;stroke:none" transform="translate(64 198)"/><path d="M0 0a2 2 0 1 0-4.001.001A2 2 0 0 0 0 0" style="fill:#333;fill-opacity:1;fill-rule:nonzero;stroke:none" transform="translate(72 198)"/><path d="M0 0a2 2 0 1 0-4.001.001A2 2 0 0 0 0 0" style="fill:#333;fill-opacity:1;fill-rule:nonzero;stroke:none" transform="translate(80 198)"/><path d="M0 0a2 2 0 1 0-4.001.001A2 2 0 0 0 0 0" style="fill:#333;fill-opacity:1;fill-rule:nonzero;stroke:none" transform="translate(88 198)"/><path d="M0 0a2 2 0 1 0-4.001.001A2 2 0 0 0 0 0" style="fill:#333;fill-opacity:1;fill-rule:nonzero;stroke:none" transform="translate(96 198)"/><path d="M0 0a2 2 0 1 0-4.001.001A2 2 0 0 0 0 0" style="fill:#333;fill-opacity:1;fill-rule:nonzero;stroke:none" transform="translate(104 198)"/><path d="M0 0a2 2 0 1 0-4.001.001A2 2 0 0 0 0 0" style="fill:#333;fill-opacity:1;fill-rule:nonzero;stroke:none" transform="translate(112 198)"/><path d="M0 0a2 2 0 1 0-4.001.001A2 2 0 0 0 0 0" style="fill:#333;fill-opacity:1;fill-rule:nonzero;stroke:none" transform="translate(120 198)"/><path d="M0 0a2 2 0 1 0-4.001.001A2 2 0 0 0 0 0" style="fill:#333;fill-opacity:1;fill-rule:nonzero;stroke:none" transform="translate(28 194)"/><path d="M0 0a2 2 0 1 0-4.001.001A2 2 0 0 0 0 0" style="fill:#333;fill-opacity:1;fill-rule:nonzero;stroke:none" transform="translate(36 194)"/><path d="M0 0a2 2 0 1 0-4.001.001A2 2 0 0 0 0 0" style="fill:#333;fill-opacity:1;fill-rule:nonzero;stroke:none" transform="translate(44 194)"/><path d="M0 0a2 2 0 1 0-4.001.001A2 2 0 0 0 0 0" style="fill:#333;fill-opacity:1;fill-rule:nonzero;stroke:none" transform="translate(52 194)"/><path d="M0 0a2 2 0 1 0-4.001.001A2 2 0 0 0 0 0" style="fill:#333;fill-opacity:1;fill-rule:nonzero;stroke:none" transform="translate(60 194)"/><path d="M0 0a2 2 0 1 0-4.001.001A2 2 0 0 0 0 0" style="fill:#333;fill-opacity:1;fill-rule:nonzero;stroke:none" transform="translate(68 194)"/><path d="M0 0a2 2 0 1 0-4.001.001A2 2 0 0 0 0 0" style="fill:#333;fill-opacity:1;fill-rule:nonzero;stroke:none" transform="translate(76 194)"/><path d="M0 0a2 2 0 1 0-4.001.001A2 2 0 0 0 0 0" style="fill:#333;fill-opacity:1;fill-rule:nonzero;stroke:none" transform="translate(84 194)"/><path d="M0 0a2 2 0 1 0-4.001.001A2 2 0 0 0 0 0" style="fill:#333;fill-opacity:1;fill-rule:nonzero;stroke:none" transform="translate(92 194)"/><path d="M0 0a2 2 0 1 0-4.001.001A2 2 0 0 0 0 0" style="fill:#333;fill-opacity:1;fill-rule:nonzero;stroke:none" transform="translate(100 194)"/><path d="M0 0a2 2 0 1 0-4.001.001A2 2 0 0 0 0 0" style="fill:#333;fill-opacity:1;fill-rule:nonzero;stroke:none" transform="translate(108 194)"/><path d="M0 0a2 2 0 1 0-4.001.001A2 2 0 0 0 0 0" style="fill:#333;fill-opacity:1;fill-rule:nonzero;stroke:none" transform="translate(116 194)"/><path d="M0 0a2 2 0 1 0-4.001.001A2 2 0 0 0 0 0" style="fill:#333;fill-opacity:1;fill-rule:nonzero;stroke:none" transform="translate(124 194)"/><path d="M0 0a2 2 0 1 0-4.001.001A2 2 0 0 0 0 0" style="fill:#333;fill-opacity:1;fill-rule:nonzero;stroke:none" transform="translate(24 190)"/><path d="M0 0a2 2 0 1 0-4.001.001A2 2 0 0 0 0 0" style="fill:#333;fill-opacity:1;fill-rule:nonzero;stroke:none" transform="translate(32 190)"/><path d="M0 0a2 2 0 1 0-4.001.001A2 2 0 0 0 0 0" style="fill:#333;fill-opacity:1;fill-rule:nonzero;stroke:none" transform="translate(40 190)"/><path d="M0 0a2 2 0 1 0-4.001.001A2 2 0 0 0 0 0" style="fill:#333;fill-opacity:1;fill-rule:nonzero;stroke:none" transform="translate(48 190)"/><path d="M0 0a2 2 0 1 0-4.001.001A2 2 0 0 0 0 0" style="fill:#333;fill-opacity:1;fill-rule:nonzero;stroke:none" transform="translate(56 190)"/><path d="M0 0a2 2 0 1 0-4.001.001A2 2 0 0 0 0 0" style="fill:#333;fill-opacity:1;fill-rule:nonzero;stroke:none" transform="translate(64 190)"/><path d="M0 0a2 2 0 1 0-4.001.001A2 2 0 0 0 0 0" style="fill:#333;fill-opacity:1;fill-rule:nonzero;stroke:none" transform="translate(72 190)"/><path d="M0 0a2 2 0 1 0-4.001.001A2 2 0 0 0 0 0" style="fill:#333;fill-opacity:1;fill-rule:nonzero;stroke:none" transform="translate(80 190)"/><path d="M0 0a2 2 0 1 0-4.001.001A2 2 0 0 0 0 0" style="fill:#333;fill-opacity:1;fill-rule:nonzero;stroke:none" transform="translate(88 190)"/><path d="M0 0a2 2 0 1 0-4.001.001A2 2 0 0 0 0 0" style="fill:#333;fill-opacity:1;fill-rule:nonzero;stroke:none" transform="translate(96 190)"/><path d="M0 0a2 2 0 1 0-4.001.001A2 2 0 0 0 0 0" style="fill:#333;fill-opacity:1;fill-rule:nonzero;stroke:none" transform="translate(104 190)"/><path d="M0 0a2 2 0 1 0-4.001.001A2 2 0 0 0 0 0" style="fill:#333;fill-opacity:1;fill-rule:nonzero;stroke:none" transform="translate(112 190)"/><path d="M0 0a2 2 0 1 0-4.001.001A2 2 0 0 0 0 0" style="fill:#333;fill-opacity:1;fill-rule:nonzero;stroke:none" transform="translate(120 190)"/><path d="M0 0a2 2 0 1 0-4.001.001A2 2 0 0 0 0 0" style="fill:#333;fill-opacity:1;fill-rule:nonzero;stroke:none" transform="translate(28 186)"/><path d="M0 0a2 2 0 1 0-4.001.001A2 2 0 0 0 0 0" style="fill:#333;fill-opacity:1;fill-rule:nonzero;stroke:none" transform="translate(36 186)"/><path d="M0 0a2 2 0 1 0-4.001.001A2 2 0 0 0 0 0" style="fill:#333;fill-opacity:1;fill-rule:nonzero;stroke:none" transform="translate(44 186)"/><path d="M0 0a2 2 0 1 0-4.001.001A2 2 0 0 0 0 0" style="fill:#333;fill-opacity:1;fill-rule:nonzero;stroke:none" transform="translate(52 186)"/><path d="M0 0a2 2 0 1 0-4.001.001A2 2 0 0 0 0 0" style="fill:#333;fill-opacity:1;fill-rule:nonzero;stroke:none" transform="translate(60 186)"/><path d="M0 0a2 2 0 1 0-4.001.001A2 2 0 0 0 0 0" style="fill:#333;fill-opacity:1;fill-rule:nonzero;stroke:none" transform="translate(68 186)"/><path d="M0 0a2 2 0 1 0-4.001.001A2 2 0 0 0 0 0" style="fill:#333;fill-opacity:1;fill-rule:nonzero;stroke:none" transform="translate(76 186)"/><path d="M0 0a2 2 0 1 0-4.001.001A2 2 0 0 0 0 0" style="fill:#333;fill-opacity:1;fill-rule:nonzero;stroke:none" transform="translate(84 186)"/><path d="M0 0a2 2 0 1 0-4.001.001A2 2 0 0 0 0 0" style="fill:#333;fill-opacity:1;fill-rule:nonzero;stroke:none" transform="translate(92 186)"/><path d="M0 0a2 2 0 1 0-4.001.001A2 2 0 0 0 0 0" style="fill:#333;fill-opacity:1;fill-rule:nonzero;stroke:none" transform="translate(100 186)"/><path d="M0 0a2 2 0 1 0-4.001.001A2 2 0 0 0 0 0" style="fill:#333;fill-opacity:1;fill-rule:nonzero;stroke:none" transform="translate(108 186)"/><path d="M0 0a2 2 0 1 0-4.001.001A2 2 0 0 0 0 0" style="fill:#333;fill-opacity:1;fill-rule:nonzero;stroke:none" transform="translate(116 186)"/><path d="M0 0a2 2 0 1 0-4.001.001A2 2 0 0 0 0 0" style="fill:#333;fill-opacity:1;fill-rule:nonzero;stroke:none" transform="translate(124 186)"/><path d="M0 0a2 2 0 1 0-4.001.001A2 2 0 0 0 0 0" style="fill:#333;fill-opacity:1;fill-rule:nonzero;stroke:none" transform="translate(24 182)"/><path d="M0 0a2 2 0 1 0-4.001.001A2 2 0 0 0 0 0" style="fill:#333;fill-opacity:1;fill-rule:nonzero;stroke:none" transform="translate(32 182)"/><path d="M0 0a2 2 0 1 0-4.001.001A2 2 0 0 0 0 0" style="fill:#333;fill-opacity:1;fill-rule:nonzero;stroke:none" transform="translate(40 182)"/><path d="M0 0a2 2 0 1 0-4.001.001A2 2 0 0 0 0 0" style="fill:#333;fill-opacity:1;fill-rule:nonzero;stroke:none" transform="translate(48 182)"/><path d="M0 0a2 2 0 1 0-4.001.001A2 2 0 0 0 0 0" style="fill:#333;fill-opacity:1;fill-rule:nonzero;stroke:none" transform="translate(56 182)"/><path d="M0 0a2 2 0 1 0-4.001.001A2 2 0 0 0 0 0" style="fill:#333;fill-opacity:1;fill-rule:nonzero;stroke:none" transform="translate(64 182)"/><path d="M0 0a2 2 0 1 0-4.001.001A2 2 0 0 0 0 0" style="fill:#333;fill-opacity:1;fill-rule:nonzero;stroke:none" transform="translate(72 182)"/><path d="M0 0a2 2 0 1 0-4.001.001A2 2 0 0 0 0 0" style="fill:#333;fill-opacity:1;fill-rule:nonzero;stroke:none" transform="translate(80 182)"/><path d="M0 0a2 2 0 1 0-4.001.001A2 2 0 0 0 0 0" style="fill:#333;fill-opacity:1;fill-rule:nonzero;stroke:none" transform="translate(88 182)"/><path d="M0 0a2 2 0 1 0-4.001.001A2 2 0 0 0 0 0" style="fill:#333;fill-opacity:1;fill-rule:nonzero;stroke:none" transform="translate(96 182)"/><path d="M0 0a2 2 0 1 0-4.001.001A2 2 0 0 0 0 0" style="fill:#333;fill-opacity:1;fill-rule:nonzero;stroke:none" transform="translate(104 182)"/><path d="M0 0a2 2 0 1 0-4.001.001A2 2 0 0 0 0 0" style="fill:#333;fill-opacity:1;fill-rule:nonzero;stroke:none" transform="translate(112 182)"/><path d="M0 0a2 2 0 1 0-4.001.001A2 2 0 0 0 0 0" style="fill:#333;fill-opacity:1;fill-rule:nonzero;stroke:none" transform="translate(120 182)"/><path d="M0 0a2 2 0 1 0-4.001.001A2 2 0 0 0 0 0" style="fill:#333;fill-opacity:1;fill-rule:nonzero;stroke:none" transform="translate(28 178)"/><path d="M0 0a2 2 0 1 0-4.001.001A2 2 0 0 0 0 0" style="fill:#333;fill-opacity:1;fill-rule:nonzero;stroke:none" transform="translate(36 178)"/><path d="M0 0a2 2 0 1 0-4.001.001A2 2 0 0 0 0 0" style="fill:#333;fill-opacity:1;fill-rule:nonzero;stroke:none" transform="translate(44 178)"/><path d="M0 0a2 2 0 1 0-4.001.001A2 2 0 0 0 0 0" style="fill:#333;fill-opacity:1;fill-rule:nonzero;stroke:none" transform="translate(52 178)"/><path d="M0 0a2 2 0 1 0-4.001.001A2 2 0 0 0 0 0" style="fill:#333;fill-opacity:1;fill-rule:nonzero;stroke:none" transform="translate(60 178)"/><path d="M0 0a2 2 0 1 0-4.001.001A2 2 0 0 0 0 0" style="fill:#333;fill-opacity:1;fill-rule:nonzero;stroke:none" transform="translate(68 178)"/><path d="M0 0a2 2 0 1 0-4.001.001A2 2 0 0 0 0 0" style="fill:#333;fill-opacity:1;fill-rule:nonzero;stroke:none" transform="translate(76 178)"/><path d="M0 0a2 2 0 1 0-4.001.001A2 2 0 0 0 0 0" style="fill:#333;fill-opacity:1;fill-rule:nonzero;stroke:none" transform="translate(84 178)"/><path d="M0 0a2 2 0 1 0-4.001.001A2 2 0 0 0 0 0" style="fill:#333;fill-opacity:1;fill-rule:nonzero;stroke:none" transform="translate(92 178)"/><path d="M0 0a2 2 0 1 0-4.001.001A2 2 0 0 0 0 0" style="fill:#333;fill-opacity:1;fill-rule:nonzero;stroke:none" transform="translate(100 178)"/><path d="M0 0a2 2 0 1 0-4.001.001A2 2 0 0 0 0 0" style="fill:#333;fill-opacity:1;fill-rule:nonzero;stroke:none" transform="translate(108 178)"/><path d="M0 0a2 2 0 1 0-4.001.001A2 2 0 0 0 0 0" style="fill:#333;fill-opacity:1;fill-rule:nonzero;stroke:none" transform="translate(116 178)"/><path d="M0 0a2 2 0 1 0-4.001.001A2 2 0 0 0 0 0" style="fill:#333;fill-opacity:1;fill-rule:nonzero;stroke:none" transform="translate(124 178)"/><path d="M0 0a2 2 0 1 0-4.001.001A2 2 0 0 0 0 0" style="fill:#333;fill-opacity:1;fill-rule:nonzero;stroke:none" transform="translate(24 174)"/><path d="M0 0a2 2 0 1 0-4.001.001A2 2 0 0 0 0 0" style="fill:#333;fill-opacity:1;fill-rule:nonzero;stroke:none" transform="translate(32 174)"/><path d="M0 0a2 2 0 1 0-4.001.001A2 2 0 0 0 0 0" style="fill:#333;fill-opacity:1;fill-rule:nonzero;stroke:none" transform="translate(40 174)"/><path d="M0 0a2 2 0 1 0-4.001.001A2 2 0 0 0 0 0" style="fill:#333;fill-opacity:1;fill-rule:nonzero;stroke:none" transform="translate(48 174)"/><path d="M0 0a2 2 0 1 0-4.001.001A2 2 0 0 0 0 0" style="fill:#333;fill-opacity:1;fill-rule:nonzero;stroke:none" transform="translate(56 174)"/><path d="M0 0a2 2 0 1 0-4.001.001A2 2 0 0 0 0 0" style="fill:#333;fill-opacity:1;fill-rule:nonzero;stroke:none" transform="translate(64 174)"/><path d="M0 0a2 2 0 1 0-4.001.001A2 2 0 0 0 0 0" style="fill:#333;fill-opacity:1;fill-rule:nonzero;stroke:none" transform="translate(72 174)"/><path d="M0 0a2 2 0 1 0-4.001.001A2 2 0 0 0 0 0" style="fill:#333;fill-opacity:1;fill-rule:nonzero;stroke:none" transform="translate(80 174)"/><path d="M0 0a2 2 0 1 0-4.001.001A2 2 0 0 0 0 0" style="fill:#333;fill-opacity:1;fill-rule:nonzero;stroke:none" transform="translate(88 174)"/><path d="M0 0a2 2 0 1 0-4.001.001A2 2 0 0 0 0 0" style="fill:#333;fill-opacity:1;fill-rule:nonzero;stroke:none" transform="translate(96 174)"/><path d="M0 0a2 2 0 1 0-4.001.001A2 2 0 0 0 0 0" style="fill:#333;fill-opacity:1;fill-rule:nonzero;stroke:none" transform="translate(104 174)"/><path d="M0 0a2 2 0 1 0-4.001.001A2 2 0 0 0 0 0" style="fill:#333;fill-opacity:1;fill-rule:nonzero;stroke:none" transform="translate(112 174)"/><path d="M0 0a2 2 0 1 0-4.001.001A2 2 0 0 0 0 0" style="fill:#333;fill-opacity:1;fill-rule:nonzero;stroke:none" transform="translate(120 174)"/><path d="M0 0a2 2 0 1 0-4.001.001A2 2 0 0 0 0 0" style="fill:#333;fill-opacity:1;fill-rule:nonzero;stroke:none" transform="translate(28 170)"/><path d="M0 0a2 2 0 1 0-4.001.001A2 2 0 0 0 0 0" style="fill:#333;fill-opacity:1;fill-rule:nonzero;stroke:none" transform="translate(36 170)"/><path d="M0 0a2 2 0 1 0-4.001.001A2 2 0 0 0 0 0" style="fill:#333;fill-opacity:1;fill-rule:nonzero;stroke:none" transform="translate(44 170)"/><path d="M0 0a2 2 0 1 0-4.001.001A2 2 0 0 0 0 0" style="fill:#333;fill-opacity:1;fill-rule:nonzero;stroke:none" transform="translate(52 170)"/><path d="M0 0a2 2 0 1 0-4.001.001A2 2 0 0 0 0 0" style="fill:#333;fill-opacity:1;fill-rule:nonzero;stroke:none" transform="translate(60 170)"/><path d="M0 0a2 2 0 1 0-4.001.001A2 2 0 0 0 0 0" style="fill:#333;fill-opacity:1;fill-rule:nonzero;stroke:none" transform="translate(68 170)"/><path d="M0 0a2 2 0 1 0-4.001.001A2 2 0 0 0 0 0" style="fill:#333;fill-opacity:1;fill-rule:nonzero;stroke:none" transform="translate(76 170)"/><path d="M0 0a2 2 0 1 0-4.001.001A2 2 0 0 0 0 0" style="fill:#333;fill-opacity:1;fill-rule:nonzero;stroke:none" transform="translate(84 170)"/><path d="M0 0a2 2 0 1 0-4.001.001A2 2 0 0 0 0 0" style="fill:#333;fill-opacity:1;fill-rule:nonzero;stroke:none" transform="translate(92 170)"/><path d="M0 0a2 2 0 1 0-4.001.001A2 2 0 0 0 0 0" style="fill:#333;fill-opacity:1;fill-rule:nonzero;stroke:none" transform="translate(100 170)"/><path d="M0 0a2 2 0 1 0-4.001.001A2 2 0 0 0 0 0" style="fill:#333;fill-opacity:1;fill-rule:nonzero;stroke:none" transform="translate(108 170)"/><path d="M0 0a2 2 0 1 0-4.001.001A2 2 0 0 0 0 0" style="fill:#333;fill-opacity:1;fill-rule:nonzero;stroke:none" transform="translate(116 170)"/><path d="M0 0a2 2 0 1 0-4.001.001A2 2 0 0 0 0 0" style="fill:#333;fill-opacity:1;fill-rule:nonzero;stroke:none" transform="translate(124 170)"/><path d="M0 0a2 2 0 1 1-4.001-.001A2 2 0 0 1 0 0" style="fill:#333;fill-opacity:1;fill-rule:nonzero;stroke:none" transform="translate(136 170)"/><path d="M0 0a2 2 0 1 1-4.001-.001A2 2 0 0 1 0 0" style="fill:#333;fill-opacity:1;fill-rule:nonzero;stroke:none" transform="translate(144 170)"/><path d="M0 0a2 2 0 1 1-4.001-.001A2 2 0 0 1 0 0" style="fill:#333;fill-opacity:1;fill-rule:nonzero;stroke:none" transform="translate(152 170)"/><path d="M0 0a2 2 0 1 1-4.001-.001A2 2 0 0 1 0 0" style="fill:#333;fill-opacity:1;fill-rule:nonzero;stroke:none" transform="translate(160 170)"/><path d="M0 0a2 2 0 1 1-4.001-.001A2 2 0 0 1 0 0" style="fill:#333;fill-opacity:1;fill-rule:nonzero;stroke:none" transform="translate(168 170)"/><path d="M0 0a2 2 0 1 1-4.001-.001A2 2 0 0 1 0 0" style="fill:#333;fill-opacity:1;fill-rule:nonzero;stroke:none" transform="translate(176 170)"/><path d="M0 0a2 2 0 1 1-4.001-.001A2 2 0 0 1 0 0" style="fill:#333;fill-opacity:1;fill-rule:nonzero;stroke:none" transform="translate(184 170)"/><path d="M0 0a2 2 0 1 1-4.001-.001A2 2 0 0 1 0 0" style="fill:#333;fill-opacity:1;fill-rule:nonzero;stroke:none" transform="translate(192 170)"/><path d="M0 0a2 2 0 1 1-4.001-.001A2 2 0 0 1 0 0" style="fill:#333;fill-opacity:1;fill-rule:nonzero;stroke:none" transform="translate(200 170)"/><path d="M0 0a2 2 0 1 1-4.001-.001A2 2 0 0 1 0 0" style="fill:#333;fill-opacity:1;fill-rule:nonzero;stroke:none" transform="translate(208 170)"/><path d="M0 0a2 2 0 1 1-4.001-.001A2 2 0 0 1 0 0" style="fill:#333;fill-opacity:1;fill-rule:nonzero;stroke:none" transform="translate(216 170)"/><path d="M0 0a2 2 0 1 1-4.001-.001A2 2 0 0 1 0 0" style="fill:#333;fill-opacity:1;fill-rule:nonzero;stroke:none" transform="translate(224 170)"/><path d="M0 0a2 2 0 1 1-4.001-.001A2 2 0 0 1 0 0" style="fill:#333;fill-opacity:1;fill-rule:nonzero;stroke:none" transform="translate(232 170)"/><path d="M0 0a2 2 0 1 1-4.001-.001A2 2 0 0 1 0 0" style="fill:#333;fill-opacity:1;fill-rule:nonzero;stroke:none" transform="translate(140 174)"/><path d="M0 0a2 2 0 1 1-4.001-.001A2 2 0 0 1 0 0" style="fill:#333;fill-opacity:1;fill-rule:nonzero;stroke:none" transform="translate(148 174)"/><path d="M0 0a2 2 0 1 1-4.001-.001A2 2 0 0 1 0 0" style="fill:#333;fill-opacity:1;fill-rule:nonzero;stroke:none" transform="translate(156 174)"/><path d="M0 0a2 2 0 1 1-4.001-.001A2 2 0 0 1 0 0" style="fill:#333;fill-opacity:1;fill-rule:nonzero;stroke:none" transform="translate(164 174)"/><path d="M0 0a2 2 0 1 1-4.001-.001A2 2 0 0 1 0 0" style="fill:#333;fill-opacity:1;fill-rule:nonzero;stroke:none" transform="translate(172 174)"/><path d="M0 0a2 2 0 1 1-4.001-.001A2 2 0 0 1 0 0" style="fill:#333;fill-opacity:1;fill-rule:nonzero;stroke:none" transform="translate(180 174)"/><path d="M0 0a2 2 0 1 1-4.001-.001A2 2 0 0 1 0 0" style="fill:#333;fill-opacity:1;fill-rule:nonzero;stroke:none" transform="translate(188 174)"/><path d="M0 0a2 2 0 1 1-4.001-.001A2 2 0 0 1 0 0" style="fill:#333;fill-opacity:1;fill-rule:nonzero;stroke:none" transform="translate(196 174)"/><path d="M0 0a2 2 0 1 1-4.001-.001A2 2 0 0 1 0 0" style="fill:#333;fill-opacity:1;fill-rule:nonzero;stroke:none" transform="translate(204 174)"/><path d="M0 0a2 2 0 1 1-4.001-.001A2 2 0 0 1 0 0" style="fill:#333;fill-opacity:1;fill-rule:nonzero;stroke:none" transform="translate(212 174)"/><path d="M0 0a2 2 0 1 1-4.001-.001A2 2 0 0 1 0 0" style="fill:#333;fill-opacity:1;fill-rule:nonzero;stroke:none" transform="translate(220 174)"/><path d="M0 0a2 2 0 1 1-4.001-.001A2 2 0 0 1 0 0" style="fill:#333;fill-opacity:1;fill-rule:nonzero;stroke:none" transform="translate(228 174)"/><path d="M0 0a2 2 0 1 1-4.001-.001A2 2 0 0 1 0 0" style="fill:#333;fill-opacity:1;fill-rule:nonzero;stroke:none" transform="translate(236 174)"/><path d="M0 0a2 2 0 1 1-4.001-.001A2 2 0 0 1 0 0" style="fill:#333;fill-opacity:1;fill-rule:nonzero;stroke:none" transform="translate(136 178)"/><path d="M0 0a2 2 0 1 1-4.001-.001A2 2 0 0 1 0 0" style="fill:#333;fill-opacity:1;fill-rule:nonzero;stroke:none" transform="translate(144 178)"/><path d="M0 0a2 2 0 1 1-4.001-.001A2 2 0 0 1 0 0" style="fill:#333;fill-opacity:1;fill-rule:nonzero;stroke:none" transform="translate(152 178)"/><path d="M0 0a2 2 0 1 1-4.001-.001A2 2 0 0 1 0 0" style="fill:#333;fill-opacity:1;fill-rule:nonzero;stroke:none" transform="translate(160 178)"/><path d="M0 0a2 2 0 1 1-4.001-.001A2 2 0 0 1 0 0" style="fill:#333;fill-opacity:1;fill-rule:nonzero;stroke:none" transform="translate(168 178)"/><path d="M0 0a2 2 0 1 1-4.001-.001A2 2 0 0 1 0 0" style="fill:#333;fill-opacity:1;fill-rule:nonzero;stroke:none" transform="translate(176 178)"/><path d="M0 0a2 2 0 1 1-4.001-.001A2 2 0 0 1 0 0" style="fill:#333;fill-opacity:1;fill-rule:nonzero;stroke:none" transform="translate(184 178)"/><path d="M0 0a2 2 0 1 1-4.001-.001A2 2 0 0 1 0 0" style="fill:#333;fill-opacity:1;fill-rule:nonzero;stroke:none" transform="translate(192 178)"/><path d="M0 0a2 2 0 1 1-4.001-.001A2 2 0 0 1 0 0" style="fill:#333;fill-opacity:1;fill-rule:nonzero;stroke:none" transform="translate(200 178)"/><path d="M0 0a2 2 0 1 1-4.001-.001A2 2 0 0 1 0 0" style="fill:#333;fill-opacity:1;fill-rule:nonzero;stroke:none" transform="translate(208 178)"/><path d="M0 0a2 2 0 1 1-4.001-.001A2 2 0 0 1 0 0" style="fill:#333;fill-opacity:1;fill-rule:nonzero;stroke:none" transform="translate(216 178)"/><path d="M0 0a2 2 0 1 1-4.001-.001A2 2 0 0 1 0 0" style="fill:#333;fill-opacity:1;fill-rule:nonzero;stroke:none" transform="translate(224 178)"/><path d="M0 0a2 2 0 1 1-4.001-.001A2 2 0 0 1 0 0" style="fill:#333;fill-opacity:1;fill-rule:nonzero;stroke:none" transform="translate(232 178)"/><path d="M0 0a2 2 0 1 1-4.001-.001A2 2 0 0 1 0 0" style="fill:#333;fill-opacity:1;fill-rule:nonzero;stroke:none" transform="translate(140 182)"/><path d="M0 0a2 2 0 1 1-4.001-.001A2 2 0 0 1 0 0" style="fill:#333;fill-opacity:1;fill-rule:nonzero;stroke:none" transform="translate(148 182)"/><path d="M0 0a2 2 0 1 1-4.001-.001A2 2 0 0 1 0 0" style="fill:#333;fill-opacity:1;fill-rule:nonzero;stroke:none" transform="translate(156 182)"/><path d="M0 0a2 2 0 1 1-4.001-.001A2 2 0 0 1 0 0" style="fill:#333;fill-opacity:1;fill-rule:nonzero;stroke:none" transform="translate(164 182)"/><path d="M0 0a2 2 0 1 1-4.001-.001A2 2 0 0 1 0 0" style="fill:#333;fill-opacity:1;fill-rule:nonzero;stroke:none" transform="translate(172 182)"/><path d="M0 0a2 2 0 1 1-4.001-.001A2 2 0 0 1 0 0" style="fill:#333;fill-opacity:1;fill-rule:nonzero;stroke:none" transform="translate(180 182)"/><path d="M0 0a2 2 0 1 1-4.001-.001A2 2 0 0 1 0 0" style="fill:#333;fill-opacity:1;fill-rule:nonzero;stroke:none" transform="translate(188 182)"/><path d="M0 0a2 2 0 1 1-4.001-.001A2 2 0 0 1 0 0" style="fill:#333;fill-opacity:1;fill-rule:nonzero;stroke:none" transform="translate(196 182)"/><path d="M0 0a2 2 0 1 1-4.001-.001A2 2 0 0 1 0 0" style="fill:#333;fill-opacity:1;fill-rule:nonzero;stroke:none" transform="translate(204 182)"/><path d="M0 0a2 2 0 1 1-4.001-.001A2 2 0 0 1 0 0" style="fill:#333;fill-opacity:1;fill-rule:nonzero;stroke:none" transform="translate(212 182)"/><path d="M0 0a2 2 0 1 1-4.001-.001A2 2 0 0 1 0 0" style="fill:#333;fill-opacity:1;fill-rule:nonzero;stroke:none" transform="translate(220 182)"/><path d="M0 0a2 2 0 1 1-4.001-.001A2 2 0 0 1 0 0" style="fill:#333;fill-opacity:1;fill-rule:nonzero;stroke:none" transform="translate(228 182)"/><path d="M0 0a2 2 0 1 1-4.001-.001A2 2 0 0 1 0 0" style="fill:#333;fill-opacity:1;fill-rule:nonzero;stroke:none" transform="translate(236 182)"/><path d="M0 0a2 2 0 1 1-4.001-.001A2 2 0 0 1 0 0" style="fill:#333;fill-opacity:1;fill-rule:nonzero;stroke:none" transform="translate(136 186)"/><path d="M0 0a2 2 0 1 1-4.001-.001A2 2 0 0 1 0 0" style="fill:#333;fill-opacity:1;fill-rule:nonzero;stroke:none" transform="translate(144 186)"/><path d="M0 0a2 2 0 1 1-4.001-.001A2 2 0 0 1 0 0" style="fill:#333;fill-opacity:1;fill-rule:nonzero;stroke:none" transform="translate(152 186)"/><path d="M0 0a2 2 0 1 1-4.001-.001A2 2 0 0 1 0 0" style="fill:#333;fill-opacity:1;fill-rule:nonzero;stroke:none" transform="translate(160 186)"/><path d="M0 0a2 2 0 1 1-4.001-.001A2 2 0 0 1 0 0" style="fill:#333;fill-opacity:1;fill-rule:nonzero;stroke:none" transform="translate(168 186)"/><path d="M0 0a2 2 0 1 1-4.001-.001A2 2 0 0 1 0 0" style="fill:#333;fill-opacity:1;fill-rule:nonzero;stroke:none" transform="translate(176 186)"/><path d="M0 0a2 2 0 1 1-4.001-.001A2 2 0 0 1 0 0" style="fill:#333;fill-opacity:1;fill-rule:nonzero;stroke:none" transform="translate(184 186)"/><path d="M0 0a2 2 0 1 1-4.001-.001A2 2 0 0 1 0 0" style="fill:#333;fill-opacity:1;fill-rule:nonzero;stroke:none" transform="translate(192 186)"/><path d="M0 0a2 2 0 1 1-4.001-.001A2 2 0 0 1 0 0" style="fill:#333;fill-opacity:1;fill-rule:nonzero;stroke:none" transform="translate(200 186)"/><path d="M0 0a2 2 0 1 1-4.001-.001A2 2 0 0 1 0 0" style="fill:#333;fill-opacity:1;fill-rule:nonzero;stroke:none" transform="translate(208 186)"/><path d="M0 0a2 2 0 1 1-4.001-.001A2 2 0 0 1 0 0" style="fill:#333;fill-opacity:1;fill-rule:nonzero;stroke:none" transform="translate(216 186)"/><path d="M0 0a2 2 0 1 1-4.001-.001A2 2 0 0 1 0 0" style="fill:#333;fill-opacity:1;fill-rule:nonzero;stroke:none" transform="translate(224 186)"/><path d="M0 0a2 2 0 1 1-4.001-.001A2 2 0 0 1 0 0" style="fill:#333;fill-opacity:1;fill-rule:nonzero;stroke:none" transform="translate(232 186)"/><path d="M0 0a2 2 0 1 1-4.001-.001A2 2 0 0 1 0 0" style="fill:#333;fill-opacity:1;fill-rule:nonzero;stroke:none" transform="translate(140 190)"/><path d="M0 0a2 2 0 1 1-4.001-.001A2 2 0 0 1 0 0" style="fill:#333;fill-opacity:1;fill-rule:nonzero;stroke:none" transform="translate(148 190)"/><path d="M0 0a2 2 0 1 1-4.001-.001A2 2 0 0 1 0 0" style="fill:#333;fill-opacity:1;fill-rule:nonzero;stroke:none" transform="translate(156 190)"/><path d="M0 0a2 2 0 1 1-4.001-.001A2 2 0 0 1 0 0" style="fill:#333;fill-opacity:1;fill-rule:nonzero;stroke:none" transform="translate(164 190)"/><path d="M0 0a2 2 0 1 1-4.001-.001A2 2 0 0 1 0 0" style="fill:#333;fill-opacity:1;fill-rule:nonzero;stroke:none" transform="translate(172 190)"/><path d="M0 0a2 2 0 1 1-4.001-.001A2 2 0 0 1 0 0" style="fill:#333;fill-opacity:1;fill-rule:nonzero;stroke:none" transform="translate(180 190)"/><path d="M0 0a2 2 0 1 1-4.001-.001A2 2 0 0 1 0 0" style="fill:#333;fill-opacity:1;fill-rule:nonzero;stroke:none" transform="translate(188 190)"/><path d="M0 0a2 2 0 1 1-4.001-.001A2 2 0 0 1 0 0" style="fill:#333;fill-opacity:1;fill-rule:nonzero;stroke:none" transform="translate(196 190)"/><path d="M0 0a2 2 0 1 1-4.001-.001A2 2 0 0 1 0 0" style="fill:#333;fill-opacity:1;fill-rule:nonzero;stroke:none" transform="translate(204 190)"/><path d="M0 0a2 2 0 1 1-4.001-.001A2 2 0 0 1 0 0" style="fill:#333;fill-opacity:1;fill-rule:nonzero;stroke:none" transform="translate(212 190)"/><path d="M0 0a2 2 0 1 1-4.001-.001A2 2 0 0 1 0 0" style="fill:#333;fill-opacity:1;fill-rule:nonzero;stroke:none" transform="translate(220 190)"/><path d="M0 0a2 2 0 1 1-4.001-.001A2 2 0 0 1 0 0" style="fill:#333;fill-opacity:1;fill-rule:nonzero;stroke:none" transform="translate(228 190)"/><path d="M0 0a2 2 0 1 1-4.001-.001A2 2 0 0 1 0 0" style="fill:#333;fill-opacity:1;fill-rule:nonzero;stroke:none" transform="translate(236 190)"/><path d="M0 0a2 2 0 1 1-4.001-.001A2 2 0 0 1 0 0" style="fill:#333;fill-opacity:1;fill-rule:nonzero;stroke:none" transform="translate(136 194)"/><path d="M0 0a2 2 0 1 1-4.001-.001A2 2 0 0 1 0 0" style="fill:#333;fill-opacity:1;fill-rule:nonzero;stroke:none" transform="translate(144 194)"/><path d="M0 0a2 2 0 1 1-4.001-.001A2 2 0 0 1 0 0" style="fill:#333;fill-opacity:1;fill-rule:nonzero;stroke:none" transform="translate(152 194)"/><path d="M0 0a2 2 0 1 1-4.001-.001A2 2 0 0 1 0 0" style="fill:#333;fill-opacity:1;fill-rule:nonzero;stroke:none" transform="translate(160 194)"/><path d="M0 0a2 2 0 1 1-4.001-.001A2 2 0 0 1 0 0" style="fill:#333;fill-opacity:1;fill-rule:nonzero;stroke:none" transform="translate(168 194)"/><path d="M0 0a2 2 0 1 1-4.001-.001A2 2 0 0 1 0 0" style="fill:#333;fill-opacity:1;fill-rule:nonzero;stroke:none" transform="translate(176 194)"/><path d="M0 0a2 2 0 1 1-4.001-.001A2 2 0 0 1 0 0" style="fill:#333;fill-opacity:1;fill-rule:nonzero;stroke:none" transform="translate(184 194)"/><path d="M0 0a2 2 0 1 1-4.001-.001A2 2 0 0 1 0 0" style="fill:#333;fill-opacity:1;fill-rule:nonzero;stroke:none" transform="translate(192 194)"/><path d="M0 0a2 2 0 1 1-4.001-.001A2 2 0 0 1 0 0" style="fill:#333;fill-opacity:1;fill-rule:nonzero;stroke:none" transform="translate(200 194)"/><path d="M0 0a2 2 0 1 1-4.001-.001A2 2 0 0 1 0 0" style="fill:#333;fill-opacity:1;fill-rule:nonzero;stroke:none" transform="translate(208 194)"/><path d="M0 0a2 2 0 1 1-4.001-.001A2 2 0 0 1 0 0" style="fill:#333;fill-opacity:1;fill-rule:nonzero;stroke:none" transform="translate(216 194)"/><path d="M0 0a2 2 0 1 1-4.001-.001A2 2 0 0 1 0 0" style="fill:#333;fill-opacity:1;fill-rule:nonzero;stroke:none" transform="translate(224 194)"/><path d="M0 0a2 2 0 1 1-4.001-.001A2 2 0 0 1 0 0" style="fill:#333;fill-opacity:1;fill-rule:nonzero;stroke:none" transform="translate(232 194)"/><path d="M0 0a2 2 0 1 1-4.001-.001A2 2 0 0 1 0 0" style="fill:#333;fill-opacity:1;fill-rule:nonzero;stroke:none" transform="translate(140 198)"/><path d="M0 0a2 2 0 1 1-4.001-.001A2 2 0 0 1 0 0" style="fill:#333;fill-opacity:1;fill-rule:nonzero;stroke:none" transform="translate(148 198)"/><path d="M0 0a2 2 0 1 1-4.001-.001A2 2 0 0 1 0 0" style="fill:#333;fill-opacity:1;fill-rule:nonzero;stroke:none" transform="translate(156 198)"/><path d="M0 0a2 2 0 1 1-4.001-.001A2 2 0 0 1 0 0" style="fill:#333;fill-opacity:1;fill-rule:nonzero;stroke:none" transform="translate(164 198)"/><path d="M0 0a2 2 0 1 1-4.001-.001A2 2 0 0 1 0 0" style="fill:#333;fill-opacity:1;fill-rule:nonzero;stroke:none" transform="translate(172 198)"/><path d="M0 0a2 2 0 1 1-4.001-.001A2 2 0 0 1 0 0" style="fill:#333;fill-opacity:1;fill-rule:nonzero;stroke:none" transform="translate(180 198)"/><path d="M0 0a2 2 0 1 1-4.001-.001A2 2 0 0 1 0 0" style="fill:#333;fill-opacity:1;fill-rule:nonzero;stroke:none" transform="translate(188 198)"/><path d="M0 0a2 2 0 1 1-4.001-.001A2 2 0 0 1 0 0" style="fill:#333;fill-opacity:1;fill-rule:nonzero;stroke:none" transform="translate(196 198)"/><path d="M0 0a2 2 0 1 1-4.001-.001A2 2 0 0 1 0 0" style="fill:#333;fill-opacity:1;fill-rule:nonzero;stroke:none" transform="translate(204 198)"/><path d="M0 0a2 2 0 1 1-4.001-.001A2 2 0 0 1 0 0" style="fill:#333;fill-opacity:1;fill-rule:nonzero;stroke:none" transform="translate(212 198)"/><path d="M0 0a2 2 0 1 1-4.001-.001A2 2 0 0 1 0 0" style="fill:#333;fill-opacity:1;fill-rule:nonzero;stroke:none" transform="translate(220 198)"/><path d="M0 0a2 2 0 1 1-4.001-.001A2 2 0 0 1 0 0" style="fill:#333;fill-opacity:1;fill-rule:nonzero;stroke:none" transform="translate(228 198)"/><path d="M0 0a2 2 0 1 1-4.001-.001A2 2 0 0 1 0 0" style="fill:#333;fill-opacity:1;fill-rule:nonzero;stroke:none" transform="translate(236 198)"/><path d="M0 0a2 2 0 1 1-4.001-.001A2 2 0 0 1 0 0" style="fill:#333;fill-opacity:1;fill-rule:nonzero;stroke:none" transform="translate(136 202)"/><path d="M0 0a2 2 0 1 1-4.001-.001A2 2 0 0 1 0 0" style="fill:#333;fill-opacity:1;fill-rule:nonzero;stroke:none" transform="translate(144 202)"/><path d="M0 0a2 2 0 1 1-4.001-.001A2 2 0 0 1 0 0" style="fill:#333;fill-opacity:1;fill-rule:nonzero;stroke:none" transform="translate(152 202)"/><path d="M0 0a2 2 0 1 1-4.001-.001A2 2 0 0 1 0 0" style="fill:#333;fill-opacity:1;fill-rule:nonzero;stroke:none" transform="translate(160 202)"/><path d="M0 0a2 2 0 1 1-4.001-.001A2 2 0 0 1 0 0" style="fill:#333;fill-opacity:1;fill-rule:nonzero;stroke:none" transform="translate(168 202)"/><path d="M0 0a2 2 0 1 1-4.001-.001A2 2 0 0 1 0 0" style="fill:#333;fill-opacity:1;fill-rule:nonzero;stroke:none" transform="translate(176 202)"/><path d="M0 0a2 2 0 1 1-4.001-.001A2 2 0 0 1 0 0" style="fill:#333;fill-opacity:1;fill-rule:nonzero;stroke:none" transform="translate(184 202)"/><path d="M0 0a2 2 0 1 1-4.001-.001A2 2 0 0 1 0 0" style="fill:#333;fill-opacity:1;fill-rule:nonzero;stroke:none" transform="translate(192 202)"/><path d="M0 0a2 2 0 1 1-4.001-.001A2 2 0 0 1 0 0" style="fill:#333;fill-opacity:1;fill-rule:nonzero;stroke:none" transform="translate(200 202)"/><path d="M0 0a2 2 0 1 1-4.001-.001A2 2 0 0 1 0 0" style="fill:#333;fill-opacity:1;fill-rule:nonzero;stroke:none" transform="translate(208 202)"/><path d="M0 0a2 2 0 1 1-4.001-.001A2 2 0 0 1 0 0" style="fill:#333;fill-opacity:1;fill-rule:nonzero;stroke:none" transform="translate(216 202)"/><path d="M0 0a2 2 0 1 1-4.001-.001A2 2 0 0 1 0 0" style="fill:#333;fill-opacity:1;fill-rule:nonzero;stroke:none" transform="translate(224 202)"/><path d="M0 0a2 2 0 1 1-4.001-.001A2 2 0 0 1 0 0" style="fill:#333;fill-opacity:1;fill-rule:nonzero;stroke:none" transform="translate(232 202)"/><path d="M0 0a2 2 0 1 1-4.001-.001A2 2 0 0 1 0 0" style="fill:#333;fill-opacity:1;fill-rule:nonzero;stroke:none" transform="translate(140 206)"/><path d="M0 0a2 2 0 1 1-4.001-.001A2 2 0 0 1 0 0" style="fill:#333;fill-opacity:1;fill-rule:nonzero;stroke:none" transform="translate(148 206)"/><path d="M0 0a2 2 0 1 1-4.001-.001A2 2 0 0 1 0 0" style="fill:#333;fill-opacity:1;fill-rule:nonzero;stroke:none" transform="translate(156 206)"/><path d="M0 0a2 2 0 1 1-4.001-.001A2 2 0 0 1 0 0" style="fill:#333;fill-opacity:1;fill-rule:nonzero;stroke:none" transform="translate(164 206)"/><path d="M0 0a2 2 0 1 1-4.001-.001A2 2 0 0 1 0 0" style="fill:#333;fill-opacity:1;fill-rule:nonzero;stroke:none" transform="translate(172 206)"/><path d="M0 0a2 2 0 1 1-4.001-.001A2 2 0 0 1 0 0" style="fill:#333;fill-opacity:1;fill-rule:nonzero;stroke:none" transform="translate(180 206)"/><path d="M0 0a2 2 0 1 1-4.001-.001A2 2 0 0 1 0 0" style="fill:#333;fill-opacity:1;fill-rule:nonzero;stroke:none" transform="translate(188 206)"/><path d="M0 0a2 2 0 1 1-4.001-.001A2 2 0 0 1 0 0" style="fill:#333;fill-opacity:1;fill-rule:nonzero;stroke:none" transform="translate(196 206)"/><path d="M0 0a2 2 0 1 1-4.001-.001A2 2 0 0 1 0 0" style="fill:#333;fill-opacity:1;fill-rule:nonzero;stroke:none" transform="translate(204 206)"/><path d="M0 0a2 2 0 1 1-4.001-.001A2 2 0 0 1 0 0" style="fill:#333;fill-opacity:1;fill-rule:nonzero;stroke:none" transform="translate(212 206)"/><path d="M0 0a2 2 0 1 1-4.001-.001A2 2 0 0 1 0 0" style="fill:#333;fill-opacity:1;fill-rule:nonzero;stroke:none" transform="translate(220 206)"/><path d="M0 0a2 2 0 1 1-4.001-.001A2 2 0 0 1 0 0" style="fill:#333;fill-opacity:1;fill-rule:nonzero;stroke:none" transform="translate(228 206)"/><path d="M0 0a2 2 0 1 1-4.001-.001A2 2 0 0 1 0 0" style="fill:#333;fill-opacity:1;fill-rule:nonzero;stroke:none" transform="translate(236 206)"/></g></svg>