<?xml version="1.0" encoding="UTF-8" standalone="no"?>
<svg
   xmlns:dc="http://purl.org/dc/elements/1.1/"
   xmlns:cc="http://creativecommons.org/ns#"
   xmlns:rdf="http://www.w3.org/1999/02/22-rdf-syntax-ns#"
   xmlns:svg="http://www.w3.org/2000/svg"
   xmlns="http://www.w3.org/2000/svg"
   viewBox="0 0 202.66665 320"
   height="320"
   width="202.66666"
   xml:space="preserve"
   id="svg2"
   version="1.1"><metadata
     id="metadata8"><rdf:RDF><cc:Work
         rdf:about=""><dc:format>image/svg+xml</dc:format><dc:type
           rdf:resource="http://purl.org/dc/dcmitype/StillImage" /></cc:Work></rdf:RDF></metadata><defs
     id="defs6"><clipPath
       id="clipPath18"
       clipPathUnits="userSpaceOnUse"><path
         id="path16"
         d="M 0,256 H 256 V 0 H 0 Z" /></clipPath><clipPath
       id="clipPath26"
       clipPathUnits="userSpaceOnUse"><path
         id="path24"
         d="M 52,248 H 204 V 8 H 52 Z" /></clipPath></defs><g
     transform="matrix(1.3333333,0,0,-1.3333333,-69.333332,330.66666)"
     id="g10"><g
       id="g12"><g
         clip-path="url(#clipPath18)"
         id="g14"><g
           id="g20"><g
             id="g22" /><g
             id="g34"><g
               style="opacity:0.5"
               id="g32"
               clip-path="url(#clipPath26)"><g
                 id="g30"
                 transform="translate(128,248)"><path
                   id="path28"
                   style="fill:#ffffff;fill-opacity:1;fill-rule:nonzero;stroke:none"
                   d="M 0,0 C -9.09,0 -37.489,-0.622 -49.648,-8 H -63.959 C -70.599,-8 -76,-13.401 -76,-20.041 V -216 c 0,-12.964 19.633,-17.583 26.084,-19.101 C -36.489,-238.26 -18.762,-240 0,-240 c 18.762,0 36.489,1.74 49.916,4.899 C 56.367,-233.583 76,-228.964 76,-216 V -20.041 C 76,-13.401 70.599,-8 63.959,-8 H 49.72 C 46.693,-6.127 41.516,-4.057 31.917,-2.404 22.783,-0.832 11.746,0 0,0" /></g></g></g></g><g
           transform="translate(191.959,232)"
           id="g36"><path
             id="path38"
             style="fill:#f2f2f2;fill-opacity:1;fill-rule:nonzero;stroke:none"
             d="m 0,0 h -16.921 c -4.448,4.564 -23.816,8 -47.038,8 -23.222,0 -42.59,-3.436 -47.038,-8 h -16.921 c -2.232,0 -4.041,-1.809 -4.041,-4.041 V -200 c 0,-8.837 30.445,-16 68,-16 37.556,0 68,7.163 68,16 V -4.041 C 4.041,-1.809 2.232,0 0,0" /></g><g
           transform="translate(144,218)"
           id="g40"><path
             id="path42"
             style="fill:#e6e6e6;fill-opacity:1;fill-rule:nonzero;stroke:none"
             d="m 0,0 c 0,-7.732 -6.268,-14 -14,-14 -7.732,0 -14,6.268 -14,14 0,7.732 6.268,14 14,14 C -6.268,14 0,7.732 0,0" /></g><g
           transform="translate(181.6436,208)"
           id="g44"><path
             id="path46"
             style="fill:#d9d9d9;fill-opacity:1;fill-rule:nonzero;stroke:none"
             d="M 0,0 C -0.564,0 -1.115,0.089 -1.644,0.246 V 24 h -4 V 2.955 C -8.472,5.089 -12.809,6.885 -18.732,8.366 -28.106,10.709 -40.505,12 -53.644,12 -66.782,12 -79.181,10.709 -88.555,8.366 -94.479,6.885 -98.815,5.089 -101.644,2.955 V 24 h -4 V 0.246 C -106.172,0.089 -106.723,0 -107.288,0 h -14.356 v -4 h 16 v -182.306 c 1.273,-0.355 2.602,-0.699 4,-1.026 v 184.77 c 0.353,0.292 0.681,0.62 0.976,0.98 4.476,5.469 23.829,9.582 47.024,9.582 23.197,0 42.549,-4.113 47.025,-9.582 0.296,-0.36 0.623,-0.688 0.975,-0.98 v -184.77 c 1.398,0.327 2.727,0.671 4,1.026 V -4 h 16 v 4 z" /></g><path
           id="path48"
           style="fill:#808080;fill-opacity:1;fill-rule:nonzero;stroke:none"
           d="M 172,104 H 84 v 76 h 88 z" /><g
           transform="translate(152,58)"
           id="g50"><path
             id="path52"
             style="fill:#8c8c8c;fill-opacity:1;fill-rule:nonzero;stroke:none"
             d="m 0,0 c 0,-5.522 -4.478,-10 -10,-10 -5.522,0 -10,4.478 -10,10 0,5.522 4.478,10 10,10 C -4.478,10 0,5.522 0,0" /></g><g
           transform="translate(140,82)"
           id="g54"><path
             id="path56"
             style="fill:#8c8c8c;fill-opacity:1;fill-rule:nonzero;stroke:none"
             d="m 0,0 c 0,-3.313 -2.687,-6 -6,-6 -3.313,0 -6,2.687 -6,6 0,3.313 2.687,6 6,6 3.313,0 6,-2.687 6,-6" /></g><g
           transform="translate(116,68)"
           id="g58"><path
             id="path60"
             style="fill:#8c8c8c;fill-opacity:1;fill-rule:nonzero;stroke:none"
             d="m 0,0 c 0,-11.046 -8.954,-20 -20,-20 -11.046,0 -20,8.954 -20,20 0,11.046 8.954,20 20,20 C -8.954,20 0,11.046 0,0" /></g><g
           transform="translate(160,82)"
           id="g62"><path
             id="path64"
             style="fill:#8c8c8c;fill-opacity:1;fill-rule:nonzero;stroke:none"
             d="m 0,0 c 0,-3.313 -2.687,-6 -6,-6 -3.313,0 -6,2.687 -6,6 0,3.313 2.687,6 6,6 3.313,0 6,-2.687 6,-6" /></g><g
           transform="translate(180,66)"
           id="g66"><path
             id="path68"
             style="fill:#8c8c8c;fill-opacity:1;fill-rule:nonzero;stroke:none"
             d="m 0,0 c 0,-5.522 -4.478,-10 -10,-10 -5.522,0 -10,4.478 -10,10 0,5.522 4.478,10 10,10 C -4.478,10 0,5.522 0,0" /></g><g
           transform="translate(104,86.3242)"
           id="g70"><path
             id="path72"
             style="fill:#999999;fill-opacity:1;fill-rule:nonzero;stroke:none"
             d="m 0,0 c -2.451,1.072 -5.154,1.676 -8,1.676 -2.846,0 -5.549,-0.604 -8,-1.676 v -6.324 c 0,-2.209 -1.791,-4 -4,-4 h -6.325 c -1.071,-2.451 -1.675,-5.154 -1.675,-8 0,-2.847 0.604,-5.549 1.675,-8 H -20 c 2.209,0 4,-1.791 4,-4 v -6.324 c 2.451,-1.073 5.154,-1.676 8,-1.676 2.846,0 5.549,0.603 8,1.676 v 6.324 c 0,2.209 1.791,4 4,4 h 6.325 c 1.071,2.451 1.675,5.153 1.675,8 0,2.846 -0.604,5.549 -1.675,8 H 4 c -2.209,0 -4,1.791 -4,4 z" /></g><g
           transform="translate(98,68)"
           id="g74"><path
             id="path76"
             style="fill:#a6a6a6;fill-opacity:1;fill-rule:nonzero;stroke:none"
             d="m 0,0 c 0,-1.104 -0.896,-2 -2,-2 -1.104,0 -2,0.896 -2,2 0,1.104 0.896,2 2,2 1.104,0 2,-0.896 2,-2" /></g></g></g></g></svg>