<svg xmlns="http://www.w3.org/2000/svg" xml:space="preserve" width="202.667" height="320" viewBox="0 0 202.667 320"><defs><clipPath id="a" clipPathUnits="userSpaceOnUse"><path d="M0 256h256V0H0Z"/></clipPath><clipPath id="b" clipPathUnits="userSpaceOnUse"><path d="M52 248h152V8H52Z"/></clipPath></defs><g clip-path="url(#a)" transform="matrix(1.33333 0 0 -1.33333 -69.333 330.667)"><g clip-path="url(#b)" style="opacity:.5"><path d="M0 0c-9.09 0-37.489-.622-49.648-8h-14.311C-70.599-8-76-13.401-76-20.041V-216c0-12.964 19.633-17.583 26.084-19.101C-36.489-238.26-18.762-240 0-240s36.489 1.74 49.916 4.899C56.367-233.583 76-228.964 76-216v195.959C76-13.401 70.599-8 63.959-8H49.72c-3.027 1.873-8.204 3.943-17.803 5.596C22.783-.832 11.746 0 0 0" style="fill:#fff;fill-opacity:1;fill-rule:nonzero;stroke:none" transform="translate(128 248)"/></g><path d="M0 0h-16.921c-4.448 4.564-23.816 8-47.038 8s-42.59-3.436-47.038-8h-16.921a4.04 4.04 0 0 1-4.041-4.041V-200c0-8.837 30.445-16 68-16s68 7.163 68 16V-4.041A4.04 4.04 0 0 1 0 0" style="fill:#f2f2f2;fill-opacity:1;fill-rule:nonzero;stroke:none" transform="translate(191.959 232)"/><path d="M0 0c0-7.732-6.268-14-14-14S-28-7.732-28 0s6.268 14 14 14S0 7.732 0 0" style="fill:#e6e6e6;fill-opacity:1;fill-rule:nonzero;stroke:none" transform="translate(144 218)"/><path d="M0 0a5.8 5.8 0 0 0-1.644.246V24h-4V2.955c-2.828 2.134-7.165 3.93-13.088 5.411C-28.106 10.709-40.505 12-53.644 12s-25.537-1.291-34.911-3.634c-5.924-1.481-10.26-3.277-13.089-5.411V24h-4V.246A5.8 5.8 0 0 0-107.288 0h-14.356v-4h16v-182.306a98 98 0 0 1 4-1.026v184.77q.531.439.976.98C-96.192 3.887-76.839 8-53.644 8c23.197 0 42.549-4.113 47.025-9.582q.446-.541.975-.98v-184.77c1.398.327 2.727.671 4 1.026V-4h16v4z" style="fill:#d9d9d9;fill-opacity:1;fill-rule:nonzero;stroke:none" transform="translate(181.644 208)"/><path d="M172 104H84v76h88z" style="fill:gray;fill-opacity:1;fill-rule:nonzero;stroke:none"/><path d="M0 0c0-5.522-4.478-10-10-10S-20-5.522-20 0s4.478 10 10 10S0 5.522 0 0" style="fill:#8c8c8c;fill-opacity:1;fill-rule:nonzero;stroke:none" transform="translate(152 58)"/><path d="M0 0a6 6 0 0 0-12 0A6 6 0 0 0 0 0" style="fill:#8c8c8c;fill-opacity:1;fill-rule:nonzero;stroke:none" transform="translate(140 82)"/><path d="M0 0c0-11.046-8.954-20-20-20s-20 8.954-20 20 8.954 20 20 20S0 11.046 0 0" style="fill:#8c8c8c;fill-opacity:1;fill-rule:nonzero;stroke:none" transform="translate(116 68)"/><path d="M0 0a6 6 0 0 0-12 0A6 6 0 0 0 0 0" style="fill:#8c8c8c;fill-opacity:1;fill-rule:nonzero;stroke:none" transform="translate(160 82)"/><path d="M0 0c0-5.522-4.478-10-10-10S-20-5.522-20 0s4.478 10 10 10S0 5.522 0 0" style="fill:#8c8c8c;fill-opacity:1;fill-rule:nonzero;stroke:none" transform="translate(180 66)"/><path d="M0 0a19.9 19.9 0 0 1-8 1.676c-2.846 0-5.549-.604-8-1.676v-6.324a4 4 0 0 0-4-4h-6.325a19.93 19.93 0 0 1 0-16H-20a4 4 0 0 0 4-4v-6.324a19.9 19.9 0 0 1 8-1.676c2.846 0 5.549.603 8 1.676v6.324a4 4 0 0 0 4 4h6.325a19.93 19.93 0 0 1 0 16H4a4 4 0 0 0-4 4z" style="fill:#999;fill-opacity:1;fill-rule:nonzero;stroke:none" transform="translate(104 86.324)"/><path d="M0 0a2 2 0 1 0-4.001.001A2 2 0 0 0 0 0" style="fill:#a6a6a6;fill-opacity:1;fill-rule:nonzero;stroke:none" transform="translate(98 68)"/></g></svg>