<svg xmlns="http://www.w3.org/2000/svg" xml:space="preserve" width="330.666" height="288" viewBox="0 0 330.666 288"><defs><clipPath id="a" clipPathUnits="userSpaceOnUse"><path d="M0 256h256V0H0Z"/></clipPath><clipPath id="b" clipPathUnits="userSpaceOnUse"><path d="M4 236h248V20H4Z"/></clipPath></defs><g clip-path="url(#a)" transform="matrix(1.33333 0 0 -1.33333 -5.333 314.666)"><g clip-path="url(#b)" style="opacity:.5"><path d="M0 0c-.283.293-.76.898-.76 1.657V6.59c0 .891.548 1.596.875 1.936C7.289 16.005 11.24 25.827 11.24 36.184c0 10.354-3.949 20.175-11.12 27.652-.329.343-.88 1.052-.88 1.951v4.921c0 .762.468 1.358.747 1.646 8.01 8.273 12.062 19.625 11.116 31.145-1.574 19.151-16.954 34.469-36.588 36.459l-.027.003-.131.013c-.716.07-1.387.12-2.038.151q-.92.045-1.832.074c-.927.03-1.835.044-2.695.044a69 69 0 0 1-2.823-.056c-9.162-.377-16.218-2.84-21.573-7.528-.383-.337-.792-.529-1.12-.529h-5.308c-3.302 0-6.548.728-9.388 2.107-11.196 5.437-25.471 5.888-40.34 5.888s-29.143-.451-40.34-5.888c-2.839-1.379-6.086-2.107-9.388-2.107h-5.308c-.328 0-.736.192-1.121.529-5.354 4.688-12.41 7.151-21.571 7.528-.903.037-1.853.056-2.824.056-.86 0-1.767-.014-2.696-.044q-.91-.029-1.831-.074a41 41 0 0 1-2.049-.152l-.106-.011-.032-.004c-19.632-1.981-35.022-17.302-36.596-36.459-.946-11.52 3.106-22.873 11.117-31.146.278-.287.745-.883.745-1.643v-4.932c0-.892-.548-1.596-.874-1.937-7.175-7.478-11.126-17.3-11.126-27.657 0-10.354 3.949-20.174 11.121-27.653.328-.342.879-1.051.879-1.95V1.659c0-.76-.477-1.367-.761-1.661-7.76-8.022-11.83-19.03-11.166-30.199.03-.518.074-1.044.134-1.611a40 40 0 0 1-.134-6.388c.576-9.698 4.723-18.866 11.677-25.817 6.952-6.948 16.124-11.092 25.825-11.668a40.13 40.13 0 0 1 27.251 8.567c2.729 2.163 6.208 3.353 9.797 3.353h.623c2.776 0 5.607-.779 8.187-2.253 10.992-6.28 25.398-9.739 40.567-9.739s29.576 3.459 40.568 9.739c2.58 1.474 5.411 2.253 8.186 2.253h.624c3.588 0 7.068-1.19 9.796-3.353a40.13 40.13 0 0 1 27.251-8.567c9.701.576 18.873 4.72 25.826 11.668C6.445-57.066 10.592-47.898 11.168-38.2c.125 2.101.08 4.246-.134 6.388.06.567.104 1.093.134 1.611C11.832-19.031 7.762-8.024 0 0" style="fill:#fff;fill-opacity:1;fill-rule:nonzero;stroke:none" transform="translate(240.76 95.757)"/></g><path d="M0 0a32.4 32.4 0 0 1-.204-5.97c.951-16.005 13.976-29.021 29.991-29.972 8.257-.49 15.883 2.154 21.808 6.85 4.193 3.323 9.413 5.084 14.766 5.084h.623c4.275 0 8.444-1.186 12.156-3.306C88.536-32.684 101.465-36 115.738-36s27.202 3.316 36.599 8.686c3.711 2.12 7.88 3.306 12.155 3.306h.624c5.353 0 10.572-1.761 14.766-5.084 5.925-4.696 13.551-7.34 21.807-6.85 16.015.951 29.04 13.967 29.992 29.972.12 2.035.04 4.028-.204 5.97z" style="fill:#263979;fill-opacity:1;fill-rule:nonzero;stroke:none" transform="translate(12.262 64)"/><path d="M0 0c0 8.583-3.387 16.372-8.895 22.115C-10.839 24.143-12 26.793-12 29.603v4.921c0 2.707 1.116 5.266 2.999 7.211C-2.855 48.082.686 56.962-.111 66.66c-1.33 16.195-14.957 28.501-31.199 29.291-9.085.442-17.327-.296-23.263-5.495-1.783-1.561-4.02-2.511-6.391-2.511h-5.308c-4.458 0-8.873.965-12.883 2.912C-88.57 95.43-101.602 95.94-116 95.94s-27.429-.51-36.845-5.083c-4.01-1.947-8.425-2.912-12.883-2.912h-5.308c-2.371 0-4.608.95-6.391 2.511-5.937 5.199-14.178 5.937-23.263 5.495-16.241-.79-29.869-13.096-31.199-29.291-.797-9.699 2.745-18.579 8.891-24.926 1.883-1.944 2.998-4.502 2.998-7.208v-4.932c0-2.805-1.159-5.45-3.102-7.475C-228.611 16.375-232 8.585-232 0c0-8.583 3.387-16.373 8.895-22.115 1.944-2.028 3.105-4.678 3.105-7.488v-4.922c0-2.712-1.125-5.272-3.011-7.223-5.979-6.182-9.489-14.763-8.931-24.163.951-16.005 13.976-29.021 29.991-29.972 8.257-.49 15.883 2.154 21.807 6.85 4.194 3.324 9.414 5.084 14.767 5.084h.623c4.275 0 8.444-1.186 12.155-3.306 9.396-5.37 22.326-8.686 36.599-8.686s27.202 3.316 36.599 8.686c3.711 2.12 7.88 3.306 12.155 3.306h.624c5.352 0 10.572-1.76 14.766-5.084 5.924-4.696 13.55-7.34 21.807-6.85 16.015.951 29.04 13.967 29.991 29.972.558 9.4-2.952 17.982-8.932 24.164-1.886 1.951-3.01 4.509-3.01 7.22v4.933c0 2.805 1.159 5.45 3.102 7.474C-3.389-16.375 0-8.585 0 0" style="fill:#e77f22;fill-opacity:1;fill-rule:nonzero;stroke:none" transform="translate(244 131.94)"/><path d="M0 0h160a8 8 0 0 1 8 8v99.681a34 34 0 0 1-3.31.329c-9.085.442-17.327-.296-23.263-5.498-1.783-1.563-4.02-2.512-6.391-2.512h-5.308c-4.458 0-8.873.964-12.883 2.913C107.43 107.488 94.398 108 80 108s-27.43-.512-36.845-5.087C39.145 100.964 34.73 100 30.272 100h-5.308c-2.371 0-4.608.949-6.391 2.512-5.937 5.202-14.178 5.94-23.263 5.498a34 34 0 0 1-3.31-.329V8a8 8 0 0 1 8-8" style="fill:#263979;fill-opacity:1;fill-rule:nonzero;stroke:none" transform="translate(48 119.882)"/><path d="M0 0v20.497h-88V0a25.2 25.2 0 0 0 7.401-2.817c9.396-5.37 22.326-8.686 36.599-8.686s27.202 3.316 36.599 8.686A25.2 25.2 0 0 0 0 0" style="fill:#d35400;fill-opacity:1;fill-rule:nonzero;stroke:none" transform="translate(172 47.503)"/><path d="M0 0c6.627 0 12 5.373 12 12h-24C-12 5.373-6.627 0 0 0" style="fill:#d35400;fill-opacity:1;fill-rule:nonzero;stroke:none" transform="translate(128 108)"/><path d="M0 0c-6.627 0-12-5.373-12-12h24C12-5.373 6.627 0 0 0" style="fill:#f39b11;fill-opacity:1;fill-rule:nonzero;stroke:none" transform="translate(128 80)"/><path d="M0 0c-6.627 0-12-5.373-12-12h24C12-5.373 6.627 0 0 0" style="fill:#354f9f;fill-opacity:1;fill-rule:nonzero;stroke:none" transform="translate(128 132)"/><path d="M0 0c0 30.928 25.072 56 56 56s56-25.072 56-56c0-5.562-.822-10.929-2.332-16h4.148A59.8 59.8 0 0 1 116 0c0 33.084-26.916 60-60 60S-4 33.084-4 0c0-5.541.771-10.902 2.183-16h4.149A56 56 0 0 0 0 0" style="fill:#354f9f;fill-opacity:1;fill-rule:nonzero;stroke:none" transform="translate(72 136)"/><path d="M0 0a68.2 68.2 0 0 0-1.911 16c0 37.555 30.445 68 68 68s68-30.445 68-68a68.2 68.2 0 0 0-1.911-16h4.096a72 72 0 0 1 1.815 16c0 39.701-32.299 72-72 72s-72-32.299-72-72c0-5.5.64-10.851 1.814-16z" style="fill:#354f9f;fill-opacity:1;fill-rule:nonzero;stroke:none" transform="translate(61.911 120)"/><path d="M0 0c0 24.301 19.699 44 44 44S88 24.301 88 0a43.9 43.9 0 0 0-3.014-16h4.262A47.8 47.8 0 0 1 92 0c0 26.467-21.533 48-48 48S-4 26.467-4 0c0-5.609.976-10.992 2.752-16h4.262A43.9 43.9 0 0 0 0 0" style="fill:#354f9f;fill-opacity:1;fill-rule:nonzero;stroke:none" transform="translate(84 136)"/><path d="M0 0c0 17.673 14.327 32 32 32S64 17.673 64 0a31.84 31.84 0 0 0-4.292-16h4.528A35.8 35.8 0 0 1 68 0c0 19.851-16.149 36-36 36S-4 19.851-4 0c0-5.745 1.36-11.177 3.764-16h4.528A31.84 31.84 0 0 0 0 0" style="fill:#354f9f;fill-opacity:1;fill-rule:nonzero;stroke:none" transform="translate(96 136)"/><path d="M168 50H88v2h80z" style="fill:#e77f22;fill-opacity:1;fill-rule:nonzero;stroke:none"/><path d="M0 0c0-7.732-6.268-14-14-14S-28-7.732-28 0s6.268 14 14 14S0 7.732 0 0" style="fill:red;fill-opacity:1;fill-rule:nonzero;stroke:none" transform="translate(60 70)"/></g></svg>