<?xml version="1.0" encoding="UTF-8" standalone="no"?>
<svg
   xmlns:dc="http://purl.org/dc/elements/1.1/"
   xmlns:cc="http://creativecommons.org/ns#"
   xmlns:rdf="http://www.w3.org/1999/02/22-rdf-syntax-ns#"
   xmlns:svg="http://www.w3.org/2000/svg"
   xmlns="http://www.w3.org/2000/svg"
   viewBox="0 0 330.66638 287.99972"
   height="287.99973"
   width="330.66638"
   xml:space="preserve"
   id="svg2"
   version="1.1"><metadata
     id="metadata8"><rdf:RDF><cc:Work
         rdf:about=""><dc:format>image/svg+xml</dc:format><dc:type
           rdf:resource="http://purl.org/dc/dcmitype/StillImage" /></cc:Work></rdf:RDF></metadata><defs
     id="defs6"><clipPath
       id="clipPath18"
       clipPathUnits="userSpaceOnUse"><path
         id="path16"
         d="M 0,256 H 256 V 0 H 0 Z" /></clipPath><clipPath
       id="clipPath26"
       clipPathUnits="userSpaceOnUse"><path
         id="path24"
         d="M 4,236 H 252 V 20 H 4 Z" /></clipPath></defs><g
     transform="matrix(1.3333333,0,0,-1.3333333,-5.3333332,314.66639)"
     id="g10"><g
       id="g12"><g
         clip-path="url(#clipPath18)"
         id="g14"><g
           id="g20"><g
             id="g22" /><g
             id="g34"><g
               style="opacity:0.5"
               id="g32"
               clip-path="url(#clipPath26)"><g
                 id="g30"
                 transform="translate(240.7598,95.7568)"><path
                   id="path28"
                   style="fill:#ffffff;fill-opacity:1;fill-rule:nonzero;stroke:none"
                   d="M 0,0 C -0.283,0.293 -0.76,0.898 -0.76,1.657 V 6.59 c 0,0.891 0.548,1.596 0.875,1.936 7.174,7.479 11.125,17.301 11.125,27.658 0,10.354 -3.949,20.175 -11.12,27.652 -0.329,0.343 -0.88,1.052 -0.88,1.951 v 4.921 c 0,0.762 0.468,1.358 0.747,1.646 8.01,8.273 12.062,19.625 11.116,31.145 -1.574,19.151 -16.954,34.469 -36.588,36.459 l -0.027,0.003 -0.131,0.013 c -0.716,0.07 -1.387,0.12 -2.038,0.151 -0.614,0.03 -1.224,0.055 -1.832,0.074 -0.927,0.03 -1.835,0.044 -2.695,0.044 -0.971,0 -1.921,-0.019 -2.823,-0.056 -9.162,-0.377 -16.218,-2.84 -21.573,-7.528 -0.383,-0.337 -0.792,-0.529 -1.12,-0.529 h -5.308 c -3.302,0 -6.548,0.728 -9.388,2.107 -11.196,5.437 -25.471,5.888 -40.34,5.888 -14.869,0 -29.143,-0.451 -40.34,-5.888 -2.839,-1.379 -6.086,-2.107 -9.388,-2.107 h -5.308 c -0.328,0 -0.736,0.192 -1.121,0.529 -5.354,4.688 -12.41,7.151 -21.571,7.528 -0.903,0.037 -1.853,0.056 -2.824,0.056 -0.86,0 -1.767,-0.014 -2.696,-0.044 -0.606,-0.019 -1.217,-0.044 -1.831,-0.074 -0.651,-0.031 -1.321,-0.081 -2.049,-0.152 l -0.106,-0.011 -0.032,-0.004 c -19.632,-1.981 -35.022,-17.302 -36.596,-36.459 -0.946,-11.52 3.106,-22.873 11.117,-31.146 0.278,-0.287 0.745,-0.883 0.745,-1.643 v -4.932 c 0,-0.892 -0.548,-1.596 -0.874,-1.937 -7.175,-7.478 -11.126,-17.3 -11.126,-27.657 0,-10.354 3.949,-20.174 11.121,-27.653 0.328,-0.342 0.879,-1.051 0.879,-1.95 V 1.659 c 0,-0.76 -0.477,-1.367 -0.761,-1.661 -7.76,-8.022 -11.83,-19.03 -11.166,-30.199 0.03,-0.518 0.074,-1.044 0.134,-1.611 -0.214,-2.143 -0.259,-4.287 -0.134,-6.388 0.576,-9.698 4.723,-18.866 11.677,-25.817 6.952,-6.948 16.124,-11.092 25.825,-11.668 0.805,-0.047 1.621,-0.072 2.425,-0.072 8.982,0 17.798,3.069 24.826,8.639 2.729,2.163 6.208,3.353 9.797,3.353 h 0.623 c 2.776,0 5.607,-0.779 8.187,-2.253 10.992,-6.28 25.398,-9.739 40.567,-9.739 15.169,0 29.576,3.459 40.568,9.739 2.58,1.474 5.411,2.253 8.186,2.253 h 0.624 c 3.588,0 7.068,-1.19 9.796,-3.353 7.028,-5.57 15.845,-8.639 24.826,-8.639 0.804,0 1.619,0.025 2.425,0.072 9.701,0.576 18.873,4.72 25.826,11.668 6.954,6.951 11.101,16.119 11.677,25.817 0.125,2.101 0.08,4.246 -0.134,6.388 0.06,0.567 0.104,1.093 0.134,1.611 C 11.832,-19.031 7.762,-8.024 0,0" /></g></g></g></g><g
           transform="translate(12.2617,64)"
           id="g36"><path
             id="path38"
             style="fill:#263979;fill-opacity:1;fill-rule:nonzero;stroke:none"
             d="m 0,0 c -0.244,-1.942 -0.325,-3.935 -0.204,-5.97 0.951,-16.005 13.976,-29.021 29.991,-29.972 8.257,-0.49 15.883,2.154 21.808,6.85 4.193,3.323 9.413,5.084 14.766,5.084 h 0.623 c 4.275,0 8.444,-1.186 12.156,-3.306 9.396,-5.37 22.325,-8.686 36.598,-8.686 14.274,0 27.202,3.316 36.599,8.686 3.711,2.12 7.88,3.306 12.155,3.306 h 0.624 c 5.353,0 10.572,-1.761 14.766,-5.084 5.925,-4.696 13.551,-7.34 21.807,-6.85 16.015,0.951 29.04,13.967 29.992,29.972 0.12,2.035 0.04,4.028 -0.204,5.97 z" /></g><g
           transform="translate(244,131.9409)"
           id="g40"><path
             id="path42"
             style="fill:#e77f22;fill-opacity:1;fill-rule:nonzero;stroke:none"
             d="M 0,0 C 0,8.583 -3.387,16.372 -8.895,22.115 -10.839,24.143 -12,26.793 -12,29.603 v 4.921 c 0,2.707 1.116,5.266 2.999,7.211 6.146,6.347 9.687,15.227 8.89,24.925 -1.33,16.195 -14.957,28.501 -31.199,29.291 -9.085,0.442 -17.327,-0.296 -23.263,-5.495 -1.783,-1.561 -4.02,-2.511 -6.391,-2.511 h -5.308 c -4.458,0 -8.873,0.965 -12.883,2.912 -9.415,4.573 -22.447,5.083 -36.845,5.083 -14.399,0 -27.429,-0.51 -36.845,-5.083 -4.01,-1.947 -8.425,-2.912 -12.883,-2.912 h -5.308 c -2.371,0 -4.608,0.95 -6.391,2.511 -5.937,5.199 -14.178,5.937 -23.263,5.495 -16.241,-0.79 -29.869,-13.096 -31.199,-29.291 -0.797,-9.699 2.745,-18.579 8.891,-24.926 1.883,-1.944 2.998,-4.502 2.998,-7.208 v -4.932 c 0,-2.805 -1.159,-5.45 -3.102,-7.475 C -228.611,16.375 -232,8.585 -232,0 c 0,-8.583 3.387,-16.373 8.895,-22.115 1.944,-2.028 3.105,-4.678 3.105,-7.488 v -4.922 c 0,-2.712 -1.125,-5.272 -3.011,-7.223 -5.979,-6.182 -9.489,-14.763 -8.931,-24.163 0.951,-16.005 13.976,-29.021 29.991,-29.972 8.257,-0.49 15.883,2.154 21.807,6.85 4.194,3.324 9.414,5.084 14.767,5.084 h 0.623 c 4.275,0 8.444,-1.186 12.155,-3.306 9.396,-5.37 22.326,-8.686 36.599,-8.686 14.273,0 27.202,3.316 36.599,8.686 3.711,2.12 7.88,3.306 12.155,3.306 h 0.624 c 5.352,0 10.572,-1.76 14.766,-5.084 5.924,-4.696 13.55,-7.34 21.807,-6.85 16.015,0.951 29.04,13.967 29.991,29.972 0.558,9.4 -2.952,17.982 -8.932,24.164 -1.886,1.951 -3.01,4.509 -3.01,7.22 v 4.933 c 0,2.805 1.159,5.45 3.102,7.474 C -3.389,-16.375 0,-8.585 0,0" /></g><g
           transform="translate(48,119.8818)"
           id="g44"><path
             id="path46"
             style="fill:#263979;fill-opacity:1;fill-rule:nonzero;stroke:none"
             d="m 0,0 h 160 c 4.418,0 8,3.581 8,8 v 99.681 c -1.089,0.16 -2.192,0.275 -3.31,0.329 -9.085,0.442 -17.327,-0.296 -23.263,-5.498 -1.783,-1.563 -4.02,-2.512 -6.391,-2.512 h -5.308 c -4.458,0 -8.873,0.964 -12.883,2.913 C 107.43,107.488 94.398,108 80,108 65.601,108 52.57,107.488 43.155,102.913 39.145,100.964 34.73,100 30.272,100 h -5.308 c -2.371,0 -4.608,0.949 -6.391,2.512 -5.937,5.202 -14.178,5.94 -23.263,5.498 -1.118,-0.054 -2.221,-0.169 -3.31,-0.329 L -8,8 C -8,3.581 -4.418,0 0,0" /></g><g
           transform="translate(172,47.5029)"
           id="g48"><path
             id="path50"
             style="fill:#d35400;fill-opacity:1;fill-rule:nonzero;stroke:none"
             d="M 0,0 V 20.497 H -88 V 0 c 2.588,-0.534 5.084,-1.494 7.401,-2.817 9.396,-5.37 22.326,-8.686 36.599,-8.686 14.273,0 27.202,3.316 36.599,8.686 C -5.084,-1.494 -2.589,-0.534 0,0" /></g><g
           transform="translate(128,108)"
           id="g52"><path
             id="path54"
             style="fill:#d35400;fill-opacity:1;fill-rule:nonzero;stroke:none"
             d="M 0,0 C 6.627,0 12,5.373 12,12 H -12 C -12,5.373 -6.627,0 0,0" /></g><g
           transform="translate(128,80)"
           id="g56"><path
             id="path58"
             style="fill:#f39b11;fill-opacity:1;fill-rule:nonzero;stroke:none"
             d="M 0,0 C -6.627,0 -12,-5.373 -12,-12 H 12 C 12,-5.373 6.627,0 0,0" /></g><g
           transform="translate(128,132)"
           id="g60"><path
             id="path62"
             style="fill:#354f9f;fill-opacity:1;fill-rule:nonzero;stroke:none"
             d="M 0,0 C -6.627,0 -12,-5.373 -12,-12 H 12 C 12,-5.373 6.627,0 0,0" /></g><g
           transform="translate(72,136)"
           id="g64"><path
             id="path66"
             style="fill:#354f9f;fill-opacity:1;fill-rule:nonzero;stroke:none"
             d="m 0,0 c 0,30.928 25.072,56 56,56 30.928,0 56,-25.072 56,-56 0,-5.562 -0.822,-10.929 -2.332,-16 h 4.148 C 115.229,-10.902 116,-5.541 116,0 116,33.084 89.084,60 56,60 22.916,60 -4,33.084 -4,0 c 0,-5.541 0.771,-10.902 2.183,-16 H 2.332 C 0.822,-10.929 0,-5.562 0,0" /></g><g
           transform="translate(61.9111,120)"
           id="g68"><path
             id="path70"
             style="fill:#354f9f;fill-opacity:1;fill-rule:nonzero;stroke:none"
             d="m 0,0 c -1.238,5.133 -1.911,10.487 -1.911,16 0,37.555 30.445,68 68,68 37.556,0 68,-30.445 68,-68 0,-5.513 -0.673,-10.867 -1.911,-16 h 4.096 c 1.174,5.149 1.815,10.5 1.815,16 0,39.701 -32.299,72 -72,72 -39.701,0 -72,-32.299 -72,-72 0,-5.5 0.64,-10.851 1.814,-16 z" /></g><g
           transform="translate(84,136)"
           id="g72"><path
             id="path74"
             style="fill:#354f9f;fill-opacity:1;fill-rule:nonzero;stroke:none"
             d="M 0,0 C 0,24.301 19.699,44 44,44 68.301,44 88,24.301 88,0 88,-5.647 86.925,-11.039 84.986,-16 h 4.262 C 91.023,-10.992 92,-5.609 92,0 92,26.467 70.467,48 44,48 17.533,48 -4,26.467 -4,0 c 0,-5.609 0.976,-10.992 2.752,-16 H 3.014 C 1.075,-11.039 0,-5.647 0,0" /></g><g
           transform="translate(96,136)"
           id="g76"><path
             id="path78"
             style="fill:#354f9f;fill-opacity:1;fill-rule:nonzero;stroke:none"
             d="M 0,0 C 0,17.673 14.327,32 32,32 49.673,32 64,17.673 64,0 64,-5.831 62.433,-11.292 59.708,-16 h 4.528 C 66.64,-11.177 68,-5.745 68,0 68,19.851 51.851,36 32,36 12.149,36 -4,19.851 -4,0 c 0,-5.745 1.36,-11.177 3.764,-16 H 4.292 C 1.567,-11.292 0,-5.831 0,0" /></g><path
           id="path80"
           style="fill:#e77f22;fill-opacity:1;fill-rule:nonzero;stroke:none"
           d="M 168,50 H 88 v 2 h 80 z" /><g
           transform="translate(60,70)"
           id="g82"><path
             id="path84"
             style="fill:#ff0000;fill-opacity:1;fill-rule:nonzero;stroke:none"
             d="m 0,0 c 0,-7.732 -6.268,-14 -14,-14 -7.732,0 -14,6.268 -14,14 0,7.732 6.268,14 14,14 C -6.268,14 0,7.732 0,0" /></g></g></g></g></svg>