<svg xmlns="http://www.w3.org/2000/svg" xml:space="preserve" viewBox="0 0 256 256"><path d="M184 4H72C56.561 4 44 16.561 44 32v192c0 15.439 12.561 28 28 28h102c20.953 0 38-17.047 38-38V32c0-15.439-12.561-28-28-28" style="opacity:.5;fill:#fff"/><path d="M174 244H72c-11.046 0-20-8.954-20-20V32c0-11.046 8.954-20 20-20h112c11.046 0 20 8.954 20 20v182c0 16.569-13.431 30-30 30" style="fill:#d9d9d9"/><circle cx="153.091" cy="187.845" r="10.909" style="fill:#74b743"/><circle cx="173.273" cy="162.572" r="10.727" style="fill:#74b743"/><path d="M124 164h-16v-16H92v16H76v16h16v16h16v-16h16z" style="fill:gray"/><path d="M180 128H76a4 4 0 0 1-4-4V36a4 4 0 0 1 4-4h104a4 4 0 0 1 4 4v88a4 4 0 0 1-4 4" style="fill:#74b743"/></svg>