<svg xmlns="http://www.w3.org/2000/svg" xml:space="preserve" width="213.333" height="330.667" viewBox="0 0 213.333 330.667"><defs><clipPath id="a" clipPathUnits="userSpaceOnUse"><path d="M0 256h256V0H0Z"/></clipPath><clipPath id="b" clipPathUnits="userSpaceOnUse"><path d="M48 252h160V4H48Z"/></clipPath></defs><g clip-path="url(#a)" transform="matrix(1.33333 0 0 -1.33333 -64 336)"><g clip-path="url(#b)" style="opacity:.5"><path d="M0 0h-128c-8.822 0-16-7.178-16-16v-100c0-8.822 7.178-16 16-16h4v-.506c-6.893-1.781-12-8.053-12-15.494v-48c0-28.673 23.327-52 52-52h40c28.673 0 52 23.327 52 52v48c0 7.441-5.106 13.713-12 15.494v.506h4c8.822 0 16 7.178 16 16v100C16-7.178 8.822 0 0 0" style="fill:#fff;fill-opacity:1;fill-rule:nonzero;stroke:none" transform="translate(192 252)"/></g><path d="M0 0h-128a8 8 0 0 0-8 8v100a8 8 0 0 0 8 8H0a8 8 0 0 0 8-8V8a8 8 0 0 0-8-8" style="fill:#666;fill-opacity:1;fill-rule:nonzero;stroke:none" transform="translate(192 128)"/><path d="M0 0h-112a4 4 0 0 0-4 4v80a4 4 0 0 0 4 4H0a4 4 0 0 0 4-4V4a4 4 0 0 0-4-4" style="fill:#262626;fill-opacity:1;fill-rule:nonzero;stroke:none" transform="translate(184 144)"/><path d="M164 152H88v72h76z" style="fill:#485915;fill-opacity:1;fill-rule:nonzero;stroke:none"/><path d="M180 112H76v16h104z" style="fill:#191919;fill-opacity:1;fill-rule:nonzero;stroke:none"/><path d="M180 122H76v2h104zm0 4H76v2h104zm0-8H76v2h104zm0-4H76v2h104z" style="fill:#262626;fill-opacity:1;fill-rule:nonzero;stroke:none"/><path d="M0 0h-112a8 8 0 0 1-8-8v-48c0-24.301 19.699-44 44-44h40c24.301 0 44 19.699 44 44v48a8 8 0 0 1-8 8" style="fill:#4c4c4c;fill-opacity:1;fill-rule:nonzero;stroke:none" transform="translate(184 112)"/><path d="M0 0v-56c0-19.851-16.149-36-36-36h-40c-19.851 0-36 16.149-36 36V0z" style="fill:#666;fill-opacity:1;fill-rule:nonzero;stroke:none" transform="translate(184 112)"/><path d="m0 0-9.657 9.656a4 4 0 0 1-2.828 1.172h-4.687A4 4 0 0 1-20 9.656L-29.657 0a4 4 0 0 1-1.172-2.829v-4.686c0-1.061.422-2.079 1.172-2.829L-20-20a4 4 0 0 1 2.828-1.172h4.687c1.06 0 2.078.422 2.828 1.172L0-10.344a4 4 0 0 1 1.171 2.829v4.686A4 4 0 0 1 0 0" style="fill:#191919;fill-opacity:1;fill-rule:nonzero;stroke:none" transform="translate(110.829 81.172)"/><path d="M0 0h-8v8a4 4 0 0 1-8 0V0h-8a4 4 0 0 1 0-8h8v-8a4 4 0 0 1 8 0v8h8a4 4 0 0 1 0 8" style="fill:#262626;fill-opacity:1;fill-rule:nonzero;stroke:none" transform="translate(108 80)"/><path d="M0 0a8 8 0 1 0-16 0A8 8 0 0 0 0 0" style="fill:#1abf9f;fill-opacity:1;fill-rule:nonzero;stroke:none" transform="translate(148 68)"/><path d="M0 0a8 8 0 1 0-16 0A8 8 0 0 0 0 0" style="fill:#1abf9f;fill-opacity:1;fill-rule:nonzero;stroke:none" transform="translate(172 80)"/><path d="M172 50h-16v2h16zm-4-4h-16v2h16zm-4-4h-16v2h16z" style="fill:#191919;fill-opacity:1;fill-rule:nonzero;stroke:none"/><path d="M0 0h-12a2 2 0 0 0 0 4H0a2 2 0 0 0 0-4" style="fill:#191919;fill-opacity:1;fill-rule:nonzero;stroke:none" transform="translate(162 100)"/><path d="M0 0h-12a2 2 0 0 0 0 4H0a2 2 0 0 0 0-4" style="fill:#191919;fill-opacity:1;fill-rule:nonzero;stroke:none" transform="translate(142 100)"/></g></svg>