<?xml version="1.0" encoding="UTF-8" standalone="no"?>
<svg
   xmlns:dc="http://purl.org/dc/elements/1.1/"
   xmlns:cc="http://creativecommons.org/ns#"
   xmlns:rdf="http://www.w3.org/1999/02/22-rdf-syntax-ns#"
   xmlns:svg="http://www.w3.org/2000/svg"
   xmlns="http://www.w3.org/2000/svg"
   viewBox="0 0 213.33333 330.66665"
   height="330.66666"
   width="213.33333"
   xml:space="preserve"
   id="svg2"
   version="1.1"><metadata
     id="metadata8"><rdf:RDF><cc:Work
         rdf:about=""><dc:format>image/svg+xml</dc:format><dc:type
           rdf:resource="http://purl.org/dc/dcmitype/StillImage" /></cc:Work></rdf:RDF></metadata><defs
     id="defs6"><clipPath
       id="clipPath18"
       clipPathUnits="userSpaceOnUse"><path
         id="path16"
         d="M 0,256 H 256 V 0 H 0 Z" /></clipPath><clipPath
       id="clipPath26"
       clipPathUnits="userSpaceOnUse"><path
         id="path24"
         d="M 48,252 H 208 V 4 H 48 Z" /></clipPath></defs><g
     transform="matrix(1.3333333,0,0,-1.3333333,-63.999998,335.99999)"
     id="g10"><g
       id="g12"><g
         clip-path="url(#clipPath18)"
         id="g14"><g
           id="g20"><g
             id="g22" /><g
             id="g34"><g
               style="opacity:0.5"
               id="g32"
               clip-path="url(#clipPath26)"><g
                 id="g30"
                 transform="translate(192,252)"><path
                   id="path28"
                   style="fill:#ffffff;fill-opacity:1;fill-rule:nonzero;stroke:none"
                   d="m 0,0 h -128 c -8.822,0 -16,-7.178 -16,-16 v -100 c 0,-8.822 7.178,-16 16,-16 h 4 v -0.506 c -6.893,-1.781 -12,-8.053 -12,-15.494 v -48 c 0,-28.673 23.327,-52 52,-52 h 40 c 28.673,0 52,23.327 52,52 v 48 c 0,7.441 -5.106,13.713 -12,15.494 V -132 h 4 c 8.822,0 16,7.178 16,16 V -16 C 16,-7.178 8.822,0 0,0" /></g></g></g></g><g
           transform="translate(192,128)"
           id="g36"><path
             id="path38"
             style="fill:#666666;fill-opacity:1;fill-rule:nonzero;stroke:none"
             d="m 0,0 h -128 c -4.418,0 -8,3.582 -8,8 v 100 c 0,4.418 3.582,8 8,8 H 0 c 4.418,0 8,-3.582 8,-8 V 8 C 8,3.582 4.418,0 0,0" /></g><g
           transform="translate(184,144)"
           id="g40"><path
             id="path42"
             style="fill:#262626;fill-opacity:1;fill-rule:nonzero;stroke:none"
             d="m 0,0 h -112 c -2.209,0 -4,1.791 -4,4 v 80 c 0,2.209 1.791,4 4,4 H 0 c 2.209,0 4,-1.791 4,-4 V 4 C 4,1.791 2.209,0 0,0" /></g><path
           id="path44"
           style="fill:#485915;fill-opacity:1;fill-rule:nonzero;stroke:none"
           d="M 164,152 H 88 v 72 h 76 z" /><path
           id="path46"
           style="fill:#191919;fill-opacity:1;fill-rule:nonzero;stroke:none"
           d="M 180,112 H 76 v 16 h 104 z" /><path
           id="path48"
           style="fill:#262626;fill-opacity:1;fill-rule:nonzero;stroke:none"
           d="M 180,122 H 76 v 2 h 104 z" /><path
           id="path50"
           style="fill:#262626;fill-opacity:1;fill-rule:nonzero;stroke:none"
           d="M 180,126 H 76 v 2 h 104 z" /><path
           id="path52"
           style="fill:#262626;fill-opacity:1;fill-rule:nonzero;stroke:none"
           d="M 180,118 H 76 v 2 h 104 z" /><path
           id="path54"
           style="fill:#262626;fill-opacity:1;fill-rule:nonzero;stroke:none"
           d="M 180,114 H 76 v 2 h 104 z" /><g
           transform="translate(184,112)"
           id="g56"><path
             id="path58"
             style="fill:#4c4c4c;fill-opacity:1;fill-rule:nonzero;stroke:none"
             d="m 0,0 h -112 c -4.418,0 -8,-3.582 -8,-8 v -48 c 0,-24.301 19.699,-44 44,-44 h 40 c 24.301,0 44,19.699 44,44 V -8 C 8,-3.582 4.418,0 0,0" /></g><g
           transform="translate(184,112)"
           id="g60"><path
             id="path62"
             style="fill:#666666;fill-opacity:1;fill-rule:nonzero;stroke:none"
             d="m 0,0 v -56 c 0,-19.851 -16.149,-36 -36,-36 h -40 c -19.851,0 -36,16.149 -36,36 V 0 H 0" /></g><g
           transform="translate(110.8286,81.1719)"
           id="g64"><path
             id="path66"
             style="fill:#191919;fill-opacity:1;fill-rule:nonzero;stroke:none"
             d="m 0,0 -9.657,9.656 c -0.75,0.75 -1.768,1.172 -2.828,1.172 h -4.687 c -1.06,0 -2.078,-0.422 -2.828,-1.172 L -29.657,0 c -0.75,-0.75 -1.172,-1.768 -1.172,-2.829 v -4.686 c 0,-1.061 0.422,-2.079 1.172,-2.829 L -20,-20 c 0.75,-0.75 1.768,-1.172 2.828,-1.172 h 4.687 c 1.06,0 2.078,0.422 2.828,1.172 L 0,-10.344 c 0.75,0.75 1.171,1.768 1.171,2.829 v 4.686 C 1.171,-1.768 0.75,-0.75 0,0" /></g><g
           transform="translate(108,80)"
           id="g68"><path
             id="path70"
             style="fill:#262626;fill-opacity:1;fill-rule:nonzero;stroke:none"
             d="m 0,0 h -8 v 8 c 0,2.209 -1.791,4 -4,4 -2.209,0 -4,-1.791 -4,-4 V 0 h -8 c -2.209,0 -4,-1.791 -4,-4 0,-2.209 1.791,-4 4,-4 h 8 v -8 c 0,-2.209 1.791,-4 4,-4 2.209,0 4,1.791 4,4 v 8 h 8 c 2.209,0 4,1.791 4,4 0,2.209 -1.791,4 -4,4" /></g><g
           transform="translate(148,68)"
           id="g72"><path
             id="path74"
             style="fill:#1abf9f;fill-opacity:1;fill-rule:nonzero;stroke:none"
             d="m 0,0 c 0,-4.418 -3.582,-8 -8,-8 -4.418,0 -8,3.582 -8,8 0,4.418 3.582,8 8,8 4.418,0 8,-3.582 8,-8" /></g><g
           transform="translate(172,80)"
           id="g76"><path
             id="path78"
             style="fill:#1abf9f;fill-opacity:1;fill-rule:nonzero;stroke:none"
             d="m 0,0 c 0,-4.418 -3.582,-8 -8,-8 -4.418,0 -8,3.582 -8,8 0,4.418 3.582,8 8,8 4.418,0 8,-3.582 8,-8" /></g><path
           id="path80"
           style="fill:#191919;fill-opacity:1;fill-rule:nonzero;stroke:none"
           d="m 172,50 h -16 v 2 h 16 z" /><path
           id="path82"
           style="fill:#191919;fill-opacity:1;fill-rule:nonzero;stroke:none"
           d="m 168,46 h -16 v 2 h 16 z" /><path
           id="path84"
           style="fill:#191919;fill-opacity:1;fill-rule:nonzero;stroke:none"
           d="m 164,42 h -16 v 2 h 16 z" /><g
           transform="translate(162,100)"
           id="g86"><path
             id="path88"
             style="fill:#191919;fill-opacity:1;fill-rule:nonzero;stroke:none"
             d="m 0,0 h -12 c -1.104,0 -2,0.896 -2,2 0,1.104 0.896,2 2,2 H 0 C 1.104,4 2,3.104 2,2 2,0.896 1.104,0 0,0" /></g><g
           transform="translate(142,100)"
           id="g90"><path
             id="path92"
             style="fill:#191919;fill-opacity:1;fill-rule:nonzero;stroke:none"
             d="m 0,0 h -12 c -1.104,0 -2,0.896 -2,2 0,1.104 0.896,2 2,2 H 0 C 1.104,4 2,3.104 2,2 2,0.896 1.104,0 0,0" /></g></g></g></g></svg>