<svg xmlns="http://www.w3.org/2000/svg" xml:space="preserve" width="245.333" height="330.667" viewBox="0 0 245.333 330.667"><defs><clipPath id="a" clipPathUnits="userSpaceOnUse"><path d="M0 256h256V0H0Z"/></clipPath><clipPath id="b" clipPathUnits="userSpaceOnUse"><path d="M36 252h184V4H36Z"/></clipPath></defs><g clip-path="url(#a)" transform="matrix(1.33333 0 0 -1.33333 -48 336)"><g clip-path="url(#b)" style="opacity:.5"><path d="M0 0h-141.172c-5.514 0-10-4.486-10-10v-228c0-5.514 4.486-10 10-10h164c5.514 0 10 4.486 10 10v205.171a9.94 9.94 0 0 1-2.929 7.072L7.07-2.929A9.93 9.93 0 0 1 0 0" style="fill:#fff;fill-opacity:1;fill-rule:nonzero;stroke:none" transform="translate(187.172 252)"/></g><path d="M0 0h-164a2 2 0 0 0-2 2v228a2 2 0 0 0 2 2h141.172a2 2 0 0 0 1.414-.586l22.828-22.828c.375-.375.586-.884.586-1.415V2a2 2 0 0 0-2-2" style="fill:#e6e6e6;fill-opacity:1;fill-rule:nonzero;stroke:none" transform="translate(210 12)"/><path d="M212 28H44v4h168zM52 32h-4v204h4z" style="fill:#d9d9d9;fill-opacity:1;fill-rule:nonzero;stroke:none"/><path d="M44 232h136v4H44ZM204 28h-4v184h4z" style="fill:#d9d9d9;fill-opacity:1;fill-rule:nonzero;stroke:none"/><path d="m0 0 24-24h-4L0-4Z" style="fill:#d9d9d9;fill-opacity:1;fill-rule:nonzero;stroke:none" transform="translate(180 236)"/><path d="M48 180h-4v4h4z" style="fill:#d9d9d9;fill-opacity:1;fill-rule:nonzero;stroke:none"/></g></svg>