<?xml version="1.0" encoding="UTF-8" standalone="no"?>
<svg
   xmlns:dc="http://purl.org/dc/elements/1.1/"
   xmlns:cc="http://creativecommons.org/ns#"
   xmlns:rdf="http://www.w3.org/1999/02/22-rdf-syntax-ns#"
   xmlns:svg="http://www.w3.org/2000/svg"
   xmlns="http://www.w3.org/2000/svg"
   viewBox="0 0 245.33319 330.66665"
   height="330.66666"
   width="245.33319"
   xml:space="preserve"
   id="svg2"
   version="1.1"><metadata
     id="metadata8"><rdf:RDF><cc:Work
         rdf:about=""><dc:format>image/svg+xml</dc:format><dc:type
           rdf:resource="http://purl.org/dc/dcmitype/StillImage" /></cc:Work></rdf:RDF></metadata><defs
     id="defs6"><clipPath
       id="clipPath18"
       clipPathUnits="userSpaceOnUse"><path
         id="path16"
         d="M 0,256 H 256 V 0 H 0 Z" /></clipPath><clipPath
       id="clipPath26"
       clipPathUnits="userSpaceOnUse"><path
         id="path24"
         d="M 36,252 H 220 V 4 H 36 Z" /></clipPath></defs><g
     transform="matrix(1.3333333,0,0,-1.3333333,-47.999999,335.99999)"
     id="g10"><g
       id="g12"><g
         clip-path="url(#clipPath18)"
         id="g14"><g
           id="g20"><g
             id="g22" /><g
             id="g34"><g
               style="opacity:0.5"
               id="g32"
               clip-path="url(#clipPath26)"><g
                 id="g30"
                 transform="translate(187.1719,252)"><path
                   id="path28"
                   style="fill:#ffffff;fill-opacity:1;fill-rule:nonzero;stroke:none"
                   d="m 0,0 h -141.172 c -5.514,0 -10,-4.486 -10,-10 v -228 c 0,-5.514 4.486,-10 10,-10 h 164 c 5.514,0 10,4.486 10,10 v 205.171 c 0,2.672 -1.04,5.183 -2.929,7.072 L 7.07,-2.929 C 5.182,-1.04 2.671,0 0,0" /></g></g></g></g><g
           transform="translate(210,12)"
           id="g36"><path
             id="path38"
             style="fill:#e6e6e6;fill-opacity:1;fill-rule:nonzero;stroke:none"
             d="m 0,0 h -164 c -1.104,0 -2,0.896 -2,2 v 228 c 0,1.104 0.896,2 2,2 h 141.172 c 0.53,0 1.039,-0.211 1.414,-0.586 L 1.414,208.586 C 1.789,208.211 2,207.702 2,207.171 V 2 C 2,0.896 1.104,0 0,0" /></g><path
           id="path40"
           style="fill:#d9d9d9;fill-opacity:1;fill-rule:nonzero;stroke:none"
           d="M 212,28 H 44 v 4 h 168 z" /><path
           id="path42"
           style="fill:#d9d9d9;fill-opacity:1;fill-rule:nonzero;stroke:none"
           d="m 52,32 h -4 v 204 h 4 z" /><path
           id="path44"
           style="fill:#d9d9d9;fill-opacity:1;fill-rule:nonzero;stroke:none"
           d="m 44,232 h 136 v 4 H 44 Z" /><path
           id="path46"
           style="fill:#d9d9d9;fill-opacity:1;fill-rule:nonzero;stroke:none"
           d="m 204,28 h -4 v 184 h 4 z" /><g
           transform="translate(180,236)"
           id="g48"><path
             id="path50"
             style="fill:#d9d9d9;fill-opacity:1;fill-rule:nonzero;stroke:none"
             d="M 0,0 24,-24 H 20 L 0,-4 Z" /></g><path
           id="path52"
           style="fill:#d9d9d9;fill-opacity:1;fill-rule:nonzero;stroke:none"
           d="m 48,180 h -4 v 4 h 4 z" /></g></g></g></svg>