<svg xmlns="http://www.w3.org/2000/svg" xml:space="preserve" width="213.333" height="330.666" viewBox="0 0 213.333 330.666"><defs><clipPath id="a" clipPathUnits="userSpaceOnUse"><path d="M0 256h256V0H0Z"/></clipPath><clipPath id="b" clipPathUnits="userSpaceOnUse"><path d="M48 252h160V4H48Z"/></clipPath></defs><g clip-path="url(#a)" transform="matrix(1.33333 0 0 -1.33333 -64 336)"><g clip-path="url(#b)" style="opacity:.5"><path d="M0 0c2.506 2.563 4 6.053 4 9.787s-1.494 7.223-4 9.786v2.214c0 6.821-7.16 10-12 10h-132c-4.839 0-12-3.179-12-10v-228c0-6.823 7.161-10 12-10h132c4.84 0 12 3.177 12 10V-196c2.506 2.563 4 6.052 4 9.787 0 3.734-1.494 7.223-4 9.786z" style="fill:#fff;fill-opacity:1;fill-rule:nonzero;stroke:none" transform="translate(204 220.213)"/></g><path d="M0 0a6 6 0 0 0 0-12A6 6 0 0 0 0 0" style="fill:#191919;fill-opacity:1;fill-rule:nonzero;stroke:none" transform="translate(194 40)"/><path d="M0 0a6 6 0 0 0 0-12A6 6 0 0 0 0 0" style="fill:#191919;fill-opacity:1;fill-rule:nonzero;stroke:none" transform="translate(194 236)"/><path d="M0 0v-228c0-1.104-2.896-2-4-2h-132c-1.104 0-4 .896-4 2V0c0 1.104 2.896 2 4 2H-4c1.104 0 4-.896 4-2" style="fill:#262626;fill-opacity:1;fill-rule:nonzero;stroke:none" transform="translate(196 242)"/><path d="M70 24h-2v220h2zm126-2H56v2h140zm-13 126h-2v8h2zm3 0h-2v8h2zm-3 10h-2v8h2zm3 0h-2v8h2zm-3 10h-2v8h2zm3 0h-2v8h2zm-3 10h-2v8h2zm3 0h-2v8h2z" style="fill:#191919;fill-opacity:1;fill-rule:nonzero;stroke:none"/></g></svg>