<?xml version="1.0" encoding="UTF-8" standalone="no"?>
<svg
   xmlns:dc="http://purl.org/dc/elements/1.1/"
   xmlns:cc="http://creativecommons.org/ns#"
   xmlns:rdf="http://www.w3.org/1999/02/22-rdf-syntax-ns#"
   xmlns:svg="http://www.w3.org/2000/svg"
   xmlns="http://www.w3.org/2000/svg"
   viewBox="0 0 213.33333 330.66613"
   height="330.66614"
   width="213.33333"
   xml:space="preserve"
   id="svg2"
   version="1.1"><metadata
     id="metadata8"><rdf:RDF><cc:Work
         rdf:about=""><dc:format>image/svg+xml</dc:format><dc:type
           rdf:resource="http://purl.org/dc/dcmitype/StillImage" /></cc:Work></rdf:RDF></metadata><defs
     id="defs6"><clipPath
       id="clipPath18"
       clipPathUnits="userSpaceOnUse"><path
         id="path16"
         d="M 0,256 H 256 V 0 H 0 Z" /></clipPath><clipPath
       id="clipPath26"
       clipPathUnits="userSpaceOnUse"><path
         id="path24"
         d="M 48,252 H 208 V 4 H 48 Z" /></clipPath></defs><g
     transform="matrix(1.3333333,0,0,-1.3333333,-63.999998,335.99999)"
     id="g10"><g
       id="g12"><g
         clip-path="url(#clipPath18)"
         id="g14"><g
           id="g20"><g
             id="g22" /><g
             id="g34"><g
               style="opacity:0.5"
               id="g32"
               clip-path="url(#clipPath26)"><g
                 id="g30"
                 transform="translate(204,220.2134)"><path
                   id="path28"
                   style="fill:#ffffff;fill-opacity:1;fill-rule:nonzero;stroke:none"
                   d="m 0,0 c 2.506,2.563 4,6.053 4,9.787 0,3.734 -1.494,7.223 -4,9.786 v 2.214 c 0,6.821 -7.16,10 -12,10 h -132 c -4.839,0 -12,-3.179 -12,-10 v -228 c 0,-6.823 7.161,-10 12,-10 h 132 c 4.84,0 12,3.177 12,10 V -196 c 2.506,2.563 4,6.052 4,9.787 0,3.734 -1.494,7.223 -4,9.786 z" /></g></g></g></g><g
           transform="translate(194,40)"
           id="g36"><path
             id="path38"
             style="fill:#191919;fill-opacity:1;fill-rule:nonzero;stroke:none"
             d="m 0,0 c 3.313,0 6,-2.687 6,-6 0,-3.313 -2.687,-6 -6,-6 -3.313,0 -6,2.687 -6,6 0,3.313 2.687,6 6,6" /></g><g
           transform="translate(194,236)"
           id="g40"><path
             id="path42"
             style="fill:#191919;fill-opacity:1;fill-rule:nonzero;stroke:none"
             d="m 0,0 c 3.313,0 6,-2.687 6,-6 0,-3.313 -2.687,-6 -6,-6 -3.313,0 -6,2.687 -6,6 0,3.313 2.687,6 6,6" /></g><g
           transform="translate(196,242)"
           id="g44"><path
             id="path46"
             style="fill:#262626;fill-opacity:1;fill-rule:nonzero;stroke:none"
             d="m 0,0 v -228 c 0,-1.104 -2.896,-2 -4,-2 h -132 c -1.104,0 -4,0.896 -4,2 V 0 c 0,1.104 2.896,2 4,2 H -4 C -2.896,2 0,1.104 0,0" /></g><path
           id="path48"
           style="fill:#191919;fill-opacity:1;fill-rule:nonzero;stroke:none"
           d="m 70,24 h -2 v 220 h 2 z" /><path
           id="path50"
           style="fill:#191919;fill-opacity:1;fill-rule:nonzero;stroke:none"
           d="M 196,22 H 56 v 2 h 140 z" /><path
           id="path52"
           style="fill:#191919;fill-opacity:1;fill-rule:nonzero;stroke:none"
           d="m 183,148 h -2 v 8 h 2 z" /><path
           id="path54"
           style="fill:#191919;fill-opacity:1;fill-rule:nonzero;stroke:none"
           d="m 186,148 h -2 v 8 h 2 z" /><path
           id="path56"
           style="fill:#191919;fill-opacity:1;fill-rule:nonzero;stroke:none"
           d="m 183,158 h -2 v 8 h 2 z" /><path
           id="path58"
           style="fill:#191919;fill-opacity:1;fill-rule:nonzero;stroke:none"
           d="m 186,158 h -2 v 8 h 2 z" /><path
           id="path60"
           style="fill:#191919;fill-opacity:1;fill-rule:nonzero;stroke:none"
           d="m 183,168 h -2 v 8 h 2 z" /><path
           id="path62"
           style="fill:#191919;fill-opacity:1;fill-rule:nonzero;stroke:none"
           d="m 186,168 h -2 v 8 h 2 z" /><path
           id="path64"
           style="fill:#191919;fill-opacity:1;fill-rule:nonzero;stroke:none"
           d="m 183,178 h -2 v 8 h 2 z" /><path
           id="path66"
           style="fill:#191919;fill-opacity:1;fill-rule:nonzero;stroke:none"
           d="m 186,178 h -2 v 8 h 2 z" /></g></g></g></svg>