<svg xmlns="http://www.w3.org/2000/svg" xml:space="preserve" width="330.667" height="202.667" viewBox="0 0 330.667 202.667"><defs><clipPath id="a" clipPathUnits="userSpaceOnUse"><path d="M0 256h256V0H0Z"/></clipPath><clipPath id="b" clipPathUnits="userSpaceOnUse"><path d="M4 204h248V52H4Z"/></clipPath></defs><g clip-path="url(#a)" transform="matrix(1.33333 0 0 -1.33333 -5.333 272)"><g clip-path="url(#b)" style="opacity:.5"><path d="M0 0c-7.538 0-14.841-.884-22.317-2.703-3.006-.527-6.162-.678-9.498-.836-9.762-.465-21.911-1.042-32.287-12.739-3.939-4.439-6.455-12.229-7.92-24.516-1.112-9.326-1.55-21.009-1.265-33.787.483-21.692 3.156-47.879 8.037-57.483 6.447-12.683 15.081-19.114 25.663-19.114l.198.001c15.704 0 26.121-.329 33.728-.569 4.496-.142 8.048-.254 11.221-.254 4.835 0 8.585.278 12.538.929 8.56 1.404 16.533 2.058 25.088 2.058 8.336 0 16.089-.627 24.297-1.29 8.93-.722 18.164-1.468 28.885-1.468 14.719 0 29.174 1.402 45.491 4.411 13.457 2.482 31.492 7.849 32.75 25.729q.02.28.02.561v92.114q0 .112-.003.223c-.26 9.319-3.749 15.69-10.668 19.477-5.445 2.981-12.181 3.976-21.505 5.353-2.611.385-5.309.784-8.242 1.264-9.799 1.607-18.582 2.388-26.854 2.388-12.09 0-20.957-1.647-29.533-3.24-7.546-1.402-14.673-2.727-23.569-2.727-9.191 0-17.403 1.465-26.097 3.016C19.335-1.628 10.212 0 0 0" style="fill:#fff;fill-opacity:1;fill-rule:nonzero;stroke:none" transform="translate(77.371 204)"/></g><path d="M0 0c4.685-9.217 10.529-14.83 18.729-14.738 37.458 0 44.949-1.852 56.187 0 44.949 7.369 63.678-7.369 123.61 3.684 20.197 3.725 25.65 10.306 26.221 18.423v92.114c-.432 15.519-11.238 14.738-33.712 18.423-41.31 6.772-52.441-3.685-78.662-3.685-26.22 0-44.949 11.054-74.915 3.685-13.043-2.378-26.221 1.612-37.458-11.054C-11.631 93.742-7.492 14.738 0 0" style="fill:#4b5da7;fill-opacity:1;fill-rule:nonzero;stroke:none" transform="translate(19.253 75.561)"/><path d="M0 0a1.85 1.85 0 0 1-.753.352c-26.565 5.744-51.409 8.509-73.779 8.415-25.854-.188-48.519-4.594-65.549-12.742a1.86 1.86 0 0 1-1.037-1.946c.14-.961.213-1.986.213-2.987 0-11.221-9.195-20.349-20.498-20.349-1.594 0-3.177.18-4.702.532a1.855 1.855 0 0 1-2.138-1.086c-3.447-8.142-3.28-16.783.487-24.988a1.88 1.88 0 0 1 2.077-1.047 20.8 20.8 0 0 0 4.276.426c11.303 0 20.498-9.183 20.498-20.466 0-.563-.053-1.152-.109-1.82a1.855 1.855 0 0 1 1.077-1.846c15.261-7.006 37.411-10.989 62.373-11.218.355.066.791.124 1.115.36 2.601 1.897 4.217 2.369 8.237 2.406 4.127-.044 5.648-.876 8.152-2.831a1.85 1.85 0 0 1 1.285-.393c15.497 1.149 35.027 4.448 58.051 9.808q.286.07.538.218c7.88 4.746 12.415 22.569 13.292 37.126C14.325-23.821 9.426-7.344 0 0" style="fill:#404040;fill-opacity:1;fill-rule:nonzero;stroke:none" transform="translate(206.71 169.231)"/><path d="M0 0c0-2.209-2.686-4-6-4s-6 1.791-6 4 2.686 4 6 4 6-1.791 6-4" style="fill:#eac500;fill-opacity:1;fill-rule:nonzero;stroke:none" transform="translate(144 74)"/><path d="M0 0h6.857c1.42 0 2.572-.895 2.572-2S8.277-4 6.857-4H0c-1.42 0-2.571.895-2.571 2S-1.42 0 0 0" style="fill:#ecf0f1;fill-opacity:1;fill-rule:nonzero;stroke:none" transform="translate(110.571 76)"/><path d="M0 0h6.857c1.42 0 2.572-.895 2.572-2S8.277-4 6.857-4H0c-1.42 0-2.571.895-2.571 2S-1.42 0 0 0" style="fill:#ecf0f1;fill-opacity:1;fill-rule:nonzero;stroke:none" transform="translate(90.571 76)"/><path d="M0 0a1.9 1.9 0 0 1 1.437-.652c.55 0 1.074.236 1.437.652l6.68 7.635c.585.669.63 1.657.108 2.379-1.873 2.578-5.452 3.853-9.595 3.437-2.717-.283-5.996-1.422-7.051-3.778a1.91 1.91 0 0 1 .304-2.038Z" style="fill:#ecf0f1;fill-opacity:1;fill-rule:nonzero;stroke:none" transform="translate(40.563 166.471)"/><path d="M0 0c-.727.831-2.147.831-2.874 0l-6.68-7.635a1.91 1.91 0 0 1-.304-2.038c1.055-2.356 4.334-3.495 7.051-3.778q.79-.08 1.547-.08c3.47 0 6.412 1.265 8.048 3.517.522.722.477 1.71-.108 2.379z" style="fill:#ecf0f1;fill-opacity:1;fill-rule:nonzero;stroke:none" transform="translate(43.437 157.531)"/><path d="M0 0c0 .55-.237 1.074-.652 1.437l-7.635 6.681a1.91 1.91 0 0 1-2.378.108c-2.579-1.875-3.865-5.462-3.437-9.596.284-2.718 1.422-5.997 3.778-7.052a1.91 1.91 0 0 1 2.037.304l7.635 6.681C-.237-1.074 0-.55 0 0" style="fill:#ecf0f1;fill-opacity:1;fill-rule:nonzero;stroke:none" transform="translate(38.183 162.001)"/><path d="M0 0c-.283 2.718-1.422 5.997-3.778 7.052a1.89 1.89 0 0 1-2.037-.304L-13.449.067a1.906 1.906 0 0 1 0-2.874l7.634-6.681a1.91 1.91 0 0 1 2.378-.108C-.857-7.721.429-4.135 0 0" style="fill:#ecf0f1;fill-opacity:1;fill-rule:nonzero;stroke:none" transform="translate(59.919 163.371)"/><path d="M0 0a1.9 1.9 0 0 1 1.437-.653c.55 0 1.074.239 1.437.653l6.68 7.637c.586.671.63 1.656.108 2.379-1.875 2.577-5.465 3.833-9.591 3.438-2.72-.283-6-1.424-7.055-3.781a1.91 1.91 0 0 1 .304-2.036Z" style="fill:#ecf0f1;fill-opacity:1;fill-rule:nonzero;stroke:none" transform="translate(40.563 94.474)"/><path d="M0 0c-.727.828-2.147.828-2.874 0l-6.68-7.637a1.91 1.91 0 0 1-.304-2.036c1.055-2.357 4.335-3.498 7.055-3.781q.787-.078 1.545-.078c3.469 0 6.41 1.264 8.046 3.516a1.914 1.914 0 0 1-.108 2.379z" style="fill:#ecf0f1;fill-opacity:1;fill-rule:nonzero;stroke:none" transform="translate(43.437 85.532)"/><path d="M0 0c0 .552-.237 1.074-.652 1.436l-7.635 6.682a1.9 1.9 0 0 1-2.378.108c-2.58-1.872-3.864-5.459-3.437-9.591.281-2.718 1.422-6 3.778-7.059a1.89 1.89 0 0 1 2.037.306l7.635 6.682C-.237-1.074 0-.552 0 0" style="fill:#ecf0f1;fill-opacity:1;fill-rule:nonzero;stroke:none" transform="translate(38.183 90.003)"/><path d="M0 0c-.281 2.718-1.422 6-3.778 7.059a1.9 1.9 0 0 1-2.037-.306L-13.45.071a1.9 1.9 0 0 1-.652-1.436c0-.552.237-1.074.652-1.435l7.635-6.683a1.91 1.91 0 0 1 2.378-.108C-.857-7.719.427-4.132 0 0" style="fill:#ecf0f1;fill-opacity:1;fill-rule:nonzero;stroke:none" transform="translate(59.92 91.368)"/><path d="M0 0c-.727.828-2.147.828-2.874 0l-6.68-7.637a1.91 1.91 0 0 1-.304-2.036c1.055-2.357 4.335-3.498 7.055-3.781q.787-.078 1.545-.078c3.469 0 6.41 1.264 8.046 3.516a1.914 1.914 0 0 1-.108 2.379z" style="fill:#ecf0f1;fill-opacity:1;fill-rule:nonzero;stroke:none" transform="translate(219.437 89.532)"/><path d="M0 0c-.281 2.718-1.422 6-3.778 7.059a1.9 1.9 0 0 1-2.037-.306L-13.45.071a1.9 1.9 0 0 1-.652-1.436c0-.552.237-1.074.652-1.435l7.635-6.683a1.91 1.91 0 0 1 2.378-.108C-.857-7.719.427-4.132 0 0" style="fill:#ecf0f1;fill-opacity:1;fill-rule:nonzero;stroke:none" transform="translate(235.92 95.368)"/><path d="M0 0h-28.132c-.516 0-.934-.446-.934-.996v-.008c0-.55.418-.996.934-.996H.934v2Z" style="fill:#333e70;fill-opacity:1;fill-rule:nonzero;stroke:none" transform="translate(243.066 174)"/><path d="M0 0h-6.592c-.483 0-.875-.42-.875-.937v-.126c0-.517.392-.937.875-.937h27.125v2h-.875z" style="fill:#333e70;fill-opacity:1;fill-rule:nonzero;stroke:none" transform="translate(223.467 170)"/><path d="M0 0h-4.846c-.401 0-.726-.35-.726-.781v-.438c0-.431.325-.781.726-.781h25.274v2h-.725z" style="fill:#333e70;fill-opacity:1;fill-rule:nonzero;stroke:none" transform="translate(223.571 166)"/><path d="M0 0h-2.772c-.509 0-.92-.446-.92-.996v-.008c0-.55.411-.996.92-.996h23.08v2h-.92z" style="fill:#333e70;fill-opacity:1;fill-rule:nonzero;stroke:none" transform="translate(223.692 162)"/><path d="M0 0h-.92c-.504 0-.913-.446-.913-.997v-.007c0-.55.409-.996.913-.996h21.087v2h-.914z" style="fill:#333e70;fill-opacity:1;fill-rule:nonzero;stroke:none" transform="translate(223.833 158)"/><path d="M84 164h108V96H84Z" style="fill:#8c8c8c;fill-opacity:1;fill-rule:nonzero;stroke:none"/></g></svg>