<svg xmlns="http://www.w3.org/2000/svg" xml:space="preserve" width="330.667" height="192" viewBox="0 0 330.667 192"><defs><clipPath id="a" clipPathUnits="userSpaceOnUse"><path d="M0 256h256V0H0Z"/></clipPath><clipPath id="b" clipPathUnits="userSpaceOnUse"><path d="M4 200h248V56H4Z"/></clipPath></defs><g clip-path="url(#a)" transform="matrix(1.33333 0 0 -1.33333 -5.333 266.667)"><g clip-path="url(#b)" style="opacity:.5"><path d="M0 0h-128.628c-12.282 0-21.735-.495-30.649-1.604-6.166-.768-15.302-2.805-23.416-11.599-3.993-4.327-6.542-11.896-8.02-23.818-1.116-8.996-1.555-20.26-1.27-32.574.485-20.923 3.176-46.202 8.097-55.509a59 59 0 0 1 1.741-3.072c4.997-8.207 14.415-13.306 24.578-13.306h32.772c6.386 0 12.715-.219 18.814-.651 9.287-.658 26.311-1.516 54.667-1.866l.093-.001h.837c5.713 0 34.726.026 44.814.536l.166.01c9.355.668 18.682 1.841 28.513 3.584 10.99 1.949 18.588 4.738 23.91 8.778 5.414 4.109 8.405 9.569 8.893 16.229q.021.291.021.583v88.567l-.003.231C55.372-6.249 40.199-3.85 30.159-2.262 20.665-.761 10.518 0 0 0" style="fill:#fff;fill-opacity:1;fill-rule:nonzero;stroke:none" transform="translate(196.067 200)"/></g><path d="M0 0c-9.549 1.51-19.228 2.164-28.909 2.164h-128.628c-9.909 0-19.836-.32-29.661-1.543-6.498-.809-12.766-2.844-18.525-9.085-11.631-12.606-7.492-88.566 0-102.737q.732-1.383 1.502-2.651c3.623-5.951 10.484-9.466 17.745-9.466h32.772c6.472 0 12.925-.213 19.379-.671 8.736-.619 25.608-1.494 54.2-1.847 2.395-.001 34.66-.009 45.242.525 8.249.59 17.311 1.642 27.686 3.482 20.197 3.582 25.65 9.909 26.221 17.713v88.567C18.7-4.358 12.541-1.983 0 0" style="fill:#333;fill-opacity:1;fill-rule:nonzero;stroke:none" transform="translate(224.976 189.836)"/><path d="M0 0c-.82 2.66-3.172 4.694-6.08 5.327-16.519 3.596-70.705 8.263-114.825 6.035-2.808-.142-4.946-2.456-5.903-4.913-4.764-12.239-16.94-51.286-.271-97.397 1.114-3.079 4.301-5.111 7.808-5.111h2.119v7.93c0 1.142.926 2.068 2.068 2.068h37.113a2.07 2.07 0 0 0 2.069-2.068v-7.93s53.044 2.734 70.177 4.222c2.875.25 5.398 1.849 6.632 4.266C5.759-78.065 15.526-50.348 0 0" style="fill:#d8d8dc;fill-opacity:1;fill-rule:nonzero;stroke:none" transform="translate(200.28 172.059)"/><path d="M0 0h6.857c1.42 0 2.572-.895 2.572-2S8.277-4 6.857-4H0c-1.42 0-2.571.895-2.571 2S-1.42 0 0 0" style="fill:#eceff0;fill-opacity:1;fill-rule:nonzero;stroke:none" transform="translate(110.571 80)"/><path d="M0 0h6.857c1.42 0 2.572-.895 2.572-2S8.277-4 6.857-4H0c-1.42 0-2.571.895-2.571 2S-1.42 0 0 0" style="fill:#eceff0;fill-opacity:1;fill-rule:nonzero;stroke:none" transform="translate(90.571 80)"/><path d="M0 0c-1.873 2.578-5.452 3.853-9.595 3.437-2.717-.283-5.996-1.422-7.051-3.778a1.91 1.91 0 0 1 .304-2.038l6.68-7.635a1.91 1.91 0 0 1 2.874 0l6.68 7.635C.477-1.709.522-.721 0 0" style="fill:#eceff0;fill-opacity:1;fill-rule:nonzero;stroke:none" transform="translate(50.225 176.485)"/><path d="m0 0-6.68 7.635c-.727.832-2.147.832-2.874 0L-16.234 0a1.91 1.91 0 0 1-.304-2.037c1.055-2.357 4.334-3.495 7.051-3.779q.79-.08 1.547-.08c3.471 0 6.412 1.266 8.048 3.518A1.91 1.91 0 0 1 0 0" style="fill:#eceff0;fill-opacity:1;fill-rule:nonzero;stroke:none" transform="translate(50.117 149.896)"/><path d="m0 0-7.634 6.681a1.91 1.91 0 0 1-2.378.108c-2.58-1.875-3.866-5.462-3.437-9.596.283-2.718 1.422-5.997 3.778-7.052a1.91 1.91 0 0 1 2.037.304L0-2.874A1.907 1.907 0 0 1 0 0" style="fill:#eceff0;fill-opacity:1;fill-rule:nonzero;stroke:none" transform="translate(37.53 163.439)"/><path d="M0 0c-.283 2.718-1.422 5.997-3.778 7.052a1.89 1.89 0 0 1-2.037-.304L-13.449.067a1.906 1.906 0 0 1 0-2.874l7.634-6.681a1.91 1.91 0 0 1 2.378-.108C-.857-7.721.429-4.135 0 0" style="fill:#eceff0;fill-opacity:1;fill-rule:nonzero;stroke:none" transform="translate(59.919 163.371)"/><path d="M0 0c-1.875 2.577-5.465 3.833-9.591 3.438-2.72-.283-6-1.424-7.055-3.781a1.9 1.9 0 0 1 .304-2.036l6.68-7.637a1.912 1.912 0 0 1 2.874 0l6.68 7.637C.477-1.708.522-.723 0 0" style="fill:#eceff0;fill-opacity:1;fill-rule:nonzero;stroke:none" transform="translate(50.225 112.49)"/><path d="m0 0-6.68 7.637c-.727.828-2.147.828-2.874 0L-16.234 0a1.9 1.9 0 0 1-.304-2.036c1.055-2.357 4.335-3.498 7.055-3.781q.786-.078 1.545-.079c3.468 0 6.41 1.265 8.046 3.517A1.914 1.914 0 0 1 0 0" style="fill:#eceff0;fill-opacity:1;fill-rule:nonzero;stroke:none" transform="translate(50.117 85.895)"/><path d="m0 0-7.634 6.682a1.9 1.9 0 0 1-2.379.108c-2.579-1.872-3.863-5.459-3.437-9.59.282-2.719 1.422-6 3.778-7.059.25-.112.517-.168.781-.168.453 0 .903.16 1.257.474L0-2.871c.416.361.652.884.652 1.435C.652-.884.416-.362 0 0" style="fill:#eceff0;fill-opacity:1;fill-rule:nonzero;stroke:none" transform="translate(37.53 99.439)"/><path d="M0 0c-.282 2.718-1.422 6-3.778 7.059a1.9 1.9 0 0 1-2.037-.306L-13.45.071a1.9 1.9 0 0 1-.652-1.436c0-.552.237-1.074.652-1.435l7.635-6.683a1.906 1.906 0 0 1 2.378-.108C-.857-7.719.427-4.132 0 0" style="fill:#eceff0;fill-opacity:1;fill-rule:nonzero;stroke:none" transform="translate(59.92 99.368)"/><path d="m0 0-6.68 7.637c-.727.828-2.147.828-2.874 0L-16.234 0a1.9 1.9 0 0 1-.304-2.036c1.055-2.357 4.335-3.498 7.055-3.781q.786-.078 1.545-.079c3.468 0 6.41 1.265 8.046 3.517A1.914 1.914 0 0 1 0 0" style="fill:#eceff0;fill-opacity:1;fill-rule:nonzero;stroke:none" transform="translate(226.117 89.895)"/><path d="M0 0c-.282 2.718-1.422 6-3.778 7.059a1.9 1.9 0 0 1-2.037-.306L-13.45.071a1.9 1.9 0 0 1-.652-1.436c0-.552.237-1.074.652-1.435l7.635-6.683a1.906 1.906 0 0 1 2.378-.108C-.857-7.719.427-4.132 0 0" style="fill:#eceff0;fill-opacity:1;fill-rule:nonzero;stroke:none" transform="translate(235.92 103.368)"/><path d="M80 164h108V96H80Z" style="fill:#8c8c8c;fill-opacity:1;fill-rule:nonzero;stroke:none"/><path d="M0 0h-28.132c-.516 0-.934-.446-.934-.996v-.008c0-.55.418-.996.934-.996H.934v2Z" style="fill:#191919;fill-opacity:1;fill-rule:nonzero;stroke:none" transform="translate(243.066 174)"/><path d="M0 0h-6.592c-.483 0-.875-.42-.875-.937v-.126c0-.517.392-.937.875-.937h27.125v2h-.875z" style="fill:#191919;fill-opacity:1;fill-rule:nonzero;stroke:none" transform="translate(223.467 170)"/><path d="M0 0h-4.846c-.401 0-.725-.35-.725-.781v-.438c0-.431.324-.781.725-.781h25.275v2h-.726z" style="fill:#191919;fill-opacity:1;fill-rule:nonzero;stroke:none" transform="translate(223.571 166)"/><path d="M0 0h-2.773c-.508 0-.919-.446-.919-.996v-.008c0-.55.411-.996.919-.996h23.081v2h-.92z" style="fill:#191919;fill-opacity:1;fill-rule:nonzero;stroke:none" transform="translate(223.692 162)"/><path d="M0 0v-.007c0-.55.409-.996.913-.996H22v2H.913C.409.997 0 .551 0 0" style="fill:#191919;fill-opacity:1;fill-rule:nonzero;stroke:none" transform="translate(222 157.003)"/></g></svg>