<?xml version="1.0" encoding="iso-8859-1"?>
<!-- Generator: Adobe Illustrator 28.0.0, SVG Export Plug-In . SVG Version: 6.00 Build 0)  -->
<svg version="1.1" id="Layer_1" xmlns="http://www.w3.org/2000/svg" xmlns:xlink="http://www.w3.org/1999/xlink" x="0px" y="0px"
	 viewBox="0 0 256 256" style="enable-background:new 0 0 256 256;" xml:space="preserve">
<path style="opacity:0.5;fill:#FFFFFF;" d="M251.976,107.386l-4-52C247.656,51.218,244.18,48,240,48h-16h-1.049H146h-1H37h-1H16
	c-4.18,0-7.656,3.218-7.976,7.386l-4,52c-0.025,0.325-0.03,0.651-0.015,0.977l4,88c0.091,1.994,0.923,3.882,2.335,5.294l4,4
	c1.5,1.5,3.535,2.343,5.657,2.343h216c2.122,0,4.157-0.843,5.657-2.343l4-4c1.411-1.411,2.244-3.3,2.335-5.294l4-88
	C252.007,108.038,252.001,107.711,251.976,107.386z"/>
<polygon style="fill:#B80000;" points="236,192 20,192 16,196 20,200 236,200 240,196 "/>
<polygon style="fill:#FF0000;" points="240,196 16,196 12,108 244,108 "/>
<rect x="194" y="134" style="fill:#999999;" width="38" height="48"/>
<rect x="24" y="134" style="fill:#333333;" width="160" height="48"/>
<polygon style="fill:#FF0000;" points="244,108 12,108 16,56 240,56 "/>
<rect x="36.5" y="64" style="fill:#333333;" width="187" height="12"/>
<path style="fill:#B80000;" d="M224,87.5V56h-1.049v31.5H146V56h-1v31.5H37V56h-1v31.5v1V95H13l-0.077,1H224h16v-7.5V88v-0.5H224z
	 M145,94.951L37,95v-6.5h108V94.951z M222.951,94.951H146V88.5h76.951V94.951z"/>
<polygon style="fill:#B80000;" points="236,128 20,128 12,108 244,108 "/>
<polygon style="fill:#333333;" points="18.4,124 20,128 236,128 237.6,124 "/>
<rect x="164" y="68" style="fill:#B80000;" width="44" height="8"/>
<rect x="235" y="91" style="fill:#333333;" width="2" height="2"/>
<circle style="fill:#333333;" cx="174" cy="74" r="2"/>
<circle style="fill:#333333;" cx="198" cy="74" r="2"/>
<rect x="224" y="90" style="fill:#333333;" width="10" height="4"/>
<polygon style="fill:#CCCCCC;" points="194,78 194,80 170,80 170,81 202,81 202,80 "/>
<rect x="24" y="144" style="fill:#B3B3B3;" width="8" height="8"/>
<rect x="34" y="144" style="fill:#808080;" width="8" height="8"/>
<rect x="44" y="144" style="fill:#808080;" width="8" height="8"/>
<rect x="54" y="144" style="fill:#808080;" width="8" height="8"/>
<rect x="64" y="144" style="fill:#808080;" width="8" height="8"/>
<rect x="74" y="144" style="fill:#808080;" width="8" height="8"/>
<rect x="84" y="144" style="fill:#808080;" width="8" height="8"/>
<rect x="94" y="144" style="fill:#808080;" width="8" height="8"/>
<rect x="104" y="144" style="fill:#808080;" width="8" height="8"/>
<rect x="114" y="144" style="fill:#808080;" width="8" height="8"/>
<rect x="124" y="144" style="fill:#808080;" width="8" height="8"/>
<rect x="134" y="144" style="fill:#808080;" width="8" height="8"/>
<rect x="144" y="144" style="fill:#808080;" width="8" height="8"/>
<rect x="154" y="144" style="fill:#808080;" width="8" height="8"/>
<rect x="164" y="144" style="fill:#808080;" width="4" height="8"/>
<rect x="170" y="144" style="fill:#B3B3B3;" width="12" height="8"/>
<rect x="194" y="144" style="fill:#CCCCCC;" width="8" height="8"/>
<rect x="204" y="144" style="fill:#CCCCCC;" width="8" height="8"/>
<rect x="214" y="144" style="fill:#CCCCCC;" width="8" height="8"/>
<rect x="224" y="144" style="fill:#B3B3B3;" width="8" height="8"/>
<rect x="194" y="154" style="fill:#CCCCCC;" width="8" height="8"/>
<rect x="204" y="154" style="fill:#CCCCCC;" width="8" height="8"/>
<rect x="214" y="154" style="fill:#CCCCCC;" width="8" height="8"/>
<rect x="224" y="154" style="fill:#B3B3B3;" width="8" height="8"/>
<rect x="194" y="164" style="fill:#CCCCCC;" width="8" height="8"/>
<rect x="204" y="164" style="fill:#CCCCCC;" width="8" height="8"/>
<rect x="214" y="164" style="fill:#CCCCCC;" width="8" height="8"/>
<rect x="194" y="174" style="fill:#B3B3B3;" width="8" height="8"/>
<rect x="204" y="174" style="fill:#B3B3B3;" width="8" height="8"/>
<rect x="214" y="174" style="fill:#B3B3B3;" width="8" height="8"/>
<rect x="224" y="164" style="fill:#B3B3B3;" width="8" height="18"/>
<rect x="146" y="154" style="fill:#808080;" width="8" height="8"/>
<rect x="156" y="154" style="fill:#808080;" width="8" height="8"/>
<polygon style="fill:#B3B3B3;" points="174,154 166,154 166,162 174,162 182,162 182,154 "/>
<rect x="144" y="164" style="fill:#808080;" width="8" height="8"/>
<rect x="154" y="164" style="fill:#808080;" width="8" height="8"/>
<rect x="164" y="164" style="fill:#B3B3B3;" width="18" height="8"/>
<rect x="154" y="174" style="fill:#B3B3B3;" width="8" height="8"/>
<rect x="106" y="154" style="fill:#808080;" width="8" height="8"/>
<rect x="116" y="154" style="fill:#808080;" width="8" height="8"/>
<rect x="126" y="154" style="fill:#808080;" width="8" height="8"/>
<rect x="136" y="154" style="fill:#808080;" width="8" height="8"/>
<rect x="104" y="164" style="fill:#808080;" width="8" height="8"/>
<rect x="114" y="164" style="fill:#808080;" width="8" height="8"/>
<rect x="124" y="164" style="fill:#808080;" width="8" height="8"/>
<rect x="134" y="164" style="fill:#808080;" width="8" height="8"/>
<rect x="66" y="154" style="fill:#808080;" width="8" height="8"/>
<rect x="76" y="154" style="fill:#808080;" width="8" height="8"/>
<rect x="86" y="154" style="fill:#808080;" width="8" height="8"/>
<rect x="96" y="154" style="fill:#808080;" width="8" height="8"/>
<rect x="64" y="164" style="fill:#808080;" width="8" height="8"/>
<rect x="74" y="164" style="fill:#808080;" width="8" height="8"/>
<rect x="84" y="164" style="fill:#808080;" width="8" height="8"/>
<rect x="94" y="164" style="fill:#808080;" width="8" height="8"/>
<rect x="68" y="174" style="fill:#B3B3B3;" width="84" height="8"/>
<rect x="24" y="154" style="fill:#B3B3B3;" width="10" height="8"/>
<rect x="36" y="154" style="fill:#808080;" width="8" height="8"/>
<rect x="46" y="154" style="fill:#808080;" width="8" height="8"/>
<rect x="56" y="154" style="fill:#808080;" width="8" height="8"/>
<polygon style="fill:#B3B3B3;" points="32,164 28,164 24,164 24,172 28,172 32,172 42,172 42,164 "/>
<rect x="44" y="164" style="fill:#808080;" width="8" height="8"/>
<rect x="54" y="164" style="fill:#808080;" width="8" height="8"/>
<rect x="44" y="174" style="fill:#B3B3B3;" width="10" height="8"/>
<rect x="56" y="174" style="fill:#B3B3B3;" width="10" height="8"/>
<rect x="194" y="134" style="fill:#B3B3B3;" width="8" height="8"/>
<rect x="204" y="134" style="fill:#B3B3B3;" width="8" height="8"/>
<rect x="214" y="134" style="fill:#B3B3B3;" width="8" height="8"/>
<rect x="224" y="134" style="fill:#B3B3B3;" width="8" height="8"/>
<rect x="24" y="134" style="fill:#808080;" width="16" height="8"/>
<rect x="42" y="134" style="fill:#808080;" width="16" height="8"/>
<rect x="60" y="134" style="fill:#808080;" width="16" height="8"/>
<rect x="78" y="134" style="fill:#808080;" width="16" height="8"/>
<rect x="96" y="134" style="fill:#808080;" width="16" height="8"/>
<rect x="28" y="184" style="fill:#3096CF;" width="16" height="4"/>
<rect x="24" y="130" style="fill:#D9D9D9;" width="16" height="2"/>
<rect x="42" y="130" style="fill:#D9D9D9;" width="16" height="2"/>
<rect x="88" y="130" style="fill:#D9D9D9;" width="12" height="2"/>
<rect x="74" y="130" style="fill:#B80000;" width="12" height="2"/>
<rect x="60" y="130" style="fill:#B80000;" width="12" height="2"/>
<rect x="152" y="128" style="fill:#D9D9D9;" width="12" height="4"/>
<rect x="186" y="128" style="fill:#D9D9D9;" width="12" height="4"/>
<rect x="208" y="128" style="fill:#D9D9D9;" width="12" height="4"/>
<rect x="166" y="128" style="fill:#D9D9D9;" width="18" height="4"/>
</svg>
