<svg xmlns="http://www.w3.org/2000/svg" xml:space="preserve" viewBox="0 0 256 256"><path d="m251.976 107.386-4-52A8 8 0 0 0 240 48H16a8 8 0 0 0-7.976 7.386l-4 52q-.037.488-.015.977l4 88a8 8 0 0 0 2.335 5.294l4 4A8 8 0 0 0 20.001 208h216a8 8 0 0 0 5.657-2.343l4-4a8 8 0 0 0 2.335-5.294l4-88a8 8 0 0 0-.017-.977" style="opacity:.5;fill:#fff"/><path d="M236 192H20l-4 4 4 4h216l4-4z" style="fill:#b80000"/><path d="M240 196H16l-4-88h232z" style="fill:red"/><path d="M194 134h38v48h-38z" style="fill:#999"/><path d="M24 134h160v48H24z" style="fill:#333"/><path d="M244 108H12l4-52h224z" style="fill:red"/><path d="M36.5 64h187v12h-187z" style="fill:#333"/><path d="M224 87.5V56h-1.049v31.5H146V56h-1v31.5H37V56h-1v39H13l-.077 1H240v-8.5zm-79 7.451L37 95v-6.5h108zm77.951 0H146V88.5h76.951zM236 128H20l-8-20h232z" style="fill:#b80000"/><path d="m18.4 124 1.6 4h216l1.6-4z" style="fill:#333"/><path d="M164 68h44v8h-44z" style="fill:#b80000"/><path d="M235 91h2v2h-2z" style="fill:#333"/><circle cx="174" cy="74" r="2" style="fill:#333"/><circle cx="198" cy="74" r="2" style="fill:#333"/><path d="M224 90h10v4h-10z" style="fill:#333"/><path d="M194 78v2h-24v1h32v-1z" style="fill:#ccc"/><path d="M24 144h8v8h-8z" style="fill:#b3b3b3"/><path d="M34 144h8v8h-8zm10 0h8v8h-8zm10 0h8v8h-8zm10 0h8v8h-8zm10 0h8v8h-8zm10 0h8v8h-8zm10 0h8v8h-8zm10 0h8v8h-8zm10 0h8v8h-8zm10 0h8v8h-8zm10 0h8v8h-8zm10 0h8v8h-8zm10 0h8v8h-8zm10 0h4v8h-4z" style="fill:gray"/><path d="M170 144h12v8h-12z" style="fill:#b3b3b3"/><path d="M194 144h8v8h-8zm10 0h8v8h-8zm10 0h8v8h-8z" style="fill:#ccc"/><path d="M224 144h8v8h-8z" style="fill:#b3b3b3"/><path d="M194 154h8v8h-8zm10 0h8v8h-8zm10 0h8v8h-8z" style="fill:#ccc"/><path d="M224 154h8v8h-8z" style="fill:#b3b3b3"/><path d="M194 164h8v8h-8zm10 0h8v8h-8zm10 0h8v8h-8z" style="fill:#ccc"/><path d="M194 174h8v8h-8zm10 0h8v8h-8zm10 0h8v8h-8zm10-10h8v18h-8z" style="fill:#b3b3b3"/><path d="M146 154h8v8h-8zm10 0h8v8h-8z" style="fill:gray"/><path d="M174 154h-8v8h16v-8z" style="fill:#b3b3b3"/><path d="M144 164h8v8h-8zm10 0h8v8h-8z" style="fill:gray"/><path d="M164 164h18v8h-18zm-10 10h8v8h-8z" style="fill:#b3b3b3"/><path d="M106 154h8v8h-8zm10 0h8v8h-8zm10 0h8v8h-8zm10 0h8v8h-8zm-32 10h8v8h-8zm10 0h8v8h-8zm10 0h8v8h-8zm10 0h8v8h-8zm-68-10h8v8h-8zm10 0h8v8h-8zm10 0h8v8h-8zm10 0h8v8h-8zm-32 10h8v8h-8zm10 0h8v8h-8zm10 0h8v8h-8zm10 0h8v8h-8z" style="fill:gray"/><path d="M68 174h84v8H68zm-44-20h10v8H24z" style="fill:#b3b3b3"/><path d="M36 154h8v8h-8zm10 0h8v8h-8zm10 0h8v8h-8z" style="fill:gray"/><path d="M32 164h-8v8h18v-8z" style="fill:#b3b3b3"/><path d="M44 164h8v8h-8zm10 0h8v8h-8z" style="fill:gray"/><path d="M44 174h10v8H44zm12 0h10v8H56zm138-40h8v8h-8zm10 0h8v8h-8zm10 0h8v8h-8zm10 0h8v8h-8z" style="fill:#b3b3b3"/><path d="M24 134h16v8H24zm18 0h16v8H42zm18 0h16v8H60zm18 0h16v8H78zm18 0h16v8H96z" style="fill:gray"/><path d="M28 184h16v4H28z" style="fill:#3096cf"/><path d="M24 130h16v2H24zm18 0h16v2H42zm46 0h12v2H88z" style="fill:#d9d9d9"/><path d="M74 130h12v2H74zm-14 0h12v2H60z" style="fill:#b80000"/><path d="M152 128h12v4h-12zm34 0h12v4h-12zm22 0h12v4h-12zm-42 0h18v4h-18z" style="fill:#d9d9d9"/></svg>