<svg xmlns="http://www.w3.org/2000/svg" xml:space="preserve" width="330.667" height="256" viewBox="0 0 330.667 256"><defs><clipPath id="a" clipPathUnits="userSpaceOnUse"><path d="M0 256h256V0H0Z"/></clipPath><clipPath id="b" clipPathUnits="userSpaceOnUse"><path d="M4 224h248V32H4Z"/></clipPath></defs><g clip-path="url(#a)" transform="matrix(1.33333 0 0 -1.33333 -5.333 298.667)"><g clip-path="url(#b)" style="opacity:.5"><path d="M0 0v102.005c0 6.617-5.383 12-12 12h-54.005a9.99 9.99 0 0 1-7.995 4h-96a9.99 9.99 0 0 1-7.995-4H-232c-6.617 0-12-5.383-12-12v-156c0-11.028 8.972-20 20-20h204c11.028 0 20 8.972 20 20v18.005a9.99 9.99 0 0 1 4 7.995v20A9.99 9.99 0 0 1 0 0" style="fill:#fff;fill-opacity:1;fill-rule:nonzero;stroke:none" transform="translate(248 105.995)"/></g><path d="M0 0h-4a2 2 0 0 0-2 2v20a2 2 0 0 0 2 2h4a2 2 0 0 0 2-2V2a2 2 0 0 0-2-2" style="fill:#404040;fill-opacity:1;fill-rule:nonzero;stroke:none" transform="translate(242 76)"/><path d="M0 0h-96a2 2 0 0 0-2 2v4a2 2 0 0 0 2 2H0a2 2 0 0 0 2-2V2a2 2 0 0 0-2-2" style="fill:#404040;fill-opacity:1;fill-rule:nonzero;stroke:none" transform="translate(174 208)"/><path d="M0 0h-204c-6.627 0-12 5.373-12 12v156a4 4 0 0 0 4 4H8a4 4 0 0 0 4-4V12C12 5.373 6.627 0 0 0" style="fill:#8c8c8c;fill-opacity:1;fill-rule:nonzero;stroke:none" transform="translate(228 40)"/><path d="M0 0h-212a4 4 0 0 0-4 4v128a4 4 0 0 0 4 4H0a4 4 0 0 0 4-4V4a4 4 0 0 0-4-4" style="fill:#999;fill-opacity:1;fill-rule:nonzero;stroke:none" transform="translate(232 72)"/><path d="M0 0h-204.123a3.94 3.94 0 0 0-3.939 3.938v120.123a3.94 3.94 0 0 0 3.939 3.939H0a3.94 3.94 0 0 0 3.938-3.939V3.938A3.94 3.94 0 0 0 0 0" style="fill:#1abf9f;fill-opacity:1;fill-rule:nonzero;stroke:none" transform="translate(228.061 76)"/><path d="M0 0a2 2 0 0 0 2 2h124a2 2 0 0 0 2-2v-102h3V0c0 2.757-2.243 5-5 5H2C-.757 5-3 2.757-3 0v-102h3z" style="fill:#16a085;fill-opacity:1;fill-rule:nonzero;stroke:none" transform="translate(64 178)"/><path d="M72 40H60v12h12zm124 0h-12v12h12z" style="fill:#a6a6a6;fill-opacity:1;fill-rule:nonzero;stroke:none"/><path d="M0 0h-10a1 1 0 0 0-1 1v22a1 1 0 0 0 1 1H0a1 1 0 0 0 1-1V1a1 1 0 0 0-1-1" style="fill:#b3b3b3;fill-opacity:1;fill-rule:nonzero;stroke:none" transform="translate(71 44)"/><path d="M0 0h-10a1 1 0 0 0-1 1v22a1 1 0 0 0 1 1H0a1 1 0 0 0 1-1V1a1 1 0 0 0-1-1" style="fill:#b3b3b3;fill-opacity:1;fill-rule:nonzero;stroke:none" transform="translate(195 44)"/><path d="M0 0a7.99 7.99 0 0 1-6.921 4 7.99 7.99 0 0 1-6.921-4Z" style="fill:#404040;fill-opacity:1;fill-rule:nonzero;stroke:none" transform="translate(58.92 40)"/><path d="M0 0a7.99 7.99 0 0 1-6.921 4 7.99 7.99 0 0 1-6.921-4Z" style="fill:#404040;fill-opacity:1;fill-rule:nonzero;stroke:none" transform="translate(37.842 40)"/><path d="M228 40h-28v2h28z" style="fill:#404040;fill-opacity:1;fill-rule:nonzero;stroke:none"/><path d="M0 0a6 6 0 0 0-12 0A6 6 0 0 0 0 0" style="fill:#a6a6a6;fill-opacity:1;fill-rule:nonzero;stroke:none" transform="translate(96 54)"/><path d="M0 0a4 4 0 1 0-8 0 4 4 0 0 0 8 0" style="fill:#b3b3b3;fill-opacity:1;fill-rule:nonzero;stroke:none" transform="translate(94 54)"/><path d="M0 0a6 6 0 0 0-12 0A6 6 0 0 0 0 0" style="fill:#a6a6a6;fill-opacity:1;fill-rule:nonzero;stroke:none" transform="translate(120 54)"/><path d="M0 0a4 4 0 1 0-8 0 4 4 0 0 0 8 0" style="fill:#b3b3b3;fill-opacity:1;fill-rule:nonzero;stroke:none" transform="translate(118 54)"/><path d="M0 0a6 6 0 0 0-12 0A6 6 0 0 0 0 0" style="fill:#a6a6a6;fill-opacity:1;fill-rule:nonzero;stroke:none" transform="translate(144 54)"/><path d="M0 0a4 4 0 1 0-8 0 4 4 0 0 0 8 0" style="fill:#b3b3b3;fill-opacity:1;fill-rule:nonzero;stroke:none" transform="translate(142 54)"/><path d="M0 0a6 6 0 0 0-12 0A6 6 0 0 0 0 0" style="fill:#a6a6a6;fill-opacity:1;fill-rule:nonzero;stroke:none" transform="translate(168 54)"/><path d="M0 0a4 4 0 1 0-8 0 4 4 0 0 0 8 0" style="fill:#b3b3b3;fill-opacity:1;fill-rule:nonzero;stroke:none" transform="translate(166 54)"/></g></svg>