<?xml version="1.0" encoding="UTF-8" standalone="no"?>
<svg
   xmlns:dc="http://purl.org/dc/elements/1.1/"
   xmlns:cc="http://creativecommons.org/ns#"
   xmlns:rdf="http://www.w3.org/1999/02/22-rdf-syntax-ns#"
   xmlns:svg="http://www.w3.org/2000/svg"
   xmlns="http://www.w3.org/2000/svg"
   viewBox="0 0 330.66665 255.99986"
   height="255.99986"
   width="330.66666"
   xml:space="preserve"
   id="svg2"
   version="1.1"><metadata
     id="metadata8"><rdf:RDF><cc:Work
         rdf:about=""><dc:format>image/svg+xml</dc:format><dc:type
           rdf:resource="http://purl.org/dc/dcmitype/StillImage" /></cc:Work></rdf:RDF></metadata><defs
     id="defs6"><clipPath
       id="clipPath18"
       clipPathUnits="userSpaceOnUse"><path
         id="path16"
         d="M 0,256 H 256 V 0 H 0 Z" /></clipPath><clipPath
       id="clipPath26"
       clipPathUnits="userSpaceOnUse"><path
         id="path24"
         d="M 4,224 H 252 V 32 H 4 Z" /></clipPath></defs><g
     transform="matrix(1.3333333,0,0,-1.3333333,-5.3333332,298.66666)"
     id="g10"><g
       id="g12"><g
         clip-path="url(#clipPath18)"
         id="g14"><g
           id="g20"><g
             id="g22" /><g
             id="g34"><g
               style="opacity:0.5"
               id="g32"
               clip-path="url(#clipPath26)"><g
                 id="g30"
                 transform="translate(248,105.9951)"><path
                   id="path28"
                   style="fill:#ffffff;fill-opacity:1;fill-rule:nonzero;stroke:none"
                   d="m 0,0 v 102.005 c 0,6.617 -5.383,12 -12,12 h -54.005 c -1.826,2.428 -4.73,4 -7.995,4 h -96 c -3.265,0 -6.169,-1.572 -7.995,-4 H -232 c -6.617,0 -12,-5.383 -12,-12 v -156 c 0,-11.028 8.972,-20 20,-20 h 13.842 7.237 13.842 1.079 12 112 12 4 28 c 11.028,0 20,8.972 20,20 v 18.005 c 2.428,1.826 4,4.73 4,7.995 v 20 C 4,-4.73 2.428,-1.826 0,0" /></g></g></g></g><g
           transform="translate(242,76)"
           id="g36"><path
             id="path38"
             style="fill:#404040;fill-opacity:1;fill-rule:nonzero;stroke:none"
             d="m 0,0 h -4 c -1.104,0 -2,0.896 -2,2 v 20 c 0,1.104 0.896,2 2,2 h 4 c 1.104,0 2,-0.896 2,-2 V 2 C 2,0.896 1.104,0 0,0" /></g><g
           transform="translate(174,208)"
           id="g40"><path
             id="path42"
             style="fill:#404040;fill-opacity:1;fill-rule:nonzero;stroke:none"
             d="m 0,0 h -96 c -1.104,0 -2,0.896 -2,2 v 4 c 0,1.104 0.896,2 2,2 H 0 C 1.104,8 2,7.104 2,6 V 2 C 2,0.896 1.104,0 0,0" /></g><g
           transform="translate(228,40)"
           id="g44"><path
             id="path46"
             style="fill:#8c8c8c;fill-opacity:1;fill-rule:nonzero;stroke:none"
             d="m 0,0 h -204 c -6.627,0 -12,5.373 -12,12 v 156 c 0,2.209 1.791,4 4,4 H 8 c 2.209,0 4,-1.791 4,-4 V 12 C 12,5.373 6.627,0 0,0" /></g><g
           transform="translate(232,72)"
           id="g48"><path
             id="path50"
             style="fill:#999999;fill-opacity:1;fill-rule:nonzero;stroke:none"
             d="m 0,0 h -212 c -2.209,0 -4,1.791 -4,4 v 128 c 0,2.209 1.791,4 4,4 H 0 c 2.209,0 4,-1.791 4,-4 V 4 C 4,1.791 2.209,0 0,0" /></g><g
           transform="translate(228.0615,76)"
           id="g52"><path
             id="path54"
             style="fill:#1abf9f;fill-opacity:1;fill-rule:nonzero;stroke:none"
             d="m 0,0 h -204.123 c -2.175,0 -3.939,1.764 -3.939,3.938 v 120.123 c 0,2.175 1.764,3.939 3.939,3.939 H 0 c 2.175,0 3.938,-1.764 3.938,-3.939 V 3.938 C 3.938,1.764 2.175,0 0,0" /></g><g
           transform="translate(64,178)"
           id="g56"><path
             id="path58"
             style="fill:#16a085;fill-opacity:1;fill-rule:nonzero;stroke:none"
             d="m 0,0 c 0,1.104 0.896,2 2,2 h 124 c 1.104,0 2,-0.896 2,-2 v -102 h 3 V 0 c 0,2.757 -2.243,5 -5,5 H 2 C -0.757,5 -3,2.757 -3,0 v -102 h 3 z" /></g><path
           id="path60"
           style="fill:#a6a6a6;fill-opacity:1;fill-rule:nonzero;stroke:none"
           d="M 72,40 H 60 v 12 h 12 z" /><path
           id="path62"
           style="fill:#a6a6a6;fill-opacity:1;fill-rule:nonzero;stroke:none"
           d="m 196,40 h -12 v 12 h 12 z" /><g
           transform="translate(71,44)"
           id="g64"><path
             id="path66"
             style="fill:#b3b3b3;fill-opacity:1;fill-rule:nonzero;stroke:none"
             d="m 0,0 h -10 c -0.552,0 -1,0.447 -1,1 v 22 c 0,0.553 0.448,1 1,1 H 0 c 0.552,0 1,-0.447 1,-1 V 1 C 1,0.447 0.552,0 0,0" /></g><g
           transform="translate(195,44)"
           id="g68"><path
             id="path70"
             style="fill:#b3b3b3;fill-opacity:1;fill-rule:nonzero;stroke:none"
             d="m 0,0 h -10 c -0.553,0 -1,0.447 -1,1 v 22 c 0,0.553 0.447,1 1,1 H 0 c 0.553,0 1,-0.447 1,-1 V 1 C 1,0.447 0.553,0 0,0" /></g><g
           transform="translate(58.9209,40)"
           id="g72"><path
             id="path74"
             style="fill:#404040;fill-opacity:1;fill-rule:nonzero;stroke:none"
             d="M 0,0 C -1.384,2.389 -3.961,4 -6.921,4 -9.88,4 -12.458,2.389 -13.842,0 Z" /></g><g
           transform="translate(37.8418,40)"
           id="g76"><path
             id="path78"
             style="fill:#404040;fill-opacity:1;fill-rule:nonzero;stroke:none"
             d="M 0,0 C -1.384,2.389 -3.961,4 -6.921,4 -9.88,4 -12.458,2.389 -13.842,0 Z" /></g><path
           id="path80"
           style="fill:#404040;fill-opacity:1;fill-rule:nonzero;stroke:none"
           d="m 228,40 h -28 v 2 h 28 z" /><g
           transform="translate(96,54)"
           id="g82"><path
             id="path84"
             style="fill:#a6a6a6;fill-opacity:1;fill-rule:nonzero;stroke:none"
             d="m 0,0 c 0,-3.313 -2.687,-6 -6,-6 -3.313,0 -6,2.687 -6,6 0,3.313 2.687,6 6,6 3.313,0 6,-2.687 6,-6" /></g><g
           transform="translate(94,54)"
           id="g86"><path
             id="path88"
             style="fill:#b3b3b3;fill-opacity:1;fill-rule:nonzero;stroke:none"
             d="m 0,0 c 0,-2.209 -1.791,-4 -4,-4 -2.209,0 -4,1.791 -4,4 0,2.209 1.791,4 4,4 2.209,0 4,-1.791 4,-4" /></g><g
           transform="translate(120,54)"
           id="g90"><path
             id="path92"
             style="fill:#a6a6a6;fill-opacity:1;fill-rule:nonzero;stroke:none"
             d="m 0,0 c 0,-3.313 -2.687,-6 -6,-6 -3.313,0 -6,2.687 -6,6 0,3.313 2.687,6 6,6 3.313,0 6,-2.687 6,-6" /></g><g
           transform="translate(118,54)"
           id="g94"><path
             id="path96"
             style="fill:#b3b3b3;fill-opacity:1;fill-rule:nonzero;stroke:none"
             d="m 0,0 c 0,-2.209 -1.791,-4 -4,-4 -2.209,0 -4,1.791 -4,4 0,2.209 1.791,4 4,4 2.209,0 4,-1.791 4,-4" /></g><g
           transform="translate(144,54)"
           id="g98"><path
             id="path100"
             style="fill:#a6a6a6;fill-opacity:1;fill-rule:nonzero;stroke:none"
             d="m 0,0 c 0,-3.313 -2.687,-6 -6,-6 -3.313,0 -6,2.687 -6,6 0,3.313 2.687,6 6,6 3.313,0 6,-2.687 6,-6" /></g><g
           transform="translate(142,54)"
           id="g102"><path
             id="path104"
             style="fill:#b3b3b3;fill-opacity:1;fill-rule:nonzero;stroke:none"
             d="m 0,0 c 0,-2.209 -1.791,-4 -4,-4 -2.209,0 -4,1.791 -4,4 0,2.209 1.791,4 4,4 2.209,0 4,-1.791 4,-4" /></g><g
           transform="translate(168,54)"
           id="g106"><path
             id="path108"
             style="fill:#a6a6a6;fill-opacity:1;fill-rule:nonzero;stroke:none"
             d="m 0,0 c 0,-3.313 -2.687,-6 -6,-6 -3.313,0 -6,2.687 -6,6 0,3.313 2.687,6 6,6 3.313,0 6,-2.687 6,-6" /></g><g
           transform="translate(166,54)"
           id="g110"><path
             id="path112"
             style="fill:#b3b3b3;fill-opacity:1;fill-rule:nonzero;stroke:none"
             d="m 0,0 c 0,-2.209 -1.791,-4 -4,-4 -2.209,0 -4,1.791 -4,4 0,2.209 1.791,4 4,4 2.209,0 4,-1.791 4,-4" /></g></g></g></g></svg>