<svg xmlns="http://www.w3.org/2000/svg" xml:space="preserve" width="322.312" height="260.582" viewBox="0 0 322.312 260.582"><defs><clipPath id="a" clipPathUnits="userSpaceOnUse"><path d="M0 256h256V0H0Z"/></clipPath><clipPath id="b" clipPathUnits="userSpaceOnUse"><path d="M7.133 224h241.734V28.564H7.133Z"/></clipPath><clipPath id="c" clipPathUnits="userSpaceOnUse"><path d="M0 256h256V0H0Z"/></clipPath></defs><g clip-path="url(#a)" transform="matrix(1.33333 0 0 -1.33333 -9.51 298.667)"><g clip-path="url(#b)" style="opacity:.5"><path d="m0 0-2.364 4.729A5 5 0 0 1 .422 9.211v2a4.97 4.97 0 0 1-1.002 3 4.97 4.97 0 0 1 1.002 3v2a4.97 4.97 0 0 1-1.002 3 4.97 4.97 0 0 1 1.002 3v2a4.97 4.97 0 0 1-1.002 3 4.97 4.97 0 0 1 1.002 3v2a4.97 4.97 0 0 1-1.002 3 4.97 4.97 0 0 1 1.002 3v2a4.97 4.97 0 0 1-1.002 3 4.97 4.97 0 0 1 1.002 3v2a4.97 4.97 0 0 1-1.002 3 4.97 4.97 0 0 1 1.002 3v2a4.97 4.97 0 0 1-1.002 3 4.97 4.97 0 0 1 1.002 3v2a4.98 4.98 0 0 1-1.002 3 4.97 4.97 0 0 1 1.002 3v2a4.98 4.98 0 0 1-1.002 3 4.97 4.97 0 0 1 1.002 3v2a4.98 4.98 0 0 1-1.002 3 4.97 4.97 0 0 1 1.002 3v2a4.98 4.98 0 0 1-1.002 3 4.97 4.97 0 0 1 1.002 3v2a4.98 4.98 0 0 1-1.002 3 4.97 4.97 0 0 1 1.002 3v2a4.98 4.98 0 0 1-1.002 3 4.97 4.97 0 0 1 1.002 3v2a4.98 4.98 0 0 1-1.002 3 4.97 4.97 0 0 1 1.002 3v2a5.01 5.01 0 0 1-2.786 4.483L0 132.422l1.289 2.579-1.21 1.21.919.92-.781 2.345-4 12-.79 2.37-2.477.33c-.455.06-46.046 6.086-91.716 7.657l-.143.004-.151.006q-3.3.111-6.593.192l-.39.009c-2.244.053-4.455.094-6.568.121l-.16.002-.142.001c-2.318.028-4.56.043-6.665.043s-4.347-.015-6.662-.043l-.146-.001-.159-.002a611 611 0 0 1-6.57-.121l-.387-.009a728 728 0 0 1-6.594-.192l-.151-.006-.143-.004c-45.671-1.571-91.261-7.597-91.717-7.657l-2.476-.33-.79-2.37-4-12-.757-2.271.918-.972-1.233-1.232 1.289-2.579 2.364-4.728a5.01 5.01 0 0 1-2.786-4.483v-2c0-1.125.373-2.164 1.002-3a4.98 4.98 0 0 1-1.002-3v-2c0-1.125.373-2.164 1.002-3a4.98 4.98 0 0 1-1.002-3v-2c0-1.125.373-2.164 1.002-3a4.98 4.98 0 0 1-1.002-3v-2c0-1.125.373-2.164 1.002-3a4.98 4.98 0 0 1-1.002-3v-2c0-1.125.373-2.164 1.002-3a4.98 4.98 0 0 1-1.002-3v-2c0-1.125.373-2.164 1.002-3a4.98 4.98 0 0 1-1.002-3v-2c0-1.125.373-2.164 1.002-3a4.98 4.98 0 0 1-1.002-3v-2c0-1.125.373-2.164 1.002-3a4.97 4.97 0 0 1-1.002-3v-2c0-1.125.373-2.164 1.002-3a4.97 4.97 0 0 1-1.002-3v-2c0-1.125.373-2.164 1.002-3a4.97 4.97 0 0 1-1.002-3v-2c0-1.125.373-2.164 1.002-3a4.97 4.97 0 0 1-1.002-3v-2c0-1.125.373-2.164 1.002-3a4.97 4.97 0 0 1-1.002-3v-2c0-1.125.373-2.164 1.002-3a4.97 4.97 0 0 1-1.002-3v-2c0-1.125.373-2.164 1.002-3a4.97 4.97 0 0 1-1.002-3v-2a5 5 0 0 1 2.786-4.482L-239.156 0l-1.289-2.579 1.233-1.233-.918-.971.757-2.271 4-12 .734-2.202 2.276-.455c.415-.083 41.982-8.328 85.462-11.135l1.806-.117 1.28 1.28 2.51 2.51c7.767-.414 14.843-.616 21.577-.616 6.876 0 14.111.141 22.063.43l2.622-2.622 1.244-1.245 1.758.077c43.284 1.879 84.579 7.34 84.991 7.395l2.694.359.659 2.636 4 16 .549 2.197-.773.773 1.21 1.21z" style="fill:#fff;fill-opacity:1;fill-rule:nonzero;stroke:none" transform="translate(247.578 61.79)"/></g></g><path d="m0 0 4 8-8 8h-216l-8-8 4-8v-120l-4-8 4-4H0l4 4-4 8z" style="fill:#262626;fill-opacity:1;fill-rule:nonzero;stroke:none" transform="matrix(1.33333 0 0 -1.33333 310.49 48)"/><g clip-path="url(#c)" transform="matrix(1.33333 0 0 -1.33333 -9.51 298.667)"><path d="M0 0h-230a1 1 0 0 0-1 1v2a1 1 0 0 0 1 1H0a1 1 0 0 0 1-1V1a1 1 0 0 0-1-1" style="fill:#404040;fill-opacity:1;fill-rule:nonzero;stroke:none" transform="translate(243 182)"/><path d="M0 0h-230a1 1 0 0 0-1 1v2a1 1 0 0 0 1 1H0a1 1 0 0 0 1-1V1a1 1 0 0 0-1-1" style="fill:#404040;fill-opacity:1;fill-rule:nonzero;stroke:none" transform="translate(243 174)"/><path d="M0 0h-230a1 1 0 0 0-1 1v2a1 1 0 0 0 1 1H0a1 1 0 0 0 1-1V1a1 1 0 0 0-1-1" style="fill:#404040;fill-opacity:1;fill-rule:nonzero;stroke:none" transform="translate(243 166)"/><path d="M0 0h-230a1 1 0 0 0-1 1v2a1 1 0 0 0 1 1H0a1 1 0 0 0 1-1V1a1 1 0 0 0-1-1" style="fill:#404040;fill-opacity:1;fill-rule:nonzero;stroke:none" transform="translate(243 158)"/><path d="M0 0h-230a1 1 0 0 0-1 1v2a1 1 0 0 0 1 1H0a1 1 0 0 0 1-1V1a1 1 0 0 0-1-1" style="fill:#404040;fill-opacity:1;fill-rule:nonzero;stroke:none" transform="translate(243 150)"/><path d="M0 0h-230a1 1 0 0 0-1 1v2a1 1 0 0 0 1 1H0a1 1 0 0 0 1-1V1a1 1 0 0 0-1-1" style="fill:#404040;fill-opacity:1;fill-rule:nonzero;stroke:none" transform="translate(243 142)"/><path d="M0 0h-230a1 1 0 0 0-1 1v2a1 1 0 0 0 1 1H0a1 1 0 0 0 1-1V1a1 1 0 0 0-1-1" style="fill:#404040;fill-opacity:1;fill-rule:nonzero;stroke:none" transform="translate(243 134)"/><path d="M0 0h-230a1 1 0 0 0-1 1v2a1 1 0 0 0 1 1H0a1 1 0 0 0 1-1V1a1 1 0 0 0-1-1" style="fill:#404040;fill-opacity:1;fill-rule:nonzero;stroke:none" transform="translate(243 126)"/><path d="M0 0h-230a1 1 0 0 0-1 1v2a1 1 0 0 0 1 1H0a1 1 0 0 0 1-1V1a1 1 0 0 0-1-1" style="fill:#404040;fill-opacity:1;fill-rule:nonzero;stroke:none" transform="translate(243 118)"/><path d="M0 0h-230a1 1 0 0 0-1 1v2a1 1 0 0 0 1 1H0a1 1 0 0 0 1-1V1a1 1 0 0 0-1-1" style="fill:#404040;fill-opacity:1;fill-rule:nonzero;stroke:none" transform="translate(243 110)"/><path d="M0 0h-230a1 1 0 0 0-1 1v2a1 1 0 0 0 1 1H0a1 1 0 0 0 1-1V1a1 1 0 0 0-1-1" style="fill:#404040;fill-opacity:1;fill-rule:nonzero;stroke:none" transform="translate(243 102)"/><path d="M0 0h-230a1 1 0 0 0-1 1v2a1 1 0 0 0 1 1H0a1 1 0 0 0 1-1V1a1 1 0 0 0-1-1" style="fill:#404040;fill-opacity:1;fill-rule:nonzero;stroke:none" transform="translate(243 94)"/><path d="M0 0h-230a1 1 0 0 0-1 1v2a1 1 0 0 0 1 1H0a1 1 0 0 0 1-1V1a1 1 0 0 0-1-1" style="fill:#404040;fill-opacity:1;fill-rule:nonzero;stroke:none" transform="translate(243 86)"/><path d="M0 0h-230a1 1 0 0 0-1 1v2a1 1 0 0 0 1 1H0a1 1 0 0 0 1-1V1a1 1 0 0 0-1-1" style="fill:#404040;fill-opacity:1;fill-rule:nonzero;stroke:none" transform="translate(243 78)"/><path d="M0 0h-230a1 1 0 0 0-1 1v2a1 1 0 0 0 1 1H0a1 1 0 0 0 1-1V1a1 1 0 0 0-1-1" style="fill:#404040;fill-opacity:1;fill-rule:nonzero;stroke:none" transform="translate(243 70)"/><path d="M0 0c8.999 0 18.238.24 27.364.636L0 28-27.065.935C-18.036.352-8.901 0 0 0" style="fill:#191919;fill-opacity:1;fill-rule:nonzero;stroke:none" transform="translate(127.85 36)"/><path d="M0 0c8.999 0 18.238.24 27.364.636L0 28-27.065.935C-18.036.352-8.901 0 0 0" style="fill:#262626;fill-opacity:1;fill-rule:nonzero;stroke:none" transform="translate(127.85 40)"/><path d="m0 0-4 12s-60 8-112 8-112-8-112-8l-4-12 68-72-68-72 4-12s41.217-8.243 84.935-11.065L-116-140l27.364-27.364C-45.029-165.471-4-160-4-160l4 16-72 72z" style="fill:#333;fill-opacity:1;fill-rule:nonzero;stroke:none" transform="translate(244 200)"/><path d="m0 0 27.364 27.364C18.238 27.76 8.999 28 0 28s-18.238-.24-27.364-.636Z" style="fill:#191919;fill-opacity:1;fill-rule:nonzero;stroke:none" transform="translate(128 192)"/><path d="m0 0 23.514-23.514L47.027 0C39.16.301 31.25.486 23.514.486S7.867.301 0 0" style="fill:#262626;fill-opacity:1;fill-rule:nonzero;stroke:none" transform="translate(104.486 215.514)"/><path d="M0 0c0-17.673-14.327-32-32-32S-64-17.673-64 0s14.327 32 32 32S0 17.673 0 0" style="fill:#404040;fill-opacity:1;fill-rule:nonzero;stroke:none" transform="translate(160 128)"/><path d="M0 0c0-13.255-10.745-24-24-24S-48-13.255-48 0s10.745 24 24 24S0 13.255 0 0" style="fill:#0f0;fill-opacity:1;fill-rule:nonzero;stroke:none" transform="translate(152 128)"/></g></svg>