<?xml version="1.0" encoding="UTF-8" standalone="no"?>
<svg
   xmlns:dc="http://purl.org/dc/elements/1.1/"
   xmlns:cc="http://creativecommons.org/ns#"
   xmlns:rdf="http://www.w3.org/1999/02/22-rdf-syntax-ns#"
   xmlns:svg="http://www.w3.org/2000/svg"
   xmlns="http://www.w3.org/2000/svg"
   viewBox="0 0 322.31186 260.58185"
   height="260.58185"
   width="322.31186"
   xml:space="preserve"
   id="svg2"
   version="1.1"><metadata
     id="metadata8"><rdf:RDF><cc:Work
         rdf:about=""><dc:format>image/svg+xml</dc:format><dc:type
           rdf:resource="http://purl.org/dc/dcmitype/StillImage" /></cc:Work></rdf:RDF></metadata><defs
     id="defs6"><clipPath
       id="clipPath18"
       clipPathUnits="userSpaceOnUse"><path
         id="path16"
         d="M 0,256 H 256 V 0 H 0 Z" /></clipPath><clipPath
       id="clipPath26"
       clipPathUnits="userSpaceOnUse"><path
         id="path24"
         d="M 7.13297,224 H 248.867 V 28.5636 H 7.13297 Z" /></clipPath><clipPath
       id="clipPath46"
       clipPathUnits="userSpaceOnUse"><path
         id="path44"
         d="M 0,256 H 256 V 0 H 0 Z" /></clipPath></defs><g
     transform="matrix(1.3333333,0,0,-1.3333333,-9.5107998,298.66666)"
     id="g10"><g
       id="g12"><g
         clip-path="url(#clipPath18)"
         id="g14"><g
           id="g20"><g
             id="g22" /><g
             id="g34"><g
               style="opacity:0.5"
               id="g32"
               clip-path="url(#clipPath26)"><g
                 id="g30"
                 transform="translate(247.5781,61.7891)"><path
                   id="path28"
                   style="fill:#ffffff;fill-opacity:1;fill-rule:nonzero;stroke:none"
                   d="m 0,0 -2.364,4.729 c 1.649,0.817 2.786,2.519 2.786,4.482 v 2 c 0,1.125 -0.373,2.164 -1.002,3 0.629,0.836 1.002,1.875 1.002,3 v 2 c 0,1.125 -0.373,2.164 -1.002,3 0.629,0.836 1.002,1.875 1.002,3 v 2 c 0,1.125 -0.373,2.164 -1.002,3 0.629,0.836 1.002,1.875 1.002,3 v 2 c 0,1.125 -0.373,2.164 -1.002,3 0.629,0.836 1.002,1.875 1.002,3 v 2 c 0,1.125 -0.373,2.164 -1.002,3 0.629,0.836 1.002,1.875 1.002,3 v 2 c 0,1.125 -0.373,2.164 -1.002,3 0.629,0.836 1.002,1.875 1.002,3 v 2 c 0,1.125 -0.373,2.164 -1.002,3 0.629,0.836 1.002,1.875 1.002,3 v 2 c 0,1.124 -0.373,2.164 -1.002,3 0.629,0.836 1.002,1.875 1.002,3 v 2 c 0,1.124 -0.373,2.164 -1.002,3 0.629,0.836 1.002,1.875 1.002,3 v 2 c 0,1.124 -0.373,2.164 -1.002,3 0.629,0.836 1.002,1.875 1.002,3 v 2 c 0,1.124 -0.373,2.164 -1.002,3 0.629,0.836 1.002,1.875 1.002,3 v 2 c 0,1.124 -0.373,2.164 -1.002,3 0.629,0.836 1.002,1.875 1.002,3 v 2 c 0,1.124 -0.373,2.164 -1.002,3 0.629,0.836 1.002,1.875 1.002,3 v 2 c 0,1.124 -0.373,2.164 -1.002,3 0.629,0.836 1.002,1.875 1.002,3 v 2 c 0,1.963 -1.137,3.665 -2.786,4.483 l 2.364,4.728 1.289,2.579 -1.21,1.21 0.919,0.92 -0.781,2.345 -4,12 -0.79,2.37 -2.477,0.33 c -0.455,0.06 -46.046,6.086 -91.716,7.657 l -0.143,0.004 -0.151,0.006 c -2.199,0.074 -4.398,0.138 -6.593,0.192 l -0.39,0.009 c -2.244,0.053 -4.455,0.094 -6.568,0.121 l -0.16,0.002 -0.142,0.001 c -2.318,0.028 -4.56,0.043 -6.665,0.043 -2.106,0 -4.347,-0.015 -6.662,-0.043 l -0.146,-0.001 -0.159,-0.002 c -2.113,-0.027 -4.324,-0.068 -6.57,-0.121 l -0.387,-0.009 c -2.197,-0.054 -4.395,-0.118 -6.594,-0.192 l -0.151,-0.006 -0.143,-0.004 c -45.671,-1.571 -91.261,-7.597 -91.717,-7.657 l -2.476,-0.33 -0.79,-2.37 -4,-12 -0.757,-2.271 0.918,-0.972 -1.233,-1.232 1.289,-2.579 2.364,-4.728 c -1.649,-0.818 -2.786,-2.52 -2.786,-4.483 v -2 c 0,-1.125 0.373,-2.164 1.002,-3 -0.629,-0.836 -1.002,-1.876 -1.002,-3 v -2 c 0,-1.125 0.373,-2.164 1.002,-3 -0.629,-0.836 -1.002,-1.876 -1.002,-3 v -2 c 0,-1.125 0.373,-2.164 1.002,-3 -0.629,-0.836 -1.002,-1.876 -1.002,-3 v -2 c 0,-1.125 0.373,-2.164 1.002,-3 -0.629,-0.836 -1.002,-1.876 -1.002,-3 v -2 c 0,-1.125 0.373,-2.164 1.002,-3 -0.629,-0.836 -1.002,-1.876 -1.002,-3 v -2 c 0,-1.125 0.373,-2.164 1.002,-3 -0.629,-0.836 -1.002,-1.876 -1.002,-3 v -2 c 0,-1.125 0.373,-2.164 1.002,-3 -0.629,-0.836 -1.002,-1.876 -1.002,-3 v -2 c 0,-1.125 0.373,-2.164 1.002,-3 -0.629,-0.836 -1.002,-1.875 -1.002,-3 v -2 c 0,-1.125 0.373,-2.164 1.002,-3 -0.629,-0.836 -1.002,-1.875 -1.002,-3 v -2 c 0,-1.125 0.373,-2.164 1.002,-3 -0.629,-0.836 -1.002,-1.875 -1.002,-3 v -2 c 0,-1.125 0.373,-2.164 1.002,-3 -0.629,-0.836 -1.002,-1.875 -1.002,-3 v -2 c 0,-1.125 0.373,-2.164 1.002,-3 -0.629,-0.836 -1.002,-1.875 -1.002,-3 v -2 c 0,-1.125 0.373,-2.164 1.002,-3 -0.629,-0.836 -1.002,-1.875 -1.002,-3 v -2 c 0,-1.125 0.373,-2.164 1.002,-3 -0.629,-0.836 -1.002,-1.875 -1.002,-3 v -2 c 0,-1.963 1.137,-3.665 2.786,-4.482 L -239.156,0 l -1.289,-2.579 1.233,-1.233 -0.918,-0.971 0.757,-2.271 4,-12 0.734,-2.202 2.276,-0.455 c 0.415,-0.083 41.982,-8.328 85.462,-11.135 l 1.806,-0.117 1.28,1.28 2.51,2.51 c 7.767,-0.414 14.843,-0.616 21.577,-0.616 6.876,0 14.111,0.141 22.063,0.43 l 2.622,-2.622 1.244,-1.245 1.758,0.077 c 43.284,1.879 84.579,7.34 84.991,7.395 l 2.694,0.359 0.659,2.636 4,16 0.549,2.197 -0.773,0.773 1.21,1.21 z" /></g></g></g></g></g></g><g
       transform="translate(240,188)"
       id="g36"><path
         id="path38"
         style="fill:#262626;fill-opacity:1;fill-rule:nonzero;stroke:none"
         d="m 0,0 4,8 -8,8 h -108 -108 l -8,-8 4,-8 v -120 l -4,-8 4,-4 H -112 0 l 4,4 -4,8 z" /></g><g
       id="g40"><g
         clip-path="url(#clipPath46)"
         id="g42"><g
           transform="translate(243,182)"
           id="g48"><path
             id="path50"
             style="fill:#404040;fill-opacity:1;fill-rule:nonzero;stroke:none"
             d="m 0,0 h -230 c -0.552,0 -1,0.448 -1,1 v 2 c 0,0.552 0.448,1 1,1 H 0 C 0.553,4 1,3.552 1,3 V 1 C 1,0.448 0.553,0 0,0" /></g><g
           transform="translate(243,174)"
           id="g52"><path
             id="path54"
             style="fill:#404040;fill-opacity:1;fill-rule:nonzero;stroke:none"
             d="m 0,0 h -230 c -0.552,0 -1,0.448 -1,1 v 2 c 0,0.552 0.448,1 1,1 H 0 C 0.553,4 1,3.552 1,3 V 1 C 1,0.448 0.553,0 0,0" /></g><g
           transform="translate(243,166)"
           id="g56"><path
             id="path58"
             style="fill:#404040;fill-opacity:1;fill-rule:nonzero;stroke:none"
             d="m 0,0 h -230 c -0.552,0 -1,0.448 -1,1 v 2 c 0,0.552 0.448,1 1,1 H 0 C 0.553,4 1,3.552 1,3 V 1 C 1,0.448 0.553,0 0,0" /></g><g
           transform="translate(243,158)"
           id="g60"><path
             id="path62"
             style="fill:#404040;fill-opacity:1;fill-rule:nonzero;stroke:none"
             d="m 0,0 h -230 c -0.552,0 -1,0.448 -1,1 v 2 c 0,0.552 0.448,1 1,1 H 0 C 0.553,4 1,3.552 1,3 V 1 C 1,0.448 0.553,0 0,0" /></g><g
           transform="translate(243,150)"
           id="g64"><path
             id="path66"
             style="fill:#404040;fill-opacity:1;fill-rule:nonzero;stroke:none"
             d="m 0,0 h -230 c -0.552,0 -1,0.448 -1,1 v 2 c 0,0.552 0.448,1 1,1 H 0 C 0.553,4 1,3.552 1,3 V 1 C 1,0.448 0.553,0 0,0" /></g><g
           transform="translate(243,142)"
           id="g68"><path
             id="path70"
             style="fill:#404040;fill-opacity:1;fill-rule:nonzero;stroke:none"
             d="m 0,0 h -230 c -0.552,0 -1,0.448 -1,1 v 2 c 0,0.552 0.448,1 1,1 H 0 C 0.553,4 1,3.552 1,3 V 1 C 1,0.448 0.553,0 0,0" /></g><g
           transform="translate(243,134)"
           id="g72"><path
             id="path74"
             style="fill:#404040;fill-opacity:1;fill-rule:nonzero;stroke:none"
             d="m 0,0 h -230 c -0.552,0 -1,0.448 -1,1 v 2 c 0,0.552 0.448,1 1,1 H 0 C 0.553,4 1,3.552 1,3 V 1 C 1,0.448 0.553,0 0,0" /></g><g
           transform="translate(243,126)"
           id="g76"><path
             id="path78"
             style="fill:#404040;fill-opacity:1;fill-rule:nonzero;stroke:none"
             d="m 0,0 h -230 c -0.552,0 -1,0.447 -1,1 v 2 c 0,0.552 0.448,1 1,1 H 0 C 0.553,4 1,3.552 1,3 V 1 C 1,0.447 0.553,0 0,0" /></g><g
           transform="translate(243,118)"
           id="g80"><path
             id="path82"
             style="fill:#404040;fill-opacity:1;fill-rule:nonzero;stroke:none"
             d="m 0,0 h -230 c -0.552,0 -1,0.447 -1,1 v 2 c 0,0.553 0.448,1 1,1 H 0 C 0.553,4 1,3.553 1,3 V 1 C 1,0.447 0.553,0 0,0" /></g><g
           transform="translate(243,110)"
           id="g84"><path
             id="path86"
             style="fill:#404040;fill-opacity:1;fill-rule:nonzero;stroke:none"
             d="m 0,0 h -230 c -0.552,0 -1,0.447 -1,1 v 2 c 0,0.553 0.448,1 1,1 H 0 C 0.553,4 1,3.553 1,3 V 1 C 1,0.447 0.553,0 0,0" /></g><g
           transform="translate(243,102)"
           id="g88"><path
             id="path90"
             style="fill:#404040;fill-opacity:1;fill-rule:nonzero;stroke:none"
             d="m 0,0 h -230 c -0.552,0 -1,0.447 -1,1 v 2 c 0,0.553 0.448,1 1,1 H 0 C 0.553,4 1,3.553 1,3 V 1 C 1,0.447 0.553,0 0,0" /></g><g
           transform="translate(243,94)"
           id="g92"><path
             id="path94"
             style="fill:#404040;fill-opacity:1;fill-rule:nonzero;stroke:none"
             d="m 0,0 h -230 c -0.552,0 -1,0.447 -1,1 v 2 c 0,0.553 0.448,1 1,1 H 0 C 0.553,4 1,3.553 1,3 V 1 C 1,0.447 0.553,0 0,0" /></g><g
           transform="translate(243,86)"
           id="g96"><path
             id="path98"
             style="fill:#404040;fill-opacity:1;fill-rule:nonzero;stroke:none"
             d="m 0,0 h -230 c -0.552,0 -1,0.447 -1,1 v 2 c 0,0.553 0.448,1 1,1 H 0 C 0.553,4 1,3.553 1,3 V 1 C 1,0.447 0.553,0 0,0" /></g><g
           transform="translate(243,78)"
           id="g100"><path
             id="path102"
             style="fill:#404040;fill-opacity:1;fill-rule:nonzero;stroke:none"
             d="m 0,0 h -230 c -0.552,0 -1,0.447 -1,1 v 2 c 0,0.553 0.448,1 1,1 H 0 C 0.553,4 1,3.553 1,3 V 1 C 1,0.447 0.553,0 0,0" /></g><g
           transform="translate(243,70)"
           id="g104"><path
             id="path106"
             style="fill:#404040;fill-opacity:1;fill-rule:nonzero;stroke:none"
             d="m 0,0 h -230 c -0.552,0 -1,0.447 -1,1 v 2 c 0,0.553 0.448,1 1,1 H 0 C 0.553,4 1,3.553 1,3 V 1 C 1,0.447 0.553,0 0,0" /></g><g
           transform="translate(127.8506,36)"
           id="g108"><path
             id="path110"
             style="fill:#191919;fill-opacity:1;fill-rule:nonzero;stroke:none"
             d="M 0,0 C 8.999,0 18.238,0.24 27.364,0.636 L 0,28 -27.065,0.935 C -18.036,0.352 -8.901,0 0,0" /></g><g
           transform="translate(127.8506,40)"
           id="g112"><path
             id="path114"
             style="fill:#262626;fill-opacity:1;fill-rule:nonzero;stroke:none"
             d="M 0,0 C 8.999,0 18.238,0.24 27.364,0.636 L 0,28 -27.065,0.935 C -18.036,0.352 -8.901,0 0,0" /></g><g
           transform="translate(244,200)"
           id="g116"><path
             id="path118"
             style="fill:#333333;fill-opacity:1;fill-rule:nonzero;stroke:none"
             d="m 0,0 -4,12 c 0,0 -60,8 -112,8 -52,0 -112,-8 -112,-8 l -4,-12 68,-72 -68,-72 4,-12 c 0,0 41.217,-8.243 84.935,-11.065 L -116,-140 -88.636,-167.364 C -45.029,-165.471 -4,-160 -4,-160 l 4,16 -72,72 z" /></g><g
           transform="translate(128,192)"
           id="g120"><path
             id="path122"
             style="fill:#191919;fill-opacity:1;fill-rule:nonzero;stroke:none"
             d="M 0,0 27.364,27.364 C 18.238,27.76 8.999,28 0,28 -8.999,28 -18.238,27.76 -27.364,27.364 Z" /></g><g
           transform="translate(104.4863,215.5137)"
           id="g124"><path
             id="path126"
             style="fill:#262626;fill-opacity:1;fill-rule:nonzero;stroke:none"
             d="M 0,0 23.514,-23.514 47.027,0 C 39.16,0.301 31.25,0.486 23.514,0.486 15.777,0.486 7.867,0.301 0,0" /></g><g
           transform="translate(160,128)"
           id="g128"><path
             id="path130"
             style="fill:#404040;fill-opacity:1;fill-rule:nonzero;stroke:none"
             d="m 0,0 c 0,-17.673 -14.327,-32 -32,-32 -17.673,0 -32,14.327 -32,32 0,17.673 14.327,32 32,32 C -14.327,32 0,17.673 0,0" /></g><g
           transform="translate(152,128)"
           id="g132"><path
             id="path134"
             style="fill:#00ff00;fill-opacity:1;fill-rule:nonzero;stroke:none"
             d="m 0,0 c 0,-13.255 -10.745,-24 -24,-24 -13.255,0 -24,10.745 -24,24 0,13.255 10.745,24 24,24 C -10.745,24 0,13.255 0,0" /></g></g></g></g></svg>