<svg xmlns="http://www.w3.org/2000/svg" xml:space="preserve" width="330.667" height="267.256" viewBox="0 0 330.667 267.256"><defs><clipPath id="a" clipPathUnits="userSpaceOnUse"><path d="M0 256h256V0H0Z"/></clipPath><clipPath id="b" clipPathUnits="userSpaceOnUse"><path d="M4 228.221h248V27.779H4Z"/></clipPath></defs><g clip-path="url(#a)" transform="matrix(1.33333 0 0 -1.33333 -5.333 304.295)"><g clip-path="url(#b)" style="opacity:.5"><path d="M0 0a11.95 11.95 0 0 1-9.709-3.765h-3.602a12 12 0 0 1-6.024-1.641 12 12 0 0 1-3.163-2.667c-.135-.159-.257-.31-.376-.465l-.015-.021-.015-.02a11.7 11.7 0 0 1-1.222-2.013 11.8 11.8 0 0 1-.987-3.047 12 12 0 0 1-.198-2.126v-104c0-4.299 1.42-8.56 4-12l8-10.667v-31.003l-.147-.003.139-7.976.008-.425v-1.926c0-5.38.573-11.326 4.82-14.642a9.35 9.35 0 0 1 7.391-1.858l7.945.957 92.62 5.344c2.037.117 4.101.078 6.132-.117l.158-.016.159-.008 100.326-5.647.224-.013h1.033c5.955 0 11.065 4.441 11.884 10.33 2.986 21.447 3.308 120.205 3.308 161.67 0 23.727-15.347 24-16 24h-.148l-.148-.006-105.232-3.897a40 40 0 0 0-4.608.095Z" style="fill:#fff;fill-opacity:1;fill-rule:nonzero;stroke:none" transform="translate(29.311 228.184)"/></g><path d="M0 0v171.056c0 .621.145 1.233.422 1.789l.373.745a4 4 0 0 0 3.891 2.2l96.552-7.573a48 48 0 0 1 5.531-.114L212 172s8 0 8-16c0-14.901 0-137.354-3.231-160.566A3.99 3.99 0 0 0 212.808-8H212L111.674-2.354a48 48 0 0 1-7.359.141L11.446-7.57 2.963-8.593C1.778-8.889 0-8 0 0" style="fill:#e6e6e6;fill-opacity:1;fill-rule:nonzero;stroke:none" transform="translate(24 44)"/><path d="m0 0-.037-1-109 4-107.972-2-.019 1 108.001 2z" style="fill:gray;fill-opacity:1;fill-rule:nonzero;stroke:none" transform="translate(241.019 44.5)"/><path d="m0 0 9.6-12.8v128h-8a4 4 0 0 1-4-4V7.2A12 12 0 0 1 0 0" style="fill:#ccc;fill-opacity:1;fill-rule:nonzero;stroke:none" transform="translate(14.4 100.8)"/><path d="M0 0a1 1 0 1 0 0-2 1 1 0 0 0 0 2" style="fill:#404040;fill-opacity:1;fill-rule:nonzero;stroke:none" transform="translate(31 66)"/><path d="M0 0a1 1 0 1 0 0-2 1 1 0 0 0 0 2" style="fill:#404040;fill-opacity:1;fill-rule:nonzero;stroke:none" transform="translate(31 70)"/><path d="M0 0a1 1 0 1 0 0-2 1 1 0 0 0 0 2" style="fill:#404040;fill-opacity:1;fill-rule:nonzero;stroke:none" transform="translate(31 74)"/><path d="M0 0a1 1 0 1 0 0-2 1 1 0 0 0 0 2" style="fill:#404040;fill-opacity:1;fill-rule:nonzero;stroke:none" transform="translate(31 78)"/><path d="M0 0a1 1 0 1 0 0-2 1 1 0 0 0 0 2" style="fill:#404040;fill-opacity:1;fill-rule:nonzero;stroke:none" transform="translate(31 82)"/><path d="M0 0a1 1 0 1 0 0-2 1 1 0 0 0 0 2" style="fill:#404040;fill-opacity:1;fill-rule:nonzero;stroke:none" transform="translate(31 86)"/><path d="M0 0a1 1 0 1 0 0-2 1 1 0 0 0 0 2" style="fill:#404040;fill-opacity:1;fill-rule:nonzero;stroke:none" transform="translate(31 90)"/><path d="M0 0a1 1 0 1 0 0-2 1 1 0 0 0 0 2" style="fill:#404040;fill-opacity:1;fill-rule:nonzero;stroke:none" transform="translate(31 94)"/><path d="M0 0a1 1 0 1 0 0-2 1 1 0 0 0 0 2" style="fill:#404040;fill-opacity:1;fill-rule:nonzero;stroke:none" transform="translate(31 98)"/><path d="M0 0a1 1 0 1 0 0-2 1 1 0 0 0 0 2" style="fill:#404040;fill-opacity:1;fill-rule:nonzero;stroke:none" transform="translate(31 102)"/><path d="M0 0a1 1 0 1 0 0-2 1 1 0 0 0 0 2" style="fill:#404040;fill-opacity:1;fill-rule:nonzero;stroke:none" transform="translate(31 106)"/><path d="M0 0a1 1 0 1 0 0-2 1 1 0 0 0 0 2" style="fill:#404040;fill-opacity:1;fill-rule:nonzero;stroke:none" transform="translate(31 110)"/><path d="M0 0a1 1 0 1 0 0-2 1 1 0 0 0 0 2" style="fill:#404040;fill-opacity:1;fill-rule:nonzero;stroke:none" transform="translate(31 114)"/><path d="M0 0a1 1 0 1 0 0-2 1 1 0 0 0 0 2" style="fill:#404040;fill-opacity:1;fill-rule:nonzero;stroke:none" transform="translate(31 118)"/><path d="M0 0a1 1 0 1 0 0-2 1 1 0 0 0 0 2" style="fill:#404040;fill-opacity:1;fill-rule:nonzero;stroke:none" transform="translate(31 122)"/><path d="M0 0a1 1 0 1 0 0-2 1 1 0 0 0 0 2" style="fill:#404040;fill-opacity:1;fill-rule:nonzero;stroke:none" transform="translate(31 126)"/><path d="M0 0a1 1 0 1 0 0-2 1 1 0 0 0 0 2" style="fill:#404040;fill-opacity:1;fill-rule:nonzero;stroke:none" transform="translate(31 130)"/><path d="M0 0a1 1 0 1 0 0-2 1 1 0 0 0 0 2" style="fill:#404040;fill-opacity:1;fill-rule:nonzero;stroke:none" transform="translate(31 134)"/><path d="M0 0a1 1 0 1 0 0-2 1 1 0 0 0 0 2" style="fill:#404040;fill-opacity:1;fill-rule:nonzero;stroke:none" transform="translate(31 138)"/><path d="M0 0a1 1 0 1 0 0-2 1 1 0 0 0 0 2" style="fill:#404040;fill-opacity:1;fill-rule:nonzero;stroke:none" transform="translate(31 142)"/><path d="M0 0a1 1 0 1 0 0-2 1 1 0 0 0 0 2" style="fill:#404040;fill-opacity:1;fill-rule:nonzero;stroke:none" transform="translate(31 146)"/><path d="M0 0a1 1 0 1 0 0-2 1 1 0 0 0 0 2" style="fill:#404040;fill-opacity:1;fill-rule:nonzero;stroke:none" transform="translate(31 150)"/><path d="M0 0a1 1 0 1 0 0-2 1 1 0 0 0 0 2" style="fill:#404040;fill-opacity:1;fill-rule:nonzero;stroke:none" transform="translate(31 154)"/><path d="M0 0a1 1 0 1 0 0-2 1 1 0 0 0 0 2" style="fill:#404040;fill-opacity:1;fill-rule:nonzero;stroke:none" transform="translate(31 158)"/><path d="M0 0a1 1 0 1 0 0-2 1 1 0 0 0 0 2" style="fill:#404040;fill-opacity:1;fill-rule:nonzero;stroke:none" transform="translate(31 162)"/><path d="M0 0a1 1 0 1 0 0-2 1 1 0 0 0 0 2" style="fill:#404040;fill-opacity:1;fill-rule:nonzero;stroke:none" transform="translate(31 166)"/><path d="M0 0a1 1 0 1 0 0-2 1 1 0 0 0 0 2" style="fill:#404040;fill-opacity:1;fill-rule:nonzero;stroke:none" transform="translate(31 170)"/><path d="M0 0a1 1 0 1 0 0-2 1 1 0 0 0 0 2" style="fill:#404040;fill-opacity:1;fill-rule:nonzero;stroke:none" transform="translate(31 174)"/><path d="M0 0a1 1 0 1 0 0-2 1 1 0 0 0 0 2" style="fill:#404040;fill-opacity:1;fill-rule:nonzero;stroke:none" transform="translate(31 178)"/><path d="M0 0a1 1 0 1 0 0-2 1 1 0 0 0 0 2" style="fill:#404040;fill-opacity:1;fill-rule:nonzero;stroke:none" transform="translate(31 182)"/><path d="M0 0a1 1 0 1 0 0-2 1 1 0 0 0 0 2" style="fill:#404040;fill-opacity:1;fill-rule:nonzero;stroke:none" transform="translate(31 186)"/><path d="M0 0a1 1 0 1 0 0-2 1 1 0 0 0 0 2" style="fill:#404040;fill-opacity:1;fill-rule:nonzero;stroke:none" transform="translate(31 190)"/><path d="M0 0a1 1 0 1 0 0-2 1 1 0 0 0 0 2" style="fill:#404040;fill-opacity:1;fill-rule:nonzero;stroke:none" transform="translate(31 194)"/><path d="M0 0a1 1 0 1 0 0-2 1 1 0 0 0 0 2" style="fill:#404040;fill-opacity:1;fill-rule:nonzero;stroke:none" transform="translate(33 68)"/><path d="M0 0a1 1 0 1 0 0-2 1 1 0 0 0 0 2" style="fill:#404040;fill-opacity:1;fill-rule:nonzero;stroke:none" transform="translate(33 72)"/><path d="M0 0a1 1 0 1 0 0-2 1 1 0 0 0 0 2" style="fill:#404040;fill-opacity:1;fill-rule:nonzero;stroke:none" transform="translate(33 76)"/><path d="M0 0a1 1 0 1 0 0-2 1 1 0 0 0 0 2" style="fill:#404040;fill-opacity:1;fill-rule:nonzero;stroke:none" transform="translate(33 80)"/><path d="M0 0a1 1 0 1 0 0-2 1 1 0 0 0 0 2" style="fill:#404040;fill-opacity:1;fill-rule:nonzero;stroke:none" transform="translate(33 84)"/><path d="M0 0a1 1 0 1 0 0-2 1 1 0 0 0 0 2" style="fill:#404040;fill-opacity:1;fill-rule:nonzero;stroke:none" transform="translate(33 88)"/><path d="M0 0a1 1 0 1 0 0-2 1 1 0 0 0 0 2" style="fill:#404040;fill-opacity:1;fill-rule:nonzero;stroke:none" transform="translate(33 92)"/><path d="M0 0a1 1 0 1 0 0-2 1 1 0 0 0 0 2" style="fill:#404040;fill-opacity:1;fill-rule:nonzero;stroke:none" transform="translate(33 96)"/><path d="M0 0a1 1 0 1 0 0-2 1 1 0 0 0 0 2" style="fill:#404040;fill-opacity:1;fill-rule:nonzero;stroke:none" transform="translate(33 100)"/><path d="M0 0a1 1 0 1 0 0-2 1 1 0 0 0 0 2" style="fill:#404040;fill-opacity:1;fill-rule:nonzero;stroke:none" transform="translate(33 104)"/><path d="M0 0a1 1 0 1 0 0-2 1 1 0 0 0 0 2" style="fill:#404040;fill-opacity:1;fill-rule:nonzero;stroke:none" transform="translate(33 108)"/><path d="M0 0a1 1 0 1 0 0-2 1 1 0 0 0 0 2" style="fill:#404040;fill-opacity:1;fill-rule:nonzero;stroke:none" transform="translate(33 112)"/><path d="M0 0a1 1 0 1 0 0-2 1 1 0 0 0 0 2" style="fill:#404040;fill-opacity:1;fill-rule:nonzero;stroke:none" transform="translate(33 116)"/><path d="M0 0a1 1 0 1 0 0-2 1 1 0 0 0 0 2" style="fill:#404040;fill-opacity:1;fill-rule:nonzero;stroke:none" transform="translate(33 120)"/><path d="M0 0a1 1 0 1 0 0-2 1 1 0 0 0 0 2" style="fill:#404040;fill-opacity:1;fill-rule:nonzero;stroke:none" transform="translate(33 124)"/><path d="M0 0a1 1 0 1 0 0-2 1 1 0 0 0 0 2" style="fill:#404040;fill-opacity:1;fill-rule:nonzero;stroke:none" transform="translate(33 128)"/><path d="M0 0a1 1 0 1 0 0-2 1 1 0 0 0 0 2" style="fill:#404040;fill-opacity:1;fill-rule:nonzero;stroke:none" transform="translate(33 132)"/><path d="M0 0a1 1 0 1 0 0-2 1 1 0 0 0 0 2" style="fill:#404040;fill-opacity:1;fill-rule:nonzero;stroke:none" transform="translate(33 136)"/><path d="M0 0a1 1 0 1 0 0-2 1 1 0 0 0 0 2" style="fill:#404040;fill-opacity:1;fill-rule:nonzero;stroke:none" transform="translate(33 140)"/><path d="M0 0a1 1 0 1 0 0-2 1 1 0 0 0 0 2" style="fill:#404040;fill-opacity:1;fill-rule:nonzero;stroke:none" transform="translate(33 144)"/><path d="M0 0a1 1 0 1 0 0-2 1 1 0 0 0 0 2" style="fill:#404040;fill-opacity:1;fill-rule:nonzero;stroke:none" transform="translate(33 148)"/><path d="M0 0a1 1 0 1 0 0-2 1 1 0 0 0 0 2" style="fill:#404040;fill-opacity:1;fill-rule:nonzero;stroke:none" transform="translate(33 152)"/><path d="M0 0a1 1 0 1 0 0-2 1 1 0 0 0 0 2" style="fill:#404040;fill-opacity:1;fill-rule:nonzero;stroke:none" transform="translate(33 156)"/><path d="M0 0a1 1 0 1 0 0-2 1 1 0 0 0 0 2" style="fill:#404040;fill-opacity:1;fill-rule:nonzero;stroke:none" transform="translate(33 160)"/><path d="M0 0a1 1 0 1 0 0-2 1 1 0 0 0 0 2" style="fill:#404040;fill-opacity:1;fill-rule:nonzero;stroke:none" transform="translate(33 164)"/><path d="M0 0a1 1 0 1 0 0-2 1 1 0 0 0 0 2" style="fill:#404040;fill-opacity:1;fill-rule:nonzero;stroke:none" transform="translate(33 168)"/><path d="M0 0a1 1 0 1 0 0-2 1 1 0 0 0 0 2" style="fill:#404040;fill-opacity:1;fill-rule:nonzero;stroke:none" transform="translate(33 172)"/><path d="M0 0a1 1 0 1 0 0-2 1 1 0 0 0 0 2" style="fill:#404040;fill-opacity:1;fill-rule:nonzero;stroke:none" transform="translate(33 176)"/><path d="M0 0a1 1 0 1 0 0-2 1 1 0 0 0 0 2" style="fill:#404040;fill-opacity:1;fill-rule:nonzero;stroke:none" transform="translate(33 180)"/><path d="M0 0a1 1 0 1 0 0-2 1 1 0 0 0 0 2" style="fill:#404040;fill-opacity:1;fill-rule:nonzero;stroke:none" transform="translate(33 184)"/><path d="M0 0a1 1 0 1 0 0-2 1 1 0 0 0 0 2" style="fill:#404040;fill-opacity:1;fill-rule:nonzero;stroke:none" transform="translate(33 188)"/><path d="M0 0a1 1 0 1 0 0-2 1 1 0 0 0 0 2" style="fill:#404040;fill-opacity:1;fill-rule:nonzero;stroke:none" transform="translate(33 192)"/><path d="M0 0a1 1 0 1 0 0-2 1 1 0 0 0 0 2" style="fill:#404040;fill-opacity:1;fill-rule:nonzero;stroke:none" transform="translate(35 66)"/><path d="M0 0a1 1 0 1 0 0-2 1 1 0 0 0 0 2" style="fill:#404040;fill-opacity:1;fill-rule:nonzero;stroke:none" transform="translate(35 70)"/><path d="M0 0a1 1 0 1 0 0-2 1 1 0 0 0 0 2" style="fill:#404040;fill-opacity:1;fill-rule:nonzero;stroke:none" transform="translate(35 74)"/><path d="M0 0a1 1 0 1 0 0-2 1 1 0 0 0 0 2" style="fill:#404040;fill-opacity:1;fill-rule:nonzero;stroke:none" transform="translate(35 78)"/><path d="M0 0a1 1 0 1 0 0-2 1 1 0 0 0 0 2" style="fill:#404040;fill-opacity:1;fill-rule:nonzero;stroke:none" transform="translate(35 82)"/><path d="M0 0a1 1 0 1 0 0-2 1 1 0 0 0 0 2" style="fill:#404040;fill-opacity:1;fill-rule:nonzero;stroke:none" transform="translate(35 86)"/><path d="M0 0a1 1 0 1 0 0-2 1 1 0 0 0 0 2" style="fill:#404040;fill-opacity:1;fill-rule:nonzero;stroke:none" transform="translate(35 90)"/><path d="M0 0a1 1 0 1 0 0-2 1 1 0 0 0 0 2" style="fill:#404040;fill-opacity:1;fill-rule:nonzero;stroke:none" transform="translate(35 94)"/><path d="M0 0a1 1 0 1 0 0-2 1 1 0 0 0 0 2" style="fill:#404040;fill-opacity:1;fill-rule:nonzero;stroke:none" transform="translate(35 98)"/><path d="M0 0a1 1 0 1 0 0-2 1 1 0 0 0 0 2" style="fill:#404040;fill-opacity:1;fill-rule:nonzero;stroke:none" transform="translate(35 102)"/><path d="M0 0a1 1 0 1 0 0-2 1 1 0 0 0 0 2" style="fill:#404040;fill-opacity:1;fill-rule:nonzero;stroke:none" transform="translate(35 106)"/><path d="M0 0a1 1 0 1 0 0-2 1 1 0 0 0 0 2" style="fill:#404040;fill-opacity:1;fill-rule:nonzero;stroke:none" transform="translate(35 110)"/><path d="M0 0a1 1 0 1 0 0-2 1 1 0 0 0 0 2" style="fill:#404040;fill-opacity:1;fill-rule:nonzero;stroke:none" transform="translate(35 114)"/><path d="M0 0a1 1 0 1 0 0-2 1 1 0 0 0 0 2" style="fill:#404040;fill-opacity:1;fill-rule:nonzero;stroke:none" transform="translate(35 118)"/><path d="M0 0a1 1 0 1 0 0-2 1 1 0 0 0 0 2" style="fill:#404040;fill-opacity:1;fill-rule:nonzero;stroke:none" transform="translate(35 122)"/><path d="M0 0a1 1 0 1 0 0-2 1 1 0 0 0 0 2" style="fill:#404040;fill-opacity:1;fill-rule:nonzero;stroke:none" transform="translate(35 126)"/><path d="M0 0a1 1 0 1 0 0-2 1 1 0 0 0 0 2" style="fill:#404040;fill-opacity:1;fill-rule:nonzero;stroke:none" transform="translate(35 130)"/><path d="M0 0a1 1 0 1 0 0-2 1 1 0 0 0 0 2" style="fill:#404040;fill-opacity:1;fill-rule:nonzero;stroke:none" transform="translate(35 134)"/><path d="M0 0a1 1 0 1 0 0-2 1 1 0 0 0 0 2" style="fill:#404040;fill-opacity:1;fill-rule:nonzero;stroke:none" transform="translate(35 138)"/><path d="M0 0a1 1 0 1 0 0-2 1 1 0 0 0 0 2" style="fill:#404040;fill-opacity:1;fill-rule:nonzero;stroke:none" transform="translate(35 142)"/><path d="M0 0a1 1 0 1 0 0-2 1 1 0 0 0 0 2" style="fill:#404040;fill-opacity:1;fill-rule:nonzero;stroke:none" transform="translate(35 146)"/><path d="M0 0a1 1 0 1 0 0-2 1 1 0 0 0 0 2" style="fill:#404040;fill-opacity:1;fill-rule:nonzero;stroke:none" transform="translate(35 150)"/><path d="M0 0a1 1 0 1 0 0-2 1 1 0 0 0 0 2" style="fill:#404040;fill-opacity:1;fill-rule:nonzero;stroke:none" transform="translate(35 154)"/><path d="M0 0a1 1 0 1 0 0-2 1 1 0 0 0 0 2" style="fill:#404040;fill-opacity:1;fill-rule:nonzero;stroke:none" transform="translate(35 158)"/><path d="M0 0a1 1 0 1 0 0-2 1 1 0 0 0 0 2" style="fill:#404040;fill-opacity:1;fill-rule:nonzero;stroke:none" transform="translate(35 162)"/><path d="M0 0a1 1 0 1 0 0-2 1 1 0 0 0 0 2" style="fill:#404040;fill-opacity:1;fill-rule:nonzero;stroke:none" transform="translate(35 166)"/><path d="M0 0a1 1 0 1 0 0-2 1 1 0 0 0 0 2" style="fill:#404040;fill-opacity:1;fill-rule:nonzero;stroke:none" transform="translate(35 170)"/><path d="M0 0a1 1 0 1 0 0-2 1 1 0 0 0 0 2" style="fill:#404040;fill-opacity:1;fill-rule:nonzero;stroke:none" transform="translate(35 174)"/><path d="M0 0a1 1 0 1 0 0-2 1 1 0 0 0 0 2" style="fill:#404040;fill-opacity:1;fill-rule:nonzero;stroke:none" transform="translate(35 178)"/><path d="M0 0a1 1 0 1 0 0-2 1 1 0 0 0 0 2" style="fill:#404040;fill-opacity:1;fill-rule:nonzero;stroke:none" transform="translate(35 182)"/><path d="M0 0a1 1 0 1 0 0-2 1 1 0 0 0 0 2" style="fill:#404040;fill-opacity:1;fill-rule:nonzero;stroke:none" transform="translate(35 186)"/><path d="M0 0a1 1 0 1 0 0-2 1 1 0 0 0 0 2" style="fill:#404040;fill-opacity:1;fill-rule:nonzero;stroke:none" transform="translate(35 190)"/><path d="M0 0a1 1 0 1 0 0-2 1 1 0 0 0 0 2" style="fill:#404040;fill-opacity:1;fill-rule:nonzero;stroke:none" transform="translate(35 194)"/><path d="M0 0a1 1 0 1 0 0-2 1 1 0 0 0 0 2" style="fill:#404040;fill-opacity:1;fill-rule:nonzero;stroke:none" transform="translate(37 68)"/><path d="M0 0a1 1 0 1 0 0-2 1 1 0 0 0 0 2" style="fill:#404040;fill-opacity:1;fill-rule:nonzero;stroke:none" transform="translate(37 72)"/><path d="M0 0a1 1 0 1 0 0-2 1 1 0 0 0 0 2" style="fill:#404040;fill-opacity:1;fill-rule:nonzero;stroke:none" transform="translate(37 76)"/><path d="M0 0a1 1 0 1 0 0-2 1 1 0 0 0 0 2" style="fill:#404040;fill-opacity:1;fill-rule:nonzero;stroke:none" transform="translate(37 80)"/><path d="M0 0a1 1 0 1 0 0-2 1 1 0 0 0 0 2" style="fill:#404040;fill-opacity:1;fill-rule:nonzero;stroke:none" transform="translate(37 84)"/><path d="M0 0a1 1 0 1 0 0-2 1 1 0 0 0 0 2" style="fill:#404040;fill-opacity:1;fill-rule:nonzero;stroke:none" transform="translate(37 88)"/><path d="M0 0a1 1 0 1 0 0-2 1 1 0 0 0 0 2" style="fill:#404040;fill-opacity:1;fill-rule:nonzero;stroke:none" transform="translate(37 92)"/><path d="M0 0a1 1 0 1 0 0-2 1 1 0 0 0 0 2" style="fill:#404040;fill-opacity:1;fill-rule:nonzero;stroke:none" transform="translate(37 96)"/><path d="M0 0a1 1 0 1 0 0-2 1 1 0 0 0 0 2" style="fill:#404040;fill-opacity:1;fill-rule:nonzero;stroke:none" transform="translate(37 100)"/><path d="M0 0a1 1 0 1 0 0-2 1 1 0 0 0 0 2" style="fill:#404040;fill-opacity:1;fill-rule:nonzero;stroke:none" transform="translate(37 104)"/><path d="M0 0a1 1 0 1 0 0-2 1 1 0 0 0 0 2" style="fill:#404040;fill-opacity:1;fill-rule:nonzero;stroke:none" transform="translate(37 108)"/><path d="M0 0a1 1 0 1 0 0-2 1 1 0 0 0 0 2" style="fill:#404040;fill-opacity:1;fill-rule:nonzero;stroke:none" transform="translate(37 112)"/><path d="M0 0a1 1 0 1 0 0-2 1 1 0 0 0 0 2" style="fill:#404040;fill-opacity:1;fill-rule:nonzero;stroke:none" transform="translate(37 116)"/><path d="M0 0a1 1 0 1 0 0-2 1 1 0 0 0 0 2" style="fill:#404040;fill-opacity:1;fill-rule:nonzero;stroke:none" transform="translate(37 120)"/><path d="M0 0a1 1 0 1 0 0-2 1 1 0 0 0 0 2" style="fill:#404040;fill-opacity:1;fill-rule:nonzero;stroke:none" transform="translate(37 124)"/><path d="M0 0a1 1 0 1 0 0-2 1 1 0 0 0 0 2" style="fill:#404040;fill-opacity:1;fill-rule:nonzero;stroke:none" transform="translate(37 128)"/><path d="M0 0a1 1 0 1 0 0-2 1 1 0 0 0 0 2" style="fill:#404040;fill-opacity:1;fill-rule:nonzero;stroke:none" transform="translate(37 132)"/><path d="M0 0a1 1 0 1 0 0-2 1 1 0 0 0 0 2" style="fill:#404040;fill-opacity:1;fill-rule:nonzero;stroke:none" transform="translate(37 136)"/><path d="M0 0a1 1 0 1 0 0-2 1 1 0 0 0 0 2" style="fill:#404040;fill-opacity:1;fill-rule:nonzero;stroke:none" transform="translate(37 140)"/><path d="M0 0a1 1 0 1 0 0-2 1 1 0 0 0 0 2" style="fill:#404040;fill-opacity:1;fill-rule:nonzero;stroke:none" transform="translate(37 144)"/><path d="M0 0a1 1 0 1 0 0-2 1 1 0 0 0 0 2" style="fill:#404040;fill-opacity:1;fill-rule:nonzero;stroke:none" transform="translate(37 148)"/><path d="M0 0a1 1 0 1 0 0-2 1 1 0 0 0 0 2" style="fill:#404040;fill-opacity:1;fill-rule:nonzero;stroke:none" transform="translate(37 152)"/><path d="M0 0a1 1 0 1 0 0-2 1 1 0 0 0 0 2" style="fill:#404040;fill-opacity:1;fill-rule:nonzero;stroke:none" transform="translate(37 156)"/><path d="M0 0a1 1 0 1 0 0-2 1 1 0 0 0 0 2" style="fill:#404040;fill-opacity:1;fill-rule:nonzero;stroke:none" transform="translate(37 160)"/><path d="M0 0a1 1 0 1 0 0-2 1 1 0 0 0 0 2" style="fill:#404040;fill-opacity:1;fill-rule:nonzero;stroke:none" transform="translate(37 164)"/><path d="M0 0a1 1 0 1 0 0-2 1 1 0 0 0 0 2" style="fill:#404040;fill-opacity:1;fill-rule:nonzero;stroke:none" transform="translate(37 168)"/><path d="M0 0a1 1 0 1 0 0-2 1 1 0 0 0 0 2" style="fill:#404040;fill-opacity:1;fill-rule:nonzero;stroke:none" transform="translate(37 172)"/><path d="M0 0a1 1 0 1 0 0-2 1 1 0 0 0 0 2" style="fill:#404040;fill-opacity:1;fill-rule:nonzero;stroke:none" transform="translate(37 176)"/><path d="M0 0a1 1 0 1 0 0-2 1 1 0 0 0 0 2" style="fill:#404040;fill-opacity:1;fill-rule:nonzero;stroke:none" transform="translate(37 180)"/><path d="M0 0a1 1 0 1 0 0-2 1 1 0 0 0 0 2" style="fill:#404040;fill-opacity:1;fill-rule:nonzero;stroke:none" transform="translate(37 184)"/><path d="M0 0a1 1 0 1 0 0-2 1 1 0 0 0 0 2" style="fill:#404040;fill-opacity:1;fill-rule:nonzero;stroke:none" transform="translate(37 188)"/><path d="M0 0a1 1 0 1 0 0-2 1 1 0 0 0 0 2" style="fill:#404040;fill-opacity:1;fill-rule:nonzero;stroke:none" transform="translate(37 192)"/><path d="M0 0a1 1 0 1 0 0-2 1 1 0 0 0 0 2" style="fill:#404040;fill-opacity:1;fill-rule:nonzero;stroke:none" transform="translate(39 66)"/><path d="M0 0a1 1 0 1 0 0-2 1 1 0 0 0 0 2" style="fill:#404040;fill-opacity:1;fill-rule:nonzero;stroke:none" transform="translate(39 70)"/><path d="M0 0a1 1 0 1 0 0-2 1 1 0 0 0 0 2" style="fill:#404040;fill-opacity:1;fill-rule:nonzero;stroke:none" transform="translate(39 74)"/><path d="M0 0a1 1 0 1 0 0-2 1 1 0 0 0 0 2" style="fill:#404040;fill-opacity:1;fill-rule:nonzero;stroke:none" transform="translate(39 78)"/><path d="M0 0a1 1 0 1 0 0-2 1 1 0 0 0 0 2" style="fill:#404040;fill-opacity:1;fill-rule:nonzero;stroke:none" transform="translate(39 82)"/><path d="M0 0a1 1 0 1 0 0-2 1 1 0 0 0 0 2" style="fill:#404040;fill-opacity:1;fill-rule:nonzero;stroke:none" transform="translate(39 86)"/><path d="M0 0a1 1 0 1 0 0-2 1 1 0 0 0 0 2" style="fill:#404040;fill-opacity:1;fill-rule:nonzero;stroke:none" transform="translate(39 90)"/><path d="M0 0a1 1 0 1 0 0-2 1 1 0 0 0 0 2" style="fill:#404040;fill-opacity:1;fill-rule:nonzero;stroke:none" transform="translate(39 94)"/><path d="M0 0a1 1 0 1 0 0-2 1 1 0 0 0 0 2" style="fill:#404040;fill-opacity:1;fill-rule:nonzero;stroke:none" transform="translate(39 98)"/><path d="M0 0a1 1 0 1 0 0-2 1 1 0 0 0 0 2" style="fill:#404040;fill-opacity:1;fill-rule:nonzero;stroke:none" transform="translate(39 102)"/><path d="M0 0a1 1 0 1 0 0-2 1 1 0 0 0 0 2" style="fill:#404040;fill-opacity:1;fill-rule:nonzero;stroke:none" transform="translate(39 106)"/><path d="M0 0a1 1 0 1 0 0-2 1 1 0 0 0 0 2" style="fill:#404040;fill-opacity:1;fill-rule:nonzero;stroke:none" transform="translate(39 110)"/><path d="M0 0a1 1 0 1 0 0-2 1 1 0 0 0 0 2" style="fill:#404040;fill-opacity:1;fill-rule:nonzero;stroke:none" transform="translate(39 114)"/><path d="M0 0a1 1 0 1 0 0-2 1 1 0 0 0 0 2" style="fill:#404040;fill-opacity:1;fill-rule:nonzero;stroke:none" transform="translate(39 118)"/><path d="M0 0a1 1 0 1 0 0-2 1 1 0 0 0 0 2" style="fill:#404040;fill-opacity:1;fill-rule:nonzero;stroke:none" transform="translate(39 122)"/><path d="M0 0a1 1 0 1 0 0-2 1 1 0 0 0 0 2" style="fill:#404040;fill-opacity:1;fill-rule:nonzero;stroke:none" transform="translate(39 126)"/><path d="M0 0a1 1 0 1 0 0-2 1 1 0 0 0 0 2" style="fill:#404040;fill-opacity:1;fill-rule:nonzero;stroke:none" transform="translate(39 130)"/><path d="M0 0a1 1 0 1 0 0-2 1 1 0 0 0 0 2" style="fill:#404040;fill-opacity:1;fill-rule:nonzero;stroke:none" transform="translate(39 134)"/><path d="M0 0a1 1 0 1 0 0-2 1 1 0 0 0 0 2" style="fill:#404040;fill-opacity:1;fill-rule:nonzero;stroke:none" transform="translate(39 138)"/><path d="M0 0a1 1 0 1 0 0-2 1 1 0 0 0 0 2" style="fill:#404040;fill-opacity:1;fill-rule:nonzero;stroke:none" transform="translate(39 142)"/><path d="M0 0a1 1 0 1 0 0-2 1 1 0 0 0 0 2" style="fill:#404040;fill-opacity:1;fill-rule:nonzero;stroke:none" transform="translate(39 146)"/><path d="M0 0a1 1 0 1 0 0-2 1 1 0 0 0 0 2" style="fill:#404040;fill-opacity:1;fill-rule:nonzero;stroke:none" transform="translate(39 150)"/><path d="M0 0a1 1 0 1 0 0-2 1 1 0 0 0 0 2" style="fill:#404040;fill-opacity:1;fill-rule:nonzero;stroke:none" transform="translate(39 154)"/><path d="M0 0a1 1 0 1 0 0-2 1 1 0 0 0 0 2" style="fill:#404040;fill-opacity:1;fill-rule:nonzero;stroke:none" transform="translate(39 158)"/><path d="M0 0a1 1 0 1 0 0-2 1 1 0 0 0 0 2" style="fill:#404040;fill-opacity:1;fill-rule:nonzero;stroke:none" transform="translate(39 162)"/><path d="M0 0a1 1 0 1 0 0-2 1 1 0 0 0 0 2" style="fill:#404040;fill-opacity:1;fill-rule:nonzero;stroke:none" transform="translate(39 166)"/><path d="M0 0a1 1 0 1 0 0-2 1 1 0 0 0 0 2" style="fill:#404040;fill-opacity:1;fill-rule:nonzero;stroke:none" transform="translate(39 170)"/><path d="M0 0a1 1 0 1 0 0-2 1 1 0 0 0 0 2" style="fill:#404040;fill-opacity:1;fill-rule:nonzero;stroke:none" transform="translate(39 174)"/><path d="M0 0a1 1 0 1 0 0-2 1 1 0 0 0 0 2" style="fill:#404040;fill-opacity:1;fill-rule:nonzero;stroke:none" transform="translate(39 178)"/><path d="M0 0a1 1 0 1 0 0-2 1 1 0 0 0 0 2" style="fill:#404040;fill-opacity:1;fill-rule:nonzero;stroke:none" transform="translate(39 182)"/><path d="M0 0a1 1 0 1 0 0-2 1 1 0 0 0 0 2" style="fill:#404040;fill-opacity:1;fill-rule:nonzero;stroke:none" transform="translate(39 186)"/><path d="M0 0a1 1 0 1 0 0-2 1 1 0 0 0 0 2" style="fill:#404040;fill-opacity:1;fill-rule:nonzero;stroke:none" transform="translate(39 190)"/><path d="M0 0a1 1 0 1 0 0-2 1 1 0 0 0 0 2" style="fill:#404040;fill-opacity:1;fill-rule:nonzero;stroke:none" transform="translate(39 194)"/><path d="M0 0a1 1 0 1 0 0-2 1 1 0 1 0 0 2" style="fill:#404040;fill-opacity:1;fill-rule:nonzero;stroke:none" transform="translate(227 66)"/><path d="M0 0a1 1 0 1 0 0-2 1 1 0 1 0 0 2" style="fill:#404040;fill-opacity:1;fill-rule:nonzero;stroke:none" transform="translate(227 70)"/><path d="M0 0a1 1 0 1 0 0-2 1 1 0 1 0 0 2" style="fill:#404040;fill-opacity:1;fill-rule:nonzero;stroke:none" transform="translate(227 74)"/><path d="M0 0a1 1 0 1 0 0-2 1 1 0 1 0 0 2" style="fill:#404040;fill-opacity:1;fill-rule:nonzero;stroke:none" transform="translate(227 78)"/><path d="M0 0a1 1 0 1 0 0-2 1 1 0 1 0 0 2" style="fill:#404040;fill-opacity:1;fill-rule:nonzero;stroke:none" transform="translate(227 82)"/><path d="M0 0a1 1 0 1 0 0-2 1 1 0 1 0 0 2" style="fill:#404040;fill-opacity:1;fill-rule:nonzero;stroke:none" transform="translate(227 86)"/><path d="M0 0a1 1 0 1 0 0-2 1 1 0 1 0 0 2" style="fill:#404040;fill-opacity:1;fill-rule:nonzero;stroke:none" transform="translate(227 90)"/><path d="M0 0a1 1 0 1 0 0-2 1 1 0 1 0 0 2" style="fill:#404040;fill-opacity:1;fill-rule:nonzero;stroke:none" transform="translate(227 94)"/><path d="M0 0a1 1 0 1 0 0-2 1 1 0 1 0 0 2" style="fill:#404040;fill-opacity:1;fill-rule:nonzero;stroke:none" transform="translate(227 98)"/><path d="M0 0a1 1 0 1 0 0-2 1 1 0 1 0 0 2" style="fill:#404040;fill-opacity:1;fill-rule:nonzero;stroke:none" transform="translate(227 102)"/><path d="M0 0a1 1 0 1 0 0-2 1 1 0 1 0 0 2" style="fill:#404040;fill-opacity:1;fill-rule:nonzero;stroke:none" transform="translate(227 106)"/><path d="M0 0a1 1 0 1 0 0-2 1 1 0 1 0 0 2" style="fill:#404040;fill-opacity:1;fill-rule:nonzero;stroke:none" transform="translate(227 110)"/><path d="M0 0a1 1 0 1 0 0-2 1 1 0 1 0 0 2" style="fill:#404040;fill-opacity:1;fill-rule:nonzero;stroke:none" transform="translate(227 114)"/><path d="M0 0a1 1 0 1 0 0-2 1 1 0 1 0 0 2" style="fill:#404040;fill-opacity:1;fill-rule:nonzero;stroke:none" transform="translate(227 118)"/><path d="M0 0a1 1 0 1 0 0-2 1 1 0 1 0 0 2" style="fill:#404040;fill-opacity:1;fill-rule:nonzero;stroke:none" transform="translate(227 122)"/><path d="M0 0a1 1 0 1 0 0-2 1 1 0 1 0 0 2" style="fill:#404040;fill-opacity:1;fill-rule:nonzero;stroke:none" transform="translate(227 126)"/><path d="M0 0a1 1 0 1 0 0-2 1 1 0 0 0 0 2" style="fill:#404040;fill-opacity:1;fill-rule:nonzero;stroke:none" transform="translate(227 130)"/><path d="M0 0a1 1 0 1 0 0-2 1 1 0 0 0 0 2" style="fill:#404040;fill-opacity:1;fill-rule:nonzero;stroke:none" transform="translate(227 134)"/><path d="M0 0a1 1 0 1 0 0-2 1 1 0 0 0 0 2" style="fill:#404040;fill-opacity:1;fill-rule:nonzero;stroke:none" transform="translate(227 138)"/><path d="M0 0a1 1 0 1 0 0-2 1 1 0 0 0 0 2" style="fill:#404040;fill-opacity:1;fill-rule:nonzero;stroke:none" transform="translate(227 142)"/><path d="M0 0a1 1 0 1 0 0-2 1 1 0 0 0 0 2" style="fill:#404040;fill-opacity:1;fill-rule:nonzero;stroke:none" transform="translate(227 146)"/><path d="M0 0a1 1 0 1 0 0-2 1 1 0 0 0 0 2" style="fill:#404040;fill-opacity:1;fill-rule:nonzero;stroke:none" transform="translate(227 150)"/><path d="M0 0a1 1 0 1 0 0-2 1 1 0 0 0 0 2" style="fill:#404040;fill-opacity:1;fill-rule:nonzero;stroke:none" transform="translate(227 154)"/><path d="M0 0a1 1 0 1 0 0-2 1 1 0 0 0 0 2" style="fill:#404040;fill-opacity:1;fill-rule:nonzero;stroke:none" transform="translate(227 158)"/><path d="M0 0a1 1 0 1 0 0-2 1 1 0 0 0 0 2" style="fill:#404040;fill-opacity:1;fill-rule:nonzero;stroke:none" transform="translate(227 162)"/><path d="M0 0a1 1 0 1 0 0-2 1 1 0 0 0 0 2" style="fill:#404040;fill-opacity:1;fill-rule:nonzero;stroke:none" transform="translate(227 166)"/><path d="M0 0a1 1 0 1 0 0-2 1 1 0 0 0 0 2" style="fill:#404040;fill-opacity:1;fill-rule:nonzero;stroke:none" transform="translate(227 170)"/><path d="M0 0a1 1 0 1 0 0-2 1 1 0 0 0 0 2" style="fill:#404040;fill-opacity:1;fill-rule:nonzero;stroke:none" transform="translate(227 174)"/><path d="M0 0a1 1 0 1 0 0-2 1 1 0 0 0 0 2" style="fill:#404040;fill-opacity:1;fill-rule:nonzero;stroke:none" transform="translate(227 178)"/><path d="M0 0a1 1 0 1 0 0-2 1 1 0 0 0 0 2" style="fill:#404040;fill-opacity:1;fill-rule:nonzero;stroke:none" transform="translate(227 182)"/><path d="M0 0a1 1 0 1 0 0-2 1 1 0 0 0 0 2" style="fill:#404040;fill-opacity:1;fill-rule:nonzero;stroke:none" transform="translate(227 186)"/><path d="M0 0a1 1 0 1 0 0-2 1 1 0 0 0 0 2" style="fill:#404040;fill-opacity:1;fill-rule:nonzero;stroke:none" transform="translate(227 190)"/><path d="M0 0a1 1 0 1 0 0-2 1 1 0 0 0 0 2" style="fill:#404040;fill-opacity:1;fill-rule:nonzero;stroke:none" transform="translate(227 194)"/><path d="M0 0a1 1 0 1 0 0-2 1 1 0 1 0 0 2" style="fill:#404040;fill-opacity:1;fill-rule:nonzero;stroke:none" transform="translate(229 68)"/><path d="M0 0a1 1 0 1 0 0-2 1 1 0 1 0 0 2" style="fill:#404040;fill-opacity:1;fill-rule:nonzero;stroke:none" transform="translate(229 72)"/><path d="M0 0a1 1 0 1 0 0-2 1 1 0 1 0 0 2" style="fill:#404040;fill-opacity:1;fill-rule:nonzero;stroke:none" transform="translate(229 76)"/><path d="M0 0a1 1 0 1 0 0-2 1 1 0 1 0 0 2" style="fill:#404040;fill-opacity:1;fill-rule:nonzero;stroke:none" transform="translate(229 80)"/><path d="M0 0a1 1 0 1 0 0-2 1 1 0 1 0 0 2" style="fill:#404040;fill-opacity:1;fill-rule:nonzero;stroke:none" transform="translate(229 84)"/><path d="M0 0a1 1 0 1 0 0-2 1 1 0 1 0 0 2" style="fill:#404040;fill-opacity:1;fill-rule:nonzero;stroke:none" transform="translate(229 88)"/><path d="M0 0a1 1 0 1 0 0-2 1 1 0 1 0 0 2" style="fill:#404040;fill-opacity:1;fill-rule:nonzero;stroke:none" transform="translate(229 92)"/><path d="M0 0a1 1 0 1 0 0-2 1 1 0 1 0 0 2" style="fill:#404040;fill-opacity:1;fill-rule:nonzero;stroke:none" transform="translate(229 96)"/><path d="M0 0a1 1 0 1 0 0-2 1 1 0 1 0 0 2" style="fill:#404040;fill-opacity:1;fill-rule:nonzero;stroke:none" transform="translate(229 100)"/><path d="M0 0a1 1 0 1 0 0-2 1 1 0 1 0 0 2" style="fill:#404040;fill-opacity:1;fill-rule:nonzero;stroke:none" transform="translate(229 104)"/><path d="M0 0a1 1 0 1 0 0-2 1 1 0 1 0 0 2" style="fill:#404040;fill-opacity:1;fill-rule:nonzero;stroke:none" transform="translate(229 108)"/><path d="M0 0a1 1 0 1 0 0-2 1 1 0 1 0 0 2" style="fill:#404040;fill-opacity:1;fill-rule:nonzero;stroke:none" transform="translate(229 112)"/><path d="M0 0a1 1 0 1 0 0-2 1 1 0 1 0 0 2" style="fill:#404040;fill-opacity:1;fill-rule:nonzero;stroke:none" transform="translate(229 116)"/><path d="M0 0a1 1 0 1 0 0-2 1 1 0 1 0 0 2" style="fill:#404040;fill-opacity:1;fill-rule:nonzero;stroke:none" transform="translate(229 120)"/><path d="M0 0a1 1 0 1 0 0-2 1 1 0 1 0 0 2" style="fill:#404040;fill-opacity:1;fill-rule:nonzero;stroke:none" transform="translate(229 124)"/><path d="M0 0a1 1 0 1 0 0-2 1 1 0 0 0 0 2" style="fill:#404040;fill-opacity:1;fill-rule:nonzero;stroke:none" transform="translate(229 128)"/><path d="M0 0a1 1 0 1 0 0-2 1 1 0 0 0 0 2" style="fill:#404040;fill-opacity:1;fill-rule:nonzero;stroke:none" transform="translate(229 132)"/><path d="M0 0a1 1 0 1 0 0-2 1 1 0 0 0 0 2" style="fill:#404040;fill-opacity:1;fill-rule:nonzero;stroke:none" transform="translate(229 136)"/><path d="M0 0a1 1 0 1 0 0-2 1 1 0 0 0 0 2" style="fill:#404040;fill-opacity:1;fill-rule:nonzero;stroke:none" transform="translate(229 140)"/><path d="M0 0a1 1 0 1 0 0-2 1 1 0 0 0 0 2" style="fill:#404040;fill-opacity:1;fill-rule:nonzero;stroke:none" transform="translate(229 144)"/><path d="M0 0a1 1 0 1 0 0-2 1 1 0 0 0 0 2" style="fill:#404040;fill-opacity:1;fill-rule:nonzero;stroke:none" transform="translate(229 148)"/><path d="M0 0a1 1 0 1 0 0-2 1 1 0 0 0 0 2" style="fill:#404040;fill-opacity:1;fill-rule:nonzero;stroke:none" transform="translate(229 152)"/><path d="M0 0a1 1 0 1 0 0-2 1 1 0 0 0 0 2" style="fill:#404040;fill-opacity:1;fill-rule:nonzero;stroke:none" transform="translate(229 156)"/><path d="M0 0a1 1 0 1 0 0-2 1 1 0 0 0 0 2" style="fill:#404040;fill-opacity:1;fill-rule:nonzero;stroke:none" transform="translate(229 160)"/><path d="M0 0a1 1 0 1 0 0-2 1 1 0 0 0 0 2" style="fill:#404040;fill-opacity:1;fill-rule:nonzero;stroke:none" transform="translate(229 164)"/><path d="M0 0a1 1 0 1 0 0-2 1 1 0 0 0 0 2" style="fill:#404040;fill-opacity:1;fill-rule:nonzero;stroke:none" transform="translate(229 168)"/><path d="M0 0a1 1 0 1 0 0-2 1 1 0 0 0 0 2" style="fill:#404040;fill-opacity:1;fill-rule:nonzero;stroke:none" transform="translate(229 172)"/><path d="M0 0a1 1 0 1 0 0-2 1 1 0 0 0 0 2" style="fill:#404040;fill-opacity:1;fill-rule:nonzero;stroke:none" transform="translate(229 176)"/><path d="M0 0a1 1 0 1 0 0-2 1 1 0 0 0 0 2" style="fill:#404040;fill-opacity:1;fill-rule:nonzero;stroke:none" transform="translate(229 180)"/><path d="M0 0a1 1 0 1 0 0-2 1 1 0 0 0 0 2" style="fill:#404040;fill-opacity:1;fill-rule:nonzero;stroke:none" transform="translate(229 184)"/><path d="M0 0a1 1 0 1 0 0-2 1 1 0 0 0 0 2" style="fill:#404040;fill-opacity:1;fill-rule:nonzero;stroke:none" transform="translate(229 188)"/><path d="M0 0a1 1 0 1 0 0-2 1 1 0 0 0 0 2" style="fill:#404040;fill-opacity:1;fill-rule:nonzero;stroke:none" transform="translate(229 192)"/><path d="M0 0a1 1 0 1 0 0-2 1 1 0 1 0 0 2" style="fill:#404040;fill-opacity:1;fill-rule:nonzero;stroke:none" transform="translate(231 66)"/><path d="M0 0a1 1 0 1 0 0-2 1 1 0 1 0 0 2" style="fill:#404040;fill-opacity:1;fill-rule:nonzero;stroke:none" transform="translate(231 70)"/><path d="M0 0a1 1 0 1 0 0-2 1 1 0 1 0 0 2" style="fill:#404040;fill-opacity:1;fill-rule:nonzero;stroke:none" transform="translate(231 74)"/><path d="M0 0a1 1 0 1 0 0-2 1 1 0 1 0 0 2" style="fill:#404040;fill-opacity:1;fill-rule:nonzero;stroke:none" transform="translate(231 78)"/><path d="M0 0a1 1 0 1 0 0-2 1 1 0 1 0 0 2" style="fill:#404040;fill-opacity:1;fill-rule:nonzero;stroke:none" transform="translate(231 82)"/><path d="M0 0a1 1 0 1 0 0-2 1 1 0 1 0 0 2" style="fill:#404040;fill-opacity:1;fill-rule:nonzero;stroke:none" transform="translate(231 86)"/><path d="M0 0a1 1 0 1 0 0-2 1 1 0 1 0 0 2" style="fill:#404040;fill-opacity:1;fill-rule:nonzero;stroke:none" transform="translate(231 90)"/><path d="M0 0a1 1 0 1 0 0-2 1 1 0 1 0 0 2" style="fill:#404040;fill-opacity:1;fill-rule:nonzero;stroke:none" transform="translate(231 94)"/><path d="M0 0a1 1 0 1 0 0-2 1 1 0 1 0 0 2" style="fill:#404040;fill-opacity:1;fill-rule:nonzero;stroke:none" transform="translate(231 98)"/><path d="M0 0a1 1 0 1 0 0-2 1 1 0 1 0 0 2" style="fill:#404040;fill-opacity:1;fill-rule:nonzero;stroke:none" transform="translate(231 102)"/><path d="M0 0a1 1 0 1 0 0-2 1 1 0 1 0 0 2" style="fill:#404040;fill-opacity:1;fill-rule:nonzero;stroke:none" transform="translate(231 106)"/><path d="M0 0a1 1 0 1 0 0-2 1 1 0 1 0 0 2" style="fill:#404040;fill-opacity:1;fill-rule:nonzero;stroke:none" transform="translate(231 110)"/><path d="M0 0a1 1 0 1 0 0-2 1 1 0 1 0 0 2" style="fill:#404040;fill-opacity:1;fill-rule:nonzero;stroke:none" transform="translate(231 114)"/><path d="M0 0a1 1 0 1 0 0-2 1 1 0 1 0 0 2" style="fill:#404040;fill-opacity:1;fill-rule:nonzero;stroke:none" transform="translate(231 118)"/><path d="M0 0a1 1 0 1 0 0-2 1 1 0 1 0 0 2" style="fill:#404040;fill-opacity:1;fill-rule:nonzero;stroke:none" transform="translate(231 122)"/><path d="M0 0a1 1 0 1 0 0-2 1 1 0 1 0 0 2" style="fill:#404040;fill-opacity:1;fill-rule:nonzero;stroke:none" transform="translate(231 126)"/><path d="M0 0a1 1 0 1 0 0-2 1 1 0 0 0 0 2" style="fill:#404040;fill-opacity:1;fill-rule:nonzero;stroke:none" transform="translate(231 130)"/><path d="M0 0a1 1 0 1 0 0-2 1 1 0 0 0 0 2" style="fill:#404040;fill-opacity:1;fill-rule:nonzero;stroke:none" transform="translate(231 134)"/><path d="M0 0a1 1 0 1 0 0-2 1 1 0 0 0 0 2" style="fill:#404040;fill-opacity:1;fill-rule:nonzero;stroke:none" transform="translate(231 138)"/><path d="M0 0a1 1 0 1 0 0-2 1 1 0 0 0 0 2" style="fill:#404040;fill-opacity:1;fill-rule:nonzero;stroke:none" transform="translate(231 142)"/><path d="M0 0a1 1 0 1 0 0-2 1 1 0 0 0 0 2" style="fill:#404040;fill-opacity:1;fill-rule:nonzero;stroke:none" transform="translate(231 146)"/><path d="M0 0a1 1 0 1 0 0-2 1 1 0 0 0 0 2" style="fill:#404040;fill-opacity:1;fill-rule:nonzero;stroke:none" transform="translate(231 150)"/><path d="M0 0a1 1 0 1 0 0-2 1 1 0 0 0 0 2" style="fill:#404040;fill-opacity:1;fill-rule:nonzero;stroke:none" transform="translate(231 154)"/><path d="M0 0a1 1 0 1 0 0-2 1 1 0 0 0 0 2" style="fill:#404040;fill-opacity:1;fill-rule:nonzero;stroke:none" transform="translate(231 158)"/><path d="M0 0a1 1 0 1 0 0-2 1 1 0 0 0 0 2" style="fill:#404040;fill-opacity:1;fill-rule:nonzero;stroke:none" transform="translate(231 162)"/><path d="M0 0a1 1 0 1 0 0-2 1 1 0 0 0 0 2" style="fill:#404040;fill-opacity:1;fill-rule:nonzero;stroke:none" transform="translate(231 166)"/><path d="M0 0a1 1 0 1 0 0-2 1 1 0 0 0 0 2" style="fill:#404040;fill-opacity:1;fill-rule:nonzero;stroke:none" transform="translate(231 170)"/><path d="M0 0a1 1 0 1 0 0-2 1 1 0 0 0 0 2" style="fill:#404040;fill-opacity:1;fill-rule:nonzero;stroke:none" transform="translate(231 174)"/><path d="M0 0a1 1 0 1 0 0-2 1 1 0 0 0 0 2" style="fill:#404040;fill-opacity:1;fill-rule:nonzero;stroke:none" transform="translate(231 178)"/><path d="M0 0a1 1 0 1 0 0-2 1 1 0 0 0 0 2" style="fill:#404040;fill-opacity:1;fill-rule:nonzero;stroke:none" transform="translate(231 182)"/><path d="M0 0a1 1 0 1 0 0-2 1 1 0 0 0 0 2" style="fill:#404040;fill-opacity:1;fill-rule:nonzero;stroke:none" transform="translate(231 186)"/><path d="M0 0a1 1 0 1 0 0-2 1 1 0 0 0 0 2" style="fill:#404040;fill-opacity:1;fill-rule:nonzero;stroke:none" transform="translate(231 190)"/><path d="M0 0a1 1 0 1 0 0-2 1 1 0 0 0 0 2" style="fill:#404040;fill-opacity:1;fill-rule:nonzero;stroke:none" transform="translate(231 194)"/><path d="M0 0a1 1 0 1 0 0-2 1 1 0 1 0 0 2" style="fill:#404040;fill-opacity:1;fill-rule:nonzero;stroke:none" transform="translate(233 68)"/><path d="M0 0a1 1 0 1 0 0-2 1 1 0 1 0 0 2" style="fill:#404040;fill-opacity:1;fill-rule:nonzero;stroke:none" transform="translate(233 72)"/><path d="M0 0a1 1 0 1 0 0-2 1 1 0 1 0 0 2" style="fill:#404040;fill-opacity:1;fill-rule:nonzero;stroke:none" transform="translate(233 76)"/><path d="M0 0a1 1 0 1 0 0-2 1 1 0 1 0 0 2" style="fill:#404040;fill-opacity:1;fill-rule:nonzero;stroke:none" transform="translate(233 80)"/><path d="M0 0a1 1 0 1 0 0-2 1 1 0 1 0 0 2" style="fill:#404040;fill-opacity:1;fill-rule:nonzero;stroke:none" transform="translate(233 84)"/><path d="M0 0a1 1 0 1 0 0-2 1 1 0 1 0 0 2" style="fill:#404040;fill-opacity:1;fill-rule:nonzero;stroke:none" transform="translate(233 88)"/><path d="M0 0a1 1 0 1 0 0-2 1 1 0 1 0 0 2" style="fill:#404040;fill-opacity:1;fill-rule:nonzero;stroke:none" transform="translate(233 92)"/><path d="M0 0a1 1 0 1 0 0-2 1 1 0 1 0 0 2" style="fill:#404040;fill-opacity:1;fill-rule:nonzero;stroke:none" transform="translate(233 96)"/><path d="M0 0a1 1 0 1 0 0-2 1 1 0 1 0 0 2" style="fill:#404040;fill-opacity:1;fill-rule:nonzero;stroke:none" transform="translate(233 100)"/><path d="M0 0a1 1 0 1 0 0-2 1 1 0 1 0 0 2" style="fill:#404040;fill-opacity:1;fill-rule:nonzero;stroke:none" transform="translate(233 104)"/><path d="M0 0a1 1 0 1 0 0-2 1 1 0 1 0 0 2" style="fill:#404040;fill-opacity:1;fill-rule:nonzero;stroke:none" transform="translate(233 108)"/><path d="M0 0a1 1 0 1 0 0-2 1 1 0 1 0 0 2" style="fill:#404040;fill-opacity:1;fill-rule:nonzero;stroke:none" transform="translate(233 112)"/><path d="M0 0a1 1 0 1 0 0-2 1 1 0 1 0 0 2" style="fill:#404040;fill-opacity:1;fill-rule:nonzero;stroke:none" transform="translate(233 116)"/><path d="M0 0a1 1 0 1 0 0-2 1 1 0 1 0 0 2" style="fill:#404040;fill-opacity:1;fill-rule:nonzero;stroke:none" transform="translate(233 120)"/><path d="M0 0a1 1 0 1 0 0-2 1 1 0 1 0 0 2" style="fill:#404040;fill-opacity:1;fill-rule:nonzero;stroke:none" transform="translate(233 124)"/><path d="M0 0a1 1 0 1 0 0-2 1 1 0 0 0 0 2" style="fill:#404040;fill-opacity:1;fill-rule:nonzero;stroke:none" transform="translate(233 128)"/><path d="M0 0a1 1 0 1 0 0-2 1 1 0 0 0 0 2" style="fill:#404040;fill-opacity:1;fill-rule:nonzero;stroke:none" transform="translate(233 132)"/><path d="M0 0a1 1 0 1 0 0-2 1 1 0 0 0 0 2" style="fill:#404040;fill-opacity:1;fill-rule:nonzero;stroke:none" transform="translate(233 136)"/><path d="M0 0a1 1 0 1 0 0-2 1 1 0 0 0 0 2" style="fill:#404040;fill-opacity:1;fill-rule:nonzero;stroke:none" transform="translate(233 140)"/><path d="M0 0a1 1 0 1 0 0-2 1 1 0 0 0 0 2" style="fill:#404040;fill-opacity:1;fill-rule:nonzero;stroke:none" transform="translate(233 144)"/><path d="M0 0a1 1 0 1 0 0-2 1 1 0 0 0 0 2" style="fill:#404040;fill-opacity:1;fill-rule:nonzero;stroke:none" transform="translate(233 148)"/><path d="M0 0a1 1 0 1 0 0-2 1 1 0 0 0 0 2" style="fill:#404040;fill-opacity:1;fill-rule:nonzero;stroke:none" transform="translate(233 152)"/><path d="M0 0a1 1 0 1 0 0-2 1 1 0 0 0 0 2" style="fill:#404040;fill-opacity:1;fill-rule:nonzero;stroke:none" transform="translate(233 156)"/><path d="M0 0a1 1 0 1 0 0-2 1 1 0 0 0 0 2" style="fill:#404040;fill-opacity:1;fill-rule:nonzero;stroke:none" transform="translate(233 160)"/><path d="M0 0a1 1 0 1 0 0-2 1 1 0 0 0 0 2" style="fill:#404040;fill-opacity:1;fill-rule:nonzero;stroke:none" transform="translate(233 164)"/><path d="M0 0a1 1 0 1 0 0-2 1 1 0 0 0 0 2" style="fill:#404040;fill-opacity:1;fill-rule:nonzero;stroke:none" transform="translate(233 168)"/><path d="M0 0a1 1 0 1 0 0-2 1 1 0 0 0 0 2" style="fill:#404040;fill-opacity:1;fill-rule:nonzero;stroke:none" transform="translate(233 172)"/><path d="M0 0a1 1 0 1 0 0-2 1 1 0 0 0 0 2" style="fill:#404040;fill-opacity:1;fill-rule:nonzero;stroke:none" transform="translate(233 176)"/><path d="M0 0a1 1 0 1 0 0-2 1 1 0 0 0 0 2" style="fill:#404040;fill-opacity:1;fill-rule:nonzero;stroke:none" transform="translate(233 180)"/><path d="M0 0a1 1 0 1 0 0-2 1 1 0 0 0 0 2" style="fill:#404040;fill-opacity:1;fill-rule:nonzero;stroke:none" transform="translate(233 184)"/><path d="M0 0a1 1 0 1 0 0-2 1 1 0 0 0 0 2" style="fill:#404040;fill-opacity:1;fill-rule:nonzero;stroke:none" transform="translate(233 188)"/><path d="M0 0a1 1 0 1 0 0-2 1 1 0 0 0 0 2" style="fill:#404040;fill-opacity:1;fill-rule:nonzero;stroke:none" transform="translate(233 192)"/><path d="M0 0a1 1 0 1 0 0-2 1 1 0 1 0 0 2" style="fill:#404040;fill-opacity:1;fill-rule:nonzero;stroke:none" transform="translate(235 66)"/><path d="M0 0a1 1 0 1 0 0-2 1 1 0 1 0 0 2" style="fill:#404040;fill-opacity:1;fill-rule:nonzero;stroke:none" transform="translate(235 70)"/><path d="M0 0a1 1 0 1 0 0-2 1 1 0 1 0 0 2" style="fill:#404040;fill-opacity:1;fill-rule:nonzero;stroke:none" transform="translate(235 74)"/><path d="M0 0a1 1 0 1 0 0-2 1 1 0 1 0 0 2" style="fill:#404040;fill-opacity:1;fill-rule:nonzero;stroke:none" transform="translate(235 78)"/><path d="M0 0a1 1 0 1 0 0-2 1 1 0 1 0 0 2" style="fill:#404040;fill-opacity:1;fill-rule:nonzero;stroke:none" transform="translate(235 82)"/><path d="M0 0a1 1 0 1 0 0-2 1 1 0 1 0 0 2" style="fill:#404040;fill-opacity:1;fill-rule:nonzero;stroke:none" transform="translate(235 86)"/><path d="M0 0a1 1 0 1 0 0-2 1 1 0 1 0 0 2" style="fill:#404040;fill-opacity:1;fill-rule:nonzero;stroke:none" transform="translate(235 90)"/><path d="M0 0a1 1 0 1 0 0-2 1 1 0 1 0 0 2" style="fill:#404040;fill-opacity:1;fill-rule:nonzero;stroke:none" transform="translate(235 94)"/><path d="M0 0a1 1 0 1 0 0-2 1 1 0 1 0 0 2" style="fill:#404040;fill-opacity:1;fill-rule:nonzero;stroke:none" transform="translate(235 98)"/><path d="M0 0a1 1 0 1 0 0-2 1 1 0 1 0 0 2" style="fill:#404040;fill-opacity:1;fill-rule:nonzero;stroke:none" transform="translate(235 102)"/><path d="M0 0a1 1 0 1 0 0-2 1 1 0 1 0 0 2" style="fill:#404040;fill-opacity:1;fill-rule:nonzero;stroke:none" transform="translate(235 106)"/><path d="M0 0a1 1 0 1 0 0-2 1 1 0 1 0 0 2" style="fill:#404040;fill-opacity:1;fill-rule:nonzero;stroke:none" transform="translate(235 110)"/><path d="M0 0a1 1 0 1 0 0-2 1 1 0 1 0 0 2" style="fill:#404040;fill-opacity:1;fill-rule:nonzero;stroke:none" transform="translate(235 114)"/><path d="M0 0a1 1 0 1 0 0-2 1 1 0 1 0 0 2" style="fill:#404040;fill-opacity:1;fill-rule:nonzero;stroke:none" transform="translate(235 118)"/><path d="M0 0a1 1 0 1 0 0-2 1 1 0 1 0 0 2" style="fill:#404040;fill-opacity:1;fill-rule:nonzero;stroke:none" transform="translate(235 122)"/><path d="M0 0a1 1 0 1 0 0-2 1 1 0 1 0 0 2" style="fill:#404040;fill-opacity:1;fill-rule:nonzero;stroke:none" transform="translate(235 126)"/><path d="M0 0a1 1 0 1 0 0-2 1 1 0 0 0 0 2" style="fill:#404040;fill-opacity:1;fill-rule:nonzero;stroke:none" transform="translate(235 130)"/><path d="M0 0a1 1 0 1 0 0-2 1 1 0 0 0 0 2" style="fill:#404040;fill-opacity:1;fill-rule:nonzero;stroke:none" transform="translate(235 134)"/><path d="M0 0a1 1 0 1 0 0-2 1 1 0 0 0 0 2" style="fill:#404040;fill-opacity:1;fill-rule:nonzero;stroke:none" transform="translate(235 138)"/><path d="M0 0a1 1 0 1 0 0-2 1 1 0 0 0 0 2" style="fill:#404040;fill-opacity:1;fill-rule:nonzero;stroke:none" transform="translate(235 142)"/><path d="M0 0a1 1 0 1 0 0-2 1 1 0 0 0 0 2" style="fill:#404040;fill-opacity:1;fill-rule:nonzero;stroke:none" transform="translate(235 146)"/><path d="M0 0a1 1 0 1 0 0-2 1 1 0 0 0 0 2" style="fill:#404040;fill-opacity:1;fill-rule:nonzero;stroke:none" transform="translate(235 150)"/><path d="M0 0a1 1 0 1 0 0-2 1 1 0 0 0 0 2" style="fill:#404040;fill-opacity:1;fill-rule:nonzero;stroke:none" transform="translate(235 154)"/><path d="M0 0a1 1 0 1 0 0-2 1 1 0 0 0 0 2" style="fill:#404040;fill-opacity:1;fill-rule:nonzero;stroke:none" transform="translate(235 158)"/><path d="M0 0a1 1 0 1 0 0-2 1 1 0 0 0 0 2" style="fill:#404040;fill-opacity:1;fill-rule:nonzero;stroke:none" transform="translate(235 162)"/><path d="M0 0a1 1 0 1 0 0-2 1 1 0 0 0 0 2" style="fill:#404040;fill-opacity:1;fill-rule:nonzero;stroke:none" transform="translate(235 166)"/><path d="M0 0a1 1 0 1 0 0-2 1 1 0 0 0 0 2" style="fill:#404040;fill-opacity:1;fill-rule:nonzero;stroke:none" transform="translate(235 170)"/><path d="M0 0a1 1 0 1 0 0-2 1 1 0 0 0 0 2" style="fill:#404040;fill-opacity:1;fill-rule:nonzero;stroke:none" transform="translate(235 174)"/><path d="M0 0a1 1 0 1 0 0-2 1 1 0 0 0 0 2" style="fill:#404040;fill-opacity:1;fill-rule:nonzero;stroke:none" transform="translate(235 178)"/><path d="M0 0a1 1 0 1 0 0-2 1 1 0 0 0 0 2" style="fill:#404040;fill-opacity:1;fill-rule:nonzero;stroke:none" transform="translate(235 182)"/><path d="M0 0a1 1 0 1 0 0-2 1 1 0 0 0 0 2" style="fill:#404040;fill-opacity:1;fill-rule:nonzero;stroke:none" transform="translate(235 186)"/><path d="M0 0a1 1 0 1 0 0-2 1 1 0 0 0 0 2" style="fill:#404040;fill-opacity:1;fill-rule:nonzero;stroke:none" transform="translate(235 190)"/><path d="M0 0a1 1 0 1 0 0-2 1 1 0 0 0 0 2" style="fill:#404040;fill-opacity:1;fill-rule:nonzero;stroke:none" transform="translate(235 194)"/><path d="m0 0-8 10.5c-1.29 1.72-2 3.851-2 6v107.445c-1.19-.693-2-1.968-2-3.445v-104c0-2.597.842-5.123 2.4-7.2L0-3.5Z" style="fill:#b3b3b3;fill-opacity:1;fill-rule:nonzero;stroke:none" transform="translate(24 91.5)"/></g></svg>