<?xml version="1.0" encoding="UTF-8" standalone="no"?>
<svg
   xmlns:dc="http://purl.org/dc/elements/1.1/"
   xmlns:cc="http://creativecommons.org/ns#"
   xmlns:rdf="http://www.w3.org/1999/02/22-rdf-syntax-ns#"
   xmlns:svg="http://www.w3.org/2000/svg"
   xmlns="http://www.w3.org/2000/svg"
   viewBox="0 0 320.02331 330.66665"
   height="330.66666"
   width="320.02332"
   xml:space="preserve"
   id="svg2"
   version="1.1"><metadata
     id="metadata8"><rdf:RDF><cc:Work
         rdf:about=""><dc:format>image/svg+xml</dc:format><dc:type
           rdf:resource="http://purl.org/dc/dcmitype/StillImage" /></cc:Work></rdf:RDF></metadata><defs
     id="defs6"><clipPath
       id="clipPath18"
       clipPathUnits="userSpaceOnUse"><path
         id="path16"
         d="M 0,256 H 256 V 0 H 0 Z" /></clipPath><clipPath
       id="clipPath26"
       clipPathUnits="userSpaceOnUse"><path
         id="path24"
         d="M 7.99127,252 H 248.009 V 4 H 7.99127 Z" /></clipPath></defs><g
     transform="matrix(1.3333333,0,0,-1.3333333,-10.655196,335.99999)"
     id="g10"><g
       id="g12"><g
         clip-path="url(#clipPath18)"
         id="g14"><g
           id="g20"><g
             id="g22" /><g
             id="g34"><g
               style="opacity:0.5"
               id="g32"
               clip-path="url(#clipPath26)"><g
                 id="g30"
                 transform="translate(242.1055,252)"><path
                   id="path28"
                   style="fill:#ffffff;fill-opacity:1;fill-rule:nonzero;stroke:none"
                   d="m 0,0 h -8 -212.211 -7.999 l -0.001,-8 c 0,-0.997 -0.047,-100.285 -4.056,-151.374 -4.104,-52.292 -0.113,-80.601 0.059,-81.779 l 0.998,-6.847 h 6.918 220.373 6.918 l 0.998,6.847 c 0.172,1.178 4.163,29.487 0.06,81.779 C 0.046,-108.278 0,-8.997 0,-8 Z" /></g></g></g></g><g
           transform="translate(238.1865,92)"
           id="g36"><path
             id="path38"
             style="fill:#cccccc;fill-opacity:1;fill-rule:nonzero;stroke:none"
             d="m 0,0 c -4.081,52 -4.081,152 -4.081,152 h -212.211 c 0,0 0,-100 -4.081,-152 -4.081,-52 0,-80 0,-80 H 0 c 0,0 4.081,28 0,80" /></g><g
           transform="translate(20.5015,148)"
           id="g40"><path
             id="path42"
             style="fill:#bfbfbf;fill-opacity:1;fill-rule:nonzero;stroke:none"
             d="m 0,0 h 214.997 c -0.727,24.605 -1.075,49.656 -1.241,68 H 1.241 C 1.074,49.656 0.727,24.605 0,0" /></g><g
           transform="translate(238.1865,92)"
           id="g44"><path
             id="path46"
             style="fill:#bfbfbf;fill-opacity:1;fill-rule:nonzero;stroke:none"
             d="m 0,0 h -220.373 c -4.081,-52 0,-80 0,-80 H 0 c 0,0 4.081,28 0,80" /></g><g
           transform="translate(239.7412,64)"
           id="g48"><path
             id="path50"
             style="fill:#b3b3b3;fill-opacity:1;fill-rule:nonzero;stroke:none"
             d="m 0,0 h -223.482 c -1.068,-33.968 1.555,-52 1.555,-52 H -1.555 c 0,0 2.622,18.032 1.555,52" /></g><g
           transform="translate(21.6157,204)"
           id="g52"><path
             id="path54"
             style="fill:#b3b3b3;fill-opacity:1;fill-rule:nonzero;stroke:none"
             d="m 0,0 c -0.144,-12.038 -0.363,-25.829 -0.694,-40 h 214.156 c -0.331,14.171 -0.549,27.962 -0.693,40 z" /></g></g></g></g></svg>