<svg xmlns="http://www.w3.org/2000/svg" xml:space="preserve" width="320.023" height="330.667" viewBox="0 0 320.023 330.667"><defs><clipPath id="a" clipPathUnits="userSpaceOnUse"><path d="M0 256h256V0H0Z"/></clipPath><clipPath id="b" clipPathUnits="userSpaceOnUse"><path d="M7.991 252H248.01V4H7.991Z"/></clipPath></defs><g clip-path="url(#a)" transform="matrix(1.33333 0 0 -1.33333 -10.655 336)"><g clip-path="url(#b)" style="opacity:.5"><path d="M0 0h-228.21l-.001-8c0-.997-.047-100.285-4.056-151.374-4.104-52.292-.113-80.601.059-81.779l.998-6.847H2.999l.998 6.847c.172 1.178 4.163 29.487.06 81.779C.046-108.278 0-8.997 0-8Z" style="fill:#fff;fill-opacity:1;fill-rule:nonzero;stroke:none" transform="translate(242.106 252)"/></g><path d="M0 0c-4.081 52-4.081 152-4.081 152h-212.211s0-100-4.081-152 0-80 0-80H0S4.081-52 0 0" style="fill:#ccc;fill-opacity:1;fill-rule:nonzero;stroke:none" transform="translate(238.186 92)"/><path d="M0 0h214.997c-.727 24.605-1.075 49.656-1.241 68H1.241C1.074 49.656.727 24.605 0 0" style="fill:#bfbfbf;fill-opacity:1;fill-rule:nonzero;stroke:none" transform="translate(20.502 148)"/><path d="M0 0h-220.373c-4.081-52 0-80 0-80H0S4.081-52 0 0" style="fill:#bfbfbf;fill-opacity:1;fill-rule:nonzero;stroke:none" transform="translate(238.186 92)"/><path d="M0 0h-223.482c-1.068-33.968 1.555-52 1.555-52H-1.555S1.067-33.968 0 0" style="fill:#b3b3b3;fill-opacity:1;fill-rule:nonzero;stroke:none" transform="translate(239.741 64)"/><path d="M0 0a3552 3552 0 0 0-.694-40h214.156a3550 3550 0 0 0-.693 40z" style="fill:#b3b3b3;fill-opacity:1;fill-rule:nonzero;stroke:none" transform="translate(21.616 204)"/></g></svg>