<?xml version="1.0" encoding="UTF-8" standalone="no"?>
<svg
   xmlns:dc="http://purl.org/dc/elements/1.1/"
   xmlns:cc="http://creativecommons.org/ns#"
   xmlns:rdf="http://www.w3.org/1999/02/22-rdf-syntax-ns#"
   xmlns:svg="http://www.w3.org/2000/svg"
   xmlns="http://www.w3.org/2000/svg"
   viewBox="0 0 330.66613 202.66612"
   height="202.66612"
   width="330.66614"
   xml:space="preserve"
   id="svg2"
   version="1.1"><metadata
     id="metadata8"><rdf:RDF><cc:Work
         rdf:about=""><dc:format>image/svg+xml</dc:format><dc:type
           rdf:resource="http://purl.org/dc/dcmitype/StillImage" /></cc:Work></rdf:RDF></metadata><defs
     id="defs6"><clipPath
       id="clipPath18"
       clipPathUnits="userSpaceOnUse"><path
         id="path16"
         d="M 0,256 H 256 V 0 H 0 Z" /></clipPath><clipPath
       id="clipPath26"
       clipPathUnits="userSpaceOnUse"><path
         id="path24"
         d="M 4.0004,204 H 252 V 52 H 4.0004 Z" /></clipPath></defs><g
     transform="matrix(1.3333333,0,0,-1.3333333,-5.3338665,271.99999)"
     id="g10"><g
       id="g12"><g
         clip-path="url(#clipPath18)"
         id="g14"><g
           id="g20"><g
             id="g22" /><g
             id="g34"><g
               style="opacity:0.5"
               id="g32"
               clip-path="url(#clipPath26)"><g
                 id="g30"
                 transform="translate(251.9004,137.3364)"><path
                   id="path28"
                   style="fill:#ffffff;fill-opacity:1;fill-rule:nonzero;stroke:none"
                   d="M 0,0 -0.003,0.042 -0.006,0.083 C -1.334,17.12 -7.444,40.468 -29.015,54.946 -44.771,65.522 -61.5,66.664 -67.961,66.664 c -15.29,0 -40.356,-3.37 -44.539,-3.947 h -11.359 -0.082 -11.36 c -4.182,0.577 -29.248,3.947 -44.539,3.947 -6.461,0 -23.189,-1.142 -38.946,-11.718 -11.906,-7.991 -26.603,-23.997 -29.008,-54.863 L -247.798,0.041 -247.801,0 c -0.039,-0.589 -0.922,-14.594 3.422,-30.786 5.42,-20.207 16.596,-35.061 32.479,-43.289 v -1.261 c 0,-5.514 4.485,-10 10,-10 h 9.669 c 0.659,0 1.323,0.054 1.973,0.163 l 23.673,3.946 0.856,0.143 c 4.394,0.302 8.353,0.885 11.797,1.735 1.282,0.316 2.563,0.605 3.836,0.87 l 9.783,1.63 c 8.884,1.149 15.777,1.21 16.413,1.214 0.938,-0.005 15.533,-0.137 30.031,-3.714 5.344,-1.318 11.868,-1.987 19.391,-1.987 12.361,0 23.348,1.784 23.81,1.86 l 0.312,0.051 0.306,0.076 c 22.498,5.552 38.307,21.244 45.717,45.381 C 1.037,-16.476 0.045,-0.665 0,0" /></g></g></g></g><g
           transform="translate(48,72)"
           id="g36"><path
             id="path38"
             style="fill:#262626;fill-opacity:1;fill-rule:nonzero;stroke:none"
             d="m 0,0 v -10 c 0,-1.104 0.896,-2 2,-2 h 9.669 c 0.22,0 0.44,0.019 0.658,0.055 L 36,-8 Z" /></g><g
           transform="translate(243.918,136.7974)"
           id="g40"><path
             id="path42"
             style="fill:#333333;fill-opacity:1;fill-rule:nonzero;stroke:none"
             d="m 0,0 c -3.998,51.309 -43.984,59.203 -59.979,59.203 -15.994,0 -43.984,-3.947 -43.984,-3.947 h -11.914 -0.082 -11.914 c 0,0 -27.99,3.947 -43.984,3.947 -15.995,0 -55.981,-7.894 -59.979,-59.203 0,0 -3.999,-59.203 43.984,-71.043 0,0 23.992,-3.947 39.986,0 15.555,3.838 31.105,3.944 31.948,3.947 0.843,-0.003 16.394,-0.109 31.948,-3.947 15.994,-3.947 39.986,0 39.986,0 C 3.999,-59.203 0,0 0,0" /></g><g
           transform="translate(134,184)"
           id="g44"><path
             id="path46"
             style="fill:#808080;fill-opacity:1;fill-rule:nonzero;stroke:none"
             d="m 0,0 h -12 c -1.1,0 -2,0.9 -2,2 0,1.1 0.9,2 2,2 H 0 C 1.1,4 2,3.1 2,2 2,0.9 1.1,0 0,0" /></g><g
           transform="translate(192,80)"
           id="g48"><path
             id="path50"
             style="fill:#262626;fill-opacity:1;fill-rule:nonzero;stroke:none"
             d="m 0,0 h -128 c -2.209,0 -4,1.791 -4,4 v 88 c 0,2.209 1.791,4 4,4 H 0 c 2.209,0 4,-1.791 4,-4 V 4 C 4,1.791 2.209,0 0,0" /></g><path
           id="path52"
           style="fill:#808080;fill-opacity:1;fill-rule:nonzero;stroke:none"
           d="m 64,84 h 128 v 88 H 64 Z" /><g
           transform="translate(40,94)"
           id="g54"><path
             id="path56"
             style="fill:#404040;fill-opacity:1;fill-rule:nonzero;stroke:none"
             d="m 0,0 c 0,-3.313 2.687,-6 6,-6 3.313,0 6,2.687 6,6 C 12,3.313 9.313,6 6,6 2.687,6 0,3.313 0,0" /></g><g
           transform="translate(40,110)"
           id="g58"><path
             id="path60"
             style="fill:#999999;fill-opacity:1;fill-rule:nonzero;stroke:none"
             d="m 0,0 c 0,-3.313 2.687,-6 6,-6 3.313,0 6,2.687 6,6 C 12,3.313 9.313,6 6,6 2.687,6 0,3.313 0,0" /></g><g
           transform="translate(48,136)"
           id="g62"><path
             id="path64"
             style="fill:#333333;fill-opacity:1;fill-rule:nonzero;stroke:none"
             d="m 0,0 c 0,-8.836 -7.164,-18 -16,-18 -8.836,0 -16,9.164 -16,18 0,8.836 7.164,18 16,18 C -7.164,18 0,8.836 0,0" /></g><g
           transform="translate(40,162)"
           id="g66"><path
             id="path68"
             style="fill:#404040;fill-opacity:1;fill-rule:nonzero;stroke:none"
             d="m 0,0 c 0,-3.313 2.687,-6 6,-6 3.313,0 6,2.687 6,6 C 12,3.313 9.313,6 6,6 2.687,6 0,3.313 0,0" /></g><g
           transform="translate(44,136)"
           id="g70"><path
             id="path72"
             style="fill:#262626;fill-opacity:1;fill-rule:nonzero;stroke:none"
             d="m 0,0 c 0,-6.627 -5.373,-12 -12,-12 -6.627,0 -12,5.373 -12,12 0,6.627 5.373,12 12,12 C -5.373,12 0,6.627 0,0" /></g><g
           transform="translate(33,136)"
           id="g74"><path
             id="path76"
             style="fill:#262626;fill-opacity:1;fill-rule:nonzero;stroke:none"
             d="m 0,0 c 0,-0.552 -0.448,-1 -1,-1 -0.552,0 -1,0.448 -1,1 0,0.552 0.448,1 1,1 0.552,0 1,-0.448 1,-1" /></g><g
           transform="translate(42,136)"
           id="g78"><path
             id="path80"
             style="fill:#333333;fill-opacity:1;fill-rule:nonzero;stroke:none"
             d="m 0,0 c 0,-5.523 -4.477,-10 -10,-10 -5.523,0 -10,4.477 -10,10 0,5.523 4.477,10 10,10 C -4.477,10 0,5.523 0,0" /></g><g
           transform="translate(33,142)"
           id="g82"><path
             id="path84"
             style="fill:#262626;fill-opacity:1;fill-rule:nonzero;stroke:none"
             d="m 0,0 c 0,-0.552 -0.448,-1 -1,-1 -0.552,0 -1,0.448 -1,1 0,0.552 0.448,1 1,1 0.552,0 1,-0.448 1,-1" /></g><g
           transform="translate(27,136)"
           id="g86"><path
             id="path88"
             style="fill:#262626;fill-opacity:1;fill-rule:nonzero;stroke:none"
             d="m 0,0 c 0,-0.552 -0.448,-1 -1,-1 -0.552,0 -1,0.448 -1,1 0,0.552 0.448,1 1,1 0.552,0 1,-0.448 1,-1" /></g><g
           transform="translate(39,136)"
           id="g90"><path
             id="path92"
             style="fill:#262626;fill-opacity:1;fill-rule:nonzero;stroke:none"
             d="m 0,0 c 0,-0.552 -0.448,-1 -1,-1 -0.552,0 -1,0.448 -1,1 0,0.552 0.448,1 1,1 0.552,0 1,-0.448 1,-1" /></g><g
           transform="translate(33,130)"
           id="g94"><path
             id="path96"
             style="fill:#262626;fill-opacity:1;fill-rule:nonzero;stroke:none"
             d="m 0,0 c 0,-0.552 -0.448,-1 -1,-1 -0.552,0 -1,0.448 -1,1 0,0.552 0.448,1 1,1 0.552,0 1,-0.448 1,-1" /></g><g
           transform="translate(37,132)"
           id="g98"><path
             id="path100"
             style="fill:#262626;fill-opacity:1;fill-rule:nonzero;stroke:none"
             d="m 0,0 c 0,-0.552 -0.448,-1 -1,-1 -0.552,0 -1,0.448 -1,1 0,0.552 0.448,1 1,1 0.552,0 1,-0.448 1,-1" /></g><g
           transform="translate(29,132)"
           id="g102"><path
             id="path104"
             style="fill:#262626;fill-opacity:1;fill-rule:nonzero;stroke:none"
             d="m 0,0 c 0,-0.552 -0.448,-1 -1,-1 -0.552,0 -1,0.448 -1,1 0,0.552 0.448,1 1,1 0.552,0 1,-0.448 1,-1" /></g><g
           transform="translate(37,140)"
           id="g106"><path
             id="path108"
             style="fill:#262626;fill-opacity:1;fill-rule:nonzero;stroke:none"
             d="m 0,0 c 0,-0.552 -0.448,-1 -1,-1 -0.552,0 -1,0.448 -1,1 0,0.552 0.448,1 1,1 0.552,0 1,-0.448 1,-1" /></g><g
           transform="translate(29,140)"
           id="g110"><path
             id="path112"
             style="fill:#262626;fill-opacity:1;fill-rule:nonzero;stroke:none"
             d="m 0,0 c 0,-0.552 -0.448,-1 -1,-1 -0.552,0 -1,0.448 -1,1 0,0.552 0.448,1 1,1 0.552,0 1,-0.448 1,-1" /></g><g
           transform="translate(27,100)"
           id="g114"><path
             id="path116"
             style="fill:#191919;fill-opacity:1;fill-rule:nonzero;stroke:none"
             d="M 0,0 V 0 C -0.552,0 -1,0.447 -1,1 V 3 C -1,3.553 -0.552,4 0,4 0.552,4 1,3.553 1,3 V 1 C 1,0.447 0.552,0 0,0" /></g><g
           transform="translate(31,100)"
           id="g118"><path
             id="path120"
             style="fill:#191919;fill-opacity:1;fill-rule:nonzero;stroke:none"
             d="M 0,0 V 0 C -0.552,0 -1,0.447 -1,1 V 3 C -1,3.553 -0.552,4 0,4 0.552,4 1,3.553 1,3 V 1 C 1,0.447 0.552,0 0,0" /></g><g
           transform="translate(35,100)"
           id="g122"><path
             id="path124"
             style="fill:#191919;fill-opacity:1;fill-rule:nonzero;stroke:none"
             d="M 0,0 V 0 C -0.552,0 -1,0.447 -1,1 V 3 C -1,3.553 -0.552,4 0,4 0.552,4 1,3.553 1,3 V 1 C 1,0.447 0.552,0 0,0" /></g><g
           transform="translate(217,100)"
           id="g126"><path
             id="path128"
             style="fill:#191919;fill-opacity:1;fill-rule:nonzero;stroke:none"
             d="M 0,0 V 0 C -0.553,0 -1,0.447 -1,1 V 3 C -1,3.553 -0.553,4 0,4 0.553,4 1,3.553 1,3 V 1 C 1,0.447 0.553,0 0,0" /></g><g
           transform="translate(221,100)"
           id="g130"><path
             id="path132"
             style="fill:#191919;fill-opacity:1;fill-rule:nonzero;stroke:none"
             d="M 0,0 V 0 C -0.553,0 -1,0.447 -1,1 V 3 C -1,3.553 -0.553,4 0,4 0.553,4 1,3.553 1,3 V 1 C 1,0.447 0.553,0 0,0" /></g><g
           transform="translate(225,100)"
           id="g134"><path
             id="path136"
             style="fill:#191919;fill-opacity:1;fill-rule:nonzero;stroke:none"
             d="M 0,0 V 0 C -0.553,0 -1,0.447 -1,1 V 3 C -1,3.553 -0.553,4 0,4 0.553,4 1,3.553 1,3 V 1 C 1,0.447 0.553,0 0,0" /></g><g
           transform="translate(240,136)"
           id="g138"><path
             id="path140"
             style="fill:#333333;fill-opacity:1;fill-rule:nonzero;stroke:none"
             d="m 0,0 c 0,-11.046 -8.954,-20 -20,-20 -11.046,0 -20,8.954 -20,20 0,11.046 8.954,20 20,20 C -8.954,20 0,11.046 0,0" /></g><g
           transform="translate(224.2598,141.6567)"
           id="g142"><path
             id="path144"
             style="fill:#a6a6a6;fill-opacity:1;fill-rule:nonzero;stroke:none"
             d="m 0,0 4.703,4.703 c 0.903,0.903 0.741,2.416 -0.334,3.106 -5.235,3.356 -11.988,3.356 -17.223,0 -1.076,-0.69 -1.237,-2.203 -0.334,-3.106 L -8.485,0 C -6.142,-2.343 -2.343,-2.343 0,0" /></g><g
           transform="translate(214.3604,140.2427)"
           id="g146"><path
             id="path148"
             style="fill:#a6a6a6;fill-opacity:1;fill-rule:nonzero;stroke:none"
             d="m 0,0 -4.702,4.703 c -0.903,0.903 -2.417,0.741 -3.107,-0.334 -3.356,-5.235 -3.356,-11.988 0,-17.223 0.69,-1.076 2.204,-1.237 3.107,-0.334 L 0,-8.485 C 2.344,-6.142 2.344,-2.343 0,0" /></g><g
           transform="translate(225.6738,131.7573)"
           id="g150"><path
             id="path152"
             style="fill:#a6a6a6;fill-opacity:1;fill-rule:nonzero;stroke:none"
             d="m 0,0 4.703,-4.703 c 0.903,-0.903 2.416,-0.742 3.107,0.334 3.355,5.235 3.355,11.988 0,17.223 -0.691,1.076 -2.204,1.237 -3.107,0.334 L 0,8.485 C -2.343,6.142 -2.343,2.343 0,0" /></g><g
           transform="translate(215.7744,130.3433)"
           id="g154"><path
             id="path156"
             style="fill:#a6a6a6;fill-opacity:1;fill-rule:nonzero;stroke:none"
             d="m 0,0 -4.702,-4.703 c -0.903,-0.903 -0.742,-2.417 0.334,-3.106 5.234,-3.356 11.987,-3.356 17.222,0 1.076,0.689 1.238,2.203 0.334,3.106 L 8.485,0 C 6.143,2.343 2.344,2.343 0,0" /></g><g
           transform="translate(224.2773,141.6567)"
           id="g158"><path
             id="path160"
             style="fill:#999999;fill-opacity:1;fill-rule:nonzero;stroke:none"
             d="m 0,0 3.502,3.502 c -2.091,1.769 -4.791,2.841 -7.745,2.841 -2.953,0 -5.653,-1.072 -7.744,-2.841 L -8.485,0 C -6.143,-2.343 -2.343,-2.343 0,0" /></g><g
           transform="translate(229.1934,143.7446)"
           id="g162"><path
             id="path164"
             style="fill:#999999;fill-opacity:1;fill-rule:nonzero;stroke:none"
             d="m 0,0 -3.502,-3.502 c -2.343,-2.343 -2.343,-6.142 0,-8.485 L 0,-15.489 c 1.77,2.091 2.841,4.791 2.841,7.744 C 2.841,-4.791 1.77,-2.091 0,0" /></g><g
           transform="translate(210.876,128.2559)"
           id="g166"><path
             id="path168"
             style="fill:#999999;fill-opacity:1;fill-rule:nonzero;stroke:none"
             d="m 0,0 3.502,3.501 c 2.343,2.344 2.343,6.143 0,8.486 L 0,15.489 C -1.77,13.398 -2.842,10.698 -2.842,7.744 -2.842,4.791 -1.77,2.09 0,0" /></g><g
           transform="translate(227.7793,126.8418)"
           id="g170"><path
             id="path172"
             style="fill:#999999;fill-opacity:1;fill-rule:nonzero;stroke:none"
             d="m 0,0 -3.502,3.501 c -2.343,2.344 -6.143,2.344 -8.485,0 L -15.489,0 c 2.091,-1.771 4.791,-2.842 7.744,-2.842 2.954,0 5.654,1.071 7.745,2.842" /></g></g></g></g></svg>