<svg xmlns="http://www.w3.org/2000/svg" xml:space="preserve" width="330.666" height="202.666" viewBox="0 0 330.666 202.666"><defs><clipPath id="a" clipPathUnits="userSpaceOnUse"><path d="M0 256h256V0H0Z"/></clipPath><clipPath id="b" clipPathUnits="userSpaceOnUse"><path d="M4 204h248V52H4Z"/></clipPath></defs><g clip-path="url(#a)" transform="matrix(1.33333 0 0 -1.33333 -5.334 272)"><g clip-path="url(#b)" style="opacity:.5"><path d="m0 0-.003.042-.003.041C-1.334 17.12-7.444 40.468-29.015 54.946-44.771 65.522-61.5 66.664-67.961 66.664c-15.29 0-40.356-3.37-44.539-3.947h-22.801c-4.182.577-29.248 3.947-44.539 3.947-6.461 0-23.189-1.142-38.946-11.718-11.906-7.991-26.603-23.997-29.008-54.863l-.004-.042-.003-.041c-.039-.589-.922-14.594 3.422-30.786 5.42-20.207 16.596-35.061 32.479-43.289v-1.261c0-5.514 4.485-10 10-10h9.669c.659 0 1.323.054 1.973.163l23.673 3.946.856.143c4.394.302 8.353.885 11.797 1.735q1.925.473 3.836.87l9.783 1.63c8.884 1.149 15.777 1.21 16.413 1.214.938-.005 15.533-.137 30.031-3.714 5.344-1.318 11.868-1.987 19.391-1.987 12.361 0 23.348 1.784 23.81 1.86l.312.051.306.076c22.498 5.552 38.307 21.244 45.717 45.381C1.037-16.476.045-.665 0 0" style="fill:#fff;fill-opacity:1;fill-rule:nonzero;stroke:none" transform="translate(251.9 137.336)"/></g><path d="M0 0v-10a2 2 0 0 1 2-2h9.669q.33 0 .658.055L36-8Z" style="fill:#262626;fill-opacity:1;fill-rule:nonzero;stroke:none" transform="translate(48 72)"/><path d="M0 0c-3.998 51.309-43.984 59.203-59.979 59.203s-43.984-3.947-43.984-3.947h-23.91s-27.99 3.947-43.984 3.947S-227.838 51.309-231.836 0c0 0-3.999-59.203 43.984-71.043 0 0 23.992-3.947 39.986 0 15.555 3.838 31.105 3.944 31.948 3.947.843-.003 16.394-.109 31.948-3.947 15.994-3.947 39.986 0 39.986 0C3.999-59.203 0 0 0 0" style="fill:#333;fill-opacity:1;fill-rule:nonzero;stroke:none" transform="translate(243.918 136.797)"/><path d="M0 0h-12c-1.1 0-2 .9-2 2s.9 2 2 2H0c1.1 0 2-.9 2-2s-.9-2-2-2" style="fill:gray;fill-opacity:1;fill-rule:nonzero;stroke:none" transform="translate(134 184)"/><path d="M0 0h-128a4 4 0 0 0-4 4v88a4 4 0 0 0 4 4H0a4 4 0 0 0 4-4V4a4 4 0 0 0-4-4" style="fill:#262626;fill-opacity:1;fill-rule:nonzero;stroke:none" transform="translate(192 80)"/><path d="M64 84h128v88H64Z" style="fill:gray;fill-opacity:1;fill-rule:nonzero;stroke:none"/><path d="M0 0a6 6 0 0 1 12 0A6 6 0 0 1 0 0" style="fill:#404040;fill-opacity:1;fill-rule:nonzero;stroke:none" transform="translate(40 94)"/><path d="M0 0a6 6 0 0 1 12 0A6 6 0 0 1 0 0" style="fill:#999;fill-opacity:1;fill-rule:nonzero;stroke:none" transform="translate(40 110)"/><path d="M0 0c0-8.836-7.164-18-16-18S-32-8.836-32 0s7.164 18 16 18S0 8.836 0 0" style="fill:#333;fill-opacity:1;fill-rule:nonzero;stroke:none" transform="translate(48 136)"/><path d="M0 0a6 6 0 0 1 12 0A6 6 0 0 1 0 0" style="fill:#404040;fill-opacity:1;fill-rule:nonzero;stroke:none" transform="translate(40 162)"/><path d="M0 0c0-6.627-5.373-12-12-12S-24-6.627-24 0s5.373 12 12 12S0 6.627 0 0" style="fill:#262626;fill-opacity:1;fill-rule:nonzero;stroke:none" transform="translate(44 136)"/><path d="M0 0a1 1 0 1 0-2 0 1 1 0 0 0 2 0" style="fill:#262626;fill-opacity:1;fill-rule:nonzero;stroke:none" transform="translate(33 136)"/><path d="M0 0c0-5.523-4.477-10-10-10S-20-5.523-20 0s4.477 10 10 10S0 5.523 0 0" style="fill:#333;fill-opacity:1;fill-rule:nonzero;stroke:none" transform="translate(42 136)"/><path d="M0 0a1 1 0 1 0-2 0 1 1 0 0 0 2 0" style="fill:#262626;fill-opacity:1;fill-rule:nonzero;stroke:none" transform="translate(33 142)"/><path d="M0 0a1 1 0 1 0-2 0 1 1 0 0 0 2 0" style="fill:#262626;fill-opacity:1;fill-rule:nonzero;stroke:none" transform="translate(27 136)"/><path d="M0 0a1 1 0 1 0-2 0 1 1 0 0 0 2 0" style="fill:#262626;fill-opacity:1;fill-rule:nonzero;stroke:none" transform="translate(39 136)"/><path d="M0 0a1 1 0 1 0-2 0 1 1 0 0 0 2 0" style="fill:#262626;fill-opacity:1;fill-rule:nonzero;stroke:none" transform="translate(33 130)"/><path d="M0 0a1 1 0 1 0-2 0 1 1 0 0 0 2 0" style="fill:#262626;fill-opacity:1;fill-rule:nonzero;stroke:none" transform="translate(37 132)"/><path d="M0 0a1 1 0 1 0-2 0 1 1 0 0 0 2 0" style="fill:#262626;fill-opacity:1;fill-rule:nonzero;stroke:none" transform="translate(29 132)"/><path d="M0 0a1 1 0 1 0-2 0 1 1 0 0 0 2 0" style="fill:#262626;fill-opacity:1;fill-rule:nonzero;stroke:none" transform="translate(37 140)"/><path d="M0 0a1 1 0 1 0-2 0 1 1 0 0 0 2 0" style="fill:#262626;fill-opacity:1;fill-rule:nonzero;stroke:none" transform="translate(29 140)"/><path d="M0 0a1 1 0 0 0-1 1v2a1 1 0 1 0 2 0V1a1 1 0 0 0-1-1" style="fill:#191919;fill-opacity:1;fill-rule:nonzero;stroke:none" transform="translate(27 100)"/><path d="M0 0a1 1 0 0 0-1 1v2a1 1 0 1 0 2 0V1a1 1 0 0 0-1-1" style="fill:#191919;fill-opacity:1;fill-rule:nonzero;stroke:none" transform="translate(31 100)"/><path d="M0 0a1 1 0 0 0-1 1v2a1 1 0 1 0 2 0V1a1 1 0 0 0-1-1" style="fill:#191919;fill-opacity:1;fill-rule:nonzero;stroke:none" transform="translate(35 100)"/><path d="M0 0a1 1 0 0 0-1 1v2a1 1 0 1 0 2 0V1a1 1 0 0 0-1-1" style="fill:#191919;fill-opacity:1;fill-rule:nonzero;stroke:none" transform="translate(217 100)"/><path d="M0 0a1 1 0 0 0-1 1v2a1 1 0 1 0 2 0V1a1 1 0 0 0-1-1" style="fill:#191919;fill-opacity:1;fill-rule:nonzero;stroke:none" transform="translate(221 100)"/><path d="M0 0a1 1 0 0 0-1 1v2a1 1 0 1 0 2 0V1a1 1 0 0 0-1-1" style="fill:#191919;fill-opacity:1;fill-rule:nonzero;stroke:none" transform="translate(225 100)"/><path d="M0 0c0-11.046-8.954-20-20-20s-20 8.954-20 20 8.954 20 20 20S0 11.046 0 0" style="fill:#333;fill-opacity:1;fill-rule:nonzero;stroke:none" transform="translate(240 136)"/><path d="m0 0 4.703 4.703a2.008 2.008 0 0 1-.334 3.106 15.99 15.99 0 0 1-17.223 0 2.007 2.007 0 0 1-.334-3.106L-8.485 0A6 6 0 0 1 0 0" style="fill:#a6a6a6;fill-opacity:1;fill-rule:nonzero;stroke:none" transform="translate(224.26 141.657)"/><path d="m0 0-4.702 4.703a2.01 2.01 0 0 1-3.107-.334 15.99 15.99 0 0 1 0-17.223 2.01 2.01 0 0 1 3.107-.334L0-8.485A6 6 0 0 1 0 0" style="fill:#a6a6a6;fill-opacity:1;fill-rule:nonzero;stroke:none" transform="translate(214.36 140.243)"/><path d="m0 0 4.703-4.703a2.01 2.01 0 0 1 3.107.334 15.99 15.99 0 0 1 0 17.223 2.01 2.01 0 0 1-3.107.334L0 8.485A6 6 0 0 1 0 0" style="fill:#a6a6a6;fill-opacity:1;fill-rule:nonzero;stroke:none" transform="translate(225.674 131.757)"/><path d="m0 0-4.702-4.703a2.007 2.007 0 0 1 .334-3.106 15.99 15.99 0 0 1 17.222 0 2.007 2.007 0 0 1 .334 3.106L8.485 0A6 6 0 0 1 0 0" style="fill:#a6a6a6;fill-opacity:1;fill-rule:nonzero;stroke:none" transform="translate(215.774 130.343)"/><path d="m0 0 3.502 3.502a11.95 11.95 0 0 1-7.745 2.841 11.95 11.95 0 0 1-7.744-2.841L-8.485 0A6 6 0 0 1 0 0" style="fill:#999;fill-opacity:1;fill-rule:nonzero;stroke:none" transform="translate(224.277 141.657)"/><path d="m0 0-3.502-3.502a6 6 0 0 1 0-8.485L0-15.489a11.94 11.94 0 0 1 2.841 7.744C2.841-4.791 1.77-2.091 0 0" style="fill:#999;fill-opacity:1;fill-rule:nonzero;stroke:none" transform="translate(229.193 143.745)"/><path d="m0 0 3.502 3.501a6 6 0 0 1 0 8.486L0 15.489a11.95 11.95 0 0 1-2.842-7.745C-2.842 4.791-1.77 2.09 0 0" style="fill:#999;fill-opacity:1;fill-rule:nonzero;stroke:none" transform="translate(210.876 128.256)"/><path d="m0 0-3.502 3.501a6 6 0 0 1-8.485 0L-15.489 0a11.94 11.94 0 0 1 7.744-2.842A11.94 11.94 0 0 1 0 0" style="fill:#999;fill-opacity:1;fill-rule:nonzero;stroke:none" transform="translate(227.78 126.842)"/></g></svg>