<svg xmlns="http://www.w3.org/2000/svg" xml:space="preserve" width="330.667" height="138.667" viewBox="0 0 330.667 138.667"><defs><clipPath id="a" clipPathUnits="userSpaceOnUse"><path d="M0 256h256V0H0Z"/></clipPath><clipPath id="b" clipPathUnits="userSpaceOnUse"><path d="M4 180h248V76H4Z"/></clipPath></defs><g clip-path="url(#a)" transform="matrix(1.33333 0 0 -1.33333 -5.333 240)"><g clip-path="url(#b)" style="opacity:.5"><path d="M0 0h-228c-5.514 0-10-4.486-10-10v-84c0-5.514 4.486-10 10-10H0c5.514 0 10 4.486 10 10v84C10-4.486 5.514 0 0 0" style="fill:#fff;fill-opacity:1;fill-rule:nonzero;stroke:none" transform="translate(242 180)"/></g><path d="M0 0h-228a2 2 0 0 0-2 2v84a2 2 0 0 0 2 2H0a2 2 0 0 0 2-2V2a2 2 0 0 0-2-2" style="fill:#262626;fill-opacity:1;fill-rule:nonzero;stroke:none" transform="translate(242 84)"/><path d="M244 88h-56v64h56z" style="fill:#262626;fill-opacity:1;fill-rule:nonzero;stroke:none"/><path d="M180 148H12v4h168zm8-8H12v4h176zm0-8H12v4h176zm0-8H12v4h176zm0-8H12v4h176zm0-8H12v4h176zm0-8H12v4h176zm0-8H12v4h176z" style="fill:#191919;fill-opacity:1;fill-rule:nonzero;stroke:none"/><path d="M48 124h-8v8h8zm4-12H40v8h12zm8 12h-8v8h8zm4-12h-8v8h8zm4-11.925h-8v8h8zm12 0h-8v8h8zm12 0h-8v8h8zm12 0h-8v8h8zm12 0h-8v8h8zm12 0h-8v8h8zm12 0h-8v8h8zm12 0h-8v8h8zm12 0h-8v8h8zM76 112h-8v8h8zm12 0h-8v8h8zm12 0h-8v8h8zm12 0h-8v8h8zm12 0h-8v8h8zm12 0h-8v8h8zm12 0h-8v8h8zm12 .075h-8v8h8zm12-12h-8v20h8zM72 124h-8v8h8zm12 0h-8v8h8zm12 0h-8v8h8zm12 0h-8v8h8zm12 0h-8v8h8zm12 0h-8v8h8zm12 0h-8v8h8zm12 0h-8v8h8zm16 0h-12v8h12zM56 100.075H40v8.075h16zM148 88h-8v8.075h8zm-12-.075h-8V96h8zm-88 0h-8V96h8zM60 88h-8v8.075h8zm12 .075h-8v8.075h8zm12 .075h-8v8.075h8zm76-.15h-8v8.075h8zm12 0h-8v8.075h8zm-48 0H88v8.075h36z" style="fill:#333;fill-opacity:1;fill-rule:nonzero;stroke:none"/><path d="M20 168h-4v4h4zm8 0h-4v4h4zm8 0h-4v4h4zm8 0h-4v4h4zm8 0h-4v4h4zm8 0h-4v4h4zm8 0h-4v4h4zm8 0h-4v4h4zm8 0h-4v4h4zm8 0h-4v4h4zm8 0h-4v4h4zm8 0h-4v4h4zm8 0h-4v4h4zm8 0h-4v4h4zm8 0h-4v4h4zm8 0h-4v4h4zm8 0h-4v4h4zm8 0h-4v4h4zm8 0h-4v4h4zm8 0h-4v4h4zm8 0h-4v4h4zm8 0h-4v4h4zm8 0h-4v4h4zm8 0h-4v4h4zm8 0h-4v4h4zm8 0h-4v4h4zm8 0h-4v4h4zm8 0h-4v4h4z" style="fill:#191919;fill-opacity:1;fill-rule:nonzero;stroke:none"/><path d="M0 0h-4v4h2a2 2 0 0 0 2-2Z" style="fill:#191919;fill-opacity:1;fill-rule:nonzero;stroke:none" transform="translate(244 168)"/><path d="M188 84h-4v56h4zm52 64h-48v4h48z" style="fill:#191919;fill-opacity:1;fill-rule:nonzero;stroke:none"/><path d="M188 148h-4v4h4z" style="fill:red;fill-opacity:1;fill-rule:nonzero;stroke:none"/><path d="M244 140h-56v4h56zm-52-8h-4v4h4zm52 0h-4v4h4zm-52-8h-4v4h4zm52 0h-4v4h4zm-52-8h-4v4h4zm52 0h-4v4h4zm-52-8h-4v4h4zm52 0h-4v4h4zm-52-8h-4v4h4zm52 0h-4v4h4zm-52-8h-4v4h4zm52 0h-4v4h4zm-4-4h-48v52h48z" style="fill:#333;fill-opacity:1;fill-rule:nonzero;stroke:none"/><path d="M240 104h-48v4h48z" style="fill:red;fill-opacity:1;fill-rule:nonzero;stroke:none"/><path d="M240 100h-48v4h48z" style="fill:#ff0;fill-opacity:1;fill-rule:nonzero;stroke:none"/><path d="M240 96h-48v4h48z" style="fill:#0f0;fill-opacity:1;fill-rule:nonzero;stroke:none"/><path d="M240 92h-48v4h48z" style="fill:#2c8bbf;fill-opacity:1;fill-rule:nonzero;stroke:none"/></g></svg>