<?xml version="1.0" encoding="UTF-8" standalone="no"?>
<svg
   xmlns:dc="http://purl.org/dc/elements/1.1/"
   xmlns:cc="http://creativecommons.org/ns#"
   xmlns:rdf="http://www.w3.org/1999/02/22-rdf-syntax-ns#"
   xmlns:svg="http://www.w3.org/2000/svg"
   xmlns="http://www.w3.org/2000/svg"
   viewBox="0 0 330.66665 138.66666"
   height="138.66666"
   width="330.66666"
   xml:space="preserve"
   id="svg2"
   version="1.1"><metadata
     id="metadata8"><rdf:RDF><cc:Work
         rdf:about=""><dc:format>image/svg+xml</dc:format><dc:type
           rdf:resource="http://purl.org/dc/dcmitype/StillImage" /></cc:Work></rdf:RDF></metadata><defs
     id="defs6"><clipPath
       id="clipPath18"
       clipPathUnits="userSpaceOnUse"><path
         id="path16"
         d="M 0,256 H 256 V 0 H 0 Z" /></clipPath><clipPath
       id="clipPath26"
       clipPathUnits="userSpaceOnUse"><path
         id="path24"
         d="M 4,180 H 252 V 76 H 4 Z" /></clipPath></defs><g
     transform="matrix(1.3333333,0,0,-1.3333333,-5.3333332,239.99999)"
     id="g10"><g
       id="g12"><g
         clip-path="url(#clipPath18)"
         id="g14"><g
           id="g20"><g
             id="g22" /><g
             id="g34"><g
               style="opacity:0.5"
               id="g32"
               clip-path="url(#clipPath26)"><g
                 id="g30"
                 transform="translate(242,180)"><path
                   id="path28"
                   style="fill:#ffffff;fill-opacity:1;fill-rule:nonzero;stroke:none"
                   d="m 0,0 h -228 c -5.514,0 -10,-4.486 -10,-10 v -84 c 0,-5.514 4.486,-10 10,-10 H 0 c 5.514,0 10,4.486 10,10 v 84 C 10,-4.486 5.514,0 0,0" /></g></g></g></g><g
           transform="translate(242,84)"
           id="g36"><path
             id="path38"
             style="fill:#262626;fill-opacity:1;fill-rule:nonzero;stroke:none"
             d="m 0,0 h -228 c -1.105,0 -2,0.895 -2,2 v 84 c 0,1.105 0.895,2 2,2 H 0 c 1.105,0 2,-0.895 2,-2 V 2 C 2,0.895 1.105,0 0,0" /></g><path
           id="path40"
           style="fill:#262626;fill-opacity:1;fill-rule:nonzero;stroke:none"
           d="m 244,88 h -56 v 64 h 56 z" /><path
           id="path42"
           style="fill:#191919;fill-opacity:1;fill-rule:nonzero;stroke:none"
           d="M 180,148 H 12 v 4 h 168 z" /><path
           id="path44"
           style="fill:#191919;fill-opacity:1;fill-rule:nonzero;stroke:none"
           d="M 188,140 H 12 v 4 h 176 z" /><path
           id="path46"
           style="fill:#191919;fill-opacity:1;fill-rule:nonzero;stroke:none"
           d="M 188,132 H 12 v 4 h 176 z" /><path
           id="path48"
           style="fill:#191919;fill-opacity:1;fill-rule:nonzero;stroke:none"
           d="M 188,124 H 12 v 4 h 176 z" /><path
           id="path50"
           style="fill:#191919;fill-opacity:1;fill-rule:nonzero;stroke:none"
           d="M 188,116 H 12 v 4 h 176 z" /><path
           id="path52"
           style="fill:#191919;fill-opacity:1;fill-rule:nonzero;stroke:none"
           d="M 188,108 H 12 v 4 h 176 z" /><path
           id="path54"
           style="fill:#191919;fill-opacity:1;fill-rule:nonzero;stroke:none"
           d="M 188,100 H 12 v 4 h 176 z" /><path
           id="path56"
           style="fill:#191919;fill-opacity:1;fill-rule:nonzero;stroke:none"
           d="M 188,92 H 12 v 4 h 176 z" /><path
           id="path58"
           style="fill:#333333;fill-opacity:1;fill-rule:nonzero;stroke:none"
           d="m 48,124 h -8 v 8 h 8 z" /><path
           id="path60"
           style="fill:#333333;fill-opacity:1;fill-rule:nonzero;stroke:none"
           d="M 52,112 H 40 v 8 h 12 z" /><path
           id="path62"
           style="fill:#333333;fill-opacity:1;fill-rule:nonzero;stroke:none"
           d="m 60,124 h -8 v 8 h 8 z" /><path
           id="path64"
           style="fill:#333333;fill-opacity:1;fill-rule:nonzero;stroke:none"
           d="m 64,112 h -8 v 8 h 8 z" /><path
           id="path66"
           style="fill:#333333;fill-opacity:1;fill-rule:nonzero;stroke:none"
           d="m 68,100.075 h -8 v 8 h 8 z" /><path
           id="path68"
           style="fill:#333333;fill-opacity:1;fill-rule:nonzero;stroke:none"
           d="m 80,100.075 h -8 v 8 h 8 z" /><path
           id="path70"
           style="fill:#333333;fill-opacity:1;fill-rule:nonzero;stroke:none"
           d="m 92,100.075 h -8 v 8 h 8 z" /><path
           id="path72"
           style="fill:#333333;fill-opacity:1;fill-rule:nonzero;stroke:none"
           d="m 104,100.075 h -8 v 8 h 8 z" /><path
           id="path74"
           style="fill:#333333;fill-opacity:1;fill-rule:nonzero;stroke:none"
           d="m 116,100.075 h -8 v 8 h 8 z" /><path
           id="path76"
           style="fill:#333333;fill-opacity:1;fill-rule:nonzero;stroke:none"
           d="m 128,100.075 h -8 v 8 h 8 z" /><path
           id="path78"
           style="fill:#333333;fill-opacity:1;fill-rule:nonzero;stroke:none"
           d="m 140,100.075 h -8 v 8 h 8 z" /><path
           id="path80"
           style="fill:#333333;fill-opacity:1;fill-rule:nonzero;stroke:none"
           d="m 152,100.075 h -8 v 8 h 8 z" /><path
           id="path82"
           style="fill:#333333;fill-opacity:1;fill-rule:nonzero;stroke:none"
           d="m 164,100.075 h -8 v 8 h 8 z" /><path
           id="path84"
           style="fill:#333333;fill-opacity:1;fill-rule:nonzero;stroke:none"
           d="m 76,112 h -8 v 8 h 8 z" /><path
           id="path86"
           style="fill:#333333;fill-opacity:1;fill-rule:nonzero;stroke:none"
           d="m 88,112 h -8 v 8 h 8 z" /><path
           id="path88"
           style="fill:#333333;fill-opacity:1;fill-rule:nonzero;stroke:none"
           d="m 100,112 h -8 v 8 h 8 z" /><path
           id="path90"
           style="fill:#333333;fill-opacity:1;fill-rule:nonzero;stroke:none"
           d="m 112,112 h -8 v 8 h 8 z" /><path
           id="path92"
           style="fill:#333333;fill-opacity:1;fill-rule:nonzero;stroke:none"
           d="m 124,112 h -8 v 8 h 8 z" /><path
           id="path94"
           style="fill:#333333;fill-opacity:1;fill-rule:nonzero;stroke:none"
           d="m 136,112 h -8 v 8 h 8 z" /><path
           id="path96"
           style="fill:#333333;fill-opacity:1;fill-rule:nonzero;stroke:none"
           d="m 148,112 h -8 v 8 h 8 z" /><path
           id="path98"
           style="fill:#333333;fill-opacity:1;fill-rule:nonzero;stroke:none"
           d="m 160,112.075 h -8 v 8 h 8 z" /><path
           id="path100"
           style="fill:#333333;fill-opacity:1;fill-rule:nonzero;stroke:none"
           d="m 172,100.075 h -8 v 20 h 8 z" /><path
           id="path102"
           style="fill:#333333;fill-opacity:1;fill-rule:nonzero;stroke:none"
           d="m 72,124 h -8 v 8 h 8 z" /><path
           id="path104"
           style="fill:#333333;fill-opacity:1;fill-rule:nonzero;stroke:none"
           d="m 84,124 h -8 v 8 h 8 z" /><path
           id="path106"
           style="fill:#333333;fill-opacity:1;fill-rule:nonzero;stroke:none"
           d="m 96,124 h -8 v 8 h 8 z" /><path
           id="path108"
           style="fill:#333333;fill-opacity:1;fill-rule:nonzero;stroke:none"
           d="m 108,124 h -8 v 8 h 8 z" /><path
           id="path110"
           style="fill:#333333;fill-opacity:1;fill-rule:nonzero;stroke:none"
           d="m 120,124 h -8 v 8 h 8 z" /><path
           id="path112"
           style="fill:#333333;fill-opacity:1;fill-rule:nonzero;stroke:none"
           d="m 132,124 h -8 v 8 h 8 z" /><path
           id="path114"
           style="fill:#333333;fill-opacity:1;fill-rule:nonzero;stroke:none"
           d="m 144,124 h -8 v 8 h 8 z" /><path
           id="path116"
           style="fill:#333333;fill-opacity:1;fill-rule:nonzero;stroke:none"
           d="m 156,124 h -8 v 8 h 8 z" /><path
           id="path118"
           style="fill:#333333;fill-opacity:1;fill-rule:nonzero;stroke:none"
           d="m 172,124 h -12 v 8 h 12 z" /><path
           id="path120"
           style="fill:#333333;fill-opacity:1;fill-rule:nonzero;stroke:none"
           d="M 56,100.075 H 40 v 8.075 h 16 z" /><path
           id="path122"
           style="fill:#333333;fill-opacity:1;fill-rule:nonzero;stroke:none"
           d="m 148,88 h -8 v 8.075 h 8 z" /><path
           id="path124"
           style="fill:#333333;fill-opacity:1;fill-rule:nonzero;stroke:none"
           d="m 136,87.925 h -8 V 96 h 8 z" /><path
           id="path126"
           style="fill:#333333;fill-opacity:1;fill-rule:nonzero;stroke:none"
           d="M 48,87.925 H 40 V 96 h 8 z" /><path
           id="path128"
           style="fill:#333333;fill-opacity:1;fill-rule:nonzero;stroke:none"
           d="m 60,88 h -8 v 8.075 h 8 z" /><path
           id="path130"
           style="fill:#333333;fill-opacity:1;fill-rule:nonzero;stroke:none"
           d="m 72,88.075 h -8 v 8.075 h 8 z" /><path
           id="path132"
           style="fill:#333333;fill-opacity:1;fill-rule:nonzero;stroke:none"
           d="m 84,88.15 h -8 v 8.075 h 8 z" /><path
           id="path134"
           style="fill:#333333;fill-opacity:1;fill-rule:nonzero;stroke:none"
           d="m 160,88 h -8 v 8.075 h 8 z" /><path
           id="path136"
           style="fill:#333333;fill-opacity:1;fill-rule:nonzero;stroke:none"
           d="m 172,88 h -8 v 8.075 h 8 z" /><path
           id="path138"
           style="fill:#333333;fill-opacity:1;fill-rule:nonzero;stroke:none"
           d="M 124,88 H 88 v 8.075 h 36 z" /><path
           id="path140"
           style="fill:#191919;fill-opacity:1;fill-rule:nonzero;stroke:none"
           d="m 20,168 h -4 v 4 h 4 z" /><path
           id="path142"
           style="fill:#191919;fill-opacity:1;fill-rule:nonzero;stroke:none"
           d="m 28,168 h -4 v 4 h 4 z" /><path
           id="path144"
           style="fill:#191919;fill-opacity:1;fill-rule:nonzero;stroke:none"
           d="m 36,168 h -4 v 4 h 4 z" /><path
           id="path146"
           style="fill:#191919;fill-opacity:1;fill-rule:nonzero;stroke:none"
           d="m 44,168 h -4 v 4 h 4 z" /><path
           id="path148"
           style="fill:#191919;fill-opacity:1;fill-rule:nonzero;stroke:none"
           d="m 52,168 h -4 v 4 h 4 z" /><path
           id="path150"
           style="fill:#191919;fill-opacity:1;fill-rule:nonzero;stroke:none"
           d="m 60,168 h -4 v 4 h 4 z" /><path
           id="path152"
           style="fill:#191919;fill-opacity:1;fill-rule:nonzero;stroke:none"
           d="m 68,168 h -4 v 4 h 4 z" /><path
           id="path154"
           style="fill:#191919;fill-opacity:1;fill-rule:nonzero;stroke:none"
           d="m 76,168 h -4 v 4 h 4 z" /><path
           id="path156"
           style="fill:#191919;fill-opacity:1;fill-rule:nonzero;stroke:none"
           d="m 84,168 h -4 v 4 h 4 z" /><path
           id="path158"
           style="fill:#191919;fill-opacity:1;fill-rule:nonzero;stroke:none"
           d="m 92,168 h -4 v 4 h 4 z" /><path
           id="path160"
           style="fill:#191919;fill-opacity:1;fill-rule:nonzero;stroke:none"
           d="m 100,168 h -4 v 4 h 4 z" /><path
           id="path162"
           style="fill:#191919;fill-opacity:1;fill-rule:nonzero;stroke:none"
           d="m 108,168 h -4 v 4 h 4 z" /><path
           id="path164"
           style="fill:#191919;fill-opacity:1;fill-rule:nonzero;stroke:none"
           d="m 116,168 h -4 v 4 h 4 z" /><path
           id="path166"
           style="fill:#191919;fill-opacity:1;fill-rule:nonzero;stroke:none"
           d="m 124,168 h -4 v 4 h 4 z" /><path
           id="path168"
           style="fill:#191919;fill-opacity:1;fill-rule:nonzero;stroke:none"
           d="m 132,168 h -4 v 4 h 4 z" /><path
           id="path170"
           style="fill:#191919;fill-opacity:1;fill-rule:nonzero;stroke:none"
           d="m 140,168 h -4 v 4 h 4 z" /><path
           id="path172"
           style="fill:#191919;fill-opacity:1;fill-rule:nonzero;stroke:none"
           d="m 148,168 h -4 v 4 h 4 z" /><path
           id="path174"
           style="fill:#191919;fill-opacity:1;fill-rule:nonzero;stroke:none"
           d="m 156,168 h -4 v 4 h 4 z" /><path
           id="path176"
           style="fill:#191919;fill-opacity:1;fill-rule:nonzero;stroke:none"
           d="m 164,168 h -4 v 4 h 4 z" /><path
           id="path178"
           style="fill:#191919;fill-opacity:1;fill-rule:nonzero;stroke:none"
           d="m 172,168 h -4 v 4 h 4 z" /><path
           id="path180"
           style="fill:#191919;fill-opacity:1;fill-rule:nonzero;stroke:none"
           d="m 180,168 h -4 v 4 h 4 z" /><path
           id="path182"
           style="fill:#191919;fill-opacity:1;fill-rule:nonzero;stroke:none"
           d="m 188,168 h -4 v 4 h 4 z" /><path
           id="path184"
           style="fill:#191919;fill-opacity:1;fill-rule:nonzero;stroke:none"
           d="m 196,168 h -4 v 4 h 4 z" /><path
           id="path186"
           style="fill:#191919;fill-opacity:1;fill-rule:nonzero;stroke:none"
           d="m 204,168 h -4 v 4 h 4 z" /><path
           id="path188"
           style="fill:#191919;fill-opacity:1;fill-rule:nonzero;stroke:none"
           d="m 212,168 h -4 v 4 h 4 z" /><path
           id="path190"
           style="fill:#191919;fill-opacity:1;fill-rule:nonzero;stroke:none"
           d="m 220,168 h -4 v 4 h 4 z" /><path
           id="path192"
           style="fill:#191919;fill-opacity:1;fill-rule:nonzero;stroke:none"
           d="m 228,168 h -4 v 4 h 4 z" /><path
           id="path194"
           style="fill:#191919;fill-opacity:1;fill-rule:nonzero;stroke:none"
           d="m 236,168 h -4 v 4 h 4 z" /><g
           transform="translate(244,168)"
           id="g196"><path
             id="path198"
             style="fill:#191919;fill-opacity:1;fill-rule:nonzero;stroke:none"
             d="m 0,0 h -4 v 4 h 2 C -0.895,4 0,3.105 0,2 Z" /></g><path
           id="path200"
           style="fill:#191919;fill-opacity:1;fill-rule:nonzero;stroke:none"
           d="m 188,84 h -4 v 56 h 4 z" /><path
           id="path202"
           style="fill:#191919;fill-opacity:1;fill-rule:nonzero;stroke:none"
           d="m 240,148 h -48 v 4 h 48 z" /><path
           id="path204"
           style="fill:#ff0000;fill-opacity:1;fill-rule:nonzero;stroke:none"
           d="m 188,148 h -4 v 4 h 4 z" /><path
           id="path206"
           style="fill:#333333;fill-opacity:1;fill-rule:nonzero;stroke:none"
           d="m 244,140 h -56 v 4 h 56 z" /><path
           id="path208"
           style="fill:#333333;fill-opacity:1;fill-rule:nonzero;stroke:none"
           d="m 192,132 h -4 v 4 h 4 z" /><path
           id="path210"
           style="fill:#333333;fill-opacity:1;fill-rule:nonzero;stroke:none"
           d="m 244,132 h -4 v 4 h 4 z" /><path
           id="path212"
           style="fill:#333333;fill-opacity:1;fill-rule:nonzero;stroke:none"
           d="m 192,124 h -4 v 4 h 4 z" /><path
           id="path214"
           style="fill:#333333;fill-opacity:1;fill-rule:nonzero;stroke:none"
           d="m 244,124 h -4 v 4 h 4 z" /><path
           id="path216"
           style="fill:#333333;fill-opacity:1;fill-rule:nonzero;stroke:none"
           d="m 192,116 h -4 v 4 h 4 z" /><path
           id="path218"
           style="fill:#333333;fill-opacity:1;fill-rule:nonzero;stroke:none"
           d="m 244,116 h -4 v 4 h 4 z" /><path
           id="path220"
           style="fill:#333333;fill-opacity:1;fill-rule:nonzero;stroke:none"
           d="m 192,108 h -4 v 4 h 4 z" /><path
           id="path222"
           style="fill:#333333;fill-opacity:1;fill-rule:nonzero;stroke:none"
           d="m 244,108 h -4 v 4 h 4 z" /><path
           id="path224"
           style="fill:#333333;fill-opacity:1;fill-rule:nonzero;stroke:none"
           d="m 192,100 h -4 v 4 h 4 z" /><path
           id="path226"
           style="fill:#333333;fill-opacity:1;fill-rule:nonzero;stroke:none"
           d="m 244,100 h -4 v 4 h 4 z" /><path
           id="path228"
           style="fill:#333333;fill-opacity:1;fill-rule:nonzero;stroke:none"
           d="m 192,92 h -4 v 4 h 4 z" /><path
           id="path230"
           style="fill:#333333;fill-opacity:1;fill-rule:nonzero;stroke:none"
           d="m 244,92 h -4 v 4 h 4 z" /><path
           id="path232"
           style="fill:#333333;fill-opacity:1;fill-rule:nonzero;stroke:none"
           d="m 240,88 h -48 v 52 h 48 z" /><path
           id="path234"
           style="fill:#ff0000;fill-opacity:1;fill-rule:nonzero;stroke:none"
           d="m 240,104 h -48 v 4 h 48 z" /><path
           id="path236"
           style="fill:#ffff00;fill-opacity:1;fill-rule:nonzero;stroke:none"
           d="m 240,100 h -48 v 4 h 48 z" /><path
           id="path238"
           style="fill:#00ff00;fill-opacity:1;fill-rule:nonzero;stroke:none"
           d="m 240,96 h -48 v 4 h 48 z" /><path
           id="path240"
           style="fill:#2c8bbf;fill-opacity:1;fill-rule:nonzero;stroke:none"
           d="m 240,92 h -48 v 4 h 48 z" /></g></g></g></svg>