<svg xmlns="http://www.w3.org/2000/svg" xml:space="preserve" width="330.667" height="213.333" viewBox="0 0 330.667 213.333"><defs><clipPath id="a" clipPathUnits="userSpaceOnUse"><path d="M0 256h256V0H0Z"/></clipPath><clipPath id="b" clipPathUnits="userSpaceOnUse"><path d="M4 208h248V48H4Z"/></clipPath><clipPath id="c" clipPathUnits="userSpaceOnUse"><path d="M0 256h256V0H0Z"/></clipPath></defs><g clip-path="url(#a)" transform="matrix(1.33333 0 0 -1.33333 -5.333 277.333)"><g clip-path="url(#b)" style="opacity:.5"><path d="M0 0h-232a8 8 0 0 1-8-8v-144a8 8 0 0 1 8-8H0a8 8 0 0 1 8 8V-8a8 8 0 0 1-8 8" style="fill:#fcfcfc;fill-opacity:1;fill-rule:nonzero;stroke:none" transform="translate(244 208)"/></g></g><path d="M244 56H12v144h232z" style="fill:#262626;fill-opacity:1;fill-rule:nonzero;stroke:none" transform="matrix(1.33333 0 0 -1.33333 -5.333 277.333)"/><g clip-path="url(#c)" transform="matrix(1.33333 0 0 -1.33333 -5.333 277.333)"><path d="M0 0h-232v91a5 5 0 0 0 5 5H-5a5 5 0 0 0 5-5z" style="fill:#191919;fill-opacity:1;fill-rule:nonzero;stroke:none" transform="translate(244 56)"/><path d="M36 132H20v12h16zm20 0H40v12h16zm20 0H60v12h16zm20 0H80v12h16zm20 0h-16v12h16zm20 0h-16v12h16zm20 0h-16v12h16zm20 0h-16v12h16zm20 0h-16v12h16zm20 0h-16v12h16zM48 112H32v12h16zm20 0H52v12h16zm20 0H72v12h16zm20 0H92v12h16zm20 0h-16v12h16zm20 0h-16v12h16zm20 0h-16v12h16zm20 0h-16v12h16zm20 0h-16v12h16zm20 0h-16v12h16zM40.24 72h-16v12h16zM60 72H44v12h16zm19.76 0h-16v12h16zm19.76 0h-16v12h16zm19.76 0h-16v12h16zm19.761 0h-16v12h16zm19.76 0h-16v12h16zm19.76 0h-16v12h16zm19.76 0h-16v12h16z" style="fill:#4c4c4c;fill-opacity:1;fill-rule:nonzero;stroke:none"/><path d="m0 0-32-72h4L0-8h4v8z" style="fill:red;fill-opacity:1;fill-rule:nonzero;stroke:none" transform="translate(240 128)"/><path d="m0 0-28-64h4L0-8h4v8z" style="fill:#ff0;fill-opacity:1;fill-rule:nonzero;stroke:none" transform="translate(240 120)"/><path d="m0 0-24-56h4L0-8h4v8z" style="fill:#0f0;fill-opacity:1;fill-rule:nonzero;stroke:none" transform="translate(240 112)"/><path d="m0 0-20-48h4L0-8h4v8z" style="fill:#2c8bbf;fill-opacity:1;fill-rule:nonzero;stroke:none" transform="translate(240 104)"/><path d="M52 92H36v12h16zm20 0H56v12h16zm20 0H76v12h16zm20 0H96v12h16zm20 0h-16v12h16zm20 0h-16v12h16zm20 0h-16v12h16zm20 0h-16v12h16zm20 0h-16v12h16zm20 0h-16v12h16zm0-20h-29.919v12H232Z" style="fill:#4c4c4c;fill-opacity:1;fill-rule:nonzero;stroke:none"/></g></svg>