<svg xmlns="http://www.w3.org/2000/svg" xml:space="preserve" style="fill-rule:evenodd;clip-rule:evenodd;stroke-linejoin:round;stroke-miterlimit:2" viewBox="0 0 560 320"><path d="M.95.03h559.24v320H.95z" style="fill:#ffbf00"/><g transform="translate(30 125)scale(.83333)"><clipPath id="a"><path d="M0 0h600v84H0z"/></clipPath><g clip-path="url(#a)"><path d="M478.514 83.373c-1.522-1.606-5.615-1.751-6.252-1.751-28.673 0-57.343-.001-86.019.001-2.914 0-3.439.358-3.082-3.337.584-6.045 2.806-11.662 7.196-16.001.841-.855 1.122-1.144 3.043-2.886 8.141-7.377 24.359-13.292 24.359-13.292s13.574-5.011 21.195-8.009c3.423-1.346 6.766-2.902 9.814-5.012 11.056-8.714 5.315-17.364-9.261-19.377-10.208-1.461-19.51 1.032-28.107 6.515-1.122.715-2.07 1.43-3.154 2.209-1.923 1.625-3.573 3.52-3.929 5.615-.192 1.131-.009 1.91.014 2.095.073.586.253 1.515-.183 1.942-.524.511-1.612-.002-2.094-.459-4.431-4.187-8.869-8.365-13.303-12.547-.278-.262-.79-.823-.79-.823s-.485-.561-.502-.946c-.019-.434.407-.841.916-1 2.416-.445 3.531-.588 4.981-1.648 3.903-2.853 7.982-5.403 12.338-7.527 5.824-2.841 11.948-4.529 18.361-5.393 4.932-.665 19.417-2.921 36.338 4.603 4.463 1.957 8.29 4.729 11.175 8.639 1.707 2.314 8.145 15.001-4.971 25.135-4.687 3.762-10.281 6.085-15.938 8.059-4.84 1.692-8.393 2.96-16.312 5.248-6.013 1.79-10.329 3.189-17.21 6.454-5.473 2.596-9.066 5.752-9.066 5.752s-1.792 1.382-1.445 2.463c.3.939 1.796.844 2.676.847 21.171.013 42.343.009 63.514.011 2.191 0 4.314-.155 5.987-1.874.243-.251.887-.387 1.178-.24.279.14.474.715.476 1.1.033 4.958.035 10.027.006 14.985-.004.482-.161.655-.402.794-.362.207-1.129.096-1.547-.345m-157.728-.624c-3.474-.211-6.956-.659-10.387-1.265-13.963-2.461-20.457-5.76-24.354-7.289-1.863-.731-3.683-1.422-5.707-.681-.231.085-.502.08-.755.085-1.286.015-1.68-.486-1.121-1.634.666-1.368 1.446-2.682 2.233-3.99 2.132-3.536 4.293-7.055 6.443-10.582.099-.161.212-.317.31-.482.438-.734.919-1.414 1.924-1.274.945.133 1.149.912 1.346 1.651.433 1.607 1.414 2.804 2.704 3.801 3.054 2.364 6.503 3.954 10.121 5.216 4.692 1.637 9.522 2.662 14.428 3.432 5.808.912 11.647 1.027 17.479.689 4.943-.288 9.813-1.179 14.473-3 2.837-1.109 4.989-3.066 6.711-5.456 2.286-3.172 1.35-7.533-1.765-10.013-4.231-3.367-9.151-4.698-14.363-5.594-4.686-.803-9.366-.717-14.057-.658-2.202.029-7.466.239-9.484 2.112-.743.654-1.332.703-1.686.384-.353-.321-.369-.827-.373-1.269q-.06-6.87-.014-13.735c.01-1.501.71-1.954 1.872-1.14 1.467 1.028 3.096 1.478 4.797 1.696 2.825.363 12.046.042 13.93-.204 5.036-.658 4.597-.578 7.536-1.366 3.146-.843 6.148-3.05 7.714-4.875q.04-.044.076-.09c2.185-2.631 1.451-5.659-.581-7.828-1.951-2.08-4.404-3.413-7.135-4.219-4.475-1.32-9.059-2.041-13.711-1.823-8.42.396-16.679 1.681-24.293 5.599-1.743.897-3.377 2.025-4.987 3.155-1.375.965-2.067 2.377-2.106 4.077-.02.884.121 1.896-.929 2.283-1.059.389-1.607-.533-2.211-1.145-3.878-3.941-7.74-7.896-11.606-11.849-.222-.226-.47-.443-.634-.708-.467-.757-.18-1.383.715-1.487 1.002-.116 2.075.042 3.006-.261 1.375-.447 2.661-1.18 3.969-1.822 3.477-1.706 6.864-3.626 10.437-5.097 5.659-2.328 11.614-3.579 17.697-4.334 5.822-.722 16.095-1.022 23.526.075 4.967.751 9.891 1.749 14.502 3.803 4.067 1.813 8.038 3.837 11.075 7.258 2.195 2.472 3.668 5.234 4.163 8.584.474 3.213-.055 6.145-1.428 9.026-.945 1.984-2.359 3.268-4.304 4.436-3.816 2.287-6.075 2.86-6.558 3.155-.768.466-.801 1.088-.018 1.537.704.404 1.513.641 2.297.885 4.593 1.434 8.537 3.954 11.825 7.407 2.402 2.521 3.824 5.541 4.302 9.113.489 3.659-.369 6.891-1.95 10.07-1.23 2.475-3.269 4.217-5.415 5.793-4.338 3.194-9.171 5.356-14.351 6.889-3.856 1.139-7.763 1.914-11.721 2.437-13.53 1.482-20.441.716-23.607.522M507.155 1.786l13.544.001c.444 0 .894-.034 1.333.019 1.006.12 1.161.545.53 1.368-1.128 1.469-1.119 1.627.166 2.986q.065.068.134.135c6.297 6.373 12.6 12.746 18.901 19.118.313.318.604.659.968.917.632.455 1.309.463 1.932-.038.346-.278.652-.604.965-.922q9.332-9.41 18.662-18.824c.225-.226.459-.444.658-.691.829-1.031.81-1.396.036-2.501-.697-.941-.697-1.514.724-1.549.31-.009.632-.018.951-.018 9.156 0 18.312-.002 27.468.003.569 0 1.152-.006 1.7.114.235.051.519.404.559.654.038.247-.134.68-.339.782-.618.311-1.281.576-1.957.724-2.563.56-4.651 1.826-6.503 3.714-7.971 8.121-16.024 16.16-24.033 24.245a445 445 0 0 0-5.953 6.174c-1.245 1.309-1.248 1.927.014 3.218 2.219 2.263 4.498 4.467 6.706 6.739 1.636 1.683 3.156 3.481 4.805 5.149 4.381 4.431 8.817 8.807 13.204 13.231a731 731 0 0 1 8.784 9.006c1.671 1.746 3.618 2.962 5.966 3.563.856.217 1.693.544 2.501.901.22.099.449.515.416.747-.035.238-.348.547-.6.627-.413.13-.876.132-1.316.132q-14.02.008-28.04.001c-.379 0-.775.008-1.134-.095-.595-.17-.82-.527-.451-1.144.309-.519.798-1.109.742-1.617-.062-.539-.616-1.069-1.05-1.509-7.25-7.4-14.514-14.786-21.775-22.174a36 36 0 0 0-.81-.808c-1.604-1.551-2.192-1.57-3.8.029-4.642 4.616-9.292 9.233-13.892 13.896-2.988 3.029-5.9 6.132-8.839 9.211-1.108 1.159-1.108 1.232-.266 2.769.48.879.298 1.265-.704 1.408-.434.064-.886.039-1.333.039-9.028.002-18.055.013-27.084-.014-.812-.003-2.17.217-2.24-.771-.142-1.032 1.105-1.084 1.838-1.257 3.289-.769 5.797-2.644 8.122-5.03 7.411-7.601 14.946-15.079 22.406-22.634 2.315-2.345 4.53-4.793 6.818-7.168.882-.911 1.861-1.728 2.763-2.623 1.884-1.869 1.894-2.369.079-4.197-5.498-5.562-11.007-11.108-16.501-16.673-4.466-4.521-8.948-9.027-13.357-13.603-1.698-1.762-3.691-2.857-6.038-3.406-.432-.101-.857-.235-1.281-.366-.604-.187-1.35-.329-1.267-1.151.084-.837.82-.837 1.473-.836l1.145-.001zM.005 83.818l35.201-.028c14.396 0 26.066-11.668 26.066-26.066 0-14.394-11.669-26.064-26.066-26.064l-9.141.044a1.32 1.32 0 0 1-1.318-1.318c0-.733.59-1.322 1.318-1.322l35.115.004.021-11.036H26.058c-6.811 0-12.33 5.522-12.33 12.33 0 6.81 5.519 12.329 12.33 12.329l9.185.103c8.243 0 14.925 6.68 14.925 14.922 0 8.246-6.681 14.926-14.925 14.926H.018z" style="fill:#fff;fill-rule:nonzero"/><path d="M.018 70.045h35.225c6.811 0 12.329-5.518 12.329-12.33 0-6.806-5.519-12.327-12.329-12.327l-9.185-.1c-8.244 0-14.925-6.68-14.925-14.927 0-8.242 6.682-14.923 14.925-14.923l35.143-.015-.021-11.095-35.115-.011C11.67 4.317 0 15.988 0 30.386 0 44.78 11.669 56.448 26.065 56.448l9.086.007c.705 0 1.274.571 1.274 1.277 0 .703-.569 1.276-1.274 1.276l-35.146.013zm88.534 2.667c-6.098 0-11.1-4.885-11.1-11.097V26.332c0-5.982 5.003-10.93 11.1-10.93l37.572.011-.003-11.082-37.569-.007c-12.219 0-22.121 9.906-22.121 22.121v35.17c0 12.215 9.903 22.119 22.121 22.119l37.416.016-.014-11.053z" style="fill:#fff;fill-rule:nonzero"/><path d="M80.145 26.444c0-4.659 3.746-8.435 8.407-8.435h37.572l-.003 11.063H93.752c-2.593.001-2.624 2.608-2.624 2.608h26.991l.008 11.028H80.125zm8.407 43.586a8.417 8.417 0 0 1-8.417-8.415l-.008-16.273h38.003l-.009 11.061H91.126c.031 2.603 2.625 2.606 2.625 2.606h32.217l-.014 11.007zm63.896 2.654c-6.1 0-11.07-4.973-11.07-11.069v-35.17c0-6.095 4.942-11.041 11.04-11.041l36.375-.007.005-11.07-36.466-.002c-12.218 0-22.12 9.905-22.12 22.12v35.172c0 12.215 9.991 22.118 22.207 22.118l36.379.016-.002-52.081H157.53v11.039h20.213v29.979z" style="fill:#fff;fill-rule:nonzero"/><path d="M143.982 61.615c0 4.656 3.776 8.492 8.435 8.492l22.719.002V45.317h-17.579v11.075h6.524l.027 2.607-6.491-.009a2.597 2.597 0 0 1-2.596-2.598l-.041-24.739s-.007-2.579 2.608-2.633h31.237l-.031-11.041-36.376.028a8.435 8.435 0 0 0-8.434 8.435v35.173m78.995-43.791a3.61 3.61 0 0 1 3.4-2.419 3.6 3.6 0 0 1 3.405 2.427l17.644 52.332H221.59l.027-12.306h8.644L226.36 46.27l-12.662 37.468h-13.052z" style="fill:#fff;fill-rule:nonzero"/><path d="M250.997 72.687h-29.368v11.054h44.714l-23.26-69.024c-2.037-6.73-8.745-11.67-16.71-11.67-7.957 0-14.662 4.937-16.705 11.657l-23.473 69.034h11.706l22.772-67.11a6.16 6.16 0 0 1 5.681-3.784 6.15 6.15 0 0 1 5.675 3.764z" style="fill:#fff;fill-rule:nonzero"/></g></g></svg>