<svg xmlns="http://www.w3.org/2000/svg" xml:space="preserve" style="fill-rule:evenodd;clip-rule:evenodd;stroke-linejoin:round;stroke-miterlimit:2" viewBox="0 0 560 320"><path d="M.95.03h559.24v320H.95z" style="fill:#6f63b4"/><path d="M151.607 83.115v.511q32.888.643 48.564 13.768 15.678 13.125 15.679 31.724c0 13.849-5.94 25.283-17.845 34.275-11.88 9.018-27.712 13.527-47.444 13.527-17.054 0-30.234-3.598-39.565-10.763-9.329-7.166-13.994-15.325-13.994-24.506 0-6.091 2.09-11.03 6.272-14.762 4.18-3.729 9.202-5.58 15.04-5.58 5.48 0 10.197 1.636 14.098 4.883 3.924 3.276 5.862 7.596 5.862 12.938 0 7.139-4.538 13.124-13.639 17.955-1.783.94-2.702 2.012-2.702 3.195 0 2.199 2.549 4.133 7.675 5.797 5.098 1.664 10.298 2.469 15.651 2.469 17.514 0 26.283-13.554 26.283-40.66 0-26.84-10.527-40.26-31.559-40.26l-17.464.749c-3.517 0-5.302-1.368-5.302-4.103 0-3.143 1.86-4.728 5.559-4.728l12.72.511c12.975 0 21.669-3.032 26.079-9.125 4.436-6.066 6.627-14.709 6.627-25.928 0-11.541-1.657-20.048-4.996-25.469-3.34-5.45-9.076-8.16-17.182-8.16-4.41 0-8.565.78-12.44 2.36-3.875 1.559-5.837 3.088-5.837 4.619q0 2.132 3.824 4.429c6.677 4.481 10.043 9.338 10.043 14.573 0 5.153-1.86 9.233-5.608 12.293-3.748 3.033-7.955 4.562-12.646 4.562-5.403 0-10.222-1.745-14.453-5.207-4.233-3.489-6.374-7.783-6.374-12.962 0-8.803 4.717-16.428 14.149-22.842 9.432-6.443 21.515-9.662 36.303-9.662 16.34 0 30.107 3.65 41.323 10.923 11.242 7.274 16.849 16.587 16.849 27.994 0 22.437-19.858 35.992-59.55 40.662m104.622 82.316V11.103h-22.993V2.759h92.129c26.641 0 47.747 7.944 63.275 23.859 15.524 15.889 23.299 35.965 23.299 60.201 0 12.561-2.37 24.398-7.112 35.428-4.742 11.058-12.033 21.124-21.873 30.168q-14.762 13.568-30.285 17.473c-10.35 2.603-23.046 3.891-38.137 3.891h-81.296v-8.348zm44.333-154.328v154.328h14.351c21.95 0 35.207-6.064 39.769-18.169 4.564-12.132 6.834-32.85 6.834-62.187 0-22.946-1.405-39.454-4.207-49.466-2.778-10.036-7.037-16.641-12.722-19.778-5.684-3.144-12.924-4.728-21.669-4.728zm137.1 76.523c0-25.581 8.003-46.514 24.065-62.807C477.761 8.556 497.009.423 519.441.423q31.243 0 55.906 22.947C591.793 38.668 600 60.434 600 88.644c0 26.438-7.75 47.639-23.3 63.584q-23.326 23.915-56.976 23.915c-24.245 0-44-8.483-59.219-25.392-15.222-16.909-22.843-37.951-22.843-63.125m111.913.723q0-39.294-1.529-51.772c-1.045-8.35-3.698-15.06-7.979-20.16-4.284-5.097-11.345-7.648-21.159-7.648-8.286 0-14.887 2.065-19.809 6.173-4.919 4.133-7.978 10.736-9.203 19.836-1.198 9.097-1.809 26.865-1.809 53.303 0 26.168.507 43.506 1.554 51.96 1.019 8.455 3.775 15.193 8.235 20.211 4.462 5.018 11.472 7.515 21.032 7.515 7.926 0 14.403-2.012 19.397-6.038 4.999-4.054 8.136-10.602 9.384-19.7 1.274-9.1 1.886-27.001 1.886-53.68M0 182.261c0-2.907 13.429-5.264 30.001-5.264 16.571 0 30.001 2.357 30.001 5.264s-13.429 5.264-30.001 5.264S0 185.169 0 182.261m4.499-49.627c0-14.123 11.414-25.566 25.502-25.566s25.5 11.443 25.5 25.566-11.414 25.566-25.5 25.566c-14.088 0-25.502-11.444-25.502-25.566M6.25 65.965c-2.502 1.668-3.78 8.686-4.354 13.179a30.5 30.5 0 0 0 0 7.725c.574 4.493 1.852 11.511 4.354 13.18 2.499 1.671 12.222 2.897 18.426 3.528 3.541.36 7.109.36 10.649 0 6.205-.631 15.928-1.857 18.426-3.528 2.502-1.669 3.781-8.687 4.355-13.18.327-2.565.328-5.16 0-7.725-.574-4.493-1.853-11.511-4.355-13.179-2.498-1.673-12.221-2.899-18.426-3.53-3.54-.36-7.108-.36-10.649 0-6.204.631-15.927 1.857-18.426 3.53M30.001.423l29.872 29.948-29.872 29.942L.129 30.371z" style="fill:#fff;fill-rule:nonzero" transform="translate(30 81.667)scale(.83333)"/></svg>