<svg xmlns="http://www.w3.org/2000/svg" xml:space="preserve" style="fill-rule:evenodd;clip-rule:evenodd;stroke-linejoin:round;stroke-miterlimit:2" viewBox="0 0 560 320"><path d="M.95.03h559.24v320H.95z" style="fill:#33b1ff"/><g transform="translate(30 84.583)scale(.83333)"><clipPath id="a"><path d="M0 0h600v181H0z"/></clipPath><g clip-path="url(#a)"><path d="M126.138 173.872q-.028-2.184-1.217-2.941-1.188-.758-3.206-.951-6.822-1.117-8.138-5.219t-1.238-10.526l-4.6-88.279c.019-3.181-.28-5.842-.885-7.983q-.906-3.211-6.192-3.339-4.814.127-7.01 2.808-2.194 2.682-4.489 6.391l-56.611 79.61-9.554 13.445a65 65 0 0 1-6.147 8.006q-3.34 3.704-8.536 4.555-2.958.243-5.551 1.15T0 174.933q.073 2.057 1.437 2.654 1.366.597 3.163.531a126 126 0 0 0 9.929-.531q5.015-.464 10.062-.531 4.511.056 9.022.443t9.023.442q2.095.028 3.825-.907 1.731-.934 1.836-3.162-.285-3.277-3.991-3.814a76 76 0 0 1-7.41-1.454q-3.706-.92-3.991-5.347.665-4.75 6.237-13.511 5.573-8.763 8.093-12.318h35.382q.288 5.584.576 11.234.287 5.65.309 11.234-.291 7.788-4.082 9.127t-7.581 1.501q-3.79.16-4.082 4.409.045 1.825 1.15 2.521 1.105.697 2.742.664 7.308-.066 14.684-.531 7.374-.464 14.683-.531 4.91.045 9.819.354 4.91.31 9.818.354 2.2.072 3.804-.686 1.603-.757 1.681-3.206M82.441 128.76H52.896l28.129-41.044zm299.728-67.227q-.038-1.591-1.04-2.388-1-.796-2.498-.796a55 55 0 0 0-4.689.221q-2.31.21-4.688.486-5.854.636-11.875.774-6.02.14-12.008.111a144 144 0 0 1-8.757-.354 146 146 0 0 0-8.757-.354q-2.084.006-3.737 1.172-1.654 1.167-1.747 3.428.751 4.004 6.015 3.759 5.262-.243 6.015 4.556a14 14 0 0 1-.332 2.742q-.315 1.404-.73 2.742l-22.291 77.31q-1.277 5.413-2.852 9.399-1.576 3.986-7.231 5.285-2.593.381-6.082 1.26-3.489.88-3.826 4.047.079 1.836 1.416 2.61 1.338.774 3.007.752 5.712-.088 11.522-.708t11.654-.708q6.246.056 12.56.443t12.561.442q2.571.188 5.904-.221 3.334-.41 3.649-3.671-.245-3.4-3.44-3.617a36 36 0 0 1-6.388-1.022q-3.195-.805-3.44-5.976.028-2.133.553-4.334t1.216-4.334l22.291-77.665q1.227-4.793 2.919-6.965 1.692-2.173 6.634-3.118 2.505-.315 5.374-1.394 2.868-1.077 3.118-3.914" style="fill:#fff;fill-rule:nonzero"/><path d="M498.55 62.418q-.375-2.862-5.811-4.063-5.437-1.2-11.434-1.428-5.998-.228-8.053-.17-22.173.05-46.41 8.996t-41.338 26.176-17.868 42.138q.322 15.816 9.147 26.137t22.278 15.365 27.663 5.026a149 149 0 0 0 17.382-1.04 151 151 0 0 0 17.116-3.029q3.2-.648 5.506-1.659t3.517-4.18a190 190 0 0 0 4.179-13.467 943 943 0 0 1 3.782-13.6q3.19-9.654 7.581-11.329 4.39-1.674 7.777-1.579t3.571-4.252q-.078-1.836-1.415-2.61-1.338-.774-3.008-.752-6.629.078-13.29.619-6.663.543-13.423.62a204 204 0 0 1-12.738-.531q-6.369-.464-12.738-.531a9.65 9.65 0 0 0-4.091.774q-1.963.835-2.1 3.295.252 3 3.531 3.335 3.28.336 6.559 1.291t3.532 5.812q-.294 4.976-3.074 13.666a1189 1189 0 0 1-4.533 13.932q-1.034 4.064-2.765 5.772-1.73 1.709-6.081 1.658-15.552-.336-23.507-10.061t-7.983-24.79q.12-13.866 5.749-26.935 5.628-13.07 15.303-22.954 9.56-9.597 23.596-16.409 14.036-6.81 27.708-7.12 6.496-.066 7.984 2.521 1.486 2.587 1.216 8.624a40 40 0 0 1-.176 3.184 38 38 0 0 0-.176 3.185q-.084 2.648.862 4.799.945 2.15 3.914 2.277 3.245-.248 4.799-3.25 1.554-3.003 2.278-5.772.691-2.034 2.941-8.978t2.543-8.713zM600 173.872q-.028-2.184-1.216-2.941-1.19-.758-3.207-.951-6.822-1.117-8.138-5.219t-1.238-10.526l-4.6-88.279c.019-3.181-.28-5.842-.884-7.983q-.908-3.211-6.192-3.339-4.816.127-7.01 2.808-2.196 2.682-4.489 6.391l-56.612 79.61-9.553 13.445a65 65 0 0 1-6.148 8.006q-3.34 3.704-8.536 4.555-2.958.243-5.551 1.15t-2.764 4.334q.072 2.057 1.438 2.654t3.162.531a126 126 0 0 0 9.929-.531q5.015-.464 10.062-.531 4.511.056 9.022.443t9.023.442q2.096.028 3.825-.907 1.731-.934 1.836-3.162-.285-3.277-3.99-3.814a76 76 0 0 1-7.411-1.454q-3.705-.92-3.99-5.347.663-4.75 6.236-13.511 5.573-8.763 8.094-12.318h35.382l.575 11.234q.287 5.65.309 11.234-.291 7.787-4.082 9.127t-7.581 1.501q-3.79.16-4.082 4.409.045 1.825 1.15 2.521 1.105.697 2.742.664 7.309-.066 14.684-.531 7.374-.464 14.684-.531 4.908.045 9.818.354t9.819.354q2.2.072 3.803-.686 1.603-.757 1.681-3.206m-43.697-45.113h-29.544l28.128-41.043zM307.191 62.241q-.033-1.708-1.061-2.455-1.03-.746-2.654-.73-5.583.034-11.234.266t-11.234.265q-2.958-.149-8.867-.332-5.91-.182-7.939 1.394a8 8 0 0 0-.708 1.238q-.321.686-.707 1.238l-48.651 73.595-1.946-72.356q.139-2.062-.156-3.561-.293-1.498-2.675-1.57-6.115.045-12.296.221-6.18.178-12.295-.044a235 235 0 0 1-6.877-.42 100 100 0 0 0-6.745-.287 11.8 11.8 0 0 0-4.335.619q-2.067.708-2.211 3.273.84 4.202 6.723 4.157 5.882-.044 6.722 4.157-.094 2.964-1.216 6.06a422 422 0 0 1-2.145 5.794 17226 17226 0 0 0-12.892 35.89 1577 1577 0 0 1-13.291 35.759q-2.581 7.59-5.064 10.636t-10.504 4.401q-2.212.332-3.892 1.327t-1.769 3.45q.077 2.184 1.548 2.808 1.47.625 3.405.553 4.656-.033 9.377-.265 4.721-.233 9.376-.266 4.372.056 8.647.443 4.272.387 8.513.442 1.98.016 3.76-.995 1.779-1.012 1.902-3.251-.296-3.721-4.128-3.984a43 43 0 0 1-7.667-1.232q-3.833-.97-4.128-6.814.38-8.367 5.911-24.853a644 644 0 0 1 11.65-31.968 5385 5385 0 0 1 8.269-20.843l1.946 84.21q-.073 3.898.818 6.169.89 2.272 5.197 2.322 4.383-.171 6.877-3.029a46.4 46.4 0 0 0 4.622-6.347l56.611-83.325-18.752 70.411a58 58 0 0 1-2.543 9.155q-1.686 4.61-6.657 5.705-2.847.199-6.391.929t-3.869 4.379q.061 1.962 1.349 2.764 1.287.801 3.073.774 6.115-.088 12.296-.708t12.295-.708q6.369.089 12.738.708 6.368.62 12.737.708 2.361.066 4.224-.796t1.968-3.45q-.23-3.19-3.21-3.689a47 47 0 0 1-5.963-1.409q-2.982-.91-3.211-5.34.044-3.212.752-6.524.708-3.31 1.548-6.39l18.045-72.357q.946-4.771 2.455-7.453 1.509-2.68 6.568-3.339a17.7 17.7 0 0 0 5.241-1.105q2.537-.951 2.72-4.025" style="fill:#fff;fill-rule:nonzero"/><path d="M36.473 43.769a21.8 21.8 0 0 1-6.101.865c-12.059 0-21.849-9.791-21.849-21.85S18.313.935 30.372.935c2.118 0 4.166.301 6.101.864v11.509a11.2 11.2 0 0 0-6.101-1.795c-6.22 0-11.271 5.05-11.271 11.271s5.051 11.271 11.271 11.271c2.248 0 4.343-.659 6.101-1.794zm10.191-20.216H36.473v8.715h18.906zm0-1.538 8.715-8.715H36.473v8.715z" style="fill:#fff"/><path d="M94.381 31.267c-2.09.82-4.631 1.476-7.131 1.476-5.573 0-9.549-3.402-9.549-9.016 0-5.328 3.525-9.262 8.934-9.262 2.623 0 5 .655 7.459 2.008l.615-6.189c-2.746-.819-5.574-1.475-8.483-1.475-9.426 0-16.393 4.959-16.393 14.918 0 10.819 8.811 14.671 16.434 14.671 3.893 0 6.311-.614 8.483-1.147zm14.877 7.131c7.049 0 12.417-4.098 12.417-11.147 0-7.09-5.368-11.188-12.417-11.188S96.84 20.161 96.84 27.251c0 7.049 5.369 11.147 12.418 11.147m0-5.163c-3.402 0-4.795-2.828-4.795-5.984 0-3.196 1.393-6.024 4.795-6.024 3.401 0 4.795 2.828 4.795 6.024 0 3.156-1.394 5.984-4.795 5.984m15.983 4.672h7.377V28.89c0-4.59 1.557-6.68 4.18-6.68 2.09 0 2.95 1.804 2.95 4.221v11.476h7.377V28.89c0-4.59 1.558-6.68 4.18-6.68 2.091 0 2.951 1.804 2.951 4.221v11.476h7.377V25.325c0-5.779-1.393-9.262-7.541-9.262-3.032 0-5.86 1.229-7.581 4.098-1.148-2.787-3.648-4.098-6.681-4.098-3.36 0-6.311 1.352-7.786 4.426h-.082v-3.934h-6.721zm40.982 0h7.377V28.89c0-4.59 1.557-6.68 4.18-6.68 2.09 0 2.951 1.804 2.951 4.221v11.476h7.376V28.89c0-4.59 1.558-6.68 4.181-6.68 2.09 0 2.95 1.804 2.95 4.221v11.476h7.377V25.325c0-5.779-1.393-9.262-7.541-9.262-3.032 0-5.86 1.229-7.581 4.098-1.148-2.787-3.648-4.098-6.68-4.098-3.361 0-6.312 1.352-7.787 4.426h-.082v-3.934h-6.721zm52.375.491c7.049 0 12.418-4.098 12.418-11.147 0-7.09-5.369-11.188-12.418-11.188s-12.417 4.098-12.417 11.188c0 7.049 5.368 11.147 12.417 11.147m0-5.163c-3.401 0-4.795-2.828-4.795-5.984 0-3.196 1.394-6.024 4.795-6.024 3.402 0 4.795 2.828 4.795 6.024 0 3.156-1.393 5.984-4.795 5.984M257.531 7.17h-7.417v12.131h-.082c-1.886-2.459-4.385-3.238-7.336-3.238-5.902 0-9.139 5.533-9.139 10.778 0 6.312 3.401 11.557 9.754 11.557 3.401 0 6.393-1.926 7.335-4.303h.082v3.812h6.803zm-16.352 19.835c0-2.828 1.599-5.286 4.468-5.286 2.704 0 4.508 2.336 4.508 5.573 0 3.115-2.05 5.451-4.508 5.451-2.787 0-4.468-2.336-4.468-5.738m32.172 11.393c7.048 0 12.417-4.098 12.417-11.147 0-7.09-5.369-11.188-12.417-11.188-7.049 0-12.418 4.098-12.418 11.188 0 7.049 5.369 11.147 12.418 11.147m0-5.163c-3.402 0-4.795-2.828-4.795-5.984 0-3.196 1.393-6.024 4.795-6.024 3.401 0 4.794 2.828 4.794 6.024 0 3.156-1.393 5.984-4.794 5.984m31.597-16.926c-.738-.123-1.639-.246-2.5-.246-3.197 0-5.041 1.721-6.311 4.426h-.082v-3.934h-6.721v21.352h7.376V28.89c0-4.18 1.927-6.68 5.369-6.68.861 0 1.68 0 2.5.246zm23.032 13.073V28.03c0-6.352-2.869-11.967-10.778-11.967-6.64 0-11.435 4.098-11.435 11.147s5.369 11.188 12.418 11.188c2.746 0 5.451-.41 7.828-1.352v-5.205a13.8 13.8 0 0 1-6.516 1.639c-3.607 0-5.861-1.147-6.271-4.098zm-14.836-4.18c.164-2.459 1.435-4.467 4.099-4.467 2.95 0 4.098 2.008 4.098 4.467z" style="fill:#fff;fill-rule:nonzero"/></g></g></svg>