<svg xmlns="http://www.w3.org/2000/svg" xml:space="preserve" style="fill-rule:evenodd;clip-rule:evenodd;stroke-linejoin:round;stroke-miterlimit:2" viewBox="0 0 560 320"><path d="M.95.03h559.24v320H.95z" style="fill:#d73266"/><path d="M51.607 78.168c12.522 0 19.797 8.968 19.797 19.628 0 10.998-7.275 19.458-19.797 19.458s-19.797-8.46-19.797-19.458c0-10.66 7.276-19.628 19.797-19.628m49.577-23.858H70.389v8.46c-6.43-7.614-16.92-11.336-26.903-11.336C17.766 51.434 0 72.753 0 97.627s18.105 46.362 43.824 46.362c10.152 0 20.812-3.892 26.227-12.521h.338v9.644h30.795zm51.269 0h-30.795v86.802h30.795v-35.025c0-14.89 4.231-26.227 21.32-26.227 4.738 0 8.799.508 13.029 2.877V53.126h-5.922c-12.014 0-22.166 4.737-28.088 15.397h-.339zm108.461 2.2c-6.092-3.384-13.198-5.076-20.305-5.076-27.242 0-48.562 19.289-48.562 47.208 0 26.227 21.489 45.347 47.208 45.347 7.446 0 14.891-1.523 21.659-4.907v-26.058c-4.061 3.723-9.983 5.922-15.398 5.922-12.69 0-21.658-8.798-21.658-21.319 0-12.014 9.306-21.151 21.15-21.151 5.923 0 11.337 2.707 15.906 6.091zm64.467 21.658c12.521 0 19.797 8.968 19.797 19.628 0 10.998-7.276 19.458-19.797 19.458s-19.797-8.46-19.797-19.458c0-10.66 7.276-19.628 19.797-19.628m49.577-23.858h-30.796v8.46c-6.429-7.614-16.92-11.336-26.903-11.336-25.719 0-43.486 21.319-43.486 46.193s18.105 46.362 43.824 46.362c10.153 0 20.812-3.892 26.227-12.521h.338v9.644h30.796zm85.787 86.802h30.795V.672h-30.795V62.77c-6.43-7.614-16.921-11.336-26.904-11.336-25.719 0-43.486 21.319-43.486 46.193s18.105 46.362 43.824 46.362c10.153 0 20.813-3.892 26.227-12.521h.339zm-18.782-62.944c12.521 0 19.797 8.968 19.797 19.628 0 10.998-7.276 19.458-19.797 19.458s-19.797-8.46-19.797-19.458c0-10.66 7.276-19.628 19.797-19.628m93.739 6.937c1.861-8.967 9.306-13.705 18.274-13.705 8.291 0 15.906 5.414 17.428 13.705zM600 99.657c0-29.611-17.428-48.223-47.547-48.223-28.257 0-48.054 17.428-48.054 46.362 0 29.949 21.489 46.193 50.254 46.193 9.983 0 19.797-2.369 27.75-7.276s14.044-12.352 16.413-22.504h-29.611c-3.384 5.753-8.122 7.952-14.721 7.952-12.69 0-19.289-6.768-19.289-19.289H600z" style="fill:#fff;fill-rule:nonzero" transform="translate(30 72.917)scale(.83333)"/><path d="M0-.405h.056v.056H0zm.066 0h.056v.056H.066zM0-.339h.056v.056H0zm.066 0h.056v.056H.066zm.265 0h.056v.056H.331zm.066 0h.056v.056H.397zm-.331.066h.056v.056H.066zm.066 0h.056v.056H.132zm.066 0h.056v.056H.198zm.067 0h.056v.056H.265zm.066 0h.056v.056H.331zM.066-.67h.056v.056H.066zm.066 0h.056v.056H.132zm.066 0h.056v.056H.198zm.067 0h.056v.056H.265zm.066 0h.056v.056H.331zM0-.604h.056v.056H0zm.066 0h.056v.056H.066zm.265 0h.056v.056H.331zm.066 0h.056v.056H.397zM0-.538h.056v.056H0zm.066 0h.056v.056H.066zM0-.472h.056v.056H0zm.066 0h.056v.056H.066z" style="fill:#fff;fill-rule:nonzero" transform="translate(75.988 269.032)scale(101.17746)"/><path d="M0-.405h.056v.056H0zm.066 0h.056v.056H.066zM0-.339h.056v.056H0zm.066 0h.056v.056H.066zM0-.273h.056v.056H0zm.066 0h.056v.056H.066zm.066 0h.056v.056H.132zm.066 0h.056v.056H.198zm.067 0h.056v.056H.265zm.066 0h.056v.056H.331zm.066 0h.056v.056H.397zM0-.67h.056v.056H0zm.066 0h.056v.056H.066zM0-.604h.056v.056H0zm.066 0h.056v.056H.066zM0-.538h.056v.056H0zm.066 0h.056v.056H.066zM0-.472h.056v.056H0zm.066 0h.056v.056H.066z" style="fill:#fff;fill-rule:nonzero" transform="translate(128.6 269.032)scale(101.17746)"/><path d="M0-.405h.056v.056H0zm.066 0h.056v.056H.066zm.066 0h.056v.056H.132zm.066 0h.056v.056H.198zm.067 0h.056v.056H.265zm.066 0h.056v.056H.331zm.066 0h.056v.056H.397zM0-.339h.056v.056H0zm.066 0h.056v.056H.066zm.265 0h.056v.056H.331zm.066 0h.056v.056H.397zM0-.273h.056v.056H0zm.066 0h.056v.056H.066zm.265 0h.056v.056H.331zm.066 0h.056v.056H.397zM.132-.67h.056v.056H.132zm.066 0h.056v.056H.198zm.067 0h.056v.056H.265zm-.199.066h.056v.056H.066zm.066 0h.056v.056H.132zm.133 0h.056v.056H.265zm.066 0h.056v.056H.331zM0-.538h.056v.056H0zm.066 0h.056v.056H.066zm.265 0h.056v.056H.331zm.066 0h.056v.056H.397zM0-.472h.056v.056H0zm.066 0h.056v.056H.066zm.265 0h.056v.056H.331zm.066 0h.056v.056H.397z" style="fill:#fff;fill-rule:nonzero" transform="translate(181.213 269.032)scale(101.17746)"/><path d="M.331-.405h.056v.056H.331zm.066 0h.056v.056H.397zM0-.339h.056v.056H0zm.066 0h.056v.056H.066zm.265 0h.056v.056H.331zm.066 0h.056v.056H.397zm-.331.066h.056v.056H.066zm.066 0h.056v.056H.132zm.066 0h.056v.056H.198zm.067 0h.056v.056H.265zm.066 0h.056v.056H.331zM.066-.67h.056v.056H.066zm.066 0h.056v.056H.132zm.066 0h.056v.056H.198zm.067 0h.056v.056H.265zm.066 0h.056v.056H.331zM0-.604h.056v.056H0zm.066 0h.056v.056H.066zm.265 0h.056v.056H.331zm.066 0h.056v.056H.397zM0-.538h.056v.056H0zm.066 0h.056v.056H.066zm0 .066h.056v.056H.066zm.066 0h.056v.056H.132zm.066 0h.056v.056H.198zm.067 0h.056v.056H.265zm.066 0h.056v.056H.331z" style="fill:#fff;fill-rule:nonzero" transform="translate(233.825 269.032)scale(101.17746)"/><path d="M.331-.405h.056v.056H.331zm.066 0h.056v.056H.397zM0-.339h.056v.056H0zm.066 0h.056v.056H.066zm.265 0h.056v.056H.331zm.066 0h.056v.056H.397zm-.331.066h.056v.056H.066zm.066 0h.056v.056H.132zm.066 0h.056v.056H.198zm.067 0h.056v.056H.265zm.066 0h.056v.056H.331zM.066-.67h.056v.056H.066zm.066 0h.056v.056H.132zm.066 0h.056v.056H.198zm.067 0h.056v.056H.265zm.066 0h.056v.056H.331zM0-.604h.056v.056H0zm.066 0h.056v.056H.066zm.265 0h.056v.056H.331zm.066 0h.056v.056H.397zM0-.538h.056v.056H0zm.066 0h.056v.056H.066zm0 .066h.056v.056H.066zm.066 0h.056v.056H.132zm.066 0h.056v.056H.198zm.067 0h.056v.056H.265zm.066 0h.056v.056H.331z" style="fill:#fff;fill-rule:nonzero" transform="translate(286.437 269.032)scale(101.17746)"/><path d="M.132-.405h.056v.056H.132zm.066 0h.056v.056H.198zm-.066.066h.056v.056H.132zm.066 0h.056v.056H.198zM0-.273h.056v.056H0zm.066 0h.056v.056H.066zm.066 0h.056v.056H.132zm.066 0h.056v.056H.198zm.067 0h.056v.056H.265zm.066 0h.056v.056H.331zM0-.67h.056v.056H0zm.066 0h.056v.056H.066zm.066 0h.056v.056H.132zm.066 0h.056v.056H.198zm.067 0h.056v.056H.265zm.066 0h.056v.056H.331zm-.199.066h.056v.056H.132zm.066 0h.056v.056H.198zm-.066.066h.056v.056H.132zm.066 0h.056v.056H.198zm-.066.066h.056v.056H.132zm.066 0h.056v.056H.198z" style="fill:#fff;fill-rule:nonzero" transform="translate(339.048 269.032)scale(101.17746)"/><path d="M0-.405h.056v.056H0zm.066 0h.056v.056H.066zM0-.339h.056v.056H0zm.066 0h.056v.056H.066zm.265 0h.056v.056H.331zm.066 0h.056v.056H.397zm-.331.066h.056v.056H.066zm.066 0h.056v.056H.132zm.066 0h.056v.056H.198zm.067 0h.056v.056H.265zm.066 0h.056v.056H.331zM.066-.67h.056v.056H.066zm.066 0h.056v.056H.132zm.066 0h.056v.056H.198zm.067 0h.056v.056H.265zm.066 0h.056v.056H.331zM0-.604h.056v.056H0zm.066 0h.056v.056H.066zm.265 0h.056v.056H.331zm.066 0h.056v.056H.397zM0-.538h.056v.056H0zm.066 0h.056v.056H.066zM0-.472h.056v.056H0zm.066 0h.056v.056H.066z" style="fill:#fff;fill-rule:nonzero" transform="translate(385.584 269.032)scale(101.17746)"/><path d="M.331-.405h.056v.056H.331zm.066 0h.056v.056H.397zM0-.339h.056v.056H0zm.066 0h.056v.056H.066zm.265 0h.056v.056H.331zm.066 0h.056v.056H.397zm-.331.066h.056v.056H.066zm.066 0h.056v.056H.132zm.066 0h.056v.056H.198zm.067 0h.056v.056H.265zm.066 0h.056v.056H.331zM.066-.67h.056v.056H.066zm.066 0h.056v.056H.132zm.066 0h.056v.056H.198zm.067 0h.056v.056H.265zm.066 0h.056v.056H.331zM0-.604h.056v.056H0zm.066 0h.056v.056H.066zm.265 0h.056v.056H.331zm.066 0h.056v.056H.397zM0-.538h.056v.056H0zm.066 0h.056v.056H.066zm0 .066h.056v.056H.066zm.066 0h.056v.056H.132zm.066 0h.056v.056H.198zm.067 0h.056v.056H.265zm.066 0h.056v.056H.331z" style="fill:#fff;fill-rule:nonzero" transform="translate(438.197 269.032)scale(101.17746)"/></svg>