<svg xmlns="http://www.w3.org/2000/svg" xml:space="preserve" style="fill-rule:evenodd;clip-rule:evenodd;stroke-linejoin:round;stroke-miterlimit:2" viewBox="0 0 560 320"><path d="M.95.03h559.24v320H.95z" style="fill:#ff3030"/><path d="M131.985 17.955c-2.87 9.646-5.58 19.29-8.45 28.935h16.819zM124.97 3.687c2.949-3.826 9.167-4.464 12.754-1.276 1.515 1.276 2.551 3.029 3.109 4.863l20.326 69.828h-11.956c-1.914-6.378-3.747-12.834-5.58-19.291h-23.117a1765 1765 0 0 0-5.58 19.291h-11.877c6.457-22.24 12.834-44.4 19.29-66.56.638-2.392.957-4.942 2.631-6.855m83.06 43.203h16.739c-2.79-9.645-5.579-19.369-8.369-29.014-2.791 9.725-5.58 19.369-8.37 29.014m.956-42.725c2.073-3.029 6.138-4.464 9.646-3.587 3.268.718 5.738 3.507 6.536 6.696 6.775 23.276 13.551 46.472 20.327 69.747h-11.958a1755 1755 0 0 0-5.579-19.29h-23.117c-1.833 6.457-3.746 12.834-5.579 19.29h-11.877l19.37-66.957c.717-1.914.956-4.145 2.231-5.899M152.152.498h43.284v11.718h-15.943v64.886h-11.399V12.216h-15.942zm106.096.479c1.116-.399 2.232-.479 3.428-.479h13.631c7.652.159 14.985 4.863 18.334 11.797 2.311 4.464 2.55 9.725 1.992 14.588-.399 5.181-2.551 10.283-6.536 13.71-2.073 1.834-4.703 3.03-6.935 4.623-1.196.957-1.275 2.791-.638 4.066 6.058 9.326 12.355 18.493 18.493 27.739h-13.551c-5.899-8.847-11.718-17.775-17.616-26.703-1.754-2.551-2.232-5.899-1.196-8.768.797-2.232 2.71-3.827 4.863-4.704 4.145-1.593 8.13-4.065 10.442-7.891 1.754-2.949 1.674-6.536.877-9.724-.877-4.145-4.942-7.414-9.247-7.254h-8.848c-1.355 0-2.551 1.116-2.551 2.471v62.494h-11.478V9.665c0-3.826 2.79-7.492 6.536-8.688m47.747-.479h12.117v76.603h-12.117zM34.145.386h5.8v13.68c.036 3.794-.073 7.587-.256 11.418-.255 5.471-.62 10.98-1.495 16.415-.62 3.721-1.934 7.333-3.539 10.762-2.626 5.508-6.712 10.177-11.345 14.117-4.122 3.648-9.083 6.274-14.263 8.098A47.5 47.5 0 0 1 0 77.102V65.647c3.721-.547 7.259-1.86 10.579-3.611 3.94-2.079 7.442-4.852 10.433-8.172 3.064-3.392 5.508-7.332 7.369-11.491 2.189-4.815 3.356-9.995 4.159-15.175.984-6.603 1.422-13.278 1.568-19.954.037-2.334.037-4.596.037-6.858m8.171 0c3.575-.037 7.113 0 10.688 0v76.643H42.316c-.037-8.135 0-16.306-.037-24.441.037-17.401.037-34.801.037-52.202m13.06 0h5.763c-.073 7.807.219 15.577 1.131 23.347.766 6.019 1.824 12.074 4.231 17.655 2.262 5.436 5.545 10.47 9.814 14.519 4.085 3.867 9.01 6.858 14.372 8.573a32.4 32.4 0 0 0 4.597 1.094v11.455c-3.065-.402-6.056-1.204-8.974-2.189-3.466-1.204-6.822-2.773-9.922-4.779-2.262-1.459-4.305-3.174-6.275-4.997-3.246-2.991-6.128-6.384-8.317-10.251-1.715-2.991-2.955-6.238-3.94-9.521-.875-3.32-1.276-6.749-1.605-10.178-.657-7.368-.912-14.774-.875-22.179zm398.542 36.269c5.588-3.293 9.073-8.868 9.073-15.057 0-14.616-15.437-21.272-29.781-21.272-14.346 0-29.782 6.656-29.782 21.272 0 6.191 3.485 11.764 9.072 15.057-7.948 3.681-12.394 9.949-12.394 17.759 0 14.721 16.65 22.423 33.1 22.423 16.449 0 33.1-7.702 33.1-22.423.006-7.81-4.442-14.081-12.388-17.759m-20.707-9.265c-3.659 0-6.635-2.36-6.635-5.263s2.976-5.264 6.635-5.264c3.656 0 6.635 2.36 6.635 5.264-.002 2.903-2.977 5.263-6.635 5.263m0 18.755c4.073 0 7.384 2.716 7.384 6.062 0 3.242-3.313 5.884-7.384 5.884-4.074 0-7.385-2.637-7.385-5.884 0-3.346 3.312-6.062 7.385-6.062" style="fill:#fff;fill-rule:nonzero" transform="translate(30 127.5)scale(.83333)"/><path d="M524.133 12.776C518.023 4.631 509.047.324 498.179.324s-19.845 4.305-25.955 12.452c-5.136 6.853-7.965 16.063-7.965 25.938 0 19.107 10.488 38.388 33.924 38.388s33.926-19.282 33.926-38.388c-.007-9.876-2.837-19.086-7.976-25.938m-25.954 41.593c-8.17 0-9.064-10.62-9.064-15.745 0-5.077.898-15.569 9.064-15.569 8.169 0 9.062 10.492 9.062 15.569.002 5.125-.893 15.745-9.062 15.745m93.845-41.593C585.917 4.631 576.939.324 566.072.324c-10.869 0-19.845 4.305-25.954 12.452-5.136 6.853-7.967 16.063-7.967 25.938 0 19.107 10.489 38.388 33.925 38.388C589.509 77.102 600 57.82 600 38.714c-.005-9.876-2.836-19.086-7.976-25.938m-25.952 41.593c-8.172 0-9.065-10.62-9.065-15.745 0-5.077.898-15.569 9.065-15.569s9.061 10.492 9.061 15.569c.004 5.125-.893 15.745-9.061 15.745M342.438 1.395v23.296h31.899l-23.798 52.064h26.944l31.997-75.36z" style="fill:#fff;fill-rule:nonzero" transform="translate(30 127.5)scale(.83333)"/></svg>