<svg xmlns="http://www.w3.org/2000/svg" xml:space="preserve" style="fill-rule:evenodd;clip-rule:evenodd;stroke-linejoin:round;stroke-miterlimit:2" viewBox="0 0 560 320"><path d="M.95.03h559.24v320H.95z" style="fill:#4fa3c7"/><path d="M132.495 18.254c-2.881 9.683-5.602 19.364-8.482 29.047h16.884zM125.453 3.93c2.961-3.841 9.202-4.481 12.803-1.28 1.521 1.28 2.561 3.041 3.121 4.881l20.405 70.098h-12.003c-1.92-6.402-3.76-12.883-5.601-19.365h-23.206a1763 1763 0 0 0-5.602 19.365h-11.923c6.482-22.326 12.884-44.572 19.365-66.817.641-2.401.961-4.961 2.641-6.882m83.381 43.371h16.804c-2.801-9.683-5.601-19.444-8.402-29.127-2.801 9.763-5.601 19.444-8.402 29.127m.96-42.891c2.081-3.041 6.162-4.481 9.683-3.6 3.28.72 5.761 3.52 6.561 6.721 6.802 23.366 13.604 46.652 20.406 70.017H234.44a1776 1776 0 0 0-5.601-19.365h-23.206c-1.84 6.483-3.761 12.884-5.601 19.365h-11.923l19.445-67.216c.72-1.921.96-4.161 2.24-5.922M152.74.73h43.451v11.762h-16.004v65.137h-11.443V12.492H152.74zm106.506.48c1.121-.4 2.241-.48 3.442-.48h13.683c7.682.159 15.043 4.881 18.405 11.842 2.32 4.481 2.56 9.763 2 14.644-.4 5.202-2.561 10.323-6.562 13.763-2.08 1.841-4.721 3.041-6.962 4.641-1.2.961-1.28 2.801-.64 4.082 6.082 9.362 12.403 18.564 18.565 27.846h-13.603c-5.922-8.881-11.764-17.843-17.685-26.806-1.76-2.561-2.24-5.922-1.201-8.802.801-2.24 2.721-3.842 4.882-4.722 4.162-1.6 8.162-4.081 10.483-7.921 1.76-2.961 1.68-6.562.88-9.763-.88-4.161-4.961-7.442-9.282-7.282h-8.883c-1.36 0-2.561 1.121-2.561 2.481v62.735h-11.522V9.932c0-3.841 2.801-7.522 6.561-8.722m47.932-.48h12.164v76.899h-12.164zM34.277.617h5.822v13.732c.037 3.809-.073 7.617-.256 11.462-.257 5.493-.623 11.023-1.501 16.479-.623 3.736-1.942 7.361-3.553 10.804-2.636 5.529-6.738 10.217-11.389 14.172-4.138 3.661-9.118 6.298-14.318 8.129C6.152 76.42 3.113 77.19 0 77.629V66.13c3.735-.549 7.287-1.867 10.62-3.625 3.955-2.087 7.47-4.871 10.473-8.203 3.076-3.406 5.53-7.361 7.398-11.536 2.197-4.833 3.369-10.033 4.174-15.233.989-6.629 1.428-13.33 1.575-20.032.037-2.343.037-4.614.037-6.884m8.203 0c3.588-.037 7.141 0 10.729 0v76.939H42.48c-.037-8.166 0-16.369-.037-24.536.037-17.468.037-34.935.037-52.403m13.11 0h5.786c-.074 7.837.219 15.637 1.135 23.437.769 6.042 1.831 12.121 4.248 17.724 2.27 5.456 5.566 10.51 9.851 14.575 4.101 3.881 9.045 6.884 14.428 8.605q2.252.715 4.614 1.099v11.499c-3.076-.403-6.079-1.209-9.009-2.197-3.478-1.209-6.847-2.784-9.96-4.798-2.271-1.464-4.321-3.186-6.299-5.017-3.259-3.002-6.152-6.408-8.349-10.29-1.721-3.003-2.966-6.262-3.955-9.558-.879-3.332-1.282-6.775-1.612-10.217-.659-7.397-.915-14.831-.878-22.265zm309.69 9.982-4.626 15.264 5.219-.299c14.371 0 23.824 12.307 23.824 25.987 0 15.658-12.206 26.386-27.468 26.386-9.16 0-18.319-4.823-22.646-12.996l6.896-6.498c2.264 6.301 9.845 11.027 16.439 11.027 10.039 0 17.919-8.269 17.919-18.216 0-9.551-8.165-17.622-17.714-17.622-5.218 0-10.636 2.461-13.881 6.599h-1.776l11.421-38.107h29.727v8.467H365.28zm73.339 57.294v8.471h-47.944l32.494-39.875c3.051-3.736 6.594-8.366 6.594-13.29 0-7.777-6.894-14.174-14.571-14.174-7.584 0-13.783 6.106-14.279 13.586h-9.252C393.133 9.418 401.7.554 415.192.554c12.603 0 23.427 9.352 23.427 22.25 0 5.511-2.071 11.023-5.507 15.264l-24.417 29.825zM479.175.558c-21.259 0-38.551 17.432-38.551 38.86 0 21.259 17.292 38.551 38.551 38.551 21.877 0 39.013-16.997 39.013-38.705 0-21.709-17.136-38.706-39.013-38.706m29.901 38.86c0 16.77-13.338 29.905-30.372 29.905-15.972 0-28.963-13.416-28.963-29.905 0-16.661 12.989-30.218 28.963-30.218 17.312 0 30.372 12.992 30.372 30.218M560.987.558c-21.259 0-38.552 17.432-38.552 38.86 0 21.259 17.293 38.551 38.552 38.551 21.875 0 39.013-17.001 39.013-38.705S582.862.558 560.987.558m29.898 38.86c0 16.77-13.338 29.905-30.371 29.905-15.972 0-28.968-13.416-28.968-29.905 0-16.661 12.996-30.218 28.968-30.218 17.318 0 30.371 12.992 30.371 30.218" style="fill:#fff;fill-rule:nonzero" transform="translate(30 127.5)scale(.83333)"/></svg>