<svg xmlns="http://www.w3.org/2000/svg" xml:space="preserve" style="fill-rule:evenodd;clip-rule:evenodd;stroke-linejoin:round;stroke-miterlimit:2" viewBox="0 0 560 320"><path d="M.95.03h559.24v320H.95z" style="fill:#8b7ad6"/><g transform="translate(30 81.25)scale(.83333)"><clipPath id="a"><path d="M0 0h600v189H0z"/></clipPath><g clip-path="url(#a)"><path d="M53.601 82.56a41.9 41.9 0 0 1-11.7 1.658C18.775 84.218 0 65.443 0 42.317S18.775.415 41.901.415c4.061 0 7.988.579 11.7 1.658v22.07a21.5 21.5 0 0 0-11.7-3.441c-11.929 0-21.615 9.685-21.615 21.615s9.686 21.615 21.615 21.615c4.311 0 8.328-1.265 11.7-3.442zm19.544-38.769H53.601v16.713h36.256zm0-2.949L89.857 24.13H53.601v16.712zm62.413-2.671h12.495c-1.039-11.715-4.429-14.573-21.86-14.573-19.793 0-24.222 3.118-24.222 17.691 0 14.585 4.169 17.975 22.651 17.975 19.522 0 23.431-2.61 23.431-14.845h-12.495c0 3.389-1.299 4.948-10.936 4.948-8.337 0-10.156-2.078-10.156-8.857 0-6.507 1.819-6.507 11.727-6.507 7.287 0 8.586.791 9.365 4.168m156.633-14.573h-11.715v34.355h12.494V40.25c0-5.196 3.118-7.027 9.366-7.027 6.519 0 8.337 2.09 8.337 8.858v15.872h12.755V39.73c0-4.936 3.649-6.507 9.637-6.507 5.728 0 8.586 1.831 8.586 6.507v18.223h12.506V37.652c0-10.145-6.247-14.845-17.703-14.845-9.896 0-13.286 3.389-14.845 7.558-2.61-4.429-6.247-7.558-16.144-7.558-9.117 0-11.455 3.129-13.274 8.857zm-77.964 0h-11.716v34.355h12.495V40.25c0-5.196 2.61-7.027 9.637-7.027 6.507 0 8.338 2.35 8.338 8.858v15.872h12.754V39.73c0-4.936 3.898-6.507 9.885-6.507 5.728 0 8.338 1.571 8.338 6.507v18.223h12.495V37.652c0-10.145-6.248-14.845-17.703-14.845-9.897 0-13.534 3.649-14.845 7.558-2.598-4.429-6.248-7.558-16.144-7.558-9.365 0-11.975 3.129-13.534 8.857zm310.555 0h-11.975v34.355h12.495V39.99c0-4.677 2.869-7.027 8.078-7.027s6.507 1.559 6.767 5.988h11.715c0-11.715-1.559-16.144-14.054-16.144-7.546 0-10.156 1.571-13.026 7.298zM199.245 40.25c0-14.054-3.909-16.912-23.95-16.912-21.612 0-24.222 3.378-24.222 17.951 0 14.845 3.649 17.975 24.222 17.975 21.872 0 23.95-3.649 23.95-19.014m-35.158.791c0-7.038 1.571-7.818 10.417-7.818 10.156 0 11.987.26 11.987 7.818 0 7.027-1.311 8.326-10.936 8.326-10.157 0-11.468-1.039-11.468-8.326m242.023-.791c0-14.054-4.157-16.912-24.21-16.912-21.612 0-24.21 3.638-24.21 18.211 0 14.585 3.637 17.715 24.21 17.715 21.872 0 24.21-3.649 24.21-19.014m-35.665.791c0-7.038 1.57-7.818 10.676-7.818 10.156 0 11.975.26 11.975 7.818 0 7.027-1.299 8.326-10.936 8.326-10.416 0-11.715-1.039-11.715-8.326m139.07-.791c0-14.054-3.897-16.912-23.938-16.912-21.352 0-23.951 3.378-23.951 17.951 0 14.845 3.638 17.975 23.951 17.975 21.86 0 23.938-3.649 23.938-19.014m-35.394.791c0-7.038 1.559-7.818 10.676-7.818 10.145 0 11.975.26 11.975 7.818 0 7.027-1.31 8.326-10.935 8.326-10.417 0-11.716-1.039-11.716-8.326m-29.06-32.028v20.041c-2.858-3.897-5.468-5.976-15.885-5.976-16.663 0-19.781 4.429-19.781 17.963 0 13.794 4.417 17.691 20.561 17.691 10.156 0 13.274-2.598 15.624-7.026v6.247h12.495V9.013zm-9.118 23.95c7.027 0 9.377 1.04 9.377 6.508 0 8.337-.519 9.117-10.416 9.117-9.885 0-12.495-.26-12.495-7.299 0-8.066 3.13-8.326 13.534-8.326m145.043 18.223c-11.975 0-13.794-1.039-13.794-7.027H600c-.52-16.652-.52-20.561-22.651-20.561-18.754 0-22.923 3.378-22.923 18.223 0 13.794 5.48 17.171 20.573 17.443 16.923 0 25.001-.791 25.001-11.975h-12.235c-.531 2.598-1.571 3.897-6.779 3.897m-14.054-14.314c.52-3.649 1.559-4.948 9.885-4.948 9.129 0 10.417.52 10.948 4.948z" style="fill:#fff"/><path d="M430.212 158.304c-9.606 0-12.319-2.147-12.319-9.154 0-6.893 2.6-8.928 12.771-8.928h21.924c10.171 0 12.77 2.035 12.77 8.928 0 7.007-2.712 9.154-12.318 9.154zm-36.051-11.075c0 21.246 11.155 28.705 30.706 28.705h32.839c19.438 0 30.706-2.599 30.706-22.715v-7.12c0-14.805-4.294-22.828-28.478-22.828H436.54c-9.832 0-14.578 2.147-18.647 6.215v-9.719c0-6.441 3.617-9.832 12.206-9.832h22.037c8.815 0 12.431 1.922 12.431 7.459h21.698v-6.442c0-10.397-7.765-18.646-31.61-18.646h-23.233c-26.784 0-37.261 7.232-37.261 32.095zm106.389 11.414h63.625v16.387h23.733v-16.387H600v-18.308h-12.092V93.21h-28.931l-58.427 35.485zm63.625-45.769v27.461h-43.961v-.226z" style="fill:#fff;fill-rule:nonzero"/><path d="M101.971 80.076h261.382v12.001H101.971zm0 24.018h261.382v12.001H101.971zm0 24.017h261.382v12.017H101.971zm0 24.034h261.382v12.001H101.971zm0 24.017h261.382v12.002H101.971z" style="fill:#fff"/></g></g></svg>