<svg xmlns="http://www.w3.org/2000/svg" xml:space="preserve" style="fill-rule:evenodd;clip-rule:evenodd;stroke-linejoin:round;stroke-miterlimit:2" viewBox="0 0 560 320"><path d="M.95.03h559.24v320H.95z" style="fill:#34c686"/><path d="M26.399 91.631h32.8l31.999 56 37.601-56h27.2l-51.2 86.402H77.906zm430.4 0H539.2c14.789 0 27.966 11.483 28 27.202v59.199h-29.6v-51.198c0-8.546-5.082-10.278-11.202-10.401H486.4v61.599h-29.601zm-161.599 0v24.801h-70.4c-8.048 0-7.597 7.999 0 7.999h46.399c36.151 0 36.141 53.6 0 53.6H198.4v-24h69.599c8.331 0 7.766-8 0-8H224.8c-37.148 0-37.017-54.4 0-54.4z" style="fill:#fff" transform="translate(30 85.417)scale(.83333)"/><path d="M303.201 91.631h29.6v86.4h-29.6zm-142.402 0h29.6v86.4h-29.6zm207.202 0h55.201c17.524 0 28.799 11.934 28.799 26.399v31.997c0 22.691-19.605 28.002-28.799 28.002h-55.201c-20.736 0-29.6-16.686-29.6-28.002V118.03c0-18.426 16.489-26.399 29.6-26.399m11.201 24.096c-7.866.046-11.201 4.985-11.201 11.104v16c0 6.647 5.714 11.199 11.201 11.199h32.8c3.891 0 10.402-2.633 10.402-11.199v-16c0-5.384-3.274-11.339-10.402-11.3zM91.2.43H26.4C7.755.43.042 17.579 0 26.829v32c0 20.752 17.072 28.12 26.4 28h64.8V62.831H40.799c-3.528 0-12-2.614-12-10.401V35.631c0-8.002 6.025-11.2 12-11.2H91.2zM480.802.429H416c-18.643 0-26.356 17.149-26.398 26.399v31.999c0 20.753 17.073 28.121 26.398 28.001h64.802V62.829H431.2c-3.531 0-11.999-2.613-11.999-10.401V35.629c0-8.002 6.024-11.2 11.999-11.2h49.602zM290.401.43H384v21.601h-64.8v8.001H384v21.601h-64.8c0 7.94 5.835 11.199 11.999 11.199H384v23.199h-68c-15.237 0-25.711-12.647-25.675-26.398zm-75.202 0H244v51.2c0 7.355 5.543 11.276 12 11.2h31.201v23.199H242.4c-12.72 0-27.2-5.717-27.2-26.399zm-89.6 0h55.2c17.521 0 28.802 11.934 28.802 26.399v32c0 22.691-19.606 28-28.802 28h-55.2c-20.734 0-28.8-16.684-28.8-28v-32c0-18.424 15.689-26.399 28.8-26.399m11.2 24.096c-7.865.047-11.2 4.985-11.2 11.104v16.001c0 6.647 5.715 11.2 11.2 11.2h32.8c3.889 0 10.4-2.635 10.4-11.2v-16c0-5.381-3.279-11.339-10.4-11.297zM516 .43h55.203C588.723.43 600 12.364 600 26.829v32c0 22.691-19.605 28-28.797 28H516c-20.733 0-29.6-16.684-29.6-28v-32C486.401 8.405 502.89.43 516 .43m11.201 24.096C519.335 24.572 516 29.511 516 35.629V51.63c0 6.647 5.714 11.2 11.201 11.2h32.801c3.89 0 10.401-2.635 10.401-11.2V35.631c0-5.381-3.278-11.339-10.401-11.297z" style="fill:#fff" transform="translate(30 85.417)scale(.83333)"/></svg>