<svg xmlns="http://www.w3.org/2000/svg" xml:space="preserve" style="fill-rule:evenodd;clip-rule:evenodd;stroke-linejoin:round;stroke-miterlimit:2" viewBox="0 0 560 320"><path d="M.95.03h559.24v320H.95z" style="fill:#3fa7d6"/><path d="M165.389 22.719C175.384 9.838 191.312 2.793 207.184.746c6.408-.017 12.824.274 19.232-.129 14.985 1.45 29.889 7.77 40.046 19.119 8.633 9.44 13.373 21.926 14.703 34.541-11.398.161-22.804.507-34.202.435-1.443-8.319-6.86-15.791-14.3-19.773-7.899-4.256-17.62-5.602-26.181-2.612-4.626 1.588-9.092 4.135-12.107 8.069-4.022 5.102-3.466 12.889.532 17.838 4.119 5.006 10.439 7.4 16.436 9.335 14.316 4.28 29.3 6.101 43.35 11.325 9.729 3.571 19.241 9.068 25.182 17.806 6.795 10.027 8.23 22.82 6.593 34.588-1.692 12.349-8.302 23.868-17.991 31.679-13.01 10.656-30.163 15.25-46.784 15.081-16.065-.225-32.493-4.409-45.551-14.058-8.802-6.464-15.646-15.678-18.741-26.189-1.661-5.126-2.112-10.527-2.378-15.879 11.204-.145 22.409.161 33.621-.008 3.216 9.342 10.173 17.459 19.41 21.223 9.31 3.886 20.216 4.393 29.607.46 4.506-1.886 8.826-4.74 11.438-8.964 2.902-4.651 3.257-10.97.25-15.661-2.886-4.555-7.907-7.11-12.76-9.053-9.221-3.522-18.967-5.32-28.503-7.738-12.397-3.095-25.084-6.634-35.596-14.179-7.456-5.263-13.09-13.098-15.363-21.965-3.797-14.67-1.242-31.283 8.262-43.318M0 3.47c16.347-.113 32.694-.016 49.041-.056 8.754 32.774 17.057 65.67 25.891 98.412 6.674-32.758 12.704-65.662 19.305-98.437 18.5.081 37.007-.008 55.506.041.024 57.738-.032 115.477.032 173.216-11.156.04-22.303.096-33.451-.033-.686-32.057-1.209-64.122-2.193-96.163-6.489 32.089-13.3 64.122-19.845 96.204-11.849.04-23.699.048-35.548 0-7.988-30.502-15.807-61.044-23.924-91.513-.274 2.789-.258 5.594-.234 8.391.033 27.713-.024 55.417.024 83.13-8.568.04-17.137.008-25.705.024-2.966-.008-5.957.169-8.899-.339zm408.228 13.991c14.768-11.397 33.871-15.992 52.306-15.275 8.52.428 16.96 1.999 25.166 4.305.298.177.886.524 1.184.693-10.027 7.061-18.644 16.395-24.045 27.463-10.18-1.153-20.724 1.41-29.042 7.456-10.406 7.303-17.959 18.959-19.354 31.703-1.612 12.872-3.111 25.761-4.707 38.634-.468 3.563-.621 7.279-2.233 10.56-2.249 4.74-5.643 8.842-9.213 12.647-3.241 3.386-8.166 3.934-12.599 3.982-10.318-22.763-12.422-48.912-7.021-73.231 4.151-18.903 13.929-37.112 29.558-48.937" style="fill:#fff;fill-rule:nonzero" transform="translate(30 83.75)scale(.83333)"/><path d="M485.877 14.39c15.218-9.874 34.185-12.01 51.895-10.18 15.67 1.571 31.694 7.262 42.528 19.144 8.923 9.511 13.106 22.497 14.025 35.314-11.277.209-22.562.112-33.838.048-1.226-6.771-4.676-13.236-10.189-17.459-7.988-6.191-18.677-7.908-28.519-6.651-7.4 1.081-15.162 3.442-20.393 9.085-3.128 3.49-5.135 8.786-3.104 13.3 1.975 5.554 3.894 11.132 5.82 16.702 2.966 8.891 1.588 18.434.645 27.551-12.397-3.329-25.214-8.738-33.081-19.37-7.577-10.325-8.544-24.012-6.457-36.281 2.136-12.703 9.802-24.287 20.668-31.203M312.234 8.708a19408 19408 0 0 1 62.067-1.572c10.245-.033 20.474 1.499 30.228 4.675.048 1.419-.226 2.797-1.492 3.627-8.488 7.432-14.847 16.871-20.603 26.471-11.922-.056-23.843.218-35.773.226.242 33.903.056 67.823.29 101.734 7.231.58 14.477 1.104 21.716 1.507 7.004-.024 14.009-.121 21.014-.242 6.747-.225 12.155-5.094 16.153-10.091 5.345-6.965 9.464-15.211 10.157-24.07.903-10.817 1.918-21.626 2.894-32.436.403-4.594 1.314-9.181 3.111-13.445 3.926-9.641 11.962-17.282 21.401-21.482 13.429 22.707 15.404 50.791 9.205 76.069-4.497 18.024-15.105 34.838-30.783 45.115-15.308 10.262-34.194 13.945-52.395 13.156-19.063-.798-38.143-1.322-57.19-2.33z" style="fill:#fff;fill-rule:nonzero" transform="translate(30 83.75)scale(.83333)"/><path d="M511.389 43.312c7.448-3.506 15.904-3.442 23.916-2.507 8.254 15.001 13.123 31.92 13.228 49.082.403 19.111-4.788 38.078-13.696 54.909-8.979 1.064-18.378-.709-26.052-5.57-3.24-2.031-6.029-5.707-4.989-9.729 2.104-8.399 4.965-16.605 7.262-24.956 1.21-4.796.702-9.77.637-14.654-.153-5.756-1.281-11.447-2.926-16.952-2.007-6.916-4.989-13.703-5.288-20.99.178-4.353 4.321-7.037 7.908-8.633" style="fill:#fff;fill-rule:nonzero" transform="translate(30 83.75)scale(.83333)"/><path d="M553.2 80.705c12.349 3.362 25.157 7.465 34.741 16.339 7.932 7.239 11.672 18.016 12.059 28.551v6.03c-.548 9.955-4.103 19.829-10.68 27.398-8.746 10.221-21.45 16.218-34.371 19.225-17.202 3.901-35.378 3.031-52.346-1.645-13.687-3.869-27.229-11.526-34.379-24.27-4.877-8.778-9.141-19.04-6.513-29.212 11.027-.129 22.062.08 33.097.161 1.225 7.561 4.353 15.283 10.648 20.015 7.835 5.932 18.113 6.835 27.616 6.932 8.641-.186 17.879-1.08 25.198-6.118 6.36-4.208 8.859-13.349 5.272-20.128-2.588-4.739-7.392-7.625-11.979-10.14.299-11.059 1.121-22.094 1.637-33.138m-105.982 66.824c4.337-.678 8.867-.017 13.276.072 5.723 13.058 16.71 22.876 28.502 30.445-8.665 2.942-17.79 4.353-26.93 4.546h-.508c-13.22-.137-26.302-3.046-38.603-7.786l-.064-.637c4.522-4.425 9.205-8.697 13.8-13.058 4.425-3.757 6.932-9.125 10.527-13.582" style="fill:#fff;fill-rule:nonzero" transform="translate(30 83.75)scale(.83333)"/></svg>