<svg xmlns="http://www.w3.org/2000/svg" xml:space="preserve" style="fill-rule:evenodd;clip-rule:evenodd;stroke-linejoin:round;stroke-miterlimit:2" viewBox="0 0 560 320"><path d="M.95.03h559.24v320H.95z" style="fill:#cc2936"/><g transform="translate(30 89.167)scale(.83333)"><clipPath id="a"><path d="M0 0h600v170H0z"/></clipPath><g clip-path="url(#a)"><path d="M105.902 29.7h26.02v57.548h-26.02zm170.705.106v-8.561h-14.1V9.609h-26.041l.021 11.646-14.163.011v8.54h14.153l-.021 57.442h26.072l-.021-57.442zM64.276 61.059 26.968.711H.011L0 87.248h26.799V26.899l37.498 60.349h26.705V.711H64.255zM404.36 27.047c-8.614.242-15.775 3.927-20.766 8.677-.021-1.422 0-6.045 0-6.045l-25.82.011-.011 57.547h25.831s-.021-35.35-.021-37.803c0-5.012 5.265-10.593 12.352-10.593 7.097 0 11.888 5.581 11.888 10.593v37.803h25.863s-.011-27.262 0-31.316c.147-22.788-19.597-29.159-29.316-28.874m-211.499 0c-8.604.242-15.775 3.927-20.755 8.677-.022-1.422 0-6.045 0-6.045l-25.863.011.021 57.547h25.842s-.022-35.35-.022-37.803c0-5.012 5.266-10.593 12.352-10.593s11.889 5.581 11.889 10.593v37.803h25.862s-.031-27.262 0-31.316c.137-22.788-19.607-29.159-29.326-28.874m369.104-1.285c-21.008 0-38.035 14.479-38.035 32.317 0 17.849 17.027 32.317 38.035 32.317S600 75.928 600 58.079c0-17.838-17.027-32.317-38.035-32.317M572.4 70.199c0 9.172-5.423 12.953-10.635 12.953-5.223 0-10.667-3.781-10.667-12.953 0-3.485.01-12.415.01-12.415s.011-8.508.011-12.004c0-9.119 5.454-12.879 10.635-12.879 5.202 0 10.636 3.76 10.636 12.879 0 3.496 0 9.94.031 12.257 0 .137-.021 8.698-.021 12.162m-82.63-37.656c-4.149-2.337-8.551-4.591-14.721-5.128-18.755-1.653-33.097 14.932-33.097 30.127 0 20.029 15.469 27.442 17.807 28.537 8.761 4.075 19.997 4.086 29.958-2.169 0 .537.011 3.327.011 3.327h25.725V.711H489.77zm.189 25.631s.011 6.518.011 10.214c0 8.888-6.16 11.215-10.214 11.215-4.128 0-10.194-2.327-10.194-11.215 0-3.054.011-10.235.011-10.235s-.011-7.308-.011-10.257c0-8.908 6.066-11.172 10.204-11.172 4.044 0 10.193 2.264 10.193 11.172zm-140.072.537c0-17.838-17.238-32.623-38.404-32.623-21.155 0-38.319 14.458-38.319 32.307 0 17.838 17.164 32.307 38.319 32.307 17.575 0 32.391-10.014 36.919-23.609l-25.936.021s.021.253.021 3.486c0 10.53-6.918 12.867-10.772 12.867-3.833 0-10.878-2.337-10.878-12.867 0-3.149.021-11.878.021-11.878s49.029.021 49.029-.011m-47.323-20.239c2.032-3.549 5.771-5.244 9.151-5.255 3.391.011 7.129 1.706 9.151 5.255 1.663 2.875 1.737 6.244 1.705 11.278h-21.723c-.042-5.034.063-8.403 1.716-11.278M105.839.679h26.083V18.37h-26.083z" style="fill:#fff"/><path d="M0 107.966h31.856v11.102H11.162v13.466h20.694v11.461H11.162v23.936H0zm68.083 59.965H57.231v-9.337h-21.02l-6.228 9.337h-12.78l42.043-59.965h8.837zm-10.852-20.667v-17.496l-12.839 17.496zm15.107-39.298h12.587l17.748 40.308 17.874-40.308h12.715v59.965h-11.206v-30.233l-13.844 30.233h-11.33L83.54 137.698v30.233H72.338zm269.814 0h12.589l17.746 40.308 17.876-40.308h12.715v59.965h-11.205v-30.233l-13.847 30.233h-11.327l-13.345-30.233v30.233h-11.202z" style="fill:#fff;fill-rule:nonzero"/><path d="M136.794 107.966h11.596v59.965h-11.596z" style="fill:#fff"/><path d="M151.583 107.966h11.593v49.031h15.11v10.934h-26.703zm13.82 0h12.883l12.18 24.568 11.829-24.568h12.766l-19.209 38.141v21.824h-11.24v-21.824zm112.678 16.537c-5.091-9.701-15.261-16.32-26.98-16.32-16.817 0-30.452 13.632-30.452 30.452s13.632 30.45 30.452 30.45c11.8 0 22.033-6.712 27.089-16.527l-13.798.114a19.03 19.03 0 0 1-12.94 5.053c-10.546 0-19.09-8.547-19.09-19.093s8.544-19.089 19.09-19.089c4.922 0 9.41 1.862 12.793 4.922z" style="fill:#fff;fill-rule:nonzero"/><path d="M308.213 169.245c-16.904 0-30.607-13.706-30.607-30.61s13.706-30.61 30.607-30.61c16.91 0 30.613 13.706 30.613 30.61.002 16.907-13.703 30.61-30.613 30.61m19.489-30.61c0-10.695-8.675-19.367-19.369-19.367-10.695 0-19.367 8.672-19.367 19.367s8.669 19.367 19.367 19.367c10.694 0 19.369-8.672 19.369-19.367m99.255-30.661c10.146.814 18.129 9.31 18.129 19.668 0 10.355-7.98 18.851-18.129 19.665l-8.767-.041v20.665h-11.243v-59.965h11.243zm-8.764 11.533v16.266l8.767-.008a8.265 8.265 0 0 0 6.736-8.123 8.266 8.266 0 0 0-6.736-8.126zm150.421 49.203h-11.129v-60.229l15.462-.021 8.764.005c10.146.815 18.129 9.31 18.129 19.668 0 8.46-5.33 15.68-12.813 18.482L600 168.707h-12.177l-18.183-31.066h-1.026zm13.103-32.453a8.269 8.269 0 0 0 0-16.25h-13.101v16.261zm-121.978 6.358.008 8.767c.72 3.837 4.081 6.737 8.124 6.737a8.27 8.27 0 0 0 8.126-6.737l.008-8.767.03-34.131h11.512v34.131l-.011 8.767c-.815 10.149-9.307 18.126-19.665 18.126-10.356 0-18.848-7.977-19.666-18.126l.041-8.767-.019-34.131h11.555zm39.306 26.095h11.363v-48.877h10.187v-11.352h-31.389v11.352h9.839zm55.515 0h-31.215v-60.229h31.215v11.026h-20.026v14.301h20.026v11.246h-20.026v12.53h20.026z" style="fill:#fff;fill-rule:nonzero"/></g></g></svg>