<svg xmlns="http://www.w3.org/2000/svg" xml:space="preserve" style="fill-rule:evenodd;clip-rule:evenodd;stroke-linejoin:round;stroke-miterlimit:2" viewBox="0 0 560 320"><path d="M.95.03h559.24v320H.95z" style="fill:#4f7fbf"/><g transform="translate(30 79.583)scale(.83333)"><clipPath id="a"><path d="M0 0h600v193H0z"/></clipPath><g clip-path="url(#a)"><path d="m11.738 68.744 30.045-.031c12.293 0 22.254-9.931 22.254-22.168 0-12.261-9.961-22.193-22.254-22.193l-7.803.043a1.12 1.12 0 0 1-1.113-1.125 1.12 1.12 0 0 1 1.113-1.126l29.991.007.012-9.409H33.974c-5.802 0-10.522 4.713-10.522 10.504 0 5.796 4.719 10.491 10.522 10.491l7.84.103c7.043 0 12.742 5.68 12.742 12.688 0 7.012-5.699 12.705-12.742 12.705H11.75z" style="fill:#fff;fill-rule:nonzero"/><path d="M11.75 57.024h30.064c5.82 0 10.527-4.695 10.527-10.497 0-5.796-4.707-10.486-10.527-10.486l-7.84-.084c-7.031 0-12.736-5.687-12.736-12.712 0-7.006 5.705-12.693 12.736-12.693l30.009-.007-.012-9.444H33.98c-12.279 0-22.254 9.92-22.254 22.169s9.975 22.174 22.254 22.174l7.761.013c.59 0 1.088.481 1.088 1.088 0 .597-.498 1.077-1.088 1.077l-30.003.024zm75.581 2.269c-5.212 0-9.482-4.155-9.482-9.458V19.821c0-5.103 4.27-9.3 9.482-9.3l32.07.006V1.101h-32.07c-10.436 0-18.89 8.423-18.89 18.823v29.911c0 10.401 8.454 18.837 18.89 18.837l31.936.013-.006-9.403z" style="fill:#fff;fill-rule:nonzero"/><path d="M80.148 19.924c0-3.977 3.2-7.2 7.183-7.2h32.07v9.439h-27.63c-2.214 0-2.244 2.195-2.244 2.195h23.051v9.397H80.137zm7.183 37.082c-3.971 0-7.195-3.205-7.195-7.171V35.993h32.441v9.415H89.526c.031 2.214 2.244 2.225 2.244 2.225h27.496l-.006 9.361zm54.544 2.263c-5.194 0-9.439-4.233-9.439-9.434V19.924c0-5.207 4.214-9.403 9.414-9.403h31.061v-9.42h-31.133c-10.432 0-18.886 8.423-18.886 18.823v29.911c0 10.401 8.527 18.837 18.958 18.837l31.061.013V24.358h-26.693v9.397h17.26v25.514z" style="fill:#fff;fill-rule:nonzero"/><path d="M134.649 49.835c0 3.985 3.224 7.226 7.201 7.226h19.402v-21.08h-15.011v9.427h5.571l.017 2.214h-5.546c-1.21 0-2.201-1.003-2.201-2.214l-.05-21.056s-.006-2.189 2.226-2.244h26.664l-.012-9.391-31.062.007c-3.95 0-7.2 3.25-7.2 7.2zm67.45-37.252A3.08 3.08 0 0 1 205 10.526a3.08 3.08 0 0 1 2.901 2.057l15.078 44.544H200.9l.024-10.478h7.378l-3.322-9.872-10.819 31.9h-11.13z" style="fill:#fff;fill-rule:nonzero"/><path d="M226.018 59.269h-25.081v9.408h38.17L219.255 9.943C217.516 4.214 211.781 0 204.992 0c-6.799 0-12.515 4.196-14.268 9.92l-20.033 58.757h9.993l19.45-57.115a5.25 5.25 0 0 1 4.842-3.224 5.28 5.28 0 0 1 4.847 3.212z" style="fill:#fff;fill-rule:nonzero"/><path d="M532.135 188.836c0-.184 8.121-51.409 9.554-60.975 3.504-23.403 4.08-26.654 6.56-28.915 3.007-2.74 3.721-2.352 17.382-2.182 12.084.151 12.668.039 17.556 2.231 4.596 2.061 10.118 7.664 12.395 11.538 5.982 10.172 5.179 19.346 1.783 27.704-2.36 5.808-9.707 11.355-12.182 12.614 2.727 1.418 4.847 3.677 5.501 7.083.302 1.575 6.263 29.435 6.263 30.902.226-.036-19.198 0-19.198 0s-1.384-7.275-2.705-13.632c-3.108-14.962-3.799-17.121-7.988-18.528-1.977-.664-10.086-.533-10.086-.533l-5.134 32.693s-19.701.184-19.701 0m38.456-51.503c4.914-1.459 9.201-6.541 9.201-11.257 0-4.042-2.271-8.53-5.852-10.157-2.551-1.159-10.443-.643-10.443-.643l-3.515 22.765s7.595.187 10.609-.708M31.692 191.78c-7.838-1.705-13.981-5.186-19.557-11.081C6.072 174.29 1.95 165.774.47 156.599c-.976-6.048-.38-16.656 1.301-23.146 1.838-7.099 6.121-15.664 10.641-21.276 7.227-8.974 17.732-16.076 27.209-17.71 9.46-1.632 16.45-1.108 25.184 3.249 5.096 2.541 6.85 3.733 10.627 7.477 4.478 4.437 7.417 8.268 9.852 12.979.081-.013-16.356 8.46-16.374 8.461-1.42-2.538-5.803-8.021-7.99-9.749-3.976-3.144-8.309-4.919-13.657-4.698-3.52.145-5.738 1.101-8.206 2.251-6.778 3.155-11.976 9.238-15.97 17.367-2.883 5.866-4.197 11.393-4.197 17.649 0 8.607 2.108 14.181 7.178 18.976 10.129 9.579 24.522 6.392 33.376-7.391 1.058-1.647 2.65-4.753 2.65-4.753H40.958l7.229-17.445s1.998.122 17.263 0c15.053-.12 15.693-.109 18.101 3.444 1.093 1.614 1.332 2.621 1.083 5.619-.381 4.577-2.786 11.889-5.359 17.301-9.195 19.35-29.266 30.559-47.583 26.576m324.796-1.872c-7.838-1.704-13.982-5.185-19.558-11.08-6.063-6.41-10.184-14.926-11.664-24.101-.976-6.048-.38-16.656 1.3-23.145 1.838-7.099 6.122-15.664 10.642-21.277 7.227-8.974 17.731-16.075 27.208-17.71 9.461-1.632 16.451-1.107 25.185 3.249 5.096 2.542 6.85 3.734 10.627 7.477 4.478 4.438 7.417 8.268 9.852 12.98.081-.014-16.356 8.46-16.374 8.461-1.421-2.539-5.803-8.021-7.99-9.75-3.977-3.143-8.309-4.918-13.657-4.698-3.52.145-5.738 1.102-8.207 2.251-6.777 3.156-11.975 9.238-15.969 17.367-2.883 5.867-4.198 11.394-4.198 17.649 0 8.607 2.109 14.181 7.179 18.976 10.128 9.579 24.522 6.392 33.376-7.39 1.058-1.648 2.65-4.754 2.65-4.754h-21.137l7.23-17.445s1.998.122 17.263 0c15.052-.12 15.693-.109 18.1 3.444 1.094 1.614 1.333 2.622 1.084 5.619-.382 4.577-2.786 11.889-5.359 17.302-9.196 19.349-29.266 30.559-47.583 26.575m-173.481-.15c-4.307-1.74-5.372-8.466-7.864-23.465-1.871-11.265-3.347-17.629-3.544-16.814-.175.722-6.166 40.984-6.166 40.984h-19.079s11.828-79.617 12.577-82.276c.924-3.278 4.126-7.432 7.251-8.945 3.199-1.548 7.52-1.474 10.795.185 2.942 1.491 5.739 4.565 6.549 7.053.313.964 7.741 44.261 7.849 44.37s3.473-6.717 7.475-15.168c15.182-32.054 15.689-33.484 20.248-35.844 4.724-2.446 12.386-.836 15.653 3.607 2.971 4.04 3.06 5.784 1.181 18.587-4.048 27.573-10.111 67.971-10.111 67.971h-18.268s5.167-38.303 5.093-38.508c-.14-.386-8.355 16.522-13.445 27.671-4.267 9.346-5.761 10.963-10.72 11.604-1.766.228-3.068-.04-5.474-1.012m58.102-1.003q-4.166-3.205-4.166-7.68c0-3.831 10.532-75.304 11.321-76.831 1.274-2.463 3.762-4.517 6.221-5.136 1.56-.393 43.417 0 43.417 0l-2.587 17.291h-29.28l-3.073 18.413h24.861l-2.903 18.65h-24.955l-2.689 18.196h29.193l-2.795 19.05s-9.053-.246-20.156-.246c-20.188 0-20.188 0-22.409-1.707m173.138-1.872q-4.167-3.204-4.167-7.679c0-3.832 10.532-75.304 11.321-76.831 1.274-2.463 3.762-4.518 6.222-5.137 1.559-.393 43.417 0 43.417 0l-2.588 17.291h-29.279l-3.073 18.414h24.86l-2.903 18.65h-24.955l-2.689 18.195h29.193l-2.795 19.05s-9.052-.245-20.156-.245c-20.188 0-20.188 0-22.408-1.708m-340.187 3.34c0-.373 32.791-79.49 34.583-83.44 1.684-3.712 3.944-6.212 7.118-7.871 3.094-1.617 9.119-2.057 12.418-.391 3.04 1.536 5.835 4.439 7.187 7.064 1.136 2.206 1.455 6.847 5.511 58.869.879 11.27 2.215 26.009 2.215 26.009l-18.721-.095-1.867-17.735h-20.242l-7.301 17.59s-20.901.144-20.901 0m36.038-36.567 10.384-.051s-2.127-19.697-2.187-19.638c-.076.076-8.197 19.689-8.197 19.689m349.357 34.695c0-.373 32.792-79.489 34.584-83.44 1.683-3.712 3.944-6.211 7.117-7.87 3.094-1.618 9.119-2.058 12.418-.391 3.04 1.535 5.835 4.438 7.187 7.063 1.136 2.206 1.456 6.847 5.512 58.869.878 11.271 2.214 26.009 2.214 26.009l-18.721-.094-1.867-17.736h-20.241l-7.301 17.591s-20.902.143-20.902 0zm36.039-36.566 10.384-.052s-2.128-19.697-2.188-19.637c-.075.075-8.196 19.689-8.196 19.689" style="fill:#fff"/><path d="M284.79 28.079C298.045 10.753 314.668.906 321.924 6.046c7.238 5.156 2.364 23.383-10.91 40.694-13.257 17.327-29.878 27.172-37.115 22.033-7.257-5.156-2.366-23.382 10.891-40.694m61.361 0C359.406 10.753 376.029.906 383.285 6.046c7.238 5.156 2.364 23.383-10.91 40.694-13.257 17.327-29.878 27.172-37.116 22.033-7.256-5.156-2.365-23.382 10.892-40.694m61.361 0C420.767 10.753 437.39.906 444.646 6.046c7.238 5.156 2.363 23.383-10.91 40.694-13.257 17.327-29.878 27.172-37.116 22.033-7.256-5.156-2.365-23.382 10.892-40.694" style="fill:#fff;fill-rule:nonzero"/></g></g></svg>