<svg xmlns="http://www.w3.org/2000/svg" xml:space="preserve" style="fill-rule:evenodd;clip-rule:evenodd;stroke-linejoin:round;stroke-miterlimit:2" viewBox="0 0 560 320"><path d="M.95.03h559.24v320H.95z" style="fill:#8fbc8f"/><g transform="translate(30 100.833)scale(.83333)"><clipPath id="a"><path d="M0 0h600v142H0z"/></clipPath><g clip-path="url(#a)"><path d="M517.119 38.06h25.431l12.562 28.891 18.837-28.891H600l-36.732 57.146-5.964 44.586h-23.545l6.906-50.872zM329.987 139.792l3.14-22.617H297.34l2.198-17.573h31.078l3.144-22.607h-30.768l2.199-16.33h35.785l3.456-22.605h-59.339l-14.129 101.732zm-211.3-50.246 7.849-21.033 2.514 21.033zm-8.476 20.095h21.349l3.771 30.141h38.617l17.896-55.259 8.794 55.259h20.408l22.605-58.398 3.769 58.398h22.605l-6.281-101.726h-27.002l-21.034 53.687-8.166-53.687h-24.174l-27.628 83.516-10.362-83.516h-30.142L81.64 122.511l4.397-32.966H45.221l-2.828 20.095h17.899l-1.258 6.907c-3.14 1.881-10.36 2.196-13.186 2.196-2.825 0-23.86-1.882-22.919-24.489.941-22.605 31.082-43.641 66.874-32.024l3.457-21.665C69.396 32.404 6.724 36.972.322 93c-3.767 32.965 26.375 48.664 46.467 48.353 11.618.629 24.806-3.769 29.514-6.281l-1.568 4.71h23.862z" style="fill:#fff;fill-rule:nonzero"/><path d="M491.684 37.119c-16.328-.628-39.876 8.791-47.724 46.783-7.849 37.988 13.185 53.373 32.651 55.885 19.47 2.511 46.784-9.733 51.807-46.153 5.025-36.422-12.876-55.572-36.734-56.515m-2.512 21.665c6.592 0 20.72 4.396 17.266 30.767-3.455 26.373-19.78 29.513-25.746 28.884-5.968-.629-18.21-4.707-14.756-28.884 3.452-24.174 16.324-31.082 23.236-30.767" style="fill:#fff;fill-rule:nonzero"/><path d="M392.466 76.995h13.188c9.734 0 11.617-6.28 11.929-8.789.314-2.514-2.51-7.538-7.533-7.538h-15.385zm-5.65 40.187h17.898c9.73 0 11.928-7.534 12.239-10.047.316-2.512-2.509-7.532-7.532-7.532h-20.092zm-26.372 22.607 14.129-101.726h43.326c10.364 0 25.433 11.932 23.55 27.944s-6.908 16.954-10.362 19.466c5.339 4.706 10.676 12.243 8.479 26.371-2.199 14.132-13.816 27.944-34.224 27.944z" style="fill:#fff;fill-rule:nonzero"/><path d="M39.113 9.517h8.161v18.048h-8.161zm53.537.033V6.866h-4.422v-3.65h-8.167l.006 3.653-4.442.003V9.55h4.439l-.007 18.016h8.177L88.228 9.55zm-66.592 9.802L14.357.426H5.903l-.004 27.14h8.405V8.639l11.761 18.927h8.375V.426h-8.389zM132.716 8.685a9.84 9.84 0 0 0-6.513 2.721c-.006-.445 0-1.895 0-1.895l-8.097.003-.004 18.048h8.101l-.006-11.856c0-1.572 1.651-3.322 3.874-3.322 2.226 0 3.728 1.75 3.728 3.322v11.856h8.111s-.003-8.55 0-9.821c.046-7.147-6.146-9.145-9.194-9.056m-66.331 0a9.83 9.83 0 0 0-6.509 2.721c-.007-.445 0-1.895 0-1.895l-8.111.003.006 18.048h8.105l-.007-11.856c0-1.572 1.651-3.322 3.874-3.322s3.729 1.75 3.729 3.322v11.856h8.11s-.009-8.55 0-9.821c.043-7.147-6.149-9.145-9.197-9.056m115.76-.403c-6.589 0-11.929 4.541-11.929 10.136 0 5.598 5.34 10.135 11.929 10.135 6.588 0 11.929-4.537 11.929-10.135 0-5.595-5.341-10.136-11.929-10.136m3.273 13.937c0 2.876-1.701 4.062-3.336 4.062-1.638 0-3.345-1.186-3.345-4.062l.003-3.894.003-3.765c0-2.86 1.711-4.039 3.336-4.039 1.631 0 3.335 1.179 3.335 4.039 0 1.097 0 3.118.01 3.845 0 .042-.006 2.727-.006 3.814m-25.915-11.81c-1.301-.733-2.682-1.44-4.617-1.608-5.882-.519-10.38 4.683-10.38 9.448 0 6.282 4.851 8.607 5.585 8.95 2.747 1.278 6.271 1.282 9.395-.68l.004 1.043h8.068V.426h-8.055zm.059 8.038s.004 2.045.004 3.204c0 2.787-1.932 3.517-3.204 3.517-1.295 0-3.197-.73-3.197-3.517 0-.958.004-3.21.004-3.21s-.004-2.292-.004-3.217c0-2.794 1.902-3.504 3.2-3.504 1.269 0 3.197.71 3.197 3.504zm-43.93.169c0-5.595-5.406-10.231-12.044-10.231-6.635 0-12.018 4.534-12.018 10.132 0 5.594 5.383 10.132 12.018 10.132 5.512 0 10.158-3.141 11.578-7.404l-8.134.006s.007.08.007 1.093c0 3.303-2.17 4.036-3.378 4.036-1.203 0-3.412-.733-3.412-4.036 0-.987.007-3.725.007-3.725s15.376.007 15.376-.003m-14.841-6.348c.637-1.112 1.809-1.644 2.87-1.648 1.063.004 2.235.536 2.869 1.648.522.902.545 1.959.535 3.537h-6.813c-.013-1.578.02-2.635.539-3.537M39.093.416h8.18v5.548h-8.18z" style="fill:#fff"/></g></g></svg>