<svg xmlns="http://www.w3.org/2000/svg" xml:space="preserve" style="fill-rule:evenodd;clip-rule:evenodd;stroke-linejoin:round;stroke-miterlimit:2" viewBox="0 0 560 320"><path d="M.95.03h559.24v320H.95z" style="fill:#9370db"/><g transform="translate(30 -8.833)scale(.83333)"><clipPath id="a"><path d="M0 0h600v302H0z"/></clipPath><g clip-path="url(#a)"><path d="m0 301.984 57.51-97.759 156.825-.129 14.838 25.604 13.405-25.316 108.27.045 26.878 21.064v-21.064h203.783v97.379H393.444l-27.33-21.25v21.261l-152.343-.011v.023l-10.354-16.767c-8.352 9.379-23.32 16.755-47.852 16.755 0 0-78.988-.027-122.091.165zm272.367-81.527h-19.784l-.541.975-22.672 41.175-24.041-41.209-.547-.941H183.52l1.743 2.87 4.089 6.745c-6.554-6.237-16.603-9.615-29.67-9.615h-42.777v53.525l-31.683-52.55-.553-.919H68.308l-.552.931-36.043 60.727-1.692 2.854h14.167v.022h31.497v-14.262H57.153l18.555-33.449 26.196 46.73.541.959h21.109l-.034-.062h32.428c27.956 0 42.139-10.919 42.139-32.462 0-3.739-.485-7.191-1.415-10.332l25.378 41.886.553.908h12.356l.542-.948 35.219-60.722zm59.848 0v53.576l-31.729-52.629-.558-.919h-16.361l-.547.925-36.043 60.727-1.692 2.859h19.22l.045-.067h26.445v-14.263h-18.538l18.521-33.369 26.19 46.729.541.97h21.115l-.017-.033h10.671v-38.897l48.32 38.485.513.412h12.7v-64.506h-17.065v38.366l-48.495-37.966-.513-.4zm163.78.017v64.489h69.649v-15.041h-50.982V258.62h29.292v-14.234h-29.292v-9.317h50.266v-14.595zm-23.839 0h-37.819c-13.27 0-17.742 4.105-17.742 16.27v31.96c0 12.136 4.472 16.247 17.742 16.247h37.819c13.287 0 17.776-4.111 17.776-16.247v-9.058l-1.883-.011-14.883-.034h-1.906v9.932h-36.038v-34.052h36.038v8.961l1.894.011 14.878.051 1.9.006v-7.766c0-12.317-4.32-16.27-17.776-16.27m-319.377 49.448h-17.212v-34.831h24.256c13.117 0 19.231 5.307 19.231 16.688 0 13.552-6.633 18.143-26.275 18.143" style="fill:#fff;fill-rule:nonzero"/><path d="M546.306 219.007h-52.279l1.196-7.557c-.519.344-1.032.716-1.563 1.038-12.046 7.54-25.885 10.01-38.941 7.004-10.011-2.312-18.667-7.653-25.441-15.012-8.78 8.668-20.624 14.347-31.892 14.347l-256.715.18-4.112-23.421-10.551 23.421H83.209c-13.496 2.29-27.076.305-39.145-5.882-16.739-8.555-27.77-24.07-29.507-41.479-2.904-28.977 8.2-52.11 32.084-66.886 22.953-14.206 47.322-16.992 72.452-8.279l4.625 1.613 1.76-3.993h47.959l3.626 21.774 7.078-21.774 219.799-.113c13.969 0 22.609 6.108 30.815 15.876 2.994-2.837 6.226-5.381 9.683-7.546 8.657-5.409 18.238-8.161 27.781-8.2L600 94.101l-46.874 79.68zM479.465 110.93c-20.956-4.839-42.708 11.86-48.574 37.311-5.882 25.441 6.356 49.984 27.313 54.829s42.709-11.855 48.58-37.301c5.871-25.44-6.362-50.001-27.319-54.839m-234.219-.796-21.43 50.424-9.249-50.424h-18.701L171.7 184.532l-12.396-74.398h-23.326l-35.32 80.156 5.267-33.51h-35.09l-2.684 17.246h14.663l-1.681 9.243c-8.409 3.35-22.699 2.092-28.79-8.832-3.858-6.919-7.439-22.378 8.82-36.567 13.236-11.561 36.145-13.654 49.381-7.563 0 0 1.68-9.672 2.944-18.701-25.424-8.837-45.179-1.472-58.41 6.728-18.024 11.156-26.698 28.153-24.38 51.265 2.673 26.822 37.402 43.712 66.818 26.692.271-.158.474-.276.671-.395l-2.769 6.277h19.75l12.402-27.527h21.853l4.834 27.527h32.151l16.383-51.484 10.518 51.484h12.61l24.589-56.943 2.51 56.943h18.915l-3.987-92.039zm285.788 30.048-11.764-30.048h-21.651l22.271 48.541-6.852 43.498h18.915l5.809-38.451 34.041-53.588h-22.068zm-257.629 61.991h52.742l3.163-19.75h-33.008l2.622-16.394h28.695l3.158-19.75h-29.005l2.521-16.395h32.992l3.152-19.75h-52.324zm131.065-91.52c-10.219-.169-35.457 0-35.457 0h.209l-14.595 91.328h42.539c17.523 0 43.138-25.818 19.818-46.899 23.98-24.825.209-44.215-12.514-44.429m82.395 54.377c-5.104 15.318-17.353 24.099-27.358 19.621-9.999-4.478-13.975-20.512-8.866-35.823 5.099-15.317 17.342-24.093 27.347-19.615 10.005 4.467 13.981 20.512 8.877 35.817m-93.455 19.243h-16.682l2.927-18.363h15.848c15.012 0 14.595 18.363-2.093 18.363M135.133 156.78l7.985-17.855 3.463 17.855zm260.573-9.633h-13.141l2.922-17.105h12.305c13.349 0 10.637 17.105-2.086 17.105" style="fill:#fff;fill-rule:nonzero"/><path d="M127.364 187.416h17.764v25.383h-17.764zm92.338 20.631h17.764v25.383h-17.764zm148.589 0h17.764v25.383h-17.764z" style="fill:#fff"/></g></g></svg>