<svg xmlns="http://www.w3.org/2000/svg" xml:space="preserve" style="fill-rule:evenodd;clip-rule:evenodd;stroke-linejoin:round;stroke-miterlimit:2" viewBox="0 0 560 320"><path d="M.95.03h559.24v320H.95z" style="fill:#1e90ff"/><path d="M402.422 89.544h61.112v24.321l-21.822 14.758h-67.456l22.347-14.97h39.49v-9.143h-61.112V80.706l22.559-15.274h67.348l-22.247 14.962h-40.219zm69.638-24.112h27.437v63.191H472.06zm65.474 24.112h61.112v24.321l-21.83 14.758h-67.448l22.347-14.97h39.495v-9.143h-61.113V80.706l22.551-15.274H600l-22.246 14.962h-40.22z" style="fill:#fff" transform="translate(30 106.25)scale(.83333)"/><path d="M315.538 113.653v-9.143h26.288l22.346-14.966h-48.634v-9.15h39.591l22.247-14.962h-65.374l-23.904 14.657v48.534h66.519l22.446-14.97zm-192.067 0v-9.143h26.295l22.342-14.966h-48.637v-9.15h39.595l22.242-14.962h-65.374l-23.9 14.657v48.534h66.515L185 113.653zm129.497-6.023L218.88 86.425v42.198h-27.441V65.432h27.853l33.676 18.498V65.432h27.441v63.191h-27.441zM27.437 80.394v33.259h34.088v-9.143H33.672l22.242-14.966h33.052v24.946l-20.997 14.133H0V80.818l22.759-15.386h74.416L75.037 80.394z" style="fill:#fff" transform="translate(30 106.25)scale(.83333)"/><path d="m219.249 49.726 21.342-.022c8.732 0 15.808-7.054 15.808-15.747 0-8.709-7.076-15.765-15.808-15.765l-5.543.03a.796.796 0 0 1-.791-.799c0-.44.355-.799.791-.799l21.304.004.009-6.683h-21.317c-4.121 0-7.475 3.348-7.475 7.461 0 4.118 3.353 7.453 7.475 7.453l5.569.073c5.003 0 9.051 4.035 9.051 9.013 0 4.981-4.048 9.025-9.051 9.025h-21.356z" style="fill:#fff;fill-rule:nonzero" transform="translate(30 106.25)scale(.83333)"/><path d="M219.257 41.401h21.356c4.134 0 7.478-3.335 7.478-7.457 0-4.117-3.344-7.448-7.478-7.448l-5.569-.061c-4.994 0-9.047-4.039-9.047-9.029 0-4.977 4.053-9.017 9.047-9.017l21.317-.004-.009-6.709h-21.304c-8.722 0-15.808 7.046-15.808 15.747s7.086 15.752 15.808 15.752l5.513.009c.419 0 .773.341.773.773a.773.773 0 0 1-.773.765l-21.312.017zm53.689 1.611c-3.703 0-6.736-2.951-6.736-6.718v-21.32c0-3.625 3.033-6.606 6.736-6.606l22.781.004V1.676h-22.781c-7.413 0-13.419 5.983-13.419 13.371v21.247c0 7.389 6.006 13.381 13.419 13.381l22.686.009-.005-6.68z" style="fill:#fff;fill-rule:nonzero" transform="translate(30 106.25)scale(.83333)"/><path d="M267.844 15.047a5.1 5.1 0 0 1 5.102-5.115h22.781v6.705H276.1c-1.572 0-1.594 1.56-1.594 1.56h16.374v6.675h-23.044zm5.102 26.341c-2.821 0-5.111-2.277-5.111-5.094v-9.833h23.045v6.689h-16.375c.022 1.572 1.594 1.58 1.594 1.58h19.532l-.004 6.649zm38.745 1.607c-3.69 0-6.705-3.007-6.705-6.701V15.046a6.677 6.677 0 0 1 6.687-6.679h22.065V1.676h-22.116c-7.41 0-13.415 5.983-13.415 13.371v21.247c0 7.389 6.057 13.381 13.466 13.381l22.065.009V18.197h-18.962v6.675h12.261v18.123z" style="fill:#fff;fill-rule:nonzero" transform="translate(30 106.25)scale(.83333)"/><path d="M306.558 36.294c0 2.831 2.29 5.133 5.115 5.133h13.782V26.453h-10.663v6.697h3.958l.012 1.572h-3.939c-.86 0-1.564-.713-1.564-1.572l-.035-14.958s-.005-1.555 1.581-1.594h18.94l-.008-6.671-22.065.005c-2.806 0-5.115 2.309-5.115 5.115zm47.914-26.462a2.19 2.19 0 0 1 2.061-1.461c.925 0 1.754.588 2.06 1.461l10.711 31.642H353.62l.017-7.443h5.241l-2.36-7.012-7.686 22.659h-7.906z" style="fill:#fff;fill-rule:nonzero" transform="translate(30 106.25)scale(.83333)"/><path d="M371.462 42.995h-17.816v6.683h27.114L366.658 7.957c-1.235-4.069-5.309-7.063-10.131-7.063-4.83 0-8.891 2.98-10.136 7.046L332.16 49.679h7.099l13.817-40.572a3.725 3.725 0 0 1 3.439-2.29 3.75 3.75 0 0 1 3.443 2.281z" style="fill:#fff;fill-rule:nonzero" transform="translate(30 106.25)scale(.83333)"/></svg>