<svg xmlns="http://www.w3.org/2000/svg" xml:space="preserve" style="fill-rule:evenodd;clip-rule:evenodd;stroke-linejoin:round;stroke-miterlimit:2" viewBox="0 0 560 320"><path d="M.95.03h559.24v320H.95z" style="fill:#ff0015"/><path d="M157.62 15.767c-2.55 8.57-4.958 17.139-7.508 25.709h14.944zM151.387 3.09c2.62-3.399 8.144-3.966 11.332-1.133 1.345 1.133 2.266 2.691 2.762 4.32l18.059 62.041h-10.623c-1.7-5.666-3.328-11.403-4.957-17.14h-20.539c-1.7 5.737-3.329 11.403-4.958 17.14h-10.552c5.736-19.76 11.402-39.449 17.139-59.137.566-2.125.85-4.391 2.337-6.091m73.797 38.386h14.872c-2.478-8.57-4.957-17.21-7.436-25.779-2.479 8.64-4.957 17.209-7.436 25.779m.85-37.961c1.841-2.692 5.453-3.966 8.57-3.187 2.903.638 5.098 3.116 5.807 5.949 6.019 20.68 12.04 41.29 18.06 61.97h-10.624a1562 1562 0 0 0-4.958-17.14h-20.538c-1.629 5.738-3.329 11.403-4.957 17.14h-10.553l17.21-59.491c.638-1.7.849-3.683 1.983-5.241M175.538.257h38.456v10.411H199.83v57.65h-10.128v-57.65h-14.164zm94.264.425c.992-.354 1.983-.425 3.046-.425h12.11c6.799.141 13.315 4.32 16.29 10.481 2.053 3.967 2.266 8.641 1.77 12.961-.354 4.604-2.267 9.137-5.808 12.182-1.841 1.629-4.178 2.691-6.161 4.107-1.063.85-1.133 2.479-.567 3.613 5.382 8.286 10.977 16.43 16.431 24.646h-12.04c-5.241-7.861-10.411-15.793-15.652-23.726-1.558-2.266-1.982-5.241-1.062-7.79.708-1.983 2.408-3.4 4.32-4.179 3.683-1.416 7.224-3.612 9.278-7.011 1.558-2.62 1.487-5.808.779-8.64-.779-3.683-4.391-6.587-8.215-6.445h-7.862c-1.204 0-2.266.991-2.266 2.195v55.525h-10.198V8.402c0-3.4 2.479-6.657 5.807-7.72m42.422-.425h10.766v68.061h-10.766zM70.69.158h5.154v12.154c.032 3.37-.065 6.741-.227 10.144-.227 4.862-.551 9.756-1.329 14.585-.551 3.306-1.718 6.515-3.144 9.562-2.333 4.894-5.963 9.042-10.08 12.543-3.662 3.241-8.07 5.574-12.672 7.195a42.3 42.3 0 0 1-8.038 1.977V58.141c3.305-.486 6.449-1.653 9.399-3.209 3.5-1.847 6.612-4.311 9.269-7.26 2.723-3.014 4.894-6.515 6.547-10.21 1.945-4.278 2.982-8.88 3.695-13.482.875-5.867 1.264-11.798 1.394-17.729.032-2.075.032-4.084.032-6.093m7.261 0c3.176-.033 6.32 0 9.496 0v68.095h-9.496c-.033-7.228 0-14.488-.033-21.715.033-15.46.033-30.921.033-46.38m11.603 0h5.121c-.065 6.936.194 13.839 1.004 20.743.681 5.347 1.621 10.728 3.76 15.686 2.01 4.83 4.926 9.302 8.719 12.9 3.629 3.436 8.005 6.093 12.769 7.617a29 29 0 0 0 4.084.972v10.177c-2.722-.356-5.38-1.07-7.973-1.945-3.079-1.069-6.061-2.463-8.815-4.245-2.01-1.297-3.825-2.82-5.575-4.441-2.885-2.657-5.445-5.672-7.39-9.107-1.523-2.658-2.625-5.543-3.5-8.46-.778-2.949-1.135-5.996-1.427-9.042-.583-6.547-.81-13.127-.777-19.706zm30.388 119.902c.816.2 1.2-.64 1.799-.999.96-.576 9.97-3.398 10.066-3.502.912-.904-.455-3.11.328-3.598.84-.528 2.607-.28 3.302-.696 3.478-2.087 8.707-2.182 12.097-4.301 1.039-.656 2.023-2.367 3.094-2.799 2.207-.879 4.917-.847 7.3-1.798 1.231-.496 1.567-2.447 2.302-3.302 1.392-1.624 2.951-1.983 4.598-3.295 2.366-1.902-9.083.376-4.901-3.805 4.013-4.014 20.227-2.431 21.795-3.998l.295-.496c1.096-1.095 3.798.216 3.798-2.798v-.999c-.128-.088-10.426 1.007-11.193 1.199-6.724 1.679-15.391.903-21.691 2.798-2.727.816-16.774 3.031-17.806 4.062l-2.486 1.735c-11.689 2.334-23.498 3.646-35.195 5.597-5.797.967-14.264 1.231-19.325 2.918-4.621 1.543-12.064 1.903-16.662 3.182-3.614 1.007-13.792-1.167-16.99.2-.735.312-1.487 3.909-1 4.397.432.44 1.76.328 2.296.704.471.328 1.302.743.999 1.495-.408 1.015-4.526-.192-5.596 1.599-1.304 2.175 3.309 5.181 4.1 6.5 1.216 2.023-3.566 2.934-2.501 5.597h1.998c1 0 1.847.319 2.502 1.303l.872.695c1.91 2.703 46.413-4.797 46.413-4.797S81.549 233.776 28.973 239.62c-12.002 1.336-24.737-14.079-25.594-14.399-.79-.296-2.333-.368-2.845.016-.512.392-1.079 2.798.504 4.597 5.98 6.804 23.777 21.412 41.527 20.98 55.183-1.327 77.377-130.754 77.377-130.754" style="fill:#fff;fill-rule:nonzero" transform="translate(30 38.75)scale(.83333)"/><path d="m144.928 168.687-.096-.04c0-3.006 6.796-12.609 7.899-16.998v-.104c.735-.368.959-2.814 1.199-2.998 1.967-1.471 5.133-8.427 8.099-11.393l3.198-3.102c.216-.216.68-.416.896-.2.52.519-.12 9.778-.296 10.681-.576 2.855.36 11.809-.2 13.112-.599 1.408-3.07 2.111-5.628 3.502-3.47 1.895-7.412 4.326-9.771 4.798-1.319.263-1.119 2.998-5.197 2.998zm-28.887 10.753v.296c0 5.605 3.901 1.703 5.197 2.999.248.247-.112 2.742-.296 3.102-4.613 9.218-8.571 18.804-14.495 27.695-.352.52-.32 1.231-.6 1.799-2.071 4.142-5.301 8.699-6.996 12.089-.648 1.295-.767 2.726-1.503 4.205-.08.16-.4 2.791-.6 2.399 0 3.534-3.693 9.81-2.398 12.392.384.775.176-.615.599-.894.936-.632 2.351-1.136 2.999-2.104.551-.83 1.719-6.348 2.102-6.596 1.392-.926 2.199-2.823 2.199-.304 0 1.16.056 1.919-.304 2.999-.152.455.152 1.055 0 1.503l-.4.895v1.503l.4-.599.304-.6c.168-.336.056-.712.296-1.199.448-.895.12-.688.104-.704 0-.008.096-.096.496-.496.735-.735.159-2.262.903-2.998.336-.344 1.991-3.182 2.399-3.997l1.798-3.302c.288-.584.48-1.616.896-1.2 2.151 2.151 1.631 7.82.6 10.898-.096.288-.744 1.951-.6 2.094.2.2.352-.471.6-.599 2.822-1.407.751-4.446 1.503-5.197 2.878-2.878 3.326-8.122 6.3-11.097 4.997-4.997 14.335-37.226 19.092-41.983 3.774-3.774 24.122-8.131 27.992-11.993 2.51-2.519 2.398 4.525 2.398 5.397 0 2.446-.144 21.572 0 21.986.648 1.943 1.783 3.055 2.399 4.902.951 2.862-.864 14.127 2.199 17.197.439.44.271-.575.303-.599.376-.384 1.496-3.055 1.496-3.702 0-.632.151-2.247.599-1.799.344.336 3.006 9.706 3.302 9.994.64.64-.104 1.895.296 2.702.216.424.823.783.903.896.12.192.2.807.296.607.648-1.295.408-3.214 1.2-4.805.655-1.303.623-4.316 1.503-5.197 1.367-1.367 3.366 3.47 3.598 3.702s1.263 1.136 1.503.896v-6.093c0-9.546 0-62.083.295-62.682.431-.864 2.503-32.821 2.503-36.49 0-4.55-.76-3.454-3.102-5.797-.488-.48-.208-5.005-.304-5.101l-2.399-2.095c-.919-.927-7.515 2.999-10.193 2.999-5.837 0-4.398 1.894-7.3 4.797-.152.16-.44-.144-.6-.296-.623-.632-.599-.656-.599-1.799v-.904c-.448-.223-2.735.728-2.999.904-1.599 1.063-3.006 4.909-3.893 6.692-1.695 3.39-4.31 6.012-6.101 9.602-.719 1.439-1.479 6.668-2.398 7.596-4.43 4.421-12.433 17.565-15.095 22.89-.304.608-1.503 4.797-1.503 4.797-1.272 1.271-7.26 11.681-7.796 13.296-.255.76-4.781 2.607-5.7 2.998-.896.392-2.103.208-2.799.904-.431.432-.183.44-.183.456s-.08.032-.416.143m130.298-72.252-.04-.024h.2c.591.2 1.287.16 1.799.495.503.336.12-.359.599 0 .736.56 2.175 2.087 3.198 2.607.544.264 1.488.096 2.103.096h.8c.288 1.159 3.542 6.644 4.797 7.395.719.432 2.334.416 3.302.904.232.112.759-.016.999.096h.4c0 1.575-3.918 2.686-2.798 3.797 1.663 1.671 2.023 3.67-1.703 4.606-2.783.695-5.925-.376-8.595.695-3.142 1.256-6.308 3.774-9.602 4.598h-.096c-15.679 5.228-32.093 27.447-32.093 44.189v.6c0 11.049 6.54 23.666 16.598 27.687 1.383.56 2.478 2.111 4.197 2.399 1.36.232 3.191 1.103 4.902 1.103 1.199 0 7.939 1.047 8.89.496 2.287-1.303 4.829-2.079 7.1-3.598 1.207-.8.272-4.765-.2-4.997-2.566-1.287-.304-17.086.704-20.092.831-2.495 2.598-6.396 1.199-7.795l-.4-.4c-.096-.096-1.719-.424-1.903-.304-2.118 1.415-8.027.504-8.898.999-3.055 1.743-6.141 3.103-9.195 4.798-.815.455-5.908 3.581-6.5 2.398-.128-.264.648-.743.8-.895.639-.64 1.966-1.999 2.798-2.503 1.767-1.055 3.07-5.924 4.901-7.395 5.229-4.182 14.655-8.563 21.595-10.298.16-.04.424.056.496-.096l.2-.4 3.805-1.703c1.296-.648 2.047-2.47 3.398-2.694 1.128-.192 1.599 1.295 2.399 1.695 2.95 1.479 6.196-1.735 6.196 1.703v2.694c-1.623 1.623-.44 5.781-1.399 7.699-.464.928-4.102 15.103-4.102 15.495 0 .496-1.335 6.516-1.399 6.596-.487.616-.695 16.91-.695 19.093 0 3.262.839 6.02 1.799 8.899.191.582.599 1.663.599 2.198 0 .352.32.377.2.504-.647.648-1.479-.936-1.703-1-5.261-1.503-10.33-10.233-10.498-10.297-2.654-1.064-2.502 3.454-4.597 4.501-1.959.976-4.877 3.638-6.268 5.493-1.599 2.134-18.237 1.982-19.724.503-2.167-2.166-6.285-1.871-8.595-3.597-1.319-.992-14.671-12.92-14.895-13.696-.648-2.271-2.199-5.605-3.302-7.804 0 0-2.311-11.041-2.823-17.893-1.679-22.387 10.746-44.485 26.017-57.582 2.183-1.87 4.589-5.348 7.196-6.396 3.11-1.239 5.804-1.799 9.098-2.894 2.335-.783 5.213-1.159 7.3-2.207.344-.168.919-.615 1.399-.495zm142.715 48.659c.136 0 .991-3.047 1.495-3.902 2.11-3.502 4.309-7.899 6.7-11.089 2.062-2.751 12.288-15.767 9.898-3.806-.496 2.47-1.599 3.662-1.599 6.404 0 5.117-1.208 4.549-4.997 5.493-3.806.951-8.18 6.9-11.497 6.9m-82.575-53.784h-.4c.535.535-.4.399-.4.399-.359.36-1.711 1.552-1.998 2.399-.472 1.415-5.669 7.388-4.798 10.002-.087-.088-1.055.648-1.199.8-.983.983-1.879 3.813-2.798 5.196-.824 1.232-5.637 14.112-6.404 16.391-.16.503.208 1.991 0 2.406-1.559 3.126-3.606 6.42-5.197 9.595-2.303 4.613-3.982 12.768-6.796 18.389-1.847 3.693-3.998 13.2-5.197 20.795-.6 3.789 0 9.785 0 13.2 0 1.207-.016 4.765.4 5.597.168.336.927 1.863 1.199 1.599-.424 1.271 1.927 1.927 2.399 2.398.096.096.935 2.135 1.199 2.399.024.024 1.167.432.799.8 3.814-1.272 9.299 1.798 14.4-1.6 1.063-.712 9.034-5.652 9.194-5.596l1.2-1.599c1.151-1.735 3.382-2.775 4.397-4.797.991-1.983 5.221-8.803 7.196-8.803-3.263.472-.8 19.308-.8 21.595h.8c0 .871.527 4.134 1.599 3.598-.296.895 2.046 2.294 2.798 2.798 4.66 3.11 11.425-4.573 13.2-2.798.288.287-1.735 3.75-1.999 4.797-.24.943-6.22 14.216-7.195 15.199-1 .999-4.006 4.772-4.006 6.396 0 1.095-.168 1.423.4 1.999 0 0-.128.935.408.4v.799c.471-.472 1.567 1.968 1.599 1.999.752.76 5.316-1.239 4.797-2.798.479.479.711-1.439 1.199-1.599 1.839-.616 2.271 1.463 2.798 1.199 1.879-.936 5.597-6.821 5.597-2.399h.799v-.799c.24.12 1.432-.688 1.6-.8 1.063-.703 6.835-9.321 7.595-11.593.272-.799 2.351-3.429 2.798-3.206v-.799c.368.367.776-.768.808-.8.312-.313 1.318-.743 1.999-1.199.271-.184.359-.617.799-.4-.328-.959.48-2.079 1.199-2.798 4.91-4.917 15.687-27.784 19.589-35.587.256-.504 5.716-8.051 6.404-8.395l4.397-.4c.28 0 1.551-.447 1.2-.799.671.224 10.233-7.604 13.591-7.604-.239-.232 1.311-1.119 1.6-1.199 1.479-.368 2.918-1.199 4.397-1.199v-.8c.488 0 3.335-1.463 4.005-.799 1.567 1.575-1.607 14.263-1.607 14.399 0 1.191 1.208 5.581 1.2 5.597h.807c0 5.572.8 11.057.8 16.798v1.599c.152.152 2.238-.16 2.398 0 2.207 2.206.367 11.961 3.598 15.191.112.112 0 .247 0 .399 0 .896.431 1.2 1.199 1.2 0 1.471-.096 1.695-.799 2.398-.097.096.4 1.263.4 1.999 1.007-.504.751 1.159.799 1.199 1.287 1.296-.048 4.094-.799 5.605-.016.024-.271 2.662.399 1.999-.47 1.407.8.535.8 1.999h.8c-.169.168 1.007 1.015 1.199 1.599.36 1.087.799 2.078.799 3.198h.4v1.199h.8l.399.8v.799c.856.856.935-2.519.4-3.598-.815-1.63.4-5.652.4-7.595 0-2.567 1.191-14.368 1.599-15.599 1.734-5.197 1.071-33.38 1.599-35.587 1.999-8.395 3.198-23.793 3.198-34.387 0-7.084 1.119-15.663 2.798-22.395.529-2.118.72-5.428 1.599-7.195.256-.512.952-.696 1.2-1.2.031-.056.256-2.254-.4-1.599v-1.999h-.8c0-.135.224-1.822-.399-1.199v-.807c-1.496 0-3.478-.8-5.197-.8-.192 0-3.567-.432-3.198-.799h-.8c.424-.416-1.064-1.064-1.599-.8v-.799l-.4-.4h-1.199c.335-.328-1.111-1.112-1.199-1.199-.633-.632-.352-2.111-1.199-2.399-.769-.256-1.832.975-2.399.4.711 2.15-2.199 1.599-2.798 2.798-1.16 2.319.351 5.685-.8 8.003l-3.998 3.598a.28.28 0 0 0 0 .4c-1.343 0-3.773 2.55-4.005 2.398.216.208-.184.592-.4.8-.743.744-2.614 1.631-3.198 2.798-1.207 2.415-4.734 4.677-5.996 7.196-2.08 4.158-6.94 11.473-11.194 13.6-.751.376-2.182 4.509-3.198 3.997.232.696-3.03 3.662-3.606 4.798-1.343 2.686-5.628 10.849-7.195 13.192-.824 1.239-3.534 2.198-3.198 3.206-.016-.016-4.302 2.67-3.998 3.598-.624-.312-6.62 4.613-7.196 5.197-1.183 1.183-5.877.951-6.404 1.998-.368.744 2.183 4.438 1.207 6.397-.639 1.271-2.806 1.782-2.806 3.198h2.007c2.007 0 3.158-1.2 4.797-1.2.264 0 .664-.136.4.4-.944 1.887-11.993 18.525-12.801 18.797-.527.177-4.789-.392-4.797-.4-.472-.472-.727-2.071-1.199-1.599 0-.903-.112-7.779 0-8.003 2.039-4.07 1.935-9.467 3.998-13.592 2.742-5.477 8.339-21.099 10.801-24.793.64-.96 1.544-1.407 1.199-2.799h.4c1.759-6.532 5.877-12.832 7.995-19.196.528-1.575 2.671-7.867 3.598-8.795l1.599-1.199c-.208-.624 1.607-3.59.8-4.397-.128-.128-1.495-1.304-1.199-1.6h-.8l-.4-.399v-.8c-1.319 1.311 1.128-7.523-.4-5.996 0-3.23-6.572-2.799-9.194-2.799l-.4-.399v-.8c-.304.296-.783-.408-1.199-.408-.872 0-4.27.048-4.805.408-2.615 1.743-8.315 16.318-10.794 18.789l-1.199 3.198c-.345.688-1.679 1.287-1.199 1.999h-.4c1.167 3.51-2.103 6.156-3.598 8.403-.28.416-2.398 13.272-2.398 15.191h-.8c0 .36-.416 1.991-.8 1.599.432 1.735-2.286 5.269-2.798 6.796-5.453 16.358-3.678 10.473-15.199 21.995-2.111 2.118-3.766 5.444-6.396 7.195-1.327.889-2.446 1.248-3.598 2.399a.28.28 0 0 0 0 .4h-.799c.583.584-2.919 1.488-2.399 2.006-.184-.064-5.085 5.053-8.803 3.198-4.989-2.494 4.566-20.699 4.006-22.394.024.032 1.111-1.024 1.599-1.999 1.079-2.175.672-6.012 1.999-7.995 3.078-4.621 6.396-6.524 6.396-13.2l.4-.8h.799c-.024-.048.8-1.639.8-2.398a.28.28 0 0 0 .4 0l1.998-1.999c2.127-2.127 2.271-6.14 3.598-8.795.68-1.359 2.974-2.35 3.598-3.598.561-1.127-.488-4.629.4-6.404.135-.264.855-1.943 1.199-1.599-.272-.815 7.22-10.746 6.804-11.593h.8c-.464-.927 3.597-8.091 3.597-8.395h-.799v-.8c-.592.584-2.103-2.102-2.399-2.406a.294.294 0 0 0-.399 0v-.8h-.8c.527-.527-.4-.399-.4-.399-.032-.024-.288-2.511-.807-1.999 0-.904-1.264-3.806-1.2-3.998h-.799c1.519-3.03-4.725-2.151-6.396-1.599-.904.304-2.99 2.806-3.598 2.399m124.533 147.911c-.119 0-.072-.24-.072-.359v-1.999c0-1.479 1.688-4.11 1.296-4.493-3.767-3.766 4.245-14.823 6.204-19.397.208-.496-.16-4.445 0-4.597.121-.127 1.52-.608 1.294-1-.399-.695-1.173-2.686-.694-3.797.375-.88 1.663-1.256 1.998-2.007.927-2.079.712-3.413 1.895-5.197.208-.313.216-1.863.704-2.599.312-.471.304-1.112.6-1.599.935-1.567 2.421-1.623 2.893-3.198.84-2.798-.679-6.38 0-8.099 1.272-3.182 5.917-18.645 6.805-19.788l.999-1.303c1.807-2.359.055-5.293 1-7.5.967-2.262 2.198-4.629 3.493-6.796.712-1.183.88-5.82 2.599-8.698.2-.32 1.391-6.109.999-6.493-.479-.487-2.014 1.607-2.598 1.999-1.015.68-2.159.56-3.198 1.599-.32.32-10.122 2.439-9.395-.703-.167.168-1.207-.856-1.304-.896-.878-.384-.526.208-1.599-.4-.127-.079-3.172-.183-3.293-.303-2.167-2.159-2.159-2.991-4.805-4.502-.664-.375-.112-.759-1.296-.399.297-.216-.983-.576-.999-.6-.519-.512.312-4.605.599-4.893 1.999-1.999 9.116-6.308 8.1-9.698.736-.32.104-.008.695-.6.193-.192 1.768-1.095 2.303-1.303 1.607-.6 5.445-1.583 6.796-2.599.856-.639 1.431-.799 2.599-1.295 4.756-2.039 9.426-3.678 14.495-5.197 1.087-.328 1.416-1.527 2.599-2.007.935-.367 2.789-.327 3.597-.895l1-.704c5.188-3.621 18.78-1.998 21.395-3.494 1.639-.935 3.294-2.998 4.501-3.597 1.967-.984 23.482 2.334 24.993 3.198 2.527 1.439 3.942 1.439 5.796 3.294.113.112 2.032 2.926 2.599 2.606-.024 1.719 4.254 2.399 4.501 2.894.848 1.703 2.119 3.31 3.894 4.198.224.112.848 2.247.999 2.598.576 1.336 1.799 2.399 2.598 3.198 1.169 1.168-.135 3.43.6 4.902.377.751-.415 3.429-.296 4.197-.782 1.831.353 5.445-.279 7.516-1.631 5.3-3.886 8.81-7.22 13.575-2.063 2.951-5.516 3.55-7.098 5.805-.281.4-.913 2.686-1.6 2.894-1.592.48-7.124 3.326-8.395 4.597-1.144 1.152-2.407 2.263-3.902 2.903l-1.294.304h-.705c0 .207 6.98 6.572 7.501 7.091 3.884 3.886 5.859 10.066 9.097 13.296 2.263 2.271 5.725 5.141 7.699 8.1.081.127.249-.056.4 0 8.979 3.589 18.214 16.734 26.489 20.395-.209.36 1.743 1.799 1.998 1.999 1.312 1.008 4.366 3.942 5.197 5.197 1.352 2.023 17.374 17.006 21.06 20.692.36.359 1.007 4.197.631 4.597.791-2.623-13.08-8.811-13.991-11.097-1.032-2.575-13.601-12.161-16.799-13.297-.119-.039-8.482-8.147-9.394-8.69-2.342-1.407-6.365-2.799-8.795-4.502-3.541-2.478-4.916-6.252-7.1-8.794-1.446-1.687-3.837-1.248-6.099-5.197-.208-.368-2.198-1.343-2.598-1.903l-.697-1c-.983-1.399-2.399-1.998-3.598-3.198-.151-.152-.375-1.414-.902-1.703-.433-.231-2.431-1.543-1.999-2.198h-.897c.209-.36-1.166-1.136-1.302-1.599-.176-.584-1.951-2.647-2.598-3.294-.137-.136-2.279.16-2.598 0l-1.599-1.008c-.209-.112-1.297-.599-1-.895-1.352 0-4.182-2.878-5.197-3.902-.704-.695-4.462-.464-5.501-2.894-.552-1.287-2.151-1.799-3.302-2.599-.68-.479-1.575-.839-1.895-1.599l-.6-1.303c-.184-.424-.144-.488-.136-.488.016.008-.016.12-.567-.207-.368-.224-.296-.264-.296-.6v-.704 1l.599.599.4 1c.224.735.296.647.296 1.599 0 .951.336 2.007.999 2.598 1.624 1.463 3.398 2.958 4.798 4.598 1.446 1.687 4.773 4.077 6.5 5.804 3.398 3.39 8.818 6.516 12.999 10.69 1.735 1.743 2.271 3.174 3.496 4.805.095.12-.137.32 0 .4l3.597.895c3.126 3.654 8.531 5.805 10.697 10.698.344-.223.456.295.599.399 1.497 1.048 4.686 3.685 4.901 5.101.936-.375 1.224 1.008 1.895 1.296 7.556 3.238 16.271 11.37 22.1 17.197.527.528 3.157 4.853 4.197 5.197 1.615.544 5.725 2.503 6.796 3.903.432.551.791 2.269 1 2.893.008.032 11.28 11.562 12.296 12.001.104.04-.032.184 0 .297.408 1.373 2.599 1.294 2.599 2.598 0 .535.486 1.39 0 1.599-.184.079-.881-.361-1-.6-.088-.168-7.587-7.412-7.795-7.492-5.429-2.175-20.804-17.302-28.191-20.995-5.734-2.871-13.72-11.92-18.398-16.598-2.318-2.318-3.662-4.254-5.197-5.797-.631-.632-3.189-1.071-3.9-1.903l-.697-.999c-6.02-2.663-9.21-7.596-14.199-9.091l-.999-.599c-.104-.056-.248.103-.295 0-.345-.792-16.503-19.149-17.199-19.501-1.303-.647-14.711-9.218-15.191-9.69-.767-.768.168-2.207.6-3.198 2.645-6.172 4.933 1.159 9.394-3.302.664-.664-3.351-4.214-4.197-4.501-.52-.168-1.439-.968-1-1.296l-.903-.303c0-1.815.16-2.735 1.303-3.598.488-.368.464-1.168.896-1.599.679-.672 2.558.839 2.598.903 2.518 3.342 4.797 4.597 10.402 4.597.871 0 2.071.392 2.598-.303 3.582-4.782 8.995-14.592 12.593-18.789.184-.216.511-2.399.304-2.607-.632-.623-1.831-2.742-2.198-3.598l-4.598-1.599c-.728-.215-.399-.519-.599-.999-.049-.104-.194.048-.305 0-1.294-.552-4.286-2.271-4.597-2.894h-.904c-.359 0-2.87-.104-2.998 0-.488.416-.264.543-.28.583-.008.016-.072.016-.319.016-10.866 0-12.521 1.192-16.495 9.795-.391.847-1.223 1.543-1.295 2.598-.775.44-.584-2.814-3.302-1.999-.56.168-2.542 9.554-3.198 10.394l-4.597 5.805c-4.358 6.54-6.34 30.022-9.698 33.388-.232.231 0 .663 0 .999 0 4.278-.752 6.916-2.199 10.298-.504 1.176-1.319 12.64-2.303 15.59-.943 2.831-1.927 3.534-2.894 5.797-1.982 4.613 1.407 8.163-3.302 11.697-.096.073 0 .183 0 .304 0 1.455.121 4.461-.895 4.893-.368.16-3.023-.576-3.302-.696-.488-.208-.305-1.167 0-1.599.535-.767 2.693-2.893 3.302-3.502.575-.575 0-3.893.295-4.597.208-.488 2.511-2.806 2.903-3.198.59-.592.535-1.607.999-2.303.208-.312-.919-2.215-.999-2.294-.104-.096.096-3.102 0-3.198-.688-.688-2.295 1.982-2.599 2.598-.751 1.487-4.869 12.266-4.901 12.297-2.007 2.007-4.349 9.434-5.501 10.099-1.503.854-2.078-7.157-5.197-1.704-.136.248-.159 3.486-.295 3.902-.56 1.654-1.543 2.399-2.207 4.597v1.895c-.56.423-.968-1.879-2.295-1-3.693 2.463-1.439 1.463-2.902 0-.104-.112-.248-.04-.4 0l.096.079" style="fill:#fff;fill-rule:nonzero" transform="translate(30 38.75)scale(.83333)"/><path d="m477.361 172.972-.04-.032c1.063.608 1.927-.008 2.702.304 2.791 1.112 5.325.76 7.995 2.095 3.711 1.855 8.028 7.507 12.801 9.098.256.088.048.568.2.8.511.824 1.647 2.447 2.398 3.198 1.855 1.863 8.043 9.626 9.594 10.402.576.287 2.199 1.295 2.399 1.799.248.607 1.191 2.99 1.399 3.198 2.078 2.079 3.27 1.975 5.797 3.494.575.344 1.927 2.67 2.198 3.502.168.48.872.527 1.304.799 1.671 1.048 9.586 8.251 10.394 8.795 1.047.696 1.415 2.606 2.901 3.198.897.36.744 1.976 1.599 2.399 3.878 1.942 15.2 7.699 18.693 11.201.72.719.776 1.999 1.599 2.598 1.919 1.392 6.149 2.999 7.5 4.797 2.599 3.471 10.385 13.472 14.096 15.496.79.431 1.271.174 1.295 1.302.089-.087.224-.087.304 0 .415.416 1.167 1.456 1.903 1.896 1.623.974 3.701 4.021 4.997 5.1.183.161.359.136.599.2.919.232 9.45 5.237 7.7 6.996-.312.304-1.064.361-1.304 0-.983-1.471-2.238-2.862-3.797-3.798-.4-.239-1.551-.184-1.799-.799-1.935-4.83-17.798-12.537-19.996-16.199-.137-.231-1.543-.263-1.599-.295-.673-.399-3.462-1.567-3.503-1.599-1.214-1.216-2.774-3.566-3.998-4.302-2.966-1.775-10.145-9.81-10.897-10.098-4.485-1.679-7.979-5.74-13.095-8.291-.688-.352-1.599-.408-2.096-.999-3.205-3.846-23.793-19.069-23.993-21.396h-.799c.104-.071-.776-.639-1.095-.799-.153-.08-.385.12-.504 0l-2.703-1.599c-.176-.072-3.973-6.076-5.293-7.396l-.599-.607c-3.702-3.694-7.028-7.46-11.697-9.794-.104-.048-2.199-3.894-2.903-4.598-.08-.08-.184.032-.295 0-3.83-.959-7.14-.559-9.899-2.398-.975-.648-1.599-4.15-1.599-6.101v-.295c0-.2-.119-.344 0-.504.16-.208 1.36-.32 1.096-.496z" style="fill:#fff;fill-rule:nonzero" transform="translate(30 38.75)scale(.83333)"/><path d="M589.286 280.604c.312-.312 1.055-.064 1.303.304.76 1.143 1.935 1.671 2.399 2.894.495 1.327 3.07.688 3.797 1.903.368.616.648.719 1 1.303s.599.624.599 1.399v1.296l-.303.799s.271.063-.296-.496c-.464-.471.264-.136-.2-.599l-.304-.2c-.056-.104.087-.224 0-.304-.384-.384-.44-.672-.799-1.095-.288-.352-1.36-.664-1.895-1.304-.568-.679-1.847-1.047-2.399-1.599-.319-.311-3.806-2.941-4.501-3.198-2.926-1.095-5.31-2.71-7.7-5.101-1.974-1.974-10.209-6.54-10.993-8.498-.064-.152-.384.119-.505 0-.934-.935-1.518-1.352-2.893-1.895-.711-.288-16.23-12.369-16.295-12.496-.095-.185-.095-.241-.087-.241.024-.016.112.16-.217-.064-3.989-2.654-7.77-6.884-11.993-8.994-.447-.225-3.398-4.686-3.398-5.397v-.2c-5.444-3.629-8.89-2.415-15.797-10.698-.112-.136-.024-.439-.2-.495-3.198-1.072-19.669-18.789-20.588-21.1-.552-1.359-2.95-1.135-3.702-2.398-1.039-1.735-.623-2.887-1.903-4.797-.399-.6-6.26-1.959-6.396-2.103-1.639-1.639-2.383-4.382-3.398-5.397-1.223-1.223-4.549-1.823-5.596-3.398-.081-.12 0-1.319 0-1.599.215.136.886-.56.999-.6h3.798c1.255.752 5.652 4.566 6.596 4.798 3.622.911 7.036 1.615 9.898 3.997 4.165 3.47 2.438 5.773 4.501 9.898 1.663 3.334 18.141 18.149 21.587 21.595 1.319 1.312 2.183 4.126 3.805 5.101.625.375 4.758 1.056 4.997 1.295 1.488 1.488 3.943 2.847 5.095 3.998.423.424.687 2.95 1.102 3.198.584.352 6.66 5.429 6.899 5.901.194.391 1.057-.16 1.296.2.648.974 3.055 1.83 3.997 2.398.729.44 2.32 3.414 3.198 3.998.561.375 3.983 3.446 4.007 3.502.367.991 1.455.559 2.198 1.303 1.847 1.847 6.197 2.495 7.996 4.294 8.186 8.186 17.117 13.719 22.89 19.492" style="fill:#fff;fill-rule:nonzero" transform="translate(30 38.75)scale(.83333)"/></svg>