<svg xmlns="http://www.w3.org/2000/svg" xml:space="preserve" style="fill-rule:evenodd;clip-rule:evenodd;stroke-linejoin:round;stroke-miterlimit:2" viewBox="0 0 560 320"><path d="M.95.03h559.24v320H.95z" style="fill:#ffa733"/><path d="M105.173 14.283c-2.287 7.687-4.447 15.372-6.734 23.058h13.403zm-5.59-11.369c2.35-3.049 7.304-3.557 10.163-1.017 1.207 1.017 2.033 2.414 2.477 3.875q8.1 27.82 16.197 55.643h-9.527c-1.525-5.082-2.986-10.227-4.447-15.372h-18.42a1382 1382 0 0 0-4.447 15.372h-9.464C87.26 43.693 92.342 26.034 97.487 8.376c.508-1.906.762-3.938 2.096-5.462m66.186 34.427h13.339c-2.223-7.686-4.446-15.435-6.669-23.121-2.224 7.75-4.447 15.435-6.67 23.121m.762-34.046c1.652-2.414 4.891-3.557 7.686-2.858 2.604.571 4.573 2.794 5.209 5.335 5.399 18.547 10.798 37.031 16.197 55.579h-9.528a1417 1417 0 0 0-4.446-15.372h-18.42c-1.461 5.146-2.986 10.227-4.447 15.372h-9.464l15.435-53.356c.572-1.525.762-3.303 1.778-4.7M121.243.373h34.491V9.71H143.03v51.705h-9.083V9.71h-12.704zm84.543.381c.889-.317 1.779-.381 2.732-.381h10.861c6.098.127 11.942 3.875 14.61 9.4 1.841 3.558 2.032 7.75 1.587 11.624-.317 4.129-2.033 8.195-5.208 10.926-1.652 1.461-3.748 2.414-5.527 3.684-.952.762-1.015 2.223-.508 3.239 4.828 7.432 9.846 14.737 14.737 22.105h-10.798c-4.701-7.051-9.338-14.165-14.038-21.279-1.397-2.033-1.778-4.701-.953-6.987.635-1.778 2.16-3.049 3.875-3.748 3.303-1.27 6.479-3.239 8.321-6.288 1.397-2.35 1.334-5.209.698-7.749-.698-3.303-3.938-5.907-7.367-5.78h-7.051c-1.08 0-2.033.889-2.033 1.968v49.799h-9.146V7.677c0-3.048 2.223-5.97 5.208-6.923m38.047-.381h9.655v61.042h-9.655zM27.208.284h4.622v10.9c.029 3.023-.058 6.046-.203 9.098-.204 4.361-.494 8.75-1.192 13.081-.494 2.965-1.541 5.843-2.82 8.576-2.093 4.389-5.348 8.11-9.04 11.249-3.285 2.907-7.238 5-11.366 6.453A38 38 0 0 1 0 61.415v-9.128c2.965-.436 5.785-1.482 8.43-2.878 3.139-1.657 5.93-3.866 8.314-6.511 2.441-2.703 4.389-5.843 5.871-9.157 1.744-3.837 2.675-7.964 3.314-12.092.785-5.262 1.134-10.581 1.25-15.901.029-1.86.029-3.662.029-5.464m6.512 0c2.848-.03 5.668 0 8.517 0v61.072H33.72c-.03-6.482 0-12.993-.03-19.475.03-13.866.03-27.732.03-41.597m10.406 0h4.593c-.058 6.22.174 12.412.901 18.603.611 4.797 1.453 9.622 3.372 14.069 1.802 4.332 4.418 8.343 7.82 11.57 3.255 3.081 7.179 5.465 11.453 6.831q1.787.566 3.662.872v9.127c-2.442-.319-4.825-.959-7.151-1.744-2.761-.959-5.435-2.209-7.906-3.808-1.803-1.162-3.43-2.529-5-3.982-2.587-2.384-4.884-5.087-6.628-8.168-1.366-2.384-2.354-4.971-3.139-7.587-.698-2.646-1.017-5.378-1.279-8.11-.524-5.872-.727-11.773-.698-17.674z" style="fill:#fff;fill-rule:nonzero" transform="translate(30 93.75)scale(.83333)"/><path d="M4.604 79.732h44.219v53.22H4.604zm-.196 59.48h111.918v16.631H4.408zm71.416-59.48h51.459l35.806 29.349-27.98 18.979zm65.351 52.632 81.786-52.828h38.545l-79.438 51.654v24.654h-40.893zM272.659 79.34l113.288 77.091h24.457V79.145h-22.109v53.219l-79.83-53.024zm-5.674 7.827 43.828 27.784v40.893h-44.024zm155.159-8.218 80.417 39.915 14.479-6.457 24.066 11.348h34.436l-87.069-45.002zm101.744 12.914 21.718 8.609L600 80.319h-56.742z" style="fill:#fff" transform="translate(30 93.75)scale(.83333)"/><path d="m596.211 158.192-80.416-39.915-14.479 6.457-24.067-11.349h-34.436l87.069 45.002zm-102.184-11.789-21.278-10.125-54.394 20.153h56.742z" style="fill:#fff" transform="translate(30 93.75)scale(.83333)"/></svg>