<svg xmlns="http://www.w3.org/2000/svg" xml:space="preserve" style="fill-rule:evenodd;clip-rule:evenodd;stroke-linejoin:round;stroke-miterlimit:2" viewBox="0 0 560 320"><path d="M.95.03h559.24v320H.95z" style="fill:gold"/><g transform="translate(30 115.417)scale(.83333)"><clipPath id="a"><path d="M0 0h600v107H0z"/></clipPath><g clip-path="url(#a)"><path d="M164.774 78.472h22.535V28.399h-15.246v28.713h-.132l-10.053-28.713h-22.533v50.073h15.238V49.569h.137zm85.013 0h22.533V28.399h-15.236v28.713h-.138l-10.054-28.713h-22.531v50.073h15.245V49.569h.132zm146.387 0h22.537V28.399h-15.242v28.713h-.136L393.28 28.399h-22.534v50.073h15.241V49.569h.133zm-199.66-50.073h18.796v50.073h-18.796zm93.202 13.602h-11.944V28.399h42.72v13.602h-11.985v36.471h-18.791zm36.326-13.616h37.17V41.63h-18.673v5.236h17.193v12.838h-17.193v5.618h19.269v13.134h-37.766zm100.758.014h22.267c18.992 0 25.037 10.749 25.037 25.59 0 15.12-9.327 24.484-23.913 24.484H426.8zm18.399 38.696h1.832c3.022 0 5.048-.927 6.232-2.938 1.248-2.082 1.387-5.874 1.387-10.723 0-4.854-.142-8.638-1.387-10.723-1.184-2.014-3.21-2.941-6.232-2.941h-1.832zm58.367-40.009c16.362 0 24.503 10.745 24.503 26.349 0 15.608-8.143 26.356-24.503 26.356-16.364 0-24.505-10.748-24.505-26.356 0-15.604 8.138-26.349 24.505-26.349m0 40.015c2.886 0 5.061-1.419 5.061-13.667 0-11.973-2.044-13.664-5.061-13.664-3.02 0-5.061 1.691-5.061 13.664 0 12.249 2.17 13.667 5.061 13.667" style="fill:#fff;fill-rule:nonzero"/><path d="M164.774 78.472h22.535V28.399h-15.246v28.713h-.132l-10.053-28.713h-22.533v50.073h15.238V49.569h.137zm85.013 0h22.533V28.399h-15.236v28.713h-.138l-10.054-28.713h-22.531v50.073h15.245V49.569h.132zm146.387 0h22.537V28.399h-15.242v28.713h-.136L393.28 28.399h-22.534v50.073h15.241V49.569h.133zm-199.66-50.073h18.796v50.073h-18.796zm93.202 13.602h-11.944V28.399h42.72v13.602h-11.985v36.471h-18.791zm36.326-13.616h37.17V41.63h-18.673v5.236h17.193v12.838h-17.193v5.618h19.269v13.134h-37.766zm235.643-6.644c-1-.088-1.972-.046-3.329.015-7.929.366-11.135 3.745-12.222 7.562h.192c1.974-1.725 4.414-2.531 7.683-2.531 6.289 0 12.033 4.573 12.033 13.152 0 8.209-6.31 14.603-14.78 14.603-11.157 0-16.011-8.521-16.011-17.658 0-7.422 2.634-13.708 6.956-17.763 4.113-3.811 9.418-5.736 15.91-5.884 1.719-.099 2.74 0 3.568.075zm-10.564 24.727c2.571 0 4.13-2.626 4.13-5.981-.021-2.831-1.317-5.917-4.765-5.917a4.67 4.67 0 0 0-4.367 2.947c-.241.494-.331 1.198-.331 2.393.22 3.199 1.763 6.559 5.269 6.559zm34.58 7.399v-8.986h-16.704v-7.18l13.412-23.899h13.346v22.847H600v8.232h-4.245v8.986zm0-17.218v-6.885c0-2.545.153-5.188.283-7.975h-.219c-1.241 2.704-2.322 5.279-3.734 8.072l-3.282 6.669-.035.121zM0 21.534v62.855L13.598 90.1V57.036l.005-.095.015-.093.024-.089.041-.103.053-.096.064-.089.074-.08.084-.071.093-.06.084-.041.088-.033.102-.025.104-.014h.111l.11.013.107.027.102.039.096.052.09.063.082.074.073.085.053.078.027.051 14.43 28.014.006.011 8.034 15.599 14.749 6.24V41.788l-14.502-5.555V68.78a.89.89 0 0 1-.881.891h-.018a.89.89 0 0 1-.779-.473L13.857 26.879zm106.777 0L93.18 26.778v40.486a.89.89 0 0 1-.869.891h-.018a.89.89 0 0 1-.734-.38L69.342 36.02l-15.061 5.768v64.705l14.502-6.135V61.926l.006-.106.018-.103.031-.099.041-.095.051-.088.066-.088.078-.08.085-.069.09-.055.096-.045.1-.033.105-.022.112-.008.112.005.115.021.078.023.097.041.086.048.058.04.068.056.047.047.025.028.033.04 22.197 28.969 14.199-5.964zM15.379 90.072l12.314-5.453-12.314-23.907zm74.283-.595-14.798-5.685-4.3-6.027V64.553zM36.215 35.145v30.056L15.746 26.637l13.682-5.277zm55.183-8.367L77.169 21.29l-7.877 8.877a1 1 0 0 1-.085.112l-2.342 2.628 1.701.653 1.426.546a.9.9 0 0 1 .429.347l20.977 29.983zm-50.211 7.553 12.203-4.677 13.793 5.284-13.793 5.283-13.792-5.283zm-10.313-14.07 6.672 13.554 2.704-1.036 11.861-21.167L38.636 6.37zm34.211 11.963 2.566-2.892V6.579L54.01 11.868 42.851 31.783l10.22-3.915.098-.031.099-.019.101-.008.102.003.1.015.099.026.038.014zM27.389 20.236l-12.901 4.976-12.901-4.976 12.901-4.963zm52.001-.001 12.899 4.977 12.901-4.976-12.901-4.963zM40.705 5.263 53.389.379l12.685 4.9-12.684 4.919z" style="fill:#fff;fill-rule:nonzero"/></g></g></svg>