<svg xmlns="http://www.w3.org/2000/svg" xml:space="preserve" style="fill-rule:evenodd;clip-rule:evenodd;stroke-linejoin:round;stroke-miterlimit:2" viewBox="0 0 560 320"><path d="M.95.03h559.24v320H.95z" style="fill:#2f80ed"/><g transform="translate(30 123.75)scale(.83333)"><clipPath id="a"><path d="M0 0h600v87H0z"/></clipPath><g clip-path="url(#a)"><path d="M380.155 45.933h-32.496c-4.701 0-8.531 3.861-8.531 8.549v23.189c0 4.675 3.83 8.526 8.531 8.526h32.496c4.706 0 8.54-3.851 8.54-8.526V54.482c0-4.688-3.834-8.549-8.54-8.549m1.383 31.676a1.67 1.67 0 0 1-1.673 1.666h-31.911a1.67 1.67 0 0 1-1.677-1.666V54.527c0-.918.751-1.665 1.677-1.665h31.911c.921 0 1.673.747 1.673 1.665zM7.457 11.25v29.834H0V.816h6.37L36.565 30.14V.816h7.354v40.268h-5.824zm74.74 0v29.834H74.74V.816h6.361l30.195 29.324V.816h7.363v40.268h-5.82zm154.897 0v29.834h-7.453V.816h6.361l30.19 29.324V.816h7.362v40.268h-5.81zM55.594.816h7.453v40.268h-7.453zm71.515 0h43.686v6.929h-17.974v33.339h-7.743V7.745h-17.969zm52.136 0h39.334v6.929h-31.953v9.036h24.719v6.92h-24.719v10.448h31.953v6.935h-39.334zm147.989 5.887c-2.912-3.845-7.229-5.887-12.445-5.887h-29.872v40.268h29.872c5.216 0 9.533-2.039 12.445-5.878 2.729-3.578 4.178-8.503 4.178-14.261 0-5.741-1.449-10.677-4.178-14.242m-12.23 27.446H292.11V7.745h22.894c7.162 0 9.707 7.119 9.707 13.2 0 6.089-2.545 13.204-9.707 13.204M380.155.816h-32.496c-4.701 0-8.531 3.856-8.531 8.544v23.194c0 4.688 3.83 8.53 8.531 8.53h32.496c4.706 0 8.54-3.842 8.54-8.53V9.36c0-4.688-3.834-8.544-8.54-8.544m1.383 31.68c0 .903-.752 1.653-1.673 1.653h-31.911c-.926 0-1.677-.75-1.677-1.653V9.409c0-.911.751-1.66 1.677-1.66h31.911c.921 0 1.673.749 1.673 1.66zm133.948 36.712c7.73 3.051 24.048 5.529 36.788 5.529 13.944 0 19.719-4.791 19.719-10.794 0-5.386-5.364-8.558-20.761-14.201-20.582-7.602-35.683-13.592-35.683-27.114 0-13.993 18.17-22.237 45.869-22.237 14.869 0 19.977.944 29.421 2.67l.071 13.293c-9.278-1.767-17.499-4.798-30.27-4.798-13.684 0-19.513 4.339-19.513 8.821 0 6.505 8.978 9.605 24.737 15.223C587.797 43.455 600 49.507 600 62.744c0 13.621-15.281 23.453-49.748 23.453-14.153 0-23.914-.93-34.766-2.674zm-29.332 10.803c-8.114 3.673-23.462 6.003-36.877 6.003h-51.269V.579h51.269c13.415 0 28.763 2.362 36.891 6.029 19.745 8.914 26.187 23.177 26.187 36.7 0 13.52-6.384 27.767-26.201 36.703m-44.03-67.873H425.72v62.087h16.404c25.18 0 41.065-10.77 41.065-30.917s-15.885-31.17-41.065-31.17" style="fill:#fff;fill-rule:nonzero"/></g></g></svg>