<svg xmlns="http://www.w3.org/2000/svg" xml:space="preserve" style="fill-rule:evenodd;clip-rule:evenodd;stroke-linejoin:round;stroke-miterlimit:2" viewBox="0 0 560 320"><path d="M.95.03h559.24v320H.95z" style="fill:#cc2936"/><path d="M80.034 144.53H45.297v34.013h10.786v-22.755c0-1.441 1.193-2.637 2.633-2.637h18.68c1.433 0 2.638 1.196 2.638 2.637v22.755h10.773v-22.755s1.441-11.258-10.773-11.258m300.1 0h-34.739v34.013h11.016v-22.755c0-1.441 1.205-2.637 2.402-2.637H377.5c1.43 0 2.634 1.196 2.634 2.637v22.755h10.769v-22.755s1.437-11.258-10.769-11.258m163.581 0h-34.732v34.013h10.786v-22.755a2.65 2.65 0 0 1 2.634-2.637h18.678c1.43 0 2.634 1.196 2.634 2.637v22.755h10.777v-22.755s1.43-11.258-10.777-11.258m-448.114 8.621h11.973c1.198 0 2.639 1.196 2.639 2.637v22.755h11.488v-22.755c0-1.441 1.204-2.637 2.637-2.637h11.973v-8.621h-40.71zm463.437-8.621v8.621h11.981c1.429 0 2.634 1.196 2.634 2.637v22.755h11.981v-22.755c0-1.441.948-2.637 2.385-2.637H600v-8.621zm-326.678 8.621h11.974c1.434 0 2.638 1.196 2.638 2.637v22.755h11.965v-22.755c0-1.441 1.205-2.637 2.647-2.637h11.965v-8.621H232.36zm94.362-8.621h11.494v34.012h-11.494zm-18.445 16.772h-19.391v-5.991c0-.964 1.435-2.16 2.149-2.16h14.608c1.671 0 2.634 1.196 2.634 2.16zm-.241-16.772h-18.919c-12.215 0-11.251 11.258-11.251 11.258v22.755h11.02v-8.617h19.391v8.617h11.01v-22.755s1.437-11.258-11.251-11.258m-91.007 14.137c0 1.671-.713 2.635-2.155 2.635h-15.809c-.714 0-1.67-.964-1.67-2.635v-3.356c0-1.441.956-2.638 2.389-2.638h15.09c1.442 0 2.155.711 2.155 2.638zm-.236-14.137h-30.657v34.013h11.259v-6.472c0-1.437.956-2.145 2.389-2.145h15.09c.715 0 2.155 1.197 2.155 2.145v6.472h10.774v-5.261s.964-4.808-4.068-8.158c3.353-2.393 4.554-5.976 4.795-8.143.237-.956.237-1.67.237-1.67s0-10.781-11.974-10.781M.031 167.284s-1.194 11.259 11.262 11.259h26.826v-8.617H13.205c-1.675 0-3.116-1.452-3.116-2.875 0-1.678 1.204-2.641 3.116-2.641h23.48v-5.984H12.726c-1.433 0-2.637-1.196-2.637-2.638s1.204-2.637 2.637-2.637h25.393v-8.621H.031zm141.316 0s-1.683 11.259 10.78 11.259h26.826v-8.617h-24.914c-1.682 0-3.116-1.452-3.116-2.875 0-1.678 1.434-2.641 3.116-2.641h23.473v-5.984h-23.473c-1.682 0-3.116-1.196-3.116-2.638s1.434-2.637 3.116-2.637h24.914v-8.621h-37.606zm322.85 0s-1.204 11.259 11.018 11.259h27.063v-8.617h-25.152c-1.437 0-2.873-1.452-2.873-2.875 0-1.678.962-2.641 2.639-2.641h23.466v-5.984h-23.466c-1.677 0-2.639-1.196-2.639-2.638s.962-2.637 2.639-2.637h25.386v-8.621h-38.081zm-17.881-22.709h-48.151v34.006h10.063v-22.747c0-1.434 1.196-2.635 2.634-2.635h8.136c1.444 0 2.648 1.201 2.648 2.635v22.747h11.252v-22.747c0-1.434.962-2.635 2.634-2.635h8.625c.954 0 2.159 1.201 2.159 2.635l.467 22.747h10.777v-22.747s1.436-11.259-11.244-11.259m-153.405 55.58h12.21c.948 0 2.152 1.204 2.152 2.634v22.75h11.983l.474-22.75c0-1.43.713-2.634 2.159-2.634h11.981v-8.617h-40.959zm138.434-8.617h-48.136v34.001h10.055v-22.75c0-1.43 1.196-2.634 2.634-2.634h8.143c1.43 0 2.626 1.204 2.626 2.634v22.75h11.258v-22.75c0-1.43.957-2.634 2.642-2.634h8.618c.962 0 2.16 1.204 2.16 2.634l.481 22.75h10.778v-22.75s1.428-11.251-11.259-11.251m-187.77 0h-10.303v12.695c0 1.424-1.434 2.627-2.626 2.627h-15.338c-1.433 0-2.634-1.203-2.634-2.627v-12.695H201.9v12.455s-1.196 11.485 11.259 11.485h3.589v10.061h11.979v-10.061h4.067c12.455 0 10.781-11.245 10.781-11.245zm94.839 22.75s-1.677 11.251 10.778 11.251h26.823v-8.624h-24.904c-1.678 0-3.123-1.197-3.123-2.875 0-1.671 1.445-2.385 3.123-2.385h23.466v-5.998h-23.466c-1.678 0-3.123-1.424-3.123-2.868 0-1.43 1.445-2.634 3.123-2.634h24.904v-8.617h-37.601zm-60.352-8.873h-16.053c-1.911 0-3.104-.708-3.104-2.378 0-1.451 1.193-2.882 2.627-2.882h27.304v-8.617h-29.931c-5.513 0-10.296 4.546-10.296 9.821 0 7.422 4.783 10.296 11.252 10.296h16.044c1.68 0 3.357.714 3.357 2.385 0 1.438-1.2 2.875-2.641 2.875h-28.012v8.624h30.653c5.028 0 10.299-4.071 10.299-9.821 0-6.937-5.513-10.303-11.499-10.303m-91.251 0h-15.567c-1.919 0-3.353-.708-3.353-2.378 0-1.451 1.434-2.882 2.875-2.882h27.304v-8.617h-29.942c-5.987 0-10.78 4.546-10.78 9.821 0 7.422 5.272 10.296 11.736 10.296h15.567c1.92 0 3.353.714 3.353 2.385 0 1.438-1.433 2.875-2.874 2.875h-27.782v8.624h30.656c5.51 0 10.544-4.071 10.544-9.821 0-6.937-5.272-10.303-11.737-10.303m304.844-91.598h-383.31c-32.749.111-52.653-21.869-52.653-48.833 0-26.971 20.03-48.774 52.653-48.833h383.31c32.623.059 52.645 21.862 52.645 48.833 0 26.964-19.896 48.944-52.645 48.833M491.841.221H108.159C67.076.125 39.481 29.662 39.481 65.073c0 35.403 27.528 64.599 68.738 64.614h383.562c41.203-.015 68.738-29.211 68.738-64.614 0-35.411-27.602-64.948-68.678-64.852M304.686 60.972c1.432-2.499 4.064-3.693 6.445-3.701 2.388.008 5.02 1.202 6.444 3.701 1.172 2.025 1.224 4.398 1.202 7.942h-15.299c-.03-3.544.044-5.917 1.208-7.942m33.327 14.253c0-12.562-12.14-22.974-27.045-22.974-14.899 0-26.987 10.182-26.987 22.752 0 12.562 12.088 22.752 26.987 22.752 12.377 0 22.811-7.053 26-16.627l-18.266.015s.015.178.015 2.455c0 7.416-4.872 9.062-7.586 9.062-2.7 0-7.661-1.646-7.661-9.062 0-2.218.015-8.365.015-8.365s34.528.014 34.528-.008m38.362-22.299c-6.066.17-11.109 2.766-14.624 6.11-.015-1.001 0-4.256 0-4.256l-18.183.007-.008 40.528h18.191l-.015-26.623c0-3.53 3.708-7.46 8.699-7.46 4.999 0 8.373 3.93 8.373 7.46v26.623h18.213s-.007-19.2 0-22.055c.104-16.048-13.801-20.534-20.646-20.334m-148.947 0c-6.058.17-11.109 2.766-14.616 6.11-.015-1.001 0-4.256 0-4.256l-18.214.007.015 40.528h18.199l-.015-26.623c0-3.53 3.708-7.46 8.699-7.46s8.372 3.93 8.372 7.46v26.623h18.213s-.022-19.2 0-22.055c.097-16.048-13.808-20.534-20.653-20.334m209.231 21.921s.007 4.59.007 7.193c0 6.259-4.338 7.898-7.193 7.898-2.907 0-7.179-1.639-7.179-7.898 0-2.15.008-7.208.008-7.208s-.008-5.146-.008-7.223c0-6.274 4.272-7.868 7.186-7.868 2.848 0 7.179 1.594 7.179 7.868zm-.134-18.05c-2.922-1.646-6.021-3.233-10.367-3.612-13.208-1.164-23.308 10.516-23.308 21.217 0 14.105 10.894 19.326 12.54 20.097 6.17 2.87 14.083 2.877 21.098-1.528 0 .379.008 2.344.008 2.344h18.116V34.379h-18.087zm58.192 26.519c0 6.459-3.819 9.121-7.49 9.121-3.678 0-7.512-2.662-7.512-9.121 0-2.455.007-8.743.007-8.743s.008-5.992.008-8.454c0-6.423 3.841-9.07 7.49-9.07 3.663 0 7.49 2.647 7.49 9.07 0 2.462 0 7 .022 8.632 0 .096-.015 6.125-.015 8.565m-7.349-31.295c-14.794 0-26.786 10.197-26.786 22.759 0 12.57 11.992 22.759 26.786 22.759s26.786-10.189 26.786-22.759c0-12.562-11.991-22.759-26.786-22.759m-321.224-5.206h18.369V34.357h-18.369zm.044 48.507h18.325V54.795h-18.325zm120.218-40.453V48.84h-9.929v-8.195h-18.34l.015 8.202-9.974.008v6.014h9.967l-.015 40.453h18.361l-.014-40.453zm-149.533 22.01-26.274-42.5H91.615l-.008 60.943h18.874v-42.5l26.407 42.5h18.807V34.379h-18.836z" style="fill:#fff;fill-rule:nonzero" transform="translate(30 65.833)scale(.83333)"/></svg>