<svg xmlns="http://www.w3.org/2000/svg" xml:space="preserve" style="fill-rule:evenodd;clip-rule:evenodd;stroke-linejoin:round;stroke-miterlimit:2" viewBox="0 0 560 320"><path d="M.95.03h559.24v320H.95z" style="fill:#2e6dff"/><path d="M41.664 124.016h-5.747L5.894 80.843v43.173H0V72.002h7.22l28.585 41.258V72.002h5.859zm34.627 0H47.263l-.112-52.014h29.028v5.879H52.99v16.462h21.672v5.835H52.99v18.963h23.235zm29.726-53.495c-15.079 0-27.488 12.409-27.488 27.488 0 15.08 12.409 27.488 27.488 27.488 15.08 0 27.488-12.408 27.488-27.488s-12.408-27.488-27.488-27.488m.073 6.048c11.802 0 21.513 9.712 21.513 21.514s-9.712 21.514-21.514 21.513-21.513-9.711-21.513-21.513 9.711-21.513 21.513-21.514m147.276-6.048c-15.08 0-27.488 12.409-27.488 27.488 0 15.08 12.408 27.488 27.488 27.488s27.488-12.408 27.488-27.488-12.409-27.488-27.488-27.488m.073 6.048c11.802 0 21.514 9.712 21.514 21.514s-9.712 21.514-21.514 21.513-21.513-9.711-21.513-21.513c-.001-11.802 9.711-21.513 21.513-21.514m-89.133-6.327a27.5 27.5 0 0 0-8.811 1.588c-13.26 4.708-20.909 18.71-17.753 32.457s16.151 22.978 30.128 21.381 24.567-14.665 24.567-26.688h-6.52c0 9.087-8.065 18.984-18.788 20.21-10.722 1.225-20.601-5.783-23.029-16.363s3.404-21.238 13.58-24.852c9.099-3.231 19.004.106 24.383 7.825h7.541c-4.627-9.47-14.043-15.234-24.043-15.548a28 28 0 0 0-1.255-.01" style="fill:#fff;fill-rule:nonzero" transform="translate(30 83.25)scale(.83333)"/><path d="M192.437 98.98h-36.402v5.887h31.882zm32.38 25.036H195.79l-.112-52.014h29.027v5.879h-23.188v16.462h21.671v5.835h-21.671v18.963h23.234zM374.19 70.521c-15.079 0-27.488 12.409-27.488 27.488 0 15.08 12.409 27.488 27.488 27.488s27.488-12.408 27.488-27.488-12.409-27.488-27.488-27.488m.073 6.048c11.803 0 21.514 9.712 21.514 21.514s-9.712 21.514-21.514 21.513-21.513-9.711-21.513-21.513 9.711-21.513 21.513-21.514m60.572-6.328v.001a27.5 27.5 0 0 0-8.81 1.588c-13.261 4.709-20.909 18.71-17.754 32.457 3.156 13.747 16.152 22.978 30.129 21.381 9.732-1.112 17.817-7.787 21.833-15.797h-7.455c-3.364 4.832-8.776 8.594-15.119 9.319-10.722 1.225-20.601-5.783-23.03-16.363-2.428-10.579 3.405-21.238 13.581-24.852 9.099-3.231 19.004.106 24.382 7.825h7.542c-4.627-9.47-14.043-15.234-24.043-15.548a31 31 0 0 0-1.256-.011m113.558 53.775h-29.028l-.112-52.014h29.028v5.879h-23.189v16.462h21.672v5.835h-21.672v18.963h23.235zm-81.484-52.014h5.929v52.014h-5.929zm35.252 52.014h7.81L483.006 96.02l-4.863 3.684z" style="fill:#fff;fill-rule:nonzero" transform="translate(30 83.25)scale(.83333)"/><path d="M502.014 72.002h7.662l-39.931 41.405 1.62-10.756zm55.55 0H600v5.879h-42.436z" style="fill:#fff;fill-rule:nonzero" transform="translate(30 83.25)scale(.83333)"/><path d="M575.688 72.002h6.006v52.014h-6.006zm-277.129 1.779 7.445-21.46 19.768.06.169 9.621-13.047-.105-2.665 9.876 13.396 9.691c6.602-2.712 11.315-8.612 12.284-15.379s-1.961-13.318-7.636-17.076c-5.676-3.758-13.16-4.005-19.555-.831l-21.514 10.676 32.422 65.335-8.447 4.192-36.811-74.178 30.621-15.196c10.031-4.977 21.968-3.771 30.495 3.083s12.059 18.08 9.022 28.679S332.033 89.234 322 92.394zM323.261.989l-3.439 25.526 6.46 1.251 9.065-25.006zm25.318 8.022L335.868 31.1l5.626 3.751 16.045-19.484zm16.983 15.316L347.12 40.79l4.272 6.355 20.317-12.711z" style="fill:#fff;fill-rule:nonzero" transform="translate(30 83.25)scale(.83333)"/></svg>