<svg xmlns="http://www.w3.org/2000/svg" xml:space="preserve" style="fill-rule:evenodd;clip-rule:evenodd;stroke-linejoin:round;stroke-miterlimit:2" viewBox="0 0 560 320"><path d="M.95.03h559.24v320H.95z" style="fill:#b667d0"/><path d="M41.664 123.343h-5.747L5.894 80.17v43.173H0V71.33h7.22l28.585 41.257V71.33h5.859zm34.627 0H47.263l-.112-52.013h29.028v5.879H52.99v16.462h21.672v5.834H52.99v18.963h23.235zm29.726-53.494c-15.079 0-27.488 12.408-27.488 27.487 0 15.08 12.409 27.488 27.488 27.488 15.08 0 27.488-12.408 27.488-27.488s-12.408-27.487-27.488-27.487m.073 6.047c11.802 0 21.513 9.712 21.513 21.514v.001c0 11.802-9.712 21.513-21.514 21.513-11.802-.001-21.513-9.712-21.513-21.513 0-11.803 9.711-21.514 21.513-21.515m147.276-6.047c-15.08 0-27.488 12.408-27.488 27.487 0 15.08 12.408 27.488 27.488 27.488s27.488-12.408 27.488-27.488-12.409-27.487-27.488-27.487m.073 6.047c11.802 0 21.514 9.712 21.514 21.514v.001c0 11.802-9.712 21.513-21.514 21.513-11.802-.001-21.513-9.712-21.513-21.513-.001-11.803 9.711-21.514 21.513-21.515m-89.133-6.327c-2.937.043-5.91.558-8.811 1.588-13.26 4.709-20.909 18.71-17.753 32.457s16.151 22.978 30.128 21.381 24.567-14.665 24.567-26.688h-6.52c0 9.087-8.065 18.985-18.788 20.21-10.722 1.225-20.601-5.783-23.029-16.362-2.429-10.58 3.404-21.239 13.58-24.852 9.099-3.232 19.004.105 24.383 7.824h7.541c-4.627-9.47-14.043-15.234-24.043-15.547a26 26 0 0 0-1.255-.011" style="fill:#fff;fill-rule:nonzero" transform="translate(30 78.333)scale(.83333)"/><path d="M192.437 98.307h-36.402v5.887h31.882zm32.38 25.036H195.79l-.112-52.013h29.027v5.879h-23.188v16.462h21.671v5.834h-21.671v18.963h23.234zM374.19 69.849c-15.079 0-27.488 12.408-27.488 27.487 0 15.08 12.409 27.488 27.488 27.488s27.488-12.408 27.488-27.488-12.409-27.487-27.488-27.487m.073 6.047c11.803 0 21.514 9.712 21.514 21.514v.001c0 11.802-9.712 21.513-21.514 21.513-11.802-.001-21.513-9.712-21.513-21.513 0-11.803 9.711-21.514 21.513-21.515m60.572-6.328v.001a27.5 27.5 0 0 0-8.81 1.588c-13.261 4.709-20.909 18.71-17.754 32.457 3.156 13.748 16.152 22.978 30.129 21.381 9.732-1.112 17.817-7.787 21.833-15.797h-7.455c-3.364 4.832-8.776 8.594-15.119 9.319-10.722 1.225-20.601-5.783-23.03-16.362-2.428-10.58 3.405-21.239 13.581-24.852 9.099-3.232 19.004.105 24.382 7.824h7.542c-4.627-9.47-14.043-15.234-24.043-15.547a29 29 0 0 0-1.256-.012m113.558 53.775h-29.028l-.112-52.013h29.028v5.879h-23.189v16.462h21.672v5.834h-21.672v18.963h23.235zM466.909 71.33h5.929v52.014h-5.929zm35.252 52.013h7.81l-26.965-27.996-4.863 3.684z" style="fill:#fff;fill-rule:nonzero" transform="translate(30 78.333)scale(.83333)"/><path d="M502.014 71.33h7.662l-39.931 41.404 1.62-10.756zm55.55 0H600v5.879h-42.436z" style="fill:#fff;fill-rule:nonzero" transform="translate(30 78.333)scale(.83333)"/><path d="M575.688 71.33h6.006v52.014h-6.006zm-277.129 1.778 7.445-21.46 19.768.06.169 9.621-13.047-.105-2.665 9.876 13.396 9.691c6.602-2.712 11.315-8.612 12.284-15.379s-1.961-13.318-7.636-17.076c-5.676-3.758-13.16-4.005-19.555-.831l-21.514 10.677 32.422 65.334-8.447 4.192-36.811-74.178 30.621-15.196c10.031-4.977 21.968-3.771 30.495 3.083s12.059 18.08 9.022 28.679S332.033 88.561 322 91.721zM323.261.316l-3.439 25.527 6.46 1.25 9.065-25.006zm25.318 8.023-12.711 22.088 5.626 3.751 16.045-19.484zm16.983 15.316L347.12 40.117l4.272 6.355 20.317-12.711zM211.525 137.709v.001a16.4 16.4 0 0 0-5.272.949c-7.935 2.818-12.511 11.196-10.623 19.422s9.664 13.749 18.027 12.793c5.824-.665 10.661-4.659 13.065-9.452h-4.461c-2.013 2.891-5.251 5.142-9.047 5.576-6.415.733-12.327-3.46-13.78-9.791-1.453-6.33 2.037-12.708 8.126-14.87a12.61 12.61 0 0 1 14.59 4.682h4.512a16.6 16.6 0 0 0-15.137-9.309zm53.14.517c-9.023 0-16.448 7.425-16.448 16.448s7.425 16.447 16.448 16.447 16.447-7.424 16.447-16.447-7.424-16.448-16.447-16.448m.043 3.619c7.062 0 12.873 5.811 12.873 12.873-.001 7.062-5.812 12.873-12.874 12.873-7.061-.001-12.872-5.811-12.872-12.873s5.811-12.873 12.872-12.873" style="fill:#fff;fill-rule:nonzero" transform="translate(30 78.333)scale(.83333)"/><path d="M304.88 138.798h3.46v31.123h-3.46z" style="fill:#fff" transform="translate(30 78.333)scale(.83333)"/><path d="M304.88 167.004h17.329v2.917H304.88z" style="fill:#fff" transform="translate(30 78.333)scale(.83333)"/><path d="M356.125 138.226c-9.023 0-16.447 7.425-16.447 16.448s7.424 16.447 16.447 16.447 16.448-7.424 16.448-16.447-7.425-16.448-16.448-16.448m.044 3.619c7.062 0 12.873 5.811 12.873 12.873s-5.811 12.873-12.873 12.873c-7.062-.001-12.872-5.811-12.873-12.873s5.811-12.873 12.873-12.873m39.093-3.047h3.46v31.123h-3.46z" style="fill:#fff;fill-rule:nonzero" transform="translate(30 78.333)scale(.83333)"/><path d="M407.402 159.453a10.47 10.47 0 0 0-2.42-20.655h-9.72l1.935 3.482h7.738a6.948 6.948 0 1 1 0 13.897h-7.674l-.129 3.745h5.841l7.347 9.999h4.476z" style="fill:#fff;fill-rule:nonzero" transform="translate(30 78.333)scale(.83333)"/></svg>