<svg xmlns="http://www.w3.org/2000/svg" xml:space="preserve" style="fill-rule:evenodd;clip-rule:evenodd;stroke-linejoin:round;stroke-miterlimit:2" viewBox="0 0 560 320"><path d="M.95.03h559.24v320H.95z" style="fill:#b44cff"/><g transform="translate(30 57.083)scale(.83333)"><clipPath id="a"><path d="M0 0h600v247H0z"/></clipPath><g clip-path="url(#a)"><circle cx="220.146" cy="12.694" r="8.329" style="fill:#fff"/><path d="M491.039 84.223v82.031h17.068v-34.143h23.738v-17.068h-23.738v-13.752h25.609V84.223zm-19.097 49.008c.614-2.589.94-5.292.94-8.071s-.326-5.481-.94-8.07h11.785c.46 2.619.701 5.317.701 8.07s-.241 5.451-.701 8.071z" style="fill:#fff"/><path d="M468.763 109.073c-5.818-11.154-17.492-18.775-30.932-18.775-19.241 0-34.863 15.621-34.863 34.862 0 19.242 15.622 34.863 34.863 34.863 13.44 0 25.114-7.622 30.932-18.775h8.479c-6.351 15.524-21.613 26.473-39.411 26.473-23.49 0-42.56-19.071-42.56-42.561s19.07-42.56 42.56-42.56c17.798 0 33.06 10.948 39.411 26.473zm-128.515-24.85h22.247c16.23 0 29.408 13.498 29.408 29.729 0 16.23-13.178 29.408-29.408 29.408h-13.257v22.894h-8.99zm8.99 50.147V93.212h13.257c11.358 0 20.579 9.221 20.579 20.579s-9.221 20.579-20.579 20.579zm216.302-27.802-12.901-22.345h-19.708l22.622 39.183-25.414 42.848h19.844l15.359-25.894 14.95 25.894H600l-24.671-42.732 23.309-39.299h-19.844z" style="fill:#fff"/><path d="M491.039 84.638v82.031h17.068v-34.143h23.738v-17.068h-23.738v-13.752h25.609V84.638zm-19.097 49.008c.614-2.589.94-5.292.94-8.07s-.326-5.482-.94-8.071h11.785c.46 2.619.701 5.317.701 8.071s-.241 5.451-.701 8.07z" style="fill:#fff"/><path d="M468.763 109.488c-5.818-11.153-17.492-18.775-30.932-18.775-19.241 0-34.863 15.621-34.863 34.863s15.622 34.862 34.863 34.862c13.44 0 25.114-7.621 30.932-18.775h8.479c-6.351 15.525-21.613 26.473-39.411 26.473-23.49 0-42.56-19.071-42.56-42.56s19.07-42.561 42.56-42.561c17.798 0 33.06 10.949 39.411 26.473zm-128.515-24.85h22.247c16.23 0 29.408 13.499 29.408 29.729 0 16.231-13.178 29.408-29.408 29.408h-13.257v22.894h-8.99zm8.99 50.147V93.628h13.257c11.358 0 20.579 9.221 20.579 20.579 0 11.357-9.221 20.578-20.579 20.578zm216.302-27.802-12.901-22.345h-19.708l22.622 39.183-25.414 42.848h19.844l15.359-25.894 14.95 25.894H600l-24.671-42.732 23.309-39.299h-19.844zm-341.42 86.976v52.389l98.03-56.912v-52.389zm-3.639 0v52.389l-97.672-56.704v-52.389z" style="fill:#fff"/><path d="M245.003 21.023c-.653-1.682 91.874 18.02 46.353 72.258-26.843-59.408-195.787-32.295-122.46 30.676-1.347 13.037 9.831 22.217 13.557 23.901-.652 11.688 9.961 26.307 48.745 23.135-2.565 22.583 29.293.959 31.358-15.452 5.22-1.171 12.906-13.652 11.867-19.016.973-.154 12.312-6.387 17.051-27.064 4.077-1.136 74.543-74.363-49.207-100.471-4.874-1.029-8.681 1.314-8.795 5.909-.109 4.348 11.531 6.124 11.531 6.124m-48.52 132.668c7.111 1.321 15.275 2.054 24.026 1.952a140.6 140.6 0 0 0 27.554-3.055c-8.903 9.816-39.107 10.894-51.58 1.103m6.808-11.227c1.621-3.206 9.425-4.867 17.206-4.925s15.541 1.489 17.075 4.698c-10.374 3.462-24.604 2.928-34.281.227m-11.084-10.767c-3.368-.318-4.294-.713-8.536-2.89-.769.318-2.172 1.266-2.64 2.689 2.516 3.111 3.815 4.336 6.513 4.931 1.556-1.501 2.203-3.494 4.663-4.73m55.172-.328c3.368-.318 8.609-2.224 12.85-4.401 3.077.604 3.2 1.995 3.667 3.417-2.802 2.708-6.677 4.964-9.334 6.042-1.556-1.501-3.757-3.72-7.183-5.058m-60.207-13.198c6.195-6.334 19.742-9.242 33.042-9.164s26.353 3.144 31.559 8.756c-10.371 5.391-47.176 7.343-64.601.408m78.219-5.433c-41.358-28.793-83.625-8.641-91.308.676-54.313-43.755 104.358-63.749 106.45-9.453-3.173 2.511-8.295 6.643-15.142 8.777" style="fill:#fff"/><path d="M220.481 74.88v19.166c-12.657-.175-23.937 2.606-32.552 6.169-6.093 2.519-10.881 5.474-14.008 8.083-5.452-4.94-7.816-9.311-7.304-13.382.409-3.254 2.712-6.033 6.071-8.506 4.015-2.955 9.511-5.366 15.864-7.225 9.398-2.75 20.635-4.27 31.929-4.305m0 43.955c-8.504.121-17.297-.467-24.534-2.021 6.435-2.871 15.424-4.069 24.244-4.016l.29.002z" style="fill:#fff"/><path d="M179.316 154.167a21.4 21.4 0 0 1-.647-4.148c-5.129-3.491-13.913-12.399-13.668-24.433-14.978-13.342-19.585-25.43-17.837-35.361 1.83-10.388 10.743-19.008 23.893-24.844 13.443-5.965 31.339-9.126 49.424-8.895V24.809q-.168.004-.335.004a12.07 12.07 0 0 1-8.08-3.089l-89.257 51.819v59.527l46.422 26.951z" style="fill:#fff"/><path d="M0 1.563h11.136c2.548 0 5.551 2.379 6.89 3.688l19.537 21.663V1.563h6.638V36.15H32.582c-2.07-.069-4.103-.495-6.471-2.822L6.605 11.625V36.15H0zm138.372 34.823c-7.949 1.085-15.991 1.192-24.049.515-4.718-.417-9.339-1.387-13.573-3.598-5.347-2.771-7.05-8.999-6.979-14.644.059-5.211 1.609-10.774 6.258-13.803 3.048-2.001 6.303-2.657 9.762-3.284 9.442-1.664 18.902-1.289 28.113-.279v4.934c-10.863-2.111-22.337-1.586-26.236 3.405-2.436 3.105-2.783 6.194-2.783 8.795 0 4.687 1.603 11.797 11.127 13.179 6.214.912 12.365.22 18.36-.872zm-68.024-5.379c.94.009 15.911.078 21.05 0v5.168c-10.352.398-20.298.572-30.755.137-8.873-.366-10.401-4.828-10.573-9.114V1.562h40.833v4.925H64.486v8.806h24.077v4.806H64.486c0 2.601.086 5.551.111 6.081.141 3.354 1.697 4.587 5.751 4.827" style="fill:#fff;fill-rule:nonzero"/></g></g></svg>