<svg xmlns="http://www.w3.org/2000/svg" xml:space="preserve" style="fill-rule:evenodd;clip-rule:evenodd;stroke-linejoin:round;stroke-miterlimit:2" viewBox="0 0 560 320"><path d="M.95.03h559.24v320H.95z" style="fill:#4169e1"/><g transform="translate(30 111.25)scale(.83333)"><clipPath id="a"><path d="M0 0h600v117H0z"/></clipPath><g clip-path="url(#a)"><path d="m281.647 43.051 18.338 48.061-10.528 25.784h8.32l30.317-73.845h-9.289l-13.206 35.992-12.287-35.992zm53.995 48.851v-6.068s10.599.415 12.808.415c4.891 0 7.333-1.042 9.172-3.014 1.086-1.183 2.066-6.421 2.066-8.288 0-1.859-.358-5.881-1.085-7.529-.752-1.614-2.46-3.121-5.021-3.339-1.826-.157-4.649-.526-7.95-.678-4.629-.219-7.688-2.634-9.162-4.37-1.46-1.738-3.417-4.355-3.417-12.361 0-8.017 2.073-12.51 4.152-14.595 2.079-2.096 5.12-3.014 7.458-3.429 2.688-.459 7.081-.487 7.081-.487l14.029.409v6.068s-10.23-.409-12.431-.409c-4.892 0-6.36 1.048-8.192 3.015-1.082 1.17-1.927 4.409-1.927 6.264 0 1.864.217 5.63.952 7.26.728 1.615 2.443 3.127 5.009 3.357 1.821.14 4.65.51 7.945.66 4.649.219 7.703 2.628 9.16 4.372 1.475 1.741 3.434 5.412 3.434 13.411 0 8.018-2.09 13.745-4.158 15.835-2.083 2.083-5.12 3.015-7.456 3.418-2.695.463-7.087.498-7.087.498zM218.301 28.076h10.022v64.208h-10.022zm172.03 6.15h-10.018v47.138s.24 4.302.488 5.815c.245 1.513 2.448 5.105 8.19 5.105l10.382-.202v-6.046s-2.812.202-4.509.202c-1.721 0-3.805-.112-4.158-3.02-.376-2.902-.376-6.37-.376-6.37V49.091h11.319v-6.04H390.33v-8.824zm96.728 8.828h10.018v49.23h-10.018zM467.1 34.226h-10.023v47.138s.236 4.302.478 5.815c.251 1.513 2.436 5.105 8.202 5.105l10.38-.202v-6.046s-2.818.202-4.52.202-3.793-.112-4.158-3.02c-.358-2.902-.358-6.37-.358-6.37V49.091h11.289v-6.04h-11.289zm-298.227-6.151v64.207h10.024V34.229h9.278s6.741 0 9.049 3.014c1.961 2.561 2.319 7.206 2.319 10.343 0 3.357-.212 8.544-1.339 10.443-1.709 2.902-4.516 3.484-7.082 3.484h-6.125v5.699h8.808s7.946.331 11.364-3.143c4.19-4.258 5.254-9.984 5.254-17.649 0-6.965-2.527-13.991-7.692-16.377-4.275-1.967-11.984-1.967-11.984-1.967zm401.97 21.89 9.827-.414c2.571 0 5.598.694 7.066 2.555 1.367 1.753 2.229 3.843 2.229 7.21v32.912H600V58.487c0-6.381-1.967-10.091-4.914-12.421-4.202-3.334-11.731-3.015-11.731-3.015l-22.451.403v48.774h9.939zm-304.485 9.351c0-3.367-.857-5.457-2.237-7.21-1.468-1.861-4.481-2.557-7.06-2.557l-13.218.416v-6.511l15.908-.403s7.529-.32 11.738 3.015c2.936 2.332 4.885 6.04 4.885 12.421v33.27l-19.206.414s-8.695.031-13.077-1.741c-4.269-1.738-6.599-6.505-6.599-13.123 0-6.387 1.955-10.097 4.891-12.427 4.207-3.339 11.731-3.009 11.731-3.009h6.136v5.671h-3.441c-2.577 0-5.226.476-6.701 2.336-1.372 1.736-2.107 3.245-2.107 6.612 0 4.42.857 6.391 2.936 7.894 1.839 1.339 5.127 1.629 8.798 1.629l6.623-.403zm168.996 0c0-3.367-.839-5.457-2.218-7.21-1.485-1.861-4.499-2.557-7.059-2.557l-13.212.416v-6.511l15.895-.403s7.525-.32 11.728 3.015c2.936 2.332 4.897 6.04 4.897 12.421v33.27l-19.208.414s-8.706.031-13.077-1.741c-4.275-1.738-6.611-6.505-6.611-13.123 0-6.387 1.972-10.097 4.891-12.427 4.203-3.339 11.743-3.009 11.743-3.009h6.13v5.671h-3.445c-2.561 0-5.227.476-6.684 2.336-1.379 1.736-2.118 3.245-2.118 6.612 0 4.42.863 6.391 2.936 7.894 1.832 1.339 5.138 1.629 8.807 1.629l6.606-.403zm93.39-16.685c6.818 0 12.108 1.524 14.948 3.821 2.869 2.304 6.391 7.161 6.391 21.218s-3.522 18.909-6.391 21.219c-2.841 2.296-8.13 3.832-14.948 3.832-6.837 0-12.103-1.536-14.966-3.832-2.862-2.31-6.37-7.161-6.37-21.219 0-14.057 3.508-18.916 6.37-21.218 2.863-2.297 8.129-3.821 14.966-3.821m-6.869 9.44c-1.38 1.699-3.06 5.267-3.06 15.599 0 10.327 1.68 13.9 3.058 15.592 1.374 1.682 3.905 2.819 7.184 2.819 3.283 0 5.804-1.138 7.195-2.818 1.372-1.693 3.052-5.268 3.052-15.592 0-10.333-1.68-13.902-3.052-15.599-1.391-1.685-3.912-2.813-7.195-2.813-3.277 0-5.81 1.126-7.184 2.813zm-34.816-23.998h10.018v8.938h-10.018z" style="fill:#fff"/><path d="M52.331.259v100.819l22.828 7.232V23.775c0-3.984 1.776-6.629 4.625-5.719 3.724 1.033 4.448 4.703 4.448 8.642v33.761c14.209 6.878 25.396-.004 25.396-18.15 0-18.542-6.558-26.802-25.858-33.444C76.159 6.331 62.051 2.054 52.332.259" style="fill:#fff;fill-rule:nonzero"/><path d="m79.501 93.571 36.663-13.05c4.148-1.537 4.782-3.625 1.425-4.723-3.409-1.118-9.495-.798-13.686.707l-24.402 8.608V71.378l1.397-.461s7.064-2.502 16.998-3.58c9.915-1.087 22.076.142 31.633 3.744 10.766 3.42 11.972 8.409 9.249 11.881-2.764 3.436-9.464 5.921-9.464 5.921l-49.813 17.894zm-68.996-1.389C-.534 89.108-2.375 82.61 2.662 78.856c4.644-3.427 12.555-6.008 12.555-6.008l32.7-11.659v13.27l-23.51 8.427c-4.164 1.49-4.789 3.586-1.434 4.682 3.414 1.141 9.473.835 13.64-.703l11.304-4.076v11.847c-.728.122-1.539.245-2.278.371-11.271 1.871-23.278 1.103-35.134-2.824z" style="fill:#fff"/></g></g></svg>