<svg xmlns="http://www.w3.org/2000/svg" xml:space="preserve" style="fill-rule:evenodd;clip-rule:evenodd;stroke-linejoin:round;stroke-miterlimit:2" viewBox="0 0 560 320"><path d="M.95.03h559.24v320H.95z" style="fill:#cc2936"/><g transform="translate(30 97.917)scale(.83333)"><clipPath id="a"><path d="M0 0h600v149H0z"/></clipPath><g clip-path="url(#a)"><path d="M29.29 1.197c-5.695 0-11.187 4.678-12.204 10.373v.611l-.204-.204v.814l-.203.203v.814l-.203.203v.407l-.407 1.22v.814l-.204.61-.407 1.627-.203 1.017-.203.814-.407 1.831-.204 1.017-.203.813v.61l-.814 3.255-.203.61-.203.814v.203l-.204.203v.611l-.203.406v.407l-.204.204v.406c-.203 2.441.204 5.899 1.017 6.509 1.017 5.492 19.527 31.121 18.917 34.985.203 3.662-2.034 15.255-2.034 15.255-.61 3.865-3.255 6.916-7.119 6.916-3.865 0-6.509-3.051-5.899-6.916l3.458-19.119H6.916L2.441 95.982c-1.017 5.492 2.644 9.763 8.136 9.763h19.73c5.492 0 10.577-4.271 11.594-9.763 0 0 5.085-24.815 5.085-26.646s-.611-2.034-.611-2.034c0-2.034-16.475-29.086-18.102-30.103-.814-.407-1.221-3.051-1.424-4.678 0-1.628 2.237-12.408 2.237-12.408.611-3.864 4.272-6.915 8.136-6.915 3.865 0 5.492 3.051 4.882 6.915l-3.051 17.086h13.831l4.882-25.832c1.22-5.492-2.441-10.17-8.136-10.17zm37.832 0L50.647 95.982c-1.017 5.492 2.644 9.763 8.136 9.763h19.73c5.492 0 10.78-4.271 11.797-9.763l17.493-94.785H95.395L78.716 93.338c-.203 1.423-1.627 2.44-2.847 2.44h-9.764c-1.423 0-2.237-1.22-2.034-2.44L80.343 1.197zm47.19 0L94.378 105.745h13.425l9.153-47.392h16.679c5.491 0 10.576-4.272 11.594-9.764l7.119-37.222c1.017-5.695-2.645-10.374-8.137-10.374h-29.899zm47.189 0-20.747 104.548h29.696l2.034-13.018h-14.645l5.899-35.391h14.645l2.034-10.984h-14.645l6.509-32.341h14.848l2.034-12.814zm35.391 0-19.729 104.548h13.221l8.949-47.392h9.357c1.22 1.22 1.424 3.254 1.627 4.271.203 1.627.407 3.458.407 5.085-.204 1.627-7.119 38.036-7.119 38.036h13.221s7.322-39.663 7.322-40.273 0-2.645-.813-3.865c-.407-.814-1.221-2.441-2.238-3.051-1.83-1.22-3.864-2.034-3.864-2.034h-1.017c3.864-1.424 10.78-3.865 11.593-7.933l7.119-37.222c1.017-5.695-2.644-10.374-8.136-10.374h-29.9zm70.377 0-19.933 104.548h15.052l12.204-60.613 4.881 60.613h13.221L312.628 1.197h-15.052l-10.373 54.715-6.713-54.715zm52.274 0L299.61 105.745h13.221L332.764 1.197zm20.137 0-19.933 104.548h15.255l12.204-60.613 4.882 60.613h13.221l19.73-104.548h-15.255l-10.171 54.715-6.712-54.715zm51.054 0-2.441 13.018h8.136l-16.272 91.53h15.052l16.475-91.53h7.933l2.034-13.018zm36.205 0-20.543 104.548h29.696l2.034-13.018h-14.645l6.102-35.391h14.645l2.034-10.984h-14.645l6.306-32.341h14.645L454.602.993h-27.663zm33.358 0-19.933 104.548h15.255l12.204-60.613 4.882 60.613h13.221L505.859 1.197h-15.255l-10.17 54.715-6.916-54.715zm52.478 0-19.934 104.548h30.104c5.491 0 10.78-4.271 11.797-9.763l15.865-84.412c1.017-5.695-2.644-10.373-8.136-10.373zm56.342 0c-5.695 0-10.984 4.678-12.001 10.373l-14.645 84.412c-1.017 5.492 2.644 9.763 7.933 9.763h21.764c5.492 0 10.78-4.271 11.797-9.763L599.83 11.57c1.017-5.695-2.644-10.373-8.136-10.373zm-45.155 12.001h6.102c3.864 0 6.509 3.051 5.898 6.915l-13.017 68.546c-.611 3.865-4.475 7.119-8.34 7.119h-6.102zm52.477 0h.814c3.864 0 6.509 3.051 5.695 6.915l-12.204 68.546c-.61 3.865-4.271 7.119-8.136 7.119s-5.492-3.254-4.882-7.119l12.204-68.342 2.441-4.882.204-.203.406-.814.407-.203.407-.407.814-.407.203-.203 1.22-.611.204-.203.407-.203-1.017 1.22h.406zm-449.313.406h6.305c1.424 0 4.272 3.255 4.068 4.679l-5.492 25.832c-.203 1.423-2.034 4.474-3.457 4.474h-8.136l-.204-.203h-.813v-.203h-.204.814-.204l-.203-.204h-.203l-.407-.407v-.203l-.407-.407v-.407l-.203-.203v-.407l-.204-.203v-.814l6.102-31.527c1.424.61 2.034.203 2.848.203m81.971 0h6.508c1.424 0 4.475 3.255 4.068 4.679l-5.491 25.628c-.204 1.424-3.662 4.475-4.882 4.475h-5.695c-1.221 0-2.034-.814-2.034-1.831v-.61l6.102-31.527.61-.61h.203l.407-.407h.204l.203-.203h.203l.204-.204h.203zM0 114.695v34.171h587.219v-34.171zm431.617 3.661h5.289c1.22 0 2.034 1.017 1.831 2.237l-1.221 5.696h-2.847l.61-3.865c.203-.814-.407-1.627-1.221-1.627-.813 0-1.627.61-1.83 1.627l-.611 2.848c0 .203.204 1.017.407 1.017.407.203 4.068 6.305 4.068 6.712 0 .203.204.407.204.407-.204.813-1.221 5.898-1.221 5.898-.203 1.221-1.424 2.238-2.644 2.238h-4.271c-1.221 0-2.034-1.017-1.831-2.238l1.017-5.898h3.051l-.814 4.271c-.203.814.407 1.627 1.221 1.627.813 0 1.627-.813 1.83-1.627l.611-3.458c-.611-1.424-4.272-6.509-4.475-7.729-.204-.203-.204-.814-.204-1.424s.814-4.475.814-4.475h.203v-.61l.204-.203v-.204l.203-.203v-.203l.204-.204v-.203l.406-.407v-.203h.204l.61-.611v-.203h.203l.407-.407h.204l.203-.203h.203l.204-.204h.203zm23.798 0h3.662l.61 8.746 4.678-8.746h3.661L460.5 131.78l-1.83 9.764h-3.255l1.628-10.577zm33.562 0h5.288c1.22 0 2.034 1.017 1.831 2.237l-1.221 5.696h-2.847l.61-3.865c.203-.814-.407-1.627-1.221-1.627-.813 0-1.627.61-1.83 1.627l-.61 2.848c-.204.203.203 1.017.406 1.017.407.203 4.068 6.305 4.068 6.712.204.203.204.407.204.407-.204.813-1.017 5.898-1.017 5.898-.204 1.221-1.424 2.238-2.644 2.238h-4.475c-1.221 0-2.034-1.017-1.831-2.238l1.017-5.898h3.051l-.813 4.271c-.204.814.406 1.627 1.22 1.627s1.627-.813 1.831-1.627l.61-3.458c-.61-1.424-4.272-6.509-4.475-7.729-.203-.203-.203-.814-.203-1.424s.813-4.475.813-4.475l.204-.203v-.407l.203-.203v-.204l.203-.203v-.203l.204-.204v-.203l.407-.407v-.203h.203l1.22-1.221h.204l.203-.203h.204l.203-.204h.203zm24.001 0h6.916l-.611 2.848h-1.83l-3.661 20.34h-3.255l3.661-20.34h-1.627zm27.052 0h6.102l-.61 2.848h-3.254l-1.424 7.322h3.254l-.61 2.441h-3.254l-1.424 7.729h3.254l-.406 2.848h-6.509zm25.426 0h3.864l.61 13.424 5.899-13.221 3.661-.203-4.068 23.188h-2.847l1.83-12.204-5.085 12.204h-2.034l-.61-12.611-2.237 12.611h-3.458zm-552.642.814h6.102l-.406 2.847h-3.458l-1.221 7.323h3.255l-.407 2.44h-3.458l-1.22 7.73h3.254l-.61 2.847H8.136zm28.273 0h2.848l1.627 12.204 2.237-12.204h3.458l-4.475 23.391h-2.847l-1.221-13.628-2.644 13.424h-3.458zm30.917 0h6.712l-.407 2.847h-1.83l-3.661 20.34h-3.255l3.661-20.34h-1.83zm29.9 0h6.102l-.61 2.847h-3.255l-1.22 7.323h3.254l-.406 2.44h-3.255l-1.22 7.73h3.254l-.407 2.847h-6.508zm29.086 0h6.509c1.221 0 2.034 1.017 1.831 2.44l-1.627 8.136c-.204.814-1.831 1.628-2.645 2.034h.611v.204h.813l.204.203h-.407.203v.204h.407v.203h.203c.204.203.204 1.017.204 1.221 0 .203-1.627 9.153-1.627 9.153h-3.458s1.627-8.136 1.627-8.34c0-.407 0-.813-.203-1.22 0-.204 0-.611-.407-1.017h-2.034l-2.034 10.577h-3.051zm29.494 0h6.915l-.61 2.847h-1.831l-3.661 20.34h-3.254l3.661-20.34h-1.831zm34.171 0h3.865l-1.221 23.391h-3.864l.61-5.289h-2.441l-2.034 5.289h-3.458zm27.459 0h3.051l-4.475 23.187h-3.051zm26.442 0h2.848l1.627 12.204 2.238-12.204h3.254l-4.271 23.391h-3.051l-1.017-13.425-2.645 13.425h-3.457zm34.172 0h3.864l.611 13.424 5.898-13.424h3.661l-3.864 23.187h-2.848l1.831-12.204-5.085 12.204h-2.034l-.61-12.611-2.238 12.611h-3.254zm37.222 0h6.102l-.407 2.847h-3.254l-1.424 7.119h3.255l-.407 2.441h-3.255l-1.423 7.729h3.254l-.61 2.848h-6.509zm29.9 0h2.848l1.627 12.204 2.237-12.204h3.255l-4.272 23.187h-2.847l-1.221-13.424-2.644 13.424h-3.458zm30.51 0h6.916l-.61 2.847h-1.831l-3.661 20.34h-3.254l3.661-20.34h-1.831zm-246.522 2.847c-.203 0-.203 0-.407.204l-1.424 6.915v.204c0 .203.204.406.407.406h1.221c.406 0 1.017-.61 1.22-1.017l1.22-5.695c0-.407-.61-1.017-.813-1.017zm60.817 6.916-2.237 5.899h1.627z" style="fill:#fff;fill-rule:nonzero"/></g></g></svg>