<svg xmlns="http://www.w3.org/2000/svg" xml:space="preserve" style="fill-rule:evenodd;clip-rule:evenodd;stroke-linejoin:round;stroke-miterlimit:2" viewBox="0 0 560 320"><path d="M.95.03h559.24v320H.95z" style="fill:#ff7b54"/><path d="M0 59.32h29.719v8.746h-8.698V186.77H10.508V68.066H0zm56.641 118.762h11.601V94.916h10.146v83.166c0 5.382-4.892 9.195-9.906 9.195H56.641c-5.299 0-10.027-4.313-10.027-9.304V94.916h10.027zm218.182-62.853h15.496v72.131h-21.836c-4.669 0-10.42-3.574-10.42-8.996V69.329c0-4.581 4.799-9.459 10.191-9.459h11.915c5.286 0 10.081 4.834 10.081 9.352v25.831h-10.444V69.582h-11.867v108.862h12.142v-54.388h-5.258zm149.84 27.863v43.72h-9.783v-83.735c0-3.783 3.759-7.904 8.516-7.904h16.129v8.071h-14.862v30.937h12.235v8.952zm34.703-47.895h10.269v33.35l5.799 5.83 5.676-5.668V95.197h10.145v31.731c0 3.874-10.023 14.082-10.023 14.082s10.146 10.201 10.146 14.336v31.65h-9.543v-32.951l-6.162-6.23-6.161 6.149v33.033h-10.146v-31.575c0-3.882 10.747-14.493 10.747-14.493s-10.747-10.094-10.747-14.161zm-337.005 48.101c3.442 0 8.02-4.115 8.02-9.622V103.58c0-4.331-4.939-8.363-10.557-8.363h-20.84v91.963h9.606v-43.206h3.624l10.691 43.043h9.423zm-1.901-8.993h-11.508v-30.178h11.508zm214.458 8.753c3.444 0 8.024-4.122 8.024-9.626v-30.096c0-4.329-4.943-8.366-10.557-8.366h-20.839v91.97h9.598v-43.212h3.628l10.693 43.041h9.421zm-2.04-9.096h-11.501v-30.177h11.501zm-151.149 11.505c-.044-4.122-4.346-6.729-4.346-6.729s4.346-2.813 4.346-6.724v-28.075c0-5.299-4.665-8.746-9.42-8.746h-21.928v91.804h21.928c4.44 0 9.42-2.773 9.42-8.743 0 0 .049-28.672 0-32.787m-9.875 32.534h-11.505v-34.217h11.505zm0-43.717h-11.505v-30.177h11.505zm51.87-39.769h-11.416c-5.754 0-9.944 4.919-9.944 8.66v74.557c0 4.82 5.368 9.189 9.899 9.189h12.412c4.848 0 9.695-5.005 9.695-8.996v-75.003c0-3.361-4.577-8.407-10.646-8.407m.362 82.93h-11.115v-73.848h11.115zm160.822-82.273H372.23c-5.711 0-9.064 4.707-9.064 8.408v83.232h9.605v-43.72h12.138v43.72h9.605v-82.73c-.001-5.49-3.8-8.91-9.606-8.91m-.274 38.841h-11.501v-29.591h11.501z" style="fill:#fff;fill-rule:nonzero" transform="translate(30 81.25)scale(.83333)"/><path d="M549.173 143.927h29.733v11.09h-29.733z" style="fill:#fff" transform="translate(30 81.25)scale(.83333)"/><path d="M552.844 93.899c-26.043 0-47.15 21.11-47.15 47.152s21.106 47.156 47.15 47.156c26.041 0 47.156-21.112 47.156-47.156-.001-26.041-21.115-47.152-47.156-47.152m-16.048 66.527h-14.952v-5.238h4.82v-27.671h-4.731v-5.411h10.139V155.1h4.724zm47.265-28.267h-4.805v-4.813h-30.343v11.514h32.403l2.745 2.753v15.213l-3.436 3.436h-33.169l-3.438-3.436v-31.369l3.184-3.181h33.943l2.916 2.92zM49.547 2.438h36.851l-2.444 14.003s-1.085-7.591-5.62-10.562c-1.126-.527-4.011-.491-11.24-.491l-2.83 16.696c5.764 1.356 12.156-7.427 12.156-7.427l-3.676 19.415s-2.255-8.791-9.318-8.5l-3.133 17.271c10.287 0 10.087-.073 12.572-1.591 2.399-1.466 7.999-8.68 8.21-9.69l-2.284 14.47H41.539c.276-1.927 3.905-2.134 5.529-3.239l3.048-16.798c-.246-1.502-3.192-.208-3.79-1.497.506-1.381 3.468-.476 4.328-1.472l3.092-17.043c-.552-1.288-4.199-1.92-4.199-3.545m69.519-1.311c1.622 3.346 2.926 7.021 4.113 10.817-2.254.874-5.378 2.294-5.378 2.294l-5.931-8.24c-6.178-.484-14.527 8.718-15.159 14.467-.74 6.802 3.492 13.521 10.122 14.095 6.907.6 15.184-5.244 15.184-5.244l-7.592 16.716c-15.658 5.572-27.245-4.656-27.838-16.716-.909-18.411 15.752-28.557 32.479-28.189" style="fill:#fff;fill-rule:nonzero" transform="translate(30 81.25)scale(.83333)"/><path d="M33.438 25.281 38.793.32 48.98 6.579l-8.143 4.803-7.383 35.986L9.643 20.571 6.382 37.164l5.793 4.778L0 47.368l5.915-28.024c.645-4.234-2.283-5.693-4.861-6.567L11.484.759z" style="fill:#fff;fill-rule:nonzero" transform="translate(30 81.25)scale(.83333)"/></svg>