<svg xmlns="http://www.w3.org/2000/svg" id="Layer_1" data-name="Layer 1" viewBox="0 0 560 320"><defs><style>.cls-1{fill:#2c3e50}.cls-3,.cls-4{fill:#fff;fill-rule:evenodd}.cls-4{fill:#4b367c}.cls-5{fill:#000;stroke:#3498db;stroke-miterlimit:10;stroke-width:.5px}</style></defs><path d="M68.42-.02H.76v320H560v-320z" class="cls-1"/><path d="M405.14-.12c-3.45 16.81-8.27 33.52-14.2 49.97-.77 2.14-1.56 4.27-2.37 6.4-3.15 8.31-6.6 16.53-10.28 24.65a462 462 0 0 1-18.36 36.11c-.66 1.19-1.34 2.38-2.03 3.56-.5.88-1 1.74-1.5 2.61-10.64 18.29-22.38 35.76-34.79 52.08-48.21 64.41-136.13 76.41-201.3 120.77-3.92 2.65-7.76 5.44-11.5 8.36a168 168 0 0 0-8.87 7.44c-2.85 2.53-5.66 5.19-8.43 7.96H-.37V-.12z" style="fill:#3498db"/><path d="M10.69 53.55h14.79l20.34 32.87V53.55h14.59v47.05H45.82L25.27 67.73v32.87H10.68V53.55Zm128.82 4.72h14.18v6.57h7.81v4.52h-7.81v31.23h-14.18V69.36h-7.6v-4.52h7.6zM68.42 100.6V69.37H82.6v31.23zm0-37.4v-9.66H82.6v9.66zm248.61 3.91c-11.51 0-20.75 7.81-20.75 17.67s9.25 17.67 20.75 17.67 20.75-8.01 20.75-17.67c-.21-9.66-9.45-17.67-20.75-17.67m5.54 17.67v6.57c0 4.93-2.88 6.99-5.75 6.99s-5.75-2.05-5.75-6.99V78c0-4.93 2.88-6.99 5.75-6.99s5.75 2.05 5.75 6.99zm-44.79 0v-5.55c0-4.93-3.29-6.16-5.55-6.16s-5.55 1.23-5.55 6.16v11.09c0 4.93 3.29 6.16 5.55 6.16s5.55-1.23 5.55-6.16v-5.55Zm-.2-31.23h13.97v47.05h-14.18v-1.85c-5.34 3.49-11.51 3.49-16.44 1.23-1.23-.62-9.66-4.52-9.66-15.61 0-8.22 7.81-17.26 18.08-16.44 3.29.41 5.75 1.64 8.01 2.88.21-7.19.21-17.26.21-17.26Zm-161.7 14.38c5.34-.21 16.03 3.29 16.03 15.82v17.05h-14.18V80.25c0-2.67-2.67-5.75-6.57-5.75s-6.78 2.88-6.78 5.75v20.55H90.2V69.57h14.18v3.29c2.88-2.88 6.78-4.93 11.51-4.93m115.25 0c5.34-.21 16.03 3.29 16.03 15.82v17.05h-14.18V80.25c0-2.67-2.67-5.75-6.37-5.75-3.9 0-6.78 2.88-6.78 5.75v20.55h-13.97V69.57h13.97v3.29c2.67-2.88 6.57-4.93 11.3-4.93m-44.79 21.78v1.85c0 5.75-3.7 6.99-5.96 6.99-2.05 0-5.96-1.23-5.96-6.99v-6.37h26.71c0-9.66-9.45-17.67-20.96-17.67s-20.96 7.81-20.96 17.67 9.45 17.67 20.96 17.67c9.66 0 17.67-5.34 20.13-12.74h-13.97m-11.7-9.86c0-2.67 0-4.52 1.03-6.16 1.03-1.85 3.08-2.88 4.93-2.88s3.9.82 4.93 2.88c.82 1.64.82 3.49.82 6.16zM338.6 60.53h1.03c1.03 0 1.64-.41 1.64-1.23s-.62-1.23-1.85-1.23h-.82v2.47Zm6.98.62c0 3.29-2.67 5.96-5.96 5.96s-5.96-2.67-5.96-5.96 2.67-5.75 5.96-5.75 5.96 2.47 5.96 5.75m-5.95-7.19c-3.9 0-7.19 3.29-7.19 7.19 0 4.11 3.29 7.19 7.19 7.19 4.11 0 7.19-3.29 7.19-7.19.21-3.9-3.08-7.19-7.19-7.19m.2 3.08c2.26 0 3.49.82 3.49 2.26 0 1.03-.62 1.85-1.85 2.26l1.85 3.49h-2.05l-1.44-3.29h-1.23v3.29h-1.85v-8.01z" style="fill:#fff"/><path d="M153.69 10.3V3.73h-14.18v6.57h-7.6v4.52h7.6v31.23h14.18V14.82h7.8V10.3zm-85.27 4.52v31.23H82.6V14.82zm248.61-2.26c-11.51 0-20.76 7.81-20.76 17.67s9.25 17.67 20.76 17.67 20.75-8.01 20.75-17.67c-.21-9.66-9.45-17.67-20.75-17.67m5.54 24.24c0 4.94-2.87 6.99-5.75 6.99s-5.75-2.05-5.75-6.99V23.45c0-4.93 2.87-6.99 5.75-6.99s5.75 2.06 5.75 6.99zM277.58-.02c-.01 2.71-.04 10.44-.21 16.28-2.26-1.23-4.72-2.47-8.01-2.88-10.27-.82-18.08 8.22-18.08 16.44 0 11.09 8.42 15 9.66 15.61 4.93 2.26 11.09 2.26 16.43-1.23v1.85h14.18V-.02zm.2 35.8c0 4.93-3.28 6.16-5.54 6.16s-5.55-1.23-5.55-6.16v-11.1c0-4.93 3.29-6.16 5.55-6.16s5.54 1.23 5.54 6.16zm-161.9-22.4c-4.72 0-8.63 2.06-11.5 4.93v-3.28H90.2v31.23h14.18V25.71c0-2.88 2.87-5.75 6.78-5.75s6.57 3.08 6.57 5.75v20.55h14.18V29.2c0-12.53-10.69-16.02-16.03-15.82m115.26 0c-4.72 0-8.62 2.06-11.3 4.93v-3.28h-13.97v31.23h13.97V25.71c0-2.88 2.88-5.75 6.78-5.75s6.37 3.08 6.37 5.75v20.55h14.18V29.2c0-12.53-10.68-16.02-16.03-15.82m-44.79 23.63c0 5.75-3.69 6.99-5.95 6.99-2.06 0-5.96-1.24-5.96-6.99v-6.37h26.71c0-9.66-9.45-17.67-20.96-17.67s-20.96 7.81-20.96 17.67 9.46 17.67 20.96 17.67c9.66 0 17.67-5.34 20.14-12.74h-13.98zm-10.68-17.46c1.03-1.85 3.08-2.88 4.93-2.88s3.91.82 4.93 2.88c.82 1.64.82 3.49.82 6.16h-11.71c0-2.67 0-4.52 1.03-6.16m167.65-14.8c0-1.43-1.23-2.26-3.49-2.26h-3.08v8.02h1.85V7.22h1.23l1.44 3.29h2.05l-1.84-3.5c1.23-.41 1.84-1.23 1.84-2.26m-3.69 1.24h-1.03V3.52h.82c1.23 0 1.85.41 1.85 1.23s-.62 1.24-1.64 1.24m3.69-1.24c0-1.43-1.23-2.26-3.49-2.26h-3.08v8.02h1.85V7.22h1.23l1.44 3.29h2.05l-1.84-3.5c1.23-.41 1.84-1.23 1.84-2.26m-3.69 1.24h-1.03V3.52h.82c1.23 0 1.85.41 1.85 1.23s-.62 1.24-1.64 1.24m3.69-1.24c0-1.43-1.23-2.26-3.49-2.26h-3.08v8.02h1.85V7.22h1.23l1.44 3.29h2.05l-1.84-3.5c1.23-.41 1.84-1.23 1.84-2.26m-3.69 1.24h-1.03V3.52h.82c1.23 0 1.85.41 1.85 1.23s-.62 1.24-1.64 1.24m2.88-6.01h-5.65c-2.58 1.11-4.42 3.7-4.42 6.62 0 4.11 3.28 7.19 7.19 7.19 4.11 0 7.19-3.28 7.19-7.19.15-2.93-1.66-5.51-4.31-6.62m-2.88 12.58c-3.29 0-5.96-2.67-5.96-5.96s2.67-5.75 5.96-5.75 5.95 2.46 5.95 5.75-2.67 5.96-5.95 5.96m3.69-7.81c0-1.43-1.23-2.26-3.49-2.26h-3.08v8.02h1.85V7.22h1.23l1.44 3.29h2.05l-1.84-3.5c1.23-.41 1.84-1.23 1.84-2.26m-3.69 1.24h-1.03V3.52h.82c1.23 0 1.85.41 1.85 1.23s-.62 1.24-1.64 1.24m3.69-1.24c0-1.43-1.23-2.26-3.49-2.26h-3.08v8.02h1.85V7.22h1.23l1.44 3.29h2.05l-1.84-3.5c1.23-.41 1.84-1.23 1.84-2.26m-3.69 1.24h-1.03V3.52h.82c1.23 0 1.85.41 1.85 1.23s-.62 1.24-1.64 1.24M60.41-.02v46.07H45.82L25.28 13.18v32.87H10.69V-.02h15.4l19.73 31.89V-.02zm22.19 0v8.68H68.42V-.02zM10.69 108.09h14.79l20.34 32.87v-32.87h14.59v47.05H45.82l-20.55-32.87v32.87H10.68v-47.05Zm128.82 4.73h14.18v6.57h7.81v4.52h-7.81v31.23h-14.18v-31.23h-7.6v-4.52h7.6zm-71.09 42.32v-31.23H82.6v31.23zm0-37.39v-9.66H82.6v9.66zm248.61 3.9c-11.51 0-20.75 7.81-20.75 17.67s9.25 17.67 20.75 17.67 20.75-8.01 20.75-17.67c-.21-9.66-9.45-17.67-20.75-17.67m5.54 17.67v6.57c0 4.93-2.88 6.99-5.75 6.99s-5.75-2.05-5.75-6.99v-13.35c0-4.93 2.88-6.99 5.75-6.99s5.75 2.05 5.75 6.99zm-44.79 0v-5.55c0-4.93-3.29-6.16-5.55-6.16s-5.55 1.23-5.55 6.16v11.09c0 4.93 3.29 6.16 5.55 6.16s5.55-1.23 5.55-6.16v-5.55Zm-.2-31.23h13.97v47.05h-14.18v-1.85c-5.34 3.49-11.51 3.49-16.44 1.23-1.23-.62-9.66-4.52-9.66-15.61 0-8.22 7.81-17.26 18.08-16.44 3.29.41 5.75 1.64 8.01 2.88.21-7.19.21-17.26.21-17.26Zm-161.7 14.39c5.34-.21 16.03 3.29 16.03 15.82v17.05h-14.18V134.8c0-2.67-2.67-5.75-6.57-5.75s-6.78 2.88-6.78 5.75v20.55H90.2v-31.23h14.18v3.29c2.88-2.88 6.78-4.93 11.51-4.93m115.25 0c5.34-.21 16.03 3.29 16.03 15.82v17.05h-14.18V134.8c0-2.67-2.67-5.75-6.37-5.75-3.9 0-6.78 2.88-6.78 5.75v20.55h-13.97v-31.23h13.97v3.29c2.67-2.88 6.57-4.93 11.3-4.93m-44.79 21.77v1.85c0 5.75-3.7 6.99-5.96 6.99-2.05 0-5.96-1.23-5.96-6.99v-6.37h26.71c0-9.66-9.45-17.67-20.96-17.67s-20.96 7.81-20.96 17.67 9.45 17.67 20.96 17.67c9.66 0 17.67-5.34 20.13-12.74h-13.97m-11.7-9.86c0-2.67 0-4.52 1.03-6.16 1.03-1.85 3.08-2.88 4.93-2.88s3.9.82 4.93 2.88c.82 1.64.82 3.49.82 6.16zm163.96-19.72h1.03c1.03 0 1.64-.41 1.64-1.23s-.62-1.23-1.85-1.23h-.82v2.47Zm6.98.62c0 3.29-2.67 5.96-5.96 5.96s-5.96-2.67-5.96-5.96 2.67-5.75 5.96-5.75 5.96 2.47 5.96 5.75m-5.95-7.2c-3.9 0-7.19 3.29-7.19 7.19 0 4.11 3.29 7.19 7.19 7.19 4.11 0 7.19-3.29 7.19-7.19.21-3.9-3.08-7.19-7.19-7.19m.2 3.09c2.26 0 3.49.82 3.49 2.26 0 1.03-.62 1.85-1.85 2.26l1.85 3.49h-2.05l-1.44-3.29h-1.23v3.29h-1.85v-8.01zM10.69 217.19h14.79l20.34 32.87v-32.87h14.59v47.05H45.82l-20.55-32.87v32.87H10.68v-47.05Zm128.82 4.72h14.18v6.57h7.81V233h-7.81v31.23h-14.18V233h-7.6v-4.52h7.6zm-71.09 42.33v-31.23H82.6v31.23zm0-37.4v-9.66H82.6v9.66zm248.61 3.91c-11.51 0-20.75 7.81-20.75 17.67s9.25 17.67 20.75 17.67 20.75-8.01 20.75-17.67c-.21-9.66-9.45-17.67-20.75-17.67m5.54 17.67v6.57c0 4.93-2.88 6.99-5.75 6.99s-5.75-2.05-5.75-6.99v-13.35c0-4.93 2.88-6.99 5.75-6.99s5.75 2.05 5.75 6.99zm-44.79 0v-5.55c0-4.93-3.29-6.16-5.55-6.16s-5.55 1.23-5.55 6.16v11.09c0 4.93 3.29 6.16 5.55 6.16s5.55-1.23 5.55-6.16v-5.55Zm-.2-31.23h13.97v47.05h-14.18v-1.85c-5.34 3.49-11.51 3.49-16.44 1.23-1.23-.62-9.66-4.52-9.66-15.61 0-8.22 7.81-17.26 18.08-16.44 3.29.41 5.75 1.64 8.01 2.88.21-7.19.21-17.26.21-17.26Zm-161.7 14.38c5.34-.21 16.03 3.29 16.03 15.82v17.05h-14.18v-20.55c0-2.67-2.67-5.75-6.57-5.75s-6.78 2.88-6.78 5.75v20.55H90.2v-31.23h14.18v3.29c2.88-2.88 6.78-4.93 11.51-4.93m115.25 0c5.34-.21 16.03 3.29 16.03 15.82v17.05h-14.18v-20.55c0-2.67-2.67-5.75-6.37-5.75-3.9 0-6.78 2.88-6.78 5.75v20.55h-13.97v-31.23h13.97v3.29c2.67-2.88 6.57-4.93 11.3-4.93m-44.79 21.78v1.85c0 5.75-3.7 6.99-5.96 6.99-2.05 0-5.96-1.23-5.96-6.99v-6.37h26.71c0-9.66-9.45-17.67-20.96-17.67s-20.96 7.81-20.96 17.67 9.45 17.67 20.96 17.67c9.66 0 17.67-5.34 20.13-12.74h-13.97m-11.7-9.86c0-2.67 0-4.52 1.03-6.16 1.03-1.85 3.08-2.88 4.93-2.88s3.9.82 4.93 2.88c.82 1.64.82 3.49.82 6.16zm163.96-19.73h1.03c1.03 0 1.64-.41 1.64-1.23s-.62-1.23-1.85-1.23h-.82v2.47Zm6.98.62c0 3.29-2.67 5.96-5.96 5.96s-5.96-2.67-5.96-5.96 2.67-5.75 5.96-5.75 5.96 2.47 5.96 5.75m-5.95-7.19c-3.9 0-7.19 3.29-7.19 7.19 0 4.11 3.29 7.19 7.19 7.19 4.11 0 7.19-3.29 7.19-7.19.21-3.9-3.08-7.19-7.19-7.19m.2 3.08c2.26 0 3.49.82 3.49 2.26 0 1.03-.62 1.85-1.85 2.26l1.85 3.49h-2.05l-1.44-3.29h-1.23v3.29h-1.85v-8.01zM10.69 162.64h14.79l20.34 32.87v-32.87h14.59v47.05H45.82l-20.55-32.87v32.87H10.68v-47.05Zm128.82 4.73h14.18v6.57h7.81v4.52h-7.81v31.23h-14.18v-31.23h-7.6v-4.52h7.6zm-71.09 42.32v-31.23H82.6v31.23zm0-37.39v-9.66H82.6v9.66zm248.61 3.9c-11.51 0-20.75 7.81-20.75 17.67s9.25 17.67 20.75 17.67 20.75-8.01 20.75-17.67c-.21-9.66-9.45-17.67-20.75-17.67m5.54 17.67v6.57c0 4.93-2.88 6.99-5.75 6.99s-5.75-2.05-5.75-6.99v-13.35c0-4.93 2.88-6.99 5.75-6.99s5.75 2.05 5.75 6.99zm-44.79 0v-5.55c0-4.93-3.29-6.16-5.55-6.16s-5.55 1.23-5.55 6.16v11.09c0 4.93 3.29 6.16 5.55 6.16s5.55-1.23 5.55-6.16v-5.55Zm-.2-31.23h13.97v47.05h-14.18v-1.85c-5.34 3.49-11.51 3.49-16.44 1.23-1.23-.62-9.66-4.52-9.66-15.61 0-8.22 7.81-17.26 18.08-16.44 3.29.41 5.75 1.64 8.01 2.88.21-7.19.21-17.26.21-17.26Zm-161.7 14.38c5.34-.21 16.03 3.29 16.03 15.82v17.05h-14.18v-20.55c0-2.67-2.67-5.75-6.57-5.75s-6.78 2.88-6.78 5.75v20.55H90.2v-31.23h14.18v3.29c2.88-2.88 6.78-4.93 11.51-4.93m115.25 0c5.34-.21 16.03 3.29 16.03 15.82v17.05h-14.18v-20.55c0-2.67-2.67-5.75-6.37-5.75-3.9 0-6.78 2.88-6.78 5.75v20.55h-13.97v-31.23h13.97v3.29c2.67-2.88 6.57-4.93 11.3-4.93m-44.79 21.78v1.85c0 5.75-3.7 6.99-5.96 6.99-2.05 0-5.96-1.23-5.96-6.99v-6.37h26.71c0-9.66-9.45-17.67-20.96-17.67s-20.96 7.81-20.96 17.67 9.45 17.67 20.96 17.67c9.66 0 17.67-5.34 20.13-12.74h-13.97m-11.7-9.86c0-2.67 0-4.52 1.03-6.16 1.03-1.85 3.08-2.88 4.93-2.88s3.9.82 4.93 2.88c.82 1.64.82 3.49.82 6.16zm163.96-19.72h1.03c1.03 0 1.64-.41 1.64-1.23s-.62-1.23-1.85-1.23h-.82v2.47Zm6.98.61c0 3.29-2.67 5.96-5.96 5.96s-5.96-2.67-5.96-5.96 2.67-5.75 5.96-5.75 5.96 2.47 5.96 5.75m-5.95-7.19c-3.9 0-7.19 3.29-7.19 7.19 0 4.11 3.29 7.19 7.19 7.19 4.11 0 7.19-3.29 7.19-7.19.21-3.9-3.08-7.19-7.19-7.19m.2 3.08c2.26 0 3.49.82 3.49 2.26 0 1.03-.62 1.85-1.85 2.26l1.85 3.49h-2.05l-1.44-3.29h-1.23v3.29h-1.85v-8.01zM10.69 271.73h14.79l20.34 32.87v-32.87h14.59v47.05H45.82l-20.55-32.87v32.87H10.68v-47.05Zm128.82 4.73h14.18v6.57h7.81v4.52h-7.81v31.23h-14.18v-31.23h-7.6v-4.52h7.6zm-71.09 42.32v-31.23H82.6v31.23zm0-37.39v-9.66H82.6v9.66zm248.61 3.9c-11.51 0-20.75 7.81-20.75 17.67s9.25 17.67 20.75 17.67 20.75-8.01 20.75-17.67c-.21-9.66-9.45-17.67-20.75-17.67m5.54 17.67v6.57c0 4.93-2.88 6.99-5.75 6.99s-5.75-2.05-5.75-6.99v-13.35c0-4.93 2.88-6.99 5.75-6.99s5.75 2.05 5.75 6.99zm-44.79 0v-5.55c0-4.93-3.29-6.16-5.55-6.16s-5.55 1.23-5.55 6.16v11.09c0 4.93 3.29 6.16 5.55 6.16s5.55-1.23 5.55-6.16v-5.55Zm-.2-31.23h13.97v47.05h-14.18v-1.85c-5.34 3.49-11.51 3.49-16.44 1.23-1.23-.62-9.66-4.52-9.66-15.61 0-8.22 7.81-17.26 18.08-16.44 3.29.41 5.75 1.64 8.01 2.88.21-7.19.21-17.26.21-17.26Zm-161.7 14.39c5.34-.21 16.03 3.29 16.03 15.82v17.05h-14.18v-20.55c0-2.67-2.67-5.75-6.57-5.75s-6.78 2.88-6.78 5.75v20.55H90.2v-31.23h14.18v3.29c2.88-2.88 6.78-4.93 11.51-4.93m115.25 0c5.34-.21 16.03 3.29 16.03 15.82v17.05h-14.18v-20.55c0-2.67-2.67-5.75-6.37-5.75-3.9 0-6.78 2.88-6.78 5.75v20.55h-13.97v-31.23h13.97v3.29c2.67-2.88 6.57-4.93 11.3-4.93m-44.79 21.77v1.85c0 5.75-3.7 6.99-5.96 6.99-2.05 0-5.96-1.23-5.96-6.99v-6.37h26.71c0-9.66-9.45-17.67-20.96-17.67s-20.96 7.81-20.96 17.67 9.45 17.67 20.96 17.67c9.66 0 17.67-5.34 20.13-12.74h-13.97m-11.7-9.86c0-2.67 0-4.52 1.03-6.16 1.03-1.85 3.08-2.88 4.93-2.88s3.9.82 4.93 2.88c.82 1.64.82 3.49.82 6.16zm163.96-19.72h1.03c1.03 0 1.64-.41 1.64-1.23s-.62-1.23-1.85-1.23h-.82v2.47Zm6.98.62c0 3.29-2.67 5.96-5.96 5.96s-5.96-2.67-5.96-5.96 2.67-5.75 5.96-5.75 5.96 2.47 5.96 5.75m-5.95-7.19c-3.9 0-7.19 3.29-7.19 7.19 0 4.11 3.29 7.19 7.19 7.19 4.11 0 7.19-3.29 7.19-7.19.21-3.9-3.08-7.19-7.19-7.19m.2 3.08c2.26 0 3.49.82 3.49 2.26 0 1.03-.62 1.85-1.85 2.26l1.85 3.49h-2.05l-1.44-3.29h-1.23v3.29h-1.85v-8.01z" class="cls-1"/><path d="M10.69 250.15h82.7c11.34 0 19.71-2.89 24.81-8.75l5.48 8.75h79.08v-11.11l14.23 11.11h97.72v-50.69H208.85l-6.2-.08-7.81.08h-56.32l-7.12-.08H39.19" class="cls-4"/><path d="M56.48 207.83h-8.45L28.09 241.4h23.75v-7.46h-9.67l9.67-17.35 14.01 24.82h10.81v-.08h16.89c14.61 0 21.92-5.63 21.92-16.82 0-1.9-.23-3.73-.76-5.4l13.47 22.22h6.47l19.4-33.49h-10.27l-12.1 21.92-12.79-21.92h-11.03l3.04 5.02c-3.57-3.35-8.67-5.02-15.37-5.02H73.3v27.86l-16.82-27.86Zm26.41 7.61H95.6c6.63 0 9.97 2.89 9.97 8.68 0 3.5-1.07 6.01-3.04 7.38-1.9 1.37-5.56 2.06-10.65 2.06H82.9v-18.12Zm85.47-7.61h-8.53l-19.86 33.57h10.05v-.08h13.7v-7.46h-9.59l9.52-17.27 14 24.82h10.96v-.08h5.56v-20.25l25.34 20.25h6.54v-33.49h-8.75v20.01l-25.57-20.01h-6.54v27.86l-16.82-27.86Zm62.71 1.9c-1.37 1.22-2.05 3.42-2.05 6.55v16.59c0 3.2.68 5.4 2.05 6.62q1.935 1.83 7.08 1.83h19.71c3.42 0 5.86-.61 7.16-1.83 1.29-1.22 2.05-3.42 2.05-6.62v-4.64l-9.66-.16v5.18h-18.72v-17.58h18.72v4.56h9.66v-3.96c0-3.27-.76-5.48-2.05-6.55-1.29-1.29-3.57-1.9-7.16-1.9h-19.71c-3.42 0-5.78.61-7.08 1.91m48.87 10.5v-4.79h26.1v-7.61h-35.77v33.49h36.23v-7.77h-26.56v-5.94h15.29v-7.38z" class="cls-3"/><path d="m328.93 145.74 4.41-7.08h-67.36c-5.11.06-10.1 1.56-14.38 4.34l-5.17 3.81c-2.28-2.74-4.49-4.64-6.7-5.94-2.74-1.52-5.78-2.21-9.29-2.21H116.35L112.62 150l-1.83-11.34H85.83l-.91 2.13-2.36-.84c-13.17-4.49-25.8-3.12-37.75 4.26-6.09 3.88-10.66 8.75-13.47 14.69-2.9 5.93-3.88 12.55-3.2 20.09.46 4.49 2.06 8.68 4.79 12.48 2.74 3.81 6.24 6.85 10.58 9.06 6.32 3.27 13.16 4.26 20.32 3.12h22.22l3.45.08 4.16-.08 133.5-.15c2.89 0 5.78-.69 8.75-1.98 2.89-1.29 4.54 2.33 6.83.04 3.73 3.96 9.01 1.18 14.18 2.24 7 1.67 13.77.46 20.17-3.58l.84-.61-.61 4.03h27.17l3.41.27c1.6-.23 3.46-3.03 3.46-3.03l1.31-26.07 16.25-29.08Z" class="cls-4"/><path d="M79.59 147.87c-10.5-3.81-20.62-2.59-30.37 3.42-9.59 5.86-13.78 14.84-12.64 26.56.31 3.43 1.6 6.55 3.81 9.29 2.21 2.75 5.02 4.72 8.37 6.24 3.42 1.52 7 2.13 10.81 1.9 4.19-.23 7.99-1.45 11.72-3.5l.38-.23-1.45 3.2h10.2l6.55-14.23h11.27l2.51 14.23h16.67l8.52-26.64 5.48 26.64h6.62l12.79-29.53 1.29 29.53h9.74l-1.98-47.72H148l-11.11 26.1-4.8-26.1h-9.74l-12.56 38.58-6.47-38.58H91.3l-18.42 41.63 2.67-17.43H57.36l-1.37 8.98h7.61l-.76 4.8c-2.18 1.31-4.84 1.5-7.99.54-3.2-.84-5.48-2.51-7-5.18-1.29-2.51-1.9-5.1-1.6-7.99.38-4.03 2.36-7.69 6.09-10.96 3.35-2.97 7.69-4.64 12.86-5.33 4.95-.76 9.28-.23 12.94 1.37z" class="cls-3"/><path d="M96.79 171.24h-6.01l4.18-9.21z" class="cls-4"/><path d="M197.49 147.04h-27.18l-7.61 47.72h27.33l1.75-10.13h-17.21l1.38-8.52h14.91l1.6-10.27h-15.07l1.3-8.53h17.2zm120.17 0h-11.42l-9.74 15.6-6.09-15.6h-11.26l11.65 25.19-3.66 22.53h9.9l2.96-19.87z" class="cls-3"/><path d="M269.79 147.49c-5.56-1.29-10.66 0-15.6 3.81-4.95 3.65-8.14 8.91-9.82 15.52-1.45 6.55-.76 12.71 1.9 18.19 2.82 5.63 6.85 9.06 12.41 10.27 5.48 1.29 10.58 0 15.52-3.73 4.95-3.8 8.22-9.06 9.74-15.68 1.52-6.55.84-12.64-1.9-18.19-2.75-5.55-6.86-8.98-12.26-10.2Zm-.84 9.52c2.67 1.07 4.34 3.5 5.25 7.08.91 3.65.69 7.46-.61 11.49-1.29 3.96-3.42 6.93-6.16 8.83-2.82 2.05-5.48 2.44-7.99 1.29-2.66-1.07-4.42-3.5-5.33-7.08-.99-3.73-.61-7.53.68-11.49 1.29-3.88 3.42-6.92 6.16-8.98 2.67-1.9 5.41-2.36 8-1.14m-32.57-7.84c-1.9-1.22-3.81-1.83-5.63-1.83h-18.27l-7.53 47.42h21.92c2.36 0 4.8-.76 7.31-2.28 2.38-1.44 4.41-3.39 5.94-5.71 1.6-2.67 2.21-5.25 1.9-7.99-.31-2.97-1.9-5.78-4.72-8.45 5.56-5.71 6.85-11.11 3.96-16.29-1.2-2-2.87-3.67-4.87-4.87Zm-16.98 17.04 1.52-8.83h6.39c1.6 0 2.82.46 3.65 1.37.69.84.99 1.83.84 3.04-.15 1.22-.76 2.21-1.67 3.04-1.07.91-2.36 1.37-3.88 1.37h-6.85l11.04 11.26c.91.92 1.37 2.06 1.29 3.35s-.69 2.36-1.83 3.27c-1.14.92-2.74 1.45-4.95 1.45h-8.6l1.52-9.59h8.22c1.83 0 3.27.54 4.34 1.52l-11.04-11.27Zm89.59 24.29c0-1.37-.53-2.44-1.37-3.35-.92-.92-2.06-1.45-3.35-1.45s-2.44.53-3.35 1.45-1.37 1.98-1.37 3.35c0 1.29.46 2.36 1.37 3.27.91.92 2.06 1.45 3.35 1.45s2.43-.54 3.35-1.45c.84-.91 1.37-1.98 1.37-3.27m-1.91-2.82c.69.69 1.14 1.67 1.14 2.82 0 1.07-.46 1.98-1.14 2.82-.68.69-1.67 1.07-2.82 1.07s-2.13-.38-2.82-1.07c-.84-.84-1.22-1.75-1.22-2.82 0-1.14.38-2.13 1.22-2.82.69-.84 1.67-1.22 2.82-1.22s2.13.38 2.82 1.22" class="cls-3"/><path d="m305.94 188.06-1.29-.3h-2.28v5.33h.76v-2.44h1.07l1.45 2.44h.84l-1.6-2.44c1.07 0 1.68-.46 1.68-1.52 0-.46-.15-.92-.61-1.07Zm-.15 1.06c0 .61-.61.92-1.75.92h-.91v-1.67h1.45c.84 0 1.22.3 1.22.76Z" class="cls-3"/><path d="M382.21 90.59s1.24-3.93-2.25-5.38c-.43-.12-.74-1.27 0-2.78s5.43-16.01 20.71-18.42c0 0 36.66-6.17 43.98-6.83 7.33-.66 8.11-.72 10.36-.74s-39.56 35.03-39.56 35.03l-33.24-.89Zm-1.31 3.37s-4.12-.08-4.47 2.3-4.31 30.55-5.63 49.78c-1.32 19.24-2.58 34.71-2.64 52.88s.44 23.01 7.61 31.94 10.88 10.31 14.84 10.5 3.46.12 4.71-1.63 2.14-3.33 2.14-3.33L380.91 93.97Z" class="cls-5"/><path d="M560 50.51v200.34l-36.01 1.1-.17-2.5-96.62-2.96h-.13s-21.91-4.45-31.81-7.37-16.13-10.47-20.32-16.36c-4.2-5.89-3.33-33.92-.57-70.45 2.77-36.53 8.49-65.19 8.49-65.19 1.87-10.87 12.19-10.32 24.08-12.39 11.37-1.99 26.78-7.99 42.43-15.66 15.66-7.67 22.45-8.17 28.74-8.3 3.99-.08 18.39-.1 32.65-.15 1.89 0 3.78-.01 5.64-.02h3.53c9.54-.03 25.16-.07 40.07-.09Z" class="cls-5"/><path d="M560 54.21v215.33c-18.37-.03-35.8-.55-45.93-1.58-27.22-2.09-47.02-6.78-54.42-9.52-7.63-2.82-17.16-7.54-23.57-9.36-1.63-.46-4.87-1.4-8.88-2.59-11.82-3.5-30.21-9.05-32.84-10.18-3.52-1.51-10.44-4.09-15.15-13.52-4.72-9.43-2.77-27.34-2.45-40.11.31-12.76 3.96-51.18 4.78-58.77.81-7.59 4.15-26.47 5-32.22.84-5.76 2.45-9.58 7.4-10.28 4.95-.71 6.84-1.26 18.34-3.43 11.51-2.17 31.22-10.47 43.76-17.45s29.14-6.32 37.16-6.32z" class="cls-5"/><path d="M443.71 134.02h-13.78c-.82 0-1.48-.66-1.48-1.48v-13.78c0-.82-.66-1.48-1.48-1.48h-12.59c-.82 0-1.48.66-1.48 1.48v13.78c0 .82-.66 1.48-1.48 1.48h-13.78c-.82 0-1.48.66-1.48 1.48v12.59c0 .82.66 1.48 1.48 1.48h13.78c.82 0 1.48.66 1.48 1.48v13.78c0 .82.66 1.48 1.48 1.48h12.59c.82 0 1.48-.66 1.48-1.48v-13.78c0-.82.66-1.48 1.48-1.48h13.78c.82 0 1.48-.66 1.48-1.48V135.5c0-.82-.66-1.48-1.48-1.48Z" class="cls-5"/><circle cx="420.67" cy="141.8" r="5.81" class="cls-5"/><rect width="14.01" height="43.57" x="425.32" y="170.5" class="cls-5" rx="7" ry="7" transform="rotate(-75.51 432.319 192.284)"/><circle cx="446.75" cy="196.02" r="5.81" class="cls-5"/><rect width="14.01" height="43.57" x="425.32" y="193.01" class="cls-5" rx="7" ry="7" transform="rotate(-75.51 432.322 214.793)"/><circle cx="446.75" cy="218.53" r="5.81" class="cls-5"/><path d="M560 74.48v174.6c-42.88-.07-64.01-4.52-79.77-10.23-19.64-7.11-19.33-20-19.42-33.58-.1-13.58 1.79-55.64 2.26-65.73s2.45-32.6 3.65-45.87c1.19-13.26 10.37-14.01 15.27-14.77 4.91-.76 12.33-1.38 27.79-2.64 7.47-.61 21.73-1.24 36.07-1.7.16 0 .3 0 .45-.01 3.29-.08 8.08-.1 13.7-.07Z" class="cls-5"/><path d="M480.75 92.83H560v111.65h-79.25z" class="cls-5"/></svg>