<svg xmlns="http://www.w3.org/2000/svg" id="Layer_1" data-name="Layer 1" viewBox="0 0 560 320"><defs><style>.cls-1{fill:#2c3e50}.cls-3{fill-rule:evenodd;fill:#fff}.cls-9{fill:#000;stroke:#3498db;stroke-miterlimit:10;stroke-width:.5px}</style></defs><path d="M.76-.02H560v320H.76z" class="cls-1"/><path d="M405.14-.12c-3.45 16.81-8.27 33.52-14.2 49.97-.77 2.14-1.56 4.27-2.37 6.4-3.15 8.31-6.6 16.53-10.28 24.65a462 462 0 0 1-18.36 36.11c-.66 1.19-1.34 2.38-2.03 3.56-.5.88-1 1.74-1.5 2.61-10.64 18.29-22.38 35.76-34.79 52.08-48.21 64.41-136.13 76.41-201.3 120.77-3.92 2.65-7.76 5.44-11.5 8.36a168 168 0 0 0-8.87 7.44c-2.85 2.53-5.66 5.19-8.43 7.96H-.37V-.12z" style="fill:#3498db"/><path d="M10.01 52.66H24.8l20.34 32.87V52.66h14.59v47.05H45.14L24.59 66.84v32.87H10V52.66Zm128.83 4.73h14.18v6.57h7.81v4.52h-7.81v31.23h-14.18V68.48h-7.6v-4.52h7.6zM67.75 99.71V68.48h14.18v31.23zm0-37.39v-9.66h14.18v9.66zm248.6 3.9c-11.51 0-20.75 7.81-20.75 17.67s9.25 17.67 20.75 17.67 20.75-8.01 20.75-17.67c-.21-9.66-9.45-17.67-20.75-17.67m5.55 17.67v6.57c0 4.93-2.88 6.99-5.75 6.99s-5.75-2.05-5.75-6.99V77.11c0-4.93 2.88-6.99 5.75-6.99s5.75 2.05 5.75 6.99zm-44.79 0v-5.55c0-4.93-3.29-6.16-5.55-6.16s-5.55 1.23-5.55 6.16v11.09c0 4.93 3.29 6.16 5.55 6.16s5.55-1.23 5.55-6.16v-5.55Zm-.21-31.23h13.97v47.05h-14.18v-1.85c-5.34 3.49-11.51 3.49-16.44 1.23-1.23-.62-9.66-4.52-9.66-15.61 0-8.22 7.81-17.26 18.08-16.44 3.29.41 5.75 1.64 8.01 2.88.21-7.19.21-17.26.21-17.26ZM115.21 67.04c5.34-.21 16.03 3.29 16.03 15.82v17.05h-14.18V79.36c0-2.67-2.67-5.75-6.57-5.75s-6.78 2.88-6.78 5.75v20.55H89.53V68.68h14.18v3.29c2.88-2.88 6.78-4.93 11.51-4.93m115.25 0c5.34-.21 16.03 3.29 16.03 15.82v17.05h-14.18V79.36c0-2.67-2.67-5.75-6.37-5.75-3.9 0-6.78 2.88-6.78 5.75v20.55H205.2V68.68h13.97v3.29c2.67-2.88 6.57-4.93 11.3-4.93m-44.79 21.78v1.85c0 5.75-3.7 6.99-5.96 6.99-2.05 0-5.96-1.23-5.96-6.99V84.3h26.71c0-9.66-9.45-17.67-20.96-17.67s-20.96 7.81-20.96 17.67 9.45 17.67 20.96 17.67c9.66 0 17.67-5.34 20.13-12.74h-13.97m-11.7-9.86c0-2.67 0-4.52 1.03-6.16 1.03-1.85 3.08-2.88 4.93-2.88s3.9.82 4.93 2.88c.82 1.64.82 3.49.82 6.16zm163.96-19.72h1.03c1.03 0 1.64-.41 1.64-1.23s-.62-1.23-1.85-1.23h-.82v2.47Zm6.98.61c0 3.29-2.67 5.96-5.96 5.96s-5.96-2.67-5.96-5.96 2.67-5.75 5.96-5.75 5.96 2.47 5.96 5.75m-5.96-7.19c-3.9 0-7.19 3.29-7.19 7.19 0 4.11 3.29 7.19 7.19 7.19 4.11 0 7.19-3.29 7.19-7.19.21-3.9-3.08-7.19-7.19-7.19m.21 3.08c2.26 0 3.49.82 3.49 2.26 0 1.03-.62 1.85-1.85 2.26l1.85 3.49h-2.05l-1.44-3.29h-1.23v3.29h-1.85v-8.01z" style="fill:#fff"/><path d="M342.65 3.87c0-1.44-1.23-2.26-3.49-2.26h-3.08v8.01h1.85V6.33h1.23l1.44 3.29h2.05l-1.85-3.49c1.23-.41 1.85-1.23 1.85-2.26m-3.7 1.23h-1.02V2.64h.82c1.23 0 1.85.41 1.85 1.23s-.62 1.23-1.65 1.23m4.42-5.12h-4.01c3.1.19 5.55 2.59 5.55 5.74s-2.67 5.96-5.96 5.96-5.96-2.68-5.96-5.96 2.46-5.55 5.55-5.74h-3.86c-1.76 1.32-2.92 3.42-2.92 5.74 0 4.11 3.29 7.19 7.19 7.19 4.11 0 7.19-3.29 7.19-7.19.12-2.32-.99-4.42-2.77-5.74m-.72 3.89c0-1.44-1.23-2.26-3.49-2.26h-3.08v8.01h1.85V6.33h1.23l1.44 3.29h2.05l-1.85-3.49c1.23-.41 1.85-1.23 1.85-2.26m-3.7 1.23h-1.02V2.64h.82c1.23 0 1.85.41 1.85 1.23s-.62 1.23-1.65 1.23m3.7-1.23c0-1.44-1.23-2.26-3.49-2.26h-3.08v8.01h1.85V6.33h1.23l1.44 3.29h2.05l-1.85-3.49c1.23-.41 1.85-1.23 1.85-2.26m-3.7 1.23h-1.02V2.64h.82c1.23 0 1.85.41 1.85 1.23s-.62 1.23-1.65 1.23M185.68 36.12c0 5.76-3.7 6.99-5.96 6.99-2.05 0-5.96-1.23-5.96-6.99v-6.36h26.71c0-9.66-9.45-17.67-20.95-17.67s-20.96 7.8-20.96 17.67 9.45 17.66 20.96 17.66c9.65 0 17.67-5.34 20.13-12.73h-13.97zM175 18.66c1.02-1.85 3.08-2.88 4.93-2.88s3.9.83 4.93 2.88c.82 1.64.82 3.49.82 6.16h-11.71c0-2.67 0-4.52 1.03-6.16m55.47-6.16c-4.72 0-8.63 2.05-11.3 4.93v-3.29H205.2v31.23h13.97V24.82c0-2.87 2.88-5.75 6.78-5.75s6.37 3.08 6.37 5.75v20.55h14.18V28.32c0-12.54-10.69-16.03-16.03-15.82m-115.26 0c-4.73 0-8.63 2.05-11.51 4.93v-3.29H89.53v31.23h14.17V24.82c0-2.87 2.88-5.75 6.78-5.75s6.58 3.08 6.58 5.75v20.55h14.17V28.32c0-12.54-10.68-16.03-16.02-15.82m161.9 22.39c0 4.93-3.29 6.17-5.55 6.17s-5.55-1.24-5.55-6.17V23.8c0-4.93 3.29-6.17 5.55-6.17s5.55 1.24 5.55 6.17zm39.24-23.22c-11.5 0-20.75 7.81-20.75 17.67s9.25 17.67 20.75 17.67S337.1 39 337.1 29.34c-.2-9.65-9.45-17.67-20.75-17.67m5.55 24.25c0 4.93-2.88 6.98-5.75 6.98s-5.76-2.05-5.76-6.98V22.56c0-4.93 2.88-6.98 5.76-6.98s5.75 2.05 5.75 6.98zM67.75 13.93v31.23h14.17V13.93zm85.26-4.52V2.84h-14.17v6.57h-7.61v4.52h7.61v31.23h14.17V13.93h7.81V9.41zM290.88-.02v45.18H276.7v-1.84c-5.34 3.49-11.51 3.49-16.44 1.23-1.23-.62-9.65-4.52-9.65-15.62 0-8.21 7.8-17.26 18.08-16.43 3.28.41 5.75 1.64 8.01 2.87.15-5.29.19-12.14.19-15.39zm-208.96 0v7.79H67.75V-.02zm-71.91 0v45.18H24.6V12.29l20.55 32.87h14.59V-.02H45.15v31.01L25.97-.02zm0 107.23H24.8l20.34 32.87v-32.87h14.59v47.05H45.14l-20.55-32.87v32.87H10v-47.05Zm128.83 4.72h14.18v6.57h7.81v4.52h-7.81v31.23h-14.18v-31.23h-7.6v-4.52h7.6zm-71.09 42.33v-31.23h14.18v31.23zm0-37.4v-9.66h14.18v9.66zm248.6 3.91c-11.51 0-20.75 7.81-20.75 17.67s9.25 17.67 20.75 17.67 20.75-8.01 20.75-17.67c-.21-9.66-9.45-17.67-20.75-17.67m5.55 17.67v6.57c0 4.93-2.88 6.99-5.75 6.99s-5.75-2.05-5.75-6.99v-13.35c0-4.93 2.88-6.99 5.75-6.99s5.75 2.05 5.75 6.99zm-44.79 0v-5.55c0-4.93-3.29-6.16-5.55-6.16s-5.55 1.23-5.55 6.16v11.09c0 4.93 3.29 6.16 5.55 6.16s5.55-1.23 5.55-6.16v-5.55Zm-.21-31.23h13.97v47.05h-14.18v-1.85c-5.34 3.49-11.51 3.49-16.44 1.23-1.23-.62-9.66-4.52-9.66-15.61 0-8.22 7.81-17.26 18.08-16.44 3.29.41 5.75 1.64 8.01 2.88.21-7.19.21-17.26.21-17.26Zm-161.69 14.38c5.34-.21 16.03 3.29 16.03 15.82v17.05h-14.18v-20.55c0-2.67-2.67-5.75-6.57-5.75s-6.78 2.88-6.78 5.75v20.55H89.53v-31.23h14.18v3.29c2.88-2.88 6.78-4.93 11.51-4.93m115.25 0c5.34-.21 16.03 3.29 16.03 15.82v17.05h-14.18v-20.55c0-2.67-2.67-5.75-6.37-5.75-3.9 0-6.78 2.88-6.78 5.75v20.55H205.2v-31.23h13.97v3.29c2.67-2.88 6.57-4.93 11.3-4.93m-44.79 21.78v1.85c0 5.75-3.7 6.99-5.96 6.99-2.05 0-5.96-1.23-5.96-6.99v-6.37h26.71c0-9.66-9.45-17.67-20.96-17.67s-20.96 7.81-20.96 17.67 9.45 17.67 20.96 17.67c9.66 0 17.67-5.34 20.13-12.74h-13.97m-11.7-9.86c0-2.67 0-4.52 1.03-6.16 1.03-1.85 3.08-2.88 4.93-2.88s3.9.82 4.93 2.88c.82 1.64.82 3.49.82 6.16zm163.96-19.73h1.03c1.03 0 1.64-.41 1.64-1.23s-.62-1.23-1.85-1.23h-.82v2.47Zm6.98.62c0 3.29-2.67 5.96-5.96 5.96s-5.96-2.67-5.96-5.96 2.67-5.75 5.96-5.75 5.96 2.47 5.96 5.75m-5.96-7.19c-3.9 0-7.19 3.29-7.19 7.19 0 4.11 3.29 7.19 7.19 7.19 4.11 0 7.19-3.29 7.19-7.19.21-3.9-3.08-7.19-7.19-7.19m.21 3.08c2.26 0 3.49.82 3.49 2.26 0 1.03-.62 1.85-1.85 2.26l1.85 3.49h-2.05l-1.44-3.29h-1.23v3.29h-1.85v-8.01zM10.01 216.3H24.8l20.34 32.87V216.3h14.59v47.05H45.14l-20.55-32.87v32.87H10V216.3Zm128.83 4.73h14.18v6.57h7.81v4.52h-7.81v31.23h-14.18v-31.23h-7.6v-4.52h7.6zm-71.09 42.32v-31.23h14.18v31.23zm0-37.39v-9.66h14.18v9.66zm248.6 3.9c-11.51 0-20.75 7.81-20.75 17.67s9.25 17.67 20.75 17.67 20.75-8.01 20.75-17.67c-.21-9.66-9.45-17.67-20.75-17.67m5.55 17.67v6.57c0 4.93-2.88 6.99-5.75 6.99s-5.75-2.05-5.75-6.99v-13.35c0-4.93 2.88-6.99 5.75-6.99s5.75 2.05 5.75 6.99zm-44.79 0v-5.55c0-4.93-3.29-6.16-5.55-6.16s-5.55 1.23-5.55 6.16v11.09c0 4.93 3.29 6.16 5.55 6.16s5.55-1.23 5.55-6.16v-5.55Zm-.21-31.23h13.97v47.05h-14.18v-1.85c-5.34 3.49-11.51 3.49-16.44 1.23-1.23-.62-9.66-4.52-9.66-15.61 0-8.22 7.81-17.26 18.08-16.44 3.29.41 5.75 1.64 8.01 2.88.21-7.19.21-17.26.21-17.26Zm-161.69 14.38c5.34-.21 16.03 3.29 16.03 15.82v17.05h-14.18V243c0-2.67-2.67-5.75-6.57-5.75s-6.78 2.88-6.78 5.75v20.55H89.53v-31.23h14.18v3.29c2.88-2.88 6.78-4.93 11.51-4.93m115.25 0c5.34-.21 16.03 3.29 16.03 15.82v17.05h-14.18V243c0-2.67-2.67-5.75-6.37-5.75-3.9 0-6.78 2.88-6.78 5.75v20.55H205.2v-31.23h13.97v3.29c2.67-2.88 6.57-4.93 11.3-4.93m-44.79 21.78v1.85c0 5.75-3.7 6.99-5.96 6.99-2.05 0-5.96-1.23-5.96-6.99v-6.37h26.71c0-9.66-9.45-17.67-20.96-17.67s-20.96 7.81-20.96 17.67 9.45 17.67 20.96 17.67c9.66 0 17.67-5.34 20.13-12.74h-13.97m-11.7-9.86c0-2.67 0-4.52 1.03-6.16 1.03-1.85 3.08-2.88 4.93-2.88s3.9.82 4.93 2.88c.82 1.64.82 3.49.82 6.16zm163.96-19.72h1.03c1.03 0 1.64-.41 1.64-1.23s-.62-1.23-1.85-1.23h-.82v2.47Zm6.98.61c0 3.29-2.67 5.96-5.96 5.96s-5.96-2.67-5.96-5.96 2.67-5.75 5.96-5.75 5.96 2.47 5.96 5.75m-5.96-7.19c-3.9 0-7.19 3.29-7.19 7.19 0 4.11 3.29 7.19 7.19 7.19 4.11 0 7.19-3.29 7.19-7.19.21-3.9-3.08-7.19-7.19-7.19m.21 3.08c2.26 0 3.49.82 3.49 2.26 0 1.03-.62 1.85-1.85 2.26l1.85 3.49h-2.05l-1.44-3.29h-1.23v3.29h-1.85v-8.01zM10.01 161.75H24.8l20.34 32.87v-32.87h14.59v47.05H45.14l-20.55-32.87v32.87H10v-47.05Zm128.83 4.73h14.18v6.57h7.81v4.52h-7.81v31.23h-14.18v-31.23h-7.6v-4.52h7.6zM67.75 208.8v-31.23h14.18v31.23zm0-37.39v-9.66h14.18v9.66zm248.6 3.91c-11.51 0-20.75 7.81-20.75 17.67s9.25 17.67 20.75 17.67 20.75-8.01 20.75-17.67c-.21-9.66-9.45-17.67-20.75-17.67m5.55 17.66v6.57c0 4.93-2.88 6.99-5.75 6.99s-5.75-2.05-5.75-6.99V186.2c0-4.93 2.88-6.99 5.75-6.99s5.75 2.05 5.75 6.99zm-44.79 0v-5.55c0-4.93-3.29-6.16-5.55-6.16s-5.55 1.23-5.55 6.16v11.09c0 4.93 3.29 6.16 5.55 6.16s5.55-1.23 5.55-6.16v-5.55Zm-.21-31.22h13.97v47.05h-14.18v-1.85c-5.34 3.49-11.51 3.49-16.44 1.23-1.23-.62-9.66-4.52-9.66-15.61 0-8.22 7.81-17.26 18.08-16.44 3.29.41 5.75 1.64 8.01 2.88.21-7.19.21-17.26.21-17.26Zm-161.69 14.38c5.34-.21 16.03 3.29 16.03 15.82v17.05h-14.18v-20.55c0-2.67-2.67-5.75-6.57-5.75s-6.78 2.88-6.78 5.75v20.55H89.53v-31.23h14.18v3.29c2.88-2.88 6.78-4.93 11.51-4.93m115.25 0c5.34-.21 16.03 3.29 16.03 15.82v17.05h-14.18v-20.55c0-2.67-2.67-5.75-6.37-5.75-3.9 0-6.78 2.88-6.78 5.75v20.55H205.2v-31.23h13.97v3.29c2.67-2.88 6.57-4.93 11.3-4.93m-44.79 21.78v1.85c0 5.75-3.7 6.99-5.96 6.99-2.05 0-5.96-1.23-5.96-6.99v-6.37h26.71c0-9.66-9.45-17.67-20.96-17.67s-20.96 7.81-20.96 17.67 9.45 17.67 20.96 17.67c9.66 0 17.67-5.34 20.13-12.74h-13.97m-11.7-9.87c0-2.67 0-4.52 1.03-6.16 1.03-1.85 3.08-2.88 4.93-2.88s3.9.82 4.93 2.88c.82 1.64.82 3.49.82 6.16zm163.96-19.72h1.03c1.03 0 1.64-.41 1.64-1.23s-.62-1.23-1.85-1.23h-.82v2.47Zm6.98.62c0 3.29-2.67 5.96-5.96 5.96s-5.96-2.67-5.96-5.96 2.67-5.75 5.96-5.75 5.96 2.47 5.96 5.75m-5.96-7.19c-3.9 0-7.19 3.29-7.19 7.19 0 4.11 3.29 7.19 7.19 7.19 4.11 0 7.19-3.29 7.19-7.19.21-3.9-3.08-7.19-7.19-7.19m.21 3.08c2.26 0 3.49.82 3.49 2.26 0 1.03-.62 1.85-1.85 2.26l1.85 3.49h-2.05l-1.44-3.29h-1.23v3.29h-1.85v-8.01zM10.01 270.85H24.8l20.34 32.87v-32.87h14.59v47.05H45.14l-20.55-32.87v32.87H10v-47.05Zm128.83 4.72h14.18v6.57h7.81v4.52h-7.81v31.23h-14.18v-31.23h-7.6v-4.52h7.6zM67.75 317.9v-31.23h14.18v31.23zm0-37.39v-9.66h14.18v9.66zm248.6 3.9c-11.51 0-20.75 7.81-20.75 17.67s9.25 17.67 20.75 17.67 20.75-8.01 20.75-17.67c-.21-9.66-9.45-17.67-20.75-17.67m5.55 17.67v6.57c0 4.93-2.88 6.99-5.75 6.99s-5.75-2.05-5.75-6.99V295.3c0-4.93 2.88-6.99 5.75-6.99s5.75 2.05 5.75 6.99zm-44.79 0v-5.55c0-4.93-3.29-6.16-5.55-6.16s-5.55 1.23-5.55 6.16v11.09c0 4.93 3.29 6.16 5.55 6.16s5.55-1.23 5.55-6.16v-5.55Zm-.21-31.23h13.97v47.05h-14.18v-1.85c-5.34 3.49-11.51 3.49-16.44 1.23-1.23-.62-9.66-4.52-9.66-15.61 0-8.22 7.81-17.26 18.08-16.44 3.29.41 5.75 1.64 8.01 2.88.21-7.19.21-17.26.21-17.26Zm-161.69 14.38c5.34-.21 16.03 3.29 16.03 15.82v17.05h-14.18v-20.55c0-2.67-2.67-5.75-6.57-5.75s-6.78 2.88-6.78 5.75v20.55H89.53v-31.23h14.18v3.29c2.88-2.88 6.78-4.93 11.51-4.93m115.25 0c5.34-.21 16.03 3.29 16.03 15.82v17.05h-14.18v-20.55c0-2.67-2.67-5.75-6.37-5.75-3.9 0-6.78 2.88-6.78 5.75v20.55H205.2v-31.23h13.97v3.29c2.67-2.88 6.57-4.93 11.3-4.93m-44.79 21.78v1.85c0 5.75-3.7 6.99-5.96 6.99-2.05 0-5.96-1.23-5.96-6.99v-6.37h26.71c0-9.66-9.45-17.67-20.96-17.67s-20.96 7.81-20.96 17.67 9.45 17.67 20.96 17.67c9.66 0 17.67-5.34 20.13-12.74h-13.97m-11.7-9.86c0-2.67 0-4.52 1.03-6.16 1.03-1.85 3.08-2.88 4.93-2.88s3.9.82 4.93 2.88c.82 1.64.82 3.49.82 6.16zm163.96-19.73h1.03c1.03 0 1.64-.41 1.64-1.23s-.62-1.23-1.85-1.23h-.82v2.47Zm6.98.62c0 3.29-2.67 5.96-5.96 5.96s-5.96-2.67-5.96-5.96 2.67-5.75 5.96-5.75 5.96 2.47 5.96 5.75m-5.96-7.19c-3.9 0-7.19 3.29-7.19 7.19 0 4.11 3.29 7.19 7.19 7.19 4.11 0 7.19-3.29 7.19-7.19.21-3.9-3.08-7.19-7.19-7.19m.21 3.08c2.26 0 3.49.82 3.49 2.26 0 1.03-.62 1.85-1.85 2.26l1.85 3.49h-2.05l-1.44-3.29h-1.23v3.29h-1.85v-8.01z" class="cls-1"/><path d="M168.5 191.45h-11.54l-1.54-34.76-15 34.76h-7.7l-6.41-31.42-10.01 31.42H96.68l-2.95-16.8H80.39l-7.57 16.8H60.76l24.76-56.18h14.24l7.57 45.41 14.75-45.41h11.41l5.65 30.78 13.09-30.78h13.85l2.44 56.18Zm-76.51-27.7-2.11-10.9-4.87 10.9H92Zm109.61 27.7 1.93-12.05h-20.14l1.6-10.01h17.51l1.93-12.05h-17.7l1.54-10.01h20.13l1.93-12.05h-31.94l-8.98 56.18h32.2Zm149.94-56.17h-13.47l-11.42 18.34-7.18-18.34h-13.21l13.6 29.63-4.2 26.55h11.55l3.54-23.47 20.78-32.71Z" class="cls-3"/><path d="M265.52 158.54c3.59-15.53 16.86-25.73 29.65-22.77 12.8 2.96 20.26 17.94 16.68 33.47-3.59 15.53-16.86 25.72-29.65 22.77-12.79-2.96-20.26-17.94-16.68-33.47m17.47 22.22c6.11 2.73 13.59-2.63 16.7-11.97s.69-19.14-5.42-21.87-13.58 2.63-16.69 11.97c-3.12 9.35-.69 19.13 5.41 21.87M36.14 140.28c-11 6.81-16.29 17.18-14.88 31.29 1.64 16.37 22.83 26.68 40.79 16.29 1.57-.91.96-.76 1.54-1.28l3.59-22.83H45.76l-1.64 10.52h8.95l-1.03 5.65c-5.13 2.05-13.85 1.28-17.57-5.39-2.36-4.22-4.54-13.65 5.39-22.32 8.07-7.06 22.06-8.33 30.14-4.62 0 0 1.03-5.9 1.79-11.42-15.52-5.39-27.58-.9-35.66 4.11Z" class="cls-3"/><path d="M237.81 147.43h7.51c8.15 0 6.49 10.44-1.27 10.44h-8.02zm-3.56 21.89h9.67c9.17 0 8.92 11.2-1.27 11.2h-10.18zm-6.36-33.73-8.91 55.75h25.96c10.69 0 26.33-15.76 12.09-28.64 14.64-15.15.12-26.99-7.64-27.12-6.23-.1-21.64 0-21.64 0h.12Zm107.54 61.02 1.83-7.76h-3.15l.39-1.67h8.48l-.4 1.67h-3.14l-1.83 7.76m4.34 0 2.22-9.43h3.17l.14 7.43h.03l3.61-7.43h3.15l-2.22 9.43" class="cls-3"/><path d="m345.91 196.61-.04-7.88h-.03l-1.86 7.88m6.04 0 1.85-7.88h-.03l-3.79 7.88" class="cls-3"/><path d="M159.5 231.38c-1.72-5.21-6.25-10.16-6.25-10.16s-6.82-8.86-20.21-11.87c-11.46-2.4-20.47 2.66-20.47 2.66s-8.18 3.28-14.32 10.05c-9.79 9.43-12.61 23.18-12.61 23.18s-3.75 11.98 2.19 21.46l6.46 7.81c9.12 7.61 18.86 8.39 18.86 8.39s7.87 1.77 17.03-.62c8.02-1.62 13.86-5.58 13.86-5.58s13.28-7.34 16.93-22.34l-1.46-22.97Zm-20.68 24.95s-5.31 9.27-16.98 8.18c-13.7-1.41-15.31-13.44-15.31-13.44s-1.87-8.86 6.56-16.56c8.54-7.19 17.45-6.1 17.45-6.1s5.99.58 9.06 10.47c3.96 12.61-.78 17.45-.78 17.45" style="fill:#5456a1;fill-rule:evenodd"/><path d="M277.06 228.63c-9.11-14.9-25.16-17.14-25.16-17.14s-5.11-1.72-16.04-.26c-20.52 3.91-27.66 19.69-27.66 19.69s-7.35 11.56-4.43 25.57l8.96 17.71c6.61 6.2 9.32 6.2 9.74 6.57 8.75 3.96 18.91 1.67 18.91 1.67s12.81-1.25 24.54-10.37c9.37-6.87 13.44-16.98 13.44-16.98zm-24.95 30.42c-14.74 8.85-24.01-.84-24.01-.84s-4.11-2.71-5-10.94c-.62-9.53 8.86-14.48 8.86-14.48s5-3.07 11.25-2.6 8.23.05 13.28 3.8c4.79 4.32 4.48 7.5 4.48 7.5s1.72 10.73-8.86 17.55Z" style="fill-rule:evenodd;fill:#d1af2c"/><path d="M279.35 255.09s.31 8.33-.99 10.37c-1.77 3.8-1.51 7.5-1.51 7.5s-1.2 11.25 11.83 13.13c8.96-.05 10.05-7.5 10.21-10.68.52-2.5.31-14.12.31-14.12l11.62 9.48s8.44 7.09 13.39 11.2c5.16 4.06 6.45 4.79 6.45 4.79s1.1 1.3 5.06.83c3.18.05 6.1-2.81 6.1-2.81s3.7-2.71 4.63-7.45c1.15-5.62-3.22-8.38-3.22-8.38s-16.15-13.02-27.09-21.98c7.34-4.01 10.89-6.77 10.89-6.77s10.21-6.77 12.4-17.14c3.02-11.41-5.57-15.89-5.57-15.89s-5.37-3.86-9.9-5.89c-11.41-5.57-22.03-4.43-22.03-4.43s-15.11-1.04-24.95 11.1c-4.53 5.88-1.72 13.59-1.72 13.59s.56 1.24 1.82 7.09c2.53 11.76 2.29 26.46 2.29 26.46Zm19.79-23.13-.99-13.59s9.53-.21 13.49.47c7.82 1.2 7.39 3.39 7.39 3.39s-.26 2.76-6.2 5.47c-6.46 3.12-13.7 4.27-13.7 4.27Z" style="fill-rule:evenodd;fill:#1b9389"/><path d="M203.77 256.49c-4.39-.97-11.41.83-11.41.83s-9.79 3.59-11.31 3.54c-.57-.83-1.82-16.82-1.46-23.23.21-11.3-.73-20.52-.73-20.52s-.47-10.89-6.3-17.34c-6.87-6.93-11.67-3.96-14.42-2.29-6.62 5.94-3.54 13.18-3.54 13.18l3.44 9.74s1.67 4.17 1.46 10.99l1.46 22.97c0 3.07 2.5 23.75 2.5 23.75s.26 6.72 6.72 7.92c6.61 1.09 13.12-2.19 15.89-3.49 2.76-1.31 6.41-2.45 6.41-2.45s3.02-.68 6.04-.94c7.09-.68 9.64-1.93 9.64-1.93s2.75-.41 4.59-3.02 4.07-14.85-8.96-17.71Z" style="fill-rule:evenodd;fill:#89ac43"/><path d="M87.83 266.7c-4.65-1.39-10-.47-10-.47s-15.11 1.46-22.97-.21c-12.19-2.13-11.77-15.26-11.77-15.26s-.41-8.7 6.93-20.47c9.06-14.53 19.06-17.14 19.06-17.14s2.5-.94 4.85.31c1.46 8.44 9.64 8.39 9.64 8.39s11.77.78 11.2-13.49c-1.35-11.72-12.66-13.34-17.4-14.43-14.22-2.55-23.44 5.05-23.44 5.05s-9.53 5.16-20.94 23.13c-7.76 11.15-8.7 19.9-8.7 19.9s-.94 2.08-.57 11.36c-.21 7.24 2.5 12.5 2.5 12.5s4.12 12.45 17.14 17.56c7.92 3.28 19.48 3.23 19.48 3.23s11.2-.16 19.79-.62c4.69.36 6.93-2.08 6.93-2.08s5.26-3.44 4.74-9.43c0 0-1.02-6.19-6.46-7.82Z" style="fill-rule:evenodd;fill:#9d0c46"/><path d="M560 14.66v289.73c-38.75 4.48-84.85 2.85-112.87-5.8-6.34-1.96-10.67-7.8-10.67-14.43V21.6c0-3.83 3.11-6.94 6.95-6.94z" class="cls-9"/><path d="M560 25.54v134c-36.03 2.64-72.08 1.54-108.15-3.31-3.3-.44-5.76-3.27-5.76-6.6V30.26c0-2.61 2.11-4.72 4.72-4.72z" class="cls-9"/><path d="M560 40.84v89.55h-86.37c-.81 0-1.48-.66-1.48-1.48V42.32c0-.82.67-1.48 1.48-1.48zm0 166.1v12.74a10.3 10.3 0 0 1-8.14 3.97c-5.72 0-10.35-4.63-10.35-10.34s4.63-10.34 10.35-10.34c3.31 0 6.25 1.55 8.14 3.97Zm-45.67 53.31c-3.46.59-6.92.59-10.37 0-1.37-.23-2.37-1.44-2.37-2.83 0-1.41 1.02-2.62 2.4-2.83 3.43-.54 6.87-.54 10.3 0a2.86 2.86 0 0 1 2.4 2.83c0 1.39-1 2.6-2.37 2.83Zm25.45 0c-3.46.59-6.92.59-10.37 0-1.37-.23-2.37-1.44-2.37-2.83 0-1.41 1.02-2.62 2.4-2.83 3.43-.54 6.87-.54 10.3 0a2.86 2.86 0 0 1 2.4 2.83c0 1.39-1 2.6-2.37 2.83Zm-48.88-58.24h-11.35c-.67 0-1.22-.55-1.22-1.22v-11.35c0-.67-.55-1.22-1.22-1.22h-10.38c-.67 0-1.22.55-1.22 1.22v11.35c0 .67-.55 1.22-1.22 1.22h-11.35c-.67 0-1.22.55-1.22 1.22v10.38c0 .67.55 1.22 1.22 1.22h11.35c.67 0 1.22.55 1.22 1.22v11.35c0 .67.55 1.22 1.22 1.22h10.38c.67 0 1.22-.55 1.22-1.22v-11.35c0-.67.55-1.22 1.22-1.22h11.35c.67 0 1.22-.55 1.22-1.22v-10.38c0-.67-.55-1.22-1.22-1.22Z" class="cls-9"/><circle cx="471.92" cy="208.42" r="5.86" class="cls-9"/></svg>