<svg xmlns="http://www.w3.org/2000/svg" xml:space="preserve" viewBox="0 0 560 320"><path fill="#48add4" d="M463 1h97.976v320c-152.663 0-305.351 0-458.44-.336.46-1.073 1.232-1.974 2.203-2.52 11.293-6.36 22.494-12.897 33.954-18.942 29.636-15.63 60.877-27.467 92.353-38.76 20.828-7.473 41.352-15.738 60.172-27.578 11.236-7.069 22.19-14.587 33.469-21.68 2.36 4.838 4.912.088 7.464.654.375.195.535.253.757.675.717 1.787 1.371 3.21 2.161 4.927l11.074-4.724-1.95-6.008 6.002-3.211-1.608-5.795 5.417-3.242c-.763-2.38-1.414-4.406-1.765-6.589 10.895-10.67 22.057-20.686 31.9-31.863 7.16-8.129 12.577-17.791 19.048-26.879.46-.183.644-.257 1.24-.28 1.793.032 3.175.014 5.023.059 7.166.02 13.865-.02 21.006-.026 2.804.014 5.166-.007 7.98.032 10.725.293 9.308.626 9.428-8.405.015-1.155.006-2.31.006-3.466.002-7.994.002-7.994-8.115-8.138-.362-8.233-.53-16.084-.83-24.28-2.075-.595-4.016-.847-6.294-1.225-.557-.22-.778-.312-.942-.869-.259-6.456-.574-12.449-.87-18.837.125-1.18.23-1.963.659-2.856a36 36 0 0 0 2.67-4.865c5.632-12.304 10.91-24.786 17-36.86C454.375 12.713 459.003 7.016 463 1"/><path fill="#57cffe" d="M324.488 210.961c-11.08 7.316-22.034 14.834-33.27 21.903-18.82 11.84-39.344 20.105-60.172 27.578-31.476 11.293-62.717 23.13-92.353 38.76-11.46 6.045-22.661 12.582-33.954 18.941-.97.547-1.742 1.448-2.673 2.521C68.35 321 34.7 321 1.025 321V1h461.506c-3.527 6.015-8.155 11.712-11.384 18.114-6.09 12.073-11.367 24.555-16.998 36.86-.735 1.606-1.562 3.17-2.702 4.467-.401-1.343-.448-2.4-.536-3.714-.328-.423-.615-.59-1.335-.815-5.514.776-7.244-1.439-6.727-6.407.287-2.753-.279-5.595-.336-8.744-.656-1.214-1.315-2.622-2.242-2.828-1.674-.372-3.508-.027-5.422-.037-.146-.056-.45.017-.614-.382-.85-2.83-1.535-5.263-2.686-7.766-9.816-.018-19.168.034-28.819-.018-.797 2.356-1.295 4.815-1.883 7.417-.091.144-.132.482-.564.54-8.413.4-8.428.4-8.035 8.39.065 1.311.317 2.614.37 4.335a110 110 0 0 0-.68 5.553c.032.016.02-.054-.43-.089-8.453-.157-8.478-.157-8.498 7.867-.016 6.084.04 12.169-.173 18.524-2.13.69-4.02 1.11-6.303 1.654-.785 1.808-1.472 3.484-1.517 5.177-.185 6.913-.174 13.832-.196 20.758.04.008.022-.071-.396-.02-2.38-.002-4.341-.054-6.368-.3-.065-.192-.299-.524-.24-.99.089-11.73.2-22.995.128-34.26-.069-10.96 1.397-10.123-10.19-10.006-6.549.066-13.092.631-19.982.917-.804-.01-1.265.034-2.118.076-.388 2.964-.384 5.93-.463 9.132-.265.512-.442.791-.857 1.42-1.177 3.912-.854 6.56 3.914 6.258.07.446.105.623-.27.934-5.332.203-3.9 3.87-4.108 6.63-.27 3.556 2.238 3.107 4.55 3.647 1.412.33 2.457 2.23 3.667 3.424-1.246 1.147-2.345 2.985-3.771 3.288-2.549.543-5.296.094-7.957.18-3.462.111-4.622-1.573-4.584-4.906.119-10.486.18-20.976-.027-31.459-.081-4.077 1.626-5.113 5.36-5.04 8.652.168 17.31.017 25.966.008 11.815-.012 11.815-.008 10.57-12.205.735-3.404.69-5.698-3.446-5.652-15.299.172-30.6.197-45.972-.09.181-.789.434-1.211 1.144-1.496 15.255.201 30.053.295 44.85.27 1.161-.002 3.282-.76 3.322-1.29.216-2.913.627-6.202-.542-8.636-.462-.96-4.83-.045-7.86-.03-14.533-.017-28.625.011-42.94-.208-1.927-.026-3.63.195-5.266.481.065.065-.063-.069-.411.076-1.312 4.215-1.962 8.522-7.869 7.99-.437-.04-1.403 1.706-1.49 2.68-.192 2.122.025 4.282.027 6.457-.048.031-.068.143-.53.136-7.821-.01-7.82-.01-7.85-7.601-.008-2.297.04-4.596-.048-6.89-.127-3.266-1.648-4.493-5.177-3.116-1.1.003-1.834.063-3.035.06-12.692-.048-24.916-.034-37.415-.296-3.874-.548-7.47-1.005-11.073-1.056-8.471-.121-8.472-.043-7.977 8.692-.034.002-.032.07-.247.157-.482.263-.676.498-1.07.814-.45.05-.628.082-1.115-.084-4.773-1.474-6.898.048-6.363 4.824.163 1.456.22 2.925.2 4.487-.124.1-.329.346-.746.255-6.595-.25-7.473.5-7.353 6.536.213 10.652.551 21.302.746 32.188-.118.402-.144.568-.54.753-2.439.661-4.506 1.303-6.615 1.485-.076-3.29-.28-6.13-.102-8.947.216-3.425-1.078-5.066-4.58-4.641-4.294.521-5.774-1.618-5.258-5.57.536-4.109-1.472-5.191-5.233-4.998-7.141.368-14.304.677-21.443.484-1.72-.046-3.385-2.147-5.076-3.304 1.653-.913 3.285-2.564 4.964-2.614 8.65-.261 17.313-.108 25.97-.107 11.619.002 11.619 0 10.333-12.265a64 64 0 0 0 .143-4.822c-.396-.786-.737-1.282-.833-2.112.5-1.275.922-2.205.98-3.158.443-7.173.268-7.347-6.745-7.347-15.455 0-30.91.076-46.363-.04-3.667-.028-5.802.925-5.408 5.02.26 2.703-.98 4.152-3.765 3.85-3.585-.39-4.793 1.293-4.452 4.649.32 3.149-.599 5.241-4.358 4.808-2.74-.316-3.868.94-3.818 3.753.118 6.645-.15 13.303.182 19.933.063 1.272 2.084 3.39 3.317 3.478 3.296.232 5.077 1.198 4.659 4.736-.387 3.27 1.163 4.316 4.31 4.475 1.35.068 3.842 1.834 3.742 2.532-1.062 7.396 3.618 7.128 8.52 6.812 1.49-.096 2.99-.025 4.262.25-3.665 1.728-7.057 3.319-10.575 4.548-1.286.45-2.872.041-4.343-.352-1.233-3.436-2.516-6.47-3.634-9.564-.998-2.763-2.464-2.716-4.772-.955-1.145.108-1.905.19-2.76-.06-.724-1.537-1.353-2.744-1.992-4.318-1.911-4.86-3.812-9.355-5.436-13.193-2.9-.191-5.15-.34-7.424-.86-1.443-3.856-2.862-7.338-4.384-11.07L87.016 59.8c-.743-1.312-1.452-2.565-2.156-4.125-.76-.49-1.526-.675-2.613-.821-1.296.472-2.27.906-3.569 1.347-1.442.602-2.561 1.198-4.031 1.817-5.36 2.331-3.522-3.852-6.84-4.717-6.882 3.016-14.368 6.296-22.212 9.608-2.466.962-4.572 1.892-7.048 2.89-6.53 1.314-1.362 5.127-2.014 7.723-2.83 1.26-5.651 2.518-8.81 3.848-.85 1.333-1.614 2.555-1.808 3.862-.23 1.55.032 3.174-.292 4.794-1.823.647-3.274 1.267-4.916 1.968l2.104 6.098-5.37 2.897c.62 1.437 1.18 2.736 1.72 4.298.2.521.416.78.619.986-.015-.052-.112-.006-.096.337-1.914 1.633-3.842 2.924-5.956 4.338l5.113 12.82-6.307 3.236c6.258 14.85 12.396 29.415 18.38 44.306-3.553 1.858-6.951 3.388-10.54 5.005.985 2.458 1.832 4.572 2.326 6.759-2.07.87-3.788 1.665-5.798 2.595.822 1.874 1.58 3.6 2.188 5.655-2.013 1.334-3.879 2.34-5.756 3.353.712 2.179 1.376 4.212 1.857 6.414-.184.17-.333.646-.702.744-1.814.722-3.26 1.347-4.986 2.093 1.432 3.558 2.844 6.548 3.795 9.679.397 1.307-.188 2.913-.654 4.4-1.099.394-1.87.771-2.912 1.141-.324.922-.379 1.852-.372 3.099.64 1.47 1.218 2.624 1.772 4.064.277.749.576 1.212.87 1.682-.004.006.01.004.026.255.087.404.157.556.222.942.129.54.356.74.706 1.174.325.943.62 1.541.906 2.29-.01.15.211.355.213.602.002.248.222.691.25.972.488 1.067.95 1.853 1.474 2.986.443 1.156.823 1.965 1.202 2.78-.003.005.007.005.03.363.763 2.103 1.503 3.848 2.282 5.885.522 1.115 1.005 1.938 1.544 3.13 1.091 2.775 2.127 5.18 3.148 7.6-.015.014.027.015.04.34.39 1.098.768 1.871 1.168 2.996 1.289 3.134 2.555 5.916 3.824 8.99.322.717.642 1.143 1.327 1.751 2.223-.354 4.079-.89 6.104-1.474l7.96 18.784c2.286-.76 4.248-1.41 6.365-2.113l5.654 12.962 6.31-2.021 3.136 5.959 5.948-2.057 3.181 6.102 38.69-16.125c-.66-2.69-1.198-4.882-1.381-7.124 2.09-.854 3.826-1.658 5.592-2.477l-5.162-12.958 5.873-2.948-2.188-6.569 5.597-2.87-2.198-6.133 12.786-5.575c-.86-2.403-1.584-4.421-1.985-6.659 21.792-9.158 43.262-18.096 64.893-27.102l3.379 6.34 5.535-2.178 3.27 6.117c1.642-.8 2.965-1.445 4.651-2.015 2.554 4.38 4.745 8.685 6.912 12.943l5.965-2.115 2.902 5.784c2.46-.552 4.655-1.045 6.895-1.192.788 1.978 1.533 3.608 2.374 5.45l44.393-18.441c-.861-2.077-1.553-3.743-2.107-5.765 1.993-1.52 3.85-2.686 5.492-3.718-.498-2.55-.925-4.74-.978-6.968 1.928-.779 3.482-1.52 5.357-2.414-1.99-4.504-3.756-8.502-5.375-12.818 2.028-1.281 3.909-2.243 5.94-3.282-2.185-5.344-4.388-10.35-6.227-15.488-.51-1.424.064-3.236.52-4.901 3.484-.743 4.204-2.163 2.788-5.308-3.357-7.46-6.303-15.105-9.35-22.515.492-.54.663-.884.93-.995 3.646-1.517 7.306-3.002 11.437-4.402 8.702.136 16.928.197 25.155.215 3.822.009 7.645-.067 11.633.213 1.001 2.064 1.837 3.81 2.692 5.596l6.389-2.016 5.394 12.177 6.674-2.231 5.488 13.354-6.165 3.075 1.966 6.3c-1.958 1.088-3.782 2.1-5.693 3.16l2.227 6.456-12.116 5.25 2.298 6.494-5.333 3.105c.728 2.099 1.42 4.094 1.788 6.177-2.128.892-3.933 1.695-6.1 2.592-2.122.89-3.88 1.686-5.711 2.514z"/><path fill="#1f5ca4" d="M422.388 41.108c.182 2.802.748 5.644.461 8.397-.517 4.968 1.213 7.183 6.852 6.604.753.503.983.71 1.25.874.048 1.057.095 2.115.172 3.569-.074 1.18-.179 1.963-.499 3.49.192 6.813.6 12.883 1.008 18.953.22.093.442.186 1.19.676 2.43.698 4.333.999 6.235 1.3.168 7.85.336 15.701.81 24.261 2.147 1.895 5.245 2.807 5.573 4.32.784 3.615.737 7.61-.008 11.24-.236 1.15-3.772 1.559-5.73 2.452-.677.31-1.152 1.06-1.719 1.609-2.361.022-4.723.043-7.698-.31-7.232-.555-13.851-.75-20.471-.863-.27-.005-.553.76-.83 1.165-1.382.018-2.764.036-4.73-.328-2.772-.756-4.953-1.397-7.148-1.453-6.823-.172-7.324-.928-3.779-7.044.782-.019 1.23.016 1.763.34 1.025.093 1.965-.101 3.357-.366 3.797-.105 7.14-.14 10.748.077 2.26-.578 5.586-1.023 5.961-2.32.664-2.299.45-6.2-1.054-7.468-2.458-2.073-6.244-2.576-9.573.615-4.816.082-9.175.077-13.637-.224-.651-2.091-1.2-3.887-1.834-5.882-.085-.2-.136-.633-.164-.907-.323-.567-.618-.86-.913-1.152-.313.45-.626.898-.961 1.582-.022.235-.173.68-.514.846-.667 4.182-.993 8.197-1.652 12.348-1.672.579-3.011 1.022-4.638 1.658-.566.765-1.127 1.363-1.08 1.908.426 4.865-2.003 6.303-6.499 6.05-1.512-.084-3.094 1.073-5.041 1.724-6.394-1.004-2.705-5.16-2.544-8.003 2.643-.438 4.845-.922 7.097-1.819.013-.685-.023-.959.022-1.674.124-7.065.206-13.69.187-20.313-.006-2.473.468-4.441 3.52-3.965 4.308.673 4.919-1.616 4.829-5.19-.184-7.26-.055-14.528-.055-20.945 3.292-1.542 5.893-2.76 8.84-4.134.755-5.173 1.161-10.189 2.017-15.31 4.443-.037 8.436.032 12.445.598.03 4.483-.15 8.486.159 12.45.117 1.503 1.36 2.918 2.516 4.471 2.756.03 5.086-.037 7.546.355.05 8.843-.031 17.226-.297 25.798.282.724.748 1.259 1.652 1.78 2.78-.016 5.122-.02 7.464.45.027 8.46.054 16.446.176 24.812 6.179 3.71 9.606 2.109 9.812-4.367.179-5.612.156-11.24-.079-16.847-.055-1.33-1.313-2.608-1.98-3.943.038-.033-.003.06-.087-.282-1.335-.817-2.585-1.293-3.917-2.066-.702-.772-1.323-1.246-1.952-2.14-.015-2.1-.021-3.78-.01-5.915-.591-3.52-1.202-6.582-1.917-10.038-.035-1.467.035-2.54.452-3.65.986-.805 1.626-1.575 2.266-2.346a53 53 0 0 1-2.853-1.79c-.382-.409-.626-.613-.997-1.11-1.38-.106-2.652.104-4.286.162-.784-3.472-1.103-6.809-1.664-10.104-.334-1.962-1.046-3.86-1.897-5.853-.894-.304-1.479-.541-2.121-1.124-.686-1.829-1.313-3.313-1.599-4.74 3.448-.647 6.554-1.351 9.953-1.915.895.416 1.495.691 2.094.966M397.513 88.05c3.333-2.152 3.374-9.715-.45-12.665 0 4.272 0 8.158.45 12.665"/><path fill="#56ccfb" d="M408.93 119.819c-3.343.035-6.686.07-10.852.089a50 50 0 0 0-3.072.163c-.449-.035-.897-.07-2.096-.135-5.719-.002-3.943 3.853-3.77 6.141.082 1.083 2.395 2.627 3.863 2.844 3.246.481 6.598.255 9.907.317-6.194 8.979-11.612 18.641-18.77 26.77-9.844 11.177-21.006 21.193-32.15 31.63-1.257-1.875-1.966-3.673-2.723-5.594l5.832-3.104-2.03-6.161 5.842-3.014-2.148-6.41 5.81-3.089-10.714-25.586-6.457 2.025c-.944-2.34-1.802-4.466-2.338-6.876 2.786-.45 5.328-.313 7.685-.906 1.26-.317 2.203-1.895 3.342-3.338.33-2.962.608-5.49 1.315-7.957 3.135-.333 7.289 1.847 7.277-3.51-.013-5.716-.263-11.432-.263-17.517.358-.855.568-1.341 1.053-1.796.458.063.64.094.798.599-.031 6.056.232 11.656-.128 17.217-.305 4.697 1.68 5.841 6.14 4.998.837.12 1.321.148 1.806.175.037.274.073.548-.362 1.188-2.686.85-4.901 1.334-7.116 1.818.28 2.89-3.409 7.045 3.442 8.135 14.02-.033 12.879 2.301 12.451-9.96 1.339-.444 2.678-.887 4.732-1.626 1.014-4.315 1.313-8.334 1.61-12.353 0 0 .152-.446.488-.691a3.9 3.9 0 0 1 1.588-.146s.051.432.078 1.076c.024 2.437.02 4.23-.073 6.367-1.416 4.99.384 6.557 5.094 6.34 6.254-.29 12.534-.006 18.607.275-1.362.696-2.53 1.15-3.697 1.602"/><path fill="#1e2646" d="m342.743 130.113 2.659 6.592 6.457-2.025 10.715 25.586-5.811 3.09 2.148 6.409-5.841 3.014 2.029 6.161-5.832 3.104c.757 1.92 1.466 3.72 2.424 5.75.9 2.26 1.55 4.286 2.313 6.666l-5.417 3.242c.518 1.865 1 3.6 1.608 5.795l-6.002 3.211 1.95 6.008-11.074 4.724c-.79-1.717-1.444-3.14-1.924-5.196 2.528-1.831 5.067-2.778 7.165-4.324 1.176-.865 2.52-2.952 2.228-4.087-.846-3.28-2.482-6.355-3.867-9.65l-5.71 1.823c-.69-1.994-1.382-3.99-2.11-6.088l5.333-3.105-2.298-6.495 12.116-5.249-2.227-6.455 5.693-3.16-1.966-6.301 6.165-3.075-5.488-13.354-6.674 2.231-5.394-12.177-6.389 2.016c-.855-1.786-1.69-3.532-2.185-5.713 5.004-.247 9.666-.06 14.413.33.246.478.482.643.793.702"/><path fill="#3d4161" d="M332.639 196.095a929 929 0 0 0 6.032-1.911c1.385 3.294 3.021 6.37 3.867 9.65.292 1.134-1.052 3.22-2.228 4.086-2.098 1.546-4.637 2.493-7.228 3.96-.396.211-.556.153-1.003-.388-1.917-4.62-3.547-8.76-5.177-12.9 1.804-.802 3.609-1.605 5.737-2.497"/><path fill="#202646" d="M326.538 198.687c1.994 4.045 3.624 8.184 5.326 12.669-2.265-.084-4.817 4.666-7.177-.172-1.358-3.313-2.517-6.404-3.86-9.983 1.832-.828 3.59-1.623 5.711-2.514"/><path fill="#2e6bad" d="M438.436 128.914c.114-.61.589-1.36 1.265-1.67 1.96-.893 5.495-1.303 5.73-2.452.746-3.63.793-7.625.01-11.24-.329-1.513-3.427-2.425-5.378-3.937 7.809-.566 7.809-.566 7.807 7.428 0 1.155.009 2.311-.006 3.466-.12 9.031 1.297 8.698-9.428 8.405m-35.249.216c-3.586.046-6.938.272-10.184-.209-1.468-.217-3.781-1.761-3.863-2.844-.173-2.288-1.949-6.143 3.436-6.087-2.794 6.146-2.293 6.902 4.53 7.074 2.195.056 4.376.697 6.736 1.402-.011.406-.195.48-.655.663m6.263-.221c-.19-.469.094-1.233.364-1.228 6.62.113 13.239.308 20.03.827-6.529.38-13.228.422-20.394.4m22.239-46.376c-.465-5.606-.873-11.676-1.085-18.093.511 5.644.826 11.637 1.085 18.093m7.236 2.095c-1.77.044-3.673-.257-5.766-.829 1.75-.019 3.691.233 5.766.829"/><path fill="#20223f" d="m212.011 214.84-4.288 2.09-3.27-6.117-5.535 2.177-3.379-6.339-65.107 27.105c-.821.23-1.107.238-1.402-.129-.684-2.124-1.358-3.876-2.052-6.003-2.122-7.584-2.12-7.58 5.093-10.47 4.298-1.721 8.589-3.459 13.22-5.321 7.795-3.367 15.252-6.602 23.076-9.892 5.116-2.022 9.865-3.989 14.977-6.016 6.42-2.588 6.496-2.879 3.975-8.699-1.253-2.89-1.971-6.044-3.461-8.79-1.716-3.163-2.145-5.389 1.867-6.95.79-.306 1.728-2.327 1.414-3.027-1.792-3.994.256-5.783 3.643-6.292 7.934-1.193 4.798-10.397 10.01-13.489.151-.09-.067-.954-.24-1.41-1.066-2.837.131-4.327 2.804-5.26 2.5-.871 4.837-2.233 7.355-3.03 4.91-1.555 8.507-3.764 6.672-9.858 1.13-.15 1.883-.249 3.094-.272 4.816.148 9.175.22 13.597.668.122.62.182.867.333 1.41.104 1.49.118 2.685-.226 3.92-4.627 3.912.874 6.017.854 9.126 1.846-.34 3.274-.604 4.731-.495 1.97 4.948 4.271.734 6.332.527 3.117-.312 3.274-2.532 2.768-5.205.905-1.384 2.095-2.618 2.013-3.762-.123-1.729-1.133-3.393-1.604-5.196.368-.274.544-.465 1.14-.726 3.155-.136 5.86-.232 8.9-.23.776.245 1.217.392 1.664.653.005.115.02.348.163.685 3.77 7.728 3.77 7.728-1.814 12.342 3.29 5.224.106 7.234-4.51 8.535-3.41.96-5.748 2.514-4.232 6.79.281.794-.97 2.656-1.974 3.27-1.961 1.199-4.353 1.68-6.359 2.822-1.104.629-2.748 2.502-2.51 2.954 2.55 4.86-1.261 6.317-4.47 8.107 5.503 10.445-5.951 7.777-8.684 12.268.21 4.287.16 4.235-3.818 7.969-.68.638-1.327 2.25-.992 2.884 2.637 4.996-.814 6.22-4.371 7.181-4.756 1.285-7.414 3.448-4.68 8.752-.385.298-.568.506-.717.743m17.137-50.409c2.594-4.855-.22-11.017-6.602-13.94l-11.177 3.178 7.467 17.776c3.712-2.331 6.901-4.335 10.312-7.014M210.684 187.3c3.604.58 4.088.248 3.053-2.59-1.188-3.26-2.693-6.403-3.854-9.116l-5.641-1.208-.426 3.012-5.836 1.978 5.115 12.153c5.968-.593 1.58-4.16 2.14-6.168 2.427-2.001 4.227-2.002 5.449 1.939"/><path fill="#1e5ca4" d="M341.865 129.208c-4.662-.187-9.324-.374-14.493-.444-4.33.154-8.153.23-11.975.221-8.227-.018-16.453-.079-25.147-.647-.161-9.53-.161-9.53-8.612-11.16.132-7.365.132-7.365-6.66-8.585a779 779 0 0 0-.388-10.515c-.156-13.005-.27-25.575-.204-38.388.316-1.04.45-1.836.592-3.074.012-2.5.017-4.56.307-6.84 2.136-.98 3.987-1.739 5.839-2.497 0 0 .02-.112.386-.317 1.468-2.616 2.297-6.911 3.722-7.119 6.792-.99 5.949-5.461 5.64-9.979 0 0 .128.134.523.123 1.94-.103 3.484-.195 5.03-.287 14.091-.029 28.183-.057 43.17.052 3.67.348 6.793-.107 6.447 4.405-.33 4.304-3.366 3.825-6.155 3.831-11.783.027-23.567-.045-35.349.06-1.878.017-3.749.755-5.623 1.16-.254.423-.507.845-.732 2.012-.11 1.746-.248 2.747-.802 3.748-2.725.725-5.035 1.45-7.534 2.532-.316.998-.551 1.639-.552 2.28-.023 19.352-.035 38.704.005 58.056.002 1.106.45 2.21.848 3.647 2.68.73 5.205 1.128 7.85 1.912.086 1.458.05 2.53-.178 3.863.94 1.08 2.06 2.596 3.204 2.614 11.42.175 22.845.208 34.266.052 4.727-.065 6.494-3.823 4.018-8.536-.032-1.654.068-2.94.493-4.523a376 376 0 0 0 1.086-22.486c.022-1.167-.897-2.351-1.514-3.857a37 37 0 0 1-.596-4.815c-1.497-.92-3.051-1.797-4.635-1.854-6.026-.215-12.062-.165-18.104-.633-.003-2.927.004-5.435.01-7.944.46-.045.92-.09 2.071.115 8.144.375 15.6.658 23.05.56 3.697-.048 4.95 1.305 4.896 4.95-.16 10.95-.135 21.907.02 32.859.025 1.758 1.09 3.502 1.673 5.252 0 0 .234.332.38.898 2.572 2.622 4.86 3.358 6.705-.125 0 0 .018.079.37-.021.828-1.58 1.688-3.054 1.714-4.541.124-7.14.022-14.284 0-21.427 1.89-.42 3.78-.839 6.263-1.687.999-5.929 1.61-11.423 1.746-16.93.098-3.99-.328-7.873 5.532-7.52.46.028.992-1.137 1.49-1.748 0 0 .012.07.33 0 3.732-1.946 3.44-3.901.443-5.914-.166-1.306-.418-2.609-.483-3.92-.393-7.99-.378-7.99 8.334-8.114 2.292.491 3.855.764 5.35 1.41-.357 2.126-.644 3.877-1.282 5.634-1.502.783-2.654 1.56-3.893 2.782-.244 5.382-.402 10.32-1.006 15.246-2.873.706-5.3 1.422-7.866 2.511-.418 8.4-.697 16.427-1.246 24.519-.726.6-1.18 1.136-2.019 1.817-1.467.125-2.552.103-3.843-.085-.693.373-1.18.913-1.62 1.704.044.592.042.932.04 1.272-.21.487-.42.973-1.004 1.99-.652 1.432-.929 2.331-1.515 3.339-.1 1.373.108 2.638.32 4.36.184 5.715 1.137 11.341-6.02 13.105-.279 2.528-.557 5.056-1.295 8.09-2.587.79-4.763.886-6.825 1.418-1.733.447-3.334 1.403-4.993 2.133"/><path fill="#2562a7" d="M139.155 93.054c-1.495.006-2.996-.065-4.485.031-4.902.316-9.582.584-8.52-6.812.1-.698-2.392-2.464-3.742-2.532-3.147-.159-4.697-1.206-4.31-4.475.418-3.538-1.363-4.504-4.66-4.736-1.232-.087-3.253-2.206-3.316-3.478-.331-6.63-.064-13.288-.182-19.933-.05-2.812 1.079-4.069 3.818-3.753 3.76.433 4.678-1.66 4.358-4.808-.341-3.356.867-5.04 4.452-4.65 2.784.303 4.025-1.146 3.765-3.85-.394-4.094 1.741-5.047 5.408-5.02 15.454.117 30.908.04 46.363.041 7.013 0 7.188.174 6.746 7.347-.06.953-.481 1.883-1.408 3.123-14.553.285-28.434.194-42.312.354-1.685.02-3.354 1.393-5.101 2.534.004 1.456.08 2.517-.089 3.7-.83.539-1.416.955-2.42 1.312-2.098.004-3.778.067-5.775.051-.738 1.396-1.49 2.864-1.525 4.348-.141 5.824.121 11.66-.118 17.478-.162 3.954.957 5.863 5.285 5.762 1.337-.031 3.918 1.923 3.88 2.886-.192 4.779 2.206 5.314 6.187 5.297 8.613-.037 17.228.427 25.755 1.151-.04 8.485.007 16.506-.11 24.787-.472.79-.78 1.322-1.544 1.78-4.157-.043-7.857-.01-11.925-.146-5.514-.232-10.66-.404-15.804-.336-7.936.105-15.87.374-24.034.511-.227-.063-.653-.266-.826-.533-1.089-.708-2.005-1.15-2.91-2.033.024-8.227.024-8.219 7.579-8.247 2.125-.008 4.25-.084 6.838-.087 5.479.066 10.492.09 15.87.298 5.427.302 10.511.711 15.536.336 1.25-.093 2.704-2.564 3.37-4.22 1.061-2.636-.72-3.487-3.553-3.524-5.832.004-11.187.025-16.54.046"/><path fill="#205ea5" d="M275 49.998c-.005 2.059-.01 4.118-.487 6.602-13.37.41-26.267.342-39.163.472-1.1.011-2.186 1.336-3.3 2.475-.576 4.262.9 5.845 4.94 5.71 7.657-.257 15.33-.013 22.99-.187 3.347-.076 4.899.972 4.807 4.543-.167 6.494-.14 12.998.015 19.492.075 3.103-1.193 4.015-4.153 3.96-7.495-.14-14.994-.027-22.923-.033-5.217-.79-6.368 1.645-5.487 6.177 2.981.562 5.883.748 9.184.972 1.472.064 2.543.09 3.857.277 1.107-.078 1.972-.315 3.155-.533.74.063 1.163.106 1.879.386 2.058.383 3.821.532 5.912.834 4.518.386 8.705.685 12.898.83 3.794.13 4.744 1.741 2.606 4.92-1.047.172-1.798.462-2.548.751.585 1.12 1.17 2.24 2.005 3.366.25.008.749-.01.79.392-.058 1.469-.157 2.536-.596 3.635-2.004.675-3.669 1.319-5.456 1.772-.297-.44-.516-.644-.851-1.19-.12-1.707-.167-3.023-.295-4.733-1.881-.89-3.676-1.796-5.48-1.815-13.94-.144-27.88-.117-41.95-.591-.156-7.268-.052-14.093-.27-20.907-.111-3.45 1.061-4.684 4.578-4.631 10.146.15 20.298-.11 30.445.02 3.633.047 4.506-1.556 4.503-4.833-.004-3.366-1.494-4.257-4.58-4.204-10.146.174-20.297.083-30.443.283-3.225.064-4.428-1.055-4.397-4.312.073-7.48-.142-14.963.228-22.474 14.408-.07 28.35-.258 42.287-.065 4.151.058 5.78-1.398 5.55-5.49.2-.463.078-.711-.55-1.102-1.762-.586-3.232-.93-4.675-1.605 1.682-3.346 3.338-6.36 4.994-9.374.734-.06 1.468-.12 2.728.226 3.377 2.903 4.06 5.618 2.18 9.197-1.706 3.25 1.148 8.824 5.073 10.787"/><path fill="#2561a7" d="M184.49 46.931c1.355 11.851 1.355 11.854-10.263 11.852-8.658-.001-17.32-.154-25.97.107-1.68.05-3.312 1.701-4.965 2.614 1.69 1.157 3.356 3.258 5.076 3.304 7.14.193 14.302-.116 21.443-.484 3.76-.193 5.77.889 5.233 4.998-.516 3.952.964 6.091 5.259 5.57 3.501-.425 4.795 1.216 4.58 4.641-.178 2.817.025 5.657.062 9.326.026 1.6.05 2.362.04 3.593.017 8.888.07 17.306-.072 25.947-1.075.593-1.954.963-3.177 1.139-5.084-1.525-7.382.019-6.783 5.166.326 2.81-.72 4.325-3.878 4.312-19.14-.075-38.282.022-57.42-.196-1.22-.014-2.797-2.006-3.51-3.428-.609-1.216-.214-2.935-.101-4.75 2.163-1.073 4.163-1.83 6.618-2.624 17.01-.038 33.566-.038 50.3-.038 0-2.704 0-4.344.266-6.165.793-.548 1.32-.916 2.263-1.195 3.06.162 6.11.782 6.069-3.38a947 947 0 0 0-.524-23.662c-4.215-1.199-8.992-1.186-7.981-7.689.074-.481-2.669-1.993-4.12-2.02-7.469-.134-14.946.17-22.416.048-1.48-.024-4.217-1.245-4.218-1.916a278 278 0 0 1 1.138-25.13c15.99.084 31.52.072 47.05.06"/><path fill="#1e5aa3" d="M266.048 117.001c1.664-.643 3.329-1.287 5.437-1.57.445 1.437.448 2.514.357 3.71-.185.443-.079.697.263 1.104.038.22-.048.66-.043 1.096-.104 2.173-.213 3.91-.653 5.655-1.352.611-2.374 1.214-3.844 1.882-2.256.23-4.063.394-6.05.515-.18-.043-.542.03-.542.03-.44-.146-.882-.293-1.827-.87-5.471-1.712-10.462-3.34-15.117.8-.039.245.003.74-.223.355-1.085-.606-1.946-.828-2.997-1.375-6.634-.545-13.076-.792-19.52-.922-.414-.009-.846.886-1.27 1.361-.753.1-1.506.198-3.052.288-2.188-.094-3.585-.178-5.099-.589a664 664 0 0 0-3.92-8.791c-2.103-.752-4.034-1.17-6.313-1.732-.785-.954-1.613-1.775-1.593-2.575.108-4.308-1.984-5.87-6.299-5.577-.737-1.95-1.536-3.571-1.659-5.242-.26-3.548-.168-7.123-.196-11.116.043-2.44.062-4.451.081-6.462.026-.166.053-.332.465-.972.772-2.37 1.458-4.262 1.49-6.164.127-7.625.317-15.267-.05-22.877-.217-4.527.5-7.936 5.29-9.354 0 0 .204-.246.589-.554 1.565-3.69 1.543-7.886 6.21-8.906.179-.031.357-.062 1.017-.208.746-.288.943-.519 1.075-.806 0 0-.002-.068.37-.226.717-.698 1.394-1.263 1.356-1.775-.353-4.74 2.398-5.319 6.233-5.148 3.788.168 7.598-.167 11.397-.28 12.225-.015 24.449-.03 37.14.02-1.188 3.076-2.844 6.09-4.974 9.588-14.194.495-27.913.506-41.894.358-.831.07-1.862.236-1.902.536-.503 3.752-2.562 5.275-6.311 5.101-.524-.024-1.13 1.708-1.696 3.1.09 21.153.177 41.834.388 62.865 3.67 1.632 7.397 2.527 8.296 7.231.142.742 2.863 1.393 4.396 1.405 13.261.104 26.524.123 39.784-.057 1.395-.02 2.77-1.482 4.169-2.44.014-.164.227-.417.48-.408.423.005.592 0 .76-.004"/><path fill="#1e2545" d="m84.854 55.981 2.162 3.819 6.596-2.29c1.522 3.733 2.94 7.215 4.38 11.473.365 3.119 10.525 13.588 12.873 14.018a89 89 0 0 1 2 4.015c.112.393.144.52-.094.813-2.321 1.164-4.334 2.328-6.502 2.841-4.182.99-5.717 3.19-4.385 7.55.3 3.445.819 6.646 1.461 10.605l3.045.975c-.536 1.973-.964 3.544-1.704 5.294-9.053 3.735-17.794 7.292-26.626 10.496a348 348 0 0 0-2.129-5.83l24.487-10.334-5.554-13.791 5.584-3.123c-2.31-5.643-4.381-11.082-6.821-16.35-.488-1.053-2.381-1.455-3.646-2.52-2.797-6.66-4.334-7.224-9.219-3.427-1.373.599-2.51.973-3.018 1.14-1.864-2.203-3.325-3.929-4.913-5.718-.432-.097-.664.024-1.102.525-10.849 4.683-21.418 9.144-31.855 13.549.757 2.576 1.308 4.45 1.722 6.435-.307.276-.453.46-.876.87a690 690 0 0 1-9.591 4.345c-2.076 3.234 4.352 6.239-2.042 7.692-3.88-1.92-7.57-4.197-8.19 2.541-.023.26-.802.45-1.229.673 0 0 .097-.046.061-.235-.143-.502-.314-.775-.55-1.008l-1.737-4.035 5.369-2.897-2.104-6.098c1.642-.701 3.093-1.32 5.249-2.064 6.112-3.713 6.215-4.338 2.105-8.633l8.472-3.775c.652-2.596-4.516-6.409 2.038-7.328 1.452 1.371 2.973 3.498 3.495 3.276 2.708-1.152 5.534-2.694 3.888-6.592L67.806 53.3c3.32.865 1.481 7.048 7.1 4.926 1.771-.553 2.934-1.293 4.096-2.033.975-.434 1.95-.868 3.54-1.212 1.182.393 1.747.696 2.312 1m-44.207 18.63-1.316-.888-.507 1.581c.555-.063 1.109-.127 1.823-.693"/><path fill="#2866ab" d="M347.557 47.016c1.333 11.765 1.333 11.76-10.482 11.773-8.656.01-17.314.16-25.966-.009-3.734-.072-5.441.964-5.36 5.041.208 10.483.146 20.973.027 31.459-.038 3.333 1.122 5.017 4.584 4.906 2.66-.086 5.408.363 7.957-.18 1.426-.303 2.525-2.141 3.771-3.288-1.21-1.194-2.255-3.094-3.667-3.424-2.312-.54-4.82-.091-4.55-3.647.209-2.76-1.224-6.427 4.53-6.589 4.743.285 8.653.663 12.499 1.497-.253 8.468-.442 16.481-1.119 24.48-8.022-.014-15.558-.11-23.088.061-1.583.036-3.144 1.053-5.088 1.728-1.076.383-1.778.655-2.588.475-.178-1.364-.25-2.275-.048-3.462.09-2.164-.092-4.054-.382-6.366-.037-2.733.033-5.044.393-7.674.526-7.658.857-14.997.933-22.339.019-1.85-.78-3.707-1.31-5.99-.042-3.071.023-5.712.365-8.639.093-2.502-.09-4.72-.375-7.3-.103-1.114-.104-1.867.34-2.572 16.504.051 32.564.055 48.624.06"/><path fill="#1f2646" d="M14.073 229.01s-.222-.205-.232-.7c-.31-1.094-.612-1.691-.913-2.289-.322-.092-.55-.291-.61-.96.107-.672-.019-.906-.307-1.064 0 0-.013.002-.05-.275a14 14 0 0 0-.806-1.697c-.577-1.154-1.155-2.307-1.638-4.024.224-1.324.354-2.085.485-2.846.771-.377 1.543-.754 2.965-1.143 1.079-.011 1.508-.01 2.128.293a336 336 0 0 1 3.015 6.606c3.61 8.099 7.218 16.198 10.855 24.66 2.425 6.619 4.821 12.874 7.383 19.56 5.911-3.858 7.933-.663 9.52 3.815.76 2.144 2.038 4.105 3.116 6.518 1.571 6.07 1.571 6.07 8.254 3.779 1.414 2.41 2.588 4.579 3.782 7.131.367 3.685 1.98 4.867 5.432 4.46 1.37-.161 3.636 1.123 4.295 2.378 1.338 2.545 2.731 2.9 5.176 1.843a3543 3543 0 0 1 35.437-15.067c.205 0 .616.005.616.005l1.735 7.073-38.689 16.125c-1.08-2.074-2.102-4.032-3.181-6.102l-5.948 2.057-3.137-5.959-6.309 2.02-5.654-12.961-6.365 2.113-7.96-18.784c-2.025.584-3.881 1.12-6.155 1.21a20 20 0 0 1-1.279-1.778c-1.266-2.783-2.532-5.565-3.657-8.94-.355-1.422-.85-2.25-1.345-3.08 0 0-.042-.001-.031-.427-1.286-2.701 3.505-7.716-3.2-7.557-.483-.823-.966-1.646-1.193-2.936.886-1.814 1.516-3.159 2.147-4.504L17.008 236s-.01 0-.027-.353c-.426-1.162-.835-1.97-1.244-2.779-.462-.786-.924-1.572-1.349-2.763.074-.705-.043-.935-.315-1.095"/><path fill="#535d7a" d="M28.937 245.209q-5.412-12.15-10.827-24.298c-.938-2.103-1.884-4.203-2.846-6.918 1.786-1.726 3.592-2.839 6.283-4.498l-6.69-11.758s.15-.476.664-.75c5.044-1.152 7.82-2.946 4.696-8.008-.285-.463-.037-1.256.327-1.918 6.51-1.14 3.927-4.813 3.05-8.292 5.826-2.072 11.185-4.036 8.914-11.746 3.06-1.008 5.76-1.983 8.535-2.612.746 2.122 1.418 3.9 1.832 5.923-1.057 1.708-2.82 3.469-2.477 4.576 1.081 3.487-.85 4.468-3.338 5.47-1.628.654-3.202 1.443-4.932 2.231 1.22 3.75 3.18 7.337-2.127 8.815-.38.105-.89 1.32-.699 1.652 2.682 4.682-.188 6.811-4.16 8.344l4.649 11.85-5.666 3.571c3.354 8.462 6.656 16.79 9.703 25.345-1.8 1.158-3.345 2.09-4.89 3.02"/><path fill="#f6f8f0" d="M299.124 111.751c.703-.272 1.405-.544 2.936-.8 8.542.038 16.257.16 23.965-.007 1.428-.03 2.83-1.233 4.244-1.894.19-8.014.378-16.027.838-24.683-.59-1.508-1.435-3.093-2.315-3.112-3.52-.078-7.051.33-10.578.56-4.733.57-5.056-2.078-3.389-5.857 8.449-.085 16.166.042 23.882.17.178 1.354.356 2.71.468 4.764.056 9.224.179 17.747.301 26.27-.1 1.286-.2 2.572-.39 4.497-.842 2.652.867 6.105-3.368 6.067-11.938-.107-23.878-.173-35.79-.64-.25-2.036-.527-3.685-.804-5.335"/><path fill="#1e2545" d="M40.967 164.066c-2.7.974-5.399 1.949-8.73 2.936-.81.002-.99-.008-1.17-.019l-18.533-43.98 6.307-3.235-5.113-12.82c2.114-1.414 4.042-2.705 5.956-4.338.411-.566 1.19-.756 1.214-1.016.619-6.738 4.31-4.461 7.944-2.292-5.646 2.134.397 5.635-1.191 8.155l-5.041 2.784 5.088 12.783-5.988 3.251 13.353 32.128c2.595-.988 4.739-1.804 7.042-2.293.839 2.134 1.518 3.94 1.963 5.985-1.19.815-2.145 1.393-3.1 1.971"/><path fill="#1f2544" d="M112.33 279.942c-.354.05-.765.046-1.084-.304-2.847-6.467-5.375-12.584-7.976-18.878 3.03-1.738 5.643-3.495 3.24-7.43-.264-.432 1.002-2.183 1.906-2.852 1.24-.917 2.814-1.385 3.997-1.93-.536-2.919-.95-5.176-1.016-7.474 1.791-.7 3.235-1.36 5.05-2.052 4.446-1.695 8.52-3.359 12.593-5.022l1.07-.025c.937 2.016 1.66 4.034 2.52 6.437l-12.785 5.575 2.198 6.132-5.597 2.871 2.188 6.57c-1.85.927-3.725 1.869-5.873 2.947l5.162 12.958c-1.766.819-3.502 1.623-5.592 2.477"/><path fill="#1f2545" d="M271.74 126.988c.109-1.737.218-3.474.689-5.607 3.316-1.532 6.27-2.668 9.225-3.805 8.435 1.233 8.435 1.233 8.12 10.669-3.663 1.925-7.323 3.41-10.969 4.927-.267.111-.438.456-.93.995 3.047 7.41 5.993 15.055 9.35 22.515 1.416 3.145.696 4.565-3.13 5.302-1.175.023-1.63.02-2.242-.306-1.735-4.136-3.37-7.927-4.875-11.77-2.7-6.898-5.323-13.828-7.645-20.817 1.024-.75 1.715-1.426 2.407-2.103"/><path fill="#1e2545" d="m279.57 211.934 2.245 5.41-44.393 18.44c-.841-1.841-1.586-3.471-2.37-5.668-.041-.566-.037-1.005.28-1.184 14.437-6.097 28.555-12.015 42.88-17.833.589.345.974.59 1.358.835"/><path fill="#e3ebe8" d="M347.645 46.584c-16.148.428-32.208.424-48.689.402-.42-.018-.4.053-.439-.32a10 10 0 0 0-.72-1.698c.138-1.001.276-2.002.458-3.381 15.344-.458 30.645-.483 45.944-.655 4.136-.046 4.18 2.248 3.446 5.652"/><path fill="#f3f5ec" d="M184.559 46.518c-15.6.425-31.13.437-47.17.157-.68-.534-.911-.657-1.206-.66-.075-1.061-.15-2.122.307-3.612 16.443-.425 32.355-.42 48.267-.417-.043 1.373-.086 2.746-.198 4.532"/><path fill="#1f2544" d="m104.998 114.916 1.392-5.116-3.045-.975c-.642-3.959-1.161-7.16-1.234-10.395 4.77-.95 9.095-1.867 13.205-2.738-.475-3.498-.759-5.594-.792-7.748.657-.358 1.063-.658 1.47-.957 1.922-1.736 3.388-1.783 4.386.98 1.118 3.094 2.4 6.128 3.623 9.925.01 1.22.008 1.702.006 2.184-2.125.045-4.25.12-6.374.129-7.555.028-7.555.02-7.582 8.634.005 1.344.028 1.858.003 2.709-.247.985-.447 1.633-.973 2.279-1.58.36-2.832.725-4.085 1.089"/><path fill="#202646" d="M235.015 229.111s-.004.439-.008.658c-2.199.713-4.394 1.206-6.854 1.758l-2.902-5.784-5.965 2.115c-2.167-4.258-4.358-8.563-6.912-12.943-.214-.312-.031-.52.734-.822 2.416-.624 4.282-1.123 6.545-1.728 1.426 2.921 2.672 5.774 4.202 8.464.648 1.14 2.289 2.942 2.81 2.738 5.62-2.202 6.826 1.84 8.35 5.544"/><path fill="#1e2646" d="M282.01 162c.456.003.91.007 1.706.015.265 1.64-.309 3.452.201 4.876 1.839 5.137 4.042 10.144 6.226 15.488-2.03 1.039-3.91 2-6.206 3.286-.592.326-.77.328-.945-.063-1.201-4.16-1.831-8.252-3.74-11.62-2.953-5.209-3.582-9.218 2.759-11.982"/><path fill="#2e6bad" d="M347.817 108.546c-.643-1.284-1.707-3.028-1.732-4.786-.155-10.952-.18-21.908-.02-32.86.053-3.644-1.2-4.997-4.895-4.949-7.451.098-14.907-.185-22.707-.505 6.2-.535 12.743-1.1 19.291-1.166 11.588-.117 10.122-.955 10.191 10.007.071 11.264-.039 22.529-.128 34.26"/><path fill="#2c76b8" d="M299.371 39.346c1.418-.543 3.29-1.28 5.167-1.297 11.782-.106 23.566-.034 35.35-.06 2.788-.007 5.824.472 6.154-3.832.346-4.512-2.778-4.057-6.006-4.358 2.134-.154 6.503-1.07 6.965-.109 1.169 2.434.758 5.723.542 8.637-.04.528-2.16 1.287-3.322 1.29a3001 3001 0 0 1-44.85-.271"/><path fill="#1f5ca4" d="M386 39c-1.563-.273-3.126-.546-4.987-1.095-.298-.276-.257-.614.192-.895.908-2.579 1.367-4.877 1.825-7.176 9.351-.052 18.703-.104 28.515.36.46 2.279.457 4.043.118 5.75-2.113-.018-3.888.02-6.063.056-1.467 0-2.533 0-3.71-.343-4.465-5.018-10.275-2.307-15.365-3.238-.292-.053-1.227 1.447-1.233 2.23-.01 1.448.446 2.9.708 4.351"/><path fill="#1f284b" d="M124.473 100.118c-.462-.524-.46-1.006-.447-1.85 1.459-.344 3.045.064 4.331-.385 3.518-1.23 6.91-2.82 10.575-4.548a160 160 0 0 1 16.528-.056c-4.998 2.511-10.24 4.733-15.48 6.955a2135 2135 0 0 1-15.507-.116"/><path fill="#1f2646" d="m282.989 185.995.801-.01c2.033 3.992 3.8 7.99 5.79 12.494-1.876.894-3.43 1.635-5.587 2.3-1.06-.312-1.516-.546-2.046-1.142a992 992 0 0 0-4.197-11.874z"/><path fill="#1f2848" d="M14.49 197.835c2.591 3.81 4.814 7.718 7.057 11.66-2.691 1.659-4.497 2.772-6.473 4.197-.599.31-1.028.309-1.78.303-.184-1.475.401-3.081.004-4.388-.95-3.13-2.363-6.121-3.795-9.68 1.727-.745 3.172-1.37 4.986-2.092"/><path fill="#c0cdd8" d="M184.702 41.696c-15.857.286-31.769.282-48.141.312 1.215-.712 2.884-2.085 4.57-2.105 13.877-.16 27.758-.07 42.066-.02.768.531 1.11 1.027 1.505 1.813"/><path fill="#2c76b8" d="M198.746 47.518c-4.372 1.509-5.09 4.918-4.871 9.445.366 7.61.176 15.252.049 22.877-.032 1.902-.718 3.794-1.399 5.928-.58-10.412-.919-21.062-1.132-31.714-.12-6.036.758-6.787 7.353-6.536"/><path fill="#1f2646" d="M30.913 167.31c.334-.316.514-.306.964-.274 2.902 7.697-2.457 9.66-8.33 11.74-.375.215-.494.224-.494.224l-2.68-6.685c3.59-1.617 6.988-3.147 10.54-5.005"/><path fill="#1e2545" d="M110.856 82.634c-2.34-.063-12.5-10.532-12.84-13.279 2.254-.254 4.504-.105 7.404.086 1.624 3.838 3.525 8.333 5.436 13.193"/><path fill="#2c76b8" d="M275.285 49.776c-4.21-1.74-7.064-7.315-5.357-10.565 1.88-3.579 1.196-6.294-1.815-9.141 3.003-1.782 4.524-.555 4.65 2.712.09 2.293.04 4.592.05 6.889.029 7.59.028 7.59 7.849 7.6-1.39.766-3.24 1.525-5.377 2.505"/><path fill="#2060a8" d="M371.509 55.876c-.049.646-.58 1.811-1.04 1.784-5.861-.354-5.435 3.53-5.533 7.519-.137 5.507-.747 11.001-1.508 16.66-.377-5.927-.434-12.012-.418-18.096.02-8.024.045-8.024 8.499-7.867"/><path fill="#1f2848" d="m282.02 200 1.599.816c.656 2.305 1.083 4.495 1.581 7.045-1.643 1.032-3.499 2.198-5.492 3.718-.522.11-.907-.135-1.502-.883-1.406-4.37-1.36-7.736 3.223-9.409.312-.113.4-.844.591-1.288"/><path fill="#1e5ca4" d="M406 36c1.775-.037 3.55-.074 5.827.214 1.192.782 1.882 1.24 2.572 1.7 0 0 .304-.074.574.324 1.856.854 3.441 1.309 5.027 1.763-3.105.705-6.21 1.409-9.928 1.826-1.66-.728-2.707-1.169-3.92-1.604-.402-.126-.462-.313-.302-1.018.078-1.374.114-2.29.15-3.205"/><path fill="#1f284b" d="M20.181 187.083c0 .64-.25 1.433.036 1.896 3.124 5.062.348 6.856-4.513 7.838-.994-1.928-1.658-3.961-2.37-6.14 1.877-1.012 3.743-2.019 5.992-3.336.384-.31.855-.258.855-.258"/><path fill="#2e6bad" d="M356.534 83.92c.415 7.019.517 14.163.393 21.303-.026 1.487-.886 2.96-1.754 4.532-.33-6.825-.341-13.744-.156-20.657.045-1.693.732-3.369 1.517-5.177"/><path fill="#2c76b8" d="M227.137 29.43c-3.525.39-7.335.724-11.123.556-3.835-.171-6.586.408-6.233 5.148.038.512-.639 1.077-1.322 1.773-.867-8.577-.866-8.655 7.605-8.534 3.603.051 7.2.508 11.073 1.056m63.387.581c.657 4.372 1.5 8.843-5.292 9.833-1.425.208-2.254 4.503-3.675 7.088-.367-1.97-.584-4.13-.392-6.252.087-.974 1.053-2.72 1.49-2.68 5.907.532 6.557-3.775 7.869-7.99"/><path fill="#c6d5dd" d="M338.777 75.707c-7.786.293-15.503.166-23.71-.095-.317-.416-.14-.695.334-1.315.292-.344.646-.658.646-.658 6.033.049 12.069 0 18.095.214 1.584.057 3.138.933 4.635 1.854"/><path fill="#1f2848" d="M20.544 187.061c-.363.022-.834-.03-1.07-.048-.993-1.743-1.75-3.47-2.572-5.344 2.01-.93 3.727-1.726 5.798-2.595.353-.074.472-.083.519-.09 1.252 3.264 3.835 6.936-2.675 8.077M191.599 86.995c.351 1.992.332 4.003-.042 6.545-3.22 2.22-5.02.75-6.537-1.557-.024-.762-.049-1.523-.034-2.664 2.107-1.021 4.174-1.663 6.613-2.324"/><path fill="#1e2545" d="M45.595 62.909c2.005 3.867-.82 5.409-3.53 6.56-.52.223-2.042-1.904-3.125-3.342 2.083-1.326 4.189-2.256 6.655-3.218M27.723 77.37c4.448 4.222 4.345 4.847-1.394 8.532-.382-1.496-.644-3.12-.414-4.67.194-1.307.959-2.53 1.808-3.862"/><path fill="#2c76b8" d="M205.655 37.952c-4.36 1.217-4.337 5.413-5.778 9.003-.365-1.254-.422-2.723-.585-4.18-.535-4.775 1.59-6.297 6.363-4.823"/><path fill="#c6d5dd" d="M318.249 82.083c3.492-.497 7.023-.906 10.543-.828.88.019 1.725 1.604 2.38 2.657-4.118-.19-8.028-.569-12.36-.988-.458-.218-.493-.395-.563-.841"/><path fill="#1e2646" d="M17.03 236.357c1.56.164 3.142.685 4.725 1.206-.63 1.345-1.26 2.69-2.186 4.211-1.035-1.569-1.775-3.314-2.538-5.417m3.826 9.015c6.649-.528 1.858 4.487 3.159 7.173-1.032-1.993-2.068-4.398-3.16-7.173"/><path fill="#2e6bad" d="M316.038 73.22c.01.419-.345.733-.554.842-.213-2.858-.217-5.825.171-8.789.387 2.512.38 5.02.383 7.947"/><path fill="#1d5ba4" d="M420.294 40.142c-1.88-.595-3.465-1.05-5.175-1.848 1.644-.388 3.478-.733 5.152-.36.927.205 1.586 1.613 2.242 2.827-.724.072-1.324-.203-2.219-.619"/><path fill="#2060a8" d="M372.618 50.412c3.11 1.598 3.402 3.553-.361 5.482-.15-1.653.05-3.36.361-5.482M382.73 29.73c-.158 2.403-.617 4.701-1.434 7.137.14-2.322.637-4.781 1.434-7.137m31.505 7.784c-.526-.06-1.216-.518-2.07-1.245-.163-2.032-.16-3.796-.154-6.005.69 1.987 1.375 4.42 2.224 7.25"/><path fill="#2e6bad" d="M354.425 109.836c-1.426 3.432-3.715 2.696-6.223.266 1.882-.32 3.844-.268 6.223-.266"/><path fill="#1e2545" d="M78.678 56.2c-.838.734-2 1.474-3.421 2.004.86-.805 1.979-1.4 3.421-2.003"/><path fill="#2c76b8" d="M296.2 29.452c-1.32.34-2.866.432-4.87.47 1.241-.275 2.944-.496 4.87-.47"/><path fill="#1e2646" d="M24.044 253.312c.483.504.978 1.333 1.31 2.403-.541-.532-.919-1.305-1.31-2.403M9.732 215.148c.14.768.009 1.529-.278 2.535-.101-.683-.046-1.613.278-2.535"/><path fill="#1e2545" d="M84.86 55.675c-.571.003-1.136-.3-1.997-.732a4.84 4.84 0 0 1 1.997.732"/><path fill="#1e2646" d="M15.8 233.214c.346.462.755 1.27 1.183 2.426-.36-.46-.741-1.27-1.184-2.426"/><path fill="#1e2545" d="M115.608 87.012c-.02.274-.427.574-1.393.792-.774-.144-.99-.206-1.206-.269l-.049-.189c.743-.145 1.503-.226 2.648-.334"/><path fill="#1e2646" d="M29.037 265.297c.284.154.572.598.91 1.307-.268-.163-.588-.59-.91-1.307M11.132 222.31c.279.188.535.662.833 1.406-.257-.193-.556-.656-.833-1.405m1.824 4.053q.411.381.896 1.795c-.276-.254-.571-.852-.896-1.795"/><path fill="#1e2545" d="M19.162 101.287c.253-.03.424.243.582.797-.167-.018-.384-.276-.582-.797"/><path fill="#1e2646" d="M14.075 229.257c.27-.088.387.142.286.566-.064.124-.284-.32-.286-.567m-2.047-5.008c.271-.093.397.141.293.581-.136-.025-.206-.177-.293-.581"/><path fill="#2c76b8" d="M207.84 37.222c.083.2-.114.43-.588.699q-.133-.303.588-.699"/><path fill="#2e6bad" d="M430.91 56.727c-.226.091-.456-.115-.775-.56.161-.03.448.137.776.56"/><path fill="#d7e3e7" d="M370.91 90c.278-8.027.557-16.054 1.412-24.452 3.008-1.082 5.442-1.792 7.875-2.502.158-4.937.316-9.875.837-15.202.533-.307.702-.223.882.349.022 3.11.033 5.732.043 8.353.025 6.529.025 6.529 6.732 6.375.152.004.454.042.454.042l-8.493 3.977c0 6.417-.129 13.685.055 20.945.09 3.574-.521 5.863-4.829 5.19-3.052-.476-3.526 1.492-3.52 3.965.019 6.624-.063 13.248-.187 20.313-.567.414-1.051.386-1.864-.167-.306-6.497-.391-12.472-.228-18.44.125-4.616-1.77-5.705-5.784-3.815a19 19 0 0 0-.822-.126c-.274-.372-.272-.712-.026-1.366a26 26 0 0 1 1.537-1.475 81 81 0 0 0 3.958 0c1.125-.697 1.546-1.33 1.968-1.965"/><path fill="#e1e9e8" d="M423.145 68.998c-.07 1.074-.14 2.147-.207 4.058.08 3.869.157 6.901.137 10.381-.103 3.505-.11 6.562-.129 9.58-.01-.038.048-.092.048-.092-2.342.003-4.684.007-7.506-.264a8.4 8.4 0 0 1-1.425-1.682c.08-8.383.162-16.766.087-25.579-.156-.43-.206-.369.17-.174 3.118.435 5.861.675 8.58 1.276.066 1.072.156 1.784.245 2.496"/><path fill="#ebf0ec" d="M423.076 117.83c-.028-7.986-.055-15.972-.082-24.432 0-.473-.058-.419.395-.34 2.812.07 5.171.063 7.531.055 0 0 .04-.093.098.395.113 7.265.094 14.044.265 20.819.07 2.775-.977 3.999-3.755 3.752-1.48-.132-2.968-.169-4.452-.249"/><path fill="#e2eeed" d="M412.823 117.973c-6.268-.037-12.548-.32-18.802-.032-4.71.218-6.51-1.35-4.759-6.346.862-.443 1.297-.534 1.733-.625 4.359.005 8.718.01 13.964.03 9.632.141 9.95.46 7.864 6.973"/><path fill="#dee5e4" d="M405.807 39.664c-.117.246-.057.433.31.982.198 2.413.269 4.407.36 6.372.02-.03.086-.058-.26-.107-.99.196-1.634.441-2.278.687-3.994-.07-7.987-.14-12.686-.289-1.368-.834-2.03-1.588-2.611-2.764-.399-4.143 1.352-5.313 4.904-5.076 4.074.272 8.173.148 12.261.195"/><path fill="#e1e8e6" d="M406.563 46.96s-.066.028.358.206c1.975.11 3.526.043 5.076-.023.585.237 1.17.474 2.007 1.243.148 5.903.044 11.274-.06 16.645l.075-.09c-2.304.037-4.634.105-7.373-.388-.3-6.238-.192-11.915-.083-17.593"/><path fill="#2e6bad" d="M388.56 44.967a57 57 0 0 0 2.244 2.448c-.15 5.202-.557 10.218-1.311 15.39-.348.158-.65.12-.721-.342-.055-3.123-.026-5.784-.025-8.444.003-6.884-.002-6.884-6.842-6.315-.17-.083-.338-.167-.784-.305.875-.832 2.027-1.609 3.885-2.39a950 950 0 0 0 3.553-.042m34.611 73.243c1.39-.3 2.878-.263 4.358-.131 2.778.247 3.825-.977 3.755-3.752-.17-6.775-.152-13.554-.304-20.786.61.847 1.869 2.126 1.924 3.455.235 5.608.258 11.235.08 16.847-.207 6.476-3.634 8.076-9.813 4.367m-10.542.007c2.282-6.758 1.963-7.076-7.213-7.304 2.443-3.206 6.229-2.703 8.687-.63 1.503 1.267 1.718 5.17 1.054 7.467-.375 1.298-3.7 1.743-5.961 2.32.903-.704 2.071-1.157 3.433-1.853m1.692-52.991c-.272-5.566-.168-10.937-.007-16.773.599 1.462 1.311 3.359 1.645 5.32.56 3.296.88 6.633 2.067 10.112 1.84.154 2.915.15 3.99.146.264.182.508.386.866 1.08.102.654.073.842.043 1.03-2.743-.24-5.486-.48-8.605-.915m-34.103 53.941c.716 12.07 1.857 9.735-11.766 9.707 1.093-.676 2.675-1.833 4.187-1.748 4.496.252 6.925-1.186 6.5-6.05-.048-.546.513-1.144 1.08-1.91"/><path fill="#58a2d3" d="M397.288 87.739c-.224-4.196-.224-8.082-.224-12.354 3.823 2.95 3.782 10.513.224 12.354"/><path fill="#2e6bad" d="M406.217 46.91c.237 5.728.128 11.405.002 17.545-.746-.993-1.99-2.408-2.106-3.911-.309-3.964-.13-7.967-.16-12.45.63-.742 1.274-.987 2.264-1.183m24.619 45.859c-2.276.35-4.635.359-7.437.326-.435-3.097-.427-6.154-.028-9.65.784-.406 1.176-.373 1.568-.34.007 1.68.013 3.36.104 5.762.709 1.193 1.333 1.664 1.958 2.135 1.25.475 2.5.95 3.835 1.768m-44.33 12.39c.043 3.854-.256 7.873-.936 12.053-.057-3.856.269-7.871.936-12.053"/><path fill="#2060a8" d="M411.94 46.797c-1.493.412-3.044.48-5.039.399-.515-2.143-.586-4.137-.62-6.555 1.084.017 2.132.458 3.449 1.13.897 1.713 1.524 3.197 2.21 5.026"/><path fill="#1d5ba4" d="M424.958 82.65c-.41.423-.803.39-1.491.348-.372-3.04-.45-6.073-.424-9.55.712 2.62 1.323 5.683 1.915 9.202"/><path fill="#2e6bad" d="M365.052 120.846c1.774-.53 3.989-1.014 6.625-1.453-1.78.53-3.982 1.015-6.625 1.453"/><path fill="#1d5ba4" d="M422.9 66.502c.054-.55.083-.737.137-1.21.923.252 1.822.788 2.721 1.324-.64.77-1.28 1.54-2.266 2.347-.436-.677-.526-1.389-.591-2.461"/><path fill="#2e6bad" d="M390.892 110.674c-.333.387-.768.478-1.54.577-.332-1.786-.328-3.579-.267-5.815.607 1.351 1.156 3.147 1.807 5.238"/><path fill="#1d5ba4" d="M421.908 63.716c-.968.32-2.042.323-3.52.32.868-.216 2.14-.426 3.52-.32"/><path fill="#2e6bad" d="M395.09 120.36c.666-.349 1.416-.409 2.535-.382-.57.28-1.51.475-2.535.381m18.788-29.191c.5.28.815.749 1.172 1.505-.424-.246-.89-.78-1.172-1.505m-24.984 12.717c-.39.241-.807.208-1.538.186-.001-.44.312-.889.625-1.338.295.292.59.585.913 1.152"/><path fill="#1d5ba4" d="M426.92 90.705q-.817-.258-1.869-1.417.816.258 1.868 1.417"/><path fill="#f6f8f0" d="M364.27 95.404c4.039-2.363 5.934-1.274 5.809 3.341-.163 5.969-.078 11.944-.123 18.35-4.133 1.367-6.118.223-5.813-4.474.36-5.56.097-11.161.128-17.217"/><path fill="#2e6bad" d="M360.988 99.994c.276-.9.553-1.799 1.057-2.86.375 5.552.625 11.268.638 16.984.012 5.357-4.142 3.177-7.277 3.51 6.729-1.825 5.776-7.45 5.595-13.567-.004-1.928-.009-2.998-.013-4.067m-19.038 29.418c1.574-.934 3.175-1.89 4.908-2.337 2.062-.532 4.238-.627 6.772-.984-.678.937-1.62 2.515-2.88 2.832-2.358.593-4.9.455-7.686.906-.632.225-.868.06-1.114-.417"/><path fill="#404364" d="M41.043 164.41c.88-.922 1.835-1.5 3.377-2.306 7.356-2.893 14.17-5.452 20.882-8.256 6.506-2.718 6.46-2.83 5.4-9.916 5.649-2.321 11.525-4.529 17.182-7.202 1.45-.686 3.403-3.27 3.057-4.248-1.118-3.157.311-4.341 2.708-5.279 5.4-2.111 10.82-4.165 16.233-6.243.05 1.497-.346 3.216.264 4.432.712 1.422 2.288 3.414 3.51 3.428 19.137.218 38.279.121 57.419.196 3.158.013 4.204-1.502 3.878-4.312-.599-5.147 1.699-6.691 6.797-4.777 1.034 3.733 3.64 7.25-1.561 9.226-.606.23-1.127 2.138-.844 2.985.87 2.595.335 4.174-1.884 5.962-.984.793-.797 3.494-.453 5.19.096.473 2.76.898 4.04.563 2.71-.709 5.285-1.933 8.204-2.75 3.417 4.626 3.31 5.64-1.43 7.356-4.833 1.747-9.267 3.333-5.061 9.477-5.602 3.164-5.602 3.164-4.444 9.34-6.825 1.048-5.065 4.842-3.05 9.291 2.87 6.338 5.171 12.933 7.715 19.418-4.75 1.967-9.5 3.934-14.761 5.631-1.534-4.71-3.6-6.547-8.167-3.88-2.552 1.49-5.466 2.368-8.234 3.48-7.444 2.987-7.447 2.978-6.866 10.748-4.294 1.731-8.585 3.469-12.883 5.19-7.213 2.89-7.215 2.886-5.458 10.531-4.095 1.733-7.845 3.029-11.837 4.32-.242-.005-.725-.01-.888-.332-2.015-3.372-2.796-6.033 1.388-8.093.827-.407 1.128-2.87.88-4.242-.376-2.09-1.83-4.01-2.08-6.092-.161-1.345.655-3.718 1.65-4.127 3.407-1.399 3.574-3.474 2.368-6.367-1.984-4.759-4.1-9.475-5.812-14.331-1.688-4.79-3.432-8.832-9.583-4.388l-5.723-12.532c-3.368 1.668-5.797 1.152-7.153-2.516-.263-.71-2.209-1.599-2.706-1.297-5.019 3.045-6.242-1.143-8.144-4.582-3.39 1.377-6.516 2.973-9.831 3.841-1.465.384-4.29-.214-4.807-1.228-1.44-2.828-3.2-2.369-5.356-1.563-5.283 1.974-10.565 3.954-15.847 5.932a251 251 0 0 1-2.09-5.677m69.187-13.426-8.7 1.096 3.32 7.747 6.745-.357-4.92 5.453 1.206 1.164 7.262-3.079-3.357-7.692-5.31 1.283-1.145-1.42c1.85-1.428 3.7-2.856 6.385-4.15 6.865-.144 4.475 7.303 9.135 10.575 1.434-4.77-2.069-7.926-2.622-11.343.987-1.477 1.9-2.843 3.535-4.13l5.318 11.972 1.434-.324c0-1.22-.06-2.443.019-3.657.065-.994.297-1.977.454-2.965.786.605 1.623 1.154 2.344 1.828.77.72 1.43 1.556 2.139 2.341.514-1.124 1.028-2.249 2.212-3.157l2.11 1.5c.331-.803.988-1.634.922-2.404-.112-1.318-.676-2.597-1.05-3.893l1.32-.733q1.822 2.4 3.64 4.8l1.457-.238c-.385-1.755-.712-3.525-1.169-5.261-.616-2.344-1.333-4.662-1.143-7.114 3.02-.746 4.415.823 5.24 3.487a27 27 0 0 0 2.145 5.005c.259.47 1.308.716 1.964.664.33-.026.931-1.029.83-1.45-1.04-4.33-2.198-8.633-3.35-13.043-2.126 1.566-7.096.29-8.257 5.83-3.255-2.4-8.134-.45-10.02 3.8-4.062-2.006-6.867-.207-10.064 2.935-3.724.47-7.775.325-10.029 4.93M144 174.488l-16.71 7.1c1.042 3.541 1.845 6.49 5.84 4.87 8.302-3.365 16.608-6.734 24.748-10.463.967-.443 1.292-3.177 1.119-4.763-.065-.593-2.608-1.604-3.665-1.276-3.632 1.127-7.106 2.761-11.331 4.532"/><path fill="#30324f" d="M281.947 199.637c-.119.806-.206 1.537-.518 1.65-4.583 1.673-4.629 5.04-3.428 9.31-14.114 6.32-28.232 12.238-42.669 18.335-1.84-3.524-3.046-7.567-8.667-5.365-.521.204-2.162-1.599-2.81-2.738-1.53-2.69-2.776-5.543-4.202-8.464-2.263.605-4.13 1.104-6.375 1.608-3.284-5.18-.626-7.343 4.13-8.628 3.557-.96 7.008-2.185 4.37-7.18-.334-.636.313-2.247.993-2.885 3.979-3.734 4.028-3.682 3.818-7.97 2.733-4.49 14.187-1.822 8.684-12.267 3.209-1.79 7.02-3.247 4.47-8.107-.238-.452 1.406-2.325 2.51-2.954 2.006-1.142 4.398-1.623 6.359-2.822 1.005-.614 2.255-2.476 1.974-3.27-1.516-4.276.822-5.83 4.232-6.79 4.616-1.3 7.8-3.311 4.51-8.535 5.585-4.614 5.585-4.614 1.944-12.398.147-.486.293-.599.423-.73 1.807-.165 3.614-.33 6.116-.472.86.081 1.025.14 1.19.198 2.654 6.917 5.276 13.847 7.977 20.746 1.504 3.842 3.14 7.633 4.875 11.769-6.183 3.086-5.554 7.095-2.6 12.304 1.908 3.368 2.538 7.46 3.739 11.62-1.54.912-3.078 1.43-5.242 2.161a992 992 0 0 1 4.197 11.874"/><path fill="#2f3250" d="M183.344 195.925c-2.906-6.425-5.207-13.02-8.077-19.358-2.015-4.449-3.775-8.243 3.05-9.29-1.158-6.177-1.158-6.177 4.444-9.341-4.206-6.144.228-7.73 5.06-9.477 4.741-1.715 4.848-2.73 1.565-7.531.04-.596.266-.782.895-.99 3.567-1.328 6.864-2.403 9.907-3.97 1.109-.572 2.56-2.728 2.242-3.461-2.682-6.179 1.511-6.172 5.544-6.123 1.376 1.048 2.694 1.731 4.012 2.414 1.396.084 2.793.168 4.605.313 2.627 6.103-.97 8.312-5.88 9.867-2.518.797-4.854 2.159-7.355 3.03-2.673.933-3.87 2.423-2.803 5.26.172.456.39 1.32.24 1.41-5.213 3.092-2.077 12.296-10.011 13.489-3.387.51-5.435 2.298-3.643 6.292.314.7-.625 2.72-1.414 3.028-4.012 1.56-3.583 3.786-1.867 6.949 1.49 2.746 2.208 5.9 3.46 8.79 2.522 5.82 2.445 6.111-3.974 8.699m-38.053 15.908c-.918-7.64-.915-7.63 6.529-10.618 2.768-1.11 5.682-1.988 8.234-3.479 4.566-2.667 6.633-.83 7.8 3.935-7.31 3.56-14.768 6.795-22.563 10.162"/><path fill="#e7d34a" d="m228.926 165.107-10.09 6.338-7.467-17.776c3.92-1.115 7.549-2.146 11.425-2.523-1.64 2.33-3.53 4.008-5.988 6.19 1.08.37 2.167 1.108 3.168 1.006 1.714-.175 3.374-.875 5.066-1.115.01.24.118.71.102 1.032-.92 1.083-1.892 1.78-2.711 2.624-.88.907-1.616 1.954-2.414 2.94 1.347.242 2.689.524 4.043.716 1.616.23 3.244.382 4.866.568"/><path fill="#e5d14b" d="M210.508 187c-1.046-3.642-2.846-3.641-5.274-1.64-.56 2.009 3.83 5.575-2.14 6.168l-5.114-12.153 5.836-1.978.426-3.012 5.64 1.208c1.162 2.713 2.667 5.856 3.855 9.115 1.035 2.839.551 3.17-3.229 2.292"/><path fill="#413934" d="M225.03 156.987c-1.682.48-3.342 1.18-5.056 1.355-1.001.102-2.087-.635-3.168-1.006 2.459-2.182 4.348-3.86 6.231-5.918 5.89 1.996 8.705 8.158 6 13.351-1.733.152-3.36 0-4.977-.23-1.354-.192-2.696-.474-4.043-.717.798-.985 1.534-2.032 2.414-2.939.819-.844 1.79-1.54 2.907-2.642.04-.645-.134-.95-.307-1.254"/><path fill="#2f3250" d="M115.018 232.01c3.75-1.296 7.5-2.592 11.615-3.949 1.039 1.69 1.713 3.442 2.397 5.566-4.064 2.036-8.137 3.7-12.627 4.998-.74-2.448-1.062-4.532-1.385-6.616"/><path fill="#e0cd4d" d="m239.737 143.105-4.702.867c.02-3.109-5.481-5.214-.53-9.066.9.05 1.118.079 1.539.403 1.786 2.428 3.37 4.561 4.772 6.91-.48.44-.78.662-1.079.886"/><path fill="#1e59a0" d="M220.477 128.848c-.034-.55.398-1.446.811-1.437 6.445.13 12.887.377 19.168 1.029-1.38.524-2.598.617-4.253.656a25 25 0 0 0-2.192.045c-4.36-.073-8.718-.145-13.534-.293"/><path fill="#e0cd4d" d="M249.113 129.952c.633 1.692 1.643 3.356 1.766 5.085.082 1.144-1.108 2.378-1.99 3.782-.263.21-.323.212-.576-.067a191 191 0 0 1-4.281-8.198c.013-.091 0-.461 0-.461s-.042-.495.308-.407c.956.125 1.562.16 2.385.245.815.08 1.414.113 2.11.124.097-.022.278-.103.278-.103"/><path fill="#e5d14b" d="M248.566 139.03s.06 0 .037-.02c.77 2.462.612 4.682-2.505 4.994-2.06.207-4.362 4.42-6.332-.527.27-.596.57-.819 1.336-1.477 2.8-1.279 5.132-2.124 7.464-2.97"/><path fill="#d8c752" d="M243.806 129.708c.226.385.239.755-.102 1.02-2.848 1.606-5.356 2.946-7.863 4.286-.218-.03-.436-.058-.978-.148-.338-1.255-.352-2.45-.14-4.097.79-.841 1.354-1.23 1.918-1.619a74 74 0 0 0 4.006-.385c1.213.115 2.074.337 3.16.943"/><path fill="#1e59a0" d="M246.508 129.883c-.606-.036-1.212-.072-2.13-.442 4.306-4.228 9.297-2.6 14.433-.987-2.536.43-5.241.525-8.714.66-.977.074-1.186.108-1.693.155-.83.214-1.363.414-1.896.614"/><path fill="#2f3250" d="M236.203 129.096c-.126.443-.69.832-1.57 1.377-.377-.09-.437-.337-.56-.957.522-.408 1.107-.44 2.13-.42"/><path fill="#1f2545" d="M248.702 129.256c.21-.034.418-.068.944-.1.173.22-.003.411-.371.685-.162.11-.343.192-.437.008s-.136-.593-.136-.593m12.813.137c.05.175-.096.288-.385.438-.13.055-.146-.178-.151-.293s.357-.188.536-.145"/><path fill="#53c8f8" d="M250.02 100.075c-.422-.044-.844-.087-1.697-.366-.628-.516-.898-.68-1.274-1.106-.322-1.756-.609-3.129-.924-4.641-2.389.904-4.224 1.598-6.31 2.208-.419-.14-.586-.196-.8-.554a48 48 0 0 0-.858-2.566c7.498-.012 14.997-.126 22.492.014 2.96.056 4.228-.856 4.153-3.959-.156-6.494-.182-12.998-.015-19.492.092-3.571-1.46-4.62-4.807-4.543-7.66.174-15.333-.07-22.99.187-4.04.135-5.516-1.448-4.48-5.767 12.617-.522 24.752-.602 36.887-.556 1.603.006 3.205.65 4.807.999.115 12.57.23 25.14.037 38.354-6.27.985-12.23 1.326-18.331 1.368-2.057-.06-3.973.18-5.89.42"/><path fill="#e4ebe9" d="M298.556 47.04s-.02-.072-.043-.1c-.024.722-.023 1.475-.09 2.918.045 2.88.157 5.068.269 7.256-.066 2.642-.131 5.283-.262 8.73.043 9.962.152 19.117.26 28.272-.07 2.31-.14 4.622-.272 7.668.052 2.6.165 4.464.279 6.328.07.912.142 1.823.32 3.187.384 2.102.661 3.75.583 5.771-.767.223-1.177.075-1.588-.072a76 76 0 0 0 .048-4.009c-2.73-1.14-5.4-1.488-8.069-1.837-.24-1.105-.69-2.21-.691-3.316-.04-19.352-.028-38.704-.005-58.056 0-.641.236-1.282 1.014-2.206 3.184-.367 5.716-.45 8.247-.535"/><path fill="#2e6bad" d="M297.82 117.258c.603-.113 1.013.035 1.753.198 12.267.097 24.207.163 36.145.27 4.235.038 2.526-3.415 3.5-5.698 2.566 4.073.8 7.83-3.928 7.896-11.42.156-22.846.123-34.266-.052-1.144-.018-2.265-1.534-3.204-2.614"/><path fill="#51c3f4" d="M281.638 117.179c-2.938 1.534-5.893 2.67-9.214 3.766-.367-.04-.281-.48-.31-.957-.078-.64-.128-.804-.178-.967-.003-1.076-.006-2.153-.112-3.622-.004-1.459.095-2.526.393-4.196 1.05-1.116 1.903-1.63 2.756-2.142 6.797.752 6.797.752 6.665 8.118"/><path fill="#2c76b8" d="M274.386 59.69c-1.784-.106-3.386-.75-4.99-.756-12.134-.046-24.269.034-36.864.131.632-.657 1.719-1.982 2.818-1.993 12.896-.13 25.793-.062 39.156-.03.33.812.196 1.608-.12 2.648"/><path fill="#1d5ba4" d="M388.642 44.545c-1.032.435-1.98.448-3.286.458-.068-1.753.219-3.504.87-5.82 2.869-4.209 6.478-4.615 10.436-4.002 1.779.276 3.559.546 5.338.819h3.6c.364.916.328 1.831.25 3.205-4.13.412-8.23.536-12.304.264-3.552-.237-5.303.933-4.904 5.076"/><path fill="#2c76b8" d="M274.978 108.593c-.858.98-1.71 1.494-2.802 2.208-.24.2-.74.22-.915-.127.139-1.45.452-2.555.766-3.66 1.84-3.298.89-4.908-2.903-5.04-4.193-.144-8.38-.443-12.879-1.091-.27-.587-.233-.758-.195-.929 5.96-.34 11.921-.682 18.23-1.231.468 2.995.586 6.198.698 9.87"/><path fill="#2e6bad" d="M339.8 106.865c-.446-8.226-.569-16.75-.493-25.643.683.806 1.602 1.99 1.58 3.157a376 376 0 0 1-1.086 22.486m-49.653 4.618a29 29 0 0 1 7.79 1.12c-2.585.008-5.11-.39-7.79-1.12m89.603-48.448c-1.987.72-4.42 1.43-7.29 2.14 1.99-.718 4.417-1.434 7.29-2.14"/><path fill="#3871af" d="M298.517 46.666c-2.492.457-5.024.54-8.018.551 1.847-.799 4.157-1.524 6.882-2.25.643.442.87.884 1.136 1.7"/><path fill="#2060a8" d="M360.678 100.102c.314.961.319 2.03.32 3.501-.212-.863-.42-2.128-.32-3.501"/><path fill="#2e6bad" d="M364.777 91.797c-.224.554-.654.941-1.375 1.39.196-.477.682-1.017 1.375-1.39"/><path fill="#2060a8" d="M370.639 90.065c-.15.568-.572 1.202-1.315 1.753.134-.617.59-1.152 1.315-1.753"/><path fill="#e5ebe8" d="M109.41 113.83c.2-.649.399-1.297 1.031-2.285 1.188-.49 1.943-.642 2.698-.793l1.002.48c11.923.406 23.27.577 34.617.625 1.745.008 3.494-.55 5.24-.847 3.7-.032 7.4-.064 11.659.185.75.536.998.709 1.304.8v5.985c-16.733 0-33.289 0-50.731-.083-3.898.128-6.742.09-6.82-4.067"/><path fill="#b8c9d7" d="M135.94 46.138c.538-.12.77.003.988.441-.24 8.605-.632 17.014-.627 25.422 0 .67 2.738 1.892 4.218 1.916 7.47.123 14.947-.182 22.416-.048 1.451.027 4.194 1.539 4.12 2.02-1.01 6.503 3.766 6.49 7.535 7.698-2.628.363-4.96.367-7.293.37-8.615-.259-17.23-.723-25.843-.686-3.98.017-6.379-.518-6.187-5.297.038-.963-2.543-2.917-3.88-2.886-4.328.101-5.447-1.808-5.285-5.762.24-5.817-.023-11.654.118-17.478.036-1.484.787-2.952 1.468-3.853.236 7.401.043 14.237.337 21.051.059 1.36 1.975 2.64 3.035 3.958 1.042-1.342 2.938-2.657 2.982-4.031.225-7.147-.022-14.309-.105-21.466.587-.415 1.173-.831 2.003-1.37m3.036 34.887c7.637.042 15.277.208 22.907.015 1.377-.035 2.715-1.543 4.071-2.371-1.241-.944-2.458-2.664-3.728-2.705-7.299-.235-14.612-.166-21.915-.002-3.601.08-4.324 1.882-1.335 5.063"/><path fill="#dbe3e4" d="M167.209 84.422c2.42-.468 4.753-.472 7.532-.485.575 7.762.744 15.532.819 23.303.04 4.162-3.009 3.542-6.144 3.134-1.047-.698-1.6-1.062-2.152-1.425-.048-8.021-.096-16.042-.055-24.527"/><path fill="#f2f6ee" d="M133.52 47.449c.5 7.215.747 14.377.522 21.524-.044 1.374-1.94 2.689-2.982 4.031-1.06-1.317-2.976-2.598-3.035-3.958-.294-6.814-.101-13.65-.022-20.972 1.739-.558 3.42-.621 5.517-.625"/><path fill="#40547a" d="M140.343 100.416c4.878-2.404 10.119-4.626 15.596-7.119 2.59-.252 4.371.599 3.31 3.235-.666 1.656-2.12 4.127-3.37 4.22-5.025.375-10.11-.034-15.536-.336"/><path fill="#b8c9d7" d="M153.63 110.843c-1.378.464-3.127 1.022-4.872 1.014a1359 1359 0 0 1-34.39-.563 574 574 0 0 1 23.458-.787c5.143-.068 10.29.104 15.804.336m13.47-1.634c.717.103 1.27.467 1.898 1.077-.45.613-.977.98-1.77 1.529-.573.089-.821-.084-1.115-.546.206-.738.514-1.27.987-2.06"/><path fill="#1f284b" d="M112.966 110.485c-.582.418-1.337.57-2.477.723-.408-.511-.43-1.025-.449-1.926.92.054 1.837.495 2.926 1.203"/><path fill="#e4ebe9" d="M208.039 110.924c-.088-20.68-.175-41.362.122-62.665 3.212-.648 6.04-.673 8.857-.734-.01-.035-.073-.071-.073-.071.098 7.481.313 14.964.24 22.444-.031 3.257 1.172 4.376 4.397 4.312 10.146-.2 20.297-.109 30.444-.283 3.085-.053 4.575.838 4.579 4.204.003 3.277-.87 4.88-4.503 4.833-10.147-.13-20.299.13-30.445-.02-3.517-.053-4.69 1.18-4.579 4.631.219 6.814.115 13.639.13 21.244-.097 1.265-.179 1.745-.236 2.205.025-.022.069-.07-.383-.076-3.15-.011-5.85-.018-8.55-.024"/><path fill="#dae1e2" d="M217.413 47.424c-.468.03-.405.066-.298-.337.348-2.687.588-4.971.829-7.256 13.72-.01 27.44-.022 41.607-.184 1.917.19 3.387.534 5.122 1.374.333.652.402.808.47.964.336 3.976-1.292 5.432-5.443 5.374-13.937-.193-27.879-.006-42.287.065"/><path fill="#e3eae8" d="M265.034 116.996s-.213.253-.68.467c-13.692.266-26.917.312-40.142.37-6.835.031-6.835.041-7.171-6.88 0 0-.044.049.403.047 16.103.092 31.76.187 47.416.282.047 1.316.094 2.632.124 4.578.006.798.028.967.05 1.136"/><path fill="#3871af" d="M264.779 110.888c-15.575.3-31.232.204-47.36.133-.39-.457-.308-.937-.084-1.755 14.083-.31 28.025-.337 41.964-.193 1.804.02 3.599.926 5.48 1.815"/><path fill="#1f284b" d="M237.726 93.032c.701.773.971 1.528 1.07 2.858-2.326 1.364-4.481 2.154-6.637 2.944-.8-4.157.35-6.592 5.567-5.802"/><path fill="#1f2848" d="m240.065 96.255 6.06-2.293c.315 1.512.602 2.885.612 4.71a13.3 13.3 0 0 1-1.7 1.627c-1.07-.027-2.142-.054-3.746-.434-.763-1.439-.995-2.525-1.226-3.61"/><path fill="#2e4873" d="M239.814 96.17c.482 1.17.714 2.256 1.077 3.658-2.77.13-5.67-.057-8.652-.619 2.076-1.165 4.23-1.955 6.604-3.018.386-.217.553-.161.971-.02m16.096 3.484c.102.47.064.641.008 1.074-1.783.114-3.546-.035-5.604-.418 1.623-.476 3.54-.716 5.596-.656"/><path fill="#1e5aa3" d="M271.73 106.896c-.017 1.223-.33 2.328-.719 3.77-.659-.78-1.244-1.9-1.829-3.02.75-.29 1.5-.579 2.548-.75"/><path fill="#2e4873" d="M245.28 100.458c.232-.55.707-.943 1.492-1.403.653-.025.923.138 1.233.635-.753.453-1.618.69-2.725.768"/><path fill="#3871af" d="M265.25 41.87c-.175-.04-.244-.197-.286-.607.364-.105.485.143.286.607m.037 75.135c-.275-.178-.297-.347-.23-.755.352-.083.571.12.868.561-.046.195-.215.199-.638.194"/><path fill="#515876" d="M109.083 113.827c.405 4.16 3.25 4.198 6.693 4.109-1.569.877-3.57 1.633-5.732 2.706-5.575 2.396-10.996 4.45-16.395 6.561-2.397.938-3.826 2.122-2.708 5.279.346.979-1.607 3.562-3.057 4.248-5.657 2.673-11.533 4.88-17.183 7.202 1.06 7.087 1.107 7.198-5.4 9.916-6.71 2.804-13.525 5.363-20.646 8.019-1.032-1.816-1.711-3.623-2.516-5.694-.125-.265-.234-.176.108-.304 5.086-2.086 9.884-3.925 14.535-6.08 1.261-.585 3.17-2.583 2.93-3.155-2.157-5.138 1.732-5.937 4.868-7.26 5.404-2.28 10.843-4.476 16.931-6.98-1.63-2.424-2.699-4.011-3.706-5.831.06-.233.346-.62.346-.62 8.74-3.557 17.482-7.114 26.535-10.85a39 39 0 0 1 4.397-1.266"/><path fill="#1f2141" d="M189.91 139.997c-.258.149-.484.335-.813.735-2.764 1.188-5.339 2.412-8.049 3.121-1.28.335-3.944-.09-4.04-.564-.344-1.695-.531-4.396.453-5.19 2.219-1.787 2.754-3.366 1.884-5.961-.283-.847.238-2.755.844-2.985 5.2-1.975 2.595-5.493 1.904-9.032.866-.76 1.745-1.13 3.192-1.776 4.22-1.97 10.491-.99 8.703-8.242 4.07-.6 6.162.962 6.054 5.27-.02.8.808 1.62 1.485 2.883-.85 1.738-3.14 3.666-2.847 4.215 3.321 6.22-1.645 6.806-5.32 8.4-6.102 2.647-6.162 2.872-3.45 9.126"/><path fill="#3d4367" d="M193.743 109.796c2.033 7.559-4.238 6.578-8.264 8.326-.425-8.364-.477-16.782-.495-25.67 1.552 1.839 3.352 3.307 6.55 1.517.382 3.462.29 7.037.55 10.585.123 1.67.922 3.292 1.66 5.242"/><path fill="#3b4061" d="M190.281 139.939c-3.083-6.196-3.023-6.42 3.08-9.068 3.674-1.594 8.64-2.18 5.319-8.4-.294-.549 1.997-2.477 3.194-4.072 2.04.111 3.971.53 6.045 1.707.093 2.478.045 4.196-.003 5.913-3.975.316-8.168.31-5.486 6.488.318.733-1.133 2.89-2.242 3.46-3.043 1.568-6.34 2.643-9.907 3.972"/><path fill="#3871af" d="M216.59 110.948c.787 6.926.787 6.916 7.622 6.886 13.225-.059 26.45-.105 40.128-.206-.932.743-2.307 2.206-3.702 2.225-13.26.18-26.523.161-39.784.057-1.533-.012-4.254-.663-4.396-1.405-.9-4.704-4.625-5.6-8.296-7.23 2.577-.345 5.276-.338 8.427-.327m1.094-71.276c.02 2.444-.22 4.728-.558 7.45-2.925.464-5.752.49-8.967.665.182-.77.788-2.502 1.312-2.478 3.75.174 5.808-1.349 6.311-5.1.04-.3 1.07-.468 1.902-.537"/><path fill="#1e59a0" d="M207.974 126.384c-.01-2.082.038-3.8.116-5.944 1.24 2.283 2.45 4.994 3.778 8.031-1.2-.356-2.518-1.039-3.894-2.087m61.359 2.707c-.497.014-.661-.045-1.072-.19.774-.69 1.796-1.294 3.148-1.905-.36.669-1.052 1.346-2.076 2.095m2.509-9.95c.144.043.194.207.234.627-.313.07-.42-.184-.234-.627"/><path fill="#58cefc" d="M78.06 125.59c.09.353-.195.74-.603 1.058-7.493 3.303-14.577 6.286-21.822 9.338l2.064 6.057-17.806 7.626 2.012 6.328s.11-.089.075-.151c-2.178.753-4.322 1.57-6.917 2.557L21.71 126.275l5.988-3.251-5.088-12.783 5.04-2.784c1.59-2.52-4.454-6.021 1.55-7.985 6.28-1.872-.147-4.877 1.929-8.111 2.304-1.028 5.795-2.585 9.817-4.353.877-.378.962-.632.786-.975l-1.858-6.322c10.437-4.405 21.006-8.866 32.108-13.546.68-.302.829-.384.976-.465l4.786 5.655c.507-.167 1.645-.541 3.405-1.157 2.328 1.421 4.032 3.083 6.143 5.142L90 74.005c1.246.702 3.139 1.104 3.627 2.157 2.44 5.268 4.511 10.707 6.82 16.35l-5.583 3.123 5.554 13.79-24.487 10.335c.708 1.9 1.373 3.689 2.13 5.83"/><path fill="#3e4261" d="M112.771 87.83c.454-.232.67-.17 1.194.033.592 2.235.876 4.33 1.351 7.829-4.11.871-8.435 1.788-12.986 2.493-1.778-4.325-.243-6.525 3.94-7.515 2.167-.513 4.18-1.677 6.501-2.84"/><path fill="#1e2545" d="M89.98 73.643c-1.135.931-2.29 1.5-2.688 1.697-2.111-2.059-3.815-3.721-5.907-5.366 4.262-3.556 5.8-2.991 8.596 3.669m-49.414 1.221c-.634.314-1.188.378-1.743.441l.507-1.581c.439.296.878.592 1.236 1.14m1.029 11.282c.312.23.227.484-.346.658-.107-.198.039-.382.346-.658m31.235-20.509c-.02.144-.168.226-.57.305-.094-.28.138-.402.57-.305"/><path fill="#3871af" d="M329.781 109.036c-.926.675-2.328 1.877-3.756 1.908-7.708.168-15.423.045-23.591-.104 1.115-.691 2.676-1.708 4.259-1.744 7.53-.17 15.066-.075 23.088-.06M298.98 93.797c-.398-8.836-.507-17.991-.442-27.523.595 1.477 1.394 3.335 1.375 5.184-.076 7.342-.407 14.68-.933 22.34m-.012-36.969c-.388-1.903-.5-4.091-.442-6.608.352 1.888.535 4.106.442 6.608m.001 51.008c-.386-1.589-.5-3.453-.444-5.63.352 1.576.534 3.466.444 5.63"/><path fill="#2f3250" d="M42.875 170.334c5.54-2.224 10.82-4.204 16.104-6.178 2.155-.806 3.915-1.265 5.356 1.563.517 1.014 3.342 1.612 4.807 1.228 3.315-.868 6.44-2.464 9.831-3.84 1.902 3.438 3.125 7.626 8.144 4.581.497-.302 2.443.587 2.706 1.297 1.356 3.668 3.785 4.184 7.153 2.516l5.723 12.532c6.15-4.444 7.895-.402 9.583 4.388 1.712 4.856 3.828 9.572 5.812 14.331 1.206 2.893 1.039 4.968-2.367 6.367-.996.41-1.812 2.782-1.651 4.127.25 2.082 1.704 4.001 2.08 6.092.248 1.372-.053 3.835-.88 4.242-4.184 2.06-3.403 4.72-1.631 8.337-4.375 2.435-5.811 5.139-2.596 9.197l1.364 7.433c-1.183.546-2.757 1.014-3.997 1.931-.904.67-2.17 2.42-1.905 2.853 2.402 3.934-.21 5.691-3.241 7.43 2.6 6.293 5.13 12.41 7.77 18.877-11.633 5.364-23.393 10.349-35.117 15.417-2.445 1.057-3.838.702-5.176-1.843-.66-1.255-2.925-2.539-4.295-2.378-3.452.407-5.065-.775-5.202-4.702 1.755-1.387 3.3-2.148 4.844-2.91l-.317 1.753c2.133 1.153 4.754 3.749 6.32 3.22 8.578-2.901 16.899-6.568 25.468-10.036-1.283-3.875-3.7-7.628 2.228-9.067-1.258-3.134-2.54-5.836-3.424-8.663-1.002-3.203-2.856-3.747-5.686-2.49-3.184 1.414-6.3 3.1-9.625 4.02-1.366.377-4.106-.48-4.656-1.566-1.86-3.68-4.113-3.787-7.256-1.988-1.398.8-2.945 1.34-4.798 2.163-1.313-4.967-4.002-6.654-8.579-3.729l-3.445-6.535c-4.19 2.041-7.1 1.855-8.617-3.367-2.053-7.062-2.376-6.968-9.625-4.975l-9.957-25.119 5.666-3.57-4.65-11.851c3.973-1.533 6.843-3.662 4.161-8.344-.19-.332.32-1.547.699-1.652 5.306-1.478 3.347-5.064 2.127-8.815 1.73-.788 3.304-1.577 4.932-2.232 2.488-1 4.42-1.982 3.338-5.469-.344-1.107 1.42-2.868 2.477-4.576m-7.354 37.85 11.644 28.534 4.64-.977c2.803 1.723 4.624 2.844 6.446 3.96 1.334.818 2.726 1.556 3.988 2.471.907.657 1.897 2.37 2.415 2.21 4.903-1.52 5.545 2.936 7.814 5.793 6.693-2.735 13.26-5.476 19.87-8.105 7.072-2.811 7.09-2.765 5.53-9.805 6.997-5.461 6.997-5.461 5.59-10.902 5.658-1.195 3.923-4.69 2.42-8.305-3.829-9.215-8.113-18.299-11.09-27.788-1.916-6.108-10.02-1.3-11.052-7.57-.036-.224-1.224-.438-1.826-.345-.801.124-1.555.554-2.329.852l-3.569 1.373c-3.533-5.985-3.556-6.041-10.11-3.362-6.92 2.829-13.74 5.915-20.709 8.615-3.186 1.235-4.814 2.656-3.113 6.197.35.73.175 2.525-.188 2.658-4.757 1.75-2.924 5.467-2.5 8.254-1.496 2.195-6.529 1.076-3.871 6.243"/><path fill="#3e4261" d="M33.828 242.188c7.503-2.22 7.826-2.313 9.879 4.749 1.518 5.222 4.427 5.408 8.617 3.367l3.445 6.535c4.577-2.925 7.266-1.238 8.58 3.73 1.852-.825 3.399-1.364 4.797-2.164 3.143-1.799 5.395-1.692 7.256 1.988.55 1.087 3.29 1.943 4.656 1.565 3.325-.92 6.44-2.605 9.625-4.02 2.83-1.256 4.684-.712 5.686 2.491.884 2.827 2.166 5.529 3.424 8.663-5.929 1.44-3.511 5.192-2.228 9.067-8.57 3.468-16.89 7.135-25.469 10.036-1.565.529-4.186-2.067-6.32-3.22l.318-1.752c-1.545.76-3.09 1.522-4.864 2.526-1.404-1.927-2.578-4.097-4.054-6.862-2.222-6.293-2.222-6.293-8.227-3.793-1.043-2.043-2.32-4.004-3.08-6.148-1.588-4.478-3.61-7.673-9.521-3.815-2.562-6.686-4.958-12.941-7.383-19.56 1.518-1.294 3.063-2.225 4.863-3.383"/><path fill="#2f3250" d="M48.984 275.464c5.97-2.87 5.97-2.87 7.952 3.183-6.38 2.886-6.38 2.886-7.952-3.183"/><path fill="#3e4161" d="M111.397 241.074c-3.563-4.018-2.127-6.722 2.41-8.836.244-.244.727-.238.97-.233.564 2.088.886 4.172 1.254 6.652-1.399 1.057-2.843 1.717-4.634 2.417"/><path fill="#1e5ca4" d="M401.89 35.657c-1.67.07-3.45-.2-5.228-.476-3.958-.613-7.567-.207-10.368 3.627-.556-1.259-1.012-2.71-1.002-4.16.006-.782.941-2.282 1.233-2.229 5.09.93 10.9-1.78 15.365 3.238"/><path fill="#f6f8f0" d="M381.916 48.193c6.829-1.058 6.834-1.058 6.83 5.826 0 2.66-.03 5.32-.126 8.439-6.636.617-6.636.617-6.66-5.912-.011-2.621-.022-5.243-.044-8.353"/><path fill="#1e2040" d="M144.346 174.323c3.88-1.606 7.353-3.24 10.985-4.367 1.057-.328 3.6.683 3.665 1.276.173 1.586-.152 4.32-1.12 4.763-8.139 3.729-16.445 7.098-24.747 10.464-3.995 1.62-4.798-1.33-5.84-4.871 5.57-2.367 11.14-4.733 17.057-7.265"/><path fill="#d6e4ec" d="M131.08 143.022c1.128-4.152 6.007-6.103 9.568-3.869.306-.166.259-.203.259-.203.673 2.33 1.39 4.647 2.006 6.99.457 1.737.784 3.507 1.169 5.262l-1.456.238-3.64-4.8-1.32.733c.373 1.296.937 2.575 1.05 3.893.065.77-.592 1.601-.924 2.405-.703-.5-1.406-1-2.43-1.585-.323-.083-.324-.027-.231-.386-.33-.823-.753-1.287-1.15-1.727.024.025.033.094.258-.222-.268-1.15-.762-1.986-1.232-2.793.025.028.04.101.098-.252-.343-.823-.744-1.292-1.119-1.738.028.024.046.093.176-.266-.317-.825-.765-1.29-1.175-1.743a.4.4 0 0 1 .093.063"/><path fill="#d8e6ed" d="M121.126 146.156c2.329-3.243 5.134-5.042 9.575-3.084.379-.05.322-.101.196.243.294.811.715 1.279 1.135 1.746 0 0-.018-.07-.202.27.282.802.75 1.265 1.216 1.728 0 0-.014-.073-.34.183.219 1.112.763 1.968 1.308 2.825 0 0-.009-.07-.168.267.292.799.742 1.262 1.192 1.725 0 0 .001-.056-.011-.08-.528 1.1-1.042 2.224-1.556 3.348-.708-.785-1.369-1.622-2.139-2.34-.72-.675-1.558-1.224-2.344-1.829-.157.988-.389 1.971-.454 2.965-.08 1.214-.019 2.438-.019 3.657l-1.434.324c-1.773-3.99-3.545-7.981-5.665-11.98-.346-.008-.29.032-.29.032"/><path fill="#d6e4ec" d="m110.88 150.896-5.55 4.284 1.144 1.42 5.311-1.283 3.357 7.692-7.262 3.079-1.207-1.164 4.92-5.453-6.745.357-3.32-7.747c3.23-.407 5.966-.752 9.054-1.114.353-.017.299-.07.299-.07m30.089-11.884c.533-5.233 5.503-3.957 7.63-5.523 1.15 4.41 2.31 8.712 3.349 13.043.101.421-.5 1.424-.83 1.45-.656.052-1.705-.194-1.964-.664a27 27 0 0 1-2.144-5.005c-.826-2.664-2.221-4.233-5.673-3.425-.431.061-.384.098-.367.124m-19.916 7.071a271 271 0 0 0-2.827 4.178c.553 3.417 4.056 6.574 2.622 11.343-4.66-3.272-2.27-10.719-9.552-10.642-.417-.067-.363-.013-.341.016 1.526-4.599 5.577-4.453 9.735-4.873.434.05.378.01.363-.022"/><path fill="#20223f" d="M225.04 157.227c.164.064.337.37.314.692-.196.018-.304-.451-.314-.692"/><path fill="#2a2737" d="M236.044 135.309c2.304-1.635 4.812-2.975 7.647-4.489 1.675 2.435 3.021 5.044 4.622 7.932-2.08 1.124-4.412 1.969-7.03 3.033-1.87-1.915-3.453-4.048-5.24-6.476"/><path fill="#d8c752" d="M248.404 129.27c.298-.014.34.395.338.6-.603.174-1.202.141-2.017.06.316-.247.848-.447 1.679-.66"/><path fill="#f6f8f0" d="M138.554 80.886c-2.567-3.043-1.844-4.844 1.757-4.925 7.303-.164 14.616-.233 21.915.002 1.27.04 2.487 1.76 3.728 2.705-1.356.828-2.694 2.336-4.07 2.37-7.631.194-15.271.028-23.33-.152"/><path fill="#202646" d="M42.247 155.869c-.981-1.881-1.62-3.89-2.354-6.2l17.806-7.626-2.064-6.057c7.245-3.052 14.33-6.035 21.761-9.105 1.416 1.502 2.484 3.089 4.115 5.513-6.088 2.504-11.527 4.7-16.931 6.98-3.136 1.323-7.025 2.122-4.868 7.26.24.572-1.669 2.57-2.93 3.154-4.651 2.156-9.45 3.995-14.535 6.08"/><path fill="#1e2040" d="M35.374 207.85c-2.51-4.832 2.522-3.713 4.018-5.908-.424-2.787-2.257-6.503 2.5-8.254.363-.133.538-1.929.188-2.658-1.7-3.541-.073-4.962 3.113-6.197 6.97-2.7 13.788-5.786 20.71-8.615 6.553-2.68 6.576-2.623 10.11 3.362l3.568-1.373c.774-.298 1.528-.728 2.329-.852.602-.093 1.79.12 1.826.345 1.032 6.27 9.136 1.462 11.052 7.57 2.977 9.49 7.261 18.573 11.09 27.788 1.503 3.614 3.238 7.11-2.42 8.305 1.407 5.44 1.407 5.44-5.59 10.902 1.56 7.04 1.542 6.994-5.53 9.805-6.61 2.63-13.177 5.37-19.87 8.105-2.27-2.857-2.911-7.312-7.814-5.793-.518.16-1.508-1.553-2.415-2.21-1.262-.915-2.654-1.653-3.988-2.47-1.822-1.117-3.643-2.238-6.446-3.961l-4.64.977c-3.891-9.536-7.768-19.035-11.79-28.869m26.39-5.09c2.445 4.365-.355 5.78-3.804 7.117-7.495 2.907-7.31 2.917-4.45 10.18 1.692 4.299 3.7 5.46 8.233 3.349 7.233-3.37 7.382-3.05 10.295 4.238.31.773.663 1.528.942 2.311.831 2.33 2.208 2.826 4.641 2.059 9.47-2.984 9.82-3.451 6.204-12.41-1.288-3.19-.993-5.178 2.574-6.63 8.614-3.508 8.561-3.645 4.477-12.315-.488-1.036-1.022-2.052-1.726-3.46l-12.437 4.676c-1.295-3.082-2.31-5.876-3.646-8.507-.614-1.207-2.179-3.134-2.77-2.954-3.613 1.102-7.387 2.278-10.37 4.445-.802.583.961 4.697 1.838 7.9"/><path fill="#404364" d="M134.24 149.751c-.77-.54-1.315-1.397-1.559-2.537.796.551 1.29 1.386 1.558 2.537m-2.077-5.049c-.55-.108-.97-.576-1.302-1.4.537.11.985.575 1.302 1.4m.943 2.004c-.526-.11-.993-.573-1.303-1.398.559.106.96.575 1.303 1.398m2.026 4.994c-.543-.104-.993-.567-1.31-1.39.557.103.98.567 1.31 1.39"/><path fill="#3e4161" d="M61.62 202.403c-.73-2.848-2.494-6.962-1.692-7.545 2.983-2.167 6.757-3.343 10.37-4.445.591-.18 2.156 1.747 2.77 2.954 1.337 2.63 2.351 5.425 3.646 8.507l12.437-4.676c.704 1.408 1.238 2.424 1.726 3.46 4.084 8.67 4.137 8.807-4.477 12.315-3.567 1.452-3.862 3.44-2.574 6.63 3.616 8.959 3.266 9.426-6.204 12.41-2.433.767-3.81.272-4.64-2.059-.28-.783-.634-1.538-.943-2.31-2.913-7.288-3.062-7.61-10.295-4.24-4.533 2.112-6.54.951-8.233-3.348-2.86-7.263-3.045-7.273 4.45-10.18 3.45-1.338 6.25-2.752 3.66-7.473m8.984 8.459c.442 1.735.725 3.534 1.398 5.174.289.702 1.52 1.61 2.09 1.47.967-.235 2.534-1.321 2.466-1.883-.227-1.866-.781-3.853-1.822-5.377-.392-.574-2.456-.006-4.132.616m-2.78-6.364c2.747.319 4.59-.515 3.047-3.502-.864-1.673-2.726-2.83-4.139-4.22-.175 1.87-.441 3.74-.47 5.613-.009.553.653 1.117 1.562 2.11m-5.574 14.05-.545-3.825-4.257.758-.309 1.925c1.526.527 3.05 1.055 5.11 1.141m14.188 7.677 4.073-1.403-2.369-2.638c-.713 1.166-1.426 2.331-1.704 4.04"/><path fill="#2f3250" d="M70.792 210.574c1.49-.334 3.553-.902 3.945-.328 1.04 1.524 1.595 3.511 1.822 5.377.068.562-1.5 1.648-2.466 1.884-.57.139-1.801-.77-2.09-1.471-.673-1.64-.956-3.44-1.21-5.462m-3.245-6.293c-.632-.775-1.294-1.339-1.285-1.892.029-1.873.295-3.743.47-5.613 1.413 1.39 3.275 2.547 4.139 4.22 1.542 2.987-.3 3.821-3.324 3.285m-5.565 14.489c-1.792-.308-3.317-.836-4.843-1.363l.31-1.925 4.256-.758c.182 1.275.363 2.55.277 4.045m14.237 7.184c.496-1.438 1.21-2.603 1.922-3.77l2.37 2.64c-1.358.467-2.716.934-4.291 1.13"/></svg>