<svg xmlns="http://www.w3.org/2000/svg" id="Layer_1" data-name="Layer 1" viewBox="0 0 560 320"><defs><style>.cls-1{fill:#2c3e50}.cls-2{fill:#fff}.cls-4{fill:#000;stroke:#3498db;stroke-miterlimit:10;stroke-width:.5px}</style></defs><path d="M.76-.02H560v320H.76z" class="cls-1"/><path d="M405.14-.12c-3.45 16.81-8.27 33.52-14.2 49.97-.77 2.14-1.56 4.27-2.37 6.4-3.15 8.31-6.6 16.53-10.28 24.65a462 462 0 0 1-18.36 36.11c-.66 1.19-1.34 2.38-2.03 3.56-.5.88-1 1.74-1.5 2.61-10.64 18.29-22.38 35.76-34.79 52.08-48.21 64.41-136.13 76.41-201.3 120.77-3.92 2.65-7.76 5.44-11.5 8.36a168 168 0 0 0-8.87 7.44c-2.85 2.53-5.66 5.19-8.43 7.96H-.37V-.12z" style="fill:#3498db"/><path d="M16.43 68.36V96H9.52V58.64h5.91l28 27.22V58.64h6.82V96h-5.4zm69.31 0V96h-6.91V58.64h5.9l28 27.22V58.64h6.83V96h-5.4L85.75 68.36Zm143.66 0V96h-6.91V58.64h5.9l28 27.22V58.64h6.83V96h-5.39l-28.42-27.64ZM66.71 58.64h1.28V96h-6.91V58.64h5.64Zm99.94 0h1.27v6.42h-16.67v30.93h-7.19V65.06h-16.67v-6.42h39.25Zm44.28 0h1.29v6.42h-29.63v8.37h22.92v6.42h-22.92v9.72h29.63v6.42h-36.48V58.63h35.19Zm90.73 30.93h-21.23V65.06h21.23c6.64 0 9 6.59 9 12.26s-2.36 12.26-9 12.26ZM313 64.13c-2.7-3.63-6.7-5.49-11.54-5.49h-27.71V96h27.71c4.83 0 8.83-1.94 11.54-5.49 2.54-3.3 3.88-7.86 3.88-13.19s-1.34-9.89-3.88-13.19m50.37 23.92c0 .76-.69 1.52-1.55 1.52h-29.6c-.86 0-1.56-.76-1.56-1.52V66.58c0-.85.69-1.52 1.56-1.52h29.6c.85 0 1.55.68 1.55 1.52zm-1.29-29.41h-30.13c-4.36 0-7.92 3.55-7.92 7.95v21.47c0 4.39 3.56 7.94 7.92 7.94h30.13c4.37 0 7.92-3.55 7.92-7.94V66.59c0-4.39-3.55-7.94-7.92-7.94" class="cls-2"/><path d="M16.43 26.07v27.64H9.52V16.35h5.91l28 27.22V16.35h6.82v37.36h-5.4zm69.31 0v27.64h-6.91V16.35h5.9l28 27.22V16.35h6.83v37.36h-5.4L85.75 26.07Zm143.66 0v27.64h-6.91V16.35h5.9l28 27.22V16.35h6.83v37.36h-5.39l-28.42-27.64ZM66.71 16.35h1.28v37.36h-6.91V16.35h5.64Zm99.94 0h1.27v6.42h-16.67V53.7h-7.19V22.77h-16.67v-6.42h39.25Zm44.28 0h1.29v6.42h-29.63v8.37h22.92v6.42h-22.92v9.72h29.63v6.42h-36.48V16.35zm90.73 30.93h-21.23V22.77h21.23c6.64 0 9 6.59 9 12.26s-2.36 12.26-9 12.26ZM313 21.84c-2.7-3.63-6.7-5.49-11.54-5.49h-27.71v37.36h27.71c4.83 0 8.83-1.94 11.54-5.49 2.54-3.3 3.88-7.86 3.88-13.19s-1.34-9.89-3.88-13.19m50.37 23.92c0 .76-.69 1.52-1.55 1.52h-29.6c-.86 0-1.56-.76-1.56-1.52V24.29c0-.85.69-1.52 1.56-1.52h29.6c.85 0 1.55.68 1.55 1.52zm-1.29-29.41h-30.13c-4.36 0-7.92 3.55-7.92 7.95v21.47c0 4.39 3.56 7.94 7.92 7.94h30.13c4.37 0 7.92-3.55 7.92-7.94V24.3c0-4.39-3.55-7.94-7.92-7.94M9.52-.02h6.91v11.43H9.52zm40.73 0v11.43h-5.41L33.09-.02h9l1.33 1.29V-.02zm28.58 0v11.43h6.91V-.02zm33.9 0v1.29L111.4-.02h-8.99l11.75 11.43h5.4V-.02zm109.76 0v11.43h6.91V-.02zm33.9 0v1.29l-1.33-1.29h-8.99l11.76 11.43h5.39V-.02zm-195.32 0v11.43h6.92V-.02zm82.99 0v11.43h7.19V-.02zm38.53 5.01V-.02h-6.84v11.43h36.48V4.99zM309.16-.02c-1.36 2.87-3.74 5.01-7.5 5.01h-21.23V-.02h-6.67v11.43h27.7c4.84 0 8.84-1.94 11.54-5.49 1.29-1.68 2.27-3.68 2.92-5.94zm54.21 0v3.49c0 .76-.7 1.52-1.55 1.52h-29.6c-.86 0-1.55-.76-1.55-1.52V-.02h-6.64v3.49c0 4.39 3.56 7.94 7.92 7.94h30.13c4.37 0 7.92-3.55 7.92-7.94V-.02zM16.43 194.07v27.64H9.52v-37.36h5.91l28 27.22v-27.22h6.82v37.36h-5.4zm69.31 0v27.64h-6.91v-37.36h5.9l28 27.22v-27.22h6.83v37.36h-5.4l-28.41-27.64Zm143.66 0v27.64h-6.91v-37.36h5.9l28 27.22v-27.22h6.83v37.36h-5.39l-28.42-27.64Zm-162.69-9.72h1.28v37.36h-6.91v-37.36h5.64Zm99.94 0h1.27v6.42h-16.67v30.93h-7.19v-30.93h-16.67v-6.42h39.25Zm44.28 0h1.29v6.42h-29.63v8.37h22.92v6.42h-22.92v9.72h29.63v6.42h-36.48v-37.36h35.19Zm90.73 30.93h-21.23v-24.51h21.23c6.64 0 9 6.59 9 12.26s-2.36 12.26-9 12.26ZM313 189.84c-2.7-3.63-6.7-5.49-11.54-5.49h-27.71v37.36h27.71c4.83 0 8.83-1.94 11.54-5.49 2.54-3.3 3.88-7.86 3.88-13.19s-1.34-9.89-3.88-13.19m50.37 23.92c0 .76-.69 1.52-1.55 1.52h-29.6c-.86 0-1.56-.76-1.56-1.52v-21.47c0-.85.69-1.52 1.56-1.52h29.6c.85 0 1.55.68 1.55 1.52zm-1.29-29.41h-30.13c-4.36 0-7.92 3.55-7.92 7.95v21.47c0 4.39 3.56 7.94 7.92 7.94h30.13c4.37 0 7.92-3.55 7.92-7.94V192.3c0-4.39-3.55-7.94-7.92-7.94M16.43 151.77v27.64H9.52v-37.36h5.91l28 27.22v-27.22h6.82v37.36h-5.4zm69.31 0v27.64h-6.91v-37.36h5.9l28 27.22v-27.22h6.83v37.36h-5.4l-28.41-27.64Zm143.66 0v27.64h-6.91v-37.36h5.9l28 27.22v-27.22h6.83v37.36h-5.39l-28.42-27.64Zm-162.69-9.72h1.28v37.36h-6.91v-37.36h5.64Zm99.94 0h1.27v6.42h-16.67v30.93h-7.19v-30.93h-16.67v-6.42h39.25Zm44.28 0h1.29v6.42h-29.63v8.37h22.92v6.42h-22.92v9.72h29.63v6.42h-36.48v-37.36h35.19Zm90.73 30.94h-21.23v-24.51h21.23c6.64 0 9 6.59 9 12.26s-2.36 12.26-9 12.26ZM313 147.55c-2.7-3.63-6.7-5.49-11.54-5.49h-27.71v37.36h27.71c4.83 0 8.83-1.94 11.54-5.49 2.54-3.3 3.88-7.86 3.88-13.19s-1.34-9.89-3.88-13.19m50.37 23.92c0 .76-.69 1.52-1.55 1.52h-29.6c-.86 0-1.56-.76-1.56-1.52V150c0-.85.69-1.52 1.56-1.52h29.6c.85 0 1.55.68 1.55 1.52zm-1.29-29.42h-30.13c-4.36 0-7.92 3.55-7.92 7.95v21.47c0 4.39 3.56 7.94 7.92 7.94h30.13c4.37 0 7.92-3.55 7.92-7.94V150c0-4.39-3.55-7.94-7.92-7.94M16.43 278.65v27.64H9.52v-37.36h5.91l28 27.22v-27.22h6.82v37.36h-5.4zm69.31 0v27.64h-6.91v-37.36h5.9l28 27.22v-27.22h6.83v37.36h-5.4l-28.41-27.64Zm143.66 0v27.64h-6.91v-37.36h5.9l28 27.22v-27.22h6.83v37.36h-5.39l-28.42-27.64Zm-162.69-9.72h1.28v37.36h-6.91v-37.36h5.64Zm99.94 0h1.27v6.42h-16.67v30.93h-7.19v-30.93h-16.67v-6.42h39.25Zm44.28 0h1.29v6.42h-29.63v8.37h22.92v6.42h-22.92v9.72h29.63v6.42h-36.48v-37.36h35.19Zm90.73 30.93h-21.23v-24.51h21.23c6.64 0 9 6.59 9 12.26s-2.36 12.26-9 12.26ZM313 274.42c-2.7-3.63-6.7-5.49-11.54-5.49h-27.71v37.36h27.71c4.83 0 8.83-1.94 11.54-5.49 2.54-3.3 3.88-7.86 3.88-13.19s-1.34-9.89-3.88-13.19m50.37 23.92c0 .76-.69 1.52-1.55 1.52h-29.6c-.86 0-1.56-.76-1.56-1.52v-21.47c0-.85.69-1.52 1.56-1.52h29.6c.85 0 1.55.68 1.55 1.52zm-1.29-29.41h-30.13c-4.36 0-7.92 3.55-7.92 7.95v21.47c0 4.39 3.56 7.94 7.92 7.94h30.13c4.37 0 7.92-3.55 7.92-7.94v-21.47c0-4.39-3.55-7.94-7.92-7.94M15.42 311.22l9.01 8.76H9.52v-8.76zm28 0h6.83v8.76h-6.83zm69.31 0v8.76h6.83v-8.76zm-33.9 0v8.76h14.91l-9.01-8.76zm177.56 0v8.76h6.83v-8.76zm-33.9 0v8.76h14.91l-9.01-8.76zm-161.42 0v8.76h6.92v-8.76zm66.32 0v6.42h16.67v2.34h7.19v-2.34h16.66v-6.42zm48.36 0v8.76h6.84v-2.34h29.64v-6.42zM313 316.71c-2.7-3.63-6.7-5.49-11.54-5.49h-27.7v8.76h6.67v-2.34h21.23c2.46 0 4.33.91 5.72 2.34h7.56c-.53-1.19-1.18-2.29-1.94-3.27m49.08-5.49h-30.13c-4.36 0-7.92 3.55-7.92 7.94v.82h6.64v-.82c0-.84.69-1.52 1.55-1.52h29.6c.85 0 1.55.68 1.55 1.52v.82H370v-.82c0-4.39-3.55-7.94-7.92-7.94M16.43 236.36V264H9.52v-37.36h5.91l28 27.22v-27.22h6.82V264h-5.4zm69.31 0V264h-6.91v-37.36h5.9l28 27.22v-27.22h6.83V264h-5.4l-28.41-27.64Zm143.66 0V264h-6.91v-37.36h5.9l28 27.22v-27.22h6.83V264h-5.39l-28.42-27.64Zm-162.69-9.72h1.28V264h-6.91v-37.36h5.64Zm99.94 0h1.27v6.42h-16.67v30.93h-7.19v-30.93h-16.67v-6.42h39.25Zm44.28 0h1.29v6.42h-29.63v8.37h22.92v6.42h-22.92v9.72h29.63v6.42h-36.48v-37.36h35.19Zm90.73 30.93h-21.23v-24.51h21.23c6.64 0 9 6.59 9 12.26s-2.36 12.26-9 12.26ZM313 232.13c-2.7-3.63-6.7-5.49-11.54-5.49h-27.71V264h27.71c4.83 0 8.83-1.94 11.54-5.49 2.54-3.3 3.88-7.86 3.88-13.19s-1.34-9.89-3.88-13.19m50.37 23.92c0 .76-.69 1.52-1.55 1.52h-29.6c-.86 0-1.56-.76-1.56-1.52v-21.47c0-.85.69-1.52 1.56-1.52h29.6c.85 0 1.55.68 1.55 1.52zm-1.29-29.41h-30.13c-4.36 0-7.92 3.55-7.92 7.95v21.47c0 4.39 3.56 7.94 7.92 7.94h30.13c4.37 0 7.92-3.55 7.92-7.94v-21.47c0-4.39-3.55-7.94-7.92-7.94M16.43 109.48v27.64H9.52V99.76h5.91l28 27.22V99.76h6.82v37.36h-5.4zm69.31 0v27.64h-6.91V99.76h5.9l28 27.22V99.76h6.83v37.36h-5.4l-28.41-27.64Zm143.66 0v27.64h-6.91V99.76h5.9l28 27.22V99.76h6.83v37.36h-5.39l-28.42-27.64ZM66.71 99.76h1.28v37.36h-6.91V99.76h5.64Zm99.94 0h1.27v6.42h-16.67v30.93h-7.19v-30.93h-16.67v-6.42h39.25Zm44.28 0h1.29v6.42h-29.63v8.37h22.92v6.42h-22.92v9.72h29.63v6.42h-36.48V99.75h35.19Zm90.73 30.94h-21.23v-24.51h21.23c6.64 0 9 6.59 9 12.26s-2.36 12.26-9 12.26ZM313 105.26c-2.7-3.63-6.7-5.49-11.54-5.49h-27.71v37.36h27.71c4.83 0 8.83-1.94 11.54-5.49 2.54-3.3 3.88-7.86 3.88-13.19s-1.34-9.89-3.88-13.19m50.37 23.92c0 .76-.69 1.52-1.55 1.52h-29.6c-.86 0-1.56-.76-1.56-1.52v-21.47c0-.85.69-1.52 1.56-1.52h29.6c.85 0 1.55.68 1.55 1.52zm-1.29-29.42h-30.13c-4.36 0-7.92 3.55-7.92 7.95v21.47c0 4.39 3.56 7.94 7.92 7.94h30.13c4.37 0 7.92-3.55 7.92-7.94v-21.47c0-4.39-3.55-7.94-7.92-7.94" class="cls-1"/><path d="M73.14 246.03c0 1.15-.94 2.18-2.1 2.18H30.77c-1.17 0-2.12-1.03-2.12-2.18v-29.1c0-1.15.94-2.07 2.12-2.07h40.27c1.16 0 2.1.92 2.1 2.07zm-1.74-39.91h-41c-5.93 0-10.78 4.83-10.78 10.81v29.21c0 5.87 4.84 10.81 10.78 10.81h41c5.95 0 10.78-4.94 10.78-10.81v-29.21c0-5.98-4.83-10.81-10.78-10.81" style="fill:#e1131f"/><path d="M73.14 189.22c0 1.03-.94 2.07-2.1 2.07H30.77c-1.17 0-2.12-1.03-2.12-2.07v-29.21c0-1.15.94-2.07 2.12-2.07h40.27c1.16 0 2.1.92 2.1 2.07zM71.4 149.2h-41c-5.93 0-10.78 4.83-10.78 10.81v29.21c0 5.98 4.84 10.81 10.78 10.81h41c5.95 0 10.78-4.83 10.78-10.81v-29.21c0-5.98-4.83-10.81-10.78-10.81m170.77 86.25c9.75 3.91 30.35 7.02 46.42 7.02 17.59 0 24.87-5.98 24.87-13.57 0-6.9-6.76-10.81-26.18-17.94-25.98-9.54-45.03-17.13-45.03-34.27s22.93-28.06 57.88-28.06c18.77 0 25.21 1.15 37.12 3.34l.09 16.79c-11.71-2.18-22.08-5.98-38.19-5.98-17.27 0-24.63 5.52-24.63 11.16 0 8.16 11.34 12.07 31.22 19.2 27.68 9.89 43.08 17.48 43.08 34.15s-19.29 29.67-62.78 29.67c-17.86 0-30.17-1.15-43.87-3.45v-18.05Zm-92.57-71.99h-20.7v78.43h20.7c31.77 0 51.82-13.68 51.82-39.1s-20.04-39.33-51.82-39.33m55.55 85.67c-10.24 4.6-29.6 7.59-46.53 7.59h-64.7V148.85h64.7c16.93 0 36.29 2.99 46.55 7.59 24.92 11.27 33.04 29.32 33.04 46.34s-8.05 35.08-33.06 46.34" class="cls-2"/><path d="M560 168.56V307.1H408.9c-5.87 0-10.64-4.77-10.64-10.64v-127.9zM408.85 12.42H560v137.23H398.26V23.02c0-5.85 4.75-10.6 10.59-10.6Z" class="cls-4"/><path d="M431.84 132.28H560v19.41H431.84z" class="cls-4"/><path d="M560 27.06v113.96h-91.91c-.98 0-1.78-.79-1.78-1.77V28.83c0-.98.8-1.78 1.78-1.78z" class="cls-4"/><path d="M468.09 26.75c-1.15 0-2.09.93-2.09 2.08v110.42c0 1.15.94 2.08 2.09 2.08H560v-.62h-91.91c-.81 0-1.47-.65-1.47-1.46V28.83c0-.81.66-1.47 1.47-1.47H560v-.61z" class="cls-4"/><path d="M560 34.21v99.58h-85.22c-.76 0-1.39-.62-1.39-1.38V35.6c0-.77.62-1.39 1.39-1.39z" class="cls-4"/><path d="M474.78 34.29c-.72 0-1.31.58-1.31 1.31v96.81c0 .72.59 1.3 1.31 1.3H560V34.29zm0-.16c-.8 0-1.46.66-1.46 1.47v96.81c0 .8.66 1.46 1.46 1.46H560v-.16h-85.22c-.72 0-1.31-.58-1.31-1.3V35.6c0-.73.59-1.31 1.31-1.31H560v-.16zM560 175.51v113.97h-91.91c-.98 0-1.78-.8-1.78-1.78V177.29c0-.98.8-1.78 1.78-1.78z" class="cls-4"/><path d="M468.09 175.2c-1.15 0-2.09.94-2.09 2.09V287.7c0 1.15.94 2.09 2.09 2.09H560v-.62h-91.91c-.81 0-1.47-.66-1.47-1.47V177.29c0-.81.66-1.47 1.47-1.47H560v-.62z" class="cls-4"/><path d="M560 182.67v99.58h-85.22c-.76 0-1.38-.62-1.38-1.39v-96.8c0-.77.62-1.39 1.38-1.39z" class="cls-4"/><path d="M474.78 182.75c-.72 0-1.31.58-1.31 1.31v96.8c0 .73.59 1.31 1.31 1.31H560v-99.42zm0-.16c-.8 0-1.46.66-1.46 1.47v96.8c0 .81.66 1.47 1.46 1.47H560v-.16h-85.22c-.72 0-1.31-.58-1.31-1.31v-96.8c0-.73.59-1.31 1.31-1.31H560v-.16z" class="cls-4"/><circle cx="421.05" cy="81.38" r="1.51" class="cls-4"/><circle cx="431.84" cy="81.38" r="1.51" class="cls-4"/><circle cx="442.63" cy="81.38" r="1.51" class="cls-4"/><path d="M427.46 150.56H560v18H427.46z" class="cls-4"/><circle cx="421.05" cy="92.12" r="1.51" class="cls-4"/><circle cx="431.84" cy="92.12" r="1.51" class="cls-4"/><path d="M431.91 150.56H560v18H431.91zm-1.15 18h-23.51a9 9 0 0 1 0-18h23.51v17.99Z" class="cls-4"/><circle cx="442.63" cy="92.12" r="1.51" class="cls-4"/><rect width="2.69" height="8.02" x="538.86" y="154.85" class="cls-4" rx="1.34" ry="1.34"/><path d="M425.16 239.77c-.88 0-1.59-.71-1.59-1.59v-11.15h-11.16c-.87 0-1.59-.71-1.59-1.59v-10.13c0-.88.71-1.59 1.59-1.59h11.16v-11.16c0-.88.71-1.59 1.59-1.59h10.13c.88 0 1.59.71 1.59 1.59v11.16h11.15c.88 0 1.59.71 1.59 1.59v10.13c0 .88-.71 1.59-1.59 1.59h-11.15v11.15c0 .88-.71 1.59-1.59 1.59z" class="cls-4"/><path d="M448.03 213.34h-10.77v-10.77c0-1.09-.89-1.98-1.97-1.98h-10.13c-1.09 0-1.98.89-1.98 1.98v10.77h-10.77c-1.08 0-1.97.88-1.97 1.97v10.13c0 1.09.89 1.98 1.97 1.98h10.77v10.76c0 1.09.89 1.98 1.98 1.98h10.13c1.08 0 1.97-.89 1.97-1.98v-10.76h10.77c1.09 0 1.98-.89 1.98-1.98v-10.13c0-1.09-.89-1.97-1.98-1.97Zm1.2 12.1c0 .66-.54 1.2-1.2 1.2h-11.54v11.54c0 .67-.54 1.2-1.2 1.2h-10.13c-.67 0-1.2-.53-1.2-1.2v-11.54h-11.55c-.66 0-1.2-.54-1.2-1.2v-10.13c0-.66.54-1.2 1.2-1.2h11.55v-11.54c0-.67.53-1.2 1.2-1.2h10.13c.66 0 1.2.53 1.2 1.2v11.54h11.54c.66 0 1.2.54 1.2 1.2z" class="cls-4"/><rect width="7.81" height="7.46" x="433" y="138.26" class="cls-4" rx="1.64" ry="1.64"/><rect width="7.81" height="7.46" x="433.34" y="24.73" class="cls-4" rx="1.64" ry="1.64"/><path d="M429.64 205.21h1.04v7.25h-1.04zm0 23.08h1.04v7.25h-1.04zm-14.66-8.43h7.25v1.04h-7.25zm23.09 0h7.25v1.04h-7.25z" class="cls-4"/></svg>