<svg xmlns="http://www.w3.org/2000/svg" width="1440" height="560" preserveAspectRatio="none" viewBox="0 0 1440 560"><style>@keyframes leftMove{0%,to{transform:translate(50px,10px)}50%{transform:translate(-50px,-10px)}}@keyframes rightMove{0%,to{transform:translate(35px,-10px)}50%{transform:translate(-105px,10px)}}</style><g fill="none" mask="url(#a)"><path id="center" fill="#553e98" d="M0 0h1440v560H0z"/><path fill="#371f69" d="M0 580c120 10 180-130 270-190s220-70 290-150c80-90 140-210 120-320S520-250 420-310C340 30 250 0 160-20S-10-50-90-20s-150 70-200 140-60 150-85 230c-30 100-130 200-90 290s190 70 270 130c45-340 85-200 195-190" style="animation:leftMove 15s ease-in-out infinite"/><path fill="#ff9b85" d="M1440 1060c100 30 230 40 310-40s30-210 70-310c35-90 130-150 140-240 10-100-10-220-90-290s-200-40-300-60c-90-20-180-60-270-30s-150 110-220 170c-70 70-190 120-200 220s110 160 170 240c50 70 90 130 150 180 70 60 140 140 230 160" style="animation:rightMove 15s ease-in-out infinite;animation-delay:-3s"/></g><defs><mask id="a"><path fill="#fff" d="M0 0h1440v560H0z"/></mask></defs></svg>