<svg xmlns="http://www.w3.org/2000/svg" width="500" height="500" version="1.0" viewBox="0 0 375 375"><path fill="#553e98" d="M8.828 220.458h25.176c1.41 0 2.52-1.207 2.52-2.618v-23.566a2.49 2.49 0 0 1 2.515-2.516h15.105c1.41 0 2.52 1.106 2.52 2.516v23.664c0 1.41 1.105 2.52 2.516 2.52h25.175c1.41 0 2.52-1.207 2.52-2.618v-24.875c0-5.94-4.332-10.273-10.274-10.273h-.906a2.49 2.49 0 0 1-2.515-2.516c0-1.41 1.105-2.52 2.515-2.52h.906c5.942 0 10.274-4.327 10.274-10.269V156.31c0-9.465-6.95-16.414-16.414-16.414H8.828a2.49 2.49 0 0 0-2.516 2.516v75.527c0 1.41 1.106 2.52 2.516 2.52m30.21-51.864a2.49 2.49 0 0 1-2.515-2.515c0-1.41 1.106-2.52 2.516-2.52h15.105c1.41 0 2.52 1.11 2.52 2.52s-1.11 2.515-2.52 2.515Zm73.382 51.863h24.37c11.883 0 20.543-8.66 20.543-20.543v-39.477c0-11.883-8.66-20.543-20.543-20.543h-24.37c-11.883 0-20.544 8.66-20.544 20.543v39.477c0 11.883 8.66 20.543 20.543 20.543m12.183-23.16a2.493 2.493 0 0 1-2.516-2.52v-29.203c0-1.41 1.106-2.52 2.516-2.52s2.52 1.11 2.52 2.52v29.203c0 1.41-1.11 2.52-2.52 2.52m40.356 23.16h25.074c1.41 0 2.52-1.11 2.52-2.52v-44.812a2.49 2.49 0 0 1 2.515-2.516c1.41 0 2.52 1.105 2.52 2.516v45.015c0 1.309 1.207 2.317 2.516 2.317h25.175c1.309 0 2.52-1.008 2.52-2.317v-45.015a2.49 2.49 0 0 1 2.515-2.516c1.41 0 2.52 1.105 2.52 2.516v44.812c0 1.41 1.207 2.52 2.617 2.52h25.074c1.41 0 2.52-1.11 2.52-2.52v-75.527c0-1.41-1.211-2.516-2.617-2.516h-42.7c-1.41 0-2.519 1.207-2.519 2.617v14a2.49 2.49 0 0 1-2.516 2.516c-1.41 0-2.52-1.11-2.52-2.516v-14.101c0-1.41-1.206-2.516-2.616-2.516h-42.7a2.49 2.49 0 0 0-2.515 2.516v75.527c0 1.41 1.207 2.52 2.617 2.52m105.697 0h25.074c1.41 0 2.52-1.11 2.52-2.52v-44.812a2.49 2.49 0 0 1 2.515-2.516c1.41 0 2.52 1.105 2.52 2.516v45.015c0 1.309 1.207 2.317 2.515 2.317h25.176c1.309 0 2.52-1.008 2.52-2.317v-45.015a2.49 2.49 0 0 1 2.515-2.516c1.41 0 2.52 1.105 2.52 2.516v44.812c0 1.41 1.207 2.52 2.617 2.52h25.074c1.41 0 2.52-1.11 2.52-2.52v-75.527c0-1.41-1.211-2.516-2.618-2.516h-42.699c-1.41 0-2.52 1.207-2.52 2.617v14a2.49 2.49 0 0 1-2.515 2.516c-1.41 0-2.52-1.11-2.52-2.516v-14.101c0-1.41-1.206-2.516-2.617-2.516h-42.699a2.49 2.49 0 0 0-2.515 2.516v75.527c0 1.41 1.207 2.52 2.617 2.52m0 0"/></svg>