<?xml version="1.0" encoding="UTF-8" ?>
<!DOCTYPE svg PUBLIC "-//W3C//DTD SVG 1.1//EN" "http://www.w3.org/Graphics/SVG/1.1/DTD/svg11.dtd">
<svg width="450pt" height="500pt" viewBox="0 0 450 500" version="1.1" xmlns="http://www.w3.org/2000/svg">
<g id="#909090ff">
<path fill="#909090" opacity="1.00" d=" M 10.05 3.17 C 12.68 2.85 15.34 3.02 17.99 3.00 C 146.37 3.02 274.76 2.97 403.15 3.02 C 405.99 2.70 409.01 4.89 408.95 7.88 C 409.09 13.92 408.95 19.96 409.00 26.00 C 419.35 26.02 429.70 25.97 440.05 26.01 C 442.63 25.77 445.43 27.36 445.87 30.04 C 446.19 35.02 445.91 40.02 446.00 45.00 C 444.29 45.00 442.60 45.00 440.90 45.00 C 423.12 45.00 405.33 44.99 387.55 45.00 C 389.34 46.86 390.98 48.85 392.44 50.99 C 408.59 51.03 424.75 50.99 440.90 51.00 C 442.60 51.00 444.29 51.00 446.00 51.00 C 446.00 54.00 446.00 57.00 446.00 60.00 C 444.29 60.00 442.59 60.00 440.90 60.00 C 426.15 60.00 411.40 59.99 396.65 59.99 C 397.58 62.31 398.45 64.66 399.25 67.04 C 413.13 66.97 427.01 67.02 440.90 67.00 C 442.59 67.00 444.29 67.00 446.00 67.00 C 446.00 70.00 446.00 73.00 446.00 76.00 C 444.29 76.00 442.60 76.00 440.90 76.00 C 427.26 75.99 413.62 76.00 399.98 75.99 C 399.98 77.99 399.98 80.00 399.98 82.01 C 413.62 82.00 427.26 82.01 440.90 82.00 C 442.60 82.00 444.29 82.00 446.00 82.00 C 446.00 85.33 446.00 88.67 446.00 92.00 C 444.29 92.00 442.59 92.00 440.90 92.00 C 426.67 92.00 412.44 91.99 398.21 92.00 C 397.50 94.37 396.72 96.71 395.86 99.03 C 410.87 98.98 425.89 99.02 440.90 99.00 C 442.59 99.00 444.29 99.00 446.00 99.00 C 446.00 101.67 446.00 104.33 446.00 107.00 C 444.29 107.00 442.60 107.00 440.90 107.00 C 424.75 107.00 408.60 106.97 392.45 107.00 C 390.99 109.15 389.33 111.15 387.51 113.00 C 405.30 113.02 423.10 113.00 440.90 113.00 C 442.60 113.00 444.30 113.00 446.00 113.00 C 446.00 144.68 446.00 176.37 446.00 208.05 C 440.00 207.98 434.01 207.96 428.01 208.02 C 428.01 304.01 427.96 400.01 428.04 496.00 C 293.01 496.00 157.99 496.00 22.97 496.00 C 23.03 400.01 23.00 304.02 22.99 208.03 C 17.32 207.96 11.66 207.99 6.00 208.04 C 6.00 176.36 6.00 144.68 6.00 113.00 C 7.37 113.00 8.73 113.00 10.10 113.00 C 28.22 113.00 46.34 113.02 64.46 113.00 C 62.66 111.14 61.00 109.14 59.55 107.00 C 43.07 106.97 26.58 107.00 10.10 107.00 C 8.73 107.00 7.37 107.00 6.00 107.00 C 6.00 104.33 6.00 101.67 6.00 99.00 C 7.37 99.00 8.73 99.00 10.10 99.00 C 25.45 99.02 40.79 98.98 56.13 99.02 C 55.27 96.70 54.49 94.35 53.79 91.98 C 39.23 92.01 24.67 91.99 10.10 92.00 C 8.74 92.00 7.37 92.00 6.00 92.00 C 6.00 88.67 6.00 85.33 6.00 82.00 C 7.37 82.00 8.73 82.00 10.10 82.00 C 24.07 82.01 38.05 82.00 52.02 82.02 C 52.02 80.00 52.02 77.99 52.03 75.98 C 38.05 76.01 24.07 75.99 10.10 76.00 C 8.73 76.00 7.37 76.00 6.00 76.00 C 6.00 73.00 6.00 70.00 6.00 67.00 C 7.37 67.00 8.73 67.00 10.10 67.00 C 24.32 67.00 38.54 67.01 52.76 67.00 C 53.56 64.65 54.43 62.31 55.32 59.99 C 40.25 60.00 25.17 59.99 10.10 60.00 C 8.73 60.00 7.37 60.00 6.00 60.00 C 6.00 57.00 6.00 54.00 6.00 51.00 C 7.37 51.00 8.73 51.00 10.10 51.00 C 26.59 50.99 43.08 51.04 59.56 50.98 C 61.02 48.84 62.67 46.84 64.50 45.00 C 46.37 44.98 28.23 45.00 10.10 45.00 C 8.73 45.00 7.37 45.00 6.00 45.00 C 6.03 32.66 5.93 20.31 6.04 7.97 C 5.96 5.68 7.81 3.53 10.05 3.17 M 99.00 34.10 C 87.59 35.56 76.75 41.43 69.52 50.42 C 61.23 60.47 57.56 74.25 60.05 87.06 C 63.36 107.42 82.34 124.09 103.07 124.04 C 184.05 123.97 265.02 124.01 346.00 124.02 C 359.02 124.90 372.03 119.07 380.80 109.56 C 390.23 99.34 394.62 84.61 391.95 70.92 C 388.67 50.93 370.35 34.54 350.03 33.97 C 266.35 34.10 182.67 33.84 99.00 34.10 M 60.31 140.45 C 57.41 142.73 58.41 146.80 58.24 149.99 C 58.27 241.97 58.26 333.94 58.24 425.91 C 58.41 429.13 57.38 433.25 60.31 435.54 C 63.14 437.51 66.77 436.88 70.00 436.99 C 175.03 436.94 280.06 436.99 385.09 436.96 C 388.05 437.09 392.05 435.57 392.00 432.07 C 392.01 336.04 392.00 240.01 392.01 143.98 C 392.11 140.87 388.81 139.04 386.01 139.35 C 279.00 139.34 171.98 139.37 64.96 139.34 C 63.39 139.45 61.57 139.33 60.31 140.45 M 194.98 444.90 C 193.44 446.43 191.93 449.01 194.13 450.73 C 204.01 460.56 213.81 470.49 223.73 480.29 C 225.98 482.39 228.68 479.96 230.31 478.32 C 239.16 469.47 248.03 460.64 256.84 451.75 C 258.81 450.06 259.14 446.62 256.82 445.07 C 236.22 444.82 215.59 445.18 194.98 444.90 Z" />
</g>
<g id="#5c5a5aff">
<path fill="#5c5a5a" opacity="1.00" d=" M 99.00 34.10 C 182.67 33.84 266.35 34.10 350.03 33.97 C 370.35 34.54 388.67 50.93 391.95 70.92 C 394.62 84.61 390.23 99.34 380.80 109.56 C 372.03 119.07 359.02 124.90 346.00 124.02 C 265.02 124.01 184.05 123.97 103.07 124.04 C 82.34 124.09 63.36 107.42 60.05 87.06 C 57.56 74.25 61.23 60.47 69.52 50.42 C 76.75 41.43 87.59 35.56 99.00 34.10 Z" />
<path fill="#5c5a5a" opacity="1.00" d=" M 10.10 45.00 C 28.23 45.00 46.37 44.98 64.50 45.00 C 62.67 46.84 61.02 48.84 59.56 50.98 C 43.08 51.04 26.59 50.99 10.10 51.00 C 10.09 49.00 10.09 47.00 10.10 45.00 Z" />
<path fill="#5c5a5a" opacity="1.00" d=" M 387.55 45.00 C 405.33 44.99 423.12 45.00 440.90 45.00 C 440.90 47.00 440.90 49.00 440.90 51.00 C 424.75 50.99 408.59 51.03 392.44 50.99 C 390.98 48.85 389.34 46.86 387.55 45.00 Z" />
<path fill="#5c5a5a" opacity="1.00" d=" M 10.10 60.00 C 25.17 59.99 40.25 60.00 55.32 59.99 C 54.43 62.31 53.56 64.65 52.76 67.00 C 38.54 67.01 24.32 67.00 10.10 67.00 C 10.08 64.67 10.08 62.33 10.10 60.00 Z" />
<path fill="#5c5a5a" opacity="1.00" d=" M 396.65 59.99 C 411.40 59.99 426.15 60.00 440.90 60.00 C 440.91 62.33 440.92 64.67 440.90 67.00 C 427.01 67.02 413.13 66.97 399.25 67.04 C 398.45 64.66 397.58 62.31 396.65 59.99 Z" />
<path fill="#5c5a5a" opacity="1.00" d=" M 10.10 76.00 C 24.07 75.99 38.05 76.01 52.03 75.98 C 52.02 77.99 52.02 80.00 52.02 82.02 C 38.05 82.00 24.07 82.01 10.10 82.00 C 10.09 80.00 10.09 78.00 10.10 76.00 Z" />
<path fill="#5c5a5a" opacity="1.00" d=" M 399.98 75.99 C 413.62 76.00 427.26 75.99 440.90 76.00 C 440.90 78.00 440.90 80.00 440.90 82.00 C 427.26 82.01 413.62 82.00 399.98 82.01 C 399.98 80.00 399.98 77.99 399.98 75.99 Z" />
<path fill="#5c5a5a" opacity="1.00" d=" M 10.10 92.00 C 24.67 91.99 39.23 92.01 53.79 91.98 C 54.49 94.35 55.27 96.70 56.13 99.02 C 40.79 98.98 25.45 99.02 10.10 99.00 C 10.08 96.67 10.08 94.33 10.10 92.00 Z" />
<path fill="#5c5a5a" opacity="1.00" d=" M 398.21 92.00 C 412.44 91.99 426.67 92.00 440.90 92.00 C 440.91 94.33 440.91 96.67 440.90 99.00 C 425.89 99.02 410.87 98.98 395.86 99.03 C 396.72 96.71 397.50 94.37 398.21 92.00 Z" />
<path fill="#5c5a5a" opacity="1.00" d=" M 10.10 107.00 C 26.58 107.00 43.07 106.97 59.55 107.00 C 61.00 109.14 62.66 111.14 64.46 113.00 C 46.34 113.02 28.22 113.00 10.10 113.00 C 10.10 111.00 10.09 109.00 10.10 107.00 Z" />
<path fill="#5c5a5a" opacity="1.00" d=" M 392.45 107.00 C 408.60 106.97 424.75 107.00 440.90 107.00 C 440.90 109.00 440.90 111.00 440.90 113.00 C 423.10 113.00 405.30 113.02 387.51 113.00 C 389.33 111.15 390.99 109.15 392.45 107.00 Z" />
<path fill="#5c5a5a" opacity="1.00" d=" M 60.31 140.45 C 61.57 139.33 63.39 139.45 64.96 139.34 C 171.98 139.37 279.00 139.34 386.01 139.35 C 388.81 139.04 392.11 140.87 392.01 143.98 C 392.00 240.01 392.01 336.04 392.00 432.07 C 392.05 435.57 388.05 437.09 385.09 436.96 C 280.06 436.99 175.03 436.94 70.00 436.99 C 66.77 436.88 63.14 437.51 60.31 435.54 C 57.38 433.25 58.41 429.13 58.24 425.91 C 58.26 333.94 58.27 241.97 58.24 149.99 C 58.41 146.80 57.41 142.73 60.31 140.45 M 70.18 148.25 C 67.64 148.87 66.20 151.49 66.51 153.99 C 66.55 244.32 66.51 334.65 66.54 424.98 C 66.09 428.54 69.69 430.95 72.95 430.57 C 174.63 430.63 276.31 430.57 377.99 430.60 C 381.34 431.04 385.32 428.88 384.98 425.08 C 385.03 336.74 384.98 248.40 385.00 160.05 C 384.98 157.36 385.15 154.66 384.86 151.98 C 384.38 149.34 381.64 147.77 379.09 148.02 C 277.04 147.97 175.00 148.02 72.95 147.99 C 72.26 148.05 70.87 148.18 70.18 148.25 Z" />
<path fill="#5c5a5a" opacity="1.00" d=" M 6.00 208.04 C 11.66 207.99 17.32 207.96 22.99 208.03 C 23.00 304.02 23.03 400.01 22.97 496.00 C 18.12 495.88 13.25 496.23 8.43 495.86 C 7.14 494.98 5.68 493.73 5.99 491.99 C 6.01 397.34 5.99 302.69 6.00 208.04 Z" />
<path fill="#5c5a5a" opacity="1.00" d=" M 428.01 208.02 C 434.01 207.96 440.00 207.98 446.00 208.05 C 446.00 303.23 446.01 398.40 445.99 493.58 C 445.18 494.37 444.38 495.17 443.59 495.99 C 438.40 496.01 433.22 496.00 428.04 496.00 C 427.96 400.01 428.01 304.01 428.01 208.02 Z" />
<path fill="#5c5a5a" opacity="1.00" d=" M 194.98 444.90 C 215.59 445.18 236.22 444.82 256.82 445.07 C 259.14 446.62 258.81 450.06 256.84 451.75 C 248.03 460.64 239.16 469.47 230.31 478.32 C 228.68 479.96 225.98 482.39 223.73 480.29 C 213.81 470.49 204.01 460.56 194.13 450.73 C 191.93 449.01 193.44 446.43 194.98 444.90 Z" />
</g>
<g id="#c7c7c7ff">
<path fill="#c7c7c7" opacity="1.00" d=" M 70.18 148.25 C 70.87 148.18 72.26 148.05 72.95 147.99 C 175.00 148.02 277.04 147.97 379.09 148.02 C 381.64 147.77 384.38 149.34 384.86 151.98 C 385.15 154.66 384.98 157.36 385.00 160.05 C 384.98 248.40 385.03 336.74 384.98 425.08 C 385.32 428.88 381.34 431.04 377.99 430.60 C 276.31 430.57 174.63 430.63 72.95 430.57 C 69.69 430.95 66.09 428.54 66.54 424.98 C 66.51 334.65 66.55 244.32 66.51 153.99 C 66.20 151.49 67.64 148.87 70.18 148.25 M 89.10 230.23 C 88.90 232.14 88.81 234.06 88.84 235.99 C 89.00 265.61 88.66 295.25 89.03 324.87 C 91.90 324.90 94.78 324.89 97.66 324.82 C 97.72 316.45 97.74 308.07 97.81 299.70 C 102.46 299.68 107.10 299.66 111.74 299.62 C 116.54 307.32 121.65 314.83 126.50 322.51 C 127.22 323.33 127.64 324.91 129.00 324.80 C 131.99 324.95 135.08 325.22 137.98 324.30 C 132.46 315.44 126.58 306.80 121.13 297.90 C 127.32 295.83 132.85 291.53 135.67 285.57 C 138.99 279.22 137.98 271.83 138.13 264.94 C 137.93 257.58 139.25 249.53 135.10 242.96 C 130.91 235.60 122.82 230.77 114.38 230.38 C 105.96 230.02 97.53 230.29 89.10 230.23 M 296.56 233.97 C 296.72 264.26 296.39 294.56 296.74 324.85 C 299.59 324.87 302.44 324.86 305.29 324.83 C 305.61 305.55 305.24 286.26 305.52 266.98 C 305.46 261.29 305.91 255.59 305.39 249.92 C 311.84 265.44 318.71 280.77 325.19 296.27 C 328.13 296.45 331.07 296.44 334.02 296.38 C 340.84 281.17 347.07 265.68 354.09 250.56 C 354.23 275.31 354.33 300.05 354.50 324.79 C 357.37 324.85 360.23 324.85 363.10 324.84 C 363.57 295.24 363.13 265.60 363.31 235.98 C 363.35 234.05 363.27 232.11 363.01 230.19 C 359.73 230.18 356.46 230.14 353.20 230.25 C 345.32 248.14 337.83 266.22 329.51 283.90 C 322.33 265.82 314.04 248.18 306.43 230.27 C 303.62 230.19 300.82 230.07 298.02 230.23 C 295.85 229.89 296.80 232.76 296.56 233.97 M 166.42 253.65 C 158.48 255.21 151.45 261.06 148.78 268.75 C 147.16 272.96 147.42 277.54 147.39 281.96 C 147.46 288.87 147.29 295.77 147.47 302.68 C 147.69 310.50 152.33 317.98 159.15 321.79 C 164.13 324.81 170.26 325.41 175.92 324.42 C 184.09 322.74 191.19 316.44 193.66 308.45 C 195.41 302.12 194.52 295.48 194.73 289.01 C 194.54 282.72 195.33 276.31 193.76 270.15 C 190.58 258.71 178.06 251.10 166.42 253.65 M 204.17 253.35 C 203.70 258.54 204.04 263.77 203.94 268.98 C 204.04 287.61 203.76 306.24 204.09 324.86 C 206.96 324.96 209.84 324.95 212.72 324.82 C 212.86 308.57 212.66 292.33 212.81 276.08 C 212.69 269.97 217.26 264.32 223.03 262.63 C 231.58 260.13 240.61 267.38 241.03 276.03 C 241.31 292.27 240.95 308.53 241.21 324.78 C 244.08 324.96 246.96 324.96 249.84 324.86 C 250.10 308.91 249.86 292.95 249.95 277.00 C 249.64 269.37 256.33 262.01 264.08 262.18 C 271.71 262.15 278.32 269.10 278.51 276.62 C 278.82 292.70 278.32 308.79 278.76 324.86 C 281.60 324.92 284.44 324.92 287.28 324.84 C 287.60 309.57 287.33 294.28 287.41 279.00 C 287.60 271.51 284.82 263.82 278.98 258.95 C 269.52 250.22 252.26 251.93 245.49 263.14 C 240.88 257.26 233.71 252.98 226.06 253.37 C 221.36 253.37 216.89 255.13 213.04 257.72 C 212.87 256.26 212.74 254.80 212.57 253.35 C 209.77 253.32 206.97 253.32 204.17 253.35 Z" />
<path fill="#c7c7c7" opacity="1.00" d=" M 97.81 238.75 C 105.08 239.15 112.74 237.42 119.67 240.27 C 125.15 242.53 129.30 248.01 129.27 254.05 C 129.38 261.03 129.31 268.01 129.30 274.99 C 129.51 282.90 122.45 289.60 114.89 290.52 C 109.18 290.85 103.45 290.65 97.74 290.59 C 97.91 273.31 97.74 256.03 97.81 238.75 Z" />
<path fill="#c7c7c7" opacity="1.00" d=" M 166.44 262.62 C 175.28 259.51 185.78 266.57 186.02 275.95 C 186.22 284.28 186.07 292.63 186.10 300.97 C 186.44 307.94 180.92 314.54 174.13 315.76 C 165.70 317.78 156.30 310.90 156.31 302.10 C 156.11 293.73 156.22 285.35 156.24 276.98 C 156.01 270.61 160.47 264.63 166.44 262.62 Z" />
</g>
<g id="#000000ff">
<path fill="#000000" opacity="1.00" d=" M 89.10 230.23 C 97.53 230.29 105.96 230.02 114.38 230.38 C 122.82 230.77 130.91 235.60 135.10 242.96 C 139.25 249.53 137.93 257.58 138.13 264.94 C 137.98 271.83 138.99 279.22 135.67 285.57 C 132.85 291.53 127.32 295.83 121.13 297.90 C 126.58 306.80 132.46 315.44 137.98 324.30 C 135.08 325.22 131.99 324.95 129.00 324.80 C 127.64 324.91 127.22 323.33 126.50 322.51 C 121.65 314.83 116.54 307.32 111.74 299.62 C 107.10 299.66 102.46 299.68 97.81 299.70 C 97.74 308.07 97.72 316.45 97.66 324.82 C 94.78 324.89 91.90 324.90 89.03 324.87 C 88.66 295.25 89.00 265.61 88.84 235.99 C 88.81 234.06 88.90 232.14 89.10 230.23 M 97.81 238.75 C 97.74 256.03 97.91 273.31 97.74 290.59 C 103.45 290.65 109.18 290.85 114.89 290.52 C 122.45 289.60 129.51 282.90 129.30 274.99 C 129.31 268.01 129.38 261.03 129.27 254.05 C 129.30 248.01 125.15 242.53 119.67 240.27 C 112.74 237.42 105.08 239.15 97.81 238.75 Z" />
<path fill="#000000" opacity="1.00" d=" M 296.56 233.97 C 296.80 232.76 295.85 229.89 298.02 230.23 C 300.82 230.07 303.62 230.19 306.43 230.27 C 314.04 248.18 322.33 265.82 329.51 283.90 C 337.83 266.22 345.32 248.14 353.20 230.25 C 356.46 230.14 359.73 230.18 363.01 230.19 C 363.27 232.11 363.35 234.05 363.31 235.98 C 363.13 265.60 363.57 295.24 363.10 324.84 C 360.23 324.85 357.37 324.85 354.50 324.79 C 354.33 300.05 354.23 275.31 354.09 250.56 C 347.07 265.68 340.84 281.17 334.02 296.38 C 331.07 296.44 328.13 296.45 325.19 296.27 C 318.71 280.77 311.84 265.44 305.39 249.92 C 305.91 255.59 305.46 261.29 305.52 266.98 C 305.24 286.26 305.61 305.55 305.29 324.83 C 302.44 324.86 299.59 324.87 296.74 324.85 C 296.39 294.56 296.72 264.26 296.56 233.97 Z" />
<path fill="#000000" opacity="1.00" d=" M 166.42 253.65 C 178.06 251.10 190.58 258.71 193.76 270.15 C 195.33 276.31 194.54 282.72 194.73 289.01 C 194.52 295.48 195.41 302.12 193.66 308.45 C 191.19 316.44 184.09 322.74 175.92 324.42 C 170.26 325.41 164.13 324.81 159.15 321.79 C 152.33 317.98 147.69 310.50 147.47 302.68 C 147.29 295.77 147.46 288.87 147.39 281.96 C 147.42 277.54 147.16 272.96 148.78 268.75 C 151.45 261.06 158.48 255.21 166.42 253.65 M 166.44 262.62 C 160.47 264.63 156.01 270.61 156.24 276.98 C 156.22 285.35 156.11 293.73 156.31 302.10 C 156.30 310.90 165.70 317.78 174.13 315.76 C 180.92 314.54 186.44 307.94 186.10 300.97 C 186.07 292.63 186.22 284.28 186.02 275.95 C 185.78 266.57 175.28 259.51 166.44 262.62 Z" />
<path fill="#000000" opacity="1.00" d=" M 204.17 253.35 C 206.97 253.32 209.77 253.32 212.57 253.35 C 212.74 254.80 212.87 256.26 213.04 257.72 C 216.89 255.13 221.36 253.37 226.06 253.37 C 233.71 252.98 240.88 257.26 245.49 263.14 C 252.26 251.93 269.52 250.22 278.98 258.95 C 284.82 263.82 287.60 271.51 287.41 279.00 C 287.33 294.28 287.60 309.57 287.28 324.84 C 284.44 324.92 281.60 324.92 278.76 324.86 C 278.32 308.79 278.82 292.70 278.51 276.62 C 278.32 269.10 271.71 262.15 264.08 262.18 C 256.33 262.01 249.64 269.37 249.95 277.00 C 249.86 292.95 250.10 308.91 249.84 324.86 C 246.96 324.96 244.08 324.96 241.21 324.78 C 240.95 308.53 241.31 292.27 241.03 276.03 C 240.61 267.38 231.58 260.13 223.03 262.63 C 217.26 264.32 212.69 269.97 212.81 276.08 C 212.66 292.33 212.86 308.57 212.72 324.82 C 209.84 324.95 206.96 324.96 204.09 324.86 C 203.76 306.24 204.04 287.61 203.94 268.98 C 204.04 263.77 203.70 258.54 204.17 253.35 Z" />
</g>
</svg>
