<?xml version="1.0" encoding="UTF-8" ?>
<!DOCTYPE svg PUBLIC "-//W3C//DTD SVG 1.1//EN" "http://www.w3.org/Graphics/SVG/1.1/DTD/svg11.dtd">
<svg width="800pt" height="600pt" viewBox="0 0 800 600" version="1.1" xmlns="http://www.w3.org/2000/svg">
<g id="#909090ff">
<path fill="#909090" opacity="1.00" d=" M 181.05 57.98 C 180.91 54.88 184.02 52.71 186.93 53.02 C 317.31 52.99 447.69 52.99 578.07 53.02 C 580.98 52.70 584.06 54.88 583.95 57.98 C 584.11 63.98 583.93 69.99 584.00 76.00 C 594.36 76.03 604.72 75.95 615.07 76.02 C 617.65 75.80 620.50 77.37 620.86 80.10 C 621.22 85.05 620.90 90.04 620.99 95.01 C 619.29 94.99 617.60 95.00 615.92 94.99 C 598.19 94.96 580.45 94.80 562.73 95.05 C 564.25 96.93 565.71 98.92 567.62 100.45 C 569.94 101.37 572.53 101.09 574.98 101.18 C 588.62 100.91 602.27 101.18 615.92 101.01 C 617.60 101.00 619.29 101.00 620.99 100.99 C 621.00 104.00 621.00 107.00 620.99 110.01 C 619.29 109.99 617.60 110.00 615.91 109.99 C 601.20 109.96 586.48 109.80 571.76 110.03 C 572.60 112.32 573.43 114.62 574.25 116.92 C 588.13 117.29 602.02 116.99 615.91 117.01 C 617.60 117.00 619.29 117.00 620.99 116.99 C 621.00 120.00 621.00 123.00 620.99 126.01 C 619.29 125.99 617.60 126.00 615.92 125.99 C 602.25 125.96 588.59 125.80 574.93 126.02 C 574.97 128.00 574.97 129.99 574.93 131.98 C 588.59 132.20 602.25 132.03 615.92 132.01 C 617.60 132.00 619.29 132.00 620.99 131.99 C 621.00 135.33 621.00 138.67 620.99 142.01 C 619.29 141.99 617.60 142.00 615.91 141.99 C 601.69 142.00 587.45 141.73 573.23 142.07 C 572.50 144.38 571.76 146.70 571.01 149.01 C 585.97 149.16 600.94 149.06 615.91 149.01 C 617.60 149.00 619.29 149.00 621.00 149.00 C 621.00 151.66 621.00 154.33 621.00 157.00 C 619.29 156.99 617.60 157.00 615.92 156.99 C 602.27 156.82 588.63 157.09 574.99 156.82 C 572.53 156.91 569.94 156.63 567.61 157.55 C 565.70 159.08 564.25 161.07 562.73 162.95 C 580.46 163.20 598.19 163.04 615.92 163.01 C 617.60 163.00 619.29 163.00 620.99 162.99 C 621.00 194.69 621.01 226.39 620.99 258.08 C 615.03 257.91 609.07 257.89 603.11 258.11 C 602.84 308.07 603.08 358.04 603.00 408.00 C 603.03 453.99 602.93 499.99 603.05 545.98 C 468.02 546.02 332.98 546.01 197.95 545.98 C 198.06 481.66 197.97 417.33 198.00 353.00 C 197.91 321.37 198.17 289.74 197.88 258.11 C 192.26 257.90 186.63 257.90 181.01 258.08 C 180.99 226.38 180.99 194.69 181.01 162.99 C 182.37 163.00 183.73 163.00 185.09 163.01 C 203.15 163.04 221.21 163.20 239.27 162.95 C 237.74 161.07 236.29 159.08 234.38 157.56 C 232.40 156.70 230.15 156.92 228.04 156.82 C 213.72 157.07 199.40 156.84 185.09 156.99 C 183.73 156.99 182.37 157.00 181.01 157.01 C 181.00 154.33 181.00 151.66 181.01 148.99 C 182.37 149.00 183.73 149.00 185.09 149.01 C 200.39 149.06 215.69 149.15 230.99 149.01 C 230.23 146.70 229.49 144.38 228.77 142.06 C 214.21 141.73 199.65 142.00 185.09 141.99 C 183.73 141.99 182.37 142.00 181.02 142.01 C 180.99 138.67 180.99 135.33 181.02 131.99 C 182.37 132.00 183.73 132.00 185.09 132.01 C 199.08 132.03 213.08 132.20 227.07 131.98 C 227.02 129.99 227.02 128.00 227.07 126.02 C 213.08 125.79 199.08 125.97 185.09 125.99 C 183.73 125.99 182.37 126.00 181.01 126.01 C 180.99 123.00 180.99 120.00 181.01 116.99 C 182.37 117.00 183.73 117.00 185.09 117.01 C 199.31 116.99 213.53 117.29 227.75 116.92 C 228.56 114.62 229.40 112.32 230.24 110.03 C 215.19 109.80 200.14 109.96 185.09 109.99 C 183.73 109.99 182.37 110.00 181.01 110.01 C 180.99 107.00 180.99 104.00 181.01 100.99 C 182.37 101.00 183.73 101.00 185.09 101.01 C 199.06 101.17 213.04 100.91 227.02 101.18 C 229.47 101.09 232.05 101.36 234.38 100.45 C 236.29 98.92 237.74 96.93 239.27 95.05 C 221.21 94.79 203.15 94.96 185.09 94.99 C 183.73 94.99 182.37 95.00 181.01 95.01 C 181.02 82.67 180.93 70.32 181.05 57.98 M 273.32 84.26 C 258.20 86.22 244.55 96.47 238.38 110.40 C 234.43 118.60 233.74 128.02 235.04 136.93 C 237.83 153.46 250.65 167.79 266.80 172.35 C 273.96 174.75 281.58 174.00 289.00 174.06 C 367.34 174.08 445.69 174.02 524.04 174.09 C 533.11 174.01 542.03 170.68 549.30 165.33 C 561.25 156.69 568.43 141.81 567.51 127.06 C 567.25 104.59 547.48 84.62 525.05 83.95 C 446.37 83.92 367.68 83.95 289.00 83.94 C 283.77 83.99 278.52 83.64 273.32 84.26 M 235.44 190.34 C 233.29 191.78 233.35 194.65 233.22 196.95 C 233.32 291.30 233.24 385.66 233.26 480.02 C 233.25 482.47 233.99 485.44 236.63 486.26 C 241.28 487.62 246.22 486.87 251.00 487.01 C 353.69 486.99 456.38 487.00 559.06 487.01 C 561.85 486.94 565.38 486.56 566.70 483.67 C 567.49 479.50 566.99 475.22 567.07 471.00 C 567.05 382.67 567.07 294.33 567.06 206.00 C 566.96 201.46 567.52 196.85 566.71 192.36 C 565.87 190.00 563.19 189.56 561.01 189.55 C 457.01 189.53 353.00 189.57 249.00 189.53 C 244.50 189.67 239.80 188.90 235.44 190.34 M 370.24 495.16 C 367.58 496.28 367.41 499.67 369.69 501.28 C 379.21 510.77 388.65 520.38 398.26 529.78 C 400.44 532.41 403.52 530.20 405.30 528.33 C 413.48 520.17 421.57 511.92 429.85 503.85 C 431.51 502.02 433.93 499.95 433.28 497.18 C 433.04 495.09 430.69 494.82 429.02 494.89 C 410.66 494.93 392.29 495.01 373.93 494.86 C 372.69 494.85 371.45 494.95 370.24 495.16 Z" />
</g>
<g id="#5c5a5aff">
<path fill="#5c5a5a" opacity="1.00" d=" M 273.32 84.26 C 278.52 83.64 283.77 83.99 289.00 83.94 C 367.68 83.95 446.37 83.92 525.05 83.95 C 547.48 84.62 567.25 104.59 567.51 127.06 C 568.43 141.81 561.25 156.69 549.30 165.33 C 542.03 170.68 533.11 174.01 524.04 174.09 C 445.69 174.02 367.34 174.08 289.00 174.06 C 281.58 174.00 273.96 174.75 266.80 172.35 C 250.65 167.79 237.83 153.46 235.04 136.93 C 233.74 128.02 234.43 118.60 238.38 110.40 C 244.55 96.47 258.20 86.22 273.32 84.26 Z" />
<path fill="#5c5a5a" opacity="1.00" d=" M 185.09 94.99 C 203.15 94.96 221.21 94.79 239.27 95.05 C 237.74 96.93 236.29 98.92 234.38 100.45 C 232.05 101.36 229.47 101.09 227.02 101.18 C 213.04 100.91 199.06 101.17 185.09 101.01 C 185.08 99.00 185.08 97.00 185.09 94.99 Z" />
<path fill="#5c5a5a" opacity="1.00" d=" M 562.73 95.05 C 580.45 94.80 598.19 94.96 615.92 94.99 C 615.91 97.00 615.91 99.00 615.92 101.01 C 602.27 101.18 588.62 100.91 574.98 101.18 C 572.53 101.09 569.94 101.37 567.62 100.45 C 565.71 98.92 564.25 96.93 562.73 95.05 Z" />
<path fill="#5c5a5a" opacity="1.00" d=" M 185.09 109.99 C 200.14 109.96 215.19 109.80 230.24 110.03 C 229.40 112.32 228.56 114.62 227.75 116.92 C 213.53 117.29 199.31 116.99 185.09 117.01 C 185.07 114.67 185.07 112.33 185.09 109.99 Z" />
<path fill="#5c5a5a" opacity="1.00" d=" M 571.76 110.03 C 586.48 109.80 601.20 109.96 615.91 109.99 C 615.92 112.33 615.92 114.67 615.91 117.01 C 602.02 116.99 588.13 117.29 574.25 116.92 C 573.43 114.62 572.60 112.32 571.76 110.03 Z" />
<path fill="#5c5a5a" opacity="1.00" d=" M 185.09 125.99 C 199.08 125.97 213.08 125.79 227.07 126.02 C 227.02 128.00 227.02 129.99 227.07 131.98 C 213.08 132.20 199.08 132.03 185.09 132.01 C 185.08 130.00 185.08 127.99 185.09 125.99 Z" />
<path fill="#5c5a5a" opacity="1.00" d=" M 574.93 126.02 C 588.59 125.80 602.25 125.96 615.92 125.99 C 615.91 127.99 615.91 130.00 615.92 132.01 C 602.25 132.03 588.59 132.20 574.93 131.98 C 574.97 129.99 574.97 128.00 574.93 126.02 Z" />
<path fill="#5c5a5a" opacity="1.00" d=" M 185.09 141.99 C 199.65 142.00 214.21 141.73 228.77 142.06 C 229.49 144.38 230.23 146.70 230.99 149.01 C 215.69 149.15 200.39 149.06 185.09 149.01 C 185.07 146.67 185.07 144.33 185.09 141.99 Z" />
<path fill="#5c5a5a" opacity="1.00" d=" M 573.23 142.07 C 587.45 141.73 601.69 142.00 615.91 141.99 C 615.92 144.33 615.92 146.67 615.91 149.01 C 600.94 149.06 585.97 149.16 571.01 149.01 C 571.76 146.70 572.50 144.38 573.23 142.07 Z" />
<path fill="#5c5a5a" opacity="1.00" d=" M 185.09 156.99 C 199.40 156.84 213.72 157.07 228.04 156.82 C 230.15 156.92 232.40 156.70 234.38 157.56 C 236.29 159.08 237.74 161.07 239.27 162.95 C 221.21 163.20 203.15 163.04 185.09 163.01 C 185.08 161.00 185.08 158.99 185.09 156.99 Z" />
<path fill="#5c5a5a" opacity="1.00" d=" M 567.61 157.55 C 569.94 156.63 572.53 156.91 574.99 156.82 C 588.63 157.09 602.27 156.82 615.92 156.99 C 615.91 158.99 615.91 161.00 615.92 163.01 C 598.19 163.04 580.46 163.20 562.73 162.95 C 564.25 161.07 565.70 159.08 567.61 157.55 Z" />
<path fill="#5c5a5a" opacity="1.00" d=" M 235.44 190.34 C 239.80 188.90 244.50 189.67 249.00 189.53 C 353.00 189.57 457.01 189.53 561.01 189.55 C 563.19 189.56 565.87 190.00 566.71 192.36 C 567.52 196.85 566.96 201.46 567.06 206.00 C 567.07 294.33 567.05 382.67 567.07 471.00 C 566.99 475.22 567.49 479.50 566.70 483.67 C 565.38 486.56 561.85 486.94 559.06 487.01 C 456.38 487.00 353.69 486.99 251.00 487.01 C 246.22 486.87 241.28 487.62 236.63 486.26 C 233.99 485.44 233.25 482.47 233.26 480.02 C 233.24 385.66 233.32 291.30 233.22 196.95 C 233.35 194.65 233.29 191.78 235.44 190.34 M 245.30 198.30 C 242.56 198.70 241.33 201.59 241.50 204.09 C 241.50 291.06 241.51 378.03 241.50 465.00 C 241.55 468.84 241.22 472.71 241.70 476.53 C 242.15 479.45 245.31 480.74 247.97 480.60 C 346.97 480.63 445.99 480.58 544.99 480.62 C 548.98 480.48 553.12 481.14 557.00 479.99 C 559.44 479.13 560.11 476.39 560.01 474.09 C 559.98 384.04 560.03 293.98 559.98 203.93 C 560.40 200.52 557.46 197.64 554.06 198.03 C 455.05 197.95 356.02 198.03 257.00 197.99 C 253.10 198.05 249.16 197.68 245.30 198.30 Z" />
<path fill="#5c5a5a" opacity="1.00" d=" M 181.01 258.08 C 186.63 257.90 192.26 257.90 197.88 258.11 C 198.17 289.74 197.91 321.37 198.00 353.00 C 197.97 417.33 198.06 481.66 197.95 545.98 C 193.07 546.01 188.19 546.03 183.32 545.96 C 182.62 545.13 181.86 544.38 181.04 543.69 C 180.96 448.48 181.01 353.28 181.01 258.08 Z" />
<path fill="#5c5a5a" opacity="1.00" d=" M 603.11 258.11 C 609.07 257.89 615.03 257.91 620.99 258.08 C 620.99 353.28 621.04 448.48 620.96 543.69 C 620.14 544.37 619.38 545.13 618.69 545.96 C 613.47 546.03 608.26 546.01 603.05 545.98 C 602.93 499.99 603.03 453.99 603.00 408.00 C 603.08 358.04 602.84 308.07 603.11 258.11 Z" />
<path fill="#5c5a5a" opacity="1.00" d=" M 370.24 495.16 C 371.45 494.95 372.69 494.85 373.93 494.86 C 392.29 495.01 410.66 494.93 429.02 494.89 C 430.69 494.82 433.04 495.09 433.28 497.18 C 433.93 499.95 431.51 502.02 429.85 503.85 C 421.57 511.92 413.48 520.17 405.30 528.33 C 403.52 530.20 400.44 532.41 398.26 529.78 C 388.65 520.38 379.21 510.77 369.69 501.28 C 367.41 499.67 367.58 496.28 370.24 495.16 Z" />
</g>
<g id="#c7c7c7ff">
<path fill="#c7c7c7" opacity="1.00" d=" M 245.30 198.30 C 249.16 197.68 253.10 198.05 257.00 197.99 C 356.02 198.03 455.05 197.95 554.06 198.03 C 557.46 197.64 560.40 200.52 559.98 203.93 C 560.03 293.98 559.98 384.04 560.01 474.09 C 560.11 476.39 559.44 479.13 557.00 479.99 C 553.12 481.14 548.98 480.48 544.99 480.62 C 445.99 480.58 346.97 480.63 247.97 480.60 C 245.31 480.74 242.15 479.45 241.70 476.53 C 241.22 472.71 241.55 468.84 241.50 465.00 C 241.51 378.03 241.50 291.06 241.50 204.09 C 241.33 201.59 242.56 198.70 245.30 198.30 M 264.02 280.28 C 263.71 311.80 263.88 343.33 263.95 374.85 C 266.85 374.89 269.76 374.89 272.67 374.83 C 272.73 366.46 272.70 358.10 272.84 349.73 C 277.49 349.65 282.14 349.63 286.80 349.67 C 292.13 358.12 297.57 366.53 303.14 374.83 C 306.42 374.96 309.72 375.01 312.97 374.46 C 307.64 365.51 301.64 356.97 296.23 348.07 C 301.71 345.72 307.06 342.35 309.94 336.93 C 314.02 330.36 313.04 322.36 313.14 315.00 C 312.97 309.46 313.65 303.81 312.37 298.37 C 309.65 288.25 299.84 280.84 289.45 280.39 C 280.98 280.03 272.49 280.24 264.02 280.28 M 471.72 280.22 C 471.48 311.76 471.52 343.31 471.72 374.84 C 474.58 374.86 477.44 374.86 480.30 374.83 C 480.54 350.18 480.31 325.53 480.64 300.89 C 487.36 315.83 493.44 331.07 500.27 345.96 C 503.03 346.93 506.12 346.22 509.02 346.37 C 515.83 331.40 521.74 316.02 528.93 301.23 C 529.44 325.74 529.24 350.28 529.49 374.80 C 532.38 374.85 535.28 374.85 538.19 374.82 C 538.34 343.30 538.42 311.77 538.14 280.25 C 534.84 280.16 531.55 280.16 528.26 280.21 C 520.39 298.02 512.82 315.97 504.73 333.69 C 496.96 315.90 489.18 298.12 481.47 280.31 C 478.22 280.15 474.97 280.17 471.72 280.22 M 341.44 303.66 C 331.34 305.52 322.93 314.62 322.52 324.99 C 322.27 334.01 322.39 343.04 322.45 352.06 C 322.47 360.11 327.16 367.91 334.18 371.82 C 339.14 374.78 345.18 375.41 350.80 374.44 C 360.08 372.61 368.06 364.71 369.36 355.24 C 370.09 349.19 369.59 343.08 369.73 337.00 C 369.63 329.28 370.69 320.72 365.92 314.05 C 360.88 305.94 350.76 301.76 341.44 303.66 M 379.11 303.38 C 378.86 327.21 378.89 351.06 379.10 374.89 C 381.96 374.97 384.84 374.97 387.71 374.88 C 387.90 358.57 387.63 342.26 387.82 325.95 C 387.74 318.31 395.07 311.31 402.75 312.26 C 410.14 312.73 416.06 319.69 416.07 326.96 C 416.26 342.91 415.97 358.87 416.21 374.82 C 419.09 374.96 421.98 374.97 424.87 374.88 C 425.09 360.92 424.92 346.96 424.96 333.00 C 425.04 329.23 424.55 325.31 425.82 321.68 C 427.89 316.36 433.13 312.05 439.01 312.18 C 446.84 312.11 453.55 319.37 453.53 327.09 C 453.78 343.01 453.37 358.95 453.74 374.87 C 456.58 374.91 459.43 374.91 462.29 374.85 C 462.59 362.57 462.33 350.28 462.42 338.00 C 462.32 332.50 462.81 326.91 461.60 321.49 C 460.20 315.24 456.03 309.75 450.57 306.47 C 440.83 300.60 426.71 303.28 420.46 312.98 C 416.07 307.83 409.98 303.63 403.02 303.40 C 397.72 302.96 392.61 304.81 388.14 307.51 C 387.92 306.11 387.71 304.71 387.49 303.31 C 384.69 303.33 381.90 303.31 379.11 303.38 Z" />
<path fill="#c7c7c7" opacity="1.00" d=" M 272.83 288.79 C 280.54 289.14 288.89 287.17 296.04 290.93 C 300.83 293.43 304.24 298.49 304.26 303.96 C 304.39 310.98 304.32 318.01 304.30 325.04 C 304.48 333.26 296.85 340.17 288.92 340.59 C 283.58 340.81 278.23 340.61 272.88 340.64 C 272.74 323.36 272.81 306.07 272.83 288.79 Z" />
<path fill="#c7c7c7" opacity="1.00" d=" M 341.40 312.64 C 350.22 309.48 360.77 316.54 361.01 325.92 C 361.27 333.61 361.02 341.31 361.13 349.01 C 361.21 352.87 360.81 357.06 358.09 360.05 C 354.36 365.40 346.98 367.39 340.93 365.16 C 335.57 363.17 331.27 357.90 331.31 352.03 C 331.11 343.67 331.21 335.29 331.24 326.92 C 331.05 320.58 335.47 314.65 341.40 312.64 Z" />
</g>
<g id="#000000ff">
<path fill="#000000" opacity="1.00" d=" M 264.02 280.28 C 272.49 280.24 280.98 280.03 289.45 280.39 C 299.84 280.84 309.65 288.25 312.37 298.37 C 313.65 303.81 312.97 309.46 313.14 315.00 C 313.04 322.36 314.02 330.36 309.94 336.93 C 307.06 342.35 301.71 345.72 296.23 348.07 C 301.64 356.97 307.64 365.51 312.97 374.46 C 309.72 375.01 306.42 374.96 303.14 374.83 C 297.57 366.53 292.13 358.12 286.80 349.67 C 282.14 349.63 277.49 349.65 272.84 349.73 C 272.70 358.10 272.73 366.46 272.67 374.83 C 269.76 374.89 266.85 374.89 263.95 374.85 C 263.88 343.33 263.71 311.80 264.02 280.28 M 272.83 288.79 C 272.81 306.07 272.74 323.36 272.88 340.64 C 278.23 340.61 283.58 340.81 288.92 340.59 C 296.85 340.17 304.48 333.26 304.30 325.04 C 304.32 318.01 304.39 310.98 304.26 303.96 C 304.24 298.49 300.83 293.43 296.04 290.93 C 288.89 287.17 280.54 289.14 272.83 288.79 Z" />
<path fill="#000000" opacity="1.00" d=" M 471.72 280.22 C 474.97 280.17 478.22 280.15 481.47 280.31 C 489.18 298.12 496.96 315.90 504.73 333.69 C 512.82 315.97 520.39 298.02 528.26 280.21 C 531.55 280.16 534.84 280.16 538.14 280.25 C 538.42 311.77 538.34 343.30 538.19 374.82 C 535.28 374.85 532.38 374.85 529.49 374.80 C 529.24 350.28 529.44 325.74 528.93 301.23 C 521.74 316.02 515.83 331.40 509.02 346.37 C 506.12 346.22 503.03 346.93 500.27 345.96 C 493.44 331.07 487.36 315.83 480.64 300.89 C 480.31 325.53 480.54 350.18 480.30 374.83 C 477.44 374.86 474.58 374.86 471.72 374.84 C 471.52 343.31 471.48 311.76 471.72 280.22 Z" />
<path fill="#000000" opacity="1.00" d=" M 341.44 303.66 C 350.76 301.76 360.88 305.94 365.92 314.05 C 370.69 320.72 369.63 329.28 369.73 337.00 C 369.59 343.08 370.09 349.19 369.36 355.24 C 368.06 364.71 360.08 372.61 350.80 374.44 C 345.18 375.41 339.14 374.78 334.18 371.82 C 327.16 367.91 322.47 360.11 322.45 352.06 C 322.39 343.04 322.27 334.01 322.52 324.99 C 322.93 314.62 331.34 305.52 341.44 303.66 M 341.40 312.64 C 335.47 314.65 331.05 320.58 331.24 326.92 C 331.21 335.29 331.11 343.67 331.31 352.03 C 331.27 357.90 335.57 363.17 340.93 365.16 C 346.98 367.39 354.36 365.40 358.09 360.05 C 360.81 357.06 361.21 352.87 361.13 349.01 C 361.02 341.31 361.27 333.61 361.01 325.92 C 360.77 316.54 350.22 309.48 341.40 312.64 Z" />
<path fill="#000000" opacity="1.00" d=" M 379.11 303.38 C 381.90 303.31 384.69 303.33 387.49 303.31 C 387.71 304.71 387.92 306.11 388.14 307.51 C 392.61 304.81 397.72 302.96 403.02 303.40 C 409.98 303.63 416.07 307.83 420.46 312.98 C 426.71 303.28 440.83 300.60 450.57 306.47 C 456.03 309.75 460.20 315.24 461.60 321.49 C 462.81 326.91 462.32 332.50 462.42 338.00 C 462.33 350.28 462.59 362.57 462.29 374.85 C 459.43 374.91 456.58 374.91 453.74 374.87 C 453.37 358.95 453.78 343.01 453.53 327.09 C 453.55 319.37 446.84 312.11 439.01 312.18 C 433.13 312.05 427.89 316.36 425.82 321.68 C 424.55 325.31 425.04 329.23 424.96 333.00 C 424.92 346.96 425.09 360.92 424.87 374.88 C 421.98 374.97 419.09 374.96 416.21 374.82 C 415.97 358.87 416.26 342.91 416.07 326.96 C 416.06 319.69 410.14 312.73 402.75 312.26 C 395.07 311.31 387.74 318.31 387.82 325.95 C 387.63 342.26 387.90 358.57 387.71 374.88 C 384.84 374.97 381.96 374.97 379.10 374.89 C 378.89 351.06 378.86 327.21 379.11 303.38 Z" />
</g>
</svg>
