<?xml version="1.0" encoding="UTF-8"?>
<svg id="Layer_1" data-name="Layer 1" xmlns="http://www.w3.org/2000/svg" viewBox="0 0 560 320">
  <defs>
    <style>
      .cls-1 {
        fill: #372869;
      }

      .cls-2 {
        fill: #fff;
      }

      .cls-3, .cls-4, .cls-5, .cls-6, .cls-7 {
        stroke-miterlimit: 3.2;
      }

      .cls-3, .cls-5 {
        stroke: #000;
      }

      .cls-3, .cls-7 {
        stroke-width: 1.06px;
      }

      .cls-8 {
        fill: #231f20;
      }

      .cls-4 {
        stroke-width: .96px;
      }

      .cls-4, .cls-6, .cls-7 {
        fill: #a00;
        stroke: #a00;
      }

      .cls-5, .cls-6 {
        stroke-width: .92px;
      }

      .cls-9 {
        fill: #0060a8;
      }

      .cls-10 {
        fill: #bca3ce;
        stroke: #553f98;
        stroke-miterlimit: 10;
        stroke-width: .5px;
      }

      .cls-11 {
        fill: #553f98;
      }
    </style>
  </defs>
  <rect class="cls-1" x=".95" y=".03" width="559.24" height="320"/>
  <path class="cls-11" d="M405.33-.07c-3.45,16.81-8.27,33.52-14.2,49.97-.77,2.14-1.56,4.27-2.37,6.4-3.15,8.31-6.6,16.53-10.28,24.65-5.58,12.3-11.73,24.36-18.36,36.11-.66,1.19-1.34,2.38-2.03,3.56-.5.88-1,1.74-1.5,2.61h0c-10.64,18.29-22.38,35.76-34.79,52.08-48.21,64.41-136.13,76.41-201.3,120.77-3.92,2.65-7.76,5.44-11.5,8.36-1.03.8-2.04,1.61-3.05,2.44-1.96,1.61-3.9,3.27-5.82,5-2.85,2.53-5.66,5.19-8.43,7.96H-.19V-.07h405.51Z"/>
  <g>
    <path class="cls-2" d="M154.74,123.73c5.19,5.04,12.27,8.16,20.07,8.16h123.33s-26.64-79.45-26.64-79.45c-3.64-8.44-12.17-14.35-22.42-14.35s-18.87,6.1-22.37,14.51l-8.88,25.89-.03-39.06-43.07-.02c-7.79,0-14.78,3.04-19.94,8.06l.02-8.03h-44.1c-8.21,0-15.68,3.5-20.91,9.01v-9.04l-41.56.04c-17.94-.02-32.66,14.01-32.68,32.55,0,8.59,3.75,16.37,9.29,22.14l-9.37-.02v37.77h41.88c11.77-.02,23.43-7.12,27.48-15.63l.12-.35c4.68,9.46,14.45,15.98,25.76,15.98h44.04v-8.16"/>
    <g>
      <path class="cls-9" d="M21.93,125.42l35.31-.04c14.45,0,26.16-11.67,26.16-26.06s-11.71-26.08-26.16-26.08l-9.17.05c-.72,0-1.31-.59-1.31-1.32s.59-1.32,1.31-1.32h35.25s.01-11.05.01-11.05h-35.27c-6.82,0-12.37,5.54-12.37,12.35s5.55,12.33,12.37,12.33l9.21.12c8.28,0,14.98,6.68,14.98,14.91s-6.7,14.93-14.98,14.93H21.95v11.18Z"/>
      <path class="cls-9" d="M21.95,111.65h35.34c6.84,0,12.37-5.52,12.37-12.34s-5.53-12.32-12.37-12.32l-9.21-.1c-8.26,0-14.97-6.68-14.97-14.94s6.71-14.92,14.97-14.92h35.27s-.01-11.11-.01-11.11h-35.25c-14.43,0-26.16,11.66-26.16,26.06s11.72,26.06,26.16,26.06h9.12c.69.01,1.28.58,1.28,1.29s-.59,1.27-1.28,1.27l-35.26.03v11.02ZM110.78,114.32c-6.13,0-11.15-4.88-11.15-11.12v-35.28c0-6,5.02-10.93,11.15-10.93h37.69s0-11.07,0-11.07h-37.69c-12.27,0-22.2,9.9-22.2,22.12v35.16c0,12.22,9.94,22.14,22.2,22.14l37.54.02v-11.05s-37.54.01-37.54.01Z"/>
      <path class="cls-9" d="M102.34,68.04c0-4.67,3.76-8.46,8.44-8.46h37.69v11.09h-32.48c-2.6,0-2.64,2.58-2.64,2.58h27.09v11.04h-38.13v-16.26ZM110.78,111.63c-4.67,0-8.46-3.77-8.46-8.43v-16.27h38.13v11.07h-27.09c.04,2.6,2.64,2.61,2.64,2.61h32.32v11s-37.54.02-37.54.02ZM174.89,114.29c-6.1,0-11.09-4.98-11.09-11.09v-35.16c0-6.12,4.95-11.05,11.07-11.05h36.51v-11.07h-36.59c-12.26,0-22.2,9.9-22.2,22.12v35.16c0,12.22,10.02,22.14,22.28,22.14l36.51.02v-52.1h-31.37v11.04h20.29v29.99h-25.39Z"/>
      <path class="cls-9" d="M166.39,103.2c0,4.68,3.79,8.49,8.46,8.49h22.8v-24.78h-17.64v11.08h6.55l.02,2.6h-6.52c-1.42,0-2.59-1.18-2.59-2.6l-.06-24.75s0-2.57,2.62-2.64h31.34v-11.04s-36.52,0-36.52,0c-4.67,0-8.46,3.79-8.46,8.46v35.16M245.67,59.42c.66-1.88,2.72-2.87,4.6-2.22,1.04.36,1.85,1.18,2.22,2.22l17.72,52.36h-25.95l.03-12.32h8.67l-3.9-11.6-12.72,37.49h-13.08l22.41-65.93Z"/>
      <path class="cls-9" d="M273.79,114.29h-29.48v11.06h44.86l-23.33-69.03c-2.04-6.73-8.78-11.69-16.76-11.69s-14.71,4.93-16.77,11.66l-23.55,69.06h11.75l22.86-67.13c.96-2.3,3.2-3.79,5.69-3.79,2.48,0,4.73,1.49,5.7,3.77l19.04,56.09Z"/>
    </g>
    <path class="cls-8" d="M280.71,54.71c2.07,0,4.06-.82,5.53-2.28,1.47-1.48,2.29-3.43,2.29-5.52s-.82-4.02-2.29-5.5c-1.47-1.46-3.46-2.28-5.53-2.27-4.3,0-7.81,3.48-7.81,7.77,0,2.09.82,4.04,2.3,5.52,1.46,1.46,3.44,2.28,5.5,2.28M274.01,46.91c0-1.78.69-3.47,1.96-4.73,1.26-1.25,2.96-1.96,4.74-1.95,1.8,0,3.49.69,4.76,1.95,1.26,1.25,1.97,2.96,1.97,4.73,0,3.7-3.02,6.7-6.73,6.7-1.78,0-3.47-.69-4.74-1.96-1.28-1.26-1.96-2.94-1.96-4.74Z"/>
    <path class="cls-8" d="M278.71,47.56v3.67h-1.13v-8.63h3.21c1.21.01,1.92.01,2.59.52.65.48.92,1.2.92,2,0,2.02-1.64,2.28-2.06,2.37l2.43,3.75h-1.37l-2.37-3.67h-2.23ZM278.71,46.61h2.29c.37,0,.71,0,1.05-.09.8-.19,1.09-.77,1.09-1.39,0-.23-.02-.81-.52-1.21-.45-.38-1.02-.36-1.69-.36h-2.23v3.05Z"/>
  </g>
  <g>
    <path class="cls-1" d="M298.14,34.4h-123.33c-7.81-.01-14.88-3.13-20.07-8.17v8.15h-44.04c-11.31,0-21.08-6.51-25.76-15.97l-.12.35c-4.06,8.51-15.72,15.61-27.48,15.62H15.46S15.46.02,15.46.02h271.16l11.52,34.38Z"/>
    <g>
      <path class="cls-11" d="M83.4,1.83c0,14.39-11.71,26.06-26.16,26.06l-35.31.04.02-11.18h35.33c8.28,0,14.98-6.69,14.98-14.94,0-.61-.04-1.2-.11-1.79h11.18c.05.6.07,1.2.07,1.81Z"/>
      <path class="cls-11" d="M148.31,16.8l-37.53.02c-6.13,0-11.15-4.89-11.15-11.12V.02h-11.05v5.68c0,12.23,9.93,22.14,22.2,22.14l37.54.02v-11.06ZM69.52.02h-26.65c1.68.34,3.42.52,5.2.52h9.12c.7.01,1.28.58,1.28,1.29s-.58,1.27-1.28,1.27l-35.26.03.02,11.02h35.33c6.84,0,12.37-5.52,12.37-12.34,0-.61-.04-1.2-.13-1.79Z"/>
      <path class="cls-11" d="M200.28.02v16.77h-25.39c-6.11,0-11.1-4.98-11.1-11.09V.02h-11.21v5.68c0,12.23,10.02,22.14,22.28,22.14l36.51.02V.02h-11.09ZM116,3.11s-2.6-.01-2.64-2.61h27.09V.02h-38.13v5.68c0,4.66,3.79,8.43,8.46,8.43h37.53V3.11h-32.31Z"/>
      <path class="cls-11" d="M270.21,14.27L265.39.02h-13.08l.65,1.94h-7.84l.66-1.94h-13.06l-9.46,27.83h13.08l7.94-23.42-.02,9.84h25.95ZM180.02.02v.48h6.55l.02,2.6h-6.52c-1.42,0-2.59-1.18-2.59-2.6V.02h-11.09v5.68c0,4.68,3.79,8.49,8.47,8.49h22.8V.02h-17.64Z"/>
      <polygon class="cls-11" points="218.25 .02 229.98 .02 220.5 27.85 208.76 27.85 211.37 20.19 218.25 .02"/>
      <polygon class="cls-11" points="289.17 27.85 244.31 27.85 244.31 16.79 273.79 16.79 268.1 .02 279.77 .02 289.17 27.85"/>
    </g>
  </g>
  <g>
    <path class="cls-1" d="M290.57,206.81c-1.78,1.4-3.59,2.76-5.43,4.1-5.84,4.25-11.9,8.2-18.15,11.93-3.79,2.26-7.64,4.44-11.55,6.55h-80.63c-7.81,0-14.88-3.13-20.07-8.17v8.15h-44.04c-11.31.01-21.08-6.51-25.76-15.97l-.12.35c-4.06,8.51-15.72,15.61-27.48,15.62H15.46s0-37.76,0-37.76h9.37c-5.53-5.76-9.28-13.54-9.28-22.13.02-18.54,14.74-32.57,32.68-32.55l41.56-.04v9.04c5.23-5.5,12.7-9,20.91-9h44.1v8.03c5.14-5.03,12.14-8.07,19.92-8.07l43.07.02.04,39.06,8.88-25.88c3.5-8.41,12.16-14.51,22.37-14.51s18.79,5.91,22.43,14.35l19.06,56.88Z"/>
    <g>
      <path class="cls-11" d="M21.93,222.92l35.31-.04c14.45,0,26.16-11.67,26.16-26.06s-11.71-26.08-26.16-26.08l-9.17.05c-.72,0-1.31-.59-1.31-1.32s.59-1.32,1.31-1.32h35.25s.01-11.05.01-11.05h-35.27c-6.82,0-12.37,5.54-12.37,12.35s5.55,12.33,12.37,12.33l9.21.12c8.28,0,14.98,6.68,14.98,14.91s-6.7,14.93-14.98,14.93H21.95v11.18Z"/>
      <path class="cls-11" d="M110.78,154.48h37.69s0-11.07,0-11.07h-37.69c-12.27,0-22.2,9.9-22.2,22.13v35.15c0,12.23,9.93,22.14,22.2,22.14l37.54.02v-11.05s-37.54.01-37.54.01c-6.13,0-11.15-4.88-11.15-11.12v-35.28c0-5.99,5.02-10.93,11.15-10.93ZM57.28,184.48l-9.21-.1c-8.27,0-14.97-6.68-14.97-14.94s6.7-14.92,14.97-14.92h35.27s-.02-11.11-.02-11.11h-35.25c-14.43,0-26.15,11.66-26.15,26.06s11.72,26.06,26.15,26.06l9.12.02c.7,0,1.28.56,1.28,1.28s-.58,1.26-1.28,1.26l-35.26.03.02,11.02h35.33c6.84,0,12.37-5.52,12.37-12.34s-5.53-12.32-12.37-12.32Z"/>
      <path class="cls-11" d="M174.86,154.48h36.51v-11.07h-36.6c-12.26,0-22.19,9.9-22.19,22.13v35.15c0,12.23,10.02,22.14,22.28,22.14l36.51.02v-52.1h-31.38v11.04h20.29v29.99h-25.39c-6.11,0-11.1-4.98-11.1-11.09v-35.15c0-6.12,4.96-11.06,11.07-11.06ZM116,198.1s-2.6-.01-2.64-2.61h27.09v-11.07h-38.13v16.27c0,4.66,3.79,8.43,8.46,8.43h37.53v-11.02h-32.31ZM116,168.17h32.47v-11.1h-37.69c-4.68,0-8.44,3.79-8.44,8.47l-.02,16.25h38.13v-11.04h-27.09s.04-2.58,2.64-2.58Z"/>
      <path class="cls-11" d="M270.21,209.26l-17.72-52.35c-.36-1.04-1.18-1.85-2.21-2.22-1.89-.66-3.95.34-4.61,2.22l-22.41,65.93h13.08l7.94-23.42-.02,9.84h25.95ZM249.06,185.34l3.9,11.61h-7.84l3.94-11.61ZM180.02,195.49h6.55l.02,2.6h-6.52c-1.42,0-2.59-1.18-2.59-2.6l-.06-24.75s0-2.57,2.62-2.64h31.34l-.02-11.03h-36.5c-4.68,0-8.47,3.79-8.47,8.47v35.15c0,4.69,3.79,8.5,8.47,8.5h22.8v-24.78h-17.64v11.08Z"/>
      <path class="cls-11" d="M285.14,210.91c-5.84,4.25-11.9,8.2-18.15,11.93h-22.68v-11.06h29.48l-19.04-56.09c-.97-2.28-3.21-3.77-5.7-3.77s-4.73,1.49-5.69,3.79l-22.86,67.13h-11.74l2.61-7.66,20.93-61.4c2.06-6.73,8.78-11.66,16.77-11.66s14.72,4.95,16.77,11.69l19.3,57.1Z"/>
    </g>
    <path class="cls-8" d="M286.24,138.9c-1.47-1.46-3.46-2.27-5.53-2.27-4.29,0-7.8,3.48-7.8,7.77,0,2.09.81,4.04,2.3,5.52,1.46,1.46,3.44,2.28,5.5,2.28s4.06-.82,5.53-2.28c1.47-1.48,2.29-3.43,2.29-5.52s-.82-4.02-2.29-5.5ZM280.71,151.1c-1.78,0-3.46-.7-4.74-1.96-1.28-1.27-1.96-2.95-1.96-4.74s.69-3.47,1.96-4.73c1.26-1.26,2.97-1.96,4.74-1.95,1.81,0,3.49.68,4.76,1.95,1.26,1.25,1.97,2.95,1.97,4.73,0,3.69-3.02,6.7-6.73,6.7Z"/>
    <path class="cls-8" d="M282.24,144.98c.42-.08,2.06-.34,2.06-2.36,0-.8-.27-1.52-.92-2-.67-.51-1.38-.51-2.59-.52h-3.21v8.63h1.13v-3.67h2.23l2.37,3.67h1.36l-2.43-3.75ZM281.01,144.11h-2.3v-3.06h2.23c.67,0,1.24-.01,1.69.37.49.4.51.98.51,1.21,0,.62-.28,1.2-1.08,1.39-.34.09-.69.09-1.05.09Z"/>
  </g>
  <g>
    <path class="cls-1" d="M217.8,247.58c-2.14.95-4.28,1.9-6.43,2.85v1.55h-3.55c-1.97.86-3.94,1.72-5.92,2.58-11.89,5.19-23.82,10.37-35.51,15.91-.87.41-1.74.83-2.6,1.24-3.77,1.81-7.51,3.66-11.21,5.55-4.09,2.1-8.14,4.27-12.13,6.51-5.2,2.92-10.31,5.98-15.3,9.21-1.33.86-2.65,1.73-3.96,2.62-.24.15-.47.31-.7.47-3.92,2.65-7.76,5.44-11.5,8.36-.6.46-1.19.93-1.77,1.41-.43.33-.85.68-1.28,1.03-.33.27-.66.54-.98.81-1.63,1.36-3.24,2.75-4.84,4.19-1.21,1.07-2.41,2.17-3.6,3.29-1.6,1.49-3.19,3.03-4.76,4.6-2.82-2.46-5.15-5.48-6.82-8.86l-.12.35c-1.5,3.15-4.05,6.11-7.26,8.58-.08.06-.17.13-.25.19h-15.75c-1.4.24-2.85.36-4.32.36l-35.31.03v-.39h-6.47v-30.92l9.37.02c-5.53-5.77-9.28-13.56-9.28-22.14.02-18.55,14.74-32.57,32.68-32.56l41.56-.03v9.04c5.23-5.5,12.7-9.01,20.91-9.01h44.1v8.03c5.14-5.02,12.14-8.06,19.92-8.06l43.07.02v13.17Z"/>
    <path class="cls-1" d="M248.43,233.08c-6.03,3.11-12.18,6.07-18.39,8.95,4.25-5.26,10.87-8.76,18.39-8.95Z"/>
    <g>
      <path class="cls-11" d="M83.4,294.32c0,12.91-9.44,23.65-21.84,25.7-1.4.24-2.85.36-4.32.36l-35.31.03v-.39l.02-10.79h35.33c8.28,0,14.98-6.69,14.98-14.93s-6.7-14.91-14.98-14.91l-9.21-.12c-6.82,0-12.37-5.52-12.37-12.33s5.55-12.35,12.37-12.35h35.27l-.02,11.06h-35.25c-.72-.01-1.31.58-1.31,1.31s.59,1.33,1.31,1.33l9.17-.05c14.45,0,26.16,11.67,26.16,26.08Z"/>
      <path class="cls-11" d="M57.28,281.98l-9.21-.1c-8.27,0-14.97-6.69-14.97-14.95s6.7-14.91,14.97-14.91h35.27s-.02-11.11-.02-11.11h-35.25c-14.43,0-26.15,11.66-26.15,26.05s11.72,26.07,26.15,26.07h9.12c.7.01,1.28.58,1.28,1.29s-.58,1.27-1.28,1.27l-35.26.02.02,11.03h35.33c6.84,0,12.37-5.52,12.37-12.34s-5.53-12.32-12.37-12.32ZM110.78,240.91c-12.27,0-22.2,9.9-22.2,22.12v35.16c0,6.81,3.09,12.9,7.94,16.97,1.19-1.12,2.39-2.22,3.6-3.29,1.6-1.44,3.21-2.83,4.84-4.19-3.19-1.93-5.33-5.42-5.33-9.49v-35.28c0-6,5.02-10.93,11.15-10.93h37.69s0-11.07,0-11.07h-37.69Z"/>
      <path class="cls-11" d="M116,265.66h32.47v-11.09h-37.69c-4.68,0-8.44,3.79-8.44,8.46l-.02,16.26h38.13v-11.05h-27.09s.04-2.58,2.64-2.58ZM102.32,281.92v16.27c0,3.39,2.01,6.31,4.9,7.65.58-.48,1.17-.95,1.77-1.41,3.74-2.92,7.58-5.71,11.5-8.36.23-.16.46-.32.7-.47h-5.19s-2.6-.01-2.64-2.62h11.79c4.99-3.23,10.1-6.29,15.3-9.21v-1.85h-38.13ZM174.77,240.91c-12.26,0-22.19,9.9-22.19,22.12v14.23c3.7-1.89,7.44-3.74,11.21-5.55v-8.68c0-6.12,4.96-11.05,11.07-11.05h36.51v-11.07h-36.6Z"/>
      <path class="cls-11" d="M174.86,254.57c-4.68,0-8.47,3.79-8.47,8.46v7.44c11.69-5.54,23.62-10.72,35.51-15.91h-27.04Z"/>
    </g>
  </g>
  <g id="layer1">
    <g id="text4153">
      <path id="path4401" d="M239.92,214.31l17.71-19.61h23.49l-29.17,30.59,30.78,37.22h-25.29l-18.28-21.69-19.13,21.69h-23.68l31.26-34.29-29.65-33.53h25.48l16.48,19.61h0Z"/>
    </g>
    <path id="rect4147" class="cls-5" d="M187.54,242.82v22.39h-2.28v-22.39h2.28Z"/>
    <path id="rect4147-2" class="cls-3" d="M228.1,195.09h-32.22v-2.13h32.22v2.13Z"/>
    <path id="rect4147-2-6" class="cls-3" d="M285.34,195.09h-32.22v-2.13h32.22v2.13Z"/>
    <path id="rect4147-2-1" class="cls-3" d="M226.3,264.02h-32.22v-2.13h32.22v2.13Z"/>
    <path id="rect4147-2-6-7" class="cls-3" d="M286.28,264.7h-32.22v-2.13h32.22v2.13Z"/>
    <g id="text4153-2">
      <path id="path4393" d="M185.16,262.65h-77.57v-16.95c3.47-3.66,7.2-6.88,11.18-9.66,3.47-2.4,7.07-4.42,10.8-6.06,3.79-1.64,7.48-3.03,11.08-4.17,3.66-1.2,7.1-2.21,10.32-3.03,3.28-.88,6.16-1.74,8.62-2.56,2.46-.82,4.42-1.7,5.87-2.65s2.18-2.12,2.18-3.5c0-1.64-1.01-3.06-3.03-4.26-2.02-1.26-5.49-1.89-10.42-1.89-3.6,0-7.17.32-10.7.95-3.54.57-6.95,1.36-10.23,2.37-3.22,1.01-6.28,2.18-9.19,3.5-2.84,1.33-5.37,2.72-7.58,4.17l-7.58-15.44c2.08-1.33,4.58-2.62,7.48-3.88,2.97-1.33,6.38-2.49,10.23-3.5,3.85-1.01,8.18-1.83,12.98-2.46,4.86-.63,10.23-.95,16.1-.95,4.61,0,8.81.54,12.6,1.61,3.85,1.01,7.14,2.43,9.85,4.26,2.72,1.83,4.8,4.04,6.25,6.63,1.52,2.59,2.27,5.43,2.27,8.52,0,3.73-.54,6.76-1.61,9.09-1.07,2.34-2.78,4.33-5.11,5.97s-5.37,3.09-9.09,4.36c-3.66,1.2-8.08,2.53-13.26,3.98-2.4.69-5.02,1.45-7.86,2.27-2.84.82-5.52,1.64-8.05,2.46-2.46.82-4.64,1.61-6.54,2.37-1.83.76-2.94,1.39-3.31,1.89h53.32v16.57h0Z"/>
    </g>
    <g id="text4153-1">
      <path id="path4390" d="M42.09,234.69v-14.4h21.22c3.28,0,6.03-.16,8.24-.47,2.21-.32,3.98-.76,5.3-1.33,1.39-.57,2.37-1.26,2.94-2.08.57-.82.85-1.77.85-2.84,0-2.02-1.39-3.57-4.17-4.64-2.72-1.14-7.42-1.7-14.11-1.7-3.35,0-6.63.25-9.85.76-3.22.51-6.25,1.17-9.09,1.99-2.78.76-5.3,1.64-7.58,2.65-2.27.95-4.17,1.86-5.68,2.75l-6.72-16.1c1.39-.69,3.44-1.45,6.16-2.27,2.78-.88,5.94-1.67,9.47-2.37,3.6-.76,7.48-1.39,11.65-1.89s8.37-.76,12.6-.76c4.55,0,8.9.38,13.07,1.14,4.17.76,7.83,1.96,10.99,3.6,3.22,1.58,5.78,3.6,7.67,6.06,1.89,2.4,2.84,5.27,2.84,8.62,0,2.08-.35,3.98-1.04,5.68-.63,1.7-1.48,3.22-2.56,4.55-1.07,1.26-2.3,2.34-3.69,3.22-1.33.88-2.65,1.55-3.98,1.99,2.65.25,4.89.92,6.72,1.99,1.83,1.07,3.31,2.37,4.45,3.88,1.14,1.45,1.93,3.03,2.37,4.74.51,1.64.76,3.16.76,4.55,0,7.77-3.35,13.42-10.04,16.95-6.63,3.47-16.8,5.21-30.5,5.21-4.48,0-8.84-.32-13.07-.95-4.17-.63-8.02-1.42-11.55-2.37-3.54-.95-6.66-1.96-9.38-3.03-2.72-1.14-4.8-2.18-6.25-3.13l7.39-15.53c1.2.95,3.22,1.99,6.06,3.13,2.9,1.07,6.09,2.08,9.57,3.03s6.91,1.74,10.32,2.37c3.47.63,6.38.95,8.71.95,2.53,0,4.93-.13,7.2-.38,2.34-.25,4.36-.66,6.06-1.23,1.77-.57,3.16-1.29,4.17-2.18,1.07-.88,1.61-1.96,1.61-3.22,0-2.72-1.42-4.55-4.26-5.49-2.78-.95-7.32-1.42-13.64-1.42h-21.22Z"/>
    </g>
    <path id="rect4147-24" class="cls-5" d="M23.85,196.68l8.76,20.61-2.1.89-8.76-20.61,2.1-.89Z"/>
    <path id="rect4147-24-7" class="cls-5" d="M27.87,235.95l-10.94,19.54,1.99,1.11,10.94-19.54-1.99-1.11Z"/>
    <path id="rect4147-0" class="cls-5" d="M44.48,216.34v22.39h-2.28v-22.39h2.28Z"/>
    <path id="rect4147-24-6" class="cls-5" d="M109.88,200.74l8.76,20.61-2.1.89-8.76-20.61,2.1-.89Z"/>
    <g id="text4153-0">
      <path id="path4383" class="cls-4" d="M243.87,210.59l17.71-19.61h23.49l-29.17,30.59,30.78,37.22h-25.29l-18.28-21.69-19.13,21.69h-23.68l31.26-34.29-29.65-33.53h25.48l16.48,19.61Z"/>
    </g>
    <path id="rect4147-7" class="cls-6" d="M191.49,239.1v22.39h-2.28v-22.39h2.28Z"/>
    <path id="rect4147-2-16" class="cls-7" d="M232.05,191.37h-32.22v-2.13h32.22v2.13Z"/>
    <path id="rect4147-2-6-9" class="cls-7" d="M289.29,191.37h-32.22v-2.13h32.22v2.13Z"/>
    <path id="rect4147-2-1-5" class="cls-7" d="M230.25,260.3h-32.22v-2.13h32.22v2.13Z"/>
    <path id="rect4147-2-6-7-6" class="cls-7" d="M290.24,260.99h-32.22v-2.13h32.22v2.13Z"/>
    <g id="text4153-2-9">
      <path id="path4375" class="cls-4" d="M189.11,258.93h-77.57v-16.95c3.47-3.66,7.2-6.88,11.18-9.66,3.47-2.4,7.07-4.42,10.8-6.06,3.79-1.64,7.48-3.03,11.08-4.17,3.66-1.2,7.1-2.21,10.32-3.03,3.28-.88,6.16-1.74,8.62-2.56,2.46-.82,4.42-1.7,5.87-2.65,1.45-.95,2.18-2.12,2.18-3.5,0-1.64-1.01-3.06-3.03-4.26-2.02-1.26-5.49-1.89-10.42-1.89-3.6,0-7.17.32-10.7.95-3.54.57-6.95,1.36-10.23,2.37-3.22,1.01-6.28,2.18-9.19,3.5-2.84,1.33-5.37,2.72-7.58,4.17l-7.58-15.44c2.08-1.33,4.58-2.62,7.48-3.88,2.97-1.33,6.38-2.49,10.23-3.5,3.85-1.01,8.18-1.83,12.98-2.46,4.86-.63,10.23-.95,16.1-.95,4.61,0,8.81.54,12.6,1.61,3.85,1.01,7.14,2.43,9.85,4.26,2.72,1.83,4.8,4.04,6.25,6.63,1.52,2.59,2.27,5.43,2.27,8.52,0,3.73-.54,6.76-1.61,9.09-1.07,2.34-2.78,4.33-5.11,5.97-2.34,1.64-5.37,3.09-9.09,4.36-3.66,1.2-8.08,2.53-13.26,3.98-2.4.69-5.02,1.45-7.86,2.27s-5.52,1.64-8.05,2.46c-2.46.82-4.64,1.61-6.54,2.37-1.83.76-2.94,1.39-3.31,1.89h53.32v16.57h0Z"/>
    </g>
    <g id="text4153-1-7">
      <path id="path4372" class="cls-4" d="M46.04,230.97v-14.4h21.22c3.28,0,6.03-.16,8.24-.47,2.21-.32,3.98-.76,5.3-1.33,1.39-.57,2.37-1.26,2.94-2.08.57-.82.85-1.77.85-2.84,0-2.02-1.39-3.57-4.17-4.64-2.72-1.14-7.42-1.7-14.11-1.7-3.35,0-6.63.25-9.85.76-3.22.51-6.25,1.17-9.09,1.99-2.78.76-5.3,1.64-7.58,2.65-2.27.95-4.17,1.86-5.68,2.75l-6.72-16.1c1.39-.69,3.44-1.45,6.16-2.27,2.78-.88,5.94-1.67,9.47-2.37,3.6-.76,7.48-1.39,11.65-1.89,4.17-.51,8.37-.76,12.6-.76,4.55,0,8.9.38,13.07,1.14,4.17.76,7.83,1.96,10.99,3.6,3.22,1.58,5.78,3.6,7.67,6.06,1.89,2.4,2.84,5.27,2.84,8.62,0,2.08-.35,3.98-1.04,5.68-.63,1.7-1.48,3.22-2.56,4.55-1.07,1.26-2.3,2.34-3.69,3.22-1.33.88-2.65,1.55-3.98,1.99,2.65.25,4.89.92,6.72,1.99,1.83,1.07,3.31,2.37,4.45,3.88,1.14,1.45,1.93,3.03,2.37,4.74.51,1.64.76,3.16.76,4.55,0,7.77-3.35,13.42-10.04,16.95-6.63,3.47-16.8,5.21-30.5,5.21-4.48,0-8.84-.32-13.07-.95-4.17-.63-8.02-1.42-11.55-2.37s-6.66-1.96-9.38-3.03c-2.72-1.14-4.8-2.18-6.25-3.13l7.39-15.53c1.2.95,3.22,1.99,6.06,3.13,2.9,1.07,6.09,2.08,9.57,3.03,3.47.95,6.91,1.74,10.32,2.37,3.47.63,6.38.95,8.71.95,2.53,0,4.93-.13,7.2-.38,2.34-.25,4.36-.66,6.06-1.23,1.77-.57,3.16-1.29,4.17-2.18,1.07-.88,1.61-1.96,1.61-3.22,0-2.72-1.42-4.55-4.26-5.49-2.78-.95-7.32-1.42-13.64-1.42h-21.22Z"/>
    </g>
    <path id="rect4147-24-5" class="cls-6" d="M27.8,192.96l8.76,20.61-2.1.89-8.76-20.61,2.1-.89Z"/>
    <path id="rect4147-24-7-0" class="cls-6" d="M31.82,232.23l-10.94,19.54,1.99,1.11,10.94-19.54-1.99-1.11Z"/>
    <path id="rect4147-0-6" class="cls-6" d="M48.43,212.63v22.39h-2.28v-22.39h2.28Z"/>
    <path id="rect4147-24-6-7" class="cls-6" d="M113.84,197.02l8.76,20.61-2.1.89-8.76-20.61,2.1-.89Z"/>
    <g id="text4358">
      <path id="path4363" d="M296.87,189.51h-2.01v4.96h-.75v-4.96h-2.01v-.67h4.77v.67Z"/>
      <path id="path4365" d="M302.65,194.47h-.75v-4.85l-1.57,3.3h-.45l-1.55-3.3v4.85h-.7v-5.63h1.02l1.5,3.13,1.45-3.13h1.04v5.63Z"/>
    </g>
  </g>
  <g>
    <path class="cls-10" d="M529.2,47.97c10.41.05,20.77.61,30.99,1.63v174.8c-16.83-2.72-36.1-3.56-56.98-.42-50.74,7.62-83.04,32.16-89,36.39-5.97,4.23-19.14,12.62-39.1,11.64-19.97-.96-48.45-21.26-57.19-42-8.75-20.75-10.78-46.57,8.45-82.67,6.53-12.26,16.37-23.8,26.52-33.72,24.89-24.3,55.3-42.22,88.49-52.67,2.19-.69,4.44-1.37,6.75-2.03,21.67-6.21,48.75-11.08,80.71-10.95h.36Z"/>
    <path class="cls-10" d="M558.62,117.49c.5-.97,1.02-1.92,1.57-2.85v60.16c-9.34-18.86-10.61-39.61-1.57-57.31Z"/>
    <ellipse class="cls-10" cx="421.57" cy="155.05" rx="79.72" ry="63.96" transform="translate(7.57 329.31) rotate(-43.02)"/>
    <ellipse class="cls-10" cx="422.03" cy="152.15" rx="61.99" ry="50.88" transform="translate(9.67 328.84) rotate(-43.02)"/>
    <rect class="cls-10" x="503.66" y="125.39" width="39.83" height="15.54" rx="7.14" ry="7.14"/>
    <path class="cls-10" d="M460.29,149.43c0,3.35-.41,6.59-1.18,9.7-3.73,15.1-15.98,26.83-31.35,29.82-2.51.49-5.09.74-7.74.74-3.13,0-6.18-.36-9.11-1.04-15.08-3.49-26.92-15.44-30.23-30.59-.61-2.78-.93-5.67-.93-8.64,0-2.81.29-5.56.84-8.21,3.26-15.73,15.69-28.1,31.45-31.27,2.58-.52,5.24-.79,7.98-.79,3.05,0,6.01.34,8.87.98,15.69,3.52,27.92,16.21,30.77,32.15.42,2.32.63,4.71.63,7.14Z"/>
    <path class="cls-10" d="M460.29,149.43c0,3.35-.41,6.59-1.18,9.7l-22.6-.24c-4.61-.08-8.42,3.59-8.5,8.2l-.25,21.86c-2.51.49-5.09.74-7.74.74-3.13,0-6.18-.36-9.11-1.04l.25-21.87c.08-4.61-3.59-8.42-8.2-8.5l-22.28-.22c-.61-2.78-.93-5.67-.93-8.64,0-2.81.29-5.56.84-8.21l22.66.23c4.61.08,8.42-3.59,8.5-8.2l.28-23.3c2.58-.52,5.24-.79,7.98-.79,3.05,0,6.01.34,8.87.98l-.29,23.41c-.08,4.61,3.59,8.42,8.2,8.5l22.85.24c.42,2.32.63,4.71.63,7.14h0Z"/>
    <circle class="cls-10" cx="420.03" cy="149.43" r="7.21"/>
    <path class="cls-10" d="M560.19,49.36v13.46c-8.48-.89-18.73-1.51-30.99-1.51-38.33,0-56.97,6.02-63.38,7.52-5.12,1.19-7.58-.77-8.41-1.67-.45-.51-.95-.97-1.47-1.41l-7.81-6.83c21.67-6.21,48.75-11.08,80.71-10.95h.73c10.75-.04,20.97.46,30.62,1.39Z"/>
    <path class="cls-10" d="M510.61,128.43h25.93c2.61,0,4.73,2.12,4.73,4.73h0c0,2.61-2.12,4.73-4.73,4.73h-25.93c-2.61,0-4.73-2.12-4.73-4.73h0c0-2.61,2.12-4.73,4.73-4.73Z"/>
    <g>
      <path class="cls-10" d="M526.31,94.23c.96.93,2.27,1.51,3.72,1.51h22.85s-4.93-14.72-4.93-14.72c-.67-1.56-2.26-2.66-4.15-2.66s-3.5,1.13-4.15,2.69l-1.64,4.8v-7.24s-7.99,0-7.99,0c-1.44,0-2.74.56-3.69,1.49v-1.49s-8.17,0-8.17,0c-1.52,0-2.91.65-3.87,1.67v-1.68h-7.7c-3.32,0-6.05,2.6-6.05,6.04,0,1.59.7,3.03,1.72,4.1h-1.74s0,6.99,0,6.99h7.76c2.18,0,4.34-1.32,5.09-2.89l.02-.06c.87,1.75,2.68,2.96,4.77,2.96h8.16v-1.51"/>
      <g>
        <path class="cls-10" d="M501.71,94.54h6.54c2.68,0,4.85-2.17,4.85-4.83s-2.17-4.83-4.85-4.83h-1.7c-.13,0-.24-.1-.24-.24s.11-.25.24-.25h6.53s0-2.05,0-2.05h-6.53c-1.26,0-2.29,1.03-2.29,2.29s1.03,2.28,2.29,2.28l1.71.02c1.53,0,2.77,1.24,2.77,2.76s-1.24,2.77-2.77,2.77h-6.55v2.07Z"/>
        <path class="cls-10" d="M506.55,81.87h6.53v-2.06h-6.53c-2.68,0-4.85,2.16-4.85,4.83s2.17,4.83,4.85,4.83h1.69c.13,0,.24.1.24.24,0,.13-.11.23-.24.23h-6.53v2.05h6.54c1.27,0,2.3-1.03,2.3-2.29s-1.03-2.28-2.3-2.28l-1.7-.02c-1.53,0-2.78-1.24-2.78-2.77s1.25-2.76,2.78-2.76ZM518.17,81.86h6.98v-2.05h-6.98c-2.28,0-4.12,1.83-4.12,4.1v6.51c0,2.27,1.84,4.1,4.12,4.1h6.95s0-2.04,0-2.04h-6.95c-1.14,0-2.07-.9-2.07-2.06v-6.53c0-1.11.93-2.03,2.07-2.03Z"/>
        <path class="cls-10" d="M519.13,84.4h6.02v-2.06h-6.98c-.87,0-1.57.7-1.57,1.57v3.01h7.06v-2.05h-5.02s.01-.47.49-.47ZM519.13,89.94s-.48,0-.49-.48h5.02v-2.05h-7.06v3.01c0,.87.7,1.56,1.57,1.56h6.95v-2.04h-5.99ZM530.04,81.86h6.76v-2.05h-6.78c-2.27,0-4.11,1.83-4.11,4.1v6.51c0,2.27,1.86,4.1,4.13,4.1h6.76s0-9.65,0-9.65h-5.81v2.05h3.76v5.56h-4.71c-1.13,0-2.05-.93-2.05-2.06v-6.51c0-1.14.91-2.05,2.05-2.05Z"/>
        <path class="cls-10" d="M531,84.38h5.8v-2.04h-6.76c-.87,0-1.57.7-1.57,1.57v6.51c0,.87.7,1.58,1.57,1.58h4.22v-4.6h-3.27v2.06h1.22v.48h-1.21c-.26,0-.48-.22-.48-.48v-4.59s-.01-.47.48-.49ZM547.7,92.01l-3.28-9.7c-.07-.19-.22-.34-.41-.41-.35-.12-.73.06-.85.41l-4.16,12.21h2.43l1.47-4.34v1.83s4.8,0,4.8,0ZM543.78,87.58l.73,2.15h-1.46l.73-2.15Z"/>
        <path class="cls-10" d="M548.36,92.48h-5.46v2.05h8.31l-4.32-12.79c-.38-1.25-1.63-2.17-3.11-2.17s-2.73.91-3.11,2.16l-4.36,12.79h2.18l4.24-12.44c.18-.43.59-.7,1.05-.7.46,0,.88.28,1.06.7l3.53,10.39Z"/>
      </g>
      <path class="cls-10" d="M550.67,78.97c-.27-.27-.64-.42-1.02-.42-.8,0-1.45.65-1.45,1.44,0,.39.15.75.43,1.03s.63.42,1.02.42.75-.15,1.02-.42c.27-.28.43-.64.43-1.03s-.16-.74-.43-1.02Z"/>
      <path class="cls-10" d="M549.93,80.1c.08-.01.38-.06.38-.44,0-.15-.05-.28-.17-.37-.12-.09-.25-.09-.48-.09h-.59v1.6h.21v-.69h.41l.44.69h.25l-.45-.7ZM549.7,79.94h-.42v-.57h.41c.12,0,.23,0,.31.07.09.07.1.18.1.22,0,.12-.06.23-.2.26-.07.02-.13.02-.2.02Z"/>
    </g>
  </g>
</svg>