<svg xmlns="http://www.w3.org/2000/svg" id="Layer_1" data-name="Layer 1" viewBox="0 0 560 320"><defs><style>.cls-1{fill:#372869}.cls-2,.cls-3,.cls-4,.cls-5,.cls-6{stroke-miterlimit:3.2}.cls-2,.cls-4,.cls-5{fill:#a00;stroke:#a00}.cls-2,.cls-6{stroke-width:.75px}.cls-8{fill:#231f20}.cls-3,.cls-5{stroke-width:.87px}.cls-3,.cls-6{stroke:#000}.cls-4{stroke-width:.79px}.cls-9{fill:#0060a8}.cls-10{fill:#bca3ce;stroke:#553f98;stroke-miterlimit:10;stroke-width:.5px}.cls-11{fill:#553f98}</style></defs><path d="M.95.03h559.24v320H.95z" class="cls-1"/><path d="M405.33-.07c-3.45 16.81-8.27 33.52-14.2 49.97-.77 2.14-1.56 4.27-2.37 6.4-3.15 8.31-6.6 16.53-10.28 24.65a462 462 0 0 1-18.36 36.11c-.66 1.19-1.34 2.38-2.03 3.56-.5.88-1 1.74-1.5 2.61-10.64 18.29-22.38 35.76-34.79 52.08-48.21 64.41-136.13 76.41-201.3 120.77-3.92 2.65-7.76 5.44-11.5 8.36a168 168 0 0 0-8.87 7.44c-2.85 2.53-5.66 5.19-8.43 7.96H-.19V-.07h405.51Z" class="cls-11"/><path d="M154.74 123.73c5.19 5.04 12.27 8.16 20.07 8.16h123.33L271.5 52.44c-3.64-8.44-12.17-14.35-22.42-14.35s-18.87 6.1-22.37 14.51l-8.88 25.89-.03-39.06-43.07-.02c-7.79 0-14.78 3.04-19.94 8.06l.02-8.03h-44.1c-8.21 0-15.68 3.5-20.91 9.01v-9.04l-41.56.04C30.3 39.43 15.58 53.46 15.56 72c0 8.59 3.75 16.37 9.29 22.14l-9.37-.02v37.77h41.88c11.77-.02 23.43-7.12 27.48-15.63l.12-.35c4.68 9.46 14.45 15.98 25.76 15.98h44.04v-8.16" style="fill:#fff"/><path d="m21.93 125.42 35.31-.04c14.45 0 26.16-11.67 26.16-26.06S71.69 73.24 57.24 73.24l-9.17.05c-.72 0-1.31-.59-1.31-1.32s.59-1.32 1.31-1.32h35.25l.01-11.05H48.06c-6.82 0-12.37 5.54-12.37 12.35s5.55 12.33 12.37 12.33l9.21.12c8.28 0 14.98 6.68 14.98 14.91s-6.7 14.93-14.98 14.93H21.95v11.18Z" class="cls-9"/><path d="M21.95 111.65h35.34c6.84 0 12.37-5.52 12.37-12.34s-5.53-12.32-12.37-12.32l-9.21-.1c-8.26 0-14.97-6.68-14.97-14.94s6.71-14.92 14.97-14.92h35.27l-.01-11.11H48.09c-14.43 0-26.16 11.66-26.16 26.06s11.72 26.06 26.16 26.06h9.12c.69.01 1.28.58 1.28 1.29s-.59 1.27-1.28 1.27l-35.26.03zm88.83 2.67c-6.13 0-11.15-4.88-11.15-11.12V67.92c0-6 5.02-10.93 11.15-10.93h37.69V45.92h-37.69c-12.27 0-22.2 9.9-22.2 22.12v35.16c0 12.22 9.94 22.14 22.2 22.14l37.54.02v-11.05z" class="cls-9"/><path d="M102.34 68.04c0-4.67 3.76-8.46 8.44-8.46h37.69v11.09h-32.48c-2.6 0-2.64 2.58-2.64 2.58h27.09v11.04h-38.13V68.03Zm8.44 43.59c-4.67 0-8.46-3.77-8.46-8.43V86.93h38.13V98h-27.09c.04 2.6 2.64 2.61 2.64 2.61h32.32v11zm64.11 2.66c-6.1 0-11.09-4.98-11.09-11.09V68.04c0-6.12 4.95-11.05 11.07-11.05h36.51V45.92h-36.59c-12.26 0-22.2 9.9-22.2 22.12v35.16c0 12.22 10.02 22.14 22.28 22.14l36.51.02v-52.1h-31.37V84.3h20.29v29.99h-25.39Z" class="cls-9"/><path d="M166.39 103.2c0 4.68 3.79 8.49 8.46 8.49h22.8V86.91h-17.64v11.08h6.55l.02 2.6h-6.52c-1.42 0-2.59-1.18-2.59-2.6l-.06-24.75s0-2.57 2.62-2.64h31.34V59.56h-36.52c-4.67 0-8.46 3.79-8.46 8.46v35.16m79.28-43.76a3.623 3.623 0 0 1 4.6-2.22 3.62 3.62 0 0 1 2.22 2.22l17.72 52.36h-25.95l.03-12.32h8.67l-3.9-11.6-12.72 37.49h-13.08z" class="cls-9"/><path d="M273.79 114.29h-29.48v11.06h44.86l-23.33-69.03c-2.04-6.73-8.78-11.69-16.76-11.69s-14.71 4.93-16.77 11.66l-23.55 69.06h11.75l22.86-67.13c.96-2.3 3.2-3.79 5.69-3.79 2.48 0 4.73 1.49 5.7 3.77l19.04 56.09Z" class="cls-9"/><path d="M280.71 54.71c2.07 0 4.06-.82 5.53-2.28 1.47-1.48 2.29-3.43 2.29-5.52s-.82-4.02-2.29-5.5a7.8 7.8 0 0 0-5.53-2.27c-4.3 0-7.81 3.48-7.81 7.77 0 2.09.82 4.04 2.3 5.52a7.78 7.78 0 0 0 5.5 2.28m-6.69-7.8c0-1.78.69-3.47 1.96-4.73a6.68 6.68 0 0 1 4.74-1.95c1.8 0 3.49.69 4.76 1.95a6.68 6.68 0 0 1 1.97 4.73c0 3.7-3.02 6.7-6.73 6.7-1.78 0-3.47-.69-4.74-1.96-1.28-1.26-1.96-2.94-1.96-4.74" class="cls-8"/><path d="M278.71 47.56v3.67h-1.13V42.6h3.21c1.21.01 1.92.01 2.59.52.65.48.92 1.2.92 2 0 2.02-1.64 2.28-2.06 2.37l2.43 3.75h-1.37l-2.37-3.67h-2.23Zm0-.95H281c.37 0 .71 0 1.05-.09.8-.19 1.09-.77 1.09-1.39 0-.23-.02-.81-.52-1.21-.45-.38-1.02-.36-1.69-.36h-2.23v3.05Z" class="cls-8"/><path d="M298.14 34.4H174.81c-7.81-.01-14.88-3.13-20.07-8.17v8.15H110.7c-11.31 0-21.08-6.51-25.76-15.97l-.12.35c-4.06 8.51-15.72 15.61-27.48 15.62H15.46V.02h271.16z" class="cls-1"/><path d="M83.4 1.83c0 14.39-11.71 26.06-26.16 26.06l-35.31.04.02-11.18h35.33c8.28 0 14.98-6.69 14.98-14.94 0-.61-.04-1.2-.11-1.79h11.18c.05.6.07 1.2.07 1.81" class="cls-11"/><path d="m148.31 16.8-37.53.02c-6.13 0-11.15-4.89-11.15-11.12V.02H88.58V5.7c0 12.23 9.93 22.14 22.2 22.14l37.54.02V16.8ZM69.52.02H42.87c1.68.34 3.42.52 5.2.52h9.12c.7.01 1.28.58 1.28 1.29s-.58 1.27-1.28 1.27l-35.26.03.02 11.02h35.33c6.84 0 12.37-5.52 12.37-12.34 0-.61-.04-1.2-.13-1.79" class="cls-11"/><path d="M200.28.02v16.77h-25.39c-6.11 0-11.1-4.98-11.1-11.09V.02h-11.21V5.7c0 12.23 10.02 22.14 22.28 22.14l36.51.02V.02zM116 3.11s-2.6-.01-2.64-2.61h27.09V.02h-38.13V5.7c0 4.66 3.79 8.43 8.46 8.43h37.53V3.11z" class="cls-11"/><path d="M270.21 14.27 265.39.02h-13.08l.65 1.94h-7.84l.66-1.94h-13.06l-9.46 27.83h13.08l7.94-23.42-.02 9.84zM180.02.02V.5h6.55l.02 2.6h-6.52c-1.42 0-2.59-1.18-2.59-2.6V.02h-11.09V5.7c0 4.68 3.79 8.49 8.47 8.49h22.8V.02zm38.23 0h11.73l-9.48 27.83h-11.74l2.61-7.66z" class="cls-11"/><path d="M289.17 27.85h-44.86V16.79h29.48L268.1.02h11.67z" class="cls-11"/><path d="M290.57 206.81c-1.78 1.4-3.59 2.76-5.43 4.1-5.84 4.25-11.9 8.2-18.15 11.93-3.79 2.26-7.64 4.44-11.55 6.55h-80.63c-7.81 0-14.88-3.13-20.07-8.17v8.15H110.7c-11.31.01-21.08-6.51-25.76-15.97l-.12.35c-4.06 8.51-15.72 15.61-27.48 15.62H15.46v-37.76h9.37c-5.53-5.76-9.28-13.54-9.28-22.13.02-18.54 14.74-32.57 32.68-32.55l41.56-.04v9.04c5.23-5.5 12.7-9 20.91-9h44.1v8.03c5.14-5.03 12.14-8.07 19.92-8.07l43.07.02.04 39.06 8.88-25.88c3.5-8.41 12.16-14.51 22.37-14.51s18.79 5.91 22.43 14.35z" class="cls-1"/><path d="m21.93 222.92 35.31-.04c14.45 0 26.16-11.67 26.16-26.06s-11.71-26.08-26.16-26.08l-9.17.05c-.72 0-1.31-.59-1.31-1.32s.59-1.32 1.31-1.32h35.25l.01-11.05H48.06c-6.82 0-12.37 5.54-12.37 12.35s5.55 12.33 12.37 12.33l9.21.12c8.28 0 14.98 6.68 14.98 14.91s-6.7 14.93-14.98 14.93H21.95v11.18Z" class="cls-11"/><path d="M110.78 154.48h37.69v-11.07h-37.69c-12.27 0-22.2 9.9-22.2 22.13v35.15c0 12.23 9.93 22.14 22.2 22.14l37.54.02V211.8l-37.54.01c-6.13 0-11.15-4.88-11.15-11.12v-35.28c0-5.99 5.02-10.93 11.15-10.93m-53.5 30-9.21-.1c-8.27 0-14.97-6.68-14.97-14.94s6.7-14.92 14.97-14.92h35.27l-.02-11.11H48.07c-14.43 0-26.15 11.66-26.15 26.06s11.72 26.06 26.15 26.06l9.12.02c.7 0 1.28.56 1.28 1.28s-.58 1.26-1.28 1.26l-35.26.03.02 11.02h35.33c6.84 0 12.37-5.52 12.37-12.34s-5.53-12.32-12.37-12.32" class="cls-11"/><path d="M174.86 154.48h36.51v-11.07h-36.6c-12.26 0-22.19 9.9-22.19 22.13v35.15c0 12.23 10.02 22.14 22.28 22.14l36.51.02v-52.1h-31.38v11.04h20.29v29.99h-25.39c-6.11 0-11.1-4.98-11.1-11.09v-35.15c0-6.12 4.96-11.06 11.07-11.06M116 198.1s-2.6-.01-2.64-2.61h27.09v-11.07h-38.13v16.27c0 4.66 3.79 8.43 8.46 8.43h37.53V198.1zm0-29.93h32.47v-11.1h-37.69c-4.68 0-8.44 3.79-8.44 8.47l-.02 16.25h38.13v-11.04h-27.09s.04-2.58 2.64-2.58" class="cls-11"/><path d="m270.21 209.26-17.72-52.35a3.63 3.63 0 0 0-2.21-2.22c-1.89-.66-3.95.34-4.61 2.22l-22.41 65.93h13.08l7.94-23.42-.02 9.84zm-21.15-23.92 3.9 11.61h-7.84zm-69.04 10.15h6.55l.02 2.6h-6.52c-1.42 0-2.59-1.18-2.59-2.6l-.06-24.75s0-2.57 2.62-2.64h31.34l-.02-11.03h-36.5c-4.68 0-8.47 3.79-8.47 8.47v35.15c0 4.69 3.79 8.5 8.47 8.5h22.8v-24.78h-17.64z" class="cls-11"/><path d="M285.14 210.91c-5.84 4.25-11.9 8.2-18.15 11.93h-22.68v-11.06h29.48l-19.04-56.09c-.97-2.28-3.21-3.77-5.7-3.77s-4.73 1.49-5.69 3.79l-22.86 67.13h-11.74l2.61-7.66 20.93-61.4c2.06-6.73 8.78-11.66 16.77-11.66s14.72 4.95 16.77 11.69z" class="cls-11"/><path d="M286.24 138.9a7.84 7.84 0 0 0-5.53-2.27c-4.29 0-7.8 3.48-7.8 7.77 0 2.09.81 4.04 2.3 5.52 1.46 1.46 3.44 2.28 5.5 2.28s4.06-.82 5.53-2.28c1.47-1.48 2.29-3.43 2.29-5.52s-.82-4.02-2.29-5.5m-5.53 12.2c-1.78 0-3.46-.7-4.74-1.96-1.28-1.27-1.96-2.95-1.96-4.74s.69-3.47 1.96-4.73a6.66 6.66 0 0 1 4.74-1.95c1.81 0 3.49.68 4.76 1.95a6.66 6.66 0 0 1 1.97 4.73c0 3.69-3.02 6.7-6.73 6.7" class="cls-8"/><path d="M282.24 144.98c.42-.08 2.06-.34 2.06-2.36 0-.8-.27-1.52-.92-2-.67-.51-1.38-.51-2.59-.52h-3.21v8.63h1.13v-3.67h2.23l2.37 3.67h1.36zm-1.23-.87h-2.3v-3.06h2.23c.67 0 1.24-.01 1.69.37.49.4.51.98.51 1.21 0 .62-.28 1.2-1.08 1.39-.34.09-.69.09-1.05.09" class="cls-8"/><path d="M217.8 247.58c-2.14.95-4.28 1.9-6.43 2.85v1.55h-3.55c-1.97.86-3.94 1.72-5.92 2.58-11.89 5.19-23.82 10.37-35.51 15.91-.87.41-1.74.83-2.6 1.24a508 508 0 0 0-11.21 5.55c-4.09 2.1-8.14 4.27-12.13 6.51-5.2 2.92-10.31 5.98-15.3 9.21-1.33.86-2.65 1.73-3.96 2.62-.24.15-.47.31-.7.47-3.92 2.65-7.76 5.44-11.5 8.36q-.9.69-1.77 1.41c-.43.33-.85.68-1.28 1.03-.33.27-.66.54-.98.81-1.63 1.36-3.24 2.75-4.84 4.19-1.21 1.07-2.41 2.17-3.6 3.29-1.6 1.49-3.19 3.03-4.76 4.6a28.6 28.6 0 0 1-6.82-8.86l-.12.35c-1.5 3.15-4.05 6.11-7.26 8.58l-.25.19H61.56c-1.4.24-2.85.36-4.32.36l-35.31.03v-.39h-6.47V289.1l9.37.02c-5.53-5.77-9.28-13.56-9.28-22.14.02-18.55 14.74-32.57 32.68-32.56l41.56-.03v9.04c5.23-5.5 12.7-9.01 20.91-9.01h44.1v8.03c5.14-5.02 12.14-8.06 19.92-8.06l43.07.02v13.17Zm30.63-14.5c-6.03 3.11-12.18 6.07-18.39 8.95 4.25-5.26 10.87-8.76 18.39-8.95" class="cls-1"/><path d="M83.4 294.32c0 12.91-9.44 23.65-21.84 25.7-1.4.24-2.85.36-4.32.36l-35.31.03v-.39l.02-10.79h35.33c8.28 0 14.98-6.69 14.98-14.93s-6.7-14.91-14.98-14.91l-9.21-.12c-6.82 0-12.37-5.52-12.37-12.33s5.55-12.35 12.37-12.35h35.27l-.02 11.06H48.07c-.72-.01-1.31.58-1.31 1.31s.59 1.33 1.31 1.33l9.17-.05c14.45 0 26.16 11.67 26.16 26.08" class="cls-11"/><path d="m57.28 281.98-9.21-.1c-8.27 0-14.97-6.69-14.97-14.95s6.7-14.91 14.97-14.91h35.27l-.02-11.11H48.07c-14.43 0-26.15 11.66-26.15 26.05s11.72 26.07 26.15 26.07h9.12c.7.01 1.28.58 1.28 1.29s-.58 1.27-1.28 1.27l-35.26.02.02 11.03h35.33c6.84 0 12.37-5.52 12.37-12.34s-5.53-12.32-12.37-12.32m53.5-41.07c-12.27 0-22.2 9.9-22.2 22.12v35.16c0 6.81 3.09 12.9 7.94 16.97 1.19-1.12 2.39-2.22 3.6-3.29 1.6-1.44 3.21-2.83 4.84-4.19a11.03 11.03 0 0 1-5.33-9.49v-35.28c0-6 5.02-10.93 11.15-10.93h37.69v-11.07z" class="cls-11"/><path d="M116 265.66h32.47v-11.09h-37.69c-4.68 0-8.44 3.79-8.44 8.46l-.02 16.26h38.13v-11.05h-27.09s.04-2.58 2.64-2.58m-13.68 16.26v16.27c0 3.39 2.01 6.31 4.9 7.65q.87-.72 1.77-1.41c3.74-2.92 7.58-5.71 11.5-8.36.23-.16.46-.32.7-.47H116s-2.6-.01-2.64-2.62h11.79c4.99-3.23 10.1-6.29 15.3-9.21v-1.85zm72.45-41.01c-12.26 0-22.19 9.9-22.19 22.12v14.23a508 508 0 0 1 11.21-5.55v-8.68c0-6.12 4.96-11.05 11.07-11.05h36.51v-11.07z" class="cls-11"/><path d="M174.86 254.57c-4.68 0-8.47 3.79-8.47 8.46v7.44c11.69-5.54 23.62-10.72 35.51-15.91h-27.04Z" class="cls-11"/><g id="layer1"><g id="text4153"><path id="path4401" d="m218.2 181.64 14.5-16.06h19.24l-23.89 25.05 25.21 30.48h-20.71l-14.97-17.76-15.67 17.76h-19.39l25.6-28.08-24.28-27.46h20.87l13.5 16.06Z"/></g><path id="rect4147" d="M175.3 204.98v18.34h-1.87v-18.34z" class="cls-6"/><path id="rect4147-2" d="M208.52 165.9h-26.38v-1.75h26.38z" class="cls-3"/><path id="rect4147-2-6" d="M255.39 165.9h-26.38v-1.75h26.38z" class="cls-3"/><path id="rect4147-2-1" d="M207.04 222.35h-26.38v-1.75h26.38z" class="cls-3"/><path id="rect4147-2-6-7" d="M256.17 222.91h-26.38v-1.75h26.38z" class="cls-3"/><g id="text4153-2"><path id="path4393" d="M173.35 221.23h-63.53v-13.88c2.84-3 5.89-5.64 9.15-7.91 2.84-1.96 5.79-3.62 8.84-4.96 3.1-1.34 6.13-2.48 9.08-3.41 3-.98 5.82-1.81 8.45-2.48a127 127 0 0 0 7.06-2.09c2.02-.67 3.62-1.4 4.81-2.17s1.78-1.73 1.78-2.87c0-1.34-.83-2.51-2.48-3.49-1.65-1.03-4.5-1.55-8.53-1.55q-4.425 0-8.76.78c-2.9.47-5.69 1.11-8.38 1.94a64 64 0 0 0-7.52 2.87c-2.33 1.09-4.4 2.22-6.21 3.41l-6.21-12.64c1.71-1.09 3.75-2.15 6.13-3.18 2.43-1.09 5.22-2.04 8.38-2.87 3.15-.83 6.7-1.5 10.63-2.02 3.98-.52 8.38-.78 13.19-.78q5.655 0 10.32 1.32c3.15.83 5.84 1.99 8.07 3.49 2.22 1.5 3.93 3.31 5.12 5.43 1.24 2.12 1.86 4.45 1.86 6.98 0 3.05-.44 5.53-1.32 7.45-.88 1.91-2.28 3.54-4.19 4.89s-4.4 2.53-7.45 3.57c-3 .98-6.62 2.07-10.86 3.26-1.96.57-4.11 1.19-6.44 1.86s-4.52 1.34-6.59 2.02c-2.02.67-3.8 1.32-5.35 1.94-1.5.62-2.4 1.14-2.71 1.55h43.67v13.57Z"/></g><g id="text4153-1"><path id="path4390" d="M56.18 198.33v-11.79h17.37q4.035 0 6.75-.39c1.81-.26 3.26-.62 4.34-1.09 1.14-.47 1.94-1.03 2.4-1.71.47-.67.7-1.45.7-2.33 0-1.65-1.14-2.92-3.41-3.8-2.22-.93-6.08-1.4-11.56-1.4-2.74 0-5.43.21-8.07.62s-5.12.96-7.45 1.63c-2.28.62-4.34 1.34-6.21 2.17q-2.79 1.17-4.65 2.25l-5.51-13.19q1.71-.855 5.04-1.86c2.28-.72 4.86-1.37 7.76-1.94 2.95-.62 6.13-1.14 9.54-1.55s6.85-.62 10.32-.62c3.72 0 7.29.31 10.7.93s6.41 1.6 9 2.95c2.64 1.29 4.73 2.95 6.28 4.96 1.55 1.96 2.33 4.32 2.33 7.06 0 1.71-.28 3.26-.85 4.65-.52 1.4-1.22 2.64-2.09 3.72q-1.32 1.545-3.03 2.64c-1.09.72-2.17 1.27-3.26 1.63 2.17.21 4.01.75 5.51 1.63s2.71 1.94 3.65 3.18c.93 1.19 1.58 2.48 1.94 3.88.41 1.34.62 2.59.62 3.72 0 6.36-2.74 10.99-8.22 13.88-5.43 2.84-13.75 4.27-24.98 4.27-3.67 0-7.24-.26-10.7-.78-3.41-.52-6.57-1.16-9.46-1.94-2.9-.78-5.46-1.6-7.68-2.48-2.22-.93-3.93-1.78-5.12-2.56l6.05-12.72c.98.78 2.64 1.63 4.96 2.56 2.38.88 4.99 1.71 7.83 2.48s5.66 1.42 8.45 1.94q4.26.78 7.14.78c2.07 0 4.03-.1 5.89-.31 1.91-.21 3.57-.54 4.96-1.01 1.45-.47 2.59-1.06 3.41-1.78q1.32-1.08 1.32-2.64c0-2.22-1.16-3.72-3.49-4.5-2.28-.78-6-1.16-11.17-1.16H56.16Z"/></g><path id="rect4147-24" d="m41.24 167.2 7.17 16.88-1.72.73-7.17-16.88z" class="cls-6"/><path id="rect4147-24-7" d="m44.54 199.36-8.96 16 1.63.91 8.96-16z" class="cls-6"/><path id="rect4147-0" d="M58.14 183.3v18.34h-1.87V183.3z" class="cls-6"/><path id="rect4147-24-6" d="m111.71 170.52 7.17 16.88-1.72.73-7.17-16.88z" class="cls-6"/><g id="text4153-0"><path id="path4383" d="m221.44 178.59 14.5-16.06h19.24l-23.89 25.05 25.21 30.48h-20.71l-14.97-17.76-15.67 17.76h-19.39l25.6-28.08-24.28-27.46h20.87l13.5 16.06Z" class="cls-4"/></g><path id="rect4147-7" d="M178.54 201.94v18.34h-1.87v-18.34z" class="cls-2"/><path id="rect4147-2-16" d="M211.75 162.85h-26.38v-1.75h26.38z" class="cls-5"/><path id="rect4147-2-6-9" d="M258.63 162.85h-26.38v-1.75h26.38z" class="cls-5"/><path id="rect4147-2-1-5" d="M210.28 219.3H183.9v-1.75h26.38z" class="cls-5"/><path id="rect4147-2-6-7-6" d="M259.4 219.86h-26.38v-1.75h26.38z" class="cls-5"/><g id="text4153-2-9"><path id="path4375" d="M176.59 218.18h-63.53V204.3c2.84-3 5.89-5.64 9.15-7.91 2.84-1.96 5.79-3.62 8.84-4.96 3.1-1.34 6.13-2.48 9.08-3.41 3-.98 5.82-1.81 8.45-2.48a127 127 0 0 0 7.06-2.09c2.02-.67 3.62-1.4 4.81-2.17 1.19-.78 1.78-1.73 1.78-2.87 0-1.34-.83-2.51-2.48-3.49-1.65-1.03-4.5-1.55-8.53-1.55q-4.425 0-8.76.78c-2.9.47-5.69 1.11-8.38 1.94a64 64 0 0 0-7.52 2.87c-2.33 1.09-4.4 2.22-6.21 3.41l-6.21-12.64c1.71-1.09 3.75-2.15 6.13-3.18 2.43-1.09 5.22-2.04 8.38-2.87 3.15-.83 6.7-1.5 10.63-2.02 3.98-.52 8.38-.78 13.19-.78q5.655 0 10.32 1.32c3.15.83 5.84 1.99 8.07 3.49 2.22 1.5 3.93 3.31 5.12 5.43 1.24 2.12 1.86 4.45 1.86 6.98 0 3.05-.44 5.53-1.32 7.45-.88 1.91-2.28 3.54-4.19 4.89-1.91 1.34-4.4 2.53-7.45 3.57-3 .98-6.62 2.07-10.86 3.26-1.96.57-4.11 1.19-6.44 1.86s-4.52 1.34-6.59 2.02c-2.02.67-3.8 1.32-5.35 1.94-1.5.62-2.4 1.14-2.71 1.55h43.67v13.57Z" class="cls-4"/></g><g id="text4153-1-7"><path id="path4372" d="M59.42 195.28v-11.79h17.37q4.035 0 6.75-.39c1.81-.26 3.26-.62 4.34-1.09 1.14-.47 1.94-1.03 2.4-1.71.47-.67.7-1.45.7-2.33 0-1.65-1.14-2.92-3.41-3.8-2.22-.93-6.08-1.4-11.56-1.4-2.74 0-5.43.21-8.07.62s-5.12.96-7.45 1.63c-2.28.62-4.34 1.34-6.21 2.17q-2.79 1.17-4.65 2.25l-5.51-13.19q1.71-.855 5.04-1.86c2.28-.72 4.86-1.37 7.76-1.94 2.95-.62 6.13-1.14 9.54-1.55s6.85-.62 10.32-.62c3.72 0 7.29.31 10.7.93s6.41 1.6 9 2.95c2.64 1.29 4.73 2.95 6.28 4.96 1.55 1.96 2.33 4.32 2.33 7.06 0 1.71-.28 3.26-.85 4.65-.52 1.4-1.22 2.64-2.09 3.72q-1.32 1.545-3.03 2.64c-1.09.72-2.17 1.27-3.26 1.63 2.17.21 4.01.75 5.51 1.63s2.71 1.94 3.65 3.18c.93 1.19 1.58 2.48 1.94 3.88.41 1.34.62 2.59.62 3.72 0 6.36-2.74 10.99-8.22 13.88-5.43 2.84-13.75 4.27-24.98 4.27-3.67 0-7.24-.26-10.7-.78-3.41-.52-6.57-1.16-9.46-1.94s-5.46-1.6-7.68-2.48c-2.22-.93-3.93-1.78-5.12-2.56l6.05-12.72c.98.78 2.64 1.63 4.96 2.56 2.38.88 4.99 1.71 7.83 2.48 2.84.78 5.66 1.42 8.45 1.94q4.26.78 7.14.78c2.07 0 4.03-.1 5.89-.31 1.91-.21 3.57-.54 4.96-1.01 1.45-.47 2.59-1.06 3.41-1.78q1.32-1.08 1.32-2.64c0-2.22-1.16-3.72-3.49-4.5-2.28-.78-6-1.16-11.17-1.16H59.4Z" class="cls-4"/></g><path id="rect4147-24-5" d="m44.48 164.16 7.17 16.88-1.72.73-7.17-16.88z" class="cls-2"/><path id="rect4147-24-7-0" d="m47.78 196.32-8.96 16 1.63.91 8.96-16z" class="cls-2"/><path id="rect4147-0-6" d="M61.37 180.26v18.34H59.5v-18.34z" class="cls-2"/><path id="rect4147-24-6-7" d="m114.94 167.48 7.17 16.88-1.72.73-7.17-16.88z" class="cls-2"/><g id="text4358"><path id="path4363" d="M264.84 161.33h-1.65v4.07h-.61v-4.07h-1.65v-.54h3.91z"/><path id="path4365" d="M269.57 165.39h-.61v-3.97l-1.28 2.7h-.37l-1.27-2.7v3.97h-.57v-4.61h.84l1.23 2.57 1.19-2.57h.85v4.61Z"/></g></g><path d="M529.2 47.97c10.41.05 20.77.61 30.99 1.63v174.8c-16.83-2.72-36.1-3.56-56.98-.42-50.74 7.62-83.04 32.16-89 36.39-5.97 4.23-19.14 12.62-39.1 11.64-19.97-.96-48.45-21.26-57.19-42-8.75-20.75-10.78-46.57 8.45-82.67 6.53-12.26 16.37-23.8 26.52-33.72 24.89-24.3 55.3-42.22 88.49-52.67 2.19-.69 4.44-1.37 6.75-2.03 21.67-6.21 48.75-11.08 80.71-10.95z" class="cls-10"/><path d="M558.62 117.49c.5-.97 1.02-1.92 1.57-2.85v60.16c-9.34-18.86-10.61-39.61-1.57-57.31Z" class="cls-10"/><ellipse cx="421.57" cy="155.05" class="cls-10" rx="79.72" ry="63.96" transform="rotate(-43.02 421.572 155.051)"/><ellipse cx="422.03" cy="152.15" class="cls-10" rx="61.99" ry="50.88" transform="rotate(-43.02 422.026 152.152)"/><rect width="39.83" height="15.54" x="503.66" y="125.39" class="cls-10" rx="7.14" ry="7.14"/><path d="M460.29 149.43c0 3.35-.41 6.59-1.18 9.7-3.73 15.1-15.98 26.83-31.35 29.82-2.51.49-5.09.74-7.74.74-3.13 0-6.18-.36-9.11-1.04-15.08-3.49-26.92-15.44-30.23-30.59a40.3 40.3 0 0 1-.93-8.64c0-2.81.29-5.56.84-8.21 3.26-15.73 15.69-28.1 31.45-31.27 2.58-.52 5.24-.79 7.98-.79 3.05 0 6.01.34 8.87.98 15.69 3.52 27.92 16.21 30.77 32.15.42 2.32.63 4.71.63 7.14Z" class="cls-10"/><path d="M460.29 149.43c0 3.35-.41 6.59-1.18 9.7l-22.6-.24c-4.61-.08-8.42 3.59-8.5 8.2l-.25 21.86c-2.51.49-5.09.74-7.74.74-3.13 0-6.18-.36-9.11-1.04l.25-21.87c.08-4.61-3.59-8.42-8.2-8.5l-22.28-.22a40.3 40.3 0 0 1-.93-8.64c0-2.81.29-5.56.84-8.21l22.66.23c4.61.08 8.42-3.59 8.5-8.2l.28-23.3c2.58-.52 5.24-.79 7.98-.79 3.05 0 6.01.34 8.87.98l-.29 23.41c-.08 4.61 3.59 8.42 8.2 8.5l22.85.24c.42 2.32.63 4.71.63 7.14Z" class="cls-10"/><circle cx="420.03" cy="149.43" r="7.21" class="cls-10"/><path d="M560.19 49.36v13.46c-8.48-.89-18.73-1.51-30.99-1.51-38.33 0-56.97 6.02-63.38 7.52-5.12 1.19-7.58-.77-8.41-1.67-.45-.51-.95-.97-1.47-1.41l-7.81-6.83c21.67-6.21 48.75-11.08 80.71-10.95h.73c10.75-.04 20.97.46 30.62 1.39Zm-49.58 79.07h25.93c2.61 0 4.73 2.12 4.73 4.73s-2.12 4.73-4.73 4.73h-25.93c-2.61 0-4.73-2.12-4.73-4.73s2.12-4.73 4.73-4.73Zm15.7-34.2a5.33 5.33 0 0 0 3.72 1.51h22.85l-4.93-14.72c-.67-1.56-2.26-2.66-4.15-2.66s-3.5 1.13-4.15 2.69l-1.64 4.8v-7.24h-7.99c-1.44 0-2.74.56-3.69 1.49v-1.49h-8.17c-1.52 0-2.91.65-3.87 1.67V78.6h-7.7c-3.32 0-6.05 2.6-6.05 6.04 0 1.59.7 3.03 1.72 4.1h-1.74v6.99h7.76c2.18 0 4.34-1.32 5.09-2.89l.02-.06a5.33 5.33 0 0 0 4.77 2.96h8.16v-1.51" class="cls-10"/><path d="M501.71 94.54h6.54c2.68 0 4.85-2.17 4.85-4.83s-2.17-4.83-4.85-4.83h-1.7c-.13 0-.24-.1-.24-.24s.11-.25.24-.25h6.53v-2.05h-6.53c-1.26 0-2.29 1.03-2.29 2.29s1.03 2.28 2.29 2.28l1.71.02c1.53 0 2.77 1.24 2.77 2.76s-1.24 2.77-2.77 2.77h-6.55v2.07Z" class="cls-10"/><path d="M506.55 81.87h6.53v-2.06h-6.53c-2.68 0-4.85 2.16-4.85 4.83s2.17 4.83 4.85 4.83h1.69a.235.235 0 1 1 0 .47h-6.53v2.05h6.54c1.27 0 2.3-1.03 2.3-2.29s-1.03-2.28-2.3-2.28l-1.7-.02c-1.53 0-2.78-1.24-2.78-2.77s1.25-2.76 2.78-2.76Zm11.62-.01h6.98v-2.05h-6.98c-2.28 0-4.12 1.83-4.12 4.1v6.51c0 2.27 1.84 4.1 4.12 4.1h6.95v-2.04h-6.95c-1.14 0-2.07-.9-2.07-2.06v-6.53c0-1.11.93-2.03 2.07-2.03Z" class="cls-10"/><path d="M519.13 84.4h6.02v-2.06h-6.98c-.87 0-1.57.7-1.57 1.57v3.01h7.06v-2.05h-5.02s.01-.47.49-.47Zm0 5.54s-.48 0-.49-.48h5.02v-2.05h-7.06v3.01c0 .87.7 1.56 1.57 1.56h6.95v-2.04zm10.91-8.08h6.76v-2.05h-6.78c-2.27 0-4.11 1.83-4.11 4.1v6.51c0 2.27 1.86 4.1 4.13 4.1h6.76v-9.65h-5.81v2.05h3.76v5.56h-4.71c-1.13 0-2.05-.93-2.05-2.06v-6.51c0-1.14.91-2.05 2.05-2.05Z" class="cls-10"/><path d="M531 84.38h5.8v-2.04h-6.76c-.87 0-1.57.7-1.57 1.57v6.51c0 .87.7 1.58 1.57 1.58h4.22v-4.6h-3.27v2.06h1.22v.48H531c-.26 0-.48-.22-.48-.48v-4.59s-.01-.47.48-.49Zm16.7 7.63-3.28-9.7a.665.665 0 0 0-1.26 0L539 94.52h2.43l1.47-4.34v1.83zm-3.92-4.43.73 2.15h-1.46z" class="cls-10"/><path d="M548.36 92.48h-5.46v2.05h8.31l-4.32-12.79c-.38-1.25-1.63-2.17-3.11-2.17s-2.73.91-3.11 2.16l-4.36 12.79h2.18l4.24-12.44c.18-.43.59-.7 1.05-.7s.88.28 1.06.7l3.53 10.39Zm2.31-13.51a1.449 1.449 0 0 0-2.47 1.02c0 .39.15.75.43 1.03s.63.42 1.02.42.75-.15 1.02-.42c.27-.28.43-.64.43-1.03s-.16-.74-.43-1.02Z" class="cls-10"/><path d="M549.93 80.1c.08-.01.38-.06.38-.44 0-.15-.05-.28-.17-.37s-.25-.09-.48-.09h-.59v1.6h.21v-.69h.41l.44.69h.25zm-.23-.16h-.42v-.57h.41c.12 0 .23 0 .31.07.09.07.1.18.1.22 0 .12-.06.23-.2.26-.07.02-.13.02-.2.02Z" class="cls-10"/></svg>