<?xml version="1.0" encoding="UTF-8"?>
<svg id="Layer_1" data-name="Layer 1" xmlns="http://www.w3.org/2000/svg" xmlns:xlink="http://www.w3.org/1999/xlink" viewBox="0 0 560 320">
  <defs>
    <style>
      .cls-1 {
        fill: #372869;
      }

      .cls-2 {
        fill: red;
      }

      .cls-3 {
        fill: url(#radial-gradient);
      }

      .cls-4 {
        fill: #bca3ce;
        stroke: #553f98;
        stroke-linejoin: round;
        stroke-width: .5px;
      }

      .cls-5 {
        fill: #888;
      }

      .cls-6 {
        fill: #0000a0;
      }

      .cls-7 {
        fill: #553f98;
      }
    </style>
    <radialGradient id="radial-gradient" cx="131.65" cy="-1288.96" fx="131.65" fy="-1288.96" r="26.62" gradientTransform="translate(0 -1038) scale(1 -1)" gradientUnits="userSpaceOnUse">
      <stop offset=".52" stop-color="#ffe41b"/>
      <stop offset=".89" stop-color="#716a13"/>
      <stop offset="1" stop-color="#49482e"/>
    </radialGradient>
  </defs>
  <rect class="cls-1" x=".95" y=".03" width="559.24" height="320"/>
  <path class="cls-7" d="M405.33-.07c-3.45,16.81-8.27,33.52-14.2,49.97-.77,2.14-1.56,4.27-2.37,6.4-3.15,8.31-6.6,16.53-10.28,24.65-5.58,12.3-11.73,24.36-18.36,36.11-.66,1.19-1.34,2.38-2.03,3.56-.5.88-1,1.74-1.5,2.61h0c-10.64,18.29-22.38,35.76-34.79,52.08-48.21,64.41-136.13,76.41-201.3,120.77-3.92,2.65-7.76,5.44-11.5,8.36-1.03.8-2.04,1.61-3.05,2.44-1.96,1.61-3.9,3.27-5.82,5-2.85,2.53-5.66,5.19-8.43,7.96H-.19V-.07h405.51Z"/>
  <g>
    <path d="M146.84,50.3c-2.95-1.3-11.18-3.91-14.16-3.91h-46.82v2.19l7.16.26c.93,3.3-.03,6.58-.06,9.84-.21,20.98-.25,42.05-.01,63.03.01.95.1,1.84.44,2.73-.25,1.49-6.11.53-7.53.8v2.19h45.18c4.9,0,14.7-3.62,19.06-6.13,26.32-15.19,24.81-58.59-3.26-71ZM141.45,110.46c-3.67,11.36-13.18,16.4-24.69,14.23-.33-.38.31-.69.31-.82,0-24.64.09-49.28,0-73.92,0-.14-.64-.44-.31-.83,11.35-2.12,20.75,1.95,24.56,13.27,3.7,10.99,3.68,37.03.13,48.07Z"/>
    <path d="M214.98,44.36c-51.65,4.8-47.22,89.04,7.49,85.25,53.09-3.68,48.81-90.47-7.49-85.25ZM234.24,103.06c-.27,5.29-1.01,12.83-3.17,17.63-.42.93-1.27,2.54-1.94,3.26-5.04,5.41-17.34,4.58-21.28-2.16-4.44-7.6-4.12-36.46-3.74-46.13.27-6.85.69-20.33,5.22-25.44,5.27-5.93,17.42-5.04,21.39,2.17,4.71,8.55,4.08,39.96,3.52,50.67Z"/>
    <path d="M43.43,81.98c3.59-.56,6.85-3.85,7.34-7.44.56-4.11.52-15.48.05-19.66-.67-5.97-4.38-8.23-10.14-7.96-3.55.17-9.6,2.32-9.57,6.59,12.42-.56,13.66,18.02,1.17,18.3-9.34.21-12.09-9.88-8.58-17.22,8.32-17.42,55.31-11.72,48.33,14.38-2.39,8.91-10.7,11.7-18.69,13.62-.65.16-1.31.22-1.42,1.04,10.58.55,22.94,6.99,24.5,18.49,4.31,31.87-55.43,35.35-57.84,11.84-.93-9.12,7.74-15.86,15.78-10.31s2.33,17.68-7.08,16.67c1.01,3.22,5.24,4.99,8.21,5.75,6.69,1.71,13.04,1.1,15.99-5.92,2.05-4.87,2.36-23.42.84-28.42-1.14-3.74-5.49-7.55-9.43-7.55h-11.22v-2.19c3.63-.4,8.29.54,11.77,0Z"/>
  </g>
  <g>
    <path class="cls-1" d="M144.08.03c-.13,8.4-1.02,16.53-2.63,21.55-3.67,11.36-13.18,16.4-24.69,14.24-.33-.39.31-.69.31-.83,0-11.66.02-23.31.03-34.96h-24.31c0,10.94.04,21.88.16,32.8.01.95.1,1.84.44,2.73-.25,1.49-6.11.53-7.53.8v2.19h45.18c4.9,0,14.7-3.62,19.06-6.13,11.89-6.86,18.1-19.48,18.75-32.39h-24.77Z"/>
    <path class="cls-1" d="M234.61.03c-.03,5.8-.2,10.92-.37,14.15-.27,5.29-1.01,12.83-3.17,17.63-.42.93-1.27,2.54-1.94,3.26-5.04,5.41-17.34,4.58-21.28-2.16-3.07-5.25-3.86-20.67-3.93-32.88h-25.16c.97,21.65,15.8,42.63,43.71,40.7,24.38-1.69,36.66-20.91,37.35-40.7h-25.21Z"/>
    <path class="cls-1" d="M18.58,25.07c-.94-9.11,7.74-15.86,15.78-10.3,8.18,5.64,2.33,17.67-7.08,16.66,1.01,3.22,5.24,5,8.21,5.75,6.69,1.71,13.04,1.1,15.98-5.92,2.05-4.87,2.36-23.42.84-28.42-.29-.95-.79-1.91-1.44-2.81h16.89c4.51,3.11,7.89,7.54,8.66,13.2,4.3,31.86-55.43,35.35-57.84,11.84Z"/>
  </g>
  <g>
    <path class="cls-1" d="M146.84,139.18c-2.95-1.3-11.18-3.91-14.16-3.91h-46.82v2.19l7.16.26c.93,3.3-.03,6.58-.06,9.84-.21,20.98-.25,42.05-.01,63.02.01.96.1,1.85.44,2.74-.25,1.49-6.11.53-7.53.8v2.19h45.18c4.9,0,14.7-3.62,19.06-6.13,26.32-15.2,24.81-58.59-3.26-71ZM141.45,199.34c-3.67,11.36-13.18,16.4-24.69,14.23-.33-.38.31-.69.31-.82,0-24.64.09-49.28,0-73.92,0-.14-.64-.44-.31-.83,11.35-2.12,20.75,1.95,24.56,13.27,3.7,10.99,3.68,37.03.13,48.07Z"/>
    <path class="cls-1" d="M214.98,133.24c-51.65,4.79-47.22,89.04,7.49,85.25,53.09-3.68,48.81-90.47-7.49-85.25ZM234.24,191.94c-.27,5.28-1.01,12.83-3.17,17.63-.42.93-1.27,2.54-1.94,3.26-5.04,5.41-17.34,4.58-21.28-2.16-4.44-7.6-4.12-36.46-3.74-46.13.27-6.85.69-20.33,5.22-25.44,5.27-5.93,17.42-5.04,21.39,2.17,4.71,8.55,4.08,39.96,3.52,50.67Z"/>
    <path class="cls-1" d="M43.43,170.86c3.59-.56,6.85-3.85,7.34-7.44.56-4.11.52-15.48.05-19.66-.67-5.97-4.38-8.23-10.14-7.96-3.55.17-9.6,2.32-9.57,6.59,12.42-.56,13.66,18.02,1.17,18.3-9.34.21-12.09-9.88-8.58-17.22,8.32-17.42,55.31-11.72,48.33,14.38-2.39,8.91-10.7,11.7-18.69,13.62-.65.16-1.31.22-1.42,1.04,10.58.55,22.94,6.99,24.5,18.49,4.31,31.87-55.43,35.35-57.84,11.84-.93-9.12,7.74-15.86,15.78-10.31s2.33,17.68-7.08,16.67c1.01,3.22,5.24,4.99,8.21,5.75,6.69,1.71,13.04,1.1,15.99-5.92,2.05-4.87,2.36-23.42.84-28.42-1.14-3.74-5.49-7.55-9.43-7.55h-11.22v-2.19c3.63-.4,8.29.54,11.77,0Z"/>
  </g>
  <g>
    <path class="cls-1" d="M146.84,228.06c-2.95-1.3-11.18-3.91-14.16-3.91h-46.82v2.19l7.16.26c.93,3.3-.03,6.58-.06,9.84-.21,20.98-.25,42.05-.01,63.02.01.96.1,1.85.44,2.74-.25,1.49-6.11.53-7.53.8v2.19h45.18c4.9,0,14.7-3.62,19.06-6.13,26.32-15.2,24.81-58.59-3.26-71ZM141.45,288.22c-3.67,11.36-13.18,16.4-24.69,14.23-.33-.39.31-.69.31-.82,0-24.64.09-49.28,0-73.92,0-.14-.64-.44-.31-.83,11.35-2.12,20.75,1.95,24.56,13.27,3.7,10.99,3.68,37.03.13,48.07Z"/>
    <path class="cls-1" d="M214.98,222.12c-51.65,4.79-47.22,89.04,7.49,85.25,53.09-3.68,48.81-90.47-7.49-85.25ZM234.24,280.81c-.27,5.29-1.01,12.84-3.17,17.64-.42.93-1.27,2.54-1.94,3.26-5.04,5.41-17.34,4.58-21.28-2.16-4.44-7.6-4.12-36.47-3.74-46.13.27-6.85.69-20.34,5.22-25.44,5.27-5.93,17.42-5.04,21.39,2.16,4.71,8.56,4.08,39.97,3.52,50.67Z"/>
    <path class="cls-1" d="M43.43,259.74c3.59-.56,6.85-3.85,7.34-7.44.56-4.11.52-15.48.05-19.66-.67-5.97-4.38-8.23-10.14-7.96-3.55.17-9.6,2.32-9.57,6.59,12.42-.56,13.66,18.02,1.17,18.3-9.34.21-12.09-9.88-8.58-17.22,8.32-17.42,55.31-11.72,48.33,14.38-2.39,8.91-10.7,11.7-18.69,13.62-.65.16-1.31.22-1.42,1.04,10.58.55,22.94,6.99,24.5,18.49,4.31,31.87-55.43,35.35-57.84,11.84-.93-9.12,7.74-15.86,15.78-10.31s2.33,17.68-7.08,16.67c1.01,3.22,5.24,4.99,8.21,5.75,6.69,1.71,13.04,1.1,15.99-5.92,2.05-4.87,2.36-23.42.84-28.42-1.14-3.74-5.49-7.55-9.43-7.55h-11.22v-2.19c3.63-.4,8.29.54,11.77,0Z"/>
  </g>
  <g>
    <path class="cls-1" d="M146.84,316.94c-2.95-1.31-11.18-3.91-14.16-3.91h-46.82v2.19l7.16.26c.43,1.52.46,3.04.35,4.55h23.71c0-1.15-.01-2.29-.01-3.44,0-.14-.64-.44-.31-.83,7.53-1.41,14.21-.09,18.96,4.27h16.68c-1.72-1.18-3.57-2.21-5.56-3.09Z"/>
    <path class="cls-1" d="M214.98,311c-9.11.84-16.48,4.16-22.13,9.03h14.55c.54-1.24,1.18-2.32,1.93-3.17,5.27-5.93,17.42-5.04,21.39,2.16.17.31.33.64.49,1.01h14.48c-7.39-6.5-17.65-10.24-30.71-9.03Z"/>
    <path class="cls-1" d="M68.71,320.03h-18.14c-1.08-4.87-4.63-6.73-9.89-6.48-3.52.17-9.49,2.28-9.57,6.48h-6.76c7.35-11.91,34.12-11.56,44.36,0Z"/>
  </g>
  <g>
    <path class="cls-5" d="M102.67,298.22c0-2.51,11.61-4.55,25.94-4.55s25.94,2.04,25.94,4.55-11.61,4.55-25.94,4.55-25.94-2.04-25.94-4.55Z"/>
    <path class="cls-3" d="M106.56,255.31c0-12.21,9.87-22.1,22.05-22.1s22.04,9.89,22.04,22.1-9.87,22.1-22.04,22.1c-12.18,0-22.05-9.89-22.05-22.1Z"/>
    <path class="cls-6" d="M108.07,197.68c-3.24,2.16-4.11,14.73-4.11,14.73,0,0,.86,12.57,4.11,14.73,3.24,2.17,20.53,3.47,20.53,3.47,0,0,17.29-1.3,20.53-3.47,3.25-2.16,4.11-14.73,4.11-14.73,0,0-.86-12.57-4.11-14.73-3.24-2.17-20.53-3.47-20.53-3.47,0,0-17.29,1.3-20.53,3.47Z"/>
    <polygon class="cls-2" points="128.61 141.02 154.43 166.91 128.61 192.79 102.78 166.91 128.61 141.02"/>
  </g>
  <g id="Body">
    <g>
      <path class="cls-4" d="M386.12,93.61v-1.05c0-3.45,2.28-6.48,5.59-7.44,27.3-7.93,53.18-14.16,75.86-16.6,1.04-.11,1.94.71,1.94,1.75v5.39l-83.39,17.94h0Z"/>
      <path class="cls-4" d="M560.19,64.87v13.09h-12.32c-1.9,0-3.44-1.54-3.44-3.44v-5.47c0-.26.03-.51.09-.75.34-1.54,1.71-2.7,3.35-2.7,4.08-.3,8.19-.54,12.32-.73Z"/>
      <path class="cls-4" d="M560.19,67.96v179.02c-37.06.41-74.74,6.52-113,18.06h0s.7-21.19.7-21.19c-14.88,3.34-30.21,7.34-46.18,12.01l-1.44-21.51-1.52-22.78-1.96-29.31-1.38-20.62-1.72-25.71-1.52-22.83-1.37-20.51-.02-.27h0c25.59-7.34,52-13.06,78.73-17.1,24.85-3.77,49.98-6.09,75.01-6.92,5.23-.18,10.45-.29,15.67-.34Z"/>
      <circle class="cls-4" cx="412.96" cy="180.64" r="91.05"/>
      <circle class="cls-4" cx="422.67" cy="171.95" r="66.27"/>
      <path class="cls-4" d="M469.36,171.95c0,3.54-.4,6.98-1.16,10.3-.28,1.24-.6,2.45-.98,3.64-4.51,14.34-15.8,25.68-30.11,30.26-1.41.45-2.84.84-4.29,1.15-3.18.69-6.49,1.06-9.89,1.06-3.7,0-7.29-.43-10.74-1.25-.94-.22-1.87-.47-2.77-.75-14.62-4.44-26.19-15.91-30.77-30.47-.38-1.19-.7-2.41-.98-3.64-.69-3.03-1.08-6.17-1.14-9.39,0-.3,0-.61,0-.91s0-.61,0-.91c.06-3.23.45-6.38,1.15-9.41.28-1.23.6-2.43.98-3.62,4.59-14.57,16.15-26.03,30.77-30.47.91-.28,1.84-.53,2.77-.75,3.45-.82,7.04-1.25,10.74-1.25,3.39,0,6.7.36,9.89,1.05,1.46.32,2.89.7,4.29,1.16,14.31,4.58,25.6,15.92,30.11,30.26.37,1.19.7,2.39.98,3.62.76,3.32,1.16,6.78,1.16,10.32h0Z"/>
      <path class="cls-4" d="M469.36,171.95c0,3.54-.4,6.98-1.16,10.3h-29.93c-3.01,0-5.45,2.44-5.45,5.45v29.6c-3.18.69-6.49,1.06-9.89,1.06-3.7,0-7.29-.43-10.74-1.25v-29.41c0-3.01-2.44-5.45-5.45-5.45h-29.08c-.69-3.03-1.08-6.17-1.14-9.39v-1.82c.06-3.23.45-6.38,1.15-9.41h29.07c3.01,0,5.45-2.44,5.45-5.45v-29.39c3.45-.82,7.04-1.25,10.74-1.25,3.39,0,6.7.36,9.89,1.05v29.58c0,3.01,2.44,5.45,5.45,5.45h29.92c.76,3.32,1.16,6.78,1.16,10.32h0Z"/>
      <path class="cls-4" d="M430.09,171.95c0,.75-.12,1.47-.33,2.14-.69,2.21-2.43,3.95-4.63,4.65-.69.22-1.42.34-2.18.34s-1.42-.11-2.08-.31c-2.25-.68-4.03-2.45-4.73-4.69-.21-.68-.33-1.4-.33-2.14s.12-1.47.33-2.14c.7-2.24,2.49-4,4.73-4.69.66-.2,1.36-.31,2.08-.31.76,0,1.49.12,2.18.34,2.2.7,3.94,2.45,4.63,4.65.21.68.33,1.4.33,2.14h0Z"/>
      <path class="cls-4" d="M517.41,170.47h16.08c2.67,0,4.83,2.16,4.83,4.83h0c0,2.67-2.16,4.83-4.83,4.83h-16.08c-2.67,0-4.83-2.16-4.83-4.83h0c0-2.67,2.16-4.83,4.83-4.83Z"/>
      <rect class="cls-4" x="550.69" y="190.31" width="9.5" height="29.76"/>
      <rect class="cls-4" x="550.69" y="220.07" width="9.5" height="8.02"/>
      <polygon class="cls-4" points="560.19 206.53 560.19 213.86 560.1 213.95 556.34 210.2 560.1 206.44 560.19 206.53"/>
      <path class="cls-4" d="M560.19,200.41v6.03c-1.66-.01-3-1.35-3-3.01s1.34-3.01,3-3.02Z"/>
      <path class="cls-4" d="M560.19,214.88v1.48h-2.94c-.41,0-.75-.33-.75-.74s.34-.74.75-.74h2.94Z"/>
      <path class="cls-4" d="M560.19,194.97v4.91h-2.01c-.92,0-1.66-.74-1.66-1.65v-1.6c0-.91.74-1.66,1.66-1.66h2.01Z"/>
    </g>
  </g>
</svg>