<svg xmlns="http://www.w3.org/2000/svg" id="Layer_1" data-name="Layer 1" viewBox="0 0 560 320"><defs><radialGradient id="radial-gradient" cx="140.6" cy="-1258.31" r="20.41" fx="140.6" fy="-1258.31" gradientTransform="matrix(1 0 0 -1 0 -1038)" gradientUnits="userSpaceOnUse"><stop offset=".52" stop-color="#ffe41b"/><stop offset=".89" stop-color="#716a13"/><stop offset="1" stop-color="#49482e"/></radialGradient><style>.cls-1{fill:#372869}.cls-4{fill:#bca3ce;stroke:#553f98;stroke-linejoin:round;stroke-width:.5px}</style></defs><path d="M.95.03h559.24v320H.95z" class="cls-1"/><path d="M405.33-.07c-3.45 16.81-8.27 33.52-14.2 49.97-.77 2.14-1.56 4.27-2.37 6.4-3.15 8.31-6.6 16.53-10.28 24.65a462 462 0 0 1-18.36 36.11c-.66 1.19-1.34 2.38-2.03 3.56-.5.88-1 1.74-1.5 2.61-10.64 18.29-22.38 35.76-34.79 52.08-48.21 64.41-136.13 76.41-201.3 120.77-3.92 2.65-7.76 5.44-11.5 8.36a168 168 0 0 0-8.87 7.44c-2.85 2.53-5.66 5.19-8.43 7.96H-.19V-.07h405.51Z" style="fill:#553f98"/><path d="M146.84 50.3c-2.95-1.3-11.18-3.91-14.16-3.91H85.86v2.19l7.16.26c.93 3.3-.03 6.58-.06 9.84-.21 20.98-.25 42.05-.01 63.03.01.95.1 1.84.44 2.73-.25 1.49-6.11.53-7.53.8v2.19h45.18c4.9 0 14.7-3.62 19.06-6.13 26.32-15.19 24.81-58.59-3.26-71m-5.39 60.16c-3.67 11.36-13.18 16.4-24.69 14.23-.33-.38.31-.69.31-.82 0-24.64.09-49.28 0-73.92 0-.14-.64-.44-.31-.83 11.35-2.12 20.75 1.95 24.56 13.27 3.7 10.99 3.68 37.03.13 48.07"/><path d="M214.98 44.36c-51.65 4.8-47.22 89.04 7.49 85.25 53.09-3.68 48.81-90.47-7.49-85.25m19.26 58.7c-.27 5.29-1.01 12.83-3.17 17.63-.42.93-1.27 2.54-1.94 3.26-5.04 5.41-17.34 4.58-21.28-2.16-4.44-7.6-4.12-36.46-3.74-46.13.27-6.85.69-20.33 5.22-25.44 5.27-5.93 17.42-5.04 21.39 2.17 4.71 8.55 4.08 39.96 3.52 50.67M43.43 81.98c3.59-.56 6.85-3.85 7.34-7.44.56-4.11.52-15.48.05-19.66-.67-5.97-4.38-8.23-10.14-7.96-3.55.17-9.6 2.32-9.57 6.59 12.42-.56 13.66 18.02 1.17 18.3-9.34.21-12.09-9.88-8.58-17.22 8.32-17.42 55.31-11.72 48.33 14.38-2.39 8.91-10.7 11.7-18.69 13.62-.65.16-1.31.22-1.42 1.04 10.58.55 22.94 6.99 24.5 18.49 4.31 31.87-55.43 35.35-57.84 11.84-.93-9.12 7.74-15.86 15.78-10.31s2.33 17.68-7.08 16.67c1.01 3.22 5.24 4.99 8.21 5.75 6.69 1.71 13.04 1.1 15.99-5.92 2.05-4.87 2.36-23.42.84-28.42-1.14-3.74-5.49-7.55-9.43-7.55H31.67v-2.19c3.63-.4 8.29.54 11.77 0Z"/><path d="M144.08.03c-.13 8.4-1.02 16.53-2.63 21.55-3.67 11.36-13.18 16.4-24.69 14.24-.33-.39.31-.69.31-.83 0-11.66.02-23.31.03-34.96H92.79c0 10.94.04 21.88.16 32.8.01.95.1 1.84.44 2.73-.25 1.49-6.11.53-7.53.8v2.19h45.18c4.9 0 14.7-3.62 19.06-6.13 11.89-6.86 18.1-19.48 18.75-32.39zm90.53 0c-.03 5.8-.2 10.92-.37 14.15-.27 5.29-1.01 12.83-3.17 17.63-.42.93-1.27 2.54-1.94 3.26-5.04 5.41-17.34 4.58-21.28-2.16-3.07-5.25-3.86-20.67-3.93-32.88h-25.16c.97 21.65 15.8 42.63 43.71 40.7 24.38-1.69 36.66-20.91 37.35-40.7zM18.58 25.07c-.94-9.11 7.74-15.86 15.78-10.3 8.18 5.64 2.33 17.67-7.08 16.66 1.01 3.22 5.24 5 8.21 5.75 6.69 1.71 13.04 1.1 15.98-5.92 2.05-4.87 2.36-23.42.84-28.42-.29-.95-.79-1.91-1.44-2.81h16.89c4.51 3.11 7.89 7.54 8.66 13.2 4.3 31.86-55.43 35.35-57.84 11.84m128.26 114.11c-2.95-1.3-11.18-3.91-14.16-3.91H85.86v2.19l7.16.26c.93 3.3-.03 6.58-.06 9.84-.21 20.98-.25 42.05-.01 63.02.01.96.1 1.85.44 2.74-.25 1.49-6.11.53-7.53.8v2.19h45.18c4.9 0 14.7-3.62 19.06-6.13 26.32-15.2 24.81-58.59-3.26-71m-5.39 60.16c-3.67 11.36-13.18 16.4-24.69 14.23-.33-.38.31-.69.31-.82 0-24.64.09-49.28 0-73.92 0-.14-.64-.44-.31-.83 11.35-2.12 20.75 1.95 24.56 13.27 3.7 10.99 3.68 37.03.13 48.07" class="cls-1"/><path d="M214.98 133.24c-51.65 4.79-47.22 89.04 7.49 85.25 53.09-3.68 48.81-90.47-7.49-85.25m19.26 58.7c-.27 5.28-1.01 12.83-3.17 17.63-.42.93-1.27 2.54-1.94 3.26-5.04 5.41-17.34 4.58-21.28-2.16-4.44-7.6-4.12-36.46-3.74-46.13.27-6.85.69-20.33 5.22-25.44 5.27-5.93 17.42-5.04 21.39 2.17 4.71 8.55 4.08 39.96 3.52 50.67M43.43 170.86c3.59-.56 6.85-3.85 7.34-7.44.56-4.11.52-15.48.05-19.66-.67-5.97-4.38-8.23-10.14-7.96-3.55.17-9.6 2.32-9.57 6.59 12.42-.56 13.66 18.02 1.17 18.3-9.34.21-12.09-9.88-8.58-17.22 8.32-17.42 55.31-11.72 48.33 14.38-2.39 8.91-10.7 11.7-18.69 13.62-.65.16-1.31.22-1.42 1.04 10.58.55 22.94 6.99 24.5 18.49 4.31 31.87-55.43 35.35-57.84 11.84-.93-9.12 7.74-15.86 15.78-10.31s2.33 17.68-7.08 16.67c1.01 3.22 5.24 4.99 8.21 5.75 6.69 1.71 13.04 1.1 15.99-5.92 2.05-4.87 2.36-23.42.84-28.42-1.14-3.74-5.49-7.55-9.43-7.55H31.67v-2.19c3.63-.4 8.29.54 11.77 0Zm103.41 57.2c-2.95-1.3-11.18-3.91-14.16-3.91H85.86v2.19l7.16.26c.93 3.3-.03 6.58-.06 9.84-.21 20.98-.25 42.05-.01 63.02.01.96.1 1.85.44 2.74-.25 1.49-6.11.53-7.53.8v2.19h45.18c4.9 0 14.7-3.62 19.06-6.13 26.32-15.2 24.81-58.59-3.26-71m-5.39 60.16c-3.67 11.36-13.18 16.4-24.69 14.23-.33-.39.31-.69.31-.82 0-24.64.09-49.28 0-73.92 0-.14-.64-.44-.31-.83 11.35-2.12 20.75 1.95 24.56 13.27 3.7 10.99 3.68 37.03.13 48.07" class="cls-1"/><path d="M214.98 222.12c-51.65 4.79-47.22 89.04 7.49 85.25 53.09-3.68 48.81-90.47-7.49-85.25m19.26 58.69c-.27 5.29-1.01 12.84-3.17 17.64-.42.93-1.27 2.54-1.94 3.26-5.04 5.41-17.34 4.58-21.28-2.16-4.44-7.6-4.12-36.47-3.74-46.13.27-6.85.69-20.34 5.22-25.44 5.27-5.93 17.42-5.04 21.39 2.16 4.71 8.56 4.08 39.97 3.52 50.67M43.43 259.74c3.59-.56 6.85-3.85 7.34-7.44.56-4.11.52-15.48.05-19.66-.67-5.97-4.38-8.23-10.14-7.96-3.55.17-9.6 2.32-9.57 6.59 12.42-.56 13.66 18.02 1.17 18.3-9.34.21-12.09-9.88-8.58-17.22 8.32-17.42 55.31-11.72 48.33 14.38-2.39 8.91-10.7 11.7-18.69 13.62-.65.16-1.31.22-1.42 1.04 10.58.55 22.94 6.99 24.5 18.49 4.31 31.87-55.43 35.35-57.84 11.84-.93-9.12 7.74-15.86 15.78-10.31s2.33 17.68-7.08 16.67c1.01 3.22 5.24 4.99 8.21 5.75 6.69 1.71 13.04 1.1 15.99-5.92 2.05-4.87 2.36-23.42.84-28.42-1.14-3.74-5.49-7.55-9.43-7.55H31.67v-2.19c3.63-.4 8.29.54 11.77 0Zm103.41 57.2c-2.95-1.31-11.18-3.91-14.16-3.91H85.86v2.19l7.16.26c.43 1.52.46 3.04.35 4.55h23.71c0-1.15-.01-2.29-.01-3.44 0-.14-.64-.44-.31-.83 7.53-1.41 14.21-.09 18.96 4.27h16.68a34.4 34.4 0 0 0-5.56-3.09m68.14-5.94c-9.11.84-16.48 4.16-22.13 9.03h14.55c.54-1.24 1.18-2.32 1.93-3.17 5.27-5.93 17.42-5.04 21.39 2.16.17.31.33.64.49 1.01h14.48c-7.39-6.5-17.65-10.24-30.71-9.03" class="cls-1"/><path d="M68.71 320.03H50.57c-1.08-4.87-4.63-6.73-9.89-6.48-3.52.17-9.49 2.28-9.57 6.48h-6.76c7.35-11.91 34.12-11.56 44.36 0" class="cls-1"/><path d="M118.37 256.54c0-1.93 8.9-3.49 19.89-3.49s19.89 1.56 19.89 3.49-8.9 3.49-19.89 3.49-19.89-1.56-19.89-3.49" style="fill:#888"/><path d="M121.36 223.65c0-9.36 7.57-16.95 16.9-16.95s16.9 7.59 16.9 16.95-7.57 16.95-16.9 16.95c-9.34 0-16.9-7.59-16.9-16.95" style="fill:url(#radial-gradient)"/><path d="M122.52 179.46c-2.49 1.66-3.15 11.3-3.15 11.3s.66 9.64 3.15 11.3c2.48 1.66 15.74 2.66 15.74 2.66s13.26-1 15.74-2.66c2.49-1.66 3.15-11.3 3.15-11.3s-.66-9.64-3.15-11.3c-2.48-1.66-15.74-2.66-15.74-2.66s-13.26 1-15.74 2.66" style="fill:#0000a0"/><path d="m138.26 136.01 19.8 19.85-19.8 19.85-19.8-19.85z" style="fill:red"/><path d="M386.12 93.61v-1.05c0-3.45 2.28-6.48 5.59-7.44 27.3-7.93 53.18-14.16 75.86-16.6 1.04-.11 1.94.71 1.94 1.75v5.39L386.12 93.6Zm174.07-28.74v13.09h-12.32a3.44 3.44 0 0 1-3.44-3.44v-5.47q0-.39.09-.75a3.44 3.44 0 0 1 3.35-2.7c4.08-.3 8.19-.54 12.32-.73Z" class="cls-4"/><path d="M560.19 67.96v179.02c-37.06.41-74.74 6.52-113 18.06s.7-21.19.7-21.19c-14.88 3.34-30.21 7.34-46.18 12.01l-1.44-21.51-1.52-22.78-1.96-29.31-1.38-20.62-1.72-25.71-1.52-22.83-1.37-20.51-.02-.27c25.59-7.34 52-13.06 78.73-17.1a643 643 0 0 1 75.01-6.92c5.23-.18 10.45-.29 15.67-.34Z" class="cls-4"/><circle cx="412.96" cy="180.64" r="91.05" class="cls-4"/><circle cx="422.67" cy="171.95" r="66.27" class="cls-4"/><path d="M469.36 171.95c0 3.54-.4 6.98-1.16 10.3-.28 1.24-.6 2.45-.98 3.64-4.51 14.34-15.8 25.68-30.11 30.26a46.6 46.6 0 0 1-14.18 2.21 46.4 46.4 0 0 1-13.51-2c-14.62-4.44-26.19-15.91-30.77-30.47-.38-1.19-.7-2.41-.98-3.64a46 46 0 0 1-1.14-9.39v-1.82c.06-3.23.45-6.38 1.15-9.41.28-1.23.6-2.43.98-3.62 4.59-14.57 16.15-26.03 30.77-30.47a46.4 46.4 0 0 1 13.51-2c3.39 0 6.7.36 9.89 1.05 1.46.32 2.89.7 4.29 1.16 14.31 4.58 25.6 15.92 30.11 30.26a46.2 46.2 0 0 1 2.14 13.94Z" class="cls-4"/><path d="M469.36 171.95c0 3.54-.4 6.98-1.16 10.3h-29.93a5.45 5.45 0 0 0-5.45 5.45v29.6c-3.18.69-6.49 1.06-9.89 1.06-3.7 0-7.29-.43-10.74-1.25V187.7a5.45 5.45 0 0 0-5.45-5.45h-29.08a46 46 0 0 1-1.14-9.39v-1.82c.06-3.23.45-6.38 1.15-9.41h29.07a5.45 5.45 0 0 0 5.45-5.45v-29.39c3.45-.82 7.04-1.25 10.74-1.25 3.39 0 6.7.36 9.89 1.05v29.58a5.45 5.45 0 0 0 5.45 5.45h29.92c.76 3.32 1.16 6.78 1.16 10.32Z" class="cls-4"/><path d="M430.09 171.95a7.12 7.12 0 0 1-4.96 6.79 7.15 7.15 0 0 1-4.26.03 7.14 7.14 0 0 1-4.73-8.97c.7-2.24 2.49-4 4.73-4.69a7.17 7.17 0 0 1 4.26.03 7.14 7.14 0 0 1 4.96 6.79Zm87.32-1.48h16.08c2.67 0 4.83 2.16 4.83 4.83s-2.16 4.83-4.83 4.83h-16.08c-2.67 0-4.83-2.16-4.83-4.83s2.16-4.83 4.83-4.83Zm33.28 19.84h9.5v29.76h-9.5zm0 29.76h9.5v8.02h-9.5z" class="cls-4"/><path d="M560.19 206.53v7.33l-.09.09-3.76-3.75 3.76-3.76zm0-6.12v6.03c-1.66-.01-3-1.35-3-3.01s1.34-3.01 3-3.02Zm0 14.47v1.48h-2.94c-.41 0-.75-.33-.75-.74s.34-.74.75-.74zm0-19.91v4.91h-2.01c-.92 0-1.66-.74-1.66-1.65v-1.6c0-.91.74-1.66 1.66-1.66z" class="cls-4"/></svg>