<svg xmlns="http://www.w3.org/2000/svg" id="Layer_1" data-name="Layer 1" viewBox="0 0 560 320"><defs><style>.cls-3{fill:#fff;fill-rule:evenodd}.cls-4{fill:#bca3ce;stroke:#553f98;stroke-miterlimit:10;stroke-width:.5px}</style></defs><path d="M.95.03h559.24v320H.95z" style="fill:#372869"/><path d="M405.33-.07c-3.45 16.81-8.27 33.52-14.2 49.97-.77 2.14-1.56 4.27-2.37 6.4-3.15 8.31-6.6 16.53-10.28 24.65a462 462 0 0 1-18.36 36.11c-.66 1.19-1.34 2.38-2.03 3.56-.5.88-1 1.74-1.5 2.61-10.64 18.29-22.38 35.76-34.79 52.08-48.21 64.41-136.13 76.41-201.3 120.77-3.92 2.65-7.76 5.44-11.5 8.36a168 168 0 0 0-8.87 7.44c-2.85 2.53-5.66 5.19-8.43 7.96H-.19V-.07h405.51Z" style="fill:#553f98"/><path d="M25.26 68.39v3.96c-.87-.77-1.85-1.4-2.92-1.87-.85-.37-1.76-.57-2.68-.58-2.1 0-3.73.93-4.9 2.56s-1.75 3.85-1.75 6.65c0 3.03.7 5.36 1.98 7 1.17 1.52 2.8 2.33 4.78 2.33.93 0 1.87-.23 2.68-.58.82-.35 1.75-1.05 2.8-1.87v3.85c-1.16.47-2.33.82-3.26 1.05-1.11.25-2.24.37-3.38.35-3.85 0-6.65-1.05-8.63-3.03C8 86.11 6.95 83.08 6.95 79c0-2.56.47-4.66 1.28-6.3 2.1-3.62 5.71-5.48 10.96-5.48 2.22 0 4.2.35 6.06 1.17Zm42.69 1.4c-2.1-1.75-4.78-2.57-8.28-2.57-4.9 0-8.4 1.75-10.26 5.13-1.05 1.87-1.63 4.08-1.63 6.65 0 2.33.35 4.31 1.05 5.95.93 2.33 2.45 3.96 4.43 5.02 1.63.82 3.73 1.28 6.3 1.28 3.73 0 6.65-1.05 8.75-2.92 2.22-2.1 3.26-5.13 3.26-9.1 0-4.2-1.17-7.34-3.61-9.44ZM64.1 86.35c-1.05 1.51-2.45 2.33-4.31 2.33-2.1 0-3.61-.82-4.55-2.57-.47-.93-.81-1.87-1.05-2.92-.23-1.17-.23-2.57-.23-4.2 0-6.18 1.87-9.21 5.71-9.21 2.1 0 3.5.82 4.43 2.45s1.4 3.96 1.4 7.11-.47 5.36-1.4 7Zm32.18-10.96-2.1 14.34v.23c0 .23 0 .47.12.82h-3.15c.22-.31.34-.67.35-1.05l3.15-20.99v-1.17h5.13v.23c0 .23 0 .47.12.82l5.36 15.74 5.36-15.74c.12-.35.12-.58.12-.82v-.23h5.13c-.12.23-.12.47-.12.47 0 .23 0 .35.12.58l2.92 21.11c0 .35.12.7.35 1.05h-6.3c.12-.12.12-.35.12-.47v-.58l-1.87-14.58-4.9 14.58c-.12.35-.23.7-.23.82v.23h-4.66v-.23c0-.12 0-.35-.12-.7l-4.9-14.45Zm45.83 0-2.1 14.34v.23c0 .23.12.47.23.82h-3.27c.22-.31.34-.67.35-1.05l3.15-20.99c0-.23.12-.47.12-.58s-.12-.35-.12-.58h5.13v.23c0 .23.12.47.23.82l5.25 15.74 5.36-15.74c.12-.35.12-.58.12-.82v-.23h5.13v1.05l2.92 21.11c0 .35.12.7.35 1.05h-6.18v-1.05l-1.87-14.58-4.9 14.58c-.12.35-.23.7-.23.82s.12.12.12.23h-4.78v-.23c0-.12 0-.35-.12-.7l-4.89-14.45Zm63.33-5.6c-2.1-1.75-4.9-2.57-8.28-2.57-5.01 0-8.4 1.75-10.38 5.13-.93 1.87-1.52 4.08-1.52 6.65 0 2.33.35 4.31 1.05 5.95.93 2.33 2.45 3.96 4.43 5.02 1.63.82 3.73 1.28 6.3 1.28 3.73 0 6.65-1.05 8.75-2.92 2.22-2.1 3.26-5.13 3.26-9.1 0-4.2-1.17-7.34-3.61-9.44m-3.97 16.56c-.94 1.51-2.34 2.33-4.32 2.33-2.1 0-3.62-.82-4.43-2.57-.47-.93-.82-1.87-1.05-2.92-.23-1.17-.35-2.57-.35-4.2 0-6.18 1.98-9.21 5.83-9.21 1.98 0 3.5.82 4.43 2.45s1.4 3.96 1.4 7.11-.47 5.36-1.51 7Zm49.09-12.48c-.7-1.75-1.75-3.15-3.26-4.2-1.98-1.4-4.54-2.1-7.69-2.1h-8.4c.12.35.12.7.23 1.17v20.99c0 .35-.11.82-.23 1.05h9.91c1.75 0 3.38-.35 4.78-1.17 1.51-.7 2.68-1.87 3.61-3.26q2.1-3.15 2.1-7.35c0-1.87-.35-3.61-1.05-5.13m-7.11 12.36c-1.05 1.28-2.45 1.87-4.2 1.87h-2.1V70.26h1.75c1.63 0 2.92.58 4.08 1.63 1.63 1.63 2.44 3.96 2.44 7.23 0 3.03-.58 5.48-1.98 7.11Zm48.39-16.44c-1.98-1.75-4.78-2.57-8.16-2.57-5.01 0-8.52 1.75-10.38 5.13-1.05 1.87-1.51 4.08-1.51 6.65 0 2.33.35 4.31 1.05 5.95a8.64 8.64 0 0 0 4.43 5.02c1.52.82 3.62 1.28 6.3 1.28 3.73 0 6.53-1.05 8.63-2.92 2.22-2.1 3.38-5.13 3.38-9.1 0-4.2-1.28-7.34-3.73-9.44ZM288 86.35c-.94 1.51-2.45 2.33-4.32 2.33-2.1 0-3.61-.82-4.55-2.57-.46-.93-.82-1.87-1.05-2.92-.11-1.17-.23-2.57-.23-4.2 0-6.18 1.87-9.21 5.83-9.21 1.99 0 3.5.82 4.43 2.45s1.28 3.96 1.28 7.11-.46 5.36-1.39 7Zm47.46 3.38-5.95-9.79c1.75-.58 3.03-1.28 3.73-2.1.81-1.05 1.17-2.33 1.17-3.85 0-2.1-.82-3.85-2.45-5.01-1.28-.93-2.8-1.4-4.67-1.4h-9.21c.12.35.12.7.12 1.17v20.99c0 .47-.12.81-.12 1.05h6.18c-.12-.23-.23-.7-.23-1.05v-9.33l5.02 9.33.35 1.05h6.88c-.23-.11-.47-.46-.81-1.05Zm-8.17-11.89c-.47.47-1.16.7-2.1.7h-1.17v-8.51h1.16c1.05 0 1.87.35 2.45 1.17.59.82.94 1.87.94 3.15 0 1.52-.47 2.68-1.29 3.5Zm24.14-10.26h13.41v2.68c-.35-.12-.7-.23-1.17-.23h-6.3v7.81h6.18c.58 0 .94 0 1.29-.12v2.68c-.24-.12-.7-.12-1.17-.12h-6.3v7.93h6.18c.47 0 .94-.12 1.29-.23v2.8h-13.41c.16-.33.24-.69.23-1.05V68.74c0-.47-.11-.82-.23-1.17Z" class="cls-3"/><path d="M25.26 34.48v3.96c-.87-.77-1.85-1.4-2.92-1.87-.85-.37-1.76-.57-2.68-.58-2.1 0-3.73.93-4.9 2.56s-1.75 3.85-1.75 6.65c0 3.03.7 5.36 1.98 7 1.17 1.52 2.8 2.33 4.78 2.33.93 0 1.87-.23 2.68-.58.82-.35 1.75-1.05 2.8-1.87v3.85c-1.16.47-2.33.82-3.26 1.05-1.11.25-2.24.37-3.38.35-3.85 0-6.65-1.05-8.63-3.03-1.98-2.1-3.03-5.13-3.03-9.21 0-2.56.47-4.66 1.28-6.3 2.1-3.62 5.71-5.48 10.96-5.48 2.22 0 4.2.35 6.06 1.17Zm42.69 1.4c-2.1-1.75-4.78-2.57-8.28-2.57-4.9 0-8.4 1.75-10.26 5.13-1.05 1.87-1.63 4.08-1.63 6.65 0 2.33.35 4.31 1.05 5.95.93 2.33 2.45 3.96 4.43 5.02 1.63.82 3.73 1.28 6.3 1.28 3.73 0 6.65-1.05 8.75-2.92 2.22-2.1 3.26-5.13 3.26-9.1 0-4.2-1.17-7.34-3.61-9.44ZM64.1 52.44c-1.05 1.51-2.45 2.33-4.31 2.33-2.1 0-3.61-.82-4.55-2.57-.47-.93-.81-1.87-1.05-2.92-.23-1.17-.23-2.57-.23-4.2 0-6.18 1.87-9.21 5.71-9.21 2.1 0 3.5.82 4.43 2.45s1.4 3.96 1.4 7.11-.47 5.36-1.4 7Zm32.18-10.96-2.1 14.34v.23c0 .23 0 .47.12.82h-3.15c.22-.31.34-.67.35-1.05l3.15-20.99v-1.17h5.13v.23c0 .23 0 .47.12.82l5.36 15.74 5.36-15.74c.12-.35.12-.58.12-.82v-.23h5.13c-.12.23-.12.47-.12.47 0 .23 0 .35.12.58l2.92 21.11c0 .35.12.7.35 1.05h-6.3c.12-.12.12-.35.12-.47v-.58l-1.87-14.58-4.9 14.58c-.12.35-.23.7-.23.82v.23h-4.66v-.23c0-.12 0-.35-.12-.7l-4.9-14.45Zm45.83 0-2.1 14.34v.23c0 .23.12.47.23.82h-3.27c.22-.31.34-.67.35-1.05l3.15-20.99c0-.23.12-.47.12-.58s-.12-.35-.12-.58h5.13v.23c0 .23.12.47.23.82l5.25 15.74 5.36-15.74c.12-.35.12-.58.12-.82v-.23h5.13v1.05l2.92 21.11c0 .35.12.7.35 1.05h-6.18v-1.05l-1.87-14.58-4.9 14.58c-.12.35-.23.7-.23.82s.12.12.12.23h-4.78v-.23c0-.12 0-.35-.12-.7l-4.89-14.45Zm63.33-5.6c-2.1-1.75-4.9-2.57-8.28-2.57-5.01 0-8.4 1.75-10.38 5.13-.93 1.87-1.52 4.08-1.52 6.65 0 2.33.35 4.31 1.05 5.95.93 2.33 2.45 3.96 4.43 5.02 1.63.82 3.73 1.28 6.3 1.28 3.73 0 6.65-1.05 8.75-2.92 2.22-2.1 3.26-5.13 3.26-9.1 0-4.2-1.17-7.34-3.61-9.44m-3.97 16.56c-.94 1.51-2.34 2.33-4.32 2.33-2.1 0-3.62-.82-4.43-2.57-.47-.93-.82-1.87-1.05-2.92-.23-1.17-.35-2.57-.35-4.2 0-6.18 1.98-9.21 5.83-9.21 1.98 0 3.5.82 4.43 2.45s1.4 3.96 1.4 7.11-.47 5.36-1.51 7Zm49.09-12.48c-.7-1.75-1.75-3.15-3.26-4.2-1.98-1.4-4.54-2.1-7.69-2.1h-8.4c.12.35.12.7.23 1.17v20.99c0 .35-.11.82-.23 1.05h9.91c1.75 0 3.38-.35 4.78-1.17 1.51-.7 2.68-1.87 3.61-3.26q2.1-3.15 2.1-7.35c0-1.87-.35-3.61-1.05-5.13m-7.11 12.36c-1.05 1.28-2.45 1.87-4.2 1.87h-2.1V36.35h1.75c1.63 0 2.92.58 4.08 1.63 1.63 1.63 2.44 3.96 2.44 7.23 0 3.03-.58 5.48-1.98 7.11Zm48.39-16.44c-1.98-1.75-4.78-2.57-8.16-2.57-5.01 0-8.52 1.75-10.38 5.13-1.05 1.87-1.51 4.08-1.51 6.65 0 2.33.35 4.31 1.05 5.95a8.64 8.64 0 0 0 4.43 5.02c1.52.82 3.62 1.28 6.3 1.28 3.73 0 6.53-1.05 8.63-2.92 2.22-2.1 3.38-5.13 3.38-9.1 0-4.2-1.28-7.34-3.73-9.44ZM288 52.44c-.94 1.51-2.45 2.33-4.32 2.33-2.1 0-3.61-.82-4.55-2.57-.46-.93-.82-1.87-1.05-2.92-.11-1.17-.23-2.57-.23-4.2 0-6.18 1.87-9.21 5.83-9.21 1.99 0 3.5.82 4.43 2.45s1.28 3.96 1.28 7.11-.46 5.36-1.39 7Zm47.46 3.38-5.95-9.79c1.75-.58 3.03-1.28 3.73-2.1.81-1.05 1.17-2.33 1.17-3.85 0-2.1-.82-3.85-2.45-5.01-1.28-.93-2.8-1.4-4.67-1.4h-9.21c.12.35.12.7.12 1.17v20.99c0 .47-.12.81-.12 1.05h6.18c-.12-.23-.23-.7-.23-1.05V46.5l5.02 9.33.35 1.05h6.88c-.23-.11-.47-.46-.81-1.05Zm-8.17-11.89c-.47.47-1.16.7-2.1.7h-1.17v-8.51h1.16c1.05 0 1.87.35 2.45 1.17.59.82.94 1.87.94 3.15 0 1.52-.47 2.68-1.29 3.5Zm24.14-10.26h13.41v2.68c-.35-.12-.7-.23-1.17-.23h-6.3v7.81h6.18c.58 0 .94 0 1.29-.12v2.68c-.24-.12-.7-.12-1.17-.12h-6.3v7.93h6.18c.47 0 .94-.12 1.29-.23v2.8h-13.41c.16-.33.24-.69.23-1.05V34.83c0-.47-.11-.82-.23-1.17ZM23.8.03c.5.15.98.33 1.46.54v3.96c-.86-.77-1.85-1.4-2.91-1.86-.85-.37-1.76-.57-2.69-.58-2.09 0-3.73.93-4.89 2.56-1.17 1.63-1.75 3.85-1.75 6.65 0 3.03.7 5.36 1.98 6.99 1.17 1.52 2.8 2.34 4.78 2.34.94 0 1.87-.23 2.68-.59.82-.35 1.75-1.04 2.8-1.86v3.85c-1.16.46-2.33.81-3.26 1.04-1.11.25-2.24.37-3.38.36-3.85 0-6.65-1.05-8.63-3.04-1.98-2.1-3.04-5.13-3.04-9.21 0-2.56.47-4.66 1.29-6.3C9.64 2.47 11.71.84 14.49.03zm44.15 1.94C66.9 1.1 65.7.45 64.33.03h-9.24c-2.55.79-4.47 2.3-5.69 4.51-1.04 1.86-1.63 4.08-1.63 6.65q0 3.495 1.05 5.94c.93 2.34 2.45 3.97 4.43 5.02 1.63.81 3.73 1.28 6.3 1.28 3.73 0 6.65-1.05 8.75-2.92 2.21-2.1 3.26-5.13 3.26-9.09 0-4.2-1.17-7.35-3.61-9.45M64.1 18.53c-1.05 1.52-2.45 2.33-4.32 2.33-2.1 0-3.61-.81-4.55-2.56-.46-.94-.81-1.87-1.04-2.92-.24-1.16-.24-2.56-.24-4.2 0-6.17 1.87-9.21 5.72-9.21 2.1 0 3.49.82 4.43 2.45.93 1.63 1.4 3.97 1.4 7.11s-.47 5.37-1.4 7M99.78.03c0 .22.01.44.12.77l5.36 15.75L110.62.8c.11-.33.12-.55.12-.77h5.04c-.02.11-.02.19-.02.19 0 .23 0 .35.11.58l2.92 21.11c0 .35.12.7.35 1.04h-6.3c.12-.11.12-.34.12-.46v-.59l-1.87-14.57-4.9 14.57c-.11.35-.23.71-.23.82v.23h-4.66v-.23c0-.11 0-.35-.12-.7l-4.9-14.45-2.1 14.34v.23c0 .24 0 .47.12.82h-3.15c.22-.31.34-.67.35-1.05L94.65.92V.03zm61.92 0V.8l2.92 21.11c0 .35.11.7.34 1.04h-6.18V21.9l-1.86-14.57-4.9 14.57c-.12.35-.23.71-.23.82 0 .12.11.12.11.23h-4.78v-.23c0-.11 0-.35-.12-.7l-4.89-14.45-2.1 14.34v.23c0 .24.12.47.24.82h-3.27c.22-.31.34-.67.35-1.05L140.48.92c0-.23.11-.47.11-.59 0-.06-.04-.17-.06-.3h5.08c0 .22.12.44.23.77l5.25 15.75L156.45.8c.11-.33.12-.55.12-.77zm43.74 1.94c-1.06-.87-2.28-1.52-3.66-1.94h-9.26c-2.56.79-4.45 2.3-5.74 4.51-.94 1.86-1.52 4.08-1.52 6.65q0 3.495 1.05 5.94c.93 2.34 2.45 3.97 4.43 5.02 1.63.81 3.73 1.28 6.3 1.28 3.73 0 6.64-1.05 8.74-2.92 2.22-2.1 3.27-5.13 3.27-9.09 0-4.2-1.17-7.35-3.61-9.45m-3.97 16.56c-.94 1.52-2.34 2.33-4.32 2.33-2.1 0-3.62-.81-4.43-2.56-.47-.94-.82-1.87-1.05-2.92-.23-1.16-.35-2.56-.35-4.2 0-6.17 1.98-9.21 5.83-9.21 1.99 0 3.5.82 4.43 2.45.94 1.63 1.4 3.97 1.4 7.11s-.46 5.37-1.51 7m49.09-12.48c-.69-1.75-1.75-3.15-3.26-4.2-1.27-.9-2.77-1.5-4.52-1.82h-11.51c.06.27.08.54.16.89v20.99c0 .35-.11.81-.23 1.05h9.92c1.75 0 3.38-.35 4.78-1.17 1.51-.7 2.68-1.86 3.61-3.26q2.1-3.15 2.1-7.35c0-1.87-.35-3.61-1.05-5.13m-7.11 12.36c-1.05 1.29-2.45 1.87-4.2 1.87h-2.1V2.44h1.75c1.63 0 2.92.58 4.08 1.63 1.64 1.63 2.45 3.97 2.45 7.23 0 3.03-.58 5.48-1.98 7.11m48.39-16.44c-.99-.87-2.18-1.52-3.56-1.94h-9.25c-2.59.78-4.51 2.3-5.73 4.51-1.05 1.86-1.51 4.08-1.51 6.65 0 2.33.35 4.31 1.04 5.94a8.6 8.6 0 0 0 4.44 5.02c1.51.81 3.61 1.28 6.3 1.28 3.72 0 6.53-1.05 8.63-2.92 2.21-2.1 3.37-5.13 3.37-9.09 0-4.2-1.28-7.35-3.73-9.45M288 18.53c-.94 1.52-2.45 2.33-4.32 2.33-2.1 0-3.61-.81-4.55-2.56-.46-.94-.81-1.87-1.05-2.92-.11-1.16-.23-2.56-.23-4.2 0-6.17 1.87-9.21 5.83-9.21 1.99 0 3.5.82 4.43 2.45s1.28 3.97 1.28 7.11-.46 5.37-1.39 7m47.46 3.38-5.95-9.79c1.75-.59 3.04-1.28 3.73-2.1.82-1.05 1.17-2.33 1.17-3.85 0-2.1-.82-3.85-2.45-5.01-.71-.52-1.5-.9-2.39-1.13h-11.42c.05.27.05.55.05.89v20.99c0 .47-.12.82-.12 1.05h6.18c-.12-.23-.23-.7-.23-1.05v-9.33l5.02 9.33.34 1.05h6.88c-.23-.11-.46-.46-.81-1.05m-8.17-11.89c-.46.46-1.16.7-2.1.7h-1.16V2.2h1.16c1.05 0 1.87.35 2.45 1.17.59.82.94 1.86.94 3.15 0 1.51-.47 2.68-1.29 3.5M364.85.03v2.41c-.36-.12-.71-.24-1.17-.24h-6.3v7.82h6.18c.59 0 .94 0 1.29-.12v2.68c-.24-.12-.71-.12-1.17-.12h-6.3v7.93h6.18c.47 0 .94-.11 1.29-.23v2.8h-13.42c.16-.33.24-.69.24-1.05V.92c0-.35-.07-.62-.15-.89zM25.26 170.12v3.96c-.87-.77-1.85-1.4-2.92-1.87-.85-.37-1.76-.57-2.68-.58-2.1 0-3.73.93-4.9 2.56s-1.75 3.85-1.75 6.65c0 3.03.7 5.36 1.98 7 1.17 1.52 2.8 2.33 4.78 2.33.93 0 1.87-.23 2.68-.58.82-.35 1.75-1.05 2.8-1.87v3.85c-1.16.47-2.33.82-3.26 1.05-1.11.25-2.24.37-3.38.35-3.85 0-6.65-1.05-8.63-3.03-1.98-2.1-3.03-5.13-3.03-9.21 0-2.56.47-4.66 1.28-6.3 2.1-3.62 5.71-5.48 10.96-5.48 2.22 0 4.2.35 6.06 1.17Zm42.69 1.4c-2.1-1.75-4.78-2.57-8.28-2.57-4.9 0-8.4 1.75-10.26 5.13-1.05 1.87-1.63 4.08-1.63 6.65 0 2.33.35 4.31 1.05 5.95.93 2.33 2.45 3.96 4.43 5.02 1.63.82 3.73 1.28 6.3 1.28 3.73 0 6.65-1.05 8.75-2.92 2.22-2.1 3.26-5.13 3.26-9.1 0-4.2-1.17-7.34-3.61-9.44Zm-3.85 16.56c-1.05 1.51-2.45 2.33-4.31 2.33-2.1 0-3.61-.82-4.55-2.57-.47-.93-.81-1.87-1.05-2.92-.23-1.17-.23-2.57-.23-4.2 0-6.18 1.87-9.21 5.71-9.21 2.1 0 3.5.82 4.43 2.45s1.4 3.96 1.4 7.11-.47 5.36-1.4 7Zm32.18-10.96-2.1 14.34v.23c0 .23 0 .47.12.82h-3.15c.22-.31.34-.67.35-1.05l3.15-20.99v-1.17h5.13v.23c0 .23 0 .47.12.82l5.36 15.74 5.36-15.74c.12-.35.12-.58.12-.82v-.23h5.13c-.12.23-.12.47-.12.47 0 .23 0 .35.12.58l2.92 21.11c0 .35.12.7.35 1.05h-6.3c.12-.12.12-.35.12-.47v-.58l-1.87-14.58-4.9 14.58c-.12.35-.23.7-.23.82v.23h-4.66v-.23c0-.12 0-.35-.12-.7l-4.9-14.45Zm45.83 0-2.1 14.34v.23c0 .23.12.47.23.82h-3.27c.22-.31.34-.67.35-1.05l3.15-20.99c0-.23.12-.47.12-.58s-.12-.35-.12-.58h5.13v.23c0 .23.12.47.23.82l5.25 15.74 5.36-15.74c.12-.35.12-.58.12-.82v-.23h5.13v1.05l2.92 21.11c0 .35.12.7.35 1.05h-6.18v-1.05l-1.87-14.58-4.9 14.58c-.12.35-.23.7-.23.82s.12.12.12.23h-4.78v-.23c0-.12 0-.35-.12-.7l-4.89-14.45Zm63.33-5.6c-2.1-1.75-4.9-2.57-8.28-2.57-5.01 0-8.4 1.75-10.38 5.13-.93 1.87-1.52 4.08-1.52 6.65 0 2.33.35 4.31 1.05 5.95.93 2.33 2.45 3.96 4.43 5.02 1.63.82 3.73 1.28 6.3 1.28 3.73 0 6.65-1.05 8.75-2.92 2.22-2.1 3.26-5.13 3.26-9.1 0-4.2-1.17-7.34-3.61-9.44m-3.97 16.56c-.94 1.51-2.34 2.33-4.32 2.33-2.1 0-3.62-.82-4.43-2.57-.47-.93-.82-1.87-1.05-2.92-.23-1.17-.35-2.57-.35-4.2 0-6.18 1.98-9.21 5.83-9.21 1.98 0 3.5.82 4.43 2.45s1.4 3.96 1.4 7.11-.47 5.36-1.51 7Zm49.09-12.48c-.7-1.75-1.75-3.15-3.26-4.2-1.98-1.4-4.54-2.1-7.69-2.1h-8.4c.12.35.12.7.23 1.17v20.99c0 .35-.11.82-.23 1.05h9.91c1.75 0 3.38-.35 4.78-1.17 1.51-.7 2.68-1.87 3.61-3.26q2.1-3.15 2.1-7.35c0-1.87-.35-3.61-1.05-5.13m-7.11 12.37c-1.05 1.28-2.45 1.87-4.2 1.87h-2.1V172h1.75c1.63 0 2.92.58 4.08 1.63 1.63 1.63 2.44 3.96 2.44 7.23 0 3.03-.58 5.48-1.98 7.11Zm48.39-16.45c-1.98-1.75-4.78-2.57-8.16-2.57-5.01 0-8.52 1.75-10.38 5.13-1.05 1.87-1.51 4.08-1.51 6.65 0 2.33.35 4.31 1.05 5.95a8.64 8.64 0 0 0 4.43 5.02c1.52.82 3.62 1.28 6.3 1.28 3.73 0 6.53-1.05 8.63-2.92 2.22-2.1 3.38-5.13 3.38-9.1 0-4.2-1.28-7.34-3.73-9.44ZM288 188.08c-.94 1.51-2.45 2.33-4.32 2.33-2.1 0-3.61-.82-4.55-2.57-.46-.93-.82-1.87-1.05-2.92-.11-1.17-.23-2.57-.23-4.2 0-6.18 1.87-9.21 5.83-9.21 1.99 0 3.5.82 4.43 2.45s1.28 3.96 1.28 7.11-.46 5.36-1.39 7Zm47.46 3.38-5.95-9.79c1.75-.58 3.03-1.28 3.73-2.1.81-1.05 1.17-2.33 1.17-3.85 0-2.1-.82-3.85-2.45-5.01-1.28-.93-2.8-1.4-4.67-1.4h-9.21c.12.35.12.7.12 1.17v20.99c0 .47-.12.81-.12 1.05h6.18c-.12-.23-.23-.7-.23-1.05v-9.33l5.02 9.33.35 1.05h6.88c-.23-.11-.47-.46-.81-1.05Zm-8.17-11.89c-.47.47-1.16.7-2.1.7h-1.17v-8.51h1.16c1.05 0 1.87.35 2.45 1.17.59.82.94 1.87.94 3.15 0 1.52-.47 2.68-1.29 3.5Zm24.14-10.26h13.41v2.68c-.35-.12-.7-.23-1.17-.23h-6.3v7.81h6.18c.58 0 .94 0 1.29-.12v2.68c-.24-.12-.7-.12-1.17-.12h-6.3v7.93h6.18c.47 0 .94-.12 1.29-.23v2.8h-13.41c.16-.33.24-.69.23-1.05v-20.99c0-.47-.11-.82-.23-1.17Zm-326.17-33.1v3.96c-.87-.77-1.85-1.4-2.92-1.87-.85-.37-1.76-.57-2.68-.58-2.1 0-3.73.93-4.9 2.56s-1.75 3.85-1.75 6.65c0 3.03.7 5.36 1.98 7 1.17 1.52 2.8 2.33 4.78 2.33.93 0 1.87-.23 2.68-.58.82-.35 1.75-1.05 2.8-1.87v3.85c-1.16.47-2.33.82-3.26 1.05-1.11.25-2.24.37-3.38.35-3.85 0-6.65-1.05-8.63-3.03-1.98-2.1-3.03-5.13-3.03-9.21 0-2.56.47-4.66 1.28-6.3 2.1-3.62 5.71-5.48 10.96-5.48 2.22 0 4.2.35 6.06 1.17Zm42.69 1.4c-2.1-1.75-4.78-2.57-8.28-2.57-4.9 0-8.4 1.75-10.26 5.13-1.05 1.87-1.63 4.08-1.63 6.65 0 2.33.35 4.31 1.05 5.95.93 2.33 2.45 3.96 4.43 5.02 1.63.82 3.73 1.28 6.3 1.28 3.73 0 6.65-1.05 8.75-2.92 2.22-2.1 3.26-5.13 3.26-9.1 0-4.2-1.17-7.34-3.61-9.44Zm-3.85 16.56c-1.05 1.51-2.45 2.33-4.31 2.33-2.1 0-3.61-.82-4.55-2.57-.47-.93-.81-1.87-1.05-2.92-.23-1.17-.23-2.57-.23-4.2 0-6.18 1.87-9.21 5.71-9.21 2.1 0 3.5.82 4.43 2.45s1.4 3.96 1.4 7.11-.47 5.36-1.4 7Zm32.18-10.96-2.1 14.34v.23c0 .23 0 .47.12.82h-3.15c.22-.31.34-.67.35-1.05l3.15-20.99v-1.17h5.13v.23c0 .23 0 .47.12.82l5.36 15.74 5.36-15.74c.12-.35.12-.58.12-.82v-.23h5.13c-.12.23-.12.47-.12.47 0 .23 0 .35.12.58l2.92 21.11c0 .35.12.7.35 1.05h-6.3c.12-.12.12-.35.12-.47v-.58l-1.87-14.58-4.9 14.58c-.12.35-.23.7-.23.82v.23h-4.66v-.23c0-.12 0-.35-.12-.7l-4.9-14.45Zm45.83 0-2.1 14.34v.23c0 .23.12.47.23.82h-3.27c.22-.31.34-.67.35-1.05l3.15-20.99c0-.23.12-.47.12-.58s-.12-.35-.12-.58h5.13v.23c0 .23.12.47.23.82l5.25 15.74 5.36-15.74c.12-.35.12-.58.12-.82v-.23h5.13v1.05l2.92 21.11c0 .35.12.7.35 1.05h-6.18v-1.05l-1.87-14.58-4.9 14.58c-.12.35-.23.7-.23.82s.12.12.12.23h-4.78v-.23c0-.12 0-.35-.12-.7l-4.89-14.45Zm63.33-5.6c-2.1-1.75-4.9-2.57-8.28-2.57-5.01 0-8.4 1.75-10.38 5.13-.93 1.87-1.52 4.08-1.52 6.65 0 2.33.35 4.31 1.05 5.95.93 2.33 2.45 3.96 4.43 5.02 1.63.82 3.73 1.28 6.3 1.28 3.73 0 6.65-1.05 8.75-2.92 2.22-2.1 3.26-5.13 3.26-9.1 0-4.2-1.17-7.34-3.61-9.44m-3.97 16.56c-.94 1.51-2.34 2.33-4.32 2.33-2.1 0-3.62-.82-4.43-2.57-.47-.93-.82-1.87-1.05-2.92-.23-1.17-.35-2.57-.35-4.2 0-6.18 1.98-9.21 5.83-9.21 1.98 0 3.5.82 4.43 2.45s1.4 3.96 1.4 7.11-.47 5.36-1.51 7Zm49.09-12.48c-.7-1.75-1.75-3.15-3.26-4.2-1.98-1.4-4.54-2.1-7.69-2.1h-8.4c.12.35.12.7.23 1.17v20.99c0 .35-.11.82-.23 1.05h9.91c1.75 0 3.38-.35 4.78-1.17 1.51-.7 2.68-1.87 3.61-3.26q2.1-3.15 2.1-7.35c0-1.87-.35-3.61-1.05-5.13m-7.11 12.36c-1.05 1.28-2.45 1.87-4.2 1.87h-2.1v-17.84h1.75c1.63 0 2.92.58 4.08 1.63 1.63 1.63 2.44 3.96 2.44 7.23 0 3.03-.58 5.48-1.98 7.11Zm48.39-16.44c-1.98-1.75-4.78-2.57-8.16-2.57-5.01 0-8.52 1.75-10.38 5.13-1.05 1.87-1.51 4.08-1.51 6.65 0 2.33.35 4.31 1.05 5.95a8.64 8.64 0 0 0 4.43 5.02c1.52.82 3.62 1.28 6.3 1.28 3.73 0 6.53-1.05 8.63-2.92 2.22-2.1 3.38-5.13 3.38-9.1 0-4.2-1.28-7.34-3.73-9.44ZM288 154.17c-.94 1.51-2.45 2.33-4.32 2.33-2.1 0-3.61-.82-4.55-2.57-.46-.93-.82-1.87-1.05-2.92-.11-1.17-.23-2.57-.23-4.2 0-6.18 1.87-9.21 5.83-9.21 1.99 0 3.5.82 4.43 2.45s1.28 3.96 1.28 7.11-.46 5.36-1.39 7Zm47.46 3.38-5.95-9.79c1.75-.58 3.03-1.28 3.73-2.1.81-1.05 1.17-2.33 1.17-3.85 0-2.1-.82-3.85-2.45-5.01-1.28-.93-2.8-1.4-4.67-1.4h-9.21c.12.35.12.7.12 1.17v20.99c0 .47-.12.81-.12 1.05h6.18c-.12-.23-.23-.7-.23-1.05v-9.33l5.02 9.33.35 1.05h6.88c-.23-.11-.47-.46-.81-1.05Zm-8.17-11.89c-.47.47-1.16.7-2.1.7h-1.17v-8.51h1.16c1.05 0 1.87.35 2.45 1.17.59.82.94 1.87.94 3.15 0 1.52-.47 2.68-1.29 3.5Zm24.14-10.26h13.41v2.68c-.35-.12-.7-.23-1.17-.23h-6.3v7.81h6.18c.58 0 .94 0 1.29-.12v2.68c-.24-.12-.7-.12-1.17-.12h-6.3v7.93h6.18c.47 0 .94-.12 1.29-.23v2.8h-13.41c.16-.33.24-.69.23-1.05v-20.99c0-.47-.11-.82-.23-1.17ZM25.26 102.3v3.96c-.87-.77-1.85-1.4-2.92-1.87-.85-.37-1.76-.57-2.68-.58-2.1 0-3.73.93-4.9 2.56s-1.75 3.85-1.75 6.65c0 3.03.7 5.36 1.98 7 1.17 1.52 2.8 2.33 4.78 2.33.93 0 1.87-.23 2.68-.58.82-.35 1.75-1.05 2.8-1.87v3.85c-1.16.47-2.33.82-3.26 1.05-1.11.25-2.24.37-3.38.35-3.85 0-6.65-1.05-8.63-3.03-1.98-2.1-3.03-5.13-3.03-9.21 0-2.56.47-4.66 1.28-6.3 2.1-3.62 5.71-5.48 10.96-5.48 2.22 0 4.2.35 6.06 1.17Zm42.69 1.4c-2.1-1.75-4.78-2.57-8.28-2.57-4.9 0-8.4 1.75-10.26 5.13-1.05 1.87-1.63 4.08-1.63 6.65 0 2.33.35 4.31 1.05 5.95.93 2.33 2.45 3.96 4.43 5.02 1.63.82 3.73 1.28 6.3 1.28 3.73 0 6.65-1.05 8.75-2.92 2.22-2.1 3.26-5.13 3.26-9.1 0-4.2-1.17-7.34-3.61-9.44Zm-3.85 16.56c-1.05 1.51-2.45 2.33-4.31 2.33-2.1 0-3.61-.82-4.55-2.57-.47-.93-.81-1.87-1.05-2.92-.23-1.17-.23-2.57-.23-4.2 0-6.18 1.87-9.21 5.71-9.21 2.1 0 3.5.82 4.43 2.45s1.4 3.96 1.4 7.11-.47 5.36-1.4 7Zm32.18-10.96-2.1 14.34v.23c0 .23 0 .47.12.82h-3.15c.22-.31.34-.67.35-1.05l3.15-20.99v-1.17h5.13v.23c0 .23 0 .47.12.82l5.36 15.74 5.36-15.74c.12-.35.12-.58.12-.82v-.23h5.13c-.12.23-.12.47-.12.47 0 .23 0 .35.12.58l2.92 21.11c0 .35.12.7.35 1.05h-6.3c.12-.12.12-.35.12-.47v-.58l-1.87-14.58-4.9 14.58c-.12.35-.23.7-.23.82v.23h-4.66v-.23c0-.12 0-.35-.12-.7l-4.9-14.45Zm45.83 0-2.1 14.34v.23c0 .23.12.47.23.82h-3.27c.22-.31.34-.67.35-1.05l3.15-20.99c0-.23.12-.47.12-.58s-.12-.35-.12-.58h5.13v.23c0 .23.12.47.23.82l5.25 15.74 5.36-15.74c.12-.35.12-.58.12-.82v-.23h5.13v1.05l2.92 21.11c0 .35.12.7.35 1.05h-6.18v-1.05l-1.87-14.58-4.9 14.58c-.12.35-.23.7-.23.82s.12.12.12.23h-4.78v-.23c0-.12 0-.35-.12-.7l-4.89-14.45Zm63.33-5.6c-2.1-1.75-4.9-2.57-8.28-2.57-5.01 0-8.4 1.75-10.38 5.13-.93 1.87-1.52 4.08-1.52 6.65 0 2.33.35 4.31 1.05 5.95.93 2.33 2.45 3.96 4.43 5.02 1.63.82 3.73 1.28 6.3 1.28 3.73 0 6.65-1.05 8.75-2.92 2.22-2.1 3.26-5.13 3.26-9.1 0-4.2-1.17-7.34-3.61-9.44m-3.97 16.56c-.94 1.51-2.34 2.33-4.32 2.33-2.1 0-3.62-.82-4.43-2.57-.47-.93-.82-1.87-1.05-2.92-.23-1.17-.35-2.57-.35-4.2 0-6.18 1.98-9.21 5.83-9.21 1.98 0 3.5.82 4.43 2.45s1.4 3.96 1.4 7.11-.47 5.36-1.51 7Zm49.09-12.48c-.7-1.75-1.75-3.15-3.26-4.2-1.98-1.4-4.54-2.1-7.69-2.1h-8.4c.12.35.12.7.23 1.17v20.99c0 .35-.11.82-.23 1.05h9.91c1.75 0 3.38-.35 4.78-1.17 1.51-.7 2.68-1.87 3.61-3.26q2.1-3.15 2.1-7.35c0-1.87-.35-3.61-1.05-5.13m-7.11 12.36c-1.05 1.28-2.45 1.87-4.2 1.87h-2.1v-17.84h1.75c1.63 0 2.92.58 4.08 1.63 1.63 1.63 2.44 3.96 2.44 7.23 0 3.03-.58 5.48-1.98 7.11Zm48.39-16.44c-1.98-1.75-4.78-2.57-8.16-2.57-5.01 0-8.52 1.75-10.38 5.13-1.05 1.87-1.51 4.08-1.51 6.65 0 2.33.35 4.31 1.05 5.95a8.64 8.64 0 0 0 4.43 5.02c1.52.82 3.62 1.28 6.3 1.28 3.73 0 6.53-1.05 8.63-2.92 2.22-2.1 3.38-5.13 3.38-9.1 0-4.2-1.28-7.34-3.73-9.44ZM288 120.26c-.94 1.51-2.45 2.33-4.32 2.33-2.1 0-3.61-.82-4.55-2.57-.46-.93-.82-1.87-1.05-2.92-.11-1.17-.23-2.57-.23-4.2 0-6.18 1.87-9.21 5.83-9.21 1.99 0 3.5.82 4.43 2.45s1.28 3.96 1.28 7.11-.46 5.36-1.39 7Zm47.46 3.38-5.95-9.79c1.75-.58 3.03-1.28 3.73-2.1.81-1.05 1.17-2.33 1.17-3.85 0-2.1-.82-3.85-2.45-5.01-1.28-.93-2.8-1.4-4.67-1.4h-9.21c.12.35.12.7.12 1.17v20.99c0 .47-.12.81-.12 1.05h6.18c-.12-.23-.23-.7-.23-1.05v-9.33l5.02 9.33.35 1.05h6.88c-.23-.11-.47-.46-.81-1.05Zm-8.17-11.89c-.47.47-1.16.7-2.1.7h-1.17v-8.51h1.16c1.05 0 1.87.35 2.45 1.17.59.82.94 1.87.94 3.15 0 1.52-.47 2.68-1.29 3.5Zm24.14-10.26h13.41v2.68c-.35-.12-.7-.23-1.17-.23h-6.3v7.81h6.18c.58 0 .94 0 1.29-.12v2.68c-.24-.12-.7-.12-1.17-.12h-6.3v7.93h6.18c.47 0 .94-.12 1.29-.23v2.8h-13.41c.16-.33.24-.69.23-1.05v-20.99c0-.47-.11-.82-.23-1.17ZM25.26 271.85v3.96c-.87-.77-1.85-1.4-2.92-1.87-.85-.37-1.76-.57-2.68-.58-2.1 0-3.73.93-4.9 2.56s-1.75 3.85-1.75 6.65c0 3.03.7 5.36 1.98 7 1.17 1.52 2.8 2.33 4.78 2.33.93 0 1.87-.23 2.68-.58.82-.35 1.75-1.05 2.8-1.87v3.85c-1.16.47-2.33.82-3.26 1.05-1.11.25-2.24.37-3.38.35-3.85 0-6.65-1.05-8.63-3.03-1.98-2.1-3.03-5.13-3.03-9.21 0-2.56.47-4.66 1.28-6.3 2.1-3.62 5.71-5.48 10.96-5.48 2.22 0 4.2.35 6.06 1.17Zm42.69 1.41c-2.1-1.75-4.78-2.57-8.28-2.57-4.9 0-8.4 1.75-10.26 5.13-1.05 1.87-1.63 4.08-1.63 6.65 0 2.33.35 4.31 1.05 5.95.93 2.33 2.45 3.96 4.43 5.02 1.63.82 3.73 1.28 6.3 1.28 3.73 0 6.65-1.05 8.75-2.92 2.22-2.1 3.26-5.13 3.26-9.1 0-4.2-1.17-7.34-3.61-9.44Zm-3.85 16.55c-1.05 1.51-2.45 2.33-4.31 2.33-2.1 0-3.61-.82-4.55-2.57-.47-.93-.81-1.87-1.05-2.92-.23-1.17-.23-2.57-.23-4.2 0-6.18 1.87-9.21 5.71-9.21 2.1 0 3.5.82 4.43 2.45s1.4 3.96 1.4 7.11-.47 5.36-1.4 7Zm32.18-10.96-2.1 14.34v.23c0 .23 0 .47.12.82h-3.15c.22-.31.34-.67.35-1.05l3.15-20.99v-1.17h5.13v.23c0 .23 0 .47.12.82l5.36 15.74 5.36-15.74c.12-.35.12-.58.12-.82v-.23h5.13c-.12.23-.12.47-.12.47 0 .23 0 .35.12.58l2.92 21.11c0 .35.12.7.35 1.05h-6.3c.12-.12.12-.35.12-.47v-.58l-1.87-14.58-4.9 14.58c-.12.35-.23.7-.23.82v.23h-4.66v-.23c0-.12 0-.35-.12-.7l-4.9-14.45Zm45.83 0-2.1 14.34v.23c0 .23.12.47.23.82h-3.27c.22-.31.34-.67.35-1.05l3.15-20.99c0-.23.12-.47.12-.58s-.12-.35-.12-.58h5.13v.23c0 .23.12.47.23.82l5.25 15.74 5.36-15.74c.12-.35.12-.58.12-.82v-.23h5.13v1.05l2.92 21.11c0 .35.12.7.35 1.05h-6.18v-1.05l-1.87-14.58-4.9 14.58c-.12.35-.23.7-.23.82s.12.12.12.23h-4.78v-.23c0-.12 0-.35-.12-.7l-4.89-14.45Zm63.33-5.59c-2.1-1.75-4.9-2.57-8.28-2.57-5.01 0-8.4 1.75-10.38 5.13-.93 1.87-1.52 4.08-1.52 6.65 0 2.33.35 4.31 1.05 5.95.93 2.33 2.45 3.96 4.43 5.02 1.63.82 3.73 1.28 6.3 1.28 3.73 0 6.65-1.05 8.75-2.92 2.22-2.1 3.26-5.13 3.26-9.1 0-4.2-1.17-7.34-3.61-9.44m-3.97 16.55c-.94 1.51-2.34 2.33-4.32 2.33-2.1 0-3.62-.82-4.43-2.57-.47-.93-.82-1.87-1.05-2.92-.23-1.17-.35-2.57-.35-4.2 0-6.18 1.98-9.21 5.83-9.21 1.98 0 3.5.82 4.43 2.45s1.4 3.96 1.4 7.11-.47 5.36-1.51 7Zm49.09-12.48c-.7-1.75-1.75-3.15-3.26-4.2-1.98-1.4-4.54-2.1-7.69-2.1h-8.4c.12.35.12.7.23 1.17v20.99c0 .35-.11.82-.23 1.05h9.91c1.75 0 3.38-.35 4.78-1.17 1.51-.7 2.68-1.87 3.61-3.26q2.1-3.15 2.1-7.35c0-1.87-.35-3.61-1.05-5.13m-7.11 12.37c-1.05 1.28-2.45 1.87-4.2 1.87h-2.1v-17.84h1.75c1.63 0 2.92.58 4.08 1.63 1.63 1.63 2.44 3.96 2.44 7.23 0 3.03-.58 5.48-1.98 7.11Zm48.39-16.44c-1.98-1.75-4.78-2.57-8.16-2.57-5.01 0-8.52 1.75-10.38 5.13-1.05 1.87-1.51 4.08-1.51 6.65 0 2.33.35 4.31 1.05 5.95a8.64 8.64 0 0 0 4.43 5.02c1.52.82 3.62 1.28 6.3 1.28 3.73 0 6.53-1.05 8.63-2.92 2.22-2.1 3.38-5.13 3.38-9.1 0-4.2-1.28-7.34-3.73-9.44ZM288 289.81c-.94 1.51-2.45 2.33-4.32 2.33-2.1 0-3.61-.82-4.55-2.57-.46-.93-.82-1.87-1.05-2.92-.11-1.17-.23-2.57-.23-4.2 0-6.18 1.87-9.21 5.83-9.21 1.99 0 3.5.82 4.43 2.45s1.28 3.96 1.28 7.11-.46 5.36-1.39 7Zm47.46 3.39-5.95-9.79c1.75-.58 3.03-1.28 3.73-2.1.81-1.05 1.17-2.33 1.17-3.85 0-2.1-.82-3.85-2.45-5.01-1.28-.93-2.8-1.4-4.67-1.4h-9.21c.12.35.12.7.12 1.17v20.99c0 .47-.12.81-.12 1.05h6.18c-.12-.23-.23-.7-.23-1.05v-9.33l5.02 9.33.35 1.05h6.88c-.23-.11-.47-.46-.81-1.05Zm-8.17-11.9c-.47.47-1.16.7-2.1.7h-1.17v-8.51h1.16c1.05 0 1.87.35 2.45 1.17.59.82.94 1.87.94 3.15 0 1.52-.47 2.68-1.29 3.5Zm24.14-10.26h13.41v2.68c-.35-.12-.7-.23-1.17-.23h-6.3v7.81h6.18c.58 0 .94 0 1.29-.12v2.68c-.24-.12-.7-.12-1.17-.12h-6.3v7.93h6.18c.47 0 .94-.12 1.29-.23v2.8h-13.41c.16-.33.24-.69.23-1.05V272.2c0-.47-.11-.82-.23-1.17ZM25.26 305.76v3.97c-.86-.77-1.85-1.4-2.91-1.87-.85-.37-1.76-.57-2.69-.58-2.09 0-3.73.93-4.89 2.56-1.17 1.64-1.75 3.85-1.75 6.65q0 1.965.39 3.54H7.29c-.23-1.11-.34-2.33-.34-3.66 0-2.56.47-4.66 1.29-6.29 2.1-3.62 5.71-5.48 10.96-5.48 2.22 0 4.2.35 6.06 1.16m42.69 1.41c-2.1-1.75-4.79-2.57-8.28-2.57-4.9 0-8.4 1.75-10.27 5.13-1.04 1.87-1.63 4.08-1.63 6.65 0 1.33.11 2.55.35 3.65h5.98c-.15-1.04-.15-2.26-.15-3.65 0-6.18 1.87-9.21 5.72-9.21 2.1 0 3.49.81 4.43 2.44.93 1.64 1.4 3.97 1.4 7.12 0 1.21-.08 2.31-.23 3.3h5.98c.21-1.05.31-2.19.31-3.42 0-4.2-1.17-7.34-3.61-9.44M99.9 306l4.78 14.03h-5.93l-2.47-7.27-1.06 7.27h-2.66l2.09-13.92v-1.16h5.13v.23c0 .23 0 .46.12.82m17.91 14.03h-5.76l-.96-7.51-2.52 7.51h-2.73l4.78-14.03c.12-.35.12-.59.12-.82v-.23h5.13c-.11.23-.11.46-.11.46 0 .23 0 .35.11.58zM145.84 306l4.68 14.03h-5.95l-2.46-7.27-1.06 7.27h-2.66l2.09-13.92c0-.23.11-.47.11-.58 0-.12-.11-.35-.11-.58h5.12v.23c0 .23.12.46.24.82m17.8 14.03h-5.76l-.96-7.51-2.52 7.51h-2.73l4.78-14.03c.12-.35.12-.59.12-.82v-.23h5.13v1.04zm41.8-12.86c-2.11-1.75-4.9-2.57-8.29-2.57-5.01 0-8.39 1.75-10.37 5.13-.94 1.87-1.52 4.08-1.52 6.65 0 1.33.11 2.55.35 3.65h5.97c-.17-1.04-.26-2.26-.26-3.65 0-6.18 1.98-9.21 5.83-9.21 1.99 0 3.5.81 4.43 2.44.94 1.64 1.4 3.97 1.4 7.12 0 1.21-.07 2.31-.23 3.3h5.99c.21-1.05.31-2.19.31-3.42 0-4.2-1.17-7.34-3.61-9.44m45.12 4.08c-.69-1.75-1.75-3.15-3.26-4.2-1.98-1.4-4.55-2.1-7.69-2.1h-8.41c.12.35.12.7.23 1.17v13.91h5.72v-12.4h1.75c1.63 0 2.92.59 4.08 1.64 1.64 1.63 2.45 3.96 2.45 7.22 0 1.3-.11 2.48-.35 3.54h6.07c.31-1.14.46-2.36.46-3.66 0-1.86-.35-3.61-1.05-5.12m41.28-4.08c-1.98-1.75-4.78-2.57-8.16-2.57-5.01 0-8.51 1.75-10.38 5.13-1.05 1.87-1.51 4.08-1.51 6.65 0 1.33.11 2.55.35 3.65h5.89c-.09-1.04-.18-2.26-.18-3.65 0-6.18 1.87-9.21 5.83-9.21 1.99 0 3.5.81 4.43 2.44.93 1.64 1.28 3.97 1.28 7.12 0 1.21-.07 2.31-.22 3.3h6.06c.23-1.05.34-2.19.34-3.42 0-4.2-1.28-7.34-3.73-9.44m42.57 4.19c0-2.09-.82-3.85-2.45-5.01-1.28-.93-2.8-1.4-4.67-1.4h-9.21c.12.35.12.7.12 1.17v13.91h5.83v-2.25l1.21 2.25h5.92l-1.65-2.72c1.75-.58 3.04-1.28 3.73-2.1.82-1.05 1.17-2.33 1.17-3.85m-7.12 3.85c-.46.47-1.16.7-2.1.7h-1.16v-8.51h1.16c1.05 0 1.87.35 2.45 1.16.59.82.94 1.87.94 3.15 0 1.52-.47 2.68-1.29 3.5m30.09-7.81v7.81h6.18c.59 0 .94 0 1.29-.12v2.68c-.24-.11-.71-.11-1.17-.11h-6.3v2.37h-5.71v-13.91c0-.47-.12-.82-.24-1.17h13.42v2.68c-.36-.12-.71-.23-1.17-.23zM25.26 237.94v3.96c-.87-.77-1.85-1.4-2.92-1.87-.85-.37-1.76-.57-2.68-.58-2.1 0-3.73.93-4.9 2.56s-1.75 3.85-1.75 6.65c0 3.03.7 5.36 1.98 7 1.17 1.52 2.8 2.33 4.78 2.33.93 0 1.87-.23 2.68-.58.82-.35 1.75-1.05 2.8-1.87v3.85c-1.16.47-2.33.82-3.26 1.05-1.11.25-2.24.37-3.38.35-3.85 0-6.65-1.05-8.63-3.03-1.98-2.1-3.03-5.13-3.03-9.21 0-2.56.47-4.66 1.28-6.3 2.1-3.62 5.71-5.48 10.96-5.48 2.22 0 4.2.35 6.06 1.17Zm42.69 1.41c-2.1-1.75-4.78-2.57-8.28-2.57-4.9 0-8.4 1.75-10.26 5.13-1.05 1.87-1.63 4.08-1.63 6.65 0 2.33.35 4.31 1.05 5.95.93 2.33 2.45 3.96 4.43 5.02 1.63.82 3.73 1.28 6.3 1.28 3.73 0 6.65-1.05 8.75-2.92 2.22-2.1 3.26-5.13 3.26-9.1 0-4.2-1.17-7.34-3.61-9.44ZM64.1 255.9c-1.05 1.51-2.45 2.33-4.31 2.33-2.1 0-3.61-.82-4.55-2.57-.47-.93-.81-1.87-1.05-2.92-.23-1.17-.23-2.57-.23-4.2 0-6.18 1.87-9.21 5.71-9.21 2.1 0 3.5.82 4.43 2.45s1.4 3.96 1.4 7.11-.47 5.36-1.4 7Zm32.18-10.96-2.1 14.34v.23c0 .23 0 .47.12.82h-3.15c.22-.31.34-.67.35-1.05l3.15-20.99v-1.17h5.13v.23c0 .23 0 .47.12.82l5.36 15.74 5.36-15.74c.12-.35.12-.58.12-.82v-.23h5.13c-.12.23-.12.47-.12.47 0 .23 0 .35.12.58l2.92 21.11c0 .35.12.7.35 1.05h-6.3c.12-.12.12-.35.12-.47v-.58l-1.87-14.58-4.9 14.58c-.12.35-.23.7-.23.82v.23h-4.66v-.23c0-.12 0-.35-.12-.7l-4.9-14.45Zm45.83 0-2.1 14.34v.23c0 .23.12.47.23.82h-3.27c.22-.31.34-.67.35-1.05l3.15-20.99c0-.23.12-.47.12-.58s-.12-.35-.12-.58h5.13v.23c0 .23.12.47.23.82l5.25 15.74 5.36-15.74c.12-.35.12-.58.12-.82v-.23h5.13v1.05l2.92 21.11c0 .35.12.7.35 1.05h-6.18v-1.05l-1.87-14.58-4.9 14.58c-.12.35-.23.7-.23.82s.12.12.12.23h-4.78v-.23c0-.12 0-.35-.12-.7l-4.89-14.45Zm63.33-5.59c-2.1-1.75-4.9-2.57-8.28-2.57-5.01 0-8.4 1.75-10.38 5.13-.93 1.87-1.52 4.08-1.52 6.65 0 2.33.35 4.31 1.05 5.95.93 2.33 2.45 3.96 4.43 5.02 1.63.82 3.73 1.28 6.3 1.28 3.73 0 6.65-1.05 8.75-2.92 2.22-2.1 3.26-5.13 3.26-9.1 0-4.2-1.17-7.34-3.61-9.44m-3.97 16.55c-.94 1.51-2.34 2.33-4.32 2.33-2.1 0-3.62-.82-4.43-2.57-.47-.93-.82-1.87-1.05-2.92-.23-1.17-.35-2.57-.35-4.2 0-6.18 1.98-9.21 5.83-9.21 1.98 0 3.5.82 4.43 2.45s1.4 3.96 1.4 7.11-.47 5.36-1.51 7Zm49.09-12.48c-.7-1.75-1.75-3.15-3.26-4.2-1.98-1.4-4.54-2.1-7.69-2.1h-8.4c.12.35.12.7.23 1.17v20.99c0 .35-.11.82-.23 1.05h9.91c1.75 0 3.38-.35 4.78-1.17 1.51-.7 2.68-1.87 3.61-3.26q2.1-3.15 2.1-7.35c0-1.87-.35-3.61-1.05-5.13m-7.11 12.37c-1.05 1.28-2.45 1.87-4.2 1.87h-2.1v-17.84h1.75c1.63 0 2.92.58 4.08 1.63 1.63 1.63 2.44 3.96 2.44 7.23 0 3.03-.58 5.48-1.98 7.11Zm48.39-16.44c-1.98-1.75-4.78-2.57-8.16-2.57-5.01 0-8.52 1.75-10.38 5.13-1.05 1.87-1.51 4.08-1.51 6.65 0 2.33.35 4.31 1.05 5.95a8.64 8.64 0 0 0 4.43 5.02c1.52.82 3.62 1.28 6.3 1.28 3.73 0 6.53-1.05 8.63-2.92 2.22-2.1 3.38-5.13 3.38-9.1 0-4.2-1.28-7.34-3.73-9.44ZM288 255.9c-.94 1.51-2.45 2.33-4.32 2.33-2.1 0-3.61-.82-4.55-2.57-.46-.93-.82-1.87-1.05-2.92-.11-1.17-.23-2.57-.23-4.2 0-6.18 1.87-9.21 5.83-9.21 1.99 0 3.5.82 4.43 2.45s1.28 3.96 1.28 7.11-.46 5.36-1.39 7Zm47.46 3.39-5.95-9.79c1.75-.58 3.03-1.28 3.73-2.1.81-1.05 1.17-2.33 1.17-3.85 0-2.1-.82-3.85-2.45-5.01-1.28-.93-2.8-1.4-4.67-1.4h-9.21c.12.35.12.7.12 1.17v20.99c0 .47-.12.81-.12 1.05h6.18c-.12-.23-.23-.7-.23-1.05v-9.33l5.02 9.33.35 1.05h6.88c-.23-.11-.47-.46-.81-1.05Zm-8.17-11.9c-.47.47-1.16.7-2.1.7h-1.17v-8.51h1.16c1.05 0 1.87.35 2.45 1.17.59.82.94 1.87.94 3.15 0 1.52-.47 2.68-1.29 3.5Zm24.14-10.26h13.41v2.68c-.35-.12-.7-.23-1.17-.23h-6.3v7.81h6.18c.58 0 .94 0 1.29-.12v2.68c-.24-.12-.7-.12-1.17-.12h-6.3v7.93h6.18c.47 0 .94-.12 1.29-.23v2.8h-13.41c.16-.33.24-.69.23-1.05v-20.99c0-.47-.11-.82-.23-1.17Zm-326.17-33.1v3.96c-.87-.77-1.85-1.4-2.92-1.87-.85-.37-1.76-.57-2.68-.58-2.1 0-3.73.93-4.9 2.56s-1.75 3.85-1.75 6.65c0 3.03.7 5.36 1.98 7 1.17 1.52 2.8 2.33 4.78 2.33.93 0 1.87-.23 2.68-.58.82-.35 1.75-1.05 2.8-1.87v3.85c-1.16.47-2.33.82-3.26 1.05-1.11.25-2.24.37-3.38.35-3.85 0-6.65-1.05-8.63-3.03-1.98-2.1-3.03-5.13-3.03-9.21 0-2.56.47-4.66 1.28-6.3 2.1-3.62 5.71-5.48 10.96-5.48 2.22 0 4.2.35 6.06 1.17Zm42.69 1.4c-2.1-1.75-4.78-2.57-8.28-2.57-4.9 0-8.4 1.75-10.26 5.13-1.05 1.87-1.63 4.08-1.63 6.65 0 2.33.35 4.31 1.05 5.95.93 2.33 2.45 3.96 4.43 5.02 1.63.82 3.73 1.28 6.3 1.28 3.73 0 6.65-1.05 8.75-2.92 2.22-2.1 3.26-5.13 3.26-9.1 0-4.2-1.17-7.34-3.61-9.44Zm-3.85 16.56c-1.05 1.51-2.45 2.33-4.31 2.33-2.1 0-3.61-.82-4.55-2.57-.47-.93-.81-1.87-1.05-2.92-.23-1.17-.23-2.57-.23-4.2 0-6.18 1.87-9.21 5.71-9.21 2.1 0 3.5.82 4.43 2.45s1.4 3.96 1.4 7.11-.47 5.36-1.4 7Zm32.18-10.96-2.1 14.34v.23c0 .23 0 .47.12.82h-3.15c.22-.31.34-.67.35-1.05l3.15-20.99v-1.17h5.13v.23c0 .23 0 .47.12.82l5.36 15.74 5.36-15.74c.12-.35.12-.58.12-.82v-.23h5.13c-.12.23-.12.47-.12.47 0 .23 0 .35.12.58l2.92 21.11c0 .35.12.7.35 1.05h-6.3c.12-.12.12-.35.12-.47v-.58l-1.87-14.58-4.9 14.58c-.12.35-.23.7-.23.82v.23h-4.66v-.23c0-.12 0-.35-.12-.7l-4.9-14.45Zm45.83 0-2.1 14.34v.23c0 .23.12.47.23.82h-3.27c.22-.31.34-.67.35-1.05l3.15-20.99c0-.23.12-.47.12-.58s-.12-.35-.12-.58h5.13v.23c0 .23.12.47.23.82l5.25 15.74 5.36-15.74c.12-.35.12-.58.12-.82v-.23h5.13v1.05l2.92 21.11c0 .35.12.7.35 1.05h-6.18v-1.05l-1.87-14.58-4.9 14.58c-.12.35-.23.7-.23.82s.12.12.12.23h-4.78v-.23c0-.12 0-.35-.12-.7l-4.89-14.45Zm63.33-5.6c-2.1-1.75-4.9-2.57-8.28-2.57-5.01 0-8.4 1.75-10.38 5.13-.93 1.87-1.52 4.08-1.52 6.65 0 2.33.35 4.31 1.05 5.95.93 2.33 2.45 3.96 4.43 5.02 1.63.82 3.73 1.28 6.3 1.28 3.73 0 6.65-1.05 8.75-2.92 2.22-2.1 3.26-5.13 3.26-9.1 0-4.2-1.17-7.34-3.61-9.44m-3.97 16.56c-.94 1.51-2.34 2.33-4.32 2.33-2.1 0-3.62-.82-4.43-2.57-.47-.93-.82-1.87-1.05-2.92-.23-1.17-.35-2.57-.35-4.2 0-6.18 1.98-9.21 5.83-9.21 1.98 0 3.5.82 4.43 2.45s1.4 3.96 1.4 7.11-.47 5.36-1.51 7Zm49.09-12.48c-.7-1.75-1.75-3.15-3.26-4.2-1.98-1.4-4.54-2.1-7.69-2.1h-8.4c.12.35.12.7.23 1.17v20.99c0 .35-.11.82-.23 1.05h9.91c1.75 0 3.38-.35 4.78-1.17 1.51-.7 2.68-1.87 3.61-3.26q2.1-3.15 2.1-7.35c0-1.87-.35-3.61-1.05-5.13m-7.11 12.37c-1.05 1.28-2.45 1.87-4.2 1.87h-2.1v-17.84h1.75c1.63 0 2.92.58 4.08 1.63 1.63 1.63 2.44 3.96 2.44 7.23 0 3.03-.58 5.48-1.98 7.11Zm48.39-16.45c-1.98-1.75-4.78-2.57-8.16-2.57-5.01 0-8.52 1.75-10.38 5.13-1.05 1.87-1.51 4.08-1.51 6.65 0 2.33.35 4.31 1.05 5.95a8.64 8.64 0 0 0 4.43 5.02c1.52.82 3.62 1.28 6.3 1.28 3.73 0 6.53-1.05 8.63-2.92 2.22-2.1 3.38-5.13 3.38-9.1 0-4.2-1.28-7.34-3.73-9.44ZM288 221.99c-.94 1.51-2.45 2.33-4.32 2.33-2.1 0-3.61-.82-4.55-2.57-.46-.93-.82-1.87-1.05-2.92-.11-1.17-.23-2.57-.23-4.2 0-6.18 1.87-9.21 5.83-9.21 1.99 0 3.5.82 4.43 2.45s1.28 3.96 1.28 7.11-.46 5.36-1.39 7Zm47.46 3.39-5.95-9.79c1.75-.58 3.03-1.28 3.73-2.1.81-1.05 1.17-2.33 1.17-3.85 0-2.1-.82-3.85-2.45-5.01-1.28-.93-2.8-1.4-4.67-1.4h-9.21c.12.35.12.7.12 1.17v20.99c0 .47-.12.81-.12 1.05h6.18c-.12-.23-.23-.7-.23-1.05v-9.33l5.02 9.33.35 1.05h6.88c-.23-.11-.47-.46-.81-1.05Zm-8.17-11.9c-.47.47-1.16.7-2.1.7h-1.17v-8.51h1.16c1.05 0 1.87.35 2.45 1.17.59.82.94 1.87.94 3.15 0 1.52-.47 2.68-1.29 3.5Zm24.14-10.26h13.41v2.68c-.35-.12-.7-.23-1.17-.23h-6.3v7.81h6.18c.58 0 .94 0 1.29-.12v2.68c-.24-.12-.7-.12-1.17-.12h-6.3v7.93h6.18c.47 0 .94-.12 1.29-.23v2.8h-13.41c.16-.33.24-.69.23-1.05v-20.99c0-.47-.11-.82-.23-1.17Z" style="fill:#372869;fill-rule:evenodd"/><path d="M286.75 126.55h5.43v.65h-2.29v5.95h-.85v-5.95h-2.29zm11.7 6.6v-5.62l-1.83 5.62h-.98l-1.83-5.62v5.62h-.78v-6.6h1.24l1.89 5.55 1.96-5.55h1.24v6.6zM193.9 167.66v-41.5h-9.54v41.5z" class="cls-3"/><path d="m269.24 133.15-11.04 33.39c7.58 1.24 15.36 2.55 22.74 4.64l2.68 3.79c-8.69-2.15-17.25-3.99-26.47-5.29l-1.11 2.87-6.73-.85 18.1-45.55h8.1c16.14 26.2 32.02 53.65 50.52 78.29-84.63-31.3-192.71-30.52-277.47.33 2.02-3.27 4-6.55 5.95-9.87 76-25.88 178.86-23.07 254.4-.72-14.45-19.74-26.21-39.28-39.67-61.04Z" class="cls-3"/><path d="M124.04 172.43v-46.27h11.17l14.71 28.88 13.13-28.88h11.7v41.5h-9.54v-34.97l-17.38 38.04-17.97-35.16v36.14zm-52.41 6.47c9.02-2.55 18.23-4.44 27.38-6.21l-3.2-2.81c-7.19 1.05-14.18 2.68-21.57 4.64l22.35-38.75 14.51 38.55c3.44-.71 6.91-1.3 10.39-1.76l-19.21-46.4h-6.27l-36.53 60.18c3.14-1.31 6.6-2.15 9.87-3.27l2.29-4.18Zm165.13-27.78h9.61v15.42c-6.8 4.18-15.95 4.83-23.72 3.92s-15.36-3.99-18.95-11.5c-4.77-10.13-1.5-20.91 7.12-27.84 8.82-7.06 20.39-8.36 30.91-4.51 2.74.98 5.23 2.48 7.77 3.73v7.91c-6.99-7.78-17.77-12.48-28.03-8.5-7.58 2.94-10.91 10.46-10.78 18.23 0 1.5.13 3.01.46 4.51 2.09 9.67 13.13 16.73 22.87 14.84.92-.2 1.83-.53 2.74-.78v-15.42Z" class="cls-3"/><g id="Layer_1-2" data-name="Layer 1"><path d="M560.19 162.89v132.04l-171.65-.53c-3.94 0-7.16-3.17-7.22-7.11l-3.02-124.4zm0-114.67v89.67H382.21l5.62-41.78.14-1.03.5-3.7.13-1.04.5-3.69.14-1.04.5-3.7.14-1.03.5-3.7.14-1.04.49-3.69.14-1.04.5-3.69.14-1.04.49-3.7.15-1.04.49-3.69.14-1.04 1.21-8.99z" class="cls-4"/><path d="M386.43 164.13h18.18v18.18h-18.18zm25.08 0h107.26v18.18H411.51zm-10.43 89.5h159.11v18.19H401.08z" class="cls-4"/><path d="M386.07 188.25h174.12v66.96H386.07zm138.06-24.12h36.06v18.19h-36.06z" class="cls-4"/><rect width="16.15" height="15.62" x="387.45" y="165.41" class="cls-4" rx=".55" ry=".55"/><path d="M400.63 177.7c-3.4.52-6.81.52-10.22 0-.53 0-.96-.41-.96-.91v-9.68c0-.5.43-.91.96-.91h10.22c.53 0 .96.41.96.91v9.68c0 .5-.43.91-.96.91Z" class="cls-4"/><rect width="16.15" height="15.62" x="408.56" y="222.17" class="cls-4" rx=".55" ry=".55"/><path d="M421.74 234.46c-3.4.52-6.81.52-10.22 0-.53 0-.96-.41-.96-.91v-9.68c0-.5.43-.91.96-.91h10.22c.53 0 .96.41.96.91v9.68c0 .5-.43.91-.96.91Z" class="cls-4"/><rect width="20.2" height="15.62" x="423.27" y="254.91" class="cls-4" rx=".61" ry=".61"/><path d="M440.66 267.19c-4.86.52-9.73.52-14.59 0-.76 0-1.37-.41-1.37-.91v-9.68c0-.5.62-.91 1.37-.91h14.59c.76 0 1.37.41 1.37.91v9.68c0 .5-.62.91-1.37.91Z" class="cls-4"/><rect width="20.2" height="15.62" x="387.18" y="222.17" class="cls-4" rx=".61" ry=".61"/><path d="M404.57 234.46c-4.86.52-9.73.52-14.59 0-.76 0-1.37-.41-1.37-.91v-9.68c0-.5.62-.91 1.37-.91h14.59c.76 0 1.37.41 1.37.91v9.68c0 .5-.62.91-1.37.91Z" class="cls-4"/><rect width="20.2" height="15.62" x="412.37" y="165.41" class="cls-4" rx=".61" ry=".61"/><path d="M429.76 177.7c-4.86.52-9.73.52-14.59 0-.76 0-1.37-.41-1.37-.91v-9.68c0-.5.62-.91 1.37-.91h14.59c.76 0 1.37.41 1.37.91v9.68c0 .5-.62.91-1.37.91Z" class="cls-4"/><rect width="20.2" height="15.62" x="433.7" y="165.41" class="cls-4" rx=".61" ry=".61"/><path d="M451.09 177.7c-4.86.52-9.73.52-14.59 0-.76 0-1.37-.41-1.37-.91v-9.68c0-.5.62-.91 1.37-.91h14.59c.76 0 1.37.41 1.37.91v9.68c0 .5-.62.91-1.37.91Z" class="cls-4"/><rect width="20.2" height="15.62" x="454.92" y="165.41" class="cls-4" rx=".61" ry=".61"/><path d="M472.31 177.7c-4.86.52-9.73.52-14.59 0-.76 0-1.37-.41-1.37-.91v-9.68c0-.5.62-.91 1.37-.91h14.59c.76 0 1.37.41 1.37.91v9.68c0 .5-.62.91-1.37.91Z" class="cls-4"/><rect width="20.2" height="15.62" x="476.3" y="165.41" class="cls-4" rx=".61" ry=".61"/><path d="M493.69 177.7c-4.86.52-9.73.52-14.59 0-.76 0-1.37-.41-1.37-.91v-9.68c0-.5.62-.91 1.37-.91h14.59c.76 0 1.37.41 1.37.91v9.68c0 .5-.62.91-1.37.91Z" class="cls-4"/><rect width="20.2" height="15.62" x="497.74" y="165.41" class="cls-4" rx=".61" ry=".61"/><path d="M515.13 177.7c-4.86.52-9.73.52-14.59 0-.76 0-1.37-.41-1.37-.91v-9.68c0-.5.62-.91 1.37-.91h14.59c.76 0 1.37.41 1.37.91v9.68c0 .5-.62.91-1.37.91Z" class="cls-4"/><rect width="20.2" height="15.62" x="525.11" y="165.41" class="cls-4" rx=".61" ry=".61"/><path d="M542.5 177.7c-4.86.52-9.73.52-14.59 0-.76 0-1.37-.41-1.37-.91v-9.68c0-.5.62-.91 1.37-.91h14.59c.76 0 1.37.41 1.37.91v9.68c0 .5-.62.91-1.37.91Zm17.69-12.29v15.62h-13.14c-.34 0-.61-.27-.61-.61v-14.4c0-.33.27-.61.61-.61z" class="cls-4"/><path d="M560.19 166.19v11.8c-3.65.19-7.3.09-10.95-.29-.75 0-1.37-.41-1.37-.91v-9.69c0-.5.62-.91 1.37-.91z" class="cls-4"/><rect width="24.94" height="15.62" x="387.18" y="189.85" class="cls-4" rx=".67" ry=".67"/><path d="M409.15 202.13q-9.495.78-18.99 0c-.99 0-1.79-.41-1.79-.91v-9.68c0-.5.8-.91 1.79-.91h18.99c.99 0 1.79.41 1.79.91v9.68c0 .5-.8.91-1.79.91Z" class="cls-4"/><rect width="29.45" height="15.62" x="387.18" y="238.68" class="cls-4" rx=".73" ry=".73"/><rect width="33.42" height="15.62" x="387.18" y="206.01" class="cls-4" rx=".78" ry=".78"/><path d="M418.09 218.23c-9.46 1.3-18.92 1.3-28.39 0-.35 0-.63-.28-.63-.63v-10.08c0-.35.28-.63.63-.63h28.39c.35 0 .63.28.63.63v10.08c0 .35-.28.63-.63.63Zm-4.81 32.74c-7.59.52-15.17.52-22.76 0-1.18 0-2.14-.41-2.14-.91v-9.68c0-.5.96-.91 2.14-.91h22.76c1.18 0 2.14.41 2.14.91v9.68c0 .5-.96.91-2.14.91Z" class="cls-4"/><rect width="20.2" height="15.62" x="402.27" y="254.91" class="cls-4" rx=".61" ry=".61"/><path d="M419.66 267.19c-4.86.52-9.73.52-14.59 0-.76 0-1.37-.41-1.37-.91v-9.68c0-.5.62-.91 1.37-.91h14.59c.76 0 1.37.41 1.37.91v9.68c0 .5-.62.91-1.37.91Zm140.53-77.34v15.61h-12.13c-.29 0-.53-.24-.53-.53v-14.55c0-.29.24-.53.53-.53z" class="cls-4"/><path d="M560.19 190.62v11.51h-.01q-4.845.765-9.69 0c-.5 0-.91-.41-.91-.91v-9.69c0-.5.41-.91.91-.91z" class="cls-4"/><rect width="15.62" height="15.62" x="530.72" y="189.85" class="cls-4" rx=".53" ry=".53"/><path d="M543.38 202.13c-3.23.52-6.45.52-9.68 0-.5 0-.91-.41-.91-.91v-9.68c0-.5.41-.91.91-.91h9.68c.5 0 .91.41.91.91v9.68c0 .5-.41.91-.91.91Z" class="cls-4"/><rect width="15.62" height="15.62" x="513.92" y="189.85" class="cls-4" rx=".53" ry=".53"/><path d="M526.57 202.13c-3.23.52-6.45.52-9.68 0-.5 0-.91-.41-.91-.91v-9.68c0-.5.41-.91.91-.91h9.68c.5 0 .91.41.91.91v9.68c0 .5-.41.91-.91.91Z" class="cls-4"/><rect width="15.62" height="15.62" x="497.12" y="189.85" class="cls-4" rx=".53" ry=".53"/><path d="M509.77 202.13c-3.23.52-6.45.52-9.68 0-.5 0-.91-.41-.91-.91v-9.68c0-.5.41-.91.91-.91h9.68c.5 0 .91.41.91.91v9.68c0 .5-.41.91-.91.91Z" class="cls-4"/><rect width="15.62" height="15.62" x="480.31" y="189.85" class="cls-4" rx=".53" ry=".53"/><path d="M492.97 202.13c-3.23.52-6.45.52-9.68 0-.5 0-.91-.41-.91-.91v-9.68c0-.5.41-.91.91-.91h9.68c.5 0 .91.41.91.91v9.68c0 .5-.41.91-.91.91Z" class="cls-4"/><rect width="15.62" height="15.62" x="463.51" y="189.85" class="cls-4" rx=".53" ry=".53"/><path d="M476.16 202.13c-3.23.52-6.45.52-9.68 0-.5 0-.91-.41-.91-.91v-9.68c0-.5.41-.91.91-.91h9.68c.5 0 .91.41.91.91v9.68c0 .5-.41.91-.91.91Z" class="cls-4"/><rect width="15.62" height="15.62" x="446.71" y="189.85" class="cls-4" rx=".53" ry=".53"/><path d="M459.36 202.13c-3.23.52-6.45.52-9.68 0-.5 0-.91-.41-.91-.91v-9.68c0-.5.41-.91.91-.91h9.68c.5 0 .91.41.91.91v9.68c0 .5-.41.91-.91.91Z" class="cls-4"/><rect width="15.62" height="15.62" x="429.91" y="189.85" class="cls-4" rx=".53" ry=".53"/><path d="M442.56 202.13c-3.23.52-6.45.52-9.68 0-.5 0-.91-.41-.91-.91v-9.68c0-.5.41-.91.91-.91h9.68c.5 0 .91.41.91.91v9.68c0 .5-.41.91-.91.91Z" class="cls-4"/><rect width="15.62" height="15.62" x="413.1" y="189.85" class="cls-4" rx=".53" ry=".53"/><path d="M425.75 202.13c-3.23.52-6.45.52-9.68 0-.5 0-.91-.41-.91-.91v-9.68c0-.5.41-.91.91-.91h9.68c.5 0 .91.41.91.91v9.68c0 .5-.41.91-.91.91Zm134.44 3.88v15.62h-3.46c-.3 0-.54-.24-.54-.54v-14.55c0-.29.24-.53.54-.53z" class="cls-4"/><path d="M560.19 206.79v11.64c-.34-.04-.69-.08-1.03-.14a.9.9 0 0 1-.91-.91v-9.68c0-.51.4-.91.91-.91z" class="cls-4"/><rect width="15.62" height="15.62" x="539.39" y="206.01" class="cls-4" rx=".53" ry=".53"/><path d="M552.04 218.29c-3.23.52-6.45.52-9.68 0-.5 0-.91-.41-.91-.91v-9.68c0-.5.41-.91.91-.91h9.68c.5 0 .91.41.91.91v9.68c0 .5-.41.91-.91.91Z" class="cls-4"/><rect width="15.62" height="15.62" x="522.58" y="206.01" class="cls-4" rx=".53" ry=".53"/><path d="M535.24 218.29c-3.23.52-6.45.52-9.68 0-.5 0-.91-.41-.91-.91v-9.68c0-.5.41-.91.91-.91h9.68c.5 0 .91.41.91.91v9.68c0 .5-.41.91-.91.91Z" class="cls-4"/><rect width="15.62" height="15.62" x="505.78" y="206.01" class="cls-4" rx=".53" ry=".53"/><path d="M518.43 218.29c-3.23.52-6.45.52-9.68 0-.5 0-.91-.41-.91-.91v-9.68c0-.5.41-.91.91-.91h9.68c.5 0 .91.41.91.91v9.68c0 .5-.41.91-.91.91Z" class="cls-4"/><rect width="15.62" height="15.62" x="488.98" y="206.01" class="cls-4" rx=".53" ry=".53"/><path d="M501.63 218.29c-3.23.52-6.45.52-9.68 0-.5 0-.91-.41-.91-.91v-9.68c0-.5.41-.91.91-.91h9.68c.5 0 .91.41.91.91v9.68c0 .5-.41.91-.91.91Z" class="cls-4"/><rect width="15.62" height="15.62" x="472.17" y="206.01" class="cls-4" rx=".53" ry=".53"/><path d="M484.83 218.29c-3.23.52-6.45.52-9.68 0-.5 0-.91-.41-.91-.91v-9.68c0-.5.41-.91.91-.91h9.68c.5 0 .91.41.91.91v9.68c0 .5-.41.91-.91.91Z" class="cls-4"/><rect width="15.62" height="15.62" x="455.37" y="206.01" class="cls-4" rx=".53" ry=".53"/><path d="M468.02 218.29c-3.23.52-6.45.52-9.68 0-.5 0-.91-.41-.91-.91v-9.68c0-.5.41-.91.91-.91h9.68c.5 0 .91.41.91.91v9.68c0 .5-.41.91-.91.91Z" class="cls-4"/><rect width="15.62" height="15.62" x="438.57" y="206.01" class="cls-4" rx=".53" ry=".53"/><path d="M451.22 218.29c-3.23.52-6.45.52-9.68 0-.5 0-.91-.41-.91-.91v-9.68c0-.5.41-.91.91-.91h9.68c.5 0 .91.41.91.91v9.68c0 .5-.41.91-.91.91Z" class="cls-4"/><rect width="15.62" height="15.62" x="421.76" y="206.01" class="cls-4" rx=".53" ry=".53"/><path d="M434.42 218.29c-3.23.52-6.45.52-9.68 0-.5 0-.91-.41-.91-.91v-9.68c0-.5.41-.91.91-.91h9.68c.5 0 .91.41.91.91v9.68c0 .5-.41.91-.91.91Z" class="cls-4"/><rect width="15.62" height="15.62" x="543.51" y="222.17" class="cls-4" rx=".53" ry=".53"/><path d="M556.16 234.46c-3.23.52-6.45.52-9.68 0-.5 0-.91-.41-.91-.91v-9.68c0-.5.41-.91.91-.91h9.68c.5 0 .91.41.91.91v9.68c0 .5-.41.91-.91.91Z" class="cls-4"/><rect width="15.62" height="15.62" x="526.71" y="222.17" class="cls-4" rx=".53" ry=".53"/><path d="M539.36 234.46c-3.23.52-6.45.52-9.68 0-.5 0-.91-.41-.91-.91v-9.68c0-.5.41-.91.91-.91h9.68c.5 0 .91.41.91.91v9.68c0 .5-.41.91-.91.91Z" class="cls-4"/><rect width="15.62" height="15.62" x="509.9" y="222.17" class="cls-4" rx=".53" ry=".53"/><path d="M522.56 234.46c-3.23.52-6.45.52-9.68 0-.5 0-.91-.41-.91-.91v-9.68c0-.5.41-.91.91-.91h9.68c.5 0 .91.41.91.91v9.68c0 .5-.41.91-.91.91Z" class="cls-4"/><rect width="15.62" height="15.62" x="493.1" y="222.17" class="cls-4" rx=".53" ry=".53"/><path d="M505.75 234.46c-3.23.52-6.45.52-9.68 0-.5 0-.91-.41-.91-.91v-9.68c0-.5.41-.91.91-.91h9.68c.5 0 .91.41.91.91v9.68c0 .5-.41.91-.91.91Z" class="cls-4"/><rect width="15.62" height="15.62" x="476.3" y="222.17" class="cls-4" rx=".53" ry=".53"/><path d="M488.95 234.46c-3.23.52-6.45.52-9.68 0-.5 0-.91-.41-.91-.91v-9.68c0-.5.41-.91.91-.91h9.68c.5 0 .91.41.91.91v9.68c0 .5-.41.91-.91.91Z" class="cls-4"/><rect width="15.62" height="15.62" x="459.49" y="222.17" class="cls-4" rx=".53" ry=".53"/><path d="M472.15 234.46c-3.23.52-6.45.52-9.68 0-.5 0-.91-.41-.91-.91v-9.68c0-.5.41-.91.91-.91h9.68c.5 0 .91.41.91.91v9.68c0 .5-.41.91-.91.91Z" class="cls-4"/><rect width="15.62" height="15.62" x="442.69" y="222.17" class="cls-4" rx=".53" ry=".53"/><path d="M455.34 234.46c-3.23.52-6.45.52-9.68 0-.5 0-.91-.41-.91-.91v-9.68c0-.5.41-.91.91-.91h9.68c.5 0 .91.41.91.91v9.68c0 .5-.41.91-.91.91Z" class="cls-4"/><rect width="15.62" height="15.62" x="425.89" y="222.17" class="cls-4" rx=".53" ry=".53"/><path d="M438.54 234.46c-3.23.52-6.45.52-9.68 0-.5 0-.91-.41-.91-.91v-9.68c0-.5.41-.91.91-.91h9.68c.5 0 .91.41.91.91v9.68c0 .5-.41.91-.91.91Zm121.65 4.22v15.62h-7.68c-.29 0-.53-.24-.53-.54v-14.55c0-.29.24-.53.53-.53z" class="cls-4"/><path d="M560.19 239.46v11.88c-1.75.03-3.5-.09-5.25-.37-.5 0-.91-.41-.91-.91v-9.69c0-.5.41-.91.91-.91z" class="cls-4"/><rect width="15.62" height="15.62" x="535.17" y="238.68" class="cls-4" rx=".53" ry=".53"/><path d="M547.82 250.97c-3.23.52-6.45.52-9.68 0-.5 0-.91-.41-.91-.91v-9.68c0-.5.41-.91.91-.91h9.68c.5 0 .91.41.91.91v9.68c0 .5-.41.91-.91.91Z" class="cls-4"/><rect width="15.62" height="15.62" x="518.37" y="238.68" class="cls-4" rx=".53" ry=".53"/><path d="M531.02 250.97c-3.23.52-6.45.52-9.68 0-.5 0-.91-.41-.91-.91v-9.68c0-.5.41-.91.91-.91h9.68c.5 0 .91.41.91.91v9.68c0 .5-.41.91-.91.91Z" class="cls-4"/><rect width="15.62" height="15.62" x="501.57" y="238.68" class="cls-4" rx=".53" ry=".53"/><path d="M514.21 250.97c-3.23.52-6.45.52-9.68 0-.5 0-.91-.41-.91-.91v-9.68c0-.5.41-.91.91-.91h9.68c.5 0 .91.41.91.91v9.68c0 .5-.41.91-.91.91Z" class="cls-4"/><rect width="15.62" height="15.62" x="484.76" y="238.68" class="cls-4" rx=".53" ry=".53"/><path d="M497.41 250.97c-3.23.52-6.45.52-9.68 0-.5 0-.91-.41-.91-.91v-9.68c0-.5.41-.91.91-.91h9.68c.5 0 .91.41.91.91v9.68c0 .5-.41.91-.91.91Z" class="cls-4"/><rect width="15.62" height="15.62" x="467.96" y="238.68" class="cls-4" rx=".53" ry=".53"/><path d="M480.61 250.97c-3.23.52-6.45.52-9.68 0-.5 0-.91-.41-.91-.91v-9.68c0-.5.41-.91.91-.91h9.68c.5 0 .91.41.91.91v9.68c0 .5-.41.91-.91.91Z" class="cls-4"/><rect width="15.62" height="15.62" x="451.16" y="238.68" class="cls-4" rx=".53" ry=".53"/><path d="M463.81 250.97c-3.23.52-6.45.52-9.68 0-.5 0-.91-.41-.91-.91v-9.68c0-.5.41-.91.91-.91h9.68c.5 0 .91.41.91.91v9.68c0 .5-.41.91-.91.91Z" class="cls-4"/><rect width="15.62" height="15.62" x="434.35" y="238.68" class="cls-4" rx=".53" ry=".53"/><path d="M447 250.97c-3.23.52-6.45.52-9.68 0-.5 0-.91-.41-.91-.91v-9.68c0-.5.41-.91.91-.91H447c.5 0 .91.41.91.91v9.68c0 .5-.41.91-.91.91Z" class="cls-4"/><rect width="15.62" height="15.62" x="417.55" y="238.68" class="cls-4" rx=".53" ry=".53"/><path d="M430.2 250.97c-3.23.52-6.45.52-9.68 0-.5 0-.91-.41-.91-.91v-9.68c0-.5.41-.91.91-.91h9.68c.5 0 .91.41.91.91v9.68c0 .5-.41.91-.91.91Zm129.99 4.24v15.32H445.27c-.41 0-.74-.33-.74-.74v-13.84c0-.41.33-.74.74-.74z" class="cls-4"/><path d="M560.19 256.51v12.27c-37.77.23-75.3.15-112.59-.22-.63 0-1.14-.38-1.14-.87v-10.31c0-.48.51-.87 1.14-.87zm0-199.3v1.04H392.92l.14-1.04zm0 4.73v1.04H392.28l.15-1.04zm0 4.74v1.04H391.65l.14-1.04zm0 4.73v1.04H391.01l.14-1.04zm0 4.73v1.04H390.38l.14-1.04zm0 4.74v1.03H389.74l.14-1.03zm0 4.73v1.04H389.1l.14-1.04zm0 4.73v1.04H388.47l.13-1.04zm0 4.74v1.03H387.83l.14-1.03zm0 42.81v24.99H378.88c-1.12 0-2.02-.9-2.02-2.02v-20.94c0-1.12.9-2.03 2.02-2.03zM399.65 28.01h160.54v20.21H399.65z" class="cls-4"/><path d="M401.17 24.95h1.2v23.57h-1.2zm156.96 0h1.2v23.57h-1.2zm-5.41 0h1.2v23.57h-1.2zm-5.42 0h1.2v23.57h-1.2zm-5.41 0h1.2v23.57h-1.2zm-5.42 0h1.2v23.57h-1.2zm-5.4 0h1.2v23.57h-1.2zm-5.42 0h1.2v23.57h-1.2zm-5.41 0h1.2v23.57h-1.2zm-5.41 0h1.2v23.57h-1.2zm-5.42 0h1.2v23.57h-1.2zm-5.41 0h1.2v23.57H504zm-37.88 0h1.2v23.57h-1.2zm-5.42 0h1.2v23.57h-1.2zm-5.41 0h1.2v23.57h-1.2zm-5.41 0h1.2v23.57h-1.2zm-5.41 0h1.2v23.57h-1.2zm-5.41 0h1.2v23.57h-1.2zm-5.42 0h1.2v23.57h-1.2zm-5.41 0h1.2v23.57h-1.2zm-5.41 0h1.2v23.57h-1.2zm-5.41 0h1.2v23.57h-1.2zm-5.42 0h1.2v23.57h-1.2zm-5.41 0h1.2v23.57h-1.2zm92.01 0h1.2v23.57h-1.2zm-5.41 0h1.2v23.57h-1.2zm-5.42 0h1.2v23.57h-1.2zm-5.4 0h1.2v23.57h-1.2zm-5.42 0h1.2v23.57h-1.2zm-5.41 0h1.2v23.57h-1.2z" class="cls-4"/></g></svg>