<?xml version="1.0" encoding="UTF-8"?>
<svg id="Layer_1" data-name="Layer 1" xmlns="http://www.w3.org/2000/svg" viewBox="0 0 560 320">
  <defs>
    <style>
      .cls-1, .cls-2 {
        fill: #372869;
      }

      .cls-3 {
        fill: #fff;
      }

      .cls-3, .cls-2 {
        fill-rule: evenodd;
      }

      .cls-4 {
        fill: #bca3ce;
        stroke: #553f98;
        stroke-miterlimit: 10;
        stroke-width: .5px;
      }

      .cls-5 {
        fill: #553f98;
      }
    </style>
  </defs>
  <rect class="cls-1" x=".95" y=".03" width="559.24" height="320"/>
  <path class="cls-5" d="M405.33-.07c-3.45,16.81-8.27,33.52-14.2,49.97-.77,2.14-1.56,4.27-2.37,6.4-3.15,8.31-6.6,16.53-10.28,24.65-5.58,12.3-11.73,24.36-18.36,36.11-.66,1.19-1.34,2.38-2.03,3.56-.5.88-1,1.74-1.5,2.61h0c-10.64,18.29-22.38,35.76-34.79,52.08-48.21,64.41-136.13,76.41-201.3,120.77-3.92,2.65-7.76,5.44-11.5,8.36-1.03.8-2.04,1.61-3.05,2.44-1.96,1.61-3.9,3.27-5.82,5-2.85,2.53-5.66,5.19-8.43,7.96H-.19V-.07h405.51Z"/>
  <g>
    <path class="cls-3" d="M25.26,68.39v3.96c-.87-.77-1.85-1.4-2.92-1.87-.85-.37-1.76-.57-2.68-.58-2.1,0-3.73.93-4.9,2.56s-1.75,3.85-1.75,6.65c0,3.03.7,5.36,1.98,7,1.17,1.52,2.8,2.33,4.78,2.33.93,0,1.87-.23,2.68-.58.82-.35,1.75-1.05,2.8-1.87v3.85c-1.16.47-2.33.82-3.26,1.05-1.11.25-2.24.37-3.38.35-3.85,0-6.65-1.05-8.63-3.03-1.98-2.1-3.03-5.13-3.03-9.21,0-2.56.47-4.66,1.28-6.3,2.1-3.62,5.71-5.48,10.96-5.48,2.22,0,4.2.35,6.06,1.17h0Z"/>
    <path class="cls-3" d="M67.95,69.79c-2.1-1.75-4.78-2.57-8.28-2.57-4.9,0-8.4,1.75-10.26,5.13-1.05,1.87-1.63,4.08-1.63,6.65,0,2.33.35,4.31,1.05,5.95.93,2.33,2.45,3.96,4.43,5.02,1.63.82,3.73,1.28,6.3,1.28,3.73,0,6.65-1.05,8.75-2.92,2.22-2.1,3.26-5.13,3.26-9.1,0-4.2-1.17-7.34-3.61-9.44ZM64.1,86.35c-1.05,1.51-2.45,2.33-4.31,2.33-2.1,0-3.61-.82-4.55-2.57-.47-.93-.81-1.87-1.05-2.92-.23-1.17-.23-2.57-.23-4.2,0-6.18,1.87-9.21,5.71-9.21,2.1,0,3.5.82,4.43,2.45.93,1.63,1.4,3.96,1.4,7.11s-.47,5.36-1.4,7Z"/>
    <path class="cls-3" d="M96.28,75.39l-2.1,14.34v.23c0,.23,0,.47.12.82h-3.15c.22-.31.34-.67.35-1.05l3.15-20.99v-1.17h5.13v.23c0,.23,0,.47.12.82l5.36,15.74,5.36-15.74c.12-.35.12-.58.12-.82v-.23h5.13c-.12.23-.12.47-.12.47,0,.23,0,.35.12.58l2.92,21.11c0,.35.12.7.35,1.05h-6.3c.12-.12.12-.35.12-.47v-.58l-1.87-14.58-4.9,14.58c-.12.35-.23.7-.23.82v.23h-4.66v-.23c0-.12,0-.35-.12-.7l-4.9-14.45h0Z"/>
    <path class="cls-3" d="M142.11,75.39l-2.1,14.34v.23c0,.23.12.47.23.82h-3.27c.22-.31.34-.67.35-1.05l3.15-20.99c0-.23.12-.47.12-.58s-.12-.35-.12-.58h5.13v.23c0,.23.12.47.23.82l5.25,15.74,5.36-15.74c.12-.35.12-.58.12-.82v-.23h5.13v1.05l2.92,21.11c0,.35.12.7.35,1.05h-6.18v-1.05l-1.87-14.58-4.9,14.58c-.12.35-.23.7-.23.82s.12.12.12.23h-4.78v-.23c0-.12,0-.35-.12-.7l-4.89-14.45h0Z"/>
    <path class="cls-3" d="M205.44,69.79c-2.1-1.75-4.9-2.57-8.28-2.57-5.01,0-8.4,1.75-10.38,5.13-.93,1.87-1.52,4.08-1.52,6.65,0,2.33.35,4.31,1.05,5.95.93,2.33,2.45,3.96,4.43,5.02,1.63.82,3.73,1.28,6.3,1.28,3.73,0,6.65-1.05,8.75-2.92,2.22-2.1,3.26-5.13,3.26-9.1,0-4.2-1.17-7.34-3.61-9.44ZM201.47,86.35c-.94,1.51-2.34,2.33-4.32,2.33-2.1,0-3.62-.82-4.43-2.57-.47-.93-.82-1.87-1.05-2.92-.23-1.17-.35-2.57-.35-4.2,0-6.18,1.98-9.21,5.83-9.21,1.98,0,3.5.82,4.43,2.45.93,1.63,1.4,3.96,1.4,7.11s-.47,5.36-1.51,7Z"/>
    <path class="cls-3" d="M250.56,73.87c-.7-1.75-1.75-3.15-3.26-4.2-1.98-1.4-4.54-2.1-7.69-2.1h-8.4c.12.35.12.7.23,1.17v20.99c0,.35-.11.82-.23,1.05h9.91c1.75,0,3.38-.35,4.78-1.17,1.51-.7,2.68-1.87,3.61-3.26,1.4-2.1,2.1-4.55,2.1-7.35,0-1.87-.35-3.61-1.05-5.13ZM243.45,86.23c-1.05,1.28-2.45,1.87-4.2,1.87h-2.1v-17.84h1.75c1.63,0,2.92.58,4.08,1.63,1.63,1.63,2.44,3.96,2.44,7.23,0,3.03-.58,5.48-1.98,7.11Z"/>
    <path class="cls-3" d="M291.84,69.79c-1.98-1.75-4.78-2.57-8.16-2.57-5.01,0-8.52,1.75-10.38,5.13-1.05,1.87-1.51,4.08-1.51,6.65,0,2.33.35,4.31,1.05,5.95.74,2.2,2.34,4.01,4.43,5.02,1.52.82,3.62,1.28,6.3,1.28,3.73,0,6.53-1.05,8.63-2.92,2.22-2.1,3.38-5.13,3.38-9.1,0-4.2-1.28-7.34-3.73-9.44ZM288,86.35c-.94,1.51-2.45,2.33-4.32,2.33-2.1,0-3.61-.82-4.55-2.57-.46-.93-.82-1.87-1.05-2.92-.11-1.17-.23-2.57-.23-4.2,0-6.18,1.87-9.21,5.83-9.21,1.99,0,3.5.82,4.43,2.45s1.28,3.96,1.28,7.11-.46,5.36-1.39,7Z"/>
    <path class="cls-3" d="M335.46,89.73l-5.95-9.79c1.75-.58,3.03-1.28,3.73-2.1.81-1.05,1.17-2.33,1.17-3.85,0-2.1-.82-3.85-2.45-5.01-1.28-.93-2.8-1.4-4.67-1.4h-9.21c.12.35.12.7.12,1.17v20.99c0,.47-.12.81-.12,1.05h6.18c-.12-.23-.23-.7-.23-1.05v-9.33l5.02,9.33.35,1.05h6.88c-.23-.11-.47-.46-.81-1.05ZM327.29,77.84c-.47.47-1.16.7-2.1.7h-1.17v-8.51h1.16c1.05,0,1.87.35,2.45,1.17.59.82.94,1.87.94,3.15,0,1.52-.47,2.68-1.29,3.5Z"/>
    <path class="cls-3" d="M351.43,67.58h13.41v2.68c-.35-.12-.7-.23-1.17-.23h-6.3v7.81h6.18c.58,0,.94,0,1.29-.12v2.68c-.24-.12-.7-.12-1.17-.12h-6.3v7.93h6.18c.47,0,.94-.12,1.29-.23v2.8h-13.41c.16-.33.24-.69.23-1.05v-20.99c0-.47-.11-.82-.23-1.17Z"/>
  </g>
  <g>
    <path class="cls-2" d="M25.26,34.48v3.96c-.87-.77-1.85-1.4-2.92-1.87-.85-.37-1.76-.57-2.68-.58-2.1,0-3.73.93-4.9,2.56s-1.75,3.85-1.75,6.65c0,3.03.7,5.36,1.98,7,1.17,1.52,2.8,2.33,4.78,2.33.93,0,1.87-.23,2.68-.58.82-.35,1.75-1.05,2.8-1.87v3.85c-1.16.47-2.33.82-3.26,1.05-1.11.25-2.24.37-3.38.35-3.85,0-6.65-1.05-8.63-3.03-1.98-2.1-3.03-5.13-3.03-9.21,0-2.56.47-4.66,1.28-6.3,2.1-3.62,5.71-5.48,10.96-5.48,2.22,0,4.2.35,6.06,1.17h0Z"/>
    <path class="cls-2" d="M67.95,35.88c-2.1-1.75-4.78-2.57-8.28-2.57-4.9,0-8.4,1.75-10.26,5.13-1.05,1.87-1.63,4.08-1.63,6.65,0,2.33.35,4.31,1.05,5.95.93,2.33,2.45,3.96,4.43,5.02,1.63.82,3.73,1.28,6.3,1.28,3.73,0,6.65-1.05,8.75-2.92,2.22-2.1,3.26-5.13,3.26-9.1,0-4.2-1.17-7.34-3.61-9.44ZM64.1,52.44c-1.05,1.51-2.45,2.33-4.31,2.33-2.1,0-3.61-.82-4.55-2.57-.47-.93-.81-1.87-1.05-2.92-.23-1.17-.23-2.57-.23-4.2,0-6.18,1.87-9.21,5.71-9.21,2.1,0,3.5.82,4.43,2.45.93,1.63,1.4,3.96,1.4,7.11s-.47,5.36-1.4,7Z"/>
    <path class="cls-2" d="M96.28,41.48l-2.1,14.34v.23c0,.23,0,.47.12.82h-3.15c.22-.31.34-.67.35-1.05l3.15-20.99v-1.17h5.13v.23c0,.23,0,.47.12.82l5.36,15.74,5.36-15.74c.12-.35.12-.58.12-.82v-.23h5.13c-.12.23-.12.47-.12.47,0,.23,0,.35.12.58l2.92,21.11c0,.35.12.7.35,1.05h-6.3c.12-.12.12-.35.12-.47v-.58l-1.87-14.58-4.9,14.58c-.12.35-.23.7-.23.82v.23h-4.66v-.23c0-.12,0-.35-.12-.7l-4.9-14.45h0Z"/>
    <path class="cls-2" d="M142.11,41.48l-2.1,14.34v.23c0,.23.12.47.23.82h-3.27c.22-.31.34-.67.35-1.05l3.15-20.99c0-.23.12-.47.12-.58s-.12-.35-.12-.58h5.13v.23c0,.23.12.47.23.82l5.25,15.74,5.36-15.74c.12-.35.12-.58.12-.82v-.23h5.13v1.05l2.92,21.11c0,.35.12.7.35,1.05h-6.18v-1.05l-1.87-14.58-4.9,14.58c-.12.35-.23.7-.23.82s.12.12.12.23h-4.78v-.23c0-.12,0-.35-.12-.7l-4.89-14.45h0Z"/>
    <path class="cls-2" d="M205.44,35.88c-2.1-1.75-4.9-2.57-8.28-2.57-5.01,0-8.4,1.75-10.38,5.13-.93,1.87-1.52,4.08-1.52,6.65,0,2.33.35,4.31,1.05,5.95.93,2.33,2.45,3.96,4.43,5.02,1.63.82,3.73,1.28,6.3,1.28,3.73,0,6.65-1.05,8.75-2.92,2.22-2.1,3.26-5.13,3.26-9.1,0-4.2-1.17-7.34-3.61-9.44ZM201.47,52.44c-.94,1.51-2.34,2.33-4.32,2.33-2.1,0-3.62-.82-4.43-2.57-.47-.93-.82-1.87-1.05-2.92-.23-1.17-.35-2.57-.35-4.2,0-6.18,1.98-9.21,5.83-9.21,1.98,0,3.5.82,4.43,2.45.93,1.63,1.4,3.96,1.4,7.11s-.47,5.36-1.51,7Z"/>
    <path class="cls-2" d="M250.56,39.96c-.7-1.75-1.75-3.15-3.26-4.2-1.98-1.4-4.54-2.1-7.69-2.1h-8.4c.12.35.12.7.23,1.17v20.99c0,.35-.11.82-.23,1.05h9.91c1.75,0,3.38-.35,4.78-1.17,1.51-.7,2.68-1.87,3.61-3.26,1.4-2.1,2.1-4.55,2.1-7.35,0-1.87-.35-3.61-1.05-5.13ZM243.45,52.32c-1.05,1.28-2.45,1.87-4.2,1.87h-2.1v-17.84h1.75c1.63,0,2.92.58,4.08,1.63,1.63,1.63,2.44,3.96,2.44,7.23,0,3.03-.58,5.48-1.98,7.11Z"/>
    <path class="cls-2" d="M291.84,35.88c-1.98-1.75-4.78-2.57-8.16-2.57-5.01,0-8.52,1.75-10.38,5.13-1.05,1.87-1.51,4.08-1.51,6.65,0,2.33.35,4.31,1.05,5.95.74,2.2,2.34,4.01,4.43,5.02,1.52.82,3.62,1.28,6.3,1.28,3.73,0,6.53-1.05,8.63-2.92,2.22-2.1,3.38-5.13,3.38-9.1,0-4.2-1.28-7.34-3.73-9.44ZM288,52.44c-.94,1.51-2.45,2.33-4.32,2.33-2.1,0-3.61-.82-4.55-2.57-.46-.93-.82-1.87-1.05-2.92-.11-1.17-.23-2.57-.23-4.2,0-6.18,1.87-9.21,5.83-9.21,1.99,0,3.5.82,4.43,2.45s1.28,3.96,1.28,7.11-.46,5.36-1.39,7Z"/>
    <path class="cls-2" d="M335.46,55.82l-5.95-9.79c1.75-.58,3.03-1.28,3.73-2.1.81-1.05,1.17-2.33,1.17-3.85,0-2.1-.82-3.85-2.45-5.01-1.28-.93-2.8-1.4-4.67-1.4h-9.21c.12.35.12.7.12,1.17v20.99c0,.47-.12.81-.12,1.05h6.18c-.12-.23-.23-.7-.23-1.05v-9.33l5.02,9.33.35,1.05h6.88c-.23-.11-.47-.46-.81-1.05ZM327.29,43.93c-.47.47-1.16.7-2.1.7h-1.17v-8.51h1.16c1.05,0,1.87.35,2.45,1.17.59.82.94,1.87.94,3.15,0,1.52-.47,2.68-1.29,3.5Z"/>
    <path class="cls-2" d="M351.43,33.67h13.41v2.68c-.35-.12-.7-.23-1.17-.23h-6.3v7.81h6.18c.58,0,.94,0,1.29-.12v2.68c-.24-.12-.7-.12-1.17-.12h-6.3v7.93h6.18c.47,0,.94-.12,1.29-.23v2.8h-13.41c.16-.33.24-.69.23-1.05v-20.99c0-.47-.11-.82-.23-1.17Z"/>
  </g>
  <g>
    <path class="cls-2" d="M23.8.03c.5.15.98.33,1.46.54v3.96c-.86-.77-1.85-1.4-2.91-1.86-.85-.37-1.76-.57-2.69-.58-2.09,0-3.73.93-4.89,2.56-1.17,1.63-1.75,3.85-1.75,6.65,0,3.03.7,5.36,1.98,6.99,1.17,1.52,2.8,2.34,4.78,2.34.94,0,1.87-.23,2.68-.59.82-.35,1.75-1.04,2.8-1.86v3.85c-1.16.46-2.33.81-3.26,1.04-1.11.25-2.24.37-3.38.36-3.85,0-6.65-1.05-8.63-3.04-1.98-2.1-3.04-5.13-3.04-9.21,0-2.56.47-4.66,1.29-6.3C9.64,2.47,11.71.84,14.49.03h9.31Z"/>
    <path class="cls-2" d="M67.95,1.97c-1.05-.87-2.25-1.52-3.62-1.94h-9.24c-2.55.79-4.47,2.3-5.69,4.51-1.04,1.86-1.63,4.08-1.63,6.65,0,2.33.35,4.31,1.05,5.94.93,2.34,2.45,3.97,4.43,5.02,1.63.81,3.73,1.28,6.3,1.28,3.73,0,6.65-1.05,8.75-2.92,2.21-2.1,3.26-5.13,3.26-9.09,0-4.2-1.17-7.35-3.61-9.45ZM64.1,18.53c-1.05,1.52-2.45,2.33-4.32,2.33-2.1,0-3.61-.81-4.55-2.56-.46-.94-.81-1.87-1.04-2.92-.24-1.16-.24-2.56-.24-4.2,0-6.17,1.87-9.21,5.72-9.21,2.1,0,3.49.82,4.43,2.45.93,1.63,1.4,3.97,1.4,7.11s-.47,5.37-1.4,7Z"/>
    <path class="cls-2" d="M99.78.03c0,.22.01.44.12.77l5.36,15.75,5.36-15.75c.11-.33.12-.55.12-.77h5.04c-.02.11-.02.19-.02.19,0,.23,0,.35.11.58l2.92,21.11c0,.35.12.7.35,1.04h-6.3c.12-.11.12-.34.12-.46v-.59l-1.87-14.57-4.9,14.57c-.11.35-.23.71-.23.82v.23h-4.66v-.23c0-.11,0-.35-.12-.7l-4.9-14.45-2.1,14.34v.23c0,.24,0,.47.12.82h-3.15c.22-.31.34-.67.35-1.05l3.15-20.99V.03h5.13Z"/>
    <path class="cls-2" d="M161.7.03v.77l2.92,21.11c0,.35.11.7.34,1.04h-6.18v-1.05l-1.86-14.57-4.9,14.57c-.12.35-.23.71-.23.82,0,.12.11.12.11.23h-4.78v-.23c0-.11,0-.35-.12-.7l-4.89-14.45-2.1,14.34v.23c0,.24.12.47.24.82h-3.27c.22-.31.34-.67.35-1.05l3.15-20.99c0-.23.11-.47.11-.59,0-.06-.04-.17-.06-.3h5.08c0,.22.12.44.23.77l5.25,15.75,5.36-15.75c.11-.33.12-.55.12-.77h5.13Z"/>
    <path class="cls-2" d="M205.44,1.97c-1.06-.87-2.28-1.52-3.66-1.94h-9.26c-2.56.79-4.45,2.3-5.74,4.51-.94,1.86-1.52,4.08-1.52,6.65,0,2.33.35,4.31,1.05,5.94.93,2.34,2.45,3.97,4.43,5.02,1.63.81,3.73,1.28,6.3,1.28,3.73,0,6.64-1.05,8.74-2.92,2.22-2.1,3.27-5.13,3.27-9.09,0-4.2-1.17-7.35-3.61-9.45ZM201.47,18.53c-.94,1.52-2.34,2.33-4.32,2.33-2.1,0-3.62-.81-4.43-2.56-.47-.94-.82-1.87-1.05-2.92-.23-1.16-.35-2.56-.35-4.2,0-6.17,1.98-9.21,5.83-9.21,1.99,0,3.5.82,4.43,2.45.94,1.63,1.4,3.97,1.4,7.11s-.46,5.37-1.51,7Z"/>
    <path class="cls-2" d="M250.56,6.05c-.69-1.75-1.75-3.15-3.26-4.2-1.27-.9-2.77-1.5-4.52-1.82h-11.51c.06.27.08.54.16.89v20.99c0,.35-.11.81-.23,1.05h9.92c1.75,0,3.38-.35,4.78-1.17,1.51-.7,2.68-1.86,3.61-3.26,1.4-2.1,2.1-4.55,2.1-7.35,0-1.87-.35-3.61-1.05-5.13ZM243.45,18.41c-1.05,1.29-2.45,1.87-4.2,1.87h-2.1V2.44h1.75c1.63,0,2.92.58,4.08,1.63,1.64,1.63,2.45,3.97,2.45,7.23,0,3.03-.58,5.48-1.98,7.11Z"/>
    <path class="cls-2" d="M291.84,1.97c-.99-.87-2.18-1.52-3.56-1.94h-9.25c-2.59.78-4.51,2.3-5.73,4.51-1.05,1.86-1.51,4.08-1.51,6.65,0,2.33.35,4.31,1.04,5.94.74,2.21,2.34,4.01,4.44,5.02,1.51.81,3.61,1.28,6.3,1.28,3.72,0,6.53-1.05,8.63-2.92,2.21-2.1,3.37-5.13,3.37-9.09,0-4.2-1.28-7.35-3.73-9.45ZM288,18.53c-.94,1.52-2.45,2.33-4.32,2.33-2.1,0-3.61-.81-4.55-2.56-.46-.94-.81-1.87-1.05-2.92-.11-1.16-.23-2.56-.23-4.2,0-6.17,1.87-9.21,5.83-9.21,1.99,0,3.5.82,4.43,2.45.93,1.63,1.28,3.97,1.28,7.11s-.46,5.37-1.39,7Z"/>
    <path class="cls-2" d="M335.46,21.91l-5.95-9.79c1.75-.59,3.04-1.28,3.73-2.1.82-1.05,1.17-2.33,1.17-3.85,0-2.1-.82-3.85-2.45-5.01-.71-.52-1.5-.9-2.39-1.13h-11.42c.05.27.05.55.05.89v20.99c0,.47-.12.82-.12,1.05h6.18c-.12-.23-.23-.7-.23-1.05v-9.33l5.02,9.33.34,1.05h6.88c-.23-.11-.46-.46-.81-1.05ZM327.29,10.02c-.46.46-1.16.7-2.1.7h-1.16V2.2h1.16c1.05,0,1.87.35,2.45,1.17.59.82.94,1.86.94,3.15,0,1.51-.47,2.68-1.29,3.5Z"/>
    <path class="cls-2" d="M364.85.03v2.41c-.36-.12-.71-.24-1.17-.24h-6.3v7.82h6.18c.59,0,.94,0,1.29-.12v2.68c-.24-.12-.71-.12-1.17-.12h-6.3v7.93h6.18c.47,0,.94-.11,1.29-.23v2.8h-13.42c.16-.33.24-.69.24-1.05V.92c0-.35-.07-.62-.15-.89h13.33Z"/>
  </g>
  <g>
    <path class="cls-2" d="M25.26,170.12v3.96c-.87-.77-1.85-1.4-2.92-1.87-.85-.37-1.76-.57-2.68-.58-2.1,0-3.73.93-4.9,2.56s-1.75,3.85-1.75,6.65c0,3.03.7,5.36,1.98,7,1.17,1.52,2.8,2.33,4.78,2.33.93,0,1.87-.23,2.68-.58.82-.35,1.75-1.05,2.8-1.87v3.85c-1.16.47-2.33.82-3.26,1.05-1.11.25-2.24.37-3.38.35-3.85,0-6.65-1.05-8.63-3.03-1.98-2.1-3.03-5.13-3.03-9.21,0-2.56.47-4.66,1.28-6.3,2.1-3.62,5.71-5.48,10.96-5.48,2.22,0,4.2.35,6.06,1.17h0Z"/>
    <path class="cls-2" d="M67.95,171.52c-2.1-1.75-4.78-2.57-8.28-2.57-4.9,0-8.4,1.75-10.26,5.13-1.05,1.87-1.63,4.08-1.63,6.65,0,2.33.35,4.31,1.05,5.95.93,2.33,2.45,3.96,4.43,5.02,1.63.82,3.73,1.28,6.3,1.28,3.73,0,6.65-1.05,8.75-2.92,2.22-2.1,3.26-5.13,3.26-9.1,0-4.2-1.17-7.34-3.61-9.44ZM64.1,188.08c-1.05,1.51-2.45,2.33-4.31,2.33-2.1,0-3.61-.82-4.55-2.57-.47-.93-.81-1.87-1.05-2.92-.23-1.17-.23-2.57-.23-4.2,0-6.18,1.87-9.21,5.71-9.21,2.1,0,3.5.82,4.43,2.45.93,1.63,1.4,3.96,1.4,7.11s-.47,5.36-1.4,7Z"/>
    <path class="cls-2" d="M96.28,177.12l-2.1,14.34v.23c0,.23,0,.47.12.82h-3.15c.22-.31.34-.67.35-1.05l3.15-20.99v-1.17h5.13v.23c0,.23,0,.47.12.82l5.36,15.74,5.36-15.74c.12-.35.12-.58.12-.82v-.23h5.13c-.12.23-.12.47-.12.47,0,.23,0,.35.12.58l2.92,21.11c0,.35.12.7.35,1.05h-6.3c.12-.12.12-.35.12-.47v-.58l-1.87-14.58-4.9,14.58c-.12.35-.23.7-.23.82v.23h-4.66v-.23c0-.12,0-.35-.12-.7l-4.9-14.45h0Z"/>
    <path class="cls-2" d="M142.11,177.12l-2.1,14.34v.23c0,.23.12.47.23.82h-3.27c.22-.31.34-.67.35-1.05l3.15-20.99c0-.23.12-.47.12-.58s-.12-.35-.12-.58h5.13v.23c0,.23.12.47.23.82l5.25,15.74,5.36-15.74c.12-.35.12-.58.12-.82v-.23h5.13v1.05l2.92,21.11c0,.35.12.7.35,1.05h-6.18v-1.05l-1.87-14.58-4.9,14.58c-.12.35-.23.7-.23.82s.12.12.12.23h-4.78v-.23c0-.12,0-.35-.12-.7l-4.89-14.45h0Z"/>
    <path class="cls-2" d="M205.44,171.52c-2.1-1.75-4.9-2.57-8.28-2.57-5.01,0-8.4,1.75-10.38,5.13-.93,1.87-1.52,4.08-1.52,6.65,0,2.33.35,4.31,1.05,5.95.93,2.33,2.45,3.96,4.43,5.02,1.63.82,3.73,1.28,6.3,1.28,3.73,0,6.65-1.05,8.75-2.92,2.22-2.1,3.26-5.13,3.26-9.1,0-4.2-1.17-7.34-3.61-9.44ZM201.47,188.08c-.94,1.51-2.34,2.33-4.32,2.33-2.1,0-3.62-.82-4.43-2.57-.47-.93-.82-1.87-1.05-2.92-.23-1.17-.35-2.57-.35-4.2,0-6.18,1.98-9.21,5.83-9.21,1.98,0,3.5.82,4.43,2.45.93,1.63,1.4,3.96,1.4,7.11s-.47,5.36-1.51,7Z"/>
    <path class="cls-2" d="M250.56,175.6c-.7-1.75-1.75-3.15-3.26-4.2-1.98-1.4-4.54-2.1-7.69-2.1h-8.4c.12.35.12.7.23,1.17v20.99c0,.35-.11.82-.23,1.05h9.91c1.75,0,3.38-.35,4.78-1.17,1.51-.7,2.68-1.87,3.61-3.26,1.4-2.1,2.1-4.55,2.1-7.35,0-1.87-.35-3.61-1.05-5.13ZM243.45,187.97c-1.05,1.28-2.45,1.87-4.2,1.87h-2.1v-17.84h1.75c1.63,0,2.92.58,4.08,1.63,1.63,1.63,2.44,3.96,2.44,7.23,0,3.03-.58,5.48-1.98,7.11Z"/>
    <path class="cls-2" d="M291.84,171.52c-1.98-1.75-4.78-2.57-8.16-2.57-5.01,0-8.52,1.75-10.38,5.13-1.05,1.87-1.51,4.08-1.51,6.65,0,2.33.35,4.31,1.05,5.95.74,2.2,2.34,4.01,4.43,5.02,1.52.82,3.62,1.28,6.3,1.28,3.73,0,6.53-1.05,8.63-2.92,2.22-2.1,3.38-5.13,3.38-9.1,0-4.2-1.28-7.34-3.73-9.44ZM288,188.08c-.94,1.51-2.45,2.33-4.32,2.33-2.1,0-3.61-.82-4.55-2.57-.46-.93-.82-1.87-1.05-2.92-.11-1.17-.23-2.57-.23-4.2,0-6.18,1.87-9.21,5.83-9.21,1.99,0,3.5.82,4.43,2.45s1.28,3.96,1.28,7.11-.46,5.36-1.39,7Z"/>
    <path class="cls-2" d="M335.46,191.46l-5.95-9.79c1.75-.58,3.03-1.28,3.73-2.1.81-1.05,1.17-2.33,1.17-3.85,0-2.1-.82-3.85-2.45-5.01-1.28-.93-2.8-1.4-4.67-1.4h-9.21c.12.35.12.7.12,1.17v20.99c0,.47-.12.81-.12,1.05h6.18c-.12-.23-.23-.7-.23-1.05v-9.33l5.02,9.33.35,1.05h6.88c-.23-.11-.47-.46-.81-1.05ZM327.29,179.57c-.47.47-1.16.7-2.1.7h-1.17v-8.51h1.16c1.05,0,1.87.35,2.45,1.17.59.82.94,1.87.94,3.15,0,1.52-.47,2.68-1.29,3.5Z"/>
    <path class="cls-2" d="M351.43,169.31h13.41v2.68c-.35-.12-.7-.23-1.17-.23h-6.3v7.81h6.18c.58,0,.94,0,1.29-.12v2.68c-.24-.12-.7-.12-1.17-.12h-6.3v7.93h6.18c.47,0,.94-.12,1.29-.23v2.8h-13.41c.16-.33.24-.69.23-1.05v-20.99c0-.47-.11-.82-.23-1.17Z"/>
  </g>
  <g>
    <path class="cls-2" d="M25.26,136.21v3.96c-.87-.77-1.85-1.4-2.92-1.87-.85-.37-1.76-.57-2.68-.58-2.1,0-3.73.93-4.9,2.56s-1.75,3.85-1.75,6.65c0,3.03.7,5.36,1.98,7,1.17,1.52,2.8,2.33,4.78,2.33.93,0,1.87-.23,2.68-.58.82-.35,1.75-1.05,2.8-1.87v3.85c-1.16.47-2.33.82-3.26,1.05-1.11.25-2.24.37-3.38.35-3.85,0-6.65-1.05-8.63-3.03-1.98-2.1-3.03-5.13-3.03-9.21,0-2.56.47-4.66,1.28-6.3,2.1-3.62,5.71-5.48,10.96-5.48,2.22,0,4.2.35,6.06,1.17h0Z"/>
    <path class="cls-2" d="M67.95,137.61c-2.1-1.75-4.78-2.57-8.28-2.57-4.9,0-8.4,1.75-10.26,5.13-1.05,1.87-1.63,4.08-1.63,6.65,0,2.33.35,4.31,1.05,5.95.93,2.33,2.45,3.96,4.43,5.02,1.63.82,3.73,1.28,6.3,1.28,3.73,0,6.65-1.05,8.75-2.92,2.22-2.1,3.26-5.13,3.26-9.1,0-4.2-1.17-7.34-3.61-9.44ZM64.1,154.17c-1.05,1.51-2.45,2.33-4.31,2.33-2.1,0-3.61-.82-4.55-2.57-.47-.93-.81-1.87-1.05-2.92-.23-1.17-.23-2.57-.23-4.2,0-6.18,1.87-9.21,5.71-9.21,2.1,0,3.5.82,4.43,2.45.93,1.63,1.4,3.96,1.4,7.11s-.47,5.36-1.4,7Z"/>
    <path class="cls-2" d="M96.28,143.21l-2.1,14.34v.23c0,.23,0,.47.12.82h-3.15c.22-.31.34-.67.35-1.05l3.15-20.99v-1.17h5.13v.23c0,.23,0,.47.12.82l5.36,15.74,5.36-15.74c.12-.35.12-.58.12-.82v-.23h5.13c-.12.23-.12.47-.12.47,0,.23,0,.35.12.58l2.92,21.11c0,.35.12.7.35,1.05h-6.3c.12-.12.12-.35.12-.47v-.58l-1.87-14.58-4.9,14.58c-.12.35-.23.7-.23.82v.23h-4.66v-.23c0-.12,0-.35-.12-.7l-4.9-14.45h0Z"/>
    <path class="cls-2" d="M142.11,143.21l-2.1,14.34v.23c0,.23.12.47.23.82h-3.27c.22-.31.34-.67.35-1.05l3.15-20.99c0-.23.12-.47.12-.58s-.12-.35-.12-.58h5.13v.23c0,.23.12.47.23.82l5.25,15.74,5.36-15.74c.12-.35.12-.58.12-.82v-.23h5.13v1.05l2.92,21.11c0,.35.12.7.35,1.05h-6.18v-1.05l-1.87-14.58-4.9,14.58c-.12.35-.23.7-.23.82s.12.12.12.23h-4.78v-.23c0-.12,0-.35-.12-.7l-4.89-14.45h0Z"/>
    <path class="cls-2" d="M205.44,137.61c-2.1-1.75-4.9-2.57-8.28-2.57-5.01,0-8.4,1.75-10.38,5.13-.93,1.87-1.52,4.08-1.52,6.65,0,2.33.35,4.31,1.05,5.95.93,2.33,2.45,3.96,4.43,5.02,1.63.82,3.73,1.28,6.3,1.28,3.73,0,6.65-1.05,8.75-2.92,2.22-2.1,3.26-5.13,3.26-9.1,0-4.2-1.17-7.34-3.61-9.44ZM201.47,154.17c-.94,1.51-2.34,2.33-4.32,2.33-2.1,0-3.62-.82-4.43-2.57-.47-.93-.82-1.87-1.05-2.92-.23-1.17-.35-2.57-.35-4.2,0-6.18,1.98-9.21,5.83-9.21,1.98,0,3.5.82,4.43,2.45.93,1.63,1.4,3.96,1.4,7.11s-.47,5.36-1.51,7Z"/>
    <path class="cls-2" d="M250.56,141.69c-.7-1.75-1.75-3.15-3.26-4.2-1.98-1.4-4.54-2.1-7.69-2.1h-8.4c.12.35.12.7.23,1.17v20.99c0,.35-.11.82-.23,1.05h9.91c1.75,0,3.38-.35,4.78-1.17,1.51-.7,2.68-1.87,3.61-3.26,1.4-2.1,2.1-4.55,2.1-7.35,0-1.87-.35-3.61-1.05-5.13ZM243.45,154.05c-1.05,1.28-2.45,1.87-4.2,1.87h-2.1v-17.84h1.75c1.63,0,2.92.58,4.08,1.63,1.63,1.63,2.44,3.96,2.44,7.23,0,3.03-.58,5.48-1.98,7.11Z"/>
    <path class="cls-2" d="M291.84,137.61c-1.98-1.75-4.78-2.57-8.16-2.57-5.01,0-8.52,1.75-10.38,5.13-1.05,1.87-1.51,4.08-1.51,6.65,0,2.33.35,4.31,1.05,5.95.74,2.2,2.34,4.01,4.43,5.02,1.52.82,3.62,1.28,6.3,1.28,3.73,0,6.53-1.05,8.63-2.92,2.22-2.1,3.38-5.13,3.38-9.1,0-4.2-1.28-7.34-3.73-9.44ZM288,154.17c-.94,1.51-2.45,2.33-4.32,2.33-2.1,0-3.61-.82-4.55-2.57-.46-.93-.82-1.87-1.05-2.92-.11-1.17-.23-2.57-.23-4.2,0-6.18,1.87-9.21,5.83-9.21,1.99,0,3.5.82,4.43,2.45s1.28,3.96,1.28,7.11-.46,5.36-1.39,7Z"/>
    <path class="cls-2" d="M335.46,157.55l-5.95-9.79c1.75-.58,3.03-1.28,3.73-2.1.81-1.05,1.17-2.33,1.17-3.85,0-2.1-.82-3.85-2.45-5.01-1.28-.93-2.8-1.4-4.67-1.4h-9.21c.12.35.12.7.12,1.17v20.99c0,.47-.12.81-.12,1.05h6.18c-.12-.23-.23-.7-.23-1.05v-9.33l5.02,9.33.35,1.05h6.88c-.23-.11-.47-.46-.81-1.05ZM327.29,145.66c-.47.47-1.16.7-2.1.7h-1.17v-8.51h1.16c1.05,0,1.87.35,2.45,1.17.59.82.94,1.87.94,3.15,0,1.52-.47,2.68-1.29,3.5Z"/>
    <path class="cls-2" d="M351.43,135.4h13.41v2.68c-.35-.12-.7-.23-1.17-.23h-6.3v7.81h6.18c.58,0,.94,0,1.29-.12v2.68c-.24-.12-.7-.12-1.17-.12h-6.3v7.93h6.18c.47,0,.94-.12,1.29-.23v2.8h-13.41c.16-.33.24-.69.23-1.05v-20.99c0-.47-.11-.82-.23-1.17Z"/>
  </g>
  <g>
    <path class="cls-2" d="M25.26,102.3v3.96c-.87-.77-1.85-1.4-2.92-1.87-.85-.37-1.76-.57-2.68-.58-2.1,0-3.73.93-4.9,2.56s-1.75,3.85-1.75,6.65c0,3.03.7,5.36,1.98,7,1.17,1.52,2.8,2.33,4.78,2.33.93,0,1.87-.23,2.68-.58.82-.35,1.75-1.05,2.8-1.87v3.85c-1.16.47-2.33.82-3.26,1.05-1.11.25-2.24.37-3.38.35-3.85,0-6.65-1.05-8.63-3.03-1.98-2.1-3.03-5.13-3.03-9.21,0-2.56.47-4.66,1.28-6.3,2.1-3.62,5.71-5.48,10.96-5.48,2.22,0,4.2.35,6.06,1.17h0Z"/>
    <path class="cls-2" d="M67.95,103.7c-2.1-1.75-4.78-2.57-8.28-2.57-4.9,0-8.4,1.75-10.26,5.13-1.05,1.87-1.63,4.08-1.63,6.65,0,2.33.35,4.31,1.05,5.95.93,2.33,2.45,3.96,4.43,5.02,1.63.82,3.73,1.28,6.3,1.28,3.73,0,6.65-1.05,8.75-2.92,2.22-2.1,3.26-5.13,3.26-9.1,0-4.2-1.17-7.34-3.61-9.44ZM64.1,120.26c-1.05,1.51-2.45,2.33-4.31,2.33-2.1,0-3.61-.82-4.55-2.57-.47-.93-.81-1.87-1.05-2.92-.23-1.17-.23-2.57-.23-4.2,0-6.18,1.87-9.21,5.71-9.21,2.1,0,3.5.82,4.43,2.45.93,1.63,1.4,3.96,1.4,7.11s-.47,5.36-1.4,7Z"/>
    <path class="cls-2" d="M96.28,109.3l-2.1,14.34v.23c0,.23,0,.47.12.82h-3.15c.22-.31.34-.67.35-1.05l3.15-20.99v-1.17h5.13v.23c0,.23,0,.47.12.82l5.36,15.74,5.36-15.74c.12-.35.12-.58.12-.82v-.23h5.13c-.12.23-.12.47-.12.47,0,.23,0,.35.12.58l2.92,21.11c0,.35.12.7.35,1.05h-6.3c.12-.12.12-.35.12-.47v-.58l-1.87-14.58-4.9,14.58c-.12.35-.23.7-.23.82v.23h-4.66v-.23c0-.12,0-.35-.12-.7l-4.9-14.45h0Z"/>
    <path class="cls-2" d="M142.11,109.3l-2.1,14.34v.23c0,.23.12.47.23.82h-3.27c.22-.31.34-.67.35-1.05l3.15-20.99c0-.23.12-.47.12-.58s-.12-.35-.12-.58h5.13v.23c0,.23.12.47.23.82l5.25,15.74,5.36-15.74c.12-.35.12-.58.12-.82v-.23h5.13v1.05l2.92,21.11c0,.35.12.7.35,1.05h-6.18v-1.05l-1.87-14.58-4.9,14.58c-.12.35-.23.7-.23.82s.12.12.12.23h-4.78v-.23c0-.12,0-.35-.12-.7l-4.89-14.45h0Z"/>
    <path class="cls-2" d="M205.44,103.7c-2.1-1.75-4.9-2.57-8.28-2.57-5.01,0-8.4,1.75-10.38,5.13-.93,1.87-1.52,4.08-1.52,6.65,0,2.33.35,4.31,1.05,5.95.93,2.33,2.45,3.96,4.43,5.02,1.63.82,3.73,1.28,6.3,1.28,3.73,0,6.65-1.05,8.75-2.92,2.22-2.1,3.26-5.13,3.26-9.1,0-4.2-1.17-7.34-3.61-9.44ZM201.47,120.26c-.94,1.51-2.34,2.33-4.32,2.33-2.1,0-3.62-.82-4.43-2.57-.47-.93-.82-1.87-1.05-2.92-.23-1.17-.35-2.57-.35-4.2,0-6.18,1.98-9.21,5.83-9.21,1.98,0,3.5.82,4.43,2.45.93,1.63,1.4,3.96,1.4,7.11s-.47,5.36-1.51,7Z"/>
    <path class="cls-2" d="M250.56,107.78c-.7-1.75-1.75-3.15-3.26-4.2-1.98-1.4-4.54-2.1-7.69-2.1h-8.4c.12.35.12.7.23,1.17v20.99c0,.35-.11.82-.23,1.05h9.91c1.75,0,3.38-.35,4.78-1.17,1.51-.7,2.68-1.87,3.61-3.26,1.4-2.1,2.1-4.55,2.1-7.35,0-1.87-.35-3.61-1.05-5.13ZM243.45,120.14c-1.05,1.28-2.45,1.87-4.2,1.87h-2.1v-17.84h1.75c1.63,0,2.92.58,4.08,1.63,1.63,1.63,2.44,3.96,2.44,7.23,0,3.03-.58,5.48-1.98,7.11Z"/>
    <path class="cls-2" d="M291.84,103.7c-1.98-1.75-4.78-2.57-8.16-2.57-5.01,0-8.52,1.75-10.38,5.13-1.05,1.87-1.51,4.08-1.51,6.65,0,2.33.35,4.31,1.05,5.95.74,2.2,2.34,4.01,4.43,5.02,1.52.82,3.62,1.28,6.3,1.28,3.73,0,6.53-1.05,8.63-2.92,2.22-2.1,3.38-5.13,3.38-9.1,0-4.2-1.28-7.34-3.73-9.44ZM288,120.26c-.94,1.51-2.45,2.33-4.32,2.33-2.1,0-3.61-.82-4.55-2.57-.46-.93-.82-1.87-1.05-2.92-.11-1.17-.23-2.57-.23-4.2,0-6.18,1.87-9.21,5.83-9.21,1.99,0,3.5.82,4.43,2.45s1.28,3.96,1.28,7.11-.46,5.36-1.39,7Z"/>
    <path class="cls-2" d="M335.46,123.64l-5.95-9.79c1.75-.58,3.03-1.28,3.73-2.1.81-1.05,1.17-2.33,1.17-3.85,0-2.1-.82-3.85-2.45-5.01-1.28-.93-2.8-1.4-4.67-1.4h-9.21c.12.35.12.7.12,1.17v20.99c0,.47-.12.81-.12,1.05h6.18c-.12-.23-.23-.7-.23-1.05v-9.33l5.02,9.33.35,1.05h6.88c-.23-.11-.47-.46-.81-1.05ZM327.29,111.75c-.47.47-1.16.7-2.1.7h-1.17v-8.51h1.16c1.05,0,1.87.35,2.45,1.17.59.82.94,1.87.94,3.15,0,1.52-.47,2.68-1.29,3.5Z"/>
    <path class="cls-2" d="M351.43,101.49h13.41v2.68c-.35-.12-.7-.23-1.17-.23h-6.3v7.81h6.18c.58,0,.94,0,1.29-.12v2.68c-.24-.12-.7-.12-1.17-.12h-6.3v7.93h6.18c.47,0,.94-.12,1.29-.23v2.8h-13.41c.16-.33.24-.69.23-1.05v-20.99c0-.47-.11-.82-.23-1.17Z"/>
  </g>
  <g>
    <path class="cls-2" d="M25.26,271.85v3.96c-.87-.77-1.85-1.4-2.92-1.87-.85-.37-1.76-.57-2.68-.58-2.1,0-3.73.93-4.9,2.56s-1.75,3.85-1.75,6.65c0,3.03.7,5.36,1.98,7,1.17,1.52,2.8,2.33,4.78,2.33.93,0,1.87-.23,2.68-.58.82-.35,1.75-1.05,2.8-1.87v3.85c-1.16.47-2.33.82-3.26,1.05-1.11.25-2.24.37-3.38.35-3.85,0-6.65-1.05-8.63-3.03-1.98-2.1-3.03-5.13-3.03-9.21,0-2.56.47-4.66,1.28-6.3,2.1-3.62,5.71-5.48,10.96-5.48,2.22,0,4.2.35,6.06,1.17h0Z"/>
    <path class="cls-2" d="M67.95,273.26c-2.1-1.75-4.78-2.57-8.28-2.57-4.9,0-8.4,1.75-10.26,5.13-1.05,1.87-1.63,4.08-1.63,6.65,0,2.33.35,4.31,1.05,5.95.93,2.33,2.45,3.96,4.43,5.02,1.63.82,3.73,1.28,6.3,1.28,3.73,0,6.65-1.05,8.75-2.92,2.22-2.1,3.26-5.13,3.26-9.1,0-4.2-1.17-7.34-3.61-9.44ZM64.1,289.81c-1.05,1.51-2.45,2.33-4.31,2.33-2.1,0-3.61-.82-4.55-2.57-.47-.93-.81-1.87-1.05-2.92-.23-1.17-.23-2.57-.23-4.2,0-6.18,1.87-9.21,5.71-9.21,2.1,0,3.5.82,4.43,2.45.93,1.63,1.4,3.96,1.4,7.11s-.47,5.36-1.4,7Z"/>
    <path class="cls-2" d="M96.28,278.85l-2.1,14.34v.23c0,.23,0,.47.12.82h-3.15c.22-.31.34-.67.35-1.05l3.15-20.99v-1.17h5.13v.23c0,.23,0,.47.12.82l5.36,15.74,5.36-15.74c.12-.35.12-.58.12-.82v-.23h5.13c-.12.23-.12.47-.12.47,0,.23,0,.35.12.58l2.92,21.11c0,.35.12.7.35,1.05h-6.3c.12-.12.12-.35.12-.47v-.58l-1.87-14.58-4.9,14.58c-.12.35-.23.7-.23.82v.23h-4.66v-.23c0-.12,0-.35-.12-.7l-4.9-14.45h0Z"/>
    <path class="cls-2" d="M142.11,278.85l-2.1,14.34v.23c0,.23.12.47.23.82h-3.27c.22-.31.34-.67.35-1.05l3.15-20.99c0-.23.12-.47.12-.58s-.12-.35-.12-.58h5.13v.23c0,.23.12.47.23.82l5.25,15.74,5.36-15.74c.12-.35.12-.58.12-.82v-.23h5.13v1.05l2.92,21.11c0,.35.12.7.35,1.05h-6.18v-1.05l-1.87-14.58-4.9,14.58c-.12.35-.23.7-.23.82s.12.12.12.23h-4.78v-.23c0-.12,0-.35-.12-.7l-4.89-14.45h0Z"/>
    <path class="cls-2" d="M205.44,273.26c-2.1-1.75-4.9-2.57-8.28-2.57-5.01,0-8.4,1.75-10.38,5.13-.93,1.87-1.52,4.08-1.52,6.65,0,2.33.35,4.31,1.05,5.95.93,2.33,2.45,3.96,4.43,5.02,1.63.82,3.73,1.28,6.3,1.28,3.73,0,6.65-1.05,8.75-2.92,2.22-2.1,3.26-5.13,3.26-9.1,0-4.2-1.17-7.34-3.61-9.44ZM201.47,289.81c-.94,1.51-2.34,2.33-4.32,2.33-2.1,0-3.62-.82-4.43-2.57-.47-.93-.82-1.87-1.05-2.92-.23-1.17-.35-2.57-.35-4.2,0-6.18,1.98-9.21,5.83-9.21,1.98,0,3.5.82,4.43,2.45.93,1.63,1.4,3.96,1.4,7.11s-.47,5.36-1.51,7Z"/>
    <path class="cls-2" d="M250.56,277.33c-.7-1.75-1.75-3.15-3.26-4.2-1.98-1.4-4.54-2.1-7.69-2.1h-8.4c.12.35.12.7.23,1.17v20.99c0,.35-.11.82-.23,1.05h9.91c1.75,0,3.38-.35,4.78-1.17,1.51-.7,2.68-1.87,3.61-3.26,1.4-2.1,2.1-4.55,2.1-7.35,0-1.87-.35-3.61-1.05-5.13ZM243.45,289.7c-1.05,1.28-2.45,1.87-4.2,1.87h-2.1v-17.84h1.75c1.63,0,2.92.58,4.08,1.63,1.63,1.63,2.44,3.96,2.44,7.23,0,3.03-.58,5.48-1.98,7.11Z"/>
    <path class="cls-2" d="M291.84,273.26c-1.98-1.75-4.78-2.57-8.16-2.57-5.01,0-8.52,1.75-10.38,5.13-1.05,1.87-1.51,4.08-1.51,6.65,0,2.33.35,4.31,1.05,5.95.74,2.2,2.34,4.01,4.43,5.02,1.52.82,3.62,1.28,6.3,1.28,3.73,0,6.53-1.05,8.63-2.92,2.22-2.1,3.38-5.13,3.38-9.1,0-4.2-1.28-7.34-3.73-9.44ZM288,289.81c-.94,1.51-2.45,2.33-4.32,2.33-2.1,0-3.61-.82-4.55-2.57-.46-.93-.82-1.87-1.05-2.92-.11-1.17-.23-2.57-.23-4.2,0-6.18,1.87-9.21,5.83-9.21,1.99,0,3.5.82,4.43,2.45s1.28,3.96,1.28,7.11-.46,5.36-1.39,7Z"/>
    <path class="cls-2" d="M335.46,293.2l-5.95-9.79c1.75-.58,3.03-1.28,3.73-2.1.81-1.05,1.17-2.33,1.17-3.85,0-2.1-.82-3.85-2.45-5.01-1.28-.93-2.8-1.4-4.67-1.4h-9.21c.12.35.12.7.12,1.17v20.99c0,.47-.12.81-.12,1.05h6.18c-.12-.23-.23-.7-.23-1.05v-9.33l5.02,9.33.35,1.05h6.88c-.23-.11-.47-.46-.81-1.05ZM327.29,281.3c-.47.47-1.16.7-2.1.7h-1.17v-8.51h1.16c1.05,0,1.87.35,2.45,1.17.59.82.94,1.87.94,3.15,0,1.52-.47,2.68-1.29,3.5Z"/>
    <path class="cls-2" d="M351.43,271.04h13.41v2.68c-.35-.12-.7-.23-1.17-.23h-6.3v7.81h6.18c.58,0,.94,0,1.29-.12v2.68c-.24-.12-.7-.12-1.17-.12h-6.3v7.93h6.18c.47,0,.94-.12,1.29-.23v2.8h-13.41c.16-.33.24-.69.23-1.05v-20.99c0-.47-.11-.82-.23-1.17Z"/>
  </g>
  <g>
    <path class="cls-2" d="M25.26,305.76v3.97c-.86-.77-1.85-1.4-2.91-1.87-.85-.37-1.76-.57-2.69-.58-2.09,0-3.73.93-4.89,2.56-1.17,1.64-1.75,3.85-1.75,6.65,0,1.31.13,2.49.39,3.54h-6.12c-.23-1.11-.34-2.33-.34-3.66,0-2.56.47-4.66,1.29-6.29,2.1-3.62,5.71-5.48,10.96-5.48,2.22,0,4.2.35,6.06,1.16Z"/>
    <path class="cls-2" d="M67.95,307.17c-2.1-1.75-4.79-2.57-8.28-2.57-4.9,0-8.4,1.75-10.27,5.13-1.04,1.87-1.63,4.08-1.63,6.65,0,1.33.11,2.55.35,3.65h5.98c-.15-1.04-.15-2.26-.15-3.65,0-6.18,1.87-9.21,5.72-9.21,2.1,0,3.49.81,4.43,2.44.93,1.64,1.4,3.97,1.4,7.12,0,1.21-.08,2.31-.23,3.3h5.98c.21-1.05.31-2.19.31-3.42,0-4.2-1.17-7.34-3.61-9.44Z"/>
    <path class="cls-2" d="M99.9,306l4.78,14.03h-5.93l-2.47-7.27-1.06,7.27h-2.66l2.09-13.92v-1.16h5.13v.23c0,.23,0,.46.12.82Z"/>
    <path class="cls-2" d="M117.81,320.03h-5.76l-.96-7.51-2.52,7.51h-2.73l4.78-14.03c.12-.35.12-.59.12-.82v-.23h5.13c-.11.23-.11.46-.11.46,0,.23,0,.35.11.58l1.94,14.04Z"/>
    <path class="cls-2" d="M145.84,306l4.68,14.03h-5.95l-2.46-7.27-1.06,7.27h-2.66l2.09-13.92c0-.23.11-.47.11-.58,0-.12-.11-.35-.11-.58h5.12v.23c0,.23.12.46.24.82Z"/>
    <path class="cls-2" d="M163.64,320.03h-5.76l-.96-7.51-2.52,7.51h-2.73l4.78-14.03c.12-.35.12-.59.12-.82v-.23h5.13v1.04l1.94,14.04Z"/>
    <path class="cls-2" d="M205.44,307.17c-2.11-1.75-4.9-2.57-8.29-2.57-5.01,0-8.39,1.75-10.37,5.13-.94,1.87-1.52,4.08-1.52,6.65,0,1.33.11,2.55.35,3.65h5.97c-.17-1.04-.26-2.26-.26-3.65,0-6.18,1.98-9.21,5.83-9.21,1.99,0,3.5.81,4.43,2.44.94,1.64,1.4,3.97,1.4,7.12,0,1.21-.07,2.31-.23,3.3h5.99c.21-1.05.31-2.19.31-3.42,0-4.2-1.17-7.34-3.61-9.44Z"/>
    <path class="cls-2" d="M250.56,311.25c-.69-1.75-1.75-3.15-3.26-4.2-1.98-1.4-4.55-2.1-7.69-2.1h-8.41c.12.35.12.7.23,1.17v13.91h5.72v-12.4h1.75c1.63,0,2.92.59,4.08,1.64,1.64,1.63,2.45,3.96,2.45,7.22,0,1.3-.11,2.48-.35,3.54h6.07c.31-1.14.46-2.36.46-3.66,0-1.86-.35-3.61-1.05-5.12Z"/>
    <path class="cls-2" d="M291.84,307.17c-1.98-1.75-4.78-2.57-8.16-2.57-5.01,0-8.51,1.75-10.38,5.13-1.05,1.87-1.51,4.08-1.51,6.65,0,1.33.11,2.55.35,3.65h5.89c-.09-1.04-.18-2.26-.18-3.65,0-6.18,1.87-9.21,5.83-9.21,1.99,0,3.5.81,4.43,2.44.93,1.64,1.28,3.97,1.28,7.12,0,1.21-.07,2.31-.22,3.3h6.06c.23-1.05.34-2.19.34-3.42,0-4.2-1.28-7.34-3.73-9.44Z"/>
    <path class="cls-2" d="M334.41,311.36c0-2.09-.82-3.85-2.45-5.01-1.28-.93-2.8-1.4-4.67-1.4h-9.21c.12.35.12.7.12,1.17v13.91h5.83v-2.25l1.21,2.25h5.92l-1.65-2.72c1.75-.58,3.04-1.28,3.73-2.1.82-1.05,1.17-2.33,1.17-3.85ZM327.29,315.21c-.46.47-1.16.7-2.1.7h-1.16v-8.51h1.16c1.05,0,1.87.35,2.45,1.16.59.82.94,1.87.94,3.15,0,1.52-.47,2.68-1.29,3.5Z"/>
    <path class="cls-2" d="M357.38,307.4v7.81h6.18c.59,0,.94,0,1.29-.12v2.68c-.24-.11-.71-.11-1.17-.11h-6.3v2.37h-5.71v-13.91c0-.47-.12-.82-.24-1.17h13.42v2.68c-.36-.12-.71-.23-1.17-.23h-6.3Z"/>
  </g>
  <g>
    <path class="cls-2" d="M25.26,237.94v3.96c-.87-.77-1.85-1.4-2.92-1.87-.85-.37-1.76-.57-2.68-.58-2.1,0-3.73.93-4.9,2.56s-1.75,3.85-1.75,6.65c0,3.03.7,5.36,1.98,7,1.17,1.52,2.8,2.33,4.78,2.33.93,0,1.87-.23,2.68-.58.82-.35,1.75-1.05,2.8-1.87v3.85c-1.16.47-2.33.82-3.26,1.05-1.11.25-2.24.37-3.38.35-3.85,0-6.65-1.05-8.63-3.03-1.98-2.1-3.03-5.13-3.03-9.21,0-2.56.47-4.66,1.28-6.3,2.1-3.62,5.71-5.48,10.96-5.48,2.22,0,4.2.35,6.06,1.17h0Z"/>
    <path class="cls-2" d="M67.95,239.35c-2.1-1.75-4.78-2.57-8.28-2.57-4.9,0-8.4,1.75-10.26,5.13-1.05,1.87-1.63,4.08-1.63,6.65,0,2.33.35,4.31,1.05,5.95.93,2.33,2.45,3.96,4.43,5.02,1.63.82,3.73,1.28,6.3,1.28,3.73,0,6.65-1.05,8.75-2.92,2.22-2.1,3.26-5.13,3.26-9.1,0-4.2-1.17-7.34-3.61-9.44ZM64.1,255.9c-1.05,1.51-2.45,2.33-4.31,2.33-2.1,0-3.61-.82-4.55-2.57-.47-.93-.81-1.87-1.05-2.92-.23-1.17-.23-2.57-.23-4.2,0-6.18,1.87-9.21,5.71-9.21,2.1,0,3.5.82,4.43,2.45.93,1.63,1.4,3.96,1.4,7.11s-.47,5.36-1.4,7Z"/>
    <path class="cls-2" d="M96.28,244.94l-2.1,14.34v.23c0,.23,0,.47.12.82h-3.15c.22-.31.34-.67.35-1.05l3.15-20.99v-1.17h5.13v.23c0,.23,0,.47.12.82l5.36,15.74,5.36-15.74c.12-.35.12-.58.12-.82v-.23h5.13c-.12.23-.12.47-.12.47,0,.23,0,.35.12.58l2.92,21.11c0,.35.12.7.35,1.05h-6.3c.12-.12.12-.35.12-.47v-.58l-1.87-14.58-4.9,14.58c-.12.35-.23.7-.23.82v.23h-4.66v-.23c0-.12,0-.35-.12-.7l-4.9-14.45h0Z"/>
    <path class="cls-2" d="M142.11,244.94l-2.1,14.34v.23c0,.23.12.47.23.82h-3.27c.22-.31.34-.67.35-1.05l3.15-20.99c0-.23.12-.47.12-.58s-.12-.35-.12-.58h5.13v.23c0,.23.12.47.23.82l5.25,15.74,5.36-15.74c.12-.35.12-.58.12-.82v-.23h5.13v1.05l2.92,21.11c0,.35.12.7.35,1.05h-6.18v-1.05l-1.87-14.58-4.9,14.58c-.12.35-.23.7-.23.82s.12.12.12.23h-4.78v-.23c0-.12,0-.35-.12-.7l-4.89-14.45h0Z"/>
    <path class="cls-2" d="M205.44,239.35c-2.1-1.75-4.9-2.57-8.28-2.57-5.01,0-8.4,1.75-10.38,5.13-.93,1.87-1.52,4.08-1.52,6.65,0,2.33.35,4.31,1.05,5.95.93,2.33,2.45,3.96,4.43,5.02,1.63.82,3.73,1.28,6.3,1.28,3.73,0,6.65-1.05,8.75-2.92,2.22-2.1,3.26-5.13,3.26-9.1,0-4.2-1.17-7.34-3.61-9.44ZM201.47,255.9c-.94,1.51-2.34,2.33-4.32,2.33-2.1,0-3.62-.82-4.43-2.57-.47-.93-.82-1.87-1.05-2.92-.23-1.17-.35-2.57-.35-4.2,0-6.18,1.98-9.21,5.83-9.21,1.98,0,3.5.82,4.43,2.45.93,1.63,1.4,3.96,1.4,7.11s-.47,5.36-1.51,7Z"/>
    <path class="cls-2" d="M250.56,243.42c-.7-1.75-1.75-3.15-3.26-4.2-1.98-1.4-4.54-2.1-7.69-2.1h-8.4c.12.35.12.7.23,1.17v20.99c0,.35-.11.82-.23,1.05h9.91c1.75,0,3.38-.35,4.78-1.17,1.51-.7,2.68-1.87,3.61-3.26,1.4-2.1,2.1-4.55,2.1-7.35,0-1.87-.35-3.61-1.05-5.13ZM243.45,255.79c-1.05,1.28-2.45,1.87-4.2,1.87h-2.1v-17.84h1.75c1.63,0,2.92.58,4.08,1.63,1.63,1.63,2.44,3.96,2.44,7.23,0,3.03-.58,5.48-1.98,7.11Z"/>
    <path class="cls-2" d="M291.84,239.35c-1.98-1.75-4.78-2.57-8.16-2.57-5.01,0-8.52,1.75-10.38,5.13-1.05,1.87-1.51,4.08-1.51,6.65,0,2.33.35,4.31,1.05,5.95.74,2.2,2.34,4.01,4.43,5.02,1.52.82,3.62,1.28,6.3,1.28,3.73,0,6.53-1.05,8.63-2.92,2.22-2.1,3.38-5.13,3.38-9.1,0-4.2-1.28-7.34-3.73-9.44ZM288,255.9c-.94,1.51-2.45,2.33-4.32,2.33-2.1,0-3.61-.82-4.55-2.57-.46-.93-.82-1.87-1.05-2.92-.11-1.17-.23-2.57-.23-4.2,0-6.18,1.87-9.21,5.83-9.21,1.99,0,3.5.82,4.43,2.45s1.28,3.96,1.28,7.11-.46,5.36-1.39,7Z"/>
    <path class="cls-2" d="M335.46,259.29l-5.95-9.79c1.75-.58,3.03-1.28,3.73-2.1.81-1.05,1.17-2.33,1.17-3.85,0-2.1-.82-3.85-2.45-5.01-1.28-.93-2.8-1.4-4.67-1.4h-9.21c.12.35.12.7.12,1.17v20.99c0,.47-.12.81-.12,1.05h6.18c-.12-.23-.23-.7-.23-1.05v-9.33l5.02,9.33.35,1.05h6.88c-.23-.11-.47-.46-.81-1.05ZM327.29,247.39c-.47.47-1.16.7-2.1.7h-1.17v-8.51h1.16c1.05,0,1.87.35,2.45,1.17.59.82.94,1.87.94,3.15,0,1.52-.47,2.68-1.29,3.5Z"/>
    <path class="cls-2" d="M351.43,237.13h13.41v2.68c-.35-.12-.7-.23-1.17-.23h-6.3v7.81h6.18c.58,0,.94,0,1.29-.12v2.68c-.24-.12-.7-.12-1.17-.12h-6.3v7.93h6.18c.47,0,.94-.12,1.29-.23v2.8h-13.41c.16-.33.24-.69.23-1.05v-20.99c0-.47-.11-.82-.23-1.17Z"/>
  </g>
  <g>
    <path class="cls-2" d="M25.26,204.03v3.96c-.87-.77-1.85-1.4-2.92-1.87-.85-.37-1.76-.57-2.68-.58-2.1,0-3.73.93-4.9,2.56s-1.75,3.85-1.75,6.65c0,3.03.7,5.36,1.98,7,1.17,1.52,2.8,2.33,4.78,2.33.93,0,1.87-.23,2.68-.58.82-.35,1.75-1.05,2.8-1.87v3.85c-1.16.47-2.33.82-3.26,1.05-1.11.25-2.24.37-3.38.35-3.85,0-6.65-1.05-8.63-3.03-1.98-2.1-3.03-5.13-3.03-9.21,0-2.56.47-4.66,1.28-6.3,2.1-3.62,5.71-5.48,10.96-5.48,2.22,0,4.2.35,6.06,1.17h0Z"/>
    <path class="cls-2" d="M67.95,205.43c-2.1-1.75-4.78-2.57-8.28-2.57-4.9,0-8.4,1.75-10.26,5.13-1.05,1.87-1.63,4.08-1.63,6.65,0,2.33.35,4.31,1.05,5.95.93,2.33,2.45,3.96,4.43,5.02,1.63.82,3.73,1.28,6.3,1.28,3.73,0,6.65-1.05,8.75-2.92,2.22-2.1,3.26-5.13,3.26-9.1,0-4.2-1.17-7.34-3.61-9.44ZM64.1,221.99c-1.05,1.51-2.45,2.33-4.31,2.33-2.1,0-3.61-.82-4.55-2.57-.47-.93-.81-1.87-1.05-2.92-.23-1.17-.23-2.57-.23-4.2,0-6.18,1.87-9.21,5.71-9.21,2.1,0,3.5.82,4.43,2.45.93,1.63,1.4,3.96,1.4,7.11s-.47,5.36-1.4,7Z"/>
    <path class="cls-2" d="M96.28,211.03l-2.1,14.34v.23c0,.23,0,.47.12.82h-3.15c.22-.31.34-.67.35-1.05l3.15-20.99v-1.17h5.13v.23c0,.23,0,.47.12.82l5.36,15.74,5.36-15.74c.12-.35.12-.58.12-.82v-.23h5.13c-.12.23-.12.47-.12.47,0,.23,0,.35.12.58l2.92,21.11c0,.35.12.7.35,1.05h-6.3c.12-.12.12-.35.12-.47v-.58l-1.87-14.58-4.9,14.58c-.12.35-.23.7-.23.82v.23h-4.66v-.23c0-.12,0-.35-.12-.7l-4.9-14.45h0Z"/>
    <path class="cls-2" d="M142.11,211.03l-2.1,14.34v.23c0,.23.12.47.23.82h-3.27c.22-.31.34-.67.35-1.05l3.15-20.99c0-.23.12-.47.12-.58s-.12-.35-.12-.58h5.13v.23c0,.23.12.47.23.82l5.25,15.74,5.36-15.74c.12-.35.12-.58.12-.82v-.23h5.13v1.05l2.92,21.11c0,.35.12.7.35,1.05h-6.18v-1.05l-1.87-14.58-4.9,14.58c-.12.35-.23.7-.23.82s.12.12.12.23h-4.78v-.23c0-.12,0-.35-.12-.7l-4.89-14.45h0Z"/>
    <path class="cls-2" d="M205.44,205.43c-2.1-1.75-4.9-2.57-8.28-2.57-5.01,0-8.4,1.75-10.38,5.13-.93,1.87-1.52,4.08-1.52,6.65,0,2.33.35,4.31,1.05,5.95.93,2.33,2.45,3.96,4.43,5.02,1.63.82,3.73,1.28,6.3,1.28,3.73,0,6.65-1.05,8.75-2.92,2.22-2.1,3.26-5.13,3.26-9.1,0-4.2-1.17-7.34-3.61-9.44ZM201.47,221.99c-.94,1.51-2.34,2.33-4.32,2.33-2.1,0-3.62-.82-4.43-2.57-.47-.93-.82-1.87-1.05-2.92-.23-1.17-.35-2.57-.35-4.2,0-6.18,1.98-9.21,5.83-9.21,1.98,0,3.5.82,4.43,2.45.93,1.63,1.4,3.96,1.4,7.11s-.47,5.36-1.51,7Z"/>
    <path class="cls-2" d="M250.56,209.51c-.7-1.75-1.75-3.15-3.26-4.2-1.98-1.4-4.54-2.1-7.69-2.1h-8.4c.12.35.12.7.23,1.17v20.99c0,.35-.11.82-.23,1.05h9.91c1.75,0,3.38-.35,4.78-1.17,1.51-.7,2.68-1.87,3.61-3.26,1.4-2.1,2.1-4.55,2.1-7.35,0-1.87-.35-3.61-1.05-5.13ZM243.45,221.88c-1.05,1.28-2.45,1.87-4.2,1.87h-2.1v-17.84h1.75c1.63,0,2.92.58,4.08,1.63,1.63,1.63,2.44,3.96,2.44,7.23,0,3.03-.58,5.48-1.98,7.11Z"/>
    <path class="cls-2" d="M291.84,205.43c-1.98-1.75-4.78-2.57-8.16-2.57-5.01,0-8.52,1.75-10.38,5.13-1.05,1.87-1.51,4.08-1.51,6.65,0,2.33.35,4.31,1.05,5.95.74,2.2,2.34,4.01,4.43,5.02,1.52.82,3.62,1.28,6.3,1.28,3.73,0,6.53-1.05,8.63-2.92,2.22-2.1,3.38-5.13,3.38-9.1,0-4.2-1.28-7.34-3.73-9.44ZM288,221.99c-.94,1.51-2.45,2.33-4.32,2.33-2.1,0-3.61-.82-4.55-2.57-.46-.93-.82-1.87-1.05-2.92-.11-1.17-.23-2.57-.23-4.2,0-6.18,1.87-9.21,5.83-9.21,1.99,0,3.5.82,4.43,2.45s1.28,3.96,1.28,7.11-.46,5.36-1.39,7Z"/>
    <path class="cls-2" d="M335.46,225.38l-5.95-9.79c1.75-.58,3.03-1.28,3.73-2.1.81-1.05,1.17-2.33,1.17-3.85,0-2.1-.82-3.85-2.45-5.01-1.28-.93-2.8-1.4-4.67-1.4h-9.21c.12.35.12.7.12,1.17v20.99c0,.47-.12.81-.12,1.05h6.18c-.12-.23-.23-.7-.23-1.05v-9.33l5.02,9.33.35,1.05h6.88c-.23-.11-.47-.46-.81-1.05ZM327.29,213.48c-.47.47-1.16.7-2.1.7h-1.17v-8.51h1.16c1.05,0,1.87.35,2.45,1.17.59.82.94,1.87.94,3.15,0,1.52-.47,2.68-1.29,3.5Z"/>
    <path class="cls-2" d="M351.43,203.22h13.41v2.68c-.35-.12-.7-.23-1.17-.23h-6.3v7.81h6.18c.58,0,.94,0,1.29-.12v2.68c-.24-.12-.7-.12-1.17-.12h-6.3v7.93h6.18c.47,0,.94-.12,1.29-.23v2.8h-13.41c.16-.33.24-.69.23-1.05v-20.99c0-.47-.11-.82-.23-1.17Z"/>
  </g>
  <g>
    <path class="cls-3" d="M283.49,148.89h5.43v.65h-2.29v5.95h-.85v-5.95h-2.29v-.65ZM295.19,155.49v-5.62l-1.83,5.62h-.98l-1.83-5.62v5.62h-.78v-6.6h1.24l1.89,5.55,1.96-5.55h1.24v6.6h-.91,0ZM190.63,189.99v-41.5h-9.54v41.5h9.54Z"/>
    <path class="cls-3" d="M265.97,155.49l-11.04,33.39c7.58,1.24,15.36,2.55,22.74,4.64l2.68,3.79c-8.69-2.15-17.25-3.99-26.47-5.29l-1.11,2.87-6.73-.85,18.1-45.55h8.1c16.14,26.2,32.02,53.65,50.52,78.29-84.63-31.3-192.71-30.52-277.47.33,2.02-3.27,4-6.55,5.95-9.87,76-25.88,178.86-23.07,254.4-.72-14.45-19.74-26.21-39.28-39.67-61.04h0Z"/>
    <polygon class="cls-3" points="120.77 194.77 120.77 148.5 131.95 148.5 146.65 177.38 159.79 148.5 171.48 148.5 171.48 189.99 161.94 189.99 161.94 155.03 144.56 193.07 126.59 157.91 126.59 194.05 120.77 194.77 120.77 194.77"/>
    <path class="cls-3" d="M68.36,201.24c9.02-2.55,18.23-4.44,27.38-6.21l-3.2-2.81c-7.19,1.05-14.18,2.68-21.57,4.64l22.35-38.75,14.51,38.55c3.44-.71,6.91-1.3,10.39-1.76l-19.21-46.4h-6.27l-36.53,60.18c3.14-1.31,6.6-2.15,9.87-3.27l2.29-4.18Z"/>
    <path class="cls-3" d="M233.5,173.46h9.61v15.42c-6.8,4.18-15.95,4.83-23.72,3.92-7.77-.91-15.36-3.99-18.95-11.5-4.77-10.13-1.5-20.91,7.12-27.84,8.82-7.06,20.39-8.36,30.91-4.51,2.74.98,5.23,2.48,7.77,3.73v7.91c-6.99-7.78-17.77-12.48-28.03-8.5-7.58,2.94-10.91,10.46-10.78,18.23,0,1.5.13,3.01.46,4.51,2.09,9.67,13.13,16.73,22.87,14.84.92-.2,1.83-.53,2.74-.78v-15.42h0Z"/>
  </g>
  <g id="Layer_1-2" data-name="Layer 1">
    <path class="cls-4" d="M560.19,162.89v132.04l-171.65-.53c-3.94,0-7.16-3.17-7.22-7.11l-3.02-124.4h181.89Z"/>
    <polygon class="cls-4" points="560.19 48.22 560.19 137.89 382.21 137.89 387.83 96.11 387.97 95.08 388.47 91.38 388.6 90.34 389.1 86.65 389.24 85.61 389.74 81.91 389.88 80.88 390.38 77.18 390.52 76.14 391.01 72.45 391.15 71.41 391.65 67.72 391.79 66.68 392.28 62.98 392.43 61.94 392.92 58.25 393.06 57.21 394.27 48.22 560.19 48.22"/>
    <g>
      <rect class="cls-4" x="386.43" y="164.13" width="18.18" height="18.18"/>
      <rect class="cls-4" x="411.51" y="164.13" width="107.26" height="18.18"/>
      <rect class="cls-4" x="401.08" y="253.63" width="159.11" height="18.19"/>
      <rect class="cls-4" x="386.07" y="188.25" width="174.12" height="66.96"/>
      <rect class="cls-4" x="524.13" y="164.13" width="36.06" height="18.19"/>
      <g>
        <g>
          <rect class="cls-4" x="387.45" y="165.41" width="16.15" height="15.62" rx=".55" ry=".55"/>
          <path class="cls-4" d="M400.63,177.7c-3.4.52-6.81.52-10.22,0-.53,0-.96-.41-.96-.91v-9.68c0-.5.43-.91.96-.91h10.22c.53,0,.96.41.96.91v9.68c0,.5-.43.91-.96.91Z"/>
        </g>
        <g>
          <rect class="cls-4" x="408.56" y="222.17" width="16.15" height="15.62" rx=".55" ry=".55"/>
          <path class="cls-4" d="M421.74,234.46c-3.4.52-6.81.52-10.22,0-.53,0-.96-.41-.96-.91v-9.68c0-.5.43-.91.96-.91h10.22c.53,0,.96.41.96.91v9.68c0,.5-.43.91-.96.91Z"/>
        </g>
        <rect class="cls-4" x="423.27" y="254.91" width="20.2" height="15.62" rx=".61" ry=".61"/>
        <path class="cls-4" d="M440.66,267.19c-4.86.52-9.73.52-14.59,0-.76,0-1.37-.41-1.37-.91v-9.68c0-.5.62-.91,1.37-.91h14.59c.76,0,1.37.41,1.37.91v9.68c0,.5-.62.91-1.37.91Z"/>
        <rect class="cls-4" x="387.18" y="222.17" width="20.2" height="15.62" rx=".61" ry=".61"/>
        <path class="cls-4" d="M404.57,234.46c-4.86.52-9.73.52-14.59,0-.76,0-1.37-.41-1.37-.91v-9.68c0-.5.62-.91,1.37-.91h14.59c.76,0,1.37.41,1.37.91v9.68c0,.5-.62.91-1.37.91Z"/>
        <rect class="cls-4" x="412.37" y="165.41" width="20.2" height="15.62" rx=".61" ry=".61"/>
        <path class="cls-4" d="M429.76,177.7c-4.86.52-9.73.52-14.59,0-.76,0-1.37-.41-1.37-.91v-9.68c0-.5.62-.91,1.37-.91h14.59c.76,0,1.37.41,1.37.91v9.68c0,.5-.62.91-1.37.91Z"/>
        <rect class="cls-4" x="433.7" y="165.41" width="20.2" height="15.62" rx=".61" ry=".61"/>
        <path class="cls-4" d="M451.09,177.7c-4.86.52-9.73.52-14.59,0-.76,0-1.37-.41-1.37-.91v-9.68c0-.5.62-.91,1.37-.91h14.59c.76,0,1.37.41,1.37.91v9.68c0,.5-.62.91-1.37.91h0Z"/>
        <rect class="cls-4" x="454.92" y="165.41" width="20.2" height="15.62" rx=".61" ry=".61"/>
        <path class="cls-4" d="M472.31,177.7c-4.86.52-9.73.52-14.59,0-.76,0-1.37-.41-1.37-.91v-9.68c0-.5.62-.91,1.37-.91h14.59c.76,0,1.37.41,1.37.91v9.68c0,.5-.62.91-1.37.91Z"/>
        <rect class="cls-4" x="476.3" y="165.41" width="20.2" height="15.62" rx=".61" ry=".61"/>
        <path class="cls-4" d="M493.69,177.7c-4.86.52-9.73.52-14.59,0-.76,0-1.37-.41-1.37-.91v-9.68c0-.5.62-.91,1.37-.91h14.59c.76,0,1.37.41,1.37.91v9.68c0,.5-.62.91-1.37.91Z"/>
        <rect class="cls-4" x="497.74" y="165.41" width="20.2" height="15.62" rx=".61" ry=".61"/>
        <path class="cls-4" d="M515.13,177.7c-4.86.52-9.73.52-14.59,0-.76,0-1.37-.41-1.37-.91v-9.68c0-.5.62-.91,1.37-.91h14.59c.76,0,1.37.41,1.37.91v9.68c0,.5-.62.91-1.37.91Z"/>
        <rect class="cls-4" x="525.11" y="165.41" width="20.2" height="15.62" rx=".61" ry=".61"/>
        <path class="cls-4" d="M542.5,177.7c-4.86.52-9.73.52-14.59,0-.76,0-1.37-.41-1.37-.91v-9.68c0-.5.62-.91,1.37-.91h14.59c.76,0,1.37.41,1.37.91v9.68c0,.5-.62.91-1.37.91Z"/>
        <path class="cls-4" d="M560.19,165.41v15.62h-13.14c-.34,0-.61-.27-.61-.61v-14.4c0-.33.27-.61.61-.61h13.14Z"/>
        <path class="cls-4" d="M560.19,166.19v11.8c-3.65.19-7.3.09-10.95-.29-.75,0-1.37-.41-1.37-.91v-9.69c0-.5.62-.91,1.37-.91h10.95Z"/>
        <rect class="cls-4" x="387.18" y="189.85" width="24.94" height="15.62" rx=".67" ry=".67"/>
        <path class="cls-4" d="M409.15,202.13c-6.33.52-12.66.52-18.99,0-.99,0-1.79-.41-1.79-.91v-9.68c0-.5.8-.91,1.79-.91h18.99c.99,0,1.79.41,1.79.91v9.68c0,.5-.8.91-1.79.91Z"/>
        <rect class="cls-4" x="387.18" y="238.68" width="29.45" height="15.62" rx=".73" ry=".73"/>
        <rect class="cls-4" x="387.18" y="206.01" width="33.42" height="15.62" rx=".78" ry=".78"/>
        <path class="cls-4" d="M418.09,218.23c-9.46,1.3-18.92,1.3-28.39,0-.35,0-.63-.28-.63-.63v-10.08c0-.35.28-.63.63-.63h28.39c.35,0,.63.28.63.63v10.08c0,.35-.28.63-.63.63Z"/>
        <path class="cls-4" d="M413.28,250.97c-7.59.52-15.17.52-22.76,0-1.18,0-2.14-.41-2.14-.91v-9.68c0-.5.96-.91,2.14-.91h22.76c1.18,0,2.14.41,2.14.91v9.68c0,.5-.96.91-2.14.91Z"/>
        <rect class="cls-4" x="402.27" y="254.91" width="20.2" height="15.62" rx=".61" ry=".61"/>
        <path class="cls-4" d="M419.66,267.19c-4.86.52-9.73.52-14.59,0-.76,0-1.37-.41-1.37-.91v-9.68c0-.5.62-.91,1.37-.91h14.59c.76,0,1.37.41,1.37.91v9.68c0,.5-.62.91-1.37.91Z"/>
        <g>
          <path class="cls-4" d="M560.19,189.85v15.61h-12.13c-.29,0-.53-.24-.53-.53v-14.55c0-.29.24-.53.53-.53h12.13Z"/>
          <path class="cls-4" d="M560.19,190.62v11.51h-.01c-3.23.51-6.46.51-9.69,0-.5,0-.91-.41-.91-.91v-9.69c0-.5.41-.91.91-.91h9.7Z"/>
        </g>
        <g>
          <rect class="cls-4" x="530.72" y="189.85" width="15.62" height="15.62" rx=".53" ry=".53"/>
          <path class="cls-4" d="M543.38,202.13c-3.23.52-6.45.52-9.68,0-.5,0-.91-.41-.91-.91v-9.68c0-.5.41-.91.91-.91h9.68c.5,0,.91.41.91.91v9.68c0,.5-.41.91-.91.91Z"/>
        </g>
        <g>
          <rect class="cls-4" x="513.92" y="189.85" width="15.62" height="15.62" rx=".53" ry=".53"/>
          <path class="cls-4" d="M526.57,202.13c-3.23.52-6.45.52-9.68,0-.5,0-.91-.41-.91-.91v-9.68c0-.5.41-.91.91-.91h9.68c.5,0,.91.41.91.91v9.68c0,.5-.41.91-.91.91Z"/>
        </g>
        <g>
          <rect class="cls-4" x="497.12" y="189.85" width="15.62" height="15.62" rx=".53" ry=".53"/>
          <path class="cls-4" d="M509.77,202.13c-3.23.52-6.45.52-9.68,0-.5,0-.91-.41-.91-.91v-9.68c0-.5.41-.91.91-.91h9.68c.5,0,.91.41.91.91v9.68c0,.5-.41.91-.91.91Z"/>
        </g>
        <g>
          <rect class="cls-4" x="480.31" y="189.85" width="15.62" height="15.62" rx=".53" ry=".53"/>
          <path class="cls-4" d="M492.97,202.13c-3.23.52-6.45.52-9.68,0-.5,0-.91-.41-.91-.91v-9.68c0-.5.41-.91.91-.91h9.68c.5,0,.91.41.91.91v9.68c0,.5-.41.91-.91.91Z"/>
        </g>
        <g>
          <rect class="cls-4" x="463.51" y="189.85" width="15.62" height="15.62" rx=".53" ry=".53"/>
          <path class="cls-4" d="M476.16,202.13c-3.23.52-6.45.52-9.68,0-.5,0-.91-.41-.91-.91v-9.68c0-.5.41-.91.91-.91h9.68c.5,0,.91.41.91.91v9.68c0,.5-.41.91-.91.91Z"/>
        </g>
        <g>
          <rect class="cls-4" x="446.71" y="189.85" width="15.62" height="15.62" rx=".53" ry=".53"/>
          <path class="cls-4" d="M459.36,202.13c-3.23.52-6.45.52-9.68,0-.5,0-.91-.41-.91-.91v-9.68c0-.5.41-.91.91-.91h9.68c.5,0,.91.41.91.91v9.68c0,.5-.41.91-.91.91Z"/>
        </g>
        <g>
          <rect class="cls-4" x="429.91" y="189.85" width="15.62" height="15.62" rx=".53" ry=".53"/>
          <path class="cls-4" d="M442.56,202.13c-3.23.52-6.45.52-9.68,0-.5,0-.91-.41-.91-.91v-9.68c0-.5.41-.91.91-.91h9.68c.5,0,.91.41.91.91v9.68c0,.5-.41.91-.91.91Z"/>
        </g>
        <g>
          <rect class="cls-4" x="413.1" y="189.85" width="15.62" height="15.62" rx=".53" ry=".53"/>
          <path class="cls-4" d="M425.75,202.13c-3.23.52-6.45.52-9.68,0-.5,0-.91-.41-.91-.91v-9.68c0-.5.41-.91.91-.91h9.68c.5,0,.91.41.91.91v9.68c0,.5-.41.91-.91.91Z"/>
        </g>
        <g>
          <path class="cls-4" d="M560.19,206.01v15.62h-3.46c-.3,0-.54-.24-.54-.54v-14.55c0-.29.24-.53.54-.53h3.46Z"/>
          <path class="cls-4" d="M560.19,206.79v11.64c-.34-.04-.69-.08-1.03-.14-.51,0-.91-.4-.91-.91v-9.68c0-.51.4-.91.91-.91h1.03Z"/>
        </g>
        <g>
          <rect class="cls-4" x="539.39" y="206.01" width="15.62" height="15.62" rx=".53" ry=".53"/>
          <path class="cls-4" d="M552.04,218.29c-3.23.52-6.45.52-9.68,0-.5,0-.91-.41-.91-.91v-9.68c0-.5.41-.91.91-.91h9.68c.5,0,.91.41.91.91v9.68c0,.5-.41.91-.91.91Z"/>
        </g>
        <g>
          <rect class="cls-4" x="522.58" y="206.01" width="15.62" height="15.62" rx=".53" ry=".53"/>
          <path class="cls-4" d="M535.24,218.29c-3.23.52-6.45.52-9.68,0-.5,0-.91-.41-.91-.91v-9.68c0-.5.41-.91.91-.91h9.68c.5,0,.91.41.91.91v9.68c0,.5-.41.91-.91.91Z"/>
        </g>
        <g>
          <rect class="cls-4" x="505.78" y="206.01" width="15.62" height="15.62" rx=".53" ry=".53"/>
          <path class="cls-4" d="M518.43,218.29c-3.23.52-6.45.52-9.68,0-.5,0-.91-.41-.91-.91v-9.68c0-.5.41-.91.91-.91h9.68c.5,0,.91.41.91.91v9.68c0,.5-.41.91-.91.91Z"/>
        </g>
        <g>
          <rect class="cls-4" x="488.98" y="206.01" width="15.62" height="15.62" rx=".53" ry=".53"/>
          <path class="cls-4" d="M501.63,218.29c-3.23.52-6.45.52-9.68,0-.5,0-.91-.41-.91-.91v-9.68c0-.5.41-.91.91-.91h9.68c.5,0,.91.41.91.91v9.68c0,.5-.41.91-.91.91Z"/>
        </g>
        <g>
          <rect class="cls-4" x="472.17" y="206.01" width="15.62" height="15.62" rx=".53" ry=".53"/>
          <path class="cls-4" d="M484.83,218.29c-3.23.52-6.45.52-9.68,0-.5,0-.91-.41-.91-.91v-9.68c0-.5.41-.91.91-.91h9.68c.5,0,.91.41.91.91v9.68c0,.5-.41.91-.91.91Z"/>
        </g>
        <g>
          <rect class="cls-4" x="455.37" y="206.01" width="15.62" height="15.62" rx=".53" ry=".53"/>
          <path class="cls-4" d="M468.02,218.29c-3.23.52-6.45.52-9.68,0-.5,0-.91-.41-.91-.91v-9.68c0-.5.41-.91.91-.91h9.68c.5,0,.91.41.91.91v9.68c0,.5-.41.91-.91.91Z"/>
        </g>
        <g>
          <rect class="cls-4" x="438.57" y="206.01" width="15.62" height="15.62" rx=".53" ry=".53"/>
          <path class="cls-4" d="M451.22,218.29c-3.23.52-6.45.52-9.68,0-.5,0-.91-.41-.91-.91v-9.68c0-.5.41-.91.91-.91h9.68c.5,0,.91.41.91.91v9.68c0,.5-.41.91-.91.91Z"/>
        </g>
        <g>
          <rect class="cls-4" x="421.76" y="206.01" width="15.62" height="15.62" rx=".53" ry=".53"/>
          <path class="cls-4" d="M434.42,218.29c-3.23.52-6.45.52-9.68,0-.5,0-.91-.41-.91-.91v-9.68c0-.5.41-.91.91-.91h9.68c.5,0,.91.41.91.91v9.68c0,.5-.41.91-.91.91Z"/>
        </g>
        <g>
          <rect class="cls-4" x="543.51" y="222.17" width="15.62" height="15.62" rx=".53" ry=".53"/>
          <path class="cls-4" d="M556.16,234.46c-3.23.52-6.45.52-9.68,0-.5,0-.91-.41-.91-.91v-9.68c0-.5.41-.91.91-.91h9.68c.5,0,.91.41.91.91v9.68c0,.5-.41.91-.91.91Z"/>
        </g>
        <g>
          <rect class="cls-4" x="526.71" y="222.17" width="15.62" height="15.62" rx=".53" ry=".53"/>
          <path class="cls-4" d="M539.36,234.46c-3.23.52-6.45.52-9.68,0-.5,0-.91-.41-.91-.91v-9.68c0-.5.41-.91.91-.91h9.68c.5,0,.91.41.91.91v9.68c0,.5-.41.91-.91.91Z"/>
        </g>
        <g>
          <rect class="cls-4" x="509.9" y="222.17" width="15.62" height="15.62" rx=".53" ry=".53"/>
          <path class="cls-4" d="M522.56,234.46c-3.23.52-6.45.52-9.68,0-.5,0-.91-.41-.91-.91v-9.68c0-.5.41-.91.91-.91h9.68c.5,0,.91.41.91.91v9.68c0,.5-.41.91-.91.91Z"/>
        </g>
        <g>
          <rect class="cls-4" x="493.1" y="222.17" width="15.62" height="15.62" rx=".53" ry=".53"/>
          <path class="cls-4" d="M505.75,234.46c-3.23.52-6.45.52-9.68,0-.5,0-.91-.41-.91-.91v-9.68c0-.5.41-.91.91-.91h9.68c.5,0,.91.41.91.91v9.68c0,.5-.41.91-.91.91Z"/>
        </g>
        <g>
          <rect class="cls-4" x="476.3" y="222.17" width="15.62" height="15.62" rx=".53" ry=".53"/>
          <path class="cls-4" d="M488.95,234.46c-3.23.52-6.45.52-9.68,0-.5,0-.91-.41-.91-.91v-9.68c0-.5.41-.91.91-.91h9.68c.5,0,.91.41.91.91v9.68c0,.5-.41.91-.91.91Z"/>
        </g>
        <g>
          <rect class="cls-4" x="459.49" y="222.17" width="15.62" height="15.62" rx=".53" ry=".53"/>
          <path class="cls-4" d="M472.15,234.46c-3.23.52-6.45.52-9.68,0-.5,0-.91-.41-.91-.91v-9.68c0-.5.41-.91.91-.91h9.68c.5,0,.91.41.91.91v9.68c0,.5-.41.91-.91.91Z"/>
        </g>
        <g>
          <rect class="cls-4" x="442.69" y="222.17" width="15.62" height="15.62" rx=".53" ry=".53"/>
          <path class="cls-4" d="M455.34,234.46c-3.23.52-6.45.52-9.68,0-.5,0-.91-.41-.91-.91v-9.68c0-.5.41-.91.91-.91h9.68c.5,0,.91.41.91.91v9.68c0,.5-.41.91-.91.91Z"/>
        </g>
        <g>
          <rect class="cls-4" x="425.89" y="222.17" width="15.62" height="15.62" rx=".53" ry=".53"/>
          <path class="cls-4" d="M438.54,234.46c-3.23.52-6.45.52-9.68,0-.5,0-.91-.41-.91-.91v-9.68c0-.5.41-.91.91-.91h9.68c.5,0,.91.41.91.91v9.68c0,.5-.41.91-.91.91Z"/>
        </g>
        <g>
          <path class="cls-4" d="M560.19,238.68v15.62h-7.68c-.29,0-.53-.24-.53-.54v-14.55c0-.29.24-.53.53-.53h7.68Z"/>
          <path class="cls-4" d="M560.19,239.46v11.88c-1.75.03-3.5-.09-5.25-.37-.5,0-.91-.41-.91-.91v-9.69c0-.5.41-.91.91-.91h5.25Z"/>
        </g>
        <g>
          <rect class="cls-4" x="535.17" y="238.68" width="15.62" height="15.62" rx=".53" ry=".53"/>
          <path class="cls-4" d="M547.82,250.97c-3.23.52-6.45.52-9.68,0-.5,0-.91-.41-.91-.91v-9.68c0-.5.41-.91.91-.91h9.68c.5,0,.91.41.91.91v9.68c0,.5-.41.91-.91.91Z"/>
        </g>
        <g>
          <rect class="cls-4" x="518.37" y="238.68" width="15.62" height="15.62" rx=".53" ry=".53"/>
          <path class="cls-4" d="M531.02,250.97c-3.23.52-6.45.52-9.68,0-.5,0-.91-.41-.91-.91v-9.68c0-.5.41-.91.91-.91h9.68c.5,0,.91.41.91.91v9.68c0,.5-.41.91-.91.91Z"/>
        </g>
        <g>
          <rect class="cls-4" x="501.57" y="238.68" width="15.62" height="15.62" rx=".53" ry=".53"/>
          <path class="cls-4" d="M514.21,250.97c-3.23.52-6.45.52-9.68,0-.5,0-.91-.41-.91-.91v-9.68c0-.5.41-.91.91-.91h9.68c.5,0,.91.41.91.91v9.68c0,.5-.41.91-.91.91Z"/>
        </g>
        <g>
          <rect class="cls-4" x="484.76" y="238.68" width="15.62" height="15.62" rx=".53" ry=".53"/>
          <path class="cls-4" d="M497.41,250.97c-3.23.52-6.45.52-9.68,0-.5,0-.91-.41-.91-.91v-9.68c0-.5.41-.91.91-.91h9.68c.5,0,.91.41.91.91v9.68c0,.5-.41.91-.91.91Z"/>
        </g>
        <g>
          <rect class="cls-4" x="467.96" y="238.68" width="15.62" height="15.62" rx=".53" ry=".53"/>
          <path class="cls-4" d="M480.61,250.97c-3.23.52-6.45.52-9.68,0-.5,0-.91-.41-.91-.91v-9.68c0-.5.41-.91.91-.91h9.68c.5,0,.91.41.91.91v9.68c0,.5-.41.91-.91.91Z"/>
        </g>
        <g>
          <rect class="cls-4" x="451.16" y="238.68" width="15.62" height="15.62" rx=".53" ry=".53"/>
          <path class="cls-4" d="M463.81,250.97c-3.23.52-6.45.52-9.68,0-.5,0-.91-.41-.91-.91v-9.68c0-.5.41-.91.91-.91h9.68c.5,0,.91.41.91.91v9.68c0,.5-.41.91-.91.91Z"/>
        </g>
        <g>
          <rect class="cls-4" x="434.35" y="238.68" width="15.62" height="15.62" rx=".53" ry=".53"/>
          <path class="cls-4" d="M447,250.97c-3.23.52-6.45.52-9.68,0-.5,0-.91-.41-.91-.91v-9.68c0-.5.41-.91.91-.91h9.68c.5,0,.91.41.91.91v9.68c0,.5-.41.91-.91.91Z"/>
        </g>
        <g>
          <rect class="cls-4" x="417.55" y="238.68" width="15.62" height="15.62" rx=".53" ry=".53"/>
          <path class="cls-4" d="M430.2,250.97c-3.23.52-6.45.52-9.68,0-.5,0-.91-.41-.91-.91v-9.68c0-.5.41-.91.91-.91h9.68c.5,0,.91.41.91.91v9.68c0,.5-.41.91-.91.91Z"/>
        </g>
        <path class="cls-4" d="M560.19,255.21v15.32h-114.92c-.41,0-.74-.33-.74-.74v-13.84c0-.41.33-.74.74-.74h114.92Z"/>
        <path class="cls-4" d="M560.19,256.51v12.27c-37.77.23-75.3.15-112.59-.22-.63,0-1.14-.38-1.14-.87v-10.31c0-.48.51-.87,1.14-.87h112.59Z"/>
      </g>
    </g>
    <polygon class="cls-4" points="560.19 57.21 560.19 58.25 392.92 58.25 393.06 57.21 560.19 57.21"/>
    <polygon class="cls-4" points="560.19 61.94 560.19 62.98 392.28 62.98 392.43 61.94 560.19 61.94"/>
    <polygon class="cls-4" points="560.19 66.68 560.19 67.72 391.65 67.72 391.79 66.68 560.19 66.68"/>
    <polygon class="cls-4" points="560.19 71.41 560.19 72.45 391.01 72.45 391.15 71.41 560.19 71.41"/>
    <polygon class="cls-4" points="560.19 76.14 560.19 77.18 390.38 77.18 390.52 76.14 560.19 76.14"/>
    <polygon class="cls-4" points="560.19 80.88 560.19 81.91 389.74 81.91 389.88 80.88 560.19 80.88"/>
    <polygon class="cls-4" points="560.19 85.61 560.19 86.65 389.1 86.65 389.24 85.61 560.19 85.61"/>
    <polygon class="cls-4" points="560.19 90.34 560.19 91.38 388.47 91.38 388.6 90.34 560.19 90.34"/>
    <polygon class="cls-4" points="560.19 95.08 560.19 96.11 387.83 96.11 387.97 95.08 560.19 95.08"/>
    <path class="cls-4" d="M560.19,137.89v24.99h-181.31c-1.12,0-2.02-.9-2.02-2.02v-20.94c0-1.12.9-2.03,2.02-2.03h181.31Z"/>
    <rect class="cls-4" x="399.65" y="28.01" width="160.54" height="20.21"/>
    <g>
      <rect class="cls-4" x="401.17" y="24.95" width="1.2" height="23.57"/>
      <rect class="cls-4" x="558.13" y="24.95" width="1.2" height="23.57"/>
      <rect class="cls-4" x="552.72" y="24.95" width="1.2" height="23.57"/>
      <rect class="cls-4" x="547.3" y="24.95" width="1.2" height="23.57"/>
      <rect class="cls-4" x="541.89" y="24.95" width="1.2" height="23.57"/>
      <rect class="cls-4" x="536.47" y="24.95" width="1.2" height="23.57"/>
      <rect class="cls-4" x="531.07" y="24.95" width="1.2" height="23.57"/>
      <rect class="cls-4" x="525.65" y="24.95" width="1.2" height="23.57"/>
      <rect class="cls-4" x="520.24" y="24.95" width="1.2" height="23.57"/>
      <rect class="cls-4" x="514.83" y="24.95" width="1.2" height="23.57"/>
      <rect class="cls-4" x="509.41" y="24.95" width="1.2" height="23.57"/>
      <rect class="cls-4" x="504" y="24.95" width="1.2" height="23.57"/>
      <rect class="cls-4" x="466.12" y="24.95" width="1.2" height="23.57"/>
      <rect class="cls-4" x="460.7" y="24.95" width="1.2" height="23.57"/>
      <rect class="cls-4" x="455.29" y="24.95" width="1.2" height="23.57"/>
      <rect class="cls-4" x="449.88" y="24.95" width="1.2" height="23.57"/>
      <rect class="cls-4" x="444.47" y="24.95" width="1.2" height="23.57"/>
      <rect class="cls-4" x="439.06" y="24.95" width="1.2" height="23.57"/>
      <rect class="cls-4" x="433.64" y="24.95" width="1.2" height="23.57"/>
      <rect class="cls-4" x="428.23" y="24.95" width="1.2" height="23.57"/>
      <rect class="cls-4" x="422.82" y="24.95" width="1.2" height="23.57"/>
      <rect class="cls-4" x="417.41" y="24.95" width="1.2" height="23.57"/>
      <rect class="cls-4" x="411.99" y="24.95" width="1.2" height="23.57"/>
      <rect class="cls-4" x="406.58" y="24.95" width="1.2" height="23.57"/>
      <rect class="cls-4" x="498.59" y="24.95" width="1.2" height="23.57"/>
      <rect class="cls-4" x="493.18" y="24.95" width="1.2" height="23.57"/>
      <rect class="cls-4" x="487.76" y="24.95" width="1.2" height="23.57"/>
      <rect class="cls-4" x="482.36" y="24.95" width="1.2" height="23.57"/>
      <rect class="cls-4" x="476.94" y="24.95" width="1.2" height="23.57"/>
      <rect class="cls-4" x="471.53" y="24.95" width="1.2" height="23.57"/>
    </g>
  </g>
</svg>