<svg xmlns="http://www.w3.org/2000/svg" id="Layer_1" data-name="Layer 1" viewBox="0 0 560 320"><defs><style>.cls-1{fill:#372869}.cls-2,.cls-3,.cls-4{stroke-linejoin:round}.cls-2,.cls-4{stroke:#372869;fill:none}.cls-2{stroke-width:5.25px}.cls-3{fill:#bca3ce;stroke:#553f98;stroke-width:.5px}.cls-4{stroke-width:2.1px}</style></defs><path d="M.95.03h559.24v320H.95z" class="cls-1"/><path d="M405.33-.07c-3.45 16.81-8.27 33.52-14.2 49.97-.77 2.14-1.56 4.27-2.37 6.4-3.15 8.31-6.6 16.53-10.28 24.65a462 462 0 0 1-18.36 36.11c-.66 1.19-1.34 2.38-2.03 3.56-.5.88-1 1.74-1.5 2.61-10.64 18.29-22.38 35.76-34.79 52.08-48.21 64.41-136.13 76.41-201.3 120.77-3.92 2.65-7.76 5.44-11.5 8.36a168 168 0 0 0-8.87 7.44c-2.85 2.53-5.66 5.19-8.43 7.96H-.19V-.07h405.51Z" style="fill:#553f98"/><path id="Joystick" d="M433.41 302.04h-2.65c-.98 0-1.79-.77-1.84-1.75l-1.17-23.22h4.41l1.26 24.97Z" class="cls-3"/><path d="M448.54 18.68h-2.91l-8.46 17.71v26.89l.48 5.47 3.04 122.3-16.92 87.93.95 20.01h6.72l4.93-39.49 11.17-42.66 3.38-38.7zm-2.21 232.03v.04zm0 0v.04z" class="cls-3"/><path d="M560.19 239.41v30.19h-24.8v.08H430.44l5.93-30.2h79.13v-.07zm-44.69-10.65h44.69v10.65H515.5z" class="cls-3"/><path d="M515.5 228.76h44.69v1.88H515.5zm0 8.95h44.69v1.7H515.5zm19.89-11.64 24.8.02v2.67H515.5v-2.71zm24.8-208.49v21.76h-24.8v.07H438.8l8.54-20.73.43-1.06h67.73z" class="cls-3"/><path d="M560.19 21.63v13.18l-3.72.03-.67-7.75-.47-5.46zm-91.78 12.96 2.39.03 1.2.01 23.96.21.67-7.74.47-5.47h-25.29z" class="cls-3"/><path d="M560.19 27.09v7.72l-3.72.03-.67-7.75zm-89.39 7.53 25.16.22.67-7.74h-24.05zm83.36.22-26.75.01-.16-13.22h25.78zm-55.89 0 26.75.01.17-13.22H499.4z" class="cls-3"/><path d="m498.27 34.88 26.75-.03.17-7.49h-26.28zm55.89 0-26.75-.03-.09-7.49h26.2zm-126.6 267.51h-2.65c-.98 0-1.79-.77-1.84-1.75l-1.17-23.22h4.41l1.26 24.97Zm18.77-51.68v.04zM552.5 265.3a2.37 2.37 0 0 1-2.37 2.45l-34.63-.04v-13.76c-.17-.32-.32-.65-.43-.99-.19-.56-.28-1.15-.28-1.75 0-.97.25-1.89.71-2.74v-9.78h33.72c.15 0 .29.01.43.04.5.09.95.32 1.29.67.44.42.71 1.01.73 1.67z" class="cls-3"/><path d="M535.99 251.21c0 4.18-4.75 7.57-10.6 7.57-4.5 0-8.35-2-9.89-4.83-.17-.32-.32-.65-.43-.99-.19-.56-.28-1.15-.28-1.75 0-.97.25-1.89.71-2.74 1.12-2.05 3.45-3.67 6.37-4.4 1.1-.28 2.28-.43 3.52-.43s2.34.14 3.41.4c1.48.36 2.82.95 3.92 1.7 2.01 1.38 3.27 3.32 3.27 5.46Z" class="cls-3"/><ellipse cx="525.2" cy="251.23" class="cls-3" rx="6.46" ry="4.56"/><path d="m528.95 229.07-.23 22.19c-.57 1.04-1.94 1.65-3.33 1.69s-2.81-.49-3.49-1.76l-.07-22.17 3.56.02 3.56.02Z" class="cls-3"/><path d="M525.39 229.05v23.9c-1.39.04-2.81-.49-3.49-1.76l-.07-22.17 3.56.02Z" class="cls-3"/><ellipse cx="525.39" cy="229.06" class="cls-3" rx="2.4" ry="3.56" transform="rotate(-87.65 525.387 229.057)"/><path d="M515.5 42.99h44.69v19.43h-24.8v.07h-95.7l-.12-2.67-.19-3.99-.3-6.61-.2-4.48-.08-1.67 10.1-.01zm44.69 226.61v33.61h-24.8l-103.4.07c-1.73 0-3.13-1.4-3.13-3.13v-19.09c0-1.05.06-2.03.13-2.88 0-.02 0-.05.01-.07.03-.37.07-.72.11-1.04.15-1.27.31-2.06.31-2.06l.95-4.61c.07-.38.37-.65.73-.72.05-.01.11-.01.16-.01h84.24v-.07z" class="cls-3"/><path d="M560.19 269.6v8.51h-131.2c.04-.37.07-.72.11-1.04.15-1.3.32-2.12.32-2.12l.95-4.62c.06-.3.26-.54.53-.65.11-.05.23-.08.36-.08zm-81.21-1.71-34.56.06c-1.31 0-2.3-1.2-2.03-2.49l3.62-21.65a4.086 4.086 0 0 1 3.98-3.26l31.64-.22a2.482 2.482 0 0 1 2.48 2.78l-1.15 21.27a4.006 4.006 0 0 1-3.97 3.52Zm-42.61-28.41h99.02v-10.65h-97.1l-.34 1.89-1.28 7.06z" class="cls-3"/><path d="m437.95 230.72 97.44-.08v-1.81h-97.1zm-1.58 8.76h99.02v-1.77l-98.72.07z" class="cls-3"/><path d="M438.29 226.22v2.61l97.1-.07v-2.64l-90.31.09zm121.9-163.8v136.67H535.4v.07h-92.06v-.02c.06-.27.47-2.56.7-8 .13-3.12.21-7.29.11-12.71-.26-15.52-3.14-111.78-3.14-111.78s-1.14-.11-1.21-1.76c-.06-1.65-.11-2.4-.11-2.4h9.5l66.31-.07z" class="cls-3"/><path d="M560.19 69.52v96.83H535.4l-79.99.07c-1.49 0-2.84-.6-3.83-1.57a5.2 5.2 0 0 1-.87-1.09c-.01 0-.01-.01-.01-.01-.47-.78-.75-1.69-.78-2.67l-2.38-85.85c-.05-1.66.65-3.17 1.78-4.2h.01a5.43 5.43 0 0 1 3.7-1.44h62.47v-.07z" class="cls-3"/><path d="M560.19 69.52v67.95l-44.69-31.2V95.5c-16.93-5.98-41.67-14.79-55.61-20.08-6.23-2.36-10.3-4.01-10.56-4.4-.01-.01-.01-.02-.01-.02v-.04c.98-.9 2.28-1.44 3.71-1.44z" class="cls-3"/><path d="M560.19 74.3v84.47H535.4l-72.89.07c-.62 0-1.21-.15-1.73-.41a3.84 3.84 0 0 1-2.09-3.42V78.2c0-1.1.46-2.09 1.2-2.78.68-.65 1.61-1.05 2.62-1.05l52.99-.05zm0 116.77v8H535.4v.07h-92.06c.06-.27.47-2.56.7-8h5.74l65.72-.05z" class="cls-3"/><path d="M560.19 199.09v27l-24.8-.02-19.89.03-70.41.11h-.01l-6.79.01 5.04-27.05 5.75-.01h3.46l18.41-.02 64.44-.07v.02z" class="cls-3"/><path d="M551.6 203.95c-.03-.79-.68-1.42-1.47-1.42h-49.36c-.79 0-1.44.62-1.47 1.42l-.57 15.06a2.497 2.497 0 0 0 2.5 2.59h48.45c1.42 0 2.55-1.18 2.5-2.59l-.57-15.06Z" class="cls-3"/><path d="M548.57 205.66H515.5l-13.17.07a.28.28 0 0 0-.28.28v12.74c0 .16.13.28.28.28l33.07-.07h13.17c.16 0 .28-.13.28-.28v-12.74a.28.28 0 0 0-.28-.28ZM515.5 44.67h44.69v15.08h-24.8l-86.24.06-9.58.01-.19-3.99-.3-6.61-.2-4.48 10.05-.01z" class="cls-3"/><path d="M515.5 49.15h44.69v6.61h-24.8l-86.3.06-9.71.01h-.01l-.29-6.61 9.92-.01zm44.69-9.81v3.65H515.5l-66.6.07-10.1.01v-3.66l10.05-.01 66.65-.06zm-126.95-2.11h4.41v27.5h-4.41zm-6.94 240.19h-4.41l16.06-86.37h4.41zm16-86.37h-4.41l-3.21-123.46h4.4zm-3.22-123.46h-4.4l-1.43-2.86h4.4z" class="cls-3"/><path d="M437.65 37.23h-4.41L442.36 17c.11-.26.37-.44.66-.44h2.85c.51 0 .86.52.66 1l-8.89 19.68Zm34.53 206.97-.05 2.49c0 .14-.07.26-.18.35l-6.93 4.73c-.27.19-.58.29-.9.27-.33 0-.66-.13-.93-.36l-5.57-4.56c-.1-.08-.15-.2-.15-.33v-2.59z" class="cls-3"/><path d="m472.18 244.2-.05 2.49c0 .14-.07.26-.18.35l-6.93 4.73c-.27.19-.58.29-.9.27v-7.84z" class="cls-3"/><path d="m471.96 244.47-7.57 5.03c-.18.12-.42.11-.6-.02l-6.12-4.84a.516.516 0 0 1 .04-.83l7.57-4.92c.18-.12.42-.11.59.02l6.12 4.73c.28.21.26.63-.03.83Zm-10.85 6.8-.05 2.49c0 .14-.07.26-.18.35l-6.93 4.73c-.27.19-.58.29-.9.27-.33 0-.66-.13-.93-.36l-5.57-4.56c-.1-.08-.15-.2-.15-.33v-2.59z" class="cls-3"/><path d="m461.11 251.27-.05 2.49c0 .14-.07.26-.18.35l-6.93 4.73c-.27.19-.58.29-.9.27v-7.84z" class="cls-3"/><path d="m460.89 251.54-7.57 5.03c-.18.12-.42.11-.6-.02l-6.12-4.84a.516.516 0 0 1 .04-.83l7.57-4.92c.18-.12.42-.11.59.02l6.12 4.73c.28.21.26.63-.03.83Zm20.28-.27-.05 2.49c0 .14-.07.26-.18.35l-6.93 4.73c-.27.19-.58.29-.9.27-.33 0-.66-.13-.93-.36l-5.57-4.56c-.1-.08-.15-.2-.15-.33v-2.59z" class="cls-3"/><path d="m481.17 251.27-.05 2.49c0 .14-.07.26-.18.35l-6.93 4.73c-.27.19-.58.29-.9.27v-7.84z" class="cls-3"/><path d="m480.95 251.54-7.57 5.03c-.18.12-.42.11-.6-.02l-6.12-4.84a.516.516 0 0 1 .04-.83l7.57-4.92c.18-.12.42-.11.59.02l6.12 4.73c.28.21.26.63-.03.83Zm-10.82 6.87-.05 2.49c0 .14-.07.26-.18.35l-6.93 4.73c-.27.19-.58.29-.9.27-.33 0-.66-.13-.93-.36l-5.57-4.56c-.1-.08-.15-.2-.15-.33v-2.59z" class="cls-3"/><path d="m470.13 258.41-.05 2.49c0 .14-.07.26-.18.35l-6.93 4.73c-.27.19-.58.29-.9.27v-7.84z" class="cls-3"/><path d="m469.91 258.68-7.57 5.03c-.18.12-.42.11-.6-.02l-6.12-4.84a.516.516 0 0 1 .04-.83l7.57-4.92c.18-.12.42-.11.59.02l6.12 4.73c.28.21.26.63-.03.83Zm28.48 6.69a2.37 2.37 0 0 0 2.37 2.45l34.63-.04v-13.76c.17-.32.32-.65.43-.99.19-.56.28-1.15.28-1.75 0-.97-.25-1.89-.71-2.74v-9.85l-33.72.07c-.15 0-.29.01-.43.04-.5.09-.95.32-1.29.67-.44.42-.71 1.01-.73 1.67z" class="cls-3"/><path d="M551.69 241.15a2.454 2.454 0 0 0-2.02-2.34l-.08.12-1.33.54-1.84.75-4.44 1.81-9.25 3.78-3.95 1.62-.08.03-3.25 1.33-3.25-1.33-.08-.03-3.95-1.62-9.25-3.78-4.44-1.81-1.84-.75-1.33-.54-.08-.12c-.5.09-.95.32-1.29.67-.44.42-.71 1.01-.73 1.67l-.83 24.23a2.37 2.37 0 0 0 2.37 2.45l34.63-.02 14.76.02c1.34 0 2.42-1.11 2.37-2.45l-.83-24.23Z" class="cls-3"/><path d="M550.12 239.41c0-.3-.25-.54-.55-.54H515.5l-14.18.07c-.3 0-.55.24-.55.54l-.4 24.1c0 .59.47 1.08 1.06 1.08l33.95-.05 14.09-.02c.59 0 1.07-.48 1.06-1.08l-.4-24.09Z" class="cls-3"/><path d="M514.91 251.29c0 4.18 4.75 7.57 10.6 7.57 4.5 0 8.35-2 9.89-4.83.17-.32.32-.65.43-.99.19-.56.28-1.15.28-1.75 0-.97-.25-1.89-.71-2.74-1.12-2.05-3.45-3.67-6.37-4.4-1.1-.28-2.28-.43-3.52-.43s-2.34.14-3.41.4c-1.48.36-2.82.95-3.92 1.7-2.01 1.38-3.27 3.32-3.27 5.46Z" class="cls-3"/><path d="M547.64 242.86a3.01 3.01 0 0 0-3-2.93h-38.98a3.01 3.01 0 0 0-3 2.75l-.36 17.46a2.993 2.993 0 0 0 2.98 3.27l10.22.04 19.89.07 9.7.04c1.69 0 3.05-1.4 3.01-3.09l-.47-17.61Zm-1.01 19.18c-.4.42-.95.65-1.54.65l-9.7-.04-19.89-.07-10.22-.04a2.13 2.13 0 0 1-2.12-2.32v-.06l.37-17.43c.11-1.1 1.02-1.93 2.13-1.93h38.98c.11 0 .21.01.31.03h.01c1.01.15 1.78 1 1.81 2.05l.47 17.61c.01.58-.2 1.13-.61 1.55Z" class="cls-3"/><path d="M542.7 244.22c-.02-.85-.43-1.6-1.03-2.05a2.2 2.2 0 0 0-1.31-.43s-30.36-.01-30.36-.01c-.4 0-.77.11-1.1.3-.69.39-1.17 1.14-1.24 2.03l-.32 14.8c-.12 1.49.96 2.77 2.33 2.78l5.83.02 19.89.08 5.32.02h.01c1.32 0 2.38-1.18 2.35-2.62zm-.88 16.34c-.3.32-.69.49-1.1.49l-5.33-.02-19.89-.09-5.83-.02c-.42 0-.83-.18-1.13-.51-.36-.39-.54-.93-.49-1.49v-.04l.32-14.78c.08-.9.75-1.62 1.55-1.65h.01s.04-.01.06-.01h30.37c.16 0 .31.03.45.08.66.22 1.16.91 1.18 1.71l.37 14.92c.01.54-.19 1.06-.54 1.41Z" class="cls-3"/><path d="M532.16 251.3c0 2.52-2.9 4.56-6.46 4.56s-6.46-2.04-6.46-4.56 2.9-4.56 6.46-4.56 6.46 2.04 6.46 4.56Z" class="cls-3"/><path d="m529.45 229.14-.23 22.19c-.57 1.04-1.94 1.65-3.33 1.69s-2.81-.49-3.49-1.76l-.07-22.17 3.56.02 3.56.02Z" class="cls-3"/><path d="M525.89 229.12v23.9c-1.39.04-2.81-.49-3.49-1.76l-.07-22.17 3.56.02Z" class="cls-3"/><ellipse cx="525.89" cy="229.13" class="cls-3" rx="2.4" ry="3.56" transform="rotate(-87.65 525.89 229.128)"/><path d="M35.92 51.93c2.73 0 5.26.51 7.61 1.53s4.39 2.4 6.14 4.15q2.61 2.625 4.14 6.15c1.01 2.35 1.52 4.86 1.52 7.53v45.29H42.46V98.37H27.11v18.21H14.24V71.29c0-2.67.51-5.18 1.52-7.53s2.38-4.4 4.09-6.15 3.74-3.13 6.09-4.15 4.85-1.53 7.52-1.53h2.47Zm-2.37 12.96q-2.565 0-4.5 1.86c-1.3 1.24-1.94 2.75-1.94 4.53v14.97h15.35V71.28c0-1.78-.62-3.29-1.85-4.53s-2.76-1.86-4.59-1.86h-2.46Zm74.6 38.62v13.06H95.28v-13.06c0-1.84-.62-3.38-1.87-4.62q-1.875-1.86-4.65-1.86H78.31v19.54H65.44V51.93H88.7c2.67 0 5.2.51 7.58 1.53s4.45 2.4 6.2 4.15 3.13 3.81 4.15 6.2c1.02 2.38 1.53 4.91 1.53 7.58v6.2q0 3.63-1.29 6.96c-.86 2.23-2.08 4.23-3.67 6.01 1.59 1.78 2.81 3.78 3.67 6.01q1.29 3.345 1.29 6.96ZM95.28 77.58v-6.2c0-1.84-.62-3.38-1.87-4.62q-1.875-1.86-4.65-1.86H78.31v19.16h10.45q2.775 0 4.65-1.86c1.25-1.24 1.87-2.78 1.87-4.62Zm57.01-12.69h-15.25q-2.76 0-4.62 1.86c-1.86 1.86-1.86 2.75-1.86 4.53v25.93q0 2.67 1.86 4.53t4.62 1.86h15.16v12.97h-15.16q-4.005 0-7.56-1.53c-2.37-1.02-4.43-2.4-6.16-4.15-1.74-1.75-3.11-3.8-4.12-6.15s-1.51-4.86-1.51-7.53V71.28c0-2.67.5-5.18 1.51-7.53s2.38-4.4 4.12-6.15c1.73-1.75 3.79-3.13 6.16-4.15q3.555-1.53 7.56-1.53h15.25zm31.03-12.96c2.73 0 5.26.51 7.61 1.53s4.39 2.4 6.14 4.15q2.61 2.625 4.14 6.15c1.01 2.35 1.52 4.86 1.52 7.53v45.29h-12.87V98.37h-15.35v18.21h-12.87V71.29c0-2.67.51-5.18 1.52-7.53s2.38-4.4 4.09-6.15 3.74-3.13 6.09-4.15 4.85-1.53 7.52-1.53h2.47Zm-2.37 12.96q-2.565 0-4.5 1.86c-1.3 1.24-1.94 2.75-1.94 4.53v14.97h15.35V71.28c0-1.78-.62-3.29-1.85-4.53s-2.76-1.86-4.59-1.86h-2.46Zm73.16 8.59v21.55c0 2.99-.56 5.79-1.67 8.39a21.56 21.56 0 0 1-11.46 11.48c-2.6 1.11-5.39 1.67-8.37 1.67h-20.07V51.93h20.07c2.98 0 5.77.56 8.37 1.67s4.88 2.65 6.85 4.62 3.5 4.26 4.61 6.86c1.11 2.61 1.67 5.4 1.67 8.39Zm-21.45-8.59h-7.25v38.71h7.25c2.41 0 4.45-.83 6.1-2.48s2.48-3.69 2.48-6.1V73.47c0-2.42-.83-4.45-2.48-6.1s-3.69-2.48-6.1-2.48Zm68.27 51.68h-37.57V52.02h37.57v12.97h-24.69v12.87h18.5v12.97h-18.5v12.78h24.69v12.97Z" style="stroke-linejoin:round;fill:none;stroke-width:5.25px;stroke:red"/><path d="M35.92 51.93c2.73 0 5.26.51 7.61 1.53s4.39 2.4 6.14 4.15q2.61 2.625 4.14 6.15c1.01 2.35 1.52 4.86 1.52 7.53v45.29H42.46V98.37H27.11v18.21H14.24V71.29c0-2.67.51-5.18 1.52-7.53s2.38-4.4 4.09-6.15 3.74-3.13 6.09-4.15 4.85-1.53 7.52-1.53h2.47Zm-2.37 12.96q-2.565 0-4.5 1.86c-1.3 1.24-1.94 2.75-1.94 4.53v14.97h15.35V71.28c0-1.78-.62-3.29-1.85-4.53s-2.76-1.86-4.59-1.86h-2.46Zm74.6 38.62v13.06H95.28v-13.06c0-1.84-.62-3.38-1.87-4.62q-1.875-1.86-4.65-1.86H78.31v19.54H65.44V51.93H88.7c2.67 0 5.2.51 7.58 1.53s4.45 2.4 6.2 4.15 3.13 3.81 4.15 6.2c1.02 2.38 1.53 4.91 1.53 7.58v6.2q0 3.63-1.29 6.96c-.86 2.23-2.08 4.23-3.67 6.01 1.59 1.78 2.81 3.78 3.67 6.01q1.29 3.345 1.29 6.96ZM95.28 77.58v-6.2c0-1.84-.62-3.38-1.87-4.62q-1.875-1.86-4.65-1.86H78.31v19.16h10.45q2.775 0 4.65-1.86c1.25-1.24 1.87-2.78 1.87-4.62Zm57.01-12.69h-15.25q-2.76 0-4.62 1.86c-1.86 1.86-1.86 2.75-1.86 4.53v25.93q0 2.67 1.86 4.53t4.62 1.86h15.16v12.97h-15.16q-4.005 0-7.56-1.53c-2.37-1.02-4.43-2.4-6.16-4.15-1.74-1.75-3.11-3.8-4.12-6.15s-1.51-4.86-1.51-7.53V71.28c0-2.67.5-5.18 1.51-7.53s2.38-4.4 4.12-6.15c1.73-1.75 3.79-3.13 6.16-4.15q3.555-1.53 7.56-1.53h15.25zm31.03-12.96c2.73 0 5.26.51 7.61 1.53s4.39 2.4 6.14 4.15q2.61 2.625 4.14 6.15c1.01 2.35 1.52 4.86 1.52 7.53v45.29h-12.87V98.37h-15.35v18.21h-12.87V71.29c0-2.67.51-5.18 1.52-7.53s2.38-4.4 4.09-6.15 3.74-3.13 6.09-4.15 4.85-1.53 7.52-1.53h2.47Zm-2.37 12.96q-2.565 0-4.5 1.86c-1.3 1.24-1.94 2.75-1.94 4.53v14.97h15.35V71.28c0-1.78-.62-3.29-1.85-4.53s-2.76-1.86-4.59-1.86h-2.46Zm73.16 8.59v21.55c0 2.99-.56 5.79-1.67 8.39a21.56 21.56 0 0 1-11.46 11.48c-2.6 1.11-5.39 1.67-8.37 1.67h-20.07V51.93h20.07c2.98 0 5.77.56 8.37 1.67s4.88 2.65 6.85 4.62 3.5 4.26 4.61 6.86c1.11 2.61 1.67 5.4 1.67 8.39Zm-21.45-8.59h-7.25v38.71h7.25c2.41 0 4.45-.83 6.1-2.48s2.48-3.69 2.48-6.1V73.47c0-2.42-.83-4.45-2.48-6.1s-3.69-2.48-6.1-2.48Zm68.27 51.68h-37.57V52.02h37.57v12.97h-24.69v12.87h18.5v12.97h-18.5v12.78h24.69v12.97Z" style="stroke-linejoin:round;fill:none;stroke-width:2.1px;stroke:#ff9494"/><path d="M42.31.03v10.01h-10.1V.03h-5.25v12.64c0 1.45 1.17 2.63 2.62 2.63h15.35c1.45 0 2.63-1.18 2.63-2.63V.03zm0 0v10.01h-10.1V.03h-5.25v12.64c0 1.45 1.17 2.63 2.62 2.63h15.35c1.45 0 2.63-1.18 2.63-2.63V.03zm12.87 0v40.33h-7.62V24.78c0-1.45-1.18-2.63-2.63-2.63H29.58c-1.45 0-2.62 1.18-2.62 2.63v15.58h-7.62V.03h-5.26v42.96c0 1.45 1.18 2.63 2.63 2.63h12.87c1.46 0 2.63-1.18 2.63-2.63V27.41h10.1v15.58c0 1.45 1.17 2.63 2.62 2.63H57.8c1.46 0 2.63-1.18 2.63-2.63V.03zm-12.87 0v10.01h-10.1V.03h-5.25v12.64c0 1.45 1.17 2.63 2.62 2.63h15.35c1.45 0 2.63-1.18 2.63-2.63V.03zm52.82 0v3.96c0 1.14-.35 2.02-1.1 2.76-.75.75-1.64 1.1-2.8 1.1h-7.82V.03h-5.26v10.45c0 1.45 1.18 2.62 2.63 2.62h10.45c2.57 0 4.75-.88 6.51-2.62 1.75-1.74 2.64-3.93 2.64-6.49V.03zm0 0v3.96c0 1.14-.35 2.02-1.1 2.76-.75.75-1.64 1.1-2.8 1.1h-7.82V.03h-5.26v10.45c0 1.45 1.18 2.62 2.63 2.62h10.45c2.57 0 4.75-.88 6.51-2.62 1.75-1.74 2.64-3.93 2.64-6.49V.03zm18.12 3.96V.03H108v3.96c0 2.08-.38 4.11-1.11 6.02a17 17 0 0 1-3.18 5.2c-.89 1-.89 2.5 0 3.5a17.1 17.1 0 0 1 3.18 5.2c.73 1.91 1.11 3.94 1.11 6.02v10.43h-7.62V29.93c0-2.56-.89-4.74-2.65-6.49-1.75-1.74-3.93-2.62-6.5-2.62H80.78c-1.45 0-2.63 1.17-2.63 2.62v16.92h-7.61V.03h-5.26v42.96c0 1.45 1.18 2.63 2.63 2.63h12.87c1.45 0 2.63-1.18 2.63-2.63V26.07h7.82c1.16 0 2.05.35 2.8 1.1.75.74 1.1 1.62 1.1 2.76v13.06c0 1.45 1.17 2.63 2.62 2.63h12.87c1.46 0 2.63-1.18 2.63-2.63V29.93c0-2.73-.49-5.39-1.46-7.91-.7-1.81-1.62-3.5-2.75-5.06 1.13-1.56 2.05-3.25 2.75-5.06.97-2.52 1.46-5.18 1.46-7.91M95.13.03v3.96c0 1.14-.35 2.02-1.1 2.76-.75.75-1.64 1.1-2.8 1.1h-7.82V.03h-5.26v10.45c0 1.45 1.18 2.62 2.63 2.62h10.45c2.57 0 4.75-.88 6.51-2.62 1.75-1.74 2.64-3.93 2.64-6.49V.03zm59.54 27.37h-15.16c-1.14 0-2.02-.35-2.76-1.09s-1.09-1.6-1.09-2.68V.03h-5.26v23.6c0 2.5.89 4.65 2.63 6.39s3.92 2.63 6.48 2.63h12.53v7.71h-12.53c-2.3 0-4.5-.44-6.53-1.31-2.05-.88-3.84-2.08-5.33-3.59-1.49-1.5-2.69-3.29-3.57-5.33-.86-2.01-1.3-4.19-1.3-6.5V.03h-5.25v23.6c0 3.02.58 5.91 1.73 8.57 1.13 2.65 2.7 4.99 4.66 6.97 1.97 1.98 4.32 3.56 6.99 4.71 2.69 1.15 5.58 1.74 8.6 1.74h15.16c1.45 0 2.63-1.18 2.63-2.63V30.02c0-1.45-1.18-2.62-2.63-2.62M189.7.03v10.01h-10.09V.03h-5.26v12.64c0 1.45 1.18 2.63 2.63 2.63h15.35c1.45 0 2.63-1.18 2.63-2.63V.03zm0 0v10.01h-10.09V.03h-5.26v12.64c0 1.45 1.18 2.63 2.63 2.63h15.35c1.45 0 2.63-1.18 2.63-2.63V.03zm12.88 0v40.33h-7.62V24.78c0-1.45-1.18-2.63-2.63-2.63h-15.35c-1.45 0-2.63 1.18-2.63 2.63v15.58h-7.61V.03h-5.26v42.96c0 1.45 1.18 2.63 2.63 2.63h12.87c1.45 0 2.63-1.18 2.63-2.63V27.41h10.09v15.58c0 1.45 1.18 2.63 2.63 2.63h12.87c1.45 0 2.63-1.18 2.63-2.63V.03zm-12.88 0v10.01h-10.09V.03h-5.26v12.64c0 1.45 1.18 2.63 2.63 2.63h15.35c1.45 0 2.63-1.18 2.63-2.63V.03zm51.39 0v21.41c0 1.73-.54 3.08-1.71 4.25-1.16 1.16-2.51 1.71-4.24 1.71h-4.62V.03h-5.25v29.99c0 1.45 1.17 2.63 2.62 2.63h7.25c3.12 0 5.8-1.09 7.96-3.25 2.15-2.15 3.25-4.83 3.25-7.96V.03zm0 0v21.41c0 1.73-.54 3.08-1.71 4.25-1.16 1.16-2.51 1.71-4.24 1.71h-4.62V.03h-5.25v29.99c0 1.45 1.17 2.63 2.62 2.63h7.25c3.12 0 5.8-1.09 7.96-3.25 2.15-2.15 3.25-4.83 3.25-7.96V.03zm12.87 0v21.41c0 2.62-.49 5.1-1.45 7.36a19 19 0 0 1-4.06 6.04 19.2 19.2 0 0 1-6.02 4.07c-2.26.96-4.73 1.45-7.34 1.45h-17.44V.03h-5.26v42.96c0 1.45 1.18 2.63 2.63 2.63h20.07c3.33 0 6.49-.64 9.41-1.88a24.3 24.3 0 0 0 7.67-5.19c2.2-2.2 3.94-4.78 5.17-7.69 1.25-2.92 1.88-6.09 1.88-9.42V.03zm-12.87 0v21.41c0 1.73-.54 3.08-1.71 4.25-1.16 1.16-2.51 1.71-4.24 1.71h-4.62V.03h-5.25v29.99c0 1.45 1.17 2.63 2.62 2.63h7.25c3.12 0 5.8-1.09 7.96-3.25 2.15-2.15 3.25-4.83 3.25-7.96V.03zM303.4 27.4h-22.06v-7.53h15.87c1.45 0 2.62-1.17 2.62-2.62V4.28c0-1.45-1.17-2.63-2.62-2.63h-15.87V.03h-5.26v4.25c0 1.45 1.18 2.63 2.63 2.63h15.87v7.71h-15.87c-1.45 0-2.63 1.18-2.63 2.63v12.77c0 1.45 1.18 2.63 2.63 2.63h22.07v7.71h-32.32V.03h-5.25v42.96c0 1.45 1.18 2.63 2.63 2.63h37.56c1.45 0 2.63-1.18 2.63-2.63V30.02c0-1.45-1.18-2.62-2.63-2.62" class="cls-1"/><path d="M43.88.03v11.59H30.63V.03h-2.1v12.64c0 .58.47 1.05 1.05 1.05h15.35c.58 0 1.05-.47 1.05-1.05V.03zm0 0v11.59H30.63V.03h-2.1v12.64c0 .58.47 1.05 1.05 1.05h15.35c.58 0 1.05-.47 1.05-1.05V.03zm12.87 0v41.91H45.98V24.78c0-.58-.47-1.05-1.05-1.05H29.58c-.58 0-1.05.47-1.05 1.05v17.16H17.76V.03h-2.1v42.96c0 .58.47 1.05 1.05 1.05h12.87c.58 0 1.05-.47 1.05-1.05V25.83h13.25v17.16c0 .58.47 1.05 1.05 1.05H57.8c.58 0 1.06-.47 1.06-1.05V.03zm-12.87 0v11.59H30.63V.03h-2.1v12.64c0 .58.47 1.05 1.05 1.05h15.35c.58 0 1.05-.47 1.05-1.05V.03zm52.82 0v3.96c0 1.57-.51 2.84-1.56 3.88-1.05 1.05-2.33 1.56-3.91 1.56h-9.4V.03h-2.1v10.45c0 .58.47 1.05 1.05 1.05h10.45c2.13 0 3.95-.73 5.39-2.17 1.45-1.44 2.18-3.24 2.18-5.37V.03zm0 0v3.96c0 1.57-.51 2.84-1.56 3.88-1.05 1.05-2.33 1.56-3.91 1.56h-9.4V.03h-2.1v10.45c0 .58.47 1.05 1.05 1.05h10.45c2.13 0 3.95-.73 5.39-2.17 1.45-1.44 2.18-3.24 2.18-5.37V.03zm14.97 3.96V.03h-2.1v3.96c0 2.28-.41 4.49-1.21 6.59-.81 2.09-1.98 4-3.48 5.68-.35.4-.35 1 0 1.4a18.6 18.6 0 0 1 3.48 5.68c.8 2.1 1.21 4.31 1.21 6.59v12.01H98.8V29.93c0-2.13-.73-3.93-2.18-5.37-1.44-1.44-3.25-2.17-5.39-2.17H80.78c-.58 0-1.05.47-1.05 1.05v18.5H68.96V.03h-2.1v42.96c0 .58.47 1.05 1.05 1.05h12.87c.58 0 1.05-.47 1.05-1.05V24.5h9.4c1.58 0 2.86.5 3.91 1.55 1.05 1.04 1.56 2.31 1.56 3.88v13.06c0 .58.47 1.05 1.05 1.05h12.87c.58 0 1.05-.47 1.05-1.05V29.93c0-2.54-.45-5.01-1.35-7.34-.79-2.05-1.89-3.93-3.27-5.63 1.38-1.69 2.48-3.58 3.27-5.63.9-2.33 1.35-4.8 1.35-7.34M96.7.03v3.96c0 1.57-.51 2.84-1.56 3.88-1.05 1.05-2.33 1.56-3.91 1.56h-9.4V.03h-2.1v10.45c0 .58.47 1.05 1.05 1.05h10.45c2.13 0 3.95-.73 5.39-2.17 1.45-1.44 2.18-3.24 2.18-5.37V.03zm57.97 28.94h-15.16c-1.57 0-2.84-.51-3.88-1.55s-1.55-2.28-1.55-3.79V.03h-2.1v23.6c0 2.06.73 3.84 2.16 5.28 1.44 1.43 3.25 2.16 5.37 2.16h14.11v10.87h-14.11c-2.51 0-4.92-.49-7.15-1.44-2.24-.96-4.2-2.28-5.83-3.92-1.63-1.65-2.94-3.61-3.89-5.83-.95-2.2-1.43-4.6-1.43-7.12V.03h-2.1v23.6c0 2.81.53 5.48 1.6 7.95 1.05 2.47 2.51 4.65 4.33 6.48s4.01 3.3 6.49 4.37c2.5 1.07 5.18 1.61 7.98 1.61h15.16c.58 0 1.05-.47 1.05-1.05V30.02c0-.58-.47-1.05-1.05-1.05M191.28.03v11.59h-13.25V.03h-2.1v12.64c0 .58.47 1.05 1.05 1.05h15.35c.58 0 1.05-.47 1.05-1.05V.03zm0 0v11.59h-13.25V.03h-2.1v12.64c0 .58.47 1.05 1.05 1.05h15.35c.58 0 1.05-.47 1.05-1.05V.03zm12.87 0v41.91h-10.77V24.78c0-.58-.47-1.05-1.05-1.05h-15.35c-.58 0-1.05.47-1.05 1.05v17.16h-10.77V.03h-2.1v42.96c0 .58.47 1.05 1.05 1.05h12.87c.58 0 1.05-.47 1.05-1.05V25.83h13.25v17.16c0 .58.47 1.05 1.05 1.05h12.87c.58 0 1.05-.47 1.05-1.05V.03zm-12.87 0v11.59h-13.25V.03h-2.1v12.64c0 .58.47 1.05 1.05 1.05h15.35c.58 0 1.05-.47 1.05-1.05V.03zm51.39 0v21.41c0 2.15-.71 3.9-2.17 5.36s-3.22 2.17-5.36 2.17h-6.2V.03h-2.1v29.99c0 .58.47 1.05 1.05 1.05h7.25c2.69 0 4.99-.93 6.84-2.78s2.79-4.16 2.79-6.85V.03zm0 0v21.41c0 2.15-.71 3.9-2.17 5.36s-3.22 2.17-5.36 2.17h-6.2V.03h-2.1v29.99c0 .58.47 1.05 1.05 1.05h7.25c2.69 0 4.99-.93 6.84-2.78s2.79-4.16 2.79-6.85V.03zm12.87 0v21.41c0 2.83-.53 5.52-1.58 7.98a20.6 20.6 0 0 1-4.39 6.53 20.5 20.5 0 0 1-6.52 4.4c-2.46 1.06-5.13 1.59-7.96 1.59h-19.02V.03h-2.1v42.96c0 .58.47 1.05 1.05 1.05h20.07c3.11 0 6.07-.59 8.79-1.75 2.71-1.16 5.12-2.79 7.17-4.85 2.06-2.06 3.69-4.48 4.84-7.2 1.16-2.72 1.75-5.68 1.75-8.8V.03zm-12.87 0v21.41c0 2.15-.71 3.9-2.17 5.36s-3.22 2.17-5.36 2.17h-6.2V.03h-2.1v29.99c0 .58.47 1.05 1.05 1.05h7.25c2.69 0 4.99-.93 6.84-2.78s2.79-4.16 2.79-6.85V.03zm60.73 28.94h-23.64V18.3h17.45c.58 0 1.05-.47 1.05-1.05V4.28c0-.58-.47-1.05-1.05-1.05h-17.45V.03h-2.1v4.25c0 .58.47 1.05 1.05 1.05h17.45V16.2h-17.45c-.58 0-1.05.47-1.05 1.05v12.77c0 .58.47 1.05 1.05 1.05h23.64v10.87h-35.46V.03h-2.1v42.96c0 .58.47 1.05 1.05 1.05h37.56c.58 0 1.05-.47 1.05-1.05V30.02c0-.58-.47-1.05-1.05-1.05" class="cls-1"/><path d="M38.4 125.41c2.73 0 5.26.51 7.61 1.53s4.39 2.4 6.14 4.15q2.61 2.625 4.14 6.15c1.01 2.35 1.52 4.86 1.52 7.53v45.29H44.94v-18.21H29.59v18.21H16.72v-45.29c0-2.67.51-5.18 1.52-7.53s2.38-4.4 4.09-6.15 3.74-3.13 6.09-4.15 4.85-1.53 7.52-1.53h2.47Zm-2.37 12.97q-2.565 0-4.5 1.86c-1.3 1.24-1.94 2.75-1.94 4.53v14.97h15.35v-14.97c0-1.78-.62-3.29-1.85-4.53s-2.76-1.86-4.59-1.86h-2.46Zm74.59 38.61v13.06H97.75v-13.06c0-1.84-.62-3.38-1.87-4.62q-1.875-1.86-4.65-1.86H80.78v19.54H67.91v-64.64h23.26c2.67 0 5.2.51 7.58 1.53s4.45 2.4 6.2 4.15 3.13 3.81 4.15 6.2c1.02 2.38 1.53 4.91 1.53 7.58v6.2q0 3.63-1.29 6.96c-.86 2.23-2.08 4.23-3.67 6.01 1.59 1.78 2.81 3.78 3.67 6.01q1.29 3.345 1.29 6.96Zm-12.87-25.93v-6.2c0-1.84-.62-3.38-1.87-4.62q-1.875-1.86-4.65-1.86H80.78v19.16h10.45q2.775 0 4.65-1.86c1.25-1.24 1.87-2.78 1.87-4.62Zm57.02-12.68h-15.25q-2.76 0-4.62 1.86c-1.86 1.86-1.86 2.75-1.86 4.53v25.93q0 2.67 1.86 4.53t4.62 1.86h15.16v12.97h-15.16q-4.005 0-7.56-1.53c-2.37-1.02-4.43-2.4-6.16-4.15-1.74-1.75-3.11-3.8-4.12-6.15s-1.51-4.86-1.51-7.53v-25.93c0-2.67.5-5.18 1.51-7.53s2.38-4.4 4.12-6.15c1.73-1.75 3.79-3.13 6.16-4.15q3.555-1.53 7.56-1.53h15.25zm31.03-12.97c2.73 0 5.26.51 7.61 1.53s4.39 2.4 6.14 4.15q2.61 2.625 4.14 6.15c1.01 2.35 1.52 4.86 1.52 7.53v45.29h-12.87v-18.21h-15.35v18.21h-12.87v-45.29c0-2.67.51-5.18 1.52-7.53s2.38-4.4 4.09-6.15 3.74-3.13 6.09-4.15 4.85-1.53 7.52-1.53h2.47Zm-2.38 12.97q-2.565 0-4.5 1.86c-1.3 1.24-1.94 2.75-1.94 4.53v14.97h15.35v-14.97c0-1.78-.62-3.29-1.85-4.53s-2.76-1.86-4.59-1.86h-2.46Zm73.17 8.58v21.55c0 2.99-.56 5.79-1.67 8.39a21.56 21.56 0 0 1-11.46 11.48c-2.6 1.11-5.39 1.67-8.37 1.67h-20.07v-64.64h20.07c2.98 0 5.77.56 8.37 1.67s4.88 2.65 6.85 4.62 3.5 4.26 4.61 6.86c1.11 2.61 1.67 5.4 1.67 8.39Zm-21.45-8.58h-7.25v38.71h7.25c2.41 0 4.45-.83 6.1-2.48s2.48-3.69 2.48-6.1v-21.55c0-2.42-.83-4.45-2.48-6.1s-3.69-2.48-6.1-2.48Zm68.26 51.67h-37.57V125.5h37.57v12.97h-24.69v12.87h18.5v12.97h-18.5v12.78h24.69v12.97Z" class="cls-2"/><path d="M38.4 125.41c2.73 0 5.26.51 7.61 1.53s4.39 2.4 6.14 4.15q2.61 2.625 4.14 6.15c1.01 2.35 1.52 4.86 1.52 7.53v45.29H44.94v-18.21H29.59v18.21H16.72v-45.29c0-2.67.51-5.18 1.52-7.53s2.38-4.4 4.09-6.15 3.74-3.13 6.09-4.15 4.85-1.53 7.52-1.53h2.47Zm-2.37 12.97q-2.565 0-4.5 1.86c-1.3 1.24-1.94 2.75-1.94 4.53v14.97h15.35v-14.97c0-1.78-.62-3.29-1.85-4.53s-2.76-1.86-4.59-1.86h-2.46Zm74.59 38.61v13.06H97.75v-13.06c0-1.84-.62-3.38-1.87-4.62q-1.875-1.86-4.65-1.86H80.78v19.54H67.91v-64.64h23.26c2.67 0 5.2.51 7.58 1.53s4.45 2.4 6.2 4.15 3.13 3.81 4.15 6.2c1.02 2.38 1.53 4.91 1.53 7.58v6.2q0 3.63-1.29 6.96c-.86 2.23-2.08 4.23-3.67 6.01 1.59 1.78 2.81 3.78 3.67 6.01q1.29 3.345 1.29 6.96Zm-12.87-25.93v-6.2c0-1.84-.62-3.38-1.87-4.62q-1.875-1.86-4.65-1.86H80.78v19.16h10.45q2.775 0 4.65-1.86c1.25-1.24 1.87-2.78 1.87-4.62Zm57.02-12.68h-15.25q-2.76 0-4.62 1.86c-1.86 1.86-1.86 2.75-1.86 4.53v25.93q0 2.67 1.86 4.53t4.62 1.86h15.16v12.97h-15.16q-4.005 0-7.56-1.53c-2.37-1.02-4.43-2.4-6.16-4.15-1.74-1.75-3.11-3.8-4.12-6.15s-1.51-4.86-1.51-7.53v-25.93c0-2.67.5-5.18 1.51-7.53s2.38-4.4 4.12-6.15c1.73-1.75 3.79-3.13 6.16-4.15q3.555-1.53 7.56-1.53h15.25zm31.03-12.97c2.73 0 5.26.51 7.61 1.53s4.39 2.4 6.14 4.15q2.61 2.625 4.14 6.15c1.01 2.35 1.52 4.86 1.52 7.53v45.29h-12.87v-18.21h-15.35v18.21h-12.87v-45.29c0-2.67.51-5.18 1.52-7.53s2.38-4.4 4.09-6.15 3.74-3.13 6.09-4.15 4.85-1.53 7.52-1.53h2.47Zm-2.38 12.97q-2.565 0-4.5 1.86c-1.3 1.24-1.94 2.75-1.94 4.53v14.97h15.35v-14.97c0-1.78-.62-3.29-1.85-4.53s-2.76-1.86-4.59-1.86h-2.46Zm73.17 8.58v21.55c0 2.99-.56 5.79-1.67 8.39a21.56 21.56 0 0 1-11.46 11.48c-2.6 1.11-5.39 1.67-8.37 1.67h-20.07v-64.64h20.07c2.98 0 5.77.56 8.37 1.67s4.88 2.65 6.85 4.62 3.5 4.26 4.61 6.86c1.11 2.61 1.67 5.4 1.67 8.39Zm-21.45-8.58h-7.25v38.71h7.25c2.41 0 4.45-.83 6.1-2.48s2.48-3.69 2.48-6.1v-21.55c0-2.42-.83-4.45-2.48-6.1s-3.69-2.48-6.1-2.48Zm68.26 51.67h-37.57V125.5h37.57v12.97h-24.69v12.87h18.5v12.97h-18.5v12.78h24.69v12.97Z" class="cls-4"/><path d="M38.4 199.16c2.73 0 5.26.51 7.61 1.53s4.39 2.4 6.14 4.15q2.61 2.625 4.14 6.15c1.01 2.35 1.52 4.86 1.52 7.53v45.29H44.94V245.6H29.59v18.21H16.72v-45.29c0-2.67.51-5.18 1.52-7.53s2.38-4.4 4.09-6.15 3.74-3.13 6.09-4.15 4.85-1.53 7.52-1.53h2.47Zm-2.37 12.97q-2.565 0-4.5 1.86c-1.3 1.24-1.94 2.75-1.94 4.53v14.97h15.35v-14.97c0-1.78-.62-3.29-1.85-4.53s-2.76-1.86-4.59-1.86h-2.46Zm74.59 38.61v13.06H97.75v-13.06c0-1.84-.62-3.38-1.87-4.62q-1.875-1.86-4.65-1.86H80.78v19.54H67.91v-64.64h23.26c2.67 0 5.2.51 7.58 1.53s4.45 2.4 6.2 4.15 3.13 3.81 4.15 6.2c1.02 2.38 1.53 4.91 1.53 7.58v6.2q0 3.63-1.29 6.96c-.86 2.23-2.08 4.23-3.67 6.01 1.59 1.78 2.81 3.78 3.67 6.01q1.29 3.345 1.29 6.96Zm-12.87-25.93v-6.2c0-1.84-.62-3.38-1.87-4.62q-1.875-1.86-4.65-1.86H80.78v19.16h10.45q2.775 0 4.65-1.86c1.25-1.24 1.87-2.78 1.87-4.62Zm57.02-12.68h-15.25q-2.76 0-4.62 1.86c-1.86 1.86-1.86 2.75-1.86 4.53v25.93q0 2.67 1.86 4.53t4.62 1.86h15.16v12.97h-15.16q-4.005 0-7.56-1.53c-2.37-1.02-4.43-2.4-6.16-4.15-1.74-1.75-3.11-3.8-4.12-6.15s-1.51-4.86-1.51-7.53v-25.93c0-2.67.5-5.18 1.51-7.53s2.38-4.4 4.12-6.15c1.73-1.75 3.79-3.13 6.16-4.15q3.555-1.53 7.56-1.53h15.25zm31.03-12.97c2.73 0 5.26.51 7.61 1.53s4.39 2.4 6.14 4.15q2.61 2.625 4.14 6.15c1.01 2.35 1.52 4.86 1.52 7.53v45.29h-12.87V245.6h-15.35v18.21h-12.87v-45.29c0-2.67.51-5.18 1.52-7.53s2.38-4.4 4.09-6.15 3.74-3.13 6.09-4.15 4.85-1.53 7.52-1.53h2.47Zm-2.38 12.97q-2.565 0-4.5 1.86c-1.3 1.24-1.94 2.75-1.94 4.53v14.97h15.35v-14.97c0-1.78-.62-3.29-1.85-4.53s-2.76-1.86-4.59-1.86h-2.46Zm73.17 8.58v21.55c0 2.99-.56 5.79-1.67 8.39a21.56 21.56 0 0 1-11.46 11.48c-2.6 1.11-5.39 1.67-8.37 1.67h-20.07v-64.64h20.07c2.98 0 5.77.56 8.37 1.67s4.88 2.65 6.85 4.62 3.5 4.26 4.61 6.86c1.11 2.61 1.67 5.4 1.67 8.39Zm-21.45-8.58h-7.25v38.71h7.25c2.41 0 4.45-.83 6.1-2.48s2.48-3.69 2.48-6.1v-21.55c0-2.42-.83-4.45-2.48-6.1s-3.69-2.48-6.1-2.48Zm68.26 51.67h-37.57v-64.55h37.57v12.97h-24.69v12.87h18.5v12.97h-18.5v12.78h24.69v12.97Z" class="cls-2"/><path d="M38.4 199.16c2.73 0 5.26.51 7.61 1.53s4.39 2.4 6.14 4.15q2.61 2.625 4.14 6.15c1.01 2.35 1.52 4.86 1.52 7.53v45.29H44.94V245.6H29.59v18.21H16.72v-45.29c0-2.67.51-5.18 1.52-7.53s2.38-4.4 4.09-6.15 3.74-3.13 6.09-4.15 4.85-1.53 7.52-1.53h2.47Zm-2.37 12.97q-2.565 0-4.5 1.86c-1.3 1.24-1.94 2.75-1.94 4.53v14.97h15.35v-14.97c0-1.78-.62-3.29-1.85-4.53s-2.76-1.86-4.59-1.86h-2.46Zm74.59 38.61v13.06H97.75v-13.06c0-1.84-.62-3.38-1.87-4.62q-1.875-1.86-4.65-1.86H80.78v19.54H67.91v-64.64h23.26c2.67 0 5.2.51 7.58 1.53s4.45 2.4 6.2 4.15 3.13 3.81 4.15 6.2c1.02 2.38 1.53 4.91 1.53 7.58v6.2q0 3.63-1.29 6.96c-.86 2.23-2.08 4.23-3.67 6.01 1.59 1.78 2.81 3.78 3.67 6.01q1.29 3.345 1.29 6.96Zm-12.87-25.93v-6.2c0-1.84-.62-3.38-1.87-4.62q-1.875-1.86-4.65-1.86H80.78v19.16h10.45q2.775 0 4.65-1.86c1.25-1.24 1.87-2.78 1.87-4.62Zm57.02-12.68h-15.25q-2.76 0-4.62 1.86c-1.86 1.86-1.86 2.75-1.86 4.53v25.93q0 2.67 1.86 4.53t4.62 1.86h15.16v12.97h-15.16q-4.005 0-7.56-1.53c-2.37-1.02-4.43-2.4-6.16-4.15-1.74-1.75-3.11-3.8-4.12-6.15s-1.51-4.86-1.51-7.53v-25.93c0-2.67.5-5.18 1.51-7.53s2.38-4.4 4.12-6.15c1.73-1.75 3.79-3.13 6.16-4.15q3.555-1.53 7.56-1.53h15.25zm31.03-12.97c2.73 0 5.26.51 7.61 1.53s4.39 2.4 6.14 4.15q2.61 2.625 4.14 6.15c1.01 2.35 1.52 4.86 1.52 7.53v45.29h-12.87V245.6h-15.35v18.21h-12.87v-45.29c0-2.67.51-5.18 1.52-7.53s2.38-4.4 4.09-6.15 3.74-3.13 6.09-4.15 4.85-1.53 7.52-1.53h2.47Zm-2.38 12.97q-2.565 0-4.5 1.86c-1.3 1.24-1.94 2.75-1.94 4.53v14.97h15.35v-14.97c0-1.78-.62-3.29-1.85-4.53s-2.76-1.86-4.59-1.86h-2.46Zm73.17 8.58v21.55c0 2.99-.56 5.79-1.67 8.39a21.56 21.56 0 0 1-11.46 11.48c-2.6 1.11-5.39 1.67-8.37 1.67h-20.07v-64.64h20.07c2.98 0 5.77.56 8.37 1.67s4.88 2.65 6.85 4.62 3.5 4.26 4.61 6.86c1.11 2.61 1.67 5.4 1.67 8.39Zm-21.45-8.58h-7.25v38.71h7.25c2.41 0 4.45-.83 6.1-2.48s2.48-3.69 2.48-6.1v-21.55c0-2.42-.83-4.45-2.48-6.1s-3.69-2.48-6.1-2.48Zm68.26 51.67h-37.57v-64.55h37.57v12.97h-24.69v12.87h18.5v12.97h-18.5v12.78h24.69v12.97Z" class="cls-4"/><path d="M44.95 285.96c-1.74-1.75-3.91-2.64-6.46-2.64h-2.46c-2.4 0-4.53.87-6.32 2.59-1.8 1.72-2.75 3.95-2.75 6.43v14.97c0 1.45 1.17 2.62 2.62 2.62h15.35c1.45 0 2.63-1.17 2.63-2.62v-14.97c0-2.49-.88-4.64-2.61-6.38m-8.92 2.62h2.46c1.13 0 2 .34 2.73 1.08.74.75 1.09 1.59 1.09 2.68v12.34h-10.1v-12.34c0-1.06.36-1.89 1.13-2.63.81-.77 1.66-1.13 2.69-1.13m8.9 28.21H29.58c-1.45 0-2.62 1.17-2.62 2.62v.62h20.6v-.62c0-1.45-1.18-2.62-2.63-2.62m13.76-33.03c-1.14-2.64-2.71-4.98-4.69-6.96a22.2 22.2 0 0 0-6.95-4.7c-2.67-1.16-5.58-1.74-8.65-1.74h-2.47c-3.01 0-5.89.58-8.56 1.74-2.65 1.15-4.98 2.73-6.92 4.72-1.93 1.97-3.49 4.31-4.63 6.94-1.15 2.68-1.74 5.56-1.74 8.58v27.69h5.26v-27.69c0-2.3.44-4.48 1.31-6.49.88-2.05 2.07-3.85 3.55-5.36a16.6 16.6 0 0 1 5.25-3.57c2.01-.87 4.19-1.31 6.48-1.31h2.47c2.35 0 4.56.44 6.56 1.31 2.03.88 3.83 2.09 5.33 3.59 1.5 1.51 2.7 3.3 3.58 5.33.87 2.02 1.31 4.2 1.31 6.5v27.69h5.25v-27.69c0-3.02-.58-5.9-1.74-8.58m-13.74 2.2c-1.74-1.75-3.91-2.64-6.46-2.64h-2.46c-2.4 0-4.53.87-6.32 2.59-1.8 1.72-2.75 3.95-2.75 6.43v14.97c0 1.45 1.17 2.62 2.62 2.62h15.35c1.45 0 2.63-1.17 2.63-2.62v-14.97c0-2.49-.88-4.64-2.61-6.38m-8.92 2.62h2.46c1.13 0 2 .34 2.73 1.08.74.75 1.09 1.59 1.09 2.68v12.34h-10.1v-12.34c0-1.06.36-1.89 1.13-2.63.81-.77 1.66-1.13 2.69-1.13m8.92-2.62c-1.74-1.75-3.91-2.64-6.46-2.64h-2.46c-2.4 0-4.53.87-6.32 2.59-1.8 1.72-2.75 3.95-2.75 6.43v14.97c0 1.45 1.17 2.62 2.62 2.62h15.35c1.45 0 2.63-1.17 2.63-2.62v-14.97c0-2.49-.88-4.64-2.61-6.38m-8.92 2.62h2.46c1.13 0 2 .34 2.73 1.08.74.75 1.09 1.59 1.09 2.68v12.34h-10.1v-12.34c0-1.06.36-1.89 1.13-2.63.81-.77 1.66-1.13 2.69-1.13m61.7 29.5c-1.75-1.75-3.93-2.63-6.5-2.63H80.78c-1.45 0-2.63 1.18-2.63 2.63v1.95h21.08q-.585-1.05-1.5-1.95m0-32.13c-1.75-1.74-3.93-2.63-6.5-2.63H80.78c-1.45 0-2.63 1.18-2.63 2.63v19.16c0 1.45 1.18 2.63 2.63 2.63h10.45c2.57 0 4.75-.88 6.51-2.62 1.75-1.75 2.64-3.93 2.64-6.49v-6.2c0-2.56-.89-4.74-2.65-6.48m-2.6 12.68c0 1.14-.35 2.02-1.1 2.76-.75.75-1.64 1.1-2.8 1.1h-7.82v-13.91h7.82c1.16 0 2.05.34 2.8 1.09s1.1 1.62 1.1 2.76zm18.12 0v-6.2c0-3.01-.58-5.9-1.74-8.61-1.14-2.68-2.72-5.04-4.7-7.02s-4.35-3.56-7.03-4.71c-2.7-1.15-5.6-1.73-8.61-1.73H67.91c-1.45 0-2.63 1.17-2.63 2.62v47.05h5.26v-44.42h20.63c2.3 0 4.51.44 6.55 1.31 2.06.88 3.87 2.09 5.37 3.59 1.51 1.51 2.71 3.31 3.59 5.37.87 2.05 1.32 4.25 1.32 6.55v6.2c0 2.08-.38 4.1-1.11 6.01-.74 1.92-1.81 3.67-3.18 5.21-.89.99-.89 2.5 0 3.5a16.85 16.85 0 0 1 3.67 6.68h5.4a22 22 0 0 0-.99-3.37c-.7-1.81-1.62-3.5-2.75-5.06 1.13-1.56 2.05-3.26 2.75-5.06.97-2.52 1.46-5.18 1.46-7.91m-15.52-12.68c-1.75-1.74-3.93-2.63-6.5-2.63H80.78c-1.45 0-2.63 1.18-2.63 2.63v19.16c0 1.45 1.18 2.63 2.63 2.63h10.45c2.57 0 4.75-.88 6.51-2.62 1.75-1.75 2.64-3.93 2.64-6.49v-6.2c0-2.56-.89-4.74-2.65-6.48m-2.6 12.68c0 1.14-.35 2.02-1.1 2.76-.75.75-1.64 1.1-2.8 1.1h-7.82v-13.91h7.82c1.16 0 2.05.34 2.8 1.09s1.1 1.62 1.1 2.76zm2.6-12.68c-1.75-1.74-3.93-2.63-6.5-2.63H80.78c-1.45 0-2.63 1.18-2.63 2.63v19.16c0 1.45 1.18 2.63 2.63 2.63h10.45c2.57 0 4.75-.88 6.51-2.62 1.75-1.75 2.64-3.93 2.64-6.49v-6.2c0-2.56-.89-4.74-2.65-6.48m-2.6 12.68c0 1.14-.35 2.02-1.1 2.76-.75.75-1.64 1.1-2.8 1.1h-7.82v-13.91h7.82c1.16 0 2.05.34 2.8 1.09s1.1 1.62 1.1 2.76zm59.64-28.27h-15.26c-3.01 0-5.9.58-8.6 1.73-2.67 1.15-5.02 2.74-6.99 4.71a22.3 22.3 0 0 0-4.66 6.97c-1.15 2.67-1.73 5.55-1.73 8.57v25.93c0 .59.02 1.18.08 1.76h5.26c-.06-.58-.09-1.16-.09-1.76v-25.93c0-2.3.44-4.49 1.3-6.5.88-2.03 2.08-3.83 3.57-5.33s3.28-2.71 5.33-3.59c2.04-.87 4.23-1.31 6.53-1.31h12.63v7.71h-12.63c-2.55 0-4.74.89-6.48 2.63-1.72 1.72-2.63 3.93-2.63 6.39v25.93c0 .61.05 1.19.15 1.76h5.52c-.28-.52-.41-1.1-.41-1.76v-25.93c0-1.08.34-1.93 1.09-2.67.74-.75 1.62-1.09 2.76-1.09h15.26c1.45 0 2.62-1.18 2.62-2.63v-12.97c0-1.45-1.17-2.62-2.62-2.62m37.57 15.6c-1.73-1.75-3.91-2.64-6.45-2.64h-2.47c-2.39 0-4.52.87-6.31 2.59-1.8 1.72-2.76 3.95-2.76 6.43v14.97c0 1.45 1.18 2.62 2.63 2.62h15.35c1.45 0 2.63-1.17 2.63-2.62v-14.97c0-2.49-.88-4.64-2.62-6.38m-8.92 2.62h2.47c1.13 0 1.99.34 2.73 1.08.74.75 1.08 1.59 1.08 2.68v12.34h-10.09v-12.34c0-1.06.36-1.89 1.13-2.63.81-.77 1.66-1.13 2.68-1.13m8.91 28.21h-15.35c-1.45 0-2.63 1.17-2.63 2.62v.62h20.61v-.62c0-1.45-1.18-2.62-2.63-2.62m13.76-33.03a22.4 22.4 0 0 0-4.69-6.96 22.3 22.3 0 0 0-6.95-4.7c-2.67-1.16-5.58-1.74-8.65-1.74h-2.48c-3.01 0-5.88.58-8.56 1.74-2.64 1.15-4.97 2.73-6.92 4.72-1.93 1.97-3.48 4.31-4.62 6.94-1.15 2.68-1.74 5.56-1.74 8.58v27.69h5.26v-27.69c0-2.3.44-4.48 1.3-6.49.88-2.05 2.08-3.85 3.56-5.36 1.46-1.49 3.23-2.7 5.25-3.57 2.01-.87 4.19-1.31 6.47-1.31h2.48c2.35 0 4.56.44 6.56 1.31 2.03.88 3.82 2.09 5.32 3.59 1.5 1.51 2.71 3.3 3.59 5.33.86 2.02 1.31 4.2 1.31 6.5v27.69h5.25v-27.69c0-3.02-.59-5.9-1.74-8.58m-13.75 2.2c-1.73-1.75-3.91-2.64-6.45-2.64h-2.47c-2.39 0-4.52.87-6.31 2.59-1.8 1.72-2.76 3.95-2.76 6.43v14.97c0 1.45 1.18 2.62 2.63 2.62h15.35c1.45 0 2.63-1.17 2.63-2.62v-14.97c0-2.49-.88-4.64-2.62-6.38m-8.92 2.62h2.47c1.13 0 1.99.34 2.73 1.08.74.75 1.08 1.59 1.08 2.68v12.34h-10.09v-12.34c0-1.06.36-1.89 1.13-2.63.81-.77 1.66-1.13 2.68-1.13m8.92-2.62c-1.73-1.75-3.91-2.64-6.45-2.64h-2.47c-2.39 0-4.52.87-6.31 2.59-1.8 1.72-2.76 3.95-2.76 6.43v14.97c0 1.45 1.18 2.62 2.63 2.62h15.35c1.45 0 2.63-1.17 2.63-2.62v-14.97c0-2.49-.88-4.64-2.62-6.38m-8.92 2.62h2.47c1.13 0 1.99.34 2.73 1.08.74.75 1.08 1.59 1.08 2.68v12.34h-10.09v-12.34c0-1.06.36-1.89 1.13-2.63.81-.77 1.66-1.13 2.68-1.13m59.68-2.01c-2.16-2.15-4.84-3.25-7.96-3.25h-7.25c-1.45 0-2.62 1.18-2.62 2.63v34.08h5.25v-31.45h4.62c1.73 0 3.08.54 4.24 1.7 1.17 1.17 1.71 2.52 1.71 4.25v21.55c0 1.59-.45 2.85-1.44 3.95h6.03c.45-1.22.67-2.54.67-3.95v-21.55c0-3.12-1.1-5.8-3.25-7.96m14.24-1.46a24.22 24.22 0 0 0-12.84-12.87c-2.93-1.25-6.09-1.88-9.41-1.88h-20.07c-1.45 0-2.63 1.17-2.63 2.62v47.05h5.26v-44.42h17.44c2.61 0 5.08.49 7.34 1.46 2.28.97 4.3 2.34 6.02 4.06a19.1 19.1 0 0 1 4.06 6.04c.96 2.27 1.45 4.74 1.45 7.36v21.55c0 1.36-.13 2.68-.39 3.95h5.33c.22-1.29.32-2.61.32-3.95v-21.55c0-3.33-.63-6.5-1.88-9.42m-14.24 1.46c-2.16-2.15-4.84-3.25-7.96-3.25h-7.25c-1.45 0-2.62 1.18-2.62 2.63v34.08h5.25v-31.45h4.62c1.73 0 3.08.54 4.24 1.7 1.17 1.17 1.71 2.52 1.71 4.25v21.55c0 1.59-.45 2.85-1.44 3.95h6.03c.45-1.22.67-2.54.67-3.95v-21.55c0-3.12-1.1-5.8-3.25-7.96m0 0c-2.16-2.15-4.84-3.25-7.96-3.25h-7.25c-1.45 0-2.62 1.18-2.62 2.63v34.08h5.25v-31.45h4.62c1.73 0 3.08.54 4.24 1.7 1.17 1.17 1.71 2.52 1.71 4.25v21.55c0 1.59-.45 2.85-1.44 3.95h6.03c.45-1.22.67-2.54.67-3.95v-21.55c0-3.12-1.1-5.8-3.25-7.96m60.3-16.12h-37.56c-1.45 0-2.63 1.18-2.63 2.63v46.95h5.25v-44.32h32.32v7.71h-22.07c-1.45 0-2.63 1.17-2.63 2.62v12.88c0 1.45 1.18 2.62 2.63 2.62h15.87v7.72h-15.87c-1.45 0-2.63 1.17-2.63 2.62v8.15h5.26v-5.52h15.87c1.45 0 2.62-1.18 2.62-2.63v-12.96c0-1.46-1.17-2.63-2.62-2.63h-15.87v-7.62h22.06c1.45 0 2.63-1.17 2.63-2.63v-12.96c0-1.45-1.18-2.63-2.63-2.63" class="cls-1"/><path d="M43.83 287.07c-1.43-1.44-3.23-2.17-5.34-2.17h-2.46c-1.98 0-3.74.72-5.23 2.15-1.5 1.44-2.27 3.22-2.27 5.29v14.97c0 .58.47 1.05 1.05 1.05h15.35c.58 0 1.05-.47 1.05-1.05v-14.97c0-2.06-.72-3.84-2.15-5.27m.05 19.18H30.63v-13.91c0-1.5.53-2.73 1.62-3.77 1.1-1.06 2.34-1.57 3.78-1.57h2.46c1.55 0 2.81.51 3.85 1.55s1.54 2.28 1.54 3.79zm1.05 12.11H29.58c-.58 0-1.05.47-1.05 1.05v.62h17.45v-.62c0-.58-.47-1.05-1.05-1.05m12.32-33.97c-1.07-2.46-2.53-4.64-4.36-6.48-1.83-1.83-4-3.3-6.46-4.37-2.47-1.07-5.18-1.61-8.03-1.61h-2.47c-2.8 0-5.47.54-7.94 1.61-2.46 1.07-4.62 2.54-6.42 4.38-1.79 1.83-3.24 4.01-4.3 6.47-1.07 2.47-1.61 5.15-1.61 7.95v27.69h2.1v-27.69c0-2.52.49-4.91 1.44-7.12.96-2.22 2.26-4.18 3.88-5.83 1.6-1.64 3.54-2.96 5.75-3.92 2.21-.95 4.59-1.44 7.1-1.44h2.47c2.57 0 4.99.49 7.19 1.44 2.21.96 4.17 2.28 5.81 3.93 1.64 1.64 2.96 3.6 3.92 5.82.95 2.21 1.43 4.61 1.43 7.12v27.69h2.11v-27.69c0-2.8-.55-5.48-1.61-7.95m-13.42 2.68c-1.43-1.44-3.23-2.17-5.34-2.17h-2.46c-1.98 0-3.74.72-5.23 2.15-1.5 1.44-2.27 3.22-2.27 5.29v14.97c0 .58.47 1.05 1.05 1.05h15.35c.58 0 1.05-.47 1.05-1.05v-14.97c0-2.06-.72-3.84-2.15-5.27m.05 19.18H30.63v-13.91c0-1.5.53-2.73 1.62-3.77 1.1-1.06 2.34-1.57 3.78-1.57h2.46c1.55 0 2.81.51 3.85 1.55s1.54 2.28 1.54 3.79zm-.05-19.18c-1.43-1.44-3.23-2.17-5.34-2.17h-2.46c-1.98 0-3.74.72-5.23 2.15-1.5 1.44-2.27 3.22-2.27 5.29v14.97c0 .58.47 1.05 1.05 1.05h15.35c.58 0 1.05-.47 1.05-1.05v-14.97c0-2.06-.72-3.84-2.15-5.27m.05 19.18H30.63v-13.91c0-1.5.53-2.73 1.62-3.77 1.1-1.06 2.34-1.57 3.78-1.57h2.46c1.55 0 2.81.51 3.85 1.55s1.54 2.28 1.54 3.79zm52.74 12.94c-1.44-1.43-3.25-2.16-5.39-2.16H80.78c-.58 0-1.05.47-1.05 1.05v1.95h2.1v-.9h9.4c1.2 0 2.23.3 3.12.9h2.99q-.315-.435-.72-.84m0-32.13c-1.44-1.43-3.26-2.16-5.39-2.16H80.78c-.58 0-1.05.47-1.05 1.05v19.16c0 .58.47 1.05 1.05 1.05h10.45c2.13 0 3.95-.72 5.39-2.16 1.45-1.44 2.18-3.25 2.18-5.37v-6.2c0-2.12-.73-3.93-2.18-5.37m.08 11.57c0 1.57-.51 2.83-1.56 3.88-1.05 1.04-2.33 1.55-3.91 1.55h-9.4V287h9.4c1.58 0 2.86.51 3.91 1.55 1.05 1.05 1.56 2.32 1.56 3.88zm14.97 0v-6.2c0-2.79-.54-5.48-1.6-7.99-1.07-2.49-2.54-4.69-4.38-6.53-1.83-1.83-4.03-3.3-6.52-4.37-2.51-1.07-5.2-1.61-8-1.61H67.91c-.58 0-1.05.47-1.05 1.05v47.05h2.1v-46h22.21c2.52 0 4.93.49 7.17 1.44 2.25.96 4.22 2.28 5.87 3.93 1.64 1.64 2.96 3.62 3.92 5.86.96 2.25 1.44 4.66 1.44 7.17v6.2c0 2.28-.41 4.49-1.21 6.58a18.5 18.5 0 0 1-3.48 5.69c-.35.4-.35 1 0 1.4a18.6 18.6 0 0 1 3.48 5.68c.26.67.47 1.36.64 2.05h2.17c-.21-.95-.5-1.89-.85-2.81-.79-2.04-1.89-3.93-3.27-5.62 1.38-1.7 2.48-3.59 3.27-5.63.9-2.34 1.35-4.8 1.35-7.34m-15.05-11.57c-1.44-1.43-3.26-2.16-5.39-2.16H80.78c-.58 0-1.05.47-1.05 1.05v19.16c0 .58.47 1.05 1.05 1.05h10.45c2.13 0 3.95-.72 5.39-2.16 1.45-1.44 2.18-3.25 2.18-5.37v-6.2c0-2.12-.73-3.93-2.18-5.37m.08 11.57c0 1.57-.51 2.83-1.56 3.88-1.05 1.04-2.33 1.55-3.91 1.55h-9.4V287h9.4c1.58 0 2.86.51 3.91 1.55 1.05 1.05 1.56 2.32 1.56 3.88zm-.08-11.57c-1.44-1.43-3.26-2.16-5.39-2.16H80.78c-.58 0-1.05.47-1.05 1.05v19.16c0 .58.47 1.05 1.05 1.05h10.45c2.13 0 3.95-.72 5.39-2.16 1.45-1.44 2.18-3.25 2.18-5.37v-6.2c0-2.12-.73-3.93-2.18-5.37m.08 11.57c0 1.57-.51 2.83-1.56 3.88-1.05 1.04-2.33 1.55-3.91 1.55h-9.4V287h9.4c1.58 0 2.86.51 3.91 1.55 1.05 1.05 1.56 2.32 1.56 3.88zm58.07-26.7h-15.26c-2.8 0-5.48.54-7.98 1.61-2.48 1.07-4.67 2.54-6.49 4.38-1.82 1.83-3.28 4.01-4.33 6.47-1.07 2.47-1.6 5.15-1.6 7.95v25.93c0 .59.02 1.18.08 1.76h2.1c-.05-.58-.08-1.16-.08-1.76v-25.93c0-2.52.48-4.91 1.43-7.12.95-2.22 2.26-4.18 3.89-5.82 1.63-1.65 3.59-2.97 5.83-3.93 2.23-.95 4.64-1.44 7.15-1.44h14.21v10.87h-14.21c-2.12 0-3.93.73-5.37 2.17-1.43 1.43-2.16 3.21-2.16 5.27v25.93c0 .61.06 1.2.21 1.76h2.17c-.19-.54-.28-1.13-.28-1.76v-25.93c0-1.51.51-2.74 1.55-3.79 1.04-1.04 2.31-1.55 3.88-1.55h15.26c.58 0 1.05-.47 1.05-1.05v-12.97c0-.58-.47-1.05-1.05-1.05m36.46 15.14c-1.43-1.44-3.23-2.17-5.34-2.17h-2.47c-1.97 0-3.73.72-5.22 2.15-1.51 1.44-2.27 3.22-2.27 5.29v14.97c0 .58.47 1.05 1.05 1.05h15.35c.58 0 1.05-.47 1.05-1.05v-14.97c0-2.06-.72-3.84-2.15-5.27m.05 19.18h-13.25v-13.91c0-1.5.53-2.73 1.62-3.77 1.1-1.06 2.34-1.57 3.77-1.57h2.47c1.55 0 2.81.51 3.85 1.55s1.54 2.28 1.54 3.79zm1.05 12.11h-15.35c-.58 0-1.05.47-1.05 1.05v.62h17.45v-.62c0-.58-.47-1.05-1.05-1.05m12.31-33.97c-1.06-2.46-2.52-4.64-4.35-6.48-1.83-1.83-4.01-3.3-6.47-4.37-2.47-1.07-5.17-1.61-8.02-1.61h-2.48c-2.79 0-5.46.54-7.93 1.61-2.46 1.07-4.62 2.54-6.42 4.38-1.79 1.83-3.24 4.01-4.3 6.47-1.07 2.47-1.61 5.15-1.61 7.95v27.69h2.1v-27.69c0-2.52.48-4.91 1.44-7.12.95-2.22 2.26-4.18 3.87-5.83 1.61-1.64 3.55-2.96 5.76-3.92 2.2-.95 4.59-1.44 7.09-1.44h2.48c2.56 0 4.98.49 7.19 1.44 2.21.96 4.17 2.28 5.81 3.93 1.64 1.64 2.96 3.6 3.91 5.82.96 2.21 1.44 4.61 1.44 7.12v27.69h2.1v-27.69c0-2.8-.54-5.48-1.61-7.95m-13.41 2.68c-1.43-1.44-3.23-2.17-5.34-2.17h-2.47c-1.97 0-3.73.72-5.22 2.15-1.51 1.44-2.27 3.22-2.27 5.29v14.97c0 .58.47 1.05 1.05 1.05h15.35c.58 0 1.05-.47 1.05-1.05v-14.97c0-2.06-.72-3.84-2.15-5.27m.05 19.18h-13.25v-13.91c0-1.5.53-2.73 1.62-3.77 1.1-1.06 2.34-1.57 3.77-1.57h2.47c1.55 0 2.81.51 3.85 1.55s1.54 2.28 1.54 3.79zm-.05-19.18c-1.43-1.44-3.23-2.17-5.34-2.17h-2.47c-1.97 0-3.73.72-5.22 2.15-1.51 1.44-2.27 3.22-2.27 5.29v14.97c0 .58.47 1.05 1.05 1.05h15.35c.58 0 1.05-.47 1.05-1.05v-14.97c0-2.06-.72-3.84-2.15-5.27m.05 19.18h-13.25v-13.91c0-1.5.53-2.73 1.62-3.77 1.1-1.06 2.34-1.57 3.77-1.57h2.47c1.55 0 2.81.51 3.85 1.55s1.54 2.28 1.54 3.79zm50.7-18.57c-1.85-1.84-4.15-2.78-6.84-2.78h-7.25c-.58 0-1.05.47-1.05 1.05v34.08h2.1V287h6.2c2.14 0 3.9.71 5.36 2.17s2.17 3.22 2.17 5.36v21.55c0 1.49-.35 2.8-1.05 3.95h2.36c.52-1.2.79-2.52.79-3.95v-21.55c0-2.69-.94-4.99-2.79-6.85m13.91-1.95a22.5 22.5 0 0 0-4.84-7.2 22.7 22.7 0 0 0-7.17-4.84c-2.73-1.17-5.68-1.76-8.79-1.76h-20.07c-.58 0-1.05.47-1.05 1.05v47.05h2.1v-46h19.02c2.82 0 5.5.54 7.96 1.59s4.65 2.53 6.52 4.4c1.86 1.86 3.34 4.06 4.39 6.53s1.58 5.15 1.58 7.98v21.55c0 1.35-.12 2.68-.37 3.95h2.13c.23-1.28.34-2.6.34-3.95v-21.55c0-3.11-.59-6.07-1.75-8.8m-13.91 1.95c-1.85-1.84-4.15-2.78-6.84-2.78h-7.25c-.58 0-1.05.47-1.05 1.05v34.08h2.1V287h6.2c2.14 0 3.9.71 5.36 2.17s2.17 3.22 2.17 5.36v21.55c0 1.49-.35 2.8-1.05 3.95h2.36c.52-1.2.79-2.52.79-3.95v-21.55c0-2.69-.94-4.99-2.79-6.85m0 0c-1.85-1.84-4.15-2.78-6.84-2.78h-7.25c-.58 0-1.05.47-1.05 1.05v34.08h2.1V287h6.2c2.14 0 3.9.71 5.36 2.17s2.17 3.22 2.17 5.36v21.55c0 1.49-.35 2.8-1.05 3.95h2.36c.52-1.2.79-2.52.79-3.95v-21.55c0-2.69-.94-4.99-2.79-6.85m61.42-15.65h-37.56c-.58 0-1.05.47-1.05 1.05v46.95h2.1v-45.9h35.46v10.86h-23.64c-.58 0-1.05.47-1.05 1.05v12.88c0 .58.47 1.05 1.05 1.05h17.45v10.86h-17.45c-.58 0-1.05.47-1.05 1.05v8.15h2.1v-7.1h17.45c.58 0 1.05-.47 1.05-1.05v-12.96c0-.58-.47-1.05-1.05-1.05h-17.45V287.1h23.64c.58 0 1.05-.48 1.05-1.06v-12.96c0-.58-.47-1.05-1.05-1.05" class="cls-1"/></svg>