<svg xmlns="http://www.w3.org/2000/svg" id="Layer_1" data-name="Layer 1" viewBox="0 0 560 320"><defs><style>.cls-1{fill:#372869}.cls-2{fill:#ed1c24}.cls-3{fill:#bca3ce;stroke:#553f98;stroke-miterlimit:10;stroke-width:.5px}</style></defs><path d="M.95.03h559.24v320H.95z" class="cls-1"/><path d="M405.33-.07c-3.45 16.81-8.27 33.52-14.2 49.97-.77 2.14-1.56 4.27-2.37 6.4-3.15 8.31-6.6 16.53-10.28 24.65a462 462 0 0 1-18.36 36.11c-.66 1.19-1.34 2.38-2.03 3.56-.5.88-1 1.74-1.5 2.61-10.64 18.29-22.38 35.76-34.79 52.08-48.21 64.41-136.13 76.41-201.3 120.77-3.92 2.65-7.76 5.44-11.5 8.36a168 168 0 0 0-8.87 7.44c-2.85 2.53-5.66 5.19-8.43 7.96H-.19V-.07h405.51Z" style="fill:#553f98"/><path d="M77.99 116.13H63.82l-3.52-12.64H41.15l-3.68 12.64H23.22l17.7-58.69c.69-2.3 1.84-4.21 3.52-5.82 1.61-1.61 3.6-2.45 5.9-2.45 2.53 0 4.75.84 6.67 2.61 1.92 1.76 3.22 3.91 3.98 6.44L78 116.14Zm-21.53-24.9-5.67-28.66-6.28 28.66zm58-28.5h-12.41v53.4H88.11v-53.4H75.54V50.16h38.92zm52.41 53.4H152.7l-3.52-12.64h-19.15l-3.68 12.64H112.1l17.7-58.69c.69-2.3 1.84-4.21 3.52-5.82 1.61-1.61 3.6-2.45 5.9-2.45 2.53 0 4.75.84 6.67 2.61 1.92 1.76 3.22 3.91 3.98 6.44l17.01 57.92Zm-21.53-24.9-5.67-28.66-6.28 28.66zm71.26 24.9h-16.09l-13.56-25.97c-.61-1.23-1.15-2.38-1.53-3.45-.38-1-.61-1.84-.61-2.38 0-2.91 2.22-5.29 6.82-7.13 4.52-1.84 6.82-4.21 6.82-6.97 0-1.69-.61-3.37-1.92-5.06-1.3-1.61-2.68-2.45-4.21-2.45h-7.97v53.4h-13.48v-57c0-1.99.92-3.98 2.76-5.9s3.68-2.83 5.52-2.83h13.41c5.21 0 9.81 1.92 13.71 5.67 3.91 3.83 5.9 8.2 5.9 13.18 0 3.98-1.15 7.36-3.37 10.11-2.22 2.76-5.36 5.06-9.27 6.9l17.09 29.88Zm19.23.23h-14.02V50.39h14.02z" class="cls-2"/><path d="M64.69.03H52.43l4.03 20.38H44.51L48.98.03H36.87L23.21 45.31h14.25l3.68-12.64h19.15l3.53 12.64h14.17zm23.42 0v45.28h13.94V.03zm65.46 0h-12.26l4.03 20.38h-11.95L137.86.03h-12.11l-13.66 45.28h14.25l3.68-12.64h19.15l3.53 12.64h14.17zm17.29 0v45.28h13.48V.03zm28.65 15.4c3.91-1.84 7.05-4.14 9.27-6.89 1.92-2.38 3.03-5.22 3.31-8.51h-13.7c-.31 2.5-2.59 4.66-6.77 6.36-4.6 1.84-6.82 4.21-6.82 7.13 0 .53.23 1.38.61 2.37.39 1.07.92 2.22 1.54 3.45l13.56 25.97h16.09zm22.3-15.4v45.51h14.02V.03zm-160.83 129c-.76-2.53-2.07-4.67-3.98-6.44-1.92-1.76-4.14-2.6-6.67-2.6-2.3 0-4.29.84-5.9 2.45-1.68 1.61-2.83 3.53-3.52 5.82l-17.7 58.7h14.25l3.68-12.65h19.15l3.53 12.65h14.17zm-16.47 33.02 6.28-28.65 5.67 28.65zm31.03-41.06v12.56h12.57v53.41h13.94v-53.41h12.41v-12.56zm74.32 8.04c-.76-2.53-2.07-4.67-3.98-6.44-1.92-1.76-4.14-2.6-6.67-2.6-2.3 0-4.29.84-5.9 2.45-1.68 1.61-2.83 3.53-3.52 5.82l-17.7 58.7h14.25l3.68-12.65h19.15l3.53 12.65h14.17zm-16.47 33.02 6.28-28.65 5.67 28.65zm66.12-4.98c3.91-1.84 7.05-4.13 9.27-6.89s3.37-6.13 3.37-10.12c0-4.98-1.99-9.34-5.9-13.17-3.9-3.76-8.5-5.67-13.71-5.67h-13.41c-1.84 0-3.68.92-5.52 2.83-1.84 1.92-2.75 3.91-2.75 5.9v57.01h13.48v-53.41h7.97c1.53 0 2.91.84 4.21 2.45 1.31 1.69 1.92 3.37 1.92 5.06 0 2.76-2.3 5.13-6.82 6.97-4.6 1.84-6.82 4.22-6.82 7.13 0 .53.23 1.38.61 2.37.39 1.08.92 2.23 1.54 3.45l13.56 25.98h16.09zm22.3-35.85v65.96h14.02v-65.96zM60.98 199.85c-.76-2.53-2.07-4.67-3.98-6.43-1.92-1.77-4.14-2.61-6.67-2.61-2.3 0-4.29.84-5.9 2.45-1.68 1.61-2.83 3.53-3.52 5.83l-17.7 58.69h14.25l3.68-12.65h19.15l3.53 12.65h14.17zm-16.47 33.02 6.28-28.65 5.67 28.65zm31.03-41.06v12.56h12.57v53.41h13.94v-53.41h12.41v-12.56zm74.32 8.04c-.76-2.53-2.07-4.67-3.98-6.43-1.92-1.77-4.14-2.61-6.67-2.61-2.3 0-4.29.84-5.9 2.45-1.68 1.61-2.83 3.53-3.52 5.83l-17.7 58.69h14.25l3.68-12.65h19.15l3.53 12.65h14.17zm-16.47 33.02 6.28-28.65 5.67 28.65zm66.12-4.98c3.91-1.83 7.05-4.13 9.27-6.89s3.37-6.13 3.37-10.11c0-4.99-1.99-9.35-5.9-13.18-3.9-3.76-8.5-5.67-13.71-5.67h-13.41c-1.84 0-3.68.92-5.52 2.83-1.84 1.92-2.75 3.91-2.75 5.9v57.01h13.48v-53.41h7.97c1.53 0 2.91.85 4.21 2.45 1.31 1.69 1.92 3.38 1.92 5.06 0 2.76-2.3 5.13-6.82 6.97-4.6 1.84-6.82 4.22-6.82 7.13 0 .54.23 1.38.61 2.37.39 1.08.92 2.23 1.54 3.45l13.56 25.98h16.09zm22.3-35.85v65.97h14.02v-65.97zM60.98 270.67c-.76-2.53-2.07-4.67-3.98-6.43-1.92-1.77-4.14-2.61-6.67-2.61-2.3 0-4.29.84-5.9 2.45-1.68 1.61-2.83 3.53-3.52 5.83l-15.12 50.12h14.16l1.19-4.08h19.15l1.14 4.08h14.04zM44.51 303.7l6.28-28.66 5.67 28.66zm31.03-41.07v12.56h12.57v44.84h13.94v-44.84h12.41v-12.56zm74.32 8.04c-.76-2.53-2.07-4.67-3.98-6.43-1.92-1.77-4.14-2.61-6.67-2.61-2.3 0-4.29.84-5.9 2.45-1.68 1.61-2.83 3.53-3.52 5.83l-15.12 50.12h14.16l1.19-4.08h19.15l1.14 4.08h14.04zm-16.47 33.03 6.28-28.66 5.67 28.66zm75.39-11.88c2.22-2.76 3.37-6.13 3.37-10.11 0-4.98-1.99-9.35-5.9-13.18-3.9-3.76-8.5-5.67-13.71-5.67h-13.41c-1.84 0-3.68.92-5.52 2.83-1.84 1.92-2.75 3.91-2.75 5.9v48.44h13.48v-44.84h7.97c1.53 0 2.91.85 4.21 2.46 1.31 1.68 1.92 3.37 1.92 5.05 0 2.76-2.3 5.14-6.82 6.97-4.6 1.84-6.82 4.22-6.82 7.13 0 .54.23 1.38.61 2.38.39 1.07.92 2.22 1.54 3.44l9.09 17.41h15.66l-12.19-21.31c3.91-1.84 7.05-4.14 9.27-6.9m13.03-28.96v57.17h14.02v-57.17z" class="cls-1"/><path d="m560.77 182.79-.58.32v120.77H440.17c-17.06 0-30.89-13.83-30.89-30.88V51.1c0-17.05 13.83-30.88 30.89-30.88h120.02v138.17l.55.3z" class="cls-3"/><path d="m560.77 182.79-.58.32v114.14H439.87c-13.51 0-24.45-10.95-24.45-24.45V51.3c0-13.5 10.94-24.45 24.45-24.45h120.32v131.54l.55.3z" class="cls-3"/><path d="m560.77 182.79-.58.32v70.52a86 86 0 0 1-21.85 2.81c-47.35 0-85.74-38.39-85.74-85.74s38.39-85.73 85.74-85.73c7.55 0 14.88.98 21.85 2.81v70.61l.55.3z" class="cls-3"/><path d="m560.77 182.79-.58.32v25.05a43.17 43.17 0 0 1-21.85 5.9c-23.95 0-43.36-19.41-43.36-43.36s19.41-43.35 43.36-43.35c7.97 0 15.43 2.15 21.85 5.9v25.14l.55.3z" class="cls-3"/><path d="m560.77 182.79-.58.32v41.9a58.4 58.4 0 0 1-21.85 4.22c-32.33 0-58.53-26.2-58.53-58.53s26.2-58.53 58.53-58.53c7.72 0 15.1 1.5 21.85 4.22v42l.55.3z" class="cls-3"/><path d="m560.77 182.79-.58.32v54.37a70.1 70.1 0 0 1-21.85 3.47c-38.8 0-70.25-31.45-70.25-70.25s31.45-70.25 70.25-70.25c7.63 0 14.98 1.22 21.85 3.47v54.47l.55.3z" class="cls-3"/><path d="M512.45 70.49c-2.47.64-4.91 1.37-7.31 2.18L484 45.09c-11.76-15.35-33.73-18.26-49.08-6.5-8.99 6.89-13.71 17.3-13.71 27.82 0 7.43 2.35 14.92 7.22 21.27l21.9 28.57c-.39.63-.78 1.26-1.15 1.9-14.04 23.81-17.96 51.67-11.05 78.44 6.92 26.77 23.84 49.24 47.66 63.28 16.14 9.51 34.12 14.37 52.38 14.37 7.33 0 14.7-.78 22.02-2.38v-22.37c-.46.13-.93.26-1.4.38a82 82 0 0 1-20.44 2.61c-36.38 0-69.67-24.51-79.18-61.33-11.27-43.65 15.06-88.33 58.72-99.61a81.3 81.3 0 0 1 20.44-2.61c7.48 0 14.83 1.04 21.86 3V69.49c-15.58-3.39-31.85-3.1-47.74 1Z" class="cls-3"/><path d="m544.08 75.44-.33 5.54c3.74.23 7.51.69 11.2 1.39l1.02-5.45a95 95 0 0 0-11.89-1.48Zm-11.99.04c-3.97.27-7.96.79-11.88 1.55l1.06 5.44c3.69-.71 7.45-1.2 11.19-1.45zm-23.47 4.56c-3.8 1.24-7.54 2.73-11.13 4.43l2.37 5.01c3.38-1.59 6.91-3 10.48-4.17zM487 90.26a96 96 0 0 0-9.67 7.06l3.55 4.27c2.88-2.4 5.94-4.64 9.1-6.65zm-18.37 15.29a95 95 0 0 0-7.61 9.25l4.5 3.25c2.2-3.05 4.61-5.98 7.16-8.72zm-14 19.38a96 96 0 0 0-5.08 10.84l5.16 2.04c1.38-3.49 2.99-6.93 4.79-10.22zm-8.77 22.24c-.99 3.87-1.74 7.83-2.23 11.78l5.51.69a91 91 0 0 1 2.1-11.09zm2.6 23.73-5.55.02c.01 3.98.28 7.99.79 11.95l5.5-.71c-.48-3.73-.73-7.52-.74-11.26Zm2.89 22.34-5.37 1.4c1 3.86 2.25 7.69 3.72 11.38l5.15-2.05a92 92 0 0 1-3.5-10.73Zm8.32 20.94-4.86 2.68c1.92 3.48 4.09 6.88 6.44 10.1l4.49-3.27a88.5 88.5 0 0 1-6.07-9.51Zm13.27 18.17-4.03 3.81c2.73 2.9 5.67 5.65 8.75 8.18s3.53-4.29 3.53-4.29c-2.9-2.38-5.67-4.97-8.25-7.7Zm17.39 14.31-2.96 4.69c3.37 2.13 6.9 4.07 10.5 5.76l2.36-5.03c-3.4-1.59-6.73-3.42-9.9-5.42Zm65.01 12.28 1.06 5.45c1.26-.24 2.53-.52 3.79-.82v-5.7c-1.6.39-3.23.76-4.85 1.07Zm-44.61-2.72-1.71 5.28c3.79 1.23 7.7 2.23 11.61 2.97l1.03-5.45a90 90 0 0 1-10.93-2.8Zm33.42 4.17c-3.74.24-7.55.26-11.29.03l-.34 5.54c1.91.11 3.84.17 5.75.17 2.07 0 4.17-.07 6.24-.2zm16.62-77.6-.58.32-22.01 12.12-22.59-12.45.76-24.33 21.83-12.06 22.01 12 .55.3z" class="cls-3"/><circle cx="456.09" cy="66.16" r="25.71" class="cls-3"/><path d="M104.94 131.44h15.61v105.94h-15.61zm-11.15 0h8.18c-.01 49.51-1.28 61.53-8.92 76.2-7.55 14.44-28.75 29.63-46.84 31.22v-15.98c13.65-2.06 25.99-10.61 36.8-26.76C93.73 180 94.04 141.7 93.79 131.44m38.29 0h-8.18c-.11 49.51 1.16 61.53 8.92 76.2 7.42 14.44 28.63 29.63 46.84 31.22v-15.98c-13.77-2.06-26.12-10.61-36.8-26.76-10.84-16.12-11.15-54.42-10.78-64.68m85.15 89.68v15.6c0 .63-.38 1.26-1.26 1.89s-1.76.88-2.64.88c-1.38 0-3.14-1.01-5.41-3.02-2.14-2.01-4.4-4.02-6.54-6.16-2.14-2.01-3.9-3.14-5.16-3.14-.63 0-1.26.25-1.89.88-.63.5-.88 1.26-.88 2.14s.25 1.64.88 2.26 1.38.88 2.39.88v6.04c-2.52 0-4.65-.88-6.54-2.77-1.76-1.89-2.77-4.02-2.77-6.54s.88-4.65 2.77-6.41c1.76-1.76 3.9-2.64 6.41-2.64s5.16 1.26 7.55 3.65c2.52 2.39 4.91 4.65 7.17 6.92l.13-10.56h5.79v.13Zm-9.81-24.03c2.89 0 5.28 1.01 7.29 3.14 2.01 2.14 2.89 4.65 2.89 7.55s-1.13 5.03-3.27 6.79-4.65 2.77-7.42 2.77c-1.13 0-3.14-.63-6.16-2.01s-6.04-2.77-8.93-4.28-4.4-2.26-4.4-2.26v-6.92l10.82 5.16q0-4.335 2.64-7.17c1.63-1.76 3.9-2.77 6.54-2.77m.25 6.17c-1.13 0-2.14.38-2.89 1.13s-1.26 1.76-1.26 2.77.38 2.01 1.26 2.77 1.76 1.13 2.77 1.13c1.26 0 2.14-.38 2.89-1.01.63-.75 1.01-1.64 1.01-2.89s-.38-2.14-1.13-2.89c-.75-.63-1.63-1.01-2.64-1.01Zm9.69-24.15c0 4.15-1.38 7.92-4.02 10.94-2.64 3.14-6.16 4.65-10.56 4.65s-8.05-1.51-10.94-4.53c-3.02-3.02-4.53-6.67-4.53-10.69s1.51-7.55 4.53-10.56c3.02-3.02 6.54-4.53 10.44-4.53s7.42 1.38 10.56 4.15q4.53 3.96 4.53 10.56Zm-15.1-8.55c-2.26 0-4.28.88-6.04 2.64s-2.64 3.77-2.64 6.04c0 2.64.88 4.78 2.77 6.54s4.02 2.64 6.41 2.64c2.52 0 4.65-.88 6.29-2.77 1.63-1.76 2.39-4.02 2.39-6.54s-.88-4.4-2.52-6.16c-1.76-1.51-3.9-2.39-6.67-2.39Zm15.1-24.4c0 4.15-1.38 7.92-4.02 10.94-2.64 3.14-6.16 4.65-10.56 4.65s-8.05-1.51-10.94-4.53c-3.02-3.02-4.53-6.67-4.53-10.69s1.51-7.55 4.53-10.56c3.02-3.02 6.54-4.53 10.44-4.53s7.42 1.38 10.56 4.15q4.53 3.96 4.53 10.56Zm-15.1-8.55c-2.26 0-4.28.88-6.04 2.64s-2.64 3.77-2.64 6.04c0 2.64.88 4.78 2.77 6.54s4.02 2.64 6.41 2.64c2.52 0 4.65-.88 6.29-2.77 1.63-1.76 2.39-4.02 2.39-6.54s-.88-4.4-2.52-6.16c-1.76-1.51-3.9-2.39-6.67-2.39Z" class="cls-2"/></svg>