<?xml version="1.0" encoding="UTF-8"?>
<svg id="Layer_1" data-name="Layer 1" xmlns="http://www.w3.org/2000/svg" viewBox="0 0 560 320">
  <defs>
    <style>
      .cls-1 {
        fill: #372869;
      }

      .cls-2 {
        fill: #ed1c24;
      }

      .cls-3 {
        fill: #bca3ce;
        stroke: #553f98;
        stroke-miterlimit: 10;
        stroke-width: .5px;
      }

      .cls-4 {
        fill: #553f98;
      }
    </style>
  </defs>
  <rect class="cls-1" x=".95" y=".03" width="559.24" height="320"/>
  <path class="cls-4" d="M405.33-.07c-3.45,16.81-8.27,33.52-14.2,49.97-.77,2.14-1.56,4.27-2.37,6.4-3.15,8.31-6.6,16.53-10.28,24.65-5.58,12.3-11.73,24.36-18.36,36.11-.66,1.19-1.34,2.38-2.03,3.56-.5.88-1,1.74-1.5,2.61h0c-10.64,18.29-22.38,35.76-34.79,52.08-48.21,64.41-136.13,76.41-201.3,120.77-3.92,2.65-7.76,5.44-11.5,8.36-1.03.8-2.04,1.61-3.05,2.44-1.96,1.61-3.9,3.27-5.82,5-2.85,2.53-5.66,5.19-8.43,7.96H-.19V-.07h405.51Z"/>
  <path class="cls-2" d="M77.99,116.13h-14.17l-3.52-12.64h-19.15l-3.68,12.64h-14.25l17.7-58.69c.69-2.3,1.84-4.21,3.52-5.82,1.61-1.61,3.6-2.45,5.9-2.45,2.53,0,4.75.84,6.67,2.61,1.92,1.76,3.22,3.91,3.98,6.44l17.01,57.92ZM56.46,91.23l-5.67-28.66-6.28,28.66h11.95ZM114.46,62.73h-12.41v53.4h-13.94v-53.4h-12.57v-12.57h38.92v12.57h0ZM166.87,116.13h-14.17l-3.52-12.64h-19.15l-3.68,12.64h-14.25l17.7-58.69c.69-2.3,1.84-4.21,3.52-5.82,1.61-1.61,3.6-2.45,5.9-2.45,2.53,0,4.75.84,6.67,2.61,1.92,1.76,3.22,3.91,3.98,6.44l17.01,57.92ZM145.34,91.23l-5.67-28.66-6.28,28.66h11.95,0ZM216.6,116.13h-16.09l-13.56-25.97c-.61-1.23-1.15-2.38-1.53-3.45-.38-1-.61-1.84-.61-2.38,0-2.91,2.22-5.29,6.82-7.13,4.52-1.84,6.82-4.21,6.82-6.97,0-1.69-.61-3.37-1.92-5.06-1.3-1.61-2.68-2.45-4.21-2.45h-7.97v53.4h-13.48v-57c0-1.99.92-3.98,2.76-5.9,1.84-1.92,3.68-2.83,5.52-2.83h13.41c5.21,0,9.81,1.92,13.71,5.67,3.91,3.83,5.9,8.2,5.9,13.18,0,3.98-1.15,7.36-3.37,10.11-2.22,2.76-5.36,5.06-9.27,6.9l17.09,29.88ZM235.83,116.36h-14.02V50.39h14.02v65.97Z"/>
  <path class="cls-1" d="M64.69.03h-12.26l4.03,20.38h-11.95L48.98.03h-12.11l-13.66,45.28h14.25l3.68-12.64h19.15l3.53,12.64h14.17L64.69.03ZM88.11.03v45.28h13.94V.03h-13.94ZM153.57.03h-12.26l4.03,20.38h-11.95L137.86.03h-12.11l-13.66,45.28h14.25l3.68-12.64h19.15l3.53,12.64h14.17L153.57.03ZM170.86.03v45.28h13.48V.03h-13.48ZM199.51,15.43c3.91-1.84,7.05-4.14,9.27-6.89,1.92-2.38,3.03-5.22,3.31-8.51h-13.7c-.31,2.5-2.59,4.66-6.77,6.36-4.6,1.84-6.82,4.21-6.82,7.13,0,.53.23,1.38.61,2.37.39,1.07.92,2.22,1.54,3.45l13.56,25.97h16.09l-17.09-29.88ZM221.81.03v45.51h14.02V.03h-14.02Z"/>
  <path class="cls-1" d="M60.98,129.03c-.76-2.53-2.07-4.67-3.98-6.44-1.92-1.76-4.14-2.6-6.67-2.6-2.3,0-4.29.84-5.9,2.45-1.68,1.61-2.83,3.53-3.52,5.82l-17.7,58.7h14.25l3.68-12.65h19.15l3.53,12.65h14.17l-17.01-57.93ZM44.51,162.05l6.28-28.65,5.67,28.65h-11.95ZM75.54,120.99v12.56h12.57v53.41h13.94v-53.41h12.41v-12.56h-38.92ZM149.86,129.03c-.76-2.53-2.07-4.67-3.98-6.44-1.92-1.76-4.14-2.6-6.67-2.6-2.3,0-4.29.84-5.9,2.45-1.68,1.61-2.83,3.53-3.52,5.82l-17.7,58.7h14.25l3.68-12.65h19.15l3.53,12.65h14.17l-17.01-57.93ZM133.39,162.05l6.28-28.65,5.67,28.65h-11.95ZM199.51,157.07c3.91-1.84,7.05-4.13,9.27-6.89,2.22-2.76,3.37-6.13,3.37-10.12,0-4.98-1.99-9.34-5.9-13.17-3.9-3.76-8.5-5.67-13.71-5.67h-13.41c-1.84,0-3.68.92-5.52,2.83-1.84,1.92-2.75,3.91-2.75,5.9v57.01h13.48v-53.41h7.97c1.53,0,2.91.84,4.21,2.45,1.31,1.69,1.92,3.37,1.92,5.06,0,2.76-2.3,5.13-6.82,6.97-4.6,1.84-6.82,4.22-6.82,7.13,0,.53.23,1.38.61,2.37.39,1.08.92,2.23,1.54,3.45l13.56,25.98h16.09l-17.09-29.89ZM221.81,121.22v65.96h14.02v-65.96h-14.02Z"/>
  <path class="cls-1" d="M60.98,199.85c-.76-2.53-2.07-4.67-3.98-6.43-1.92-1.77-4.14-2.61-6.67-2.61-2.3,0-4.29.84-5.9,2.45-1.68,1.61-2.83,3.53-3.52,5.83l-17.7,58.69h14.25l3.68-12.65h19.15l3.53,12.65h14.17l-17.01-57.93ZM44.51,232.87l6.28-28.65,5.67,28.65h-11.95ZM75.54,191.81v12.56h12.57v53.41h13.94v-53.41h12.41v-12.56h-38.92ZM149.86,199.85c-.76-2.53-2.07-4.67-3.98-6.43-1.92-1.77-4.14-2.61-6.67-2.61-2.3,0-4.29.84-5.9,2.45-1.68,1.61-2.83,3.53-3.52,5.83l-17.7,58.69h14.25l3.68-12.65h19.15l3.53,12.65h14.17l-17.01-57.93ZM133.39,232.87l6.28-28.65,5.67,28.65h-11.95ZM199.51,227.89c3.91-1.83,7.05-4.13,9.27-6.89,2.22-2.76,3.37-6.13,3.37-10.11,0-4.99-1.99-9.35-5.9-13.18-3.9-3.76-8.5-5.67-13.71-5.67h-13.41c-1.84,0-3.68.92-5.52,2.83-1.84,1.92-2.75,3.91-2.75,5.9v57.01h13.48v-53.41h7.97c1.53,0,2.91.85,4.21,2.45,1.31,1.69,1.92,3.38,1.92,5.06,0,2.76-2.3,5.13-6.82,6.97-4.6,1.84-6.82,4.22-6.82,7.13,0,.54.23,1.38.61,2.37.39,1.08.92,2.23,1.54,3.45l13.56,25.98h16.09l-17.09-29.89ZM221.81,192.04v65.97h14.02v-65.97h-14.02Z"/>
  <path class="cls-1" d="M60.98,270.67c-.76-2.53-2.07-4.67-3.98-6.43-1.92-1.77-4.14-2.61-6.67-2.61-2.3,0-4.29.84-5.9,2.45-1.68,1.61-2.83,3.53-3.52,5.83l-15.12,50.12h14.16l1.19-4.08h19.15l1.14,4.08h14.04l-14.49-49.36ZM44.51,303.7l6.28-28.66,5.67,28.66h-11.95ZM75.54,262.63v12.56h12.57v44.84h13.94v-44.84h12.41v-12.56h-38.92ZM149.86,270.67c-.76-2.53-2.07-4.67-3.98-6.43-1.92-1.77-4.14-2.61-6.67-2.61-2.3,0-4.29.84-5.9,2.45-1.68,1.61-2.83,3.53-3.52,5.83l-15.12,50.12h14.16l1.19-4.08h19.15l1.14,4.08h14.04l-14.49-49.36ZM133.39,303.7l6.28-28.66,5.67,28.66h-11.95ZM208.78,291.82c2.22-2.76,3.37-6.13,3.37-10.11,0-4.98-1.99-9.35-5.9-13.18-3.9-3.76-8.5-5.67-13.71-5.67h-13.41c-1.84,0-3.68.92-5.52,2.83-1.84,1.92-2.75,3.91-2.75,5.9v48.44h13.48v-44.84h7.97c1.53,0,2.91.85,4.21,2.46,1.31,1.68,1.92,3.37,1.92,5.05,0,2.76-2.3,5.14-6.82,6.97-4.6,1.84-6.82,4.22-6.82,7.13,0,.54.23,1.38.61,2.38.39,1.07.92,2.22,1.54,3.44l9.09,17.41h15.66l-12.19-21.31c3.91-1.84,7.05-4.14,9.27-6.9ZM221.81,262.86v57.17h14.02v-57.17h-14.02Z"/>
  <rect class="cls-2" x="96.07" y="149.87" width="19.36" height="131.41"/>
  <path class="cls-2" d="M82.23,149.87h10.14c-.02,61.41-1.59,76.33-11.06,94.53-9.37,17.92-35.66,36.76-58.1,38.73v-19.83c16.94-2.56,32.25-13.16,45.65-33.2,13.3-20,13.68-67.5,13.37-80.24Z"/>
  <path class="cls-2" d="M129.73,149.87h-10.15c-.13,61.41,1.43,76.33,11.07,94.53,9.21,17.92,35.52,36.76,58.1,38.73v-19.83c-17.09-2.56-32.4-13.16-45.65-33.2-13.44-20-13.84-67.5-13.37-80.24Z"/>
  <path class="cls-3" d="M560.77,182.79l-.58.32v120.77h-120.02c-17.06,0-30.89-13.83-30.89-30.88V51.1c0-17.05,13.83-30.88,30.89-30.88h120.02v138.17l.55.3.03,24.1Z"/>
  <path class="cls-3" d="M560.77,182.79l-.58.32v114.14h-120.32c-13.51,0-24.45-10.95-24.45-24.45V51.3c0-13.5,10.94-24.45,24.45-24.45h120.32v131.54l.55.3.03,24.1Z"/>
  <path class="cls-3" d="M560.77,182.79l-.58.32v70.52c-6.97,1.83-14.3,2.81-21.85,2.81-47.35,0-85.74-38.39-85.74-85.74s38.39-85.73,85.74-85.73c7.55,0,14.88.98,21.85,2.81v70.61l.55.3.03,24.1Z"/>
  <path class="cls-3" d="M560.77,182.79l-.58.32v25.05c-6.42,3.75-13.88,5.9-21.85,5.9-23.95,0-43.36-19.41-43.36-43.36s19.41-43.35,43.36-43.35c7.97,0,15.43,2.15,21.85,5.9v25.14l.55.3.03,24.1Z"/>
  <path class="cls-3" d="M560.77,182.79l-.58.32v41.9c-6.75,2.72-14.13,4.22-21.85,4.22-32.33,0-58.53-26.2-58.53-58.53s26.2-58.53,58.53-58.53c7.72,0,15.1,1.5,21.85,4.22v42l.55.3.03,24.1Z"/>
  <path class="cls-3" d="M560.77,182.79l-.58.32v54.37c-6.87,2.25-14.22,3.47-21.85,3.47-38.8,0-70.25-31.45-70.25-70.25s31.45-70.25,70.25-70.25c7.63,0,14.98,1.22,21.85,3.47v54.47l.55.3.03,24.1Z"/>
  <path class="cls-3" d="M512.45,70.49c-2.47.64-4.91,1.37-7.31,2.18l-21.14-27.58c-11.76-15.35-33.73-18.26-49.08-6.5-8.99,6.89-13.71,17.3-13.71,27.82,0,7.43,2.35,14.92,7.22,21.27l21.9,28.57c-.39.63-.78,1.26-1.15,1.9-14.04,23.81-17.96,51.67-11.05,78.44,6.92,26.77,23.84,49.24,47.66,63.28,16.14,9.51,34.12,14.37,52.38,14.37,7.33,0,14.7-.78,22.02-2.38v-22.37c-.46.13-.93.26-1.4.38-6.84,1.76-13.69,2.61-20.44,2.61-36.38,0-69.67-24.51-79.18-61.33-11.27-43.65,15.06-88.33,58.72-99.61,6.83-1.77,13.68-2.61,20.44-2.61,7.48,0,14.83,1.04,21.86,3v-22.44c-15.58-3.39-31.85-3.1-47.74,1Z"/>
  <path class="cls-3" d="M544.08,75.44l-.33,5.54c3.74.23,7.51.69,11.2,1.39l1.02-5.45c-3.91-.74-7.91-1.24-11.89-1.48ZM532.09,75.48c-3.97.27-7.96.79-11.88,1.55l1.06,5.44c3.69-.71,7.45-1.2,11.19-1.45l-.37-5.54ZM508.62,80.04c-3.8,1.24-7.54,2.73-11.13,4.43l2.37,5.01c3.38-1.59,6.91-3,10.48-4.17l-1.72-5.27ZM487,90.26c-3.36,2.14-6.61,4.52-9.67,7.06l3.55,4.27c2.88-2.4,5.94-4.64,9.1-6.65l-2.98-4.68ZM468.63,105.55c-2.72,2.91-5.28,6.02-7.61,9.25l4.5,3.25h0c2.2-3.05,4.61-5.98,7.16-8.72l-4.05-3.78ZM454.63,124.93c-1.91,3.49-3.62,7.14-5.08,10.84l5.16,2.04c1.38-3.49,2.99-6.93,4.79-10.22l-4.87-2.66ZM445.86,147.17c-.99,3.87-1.74,7.83-2.23,11.78l5.51.69c.47-3.72,1.17-7.45,2.1-11.09l-5.38-1.38ZM448.46,170.9l-5.55.02c.01,3.98.28,7.99.79,11.95l5.5-.71c-.48-3.73-.73-7.52-.74-11.26ZM451.35,193.24l-5.37,1.4c1,3.86,2.25,7.69,3.72,11.38l5.15-2.05c-1.38-3.47-2.55-7.08-3.5-10.73ZM459.67,214.18l-4.86,2.68c1.92,3.48,4.09,6.88,6.44,10.1l4.49-3.27c-2.22-3.03-4.26-6.23-6.07-9.51ZM472.94,232.35l-4.03,3.81c2.73,2.9,5.67,5.65,8.75,8.18h0s3.53-4.29,3.53-4.29c-2.9-2.38-5.67-4.97-8.25-7.7ZM490.33,246.66l-2.96,4.69c3.37,2.13,6.9,4.07,10.5,5.76l2.36-5.03c-3.4-1.59-6.73-3.42-9.9-5.42ZM555.34,258.94l1.06,5.45c1.26-.24,2.53-.52,3.79-.82v-5.7c-1.6.39-3.23.76-4.85,1.07ZM510.73,256.22l-1.71,5.28c3.79,1.23,7.7,2.23,11.61,2.97l1.03-5.45c-3.68-.7-7.36-1.64-10.93-2.8ZM544.15,260.39c-3.74.24-7.55.26-11.29.03l-.34,5.54c1.91.11,3.84.17,5.75.17,2.07,0,4.17-.07,6.24-.2l-.36-5.54Z"/>
  <polygon class="cls-3" points="560.77 182.79 560.19 183.11 538.18 195.23 515.59 182.78 516.35 158.45 538.18 146.39 560.19 158.39 560.74 158.69 560.77 182.79"/>
  <circle class="cls-3" cx="456.09" cy="66.16" r="25.71"/>
  <path class="cls-2" d="M235.36,261.11v19.35c0,.78-.47,1.56-1.56,2.34s-2.18,1.09-3.28,1.09c-1.72,0-3.9-1.25-6.71-3.74-2.65-2.5-5.46-4.99-8.11-7.64-2.65-2.5-4.84-3.9-6.4-3.9-.78,0-1.56.31-2.34,1.09-.78.62-1.09,1.56-1.09,2.65s.31,2.03,1.09,2.81,1.72,1.09,2.96,1.09v7.49c-3.12,0-5.77-1.09-8.11-3.43-2.18-2.34-3.43-4.99-3.43-8.11s1.09-5.77,3.43-7.96c2.18-2.18,4.84-3.28,7.96-3.28s6.4,1.56,9.36,4.52c3.12,2.96,6.08,5.77,8.89,8.58l.16-13.11h7.18v.16ZM223.19,231.31c3.59,0,6.55,1.25,9.05,3.9,2.5,2.65,3.59,5.77,3.59,9.36s-1.4,6.24-4.06,8.42-5.77,3.43-9.2,3.43c-1.4,0-3.9-.78-7.64-2.5-3.74-1.72-7.49-3.43-11.08-5.3-3.59-1.87-5.46-2.81-5.46-2.81v-8.58l13.42,6.4c0-3.59,1.09-6.55,3.28-8.89,2.03-2.18,4.84-3.43,8.11-3.43h0ZM223.5,238.96c-1.4,0-2.65.47-3.59,1.4-.94.94-1.56,2.18-1.56,3.43s.47,2.5,1.56,3.43,2.18,1.4,3.43,1.4c1.56,0,2.65-.47,3.59-1.25.78-.94,1.25-2.03,1.25-3.59s-.47-2.65-1.4-3.59c-.94-.78-2.03-1.25-3.28-1.25h0ZM235.52,209c0,5.15-1.72,9.83-4.99,13.57-3.28,3.9-7.64,5.77-13.11,5.77s-9.99-1.87-13.57-5.62c-3.74-3.74-5.62-8.27-5.62-13.26s1.87-9.36,5.62-13.11c3.74-3.74,8.11-5.62,12.95-5.62s9.2,1.72,13.11,5.15c3.74,3.28,5.62,7.64,5.62,13.11h0ZM216.8,198.4c-2.81,0-5.3,1.09-7.49,3.28-2.18,2.18-3.28,4.68-3.28,7.49,0,3.28,1.09,5.93,3.43,8.11s4.99,3.28,7.96,3.28c3.12,0,5.77-1.09,7.8-3.43,2.03-2.18,2.96-4.99,2.96-8.11s-1.09-5.46-3.12-7.64c-2.18-1.87-4.84-2.96-8.27-2.96h0ZM235.52,168.13c0,5.15-1.72,9.83-4.99,13.57-3.28,3.9-7.64,5.77-13.11,5.77s-9.99-1.87-13.57-5.62c-3.74-3.74-5.62-8.27-5.62-13.26s1.87-9.36,5.62-13.11c3.74-3.74,8.11-5.62,12.95-5.62s9.2,1.72,13.11,5.15c3.74,3.28,5.62,7.64,5.62,13.11h0ZM216.8,157.52c-2.81,0-5.3,1.09-7.49,3.28s-3.28,4.68-3.28,7.49c0,3.28,1.09,5.93,3.43,8.11s4.99,3.28,7.96,3.28c3.12,0,5.77-1.09,7.8-3.43,2.03-2.18,2.96-4.99,2.96-8.11s-1.09-5.46-3.12-7.64c-2.18-1.87-4.84-2.96-8.27-2.96h0Z"/>
</svg>