<svg xmlns="http://www.w3.org/2000/svg" id="Layer_1" data-name="Layer 1" viewBox="0 0 560 320"><defs><style>.cls-3,.cls-4{fill:#bca3ce;stroke:#553f98;stroke-linejoin:round;stroke-width:.5px}.cls-4{opacity:.65}</style></defs><path d="M.95.03h559.24v320H.95z" style="fill:#372869"/><path d="M405.33-.07c-3.45 16.81-8.27 33.52-14.2 49.97-.77 2.14-1.56 4.27-2.37 6.4-3.15 8.31-6.6 16.53-10.28 24.65a462 462 0 0 1-18.36 36.11c-.66 1.19-1.34 2.38-2.03 3.56-.5.88-1 1.74-1.5 2.61-10.64 18.29-22.38 35.76-34.79 52.08-48.21 64.41-136.13 76.41-201.3 120.77-3.92 2.65-7.76 5.44-11.5 8.36a168 168 0 0 0-8.87 7.44c-2.85 2.53-5.66 5.19-8.43 7.96H-.19V-.07h405.51Z" style="fill:#553f98"/><path d="M560.19 44.5v159.41h-75.86c-7 0-16.36-.28-27.54 1-11.18 1.27-18.46 10.78-23.67 16.48-5.21 5.69-26.96 45.33-29.45 48.84-2.48 3.52-4.72 8.48-8.24 9.94-25.09-7.94-29.39-18.97-33.45-26.18s-6.6-30.42-5.33-46.42 7.09-81.44 15.09-109.44c4.62-16.15 10.19-26.03 20.09-33.37 7.26-5.39 16.84-9.41 30.08-13.53 7.7-2.4 22.95-4.2 41.97-5.38 27.95-1.76 64.05-2.21 96.31-1.35Z" class="cls-3"/><path d="M390.69 65.12s.14-4.14.18-4.82.98-2.1 2.18-3.09c7.53-6.19 16.32-11.27 25.04-13.77 8.73-2.5 23.72-4.91 33.86-3.36 10.13 1.55 10 2.41 10 2.41l2.68 3.14s-8.36 2.64-17.22 3.82-29.63 4.54-40.72 9.41c-11.09 4.86-16 6.27-16 6.27Zm63.08 41.74c0 2.27-.31 4.46-.88 6.55-2.24 8.15-8.56 14.62-16.63 17.05-2.26.68-4.66 1.05-7.14 1.05s-4.88-.37-7.14-1.05c-8.07-2.44-14.39-8.9-16.63-17.05-.58-2.08-.88-4.28-.88-6.55 0-2.7.43-5.3 1.24-7.73 2.5-7.59 8.59-13.55 16.27-15.87 2.26-.69 4.66-1.05 7.14-1.05s4.88.37 7.14 1.05c7.67 2.32 13.77 8.28 16.27 15.87.81 2.43 1.24 5.03 1.24 7.73Z" class="cls-3"/><path d="M450.75 106.86c0 1.99-.27 3.92-.77 5.75a21.68 21.68 0 0 1-14.59 14.96c-1.98.6-4.09.92-6.27.92s-4.29-.32-6.27-.92c-7.08-2.14-12.63-7.81-14.59-14.96-.51-1.83-.77-3.76-.77-5.75 0-2.37.38-4.65 1.09-6.78 2.2-6.66 7.54-11.89 14.28-13.92 1.98-.6 4.09-.92 6.27-.92s4.28.32 6.27.92a21.7 21.7 0 0 1 14.28 13.92c.71 2.13 1.09 4.41 1.09 6.78Z" class="cls-4"/><path d="M447.5 106.86c0 1.69-.23 3.33-.66 4.88a18.44 18.44 0 0 1-12.4 12.72c-1.69.51-3.47.78-5.33.78s-3.64-.27-5.33-.79a18.42 18.42 0 0 1-12.4-12.72 18.3 18.3 0 0 1-.66-4.88c0-2.01.32-3.95.92-5.77 1.87-5.66 6.41-10.11 12.13-11.83 1.69-.51 3.47-.79 5.33-.79s3.64.27 5.33.78a18.45 18.45 0 0 1 12.14 11.84c.6 1.81.92 3.75.92 5.77Z" class="cls-3"/><path d="M444.02 106.86c0 1.37-.18 2.7-.53 3.96a14.93 14.93 0 0 1-10.05 10.31c-1.37.41-2.82.63-4.32.63s-2.95-.22-4.32-.64c-4.88-1.47-8.7-5.38-10.05-10.31-.35-1.26-.53-2.59-.53-3.96 0-1.63.26-3.21.75-4.68a14.92 14.92 0 0 1 14.16-10.23c1.5 0 2.95.22 4.32.63 4.64 1.4 8.32 5.01 9.84 9.59.49 1.47.75 3.04.75 4.68Zm116.17 35.32v38.98a24.62 24.62 0 0 1-8.68-12.94c-.58-2.08-.88-4.28-.88-6.55 0-2.7.43-5.3 1.23-7.73a24.7 24.7 0 0 1 8.33-11.76Z" class="cls-3"/><path d="M560.19 146.17v31a21.56 21.56 0 0 1-5.77-9.75 21.8 21.8 0 0 1-.77-5.75c0-2.37.38-4.65 1.08-6.78 1.1-3.34 3-6.32 5.46-8.72Z" class="cls-4"/><path d="M560.19 151.15v21.02a18.2 18.2 0 0 1-2.64-5.61c-.43-1.56-.66-3.2-.66-4.89 0-2.01.32-3.95.92-5.77.56-1.71 1.37-3.3 2.38-4.75Z" class="cls-3"/><circle cx="480.74" cy="161.67" r="34.18" class="cls-3"/><path d="M507.93 152.84h-17.72c-.36 0-.64-.29-.64-.64v-17.72c0-.36-.29-.64-.64-.64h-16.37c-.36 0-.64.29-.64.64v17.72c0 .36-.29.64-.64.64h-17.72c-.36 0-.64.29-.64.64v16.37c0 .36.29.64.64.64h17.72c.36 0 .64.29.64.64v17.72c0 .36.29.64.64.64h16.37c.36 0 .64-.29.64-.64v-17.72c0-.36.29-.64.64-.64h17.72c.36 0 .64-.29.64-.64v-16.37c0-.36-.29-.64-.64-.64Z" class="cls-3"/><circle cx="480.74" cy="161.67" r="6.6" class="cls-3"/><path d="M474.73 146.7h12.01c.26 0 .43-.28.3-.52l-6.01-10.76a.348.348 0 0 0-.61 0l-6.01 10.76c-.13.23.04.52.3.52Zm12.01 29.95h-12.01c-.26 0-.43.28-.3.52l6.01 10.76c.13.24.47.24.61 0l6.01-10.76a.35.35 0 0 0-.3-.52Zm8.97-20.98v12.01c0 .26.28.43.52.3l10.76-6.01c.24-.13.24-.47 0-.61l-10.76-6.01a.35.35 0 0 0-.52.3Zm-29.95 12.01v-12.01c0-.26-.28-.43-.52-.3l-10.76 6.01c-.24.13-.24.47 0 .61l10.76 6.01c.23.13.52-.04.52-.3Z" class="cls-3"/><circle cx="528.22" cy="77.34" r="11.13" class="cls-3"/><circle cx="528.22" cy="77.34" r="9.23" class="cls-3"/><circle cx="483.18" cy="77.34" r="8.04" class="cls-3"/><circle cx="551.44" cy="103.01" r="8.04" class="cls-3"/><circle cx="528.05" cy="103.3" r="2.16" class="cls-3"/><circle cx="504.72" cy="103.01" r="8.04" class="cls-3"/><path d="M489.41 75.32h-12.46c-.08 0-.15.07-.15.15v3.75c0 .08.07.15.15.15h12.46c.08 0 .15-.07.15-.15v-3.75c0-.08-.07-.15-.15-.15Zm66.96 23.98h-9.86c-.06 0-.12.03-.12.07v1.88s.05.07.12.07h9.86c.06 0 .12-.03.12-.07v-1.88s-.05-.07-.12-.07Zm0 2.7h-9.86c-.06 0-.12.03-.12.07v1.88s.05.07.12.07h9.86c.06 0 .12-.03.12-.07v-1.88s-.05-.07-.12-.07Zm0 2.7h-9.86c-.06 0-.12.03-.12.07v1.88s.05.07.12.07h9.86c.06 0 .12-.03.12-.07v-1.88s-.05-.07-.12-.07Z" class="cls-3"/><path d="M525.11 80.88v-6.42h5.23c.22 0 .42.05.6.17s.33.26.44.44.17.38.17.6v1.77c0 .21-.06.41-.17.6-.11.18-.26.33-.44.44s-.38.16-.6.16h-4.15v2.25h-1.07Zm1.23-3.33h3.96s.08-.01.11-.04.05-.07.05-.12v-1.7s-.02-.08-.05-.11-.07-.05-.11-.05h-3.96s-.08.02-.11.05-.05.07-.05.11v1.7s.02.09.05.12.07.04.11.04Zm3.97 3.33-1.97-2.36h1.4l1.78 2.11v.25z" style="stroke-width:.37px;fill:#bca3ce;stroke:#553f98;stroke-linejoin:round"/><path d="M500.64 99.02h5.58v5.58h-5.58z" class="cls-3"/><path d="M503.21 101.41h5.58v5.58h-5.58z" class="cls-3"/></svg>