<svg xmlns="http://www.w3.org/2000/svg" id="Layer_1" data-name="Layer 1" viewBox="0 0 560 320"><defs><style>.cls-1{fill:#372869}.cls-5{stroke:#553f98;stroke-linejoin:round;stroke-width:.5px}.cls-5,.cls-6{fill:#bca3ce}.cls-7{fill:#553f98}</style></defs><path d="M17.43 162c4.25.09 9.03 3.22 9.56 5.43 0 0 16.08 57.82 20.37 64.16s7.32 9.14 12.96 9.09 14.17-3.36 16.74-13.05c2.56-9.7 9.75-40.71 8.49-65.96s-6.8-52.03-6.8-52.03L17.42 162Z" class="cls-5"/><ellipse cx="37.28" cy="99.02" class="cls-5" rx="21.36" ry="21.27"/><path d="m10.45 132.26-1.68 1.55-2.95-3.19-4.65-5.03-.41-.44v-3.36l2.05 2.22 4.57 4.94z" class="cls-5"/><g id="Buttons"><circle cx="37.28" cy="82.09" r="8.68" class="cls-5"/><circle cx="37.28" cy="115.94" r="8.68" class="cls-5"/><circle cx="14.84" cy="137.45" r="11.3" class="cls-5"/><path d="M5.51 116.68c0 2.8-1.02 5.35-2.7 7.33-.49.58-1.04 1.1-1.64 1.58-.13.1-.27.2-.41.3v-18.42c2.88 2.04 4.75 5.41 4.75 9.21Z" class="cls-5"/><circle cx="54.21" cy="99.02" r="8.68" class="cls-5"/><circle cx="20.36" cy="99.02" r="8.68" class="cls-5"/></g><path d="M.76-.02H560v320H.76z" class="cls-1"/><path d="M405.14-.12c-3.45 16.81-8.27 33.52-14.2 49.97-.77 2.14-1.56 4.27-2.37 6.4-3.15 8.31-6.6 16.53-10.28 24.65a462 462 0 0 1-18.36 36.11c-.66 1.19-1.34 2.38-2.03 3.56-.5.88-1 1.74-1.5 2.61-10.64 18.29-22.38 35.76-34.79 52.08-48.21 64.41-136.13 76.41-201.3 120.77-3.92 2.65-7.76 5.44-11.5 8.36a168 168 0 0 0-8.87 7.44c-2.85 2.53-5.66 5.19-8.43 7.96H-.37V-.12z" class="cls-7"/><path id="path5" d="M49.37 83.99c-3.94 5.35-7.69 6.36-9.7 7.48a12.9 12.9 0 0 1-6.4 1.68c-6.34 0-11.29-2.07-14.85-6.19-3.56-4.14-5.34-9.94-5.34-17.46 0-8.89 2.24-16.43 6.75-22.66 4.5-6.21 10.48-9.3 17.92-9.3 5.65 0 10.27 1.59 13.88 4.77 3.62 3.17 5.41 8.16 5.41 14.94H46.12c0-3.25-.71-5.53-2.15-6.84-1.43-1.3-3.48-1.95-6.17-1.95-4.39 0-7.77 2.15-10.19 6.42-2.4 4.29-3.62 9.16-3.62 14.63 0 3.73.79 6.79 2.34 9.14 1.57 2.38 3.91 3.56 7.02 3.56s5.76-.93 7.58-2.77c1.8-1.82 3.13-4.18 3.98-7.06H34.74l1.64-9.9h19.83l-1.68 9.59s-1.26 6.54-5.18 11.89Z"/><path id="path7" d="M224.05 84.01c-3.92 5.36-7.69 6.36-9.68 7.48-2.01 1.12-4.14 1.68-6.42 1.68q-9.51 0-14.85-6.21c-3.54-4.12-5.32-9.94-5.32-17.44 0-8.89 2.24-16.45 6.75-22.66 4.5-6.21 10.48-9.32 17.9-9.32 5.66 0 10.28 1.59 13.9 4.78 3.6 3.19 5.41 8.16 5.41 14.94H220.8c0-3.25-.72-5.53-2.15-6.82-1.41-1.31-3.48-1.97-6.17-1.97-4.37 0-7.75 2.15-10.17 6.44-2.42 4.27-3.62 9.14-3.62 14.62 0 3.75.77 6.8 2.34 9.16q2.355 3.54 7.02 3.54c4.665 0 5.76-.91 7.56-2.75s3.13-4.19 4-7.07h-10.19l1.66-9.9h19.83l-1.68 9.59s-1.26 6.53-5.2 11.91Z"/><path id="polygon9" d="m143.68 38.93-8.88 52.93h-9.55l7.52-41.02-16.58 41.02h-7.83l-3.62-41-5.7 41h-9.67l8.84-52.93h13.55l3.03 37.27 15.24-37.37z"/><path id="polygon11" d="M153.79 59.42h15.6l-1.63 10.27h-15.6l-2.01 11.27h17.61l-1.74 10.9h-27.76l8.78-52.99h27.43l-1.68 10.98h-17.26z"/><path id="path13" d="M70.64 38.83 49.3 91.86h10.4l3.81-10.34h13.61l.89 10.34h10.07l-6.03-53.03zm-3.83 33.64 7.73-21.09 1.8 21.09z"/><path id="polygon15" d="M244.44 59.44h15.58l-1.6 10.25h-15.6l-2.03 11.27h17.63l-1.74 10.92h-27.76l8.77-53.01h27.44l-1.69 10.98h-17.26z"/><path id="path17" d="m278.93 38.85-21.34 53.03h10.42l3.79-10.34h13.63l.89 10.34h10.05l-6.03-53.03zm-3.81 33.62 7.71-21.09 1.82 21.09z"/><path id="path19" d="m312.49 62.17 2.32-13.05h5.57c2.05 0 3.58.37 4.6 1.1 1.02.75 1.53 2.24 1.53 4.48 0 2.51-.83 4.37-2.47 5.61-1.66 1.24-3.77 1.86-6.32 1.86h-5.22Zm-6.28-23.3-8.78 53.01h10.15l3.4-20.2h4.7l7.85 20.2h11.64l-8.7-22.37c3.04-1.55 5.65-4.12 7.46-6.8 1.89-2.77 2.84-5.99 2.84-9.69 0-5.01-1.12-8.6-3.38-10.83-2.24-2.22-5.43-3.32-9.53-3.32z"/><path d="m56.24 4.76-1.68 9.59s-1.26 6.53-5.19 11.89c-3.94 5.35-7.69 6.36-9.7 7.48a12.9 12.9 0 0 1-6.4 1.68c-6.34 0-11.29-2.07-14.85-6.19-3.56-4.13-5.33-9.93-5.33-17.45 0-4.23.51-8.16 1.53-11.78h11.63c-1.49 3.57-2.24 7.49-2.24 11.79 0 3.74.79 6.79 2.34 9.15 1.56 2.38 3.9 3.56 7.02 3.56s5.76-.93 7.58-2.77c1.79-1.82 3.13-4.17 3.98-7.05H34.76l1.64-9.9zm174.69 0-1.68 9.59s-1.26 6.53-5.2 11.91c-3.93 5.35-7.7 6.36-9.69 7.48-2.01 1.12-4.14 1.68-6.42 1.68-6.34 0-11.29-2.07-14.84-6.21-3.54-4.11-5.32-9.93-5.32-17.43 0-4.24.51-8.17 1.53-11.8h11.63c-1.5 3.55-2.24 7.49-2.24 11.8 0 3.75.77 6.8 2.34 9.16q2.355 3.54 7.02 3.54c4.665 0 5.76-.91 7.56-2.75 1.8-1.83 3.13-4.19 4-7.07h-10.19l1.66-9.9zM95.07-.02h8.71l-4.74 34.13h-9.67zm34.91 0-13.79 34.13h-7.83L105.35-.02h7.94l1.5 18.47 7.53-18.47zm10.54 0-5.72 34.13h-9.55l6.26-34.13zm11.64 11.95-2.01 11.27h17.61l-1.74 10.91h-27.76l5.65-34.13h10.19l-.31 1.69h15.6l-1.63 10.26z" class="cls-1"/><path id="path13-2" d="M84.19-.02h-9.11l1.26 14.73h-9.53l5.4-14.73h-9.18L49.3 34.11h10.4l3.8-10.35h13.61L78 34.11h10.08z" class="cls-1" data-name="path13"/><path d="m242.82 11.93-2.03 11.27h17.63l-1.74 10.92h-27.76l5.65-34.14h10.18l-.31 1.7h15.58l-1.6 10.25z" class="cls-1"/><path id="path17-2" d="M292.49-.02h-9.11l1.27 14.73h-9.53L280.5-.02h-9.17l-13.74 34.14h10.42l3.79-10.34h13.62l.89 10.34h10.06z" class="cls-1" data-name="path17"/><path id="path19-2" d="M333.93 4.95c1.04-1.52 1.79-3.17 2.26-4.97h-10.21c-.4 1.05-1.06 1.9-1.95 2.57-1.66 1.24-3.77 1.86-6.32 1.86h-5.22l.79-4.43h-10.19l-5.66 34.14h10.15l3.4-20.2h4.7l7.85 20.2h11.64l-8.7-22.36c3.03-1.55 5.64-4.12 7.46-6.81" class="cls-1" data-name="path19"/><path id="path5-2" d="M49.37 199.51c-3.94 5.35-7.69 6.36-9.7 7.48a12.9 12.9 0 0 1-6.4 1.68c-6.34 0-11.29-2.07-14.85-6.19-3.56-4.14-5.34-9.94-5.34-17.46 0-8.89 2.24-16.43 6.75-22.66 4.5-6.21 10.48-9.3 17.92-9.3 5.65 0 10.27 1.59 13.88 4.77 3.62 3.17 5.41 8.16 5.41 14.94H46.12c0-3.25-.71-5.53-2.15-6.84-1.43-1.3-3.48-1.95-6.17-1.95-4.39 0-7.77 2.15-10.19 6.42-2.4 4.29-3.62 9.16-3.62 14.63 0 3.73.79 6.79 2.34 9.14 1.57 2.38 3.91 3.56 7.02 3.56s5.76-.93 7.58-2.77c1.8-1.82 3.13-4.18 3.98-7.06H34.74l1.64-9.9h19.83l-1.68 9.59s-1.26 6.54-5.18 11.89Z" class="cls-1" data-name="path5"/><path id="path7-2" d="M224.05 199.53c-3.92 5.36-7.69 6.36-9.68 7.48-2.01 1.12-4.14 1.68-6.42 1.68q-9.51 0-14.85-6.21c-3.54-4.12-5.32-9.94-5.32-17.44 0-8.89 2.24-16.45 6.75-22.66 4.5-6.21 10.48-9.32 17.9-9.32 5.66 0 10.28 1.59 13.9 4.78 3.6 3.19 5.41 8.16 5.41 14.94H220.8c0-3.25-.72-5.53-2.15-6.82-1.41-1.31-3.48-1.97-6.17-1.97-4.37 0-7.75 2.15-10.17 6.44-2.42 4.27-3.62 9.14-3.62 14.62 0 3.75.77 6.8 2.34 9.16q2.355 3.54 7.02 3.54c4.665 0 5.76-.91 7.56-2.75s3.13-4.19 4-7.07h-10.19l1.66-9.9h19.83l-1.68 9.59s-1.26 6.53-5.2 11.91Z" class="cls-1" data-name="path7"/><path id="polygon9-2" d="m143.68 154.44-8.88 52.94h-9.55l7.52-41.03-16.58 41.03h-7.83l-3.62-41.01-5.7 41.01h-9.67l8.84-52.94h13.55l3.03 37.28 15.24-37.37z" class="cls-1" data-name="polygon9"/><path id="polygon11-2" d="M153.79 174.94h15.6l-1.63 10.26h-15.6l-2.01 11.27h17.61l-1.74 10.91h-27.76l8.78-52.99h27.43l-1.68 10.98h-17.26z" class="cls-1" data-name="polygon11"/><path id="path13-3" d="M70.64 154.35 49.3 207.38h10.4l3.81-10.34h13.61l.89 10.34h10.07l-6.03-53.03zm-3.83 33.64 7.73-21.09 1.8 21.09z" class="cls-1" data-name="path13"/><path id="polygon15-2" d="M244.44 174.96h15.58l-1.6 10.24h-15.6l-2.03 11.27h17.63l-1.74 10.92h-27.76l8.77-53h27.44l-1.69 10.98h-17.26z" class="cls-1" data-name="polygon15"/><path id="path17-3" d="m278.93 154.37-21.34 53.03h10.42l3.79-10.34h13.63l.89 10.34h10.05l-6.03-53.03zm-3.81 33.62 7.71-21.09 1.82 21.09z" class="cls-1" data-name="path17"/><path id="path19-3" d="m312.49 177.68 2.32-13.05h5.57c2.05 0 3.58.37 4.6 1.1 1.02.75 1.53 2.24 1.53 4.48 0 2.51-.83 4.37-2.47 5.61-1.66 1.24-3.77 1.86-6.32 1.86h-5.22Zm-6.28-23.29-8.78 53.01h10.15l3.4-20.2h4.7l7.85 20.2h11.64l-8.7-22.37c3.04-1.55 5.65-4.12 7.46-6.8 1.89-2.77 2.84-5.99 2.84-9.69 0-5.01-1.12-8.6-3.38-10.83-2.24-2.22-5.43-3.32-9.53-3.32z" class="cls-1" data-name="path19"/><path id="path5-3" d="M49.37 141.75c-3.94 5.35-7.69 6.36-9.7 7.48a12.9 12.9 0 0 1-6.4 1.68c-6.34 0-11.29-2.07-14.85-6.19-3.56-4.14-5.34-9.94-5.34-17.46 0-8.89 2.24-16.43 6.75-22.66 4.5-6.21 10.48-9.3 17.92-9.3 5.65 0 10.27 1.59 13.88 4.77 3.62 3.17 5.41 8.16 5.41 14.94H46.12c0-3.25-.71-5.53-2.15-6.84-1.43-1.3-3.48-1.95-6.17-1.95-4.39 0-7.77 2.15-10.19 6.42-2.4 4.29-3.62 9.16-3.62 14.63 0 3.73.79 6.79 2.34 9.14 1.57 2.38 3.91 3.56 7.02 3.56s5.76-.93 7.58-2.77c1.8-1.82 3.13-4.18 3.98-7.06H34.74l1.64-9.9h19.83l-1.68 9.59s-1.26 6.54-5.18 11.89Z" class="cls-1" data-name="path5"/><path id="path7-3" d="M224.05 141.77c-3.92 5.36-7.69 6.36-9.68 7.48-2.01 1.12-4.14 1.68-6.42 1.68q-9.51 0-14.85-6.21c-3.54-4.12-5.32-9.94-5.32-17.44 0-8.89 2.24-16.45 6.75-22.66 4.5-6.21 10.48-9.32 17.9-9.32 5.66 0 10.28 1.59 13.9 4.78 3.6 3.19 5.41 8.16 5.41 14.94H220.8c0-3.25-.72-5.53-2.15-6.82-1.41-1.31-3.48-1.97-6.17-1.97-4.37 0-7.75 2.15-10.17 6.44-2.42 4.27-3.62 9.14-3.62 14.62 0 3.75.77 6.8 2.34 9.16q2.355 3.54 7.02 3.54c4.665 0 5.76-.91 7.56-2.75s3.13-4.19 4-7.07h-10.19l1.66-9.9h19.83l-1.68 9.59s-1.26 6.53-5.2 11.91Z" class="cls-1" data-name="path7"/><path id="polygon9-3" d="m143.68 96.69-8.88 52.93h-9.55l7.52-41.02-16.58 41.02h-7.83l-3.62-41-5.7 41h-9.67l8.84-52.93h13.55l3.03 37.27 15.24-37.37z" class="cls-1" data-name="polygon9"/><path id="polygon11-3" d="M153.79 117.18h15.6l-1.63 10.26h-15.6l-2.01 11.27h17.61l-1.74 10.91h-27.76l8.78-52.99h27.43l-1.68 10.98h-17.26z" class="cls-1" data-name="polygon11"/><path id="path13-4" d="M70.64 96.59 49.3 149.62h10.4l3.81-10.34h13.61l.89 10.34h10.07l-6.03-53.03zm-3.83 33.64 7.73-21.09 1.8 21.09z" class="cls-1" data-name="path13"/><path id="polygon15-3" d="M244.44 117.2h15.58l-1.6 10.24h-15.6l-2.03 11.28h17.63l-1.74 10.92h-27.76l8.77-53.01h27.44l-1.69 10.98h-17.26z" class="cls-1" data-name="polygon15"/><path id="path17-4" d="m278.93 96.61-21.34 53.03h10.42l3.79-10.34h13.63l.89 10.34h10.05l-6.03-53.03zm-3.81 33.62 7.71-21.09 1.82 21.09z" class="cls-1" data-name="path17"/><path id="path19-4" d="m312.49 119.92 2.32-13.05h5.57c2.05 0 3.58.37 4.6 1.1 1.02.75 1.53 2.24 1.53 4.48 0 2.51-.83 4.37-2.47 5.61-1.66 1.24-3.77 1.86-6.32 1.86h-5.22Zm-6.28-23.29-8.78 53.01h10.15l3.4-20.2h4.7l7.85 20.2h11.64l-8.7-22.37c3.04-1.55 5.65-4.12 7.46-6.8 1.89-2.77 2.84-5.99 2.84-9.69 0-5.01-1.12-8.6-3.38-10.83-2.24-2.22-5.43-3.32-9.53-3.32z" class="cls-1" data-name="path19"/><path d="M36.4 293.54h19.84l-1.68 9.59s-1.26 6.54-5.19 11.89c-1.75 2.39-3.47 3.91-5.01 4.96H20.43q-1.065-.9-2.01-1.98c-3.56-4.14-5.33-9.94-5.33-17.46 0-8.89 2.24-16.43 6.74-22.66 4.51-6.2 10.48-9.3 17.92-9.3 5.65 0 10.27 1.59 13.89 4.78 3.61 3.17 5.41 8.16 5.41 14.94H46.13c0-3.25-.72-5.53-2.15-6.84-1.43-1.3-3.48-1.95-6.17-1.95-4.39 0-7.77 2.14-10.19 6.42-2.39 4.29-3.61 9.16-3.61 14.63 0 3.73.79 6.79 2.34 9.14 1.56 2.38 3.9 3.56 7.02 3.56s5.76-.93 7.58-2.76c1.79-1.82 3.13-4.18 3.98-7.06H34.76zm174.69 0h19.84l-1.68 9.59s-1.26 6.54-5.2 11.91c-1.74 2.37-3.45 3.89-4.98 4.94H195.1c-.71-.59-1.38-1.25-2-1.98-3.54-4.12-5.32-9.94-5.32-17.44 0-8.89 2.24-16.45 6.75-22.66 4.5-6.2 10.47-9.32 17.9-9.32 5.66 0 10.28 1.59 13.9 4.78 3.59 3.19 5.41 8.16 5.41 14.94H220.8c0-3.24-.72-5.53-2.15-6.82-1.41-1.31-3.48-1.97-6.17-1.97-4.36 0-7.75 2.14-10.16 6.44-2.42 4.27-3.62 9.14-3.62 14.61 0 3.75.77 6.81 2.34 9.16q2.355 3.54 7.02 3.54c4.665 0 5.76-.91 7.56-2.74 1.8-1.84 3.13-4.2 4-7.08h-10.19zm-67.41-23.58-8.39 50.02h-9.51l6.99-38.11-15.4 38.11h-9.27l-3.36-38.09-5.3 38.09h-9.58l8.35-50.02h13.55l3.03 37.27 15.24-37.37zm11.85 10.92-1.74 9.57h15.6l-1.63 10.27h-15.6l-2.01 11.27h17.61l-1.28 7.99h-27.74l8.3-50.08h27.43l-1.68 10.98z" class="cls-1"/><path id="path13-5" d="M82.04 269.86h-11.4l-20.17 50.12h10.3l2.73-7.43h13.61l.64 7.43h10zM66.81 303.5l7.73-21.09 1.8 21.09z" class="cls-1" data-name="path13"/><path d="m246.18 280.88-1.74 9.59h15.58l-1.6 10.25h-15.6l-2.03 11.27h17.63l-1.27 7.99H229.4l8.29-50.08h27.44l-1.69 10.98z" class="cls-1"/><path id="path17-5" d="M290.34 269.88h-11.41l-20.16 50.1h10.31l2.72-7.41h13.62l.64 7.41h9.98zm-15.22 33.62 7.71-21.09 1.82 21.09z" class="cls-1" data-name="path17"/><path id="path19-5" d="M333.93 293.74c1.89-2.77 2.84-6 2.84-9.69 0-5.01-1.12-8.6-3.38-10.83-2.24-2.22-5.43-3.32-9.53-3.32h-17.65l-8.29 50.08h10.15l2.91-17.27h4.7l6.71 17.27h11.64l-7.56-19.44c3.03-1.55 5.64-4.12 7.46-6.8m-9.9-2.4c-1.66 1.24-3.77 1.85-6.32 1.85h-5.22l2.32-13.04h5.57c2.05 0 3.57.36 4.6 1.1 1.02.75 1.53 2.24 1.53 4.48 0 2.52-.84 4.37-2.48 5.61" class="cls-1" data-name="path19"/><path id="path5-4" d="M49.37 257.26c-3.94 5.35-7.69 6.36-9.7 7.48a12.9 12.9 0 0 1-6.4 1.68c-6.34 0-11.29-2.07-14.85-6.19-3.56-4.14-5.34-9.94-5.34-17.46 0-8.89 2.24-16.43 6.75-22.66 4.5-6.21 10.48-9.3 17.92-9.3 5.65 0 10.27 1.59 13.88 4.77 3.62 3.17 5.41 8.16 5.41 14.94H46.12c0-3.25-.71-5.53-2.15-6.84-1.43-1.3-3.48-1.95-6.17-1.95-4.39 0-7.77 2.15-10.19 6.42-2.4 4.29-3.62 9.16-3.62 14.63 0 3.73.79 6.79 2.34 9.14 1.57 2.38 3.91 3.56 7.02 3.56s5.76-.93 7.58-2.77c1.8-1.82 3.13-4.18 3.98-7.06H34.74l1.64-9.9h19.83l-1.68 9.59s-1.26 6.54-5.18 11.89Z" class="cls-1" data-name="path5"/><path id="path7-4" d="M224.05 257.28c-3.92 5.36-7.69 6.36-9.68 7.48-2.01 1.12-4.14 1.68-6.42 1.68q-9.51 0-14.85-6.21c-3.54-4.12-5.32-9.94-5.32-17.44 0-8.89 2.24-16.45 6.75-22.66 4.5-6.21 10.48-9.32 17.9-9.32 5.66 0 10.28 1.59 13.9 4.78 3.6 3.19 5.41 8.16 5.41 14.94H220.8c0-3.25-.72-5.53-2.15-6.82-1.41-1.31-3.48-1.97-6.17-1.97-4.37 0-7.75 2.15-10.17 6.44-2.42 4.27-3.62 9.14-3.62 14.62 0 3.75.77 6.8 2.34 9.16q2.355 3.54 7.02 3.54c4.665 0 5.76-.91 7.56-2.75s3.13-4.19 4-7.07h-10.19l1.66-9.9h19.83l-1.68 9.59s-1.26 6.53-5.2 11.91Z" class="cls-1" data-name="path7"/><path id="polygon9-4" d="m143.68 212.2-8.88 52.93h-9.55l7.52-41.02-16.58 41.02h-7.83l-3.62-41-5.7 41h-9.67l8.84-52.93h13.55l3.03 37.27 15.24-37.37z" class="cls-1" data-name="polygon9"/><path id="polygon11-4" d="M153.79 232.69h15.6l-1.63 10.27h-15.6l-2.01 11.27h17.61l-1.74 10.9h-27.76l8.78-52.99h27.43l-1.68 10.98h-17.26z" class="cls-1" data-name="polygon11"/><path id="path13-6" d="M70.64 212.1 49.3 265.13h10.4l3.81-10.34h13.61l.89 10.34h10.07l-6.03-53.03zm-3.83 33.64 7.73-21.09 1.8 21.09z" class="cls-1" data-name="path13"/><path id="polygon15-4" d="M244.44 232.71h15.58l-1.6 10.25h-15.6l-2.03 11.27h17.63l-1.74 10.92h-27.76l8.77-53.01h27.44l-1.69 10.98h-17.26z" class="cls-1" data-name="polygon15"/><path id="path17-6" d="m278.93 212.12-21.34 53.03h10.42l3.79-10.34h13.63l.89 10.34h10.05l-6.03-53.03zm-3.81 33.62 7.71-21.09 1.82 21.09z" class="cls-1" data-name="path17"/><path id="path19-6" d="m312.49 235.44 2.32-13.05h5.57c2.05 0 3.58.37 4.6 1.1 1.02.75 1.53 2.24 1.53 4.48 0 2.51-.83 4.37-2.47 5.61-1.66 1.24-3.77 1.86-6.32 1.86h-5.22Zm-6.28-23.3-8.78 53.01h10.15l3.4-20.2h4.7l7.85 20.2h11.64l-8.7-22.37c3.04-1.55 5.65-4.12 7.46-6.8 1.89-2.77 2.84-5.99 2.84-9.69 0-5.01-1.12-8.6-3.38-10.83-2.24-2.22-5.43-3.32-9.53-3.32z" class="cls-1" data-name="path19"/><path id="path21" d="M100.39 154.2c15.95-18.29 35.17-28.08 42.93-21.93 7.75 6.17 1.1 26-14.87 44.26-15.95 18.29-35.17 28.08-42.91 21.93-7.77-6.17-1.1-25.99 14.85-44.26" style="fill:red"/><path id="path23" d="M163.79 154.25c16.39-18.15 36.12-27.91 44.09-21.78 7.96 6.13 1.12 25.82-15.27 43.98-16.39 18.17-36.12 27.93-44.07 21.8-7.96-6.13-1.14-25.82 15.25-44" style="fill:#0c9"/><path id="path25" d="M225.37 154.25c16.39-18.15 36.14-27.91 44.09-21.78 7.96 6.13 1.12 25.82-15.25 43.98-16.39 18.17-36.13 27.93-44.09 21.8s-1.12-25.82 15.25-44" style="fill:#09f"/><path d="m422.9 55.78.71-.68.66.72.75-.63.62.76.79-.58.57.8.83-.54.51.84.86-.48.47.86.88-.43.41.9.91-.37.35.91.94-.31.29.94.95-.26.24.96.96-.19.17.96.98-.13.11.98.98-.08.05.99.99-.01-.01.98.98.05-.07.98.97.12-.13.97.97.17-.2.97.96.23-.26.95.94.3-.31.93.92.35-.37.91.89.41-.43.89.87.46-.48.86.83.52-.53.82.8.57-.59.79.76.62-.63.75.72.67-.68.71.68.71-.72.66.63.75-.76.62.59.79-.8.57.53.82-.83.52.48.86-.87.47.43.88-.89.41.37.91-.92.35.31.93-.94.3.26.95-.96.23.2.97-.97.17.13.98-.97.11.07.98-.98.05.01.98h-.99l-.05.98-.98-.07-.11.97-.98-.13-.17.97-.96-.2-.24.96-.95-.26-.29.94-.94-.31-.35.91-.91-.37-.41.9-.88-.43-.47.87-.86-.49-.51.84-.83-.53-.57.79-.79-.58-.62.76-.75-.63-.66.72-.71-.68-.71.68-.67-.72-.75.63-.62-.76-.79.58-.57-.79-.82.53-.52-.84-.86.49-.46-.87-.89.43-.41-.9-.91.37-.35-.91-.93.31-.3-.94-.95.26-.23-.96-.97.2-.17-.97-.97.13-.12-.97-.98.07-.05-.98h-.98l.01-.98-.98-.05.07-.98-.98-.11.13-.98-.96-.17.19-.97-.95-.23.25-.95-.94-.3.31-.93-.91-.35.37-.91-.9-.41.43-.88-.86-.47.48-.86-.84-.52.54-.82-.8-.57.58-.79-.76-.62.63-.75-.72-.66.68-.71-.68-.71.72-.67-.63-.75.76-.62-.58-.79.8-.57-.54-.82.84-.52-.48-.86.86-.46-.43-.89.9-.41-.37-.91.91-.35-.31-.93.94-.3-.25-.95.95-.23-.19-.97.96-.17-.13-.97.98-.12-.07-.98.98-.05-.01-.98.98.01.05-.99.98.08.12-.98.97.13.17-.96.97.19.23-.96.95.26.3-.94.93.31.35-.91.91.37.41-.9.89.43.46-.86.86.48.52-.84.82.54.57-.8.79.58.62-.76.75.63.67-.72z" class="cls-5"/><path d="M560 55.15v200.84c-57.18.63-113.72-2.25-169.03-8.52-16.28-1.85-28.5-15.95-31.13-32.12-5.49-33.74-3.01-87.32 6.03-143.15.95-5.87 5.73-10.48 11.67-10.93 10.07-.77 20.17-1.46 30.3-2.08.78-.05 1.56-.1 2.34-.14.06-.01.12-.01.19-.01.28-.03.56-.04.84-.05 6.99-.43 13.99-.81 21-1.16h.12c.3-.02.6-.03.9-.04 42.02-2.09 84.44-2.96 126.77-2.63Z" class="cls-5"/><path d="M431.2 148.3c0 3.21-.49 6.31-1.39 9.22-3.02 9.71-10.69 17.38-20.4 20.4-2.91.91-6.01 1.39-9.22 1.39s-6.31-.49-9.22-1.39c-9.62-2.99-17.23-10.54-20.31-20.12-.96-2.99-1.48-6.18-1.48-9.5 0-3.11.46-6.11 1.31-8.94 2.96-9.84 10.68-17.63 20.49-20.68 2.91-.91 6.01-1.39 9.22-1.39s6.31.49 9.22 1.39c9.71 3.02 17.38 10.69 20.4 20.4.91 2.91 1.39 6.01 1.39 9.22Z" class="cls-5"/><path d="M400.19 179.06c-3.06 0-6.08-.45-8.97-1.33v-20.11l8.97-9.33 8.97 9.32v20.11c-2.9.88-5.91 1.33-8.97 1.33Z" class="cls-6"/><path d="m400.19 148.66.11.12 8.61 8.94v19.82c-2.82.84-5.75 1.27-8.72 1.27s-5.9-.43-8.72-1.27v-19.82l8.6-8.94zm0-.72-.14.14-.22.23-.12.12-8.74 9.09v20.39c2.91.91 6.01 1.39 9.22 1.39s6.31-.49 9.22-1.39v-20.39l-.05-.06-8.69-9.03-.48-.5Z" class="cls-7"/><path d="M391.22 139.24v-20.38c2.89-.88 5.91-1.33 8.97-1.33s6.08.45 8.97 1.33v20.38l-8.97 9.33z" class="cls-6"/><path d="M400.19 117.78c2.97 0 5.9.43 8.72 1.26v20.09l-8.6 8.95-.12.12-.11-.12-8.61-8.95v-20.09a30.5 30.5 0 0 1 8.72-1.26m0-.5c-3.21 0-6.31.49-9.22 1.39v20.66l.1.11 8.64 8.99.48.5.14-.14.22-.23.12-.12 8.74-9.09v-20.66c-2.91-.91-6.01-1.39-9.22-1.39Z" class="cls-7"/><path d="M560 53.92V207.8c-32.83.1-71.53-.12-80.45-.65-1.53-.09-2.99-.36-4.37-.8-12.2-3.78-19.28-19.51-22.95-26.98-2.43-4.95-17.68-46.55-29.66-79.47-6.67-18.37-12.33-34.04-14.17-39.13-.28-.8-.47-1.33-.56-1.58-.04-.11-.06-.16-.06-.16 1.16-.09 2.32-.17 3.48-.25 6.94-.5 13.87-.96 20.79-1.37 43.07-2.64 85.72-3.83 127.95-3.49Z" class="cls-5"/><path d="M560 66.49v137.27c-30.95.08-67.9-.06-76.35-.44-13.96-.61-21.74-13.58-25.57-19.39-3.83-5.8-24.95-66.69-27.54-74.07-1.05-2.98-2.66-6.43-3.88-10.18-1.81-5.54-2.78-11.72.17-17.96 2.35-4.97 9.61-8.27 17.52-10.47 8.71-2.42 18.21-3.51 22.87-4.03 5.13-.57 52.2-.81 92.78-.73Z" class="cls-5"/><path d="M560 78.64v99.12h-69.59c-5.12 0-9.26-4.15-9.26-9.27V87.91c0-5.12 4.14-9.27 9.26-9.27z" class="cls-5"/><path d="M487.63 85.87H560v84.29h-72.37z" class="cls-5"/><circle cx="395.19" cy="203.37" r="1.82" class="cls-5"/><circle cx="395.19" cy="209.36" r="1.82" class="cls-5"/><circle cx="395.19" cy="215.35" r="1.82" class="cls-5"/><circle cx="402.55" cy="203.37" r="1.82" class="cls-5"/><circle cx="402.55" cy="209.36" r="1.82" class="cls-5"/><circle cx="402.55" cy="215.35" r="1.82" class="cls-5"/><circle cx="402.55" cy="197.38" r="1.82" class="cls-5"/><circle cx="402.55" cy="203.37" r="1.82" class="cls-5"/><circle cx="402.55" cy="209.36" r="1.82" class="cls-5"/><circle cx="402.55" cy="209.36" r="1.82" class="cls-5"/><circle cx="402.55" cy="215.35" r="1.82" class="cls-5"/><circle cx="402.55" cy="221.34" r="1.82" class="cls-5"/><circle cx="409.9" cy="197.38" r="1.82" class="cls-5"/><circle cx="409.9" cy="203.37" r="1.82" class="cls-5"/><circle cx="409.9" cy="209.36" r="1.82" class="cls-5"/><circle cx="409.9" cy="209.36" r="1.82" class="cls-5"/><circle cx="409.9" cy="215.35" r="1.82" class="cls-5"/><circle cx="409.9" cy="221.34" r="1.82" class="cls-5"/><circle cx="417.26" cy="197.38" r="1.82" class="cls-5"/><circle cx="417.26" cy="203.37" r="1.82" class="cls-5"/><circle cx="417.26" cy="209.36" r="1.82" class="cls-5"/><circle cx="417.26" cy="209.36" r="1.82" class="cls-5"/><circle cx="417.26" cy="215.35" r="1.82" class="cls-5"/><circle cx="417.26" cy="221.34" r="1.82" class="cls-5"/><circle cx="424.62" cy="197.38" r="1.82" class="cls-5"/><circle cx="424.62" cy="203.37" r="1.82" class="cls-5"/><circle cx="424.62" cy="209.36" r="1.82" class="cls-5"/><circle cx="424.62" cy="209.36" r="1.82" class="cls-5"/><circle cx="424.62" cy="215.35" r="1.82" class="cls-5"/><circle cx="424.62" cy="221.34" r="1.82" class="cls-5"/><circle cx="431.98" cy="197.38" r="1.82" class="cls-5"/><circle cx="431.98" cy="203.37" r="1.82" class="cls-5"/><circle cx="431.98" cy="209.36" r="1.82" class="cls-5"/><circle cx="431.98" cy="209.36" r="1.82" class="cls-5"/><circle cx="431.98" cy="215.35" r="1.82" class="cls-5"/><circle cx="431.98" cy="221.34" r="1.82" class="cls-5"/><circle cx="439.33" cy="197.38" r="1.82" class="cls-5"/><circle cx="439.33" cy="203.37" r="1.82" class="cls-5"/><circle cx="439.33" cy="209.36" r="1.82" class="cls-5"/><circle cx="439.33" cy="209.36" r="1.82" class="cls-5"/><circle cx="439.33" cy="215.35" r="1.82" class="cls-5"/><circle cx="439.33" cy="221.34" r="1.82" class="cls-5"/><circle cx="409.9" cy="203.37" r="1.82" class="cls-5"/><circle cx="409.9" cy="209.36" r="1.82" class="cls-5"/><circle cx="409.9" cy="215.35" r="1.82" class="cls-5"/><circle cx="417.26" cy="203.37" r="1.82" class="cls-5"/><circle cx="417.26" cy="209.36" r="1.82" class="cls-5"/><circle cx="417.26" cy="215.35" r="1.82" class="cls-5"/><circle cx="424.62" cy="203.37" r="1.82" class="cls-5"/><circle cx="424.62" cy="209.36" r="1.82" class="cls-5"/><circle cx="424.62" cy="215.35" r="1.82" class="cls-5"/><circle cx="431.98" cy="203.37" r="1.82" class="cls-5"/><circle cx="431.98" cy="209.36" r="1.82" class="cls-5"/><circle cx="431.98" cy="215.35" r="1.82" class="cls-5"/><circle cx="439.33" cy="203.37" r="1.82" class="cls-5"/><circle cx="439.33" cy="209.36" r="1.82" class="cls-5"/><circle cx="439.33" cy="215.35" r="1.82" class="cls-5"/><circle cx="446.69" cy="203.37" r="1.82" class="cls-5"/><circle cx="446.69" cy="209.36" r="1.82" class="cls-5"/><circle cx="446.69" cy="215.35" r="1.82" class="cls-5"/><path d="m409.48 157.4-9.33-8.97 9.33-8.97h20.12c.88 2.9 1.33 5.92 1.33 8.97s-.45 6.07-1.33 8.97z" class="cls-6"/><path d="M429.41 139.71c.84 2.82 1.26 5.75 1.26 8.72s-.43 5.9-1.26 8.72h-19.83l-8.94-8.59-.14-.13 9.07-8.72h19.83m.38-.5h-20.4l-9.22 8.86-.14.14-.23.22.02.02.5.48 9.03 8.68.05.05h20.4c.91-2.91 1.39-6.01 1.39-9.22s-.49-6.31-1.39-9.22Z" class="cls-7"/><path d="M370.87 157.4c-.94-2.98-1.42-6.09-1.42-9.25 0-2.95.42-5.88 1.25-8.69h20.2l9.33 8.97-9.33 8.97z" class="cls-6"/><path d="m390.8 139.71 8.93 8.59.14.13-9.07 8.72h-19.75c-.9-2.9-1.35-5.93-1.35-9 0-2.86.4-5.7 1.18-8.44h19.91m.21-.5h-20.49c-.85 2.83-1.31 5.83-1.31 8.94 0 3.31.52 6.5 1.48 9.5H391l9.22-8.86.14-.14.23-.22-.02-.02-.5-.48-8.97-8.63-.1-.1Z" class="cls-7"/><g id="g3"><path id="path5-5" d="M446.73 98.85c-.56.76-1.09.9-1.37 1.06q-.42.24-.9.24c-.9 0-1.59-.29-2.1-.87q-.75-.87-.75-2.46c0-1.26.32-2.32.95-3.2.64-.88 1.48-1.31 2.53-1.31.8 0 1.45.22 1.96.67s.76 1.15.76 2.11h-1.54c0-.46-.1-.78-.3-.97-.2-.18-.49-.28-.87-.28-.62 0-1.1.3-1.44.91s-.51 1.29-.51 2.07q0 .795.33 1.29c.22.34.55.5.99.5s.81-.13 1.07-.39c.25-.26.44-.59.56-1h-1.44l.23-1.4h2.8l-.24 1.35s-.18.92-.73 1.68Z" class="cls-5" data-name="path5"/><path id="path7-5" d="M453.3 106.89c-.55.76-1.09.9-1.37 1.06s-.58.24-.91.24c-.9 0-1.59-.29-2.1-.88q-.75-.87-.75-2.46c0-1.26.32-2.32.95-3.2.64-.88 1.48-1.32 2.53-1.32.8 0 1.45.22 1.96.67s.76 1.15.76 2.11h-1.54q0-.69-.3-.96c-.2-.19-.49-.28-.87-.28-.62 0-1.09.3-1.44.91-.34.6-.51 1.29-.51 2.06q0 .795.33 1.29c.22.33.55.5.99.5s.81-.13 1.07-.39c.25-.26.44-.59.57-1h-1.44l.23-1.4h2.8l-.24 1.35s-.18.92-.73 1.68Z" class="cls-5" data-name="path7"/><path id="polygon9-5" d="m460.05 92.49-1.26 7.47h-1.34l1.06-5.79-2.34 5.79h-1.11l-.51-5.79-.81 5.79h-1.36l1.25-7.47h1.91l.43 5.26 2.15-5.27z" class="cls-5" data-name="polygon9"/><path id="polygon11-5" d="M461.47 95.38h2.21l-.23 1.45h-2.2l-.29 1.59h2.49l-.25 1.54h-3.92l1.24-7.48h3.88l-.24 1.55h-2.44z" class="cls-5" data-name="polygon11"/><path id="path13-7" d="M451.34 92.48h-1.61l-3.01 7.48h1.47l.54-1.46h1.92l.12 1.46h1.43zm-2.15 4.75 1.1-2.98.25 2.98z" class="cls-5" data-name="path13"/><path id="polygon15-5" d="M456.18 103.42h2.2l-.22 1.45h-2.21l-.28 1.59h2.49l-.25 1.54h-3.92l1.24-7.48h3.87l-.23 1.55h-2.44z" class="cls-5" data-name="polygon15"/><path id="path17-7" d="M462.66 100.51h-1.61l-3.01 7.49h1.47l.53-1.46h1.93l.12 1.46h1.42zm-2.15 4.75 1.09-2.98.26 2.98z" class="cls-5" data-name="path17"/><path id="path19-7" d="M468.82 103.88c.27-.39.4-.84.4-1.37 0-.7-.16-1.21-.48-1.52-.32-.32-.77-.47-1.34-.47h-2.5l-1.24 7.48h1.44l.48-2.85h.66l1.11 2.85h1.64l-1.23-3.16c.43-.22.8-.58 1.06-.96Zm-2.29-.07h-.74l.33-1.85h.78c.29 0 .51.05.65.16.15.1.22.31.22.63 0 .36-.12.62-.35.79-.23.18-.53.27-.89.27Z" class="cls-5" data-name="path19"/></g><path id="path21-2" d="M445.54 83.61c2.29-2.63 5.06-4.04 6.17-3.15s.16 3.74-2.14 6.36c-2.29 2.63-5.06 4.04-6.17 3.15-1.12-.89-.16-3.74 2.13-6.36Z" class="cls-5" data-name="path21"/><path id="path23-2" d="M454.65 83.62c2.36-2.61 5.19-4.01 6.34-3.13 1.14.88.16 3.71-2.19 6.32-2.36 2.61-5.19 4.02-6.34 3.13-1.14-.88-.16-3.71 2.19-6.32Z" class="cls-5" data-name="path23"/><path id="path25-2" d="M463.5 83.62c2.36-2.61 5.19-4.01 6.34-3.13 1.14.88.16 3.71-2.19 6.32-2.36 2.61-5.19 4.02-6.34 3.13-1.14-.88-.16-3.71 2.19-6.32Z" class="cls-5" data-name="path25"/></svg>