<?xml version="1.0" encoding="UTF-8"?>
<svg id="Layer_1" data-name="Layer 1" xmlns="http://www.w3.org/2000/svg" viewBox="0 0 560 320">
  <defs>
    <style>
      .cls-1 {
        fill: #372869;
      }

      .cls-2 {
        fill: red;
      }

      .cls-3 {
        fill: #09f;
      }

      .cls-4 {
        fill: #0c9;
      }

      .cls-5 {
        stroke: #553f98;
        stroke-linejoin: round;
        stroke-width: .5px;
      }

      .cls-5, .cls-6 {
        fill: #bca3ce;
      }

      .cls-7 {
        fill: #553f98;
      }
    </style>
  </defs>
  <path class="cls-5" d="M17.43,162c4.25.09,9.03,3.22,9.56,5.43,0,0,16.08,57.82,20.37,64.16,4.29,6.34,7.32,9.14,12.96,9.09,5.64-.05,14.17-3.36,16.74-13.05,2.56-9.7,9.75-40.71,8.49-65.96-1.26-25.25-6.8-52.03-6.8-52.03l-61.33,52.36h0Z"/>
  <ellipse class="cls-5" cx="37.28" cy="99.02" rx="21.36" ry="21.27"/>
  <polygon class="cls-5" points="10.45 132.26 8.77 133.81 5.82 130.62 1.17 125.59 .76 125.15 .76 121.79 2.81 124.01 7.38 128.95 10.45 132.26"/>
  <g id="Buttons">
    <circle class="cls-5" cx="37.28" cy="82.09" r="8.68"/>
    <circle class="cls-5" cx="37.28" cy="115.94" r="8.68"/>
    <circle class="cls-5" cx="14.84" cy="137.45" r="11.3"/>
    <path class="cls-5" d="M5.51,116.68c0,2.8-1.02,5.35-2.7,7.33-.49.58-1.04,1.1-1.64,1.58-.13.1-.27.2-.41.3v-18.42c2.88,2.04,4.75,5.41,4.75,9.21Z"/>
    <circle class="cls-5" cx="54.21" cy="99.02" r="8.68"/>
    <circle class="cls-5" cx="20.36" cy="99.02" r="8.68"/>
  </g>
  <rect class="cls-1" x=".76" y="-.02" width="559.24" height="320"/>
  <path class="cls-7" d="M405.14-.12c-3.45,16.81-8.27,33.52-14.2,49.97-.77,2.14-1.56,4.27-2.37,6.4-3.15,8.31-6.6,16.53-10.28,24.65-5.58,12.3-11.73,24.36-18.36,36.11-.66,1.19-1.34,2.38-2.03,3.56-.5.88-1,1.74-1.5,2.61h0c-10.64,18.29-22.38,35.76-34.79,52.08-48.21,64.41-136.13,76.41-201.3,120.77-3.92,2.65-7.76,5.44-11.5,8.36-1.03.8-2.04,1.61-3.05,2.44-1.96,1.61-3.9,3.27-5.82,5-2.85,2.53-5.66,5.19-8.43,7.96H-.37V-.12h405.51Z"/>
  <g>
    <path id="path5" d="M49.37,83.99c-3.94,5.35-7.69,6.36-9.7,7.48-1.99,1.12-4.14,1.68-6.4,1.68-6.34,0-11.29-2.07-14.85-6.19-3.56-4.14-5.34-9.94-5.34-17.46,0-8.89,2.24-16.43,6.75-22.66,4.5-6.21,10.48-9.3,17.92-9.3,5.65,0,10.27,1.59,13.88,4.77,3.62,3.17,5.41,8.16,5.41,14.94h-10.92c0-3.25-.71-5.53-2.15-6.84-1.43-1.3-3.48-1.95-6.17-1.95-4.39,0-7.77,2.15-10.19,6.42-2.4,4.29-3.62,9.16-3.62,14.63,0,3.73.79,6.79,2.34,9.14,1.57,2.38,3.91,3.56,7.02,3.56s5.76-.93,7.58-2.77c1.8-1.82,3.13-4.18,3.98-7.06h-10.17l1.64-9.9h19.83l-1.68,9.59s-1.26,6.54-5.18,11.89h0Z"/>
    <path id="path7" d="M224.05,84.01c-3.92,5.36-7.69,6.36-9.68,7.48-2.01,1.12-4.14,1.68-6.42,1.68-6.34,0-11.29-2.07-14.85-6.21-3.54-4.12-5.32-9.94-5.32-17.44,0-8.89,2.24-16.45,6.75-22.66,4.5-6.21,10.48-9.32,17.9-9.32,5.66,0,10.28,1.59,13.9,4.78,3.6,3.19,5.41,8.16,5.41,14.94h-10.94c0-3.25-.72-5.53-2.15-6.82-1.41-1.31-3.48-1.97-6.17-1.97-4.37,0-7.75,2.15-10.17,6.44-2.42,4.27-3.62,9.14-3.62,14.62,0,3.75.77,6.8,2.34,9.16,1.57,2.36,3.91,3.54,7.02,3.54s5.76-.91,7.56-2.75c1.8-1.84,3.13-4.19,4-7.07h-10.19l1.66-9.9h19.83l-1.68,9.59s-1.26,6.53-5.2,11.91h0Z"/>
    <polygon id="polygon9" points="143.68 38.93 134.8 91.86 125.25 91.86 132.77 50.84 116.19 91.86 108.36 91.86 104.74 50.86 99.04 91.86 89.37 91.86 98.21 38.93 111.76 38.93 114.79 76.2 130.03 38.83 143.68 38.93"/>
    <polygon id="polygon11" points="153.79 59.42 169.39 59.42 167.76 69.69 152.16 69.69 150.15 80.96 167.76 80.96 166.02 91.86 138.26 91.86 147.04 38.87 174.47 38.87 172.79 49.85 155.53 49.85 153.79 59.42"/>
    <path id="path13" d="M70.64,38.83l-21.34,53.03h10.4l3.81-10.34h13.61l.89,10.34h10.07l-6.03-53.03h-11.41ZM66.81,72.47l7.73-21.09,1.8,21.09h-9.53Z"/>
    <polygon id="polygon15" points="244.44 59.44 260.02 59.44 258.42 69.69 242.82 69.69 240.79 80.96 258.42 80.96 256.68 91.88 228.92 91.88 237.69 38.87 265.13 38.87 263.44 49.85 246.18 49.85 244.44 59.44"/>
    <path id="path17" d="M278.93,38.85l-21.34,53.03h10.42l3.79-10.34h13.63l.89,10.34h10.05l-6.03-53.03h-11.41ZM275.12,72.47l7.71-21.09,1.82,21.09h-9.53Z"/>
    <path id="path19" d="M312.49,62.17l2.32-13.05h5.57c2.05,0,3.58.37,4.6,1.1,1.02.75,1.53,2.24,1.53,4.48,0,2.51-.83,4.37-2.47,5.61-1.66,1.24-3.77,1.86-6.32,1.86h-5.22ZM306.21,38.87l-8.78,53.01h10.15l3.4-20.2h4.7l7.85,20.2h11.64l-8.7-22.37c3.04-1.55,5.65-4.12,7.46-6.8,1.89-2.77,2.84-5.99,2.84-9.69,0-5.01-1.12-8.6-3.38-10.83-2.24-2.22-5.43-3.32-9.53-3.32h-17.65Z"/>
  </g>
  <g>
    <path class="cls-1" d="M56.24,4.76l-1.68,9.59s-1.26,6.53-5.19,11.89c-3.94,5.35-7.69,6.36-9.7,7.48-1.99,1.12-4.14,1.68-6.4,1.68-6.34,0-11.29-2.07-14.85-6.19-3.56-4.13-5.33-9.93-5.33-17.45,0-4.23.51-8.16,1.53-11.78h11.63c-1.49,3.57-2.24,7.49-2.24,11.79,0,3.74.79,6.79,2.34,9.15,1.56,2.38,3.9,3.56,7.02,3.56s5.76-.93,7.58-2.77c1.79-1.82,3.13-4.17,3.98-7.05h-10.17l1.64-9.9h19.84Z"/>
    <path class="cls-1" d="M230.93,4.76l-1.68,9.59s-1.26,6.53-5.2,11.91c-3.93,5.35-7.7,6.36-9.69,7.48-2.01,1.12-4.14,1.68-6.42,1.68-6.34,0-11.29-2.07-14.84-6.21-3.54-4.11-5.32-9.93-5.32-17.43,0-4.24.51-8.17,1.53-11.8h11.63c-1.5,3.55-2.24,7.49-2.24,11.8,0,3.75.77,6.8,2.34,9.16,1.57,2.36,3.91,3.54,7.02,3.54s5.76-.91,7.56-2.75c1.8-1.83,3.13-4.19,4-7.07h-10.19l1.66-9.9h19.84Z"/>
    <polygon class="cls-1" points="95.07 -.02 103.78 -.02 99.04 34.11 89.37 34.11 95.07 -.02"/>
    <polygon class="cls-1" points="129.98 -.02 116.19 34.11 108.36 34.11 105.35 -.02 113.29 -.02 114.79 18.45 122.32 -.02 129.98 -.02"/>
    <polygon class="cls-1" points="140.52 -.02 134.8 34.11 125.25 34.11 131.51 -.02 140.52 -.02"/>
    <polygon class="cls-1" points="152.16 11.93 150.15 23.2 167.76 23.2 166.02 34.11 138.26 34.11 143.91 -.02 154.1 -.02 153.79 1.67 169.39 1.67 167.76 11.93 152.16 11.93"/>
    <path id="path13-2" data-name="path13" class="cls-1" d="M84.19-.02h-9.11l1.26,14.73h-9.53L72.21-.02h-9.18l-13.73,34.13h10.4l3.8-10.35h13.61l.89,10.35h10.08L84.19-.02Z"/>
    <polygon class="cls-1" points="242.82 11.93 240.79 23.2 258.42 23.2 256.68 34.12 228.92 34.12 234.57 -.02 244.75 -.02 244.44 1.68 260.02 1.68 258.42 11.93 242.82 11.93"/>
    <path id="path17-2" data-name="path17" class="cls-1" d="M292.49-.02h-9.11l1.27,14.73h-9.53L280.5-.02h-9.17l-13.74,34.14h10.42l3.79-10.34h13.62l.89,10.34h10.06L292.49-.02Z"/>
    <path id="path19-2" data-name="path19" class="cls-1" d="M333.93,4.95c1.04-1.52,1.79-3.17,2.26-4.97h-10.21c-.4,1.05-1.06,1.9-1.95,2.57-1.66,1.24-3.77,1.86-6.32,1.86h-5.22l.79-4.43h-10.19l-5.66,34.14h10.15l3.4-20.2h4.7l7.85,20.2h11.64l-8.7-22.36c3.03-1.55,5.64-4.12,7.46-6.81Z"/>
  </g>
  <g>
    <path id="path5-2" data-name="path5" class="cls-1" d="M49.37,199.51c-3.94,5.35-7.69,6.36-9.7,7.48-1.99,1.12-4.14,1.68-6.4,1.68-6.34,0-11.29-2.07-14.85-6.19-3.56-4.14-5.34-9.94-5.34-17.46,0-8.89,2.24-16.43,6.75-22.66,4.5-6.21,10.48-9.3,17.92-9.3,5.65,0,10.27,1.59,13.88,4.77,3.62,3.17,5.41,8.16,5.41,14.94h-10.92c0-3.25-.71-5.53-2.15-6.84-1.43-1.3-3.48-1.95-6.17-1.95-4.39,0-7.77,2.15-10.19,6.42-2.4,4.29-3.62,9.16-3.62,14.63,0,3.73.79,6.79,2.34,9.14,1.57,2.38,3.91,3.56,7.02,3.56s5.76-.93,7.58-2.77c1.8-1.82,3.13-4.18,3.98-7.06h-10.17l1.64-9.9h19.83l-1.68,9.59s-1.26,6.54-5.18,11.89h0Z"/>
    <path id="path7-2" data-name="path7" class="cls-1" d="M224.05,199.53c-3.92,5.36-7.69,6.36-9.68,7.48-2.01,1.12-4.14,1.68-6.42,1.68-6.34,0-11.29-2.07-14.85-6.21-3.54-4.12-5.32-9.94-5.32-17.44,0-8.89,2.24-16.45,6.75-22.66,4.5-6.21,10.48-9.32,17.9-9.32,5.66,0,10.28,1.59,13.9,4.78,3.6,3.19,5.41,8.16,5.41,14.94h-10.94c0-3.25-.72-5.53-2.15-6.82-1.41-1.31-3.48-1.97-6.17-1.97-4.37,0-7.75,2.15-10.17,6.44-2.42,4.27-3.62,9.14-3.62,14.62,0,3.75.77,6.8,2.34,9.16,1.57,2.36,3.91,3.54,7.02,3.54s5.76-.91,7.56-2.75c1.8-1.84,3.13-4.19,4-7.07h-10.19l1.66-9.9h19.83l-1.68,9.59s-1.26,6.53-5.2,11.91h0Z"/>
    <polygon id="polygon9-2" data-name="polygon9" class="cls-1" points="143.68 154.44 134.8 207.38 125.25 207.38 132.77 166.35 116.19 207.38 108.36 207.38 104.74 166.37 99.04 207.38 89.37 207.38 98.21 154.44 111.76 154.44 114.79 191.72 130.03 154.35 143.68 154.44"/>
    <polygon id="polygon11-2" data-name="polygon11" class="cls-1" points="153.79 174.94 169.39 174.94 167.76 185.2 152.16 185.2 150.15 196.47 167.76 196.47 166.02 207.38 138.26 207.38 147.04 154.39 174.47 154.39 172.79 165.37 155.53 165.37 153.79 174.94"/>
    <path id="path13-3" data-name="path13" class="cls-1" d="M70.64,154.35l-21.34,53.03h10.4l3.81-10.34h13.61l.89,10.34h10.07l-6.03-53.03h-11.41ZM66.81,187.99l7.73-21.09,1.8,21.09h-9.53Z"/>
    <polygon id="polygon15-2" data-name="polygon15" class="cls-1" points="244.44 174.96 260.02 174.96 258.42 185.2 242.82 185.2 240.79 196.47 258.42 196.47 256.68 207.39 228.92 207.39 237.69 154.39 265.13 154.39 263.44 165.37 246.18 165.37 244.44 174.96"/>
    <path id="path17-3" data-name="path17" class="cls-1" d="M278.93,154.37l-21.34,53.03h10.42l3.79-10.34h13.63l.89,10.34h10.05l-6.03-53.03h-11.41ZM275.12,187.99l7.71-21.09,1.82,21.09h-9.53Z"/>
    <path id="path19-3" data-name="path19" class="cls-1" d="M312.49,177.68l2.32-13.05h5.57c2.05,0,3.58.37,4.6,1.1,1.02.75,1.53,2.24,1.53,4.48,0,2.51-.83,4.37-2.47,5.61-1.66,1.24-3.77,1.86-6.32,1.86h-5.22ZM306.21,154.39l-8.78,53.01h10.15l3.4-20.2h4.7l7.85,20.2h11.64l-8.7-22.37c3.04-1.55,5.65-4.12,7.46-6.8,1.89-2.77,2.84-5.99,2.84-9.69,0-5.01-1.12-8.6-3.38-10.83-2.24-2.22-5.43-3.32-9.53-3.32h-17.65Z"/>
  </g>
  <g>
    <path id="path5-3" data-name="path5" class="cls-1" d="M49.37,141.75c-3.94,5.35-7.69,6.36-9.7,7.48-1.99,1.12-4.14,1.68-6.4,1.68-6.34,0-11.29-2.07-14.85-6.19-3.56-4.14-5.34-9.94-5.34-17.46,0-8.89,2.24-16.43,6.75-22.66,4.5-6.21,10.48-9.3,17.92-9.3,5.65,0,10.27,1.59,13.88,4.77,3.62,3.17,5.41,8.16,5.41,14.94h-10.92c0-3.25-.71-5.53-2.15-6.84-1.43-1.3-3.48-1.95-6.17-1.95-4.39,0-7.77,2.15-10.19,6.42-2.4,4.29-3.62,9.16-3.62,14.63,0,3.73.79,6.79,2.34,9.14,1.57,2.38,3.91,3.56,7.02,3.56s5.76-.93,7.58-2.77c1.8-1.82,3.13-4.18,3.98-7.06h-10.17l1.64-9.9h19.83l-1.68,9.59s-1.26,6.54-5.18,11.89h0Z"/>
    <path id="path7-3" data-name="path7" class="cls-1" d="M224.05,141.77c-3.92,5.36-7.69,6.36-9.68,7.48-2.01,1.12-4.14,1.68-6.42,1.68-6.34,0-11.29-2.07-14.85-6.21-3.54-4.12-5.32-9.94-5.32-17.44,0-8.89,2.24-16.45,6.75-22.66,4.5-6.21,10.48-9.32,17.9-9.32,5.66,0,10.28,1.59,13.9,4.78,3.6,3.19,5.41,8.16,5.41,14.94h-10.94c0-3.25-.72-5.53-2.15-6.82-1.41-1.31-3.48-1.97-6.17-1.97-4.37,0-7.75,2.15-10.17,6.44-2.42,4.27-3.62,9.14-3.62,14.62,0,3.75.77,6.8,2.34,9.16,1.57,2.36,3.91,3.54,7.02,3.54s5.76-.91,7.56-2.75c1.8-1.84,3.13-4.19,4-7.07h-10.19l1.66-9.9h19.83l-1.68,9.59s-1.26,6.53-5.2,11.91h0Z"/>
    <polygon id="polygon9-3" data-name="polygon9" class="cls-1" points="143.68 96.69 134.8 149.62 125.25 149.62 132.77 108.6 116.19 149.62 108.36 149.62 104.74 108.62 99.04 149.62 89.37 149.62 98.21 96.69 111.76 96.69 114.79 133.96 130.03 96.59 143.68 96.69"/>
    <polygon id="polygon11-3" data-name="polygon11" class="cls-1" points="153.79 117.18 169.39 117.18 167.76 127.44 152.16 127.44 150.15 138.71 167.76 138.71 166.02 149.62 138.26 149.62 147.04 96.63 174.47 96.63 172.79 107.61 155.53 107.61 153.79 117.18"/>
    <path id="path13-4" data-name="path13" class="cls-1" d="M70.64,96.59l-21.34,53.03h10.4l3.81-10.34h13.61l.89,10.34h10.07l-6.03-53.03h-11.41ZM66.81,130.23l7.73-21.09,1.8,21.09h-9.53Z"/>
    <polygon id="polygon15-3" data-name="polygon15" class="cls-1" points="244.44 117.2 260.02 117.2 258.42 127.44 242.82 127.44 240.79 138.72 258.42 138.72 256.68 149.64 228.92 149.64 237.69 96.63 265.13 96.63 263.44 107.61 246.18 107.61 244.44 117.2"/>
    <path id="path17-4" data-name="path17" class="cls-1" d="M278.93,96.61l-21.34,53.03h10.42l3.79-10.34h13.63l.89,10.34h10.05l-6.03-53.03h-11.41ZM275.12,130.23l7.71-21.09,1.82,21.09h-9.53Z"/>
    <path id="path19-4" data-name="path19" class="cls-1" d="M312.49,119.92l2.32-13.05h5.57c2.05,0,3.58.37,4.6,1.1,1.02.75,1.53,2.24,1.53,4.48,0,2.51-.83,4.37-2.47,5.61-1.66,1.24-3.77,1.86-6.32,1.86h-5.22ZM306.21,96.63l-8.78,53.01h10.15l3.4-20.2h4.7l7.85,20.2h11.64l-8.7-22.37c3.04-1.55,5.65-4.12,7.46-6.8,1.89-2.77,2.84-5.99,2.84-9.69,0-5.01-1.12-8.6-3.38-10.83-2.24-2.22-5.43-3.32-9.53-3.32h-17.65Z"/>
  </g>
  <g>
    <path class="cls-1" d="M36.4,293.54h19.84l-1.68,9.59s-1.26,6.54-5.19,11.89c-1.75,2.39-3.47,3.91-5.01,4.96h-23.93c-.71-.6-1.38-1.26-2.01-1.98-3.56-4.14-5.33-9.94-5.33-17.46,0-8.89,2.24-16.43,6.74-22.66,4.51-6.2,10.48-9.3,17.92-9.3,5.65,0,10.27,1.59,13.89,4.78,3.61,3.17,5.41,8.16,5.41,14.94h-10.92c0-3.25-.72-5.53-2.15-6.84-1.43-1.3-3.48-1.95-6.17-1.95-4.39,0-7.77,2.14-10.19,6.42-2.39,4.29-3.61,9.16-3.61,14.63,0,3.73.79,6.79,2.34,9.14,1.56,2.38,3.9,3.56,7.02,3.56s5.76-.93,7.58-2.76c1.79-1.82,3.13-4.18,3.98-7.06h-10.17l1.64-9.9Z"/>
    <path class="cls-1" d="M211.09,293.54h19.84l-1.68,9.59s-1.26,6.54-5.2,11.91c-1.74,2.37-3.45,3.89-4.98,4.94h-23.97c-.71-.59-1.38-1.25-2-1.98-3.54-4.12-5.32-9.94-5.32-17.44,0-8.89,2.24-16.45,6.75-22.66,4.5-6.2,10.47-9.32,17.9-9.32,5.66,0,10.28,1.59,13.9,4.78,3.59,3.19,5.41,8.16,5.41,14.94h-10.94c0-3.24-.72-5.53-2.15-6.82-1.41-1.31-3.48-1.97-6.17-1.97-4.36,0-7.75,2.14-10.16,6.44-2.42,4.27-3.62,9.14-3.62,14.61,0,3.75.77,6.81,2.34,9.16,1.57,2.36,3.91,3.54,7.02,3.54s5.76-.91,7.56-2.74c1.8-1.84,3.13-4.2,4-7.08h-10.19l1.66-9.9Z"/>
    <polygon class="cls-1" points="143.68 269.96 135.29 319.98 125.78 319.98 132.77 281.87 117.37 319.98 108.1 319.98 104.74 281.89 99.44 319.98 89.86 319.98 98.21 269.96 111.76 269.96 114.79 307.23 130.03 269.86 143.68 269.96"/>
    <polygon class="cls-1" points="155.53 280.88 153.79 290.45 169.39 290.45 167.76 300.72 152.16 300.72 150.15 311.99 167.76 311.99 166.48 319.98 138.74 319.98 147.04 269.9 174.47 269.9 172.79 280.88 155.53 280.88"/>
    <path id="path13-5" data-name="path13" class="cls-1" d="M82.04,269.86h-11.4l-20.17,50.12h10.3l2.73-7.43h13.61l.64,7.43h10l-5.71-50.12ZM66.81,303.5l7.73-21.09,1.8,21.09h-9.53Z"/>
    <polygon class="cls-1" points="246.18 280.88 244.44 290.47 260.02 290.47 258.42 300.72 242.82 300.72 240.79 311.99 258.42 311.99 257.15 319.98 229.4 319.98 237.69 269.9 265.13 269.9 263.44 280.88 246.18 280.88"/>
    <path id="path17-5" data-name="path17" class="cls-1" d="M290.34,269.88h-11.41l-20.16,50.1h10.31l2.72-7.41h13.62l.64,7.41h9.98l-5.7-50.1ZM275.12,303.5l7.71-21.09,1.82,21.09h-9.53Z"/>
    <path id="path19-5" data-name="path19" class="cls-1" d="M333.93,293.74c1.89-2.77,2.84-6,2.84-9.69,0-5.01-1.12-8.6-3.38-10.83-2.24-2.22-5.43-3.32-9.53-3.32h-17.65l-8.29,50.08h10.15l2.91-17.27h4.7l6.71,17.27h11.64l-7.56-19.44c3.03-1.55,5.64-4.12,7.46-6.8ZM324.03,291.34c-1.66,1.24-3.77,1.85-6.32,1.85h-5.22l2.32-13.04h5.57c2.05,0,3.57.36,4.6,1.1,1.02.75,1.53,2.24,1.53,4.48,0,2.52-.84,4.37-2.48,5.61Z"/>
  </g>
  <g>
    <path id="path5-4" data-name="path5" class="cls-1" d="M49.37,257.26c-3.94,5.35-7.69,6.36-9.7,7.48-1.99,1.12-4.14,1.68-6.4,1.68-6.34,0-11.29-2.07-14.85-6.19-3.56-4.14-5.34-9.94-5.34-17.46,0-8.89,2.24-16.43,6.75-22.66,4.5-6.21,10.48-9.3,17.92-9.3,5.65,0,10.27,1.59,13.88,4.77,3.62,3.17,5.41,8.16,5.41,14.94h-10.92c0-3.25-.71-5.53-2.15-6.84-1.43-1.3-3.48-1.95-6.17-1.95-4.39,0-7.77,2.15-10.19,6.42-2.4,4.29-3.62,9.16-3.62,14.63,0,3.73.79,6.79,2.34,9.14,1.57,2.38,3.91,3.56,7.02,3.56s5.76-.93,7.58-2.77c1.8-1.82,3.13-4.18,3.98-7.06h-10.17l1.64-9.9h19.83l-1.68,9.59s-1.26,6.54-5.18,11.89h0Z"/>
    <path id="path7-4" data-name="path7" class="cls-1" d="M224.05,257.28c-3.92,5.36-7.69,6.36-9.68,7.48-2.01,1.12-4.14,1.68-6.42,1.68-6.34,0-11.29-2.07-14.85-6.21-3.54-4.12-5.32-9.94-5.32-17.44,0-8.89,2.24-16.45,6.75-22.66,4.5-6.21,10.48-9.32,17.9-9.32,5.66,0,10.28,1.59,13.9,4.78,3.6,3.19,5.41,8.16,5.41,14.94h-10.94c0-3.25-.72-5.53-2.15-6.82-1.41-1.31-3.48-1.97-6.17-1.97-4.37,0-7.75,2.15-10.17,6.44-2.42,4.27-3.62,9.14-3.62,14.62,0,3.75.77,6.8,2.34,9.16,1.57,2.36,3.91,3.54,7.02,3.54s5.76-.91,7.56-2.75c1.8-1.84,3.13-4.19,4-7.07h-10.19l1.66-9.9h19.83l-1.68,9.59s-1.26,6.53-5.2,11.91h0Z"/>
    <polygon id="polygon9-4" data-name="polygon9" class="cls-1" points="143.68 212.2 134.8 265.13 125.25 265.13 132.77 224.11 116.19 265.13 108.36 265.13 104.74 224.13 99.04 265.13 89.37 265.13 98.21 212.2 111.76 212.2 114.79 249.47 130.03 212.1 143.68 212.2"/>
    <polygon id="polygon11-4" data-name="polygon11" class="cls-1" points="153.79 232.69 169.39 232.69 167.76 242.96 152.16 242.96 150.15 254.23 167.76 254.23 166.02 265.13 138.26 265.13 147.04 212.14 174.47 212.14 172.79 223.12 155.53 223.12 153.79 232.69"/>
    <path id="path13-6" data-name="path13" class="cls-1" d="M70.64,212.1l-21.34,53.03h10.4l3.81-10.34h13.61l.89,10.34h10.07l-6.03-53.03h-11.41ZM66.81,245.74l7.73-21.09,1.8,21.09h-9.53Z"/>
    <polygon id="polygon15-4" data-name="polygon15" class="cls-1" points="244.44 232.71 260.02 232.71 258.42 242.96 242.82 242.96 240.79 254.23 258.42 254.23 256.68 265.15 228.92 265.15 237.69 212.14 265.13 212.14 263.44 223.12 246.18 223.12 244.44 232.71"/>
    <path id="path17-6" data-name="path17" class="cls-1" d="M278.93,212.12l-21.34,53.03h10.42l3.79-10.34h13.63l.89,10.34h10.05l-6.03-53.03h-11.41ZM275.12,245.74l7.71-21.09,1.82,21.09h-9.53Z"/>
    <path id="path19-6" data-name="path19" class="cls-1" d="M312.49,235.44l2.32-13.05h5.57c2.05,0,3.58.37,4.6,1.1,1.02.75,1.53,2.24,1.53,4.48,0,2.51-.83,4.37-2.47,5.61-1.66,1.24-3.77,1.86-6.32,1.86h-5.22ZM306.21,212.14l-8.78,53.01h10.15l3.4-20.2h4.7l7.85,20.2h11.64l-8.7-22.37c3.04-1.55,5.65-4.12,7.46-6.8,1.89-2.77,2.84-5.99,2.84-9.69,0-5.01-1.12-8.6-3.38-10.83-2.24-2.22-5.43-3.32-9.53-3.32h-17.65Z"/>
  </g>
  <g>
    <path id="path21" class="cls-2" d="M68.18,167.26c19.97-22.89,44.02-35.16,53.75-27.46,9.7,7.73,1.38,32.54-18.61,55.41-19.97,22.89-44.02,35.16-53.72,27.45-9.72-7.72-1.38-32.54,18.59-55.41Z"/>
    <path id="path23" class="cls-4" d="M147.55,167.34c20.52-22.73,45.21-34.94,55.2-27.27,9.96,7.68,1.4,32.33-19.11,55.05-20.51,22.75-45.21,34.97-55.17,27.29-9.96-7.68-1.43-32.33,19.09-55.08Z"/>
    <path id="path25" class="cls-3" d="M224.64,167.34c20.51-22.73,45.24-34.94,55.2-27.27,9.96,7.68,1.4,32.33-19.09,55.05-20.51,22.75-45.24,34.97-55.2,27.29-9.96-7.68-1.4-32.33,19.09-55.08Z"/>
  </g>
  <polygon class="cls-5" points="422.9 55.78 423.61 55.1 424.27 55.82 425.02 55.19 425.64 55.95 426.43 55.37 427 56.17 427.83 55.63 428.34 56.47 429.2 55.99 429.67 56.85 430.55 56.42 430.96 57.32 431.87 56.95 432.22 57.86 433.16 57.55 433.45 58.49 434.4 58.23 434.64 59.19 435.6 59 435.77 59.96 436.75 59.83 436.86 60.81 437.84 60.73 437.89 61.72 438.88 61.71 438.87 62.69 439.85 62.74 439.78 63.72 440.75 63.84 440.62 64.81 441.59 64.98 441.39 65.95 442.35 66.18 442.09 67.13 443.03 67.43 442.72 68.36 443.64 68.71 443.27 69.62 444.16 70.03 443.73 70.92 444.6 71.38 444.12 72.24 444.95 72.76 444.42 73.58 445.22 74.15 444.63 74.94 445.39 75.56 444.76 76.31 445.48 76.98 444.8 77.69 445.48 78.4 444.76 79.06 445.39 79.81 444.63 80.43 445.22 81.22 444.42 81.79 444.95 82.61 444.12 83.13 444.6 83.99 443.73 84.46 444.16 85.34 443.27 85.75 443.64 86.66 442.72 87.01 443.03 87.94 442.09 88.24 442.35 89.19 441.39 89.42 441.59 90.39 440.62 90.56 440.75 91.54 439.78 91.65 439.85 92.63 438.87 92.68 438.88 93.66 437.89 93.66 437.84 94.64 436.86 94.57 436.75 95.54 435.77 95.41 435.6 96.38 434.64 96.18 434.4 97.14 433.45 96.88 433.16 97.82 432.22 97.51 431.87 98.42 430.96 98.05 430.55 98.95 429.67 98.52 429.2 99.39 428.34 98.9 427.83 99.74 427 99.21 426.43 100 425.64 99.42 425.02 100.18 424.27 99.55 423.61 100.27 422.9 99.59 422.19 100.27 421.52 99.55 420.77 100.18 420.15 99.42 419.36 100 418.79 99.21 417.97 99.74 417.45 98.9 416.59 99.39 416.13 98.52 415.24 98.95 414.83 98.05 413.92 98.42 413.57 97.51 412.64 97.82 412.34 96.88 411.39 97.14 411.16 96.18 410.19 96.38 410.02 95.41 409.05 95.54 408.93 94.57 407.95 94.64 407.9 93.66 406.92 93.66 406.93 92.68 405.95 92.63 406.02 91.65 405.04 91.54 405.17 90.56 404.21 90.39 404.4 89.42 403.45 89.19 403.7 88.24 402.76 87.94 403.07 87.01 402.16 86.66 402.53 85.75 401.63 85.34 402.06 84.46 401.2 83.99 401.68 83.13 400.84 82.61 401.38 81.79 400.58 81.22 401.16 80.43 400.4 79.81 401.03 79.06 400.31 78.4 400.99 77.69 400.31 76.98 401.03 76.31 400.4 75.56 401.16 74.94 400.58 74.15 401.38 73.58 400.84 72.76 401.68 72.24 401.2 71.38 402.06 70.92 401.63 70.03 402.53 69.62 402.16 68.71 403.07 68.36 402.76 67.43 403.7 67.13 403.45 66.18 404.4 65.95 404.21 64.98 405.17 64.81 405.04 63.84 406.02 63.72 405.95 62.74 406.93 62.69 406.92 61.71 407.9 61.72 407.95 60.73 408.93 60.81 409.05 59.83 410.02 59.96 410.19 59 411.16 59.19 411.39 58.23 412.34 58.49 412.64 57.55 413.57 57.86 413.92 56.95 414.83 57.32 415.24 56.42 416.13 56.85 416.59 55.99 417.45 56.47 417.97 55.63 418.79 56.17 419.36 55.37 420.15 55.95 420.77 55.19 421.52 55.82 422.19 55.1 422.9 55.78"/>
  <path class="cls-5" d="M560,55.15v200.84c-57.18.63-113.72-2.25-169.03-8.52-16.28-1.85-28.5-15.95-31.13-32.12-5.49-33.74-3.01-87.32,6.03-143.15.95-5.87,5.73-10.48,11.67-10.93,10.07-.77,20.17-1.46,30.3-2.08.78-.05,1.56-.1,2.34-.14.06-.01.12-.01.19-.01.28-.03.56-.04.84-.05,6.99-.43,13.99-.81,21-1.16.04,0,.08,0,.12,0,.3-.02.6-.03.9-.04,42.02-2.09,84.44-2.96,126.77-2.63Z"/>
  <path class="cls-5" d="M431.2,148.3c0,3.21-.49,6.31-1.39,9.22-3.02,9.71-10.69,17.38-20.4,20.4-2.91.91-6.01,1.39-9.22,1.39s-6.31-.49-9.22-1.39c-9.62-2.99-17.23-10.54-20.31-20.12-.96-2.99-1.48-6.18-1.48-9.5,0-3.11.46-6.11,1.31-8.94,2.96-9.84,10.68-17.63,20.49-20.68,2.91-.91,6.01-1.39,9.22-1.39s6.31.49,9.22,1.39c9.71,3.02,17.38,10.69,20.4,20.4.91,2.91,1.39,6.01,1.39,9.22Z"/>
  <g>
    <path class="cls-6" d="M400.19,179.06c-3.06,0-6.08-.45-8.97-1.33v-20.11l8.97-9.33,8.97,9.32v20.11c-2.9.88-5.91,1.33-8.97,1.33Z"/>
    <path class="cls-7" d="M400.19,148.66l.11.12,8.61,8.94v19.82c-2.82.84-5.75,1.27-8.72,1.27s-5.9-.43-8.72-1.27v-19.82l8.6-8.94.12-.12M400.19,147.94l-.14.14-.22.23-.12.12-8.74,9.09v20.39c2.91.91,6.01,1.39,9.22,1.39s6.31-.49,9.22-1.39v-20.39h0s-.05-.06-.05-.06l-8.69-9.03-.48-.5h0Z"/>
  </g>
  <g>
    <path class="cls-6" d="M391.22,139.24v-20.38c2.89-.88,5.91-1.33,8.97-1.33s6.08.45,8.97,1.33v20.38l-8.97,9.33-8.97-9.33Z"/>
    <path class="cls-7" d="M400.19,117.78c2.97,0,5.9.43,8.72,1.26v20.09l-8.6,8.95-.12.12-.11-.12-8.61-8.95v-20.09c2.82-.84,5.75-1.26,8.72-1.26M400.19,117.28c-3.21,0-6.31.49-9.22,1.39v20.66l.1.11h0s8.64,8.99,8.64,8.99l.48.5.14-.14.22-.23.12-.12,8.74-9.09v-20.66c-2.91-.91-6.01-1.39-9.22-1.39h0Z"/>
  </g>
  <path class="cls-5" d="M560,53.92v153.88c-32.83.1-71.53-.12-80.45-.65-1.53-.09-2.99-.36-4.37-.8-12.2-3.78-19.28-19.51-22.95-26.98-2.43-4.95-17.68-46.55-29.66-79.47-6.67-18.37-12.33-34.04-14.17-39.13-.28-.8-.47-1.33-.56-1.58-.04-.11-.06-.16-.06-.16,1.16-.09,2.32-.17,3.48-.25,6.94-.5,13.87-.96,20.79-1.37,43.07-2.64,85.72-3.83,127.95-3.49Z"/>
  <path class="cls-5" d="M560,66.49v137.27c-30.95.08-67.9-.06-76.35-.44-13.96-.61-21.74-13.58-25.57-19.39-3.83-5.8-24.95-66.69-27.54-74.07-1.05-2.98-2.66-6.43-3.88-10.18-1.81-5.54-2.78-11.72.17-17.96,2.35-4.97,9.61-8.27,17.52-10.47,8.71-2.42,18.21-3.51,22.87-4.03,5.13-.57,52.2-.81,92.78-.73Z"/>
  <path class="cls-5" d="M560,78.64v99.12h-69.59c-5.12,0-9.26-4.15-9.26-9.27v-80.58c0-5.12,4.14-9.27,9.26-9.27h69.59Z"/>
  <rect class="cls-5" x="487.63" y="85.87" width="72.37" height="84.29"/>
  <g>
    <circle class="cls-5" cx="395.19" cy="203.37" r="1.82"/>
    <circle class="cls-5" cx="395.19" cy="209.36" r="1.82"/>
    <circle class="cls-5" cx="395.19" cy="215.35" r="1.82"/>
  </g>
  <g>
    <circle class="cls-5" cx="402.55" cy="203.37" r="1.82"/>
    <circle class="cls-5" cx="402.55" cy="209.36" r="1.82"/>
    <circle class="cls-5" cx="402.55" cy="215.35" r="1.82"/>
  </g>
  <g>
    <g>
      <circle class="cls-5" cx="402.55" cy="197.38" r="1.82"/>
      <circle class="cls-5" cx="402.55" cy="203.37" r="1.82"/>
      <circle class="cls-5" cx="402.55" cy="209.36" r="1.82"/>
    </g>
    <g>
      <circle class="cls-5" cx="402.55" cy="209.36" r="1.82"/>
      <circle class="cls-5" cx="402.55" cy="215.35" r="1.82"/>
      <circle class="cls-5" cx="402.55" cy="221.34" r="1.82"/>
    </g>
  </g>
  <g>
    <g>
      <circle class="cls-5" cx="409.9" cy="197.38" r="1.82"/>
      <circle class="cls-5" cx="409.9" cy="203.37" r="1.82"/>
      <circle class="cls-5" cx="409.9" cy="209.36" r="1.82"/>
    </g>
    <g>
      <circle class="cls-5" cx="409.9" cy="209.36" r="1.82"/>
      <circle class="cls-5" cx="409.9" cy="215.35" r="1.82"/>
      <circle class="cls-5" cx="409.9" cy="221.34" r="1.82"/>
    </g>
  </g>
  <g>
    <g>
      <circle class="cls-5" cx="417.26" cy="197.38" r="1.82"/>
      <circle class="cls-5" cx="417.26" cy="203.37" r="1.82"/>
      <circle class="cls-5" cx="417.26" cy="209.36" r="1.82"/>
    </g>
    <g>
      <circle class="cls-5" cx="417.26" cy="209.36" r="1.82"/>
      <circle class="cls-5" cx="417.26" cy="215.35" r="1.82"/>
      <circle class="cls-5" cx="417.26" cy="221.34" r="1.82"/>
    </g>
  </g>
  <g>
    <g>
      <circle class="cls-5" cx="424.62" cy="197.38" r="1.82"/>
      <circle class="cls-5" cx="424.62" cy="203.37" r="1.82"/>
      <circle class="cls-5" cx="424.62" cy="209.36" r="1.82"/>
    </g>
    <g>
      <circle class="cls-5" cx="424.62" cy="209.36" r="1.82"/>
      <circle class="cls-5" cx="424.62" cy="215.35" r="1.82"/>
      <circle class="cls-5" cx="424.62" cy="221.34" r="1.82"/>
    </g>
  </g>
  <g>
    <g>
      <circle class="cls-5" cx="431.98" cy="197.38" r="1.82"/>
      <circle class="cls-5" cx="431.98" cy="203.37" r="1.82"/>
      <circle class="cls-5" cx="431.98" cy="209.36" r="1.82"/>
    </g>
    <g>
      <circle class="cls-5" cx="431.98" cy="209.36" r="1.82"/>
      <circle class="cls-5" cx="431.98" cy="215.35" r="1.82"/>
      <circle class="cls-5" cx="431.98" cy="221.34" r="1.82"/>
    </g>
  </g>
  <g>
    <g>
      <circle class="cls-5" cx="439.33" cy="197.38" r="1.82"/>
      <circle class="cls-5" cx="439.33" cy="203.37" r="1.82"/>
      <circle class="cls-5" cx="439.33" cy="209.36" r="1.82"/>
    </g>
    <g>
      <circle class="cls-5" cx="439.33" cy="209.36" r="1.82"/>
      <circle class="cls-5" cx="439.33" cy="215.35" r="1.82"/>
      <circle class="cls-5" cx="439.33" cy="221.34" r="1.82"/>
    </g>
  </g>
  <g>
    <circle class="cls-5" cx="409.9" cy="203.37" r="1.82"/>
    <circle class="cls-5" cx="409.9" cy="209.36" r="1.82"/>
    <circle class="cls-5" cx="409.9" cy="215.35" r="1.82"/>
  </g>
  <g>
    <circle class="cls-5" cx="417.26" cy="203.37" r="1.82"/>
    <circle class="cls-5" cx="417.26" cy="209.36" r="1.82"/>
    <circle class="cls-5" cx="417.26" cy="215.35" r="1.82"/>
  </g>
  <g>
    <circle class="cls-5" cx="424.62" cy="203.37" r="1.82"/>
    <circle class="cls-5" cx="424.62" cy="209.36" r="1.82"/>
    <circle class="cls-5" cx="424.62" cy="215.35" r="1.82"/>
  </g>
  <g>
    <circle class="cls-5" cx="431.98" cy="203.37" r="1.82"/>
    <circle class="cls-5" cx="431.98" cy="209.36" r="1.82"/>
    <circle class="cls-5" cx="431.98" cy="215.35" r="1.82"/>
  </g>
  <g>
    <circle class="cls-5" cx="439.33" cy="203.37" r="1.82"/>
    <circle class="cls-5" cx="439.33" cy="209.36" r="1.82"/>
    <circle class="cls-5" cx="439.33" cy="215.35" r="1.82"/>
  </g>
  <circle class="cls-5" cx="446.69" cy="203.37" r="1.82"/>
  <circle class="cls-5" cx="446.69" cy="209.36" r="1.82"/>
  <circle class="cls-5" cx="446.69" cy="215.35" r="1.82"/>
  <g>
    <path class="cls-6" d="M409.48,157.4l-9.33-8.97,9.33-8.97h20.12c.88,2.9,1.33,5.92,1.33,8.97s-.45,6.07-1.33,8.97h-20.12Z"/>
    <path class="cls-7" d="M429.41,139.71c.84,2.82,1.26,5.75,1.26,8.72s-.43,5.9-1.26,8.72h-19.83l-8.94-8.59-.14-.13,9.07-8.72h19.83M429.78,139.21h-20.4l-9.22,8.86-.14.14-.23.22.02.02.5.48h0s9.03,8.68,9.03,8.68l.05.05h20.4c.91-2.91,1.39-6.01,1.39-9.22s-.49-6.31-1.39-9.22h0Z"/>
  </g>
  <g>
    <path class="cls-6" d="M370.87,157.4c-.94-2.98-1.42-6.09-1.42-9.25,0-2.95.42-5.88,1.25-8.69h20.2l9.33,8.97-9.33,8.97h-20.03Z"/>
    <path class="cls-7" d="M390.8,139.71l8.93,8.59.14.13-9.07,8.72h-19.75c-.9-2.9-1.35-5.93-1.35-9,0-2.86.4-5.7,1.18-8.44h19.91M391,139.21h-20.49c-.85,2.83-1.31,5.83-1.31,8.94,0,3.31.52,6.5,1.48,9.5h20.32l9.22-8.86.14-.14.23-.22-.02-.02-.5-.48h0s-8.97-8.63-8.97-8.63l-.1-.1h0Z"/>
  </g>
  <g id="g3">
    <path id="path5-5" data-name="path5" class="cls-5" d="M446.73,98.85c-.56.76-1.09.9-1.37,1.06-.28.16-.58.24-.9.24-.9,0-1.59-.29-2.1-.87-.5-.58-.75-1.4-.75-2.46,0-1.26.32-2.32.95-3.2.64-.88,1.48-1.31,2.53-1.31.8,0,1.45.22,1.96.67.51.45.76,1.15.76,2.11h-1.54c0-.46-.1-.78-.3-.97-.2-.18-.49-.28-.87-.28-.62,0-1.1.3-1.44.91-.34.61-.51,1.29-.51,2.07,0,.53.11.96.33,1.29.22.34.55.5.99.5s.81-.13,1.07-.39c.25-.26.44-.59.56-1h-1.44l.23-1.4h2.8l-.24,1.35s-.18.92-.73,1.68h0Z"/>
    <path id="path7-5" data-name="path7" class="cls-5" d="M453.3,106.89c-.55.76-1.09.9-1.37,1.06-.28.16-.58.24-.91.24-.9,0-1.59-.29-2.1-.88-.5-.58-.75-1.4-.75-2.46,0-1.26.32-2.32.95-3.2.64-.88,1.48-1.32,2.53-1.32.8,0,1.45.22,1.96.67.51.45.76,1.15.76,2.11h-1.54c0-.46-.1-.78-.3-.96-.2-.19-.49-.28-.87-.28-.62,0-1.09.3-1.44.91-.34.6-.51,1.29-.51,2.06,0,.53.11.96.33,1.29.22.33.55.5.99.5s.81-.13,1.07-.39c.25-.26.44-.59.57-1h-1.44l.23-1.4h2.8l-.24,1.35s-.18.92-.73,1.68h0Z"/>
    <polygon id="polygon9-5" data-name="polygon9" class="cls-5" points="460.05 92.49 458.79 99.96 457.45 99.96 458.51 94.17 456.17 99.96 455.06 99.96 454.55 94.17 453.74 99.96 452.38 99.96 453.63 92.49 455.54 92.49 455.97 97.75 458.12 92.48 460.05 92.49"/>
    <polygon id="polygon11-5" data-name="polygon11" class="cls-5" points="461.47 95.38 463.68 95.38 463.45 96.83 461.25 96.83 460.96 98.42 463.45 98.42 463.2 99.96 459.28 99.96 460.52 92.48 464.4 92.48 464.16 94.03 461.72 94.03 461.47 95.38"/>
    <path id="path13-7" data-name="path13" class="cls-5" d="M451.34,92.48h-1.61l-3.01,7.48h1.47l.54-1.46h1.92l.12,1.46h1.43l-.86-7.48ZM449.19,97.23l1.1-2.98.25,2.98h-1.35Z"/>
    <polygon id="polygon15-5" data-name="polygon15" class="cls-5" points="456.18 103.42 458.38 103.42 458.16 104.87 455.95 104.87 455.67 106.46 458.16 106.46 457.91 108 453.99 108 455.23 100.52 459.1 100.52 458.87 102.07 456.43 102.07 456.18 103.42"/>
    <path id="path17-7" data-name="path17" class="cls-5" d="M462.66,100.51h-1.61l-3.01,7.49h1.47l.53-1.46h1.93l.12,1.46h1.42l-.85-7.49ZM460.51,105.26l1.09-2.98.26,2.98h-1.35Z"/>
    <path id="path19-7" data-name="path19" class="cls-5" d="M468.82,103.88c.27-.39.4-.84.4-1.37,0-.7-.16-1.21-.48-1.52-.32-.32-.77-.47-1.34-.47h-2.5l-1.24,7.48h1.44l.48-2.85h.66l1.11,2.85h1.64l-1.23-3.16c.43-.22.8-.58,1.06-.96ZM466.53,103.81h-.74l.33-1.85h.78c.29,0,.51.05.65.16.15.1.22.31.22.63,0,.36-.12.62-.35.79-.23.18-.53.27-.89.27Z"/>
  </g>
  <path id="path21-2" data-name="path21" class="cls-5" d="M445.54,83.61c2.29-2.63,5.06-4.04,6.17-3.15,1.11.89.16,3.74-2.14,6.36-2.29,2.63-5.06,4.04-6.17,3.15-1.12-.89-.16-3.74,2.13-6.36Z"/>
  <path id="path23-2" data-name="path23" class="cls-5" d="M454.65,83.62c2.36-2.61,5.19-4.01,6.34-3.13,1.14.88.16,3.71-2.19,6.32-2.36,2.61-5.19,4.02-6.34,3.13-1.14-.88-.16-3.71,2.19-6.32Z"/>
  <path id="path25-2" data-name="path25" class="cls-5" d="M463.5,83.62c2.36-2.61,5.19-4.01,6.34-3.13,1.14.88.16,3.71-2.19,6.32-2.36,2.61-5.19,4.02-6.34,3.13-1.14-.88-.16-3.71,2.19-6.32Z"/>
</svg>