<?xml version="1.0" encoding="UTF-8"?>
<svg id="Layer_1" data-name="Layer 1" xmlns="http://www.w3.org/2000/svg" viewBox="0 0 560 320">
  <defs>
    <style>
      .cls-1 {
        fill: #372869;
      }

      .cls-2 {
        isolation: isolate;
        opacity: .06;
      }

      .cls-2, .cls-3 {
        fill: #bca3ce;
        stroke: #553f98;
        stroke-miterlimit: 10;
        stroke-width: .5px;
      }

      .cls-4 {
        fill: #fff;
      }

      .cls-5 {
        fill: #553f98;
      }
    </style>
  </defs>
  <rect class="cls-1" x=".76" y="-.02" width="559.24" height="320"/>
  <path class="cls-5" d="M405.14-.12c-3.45,16.81-8.27,33.52-14.2,49.97-.77,2.14-1.56,4.27-2.37,6.4-3.15,8.31-6.6,16.53-10.28,24.65-5.58,12.3-11.73,24.36-18.36,36.11-.66,1.19-1.34,2.38-2.03,3.56-.5.88-1,1.74-1.5,2.61h0c-10.64,18.29-22.38,35.76-34.79,52.08-48.21,64.41-136.13,76.41-201.3,120.77-3.92,2.65-7.76,5.44-11.5,8.36-1.03.8-2.04,1.61-3.05,2.44-1.96,1.61-3.9,3.27-5.82,5-2.85,2.53-5.66,5.19-8.43,7.96H-.37V-.12h405.51Z"/>
  <path class="cls-4" d="M8.26,52.66h14.79l20.34,32.87v-32.87h14.59v47.05h-14.59l-20.55-32.87v32.87h-14.59v-47.05ZM137.08,57.39h14.18v6.57h7.81v4.52h-7.81v31.23h-14.18v-31.23h-7.6v-4.52h7.6v-6.57ZM65.99,99.71v-31.23h14.18v31.23h-14.18ZM65.99,62.32v-9.66h14.18v9.66h-14.18ZM314.59,66.22c-11.51,0-20.75,7.81-20.75,17.67s9.25,17.67,20.75,17.67,20.75-8.01,20.75-17.67c-.21-9.66-9.45-17.67-20.75-17.67M320.14,83.89v6.57c0,4.93-2.88,6.99-5.75,6.99s-5.75-2.05-5.75-6.99v-13.35c0-4.93,2.88-6.99,5.75-6.99s5.75,2.05,5.75,6.99v6.78ZM275.35,83.89v-5.55c0-4.93-3.29-6.16-5.55-6.16s-5.55,1.23-5.55,6.16v11.09c0,4.93,3.29,6.16,5.55,6.16s5.55-1.23,5.55-6.16v-5.55ZM275.15,52.66h13.97v47.05h-14.18v-1.85c-5.34,3.49-11.51,3.49-16.44,1.23-1.23-.62-9.66-4.52-9.66-15.61,0-8.22,7.81-17.26,18.08-16.44,3.29.41,5.75,1.64,8.01,2.88.21-7.19.21-17.26.21-17.26h0ZM113.45,67.04c5.34-.21,16.03,3.29,16.03,15.82v17.05h-14.18v-20.55c0-2.67-2.67-5.75-6.57-5.75s-6.78,2.88-6.78,5.75v20.55h-14.18v-31.23h14.18v3.29c2.88-2.88,6.78-4.93,11.51-4.93M228.71,67.04c5.34-.21,16.03,3.29,16.03,15.82v17.05h-14.18v-20.55c0-2.67-2.67-5.75-6.37-5.75-3.9,0-6.78,2.88-6.78,5.75v20.55h-13.97v-31.23h13.97v3.29c2.67-2.88,6.57-4.93,11.3-4.93M183.92,88.82v1.85c0,5.75-3.7,6.99-5.96,6.99-2.05,0-5.96-1.23-5.96-6.99v-6.37h26.71c0-9.66-9.45-17.67-20.96-17.67s-20.96,7.81-20.96,17.67,9.45,17.67,20.96,17.67c9.66,0,17.67-5.34,20.13-12.74h-13.97M172.21,79.37c0-2.67,0-4.52,1.03-6.16,1.03-1.85,3.08-2.88,4.93-2.88s3.9.82,4.93,2.88c.82,1.64.82,3.49.82,6.16h-11.71ZM336.17,59.65h1.03c1.03,0,1.64-.41,1.64-1.23s-.62-1.23-1.85-1.23h-.82v2.47ZM343.15,60.26c0,3.29-2.67,5.96-5.96,5.96s-5.96-2.67-5.96-5.96,2.67-5.75,5.96-5.75,5.96,2.47,5.96,5.75ZM337.19,53.07c-3.9,0-7.19,3.29-7.19,7.19,0,4.11,3.29,7.19,7.19,7.19,4.11,0,7.19-3.29,7.19-7.19.21-3.9-3.08-7.19-7.19-7.19ZM337.4,56.15c2.26,0,3.49.82,3.49,2.26,0,1.03-.62,1.85-1.85,2.26l1.85,3.49h-2.05l-1.44-3.29h-1.23v3.29h-1.85v-8.01h3.08Z"/>
  <path class="cls-1" d="M275.14-.02c0,3.26-.05,10.1-.2,15.39-2.26-1.23-4.73-2.46-8.01-2.87-10.28-.83-18.08,8.22-18.08,16.43,0,11.1,8.42,15,9.65,15.62,4.93,2.26,11.1,2.26,16.44-1.23v1.84h14.18V-.02h-13.98ZM275.35,34.89c0,4.93-3.29,6.17-5.55,6.17s-5.54-1.24-5.54-6.17v-11.09c0-4.93,3.28-6.17,5.54-6.17s5.55,1.24,5.55,6.17v11.09ZM65.99-.02v7.79h14.18V-.02h-14.18ZM43.39-.02v31.01L24.21-.02h-15.95v45.18h14.58V12.29l20.55,32.87h14.59V-.02h-14.59ZM340.89,3.87c0-1.44-1.23-2.26-3.49-2.26h-3.08v8.01h1.85v-3.29h1.23l1.44,3.29h2.05l-1.85-3.49c1.24-.41,1.85-1.23,1.85-2.26ZM337.19,5.1h-1.02v-2.46h.82c1.23,0,1.85.41,1.85,1.23s-.62,1.23-1.65,1.23ZM341.61-.02h-4.01c3.1.19,5.55,2.59,5.55,5.74s-2.67,5.96-5.96,5.96-5.95-2.68-5.95-5.96,2.45-5.55,5.54-5.74h-3.86c-1.76,1.32-2.92,3.42-2.92,5.74,0,4.11,3.29,7.19,7.19,7.19,4.11,0,7.19-3.29,7.19-7.19.12-2.32-.99-4.42-2.77-5.74ZM340.89,3.87c0-1.44-1.23-2.26-3.49-2.26h-3.08v8.01h1.85v-3.29h1.23l1.44,3.29h2.05l-1.85-3.49c1.24-.41,1.85-1.23,1.85-2.26ZM337.19,5.1h-1.02v-2.46h.82c1.23,0,1.85.41,1.85,1.23s-.62,1.23-1.65,1.23ZM340.89,3.87c0-1.44-1.23-2.26-3.49-2.26h-3.08v8.01h1.85v-3.29h1.23l1.44,3.29h2.05l-1.85-3.49c1.24-.41,1.85-1.23,1.85-2.26ZM337.19,5.1h-1.02v-2.46h.82c1.23,0,1.85.41,1.85,1.23s-.62,1.23-1.65,1.23ZM183.92,36.12c0,5.76-3.7,6.99-5.96,6.99-2.05,0-5.95-1.23-5.95-6.99v-6.36h26.7c0-9.66-9.45-17.67-20.95-17.67s-20.96,7.8-20.96,17.67,9.45,17.66,20.96,17.66c9.65,0,17.67-5.34,20.13-12.73h-13.97v1.43ZM173.24,18.66c1.03-1.85,3.08-2.88,4.93-2.88s3.9.83,4.93,2.88c.82,1.64.82,3.49.82,6.16h-11.71c0-2.67,0-4.52,1.03-6.16ZM228.71,12.5c-4.72,0-8.63,2.05-11.3,4.93v-3.29h-13.97v31.23h13.97v-20.55c0-2.87,2.88-5.75,6.78-5.75s6.37,3.08,6.37,5.75v20.55h14.18v-17.05c0-12.54-10.69-16.03-16.03-15.82ZM113.45,12.5c-4.73,0-8.63,2.05-11.51,4.93v-3.29h-14.17v31.23h14.17v-20.55c0-2.87,2.88-5.75,6.78-5.75s6.58,3.08,6.58,5.75v20.55h14.18v-17.05c0-12.54-10.69-16.03-16.03-15.82ZM314.59,11.67c-11.5,0-20.75,7.81-20.75,17.67s9.25,17.67,20.75,17.67,20.75-8.01,20.75-17.67c-.2-9.65-9.45-17.67-20.75-17.67ZM320.14,35.92c0,4.93-2.88,6.98-5.75,6.98s-5.75-2.05-5.75-6.98v-13.36c0-4.93,2.87-6.98,5.75-6.98s5.75,2.05,5.75,6.98v13.36ZM65.99,13.93v31.23h14.18V13.93h-14.18ZM151.25,9.41V2.84h-14.17v6.57h-7.6v4.52h7.6v31.23h14.17V13.93h7.81v-4.52h-7.81Z"/>
  <path class="cls-1" d="M8.26,107.21h14.79l20.34,32.87v-32.87h14.59v47.05h-14.59l-20.55-32.87v32.87h-14.59v-47.05ZM137.08,111.93h14.18v6.57h7.81v4.52h-7.81v31.23h-14.18v-31.23h-7.6v-4.52h7.6v-6.57ZM65.99,154.26v-31.23h14.18v31.23h-14.18ZM65.99,116.86v-9.66h14.18v9.66h-14.18ZM314.59,120.77c-11.51,0-20.75,7.81-20.75,17.67s9.25,17.67,20.75,17.67,20.75-8.01,20.75-17.67c-.21-9.66-9.45-17.67-20.75-17.67M320.14,138.44v6.57c0,4.93-2.88,6.99-5.75,6.99s-5.75-2.05-5.75-6.99v-13.35c0-4.93,2.88-6.99,5.75-6.99s5.75,2.05,5.75,6.99v6.78ZM275.35,138.44v-5.55c0-4.93-3.29-6.16-5.55-6.16s-5.55,1.23-5.55,6.16v11.09c0,4.93,3.29,6.16,5.55,6.16s5.55-1.23,5.55-6.16v-5.55ZM275.15,107.21h13.97v47.05h-14.18v-1.85c-5.34,3.49-11.51,3.49-16.44,1.23-1.23-.62-9.66-4.52-9.66-15.61,0-8.22,7.81-17.26,18.08-16.44,3.29.41,5.75,1.64,8.01,2.88.21-7.19.21-17.26.21-17.26h0ZM113.45,121.59c5.34-.21,16.03,3.29,16.03,15.82v17.05h-14.18v-20.55c0-2.67-2.67-5.75-6.57-5.75s-6.78,2.88-6.78,5.75v20.55h-14.18v-31.23h14.18v3.29c2.88-2.88,6.78-4.93,11.51-4.93M228.71,121.59c5.34-.21,16.03,3.29,16.03,15.82v17.05h-14.18v-20.55c0-2.67-2.67-5.75-6.37-5.75-3.9,0-6.78,2.88-6.78,5.75v20.55h-13.97v-31.23h13.97v3.29c2.67-2.88,6.57-4.93,11.3-4.93M183.92,143.37v1.85c0,5.75-3.7,6.99-5.96,6.99-2.05,0-5.96-1.23-5.96-6.99v-6.37h26.71c0-9.66-9.45-17.67-20.96-17.67s-20.96,7.81-20.96,17.67,9.45,17.67,20.96,17.67c9.66,0,17.67-5.34,20.13-12.74h-13.97M172.21,133.92c0-2.67,0-4.52,1.03-6.16,1.03-1.85,3.08-2.88,4.93-2.88s3.9.82,4.93,2.88c.82,1.64.82,3.49.82,6.16h-11.71ZM336.17,114.19h1.03c1.03,0,1.64-.41,1.64-1.23s-.62-1.23-1.85-1.23h-.82v2.47ZM343.15,114.81c0,3.29-2.67,5.96-5.96,5.96s-5.96-2.67-5.96-5.96,2.67-5.75,5.96-5.75,5.96,2.47,5.96,5.75ZM337.19,107.62c-3.9,0-7.19,3.29-7.19,7.19,0,4.11,3.29,7.19,7.19,7.19,4.11,0,7.19-3.29,7.19-7.19.21-3.9-3.08-7.19-7.19-7.19ZM337.4,110.7c2.26,0,3.49.82,3.49,2.26,0,1.03-.62,1.85-1.85,2.26l1.85,3.49h-2.05l-1.44-3.29h-1.23v3.29h-1.85v-8.01h3.08Z"/>
  <path class="cls-1" d="M8.26,216.3h14.79l20.34,32.87v-32.87h14.59v47.05h-14.59l-20.55-32.87v32.87h-14.59v-47.05ZM137.08,221.03h14.18v6.57h7.81v4.52h-7.81v31.23h-14.18v-31.23h-7.6v-4.52h7.6v-6.57ZM65.99,263.35v-31.23h14.18v31.23h-14.18ZM65.99,225.96v-9.66h14.18v9.66h-14.18ZM314.59,229.86c-11.51,0-20.75,7.81-20.75,17.67s9.25,17.67,20.75,17.67,20.75-8.01,20.75-17.67c-.21-9.66-9.45-17.67-20.75-17.67M320.14,247.53v6.57c0,4.93-2.88,6.99-5.75,6.99s-5.75-2.05-5.75-6.99v-13.35c0-4.93,2.88-6.99,5.75-6.99s5.75,2.05,5.75,6.99v6.78ZM275.35,247.53v-5.55c0-4.93-3.29-6.16-5.55-6.16s-5.55,1.23-5.55,6.16v11.09c0,4.93,3.29,6.16,5.55,6.16s5.55-1.23,5.55-6.16v-5.55ZM275.15,216.3h13.97v47.05h-14.18v-1.85c-5.34,3.49-11.51,3.49-16.44,1.23-1.23-.62-9.66-4.52-9.66-15.61,0-8.22,7.81-17.26,18.08-16.44,3.29.41,5.75,1.64,8.01,2.88.21-7.19.21-17.26.21-17.26h0ZM113.45,230.68c5.34-.21,16.03,3.29,16.03,15.82v17.05h-14.18v-20.55c0-2.67-2.67-5.75-6.57-5.75s-6.78,2.88-6.78,5.75v20.55h-14.18v-31.23h14.18v3.29c2.88-2.88,6.78-4.93,11.51-4.93M228.71,230.68c5.34-.21,16.03,3.29,16.03,15.82v17.05h-14.18v-20.55c0-2.67-2.67-5.75-6.37-5.75-3.9,0-6.78,2.88-6.78,5.75v20.55h-13.97v-31.23h13.97v3.29c2.67-2.88,6.57-4.93,11.3-4.93M183.92,252.46v1.85c0,5.75-3.7,6.99-5.96,6.99-2.05,0-5.96-1.23-5.96-6.99v-6.37h26.71c0-9.66-9.45-17.67-20.96-17.67s-20.96,7.81-20.96,17.67,9.45,17.67,20.96,17.67c9.66,0,17.67-5.34,20.13-12.74h-13.97M172.21,243.01c0-2.67,0-4.52,1.03-6.16,1.03-1.85,3.08-2.88,4.93-2.88s3.9.82,4.93,2.88c.82,1.64.82,3.49.82,6.16h-11.71ZM336.17,223.29h1.03c1.03,0,1.64-.41,1.64-1.23s-.62-1.23-1.85-1.23h-.82v2.47ZM343.15,223.9c0,3.29-2.67,5.96-5.96,5.96s-5.96-2.67-5.96-5.96,2.67-5.75,5.96-5.75,5.96,2.47,5.96,5.75ZM337.19,216.71c-3.9,0-7.19,3.29-7.19,7.19,0,4.11,3.29,7.19,7.19,7.19,4.11,0,7.19-3.29,7.19-7.19.21-3.9-3.08-7.19-7.19-7.19ZM337.4,219.79c2.26,0,3.49.82,3.49,2.26,0,1.03-.62,1.85-1.85,2.26l1.85,3.49h-2.05l-1.44-3.29h-1.23v3.29h-1.85v-8.01h3.08Z"/>
  <path class="cls-1" d="M8.26,161.75h14.79l20.34,32.87v-32.87h14.59v47.05h-14.59l-20.55-32.87v32.87h-14.59v-47.05ZM137.08,166.48h14.18v6.57h7.81v4.52h-7.81v31.23h-14.18v-31.23h-7.6v-4.52h7.6v-6.57ZM65.99,208.8v-31.23h14.18v31.23h-14.18ZM65.99,171.41v-9.66h14.18v9.66h-14.18ZM314.59,175.32c-11.51,0-20.75,7.81-20.75,17.67s9.25,17.67,20.75,17.67,20.75-8.01,20.75-17.67c-.21-9.66-9.45-17.67-20.75-17.67M320.14,192.98v6.57c0,4.93-2.88,6.99-5.75,6.99s-5.75-2.05-5.75-6.99v-13.35c0-4.93,2.88-6.99,5.75-6.99s5.75,2.05,5.75,6.99v6.78ZM275.35,192.98v-5.55c0-4.93-3.29-6.16-5.55-6.16s-5.55,1.23-5.55,6.16v11.09c0,4.93,3.29,6.16,5.55,6.16s5.55-1.23,5.55-6.16v-5.55ZM275.15,161.76h13.97v47.05h-14.18v-1.85c-5.34,3.49-11.51,3.49-16.44,1.23-1.23-.62-9.66-4.52-9.66-15.61,0-8.22,7.81-17.26,18.08-16.44,3.29.41,5.75,1.64,8.01,2.88.21-7.19.21-17.26.21-17.26h0ZM113.45,176.14c5.34-.21,16.03,3.29,16.03,15.82v17.05h-14.18v-20.55c0-2.67-2.67-5.75-6.57-5.75s-6.78,2.88-6.78,5.75v20.55h-14.18v-31.23h14.18v3.29c2.88-2.88,6.78-4.93,11.51-4.93M228.71,176.14c5.34-.21,16.03,3.29,16.03,15.82v17.05h-14.18v-20.55c0-2.67-2.67-5.75-6.37-5.75-3.9,0-6.78,2.88-6.78,5.75v20.55h-13.97v-31.23h13.97v3.29c2.67-2.88,6.57-4.93,11.3-4.93M183.92,197.92v1.85c0,5.75-3.7,6.99-5.96,6.99-2.05,0-5.96-1.23-5.96-6.99v-6.37h26.71c0-9.66-9.45-17.67-20.96-17.67s-20.96,7.81-20.96,17.67,9.45,17.67,20.96,17.67c9.66,0,17.67-5.34,20.13-12.74h-13.97M172.21,188.46c0-2.67,0-4.52,1.03-6.16,1.03-1.85,3.08-2.88,4.93-2.88s3.9.82,4.93,2.88c.82,1.64.82,3.49.82,6.16h-11.71ZM336.17,168.74h1.03c1.03,0,1.64-.41,1.64-1.23s-.62-1.23-1.85-1.23h-.82v2.47ZM343.15,169.36c0,3.29-2.67,5.96-5.96,5.96s-5.96-2.67-5.96-5.96,2.67-5.75,5.96-5.75,5.96,2.47,5.96,5.75ZM337.19,162.17c-3.9,0-7.19,3.29-7.19,7.19,0,4.11,3.29,7.19,7.19,7.19,4.11,0,7.19-3.29,7.19-7.19.21-3.9-3.08-7.19-7.19-7.19ZM337.4,165.25c2.26,0,3.49.82,3.49,2.26,0,1.03-.62,1.85-1.85,2.26l1.85,3.49h-2.05l-1.44-3.29h-1.23v3.29h-1.85v-8.01h3.08Z"/>
  <path class="cls-1" d="M8.26,270.85h14.79l20.34,32.87v-32.87h14.59v47.05h-14.59l-20.55-32.87v32.87h-14.59v-47.05ZM137.08,275.57h14.18v6.57h7.81v4.52h-7.81v31.23h-14.18v-31.23h-7.6v-4.52h7.6v-6.57ZM65.99,317.9v-31.23h14.18v31.23h-14.18ZM65.99,280.51v-9.66h14.18v9.66h-14.18ZM314.59,284.41c-11.51,0-20.75,7.81-20.75,17.67s9.25,17.67,20.75,17.67,20.75-8.01,20.75-17.67c-.21-9.66-9.45-17.67-20.75-17.67M320.14,302.08v6.57c0,4.93-2.88,6.99-5.75,6.99s-5.75-2.05-5.75-6.99v-13.35c0-4.93,2.88-6.99,5.75-6.99s5.75,2.05,5.75,6.99v6.78ZM275.35,302.08v-5.55c0-4.93-3.29-6.16-5.55-6.16s-5.55,1.23-5.55,6.16v11.09c0,4.93,3.29,6.16,5.55,6.16s5.55-1.23,5.55-6.16v-5.55ZM275.15,270.85h13.97v47.05h-14.18v-1.85c-5.34,3.49-11.51,3.49-16.44,1.23-1.23-.62-9.66-4.52-9.66-15.61,0-8.22,7.81-17.26,18.08-16.44,3.29.41,5.75,1.64,8.01,2.88.21-7.19.21-17.26.21-17.26h0ZM113.45,285.23c5.34-.21,16.03,3.29,16.03,15.82v17.05h-14.18v-20.55c0-2.67-2.67-5.75-6.57-5.75s-6.78,2.88-6.78,5.75v20.55h-14.18v-31.23h14.18v3.29c2.88-2.88,6.78-4.93,11.51-4.93M228.71,285.23c5.34-.21,16.03,3.29,16.03,15.82v17.05h-14.18v-20.55c0-2.67-2.67-5.75-6.37-5.75-3.9,0-6.78,2.88-6.78,5.75v20.55h-13.97v-31.23h13.97v3.29c2.67-2.88,6.57-4.93,11.3-4.93M183.92,307.01v1.85c0,5.75-3.7,6.99-5.96,6.99-2.05,0-5.96-1.23-5.96-6.99v-6.37h26.71c0-9.66-9.45-17.67-20.96-17.67s-20.96,7.81-20.96,17.67,9.45,17.67,20.96,17.67c9.66,0,17.67-5.34,20.13-12.74h-13.97M172.21,297.56c0-2.67,0-4.52,1.03-6.16,1.03-1.85,3.08-2.88,4.93-2.88s3.9.82,4.93,2.88c.82,1.64.82,3.49.82,6.16h-11.71ZM336.17,277.83h1.03c1.03,0,1.64-.41,1.64-1.23s-.62-1.23-1.85-1.23h-.82v2.47ZM343.15,278.45c0,3.29-2.67,5.96-5.96,5.96s-5.96-2.67-5.96-5.96,2.67-5.75,5.96-5.75,5.96,2.47,5.96,5.75ZM337.19,271.26c-3.9,0-7.19,3.29-7.19,7.19,0,4.11,3.29,7.19,7.19,7.19,4.11,0,7.19-3.29,7.19-7.19.21-3.9-3.08-7.19-7.19-7.19ZM337.4,274.34c2.26,0,3.49.82,3.49,2.26,0,1.03-.62,1.85-1.85,2.26l1.85,3.49h-2.05l-1.44-3.29h-1.23v3.29h-1.85v-8.01h3.08Z"/>
  <path class="cls-4" d="M175.69,159.29h-15.38l-14.69,34.17-6.51-34.17h-12.64l-17.99,50.34-8.42-50.34h-15.77l-23.9,54.27,3.57-22.68h-23.74l-1.87,11.68h9.96l-1.15,6.24c-5.68,2.34-15.32,1.46-19.44-5.94-2.62-4.69-5.05-15.12,5.94-24.73,8.98-7.82,24.49-9.24,33.43-5.15,0,0,1.12-6.57,1.99-12.64-17.2-5.94-30.57-.99-39.51,4.56-12.24,7.49-18.12,19.01-16.51,34.66,1.82,18.12,25.29,29.57,45.19,18.02.23-.1.32-.2.52-.23l-1.91,4.22h13.37l8.42-18.66h14.79l3.23,18.66h21.79l11.08-34.82,9.11,34.82h8.52l14.62-38.55,5.78,38.78h12.77l-4.65-62.52ZM83.7,190.87l5.41-12.08,2.38,12.08h-7.79Z"/>
  <polygon class="cls-4" points="180.35 221.84 216.03 221.84 218.17 208.5 195.86 208.5 197.61 197.38 217.05 197.38 219.16 184.01 199.56 184.01 201.24 172.95 223.59 172.95 225.7 159.58 190.28 159.58 180.35 221.84"/>
  <polygon class="cls-4" points="357.04 179.16 349.05 158.86 334.39 158.86 349.51 191.7 344.82 221.11 357.66 221.11 361.56 195.1 384.63 158.86 369.65 158.86 357.04 179.16"/>
  <path class="cls-4" d="M278.22,190.11c16.17-16.79.13-29.9-8.49-30.1-6.54-.09-22.23,0-23.83,0l-9.89,61.82h28.81c11.88,0,29.21-17.46,13.41-31.72ZM262.24,209.88h-11.29l1.98-12.41h10.69c10.2,0,9.9,12.41-1.38,12.41ZM263.79,184.74h-8.85l1.95-11.55h8.32c9.04,0,7.19,11.55-1.42,11.55ZM321.89,159.85c-14.2-3.26-28.95,8.02-32.95,25.22-3.93,17.23,4.33,33.83,18.49,37.13,14.2,3.23,28.91-8.06,32.94-25.25,3.93-17.23-4.36-33.83-18.48-37.11ZM326.86,196.46c-3.43,10.29-11.75,16.3-18.51,13.23-6.74-3.01-9.48-13.86-6-24.23,3.46-10.4,11.75-16.27,18.49-13.26,6.76,3.04,9.5,13.89,6.03,24.26Z"/>
  <path class="cls-3" d="M560,14.9v291.67h-113.24c-3.8,0-6.88-3.08-6.88-6.88V21.78c0-3.8,3.08-6.88,6.88-6.88h113.24Z"/>
  <path class="cls-3" d="M458.68,38.33h101.32v112.97h-101.32c-3.09,0-5.6-2.52-5.6-5.61V43.94c0-3.09,2.51-5.61,5.6-5.61Z"/>
  <path class="cls-3" d="M560,206.44v19.71c-3.82-1.64-6.5-5.43-6.5-9.86s2.68-8.21,6.5-9.85Z"/>
  <rect class="cls-3" x="480.43" y="50.39" width="79.57" height="86.52"/>
  <circle class="cls-3" cx="464.13" cy="81.01" r="2.25"/>
  <path class="cls-3" d="M495.99,205.37h-11.82c-.7,0-1.27-.57-1.27-1.27v-11.82c0-.7-.57-1.27-1.27-1.27h-10.8c-.7,0-1.27.57-1.27,1.27v11.82c0,.7-.57,1.27-1.27,1.27h-11.82c-.7,0-1.27.57-1.27,1.27v10.8c0,.7.57,1.27,1.27,1.27h11.82c.7,0,1.27.57,1.27,1.27v11.82c0,.7.57,1.27,1.27,1.27h10.8c.7,0,1.27-.57,1.27-1.27v-11.82c0-.7.57-1.27,1.27-1.27h11.82c.7,0,1.27-.57,1.27-1.27v-10.8c0-.7-.57-1.27-1.27-1.27Z"/>
  <rect class="cls-3" x="493.83" y="252.45" width="21.44" height="5.49" rx="2.63" ry="2.63" transform="translate(-60.86 258.26) rotate(-27.14)"/>
  <rect class="cls-3" x="523.48" y="252.44" width="21.44" height="5.49" rx="2.63" ry="2.63" transform="translate(-57.59 271.78) rotate(-27.14)"/>
  <path class="cls-3" d="M559.11,269.33c.28-.16.59-.26.89-.28v6.32l-1.72-2.98c-.61-1.07-.25-2.44.82-3.06h.01Z"/>
  <path class="cls-3" d="M560,286.59v8.96l-1.82-3.16-8.61-14.91c-.62-1.07-.26-2.44.81-3.06h.01c1.07-.62,2.44-.25,3.06.82l6.55,11.35Z"/>
  <polygon class="cls-2" points="558.18 292.39 560 291.33 560 306.57 533.77 306.57 558.18 292.39"/>
  <rect class="cls-3" x="460.05" y="42.49" width="39.66" height="1.06"/>
  <rect class="cls-3" x="460.05" y="45.17" width="39.66" height="1.06"/>
  <polygon class="cls-3" points="455.91 27.17 560 27.17 560 30.22 439.66 30.22 439.66 27.17 452.86 27.17 452.86 14.89 455.91 14.89 455.91 27.17"/>
  <g>
    <path class="cls-3" d="M505.38,43.91c-.07-.18-.17-.35-.3-.51-.13-.15-.3-.27-.51-.36-.22-.09-.46-.13-.73-.13h-1.18v3.26h1.19c.27,0,.52-.05.73-.14.22-.1.39-.23.52-.38.13-.16.22-.34.29-.53.06-.2.1-.41.1-.62s-.04-.4-.11-.59ZM504.77,45.39c-.21.25-.52.37-.92.37h-.78v-2.46h.78c.39,0,.7.12.91.35.21.24.32.5.32.85s-.1.64-.31.89Z"/>
    <path class="cls-3" d="M508.57,43.36c-.29-.33-.7-.5-1.22-.5s-.9.16-1.21.48c-.3.32-.45.73-.45,1.21,0,.22.03.43.1.63.07.19.17.37.31.53.13.16.3.29.52.38.21.1.46.14.73.14s.51-.04.72-.14c.22-.09.39-.22.52-.38.13-.16.23-.34.3-.54s.11-.4.11-.62c0-.46-.14-.86-.43-1.19ZM508.27,45.47c-.21.26-.52.38-.92.38s-.71-.12-.93-.38c-.22-.25-.33-.54-.33-.92s.11-.69.33-.94c.22-.25.53-.38.93-.38.27,0,.5.07.69.2.2.13.33.28.43.48.08.2.12.41.12.64,0,.35-.11.66-.32.92Z"/>
    <path class="cls-3" d="M508.93,43.28v-.36h2.63v.36h-1.11v2.89h-.4v-2.89h-1.11Z"/>
    <path class="cls-3" d="M514.27,45.15h-.08l-1.18-1.66v2.68h-.4v-3.26h.48l1.14,1.67,1.13-1.67h.48v3.26h-.4v-2.67l-1.18,1.65Z"/>
    <path class="cls-3" d="M518.03,42.91h-.46l-1.46,3.26h.44l.32-.72h1.86l.32.72h.44l-1.46-3.26ZM517.03,45.08l.77-1.76.77,1.76h-1.54Z"/>
    <path class="cls-3" d="M519.09,43.28v-.36h2.63v.36h-1.11v2.89h-.4v-2.89h-1.11Z"/>
    <path class="cls-3" d="M523.61,44.97c.32-.03.55-.13.71-.32.15-.2.23-.42.23-.69,0-.29-.1-.53-.29-.74-.2-.2-.47-.3-.82-.3h-1.47v3.25h.4v-1.17h.79l1.01,1.17h.52l-1.08-1.2ZM522.37,44.64v-1.36h1.07c.22,0,.4.07.52.21.13.14.18.3.18.48,0,.19-.06.35-.18.48-.12.12-.3.19-.54.19h-1.05Z"/>
    <path class="cls-3" d="M525.02,42.91h.41v3.26h-.41v-3.26Z"/>
    <path class="cls-3" d="M528.45,42.92v.02l-1.1,1.58,1.17,1.65h0s-.47,0-.47,0l-.96-1.37-.96,1.37h-.47s1.17-1.66,1.17-1.66l-1.1-1.58v-.02h.47l.89,1.32.9-1.32h.47Z"/>
    <path class="cls-3" d="M529.63,42.91l.9,2.69.9-2.69h.26l.91,2.69.89-2.69h.46l-1.14,3.26h-.41l-.85-2.44-.84,2.44h-.41l-1.13-3.26h.46Z"/>
    <path class="cls-3" d="M534.25,42.91h.41v3.26h-.41v-3.26Z"/>
    <path class="cls-3" d="M534.91,43.28v-.36h2.63v.36h-1.11v2.89h-.4v-2.89h-1.11,0Z"/>
    <path class="cls-3" d="M540.06,44.7h-1.86v1.47h-.41v-3.26h.41v1.41h1.86v-1.41h.41v3.26h-.41v-1.47Z"/>
    <path class="cls-3" d="M543.68,43.32c-.17-.07-.35-.11-.54-.11-.23,0-.43.05-.6.14-.17.09-.25.23-.25.42,0,.08.02.16.06.22.04.06.11.11.2.15s.18.07.27.09c.09.02.21.05.35.07.16.02.29.05.39.07.1.02.21.06.34.1s.23.1.3.16c.07.06.13.15.18.25s.08.23.08.38c0,.17-.04.33-.12.46s-.18.23-.32.3-.27.13-.42.16-.31.05-.47.05c-.31,0-.59-.06-.83-.18s-.43-.31-.55-.57l.34-.2c.1.18.25.32.44.42.2.1.4.15.61.15.11,0,.21,0,.31-.03s.2-.05.29-.09c.09-.04.17-.11.23-.19s.09-.18.09-.3c0-.1-.02-.18-.07-.25s-.12-.13-.22-.17-.19-.08-.29-.1c-.1-.02-.22-.05-.36-.07-.15-.02-.27-.05-.38-.07-.1-.02-.21-.06-.33-.1-.12-.05-.21-.1-.28-.16s-.13-.14-.18-.24c-.05-.1-.07-.21-.07-.34,0-.16.03-.3.11-.43s.18-.22.3-.29c.13-.07.26-.12.4-.15s.29-.05.44-.05c.28,0,.52.04.73.13.2.08.38.24.51.47l-.31.19c-.09-.14-.21-.24-.38-.31h.01Z"/>
    <path class="cls-3" d="M544.49,43.28v-.36h2.63v.36h-1.11v2.89h-.4v-2.89h-1.11,0Z"/>
    <path class="cls-3" d="M547.37,42.91h2.29v.37h-1.89v1.02h1.81v.38h-1.81v1.1h1.96v.39h-2.36v-3.26h0Z"/>
    <path class="cls-3" d="M551.79,44.97c.31-.03.55-.13.7-.32.16-.2.23-.42.23-.69,0-.29-.09-.53-.29-.74-.19-.2-.46-.3-.81-.3h-1.48v3.25h.41v-1.17h.79l1.01,1.17h.51l-1.07-1.2ZM550.55,44.64v-1.36h1.07c.22,0,.39.07.51.21.13.14.19.3.19.48,0,.19-.06.35-.19.48-.12.12-.3.19-.53.19h-1.05Z"/>
    <path class="cls-3" d="M553.2,42.91h2.29v.37h-1.89v1.02h1.81v.38h-1.81v1.1h1.96v.39h-2.36v-3.26h0Z"/>
    <path class="cls-3" d="M558.61,43.36c-.29-.33-.7-.5-1.22-.5s-.9.16-1.21.48c-.3.32-.45.73-.45,1.21,0,.22.03.43.1.63.07.19.17.37.31.53.13.16.3.29.52.38.21.1.46.14.73.14s.51-.04.72-.14c.22-.09.39-.22.52-.38.13-.16.23-.34.3-.54s.11-.4.11-.62c0-.46-.14-.86-.43-1.19ZM558.31,45.47c-.21.26-.52.38-.92.38s-.71-.12-.93-.38c-.22-.25-.33-.54-.33-.92s.11-.69.33-.94c.23-.25.53-.38.93-.38.27,0,.5.07.7.2.19.13.32.28.42.48.08.2.12.41.12.64,0,.35-.11.66-.32.92Z"/>
  </g>
  <g>
    <path class="cls-3" d="M460.65,88.82c-.07-.1-.17-.17-.29-.2.1-.04.18-.1.24-.18.05-.08.08-.17.08-.27,0-.19-.07-.34-.21-.45-.14-.1-.31-.15-.52-.15h-.94v2.16h.94c.11,0,.21-.01.3-.03.09-.02.18-.05.25-.1.08-.04.14-.1.18-.18s.07-.18.07-.29-.04-.21-.1-.31ZM459.28,87.81h.67c.14,0,.25.03.34.09.08.07.12.15.12.27,0,.11-.04.2-.12.25-.08.05-.19.08-.32.08h-.69v-.69ZM460.43,89.3s-.07.08-.13.11c-.06.02-.11.04-.17.05-.05.01-.11.02-.18.02h-.67v-.74h.69c.13,0,.25.03.35.1.11.07.16.16.16.29,0,.07-.02.12-.05.17Z"/>
    <path class="cls-3" d="M462.24,87.57h-.3l-.97,2.16h.29l.21-.48h1.24l.21.48h.29l-.97-2.16ZM461.58,89.01l.51-1.17.51,1.17h-1.02Z"/>
    <path class="cls-3" d="M463.17,87.81v-.24h1.74v.24h-.74v1.92h-.27v-1.92h-.74,0Z"/>
    <path class="cls-3" d="M465.08,87.81v-.24h1.74v.24h-.74v1.92h-.27v-1.92h-.74,0Z"/>
    <path class="cls-3" d="M467.22,87.57h1.52v.25h-1.25v.68h1.2v.25h-1.2v.73h1.31v.26h-1.57v-2.16h0Z"/>
    <path class="cls-3" d="M470.38,88.93c.21-.02.37-.09.47-.22.11-.12.15-.27.15-.45,0-.19-.06-.35-.19-.49-.13-.14-.31-.2-.54-.2h-.98v2.16h.27v-.78h.52l.68.78h.34l-.72-.8ZM469.56,88.71v-.9h.71c.15,0,.26.05.34.14.09.09.13.2.13.32,0,.13-.04.23-.13.32-.08.08-.19.12-.35.12h-.7Z"/>
    <path class="cls-3" d="M471.22,87.58h0s.33,0,.33,0l.65,1.02.66-1.02h.33s-.85,1.28-.85,1.28v.88h-.28v-.88l-.84-1.27h0Z"/>
  </g>
</svg>