<svg xmlns="http://www.w3.org/2000/svg" id="Layer_1" data-name="Layer 1" viewBox="0 0 560 320"><defs><style>.cls-1{fill:#372869}.cls-3{fill:#bca3ce;stroke:#553f98;stroke-miterlimit:10;stroke-width:.5px}.cls-4{fill:#fff}</style></defs><path d="M.76-.02H560v320H.76z" class="cls-1"/><path d="M405.14-.12c-3.45 16.81-8.27 33.52-14.2 49.97-.77 2.14-1.56 4.27-2.37 6.4-3.15 8.31-6.6 16.53-10.28 24.65a462 462 0 0 1-18.36 36.11c-.66 1.19-1.34 2.38-2.03 3.56-.5.88-1 1.74-1.5 2.61-10.64 18.29-22.38 35.76-34.79 52.08-48.21 64.41-136.13 76.41-201.3 120.77-3.92 2.65-7.76 5.44-11.5 8.36a168 168 0 0 0-8.87 7.44c-2.85 2.53-5.66 5.19-8.43 7.96H-.37V-.12z" style="fill:#553f98"/><path d="M8.26 52.66h14.79l20.34 32.87V52.66h14.59v47.05H43.39L22.84 66.84v32.87H8.25V52.66Zm128.82 4.73h14.18v6.57h7.81v4.52h-7.81v31.23h-14.18V68.48h-7.6v-4.52h7.6zM65.99 99.71V68.48h14.18v31.23zm0-37.39v-9.66h14.18v9.66zm248.6 3.9c-11.51 0-20.75 7.81-20.75 17.67s9.25 17.67 20.75 17.67 20.75-8.01 20.75-17.67c-.21-9.66-9.45-17.67-20.75-17.67m5.55 17.67v6.57c0 4.93-2.88 6.99-5.75 6.99s-5.75-2.05-5.75-6.99V77.11c0-4.93 2.88-6.99 5.75-6.99s5.75 2.05 5.75 6.99zm-44.79 0v-5.55c0-4.93-3.29-6.16-5.55-6.16s-5.55 1.23-5.55 6.16v11.09c0 4.93 3.29 6.16 5.55 6.16s5.55-1.23 5.55-6.16v-5.55Zm-.2-31.23h13.97v47.05h-14.18v-1.85c-5.34 3.49-11.51 3.49-16.44 1.23-1.23-.62-9.66-4.52-9.66-15.61 0-8.22 7.81-17.26 18.08-16.44 3.29.41 5.75 1.64 8.01 2.88.21-7.19.21-17.26.21-17.26Zm-161.7 14.38c5.34-.21 16.03 3.29 16.03 15.82v17.05H115.3V79.36c0-2.67-2.67-5.75-6.57-5.75s-6.78 2.88-6.78 5.75v20.55H87.77V68.68h14.18v3.29c2.88-2.88 6.78-4.93 11.51-4.93m115.25 0c5.34-.21 16.03 3.29 16.03 15.82v17.05h-14.18V79.36c0-2.67-2.67-5.75-6.37-5.75-3.9 0-6.78 2.88-6.78 5.75v20.55h-13.97V68.68h13.97v3.29c2.67-2.88 6.57-4.93 11.3-4.93m-44.79 21.78v1.85c0 5.75-3.7 6.99-5.96 6.99-2.05 0-5.96-1.23-5.96-6.99V84.3h26.71c0-9.66-9.45-17.67-20.96-17.67s-20.96 7.81-20.96 17.67 9.45 17.67 20.96 17.67c9.66 0 17.67-5.34 20.13-12.74h-13.97m-11.7-9.86c0-2.67 0-4.52 1.03-6.16 1.03-1.85 3.08-2.88 4.93-2.88s3.9.82 4.93 2.88c.82 1.64.82 3.49.82 6.16zm163.96-19.72h1.03c1.03 0 1.64-.41 1.64-1.23s-.62-1.23-1.85-1.23h-.82v2.47Zm6.98.61c0 3.29-2.67 5.96-5.96 5.96s-5.96-2.67-5.96-5.96 2.67-5.75 5.96-5.75 5.96 2.47 5.96 5.75m-5.96-7.19c-3.9 0-7.19 3.29-7.19 7.19 0 4.11 3.29 7.19 7.19 7.19 4.11 0 7.19-3.29 7.19-7.19.21-3.9-3.08-7.19-7.19-7.19m.21 3.08c2.26 0 3.49.82 3.49 2.26 0 1.03-.62 1.85-1.85 2.26l1.85 3.49h-2.05l-1.44-3.29h-1.23v3.29h-1.85v-8.01z" class="cls-4"/><path d="M275.14-.02c0 3.26-.05 10.1-.2 15.39-2.26-1.23-4.73-2.46-8.01-2.87-10.28-.83-18.08 8.22-18.08 16.43 0 11.1 8.42 15 9.65 15.62 4.93 2.26 11.1 2.26 16.44-1.23v1.84h14.18V-.02zm.21 34.91c0 4.93-3.29 6.17-5.55 6.17s-5.54-1.24-5.54-6.17V23.8c0-4.93 3.28-6.17 5.54-6.17s5.55 1.24 5.55 6.17zM65.99-.02v7.79h14.18V-.02zm-22.6 0v31.01L24.21-.02H8.26v45.18h14.58V12.29l20.55 32.87h14.59V-.02zm297.5 3.89c0-1.44-1.23-2.26-3.49-2.26h-3.08v8.01h1.85V6.33h1.23l1.44 3.29h2.05l-1.85-3.49c1.24-.41 1.85-1.23 1.85-2.26m-3.7 1.23h-1.02V2.64h.82c1.23 0 1.85.41 1.85 1.23s-.62 1.23-1.65 1.23m4.42-5.12h-4.01c3.1.19 5.55 2.59 5.55 5.74s-2.67 5.96-5.96 5.96-5.95-2.68-5.95-5.96 2.45-5.55 5.54-5.74h-3.86C331.16 1.3 330 3.4 330 5.72c0 4.11 3.29 7.19 7.19 7.19 4.11 0 7.19-3.29 7.19-7.19.12-2.32-.99-4.42-2.77-5.74m-.72 3.89c0-1.44-1.23-2.26-3.49-2.26h-3.08v8.01h1.85V6.33h1.23l1.44 3.29h2.05l-1.85-3.49c1.24-.41 1.85-1.23 1.85-2.26m-3.7 1.23h-1.02V2.64h.82c1.23 0 1.85.41 1.85 1.23s-.62 1.23-1.65 1.23m3.7-1.23c0-1.44-1.23-2.26-3.49-2.26h-3.08v8.01h1.85V6.33h1.23l1.44 3.29h2.05l-1.85-3.49c1.24-.41 1.85-1.23 1.85-2.26m-3.7 1.23h-1.02V2.64h.82c1.23 0 1.85.41 1.85 1.23s-.62 1.23-1.65 1.23M183.92 36.12c0 5.76-3.7 6.99-5.96 6.99-2.05 0-5.95-1.23-5.95-6.99v-6.36h26.7c0-9.66-9.45-17.67-20.95-17.67s-20.96 7.8-20.96 17.67 9.45 17.66 20.96 17.66c9.65 0 17.67-5.34 20.13-12.73h-13.97zm-10.68-17.46c1.03-1.85 3.08-2.88 4.93-2.88s3.9.83 4.93 2.88c.82 1.64.82 3.49.82 6.16h-11.71c0-2.67 0-4.52 1.03-6.16m55.47-6.16c-4.72 0-8.63 2.05-11.3 4.93v-3.29h-13.97v31.23h13.97V24.82c0-2.87 2.88-5.75 6.78-5.75s6.37 3.08 6.37 5.75v20.55h14.18V28.32c0-12.54-10.69-16.03-16.03-15.82m-115.26 0c-4.73 0-8.63 2.05-11.51 4.93v-3.29H87.77v31.23h14.17V24.82c0-2.87 2.88-5.75 6.78-5.75s6.58 3.08 6.58 5.75v20.55h14.18V28.32c0-12.54-10.69-16.03-16.03-15.82m201.14-.83c-11.5 0-20.75 7.81-20.75 17.67s9.25 17.67 20.75 17.67 20.75-8.01 20.75-17.67c-.2-9.65-9.45-17.67-20.75-17.67m5.55 24.25c0 4.93-2.88 6.98-5.75 6.98s-5.75-2.05-5.75-6.98V22.56c0-4.93 2.87-6.98 5.75-6.98s5.75 2.05 5.75 6.98zM65.99 13.93v31.23h14.18V13.93zm85.26-4.52V2.84h-14.17v6.57h-7.6v4.52h7.6v31.23h14.17V13.93h7.81V9.41zM8.26 107.21h14.79l20.34 32.87v-32.87h14.59v47.05H43.39l-20.55-32.87v32.87H8.25v-47.05Zm128.82 4.72h14.18v6.57h7.81v4.52h-7.81v31.23h-14.18v-31.23h-7.6v-4.52h7.6zm-71.09 42.33v-31.23h14.18v31.23zm0-37.4v-9.66h14.18v9.66zm248.6 3.91c-11.51 0-20.75 7.81-20.75 17.67s9.25 17.67 20.75 17.67 20.75-8.01 20.75-17.67c-.21-9.66-9.45-17.67-20.75-17.67m5.55 17.67v6.57c0 4.93-2.88 6.99-5.75 6.99s-5.75-2.05-5.75-6.99v-13.35c0-4.93 2.88-6.99 5.75-6.99s5.75 2.05 5.75 6.99zm-44.79 0v-5.55c0-4.93-3.29-6.16-5.55-6.16s-5.55 1.23-5.55 6.16v11.09c0 4.93 3.29 6.16 5.55 6.16s5.55-1.23 5.55-6.16v-5.55Zm-.2-31.23h13.97v47.05h-14.18v-1.85c-5.34 3.49-11.51 3.49-16.44 1.23-1.23-.62-9.66-4.52-9.66-15.61 0-8.22 7.81-17.26 18.08-16.44 3.29.41 5.75 1.64 8.01 2.88.21-7.19.21-17.26.21-17.26Zm-161.7 14.38c5.34-.21 16.03 3.29 16.03 15.82v17.05H115.3v-20.55c0-2.67-2.67-5.75-6.57-5.75s-6.78 2.88-6.78 5.75v20.55H87.77v-31.23h14.18v3.29c2.88-2.88 6.78-4.93 11.51-4.93m115.25 0c5.34-.21 16.03 3.29 16.03 15.82v17.05h-14.18v-20.55c0-2.67-2.67-5.75-6.37-5.75-3.9 0-6.78 2.88-6.78 5.75v20.55h-13.97v-31.23h13.97v3.29c2.67-2.88 6.57-4.93 11.3-4.93m-44.79 21.78v1.85c0 5.75-3.7 6.99-5.96 6.99-2.05 0-5.96-1.23-5.96-6.99v-6.37h26.71c0-9.66-9.45-17.67-20.96-17.67s-20.96 7.81-20.96 17.67 9.45 17.67 20.96 17.67c9.66 0 17.67-5.34 20.13-12.74h-13.97m-11.7-9.86c0-2.67 0-4.52 1.03-6.16 1.03-1.85 3.08-2.88 4.93-2.88s3.9.82 4.93 2.88c.82 1.64.82 3.49.82 6.16zm163.96-19.73h1.03c1.03 0 1.64-.41 1.64-1.23s-.62-1.23-1.85-1.23h-.82v2.47Zm6.98.62c0 3.29-2.67 5.96-5.96 5.96s-5.96-2.67-5.96-5.96 2.67-5.75 5.96-5.75 5.96 2.47 5.96 5.75m-5.96-7.19c-3.9 0-7.19 3.29-7.19 7.19 0 4.11 3.29 7.19 7.19 7.19 4.11 0 7.19-3.29 7.19-7.19.21-3.9-3.08-7.19-7.19-7.19m.21 3.08c2.26 0 3.49.82 3.49 2.26 0 1.03-.62 1.85-1.85 2.26l1.85 3.49h-2.05l-1.44-3.29h-1.23v3.29h-1.85v-8.01zM8.26 216.3h14.79l20.34 32.87V216.3h14.59v47.05H43.39l-20.55-32.87v32.87H8.25V216.3Zm128.82 4.73h14.18v6.57h7.81v4.52h-7.81v31.23h-14.18v-31.23h-7.6v-4.52h7.6zm-71.09 42.32v-31.23h14.18v31.23zm0-37.39v-9.66h14.18v9.66zm248.6 3.9c-11.51 0-20.75 7.81-20.75 17.67s9.25 17.67 20.75 17.67 20.75-8.01 20.75-17.67c-.21-9.66-9.45-17.67-20.75-17.67m5.55 17.67v6.57c0 4.93-2.88 6.99-5.75 6.99s-5.75-2.05-5.75-6.99v-13.35c0-4.93 2.88-6.99 5.75-6.99s5.75 2.05 5.75 6.99zm-44.79 0v-5.55c0-4.93-3.29-6.16-5.55-6.16s-5.55 1.23-5.55 6.16v11.09c0 4.93 3.29 6.16 5.55 6.16s5.55-1.23 5.55-6.16v-5.55Zm-.2-31.23h13.97v47.05h-14.18v-1.85c-5.34 3.49-11.51 3.49-16.44 1.23-1.23-.62-9.66-4.52-9.66-15.61 0-8.22 7.81-17.26 18.08-16.44 3.29.41 5.75 1.64 8.01 2.88.21-7.19.21-17.26.21-17.26Zm-161.7 14.38c5.34-.21 16.03 3.29 16.03 15.82v17.05H115.3V243c0-2.67-2.67-5.75-6.57-5.75s-6.78 2.88-6.78 5.75v20.55H87.77v-31.23h14.18v3.29c2.88-2.88 6.78-4.93 11.51-4.93m115.25 0c5.34-.21 16.03 3.29 16.03 15.82v17.05h-14.18V243c0-2.67-2.67-5.75-6.37-5.75-3.9 0-6.78 2.88-6.78 5.75v20.55h-13.97v-31.23h13.97v3.29c2.67-2.88 6.57-4.93 11.3-4.93m-44.79 21.78v1.85c0 5.75-3.7 6.99-5.96 6.99-2.05 0-5.96-1.23-5.96-6.99v-6.37h26.71c0-9.66-9.45-17.67-20.96-17.67s-20.96 7.81-20.96 17.67 9.45 17.67 20.96 17.67c9.66 0 17.67-5.34 20.13-12.74h-13.97m-11.7-9.86c0-2.67 0-4.52 1.03-6.16 1.03-1.85 3.08-2.88 4.93-2.88s3.9.82 4.93 2.88c.82 1.64.82 3.49.82 6.16zm163.96-19.72h1.03c1.03 0 1.64-.41 1.64-1.23s-.62-1.23-1.85-1.23h-.82v2.47Zm6.98.61c0 3.29-2.67 5.96-5.96 5.96s-5.96-2.67-5.96-5.96 2.67-5.75 5.96-5.75 5.96 2.47 5.96 5.75m-5.96-7.19c-3.9 0-7.19 3.29-7.19 7.19 0 4.11 3.29 7.19 7.19 7.19 4.11 0 7.19-3.29 7.19-7.19.21-3.9-3.08-7.19-7.19-7.19m.21 3.08c2.26 0 3.49.82 3.49 2.26 0 1.03-.62 1.85-1.85 2.26l1.85 3.49h-2.05l-1.44-3.29h-1.23v3.29h-1.85v-8.01zM8.26 161.75h14.79l20.34 32.87v-32.87h14.59v47.05H43.39l-20.55-32.87v32.87H8.25v-47.05Zm128.82 4.73h14.18v6.57h7.81v4.52h-7.81v31.23h-14.18v-31.23h-7.6v-4.52h7.6zM65.99 208.8v-31.23h14.18v31.23zm0-37.39v-9.66h14.18v9.66zm248.6 3.91c-11.51 0-20.75 7.81-20.75 17.67s9.25 17.67 20.75 17.67 20.75-8.01 20.75-17.67c-.21-9.66-9.45-17.67-20.75-17.67m5.55 17.66v6.57c0 4.93-2.88 6.99-5.75 6.99s-5.75-2.05-5.75-6.99V186.2c0-4.93 2.88-6.99 5.75-6.99s5.75 2.05 5.75 6.99zm-44.79 0v-5.55c0-4.93-3.29-6.16-5.55-6.16s-5.55 1.23-5.55 6.16v11.09c0 4.93 3.29 6.16 5.55 6.16s5.55-1.23 5.55-6.16v-5.55Zm-.2-31.22h13.97v47.05h-14.18v-1.85c-5.34 3.49-11.51 3.49-16.44 1.23-1.23-.62-9.66-4.52-9.66-15.61 0-8.22 7.81-17.26 18.08-16.44 3.29.41 5.75 1.64 8.01 2.88.21-7.19.21-17.26.21-17.26Zm-161.7 14.38c5.34-.21 16.03 3.29 16.03 15.82v17.05H115.3v-20.55c0-2.67-2.67-5.75-6.57-5.75s-6.78 2.88-6.78 5.75v20.55H87.77v-31.23h14.18v3.29c2.88-2.88 6.78-4.93 11.51-4.93m115.25 0c5.34-.21 16.03 3.29 16.03 15.82v17.05h-14.18v-20.55c0-2.67-2.67-5.75-6.37-5.75-3.9 0-6.78 2.88-6.78 5.75v20.55h-13.97v-31.23h13.97v3.29c2.67-2.88 6.57-4.93 11.3-4.93m-44.79 21.78v1.85c0 5.75-3.7 6.99-5.96 6.99-2.05 0-5.96-1.23-5.96-6.99v-6.37h26.71c0-9.66-9.45-17.67-20.96-17.67s-20.96 7.81-20.96 17.67 9.45 17.67 20.96 17.67c9.66 0 17.67-5.34 20.13-12.74h-13.97m-11.7-9.87c0-2.67 0-4.52 1.03-6.16 1.03-1.85 3.08-2.88 4.93-2.88s3.9.82 4.93 2.88c.82 1.64.82 3.49.82 6.16zm163.96-19.72h1.03c1.03 0 1.64-.41 1.64-1.23s-.62-1.23-1.85-1.23h-.82v2.47Zm6.98.62c0 3.29-2.67 5.96-5.96 5.96s-5.96-2.67-5.96-5.96 2.67-5.75 5.96-5.75 5.96 2.47 5.96 5.75m-5.96-7.19c-3.9 0-7.19 3.29-7.19 7.19 0 4.11 3.29 7.19 7.19 7.19 4.11 0 7.19-3.29 7.19-7.19.21-3.9-3.08-7.19-7.19-7.19m.21 3.08c2.26 0 3.49.82 3.49 2.26 0 1.03-.62 1.85-1.85 2.26l1.85 3.49h-2.05l-1.44-3.29h-1.23v3.29h-1.85v-8.01zM8.26 270.85h14.79l20.34 32.87v-32.87h14.59v47.05H43.39l-20.55-32.87v32.87H8.25v-47.05Zm128.82 4.72h14.18v6.57h7.81v4.52h-7.81v31.23h-14.18v-31.23h-7.6v-4.52h7.6zM65.99 317.9v-31.23h14.18v31.23zm0-37.39v-9.66h14.18v9.66zm248.6 3.9c-11.51 0-20.75 7.81-20.75 17.67s9.25 17.67 20.75 17.67 20.75-8.01 20.75-17.67c-.21-9.66-9.45-17.67-20.75-17.67m5.55 17.67v6.57c0 4.93-2.88 6.99-5.75 6.99s-5.75-2.05-5.75-6.99V295.3c0-4.93 2.88-6.99 5.75-6.99s5.75 2.05 5.75 6.99zm-44.79 0v-5.55c0-4.93-3.29-6.16-5.55-6.16s-5.55 1.23-5.55 6.16v11.09c0 4.93 3.29 6.16 5.55 6.16s5.55-1.23 5.55-6.16v-5.55Zm-.2-31.23h13.97v47.05h-14.18v-1.85c-5.34 3.49-11.51 3.49-16.44 1.23-1.23-.62-9.66-4.52-9.66-15.61 0-8.22 7.81-17.26 18.08-16.44 3.29.41 5.75 1.64 8.01 2.88.21-7.19.21-17.26.21-17.26Zm-161.7 14.38c5.34-.21 16.03 3.29 16.03 15.82v17.05H115.3v-20.55c0-2.67-2.67-5.75-6.57-5.75s-6.78 2.88-6.78 5.75v20.55H87.77v-31.23h14.18v3.29c2.88-2.88 6.78-4.93 11.51-4.93m115.25 0c5.34-.21 16.03 3.29 16.03 15.82v17.05h-14.18v-20.55c0-2.67-2.67-5.75-6.37-5.75-3.9 0-6.78 2.88-6.78 5.75v20.55h-13.97v-31.23h13.97v3.29c2.67-2.88 6.57-4.93 11.3-4.93m-44.79 21.78v1.85c0 5.75-3.7 6.99-5.96 6.99-2.05 0-5.96-1.23-5.96-6.99v-6.37h26.71c0-9.66-9.45-17.67-20.96-17.67s-20.96 7.81-20.96 17.67 9.45 17.67 20.96 17.67c9.66 0 17.67-5.34 20.13-12.74h-13.97m-11.7-9.86c0-2.67 0-4.52 1.03-6.16 1.03-1.85 3.08-2.88 4.93-2.88s3.9.82 4.93 2.88c.82 1.64.82 3.49.82 6.16zm163.96-19.73h1.03c1.03 0 1.64-.41 1.64-1.23s-.62-1.23-1.85-1.23h-.82v2.47Zm6.98.62c0 3.29-2.67 5.96-5.96 5.96s-5.96-2.67-5.96-5.96 2.67-5.75 5.96-5.75 5.96 2.47 5.96 5.75m-5.96-7.19c-3.9 0-7.19 3.29-7.19 7.19 0 4.11 3.29 7.19 7.19 7.19 4.11 0 7.19-3.29 7.19-7.19.21-3.9-3.08-7.19-7.19-7.19m.21 3.08c2.26 0 3.49.82 3.49 2.26 0 1.03-.62 1.85-1.85 2.26l1.85 3.49h-2.05l-1.44-3.29h-1.23v3.29h-1.85v-8.01z" class="cls-1"/><path d="M145.77 143.27h-12.78l-12.21 28.41-5.41-28.41h-10.51L89.9 185.13l-7-41.86H69.78l-19.87 45.12 2.97-18.86H33.14l-1.56 9.71h8.28l-.96 5.19c-4.72 1.95-12.74 1.21-16.16-4.94-2.18-3.9-4.2-12.57 4.94-20.56 7.47-6.5 20.36-7.68 27.8-4.28 0 0 .93-5.47 1.65-10.51-14.3-4.94-25.42-.82-32.85 3.79-10.18 6.23-15.07 15.81-13.73 28.82 1.51 15.06 21.03 24.59 37.58 14.98.19-.09.27-.17.44-.19l-1.59 3.51h11.11l7-15.51h12.29l2.69 15.51h18.12l9.22-28.95 7.58 28.95h7.08l12.16-32.06 4.8 32.25h10.62l-3.87-51.98Zm-76.49 26.26 4.5-10.05 1.98 10.05z" class="cls-4"/><path d="M149.64 195.28h29.67l1.78-11.09h-18.55l1.45-9.25h16.17l1.76-11.12h-16.31l1.4-9.19h18.58l1.76-11.12H157.9zm146.91-35.49-6.64-16.88h-12.18l12.57 27.31-3.9 24.45h10.68l3.23-21.63 19.19-30.13h-12.46z" class="cls-4"/><path d="M231.02 168.9c13.45-13.96.11-24.86-7.06-25.03-5.43-.07-18.48 0-19.82 0l-8.23 51.41h23.95c9.88 0 24.29-14.52 11.15-26.38Zm-13.28 16.44h-9.39l1.65-10.32h8.89c8.48 0 8.24 10.32-1.15 10.32m1.28-20.91h-7.36l1.62-9.6h6.91c7.52 0 5.98 9.6-1.18 9.6Zm48.31-20.7c-11.8-2.71-24.07 6.67-27.4 20.97-3.27 14.33 3.6 28.13 15.37 30.88 11.8 2.69 24.04-6.7 27.39-21 3.27-14.33-3.62-28.13-15.36-30.85m4.14 30.44c-2.85 8.56-9.77 13.55-15.39 11-5.6-2.5-7.88-11.53-4.99-20.15 2.88-8.65 9.77-13.53 15.37-11.03 5.62 2.52 7.9 11.55 5.02 20.17Z" class="cls-4"/><path d="M560 14.9v291.67H446.76a6.88 6.88 0 0 1-6.88-6.88V21.78c0-3.8 3.08-6.88 6.88-6.88z" class="cls-3"/><path d="M458.68 38.33H560V151.3H458.68c-3.09 0-5.6-2.52-5.6-5.61V43.94c0-3.09 2.51-5.61 5.6-5.61ZM560 206.44v19.71c-3.82-1.64-6.5-5.43-6.5-9.86s2.68-8.21 6.5-9.85Z" class="cls-3"/><path d="M480.43 50.39H560v86.52h-79.57z" class="cls-3"/><circle cx="464.13" cy="81.01" r="2.25" class="cls-3"/><path d="M495.99 205.37h-11.82c-.7 0-1.27-.57-1.27-1.27v-11.82c0-.7-.57-1.27-1.27-1.27h-10.8c-.7 0-1.27.57-1.27 1.27v11.82c0 .7-.57 1.27-1.27 1.27h-11.82c-.7 0-1.27.57-1.27 1.27v10.8c0 .7.57 1.27 1.27 1.27h11.82c.7 0 1.27.57 1.27 1.27v11.82c0 .7.57 1.27 1.27 1.27h10.8c.7 0 1.27-.57 1.27-1.27v-11.82c0-.7.57-1.27 1.27-1.27h11.82c.7 0 1.27-.57 1.27-1.27v-10.8c0-.7-.57-1.27-1.27-1.27Z" class="cls-3"/><rect width="21.44" height="5.49" x="493.83" y="252.45" class="cls-3" rx="2.63" ry="2.63" transform="rotate(-27.14 504.555 255.201)"/><rect width="21.44" height="5.49" x="523.48" y="252.44" class="cls-3" rx="2.63" ry="2.63" transform="rotate(-27.14 534.197 255.188)"/><path d="M559.11 269.33c.28-.16.59-.26.89-.28v6.32l-1.72-2.98a2.25 2.25 0 0 1 .82-3.06zm.89 17.26v8.96l-1.82-3.16-8.61-14.91c-.62-1.07-.26-2.44.81-3.06h.01a2.24 2.24 0 0 1 3.06.82z" class="cls-3"/><path d="m558.18 292.39 1.82-1.06v15.24h-26.23z" style="isolation:isolate;opacity:.06;fill:#bca3ce;stroke:#553f98;stroke-miterlimit:10;stroke-width:.5px"/><path d="M460.05 42.49h39.66v1.06h-39.66zm0 2.68h39.66v1.06h-39.66zm-4.14-18H560v3.05H439.66v-3.05h13.2V14.89h3.05zm49.47 16.74q-.105-.27-.3-.51-.195-.225-.51-.36c-.22-.09-.46-.13-.73-.13h-1.18v3.26h1.19c.27 0 .52-.05.73-.14.22-.1.39-.23.52-.38.13-.16.22-.34.29-.53.06-.2.1-.41.1-.62s-.04-.4-.11-.59Zm-.61 1.48c-.21.25-.52.37-.92.37h-.78V43.3h.78c.39 0 .7.12.91.35.21.24.32.5.32.85s-.1.64-.31.89Zm3.8-2.03c-.29-.33-.7-.5-1.22-.5s-.9.16-1.21.48c-.3.32-.45.73-.45 1.21a1.68 1.68 0 0 0 .41 1.16c.13.16.3.29.52.38.21.1.46.14.73.14s.51-.04.72-.14c.22-.09.39-.22.52-.38q.195-.24.3-.54c.105-.3.11-.4.11-.62 0-.46-.14-.86-.43-1.19Zm-.3 2.11c-.21.26-.52.38-.92.38s-.71-.12-.93-.38c-.22-.25-.33-.54-.33-.92s.11-.69.33-.94.53-.38.93-.38c.27 0 .5.07.69.2.2.13.33.28.43.48.08.2.12.41.12.64 0 .35-.11.66-.32.92Zm.66-2.19v-.36h2.63v.36h-1.11v2.89h-.4v-2.89h-1.11Zm5.34 1.87h-.08l-1.18-1.66v2.68h-.4v-3.26h.48l1.14 1.67 1.13-1.67h.48v3.26h-.4V43.5l-1.18 1.65Zm3.76-2.24h-.46l-1.46 3.26h.44l.32-.72h1.86l.32.72h.44zm-1 2.17.77-1.76.77 1.76zm2.06-1.8v-.36h2.63v.36h-1.11v2.89h-.4v-2.89h-1.11Zm4.52 1.69c.32-.03.55-.13.71-.32.15-.2.23-.42.23-.69 0-.29-.1-.53-.29-.74-.2-.2-.47-.3-.82-.3h-1.47v3.25h.4V45h.79l1.01 1.17h.52zm-1.24-.33v-1.36h1.07c.22 0 .4.07.52.21.13.14.18.3.18.48q0 .285-.18.48c-.12.12-.3.19-.54.19zm2.65-1.73h.41v3.26h-.41zm3.43.01v.02l-1.1 1.58 1.17 1.65h-.47l-.96-1.37-.96 1.37h-.47l1.17-1.66-1.1-1.58v-.02h.47l.89 1.32.9-1.32h.47Zm1.18-.01.9 2.69.9-2.69h.26l.91 2.69.89-2.69h.46l-1.14 3.26h-.41l-.85-2.44-.84 2.44h-.41l-1.13-3.26zm4.62 0h.41v3.26h-.41zm.66.37v-.36h2.63v.36h-1.11v2.89h-.4v-2.89h-1.11Zm5.15 1.42h-1.86v1.47h-.41v-3.26h.41v1.41h1.86v-1.41h.41v3.26h-.41zm3.62-1.38c-.17-.07-.35-.11-.54-.11-.23 0-.43.05-.6.14a.44.44 0 0 0-.25.42c0 .08.02.16.06.22s.11.11.2.15.18.07.27.09.21.05.35.07c.16.02.29.05.39.07s.21.06.34.1.23.1.3.16.13.15.18.25.08.23.08.38c0 .17-.04.33-.12.46s-.18.23-.32.3-.27.13-.42.16-.31.05-.47.05c-.31 0-.59-.06-.83-.18s-.43-.31-.55-.57l.34-.2c.1.18.25.32.44.42.2.1.4.15.61.15.11 0 .21 0 .31-.03s.2-.05.29-.09.17-.11.23-.19.09-.18.09-.3c0-.1-.02-.18-.07-.25s-.12-.13-.22-.17-.19-.08-.29-.1-.22-.05-.36-.07c-.15-.02-.27-.05-.38-.07-.1-.02-.21-.06-.33-.1-.12-.05-.21-.1-.28-.16s-.13-.14-.18-.24a.74.74 0 0 1-.07-.34.79.79 0 0 1 .41-.72c.13-.07.26-.12.4-.15s.29-.05.44-.05c.28 0 .52.04.73.13.2.08.38.24.51.47l-.31.19a.8.8 0 0 0-.38-.31h.01Zm.81-.04v-.36h2.63v.36h-1.11v2.89h-.4v-2.89h-1.11Zm2.88-.37h2.29v.37h-1.89v1.02h1.81v.38h-1.81v1.1h1.96v.39h-2.36zm4.42 2.06c.31-.03.55-.13.7-.32.16-.2.23-.42.23-.69 0-.29-.09-.53-.29-.74q-.285-.3-.81-.3h-1.48v3.25h.41V45h.79l1.01 1.17h.51zm-1.24-.33v-1.36h1.07q.33 0 .51.21c.13.14.19.3.19.48 0 .19-.06.35-.19.48-.12.12-.3.19-.53.19zm2.65-1.73h2.29v.37h-1.89v1.02h1.81v.38h-1.81v1.1h1.96v.39h-2.36zm5.41.45c-.29-.33-.7-.5-1.22-.5s-.9.16-1.21.48c-.3.32-.45.73-.45 1.21a1.68 1.68 0 0 0 .41 1.16c.13.16.3.29.52.38.21.1.46.14.73.14s.51-.04.72-.14c.22-.09.39-.22.52-.38q.195-.24.3-.54c.105-.3.11-.4.11-.62 0-.46-.14-.86-.43-1.19Zm-.3 2.11c-.21.26-.52.38-.92.38s-.71-.12-.93-.38c-.22-.25-.33-.54-.33-.92s.11-.69.33-.94c.23-.25.53-.38.93-.38.27 0 .5.07.7.2.19.13.32.28.42.48.08.2.12.41.12.64 0 .35-.11.66-.32.92Zm-97.66 43.35a.5.5 0 0 0-.29-.2q.15-.06.24-.18c.05-.08.08-.17.08-.27q0-.285-.21-.45a.87.87 0 0 0-.52-.15h-.94v2.16h.94q.165 0 .3-.03c.09-.02.18-.05.25-.1q.12-.06.18-.18c.06-.12.07-.18.07-.29s-.04-.21-.1-.31Zm-1.37-1.01h.67c.14 0 .25.03.34.09.08.07.12.15.12.27 0 .11-.04.2-.12.25s-.19.08-.32.08h-.69zm1.15 1.49s-.07.08-.13.11c-.06.02-.11.04-.17.05-.05.01-.11.02-.18.02h-.67v-.74h.69c.13 0 .25.03.35.1.11.07.16.16.16.29 0 .07-.02.12-.05.17Zm1.81-1.73h-.3l-.97 2.16h.29l.21-.48h1.24l.21.48h.29zm-.66 1.44.51-1.17.51 1.17zm1.59-1.2v-.24h1.74v.24h-.74v1.92h-.27v-1.92h-.74Zm1.91 0v-.24h1.74v.24h-.74v1.92h-.27v-1.92h-.74Zm2.14-.24h1.52v.25h-1.25v.68h1.2v.25h-1.2v.73h1.31v.26h-1.57v-2.16Zm3.16 1.36c.21-.02.37-.09.47-.22.11-.12.15-.27.15-.45 0-.19-.06-.35-.19-.49s-.31-.2-.54-.2h-.98v2.16h.27v-.78h.52l.68.78h.34zm-.82-.22v-.9h.71c.15 0 .26.05.34.14.09.09.13.2.13.32 0 .13-.04.23-.13.32-.08.08-.19.12-.35.12zm1.66-1.13h.33l.65 1.02.66-1.02h.33l-.85 1.28v.88h-.28v-.88l-.84-1.27Z" class="cls-3"/></svg>