<?xml version="1.0" encoding="UTF-8"?>
<svg id="Layer_1" data-name="Layer 1" xmlns="http://www.w3.org/2000/svg" viewBox="0 0 560 320">
  <defs>
    <style>
      .cls-1 {
        fill: #372869;
      }

      .cls-2, .cls-3 {
        fill: #fff;
      }

      .cls-3, .cls-4 {
        fill-rule: evenodd;
      }

      .cls-4 {
        fill: #4b367c;
      }

      .cls-5 {
        fill: #bca3ce;
        stroke: #553f98;
        stroke-miterlimit: 10;
        stroke-width: .5px;
      }

      .cls-6 {
        fill: #553f98;
      }
    </style>
  </defs>
  <polygon class="cls-1" points="68.42 -.02 60.41 -.02 45.82 -.02 26.09 -.02 10.69 -.02 .76 -.02 .76 319.98 560 319.98 560 -.02 342.51 -.02 336.86 -.02 291.55 -.02 277.58 -.02 82.6 -.02 68.42 -.02"/>
  <path class="cls-6" d="M405.14-.12c-3.45,16.81-8.27,33.52-14.2,49.97-.77,2.14-1.56,4.27-2.37,6.4-3.15,8.31-6.6,16.53-10.28,24.65-5.58,12.3-11.73,24.36-18.36,36.11-.66,1.19-1.34,2.38-2.03,3.56-.5.88-1,1.74-1.5,2.61h0c-10.64,18.29-22.38,35.76-34.79,52.08-48.21,64.41-136.13,76.41-201.3,120.77-3.92,2.65-7.76,5.44-11.5,8.36-1.03.8-2.04,1.61-3.05,2.44-1.96,1.61-3.9,3.27-5.82,5-2.85,2.53-5.66,5.19-8.43,7.96H-.37V-.12h405.51Z"/>
  <path class="cls-2" d="M10.69,53.55h14.79l20.34,32.87v-32.87h14.59v47.05h-14.59l-20.55-32.87v32.87h-14.59v-47.05ZM139.51,58.27h14.18v6.57h7.81v4.52h-7.81v31.23h-14.18v-31.23h-7.6v-4.52h7.6v-6.57ZM68.42,100.6v-31.23h14.18v31.23h-14.18ZM68.42,63.2v-9.66h14.18v9.66h-14.18ZM317.03,67.11c-11.51,0-20.75,7.81-20.75,17.67s9.25,17.67,20.75,17.67,20.75-8.01,20.75-17.67c-.21-9.66-9.45-17.67-20.75-17.67M322.57,84.78v6.57c0,4.93-2.88,6.99-5.75,6.99s-5.75-2.05-5.75-6.99v-13.35c0-4.93,2.88-6.99,5.75-6.99s5.75,2.05,5.75,6.99v6.78ZM277.78,84.78v-5.55c0-4.93-3.29-6.16-5.55-6.16s-5.55,1.23-5.55,6.16v11.09c0,4.93,3.29,6.16,5.55,6.16s5.55-1.23,5.55-6.16v-5.55ZM277.58,53.55h13.97v47.05h-14.18v-1.85c-5.34,3.49-11.51,3.49-16.44,1.23-1.23-.62-9.66-4.52-9.66-15.61,0-8.22,7.81-17.26,18.08-16.44,3.29.41,5.75,1.64,8.01,2.88.21-7.19.21-17.26.21-17.26h0ZM115.88,67.93c5.34-.21,16.03,3.29,16.03,15.82v17.05h-14.18v-20.55c0-2.67-2.67-5.75-6.57-5.75s-6.78,2.88-6.78,5.75v20.55h-14.18v-31.23h14.18v3.29c2.88-2.88,6.78-4.93,11.51-4.93M231.14,67.93c5.34-.21,16.03,3.29,16.03,15.82v17.05h-14.18v-20.55c0-2.67-2.67-5.75-6.37-5.75-3.9,0-6.78,2.88-6.78,5.75v20.55h-13.97v-31.23h13.97v3.29c2.67-2.88,6.57-4.93,11.3-4.93M186.35,89.71v1.85c0,5.75-3.7,6.99-5.96,6.99-2.05,0-5.96-1.23-5.96-6.99v-6.37h26.71c0-9.66-9.45-17.67-20.96-17.67s-20.96,7.81-20.96,17.67,9.45,17.67,20.96,17.67c9.66,0,17.67-5.34,20.13-12.74h-13.97M174.64,80.26c0-2.67,0-4.52,1.03-6.16,1.03-1.85,3.08-2.88,4.93-2.88s3.9.82,4.93,2.88c.82,1.64.82,3.49.82,6.16h-11.71ZM338.6,60.53h1.03c1.03,0,1.64-.41,1.64-1.23s-.62-1.23-1.85-1.23h-.82v2.47ZM345.58,61.15c0,3.29-2.67,5.96-5.96,5.96s-5.96-2.67-5.96-5.96,2.67-5.75,5.96-5.75,5.96,2.47,5.96,5.75ZM339.63,53.96c-3.9,0-7.19,3.29-7.19,7.19,0,4.11,3.29,7.19,7.19,7.19,4.11,0,7.19-3.29,7.19-7.19.21-3.9-3.08-7.19-7.19-7.19ZM339.83,57.04c2.26,0,3.49.82,3.49,2.26,0,1.03-.62,1.85-1.85,2.26l1.85,3.49h-2.05l-1.44-3.29h-1.23v3.29h-1.85v-8.01h3.08Z"/>
  <path class="cls-1" d="M153.69,10.3V3.73h-14.18v6.57h-7.6v4.52h7.6v31.23h14.18V14.82h7.8v-4.52h-7.8ZM68.42,14.82v31.23h14.18V14.82h-14.18ZM317.03,12.56c-11.51,0-20.76,7.81-20.76,17.67s9.25,17.67,20.76,17.67,20.75-8.01,20.75-17.67c-.21-9.66-9.45-17.67-20.75-17.67ZM322.57,36.8c0,4.94-2.87,6.99-5.75,6.99s-5.75-2.05-5.75-6.99v-13.35c0-4.93,2.87-6.99,5.75-6.99s5.75,2.06,5.75,6.99v13.35ZM277.58-.02c-.01,2.71-.04,10.44-.21,16.28-2.26-1.23-4.72-2.47-8.01-2.88-10.27-.82-18.08,8.22-18.08,16.44,0,11.09,8.42,15,9.66,15.61,4.93,2.26,11.09,2.26,16.43-1.23v1.85h14.18V-.02h-13.97ZM277.78,35.78c0,4.93-3.28,6.16-5.54,6.16s-5.55-1.23-5.55-6.16v-11.1c0-4.93,3.29-6.16,5.55-6.16s5.54,1.23,5.54,6.16v11.1ZM115.88,13.38c-4.72,0-8.63,2.06-11.5,4.93v-3.28h-14.18v31.23h14.18v-20.55c0-2.88,2.87-5.75,6.78-5.75s6.57,3.08,6.57,5.75v20.55h14.18v-17.06c0-12.53-10.69-16.02-16.03-15.82ZM231.14,13.38c-4.72,0-8.62,2.06-11.3,4.93v-3.28h-13.97v31.23h13.97v-20.55c0-2.88,2.88-5.75,6.78-5.75s6.37,3.08,6.37,5.75v20.55h14.18v-17.06c0-12.53-10.68-16.02-16.03-15.82ZM186.35,37.01c0,5.75-3.69,6.99-5.95,6.99-2.06,0-5.96-1.24-5.96-6.99v-6.37h26.71c0-9.66-9.45-17.67-20.96-17.67s-20.96,7.81-20.96,17.67,9.46,17.67,20.96,17.67c9.66,0,17.67-5.34,20.14-12.74h-13.98v1.44ZM175.67,19.55c1.03-1.85,3.08-2.88,4.93-2.88s3.91.82,4.93,2.88c.82,1.64.82,3.49.82,6.16h-11.71c0-2.67,0-4.52,1.03-6.16ZM343.32,4.75c0-1.43-1.23-2.26-3.49-2.26h-3.08v8.02h1.85v-3.29h1.23l1.44,3.29h2.05l-1.84-3.5c1.23-.41,1.84-1.23,1.84-2.26ZM339.63,5.99h-1.03v-2.47h.82c1.23,0,1.85.41,1.85,1.23s-.62,1.24-1.64,1.24ZM343.32,4.75c0-1.43-1.23-2.26-3.49-2.26h-3.08v8.02h1.85v-3.29h1.23l1.44,3.29h2.05l-1.84-3.5c1.23-.41,1.84-1.23,1.84-2.26ZM339.63,5.99h-1.03v-2.47h.82c1.23,0,1.85.41,1.85,1.23s-.62,1.24-1.64,1.24ZM343.32,4.75c0-1.43-1.23-2.26-3.49-2.26h-3.08v8.02h1.85v-3.29h1.23l1.44,3.29h2.05l-1.84-3.5c1.23-.41,1.84-1.23,1.84-2.26ZM339.63,5.99h-1.03v-2.47h.82c1.23,0,1.85.41,1.85,1.23s-.62,1.24-1.64,1.24ZM342.51-.02h-5.65c-2.58,1.11-4.42,3.7-4.42,6.62,0,4.11,3.28,7.19,7.19,7.19,4.11,0,7.19-3.28,7.19-7.19.15-2.93-1.66-5.51-4.31-6.62ZM339.63,12.56c-3.29,0-5.96-2.67-5.96-5.96s2.67-5.75,5.96-5.75,5.95,2.46,5.95,5.75-2.67,5.96-5.95,5.96ZM343.32,4.75c0-1.43-1.23-2.26-3.49-2.26h-3.08v8.02h1.85v-3.29h1.23l1.44,3.29h2.05l-1.84-3.5c1.23-.41,1.84-1.23,1.84-2.26ZM339.63,5.99h-1.03v-2.47h.82c1.23,0,1.85.41,1.85,1.23s-.62,1.24-1.64,1.24ZM343.32,4.75c0-1.43-1.23-2.26-3.49-2.26h-3.08v8.02h1.85v-3.29h1.23l1.44,3.29h2.05l-1.84-3.5c1.23-.41,1.84-1.23,1.84-2.26ZM339.63,5.99h-1.03v-2.47h.82c1.23,0,1.85.41,1.85,1.23s-.62,1.24-1.64,1.24ZM60.41-.02v46.07h-14.59L25.28,13.18v32.87h-14.59V-.02h15.4l19.73,31.89V-.02h14.59ZM82.6-.02v8.68h-14.18V-.02h14.18Z"/>
  <path class="cls-1" d="M10.69,108.09h14.79l20.34,32.87v-32.87h14.59v47.05h-14.59l-20.55-32.87v32.87h-14.59v-47.05ZM139.51,112.82h14.18v6.57h7.81v4.52h-7.81v31.23h-14.18v-31.23h-7.6v-4.52h7.6v-6.57ZM68.42,155.14v-31.23h14.18v31.23h-14.18ZM68.42,117.75v-9.66h14.18v9.66h-14.18ZM317.03,121.65c-11.51,0-20.75,7.81-20.75,17.67s9.25,17.67,20.75,17.67,20.75-8.01,20.75-17.67c-.21-9.66-9.45-17.67-20.75-17.67M322.57,139.32v6.57c0,4.93-2.88,6.99-5.75,6.99s-5.75-2.05-5.75-6.99v-13.35c0-4.93,2.88-6.99,5.75-6.99s5.75,2.05,5.75,6.99v6.78ZM277.78,139.32v-5.55c0-4.93-3.29-6.16-5.55-6.16s-5.55,1.23-5.55,6.16v11.09c0,4.93,3.29,6.16,5.55,6.16s5.55-1.23,5.55-6.16v-5.55ZM277.58,108.09h13.97v47.05h-14.18v-1.85c-5.34,3.49-11.51,3.49-16.44,1.23-1.23-.62-9.66-4.52-9.66-15.61,0-8.22,7.81-17.26,18.08-16.44,3.29.41,5.75,1.64,8.01,2.88.21-7.19.21-17.26.21-17.26h0ZM115.88,122.48c5.34-.21,16.03,3.29,16.03,15.82v17.05h-14.18v-20.55c0-2.67-2.67-5.75-6.57-5.75s-6.78,2.88-6.78,5.75v20.55h-14.18v-31.23h14.18v3.29c2.88-2.88,6.78-4.93,11.51-4.93M231.14,122.48c5.34-.21,16.03,3.29,16.03,15.82v17.05h-14.18v-20.55c0-2.67-2.67-5.75-6.37-5.75-3.9,0-6.78,2.88-6.78,5.75v20.55h-13.97v-31.23h13.97v3.29c2.67-2.88,6.57-4.93,11.3-4.93M186.35,144.25v1.85c0,5.75-3.7,6.99-5.96,6.99-2.05,0-5.96-1.23-5.96-6.99v-6.37h26.71c0-9.66-9.45-17.67-20.96-17.67s-20.96,7.81-20.96,17.67,9.45,17.67,20.96,17.67c9.66,0,17.67-5.34,20.13-12.74h-13.97M174.64,134.8c0-2.67,0-4.52,1.03-6.16,1.03-1.85,3.08-2.88,4.93-2.88s3.9.82,4.93,2.88c.82,1.64.82,3.49.82,6.16h-11.71ZM338.6,115.08h1.03c1.03,0,1.64-.41,1.64-1.23s-.62-1.23-1.85-1.23h-.82v2.47ZM345.58,115.7c0,3.29-2.67,5.96-5.96,5.96s-5.96-2.67-5.96-5.96,2.67-5.75,5.96-5.75,5.96,2.47,5.96,5.75ZM339.63,108.5c-3.9,0-7.19,3.29-7.19,7.19,0,4.11,3.29,7.19,7.19,7.19,4.11,0,7.19-3.29,7.19-7.19.21-3.9-3.08-7.19-7.19-7.19ZM339.83,111.59c2.26,0,3.49.82,3.49,2.26,0,1.03-.62,1.85-1.85,2.26l1.85,3.49h-2.05l-1.44-3.29h-1.23v3.29h-1.85v-8.01h3.08Z"/>
  <path class="cls-1" d="M10.69,217.19h14.79l20.34,32.87v-32.87h14.59v47.05h-14.59l-20.55-32.87v32.87h-14.59v-47.05ZM139.51,221.91h14.18v6.57h7.81v4.52h-7.81v31.23h-14.18v-31.23h-7.6v-4.52h7.6v-6.57ZM68.42,264.24v-31.23h14.18v31.23h-14.18ZM68.42,226.84v-9.66h14.18v9.66h-14.18ZM317.03,230.75c-11.51,0-20.75,7.81-20.75,17.67s9.25,17.67,20.75,17.67,20.75-8.01,20.75-17.67c-.21-9.66-9.45-17.67-20.75-17.67M322.57,248.42v6.57c0,4.93-2.88,6.99-5.75,6.99s-5.75-2.05-5.75-6.99v-13.35c0-4.93,2.88-6.99,5.75-6.99s5.75,2.05,5.75,6.99v6.78ZM277.78,248.42v-5.55c0-4.93-3.29-6.16-5.55-6.16s-5.55,1.23-5.55,6.16v11.09c0,4.93,3.29,6.16,5.55,6.16s5.55-1.23,5.55-6.16v-5.55ZM277.58,217.19h13.97v47.05h-14.18v-1.85c-5.34,3.49-11.51,3.49-16.44,1.23-1.23-.62-9.66-4.52-9.66-15.61,0-8.22,7.81-17.26,18.08-16.44,3.29.41,5.75,1.64,8.01,2.88.21-7.19.21-17.26.21-17.26h0ZM115.88,231.57c5.34-.21,16.03,3.29,16.03,15.82v17.05h-14.18v-20.55c0-2.67-2.67-5.75-6.57-5.75s-6.78,2.88-6.78,5.75v20.55h-14.18v-31.23h14.18v3.29c2.88-2.88,6.78-4.93,11.51-4.93M231.14,231.57c5.34-.21,16.03,3.29,16.03,15.82v17.05h-14.18v-20.55c0-2.67-2.67-5.75-6.37-5.75-3.9,0-6.78,2.88-6.78,5.75v20.55h-13.97v-31.23h13.97v3.29c2.67-2.88,6.57-4.93,11.3-4.93M186.35,253.35v1.85c0,5.75-3.7,6.99-5.96,6.99-2.05,0-5.96-1.23-5.96-6.99v-6.37h26.71c0-9.66-9.45-17.67-20.96-17.67s-20.96,7.81-20.96,17.67,9.45,17.67,20.96,17.67c9.66,0,17.67-5.34,20.13-12.74h-13.97M174.64,243.9c0-2.67,0-4.52,1.03-6.16,1.03-1.85,3.08-2.88,4.93-2.88s3.9.82,4.93,2.88c.82,1.64.82,3.49.82,6.16h-11.71ZM338.6,224.17h1.03c1.03,0,1.64-.41,1.64-1.23s-.62-1.23-1.85-1.23h-.82v2.47ZM345.58,224.79c0,3.29-2.67,5.96-5.96,5.96s-5.96-2.67-5.96-5.96,2.67-5.75,5.96-5.75,5.96,2.47,5.96,5.75ZM339.63,217.6c-3.9,0-7.19,3.29-7.19,7.19,0,4.11,3.29,7.19,7.19,7.19,4.11,0,7.19-3.29,7.19-7.19.21-3.9-3.08-7.19-7.19-7.19ZM339.83,220.68c2.26,0,3.49.82,3.49,2.26,0,1.03-.62,1.85-1.85,2.26l1.85,3.49h-2.05l-1.44-3.29h-1.23v3.29h-1.85v-8.01h3.08Z"/>
  <path class="cls-1" d="M10.69,162.64h14.79l20.34,32.87v-32.87h14.59v47.05h-14.59l-20.55-32.87v32.87h-14.59v-47.05ZM139.51,167.37h14.18v6.57h7.81v4.52h-7.81v31.23h-14.18v-31.23h-7.6v-4.52h7.6v-6.57ZM68.42,209.69v-31.23h14.18v31.23h-14.18ZM68.42,172.3v-9.66h14.18v9.66h-14.18ZM317.03,176.2c-11.51,0-20.75,7.81-20.75,17.67s9.25,17.67,20.75,17.67,20.75-8.01,20.75-17.67c-.21-9.66-9.45-17.67-20.75-17.67M322.57,193.87v6.57c0,4.93-2.88,6.99-5.75,6.99s-5.75-2.05-5.75-6.99v-13.35c0-4.93,2.88-6.99,5.75-6.99s5.75,2.05,5.75,6.99v6.78ZM277.78,193.87v-5.55c0-4.93-3.29-6.16-5.55-6.16s-5.55,1.23-5.55,6.16v11.09c0,4.93,3.29,6.16,5.55,6.16s5.55-1.23,5.55-6.16v-5.55ZM277.58,162.64h13.97v47.05h-14.18v-1.85c-5.34,3.49-11.51,3.49-16.44,1.23-1.23-.62-9.66-4.52-9.66-15.61,0-8.22,7.81-17.26,18.08-16.44,3.29.41,5.75,1.64,8.01,2.88.21-7.19.21-17.26.21-17.26h0ZM115.88,177.02c5.34-.21,16.03,3.29,16.03,15.82v17.05h-14.18v-20.55c0-2.67-2.67-5.75-6.57-5.75s-6.78,2.88-6.78,5.75v20.55h-14.18v-31.23h14.18v3.29c2.88-2.88,6.78-4.93,11.51-4.93M231.14,177.02c5.34-.21,16.03,3.29,16.03,15.82v17.05h-14.18v-20.55c0-2.67-2.67-5.75-6.37-5.75-3.9,0-6.78,2.88-6.78,5.75v20.55h-13.97v-31.23h13.97v3.29c2.67-2.88,6.57-4.93,11.3-4.93M186.35,198.8v1.85c0,5.75-3.7,6.99-5.96,6.99-2.05,0-5.96-1.23-5.96-6.99v-6.37h26.71c0-9.66-9.45-17.67-20.96-17.67s-20.96,7.81-20.96,17.67,9.45,17.67,20.96,17.67c9.66,0,17.67-5.34,20.13-12.74h-13.97M174.64,189.35c0-2.67,0-4.52,1.03-6.16,1.03-1.85,3.08-2.88,4.93-2.88s3.9.82,4.93,2.88c.82,1.64.82,3.49.82,6.16h-11.71ZM338.6,169.63h1.03c1.03,0,1.64-.41,1.64-1.23s-.62-1.23-1.85-1.23h-.82v2.47ZM345.58,170.24c0,3.29-2.67,5.96-5.96,5.96s-5.96-2.67-5.96-5.96,2.67-5.75,5.96-5.75,5.96,2.47,5.96,5.75ZM339.63,163.05c-3.9,0-7.19,3.29-7.19,7.19,0,4.11,3.29,7.19,7.19,7.19,4.11,0,7.19-3.29,7.19-7.19.21-3.9-3.08-7.19-7.19-7.19ZM339.83,166.13c2.26,0,3.49.82,3.49,2.26,0,1.03-.62,1.85-1.85,2.26l1.85,3.49h-2.05l-1.44-3.29h-1.23v3.29h-1.85v-8.01h3.08Z"/>
  <path class="cls-1" d="M10.69,271.73h14.79l20.34,32.87v-32.87h14.59v47.05h-14.59l-20.55-32.87v32.87h-14.59v-47.05ZM139.51,276.46h14.18v6.57h7.81v4.52h-7.81v31.23h-14.18v-31.23h-7.6v-4.52h7.6v-6.57ZM68.42,318.78v-31.23h14.18v31.23h-14.18ZM68.42,281.39v-9.66h14.18v9.66h-14.18ZM317.03,285.29c-11.51,0-20.75,7.81-20.75,17.67s9.25,17.67,20.75,17.67,20.75-8.01,20.75-17.67c-.21-9.66-9.45-17.67-20.75-17.67M322.57,302.96v6.57c0,4.93-2.88,6.99-5.75,6.99s-5.75-2.05-5.75-6.99v-13.35c0-4.93,2.88-6.99,5.75-6.99s5.75,2.05,5.75,6.99v6.78ZM277.78,302.96v-5.55c0-4.93-3.29-6.16-5.55-6.16s-5.55,1.23-5.55,6.16v11.09c0,4.93,3.29,6.16,5.55,6.16s5.55-1.23,5.55-6.16v-5.55ZM277.58,271.73h13.97v47.05h-14.18v-1.85c-5.34,3.49-11.51,3.49-16.44,1.23-1.23-.62-9.66-4.52-9.66-15.61,0-8.22,7.81-17.26,18.08-16.44,3.29.41,5.75,1.64,8.01,2.88.21-7.19.21-17.26.21-17.26h0ZM115.88,286.12c5.34-.21,16.03,3.29,16.03,15.82v17.05h-14.18v-20.55c0-2.67-2.67-5.75-6.57-5.75s-6.78,2.88-6.78,5.75v20.55h-14.18v-31.23h14.18v3.29c2.88-2.88,6.78-4.93,11.51-4.93M231.14,286.12c5.34-.21,16.03,3.29,16.03,15.82v17.05h-14.18v-20.55c0-2.67-2.67-5.75-6.37-5.75-3.9,0-6.78,2.88-6.78,5.75v20.55h-13.97v-31.23h13.97v3.29c2.67-2.88,6.57-4.93,11.3-4.93M186.35,307.89v1.85c0,5.75-3.7,6.99-5.96,6.99-2.05,0-5.96-1.23-5.96-6.99v-6.37h26.71c0-9.66-9.45-17.67-20.96-17.67s-20.96,7.81-20.96,17.67,9.45,17.67,20.96,17.67c9.66,0,17.67-5.34,20.13-12.74h-13.97M174.64,298.44c0-2.67,0-4.52,1.03-6.16,1.03-1.85,3.08-2.88,4.93-2.88s3.9.82,4.93,2.88c.82,1.64.82,3.49.82,6.16h-11.71ZM338.6,278.72h1.03c1.03,0,1.64-.41,1.64-1.23s-.62-1.23-1.85-1.23h-.82v2.47ZM345.58,279.34c0,3.29-2.67,5.96-5.96,5.96s-5.96-2.67-5.96-5.96,2.67-5.75,5.96-5.75,5.96,2.47,5.96,5.75ZM339.63,272.15c-3.9,0-7.19,3.29-7.19,7.19,0,4.11,3.29,7.19,7.19,7.19,4.11,0,7.19-3.29,7.19-7.19.21-3.9-3.08-7.19-7.19-7.19ZM339.83,275.23c2.26,0,3.49.82,3.49,2.26,0,1.03-.62,1.85-1.85,2.26l1.85,3.49h-2.05l-1.44-3.29h-1.23v3.29h-1.85v-8.01h3.08Z"/>
  <g>
    <g>
      <path class="cls-4" d="M10.69,250.15h82.7c11.34,0,19.71-2.89,24.81-8.75l5.48,8.75h79.08v-11.11l14.23,11.11h97.72v-50.69h-105.86l-6.2-.08-7.81.08h-56.32l-7.12-.08h-7.5s-84.71,0-84.71,0h0"/>
      <path class="cls-3" d="M56.48,207.83h-8.45l-19.94,33.57h23.75v-7.46h-9.67l9.67-17.35,14.01,24.82h10.81v-.08h16.89c14.61,0,21.92-5.63,21.92-16.82,0-1.9-.23-3.73-.76-5.4l13.47,22.22h6.47l19.4-33.49h-10.27l-12.1,21.92-12.79-21.92h-11.03l3.04,5.02c-3.57-3.35-8.67-5.02-15.37-5.02h-22.23v27.86l-16.82-27.86h0ZM82.89,215.44h12.71c6.63,0,9.97,2.89,9.97,8.68,0,3.5-1.07,6.01-3.04,7.38-1.9,1.37-5.56,2.06-10.65,2.06h-8.98v-18.12ZM168.36,207.83h-8.53l-19.86,33.57h10.05v-.08h13.7v-7.46h-9.59l9.52-17.27,14,24.82h10.96v-.08h5.56v-20.25l25.34,20.25h6.54v-33.49h-8.75v20.01l-25.57-20.01h-6.54v27.86l-16.82-27.86h0ZM231.07,209.73c-1.37,1.22-2.05,3.42-2.05,6.55v16.59c0,3.2.68,5.4,2.05,6.62,1.29,1.22,3.65,1.83,7.08,1.83h19.71c3.42,0,5.86-.61,7.16-1.83,1.29-1.22,2.05-3.42,2.05-6.62v-4.64l-9.66-.16v5.18h-18.72v-17.58h18.72v4.56h9.66v-3.96c0-3.27-.76-5.48-2.05-6.55-1.29-1.29-3.57-1.9-7.16-1.9h-19.71c-3.42,0-5.78.61-7.08,1.91h0ZM279.94,220.23v-4.79h26.1v-7.61h-35.77v33.49h36.23v-7.77h-26.56v-5.94h15.29v-7.38h-15.29Z"/>
    </g>
    <g>
      <path class="cls-4" d="M328.93,145.74h0s4.41-7.08,4.41-7.08h-67.36c-5.11.06-10.1,1.56-14.38,4.34l-5.17,3.81c-2.28-2.74-4.49-4.64-6.7-5.94-2.74-1.52-5.78-2.21-9.29-2.21h-114.09l-3.73,11.34-1.83-11.34h-24.96l-.91,2.13-2.36-.84c-13.17-4.49-25.8-3.12-37.75,4.26-6.09,3.88-10.66,8.75-13.47,14.69-2.9,5.93-3.88,12.55-3.2,20.09.46,4.49,2.06,8.68,4.79,12.48,2.74,3.81,6.24,6.85,10.58,9.06,6.32,3.27,13.16,4.26,20.32,3.12h22.22l3.45.08,4.16-.08,133.5-.15c2.89,0,5.78-.69,8.75-1.98,2.89-1.29,4.54,2.33,6.83.04,3.73,3.96,9.01,1.18,14.18,2.24,7,1.67,13.77.46,20.17-3.58l.84-.61-.61,4.03h27.17l3.41.27c1.6-.23,3.46-3.03,3.46-3.03l1.31-26.07,16.25-29.08Z"/>
      <path class="cls-3" d="M79.59,147.87c-10.5-3.81-20.62-2.59-30.37,3.42-9.59,5.86-13.78,14.84-12.64,26.56.31,3.43,1.6,6.55,3.81,9.29,2.21,2.75,5.02,4.72,8.37,6.24,3.42,1.52,7,2.13,10.81,1.9,4.19-.23,7.99-1.45,11.72-3.5l.38-.23-1.45,3.2h10.2l6.55-14.23h11.27l2.51,14.23h16.67l8.52-26.64,5.48,26.64h6.62l12.79-29.53,1.29,29.53h9.74l-1.98-47.72h-11.88l-11.11,26.1-4.8-26.1h-9.74l-12.56,38.58-6.47-38.58h-12.02l-18.42,41.63,2.67-17.43h-18.19l-1.37,8.98h7.61l-.76,4.8c-2.18,1.31-4.84,1.5-7.99.54-3.2-.84-5.48-2.51-7-5.18-1.29-2.51-1.9-5.1-1.6-7.99.38-4.03,2.36-7.69,6.09-10.96,3.35-2.97,7.69-4.64,12.86-5.33,4.95-.76,9.28-.23,12.94,1.37l1.45-9.59h0Z"/>
      <polygon class="cls-4" points="96.79 171.24 90.78 171.24 94.96 162.03 96.79 171.24"/>
      <polygon class="cls-3" points="197.49 147.04 170.31 147.04 162.7 194.76 190.03 194.76 191.78 184.63 174.57 184.63 175.95 176.11 190.86 176.11 192.46 165.84 177.39 165.84 178.69 157.31 195.89 157.31 197.49 147.04"/>
      <polygon class="cls-3" points="317.66 147.04 306.24 147.04 296.5 162.64 290.41 147.04 279.15 147.04 290.8 172.23 287.14 194.76 297.04 194.76 300 174.89 317.66 147.04"/>
      <path class="cls-3" d="M269.79,147.49c-5.56-1.29-10.66,0-15.6,3.81-4.95,3.65-8.14,8.91-9.82,15.52-1.45,6.55-.76,12.71,1.9,18.19,2.82,5.63,6.85,9.06,12.41,10.27,5.48,1.29,10.58,0,15.52-3.73,4.95-3.8,8.22-9.06,9.74-15.68,1.52-6.55.84-12.64-1.9-18.19-2.75-5.55-6.86-8.98-12.26-10.2h0ZM268.95,157.01c2.67,1.07,4.34,3.5,5.25,7.08.91,3.65.69,7.46-.61,11.49-1.29,3.96-3.42,6.93-6.16,8.83-2.82,2.05-5.48,2.44-7.99,1.29-2.66-1.07-4.42-3.5-5.33-7.08-.99-3.73-.61-7.53.68-11.49,1.29-3.88,3.42-6.92,6.16-8.98,2.67-1.9,5.41-2.36,8-1.14h0ZM236.38,149.17c-1.9-1.22-3.81-1.83-5.63-1.83h-18.27l-7.53,47.42h21.92c2.36,0,4.8-.76,7.31-2.28,2.38-1.44,4.41-3.39,5.94-5.71,1.6-2.67,2.21-5.25,1.9-7.99-.31-2.97-1.9-5.78-4.72-8.45,5.56-5.71,6.85-11.11,3.96-16.29-1.2-2-2.87-3.67-4.87-4.87ZM219.4,166.21l1.52-8.83h6.39c1.6,0,2.82.46,3.65,1.37.69.84.99,1.83.84,3.04-.15,1.22-.76,2.21-1.67,3.04-1.07.91-2.36,1.37-3.88,1.37h-6.85l11.04,11.26c.91.92,1.37,2.06,1.29,3.35s-.69,2.36-1.83,3.27c-1.14.92-2.74,1.45-4.95,1.45h-8.6l1.52-9.59h8.22c1.83,0,3.27.54,4.34,1.52l-11.04-11.27ZM308.99,190.5c0-1.37-.53-2.44-1.37-3.35-.92-.92-2.06-1.45-3.35-1.45s-2.44.53-3.35,1.45-1.37,1.98-1.37,3.35c0,1.29.46,2.36,1.37,3.27.91.92,2.06,1.45,3.35,1.45s2.43-.54,3.35-1.45c.84-.91,1.37-1.98,1.37-3.27ZM307.08,187.68c.69.69,1.14,1.67,1.14,2.82,0,1.07-.46,1.98-1.14,2.82-.68.69-1.67,1.07-2.82,1.07s-2.13-.38-2.82-1.07c-.84-.84-1.22-1.75-1.22-2.82,0-1.14.38-2.13,1.22-2.82.69-.84,1.67-1.22,2.82-1.22s2.13.38,2.82,1.22Z"/>
      <path class="cls-3" d="M305.94,188.06l-1.29-.3h-2.28v5.33h.76v-2.44h1.07l1.45,2.44h.84l-1.6-2.44c1.07,0,1.68-.46,1.68-1.52,0-.46-.15-.92-.61-1.07h0ZM305.79,189.12c0,.61-.61.92-1.75.92h-.91v-1.67h1.45c.84,0,1.22.3,1.22.76Z"/>
    </g>
  </g>
  <path class="cls-5" d="M382.21,90.59s1.24-3.93-2.25-5.38c-.43-.12-.74-1.27,0-2.78s5.43-16.01,20.71-18.42c0,0,36.66-6.17,43.98-6.83,7.33-.66,8.11-.72,10.36-.74s-39.56,35.03-39.56,35.03l-33.24-.89h0Z"/>
  <path class="cls-5" d="M380.9,93.96s-4.12-.08-4.47,2.3-4.31,30.55-5.63,49.78c-1.32,19.24-2.58,34.71-2.64,52.88-.06,18.17.44,23.01,7.61,31.94,7.17,8.93,10.88,10.31,14.84,10.5s3.46.12,4.71-1.63,2.14-3.33,2.14-3.33l-16.55-142.43Z"/>
  <path class="cls-5" d="M560,50.51v200.34l-36.01,1.1-.17-2.5-96.62-2.96h-.13s-21.91-4.45-31.81-7.37-16.13-10.47-20.32-16.36c-4.2-5.89-3.33-33.92-.57-70.45,2.77-36.53,8.49-65.19,8.49-65.19,1.87-10.87,12.19-10.32,24.08-12.39,11.37-1.99,26.78-7.99,42.43-15.66,15.66-7.67,22.45-8.17,28.74-8.3,3.99-.08,18.39-.1,32.65-.15,1.89,0,3.78-.01,5.64-.02h3.53c9.54-.03,25.16-.07,40.07-.09Z"/>
  <path class="cls-5" d="M560,54.21v215.33c-18.37-.03-35.8-.55-45.93-1.58-27.22-2.09-47.02-6.78-54.42-9.52-7.63-2.82-17.16-7.54-23.57-9.36-1.63-.46-4.87-1.4-8.88-2.59-11.82-3.5-30.21-9.05-32.84-10.18-3.52-1.51-10.44-4.09-15.15-13.52-4.72-9.43-2.77-27.34-2.45-40.11.31-12.76,3.96-51.18,4.78-58.77.81-7.59,4.15-26.47,5-32.22.84-5.76,2.45-9.58,7.4-10.28,4.95-.71,6.84-1.26,18.34-3.43,11.51-2.17,31.22-10.47,43.76-17.45,12.54-6.98,29.14-6.32,37.16-6.32h66.8Z"/>
  <path class="cls-5" d="M443.71,134.02h-13.78c-.82,0-1.48-.66-1.48-1.48v-13.78c0-.82-.66-1.48-1.48-1.48h-12.59c-.82,0-1.48.66-1.48,1.48v13.78c0,.82-.66,1.48-1.48,1.48h-13.78c-.82,0-1.48.66-1.48,1.48v12.59c0,.82.66,1.48,1.48,1.48h13.78c.82,0,1.48.66,1.48,1.48v13.78c0,.82.66,1.48,1.48,1.48h12.59c.82,0,1.48-.66,1.48-1.48v-13.78c0-.82.66-1.48,1.48-1.48h13.78c.82,0,1.48-.66,1.48-1.48v-12.59c0-.82-.66-1.48-1.48-1.48h0Z"/>
  <circle class="cls-5" cx="420.67" cy="141.8" r="5.81"/>
  <rect class="cls-5" x="425.32" y="170.5" width="14.01" height="43.57" rx="7" ry="7" transform="translate(137.98 562.74) rotate(-75.51)"/>
  <circle class="cls-5" cx="446.75" cy="196.02" r="5.81"/>
  <rect class="cls-5" x="425.32" y="193.01" width="14.01" height="43.57" rx="7" ry="7" transform="translate(116.19 579.62) rotate(-75.51)"/>
  <circle class="cls-5" cx="446.75" cy="218.53" r="5.81"/>
  <path class="cls-5" d="M560,74.48v174.6c-42.88-.07-64.01-4.52-79.77-10.23-19.64-7.11-19.33-20-19.42-33.58-.1-13.58,1.79-55.64,2.26-65.73.47-10.09,2.45-32.6,3.65-45.87,1.19-13.26,10.37-14.01,15.27-14.77,4.91-.76,12.33-1.38,27.79-2.64,7.47-.61,21.73-1.24,36.07-1.7.16,0,.3,0,.45-.01,3.29-.08,8.08-.1,13.7-.07Z"/>
  <rect class="cls-5" x="480.75" y="92.83" width="79.25" height="111.65"/>
</svg>