<svg xmlns="http://www.w3.org/2000/svg" id="Layer_1" data-name="Layer 1" viewBox="0 0 560 320"><defs><style>.cls-1{fill:#372869}.cls-3,.cls-4{fill:#fff;fill-rule:evenodd}.cls-4{fill:#4b367c}.cls-5{fill:#bca3ce;stroke:#553f98;stroke-miterlimit:10;stroke-width:.5px}</style></defs><path d="M68.42-.02H.76v320H560v-320z" class="cls-1"/><path d="M405.14-.12c-3.45 16.81-8.27 33.52-14.2 49.97-.77 2.14-1.56 4.27-2.37 6.4-3.15 8.31-6.6 16.53-10.28 24.65a462 462 0 0 1-18.36 36.11c-.66 1.19-1.34 2.38-2.03 3.56-.5.88-1 1.74-1.5 2.61-10.64 18.29-22.38 35.76-34.79 52.08-48.21 64.41-136.13 76.41-201.3 120.77-3.92 2.65-7.76 5.44-11.5 8.36a168 168 0 0 0-8.87 7.44c-2.85 2.53-5.66 5.19-8.43 7.96H-.37V-.12z" style="fill:#553f98"/><path d="M10.69 53.55h14.79l20.34 32.87V53.55h14.59v47.05H45.82L25.27 67.73v32.87H10.68V53.55Zm128.82 4.72h14.18v6.57h7.81v4.52h-7.81v31.23h-14.18V69.36h-7.6v-4.52h7.6zM68.42 100.6V69.37H82.6v31.23zm0-37.4v-9.66H82.6v9.66zm248.61 3.91c-11.51 0-20.75 7.81-20.75 17.67s9.25 17.67 20.75 17.67 20.75-8.01 20.75-17.67c-.21-9.66-9.45-17.67-20.75-17.67m5.54 17.67v6.57c0 4.93-2.88 6.99-5.75 6.99s-5.75-2.05-5.75-6.99V78c0-4.93 2.88-6.99 5.75-6.99s5.75 2.05 5.75 6.99zm-44.79 0v-5.55c0-4.93-3.29-6.16-5.55-6.16s-5.55 1.23-5.55 6.16v11.09c0 4.93 3.29 6.16 5.55 6.16s5.55-1.23 5.55-6.16v-5.55Zm-.2-31.23h13.97v47.05h-14.18v-1.85c-5.34 3.49-11.51 3.49-16.44 1.23-1.23-.62-9.66-4.52-9.66-15.61 0-8.22 7.81-17.26 18.08-16.44 3.29.41 5.75 1.64 8.01 2.88.21-7.19.21-17.26.21-17.26Zm-161.7 14.38c5.34-.21 16.03 3.29 16.03 15.82v17.05h-14.18V80.25c0-2.67-2.67-5.75-6.57-5.75s-6.78 2.88-6.78 5.75v20.55H90.2V69.57h14.18v3.29c2.88-2.88 6.78-4.93 11.51-4.93m115.25 0c5.34-.21 16.03 3.29 16.03 15.82v17.05h-14.18V80.25c0-2.67-2.67-5.75-6.37-5.75-3.9 0-6.78 2.88-6.78 5.75v20.55h-13.97V69.57h13.97v3.29c2.67-2.88 6.57-4.93 11.3-4.93m-44.79 21.78v1.85c0 5.75-3.7 6.99-5.96 6.99-2.05 0-5.96-1.23-5.96-6.99v-6.37h26.71c0-9.66-9.45-17.67-20.96-17.67s-20.96 7.81-20.96 17.67 9.45 17.67 20.96 17.67c9.66 0 17.67-5.34 20.13-12.74h-13.97m-11.7-9.86c0-2.67 0-4.52 1.03-6.16 1.03-1.85 3.08-2.88 4.93-2.88s3.9.82 4.93 2.88c.82 1.64.82 3.49.82 6.16zM338.6 60.53h1.03c1.03 0 1.64-.41 1.64-1.23s-.62-1.23-1.85-1.23h-.82v2.47Zm6.98.62c0 3.29-2.67 5.96-5.96 5.96s-5.96-2.67-5.96-5.96 2.67-5.75 5.96-5.75 5.96 2.47 5.96 5.75m-5.95-7.19c-3.9 0-7.19 3.29-7.19 7.19 0 4.11 3.29 7.19 7.19 7.19 4.11 0 7.19-3.29 7.19-7.19.21-3.9-3.08-7.19-7.19-7.19m.2 3.08c2.26 0 3.49.82 3.49 2.26 0 1.03-.62 1.85-1.85 2.26l1.85 3.49h-2.05l-1.44-3.29h-1.23v3.29h-1.85v-8.01z" style="fill:#fff"/><path d="M153.69 10.3V3.73h-14.18v6.57h-7.6v4.52h7.6v31.23h14.18V14.82h7.8V10.3zm-85.27 4.52v31.23H82.6V14.82zm248.61-2.26c-11.51 0-20.76 7.81-20.76 17.67s9.25 17.67 20.76 17.67 20.75-8.01 20.75-17.67c-.21-9.66-9.45-17.67-20.75-17.67m5.54 24.24c0 4.94-2.87 6.99-5.75 6.99s-5.75-2.05-5.75-6.99V23.45c0-4.93 2.87-6.99 5.75-6.99s5.75 2.06 5.75 6.99zM277.58-.02c-.01 2.71-.04 10.44-.21 16.28-2.26-1.23-4.72-2.47-8.01-2.88-10.27-.82-18.08 8.22-18.08 16.44 0 11.09 8.42 15 9.66 15.61 4.93 2.26 11.09 2.26 16.43-1.23v1.85h14.18V-.02zm.2 35.8c0 4.93-3.28 6.16-5.54 6.16s-5.55-1.23-5.55-6.16v-11.1c0-4.93 3.29-6.16 5.55-6.16s5.54 1.23 5.54 6.16zm-161.9-22.4c-4.72 0-8.63 2.06-11.5 4.93v-3.28H90.2v31.23h14.18V25.71c0-2.88 2.87-5.75 6.78-5.75s6.57 3.08 6.57 5.75v20.55h14.18V29.2c0-12.53-10.69-16.02-16.03-15.82m115.26 0c-4.72 0-8.62 2.06-11.3 4.93v-3.28h-13.97v31.23h13.97V25.71c0-2.88 2.88-5.75 6.78-5.75s6.37 3.08 6.37 5.75v20.55h14.18V29.2c0-12.53-10.68-16.02-16.03-15.82m-44.79 23.63c0 5.75-3.69 6.99-5.95 6.99-2.06 0-5.96-1.24-5.96-6.99v-6.37h26.71c0-9.66-9.45-17.67-20.96-17.67s-20.96 7.81-20.96 17.67 9.46 17.67 20.96 17.67c9.66 0 17.67-5.34 20.14-12.74h-13.98zm-10.68-17.46c1.03-1.85 3.08-2.88 4.93-2.88s3.91.82 4.93 2.88c.82 1.64.82 3.49.82 6.16h-11.71c0-2.67 0-4.52 1.03-6.16m167.65-14.8c0-1.43-1.23-2.26-3.49-2.26h-3.08v8.02h1.85V7.22h1.23l1.44 3.29h2.05l-1.84-3.5c1.23-.41 1.84-1.23 1.84-2.26m-3.69 1.24h-1.03V3.52h.82c1.23 0 1.85.41 1.85 1.23s-.62 1.24-1.64 1.24m3.69-1.24c0-1.43-1.23-2.26-3.49-2.26h-3.08v8.02h1.85V7.22h1.23l1.44 3.29h2.05l-1.84-3.5c1.23-.41 1.84-1.23 1.84-2.26m-3.69 1.24h-1.03V3.52h.82c1.23 0 1.85.41 1.85 1.23s-.62 1.24-1.64 1.24m3.69-1.24c0-1.43-1.23-2.26-3.49-2.26h-3.08v8.02h1.85V7.22h1.23l1.44 3.29h2.05l-1.84-3.5c1.23-.41 1.84-1.23 1.84-2.26m-3.69 1.24h-1.03V3.52h.82c1.23 0 1.85.41 1.85 1.23s-.62 1.24-1.64 1.24m2.88-6.01h-5.65c-2.58 1.11-4.42 3.7-4.42 6.62 0 4.11 3.28 7.19 7.19 7.19 4.11 0 7.19-3.28 7.19-7.19.15-2.93-1.66-5.51-4.31-6.62m-2.88 12.58c-3.29 0-5.96-2.67-5.96-5.96s2.67-5.75 5.96-5.75 5.95 2.46 5.95 5.75-2.67 5.96-5.95 5.96m3.69-7.81c0-1.43-1.23-2.26-3.49-2.26h-3.08v8.02h1.85V7.22h1.23l1.44 3.29h2.05l-1.84-3.5c1.23-.41 1.84-1.23 1.84-2.26m-3.69 1.24h-1.03V3.52h.82c1.23 0 1.85.41 1.85 1.23s-.62 1.24-1.64 1.24m3.69-1.24c0-1.43-1.23-2.26-3.49-2.26h-3.08v8.02h1.85V7.22h1.23l1.44 3.29h2.05l-1.84-3.5c1.23-.41 1.84-1.23 1.84-2.26m-3.69 1.24h-1.03V3.52h.82c1.23 0 1.85.41 1.85 1.23s-.62 1.24-1.64 1.24M60.41-.02v46.07H45.82L25.28 13.18v32.87H10.69V-.02h15.4l19.73 31.89V-.02zm22.19 0v8.68H68.42V-.02zM10.69 108.09h14.79l20.34 32.87v-32.87h14.59v47.05H45.82l-20.55-32.87v32.87H10.68v-47.05Zm128.82 4.73h14.18v6.57h7.81v4.52h-7.81v31.23h-14.18v-31.23h-7.6v-4.52h7.6zm-71.09 42.32v-31.23H82.6v31.23zm0-37.39v-9.66H82.6v9.66zm248.61 3.9c-11.51 0-20.75 7.81-20.75 17.67s9.25 17.67 20.75 17.67 20.75-8.01 20.75-17.67c-.21-9.66-9.45-17.67-20.75-17.67m5.54 17.67v6.57c0 4.93-2.88 6.99-5.75 6.99s-5.75-2.05-5.75-6.99v-13.35c0-4.93 2.88-6.99 5.75-6.99s5.75 2.05 5.75 6.99zm-44.79 0v-5.55c0-4.93-3.29-6.16-5.55-6.16s-5.55 1.23-5.55 6.16v11.09c0 4.93 3.29 6.16 5.55 6.16s5.55-1.23 5.55-6.16v-5.55Zm-.2-31.23h13.97v47.05h-14.18v-1.85c-5.34 3.49-11.51 3.49-16.44 1.23-1.23-.62-9.66-4.52-9.66-15.61 0-8.22 7.81-17.26 18.08-16.44 3.29.41 5.75 1.64 8.01 2.88.21-7.19.21-17.26.21-17.26Zm-161.7 14.39c5.34-.21 16.03 3.29 16.03 15.82v17.05h-14.18V134.8c0-2.67-2.67-5.75-6.57-5.75s-6.78 2.88-6.78 5.75v20.55H90.2v-31.23h14.18v3.29c2.88-2.88 6.78-4.93 11.51-4.93m115.25 0c5.34-.21 16.03 3.29 16.03 15.82v17.05h-14.18V134.8c0-2.67-2.67-5.75-6.37-5.75-3.9 0-6.78 2.88-6.78 5.75v20.55h-13.97v-31.23h13.97v3.29c2.67-2.88 6.57-4.93 11.3-4.93m-44.79 21.77v1.85c0 5.75-3.7 6.99-5.96 6.99-2.05 0-5.96-1.23-5.96-6.99v-6.37h26.71c0-9.66-9.45-17.67-20.96-17.67s-20.96 7.81-20.96 17.67 9.45 17.67 20.96 17.67c9.66 0 17.67-5.34 20.13-12.74h-13.97m-11.7-9.86c0-2.67 0-4.52 1.03-6.16 1.03-1.85 3.08-2.88 4.93-2.88s3.9.82 4.93 2.88c.82 1.64.82 3.49.82 6.16zm163.96-19.72h1.03c1.03 0 1.64-.41 1.64-1.23s-.62-1.23-1.85-1.23h-.82v2.47Zm6.98.62c0 3.29-2.67 5.96-5.96 5.96s-5.96-2.67-5.96-5.96 2.67-5.75 5.96-5.75 5.96 2.47 5.96 5.75m-5.95-7.2c-3.9 0-7.19 3.29-7.19 7.19 0 4.11 3.29 7.19 7.19 7.19 4.11 0 7.19-3.29 7.19-7.19.21-3.9-3.08-7.19-7.19-7.19m.2 3.09c2.26 0 3.49.82 3.49 2.26 0 1.03-.62 1.85-1.85 2.26l1.85 3.49h-2.05l-1.44-3.29h-1.23v3.29h-1.85v-8.01zM10.69 217.19h14.79l20.34 32.87v-32.87h14.59v47.05H45.82l-20.55-32.87v32.87H10.68v-47.05Zm128.82 4.72h14.18v6.57h7.81V233h-7.81v31.23h-14.18V233h-7.6v-4.52h7.6zm-71.09 42.33v-31.23H82.6v31.23zm0-37.4v-9.66H82.6v9.66zm248.61 3.91c-11.51 0-20.75 7.81-20.75 17.67s9.25 17.67 20.75 17.67 20.75-8.01 20.75-17.67c-.21-9.66-9.45-17.67-20.75-17.67m5.54 17.67v6.57c0 4.93-2.88 6.99-5.75 6.99s-5.75-2.05-5.75-6.99v-13.35c0-4.93 2.88-6.99 5.75-6.99s5.75 2.05 5.75 6.99zm-44.79 0v-5.55c0-4.93-3.29-6.16-5.55-6.16s-5.55 1.23-5.55 6.16v11.09c0 4.93 3.29 6.16 5.55 6.16s5.55-1.23 5.55-6.16v-5.55Zm-.2-31.23h13.97v47.05h-14.18v-1.85c-5.34 3.49-11.51 3.49-16.44 1.23-1.23-.62-9.66-4.52-9.66-15.61 0-8.22 7.81-17.26 18.08-16.44 3.29.41 5.75 1.64 8.01 2.88.21-7.19.21-17.26.21-17.26Zm-161.7 14.38c5.34-.21 16.03 3.29 16.03 15.82v17.05h-14.18v-20.55c0-2.67-2.67-5.75-6.57-5.75s-6.78 2.88-6.78 5.75v20.55H90.2v-31.23h14.18v3.29c2.88-2.88 6.78-4.93 11.51-4.93m115.25 0c5.34-.21 16.03 3.29 16.03 15.82v17.05h-14.18v-20.55c0-2.67-2.67-5.75-6.37-5.75-3.9 0-6.78 2.88-6.78 5.75v20.55h-13.97v-31.23h13.97v3.29c2.67-2.88 6.57-4.93 11.3-4.93m-44.79 21.78v1.85c0 5.75-3.7 6.99-5.96 6.99-2.05 0-5.96-1.23-5.96-6.99v-6.37h26.71c0-9.66-9.45-17.67-20.96-17.67s-20.96 7.81-20.96 17.67 9.45 17.67 20.96 17.67c9.66 0 17.67-5.34 20.13-12.74h-13.97m-11.7-9.86c0-2.67 0-4.52 1.03-6.16 1.03-1.85 3.08-2.88 4.93-2.88s3.9.82 4.93 2.88c.82 1.64.82 3.49.82 6.16zm163.96-19.73h1.03c1.03 0 1.64-.41 1.64-1.23s-.62-1.23-1.85-1.23h-.82v2.47Zm6.98.62c0 3.29-2.67 5.96-5.96 5.96s-5.96-2.67-5.96-5.96 2.67-5.75 5.96-5.75 5.96 2.47 5.96 5.75m-5.95-7.19c-3.9 0-7.19 3.29-7.19 7.19 0 4.11 3.29 7.19 7.19 7.19 4.11 0 7.19-3.29 7.19-7.19.21-3.9-3.08-7.19-7.19-7.19m.2 3.08c2.26 0 3.49.82 3.49 2.26 0 1.03-.62 1.85-1.85 2.26l1.85 3.49h-2.05l-1.44-3.29h-1.23v3.29h-1.85v-8.01zM10.69 162.64h14.79l20.34 32.87v-32.87h14.59v47.05H45.82l-20.55-32.87v32.87H10.68v-47.05Zm128.82 4.73h14.18v6.57h7.81v4.52h-7.81v31.23h-14.18v-31.23h-7.6v-4.52h7.6zm-71.09 42.32v-31.23H82.6v31.23zm0-37.39v-9.66H82.6v9.66zm248.61 3.9c-11.51 0-20.75 7.81-20.75 17.67s9.25 17.67 20.75 17.67 20.75-8.01 20.75-17.67c-.21-9.66-9.45-17.67-20.75-17.67m5.54 17.67v6.57c0 4.93-2.88 6.99-5.75 6.99s-5.75-2.05-5.75-6.99v-13.35c0-4.93 2.88-6.99 5.75-6.99s5.75 2.05 5.75 6.99zm-44.79 0v-5.55c0-4.93-3.29-6.16-5.55-6.16s-5.55 1.23-5.55 6.16v11.09c0 4.93 3.29 6.16 5.55 6.16s5.55-1.23 5.55-6.16v-5.55Zm-.2-31.23h13.97v47.05h-14.18v-1.85c-5.34 3.49-11.51 3.49-16.44 1.23-1.23-.62-9.66-4.52-9.66-15.61 0-8.22 7.81-17.26 18.08-16.44 3.29.41 5.75 1.64 8.01 2.88.21-7.19.21-17.26.21-17.26Zm-161.7 14.38c5.34-.21 16.03 3.29 16.03 15.82v17.05h-14.18v-20.55c0-2.67-2.67-5.75-6.57-5.75s-6.78 2.88-6.78 5.75v20.55H90.2v-31.23h14.18v3.29c2.88-2.88 6.78-4.93 11.51-4.93m115.25 0c5.34-.21 16.03 3.29 16.03 15.82v17.05h-14.18v-20.55c0-2.67-2.67-5.75-6.37-5.75-3.9 0-6.78 2.88-6.78 5.75v20.55h-13.97v-31.23h13.97v3.29c2.67-2.88 6.57-4.93 11.3-4.93m-44.79 21.78v1.85c0 5.75-3.7 6.99-5.96 6.99-2.05 0-5.96-1.23-5.96-6.99v-6.37h26.71c0-9.66-9.45-17.67-20.96-17.67s-20.96 7.81-20.96 17.67 9.45 17.67 20.96 17.67c9.66 0 17.67-5.34 20.13-12.74h-13.97m-11.7-9.86c0-2.67 0-4.52 1.03-6.16 1.03-1.85 3.08-2.88 4.93-2.88s3.9.82 4.93 2.88c.82 1.64.82 3.49.82 6.16zm163.96-19.72h1.03c1.03 0 1.64-.41 1.64-1.23s-.62-1.23-1.85-1.23h-.82v2.47Zm6.98.61c0 3.29-2.67 5.96-5.96 5.96s-5.96-2.67-5.96-5.96 2.67-5.75 5.96-5.75 5.96 2.47 5.96 5.75m-5.95-7.19c-3.9 0-7.19 3.29-7.19 7.19 0 4.11 3.29 7.19 7.19 7.19 4.11 0 7.19-3.29 7.19-7.19.21-3.9-3.08-7.19-7.19-7.19m.2 3.08c2.26 0 3.49.82 3.49 2.26 0 1.03-.62 1.85-1.85 2.26l1.85 3.49h-2.05l-1.44-3.29h-1.23v3.29h-1.85v-8.01zM10.69 271.73h14.79l20.34 32.87v-32.87h14.59v47.05H45.82l-20.55-32.87v32.87H10.68v-47.05Zm128.82 4.73h14.18v6.57h7.81v4.52h-7.81v31.23h-14.18v-31.23h-7.6v-4.52h7.6zm-71.09 42.32v-31.23H82.6v31.23zm0-37.39v-9.66H82.6v9.66zm248.61 3.9c-11.51 0-20.75 7.81-20.75 17.67s9.25 17.67 20.75 17.67 20.75-8.01 20.75-17.67c-.21-9.66-9.45-17.67-20.75-17.67m5.54 17.67v6.57c0 4.93-2.88 6.99-5.75 6.99s-5.75-2.05-5.75-6.99v-13.35c0-4.93 2.88-6.99 5.75-6.99s5.75 2.05 5.75 6.99zm-44.79 0v-5.55c0-4.93-3.29-6.16-5.55-6.16s-5.55 1.23-5.55 6.16v11.09c0 4.93 3.29 6.16 5.55 6.16s5.55-1.23 5.55-6.16v-5.55Zm-.2-31.23h13.97v47.05h-14.18v-1.85c-5.34 3.49-11.51 3.49-16.44 1.23-1.23-.62-9.66-4.52-9.66-15.61 0-8.22 7.81-17.26 18.08-16.44 3.29.41 5.75 1.64 8.01 2.88.21-7.19.21-17.26.21-17.26Zm-161.7 14.39c5.34-.21 16.03 3.29 16.03 15.82v17.05h-14.18v-20.55c0-2.67-2.67-5.75-6.57-5.75s-6.78 2.88-6.78 5.75v20.55H90.2v-31.23h14.18v3.29c2.88-2.88 6.78-4.93 11.51-4.93m115.25 0c5.34-.21 16.03 3.29 16.03 15.82v17.05h-14.18v-20.55c0-2.67-2.67-5.75-6.37-5.75-3.9 0-6.78 2.88-6.78 5.75v20.55h-13.97v-31.23h13.97v3.29c2.67-2.88 6.57-4.93 11.3-4.93m-44.79 21.77v1.85c0 5.75-3.7 6.99-5.96 6.99-2.05 0-5.96-1.23-5.96-6.99v-6.37h26.71c0-9.66-9.45-17.67-20.96-17.67s-20.96 7.81-20.96 17.67 9.45 17.67 20.96 17.67c9.66 0 17.67-5.34 20.13-12.74h-13.97m-11.7-9.86c0-2.67 0-4.52 1.03-6.16 1.03-1.85 3.08-2.88 4.93-2.88s3.9.82 4.93 2.88c.82 1.64.82 3.49.82 6.16zm163.96-19.72h1.03c1.03 0 1.64-.41 1.64-1.23s-.62-1.23-1.85-1.23h-.82v2.47Zm6.98.62c0 3.29-2.67 5.96-5.96 5.96s-5.96-2.67-5.96-5.96 2.67-5.75 5.96-5.75 5.96 2.47 5.96 5.75m-5.95-7.19c-3.9 0-7.19 3.29-7.19 7.19 0 4.11 3.29 7.19 7.19 7.19 4.11 0 7.19-3.29 7.19-7.19.21-3.9-3.08-7.19-7.19-7.19m.2 3.08c2.26 0 3.49.82 3.49 2.26 0 1.03-.62 1.85-1.85 2.26l1.85 3.49h-2.05l-1.44-3.29h-1.23v3.29h-1.85v-8.01z" class="cls-1"/><path d="M29.18 226.03h74.22c10.18 0 17.69-2.6 22.26-7.85l4.92 7.85h70.97v-9.98l12.77 9.98h87.7v-45.49h-95.01l-5.56-.07-7.01.07H143.9l-6.39-.07H54.76" class="cls-4"/><path d="M70.27 188.05h-7.58l-17.9 30.13H66.1v-6.7h-8.68l8.68-15.57 12.57 22.27h9.7v-.07h15.16c13.11 0 19.67-5.06 19.67-15.1 0-1.71-.2-3.35-.68-4.85l12.09 19.94h5.81l17.41-30.06h-9.22l-10.86 19.67-11.48-19.67h-9.9l2.73 4.51c-3.21-3-7.78-4.51-13.79-4.51H85.36v25l-15.09-25Zm23.7 6.83h11.4c5.95 0 8.95 2.59 8.95 7.79 0 3.14-.96 5.4-2.73 6.62-1.71 1.23-4.99 1.85-9.56 1.85h-8.06zm76.71-6.83h-7.65l-17.82 30.12h9.02v-.07h12.3v-6.7h-8.61l8.54-15.5 12.57 22.27h9.84v-.07h4.99v-18.17l22.74 18.17h5.87v-30.06h-7.85V206l-22.95-17.96h-5.87v25l-15.1-25Zm56.28 1.71c-1.23 1.09-1.84 3.07-1.84 5.87v14.89c0 2.87.61 4.85 1.84 5.94 1.16 1.1 3.28 1.64 6.35 1.64H251c3.07 0 5.26-.54 6.42-1.64 1.16-1.09 1.84-3.07 1.84-5.94v-4.16l-8.67-.14v4.65h-16.8v-15.78h16.8v4.1h8.67v-3.55c0-2.94-.68-4.92-1.84-5.87-1.16-1.16-3.21-1.71-6.42-1.71h-17.69c-3.07 0-5.19.55-6.35 1.71Zm43.85 9.42v-4.3h23.42v-6.83h-32.1v30.06h32.51v-6.97H270.8v-5.33h13.73v-6.62H270.8Z" class="cls-3"/><path d="m314.78 132.33 3.96-6.35h-60.45c-4.58.05-9.06 1.4-12.91 3.89l-4.64 3.42c-2.05-2.46-4.03-4.17-6.01-5.33-2.46-1.37-5.19-1.98-8.34-1.98H124l-3.35 10.18-1.64-10.18h-22.4l-.82 1.91-2.12-.75c-11.82-4.03-23.16-2.8-33.88 3.82-5.46 3.48-9.56 7.85-12.09 13.18-2.6 5.33-3.48 11.27-2.87 18.03.41 4.03 1.84 7.79 4.3 11.2 2.46 3.42 5.6 6.15 9.49 8.13 5.67 2.94 11.81 3.82 18.24 2.8H96.8l3.1.07 3.73-.07 119.81-.14c2.59 0 5.19-.62 7.85-1.78 2.59-1.16 4.08 2.09 6.13.04 3.35 3.55 8.08 1.06 12.73 2.01 6.28 1.5 12.36.41 18.1-3.21l.75-.54-.54 3.62h24.38l3.06.25c1.44-.2 3.11-2.72 3.11-2.72l1.17-23.4 14.58-26.1Z" class="cls-4"/><path d="M91.01 134.25c-9.42-3.42-18.51-2.32-27.25 3.07-8.61 5.26-12.36 13.32-11.34 23.84.27 3.08 1.44 5.88 3.42 8.34s4.51 4.23 7.51 5.6c3.07 1.37 6.28 1.91 9.7 1.71 3.76-.2 7.17-1.3 10.52-3.14l.34-.2-1.3 2.87h9.15l5.87-12.77h10.11l2.25 12.77h14.96l7.65-23.91 4.92 23.91h5.94l11.47-26.5 1.16 26.5h8.74l-1.78-42.83h-10.66l-9.97 23.43-4.31-23.43h-8.74l-11.27 34.63-5.81-34.63H101.5l-16.53 37.36 2.39-15.64H71.04l-1.23 8.06h6.83l-.68 4.31c-1.96 1.18-4.35 1.35-7.17.48-2.87-.75-4.92-2.25-6.28-4.65-1.16-2.26-1.71-4.57-1.44-7.17.34-3.62 2.12-6.9 5.47-9.84 3-2.66 6.9-4.16 11.54-4.78 4.44-.68 8.33-.2 11.61 1.23l1.3-8.6Z" class="cls-3"/><path d="M106.45 155.21h-5.4l3.76-8.26z" class="cls-4"/><path d="M196.82 133.49h-24.39l-6.83 42.83h24.52l1.57-9.08h-15.43l1.23-7.65h13.38l1.44-9.22h-13.53l1.16-7.66h15.44zm107.85 0h-10.25l-8.74 14.01-5.46-14.01h-10.11l10.45 22.61-3.28 20.22h8.88l2.66-17.83z" class="cls-3"/><path d="M261.71 133.9c-4.99-1.16-9.56 0-14 3.42-4.44 3.28-7.31 7.99-8.81 13.93-1.3 5.87-.68 11.41 1.71 16.32 2.53 5.06 6.15 8.13 11.13 9.22 4.92 1.16 9.49 0 13.93-3.34 4.44-3.41 7.38-8.13 8.74-14.07 1.37-5.88.75-11.34-1.71-16.33-2.46-4.98-6.15-8.06-11-9.15Zm-.76 8.54c2.39.96 3.89 3.14 4.71 6.35.82 3.28.62 6.7-.55 10.31-1.16 3.55-3.07 6.22-5.53 7.92-2.53 1.84-4.92 2.19-7.17 1.16-2.39-.96-3.96-3.14-4.78-6.35-.89-3.35-.55-6.76.61-10.32 1.16-3.48 3.07-6.21 5.53-8.06 2.39-1.71 4.85-2.12 7.18-1.02Zm-29.23-7.03c-1.71-1.09-3.42-1.64-5.06-1.64h-16.39l-6.76 42.56h19.67c2.12 0 4.31-.68 6.56-2.05 2.14-1.29 3.96-3.04 5.33-5.13 1.44-2.39 1.98-4.71 1.71-7.17-.27-2.66-1.71-5.19-4.23-7.58 4.99-5.12 6.15-9.97 3.55-14.62a12.9 12.9 0 0 0-4.37-4.37Zm-15.23 15.3 1.37-7.92h5.74c1.44 0 2.53.41 3.28 1.23.62.75.89 1.64.75 2.73-.14 1.1-.68 1.98-1.5 2.73q-1.44 1.23-3.48 1.23h-6.15l9.91 10.11c.82.82 1.23 1.85 1.16 3.01s-.62 2.12-1.64 2.93c-1.02.82-2.46 1.3-4.44 1.3h-7.72l1.37-8.61h7.38c1.64 0 2.94.48 3.89 1.37l-9.91-10.11Zm80.39 21.79c0-1.23-.48-2.19-1.23-3.01-.82-.82-1.84-1.3-3.01-1.3s-2.19.48-3.01 1.3-1.23 1.78-1.23 3.01c0 1.16.41 2.12 1.23 2.93.82.82 1.84 1.3 3.01 1.3s2.18-.48 3.01-1.3c.75-.82 1.23-1.77 1.23-2.93m-1.71-2.53c.62.62 1.03 1.5 1.03 2.53 0 .96-.41 1.78-1.03 2.53-.61.62-1.5.96-2.53.96s-1.91-.34-2.53-.96c-.75-.75-1.1-1.57-1.1-2.53 0-1.03.34-1.91 1.1-2.53.62-.75 1.5-1.1 2.53-1.1s1.91.34 2.53 1.1" class="cls-3"/><path d="m294.15 170.31-1.16-.27h-2.05v4.78h.68v-2.19h.96l1.3 2.19h.75l-1.44-2.19c.96 0 1.5-.41 1.5-1.37 0-.41-.14-.82-.55-.96Zm-.14.96c0 .54-.55.82-1.57.82h-.82v-1.5h1.3c.75 0 1.09.27 1.09.68" class="cls-3"/><path d="M382.21 90.59s1.24-3.93-2.25-5.38c-.43-.12-.74-1.27 0-2.78s5.43-16.01 20.71-18.42c0 0 36.66-6.17 43.98-6.83 7.33-.66 8.11-.72 10.36-.74s-39.56 35.03-39.56 35.03l-33.24-.89Zm-1.31 3.37s-4.12-.08-4.47 2.3-4.31 30.55-5.63 49.78c-1.32 19.24-2.58 34.71-2.64 52.88s.44 23.01 7.61 31.94 10.88 10.31 14.84 10.5 3.46.12 4.71-1.63 2.14-3.33 2.14-3.33L380.91 93.97Z" class="cls-5"/><path d="M560 50.51v200.34l-36.01 1.1-.17-2.5-96.62-2.96h-.13s-21.91-4.45-31.81-7.37-16.13-10.47-20.32-16.36c-4.2-5.89-3.33-33.92-.57-70.45 2.77-36.53 8.49-65.19 8.49-65.19 1.87-10.87 12.19-10.32 24.08-12.39 11.37-1.99 26.78-7.99 42.43-15.66 15.66-7.67 22.45-8.17 28.74-8.3 3.99-.08 18.39-.1 32.65-.15 1.89 0 3.78-.01 5.64-.02h3.53c9.54-.03 25.16-.07 40.07-.09Z" class="cls-5"/><path d="M560 54.21v215.33c-18.37-.03-35.8-.55-45.93-1.58-27.22-2.09-47.02-6.78-54.42-9.52-7.63-2.82-17.16-7.54-23.57-9.36-1.63-.46-4.87-1.4-8.88-2.59-11.82-3.5-30.21-9.05-32.84-10.18-3.52-1.51-10.44-4.09-15.15-13.52-4.72-9.43-2.77-27.34-2.45-40.11.31-12.76 3.96-51.18 4.78-58.77.81-7.59 4.15-26.47 5-32.22.84-5.76 2.45-9.58 7.4-10.28 4.95-.71 6.84-1.26 18.34-3.43 11.51-2.17 31.22-10.47 43.76-17.45s29.14-6.32 37.16-6.32z" class="cls-5"/><path d="M443.71 134.02h-13.78c-.82 0-1.48-.66-1.48-1.48v-13.78c0-.82-.66-1.48-1.48-1.48h-12.59c-.82 0-1.48.66-1.48 1.48v13.78c0 .82-.66 1.48-1.48 1.48h-13.78c-.82 0-1.48.66-1.48 1.48v12.59c0 .82.66 1.48 1.48 1.48h13.78c.82 0 1.48.66 1.48 1.48v13.78c0 .82.66 1.48 1.48 1.48h12.59c.82 0 1.48-.66 1.48-1.48v-13.78c0-.82.66-1.48 1.48-1.48h13.78c.82 0 1.48-.66 1.48-1.48V135.5c0-.82-.66-1.48-1.48-1.48Z" class="cls-5"/><circle cx="420.67" cy="141.8" r="5.81" class="cls-5"/><rect width="14.01" height="43.57" x="425.32" y="170.5" class="cls-5" rx="7" ry="7" transform="rotate(-75.51 432.319 192.284)"/><circle cx="446.75" cy="196.02" r="5.81" class="cls-5"/><rect width="14.01" height="43.57" x="425.32" y="193.01" class="cls-5" rx="7" ry="7" transform="rotate(-75.51 432.322 214.793)"/><circle cx="446.75" cy="218.53" r="5.81" class="cls-5"/><path d="M560 74.48v174.6c-42.88-.07-64.01-4.52-79.77-10.23-19.64-7.11-19.33-20-19.42-33.58-.1-13.58 1.79-55.64 2.26-65.73s2.45-32.6 3.65-45.87c1.19-13.26 10.37-14.01 15.27-14.77 4.91-.76 12.33-1.38 27.79-2.64 7.47-.61 21.73-1.24 36.07-1.7.16 0 .3 0 .45-.01 3.29-.08 8.08-.1 13.7-.07Z" class="cls-5"/><path d="M480.75 92.83H560v111.65h-79.25z" class="cls-5"/></svg>