<?xml version="1.0" encoding="UTF-8"?>
<svg id="Layer_1" data-name="Layer 1" xmlns="http://www.w3.org/2000/svg" viewBox="0 0 560 320">
  <defs>
    <style>
      .cls-1 {
        fill: #372869;
      }

      .cls-2 {
        fill: #5456a1;
      }

      .cls-2, .cls-3, .cls-4, .cls-5, .cls-6, .cls-7 {
        fill-rule: evenodd;
      }

      .cls-8, .cls-3 {
        fill: #fff;
      }

      .cls-4 {
        fill: #89ac43;
      }

      .cls-5 {
        fill: #d1af2c;
      }

      .cls-6 {
        fill: #9d0c46;
      }

      .cls-9 {
        fill: #bca3ce;
        stroke: #553f98;
        stroke-miterlimit: 10;
        stroke-width: .5px;
      }

      .cls-7 {
        fill: #1b9389;
      }

      .cls-10 {
        fill: #553f98;
      }
    </style>
  </defs>
  <rect class="cls-1" x=".76" y="-.02" width="559.24" height="320"/>
  <path class="cls-10" d="M405.14-.12c-3.45,16.81-8.27,33.52-14.2,49.97-.77,2.14-1.56,4.27-2.37,6.4-3.15,8.31-6.6,16.53-10.28,24.65-5.58,12.3-11.73,24.36-18.36,36.11-.66,1.19-1.34,2.38-2.03,3.56-.5.88-1,1.74-1.5,2.61h0c-10.64,18.29-22.38,35.76-34.79,52.08-48.21,64.41-136.13,76.41-201.3,120.77-3.92,2.65-7.76,5.44-11.5,8.36-1.03.8-2.04,1.61-3.05,2.44-1.96,1.61-3.9,3.27-5.82,5-2.85,2.53-5.66,5.19-8.43,7.96H-.37V-.12h405.51Z"/>
  <path class="cls-8" d="M10.01,52.66h14.79l20.34,32.87v-32.87h14.59v47.05h-14.59l-20.55-32.87v32.87h-14.59v-47.05ZM138.84,57.39h14.18v6.57h7.81v4.52h-7.81v31.23h-14.18v-31.23h-7.6v-4.52h7.6v-6.57ZM67.75,99.71v-31.23h14.18v31.23h-14.18ZM67.75,62.32v-9.66h14.18v9.66h-14.18ZM316.35,66.22c-11.51,0-20.75,7.81-20.75,17.67s9.25,17.67,20.75,17.67,20.75-8.01,20.75-17.67c-.21-9.66-9.45-17.67-20.75-17.67M321.9,83.89v6.57c0,4.93-2.88,6.99-5.75,6.99s-5.75-2.05-5.75-6.99v-13.35c0-4.93,2.88-6.99,5.75-6.99s5.75,2.05,5.75,6.99v6.78ZM277.11,83.89v-5.55c0-4.93-3.29-6.16-5.55-6.16s-5.55,1.23-5.55,6.16v11.09c0,4.93,3.29,6.16,5.55,6.16s5.55-1.23,5.55-6.16v-5.55ZM276.9,52.66h13.97v47.05h-14.18v-1.85c-5.34,3.49-11.51,3.49-16.44,1.23-1.23-.62-9.66-4.52-9.66-15.61,0-8.22,7.81-17.26,18.08-16.44,3.29.41,5.75,1.64,8.01,2.88.21-7.19.21-17.26.21-17.26h0ZM115.21,67.04c5.34-.21,16.03,3.29,16.03,15.82v17.05h-14.18v-20.55c0-2.67-2.67-5.75-6.57-5.75s-6.78,2.88-6.78,5.75v20.55h-14.18v-31.23h14.18v3.29c2.88-2.88,6.78-4.93,11.51-4.93M230.47,67.04c5.34-.21,16.03,3.29,16.03,15.82v17.05h-14.18v-20.55c0-2.67-2.67-5.75-6.37-5.75-3.9,0-6.78,2.88-6.78,5.75v20.55h-13.97v-31.23h13.97v3.29c2.67-2.88,6.57-4.93,11.3-4.93M185.68,88.82v1.85c0,5.75-3.7,6.99-5.96,6.99-2.05,0-5.96-1.23-5.96-6.99v-6.37h26.71c0-9.66-9.45-17.67-20.96-17.67s-20.96,7.81-20.96,17.67,9.45,17.67,20.96,17.67c9.66,0,17.67-5.34,20.13-12.74h-13.97M173.97,79.37c0-2.67,0-4.52,1.03-6.16,1.03-1.85,3.08-2.88,4.93-2.88s3.9.82,4.93,2.88c.82,1.64.82,3.49.82,6.16h-11.71ZM337.93,59.65h1.03c1.03,0,1.64-.41,1.64-1.23s-.62-1.23-1.85-1.23h-.82v2.47ZM344.91,60.26c0,3.29-2.67,5.96-5.96,5.96s-5.96-2.67-5.96-5.96,2.67-5.75,5.96-5.75,5.96,2.47,5.96,5.75ZM338.95,53.07c-3.9,0-7.19,3.29-7.19,7.19,0,4.11,3.29,7.19,7.19,7.19,4.11,0,7.19-3.29,7.19-7.19.21-3.9-3.08-7.19-7.19-7.19ZM339.16,56.15c2.26,0,3.49.82,3.49,2.26,0,1.03-.62,1.85-1.85,2.26l1.85,3.49h-2.05l-1.44-3.29h-1.23v3.29h-1.85v-8.01h3.08Z"/>
  <path class="cls-1" d="M342.65,3.87c0-1.44-1.23-2.26-3.49-2.26h-3.08v8.01h1.85v-3.29h1.23l1.44,3.29h2.05l-1.85-3.49c1.23-.41,1.85-1.23,1.85-2.26ZM338.95,5.1h-1.02v-2.46h.82c1.23,0,1.85.41,1.85,1.23s-.62,1.23-1.65,1.23ZM343.37-.02h-4.01c3.1.19,5.55,2.59,5.55,5.74s-2.67,5.96-5.96,5.96-5.96-2.68-5.96-5.96,2.46-5.55,5.55-5.74h-3.86c-1.76,1.32-2.92,3.42-2.92,5.74,0,4.11,3.29,7.19,7.19,7.19,4.11,0,7.19-3.29,7.19-7.19.12-2.32-.99-4.42-2.77-5.74ZM342.65,3.87c0-1.44-1.23-2.26-3.49-2.26h-3.08v8.01h1.85v-3.29h1.23l1.44,3.29h2.05l-1.85-3.49c1.23-.41,1.85-1.23,1.85-2.26ZM338.95,5.1h-1.02v-2.46h.82c1.23,0,1.85.41,1.85,1.23s-.62,1.23-1.65,1.23ZM342.65,3.87c0-1.44-1.23-2.26-3.49-2.26h-3.08v8.01h1.85v-3.29h1.23l1.44,3.29h2.05l-1.85-3.49c1.23-.41,1.85-1.23,1.85-2.26ZM338.95,5.1h-1.02v-2.46h.82c1.23,0,1.85.41,1.85,1.23s-.62,1.23-1.65,1.23ZM185.68,36.12c0,5.76-3.7,6.99-5.96,6.99-2.05,0-5.96-1.23-5.96-6.99v-6.36h26.71c0-9.66-9.45-17.67-20.95-17.67s-20.96,7.8-20.96,17.67,9.45,17.66,20.96,17.66c9.65,0,17.67-5.34,20.13-12.73h-13.97v1.43ZM175,18.66c1.02-1.85,3.08-2.88,4.93-2.88s3.9.83,4.93,2.88c.82,1.64.82,3.49.82,6.16h-11.71c0-2.67,0-4.52,1.03-6.16ZM230.47,12.5c-4.72,0-8.63,2.05-11.3,4.93v-3.29h-13.97v31.23h13.97v-20.55c0-2.87,2.88-5.75,6.78-5.75s6.37,3.08,6.37,5.75v20.55h14.18v-17.05c0-12.54-10.69-16.03-16.03-15.82ZM115.21,12.5c-4.73,0-8.63,2.05-11.51,4.93v-3.29h-14.17v31.23h14.17v-20.55c0-2.87,2.88-5.75,6.78-5.75s6.58,3.08,6.58,5.75v20.55h14.17v-17.05c0-12.54-10.68-16.03-16.02-15.82ZM277.11,34.89c0,4.93-3.29,6.17-5.55,6.17s-5.55-1.24-5.55-6.17v-11.09c0-4.93,3.29-6.17,5.55-6.17s5.55,1.24,5.55,6.17v11.09ZM316.35,11.67c-11.5,0-20.75,7.81-20.75,17.67s9.25,17.67,20.75,17.67,20.75-8.01,20.75-17.67c-.2-9.65-9.45-17.67-20.75-17.67ZM321.9,35.92c0,4.93-2.88,6.98-5.75,6.98s-5.76-2.05-5.76-6.98v-13.36c0-4.93,2.88-6.98,5.76-6.98s5.75,2.05,5.75,6.98v13.36ZM67.75,13.93v31.23h14.17V13.93h-14.17ZM153.01,9.41V2.84h-14.17v6.57h-7.61v4.52h7.61v31.23h14.17V13.93h7.81v-4.52h-7.81ZM290.88-.02v45.18h-14.18v-1.84c-5.34,3.49-11.51,3.49-16.44,1.23-1.23-.62-9.65-4.52-9.65-15.62,0-8.21,7.8-17.26,18.08-16.43,3.28.41,5.75,1.64,8.01,2.87.15-5.29.19-12.14.19-15.39h13.99ZM81.92-.02v7.79h-14.17V-.02h14.17ZM10.01-.02v45.18h14.59V12.29l20.55,32.87h14.59V-.02h-14.59v31.01L25.97-.02h-15.96Z"/>
  <path class="cls-1" d="M10.01,107.21h14.79l20.34,32.87v-32.87h14.59v47.05h-14.59l-20.55-32.87v32.87h-14.59v-47.05ZM138.84,111.93h14.18v6.57h7.81v4.52h-7.81v31.23h-14.18v-31.23h-7.6v-4.52h7.6v-6.57ZM67.75,154.26v-31.23h14.18v31.23h-14.18ZM67.75,116.86v-9.66h14.18v9.66h-14.18ZM316.35,120.77c-11.51,0-20.75,7.81-20.75,17.67s9.25,17.67,20.75,17.67,20.75-8.01,20.75-17.67c-.21-9.66-9.45-17.67-20.75-17.67M321.9,138.44v6.57c0,4.93-2.88,6.99-5.75,6.99s-5.75-2.05-5.75-6.99v-13.35c0-4.93,2.88-6.99,5.75-6.99s5.75,2.05,5.75,6.99v6.78ZM277.11,138.44v-5.55c0-4.93-3.29-6.16-5.55-6.16s-5.55,1.23-5.55,6.16v11.09c0,4.93,3.29,6.16,5.55,6.16s5.55-1.23,5.55-6.16v-5.55ZM276.9,107.21h13.97v47.05h-14.18v-1.85c-5.34,3.49-11.51,3.49-16.44,1.23-1.23-.62-9.66-4.52-9.66-15.61,0-8.22,7.81-17.26,18.08-16.44,3.29.41,5.75,1.64,8.01,2.88.21-7.19.21-17.26.21-17.26h0ZM115.21,121.59c5.34-.21,16.03,3.29,16.03,15.82v17.05h-14.18v-20.55c0-2.67-2.67-5.75-6.57-5.75s-6.78,2.88-6.78,5.75v20.55h-14.18v-31.23h14.18v3.29c2.88-2.88,6.78-4.93,11.51-4.93M230.47,121.59c5.34-.21,16.03,3.29,16.03,15.82v17.05h-14.18v-20.55c0-2.67-2.67-5.75-6.37-5.75-3.9,0-6.78,2.88-6.78,5.75v20.55h-13.97v-31.23h13.97v3.29c2.67-2.88,6.57-4.93,11.3-4.93M185.68,143.37v1.85c0,5.75-3.7,6.99-5.96,6.99-2.05,0-5.96-1.23-5.96-6.99v-6.37h26.71c0-9.66-9.45-17.67-20.96-17.67s-20.96,7.81-20.96,17.67,9.45,17.67,20.96,17.67c9.66,0,17.67-5.34,20.13-12.74h-13.97M173.97,133.92c0-2.67,0-4.52,1.03-6.16,1.03-1.85,3.08-2.88,4.93-2.88s3.9.82,4.93,2.88c.82,1.64.82,3.49.82,6.16h-11.71ZM337.93,114.19h1.03c1.03,0,1.64-.41,1.64-1.23s-.62-1.23-1.85-1.23h-.82v2.47ZM344.91,114.81c0,3.29-2.67,5.96-5.96,5.96s-5.96-2.67-5.96-5.96,2.67-5.75,5.96-5.75,5.96,2.47,5.96,5.75ZM338.95,107.62c-3.9,0-7.19,3.29-7.19,7.19,0,4.11,3.29,7.19,7.19,7.19,4.11,0,7.19-3.29,7.19-7.19.21-3.9-3.08-7.19-7.19-7.19ZM339.16,110.7c2.26,0,3.49.82,3.49,2.26,0,1.03-.62,1.85-1.85,2.26l1.85,3.49h-2.05l-1.44-3.29h-1.23v3.29h-1.85v-8.01h3.08Z"/>
  <path class="cls-1" d="M10.01,216.3h14.79l20.34,32.87v-32.87h14.59v47.05h-14.59l-20.55-32.87v32.87h-14.59v-47.05ZM138.84,221.03h14.18v6.57h7.81v4.52h-7.81v31.23h-14.18v-31.23h-7.6v-4.52h7.6v-6.57ZM67.75,263.35v-31.23h14.18v31.23h-14.18ZM67.75,225.96v-9.66h14.18v9.66h-14.18ZM316.35,229.86c-11.51,0-20.75,7.81-20.75,17.67s9.25,17.67,20.75,17.67,20.75-8.01,20.75-17.67c-.21-9.66-9.45-17.67-20.75-17.67M321.9,247.53v6.57c0,4.93-2.88,6.99-5.75,6.99s-5.75-2.05-5.75-6.99v-13.35c0-4.93,2.88-6.99,5.75-6.99s5.75,2.05,5.75,6.99v6.78ZM277.11,247.53v-5.55c0-4.93-3.29-6.16-5.55-6.16s-5.55,1.23-5.55,6.16v11.09c0,4.93,3.29,6.16,5.55,6.16s5.55-1.23,5.55-6.16v-5.55ZM276.9,216.3h13.97v47.05h-14.18v-1.85c-5.34,3.49-11.51,3.49-16.44,1.23-1.23-.62-9.66-4.52-9.66-15.61,0-8.22,7.81-17.26,18.08-16.44,3.29.41,5.75,1.64,8.01,2.88.21-7.19.21-17.26.21-17.26h0ZM115.21,230.68c5.34-.21,16.03,3.29,16.03,15.82v17.05h-14.18v-20.55c0-2.67-2.67-5.75-6.57-5.75s-6.78,2.88-6.78,5.75v20.55h-14.18v-31.23h14.18v3.29c2.88-2.88,6.78-4.93,11.51-4.93M230.47,230.68c5.34-.21,16.03,3.29,16.03,15.82v17.05h-14.18v-20.55c0-2.67-2.67-5.75-6.37-5.75-3.9,0-6.78,2.88-6.78,5.75v20.55h-13.97v-31.23h13.97v3.29c2.67-2.88,6.57-4.93,11.3-4.93M185.68,252.46v1.85c0,5.75-3.7,6.99-5.96,6.99-2.05,0-5.96-1.23-5.96-6.99v-6.37h26.71c0-9.66-9.45-17.67-20.96-17.67s-20.96,7.81-20.96,17.67,9.45,17.67,20.96,17.67c9.66,0,17.67-5.34,20.13-12.74h-13.97M173.97,243.01c0-2.67,0-4.52,1.03-6.16,1.03-1.85,3.08-2.88,4.93-2.88s3.9.82,4.93,2.88c.82,1.64.82,3.49.82,6.16h-11.71ZM337.93,223.29h1.03c1.03,0,1.64-.41,1.64-1.23s-.62-1.23-1.85-1.23h-.82v2.47ZM344.91,223.9c0,3.29-2.67,5.96-5.96,5.96s-5.96-2.67-5.96-5.96,2.67-5.75,5.96-5.75,5.96,2.47,5.96,5.75ZM338.95,216.71c-3.9,0-7.19,3.29-7.19,7.19,0,4.11,3.29,7.19,7.19,7.19,4.11,0,7.19-3.29,7.19-7.19.21-3.9-3.08-7.19-7.19-7.19ZM339.16,219.79c2.26,0,3.49.82,3.49,2.26,0,1.03-.62,1.85-1.85,2.26l1.85,3.49h-2.05l-1.44-3.29h-1.23v3.29h-1.85v-8.01h3.08Z"/>
  <path class="cls-1" d="M10.01,161.75h14.79l20.34,32.87v-32.87h14.59v47.05h-14.59l-20.55-32.87v32.87h-14.59v-47.05ZM138.84,166.48h14.18v6.57h7.81v4.52h-7.81v31.23h-14.18v-31.23h-7.6v-4.52h7.6v-6.57ZM67.75,208.8v-31.23h14.18v31.23h-14.18ZM67.75,171.41v-9.66h14.18v9.66h-14.18ZM316.35,175.32c-11.51,0-20.75,7.81-20.75,17.67s9.25,17.67,20.75,17.67,20.75-8.01,20.75-17.67c-.21-9.66-9.45-17.67-20.75-17.67M321.9,192.98v6.57c0,4.93-2.88,6.99-5.75,6.99s-5.75-2.05-5.75-6.99v-13.35c0-4.93,2.88-6.99,5.75-6.99s5.75,2.05,5.75,6.99v6.78ZM277.11,192.98v-5.55c0-4.93-3.29-6.16-5.55-6.16s-5.55,1.23-5.55,6.16v11.09c0,4.93,3.29,6.16,5.55,6.16s5.55-1.23,5.55-6.16v-5.55ZM276.9,161.76h13.97v47.05h-14.18v-1.85c-5.34,3.49-11.51,3.49-16.44,1.23-1.23-.62-9.66-4.52-9.66-15.61,0-8.22,7.81-17.26,18.08-16.44,3.29.41,5.75,1.64,8.01,2.88.21-7.19.21-17.26.21-17.26h0ZM115.21,176.14c5.34-.21,16.03,3.29,16.03,15.82v17.05h-14.18v-20.55c0-2.67-2.67-5.75-6.57-5.75s-6.78,2.88-6.78,5.75v20.55h-14.18v-31.23h14.18v3.29c2.88-2.88,6.78-4.93,11.51-4.93M230.47,176.14c5.34-.21,16.03,3.29,16.03,15.82v17.05h-14.18v-20.55c0-2.67-2.67-5.75-6.37-5.75-3.9,0-6.78,2.88-6.78,5.75v20.55h-13.97v-31.23h13.97v3.29c2.67-2.88,6.57-4.93,11.3-4.93M185.68,197.92v1.85c0,5.75-3.7,6.99-5.96,6.99-2.05,0-5.96-1.23-5.96-6.99v-6.37h26.71c0-9.66-9.45-17.67-20.96-17.67s-20.96,7.81-20.96,17.67,9.45,17.67,20.96,17.67c9.66,0,17.67-5.34,20.13-12.74h-13.97M173.97,188.46c0-2.67,0-4.52,1.03-6.16,1.03-1.85,3.08-2.88,4.93-2.88s3.9.82,4.93,2.88c.82,1.64.82,3.49.82,6.16h-11.71ZM337.93,168.74h1.03c1.03,0,1.64-.41,1.64-1.23s-.62-1.23-1.85-1.23h-.82v2.47ZM344.91,169.36c0,3.29-2.67,5.96-5.96,5.96s-5.96-2.67-5.96-5.96,2.67-5.75,5.96-5.75,5.96,2.47,5.96,5.75ZM338.95,162.17c-3.9,0-7.19,3.29-7.19,7.19,0,4.11,3.29,7.19,7.19,7.19,4.11,0,7.19-3.29,7.19-7.19.21-3.9-3.08-7.19-7.19-7.19ZM339.16,165.25c2.26,0,3.49.82,3.49,2.26,0,1.03-.62,1.85-1.85,2.26l1.85,3.49h-2.05l-1.44-3.29h-1.23v3.29h-1.85v-8.01h3.08Z"/>
  <path class="cls-1" d="M10.01,270.85h14.79l20.34,32.87v-32.87h14.59v47.05h-14.59l-20.55-32.87v32.87h-14.59v-47.05ZM138.84,275.57h14.18v6.57h7.81v4.52h-7.81v31.23h-14.18v-31.23h-7.6v-4.52h7.6v-6.57ZM67.75,317.9v-31.23h14.18v31.23h-14.18ZM67.75,280.51v-9.66h14.18v9.66h-14.18ZM316.35,284.41c-11.51,0-20.75,7.81-20.75,17.67s9.25,17.67,20.75,17.67,20.75-8.01,20.75-17.67c-.21-9.66-9.45-17.67-20.75-17.67M321.9,302.08v6.57c0,4.93-2.88,6.99-5.75,6.99s-5.75-2.05-5.75-6.99v-13.35c0-4.93,2.88-6.99,5.75-6.99s5.75,2.05,5.75,6.99v6.78ZM277.11,302.08v-5.55c0-4.93-3.29-6.16-5.55-6.16s-5.55,1.23-5.55,6.16v11.09c0,4.93,3.29,6.16,5.55,6.16s5.55-1.23,5.55-6.16v-5.55ZM276.9,270.85h13.97v47.05h-14.18v-1.85c-5.34,3.49-11.51,3.49-16.44,1.23-1.23-.62-9.66-4.52-9.66-15.61,0-8.22,7.81-17.26,18.08-16.44,3.29.41,5.75,1.64,8.01,2.88.21-7.19.21-17.26.21-17.26h0ZM115.21,285.23c5.34-.21,16.03,3.29,16.03,15.82v17.05h-14.18v-20.55c0-2.67-2.67-5.75-6.57-5.75s-6.78,2.88-6.78,5.75v20.55h-14.18v-31.23h14.18v3.29c2.88-2.88,6.78-4.93,11.51-4.93M230.47,285.23c5.34-.21,16.03,3.29,16.03,15.82v17.05h-14.18v-20.55c0-2.67-2.67-5.75-6.37-5.75-3.9,0-6.78,2.88-6.78,5.75v20.55h-13.97v-31.23h13.97v3.29c2.67-2.88,6.57-4.93,11.3-4.93M185.68,307.01v1.85c0,5.75-3.7,6.99-5.96,6.99-2.05,0-5.96-1.23-5.96-6.99v-6.37h26.71c0-9.66-9.45-17.67-20.96-17.67s-20.96,7.81-20.96,17.67,9.45,17.67,20.96,17.67c9.66,0,17.67-5.34,20.13-12.74h-13.97M173.97,297.56c0-2.67,0-4.52,1.03-6.16,1.03-1.85,3.08-2.88,4.93-2.88s3.9.82,4.93,2.88c.82,1.64.82,3.49.82,6.16h-11.71ZM337.93,277.83h1.03c1.03,0,1.64-.41,1.64-1.23s-.62-1.23-1.85-1.23h-.82v2.47ZM344.91,278.45c0,3.29-2.67,5.96-5.96,5.96s-5.96-2.67-5.96-5.96,2.67-5.75,5.96-5.75,5.96,2.47,5.96,5.75ZM338.95,271.26c-3.9,0-7.19,3.29-7.19,7.19,0,4.11,3.29,7.19,7.19,7.19,4.11,0,7.19-3.29,7.19-7.19.21-3.9-3.08-7.19-7.19-7.19ZM339.16,274.34c2.26,0,3.49.82,3.49,2.26,0,1.03-.62,1.85-1.85,2.26l1.85,3.49h-2.05l-1.44-3.29h-1.23v3.29h-1.85v-8.01h3.08Z"/>
  <g>
    <path class="cls-3" d="M168.5,191.45h-11.54l-1.54-34.76-15,34.76h-7.7l-6.41-31.42-10.01,31.42h-19.62l-2.95-16.8h-13.34l-7.57,16.8h-12.06l24.76-56.18h14.24l7.57,45.41,14.75-45.41h11.41l5.65,30.78,13.09-30.78h13.85l2.44,56.18h0ZM91.99,163.75l-2.11-10.9-4.87,10.9h6.99ZM201.6,191.45l1.93-12.05h-20.14l1.6-10.01h17.51l1.93-12.05h-17.7l1.54-10.01h20.13l1.93-12.05h-31.94l-8.98,56.18h32.2ZM351.54,135.28h-13.47l-11.42,18.34-7.18-18.34h-13.21l13.6,29.63-4.2,26.55h11.55l3.54-23.47,20.78-32.71h0Z"/>
    <path class="cls-3" d="M265.52,158.54c3.59-15.53,16.86-25.73,29.65-22.77,12.8,2.96,20.26,17.94,16.68,33.47-3.59,15.53-16.86,25.72-29.65,22.77-12.79-2.96-20.26-17.94-16.68-33.47ZM282.99,180.76c6.11,2.73,13.59-2.63,16.7-11.97,3.11-9.34.69-19.14-5.42-21.87-6.11-2.73-13.58,2.63-16.69,11.97-3.12,9.35-.69,19.13,5.41,21.87ZM36.14,140.28c-11,6.81-16.29,17.18-14.88,31.29,1.64,16.37,22.83,26.68,40.79,16.29,1.57-.91.96-.76,1.54-1.28l3.59-22.83h-21.42l-1.64,10.52h8.95l-1.03,5.65c-5.13,2.05-13.85,1.28-17.57-5.39-2.36-4.22-4.54-13.65,5.39-22.32,8.07-7.06,22.06-8.33,30.14-4.62,0,0,1.03-5.9,1.79-11.42-15.52-5.39-27.58-.9-35.66,4.11h0Z"/>
    <path class="cls-3" d="M237.81,147.43h7.51c8.15,0,6.49,10.44-1.27,10.44h-8.02l1.78-10.44h0ZM234.25,169.32h9.67c9.17,0,8.92,11.2-1.27,11.2h-10.18l1.78-11.2h0ZM227.89,135.59l-8.91,55.75h25.96c10.69,0,26.33-15.76,12.09-28.64,14.64-15.15.12-26.99-7.64-27.12-6.23-.1-21.64,0-21.64,0h.12s0,0,0,0Z"/>
    <polyline class="cls-3" points="335.43 196.61 337.26 188.85 334.11 188.85 334.5 187.18 342.98 187.18 342.58 188.85 339.44 188.85 337.61 196.61"/>
    <polyline class="cls-3" points="341.95 196.61 344.17 187.18 347.34 187.18 347.48 194.61 347.51 194.61 351.12 187.18 354.27 187.18 352.05 196.61"/>
    <polyline class="cls-3" points="345.91 196.61 345.87 188.73 345.84 188.73 343.98 196.61"/>
    <polyline class="cls-3" points="350.02 196.61 351.87 188.73 351.84 188.73 348.05 196.61"/>
  </g>
  <g>
    <path class="cls-2" d="M159.5,231.38c-1.72-5.21-6.25-10.16-6.25-10.16,0,0-6.82-8.86-20.21-11.87-11.46-2.4-20.47,2.66-20.47,2.66,0,0-8.18,3.28-14.32,10.05-9.79,9.43-12.61,23.18-12.61,23.18,0,0-3.75,11.98,2.19,21.46l6.46,7.81c9.12,7.61,18.86,8.39,18.86,8.39,0,0,7.87,1.77,17.03-.62,8.02-1.62,13.86-5.58,13.86-5.58,0,0,13.28-7.34,16.93-22.34l-1.46-22.97h0ZM138.82,256.33s-5.31,9.27-16.98,8.18c-13.7-1.41-15.31-13.44-15.31-13.44,0,0-1.87-8.86,6.56-16.56,8.54-7.19,17.45-6.1,17.45-6.1,0,0,5.99.58,9.06,10.47,3.96,12.61-.78,17.45-.78,17.45h0Z"/>
    <path class="cls-5" d="M277.06,228.63c-9.11-14.9-25.16-17.14-25.16-17.14,0,0-5.11-1.72-16.04-.26-20.52,3.91-27.66,19.69-27.66,19.69,0,0-7.35,11.56-4.43,25.57l8.96,17.71c6.61,6.2,9.32,6.2,9.74,6.57,8.75,3.96,18.91,1.67,18.91,1.67,0,0,12.81-1.25,24.54-10.37,9.37-6.87,13.44-16.98,13.44-16.98l-2.3-26.46h0ZM252.11,259.05c-14.74,8.85-24.01-.84-24.01-.84,0,0-4.11-2.71-5-10.94-.62-9.53,8.86-14.48,8.86-14.48,0,0,5-3.07,11.25-2.6,6.25.47,8.23.05,13.28,3.8,4.79,4.32,4.48,7.5,4.48,7.5,0,0,1.72,10.73-8.86,17.55h0Z"/>
    <path class="cls-7" d="M279.35,255.09s.31,8.33-.99,10.37c-1.77,3.8-1.51,7.5-1.51,7.5,0,0-1.2,11.25,11.83,13.13,8.96-.05,10.05-7.5,10.21-10.68.52-2.5.31-14.12.31-14.12l11.62,9.48s8.44,7.09,13.39,11.2c5.16,4.06,6.45,4.79,6.45,4.79,0,0,1.1,1.3,5.06.83,3.18.05,6.1-2.81,6.1-2.81,0,0,3.7-2.71,4.63-7.45,1.15-5.62-3.22-8.38-3.22-8.38,0,0-16.15-13.02-27.09-21.98,7.34-4.01,10.89-6.77,10.89-6.77,0,0,10.21-6.77,12.4-17.14,3.02-11.41-5.57-15.89-5.57-15.89,0,0-5.37-3.86-9.9-5.89-11.41-5.57-22.03-4.43-22.03-4.43,0,0-15.11-1.04-24.95,11.1-4.53,5.88-1.72,13.59-1.72,13.59,0,0,.56,1.24,1.82,7.09,2.53,11.76,2.29,26.46,2.29,26.46h0ZM299.14,231.96l-.99-13.59s9.53-.21,13.49.47c7.82,1.2,7.39,3.39,7.39,3.39,0,0-.26,2.76-6.2,5.47-6.46,3.12-13.7,4.27-13.7,4.27Z"/>
    <path class="cls-4" d="M203.77,256.49c-4.39-.97-11.41.83-11.41.83,0,0-9.79,3.59-11.31,3.54-.57-.83-1.82-16.82-1.46-23.23.21-11.3-.73-20.52-.73-20.52,0,0-.47-10.89-6.3-17.34-6.87-6.93-11.67-3.96-14.42-2.29-6.62,5.94-3.54,13.18-3.54,13.18l3.44,9.74s1.67,4.17,1.46,10.99l1.46,22.97c0,3.07,2.5,23.75,2.5,23.75,0,0,.26,6.72,6.72,7.92,6.61,1.09,13.12-2.19,15.89-3.49,2.76-1.31,6.41-2.45,6.41-2.45,0,0,3.02-.68,6.04-.94,7.09-.68,9.64-1.93,9.64-1.93,0,0,2.75-.41,4.59-3.02,1.84-2.61,4.07-14.85-8.96-17.71h0Z"/>
    <path class="cls-6" d="M87.83,266.7c-4.65-1.39-10-.47-10-.47,0,0-15.11,1.46-22.97-.21-12.19-2.13-11.77-15.26-11.77-15.26,0,0-.41-8.7,6.93-20.47,9.06-14.53,19.06-17.14,19.06-17.14,0,0,2.5-.94,4.85.31,1.46,8.44,9.64,8.39,9.64,8.39,0,0,11.77.78,11.2-13.49-1.35-11.72-12.66-13.34-17.4-14.43-14.22-2.55-23.44,5.05-23.44,5.05,0,0-9.53,5.16-20.94,23.13-7.76,11.15-8.7,19.9-8.7,19.9,0,0-.94,2.08-.57,11.36-.21,7.24,2.5,12.5,2.5,12.5,0,0,4.12,12.45,17.14,17.56,7.92,3.28,19.48,3.23,19.48,3.23,0,0,11.2-.16,19.79-.62,4.69.36,6.93-2.08,6.93-2.08,0,0,5.26-3.44,4.74-9.43,0,0-1.02-6.19-6.46-7.82h0Z"/>
  </g>
  <path class="cls-9" d="M560,14.66v289.73c-38.75,4.48-84.85,2.85-112.87-5.8-6.34-1.96-10.67-7.8-10.67-14.43V21.6c0-3.83,3.11-6.94,6.95-6.94h116.59Z"/>
  <path class="cls-9" d="M560,25.54v134c-36.03,2.64-72.08,1.54-108.15-3.31-3.3-.44-5.76-3.27-5.76-6.6V30.26c0-2.61,2.11-4.72,4.72-4.72h109.19Z"/>
  <path class="cls-9" d="M560,40.84v89.55h-86.37c-.81,0-1.48-.66-1.48-1.48V42.32c0-.82.67-1.48,1.48-1.48h86.37Z"/>
  <path class="cls-9" d="M560,206.94v12.74c-1.89,2.42-4.83,3.97-8.14,3.97-5.72,0-10.35-4.63-10.35-10.34s4.63-10.34,10.35-10.34c3.31,0,6.25,1.55,8.14,3.97Z"/>
  <path class="cls-9" d="M514.33,260.25c-3.46.59-6.92.59-10.37,0-1.37-.23-2.37-1.44-2.37-2.83h0c0-1.41,1.02-2.62,2.4-2.83,3.43-.54,6.87-.54,10.3,0,1.39.22,2.4,1.43,2.4,2.83h0c0,1.39-1,2.6-2.37,2.83Z"/>
  <path class="cls-9" d="M539.78,260.25c-3.46.59-6.92.59-10.37,0-1.37-.23-2.37-1.44-2.37-2.83h0c0-1.41,1.02-2.62,2.4-2.83,3.43-.54,6.87-.54,10.3,0,1.39.22,2.4,1.43,2.4,2.83h0c0,1.39-1,2.6-2.37,2.83h0Z"/>
  <path class="cls-9" d="M490.9,202.01h-11.35c-.67,0-1.22-.55-1.22-1.22v-11.35c0-.67-.55-1.22-1.22-1.22h-10.38c-.67,0-1.22.55-1.22,1.22v11.35c0,.67-.55,1.22-1.22,1.22h-11.35c-.67,0-1.22.55-1.22,1.22v10.38c0,.67.55,1.22,1.22,1.22h11.35c.67,0,1.22.55,1.22,1.22v11.35c0,.67.55,1.22,1.22,1.22h10.38c.67,0,1.22-.55,1.22-1.22v-11.35c0-.67.55-1.22,1.22-1.22h11.35c.67,0,1.22-.55,1.22-1.22v-10.38c0-.67-.55-1.22-1.22-1.22h0Z"/>
  <circle class="cls-9" cx="471.92" cy="208.42" r="5.86"/>
</svg>