<svg xmlns="http://www.w3.org/2000/svg" id="Layer_1" data-name="Layer 1" viewBox="0 0 560 320"><defs><style>.cls-1{fill:#372869}.cls-3{fill-rule:evenodd;fill:#fff}.cls-9{fill:#bca3ce;stroke:#553f98;stroke-miterlimit:10;stroke-width:.5px}</style></defs><path d="M.76-.02H560v320H.76z" class="cls-1"/><path d="M405.14-.12c-3.45 16.81-8.27 33.52-14.2 49.97-.77 2.14-1.56 4.27-2.37 6.4-3.15 8.31-6.6 16.53-10.28 24.65a462 462 0 0 1-18.36 36.11c-.66 1.19-1.34 2.38-2.03 3.56-.5.88-1 1.74-1.5 2.61-10.64 18.29-22.38 35.76-34.79 52.08-48.21 64.41-136.13 76.41-201.3 120.77-3.92 2.65-7.76 5.44-11.5 8.36a168 168 0 0 0-8.87 7.44c-2.85 2.53-5.66 5.19-8.43 7.96H-.37V-.12z" style="fill:#553f98"/><path d="M10.01 52.66H24.8l20.34 32.87V52.66h14.59v47.05H45.14L24.59 66.84v32.87H10V52.66Zm128.83 4.73h14.18v6.57h7.81v4.52h-7.81v31.23h-14.18V68.48h-7.6v-4.52h7.6zM67.75 99.71V68.48h14.18v31.23zm0-37.39v-9.66h14.18v9.66zm248.6 3.9c-11.51 0-20.75 7.81-20.75 17.67s9.25 17.67 20.75 17.67 20.75-8.01 20.75-17.67c-.21-9.66-9.45-17.67-20.75-17.67m5.55 17.67v6.57c0 4.93-2.88 6.99-5.75 6.99s-5.75-2.05-5.75-6.99V77.11c0-4.93 2.88-6.99 5.75-6.99s5.75 2.05 5.75 6.99zm-44.79 0v-5.55c0-4.93-3.29-6.16-5.55-6.16s-5.55 1.23-5.55 6.16v11.09c0 4.93 3.29 6.16 5.55 6.16s5.55-1.23 5.55-6.16v-5.55Zm-.21-31.23h13.97v47.05h-14.18v-1.85c-5.34 3.49-11.51 3.49-16.44 1.23-1.23-.62-9.66-4.52-9.66-15.61 0-8.22 7.81-17.26 18.08-16.44 3.29.41 5.75 1.64 8.01 2.88.21-7.19.21-17.26.21-17.26ZM115.21 67.04c5.34-.21 16.03 3.29 16.03 15.82v17.05h-14.18V79.36c0-2.67-2.67-5.75-6.57-5.75s-6.78 2.88-6.78 5.75v20.55H89.53V68.68h14.18v3.29c2.88-2.88 6.78-4.93 11.51-4.93m115.25 0c5.34-.21 16.03 3.29 16.03 15.82v17.05h-14.18V79.36c0-2.67-2.67-5.75-6.37-5.75-3.9 0-6.78 2.88-6.78 5.75v20.55H205.2V68.68h13.97v3.29c2.67-2.88 6.57-4.93 11.3-4.93m-44.79 21.78v1.85c0 5.75-3.7 6.99-5.96 6.99-2.05 0-5.96-1.23-5.96-6.99V84.3h26.71c0-9.66-9.45-17.67-20.96-17.67s-20.96 7.81-20.96 17.67 9.45 17.67 20.96 17.67c9.66 0 17.67-5.34 20.13-12.74h-13.97m-11.7-9.86c0-2.67 0-4.52 1.03-6.16 1.03-1.85 3.08-2.88 4.93-2.88s3.9.82 4.93 2.88c.82 1.64.82 3.49.82 6.16zm163.96-19.72h1.03c1.03 0 1.64-.41 1.64-1.23s-.62-1.23-1.85-1.23h-.82v2.47Zm6.98.61c0 3.29-2.67 5.96-5.96 5.96s-5.96-2.67-5.96-5.96 2.67-5.75 5.96-5.75 5.96 2.47 5.96 5.75m-5.96-7.19c-3.9 0-7.19 3.29-7.19 7.19 0 4.11 3.29 7.19 7.19 7.19 4.11 0 7.19-3.29 7.19-7.19.21-3.9-3.08-7.19-7.19-7.19m.21 3.08c2.26 0 3.49.82 3.49 2.26 0 1.03-.62 1.85-1.85 2.26l1.85 3.49h-2.05l-1.44-3.29h-1.23v3.29h-1.85v-8.01z" style="fill:#fff"/><path d="M342.65 3.87c0-1.44-1.23-2.26-3.49-2.26h-3.08v8.01h1.85V6.33h1.23l1.44 3.29h2.05l-1.85-3.49c1.23-.41 1.85-1.23 1.85-2.26m-3.7 1.23h-1.02V2.64h.82c1.23 0 1.85.41 1.85 1.23s-.62 1.23-1.65 1.23m4.42-5.12h-4.01c3.1.19 5.55 2.59 5.55 5.74s-2.67 5.96-5.96 5.96-5.96-2.68-5.96-5.96 2.46-5.55 5.55-5.74h-3.86c-1.76 1.32-2.92 3.42-2.92 5.74 0 4.11 3.29 7.19 7.19 7.19 4.11 0 7.19-3.29 7.19-7.19.12-2.32-.99-4.42-2.77-5.74m-.72 3.89c0-1.44-1.23-2.26-3.49-2.26h-3.08v8.01h1.85V6.33h1.23l1.44 3.29h2.05l-1.85-3.49c1.23-.41 1.85-1.23 1.85-2.26m-3.7 1.23h-1.02V2.64h.82c1.23 0 1.85.41 1.85 1.23s-.62 1.23-1.65 1.23m3.7-1.23c0-1.44-1.23-2.26-3.49-2.26h-3.08v8.01h1.85V6.33h1.23l1.44 3.29h2.05l-1.85-3.49c1.23-.41 1.85-1.23 1.85-2.26m-3.7 1.23h-1.02V2.64h.82c1.23 0 1.85.41 1.85 1.23s-.62 1.23-1.65 1.23M185.68 36.12c0 5.76-3.7 6.99-5.96 6.99-2.05 0-5.96-1.23-5.96-6.99v-6.36h26.71c0-9.66-9.45-17.67-20.95-17.67s-20.96 7.8-20.96 17.67 9.45 17.66 20.96 17.66c9.65 0 17.67-5.34 20.13-12.73h-13.97zM175 18.66c1.02-1.85 3.08-2.88 4.93-2.88s3.9.83 4.93 2.88c.82 1.64.82 3.49.82 6.16h-11.71c0-2.67 0-4.52 1.03-6.16m55.47-6.16c-4.72 0-8.63 2.05-11.3 4.93v-3.29H205.2v31.23h13.97V24.82c0-2.87 2.88-5.75 6.78-5.75s6.37 3.08 6.37 5.75v20.55h14.18V28.32c0-12.54-10.69-16.03-16.03-15.82m-115.26 0c-4.73 0-8.63 2.05-11.51 4.93v-3.29H89.53v31.23h14.17V24.82c0-2.87 2.88-5.75 6.78-5.75s6.58 3.08 6.58 5.75v20.55h14.17V28.32c0-12.54-10.68-16.03-16.02-15.82m161.9 22.39c0 4.93-3.29 6.17-5.55 6.17s-5.55-1.24-5.55-6.17V23.8c0-4.93 3.29-6.17 5.55-6.17s5.55 1.24 5.55 6.17zm39.24-23.22c-11.5 0-20.75 7.81-20.75 17.67s9.25 17.67 20.75 17.67S337.1 39 337.1 29.34c-.2-9.65-9.45-17.67-20.75-17.67m5.55 24.25c0 4.93-2.88 6.98-5.75 6.98s-5.76-2.05-5.76-6.98V22.56c0-4.93 2.88-6.98 5.76-6.98s5.75 2.05 5.75 6.98zM67.75 13.93v31.23h14.17V13.93zm85.26-4.52V2.84h-14.17v6.57h-7.61v4.52h7.61v31.23h14.17V13.93h7.81V9.41zM290.88-.02v45.18H276.7v-1.84c-5.34 3.49-11.51 3.49-16.44 1.23-1.23-.62-9.65-4.52-9.65-15.62 0-8.21 7.8-17.26 18.08-16.43 3.28.41 5.75 1.64 8.01 2.87.15-5.29.19-12.14.19-15.39zm-208.96 0v7.79H67.75V-.02zm-71.91 0v45.18H24.6V12.29l20.55 32.87h14.59V-.02H45.15v31.01L25.97-.02zm0 107.23H24.8l20.34 32.87v-32.87h14.59v47.05H45.14l-20.55-32.87v32.87H10v-47.05Zm128.83 4.72h14.18v6.57h7.81v4.52h-7.81v31.23h-14.18v-31.23h-7.6v-4.52h7.6zm-71.09 42.33v-31.23h14.18v31.23zm0-37.4v-9.66h14.18v9.66zm248.6 3.91c-11.51 0-20.75 7.81-20.75 17.67s9.25 17.67 20.75 17.67 20.75-8.01 20.75-17.67c-.21-9.66-9.45-17.67-20.75-17.67m5.55 17.67v6.57c0 4.93-2.88 6.99-5.75 6.99s-5.75-2.05-5.75-6.99v-13.35c0-4.93 2.88-6.99 5.75-6.99s5.75 2.05 5.75 6.99zm-44.79 0v-5.55c0-4.93-3.29-6.16-5.55-6.16s-5.55 1.23-5.55 6.16v11.09c0 4.93 3.29 6.16 5.55 6.16s5.55-1.23 5.55-6.16v-5.55Zm-.21-31.23h13.97v47.05h-14.18v-1.85c-5.34 3.49-11.51 3.49-16.44 1.23-1.23-.62-9.66-4.52-9.66-15.61 0-8.22 7.81-17.26 18.08-16.44 3.29.41 5.75 1.64 8.01 2.88.21-7.19.21-17.26.21-17.26Zm-161.69 14.38c5.34-.21 16.03 3.29 16.03 15.82v17.05h-14.18v-20.55c0-2.67-2.67-5.75-6.57-5.75s-6.78 2.88-6.78 5.75v20.55H89.53v-31.23h14.18v3.29c2.88-2.88 6.78-4.93 11.51-4.93m115.25 0c5.34-.21 16.03 3.29 16.03 15.82v17.05h-14.18v-20.55c0-2.67-2.67-5.75-6.37-5.75-3.9 0-6.78 2.88-6.78 5.75v20.55H205.2v-31.23h13.97v3.29c2.67-2.88 6.57-4.93 11.3-4.93m-44.79 21.78v1.85c0 5.75-3.7 6.99-5.96 6.99-2.05 0-5.96-1.23-5.96-6.99v-6.37h26.71c0-9.66-9.45-17.67-20.96-17.67s-20.96 7.81-20.96 17.67 9.45 17.67 20.96 17.67c9.66 0 17.67-5.34 20.13-12.74h-13.97m-11.7-9.86c0-2.67 0-4.52 1.03-6.16 1.03-1.85 3.08-2.88 4.93-2.88s3.9.82 4.93 2.88c.82 1.64.82 3.49.82 6.16zm163.96-19.73h1.03c1.03 0 1.64-.41 1.64-1.23s-.62-1.23-1.85-1.23h-.82v2.47Zm6.98.62c0 3.29-2.67 5.96-5.96 5.96s-5.96-2.67-5.96-5.96 2.67-5.75 5.96-5.75 5.96 2.47 5.96 5.75m-5.96-7.19c-3.9 0-7.19 3.29-7.19 7.19 0 4.11 3.29 7.19 7.19 7.19 4.11 0 7.19-3.29 7.19-7.19.21-3.9-3.08-7.19-7.19-7.19m.21 3.08c2.26 0 3.49.82 3.49 2.26 0 1.03-.62 1.85-1.85 2.26l1.85 3.49h-2.05l-1.44-3.29h-1.23v3.29h-1.85v-8.01zM10.01 216.3H24.8l20.34 32.87V216.3h14.59v47.05H45.14l-20.55-32.87v32.87H10V216.3Zm128.83 4.73h14.18v6.57h7.81v4.52h-7.81v31.23h-14.18v-31.23h-7.6v-4.52h7.6zm-71.09 42.32v-31.23h14.18v31.23zm0-37.39v-9.66h14.18v9.66zm248.6 3.9c-11.51 0-20.75 7.81-20.75 17.67s9.25 17.67 20.75 17.67 20.75-8.01 20.75-17.67c-.21-9.66-9.45-17.67-20.75-17.67m5.55 17.67v6.57c0 4.93-2.88 6.99-5.75 6.99s-5.75-2.05-5.75-6.99v-13.35c0-4.93 2.88-6.99 5.75-6.99s5.75 2.05 5.75 6.99zm-44.79 0v-5.55c0-4.93-3.29-6.16-5.55-6.16s-5.55 1.23-5.55 6.16v11.09c0 4.93 3.29 6.16 5.55 6.16s5.55-1.23 5.55-6.16v-5.55Zm-.21-31.23h13.97v47.05h-14.18v-1.85c-5.34 3.49-11.51 3.49-16.44 1.23-1.23-.62-9.66-4.52-9.66-15.61 0-8.22 7.81-17.26 18.08-16.44 3.29.41 5.75 1.64 8.01 2.88.21-7.19.21-17.26.21-17.26Zm-161.69 14.38c5.34-.21 16.03 3.29 16.03 15.82v17.05h-14.18V243c0-2.67-2.67-5.75-6.57-5.75s-6.78 2.88-6.78 5.75v20.55H89.53v-31.23h14.18v3.29c2.88-2.88 6.78-4.93 11.51-4.93m115.25 0c5.34-.21 16.03 3.29 16.03 15.82v17.05h-14.18V243c0-2.67-2.67-5.75-6.37-5.75-3.9 0-6.78 2.88-6.78 5.75v20.55H205.2v-31.23h13.97v3.29c2.67-2.88 6.57-4.93 11.3-4.93m-44.79 21.78v1.85c0 5.75-3.7 6.99-5.96 6.99-2.05 0-5.96-1.23-5.96-6.99v-6.37h26.71c0-9.66-9.45-17.67-20.96-17.67s-20.96 7.81-20.96 17.67 9.45 17.67 20.96 17.67c9.66 0 17.67-5.34 20.13-12.74h-13.97m-11.7-9.86c0-2.67 0-4.52 1.03-6.16 1.03-1.85 3.08-2.88 4.93-2.88s3.9.82 4.93 2.88c.82 1.64.82 3.49.82 6.16zm163.96-19.72h1.03c1.03 0 1.64-.41 1.64-1.23s-.62-1.23-1.85-1.23h-.82v2.47Zm6.98.61c0 3.29-2.67 5.96-5.96 5.96s-5.96-2.67-5.96-5.96 2.67-5.75 5.96-5.75 5.96 2.47 5.96 5.75m-5.96-7.19c-3.9 0-7.19 3.29-7.19 7.19 0 4.11 3.29 7.19 7.19 7.19 4.11 0 7.19-3.29 7.19-7.19.21-3.9-3.08-7.19-7.19-7.19m.21 3.08c2.26 0 3.49.82 3.49 2.26 0 1.03-.62 1.85-1.85 2.26l1.85 3.49h-2.05l-1.44-3.29h-1.23v3.29h-1.85v-8.01zM10.01 161.75H24.8l20.34 32.87v-32.87h14.59v47.05H45.14l-20.55-32.87v32.87H10v-47.05Zm128.83 4.73h14.18v6.57h7.81v4.52h-7.81v31.23h-14.18v-31.23h-7.6v-4.52h7.6zM67.75 208.8v-31.23h14.18v31.23zm0-37.39v-9.66h14.18v9.66zm248.6 3.91c-11.51 0-20.75 7.81-20.75 17.67s9.25 17.67 20.75 17.67 20.75-8.01 20.75-17.67c-.21-9.66-9.45-17.67-20.75-17.67m5.55 17.66v6.57c0 4.93-2.88 6.99-5.75 6.99s-5.75-2.05-5.75-6.99V186.2c0-4.93 2.88-6.99 5.75-6.99s5.75 2.05 5.75 6.99zm-44.79 0v-5.55c0-4.93-3.29-6.16-5.55-6.16s-5.55 1.23-5.55 6.16v11.09c0 4.93 3.29 6.16 5.55 6.16s5.55-1.23 5.55-6.16v-5.55Zm-.21-31.22h13.97v47.05h-14.18v-1.85c-5.34 3.49-11.51 3.49-16.44 1.23-1.23-.62-9.66-4.52-9.66-15.61 0-8.22 7.81-17.26 18.08-16.44 3.29.41 5.75 1.64 8.01 2.88.21-7.19.21-17.26.21-17.26Zm-161.69 14.38c5.34-.21 16.03 3.29 16.03 15.82v17.05h-14.18v-20.55c0-2.67-2.67-5.75-6.57-5.75s-6.78 2.88-6.78 5.75v20.55H89.53v-31.23h14.18v3.29c2.88-2.88 6.78-4.93 11.51-4.93m115.25 0c5.34-.21 16.03 3.29 16.03 15.82v17.05h-14.18v-20.55c0-2.67-2.67-5.75-6.37-5.75-3.9 0-6.78 2.88-6.78 5.75v20.55H205.2v-31.23h13.97v3.29c2.67-2.88 6.57-4.93 11.3-4.93m-44.79 21.78v1.85c0 5.75-3.7 6.99-5.96 6.99-2.05 0-5.96-1.23-5.96-6.99v-6.37h26.71c0-9.66-9.45-17.67-20.96-17.67s-20.96 7.81-20.96 17.67 9.45 17.67 20.96 17.67c9.66 0 17.67-5.34 20.13-12.74h-13.97m-11.7-9.87c0-2.67 0-4.52 1.03-6.16 1.03-1.85 3.08-2.88 4.93-2.88s3.9.82 4.93 2.88c.82 1.64.82 3.49.82 6.16zm163.96-19.72h1.03c1.03 0 1.64-.41 1.64-1.23s-.62-1.23-1.85-1.23h-.82v2.47Zm6.98.62c0 3.29-2.67 5.96-5.96 5.96s-5.96-2.67-5.96-5.96 2.67-5.75 5.96-5.75 5.96 2.47 5.96 5.75m-5.96-7.19c-3.9 0-7.19 3.29-7.19 7.19 0 4.11 3.29 7.19 7.19 7.19 4.11 0 7.19-3.29 7.19-7.19.21-3.9-3.08-7.19-7.19-7.19m.21 3.08c2.26 0 3.49.82 3.49 2.26 0 1.03-.62 1.85-1.85 2.26l1.85 3.49h-2.05l-1.44-3.29h-1.23v3.29h-1.85v-8.01zM10.01 270.85H24.8l20.34 32.87v-32.87h14.59v47.05H45.14l-20.55-32.87v32.87H10v-47.05Zm128.83 4.72h14.18v6.57h7.81v4.52h-7.81v31.23h-14.18v-31.23h-7.6v-4.52h7.6zM67.75 317.9v-31.23h14.18v31.23zm0-37.39v-9.66h14.18v9.66zm248.6 3.9c-11.51 0-20.75 7.81-20.75 17.67s9.25 17.67 20.75 17.67 20.75-8.01 20.75-17.67c-.21-9.66-9.45-17.67-20.75-17.67m5.55 17.67v6.57c0 4.93-2.88 6.99-5.75 6.99s-5.75-2.05-5.75-6.99V295.3c0-4.93 2.88-6.99 5.75-6.99s5.75 2.05 5.75 6.99zm-44.79 0v-5.55c0-4.93-3.29-6.16-5.55-6.16s-5.55 1.23-5.55 6.16v11.09c0 4.93 3.29 6.16 5.55 6.16s5.55-1.23 5.55-6.16v-5.55Zm-.21-31.23h13.97v47.05h-14.18v-1.85c-5.34 3.49-11.51 3.49-16.44 1.23-1.23-.62-9.66-4.52-9.66-15.61 0-8.22 7.81-17.26 18.08-16.44 3.29.41 5.75 1.64 8.01 2.88.21-7.19.21-17.26.21-17.26Zm-161.69 14.38c5.34-.21 16.03 3.29 16.03 15.82v17.05h-14.18v-20.55c0-2.67-2.67-5.75-6.57-5.75s-6.78 2.88-6.78 5.75v20.55H89.53v-31.23h14.18v3.29c2.88-2.88 6.78-4.93 11.51-4.93m115.25 0c5.34-.21 16.03 3.29 16.03 15.82v17.05h-14.18v-20.55c0-2.67-2.67-5.75-6.37-5.75-3.9 0-6.78 2.88-6.78 5.75v20.55H205.2v-31.23h13.97v3.29c2.67-2.88 6.57-4.93 11.3-4.93m-44.79 21.78v1.85c0 5.75-3.7 6.99-5.96 6.99-2.05 0-5.96-1.23-5.96-6.99v-6.37h26.71c0-9.66-9.45-17.67-20.96-17.67s-20.96 7.81-20.96 17.67 9.45 17.67 20.96 17.67c9.66 0 17.67-5.34 20.13-12.74h-13.97m-11.7-9.86c0-2.67 0-4.52 1.03-6.16 1.03-1.85 3.08-2.88 4.93-2.88s3.9.82 4.93 2.88c.82 1.64.82 3.49.82 6.16zm163.96-19.73h1.03c1.03 0 1.64-.41 1.64-1.23s-.62-1.23-1.85-1.23h-.82v2.47Zm6.98.62c0 3.29-2.67 5.96-5.96 5.96s-5.96-2.67-5.96-5.96 2.67-5.75 5.96-5.75 5.96 2.47 5.96 5.75m-5.96-7.19c-3.9 0-7.19 3.29-7.19 7.19 0 4.11 3.29 7.19 7.19 7.19 4.11 0 7.19-3.29 7.19-7.19.21-3.9-3.08-7.19-7.19-7.19m.21 3.08c2.26 0 3.49.82 3.49 2.26 0 1.03-.62 1.85-1.85 2.26l1.85 3.49h-2.05l-1.44-3.29h-1.23v3.29h-1.85v-8.01z" class="cls-1"/><path d="M155.64 162.65h-9.63l-1.29-29.02-12.53 29.02h-6.43l-5.35-26.23-8.35 26.23H95.68l-2.46-14.03H82.08l-6.32 14.03H65.69l20.67-46.9h11.88l6.32 37.9 12.31-37.9h9.53l4.71 25.7 10.93-25.7h11.56l2.03 46.9Zm-63.88-23.13-1.76-9.1-4.07 9.1zm91.51 23.13 1.61-10.06h-16.82l1.33-8.35h14.62l1.61-10.06h-14.78l1.29-8.36h16.81l1.61-10.06h-26.66l-7.5 46.9h26.88Zm125.17-46.9H297.2l-9.53 15.31-5.99-15.31h-11.03L282 140.48l-3.5 22.16h9.64l2.96-19.59 17.35-27.3Z" class="cls-3"/><path d="M236.63 135.17c2.99-12.97 14.07-21.48 24.75-19.01 10.69 2.47 16.91 14.98 13.93 27.94-2.99 12.96-14.08 21.47-24.75 19.01-10.68-2.47-16.91-14.98-13.92-27.94Zm14.59 18.55c5.1 2.28 11.34-2.19 13.94-9.99s.58-15.98-4.52-18.26-11.33 2.19-13.94 10c-2.6 7.8-.58 15.97 4.52 18.25M45.14 119.93c-9.18 5.68-13.6 14.34-12.42 26.12 1.37 13.66 19.06 22.27 34.05 13.6 1.31-.76.8-.64 1.29-1.07l3-19.06H53.17l-1.37 8.78h7.47l-.86 4.71c-4.28 1.71-11.56 1.07-14.67-4.5-1.97-3.53-3.79-11.4 4.5-18.63 6.74-5.89 18.42-6.96 25.16-3.85 0 0 .86-4.93 1.5-9.53-12.96-4.5-23.02-.75-29.77 3.43Z" class="cls-3"/><path d="M213.5 125.9h6.27c6.8 0 5.42 8.71-1.06 8.71h-6.7l1.48-8.71Zm-2.97 18.27h8.07c7.65 0 7.44 9.35-1.06 9.35h-8.5zm-5.32-28.16-7.44 46.54h21.68c8.93 0 21.98-13.16 10.1-23.91 12.22-12.65.1-22.53-6.38-22.64-5.2-.08-18.06 0-18.06 0h.1Z" class="cls-3"/><path d="M148.12 195.98c-1.43-4.35-5.22-8.48-5.22-8.48s-5.69-7.39-16.87-9.91c-9.57-2-17.09 2.22-17.09 2.22s-6.83 2.74-11.96 8.39c-8.17 7.87-10.52 19.35-10.52 19.35s-3.13 10 1.83 17.92l5.39 6.52c7.61 6.35 15.74 7 15.74 7s6.57 1.48 14.22-.52c6.69-1.35 11.57-4.66 11.57-4.66s11.09-6.13 14.13-18.65zm-17.26 20.83s-4.44 7.74-14.18 6.83c-11.44-1.17-12.78-11.22-12.78-11.22s-1.57-7.39 5.48-13.83c7.13-6 14.57-5.09 14.57-5.09s5 .48 7.57 8.74c3.3 10.52-.65 14.57-.65 14.57Z" style="fill:#5456a1;fill-rule:evenodd"/><path d="M246.26 193.68c-7.61-12.44-21-14.31-21-14.31s-4.26-1.44-13.39-.22c-17.13 3.26-23.09 16.44-23.09 16.44s-6.13 9.65-3.7 21.35l7.48 14.78c5.52 5.17 7.78 5.17 8.13 5.48 7.3 3.3 15.78 1.39 15.78 1.39s10.7-1.04 20.48-8.65c7.83-5.74 11.22-14.17 11.22-14.17l-1.92-22.09Zm-20.83 25.39c-12.3 7.39-20.05-.7-20.05-.7s-3.43-2.26-4.17-9.13c-.52-7.96 7.39-12.09 7.39-12.09s4.18-2.56 9.39-2.17c5.22.39 6.87.04 11.09 3.18 4 3.61 3.74 6.26 3.74 6.26s1.43 8.96-7.39 14.66Z" style="fill-rule:evenodd;fill:#d1af2c"/><path d="M248.18 215.77s.26 6.96-.83 8.65c-1.48 3.17-1.26 6.26-1.26 6.26s-1 9.39 9.87 10.96c7.48-.04 8.39-6.26 8.52-8.92.44-2.09.26-11.78.26-11.78l9.7 7.91s7.05 5.92 11.18 9.35c4.31 3.39 5.39 4 5.39 4s.92 1.09 4.22.69c2.65.04 5.09-2.35 5.09-2.35s3.09-2.26 3.87-6.22c.96-4.7-2.69-7-2.69-7s-13.48-10.87-22.61-18.35c6.13-3.35 9.09-5.65 9.09-5.65s8.52-5.65 10.35-14.31c2.53-9.52-4.65-13.26-4.65-13.26s-4.48-3.22-8.26-4.91c-9.52-4.65-18.39-3.7-18.39-3.7s-12.61-.87-20.83 9.26c-3.78 4.91-1.43 11.35-1.43 11.35s.47 1.03 1.52 5.92c2.11 9.82 1.91 22.09 1.91 22.09Zm16.52-19.31-.83-11.35s7.96-.17 11.26.39c6.52 1 6.17 2.83 6.17 2.83s-.22 2.3-5.17 4.57c-5.39 2.61-11.43 3.57-11.43 3.57Z" style="fill-rule:evenodd;fill:#1b9389"/><path d="M185.08 216.94c-3.67-.81-9.52.69-9.52.69s-8.17 3-9.44 2.96c-.48-.69-1.52-14.04-1.22-19.39.17-9.44-.61-17.13-.61-17.13s-.39-9.09-5.26-14.48c-5.74-5.78-9.74-3.3-12.04-1.91-5.52 4.96-2.96 11-2.96 11l2.87 8.13s1.39 3.48 1.22 9.17l1.22 19.18c0 2.57 2.09 19.83 2.09 19.83s.22 5.61 5.61 6.61c5.52.91 10.96-1.83 13.26-2.91 2.3-1.09 5.35-2.05 5.35-2.05s2.52-.56 5.04-.78c5.92-.57 8.05-1.61 8.05-1.61s2.29-.35 3.83-2.53c1.53-2.18 3.4-12.39-7.48-14.78Z" style="fill-rule:evenodd;fill:#89ac43"/><path d="M88.29 225.46c-3.88-1.16-8.35-.39-8.35-.39s-12.61 1.22-19.18-.17c-10.18-1.78-9.83-12.74-9.83-12.74s-.35-7.26 5.79-17.09c7.57-12.13 15.91-14.31 15.91-14.31s2.09-.78 4.05.26c1.22 7.04 8.04 7 8.04 7s9.83.65 9.35-11.26c-1.13-9.79-10.57-11.13-14.52-12.04-11.87-2.13-19.57 4.22-19.57 4.22s-7.96 4.31-17.48 19.31c-6.48 9.31-7.26 16.61-7.26 16.61s-.78 1.74-.48 9.48c-.17 6.04 2.09 10.43 2.09 10.43s3.44 10.4 14.3 14.66c6.61 2.74 16.26 2.69 16.26 2.69s9.35-.13 16.52-.52c3.91.3 5.78-1.74 5.78-1.74s4.39-2.87 3.96-7.87c0 0-.85-5.17-5.39-6.53Z" style="fill-rule:evenodd;fill:#9d0c46"/><path d="M560 14.66v289.73c-38.75 4.48-84.85 2.85-112.87-5.8-6.34-1.96-10.67-7.8-10.67-14.43V21.6c0-3.83 3.11-6.94 6.95-6.94z" class="cls-9"/><path d="M560 25.54v134c-36.03 2.64-72.08 1.54-108.15-3.31-3.3-.44-5.76-3.27-5.76-6.6V30.26c0-2.61 2.11-4.72 4.72-4.72z" class="cls-9"/><path d="M560 40.84v89.55h-86.37c-.81 0-1.48-.66-1.48-1.48V42.32c0-.82.67-1.48 1.48-1.48zm0 166.1v12.74a10.3 10.3 0 0 1-8.14 3.97c-5.72 0-10.35-4.63-10.35-10.34s4.63-10.34 10.35-10.34c3.31 0 6.25 1.55 8.14 3.97Zm-45.67 53.31c-3.46.59-6.92.59-10.37 0-1.37-.23-2.37-1.44-2.37-2.83 0-1.41 1.02-2.62 2.4-2.83 3.43-.54 6.87-.54 10.3 0a2.86 2.86 0 0 1 2.4 2.83c0 1.39-1 2.6-2.37 2.83Zm25.45 0c-3.46.59-6.92.59-10.37 0-1.37-.23-2.37-1.44-2.37-2.83 0-1.41 1.02-2.62 2.4-2.83 3.43-.54 6.87-.54 10.3 0a2.86 2.86 0 0 1 2.4 2.83c0 1.39-1 2.6-2.37 2.83Zm-48.88-58.24h-11.35c-.67 0-1.22-.55-1.22-1.22v-11.35c0-.67-.55-1.22-1.22-1.22h-10.38c-.67 0-1.22.55-1.22 1.22v11.35c0 .67-.55 1.22-1.22 1.22h-11.35c-.67 0-1.22.55-1.22 1.22v10.38c0 .67.55 1.22 1.22 1.22h11.35c.67 0 1.22.55 1.22 1.22v11.35c0 .67.55 1.22 1.22 1.22h10.38c.67 0 1.22-.55 1.22-1.22v-11.35c0-.67.55-1.22 1.22-1.22h11.35c.67 0 1.22-.55 1.22-1.22v-10.38c0-.67-.55-1.22-1.22-1.22Z" class="cls-9"/><circle cx="471.92" cy="208.42" r="5.86" class="cls-9"/></svg>