<?xml version="1.0" encoding="UTF-8"?>
<svg id="Layer_1" data-name="Layer 1" xmlns="http://www.w3.org/2000/svg" viewBox="0 0 560 320">
  <defs>
    <style>
      .cls-1 {
        fill: #372869;
      }

      .cls-2, .cls-3 {
        fill: #fff;
      }

      .cls-3, .cls-4 {
        fill-rule: evenodd;
      }

      .cls-5 {
        fill: #231f20;
      }

      .cls-6 {
        fill: #0060a8;
      }

      .cls-7 {
        fill: #bca3ce;
        stroke: #553f98;
        stroke-miterlimit: 10;
        stroke-width: .5px;
      }

      .cls-8 {
        fill: #553f98;
      }
    </style>
  </defs>
  <rect class="cls-1" x=".95" y=".03" width="559.24" height="320"/>
  <path class="cls-8" d="M405.33-.07c-3.45,16.81-8.27,33.52-14.21,49.97-.77,2.13-1.56,4.26-2.37,6.39-3.15,8.31-6.59,16.53-10.28,24.66-5.58,12.29-11.73,24.36-18.35,36.11-.67,1.18-1.34,2.37-2.03,3.55-.49.88-1,1.74-1.5,2.61h-.01c-10.64,18.3-22.38,35.76-34.79,52.09-9.13,12.19-19.67,22.5-31.22,31.51-1.78,1.4-3.59,2.76-5.43,4.1-5.84,4.25-11.9,8.2-18.15,11.93-3.79,2.26-7.64,4.44-11.55,6.55-2.32,1.26-4.66,2.49-7.01,3.69-6.03,3.11-12.18,6.07-18.39,8.95-4.05,1.88-8.14,3.73-12.24,5.55-2.14.95-4.28,1.9-6.43,2.85-1.18.51-2.36,1.03-3.55,1.55-1.97.86-3.94,1.72-5.92,2.58-11.89,5.19-23.82,10.37-35.51,15.91-.87.41-1.74.83-2.6,1.24-3.77,1.81-7.51,3.66-11.21,5.55-4.09,2.1-8.14,4.27-12.13,6.51-5.2,2.92-10.31,5.98-15.3,9.21-1.33.86-2.65,1.73-3.96,2.62-.24.15-.47.31-.7.47-3.92,2.65-7.76,5.44-11.5,8.36-.6.46-1.19.93-1.77,1.41-.43.33-.85.68-1.28,1.03-.33.27-.66.54-.98.81-1.63,1.36-3.24,2.75-4.84,4.19-1.21,1.07-2.41,2.17-3.6,3.29-1.6,1.49-3.19,3.03-4.76,4.6-.02.02-.05.05-.07.07H-.19V-.07h405.52Z"/>
  <g>
    <path class="cls-2" d="M154.74,123.74c5.19,5.04,12.27,8.16,20.07,8.16h123.33s-26.64-79.45-26.64-79.45c-3.64-8.44-12.17-14.35-22.42-14.35s-18.87,6.1-22.37,14.51l-8.88,25.89-.03-39.06-43.07-.02c-7.79,0-14.78,3.04-19.94,8.06l.02-8.03h-44.1c-8.21,0-15.68,3.5-20.91,9.01v-9.04l-41.56.04c-17.94-.02-32.66,14.01-32.68,32.55,0,8.59,3.75,16.37,9.29,22.14l-9.37-.02v37.77h41.88c11.77-.02,23.43-7.12,27.48-15.63l.12-.35c4.68,9.46,14.45,15.98,25.76,15.98h44.04v-8.16"/>
    <g>
      <path class="cls-6" d="M21.93,125.43l35.31-.04c14.45,0,26.16-11.67,26.16-26.06s-11.71-26.08-26.16-26.08l-9.17.05c-.72,0-1.31-.59-1.31-1.32s.59-1.32,1.31-1.32h35.25s.01-11.05.01-11.05h-35.27c-6.82,0-12.37,5.54-12.37,12.35s5.55,12.33,12.37,12.33l9.21.12c8.28,0,14.98,6.68,14.98,14.91s-6.7,14.93-14.98,14.93H21.95v11.18Z"/>
      <path class="cls-6" d="M21.95,111.66h35.34c6.84,0,12.37-5.52,12.37-12.34s-5.53-12.32-12.37-12.32l-9.21-.1c-8.26,0-14.97-6.68-14.97-14.94s6.71-14.92,14.97-14.92h35.27s-.01-11.11-.01-11.11h-35.25c-14.43,0-26.16,11.66-26.16,26.06s11.72,26.06,26.16,26.06h9.12c.69.01,1.28.58,1.28,1.29s-.59,1.27-1.28,1.27l-35.26.03v11.02ZM110.78,114.32c-6.13,0-11.15-4.88-11.15-11.12v-35.28c0-6,5.02-10.93,11.15-10.93h37.69s0-11.07,0-11.07h-37.69c-12.27,0-22.2,9.9-22.2,22.12v35.16c0,12.22,9.94,22.14,22.2,22.14l37.54.02v-11.05s-37.54.01-37.54.01Z"/>
      <path class="cls-6" d="M102.34,68.05c0-4.67,3.76-8.46,8.44-8.46h37.69v11.09h-32.48c-2.6,0-2.64,2.58-2.64,2.58h27.09v11.04h-38.13v-16.26ZM110.78,111.64c-4.67,0-8.46-3.77-8.46-8.43v-16.27h38.13v11.07h-27.09c.04,2.6,2.64,2.61,2.64,2.61h32.32v11s-37.54.02-37.54.02ZM174.89,114.29c-6.1,0-11.09-4.98-11.09-11.09v-35.16c0-6.12,4.95-11.05,11.07-11.05h36.51v-11.07h-36.59c-12.26,0-22.2,9.9-22.2,22.12v35.16c0,12.22,10.02,22.14,22.28,22.14l36.51.02v-52.1h-31.37v11.04h20.29v29.99h-25.39Z"/>
      <path class="cls-6" d="M166.39,103.21c0,4.68,3.79,8.49,8.46,8.49h22.8v-24.78h-17.64v11.08h6.55l.02,2.6h-6.52c-1.42,0-2.59-1.18-2.59-2.6l-.06-24.75s0-2.57,2.62-2.64h31.34v-11.04s-36.52,0-36.52,0c-4.67,0-8.46,3.79-8.46,8.46v35.16M245.67,59.42c.66-1.88,2.72-2.87,4.6-2.22,1.04.36,1.85,1.18,2.22,2.22l17.72,52.36h-25.95l.03-12.32h8.67l-3.9-11.6-12.72,37.49h-13.08l22.41-65.93Z"/>
      <path class="cls-6" d="M273.79,114.29h-29.48v11.06h44.86l-23.33-69.03c-2.04-6.73-8.78-11.69-16.76-11.69s-14.71,4.93-16.77,11.66l-23.55,69.06h11.75l22.86-67.13c.96-2.3,3.2-3.79,5.69-3.79,2.48,0,4.73,1.49,5.7,3.77l19.04,56.09Z"/>
    </g>
    <path class="cls-5" d="M280.71,54.71c2.07,0,4.06-.82,5.53-2.28,1.47-1.48,2.29-3.43,2.29-5.52s-.82-4.02-2.29-5.5c-1.47-1.46-3.46-2.28-5.53-2.27-4.3,0-7.81,3.48-7.81,7.77,0,2.09.82,4.04,2.3,5.52,1.46,1.46,3.44,2.28,5.5,2.28M274.01,46.91c0-1.78.69-3.47,1.96-4.73,1.26-1.25,2.96-1.96,4.74-1.95,1.8,0,3.49.69,4.76,1.95,1.26,1.25,1.97,2.96,1.97,4.73,0,3.7-3.02,6.7-6.73,6.7-1.78,0-3.47-.69-4.74-1.96-1.28-1.26-1.96-2.94-1.96-4.74Z"/>
    <path class="cls-5" d="M278.71,47.57v3.67h-1.13v-8.63h3.21c1.21.01,1.92.01,2.59.52.65.48.92,1.2.92,2,0,2.02-1.64,2.28-2.06,2.37l2.43,3.75h-1.37l-2.37-3.67h-2.23ZM278.71,46.62h2.29c.37,0,.71,0,1.05-.09.8-.19,1.09-.77,1.09-1.39,0-.23-.02-.81-.52-1.21-.45-.38-1.02-.36-1.69-.36h-2.23v3.05Z"/>
  </g>
  <g>
    <path class="cls-1" d="M298.14,34.41h-123.33c-7.81-.01-14.88-3.13-20.07-8.17v8.15h-44.04c-11.31,0-21.08-6.51-25.76-15.97l-.12.35c-4.06,8.51-15.72,15.61-27.48,15.62H15.46S15.46.03,15.46.03h271.16l11.52,34.38Z"/>
    <g>
      <path class="cls-8" d="M83.4,1.84c0,14.39-11.71,26.06-26.16,26.06l-35.31.04.02-11.18h35.33c8.28,0,14.98-6.69,14.98-14.94,0-.61-.04-1.2-.11-1.79h11.18c.05.6.07,1.2.07,1.81Z"/>
      <path class="cls-8" d="M148.31,16.81l-37.53.02c-6.13,0-11.15-4.89-11.15-11.12V.03h-11.05v5.68c0,12.23,9.93,22.14,22.2,22.14l37.54.02v-11.06ZM69.52.03h-26.65c1.68.34,3.42.52,5.2.52h9.12c.7.01,1.28.58,1.28,1.29s-.58,1.27-1.28,1.27l-35.26.03.02,11.02h35.33c6.84,0,12.37-5.52,12.37-12.34,0-.61-.04-1.2-.13-1.79Z"/>
      <path class="cls-8" d="M200.28.03v16.77h-25.39c-6.11,0-11.1-4.98-11.1-11.09V.03h-11.21v5.68c0,12.23,10.02,22.14,22.28,22.14l36.51.02V.03h-11.09ZM116,3.12s-2.6-.01-2.64-2.61h27.09V.03h-38.13v5.68c0,4.66,3.79,8.43,8.46,8.43h37.53V3.12h-32.31Z"/>
      <path class="cls-8" d="M270.21,14.28L265.39.03h-13.08l.65,1.94h-7.84l.66-1.94h-13.06l-9.46,27.83h13.08l7.94-23.42-.02,9.84h25.95ZM180.02.03v.48h6.55l.02,2.6h-6.52c-1.42,0-2.59-1.18-2.59-2.6V.03h-11.09v5.68c0,4.68,3.79,8.49,8.47,8.49h22.8V.03h-17.64Z"/>
      <polygon class="cls-8" points="218.25 .03 229.98 .03 220.5 27.86 208.76 27.86 211.37 20.2 218.25 .03"/>
      <polygon class="cls-8" points="289.17 27.86 244.31 27.86 244.31 16.8 273.79 16.8 268.1 .03 279.77 .03 289.17 27.86"/>
    </g>
  </g>
  <g>
    <path class="cls-1" d="M290.57,206.82c-1.78,1.4-3.59,2.76-5.43,4.1-5.84,4.25-11.9,8.2-18.15,11.93-3.79,2.26-7.64,4.44-11.55,6.55h-80.63c-7.81,0-14.88-3.13-20.07-8.17v8.15h-44.04c-11.31.01-21.08-6.51-25.76-15.97l-.12.35c-4.06,8.51-15.72,15.61-27.48,15.62H15.46s0-37.76,0-37.76h9.37c-5.53-5.76-9.28-13.54-9.28-22.13.02-18.54,14.74-32.57,32.68-32.55l41.56-.04v9.04c5.23-5.5,12.7-9,20.91-9h44.1v8.03c5.14-5.03,12.14-8.07,19.92-8.07l43.07.02.04,39.06,8.88-25.88c3.5-8.41,12.16-14.51,22.37-14.51s18.79,5.91,22.43,14.35l19.06,56.88Z"/>
    <g>
      <path class="cls-8" d="M21.93,222.93l35.31-.04c14.45,0,26.16-11.67,26.16-26.06s-11.71-26.08-26.16-26.08l-9.17.05c-.72,0-1.31-.59-1.31-1.32s.59-1.32,1.31-1.32h35.25s.01-11.05.01-11.05h-35.27c-6.82,0-12.37,5.54-12.37,12.35s5.55,12.33,12.37,12.33l9.21.12c8.28,0,14.98,6.68,14.98,14.91s-6.7,14.93-14.98,14.93H21.95v11.18Z"/>
      <path class="cls-8" d="M110.78,154.49h37.69s0-11.07,0-11.07h-37.69c-12.27,0-22.2,9.9-22.2,22.13v35.15c0,12.23,9.93,22.14,22.2,22.14l37.54.02v-11.05s-37.54.01-37.54.01c-6.13,0-11.15-4.88-11.15-11.12v-35.28c0-5.99,5.02-10.93,11.15-10.93ZM57.28,184.49l-9.21-.1c-8.27,0-14.97-6.68-14.97-14.94s6.7-14.92,14.97-14.92h35.27s-.02-11.11-.02-11.11h-35.25c-14.43,0-26.15,11.66-26.15,26.06s11.72,26.06,26.15,26.06l9.12.02c.7,0,1.28.56,1.28,1.28s-.58,1.26-1.28,1.26l-35.26.03.02,11.02h35.33c6.84,0,12.37-5.52,12.37-12.34s-5.53-12.32-12.37-12.32Z"/>
      <path class="cls-8" d="M174.86,154.49h36.51v-11.07h-36.6c-12.26,0-22.19,9.9-22.19,22.13v35.15c0,12.23,10.02,22.14,22.28,22.14l36.51.02v-52.1h-31.38v11.04h20.29v29.99h-25.39c-6.11,0-11.1-4.98-11.1-11.09v-35.15c0-6.12,4.96-11.06,11.07-11.06ZM116,198.11s-2.6-.01-2.64-2.61h27.09v-11.07h-38.13v16.27c0,4.66,3.79,8.43,8.46,8.43h37.53v-11.02h-32.31ZM116,168.18h32.47v-11.1h-37.69c-4.68,0-8.44,3.79-8.44,8.47l-.02,16.25h38.13v-11.04h-27.09s.04-2.58,2.64-2.58Z"/>
      <path class="cls-8" d="M270.21,209.27l-17.72-52.35c-.36-1.04-1.18-1.85-2.21-2.22-1.89-.66-3.95.34-4.61,2.22l-22.41,65.93h13.08l7.94-23.42-.02,9.84h25.95ZM249.06,185.35l3.9,11.61h-7.84l3.94-11.61ZM180.02,195.5h6.55l.02,2.6h-6.52c-1.42,0-2.59-1.18-2.59-2.6l-.06-24.75s0-2.57,2.62-2.64h31.34l-.02-11.03h-36.5c-4.68,0-8.47,3.79-8.47,8.47v35.15c0,4.69,3.79,8.5,8.47,8.5h22.8v-24.78h-17.64v11.08Z"/>
      <path class="cls-8" d="M285.14,210.92c-5.84,4.25-11.9,8.2-18.15,11.93h-22.68v-11.06h29.48l-19.04-56.09c-.97-2.28-3.21-3.77-5.7-3.77s-4.73,1.49-5.69,3.79l-22.86,67.13h-11.74l2.61-7.66,20.93-61.4c2.06-6.73,8.78-11.66,16.77-11.66s14.72,4.95,16.77,11.69l19.3,57.1Z"/>
    </g>
    <path class="cls-5" d="M286.24,138.91c-1.47-1.46-3.46-2.27-5.53-2.27-4.29,0-7.8,3.48-7.8,7.77,0,2.09.81,4.04,2.3,5.52,1.46,1.46,3.44,2.28,5.5,2.28s4.06-.82,5.53-2.28c1.47-1.48,2.29-3.43,2.29-5.52s-.82-4.02-2.29-5.5ZM280.71,151.11c-1.78,0-3.46-.7-4.74-1.96-1.28-1.27-1.96-2.95-1.96-4.74s.69-3.47,1.96-4.73c1.26-1.26,2.97-1.96,4.74-1.95,1.81,0,3.49.68,4.76,1.95,1.26,1.25,1.97,2.95,1.97,4.73,0,3.69-3.02,6.7-6.73,6.7Z"/>
    <path class="cls-5" d="M282.24,144.99c.42-.08,2.06-.34,2.06-2.36,0-.8-.27-1.52-.92-2-.67-.51-1.38-.51-2.59-.52h-3.21v8.63h1.13v-3.67h2.23l2.37,3.67h1.36l-2.43-3.75ZM281.01,144.12h-2.3v-3.06h2.23c.67,0,1.24-.01,1.69.37.49.4.51.98.51,1.21,0,.62-.28,1.2-1.08,1.39-.34.09-.69.09-1.05.09Z"/>
  </g>
  <g>
    <path class="cls-1" d="M217.8,247.59c-2.14.95-4.28,1.9-6.43,2.85v1.55h-3.55c-1.97.86-3.94,1.72-5.92,2.58-11.89,5.19-23.82,10.37-35.51,15.91-.87.41-1.74.83-2.6,1.24-3.77,1.81-7.51,3.66-11.21,5.55-4.09,2.1-8.14,4.27-12.13,6.51-5.2,2.92-10.31,5.98-15.3,9.21-1.33.86-2.65,1.73-3.96,2.62-.24.15-.47.31-.7.47-3.92,2.65-7.76,5.44-11.5,8.36-.6.46-1.19.93-1.77,1.41-.43.33-.85.68-1.28,1.03-.33.27-.66.54-.98.81-1.63,1.36-3.24,2.75-4.84,4.19-1.21,1.07-2.41,2.17-3.6,3.29-1.6,1.49-3.19,3.03-4.76,4.6-2.82-2.46-5.15-5.48-6.82-8.86l-.12.35c-1.5,3.15-4.05,6.11-7.26,8.58-.08.06-.17.13-.25.19h-15.75c-1.4.24-2.85.36-4.32.36l-35.31.03v-.39h-6.47v-30.92l9.37.02c-5.53-5.77-9.28-13.56-9.28-22.14.02-18.55,14.74-32.57,32.68-32.56l41.56-.03v9.04c5.23-5.5,12.7-9.01,20.91-9.01h44.1v8.03c5.14-5.02,12.14-8.06,19.92-8.06l43.07.02v13.17Z"/>
    <path class="cls-1" d="M248.43,233.09c-6.03,3.11-12.18,6.07-18.39,8.95,4.25-5.26,10.87-8.76,18.39-8.95Z"/>
    <g>
      <path class="cls-8" d="M83.4,294.33c0,12.91-9.44,23.65-21.84,25.7-1.4.24-2.85.36-4.32.36l-35.31.03v-.39l.02-10.79h35.33c8.28,0,14.98-6.69,14.98-14.93s-6.7-14.91-14.98-14.91l-9.21-.12c-6.82,0-12.37-5.52-12.37-12.33s5.55-12.35,12.37-12.35h35.27l-.02,11.06h-35.25c-.72-.01-1.31.58-1.31,1.31s.59,1.33,1.31,1.33l9.17-.05c14.45,0,26.16,11.67,26.16,26.08Z"/>
      <path class="cls-8" d="M57.28,281.99l-9.21-.1c-8.27,0-14.97-6.69-14.97-14.95s6.7-14.91,14.97-14.91h35.27s-.02-11.11-.02-11.11h-35.25c-14.43,0-26.15,11.66-26.15,26.05s11.72,26.07,26.15,26.07h9.12c.7.01,1.28.58,1.28,1.29s-.58,1.27-1.28,1.27l-35.26.02.02,11.03h35.33c6.84,0,12.37-5.52,12.37-12.34s-5.53-12.32-12.37-12.32ZM110.78,240.92c-12.27,0-22.2,9.9-22.2,22.12v35.16c0,6.81,3.09,12.9,7.94,16.97,1.19-1.12,2.39-2.22,3.6-3.29,1.6-1.44,3.21-2.83,4.84-4.19-3.19-1.93-5.33-5.42-5.33-9.49v-35.28c0-6,5.02-10.93,11.15-10.93h37.69s0-11.07,0-11.07h-37.69Z"/>
      <path class="cls-8" d="M116,265.67h32.47v-11.09h-37.69c-4.68,0-8.44,3.79-8.44,8.46l-.02,16.26h38.13v-11.05h-27.09s.04-2.58,2.64-2.58ZM102.32,281.93v16.27c0,3.39,2.01,6.31,4.9,7.65.58-.48,1.17-.95,1.77-1.41,3.74-2.92,7.58-5.71,11.5-8.36.23-.16.46-.32.7-.47h-5.19s-2.6-.01-2.64-2.62h11.79c4.99-3.23,10.1-6.29,15.3-9.21v-1.85h-38.13ZM174.77,240.92c-12.26,0-22.19,9.9-22.19,22.12v14.23c3.7-1.89,7.44-3.74,11.21-5.55v-8.68c0-6.12,4.96-11.05,11.07-11.05h36.51v-11.07h-36.6Z"/>
      <path class="cls-8" d="M174.86,254.58c-4.68,0-8.47,3.79-8.47,8.46v7.44c11.69-5.54,23.62-10.72,35.51-15.91h-27.04Z"/>
    </g>
  </g>
  <g>
    <path class="cls-4" d="M273.04,210.74l19.82-11.48v-24.29l-19-10.99h-77.65l-13.96.03h-59.72l-14.04-.03H32.08l-18.92,10.9v24.37l19.91,11.48h239.96Z"/>
    <path class="cls-3" d="M17.3,197.77l16.68,9.66h238.06l16.69-9.66v-21.31l-15.77-9.17h-78.39l-17.27.04h-56.26l-10.82-.04H32.99l-15.7,9.09v21.39Z"/>
    <path class="cls-4" d="M193.16,184.64h24.29v9.66l-8.67,5.86h-26.81l8.88-5.95h15.69v-3.63h-24.29v-9.46l8.96-6.07h26.76l-8.84,5.95h-15.98v3.64ZM220.83,175.05h10.9v25.11h-10.9v-25.11ZM246.85,184.64h24.29v9.66l-8.68,5.86h-26.8l8.88-5.95h15.7v-3.63h-24.29v-9.46l8.96-6.07h26.77l-8.84,5.95h-15.98v3.64Z"/>
    <path class="cls-4" d="M158.63,194.22v-3.63h10.45l8.88-5.95h-19.33v-3.64h15.73l8.84-5.95h-25.98l-9.5,5.82v19.29h26.43l8.92-5.95h-24.45ZM82.31,194.22v-3.63h10.45l8.88-5.95h-19.33v-3.64h15.73l8.84-5.95h-25.98l-9.5,5.82v19.29h26.43l8.92-5.95h-24.45ZM133.77,191.82l-13.55-8.43v16.77h-10.9v-25.11h11.07l13.38,7.35v-7.35h10.9v25.11h-10.9v-8.34ZM44.14,181v13.22h13.55v-3.63h-11.07l8.84-5.95h13.13v9.91l-8.34,5.62h-27.01v-19l9.04-6.11h29.57l-8.8,5.95h-18.92Z"/>
  </g>
  <g>
    <path class="cls-7" d="M523.57,25.85c7.89-1.09,20.75-2.27,36.62-2.67v204.47c-2,.13-4.03.28-6.11.45-1.08.1-2.17.14-3.26.15-28.74,2.7-46.47,11.39-60.73,22.05-19.91,14.87-11.9,40.5-46.45,49.42-34.55,8.92-69.33-38.44-69.33-38.44,0,0-42.78-49.65-37.06-112.8s59.25-86.49,123.09-108.68c20.6-7.16,42.39-11.49,63.23-13.95Z"/>
    <path class="cls-7" d="M518.49,141.82c0,6.42-.78,12.65-2.27,18.61-7.16,28.96-30.66,51.47-60.14,57.2-4.8.94-9.76,1.43-14.84,1.43-6,0-11.86-.68-17.47-1.99-28.92-6.69-51.63-29.63-57.99-58.68-1.17-5.34-1.79-10.88-1.79-16.57,0-5.39.55-10.66,1.61-15.75,6.25-30.18,30.09-53.91,60.33-59.99,4.95-.99,10.06-1.52,15.3-1.52,5.85,0,11.54.65,17.01,1.88,30.1,6.76,53.56,31.1,59.02,61.67.8,4.45,1.22,9.03,1.22,13.7h0Z"/>
    <path class="cls-7" d="M502.42,141.82c0,5.08-.62,10.02-1.8,14.74-5.67,22.94-24.28,40.76-47.63,45.3-3.81.74-7.73,1.13-11.75,1.13-4.75,0-9.39-.54-13.84-1.57-22.9-5.3-40.89-23.46-45.92-46.47-.93-4.23-1.42-8.62-1.42-13.12,0-4.27.44-8.45,1.28-12.47,4.95-23.9,23.83-42.69,47.78-47.51,3.92-.78,7.97-1.2,12.12-1.2,4.63,0,9.14.51,13.47,1.49,23.83,5.35,42.42,24.63,46.74,48.84.64,3.52.96,7.15.96,10.85h0Z"/>
    <path class="cls-7" d="M485.54,141.82c0,3.68-.45,7.26-1.3,10.67-4.11,16.61-17.58,29.52-34.49,32.81-2.76.54-5.6.82-8.51.82-3.44,0-6.8-.39-10.02-1.14-16.59-3.84-29.61-16.99-33.25-33.65-.67-3.06-1.02-6.24-1.02-9.5,0-3.09.32-6.12.92-9.03,3.58-17.31,17.26-30.92,34.6-34.4,2.84-.57,5.77-.87,8.78-.87,3.35,0,6.62.37,9.76,1.08,17.26,3.88,30.72,17.83,33.85,35.37.46,2.55.7,5.18.7,7.86h0Z"/>
    <path class="cls-7" d="M485.54,141.82c0,3.68-.45,7.26-1.3,10.67l-24.87-.27c-5.08-.09-9.26,3.95-9.35,9.02l-.27,24.05c-2.76.54-5.6.82-8.51.82-3.44,0-6.8-.39-10.02-1.14l.28-24.06c.09-5.07-3.95-9.26-9.02-9.35l-24.51-.25c-.67-3.06-1.02-6.24-1.02-9.5,0-3.09.32-6.12.92-9.03l24.93.25c5.08.09,9.26-3.95,9.35-9.02l.31-25.63c2.84-.57,5.77-.87,8.78-.87,3.35,0,6.62.37,9.76,1.08l-.32,25.75c-.09,5.07,3.95,9.26,9.02,9.35l25.14.27c.46,2.55.7,5.18.7,7.86h0Z"/>
    <g>
      <polygon class="cls-7" points="555.24 89.37 560.19 81.27 560.19 106.22 525.42 106.22 519.89 102.75 519.89 93.37 525.95 89.37 555.24 89.37"/>
      <g>
        <path class="cls-7" d="M534.14,102.92c-3.48,0-5.78-.67-7.13-1.36v-7.26c1.36-.68,3.65-1.36,7.13-1.36,3.85,0,5.59.65,6.62,1.03v1.03h-8.69v5.82h4.06v-2.18h-2.23v-1.51h6.86v4.73c-1.03.38-2.77,1.03-6.62,1.03h0Z"/>
        <path class="cls-7" d="M550.51,102.92c-3.18,0-5.7-.7-6.89-1.36v-7.26c1.36-.68,3.65-1.36,7.13-1.36,3.85,0,5.59.65,6.62,1.03v1.03h-8.69v1.96h8.69v1.83h-8.69v2.04h8.69v1.02c-1.26.45-2.93,1.05-6.86,1.05h0Z"/>
        <path class="cls-7" d="M560.19,94.29v8.08c-.2-.1-.3-.17-.3-.17v-7.74s.1-.07.3-.17Z"/>
      </g>
    </g>
    <circle class="cls-7" cx="441.24" cy="141.82" r="7.93"/>
    <polygon class="cls-7" points="441.18 214.38 444.16 207.74 438.33 207.74 441.18 214.38"/>
    <polygon class="cls-7" points="441.18 69.26 444.16 75.9 438.33 75.9 441.18 69.26"/>
    <polygon class="cls-7" points="513.8 141.88 507.16 138.9 507.16 144.74 513.8 141.88"/>
    <polygon class="cls-7" points="368.68 141.88 375.32 138.9 375.32 144.74 368.68 141.88"/>
  </g>
</svg>