<svg xmlns="http://www.w3.org/2000/svg" id="Layer_1" data-name="Layer 1" viewBox="0 0 560 320"><defs><style>.cls-1{fill:#372869}.cls-4{fill-rule:evenodd}.cls-5{fill:#231f20}.cls-6{fill:#0060a8}.cls-7{fill:#bca3ce;stroke:#553f98;stroke-miterlimit:10;stroke-width:.5px}.cls-8{fill:#553f98}</style></defs><path d="M.95.03h559.24v320H.95z" class="cls-1"/><path d="M405.33-.07c-3.45 16.81-8.27 33.52-14.21 49.97q-1.155 3.195-2.37 6.39c-3.15 8.31-6.59 16.53-10.28 24.66a467 467 0 0 1-18.35 36.11c-.67 1.18-1.34 2.37-2.03 3.55-.49.88-1 1.74-1.5 2.61h-.01c-10.64 18.3-22.38 35.76-34.79 52.09-9.13 12.19-19.67 22.5-31.22 31.51-1.78 1.4-3.59 2.76-5.43 4.1-5.84 4.25-11.9 8.2-18.15 11.93-3.79 2.26-7.64 4.44-11.55 6.55-2.32 1.26-4.66 2.49-7.01 3.69-6.03 3.11-12.18 6.07-18.39 8.95-4.05 1.88-8.14 3.73-12.24 5.55-2.14.95-4.28 1.9-6.43 2.85-1.18.51-2.36 1.03-3.55 1.55-1.97.86-3.94 1.72-5.92 2.58-11.89 5.19-23.82 10.37-35.51 15.91-.87.41-1.74.83-2.6 1.24a508 508 0 0 0-11.21 5.55c-4.09 2.1-8.14 4.27-12.13 6.51-5.2 2.92-10.31 5.98-15.3 9.21-1.33.86-2.65 1.73-3.96 2.62-.24.15-.47.31-.7.47-3.92 2.65-7.76 5.44-11.5 8.36q-.9.69-1.77 1.41c-.43.33-.85.68-1.28 1.03-.33.27-.66.54-.98.81-1.63 1.36-3.24 2.75-4.84 4.19-1.21 1.07-2.41 2.17-3.6 3.29-1.6 1.49-3.19 3.03-4.76 4.6l-.07.07H-.19V-.07z" class="cls-8"/><path d="M154.74 123.74c5.19 5.04 12.27 8.16 20.07 8.16h123.33L271.5 52.45c-3.64-8.44-12.17-14.35-22.42-14.35s-18.87 6.1-22.37 14.51l-8.88 25.89-.03-39.06-43.07-.02c-7.79 0-14.78 3.04-19.94 8.06l.02-8.03h-44.1c-8.21 0-15.68 3.5-20.91 9.01v-9.04l-41.56.04c-17.94-.02-32.66 14.01-32.68 32.55 0 8.59 3.75 16.37 9.29 22.14l-9.37-.02v37.77h41.88c11.77-.02 23.43-7.12 27.48-15.63l.12-.35c4.68 9.46 14.45 15.98 25.76 15.98h44.04v-8.16" style="fill:#fff"/><path d="m21.93 125.43 35.31-.04c14.45 0 26.16-11.67 26.16-26.06S71.69 73.25 57.24 73.25l-9.17.05c-.72 0-1.31-.59-1.31-1.32s.59-1.32 1.31-1.32h35.25l.01-11.05H48.06c-6.82 0-12.37 5.54-12.37 12.35s5.55 12.33 12.37 12.33l9.21.12c8.28 0 14.98 6.68 14.98 14.91s-6.7 14.93-14.98 14.93H21.95v11.18Z" class="cls-6"/><path d="M21.95 111.66h35.34c6.84 0 12.37-5.52 12.37-12.34S64.13 87 57.29 87l-9.21-.1c-8.26 0-14.97-6.68-14.97-14.94s6.71-14.92 14.97-14.92h35.27l-.01-11.11H48.09c-14.43 0-26.16 11.66-26.16 26.06s11.72 26.06 26.16 26.06h9.12c.69.01 1.28.58 1.28 1.29s-.59 1.27-1.28 1.27l-35.26.03zm88.83 2.66c-6.13 0-11.15-4.88-11.15-11.12V67.92c0-6 5.02-10.93 11.15-10.93h37.69V45.92h-37.69c-12.27 0-22.2 9.9-22.2 22.12v35.16c0 12.22 9.94 22.14 22.2 22.14l37.54.02v-11.05z" class="cls-6"/><path d="M102.34 68.05c0-4.67 3.76-8.46 8.44-8.46h37.69v11.09h-32.48c-2.6 0-2.64 2.58-2.64 2.58h27.09V84.3h-38.13V68.04Zm8.44 43.59c-4.67 0-8.46-3.77-8.46-8.43V86.94h38.13v11.07h-27.09c.04 2.6 2.64 2.61 2.64 2.61h32.32v11zm64.11 2.65c-6.1 0-11.09-4.98-11.09-11.09V68.04c0-6.12 4.95-11.05 11.07-11.05h36.51V45.92h-36.59c-12.26 0-22.2 9.9-22.2 22.12v35.16c0 12.22 10.02 22.14 22.28 22.14l36.51.02v-52.1h-31.37V84.3h20.29v29.99h-25.39Z" class="cls-6"/><path d="M166.39 103.21c0 4.68 3.79 8.49 8.46 8.49h22.8V86.92h-17.64V98h6.55l.02 2.6h-6.52c-1.42 0-2.59-1.18-2.59-2.6l-.06-24.75s0-2.57 2.62-2.64h31.34V59.57h-36.52c-4.67 0-8.46 3.79-8.46 8.46v35.16m79.28-43.77a3.623 3.623 0 0 1 4.6-2.22 3.62 3.62 0 0 1 2.22 2.22l17.72 52.36h-25.95l.03-12.32h8.67l-3.9-11.6-12.72 37.49h-13.08z" class="cls-6"/><path d="M273.79 114.29h-29.48v11.06h44.86l-23.33-69.03c-2.04-6.73-8.78-11.69-16.76-11.69s-14.71 4.93-16.77 11.66l-23.55 69.06h11.75l22.86-67.13c.96-2.3 3.2-3.79 5.69-3.79 2.48 0 4.73 1.49 5.7 3.77l19.04 56.09Z" class="cls-6"/><path d="M280.71 54.71c2.07 0 4.06-.82 5.53-2.28 1.47-1.48 2.29-3.43 2.29-5.52s-.82-4.02-2.29-5.5a7.8 7.8 0 0 0-5.53-2.27c-4.3 0-7.81 3.48-7.81 7.77 0 2.09.82 4.04 2.3 5.52a7.78 7.78 0 0 0 5.5 2.28m-6.69-7.8c0-1.78.69-3.47 1.96-4.73a6.68 6.68 0 0 1 4.74-1.95c1.8 0 3.49.69 4.76 1.95a6.68 6.68 0 0 1 1.97 4.73c0 3.7-3.02 6.7-6.73 6.7-1.78 0-3.47-.69-4.74-1.96-1.28-1.26-1.96-2.94-1.96-4.74" class="cls-5"/><path d="M278.71 47.57v3.67h-1.13v-8.63h3.21c1.21.01 1.92.01 2.59.52.65.48.92 1.2.92 2 0 2.02-1.64 2.28-2.06 2.37l2.43 3.75h-1.37l-2.37-3.67h-2.23Zm0-.95H281c.37 0 .71 0 1.05-.09.8-.19 1.09-.77 1.09-1.39 0-.23-.02-.81-.52-1.21-.45-.38-1.02-.36-1.69-.36h-2.23v3.05Z" class="cls-5"/><path d="M298.14 34.41H174.81c-7.81-.01-14.88-3.13-20.07-8.17v8.15H110.7c-11.31 0-21.08-6.51-25.76-15.97l-.12.35c-4.06 8.51-15.72 15.61-27.48 15.62H15.46V.03h271.16z" class="cls-1"/><path d="M83.4 1.84c0 14.39-11.71 26.06-26.16 26.06l-35.31.04.02-11.18h35.33c8.28 0 14.98-6.69 14.98-14.94 0-.61-.04-1.2-.11-1.79h11.18c.05.6.07 1.2.07 1.81" class="cls-8"/><path d="m148.31 16.81-37.53.02c-6.13 0-11.15-4.89-11.15-11.12V.03H88.58v5.68c0 12.23 9.93 22.14 22.2 22.14l37.54.02V16.81ZM69.52.03H42.87c1.68.34 3.42.52 5.2.52h9.12c.7.01 1.28.58 1.28 1.29s-.58 1.27-1.28 1.27l-35.26.03.02 11.02h35.33c6.84 0 12.37-5.52 12.37-12.34 0-.61-.04-1.2-.13-1.79" class="cls-8"/><path d="M200.28.03V16.8h-25.39c-6.11 0-11.1-4.98-11.1-11.09V.03h-11.21v5.68c0 12.23 10.02 22.14 22.28 22.14l36.51.02V.03zM116 3.12s-2.6-.01-2.64-2.61h27.09V.03h-38.13v5.68c0 4.66 3.79 8.43 8.46 8.43h37.53V3.12z" class="cls-8"/><path d="M270.21 14.28 265.39.03h-13.08l.65 1.94h-7.84l.66-1.94h-13.06l-9.46 27.83h13.08l7.94-23.42-.02 9.84zM180.02.03v.48h6.55l.02 2.6h-6.52c-1.42 0-2.59-1.18-2.59-2.6V.03h-11.09v5.68c0 4.68 3.79 8.49 8.47 8.49h22.8V.03zm38.23 0h11.73l-9.48 27.83h-11.74l2.61-7.66z" class="cls-8"/><path d="M289.17 27.86h-44.86V16.8h29.48L268.1.03h11.67z" class="cls-8"/><path d="M290.57 206.82c-1.78 1.4-3.59 2.76-5.43 4.1-5.84 4.25-11.9 8.2-18.15 11.93-3.79 2.26-7.64 4.44-11.55 6.55h-80.63c-7.81 0-14.88-3.13-20.07-8.17v8.15H110.7c-11.31.01-21.08-6.51-25.76-15.97l-.12.35c-4.06 8.51-15.72 15.61-27.48 15.62H15.46v-37.76h9.37c-5.53-5.76-9.28-13.54-9.28-22.13.02-18.54 14.74-32.57 32.68-32.55l41.56-.04v9.04c5.23-5.5 12.7-9 20.91-9h44.1v8.03c5.14-5.03 12.14-8.07 19.92-8.07l43.07.02.04 39.06 8.88-25.88c3.5-8.41 12.16-14.51 22.37-14.51s18.79 5.91 22.43 14.35z" class="cls-1"/><path d="m21.93 222.93 35.31-.04c14.45 0 26.16-11.67 26.16-26.06s-11.71-26.08-26.16-26.08l-9.17.05c-.72 0-1.31-.59-1.31-1.32s.59-1.32 1.31-1.32h35.25l.01-11.05H48.06c-6.82 0-12.37 5.54-12.37 12.35s5.55 12.33 12.37 12.33l9.21.12c8.28 0 14.98 6.68 14.98 14.91s-6.7 14.93-14.98 14.93H21.95v11.18Z" class="cls-8"/><path d="M110.78 154.49h37.69v-11.07h-37.69c-12.27 0-22.2 9.9-22.2 22.13v35.15c0 12.23 9.93 22.14 22.2 22.14l37.54.02v-11.05l-37.54.01c-6.13 0-11.15-4.88-11.15-11.12v-35.28c0-5.99 5.02-10.93 11.15-10.93m-53.5 30-9.21-.1c-8.27 0-14.97-6.68-14.97-14.94s6.7-14.92 14.97-14.92h35.27l-.02-11.11H48.07c-14.43 0-26.15 11.66-26.15 26.06s11.72 26.06 26.15 26.06l9.12.02c.7 0 1.28.56 1.28 1.28s-.58 1.26-1.28 1.26l-35.26.03.02 11.02h35.33c6.84 0 12.37-5.52 12.37-12.34s-5.53-12.32-12.37-12.32" class="cls-8"/><path d="M174.86 154.49h36.51v-11.07h-36.6c-12.26 0-22.19 9.9-22.19 22.13v35.15c0 12.23 10.02 22.14 22.28 22.14l36.51.02v-52.1h-31.38v11.04h20.29v29.99h-25.39c-6.11 0-11.1-4.98-11.1-11.09v-35.15c0-6.12 4.96-11.06 11.07-11.06M116 198.11s-2.6-.01-2.64-2.61h27.09v-11.07h-38.13v16.27c0 4.66 3.79 8.43 8.46 8.43h37.53v-11.02zm0-29.93h32.47v-11.1h-37.69c-4.68 0-8.44 3.79-8.44 8.47l-.02 16.25h38.13v-11.04h-27.09s.04-2.58 2.64-2.58" class="cls-8"/><path d="m270.21 209.27-17.72-52.35a3.63 3.63 0 0 0-2.21-2.22c-1.89-.66-3.95.34-4.61 2.22l-22.41 65.93h13.08l7.94-23.42-.02 9.84zm-21.15-23.92 3.9 11.61h-7.84zm-69.04 10.15h6.55l.02 2.6h-6.52c-1.42 0-2.59-1.18-2.59-2.6l-.06-24.75s0-2.57 2.62-2.64h31.34l-.02-11.03h-36.5c-4.68 0-8.47 3.79-8.47 8.47v35.15c0 4.69 3.79 8.5 8.47 8.5h22.8v-24.78h-17.64z" class="cls-8"/><path d="M285.14 210.92c-5.84 4.25-11.9 8.2-18.15 11.93h-22.68v-11.06h29.48l-19.04-56.09c-.97-2.28-3.21-3.77-5.7-3.77s-4.73 1.49-5.69 3.79l-22.86 67.13h-11.74l2.61-7.66 20.93-61.4c2.06-6.73 8.78-11.66 16.77-11.66s14.72 4.95 16.77 11.69z" class="cls-8"/><path d="M286.24 138.91a7.84 7.84 0 0 0-5.53-2.27c-4.29 0-7.8 3.48-7.8 7.77 0 2.09.81 4.04 2.3 5.52 1.46 1.46 3.44 2.28 5.5 2.28s4.06-.82 5.53-2.28c1.47-1.48 2.29-3.43 2.29-5.52s-.82-4.02-2.29-5.5m-5.53 12.2c-1.78 0-3.46-.7-4.74-1.96-1.28-1.27-1.96-2.95-1.96-4.74s.69-3.47 1.96-4.73a6.66 6.66 0 0 1 4.74-1.95c1.81 0 3.49.68 4.76 1.95a6.66 6.66 0 0 1 1.97 4.73c0 3.69-3.02 6.7-6.73 6.7" class="cls-5"/><path d="M282.24 144.99c.42-.08 2.06-.34 2.06-2.36 0-.8-.27-1.52-.92-2-.67-.51-1.38-.51-2.59-.52h-3.21v8.63h1.13v-3.67h2.23l2.37 3.67h1.36zm-1.23-.87h-2.3v-3.06h2.23c.67 0 1.24-.01 1.69.37.49.4.51.98.51 1.21 0 .62-.28 1.2-1.08 1.39-.34.09-.69.09-1.05.09" class="cls-5"/><path d="M217.8 247.59c-2.14.95-4.28 1.9-6.43 2.85v1.55h-3.55c-1.97.86-3.94 1.72-5.92 2.58-11.89 5.19-23.82 10.37-35.51 15.91-.87.41-1.74.83-2.6 1.24a508 508 0 0 0-11.21 5.55c-4.09 2.1-8.14 4.27-12.13 6.51-5.2 2.92-10.31 5.98-15.3 9.21-1.33.86-2.65 1.73-3.96 2.62-.24.15-.47.31-.7.47-3.92 2.65-7.76 5.44-11.5 8.36q-.9.69-1.77 1.41c-.43.33-.85.68-1.28 1.03-.33.27-.66.54-.98.81-1.63 1.36-3.24 2.75-4.84 4.19-1.21 1.07-2.41 2.17-3.6 3.29-1.6 1.49-3.19 3.03-4.76 4.6a28.6 28.6 0 0 1-6.82-8.86l-.12.35c-1.5 3.15-4.05 6.11-7.26 8.58l-.25.19H61.56c-1.4.24-2.85.36-4.32.36l-35.31.03v-.39h-6.47v-30.92l9.37.02c-5.53-5.77-9.28-13.56-9.28-22.14.02-18.55 14.74-32.57 32.68-32.56l41.56-.03v9.04c5.23-5.5 12.7-9.01 20.91-9.01h44.1v8.03c5.14-5.02 12.14-8.06 19.92-8.06l43.07.02v13.17Zm30.63-14.5c-6.03 3.11-12.18 6.07-18.39 8.95 4.25-5.26 10.87-8.76 18.39-8.95" class="cls-1"/><path d="M83.4 294.33c0 12.91-9.44 23.65-21.84 25.7-1.4.24-2.85.36-4.32.36l-35.31.03v-.39l.02-10.79h35.33c8.28 0 14.98-6.69 14.98-14.93s-6.7-14.91-14.98-14.91l-9.21-.12c-6.82 0-12.37-5.52-12.37-12.33s5.55-12.35 12.37-12.35h35.27l-.02 11.06H48.07c-.72-.01-1.31.58-1.31 1.31s.59 1.33 1.31 1.33l9.17-.05c14.45 0 26.16 11.67 26.16 26.08" class="cls-8"/><path d="m57.28 281.99-9.21-.1c-8.27 0-14.97-6.69-14.97-14.95s6.7-14.91 14.97-14.91h35.27l-.02-11.11H48.07c-14.43 0-26.15 11.66-26.15 26.05s11.72 26.07 26.15 26.07h9.12c.7.01 1.28.58 1.28 1.29s-.58 1.27-1.28 1.27l-35.26.02.02 11.03h35.33c6.84 0 12.37-5.52 12.37-12.34s-5.53-12.32-12.37-12.32m53.5-41.07c-12.27 0-22.2 9.9-22.2 22.12v35.16c0 6.81 3.09 12.9 7.94 16.97 1.19-1.12 2.39-2.22 3.6-3.29 1.6-1.44 3.21-2.83 4.84-4.19a11.03 11.03 0 0 1-5.33-9.49v-35.28c0-6 5.02-10.93 11.15-10.93h37.69v-11.07z" class="cls-8"/><path d="M116 265.67h32.47v-11.09h-37.69c-4.68 0-8.44 3.79-8.44 8.46l-.02 16.26h38.13v-11.05h-27.09s.04-2.58 2.64-2.58m-13.68 16.26v16.27c0 3.39 2.01 6.31 4.9 7.65q.87-.72 1.77-1.41c3.74-2.92 7.58-5.71 11.5-8.36.23-.16.46-.32.7-.47H116s-2.6-.01-2.64-2.62h11.79c4.99-3.23 10.1-6.29 15.3-9.21v-1.85zm72.45-41.01c-12.26 0-22.19 9.9-22.19 22.12v14.23a508 508 0 0 1 11.21-5.55v-8.68c0-6.12 4.96-11.05 11.07-11.05h36.51v-11.07z" class="cls-8"/><path d="M174.86 254.58c-4.68 0-8.47 3.79-8.47 8.46v7.44c11.69-5.54 23.62-10.72 35.51-15.91h-27.04Z" class="cls-8"/><path d="m260.05 199.96 17.47-10.12v-21.4l-16.74-9.68h-68.43l-12.3.03h-52.63l-12.38-.03H47.7l-16.67 9.61v21.48l17.54 10.12h211.47Z" class="cls-4"/><path d="m34.67 188.53 14.7 8.52h209.8l14.71-8.52v-18.78l-13.9-8.08h-69.09l-15.22.03h-49.58l-9.53-.03H48.5l-13.83 8.01z" style="fill:#fff;fill-rule:evenodd"/><path d="M189.65 176.96h21.4v8.52l-7.64 5.17h-23.62l7.83-5.24h13.83v-3.2h-21.4v-8.34l7.9-5.35h23.59l-7.79 5.24h-14.09v3.2Zm24.39-8.45h9.61v22.13h-9.61zm22.93 8.45h21.4v8.52l-7.65 5.17H227.1l7.83-5.24h13.83v-3.2h-21.4v-8.34l7.9-5.35h23.59l-7.79 5.24h-14.09z" class="cls-4"/><path d="M159.22 185.4v-3.2h9.21l7.83-5.24h-17.03v-3.2h13.87l7.79-5.24H158l-8.37 5.13v17h23.3l7.86-5.24h-21.55Zm-67.26 0v-3.2h9.21l7.82-5.24H91.96v-3.2h13.87l7.79-5.24H90.73l-8.37 5.13v17h23.29l7.86-5.24H91.96Zm45.35-2.11-11.94-7.43v14.78h-9.61v-22.13h9.75l11.79 6.48v-6.48h9.61v22.13h-9.61v-7.35Zm-78.98-9.54v11.65h11.94v-3.2h-9.75l7.79-5.24h11.58v8.74l-7.35 4.95h-23.8v-16.74l7.97-5.39h26.06l-7.75 5.24H58.35Z" class="cls-4"/><path d="M523.57 25.85c7.89-1.09 20.75-2.27 36.62-2.67v204.47c-2 .13-4.03.28-6.11.45-1.08.1-2.17.14-3.26.15-28.74 2.7-46.47 11.39-60.73 22.05-19.91 14.87-11.9 40.5-46.45 49.42s-69.33-38.44-69.33-38.44-42.78-49.65-37.06-112.8S396.5 61.99 460.34 39.8c20.6-7.16 42.39-11.49 63.23-13.95Z" class="cls-7"/><path d="M518.49 141.82c0 6.42-.78 12.65-2.27 18.61-7.16 28.96-30.66 51.47-60.14 57.2-4.8.94-9.76 1.43-14.84 1.43-6 0-11.86-.68-17.47-1.99-28.92-6.69-51.63-29.63-57.99-58.68a77.3 77.3 0 0 1-1.79-16.57c0-5.39.55-10.66 1.61-15.75 6.25-30.18 30.09-53.91 60.33-59.99a78 78 0 0 1 15.3-1.52c5.85 0 11.54.65 17.01 1.88 30.1 6.76 53.56 31.1 59.02 61.67.8 4.45 1.22 9.03 1.22 13.7Z" class="cls-7"/><path d="M502.42 141.82c0 5.08-.62 10.02-1.8 14.74-5.67 22.94-24.28 40.76-47.63 45.3-3.81.74-7.73 1.13-11.75 1.13-4.75 0-9.39-.54-13.84-1.57-22.9-5.3-40.89-23.46-45.92-46.47-.93-4.23-1.42-8.62-1.42-13.12 0-4.27.44-8.45 1.28-12.47 4.95-23.9 23.83-42.69 47.78-47.51 3.92-.78 7.97-1.2 12.12-1.2 4.63 0 9.14.51 13.47 1.49 23.83 5.35 42.42 24.63 46.74 48.84.64 3.52.96 7.15.96 10.85Z" class="cls-7"/><path d="M485.54 141.82c0 3.68-.45 7.26-1.3 10.67-4.11 16.61-17.58 29.52-34.49 32.81-2.76.54-5.6.82-8.51.82-3.44 0-6.8-.39-10.02-1.14-16.59-3.84-29.61-16.99-33.25-33.65-.67-3.06-1.02-6.24-1.02-9.5 0-3.09.32-6.12.92-9.03 3.58-17.31 17.26-30.92 34.6-34.4 2.84-.57 5.77-.87 8.78-.87 3.35 0 6.62.37 9.76 1.08 17.26 3.88 30.72 17.83 33.85 35.37.46 2.55.7 5.18.7 7.86Z" class="cls-7"/><path d="M485.54 141.82c0 3.68-.45 7.26-1.3 10.67l-24.87-.27a9.184 9.184 0 0 0-9.35 9.02l-.27 24.05c-2.76.54-5.6.82-8.51.82-3.44 0-6.8-.39-10.02-1.14l.28-24.06c.09-5.07-3.95-9.26-9.02-9.35l-24.51-.25c-.67-3.06-1.02-6.24-1.02-9.5 0-3.09.32-6.12.92-9.03l24.93.25c5.08.09 9.26-3.95 9.35-9.02l.31-25.63c2.84-.57 5.77-.87 8.78-.87 3.35 0 6.62.37 9.76 1.08l-.32 25.75c-.09 5.07 3.95 9.26 9.02 9.35l25.14.27c.46 2.55.7 5.18.7 7.86Zm69.7-52.45 4.95-8.1v24.95h-34.77l-5.53-3.47v-9.38l6.06-4z" class="cls-7"/><path d="M534.14 102.92c-3.48 0-5.78-.67-7.13-1.36V94.3c1.36-.68 3.65-1.36 7.13-1.36 3.85 0 5.59.65 6.62 1.03V95h-8.69v5.82h4.06v-2.18h-2.23v-1.51h6.86v4.73c-1.03.38-2.77 1.03-6.62 1.03Zm16.37 0c-3.18 0-5.7-.7-6.89-1.36V94.3c1.36-.68 3.65-1.36 7.13-1.36 3.85 0 5.59.65 6.62 1.03V95h-8.69v1.96h8.69v1.83h-8.69v2.04h8.69v1.02c-1.26.45-2.93 1.05-6.86 1.05Zm9.68-8.63v8.08c-.2-.1-.3-.17-.3-.17v-7.74s.1-.07.3-.17Z" class="cls-7"/><circle cx="441.24" cy="141.82" r="7.93" class="cls-7"/><path d="m441.18 214.38 2.98-6.64h-5.83zm0-145.12 2.98 6.64h-5.83zm72.62 72.62-6.64-2.98v5.84zm-145.12 0 6.64-2.98v5.84z" class="cls-7"/></svg>