<svg xmlns="http://www.w3.org/2000/svg" id="Layer_1" data-name="Layer 1" viewBox="0 0 560 320"><defs><style>.cls-2{fill:#372869}.cls-3{fill:#bca3ce;stroke:#553f98;stroke-linejoin:round;stroke-width:.5px}.cls-2,.cls-4{fill-rule:evenodd}</style></defs><path d="M.95.03h559.24v320H.95z" style="fill:#372869"/><path d="M405.33-.07c-3.45 16.81-8.27 33.52-14.21 49.97-.77 2.14-1.56 4.27-2.37 6.4-3.15 8.3-6.59 16.52-10.28 24.65-5.58 12.3-11.73 24.36-18.35 36.11-.67 1.19-1.34 2.38-2.03 3.56-.49.88-1 1.74-1.5 2.61h-.01c-10.64 18.29-22.38 35.76-34.79 52.08-48.21 64.41-136.13 76.41-201.3 120.78-3.92 2.65-7.76 5.43-11.5 8.35-1.03.8-2.04 1.61-3.05 2.44-1.97 1.61-3.9 3.27-5.82 5-2.85 2.53-5.66 5.19-8.43 7.96H-.19V-.07z" style="fill:#553f98"/><path d="M560.19 148.42v112.07c-2.1 3.87-4.46 7.51-7.07 10.85-15.45 19.57-29.82 25.63-42.61 26.83-13.81 1.29-25.77-3.09-35.26-2.32-14.51.85-23.07 4.61-31.22 3.97-11.07-.87-21.36-9.85-44.74-45.28-2.02-2.9-3.79-6.82-5.22-11.5-2.22-7.23-3.64-16.29-3.96-26.28-.72-22.44 4.1-49.62 17.91-71.43 1.88-2.98 3.93-5.85 6.16-8.6 15.11-18.07 19.02-30.64 20.19-47.65.84-19.34-13.63-76.92 40.88-81.25 55.26-4.44 52.2 50.08 51.88 78.93-.21 24.3 17.86 38.14 30.32 57.16.06.1.13.2.19.3q1.335 2.04 2.55 4.2Z" class="cls-3"/><path d="M560.19 147.85v102.13c-.38.4-.76.79-1.15 1.18-7.76 7.75-18.72 3.2-25.15-4.09-5.55-6.31-7.7-14.67-1.37-18.84.49-.34.97-.68 1.44-1.03 2.79-2.05 5.24-4.17 7.38-6.36 1.37-1.38 2.62-2.8 3.74-4.24 3.02-3.85 5.19-7.83 6.63-11.87 9.1-25.39-9.94-52.95-21.73-62.51-19.86-15.53-5.81-36.97 10.04-19.54 4.46 5.02 11.05 12.44 17.62 21.54.85 1.18 1.71 2.39 2.55 3.63Zm-98.46-78c.53 9.4-3.91 17.33-10.04 17.64-6.13.32-11.52-6.97-12.05-16.38-.53-9.4 3.91-17.33 10.04-17.64 6.13-.32 11.52 6.97 12.04 16.38Zm11.09.74c.21 10.88 7.29 19.55 15.74 19.34s15.11-9.19 14.9-20.18c-.21-10.88-7.29-19.55-15.74-19.33-8.45.21-15.21 9.3-14.9 20.18Z" class="cls-3"/><path d="M455.39 73.13c-.53-4.97-3.17-8.67-5.92-8.35-2.74.42-4.65 4.65-4.12 9.61.46 4.27 2.46 7.6 4.77 8.25.37.11.76.15 1.15.1 1.69-.26 3.06-1.96 3.75-4.39.42-1.51.57-3.31.37-5.22Zm31.59-10.89c-3.91 0-7.08 4.86-7.18 10.78-.03 1.64.17 3.2.56 4.59 1.02 3.72 3.36 6.29 6.2 6.29 1.27 0 2.49-.55 3.55-1.5 2.09-1.88 3.56-5.34 3.63-9.27.11-6.03-2.85-10.89-6.76-10.89Z" class="cls-3"/><path d="M481.38 69.63c-.32 3.38 1.27 6.13 3.49 6.34s4.33-2.43 4.65-5.71c.32-3.38-1.27-6.13-3.49-6.34s-4.33 2.43-4.65 5.71Zm-28.31.85c.32 2.75-.84 5.18-2.53 5.39s-3.28-1.9-3.59-4.75c-.32-2.75.85-5.18 2.54-5.39s3.28 2.01 3.59 4.75Zm-33.29 103.75c7.5-17.01 23.46-46.91 23.77-70.05 0-18.38 55.05-22.82 59.49-4.44s15.64 45.85 22.82 59.17c7.19 13.21 28 55.36 5.81 92.13-19.97 32.54-80.51 58.32-112.84-4.44-10.99-21.77-8.98-48.71.95-72.37Z" class="cls-3"/><path d="M418.52 147.82c-10.25 16.69-34.76 56-1.9 76.5 44.16 27.15 31.7 54.2-8.66 29.79-56.84-34.02-6.87-102.7 15.85-128.9 25.99-29.37 4.97 5.39-5.28 22.61Z" class="cls-3"/><path d="M397.7 304.09c-23.67-12.57-58.01 2.43-45.54-31.59 2.54-7.71-3.7-19.34.32-26.84 4.76-9.19 15-7.18 21.13-13.31 6.02-6.34 9.83-17.33 21.13-15.64 11.2 1.69 18.7 15.42 26.52 32.33 5.81 12.04 26.31 29.06 24.94 42.58-1.69 20.71-25.25 24.62-48.5 12.47Zm162.49-80.38v76.4c-16.42 17.96-39.38 19.76-48.38 1.55-.58-1.08-1.01-2.25-1.3-3.49-1.96-7.99 1.41-18.76 4.31-28.63 1.66-5.62 3.16-10.96 3.44-15.32.95-18.38 2-32.33 11.83-37.72.54-.29 1.08-.54 1.61-.75 3.46-1.41 6.74-1.3 9.91-.41 1.17.33 2.33.76 3.47 1.26 3.92 1.73 7.67 4.25 11.32 6.03 1.25.56 2.51.89 3.79 1.08Z" class="cls-3"/><path d="M560.19 208.67v22.39c-5.22 3.48-11.95 6.07-17.1 4.67-1.48-.37-2.82-1.03-4.02-1.93-2.17-1.59-3.88-3.91-5.11-6.6-1.59-3.48-2.37-7.56-2.26-11.45.02-1.34.16-2.64.4-3.9.86-5.79 4.09-8.57 8.77-9.02 3.07-.3 6.77.4 10.84 1.9 1.05.38 2.12.82 3.21 1.31 1.97.89 3.73 1.77 5.27 2.63ZM449.79 82.95c4.23-3.91 14.47-15.85 33.92-3.38 3.59 2.32 6.55 2.54 13.42 5.49 13.84 5.71 7.29 19.44-7.5 24.09-6.34 2.01-12.04 9.72-23.46 8.98-9.83-.53-12.36-6.97-18.38-10.46-10.67-6.02-12.26-14.16-6.45-18.49s8.03-5.92 8.45-6.23Z" class="cls-3"/><path d="M497.34 94.04c-5.81.32-18.39 12.89-31.59 12.89s-21.13-12.26-23.14-12.26" class="cls-3"/><path d="M58.48 107.51H17.27v-1.46c7.22-.73 7.88-1.37 7.88-7.66V55.9c0-6.29-.73-7.02-7.95-7.66v-1.46h23.71v1.46c-7.88.64-8.68 1.37-8.68 7.66v42.94c0 5.93.95 6.93 6.86 6.93 10.94 0 17.14-7.66 18.16-22.61h1.24v24.34Z" class="cls-4"/><path d="M77.98 55.27c-2.41 0-4.38-2.46-4.38-5.47s1.97-5.47 4.38-5.47 4.38 2.46 4.38 5.47-1.97 5.47-4.38 5.47m5.91 36.2c-2.77 10.39-7.44 16.69-12.25 16.69-4.08 0-6.78-3.74-6.78-9.57 0-2.37.44-4.92 1.46-8.75l3.65-14.13c.07-.27.36-1.19.8-2.92.44-1.55.66-2.64.66-3.37 0-1.82-.88-3.01-2.19-3.01-3.36 0-6.42 4.65-10.06 15.32l-1.24-.64c2.04-6.75 4.38-11.49 7-14.41 1.46-1.55 3.06-2.28 4.89-2.28 4.16 0 7.08 3.92 7.08 9.39 0 2.46-.88 7.2-2.12 11.67l-1.82 6.47-1.39 5.38-.73 2.55c-.29 1.19-.51 2.46-.51 3.28 0 1.82.88 3.01 2.12 3.01 3.43 0 7.22-5.56 10.21-15.14l1.24.46Z" style="fill-rule:evenodd;fill:#cc2229"/><path d="M107.04 63.75c3.21 0 6.42 1.55 8.17 4.01 1.82 2.64 2.12 4.29 2.12 12.22v19.06c0 5.38 1.09 6.38 7 7.02v1.46h-20.79v-1.46c5.98-.64 7-1.64 7-6.93V80.44c0-11.85-.66-13.58-5.18-13.58-4.16 0-8.1 3.46-9.92 8.75-1.75 5.01-2.19 8.57-2.19 17.41v6.11c0 5.29 1.02 6.29 7 6.93v1.46H79.46v-1.46c5.98-.64 7-1.64 7-6.93V73.42c0-4.74-.22-5.47-1.97-6.2-1.02-.46-2.04-.55-5.25-.82v-1.55c4.23-.09 10.36-.55 14-1.09v13.4c2.33-8.48 7.44-13.4 13.79-13.4Zm35.14 1.09c4.81-.09 10.57-.55 14.08-1.09v35.28c0 5.38 1.02 6.38 7 7.02v1.46h-1.02l-6.35.37c-1.73.05-3.46.17-5.18.36-.29 0-.73.09-1.31.18V95.38c-1.53 4.38-2.26 5.74-4.01 8.11-2.48 3.37-6.05 5.2-9.7 5.2-3.21 0-6.13-1.55-7.66-4.19-1.75-2.83-2.26-5.93-2.26-12.13V73.41c0-4.74-.29-5.47-2.04-6.2-1.09-.37-2.55-.64-5.47-.82v-1.55c4.38-.09 11.09-.55 14.3-1.09v30.73c0 7.93 1.6 11.58 5.18 11.58 4.08 0 8.39-4.83 10.28-11.67 1.02-3.46 1.39-6.93 1.39-12.22v-8.75c0-4.74-.22-5.47-1.97-6.2-.95-.37-2.41-.64-5.25-.82v-1.55Z" class="cls-4"/><path d="M196.27 99.85c2.92 5.11 3.87 5.84 8.02 6.2v1.46h-19.91v-1.46c4.23-.46 5.4-1 5.4-2.64 0-.46-.37-1.37-.8-2.19l-1.24-2.28-6.42-11.03-4.81 8.3c-1.82 3.28-2.7 5.29-2.7 6.56 0 2.1 1.24 2.83 5.62 3.28v1.46h-16.7v-1.46c4.38-.64 6.13-1.82 9.33-6.38 1.75-2.55 1.97-2.92 4.96-8.02l3.21-5.65-7.66-13.4c-2.7-4.74-3.79-5.56-8.24-6.11v-1.46h19.47v1.46c-3.57.37-4.89 1-4.89 2.37 0 .37.22 1 .58 1.73l1.1 2.01 5.47 9.48 4.3-7.29c1.24-2.19 1.9-3.92 1.9-5.2 0-1.82-1.31-2.55-5.32-3.1v-1.46h15.68v1.46c-4.6.73-6.56 2.28-9.41 7.11l-1.97 3.28-4.08 7.02 9.12 15.95Z" class="cls-4"/><path d="M58.48 14.23v24.34H17.27v-1.46c7.22-.72 7.87-1.36 7.87-7.65V-.07h7.08v29.98c0 5.93.95 6.93 6.85 6.93 10.94 0 17.14-7.66 18.17-22.61zm4.75-14.3c-1.95 2.91-3.72 6.95-5.31 12.2l1.24.64C61.3 6.51 63.24 2.32 65.15-.07zm19.42 22.14c-2.99 9.57-6.79 15.14-10.21 15.14-1.24 0-2.12-1.19-2.12-3.01 0-.82.22-2.1.51-3.29l.73-2.55 1.39-5.38 1.82-6.47c1.24-4.47 2.12-9.21 2.12-11.67 0-1.85-.33-3.51-.94-4.91h-4.57c.02.17.03.35.03.53 0 .73-.21 1.83-.65 3.38-.44 1.73-.73 2.64-.8 2.91l-3.65 14.14c-1.02 3.83-1.46 6.38-1.46 8.75 0 5.83 2.7 9.57 6.78 9.57 4.82 0 9.48-6.29 12.26-16.68z" class="cls-2"/><path d="M162.95 37.08h-.03c-5.69-.64-6.67-1.71-6.67-6.99V-.07h-7.16c.25.87.31 2.22.31 4.55v8.75c0 5.29-.37 8.75-1.39 12.21-1.89 6.84-6.2 11.68-10.28 11.68-3.58 0-5.18-3.65-5.18-11.58V-.07h-7.13c.28.87.35 2.22.35 4.55v18.96c0 6.2.51 9.3 2.26 12.13 1.53 2.64 4.45 4.19 7.65 4.19 3.65 0 7.23-1.83 9.71-5.2 1.75-2.37 2.48-3.74 4.01-8.11v13.04c.58-.1 1.02-.19 1.31-.19 1.72-.19 3.45-.31 5.18-.36l6.35-.37h1.02v-1.46zm-45.62-6.99V11.04c0-6.78-.21-8.96-1.42-11.11h-6.4c.85 1.84 1.03 5.28 1.03 11.57v18.68c0 5.29-1.02 6.3-7 6.94v1.45h20.79v-1.45c-5.91-.64-7-1.65-7-7.03m-24.07.09v-6.1c0-8.85.44-12.4 2.19-17.42.99-2.87 2.59-5.19 4.52-6.73h-2.76c-1.69 2.15-3.04 4.94-3.95 8.28V-.07h-7.09c.25.87.31 2.22.31 4.55v25.7c0 5.29-1.03 6.3-7.01 6.93v1.46h20.79v-1.46c-5.98-.63-7-1.64-7-6.93" class="cls-2"/><path d="M204.29 37.11v1.46h-19.91v-1.46c4.23-.45 5.4-1 5.4-2.64 0-.46-.37-1.37-.81-2.19L187.73 30l-6.41-11.03-4.82 8.3c-1.82 3.28-2.7 5.29-2.7 6.56 0 2.1 1.24 2.83 5.62 3.28v1.46h-16.7v-1.46l.2-.03h.03c4.2-.64 5.95-1.87 9.1-6.35 1.75-2.55 1.97-2.92 4.96-8.02l3.21-5.65-7.66-13.4c-.96-1.69-1.71-2.88-2.49-3.73h8.84c0 .36.22 1 .58 1.72l1.1 2.01 5.47 9.48 4.3-7.3c1.24-2.18 1.9-3.92 1.9-5.19q0-.39-.09-.72h4.65c-1.24 1.06-2.34 2.56-3.61 4.73l-1.97 3.28-4.09 7.02 9.12 15.95c2.92 5.11 3.86 5.84 8.02 6.2M58.48 176.45H17.27v-1.46c7.22-.73 7.88-1.37 7.88-7.66v-42.49c0-6.29-.73-7.02-7.95-7.66v-1.46h23.71v1.46c-7.88.64-8.68 1.37-8.68 7.66v42.94c0 5.93.95 6.93 6.86 6.93 10.94 0 17.14-7.66 18.16-22.61h1.24v24.34Zm19.5-52.24c-2.41 0-4.38-2.46-4.38-5.47s1.97-5.47 4.38-5.47 4.38 2.46 4.38 5.47-1.97 5.47-4.38 5.47m5.91 36.2c-2.77 10.39-7.44 16.69-12.25 16.69-4.08 0-6.78-3.74-6.78-9.57 0-2.37.44-4.92 1.46-8.75l3.65-14.13c.07-.27.36-1.19.8-2.92.44-1.55.66-2.64.66-3.37 0-1.82-.88-3.01-2.19-3.01-3.36 0-6.42 4.65-10.06 15.32l-1.24-.64c2.04-6.75 4.38-11.49 7-14.41 1.46-1.55 3.06-2.28 4.89-2.28 4.16 0 7.08 3.92 7.08 9.39 0 2.46-.88 7.2-2.12 11.67l-1.82 6.47-1.39 5.38-.73 2.55c-.29 1.19-.51 2.46-.51 3.28 0 1.82.88 3.01 2.12 3.01 3.43 0 7.22-5.56 10.21-15.14l1.24.46Z" class="cls-2"/><path d="M107.04 132.69c3.21 0 6.42 1.55 8.17 4.01 1.82 2.64 2.12 4.29 2.12 12.22v19.06c0 5.38 1.09 6.38 7 7.02v1.46h-20.79V175c5.98-.64 7-1.64 7-6.93v-18.69c0-11.85-.66-13.58-5.18-13.58-4.16 0-8.1 3.46-9.92 8.75-1.75 5.01-2.19 8.57-2.19 17.41v6.11c0 5.29 1.02 6.29 7 6.93v1.46H79.46V175c5.98-.64 7-1.64 7-6.93v-25.71c0-4.74-.22-5.47-1.97-6.2-1.02-.46-2.04-.55-5.25-.82v-1.55c4.23-.09 10.36-.55 14-1.09v13.4c2.33-8.48 7.44-13.4 13.79-13.4Zm35.14 1.09c4.81-.09 10.57-.55 14.08-1.09v35.28c0 5.38 1.02 6.38 7 7.02v1.46h-1.02l-6.35.37c-1.73.05-3.46.17-5.18.36-.29 0-.73.09-1.31.18v-13.04c-1.53 4.38-2.26 5.74-4.01 8.11-2.48 3.37-6.05 5.2-9.7 5.2-3.21 0-6.13-1.55-7.66-4.19-1.75-2.83-2.26-5.93-2.26-12.13v-18.96c0-4.74-.29-5.47-2.04-6.2-1.09-.37-2.55-.64-5.47-.82v-1.55c4.38-.09 11.09-.55 14.3-1.09v30.73c0 7.93 1.6 11.58 5.18 11.58 4.08 0 8.39-4.83 10.28-11.67 1.02-3.46 1.39-6.93 1.39-12.22v-8.75c0-4.74-.22-5.47-1.97-6.2-.95-.37-2.41-.64-5.25-.82v-1.55Z" class="cls-2"/><path d="M196.27 168.79c2.92 5.11 3.87 5.84 8.02 6.2v1.46h-19.91v-1.46c4.23-.46 5.4-1 5.4-2.64 0-.46-.37-1.37-.8-2.19l-1.24-2.28-6.42-11.03-4.81 8.3c-1.82 3.28-2.7 5.29-2.7 6.56 0 2.1 1.24 2.83 5.62 3.28v1.46h-16.7v-1.46c4.38-.64 6.13-1.82 9.33-6.38 1.75-2.55 1.97-2.92 4.96-8.02l3.21-5.65-7.66-13.4c-2.7-4.74-3.79-5.56-8.24-6.11v-1.46h19.47v1.46c-3.57.37-4.89 1-4.89 2.37 0 .37.22 1 .58 1.73l1.1 2.01 5.47 9.48 4.3-7.29c1.24-2.19 1.9-3.92 1.9-5.2 0-1.82-1.31-2.55-5.32-3.1v-1.46h15.68v1.46c-4.6.73-6.56 2.28-9.41 7.11l-1.97 3.28-4.08 7.02 9.12 15.95Zm-137.79 76.6H17.27v-1.46c7.22-.73 7.88-1.37 7.88-7.66v-42.49c0-6.29-.73-7.02-7.95-7.66v-1.46h23.71v1.46c-7.88.64-8.68 1.37-8.68 7.66v42.94c0 5.93.95 6.93 6.86 6.93 10.94 0 17.14-7.66 18.16-22.61h1.24v24.34Zm19.5-52.24c-2.41 0-4.38-2.46-4.38-5.47s1.97-5.47 4.38-5.47 4.38 2.46 4.38 5.47-1.97 5.47-4.38 5.47m5.91 36.2c-2.77 10.39-7.44 16.69-12.25 16.69-4.08 0-6.78-3.74-6.78-9.57 0-2.37.44-4.92 1.46-8.75l3.65-14.13c.07-.27.36-1.19.8-2.92.44-1.55.66-2.64.66-3.37 0-1.82-.88-3.01-2.19-3.01-3.36 0-6.42 4.65-10.06 15.32l-1.24-.64c2.04-6.75 4.38-11.49 7-14.41 1.46-1.55 3.06-2.28 4.89-2.28 4.16 0 7.08 3.92 7.08 9.39 0 2.46-.88 7.2-2.12 11.67l-1.82 6.47-1.39 5.38-.73 2.55c-.29 1.19-.51 2.46-.51 3.28 0 1.82.88 3.01 2.12 3.01 3.43 0 7.22-5.56 10.21-15.14l1.24.46Z" class="cls-2"/><path d="M107.04 201.63c3.21 0 6.42 1.55 8.17 4.01 1.82 2.64 2.12 4.29 2.12 12.22v19.06c0 5.38 1.09 6.38 7 7.02v1.46h-20.79v-1.46c5.98-.64 7-1.64 7-6.93v-18.69c0-11.85-.66-13.58-5.18-13.58-4.16 0-8.1 3.46-9.92 8.75-1.75 5.01-2.19 8.57-2.19 17.41v6.11c0 5.29 1.02 6.29 7 6.93v1.46H79.46v-1.46c5.98-.64 7-1.64 7-6.93V211.3c0-4.74-.22-5.47-1.97-6.2-1.02-.46-2.04-.55-5.25-.82v-1.55c4.23-.09 10.36-.55 14-1.09v13.4c2.33-8.48 7.44-13.4 13.79-13.4Zm35.14 1.1c4.81-.09 10.57-.55 14.08-1.09v35.28c0 5.38 1.02 6.38 7 7.02v1.46h-1.02l-6.35.37c-1.73.05-3.46.17-5.18.36-.29 0-.73.09-1.31.18v-13.04c-1.53 4.38-2.26 5.74-4.01 8.11-2.48 3.37-6.05 5.2-9.7 5.2-3.21 0-6.13-1.55-7.66-4.19-1.75-2.83-2.26-5.93-2.26-12.13V211.3c0-4.74-.29-5.47-2.04-6.2-1.09-.37-2.55-.64-5.47-.82v-1.55c4.38-.09 11.09-.55 14.3-1.09v30.73c0 7.93 1.6 11.58 5.18 11.58 4.08 0 8.39-4.83 10.28-11.67 1.02-3.46 1.39-6.93 1.39-12.22v-8.75c0-4.74-.22-5.47-1.97-6.2-.95-.37-2.41-.64-5.25-.82v-1.55Z" class="cls-2"/><path d="M196.27 237.74c2.92 5.11 3.87 5.84 8.02 6.2v1.46h-19.91v-1.46c4.23-.46 5.4-1 5.4-2.64 0-.46-.37-1.37-.8-2.19l-1.24-2.28-6.42-11.03-4.81 8.3c-1.82 3.28-2.7 5.29-2.7 6.56 0 2.1 1.24 2.83 5.62 3.28v1.46h-16.7v-1.46c4.38-.64 6.13-1.82 9.33-6.38 1.75-2.55 1.97-2.92 4.96-8.02l3.21-5.65-7.66-13.4c-2.7-4.74-3.79-5.56-8.24-6.11v-1.46h19.47v1.46c-3.57.37-4.89 1-4.89 2.37 0 .37.22 1 .58 1.73l1.1 2.01 5.47 9.48 4.3-7.29c1.24-2.19 1.9-3.92 1.9-5.2 0-1.82-1.31-2.55-5.32-3.1v-1.46h15.68v1.46c-4.6.73-6.56 2.28-9.41 7.11l-1.97 3.28-4.08 7.02 9.12 15.95Zm-137.79 76.6H17.27v-1.46c7.22-.73 7.88-1.37 7.88-7.66v-42.49c0-6.29-.73-7.02-7.95-7.66v-1.46h23.71v1.46c-7.88.64-8.68 1.37-8.68 7.66v42.94c0 5.93.95 6.93 6.86 6.93 10.94 0 17.14-7.66 18.16-22.61h1.24v24.34Zm19.5-52.25c-2.41 0-4.38-2.46-4.38-5.47s1.97-5.47 4.38-5.47 4.38 2.46 4.38 5.47-1.97 5.47-4.38 5.47m5.91 36.2c-2.77 10.39-7.44 16.69-12.25 16.69-4.08 0-6.78-3.74-6.78-9.57 0-2.37.44-4.92 1.46-8.75l3.65-14.13c.07-.27.36-1.19.8-2.92.44-1.55.66-2.64.66-3.37 0-1.82-.88-3.01-2.19-3.01-3.36 0-6.42 4.65-10.06 15.32l-1.24-.64c2.04-6.75 4.38-11.49 7-14.41 1.46-1.55 3.06-2.28 4.89-2.28 4.16 0 7.08 3.92 7.08 9.39 0 2.46-.88 7.2-2.12 11.67l-1.82 6.47-1.39 5.38-.73 2.55c-.29 1.19-.51 2.46-.51 3.28 0 1.82.88 3.01 2.12 3.01 3.43 0 7.22-5.56 10.21-15.14l1.24.46Z" class="cls-2"/><path d="M107.04 270.57c3.21 0 6.42 1.55 8.17 4.01 1.82 2.64 2.12 4.29 2.12 12.22v19.06c0 5.38 1.09 6.38 7 7.02v1.46h-20.79v-1.46c5.98-.64 7-1.64 7-6.93v-18.69c0-11.85-.66-13.58-5.18-13.58-4.16 0-8.1 3.46-9.92 8.75-1.75 5.01-2.19 8.57-2.19 17.41v6.11c0 5.29 1.02 6.29 7 6.93v1.46H79.46v-1.46c5.98-.64 7-1.64 7-6.93v-25.71c0-4.74-.22-5.47-1.97-6.2-1.02-.46-2.04-.55-5.25-.82v-1.55c4.23-.09 10.36-.55 14-1.09v13.4c2.33-8.48 7.44-13.4 13.79-13.4Zm35.14 1.1c4.81-.09 10.57-.55 14.08-1.09v35.28c0 5.38 1.02 6.38 7 7.02v1.46h-1.02l-6.35.37c-1.73.05-3.46.17-5.18.36-.29 0-.73.09-1.31.18v-13.04c-1.53 4.38-2.26 5.74-4.01 8.11-2.48 3.37-6.05 5.2-9.7 5.2-3.21 0-6.13-1.55-7.66-4.19-1.75-2.83-2.26-5.93-2.26-12.13v-18.96c0-4.74-.29-5.47-2.04-6.2-1.09-.37-2.55-.64-5.47-.82v-1.55c4.38-.09 11.09-.55 14.3-1.09v30.73c0 7.93 1.6 11.58 5.18 11.58 4.08 0 8.39-4.83 10.28-11.67 1.02-3.46 1.39-6.93 1.39-12.22v-8.75c0-4.74-.22-5.47-1.97-6.2-.95-.37-2.41-.64-5.25-.82v-1.55Z" class="cls-2"/><path d="M196.27 306.68c2.92 5.11 3.87 5.84 8.02 6.2v1.46h-19.91v-1.46c4.23-.46 5.4-1 5.4-2.64 0-.46-.37-1.37-.8-2.19l-1.24-2.28-6.42-11.03-4.81 8.3c-1.82 3.28-2.7 5.29-2.7 6.56 0 2.1 1.24 2.83 5.62 3.28v1.46h-16.7v-1.46c4.38-.64 6.13-1.82 9.33-6.38 1.75-2.55 1.97-2.92 4.96-8.02l3.21-5.65-7.66-13.4c-2.7-4.74-3.79-5.56-8.24-6.11v-1.46h19.47v1.46c-3.57.37-4.89 1-4.89 2.37 0 .37.22 1 .58 1.73l1.1 2.01 5.47 9.48 4.3-7.29c1.24-2.19 1.9-3.92 1.9-5.2 0-1.82-1.31-2.55-5.32-3.1v-1.46h15.68v1.46c-4.6.73-6.56 2.28-9.41 7.11l-1.97 3.28-4.08 7.02 9.12 15.95Z" class="cls-2"/></svg>