<?xml version="1.0" encoding="UTF-8"?>
<svg id="Layer_1" data-name="Layer 1" xmlns="http://www.w3.org/2000/svg" viewBox="0 0 560 320">
  <defs>
    <style>
      .cls-1 {
        fill: #fe2015;
      }

      .cls-2 {
        fill: #0124a6;
      }

      .cls-3 {
        fill: #372869;
      }

      .cls-4 {
        fill: #ff2d1e;
      }

      .cls-5 {
        fill: #ffc001;
      }

      .cls-6 {
        fill: #7b7692;
      }

      .cls-7, .cls-8 {
        fill: #bca3ce;
        stroke: #553f98;
        stroke-linejoin: round;
        stroke-width: .5px;
      }

      .cls-9 {
        fill: #011da9;
      }

      .cls-8 {
        fill-rule: evenodd;
      }

      .cls-10 {
        fill: #069330;
      }

      .cls-11 {
        fill: #0222a9;
      }

      .cls-12 {
        fill: #553f98;
      }
    </style>
  </defs>
  <rect class="cls-3" x=".76" y="-.02" width="559.24" height="320"/>
  <path class="cls-12" d="M405.14-.12c-3.45,16.81-8.27,33.52-14.2,49.97-.77,2.14-1.56,4.27-2.37,6.4-3.15,8.31-6.6,16.53-10.28,24.65-5.58,12.3-11.73,24.36-18.36,36.11-.66,1.19-1.34,2.38-2.03,3.56-.5.88-1,1.74-1.5,2.61h0c-10.64,18.29-22.38,35.76-34.79,52.08-48.21,64.41-136.13,76.41-201.3,120.77-3.92,2.65-7.76,5.44-11.5,8.36-1.03.8-2.04,1.61-3.05,2.44-1.96,1.61-3.9,3.27-5.82,5-2.85,2.53-5.66,5.19-8.43,7.96H-.37V-.12h405.51Z"/>
  <g>
    <path class="cls-3" d="M35.54-.02v17.85h-.11L29.18-.02H9.55v34.82h12.1V11.84h.11l7.99,22.96h17.9V-.02h-12.11ZM103.07-.02v17.85h-.11L96.71-.02h-19.63v34.82h12.11V11.84h.1l7.98,22.96h17.9V-.02h-12.1ZM219.35-.02v17.85h-.11L212.98-.02h-19.63v34.82h12.11V11.84h.11l7.98,22.96h17.9V-.02h-12.1ZM54.96-.02v34.82h14.93V-.02h-14.93ZM119.5-.02v5.85h9.49v28.97h14.93V5.83h9.52V-.02h-33.94ZM172.54,24.36v-4.47h13.65v-10.19h-13.65v-4.16h14.83V-.02h-29.53v34.81h30v-10.43h-15.3Z"/>
    <path class="cls-3" d="M270.45-.02h-32.56v34.83h18.58c11.57,0,18.97-7.45,18.97-19.47,0-6.33-1.38-11.72-4.99-15.36ZM258.9,23.43c-.94,1.59-2.53,2.34-4.97,2.34h-1.44V4.06h1.44c2.44,0,4.03.74,4.97,2.33.99,1.64,1.09,4.67,1.09,8.5s-.1,6.9-1.09,8.54ZM313.6-.02h-29.51c-3.15,3.67-4.73,8.82-4.73,14.91,0,12.42,6.51,20.96,19.47,20.96s19.48-8.54,19.48-20.96c0-6.09-1.56-11.24-4.71-14.91ZM298.83,25.77c-2.28,0-4.02-1.15-4.02-10.88s1.64-10.83,4.02-10.83,4.03,1.34,4.03,10.83-1.69,10.88-4.03,10.88ZM325.31,26.41c-2.63,0-4.72,2.09-4.72,4.72s2.09,4.72,4.72,4.72,4.72-2.14,4.72-4.72-2.14-4.72-4.72-4.72ZM325.31,35.01c-2.19,0-3.92-1.74-3.92-3.88s1.73-3.87,3.92-3.87,3.87,1.73,3.87,3.87-1.73,3.88-3.87,3.88Z"/>
    <path class="cls-3" d="M327.3,32.47c-.1-.69-.1-1.24-.95-1.34.65-.15,1.09-.6,1.09-1.24,0-1.04-.94-1.34-1.83-1.34h-2.19v5.16h1.09v-2.08h1.2c.34,0,.44.39.44.69.05.45.1.95.2,1.39h1.24c-.2-.29-.24-.89-.29-1.24ZM325.46,30.78h-.95v-1.39h.95c.5,0,.79.2.79.65,0,.49-.29.74-.79.74ZM35.54-.02v17.85h-.11L29.18-.02H9.55v34.82h12.1V11.84h.11l7.99,22.96h17.9V-.02h-12.11ZM103.07-.02v17.85h-.11L96.71-.02h-19.63v34.82h12.11V11.84h.1l7.98,22.96h17.9V-.02h-12.1ZM219.35-.02v17.85h-.11L212.98-.02h-19.63v34.82h12.11V11.84h.11l7.98,22.96h17.9V-.02h-12.1ZM54.96-.02v34.82h14.93V-.02h-14.93ZM119.5-.02v5.85h9.49v28.97h14.93V5.83h9.52V-.02h-33.94ZM172.54,24.36v-4.47h13.65v-10.19h-13.65v-4.16h14.83V-.02h-29.53v34.81h30v-10.43h-15.3Z"/>
    <path class="cls-3" d="M347.78-.02h-11.09c2.32.3,3.22,2.55,3.22,4.63,0,2.68-1.24,4.76-3.28,4.76h-.05c-2.78,0-4.02-2.68-4.17-5.21,0-.94.05-1.49.25-1.89.45-1.15,1.52-2.1,2.95-2.29h-11.52c-.05.59-.07,1.19-.07,1.8,0,7.25,3.87,14,12.71,14,6.76,0,11.73-5.06,11.73-11.57,0-1.59-.24-3-.68-4.23ZM372.1,1.58V-.02h-8v1.6h-5.56l.05-.1.73-1.5h-7.11l-1.37,2.44v5.71h13.26v7.11h8v-7.11h3.38V1.58h-3.38Z"/>
  </g>
  <g>
    <path class="cls-3" d="M30.75,85.25h17.9v-39.77h-12.11v22.81h-.1l-7.99-22.81H10.55v39.77h12.1v-22.96h.11l7.99,22.96ZM98.27,85.25h17.9v-39.77h-12.1v22.81h-.11l-7.99-22.81h-17.9v39.77h12.11v-22.96h.11l7.98,22.96ZM214.55,85.25h17.9v-39.77h-12.11v22.81h-.11l-7.98-22.81h-17.9v39.77h12.1v-22.96h.11l7.99,22.96ZM55.96,45.48h14.93v39.77h-14.93v-39.77ZM129.99,56.29h-9.49v-10.8h33.93v10.8h-9.52v28.97h-14.92v-28.97ZM158.84,45.47h29.53v10.52h-14.83v4.16h13.66v10.2h-13.66v4.46h15.3v10.43h-30v-39.77Z"/>
    <path class="cls-3" d="M238.89,45.47h17.68c15.1,0,19.87,8.54,19.87,20.32s-7.4,19.47-18.97,19.47h-18.58v-39.79h0ZM253.49,76.22h1.44c2.43,0,4.02-.75,4.97-2.33.99-1.64,1.09-4.67,1.09-8.54s-.1-6.85-1.09-8.49c-.94-1.59-2.53-2.33-4.97-2.33h-1.44v21.71h0ZM299.83,44.43c13.01,0,19.47,8.54,19.47,20.91s-6.46,20.96-19.47,20.96-19.47-8.54-19.47-20.96,6.51-20.91,19.47-20.91h0ZM299.83,76.22c2.33,0,4.02-1.14,4.02-10.88s-1.59-10.83-4.02-10.83-4.02,1.34-4.02,10.83c0,9.74,1.74,10.88,4.02,10.88ZM326.31,76.87c-2.63,0-4.72,2.09-4.72,4.72s2.09,4.72,4.72,4.72,4.72-2.14,4.72-4.72-2.14-4.72-4.72-4.72ZM326.31,85.46c-2.19,0-3.92-1.74-3.92-3.87s1.74-3.87,3.92-3.87,3.87,1.74,3.87,3.87-1.74,3.87-3.87,3.87Z"/>
    <path class="cls-3" d="M325.51,84.17h-1.09v-5.17h2.19c.89,0,1.84.3,1.84,1.34,0,.65-.45,1.09-1.09,1.24.84.1.84.65.94,1.34.05.35.1.94.3,1.24h-1.24c-.1-.45-.15-.94-.2-1.39,0-.3-.1-.7-.45-.7h-1.19v2.09h0ZM325.51,81.24h.94c.5,0,.8-.25.8-.75,0-.45-.3-.65-.8-.65h-.94v1.39ZM30.75,85.25h17.9v-39.77h-12.11v22.81h-.1l-7.99-22.81H10.55v39.77h12.1v-22.96h.11l7.99,22.96ZM98.27,85.25h17.9v-39.77h-12.1v22.81h-.11l-7.99-22.81h-17.9v39.77h12.11v-22.96h.11l7.98,22.96ZM214.55,85.25h17.9v-39.77h-12.11v22.81h-.11l-7.98-22.81h-17.9v39.77h12.1v-22.96h.11l7.99,22.96ZM55.96,45.48h14.93v39.77h-14.93v-39.77ZM129.99,56.29h-9.49v-10.8h33.93v10.8h-9.52v28.97h-14.92v-28.97ZM158.84,45.47h29.53v10.52h-14.83v4.16h13.66v10.2h-13.66v4.46h15.3v10.43h-30v-39.77Z"/>
    <path class="cls-3" d="M346.03,40.21c-.79-.1-1.59-.05-2.63,0-6.31.3-8.84,2.98-9.74,6.01h.15c1.59-1.39,3.53-2.04,6.11-2.04,5.02,0,9.54,3.63,9.54,10.48s-4.97,11.57-11.72,11.57c-8.84,0-12.72-6.76-12.72-14.01,0-5.91,2.09-10.88,5.51-14.11,3.28-3.03,7.5-4.57,12.67-4.67,1.34-.1,2.19,0,2.83.05v6.7h0ZM337.63,59.83c2.04,0,3.28-2.09,3.28-4.77,0-2.24-1.04-4.67-3.78-4.67-1.69,0-2.98,1.04-3.48,2.33-.2.4-.25.94-.25,1.89.15,2.53,1.39,5.22,4.17,5.22h.05ZM365.1,65.69v-7.1h-13.26v-5.71l10.63-18.97h10.63v18.13h3.38v6.56h-3.38v7.1h-8ZM365.1,52.03v-5.46c0-2.04.1-4.12.2-6.36h-.15c-.99,2.19-1.84,4.22-2.98,6.41l-2.58,5.31-.05.1h5.56Z"/>
  </g>
  <g>
    <path class="cls-3" d="M30.75,185.26h17.9v-39.77h-12.11v22.81h-.1l-7.99-22.81H10.55v39.77h12.1v-22.96h.11l7.99,22.96ZM98.27,185.26h17.9v-39.77h-12.1v22.81h-.11l-7.99-22.81h-17.9v39.77h12.11v-22.96h.11l7.98,22.96ZM214.55,185.26h17.9v-39.77h-12.11v22.81h-.11l-7.98-22.81h-17.9v39.77h12.1v-22.96h.11l7.99,22.96ZM55.96,145.48h14.93v39.77h-14.93v-39.77ZM129.99,156.29h-9.49v-10.8h33.93v10.8h-9.52v28.97h-14.92v-28.97ZM158.84,145.47h29.53v10.52h-14.83v4.16h13.66v10.2h-13.66v4.46h15.3v10.43h-30v-39.77Z"/>
    <path class="cls-3" d="M238.89,145.48h17.68c15.1,0,19.87,8.54,19.87,20.32s-7.4,19.47-18.97,19.47h-18.58v-39.79h0ZM253.49,176.22h1.44c2.43,0,4.02-.75,4.97-2.33.99-1.64,1.09-4.67,1.09-8.54s-.1-6.85-1.09-8.49c-.94-1.59-2.53-2.33-4.97-2.33h-1.44v21.71h0ZM299.83,144.43c13.01,0,19.47,8.54,19.47,20.91s-6.46,20.96-19.47,20.96-19.47-8.54-19.47-20.96,6.51-20.91,19.47-20.91h0ZM299.83,176.22c2.33,0,4.02-1.14,4.02-10.88s-1.59-10.83-4.02-10.83-4.02,1.34-4.02,10.83c0,9.74,1.74,10.88,4.02,10.88ZM326.31,176.87c-2.63,0-4.72,2.09-4.72,4.72s2.09,4.72,4.72,4.72,4.72-2.14,4.72-4.72-2.14-4.72-4.72-4.72ZM326.31,185.46c-2.19,0-3.92-1.74-3.92-3.87s1.74-3.87,3.92-3.87,3.87,1.74,3.87,3.87-1.74,3.87-3.87,3.87Z"/>
    <path class="cls-3" d="M325.51,184.17h-1.09v-5.17h2.19c.89,0,1.84.3,1.84,1.34,0,.65-.45,1.09-1.09,1.24.84.1.84.65.94,1.34.05.35.1.94.3,1.24h-1.24c-.1-.45-.15-.94-.2-1.39,0-.3-.1-.7-.45-.7h-1.19v2.09h0ZM325.51,181.24h.94c.5,0,.8-.25.8-.75,0-.45-.3-.65-.8-.65h-.94v1.39ZM30.75,185.26h17.9v-39.77h-12.11v22.81h-.1l-7.99-22.81H10.55v39.77h12.1v-22.96h.11l7.99,22.96ZM98.27,185.26h17.9v-39.77h-12.1v22.81h-.11l-7.99-22.81h-17.9v39.77h12.11v-22.96h.11l7.98,22.96ZM214.55,185.26h17.9v-39.77h-12.11v22.81h-.11l-7.98-22.81h-17.9v39.77h12.1v-22.96h.11l7.99,22.96ZM55.96,145.48h14.93v39.77h-14.93v-39.77ZM129.99,156.29h-9.49v-10.8h33.93v10.8h-9.52v28.97h-14.92v-28.97ZM158.84,145.47h29.53v10.52h-14.83v4.16h13.66v10.2h-13.66v4.46h15.3v10.43h-30v-39.77Z"/>
    <path class="cls-3" d="M346.03,140.21c-.79-.1-1.59-.05-2.63,0-6.31.3-8.84,2.98-9.74,6.01h.15c1.59-1.39,3.53-2.04,6.11-2.04,5.02,0,9.54,3.63,9.54,10.48s-4.97,11.57-11.72,11.57c-8.84,0-12.72-6.76-12.72-14.01,0-5.91,2.09-10.88,5.51-14.11,3.28-3.03,7.5-4.57,12.67-4.67,1.34-.1,2.19,0,2.83.05v6.7h0ZM337.63,159.83c2.04,0,3.28-2.09,3.28-4.77,0-2.24-1.04-4.67-3.78-4.67-1.69,0-2.98,1.04-3.48,2.33-.2.4-.25.94-.25,1.89.15,2.53,1.39,5.22,4.17,5.22h.05ZM365.1,165.69v-7.1h-13.26v-5.71l10.63-18.97h10.63v18.13h3.38v6.56h-3.38v7.1h-8ZM365.1,152.03v-5.46c0-2.04.1-4.12.2-6.36h-.15c-.99,2.19-1.84,4.22-2.98,6.41l-2.58,5.31-.05.1h5.56Z"/>
  </g>
  <g>
    <path class="cls-3" d="M30.75,135.2h17.9v-39.77h-12.11v22.81h-.1l-7.99-22.81H10.55v39.77h12.1v-22.96h.11l7.99,22.96ZM98.27,135.2h17.9v-39.77h-12.1v22.81h-.11l-7.99-22.81h-17.9v39.77h12.11v-22.96h.11l7.98,22.96ZM214.55,135.2h17.9v-39.77h-12.11v22.81h-.11l-7.98-22.81h-17.9v39.77h12.1v-22.96h.11l7.99,22.96ZM55.96,95.42h14.93v39.77h-14.93v-39.77ZM129.99,106.23h-9.49v-10.8h33.93v10.8h-9.52v28.97h-14.92v-28.97ZM158.84,95.41h29.53v10.52h-14.83v4.16h13.66v10.2h-13.66v4.46h15.3v10.43h-30v-39.77Z"/>
    <path class="cls-3" d="M238.89,95.42h17.68c15.1,0,19.87,8.54,19.87,20.32s-7.4,19.47-18.97,19.47h-18.58v-39.79h0ZM253.49,126.16h1.44c2.43,0,4.02-.75,4.97-2.33.99-1.64,1.09-4.67,1.09-8.54s-.1-6.85-1.09-8.49c-.94-1.59-2.53-2.33-4.97-2.33h-1.44v21.71h0ZM299.83,94.37c13.01,0,19.47,8.54,19.47,20.91s-6.46,20.96-19.47,20.96-19.47-8.54-19.47-20.96,6.51-20.91,19.47-20.91h0ZM299.83,126.16c2.33,0,4.02-1.14,4.02-10.88s-1.59-10.83-4.02-10.83-4.02,1.34-4.02,10.83c0,9.74,1.74,10.88,4.02,10.88ZM326.31,126.81c-2.63,0-4.72,2.09-4.72,4.72s2.09,4.72,4.72,4.72,4.72-2.14,4.72-4.72-2.14-4.72-4.72-4.72ZM326.31,135.4c-2.19,0-3.92-1.74-3.92-3.87s1.74-3.87,3.92-3.87,3.87,1.74,3.87,3.87-1.74,3.87-3.87,3.87Z"/>
    <path class="cls-3" d="M325.51,134.11h-1.09v-5.17h2.19c.89,0,1.84.3,1.84,1.34,0,.65-.45,1.09-1.09,1.24.84.1.84.65.94,1.34.05.35.1.94.3,1.24h-1.24c-.1-.45-.15-.94-.2-1.39,0-.3-.1-.7-.45-.7h-1.19v2.09h0ZM325.51,131.18h.94c.5,0,.8-.25.8-.75,0-.45-.3-.65-.8-.65h-.94v1.39ZM30.75,135.2h17.9v-39.77h-12.11v22.81h-.1l-7.99-22.81H10.55v39.77h12.1v-22.96h.11l7.99,22.96ZM98.27,135.2h17.9v-39.77h-12.1v22.81h-.11l-7.99-22.81h-17.9v39.77h12.11v-22.96h.11l7.98,22.96ZM214.55,135.2h17.9v-39.77h-12.11v22.81h-.11l-7.98-22.81h-17.9v39.77h12.1v-22.96h.11l7.99,22.96ZM55.96,95.42h14.93v39.77h-14.93v-39.77ZM129.99,106.23h-9.49v-10.8h33.93v10.8h-9.52v28.97h-14.92v-28.97ZM158.84,95.41h29.53v10.52h-14.83v4.16h13.66v10.2h-13.66v4.46h15.3v10.43h-30v-39.77Z"/>
    <path class="cls-3" d="M346.03,90.15c-.79-.1-1.59-.05-2.63,0-6.31.3-8.84,2.98-9.74,6.01h.15c1.59-1.39,3.53-2.04,6.11-2.04,5.02,0,9.54,3.63,9.54,10.48s-4.97,11.57-11.72,11.57c-8.84,0-12.72-6.76-12.72-14.01,0-5.91,2.09-10.88,5.51-14.11,3.28-3.03,7.5-4.57,12.67-4.67,1.34-.1,2.19,0,2.83.05v6.7h0ZM337.63,109.77c2.04,0,3.28-2.09,3.28-4.77,0-2.24-1.04-4.67-3.78-4.67-1.69,0-2.98,1.04-3.48,2.33-.2.4-.25.94-.25,1.89.15,2.53,1.39,5.22,4.17,5.22h.05ZM365.1,115.63v-7.1h-13.26v-5.71l10.63-18.97h10.63v18.13h3.38v6.56h-3.38v7.1h-8ZM365.1,101.97v-5.46c0-2.04.1-4.12.2-6.36h-.15c-.99,2.19-1.84,4.22-2.98,6.41l-2.58,5.31-.05.1h5.56Z"/>
  </g>
  <g>
    <path class="cls-6" d="M30.59,85.44h17.9v-39.77h-12.11v22.81h-.1l-7.99-22.81H10.39v39.77h12.1v-22.96h.11l7.99,22.96ZM98.11,85.44h17.9v-39.77h-12.1v22.81h-.11l-7.99-22.81h-17.9v39.77h12.11v-22.96h.11l7.98,22.96ZM214.39,85.44h17.9v-39.77h-12.11v22.81h-.11l-7.98-22.81h-17.9v39.77h12.1v-22.96h.11l7.99,22.96ZM55.8,45.66h14.93v39.77h-14.93v-39.77ZM129.83,56.47h-9.49v-10.8h33.93v10.8h-9.52v28.97h-14.92v-28.97ZM158.68,45.65h29.53v10.52h-14.83v4.16h13.66v10.2h-13.66v4.46h15.3v10.43h-30v-39.77Z"/>
    <path class="cls-2" d="M238.72,45.66h17.68c15.1,0,19.87,8.54,19.87,20.32s-7.4,19.47-18.97,19.47h-18.58v-39.79h0ZM253.33,76.4h1.44c2.43,0,4.02-.75,4.97-2.33.99-1.64,1.09-4.67,1.09-8.54s-.1-6.85-1.09-8.49c-.94-1.59-2.53-2.33-4.97-2.33h-1.44v21.71h0ZM299.67,44.61c13.01,0,19.47,8.54,19.47,20.91s-6.46,20.96-19.47,20.96-19.47-8.54-19.47-20.96,6.51-20.91,19.47-20.91h0ZM299.67,76.4c2.33,0,4.02-1.14,4.02-10.88s-1.59-10.83-4.02-10.83-4.02,1.34-4.02,10.83c0,9.74,1.74,10.88,4.02,10.88ZM326.15,77.05c-2.63,0-4.72,2.09-4.72,4.72s2.09,4.72,4.72,4.72,4.72-2.14,4.72-4.72-2.14-4.72-4.72-4.72ZM326.15,85.64c-2.19,0-3.92-1.74-3.92-3.87s1.74-3.87,3.92-3.87,3.87,1.74,3.87,3.87-1.74,3.87-3.87,3.87Z"/>
    <path class="cls-2" d="M325.35,84.35h-1.09v-5.17h2.19c.89,0,1.84.3,1.84,1.34,0,.65-.45,1.09-1.09,1.24.84.1.84.65.94,1.34.05.35.1.94.3,1.24h-1.24c-.1-.45-.15-.94-.2-1.39,0-.3-.1-.7-.45-.7h-1.19v2.09h0ZM325.35,81.42h.94c.5,0,.8-.25.8-.75,0-.45-.3-.65-.8-.65h-.94v1.39ZM30.59,85.44h17.9v-39.77h-12.11v22.81h-.1l-7.99-22.81H10.39v39.77h12.1v-22.96h.11l7.99,22.96ZM98.11,85.44h17.9v-39.77h-12.1v22.81h-.11l-7.99-22.81h-17.9v39.77h12.11v-22.96h.11l7.98,22.96ZM214.39,85.44h17.9v-39.77h-12.11v22.81h-.11l-7.98-22.81h-17.9v39.77h12.1v-22.96h.11l7.99,22.96ZM55.8,45.66h14.93v39.77h-14.93v-39.77ZM129.83,56.47h-9.49v-10.8h33.93v10.8h-9.52v28.97h-14.92v-28.97ZM158.68,45.65h29.53v10.52h-14.83v4.16h13.66v10.2h-13.66v4.46h15.3v10.43h-30v-39.77Z"/>
    <path class="cls-4" d="M345.87,40.39c-.79-.1-1.59-.05-2.63,0-6.31.3-8.84,2.98-9.74,6.01h.15c1.59-1.39,3.53-2.04,6.11-2.04,5.02,0,9.54,3.63,9.54,10.48s-4.97,11.57-11.72,11.57c-8.84,0-12.72-6.76-12.72-14.01,0-5.91,2.09-10.88,5.51-14.11,3.28-3.03,7.5-4.57,12.67-4.67,1.34-.1,2.19,0,2.83.05v6.7h0ZM337.47,60.01c2.04,0,3.28-2.09,3.28-4.77,0-2.24-1.04-4.67-3.78-4.67-1.69,0-2.98,1.04-3.48,2.33-.2.4-.25.94-.25,1.89.15,2.53,1.39,5.22,4.17,5.22h.05ZM364.94,65.87v-7.1h-13.26v-5.71l10.63-18.97h10.63v18.13h3.38v6.56h-3.38v7.1h-8ZM364.94,52.21v-5.46c0-2.04.1-4.12.2-6.36h-.15c-.99,2.19-1.84,4.22-2.98,6.41l-2.58,5.31-.05.1h5.56Z"/>
  </g>
  <g>
    <path class="cls-3" d="M30.75,235.6h17.9v-39.77h-12.11v22.81h-.1l-7.99-22.81H10.55v39.77h12.1v-22.96h.11l7.99,22.96ZM98.27,235.6h17.9v-39.77h-12.1v22.81h-.11l-7.99-22.81h-17.9v39.77h12.11v-22.96h.11l7.98,22.96ZM214.55,235.6h17.9v-39.77h-12.11v22.81h-.11l-7.98-22.81h-17.9v39.77h12.1v-22.96h.11l7.99,22.96ZM55.96,195.82h14.93v39.77h-14.93v-39.77ZM129.99,206.63h-9.49v-10.8h33.93v10.8h-9.52v28.97h-14.92v-28.97ZM158.84,195.81h29.53v10.52h-14.83v4.16h13.66v10.2h-13.66v4.46h15.3v10.43h-30v-39.77Z"/>
    <path class="cls-3" d="M238.89,195.81h17.68c15.1,0,19.87,8.54,19.87,20.32s-7.4,19.47-18.97,19.47h-18.58v-39.79h0ZM253.49,226.56h1.44c2.43,0,4.02-.75,4.97-2.33.99-1.64,1.09-4.67,1.09-8.54s-.1-6.85-1.09-8.49c-.94-1.59-2.53-2.33-4.97-2.33h-1.44v21.71h0ZM299.83,194.77c13.01,0,19.47,8.54,19.47,20.91s-6.46,20.96-19.47,20.96-19.47-8.54-19.47-20.96,6.51-20.91,19.47-20.91h0ZM299.83,226.56c2.33,0,4.02-1.14,4.02-10.88s-1.59-10.83-4.02-10.83-4.02,1.34-4.02,10.83c0,9.74,1.74,10.88,4.02,10.88ZM326.31,227.21c-2.63,0-4.72,2.09-4.72,4.72s2.09,4.72,4.72,4.72,4.72-2.14,4.72-4.72-2.14-4.72-4.72-4.72ZM326.31,235.8c-2.19,0-3.92-1.74-3.92-3.87s1.74-3.87,3.92-3.87,3.87,1.74,3.87,3.87-1.74,3.87-3.87,3.87Z"/>
    <path class="cls-3" d="M325.51,234.51h-1.09v-5.17h2.19c.89,0,1.84.3,1.84,1.34,0,.65-.45,1.09-1.09,1.24.84.1.84.65.94,1.34.05.35.1.94.3,1.24h-1.24c-.1-.45-.15-.94-.2-1.39,0-.3-.1-.7-.45-.7h-1.19v2.09h0ZM325.51,231.58h.94c.5,0,.8-.25.8-.75,0-.45-.3-.65-.8-.65h-.94v1.39ZM30.75,235.6h17.9v-39.77h-12.11v22.81h-.1l-7.99-22.81H10.55v39.77h12.1v-22.96h.11l7.99,22.96ZM98.27,235.6h17.9v-39.77h-12.1v22.81h-.11l-7.99-22.81h-17.9v39.77h12.11v-22.96h.11l7.98,22.96ZM214.55,235.6h17.9v-39.77h-12.11v22.81h-.11l-7.98-22.81h-17.9v39.77h12.1v-22.96h.11l7.99,22.96ZM55.96,195.82h14.93v39.77h-14.93v-39.77ZM129.99,206.63h-9.49v-10.8h33.93v10.8h-9.52v28.97h-14.92v-28.97ZM158.84,195.81h29.53v10.52h-14.83v4.16h13.66v10.2h-13.66v4.46h15.3v10.43h-30v-39.77Z"/>
    <path class="cls-3" d="M346.03,190.55c-.79-.1-1.59-.05-2.63,0-6.31.3-8.84,2.98-9.74,6.01h.15c1.59-1.39,3.53-2.04,6.11-2.04,5.02,0,9.54,3.63,9.54,10.48s-4.97,11.57-11.72,11.57c-8.84,0-12.72-6.76-12.72-14.01,0-5.91,2.09-10.88,5.51-14.11,3.28-3.03,7.5-4.57,12.67-4.67,1.34-.1,2.19,0,2.83.05v6.7h0ZM337.63,210.17c2.04,0,3.28-2.09,3.28-4.77,0-2.24-1.04-4.67-3.78-4.67-1.69,0-2.98,1.04-3.48,2.33-.2.4-.25.94-.25,1.89.15,2.53,1.39,5.22,4.17,5.22h.05ZM365.1,216.03v-7.1h-13.26v-5.71l10.63-18.97h10.63v18.13h3.38v6.56h-3.38v7.1h-8ZM365.1,202.37v-5.46c0-2.04.1-4.12.2-6.36h-.15c-.99,2.19-1.84,4.22-2.98,6.41l-2.58,5.31-.05.1h5.56Z"/>
  </g>
  <g>
    <path class="cls-3" d="M30.75,285.32h17.9v-39.77h-12.11v22.81h-.1l-7.99-22.81H10.55v39.77h12.1v-22.96h.11l7.99,22.96ZM98.27,285.32h17.9v-39.77h-12.1v22.81h-.11l-7.99-22.81h-17.9v39.77h12.11v-22.96h.11l7.98,22.96ZM214.55,285.32h17.9v-39.77h-12.11v22.81h-.11l-7.98-22.81h-17.9v39.77h12.1v-22.96h.11l7.99,22.96ZM55.96,245.55h14.93v39.77h-14.93v-39.77ZM129.99,256.35h-9.49v-10.8h33.93v10.8h-9.52v28.97h-14.92v-28.97ZM158.84,245.54h29.53v10.52h-14.83v4.16h13.66v10.2h-13.66v4.46h15.3v10.43h-30v-39.77Z"/>
    <path class="cls-3" d="M238.89,245.54h17.68c15.1,0,19.87,8.54,19.87,20.32s-7.4,19.47-18.97,19.47h-18.58v-39.79h0ZM253.49,276.29h1.44c2.43,0,4.02-.75,4.97-2.33.99-1.64,1.09-4.67,1.09-8.54s-.1-6.85-1.09-8.49c-.94-1.59-2.53-2.33-4.97-2.33h-1.44v21.71h0ZM299.83,244.5c13.01,0,19.47,8.54,19.47,20.91s-6.46,20.96-19.47,20.96-19.47-8.54-19.47-20.96,6.51-20.91,19.47-20.91h0ZM299.83,276.29c2.33,0,4.02-1.14,4.02-10.88s-1.59-10.83-4.02-10.83-4.02,1.34-4.02,10.83c0,9.74,1.74,10.88,4.02,10.88ZM326.31,276.93c-2.63,0-4.72,2.09-4.72,4.72s2.09,4.72,4.72,4.72,4.72-2.14,4.72-4.72-2.14-4.72-4.72-4.72ZM326.31,285.53c-2.19,0-3.92-1.74-3.92-3.87s1.74-3.87,3.92-3.87,3.87,1.74,3.87,3.87-1.74,3.87-3.87,3.87Z"/>
    <path class="cls-3" d="M325.51,284.23h-1.09v-5.17h2.19c.89,0,1.84.3,1.84,1.34,0,.65-.45,1.09-1.09,1.24.84.1.84.65.94,1.34.05.35.1.94.3,1.24h-1.24c-.1-.45-.15-.94-.2-1.39,0-.3-.1-.7-.45-.7h-1.19v2.09h0ZM325.51,281.3h.94c.5,0,.8-.25.8-.75,0-.45-.3-.65-.8-.65h-.94v1.39ZM30.75,285.32h17.9v-39.77h-12.11v22.81h-.1l-7.99-22.81H10.55v39.77h12.1v-22.96h.11l7.99,22.96ZM98.27,285.32h17.9v-39.77h-12.1v22.81h-.11l-7.99-22.81h-17.9v39.77h12.11v-22.96h.11l7.98,22.96ZM214.55,285.32h17.9v-39.77h-12.11v22.81h-.11l-7.98-22.81h-17.9v39.77h12.1v-22.96h.11l7.99,22.96ZM55.96,245.55h14.93v39.77h-14.93v-39.77ZM129.99,256.35h-9.49v-10.8h33.93v10.8h-9.52v28.97h-14.92v-28.97ZM158.84,245.54h29.53v10.52h-14.83v4.16h13.66v10.2h-13.66v4.46h15.3v10.43h-30v-39.77Z"/>
    <path class="cls-3" d="M346.03,240.27c-.79-.1-1.59-.05-2.63,0-6.31.3-8.84,2.98-9.74,6.01h.15c1.59-1.39,3.53-2.04,6.11-2.04,5.02,0,9.54,3.63,9.54,10.48s-4.97,11.57-11.72,11.57c-8.84,0-12.72-6.76-12.72-14.01,0-5.91,2.09-10.88,5.51-14.11,3.28-3.03,7.5-4.57,12.67-4.67,1.34-.1,2.19,0,2.83.05v6.7h0ZM337.63,259.89c2.04,0,3.28-2.09,3.28-4.77,0-2.24-1.04-4.67-3.78-4.67-1.69,0-2.98,1.04-3.48,2.33-.2.4-.25.94-.25,1.89.15,2.53,1.39,5.22,4.17,5.22h.05ZM365.1,265.76v-7.1h-13.26v-5.71l10.63-18.97h10.63v18.13h3.38v6.56h-3.38v7.1h-8ZM365.1,252.1v-5.46c0-2.04.1-4.12.2-6.36h-.15c-.99,2.19-1.84,4.22-2.98,6.41l-2.58,5.31-.05.1h5.56Z"/>
  </g>
  <g>
    <path class="cls-3" d="M187.37,306.73v-10.52h-29.53v23.77h28.35v-9.09h-13.65v-4.16h14.83ZM119.5,296.22v10.8h9.49v12.96h14.93v-12.96h9.52v-10.8h-33.94ZM54.96,296.22v23.76h14.93v-23.76h-14.93ZM219.35,296.22v22.81h-.11l-7.99-22.81h-17.9v23.76h12.11v-6.95h.11l2.42,6.95h23.46v-23.76h-12.1ZM103.07,296.22v22.81h-.11l-7.98-22.81h-17.9v23.76h12.11v-6.95h.1l2.42,6.95h23.46v-23.76h-12.1ZM35.54,296.22v22.81h-.11l-7.98-22.81H9.55v23.76h12.1v-6.95h.11l2.42,6.95h23.47v-23.76h-12.11Z"/>
    <path class="cls-3" d="M298.83,295.17c-12.96,0-19.47,8.54-19.47,20.91,0,1.35.08,2.65.24,3.9h15.33c-.08-1.12-.12-2.41-.12-3.9,0-9.49,1.64-10.83,4.02-10.83s4.03,1.34,4.03,10.83c0,1.49-.04,2.78-.12,3.9h15.34c.15-1.25.23-2.55.23-3.9,0-12.37-6.46-20.91-19.48-20.91ZM255.57,296.21h-17.68v23.77h14.6v-14.73h1.44c2.44,0,4.03.75,4.97,2.34.99,1.64,1.09,4.67,1.09,8.49,0,1.42-.02,2.73-.08,3.9h15.31c.15-1.1.22-2.25.22-3.45,0-11.77-4.77-20.32-19.87-20.32Z"/>
    <path class="cls-3" d="M187.37,306.73v-10.52h-29.53v23.77h28.35v-9.09h-13.65v-4.16h14.83ZM119.5,296.22v10.8h9.49v12.96h14.93v-12.96h9.52v-10.8h-33.94ZM54.96,296.22v23.76h14.93v-23.76h-14.93ZM219.35,296.22v22.81h-.11l-7.99-22.81h-17.9v23.76h12.11v-6.95h.11l2.42,6.95h23.46v-23.76h-12.1ZM103.07,296.22v22.81h-.11l-7.98-22.81h-17.9v23.76h12.11v-6.95h.1l2.42,6.95h23.46v-23.76h-12.1ZM35.54,296.22v22.81h-.11l-7.98-22.81H9.55v23.76h12.1v-6.95h.11l2.42,6.95h23.47v-23.76h-12.11Z"/>
    <path class="cls-3" d="M372.1,302.77v-18.13h-10.63l-10.63,18.97v5.72h13.26v7.1h8v-7.1h3.38v-6.56h-3.38ZM364.1,297.31v5.46h-5.56l.05-.1,2.58-5.32c1.14-2.18,1.99-4.22,2.98-6.4h.15c-.1,2.23-.2,4.32-.2,6.36ZM338.92,294.92c-2.58,0-4.52.65-6.11,2.04h-.15c.89-3.03,3.43-5.71,9.74-6.01,1.04-.05,1.83-.1,2.63,0v-6.71c-.65-.05-1.49-.15-2.83-.05-5.17.1-9.39,1.64-12.67,4.67-3.43,3.23-5.51,8.2-5.51,14.11,0,7.25,3.87,14.01,12.71,14.01,6.76,0,11.73-5.07,11.73-11.58,0-6.85-4.52-10.48-9.54-10.48ZM336.63,310.57h-.05c-2.78,0-4.02-2.68-4.17-5.22,0-.94.05-1.49.25-1.89.5-1.29,1.79-2.33,3.48-2.33,2.73,0,3.77,2.43,3.77,4.67,0,2.68-1.24,4.77-3.28,4.77Z"/>
  </g>
  <g>
    <path class="cls-11" d="M184.61,127.67l-23.32,41.61,23.32-8.94,22.26,8.52,5.96-6.69v-45.45l-28.22,10.94Z"/>
    <path class="cls-9" d="M257.05,277.18l-42.12-54.96v72.67l-30.32,12.83v-124.13l30.32-11.61,42.12,60.19v-76.53l28.64-11.04v120.57l-28.64,12.03Z"/>
    <path class="cls-11" d="M112.17,277.18l26.87-11.9-26.87-52.17v64.06Z"/>
    <path class="cls-10" d="M140.81,144.58l13.48,27.38,7-2.68,23.32-41.61-28.22-10.97-15.58,27.89ZM206.86,168.87l21.55-24.29,28.63,11.04v76.53l-42.12-60.19-8.07-3.1Z"/>
    <path class="cls-10" d="M112.17,155.63l-28.64-11.04v120.57l28.64,12.03v-64.06l42.12,81.77,30.32,12.83v-124.13l-30.32-11.62v63.02l-42.12-79.35Z"/>
    <path class="cls-1" d="M154.28,171.96v63.02l-42.12-79.35,28.64-11.04,13.48,27.38ZM257.05,277.18l-42.12-54.96v30.03l8.6,12.06,33.52,12.87Z"/>
    <path class="cls-5" d="M214.93,171.96l-30.32,11.62-30.32-11.62,30.32-11.61,30.32,11.61ZM228.41,144.58l28.64-11.02,28.64,11.02-28.64,11.04-28.64-11.04ZM83.53,144.58l28.64-11.02,28.64,11.02-28.64,11.04-28.64-11.04ZM212.82,116.73l-28.22-10.9-28.22,10.87,28.22,10.97,28.22-10.94Z"/>
  </g>
  <path class="cls-7" d="M397.27,76.46h62.51v-37.5c-24.23,3.81-49.83,4.98-60.32,15.12-.62.6-1,1.42-1.05,2.28l-1.14,20.1h0Z"/>
  <path class="cls-7" d="M437.3,161.95c-4.25.09-6.41,3.27-6.94,5.48,0,0-16.08,57.82-20.37,64.16-4.29,6.34-7.32,9.14-12.96,9.09-5.64-.05-14.17-3.36-16.74-13.05-2.56-9.7-9.75-40.71-8.49-65.96,1.26-25.25,6.8-52.03,6.8-52.03l58.71,52.31h0Z"/>
  <path class="cls-7" d="M560,24.26v161.7c-4.01,23.34-14,72.82-16.54,81.62-2.61,9.05-8.06,33.72-23.92,33.06-.45-.02-.89-.05-1.33-.1-.07.07-.11.1-.11.1,0,0-.05-.05-.12-.13-14.49-1.81-20.29-20.07-23.26-31.42-.23-.54-.41-1.05-.54-1.51-2.61-9.04-13.08-60.98-16.86-83.46-3.77-22.47-27.7-21.26-36.21-22.06h-.28c-1.18-.01-2.36-.05-3.53-.11-31.91-1.8-58.71-24.83-58.71-49.85v-5.33c0-17.9,5.62-34.08,19.54-45.46,12.25-10.01,30.93-16.3,57.87-16.78h.01c.66-.01,1.95-.02,3.77-.02,1.02-.01,2.19-.01,3.51-.02v-12.48c11.04-12.61,68.77-15.37,96.71-7.75Z"/>
  <path class="cls-7" d="M463.29,32.01l5.17,51.83-12.45-39.31s2.45-1.19,3.22-3.85c.77-2.66,2.96-8.39,4.06-8.67h0Z"/>
  <ellipse class="cls-7" cx="518.61" cy="177.1" rx="31.41" ry="31.27"/>
  <path class="cls-7" d="M519.74,159.03l10.76,4.74c.64.28,1.15.79,1.43,1.43l4.74,10.76c.32.72.32,1.55,0,2.27l-4.74,10.76c-.28.64-.79,1.15-1.43,1.43l-10.76,4.74c-.72.32-1.55.32-2.27,0l-10.76-4.74c-.64-.28-1.15-.79-1.43-1.43l-4.74-10.76c-.32-.72-.32-1.55,0-2.27l4.74-10.76c.28-.64.79-1.15,1.43-1.43l10.76-4.74c.72-.32,1.55-.32,2.27,0h0Z"/>
  <ellipse class="cls-7" cx="518.92" cy="118.56" rx="13.76" ry="13.69"/>
  <ellipse class="cls-7" cx="427.74" cy="109.28" rx="31.48" ry="31.34"/>
  <g id="Buttons">
    <circle class="cls-7" cx="518.92" cy="118.56" r="11.3"/>
    <ellipse class="cls-7" cx="518.61" cy="177.1" rx="13.69" ry="13.62"/>
    <path class="cls-7" d="M518.61,166.17c-6.06,0-10.98,4.89-10.98,10.93s4.92,10.93,10.98,10.93,10.98-4.9,10.98-10.93-4.92-10.93-10.98-10.93ZM518.61,167.12c-5.53,0-10.03,4.47-10.03,9.98s4.5,9.97,10.03,9.97,10.03-4.47,10.03-9.97-4.5-9.98-10.03-9.98ZM518.61,167.12c-5.53,0-10.03,4.47-10.03,9.98s4.5,9.97,10.03,9.97,10.03-4.47,10.03-9.97-4.5-9.98-10.03-9.98Z"/>
    <path class="cls-7" d="M518.61,169.63c-4.15,0-7.5,3.34-7.5,7.47s3.36,7.46,7.5,7.46,7.5-3.34,7.5-7.46-3.36-7.47-7.5-7.47ZM518.61,183.61c-3.61,0-6.55-2.92-6.55-6.51s2.94-6.52,6.55-6.52,6.55,2.92,6.55,6.52-2.94,6.51-6.55,6.51Z"/>
    <path class="cls-7" d="M518.61,173.11c-2.21,0-4,1.78-4,3.99s1.79,3.98,4,3.98,4-1.78,4-3.98-1.79-3.99-4-3.99ZM518.61,174.06c-1.68,0-3.06,1.36-3.06,3.04s1.38,3.03,3.06,3.03,3.05-1.36,3.05-3.03-1.37-3.04-3.05-3.04ZM518.61,174.06c-1.68,0-3.06,1.36-3.06,3.04s1.38,3.03,3.06,3.03,3.05-1.36,3.05-3.03-1.37-3.04-3.05-3.04Z"/>
    <path class="cls-7" d="M449.96,101.7h-13.19c-.78,0-1.41-.63-1.41-1.41v-13.12c0-.78-.63-1.41-1.41-1.41h-12.42c-.78,0-1.41.63-1.41,1.41v13.12c0,.78-.63,1.41-1.41,1.41h-13.19c-.78,0-1.41.63-1.41,1.41v12.36c0,.78.63,1.41,1.41,1.41h13.19c.78,0,1.41.63,1.41,1.41v13.12c0,.78.63,1.41,1.41,1.41h12.42c.78,0,1.41-.63,1.41-1.41v-13.12c0-.78.63-1.41,1.41-1.41h13.19c.78,0,1.41-.63,1.41-1.41v-12.36c0-.78-.63-1.41-1.41-1.41Z"/>
  </g>
  <g>
    <path class="cls-8" d="M544.4,55.13c-1.05-1.05-2.47-1.63-3.95-1.63h-43.69c-3.07,0-5.58,2.5-5.58,5.57v1.88c0,1.49.58,2.89,1.64,3.94,1.04,1.05,2.46,1.64,3.94,1.63h43.69c1.48.01,2.9-.58,3.95-1.63,1.05-1.04,1.64-2.46,1.63-3.94v-1.88c0-1.48-.58-2.9-1.63-3.94ZM545.39,60.95c0,2.68-2.19,4.86-4.87,4.86h-43.82c-1.3,0-2.53-.51-3.45-1.43-.92-.91-1.42-2.13-1.42-3.43v-1.88c0-1.29.5-2.51,1.42-3.43s2.16-1.43,3.45-1.42h43.82c1.3,0,2.52.5,3.44,1.42.92.91,1.43,2.14,1.43,3.43v1.88Z"/>
    <path class="cls-8" d="M541.95,56.75c-.4,0-.71.31-.71.69s.31.7.71.7.71-.31.71-.7-.32-.69-.71-.69ZM541.95,58.04c-.33,0-.59-.26-.59-.59h0c0-.33.26-.59.59-.59s.58.26.58.58-.25.6-.58.6ZM515.96,57.96v-.57h-1.7v.57h-1.24v.49h1.24v4.23h1.7v-4.23h1.25v-.49h-1.25ZM527.35,58.18c-.7,0-1.79.39-2.06.69v-.42h-1.7v4.23h1.7v-2.57c0-1.51,2.12-1.48,2.12.06v2.51h1.7v-3.08c0-.73-.85-1.42-1.76-1.42ZM510.96,58.18c-.7,0-1.78.39-2.05.69v-.42h-1.69v4.22h1.69v-2.56c0-1.51,2.11-1.48,2.11.06v2.5h1.69v-3.07c0-.73-.85-1.42-1.75-1.42ZM500.97,56.46v3.88c-.02.3-.22.33-.32.18l-2.68-4.06h-1.85v6.22h1.7v-4.14c.01-.29.25-.44.48-.12l2.83,4.26h1.53v-6.22h-1.69ZM504.09,58.45v4.22h1.69v-4.22h-1.69ZM504.09,56.46v1.21h1.69v-1.21h-1.69Z"/>
    <path class="cls-8" d="M533.61,56.46v2.29c-.48-.35-1.12-.48-1.39-.45-.42.05-2.18-.06-2.18,2.2,0,2.09,1.09,2.33,2.18,2.33.51,0,.97-.18,1.39-.45v.3h1.7v-6.22h-1.7ZM533.61,61.74c-1.12,1-1.7.06-1.7-.67v-1.08c0-1.15,1.25-1.24,1.7-.55v2.3ZM522.69,60.55v-.05c0-1.27-1.26-2.3-2.82-2.3s-2.81,1.03-2.81,2.3,1.26,2.3,2.81,2.3c1.27,0,2.34-.68,2.69-1.62h-1.84v.35c0,.46-.38.84-.85.84s-.84-.38-.84-.84v-.98h3.66ZM519.03,59.54c0-.47.38-.85.84-.85s.85.38.85.85v.37h-1.69v-.37ZM539.03,58.2c-1.56,0-2.83,1.03-2.83,2.3s1.27,2.31,2.83,2.31,2.82-1.04,2.82-2.31-1.26-2.3-2.82-2.3ZM539.87,61.53c0,.46-.38.84-.84.84s-.85-.38-.85-.84v-1.99c0-.47.38-.85.85-.85s.84.38.84.85v1.99ZM542.24,57.76c-.07-.1-.14-.2-.21-.31.12-.03.19-.1.19-.21s-.08-.18-.23-.18h-.3v.78s.05-.01.08-.01.05,0,.08.01v-.37h.04l.21.37s.06-.01.09-.01.06,0,.09.01l-.04-.08ZM541.85,57.44v-.31h.06c.07,0,.13.01.13.14,0,.12-.06.18-.19.17Z"/>
  </g>
</svg>