<?xml version="1.0" encoding="UTF-8"?>
<svg id="Layer_1" data-name="Layer 1" xmlns="http://www.w3.org/2000/svg" viewBox="0 0 560 320">
  <defs>
    <style>
      .cls-1 {
        fill: #372869;
      }

      .cls-2 {
        fill: #fff;
      }

      .cls-3 {
        fill: #e1131f;
      }

      .cls-4 {
        fill: #bca3ce;
        stroke: #553f98;
        stroke-miterlimit: 10;
        stroke-width: .5px;
      }

      .cls-5 {
        fill: #553f98;
      }
    </style>
  </defs>
  <rect class="cls-1" x=".76" y="-.02" width="559.24" height="320"/>
  <path class="cls-5" d="M405.14-.12c-3.45,16.81-8.27,33.52-14.2,49.97-.77,2.14-1.56,4.27-2.37,6.4-3.15,8.31-6.6,16.53-10.28,24.65-5.58,12.3-11.73,24.36-18.36,36.11-.66,1.19-1.34,2.38-2.03,3.56-.5.88-1,1.74-1.5,2.61h0c-10.64,18.29-22.38,35.76-34.79,52.08-48.21,64.41-136.13,76.41-201.3,120.77-3.92,2.65-7.76,5.44-11.5,8.36-1.03.8-2.04,1.61-3.05,2.44-1.96,1.61-3.9,3.27-5.82,5-2.85,2.53-5.66,5.19-8.43,7.96H-.37V-.12h405.51Z"/>
  <g>
    <path class="cls-2" d="M16.43,68.36v27.64h-6.91v-37.36h5.91l28,27.22v-27.22h6.82v37.36h-5.4l-28.42-27.64Z"/>
    <path class="cls-2" d="M85.74,68.36v27.64h-6.91v-37.36h5.9l28,27.22v-27.22h6.83v37.36h-5.4l-28.41-27.64ZM229.4,68.36v27.64h-6.91v-37.36h5.9l28,27.22v-27.22h6.83v37.36h-5.39l-28.42-27.64ZM66.71,58.64h1.28v37.36h-6.91v-37.36h5.64ZM166.65,58.64h1.27v6.42h-16.67v30.93h-7.19v-30.93h-16.67v-6.42h39.25ZM210.93,58.64h1.29v6.42h-29.63v8.37h22.92v6.42h-22.92v9.72h29.63v6.42h-36.48v-37.36h35.19ZM301.66,89.57h-21.23v-24.51h21.23c6.64,0,9,6.59,9,12.26s-2.36,12.26-9,12.26h0ZM313,64.13c-2.7-3.63-6.7-5.49-11.54-5.49h-27.71v37.36h27.71c4.83,0,8.83-1.94,11.54-5.49,2.54-3.3,3.88-7.86,3.88-13.19s-1.34-9.89-3.88-13.19M363.37,88.05c0,.76-.69,1.52-1.55,1.52h-29.6c-.86,0-1.56-.76-1.56-1.52v-21.47c0-.85.69-1.52,1.56-1.52h29.6c.85,0,1.55.68,1.55,1.52v21.47ZM362.08,58.64h-30.13c-4.36,0-7.92,3.55-7.92,7.95v21.47c0,4.39,3.56,7.94,7.92,7.94h30.13c4.37,0,7.92-3.55,7.92-7.94v-21.47c0-4.39-3.55-7.94-7.92-7.94"/>
  </g>
  <g>
    <path class="cls-1" d="M16.43,26.07v27.64h-6.91V16.35h5.91l28,27.22v-27.22h6.82v37.36h-5.4l-28.42-27.64Z"/>
    <path class="cls-1" d="M85.74,26.07v27.64h-6.91V16.35h5.9l28,27.22v-27.22h6.83v37.36h-5.4l-28.41-27.64ZM229.4,26.07v27.64h-6.91V16.35h5.9l28,27.22v-27.22h6.83v37.36h-5.39l-28.42-27.64ZM66.71,16.35h1.28v37.36h-6.91V16.35h5.64ZM166.65,16.35h1.27v6.42h-16.67v30.93h-7.19v-30.93h-16.67v-6.42h39.25ZM210.93,16.35h1.29v6.42h-29.63v8.37h22.92v6.42h-22.92v9.72h29.63v6.42h-36.48V16.35h35.19ZM301.66,47.28h-21.23v-24.51h21.23c6.64,0,9,6.59,9,12.26s-2.36,12.26-9,12.26h0ZM313,21.84c-2.7-3.63-6.7-5.49-11.54-5.49h-27.71v37.36h27.71c4.83,0,8.83-1.94,11.54-5.49,2.54-3.3,3.88-7.86,3.88-13.19s-1.34-9.89-3.88-13.19M363.37,45.76c0,.76-.69,1.52-1.55,1.52h-29.6c-.86,0-1.56-.76-1.56-1.52v-21.47c0-.85.69-1.52,1.56-1.52h29.6c.85,0,1.55.68,1.55,1.52v21.47ZM362.08,16.35h-30.13c-4.36,0-7.92,3.55-7.92,7.95v21.47c0,4.39,3.56,7.94,7.92,7.94h30.13c4.37,0,7.92-3.55,7.92-7.94v-21.47c0-4.39-3.55-7.94-7.92-7.94"/>
  </g>
  <g>
    <rect class="cls-1" x="9.52" y="-.02" width="6.91" height="11.43"/>
    <polygon class="cls-1" points="50.25 -.02 50.25 11.41 44.84 11.41 33.09 -.02 42.09 -.02 43.42 1.27 43.42 -.02 50.25 -.02"/>
    <path class="cls-1" d="M78.83-.02v11.43h6.91V-.02h-6.91ZM112.73-.02v1.29l-1.33-1.29h-8.99l11.75,11.43h5.4V-.02h-6.83ZM222.49-.02v11.43h6.91V-.02h-6.91ZM256.39-.02v1.29l-1.33-1.29h-8.99l11.76,11.43h5.39V-.02h-6.83ZM61.07-.02v11.43h6.92V-.02h-6.92ZM144.06-.02v11.43h7.19V-.02h-7.19ZM182.59,4.99V-.02h-6.84v11.43h36.48v-6.42h-29.64ZM309.16-.02c-1.36,2.87-3.74,5.01-7.5,5.01h-21.23V-.02h-6.67v11.43h27.7c4.84,0,8.84-1.94,11.54-5.49,1.29-1.68,2.27-3.68,2.92-5.94h-6.76ZM363.37-.02v3.49c0,.76-.7,1.52-1.55,1.52h-29.6c-.86,0-1.55-.76-1.55-1.52V-.02h-6.64v3.49c0,4.39,3.56,7.94,7.92,7.94h30.13c4.37,0,7.92-3.55,7.92-7.94V-.02h-6.63Z"/>
  </g>
  <g>
    <path class="cls-1" d="M16.43,194.07v27.64h-6.91v-37.36h5.91l28,27.22v-27.22h6.82v37.36h-5.4l-28.42-27.64Z"/>
    <path class="cls-1" d="M85.74,194.07v27.64h-6.91v-37.36h5.9l28,27.22v-27.22h6.83v37.36h-5.4l-28.41-27.64ZM229.4,194.07v27.64h-6.91v-37.36h5.9l28,27.22v-27.22h6.83v37.36h-5.39l-28.42-27.64ZM66.71,184.35h1.28v37.36h-6.91v-37.36h5.64ZM166.65,184.35h1.27v6.42h-16.67v30.93h-7.19v-30.93h-16.67v-6.42h39.25ZM210.93,184.35h1.29v6.42h-29.63v8.37h22.92v6.42h-22.92v9.72h29.63v6.42h-36.48v-37.36h35.19ZM301.66,215.28h-21.23v-24.51h21.23c6.64,0,9,6.59,9,12.26s-2.36,12.26-9,12.26h0ZM313,189.84c-2.7-3.63-6.7-5.49-11.54-5.49h-27.71v37.36h27.71c4.83,0,8.83-1.94,11.54-5.49,2.54-3.3,3.88-7.86,3.88-13.19s-1.34-9.89-3.88-13.19M363.37,213.76c0,.76-.69,1.52-1.55,1.52h-29.6c-.86,0-1.56-.76-1.56-1.52v-21.47c0-.85.69-1.52,1.56-1.52h29.6c.85,0,1.55.68,1.55,1.52v21.47ZM362.08,184.35h-30.13c-4.36,0-7.92,3.55-7.92,7.95v21.47c0,4.39,3.56,7.94,7.92,7.94h30.13c4.37,0,7.92-3.55,7.92-7.94v-21.47c0-4.39-3.55-7.94-7.92-7.94"/>
  </g>
  <g>
    <path class="cls-1" d="M16.43,151.77v27.64h-6.91v-37.36h5.91l28,27.22v-27.22h6.82v37.36h-5.4l-28.42-27.64Z"/>
    <path class="cls-1" d="M85.74,151.77v27.64h-6.91v-37.36h5.9l28,27.22v-27.22h6.83v37.36h-5.4l-28.41-27.64ZM229.4,151.77v27.64h-6.91v-37.36h5.9l28,27.22v-27.22h6.83v37.36h-5.39l-28.42-27.64ZM66.71,142.05h1.28v37.36h-6.91v-37.36h5.64ZM166.65,142.05h1.27v6.42h-16.67v30.93h-7.19v-30.93h-16.67v-6.42h39.25ZM210.93,142.05h1.29v6.42h-29.63v8.37h22.92v6.42h-22.92v9.72h29.63v6.42h-36.48v-37.36h35.19ZM301.66,172.99h-21.23v-24.51h21.23c6.64,0,9,6.59,9,12.26s-2.36,12.26-9,12.26h0ZM313,147.55c-2.7-3.63-6.7-5.49-11.54-5.49h-27.71v37.36h27.71c4.83,0,8.83-1.94,11.54-5.49,2.54-3.3,3.88-7.86,3.88-13.19s-1.34-9.89-3.88-13.19M363.37,171.47c0,.76-.69,1.52-1.55,1.52h-29.6c-.86,0-1.56-.76-1.56-1.52v-21.47c0-.85.69-1.52,1.56-1.52h29.6c.85,0,1.55.68,1.55,1.52v21.47ZM362.08,142.05h-30.13c-4.36,0-7.92,3.55-7.92,7.95v21.47c0,4.39,3.56,7.94,7.92,7.94h30.13c4.37,0,7.92-3.55,7.92-7.94v-21.47c0-4.39-3.55-7.94-7.92-7.94"/>
  </g>
  <g>
    <path class="cls-1" d="M16.43,278.65v27.64h-6.91v-37.36h5.91l28,27.22v-27.22h6.82v37.36h-5.4l-28.42-27.64Z"/>
    <path class="cls-1" d="M85.74,278.65v27.64h-6.91v-37.36h5.9l28,27.22v-27.22h6.83v37.36h-5.4l-28.41-27.64ZM229.4,278.65v27.64h-6.91v-37.36h5.9l28,27.22v-27.22h6.83v37.36h-5.39l-28.42-27.64ZM66.71,268.93h1.28v37.36h-6.91v-37.36h5.64ZM166.65,268.93h1.27v6.42h-16.67v30.93h-7.19v-30.93h-16.67v-6.42h39.25ZM210.93,268.93h1.29v6.42h-29.63v8.37h22.92v6.42h-22.92v9.72h29.63v6.42h-36.48v-37.36h35.19ZM301.66,299.86h-21.23v-24.51h21.23c6.64,0,9,6.59,9,12.26s-2.36,12.26-9,12.26h0ZM313,274.42c-2.7-3.63-6.7-5.49-11.54-5.49h-27.71v37.36h27.71c4.83,0,8.83-1.94,11.54-5.49,2.54-3.3,3.88-7.86,3.88-13.19s-1.34-9.89-3.88-13.19M363.37,298.34c0,.76-.69,1.52-1.55,1.52h-29.6c-.86,0-1.56-.76-1.56-1.52v-21.47c0-.85.69-1.52,1.56-1.52h29.6c.85,0,1.55.68,1.55,1.52v21.47ZM362.08,268.93h-30.13c-4.36,0-7.92,3.55-7.92,7.95v21.47c0,4.39,3.56,7.94,7.92,7.94h30.13c4.37,0,7.92-3.55,7.92-7.94v-21.47c0-4.39-3.55-7.94-7.92-7.94"/>
  </g>
  <g>
    <polygon class="cls-1" points="15.42 311.22 24.43 319.98 9.52 319.98 9.52 311.22 15.42 311.22"/>
    <rect class="cls-1" x="43.42" y="311.22" width="6.83" height="8.76"/>
    <path class="cls-1" d="M112.73,311.22v8.76h6.83v-8.76h-6.83ZM78.83,311.22v8.76h14.91l-9.01-8.76h-5.9ZM256.39,311.22v8.76h6.83v-8.76h-6.83ZM222.49,311.22v8.76h14.91l-9.01-8.76h-5.9ZM61.07,311.22v8.76h6.92v-8.76h-6.92ZM127.39,311.22v6.42h16.67v2.34h7.19v-2.34h16.66v-6.42h-40.52ZM175.75,311.22v8.76h6.84v-2.34h29.64v-6.42h-36.48ZM313,316.71c-2.7-3.63-6.7-5.49-11.54-5.49h-27.7v8.76h6.67v-2.34h21.23c2.46,0,4.33.91,5.72,2.34h7.56c-.53-1.19-1.18-2.29-1.94-3.27ZM362.08,311.22h-30.13c-4.36,0-7.92,3.55-7.92,7.94v.82h6.64v-.82c0-.84.69-1.52,1.55-1.52h29.6c.85,0,1.55.68,1.55,1.52v.82h6.63v-.82c0-4.39-3.55-7.94-7.92-7.94Z"/>
  </g>
  <g>
    <path class="cls-1" d="M16.43,236.36v27.64h-6.91v-37.36h5.91l28,27.22v-27.22h6.82v37.36h-5.4l-28.42-27.64Z"/>
    <path class="cls-1" d="M85.74,236.36v27.64h-6.91v-37.36h5.9l28,27.22v-27.22h6.83v37.36h-5.4l-28.41-27.64ZM229.4,236.36v27.64h-6.91v-37.36h5.9l28,27.22v-27.22h6.83v37.36h-5.39l-28.42-27.64ZM66.71,226.64h1.28v37.36h-6.91v-37.36h5.64ZM166.65,226.64h1.27v6.42h-16.67v30.93h-7.19v-30.93h-16.67v-6.42h39.25ZM210.93,226.64h1.29v6.42h-29.63v8.37h22.92v6.42h-22.92v9.72h29.63v6.42h-36.48v-37.36h35.19ZM301.66,257.57h-21.23v-24.51h21.23c6.64,0,9,6.59,9,12.26s-2.36,12.26-9,12.26h0ZM313,232.13c-2.7-3.63-6.7-5.49-11.54-5.49h-27.71v37.36h27.71c4.83,0,8.83-1.94,11.54-5.49,2.54-3.3,3.88-7.86,3.88-13.19s-1.34-9.89-3.88-13.19M363.37,256.05c0,.76-.69,1.52-1.55,1.52h-29.6c-.86,0-1.56-.76-1.56-1.52v-21.47c0-.85.69-1.52,1.56-1.52h29.6c.85,0,1.55.68,1.55,1.52v21.47ZM362.08,226.64h-30.13c-4.36,0-7.92,3.55-7.92,7.95v21.47c0,4.39,3.56,7.94,7.92,7.94h30.13c4.37,0,7.92-3.55,7.92-7.94v-21.47c0-4.39-3.55-7.94-7.92-7.94"/>
  </g>
  <g>
    <path class="cls-1" d="M16.43,109.48v27.64h-6.91v-37.36h5.91l28,27.22v-27.22h6.82v37.36h-5.4l-28.42-27.64Z"/>
    <path class="cls-1" d="M85.74,109.48v27.64h-6.91v-37.36h5.9l28,27.22v-27.22h6.83v37.36h-5.4l-28.41-27.64ZM229.4,109.48v27.64h-6.91v-37.36h5.9l28,27.22v-27.22h6.83v37.36h-5.39l-28.42-27.64ZM66.71,99.76h1.28v37.36h-6.91v-37.36h5.64ZM166.65,99.76h1.27v6.42h-16.67v30.93h-7.19v-30.93h-16.67v-6.42h39.25ZM210.93,99.76h1.29v6.42h-29.63v8.37h22.92v6.42h-22.92v9.72h29.63v6.42h-36.48v-37.36h35.19ZM301.66,130.7h-21.23v-24.51h21.23c6.64,0,9,6.59,9,12.26s-2.36,12.26-9,12.26h0ZM313,105.26c-2.7-3.63-6.7-5.49-11.54-5.49h-27.71v37.36h27.71c4.83,0,8.83-1.94,11.54-5.49,2.54-3.3,3.88-7.86,3.88-13.19s-1.34-9.89-3.88-13.19M363.37,129.18c0,.76-.69,1.52-1.55,1.52h-29.6c-.86,0-1.56-.76-1.56-1.52v-21.47c0-.85.69-1.52,1.56-1.52h29.6c.85,0,1.55.68,1.55,1.52v21.47ZM362.08,99.76h-30.13c-4.36,0-7.92,3.55-7.92,7.95v21.47c0,4.39,3.56,7.94,7.92,7.94h30.13c4.37,0,7.92-3.55,7.92-7.94v-21.47c0-4.39-3.55-7.94-7.92-7.94"/>
  </g>
  <g>
    <path class="cls-3" d="M73.14,246.03c0,1.15-.94,2.18-2.1,2.18H30.77c-1.17,0-2.12-1.03-2.12-2.18v-29.1c0-1.15.94-2.07,2.12-2.07h40.27c1.16,0,2.1.92,2.1,2.07v29.1ZM71.4,206.12H30.4c-5.93,0-10.78,4.83-10.78,10.81v29.21c0,5.87,4.84,10.81,10.78,10.81h41c5.95,0,10.78-4.94,10.78-10.81v-29.21c0-5.98-4.83-10.81-10.78-10.81"/>
    <path class="cls-2" d="M73.14,189.22c0,1.03-.94,2.07-2.1,2.07H30.77c-1.17,0-2.12-1.03-2.12-2.07v-29.21c0-1.15.94-2.07,2.12-2.07h40.27c1.16,0,2.1.92,2.1,2.07v29.21ZM71.4,149.2H30.4c-5.93,0-10.78,4.83-10.78,10.81v29.21c0,5.98,4.84,10.81,10.78,10.81h41c5.95,0,10.78-4.83,10.78-10.81v-29.21c0-5.98-4.83-10.81-10.78-10.81M242.17,235.45c9.75,3.91,30.35,7.02,46.42,7.02,17.59,0,24.87-5.98,24.87-13.57,0-6.9-6.76-10.81-26.18-17.94-25.98-9.54-45.03-17.13-45.03-34.27s22.93-28.06,57.88-28.06c18.77,0,25.21,1.15,37.12,3.34l.09,16.79c-11.71-2.18-22.08-5.98-38.19-5.98-17.27,0-24.63,5.52-24.63,11.16,0,8.16,11.34,12.07,31.22,19.2,27.68,9.89,43.08,17.48,43.08,34.15s-19.29,29.67-62.78,29.67c-17.86,0-30.17-1.15-43.87-3.45v-18.05ZM149.6,163.46h-20.7v78.43h20.7c31.77,0,51.82-13.68,51.82-39.1s-20.04-39.33-51.82-39.33h0ZM205.15,249.13c-10.24,4.6-29.6,7.59-46.53,7.59h-64.7v-107.87h64.7c16.93,0,36.29,2.99,46.55,7.59,24.92,11.27,33.04,29.32,33.04,46.34s-8.05,35.08-33.06,46.34"/>
  </g>
  <g>
    <path class="cls-4" d="M560,168.56v138.54h-151.1c-5.87,0-10.64-4.77-10.64-10.64v-127.9h161.74Z"/>
    <path class="cls-4" d="M408.85,12.42h151.15v137.23h-161.74V23.02c0-5.85,4.75-10.6,10.59-10.6Z"/>
    <rect class="cls-4" x="431.84" y="132.28" width="128.16" height="19.41"/>
    <g>
      <path class="cls-4" d="M560,27.06v113.96h-91.91c-.98,0-1.78-.79-1.78-1.77V28.83c0-.98.8-1.78,1.78-1.78h0s91.91.01,91.91.01Z"/>
      <path class="cls-4" d="M468.09,26.75c-1.15,0-2.09.93-2.09,2.08v110.42c0,1.15.94,2.08,2.09,2.08h91.91v-.62h-91.91c-.81,0-1.47-.65-1.47-1.46V28.83c0-.81.66-1.47,1.47-1.47h91.91v-.61h-91.91Z"/>
    </g>
    <g>
      <path class="cls-4" d="M560,34.21v99.58h-85.22c-.76,0-1.39-.62-1.39-1.38V35.6c0-.77.62-1.39,1.39-1.39h85.22Z"/>
      <path class="cls-4" d="M474.78,34.29c-.72,0-1.31.58-1.31,1.31v96.81c0,.72.59,1.3,1.31,1.3h85.22V34.29h-85.22ZM474.78,34.13c-.8,0-1.46.66-1.46,1.47v96.81c0,.8.66,1.46,1.46,1.46h85.22v-.16h-85.22c-.72,0-1.31-.58-1.31-1.3V35.6c0-.73.59-1.31,1.31-1.31h85.22v-.16h-85.22Z"/>
    </g>
    <g>
      <path class="cls-4" d="M560,175.51v113.97h-91.91c-.98,0-1.78-.8-1.78-1.78v-110.41c0-.98.8-1.78,1.78-1.78h91.91Z"/>
      <path class="cls-4" d="M468.09,175.2c-1.15,0-2.09.94-2.09,2.09v110.41c0,1.15.94,2.09,2.09,2.09h91.91v-.62h-91.91c-.81,0-1.47-.66-1.47-1.47v-110.41c0-.81.66-1.47,1.47-1.47h91.91v-.62h-91.91Z"/>
    </g>
    <g>
      <path class="cls-4" d="M560,182.67v99.58h-85.22c-.76,0-1.38-.62-1.38-1.39v-96.8c0-.77.62-1.39,1.38-1.39h85.22Z"/>
      <path class="cls-4" d="M474.78,182.75c-.72,0-1.31.58-1.31,1.31v96.8c0,.73.59,1.31,1.31,1.31h85.22v-99.42h-85.22ZM474.78,182.59c-.8,0-1.46.66-1.46,1.47v96.8c0,.81.66,1.47,1.46,1.47h85.22v-.16h-85.22c-.72,0-1.31-.58-1.31-1.31v-96.8c0-.73.59-1.31,1.31-1.31h85.22v-.16h-85.22Z"/>
    </g>
    <circle class="cls-4" cx="421.05" cy="81.38" r="1.51"/>
    <circle class="cls-4" cx="431.84" cy="81.38" r="1.51"/>
    <circle class="cls-4" cx="442.63" cy="81.38" r="1.51"/>
    <rect class="cls-4" x="427.46" y="150.56" width="132.54" height="18"/>
    <circle class="cls-4" cx="421.05" cy="92.12" r="1.51"/>
    <circle class="cls-4" cx="431.84" cy="92.12" r="1.51"/>
    <rect class="cls-4" x="431.91" y="150.56" width="128.09" height="18"/>
    <path class="cls-4" d="M430.76,168.56h-23.51c-4.97,0-9-4.03-9-9h0c0-4.97,4.03-9,9-9h23.51v17.99h0Z"/>
    <circle class="cls-4" cx="442.63" cy="92.12" r="1.51"/>
    <rect class="cls-4" x="538.86" y="154.85" width="2.69" height="8.02" rx="1.34" ry="1.34"/>
    <g>
      <path class="cls-4" d="M425.16,239.77c-.88,0-1.59-.71-1.59-1.59v-11.15h-11.16c-.87,0-1.59-.71-1.59-1.59v-10.13c0-.88.71-1.59,1.59-1.59h11.16v-11.16c0-.88.71-1.59,1.59-1.59h10.13c.88,0,1.59.71,1.59,1.59v11.16h11.15c.88,0,1.59.71,1.59,1.59v10.13c0,.88-.71,1.59-1.59,1.59h-11.15v11.15c0,.88-.71,1.59-1.59,1.59h-10.13Z"/>
      <path class="cls-4" d="M448.03,213.34h-10.77v-10.77c0-1.09-.89-1.98-1.97-1.98h-10.13c-1.09,0-1.98.89-1.98,1.98v10.77h-10.77c-1.08,0-1.97.88-1.97,1.97v10.13c0,1.09.89,1.98,1.97,1.98h10.77v10.76c0,1.09.89,1.98,1.98,1.98h10.13c1.08,0,1.97-.89,1.97-1.98v-10.76h10.77c1.09,0,1.98-.89,1.98-1.98v-10.13c0-1.09-.89-1.97-1.98-1.97ZM449.23,225.44c0,.66-.54,1.2-1.2,1.2h-11.54v11.54c0,.67-.54,1.2-1.2,1.2h-10.13c-.67,0-1.2-.53-1.2-1.2v-11.54h-11.55c-.66,0-1.2-.54-1.2-1.2v-10.13c0-.66.54-1.2,1.2-1.2h11.55v-11.54c0-.67.53-1.2,1.2-1.2h10.13c.66,0,1.2.53,1.2,1.2v11.54h11.54c.66,0,1.2.54,1.2,1.2v10.13Z"/>
    </g>
    <rect class="cls-4" x="433" y="138.26" width="7.81" height="7.46" rx="1.64" ry="1.64"/>
    <rect class="cls-4" x="433.34" y="24.73" width="7.81" height="7.46" rx="1.64" ry="1.64"/>
    <rect class="cls-4" x="429.64" y="205.21" width="1.04" height="7.25"/>
    <rect class="cls-4" x="429.64" y="228.29" width="1.04" height="7.25"/>
    <rect class="cls-4" x="414.98" y="219.86" width="7.25" height="1.04"/>
    <rect class="cls-4" x="438.07" y="219.86" width="7.25" height="1.04"/>
  </g>
</svg>