<?xml version="1.0" encoding="UTF-8"?>
<svg id="Layer_1" data-name="Layer 1" xmlns="http://www.w3.org/2000/svg" viewBox="0 0 560 320">
  <defs>
    <style>
      .cls-1 {
        fill: #372869;
      }

      .cls-2 {
        fill: #e1131f;
      }

      .cls-3 {
        fill: #bca3ce;
        stroke: #553f98;
        stroke-linejoin: round;
        stroke-width: .5px;
      }

      .cls-4 {
        fill: #553f98;
      }
    </style>
  </defs>
  <rect class="cls-1" x=".76" y="-.02" width="559.24" height="320"/>
  <path class="cls-4" d="M405.14-.12c-3.45,16.81-8.27,33.52-14.2,49.97-.77,2.14-1.56,4.27-2.37,6.4-3.15,8.31-6.6,16.53-10.28,24.65-5.58,12.3-11.73,24.36-18.36,36.11-.66,1.19-1.34,2.38-2.03,3.56-.5.88-1,1.74-1.5,2.61h0c-10.64,18.29-22.38,35.76-34.79,52.08-48.21,64.41-136.13,76.41-201.3,120.77-3.92,2.65-7.76,5.44-11.5,8.36-1.03.8-2.04,1.61-3.05,2.44-1.96,1.61-3.9,3.27-5.82,5-2.85,2.53-5.66,5.19-8.43,7.96H-.37V-.12h405.51Z"/>
  <path class="cls-2" d="M11.76,53.55h14.79l20.34,32.87v-32.87h14.59v47.05h-14.59l-20.55-32.87v32.87h-14.59v-47.05ZM140.58,58.27h14.18v6.57h7.81v4.52h-7.81v31.23h-14.18v-31.23h-7.6v-4.52h7.6v-6.57ZM69.49,100.6v-31.23h14.18v31.23h-14.18ZM69.49,63.2v-9.66h14.18v9.66h-14.18ZM318.09,67.11c-11.51,0-20.75,7.81-20.75,17.67s9.25,17.67,20.75,17.67,20.75-8.01,20.75-17.67c-.21-9.66-9.45-17.67-20.75-17.67M323.64,84.78v6.57c0,4.93-2.88,6.99-5.75,6.99s-5.75-2.05-5.75-6.99v-13.35c0-4.93,2.88-6.99,5.75-6.99s5.75,2.05,5.75,6.99v6.78ZM278.85,84.78v-5.55c0-4.93-3.29-6.16-5.55-6.16s-5.55,1.23-5.55,6.16v11.09c0,4.93,3.29,6.16,5.55,6.16s5.55-1.23,5.55-6.16v-5.55ZM278.65,53.55h13.97v47.05h-14.18v-1.85c-5.34,3.49-11.51,3.49-16.44,1.23-1.23-.62-9.66-4.52-9.66-15.61,0-8.22,7.81-17.26,18.08-16.44,3.29.41,5.75,1.64,8.01,2.88.21-7.19.21-17.26.21-17.26h0ZM116.95,67.93c5.34-.21,16.03,3.29,16.03,15.82v17.05h-14.18v-20.55c0-2.67-2.67-5.75-6.57-5.75s-6.78,2.88-6.78,5.75v20.55h-14.18v-31.23h14.18v3.29c2.88-2.88,6.78-4.93,11.51-4.93M232.21,67.93c5.34-.21,16.03,3.29,16.03,15.82v17.05h-14.18v-20.55c0-2.67-2.67-5.75-6.37-5.75-3.9,0-6.78,2.88-6.78,5.75v20.55h-13.97v-31.23h13.97v3.29c2.67-2.88,6.57-4.93,11.3-4.93M187.42,89.71v1.85c0,5.75-3.7,6.99-5.96,6.99-2.05,0-5.96-1.23-5.96-6.99v-6.37h26.71c0-9.66-9.45-17.67-20.96-17.67s-20.96,7.81-20.96,17.67,9.45,17.67,20.96,17.67c9.66,0,17.67-5.34,20.13-12.74h-13.97M175.71,80.26c0-2.67,0-4.52,1.03-6.16,1.03-1.85,3.08-2.88,4.93-2.88s3.9.82,4.93,2.88c.82,1.64.82,3.49.82,6.16h-11.71ZM339.67,60.53h1.03c1.03,0,1.64-.41,1.64-1.23s-.62-1.23-1.85-1.23h-.82v2.47ZM346.65,61.15c0,3.29-2.67,5.96-5.96,5.96s-5.96-2.67-5.96-5.96,2.67-5.75,5.96-5.75,5.96,2.47,5.96,5.75ZM340.69,53.96c-3.9,0-7.19,3.29-7.19,7.19,0,4.11,3.29,7.19,7.19,7.19,4.11,0,7.19-3.29,7.19-7.19.21-3.9-3.08-7.19-7.19-7.19ZM340.9,57.04c2.26,0,3.49.82,3.49,2.26,0,1.03-.62,1.85-1.85,2.26l1.85,3.49h-2.05l-1.44-3.29h-1.23v3.29h-1.85v-8.01h3.08Z"/>
  <path class="cls-1" d="M11.76-1h14.79l20.34,32.87V-1h14.59v47.05h-14.59L26.34,13.18v32.87h-14.59V-1ZM140.58,3.73h14.18v6.57h7.81v4.52h-7.81v31.23h-14.18V14.82h-7.6v-4.52h7.6V3.73ZM69.49,46.05V14.82h14.18v31.23h-14.18ZM69.49,8.66V-1h14.18v9.66h-14.18ZM318.09,12.56c-11.51,0-20.75,7.81-20.75,17.67s9.25,17.67,20.75,17.67,20.75-8.01,20.75-17.67c-.21-9.66-9.45-17.67-20.75-17.67M323.64,30.23v6.57c0,4.93-2.88,6.99-5.75,6.99s-5.75-2.05-5.75-6.99v-13.35c0-4.93,2.88-6.99,5.75-6.99s5.75,2.05,5.75,6.99v6.78ZM278.85,30.23v-5.55c0-4.93-3.29-6.16-5.55-6.16s-5.55,1.23-5.55,6.16v11.09c0,4.93,3.29,6.16,5.55,6.16s5.55-1.23,5.55-6.16v-5.55ZM278.65-1h13.97v47.05h-14.18v-1.85c-5.34,3.49-11.51,3.49-16.44,1.23-1.23-.62-9.66-4.52-9.66-15.61,0-8.22,7.81-17.26,18.08-16.44,3.29.41,5.75,1.64,8.01,2.88.21-7.19.21-17.26.21-17.26h0ZM116.95,13.38c5.34-.21,16.03,3.29,16.03,15.82v17.05h-14.18v-20.55c0-2.67-2.67-5.75-6.57-5.75s-6.78,2.88-6.78,5.75v20.55h-14.18V15.03h14.18v3.29c2.88-2.88,6.78-4.93,11.51-4.93M232.21,13.38c5.34-.21,16.03,3.29,16.03,15.82v17.05h-14.18v-20.55c0-2.67-2.67-5.75-6.37-5.75-3.9,0-6.78,2.88-6.78,5.75v20.55h-13.97V15.03h13.97v3.29c2.67-2.88,6.57-4.93,11.3-4.93M187.42,35.16v1.85c0,5.75-3.7,6.99-5.96,6.99-2.05,0-5.96-1.23-5.96-6.99v-6.37h26.71c0-9.66-9.45-17.67-20.96-17.67s-20.96,7.81-20.96,17.67,9.45,17.67,20.96,17.67c9.66,0,17.67-5.34,20.13-12.74h-13.97M175.71,25.71c0-2.67,0-4.52,1.03-6.16,1.03-1.85,3.08-2.88,4.93-2.88s3.9.82,4.93,2.88c.82,1.64.82,3.49.82,6.16h-11.71ZM339.67,5.99h1.03c1.03,0,1.64-.41,1.64-1.23s-.62-1.23-1.85-1.23h-.82v2.47ZM346.65,6.6c0,3.29-2.67,5.96-5.96,5.96s-5.96-2.67-5.96-5.96,2.67-5.75,5.96-5.75,5.96,2.47,5.96,5.75ZM340.69-.59c-3.9,0-7.19,3.29-7.19,7.19,0,4.11,3.29,7.19,7.19,7.19,4.11,0,7.19-3.29,7.19-7.19.21-3.9-3.08-7.19-7.19-7.19ZM340.9,2.49c2.26,0,3.49.82,3.49,2.26,0,1.03-.62,1.85-1.85,2.26l1.85,3.49h-2.05l-1.44-3.29h-1.23v3.29h-1.85V2.49h3.08Z"/>
  <path class="cls-1" d="M11.76,108.09h14.79l20.34,32.87v-32.87h14.59v47.05h-14.59l-20.55-32.87v32.87h-14.59v-47.05ZM140.58,112.82h14.18v6.57h7.81v4.52h-7.81v31.23h-14.18v-31.23h-7.6v-4.52h7.6v-6.57ZM69.49,155.14v-31.23h14.18v31.23h-14.18ZM69.49,117.75v-9.66h14.18v9.66h-14.18ZM318.09,121.65c-11.51,0-20.75,7.81-20.75,17.67s9.25,17.67,20.75,17.67,20.75-8.01,20.75-17.67c-.21-9.66-9.45-17.67-20.75-17.67M323.64,139.32v6.57c0,4.93-2.88,6.99-5.75,6.99s-5.75-2.05-5.75-6.99v-13.35c0-4.93,2.88-6.99,5.75-6.99s5.75,2.05,5.75,6.99v6.78ZM278.85,139.32v-5.55c0-4.93-3.29-6.16-5.55-6.16s-5.55,1.23-5.55,6.16v11.09c0,4.93,3.29,6.16,5.55,6.16s5.55-1.23,5.55-6.16v-5.55ZM278.65,108.09h13.97v47.05h-14.18v-1.85c-5.34,3.49-11.51,3.49-16.44,1.23-1.23-.62-9.66-4.52-9.66-15.61,0-8.22,7.81-17.26,18.08-16.44,3.29.41,5.75,1.64,8.01,2.88.21-7.19.21-17.26.21-17.26h0ZM116.95,122.48c5.34-.21,16.03,3.29,16.03,15.82v17.05h-14.18v-20.55c0-2.67-2.67-5.75-6.57-5.75s-6.78,2.88-6.78,5.75v20.55h-14.18v-31.23h14.18v3.29c2.88-2.88,6.78-4.93,11.51-4.93M232.21,122.48c5.34-.21,16.03,3.29,16.03,15.82v17.05h-14.18v-20.55c0-2.67-2.67-5.75-6.37-5.75-3.9,0-6.78,2.88-6.78,5.75v20.55h-13.97v-31.23h13.97v3.29c2.67-2.88,6.57-4.93,11.3-4.93M187.42,144.25v1.85c0,5.75-3.7,6.99-5.96,6.99-2.05,0-5.96-1.23-5.96-6.99v-6.37h26.71c0-9.66-9.45-17.67-20.96-17.67s-20.96,7.81-20.96,17.67,9.45,17.67,20.96,17.67c9.66,0,17.67-5.34,20.13-12.74h-13.97M175.71,134.8c0-2.67,0-4.52,1.03-6.16,1.03-1.85,3.08-2.88,4.93-2.88s3.9.82,4.93,2.88c.82,1.64.82,3.49.82,6.16h-11.71ZM339.67,115.08h1.03c1.03,0,1.64-.41,1.64-1.23s-.62-1.23-1.85-1.23h-.82v2.47ZM346.65,115.7c0,3.29-2.67,5.96-5.96,5.96s-5.96-2.67-5.96-5.96,2.67-5.75,5.96-5.75,5.96,2.47,5.96,5.75ZM340.69,108.5c-3.9,0-7.19,3.29-7.19,7.19,0,4.11,3.29,7.19,7.19,7.19,4.11,0,7.19-3.29,7.19-7.19.21-3.9-3.08-7.19-7.19-7.19ZM340.9,111.59c2.26,0,3.49.82,3.49,2.26,0,1.03-.62,1.85-1.85,2.26l1.85,3.49h-2.05l-1.44-3.29h-1.23v3.29h-1.85v-8.01h3.08Z"/>
  <path class="cls-1" d="M11.76,217.19h14.79l20.34,32.87v-32.87h14.59v47.05h-14.59l-20.55-32.87v32.87h-14.59v-47.05ZM140.58,221.91h14.18v6.57h7.81v4.52h-7.81v31.23h-14.18v-31.23h-7.6v-4.52h7.6v-6.57ZM69.49,264.24v-31.23h14.18v31.23h-14.18ZM69.49,226.84v-9.66h14.18v9.66h-14.18ZM318.09,230.75c-11.51,0-20.75,7.81-20.75,17.67s9.25,17.67,20.75,17.67,20.75-8.01,20.75-17.67c-.21-9.66-9.45-17.67-20.75-17.67M323.64,248.42v6.57c0,4.93-2.88,6.99-5.75,6.99s-5.75-2.05-5.75-6.99v-13.35c0-4.93,2.88-6.99,5.75-6.99s5.75,2.05,5.75,6.99v6.78ZM278.85,248.42v-5.55c0-4.93-3.29-6.16-5.55-6.16s-5.55,1.23-5.55,6.16v11.09c0,4.93,3.29,6.16,5.55,6.16s5.55-1.23,5.55-6.16v-5.55ZM278.65,217.19h13.97v47.05h-14.18v-1.85c-5.34,3.49-11.51,3.49-16.44,1.23-1.23-.62-9.66-4.52-9.66-15.61,0-8.22,7.81-17.26,18.08-16.44,3.29.41,5.75,1.64,8.01,2.88.21-7.19.21-17.26.21-17.26h0ZM116.95,231.57c5.34-.21,16.03,3.29,16.03,15.82v17.05h-14.18v-20.55c0-2.67-2.67-5.75-6.57-5.75s-6.78,2.88-6.78,5.75v20.55h-14.18v-31.23h14.18v3.29c2.88-2.88,6.78-4.93,11.51-4.93M232.21,231.57c5.34-.21,16.03,3.29,16.03,15.82v17.05h-14.18v-20.55c0-2.67-2.67-5.75-6.37-5.75-3.9,0-6.78,2.88-6.78,5.75v20.55h-13.97v-31.23h13.97v3.29c2.67-2.88,6.57-4.93,11.3-4.93M187.42,253.35v1.85c0,5.75-3.7,6.99-5.96,6.99-2.05,0-5.96-1.23-5.96-6.99v-6.37h26.71c0-9.66-9.45-17.67-20.96-17.67s-20.96,7.81-20.96,17.67,9.45,17.67,20.96,17.67c9.66,0,17.67-5.34,20.13-12.74h-13.97M175.71,243.9c0-2.67,0-4.52,1.03-6.16,1.03-1.85,3.08-2.88,4.93-2.88s3.9.82,4.93,2.88c.82,1.64.82,3.49.82,6.16h-11.71ZM339.67,224.17h1.03c1.03,0,1.64-.41,1.64-1.23s-.62-1.23-1.85-1.23h-.82v2.47ZM346.65,224.79c0,3.29-2.67,5.96-5.96,5.96s-5.96-2.67-5.96-5.96,2.67-5.75,5.96-5.75,5.96,2.47,5.96,5.75ZM340.69,217.6c-3.9,0-7.19,3.29-7.19,7.19,0,4.11,3.29,7.19,7.19,7.19,4.11,0,7.19-3.29,7.19-7.19.21-3.9-3.08-7.19-7.19-7.19ZM340.9,220.68c2.26,0,3.49.82,3.49,2.26,0,1.03-.62,1.85-1.85,2.26l1.85,3.49h-2.05l-1.44-3.29h-1.23v3.29h-1.85v-8.01h3.08Z"/>
  <path class="cls-1" d="M11.76,162.64h14.79l20.34,32.87v-32.87h14.59v47.05h-14.59l-20.55-32.87v32.87h-14.59v-47.05ZM140.58,167.37h14.18v6.57h7.81v4.52h-7.81v31.23h-14.18v-31.23h-7.6v-4.52h7.6v-6.57ZM69.49,209.69v-31.23h14.18v31.23h-14.18ZM69.49,172.3v-9.66h14.18v9.66h-14.18ZM318.09,176.2c-11.51,0-20.75,7.81-20.75,17.67s9.25,17.67,20.75,17.67,20.75-8.01,20.75-17.67c-.21-9.66-9.45-17.67-20.75-17.67M323.64,193.87v6.57c0,4.93-2.88,6.99-5.75,6.99s-5.75-2.05-5.75-6.99v-13.35c0-4.93,2.88-6.99,5.75-6.99s5.75,2.05,5.75,6.99v6.78ZM278.85,193.87v-5.55c0-4.93-3.29-6.16-5.55-6.16s-5.55,1.23-5.55,6.16v11.09c0,4.93,3.29,6.16,5.55,6.16s5.55-1.23,5.55-6.16v-5.55ZM278.65,162.64h13.97v47.05h-14.18v-1.85c-5.34,3.49-11.51,3.49-16.44,1.23-1.23-.62-9.66-4.52-9.66-15.61,0-8.22,7.81-17.26,18.08-16.44,3.29.41,5.75,1.64,8.01,2.88.21-7.19.21-17.26.21-17.26h0ZM116.95,177.02c5.34-.21,16.03,3.29,16.03,15.82v17.05h-14.18v-20.55c0-2.67-2.67-5.75-6.57-5.75s-6.78,2.88-6.78,5.75v20.55h-14.18v-31.23h14.18v3.29c2.88-2.88,6.78-4.93,11.51-4.93M232.21,177.02c5.34-.21,16.03,3.29,16.03,15.82v17.05h-14.18v-20.55c0-2.67-2.67-5.75-6.37-5.75-3.9,0-6.78,2.88-6.78,5.75v20.55h-13.97v-31.23h13.97v3.29c2.67-2.88,6.57-4.93,11.3-4.93M187.42,198.8v1.85c0,5.75-3.7,6.99-5.96,6.99-2.05,0-5.96-1.23-5.96-6.99v-6.37h26.71c0-9.66-9.45-17.67-20.96-17.67s-20.96,7.81-20.96,17.67,9.45,17.67,20.96,17.67c9.66,0,17.67-5.34,20.13-12.74h-13.97M175.71,189.35c0-2.67,0-4.52,1.03-6.16,1.03-1.85,3.08-2.88,4.93-2.88s3.9.82,4.93,2.88c.82,1.64.82,3.49.82,6.16h-11.71ZM339.67,169.63h1.03c1.03,0,1.64-.41,1.64-1.23s-.62-1.23-1.85-1.23h-.82v2.47ZM346.65,170.24c0,3.29-2.67,5.96-5.96,5.96s-5.96-2.67-5.96-5.96,2.67-5.75,5.96-5.75,5.96,2.47,5.96,5.75ZM340.69,163.05c-3.9,0-7.19,3.29-7.19,7.19,0,4.11,3.29,7.19,7.19,7.19,4.11,0,7.19-3.29,7.19-7.19.21-3.9-3.08-7.19-7.19-7.19ZM340.9,166.13c2.26,0,3.49.82,3.49,2.26,0,1.03-.62,1.85-1.85,2.26l1.85,3.49h-2.05l-1.44-3.29h-1.23v3.29h-1.85v-8.01h3.08Z"/>
  <path class="cls-1" d="M11.76,271.73h14.79l20.34,32.87v-32.87h14.59v47.05h-14.59l-20.55-32.87v32.87h-14.59v-47.05ZM140.58,276.46h14.18v6.57h7.81v4.52h-7.81v31.23h-14.18v-31.23h-7.6v-4.52h7.6v-6.57ZM69.49,318.78v-31.23h14.18v31.23h-14.18ZM69.49,281.39v-9.66h14.18v9.66h-14.18ZM318.09,285.29c-11.51,0-20.75,7.81-20.75,17.67s9.25,17.67,20.75,17.67,20.75-8.01,20.75-17.67c-.21-9.66-9.45-17.67-20.75-17.67M323.64,302.96v6.57c0,4.93-2.88,6.99-5.75,6.99s-5.75-2.05-5.75-6.99v-13.35c0-4.93,2.88-6.99,5.75-6.99s5.75,2.05,5.75,6.99v6.78ZM278.85,302.96v-5.55c0-4.93-3.29-6.16-5.55-6.16s-5.55,1.23-5.55,6.16v11.09c0,4.93,3.29,6.16,5.55,6.16s5.55-1.23,5.55-6.16v-5.55ZM278.65,271.73h13.97v47.05h-14.18v-1.85c-5.34,3.49-11.51,3.49-16.44,1.23-1.23-.62-9.66-4.52-9.66-15.61,0-8.22,7.81-17.26,18.08-16.44,3.29.41,5.75,1.64,8.01,2.88.21-7.19.21-17.26.21-17.26h0ZM116.95,286.12c5.34-.21,16.03,3.29,16.03,15.82v17.05h-14.18v-20.55c0-2.67-2.67-5.75-6.57-5.75s-6.78,2.88-6.78,5.75v20.55h-14.18v-31.23h14.18v3.29c2.88-2.88,6.78-4.93,11.51-4.93M232.21,286.12c5.34-.21,16.03,3.29,16.03,15.82v17.05h-14.18v-20.55c0-2.67-2.67-5.75-6.37-5.75-3.9,0-6.78,2.88-6.78,5.75v20.55h-13.97v-31.23h13.97v3.29c2.67-2.88,6.57-4.93,11.3-4.93M187.42,307.89v1.85c0,5.75-3.7,6.99-5.96,6.99-2.05,0-5.96-1.23-5.96-6.99v-6.37h26.71c0-9.66-9.45-17.67-20.96-17.67s-20.96,7.81-20.96,17.67,9.45,17.67,20.96,17.67c9.66,0,17.67-5.34,20.13-12.74h-13.97M175.71,298.44c0-2.67,0-4.52,1.03-6.16,1.03-1.85,3.08-2.88,4.93-2.88s3.9.82,4.93,2.88c.82,1.64.82,3.49.82,6.16h-11.71ZM339.67,278.72h1.03c1.03,0,1.64-.41,1.64-1.23s-.62-1.23-1.85-1.23h-.82v2.47ZM346.65,279.34c0,3.29-2.67,5.96-5.96,5.96s-5.96-2.67-5.96-5.96,2.67-5.75,5.96-5.75,5.96,2.47,5.96,5.75ZM340.69,272.15c-3.9,0-7.19,3.29-7.19,7.19,0,4.11,3.29,7.19,7.19,7.19,4.11,0,7.19-3.29,7.19-7.19.21-3.9-3.08-7.19-7.19-7.19ZM340.9,275.23c2.26,0,3.49.82,3.49,2.26,0,1.03-.62,1.85-1.85,2.26l1.85,3.49h-2.05l-1.44-3.29h-1.23v3.29h-1.85v-8.01h3.08Z"/>
  <g>
    <path class="cls-2" d="M30.09,144.38H8.94v16.06c0,1.54,3.13,3.46,4.54,3.46h16.6v-4.07h-14.3c-.74,0-1.57-1.24-1.57-1.97,0-.6.92-1.69,1.43-1.69h13.49v-3.79h-13.21c-1.05,0-2.03-1.34-1.59-2.41.08-.21.88-.98,1.05-.98h14.7v-4.61ZM289.76,144.38h-21.28v15.79c0,1.72,2.97,3.73,4.54,3.73h16.53l.2-.2v-3.86h-14.43c-.59,0-1.57-1.32-1.56-1.97,0-.56.93-1.69,1.43-1.69h13.49v-3.79h-13.21c-.67,0-1.63-.9-1.69-1.57-.06-.63.67-1.82,1.29-1.82h14.5l.2-.2v-4.4ZM53.94,163.89h5.9l.2-.2v-13.82c0-1.97-2.51-5.22-4.54-5.22h-21.07v19.24h6.23v-13.21c0-.79.91-1.63,1.69-1.7,3.17-.29,6.8.22,10.03.02.5-.02,1.57,1.02,1.57,1.41v13.49ZM318.63,163.89v-14.98c0-1.44-2.95-4.27-4.4-4.27h-21.07v19.24h6.23v-13.35c0-.17.52-1.06.69-1.21.29-.25.63-.32,1-.36,3.16-.3,6.81.23,10.03.02.6.04,1.57,1,1.57,1.55v13.35h5.96ZM344.11,144.65h-21.82v4.34h7.39c.14,0,.47.33.47.47v14.43h6.1v-14.43c0-.14.33-.47.47-.47h7.39v-4.34ZM93.72,148.98h14.71v-4.61h-21.14v16.06c0,1.54,3.12,3.46,4.54,3.46h16.6v-4.07h-14.3c-1,0-1.97-1.72-1.35-2.71.16-.25.93-.95,1.22-.95h13.48v-3.79h-13.21c-.65,0-1.59-.75-1.69-1.43-.1-.66.52-1.96,1.14-1.96ZM62.62,144.65v4.34h7.52c.11,0,.48.64.48.75v14.16h5.96v-14.16c0-.2.4-.75.61-.75h7.39v-4.34h-21.95ZM135.04,146.55c-.32-.4-1.87-1.91-2.29-1.91h-19.99v19.25h6.23v-3.73c0-.5.82-1.56,1.43-1.55,2.66.17,5.65-.26,8.26-.01.78.07,1.69.91,1.69,1.7v3.59h5.29c-.12-1.68.16-3.57,0-5.22-.09-.89-.78-1.9-.74-2.72.04-.74,1.23-2.23,1.49-3.18.64-2.3.09-4.4-1.37-6.22ZM130.2,153.21c-.29.76-.88.99-1.65,1.06-1.79.16-6.27.21-7.99-.02-1.05-.14-1.49-.81-1.58-1.81-.11-1.21-.09-2.87,1.19-3.43l8.65-.04c.31.02.76.25.97.46.72.72.75,2.87.41,3.78ZM139.19,144.65v4.34h7.52c.24.13.48.79.48,1.02v13.89h5.96v-14.16c0-.11.36-.75.47-.75h7.52v-4.34h-21.96ZM183.17,144.64l-15.42.04c-1.26.22-3.89,3.6-3.89,4.64v14.57h6.24v-5.29h11.38v5.29h6.23v-14.3c0-1.3-2.87-5.11-4.53-4.95ZM181.47,154.07l-.2.2h-11.18v-3.86c0-.38.83-1.37,1.29-1.42,2.64.22,5.82-.32,8.4-.01.81.1,1.69,1.07,1.69,1.83v3.25ZM192.04,144.65v19.25h5.96v-19.25h-5.96ZM222.74,144.65h-21.07v19.25h6.23v-13.49c0-.38.83-1.37,1.29-1.42,3.27.22,6.95-.31,10.16-.01.75.07,1.82.94,1.82,1.7v13.21h5.96v-14.84c0-1.45-2.94-4.4-4.4-4.4ZM259.6,144.65h-28.12v19.25h6.17l.2-.2v-13.42c0-.3.81-1.17,1.18-1.26.48-.11,4.09-.1,4.52.03.32.1,1.21,1.08,1.21,1.36v13.49h6.23v-13.21c0-.79.92-1.63,1.69-1.7.75-.07,3.4-.11,4.04.04.44.1,1.32,1.14,1.32,1.53v13.35h5.96v-14.84c0-1.51-2.88-4.4-4.4-4.4ZM205.12,175.28h14.17v-4.47h-21.14v16.06c0,.53,1.06,1.81,1.5,2.16.72.57,2.42,1.3,3.31,1.3h16.33v-4.2h-14.57c-.49,0-1.3-1.29-1.3-1.83,0-.53.89-1.69,1.3-1.69h13.62v-3.93h-13.75c-.18,0-.97-.77-1.05-.98-.43-1.07.54-2.41,1.59-2.41ZM173.68,170.94l-.2.2v4.13h6.85c.32,0,1.15.36,1.15.74v14.3h5.96v-14.03c0-.08.24-.69.32-.76.05-.04,1.03-.25,1.1-.25h6.57v-4.34h-21.75ZM250.93,170.94h-27.31v19.38h6.24v-13.35c0-.41.65-1.31,1.08-1.49.71-.3,3.69-.31,4.45-.11.62.16,1.52,1.13,1.52,1.74v13.21h6.24v-13.48c0-.29.54-1.04.82-1.22.71-.44,3.78-.48,4.61-.29.45.1,1.48.96,1.48,1.37v13.41l.2.2h5.9v-14.57c0-2.1-3.16-4.81-5.22-4.81ZM119.66,182.95c-.24-1.63-3.12-3.88-4.7-4.11-3.3-.48-7.54.27-10.95-.03-1.12-.1-2-.74-1.82-1.96.09-.6,1-1.43,1.55-1.43h15.92v-4.34h-17.82c-1.24,0-4.33,2.42-4.79,3.6-.22.56-.25,3.11-.14,3.77.24,1.54,3.48,3.76,4.97,3.97l11.42.1c1.18.53,1.86,1.55.94,2.71-.15.19-.84.74-1.02.74h-16.33v4.34h18.36c.05,0,.83-.31.97-.38.93-.43,3.11-2.3,3.37-3.28.15-.58.14-3.08.05-3.72ZM139.39,171.08l-.2.2v7.18c0,.3-1.15,1.3-1.57,1.28-2.58-.16-5.45.24-7.99.01-.41-.04-.79-.12-1.14-.35-.21-.14-.82-.89-.82-1.08v-7.25h-5.96v9.28c0,.89,2.85,3.73,3.73,3.73h4.94v6.23h6.24v-6.23h4.81c1.12,0,3.86-2.86,3.86-4v-9.01h-5.9ZM170.75,183.08c-.23-1.65-3.09-4.02-4.7-4.25-3.3-.48-7.54.27-10.95-.03-1.48-.13-2.71-1.58-1.43-2.79.16-.15,1.02-.6,1.16-.6h15.92v-4.34h-17.82c-1.24,0-4.09,2.21-4.71,3.29-.63,1.1-.56,3.88.1,4.97,2.97,4.84,10.67,2.67,15.45,3.12,1.49.14,2.53,1.53,1.48,2.85-.1.13-.87.68-.94.68h-16.26l-.2.2v4.13h18.5c1.12,0,4.05-2.64,4.34-3.79.15-.59.14-2.81.05-3.45Z"/>
    <path class="cls-2" d="M256.15,190.32h-5.9l-.2-.2v-13.42c0-.41-1.03-1.26-1.48-1.36-.83-.19-3.9-.16-4.61.29-.27.17-.82.93-.82,1.21v13.49h-6.23v-13.21c0-.61-.89-1.58-1.52-1.74-.76-.2-3.74-.19-4.45.11-.43.19-1.08,1.08-1.08,1.49v13.35h-6.23v-19.38h27.31c2.05,0,5.22,2.71,5.22,4.81v14.57Z"/>
    <path class="cls-2" d="M264.01,163.89h-5.96v-13.35c0-.39-.88-1.43-1.32-1.53-.65-.15-3.29-.1-4.04-.03s-1.69.91-1.69,1.7v13.21h-6.23v-13.49c0-.28-.89-1.26-1.21-1.36-.42-.13-4.04-.14-4.52-.03-.37.08-1.18.95-1.18,1.26v13.42l-.2.2h-6.17v-19.24h28.12c1.52,0,4.4,2.9,4.4,4.4v14.84Z"/>
    <path class="cls-2" d="M183.17,144.64l-15.42.04c-1.26.22-3.89,3.6-3.89,4.64v14.57h6.24v-5.29h11.38v5.29h6.23v-14.3c0-1.3-2.87-5.11-4.53-4.95ZM181.47,154.07l-.2.2h-11.18v-3.86c0-.38.83-1.37,1.29-1.42,2.64.22,5.82-.32,8.4-.01.81.1,1.69,1.07,1.69,1.83v3.25Z"/>
    <path class="cls-2" d="M135.04,146.55c-.32-.4-1.87-1.91-2.29-1.91h-19.99v19.25h6.23v-3.73c0-.5.82-1.56,1.43-1.55,2.66.17,5.65-.26,8.26-.01.78.07,1.69.91,1.69,1.7v3.59h5.29c-.12-1.68.16-3.57,0-5.22-.09-.89-.78-1.9-.74-2.72.04-.74,1.23-2.23,1.49-3.18.64-2.3.09-4.4-1.37-6.22ZM130.2,153.21c-.29.76-.88.99-1.65,1.06-1.79.16-6.27.21-7.99-.02-1.05-.14-1.49-.81-1.58-1.81-.11-1.21-.09-2.87,1.19-3.43l8.65-.04c.31.02.76.25.97.46.72.72.75,2.87.41,3.78Z"/>
    <path class="cls-2" d="M219.28,170.8v4.47h-14.16c-1.05,0-2.03,1.34-1.59,2.41.08.21.88.98,1.05.98h13.76v3.93h-13.62c-.41,0-1.3,1.17-1.3,1.69s.81,1.83,1.3,1.83h14.57v4.2h-16.33c-.89,0-2.59-.73-3.31-1.3-.44-.35-1.5-1.63-1.5-2.16v-16.06h21.14Z"/>
    <path class="cls-2" d="M289.76,144.38v4.4l-.2.2h-14.5c-.61,0-1.35,1.18-1.29,1.82.07.67,1.02,1.57,1.69,1.57h13.21v3.79h-13.49c-.49,0-1.42,1.13-1.43,1.69,0,.65.97,1.97,1.56,1.97h14.43v3.86l-.2.2h-16.53c-1.57,0-4.54-2.01-4.54-3.73v-15.79h21.28Z"/>
    <path class="cls-2" d="M30.09,144.38v4.61h-14.7c-.17,0-.96.78-1.05.98-.44,1.07.54,2.41,1.59,2.41h13.21v3.79h-13.49c-.51,0-1.43,1.1-1.43,1.69,0,.73.83,1.97,1.57,1.97h14.3v4.07H13.49c-1.41,0-4.54-1.92-4.54-3.46v-16.06h21.14Z"/>
    <path class="cls-2" d="M108.42,144.38v4.61h-14.7c-.63,0-1.24,1.29-1.14,1.96s1.04,1.43,1.69,1.43h13.21v3.79h-13.49c-.28,0-1.05.7-1.21.95-.62.99.35,2.7,1.35,2.7h14.3v4.07h-16.6c-1.42,0-4.54-1.92-4.54-3.46v-16.06h21.14Z"/>
    <path class="cls-2" d="M170.77,171.07v4.34h-15.92c-.14,0-1,.46-1.16.6-1.29,1.21-.06,2.66,1.42,2.79,3.41.3,7.65-.45,10.95.03,1.61.23,4.47,2.59,4.7,4.25.09.64.1,2.86-.05,3.45-.29,1.15-3.22,3.79-4.34,3.79h-18.5v-4.13l.2-.2h16.26c.07,0,.84-.55.94-.68,1.05-1.32.02-2.71-1.48-2.85-4.78-.45-12.47,1.72-15.45-3.12-.67-1.09-.73-3.87-.11-4.97s3.46-3.29,4.7-3.29h17.82Z"/>
    <path class="cls-2" d="M119.67,171.07v4.34h-15.92c-.55,0-1.46.83-1.55,1.43-.18,1.22.69,1.86,1.82,1.96,3.41.3,7.65-.45,10.95.03,1.58.23,4.47,2.48,4.7,4.11.09.64.1,3.14-.05,3.72-.26.98-2.44,2.85-3.37,3.27-.14.06-.92.38-.97.38h-18.36v-4.34h16.33c.17,0,.87-.56,1.02-.75.92-1.16.23-2.19-.94-2.71l-11.42-.1c-1.49-.22-4.73-2.43-4.97-3.97-.1-.67-.08-3.21.14-3.77.46-1.18,3.56-3.61,4.8-3.61h17.82Z"/>
    <path class="cls-2" d="M53.94,163.89v-13.49c0-.39-1.07-1.43-1.57-1.41-3.22.21-6.85-.31-10.03-.02-.77.07-1.69.91-1.69,1.7v13.21h-6.23v-19.24h21.07c2.03,0,4.54,3.25,4.54,5.22v13.82l-.2.2h-5.9Z"/>
    <path class="cls-2" d="M318.63,163.89h-5.96v-13.35c0-.55-.97-1.51-1.57-1.55-3.21.22-6.87-.32-10.03-.02-.37.04-.71.11-1,.36-.17.15-.69,1.04-.69,1.21v13.35h-6.23v-19.24h21.07c1.46,0,4.4,2.83,4.4,4.27v14.98Z"/>
    <path class="cls-2" d="M227.14,163.89h-5.96v-13.21c0-.76-1.07-1.63-1.82-1.7-3.21-.3-6.9.23-10.16.01-.47.05-1.29,1.04-1.29,1.42v13.49h-6.23v-19.24h21.07c1.46,0,4.4,2.95,4.4,4.4v14.84Z"/>
    <path class="cls-2" d="M127.67,171.07v7.25c0,.19.61.94.82,1.08.35.23.73.31,1.14.35,2.54.22,5.42-.17,7.99-.01.42.03,1.57-.98,1.57-1.28v-7.18l.2-.2h5.9v9.01c0,1.14-2.74,4-3.86,4h-4.81v6.23h-6.23v-6.23h-4.95c-.88,0-3.73-2.83-3.73-3.73v-9.28h5.96Z"/>
    <path class="cls-2" d="M344.11,144.65v4.34h-7.39c-.14,0-.47.33-.47.47v14.43h-6.1v-14.43c0-.14-.33-.47-.47-.47h-7.39v-4.34h21.82Z"/>
    <path class="cls-2" d="M195.43,170.94v4.34h-6.57c-.07,0-1.05.21-1.1.26-.08.07-.32.68-.32.76v14.03h-5.96v-14.3c0-.38-.83-.75-1.15-.75h-6.84v-4.13l.2-.2h21.75Z"/>
    <path class="cls-2" d="M161.14,144.65v4.34h-7.52c-.11,0-.47.64-.47.75v14.16h-5.96v-13.89c0-.22-.24-.89-.47-1.02h-7.52v-4.34h21.96Z"/>
    <path class="cls-2" d="M84.57,144.65v4.34h-7.39c-.21,0-.61.55-.61.75v14.16h-5.96v-14.16c0-.11-.37-.75-.47-.75h-7.52v-4.34h21.96Z"/>
    <rect class="cls-2" x="192.04" y="144.65" width="5.96" height="19.24"/>
  </g>
  <g>
    <path class="cls-3" d="M560,76.97v159.35h-180.82c-3.39,0-6.13-2.74-6.13-6.13V83.1c0-3.38,2.74-6.13,6.13-6.13h180.82Z"/>
    <path class="cls-3" d="M560,103.24v123.41h-171.44c-2.31,0-4.18-1.87-4.18-4.18v-115.06c0-2.3,1.87-4.17,4.18-4.17h171.44Z"/>
    <path class="cls-3" d="M560,172.22v36.67h-58.84c-2.25,0-4.08-1.83-4.08-4.08v-28.51c0-2.25,1.83-4.08,4.08-4.08h58.84Z"/>
    <g>
      <path class="cls-3" d="M560,176.16v28.67h-56.95c-1.05,0-1.91-.86-1.91-1.91v-24.86c0-1.05.86-1.91,1.91-1.91h0s56.95.01,56.95.01Z"/>
      <path class="cls-3" d="M503.05,175.76c-1.28,0-2.32,1.03-2.32,2.31v24.85c0,1.28,1.04,2.31,2.32,2.31h56.95v-.8h-56.95c-.84,0-1.51-.68-1.51-1.51v-24.85c0-.84.67-1.51,1.51-1.51h56.95v-.8h-56.95Z"/>
    </g>
    <path class="cls-3" d="M515.39,185.4h20.65c2.88,0,5.21,2.33,5.21,5.21h0c0,2.88-2.33,5.21-5.21,5.21h-20.65c-2.88,0-5.21-2.33-5.21-5.21h0c0-2.88,2.33-5.21,5.21-5.21Z"/>
    <path class="cls-3" d="M560,188.87v3.47c-.2-.54-.3-1.12-.3-1.73s.1-1.2.3-1.74Z"/>
    <rect class="cls-3" x="406.36" y="159.61" width="68.89" height="25.22" rx="2.15" ry="2.15"/>
    <rect class="cls-3" x="404.27" y="157.84" width="71.07" height="30.09" rx="4.78" ry="4.78"/>
    <rect class="cls-3" x="425.07" y="138.07" width="29.48" height="69.63" rx="4.68" ry="4.68"/>
    <g>
      <polygon class="cls-3" points="428.79 204.96 428.79 184.12 407.96 184.12 407.96 162.24 428.79 162.24 428.79 141.41 450.68 141.41 450.68 162.24 471.51 162.24 471.51 184.12 450.68 184.12 450.68 204.96 428.79 204.96"/>
      <path class="cls-3" d="M429.59,159.61v-17.4h20.29v20.83h20.83v20.28h-20.83v20.83h-20.29v-20.83h-20.83v-20.28h20.83v-3.43M449.88,163.04v-20.83h-20.29v20.83h-20.83v20.28h20.83v20.83h20.29v-20.83h20.83v-20.28h-20.83ZM451.48,161.44v-20.84h-23.49v20.84h-20.83v23.49h20.83v20.83h23.49v-20.83h20.83v-23.49h-20.83Z"/>
    </g>
    <path class="cls-3" d="M560,103.24v16.56h-60.48c-2.39,0-4.32-1.93-4.32-4.32v-12.24h64.8Z"/>
    <path class="cls-3" d="M560,124.93v18.19h-60.21c-2.51,0-4.53-2.03-4.53-4.53v-8.73c0-2.73,2.21-4.93,4.93-4.93h59.81Z"/>
    <path class="cls-3" d="M560,147.68v18.19h-60.21c-2.51,0-4.53-2.02-4.53-4.53v-8.73c0-2.72,2.21-4.93,4.93-4.93h59.81Z"/>
    <path class="cls-3" d="M560,215.41v11.24h-64.75v-7.36c0-2.14,1.74-3.88,3.88-3.88h60.87Z"/>
    <circle class="cls-3" cx="440.09" cy="173.25" r="8.16"/>
    <path class="cls-3" d="M447.62,152.55l-6.72-6.34c-.45-.43-1.16-.43-1.61,0l-6.72,6.34c-.23.21-.08.6.24.6h2.09v5.68c0,.3.24.54.54.54h9.32c.3,0,.54-.24.54-.54v-5.68h2.09c.31,0,.47-.38.24-.6h0Z"/>
    <path class="cls-3" d="M432.56,193.95l6.72,6.34c.45.43,1.16.43,1.61,0l6.72-6.34c.23-.21.08-.6-.24-.6h-2.09v-5.68c0-.3-.24-.54-.54-.54h-9.32c-.3,0-.54.24-.54.54v5.68h-2.09c-.31,0-.47.38-.24.6h0Z"/>
    <path class="cls-3" d="M460.79,180.78l6.34-6.72c.43-.45.43-1.16,0-1.61l-6.34-6.72c-.21-.23-.6-.08-.6.24v2.09h-5.68c-.3,0-.54.24-.54.54v9.32c0,.3.24.54.54.54h5.68v2.09c0,.31.38.47.6.24h0Z"/>
    <path class="cls-3" d="M419.39,165.72l-6.34,6.72c-.43.45-.43,1.16,0,1.61l6.34,6.72c.21.23.6.08.6-.24v-2.09h5.68c.3,0,.54-.24.54-.54v-9.32c0-.3-.24-.54-.54-.54h-5.68v-2.09c0-.31-.38-.47-.6-.24h0Z"/>
    <g>
      <path class="cls-3" d="M557.79,155.17v.88h2.21v1.51h-2.81c-.2,0-.38-.04-.55-.13-.18-.09-.32-.22-.45-.37-.13-.15-.23-.33-.31-.54-.07-.2-.11-.43-.11-.66v-.6c0-.23.04-.45.11-.65.07-.21.18-.39.31-.54.13-.16.27-.28.45-.37.17-.09.35-.14.55-.14h2.81v1.61h-2.21Z"/>
      <rect class="cls-3" x="555.77" y="158.42" width="4.23" height="1.61"/>
    </g>
    <g>
      <path class="cls-3" d="M506.12,157.56h-4.13c-.18,0-.35-.04-.51-.14-.16-.09-.3-.21-.42-.36-.12-.15-.21-.33-.28-.54-.07-.2-.1-.43-.1-.66v-.6c0-.23.03-.45.1-.66.07-.2.16-.38.28-.54.12-.15.26-.28.42-.36s.33-.14.51-.14h6.01v1.61h-5.45v.88h4.14c.18,0,.35.04.51.14.16.09.3.21.42.36.12.15.21.33.28.53.07.2.1.43.1.66v.6c0,.23-.04.45-.1.66s-.16.38-.28.54c-.12.15-.26.28-.42.36s-.33.14-.51.14h-6.01v-1.61h5.44v-.87h0Z"/>
      <path class="cls-3" d="M510.29,158.43h5.44v1.61h-6.01c-.18,0-.35-.04-.51-.14-.16-.09-.3-.21-.42-.36-.12-.15-.21-.33-.28-.54s-.1-.43-.1-.66v-3.07c0-.23.03-.45.1-.66.07-.2.16-.38.28-.54.12-.15.26-.28.42-.36s.33-.14.51-.14h6.01v1.61h-5.44v.88h5.05v1.51h-5.05v.87h0Z"/>
      <path class="cls-3" d="M523.46,158.43v1.61h-6.01c-.18,0-.35-.04-.51-.14-.16-.09-.3-.21-.42-.36-.12-.15-.21-.33-.28-.54s-.1-.43-.1-.66v-4.76h1.88v4.86h5.44Z"/>
      <path class="cls-3" d="M525.75,158.43h5.44v1.61h-6.01c-.18,0-.35-.04-.51-.14-.16-.09-.3-.21-.42-.36-.12-.15-.21-.33-.28-.54s-.1-.43-.1-.66v-3.07c0-.23.03-.45.1-.66.07-.2.16-.38.28-.54.12-.15.26-.28.42-.36s.33-.14.51-.14h6.01v1.61h-5.44v.88h5.05v1.51h-5.05v.87h0Z"/>
      <path class="cls-3" d="M538.92,158.43v1.61h-6.01c-.18,0-.35-.04-.51-.14-.16-.09-.3-.21-.42-.36-.12-.15-.21-.33-.28-.54s-.1-.43-.1-.66v-3.07c0-.23.03-.45.1-.66.07-.2.16-.38.28-.54.12-.15.26-.28.42-.36s.33-.14.51-.14h6.01v1.61h-5.44v3.25h5.44Z"/>
      <path class="cls-3" d="M546.61,153.57v1.61h-2.69v4.86h-1.89v-4.86h-2.69v-1.61h7.28,0Z"/>
    </g>
  </g>
</svg>