<?xml version="1.0" encoding="UTF-8"?>
<svg id="Layer_1" data-name="Layer 1" xmlns="http://www.w3.org/2000/svg" viewBox="0 0 560 320">
  <defs>
    <style>
      .cls-1 {
        fill: #372869;
      }

      .cls-2 {
        fill: #fff;
      }

      .cls-3, .cls-4 {
        stroke-linejoin: round;
      }

      .cls-3, .cls-4, .cls-5 {
        fill: #bca3ce;
        stroke: #553f98;
        stroke-width: .5px;
      }

      .cls-4 {
        fill-rule: evenodd;
      }

      .cls-5 {
        stroke-miterlimit: 10;
      }

      .cls-6 {
        opacity: .45;
      }

      .cls-7 {
        fill: #553f98;
      }
    </style>
  </defs>
  <rect class="cls-1" x=".76" y="-.02" width="559.24" height="320"/>
  <path class="cls-7" d="M405.14-.12c-3.45,16.81-8.27,33.52-14.2,49.97-.77,2.14-1.56,4.27-2.37,6.4-3.15,8.31-6.6,16.53-10.28,24.65-5.58,12.3-11.73,24.36-18.36,36.11-.66,1.19-1.34,2.38-2.03,3.56-.5.88-1,1.74-1.5,2.61h0c-10.64,18.29-22.38,35.76-34.79,52.08-48.21,64.41-136.13,76.41-201.3,120.77-3.92,2.65-7.76,5.44-11.5,8.36-1.03.8-2.04,1.61-3.05,2.44-1.96,1.61-3.9,3.27-5.82,5-2.85,2.53-5.66,5.19-8.43,7.96H-.37V-.12h405.51Z"/>
  <g>
    <path class="cls-2" d="M7.11,51.63v47.64h7.44v-43.07h6.88s5,0,6.71,2.24c1.45,1.9,1.72,5.35,1.72,7.67,0,2.49-.16,6.34-.99,7.75-1.27,2.15-3.35,2.58-5.25,2.58h-4.54v4.23h6.53s5.9.25,8.43-2.33c3.11-3.16,3.9-7.41,3.9-13.09,0-5.17-1.87-10.38-5.71-12.15-3.17-1.46-8.89-1.46-8.89-1.46H7.11ZM43.78,99.26h7.44v-47.64h-7.44v47.64ZM90.78,62.74l13.61,35.66-7.81,19.13h6.17l22.49-54.79h-6.89l-9.8,26.7-9.12-26.7h-8.65ZM130.84,98.98v-4.5s7.86.31,9.5.31c3.63,0,5.44-.77,6.81-2.24.81-.88,1.53-4.76,1.53-6.15s-.27-4.36-.81-5.59c-.56-1.2-1.82-2.32-3.72-2.48-1.35-.12-3.45-.39-5.9-.5-3.43-.16-5.7-1.95-6.8-3.24-1.08-1.29-2.54-3.23-2.54-9.17s1.54-9.28,3.08-10.83c1.54-1.55,3.8-2.24,5.53-2.54,1.99-.34,5.25-.36,5.25-.36l10.41.3v4.5s-7.59-.3-9.22-.3c-3.63,0-4.72.78-6.08,2.24-.8.87-1.43,3.27-1.43,4.65s.16,4.18.71,5.39c.54,1.2,1.81,2.32,3.72,2.49,1.35.1,3.45.38,5.89.49,3.45.16,5.72,1.95,6.8,3.24,1.09,1.29,2.55,4.02,2.55,9.95s-1.55,10.2-3.08,11.75c-1.55,1.55-3.8,2.24-5.53,2.54-2,.34-5.26.37-5.26.37l-11.41-.31ZM171.42,56.19h-7.43v34.97s.18,3.19.36,4.31c.18,1.12,1.82,3.79,6.08,3.79l7.7-.15v-4.49s-2.09.15-3.35.15-2.82-.08-3.08-2.24c-.28-2.15-.28-4.73-.28-4.73v-20.59h8.4v-4.48h-8.4v-6.55M243.18,99.26h7.43v-36.52h-7.43v36.52ZM243.18,58.26h7.43v-6.63h-7.43v6.63ZM274.11,62.43c5.06,0,8.98,1.13,11.09,2.83,2.13,1.71,4.74,5.31,4.74,15.74s-2.61,14.03-4.74,15.74c-2.11,1.7-6.03,2.84-11.09,2.84s-8.98-1.14-11.1-2.84c-2.12-1.71-4.73-5.31-4.73-15.74s2.6-14.03,4.73-15.74c2.12-1.7,6.03-2.83,11.1-2.83ZM269.01,69.43c-1.02,1.26-2.27,3.91-2.27,11.57s1.25,10.31,2.27,11.57c1.02,1.25,2.9,2.09,5.33,2.09s4.31-.84,5.34-2.09c1.02-1.26,2.26-3.91,2.26-11.57s-1.25-10.31-2.26-11.57c-1.03-1.25-2.9-2.09-5.34-2.09s-4.31.84-5.33,2.09M305.34,67.87l7.29-.31c1.91,0,4.15.51,5.24,1.9,1.01,1.3,1.65,2.85,1.65,5.35v24.42h7.45v-25.03c0-4.73-1.46-7.49-3.65-9.22-3.12-2.47-8.7-2.24-8.7-2.24l-16.66.3v36.19h7.37v-31.36ZM228.37,56.19h-7.44v34.97s.18,3.19.35,4.31c.19,1.12,1.81,3.79,6.09,3.79l7.7-.15v-4.49s-2.09.15-3.35.15-2.81-.08-3.08-2.24c-.27-2.15-.27-4.73-.27-4.73v-20.59h8.38v-4.48h-8.38v-6.55ZM79.44,74.81c0-2.5-.64-4.05-1.66-5.35-1.09-1.38-3.32-1.9-5.24-1.9l-9.81.31v-4.83l11.8-.3s5.59-.24,8.71,2.24c2.18,1.73,3.62,4.48,3.62,9.22v24.68l-14.25.31s-6.45.02-9.7-1.29c-3.17-1.29-4.9-4.83-4.9-9.74s1.45-7.49,3.63-9.22c3.12-2.48,8.7-2.23,8.7-2.23h4.55v4.21h-2.55c-1.91,0-3.88.35-4.97,1.73-1.02,1.29-1.56,2.41-1.56,4.91,0,3.28.64,4.74,2.18,5.86,1.36.99,3.8,1.21,6.53,1.21l4.91-.3v-19.51ZM204.82,74.81c0-2.5-.62-4.05-1.65-5.35-1.1-1.38-3.34-1.9-5.24-1.9l-9.8.31v-4.83l11.79-.3s5.58-.24,8.7,2.24c2.18,1.73,3.63,4.48,3.63,9.22v24.68l-14.25.31s-6.46.02-9.7-1.29c-3.17-1.29-4.9-4.83-4.9-9.74s1.46-7.49,3.63-9.22c3.12-2.48,8.71-2.23,8.71-2.23h4.55v4.21h-2.56c-1.9,0-3.88.35-4.96,1.73-1.02,1.29-1.57,2.41-1.57,4.91,0,3.28.64,4.74,2.18,5.86,1.36.99,3.81,1.21,6.53,1.21l4.9-.3v-19.51ZM340.45,99.56c4,0,7.25-3.23,7.26-7.23v-.03c0-1.93-.76-3.78-2.12-5.14-1.36-1.36-3.21-2.13-5.14-2.12-3.99,0-7.26,3.26-7.26,7.26,0,1.94.75,3.76,2.13,5.14,1.36,1.36,3.2,2.12,5.13,2.12ZM334.41,92.31c0-1.61.64-3.13,1.77-4.27,1.13-1.14,2.67-1.77,4.27-1.77,1.61,0,3.13.64,4.27,1.77,1.14,1.13,1.77,2.67,1.77,4.27,0,3.33-2.71,6.04-6.04,6.04-1.6,0-3.14-.64-4.27-1.77-1.14-1.13-1.77-2.67-1.77-4.27"/>
    <path class="cls-2" d="M344.04,95.68c-.11-.04-.19-.17-.24-.35-.04-.2-.07-.41-.07-.61l-.03-1.04c-.02-.49-.12-.84-.3-1.07-.11-.16-.28-.28-.48-.4.24-.16.46-.35.61-.59.2-.33.31-.74.31-1.23,0-.96-.4-1.63-1.19-1.98-.42-.19-.92-.27-1.54-.27h-3.75v8.08h1.4v-3.31h2.21c.4,0,.7.04.87.12.29.14.44.43.46.87l.06,1.29c.02.32.03.51.06.63.04.13.06.22.1.31l.06.1h1.56v-.47l-.1-.05h0ZM342.42,90.47c0,.45-.12.75-.34.92-.26.17-.61.27-1.06.27h-2.25v-2.28h2.39c.32,0,.59.04.78.14.33.17.49.49.49.96"/>
  </g>
  <g>
    <path class="cls-1" d="M7.11,112.98v47.64h7.44v-43.07h6.88s5,0,6.71,2.24c1.45,1.9,1.72,5.35,1.72,7.67,0,2.49-.16,6.34-.99,7.75-1.27,2.15-3.35,2.58-5.25,2.58h-4.54v4.23h6.53s5.9.25,8.43-2.33c3.11-3.16,3.9-7.41,3.9-13.09,0-5.17-1.87-10.38-5.71-12.15-3.17-1.46-8.89-1.46-8.89-1.46H7.11ZM43.78,160.62h7.44v-47.64h-7.44v47.64ZM90.78,124.09l13.61,35.66-7.81,19.13h6.17l22.49-54.79h-6.89l-9.8,26.7-9.12-26.7h-8.65ZM130.84,160.33v-4.5s7.86.31,9.5.31c3.63,0,5.44-.77,6.81-2.24.81-.88,1.53-4.76,1.53-6.15s-.27-4.36-.81-5.59c-.56-1.2-1.82-2.32-3.72-2.48-1.35-.12-3.45-.39-5.9-.5-3.43-.16-5.7-1.95-6.8-3.24-1.08-1.29-2.54-3.23-2.54-9.17s1.54-9.28,3.08-10.83c1.54-1.55,3.8-2.24,5.53-2.54,1.99-.34,5.25-.36,5.25-.36l10.41.3v4.5s-7.59-.3-9.22-.3c-3.63,0-4.72.78-6.08,2.24-.8.87-1.43,3.27-1.43,4.65s.16,4.18.71,5.39c.54,1.2,1.81,2.32,3.72,2.49,1.35.1,3.45.38,5.89.49,3.45.16,5.72,1.95,6.8,3.24,1.09,1.29,2.55,4.02,2.55,9.95s-1.55,10.2-3.08,11.75c-1.55,1.55-3.8,2.24-5.53,2.54-2,.34-5.26.37-5.26.37l-11.41-.31ZM171.42,117.54h-7.43v34.97s.18,3.19.36,4.31c.18,1.12,1.82,3.79,6.08,3.79l7.7-.15v-4.49s-2.09.15-3.35.15-2.82-.08-3.08-2.24c-.28-2.15-.28-4.73-.28-4.73v-20.59h8.4v-4.48h-8.4v-6.55M243.18,160.62h7.43v-36.52h-7.43v36.52ZM243.18,119.61h7.43v-6.63h-7.43v6.63ZM274.11,123.78c5.06,0,8.98,1.13,11.09,2.83,2.13,1.71,4.74,5.31,4.74,15.74s-2.61,14.03-4.74,15.74c-2.11,1.7-6.03,2.84-11.09,2.84s-8.98-1.14-11.1-2.84c-2.12-1.71-4.73-5.31-4.73-15.74s2.6-14.03,4.73-15.74c2.12-1.7,6.03-2.83,11.1-2.83ZM269.01,130.78c-1.02,1.26-2.27,3.91-2.27,11.57s1.25,10.31,2.27,11.57c1.02,1.25,2.9,2.09,5.33,2.09s4.31-.84,5.34-2.09c1.02-1.26,2.26-3.91,2.26-11.57s-1.25-10.31-2.26-11.57c-1.03-1.25-2.9-2.09-5.34-2.09s-4.31.84-5.33,2.09M305.34,129.22l7.29-.31c1.91,0,4.15.51,5.24,1.9,1.01,1.3,1.65,2.85,1.65,5.35v24.42h7.45v-25.03c0-4.73-1.46-7.49-3.65-9.22-3.12-2.47-8.7-2.24-8.7-2.24l-16.66.3v36.19h7.37v-31.36ZM228.37,117.54h-7.44v34.97s.18,3.19.35,4.31c.19,1.12,1.81,3.79,6.09,3.79l7.7-.15v-4.49s-2.09.15-3.35.15-2.81-.08-3.08-2.24c-.27-2.15-.27-4.73-.27-4.73v-20.59h8.38v-4.48h-8.38v-6.55ZM79.44,136.16c0-2.5-.64-4.05-1.66-5.35-1.09-1.38-3.32-1.9-5.24-1.9l-9.81.31v-4.83l11.8-.3s5.59-.24,8.71,2.24c2.18,1.73,3.62,4.48,3.62,9.22v24.68l-14.25.31s-6.45.02-9.7-1.29c-3.17-1.29-4.9-4.83-4.9-9.74s1.45-7.49,3.63-9.22c3.12-2.48,8.7-2.23,8.7-2.23h4.55v4.21h-2.55c-1.91,0-3.88.35-4.97,1.73-1.02,1.29-1.56,2.41-1.56,4.91,0,3.28.64,4.74,2.18,5.86,1.36.99,3.8,1.21,6.53,1.21l4.91-.3v-19.51ZM204.82,136.16c0-2.5-.62-4.05-1.65-5.35-1.1-1.38-3.34-1.9-5.24-1.9l-9.8.31v-4.83l11.79-.3s5.58-.24,8.7,2.24c2.18,1.73,3.63,4.48,3.63,9.22v24.68l-14.25.31s-6.46.02-9.7-1.29c-3.17-1.29-4.9-4.83-4.9-9.74s1.46-7.49,3.63-9.22c3.12-2.48,8.71-2.23,8.71-2.23h4.55v4.21h-2.56c-1.9,0-3.88.35-4.96,1.73-1.02,1.29-1.57,2.41-1.57,4.91,0,3.28.64,4.74,2.18,5.86,1.36.99,3.81,1.21,6.53,1.21l4.9-.3v-19.51ZM340.45,160.92c4,0,7.25-3.23,7.26-7.23v-.03c0-1.93-.76-3.78-2.12-5.14-1.36-1.36-3.21-2.13-5.14-2.12-3.99,0-7.26,3.26-7.26,7.26,0,1.94.75,3.76,2.13,5.14,1.36,1.36,3.2,2.12,5.13,2.12ZM334.41,153.66c0-1.61.64-3.13,1.77-4.27,1.13-1.14,2.67-1.77,4.27-1.77,1.61,0,3.13.64,4.27,1.77,1.14,1.13,1.77,2.67,1.77,4.27,0,3.33-2.71,6.04-6.04,6.04-1.6,0-3.14-.64-4.27-1.77-1.14-1.13-1.77-2.67-1.77-4.27"/>
    <path class="cls-1" d="M344.04,157.03c-.11-.04-.19-.17-.24-.35-.04-.2-.07-.41-.07-.61l-.03-1.04c-.02-.49-.12-.84-.3-1.07-.11-.16-.28-.28-.48-.4.24-.16.46-.35.61-.59.2-.33.31-.74.31-1.23,0-.96-.4-1.63-1.19-1.98-.42-.19-.92-.27-1.54-.27h-3.75v8.08h1.4v-3.31h2.21c.4,0,.7.04.87.12.29.14.44.43.46.87l.06,1.29c.02.32.03.51.06.63.04.13.06.22.1.31l.06.1h1.56v-.47l-.1-.05h0ZM342.42,151.83c0,.45-.12.75-.34.92-.26.17-.61.27-1.06.27h-2.25v-2.28h2.39c.32,0,.59.04.78.14.33.17.49.49.49.96"/>
  </g>
  <g>
    <path class="cls-1" d="M7.11,172.68v47.64h7.44v-43.07h6.88s5,0,6.71,2.24c1.45,1.9,1.72,5.35,1.72,7.67,0,2.49-.16,6.34-.99,7.75-1.27,2.15-3.35,2.58-5.25,2.58h-4.54v4.23h6.53s5.9.25,8.43-2.33c3.11-3.16,3.9-7.41,3.9-13.09,0-5.17-1.87-10.38-5.71-12.15-3.17-1.46-8.89-1.46-8.89-1.46H7.11ZM43.78,220.32h7.44v-47.64h-7.44v47.64ZM90.78,183.8l13.61,35.66-7.81,19.13h6.17l22.49-54.79h-6.89l-9.8,26.7-9.12-26.7h-8.65ZM130.84,220.04v-4.5s7.86.31,9.5.31c3.63,0,5.44-.77,6.81-2.24.81-.88,1.53-4.76,1.53-6.15s-.27-4.36-.81-5.59c-.56-1.2-1.82-2.32-3.72-2.48-1.35-.12-3.45-.39-5.9-.5-3.43-.16-5.7-1.95-6.8-3.24-1.08-1.29-2.54-3.23-2.54-9.17s1.54-9.28,3.08-10.83c1.54-1.55,3.8-2.24,5.53-2.54,1.99-.34,5.25-.36,5.25-.36l10.41.3v4.5s-7.59-.3-9.22-.3c-3.63,0-4.72.78-6.08,2.24-.8.87-1.43,3.27-1.43,4.65s.16,4.18.71,5.39c.54,1.2,1.81,2.32,3.72,2.49,1.35.1,3.45.38,5.89.49,3.45.16,5.72,1.95,6.8,3.24,1.09,1.29,2.55,4.02,2.55,9.95s-1.55,10.2-3.08,11.75c-1.55,1.55-3.8,2.24-5.53,2.54-2,.34-5.26.37-5.26.37l-11.41-.31ZM171.42,177.25h-7.43v34.97s.18,3.19.36,4.31c.18,1.12,1.82,3.79,6.08,3.79l7.7-.15v-4.49s-2.09.15-3.35.15-2.82-.08-3.08-2.24c-.28-2.15-.28-4.73-.28-4.73v-20.59h8.4v-4.48h-8.4v-6.55M243.18,220.32h7.43v-36.52h-7.43v36.52ZM243.18,179.31h7.43v-6.63h-7.43v6.63ZM274.11,183.48c5.06,0,8.98,1.13,11.09,2.83,2.13,1.71,4.74,5.31,4.74,15.74s-2.61,14.03-4.74,15.74c-2.11,1.7-6.03,2.84-11.09,2.84s-8.98-1.14-11.1-2.84c-2.12-1.71-4.73-5.31-4.73-15.74s2.6-14.03,4.73-15.74c2.12-1.7,6.03-2.83,11.1-2.83ZM269.01,190.49c-1.02,1.26-2.27,3.91-2.27,11.57s1.25,10.31,2.27,11.57c1.02,1.25,2.9,2.09,5.33,2.09s4.31-.84,5.34-2.09c1.02-1.26,2.26-3.91,2.26-11.57s-1.25-10.31-2.26-11.57c-1.03-1.25-2.9-2.09-5.34-2.09s-4.31.84-5.33,2.09M305.34,188.93l7.29-.31c1.91,0,4.15.51,5.24,1.9,1.01,1.3,1.65,2.85,1.65,5.35v24.42h7.45v-25.03c0-4.73-1.46-7.49-3.65-9.22-3.12-2.47-8.7-2.24-8.7-2.24l-16.66.3v36.19h7.37v-31.36ZM228.37,177.25h-7.44v34.97s.18,3.19.35,4.31c.19,1.12,1.81,3.79,6.09,3.79l7.7-.15v-4.49s-2.09.15-3.35.15-2.81-.08-3.08-2.24c-.27-2.15-.27-4.73-.27-4.73v-20.59h8.38v-4.48h-8.38v-6.55ZM79.44,195.86c0-2.5-.64-4.05-1.66-5.35-1.09-1.38-3.32-1.9-5.24-1.9l-9.81.31v-4.83l11.8-.3s5.59-.24,8.71,2.24c2.18,1.73,3.62,4.48,3.62,9.22v24.68l-14.25.31s-6.45.02-9.7-1.29c-3.17-1.29-4.9-4.83-4.9-9.74s1.45-7.49,3.63-9.22c3.12-2.48,8.7-2.23,8.7-2.23h4.55v4.21h-2.55c-1.91,0-3.88.35-4.97,1.73-1.02,1.29-1.56,2.41-1.56,4.91,0,3.28.64,4.74,2.18,5.86,1.36.99,3.8,1.21,6.53,1.21l4.91-.3v-19.51ZM204.82,195.86c0-2.5-.62-4.05-1.65-5.35-1.1-1.38-3.34-1.9-5.24-1.9l-9.8.31v-4.83l11.79-.3s5.58-.24,8.7,2.24c2.18,1.73,3.63,4.48,3.63,9.22v24.68l-14.25.31s-6.46.02-9.7-1.29c-3.17-1.29-4.9-4.83-4.9-9.74s1.46-7.49,3.63-9.22c3.12-2.48,8.71-2.23,8.71-2.23h4.55v4.21h-2.56c-1.9,0-3.88.35-4.96,1.73-1.02,1.29-1.57,2.41-1.57,4.91,0,3.28.64,4.74,2.18,5.86,1.36.99,3.81,1.21,6.53,1.21l4.9-.3v-19.51ZM340.45,220.62c4,0,7.25-3.23,7.26-7.23v-.03c0-1.93-.76-3.78-2.12-5.14-1.36-1.36-3.21-2.13-5.14-2.12-3.99,0-7.26,3.26-7.26,7.26,0,1.94.75,3.76,2.13,5.14,1.36,1.36,3.2,2.12,5.13,2.12ZM334.41,213.36c0-1.61.64-3.13,1.77-4.27,1.13-1.14,2.67-1.77,4.27-1.77,1.61,0,3.13.64,4.27,1.77,1.14,1.13,1.77,2.67,1.77,4.27,0,3.33-2.71,6.04-6.04,6.04-1.6,0-3.14-.64-4.27-1.77-1.14-1.13-1.77-2.67-1.77-4.27"/>
    <path class="cls-1" d="M344.04,216.74c-.11-.04-.19-.17-.24-.35-.04-.2-.07-.41-.07-.61l-.03-1.04c-.02-.49-.12-.84-.3-1.07-.11-.16-.28-.28-.48-.4.24-.16.46-.35.61-.59.2-.33.31-.74.31-1.23,0-.96-.4-1.63-1.19-1.98-.42-.19-.92-.27-1.54-.27h-3.75v8.08h1.4v-3.31h2.21c.4,0,.7.04.87.12.29.14.44.43.46.87l.06,1.29c.02.32.03.51.06.63.04.13.06.22.1.31l.06.1h1.56v-.47l-.1-.05h0ZM342.42,211.53c0,.45-.12.75-.34.92-.26.17-.61.27-1.06.27h-2.25v-2.28h2.39c.32,0,.59.04.78.14.33.17.49.49.49.96"/>
  </g>
  <g>
    <path class="cls-1" d="M7.11,233.04v47.64h7.44v-43.07h6.88s5,0,6.71,2.24c1.45,1.9,1.72,5.35,1.72,7.67,0,2.49-.16,6.34-.99,7.75-1.27,2.15-3.35,2.58-5.25,2.58h-4.54v4.23h6.53s5.9.25,8.43-2.33c3.11-3.16,3.9-7.41,3.9-13.09,0-5.17-1.87-10.38-5.71-12.15-3.17-1.46-8.89-1.46-8.89-1.46H7.11ZM43.78,280.68h7.44v-47.64h-7.44v47.64ZM90.78,244.15l13.61,35.66-7.81,19.13h6.17l22.49-54.79h-6.89l-9.8,26.7-9.12-26.7h-8.65ZM130.84,280.4v-4.5s7.86.31,9.5.31c3.63,0,5.44-.77,6.81-2.24.81-.88,1.53-4.76,1.53-6.15s-.27-4.36-.81-5.59c-.56-1.2-1.82-2.32-3.72-2.48-1.35-.12-3.45-.39-5.9-.5-3.43-.16-5.7-1.95-6.8-3.24-1.08-1.29-2.54-3.23-2.54-9.17s1.54-9.28,3.08-10.83c1.54-1.55,3.8-2.24,5.53-2.54,1.99-.34,5.25-.36,5.25-.36l10.41.3v4.5s-7.59-.3-9.22-.3c-3.63,0-4.72.78-6.08,2.24-.8.87-1.43,3.27-1.43,4.65s.16,4.18.71,5.39c.54,1.2,1.81,2.32,3.72,2.49,1.35.1,3.45.38,5.89.49,3.45.16,5.72,1.95,6.8,3.24,1.09,1.29,2.55,4.02,2.55,9.95s-1.55,10.2-3.08,11.75c-1.55,1.55-3.8,2.24-5.53,2.54-2,.34-5.26.37-5.26.37l-11.41-.31ZM171.42,237.6h-7.43v34.97s.18,3.19.36,4.31c.18,1.12,1.82,3.79,6.08,3.79l7.7-.15v-4.49s-2.09.15-3.35.15-2.82-.08-3.08-2.24c-.28-2.15-.28-4.73-.28-4.73v-20.59h8.4v-4.48h-8.4v-6.55M243.18,280.68h7.43v-36.52h-7.43v36.52ZM243.18,239.67h7.43v-6.63h-7.43v6.63ZM274.11,243.84c5.06,0,8.98,1.13,11.09,2.83,2.13,1.71,4.74,5.31,4.74,15.74s-2.61,14.03-4.74,15.74c-2.11,1.7-6.03,2.84-11.09,2.84s-8.98-1.14-11.1-2.84c-2.12-1.71-4.73-5.31-4.73-15.74s2.6-14.03,4.73-15.74c2.12-1.7,6.03-2.83,11.1-2.83ZM269.01,250.84c-1.02,1.26-2.27,3.91-2.27,11.57s1.25,10.31,2.27,11.57c1.02,1.25,2.9,2.09,5.33,2.09s4.31-.84,5.34-2.09c1.02-1.26,2.26-3.91,2.26-11.57s-1.25-10.31-2.26-11.57c-1.03-1.25-2.9-2.09-5.34-2.09s-4.31.84-5.33,2.09M305.34,249.28l7.29-.31c1.91,0,4.15.51,5.24,1.9,1.01,1.3,1.65,2.85,1.65,5.35v24.42h7.45v-25.03c0-4.73-1.46-7.49-3.65-9.22-3.12-2.47-8.7-2.24-8.7-2.24l-16.66.3v36.19h7.37v-31.36ZM228.37,237.6h-7.44v34.97s.18,3.19.35,4.31c.19,1.12,1.81,3.79,6.09,3.79l7.7-.15v-4.49s-2.09.15-3.35.15-2.81-.08-3.08-2.24c-.27-2.15-.27-4.73-.27-4.73v-20.59h8.38v-4.48h-8.38v-6.55ZM79.44,256.22c0-2.5-.64-4.05-1.66-5.35-1.09-1.38-3.32-1.9-5.24-1.9l-9.81.31v-4.83l11.8-.3s5.59-.24,8.71,2.24c2.18,1.73,3.62,4.48,3.62,9.22v24.68l-14.25.31s-6.45.02-9.7-1.29c-3.17-1.29-4.9-4.83-4.9-9.74s1.45-7.49,3.63-9.22c3.12-2.48,8.7-2.23,8.7-2.23h4.55v4.21h-2.55c-1.91,0-3.88.35-4.97,1.73-1.02,1.29-1.56,2.41-1.56,4.91,0,3.28.64,4.74,2.18,5.86,1.36.99,3.8,1.21,6.53,1.21l4.91-.3v-19.51ZM204.82,256.22c0-2.5-.62-4.05-1.65-5.35-1.1-1.38-3.34-1.9-5.24-1.9l-9.8.31v-4.83l11.79-.3s5.58-.24,8.7,2.24c2.18,1.73,3.63,4.48,3.63,9.22v24.68l-14.25.31s-6.46.02-9.7-1.29c-3.17-1.29-4.9-4.83-4.9-9.74s1.46-7.49,3.63-9.22c3.12-2.48,8.71-2.23,8.71-2.23h4.55v4.21h-2.56c-1.9,0-3.88.35-4.96,1.73-1.02,1.29-1.57,2.41-1.57,4.91,0,3.28.64,4.74,2.18,5.86,1.36.99,3.81,1.21,6.53,1.21l4.9-.3v-19.51ZM340.45,280.98c4,0,7.25-3.23,7.26-7.23v-.03c0-1.93-.76-3.78-2.12-5.14-1.36-1.36-3.21-2.13-5.14-2.12-3.99,0-7.26,3.26-7.26,7.26,0,1.94.75,3.76,2.13,5.14,1.36,1.36,3.2,2.12,5.13,2.12ZM334.41,273.72c0-1.61.64-3.13,1.77-4.27,1.13-1.14,2.67-1.77,4.27-1.77,1.61,0,3.13.64,4.27,1.77,1.14,1.13,1.77,2.67,1.77,4.27,0,3.33-2.71,6.04-6.04,6.04-1.6,0-3.14-.64-4.27-1.77-1.14-1.13-1.77-2.67-1.77-4.27"/>
    <path class="cls-1" d="M344.04,277.09c-.11-.04-.19-.17-.24-.35-.04-.2-.07-.41-.07-.61l-.03-1.04c-.02-.49-.12-.84-.3-1.07-.11-.16-.28-.28-.48-.4.24-.16.46-.35.61-.59.2-.33.31-.74.31-1.23,0-.96-.4-1.63-1.19-1.98-.42-.19-.92-.27-1.54-.27h-3.75v8.08h1.4v-3.31h2.21c.4,0,.7.04.87.12.29.14.44.43.46.87l.06,1.29c.02.32.03.51.06.63.04.13.06.22.1.31l.06.1h1.56v-.47l-.1-.05h0ZM342.42,271.89c0,.45-.12.75-.34.92-.26.17-.61.27-1.06.27h-2.25v-2.28h2.39c.32,0,.59.04.78.14.33.17.49.49.49.96"/>
  </g>
  <path class="cls-1" d="M32.23,294.13c-3.17-1.46-8.89-1.46-8.89-1.46H7.11v27.44h7.43v-22.87h6.89s5,0,6.71,2.23c1.46,1.9,1.72,5.35,1.72,7.68,0,2.49-.16,6.34-.99,7.75-1.27,2.15-3.35,2.58-5.26,2.58h-4.54v4.23h6.53s4.7.19,7.52-1.6c.34-.21.65-.45.92-.73,3.1-3.16,3.89-7.41,3.89-13.1,0-5.17-1.87-10.38-5.7-12.15ZM43.78,292.67v27.44h7.44v-27.44h-7.44ZM99.43,303.78h-8.65l6.23,16.33h8l-5.58-16.33ZM118.35,303.78l-5.99,16.33h6.18l6.7-16.33h-6.89ZM153.58,315.73c-1.08-1.29-3.35-3.08-6.8-3.24-2.44-.11-4.54-.39-5.89-.49-1.91-.17-3.18-1.3-3.72-2.49-.55-1.21-.71-4.01-.71-5.39s.63-3.78,1.43-4.65c1.36-1.46,2.45-2.23,6.08-2.23,1.63,0,9.22.3,9.22.3v-4.5l-10.41-.31s-3.25.02-5.25.37c-1.73.3-3.99.98-5.53,2.54-1.54,1.55-3.08,4.88-3.08,10.83s1.45,7.88,2.53,9.17c1.1,1.29,3.37,3.08,6.8,3.24,2.45.11,4.54.39,5.9.5.86.08,1.59.35,2.19.73h9.23c-.52-2.27-1.32-3.59-1.99-4.38ZM171.41,303.78v-6.55h-7.43v22.88h7.43v-11.85h8.4v-4.48h-8.4ZM243.18,303.78v16.33h7.43v-16.33h-7.43ZM243.18,292.67v6.63h7.43v-6.63h-7.43ZM285.2,306.31c-2.11-1.71-6.03-2.84-11.09-2.84s-8.98,1.13-11.11,2.84c-1.98,1.59-4.39,4.85-4.69,13.8h8.46c.19-6.19,1.31-8.48,2.24-9.64,1.03-1.25,2.91-2.08,5.33-2.08s4.31.83,5.34,2.09c.92,1.14,2.04,3.44,2.23,9.63h8c-.31-8.95-2.72-12.21-4.71-13.8ZM323.33,306.02c-3.12-2.47-8.71-2.24-8.71-2.24l-16.65.3v16.03h7.37v-11.2l7.29-.31c1.91,0,4.16.52,5.24,1.9,1.02,1.3,1.66,2.85,1.66,5.35v4.26h7.44v-4.88c0-4.73-1.46-7.48-3.64-9.21ZM228.37,303.78v-6.55h-7.44v22.88h7.44v-11.85h8.38v-4.48h-8.38ZM70.35,317.75s-5.58-.25-8.7,2.23c-.05.04-.1.08-.15.13h13.4v-2.36h-4.55ZM83.24,306.02c-3.12-2.48-8.71-2.24-8.71-2.24l-11.8.3v4.83l9.81-.31c1.91,0,4.15.52,5.23,1.9,1.03,1.3,1.66,2.85,1.66,5.35v4.26h7.44v-4.88c0-4.73-1.45-7.48-3.63-9.21ZM195.74,317.75s-5.59-.25-8.71,2.23c-.05.04-.1.08-.15.13h13.41v-2.36h-4.55ZM208.63,306.02c-3.12-2.48-8.7-2.24-8.7-2.24l-11.8.3v4.83l9.81-.31c1.89,0,4.13.52,5.23,1.9,1.03,1.3,1.65,2.85,1.65,5.35v4.26h7.44v-4.88c0-4.73-1.46-7.48-3.63-9.21Z"/>
  <g>
    <path class="cls-1" d="M7.11-.02v38.13h7.44V-.02h-7.44ZM37.53-.02h-8.19c.42,1.66.52,3.53.52,4.96,0,2.5-.15,6.34-.99,7.75-1.27,2.16-3.35,2.59-5.25,2.59h-4.55v4.23h6.54s5.89.24,8.43-2.34c3.11-3.16,3.9-7.4,3.9-13.09,0-1.38-.14-2.78-.41-4.1ZM43.78-.02v38.13h7.44V-.02h-7.44ZM118.35,1.58l-9.8,26.7L99.43,1.58h-8.65l13.61,35.66-7.82,19.13h6.18L125.24,1.58h-6.89ZM153.58,13.53c-1.08-1.3-3.35-3.08-6.8-3.25-2.44-.11-4.54-.38-5.89-.48-1.91-.18-3.18-1.3-3.72-2.5-.54-1.2-.71-4-.71-5.38,0-.54.1-1.24.26-1.94h-7.49c-.2,1.25-.31,2.67-.31,4.29,0,5.94,1.45,7.88,2.54,9.17,1.09,1.28,3.36,3.08,6.79,3.24,2.45.11,4.55.39,5.9.5,1.9.16,3.17,1.28,3.73,2.48.54,1.22.8,4.21.8,5.59s-.73,5.27-1.53,6.14c-1.37,1.47-3.18,2.24-6.81,2.24-1.64,0-9.5-.31-9.5-.31v4.5l11.41.31s3.26-.02,5.26-.37c1.73-.3,3.99-.99,5.53-2.53,1.54-1.55,3.09-5.8,3.09-11.75s-1.46-8.66-2.55-9.95ZM243.18,1.58v36.53h7.43V1.58h-7.43ZM285.2,4.1c-2.11-1.7-6.03-2.83-11.09-2.83s-8.98,1.13-11.1,2.83c-2.13,1.71-4.73,5.32-4.73,15.75s2.6,14.03,4.73,15.74c2.12,1.7,6.03,2.84,11.1,2.84s8.98-1.14,11.09-2.84c2.13-1.71,4.74-5.31,4.74-15.74s-2.61-14.04-4.74-15.75ZM279.68,31.42c-1.03,1.24-2.9,2.09-5.34,2.09s-4.31-.85-5.33-2.1-2.27-3.9-2.27-11.56,1.25-10.32,2.27-11.58c1.02-1.25,2.9-2.08,5.33-2.08s4.31.83,5.34,2.08c1.02,1.26,2.26,3.91,2.26,11.58s-1.24,10.31-2.26,11.57ZM323.33,3.82c-3.12-2.48-8.7-2.24-8.7-2.24l-16.66.3v36.19h7.37V6.71l7.29-.31c1.91,0,4.16.52,5.25,1.9,1.01,1.3,1.65,2.85,1.65,5.35v24.42h7.45V13.03c0-4.73-1.46-7.48-3.65-9.21ZM236.75,6.06V1.58h-8.38V-.02h-7.43v30.03s.17,3.19.35,4.31c.19,1.12,1.81,3.79,6.09,3.79l7.7-.15v-4.49s-2.09.15-3.36.15-2.81-.08-3.08-2.24c-.27-2.15-.27-4.72-.27-4.72V6.06h8.38ZM83.24,3.82c-3.12-2.48-8.71-2.24-8.71-2.24l-11.8.3v4.83l9.81-.31c1.91,0,4.15.52,5.24,1.9,1.02,1.3,1.66,2.85,1.66,5.35v19.51l-4.92.3c-2.72,0-5.16-.22-6.52-1.21-1.55-1.12-2.18-2.58-2.18-5.86,0-2.5.54-3.62,1.56-4.91,1.09-1.38,3.06-1.73,4.97-1.73h2.55v-4.21h-4.55s-5.58-.24-8.7,2.24c-2.18,1.73-3.63,4.48-3.63,9.22s1.73,8.44,4.9,9.73c3.25,1.32,9.7,1.29,9.7,1.29l14.25-.3V13.03c0-4.73-1.45-7.48-3.63-9.21ZM208.63,3.82c-3.12-2.48-8.7-2.24-8.7-2.24l-11.8.3v4.83l9.81-.31c1.9,0,4.13.52,5.23,1.9,1.03,1.3,1.65,2.85,1.65,5.35v19.51l-4.9.3c-2.72,0-5.18-.22-6.53-1.21-1.54-1.12-2.18-2.58-2.18-5.86,0-2.5.55-3.62,1.57-4.91,1.08-1.38,3.06-1.73,4.96-1.73h2.55v-4.21h-4.54s-5.6-.24-8.72,2.24c-2.16,1.73-3.63,4.48-3.63,9.22s1.74,8.44,4.91,9.73c3.24,1.32,9.7,1.29,9.7,1.29l14.25-.3V13.03c0-4.73-1.45-7.48-3.63-9.21ZM345.59,26.01c-1.36-1.36-3.21-2.13-5.14-2.12-3.98,0-7.26,3.26-7.26,7.26,0,1.94.75,3.76,2.14,5.14,1.36,1.36,3.2,2.12,5.12,2.12,4,.01,7.26-3.23,7.26-7.23v-.03c0-1.93-.76-3.78-2.12-5.14ZM340.45,37.19c-1.6,0-3.14-.63-4.27-1.77-1.13-1.13-1.77-2.67-1.77-4.27s.64-3.13,1.77-4.27c1.13-1.14,2.67-1.78,4.27-1.78s3.14.64,4.27,1.78c1.14,1.13,1.78,2.67,1.78,4.27,0,3.33-2.71,6.04-6.05,6.04ZM171.42-.02v1.6h8.39v4.48h-8.39v20.6s0,2.57.27,4.72c.27,2.16,1.81,2.24,3.09,2.24s3.34-.15,3.34-.15v4.49l-7.7.15c-4.26,0-5.89-2.67-6.07-3.79-.19-1.12-.37-4.31-.37-4.31V-.02h7.44Z"/>
    <path class="cls-1" d="M344.04,34.52c-.11-.04-.2-.17-.24-.35-.05-.2-.07-.41-.07-.61l-.03-1.05c-.02-.49-.13-.84-.3-1.07-.11-.16-.28-.28-.48-.4.24-.16.46-.35.61-.59.21-.32.31-.73.31-1.23,0-.96-.4-1.63-1.18-1.99-.42-.18-.92-.27-1.54-.27h-3.75v8.08h1.39v-3.31h2.21c.4,0,.7.04.87.12.29.14.44.42.46.86l.06,1.29c.02.32.03.52.06.64.04.12.06.22.1.3l.06.1h1.56v-.47l-.1-.05ZM342.08,30.23c-.26.18-.62.27-1.07.27h-2.25v-2.28h2.39c.32,0,.59.04.78.13.33.17.49.49.49.97,0,.45-.12.75-.34.91Z"/>
  </g>
  <g>
    <polygon class="cls-2" points="18.31 176.34 117.08 176.34 117.08 207.73 24.3 207.73 24.3 233.13 18.31 233.13 18.31 201.74 111.09 201.74 111.09 182.33 18.31 182.33 18.31 176.34"/>
    <polygon class="cls-2" points="242.57 207.73 242.57 233.13 236.58 233.13 236.58 201.74 329.36 201.74 329.36 182.33 236.58 182.33 236.58 176.34 335.34 176.34 335.34 207.73 242.57 207.73"/>
    <polygon class="cls-2" points="167.47 176.34 167.47 227.14 117.08 227.14 117.08 233.13 173.72 233.13 173.72 182.33 221.98 182.33 221.98 176.34 167.47 176.34"/>
  </g>
  <g class="cls-6">
    <path class="cls-5" d="M425.38,45.35c-8.63,0-19.77,10.5-28.34,20.37-6.32,7.28-11.23,14.21-12.69,16.33h0c-.3.43-.45.66-.45.66h.06l21.15.24,4.08.04,1.57.02,4.43.05,52.56.58v-38.44s-26.08.15-42.36.15ZM467.16,83.05l-51.79-.57-4.62-.05-1.57-.02-4.08-.05-20.11-.22c1.72-2.45,6.8-9.54,13.19-16.81,8.39-9.55,19.02-19.39,27.2-19.39,10.33,0,25.32-.07,34.42-.11,3.58-.02,6.24-.03,7.36-.04v37.26Z"/>
  </g>
  <path class="cls-5" d="M384.42,236.58s3.17,7.78,8.86,16.33c6.8,10.24,17.19,21.56,30.01,21.95,11.77.36,28.66.28,37.12.21h.01c3.24-.03,5.24-.06,5.24-.06v-38.43h-81.24ZM445.82,269.24h-19.88c-4.4,0-8.64-1.6-11.93-4.51l-5.16-3.89c-1.15-1.02-.43-2.92,1.1-2.92l24.1.59c2.7,0,5.29,1.1,7.16,3.05l5.79,4.91c.99,1.05.25,2.77-1.18,2.77Z"/>
  <path class="cls-5" d="M560,45.24v229.72l-99.58.11h-.01c-.2-.1-2.36-1.19-7.33-6.41-5.22-5.49-11.5-11.77-17.47-13.1-5.97-1.32-34.32-1.06-34.32-1.06-2.9,0-6.25-.26-8.01-1.59-.28-.21-.52-.44-.71-.71-1.42-1.94-9.03-16.28-12.74-22.82-3.72-6.55-15.97-27.1-15.04-79.13.53-29.56,10.35-52.88,19.16-67.54.13-.22.26-.44.39-.65h0c5.61-9.24,10.75-14.9,12.69-16.34.32-.24.55-.36.68-.37.11-.01.27-.01.46-.02,3.53-.13,19.59-.3,32.5-.3,13.6,0,20.7-10.75,24.36-15.79,1.53-1.91,3.34-2.9,4.76-3.41,1.42-.51,2.45-.55,2.45-.55h67.95l29.8-.04Z"/>
  <path class="cls-5" d="M467.74,146.81c0,5.11-.91,10.01-2.57,14.54-4.28,11.66-13.57,20.9-25.26,25.13-4.47,1.62-9.3,2.5-14.33,2.5s-10.16-.94-14.75-2.65c-11.47-4.28-20.58-13.42-24.83-24.91-1.68-4.55-2.6-9.47-2.6-14.6s.9-9.99,2.56-14.52c4.23-11.54,13.37-20.72,24.88-25.01,4.58-1.71,9.55-2.64,14.73-2.64s9.85.88,14.32,2.49c11.73,4.23,21.03,13.52,25.3,25.23,1.64,4.51,2.54,9.37,2.54,14.45h0Z"/>
  <path class="cls-5" d="M439.97,171.3v14.49c0,.24-.02.47-.06.69-4.47,1.62-9.3,2.5-14.33,2.5s-10.16-.94-14.75-2.65c-.03-.17-.04-.36-.04-.54v-14.49c0-1.08.43-2.07,1.14-2.79l9.19-8.79c2.39-2.28,6.15-2.28,8.53,0l8.66,8.32c.31.23.59.5.83.8.53.68.84,1.53.84,2.45h0Z"/>
  <path class="cls-5" d="M439.97,107.92v14.49c0,.93-.31,1.78-.84,2.45-.24.31-.52.58-.83.8l-8.66,8.32c-2.38,2.28-6.14,2.29-8.53,0l-9.19-8.79c-.7-.72-1.14-1.71-1.14-2.79v-14.49c0-.22.02-.43.06-.63,4.58-1.71,9.55-2.64,14.73-2.64s9.85.88,14.32,2.49c.05.26.08.52.08.79h0Z"/>
  <path class="cls-5" d="M467.74,146.81c0,5.11-.91,10.01-2.57,14.54-.27.06-.56.09-.85.09h-14.49c-1.08,0-2.07-.43-2.79-1.13l-8.8-9.19c-2.28-2.39-2.28-6.15.01-8.53l8.32-8.66c.23-.31.5-.59.8-.83h0c.68-.53,1.53-.84,2.45-.84h14.49c.3,0,.6.03.89.1,1.64,4.51,2.54,9.37,2.54,14.45Z"/>
  <path class="cls-5" d="M412.52,151.12l-8.8,9.19c-.72.7-1.7,1.13-2.79,1.13h-14.48c-.15,0-.3,0-.45-.03-1.68-4.55-2.6-9.47-2.6-14.6s.9-9.99,2.56-14.52c.16-.02.32-.03.48-.03h14.48c.93,0,1.78.31,2.46.84.31.24.58.52.8.83l8.32,8.66c2.29,2.38,2.29,6.14.01,8.53h0Z"/>
  <circle class="cls-5" cx="427.83" cy="219.89" r="18.84" transform="translate(193.83 640.16) rotate(-88.09)"/>
  <path class="cls-5" d="M499.67,254.4c0,7.69-6.24,13.94-13.94,13.94s-13.94-6.24-13.94-13.94h27.89,0Z"/>
  <circle class="cls-5" cx="379.25" cy="203.04" r="2.57"/>
  <circle class="cls-5" cx="389.07" cy="227.81" r="2.57" transform="translate(155.01 613.15) rotate(-89.08)"/>
  <path class="cls-5" d="M454.91,91.88h6.7c2.6,0,4.71,2.11,4.71,4.71h0c0,2.6-2.11,4.71-4.71,4.71h-6.7c-2.6,0-4.71-2.11-4.71-4.71h0c0-2.6,2.11-4.71,4.71-4.71Z"/>
  <rect class="cls-5" x="517.54" y="255.79" width="18.05" height="13.45" rx="6.72" ry="6.72"/>
  <path class="cls-5" d="M560,255.88v13.27c-3.2-.51-5.65-3.29-5.65-6.63h0c0-3.35,2.45-6.13,5.65-6.64Z"/>
  <path class="cls-5" d="M560,61.45v183.42h-75.64c-1.76,0-3.19-1.43-3.19-3.19V64.64c0-1.76,1.43-3.19,3.19-3.19h75.64Z"/>
  <path class="cls-5" d="M425.38,113.02l-4.9,5.63h9.79l-4.89-5.63ZM425.38,113.97l3.65,4.2h-7.29l3.64-4.2Z"/>
  <path class="cls-5" d="M420.49,175.33l4.89,5.64,4.9-5.64h-9.79ZM421.73,175.82h7.29l-3.64,4.2-3.65-4.2Z"/>
  <path class="cls-5" d="M397.04,142.1v9.79l-5.63-4.89,5.63-4.89ZM396.56,150.64v-7.3l-4.2,3.65,4.2,3.65h0Z"/>
  <path class="cls-5" d="M453.72,142.1v9.78l5.63-4.89-5.63-4.89ZM454.2,143.35l4.2,3.65-4.2,3.64v-7.29Z"/>
  <g>
    <path class="cls-4" d="M409.18,77.46l-.02,15.17-4.07-1.32v-17.83l5.19,1.37c3.32.89,5.35,2.63,5.32,5.67-.03,3.54-1.67,4.96-4.86,4.03v-6.98c0-.84-1.57-.89-1.57-.12h0Z"/>
    <g>
      <path class="cls-3" d="M401.32,89.01c-1.24.43-2.3-.58-1.16-.99l.93-.33-3.49-1.11c-1.07.36-2.08,1.14-2.02,2.23.07,1.11,2.59,1.37,4.54,1.69,1.82.3,3.47.13,4.97-.4v-1.14l-1.87-.6-1.92.64Z"/>
      <path class="cls-3" d="M420.77,87.28c-.26-1.19-2.16-1.83-5.09-2.05-2.1-.15-4.16.31-6.18,1.01l-.33.12h0s0,2.36,0,2.36l3.62-1.24h0l2.12-.71c2.21-.41,3.11.31.98.99l-1.06.36,3.83,1.19.07-.02c1.55-.55,2.21-1.31,2.05-2.02Z"/>
      <polygon class="cls-3" points="405.1 85.09 405.1 84.05 403.5 84.6 405.1 85.09"/>
      <polygon class="cls-3" points="405.1 88.96 405.1 87.74 403.23 88.37 405.1 88.96"/>
      <polygon class="cls-3" points="409.17 90.05 409.17 90.25 409.17 90.25 409.17 92.55 409.2 92.63 412.75 91.39 412.75 91.39 418.65 89.31 414.82 88.12 409.17 90.05"/>
      <path class="cls-3" d="M397.6,86.58l3.49,1.11,4.02-1.44v-1.16l-1.6-.5-5.82,1.97s-.05.02-.08.02Z"/>
    </g>
  </g>
</svg>