<?xml version="1.0" encoding="UTF-8"?>
<svg id="Layer_1" data-name="Layer 1" xmlns="http://www.w3.org/2000/svg" viewBox="0 0 560 320">
  <defs>
    <style>
      .cls-1 {
        fill: #372869;
      }

      .cls-2 {
        fill: #f3c202;
      }

      .cls-2, .cls-3, .cls-4, .cls-5 {
        fill-rule: evenodd;
      }

      .cls-3 {
        fill: #de0029;
      }

      .cls-4 {
        fill: #326db3;
      }

      .cls-6 {
        fill: #bca3ce;
        stroke: #553f98;
        stroke-miterlimit: 10;
        stroke-width: .5px;
      }

      .cls-7 {
        fill: #553f98;
      }

      .cls-5 {
        fill: #00aa9e;
      }
    </style>
  </defs>
  <rect class="cls-1" x=".76" y="-.02" width="559.24" height="320"/>
  <path class="cls-7" d="M405.14-.12c-3.45,16.81-8.27,33.52-14.2,49.97-.77,2.14-1.56,4.27-2.37,6.4-3.15,8.31-6.6,16.53-10.28,24.65-5.58,12.3-11.73,24.36-18.36,36.11-.66,1.19-1.34,2.38-2.03,3.56-.5.88-1,1.74-1.5,2.61h0c-10.64,18.29-22.38,35.76-34.79,52.08-48.21,64.41-136.13,76.41-201.3,120.77-3.92,2.65-7.76,5.44-11.5,8.36-1.03.8-2.04,1.61-3.05,2.44-1.96,1.61-3.9,3.27-5.82,5-2.85,2.53-5.66,5.19-8.43,7.96H-.37V-.12h405.51Z"/>
  <g>
    <path d="M11.52,51.49v47.64h7.44v-43.07h6.88s5,0,6.71,2.24c1.45,1.9,1.72,5.35,1.72,7.67,0,2.49-.16,6.34-.99,7.75-1.27,2.15-3.35,2.58-5.25,2.58h-4.54v4.23h6.53s5.9.25,8.43-2.33c3.11-3.16,3.9-7.41,3.9-13.09,0-5.17-1.87-10.38-5.71-12.15-3.17-1.46-8.89-1.46-8.89-1.46H11.52ZM48.19,99.13h7.44v-47.64h-7.44v47.64ZM95.19,62.61l13.61,35.66-7.81,19.13h6.17l22.49-54.79h-6.89l-9.8,26.7-9.12-26.7h-8.65ZM135.25,98.85v-4.5s7.86.31,9.5.31c3.63,0,5.44-.77,6.81-2.24.81-.88,1.53-4.76,1.53-6.15s-.27-4.36-.81-5.59c-.56-1.2-1.82-2.32-3.72-2.48-1.35-.12-3.45-.39-5.9-.5-3.43-.16-5.7-1.95-6.8-3.24-1.08-1.29-2.54-3.23-2.54-9.17s1.54-9.28,3.08-10.83c1.54-1.55,3.8-2.24,5.53-2.54,1.99-.34,5.25-.36,5.25-.36l10.41.3v4.5s-7.59-.3-9.22-.3c-3.63,0-4.72.78-6.08,2.24-.8.87-1.43,3.27-1.43,4.65s.16,4.18.71,5.39c.54,1.2,1.81,2.32,3.72,2.49,1.35.1,3.45.38,5.89.49,3.45.16,5.72,1.95,6.8,3.24,1.09,1.29,2.55,4.02,2.55,9.95s-1.55,10.2-3.08,11.75c-1.55,1.55-3.8,2.24-5.53,2.54-2,.34-5.26.37-5.26.37l-11.41-.31ZM175.82,56.06h-7.43v34.97s.18,3.19.36,4.31c.18,1.12,1.82,3.79,6.08,3.79l7.7-.15v-4.49s-2.09.15-3.35.15-2.82-.08-3.08-2.24c-.28-2.15-.28-4.73-.28-4.73v-20.59h8.4v-4.48h-8.4v-6.55M247.59,99.13h7.43v-36.52h-7.43v36.52ZM247.59,58.12h7.43v-6.63h-7.43v6.63ZM278.52,62.29c5.06,0,8.98,1.13,11.09,2.83,2.13,1.71,4.74,5.31,4.74,15.74s-2.61,14.03-4.74,15.74c-2.11,1.7-6.03,2.84-11.09,2.84s-8.98-1.14-11.1-2.84c-2.12-1.71-4.73-5.31-4.73-15.74s2.6-14.03,4.73-15.74c2.12-1.7,6.03-2.83,11.1-2.83ZM273.42,69.3c-1.02,1.26-2.27,3.91-2.27,11.57s1.25,10.31,2.27,11.57c1.02,1.25,2.9,2.09,5.33,2.09s4.31-.84,5.34-2.09c1.02-1.26,2.26-3.91,2.26-11.57s-1.25-10.31-2.26-11.57c-1.03-1.25-2.9-2.09-5.34-2.09s-4.31.84-5.33,2.09M309.75,67.74l7.29-.31c1.91,0,4.15.51,5.24,1.9,1.01,1.3,1.65,2.85,1.65,5.35v24.42h7.45v-25.03c0-4.73-1.46-7.49-3.65-9.22-3.12-2.47-8.7-2.24-8.7-2.24l-16.66.3v36.19h7.37v-31.36ZM232.78,56.06h-7.44v34.97s.18,3.19.35,4.31c.19,1.12,1.81,3.79,6.09,3.79l7.7-.15v-4.49s-2.09.15-3.35.15-2.81-.08-3.08-2.24c-.27-2.15-.27-4.73-.27-4.73v-20.59h8.38v-4.48h-8.38v-6.55ZM83.84,74.67c0-2.5-.64-4.05-1.66-5.35-1.09-1.38-3.32-1.9-5.24-1.9l-9.81.31v-4.83l11.8-.3s5.59-.24,8.71,2.24c2.18,1.73,3.62,4.48,3.62,9.22v24.68l-14.25.31s-6.45.02-9.7-1.29c-3.17-1.29-4.9-4.83-4.9-9.74s1.45-7.49,3.63-9.22c3.12-2.48,8.7-2.23,8.7-2.23h4.55v4.21h-2.55c-1.91,0-3.88.35-4.97,1.73-1.02,1.29-1.56,2.41-1.56,4.91,0,3.28.64,4.74,2.18,5.86,1.36.99,3.8,1.21,6.53,1.21l4.91-.3v-19.51ZM209.23,74.67c0-2.5-.62-4.05-1.65-5.35-1.1-1.38-3.34-1.9-5.24-1.9l-9.8.31v-4.83l11.79-.3s5.58-.24,8.7,2.24c2.18,1.73,3.63,4.48,3.63,9.22v24.68l-14.25.31s-6.46.02-9.7-1.29c-3.17-1.29-4.9-4.83-4.9-9.74s1.46-7.49,3.63-9.22c3.12-2.48,8.71-2.23,8.71-2.23h4.55v4.21h-2.56c-1.9,0-3.88.35-4.96,1.73-1.02,1.29-1.57,2.41-1.57,4.91,0,3.28.64,4.74,2.18,5.86,1.36.99,3.81,1.21,6.53,1.21l4.9-.3v-19.51ZM344.86,99.43c4,0,7.25-3.23,7.26-7.23v-.03c0-1.93-.76-3.78-2.12-5.14-1.36-1.36-3.21-2.13-5.14-2.12-3.99,0-7.26,3.26-7.26,7.26,0,1.94.75,3.76,2.13,5.14,1.36,1.36,3.2,2.12,5.13,2.12ZM338.82,92.17c0-1.61.64-3.13,1.77-4.27,1.13-1.14,2.67-1.77,4.27-1.77,1.61,0,3.13.64,4.27,1.77,1.14,1.13,1.77,2.67,1.77,4.27,0,3.33-2.71,6.04-6.04,6.04-1.6,0-3.14-.64-4.27-1.77-1.14-1.13-1.77-2.67-1.77-4.27"/>
    <path d="M348.44,95.55c-.11-.04-.19-.17-.24-.35-.04-.2-.07-.41-.07-.61l-.03-1.04c-.02-.49-.12-.84-.3-1.07-.11-.16-.28-.28-.48-.4.24-.16.46-.35.61-.59.2-.33.31-.74.31-1.23,0-.96-.4-1.63-1.19-1.98-.42-.19-.92-.27-1.54-.27h-3.75v8.08h1.4v-3.31h2.21c.4,0,.7.04.87.12.29.14.44.43.46.87l.06,1.29c.02.32.03.51.06.63.04.13.06.22.1.31l.06.1h1.56v-.47l-.1-.05h0ZM346.83,90.34c0,.45-.12.75-.34.92-.26.17-.61.27-1.06.27h-2.25v-2.28h2.39c.32,0,.59.04.78.14.33.17.49.49.49.96"/>
  </g>
  <g>
    <path class="cls-1" d="M11.52,112.85v47.64h7.44v-43.07h6.88s5,0,6.71,2.24c1.45,1.9,1.72,5.35,1.72,7.67,0,2.49-.16,6.34-.99,7.75-1.27,2.15-3.35,2.58-5.25,2.58h-4.54v4.23h6.53s5.9.25,8.43-2.33c3.11-3.16,3.9-7.41,3.9-13.09,0-5.17-1.87-10.38-5.71-12.15-3.17-1.46-8.89-1.46-8.89-1.46H11.52ZM48.19,160.48h7.44v-47.64h-7.44v47.64ZM95.19,123.96l13.61,35.66-7.81,19.13h6.17l22.49-54.79h-6.89l-9.8,26.7-9.12-26.7h-8.65ZM135.25,160.2v-4.5s7.86.31,9.5.31c3.63,0,5.44-.77,6.81-2.24.81-.88,1.53-4.76,1.53-6.15s-.27-4.36-.81-5.59c-.56-1.2-1.82-2.32-3.72-2.48-1.35-.12-3.45-.39-5.9-.5-3.43-.16-5.7-1.95-6.8-3.24-1.08-1.29-2.54-3.23-2.54-9.17s1.54-9.28,3.08-10.83c1.54-1.55,3.8-2.24,5.53-2.54,1.99-.34,5.25-.36,5.25-.36l10.41.3v4.5s-7.59-.3-9.22-.3c-3.63,0-4.72.78-6.08,2.24-.8.87-1.43,3.27-1.43,4.65s.16,4.18.71,5.39c.54,1.2,1.81,2.32,3.72,2.49,1.35.1,3.45.38,5.89.49,3.45.16,5.72,1.95,6.8,3.24,1.09,1.29,2.55,4.02,2.55,9.95s-1.55,10.2-3.08,11.75c-1.55,1.55-3.8,2.24-5.53,2.54-2,.34-5.26.37-5.26.37l-11.41-.31ZM175.82,117.41h-7.43v34.97s.18,3.19.36,4.31c.18,1.12,1.82,3.79,6.08,3.79l7.7-.15v-4.49s-2.09.15-3.35.15-2.82-.08-3.08-2.24c-.28-2.15-.28-4.73-.28-4.73v-20.59h8.4v-4.48h-8.4v-6.55M247.59,160.48h7.43v-36.52h-7.43v36.52ZM247.59,119.48h7.43v-6.63h-7.43v6.63ZM278.52,123.65c5.06,0,8.98,1.13,11.09,2.83,2.13,1.71,4.74,5.31,4.74,15.74s-2.61,14.03-4.74,15.74c-2.11,1.7-6.03,2.84-11.09,2.84s-8.98-1.14-11.1-2.84c-2.12-1.71-4.73-5.31-4.73-15.74s2.6-14.03,4.73-15.74c2.12-1.7,6.03-2.83,11.1-2.83ZM273.42,130.65c-1.02,1.26-2.27,3.91-2.27,11.57s1.25,10.31,2.27,11.57c1.02,1.25,2.9,2.09,5.33,2.09s4.31-.84,5.34-2.09c1.02-1.26,2.26-3.91,2.26-11.57s-1.25-10.31-2.26-11.57c-1.03-1.25-2.9-2.09-5.34-2.09s-4.31.84-5.33,2.09M309.75,129.09l7.29-.31c1.91,0,4.15.51,5.24,1.9,1.01,1.3,1.65,2.85,1.65,5.35v24.42h7.45v-25.03c0-4.73-1.46-7.49-3.65-9.22-3.12-2.47-8.7-2.24-8.7-2.24l-16.66.3v36.19h7.37v-31.36ZM232.78,117.41h-7.44v34.97s.18,3.19.35,4.31c.19,1.12,1.81,3.79,6.09,3.79l7.7-.15v-4.49s-2.09.15-3.35.15-2.81-.08-3.08-2.24c-.27-2.15-.27-4.73-.27-4.73v-20.59h8.38v-4.48h-8.38v-6.55ZM83.84,136.03c0-2.5-.64-4.05-1.66-5.35-1.09-1.38-3.32-1.9-5.24-1.9l-9.81.31v-4.83l11.8-.3s5.59-.24,8.71,2.24c2.18,1.73,3.62,4.48,3.62,9.22v24.68l-14.25.31s-6.45.02-9.7-1.29c-3.17-1.29-4.9-4.83-4.9-9.74s1.45-7.49,3.63-9.22c3.12-2.48,8.7-2.23,8.7-2.23h4.55v4.21h-2.55c-1.91,0-3.88.35-4.97,1.73-1.02,1.29-1.56,2.41-1.56,4.91,0,3.28.64,4.74,2.18,5.86,1.36.99,3.8,1.21,6.53,1.21l4.91-.3v-19.51ZM209.23,136.03c0-2.5-.62-4.05-1.65-5.35-1.1-1.38-3.34-1.9-5.24-1.9l-9.8.31v-4.83l11.79-.3s5.58-.24,8.7,2.24c2.18,1.73,3.63,4.48,3.63,9.22v24.68l-14.25.31s-6.46.02-9.7-1.29c-3.17-1.29-4.9-4.83-4.9-9.74s1.46-7.49,3.63-9.22c3.12-2.48,8.71-2.23,8.71-2.23h4.55v4.21h-2.56c-1.9,0-3.88.35-4.96,1.73-1.02,1.29-1.57,2.41-1.57,4.91,0,3.28.64,4.74,2.18,5.86,1.36.99,3.81,1.21,6.53,1.21l4.9-.3v-19.51ZM344.86,160.78c4,0,7.25-3.23,7.26-7.23v-.03c0-1.93-.76-3.78-2.12-5.14-1.36-1.36-3.21-2.13-5.14-2.12-3.99,0-7.26,3.26-7.26,7.26,0,1.94.75,3.76,2.13,5.14,1.36,1.36,3.2,2.12,5.13,2.12ZM338.82,153.53c0-1.61.64-3.13,1.77-4.27,1.13-1.14,2.67-1.77,4.27-1.77,1.61,0,3.13.64,4.27,1.77,1.14,1.13,1.77,2.67,1.77,4.27,0,3.33-2.71,6.04-6.04,6.04-1.6,0-3.14-.64-4.27-1.77-1.14-1.13-1.77-2.67-1.77-4.27"/>
    <path class="cls-1" d="M348.44,156.9c-.11-.04-.19-.17-.24-.35-.04-.2-.07-.41-.07-.61l-.03-1.04c-.02-.49-.12-.84-.3-1.07-.11-.16-.28-.28-.48-.4.24-.16.46-.35.61-.59.2-.33.31-.74.31-1.23,0-.96-.4-1.63-1.19-1.98-.42-.19-.92-.27-1.54-.27h-3.75v8.08h1.4v-3.31h2.21c.4,0,.7.04.87.12.29.14.44.43.46.87l.06,1.29c.02.32.03.51.06.63.04.13.06.22.1.31l.06.1h1.56v-.47l-.1-.05h0ZM346.83,151.69c0,.45-.12.75-.34.92-.26.17-.61.27-1.06.27h-2.25v-2.28h2.39c.32,0,.59.04.78.14.33.17.49.49.49.96"/>
  </g>
  <g>
    <path class="cls-1" d="M11.52,172.55v47.64h7.44v-43.07h6.88s5,0,6.71,2.24c1.45,1.9,1.72,5.35,1.72,7.67,0,2.49-.16,6.34-.99,7.75-1.27,2.15-3.35,2.58-5.25,2.58h-4.54v4.23h6.53s5.9.25,8.43-2.33c3.11-3.16,3.9-7.41,3.9-13.09,0-5.17-1.87-10.38-5.71-12.15-3.17-1.46-8.89-1.46-8.89-1.46H11.52ZM48.19,220.19h7.44v-47.64h-7.44v47.64ZM95.19,183.66l13.61,35.66-7.81,19.13h6.17l22.49-54.79h-6.89l-9.8,26.7-9.12-26.7h-8.65ZM135.25,219.91v-4.5s7.86.31,9.5.31c3.63,0,5.44-.77,6.81-2.24.81-.88,1.53-4.76,1.53-6.15s-.27-4.36-.81-5.59c-.56-1.2-1.82-2.32-3.72-2.48-1.35-.12-3.45-.39-5.9-.5-3.43-.16-5.7-1.95-6.8-3.24-1.08-1.29-2.54-3.23-2.54-9.17s1.54-9.28,3.08-10.83c1.54-1.55,3.8-2.24,5.53-2.54,1.99-.34,5.25-.36,5.25-.36l10.41.3v4.5s-7.59-.3-9.22-.3c-3.63,0-4.72.78-6.08,2.24-.8.87-1.43,3.27-1.43,4.65s.16,4.18.71,5.39c.54,1.2,1.81,2.32,3.72,2.49,1.35.1,3.45.38,5.89.49,3.45.16,5.72,1.95,6.8,3.24,1.09,1.29,2.55,4.02,2.55,9.95s-1.55,10.2-3.08,11.75c-1.55,1.55-3.8,2.24-5.53,2.54-2,.34-5.26.37-5.26.37l-11.41-.31ZM175.82,177.12h-7.43v34.97s.18,3.19.36,4.31c.18,1.12,1.82,3.79,6.08,3.79l7.7-.15v-4.49s-2.09.15-3.35.15-2.82-.08-3.08-2.24c-.28-2.15-.28-4.73-.28-4.73v-20.59h8.4v-4.48h-8.4v-6.55M247.59,220.19h7.43v-36.52h-7.43v36.52ZM247.59,179.18h7.43v-6.63h-7.43v6.63ZM278.52,183.35c5.06,0,8.98,1.13,11.09,2.83,2.13,1.71,4.74,5.31,4.74,15.74s-2.61,14.03-4.74,15.74c-2.11,1.7-6.03,2.84-11.09,2.84s-8.98-1.14-11.1-2.84c-2.12-1.71-4.73-5.31-4.73-15.74s2.6-14.03,4.73-15.74c2.12-1.7,6.03-2.83,11.1-2.83ZM273.42,190.36c-1.02,1.26-2.27,3.91-2.27,11.57s1.25,10.31,2.27,11.57c1.02,1.25,2.9,2.09,5.33,2.09s4.31-.84,5.34-2.09c1.02-1.26,2.26-3.91,2.26-11.57s-1.25-10.31-2.26-11.57c-1.03-1.25-2.9-2.09-5.34-2.09s-4.31.84-5.33,2.09M309.75,188.79l7.29-.31c1.91,0,4.15.51,5.24,1.9,1.01,1.3,1.65,2.85,1.65,5.35v24.42h7.45v-25.03c0-4.73-1.46-7.49-3.65-9.22-3.12-2.47-8.7-2.24-8.7-2.24l-16.66.3v36.19h7.37v-31.36ZM232.78,177.12h-7.44v34.97s.18,3.19.35,4.31c.19,1.12,1.81,3.79,6.09,3.79l7.7-.15v-4.49s-2.09.15-3.35.15-2.81-.08-3.08-2.24c-.27-2.15-.27-4.73-.27-4.73v-20.59h8.38v-4.48h-8.38v-6.55ZM83.84,195.73c0-2.5-.64-4.05-1.66-5.35-1.09-1.38-3.32-1.9-5.24-1.9l-9.81.31v-4.83l11.8-.3s5.59-.24,8.71,2.24c2.18,1.73,3.62,4.48,3.62,9.22v24.68l-14.25.31s-6.45.02-9.7-1.29c-3.17-1.29-4.9-4.83-4.9-9.74s1.45-7.49,3.63-9.22c3.12-2.48,8.7-2.23,8.7-2.23h4.55v4.21h-2.55c-1.91,0-3.88.35-4.97,1.73-1.02,1.29-1.56,2.41-1.56,4.91,0,3.28.64,4.74,2.18,5.86,1.36.99,3.8,1.21,6.53,1.21l4.91-.3v-19.51ZM209.23,195.73c0-2.5-.62-4.05-1.65-5.35-1.1-1.38-3.34-1.9-5.24-1.9l-9.8.31v-4.83l11.79-.3s5.58-.24,8.7,2.24c2.18,1.73,3.63,4.48,3.63,9.22v24.68l-14.25.31s-6.46.02-9.7-1.29c-3.17-1.29-4.9-4.83-4.9-9.74s1.46-7.49,3.63-9.22c3.12-2.48,8.71-2.23,8.71-2.23h4.55v4.21h-2.56c-1.9,0-3.88.35-4.96,1.73-1.02,1.29-1.57,2.41-1.57,4.91,0,3.28.64,4.74,2.18,5.86,1.36.99,3.81,1.21,6.53,1.21l4.9-.3v-19.51ZM344.86,220.49c4,0,7.25-3.23,7.26-7.23v-.03c0-1.93-.76-3.78-2.12-5.14-1.36-1.36-3.21-2.13-5.14-2.12-3.99,0-7.26,3.26-7.26,7.26,0,1.94.75,3.76,2.13,5.14,1.36,1.36,3.2,2.12,5.13,2.12ZM338.82,213.23c0-1.61.64-3.13,1.77-4.27,1.13-1.14,2.67-1.77,4.27-1.77,1.61,0,3.13.64,4.27,1.77,1.14,1.13,1.77,2.67,1.77,4.27,0,3.33-2.71,6.04-6.04,6.04-1.6,0-3.14-.64-4.27-1.77-1.14-1.13-1.77-2.67-1.77-4.27"/>
    <path class="cls-1" d="M348.44,216.6c-.11-.04-.19-.17-.24-.35-.04-.2-.07-.41-.07-.61l-.03-1.04c-.02-.49-.12-.84-.3-1.07-.11-.16-.28-.28-.48-.4.24-.16.46-.35.61-.59.2-.33.31-.74.31-1.23,0-.96-.4-1.63-1.19-1.98-.42-.19-.92-.27-1.54-.27h-3.75v8.08h1.4v-3.31h2.21c.4,0,.7.04.87.12.29.14.44.43.46.87l.06,1.29c.02.32.03.51.06.63.04.13.06.22.1.31l.06.1h1.56v-.47l-.1-.05h0ZM346.83,211.4c0,.45-.12.75-.34.92-.26.17-.61.27-1.06.27h-2.25v-2.28h2.39c.32,0,.59.04.78.14.33.17.49.49.49.96"/>
  </g>
  <g>
    <path class="cls-1" d="M11.52,232.91v47.64h7.44v-43.07h6.88s5,0,6.71,2.24c1.45,1.9,1.72,5.35,1.72,7.67,0,2.49-.16,6.34-.99,7.75-1.27,2.15-3.35,2.58-5.25,2.58h-4.54v4.23h6.53s5.9.25,8.43-2.33c3.11-3.16,3.9-7.41,3.9-13.09,0-5.17-1.87-10.38-5.71-12.15-3.17-1.46-8.89-1.46-8.89-1.46H11.52ZM48.19,280.55h7.44v-47.64h-7.44v47.64ZM95.19,244.02l13.61,35.66-7.81,19.13h6.17l22.49-54.79h-6.89l-9.8,26.7-9.12-26.7h-8.65ZM135.25,280.26v-4.5s7.86.31,9.5.31c3.63,0,5.44-.77,6.81-2.24.81-.88,1.53-4.76,1.53-6.15s-.27-4.36-.81-5.59c-.56-1.2-1.82-2.32-3.72-2.48-1.35-.12-3.45-.39-5.9-.5-3.43-.16-5.7-1.95-6.8-3.24-1.08-1.29-2.54-3.23-2.54-9.17s1.54-9.28,3.08-10.83c1.54-1.55,3.8-2.24,5.53-2.54,1.99-.34,5.25-.36,5.25-.36l10.41.3v4.5s-7.59-.3-9.22-.3c-3.63,0-4.72.78-6.08,2.24-.8.87-1.43,3.27-1.43,4.65s.16,4.18.71,5.39c.54,1.2,1.81,2.32,3.72,2.49,1.35.1,3.45.38,5.89.49,3.45.16,5.72,1.95,6.8,3.24,1.09,1.29,2.55,4.02,2.55,9.95s-1.55,10.2-3.08,11.75c-1.55,1.55-3.8,2.24-5.53,2.54-2,.34-5.26.37-5.26.37l-11.41-.31ZM175.82,237.47h-7.43v34.97s.18,3.19.36,4.31c.18,1.12,1.82,3.79,6.08,3.79l7.7-.15v-4.49s-2.09.15-3.35.15-2.82-.08-3.08-2.24c-.28-2.15-.28-4.73-.28-4.73v-20.59h8.4v-4.48h-8.4v-6.55M247.59,280.55h7.43v-36.52h-7.43v36.52ZM247.59,239.54h7.43v-6.63h-7.43v6.63ZM278.52,243.71c5.06,0,8.98,1.13,11.09,2.83,2.13,1.71,4.74,5.31,4.74,15.74s-2.61,14.03-4.74,15.74c-2.11,1.7-6.03,2.84-11.09,2.84s-8.98-1.14-11.1-2.84c-2.12-1.71-4.73-5.31-4.73-15.74s2.6-14.03,4.73-15.74c2.12-1.7,6.03-2.83,11.1-2.83ZM273.42,250.71c-1.02,1.26-2.27,3.91-2.27,11.57s1.25,10.31,2.27,11.57c1.02,1.25,2.9,2.09,5.33,2.09s4.31-.84,5.34-2.09c1.02-1.26,2.26-3.91,2.26-11.57s-1.25-10.31-2.26-11.57c-1.03-1.25-2.9-2.09-5.34-2.09s-4.31.84-5.33,2.09M309.75,249.15l7.29-.31c1.91,0,4.15.51,5.24,1.9,1.01,1.3,1.65,2.85,1.65,5.35v24.42h7.45v-25.03c0-4.73-1.46-7.49-3.65-9.22-3.12-2.47-8.7-2.24-8.7-2.24l-16.66.3v36.19h7.37v-31.36ZM232.78,237.47h-7.44v34.97s.18,3.19.35,4.31c.19,1.12,1.81,3.79,6.09,3.79l7.7-.15v-4.49s-2.09.15-3.35.15-2.81-.08-3.08-2.24c-.27-2.15-.27-4.73-.27-4.73v-20.59h8.38v-4.48h-8.38v-6.55ZM83.84,256.09c0-2.5-.64-4.05-1.66-5.35-1.09-1.38-3.32-1.9-5.24-1.9l-9.81.31v-4.83l11.8-.3s5.59-.24,8.71,2.24c2.18,1.73,3.62,4.48,3.62,9.22v24.68l-14.25.31s-6.45.02-9.7-1.29c-3.17-1.29-4.9-4.83-4.9-9.74s1.45-7.49,3.63-9.22c3.12-2.48,8.7-2.23,8.7-2.23h4.55v4.21h-2.55c-1.91,0-3.88.35-4.97,1.73-1.02,1.29-1.56,2.41-1.56,4.91,0,3.28.64,4.74,2.18,5.86,1.36.99,3.8,1.21,6.53,1.21l4.91-.3v-19.51ZM209.23,256.09c0-2.5-.62-4.05-1.65-5.35-1.1-1.38-3.34-1.9-5.24-1.9l-9.8.31v-4.83l11.79-.3s5.58-.24,8.7,2.24c2.18,1.73,3.63,4.48,3.63,9.22v24.68l-14.25.31s-6.46.02-9.7-1.29c-3.17-1.29-4.9-4.83-4.9-9.74s1.46-7.49,3.63-9.22c3.12-2.48,8.71-2.23,8.71-2.23h4.55v4.21h-2.56c-1.9,0-3.88.35-4.96,1.73-1.02,1.29-1.57,2.41-1.57,4.91,0,3.28.64,4.74,2.18,5.86,1.36.99,3.81,1.21,6.53,1.21l4.9-.3v-19.51ZM344.86,280.85c4,0,7.25-3.23,7.26-7.23v-.03c0-1.93-.76-3.78-2.12-5.14-1.36-1.36-3.21-2.13-5.14-2.12-3.99,0-7.26,3.26-7.26,7.26,0,1.94.75,3.76,2.13,5.14,1.36,1.36,3.2,2.12,5.13,2.12ZM338.82,273.59c0-1.61.64-3.13,1.77-4.27,1.13-1.14,2.67-1.77,4.27-1.77,1.61,0,3.13.64,4.27,1.77,1.14,1.13,1.77,2.67,1.77,4.27,0,3.33-2.71,6.04-6.04,6.04-1.6,0-3.14-.64-4.27-1.77-1.14-1.13-1.77-2.67-1.77-4.27"/>
    <path class="cls-1" d="M348.44,276.96c-.11-.04-.19-.17-.24-.35-.04-.2-.07-.41-.07-.61l-.03-1.04c-.02-.49-.12-.84-.3-1.07-.11-.16-.28-.28-.48-.4.24-.16.46-.35.61-.59.2-.33.31-.74.31-1.23,0-.96-.4-1.63-1.19-1.98-.42-.19-.92-.27-1.54-.27h-3.75v8.08h1.4v-3.31h2.21c.4,0,.7.04.87.12.29.14.44.43.46.87l.06,1.29c.02.32.03.51.06.63.04.13.06.22.1.31l.06.1h1.56v-.47l-.1-.05h0ZM346.83,271.76c0,.45-.12.75-.34.92-.26.17-.61.27-1.06.27h-2.25v-2.28h2.39c.32,0,.59.04.78.14.33.17.49.49.49.96"/>
  </g>
  <path class="cls-1" d="M36.64,294c-3.17-1.46-8.89-1.46-8.89-1.46H11.52v27.44h7.43v-22.87h6.89s5,0,6.71,2.23c1.46,1.9,1.72,5.35,1.72,7.68,0,2.49-.16,6.34-.99,7.75-1.27,2.15-3.35,2.58-5.26,2.58h-4.54v2.63h14.05c.34-.21.65-.45.92-.73,3.1-3.16,3.89-7.41,3.89-13.1,0-5.17-1.87-10.38-5.7-12.15ZM48.19,292.54v27.44h7.44v-27.44h-7.44ZM103.84,303.65h-8.65l6.23,16.33h8l-5.58-16.33ZM122.76,303.65l-5.99,16.33h6.18l6.7-16.33h-6.89ZM157.99,315.6c-1.08-1.29-3.35-3.08-6.8-3.24-2.44-.11-4.54-.39-5.89-.49-1.91-.17-3.18-1.3-3.72-2.49-.55-1.21-.71-4.01-.71-5.39s.63-3.78,1.43-4.65c1.36-1.46,2.45-2.23,6.08-2.23,1.63,0,9.22.3,9.22.3v-4.5l-10.41-.31s-3.25.02-5.25.37c-1.73.3-3.99.98-5.53,2.54-1.54,1.55-3.08,4.88-3.08,10.83s1.45,7.88,2.53,9.17c1.1,1.29,3.37,3.08,6.8,3.24,2.45.11,4.54.39,5.9.5.86.08,1.59.35,2.19.73h9.23c-.52-2.27-1.32-3.59-1.99-4.38ZM175.82,303.65v-6.55h-7.43v22.88h7.43v-11.85h8.4v-4.48h-8.4ZM247.59,303.65v16.33h7.43v-16.33h-7.43ZM247.59,292.54v6.63h7.43v-6.63h-7.43ZM289.61,306.18c-2.11-1.71-6.03-2.84-11.09-2.84s-8.98,1.13-11.11,2.84c-1.98,1.59-4.39,4.85-4.69,13.8h8.46c.19-6.19,1.31-8.48,2.24-9.64,1.03-1.25,2.91-2.08,5.33-2.08s4.31.83,5.34,2.09c.92,1.14,2.04,3.44,2.23,9.63h8c-.31-8.95-2.72-12.21-4.71-13.8ZM327.74,305.89c-3.12-2.47-8.71-2.24-8.71-2.24l-16.65.3v16.03h7.37v-11.2l7.29-.31c1.91,0,4.16.52,5.24,1.9,1.02,1.3,1.66,2.85,1.66,5.35v4.26h7.44v-4.88c0-4.73-1.46-7.48-3.64-9.21ZM232.78,303.65v-6.55h-7.44v22.88h7.44v-11.85h8.38v-4.48h-8.38ZM74.76,317.62s-5.58-.25-8.7,2.23c-.05.04-.1.08-.15.13h13.4v-2.36h-4.55ZM87.65,305.89c-3.12-2.48-8.71-2.24-8.71-2.24l-11.8.3v4.83l9.81-.31c1.91,0,4.15.52,5.23,1.9,1.03,1.3,1.66,2.85,1.66,5.35v4.26h7.44v-4.88c0-4.73-1.45-7.48-3.63-9.21ZM200.15,317.62s-5.59-.25-8.71,2.23c-.05.04-.1.08-.15.13h13.41v-2.36h-4.55ZM213.04,305.89c-3.12-2.48-8.7-2.24-8.7-2.24l-11.8.3v4.83l9.81-.31c1.89,0,4.13.52,5.23,1.9,1.03,1.3,1.65,2.85,1.65,5.35v4.26h7.44v-4.88c0-4.73-1.46-7.48-3.63-9.21Z"/>
  <g>
    <path class="cls-1" d="M41.96-.02h-8.18c.4,1.63.49,3.43.49,4.83,0,2.49-.16,6.34-.99,7.75-1.27,2.15-3.35,2.59-5.26,2.59h-4.54v4.22h6.53s5.9.25,8.44-2.33c3.1-3.16,3.89-7.41,3.89-13.09,0-1.34-.13-2.69-.38-3.97ZM11.52-.02v37.99h7.43V-.02h-7.43ZM48.19-.02v38h7.44V-.02h-7.44ZM122.76,1.45l-9.8,26.7L103.84,1.45h-8.65l13.6,35.66-7.81,19.13h6.18L129.65,1.45h-6.89ZM157.99,13.4c-1.08-1.3-3.35-3.08-6.8-3.25-2.44-.11-4.54-.38-5.89-.49-1.91-.17-3.18-1.29-3.72-2.49-.55-1.21-.71-4-.71-5.38,0-.51.09-1.15.23-1.81h-7.47c-.19,1.21-.3,2.59-.3,4.15,0,5.94,1.45,7.89,2.53,9.17,1.1,1.29,3.37,3.08,6.8,3.25,2.45.11,4.54.38,5.9.5,1.9.16,3.17,1.28,3.72,2.48.54,1.22.81,4.2.81,5.58s-.73,5.27-1.53,6.15c-1.37,1.47-3.18,2.24-6.81,2.24-1.64,0-9.5-.31-9.5-.31v4.5l11.41.31s3.26-.03,5.26-.37c1.73-.3,3.98-.99,5.53-2.54,1.53-1.55,3.08-5.79,3.08-11.74s-1.45-8.66-2.54-9.95ZM184.22,5.93V1.45h-8.4V-.02h-7.43v29.89s.18,3.2.36,4.32c.19,1.12,1.82,3.79,6.08,3.79l7.7-.15v-4.49s-2.08.15-3.34.15-2.83-.08-3.09-2.24c-.28-2.15-.28-4.73-.28-4.73V5.93h8.4ZM247.59,1.45v36.53h7.43V1.45h-7.43ZM289.61,3.97c-2.11-1.7-6.03-2.83-11.09-2.83s-8.98,1.13-11.11,2.83c-2.12,1.71-4.72,5.31-4.72,15.74s2.6,14.03,4.72,15.75c2.13,1.7,6.03,2.84,11.11,2.84s8.98-1.14,11.09-2.84c2.13-1.72,4.74-5.32,4.74-15.75s-2.61-14.03-4.74-15.74ZM284.09,31.28c-1.04,1.25-2.91,2.09-5.34,2.09s-4.31-.84-5.33-2.09c-1.02-1.25-2.27-3.9-2.27-11.57s1.25-10.31,2.27-11.57c1.02-1.25,2.9-2.09,5.33-2.09s4.31.84,5.34,2.09c1.01,1.26,2.26,3.91,2.26,11.57s-1.25,10.32-2.26,11.57ZM327.74,3.68c-3.12-2.47-8.71-2.23-8.71-2.23l-16.65.3v36.18h7.37V6.58l7.29-.31c1.91,0,4.16.52,5.24,1.9,1.02,1.3,1.66,2.85,1.66,5.35v24.41h7.44V12.9c0-4.73-1.46-7.49-3.64-9.22ZM241.16,5.93V1.45h-8.38V-.02h-7.44v29.89s.18,3.2.36,4.32c.19,1.12,1.81,3.79,6.08,3.79l7.71-.15v-4.49s-2.09.15-3.36.15-2.81-.08-3.08-2.24c-.27-2.15-.27-4.73-.27-4.73V5.93h8.38ZM87.65,3.68c-3.12-2.47-8.71-2.23-8.71-2.23l-11.8.3v4.83l9.81-.31c1.91,0,4.15.52,5.23,1.9,1.03,1.3,1.66,2.85,1.66,5.35v19.5l-4.91.3c-2.72,0-5.16-.21-6.53-1.21-1.54-1.11-2.18-2.57-2.18-5.85,0-2.5.55-3.62,1.57-4.91,1.09-1.38,3.06-1.73,4.97-1.73h2.55v-4.21h-4.55s-5.58-.24-8.7,2.23c-2.18,1.73-3.63,4.49-3.63,9.22s1.73,8.45,4.89,9.74c3.26,1.32,9.71,1.29,9.71,1.29l14.25-.31V12.9c0-4.73-1.45-7.49-3.63-9.22ZM213.04,3.68c-3.12-2.47-8.7-2.23-8.7-2.23l-11.8.3v4.83l9.81-.31c1.89,0,4.13.52,5.23,1.9,1.03,1.3,1.65,2.85,1.65,5.35v19.5l-4.9.3c-2.72,0-5.18-.21-6.54-1.21-1.54-1.11-2.18-2.57-2.18-5.85,0-2.5.55-3.62,1.58-4.91,1.08-1.38,3.06-1.73,4.96-1.73h2.55v-4.21h-4.55s-5.59-.24-8.71,2.23c-2.16,1.73-3.63,4.49-3.63,9.22s1.74,8.45,4.91,9.74c3.24,1.32,9.7,1.29,9.7,1.29l14.25-.31V12.9c0-4.73-1.46-7.49-3.63-9.22ZM350,25.88c-1.36-1.36-3.21-2.13-5.14-2.12-3.99,0-7.26,3.25-7.26,7.26,0,1.93.75,3.76,2.13,5.13,1.36,1.36,3.21,2.13,5.13,2.12,4,.01,7.25-3.22,7.26-7.22v-.03c.01-1.93-.76-3.78-2.12-5.14ZM344.86,37.06c-1.6,0-3.14-.64-4.27-1.77s-1.77-2.67-1.77-4.27.64-3.13,1.77-4.27,2.67-1.78,4.27-1.78,3.13.64,4.27,1.78c1.14,1.13,1.78,2.66,1.77,4.27,0,3.33-2.7,6.04-6.04,6.04Z"/>
    <path class="cls-1" d="M348.44,34.39c-.1-.04-.19-.17-.23-.36-.05-.2-.07-.4-.07-.61l-.04-1.04c-.01-.49-.12-.84-.29-1.07-.11-.16-.28-.28-.48-.4.24-.16.46-.35.61-.59.2-.33.31-.74.31-1.24,0-.95-.4-1.63-1.19-1.98-.41-.19-.92-.27-1.53-.27h-3.75v8.08h1.39v-3.31h2.21c.4,0,.7.04.87.12.28.14.44.42.46.86l.06,1.29c.01.32.03.52.06.63.03.13.05.23.1.31l.06.1h1.56v-.47l-.11-.05ZM346.49,30.1c-.26.17-.62.27-1.07.27h-2.25v-2.29h2.39c.32,0,.58.05.78.14.33.17.49.49.49.96s-.12.76-.34.92Z"/>
  </g>
  <g>
    <path class="cls-3" d="M176.97,166.14l-.14,126.02-33.77-10.98v-148.13l43.1,11.39c27.59,7.41,44.47,21.83,44.2,47.09-.27,29.38-13.86,41.18-40.35,33.5v-57.93c0-7-13.04-7.41-13.04-.96h0Z"/>
    <path class="cls-2" d="M127.56,256.75l-15.92,5.36c-10.3,3.57-19.08-4.8-9.61-8.24l7.69-2.74-28.96-9.2c-8.92,3.02-17.3,9.47-16.75,18.53.55,9.2,21.55,11.39,37.75,14,15.1,2.47,28.82,1.1,41.32-3.3v-9.47l-15.51-4.94ZM177.11,292.17l29.51-10.3-29.79-9.47v19.08l.27.69Z"/>
    <path class="cls-4" d="M255.62,264.57l.55-.14c12.9-4.53,18.39-10.85,17.02-16.75-2.2-9.88-17.98-15.24-42.28-17.02-17.43-1.23-34.59,2.61-51.33,8.37l-2.75.96,30.06,9.34,17.57-5.9c18.39-3.43,25.81,2.61,8.1,8.24l-8.79,3.02,31.84,9.89ZM143.07,220.92l-13.32,4.53,13.32,4.12v-8.65Z"/>
    <path class="cls-5" d="M206.62,281.87l49-17.3-31.84-9.89-46.94,16.06v1.65l29.79,9.47ZM143.07,251.53l-15.51,5.22,15.51,4.94v-10.16ZM176.84,259.63v-19.63l30.06,9.34-30.06,10.3ZM109.72,251.12l33.36-11.94v-9.61l-13.32-4.12-48.32,16.34c-.14,0-.41.14-.69.14l28.96,9.2Z"/>
  </g>
  <rect class="cls-6" x="460.17" y="99.6" width="99.83" height="95.06"/>
  <path class="cls-6" d="M475.37,86.52l-64.08-3.13,5.81-41.97c.79-11.98,47.34-10.28,50.69-1.45l7.59,46.55h0Z"/>
  <path class="cls-6" d="M484.97,95.91l-85.86-3.13,7.78-41.97c7.12-16.27,60.05-16.8,67.91-1.45l10.17,46.55h0Z"/>
  <rect class="cls-6" x="480.09" y="78.57" width="79.91" height="95.06"/>
  <rect class="cls-6" x="485.83" y="84.57" width="74.17" height="100.64"/>
  <path class="cls-6" d="M502.46,165.28l-130.89-42.47-17.24,119.76c-.71,3.27-1.09,6.66-1.09,10.14,0,26.25,21.28,47.52,47.52,47.52,17.68,0,33.11-9.66,41.29-23.98h0l60.4-110.98h0Z"/>
  <circle class="cls-6" cx="441.06" cy="131.57" r="70.04"/>
  <path class="cls-6" d="M487.71,112.44h-24.5c-1.43,0-2.59-1.16-2.59-2.59v-24.5c0-2.92-2.36-5.28-5.28-5.28h-28.55c-2.92,0-5.28,2.36-5.28,5.28v24.5c0,1.43-1.16,2.59-2.59,2.59h-24.5c-2.92,0-5.28,2.36-5.28,5.28v28.55c0,2.92,2.36,5.28,5.28,5.28h24.5c1.43,0,2.59,1.16,2.59,2.59v24.5c0,2.92,2.36,5.28,5.28,5.28h28.55c2.92,0,5.28-2.36,5.28-5.28v-24.5c0-1.43,1.16-2.59,2.59-2.59h24.5c2.92,0,5.28-2.36,5.28-5.28v-28.55c0-2.92-2.36-5.28-5.28-5.28Z"/>
  <path class="cls-6" d="M452.18,150.28h0c-.19-.25-.42-.47-.67-.65l-7.04-6.77c-1.94-1.86-5-1.86-6.94,0l-7.48,7.15c-.57.59-.92,1.39-.92,2.27v11.79c0,1.8,1.46,3.26,3.26,3.26h17.23c1.8,0,3.26-1.46,3.26-3.26v-11.79c0-.76-.26-1.45-.69-2h0Z"/>
  <path class="cls-6" d="M452.18,114.5h0c-.19.25-.42.47-.67.65l-7.04,6.77c-1.94,1.86-5,1.86-6.94,0l-7.48-7.15c-.57-.59-.92-1.39-.92-2.27v-11.79c0-1.8,1.46-3.26,3.26-3.26h17.23c1.8,0,3.26,1.46,3.26,3.26v11.79c0,.76-.26,1.45-.69,2h0Z"/>
  <path class="cls-6" d="M458.88,121.2h0c-.25.19-.47.42-.65.67l-6.77,7.04c-1.86,1.94-1.86,5,0,6.94l7.15,7.48c.59.57,1.39.92,2.27.92h11.79c1.8,0,3.26-1.46,3.26-3.26v-17.23c0-1.8-1.46-3.26-3.26-3.26h-11.79c-.76,0-1.45.26-2,.69h0Z"/>
  <path class="cls-6" d="M423.1,121.2h0c.25.19.47.42.65.67l6.77,7.04c1.86,1.94,1.86,5,0,6.94l-7.15,7.48c-.59.57-1.39.92-2.27.92h-11.79c-1.8,0-3.26-1.46-3.26-3.26v-17.23c0-1.8,1.46-3.26,3.26-3.26h11.79c.76,0,1.45.26,2,.69h0Z"/>
  <rect class="cls-6" x="524.14" y="152.71" width="21.23" height="13.16" rx="2.39" ry="2.39"/>
  <rect class="cls-6" x="525.67" y="154.31" width="18.19" height="9.97" rx="1.01" ry="1.01"/>
</svg>