<svg xmlns="http://www.w3.org/2000/svg" id="Layer_1" data-name="Layer 1" viewBox="0 0 560 320"><defs><style>.cls-1{fill:#372869}.cls-6{fill:#bca3ce;stroke:#553f98;stroke-miterlimit:10;stroke-width:.5px}</style></defs><path d="M.76-.02H560v320H.76z" class="cls-1"/><path d="M405.14-.12c-3.45 16.81-8.27 33.52-14.2 49.97-.77 2.14-1.56 4.27-2.37 6.4-3.15 8.31-6.6 16.53-10.28 24.65a462 462 0 0 1-18.36 36.11c-.66 1.19-1.34 2.38-2.03 3.56-.5.88-1 1.74-1.5 2.61-10.64 18.29-22.38 35.76-34.79 52.08-48.21 64.41-136.13 76.41-201.3 120.77-3.92 2.65-7.76 5.44-11.5 8.36a168 168 0 0 0-8.87 7.44c-2.85 2.53-5.66 5.19-8.43 7.96H-.37V-.12z" style="fill:#553f98"/><path d="M11.52 51.49v47.64h7.44V56.06h6.88s5 0 6.71 2.24c1.45 1.9 1.72 5.35 1.72 7.67 0 2.49-.16 6.34-.99 7.75-1.27 2.15-3.35 2.58-5.25 2.58h-4.54v4.23h6.53s5.9.25 8.43-2.33c3.11-3.16 3.9-7.41 3.9-13.09 0-5.17-1.87-10.38-5.71-12.15-3.17-1.46-8.89-1.46-8.89-1.46H11.52Zm36.67 47.64h7.44V51.49h-7.44zm47-36.52 13.61 35.66-7.81 19.13h6.17l22.49-54.79h-6.89l-9.8 26.7-9.12-26.7zm40.06 36.24v-4.5s7.86.31 9.5.31c3.63 0 5.44-.77 6.81-2.24.81-.88 1.53-4.76 1.53-6.15s-.27-4.36-.81-5.59c-.56-1.2-1.82-2.32-3.72-2.48-1.35-.12-3.45-.39-5.9-.5-3.43-.16-5.7-1.95-6.8-3.24-1.08-1.29-2.54-3.23-2.54-9.17s1.54-9.28 3.08-10.83 3.8-2.24 5.53-2.54c1.99-.34 5.25-.36 5.25-.36l10.41.3v4.5s-7.59-.3-9.22-.3c-3.63 0-4.72.78-6.08 2.24-.8.87-1.43 3.27-1.43 4.65s.16 4.18.71 5.39c.54 1.2 1.81 2.32 3.72 2.49 1.35.1 3.45.38 5.89.49 3.45.16 5.72 1.95 6.8 3.24 1.09 1.29 2.55 4.02 2.55 9.95s-1.55 10.2-3.08 11.75c-1.55 1.55-3.8 2.24-5.53 2.54-2 .34-5.26.37-5.26.37l-11.41-.31Zm40.57-42.79h-7.43v34.97s.18 3.19.36 4.31 1.82 3.79 6.08 3.79l7.7-.15v-4.49s-2.09.15-3.35.15-2.82-.08-3.08-2.24c-.28-2.15-.28-4.73-.28-4.73V67.08h8.4V62.6h-8.4v-6.55m71.77 43.08h7.43V62.61h-7.43zm0-41.01h7.43v-6.63h-7.43zm30.93 4.17c5.06 0 8.98 1.13 11.09 2.83 2.13 1.71 4.74 5.31 4.74 15.74s-2.61 14.03-4.74 15.74c-2.11 1.7-6.03 2.84-11.09 2.84s-8.98-1.14-11.1-2.84c-2.12-1.71-4.73-5.31-4.73-15.74s2.6-14.03 4.73-15.74c2.12-1.7 6.03-2.83 11.1-2.83m-5.1 7.01c-1.02 1.26-2.27 3.91-2.27 11.57s1.25 10.31 2.27 11.57c1.02 1.25 2.9 2.09 5.33 2.09s4.31-.84 5.34-2.09c1.02-1.26 2.26-3.91 2.26-11.57s-1.25-10.31-2.26-11.57c-1.03-1.25-2.9-2.09-5.34-2.09s-4.31.84-5.33 2.09m36.33-1.56 7.29-.31c1.91 0 4.15.51 5.24 1.9 1.01 1.3 1.65 2.85 1.65 5.35V99.1h7.45V74.07c0-4.73-1.46-7.49-3.65-9.22-3.12-2.47-8.7-2.24-8.7-2.24l-16.66.3V99.1h7.37V67.74Zm-76.97-11.68h-7.44v34.97s.18 3.19.35 4.31c.19 1.12 1.81 3.79 6.09 3.79l7.7-.15v-4.49s-2.09.15-3.35.15-2.81-.08-3.08-2.24c-.27-2.15-.27-4.73-.27-4.73V67.08h8.38V62.6h-8.38v-6.55ZM83.84 74.67c0-2.5-.64-4.05-1.66-5.35-1.09-1.38-3.32-1.9-5.24-1.9l-9.81.31V62.9l11.8-.3s5.59-.24 8.71 2.24c2.18 1.73 3.62 4.48 3.62 9.22v24.68l-14.25.31s-6.45.02-9.7-1.29c-3.17-1.29-4.9-4.83-4.9-9.74s1.45-7.49 3.63-9.22c3.12-2.48 8.7-2.23 8.7-2.23h4.55v4.21h-2.55c-1.91 0-3.88.35-4.97 1.73-1.02 1.29-1.56 2.41-1.56 4.91 0 3.28.64 4.74 2.18 5.86 1.36.99 3.8 1.21 6.53 1.21l4.91-.3V74.68Zm125.39 0c0-2.5-.62-4.05-1.65-5.35-1.1-1.38-3.34-1.9-5.24-1.9l-9.8.31V62.9l11.79-.3s5.58-.24 8.7 2.24c2.18 1.73 3.63 4.48 3.63 9.22v24.68l-14.25.31s-6.46.02-9.7-1.29c-3.17-1.29-4.9-4.83-4.9-9.74s1.46-7.49 3.63-9.22c3.12-2.48 8.71-2.23 8.71-2.23h4.55v4.21h-2.56c-1.9 0-3.88.35-4.96 1.73-1.02 1.29-1.57 2.41-1.57 4.91 0 3.28.64 4.74 2.18 5.86 1.36.99 3.81 1.21 6.53 1.21l4.9-.3V74.68Zm135.63 24.76c4 0 7.25-3.23 7.26-7.23v-.03c0-1.93-.76-3.78-2.12-5.14a7.22 7.22 0 0 0-5.14-2.12c-3.99 0-7.26 3.26-7.26 7.26 0 1.94.75 3.76 2.13 5.14a7.24 7.24 0 0 0 5.13 2.12m-6.04-7.26c0-1.61.64-3.13 1.77-4.27a6 6 0 0 1 4.27-1.77c1.61 0 3.13.64 4.27 1.77a6 6 0 0 1 1.77 4.27c0 3.33-2.71 6.04-6.04 6.04-1.6 0-3.14-.64-4.27-1.77a6 6 0 0 1-1.77-4.27"/><path d="M348.44 95.55c-.11-.04-.19-.17-.24-.35-.04-.2-.07-.41-.07-.61l-.03-1.04c-.02-.49-.12-.84-.3-1.07-.11-.16-.28-.28-.48-.4.24-.16.46-.35.61-.59.2-.33.31-.74.31-1.23 0-.96-.4-1.63-1.19-1.98-.42-.19-.92-.27-1.54-.27h-3.75v8.08h1.4v-3.31h2.21c.4 0 .7.04.87.12.29.14.44.43.46.87l.06 1.29c.02.32.03.51.06.63.04.13.06.22.1.31l.06.1h1.56v-.47l-.1-.05Zm-1.61-5.21c0 .45-.12.75-.34.92-.26.17-.61.27-1.06.27h-2.25v-2.28h2.39c.32 0 .59.04.78.14.33.17.49.49.49.96"/><path d="M11.52 112.85v47.64h7.44v-43.07h6.88s5 0 6.71 2.24c1.45 1.9 1.72 5.35 1.72 7.67 0 2.49-.16 6.34-.99 7.75-1.27 2.15-3.35 2.58-5.25 2.58h-4.54v4.23h6.53s5.9.25 8.43-2.33c3.11-3.16 3.9-7.41 3.9-13.09 0-5.17-1.87-10.38-5.71-12.15-3.17-1.46-8.89-1.46-8.89-1.46H11.52Zm36.67 47.63h7.44v-47.64h-7.44zm47-36.52 13.61 35.66-7.81 19.13h6.17l22.49-54.79h-6.89l-9.8 26.7-9.12-26.7zm40.06 36.24v-4.5s7.86.31 9.5.31c3.63 0 5.44-.77 6.81-2.24.81-.88 1.53-4.76 1.53-6.15s-.27-4.36-.81-5.59c-.56-1.2-1.82-2.32-3.72-2.48-1.35-.12-3.45-.39-5.9-.5-3.43-.16-5.7-1.95-6.8-3.24-1.08-1.29-2.54-3.23-2.54-9.17s1.54-9.28 3.08-10.83 3.8-2.24 5.53-2.54c1.99-.34 5.25-.36 5.25-.36l10.41.3v4.5s-7.59-.3-9.22-.3c-3.63 0-4.72.78-6.08 2.24-.8.87-1.43 3.27-1.43 4.65s.16 4.18.71 5.39c.54 1.2 1.81 2.32 3.72 2.49 1.35.1 3.45.38 5.89.49 3.45.16 5.72 1.95 6.8 3.24 1.09 1.29 2.55 4.02 2.55 9.95s-1.55 10.2-3.08 11.75c-1.55 1.55-3.8 2.24-5.53 2.54-2 .34-5.26.37-5.26.37l-11.41-.31Zm40.57-42.79h-7.43v34.97s.18 3.19.36 4.31 1.82 3.79 6.08 3.79l7.7-.15v-4.49s-2.09.15-3.35.15-2.82-.08-3.08-2.24c-.28-2.15-.28-4.73-.28-4.73v-20.59h8.4v-4.48h-8.4v-6.55m71.77 43.08h7.43v-36.52h-7.43zm0-41h7.43v-6.63h-7.43zm30.93 4.17c5.06 0 8.98 1.13 11.09 2.83 2.13 1.71 4.74 5.31 4.74 15.74s-2.61 14.03-4.74 15.74c-2.11 1.7-6.03 2.84-11.09 2.84s-8.98-1.14-11.1-2.84c-2.12-1.71-4.73-5.31-4.73-15.74s2.6-14.03 4.73-15.74c2.12-1.7 6.03-2.83 11.1-2.83m-5.1 7c-1.02 1.26-2.27 3.91-2.27 11.57s1.25 10.31 2.27 11.57c1.02 1.25 2.9 2.09 5.33 2.09s4.31-.84 5.34-2.09c1.02-1.26 2.26-3.91 2.26-11.57s-1.25-10.31-2.26-11.57c-1.03-1.25-2.9-2.09-5.34-2.09s-4.31.84-5.33 2.09m36.33-1.56 7.29-.31c1.91 0 4.15.51 5.24 1.9 1.01 1.3 1.65 2.85 1.65 5.35v24.42h7.45v-25.03c0-4.73-1.46-7.49-3.65-9.22-3.12-2.47-8.7-2.24-8.7-2.24l-16.66.3v36.19h7.37v-31.36Zm-76.97-11.68h-7.44v34.97s.18 3.19.35 4.31c.19 1.12 1.81 3.79 6.09 3.79l7.7-.15v-4.49s-2.09.15-3.35.15-2.81-.08-3.08-2.24c-.27-2.15-.27-4.73-.27-4.73v-20.59h8.38v-4.48h-8.38v-6.55ZM83.84 136.03c0-2.5-.64-4.05-1.66-5.35-1.09-1.38-3.32-1.9-5.24-1.9l-9.81.31v-4.83l11.8-.3s5.59-.24 8.71 2.24c2.18 1.73 3.62 4.48 3.62 9.22v24.68l-14.25.31s-6.45.02-9.7-1.29c-3.17-1.29-4.9-4.83-4.9-9.74s1.45-7.49 3.63-9.22c3.12-2.48 8.7-2.23 8.7-2.23h4.55v4.21h-2.55c-1.91 0-3.88.35-4.97 1.73-1.02 1.29-1.56 2.41-1.56 4.91 0 3.28.64 4.74 2.18 5.86 1.36.99 3.8 1.21 6.53 1.21l4.91-.3v-19.51Zm125.39 0c0-2.5-.62-4.05-1.65-5.35-1.1-1.38-3.34-1.9-5.24-1.9l-9.8.31v-4.83l11.79-.3s5.58-.24 8.7 2.24c2.18 1.73 3.63 4.48 3.63 9.22v24.68l-14.25.31s-6.46.02-9.7-1.29c-3.17-1.29-4.9-4.83-4.9-9.74s1.46-7.49 3.63-9.22c3.12-2.48 8.71-2.23 8.71-2.23h4.55v4.21h-2.56c-1.9 0-3.88.35-4.96 1.73-1.02 1.29-1.57 2.41-1.57 4.91 0 3.28.64 4.74 2.18 5.86 1.36.99 3.81 1.21 6.53 1.21l4.9-.3v-19.51Zm135.63 24.75c4 0 7.25-3.23 7.26-7.23v-.03c0-1.93-.76-3.78-2.12-5.14a7.22 7.22 0 0 0-5.14-2.12c-3.99 0-7.26 3.26-7.26 7.26 0 1.94.75 3.76 2.13 5.14a7.24 7.24 0 0 0 5.13 2.12m-6.04-7.25c0-1.61.64-3.13 1.77-4.27a6 6 0 0 1 4.27-1.77c1.61 0 3.13.64 4.27 1.77a6 6 0 0 1 1.77 4.27c0 3.33-2.71 6.04-6.04 6.04-1.6 0-3.14-.64-4.27-1.77a6 6 0 0 1-1.77-4.27" class="cls-1"/><path d="M348.44 156.9c-.11-.04-.19-.17-.24-.35-.04-.2-.07-.41-.07-.61l-.03-1.04c-.02-.49-.12-.84-.3-1.07-.11-.16-.28-.28-.48-.4.24-.16.46-.35.61-.59.2-.33.31-.74.31-1.23 0-.96-.4-1.63-1.19-1.98-.42-.19-.92-.27-1.54-.27h-3.75v8.08h1.4v-3.31h2.21c.4 0 .7.04.87.12.29.14.44.43.46.87l.06 1.29c.02.32.03.51.06.63.04.13.06.22.1.31l.06.1h1.56v-.47l-.1-.05Zm-1.61-5.21c0 .45-.12.75-.34.92-.26.17-.61.27-1.06.27h-2.25v-2.28h2.39c.32 0 .59.04.78.14.33.17.49.49.49.96M11.52 172.55v47.64h7.44v-43.07h6.88s5 0 6.71 2.24c1.45 1.9 1.72 5.35 1.72 7.67 0 2.49-.16 6.34-.99 7.75-1.27 2.15-3.35 2.58-5.25 2.58h-4.54v4.23h6.53s5.9.25 8.43-2.33c3.11-3.16 3.9-7.41 3.9-13.09 0-5.17-1.87-10.38-5.71-12.15-3.17-1.46-8.89-1.46-8.89-1.46H11.52Zm36.67 47.64h7.44v-47.64h-7.44zm47-36.53 13.61 35.66-7.81 19.13h6.17l22.49-54.79h-6.89l-9.8 26.7-9.12-26.7zm40.06 36.25v-4.5s7.86.31 9.5.31c3.63 0 5.44-.77 6.81-2.24.81-.88 1.53-4.76 1.53-6.15s-.27-4.36-.81-5.59c-.56-1.2-1.82-2.32-3.72-2.48-1.35-.12-3.45-.39-5.9-.5-3.43-.16-5.7-1.95-6.8-3.24-1.08-1.29-2.54-3.23-2.54-9.17s1.54-9.28 3.08-10.83 3.8-2.24 5.53-2.54c1.99-.34 5.25-.36 5.25-.36l10.41.3v4.5s-7.59-.3-9.22-.3c-3.63 0-4.72.78-6.08 2.24-.8.87-1.43 3.27-1.43 4.65s.16 4.18.71 5.39c.54 1.2 1.81 2.32 3.72 2.49 1.35.1 3.45.38 5.89.49 3.45.16 5.72 1.95 6.8 3.24 1.09 1.29 2.55 4.02 2.55 9.95s-1.55 10.2-3.08 11.75c-1.55 1.55-3.8 2.24-5.53 2.54-2 .34-5.26.37-5.26.37l-11.41-.31Zm40.57-42.79h-7.43v34.97s.18 3.19.36 4.31 1.82 3.79 6.08 3.79l7.7-.15v-4.49s-2.09.15-3.35.15-2.82-.08-3.08-2.24c-.28-2.15-.28-4.73-.28-4.73v-20.59h8.4v-4.48h-8.4v-6.55m71.77 43.08h7.43v-36.52h-7.43zm0-41.01h7.43v-6.63h-7.43zm30.93 4.17c5.06 0 8.98 1.13 11.09 2.83 2.13 1.71 4.74 5.31 4.74 15.74s-2.61 14.03-4.74 15.74c-2.11 1.7-6.03 2.84-11.09 2.84s-8.98-1.14-11.1-2.84c-2.12-1.71-4.73-5.31-4.73-15.74s2.6-14.03 4.73-15.74c2.12-1.7 6.03-2.83 11.1-2.83m-5.1 7.01c-1.02 1.26-2.27 3.91-2.27 11.57s1.25 10.31 2.27 11.57c1.02 1.25 2.9 2.09 5.33 2.09s4.31-.84 5.34-2.09c1.02-1.26 2.26-3.91 2.26-11.57s-1.25-10.31-2.26-11.57c-1.03-1.25-2.9-2.09-5.34-2.09s-4.31.84-5.33 2.09m36.33-1.57 7.29-.31c1.91 0 4.15.51 5.24 1.9 1.01 1.3 1.65 2.85 1.65 5.35v24.42h7.45v-25.03c0-4.73-1.46-7.49-3.65-9.22-3.12-2.47-8.7-2.24-8.7-2.24l-16.66.3v36.19h7.37v-31.36Zm-76.97-11.67h-7.44v34.97s.18 3.19.35 4.31c.19 1.12 1.81 3.79 6.09 3.79l7.7-.15v-4.49s-2.09.15-3.35.15-2.81-.08-3.08-2.24c-.27-2.15-.27-4.73-.27-4.73v-20.59h8.38v-4.48h-8.38v-6.55ZM83.84 195.73c0-2.5-.64-4.05-1.66-5.35-1.09-1.38-3.32-1.9-5.24-1.9l-9.81.31v-4.83l11.8-.3s5.59-.24 8.71 2.24c2.18 1.73 3.62 4.48 3.62 9.22v24.68l-14.25.31s-6.45.02-9.7-1.29c-3.17-1.29-4.9-4.83-4.9-9.74s1.45-7.49 3.63-9.22c3.12-2.48 8.7-2.23 8.7-2.23h4.55v4.21h-2.55c-1.91 0-3.88.35-4.97 1.73-1.02 1.29-1.56 2.41-1.56 4.91 0 3.28.64 4.74 2.18 5.86 1.36.99 3.8 1.21 6.53 1.21l4.91-.3v-19.51Zm125.39 0c0-2.5-.62-4.05-1.65-5.35-1.1-1.38-3.34-1.9-5.24-1.9l-9.8.31v-4.83l11.79-.3s5.58-.24 8.7 2.24c2.18 1.73 3.63 4.48 3.63 9.22v24.68l-14.25.31s-6.46.02-9.7-1.29c-3.17-1.29-4.9-4.83-4.9-9.74s1.46-7.49 3.63-9.22c3.12-2.48 8.71-2.23 8.71-2.23h4.55v4.21h-2.56c-1.9 0-3.88.35-4.96 1.73-1.02 1.29-1.57 2.41-1.57 4.91 0 3.28.64 4.74 2.18 5.86 1.36.99 3.81 1.21 6.53 1.21l4.9-.3v-19.51Zm135.63 24.76c4 0 7.25-3.23 7.26-7.23v-.03c0-1.93-.76-3.78-2.12-5.14a7.22 7.22 0 0 0-5.14-2.12c-3.99 0-7.26 3.26-7.26 7.26 0 1.94.75 3.76 2.13 5.14a7.24 7.24 0 0 0 5.13 2.12m-6.04-7.26c0-1.61.64-3.13 1.77-4.27a6 6 0 0 1 4.27-1.77c1.61 0 3.13.64 4.27 1.77a6 6 0 0 1 1.77 4.27c0 3.33-2.71 6.04-6.04 6.04-1.6 0-3.14-.64-4.27-1.77a6 6 0 0 1-1.77-4.27" class="cls-1"/><path d="M348.44 216.6c-.11-.04-.19-.17-.24-.35-.04-.2-.07-.41-.07-.61l-.03-1.04c-.02-.49-.12-.84-.3-1.07-.11-.16-.28-.28-.48-.4.24-.16.46-.35.61-.59.2-.33.31-.74.31-1.23 0-.96-.4-1.63-1.19-1.98-.42-.19-.92-.27-1.54-.27h-3.75v8.08h1.4v-3.31h2.21c.4 0 .7.04.87.12.29.14.44.43.46.87l.06 1.29c.02.32.03.51.06.63.04.13.06.22.1.31l.06.1h1.56v-.47l-.1-.05Zm-1.61-5.2c0 .45-.12.75-.34.92-.26.17-.61.27-1.06.27h-2.25v-2.28h2.39c.32 0 .59.04.78.14.33.17.49.49.49.96m-335.32 21.5v47.64h7.44v-43.07h6.88s5 0 6.71 2.24c1.45 1.9 1.72 5.35 1.72 7.67 0 2.49-.16 6.34-.99 7.75-1.27 2.15-3.35 2.58-5.25 2.58h-4.54v4.23h6.53s5.9.25 8.43-2.33c3.11-3.16 3.9-7.41 3.9-13.09 0-5.17-1.87-10.38-5.71-12.15-3.17-1.46-8.89-1.46-8.89-1.46H11.52Zm36.67 47.64h7.44v-47.64h-7.44zm47-36.53 13.61 35.66-7.81 19.13h6.17l22.49-54.79h-6.89l-9.8 26.7-9.12-26.7zm40.06 36.24v-4.5s7.86.31 9.5.31c3.63 0 5.44-.77 6.81-2.24.81-.88 1.53-4.76 1.53-6.15s-.27-4.36-.81-5.59c-.56-1.2-1.82-2.32-3.72-2.48-1.35-.12-3.45-.39-5.9-.5-3.43-.16-5.7-1.95-6.8-3.24-1.08-1.29-2.54-3.23-2.54-9.17s1.54-9.28 3.08-10.83 3.8-2.24 5.53-2.54c1.99-.34 5.25-.36 5.25-.36l10.41.3v4.5s-7.59-.3-9.22-.3c-3.63 0-4.72.78-6.08 2.24-.8.87-1.43 3.27-1.43 4.65s.16 4.18.71 5.39c.54 1.2 1.81 2.32 3.72 2.49 1.35.1 3.45.38 5.89.49 3.45.16 5.72 1.95 6.8 3.24 1.09 1.29 2.55 4.02 2.55 9.95s-1.55 10.2-3.08 11.75c-1.55 1.55-3.8 2.24-5.53 2.54-2 .34-5.26.37-5.26.37l-11.41-.31Zm40.57-42.79h-7.43v34.97s.18 3.19.36 4.31 1.82 3.79 6.08 3.79l7.7-.15v-4.49s-2.09.15-3.35.15-2.82-.08-3.08-2.24c-.28-2.15-.28-4.73-.28-4.73v-20.59h8.4v-4.48h-8.4v-6.55m71.77 43.09h7.43v-36.52h-7.43zm0-41.01h7.43v-6.63h-7.43zm30.93 4.17c5.06 0 8.98 1.13 11.09 2.83 2.13 1.71 4.74 5.31 4.74 15.74s-2.61 14.03-4.74 15.74c-2.11 1.7-6.03 2.84-11.09 2.84s-8.98-1.14-11.1-2.84c-2.12-1.71-4.73-5.31-4.73-15.74s2.6-14.03 4.73-15.74c2.12-1.7 6.03-2.83 11.1-2.83m-5.1 7c-1.02 1.26-2.27 3.91-2.27 11.57s1.25 10.31 2.27 11.57c1.02 1.25 2.9 2.09 5.33 2.09s4.31-.84 5.34-2.09c1.02-1.26 2.26-3.91 2.26-11.57s-1.25-10.31-2.26-11.57c-1.03-1.25-2.9-2.09-5.34-2.09s-4.31.84-5.33 2.09m36.33-1.56 7.29-.31c1.91 0 4.15.51 5.24 1.9 1.01 1.3 1.65 2.85 1.65 5.35v24.42h7.45v-25.03c0-4.73-1.46-7.49-3.65-9.22-3.12-2.47-8.7-2.24-8.7-2.24l-16.66.3v36.19h7.37v-31.36Zm-76.97-11.68h-7.44v34.97s.18 3.19.35 4.31c.19 1.12 1.81 3.79 6.09 3.79l7.7-.15v-4.49s-2.09.15-3.35.15-2.81-.08-3.08-2.24c-.27-2.15-.27-4.73-.27-4.73v-20.59h8.38v-4.48h-8.38v-6.55ZM83.84 256.09c0-2.5-.64-4.05-1.66-5.35-1.09-1.38-3.32-1.9-5.24-1.9l-9.81.31v-4.83l11.8-.3s5.59-.24 8.71 2.24c2.18 1.73 3.62 4.48 3.62 9.22v24.68l-14.25.31s-6.45.02-9.7-1.29c-3.17-1.29-4.9-4.83-4.9-9.74s1.45-7.49 3.63-9.22c3.12-2.48 8.7-2.23 8.7-2.23h4.55v4.21h-2.55c-1.91 0-3.88.35-4.97 1.73-1.02 1.29-1.56 2.41-1.56 4.91 0 3.28.64 4.74 2.18 5.86 1.36.99 3.8 1.21 6.53 1.21l4.91-.3V256.1Zm125.39 0c0-2.5-.62-4.05-1.65-5.35-1.1-1.38-3.34-1.9-5.24-1.9l-9.8.31v-4.83l11.79-.3s5.58-.24 8.7 2.24c2.18 1.73 3.63 4.48 3.63 9.22v24.68l-14.25.31s-6.46.02-9.7-1.29c-3.17-1.29-4.9-4.83-4.9-9.74s1.46-7.49 3.63-9.22c3.12-2.48 8.71-2.23 8.71-2.23h4.55v4.21h-2.56c-1.9 0-3.88.35-4.96 1.73-1.02 1.29-1.57 2.41-1.57 4.91 0 3.28.64 4.74 2.18 5.86 1.36.99 3.81 1.21 6.53 1.21l4.9-.3V256.1Zm135.63 24.76c4 0 7.25-3.23 7.26-7.23v-.03c0-1.93-.76-3.78-2.12-5.14a7.22 7.22 0 0 0-5.14-2.12c-3.99 0-7.26 3.26-7.26 7.26 0 1.94.75 3.76 2.13 5.14a7.24 7.24 0 0 0 5.13 2.12m-6.04-7.26c0-1.61.64-3.13 1.77-4.27a6 6 0 0 1 4.27-1.77c1.61 0 3.13.64 4.27 1.77a6 6 0 0 1 1.77 4.27c0 3.33-2.71 6.04-6.04 6.04-1.6 0-3.14-.64-4.27-1.77a6 6 0 0 1-1.77-4.27" class="cls-1"/><path d="M348.44 276.96c-.11-.04-.19-.17-.24-.35-.04-.2-.07-.41-.07-.61l-.03-1.04c-.02-.49-.12-.84-.3-1.07-.11-.16-.28-.28-.48-.4.24-.16.46-.35.61-.59.2-.33.31-.74.31-1.23 0-.96-.4-1.63-1.19-1.98-.42-.19-.92-.27-1.54-.27h-3.75v8.08h1.4v-3.31h2.21c.4 0 .7.04.87.12.29.14.44.43.46.87l.06 1.29c.02.32.03.51.06.63.04.13.06.22.1.31l.06.1h1.56v-.47l-.1-.05Zm-1.61-5.2c0 .45-.12.75-.34.92-.26.17-.61.27-1.06.27h-2.25v-2.28h2.39c.32 0 .59.04.78.14.33.17.49.49.49.96M36.64 294c-3.17-1.46-8.89-1.46-8.89-1.46H11.52v27.44h7.43v-22.87h6.89s5 0 6.71 2.23c1.46 1.9 1.72 5.35 1.72 7.68 0 2.49-.16 6.34-.99 7.75-1.27 2.15-3.35 2.58-5.26 2.58h-4.54v2.63h14.05c.34-.21.65-.45.92-.73 3.1-3.16 3.89-7.41 3.89-13.1 0-5.17-1.87-10.38-5.7-12.15m11.55-1.46v27.44h7.44v-27.44zm55.65 11.11h-8.65l6.23 16.33h8zm18.92 0-5.99 16.33h6.18l6.7-16.33zm35.23 11.95c-1.08-1.29-3.35-3.08-6.8-3.24-2.44-.11-4.54-.39-5.89-.49-1.91-.17-3.18-1.3-3.72-2.49-.55-1.21-.71-4.01-.71-5.39s.63-3.78 1.43-4.65c1.36-1.46 2.45-2.23 6.08-2.23 1.63 0 9.22.3 9.22.3v-4.5l-10.41-.31s-3.25.02-5.25.37c-1.73.3-3.99.98-5.53 2.54-1.54 1.55-3.08 4.88-3.08 10.83s1.45 7.88 2.53 9.17c1.1 1.29 3.37 3.08 6.8 3.24 2.45.11 4.54.39 5.9.5a4.9 4.9 0 0 1 2.19.73h9.23c-.52-2.27-1.32-3.59-1.99-4.38m17.83-11.95v-6.55h-7.43v22.88h7.43v-11.85h8.4v-4.48zm71.77 0v16.33h7.43v-16.33zm0-11.11v6.63h7.43v-6.63zm42.02 13.64c-2.11-1.71-6.03-2.84-11.09-2.84s-8.98 1.13-11.11 2.84c-1.98 1.59-4.39 4.85-4.69 13.8h8.46c.19-6.19 1.31-8.48 2.24-9.64 1.03-1.25 2.91-2.08 5.33-2.08s4.31.83 5.34 2.09c.92 1.14 2.04 3.44 2.23 9.63h8c-.31-8.95-2.72-12.21-4.71-13.8m38.13-.29c-3.12-2.47-8.71-2.24-8.71-2.24l-16.65.3v16.03h7.37v-11.2l7.29-.31c1.91 0 4.16.52 5.24 1.9 1.02 1.3 1.66 2.85 1.66 5.35v4.26h7.44v-4.88c0-4.73-1.46-7.48-3.64-9.21m-94.96-2.24v-6.55h-7.44v22.88h7.44v-11.85h8.38v-4.48zM74.76 317.62s-5.58-.25-8.7 2.23c-.05.04-.1.08-.15.13h13.4v-2.36zm12.89-11.73c-3.12-2.48-8.71-2.24-8.71-2.24l-11.8.3v4.83l9.81-.31c1.91 0 4.15.52 5.23 1.9 1.03 1.3 1.66 2.85 1.66 5.35v4.26h7.44v-4.88c0-4.73-1.45-7.48-3.63-9.21m112.5 11.73s-5.59-.25-8.71 2.23c-.05.04-.1.08-.15.13h13.41v-2.36zm12.89-11.73c-3.12-2.48-8.7-2.24-8.7-2.24l-11.8.3v4.83l9.81-.31c1.89 0 4.13.52 5.23 1.9 1.03 1.3 1.65 2.85 1.65 5.35v4.26h7.44v-4.88c0-4.73-1.46-7.48-3.63-9.21M41.96-.02h-8.18c.4 1.63.49 3.43.49 4.83 0 2.49-.16 6.34-.99 7.75-1.27 2.15-3.35 2.59-5.26 2.59h-4.54v4.22h6.53s5.9.25 8.44-2.33c3.1-3.16 3.89-7.41 3.89-13.09 0-1.34-.13-2.69-.38-3.97m-30.44 0v37.99h7.43V-.02zm36.67 0v38h7.44v-38zm74.57 1.47-9.8 26.7-9.12-26.7h-8.65l13.6 35.66-7.81 19.13h6.18l22.49-54.79zm35.23 11.95c-1.08-1.3-3.35-3.08-6.8-3.25-2.44-.11-4.54-.38-5.89-.49-1.91-.17-3.18-1.29-3.72-2.49-.55-1.21-.71-4-.71-5.38 0-.51.09-1.15.23-1.81h-7.47c-.19 1.21-.3 2.59-.3 4.15 0 5.94 1.45 7.89 2.53 9.17 1.1 1.29 3.37 3.08 6.8 3.25 2.45.11 4.54.38 5.9.5 1.9.16 3.17 1.28 3.72 2.48.54 1.22.81 4.2.81 5.58s-.73 5.27-1.53 6.15c-1.37 1.47-3.18 2.24-6.81 2.24-1.64 0-9.5-.31-9.5-.31v4.5l11.41.31s3.26-.03 5.26-.37c1.73-.3 3.98-.99 5.53-2.54 1.53-1.55 3.08-5.79 3.08-11.74s-1.45-8.66-2.54-9.95m26.23-7.47V1.45h-8.4V-.02h-7.43v29.89s.18 3.2.36 4.32c.19 1.12 1.82 3.79 6.08 3.79l7.7-.15v-4.49s-2.08.15-3.34.15-2.83-.08-3.09-2.24c-.28-2.15-.28-4.73-.28-4.73V5.93zm63.37-4.48v36.53h7.43V1.45zm42.02 2.52c-2.11-1.7-6.03-2.83-11.09-2.83s-8.98 1.13-11.11 2.83c-2.12 1.71-4.72 5.31-4.72 15.74s2.6 14.03 4.72 15.75c2.13 1.7 6.03 2.84 11.11 2.84s8.98-1.14 11.09-2.84c2.13-1.72 4.74-5.32 4.74-15.75s-2.61-14.03-4.74-15.74m-5.52 27.31c-1.04 1.25-2.91 2.09-5.34 2.09s-4.31-.84-5.33-2.09-2.27-3.9-2.27-11.57 1.25-10.31 2.27-11.57c1.02-1.25 2.9-2.09 5.33-2.09s4.31.84 5.34 2.09c1.01 1.26 2.26 3.91 2.26 11.57s-1.25 10.32-2.26 11.57m43.65-27.6c-3.12-2.47-8.71-2.23-8.71-2.23l-16.65.3v36.18h7.37V6.58l7.29-.31c1.91 0 4.16.52 5.24 1.9 1.02 1.3 1.66 2.85 1.66 5.35v24.41h7.44V12.9c0-4.73-1.46-7.49-3.64-9.22m-86.58 2.25V1.45h-8.38V-.02h-7.44v29.89s.18 3.2.36 4.32c.19 1.12 1.81 3.79 6.08 3.79l7.71-.15v-4.49s-2.09.15-3.36.15-2.81-.08-3.08-2.24c-.27-2.15-.27-4.73-.27-4.73V5.93zM87.65 3.68c-3.12-2.47-8.71-2.23-8.71-2.23l-11.8.3v4.83l9.81-.31c1.91 0 4.15.52 5.23 1.9 1.03 1.3 1.66 2.85 1.66 5.35v19.5l-4.91.3c-2.72 0-5.16-.21-6.53-1.21-1.54-1.11-2.18-2.57-2.18-5.85 0-2.5.55-3.62 1.57-4.91 1.09-1.38 3.06-1.73 4.97-1.73h2.55v-4.21h-4.55s-5.58-.24-8.7 2.23c-2.18 1.73-3.63 4.49-3.63 9.22s1.73 8.45 4.89 9.74c3.26 1.32 9.71 1.29 9.71 1.29l14.25-.31V12.9c0-4.73-1.45-7.49-3.63-9.22m125.39 0c-3.12-2.47-8.7-2.23-8.7-2.23l-11.8.3v4.83l9.81-.31c1.89 0 4.13.52 5.23 1.9 1.03 1.3 1.65 2.85 1.65 5.35v19.5l-4.9.3c-2.72 0-5.18-.21-6.54-1.21-1.54-1.11-2.18-2.57-2.18-5.85 0-2.5.55-3.62 1.58-4.91 1.08-1.38 3.06-1.73 4.96-1.73h2.55v-4.21h-4.55s-5.59-.24-8.71 2.23c-2.16 1.73-3.63 4.49-3.63 9.22s1.74 8.45 4.91 9.74c3.24 1.32 9.7 1.29 9.7 1.29l14.25-.31V12.9c0-4.73-1.46-7.49-3.63-9.22M350 25.88a7.22 7.22 0 0 0-5.14-2.12c-3.99 0-7.26 3.25-7.26 7.26 0 1.93.75 3.76 2.13 5.13a7.22 7.22 0 0 0 5.13 2.12c4 .01 7.25-3.22 7.26-7.22v-.03c.01-1.93-.76-3.78-2.12-5.14m-5.14 11.18c-1.6 0-3.14-.64-4.27-1.77s-1.77-2.67-1.77-4.27.64-3.13 1.77-4.27 2.67-1.78 4.27-1.78 3.13.64 4.27 1.78a5.95 5.95 0 0 1 1.77 4.27c0 3.33-2.7 6.04-6.04 6.04" class="cls-1"/><path d="M348.44 34.39c-.1-.04-.19-.17-.23-.36-.05-.2-.07-.4-.07-.61l-.04-1.04c-.01-.49-.12-.84-.29-1.07-.11-.16-.28-.28-.48-.4.24-.16.46-.35.61-.59.2-.33.31-.74.31-1.24 0-.95-.4-1.63-1.19-1.98-.41-.19-.92-.27-1.53-.27h-3.75v8.08h1.39V31.6h2.21c.4 0 .7.04.87.12.28.14.44.42.46.86l.06 1.29c.01.32.03.52.06.63.03.13.05.23.1.31l.06.1h1.56v-.47zm-1.95-4.29c-.26.17-.62.27-1.07.27h-2.25v-2.29h2.39c.32 0 .58.05.78.14.33.17.49.49.49.96s-.12.76-.34.92" class="cls-1"/><path d="m175.33 145-.12 105.56-28.28-9.2V117.29l36.1 9.54c23.11 6.21 37.25 18.28 37.02 39.44-.23 24.61-11.61 34.5-33.8 28.06V145.8c0-5.86-10.92-6.21-10.92-.8" style="fill-rule:evenodd;fill:#de0029"/><path d="m133.94 220.89-13.34 4.49c-8.62 2.99-15.98-4.02-8.05-6.9l6.44-2.3-24.26-7.71c-7.47 2.53-14.49 7.94-14.03 15.52.46 7.7 18.05 9.54 31.62 11.73 12.65 2.07 24.14.92 34.61-2.76v-7.93zm41.5 29.67 24.72-8.63-24.95-7.93v15.98z" style="fill:#f3c202;fill-rule:evenodd"/><path d="m241.21 227.45.46-.12c10.81-3.79 15.41-9.08 14.26-14.03-1.84-8.28-15.06-12.76-35.41-14.26-14.6-1.03-28.97 2.18-43 7.01l-2.3.81 25.18 7.82 14.72-4.95c15.41-2.87 21.62 2.19 6.78 6.9l-7.36 2.53 26.67 8.28Zm-94.28-36.57-11.15 3.79 11.15 3.45z" style="fill-rule:evenodd;fill:#326db3"/><path d="m200.16 241.93 41.04-14.49-26.67-8.28-39.32 13.45v1.38l24.95 7.93Zm-53.23-25.41-12.99 4.37 12.99 4.14zm28.28 6.79v-16.44l25.18 7.82zm-56.22-7.13 27.94-10v-8.05l-11.15-3.45-40.47 13.68c-.12 0-.34.11-.57.11l24.26 7.71Z" style="fill-rule:evenodd;fill:#00aa9e"/><path d="M460.17 99.6H560v95.06h-99.83zm15.2-13.08-64.08-3.13 5.81-41.97c.79-11.98 47.34-10.28 50.69-1.45l7.59 46.55Z" class="cls-6"/><path d="m484.97 95.91-85.86-3.13 7.78-41.97c7.12-16.27 60.05-16.8 67.91-1.45z" class="cls-6"/><path d="M480.09 78.57H560v95.06h-79.91z" class="cls-6"/><path d="M485.83 84.57H560v100.64h-74.17z" class="cls-6"/><path d="m502.46 165.28-130.89-42.47-17.24 119.76a47.7 47.7 0 0 0-1.09 10.14c0 26.25 21.28 47.52 47.52 47.52 17.68 0 33.11-9.66 41.29-23.98l60.4-110.98Z" class="cls-6"/><circle cx="441.06" cy="131.57" r="70.04" class="cls-6"/><path d="M487.71 112.44h-24.5a2.59 2.59 0 0 1-2.59-2.59v-24.5c0-2.92-2.36-5.28-5.28-5.28h-28.55c-2.92 0-5.28 2.36-5.28 5.28v24.5a2.59 2.59 0 0 1-2.59 2.59h-24.5c-2.92 0-5.28 2.36-5.28 5.28v28.55c0 2.92 2.36 5.28 5.28 5.28h24.5a2.59 2.59 0 0 1 2.59 2.59v24.5c0 2.92 2.36 5.28 5.28 5.28h28.55c2.92 0 5.28-2.36 5.28-5.28v-24.5a2.59 2.59 0 0 1 2.59-2.59h24.5c2.92 0 5.28-2.36 5.28-5.28v-28.55c0-2.92-2.36-5.28-5.28-5.28Z" class="cls-6"/><path d="M452.18 150.28c-.19-.25-.42-.47-.67-.65l-7.04-6.77c-1.94-1.86-5-1.86-6.94 0l-7.48 7.15c-.57.59-.92 1.39-.92 2.27v11.79c0 1.8 1.46 3.26 3.26 3.26h17.23c1.8 0 3.26-1.46 3.26-3.26v-11.79c0-.76-.26-1.45-.69-2Zm0-35.78c-.19.25-.42.47-.67.65l-7.04 6.77c-1.94 1.86-5 1.86-6.94 0l-7.48-7.15c-.57-.59-.92-1.39-.92-2.27v-11.79c0-1.8 1.46-3.26 3.26-3.26h17.23c1.8 0 3.26 1.46 3.26 3.26v11.79c0 .76-.26 1.45-.69 2Zm6.7 6.7c-.25.19-.47.42-.65.67l-6.77 7.04c-1.86 1.94-1.86 5 0 6.94l7.15 7.48c.59.57 1.39.92 2.27.92h11.79c1.8 0 3.26-1.46 3.26-3.26v-17.23c0-1.8-1.46-3.26-3.26-3.26h-11.79c-.76 0-1.45.26-2 .69Zm-35.78 0c.25.19.47.42.65.67l6.77 7.04c1.86 1.94 1.86 5 0 6.94l-7.15 7.48c-.59.57-1.39.92-2.27.92h-11.79a3.26 3.26 0 0 1-3.26-3.26v-17.23c0-1.8 1.46-3.26 3.26-3.26h11.79c.76 0 1.45.26 2 .69Z" class="cls-6"/><rect width="21.23" height="13.16" x="524.14" y="152.71" class="cls-6" rx="2.39" ry="2.39"/><rect width="18.19" height="9.97" x="525.67" y="154.31" class="cls-6" rx="1.01" ry="1.01"/></svg>