<?xml version="1.0" encoding="UTF-8"?>
<svg id="Layer_1" data-name="Layer 1" xmlns="http://www.w3.org/2000/svg" viewBox="0 0 560 320">
  <defs>
    <style>
      .cls-1 {
        fill: #372869;
      }

      .cls-2 {
        fill: #7bc049;
      }

      .cls-3 {
        fill: #fff;
      }

      .cls-4 {
        fill: #bca3ce;
        stroke: #553f98;
        stroke-linejoin: round;
        stroke-width: .5px;
      }

      .cls-5 {
        fill: #eee816;
      }

      .cls-6 {
        fill: #43b9e9;
      }

      .cls-7 {
        fill: #fc0c18;
      }

      .cls-8 {
        fill: #ec1d23;
      }

      .cls-9 {
        fill: #553f98;
      }
    </style>
  </defs>
  <rect class="cls-1" x=".76" y="-.02" width="559.24" height="320"/>
  <path class="cls-9" d="M405.14-.12c-3.45,16.81-8.27,33.52-14.2,49.97-.77,2.14-1.56,4.27-2.37,6.4-3.15,8.31-6.6,16.53-10.28,24.65-5.58,12.3-11.73,24.36-18.36,36.11-.66,1.19-1.34,2.38-2.03,3.56-.5.88-1,1.74-1.5,2.61h0c-10.64,18.29-22.38,35.76-34.79,52.08-48.21,64.41-136.13,76.41-201.3,120.77-3.92,2.65-7.76,5.44-11.5,8.36-1.03.8-2.04,1.61-3.05,2.44-1.96,1.61-3.9,3.27-5.82,5-2.85,2.53-5.66,5.19-8.43,7.96H-.37V-.12h405.51Z"/>
  <path class="cls-7" d="M24.74,48.61c-2.96,0-5.82,2.43-6.35,5.4v.32l-.11-.11v.42l-.11.11v.42l-.11.11v.21l-.11.32-.11.32v.42l-.11.32-.11.42-.11.42-.11.53-.11.42-.21.95-.11.53-.11.42v.32l-.11.42-.11.42-.11.42-.11.42-.11.32-.11.42v.11l-.11.11v.32l-.11.21v.21l-.11.11v.21c-.11,1.27.11,3.07.53,3.39.53,2.86,10.16,16.19,9.84,18.2.11,1.9-1.06,7.94-1.06,7.94-.32,2.01-1.69,3.6-3.7,3.6s-3.39-1.59-3.07-3.6l1.8-9.95h-7.2l-2.33,13.76c-.53,2.86,1.38,5.08,4.23,5.08h10.26c2.86,0,5.5-2.22,6.03-5.08,0,0,2.65-12.91,2.65-13.86s-.32-1.06-.32-1.06c0-1.06-8.57-15.13-9.42-15.66-.42-.21-.63-1.59-.74-2.43,0-.85,1.16-6.45,1.16-6.45.32-2.01,2.22-3.6,4.23-3.6s2.86,1.59,2.54,3.6l-1.59,8.89h7.2l2.54-13.44c.63-2.86-1.27-5.29-4.23-5.29h-10.58Z"/>
  <path class="cls-7" d="M44.42,48.61l-8.57,49.31c-.53,2.86,1.38,5.08,4.23,5.08h10.26c2.86,0,5.61-2.22,6.14-5.08l9.1-49.31h-6.45l-8.68,47.93c-.11.74-.85,1.27-1.48,1.27h-5.08c-.74,0-1.16-.63-1.06-1.27l8.46-47.93h-6.88Z"/>
  <path class="cls-7" d="M84.53,48.51h-15.56v.1l-10.37,54.39h6.99l4.76-24.66h8.67c2.86,0,5.51-2.22,6.03-5.07l3.71-19.37c.53-2.96-1.38-5.39-4.23-5.39ZM78.18,70.94c-.11.74-1.06,2.33-1.8,2.33h-4.23l-.11-.11h-.42v-.11h.21l-.11-.1h-.1l-.21-.21v-.11l-.11-.1-.11-.11v-.21l-.1-.11v-.21l-.11-.11v-.42l3.18-16.4c.74.32,1.05.11,1.48.11h3.28c.74,0,2.22,1.69,2.11,2.43l-2.85,13.44Z"/>
  <polygon class="cls-7" points="93.52 48.61 82.73 103 98.18 103 99.23 96.23 91.61 96.23 94.68 77.82 102.3 77.82 103.36 72.1 95.74 72.1 99.13 55.28 106.85 55.28 107.91 48.61 93.52 48.61"/>
  <path class="cls-7" d="M127.48,48.51h-15.55v.1l-10.26,54.39h6.87l4.66-24.66h4.87c.63.64.74,1.7.84,2.23.11.84.22,1.8.22,2.64-.11.85-3.71,19.79-3.71,19.79h6.88s3.81-20.63,3.81-20.95,0-1.38-.42-2.01c-.22-.43-.64-1.27-1.17-1.59-.95-.63-2.01-1.06-2.01-1.06h-.53c2.01-.74,5.61-2.01,6.03-4.12l3.71-19.37c.53-2.96-1.38-5.39-4.24-5.39ZM120.92,70.83c-.1.74-1.9,2.33-2.54,2.33h-2.96c-.63,0-1.06-.42-1.06-.95v-.32l3.18-16.4.32-.32h.1l.11-.1.1-.11h.11l.1-.11h.11l.11-.1h.1l-.42.32h3.39c.74,0,2.32,1.69,2.11,2.43l-2.86,13.33Z"/>
  <polygon class="cls-7" points="148.54 48.61 138.17 103 146 103 152.35 71.47 154.89 103 161.77 103 172.14 48.61 164.31 48.61 158.91 77.07 155.42 48.61 148.54 48.61"/>
  <polygon class="cls-7" points="175.73 48.61 165.36 103 172.24 103 182.61 48.61 175.73 48.61 175.73 48.61"/>
  <polygon class="cls-7" points="186.21 48.61 175.84 103 183.78 103 190.12 71.47 192.66 103 199.54 103 209.8 48.61 201.87 48.61 196.58 77.07 193.09 48.61 186.21 48.61 186.21 48.61"/>
  <polygon class="cls-7" points="212.77 48.61 211.5 55.38 215.73 55.38 207.27 103 215.1 103 223.67 55.38 227.79 55.38 228.85 48.61 212.77 48.61 212.77 48.61"/>
  <polygon class="cls-7" points="231.6 48.61 220.91 103 236.36 103 237.42 96.23 229.8 96.23 232.98 77.82 240.6 77.82 241.65 72.1 234.04 72.1 237.32 55.28 244.93 55.28 245.99 48.51 231.6 48.51 231.6 48.61"/>
  <polygon class="cls-7" points="248.95 48.61 238.58 103 246.52 103 252.87 71.47 255.41 103 262.29 103 272.66 48.61 264.72 48.61 259.43 77.07 255.83 48.61 248.95 48.61 248.95 48.61"/>
  <path class="cls-7" d="M291.7,48.61h-15.45l-10.37,54.39h15.66c2.86,0,5.61-2.22,6.14-5.08l8.25-43.91c.53-2.96-1.37-5.4-4.23-5.4ZM288.32,58.45l-6.78,35.66c-.31,2.01-2.32,3.7-4.33,3.7h-3.18l8.04-42.96h3.18c2.01,0,3.38,1.59,3.07,3.6Z"/>
  <path class="cls-7" d="M317.31,48.61h-11.75c-2.96,0-5.71,2.44-6.24,5.4l-7.62,43.91c-.53,2.86,1.38,5.08,4.13,5.08h11.32c2.86,0,5.61-2.22,6.14-5.08l8.25-43.91c.53-2.96-1.38-5.4-4.23-5.4ZM312.76,58.45l-6.35,35.66c-.32,2.01-2.22,3.7-4.23,3.7s-2.86-1.69-2.54-3.7l6.35-35.55.1-.21.11-.22.1-.21.11-.21.1-.21.11-.21.11-.21.1-.22.11-.21.1-.21.22-.42.1-.11.11-.21.1-.21.21-.11.22-.21.21-.1.21-.11.11-.11.21-.1.21-.11.21-.1.11-.11.21-.1-.53.63h.21l.21-.11h.43c2.01,0,3.38,1.59,2.96,3.6Z"/>
  <path class="cls-1" d="M33.95,25.12c0,.95-2.65,13.86-2.65,13.86-.53,2.86-3.17,5.08-6.03,5.08h-10.26c-2.86,0-4.76-2.22-4.23-5.08l2.32-13.75h7.2l-1.8,9.94c-.32,2.01,1.06,3.6,3.07,3.6s3.38-1.59,3.7-3.6c0,0,1.17-6.03,1.06-7.93.32-2.01-9.31-15.34-9.84-18.2-.42-.32-.63-2.12-.53-3.39v-.21l.11-.11v-.21l.1-.21v-.32l.11-.1v-.11l.1-.42.11-.32.11-.42.1-.42.11-.43.1-.42v-.32l.11-.42.1-.53.16-.7h7.26c-.27,1.35-1.07,5.29-1.07,5.99.11.85.32,2.22.74,2.43.85.53,9.42,14.61,9.42,15.66,0,0,.32.11.32,1.06Z"/>
  <polygon class="cls-1" points="38.61 -.02 37.02 8.4 29.82 8.4 31.33 -.02 38.61 -.02"/>
  <path class="cls-1" d="M63.69-.02l-7.2,39c-.53,2.86-3.28,5.08-6.14,5.08h-10.26c-2.86,0-4.77-2.22-4.24-5.08L42.63-.02h6.85l-6.64,37.63c-.11.63.31,1.27,1.05,1.27h5.08c.64,0,1.38-.53,1.48-1.27L57.26-.02h6.43Z"/>
  <path class="cls-1" d="M80.73-.02l-2.55,12.02c-.11.74-1.06,2.33-1.8,2.33h-4.23l-.11-.11h-.42v-.1h.21l-.11-.11h-.1l-.21-.21v-.11l-.11-.1-.11-.11v-.21l-.1-.1v-.22l-.11-.1v-.43L73.39-.02h-6.39l-8.4,44.08h6.99l4.76-24.65h8.67c2.86,0,5.51-2.22,6.03-5.08L87.8-.02h-7.07Z"/>
  <polygon class="cls-1" points="94.68 18.88 91.61 37.29 99.23 37.29 98.18 44.06 82.73 44.06 91.47 -.02 98.4 -.02 95.74 13.16 103.36 13.16 102.3 18.88 94.68 18.88"/>
  <path class="cls-1" d="M123.48-.02l-2.56,11.92c-.1.74-1.9,2.32-2.54,2.32h-2.96c-.63,0-1.06-.42-1.06-.95v-.32L116.87-.02h-6.88l-8.32,44.08h6.87l4.66-24.65h4.87c.63.63.74,1.69.84,2.22.11.85.22,1.8.22,2.64-.11.85-3.71,19.79-3.71,19.79h6.88s3.81-20.63,3.81-20.95,0-1.37-.42-2.01c-.22-.42-.64-1.27-1.17-1.59-.95-.63-2.01-1.05-2.01-1.05h-.53c2.01-.75,5.61-2.02,6.03-4.13L130.76-.02h-7.28Z"/>
  <polygon class="cls-1" points="170.17 -.02 161.77 44.06 154.89 44.06 152.35 12.53 146 44.06 138.17 44.06 146.57 -.02 156.68 -.02 158.91 18.14 162.35 -.02 170.17 -.02"/>
  <polygon class="cls-1" points="180.64 -.02 172.24 44.06 165.36 44.06 173.76 -.02 180.64 -.02"/>
  <polygon class="cls-1" points="207.86 -.02 199.54 44.06 192.66 44.06 190.12 12.53 183.78 44.06 175.84 44.06 184.24 -.02 194.35 -.02 196.58 18.14 199.95 -.02 207.86 -.02"/>
  <polygon class="cls-1" points="223.03 -.02 215.1 44.06 207.27 44.06 215.1 -.02 223.03 -.02"/>
  <polygon class="cls-1" points="232.98 18.88 229.8 37.29 237.42 37.29 236.36 44.06 220.91 44.06 229.57 -.02 236.61 -.02 234.04 13.16 241.65 13.16 240.6 18.88 232.98 18.88"/>
  <polygon class="cls-1" points="270.69 -.02 262.29 44.06 255.41 44.06 252.87 12.53 246.52 44.06 238.58 44.06 246.98 -.02 257.13 -.02 259.43 18.14 262.8 -.02 270.69 -.02"/>
  <path class="cls-1" d="M288.23-.02l-6.69,35.19c-.31,2.01-2.32,3.71-4.33,3.71h-3.18L281.31-.02h-7.03l-8.4,44.08h15.66c2.86,0,5.61-2.22,6.14-5.08L295.01-.02h-6.78Z"/>
  <path class="cls-1" d="M312.68-.02l-6.27,35.19c-.32,2.01-2.22,3.71-4.23,3.71s-2.86-1.7-2.54-3.71L305.93-.02h-7.46l-6.77,39c-.53,2.86,1.38,5.08,4.13,5.08h11.32c2.86,0,5.61-2.22,6.14-5.08L320.62-.02h-7.94Z"/>
  <path class="cls-1" d="M24.74,107.55c-2.96,0-5.82,2.43-6.35,5.4v.32l-.11-.11v.42l-.11.11v.42l-.11.11v.21l-.11.32-.11.32v.42l-.11.32-.11.42-.11.42-.11.53-.11.42-.21.95-.11.53-.11.42v.32l-.11.42-.11.42-.11.42-.11.42-.11.32-.11.42v.11l-.11.11v.32l-.11.21v.21l-.11.11v.21c-.11,1.27.11,3.07.53,3.39.53,2.86,10.16,16.19,9.84,18.2.11,1.9-1.06,7.94-1.06,7.94-.32,2.01-1.69,3.6-3.7,3.6s-3.39-1.59-3.07-3.6l1.8-9.95h-7.2l-2.33,13.76c-.53,2.86,1.38,5.08,4.23,5.08h10.26c2.86,0,5.5-2.22,6.03-5.08,0,0,2.65-12.91,2.65-13.86s-.32-1.06-.32-1.06c0-1.06-8.57-15.13-9.42-15.66-.42-.21-.63-1.59-.74-2.43,0-.85,1.16-6.45,1.16-6.45.32-2.01,2.22-3.6,4.23-3.6s2.86,1.59,2.54,3.6l-1.59,8.89h7.2l2.54-13.44c.63-2.86-1.27-5.29-4.23-5.29h-10.58Z"/>
  <path class="cls-1" d="M44.42,107.55l-8.57,49.31c-.53,2.86,1.38,5.08,4.23,5.08h10.26c2.86,0,5.61-2.22,6.14-5.08l9.1-49.31h-6.45l-8.68,47.93c-.11.74-.85,1.27-1.48,1.27h-5.08c-.74,0-1.16-.63-1.06-1.27l8.46-47.93h-6.88Z"/>
  <path class="cls-1" d="M84.53,107.44h-15.56v.11l-10.37,54.38h6.99l4.76-24.65h8.67c2.86,0,5.51-2.22,6.03-5.08l3.71-19.36c.53-2.96-1.38-5.4-4.23-5.4ZM78.18,129.88c-.11.74-1.06,2.32-1.8,2.32h-4.23l-.11-.1h-.42v-.11h.21l-.11-.11h-.1l-.21-.21v-.1l-.11-.11-.11-.1v-.22l-.1-.1v-.21l-.11-.11v-.42l3.18-16.4c.74.31,1.05.1,1.48.1h3.28c.74,0,2.22,1.7,2.11,2.44l-2.85,13.44Z"/>
  <polygon class="cls-1" points="93.52 107.55 82.73 161.94 98.18 161.94 99.23 155.16 91.61 155.16 94.68 136.75 102.3 136.75 103.36 131.04 95.74 131.04 99.13 114.21 106.85 114.21 107.91 107.55 93.52 107.55"/>
  <path class="cls-1" d="M127.48,107.44h-15.55v.11l-10.26,54.38h6.87l4.66-24.65h4.87c.63.64.74,1.69.84,2.22.11.85.22,1.8.22,2.65-.11.84-3.71,19.78-3.71,19.78h6.88s3.81-20.63,3.81-20.95,0-1.37-.42-2.01c-.22-.42-.64-1.26-1.17-1.58-.95-.64-2.01-1.06-2.01-1.06h-.53c2.01-.74,5.61-2.01,6.03-4.13l3.71-19.36c.53-2.96-1.38-5.4-4.24-5.4ZM120.92,129.77c-.1.74-1.9,2.33-2.54,2.33h-2.96c-.63,0-1.06-.43-1.06-.96v-.31l3.18-16.4.32-.32h.1l.21-.21h.11l.1-.11h.11l.11-.1h.1l-.42.31h3.39c.74,0,2.32,1.7,2.11,2.44l-2.86,13.33Z"/>
  <polygon class="cls-1" points="148.54 107.55 138.17 161.94 146 161.94 152.35 130.4 154.89 161.94 161.77 161.94 172.14 107.55 164.31 107.55 158.91 136.01 155.42 107.55 148.54 107.55"/>
  <polygon class="cls-1" points="175.73 107.55 165.36 161.94 172.24 161.94 182.61 107.55 175.73 107.55 175.73 107.55"/>
  <polygon class="cls-1" points="186.21 107.55 175.84 161.94 183.78 161.94 190.12 130.4 192.66 161.94 199.54 161.94 209.8 107.55 201.87 107.55 196.58 136.01 193.09 107.55 186.21 107.55 186.21 107.55"/>
  <polygon class="cls-1" points="212.77 107.55 211.5 114.32 215.73 114.32 207.27 161.94 215.1 161.94 223.67 114.32 227.79 114.32 228.85 107.55 212.77 107.55 212.77 107.55"/>
  <polygon class="cls-1" points="231.6 107.55 220.91 161.94 236.36 161.94 237.42 155.16 229.8 155.16 232.98 136.75 240.6 136.75 241.65 131.04 234.04 131.04 237.32 114.21 244.93 114.21 245.99 107.44 231.6 107.44 231.6 107.55"/>
  <polygon class="cls-1" points="248.95 107.55 238.58 161.94 246.52 161.94 252.87 130.4 255.41 161.94 262.29 161.94 272.66 107.55 264.72 107.55 259.43 136.01 255.83 107.55 248.95 107.55 248.95 107.55"/>
  <path class="cls-1" d="M291.7,107.55h-15.45l-10.37,54.38h15.66c2.86,0,5.61-2.22,6.14-5.07l8.25-43.92c.53-2.96-1.37-5.39-4.23-5.39ZM288.32,117.39l-6.78,35.66c-.31,2.01-2.32,3.7-4.33,3.7h-3.18l8.04-42.96h3.18c2.01,0,3.38,1.59,3.07,3.6Z"/>
  <path class="cls-1" d="M317.31,107.55h-11.75c-2.96,0-5.71,2.43-6.24,5.39l-7.62,43.92c-.53,2.85,1.38,5.07,4.13,5.07h11.32c2.86,0,5.61-2.22,6.14-5.07l8.25-43.92c.53-2.96-1.38-5.39-4.23-5.39ZM312.76,117.39l-6.35,35.66c-.32,2.01-2.22,3.7-4.23,3.7s-2.86-1.69-2.54-3.7l6.35-35.55.1-.22.11-.21.1-.21.11-.21.1-.21.11-.21.11-.22.1-.21.11-.21.1-.21.22-.42.1-.11.11-.21.1-.21.21-.11.22-.21.21-.11.21-.1.11-.11.21-.1.21-.11.21-.11.11-.1.21-.11-.53.64h.21l.21-.11h.43c2.01,0,3.38,1.59,2.96,3.6Z"/>
  <path class="cls-1" d="M24.74,225.53c-2.96,0-5.82,2.43-6.35,5.4v.32l-.11-.11v.42l-.11.11v.42l-.11.11v.21l-.11.32-.11.32v.42l-.11.32-.11.42-.11.42-.11.53-.11.42-.21.95-.11.53-.11.42v.32l-.11.42-.11.42-.11.42-.11.42-.11.32-.11.42v.11l-.11.11v.32l-.11.21v.21l-.11.11v.21c-.11,1.27.11,3.07.53,3.39.53,2.86,10.16,16.19,9.84,18.2.11,1.9-1.06,7.94-1.06,7.94-.32,2.01-1.69,3.6-3.7,3.6s-3.39-1.59-3.07-3.6l1.8-9.95h-7.2l-2.33,13.76c-.53,2.86,1.38,5.08,4.23,5.08h10.26c2.86,0,5.5-2.22,6.03-5.08,0,0,2.65-12.91,2.65-13.86s-.32-1.06-.32-1.06c0-1.06-8.57-15.13-9.42-15.66-.42-.21-.63-1.59-.74-2.43,0-.85,1.16-6.45,1.16-6.45.32-2.01,2.22-3.6,4.23-3.6s2.86,1.59,2.54,3.6l-1.59,8.89h7.2l2.54-13.44c.63-2.86-1.27-5.29-4.23-5.29h-10.58Z"/>
  <path class="cls-1" d="M44.42,225.53l-8.57,49.31c-.53,2.86,1.38,5.08,4.23,5.08h10.26c2.86,0,5.61-2.22,6.14-5.08l9.1-49.31h-6.45l-8.68,47.93c-.11.74-.85,1.27-1.48,1.27h-5.08c-.74,0-1.16-.63-1.06-1.27l8.46-47.93h-6.88Z"/>
  <path class="cls-1" d="M84.53,225.42h-15.56v.11l-10.37,54.39h6.99l4.76-24.66h8.67c2.86,0,5.51-2.22,6.03-5.08l3.71-19.36c.53-2.96-1.38-5.4-4.23-5.4ZM78.18,247.86c-.11.74-1.06,2.32-1.8,2.32h-4.23l-.11-.1h-.42v-.11h.21l-.11-.11h-.1l-.21-.21v-.1l-.11-.11-.11-.1v-.22l-.1-.1v-.21l-.11-.11v-.42l3.18-16.4c.74.31,1.05.1,1.48.1h3.28c.74,0,2.22,1.7,2.11,2.44l-2.85,13.44Z"/>
  <polygon class="cls-1" points="93.52 225.53 82.73 279.92 98.18 279.92 99.23 273.14 91.61 273.14 94.68 254.73 102.3 254.73 103.36 249.02 95.74 249.02 99.13 232.2 106.85 232.2 107.91 225.53 93.52 225.53"/>
  <path class="cls-1" d="M127.48,225.42h-15.55v.11l-10.26,54.39h6.87l4.66-24.66h4.87c.63.64.74,1.69.84,2.22.11.85.22,1.8.22,2.65-.11.85-3.71,19.79-3.71,19.79h6.88s3.81-20.64,3.81-20.96,0-1.37-.42-2.01c-.22-.42-.64-1.26-1.17-1.58-.95-.64-2.01-1.06-2.01-1.06h-.53c2.01-.74,5.61-2.01,6.03-4.13l3.71-19.36c.53-2.96-1.38-5.4-4.24-5.4ZM120.92,247.75c-.1.74-1.9,2.33-2.54,2.33h-2.96c-.63,0-1.06-.43-1.06-.96v-.31l3.18-16.4.32-.32h.1l.11-.11.1-.1h.11l.1-.11h.11l.11-.1h.1l-.42.31h3.39c.74,0,2.32,1.7,2.11,2.44l-2.86,13.33Z"/>
  <polygon class="cls-1" points="148.54 225.53 138.17 279.92 146 279.92 152.35 248.38 154.89 279.92 161.77 279.92 172.14 225.53 164.31 225.53 158.91 253.99 155.42 225.53 148.54 225.53"/>
  <polygon class="cls-1" points="175.73 225.53 165.36 279.92 172.24 279.92 182.61 225.53 175.73 225.53 175.73 225.53"/>
  <polygon class="cls-1" points="186.21 225.53 175.84 279.92 183.78 279.92 190.12 248.38 192.66 279.92 199.54 279.92 209.8 225.53 201.87 225.53 196.58 253.99 193.09 225.53 186.21 225.53 186.21 225.53"/>
  <polygon class="cls-1" points="212.77 225.53 211.5 232.3 215.73 232.3 207.27 279.92 215.1 279.92 223.67 232.3 227.79 232.3 228.85 225.53 212.77 225.53 212.77 225.53"/>
  <polygon class="cls-1" points="231.6 225.53 220.91 279.92 236.36 279.92 237.42 273.14 229.8 273.14 232.98 254.73 240.6 254.73 241.65 249.02 234.04 249.02 237.32 232.2 244.93 232.2 245.99 225.42 231.6 225.42 231.6 225.53"/>
  <polygon class="cls-1" points="248.95 225.53 238.58 279.92 246.52 279.92 252.87 248.38 255.41 279.92 262.29 279.92 272.66 225.53 264.72 225.53 259.43 253.99 255.83 225.53 248.95 225.53 248.95 225.53"/>
  <path class="cls-1" d="M291.7,225.53h-15.45l-10.37,54.39h15.66c2.86,0,5.61-2.23,6.14-5.08l8.25-43.92c.53-2.96-1.37-5.39-4.23-5.39ZM288.32,235.37l-6.78,35.66c-.31,2.01-2.32,3.7-4.33,3.7h-3.18l8.04-42.96h3.18c2.01,0,3.38,1.59,3.07,3.6Z"/>
  <path class="cls-1" d="M317.31,225.53h-11.75c-2.96,0-5.71,2.43-6.24,5.39l-7.62,43.92c-.53,2.85,1.38,5.08,4.13,5.08h11.32c2.86,0,5.61-2.23,6.14-5.08l8.25-43.92c.53-2.96-1.38-5.39-4.23-5.39ZM312.76,235.37l-6.35,35.66c-.32,2.01-2.22,3.7-4.23,3.7s-2.86-1.69-2.54-3.7l6.35-35.55.1-.22.11-.21.1-.21.11-.21.1-.21.11-.21.11-.22.1-.21.11-.21.1-.21.11-.21.11-.21.1-.11.11-.21.1-.21.21-.11.22-.21.21-.11.21-.1.11-.11.21-.1.42-.22.11-.1.21-.11-.53.64h.21l.21-.11h.43c2.01,0,3.38,1.59,2.96,3.6Z"/>
  <path class="cls-1" d="M24.74,166.59c-2.96,0-5.82,2.43-6.35,5.4v.32l-.11-.11v.42l-.11.11v.42l-.11.11v.21l-.11.32-.11.32v.42l-.11.32-.11.42-.11.42-.11.53-.11.42-.21.95-.11.53-.11.42v.32l-.11.42-.11.42-.11.42-.11.42-.11.32-.11.42v.11l-.11.11v.32l-.11.21v.21l-.11.11v.21c-.11,1.27.11,3.07.53,3.39.53,2.86,10.16,16.19,9.84,18.2.11,1.9-1.06,7.94-1.06,7.94-.32,2.01-1.69,3.6-3.7,3.6s-3.39-1.59-3.07-3.6l1.8-9.95h-7.2l-2.33,13.76c-.53,2.86,1.38,5.08,4.23,5.08h10.26c2.86,0,5.5-2.22,6.03-5.08,0,0,2.65-12.91,2.65-13.86s-.32-1.06-.32-1.06c0-1.06-8.57-15.13-9.42-15.66-.42-.21-.63-1.59-.74-2.43,0-.85,1.16-6.45,1.16-6.45.32-2.01,2.22-3.6,4.23-3.6s2.86,1.59,2.54,3.6l-1.59,8.89h7.2l2.54-13.44c.63-2.86-1.27-5.29-4.23-5.29h-10.58Z"/>
  <path class="cls-1" d="M44.42,166.59l-8.57,49.31c-.53,2.86,1.38,5.08,4.23,5.08h10.26c2.86,0,5.61-2.22,6.14-5.08l9.1-49.31h-6.45l-8.68,47.93c-.11.74-.85,1.27-1.48,1.27h-5.08c-.74,0-1.16-.63-1.06-1.27l8.46-47.93h-6.88Z"/>
  <path class="cls-1" d="M84.53,166.49h-15.56v.1l-10.37,54.39h6.99l4.76-24.65h8.67c2.86,0,5.51-2.23,6.03-5.08l3.71-19.37c.53-2.96-1.38-5.39-4.23-5.39ZM78.18,188.92c-.11.74-1.06,2.33-1.8,2.33h-4.23l-.11-.11h-.42v-.11h.21l-.11-.1h-.1l-.21-.21v-.11l-.11-.1-.11-.11v-.21l-.1-.11v-.21l-.11-.11v-.42l3.18-16.4c.74.32,1.05.11,1.48.11h3.28c.74,0,2.22,1.69,2.11,2.43l-2.85,13.44Z"/>
  <polygon class="cls-1" points="93.52 166.59 82.73 220.98 98.18 220.98 99.23 214.21 91.61 214.21 94.68 195.8 102.3 195.8 103.36 190.08 95.74 190.08 99.13 173.26 106.85 173.26 107.91 166.59 93.52 166.59"/>
  <path class="cls-1" d="M127.48,166.49h-15.55v.1l-10.26,54.39h6.87l4.66-24.65h4.87c.63.63.74,1.69.84,2.22.11.84.22,1.8.22,2.64-.11.85-3.71,19.79-3.71,19.79h6.88s3.81-20.63,3.81-20.95,0-1.38-.42-2.01c-.22-.42-.64-1.27-1.17-1.59-.95-.63-2.01-1.06-2.01-1.06h-.53c2.01-.74,5.61-2.01,6.03-4.12l3.71-19.37c.53-2.96-1.38-5.39-4.24-5.39ZM120.92,188.81c-.1.74-1.9,2.33-2.54,2.33h-2.96c-.63,0-1.06-.42-1.06-.95v-.32l3.18-16.4.32-.32h.1l.11-.1.1-.11h.11l.1-.11h.11l.11-.1h.1l-.42.32h3.39c.74,0,2.32,1.69,2.11,2.43l-2.86,13.33Z"/>
  <polygon class="cls-1" points="148.54 166.59 138.17 220.98 146 220.98 152.35 189.45 154.89 220.98 161.77 220.98 172.14 166.59 164.31 166.59 158.91 195.06 155.42 166.59 148.54 166.59"/>
  <polygon class="cls-1" points="175.73 166.59 165.36 220.98 172.24 220.98 182.61 166.59 175.73 166.59 175.73 166.59"/>
  <polygon class="cls-1" points="186.21 166.59 175.84 220.98 183.78 220.98 190.12 189.45 192.66 220.98 199.54 220.98 209.8 166.59 201.87 166.59 196.58 195.06 193.09 166.59 186.21 166.59 186.21 166.59"/>
  <polygon class="cls-1" points="212.77 166.59 211.5 173.36 215.73 173.36 207.27 220.98 215.1 220.98 223.67 173.36 227.79 173.36 228.85 166.59 212.77 166.59 212.77 166.59"/>
  <polygon class="cls-1" points="231.6 166.59 220.91 220.98 236.36 220.98 237.42 214.21 229.8 214.21 232.98 195.8 240.6 195.8 241.65 190.08 234.04 190.08 237.32 173.26 244.93 173.26 245.99 166.49 231.6 166.49 231.6 166.59"/>
  <polygon class="cls-1" points="248.95 166.59 238.58 220.98 246.52 220.98 252.87 189.45 255.41 220.98 262.29 220.98 272.66 166.59 264.72 166.59 259.43 195.06 255.83 166.59 248.95 166.59 248.95 166.59"/>
  <path class="cls-1" d="M291.7,166.59h-15.45l-10.37,54.39h15.66c2.86,0,5.61-2.22,6.14-5.08l8.25-43.91c.53-2.96-1.37-5.4-4.23-5.4ZM288.32,176.43l-6.78,35.66c-.31,2.01-2.32,3.7-4.33,3.7h-3.18l8.04-42.96h3.18c2.01,0,3.38,1.59,3.07,3.6Z"/>
  <path class="cls-1" d="M317.31,166.59h-11.75c-2.96,0-5.71,2.44-6.24,5.4l-7.62,43.91c-.53,2.86,1.38,5.08,4.13,5.08h11.32c2.86,0,5.61-2.22,6.14-5.08l8.25-43.91c.53-2.96-1.38-5.4-4.23-5.4ZM312.76,176.43l-6.35,35.66c-.32,2.01-2.22,3.7-4.23,3.7s-2.86-1.69-2.54-3.7l6.35-35.55.1-.21.11-.21.1-.22.11-.21.1-.21.11-.21.11-.21.1-.21.11-.22.1-.21.11-.21.11-.21.1-.11.11-.21.1-.21.21-.11.22-.21.21-.1.21-.11.11-.11.21-.1.21-.11.21-.1.11-.11.21-.1-.53.63h.21l.21-.11h.43c2.01,0,3.38,1.59,2.96,3.6Z"/>
  <path class="cls-1" d="M39.56,289.76l-2.54,13.43h-7.2l1.59-8.88c.32-2.01-.53-3.6-2.54-3.6s-3.92,1.59-4.23,3.6c0,0-1.17,5.6-1.17,6.45.11.85.32,2.22.74,2.43.85.53,9.42,14.61,9.42,15.66,0,0,.32.11.32,1.06,0,.02,0,.04-.01.07h-8.28c-2.17-4.4-8.74-13.81-9.17-16.15-.42-.32-.63-2.12-.53-3.39v-.21l.11-.1v-.22l.1-.21v-.31l.11-.11v-.11l.1-.42.11-.32.11-.42.1-.42.11-.43.1-.42v-.32l.11-.42.1-.53.22-.95.1-.42.11-.53.1-.43.11-.42.11-.32v-.42l.1-.32.11-.32v-.21l.1-.1v-.43l.11-.1v-.43l.1.11v-.32c.53-2.96,3.39-5.39,6.35-5.39h10.58c2.97,0,4.87,2.43,4.24,5.29Z"/>
  <polygon class="cls-1" points="44.42 284.47 51.3 284.47 45.03 319.98 38.25 319.98 44.42 284.47"/>
  <polygon class="cls-1" points="65.59 284.47 59.04 319.98 52.7 319.98 59.13 284.47 65.59 284.47"/>
  <path class="cls-1" d="M84.53,284.36h-15.56v.11l-6.77,35.51h7.03l1.12-5.78h8.67c2.86,0,5.51-2.22,6.03-5.08l3.71-19.36c.53-2.97-1.38-5.4-4.23-5.4ZM78.18,306.79c-.11.74-1.06,2.33-1.8,2.33h-4.23l-.11-.11h-.42v-.1h.21l-.11-.11h-.1l-.21-.21v-.11l-.11-.1-.11-.11v-.21l-.1-.1v-.22l-.11-.1v-.43l3.18-16.4c.74.32,1.05.11,1.48.11h3.28c.74,0,2.22,1.69,2.11,2.43l-2.85,13.44Z"/>
  <polygon class="cls-1" points="99.13 291.13 95.74 307.96 103.36 307.96 102.3 313.67 94.68 313.67 93.63 319.98 86.47 319.98 93.52 284.47 107.91 284.47 106.85 291.13 99.13 291.13"/>
  <path class="cls-1" d="M127.48,284.36h-15.55v.11l-6.7,35.51h6.88l1.09-5.78h4.87c.63.63.74,1.69.84,2.22.11.85.22,1.8.22,2.65-.01.09-.07.41-.16.91h6.78c.22-1.23.36-2.02.36-2.08,0-.32,0-1.37-.42-2.01-.22-.42-.64-1.27-1.17-1.58-.95-.64-2.01-1.06-2.01-1.06h-.53c2.01-.74,5.61-2.01,6.03-4.13l3.71-19.36c.53-2.97-1.38-5.4-4.24-5.4ZM120.92,306.69c-.1.74-1.9,2.32-2.54,2.32h-2.96c-.63,0-1.06-.42-1.06-.95v-.32l3.18-16.4.32-.31h.1l.11-.11.1-.11h.11l.1-.1h.11l.11-.11h.1l-.42.32h3.39c.74,0,2.32,1.69,2.11,2.43l-2.86,13.34Z"/>
  <polygon class="cls-1" points="172.14 284.47 165.37 319.98 153.37 319.98 152.35 307.32 149.8 319.98 141.77 319.98 148.54 284.47 155.42 284.47 158.91 312.93 164.31 284.47 172.14 284.47"/>
  <polygon class="cls-1" points="182.61 284.47 175.84 319.98 168.96 319.98 175.73 284.47 182.61 284.47"/>
  <polygon class="cls-1" points="209.8 284.47 203.1 319.98 191.14 319.98 190.12 307.32 187.57 319.98 179.44 319.98 186.21 284.47 193.09 284.47 196.58 312.93 201.87 284.47 209.8 284.47"/>
  <polygon class="cls-1" points="228.85 284.47 227.79 291.24 223.67 291.24 218.5 319.98 210.62 319.98 215.73 291.24 211.5 291.24 212.77 284.47 228.85 284.47"/>
  <polygon class="cls-1" points="237.32 291.13 234.04 307.96 241.65 307.96 240.6 313.67 232.98 313.67 231.89 319.98 224.62 319.98 231.6 284.47 231.6 284.36 245.99 284.36 244.93 291.13 237.32 291.13"/>
  <polygon class="cls-1" points="272.66 284.47 265.89 319.98 253.89 319.98 252.87 307.32 250.32 319.98 242.18 319.98 248.95 284.47 255.83 284.47 259.43 312.93 264.72 284.47 272.66 284.47"/>
  <path class="cls-1" d="M291.7,284.47h-15.45l-6.77,35.51h7.11l5.48-29.27h3.18c2.01,0,3.38,1.59,3.07,3.6l-4.88,25.67h6.83l5.66-30.12c.53-2.96-1.37-5.39-4.23-5.39Z"/>
  <path class="cls-1" d="M317.31,284.47h-11.75c-2.96,0-5.71,2.43-6.24,5.39l-5.23,30.12h7.33l4.57-25.57.1-.21.11-.21.1-.21.11-.21.1-.22.11-.21.11-.21.1-.21.11-.21.1-.21.11-.22.11-.21.1-.1.11-.21.1-.22.21-.1.22-.21.42-.22.11-.1.21-.11.21-.1.21-.11.11-.1.21-.11-.53.63h.21l.21-.1h.43c2.01,0,3.38,1.59,2.96,3.6l-4.57,25.67h7.69l5.66-30.12c.53-2.96-1.38-5.39-4.23-5.39Z"/>
  <g>
    <rect class="cls-7" x="5.47" y="113.57" width="320.49" height="18.65"/>
    <path class="cls-3" d="M241.04,115.57h2.89c.67,0,1.11.56,1,1.22l-.67,3.11h-1.55l.33-2.11c.11-.44-.22-.89-.67-.89s-.89.33-1,.89l-.33,1.55c0,.11.11.56.22.56.22.11,2.22,3.44,2.22,3.66,0,.11.11.22.11.22-.11.44-.67,3.22-.67,3.22-.11.67-.78,1.22-1.44,1.22h-2.33c-.67,0-1.11-.56-1-1.22l.56-3.22h1.67l-.44,2.33c-.11.44.22.89.67.89s.89-.44,1-.89l.33-1.89c-.33-.78-2.33-3.55-2.44-4.22-.11-.11-.11-.44-.11-.78s.44-2.44.44-2.44h.11v-.33l.11-.11v-.11l.11-.11v-.11l.11-.11v-.11l.11-.11.11-.11v-.11h.11l.11-.11.11-.11.11-.11v-.11h.11l.11-.11.11-.11h.11l.11-.11h.11l.11-.11h.11l-.78,1h0Z"/>
    <polygon class="cls-3" points="254.02 115.57 256.02 115.57 256.36 120.34 258.91 115.57 260.91 115.57 256.8 122.89 255.8 128.22 254.02 128.22 254.91 122.45 254.02 115.57 254.02 115.57"/>
    <path class="cls-3" d="M272.34,115.57h2.89c.67,0,1.11.56,1,1.22l-.67,3.11h-1.55l.33-2.11c.11-.44-.22-.89-.67-.89s-.89.33-1,.89l-.33,1.55c-.11.11.11.56.22.56.22.11,2.22,3.44,2.22,3.66.11.11.11.22.11.22-.11.44-.56,3.22-.56,3.22-.11.67-.78,1.22-1.44,1.22h-2.44c-.67,0-1.11-.56-1-1.22l.56-3.22h1.67l-.44,2.33c-.11.44.22.89.67.89s.89-.44,1-.89l.33-1.89c-.33-.78-2.33-3.55-2.44-4.22-.11-.11-.11-.44-.11-.78s.44-2.44.44-2.44l.11-.11v-.22l.11-.11v-.11l.11-.11v-.11l.11-.11v-.11l.11-.11.11-.11v-.11h.11l.11-.11.11-.11.11-.11.11-.11.11-.11.11-.11h.11l.11-.11h.11l.11-.11h.11l-.78,1h0Z"/>
    <polygon class="cls-3" points="285.44 115.57 289.21 115.57 288.88 117.12 287.88 117.12 285.88 128.22 284.11 128.22 286.11 117.12 285.22 117.12 285.44 115.57"/>
    <polygon class="cls-3" points="300.2 115.57 303.53 115.57 303.2 117.12 301.43 117.12 300.65 121.12 302.42 121.12 302.09 122.45 300.32 122.45 299.54 126.67 301.31 126.67 301.09 128.22 297.54 128.22 300.2 115.57 300.2 115.57"/>
    <polygon class="cls-3" points="314.08 115.57 316.19 115.57 316.52 122.89 319.74 115.68 321.74 115.57 319.52 128.22 317.97 128.22 318.96 121.56 316.19 128.22 315.08 128.22 314.75 121.34 313.53 128.22 311.64 128.22 314.08 115.57 314.08 115.57"/>
    <polygon class="cls-3" points="12.46 116.01 15.8 116.01 15.57 117.57 13.69 117.57 13.02 121.56 14.8 121.56 14.57 122.89 12.69 122.89 12.02 127.11 13.8 127.11 13.46 128.67 9.91 128.67 12.46 116.01"/>
    <polygon class="cls-3" points="27.9 116.01 29.45 116.01 30.34 122.67 31.56 116.01 33.45 116.01 31 128.78 29.45 128.78 28.78 121.34 27.34 128.67 25.45 128.67 27.9 116.01"/>
    <polygon class="cls-3" points="44.77 116.01 48.43 116.01 48.21 117.57 47.21 117.57 45.21 128.67 43.44 128.67 45.43 117.57 44.44 117.57 44.77 116.01 44.77 116.01"/>
    <polygon class="cls-3" points="61.09 116.01 64.42 116.01 64.08 117.57 62.31 117.57 61.64 121.56 63.42 121.56 63.2 122.89 61.42 122.89 60.75 127.11 62.53 127.11 62.31 128.67 58.76 128.67 61.09 116.01 61.09 116.01"/>
    <path class="cls-3" d="M76.96,116.01h3.55c.67,0,1.11.56,1,1.33l-.89,4.44c-.11.44-1,.89-1.44,1.11h.33v.11h.44l.11.11h-.22.11v.11h.22v.11h.11c.11.11.11.56.11.67s-.89,5-.89,5h-1.89s.89-4.44.89-4.55c0-.22,0-.44-.11-.67,0-.11,0-.33-.22-.56h-1.11l-1.11,5.77h-1.67l2.66-12.99Z"/>
    <polygon class="cls-3" points="93.06 116.01 96.83 116.01 96.5 117.57 95.5 117.57 93.5 128.67 91.73 128.67 93.72 117.57 92.73 117.57 93.06 116.01"/>
    <polygon class="cls-3" points="111.71 116.01 113.82 116.01 113.15 128.78 111.04 128.78 111.38 125.89 110.04 125.89 108.93 128.78 107.05 128.78 111.71 116.01"/>
    <polygon class="cls-3" points="126.69 116.01 128.36 116.01 125.92 128.67 124.25 128.67 126.69 116.01"/>
    <polygon class="cls-3" points="141.13 116.01 142.68 116.01 143.57 122.67 144.79 116.01 146.57 116.01 144.23 128.78 142.57 128.78 142.01 121.45 140.57 128.78 138.68 128.78 141.13 116.01"/>
    <polygon class="cls-3" points="159.78 116.01 161.89 116.01 162.22 123.34 165.44 116.01 167.44 116.01 165.33 128.67 163.77 128.67 164.77 122.01 162 128.67 160.89 128.67 160.55 121.78 159.33 128.67 157.56 128.67 159.78 116.01"/>
    <polygon class="cls-3" points="180.09 116.01 183.42 116.01 183.2 117.57 181.42 117.57 180.65 121.45 182.42 121.45 182.2 122.78 180.42 122.78 179.65 127 181.42 127 181.09 128.56 177.54 128.56 180.09 116.01 180.09 116.01"/>
    <polygon class="cls-3" points="196.41 116.01 197.96 116.01 198.85 122.67 200.07 116.01 201.85 116.01 199.52 128.67 197.96 128.67 197.3 121.34 195.85 128.67 193.97 128.67 196.41 116.01"/>
    <polygon class="cls-3" points="213.06 116.01 216.84 116.01 216.5 117.57 215.5 117.57 213.5 128.67 211.73 128.67 213.73 117.57 212.73 117.57 213.06 116.01"/>
    <path class="cls-3" d="M78.52,117.57q-.11,0-.22.11l-.78,3.77v.11c0,.11.11.22.22.22h.67c.22,0,.56-.33.67-.56l.67-3.11c0-.22-.33-.56-.44-.56h-.78Z"/>
    <polygon class="cls-3" points="111.71 121.34 110.49 124.56 111.38 124.56 111.71 121.34 111.71 121.34"/>
  </g>
  <g>
    <path class="cls-4" d="M412.79,79.23v-9.25c0-.68.37-1.31.97-1.63,3.95-2.12,19.94-9.66,47.53-9.66h49.33c1.03,0,1.86.83,1.86,1.86v12.36l-99.69,6.33h0Z"/>
    <path class="cls-4" d="M560,62.21v180.49h-48.54c-4.19,0-8.31.96-12.05,2.84-13.02,6.51-27.7,10.18-43.25,10.18-53.37,0-96.65-43.23-96.75-96.58-.07-37.48,21.84-70.17,53.38-86.28,13.32-6.8,28.37-10.65,44.2-10.65h103.01Z"/>
    <circle class="cls-4" cx="456.46" cy="156.25" r="54.82"/>
    <g>
      <path class="cls-4" d="M446.11,196.22c-1.71,0-3.1-1.38-3.1-3.09v-21.88c0-.88-.72-1.6-1.61-1.6h-21.99c-1.71,0-3.1-1.38-3.1-3.09v-20.6c0-1.7,1.39-3.09,3.1-3.09h21.99c.89,0,1.61-.72,1.61-1.6v-21.88c0-1.7,1.39-3.09,3.1-3.09h20.7c1.71,0,3.1,1.38,3.1,3.09v21.88c0,.88.72,1.6,1.61,1.6h21.99c1.71,0,3.1,1.38,3.1,3.09v20.6c0,1.7-1.39,3.09-3.1,3.09h-21.99c-.89,0-1.61.72-1.61,1.6v21.88c0,1.7-1.39,3.09-3.1,3.09h-20.7,0Z"/>
      <path class="cls-4" d="M493.5,142.12h-21.98c-.47,0-.86-.39-.86-.85v-21.89c0-2.11-1.73-3.84-3.85-3.84h-20.7c-2.13,0-3.85,1.73-3.85,3.84v21.89c0,.46-.39.85-.87.85h-21.98c-2.12,0-3.85,1.72-3.85,3.84v20.6c0,2.12,1.73,3.84,3.85,3.84h21.98c.48,0,.87.38.87.85v21.88c0,2.12,1.72,3.84,3.85,3.84h20.7c2.12,0,3.85-1.72,3.85-3.84v-21.88c0-.47.39-.85.86-.85h21.98c2.13,0,3.86-1.72,3.86-3.84v-20.6c0-2.12-1.73-3.84-3.86-3.84ZM495.86,166.56c0,1.29-1.05,2.35-2.36,2.35h-21.98c-1.3,0-2.36,1.05-2.36,2.34v21.88c0,1.3-1.05,2.35-2.35,2.35h-20.7c-1.3,0-2.36-1.05-2.36-2.35v-21.88c0-1.29-1.06-2.34-2.36-2.34h-21.98c-1.3,0-2.36-1.06-2.36-2.35v-20.6c0-1.3,1.06-2.35,2.36-2.35h21.98c1.3,0,2.36-1.05,2.36-2.34v-21.89c0-1.29,1.06-2.34,2.36-2.34h20.7c1.3,0,2.35,1.05,2.35,2.34v21.89c0,1.29,1.06,2.34,2.36,2.34h21.98c1.3,0,2.36,1.05,2.36,2.35v20.6Z"/>
    </g>
    <path class="cls-4" d="M560,156.21v17.65l-15.9,11.98c-3.33,2.51-8.06,1.85-10.57-1.48-1.03-1.36-1.52-2.95-1.52-4.54,0-2.28,1.04-4.55,3-6.03l21.39-16.12c1.09-.82,2.33-1.3,3.6-1.46Z"/>
    <g>
      <path class="cls-4" d="M525.69,77.83l-.35-.52h-.77l-.53.52-.82,5.55.35.52h2.07l1.1,1.56-1.19,7.94-1.57,1.56h-3.35l-1.08-1.56.62-4.12h2.12l-.46,3.09.35.52h.88l.53-.52.86-5.81-.35-.52h-2.07l-1.1-1.56,1.15-7.68,1.57-1.56h3.24l1.08,1.56-.62,4.15h-2.12l.46-3.11h0Z"/>
      <path class="cls-4" d="M531.43,94.96h-3.55l-1.08-1.56,2.71-18.17h2.12l-2.56,17.07.35.52h1.08l.53-.52,2.56-17.07h2.12l-2.71,18.17-1.57,1.56h0Z"/>
      <path class="cls-4" d="M541.93,75.24h-4.78l-2.96,19.72h2.12l1.19-7.89h2.67l1.54-1.56,1.3-8.71-1.08-1.56ZM539.74,84.48l-.5.52h-1.44l1.15-7.68h1.43l.35.51-.99,6.65Z"/>
      <path class="cls-4" d="M544.38,75.24h5.23l-.31,2.13h-3.11l-.99,6.54h2.71l-.31,2.13h-2.71l-1.04,6.8h3.15l-.31,2.13h-5.27l2.96-19.72h0Z"/>
      <path class="cls-4" d="M556.75,76.8l-1.08-1.56h-4.89l-2.96,19.72h2.11l1.26-8.41h.91l.04,8.41h2.05l-.04-8.59,1.39-1.37,1.21-8.2ZM553.56,84.01l-.51.52h-1.55l1.08-7.21h1.55l.35.51-.92,6.18Z"/>
    </g>
    <rect class="cls-4" x="518.5" y="96.49" width="41.5" height="7.33"/>
    <g>
      <path class="cls-4" d="M521.79,102.3l.73-4.28h2.52l-.08.48h-2.05l-.23,1.33h2l-.08.48h-2l-.25,1.49h2.2l-.08.48h-2.67Z"/>
      <path class="cls-4" d="M527.45,102.3l.73-4.28h.46l.59,1.61c.17.47.31.87.41,1.19.07.22.14.5.22.84.04-.37.1-.74.16-1.12l.44-2.52h.45l-.73,4.28h-.46l-.87-2.47c-.15-.44-.27-.83-.36-1.16-.02.28-.06.62-.13,1.03l-.44,2.6h-.46Z"/>
      <path class="cls-4" d="M534.25,102.3l.65-3.8h-1.15l.08-.48h2.76l-.08.48h-1.15l-.65,3.8h-.47Z"/>
      <path class="cls-4" d="M538.76,102.3l.73-4.28h2.52l-.08.48h-2.05l-.23,1.33h2l-.08.48h-2l-.25,1.49h2.2l-.08.48h-2.67Z"/>
      <path class="cls-4" d="M546.86,100.74c-.07-.12-.17-.25-.3-.36.39-.07.68-.21.88-.43.19-.22.29-.51.29-.89,0-.24-.05-.46-.14-.64-.06-.12-.17-.22-.31-.29s-.36-.11-.68-.11h-1.45l-.73,4.28h.47l.33-1.9h.53c.18,0,.31.02.39.07.08.04.16.13.24.27.11.2.22.46.31.76l.25.8h.52l-.26-.81c-.08-.25-.2-.5-.34-.75ZM545.92,99.94h-.62l.25-1.45h1.12c.18,0,.3.02.37.05.07.04.13.1.17.19.05.09.07.2.07.33,0,.14-.03.27-.08.39-.06.12-.13.22-.22.29-.1.08-.21.13-.34.16-.12.02-.36.04-.72.04Z"/>
      <path class="cls-4" d="M551.11,102.3l.65-3.8h-1.15l.08-.48h2.76l-.08.48h-1.15l-.65,3.8h-.47Z"/>
      <path class="cls-4" d="M557.39,98.02h-.55l-1.99,4.28h.52l.56-1.23h1.42l.17,1.23h.45l-.58-4.28ZM556.13,100.63h0s.57-1.27.57-1.27c.16-.34.27-.63.35-.88.02.29.05.65.1,1.07l.14,1.08h-1.16Z"/>
    </g>
    <g>
      <path class="cls-4" d="M533.03,200.32l1.19-.08c.01.49.08.82.19.99.18.28.52.42,1.01.42.41,0,.7-.09.89-.28s.27-.42.27-.69c0-.23-.07-.43-.22-.59-.1-.12-.39-.31-.86-.57s-.81-.48-1.03-.66c-.21-.18-.39-.41-.51-.69s-.18-.61-.18-.99c0-.66.18-1.21.55-1.65s.9-.65,1.6-.65,1.26.21,1.65.65c.39.43.6,1.01.64,1.73l-1.2.07c-.03-.37-.13-.66-.31-.86-.18-.2-.44-.3-.79-.3s-.59.08-.74.23c-.15.16-.22.35-.22.6,0,.22.07.41.2.56.13.15.43.35.9.62.7.39,1.14.71,1.33.95.28.36.42.82.42,1.38,0,.69-.21,1.29-.63,1.78-.42.49-1.01.74-1.77.74-.52,0-.97-.11-1.35-.34-.38-.23-.65-.54-.81-.95-.16-.4-.23-.87-.22-1.39h0Z"/>
      <path class="cls-4" d="M539.34,202.87l1.27-7.86h4.49l-.21,1.31h-3.25l-.29,1.79h3.14l-.21,1.31h-3.14l-.38,2.14h3.53l-.21,1.31h-4.74Z"/>
      <path class="cls-4" d="M545.86,202.87l1.27-7.86h1.25l-1.06,6.55h3.08l-.21,1.31h-4.33,0Z"/>
      <path class="cls-4" d="M551.85,202.87l1.27-7.86h4.49l-.21,1.31h-3.25l-.29,1.79h3.14l-.21,1.31h-3.14l-.38,2.14h3.53l-.21,1.31h-4.74Z"/>
      <path class="cls-4" d="M560,195.83v6.86c-.22-.13-.41-.31-.58-.55-.42-.57-.62-1.42-.62-2.52,0-.89.13-1.71.41-2.45.2-.54.46-.98.79-1.34Z"/>
    </g>
  </g>
  <g>
    <path class="cls-8" d="M208.2,197.59c-4.22,0-8.39.85-12.26,2.51-11.53,4.93-18.98,16.28-18.93,28.83,8.01.05,15.69,2.99,21.4,8.18,6.4,5.82,9.73,13.92,9.14,22.19l.71.7c12.64-.03,24-7.7,28.78-19.42,4.77-11.71,2.01-25.16-7-34.03-5.82-5.74-13.67-8.96-21.84-8.96Z"/>
    <path class="cls-6" d="M146.09,166.59c-4.22,0-8.39.85-12.26,2.5-11.53,4.93-18.98,16.28-18.93,28.83,8.01.05,15.69,2.99,21.4,8.18,6.4,5.82,9.73,13.92,9.14,22.19l.71.7c12.64-.03,24-7.7,28.78-19.42,4.77-11.71,2.01-25.16-7-34.03-5.82-5.74-13.67-8.95-21.84-8.96Z"/>
    <ellipse class="cls-2" cx="106.63" cy="237.91" rx="35.67" ry="17.91"/>
    <ellipse class="cls-5" cx="168.72" cy="269.13" rx="35.67" ry="17.91"/>
  </g>
</svg>