<svg xmlns="http://www.w3.org/2000/svg" id="Layer_1" data-name="Layer 1" viewBox="0 0 560 320"><defs><style>.cls-1{fill:#372869}.cls-3{fill:#fff}.cls-4{fill:#bca3ce;stroke:#553f98;stroke-linejoin:round;stroke-width:.5px}.cls-7{fill:#fc0c18}</style></defs><path d="M.76-.02H560v320H.76z" class="cls-1"/><path d="M405.14-.12c-3.45 16.81-8.27 33.52-14.2 49.97-.77 2.14-1.56 4.27-2.37 6.4-3.15 8.31-6.6 16.53-10.28 24.65a462 462 0 0 1-18.36 36.11c-.66 1.19-1.34 2.38-2.03 3.56-.5.88-1 1.74-1.5 2.61-10.64 18.29-22.38 35.76-34.79 52.08-48.21 64.41-136.13 76.41-201.3 120.77-3.92 2.65-7.76 5.44-11.5 8.36a168 168 0 0 0-8.87 7.44c-2.85 2.53-5.66 5.19-8.43 7.96H-.37V-.12z" style="fill:#553f98"/><path d="M24.74 48.61c-2.96 0-5.82 2.43-6.35 5.4v.32l-.11-.11v.42l-.11.11v.42l-.11.11v.21l-.11.32-.11.32v.42l-.11.32-.11.42-.11.42-.11.53-.11.42-.21.95-.11.53-.11.42v.32l-.11.42-.11.42-.11.42-.11.42-.11.32-.11.42v.11l-.11.11v.32l-.11.21v.21l-.11.11v.21c-.11 1.27.11 3.07.53 3.39.53 2.86 10.16 16.19 9.84 18.2.11 1.9-1.06 7.94-1.06 7.94-.32 2.01-1.69 3.6-3.7 3.6s-3.39-1.59-3.07-3.6l1.8-9.95h-7.2l-2.33 13.76c-.53 2.86 1.38 5.08 4.23 5.08h10.26c2.86 0 5.5-2.22 6.03-5.08 0 0 2.65-12.91 2.65-13.86S33.53 83 33.53 83c0-1.06-8.57-15.13-9.42-15.66-.42-.21-.63-1.59-.74-2.43 0-.85 1.16-6.45 1.16-6.45.32-2.01 2.22-3.6 4.23-3.6s2.86 1.59 2.54 3.6l-1.59 8.89h7.2l2.54-13.44c.63-2.86-1.27-5.29-4.23-5.29H24.64Zm19.68 0-8.57 49.31c-.53 2.86 1.38 5.08 4.23 5.08h10.26c2.86 0 5.61-2.22 6.14-5.08l9.1-49.31h-6.45l-8.68 47.93c-.11.74-.85 1.27-1.48 1.27h-5.08c-.74 0-1.16-.63-1.06-1.27l8.46-47.93h-6.88Zm40.11-.1H68.97v.1L58.6 103h6.99l4.76-24.66h8.67c2.86 0 5.51-2.22 6.03-5.07l3.71-19.37c.53-2.96-1.38-5.39-4.23-5.39m-6.35 22.43c-.11.74-1.06 2.33-1.8 2.33h-4.23l-.11-.11h-.42v-.11h.21l-.11-.1h-.1l-.21-.21v-.11l-.11-.1-.11-.11v-.21l-.1-.11v-.21l-.11-.11v-.42l3.18-16.4c.74.32 1.05.11 1.48.11h3.28c.74 0 2.22 1.69 2.11 2.43zm15.34-22.33L82.73 103h15.45l1.05-6.77h-7.62l3.07-18.41h7.62l1.06-5.72h-7.62l3.39-16.82h7.72l1.06-6.67zm33.96-.1h-15.55v.1L101.67 103h6.87l4.66-24.66h4.87c.63.64.74 1.7.84 2.23.11.84.22 1.8.22 2.64-.11.85-3.71 19.79-3.71 19.79h6.88s3.81-20.63 3.81-20.95 0-1.38-.42-2.01c-.22-.43-.64-1.27-1.17-1.59-.95-.63-2.01-1.06-2.01-1.06h-.53c2.01-.74 5.61-2.01 6.03-4.12l3.71-19.37c.53-2.96-1.38-5.39-4.24-5.39m-6.56 22.32c-.1.74-1.9 2.33-2.54 2.33h-2.96c-.63 0-1.06-.42-1.06-.95v-.32l3.18-16.4.32-.32h.1l.11-.1.1-.11h.11l.1-.11h.11l.11-.1h.1l-.42.32h3.39c.74 0 2.32 1.69 2.11 2.43zm27.62-22.22L138.17 103H146l6.35-31.53 2.54 31.53h6.88l10.37-54.39h-7.83l-5.4 28.46-3.49-28.46zm27.19 0L165.36 103h6.88l10.37-54.39zm10.48 0L175.84 103h7.94l6.34-31.53 2.54 31.53h6.88l10.26-54.39h-7.93l-5.29 28.46-3.49-28.46zm26.56 0-1.27 6.77h4.23L207.27 103h7.83l8.57-47.62h4.12l1.06-6.77zm18.83 0L220.91 103h15.45l1.06-6.77h-7.62l3.18-18.41h7.62l1.05-5.72h-7.61l3.28-16.82h7.61l1.06-6.77H231.6zm17.35 0L238.58 103h7.94l6.35-31.53 2.54 31.53h6.88l10.37-54.39h-7.94l-5.29 28.46-3.6-28.46zm42.75 0h-15.45L265.88 103h15.66c2.86 0 5.61-2.22 6.14-5.08l8.25-43.91c.53-2.96-1.37-5.4-4.23-5.4m-3.38 9.84-6.78 35.66c-.31 2.01-2.32 3.7-4.33 3.7h-3.18l8.04-42.96h3.18c2.01 0 3.38 1.59 3.07 3.6m28.99-9.84h-11.75c-2.96 0-5.71 2.44-6.24 5.4l-7.62 43.91c-.53 2.86 1.38 5.08 4.13 5.08h11.32c2.86 0 5.61-2.22 6.14-5.08l8.25-43.91c.53-2.96-1.38-5.4-4.23-5.4m-4.55 9.84-6.35 35.66c-.32 2.01-2.22 3.7-4.23 3.7s-2.86-1.69-2.54-3.7l6.35-35.55.1-.21.11-.22.1-.21.11-.21.1-.21.11-.21.11-.21.1-.22.11-.21.1-.21.22-.42.1-.11.11-.21.1-.21.21-.11.22-.21.21-.1.21-.11.11-.11.21-.1.21-.11.21-.1.11-.11.21-.1-.53.63h.21l.21-.11h.43c2.01 0 3.38 1.59 2.96 3.6" class="cls-7"/><path d="M33.95 25.12c0 .95-2.65 13.86-2.65 13.86-.53 2.86-3.17 5.08-6.03 5.08H15.01c-2.86 0-4.76-2.22-4.23-5.08l2.32-13.75h7.2l-1.8 9.94c-.32 2.01 1.06 3.6 3.07 3.6s3.38-1.59 3.7-3.6c0 0 1.17-6.03 1.06-7.93.32-2.01-9.31-15.34-9.84-18.2-.42-.32-.63-2.12-.53-3.39v-.21l.11-.11v-.21l.1-.21v-.32l.11-.1v-.11l.1-.42.11-.32.11-.42.1-.42.11-.43.1-.42v-.32l.11-.42.1-.53.16-.7h7.26c-.27 1.35-1.07 5.29-1.07 5.99.11.85.32 2.22.74 2.43.85.53 9.42 14.61 9.42 15.66 0 0 .32.11.32 1.06M38.61-.02 37.02 8.4h-7.2l1.51-8.42zm25.08 0-7.2 39c-.53 2.86-3.28 5.08-6.14 5.08H40.09c-2.86 0-4.77-2.22-4.24-5.08l6.78-39h6.85l-6.64 37.63c-.11.63.31 1.27 1.05 1.27h5.08c.64 0 1.38-.53 1.48-1.27L57.26-.02zm17.04 0L78.18 12c-.11.74-1.06 2.33-1.8 2.33h-4.23l-.11-.11h-.42v-.1h.21l-.11-.11h-.1l-.21-.21v-.11l-.11-.1-.11-.11v-.21l-.1-.1v-.22l-.11-.1v-.43L73.39-.02H67l-8.4 44.08h6.99l4.76-24.65h8.67c2.86 0 5.51-2.22 6.03-5.08L87.8-.02zm13.95 18.9-3.07 18.41h7.62l-1.05 6.77H82.73L91.47-.02h6.93l-2.66 13.18h7.62l-1.06 5.72zm28.8-18.9-2.56 11.92c-.1.74-1.9 2.32-2.54 2.32h-2.96c-.63 0-1.06-.42-1.06-.95v-.32l2.51-12.97h-6.88l-8.32 44.08h6.87l4.66-24.65h4.87c.63.63.74 1.69.84 2.22.11.85.22 1.8.22 2.64-.11.85-3.71 19.79-3.71 19.79h6.88s3.81-20.63 3.81-20.95 0-1.37-.42-2.01c-.22-.42-.64-1.27-1.17-1.59-.95-.63-2.01-1.05-2.01-1.05h-.53c2.01-.75 5.61-2.02 6.03-4.13l2.75-14.35zm46.69 0-8.4 44.08h-6.88l-2.54-31.53L146 44.06h-7.83l8.4-44.08h10.11l2.23 18.16 3.44-18.16zm10.47 0-8.4 44.08h-6.88l8.4-44.08zm27.22 0-8.32 44.08h-6.88l-2.54-31.53-6.34 31.53h-7.94l8.4-44.08h10.11l2.23 18.16 3.37-18.16zm15.17 0-7.93 44.08h-7.83L215.1-.02zm9.95 18.9-3.18 18.41h7.62l-1.06 6.77h-15.45l8.66-44.08h7.04l-2.57 13.18h7.61l-1.05 5.72zm37.71-18.9-8.4 44.08h-6.88l-2.54-31.53-6.35 31.53h-7.94l8.4-44.08h10.15l2.3 18.16L262.8-.02zm17.54 0-6.69 35.19c-.31 2.01-2.32 3.71-4.33 3.71h-3.18l7.28-38.9h-7.03l-8.4 44.08h15.66c2.86 0 5.61-2.22 6.14-5.08l7.33-39zm24.45 0-6.27 35.19c-.32 2.01-2.22 3.71-4.23 3.71s-2.86-1.7-2.54-3.71l6.29-35.19h-7.46l-6.77 39c-.53 2.86 1.38 5.08 4.13 5.08h11.32c2.86 0 5.61-2.22 6.14-5.08l7.33-39zM24.74 107.55c-2.96 0-5.82 2.43-6.35 5.4v.32l-.11-.11v.42l-.11.11v.42l-.11.11v.21l-.11.32-.11.32v.42l-.11.32-.11.42-.11.42-.11.53-.11.42-.21.95-.11.53-.11.42v.32l-.11.42-.11.42-.11.42-.11.42-.11.32-.11.42v.11l-.11.11v.32l-.11.21v.21l-.11.11v.21c-.11 1.27.11 3.07.53 3.39.53 2.86 10.16 16.19 9.84 18.2.11 1.9-1.06 7.94-1.06 7.94-.32 2.01-1.69 3.6-3.7 3.6s-3.39-1.59-3.07-3.6l1.8-9.95h-7.2l-2.33 13.76c-.53 2.86 1.38 5.08 4.23 5.08h10.26c2.86 0 5.5-2.22 6.03-5.08 0 0 2.65-12.91 2.65-13.86s-.32-1.06-.32-1.06c0-1.06-8.57-15.13-9.42-15.66-.42-.21-.63-1.59-.74-2.43 0-.85 1.16-6.45 1.16-6.45.32-2.01 2.22-3.6 4.23-3.6s2.86 1.59 2.54 3.6l-1.59 8.89h7.2l2.54-13.44c.63-2.86-1.27-5.29-4.23-5.29H24.64Zm19.68 0-8.57 49.31c-.53 2.86 1.38 5.08 4.23 5.08h10.26c2.86 0 5.61-2.22 6.14-5.08l9.1-49.31h-6.45l-8.68 47.93c-.11.74-.85 1.27-1.48 1.27h-5.08c-.74 0-1.16-.63-1.06-1.27l8.46-47.93h-6.88Zm40.11-.11H68.97v.11L58.6 161.93h6.99l4.76-24.65h8.67c2.86 0 5.51-2.22 6.03-5.08l3.71-19.36c.53-2.96-1.38-5.4-4.23-5.4m-6.35 22.44c-.11.74-1.06 2.32-1.8 2.32h-4.23l-.11-.1h-.42v-.11h.21l-.11-.11h-.1l-.21-.21v-.1l-.11-.11-.11-.1v-.22l-.1-.1v-.21l-.11-.11v-.42l3.18-16.4c.74.31 1.05.1 1.48.1h3.28c.74 0 2.22 1.7 2.11 2.44zm15.34-22.33-10.79 54.39h15.45l1.05-6.78h-7.62l3.07-18.41h7.62l1.06-5.71h-7.62l3.39-16.83h7.72l1.06-6.66zm33.96-.11h-15.55v.11l-10.26 54.38h6.87l4.66-24.65h4.87c.63.64.74 1.69.84 2.22.11.85.22 1.8.22 2.65-.11.84-3.71 19.78-3.71 19.78h6.88s3.81-20.63 3.81-20.95 0-1.37-.42-2.01c-.22-.42-.64-1.26-1.17-1.58-.95-.64-2.01-1.06-2.01-1.06h-.53c2.01-.74 5.61-2.01 6.03-4.13l3.71-19.36c.53-2.96-1.38-5.4-4.24-5.4m-6.56 22.33c-.1.74-1.9 2.33-2.54 2.33h-2.96c-.63 0-1.06-.43-1.06-.96v-.31l3.18-16.4.32-.32h.1l.21-.21h.11l.1-.11h.11l.11-.1h.1l-.42.31h3.39c.74 0 2.32 1.7 2.11 2.44zm27.62-22.22-10.37 54.39H146l6.35-31.54 2.54 31.54h6.88l10.37-54.39h-7.83l-5.4 28.46-3.49-28.46zm27.19 0-10.37 54.39h6.88l10.37-54.39zm10.48 0-10.37 54.39h7.94l6.34-31.54 2.54 31.54h6.88l10.26-54.39h-7.93l-5.29 28.46-3.49-28.46zm26.56 0-1.27 6.77h4.23l-8.46 47.62h7.83l8.57-47.62h4.12l1.06-6.77zm18.83 0-10.69 54.39h15.45l1.06-6.78h-7.62l3.18-18.41h7.62l1.05-5.71h-7.61l3.28-16.83h7.61l1.06-6.77H231.6zm17.35 0-10.37 54.39h7.94l6.35-31.54 2.54 31.54h6.88l10.37-54.39h-7.94l-5.29 28.46-3.6-28.46zm42.75 0h-15.45l-10.37 54.38h15.66c2.86 0 5.61-2.22 6.14-5.07l8.25-43.92c.53-2.96-1.37-5.39-4.23-5.39m-3.38 9.84-6.78 35.66c-.31 2.01-2.32 3.7-4.33 3.7h-3.18l8.04-42.96h3.18c2.01 0 3.38 1.59 3.07 3.6m28.99-9.84h-11.75c-2.96 0-5.71 2.43-6.24 5.39l-7.62 43.92c-.53 2.85 1.38 5.07 4.13 5.07h11.32c2.86 0 5.61-2.22 6.14-5.07l8.25-43.92c.53-2.96-1.38-5.39-4.23-5.39m-4.55 9.84-6.35 35.66c-.32 2.01-2.22 3.7-4.23 3.7s-2.86-1.69-2.54-3.7l6.35-35.55.1-.22.11-.21.1-.21.11-.21.1-.21.11-.21.11-.22.1-.21.11-.21.1-.21.22-.42.1-.11.11-.21.1-.21.21-.11.22-.21.21-.11.21-.1.11-.11.21-.1.21-.11.21-.11.11-.1.21-.11-.53.64h.21l.21-.11h.43c2.01 0 3.38 1.59 2.96 3.6M24.74 225.53c-2.96 0-5.82 2.43-6.35 5.4v.32l-.11-.11v.42l-.11.11v.42l-.11.11v.21l-.11.32-.11.32v.42l-.11.32-.11.42-.11.42-.11.53-.11.42-.21.95-.11.53-.11.42v.32l-.11.42-.11.42-.11.42-.11.42-.11.32-.11.42v.11l-.11.11v.32l-.11.21v.21l-.11.11v.21c-.11 1.27.11 3.07.53 3.39.53 2.86 10.16 16.19 9.84 18.2.11 1.9-1.06 7.94-1.06 7.94-.32 2.01-1.69 3.6-3.7 3.6s-3.39-1.59-3.07-3.6l1.8-9.95h-7.2l-2.33 13.76c-.53 2.86 1.38 5.08 4.23 5.08h10.26c2.86 0 5.5-2.22 6.03-5.08 0 0 2.65-12.91 2.65-13.86s-.32-1.06-.32-1.06c0-1.06-8.57-15.13-9.42-15.66-.42-.21-.63-1.59-.74-2.43 0-.85 1.16-6.45 1.16-6.45.32-2.01 2.22-3.6 4.23-3.6s2.86 1.59 2.54 3.6l-1.59 8.89h7.2l2.54-13.44c.63-2.86-1.27-5.29-4.23-5.29H24.64Zm19.68 0-8.57 49.31c-.53 2.86 1.38 5.08 4.23 5.08h10.26c2.86 0 5.61-2.22 6.14-5.08l9.1-49.31h-6.45l-8.68 47.93c-.11.74-.85 1.27-1.48 1.27h-5.08c-.74 0-1.16-.63-1.06-1.27l8.46-47.93h-6.88Zm40.11-.11H68.97v.11L58.6 279.92h6.99l4.76-24.66h8.67c2.86 0 5.51-2.22 6.03-5.08l3.71-19.36c.53-2.96-1.38-5.4-4.23-5.4m-6.35 22.44c-.11.74-1.06 2.32-1.8 2.32h-4.23l-.11-.1h-.42v-.11h.21l-.11-.11h-.1l-.21-.21v-.1l-.11-.11-.11-.1v-.22l-.1-.1v-.21l-.11-.11v-.42l3.18-16.4c.74.31 1.05.1 1.48.1h3.28c.74 0 2.22 1.7 2.11 2.44zm15.34-22.33-10.79 54.39h15.45l1.05-6.78h-7.62l3.07-18.41h7.62l1.06-5.71h-7.62l3.39-16.82h7.72l1.06-6.67zm33.96-.11h-15.55v.11l-10.26 54.39h6.87l4.66-24.66h4.87c.63.64.74 1.69.84 2.22.11.85.22 1.8.22 2.65-.11.85-3.71 19.79-3.71 19.79h6.88s3.81-20.64 3.81-20.96 0-1.37-.42-2.01c-.22-.42-.64-1.26-1.17-1.58-.95-.64-2.01-1.06-2.01-1.06h-.53c2.01-.74 5.61-2.01 6.03-4.13l3.71-19.36c.53-2.96-1.38-5.4-4.24-5.4m-6.56 22.33c-.1.74-1.9 2.33-2.54 2.33h-2.96c-.63 0-1.06-.43-1.06-.96v-.31l3.18-16.4.32-.32h.1l.11-.11.1-.1h.11l.1-.11h.11l.11-.1h.1l-.42.31h3.39c.74 0 2.32 1.7 2.11 2.44zm27.62-22.22-10.37 54.39H146l6.35-31.54 2.54 31.54h6.88l10.37-54.39h-7.83l-5.4 28.46-3.49-28.46zm27.19 0-10.37 54.39h6.88l10.37-54.39zm10.48 0-10.37 54.39h7.94l6.34-31.54 2.54 31.54h6.88l10.26-54.39h-7.93l-5.29 28.46-3.49-28.46zm26.56 0-1.27 6.77h4.23l-8.46 47.62h7.83l8.57-47.62h4.12l1.06-6.77zm18.83 0-10.69 54.39h15.45l1.06-6.78h-7.62l3.18-18.41h7.62l1.05-5.71h-7.61l3.28-16.82h7.61l1.06-6.78H231.6zm17.35 0-10.37 54.39h7.94l6.35-31.54 2.54 31.54h6.88l10.37-54.39h-7.94l-5.29 28.46-3.6-28.46zm42.75 0h-15.45l-10.37 54.39h15.66c2.86 0 5.61-2.23 6.14-5.08l8.25-43.92c.53-2.96-1.37-5.39-4.23-5.39m-3.38 9.84-6.78 35.66c-.31 2.01-2.32 3.7-4.33 3.7h-3.18l8.04-42.96h3.18c2.01 0 3.38 1.59 3.07 3.6m28.99-9.84h-11.75c-2.96 0-5.71 2.43-6.24 5.39l-7.62 43.92c-.53 2.85 1.38 5.08 4.13 5.08h11.32c2.86 0 5.61-2.23 6.14-5.08l8.25-43.92c.53-2.96-1.38-5.39-4.23-5.39m-4.55 9.84-6.35 35.66c-.32 2.01-2.22 3.7-4.23 3.7s-2.86-1.69-2.54-3.7l6.35-35.55.1-.22.11-.21.1-.21.11-.21.1-.21.11-.21.11-.22.1-.21.11-.21.1-.21.11-.21.11-.21.1-.11.11-.21.1-.21.21-.11.22-.21.21-.11.21-.1.11-.11.21-.1.42-.22.11-.1.21-.11-.53.64h.21l.21-.11h.43c2.01 0 3.38 1.59 2.96 3.6M24.74 166.59c-2.96 0-5.82 2.43-6.35 5.4v.32l-.11-.11v.42l-.11.11v.42l-.11.11v.21l-.11.32-.11.32v.42l-.11.32-.11.42-.11.42-.11.53-.11.42-.21.95-.11.53-.11.42v.32l-.11.42-.11.42-.11.42-.11.42-.11.32-.11.42v.11l-.11.11v.32l-.11.21v.21l-.11.11v.21c-.11 1.27.11 3.07.53 3.39.53 2.86 10.16 16.19 9.84 18.2.11 1.9-1.06 7.94-1.06 7.94-.32 2.01-1.69 3.6-3.7 3.6s-3.39-1.59-3.07-3.6l1.8-9.95h-7.2l-2.33 13.76c-.53 2.86 1.38 5.08 4.23 5.08h10.26c2.86 0 5.5-2.22 6.03-5.08 0 0 2.65-12.91 2.65-13.86s-.32-1.06-.32-1.06c0-1.06-8.57-15.13-9.42-15.66-.42-.21-.63-1.59-.74-2.43 0-.85 1.16-6.45 1.16-6.45.32-2.01 2.22-3.6 4.23-3.6s2.86 1.59 2.54 3.6l-1.59 8.89h7.2l2.54-13.44c.63-2.86-1.27-5.29-4.23-5.29H24.64Zm19.68 0-8.57 49.31c-.53 2.86 1.38 5.08 4.23 5.08h10.26c2.86 0 5.61-2.22 6.14-5.08l9.1-49.31h-6.45l-8.68 47.93c-.11.74-.85 1.27-1.48 1.27h-5.08c-.74 0-1.16-.63-1.06-1.27l8.46-47.93h-6.88Zm40.11-.1H68.97v.1L58.6 220.98h6.99l4.76-24.65h8.67c2.86 0 5.51-2.23 6.03-5.08l3.71-19.37c.53-2.96-1.38-5.39-4.23-5.39m-6.35 22.43c-.11.74-1.06 2.33-1.8 2.33h-4.23l-.11-.11h-.42v-.11h.21l-.11-.1h-.1l-.21-.21v-.11l-.11-.1-.11-.11v-.21l-.1-.11v-.21l-.11-.11v-.42l3.18-16.4c.74.32 1.05.11 1.48.11h3.28c.74 0 2.22 1.69 2.11 2.43zm15.34-22.33-10.79 54.39h15.45l1.05-6.77h-7.62l3.07-18.41h7.62l1.06-5.72h-7.62l3.39-16.82h7.72l1.06-6.67zm33.96-.1h-15.55v.1l-10.26 54.39h6.87l4.66-24.65h4.87c.63.63.74 1.69.84 2.22.11.84.22 1.8.22 2.64-.11.85-3.71 19.79-3.71 19.79h6.88s3.81-20.63 3.81-20.95 0-1.38-.42-2.01c-.22-.42-.64-1.27-1.17-1.59-.95-.63-2.01-1.06-2.01-1.06h-.53c2.01-.74 5.61-2.01 6.03-4.12l3.71-19.37c.53-2.96-1.38-5.39-4.24-5.39m-6.56 22.32c-.1.74-1.9 2.33-2.54 2.33h-2.96c-.63 0-1.06-.42-1.06-.95v-.32l3.18-16.4.32-.32h.1l.11-.1.1-.11h.11l.1-.11h.11l.11-.1h.1l-.42.32h3.39c.74 0 2.32 1.69 2.11 2.43zm27.62-22.22-10.37 54.39H146l6.35-31.53 2.54 31.53h6.88l10.37-54.39h-7.83l-5.4 28.47-3.49-28.47zm27.19 0-10.37 54.39h6.88l10.37-54.39zm10.48 0-10.37 54.39h7.94l6.34-31.53 2.54 31.53h6.88l10.26-54.39h-7.93l-5.29 28.47-3.49-28.47zm26.56 0-1.27 6.77h4.23l-8.46 47.62h7.83l8.57-47.62h4.12l1.06-6.77zm18.83 0-10.69 54.39h15.45l1.06-6.77h-7.62l3.18-18.41h7.62l1.05-5.72h-7.61l3.28-16.82h7.61l1.06-6.77H231.6zm17.35 0-10.37 54.39h7.94l6.35-31.53 2.54 31.53h6.88l10.37-54.39h-7.94l-5.29 28.47-3.6-28.47zm42.75 0h-15.45l-10.37 54.39h15.66c2.86 0 5.61-2.22 6.14-5.08l8.25-43.91c.53-2.96-1.37-5.4-4.23-5.4m-3.38 9.84-6.78 35.66c-.31 2.01-2.32 3.7-4.33 3.7h-3.18l8.04-42.96h3.18c2.01 0 3.38 1.59 3.07 3.6m28.99-9.84h-11.75c-2.96 0-5.71 2.44-6.24 5.4l-7.62 43.91c-.53 2.86 1.38 5.08 4.13 5.08h11.32c2.86 0 5.61-2.22 6.14-5.08l8.25-43.91c.53-2.96-1.38-5.4-4.23-5.4m-4.55 9.84-6.35 35.66c-.32 2.01-2.22 3.7-4.23 3.7s-2.86-1.69-2.54-3.7l6.35-35.55.1-.21.11-.21.1-.22.11-.21.1-.21.11-.21.11-.21.1-.21.11-.22.1-.21.11-.21.11-.21.1-.11.11-.21.1-.21.21-.11.22-.21.21-.1.21-.11.11-.11.21-.1.21-.11.21-.1.11-.11.21-.1-.53.63h.21l.21-.11h.43c2.01 0 3.38 1.59 2.96 3.6M39.56 289.76l-2.54 13.43h-7.2l1.59-8.88c.32-2.01-.53-3.6-2.54-3.6s-3.92 1.59-4.23 3.6c0 0-1.17 5.6-1.17 6.45.11.85.32 2.22.74 2.43.85.53 9.42 14.61 9.42 15.66 0 0 .32.11.32 1.06 0 .02 0 .04-.01.07h-8.28c-2.17-4.4-8.74-13.81-9.17-16.15-.42-.32-.63-2.12-.53-3.39v-.21l.11-.1v-.22l.1-.21v-.31l.11-.11v-.11l.1-.42.11-.32.11-.42.1-.42.11-.43.1-.42v-.32l.11-.42.1-.53.22-.95.1-.42.11-.53.1-.43.11-.42.11-.32v-.42l.1-.32.11-.32v-.21l.1-.1v-.43l.11-.1v-.43l.1.11v-.32c.53-2.96 3.39-5.39 6.35-5.39h10.58c2.97 0 4.87 2.43 4.24 5.29m4.86-5.29h6.88l-6.27 35.51h-6.78zm21.17 0-6.55 35.51H52.7l6.43-35.51zm18.94-.11H68.97v.11l-6.77 35.51h7.03l1.12-5.78h8.67c2.86 0 5.51-2.22 6.03-5.08l3.71-19.36c.53-2.97-1.38-5.4-4.23-5.4m-6.35 22.43c-.11.74-1.06 2.33-1.8 2.33h-4.23l-.11-.11h-.42v-.1h.21l-.11-.11h-.1l-.21-.21v-.11l-.11-.1-.11-.11v-.21l-.1-.1v-.22l-.11-.1v-.43l3.18-16.4c.74.32 1.05.11 1.48.11h3.28c.74 0 2.22 1.69 2.11 2.43zm20.95-15.66-3.39 16.83h7.62l-1.06 5.71h-7.62l-1.05 6.31h-7.16l7.05-35.51h14.39l-1.06 6.66zm28.35-6.77h-15.55v.11l-6.7 35.51h6.88l1.09-5.78h4.87c.63.63.74 1.69.84 2.22.11.85.22 1.8.22 2.65-.01.09-.07.41-.16.91h6.78c.22-1.23.36-2.02.36-2.08 0-.32 0-1.37-.42-2.01-.22-.42-.64-1.27-1.17-1.58-.95-.64-2.01-1.06-2.01-1.06h-.53c2.01-.74 5.61-2.01 6.03-4.13l3.71-19.36c.53-2.97-1.38-5.4-4.24-5.4m-6.56 22.33c-.1.74-1.9 2.32-2.54 2.32h-2.96c-.63 0-1.06-.42-1.06-.95v-.32l3.18-16.4.32-.31h.1l.11-.11.1-.11h.11l.1-.1h.11l.11-.11h.1l-.42.32h3.39c.74 0 2.32 1.69 2.11 2.43zm51.22-22.22-6.77 35.51h-12l-1.02-12.66-2.55 12.66h-8.03l6.77-35.51h6.88l3.49 28.46 5.4-28.46zm10.47 0-6.77 35.51h-6.88l6.77-35.51zm27.19 0-6.7 35.51h-11.96l-1.02-12.66-2.55 12.66h-8.13l6.77-35.51h6.88l3.49 28.46 5.29-28.46zm19.05 0-1.06 6.77h-4.12l-5.17 28.74h-7.88l5.11-28.74h-4.23l1.27-6.77zm8.47 6.66-3.28 16.83h7.61l-1.05 5.71h-7.62l-1.09 6.31h-7.27l6.98-35.51v-.11h14.39l-1.06 6.77zm35.34-6.66-6.77 35.51h-12l-1.02-12.66-2.55 12.66h-8.14l6.77-35.51h6.88l3.6 28.46 5.29-28.46zm19.04 0h-15.45l-6.77 35.51h7.11l5.48-29.27h3.18c2.01 0 3.38 1.59 3.07 3.6l-4.88 25.67h6.83l5.66-30.12c.53-2.96-1.37-5.39-4.23-5.39m25.61 0h-11.75c-2.96 0-5.71 2.43-6.24 5.39l-5.23 30.12h7.33l4.57-25.57.1-.21.11-.21.1-.21.11-.21.1-.22.11-.21.11-.21.1-.21.11-.21.1-.21.11-.22.11-.21.1-.1.11-.21.1-.22.21-.1.22-.21.42-.22.11-.1.21-.11.21-.1.21-.11.11-.1.21-.11-.53.63h.21l.21-.1h.43c2.01 0 3.38 1.59 2.96 3.6l-4.57 25.67h7.69l5.66-30.12c.53-2.96-1.38-5.39-4.23-5.39" class="cls-1"/><path d="M5.47 113.57h320.49v18.65H5.47z" class="cls-7"/><path d="M241.04 115.57h2.89c.67 0 1.11.56 1 1.22l-.67 3.11h-1.55l.33-2.11c.11-.44-.22-.89-.67-.89s-.89.33-1 .89l-.33 1.55c0 .11.11.56.22.56.22.11 2.22 3.44 2.22 3.66 0 .11.11.22.11.22-.11.44-.67 3.22-.67 3.22-.11.67-.78 1.22-1.44 1.22h-2.33c-.67 0-1.11-.56-1-1.22l.56-3.22h1.67l-.44 2.33c-.11.44.22.89.67.89s.89-.44 1-.89l.33-1.89c-.33-.78-2.33-3.55-2.44-4.22-.11-.11-.11-.44-.11-.78s.44-2.44.44-2.44h.11v-.33l.11-.11v-.11l.11-.11v-.11l.11-.11v-.11l.11-.11.11-.11v-.11h.11l.11-.11.11-.11.11-.11v-.11h.11l.11-.11.11-.11h.11l.11-.11h.11l.11-.11h.11l-.78 1Zm12.98 0h2l.34 4.77 2.55-4.77h2l-4.11 7.32-1 5.33h-1.78l.89-5.77zm18.32 0h2.89c.67 0 1.11.56 1 1.22l-.67 3.11h-1.55l.33-2.11c.11-.44-.22-.89-.67-.89s-.89.33-1 .89l-.33 1.55c-.11.11.11.56.22.56.22.11 2.22 3.44 2.22 3.66.11.11.11.22.11.22-.11.44-.56 3.22-.56 3.22-.11.67-.78 1.22-1.44 1.22h-2.44c-.67 0-1.11-.56-1-1.22l.56-3.22h1.67l-.44 2.33c-.11.44.22.89.67.89s.89-.44 1-.89l.33-1.89c-.33-.78-2.33-3.55-2.44-4.22-.11-.11-.11-.44-.11-.78s.44-2.44.44-2.44l.11-.11v-.22l.11-.11v-.11l.11-.11v-.11l.11-.11v-.11l.11-.11.11-.11v-.11h.11l.11-.11.11-.11.11-.11.11-.11.11-.11.11-.11h.11l.11-.11h.11l.11-.11h.11l-.78 1Zm13.1 0h3.77l-.33 1.55h-1l-2 11.1h-1.77l2-11.1h-.89zm14.76 0h3.33l-.33 1.55h-1.77l-.78 4h1.77l-.33 1.33h-1.77l-.78 4.22h1.77l-.22 1.55h-3.55zm13.88 0h2.11l.33 7.32 3.22-7.21 2-.11-2.22 12.65h-1.55l.99-6.66-2.77 6.66h-1.11l-.33-6.88-1.22 6.88h-1.89zm-301.62.44h3.34l-.23 1.56h-1.88l-.67 3.99h1.78l-.23 1.33h-1.88l-.67 4.22h1.78l-.34 1.56H9.91zm15.44 0h1.55l.89 6.66 1.22-6.66h1.89L31 128.78h-1.55l-.67-7.44-1.44 7.33h-1.89zm16.87 0h3.66l-.22 1.56h-1l-2 11.1h-1.77l1.99-11.1h-.99zm16.32 0h3.33l-.34 1.56h-1.77l-.67 3.99h1.78l-.22 1.33h-1.78l-.67 4.22h1.78l-.22 1.56h-3.55zm15.87 0h3.55c.67 0 1.11.56 1 1.33l-.89 4.44c-.11.44-1 .89-1.44 1.11h.33v.11h.44l.11.11h-.22.11v.11h.22v.11h.11c.11.11.11.56.11.67s-.89 5-.89 5h-1.89s.89-4.44.89-4.55c0-.22 0-.44-.11-.67 0-.11 0-.33-.22-.56h-1.11l-1.11 5.77h-1.67L76.94 116Zm16.1 0h3.77l-.33 1.56h-1l-2 11.1h-1.77l1.99-11.1h-.99zm18.65 0h2.11l-.67 12.77h-2.11l.34-2.89h-1.34l-1.11 2.89h-1.88zm14.98 0h1.67l-2.44 12.66h-1.67zm14.44 0h1.55l.89 6.66 1.22-6.66h1.78l-2.34 12.77h-1.66l-.56-7.33-1.44 7.33h-1.89zm18.65 0h2.11l.33 7.33 3.22-7.33h2l-2.11 12.66h-1.56l1-6.66-2.77 6.66h-1.11l-.34-6.89-1.22 6.89h-1.77zm20.31 0h3.33l-.22 1.56h-1.78l-.77 3.88h1.77l-.22 1.33h-1.78l-.77 4.22h1.77l-.33 1.56h-3.55zm16.32 0h1.55l.89 6.66 1.22-6.66h1.78l-2.33 12.66h-1.56l-.66-7.33-1.45 7.33h-1.88zm16.65 0h3.78l-.34 1.56h-1l-2 11.1h-1.77l2-11.1h-1z" class="cls-3"/><path d="M78.52 117.57q-.11 0-.22.11l-.78 3.77v.11c0 .11.11.22.22.22h.67c.22 0 .56-.33.67-.56l.67-3.11c0-.22-.33-.56-.44-.56h-.78Zm33.19 3.77-1.22 3.22h.89z" class="cls-3"/><path d="M412.79 79.23v-9.25c0-.68.37-1.31.97-1.63 3.95-2.12 19.94-9.66 47.53-9.66h49.33c1.03 0 1.86.83 1.86 1.86v12.36l-99.69 6.33Z" class="cls-4"/><path d="M560 62.21V242.7h-48.54c-4.19 0-8.31.96-12.05 2.84-13.02 6.51-27.7 10.18-43.25 10.18-53.37 0-96.65-43.23-96.75-96.58-.07-37.48 21.84-70.17 53.38-86.28 13.32-6.8 28.37-10.65 44.2-10.65z" class="cls-4"/><circle cx="456.46" cy="156.25" r="54.82" class="cls-4"/><path d="M446.11 196.22c-1.71 0-3.1-1.38-3.1-3.09v-21.88c0-.88-.72-1.6-1.61-1.6h-21.99c-1.71 0-3.1-1.38-3.1-3.09v-20.6a3.1 3.1 0 0 1 3.1-3.09h21.99c.89 0 1.61-.72 1.61-1.6v-21.88a3.1 3.1 0 0 1 3.1-3.09h20.7c1.71 0 3.1 1.38 3.1 3.09v21.88c0 .88.72 1.6 1.61 1.6h21.99c1.71 0 3.1 1.38 3.1 3.09v20.6a3.1 3.1 0 0 1-3.1 3.09h-21.99c-.89 0-1.61.72-1.61 1.6v21.88a3.1 3.1 0 0 1-3.1 3.09z" class="cls-4"/><path d="M493.5 142.12h-21.98c-.47 0-.86-.39-.86-.85v-21.89c0-2.11-1.73-3.84-3.85-3.84h-20.7a3.85 3.85 0 0 0-3.85 3.84v21.89c0 .46-.39.85-.87.85h-21.98a3.85 3.85 0 0 0-3.85 3.84v20.6a3.85 3.85 0 0 0 3.85 3.84h21.98c.48 0 .87.38.87.85v21.88c0 2.12 1.72 3.84 3.85 3.84h20.7a3.85 3.85 0 0 0 3.85-3.84v-21.88c0-.47.39-.85.86-.85h21.98c2.13 0 3.86-1.72 3.86-3.84v-20.6c0-2.12-1.73-3.84-3.86-3.84Zm2.36 24.44c0 1.29-1.05 2.35-2.36 2.35h-21.98c-1.3 0-2.36 1.05-2.36 2.34v21.88c0 1.3-1.05 2.35-2.35 2.35h-20.7c-1.3 0-2.36-1.05-2.36-2.35v-21.88c0-1.29-1.06-2.34-2.36-2.34h-21.98c-1.3 0-2.36-1.06-2.36-2.35v-20.6c0-1.3 1.06-2.35 2.36-2.35h21.98c1.3 0 2.36-1.05 2.36-2.34v-21.89c0-1.29 1.06-2.34 2.36-2.34h20.7c1.3 0 2.35 1.05 2.35 2.34v21.89c0 1.29 1.06 2.34 2.36 2.34h21.98c1.3 0 2.36 1.05 2.36 2.35zM560 156.21v17.65l-15.9 11.98a7.545 7.545 0 0 1-10.57-1.48 7.47 7.47 0 0 1-1.52-4.54c0-2.28 1.04-4.55 3-6.03l21.39-16.12c1.09-.82 2.33-1.3 3.6-1.46Zm-34.31-78.38-.35-.52h-.77l-.53.52-.82 5.55.35.52h2.07l1.1 1.56-1.19 7.94-1.57 1.56h-3.35l-1.08-1.56.62-4.12h2.12l-.46 3.09.35.52h.88l.53-.52.86-5.81-.35-.52h-2.07l-1.1-1.56 1.15-7.68 1.57-1.56h3.24l1.08 1.56-.62 4.15h-2.12l.46-3.11Zm5.74 17.13h-3.55l-1.08-1.56 2.71-18.17h2.12l-2.56 17.07.35.52h1.08l.53-.52 2.56-17.07h2.12L533 93.4zm10.5-19.72h-4.78l-2.96 19.72h2.12l1.19-7.89h2.67l1.54-1.56 1.3-8.71zm-2.19 9.24-.5.52h-1.44l1.15-7.68h1.43l.35.51zm4.64-9.24h5.23l-.31 2.13h-3.11l-.99 6.54h2.71l-.31 2.13h-2.71l-1.04 6.8H547l-.31 2.13h-5.27l2.96-19.72Zm12.37 1.56-1.08-1.56h-4.89l-2.96 19.72h2.11l1.26-8.41h.91l.04 8.41h2.05l-.04-8.59 1.39-1.37zm-3.19 7.21-.51.52h-1.55l1.08-7.21h1.55l.35.51zM518.5 96.49H560v7.33h-41.5z" class="cls-4"/><path d="m521.79 102.3.73-4.28h2.52l-.08.48h-2.05l-.23 1.33h2l-.08.48h-2l-.25 1.49h2.2l-.08.48h-2.67Zm5.66 0 .73-4.28h.46l.59 1.61c.17.47.31.87.41 1.19.07.22.14.5.22.84.04-.37.1-.74.16-1.12l.44-2.52h.45l-.73 4.28h-.46l-.87-2.47c-.15-.44-.27-.83-.36-1.16-.02.28-.06.62-.13 1.03l-.44 2.6h-.46Zm6.8 0 .65-3.8h-1.15l.08-.48h2.76l-.08.48h-1.15l-.65 3.8h-.47Zm4.51 0 .73-4.28h2.52l-.08.48h-2.05l-.23 1.33h2l-.08.48h-2l-.25 1.49h2.2l-.08.48h-2.67Zm8.1-1.56a1.4 1.4 0 0 0-.3-.36c.39-.07.68-.21.88-.43.19-.22.29-.51.29-.89 0-.24-.05-.46-.14-.64-.06-.12-.17-.22-.31-.29s-.36-.11-.68-.11h-1.45l-.73 4.28h.47l.33-1.9h.53c.18 0 .31.02.39.07q.12.06.24.27c.11.2.22.46.31.76l.25.8h.52l-.26-.81c-.08-.25-.2-.5-.34-.75Zm-.94-.8h-.62l.25-1.45h1.12c.18 0 .3.02.37.05.07.04.13.1.17.19.05.09.07.2.07.33 0 .14-.03.27-.08.39-.06.12-.13.22-.22.29-.1.08-.21.13-.34.16-.12.02-.36.04-.72.04Zm5.19 2.36.65-3.8h-1.15l.08-.48h2.76l-.08.48h-1.15l-.65 3.8h-.47Zm6.28-4.28h-.55l-1.99 4.28h.52l.56-1.23h1.42l.17 1.23h.45zm-1.26 2.61.57-1.27c.16-.34.27-.63.35-.88.02.29.05.65.1 1.07l.14 1.08zm-23.1 99.69 1.19-.08c.01.49.08.82.19.99.18.28.52.42 1.01.42.41 0 .7-.09.89-.28s.27-.42.27-.69c0-.23-.07-.43-.22-.59-.1-.12-.39-.31-.86-.57s-.81-.48-1.03-.66c-.21-.18-.39-.41-.51-.69s-.18-.61-.18-.99c0-.66.18-1.21.55-1.65s.9-.65 1.6-.65 1.26.21 1.65.65c.39.43.6 1.01.64 1.73l-1.2.07c-.03-.37-.13-.66-.31-.86s-.44-.3-.79-.3-.59.08-.74.23c-.15.16-.22.35-.22.6 0 .22.07.41.2.56s.43.35.9.62c.7.39 1.14.71 1.33.95q.42.54.42 1.38c0 .69-.21 1.29-.63 1.78s-1.01.74-1.77.74c-.52 0-.97-.11-1.35-.34s-.65-.54-.81-.95c-.16-.4-.23-.87-.22-1.39Zm6.31 2.55 1.27-7.86h4.49l-.21 1.31h-3.25l-.29 1.79h3.14l-.21 1.31h-3.14l-.38 2.14h3.53l-.21 1.31zm6.52 0 1.27-7.86h1.25l-1.06 6.55h3.08l-.21 1.31zm5.99 0 1.27-7.86h4.49l-.21 1.31h-3.25l-.29 1.79H557l-.21 1.31h-3.14l-.38 2.14h3.53l-.21 1.31zm8.15-7.04v6.86c-.22-.13-.41-.31-.58-.55-.42-.57-.62-1.42-.62-2.52 0-.89.13-1.71.41-2.45.2-.54.46-.98.79-1.34Z" class="cls-4"/><path d="M199.35 179.36c-3.51 0-6.99.71-10.22 2.09-9.6 4.1-15.81 13.57-15.77 24.02 6.68.05 13.07 2.49 17.83 6.82 5.33 4.84 8.11 11.59 7.62 18.49l.59.58c10.53-.03 20-6.42 23.97-16.18a26.02 26.02 0 0 0-5.83-28.35 25.96 25.96 0 0 0-18.19-7.47" style="fill:#ec1d23"/><path d="M147.61 153.54c-3.51 0-6.99.71-10.22 2.09-9.6 4.1-15.81 13.57-15.77 24.02 6.68.05 13.07 2.49 17.83 6.82 5.33 4.84 8.11 11.59 7.62 18.49l.59.58c10.53-.03 20-6.42 23.97-16.18a26.02 26.02 0 0 0-5.83-28.35 25.9 25.9 0 0 0-18.19-7.46Z" style="fill:#43b9e9"/><ellipse cx="114.73" cy="212.95" rx="29.71" ry="14.92" style="fill:#7bc049"/><ellipse cx="166.46" cy="238.96" rx="29.71" ry="14.92" style="fill:#eee816"/></svg>