<svg xmlns="http://www.w3.org/2000/svg" id="Layer_1" data-name="Layer 1" viewBox="0 0 560 320"><defs><style>.cls-4,.cls-5,.cls-6,.cls-7{fill-rule:evenodd}.cls-4,.cls-9{fill:#fff}.cls-10{fill:#bca3ce;stroke:#553f98;stroke-miterlimit:10;stroke-width:.5px}.cls-11,.cls-5{fill:#372869}.cls-7{fill:#ed1c24}</style></defs><path d="M.95.03h559.24v320H.95z" class="cls-11"/><path d="M405.33-.07c-3.45 16.81-8.27 33.52-14.2 49.97-.77 2.14-1.56 4.27-2.37 6.4-3.15 8.31-6.6 16.53-10.28 24.65a462 462 0 0 1-18.36 36.11c-.66 1.19-1.34 2.38-2.03 3.56-.5.88-1 1.74-1.5 2.61-10.64 18.29-22.38 35.76-34.79 52.08-48.21 64.41-136.13 76.41-201.3 120.77-3.92 2.65-7.76 5.44-11.5 8.36a168 168 0 0 0-8.87 7.44c-2.85 2.53-5.66 5.19-8.43 7.96H-.19V-.07h405.51Z" style="fill:#553f98"/><path d="M185.96 55.73c-8.54 0-15.46 6.93-15.46 15.47s6.92 15.47 15.46 15.47 15.47-6.93 15.47-15.47-6.92-15.47-15.47-15.47m-5.5 21.77h-5.09v-1.79h1.64V66.3h-1.62v-1.85h3.46v11.23h1.61v1.81Zm16.11-9.63h-1.64v-1.63h-10.34v3.92h11.04l.94.94v5.18l-1.17 1.17h-11.3l-1.17-1.17V65.6l1.09-1.08h11.57l1 1v2.36Z" class="cls-9"/><path d="M194.68 75.89V72h-10.04v3.89zm-32.48-5.6s2.59-3.93 2.59-5.42l.02-8.47h-2.62l-.02 9.16-1.47 2.18-1.5-2.24.02-9.09h-2.65l-.02 8.41c0 1.56 2.77 5.45 2.77 5.45s-2.77 4.08-2.77 5.57v8.97h2.62v-9.53l1.59-2.37 1.59 2.4v9.5h2.46v-9c0-1.59-2.62-5.51-2.62-5.51Zm-12.83-11.37v-2.5c-2.19.19-6.97-.99-7.09 2.45V84.8h2.81V71.26h3.52V68.5h-3.52v-9.58h4.27Zm-17.73-2.48c-2.36.07-6.09-.72-6.25 2.6v25.78h2.76V71.28h3.49v13.54h2.76V59.2c0-1.7-1.09-2.76-2.76-2.76m-.07 12.03h-3.31V59.3h3.31zm-15.9 2.8c.99 0 2.31-1.28 2.31-2.98v-9.32c-.08-3.76-6.7-2.34-9.03-2.59v28.49h2.76V71.49h1.04l3.08 13.33h2.71l-2.87-13.54Zm-.59-2.82h-3.31V59.1h3.31zm-17.85-3.32v2.41h1.33v14.83h-3.07V54.39h3v6.94h2.64v-7.04c0-1.23-1.21-2.55-2.55-2.55-2.22 0-5.34-.49-5.6 2.58v28.02c.15 3.68 5.97 2.15 8.17 2.45V65.13zm-65.24-8.58v25.5h-3.3v-25.5h-2.85v25.46c0 1.53 1.35 2.85 2.85 2.85h3.37c1.43 0 2.82-1.17 2.82-2.82v-25.5h-2.89ZM12.14 51.8v2.35h2.53v30.69h2.53V54.07h2.09V51.8zM48.5 71.34c.98 0 2.28-1.26 2.28-2.95v-9.22c-.08-3.72-6.63-2.32-8.93-2.56v28.18h2.73V71.55h1.03l3.04 13.19h2.68l-2.84-13.4Zm-.55-2.75h-3.27v-9.25h3.27zm19.25 3.39c-.01-1.26-1.24-2.06-1.24-2.06s1.24-.86 1.24-2.06v-8.62c0-1.62-1.33-2.68-2.69-2.68h-6.25v28.17c11.9.35 8.4-.24 8.94-12.75m-2.82 9.98H61.1v-10.5h3.28zm0-13.42H61.1v-9.26h3.28zm16.96-11.92c-2.58 0-6.14-.55-6.47 2.83v22.38c.33 3.66 4.24 2.97 6.76 3 1.47 0 2.94-1.63 2.94-2.94V59.37c0-1.1-1.39-2.74-3.23-2.74Zm.11 25.12h-3.37V59.59h3.37zM283.2 72.4l-3.78 1.4c-.58.21-1.01.49-1.01 1.07v3.6c0 1.03.67.82.91.76l3.95-1.36c.55-.18.7-.22.7-.68v-4.34c0-.79-.39-.59-.77-.45m-1.3 3.54c0 .08-.07.15-.26.25l-.69.37c-.23.12-.5.12-.5-.12v-.51c0-.1.05-.17.2-.27l.9-.48c.18-.07.35.04.35.32zm1.3-3.54-3.78 1.4c-.58.21-1.01.49-1.01 1.07v3.6c0 1.03.67.82.91.76l3.95-1.36c.55-.18.7-.22.7-.68v-4.34c0-.79-.39-.59-.77-.45m-1.3 3.54c0 .08-.07.15-.26.25l-.69.37c-.23.12-.5.12-.5-.12v-.51c0-.1.05-.17.2-.27l.9-.48c.18-.07.35.04.35.32zm1.3-3.54-3.78 1.4c-.58.21-1.01.49-1.01 1.07v3.6c0 1.03.67.82.91.76l3.95-1.36c.55-.18.7-.22.7-.68v-4.34c0-.79-.39-.59-.77-.45m-1.3 3.54c0 .08-.07.15-.26.25l-.69.37c-.23.12-.5.12-.5-.12v-.51c0-.1.05-.17.2-.27l.9-.48c.18-.07.35.04.35.32zm1.3-3.54-3.78 1.4c-.58.21-1.01.49-1.01 1.07v3.6c0 1.03.67.82.91.76l3.95-1.36c.55-.18.7-.22.7-.68v-4.34c0-.79-.39-.59-.77-.45m-1.3 3.54c0 .08-.07.15-.26.25l-.69.37c-.23.12-.5.12-.5-.12v-.51c0-.1.05-.17.2-.27l.9-.48c.18-.07.35.04.35.32zm34.4-15.38c0-2.96-3.01-3.33-4.29-2.79l-4.65 1.6c-4.02 1.57-3.57 2.63-3.98 2.85-.42.22-.46.28-.62.15-.43-.43-2.23-.52-2.69-.36l-20.41 7.49c-3.15.87-3.58 2.01-4.34 2.85-.44.21-.44.18-.57.1-1.02-.59-2.27-.48-3.16-.16l-4.85 1.81c-.65.27-.83 0-.83-.67v-4.24c0-.41.34-.54.83-.72l3.46-1.29c2.74-1.21 4.6-3.44 4.6-7.19v-3.77c0-3.07-2.99-3.73-4.91-3.1l-9.3 3.36v11.78l-9.72 3.62c-.43.16-.52.46-.52.78v20.51c0 .89.27 1.09.83.88l17.42-6.46v-7.33c0-.57 1.29-1.16 1.29-.62v7.07c0 .48.26.52.52.42l5.63-2.17c.36-.2.34-.61.46-.66.27.1 1.27.02 1.27.02 1.07-.01 2.71-.86 2.71-.86.55-.18.79-.23.52.36-.25.54-.84.86-1.24 1.08-.89.4-2.95.99-2.95.99-.58.18-.62.42-.62.72v5.53c0 .49.35.55.57.46l4.71-1.65c4.41-2.17 6.92-5.32 6.92-10.28l7.86-2.9c.48-.18.62-.19.62-.72v-7.08c0-.65 1.08-.84 1.08-.31v6.92c0 .46.11.44.47.31l5.63-2.01c.36-.16.29-.83.46-.83h1.81c.36 0 9.31-3.36 9.31-3.36.46-.17.62-.32.62-.78v-4.8c0-.51-.37-.83-.37-.83s.42-.56.42-2.01zm-50.33-.84c0-.2.13-.32.53-.5l2.08-.79c.66-.25.87-.16.87.48v3.12c0 .38-.39.69-.83.84l-2 .72c-.46.16-.65.17-.65-.34zm-3.68 28.03c0 .3-.07.27-.31.36-.23.08-9.2 3.31-9.2 3.31-.39.13-.57.08-.57-.47V74.1c0-.36.08-.63.37-.73l7.21-2.51c.63-.21.74-.07.74.35v1.45c0 .38-.07.32-.46.46l-5.12 1.91c-.48.18-.41.27-.41.47v4.34c0 .52.07.64.62.41l3.25-1.19c.67-.23.83-.03.83.26v1.45c0 .33-.35.46-.62.57 0 0-3.65 1.34-3.82 1.39-.17.06-.26.07-.26.52v4.39c0 .62.17.53.62.37l6.56-2.38c.5-.18.57.03.57.57zm.05-4.71c0 .21-.1.33-.36.42l-4.93 1.76c-.6.02-.73-.86-.13-1.22l3.82-1.47s.52-.23.52-.52v-5.35c0-.63-.2-.54-.57-.41l-3.59 1.24c-.52.05-.78-.76-.18-1.11l4.93-1.81c.34-.12.52-.05.52.44s-.03 7.83-.03 8.03m11.94.12c0 .44-.06.44-.35.54l-1.63.58c-.24.07-.38.06-.38-.38v-6.52c0-.63-.44-.69-.66-.62l-4.27 1.59c-.31.12-.42.34-.42.66v7.1c0 .24 0 .3-.27.38l-1.67.55c-.21.06-.27.03-.27-.35v-9.38c0-.34.14-.41.42-.51l7.37-2.71c.35-.14 2.13-.51 2.13 1.59zm11.98-.89c0 2.25-2.81 5.64-4.34 6.32l-3.14 1.28c-.26.1-.54.07-.54-.35v-1.94l2.13-.89c3.05-1.35 3.6-3.72 3.6-5.82 0-.62-.32-.61-.97-.38l-4.84 1.66c-1.03.28-1.82-.01-1.82-1.82v-6.01c0-.83.59-1.42 1.43-1.78l7.79-3.33c.42-.19.7-.12.7.35zm4.43-4.91c0 .25-.12.39-.41.49l-1.45.49c-.3.11-.46.05-.46-.41v-9.31c0-.32.07-.34.23-.41l1.44-.54c.46-.17.65-.12.65.39zm11.54-4.32c0 .44-.06.44-.35.55l-1.63.58c-.24.07-.39.06-.39-.39v-6.51c0-.64-.43-.7-.66-.62l-3.91 1.39c-.31.12-.43.34-.43.66v7.1c0 .24 0 .3-.27.38l-1.66.55c-.22.06-.28.03-.28-.35V67c0-.34.15-.41.43-.51l7.02-2.52c.35-.13 2.13-.51 2.13 1.59zm12.13-4.3c0 .41-.16.41-.7.62l-7.13 2.48c-.73.24-2.17.18-2.17-1.66v-5.16c0-1.82 1.96-3.26 2.95-3.6l4.84-1.71c.89-.32 2.17-.1 2.17 1.32v1.78c0 1.43-1.27 2.58-2.17 2.91l-5.08 1.86c-.76.28-.48 1.81.35 1.51l6.13-2.21c.39-.15.81-.28.81.35zm-7.1-3.51 4.28-1.69c.23-.1.3-.18.3-.6 0-.65-.54-.62-.95-.49l-3.65 1.44c-.44.17-.54.47-.54.65 0 .43.15.86.56.69M283.2 72.4l-3.78 1.4c-.58.21-1.01.49-1.01 1.07v3.6c0 1.03.67.82.91.76l3.95-1.36c.55-.18.7-.22.7-.68v-4.34c0-.79-.39-.59-.77-.45m-1.3 3.54c0 .08-.07.15-.26.25l-.69.37c-.23.12-.5.12-.5-.12v-.51c0-.1.05-.17.2-.27l.9-.48c.18-.07.35.04.35.32zm1.3-3.54-3.78 1.4c-.58.21-1.01.49-1.01 1.07v3.6c0 1.03.67.82.91.76l3.95-1.36c.55-.18.7-.22.7-.68v-4.34c0-.79-.39-.59-.77-.45m-1.3 3.54c0 .08-.07.15-.26.25l-.69.37c-.23.12-.5.12-.5-.12v-.51c0-.1.05-.17.2-.27l.9-.48c.18-.07.35.04.35.32zm1.3-3.54-3.78 1.4c-.58.21-1.01.49-1.01 1.07v3.6c0 1.03.67.82.91.76l3.95-1.36c.55-.18.7-.22.7-.68v-4.34c0-.79-.39-.59-.77-.45m-1.3 3.54c0 .08-.07.15-.26.25l-.69.37c-.23.12-.5.12-.5-.12v-.51c0-.1.05-.17.2-.27l.9-.48c.18-.07.35.04.35.32z" class="cls-4"/><path d="m285.24 54.1 4.5-1.6c.45-.17.36-1.15.36-1.34 0-2.97-2.6-4.33-4.44-3.67l-4.34 1.5c-2.55.96-5.17 2.35-5.74 6.67v8.32c0 5.13 4.01 4.2 5.58 3.62 1.58-.58 6.89-2.53 7.34-2.7 1.24-.47 2.17-1.73 1.98-3.36-.13-1.01-.28-2.03-.43-3.04-.05-.3-.07-.59-.41-.47l-4.34 1.6c-.41.16-.67.22-.67.72s.04.92-.7 1.16c0 0-2.05.71-2.3.8s-.65.13-.65-.59v-7.21c0-.35.13-.5.59-.67.47-.17 2.46-.85 2.46-.85.38-.12.67-.13.67.28v.44c0 .6.23.5.54.39" class="cls-4"/><path d="M259.04 61.75v.93c-26.51 10.29-22.07 19.54-9.72 22.89v.72c-16.43-3.67-14.73-16.23 9.72-24.55Zm23.07-5.45v.85c57.6-7.03 54.6 18.19 6.82 27.68l-.56 1.14c52.48-10.11 50.2-37.61-6.26-29.67" class="cls-4"/><path d="m286.57 62.89-8.8 9.65c-.18.23-.08.31.16.19l11.4-7.13c.21-.14.25-.17.43-.12.17.05 4.26 2.98 4.26 2.98.29.19.44.11.35-.12l-2.13-4.65c-.12-.25-.16-.42-.04-.54l8.61-9.38c.22-.31.1-.47-.27-.27l-10.66 6.63c-.25.15-.39.14-.54.04l-3.95-2.67c-.42-.23-.54-.14-.43.31l1.78 4.42c.12.24.05.43-.16.66Z" style="fill-rule:evenodd;stroke-miterlimit:33.89;stroke-width:.93px;stroke:#fff;fill:#553f98"/><path d="m216.3 84.96 10.48-27.22h2.55l-10.51 27.22z" class="cls-9"/><path d="M185.96 8.33c-8.54 0-15.46 6.93-15.46 15.47s6.92 15.47 15.46 15.47 15.47-6.93 15.47-15.47-6.92-15.47-15.47-15.47m-5.5 21.77h-5.09v-1.79h1.64V18.9h-1.62v-1.85h3.46v11.23h1.61v1.81Zm16.11-9.62h-1.64v-1.63h-10.34v3.92h11.04l.94.94v5.18l-1.17 1.17h-11.3l-1.17-1.17V18.21l1.09-1.08h11.57l1 1v2.36Z" class="cls-11"/><path d="M194.68 28.5v-3.89h-10.04v3.89zm-32.48-5.6s2.59-3.93 2.59-5.42l.02-8.47h-2.62l-.02 9.16-1.47 2.18-1.5-2.24.02-9.09h-2.65l-.02 8.41c0 1.56 2.77 5.45 2.77 5.45s-2.77 4.08-2.77 5.57v8.97h2.62v-9.53l1.59-2.37 1.59 2.4v9.5h2.46v-9c0-1.59-2.62-5.51-2.62-5.51Zm-12.83-11.37v-2.5c-2.19.19-6.97-.99-7.09 2.45v25.93h2.81V23.87h3.52v-2.76h-3.52v-9.58h4.27Zm-17.73-2.49c-2.36.07-6.09-.72-6.25 2.6v25.78h2.76V23.88h3.49v13.54h2.76V11.8c0-1.7-1.09-2.76-2.76-2.76m-.07 12.03h-3.31V11.9h3.31zm-15.9 2.81c.99 0 2.31-1.28 2.31-2.98v-9.32c-.08-3.76-6.7-2.34-9.03-2.59v28.49h2.76V24.1h1.04l3.08 13.33h2.71l-2.87-13.54Zm-.59-2.82h-3.31v-9.35h3.31zm-17.85-3.32v2.41h1.33v14.83h-3.07V7h3v6.94h2.64V6.9c0-1.23-1.21-2.55-2.55-2.55-2.22 0-5.34-.49-5.6 2.58v28.02c.15 3.68 5.97 2.15 8.17 2.45V17.74zM31.99 9.15v25.5h-3.3V9.15h-2.85v25.46c0 1.53 1.35 2.85 2.85 2.85h3.37c1.43 0 2.82-1.17 2.82-2.82V9.15zM12.14 4.41v2.35h2.53v30.68h2.53V6.67h2.09V4.41zM48.5 23.95c.98 0 2.28-1.26 2.28-2.95v-9.22c-.08-3.72-6.63-2.32-8.93-2.56V37.4h2.73V24.16h1.03l3.04 13.19h2.68l-2.84-13.4Zm-.55-2.76h-3.27v-9.25h3.27zm19.25 3.39c-.01-1.26-1.24-2.06-1.24-2.06s1.24-.86 1.24-2.06v-8.62c0-1.62-1.33-2.68-2.69-2.68h-6.25v28.17c11.9.35 8.4-.24 8.94-12.75m-2.82 9.99H61.1v-10.5h3.28zm0-13.42H61.1v-9.26h3.28zM81.34 9.23c-2.58 0-6.14-.55-6.47 2.83v22.38c.33 3.66 4.24 2.97 6.76 3 1.47 0 2.94-1.63 2.94-2.94V11.97c0-1.1-1.39-2.74-3.23-2.74m.11 25.11h-3.37V12.19h3.37z" class="cls-5"/><path d="m216.3 37.57 10.48-27.22h2.55l-10.51 27.22zm-30.34 112.35c-8.54 0-15.46 6.93-15.46 15.47s6.92 15.47 15.46 15.47 15.47-6.93 15.47-15.47-6.92-15.47-15.47-15.47m-5.5 21.78h-5.09v-1.79h1.64v-9.41h-1.62v-1.85h3.46v11.23h1.61v1.81Zm16.11-9.63h-1.64v-1.63h-10.34v3.92h11.04l.94.94v5.18l-1.17 1.17h-11.3l-1.17-1.17V159.8l1.09-1.08h11.57l1 1v2.36Z" class="cls-11"/><path d="M194.68 170.09v-3.89h-10.04v3.89zm-32.48-5.6s2.59-3.93 2.59-5.42l.02-8.47h-2.62l-.02 9.16-1.47 2.18-1.5-2.24.02-9.09h-2.65l-.02 8.41c0 1.56 2.77 5.45 2.77 5.45s-2.77 4.08-2.77 5.57v8.97h2.62v-9.53l1.59-2.37 1.59 2.4v9.5h2.46v-9c0-1.59-2.62-5.51-2.62-5.51Zm-12.83-11.37v-2.5c-2.19.19-6.97-.99-7.09 2.45V179h2.81v-13.54h3.52v-2.76h-3.52v-9.58h4.27Zm-17.73-2.48c-2.36.07-6.09-.72-6.25 2.6v25.78h2.76v-13.54h3.49v13.54h2.76V153.4c0-1.7-1.09-2.76-2.76-2.76m-.07 12.03h-3.31v-9.17h3.31zm-15.9 2.8c.99 0 2.31-1.28 2.31-2.98v-9.32c-.08-3.76-6.7-2.34-9.03-2.59v28.49h2.76v-13.38h1.04l3.08 13.33h2.71l-2.87-13.54Zm-.59-2.82h-3.31v-9.35h3.31zm-17.85-3.32v2.41h1.33v14.83h-3.07v-27.98h3v6.94h2.64v-7.04c0-1.23-1.21-2.55-2.55-2.55-2.22 0-5.34-.49-5.6 2.58v28.02c.15 3.68 5.97 2.15 8.17 2.45v-19.66zm-65.24-8.58v25.5h-3.3v-25.5h-2.85v25.46c0 1.53 1.35 2.85 2.85 2.85h3.37c1.43 0 2.82-1.17 2.82-2.82v-25.5h-2.89ZM12.14 146v2.35h2.53v30.69h2.53v-30.78h2.09V146zm36.36 19.54c.98 0 2.28-1.26 2.28-2.95v-9.22c-.08-3.72-6.63-2.32-8.93-2.56v28.18h2.73v-13.24h1.03l3.04 13.19h2.68l-2.84-13.4Zm-.55-2.76h-3.27v-9.25h3.27zm19.25 3.39c-.01-1.26-1.24-2.06-1.24-2.06s1.24-.86 1.24-2.06v-8.62c0-1.62-1.33-2.68-2.69-2.68h-6.25v28.17c11.9.35 8.4-.24 8.94-12.75m-2.82 9.99H61.1v-10.5h3.28zm0-13.42H61.1v-9.26h3.28zm16.96-11.92c-2.58 0-6.14-.55-6.47 2.83v22.38c.33 3.66 4.24 2.97 6.76 3 1.47 0 2.94-1.63 2.94-2.94v-22.52c0-1.1-1.39-2.74-3.23-2.74Zm.11 25.11h-3.37v-22.15h3.37z" class="cls-5"/><path d="m216.3 179.16 10.48-27.22h2.55l-10.51 27.22zm-30.34-76.63c-8.54 0-15.46 6.93-15.46 15.47s6.92 15.47 15.46 15.47 15.47-6.93 15.47-15.47-6.92-15.47-15.47-15.47m-5.5 21.77h-5.09v-1.79h1.64v-9.41h-1.62v-1.85h3.46v11.23h1.61v1.81Zm16.11-9.63h-1.64v-1.63h-10.34v3.92h11.04l.94.94v5.18l-1.17 1.17h-11.3l-1.17-1.17V112.4l1.09-1.08h11.57l1 1v2.36Z" class="cls-11"/><path d="M194.68 122.69v-3.89h-10.04v3.89zm-32.48-5.59s2.59-3.93 2.59-5.42l.02-8.47h-2.62l-.02 9.16-1.47 2.18-1.5-2.24.02-9.09h-2.65l-.02 8.41c0 1.56 2.77 5.45 2.77 5.45s-2.77 4.08-2.77 5.57v8.97h2.62v-9.53l1.59-2.37 1.59 2.4v9.5h2.46v-9c0-1.59-2.62-5.51-2.62-5.51Zm-12.83-11.37v-2.5c-2.19.19-6.97-.99-7.09 2.45v25.93h2.81v-13.54h3.52v-2.76h-3.52v-9.58h4.27Zm-17.73-2.49c-2.36.07-6.09-.72-6.25 2.6v25.78h2.76v-13.54h3.49v13.54h2.76V106c0-1.7-1.09-2.76-2.76-2.76m-.07 12.03h-3.31v-9.17h3.31zm-15.9 2.81c.99 0 2.31-1.28 2.31-2.98v-9.32c-.08-3.76-6.7-2.34-9.03-2.59v28.49h2.76V118.3h1.04l3.08 13.33h2.71l-2.87-13.54Zm-.59-2.82h-3.31v-9.35h3.31zm-17.85-3.32v2.41h1.33v14.83h-3.07V101.2h3v6.94h2.64v-7.04c0-1.23-1.21-2.55-2.55-2.55-2.22 0-5.34-.49-5.6 2.58v28.02c.15 3.68 5.97 2.15 8.17 2.45v-19.66zm-65.24-8.59v25.5h-3.3v-25.5h-2.85v25.46c0 1.53 1.35 2.85 2.85 2.85h3.37c1.43 0 2.82-1.17 2.82-2.82v-25.5h-2.89ZM12.14 98.6v2.36h2.53v30.68h2.53v-30.77h2.09V98.6zm36.36 19.55c.98 0 2.28-1.26 2.28-2.95v-9.22c-.08-3.72-6.63-2.32-8.93-2.56v28.18h2.73v-13.24h1.03l3.04 13.19h2.68l-2.84-13.4Zm-.55-2.76h-3.27v-9.25h3.27zm19.25 3.39c-.01-1.26-1.24-2.06-1.24-2.06s1.24-.86 1.24-2.06v-8.62c0-1.62-1.33-2.68-2.69-2.68h-6.25v28.17c11.9.35 8.4-.24 8.94-12.75m-2.82 9.99H61.1v-10.5h3.28zm0-13.42H61.1v-9.26h3.28zm16.96-11.92c-2.58 0-6.14-.55-6.47 2.83v22.38c.33 3.66 4.24 2.97 6.76 3 1.47 0 2.94-1.63 2.94-2.94v-22.52c0-1.1-1.39-2.74-3.23-2.74Zm.11 25.11h-3.37v-22.15h3.37zm184.52-22.01c0-.21.13-.32.53-.5l2.08-.79c.66-.25.87-.16.87.48v3.13c0 .38-.39.69-.83.84l-2 .71c-.46.16-.65.17-.65-.34zm-3.63 23.32c0 .2-.11.33-.36.41l-4.94 1.76c-.59.03-.73-.85-.13-1.22l3.82-1.47s.52-.23.52-.52v-5.35c0-.63-.19-.54-.57-.41l-3.59 1.24c-.52.05-.77-.76-.18-1.11l4.94-1.81c.34-.12.52-.05.52.44s-.03 7.83-.03 8.04m19.56-7.1c0 .08-.07.15-.26.25l-.69.37c-.23.12-.49.12-.49-.12v-.51c0-.1.05-.17.19-.27l.9-.48c.18-.07.35.05.35.33v.44Zm1.3-3.54-3.78 1.39c-.58.22-1.01.5-1.01 1.07v3.6c0 1.03.67.83.91.76l3.95-1.36c.55-.18.7-.22.7-.67v-4.34c0-.79-.39-.6-.77-.45m0 0-3.78 1.39c-.58.22-1.01.5-1.01 1.07v3.6c0 1.03.67.83.91.76l3.95-1.36c.55-.18.7-.22.7-.67v-4.34c0-.79-.39-.6-.77-.45m0 0-3.78 1.39c-.58.22-1.01.5-1.01 1.07v3.6c0 1.03.67.83.91.76l3.95-1.36c.55-.18.7-.22.7-.67v-4.34c0-.79-.39-.6-.77-.45m0 0-3.78 1.39c-.58.22-1.01.5-1.01 1.07v3.6c0 1.03.67.83.91.76l3.95-1.36c.55-.18.7-.22.7-.67v-4.34c0-.79-.39-.6-.77-.45m0 0-3.78 1.39c-.58.22-1.01.5-1.01 1.07v3.6c0 1.03.67.83.91.76l3.95-1.36c.55-.18.7-.22.7-.67v-4.34c0-.79-.39-.6-.77-.45m0 0-3.78 1.39c-.58.22-1.01.5-1.01 1.07v3.6c0 1.03.67.83.91.76l3.95-1.36c.55-.18.7-.22.7-.67v-4.34c0-.79-.39-.6-.77-.45m33.1-11.85c0-2.96-3.01-3.33-4.29-2.78l-4.65 1.6c-4.02 1.56-3.57 2.62-3.98 2.84-.42.22-.46.28-.62.16-.43-.44-2.23-.53-2.69-.37l-20.41 7.5c-3.15.86-3.58 2.01-4.34 2.84-.44.21-.44.19-.57.1-1.02-.58-2.27-.47-3.16-.15l-4.85 1.81c-.65.27-.83-.01-.83-.67V116c0-.42.34-.54.83-.73l3.46-1.29c2.74-1.21 4.6-3.43 4.6-7.18v-3.77c0-3.08-2.99-3.74-4.91-3.11l-9.3 3.36v11.79l-9.72 3.62c-.43.15-.52.45-.52.77v20.52c0 .89.27 1.08.83.88l17.42-6.46v-7.33c0-.58 1.29-1.17 1.29-.62v7.07c0 .48.26.52.52.41l5.63-2.17c.36-.2.34-.6.46-.65.27.1 1.27.02 1.27.02 1.07-.01 2.71-.87 2.71-.87.55-.18.79-.23.52.36-.25.55-.84.87-1.24 1.09-.89.4-2.95.98-2.95.98-.58.18-.62.42-.62.73v5.52c0 .49.35.55.57.47l4.71-1.65c4.41-2.17 6.92-5.33 6.92-10.29l7.86-2.89c.48-.19.62-.19.62-.73v-7.08c0-.64 1.08-.83 1.08-.31v6.93c0 .45.11.44.47.31l5.63-2.02c.36-.16.29-.83.46-.83h1.81c.36 0 9.31-3.35 9.31-3.35.46-.17.62-.32.62-.78v-4.81c0-.5-.37-.82-.37-.82s.42-.57.42-2.02zm-54.01 27.19c0 .31-.07.28-.31.36-.23.09-9.2 3.31-9.2 3.31-.39.14-.57.09-.57-.46v-16.85c0-.37.08-.64.37-.73l7.21-2.51c.63-.21.74-.08.74.34v1.45c0 .39-.07.32-.46.47l-5.12 1.91c-.48.18-.41.27-.41.46v4.34c0 .52.07.64.62.42l3.25-1.19c.67-.24.83-.03.83.26v1.45c0 .33-.35.46-.62.56 0 0-3.65 1.34-3.82 1.4s-.26.07-.26.52v4.39c0 .62.17.53.62.36l6.56-2.38c.5-.17.57.04.57.57zm11.99-4.58c0 .43-.06.43-.35.54l-1.63.58c-.24.07-.38.06-.38-.39v-6.51c0-.64-.44-.7-.66-.62l-4.27 1.59c-.31.11-.42.34-.42.66v7.09c0 .24 0 .3-.27.39l-1.67.54c-.21.07-.27.03-.27-.35v-9.38c0-.34.14-.41.42-.5l7.37-2.72c.35-.13 2.13-.51 2.13 1.59zm11.98-.9c0 2.25-2.81 5.64-4.34 6.32l-3.14 1.28c-.26.1-.54.08-.54-.35v-1.94l2.13-.89c3.05-1.34 3.6-3.72 3.6-5.81 0-.62-.32-.61-.97-.39l-4.84 1.67c-1.03.28-1.82-.01-1.82-1.82v-6.01c0-.84.59-1.43 1.43-1.79l7.79-3.33c.42-.18.7-.12.7.35zm4.43-4.91c0 .26-.12.4-.41.49l-1.45.5c-.3.11-.46.05-.46-.42v-9.3c0-.33.07-.35.23-.41l1.44-.55c.46-.17.65-.12.65.39zm11.54-4.31c0 .43-.06.43-.35.54l-1.63.58c-.24.07-.39.06-.39-.38v-6.52c0-.64-.43-.69-.66-.62l-3.91 1.4c-.31.12-.43.34-.43.66v7.09c0 .24 0 .3-.27.39l-1.66.54c-.22.07-.28.03-.28-.35v-9.38c0-.34.15-.41.43-.5l7.02-2.52c.35-.14 2.13-.51 2.13 1.59zm12.13-4.3c0 .4-.16.4-.7.62l-7.13 2.48c-.73.24-2.17.17-2.17-1.67v-5.16c0-1.82 1.96-3.25 2.95-3.6l4.84-1.71c.89-.32 2.17-.09 2.17 1.32v1.79c0 1.42-1.27 2.57-2.17 2.9l-5.08 1.86c-.76.28-.48 1.82.35 1.51l6.13-2.2c.39-.16.81-.29.81.34zm-7.1-3.51 4.28-1.7c.23-.09.3-.17.3-.6 0-.65-.54-.62-.95-.48l-3.65 1.43c-.44.18-.54.48-.54.65 0 .44.15.86.56.7m-24.06 7.17-3.78 1.39c-.58.22-1.01.5-1.01 1.07v3.6c0 1.03.67.83.91.76l3.95-1.36c.55-.18.7-.22.7-.67v-4.34c0-.79-.39-.6-.77-.45m0 0-3.78 1.39c-.58.22-1.01.5-1.01 1.07v3.6c0 1.03.67.83.91.76l3.95-1.36c.55-.18.7-.22.7-.67v-4.34c0-.79-.39-.6-.77-.45m0 0-3.78 1.39c-.58.22-1.01.5-1.01 1.07v3.6c0 1.03.67.83.91.76l3.95-1.36c.55-.18.7-.22.7-.67v-4.34c0-.79-.39-.6-.77-.45m0 0-3.78 1.39c-.58.22-1.01.5-1.01 1.07v3.6c0 1.03.67.83.91.76l3.95-1.36c.55-.18.7-.22.7-.67v-4.34c0-.79-.39-.6-.77-.45m0 0-3.78 1.39c-.58.22-1.01.5-1.01 1.07v3.6c0 1.03.67.83.91.76l3.95-1.36c.55-.18.7-.22.7-.67v-4.34c0-.79-.39-.6-.77-.45" class="cls-5"/><path d="m285.24 100.91 4.5-1.6c.45-.17.36-1.15.36-1.34 0-2.97-2.6-4.33-4.44-3.67l-4.34 1.5c-2.55.96-5.17 2.35-5.74 6.67v8.32c0 5.13 4.01 4.2 5.58 3.62 1.58-.58 6.89-2.53 7.34-2.7 1.24-.47 2.17-1.73 1.98-3.36-.13-1.01-.28-2.03-.43-3.04-.05-.3-.07-.59-.41-.47l-4.34 1.6c-.41.16-.67.22-.67.72s.04.92-.7 1.16c0 0-2.05.71-2.3.8s-.65.13-.65-.59v-7.21c0-.35.13-.5.59-.67.47-.17 2.46-.85 2.46-.85.38-.12.67-.13.67.28v.44c0 .6.23.5.54.39" class="cls-5"/><path d="M259.04 108.56v.93c-26.51 10.29-22.07 19.54-9.72 22.89v.72c-16.43-3.67-14.73-16.23 9.72-24.55Zm23.07-5.45v.85c57.6-7.03 54.6 18.19 6.82 27.68l-.56 1.14c52.48-10.11 50.2-37.61-6.26-29.67" class="cls-5"/><path d="m286.57 109.7-8.8 9.65c-.18.23-.08.31.16.19l11.4-7.13c.21-.14.25-.17.43-.12.17.05 4.26 2.98 4.26 2.98.29.19.44.11.35-.12l-2.13-4.65c-.12-.25-.16-.42-.04-.54l8.61-9.38c.22-.31.1-.47-.27-.27l-10.66 6.63c-.25.15-.39.14-.54.04l-3.95-2.67c-.42-.23-.54-.14-.43.31l1.78 4.42c.12.24.05.43-.16.66Zm-3.37-85.83-3.78 1.39c-.58.22-1.01.5-1.01 1.07v3.6c0 1.03.67.83.91.76l3.95-1.36c.55-.18.7-.22.7-.67v-4.34c0-.79-.39-.6-.77-.45m-1.3 3.54c0 .07-.07.14-.26.25l-.69.37c-.23.11-.5.11-.5-.12v-.51c0-.1.05-.18.2-.28l.9-.48c.18-.07.35.05.35.33zm1.3-3.54-3.78 1.39c-.58.22-1.01.5-1.01 1.07v3.6c0 1.03.67.83.91.76l3.95-1.36c.55-.18.7-.22.7-.67v-4.34c0-.79-.39-.6-.77-.45m-1.3 3.54c0 .07-.07.14-.26.25l-.69.37c-.23.11-.5.11-.5-.12v-.51c0-.1.05-.18.2-.28l.9-.48c.18-.07.35.05.35.33zm1.3-3.54-3.78 1.39c-.58.22-1.01.5-1.01 1.07v3.6c0 1.03.67.83.91.76l3.95-1.36c.55-.18.7-.22.7-.67v-4.34c0-.79-.39-.6-.77-.45m-1.3 3.54c0 .07-.07.14-.26.25l-.69.37c-.23.11-.5.11-.5-.12v-.51c0-.1.05-.18.2-.28l.9-.48c.18-.07.35.05.35.33zm1.3-3.54-3.78 1.39c-.58.22-1.01.5-1.01 1.07v3.6c0 1.03.67.83.91.76l3.95-1.36c.55-.18.7-.22.7-.67v-4.34c0-.79-.39-.6-.77-.45m-1.3 3.54c0 .07-.07.14-.26.25l-.69.37c-.23.11-.5.11-.5-.12v-.51c0-.1.05-.18.2-.28l.9-.48c.18-.07.35.05.35.33zm1.3-3.54-3.78 1.39c-.58.22-1.01.5-1.01 1.07v3.6c0 1.03.67.83.91.76l3.95-1.36c.55-.18.7-.22.7-.67v-4.34c0-.79-.39-.6-.77-.45m-1.3 3.54c0 .07-.07.14-.26.25l-.69.37c-.23.11-.5.11-.5-.12v-.51c0-.1.05-.18.2-.28l.9-.48c.18-.07.35.05.35.33zm28.99-13.49-3.65 1.43c-.44.18-.54.48-.54.65 0 .44.15.86.56.7l4.28-1.7c.23-.09.3-.17.3-.6 0-.65-.54-.62-.95-.48m0 0-3.65 1.43c-.44.18-.54.48-.54.65 0 .44.15.86.56.7l4.28-1.7c.23-.09.3-.17.3-.6 0-.65-.54-.62-.95-.48m-27.69 9.95-3.78 1.39c-.58.22-1.01.5-1.01 1.07v3.6c0 1.03.67.83.91.76l3.95-1.36c.55-.18.7-.22.7-.67v-4.34c0-.79-.39-.6-.77-.45m-1.3 3.54c0 .07-.07.14-.26.25l-.69.37c-.23.11-.5.11-.5-.12v-.51c0-.1.05-.18.2-.28l.9-.48c.18-.07.35.05.35.33zm34.4-15.39c0-2.96-3.01-3.33-4.29-2.78l-4.65 1.6c-4.02 1.56-3.57 2.62-3.98 2.84-.42.22-.46.28-.62.16-.43-.44-2.23-.53-2.69-.37l-7.38 2.71-2.62.97-2.1.77-7 2.57-1.31.48c-3.15.86-3.58 2.01-4.34 2.84-.44.21-.44.19-.57.1-1.02-.58-2.27-.47-3.16-.15l-4.85 1.81c-.65.27-.83-.01-.83-.67v-4.24c0-.42.34-.54.83-.73l3.46-1.29c2.74-1.21 4.6-3.43 4.6-7.18V7.69c0-3.08-2.99-3.74-4.91-3.11l-9.3 3.36v11.79l-9.72 3.62c-.43.15-.52.45-.52.77v20.52c0 .89.27 1.08.83.88l17.42-6.46v-7.33c0-.58 1.29-1.17 1.29-.62v7.07c0 .48.26.52.52.41l5.63-2.17c.36-.2.34-.6.46-.65.27.1 1.27.02 1.27.02 1.07-.01 2.71-.87 2.71-.87.55-.18.79-.23.52.36-.25.55-.84.87-1.24 1.09-.89.4-2.95.98-2.95.98-.58.18-.62.42-.62.73v5.52c0 .49.35.55.57.47l4.71-1.65c4.41-2.17 6.92-5.33 6.92-10.29l7.86-2.89c.48-.19.62-.19.62-.73v-7.08c0-.64 1.08-.83 1.08-.31v6.93c0 .45.11.44.47.31l5.63-2.02c.36-.16.29-.83.46-.83h1.81c.36 0 9.31-3.35 9.31-3.35.46-.17.62-.32.62-.78v-4.81c0-.5-.37-.82-.37-.82s.42-.57.42-2.02zm-50.33-.83c0-.21.13-.33.53-.51l2.08-.78c.66-.26.87-.17.87.47v3.13c0 .38-.39.69-.83.84l-2 .71c-.46.17-.65.18-.65-.34zm-3.68 28.02c0 .31-.07.28-.31.36-.23.09-9.2 3.31-9.2 3.31-.39.14-.57.09-.57-.46V25.57c0-.37.08-.64.37-.73l7.21-2.51c.63-.21.74-.08.74.34v1.45c0 .39-.07.32-.46.47l-5.12 1.91c-.48.18-.41.27-.41.46v4.34c0 .52.07.64.62.42l3.25-1.19c.67-.24.83-.03.83.26v1.45c0 .33-.35.46-.62.56 0 0-3.65 1.34-3.82 1.4s-.26.07-.26.52v4.39c0 .62.17.53.62.36l6.56-2.38c.5-.17.57.04.57.57zm.05-4.7c0 .2-.1.33-.36.41l-4.93 1.76c-.6.03-.73-.85-.13-1.21l3.82-1.48s.52-.23.52-.51v-5.35c0-.63-.2-.54-.57-.42l-3.59 1.24c-.52.05-.78-.76-.18-1.11l4.93-1.81c.34-.12.52-.05.52.44s-.03 7.84-.03 8.04m11.94.12c0 .43-.06.43-.35.54l-1.63.58c-.24.07-.38.06-.38-.39v-6.51c0-.64-.44-.7-.66-.62l-4.27 1.59c-.31.11-.42.34-.42.66v7.09c0 .24 0 .3-.27.39l-1.67.54c-.21.07-.27.03-.27-.35v-9.38c0-.34.14-.41.42-.5l7.37-2.72c.35-.13 2.13-.51 2.13 1.59zm11.98-.9c0 2.25-2.81 5.64-4.34 6.32l-3.14 1.28c-.26.1-.54.08-.54-.35v-1.94l2.13-.89c3.05-1.34 3.6-3.72 3.6-5.81 0-.62-.32-.61-.97-.39l-4.84 1.67c-1.03.28-1.82-.01-1.82-1.82v-6.01c0-.84.59-1.43 1.43-1.79l1.51-.65 6.28-2.68c.42-.18.7-.12.7.35zm4.43-4.91c0 .26-.12.4-.41.49l-1.45.5c-.3.11-.46.05-.46-.42v-9.3c0-.33.07-.35.23-.41l1.44-.55c.46-.17.65-.12.65.39zm11.54-4.31c0 .43-.06.43-.35.54l-1.63.58c-.24.07-.39.06-.39-.38v-6.52c0-.64-.43-.69-.66-.62l-3.91 1.4c-.31.12-.43.34-.43.66v7.09c0 .24 0 .3-.27.39l-1.66.54c-.22.07-.28.03-.28-.35v-9.38c0-.34.15-.41.43-.5l.37-.13 6.65-2.39c.35-.14 2.13-.51 2.13 1.59zm12.13-4.3c0 .4-.16.4-.7.62l-7.13 2.48c-.73.24-2.17.17-2.17-1.67v-5.16c0-1.82 1.96-3.25 2.95-3.6l4.84-1.71c.89-.32 2.17-.09 2.17 1.32v1.79c0 1.42-1.27 2.57-2.17 2.9l-5.08 1.86c-.76.28-.48 1.82.35 1.51l6.13-2.2c.39-.16.81-.29.81.34zm-7.1-3.51 4.28-1.7c.23-.09.3-.17.3-.6 0-.65-.54-.62-.95-.48l-3.65 1.43c-.44.18-.54.48-.54.65 0 .44.15.86.56.7m-24.06 7.17-3.78 1.39c-.58.22-1.01.5-1.01 1.07v3.6c0 1.03.67.83.91.76l3.95-1.36c.55-.18.7-.22.7-.67v-4.34c0-.79-.39-.6-.77-.45m-1.3 3.54c0 .07-.07.14-.26.25l-.69.37c-.23.11-.5.11-.5-.12v-.51c0-.1.05-.18.2-.28l.9-.48c.18-.07.35.05.35.33zm1.3-3.54-3.78 1.39c-.58.22-1.01.5-1.01 1.07v3.6c0 1.03.67.83.91.76l3.95-1.36c.55-.18.7-.22.7-.67v-4.34c0-.79-.39-.6-.77-.45m-1.3 3.54c0 .07-.07.14-.26.25l-.69.37c-.23.11-.5.11-.5-.12v-.51c0-.1.05-.18.2-.28l.9-.48c.18-.07.35.05.35.33zm1.3-3.54-3.78 1.39c-.58.22-1.01.5-1.01 1.07v3.6c0 1.03.67.83.91.76l3.95-1.36c.55-.18.7-.22.7-.67v-4.34c0-.79-.39-.6-.77-.45m-1.3 3.54c0 .07-.07.14-.26.25l-.69.37c-.23.11-.5.11-.5-.12v-.51c0-.1.05-.18.2-.28l.9-.48c.18-.07.35.05.35.33zm1.3-3.54-3.78 1.39c-.58.22-1.01.5-1.01 1.07v3.6c0 1.03.67.83.91.76l3.95-1.36c.55-.18.7-.22.7-.67v-4.34c0-.79-.39-.6-.77-.45m-1.3 3.54c0 .07-.07.14-.26.25l-.69.37c-.23.11-.5.11-.5-.12v-.51c0-.1.05-.18.2-.28l.9-.48c.18-.07.35.05.35.33zm1.3-3.54-3.78 1.39c-.58.22-1.01.5-1.01 1.07v3.6c0 1.03.67.83.91.76l3.95-1.36c.55-.18.7-.22.7-.67v-4.34c0-.79-.39-.6-.77-.45m-1.3 3.54c0 .07-.07.14-.26.25l-.69.37c-.23.11-.5.11-.5-.12v-.51c0-.1.05-.18.2-.28l.9-.48c.18-.07.35.05.35.33zm1.3-3.54-3.78 1.39c-.58.22-1.01.5-1.01 1.07v3.6c0 1.03.67.83.91.76l3.95-1.36c.55-.18.7-.22.7-.67v-4.34c0-.79-.39-.6-.77-.45m-1.3 3.54c0 .07-.07.14-.26.25l-.69.37c-.23.11-.5.11-.5-.12v-.51c0-.1.05-.18.2-.28l.9-.48c.18-.07.35.05.35.33zm1.3-3.54-3.78 1.39c-.58.22-1.01.5-1.01 1.07v3.6c0 1.03.67.83.91.76l3.95-1.36c.55-.18.7-.22.7-.67v-4.34c0-.79-.39-.6-.77-.45m-1.3 3.54c0 .07-.07.14-.26.25l-.69.37c-.23.11-.5.11-.5-.12v-.51c0-.1.05-.18.2-.28l.9-.48c.18-.07.35.05.35.33z" class="cls-5"/><path d="M288.5 16.36c-.34.13-3.46 1.27-5.65 2.07-.71.26-1.31.48-1.7.63-1.57.58-5.58 1.51-5.58-3.62V7.12c.57-4.32 3.19-5.71 5.74-6.67l1.22-.42h6.69c.53.64.88 1.51.88 2.59 0 .2.08 1.17-.37 1.35l-4.49 1.6c-.32.11-.55.21-.55-.39v-.44c0-.42-.28-.41-.67-.28 0 0-1.99.68-2.45.85-.47.17-.6.32-.6.67v7.21c0 .73.4.69.65.59.25-.09 2.3-.8 2.3-.8.74-.24.7-.66.7-1.16s.26-.57.67-.72l.33-.12 1.76-.66 2.25-.83c.35-.12.36.17.41.47l.21 1.4c.08.54.15 1.09.22 1.64.19 1.62-.74 2.89-1.97 3.36" class="cls-5"/><path d="M299.77 6.35c-.49 0-.98 0-1.49.02-4.77.1-10.16.54-16.17 1.39v.86c5.31-.65 10.11-1.02 14.41-1.16.78-.02 1.54-.04 2.28-.05 39.72-.51 32.7 20.43-9.87 28.88l-.56 1.15c46.31-8.92 49.98-31.39 11.4-31.09m-40.73 7.8v-.93c-24.45 8.32-26.16 20.88-9.72 24.55v-.73c-12.35-3.36-16.8-12.61 9.72-22.89" class="cls-5"/><path d="m286.57 14.36-8.8 9.65c-.18.23-.08.31.16.19l11.4-7.13c.21-.14.25-.17.43-.12.17.05 4.26 2.98 4.26 2.98.29.19.44.11.35-.12l-2.13-4.65c-.12-.25-.16-.42-.04-.54l8.61-9.38c.22-.31.1-.47-.27-.27l-10.66 6.63c-.25.15-.39.14-.54.04l-3.95-2.67c-.42-.23-.54-.14-.43.31l1.78 4.42c.12.24.05.43-.16.66Zm-20.6 139.81c0-.21.13-.32.53-.5l2.08-.79c.66-.25.87-.16.87.48v3.13c0 .38-.39.69-.83.84l-2 .71c-.46.16-.65.17-.65-.34zm-3.63 23.32c0 .2-.11.33-.36.41l-4.94 1.76c-.59.03-.73-.85-.13-1.22l3.82-1.47s.52-.23.52-.52v-5.35c0-.63-.19-.54-.57-.41l-3.59 1.24c-.52.05-.77-.76-.18-1.11l4.94-1.81c.34-.12.52-.05.52.44s-.03 7.83-.03 8.04m19.56-7.1c0 .08-.07.15-.26.25l-.69.37c-.23.12-.49.12-.49-.12v-.51c0-.1.05-.17.19-.27l.9-.48c.18-.07.35.05.35.33v.44Zm1.3-3.54-3.78 1.39c-.58.22-1.01.5-1.01 1.07v3.6c0 1.03.67.83.91.76l3.95-1.36c.55-.18.7-.22.7-.67v-4.34c0-.79-.39-.6-.77-.45m0 0-3.78 1.39c-.58.22-1.01.5-1.01 1.07v3.6c0 1.03.67.83.91.76l3.95-1.36c.55-.18.7-.22.7-.67v-4.34c0-.79-.39-.6-.77-.45m0 0-3.78 1.39c-.58.22-1.01.5-1.01 1.07v3.6c0 1.03.67.83.91.76l3.95-1.36c.55-.18.7-.22.7-.67v-4.34c0-.79-.39-.6-.77-.45m0 0-3.78 1.39c-.58.22-1.01.5-1.01 1.07v3.6c0 1.03.67.83.91.76l3.95-1.36c.55-.18.7-.22.7-.67v-4.34c0-.79-.39-.6-.77-.45m0 0-3.78 1.39c-.58.22-1.01.5-1.01 1.07v3.6c0 1.03.67.83.91.76l3.95-1.36c.55-.18.7-.22.7-.67v-4.34c0-.79-.39-.6-.77-.45m0 0-3.78 1.39c-.58.22-1.01.5-1.01 1.07v3.6c0 1.03.67.83.91.76l3.95-1.36c.55-.18.7-.22.7-.67v-4.34c0-.79-.39-.6-.77-.45M316.3 155c0-2.96-3.01-3.33-4.29-2.78l-4.65 1.6c-4.02 1.56-3.57 2.62-3.98 2.84-.42.22-.46.28-.62.16-.43-.44-2.23-.53-2.69-.37l-20.41 7.5c-3.15.86-3.58 2.01-4.34 2.84-.44.21-.44.19-.57.1-1.02-.58-2.27-.47-3.16-.15l-4.85 1.81c-.65.27-.83-.01-.83-.67v-4.24c0-.42.34-.54.83-.73l3.46-1.29c2.74-1.21 4.6-3.43 4.6-7.18v-3.77c0-3.08-2.99-3.74-4.91-3.11l-9.3 3.36v11.79l-9.72 3.62c-.43.15-.52.45-.52.77v20.52c0 .89.27 1.08.83.88l17.42-6.46v-7.33c0-.58 1.29-1.17 1.29-.62v7.07c0 .48.26.52.52.41l5.63-2.17c.36-.2.34-.6.46-.65.27.1 1.27.02 1.27.02 1.07-.01 2.71-.87 2.71-.87.55-.18.79-.23.52.36-.25.55-.84.87-1.24 1.09-.89.4-2.95.98-2.95.98-.58.18-.62.42-.62.73v5.52c0 .49.35.55.57.47l4.71-1.65c4.41-2.17 6.92-5.33 6.92-10.29l7.86-2.89c.48-.19.62-.19.62-.73v-7.08c0-.64 1.08-.83 1.08-.31v6.93c0 .45.11.44.47.31l5.63-2.02c.36-.16.29-.83.46-.83h1.81c.36 0 9.31-3.35 9.31-3.35.46-.17.62-.32.62-.78v-4.81c0-.5-.37-.82-.37-.82s.42-.57.42-2.02zm-54.01 27.19c0 .31-.07.28-.31.36-.23.09-9.2 3.31-9.2 3.31-.39.14-.57.09-.57-.46v-16.85c0-.37.08-.64.37-.73l7.21-2.51c.63-.21.74-.08.74.34v1.45c0 .39-.07.32-.46.47l-5.12 1.91c-.48.18-.41.27-.41.46v4.34c0 .52.07.64.62.42l3.25-1.19c.67-.24.83-.03.83.26v1.45c0 .33-.35.46-.62.56 0 0-3.65 1.34-3.82 1.4s-.26.07-.26.52v4.39c0 .62.17.53.62.36l6.56-2.38c.5-.17.57.04.57.57zm11.99-4.58c0 .43-.06.43-.35.54l-1.63.58c-.24.07-.38.06-.38-.39v-6.51c0-.64-.44-.7-.66-.62l-4.27 1.59c-.31.11-.42.34-.42.66v7.09c0 .24 0 .3-.27.39l-1.67.54c-.21.07-.27.03-.27-.35v-9.38c0-.34.14-.41.42-.5l7.37-2.72c.35-.13 2.13-.51 2.13 1.59zm11.98-.9c0 2.25-2.81 5.64-4.34 6.32l-3.14 1.28c-.26.1-.54.08-.54-.35v-1.94l2.13-.89c3.05-1.34 3.6-3.72 3.6-5.81 0-.62-.32-.61-.97-.39l-4.84 1.67c-1.03.28-1.82-.01-1.82-1.82v-6.01c0-.84.59-1.43 1.43-1.79l7.79-3.33c.42-.18.7-.12.7.35zm4.43-4.91c0 .26-.12.4-.41.49l-1.45.5c-.3.11-.46.05-.46-.42v-9.3c0-.33.07-.35.23-.41l1.44-.55c.46-.17.65-.12.65.39zm11.54-4.31c0 .43-.06.43-.35.54l-1.63.58c-.24.07-.39.06-.39-.38v-6.52c0-.64-.43-.69-.66-.62l-3.91 1.4c-.31.12-.43.34-.43.66v7.09c0 .24 0 .3-.27.39l-1.66.54c-.22.07-.28.03-.28-.35v-9.38c0-.34.15-.41.43-.5l7.02-2.52c.35-.14 2.13-.51 2.13 1.59zm12.13-4.3c0 .4-.16.4-.7.62l-7.13 2.48c-.73.24-2.17.17-2.17-1.67v-5.16c0-1.82 1.96-3.25 2.95-3.6l4.84-1.71c.89-.32 2.17-.09 2.17 1.32v1.79c0 1.42-1.27 2.57-2.17 2.9l-5.08 1.86c-.76.28-.48 1.82.35 1.51l6.13-2.2c.39-.16.81-.29.81.34zm-7.1-3.51 4.28-1.7c.23-.09.3-.17.3-.6 0-.65-.54-.62-.95-.48l-3.65 1.43c-.44.18-.54.48-.54.65 0 .44.15.86.56.7m-24.06 7.17-3.78 1.39c-.58.22-1.01.5-1.01 1.07v3.6c0 1.03.67.83.91.76l3.95-1.36c.55-.18.7-.22.7-.67v-4.34c0-.79-.39-.6-.77-.45m0 0-3.78 1.39c-.58.22-1.01.5-1.01 1.07v3.6c0 1.03.67.83.91.76l3.95-1.36c.55-.18.7-.22.7-.67v-4.34c0-.79-.39-.6-.77-.45m0 0-3.78 1.39c-.58.22-1.01.5-1.01 1.07v3.6c0 1.03.67.83.91.76l3.95-1.36c.55-.18.7-.22.7-.67v-4.34c0-.79-.39-.6-.77-.45m0 0-3.78 1.39c-.58.22-1.01.5-1.01 1.07v3.6c0 1.03.67.83.91.76l3.95-1.36c.55-.18.7-.22.7-.67v-4.34c0-.79-.39-.6-.77-.45m0 0-3.78 1.39c-.58.22-1.01.5-1.01 1.07v3.6c0 1.03.67.83.91.76l3.95-1.36c.55-.18.7-.22.7-.67v-4.34c0-.79-.39-.6-.77-.45" class="cls-5"/><path d="m285.24 148.55 4.5-1.6c.45-.17.36-1.15.36-1.34 0-2.97-2.6-4.33-4.44-3.67l-4.34 1.5c-2.55.96-5.17 2.35-5.74 6.67v8.32c0 5.13 4.01 4.2 5.58 3.62 1.58-.58 6.89-2.53 7.34-2.7 1.24-.47 2.17-1.73 1.98-3.36-.13-1.01-.28-2.03-.43-3.04-.05-.3-.07-.59-.41-.47l-4.34 1.6c-.41.16-.67.22-.67.72s.04.92-.7 1.16c0 0-2.05.71-2.3.8s-.65.13-.65-.59v-7.21c0-.35.13-.5.59-.67.47-.17 2.46-.85 2.46-.85.38-.12.67-.13.67.28v.44c0 .6.23.5.54.39" class="cls-5"/><path d="M259.04 156.2v.93c-26.51 10.29-22.07 19.54-9.72 22.89v.72c-16.43-3.67-14.73-16.23 9.72-24.55Zm23.07-5.45v.85c57.6-7.03 54.6 18.19 6.82 27.68l-.56 1.14c52.48-10.11 50.2-37.61-6.26-29.67" class="cls-5"/><path d="m286.57 157.34-8.8 9.65c-.18.23-.08.31.16.19l11.4-7.13c.21-.14.25-.17.43-.12.17.05 4.26 2.98 4.26 2.98.29.19.44.11.35-.12l-2.13-4.65c-.12-.25-.16-.42-.04-.54l8.61-9.38c.22-.31.1-.47-.27-.27l-10.66 6.63c-.25.15-.39.14-.54.04l-3.95-2.67c-.42-.23-.54-.14-.43.31l1.78 4.42c.12.24.05.43-.16.66Zm-20.6 43.84c0-.21.13-.32.53-.5l2.08-.79c.66-.25.87-.16.87.48v3.13c0 .38-.39.69-.83.84l-2 .71c-.46.16-.65.17-.65-.34zm-3.63 23.32c0 .2-.11.33-.36.41l-4.94 1.76c-.59.03-.73-.85-.13-1.22l3.82-1.47s.52-.23.52-.52v-5.35c0-.63-.19-.54-.57-.41l-3.59 1.24c-.52.05-.77-.76-.18-1.11l4.94-1.81c.34-.12.52-.05.52.44s-.03 7.83-.03 8.04m19.56-7.1c0 .08-.07.15-.26.25l-.69.37c-.23.12-.49.12-.49-.12v-.51c0-.1.05-.17.19-.27l.9-.48c.18-.07.35.05.35.33v.44Zm1.3-3.54-3.78 1.39c-.58.22-1.01.5-1.01 1.07v3.6c0 1.03.67.83.91.76l3.95-1.36c.55-.18.7-.22.7-.67v-4.34c0-.79-.39-.6-.77-.45m0 0-3.78 1.39c-.58.22-1.01.5-1.01 1.07v3.6c0 1.03.67.83.91.76l3.95-1.36c.55-.18.7-.22.7-.67v-4.34c0-.79-.39-.6-.77-.45m0 0-3.78 1.39c-.58.22-1.01.5-1.01 1.07v3.6c0 1.03.67.83.91.76l3.95-1.36c.55-.18.7-.22.7-.67v-4.34c0-.79-.39-.6-.77-.45m0 0-3.78 1.39c-.58.22-1.01.5-1.01 1.07v3.6c0 1.03.67.83.91.76l3.95-1.36c.55-.18.7-.22.7-.67v-4.34c0-.79-.39-.6-.77-.45m0 0-3.78 1.39c-.58.22-1.01.5-1.01 1.07v3.6c0 1.03.67.83.91.76l3.95-1.36c.55-.18.7-.22.7-.67v-4.34c0-.79-.39-.6-.77-.45m0 0-3.78 1.39c-.58.22-1.01.5-1.01 1.07v3.6c0 1.03.67.83.91.76l3.95-1.36c.55-.18.7-.22.7-.67v-4.34c0-.79-.39-.6-.77-.45m33.1-11.85c0-2.96-3.01-3.33-4.29-2.78l-4.65 1.6c-4.02 1.56-3.57 2.62-3.98 2.84-.42.22-.46.28-.62.16-.43-.44-2.23-.53-2.69-.37l-20.41 7.5c-3.15.86-3.58 2.01-4.34 2.84-.44.21-.44.19-.57.1-1.02-.58-2.27-.47-3.16-.15l-4.85 1.81c-.65.27-.83-.01-.83-.67v-4.24c0-.42.34-.54.83-.73l3.46-1.29c2.74-1.21 4.6-3.43 4.6-7.18v-3.77c0-3.08-2.99-3.74-4.91-3.11l-9.3 3.36v11.79l-9.72 3.62c-.43.15-.52.45-.52.77v20.52c0 .89.27 1.08.83.88l17.42-6.46v-7.33c0-.58 1.29-1.17 1.29-.62v7.07c0 .48.26.52.52.41l5.63-2.17c.36-.2.34-.6.46-.65.27.1 1.27.02 1.27.02 1.07-.01 2.71-.87 2.71-.87.55-.18.79-.23.52.36-.25.55-.84.87-1.24 1.09-.89.4-2.95.98-2.95.98-.58.18-.62.42-.62.73v5.52c0 .49.35.55.57.47l4.71-1.65c4.41-2.17 6.92-5.33 6.92-10.29l7.86-2.89c.48-.19.62-.19.62-.73v-7.08c0-.64 1.08-.83 1.08-.31v6.93c0 .45.11.44.47.31l5.63-2.02c.36-.16.29-.83.46-.83h1.81c.36 0 9.31-3.35 9.31-3.35.46-.17.62-.32.62-.78v-4.81c0-.5-.37-.82-.37-.82s.42-.57.42-2.02zm-54.01 27.19c0 .31-.07.28-.31.36-.23.09-9.2 3.31-9.2 3.31-.39.14-.57.09-.57-.46v-16.85c0-.37.08-.64.37-.73l7.21-2.51c.63-.21.74-.08.74.34v1.45c0 .39-.07.32-.46.47l-5.12 1.91c-.48.18-.41.27-.41.46v4.34c0 .52.07.64.62.42l3.25-1.19c.67-.24.83-.03.83.26v1.45c0 .33-.35.46-.62.56 0 0-3.65 1.34-3.82 1.4s-.26.07-.26.52v4.39c0 .62.17.53.62.36l6.56-2.38c.5-.17.57.04.57.57zm11.99-4.58c0 .43-.06.43-.35.54l-1.63.58c-.24.07-.38.06-.38-.39v-6.51c0-.64-.44-.7-.66-.62l-4.27 1.59c-.31.11-.42.34-.42.66v7.09c0 .24 0 .3-.27.39l-1.67.54c-.21.07-.27.03-.27-.35v-9.38c0-.34.14-.41.42-.5l7.37-2.72c.35-.13 2.13-.51 2.13 1.59zm11.98-.9c0 2.25-2.81 5.64-4.34 6.32l-3.14 1.28c-.26.1-.54.08-.54-.35v-1.94l2.13-.89c3.05-1.34 3.6-3.72 3.6-5.81 0-.62-.32-.61-.97-.39l-4.84 1.67c-1.03.28-1.82-.01-1.82-1.82v-6.01c0-.84.59-1.43 1.43-1.79l7.79-3.33c.42-.18.7-.12.7.35zm4.43-4.91c0 .26-.12.4-.41.49l-1.45.5c-.3.11-.46.05-.46-.42v-9.3c0-.33.07-.35.23-.41l1.44-.55c.46-.17.65-.12.65.39zm11.54-4.31c0 .43-.06.43-.35.54l-1.63.58c-.24.07-.39.06-.39-.38v-6.52c0-.64-.43-.69-.66-.62l-3.91 1.4c-.31.12-.43.34-.43.66v7.09c0 .24 0 .3-.27.39l-1.66.54c-.22.07-.28.03-.28-.35v-9.38c0-.34.15-.41.43-.5l7.02-2.52c.35-.14 2.13-.51 2.13 1.59zm12.13-4.3c0 .4-.16.4-.7.62l-7.13 2.48c-.73.24-2.17.17-2.17-1.67v-5.16c0-1.82 1.96-3.25 2.95-3.6l4.84-1.71c.89-.32 2.17-.09 2.17 1.32v1.79c0 1.42-1.27 2.57-2.17 2.9l-5.08 1.86c-.76.28-.48 1.82.35 1.51l6.13-2.2c.39-.16.81-.29.81.34zm-7.1-3.51 4.28-1.7c.23-.09.3-.17.3-.6 0-.65-.54-.62-.95-.48l-3.65 1.43c-.44.18-.54.48-.54.65 0 .44.15.86.56.7m-24.06 7.17-3.78 1.39c-.58.22-1.01.5-1.01 1.07v3.6c0 1.03.67.83.91.76l3.95-1.36c.55-.18.7-.22.7-.67v-4.34c0-.79-.39-.6-.77-.45m0 0-3.78 1.39c-.58.22-1.01.5-1.01 1.07v3.6c0 1.03.67.83.91.76l3.95-1.36c.55-.18.7-.22.7-.67v-4.34c0-.79-.39-.6-.77-.45m0 0-3.78 1.39c-.58.22-1.01.5-1.01 1.07v3.6c0 1.03.67.83.91.76l3.95-1.36c.55-.18.7-.22.7-.67v-4.34c0-.79-.39-.6-.77-.45m0 0-3.78 1.39c-.58.22-1.01.5-1.01 1.07v3.6c0 1.03.67.83.91.76l3.95-1.36c.55-.18.7-.22.7-.67v-4.34c0-.79-.39-.6-.77-.45m0 0-3.78 1.39c-.58.22-1.01.5-1.01 1.07v3.6c0 1.03.67.83.91.76l3.95-1.36c.55-.18.7-.22.7-.67v-4.34c0-.79-.39-.6-.77-.45" class="cls-5"/><path d="m285.24 195.56 4.5-1.6c.45-.17.36-1.15.36-1.34 0-2.97-2.6-4.33-4.44-3.67l-4.34 1.5c-2.55.96-5.17 2.35-5.74 6.67v8.32c0 5.13 4.01 4.2 5.58 3.62 1.58-.58 6.89-2.53 7.34-2.7 1.24-.47 2.17-1.73 1.98-3.36-.13-1.01-.28-2.03-.43-3.04-.05-.3-.07-.59-.41-.47l-4.34 1.6c-.41.16-.67.22-.67.72s.04.92-.7 1.16c0 0-2.05.71-2.3.8s-.65.13-.65-.59v-7.21c0-.35.13-.5.59-.67.47-.17 2.46-.85 2.46-.85.38-.12.67-.13.67.28v.44c0 .6.23.5.54.39" class="cls-5"/><path d="M259.04 203.21v.93c-26.51 10.29-22.07 19.54-9.72 22.89v.72c-16.43-3.67-14.73-16.23 9.72-24.55Zm23.07-5.46v.85c57.6-7.03 54.6 18.19 6.82 27.68l-.56 1.14c52.48-10.11 50.2-37.61-6.26-29.67" class="cls-5"/><path d="m286.57 204.34-8.8 9.65c-.18.23-.08.31.16.19l11.4-7.13c.21-.14.25-.17.43-.12.17.05 4.26 2.98 4.26 2.98.29.19.44.11.35-.12l-2.13-4.65c-.12-.25-.16-.42-.04-.54l8.61-9.38c.22-.31.1-.47-.27-.27l-10.66 6.63c-.25.15-.39.14-.54.04l-3.95-2.67c-.42-.23-.54-.14-.43.31l1.78 4.42c.12.24.05.43-.16.66Z" class="cls-5"/><path d="m216.3 131.77 10.48-27.22h2.55l-10.51 27.22zm-30.34 112.94c-8.54 0-15.46 6.93-15.46 15.47s6.92 15.47 15.46 15.47 15.47-6.93 15.47-15.47-6.92-15.47-15.47-15.47m-5.5 21.77h-5.09v-1.79h1.64v-9.41h-1.62v-1.85h3.46v11.23h1.61v1.81Zm16.11-9.62h-1.64v-1.63h-10.34v3.92h11.04l.94.94v5.18l-1.17 1.17h-11.3l-1.17-1.17v-10.68l1.09-1.08h11.57l1 1v2.36Z" class="cls-11"/><path d="M194.68 264.87v-3.89h-10.04v3.89zm-32.48-5.59s2.59-3.93 2.59-5.42l.02-8.47h-2.62l-.02 9.16-1.47 2.18-1.5-2.24.02-9.09h-2.65l-.02 8.41c0 1.56 2.77 5.45 2.77 5.45s-2.77 4.08-2.77 5.57v8.97h2.62v-9.53l1.59-2.37 1.59 2.4v9.5h2.46v-9c0-1.59-2.62-5.51-2.62-5.51Zm-12.83-11.37v-2.5c-2.19.19-6.97-.99-7.09 2.45v25.93h2.81v-13.54h3.52v-2.76h-3.52v-9.58h4.27Zm-17.73-2.49c-2.36.07-6.09-.72-6.25 2.6v25.78h2.76v-13.54h3.49v13.54h2.76v-25.62c0-1.7-1.09-2.76-2.76-2.76m-.07 12.03h-3.31v-9.17h3.31zm-15.9 2.81c.99 0 2.31-1.28 2.31-2.98v-9.32c-.08-3.76-6.7-2.34-9.03-2.59v28.49h2.76v-13.38h1.04l3.08 13.33h2.71l-2.87-13.54Zm-.59-2.82h-3.31v-9.35h3.31zm-17.85-3.32v2.41h1.33v14.83h-3.07v-27.98h3v6.94h2.64v-7.04c0-1.23-1.21-2.55-2.55-2.55-2.22 0-5.34-.49-5.6 2.58v28.02c.15 3.68 5.97 2.15 8.17 2.45v-19.66zm-65.24-8.59v25.5h-3.3v-25.5h-2.85v25.46c0 1.53 1.35 2.85 2.85 2.85h3.37c1.43 0 2.82-1.17 2.82-2.82v-25.5h-2.89Zm-19.85-4.74v2.35h2.53v30.68h2.53v-30.77h2.09v-2.26zm36.36 19.54c.98 0 2.28-1.26 2.28-2.95v-9.22c-.08-3.72-6.63-2.32-8.93-2.56v28.18h2.73v-13.24h1.03l3.04 13.19h2.68l-2.84-13.4Zm-.55-2.76h-3.27v-9.25h3.27zm19.25 3.39c-.01-1.26-1.24-2.06-1.24-2.06s1.24-.86 1.24-2.06v-8.62c0-1.62-1.33-2.68-2.69-2.68h-6.25v28.17c11.9.35 8.4-.24 8.94-12.75m-2.82 9.99H61.1v-10.5h3.28zm0-13.42H61.1v-9.26h3.28zm16.96-11.92c-2.58 0-6.14-.55-6.47 2.83v22.38c.33 3.66 4.24 2.97 6.76 3 1.47 0 2.94-1.63 2.94-2.94v-22.52c0-1.1-1.39-2.74-3.23-2.74Zm.11 25.11h-3.37v-22.15h3.37z" class="cls-5"/><path d="M185.96 292.1c-8.54 0-15.46 6.93-15.46 15.47 0 5.11 2.47 9.64 6.29 12.46h18.34c3.82-2.82 6.3-7.35 6.3-12.46 0-8.54-6.92-15.47-15.47-15.47m-5.5 21.77h-5.1v-1.78h1.65v-9.42h-1.62v-1.84h3.46v11.23h1.61zm16.11-9.62h-1.65v-1.64h-10.34v3.92h11.04l.95.94v5.18l-1.18 1.16h-11.3l-1.17-1.16v-10.68l1.08-1.08h11.57l1 .99z" class="cls-11"/><path d="M194.68 312.27v-3.89h-10.04v3.89zm-35.5 7.76v-8.38l1.59-2.37 1.58 2.4v8.35h2.47v-7.85c0-1.59-2.62-5.51-2.62-5.51s2.59-3.93 2.59-5.42v-8.47h-2.61v9.16l-1.48 2.18-1.49-2.25v-9.09h-2.64v8.41c0 1.56 2.76 5.45 2.76 5.45s-2.77 4.08-2.77 5.57v7.82zm-14.09-24.73v9.58h3.52v2.77h-3.52v12.38h-2.81v-24.78c.11-3.44 4.89-2.26 7.09-2.45v2.5zm-13.45-2.49c-2.35.08-6.09-.72-6.25 2.61v24.61h2.76v-12.37h3.49v12.37h2.77v-24.46c0-1.7-1.1-2.76-2.77-2.76m-.07 12.03h-3.31v-9.16h3.31zm-15.9 2.81c.99 0 2.31-1.28 2.31-2.98v-9.33c-.09-3.75-6.71-2.34-9.03-2.59v27.28h2.76v-12.17h1.04l2.81 12.17h2.73zm-.59-2.82h-3.31v-9.35h3.31zm-13.93-3.32v18.52h-7.76c-.24-.34-.39-.77-.41-1.31V290.7c.26-3.07 3.38-2.58 5.6-2.58 1.34 0 2.55 1.32 2.55 2.55v7.04h-2.64v-6.94h-3.01v27.97h3.08v-14.82h-1.33v-2.41zm-66.28-8.59v25.5c0 .53-.14 1.01-.39 1.41-.03.07-.07.14-.11.2h-7.99c-.05-.07-.1-.13-.14-.2-.26-.42-.41-.92-.41-1.44v-25.47h2.85v25.5h3.31v-25.5zm-15.58-4.74v2.26H17.2v29.59h-2.53v-29.5h-2.53v-2.35zm31.77 31.65-2.56-12.11c.97 0 2.28-1.26 2.28-2.95v-9.22c-.09-3.72-6.63-2.32-8.94-2.56v27.04h2.74v-12.1h1.03l2.74 11.9.05.2h2.7zm-3.11-14.87h-3.27v-9.24h3.27zm19.25 3.39c-.02-1.26-1.24-2.06-1.24-2.06s1.24-.86 1.24-2.06v-8.62c0-1.63-1.33-2.69-2.69-2.69h-6.25v27.11h8.46c.05-.06.09-.13.13-.2.91-1.57.06-4.85.35-11.48m-6.1-12.69h3.28v9.26H61.1zm0 12.18h3.28v10.5H61.1zM81.34 293c-2.58 0-6.13-.55-6.47 2.83v22.38c.06.68.25 1.21.52 1.62.05.07.1.14.16.2h8.27c.06-.07.11-.13.16-.2.36-.49.59-1.05.59-1.56v-22.53c0-1.09-1.39-2.74-3.23-2.74m-3.26 2.96h3.37v22.15h-3.37z" class="cls-5"/><path d="M185.96 197.32c-8.54 0-15.46 6.93-15.46 15.47s6.92 15.47 15.46 15.47 15.47-6.93 15.47-15.47-6.92-15.47-15.47-15.47m-5.5 21.77h-5.09v-1.79h1.64v-9.41h-1.62v-1.85h3.46v11.23h1.61v1.81Zm16.11-9.63h-1.64v-1.63h-10.34v3.92h11.04l.94.94v5.18l-1.17 1.17h-11.3l-1.17-1.17v-10.68l1.09-1.08h11.57l1 1v2.36Z" class="cls-11"/><path d="M194.68 217.48v-3.89h-10.04v3.89zm-32.48-5.6s2.59-3.93 2.59-5.42l.02-8.47h-2.62l-.02 9.16-1.47 2.18-1.5-2.24.02-9.09h-2.65l-.02 8.41c0 1.56 2.77 5.45 2.77 5.45s-2.77 4.08-2.77 5.57v8.97h2.62v-9.53l1.59-2.37 1.59 2.4v9.5h2.46v-9c0-1.59-2.62-5.51-2.62-5.51Zm-12.83-11.37v-2.5c-2.19.19-6.97-.99-7.09 2.45v25.93h2.81v-13.54h3.52v-2.76h-3.52v-9.58h4.27Zm-17.73-2.48c-2.36.07-6.09-.72-6.25 2.6v25.78h2.76v-13.54h3.49v13.54h2.76v-25.62c0-1.7-1.09-2.76-2.76-2.76m-.07 12.03h-3.31v-9.17h3.31zm-15.9 2.8c.99 0 2.31-1.28 2.31-2.98v-9.32c-.08-3.76-6.7-2.34-9.03-2.59v28.49h2.76v-13.38h1.04l3.08 13.33h2.71l-2.87-13.54Zm-.59-2.81h-3.31v-9.35h3.31zm-17.85-3.32v2.41h1.33v14.83h-3.07v-27.98h3v6.94h2.64v-7.04c0-1.23-1.21-2.55-2.55-2.55-2.22 0-5.34-.49-5.6 2.58v28.02c.15 3.68 5.97 2.15 8.17 2.45v-19.66zm-65.24-8.59v25.5h-3.3v-25.5h-2.85v25.46c0 1.53 1.35 2.85 2.85 2.85h3.37c1.43 0 2.82-1.17 2.82-2.82v-25.5h-2.89Zm-19.85-4.75v2.36h2.53v30.68h2.53v-30.77h2.09v-2.27zm36.36 19.54c.98 0 2.28-1.26 2.28-2.95v-9.22c-.08-3.72-6.63-2.32-8.93-2.56v28.18h2.73v-13.24h1.03l3.04 13.19h2.68l-2.84-13.4Zm-.55-2.75h-3.27v-9.25h3.27zm19.25 3.39c-.01-1.26-1.24-2.06-1.24-2.06s1.24-.86 1.24-2.06v-8.62c0-1.62-1.33-2.68-2.69-2.68h-6.25v28.17c11.9.35 8.4-.24 8.94-12.75m-2.82 9.98H61.1v-10.5h3.28zm0-13.41H61.1v-9.26h3.28zm16.96-11.93c-2.58 0-6.14-.55-6.47 2.83v22.38c.33 3.66 4.24 2.97 6.76 3 1.47 0 2.94-1.63 2.94-2.94v-22.52c0-1.1-1.39-2.74-3.23-2.74Zm.11 25.12h-3.37v-22.15h3.37z" class="cls-5"/><path d="m216.3 226.56 10.48-27.22h2.55l-10.51 27.22z" class="cls-11"/><path d="m298.42 136.54-7.11 2.45c-6.14 2.39-5.45 4.01-6.08 4.34-.63.34-.71.43-.95.24-.66-.66-3.41-.8-4.11-.55l-31.2 11.45c-4.81 1.32-5.46 3.07-6.63 4.34-.66.33-.67.28-.87.16-1.56-.9-3.46-.73-4.82-.24l-7.42 2.76c-.99.41-1.26-.02-1.26-1.03v-6.48c0-.63.51-.83 1.26-1.11l5.29-1.97c4.2-1.85 7.03-5.25 7.03-10.98v-5.77c0-4.7-4.56-5.71-7.5-4.74l-14.22 5.13v18.01l-14.85 5.53c-.65.24-.79.7-.79 1.18v31.36c0 1.36.4 1.65 1.26 1.34l26.62-9.87v-11.2c0-.88 1.97-1.78 1.97-.95v10.81c0 .73.4.79.79.63l8.61-3.32c.56-.3.53-.92.71-1 .41.15 1.94.03 1.94.03 1.64-.02 4.15-1.32 4.15-1.32.83-.28 1.2-.35.79.55-.37.83-1.28 1.32-1.9 1.66-1.35.61-4.5 1.5-4.5 1.5-.89.28-.95.65-.95 1.11v8.45c0 .74.53.84.87.71l7.19-2.53c6.75-3.32 10.58-8.13 10.58-15.72l12-4.42c.75-.28.95-.29.95-1.11v-10.82c0-.99 1.66-1.28 1.66-.47v10.58c0 .69.16.67.71.47l8.61-3.08c.55-.24.44-1.26.71-1.26h2.76c.55 0 14.22-5.13 14.22-5.13.72-.26.95-.48.95-1.19v-7.35c0-.77-.55-1.26-.55-1.26s.63-.86.63-3.08v-2.61c0-4.53-4.6-5.09-6.55-4.26Zm-70.35 2.98c0-.32.2-.49.81-.77l3.18-1.2c1.01-.39 1.32-.25 1.32.73v4.78c0 .58-.6 1.05-1.26 1.28l-3.06 1.09c-.71.25-.99.27-.99-.51v-5.39Zm-5.55 35.64c0 .31-.16.5-.55.63l-7.54 2.69c-.91.04-1.12-1.3-.2-1.86l5.84-2.25s.79-.35.79-.79v-8.17c0-.96-.3-.82-.87-.63l-5.49 1.89c-.79.08-1.18-1.16-.28-1.7l7.54-2.76c.52-.19.79-.08.79.67s-.04 11.97-.04 12.28Zm29.89-10.85c0 .12-.1.22-.4.39l-1.05.56c-.36.18-.76.18-.76-.18v-.78c0-.15.07-.27.3-.41l1.38-.74c.28-.1.53.07.53.5v.67Z" class="cls-7"/><path d="M257.51 130.93c.48-.17 6.87-2.45 6.87-2.45.69-.27.55-1.75.55-2.05 0-4.54-3.97-6.62-6.79-5.61l-6.63 2.29c-3.9 1.46-7.9 3.59-8.77 10.19v12.72c0 7.84 6.12 6.42 8.53 5.53s10.53-3.86 11.22-4.12c1.89-.72 3.31-2.65 3.02-5.14-.2-1.55-.42-3.1-.66-4.64-.08-.45-.1-.91-.63-.71l-6.64 2.45c-.63.24-1.03.34-1.03 1.11s.06 1.4-1.07 1.78c0 0-3.14 1.08-3.52 1.22s-.99.2-.99-.91v-11.02c0-.53.2-.76.91-1.03.71-.26 3.75-1.3 3.75-1.3.59-.19 1.03-.2 1.03.43v.67c0 .91.35.76.83.59Z" class="cls-7"/><path d="m218.63 156.55-11.02 3.84c-.44.15-.57.56-.57 1.12v25.75c0 .84.27.92.87.71 0 0 13.7-4.93 14.06-5.05.36-.13.47-.09.47-.55V180c0-.82-.11-1.14-.87-.87l-10.03 3.63c-.69.25-.95.39-.95-.55v-6.71c0-.69.13-.7.39-.79s5.84-2.13 5.84-2.13c.41-.16.95-.36.95-.87v-2.21c0-.44-.25-.76-1.26-.4l-4.98 1.82c-.84.34-.95.16-.95-.63v-6.63c0-.3-.1-.44.63-.71l7.82-2.92c.6-.22.71-.12.71-.71v-2.21c0-.65-.17-.85-1.13-.53Zm6.97 9.85v14.33c0 .58.09.64.41.53l2.55-.83c.41-.13.41-.22.41-.59V169c0-.49.18-.83.65-1.01l6.52-2.43c.34-.12 1.01-.03 1.01.95v9.95c0 .68.22.7.59.59l2.49-.89c.44-.16.53-.16.53-.83V163.9c0-3.21-2.73-2.64-3.26-2.43l-11.25 4.15c-.43.15-.65.25-.65.77Zm32.4-12.38-11.91 5.09c-1.29.55-2.19 1.45-2.19 2.73v9.18c0 2.77 1.21 3.21 2.78 2.79l7.4-2.55c.99-.34 1.48-.36 1.48.59 0 3.2-.85 6.83-5.51 8.88l-3.26 1.36v2.96c0 .65.43.69.83.53l4.8-1.95c2.34-1.04 6.63-6.22 6.63-9.66v-19.43c0-.71-.43-.81-1.07-.53Zm-2.43 12.2c0 .7-.24.76-1.07 1.04l-6.04 2.07c-.37.1-1.39.41-1.39-1.16v-5.51c0-.87.65-1.3 1.54-1.63l5.77-2.13c.59-.22 1.18-.52 1.18.68v6.63Zm6.72-13.09v14.22c0 .71.26.8.71.63l2.21-.75c.45-.15.63-.36.63-.75v-14.22c0-.77-.3-.85-.99-.59l-2.21.83c-.24.1-.35.13-.35.63m6.55-2.49v14.33c0 .58.09.64.41.53l2.55-.83c.41-.13.41-.22.41-.59v-10.84c0-.49.18-.83.65-1.01l5.98-2.13c.34-.12 1.01-.03 1.01.95V161c0 .68.22.7.59.59l2.49-.89c.44-.16.53-.16.53-.83v-11.43c0-3.21-2.73-2.64-3.26-2.43l-10.72 3.85c-.43.15-.65.25-.65.77Zm31.93-.18-9.36 3.38c-1.27.46-1.7-1.88-.53-2.31l7.76-2.84c1.38-.5 3.32-2.27 3.32-4.44v-2.73c0-2.16-1.95-2.5-3.32-2.01l-7.4 2.61c-1.51.53-4.5 2.73-4.5 5.51v7.88c0 2.81 2.21 2.92 3.32 2.55l10.9-3.79c.81-.33 1.07-.33 1.07-.95v-2.31c0-.96-.64-.77-1.24-.53Zm-9.64-4.57 5.58-2.19c.62-.21 1.45-.25 1.45.74 0 .65-.1.77-.46.92l-6.55 2.59c-.62.25-.86-.4-.86-1.07 0-.27.16-.73.83-.99Z" class="cls-4"/><path d="M217.47 142.62v1.42c-40.52 15.72-33.72 29.85-14.85 34.99v1.11c-25.12-5.61-22.51-24.8 14.85-37.52m35.26-8.33v1.3c88.02-10.74 83.44 27.8 10.43 42.29l-.86 1.75c80.19-15.45 76.72-57.47-9.57-45.34" class="cls-7"/><path d="m259.54 144.36-13.45 14.75c-.28.36-.12.48.24.3l17.41-10.9c.33-.21.39-.25.65-.18.27.07 6.52 4.56 6.52 4.56.44.3.67.16.53-.18l-3.26-7.11c-.18-.38-.24-.64-.06-.83l13.15-14.33c.34-.47.15-.71-.41-.41l-16.29 10.13c-.39.24-.59.21-.83.06l-6.04-4.09c-.64-.36-.83-.21-.65.47l2.73 6.75c.18.37.07.65-.24 1.01Z" style="fill-rule:evenodd;stroke-miterlimit:33.89;stroke:#fff;fill:#ed1c24;stroke-width:.47px"/><path d="M134.58 231.31V106.76H46.71v124.55z" style="stroke:#000;stroke-width:.27px;fill-rule:evenodd;stroke-miterlimit:33.89;fill:#fff"/><path d="M130.88 228.01V110.32H49.59v117.69h81.28Z" class="cls-6"/><path d="M122.36 197.24s3.8-5.77 3.8-7.96v-17.92h-3.84v18.93l-2.15 3.2-2.2-3.29v-18.84h-3.89v17.83c0 2.3 4.07 8 4.07 8s-4.07 5.99-4.07 8.19v17.83h3.84v-18.65l2.33-3.48 2.33 3.52v18.61h3.62v-17.88c0-2.33-3.84-8.09-3.84-8.09m-10.5-8.12v-3.29h-6.11c-1.8 0-3.23 1.68-3.23 3.22v34.16h3.71v-17.83l4.63.02v-3.65h-4.63v-12.62h5.63Zm-17.03-3.29h-4.81c-2.16 0-3.43 1.92-3.43 3.43v33.95h3.64v-17.83h4.6v17.83h3.64v-33.74c0-2.24-1.44-3.63-3.64-3.63Zm-15.1 19.54c1.31 0 3.04-1.68 3.04-3.93v-12.28c0-1.77-1.87-3.41-4-3.41h-7.89v37.52h3.64v-17.63h1.37l4.05 17.56h3.57zm-18.67-11.55v3.6h1.99v22.19h-4.6V175.2h4.5v10.39h3.96v-10.54c0-1.84-1.82-3.81-3.82-3.81h-4.51c-2.04 0-3.86 1.99-3.86 3.86v44.48c0 2.21 2.18 3.67 3.95 3.67h8.27v-29.42h-5.87Zm61.17-78.7h-4.32c-2.18 0-3.77 2.01-3.77 3.53v44.64c0 1.96 2.03 3.75 3.75 3.75h4.7c1.84 0 3.67-2.04 3.67-3.67v-44.82c0-1.37-1.73-3.43-4.03-3.43m-11.95 20.58c-.02-1.68-1.65-2.74-1.65-2.74s1.65-1.15 1.65-2.74v-11.45c0-2.16-1.77-3.57-3.57-3.57H98.4v37.45h8.31c1.68 0 3.57-1.13 3.57-3.57 0 0 .02-11.69 0-13.37Zm-18.67-.9c1.3 0 3.04-1.68 3.04-3.93v-12.28c0-1.77-1.87-3.41-4-3.41h-7.89v37.52h3.64v-17.63h1.37l4.05 17.56h3.57zm-16.48-19.73V149h-4.39v-33.93h-3.8v33.88c0 2.03 1.79 3.8 3.8 3.8h4.49c1.9 0 3.75-1.55 3.75-3.75v-33.93h-3.84Zm-22.24-.09v3.7h3.98v48.29h3.98v-48.42h3.29v-3.57H52.88Z" class="cls-4"/><path d="M90.37 189.61v12.07h4.36v-12.07zm27.78-70.79v44.35h4.21v-44.35zm-15.97 16.19v13.96h4.36v-13.96zm0-16.19v12.31h4.36v-12.31zM74.6 189.35v12.31h4.36v-12.31zm11.93-70.53v12.31h4.36v-12.31z" class="cls-6"/><path d="M81.04 156.2h18.09v26.03H81.04z" class="cls-9"/><path d="M99.13 156.2v26.03c5.97 0 12.29-5.14 12.29-13.08s-6.73-12.94-12.29-12.94Zm-30.38 12.91c0 7.94 6.32 13.12 12.29 13.12V156.2c-5.56 0-12.29 5.35-12.29 12.91" class="cls-4"/><path d="M80.35 158.6v21.39H99.8v-11.68h.06v-4.6h-.06v-5.11z" class="cls-6"/><path d="M99.8 158.6v21.37c3.02 0 9.56-3.35 9.56-10.91 0-6.53-5.9-10.46-9.56-10.46m-28.97 10.51c0 7.55 6.5 10.89 9.52 10.89v-21.4c-3.66 0-9.52 3.98-9.52 10.51" class="cls-6"/><path d="M102.32 165.63v-2.78l-1.17-1.17H87.59l-1.27 1.27v12.52l1.37 1.37h13.25l1.37-1.37v-6.07l-1.1-1.1H88.27v-4.6h12.12v1.92h1.92Zm-20.77 9.16v-13.17H77.5v2.16h1.89v11.04h-1.92v2.09h5.97v-2.13h-1.89Z" class="cls-4"/><path d="M100.26 174.76v-4.42H88.38v4.42z" class="cls-6"/><path d="M560.19 89.68v142.83H368.27c-3.45 0-6.25-2.8-6.25-6.25V95.58c0-2.59 1.67-4.79 4-5.58h.01a5.6 5.6 0 0 1 1.89-.32z" class="cls-10"/><path d="M540.61 180.28c6.82 0 13.4-1.05 19.58-2.99V220H444.86c-5.36 0-6.68-4.02-6.68-5.93s.84-2.99 3.68-5.64c2.85-2.64 21-20.89 7.76-45.65-13.25-24.76-40.15-19.28-46.05-16.5-9.28 3.9-11.98 1.41-11.98-6.83s.46-12.7.46-12.7.29-10.67.29-14.31 4.25-10.07 9.98-10.07h60.64c6.89.01 12.41 5.63 12.39 12.53v.13c0 36.04 29.22 65.25 65.26 65.25Z" class="cls-10"/><path d="M560.19 189.41v9.55h-6.33a4.68 4.68 0 0 1-4.68-4.68v-.19c0-2.58 2.1-4.68 4.68-4.68zm0-118.5V90H366.03l2.64-.32 119.86-14.5 53.64-6.49z" class="cls-10"/><rect width="25.08" height="9.54" x="506.92" y="189.42" class="cls-10" rx="4.68" ry="4.68"/><path d="M560.19 68.69v94.79a51.7 51.7 0 0 1-17.31 3.76c-29.73 1.27-54.35-22.92-54.35-52.67v-43.1c0-1.54 1.24-2.78 2.78-2.78zm-111.1 112.37c0 2.43-.27 4.8-.8 7.08-.08.38-.18.75-.27 1.12-.12.47-.26.93-.4 1.39-3.1 9.85-10.85 17.64-20.69 20.8-.62.2-1.24.38-1.87.53-.35.09-.71.18-1.07.26a32.06 32.06 0 0 1-15.35-.43c-.25-.06-.5-.14-.74-.21-10.05-3.05-18-10.93-21.14-20.94-.14-.46-.28-.92-.4-1.38-.1-.37-.19-.74-.27-1.12-.48-2.08-.75-4.24-.78-6.46v-1.24c.04-2.22.31-4.38.79-6.47.08-.38.18-.75.27-1.12.12-.46.25-.91.4-1.37 3.15-10.01 11.1-17.89 21.14-20.94.24-.08.49-.15.74-.21q.57-.165 1.17-.3c2.37-.56 4.84-.85 7.38-.85 2.33 0 4.61.25 6.8.72.36.08.72.16 1.07.26.63.16 1.26.34 1.87.54 9.83 3.15 17.59 10.94 20.69 20.79.14.45.27.91.4 1.37a31.8 31.8 0 0 1 1.08 8.2Z" class="cls-10"/><path d="M449.09 181.06c0 2.43-.27 4.8-.8 7.08-.08.38-.18.75-.27 1.12h-18.63c-2.4 0-4.33 1.94-4.33 4.33v18.38c-.35.09-.71.18-1.07.26a32.06 32.06 0 0 1-15.35-.43v-18.2c0-2.4-1.94-4.33-4.33-4.33h-17.95c-.1-.37-.19-.74-.27-1.12-.48-2.08-.75-4.24-.78-6.46v-1.24c.04-2.22.31-4.38.79-6.47.08-.38.18-.75.27-1.12h17.95c2.4 0 4.33-1.95 4.33-4.34v-18.18q.57-.165 1.17-.3c2.37-.56 4.84-.85 7.38-.85 2.33 0 4.61.25 6.8.72.36.08.72.16 1.07.26v18.36a4.34 4.34 0 0 0 4.33 4.34h18.62a31.8 31.8 0 0 1 1.08 8.2Z" class="cls-10"/><path d="M422.1 181.06c0 .51-.08 1.01-.22 1.47a4.93 4.93 0 0 1-3.18 3.2c-.47.15-.98.23-1.5.23s-.98-.07-1.43-.21a4.9 4.9 0 0 1-3.25-3.22c-.15-.47-.22-.96-.22-1.47s.08-1.01.22-1.47a4.92 4.92 0 0 1 3.25-3.22c.45-.14.93-.21 1.43-.21.52 0 1.03.08 1.5.23a4.91 4.91 0 0 1 3.18 3.2c.15.47.22.96.22 1.47Z" class="cls-10"/><path d="M450.57 113.98c-1.05.03-2.73-.32-2.8 1.16v11.55h1.24v-6.06h1.56v6.06h1.24v-11.47c0-.77-.49-1.24-1.24-1.24Zm-.03 5.39h-1.49v-4.11h1.49zm-9.82-8.39v15.67h1.23v-6.31h.46l1.29-.09c.44 0 1.02-.57 1.02-1.32v-6.8c-.03-1.66-2.97-1.04-4-1.15Zm2.74 8.03h-1.47v-6.8h1.47zm116.48-4.3v-1.12c-.98.08-3.12-.44-3.17 1.1v11.61h1.26v-6.06h1.58V119h-1.58v-4.29zM552 113.6c-1.05.03-2.73-.32-2.8 1.16v11.55h1.24v-6.06H552v6.06h1.24v-11.47c0-.77-.49-1.24-1.24-1.24Zm-.03 5.39h-1.48v-4.11h1.48zm-7.12 1.25c.44 0 1.03-.57 1.03-1.33v-4.18c-.04-1.68-3-1.05-4.04-1.16v12.76h1.24v-6h.46l1.38 5.97h1.21zm-.26-1.26h-1.49v-4.19h1.49zm-8-1.48v1.08h.6v6.64h-1.38v-12.53h1.35v3.11h1.18v-3.15c0-.55-.54-1.14-1.14-1.14-.99 0-2.39-.22-2.51 1.15v12.55c.07 1.65 2.67.96 3.66 1.1v-8.8h-1.76Zm-29.22-3.85v11.42h-1.48v-11.42h-1.28v11.4c0 .68.6 1.28 1.28 1.28h1.51c.64 0 1.26-.52 1.26-1.26v-11.42zm-8.88-2.13v1.06h1.13v13.74h1.13v-13.78h.94v-1.02zm16.28 8.75c.44 0 1.02-.56 1.02-1.32v-4.13c-.04-1.66-2.97-1.03-4-1.14v12.62h1.22v-5.93h.46l1.37 5.9h1.2zm-.24-1.23h-1.47v-4.14h1.47zm8.61 1.52c0-.57-.55-.93-.55-.93s.55-.38.55-.92v-3.86c0-.73-.59-1.2-1.2-1.2h-2.8v12.61c5.33.16 3.76-.1 4-5.7Zm-1.26 4.47h-1.47v-4.7h1.47zm0-6.01h-1.47v-4.15h1.47zm7.6-5.34c-1.16 0-2.75-.25-2.9 1.27v10.02c.14 1.64 1.9 1.33 3.03 1.34.65 0 1.31-.73 1.31-1.31v-10.09c0-.49-.62-1.23-1.44-1.23Zm.05 11.25h-1.51v-9.92h1.51zm-71.55-11.14h-2.71v12.63s1.71-.01 2.84 0c.65 0 1.31-.73 1.31-1.31v-10.09c0-.49-.62-1.23-1.44-1.23Zm.05 11.25h-1.13v-9.92h1.13zm-45.24-11.84v12.27h-1.59V113.2h-1.37v12.25c0 .74.65 1.37 1.37 1.37h1.62c.69 0 1.36-.56 1.36-1.36v-12.27h-1.39Zm-9.26-2.25v1.14h1.22v14.76h1.22v-14.81h1.01v-1.09zm17.22 9.41c.48 0 1.1-.61 1.1-1.42v-4.44c-.04-1.79-3.19-1.12-4.3-1.24v13.57h1.32v-6.38h.49l1.47 6.35h1.29zm-.26-1.33h-1.57v-4.45h1.57zm8.96 1.63c0-.61-.6-.99-.6-.99s.6-.42.6-1v-4.14c0-.79-.64-1.3-1.29-1.3h-3.01v13.56c5.73.17 4.04-.11 4.3-6.13Zm-1.35 4.81h-1.58v-5.06h1.58zm0-6.46h-1.58v-4.46h1.58zm7.55-5.74c-1.24 0-2.95-.27-3.11 1.36v10.77c.15 1.76 2.04 1.43 3.25 1.44.71 0 1.41-.78 1.41-1.41v-10.84c0-.53-.66-1.32-1.55-1.32Zm.05 12.09h-1.62V114.7h1.62z" style="fill-rule:evenodd;fill:#bca3ce;stroke:#553f98;stroke-miterlimit:10;stroke-width:.5px"/><path d="M512.15 211.19v-1.89h.7v2.04h.4v-2.15l-1.1-1.36v-1.95c0-.41.28-.6.91-.6s.89.19.89.6v1.63h-.7v-1.78h-.4v1.89l1.1 1.36v2.21c0 .41-.27.6-.89.6s-.91-.19-.91-.6Zm2.95.02v-4.38q0-.57.81-.57c.81 0 .81.19.81.57v2.34h-1v2.17h.37v-1.76h.62v1.63c0 .38-.28.58-.81.58s-.81-.19-.81-.58Zm1-2.49v-2.02h-.37v2.02zm1.78-3.41h.63v6.44h-.63zm1.79 5.9v-4.38q0-.57.81-.57c.81 0 .81.19.81.57v2.34h-1v2.17h.37v-1.76h.62v1.63c0 .38-.28.58-.81.58s-.81-.19-.81-.58Zm1-2.49v-2.02h-.37v2.02zm1.78 2.49v-4.38q0-.57.81-.57c.81 0 .81.19.81.57v1.64h-.62v-1.77h-.37v4.64h.37v-1.76h.62v1.64c0 .38-.27.58-.81.58s-.81-.19-.81-.58Zm2.88.01v-4.52h-.23v-.41h.23v-.71l.62-.09v.8h.35v.41h-.35v4.64h.32v.41h-.29c-.43 0-.65-.19-.65-.53Z" class="cls-10"/></svg>