<svg xmlns="http://www.w3.org/2000/svg" id="Layer_1" data-name="Layer 1" viewBox="0 0 560 320"><defs><style>.cls-3,.cls-4,.cls-5{fill-rule:evenodd}.cls-6{fill:#bca3ce;stroke:#553f98;stroke-miterlimit:10;stroke-width:.5px}.cls-4,.cls-7{fill:#372869}.cls-3,.cls-9{fill:#fff}</style></defs><path d="M.95.03h559.24v320H.95z" class="cls-7"/><path d="M405.33-.07c-3.45 16.81-8.27 33.52-14.2 49.97-.77 2.14-1.56 4.27-2.37 6.4-3.15 8.31-6.6 16.53-10.28 24.65a462 462 0 0 1-18.36 36.11c-.66 1.19-1.34 2.38-2.03 3.56-.5.88-1 1.74-1.5 2.61-10.64 18.29-22.38 35.76-34.79 52.08-48.21 64.41-136.13 76.41-201.3 120.77-3.92 2.65-7.76 5.44-11.5 8.36a168 168 0 0 0-8.87 7.44c-2.85 2.53-5.66 5.19-8.43 7.96H-.19V-.07h405.51Z" style="fill:#553f98"/><path d="M163.01 70.29s2.59-3.93 2.59-5.42l.02-8.47H163l-.02 9.16-1.47 2.18-1.5-2.24.02-9.09h-2.65l-.02 8.41c0 1.56 2.77 5.45 2.77 5.45s-2.77 4.08-2.77 5.57v8.97h2.62v-9.53l1.59-2.37 1.59 2.4v9.5h2.46v-9c0-1.59-2.62-5.51-2.62-5.51Zm-12.83-11.37v-2.5c-2.19.19-6.97-.99-7.09 2.45V84.8h2.81V71.26h3.52V68.5h-3.52v-9.58h4.27Zm-17.72-2.48c-2.36.07-6.09-.72-6.25 2.6v25.78h2.76V71.28h3.49v13.54h2.76V59.2c0-1.7-1.09-2.76-2.76-2.76m-.08 12.03h-3.31V59.3h3.31zm-15.9 2.8c.99 0 2.31-1.28 2.31-2.98v-9.32c-.08-3.76-6.7-2.34-9.03-2.59v28.49h2.76V71.49h1.04l3.08 13.33h2.71l-2.87-13.54Zm-.58-2.82h-3.31V59.1h3.31zm-17.86-3.32v2.41h1.33v14.83H96.3V54.39h3v6.94h2.64v-7.04c0-1.23-1.21-2.55-2.55-2.55-2.22 0-5.34-.49-5.6 2.58v28.02c.15 3.68 5.97 2.15 8.17 2.45V65.13zM32.8 56.55v25.5h-3.3v-25.5h-2.85v25.46c0 1.53 1.35 2.85 2.85 2.85h3.37c1.43 0 2.82-1.17 2.82-2.82v-25.5H32.8ZM12.95 51.8v2.35h2.53v30.69h2.53V54.07h2.1V51.8zm36.36 19.54c.98 0 2.28-1.26 2.28-2.95v-9.22c-.08-3.72-6.63-2.32-8.93-2.56v28.18h2.73V71.55h1.03l3.04 13.19h2.68l-2.84-13.4Zm-.54-2.75H45.5v-9.25h3.27zm19.24 3.39c-.01-1.26-1.24-2.06-1.24-2.06s1.24-.86 1.24-2.06v-8.62c0-1.62-1.33-2.68-2.69-2.68h-6.25v28.17c11.9.35 8.4-.24 8.94-12.75m-2.81 9.98h-3.28v-10.5h3.28zm0-13.42h-3.28v-9.26h3.28zm16.96-11.92c-2.58 0-6.14-.55-6.47 2.83v22.38c.33 3.66 4.24 2.97 6.76 3 1.47 0 2.94-1.63 2.94-2.94V59.37c0-1.1-1.39-2.74-3.23-2.74Zm.11 25.12H78.9V59.59h3.37zm201.74-9.34-3.78 1.4c-.58.21-1.01.49-1.01 1.07v3.6c0 1.03.67.82.91.76l3.95-1.36c.55-.18.7-.22.7-.68v-4.34c0-.79-.39-.59-.77-.45m-1.3 3.54c0 .08-.07.15-.26.25l-.69.37c-.23.12-.5.12-.5-.12v-.51c0-.1.05-.17.2-.27l.9-.48c.18-.07.35.04.35.32zm1.3-3.54-3.78 1.4c-.58.21-1.01.49-1.01 1.07v3.6c0 1.03.67.82.91.76l3.95-1.36c.55-.18.7-.22.7-.68v-4.34c0-.79-.39-.59-.77-.45m-1.3 3.54c0 .08-.07.15-.26.25l-.69.37c-.23.12-.5.12-.5-.12v-.51c0-.1.05-.17.2-.27l.9-.48c.18-.07.35.04.35.32zm1.3-3.54-3.78 1.4c-.58.21-1.01.49-1.01 1.07v3.6c0 1.03.67.82.91.76l3.95-1.36c.55-.18.7-.22.7-.68v-4.34c0-.79-.39-.59-.77-.45m-1.3 3.54c0 .08-.07.15-.26.25l-.69.37c-.23.12-.5.12-.5-.12v-.51c0-.1.05-.17.2-.27l.9-.48c.18-.07.35.04.35.32zm1.3-3.54-3.78 1.4c-.58.21-1.01.49-1.01 1.07v3.6c0 1.03.67.82.91.76l3.95-1.36c.55-.18.7-.22.7-.68v-4.34c0-.79-.39-.59-.77-.45m-1.3 3.54c0 .08-.07.15-.26.25l-.69.37c-.23.12-.5.12-.5-.12v-.51c0-.1.05-.17.2-.27l.9-.48c.18-.07.35.04.35.32zm34.4-15.38c0-2.96-3.01-3.33-4.29-2.79l-4.65 1.6c-4.02 1.57-3.57 2.63-3.98 2.85-.42.22-.46.28-.62.15-.43-.43-2.23-.52-2.69-.36l-20.41 7.49c-3.15.87-3.58 2.01-4.34 2.85-.44.21-.44.18-.57.1-1.02-.59-2.27-.48-3.16-.16l-4.85 1.81c-.65.27-.83 0-.83-.67v-4.24c0-.41.34-.54.83-.72l3.46-1.29c2.74-1.21 4.6-3.44 4.6-7.19v-3.77c0-3.07-2.99-3.73-4.91-3.1l-9.3 3.36v11.78l-9.72 3.62c-.43.16-.52.46-.52.78v20.51c0 .89.27 1.09.83.88l17.42-6.46v-7.33c0-.57 1.29-1.16 1.29-.62v7.07c0 .48.26.52.52.42l5.63-2.17c.36-.2.34-.61.46-.66.27.1 1.27.02 1.27.02 1.07-.01 2.71-.86 2.71-.86.55-.18.79-.23.52.36-.25.54-.84.86-1.24 1.08-.89.4-2.95.99-2.95.99-.58.18-.62.42-.62.72v5.53c0 .49.35.55.57.46l4.71-1.65c4.41-2.17 6.92-5.32 6.92-10.28l7.86-2.9c.48-.18.62-.19.62-.72v-7.08c0-.65 1.08-.84 1.08-.31v6.92c0 .46.11.44.47.31l5.63-2.01c.36-.16.29-.83.46-.83h1.81c.36 0 9.31-3.36 9.31-3.36.46-.17.62-.32.62-.78v-4.8c0-.51-.37-.83-.37-.83s.42-.56.42-2.01zm-50.33-.84c0-.2.13-.32.53-.5l2.08-.79c.66-.25.87-.16.87.48v3.12c0 .38-.39.69-.83.84l-2 .72c-.46.16-.65.17-.65-.34zm-3.68 28.03c0 .3-.07.27-.31.36-.23.08-9.2 3.31-9.2 3.31-.39.13-.57.08-.57-.47V74.1c0-.36.08-.63.37-.73l7.21-2.51c.63-.21.74-.07.74.35v1.45c0 .38-.07.32-.46.46l-5.12 1.91c-.48.18-.41.27-.41.47v4.34c0 .52.07.64.62.41l3.25-1.19c.67-.23.83-.03.83.26v1.45c0 .33-.35.46-.62.57 0 0-3.65 1.34-3.82 1.39-.17.06-.26.07-.26.52v4.39c0 .62.17.53.62.37l6.56-2.38c.5-.18.57.03.57.57zm.05-4.71c0 .21-.1.33-.36.42l-4.93 1.76c-.6.02-.73-.86-.13-1.22l3.82-1.47s.52-.23.52-.52v-5.35c0-.63-.2-.54-.57-.41l-3.59 1.24c-.52.05-.78-.76-.18-1.11l4.93-1.81c.34-.12.52-.05.52.44s-.03 7.83-.03 8.03m11.94.12c0 .44-.06.44-.35.54l-1.63.58c-.24.07-.38.06-.38-.38v-6.52c0-.63-.44-.69-.66-.62l-4.27 1.59c-.31.12-.42.34-.42.66v7.1c0 .24 0 .3-.27.38l-1.67.55c-.21.06-.27.03-.27-.35v-9.38c0-.34.14-.41.42-.51l7.37-2.71c.35-.14 2.13-.51 2.13 1.59zm11.98-.89c0 2.25-2.81 5.64-4.34 6.32l-3.14 1.28c-.26.1-.54.07-.54-.35v-1.94l2.13-.89c3.05-1.35 3.6-3.72 3.6-5.82 0-.62-.32-.61-.97-.38l-4.84 1.66c-1.03.28-1.82-.01-1.82-1.82v-6.01c0-.83.59-1.42 1.43-1.78l7.79-3.33c.42-.19.7-.12.7.35zm4.43-4.91c0 .25-.12.39-.41.49l-1.45.49c-.3.11-.46.05-.46-.41v-9.31c0-.32.07-.34.23-.41l1.44-.54c.46-.17.65-.12.65.39zm11.54-4.32c0 .44-.06.44-.35.55l-1.63.58c-.24.07-.39.06-.39-.39v-6.51c0-.64-.43-.7-.66-.62l-3.91 1.39c-.31.12-.43.34-.43.66v7.1c0 .24 0 .3-.27.38l-1.66.55c-.22.06-.28.03-.28-.35V67c0-.34.15-.41.43-.51l7.02-2.52c.35-.13 2.13-.51 2.13 1.59zm12.13-4.3c0 .41-.16.41-.7.62l-7.13 2.48c-.73.24-2.17.18-2.17-1.66v-5.16c0-1.82 1.96-3.26 2.95-3.6l4.84-1.71c.89-.32 2.17-.1 2.17 1.32v1.78c0 1.43-1.27 2.58-2.17 2.91l-5.08 1.86c-.76.28-.48 1.81.35 1.51l6.13-2.21c.39-.15.81-.28.81.35zm-7.1-3.51 4.28-1.69c.23-.1.3-.18.3-.6 0-.65-.54-.62-.95-.49l-3.65 1.44c-.44.17-.54.47-.54.65 0 .43.15.86.56.69m-24.06 7.17-3.78 1.4c-.58.21-1.01.49-1.01 1.07v3.6c0 1.03.67.82.91.76l3.95-1.36c.55-.18.7-.22.7-.68v-4.34c0-.79-.39-.59-.77-.45m-1.3 3.54c0 .08-.07.15-.26.25l-.69.37c-.23.12-.5.12-.5-.12v-.51c0-.1.05-.17.2-.27l.9-.48c.18-.07.35.04.35.32zm1.3-3.54-3.78 1.4c-.58.21-1.01.49-1.01 1.07v3.6c0 1.03.67.82.91.76l3.95-1.36c.55-.18.7-.22.7-.68v-4.34c0-.79-.39-.59-.77-.45m-1.3 3.54c0 .08-.07.15-.26.25l-.69.37c-.23.12-.5.12-.5-.12v-.51c0-.1.05-.17.2-.27l.9-.48c.18-.07.35.04.35.32zm1.3-3.54-3.78 1.4c-.58.21-1.01.49-1.01 1.07v3.6c0 1.03.67.82.91.76l3.95-1.36c.55-.18.7-.22.7-.68v-4.34c0-.79-.39-.59-.77-.45m-1.3 3.54c0 .08-.07.15-.26.25l-.69.37c-.23.12-.5.12-.5-.12v-.51c0-.1.05-.17.2-.27l.9-.48c.18-.07.35.04.35.32z" class="cls-3"/><path d="m286.05 54.1 4.5-1.6c.45-.17.36-1.15.36-1.34 0-2.97-2.6-4.33-4.44-3.67l-4.34 1.5c-2.55.96-5.17 2.35-5.74 6.67v8.32c0 5.13 4.01 4.2 5.58 3.62 1.58-.58 6.89-2.53 7.34-2.7 1.24-.47 2.17-1.73 1.98-3.36-.13-1.01-.28-2.03-.43-3.04-.05-.3-.07-.59-.41-.47l-4.34 1.6c-.41.16-.67.22-.67.72s.04.92-.7 1.16c0 0-2.05.71-2.3.8s-.65.13-.65-.59v-7.21c0-.35.13-.5.59-.67.47-.17 2.46-.85 2.46-.85.38-.12.67-.13.67.28v.44c0 .6.23.5.54.39" class="cls-3"/><path d="M259.85 61.75v.93c-26.51 10.29-22.07 19.54-9.72 22.89v.72c-16.43-3.67-14.73-16.23 9.72-24.55Zm23.08-5.45v.85c57.6-7.03 54.6 18.19 6.82 27.68l-.56 1.14c52.48-10.11 50.2-37.61-6.26-29.67" class="cls-3"/><path d="m287.38 62.89-8.8 9.65c-.18.23-.08.31.16.19l11.4-7.13c.21-.14.25-.17.43-.12.17.05 4.26 2.98 4.26 2.98.29.19.44.11.35-.12l-2.13-4.65c-.12-.25-.16-.42-.04-.54l8.61-9.38c.22-.31.1-.47-.27-.27l-10.66 6.63c-.25.15-.39.14-.54.04l-3.95-2.67c-.42-.23-.54-.14-.43.31l1.78 4.42c.12.24.05.43-.16.66Z" style="fill-rule:evenodd;stroke:#fff;stroke-miterlimit:33.89;stroke-width:.93px;fill:#553f98"/><path d="m217.12 84.96 10.48-27.22h2.55l-10.51 27.22z" class="cls-9"/><path d="M163.01 22.9s2.59-3.93 2.59-5.42l.02-8.47H163l-.02 9.16-1.47 2.18-1.5-2.24.02-9.09h-2.65l-.02 8.41c0 1.56 2.77 5.45 2.77 5.45s-2.77 4.08-2.77 5.57v8.97h2.62v-9.53l1.59-2.37 1.59 2.4v9.5h2.46v-9c0-1.59-2.62-5.51-2.62-5.51Zm-12.83-11.37v-2.5c-2.19.19-6.97-.99-7.09 2.45v25.93h2.81V23.87h3.52v-2.76h-3.52v-9.58h4.27Zm-17.72-2.49c-2.36.07-6.09-.72-6.25 2.6v25.78h2.76V23.88h3.49v13.54h2.76V11.8c0-1.7-1.09-2.76-2.76-2.76m-.08 12.03h-3.31V11.9h3.31zm-15.9 2.81c.99 0 2.31-1.28 2.31-2.98v-9.32c-.08-3.76-6.7-2.34-9.03-2.59v28.49h2.76V24.1h1.04l3.08 13.33h2.71l-2.87-13.54Zm-.58-2.82h-3.31v-9.35h3.31zm-17.86-3.32v2.41h1.33v14.83H96.3V7h3v6.94h2.64V6.9c0-1.23-1.21-2.55-2.55-2.55-2.22 0-5.34-.49-5.6 2.58v28.02c.15 3.68 5.97 2.15 8.17 2.45V17.74zM32.8 9.15v25.5h-3.3V9.15h-2.85v25.46c0 1.53 1.35 2.85 2.85 2.85h3.37c1.43 0 2.82-1.17 2.82-2.82V9.15zM12.95 4.41v2.35h2.53v30.68h2.53V6.67h2.1V4.41zm36.36 19.54c.98 0 2.28-1.26 2.28-2.95v-9.22c-.08-3.72-6.63-2.32-8.93-2.56V37.4h2.73V24.16h1.03l3.04 13.19h2.68l-2.84-13.4Zm-.54-2.76H45.5v-9.25h3.27zm19.24 3.39c-.01-1.26-1.24-2.06-1.24-2.06s1.24-.86 1.24-2.06v-8.62c0-1.62-1.33-2.68-2.69-2.68h-6.25v28.17c11.9.35 8.4-.24 8.94-12.75m-2.81 9.99h-3.28v-10.5h3.28zm0-13.42h-3.28v-9.26h3.28zM82.16 9.23c-2.58 0-6.14-.55-6.47 2.83v22.38c.33 3.66 4.24 2.97 6.76 3 1.47 0 2.94-1.63 2.94-2.94V11.97c0-1.1-1.39-2.74-3.23-2.74m.11 25.11H78.9V12.19h3.37z" class="cls-4"/><path d="m217.12 37.57 10.48-27.22h2.55l-10.51 27.22z" class="cls-7"/><path d="M163.01 164.49s2.59-3.93 2.59-5.42l.02-8.47H163l-.02 9.16-1.47 2.18-1.5-2.24.02-9.09h-2.65l-.02 8.41c0 1.56 2.77 5.45 2.77 5.45s-2.77 4.08-2.77 5.57v8.97h2.62v-9.53l1.59-2.37 1.59 2.4v9.5h2.46v-9c0-1.59-2.62-5.51-2.62-5.51Zm-12.83-11.37v-2.5c-2.19.19-6.97-.99-7.09 2.45V179h2.81v-13.54h3.52v-2.76h-3.52v-9.58h4.27Zm-17.72-2.48c-2.36.07-6.09-.72-6.25 2.6v25.78h2.76v-13.54h3.49v13.54h2.76V153.4c0-1.7-1.09-2.76-2.76-2.76m-.08 12.03h-3.31v-9.17h3.31zm-15.9 2.8c.99 0 2.31-1.28 2.31-2.98v-9.32c-.08-3.76-6.7-2.34-9.03-2.59v28.49h2.76v-13.38h1.04l3.08 13.33h2.71l-2.87-13.54Zm-.58-2.82h-3.31v-9.35h3.31zm-17.86-3.32v2.41h1.33v14.83H96.3v-27.98h3v6.94h2.64v-7.04c0-1.23-1.21-2.55-2.55-2.55-2.22 0-5.34-.49-5.6 2.58v28.02c.15 3.68 5.97 2.15 8.17 2.45v-19.66zm-65.24-8.58v25.5h-3.3v-25.5h-2.85v25.46c0 1.53 1.35 2.85 2.85 2.85h3.37c1.43 0 2.82-1.17 2.82-2.82v-25.5H32.8ZM12.95 146v2.35h2.53v30.69h2.53v-30.78h2.1V146zm36.36 19.54c.98 0 2.28-1.26 2.28-2.95v-9.22c-.08-3.72-6.63-2.32-8.93-2.56v28.18h2.73v-13.24h1.03l3.04 13.19h2.68l-2.84-13.4Zm-.54-2.76H45.5v-9.25h3.27zm19.24 3.39c-.01-1.26-1.24-2.06-1.24-2.06s1.24-.86 1.24-2.06v-8.62c0-1.62-1.33-2.68-2.69-2.68h-6.25v28.17c11.9.35 8.4-.24 8.94-12.75m-2.81 9.99h-3.28v-10.5h3.28zm0-13.42h-3.28v-9.26h3.28zm16.96-11.92c-2.58 0-6.14-.55-6.47 2.83v22.38c.33 3.66 4.24 2.97 6.76 3 1.47 0 2.94-1.63 2.94-2.94v-22.52c0-1.1-1.39-2.74-3.23-2.74Zm.11 25.11H78.9v-22.15h3.37z" class="cls-4"/><path d="m217.12 179.16 10.48-27.22h2.55l-10.51 27.22z" class="cls-7"/><path d="M163.01 117.1s2.59-3.93 2.59-5.42l.02-8.47H163l-.02 9.16-1.47 2.18-1.5-2.24.02-9.09h-2.65l-.02 8.41c0 1.56 2.77 5.45 2.77 5.45s-2.77 4.08-2.77 5.57v8.97h2.62v-9.53l1.59-2.37 1.59 2.4v9.5h2.46v-9c0-1.59-2.62-5.51-2.62-5.51Zm-12.83-11.37v-2.5c-2.19.19-6.97-.99-7.09 2.45v25.93h2.81v-13.54h3.52v-2.76h-3.52v-9.58h4.27Zm-17.72-2.49c-2.36.07-6.09-.72-6.25 2.6v25.78h2.76v-13.54h3.49v13.54h2.76V106c0-1.7-1.09-2.76-2.76-2.76m-.08 12.03h-3.31v-9.17h3.31zm-15.9 2.81c.99 0 2.31-1.28 2.31-2.98v-9.32c-.08-3.76-6.7-2.34-9.03-2.59v28.49h2.76V118.3h1.04l3.08 13.33h2.71l-2.87-13.54Zm-.58-2.82h-3.31v-9.35h3.31zm-17.86-3.32v2.41h1.33v14.83H96.3V101.2h3v6.94h2.64v-7.04c0-1.23-1.21-2.55-2.55-2.55-2.22 0-5.34-.49-5.6 2.58v28.02c.15 3.68 5.97 2.15 8.17 2.45v-19.66zm-65.24-8.59v25.5h-3.3v-25.5h-2.85v25.46c0 1.53 1.35 2.85 2.85 2.85h3.37c1.43 0 2.82-1.17 2.82-2.82v-25.5H32.8ZM12.95 98.6v2.36h2.53v30.68h2.53v-30.77h2.1V98.6zm36.36 19.55c.98 0 2.28-1.26 2.28-2.95v-9.22c-.08-3.72-6.63-2.32-8.93-2.56v28.18h2.73v-13.24h1.03l3.04 13.19h2.68l-2.84-13.4Zm-.54-2.76H45.5v-9.25h3.27zm19.24 3.39c-.01-1.26-1.24-2.06-1.24-2.06s1.24-.86 1.24-2.06v-8.62c0-1.62-1.33-2.68-2.69-2.68h-6.25v28.17c11.9.35 8.4-.24 8.94-12.75m-2.81 9.99h-3.28v-10.5h3.28zm0-13.42h-3.28v-9.26h3.28zm16.96-11.92c-2.58 0-6.14-.55-6.47 2.83v22.38c.33 3.66 4.24 2.97 6.76 3 1.47 0 2.94-1.63 2.94-2.94v-22.52c0-1.1-1.39-2.74-3.23-2.74Zm.11 25.11H78.9v-22.15h3.37zm184.52-22.01c0-.21.13-.32.53-.5l2.08-.79c.66-.25.87-.16.87.48v3.13c0 .38-.39.69-.83.84l-2 .71c-.46.16-.65.17-.65-.34zm-3.63 23.32c0 .2-.11.33-.36.41l-4.94 1.76c-.59.03-.73-.85-.13-1.22l3.82-1.47s.52-.23.52-.52v-5.35c0-.63-.19-.54-.57-.41l-3.59 1.24c-.52.05-.77-.76-.18-1.11l4.94-1.81c.34-.12.52-.05.52.44s-.03 7.83-.03 8.04m19.55-7.1c0 .08-.07.15-.26.25l-.69.37c-.23.12-.49.12-.49-.12v-.51c0-.1.05-.17.19-.27l.9-.48c.18-.07.35.05.35.33v.44Zm1.3-3.54-3.78 1.39c-.58.22-1.01.5-1.01 1.07v3.6c0 1.03.67.83.91.76l3.95-1.36c.55-.18.7-.22.7-.67v-4.34c0-.79-.39-.6-.77-.45m0 0-3.78 1.39c-.58.22-1.01.5-1.01 1.07v3.6c0 1.03.67.83.91.76l3.95-1.36c.55-.18.7-.22.7-.67v-4.34c0-.79-.39-.6-.77-.45m0 0-3.78 1.39c-.58.22-1.01.5-1.01 1.07v3.6c0 1.03.67.83.91.76l3.95-1.36c.55-.18.7-.22.7-.67v-4.34c0-.79-.39-.6-.77-.45m0 0-3.78 1.39c-.58.22-1.01.5-1.01 1.07v3.6c0 1.03.67.83.91.76l3.95-1.36c.55-.18.7-.22.7-.67v-4.34c0-.79-.39-.6-.77-.45m0 0-3.78 1.39c-.58.22-1.01.5-1.01 1.07v3.6c0 1.03.67.83.91.76l3.95-1.36c.55-.18.7-.22.7-.67v-4.34c0-.79-.39-.6-.77-.45m0 0-3.78 1.39c-.58.22-1.01.5-1.01 1.07v3.6c0 1.03.67.83.91.76l3.95-1.36c.55-.18.7-.22.7-.67v-4.34c0-.79-.39-.6-.77-.45m33.1-11.85c0-2.96-3.01-3.33-4.29-2.78l-4.65 1.6c-4.02 1.56-3.57 2.62-3.98 2.84-.42.22-.46.28-.62.16-.43-.44-2.23-.53-2.69-.37l-20.41 7.5c-3.15.86-3.58 2.01-4.34 2.84-.44.21-.44.19-.57.1-1.02-.58-2.27-.47-3.16-.15l-4.85 1.81c-.65.27-.83-.01-.83-.67V116c0-.42.34-.54.83-.73l3.46-1.29c2.74-1.21 4.6-3.43 4.6-7.18v-3.77c0-3.08-2.99-3.74-4.91-3.11l-9.3 3.36v11.79l-9.72 3.62c-.43.15-.52.45-.52.77v20.52c0 .89.27 1.08.83.88l17.42-6.46v-7.33c0-.58 1.29-1.17 1.29-.62v7.07c0 .48.26.52.52.41l5.63-2.17c.36-.2.34-.6.46-.65.27.1 1.27.02 1.27.02 1.07-.01 2.71-.87 2.71-.87.55-.18.79-.23.52.36-.25.55-.84.87-1.24 1.09-.89.4-2.95.98-2.95.98-.58.18-.62.42-.62.73v5.52c0 .49.35.55.57.47l4.71-1.65c4.41-2.17 6.92-5.33 6.92-10.29l7.86-2.89c.48-.19.62-.19.62-.73v-7.08c0-.64 1.08-.83 1.08-.31v6.93c0 .45.11.44.47.31l5.63-2.02c.36-.16.29-.83.46-.83h1.81c.36 0 9.31-3.35 9.31-3.35.46-.17.62-.32.62-.78v-4.81c0-.5-.37-.82-.37-.82s.42-.57.42-2.02zm-54.01 27.19c0 .31-.07.28-.31.36-.23.09-9.2 3.31-9.2 3.31-.39.14-.57.09-.57-.46v-16.85c0-.37.08-.64.37-.73l7.21-2.51c.63-.21.74-.08.74.34v1.45c0 .39-.07.32-.46.47l-5.12 1.91c-.48.18-.41.27-.41.46v4.34c0 .52.07.64.62.42l3.25-1.19c.67-.24.83-.03.83.26v1.45c0 .33-.35.46-.62.56 0 0-3.65 1.34-3.82 1.4s-.26.07-.26.52v4.39c0 .62.17.53.62.36l6.56-2.38c.5-.17.57.04.57.57zm11.99-4.58c0 .43-.06.43-.35.54l-1.63.58c-.24.07-.38.06-.38-.39v-6.51c0-.64-.44-.7-.66-.62l-4.27 1.59c-.31.11-.42.34-.42.66v7.09c0 .24 0 .3-.27.39l-1.67.54c-.21.07-.27.03-.27-.35v-9.38c0-.34.14-.41.42-.5l7.37-2.72c.35-.13 2.13-.51 2.13 1.59zm11.98-.9c0 2.25-2.81 5.64-4.34 6.32l-3.14 1.28c-.26.1-.54.08-.54-.35v-1.94l2.13-.89c3.05-1.34 3.6-3.72 3.6-5.81 0-.62-.32-.61-.97-.39l-4.84 1.67c-1.03.28-1.82-.01-1.82-1.82v-6.01c0-.84.59-1.43 1.43-1.79l7.79-3.33c.42-.18.7-.12.7.35zm4.43-4.91c0 .26-.12.4-.41.49l-1.45.5c-.3.11-.46.05-.46-.42v-9.3c0-.33.07-.35.23-.41l1.44-.55c.46-.17.65-.12.65.39zm11.54-4.31c0 .43-.06.43-.35.54l-1.63.58c-.24.07-.39.06-.39-.38v-6.52c0-.64-.43-.69-.66-.62l-3.91 1.4c-.31.12-.43.34-.43.66v7.09c0 .24 0 .3-.27.39l-1.66.54c-.22.07-.28.03-.28-.35v-9.38c0-.34.15-.41.43-.5l7.02-2.52c.35-.14 2.13-.51 2.13 1.59zm12.13-4.3c0 .4-.16.4-.7.62l-7.13 2.48c-.73.24-2.17.17-2.17-1.67v-5.16c0-1.82 1.96-3.25 2.95-3.6l4.84-1.71c.89-.32 2.17-.09 2.17 1.32v1.79c0 1.42-1.27 2.57-2.17 2.9l-5.08 1.86c-.76.28-.48 1.82.35 1.51l6.13-2.2c.39-.16.81-.29.81.34zm-7.1-3.51 4.28-1.7c.23-.09.3-.17.3-.6 0-.65-.54-.62-.95-.48l-3.65 1.43c-.44.18-.54.48-.54.65 0 .44.15.86.56.7m-24.06 7.17-3.78 1.39c-.58.22-1.01.5-1.01 1.07v3.6c0 1.03.67.83.91.76l3.95-1.36c.55-.18.7-.22.7-.67v-4.34c0-.79-.39-.6-.77-.45m0 0-3.78 1.39c-.58.22-1.01.5-1.01 1.07v3.6c0 1.03.67.83.91.76l3.95-1.36c.55-.18.7-.22.7-.67v-4.34c0-.79-.39-.6-.77-.45m0 0-3.78 1.39c-.58.22-1.01.5-1.01 1.07v3.6c0 1.03.67.83.91.76l3.95-1.36c.55-.18.7-.22.7-.67v-4.34c0-.79-.39-.6-.77-.45m0 0-3.78 1.39c-.58.22-1.01.5-1.01 1.07v3.6c0 1.03.67.83.91.76l3.95-1.36c.55-.18.7-.22.7-.67v-4.34c0-.79-.39-.6-.77-.45m0 0-3.78 1.39c-.58.22-1.01.5-1.01 1.07v3.6c0 1.03.67.83.91.76l3.95-1.36c.55-.18.7-.22.7-.67v-4.34c0-.79-.39-.6-.77-.45" class="cls-4"/><path d="m286.05 100.91 4.5-1.6c.45-.17.36-1.15.36-1.34 0-2.97-2.6-4.33-4.44-3.67l-4.34 1.5c-2.55.96-5.17 2.35-5.74 6.67v8.32c0 5.13 4.01 4.2 5.58 3.62 1.58-.58 6.89-2.53 7.34-2.7 1.24-.47 2.17-1.73 1.98-3.36-.13-1.01-.28-2.03-.43-3.04-.05-.3-.07-.59-.41-.47l-4.34 1.6c-.41.16-.67.22-.67.72s.04.92-.7 1.16c0 0-2.05.71-2.3.8s-.65.13-.65-.59v-7.21c0-.35.13-.5.59-.67.47-.17 2.46-.85 2.46-.85.38-.12.67-.13.67.28v.44c0 .6.23.5.54.39" class="cls-4"/><path d="M259.85 108.56v.93c-26.51 10.29-22.07 19.54-9.72 22.89v.72c-16.43-3.67-14.73-16.23 9.72-24.55Zm23.08-5.45v.85c57.6-7.03 54.6 18.19 6.82 27.68l-.56 1.14c52.48-10.11 50.2-37.61-6.26-29.67" class="cls-4"/><path d="m287.38 109.7-8.8 9.65c-.18.23-.08.31.16.19l11.4-7.13c.21-.14.25-.17.43-.12.17.05 4.26 2.98 4.26 2.98.29.19.44.11.35-.12l-2.13-4.65c-.12-.25-.16-.42-.04-.54l8.61-9.38c.22-.31.1-.47-.27-.27l-10.66 6.63c-.25.15-.39.14-.54.04l-3.95-2.67c-.42-.23-.54-.14-.43.31l1.78 4.42c.12.24.05.43-.16.66Zm-3.37-85.83-3.78 1.39c-.58.22-1.01.5-1.01 1.07v3.6c0 1.03.67.83.91.76l3.95-1.36c.55-.18.7-.22.7-.67v-4.34c0-.79-.39-.6-.77-.45m-1.3 3.54c0 .07-.07.14-.26.25l-.69.37c-.23.11-.5.11-.5-.12v-.51c0-.1.05-.18.2-.28l.9-.48c.18-.07.35.05.35.33zm1.3-3.54-3.78 1.39c-.58.22-1.01.5-1.01 1.07v3.6c0 1.03.67.83.91.76l3.95-1.36c.55-.18.7-.22.7-.67v-4.34c0-.79-.39-.6-.77-.45m-1.3 3.54c0 .07-.07.14-.26.25l-.69.37c-.23.11-.5.11-.5-.12v-.51c0-.1.05-.18.2-.28l.9-.48c.18-.07.35.05.35.33zm1.3-3.54-3.78 1.39c-.58.22-1.01.5-1.01 1.07v3.6c0 1.03.67.83.91.76l3.95-1.36c.55-.18.7-.22.7-.67v-4.34c0-.79-.39-.6-.77-.45m-1.3 3.54c0 .07-.07.14-.26.25l-.69.37c-.23.11-.5.11-.5-.12v-.51c0-.1.05-.18.2-.28l.9-.48c.18-.07.35.05.35.33zm1.3-3.54-3.78 1.39c-.58.22-1.01.5-1.01 1.07v3.6c0 1.03.67.83.91.76l3.95-1.36c.55-.18.7-.22.7-.67v-4.34c0-.79-.39-.6-.77-.45m-1.3 3.54c0 .07-.07.14-.26.25l-.69.37c-.23.11-.5.11-.5-.12v-.51c0-.1.05-.18.2-.28l.9-.48c.18-.07.35.05.35.33zm1.3-3.54-3.78 1.39c-.58.22-1.01.5-1.01 1.07v3.6c0 1.03.67.83.91.76l3.95-1.36c.55-.18.7-.22.7-.67v-4.34c0-.79-.39-.6-.77-.45m-1.3 3.54c0 .07-.07.14-.26.25l-.69.37c-.23.11-.5.11-.5-.12v-.51c0-.1.05-.18.2-.28l.9-.48c.18-.07.35.05.35.33zm28.99-13.49-3.65 1.43c-.44.18-.54.48-.54.65 0 .44.15.86.56.7l4.28-1.7c.23-.09.3-.17.3-.6 0-.65-.54-.62-.95-.48m0 0-3.65 1.43c-.44.18-.54.48-.54.65 0 .44.15.86.56.7l4.28-1.7c.23-.09.3-.17.3-.6 0-.65-.54-.62-.95-.48m-27.69 9.95-3.78 1.39c-.58.22-1.01.5-1.01 1.07v3.6c0 1.03.67.83.91.76l3.95-1.36c.55-.18.7-.22.7-.67v-4.34c0-.79-.39-.6-.77-.45m-1.3 3.54c0 .07-.07.14-.26.25l-.69.37c-.23.11-.5.11-.5-.12v-.51c0-.1.05-.18.2-.28l.9-.48c.18-.07.35.05.35.33zm34.4-15.39c0-2.96-3.01-3.33-4.29-2.78l-4.65 1.6c-4.02 1.56-3.57 2.62-3.98 2.84-.42.22-.46.28-.62.16-.43-.44-2.23-.53-2.69-.37l-7.38 2.71-2.62.97-2.1.77-7 2.57-1.31.48c-3.15.86-3.58 2.01-4.34 2.84-.44.21-.44.19-.57.1-1.02-.58-2.27-.47-3.16-.15l-4.85 1.81c-.65.27-.83-.01-.83-.67v-4.24c0-.42.34-.54.83-.73l3.46-1.29c2.74-1.21 4.6-3.43 4.6-7.18V7.69c0-3.08-2.99-3.74-4.91-3.11l-9.3 3.36v11.79l-9.72 3.62c-.43.15-.52.45-.52.77v20.52c0 .89.27 1.08.83.88l17.42-6.46v-7.33c0-.58 1.29-1.17 1.29-.62v7.07c0 .48.26.52.52.41l5.63-2.17c.36-.2.34-.6.46-.65.27.1 1.27.02 1.27.02 1.07-.01 2.71-.87 2.71-.87.55-.18.79-.23.52.36-.25.55-.84.87-1.24 1.09-.89.4-2.95.98-2.95.98-.58.18-.62.42-.62.73v5.52c0 .49.35.55.57.47l4.71-1.65c4.41-2.17 6.92-5.33 6.92-10.29l7.86-2.89c.48-.19.62-.19.62-.73v-7.08c0-.64 1.08-.83 1.08-.31v6.93c0 .45.11.44.47.31l5.63-2.02c.36-.16.29-.83.46-.83h1.81c.36 0 9.31-3.35 9.31-3.35.46-.17.62-.32.62-.78v-4.81c0-.5-.37-.82-.37-.82s.42-.57.42-2.02zm-50.33-.83c0-.21.13-.33.53-.51l2.08-.78c.66-.26.87-.17.87.47v3.13c0 .38-.39.69-.83.84l-2 .71c-.46.17-.65.18-.65-.34zm-3.68 28.02c0 .31-.07.28-.31.36-.23.09-9.2 3.31-9.2 3.31-.39.14-.57.09-.57-.46V25.57c0-.37.08-.64.37-.73l7.21-2.51c.63-.21.74-.08.74.34v1.45c0 .39-.07.32-.46.47l-5.12 1.91c-.48.18-.41.27-.41.46v4.34c0 .52.07.64.62.42l3.25-1.19c.67-.24.83-.03.83.26v1.45c0 .33-.35.46-.62.56 0 0-3.65 1.34-3.82 1.4s-.26.07-.26.52v4.39c0 .62.17.53.62.36l6.56-2.38c.5-.17.57.04.57.57zm.05-4.7c0 .2-.1.33-.36.41l-4.93 1.76c-.6.03-.73-.85-.13-1.21l3.82-1.48s.52-.23.52-.51v-5.35c0-.63-.2-.54-.57-.42l-3.59 1.24c-.52.05-.78-.76-.18-1.11l4.93-1.81c.34-.12.52-.05.52.44s-.03 7.84-.03 8.04m11.94.12c0 .43-.06.43-.35.54l-1.63.58c-.24.07-.38.06-.38-.39v-6.51c0-.64-.44-.7-.66-.62l-4.27 1.59c-.31.11-.42.34-.42.66v7.09c0 .24 0 .3-.27.39l-1.67.54c-.21.07-.27.03-.27-.35v-9.38c0-.34.14-.41.42-.5l7.37-2.72c.35-.13 2.13-.51 2.13 1.59zm11.98-.9c0 2.25-2.81 5.64-4.34 6.32l-3.14 1.28c-.26.1-.54.08-.54-.35v-1.94l2.13-.89c3.05-1.34 3.6-3.72 3.6-5.81 0-.62-.32-.61-.97-.39l-4.84 1.67c-1.03.28-1.82-.01-1.82-1.82v-6.01c0-.84.59-1.43 1.43-1.79l1.51-.65 6.28-2.68c.42-.18.7-.12.7.35zm4.43-4.91c0 .26-.12.4-.41.49l-1.45.5c-.3.11-.46.05-.46-.42v-9.3c0-.33.07-.35.23-.41l1.44-.55c.46-.17.65-.12.65.39zm11.54-4.31c0 .43-.06.43-.35.54l-1.63.58c-.24.07-.39.06-.39-.38v-6.52c0-.64-.43-.69-.66-.62l-3.91 1.4c-.31.12-.43.34-.43.66v7.09c0 .24 0 .3-.27.39l-1.66.54c-.22.07-.28.03-.28-.35v-9.38c0-.34.15-.41.43-.5l.37-.13 6.65-2.39c.35-.14 2.13-.51 2.13 1.59zm12.13-4.3c0 .4-.16.4-.7.62l-7.13 2.48c-.73.24-2.17.17-2.17-1.67v-5.16c0-1.82 1.96-3.25 2.95-3.6l4.84-1.71c.89-.32 2.17-.09 2.17 1.32v1.79c0 1.42-1.27 2.57-2.17 2.9l-5.08 1.86c-.76.28-.48 1.82.35 1.51l6.13-2.2c.39-.16.81-.29.81.34zm-7.1-3.51 4.28-1.7c.23-.09.3-.17.3-.6 0-.65-.54-.62-.95-.48l-3.65 1.43c-.44.18-.54.48-.54.65 0 .44.15.86.56.7m-24.06 7.17-3.78 1.39c-.58.22-1.01.5-1.01 1.07v3.6c0 1.03.67.83.91.76l3.95-1.36c.55-.18.7-.22.7-.67v-4.34c0-.79-.39-.6-.77-.45m-1.3 3.54c0 .07-.07.14-.26.25l-.69.37c-.23.11-.5.11-.5-.12v-.51c0-.1.05-.18.2-.28l.9-.48c.18-.07.35.05.35.33zm1.3-3.54-3.78 1.39c-.58.22-1.01.5-1.01 1.07v3.6c0 1.03.67.83.91.76l3.95-1.36c.55-.18.7-.22.7-.67v-4.34c0-.79-.39-.6-.77-.45m-1.3 3.54c0 .07-.07.14-.26.25l-.69.37c-.23.11-.5.11-.5-.12v-.51c0-.1.05-.18.2-.28l.9-.48c.18-.07.35.05.35.33zm1.3-3.54-3.78 1.39c-.58.22-1.01.5-1.01 1.07v3.6c0 1.03.67.83.91.76l3.95-1.36c.55-.18.7-.22.7-.67v-4.34c0-.79-.39-.6-.77-.45m-1.3 3.54c0 .07-.07.14-.26.25l-.69.37c-.23.11-.5.11-.5-.12v-.51c0-.1.05-.18.2-.28l.9-.48c.18-.07.35.05.35.33zm1.3-3.54-3.78 1.39c-.58.22-1.01.5-1.01 1.07v3.6c0 1.03.67.83.91.76l3.95-1.36c.55-.18.7-.22.7-.67v-4.34c0-.79-.39-.6-.77-.45m-1.3 3.54c0 .07-.07.14-.26.25l-.69.37c-.23.11-.5.11-.5-.12v-.51c0-.1.05-.18.2-.28l.9-.48c.18-.07.35.05.35.33zm1.3-3.54-3.78 1.39c-.58.22-1.01.5-1.01 1.07v3.6c0 1.03.67.83.91.76l3.95-1.36c.55-.18.7-.22.7-.67v-4.34c0-.79-.39-.6-.77-.45m-1.3 3.54c0 .07-.07.14-.26.25l-.69.37c-.23.11-.5.11-.5-.12v-.51c0-.1.05-.18.2-.28l.9-.48c.18-.07.35.05.35.33zm1.3-3.54-3.78 1.39c-.58.22-1.01.5-1.01 1.07v3.6c0 1.03.67.83.91.76l3.95-1.36c.55-.18.7-.22.7-.67v-4.34c0-.79-.39-.6-.77-.45m-1.3 3.54c0 .07-.07.14-.26.25l-.69.37c-.23.11-.5.11-.5-.12v-.51c0-.1.05-.18.2-.28l.9-.48c.18-.07.35.05.35.33zm1.3-3.54-3.78 1.39c-.58.22-1.01.5-1.01 1.07v3.6c0 1.03.67.83.91.76l3.95-1.36c.55-.18.7-.22.7-.67v-4.34c0-.79-.39-.6-.77-.45m-1.3 3.54c0 .07-.07.14-.26.25l-.69.37c-.23.11-.5.11-.5-.12v-.51c0-.1.05-.18.2-.28l.9-.48c.18-.07.35.05.35.33z" class="cls-4"/><path d="M289.31 16.36c-.34.13-3.46 1.27-5.65 2.07-.71.26-1.31.48-1.7.63-1.57.58-5.58 1.51-5.58-3.62V7.12c.57-4.32 3.19-5.71 5.74-6.67l1.22-.42h6.69c.53.64.88 1.51.88 2.59 0 .2.08 1.17-.37 1.35l-4.49 1.6c-.32.11-.55.21-.55-.39v-.44c0-.42-.28-.41-.67-.28 0 0-1.99.68-2.45.85-.47.17-.6.32-.6.67v7.21c0 .73.4.69.65.59.25-.09 2.3-.8 2.3-.8.74-.24.7-.66.7-1.16s.26-.57.67-.72l.33-.12 1.76-.66 2.25-.83c.35-.12.36.17.41.47l.21 1.4c.08.54.15 1.09.22 1.64.19 1.62-.74 2.89-1.97 3.36" class="cls-4"/><path d="M300.58 6.35c-.49 0-.98 0-1.49.02-4.77.1-10.16.54-16.17 1.39v.86c5.31-.65 10.11-1.02 14.41-1.16.78-.02 1.54-.04 2.28-.05 39.72-.51 32.7 20.43-9.87 28.88l-.56 1.15c46.31-8.92 49.98-31.39 11.4-31.09m-40.73 7.8v-.93c-24.45 8.32-26.16 20.88-9.72 24.55v-.73c-12.35-3.36-16.8-12.61 9.72-22.89" class="cls-4"/><path d="m287.38 14.36-8.8 9.65c-.18.23-.08.31.16.19l11.4-7.13c.21-.14.25-.17.43-.12.17.05 4.26 2.98 4.26 2.98.29.19.44.11.35-.12l-2.13-4.65c-.12-.25-.16-.42-.04-.54l8.61-9.38c.22-.31.1-.47-.27-.27l-10.66 6.63c-.25.15-.39.14-.54.04l-3.95-2.67c-.42-.23-.54-.14-.43.31l1.78 4.42c.12.24.05.43-.16.66Zm-20.59 139.81c0-.21.13-.32.53-.5l2.08-.79c.66-.25.87-.16.87.48v3.13c0 .38-.39.69-.83.84l-2 .71c-.46.16-.65.17-.65-.34zm-3.63 23.32c0 .2-.11.33-.36.41l-4.94 1.76c-.59.03-.73-.85-.13-1.22l3.82-1.47s.52-.23.52-.52v-5.35c0-.63-.19-.54-.57-.41l-3.59 1.24c-.52.05-.77-.76-.18-1.11l4.94-1.81c.34-.12.52-.05.52.44s-.03 7.83-.03 8.04m19.55-7.1c0 .08-.07.15-.26.25l-.69.37c-.23.12-.49.12-.49-.12v-.51c0-.1.05-.17.19-.27l.9-.48c.18-.07.35.05.35.33v.44Zm1.3-3.54-3.78 1.39c-.58.22-1.01.5-1.01 1.07v3.6c0 1.03.67.83.91.76l3.95-1.36c.55-.18.7-.22.7-.67v-4.34c0-.79-.39-.6-.77-.45m0 0-3.78 1.39c-.58.22-1.01.5-1.01 1.07v3.6c0 1.03.67.83.91.76l3.95-1.36c.55-.18.7-.22.7-.67v-4.34c0-.79-.39-.6-.77-.45m0 0-3.78 1.39c-.58.22-1.01.5-1.01 1.07v3.6c0 1.03.67.83.91.76l3.95-1.36c.55-.18.7-.22.7-.67v-4.34c0-.79-.39-.6-.77-.45m0 0-3.78 1.39c-.58.22-1.01.5-1.01 1.07v3.6c0 1.03.67.83.91.76l3.95-1.36c.55-.18.7-.22.7-.67v-4.34c0-.79-.39-.6-.77-.45m0 0-3.78 1.39c-.58.22-1.01.5-1.01 1.07v3.6c0 1.03.67.83.91.76l3.95-1.36c.55-.18.7-.22.7-.67v-4.34c0-.79-.39-.6-.77-.45m0 0-3.78 1.39c-.58.22-1.01.5-1.01 1.07v3.6c0 1.03.67.83.91.76l3.95-1.36c.55-.18.7-.22.7-.67v-4.34c0-.79-.39-.6-.77-.45m33.1-11.85c0-2.96-3.01-3.33-4.29-2.78l-4.65 1.6c-4.02 1.56-3.57 2.62-3.98 2.84-.42.22-.46.28-.62.16-.43-.44-2.23-.53-2.69-.37l-20.41 7.5c-3.15.86-3.58 2.01-4.34 2.84-.44.21-.44.19-.57.1-1.02-.58-2.27-.47-3.16-.15l-4.85 1.81c-.65.27-.83-.01-.83-.67v-4.24c0-.42.34-.54.83-.73l3.46-1.29c2.74-1.21 4.6-3.43 4.6-7.18v-3.77c0-3.08-2.99-3.74-4.91-3.11l-9.3 3.36v11.79l-9.72 3.62c-.43.15-.52.45-.52.77v20.52c0 .89.27 1.08.83.88l17.42-6.46v-7.33c0-.58 1.29-1.17 1.29-.62v7.07c0 .48.26.52.52.41l5.63-2.17c.36-.2.34-.6.46-.65.27.1 1.27.02 1.27.02 1.07-.01 2.71-.87 2.71-.87.55-.18.79-.23.52.36-.25.55-.84.87-1.24 1.09-.89.4-2.95.98-2.95.98-.58.18-.62.42-.62.73v5.52c0 .49.35.55.57.47l4.71-1.65c4.41-2.17 6.92-5.33 6.92-10.29l7.86-2.89c.48-.19.62-.19.62-.73v-7.08c0-.64 1.08-.83 1.08-.31v6.93c0 .45.11.44.47.31l5.63-2.02c.36-.16.29-.83.46-.83h1.81c.36 0 9.31-3.35 9.31-3.35.46-.17.62-.32.62-.78v-4.81c0-.5-.37-.82-.37-.82s.42-.57.42-2.02zm-54.01 27.19c0 .31-.07.28-.31.36-.23.09-9.2 3.31-9.2 3.31-.39.14-.57.09-.57-.46v-16.85c0-.37.08-.64.37-.73l7.21-2.51c.63-.21.74-.08.74.34v1.45c0 .39-.07.32-.46.47l-5.12 1.91c-.48.18-.41.27-.41.46v4.34c0 .52.07.64.62.42l3.25-1.19c.67-.24.83-.03.83.26v1.45c0 .33-.35.46-.62.56 0 0-3.65 1.34-3.82 1.4s-.26.07-.26.52v4.39c0 .62.17.53.62.36l6.56-2.38c.5-.17.57.04.57.57zm11.99-4.58c0 .43-.06.43-.35.54l-1.63.58c-.24.07-.38.06-.38-.39v-6.51c0-.64-.44-.7-.66-.62l-4.27 1.59c-.31.11-.42.34-.42.66v7.09c0 .24 0 .3-.27.39l-1.67.54c-.21.07-.27.03-.27-.35v-9.38c0-.34.14-.41.42-.5l7.37-2.72c.35-.13 2.13-.51 2.13 1.59zm11.98-.9c0 2.25-2.81 5.64-4.34 6.32l-3.14 1.28c-.26.1-.54.08-.54-.35v-1.94l2.13-.89c3.05-1.34 3.6-3.72 3.6-5.81 0-.62-.32-.61-.97-.39l-4.84 1.67c-1.03.28-1.82-.01-1.82-1.82v-6.01c0-.84.59-1.43 1.43-1.79l7.79-3.33c.42-.18.7-.12.7.35zm4.43-4.91c0 .26-.12.4-.41.49l-1.45.5c-.3.11-.46.05-.46-.42v-9.3c0-.33.07-.35.23-.41l1.44-.55c.46-.17.65-.12.65.39zm11.54-4.31c0 .43-.06.43-.35.54l-1.63.58c-.24.07-.39.06-.39-.38v-6.52c0-.64-.43-.69-.66-.62l-3.91 1.4c-.31.12-.43.34-.43.66v7.09c0 .24 0 .3-.27.39l-1.66.54c-.22.07-.28.03-.28-.35v-9.38c0-.34.15-.41.43-.5l7.02-2.52c.35-.14 2.13-.51 2.13 1.59zm12.13-4.3c0 .4-.16.4-.7.62l-7.13 2.48c-.73.24-2.17.17-2.17-1.67v-5.16c0-1.82 1.96-3.25 2.95-3.6l4.84-1.71c.89-.32 2.17-.09 2.17 1.32v1.79c0 1.42-1.27 2.57-2.17 2.9l-5.08 1.86c-.76.28-.48 1.82.35 1.51l6.13-2.2c.39-.16.81-.29.81.34zm-7.1-3.51 4.28-1.7c.23-.09.3-.17.3-.6 0-.65-.54-.62-.95-.48l-3.65 1.43c-.44.18-.54.48-.54.65 0 .44.15.86.56.7m-24.06 7.17-3.78 1.39c-.58.22-1.01.5-1.01 1.07v3.6c0 1.03.67.83.91.76l3.95-1.36c.55-.18.7-.22.7-.67v-4.34c0-.79-.39-.6-.77-.45m0 0-3.78 1.39c-.58.22-1.01.5-1.01 1.07v3.6c0 1.03.67.83.91.76l3.95-1.36c.55-.18.7-.22.7-.67v-4.34c0-.79-.39-.6-.77-.45m0 0-3.78 1.39c-.58.22-1.01.5-1.01 1.07v3.6c0 1.03.67.83.91.76l3.95-1.36c.55-.18.7-.22.7-.67v-4.34c0-.79-.39-.6-.77-.45m0 0-3.78 1.39c-.58.22-1.01.5-1.01 1.07v3.6c0 1.03.67.83.91.76l3.95-1.36c.55-.18.7-.22.7-.67v-4.34c0-.79-.39-.6-.77-.45m0 0-3.78 1.39c-.58.22-1.01.5-1.01 1.07v3.6c0 1.03.67.83.91.76l3.95-1.36c.55-.18.7-.22.7-.67v-4.34c0-.79-.39-.6-.77-.45" class="cls-4"/><path d="m286.05 148.55 4.5-1.6c.45-.17.36-1.15.36-1.34 0-2.97-2.6-4.33-4.44-3.67l-4.34 1.5c-2.55.96-5.17 2.35-5.74 6.67v8.32c0 5.13 4.01 4.2 5.58 3.62 1.58-.58 6.89-2.53 7.34-2.7 1.24-.47 2.17-1.73 1.98-3.36-.13-1.01-.28-2.03-.43-3.04-.05-.3-.07-.59-.41-.47l-4.34 1.6c-.41.16-.67.22-.67.72s.04.92-.7 1.16c0 0-2.05.71-2.3.8s-.65.13-.65-.59v-7.21c0-.35.13-.5.59-.67.47-.17 2.46-.85 2.46-.85.38-.12.67-.13.67.28v.44c0 .6.23.5.54.39" class="cls-4"/><path d="M259.85 156.2v.93c-26.51 10.29-22.07 19.54-9.72 22.89v.72c-16.43-3.67-14.73-16.23 9.72-24.55Zm23.08-5.45v.85c57.6-7.03 54.6 18.19 6.82 27.68l-.56 1.14c52.48-10.11 50.2-37.61-6.26-29.67" class="cls-4"/><path d="m287.38 157.34-8.8 9.65c-.18.23-.08.31.16.19l11.4-7.13c.21-.14.25-.17.43-.12.17.05 4.26 2.98 4.26 2.98.29.19.44.11.35-.12l-2.13-4.65c-.12-.25-.16-.42-.04-.54l8.61-9.38c.22-.31.1-.47-.27-.27l-10.66 6.63c-.25.15-.39.14-.54.04l-3.95-2.67c-.42-.23-.54-.14-.43.31l1.78 4.42c.12.24.05.43-.16.66Zm-20.59 43.84c0-.21.13-.32.53-.5l2.08-.79c.66-.25.87-.16.87.48v3.13c0 .38-.39.69-.83.84l-2 .71c-.46.16-.65.17-.65-.34zm-3.63 23.32c0 .2-.11.33-.36.41l-4.94 1.76c-.59.03-.73-.85-.13-1.22l3.82-1.47s.52-.23.52-.52v-5.35c0-.63-.19-.54-.57-.41l-3.59 1.24c-.52.05-.77-.76-.18-1.11l4.94-1.81c.34-.12.52-.05.52.44s-.03 7.83-.03 8.04m19.55-7.1c0 .08-.07.15-.26.25l-.69.37c-.23.12-.49.12-.49-.12v-.51c0-.1.05-.17.19-.27l.9-.48c.18-.07.35.05.35.33v.44Zm1.3-3.54-3.78 1.39c-.58.22-1.01.5-1.01 1.07v3.6c0 1.03.67.83.91.76l3.95-1.36c.55-.18.7-.22.7-.67v-4.34c0-.79-.39-.6-.77-.45m0 0-3.78 1.39c-.58.22-1.01.5-1.01 1.07v3.6c0 1.03.67.83.91.76l3.95-1.36c.55-.18.7-.22.7-.67v-4.34c0-.79-.39-.6-.77-.45m0 0-3.78 1.39c-.58.22-1.01.5-1.01 1.07v3.6c0 1.03.67.83.91.76l3.95-1.36c.55-.18.7-.22.7-.67v-4.34c0-.79-.39-.6-.77-.45m0 0-3.78 1.39c-.58.22-1.01.5-1.01 1.07v3.6c0 1.03.67.83.91.76l3.95-1.36c.55-.18.7-.22.7-.67v-4.34c0-.79-.39-.6-.77-.45m0 0-3.78 1.39c-.58.22-1.01.5-1.01 1.07v3.6c0 1.03.67.83.91.76l3.95-1.36c.55-.18.7-.22.7-.67v-4.34c0-.79-.39-.6-.77-.45m0 0-3.78 1.39c-.58.22-1.01.5-1.01 1.07v3.6c0 1.03.67.83.91.76l3.95-1.36c.55-.18.7-.22.7-.67v-4.34c0-.79-.39-.6-.77-.45m33.1-11.85c0-2.96-3.01-3.33-4.29-2.78l-4.65 1.6c-4.02 1.56-3.57 2.62-3.98 2.84-.42.22-.46.28-.62.16-.43-.44-2.23-.53-2.69-.37l-20.41 7.5c-3.15.86-3.58 2.01-4.34 2.84-.44.21-.44.19-.57.1-1.02-.58-2.27-.47-3.16-.15l-4.85 1.81c-.65.27-.83-.01-.83-.67v-4.24c0-.42.34-.54.83-.73l3.46-1.29c2.74-1.21 4.6-3.43 4.6-7.18v-3.77c0-3.08-2.99-3.74-4.91-3.11l-9.3 3.36v11.79l-9.72 3.62c-.43.15-.52.45-.52.77v20.52c0 .89.27 1.08.83.88l17.42-6.46v-7.33c0-.58 1.29-1.17 1.29-.62v7.07c0 .48.26.52.52.41l5.63-2.17c.36-.2.34-.6.46-.65.27.1 1.27.02 1.27.02 1.07-.01 2.71-.87 2.71-.87.55-.18.79-.23.52.36-.25.55-.84.87-1.24 1.09-.89.4-2.95.98-2.95.98-.58.18-.62.42-.62.73v5.52c0 .49.35.55.57.47l4.71-1.65c4.41-2.17 6.92-5.33 6.92-10.29l7.86-2.89c.48-.19.62-.19.62-.73v-7.08c0-.64 1.08-.83 1.08-.31v6.93c0 .45.11.44.47.31l5.63-2.02c.36-.16.29-.83.46-.83h1.81c.36 0 9.31-3.35 9.31-3.35.46-.17.62-.32.62-.78v-4.81c0-.5-.37-.82-.37-.82s.42-.57.42-2.02zM263.1 229.2c0 .31-.07.28-.31.36-.23.09-9.2 3.31-9.2 3.31-.39.14-.57.09-.57-.46v-16.85c0-.37.08-.64.37-.73l7.21-2.51c.63-.21.74-.08.74.34v1.45c0 .39-.07.32-.46.47l-5.12 1.91c-.48.18-.41.27-.41.46v4.34c0 .52.07.64.62.42l3.25-1.19c.67-.24.83-.03.83.26v1.45c0 .33-.35.46-.62.56 0 0-3.65 1.34-3.82 1.4s-.26.07-.26.52v4.39c0 .62.17.53.62.36l6.56-2.38c.5-.17.57.04.57.57zm11.99-4.58c0 .43-.06.43-.35.54l-1.63.58c-.24.07-.38.06-.38-.39v-6.51c0-.64-.44-.7-.66-.62l-4.27 1.59c-.31.11-.42.34-.42.66v7.09c0 .24 0 .3-.27.39l-1.67.54c-.21.07-.27.03-.27-.35v-9.38c0-.34.14-.41.42-.5l7.37-2.72c.35-.13 2.13-.51 2.13 1.59zm11.98-.9c0 2.25-2.81 5.64-4.34 6.32l-3.14 1.28c-.26.1-.54.08-.54-.35v-1.94l2.13-.89c3.05-1.34 3.6-3.72 3.6-5.81 0-.62-.32-.61-.97-.39l-4.84 1.67c-1.03.28-1.82-.01-1.82-1.82v-6.01c0-.84.59-1.43 1.43-1.79l7.79-3.33c.42-.18.7-.12.7.35zm4.43-4.91c0 .26-.12.4-.41.49l-1.45.5c-.3.11-.46.05-.46-.42v-9.3c0-.33.07-.35.23-.41l1.44-.55c.46-.17.65-.12.65.39zm11.54-4.31c0 .43-.06.43-.35.54l-1.63.58c-.24.07-.39.06-.39-.38v-6.52c0-.64-.43-.69-.66-.62l-3.91 1.4c-.31.12-.43.34-.43.66v7.09c0 .24 0 .3-.27.39l-1.66.54c-.22.07-.28.03-.28-.35v-9.38c0-.34.15-.41.43-.5l7.02-2.52c.35-.14 2.13-.51 2.13 1.59zm12.13-4.3c0 .4-.16.4-.7.62l-7.13 2.48c-.73.24-2.17.17-2.17-1.67v-5.16c0-1.82 1.96-3.25 2.95-3.6l4.84-1.71c.89-.32 2.17-.09 2.17 1.32v1.79c0 1.42-1.27 2.57-2.17 2.9l-5.08 1.86c-.76.28-.48 1.82.35 1.51l6.13-2.2c.39-.16.81-.29.81.34zm-7.1-3.51 4.28-1.7c.23-.09.3-.17.3-.6 0-.65-.54-.62-.95-.48l-3.65 1.43c-.44.18-.54.48-.54.65 0 .44.15.86.56.7m-24.06 7.17-3.78 1.39c-.58.22-1.01.5-1.01 1.07v3.6c0 1.03.67.83.91.76l3.95-1.36c.55-.18.7-.22.7-.67v-4.34c0-.79-.39-.6-.77-.45m0 0-3.78 1.39c-.58.22-1.01.5-1.01 1.07v3.6c0 1.03.67.83.91.76l3.95-1.36c.55-.18.7-.22.7-.67v-4.34c0-.79-.39-.6-.77-.45m0 0-3.78 1.39c-.58.22-1.01.5-1.01 1.07v3.6c0 1.03.67.83.91.76l3.95-1.36c.55-.18.7-.22.7-.67v-4.34c0-.79-.39-.6-.77-.45m0 0-3.78 1.39c-.58.22-1.01.5-1.01 1.07v3.6c0 1.03.67.83.91.76l3.95-1.36c.55-.18.7-.22.7-.67v-4.34c0-.79-.39-.6-.77-.45m0 0-3.78 1.39c-.58.22-1.01.5-1.01 1.07v3.6c0 1.03.67.83.91.76l3.95-1.36c.55-.18.7-.22.7-.67v-4.34c0-.79-.39-.6-.77-.45" class="cls-4"/><path d="m286.05 195.56 4.5-1.6c.45-.17.36-1.15.36-1.34 0-2.97-2.6-4.33-4.44-3.67l-4.34 1.5c-2.55.96-5.17 2.35-5.74 6.67v8.32c0 5.13 4.01 4.2 5.58 3.62 1.58-.58 6.89-2.53 7.34-2.7 1.24-.47 2.17-1.73 1.98-3.36-.13-1.01-.28-2.03-.43-3.04-.05-.3-.07-.59-.41-.47l-4.34 1.6c-.41.16-.67.22-.67.72s.04.92-.7 1.16c0 0-2.05.71-2.3.8s-.65.13-.65-.59v-7.21c0-.35.13-.5.59-.67.47-.17 2.46-.85 2.46-.85.38-.12.67-.13.67.28v.44c0 .6.23.5.54.39" class="cls-4"/><path d="M259.85 203.21v.93c-26.51 10.29-22.07 19.54-9.72 22.89v.72c-16.43-3.67-14.73-16.23 9.72-24.55Zm23.08-5.46v.85c57.6-7.03 54.6 18.19 6.82 27.68l-.56 1.14c52.48-10.11 50.2-37.61-6.26-29.67" class="cls-4"/><path d="m287.38 204.34-8.8 9.65c-.18.23-.08.31.16.19l11.4-7.13c.21-.14.25-.17.43-.12.17.05 4.26 2.98 4.26 2.98.29.19.44.11.35-.12l-2.13-4.65c-.12-.25-.16-.42-.04-.54l8.61-9.38c.22-.31.1-.47-.27-.27l-10.66 6.63c-.25.15-.39.14-.54.04l-3.95-2.67c-.42-.23-.54-.14-.43.31l1.78 4.42c.12.24.05.43-.16.66Z" class="cls-4"/><path d="m217.12 131.77 10.48-27.22h2.55l-10.51 27.22z" class="cls-7"/><path d="M163.01 259.28s2.59-3.93 2.59-5.42l.02-8.47H163l-.02 9.16-1.47 2.18-1.5-2.24.02-9.09h-2.65l-.02 8.41c0 1.56 2.77 5.45 2.77 5.45s-2.77 4.08-2.77 5.57v8.97h2.62v-9.53l1.59-2.37 1.59 2.4v9.5h2.46v-9c0-1.59-2.62-5.51-2.62-5.51Zm-12.83-11.37v-2.5c-2.19.19-6.97-.99-7.09 2.45v25.93h2.81v-13.54h3.52v-2.76h-3.52v-9.58h4.27Zm-17.72-2.49c-2.36.07-6.09-.72-6.25 2.6v25.78h2.76v-13.54h3.49v13.54h2.76v-25.62c0-1.7-1.09-2.76-2.76-2.76m-.08 12.03h-3.31v-9.17h3.31zm-15.9 2.81c.99 0 2.31-1.28 2.31-2.98v-9.32c-.08-3.76-6.7-2.34-9.03-2.59v28.49h2.76v-13.38h1.04l3.08 13.33h2.71l-2.87-13.54Zm-.58-2.82h-3.31v-9.35h3.31zm-17.86-3.32v2.41h1.33v14.83H96.3v-27.98h3v6.94h2.64v-7.04c0-1.23-1.21-2.55-2.55-2.55-2.22 0-5.34-.49-5.6 2.58v28.02c.15 3.68 5.97 2.15 8.17 2.45v-19.66zm-65.24-8.59v25.5h-3.3v-25.5h-2.85v25.46c0 1.53 1.35 2.85 2.85 2.85h3.37c1.43 0 2.82-1.17 2.82-2.82v-25.5H32.8Zm-19.85-4.74v2.35h2.53v30.68h2.53v-30.77h2.1v-2.26zm36.36 19.54c.98 0 2.28-1.26 2.28-2.95v-9.22c-.08-3.72-6.63-2.32-8.93-2.56v28.18h2.73v-13.24h1.03l3.04 13.19h2.68l-2.84-13.4Zm-.54-2.76H45.5v-9.25h3.27zm19.24 3.39c-.01-1.26-1.24-2.06-1.24-2.06s1.24-.86 1.24-2.06v-8.62c0-1.62-1.33-2.68-2.69-2.68h-6.25v28.17c11.9.35 8.4-.24 8.94-12.75m-2.81 9.99h-3.28v-10.5h3.28zm0-13.42h-3.28v-9.26h3.28zm16.96-11.92c-2.58 0-6.14-.55-6.47 2.83v22.38c.33 3.66 4.24 2.97 6.76 3 1.47 0 2.94-1.63 2.94-2.94v-22.52c0-1.1-1.39-2.74-3.23-2.74Zm.11 25.11H78.9v-22.15h3.37z" class="cls-4"/><path d="M186.77 292.1c-8.54 0-15.46 6.93-15.46 15.47 0 5.11 2.47 9.64 6.29 12.46h18.34c3.82-2.82 6.3-7.35 6.3-12.46 0-8.54-6.92-15.47-15.47-15.47m-5.5 21.77h-5.1v-1.78h1.65v-9.42h-1.62v-1.84h3.46v11.23h1.61zm16.11-9.62h-1.65v-1.64h-10.34v3.92h11.04l.95.94v5.18l-1.18 1.16h-11.3l-1.17-1.16v-10.68l1.08-1.08h11.57l1 .99z" class="cls-7"/><path d="M195.5 312.27v-3.89h-10.04v3.89zm-35.51 7.76v-8.38l1.59-2.37 1.58 2.4v8.35h2.47v-7.85c0-1.59-2.62-5.51-2.62-5.51s2.59-3.93 2.59-5.42v-8.47h-2.61v9.16l-1.48 2.18-1.49-2.25v-9.09h-2.64v8.41c0 1.56 2.76 5.45 2.76 5.45s-2.77 4.08-2.77 5.57v7.82zM145.9 295.3v9.58h3.52v2.77h-3.52v12.38h-2.81v-24.78c.11-3.44 4.89-2.26 7.09-2.45v2.5zm-13.45-2.49c-2.35.08-6.09-.72-6.25 2.61v24.61h2.76v-12.37h3.49v12.37h2.77v-24.46c0-1.7-1.1-2.76-2.77-2.76m-.07 12.03h-3.31v-9.16h3.31zm-15.9 2.81c.99 0 2.31-1.28 2.31-2.98v-9.33c-.09-3.75-6.71-2.34-9.03-2.59v27.28h2.76v-12.17h1.04l2.81 12.17h2.73zm-.59-2.82h-3.31v-9.35h3.31zm-13.93-3.32v18.52H94.2c-.24-.34-.39-.77-.41-1.31V290.7c.26-3.07 3.38-2.58 5.6-2.58 1.34 0 2.55 1.32 2.55 2.55v7.04H99.3v-6.94h-3.01v27.97h3.08v-14.82h-1.33v-2.41zm-66.28-8.59v25.5c0 .53-.14 1.01-.39 1.41-.03.07-.07.14-.11.2h-7.99c-.05-.07-.1-.13-.14-.2-.26-.42-.41-.92-.41-1.44v-25.47h2.85v25.5h3.31v-25.5zm-15.58-4.74v2.26h-2.09v29.59h-2.53v-29.5h-2.53v-2.35zm31.77 31.65-2.56-12.11c.97 0 2.28-1.26 2.28-2.95v-9.22c-.09-3.72-6.63-2.32-8.94-2.56v27.04h2.74v-12.1h1.03l2.74 11.9.05.2h2.7zm-3.11-14.87h-3.27v-9.24h3.27zm19.25 3.39c-.02-1.26-1.24-2.06-1.24-2.06s1.24-.86 1.24-2.06v-8.62c0-1.63-1.33-2.69-2.69-2.69h-6.25v27.11h8.46c.05-.06.09-.13.13-.2.91-1.57.06-4.85.35-11.48m-6.1-12.69h3.28v9.26h-3.28zm0 12.18h3.28v10.5h-3.28zM82.15 293c-2.58 0-6.13-.55-6.47 2.83v22.38c.06.68.25 1.21.52 1.62.05.07.1.14.16.2h8.27c.06-.07.11-.13.16-.2.36-.49.59-1.05.59-1.56v-22.53c0-1.09-1.39-2.74-3.23-2.74m-3.26 2.96h3.37v22.15h-3.37zm84.12-84.08s2.59-3.93 2.59-5.42l.02-8.47H163l-.02 9.16-1.47 2.18-1.5-2.24.02-9.09h-2.65l-.02 8.41c0 1.56 2.77 5.45 2.77 5.45s-2.77 4.08-2.77 5.57v8.97h2.62v-9.53l1.59-2.37 1.59 2.4v9.5h2.46v-9c0-1.59-2.62-5.51-2.62-5.51Zm-12.83-11.37v-2.5c-2.19.19-6.97-.99-7.09 2.45v25.93h2.81v-13.54h3.52v-2.76h-3.52v-9.58h4.27Zm-17.72-2.48c-2.36.07-6.09-.72-6.25 2.6v25.78h2.76v-13.54h3.49v13.54h2.76v-25.62c0-1.7-1.09-2.76-2.76-2.76m-.08 12.03h-3.31v-9.17h3.31zm-15.9 2.8c.99 0 2.31-1.28 2.31-2.98v-9.32c-.08-3.76-6.7-2.34-9.03-2.59v28.49h2.76v-13.38h1.04l3.08 13.33h2.71l-2.87-13.54Zm-.58-2.81h-3.31v-9.35h3.31zm-17.86-3.32v2.41h1.33v14.83H96.3v-27.98h3v6.94h2.64v-7.04c0-1.23-1.21-2.55-2.55-2.55-2.22 0-5.34-.49-5.6 2.58v28.02c.15 3.68 5.97 2.15 8.17 2.45v-19.66zm-65.24-8.59v25.5h-3.3v-25.5h-2.85v25.46c0 1.53 1.35 2.85 2.85 2.85h3.37c1.43 0 2.82-1.17 2.82-2.82v-25.5H32.8Zm-19.85-4.75v2.36h2.53v30.68h2.53v-30.77h2.1v-2.27zm36.36 19.54c.98 0 2.28-1.26 2.28-2.95v-9.22c-.08-3.72-6.63-2.32-8.93-2.56v28.18h2.73v-13.24h1.03l3.04 13.19h2.68l-2.84-13.4Zm-.54-2.75H45.5v-9.25h3.27zm19.24 3.39c-.01-1.26-1.24-2.06-1.24-2.06s1.24-.86 1.24-2.06v-8.62c0-1.62-1.33-2.68-2.69-2.68h-6.25v28.17c11.9.35 8.4-.24 8.94-12.75m-2.81 9.98h-3.28v-10.5h3.28zm0-13.41h-3.28v-9.26h3.28zm16.96-11.93c-2.58 0-6.14-.55-6.47 2.83v22.38c.33 3.66 4.24 2.97 6.76 3 1.47 0 2.94-1.63 2.94-2.94v-22.52c0-1.1-1.39-2.74-3.23-2.74Zm.11 25.12H78.9v-22.15h3.37z" class="cls-4"/><path d="m217.12 226.56 10.48-27.22h2.55l-10.51 27.22zM196.94 19.18v6.04c0 .42-.33.75-.76.75h-6.79v-7.55h6.79c.43 0 .76.33.76.76" class="cls-7"/><path d="M186.78 6.88c-8.48 0-15.35 6.87-15.35 15.35s6.87 15.35 15.35 15.35 15.35-6.87 15.35-15.35-6.87-15.35-15.35-15.35m-9.01 19.09h8.31l-.45 1.52h-7.86c-1.25 0-2.26-1.02-2.26-2.27v-6.04a2.26 2.26 0 0 1 2.26-2.27h7.86l.45 1.51h-8.31c-.42 0-.75.33-.75.76v6.04c0 .42.33.75.75.75m18.41 1.52h-8.31V16.91h8.31c1.26 0 2.27 1.01 2.27 2.27v6.04c0 1.25-1.01 2.27-2.27 2.27m.76 85.38v6.04c0 .42-.33.75-.76.75h-6.79v-7.55h6.79c.43 0 .76.33.76.76" class="cls-7"/><path d="M186.78 100.57c-8.48 0-15.35 6.87-15.35 15.35s6.87 15.35 15.35 15.35 15.35-6.87 15.35-15.35-6.87-15.35-15.35-15.35m-9.01 19.09h8.31l-.45 1.52h-7.86c-1.25 0-2.26-1.02-2.26-2.27v-6.04a2.26 2.26 0 0 1 2.26-2.27h7.86l.45 1.51h-8.31c-.42 0-.75.33-.75.76v6.04c0 .42.33.75.75.75m18.41 1.52h-8.31V110.6h8.31c1.26 0 2.27 1.01 2.27 2.27v6.04c0 1.25-1.01 2.27-2.27 2.27" class="cls-7"/><path d="M196.94 67.26v6.04c0 .42-.33.75-.76.75h-6.79V66.5h6.79c.43 0 .76.33.76.76" class="cls-9"/><path d="M186.78 54.96c-8.48 0-15.35 6.87-15.35 15.35s6.87 15.35 15.35 15.35 15.35-6.87 15.35-15.35-6.87-15.35-15.35-15.35m-9.01 19.09h8.31l-.45 1.52h-7.86c-1.25 0-2.26-1.02-2.26-2.27v-6.04a2.26 2.26 0 0 1 2.26-2.27h7.86l.45 1.51h-8.31c-.42 0-.75.33-.75.76v6.04c0 .42.33.75.75.75m18.41 1.52h-8.31V64.99h8.31c1.26 0 2.27 1.01 2.27 2.27v6.04c0 1.25-1.01 2.27-2.27 2.27" class="cls-9"/><path d="M196.94 159.79v6.04c0 .42-.33.75-.76.75h-6.79v-7.55h6.79c.43 0 .76.33.76.76" class="cls-7"/><path d="M186.78 147.49c-8.48 0-15.35 6.87-15.35 15.35s6.87 15.35 15.35 15.35 15.35-6.87 15.35-15.35-6.87-15.35-15.35-15.35m-9.01 19.09h8.31l-.45 1.52h-7.86c-1.25 0-2.26-1.02-2.26-2.27v-6.04a2.26 2.26 0 0 1 2.26-2.27h7.86l.45 1.51h-8.31c-.42 0-.75.33-.75.76v6.04c0 .42.33.75.75.75m18.41 1.52h-8.31v-10.58h8.31c1.26 0 2.27 1.01 2.27 2.27v6.04c0 1.25-1.01 2.27-2.27 2.27m.76 39.74v6.04c0 .42-.33.75-.76.75h-6.79v-7.55h6.79c.43 0 .76.33.76.76" class="cls-7"/><path d="M186.78 195.54c-8.48 0-15.35 6.87-15.35 15.35s6.87 15.35 15.35 15.35 15.35-6.87 15.35-15.35-6.87-15.35-15.35-15.35m-9.01 19.09h8.31l-.45 1.52h-7.86c-1.25 0-2.26-1.02-2.26-2.27v-6.04a2.26 2.26 0 0 1 2.26-2.27h7.86l.45 1.51h-8.31c-.42 0-.75.33-.75.76v6.04c0 .42.33.75.75.75m18.41 1.52h-8.31v-10.58h8.31c1.26 0 2.27 1.01 2.27 2.27v6.04c0 1.25-1.01 2.27-2.27 2.27m.76 38.6v6.04c0 .42-.33.75-.76.75h-6.79v-7.55h6.79c.43 0 .76.33.76.76" class="cls-7"/><path d="M186.78 242.45c-8.48 0-15.35 6.87-15.35 15.35s6.87 15.35 15.35 15.35 15.35-6.87 15.35-15.35-6.87-15.35-15.35-15.35m-9.01 19.09h8.31l-.45 1.52h-7.86c-1.25 0-2.26-1.02-2.26-2.27v-6.04a2.26 2.26 0 0 1 2.26-2.27h7.86l.45 1.51h-8.31c-.42 0-.75.33-.75.76v6.04c0 .42.33.75.75.75m18.41 1.52h-8.31v-10.58h8.31c1.26 0 2.27 1.01 2.27 2.27v6.04c0 1.25-1.01 2.27-2.27 2.27" class="cls-7"/><path d="M176.72 191.48c-3.98 3.27-9.16 5.25-14.83 5.25s-10.84-1.98-14.82-5.25h-43.12c7.04 25.32 30.27 43.91 57.83 43.91s50.79-18.59 57.83-43.91zm-30.23-32.7c4.05-3.58 9.47-5.77 15.43-5.77s11.38 2.19 15.43 5.77h42.24c-7.1-25.24-30.28-43.74-57.79-43.74s-50.69 18.5-57.79 43.74h42.47Z" class="cls-5"/><path d="M123.33 136.41c1.18-2.28 17.54-12.8 18.53-10.74l9.48 22.94c.42 1.24.17 2.02.02 2.23-.94-.17-6.83 4.33-7.31 4.95-.39.41-1.07 1.33-2.49 0l-18.28-17.33c-.51-.44-.31-1.61.06-2.06Zm33.2-14.74c-.9-.95-4.5-.35-5.29-.03-.62.26-1.09.41-1.06.89l5.79 26.13c.36-.17 2.81-.26 3.17 0 0 0-2.1-25.45-2.11-25.5-.04-.57.05-.89-.51-1.49Zm-27.66 78.86h-11.5c-1.18 0-1.61 1.11-1.61 2.25 0 1.01.6 2.27 1.74 2.27h9.08c.94 0 1.03 1.59 0 1.59h-9.85c-.75 0-.73 1.5 0 1.5h10.93c1.13 0 1.99-1.22 1.99-2.4s-.81-2.4-2.1-2.4h-8.66c-.71 0-.75-1.35 0-1.35h10c.73 0 .71-1.46-.02-1.46m2.52.84v2.23c0 .77.54 1.45 1.33 1.45h9.13c1.13 0 1.15 1.49 0 1.49h-9.31c-.96 0-.93 1.48 0 1.48h11c1.05 0 1.74-.87 1.74-1.87v-4.7c0-.99-2.08-.98-2.08 0v.63c0 1.4-.37 1.46-1.6 1.46h-7c-1.11 0-1.15-.23-1.15-1.29v-.94c0-1-2.05-.98-2.05.06Zm28.38-.89h-11.5c-1.18 0-1.61 1.11-1.61 2.25 0 1.01.6 2.27 1.74 2.27h9.08c.94 0 1.03 1.58 0 1.58h-9.85c-.75 0-.73 1.5 0 1.5h10.93c1.14 0 1.99-1.22 1.99-2.4s-.81-2.4-2.1-2.4h-8.66c-.71 0-.75-1.35 0-1.35h10c.73 0 .71-1.46-.02-1.46Zm3.02.07h12.58c.69 0 .73 1.22 0 1.22h-4.09c-1.01 0-1.17.64-1.17 1.25v4.47c0 1.26-2.05 1.22-2.05 0v-4.48c0-.71-.49-1.22-1.29-1.22h-4.01c-.62 0-.64-1.24.02-1.24Zm27.89 0h-12.34c-.69 0-1.08.56-1.08 1.08v4.36c0 1.07.77 1.87 1.87 1.87h11.29c.9 0 .79-1.55 0-1.55h-9.96c-.77 0-.75-1.33 0-1.33h8.63c1.07 0 1.03-1.56 0-1.56h-8.63c-.82 0-.86-1.46 0-1.46h10.18c.92 0 .9-1.41.04-1.41m4.27-.18c-1.54 0-2.14.99-2.14 2.14v4.19c0 1.39 2.12 1.37 2.12 0v-3.54c0-1.52 4.07-1.48 4.07 0v3.62c0 1.14 2.06 1.18 2.06 0v-3.73c0-1.39 3.64-1.29 3.64 0v3.81c0 1.37 2.04 1.31 2.04 0v-4.61c0-1.13-.69-1.89-1.74-1.89h-10.05Z" class="cls-3"/><path d="M100.08 165.32H78.54c-2.29 0-7.6 3.49-7.6 10.17 0 6 5.66 10.45 7.66 10.45h21.6c1.54 0 1.37-5.08 0-5.08H81.35c-1.71 0-4.74-2.46-4.74-5.37 0-3.09 2.4-5.2 4.06-5.2h19.48c1.66 0 1.6-4.97-.06-4.97Zm25.31-.23h-18.74c-1.37 0-1.91.69-1.91 1.91v16.94c0 1.43.34 1.76 1.76 1.76h19.35c2.51 0 8.8-1.7 8.8-10.33s-6.57-10.28-9.25-10.28Zm-.4 15.45h-12.54c-1.37 0-1.91-.26-1.91-1.46v-6.71c0-1.11.57-1.97 1.97-1.97h12.05c2.06 0 4.23 1.66 4.23 4.68s-2.14 5.46-3.8 5.46m15.6-2.36c1.72 0 3.11-1.2 3.11-2.68s-1.39-2.68-3.11-2.68-3.11 1.2-3.11 2.68 1.39 2.68 3.11 2.68m36.39-7.73c0-2.94-4.36-5.76-6.86-5.76h-22.51c-.81 0-1.23.41-1.23 1.23v18.88c0 2.06 6.14 1.93 6.14 0v-4.57c0-1.08.59-1.68 1.69-1.68h14.54c1.47 0 2.11 1.48 2.11 2.54v3.65c0 2.11 6.11 1.96 6.11 0v-4.57c0-1.71-1.43-3.71-1.43-3.71s1.43-1.96 1.43-3.57v-2.44Zm-7.51 2.78h-16.05c-1.14 0-1.17-2.94 0-2.94h16.05c1.06 0 1.11 2.94 0 2.94m34.93-8.14h-16c-3.66 0-9.31 2.97-9.31 10.05 0 8.8 7.03 10.63 9.14 10.63h16.68c2.23 0 8.63-2.63 8.63-10.63 0-6.8-5.94-10.05-9.14-10.05m-.81 15.25h-13.93c-1.35 0-4.29-1.76-4.29-5.23 0-3.25 3.07-4.65 4.4-4.65h13.5c1.33 0 3.93 1.79 3.93 4.65 0 4.12-2.43 5.23-3.6 5.23Zm18.58-15.37c-4.15 0-5.97 3.58-5.97 5.97v13.97c0 2.17 5.86 2 5.86 0v-12.33c0-1.5.83-2.19 1.94-2.19h3.77c.8 0 1.37.4 1.37 1.77v12.63c0 2.06 5.88 2.17 5.88 0v-12.11c0-.8.17-2.29 2-2.29h3.31c1.31 0 1.97.97 1.97 1.97v12.31c0 2.34 5.74 2.34 5.74 0v-14.91c0-1.83-2.27-4.81-6.95-4.81s-15.31.02-18.93.02Zm29.71-5.94c-.95 0-.84 2.43 0 2.43h5.71c1.57 0 1.6 3.06 0 3.06s-4.23.2-5.08.2-1.86 1.23-1.86 1.97v3.07c0 .56.54.81.88.81h9.92c.51 0 .48-1.89 0-1.89h-7.23c-.8 0-.89-1.63.11-1.63h2.8c2.83 0 4.6-2.31 4.6-3.91 0-2.83-2.51-4.14-4.28-4.14s-4.83.03-5.57.03" class="cls-5"/><path d="M560.19 89.57v142.01H366.57a6.21 6.21 0 0 1-6.21-6.21V95.44c0-2.58 1.67-4.77 3.98-5.56.59-.2 1.22-.31 1.88-.31h193.96Z" class="cls-6"/><path d="M537.93 179.65c7.82 0 15.32-1.38 22.26-3.93v43.42H442.73c-5.33 0-6.65-4-6.65-5.89s.84-2.98 3.67-5.61 20.88-20.77 7.71-45.39c-13.18-24.62-39.92-19.18-45.79-16.4-9.23 3.87-11.91 1.4-11.91-6.8s.46-12.63.46-12.63.29-10.6.29-14.23 4.22-10 9.92-10h60.29c6.86 0 12.34 5.59 12.33 12.45v.13c0 35.83 29.05 64.88 64.88 64.88Z" class="cls-6"/><path d="M560.19 188.73v9.49h-9.09c-2.56 0-4.64-2.08-4.64-4.65v-.19c0-2.57 2.08-4.65 4.64-4.65zM539.48 68.69l20.71 2.55v18.64H364.35l2.55-.31 119.25-14.43z" class="cls-6"/><rect width="24.93" height="9.49" x="504.44" y="188.73" class="cls-6" rx="4.65" ry="4.65"/><path d="M560.19 68.69v93.02a51.5 51.5 0 0 1-20 4.97c-29.56 1.27-54.04-22.79-54.04-52.37V71.46c0-1.53 1.23-2.77 2.76-2.77zM446.93 180.42c0 2.42-.27 4.77-.79 7.04q-.12.555-.27 1.11c-.12.47-.26.92-.4 1.38-3.08 9.8-10.79 17.54-20.57 20.68-.61.2-1.23.37-1.86.53a32 32 0 0 1-7.83.97 31.6 31.6 0 0 1-8.49-1.16c-.25-.06-.5-.14-.74-.21-9.99-3.03-17.9-10.87-21.02-20.82-.14-.45-.28-.91-.4-1.37q-.15-.555-.27-1.11c-.47-2.07-.74-4.22-.78-6.42v-1.24c.04-2.2.31-4.35.78-6.43q.12-.555.27-1.11c.12-.46.25-.91.39-1.36 3.13-9.96 11.04-17.79 21.02-20.82.24-.08.49-.15.74-.21a31.7 31.7 0 0 1 8.49-1.15 32 32 0 0 1 7.83.97q.945.24 1.86.54c9.78 3.13 17.49 10.88 20.57 20.68.14.45.27.91.39 1.36.1.37.19.74.28 1.11.52 2.27.79 4.62.79 7.04Z" class="cls-6"/><path d="M446.93 180.42c0 2.42-.27 4.77-.79 7.04q-.12.555-.27 1.11h-18.52a4.31 4.31 0 0 0-4.31 4.31v18.28a32 32 0 0 1-7.83.97 31.6 31.6 0 0 1-8.49-1.16v-18.1a4.31 4.31 0 0 0-4.31-4.31h-17.85q-.15-.555-.27-1.11c-.47-2.07-.74-4.22-.78-6.42v-1.24c.04-2.2.31-4.35.78-6.43q.12-.555.27-1.11h17.85a4.31 4.31 0 0 0 4.31-4.31v-18.08a31.7 31.7 0 0 1 8.49-1.15 32 32 0 0 1 7.83.97v18.26a4.31 4.31 0 0 0 4.31 4.31h18.52c.1.37.19.74.28 1.11.52 2.27.79 4.62.79 7.04Z" class="cls-6"/><path d="M420.1 180.42c0 .51-.08 1-.22 1.46a4.87 4.87 0 0 1-3.16 3.18c-.47.15-.97.23-1.49.23s-.97-.07-1.42-.21a4.88 4.88 0 0 1-3.23-3.2c-.15-.46-.22-.95-.22-1.46s.08-1 .22-1.46a4.88 4.88 0 0 1 6.14-3.18c1.5.48 2.69 1.67 3.16 3.18.15.46.22.95.22 1.46Z" class="cls-6"/><path d="M500.56 202.31h29.98v8.32h-29.98z" style="fill:none"/><path d="m500.42 207.62.77-.54c.26.36.77.61 1.4.61.7 0 1.19-.36 1.19-.78 0-.28-.2-.44-.6-.55l-.56-.15c-.71-.2-1.04-.58-1.04-1.11 0-.92 1.06-1.64 2.34-1.64.8 0 1.5.27 1.8.71l-.75.55c-.23-.34-.67-.53-1.18-.53-.67 0-1.14.36-1.14.76 0 .28.2.46.6.57l.56.15c.7.19 1.04.56 1.04 1.08 0 .94-1.11 1.65-2.38 1.65-.9 0-1.72-.34-2.04-.8Zm6.6-4.08h3.54l-.22.7h-2.49l-.41 1.3h2.24l-.21.7h-2.25l-.45 1.41h2.5l-.22.7h-3.54l1.52-4.8Zm4.7 0h1.05l-1.3 4.1h2.41l-.22.7h-3.46zm4.31 0h3.54l-.22.7h-2.49l-.41 1.3h2.24l-.21.7h-2.25l-.45 1.41h2.5l-.22.7h-3.54l1.52-4.8Zm3.48 3.01c0-1.57 1.57-3.09 3.38-3.09 1.03 0 1.68.45 1.97 1.2l-.93.42c-.22-.58-.56-.87-1.17-.87-1.23 0-2.13 1.21-2.13 2.34 0 .71.41 1.09 1.17 1.09.59 0 1.18-.28 1.54-.84l.78.5c-.51.71-1.46 1.1-2.38 1.1-1.47 0-2.22-.84-2.22-1.86Zm7.46-2.31h-1.66l.22-.7h4.37l-.22.7h-1.65l-1.29 4.11h-1.05l1.29-4.11Zm24.96-.69h1.64c1.35 0 2.01.48 2.01 1.18 0 .77-.69 1.26-1.82 1.35.66.07 1 .35 1 .82 0 .1-.02.23-.06.37l-.1.32c-.04.14-.08.3-.08.41 0 .13.03.23.1.34h-1.1a.6.6 0 0 1-.08-.33c0-.13.03-.25.08-.42l.11-.34c.05-.15.08-.28.08-.38 0-.34-.23-.49-.78-.49h-.82l-.63 1.98h-1.05l1.52-4.79Zm.84.67-.48 1.51h.68c.98 0 1.5-.29 1.5-.89 0-.4-.3-.62-1-.62h-.69Zm6.79 2.39c-.24.76-.78 1.05-1.41 1.05s-1-.28-1-.79c0-.11.03-.25.08-.42l.92-2.9h-1.06l-.89 2.8c-.07.2-.09.43-.09.59 0 .97.8 1.47 1.95 1.47 1.01 0 1.69-.29 2.13-.93v-2.86z" class="cls-6"/><path d="M421.5 119c-.5.06-1.04-.01-1.52-.29-.47-.28-.89-.78-1.1-1.33-.22-.56-.23-1.17-.08-1.72.15-.56.47-1.05.85-1.48.39-.44.85-.81 1.27-1.05.42-.25.81-.37 1.21-.4l1.28 1.84 1.46-.55-1.02-2.52c-.29-.01-.59.01-.93.04-.35.04-.74.1-1.16.21-.41.11-.84.26-1.38.5-.55.25-1.2.59-1.8 1.1s-1.14 1.19-1.5 1.93a5.45 5.45 0 0 0-.55 2.28c-.01.73.15 1.4.45 2.01.3.62.74 1.17 1.28 1.55s1.18.58 1.77.67 1.13.07 1.55.01c.43-.06.74-.16 1.02-.32l1.69-3.51c-.43.21-.88.4-1.34.59s-.94.38-1.45.44Zm-8.16-6.43c.54 0 1.07-.07 1.5.28.43.36.76 1.1 1.09 1.84l.59-2.68h-8.14c.23.12.46.24.61.4.15.17.34.39.3.62l-.59 3.08c-.04.24-.26.42-.43.54-.16.12-.37.15-.58.18.18.07.36.14.48.27s.28.31.24.51l-.67 3c-.06.27-.34.45-.54.6s-.43.22-.66.3h8l.56-3c-.3.62-.61 1.24-1.14 1.64-.52.4-1.24.75-2 .75h-1.47l.73-3.71c.27-.09.57-.08.84.05s.52.39.73.66c.22.28.41.58.56.89l.77-3.9c-.27.28-.56.55-.87.78s-.65.44-.96.54c-.32.11-.61.11-.89.03l.76-3.66h1.18Zm-7.37-1.19-1.17 5.78-4.76-5.7-2.15 2.47 1.03.95-1.24 6.86 2.49-1.1-1.28-1.18.71-3.63 5.01 5.77 1.73-7.87 1.75-1.06z" style="fill-rule:evenodd;fill:#bca3ce;stroke:#553f98;stroke-miterlimit:10;stroke-width:.5px"/><path d="M443.46 214.06c-.47 0-.93-.19-1.27-.57-.63-.7-.57-1.78.13-2.41 14.58-13.05 17.56-37.62 6.63-54.77-5.06-7.95-14-13.76-24.51-15.95-10.12-2.1-20.24-.61-27.07 4-.78.52-1.84.32-2.37-.46s-.32-1.84.46-2.37c7.58-5.11 18.67-6.8 29.67-4.51 11.4 2.37 21.13 8.74 26.69 17.46 11.78 18.5 8.54 45.03-7.23 59.14-.33.29-.73.43-1.14.43Zm-13.22-98.93h1.31c1 0 1.66.49 1.66 1.27 0 1.08-.92 1.68-2.34 1.68h-.53l-.49 1.84h-.89l1.29-4.79Zm.71.66-.44 1.62h.46c.86 0 1.29-.36 1.29-.95 0-.43-.25-.67-.88-.67h-.44Zm3.48-.66h.89l-1.29 4.79h-.89zm2.91 2.68h1.84l-.17.66h-1.84zm5.29-2.68h1.31c1 0 1.66.49 1.66 1.27 0 1.08-.92 1.68-2.34 1.68h-.53l-.49 1.84h-.89l1.29-4.79Zm.71.66-.44 1.62h.46c.86 0 1.29-.36 1.29-.95 0-.43-.25-.67-.88-.67h-.44Zm3.48-.66h1.54c1.21 0 1.92.89 1.92 1.93 0 1.61-1.26 2.86-2.89 2.86h-1.86zm.71.68-.92 3.43h.86c1.13 0 1.87-1.05 1.87-2.24 0-.73-.41-1.18-1.12-1.18h-.7Zm3.24 2.44c0-1.51 1.1-3.2 2.43-3.2.87 0 1.37.76 1.37 1.74 0 1.51-1.1 3.2-2.43 3.2-.87 0-1.37-.76-1.37-1.74Zm2.95-1.53c0-.59-.2-.96-.61-.96-.81 0-1.47 1.49-1.47 2.57 0 .59.2.96.61.96.81 0 1.47-1.49 1.47-2.57Zm1.34 1.53c0-1.51 1.1-3.2 2.43-3.2.87 0 1.37.76 1.37 1.74 0 1.51-1.1 3.2-2.43 3.2-.87 0-1.37-.76-1.37-1.74Zm2.94-1.53c0-.59-.2-.96-.61-.96-.81 0-1.47 1.49-1.47 2.57 0 .59.2.96.61.96.81 0 1.47-1.49 1.47-2.57Zm3.15-.28c-.35.34-.87.65-1.37.82l-.13-.73c.71-.25 1.47-.77 2.06-1.41h.64l-1.29 4.79h-.84l.93-3.48Zm66.08 27.97 1.5-.88v-3.05h4.1v3.73h6.89v-3.73h10.46v1.96h-6.78v1.46h5.85l-1.24 1.24h-4.61v2.17h6.78v2.13h-10.72v-3.21h-6.69v2.95h-3.98v-4.22zm2.07 8.11.34-.28c.17.15.44.29.94.29.45 0 .74-.11.74-.33 0-.15-.15-.27-.57-.32l-.52-.06c-.55-.07-.81-.32-.81-.61 0-.43.58-.73 1.28-.73.49 0 .92.15 1.12.38l-.34.28c-.17-.19-.47-.31-.85-.31s-.63.12-.63.34c0 .18.16.28.57.33l.46.06c.58.08.86.31.86.6 0 .44-.61.72-1.38.72-.54 0-1.02-.14-1.21-.36Zm4.03.27-1.29-2.25h.61l.99 1.81 1.01-1.81h.54l-1.94 3.41h-.6l.67-1.16Zm1.98-.27.34-.28c.17.15.44.29.94.29.45 0 .74-.11.74-.33 0-.15-.15-.27-.57-.32l-.52-.06c-.55-.07-.81-.32-.81-.61 0-.43.58-.73 1.28-.73.49 0 .92.15 1.12.38l-.34.28c-.17-.19-.47-.31-.85-.31s-.63.12-.63.34c0 .18.16.28.57.33l.46.06c.58.08.86.31.86.6 0 .44-.61.72-1.38.72-.54 0-1.02-.14-1.21-.36Zm3.31-.56v-1.08h-.61v-.3h.08c.52 0 .64-.19.64-.48v-.29h.09c.22 0 .31 0 .4-.03v.76h1.23v.34h-1.23v1.14c0 .36.24.5.53.5.25 0 .44-.09.56-.22l.41.2c-.17.25-.54.38-.97.38-.69 0-1.13-.36-1.13-.92Zm2.07-.27c0-.65.71-1.21 1.55-1.21s1.49.53 1.49 1.28h-2.45c.01.42.41.76 1.08.76.45 0 .73-.15.89-.41l.44.18c-.23.36-.69.59-1.33.59-.98 0-1.68-.54-1.68-1.19Zm.6-.22h1.86c-.06-.35-.41-.65-.93-.65s-.87.3-.93.65Zm3.06-.93h.2c.22 0 .31 0 .4-.03v.5c.17-.32.57-.52 1.13-.52.53 0 .88.2 1 .55.17-.34.59-.55 1.18-.55.67 0 1.05.32 1.05.84v1.51h-.6v-1.44c0-.37-.2-.52-.63-.52-.58 0-.95.27-.95.74v1.22h-.6v-1.44c0-.37-.2-.52-.63-.52-.58 0-.95.27-.95.74v1.22h-.6v-2.29Z" class="cls-6"/></svg>