<svg xmlns="http://www.w3.org/2000/svg" id="Joystick" viewBox="0 0 1000 1000"><defs><style>.cls-2{fill:#c64747}.cls-4{fill:#303030}</style></defs><path d="M276.81 303.6h426.95v651.01c0 13.91-11.29 25.2-25.2 25.2H302.01c-13.91 0-25.2-11.29-25.2-25.2z" style="fill:#c6b6ac"/><path d="M304.68 19.78H675.9c15.38 0 27.87 12.49 27.87 27.87v255.94H276.82V47.65c0-15.38 12.49-27.87 27.87-27.87Z" style="fill:#d2c1b5"/><rect width="352.91" height="208.54" x="317.46" y="61.4" class="cls-4" rx="10.38" ry="10.38"/><circle cx="493.92" cy="165.67" r="71.57" style="fill:#1e1e1e"/><path d="M634.02 361.26H347.27c-13.33 0-24.13 10.8-24.13 24.13v508.43c0 13.33 10.8 24.13 24.13 24.13h76.76c9.62 0 17.42 7.8 17.42 17.42v44.85h97.14v-44.85c0-9.62 7.8-17.42 17.42-17.42h78c13.33 0 24.13-10.8 24.13-24.13V385.39c0-13.33-10.8-24.13-24.13-24.13Z" style="fill:#baa9a0"/><rect width="65.26" height="44.42" x="362.92" y="423.5" class="cls-2" rx="3.99" ry="3.99"/><rect width="65.26" height="44.42" x="549.66" y="423.5" class="cls-2" rx="3.99" ry="3.99"/><rect width="65.26" height="44.42" x="362.92" y="512.89" class="cls-4" rx="3.99" ry="3.99"/><rect width="65.26" height="44.42" x="453.58" y="512.89" class="cls-4" rx="3.99" ry="3.99"/><rect width="65.26" height="44.42" x="549.66" y="512.89" class="cls-4" rx="3.99" ry="3.99"/><rect width="65.26" height="44.42" x="362.92" y="607.22" class="cls-4" rx="3.99" ry="3.99"/><rect width="65.26" height="44.42" x="456.29" y="607.22" class="cls-4" rx="3.99" ry="3.99"/><rect width="65.26" height="44.42" x="549.66" y="607.22" class="cls-4" rx="3.99" ry="3.99"/><rect width="65.26" height="44.42" x="362.92" y="701.55" class="cls-4" rx="3.99" ry="3.99"/><rect width="65.26" height="44.42" x="456.29" y="701.55" class="cls-4" rx="3.99" ry="3.99"/><rect width="65.26" height="44.42" x="549.66" y="701.55" class="cls-4" rx="3.99" ry="3.99"/><rect width="65.26" height="44.42" x="362.92" y="795.88" class="cls-4" rx="3.99" ry="3.99"/><rect width="65.26" height="44.42" x="456.29" y="795.88" class="cls-4" rx="3.99" ry="3.99"/><rect width="65.26" height="44.42" x="549.66" y="795.88" class="cls-4" rx="3.99" ry="3.99"/><circle cx="493.92" cy="165.67" r="60.37" style="fill:#0f0f0f"/><circle cx="493.92" cy="165.67" r="21" style="fill:#333"/></svg>