<svg xmlns="http://www.w3.org/2000/svg" id="Layer_1" data-name="Layer 1" viewBox="0 0 1000 1000"><defs><style>.cls-1{fill:#181818}.cls-4{fill:#919190}.cls-6{fill:#fff}.cls-7{fill:#101010}.cls-8{fill:#606161}</style></defs><path d="m813.14 429.33-137.13-70.02c-5.29-2.7-7.43-9.09-4.79-14.27l29.73-58.24c2.41-4.73 7.99-6.74 13.13-5.03 51.54 17.06 98.22 40.64 139.67 71.21 4.33 3.19 5.93 8.84 3.53 13.53l-29.78 58.33c-2.64 5.18-9.08 7.19-14.37 4.49Z"/><path d="M965.8 648.17c-33.27 70.63-88.11 92.81-136.11 96.45-48 3.65-98.73-46.02-142.63-66.22-43.9-20.21-134.12-54.99-245.31-38.28s-181.98 70.48-195.04 79.74c-13.07 9.27-41.93 27.65-85.67 25.52-43.75-2.12-106.16-46.6-125.32-92.05S12.1 551.3 54.25 472.18c14.3-26.85 35.86-52.15 58.1-73.87 54.55-53.25 121.19-92.51 193.9-115.41 4.8-1.51 9.73-3 14.8-4.45 47.48-13.62 106.82-24.28 176.86-24 62.09.25 123.47 8.62 179.85 23.9 85.65 23.18 159.77 62.25 207.33 112.81C963.97 475 999.06 577.54 965.8 648.17" style="fill:#1e1e1e"/><ellipse cx="731.44" cy="492.7" rx="150.7" ry="188.97" transform="rotate(-62.95 731.458 492.7)"/><ellipse cx="725.4" cy="489.12" class="cls-7" rx="117.01" ry="143.18" transform="rotate(-62.95 725.416 489.126)"/><ellipse cx="262.84" cy="489.12" rx="174.68" ry="140.16" transform="rotate(-43.02 262.794 489.087)"/><ellipse cx="263.84" cy="482.77" class="cls-7" rx="135.83" ry="111.5" transform="rotate(-43.02 263.8 482.74)"/><circle cx="659.26" cy="556.53" r="43.76" class="cls-1"/><circle cx="746.79" cy="508.83" r="43.76" class="cls-1"/><circle cx="841.33" cy="483.2" r="43.76" class="cls-1"/><circle cx="629.49" cy="454.73" r="30.45" class="cls-4"/><circle cx="708.4" cy="418.99" r="30.45" class="cls-4"/><circle cx="788.31" cy="398.99" r="30.45" class="cls-4"/><path d="M839.15 493.12c-.56.24-1.13.32-1.71.25-.58-.08-1.12-.29-1.59-.63q-.72-.51-1.08-1.35l-4.22-9.74c-.24-.56-.32-1.13-.25-1.71q.12-.87.63-1.59t1.35-1.08l12.76-5.52 1.27 2.93-12.14 5.25c-.23.1-.39.25-.48.44s-.07.42.04.66l3.66 8.46c.1.24.25.39.45.47s.42.07.65-.03l12.14-5.25 1.27 2.93-12.76 5.52Z"/><path d="m784.9 409.95-1.37-3.17 7.39-14.79-11.61 5.03-1.27-2.93 15.86-6.87 1.37 3.17-7.39 14.79 11.61-5.03 1.27 2.93z" class="cls-8"/><path d="m737.51 505.59 12.16-5.26q.84-.36 1.71-.24c.58.08 1.12.29 1.59.63q.72.51 1.08 1.35l1.35 3.11c.08.19.15.38.19.57q.075.285.06.57c.4.23.75.49 1.06.79s.55.63.71 1l1.48 3.42q.36.84.24 1.71c-.08.58-.29 1.12-.64 1.6s-.8.84-1.36 1.09l-12.78 5.53-6.87-15.86Zm5.91 4.95 8.86-3.83c.07-.03.12-.08.14-.15s.02-.14-.01-.22l-1.24-2.86c-.03-.07-.08-.13-.15-.16s-.13-.03-.21 0l-8.86 3.83c-.07.03-.12.08-.15.16a.28.28 0 0 0 0 .22l1.24 2.86c.03.07.08.12.16.15.07.03.15.03.22 0m2.87 6.62 9.47-4.1c.07-.03.13-.09.17-.16.04-.08.04-.15 0-.23l-1.36-3.15a.28.28 0 0 0-.17-.15.36.36 0 0 0-.23 0l-9.47 4.1c-.07.03-.12.08-.15.16a.28.28 0 0 0 0 .22l1.36 3.15c.03.07.08.12.16.15.07.03.15.03.22 0Z"/><path d="m711.28 427.85-2.58-5.95-11.61-6.75 3.44-1.49 8.26 4.4 2.38-9.01 3.5-1.52-3.04 13.11 2.56 5.93-2.93 1.27Z" class="cls-8"/><path d="M649.91 558.03q-.36-.84-.24-1.71c.08-.58.29-1.12.63-1.59q.51-.72 1.35-1.08l9.72-4.21c.56-.24 1.13-.32 1.72-.25.59.08 1.13.28 1.61.63q.72.51 1.08 1.35l5.54 12.8-2.93 1.27-2.31-5.33-10.03 4.34 2.31 5.33-2.91 1.26-5.54-12.8Zm14.91-1.04-1.92-4.43a.28.28 0 0 0-.17-.15.36.36 0 0 0-.23 0l-9.47 4.1c-.07.03-.12.08-.15.16a.28.28 0 0 0 0 .22l1.92 4.43 10.03-4.34Z"/><path d="m621.56 466.76-.35-.82 5.31-10.75-11.47-3.49-.35-.81 4.43-1.92 9.13 2.75 4.18-8.51 4.46-1.93.35.81-5.34 10.76 11.49 3.45.36.84-4.46 1.93-9.09-2.74-4.22 8.5-4.43 1.92Z" class="cls-8"/><rect width="87.28" height="34.06" x="447.72" y="424.1" rx="15.64" ry="15.64" style="fill:#0b0b0b"/><path d="M347.7 476.78c0 7.33-.89 14.45-2.59 21.26-8.18 33.08-35.02 58.79-68.7 65.34a88.5 88.5 0 0 1-16.95 1.63c-6.86 0-13.55-.78-19.96-2.27-33.04-7.64-58.98-33.84-66.23-67.03a88 88 0 0 1-2.04-18.93c0-6.16.63-12.18 1.84-17.99 7.14-34.47 34.37-61.58 68.91-68.52a89 89 0 0 1 17.48-1.73c6.68 0 13.18.74 19.43 2.15 34.38 7.72 61.18 35.52 67.42 70.44.92 5.08 1.39 10.31 1.39 15.65" style="fill:#2b2b2b"/><path d="M347.7 476.78c0 7.33-.89 14.45-2.59 21.26l-49.53-.53c-10.11-.18-18.45 7.86-18.63 17.97l-.54 47.9a88.5 88.5 0 0 1-16.95 1.63c-6.86 0-13.55-.78-19.96-2.27l.55-47.92c.18-10.1-7.87-18.44-17.97-18.62l-48.81-.49a88 88 0 0 1-2.04-18.93c0-6.16.63-12.18 1.84-17.99l49.66.5c10.11.18 18.45-7.86 18.63-17.97l.62-51.05a89 89 0 0 1 17.48-1.73c6.68 0 13.18.74 19.43 2.15l-.63 51.29c-.18 10.1 7.87 18.44 17.97 18.62l50.08.53c.92 5.08 1.39 10.31 1.39 15.65" class="cls-1"/><circle cx="259.47" cy="476.77" r="15.8"/><path d="M499.49 254.45h-1.58c-70.04-.28-129.38 10.38-176.86 24l17.12 14.95c1.12.98 2.22 1.99 3.22 3.09 1.8 1.97 7.21 6.28 18.43 3.66 14.03-3.28 54.87-16.46 138.88-16.46s124.86 13.18 138.88 16.46c11.22 2.62 16.62-1.69 18.43-3.66.72-.79 1.47-1.56 2.27-2.26l18.49-16.15c-47.48-13.62-107.24-23.91-177.28-23.63"/><rect width="77.56" height="20.74" x="452.58" y="430.76" rx="10.37" ry="10.37" style="fill:#b7b7af"/><path d="m439.77 355.85 15.5-.02c6.34 0 11.48-5.12 11.48-11.44s-5.14-11.45-11.48-11.45l-4.03.02c-.32 0-.57-.26-.57-.58s.26-.58.57-.58h15.47v-4.85h-15.48c-2.99 0-5.43 2.43-5.43 5.42s2.44 5.41 5.43 5.41l4.04.05c3.63 0 6.57 2.93 6.57 6.55s-2.94 6.56-6.57 6.56h-15.51v4.91Z" class="cls-6"/><path d="M439.78 349.81h15.51c3 0 5.43-2.42 5.43-5.42s-2.43-5.41-5.43-5.41l-4.04-.04c-3.63 0-6.57-2.93-6.57-6.56s2.94-6.55 6.57-6.55h15.48v-4.88h-15.47c-6.34 0-11.48 5.12-11.48 11.44s5.15 11.44 11.48 11.44h4c.3 0 .56.25.56.57s-.26.56-.56.56h-15.48zm39 1.17c-2.69 0-4.89-2.14-4.89-4.88v-15.49c0-2.63 2.2-4.8 4.89-4.8h16.55v-4.86h-16.55c-5.38 0-9.75 4.35-9.75 9.71v15.43c0 5.37 4.36 9.72 9.75 9.72h16.48v-4.84h-16.47Z" class="cls-6"/><path d="M475.07 330.67a3.71 3.71 0 0 1 3.71-3.72h16.55v4.87h-14.26c-1.14 0-1.16 1.13-1.16 1.13h11.89v4.85h-16.74v-7.14Zm3.71 19.13a3.7 3.7 0 0 1-3.71-3.7v-7.14h16.74v4.86h-11.89c.02 1.14 1.16 1.15 1.16 1.15h14.19v4.83h-16.48Zm28.14 1.17c-2.68 0-4.87-2.18-4.87-4.87v-15.43c0-2.69 2.17-4.85 4.86-4.85h16.03v-4.86h-16.06c-5.38 0-9.74 4.35-9.74 9.71v15.43c0 5.37 4.4 9.72 9.78 9.72h16.03v-22.86h-13.77v4.85h8.91v13.16h-11.15Z" class="cls-6"/><path d="M503.19 346.1c0 2.06 1.66 3.73 3.72 3.73h10.01v-10.88h-7.75v4.86h2.87v1.14h-2.85c-.62 0-1.14-.52-1.14-1.14l-.03-10.86s0-1.13 1.15-1.16h13.76v-4.85H506.9a3.72 3.72 0 0 0-3.72 3.72v15.43m34.81-19.21a1.58 1.58 0 0 1 2.02-.97c.46.16.81.52.97.97l7.78 22.98h-11.39v-5.41h3.82l-1.71-5.09-5.58 16.46h-5.74l9.84-28.94Z" class="cls-6"/><path d="M550.33 350.97h-12.94v4.85h19.69l-10.24-30.3c-.9-2.96-3.86-5.13-7.36-5.13s-6.46 2.16-7.36 5.12l-10.34 30.32h5.16l10.04-29.47a2.714 2.714 0 0 1 5 0l8.36 24.62Z" class="cls-6"/></svg>