<?xml version="1.0" encoding="UTF-8"?>
<svg xmlns="http://www.w3.org/2000/svg" viewBox="0 0 1000 1000">
  <defs>
    <style>
      .cls-1 {
        fill: none;
        stroke-width: 3.21px;
      }

      .cls-1, .cls-2 {
        stroke: #c2c5be;
        stroke-miterlimit: 10;
      }

      .cls-3 {
        fill: #333332;
      }

      .cls-4 {
        fill: #a5936b;
      }

      .cls-5 {
        fill: #1c1c1c;
      }

      .cls-2 {
        stroke-width: 3.18px;
      }

      .cls-2, .cls-6 {
        fill: #c2c5be;
      }

      .cls-7 {
        fill: #232323;
      }

      .cls-8 {
        fill: #b8a77b;
      }
    </style>
  </defs>
  <g id="Body">
    <g>
      <path class="cls-5" d="M143.55,347.56v-2.14c0-7.06,4.67-13.27,11.44-15.24,55.91-16.23,108.9-29,155.35-34,2.13-.23,3.98,1.45,3.98,3.59v11.04s-170.77,36.73-170.77,36.73Z"/>
      <path class="cls-5" d="M857.17,347.78v-11.49c0-3-2.12-5.27-4.86-6.49-26.18-11.67-104.6-29.18-161.93-35.92-2.13-.25-3.98,1.45-3.98,3.59v11.04s170.77,39.27,170.77,39.27Z"/>
      <path class="cls-5" d="M609.95,315.52h-135.17c-3.9,0-7.06-3.16-7.06-7.06v-11.19c0-3.9,3.16-7.06,7.06-7.06,43.48-3.19,88.48-3.31,135.17,0,3.9,0,7.06,3.16,7.06,7.06v11.19c0,3.9-3.16,7.06-7.06,7.06Z"/>
      <path class="cls-7" d="M847.92,345.15c-208.61-68.27-467.48-65.4-694.83-.25l22.38,334.91c32.71-9.56,64.09-17.76,94.56-24.6l-1.42,43.39c160.81-48.5,316.7-50.22,466.71,0l-1.63-41.4c30.18,6.44,61.5,13.97,94.31,22.61l19.92-334.66Z"/>
      <circle class="cls-3" cx="801.49" cy="525.78" r="186.45"/>
      <circle class="cls-3" cx="198.51" cy="525.78" r="186.45"/>
      <circle class="cls-7" cx="218.39" cy="507.99" r="135.71"/>
      <path class="cls-4" d="M314.01,507.99c0,7.25-.82,14.3-2.37,21.1-.57,2.53-1.23,5.01-2.01,7.46-9.23,29.36-32.35,52.58-61.65,61.97-2.88.93-5.81,1.71-8.79,2.35-6.52,1.42-13.3,2.17-20.25,2.17-7.57,0-14.93-.89-21.99-2.56-1.92-.46-3.82-.97-5.68-1.54-29.94-9.09-53.63-32.58-63.01-62.39-.77-2.44-1.44-4.93-2.01-7.46-1.42-6.2-2.22-12.64-2.34-19.23-.01-.62-.02-1.24-.02-1.86s.01-1.24.02-1.86c.12-6.61.93-13.06,2.35-19.27.57-2.52,1.23-4.98,2-7.41,9.39-29.83,33.08-53.3,63.01-62.4,1.86-.57,3.76-1.08,5.68-1.54,7.06-1.67,14.42-2.55,21.99-2.55,6.94,0,13.73.74,20.25,2.16,2.98.65,5.91,1.44,8.79,2.37,29.3,9.38,52.42,32.6,61.65,61.97.76,2.43,1.43,4.9,2,7.41,1.56,6.8,2.38,13.88,2.38,21.14Z"/>
      <path class="cls-8" d="M314.01,507.99c0,7.25-.82,14.3-2.37,21.1h-61.28c-6.17,0-11.16,4.99-11.16,11.16v60.62c-6.52,1.42-13.3,2.17-20.25,2.17-7.57,0-14.93-.89-21.99-2.56v-60.22c0-6.17-4.99-11.16-11.16-11.16h-59.54c-1.42-6.2-2.22-12.64-2.34-19.23v-3.73c.12-6.61.93-13.06,2.35-19.27h59.53c6.17,0,11.16-5,11.16-11.16v-60.19c7.06-1.67,14.42-2.55,21.99-2.55,6.94,0,13.73.74,20.25,2.16v60.58c0,6.16,4.99,11.16,11.16,11.16h61.27c1.56,6.8,2.38,13.88,2.38,21.14Z"/>
      <path class="cls-8" d="M738.16,539.77c0,4.7-.72,9.22-2.06,13.48-4.36,13.86-15.27,24.82-29.1,29.24-4.32,1.39-8.92,2.14-13.7,2.14s-8.93-.68-13.06-1.93c-14.13-4.29-25.31-15.38-29.75-29.45-1.34-4.26-2.06-8.78-2.06-13.48s.72-9.22,2.06-13.48c4.43-14.08,15.61-25.16,29.75-29.45,4.13-1.26,8.52-1.93,13.06-1.93,4.78,0,9.39.75,13.7,2.14,13.83,4.43,24.74,15.39,29.1,29.25,1.34,4.26,2.06,8.78,2.06,13.48Z"/>
      <path class="cls-8" d="M832.24,484.33c0,4.7-.72,9.22-2.06,13.48-4.36,13.86-15.27,24.82-29.1,29.24-4.32,1.39-8.92,2.14-13.7,2.14s-8.93-.68-13.06-1.93c-14.13-4.29-25.31-15.38-29.75-29.45-1.34-4.26-2.06-8.78-2.06-13.48s.72-9.22,2.06-13.48c4.43-14.08,15.61-25.16,29.75-29.45,4.13-1.26,8.52-1.93,13.06-1.93,4.78,0,9.39.75,13.7,2.14,13.83,4.43,24.74,15.39,29.1,29.25,1.34,4.26,2.06,8.78,2.06,13.48Z"/>
      <path class="cls-8" d="M936.41,466.97c0,4.7-.72,9.22-2.06,13.48-4.36,13.86-15.27,24.82-29.1,29.24-4.32,1.39-8.92,2.14-13.7,2.14s-8.93-.68-13.06-1.93c-14.13-4.29-25.31-15.38-29.75-29.45-1.34-4.26-2.06-8.78-2.06-13.48s.72-9.22,2.06-13.48c4.43-14.08,15.61-25.16,29.75-29.45,4.13-1.26,8.52-1.93,13.06-1.93,4.78,0,9.39.75,13.7,2.14,13.83,4.43,24.74,15.39,29.1,29.25,1.34,4.26,2.06,8.78,2.06,13.48Z"/>
      <path class="cls-4" d="M233.58,507.99c0,1.53-.24,3.01-.67,4.39-1.42,4.52-4.98,8.09-9.48,9.53-1.41.45-2.91.7-4.47.7s-2.91-.22-4.26-.63c-4.61-1.4-8.25-5.01-9.69-9.6-.44-1.39-.67-2.86-.67-4.39s.24-3.01.67-4.39c1.44-4.59,5.09-8.2,9.69-9.6,1.35-.41,2.78-.63,4.26-.63,1.56,0,3.06.24,4.47.7,4.51,1.44,8.06,5.01,9.48,9.53.44,1.39.67,2.86.67,4.39Z"/>
      <path class="cls-4" d="M802,484.32c0,1.53-.24,3.01-.67,4.39-1.42,4.52-4.98,8.09-9.48,9.53-1.41.45-2.91.7-4.47.7s-2.91-.22-4.26-.63c-4.61-1.4-8.25-5.01-9.69-9.6-.44-1.39-.67-2.86-.67-4.39s.24-3.01.67-4.39c1.44-4.59,5.09-8.2,9.69-9.6,1.35-.41,2.78-.63,4.26-.63,1.56,0,3.06.24,4.47.7,4.51,1.44,8.06,5.01,9.48,9.53.44,1.39.67,2.86.67,4.39Z"/>
      <rect class="cls-8" x="402.49" y="504.95" width="52.73" height="19.8" rx="9.9" ry="9.9"/>
      <rect class="cls-8" x="543.34" y="504.95" width="52.73" height="19.8" rx="9.9" ry="9.9"/>
      <rect class="cls-1" x="480.55" y="545.57" width="38.94" height="60.94"/>
      <rect class="cls-2" x="480.55" y="606.52" width="38.94" height="16.42"/>
      <rect class="cls-6" x="494.37" y="580.86" width="10.87" height="10.87" transform="translate(-268.18 525.14) rotate(-45)"/>
      <circle class="cls-6" cx="500.02" cy="572.44" r="6.17"/>
      <rect class="cls-6" x="492.45" y="595.9" width="14.71" height="3.03" rx="1.52" ry="1.52"/>
      <rect class="cls-6" x="492.49" y="555.13" width="14.63" height="10.05" rx="3.39" ry="3.39"/>
    </g>
  </g>
  <g id="TEXT">
    <g>
      <path d="M488.55,614.93c.41.59.92,1.28,1.53,2.07l1.21,1.57c.21.27.36.42.43.46.07.04.15.06.22.06h.16v.4c-.35-.03-.65-.04-.92-.04-.24,0-.49.01-.76.04l-2.23-3.02c-.42-.56-.86-1.1-1.34-1.63l.06-.21c.24.02.42.03.54.03.7,0,1.25-.18,1.65-.54.4-.36.6-.85.6-1.45,0-.54-.17-.97-.51-1.27-.34-.3-.82-.46-1.46-.46-.44,0-.89.08-1.33.25-.05.67-.08,1.38-.08,2.15v3.05c0,1.49.04,2.31.11,2.47.07.16.3.24.69.24h.49v.4c-.7-.03-1.28-.04-1.74-.04-.36,0-1.02.01-1.96.04v-.4h.47c.36,0,.58-.08.64-.24.07-.16.1-.99.1-2.49v-3.04c0-1.3-.04-2.03-.12-2.19s-.33-.23-.76-.23h-.34v-.4c.78.03,1.38.04,1.79.04.28,0,.68-.01,1.2-.03.61-.02,1.04-.03,1.31-.03.73,0,1.28.08,1.66.23.38.15.66.38.86.67.2.29.29.64.29,1.04,0,.59-.21,1.12-.64,1.57-.43.45-1.05.77-1.86.93Z"/>
      <path d="M501.19,611.86l-1.88,3.91c-.7,1.47-1.28,2.75-1.73,3.84h-.25c-.16-.38-.6-1.34-1.34-2.89l-2.26-4.68v4.88c0,1.14.05,1.78.14,1.94s.37.23.85.23h.23v.4c-.59-.03-1.06-.04-1.43-.04-.27,0-.79.01-1.59.04v-.4h.41c.28,0,.46-.04.56-.12.09-.08.15-.22.17-.44.05-.59.08-1.22.08-1.91v-3.57c0-.86-.02-1.43-.06-1.71-.02-.14-.08-.25-.19-.33-.11-.08-.32-.11-.64-.11h-.33v-.4c.73.03,1.19.04,1.38.04.24,0,.58-.01,1.02-.04.51,1.13,1.1,2.38,1.76,3.75l1.66,3.42,1.54-3.17c.54-1.11,1.15-2.44,1.84-4,.53.03.9.04,1.11.04.25,0,.7-.01,1.35-.04v.4h-.41c-.37,0-.6.06-.68.19-.08.13-.12.59-.12,1.39v4.62c0,1.03.04,1.62.13,1.77.09.15.33.23.73.23h.36v.4c-.59-.03-1.14-.04-1.68-.04-.59,0-1.21.01-1.85.04v-.4h.42c.33,0,.53-.07.6-.22.07-.15.1-.77.1-1.87v-5.13Z"/>
      <path d="M512.85,611.86l-1.88,3.91c-.7,1.47-1.28,2.75-1.73,3.84h-.25c-.16-.38-.6-1.34-1.34-2.89l-2.26-4.68v4.88c0,1.14.05,1.78.14,1.94s.37.23.85.23h.23v.4c-.59-.03-1.06-.04-1.43-.04-.27,0-.79.01-1.59.04v-.4h.41c.28,0,.46-.04.56-.12s.15-.22.17-.44c.05-.59.08-1.22.08-1.91v-3.57c0-.86-.02-1.43-.06-1.71-.02-.14-.08-.25-.19-.33-.11-.08-.32-.11-.64-.11h-.33v-.4c.73.03,1.19.04,1.38.04.24,0,.58-.01,1.02-.04.51,1.13,1.1,2.38,1.76,3.75l1.66,3.42,1.54-3.17c.54-1.11,1.15-2.44,1.84-4,.53.03.9.04,1.11.04.25,0,.7-.01,1.34-.04v.4h-.41c-.37,0-.6.06-.68.19-.08.13-.12.59-.12,1.39v4.62c0,1.03.04,1.62.13,1.77.09.15.33.23.73.23h.36v.4c-.58-.03-1.14-.04-1.68-.04-.59,0-1.21.01-1.85.04v-.4h.42c.33,0,.53-.07.6-.22s.1-.77.1-1.87v-5.13Z"/>
    </g>
    <g>
      <path class="cls-6" d="M402.4,383.4c-.26,0-.47-.09-.64-.26s-.25-.38-.25-.62v-22.94c0-.26.08-.47.25-.64s.38-.25.64-.25h9.88c1.95,0,3.65.3,5.1.9,1.45.6,2.58,1.5,3.39,2.7.81,1.2,1.22,2.72,1.22,4.55s-.41,3.31-1.22,4.48c-.81,1.18-1.94,2.05-3.39,2.61-1.45.56-3.15.85-5.1.85h-4.2v7.73c0,.24-.09.44-.26.62s-.39.26-.65.26h-4.76ZM407.98,369.92h4.13c1.01,0,1.82-.26,2.42-.78.6-.52.9-1.31.9-2.36,0-.89-.26-1.65-.78-2.26-.52-.61-1.36-.92-2.54-.92h-4.13v6.32Z"/>
      <path class="cls-6" d="M428.55,383.75c-1.27,0-2.41-.24-3.41-.72-1-.48-1.79-1.13-2.38-1.96-.59-.82-.88-1.75-.88-2.79,0-1.67.68-2.99,2.05-3.97,1.36-.98,3.18-1.64,5.44-1.99l4.41-.67v-.49c0-.85-.18-1.49-.53-1.94-.35-.45-1-.67-1.94-.67-.66,0-1.19.13-1.61.39-.41.26-.74.61-.97,1.06-.21.31-.51.46-.88.46h-3.95c-.26,0-.46-.08-.6-.23-.14-.15-.2-.33-.18-.55,0-.42.16-.91.48-1.46.32-.55.81-1.1,1.46-1.64.66-.54,1.51-.99,2.54-1.34,1.04-.35,2.29-.53,3.78-.53s2.8.18,3.88.53,1.96.85,2.65,1.48c.68.64,1.18,1.38,1.5,2.24.32.86.48,1.81.48,2.84v10.73c0,.24-.09.44-.26.62-.18.18-.38.26-.62.26h-4.09c-.26,0-.47-.09-.64-.26-.17-.18-.25-.38-.25-.62v-1.24c-.31.45-.72.86-1.24,1.24-.52.38-1.12.68-1.82.9-.69.22-1.5.34-2.42.34ZM430.21,379.73c.68,0,1.3-.15,1.85-.44.55-.29.99-.75,1.31-1.38.32-.62.48-1.41.48-2.35v-.49l-3,.53c-1.11.19-1.91.48-2.42.86-.51.39-.76.84-.76,1.36,0,.4.12.74.35,1.02.23.28.55.5.94.65.39.15.81.23,1.25.23Z"/>
      <path class="cls-6" d="M443.2,383.4c-.26,0-.47-.09-.64-.26s-.25-.38-.25-.62v-16.59c0-.26.08-.47.25-.64s.38-.25.64-.25h4.06c.26,0,.48.08.65.25.18.16.26.38.26.64v1.34c.59-.73,1.38-1.34,2.36-1.83s2.15-.74,3.49-.74,2.57.31,3.62.92c1.05.61,1.87,1.51,2.47,2.68.6,1.18.9,2.64.9,4.38v9.85c0,.24-.08.44-.25.62-.17.18-.38.26-.64.26h-4.45c-.24,0-.44-.09-.62-.26-.18-.18-.26-.38-.26-.62v-9.63c0-1.11-.26-1.96-.79-2.56-.53-.6-1.31-.9-2.35-.9-.96,0-1.74.3-2.31.9-.58.6-.86,1.45-.86,2.56v9.63c0,.24-.09.44-.26.62-.18.18-.38.26-.62.26h-4.41Z"/>
      <path class="cls-6" d="M468.96,383.75c-1.27,0-2.41-.24-3.41-.72-1-.48-1.79-1.13-2.38-1.96-.59-.82-.88-1.75-.88-2.79,0-1.67.68-2.99,2.05-3.97,1.36-.98,3.18-1.64,5.44-1.99l4.41-.67v-.49c0-.85-.18-1.49-.53-1.94-.35-.45-1-.67-1.94-.67-.66,0-1.19.13-1.61.39-.41.26-.74.61-.97,1.06-.21.31-.51.46-.88.46h-3.95c-.26,0-.46-.08-.6-.23-.14-.15-.2-.33-.18-.55,0-.42.16-.91.48-1.46.32-.55.81-1.1,1.46-1.64.66-.54,1.51-.99,2.54-1.34,1.04-.35,2.29-.53,3.78-.53s2.8.18,3.88.53,1.96.85,2.65,1.48c.68.64,1.18,1.38,1.5,2.24.32.86.48,1.81.48,2.84v10.73c0,.24-.09.44-.26.62-.18.18-.38.26-.62.26h-4.09c-.26,0-.47-.09-.64-.26-.17-.18-.25-.38-.25-.62v-1.24c-.31.45-.72.86-1.24,1.24-.52.38-1.12.68-1.82.9-.69.22-1.5.34-2.42.34ZM470.62,379.73c.68,0,1.3-.15,1.85-.44.55-.29.99-.75,1.31-1.38.32-.62.48-1.41.48-2.35v-.49l-3,.53c-1.11.19-1.91.48-2.42.86-.51.39-.76.84-.76,1.36,0,.4.12.74.35,1.02.23.28.55.5.94.65.39.15.81.23,1.25.23Z"/>
      <path class="cls-6" d="M483.61,383.4c-.26,0-.47-.09-.64-.26s-.25-.38-.25-.62v-16.59c0-.24.08-.44.25-.62.16-.18.38-.26.64-.26h4.06c.26,0,.48.09.65.26.18.18.26.38.26.62v1.41c.61-.73,1.36-1.29,2.24-1.69.88-.4,1.88-.6,2.98-.6h1.55c.26,0,.47.08.64.25.16.16.25.38.25.64v3.63c0,.24-.08.44-.25.62-.17.18-.38.26-.64.26h-3.42c-.97,0-1.71.26-2.24.79-.53.53-.79,1.28-.79,2.24v9.03c0,.24-.09.44-.26.62-.18.18-.39.26-.65.26h-4.38Z"/>
      <path class="cls-6" d="M505.74,383.75c-1.98,0-3.64-.32-4.99-.95-1.35-.64-2.39-1.55-3.11-2.73-.72-1.19-1.12-2.61-1.22-4.25-.02-.47-.04-1.01-.04-1.61s.01-1.12.04-1.57c.09-1.67.52-3.09,1.27-4.27.75-1.18,1.81-2.08,3.16-2.72s2.98-.95,4.89-.95,3.57.32,4.92.95c1.35.64,2.41,1.54,3.16,2.72.75,1.18,1.18,2.6,1.27,4.27.02.45.04.97.04,1.57s-.01,1.14-.04,1.61c-.09,1.65-.5,3.06-1.22,4.25-.72,1.19-1.75,2.1-3.11,2.73-1.35.64-3.03.95-5.03.95ZM505.74,379.45c1.06,0,1.83-.32,2.31-.95s.76-1.59.83-2.86c.02-.35.04-.82.04-1.41s-.01-1.06-.04-1.41c-.07-1.25-.35-2.19-.83-2.84-.48-.65-1.25-.97-2.31-.97s-1.77.32-2.28.97c-.51.65-.78,1.59-.83,2.84-.02.35-.04.82-.04,1.41s.01,1.06.04,1.41c.05,1.27.32,2.22.83,2.86s1.26.95,2.28.95Z"/>
      <path class="cls-6" d="M517.95,383.4c-.26,0-.47-.09-.64-.26-.17-.18-.25-.38-.25-.62v-16.59c0-.26.08-.47.25-.64.16-.16.38-.25.64-.25h3.85c.26,0,.47.08.63.25s.25.38.25.64v1.2c.47-.64,1.13-1.19,1.98-1.68.85-.48,1.85-.74,3-.76,2.73-.07,4.6.94,5.61,3.04.54-.89,1.31-1.62,2.31-2.19,1-.56,2.1-.85,3.3-.85s2.32.28,3.3.83c.98.55,1.76,1.4,2.35,2.54.59,1.14.88,2.62.88,4.43v10.02c0,.24-.08.44-.25.62-.17.18-.38.26-.64.26h-4.09c-.26,0-.48-.09-.65-.26-.18-.18-.27-.38-.27-.62v-9.78c0-.82-.12-1.48-.35-1.96-.24-.48-.55-.83-.95-1.04-.4-.21-.86-.32-1.38-.32-.42,0-.84.11-1.25.32-.41.21-.74.56-.99,1.04-.25.48-.37,1.14-.37,1.96v9.78c0,.24-.08.44-.25.62-.17.18-.38.26-.64.26h-4.09c-.26,0-.47-.09-.63-.26-.17-.18-.25-.38-.25-.62v-9.78c0-.82-.13-1.48-.39-1.96-.26-.48-.59-.83-.99-1.04-.4-.21-.83-.32-1.31-.32s-.88.11-1.29.32c-.41.21-.74.56-.99,1.04-.25.48-.37,1.12-.37,1.92v9.81c0,.24-.09.44-.26.62-.18.18-.38.26-.62.26h-4.2Z"/>
      <path class="cls-6" d="M548.72,383.4c-.26,0-.47-.09-.64-.26-.17-.18-.25-.38-.25-.62v-16.59c0-.26.08-.47.25-.64.16-.16.38-.25.64-.25h3.85c.26,0,.47.08.63.25s.25.38.25.64v1.2c.47-.64,1.13-1.19,1.98-1.68.85-.48,1.85-.74,3-.76,2.73-.07,4.6.94,5.61,3.04.54-.89,1.31-1.62,2.31-2.19,1-.56,2.1-.85,3.3-.85s2.32.28,3.3.83c.98.55,1.76,1.4,2.35,2.54.59,1.14.88,2.62.88,4.43v10.02c0,.24-.08.44-.25.62-.17.18-.38.26-.64.26h-4.09c-.26,0-.48-.09-.65-.26-.18-.18-.27-.38-.27-.62v-9.78c0-.82-.12-1.48-.35-1.96-.24-.48-.55-.83-.95-1.04-.4-.21-.86-.32-1.38-.32-.42,0-.84.11-1.25.32-.41.21-.74.56-.99,1.04-.25.48-.37,1.14-.37,1.96v9.78c0,.24-.08.44-.25.62-.17.18-.38.26-.64.26h-4.09c-.26,0-.47-.09-.63-.26-.17-.18-.25-.38-.25-.62v-9.78c0-.82-.13-1.48-.39-1.96-.26-.48-.59-.83-.99-1.04-.4-.21-.83-.32-1.31-.32s-.88.11-1.29.32c-.41.21-.74.56-.99,1.04-.25.48-.37,1.12-.37,1.92v9.81c0,.24-.09.44-.26.62-.18.18-.38.26-.62.26h-4.2Z"/>
      <path class="cls-6" d="M579.46,362.4c-.26,0-.47-.08-.64-.25-.17-.16-.25-.38-.25-.64v-3.18c0-.23.08-.44.25-.62.16-.18.38-.26.64-.26h4.23c.24,0,.44.09.62.26.18.18.26.38.26.62v3.18c0,.26-.09.47-.26.64-.18.17-.38.25-.62.25h-4.23ZM579.49,383.4c-.26,0-.47-.09-.64-.26-.17-.18-.25-.38-.25-.62v-16.59c0-.26.08-.47.25-.64.16-.16.38-.25.64-.25h4.16c.26,0,.47.08.64.25.16.16.25.38.25.64v16.59c0,.24-.08.44-.25.62-.17.18-.38.26-.64.26h-4.16Z"/>
      <path class="cls-6" d="M595.59,383.75c-1.74,0-3.28-.32-4.62-.95s-2.41-1.56-3.19-2.77c-.79-1.21-1.22-2.66-1.29-4.36-.02-.38-.04-.85-.04-1.43s.01-1.05.04-1.43c.07-1.72.49-3.18,1.27-4.39.78-1.21,1.84-2.14,3.19-2.77,1.35-.64,2.9-.95,4.64-.95,1.62,0,3.02.23,4.18.69,1.16.46,2.11,1.03,2.82,1.71.72.68,1.26,1.38,1.62,2.1.37.72.56,1.35.58,1.89.02.24-.06.44-.25.62-.19.18-.4.26-.64.26h-4.48c-.26,0-.46-.06-.6-.18-.14-.12-.27-.29-.39-.53-.28-.73-.64-1.25-1.08-1.55-.44-.31-.99-.46-1.68-.46-.94,0-1.67.31-2.17.92s-.78,1.55-.83,2.82c-.02.94-.02,1.78,0,2.51.07,1.29.35,2.24.85,2.82.49.59,1.21.88,2.15.88.73,0,1.31-.16,1.73-.48.42-.32.76-.83,1.02-1.54.12-.23.25-.41.39-.53.14-.12.34-.18.6-.18h4.48c.24,0,.45.08.64.25.19.16.27.38.25.64-.02.38-.14.83-.35,1.38-.21.54-.54,1.11-.99,1.69-.45.59-1.03,1.13-1.75,1.62-.72.49-1.58.9-2.59,1.22-1.01.32-2.19.48-3.53.48Z"/>
    </g>
  </g>
</svg>