<svg xmlns="http://www.w3.org/2000/svg" id="Layer_1" data-name="Layer 1" viewBox="0 0 1000 1000"><defs><style>.cls-7{fill:#1f1e1e}.cls-8{fill:#ae2024}.cls-10{opacity:.65}.cls-11{fill:#db2127}.cls-14{fill:#881823}.cls-15{fill:#6f0f11}.cls-16{fill:#84282a}.cls-18{fill:#da3335}.cls-21{opacity:.6}.cls-24{fill:#632125}.cls-25{fill:#e1e1e1}</style></defs><path d="M955.07 539.77v401.58c0 20.2-16.37 36.57-36.57 36.57H82.53c-20.2 0-36.57-16.37-36.57-36.57V539.77z" class="cls-8"/><path d="M139.09 892.35c-2.63 0-4.77-2.14-4.77-4.77v-33.51h-33.51c-2.63 0-4.77-2.14-4.77-4.77v-30.43c0-2.63 2.14-4.77 4.77-4.77h33.51v-33.51c0-2.63 2.14-4.77 4.77-4.77h30.43c2.63 0 4.77 2.14 4.77 4.77v33.51h33.51c2.63 0 4.77 2.14 4.77 4.77v30.43c0 2.63-2.14 4.77-4.77 4.77h-33.51v33.51c0 2.63-2.14 4.77-4.77 4.77z" class="cls-11"/><path d="M169.52 776.96c1.99 0 3.61 1.62 3.61 3.61v34.68h34.68c1.99 0 3.61 1.62 3.61 3.61v30.43c0 1.99-1.62 3.61-3.61 3.61h-34.68v34.68c0 1.99-1.62 3.61-3.61 3.61h-30.43c-1.99 0-3.61-1.62-3.61-3.61V852.9H100.8c-1.99 0-3.61-1.62-3.61-3.61v-30.43c0-1.99 1.62-3.61 3.61-3.61h34.68v-34.68c0-1.99 1.62-3.61 3.61-3.61zm0-2.33h-30.43c-3.27 0-5.94 2.66-5.94 5.94v32.35H100.8c-3.27 0-5.94 2.66-5.94 5.94v30.43c0 3.27 2.66 5.94 5.94 5.94h32.35v32.35c0 3.27 2.66 5.94 5.94 5.94h30.43c3.27 0 5.94-2.66 5.94-5.94v-32.35h32.35c3.27 0 5.94-2.66 5.94-5.94v-30.43c0-3.27-2.66-5.94-5.94-5.94h-32.35v-32.35c0-3.27-2.66-5.94-5.94-5.94" style="fill:#741213"/><g class="cls-10"><path d="M152.54 788.5h3.11v21.8h-3.11z" class="cls-25"/></g><g class="cls-10"><path d="M152.54 857.85h3.11v21.8h-3.11z" class="cls-25"/></g><g class="cls-10"><path d="M108.52 832.52h21.8v3.11h-21.8z" class="cls-25"/></g><g class="cls-10"><path d="M177.88 832.52h21.8v3.11h-21.8z" class="cls-25"/></g><path d="M966.56 60.16v410.68H34.88V60.16c0-21.03 17-38.08 37.97-38.08h855.74c20.97 0 37.97 17.05 37.97 38.08" class="cls-8"/><path d="M955.59 70.3v400.54H48.22V70.3c0-20.47 16.59-37.06 37.05-37.06h833.26c20.47 0 37.06 16.59 37.06 37.06" style="fill:#0f0f0f"/><path d="M846.09 651c-6.69 0-13.08-2.5-17.99-7.05-5.4-5-8.49-12.07-8.49-19.42 0-14.6 11.88-26.48 26.48-26.48 5.1 0 10.05 1.46 14.32 4.22 7.61 4.89 12.15 13.21 12.15 22.26 0 14.6-11.88 26.47-26.47 26.47" class="cls-11"/><path d="M846.09 598.55c5.18 0 10 1.52 14.05 4.14 7.17 4.61 11.92 12.67 11.92 21.84 0 14.34-11.63 25.97-25.97 25.97-6.81 0-13.02-2.63-17.65-6.92-5.12-4.74-8.33-11.52-8.33-19.05 0-14.35 11.63-25.98 25.98-25.98m0-1c-14.88 0-26.98 12.1-26.98 26.98 0 7.48 3.15 14.69 8.65 19.78 5 4.63 11.51 7.19 18.33 7.19 14.87 0 26.97-12.1 26.97-26.97 0-9.22-4.63-17.7-12.38-22.68a26.8 26.8 0 0 0-14.59-4.3" class="cls-15"/><path d="M846.08 755.81c-14.6 0-26.47-11.88-26.47-26.47s11.88-26.47 26.47-26.47 26.47 11.88 26.47 26.47-11.88 26.47-26.47 26.47" class="cls-11"/><path d="M846.08 703.36c14.35 0 25.97 11.63 25.97 25.97s-11.63 25.97-25.97 25.97-25.97-11.63-25.97-25.97 11.63-25.97 25.97-25.97m0-1c-14.87 0-26.97 12.1-26.97 26.97s12.1 26.97 26.97 26.97 26.97-12.1 26.97-26.97-12.1-26.97-26.97-26.97" class="cls-15"/><path d="M793.68 703.41c-14.6 0-26.47-11.88-26.47-26.47s11.88-26.47 26.47-26.47 26.47 11.88 26.47 26.47-11.88 26.47-26.47 26.47" class="cls-11"/><path d="M793.68 650.96c14.35 0 25.97 11.63 25.97 25.97s-11.63 25.97-25.97 25.97-25.97-11.63-25.97-25.97 11.63-25.97 25.97-25.97m0-1c-14.87 0-26.97 12.1-26.97 26.97s12.1 26.97 26.97 26.97 26.97-12.1 26.97-26.97-12.1-26.97-26.97-26.97" class="cls-15"/><path d="M898.49 703.41c-14.6 0-26.47-11.88-26.47-26.47s11.88-26.47 26.47-26.47 26.47 11.88 26.47 26.47-11.88 26.47-26.47 26.47" class="cls-11"/><path d="M898.49 650.96c14.35 0 25.97 11.63 25.97 25.97s-11.63 25.97-25.97 25.97-25.97-11.63-25.97-25.97 11.63-25.97 25.97-25.97m0-1c-14.87 0-26.97 12.1-26.97 26.97s12.1 26.97 26.97 26.97 26.97-12.1 26.97-26.97-12.1-26.97-26.97-26.97" class="cls-15"/><path d="M773.33 933.56c-1.35 0-2.63-.58-3.52-1.6a4.62 4.62 0 0 1-1.18-3.1v-23.09c0-2.59 2.11-4.7 4.7-4.7h23.12c2.58.02 4.67 2.13 4.67 4.7v23.09c0 2.59-2.11 4.7-4.7 4.7z" class="cls-11"/><path d="M796.45 901.82c2.17.02 3.92 1.78 3.92 3.95v23.09c0 2.18-1.77 3.95-3.95 3.95h-23.09c-1.18 0-2.24-.52-2.96-1.34-.62-.69-.99-1.61-.99-2.61v-23.09c0-2.18 1.77-3.95 3.95-3.95zm0-1.5h-23.13a5.45 5.45 0 0 0-5.45 5.45v23.09c0 1.34.49 2.63 1.37 3.61a5.44 5.44 0 0 0 4.08 1.84h23.09a5.45 5.45 0 0 0 5.45-5.45v-23.09c0-2.98-2.43-5.42-5.41-5.45" style="fill:#841719"/><path d="M265.07 971.69c-7.94 0-14.4-6.46-14.4-14.4V542.01h496.62v415.28c0 7.94-6.46 14.4-14.4 14.4H265.06Z" class="cls-11"/><path d="M746.79 542.51v414.78c0 7.68-6.22 13.9-13.9 13.9H265.06c-7.68 0-13.9-6.22-13.9-13.9V542.51zm1-.99H250.17V957.3c0 8.21 6.68 14.89 14.89 14.89h467.83c8.21 0 14.89-6.68 14.89-14.89V541.52Z" class="cls-16"/><path d="M263.96 547.93H734v364.64H263.96z" class="cls-8"/><path d="M733.5 548.43v363.65H264.45V548.43zm1-1H263.46v365.64H734.5z" class="cls-16"/><path d="M272.05 963.15c-4.44 0-8.06-3.62-8.06-8.06V912.8h470.02v42.29c0 4.44-3.62 8.06-8.06 8.06z" class="cls-8"/><path d="M733.52 913.28v41.81c0 4.18-3.39 7.57-7.57 7.57h-453.9c-4.18 0-7.57-3.39-7.57-7.57v-41.81h469.05m.96-.97H263.5v42.78c0 2.28.89 4.43 2.5 6.04a8.5 8.5 0 0 0 6.04 2.5h453.9c4.71 0 8.55-3.83 8.55-8.55V912.3Z" class="cls-16"/><path d="M285.37 566.76h426.68c1.85 0 3.34 1.5 3.34 3.34v319.54c0 1.84-1.5 3.34-3.34 3.34H285.37a3.34 3.34 0 0 1-3.34-3.34V570.1c0-1.85 1.5-3.34 3.34-3.34" class="cls-7"/><path d="M712.06 569.77c.18 0 .33.15.33.33v319.54c0 .18-.15.33-.33.33H285.38c-.18 0-.33-.15-.33-.33V570.1c0-.18.15-.33.33-.33zm0-6.03H285.38c-3.5 0-6.36 2.85-6.36 6.36v319.54c0 3.5 2.85 6.36 6.36 6.36h426.68c3.5 0 6.36-2.85 6.36-6.36V570.1c0-3.5-2.85-6.36-6.36-6.36"/><rect width="548.1" height="326.98" x="224.67" y="118.8" class="cls-7" rx="3.76" ry="3.76"/><path d="M769 122.19c.21 0 .37.17.37.37v319.46c0 .21-.17.37-.37.37H228.43a.37.37 0 0 1-.37-.37V122.57c0-.21.17-.37.37-.37H769m0-6.79H228.43c-3.94 0-7.15 3.21-7.15 7.15v319.46c0 3.94 3.21 7.15 7.15 7.15H769c3.94 0 7.15-3.21 7.15-7.15V122.57c0-3.94-3.21-7.15-7.15-7.15Z"/><path d="M154.1 736.87c-42.17 0-76.47-34.31-76.47-76.48s34.31-76.47 76.47-76.47 76.47 34.31 76.47 76.47-34.31 76.48-76.47 76.48" style="fill:#9f1e22"/><path d="M154.1 587.42c40.3 0 72.97 32.67 72.97 72.97s-32.67 72.97-72.97 72.97-72.97-32.67-72.97-72.97 32.67-72.97 72.97-72.97m0-7c-44.1 0-79.97 35.88-79.97 79.97s35.88 79.97 79.97 79.97 79.97-35.88 79.97-79.97-35.88-79.97-79.97-79.97" style="fill:#7b3438"/><path d="M955.59 525.89v13.88h-.52l-81.51.03-337.87.11-408.88.14-79.29.03-1.56-.31v-17.31l2.15-1.37 15.66-9.94 21.05-13.37 38.72-24.59 3.69-2.35h745.1l3.55 2.34 37.2 24.6 23.16 15.32 11.78 7.79z" style="fill:#434042"/><circle cx="154.1" cy="660.39" r="50.67" style="fill:#a5a4a4"/><circle cx="154.1" cy="660.39" r="40.33" style="fill:#bcbbc1"/><path d="M874.68 522.46H125.51l1.3 17.62h746.73z" class="cls-14"/><path d="M125.51 507.61h749.16v14.85H125.51z" class="cls-8"/><path d="M872.32 470.84h-745.1l-1.71 36.77h749.17z" class="cls-18"/><circle cx="133.22" cy="250.69" r="3.42"/><circle cx="110.38" cy="250.69" r="3.42"/><circle cx="156.07" cy="250.69" r="3.42"/><circle cx="133.22" cy="273.53" r="3.42"/><circle cx="133.22" cy="227.84" r="3.42"/><path d="M876.05 497.78h60.19v22.48h-60.19z" class="cls-8"/><path d="M935.22 537.75h-60.19l1.02-17.49h60.19z" class="cls-14"/><path d="m936.24 520.26 32.51 1.73c-1.32 5.06-10 10.52-18 15.75h-15.52l1.02-17.48Z" class="cls-24"/><path d="M936.24 520.26v-22.48l11.71-16.79c5.09 4.82 17.05 17.01 20.8 41z" class="cls-8"/><path d="M947.94 480.99c-8.73-8.72-42.54-7.66-73.45-7.82l1.56 24.61h60.19l11.71-16.79Z" class="cls-18"/><path d="M123.95 520.27H63.76v-22.48h60.19z" class="cls-8"/><path d="M64.78 537.75h60.19l-1.02-17.49H63.77z" class="cls-14"/><path d="M64.79 537.75H49.26c-1.09-.72-2.2-1.44-3.3-2.16-6.94-4.56-13.56-9.23-14.7-13.6l16.85-.9 15.66-.83z" class="cls-24"/><path d="M63.77 497.78v22.48l-15.66.83-16.85.9c3.76-23.99 15.72-36.18 20.8-41z" class="cls-8"/><path d="m125.52 473.18-1.56 24.6H63.77l-11.71-16.79c8.54-8.53 41.12-7.7 71.48-7.8.66 0 1.32-.01 1.98-.01" class="cls-18"/><path d="M955.59 335.61h10.79v28.25h-10.79z" style="fill:#9a1e27"/><circle cx="869.5" cy="250.69" r="3.42"/><circle cx="846.65" cy="250.69" r="3.42"/><circle cx="892.34" cy="250.69" r="3.42"/><circle cx="869.5" cy="273.53" r="3.42"/><circle cx="869.5" cy="227.84" r="3.42"/><path d="M952.76 300.85h13.8v41.58h-13.8a2.3 2.3 0 0 1-2.3-2.3v-36.99a2.3 2.3 0 0 1 2.3-2.3Z" style="stroke-width:.49px;fill:#bcb8c4;stroke:#7c797a;stroke-miterlimit:10"/><rect width="17.89" height="4.25" x="950.46" y="318.93" rx="1.56" ry="1.56" style="fill:#bcb8c4;stroke:#7c797a;stroke-miterlimit:10;stroke-width:.47px"/><path d="M870.19 464.75h85.39v6.08h-86.45c-1.12 0-2.03-.91-2.03-2.03v-.96c0-1.71 1.38-3.09 3.09-3.09m-733.77 3.09v.97c0 1.12-.91 2.03-2.03 2.03H47.94v-6.09h85.39c1.71 0 3.09 1.39 3.09 3.09" class="cls-8"/><g class="cls-21"><path d="M308.87 927.49h91.44v20.96h-91.44z" class="cls-18"/></g><g class="cls-21"><path d="M455 927.49h91.44v20.96H455z" class="cls-18"/></g><g class="cls-21"><path d="M601.12 927.49h91.44v20.96h-91.44z" class="cls-18"/></g><circle cx="499.65" cy="69.58" r="9.11" style="stroke-miterlimit:10;fill:#080809;stroke:#2d2b2b;stroke-width:2px"/><path d="m753.14 23.49-4.1 9.75-37.46 88.95L576.75 442.4l-11.98 28.44-15.48 36.77-6.25 14.85-7.29 17.31-.06.14-.07.17-1.03 2.43-2.49 5.92-8.99 21.34-134.83 320.2-9.3 22.1-.51 1.21-5.98 14.21-8.83 20.96-5.98 14.21-3.6 8.54-2.83 6.72H82.53c-20.2 0-36.57-16.37-36.57-36.57V535.59c-6.94-4.56-13.56-9.23-14.7-13.6 3.76-23.99 15.72-36.18 20.8-41 8.54-8.53 41.12-7.7 71.48-7.8l3.69-2.35H34.88V61.45c0-20.96 17-37.96 37.97-37.96z" style="fill:#44566b;opacity:.04"/><path d="M860.18 604.38c0 19.27-13.61 35.37-31.74 39.2-5.12-4.74-8.33-11.52-8.33-19.05 0-14.35 11.63-25.98 25.98-25.98 5.18 0 10 1.52 14.05 4.14.03.56.04 1.12.04 1.69m-52.41 51.95c0 19.27-13.61 35.37-31.74 39.2-5.12-4.74-8.33-11.52-8.33-19.05 0-14.35 11.63-25.98 25.98-25.98 5.18 0 10 1.52 14.05 4.14.03.56.04 1.12.04 1.69m104.81.46c0 19.27-13.61 35.37-31.74 39.2-5.12-4.74-8.33-11.52-8.33-19.05 0-14.35 11.63-25.98 25.98-25.98 5.18 0 10 1.52 14.05 4.14.03.56.04 1.12.04 1.69m-52.86 52.4c0 19.27-13.61 35.37-31.74 39.2-5.12-4.74-8.33-11.52-8.33-19.05 0-14.35 11.63-25.98 25.98-25.98 5.18 0 10 1.52 14.05 4.14.03.56.04 1.12.04 1.69m-63.27 192.63c-2.88 13.86-12.92 25.09-26.08 29.65-.62-.69-.99-1.61-.99-2.61v-23.09c0-2.18 1.77-3.95 3.95-3.95z" style="opacity:.04;fill:#8aaad2"/></svg>