<svg xmlns="http://www.w3.org/2000/svg" viewBox="0 0 1000 1000"><defs><style>.cls-1{fill:#333;stroke:#444;stroke-miterlimit:10;stroke-width:.75px}.cls-6{fill:#e37135}.cls-8{fill:#ecd7ac}.cls-9{fill:#ea895e}.cls-11{fill:#f7eabd}</style></defs><g id="Body"><path d="M961.8 786.12h-5.38v-22.11h5.38c1.14 8.71.96 15.88 0 22.11m-933.21 0h5.38v-22.11h-5.38c-1.14 8.71-.96 15.88 0 22.11" style="fill:#353535"/><path d="M938.11 343.95c9.26 120.79 16.01 291.37 21.26 491.82 0 21.41-17.36 38.76-38.76 38.76H69.65c-21.41 0-38.76-17.36-38.76-38.76 4.99-211.9 10.78-379.09 17.57-491.83" style="fill:#e2d2c3"/><path d="M48.45 343.94c4.39-72.94 9.19-123.08 14.46-147.78 1.41-6.62 7.29-11.33 14.06-11.33h829.96c6.87 0 12.79 4.85 14.12 11.59 6.5 33.07 12.13 83.25 17.06 147.53" style="fill:#d8cabc"/><path d="M134.21 397.45 127.51 710c0 10.86 10.74 19.66 23.98 19.66h691.49c13.24 0 23.98-8.8 23.98-19.66l-7.35-312.55V698.2c0 12.99-10.53 23.53-23.53 23.53H157.73c-12.99 0-23.53-10.53-23.53-23.53V397.45Z" style="stroke:#ddc9bf;stroke-linejoin:round;stroke-width:5px;fill:#ddc9bf"/><path d="m937.56 336.85-888.65-.41-.9 14.94h890.66z" style="fill:#ddc9bf"/><path d="M822.92 323.31H166.61l6.66-118.02h642.6z" style="fill:#232323"/><path d="m175.36 222.03-3.58-19.69a5.28 5.28 0 0 1 5.2-6.23H812c3.09 0 5.53 2.65 5.27 5.73l-3.69 20.2" class="cls-1"/><path d="m175.36 233.28-3.58-19.69a5.28 5.28 0 0 1 5.2-6.23H812c3.09 0 5.53 2.65 5.27 5.73l-3.69 20.2" class="cls-1"/><path d="m175.36 244.53-3.58-19.69a5.28 5.28 0 0 1 5.2-6.23H812c3.09 0 5.53 2.65 5.27 5.73l-3.69 20.2" class="cls-1"/><path d="m175.36 255.79-3.58-19.69a5.28 5.28 0 0 1 5.2-6.23H812c3.09 0 5.53 2.65 5.27 5.73l-3.69 20.2" class="cls-1"/><path d="m175.36 267.04-3.58-19.69a5.28 5.28 0 0 1 5.2-6.23H812c3.09 0 5.53 2.65 5.27 5.73l-3.69 20.2" class="cls-1"/><path d="m175.36 278.3-3.58-19.69a5.28 5.28 0 0 1 5.2-6.23H812c3.09 0 5.53 2.65 5.27 5.73l-3.69 20.2" class="cls-1"/><path d="m175.36 289.55-3.58-19.69a5.28 5.28 0 0 1 5.2-6.23H812c3.09 0 5.53 2.65 5.27 5.73l-3.69 20.2" class="cls-1"/><path d="m175.36 300.8-3.58-19.69a5.28 5.28 0 0 1 5.2-6.23H812c3.09 0 5.53 2.65 5.27 5.73l-3.69 20.2" class="cls-1"/><path d="m175.36 312.06-3.58-19.69a5.28 5.28 0 0 1 5.2-6.23H812c3.09 0 5.53 2.65 5.27 5.73l-3.69 20.2" class="cls-1"/><path d="m175.36 323.31-3.58-19.69a5.28 5.28 0 0 1 5.2-6.23H812c3.09 0 5.53 2.65 5.27 5.73l-3.69 20.2" class="cls-1"/></g><g id="Layer_4" data-name="Layer 4"><path d="M194.98 420.41c-.09 0-.15-.04-.2-.11l-4.16-6.63-.76.04h-2.56v6.38c0 .18-.12.32-.26.32h-3.6c-.15 0-.26-.14-.26-.32V395.5c0-.18.12-.32.26-.32h6.42c6.66 0 9.13 4.33 9.13 9.27 0 3.43-1.31 6.35-3.95 7.97l4.74 7.5.06.18c0 .18-.12.32-.26.32h-4.59Zm-.52-7.93-.03-.07-.03-.14c0-.11.06-.22.15-.25 2.67-1.48 3.95-4.22 3.95-7.57 0-2.45-.64-4.62-2.01-6.13-1.4-1.55-3.55-2.49-6.63-2.49h-6.16v23.94h3.08v-6.38c0-.18.12-.32.26-.32h2.82c.29 0 .58 0 .87-.04.09 0 .17.04.2.14l4.16 6.6h3.92l-4.56-7.28Zm-9.48 5.37v-20.12c0-.18.12-.32.26-.32h4.04c5.38 0 7.96 2.2 7.96 7.03s-2.59 7.03-7.96 7.03h-2.24c-.15 0-.26-.14-.26-.32s.12-.32.26-.32h2.24c5.23 0 7.47-2.02 7.47-6.38s-2.27-6.38-7.47-6.38h-3.78v19.79c0 .18-.12.32-.26.32s-.26-.14-.26-.32Zm2.06-8.62c-.15 0-.26-.14-.26-.32v-8.94c0-.18.12-.32.26-.32h2.82c3.69 0 5.41 1.55 5.41 4.8s-1.71 4.8-5.41 4.8h-2.82Zm7.71-4.79c0-2.85-1.48-4.15-4.88-4.15h-2.56v8.29h2.56c3.4 0 4.88-1.3 4.88-4.15Zm1.04 13.63-3.17-5.08c-.03-.07-.06-.14-.06-.22s.03-.14.09-.22.12-.07.17-.07c.09 0 .15.04.2.11l3.17 5.08c.03.07.06.14.06.22s-.03.14-.09.22c-.06.04-.12.07-.17.07s-.15-.04-.2-.11m23.03-22.72c.06-.11.15-.18.23-.18 2.47 0 3.75.04 3.81.07.03.07.06 4.25.06 12.55s-.03 12.48-.06 12.51c-.06.07-.73.11-2.01.11s-1.92-.04-1.95-.11c-.06-.04-.09-4.18-.09-12.37l-4.94 12.3c-.03.11-.12.18-.23.18h-3.08c-.09 0-.17-.07-.23-.18l-4.91-12.3c0 8.19-.03 12.33-.06 12.37-.06.07-.73.11-2.01.11s-1.95-.04-1.98-.11c-.06-.04-.09-4.22-.09-12.51s.03-12.48.09-12.55c.03-.04.7-.07 1.98-.07s1.95.04 2.01.07c0 .04 2.27 5.88 6.74 17.49l6.71-17.38Zm3.6.47h-3.2l-6.89 17.81c-.06.11-.15.14-.23.18-.12 0-2.5-5.99-7.12-17.99h-3.17v23.94h3.08v-13.2c0-.18.09-.29.26-.32.09 0 .17.07.23.18l5.32 13.34h2.79l5.32-13.34c.09-.11.15-.18.23-.18s.15.04.2.07c.03.07.06 4.54.06 13.45h3.11v-23.94Zm-10.55 22.54L203.61 399v18.86c0 .22-.09.32-.26.32-.09 0-.15-.04-.17-.11-.06-.04-.09-3.46-.09-10.28s.03-10.24.09-10.31c.03-.04.09-.07.17-.07.12.04.2.11.23.22l8.52 19.9c5.73-13.34 8.58-20.01 8.6-20.05.03 0 .06-.04.09-.07.15 0 .23.04.26.07.03.07.03.11.06.11v20.26c0 .22-.09.32-.26.32-.06 0-.12-.04-.15-.11-.06-.04-.09-6.42-.09-19.07-5.55 13.02-8.4 19.51-8.49 19.54-.09 0-.17-.07-.26-.18Zm31.22-23.01c.06-.11.15-.18.23-.18 2.47 0 3.75.04 3.81.07.03.07.06 4.25.06 12.55s-.03 12.48-.06 12.51c-.06.07-.73.11-2.01.11s-1.92-.04-1.95-.11c-.06-.04-.09-4.18-.09-12.37l-4.94 12.3c-.03.11-.12.18-.23.18h-3.08c-.09 0-.17-.07-.23-.18l-4.91-12.3c0 8.19-.03 12.33-.06 12.37-.06.07-.73.11-2.01.11s-1.95-.04-1.98-.11c-.06-.04-.09-4.22-.09-12.51s.03-12.48.09-12.55c.03-.04.7-.07 1.98-.07s1.95.04 2.01.07c0 .04 2.27 5.88 6.74 17.49l6.71-17.38Zm3.6.47h-3.2l-6.89 17.81c-.06.11-.15.14-.23.18-.12 0-2.5-5.99-7.12-17.99h-3.17v23.94h3.08v-13.2c0-.18.09-.29.26-.32.09 0 .17.07.23.18l5.32 13.34h2.79l5.32-13.34c.09-.11.15-.18.23-.18s.15.04.2.07c.03.07.06 4.54.06 13.45h3.11v-23.94Zm-10.55 22.54L227.88 399v18.86c0 .22-.09.32-.26.32-.09 0-.15-.04-.17-.11-.06-.04-.09-3.46-.09-10.28s.03-10.24.09-10.31c.03-.04.09-.07.17-.07.12.04.2.11.23.22l8.52 19.9c5.73-13.34 8.58-20.01 8.6-20.05.03 0 .06-.04.09-.07.15 0 .23.04.26.07.03.07.03.11.06.11v20.26c0 .22-.09.32-.26.32-.06 0-.12-.04-.15-.11-.06-.04-.09-6.42-.09-19.07-5.55 13.02-8.4 19.51-8.49 19.54-.09 0-.17-.07-.26-.18Z" style="fill:#7a7a7a"/><path d="M258.34 412.79c0 2.66-1.67 4.29-4.4 4.29s-4.37-1.63-4.37-4.29c0-1.92.89-3.25 2.46-3.79-1.32-.57-2.05-1.76-2.05-3.44 0-2.44 1.55-3.94 3.95-3.94s3.99 1.5 3.99 3.94c0 1.68-.74 2.88-2.08 3.44 1.59.54 2.5 1.9 2.5 3.79m-.84 0c0-2.03-1.32-3.31-3.56-3.31s-3.52 1.29-3.52 3.31 1.29 3.33 3.52 3.33 3.56-1.29 3.56-3.33m-3.56-4.23c1.97 0 3.14-1.15 3.14-2.96s-1.22-3.03-3.14-3.03-3.11 1.15-3.11 3.01 1.14 2.99 3.11 2.99Zm5.5.79c0-4.77 1.87-7.74 4.53-7.74s4.53 2.96 4.53 7.74-1.87 7.74-4.53 7.74-4.53-2.96-4.53-7.74m8.22 0c0-4.25-1.51-6.71-3.69-6.71s-3.69 2.46-3.69 6.71 1.5 6.71 3.69 6.71 3.69-2.46 3.69-6.71" style="fill:#565656"/><path d="M180.74 471h606.38v42.71h46.68v54.17h-9.88v93.36H664.7v45.36H282.46v-44.92H168.85v-92.92h-10.57v-55.49h22.46z" style="fill:#1b191a"/></g><g id="Keys"><path d="M496.83 516.22h25.54c5.04 0 9.13 4.09 9.13 9.13v32.8c0 1.77-1.44 3.21-3.21 3.21h-37.37c-1.77 0-3.21-1.44-3.21-3.21v-32.8c0-5.04 4.09-9.13 9.13-9.13Z" class="cls-8"/><path d="M503.17 517.24h12.85c5.11 0 9.26 4.15 9.26 9.26v11.72c0 4.46-3.62 8.08-8.08 8.08H502c-4.46 0-8.08-3.62-8.08-8.08V526.5c0-5.11 4.15-9.26 9.26-9.26Z" class="cls-11"/><path d="M543.08 516.22h25.54c5.04 0 9.13 4.09 9.13 9.13v32.8c0 1.77-1.44 3.21-3.21 3.21h-37.37c-1.77 0-3.21-1.44-3.21-3.21v-32.8c0-5.04 4.09-9.13 9.13-9.13Z" class="cls-8"/><path d="M549.42 517.24h12.85c5.11 0 9.26 4.15 9.26 9.26v11.72c0 4.46-3.62 8.08-8.08 8.08h-15.2c-4.46 0-8.08-3.62-8.08-8.08V526.5c0-5.11 4.15-9.26 9.26-9.26Z" class="cls-11"/><path d="M589.32 516.22h25.54c5.04 0 9.13 4.09 9.13 9.13v32.8c0 1.77-1.44 3.21-3.21 3.21h-37.37c-1.77 0-3.21-1.44-3.21-3.21v-32.8c0-5.04 4.09-9.13 9.13-9.13Z" class="cls-8"/><path d="M595.67 517.24h12.85c5.11 0 9.26 4.15 9.26 9.26v11.72c0 4.46-3.62 8.08-8.08 8.08h-15.2c-4.46 0-8.08-3.62-8.08-8.08V526.5c0-5.11 4.15-9.26 9.26-9.26Z" class="cls-11"/><path d="M635.57 516.22h25.54c5.04 0 9.13 4.09 9.13 9.13v32.8c0 1.77-1.44 3.21-3.21 3.21h-37.37c-1.77 0-3.21-1.44-3.21-3.21v-32.8c0-5.04 4.09-9.13 9.13-9.13Z" class="cls-8"/><path d="M641.92 517.24h12.85c5.11 0 9.26 4.15 9.26 9.26v11.72c0 4.46-3.62 8.08-8.08 8.08h-15.2c-4.46 0-8.08-3.62-8.08-8.08V526.5c0-5.11 4.15-9.26 9.26-9.26Z" class="cls-11"/><path d="M311.84 516.22h25.54c5.04 0 9.13 4.09 9.13 9.13v32.8c0 1.77-1.44 3.21-3.21 3.21h-37.37c-1.77 0-3.21-1.44-3.21-3.21v-32.8c0-5.04 4.09-9.13 9.13-9.13Z" class="cls-8"/><path d="M318.18 517.24h12.85c5.11 0 9.26 4.15 9.26 9.26v11.72c0 4.46-3.62 8.08-8.08 8.08h-15.2c-4.46 0-8.08-3.62-8.08-8.08V526.5c0-5.11 4.15-9.26 9.26-9.26Z" class="cls-11"/><path d="M358.09 516.22h25.54c5.04 0 9.13 4.09 9.13 9.13v32.8c0 1.77-1.44 3.21-3.21 3.21h-37.37c-1.77 0-3.21-1.44-3.21-3.21v-32.8c0-5.04 4.09-9.13 9.13-9.13Z" class="cls-8"/><path d="M364.43 517.24h12.85c5.11 0 9.26 4.15 9.26 9.26v11.72c0 4.46-3.62 8.08-8.08 8.08h-15.2c-4.46 0-8.08-3.62-8.08-8.08V526.5c0-5.11 4.15-9.26 9.26-9.26Z" class="cls-11"/><path d="M219.35 516.22h25.54c5.04 0 9.13 4.09 9.13 9.13v32.8c0 1.77-1.44 3.21-3.21 3.21h-37.37c-1.77 0-3.21-1.44-3.21-3.21v-32.8c0-5.04 4.09-9.13 9.13-9.13Z" class="cls-8"/><path d="M225.69 517.24h12.85c5.11 0 9.26 4.15 9.26 9.26v11.72c0 4.46-3.62 8.08-8.08 8.08h-15.2c-4.46 0-8.08-3.62-8.08-8.08V526.5c0-5.11 4.15-9.26 9.26-9.26Z" class="cls-11"/><path d="M173.55 516.22h25.54c5.04 0 9.13 4.09 9.13 9.13v32.8c0 1.77-1.44 3.21-3.21 3.21h-37.37c-1.77 0-3.21-1.44-3.21-3.21v-32.8c0-5.04 4.09-9.13 9.13-9.13Z" class="cls-6"/><path d="M179.89 517.24h12.85c5.11 0 9.26 4.15 9.26 9.26v11.72c0 4.46-3.62 8.08-8.08 8.08h-15.2c-4.46 0-8.08-3.62-8.08-8.08V526.5c0-5.11 4.15-9.26 9.26-9.26Z" class="cls-9"/><path d="M184.04 564.02h25.54c5.04 0 9.13 4.09 9.13 9.13v32.8c0 1.77-1.44 3.21-3.21 3.21h-37.37c-1.77 0-3.21-1.44-3.21-3.21v-32.8c0-5.04 4.09-9.13 9.13-9.13Z" class="cls-6"/><path d="M190.38 565.03h12.85c5.11 0 9.26 4.15 9.26 9.26v11.72c0 4.46-3.62 8.08-8.08 8.08h-15.2c-4.46 0-8.08-3.62-8.08-8.08v-11.72c0-5.11 4.15-9.26 9.26-9.26Z" class="cls-9"/><path d="M785.07 564.02h25.54c5.04 0 9.13 4.09 9.13 9.13v32.8c0 1.77-1.44 3.21-3.21 3.21h-37.37c-1.77 0-3.21-1.44-3.21-3.21v-32.8c0-5.04 4.09-9.13 9.13-9.13Z" class="cls-6"/><path d="M791.42 565.03h12.85c5.11 0 9.26 4.15 9.26 9.26v11.72c0 4.46-3.62 8.08-8.08 8.08h-15.2c-4.46 0-8.08-3.62-8.08-8.08v-11.72c0-5.11 4.15-9.26 9.26-9.26Z" class="cls-9"/><path d="M785.07 611.82h25.54c5.04 0 9.13 4.09 9.13 9.13v32.8c0 1.77-1.44 3.21-3.21 3.21h-37.37c-1.77 0-3.21-1.44-3.21-3.21v-32.8c0-5.04 4.09-9.13 9.13-9.13Z" class="cls-6"/><path d="M791.42 612.83h12.85c5.11 0 9.26 4.15 9.26 9.26v11.72c0 4.46-3.62 8.08-8.08 8.08h-15.2c-4.46 0-8.08-3.62-8.08-8.08v-11.72c0-5.11 4.15-9.26 9.26-9.26Z" class="cls-9"/><path d="M715.61 611.82h48.75c5.04 0 9.13 4.09 9.13 9.13v32.8c0 1.77-1.44 3.21-3.21 3.21H709.7c-1.77 0-3.21-1.44-3.21-3.21v-32.8c0-5.04 4.09-9.13 9.13-9.13Z" class="cls-6"/><path d="M720.36 612.83h39.25c5.11 0 9.26 4.15 9.26 9.26v11.72c0 4.46-3.62 8.08-8.08 8.08h-41.6c-4.46 0-8.08-3.62-8.08-8.08v-11.72c0-5.11 4.15-9.26 9.26-9.26Z" class="cls-9"/><path d="M183.61 611.82h48.75c5.04 0 9.13 4.09 9.13 9.13v32.8c0 1.77-1.44 3.21-3.21 3.21H177.7c-1.77 0-3.21-1.44-3.21-3.21v-32.8c0-5.04 4.09-9.13 9.13-9.13Z" class="cls-6"/><path d="M188.37 612.83h39.25c5.11 0 9.26 4.15 9.26 9.26v11.72c0 4.46-3.62 8.08-8.08 8.08h-41.6c-4.46 0-8.08-3.62-8.08-8.08v-11.72c0-5.11 4.15-9.26 9.26-9.26Z" class="cls-9"/><path d="M773.57 516.22h48.75c5.04 0 9.13 4.09 9.13 9.13v32.8c0 1.77-1.44 3.21-3.21 3.21h-60.58c-1.77 0-3.21-1.44-3.21-3.21v-32.8c0-5.04 4.09-9.13 9.13-9.13Z" class="cls-6"/><path d="M778.33 517.24h39.25c5.11 0 9.26 4.15 9.26 9.26v11.72c0 4.46-3.62 8.08-8.08 8.08h-41.6c-4.46 0-8.08-3.62-8.08-8.08V526.5c0-5.11 4.15-9.26 9.26-9.26Z" class="cls-9"/><path d="M265.59 516.22h25.54c5.04 0 9.13 4.09 9.13 9.13v32.8c0 1.77-1.44 3.21-3.21 3.21h-37.37c-1.77 0-3.21-1.44-3.21-3.21v-32.8c0-5.04 4.09-9.13 9.13-9.13Z" class="cls-8"/><path d="M271.94 517.24h12.85c5.11 0 9.26 4.15 9.26 9.26v11.72c0 4.46-3.62 8.08-8.08 8.08h-15.2c-4.46 0-8.08-3.62-8.08-8.08V526.5c0-5.11 4.15-9.26 9.26-9.26Z" class="cls-11"/><path d="M404.33 516.22h25.54c5.04 0 9.13 4.09 9.13 9.13v32.8c0 1.77-1.44 3.21-3.21 3.21h-37.37c-1.77 0-3.21-1.44-3.21-3.21v-32.8c0-5.04 4.09-9.13 9.13-9.13Z" class="cls-8"/><path d="M410.68 517.24h12.85c5.11 0 9.26 4.15 9.26 9.26v11.72c0 4.46-3.62 8.08-8.08 8.08h-15.2c-4.46 0-8.08-3.62-8.08-8.08V526.5c0-5.11 4.15-9.26 9.26-9.26Z" class="cls-11"/><path d="M450.58 516.22h25.54c5.04 0 9.13 4.09 9.13 9.13v32.8c0 1.77-1.44 3.21-3.21 3.21h-37.37c-1.77 0-3.21-1.44-3.21-3.21v-32.8c0-5.04 4.09-9.13 9.13-9.13Z" class="cls-8"/><path d="M456.93 517.24h12.85c5.11 0 9.26 4.15 9.26 9.26v11.72c0 4.46-3.62 8.08-8.08 8.08h-15.2c-4.46 0-8.08-3.62-8.08-8.08V526.5c0-5.11 4.15-9.26 9.26-9.26Z" class="cls-11"/><path d="M681.82 516.22h25.54c5.04 0 9.13 4.09 9.13 9.13v32.8c0 1.77-1.44 3.21-3.21 3.21h-37.37c-1.77 0-3.21-1.44-3.21-3.21v-32.8c0-5.04 4.09-9.13 9.13-9.13Z" class="cls-8"/><path d="M688.16 517.24h12.85c5.11 0 9.26 4.15 9.26 9.26v11.72c0 4.46-3.62 8.08-8.08 8.08h-15.2c-4.46 0-8.08-3.62-8.08-8.08V526.5c0-5.11 4.15-9.26 9.26-9.26Z" class="cls-11"/><path d="M728.06 516.22h25.54c5.04 0 9.13 4.09 9.13 9.13v32.8c0 1.77-1.44 3.21-3.21 3.21h-37.37c-1.77 0-3.21-1.44-3.21-3.21v-32.8c0-5.04 4.09-9.13 9.13-9.13Z" class="cls-8"/><path d="M734.41 517.24h12.85c5.11 0 9.26 4.15 9.26 9.26v11.72c0 4.46-3.62 8.08-8.08 8.08h-15.2c-4.46 0-8.08-3.62-8.08-8.08V526.5c0-5.11 4.15-9.26 9.26-9.26Z" class="cls-11"/><path d="M507.59 564.02h25.54c5.04 0 9.13 4.09 9.13 9.13v32.8c0 1.77-1.44 3.21-3.21 3.21h-37.37c-1.77 0-3.21-1.44-3.21-3.21v-32.8c0-5.04 4.09-9.13 9.13-9.13Z" class="cls-8"/><path d="M513.93 565.03h12.85c5.11 0 9.26 4.15 9.26 9.26v11.72c0 4.46-3.62 8.08-8.08 8.08h-15.2c-4.46 0-8.08-3.62-8.08-8.08v-11.72c0-5.11 4.15-9.26 9.26-9.26Z" class="cls-11"/><path d="M553.83 564.02h25.54c5.04 0 9.13 4.09 9.13 9.13v32.8c0 1.77-1.44 3.21-3.21 3.21h-37.37c-1.77 0-3.21-1.44-3.21-3.21v-32.8c0-5.04 4.09-9.13 9.13-9.13Z" class="cls-8"/><path d="M560.18 565.03h12.85c5.11 0 9.26 4.15 9.26 9.26v11.72c0 4.46-3.62 8.08-8.08 8.08h-15.2c-4.46 0-8.08-3.62-8.08-8.08v-11.72c0-5.11 4.15-9.26 9.26-9.26Z" class="cls-11"/><path d="M600.08 564.02h25.54c5.04 0 9.13 4.09 9.13 9.13v32.8c0 1.77-1.44 3.21-3.21 3.21h-37.37c-1.77 0-3.21-1.44-3.21-3.21v-32.8c0-5.04 4.09-9.13 9.13-9.13Z" class="cls-8"/><path d="M606.43 565.03h12.85c5.11 0 9.26 4.15 9.26 9.26v11.72c0 4.46-3.62 8.08-8.08 8.08h-15.2c-4.46 0-8.08-3.62-8.08-8.08v-11.72c0-5.11 4.15-9.26 9.26-9.26Z" class="cls-11"/><path d="M646.33 564.02h25.54c5.04 0 9.13 4.09 9.13 9.13v32.8c0 1.77-1.44 3.21-3.21 3.21h-37.37c-1.77 0-3.21-1.44-3.21-3.21v-32.8c0-5.04 4.09-9.13 9.13-9.13Z" class="cls-8"/><path d="M652.67 565.03h12.85c5.11 0 9.26 4.15 9.26 9.26v11.72c0 4.46-3.62 8.08-8.08 8.08h-15.2c-4.46 0-8.08-3.62-8.08-8.08v-11.72c0-5.11 4.15-9.26 9.26-9.26Z" class="cls-11"/><path d="M322.6 564.02h25.54c5.04 0 9.13 4.09 9.13 9.13v32.8c0 1.77-1.44 3.21-3.21 3.21h-37.37c-1.77 0-3.21-1.44-3.21-3.21v-32.8c0-5.04 4.09-9.13 9.13-9.13Z" class="cls-8"/><path d="M328.94 565.03h12.85c5.11 0 9.26 4.15 9.26 9.26v11.72c0 4.46-3.62 8.08-8.08 8.08h-15.2c-4.46 0-8.08-3.62-8.08-8.08v-11.72c0-5.11 4.15-9.26 9.26-9.26Z" class="cls-11"/><path d="M368.84 564.02h25.54c5.04 0 9.13 4.09 9.13 9.13v32.8c0 1.77-1.44 3.21-3.21 3.21h-37.37c-1.77 0-3.21-1.44-3.21-3.21v-32.8c0-5.04 4.09-9.13 9.13-9.13Z" class="cls-8"/><path d="M375.19 565.03h12.85c5.11 0 9.26 4.15 9.26 9.26v11.72c0 4.46-3.62 8.08-8.08 8.08h-15.2c-4.46 0-8.08-3.62-8.08-8.08v-11.72c0-5.11 4.15-9.26 9.26-9.26Z" class="cls-11"/><path d="M230.1 564.02h25.54c5.04 0 9.13 4.09 9.13 9.13v32.8c0 1.77-1.44 3.21-3.21 3.21h-37.37c-1.77 0-3.21-1.44-3.21-3.21v-32.8c0-5.04 4.09-9.13 9.13-9.13Z" class="cls-8"/><path d="M236.45 565.03h12.85c5.11 0 9.26 4.15 9.26 9.26v11.72c0 4.46-3.62 8.08-8.08 8.08h-15.2c-4.46 0-8.08-3.62-8.08-8.08v-11.72c0-5.11 4.15-9.26 9.26-9.26Z" class="cls-11"/><path d="M276.35 564.02h25.54c5.04 0 9.13 4.09 9.13 9.13v32.8c0 1.77-1.44 3.21-3.21 3.21h-37.37c-1.77 0-3.21-1.44-3.21-3.21v-32.8c0-5.04 4.09-9.13 9.13-9.13Z" class="cls-8"/><path d="M282.69 565.03h12.85c5.11 0 9.26 4.15 9.26 9.26v11.72c0 4.46-3.62 8.08-8.08 8.08h-15.2c-4.46 0-8.08-3.62-8.08-8.08v-11.72c0-5.11 4.15-9.26 9.26-9.26Z" class="cls-11"/><path d="M415.09 564.02h25.54c5.04 0 9.13 4.09 9.13 9.13v32.8c0 1.77-1.44 3.21-3.21 3.21h-37.37c-1.77 0-3.21-1.44-3.21-3.21v-32.8c0-5.04 4.09-9.13 9.13-9.13Z" class="cls-8"/><path d="M421.44 565.03h12.85c5.11 0 9.26 4.15 9.26 9.26v11.72c0 4.46-3.62 8.08-8.08 8.08h-15.2c-4.46 0-8.08-3.62-8.08-8.08v-11.72c0-5.11 4.15-9.26 9.26-9.26Z" class="cls-11"/><path d="M461.34 564.02h25.54c5.04 0 9.13 4.09 9.13 9.13v32.8c0 1.77-1.44 3.21-3.21 3.21h-37.37c-1.77 0-3.21-1.44-3.21-3.21v-32.8c0-5.04 4.09-9.13 9.13-9.13Z" class="cls-8"/><path d="M467.68 565.03h12.85c5.11 0 9.26 4.15 9.26 9.26v11.72c0 4.46-3.62 8.08-8.08 8.08h-15.2c-4.46 0-8.08-3.62-8.08-8.08v-11.72c0-5.11 4.15-9.26 9.26-9.26Z" class="cls-11"/><path d="M692.57 564.02h25.54c5.04 0 9.13 4.09 9.13 9.13v32.8c0 1.77-1.44 3.21-3.21 3.21h-37.37c-1.77 0-3.21-1.44-3.21-3.21v-32.8c0-5.04 4.09-9.13 9.13-9.13Z" class="cls-8"/><path d="M698.92 565.03h12.85c5.11 0 9.26 4.15 9.26 9.26v11.72c0 4.46-3.62 8.08-8.08 8.08h-15.2c-4.46 0-8.08-3.62-8.08-8.08v-11.72c0-5.11 4.15-9.26 9.26-9.26Z" class="cls-11"/><path d="M738.82 564.02h25.54c5.04 0 9.13 4.09 9.13 9.13v32.8c0 1.77-1.44 3.21-3.21 3.21h-37.37c-1.77 0-3.21-1.44-3.21-3.21v-32.8c0-5.04 4.09-9.13 9.13-9.13Z" class="cls-8"/><path d="M745.17 565.03h12.85c5.11 0 9.26 4.15 9.26 9.26v11.72c0 4.46-3.62 8.08-8.08 8.08H744c-4.46 0-8.08-3.62-8.08-8.08v-11.72c0-5.11 4.15-9.26 9.26-9.26Z" class="cls-11"/><path d="M530.71 611.82h25.54c5.04 0 9.13 4.09 9.13 9.13v32.8c0 1.77-1.44 3.21-3.21 3.21H524.8c-1.77 0-3.21-1.44-3.21-3.21v-32.8c0-5.04 4.09-9.13 9.13-9.13Z" class="cls-8"/><path d="M537.05 612.83h12.85c5.11 0 9.26 4.15 9.26 9.26v11.72c0 4.46-3.62 8.08-8.08 8.08h-15.2c-4.46 0-8.08-3.62-8.08-8.08v-11.72c0-5.11 4.15-9.26 9.26-9.26Z" class="cls-11"/><path d="M576.96 611.82h25.54c5.04 0 9.13 4.09 9.13 9.13v32.8c0 1.77-1.44 3.21-3.21 3.21h-37.37c-1.77 0-3.21-1.44-3.21-3.21v-32.8c0-5.04 4.09-9.13 9.13-9.13Z" class="cls-8"/><path d="M583.3 612.83h12.85c5.11 0 9.26 4.15 9.26 9.26v11.72c0 4.46-3.62 8.08-8.08 8.08h-15.2c-4.46 0-8.08-3.62-8.08-8.08v-11.72c0-5.11 4.15-9.26 9.26-9.26Z" class="cls-11"/><path d="M623.2 611.82h25.54c5.04 0 9.13 4.09 9.13 9.13v32.8c0 1.77-1.44 3.21-3.21 3.21h-37.37c-1.77 0-3.21-1.44-3.21-3.21v-32.8c0-5.04 4.09-9.13 9.13-9.13Z" class="cls-8"/><path d="M629.55 612.83h12.85c5.11 0 9.26 4.15 9.26 9.26v11.72c0 4.46-3.62 8.08-8.08 8.08h-15.2c-4.46 0-8.08-3.62-8.08-8.08v-11.72c0-5.11 4.15-9.26 9.26-9.26Z" class="cls-11"/><path d="M669.45 611.82h25.54c5.04 0 9.13 4.09 9.13 9.13v32.8c0 1.77-1.44 3.21-3.21 3.21h-37.37c-1.77 0-3.21-1.44-3.21-3.21v-32.8c0-5.04 4.09-9.13 9.13-9.13Z" class="cls-8"/><path d="M675.8 612.83h12.85c5.11 0 9.26 4.15 9.26 9.26v11.72c0 4.46-3.62 8.08-8.08 8.08h-15.2c-4.46 0-8.08-3.62-8.08-8.08v-11.72c0-5.11 4.15-9.26 9.26-9.26Z" class="cls-11"/><path d="M299.47 659.46h352.29c5.04 0 9.13 4.09 9.13 9.13v30.3c0 1.77-1.44 3.21-3.21 3.21H293.56c-1.77 0-3.21-1.44-3.21-3.21v-30.3c0-5.04 4.09-9.13 9.13-9.13Z" class="cls-8"/><path d="M304.3 660.42h342.62c5.11 0 9.26 4.15 9.26 9.26v10.11c0 4.46-3.62 8.08-8.08 8.08H303.13c-4.46 0-8.08-3.62-8.08-8.08v-10.11c0-5.11 4.15-9.26 9.26-9.26Z" class="cls-11"/><path d="M345.72 611.82h25.54c5.04 0 9.13 4.09 9.13 9.13v32.8c0 1.77-1.44 3.21-3.21 3.21h-37.37c-1.77 0-3.21-1.44-3.21-3.21v-32.8c0-5.04 4.09-9.13 9.13-9.13Z" class="cls-8"/><path d="M352.07 612.83h12.85c5.11 0 9.26 4.15 9.26 9.26v11.72c0 4.46-3.62 8.08-8.08 8.08h-15.2c-4.46 0-8.08-3.62-8.08-8.08v-11.72c0-5.11 4.15-9.26 9.26-9.26Z" class="cls-11"/><path d="M391.97 611.82h25.54c5.04 0 9.13 4.09 9.13 9.13v32.8c0 1.77-1.44 3.21-3.21 3.21h-37.37c-1.77 0-3.21-1.44-3.21-3.21v-32.8c0-5.04 4.09-9.13 9.13-9.13Z" class="cls-8"/><path d="M398.31 612.83h12.85c5.11 0 9.26 4.15 9.26 9.26v11.72c0 4.46-3.62 8.08-8.08 8.08h-15.2c-4.46 0-8.08-3.62-8.08-8.08v-11.72c0-5.11 4.15-9.26 9.26-9.26Z" class="cls-11"/><path d="M253.23 611.82h25.54c5.04 0 9.13 4.09 9.13 9.13v32.8c0 1.77-1.44 3.21-3.21 3.21h-37.37c-1.77 0-3.21-1.44-3.21-3.21v-32.8c0-5.04 4.09-9.13 9.13-9.13Z" class="cls-8"/><path d="M259.57 612.83h12.85c5.11 0 9.26 4.15 9.26 9.26v11.72c0 4.46-3.62 8.08-8.08 8.08h-15.2c-4.46 0-8.08-3.62-8.08-8.08v-11.72c0-5.11 4.15-9.26 9.26-9.26Z" class="cls-11"/><path d="M299.47 611.82h25.54c5.04 0 9.13 4.09 9.13 9.13v32.8c0 1.77-1.44 3.21-3.21 3.21h-37.37c-1.77 0-3.21-1.44-3.21-3.21v-32.8c0-5.04 4.09-9.13 9.13-9.13Z" class="cls-8"/><path d="M305.82 612.83h12.85c5.11 0 9.26 4.15 9.26 9.26v11.72c0 4.46-3.62 8.08-8.08 8.08h-15.2c-4.46 0-8.08-3.62-8.08-8.08v-11.72c0-5.11 4.15-9.26 9.26-9.26Z" class="cls-11"/><path d="M438.21 611.82h25.54c5.04 0 9.13 4.09 9.13 9.13v32.8c0 1.77-1.44 3.21-3.21 3.21H432.3c-1.77 0-3.21-1.44-3.21-3.21v-32.8c0-5.04 4.09-9.13 9.13-9.13Z" class="cls-8"/><path d="M444.56 612.83h12.85c5.11 0 9.26 4.15 9.26 9.26v11.72c0 4.46-3.62 8.08-8.08 8.08h-15.2c-4.46 0-8.08-3.62-8.08-8.08v-11.72c0-5.11 4.15-9.26 9.26-9.26Z" class="cls-11"/><path d="M484.46 611.82H510c5.04 0 9.13 4.09 9.13 9.13v32.8c0 1.77-1.44 3.21-3.21 3.21h-37.37c-1.77 0-3.21-1.44-3.21-3.21v-32.8c0-5.04 4.09-9.13 9.13-9.13Z" class="cls-8"/><path d="M490.81 612.83h12.85c5.11 0 9.26 4.15 9.26 9.26v11.72c0 4.46-3.62 8.08-8.08 8.08h-15.2c-4.46 0-8.08-3.62-8.08-8.08v-11.72c0-5.11 4.15-9.26 9.26-9.26Z" class="cls-11"/><path d="M472.7 468.43h25.54c5.04 0 9.13 4.09 9.13 9.13v32.8c0 1.77-1.44 3.21-3.21 3.21h-37.37c-1.77 0-3.21-1.44-3.21-3.21v-32.8c0-5.04 4.09-9.13 9.13-9.13Z" class="cls-8"/><path d="M479.05 469.44h12.85c5.11 0 9.26 4.15 9.26 9.26v11.72c0 4.46-3.62 8.08-8.08 8.08h-15.2c-4.46 0-8.08-3.62-8.08-8.08V478.7c0-5.11 4.15-9.26 9.26-9.26Z" class="cls-11"/><path d="M518.91 468.43h25.54c5.04 0 9.13 4.09 9.13 9.13v32.8c0 1.77-1.44 3.21-3.21 3.21H513c-1.77 0-3.21-1.44-3.21-3.21v-32.8c0-5.04 4.09-9.13 9.13-9.13Z" class="cls-8"/><path d="M525.26 469.44h12.85c5.11 0 9.26 4.15 9.26 9.26v11.72c0 4.46-3.62 8.08-8.08 8.08h-15.2c-4.46 0-8.08-3.62-8.08-8.08V478.7c0-5.11 4.15-9.26 9.26-9.26Z" class="cls-11"/><path d="M565.12 468.43h25.54c5.04 0 9.13 4.09 9.13 9.13v32.8c0 1.77-1.44 3.21-3.21 3.21h-37.37c-1.77 0-3.21-1.44-3.21-3.21v-32.8c0-5.04 4.09-9.13 9.13-9.13Z" class="cls-8"/><path d="M571.47 469.44h12.85c5.11 0 9.26 4.15 9.26 9.26v11.72c0 4.46-3.62 8.08-8.08 8.08h-15.2c-4.46 0-8.08-3.62-8.08-8.08V478.7c0-5.11 4.15-9.26 9.26-9.26Z" class="cls-11"/><path d="M611.33 468.43h25.54c5.04 0 9.13 4.09 9.13 9.13v32.8c0 1.77-1.44 3.21-3.21 3.21h-37.37c-1.77 0-3.21-1.44-3.21-3.21v-32.8c0-5.04 4.09-9.13 9.13-9.13Z" class="cls-8"/><path d="M617.68 469.44h12.85c5.11 0 9.26 4.15 9.26 9.26v11.72c0 4.46-3.62 8.08-8.08 8.08h-15.2c-4.46 0-8.08-3.62-8.08-8.08V478.7c0-5.11 4.15-9.26 9.26-9.26Z" class="cls-11"/><path d="M287.72 468.43h25.54c5.04 0 9.13 4.09 9.13 9.13v32.8c0 1.77-1.44 3.21-3.21 3.21h-37.37c-1.77 0-3.21-1.44-3.21-3.21v-32.8c0-5.04 4.09-9.13 9.13-9.13Z" class="cls-8"/><path d="M294.06 469.44h12.85c5.11 0 9.26 4.15 9.26 9.26v11.72c0 4.46-3.62 8.08-8.08 8.08h-15.2c-4.46 0-8.08-3.62-8.08-8.08V478.7c0-5.11 4.15-9.26 9.26-9.26Z" class="cls-11"/><path d="M333.96 468.43h25.54c5.04 0 9.13 4.09 9.13 9.13v32.8c0 1.77-1.44 3.21-3.21 3.21h-37.37c-1.77 0-3.21-1.44-3.21-3.21v-32.8c0-5.04 4.09-9.13 9.13-9.13Z" class="cls-8"/><path d="M340.31 469.44h12.85c5.11 0 9.26 4.15 9.26 9.26v11.72c0 4.46-3.62 8.08-8.08 8.08h-15.2c-4.46 0-8.08-3.62-8.08-8.08V478.7c0-5.11 4.15-9.26 9.26-9.26Z" class="cls-11"/><path d="M195.22 468.43h25.54c5.04 0 9.13 4.09 9.13 9.13v32.8c0 1.77-1.44 3.21-3.21 3.21h-37.37c-1.77 0-3.21-1.44-3.21-3.21v-32.8c0-5.04 4.09-9.13 9.13-9.13Z" class="cls-8"/><path d="M201.57 469.44h12.85c5.11 0 9.26 4.15 9.26 9.26v11.72c0 4.46-3.62 8.08-8.08 8.08h-15.2c-4.46 0-8.08-3.62-8.08-8.08V478.7c0-5.11 4.15-9.26 9.26-9.26Z" class="cls-11"/><path d="M241.47 468.43h25.54c5.04 0 9.13 4.09 9.13 9.13v32.8c0 1.77-1.44 3.21-3.21 3.21h-37.37c-1.77 0-3.21-1.44-3.21-3.21v-32.8c0-5.04 4.09-9.13 9.13-9.13Z" class="cls-8"/><path d="M247.81 469.44h12.85c5.11 0 9.26 4.15 9.26 9.26v11.72c0 4.46-3.62 8.08-8.08 8.08h-15.2c-4.46 0-8.08-3.62-8.08-8.08V478.7c0-5.11 4.15-9.26 9.26-9.26Z" class="cls-11"/><path d="M380.21 468.43h25.54c5.04 0 9.13 4.09 9.13 9.13v32.8c0 1.77-1.44 3.21-3.21 3.21H374.3c-1.77 0-3.21-1.44-3.21-3.21v-32.8c0-5.04 4.09-9.13 9.13-9.13Z" class="cls-8"/><path d="M386.56 469.44h12.85c5.11 0 9.26 4.15 9.26 9.26v11.72c0 4.46-3.62 8.08-8.08 8.08h-15.2c-4.46 0-8.08-3.62-8.08-8.08V478.7c0-5.11 4.15-9.26 9.26-9.26Z" class="cls-11"/><path d="M426.46 468.43H452c5.04 0 9.13 4.09 9.13 9.13v32.8c0 1.77-1.44 3.21-3.21 3.21h-37.37c-1.77 0-3.21-1.44-3.21-3.21v-32.8c0-5.04 4.09-9.13 9.13-9.13Z" class="cls-8"/><path d="M432.8 469.44h12.85c5.11 0 9.26 4.15 9.26 9.26v11.72c0 4.46-3.62 8.08-8.08 8.08h-15.2c-4.46 0-8.08-3.62-8.08-8.08V478.7c0-5.11 4.15-9.26 9.26-9.26Z" class="cls-11"/><path d="M657.54 468.43h25.54c5.04 0 9.13 4.09 9.13 9.13v32.8c0 1.77-1.44 3.21-3.21 3.21h-37.37c-1.77 0-3.21-1.44-3.21-3.21v-32.8c0-5.04 4.09-9.13 9.13-9.13Z" class="cls-8"/><path d="M663.89 469.44h12.85c5.11 0 9.26 4.15 9.26 9.26v11.72c0 4.46-3.62 8.08-8.08 8.08h-15.2c-4.46 0-8.08-3.62-8.08-8.08V478.7c0-5.11 4.15-9.26 9.26-9.26Z" class="cls-11"/><path d="M703.75 468.43h25.54c5.04 0 9.13 4.09 9.13 9.13v32.8c0 1.77-1.44 3.21-3.21 3.21h-37.37c-1.77 0-3.21-1.44-3.21-3.21v-32.8c0-5.04 4.09-9.13 9.13-9.13Z" class="cls-8"/><path d="M710.1 469.44h12.85c5.11 0 9.26 4.15 9.26 9.26v11.72c0 4.46-3.62 8.08-8.08 8.08h-15.2c-4.46 0-8.08-3.62-8.08-8.08V478.7c0-5.11 4.15-9.26 9.26-9.26Z" class="cls-11"/><path d="M749.96 468.43h25.54c5.04 0 9.13 4.09 9.13 9.13v32.8c0 1.77-1.44 3.21-3.21 3.21h-37.37c-1.77 0-3.21-1.44-3.21-3.21v-32.8c0-5.04 4.09-9.13 9.13-9.13Z" class="cls-8"/><path d="M756.31 469.44h12.85c5.11 0 9.26 4.15 9.26 9.26v11.72c0 4.46-3.62 8.08-8.08 8.08h-15.2c-4.46 0-8.08-3.62-8.08-8.08V478.7c0-5.11 4.15-9.26 9.26-9.26Z" class="cls-11"/></g></svg>