<svg xmlns="http://www.w3.org/2000/svg" viewBox="0 0 1000 1000"><defs><style>.cls-7{fill:#2c2c2c}.cls-8{fill:#141414}.cls-11{fill:#0c0c0c}.cls-12{fill:#fff}.cls-14{fill:#cecece}.cls-15{fill:#262626}.cls-17{fill:#0e59bd}.cls-18{fill:#8a3836}.cls-19{fill:#d3d3d3}.cls-21{fill:#6e2120}.cls-22{fill:#e7665d}.cls-23{fill:#a8a8a8}.cls-24{fill:#191919}.cls-25{fill:#4fa679}.cls-26{fill:#307731}.cls-28{fill:#0a3d8d}.cls-30{fill:#458e45}</style></defs><g id="Words"><path d="M984.6 365.53v268.96a4.3 4.3 0 0 1-4.3 4.3H19.69c-2.38 0-4.3-1.92-4.3-4.3V365.53c0-2.38 1.92-4.31 4.3-4.31H980.3c2.37 0 4.3 1.93 4.3 4.31" class="cls-15"/><rect width="505.72" height="132.81" x="70.76" y="453.7" class="cls-11" rx="2.8" ry="2.8"/><rect width="99.9" height="132.37" x="605.45" y="486.5" class="cls-11" rx="1.24" ry="1.24"/><rect width="35.69" height="100.75" x="637.84" y="379.17" class="cls-11" rx="2.8" ry="2.8"/><rect width="35.69" height="100.75" x="637.84" y="379.69" class="cls-11" rx="2.8" ry="2.8" transform="rotate(-90 655.685 430.065)"/><rect width="328.28" height="32.78" x="177.04" y="586.46" class="cls-11" rx="1.12" ry="1.12"/><path d="M954.57 606.46v32.32H741.09v-32.32c0-2.72 2.22-4.91 4.98-4.91H949.6c2.74 0 4.98 2.19 4.98 4.91Z" class="cls-8"/><rect width="30.64" height="30.64" x="72.93" y="455.86" class="cls-21" rx="2.18" ry="2.18"/><path d="M95.56 481.56q-7.305.825-14.61 0a3.07 3.07 0 0 1-3.07-3.07q-.78-7.275 0-14.61c0-1.7 1.38-3.07 3.07-3.07 4.97-.43 9.85-.45 14.61 0 1.7 0 3.07 1.38 3.07 3.07.62 4.96.64 9.84 0 14.61 0 1.7-1.38 3.07-3.07 3.07" class="cls-18"/><rect width="30.64" height="30.64" x="105.74" y="455.86" class="cls-24" rx="2.18" ry="2.18"/><path d="M128.36 481.56q-7.305.825-14.61 0a3.07 3.07 0 0 1-3.07-3.07q-.78-7.275 0-14.61c0-1.7 1.38-3.07 3.07-3.07 4.97-.43 9.85-.45 14.61 0 1.7 0 3.07 1.38 3.07 3.07.62 4.96.64 9.84 0 14.61 0 1.7-1.38 3.07-3.07 3.07" class="cls-7"/><rect width="30.64" height="30.64" x="138.54" y="455.86" class="cls-24" rx="2.18" ry="2.18"/><path d="M161.16 481.56q-7.305.825-14.61 0a3.07 3.07 0 0 1-3.07-3.07q-.78-7.275 0-14.61c0-1.7 1.38-3.07 3.07-3.07 4.97-.43 9.85-.45 14.61 0 1.7 0 3.07 1.38 3.07 3.07.62 4.96.64 9.84 0 14.61 0 1.7-1.38 3.07-3.07 3.07" class="cls-7"/><rect width="30.64" height="30.64" x="171.34" y="455.86" class="cls-24" rx="2.18" ry="2.18"/><path d="M193.97 481.56q-7.305.825-14.61 0a3.07 3.07 0 0 1-3.07-3.07q-.78-7.275 0-14.61c0-1.7 1.38-3.07 3.07-3.07 4.97-.43 9.85-.45 14.61 0 1.7 0 3.07 1.38 3.07 3.07.62 4.96.64 9.84 0 14.61 0 1.7-1.38 3.07-3.07 3.07" class="cls-7"/><rect width="30.64" height="30.64" x="204.15" y="455.86" class="cls-24" rx="2.18" ry="2.18"/><path d="M226.77 481.56q-7.305.825-14.61 0a3.07 3.07 0 0 1-3.07-3.07q-.78-7.275 0-14.61c0-1.7 1.38-3.07 3.07-3.07 4.97-.43 9.85-.45 14.61 0 1.7 0 3.07 1.38 3.07 3.07.62 4.96.64 9.84 0 14.61 0 1.7-1.38 3.07-3.07 3.07" class="cls-7"/><rect width="30.64" height="30.64" x="236.95" y="455.86" class="cls-24" rx="2.18" ry="2.18"/><path d="M259.58 481.56q-7.305.825-14.61 0a3.07 3.07 0 0 1-3.07-3.07q-.78-7.275 0-14.61c0-1.7 1.38-3.07 3.07-3.07 4.97-.43 9.85-.45 14.61 0 1.7 0 3.07 1.38 3.07 3.07.62 4.96.64 9.84 0 14.61 0 1.7-1.38 3.07-3.07 3.07" class="cls-7"/><rect width="30.64" height="30.64" x="749.9" y="602.9" class="cls-21" rx="2.18" ry="2.18"/><path d="M772.53 628.59q-7.305.825-14.61 0a3.07 3.07 0 0 1-3.07-3.07q-.78-7.275 0-14.61c0-1.7 1.38-3.07 3.07-3.07 4.97-.43 9.85-.45 14.61 0 1.7 0 3.07 1.38 3.07 3.07.62 4.96.64 9.84 0 14.61 0 1.7-1.38 3.07-3.07 3.07" class="cls-18"/><rect width="30.64" height="30.64" x="782.71" y="602.9" class="cls-24" rx="2.18" ry="2.18"/><path d="M805.33 628.59q-7.305.825-14.61 0a3.07 3.07 0 0 1-3.07-3.07q-.78-7.275 0-14.61c0-1.7 1.38-3.07 3.07-3.07 4.97-.43 9.85-.45 14.61 0 1.7 0 3.07 1.38 3.07 3.07.62 4.96.64 9.84 0 14.61 0 1.7-1.38 3.07-3.07 3.07" class="cls-7"/><rect width="30.64" height="30.64" x="815.51" y="602.9" class="cls-24" rx="2.18" ry="2.18"/><path d="M838.14 628.59q-7.305.825-14.61 0a3.07 3.07 0 0 1-3.07-3.07q-.78-7.275 0-14.61c0-1.7 1.38-3.07 3.07-3.07 4.97-.43 9.85-.45 14.61 0 1.7 0 3.07 1.38 3.07 3.07.62 4.96.64 9.84 0 14.61 0 1.7-1.38 3.07-3.07 3.07" class="cls-7"/><rect width="30.64" height="30.64" x="848.31" y="602.9" class="cls-24" rx="2.18" ry="2.18"/><path d="M870.94 628.59q-7.305.825-14.61 0a3.07 3.07 0 0 1-3.07-3.07q-.78-7.275 0-14.61c0-1.7 1.38-3.07 3.07-3.07 4.97-.43 9.85-.45 14.61 0 1.7 0 3.07 1.38 3.07 3.07.62 4.96.64 9.84 0 14.61 0 1.7-1.38 3.07-3.07 3.07" class="cls-7"/><rect width="30.64" height="30.64" x="881.12" y="602.9" class="cls-24" rx="2.18" ry="2.18"/><path d="M903.74 628.59q-7.305.825-14.61 0a3.07 3.07 0 0 1-3.07-3.07q-.78-7.275 0-14.61c0-1.7 1.38-3.07 3.07-3.07 4.97-.43 9.85-.45 14.61 0 1.7 0 3.07 1.38 3.07 3.07.62 4.96.64 9.84 0 14.61 0 1.7-1.38 3.07-3.07 3.07" class="cls-7"/><rect width="30.64" height="30.64" x="913.92" y="602.9" class="cls-24" rx="2.18" ry="2.18"/><path d="M936.55 628.59q-7.305.825-14.61 0a3.07 3.07 0 0 1-3.07-3.07q-.78-7.275 0-14.61c0-1.7 1.38-3.07 3.07-3.07 4.97-.43 9.85-.45 14.61 0 1.7 0 3.07 1.38 3.07 3.07.62 4.96.64 9.84 0 14.61 0 1.7-1.38 3.07-3.07 3.07" class="cls-7"/><rect width="30.64" height="30.64" x="269.76" y="455.86" class="cls-24" rx="2.18" ry="2.18"/><path d="M292.38 481.56q-7.305.825-14.61 0a3.07 3.07 0 0 1-3.07-3.07q-.78-7.275 0-14.61c0-1.7 1.38-3.07 3.07-3.07 4.97-.43 9.85-.45 14.61 0 1.7 0 3.07 1.38 3.07 3.07.62 4.96.64 9.84 0 14.61 0 1.7-1.38 3.07-3.07 3.07" class="cls-7"/><rect width="30.64" height="30.64" x="302.56" y="455.86" class="cls-24" rx="2.18" ry="2.18"/><path d="M325.18 481.56q-7.305.825-14.61 0a3.07 3.07 0 0 1-3.07-3.07q-.78-7.275 0-14.61c0-1.7 1.38-3.07 3.07-3.07 4.97-.43 9.85-.45 14.61 0 1.7 0 3.07 1.38 3.07 3.07.62 4.96.64 9.84 0 14.61 0 1.7-1.38 3.07-3.07 3.07" class="cls-7"/><rect width="30.64" height="30.64" x="335.36" y="455.86" class="cls-24" rx="2.18" ry="2.18"/><path d="M357.99 481.56q-7.305.825-14.61 0a3.07 3.07 0 0 1-3.07-3.07q-.78-7.275 0-14.61c0-1.7 1.38-3.07 3.07-3.07 4.97-.43 9.85-.45 14.61 0 1.7 0 3.07 1.38 3.07 3.07.62 4.96.64 9.84 0 14.61 0 1.7-1.38 3.07-3.07 3.07" class="cls-7"/><rect width="30.64" height="30.64" x="368.17" y="455.86" class="cls-24" rx="2.18" ry="2.18"/><path d="M390.79 481.56q-7.305.825-14.61 0a3.07 3.07 0 0 1-3.07-3.07q-.78-7.275 0-14.61c0-1.7 1.38-3.07 3.07-3.07 4.97-.43 9.85-.45 14.61 0 1.7 0 3.07 1.38 3.07 3.07.62 4.96.64 9.84 0 14.61 0 1.7-1.38 3.07-3.07 3.07" class="cls-7"/><rect width="30.64" height="30.64" x="400.97" y="455.86" class="cls-24" rx="2.18" ry="2.18"/><path d="M423.6 481.56q-7.305.825-14.61 0a3.07 3.07 0 0 1-3.07-3.07q-.78-7.275 0-14.61c0-1.7 1.38-3.07 3.07-3.07 4.97-.43 9.85-.45 14.61 0 1.7 0 3.07 1.38 3.07 3.07.62 4.96.64 9.84 0 14.61 0 1.7-1.38 3.07-3.07 3.07" class="cls-7"/><rect width="30.64" height="30.64" x="433.77" y="455.86" class="cls-24" rx="2.18" ry="2.18"/><path d="M456.4 481.56q-7.305.825-14.61 0a3.07 3.07 0 0 1-3.07-3.07q-.78-7.275 0-14.61c0-1.7 1.38-3.07 3.07-3.07 4.97-.43 9.85-.45 14.61 0 1.7 0 3.07 1.38 3.07 3.07.62 4.96.64 9.84 0 14.61 0 1.7-1.38 3.07-3.07 3.07" class="cls-7"/><rect width="30.64" height="30.64" x="466.58" y="455.86" class="cls-24" rx="2.18" ry="2.18"/><path d="M489.2 481.56q-7.305.825-14.61 0a3.07 3.07 0 0 1-3.07-3.07q-.78-7.275 0-14.61c0-1.7 1.38-3.07 3.07-3.07 4.97-.43 9.85-.45 14.61 0 1.7 0 3.07 1.38 3.07 3.07.62 4.96.64 9.84 0 14.61 0 1.7-1.38 3.07-3.07 3.07" class="cls-7"/><rect width="30.64" height="30.64" x="122.14" y="488.51" class="cls-24" rx="2.18" ry="2.18"/><path d="M144.76 514.21q-7.305.825-14.61 0a3.07 3.07 0 0 1-3.07-3.07q-.78-7.275 0-14.61c0-1.7 1.38-3.07 3.07-3.07 4.97-.43 9.85-.45 14.61 0 1.7 0 3.07 1.38 3.07 3.07.62 4.96.64 9.84 0 14.61 0 1.7-1.38 3.07-3.07 3.07" class="cls-7"/><rect width="30.64" height="30.64" x="154.94" y="488.51" class="cls-24" rx="2.18" ry="2.18"/><path d="M177.57 514.21q-7.305.825-14.61 0a3.07 3.07 0 0 1-3.07-3.07q-.78-7.275 0-14.61c0-1.7 1.38-3.07 3.07-3.07 4.97-.43 9.85-.45 14.61 0 1.7 0 3.07 1.38 3.07 3.07.62 4.96.64 9.84 0 14.61 0 1.7-1.38 3.07-3.07 3.07" class="cls-7"/><rect width="30.64" height="30.64" x="187.75" y="488.51" class="cls-24" rx="2.18" ry="2.18"/><path d="M210.37 514.21q-7.305.825-14.61 0a3.07 3.07 0 0 1-3.07-3.07q-.78-7.275 0-14.61c0-1.7 1.38-3.07 3.07-3.07 4.97-.43 9.85-.45 14.61 0 1.7 0 3.07 1.38 3.07 3.07.62 4.96.64 9.84 0 14.61 0 1.7-1.38 3.07-3.07 3.07" class="cls-7"/><rect width="30.64" height="30.64" x="220.55" y="488.51" class="cls-24" rx="2.18" ry="2.18"/><path d="M243.17 514.21q-7.305.825-14.61 0a3.07 3.07 0 0 1-3.07-3.07q-.78-7.275 0-14.61c0-1.7 1.38-3.07 3.07-3.07 4.97-.43 9.85-.45 14.61 0 1.7 0 3.07 1.38 3.07 3.07.62 4.96.64 9.84 0 14.61 0 1.7-1.38 3.07-3.07 3.07" class="cls-7"/><rect width="30.64" height="30.64" x="253.35" y="488.51" class="cls-24" rx="2.18" ry="2.18"/><path d="M275.98 514.21q-7.305.825-14.61 0a3.07 3.07 0 0 1-3.07-3.07q-.78-7.275 0-14.61c0-1.7 1.38-3.07 3.07-3.07 4.97-.43 9.85-.45 14.61 0 1.7 0 3.07 1.38 3.07 3.07.62 4.96.64 9.84 0 14.61 0 1.7-1.38 3.07-3.07 3.07" class="cls-7"/><rect width="30.64" height="30.64" x="286.16" y="488.51" class="cls-24" rx="2.18" ry="2.18"/><path d="M308.78 514.21q-7.305.825-14.61 0a3.07 3.07 0 0 1-3.07-3.07q-.78-7.275 0-14.61c0-1.7 1.38-3.07 3.07-3.07 4.97-.43 9.85-.45 14.61 0 1.7 0 3.07 1.38 3.07 3.07.62 4.96.64 9.84 0 14.61 0 1.7-1.38 3.07-3.07 3.07" class="cls-7"/><rect width="30.64" height="30.64" x="318.96" y="488.51" class="cls-24" rx="2.18" ry="2.18"/><path d="M341.59 514.21q-7.305.825-14.61 0a3.07 3.07 0 0 1-3.07-3.07q-.78-7.275 0-14.61c0-1.7 1.38-3.07 3.07-3.07 4.97-.43 9.85-.45 14.61 0 1.7 0 3.07 1.38 3.07 3.07.62 4.96.64 9.84 0 14.61 0 1.7-1.38 3.07-3.07 3.07" class="cls-7"/><rect width="30.64" height="30.64" x="351.76" y="488.51" class="cls-24" rx="2.18" ry="2.18"/><path d="M374.39 514.21q-7.305.825-14.61 0a3.07 3.07 0 0 1-3.07-3.07q-.78-7.275 0-14.61c0-1.7 1.38-3.07 3.07-3.07 4.97-.43 9.85-.45 14.61 0 1.7 0 3.07 1.38 3.07 3.07.62 4.96.64 9.84 0 14.61 0 1.7-1.38 3.07-3.07 3.07" class="cls-7"/><rect width="30.64" height="30.64" x="384.57" y="488.51" class="cls-24" rx="2.18" ry="2.18"/><path d="M407.19 514.21q-7.305.825-14.61 0a3.07 3.07 0 0 1-3.07-3.07q-.78-7.275 0-14.61c0-1.7 1.38-3.07 3.07-3.07 4.97-.43 9.85-.45 14.61 0 1.7 0 3.07 1.38 3.07 3.07.62 4.96.64 9.84 0 14.61 0 1.7-1.38 3.07-3.07 3.07" class="cls-7"/><rect width="30.64" height="30.64" x="417.37" y="488.51" class="cls-24" rx="2.18" ry="2.18"/><path d="M440 514.21q-7.305.825-14.61 0a3.07 3.07 0 0 1-3.07-3.07q-.78-7.275 0-14.61c0-1.7 1.38-3.07 3.07-3.07 4.97-.43 9.85-.45 14.61 0 1.7 0 3.07 1.38 3.07 3.07.62 4.96.64 9.84 0 14.61 0 1.7-1.38 3.07-3.07 3.07" class="cls-7"/><rect width="30.64" height="30.64" x="450.18" y="488.51" class="cls-24" rx="2.18" ry="2.18"/><path d="M472.8 514.21q-7.305.825-14.61 0a3.07 3.07 0 0 1-3.07-3.07q-.78-7.275 0-14.61c0-1.7 1.38-3.07 3.07-3.07 4.97-.43 9.85-.45 14.61 0 1.7 0 3.07 1.38 3.07 3.07.62 4.96.64 9.84 0 14.61 0 1.7-1.38 3.07-3.07 3.07" class="cls-7"/><rect width="30.64" height="30.64" x="482.98" y="488.51" class="cls-24" rx="2.18" ry="2.18"/><path d="M505.61 514.21q-7.305.825-14.61 0a3.07 3.07 0 0 1-3.07-3.07q-.78-7.275 0-14.61c0-1.7 1.38-3.07 3.07-3.07 4.97-.43 9.85-.45 14.61 0 1.7 0 3.07 1.38 3.07 3.07.62 4.96.64 9.84 0 14.61 0 1.7-1.38 3.07-3.07 3.07" class="cls-7"/><rect width="30.64" height="30.64" x="130.23" y="521.16" class="cls-24" rx="2.18" ry="2.18"/><path d="M152.86 546.86q-7.305.825-14.61 0a3.07 3.07 0 0 1-3.07-3.07q-.78-7.275 0-14.61c0-1.7 1.38-3.07 3.07-3.07 4.97-.43 9.85-.45 14.61 0 1.7 0 3.07 1.38 3.07 3.07.62 4.96.64 9.84 0 14.61 0 1.7-1.38 3.07-3.07 3.07" class="cls-7"/><rect width="30.64" height="30.64" x="163.04" y="521.16" class="cls-24" rx="2.18" ry="2.18"/><path d="M185.66 546.86q-7.305.825-14.61 0a3.07 3.07 0 0 1-3.07-3.07q-.78-7.275 0-14.61c0-1.7 1.38-3.07 3.07-3.07 4.97-.43 9.85-.45 14.61 0 1.7 0 3.07 1.38 3.07 3.07.62 4.96.64 9.84 0 14.61 0 1.7-1.38 3.07-3.07 3.07" class="cls-7"/><rect width="30.64" height="30.64" x="195.84" y="521.16" class="cls-24" rx="2.18" ry="2.18"/><path d="M218.46 546.86q-7.305.825-14.61 0a3.07 3.07 0 0 1-3.07-3.07q-.78-7.275 0-14.61c0-1.7 1.38-3.07 3.07-3.07 4.97-.43 9.85-.45 14.61 0 1.7 0 3.07 1.38 3.07 3.07.62 4.96.64 9.84 0 14.61 0 1.7-1.38 3.07-3.07 3.07" class="cls-7"/><rect width="30.64" height="30.64" x="228.64" y="521.16" class="cls-24" rx="2.18" ry="2.18"/><path d="M251.27 546.86q-7.305.825-14.61 0a3.07 3.07 0 0 1-3.07-3.07q-.78-7.275 0-14.61c0-1.7 1.38-3.07 3.07-3.07 4.97-.43 9.85-.45 14.61 0 1.7 0 3.07 1.38 3.07 3.07.62 4.96.64 9.84 0 14.61 0 1.7-1.38 3.07-3.07 3.07" class="cls-7"/><rect width="30.64" height="30.64" x="261.45" y="521.16" class="cls-24" rx="2.18" ry="2.18"/><path d="M284.07 546.86q-7.305.825-14.61 0a3.07 3.07 0 0 1-3.07-3.07q-.78-7.275 0-14.61c0-1.7 1.38-3.07 3.07-3.07 4.97-.43 9.85-.45 14.61 0 1.7 0 3.07 1.38 3.07 3.07.62 4.96.64 9.84 0 14.61 0 1.7-1.38 3.07-3.07 3.07" class="cls-7"/><rect width="30.64" height="30.64" x="294.25" y="521.16" class="cls-24" rx="2.18" ry="2.18"/><path d="M316.88 546.86q-7.305.825-14.61 0a3.07 3.07 0 0 1-3.07-3.07q-.78-7.275 0-14.61c0-1.7 1.38-3.07 3.07-3.07 4.97-.43 9.85-.45 14.61 0 1.7 0 3.07 1.38 3.07 3.07.62 4.96.64 9.84 0 14.61 0 1.7-1.38 3.07-3.07 3.07" class="cls-7"/><rect width="30.64" height="30.64" x="327.06" y="521.16" class="cls-24" rx="2.18" ry="2.18"/><path d="M349.68 546.86q-7.305.825-14.61 0a3.07 3.07 0 0 1-3.07-3.07q-.78-7.275 0-14.61c0-1.7 1.38-3.07 3.07-3.07 4.97-.43 9.85-.45 14.61 0 1.7 0 3.07 1.38 3.07 3.07.62 4.96.64 9.84 0 14.61 0 1.7-1.38 3.07-3.07 3.07" class="cls-7"/><rect width="30.64" height="30.64" x="359.86" y="521.16" class="cls-24" rx="2.18" ry="2.18"/><path d="M382.48 546.86q-7.305.825-14.61 0a3.07 3.07 0 0 1-3.07-3.07q-.78-7.275 0-14.61c0-1.7 1.38-3.07 3.07-3.07 4.97-.43 9.85-.45 14.61 0 1.7 0 3.07 1.38 3.07 3.07.62 4.96.64 9.84 0 14.61 0 1.7-1.38 3.07-3.07 3.07" class="cls-7"/><rect width="30.64" height="30.64" x="392.66" y="521.16" class="cls-24" rx="2.18" ry="2.18"/><path d="M415.29 546.86q-7.305.825-14.61 0a3.07 3.07 0 0 1-3.07-3.07q-.78-7.275 0-14.61c0-1.7 1.38-3.07 3.07-3.07 4.97-.43 9.85-.45 14.61 0 1.7 0 3.07 1.38 3.07 3.07.62 4.96.64 9.84 0 14.61 0 1.7-1.38 3.07-3.07 3.07" class="cls-7"/><rect width="30.64" height="30.64" x="425.47" y="521.16" class="cls-24" rx="2.18" ry="2.18"/><path d="M448.09 546.86q-7.305.825-14.61 0a3.07 3.07 0 0 1-3.07-3.07q-.78-7.275 0-14.61c0-1.7 1.38-3.07 3.07-3.07 4.97-.43 9.85-.45 14.61 0 1.7 0 3.07 1.38 3.07 3.07.62 4.96.64 9.84 0 14.61 0 1.7-1.38 3.07-3.07 3.07" class="cls-7"/><rect width="30.64" height="30.64" x="458.27" y="521.16" class="cls-24" rx="2.18" ry="2.18"/><path d="M480.9 546.86q-7.305.825-14.61 0a3.07 3.07 0 0 1-3.07-3.07q-.78-7.275 0-14.61c0-1.7 1.38-3.07 3.07-3.07 4.97-.43 9.85-.45 14.61 0 1.7 0 3.07 1.38 3.07 3.07.62 4.96.64 9.84 0 14.61 0 1.7-1.38 3.07-3.07 3.07" class="cls-7"/><rect width="30.64" height="30.64" x="144.17" y="553.81" class="cls-24" rx="2.18" ry="2.18"/><path d="M166.8 579.51q-7.305.825-14.61 0a3.07 3.07 0 0 1-3.07-3.07q-.78-7.275 0-14.61c0-1.7 1.38-3.07 3.07-3.07 4.97-.43 9.85-.45 14.61 0 1.7 0 3.07 1.38 3.07 3.07.62 4.96.64 9.84 0 14.61 0 1.7-1.38 3.07-3.07 3.07" class="cls-7"/><rect width="30.64" height="30.64" x="176.98" y="553.81" class="cls-24" rx="2.18" ry="2.18"/><path d="M199.6 579.51q-7.305.825-14.61 0a3.07 3.07 0 0 1-3.07-3.07q-.78-7.275 0-14.61c0-1.7 1.38-3.07 3.07-3.07 4.97-.43 9.85-.45 14.61 0 1.7 0 3.07 1.38 3.07 3.07.62 4.96.64 9.84 0 14.61 0 1.7-1.38 3.07-3.07 3.07" class="cls-7"/><rect width="30.64" height="30.64" x="209.78" y="553.81" class="cls-24" rx="2.18" ry="2.18"/><path d="M232.4 579.51q-7.305.825-14.61 0a3.07 3.07 0 0 1-3.07-3.07q-.78-7.275 0-14.61c0-1.7 1.38-3.07 3.07-3.07 4.97-.43 9.85-.45 14.61 0 1.7 0 3.07 1.38 3.07 3.07.62 4.96.64 9.84 0 14.61 0 1.7-1.38 3.07-3.07 3.07" class="cls-7"/><rect width="30.64" height="30.64" x="242.58" y="553.81" class="cls-24" rx="2.18" ry="2.18"/><path d="M265.21 579.51q-7.305.825-14.61 0a3.07 3.07 0 0 1-3.07-3.07q-.78-7.275 0-14.61c0-1.7 1.38-3.07 3.07-3.07 4.97-.43 9.85-.45 14.61 0 1.7 0 3.07 1.38 3.07 3.07.62 4.96.64 9.84 0 14.61 0 1.7-1.38 3.07-3.07 3.07" class="cls-7"/><rect width="30.64" height="30.64" x="275.39" y="553.81" class="cls-24" rx="2.18" ry="2.18"/><path d="M298.01 579.51q-7.305.825-14.61 0a3.07 3.07 0 0 1-3.07-3.07q-.78-7.275 0-14.61c0-1.7 1.38-3.07 3.07-3.07 4.97-.43 9.85-.45 14.61 0 1.7 0 3.07 1.38 3.07 3.07.62 4.96.64 9.84 0 14.61 0 1.7-1.38 3.07-3.07 3.07" class="cls-7"/><rect width="30.64" height="30.64" x="308.19" y="553.81" class="cls-24" rx="2.18" ry="2.18"/><path d="M330.82 579.51q-7.305.825-14.61 0a3.07 3.07 0 0 1-3.07-3.07q-.78-7.275 0-14.61c0-1.7 1.38-3.07 3.07-3.07 4.97-.43 9.85-.45 14.61 0 1.7 0 3.07 1.38 3.07 3.07.62 4.96.64 9.84 0 14.61 0 1.7-1.38 3.07-3.07 3.07" class="cls-7"/><rect width="30.64" height="30.64" x="341" y="553.81" class="cls-24" rx="2.18" ry="2.18"/><path d="M363.62 579.51q-7.305.825-14.61 0a3.07 3.07 0 0 1-3.07-3.07q-.78-7.275 0-14.61c0-1.7 1.38-3.07 3.07-3.07 4.97-.43 9.85-.45 14.61 0 1.7 0 3.07 1.38 3.07 3.07.62 4.96.64 9.84 0 14.61 0 1.7-1.38 3.07-3.07 3.07" class="cls-7"/><rect width="30.64" height="30.64" x="373.8" y="553.81" class="cls-24" rx="2.18" ry="2.18"/><path d="M396.42 579.51q-7.305.825-14.61 0a3.07 3.07 0 0 1-3.07-3.07q-.78-7.275 0-14.61c0-1.7 1.38-3.07 3.07-3.07 4.97-.43 9.85-.45 14.61 0 1.7 0 3.07 1.38 3.07 3.07.62 4.96.64 9.84 0 14.61 0 1.7-1.38 3.07-3.07 3.07" class="cls-7"/><rect width="30.64" height="30.64" x="406.6" y="553.81" class="cls-24" rx="2.18" ry="2.18"/><path d="M429.23 579.51q-7.305.825-14.61 0a3.07 3.07 0 0 1-3.07-3.07q-.78-7.275 0-14.61c0-1.7 1.38-3.07 3.07-3.07 4.97-.43 9.85-.45 14.61 0 1.7 0 3.07 1.38 3.07 3.07.62 4.96.64 9.84 0 14.61 0 1.7-1.38 3.07-3.07 3.07" class="cls-7"/><rect width="30.64" height="30.64" x="439.41" y="553.81" class="cls-24" rx="2.18" ry="2.18"/><path d="M462.03 579.51q-7.305.825-14.61 0a3.07 3.07 0 0 1-3.07-3.07q-.78-7.275 0-14.61c0-1.7 1.38-3.07 3.07-3.07 4.97-.43 9.85-.45 14.61 0 1.7 0 3.07 1.38 3.07 3.07.62 4.96.64 9.84 0 14.61 0 1.7-1.38 3.07-3.07 3.07" class="cls-7"/><rect width="30.64" height="30.64" x="472.21" y="553.81" class="cls-24" rx="2.18" ry="2.18"/><path d="M494.84 579.51q-7.305.825-14.61 0a3.07 3.07 0 0 1-3.07-3.07q-.78-7.275 0-14.61c0-1.7 1.38-3.07 3.07-3.07 4.97-.43 9.85-.45 14.61 0 1.7 0 3.07 1.38 3.07 3.07.62 4.96.64 9.84 0 14.61 0 1.7-1.38 3.07-3.07 3.07" class="cls-7"/><rect width="30.64" height="30.64" x="472.25" y="586.5" class="cls-26" rx="2.18" ry="2.18"/><rect width="69.47" height="30.64" x="504.38" y="553.81" class="cls-26" rx="3.28" ry="3.28"/><path d="M570.84 488.6h-.59c-.14-.01-.27-.04-.41-.04h-42.45c-.14 0-.27.03-.41.04h-8.88c-1.66 0-3.01 1.35-3.01 3.01v24.61c0 1.66 1.35 3.01 3.01 3.01h5.27v28.51c0 2.22 1.8 4.01 4.01 4.01h42.45c2.22 0 4.01-1.8 4.01-4.01V491.6c0-1.66-1.35-3.01-3.01-3.01Z" class="cls-28"/><path d="M565.24 494.78h-.46c-.11 0-.21-.03-.32-.03h-33.44c-.11 0-.21.02-.32.03h-6.99c-1.31 0-2.37.91-2.37 2.03v16.61c0 1.12 1.06 2.03 2.37 2.03h4.15v19.25c0 1.5 1.42 2.71 3.16 2.71h33.44c1.75 0 3.16-1.21 3.16-2.71v-37.9c0-1.12-1.06-2.03-2.37-2.03Z" class="cls-17"/><rect width="58.68" height="21.59" x="509.78" y="558.34" class="cls-30" rx="2.53" ry="2.53"/><rect width="39.76" height="19.88" x="527.85" y="525.27" class="cls-17" rx="2" ry="2"/><rect width="69.47" height="30.64" x="72.93" y="553.81" class="cls-26" rx="3.28" ry="3.28"/><rect width="58.68" height="21.59" x="78.33" y="558.34" class="cls-30" rx="2.53" ry="2.53"/><rect width="290.86" height="30.64" x="179.18" y="586.46" class="cls-26" rx="1.98" ry="1.98"/><rect width="281.47" height="21.59" x="184.11" y="590.99" class="cls-30" rx="2.61" ry="2.61"/><rect width="55.85" height="30.64" x="72.93" y="521.16" class="cls-26" rx="2.94" ry="2.94"/><rect width="47.17" height="21.59" x="77.27" y="525.69" class="cls-30" rx="2.27" ry="2.27"/><rect width="47.46" height="30.64" x="72.93" y="488.51" class="cls-26" rx="2.71" ry="2.71"/><rect width="40.09" height="21.59" x="76.62" y="493.04" class="cls-30" rx="2.09" ry="2.09"/><path d="M494.88 612.2q-7.305.825-14.61 0a3.07 3.07 0 0 1-3.07-3.07q-.78-7.275 0-14.61c0-1.7 1.38-3.07 3.07-3.07 4.97-.43 9.85-.45 14.61 0 1.7 0 3.07 1.38 3.07 3.07.62 4.96.64 9.84 0 14.61 0 1.7-1.38 3.07-3.07 3.07" class="cls-30"/><rect width="30.64" height="30.64" x="491.07" y="521.16" class="cls-24" rx="2.18" ry="2.18"/><path d="M513.7 546.86q-7.305.825-14.61 0a3.07 3.07 0 0 1-3.07-3.07q-.78-7.275 0-14.61c0-1.7 1.38-3.07 3.07-3.07 4.97-.43 9.85-.45 14.61 0 1.7 0 3.07 1.38 3.07 3.07.62 4.96.64 9.84 0 14.61 0 1.7-1.38 3.07-3.07 3.07" class="cls-7"/><rect width="30.64" height="30.64" x="499.38" y="455.86" class="cls-24" rx="2.18" ry="2.18"/><path d="M522.01 481.56q-7.305.825-14.61 0a3.07 3.07 0 0 1-3.07-3.07q-.78-7.275 0-14.61c0-1.7 1.38-3.07 3.07-3.07 4.97-.43 9.85-.45 14.61 0 1.7 0 3.07 1.38 3.07 3.07.62 4.96.64 9.84 0 14.61 0 1.7-1.38 3.07-3.07 3.07" class="cls-7"/><rect width="30.64" height="30.64" x="640.41" y="381.15" class="cls-24" rx="2.18" ry="2.18"/><path d="M663.03 406.84q-7.305.825-14.61 0a3.07 3.07 0 0 1-3.07-3.07q-.78-7.275 0-14.61c0-1.7 1.38-3.07 3.07-3.07 4.97-.43 9.85-.45 14.61 0 1.7 0 3.07 1.38 3.07 3.07.62 4.96.64 9.84 0 14.61 0 1.7-1.38 3.07-3.07 3.07" class="cls-7"/><rect width="30.64" height="30.64" x="640.37" y="446.65" class="cls-24" rx="2.18" ry="2.18"/><path d="M662.99 472.35q-7.305.825-14.61 0a3.07 3.07 0 0 1-3.07-3.07q-.78-7.275 0-14.61c0-1.7 1.38-3.07 3.07-3.07 4.97-.43 9.85-.45 14.61 0 1.7 0 3.07 1.38 3.07 3.07.62 4.96.64 9.84 0 14.61 0 1.7-1.38 3.07-3.07 3.07" class="cls-7"/><rect width="30.64" height="30.64" x="607.2" y="488.51" class="cls-24" rx="2.18" ry="2.18"/><path d="M629.83 514.21q-7.305.825-14.61 0a3.07 3.07 0 0 1-3.07-3.07q-.78-7.275 0-14.61c0-1.7 1.38-3.07 3.07-3.07 4.97-.43 9.85-.45 14.61 0 1.7 0 3.07 1.38 3.07 3.07.62 4.96.64 9.84 0 14.61 0 1.7-1.38 3.07-3.07 3.07" class="cls-7"/><rect width="30.64" height="30.64" x="607.2" y="521.16" class="cls-24" rx="2.18" ry="2.18"/><path d="M629.83 546.86q-7.305.825-14.61 0a3.07 3.07 0 0 1-3.07-3.07q-.78-7.275 0-14.61c0-1.7 1.38-3.07 3.07-3.07 4.97-.43 9.85-.45 14.61 0 1.7 0 3.07 1.38 3.07 3.07.62 4.96.64 9.84 0 14.61 0 1.7-1.38 3.07-3.07 3.07" class="cls-7"/><rect width="30.64" height="30.64" x="607.2" y="553.81" class="cls-24" rx="2.18" ry="2.18"/><path d="M629.83 579.51q-7.305.825-14.61 0a3.07 3.07 0 0 1-3.07-3.07q-.78-7.275 0-14.61c0-1.7 1.38-3.07 3.07-3.07 4.97-.43 9.85-.45 14.61 0 1.7 0 3.07 1.38 3.07 3.07.62 4.96.64 9.84 0 14.61 0 1.7-1.38 3.07-3.07 3.07" class="cls-7"/><rect width="30.64" height="30.64" x="607.2" y="586.46" class="cls-24" rx="2.18" ry="2.18"/><path d="M629.83 612.16q-7.305.825-14.61 0a3.07 3.07 0 0 1-3.07-3.07q-.78-7.275 0-14.61c0-1.7 1.38-3.07 3.07-3.07 4.97-.43 9.85-.45 14.61 0 1.7 0 3.07 1.38 3.07 3.07.62 4.96.64 9.84 0 14.61 0 1.7-1.38 3.07-3.07 3.07" class="cls-7"/><rect width="30.64" height="30.64" x="639.97" y="586.5" class="cls-24" rx="2.18" ry="2.18"/><path d="M662.59 612.2q-7.305.825-14.61 0a3.07 3.07 0 0 1-3.07-3.07q-.78-7.275 0-14.61c0-1.7 1.38-3.07 3.07-3.07 4.97-.43 9.85-.45 14.61 0 1.7 0 3.07 1.38 3.07 3.07.62 4.96.64 9.84 0 14.61 0 1.7-1.38 3.07-3.07 3.07" class="cls-7"/><rect width="30.64" height="30.64" x="639.97" y="553.81" class="cls-24" rx="2.18" ry="2.18"/><path d="M662.59 579.51q-7.305.825-14.61 0a3.07 3.07 0 0 1-3.07-3.07q-.78-7.275 0-14.61c0-1.7 1.38-3.07 3.07-3.07 4.97-.43 9.85-.45 14.61 0 1.7 0 3.07 1.38 3.07 3.07.62 4.96.64 9.84 0 14.61 0 1.7-1.38 3.07-3.07 3.07" class="cls-7"/><rect width="30.64" height="30.64" x="640.01" y="521.12" class="cls-24" rx="2.18" ry="2.18"/><path d="M662.63 546.82q-7.305.825-14.61 0a3.07 3.07 0 0 1-3.07-3.07q-.78-7.275 0-14.61c0-1.7 1.38-3.07 3.07-3.07 4.97-.43 9.85-.45 14.61 0 1.7 0 3.07 1.38 3.07 3.07.62 4.96.64 9.84 0 14.61 0 1.7-1.38 3.07-3.07 3.07" class="cls-7"/><rect width="30.64" height="30.64" x="640.01" y="488.55" class="cls-24" rx="2.18" ry="2.18"/><path d="M662.63 514.25q-7.305.825-14.61 0a3.07 3.07 0 0 1-3.07-3.07q-.78-7.275 0-14.61c0-1.7 1.38-3.07 3.07-3.07 4.97-.43 9.85-.45 14.61 0 1.7 0 3.07 1.38 3.07 3.07.62 4.96.64 9.84 0 14.61 0 1.7-1.38 3.07-3.07 3.07" class="cls-7"/><rect width="30.64" height="30.64" x="672.86" y="488.55" class="cls-24" rx="2.18" ry="2.18"/><path d="M695.48 514.25q-7.305.825-14.61 0a3.07 3.07 0 0 1-3.07-3.07q-.78-7.275 0-14.61c0-1.7 1.38-3.07 3.07-3.07 4.97-.43 9.85-.45 14.61 0 1.7 0 3.07 1.38 3.07 3.07.62 4.96.64 9.84 0 14.61 0 1.7-1.38 3.07-3.07 3.07" class="cls-7"/><rect width="30.64" height="30.64" x="672.86" y="521.12" class="cls-24" rx="2.18" ry="2.18"/><path d="M695.48 546.82q-7.305.825-14.61 0a3.07 3.07 0 0 1-3.07-3.07q-.78-7.275 0-14.61c0-1.7 1.38-3.07 3.07-3.07 4.97-.43 9.85-.45 14.61 0 1.7 0 3.07 1.38 3.07 3.07.62 4.96.64 9.84 0 14.61 0 1.7-1.38 3.07-3.07 3.07" class="cls-7"/><rect width="30.64" height="30.64" x="672.86" y="553.69" class="cls-24" rx="2.18" ry="2.18"/><path d="M695.48 579.39q-7.305.825-14.61 0a3.07 3.07 0 0 1-3.07-3.07q-.78-7.275 0-14.61c0-1.7 1.38-3.07 3.07-3.07 4.97-.43 9.85-.45 14.61 0 1.7 0 3.07 1.38 3.07 3.07.62 4.96.64 9.84 0 14.61 0 1.7-1.38 3.07-3.07 3.07" class="cls-7"/><rect width="30.64" height="30.64" x="672.86" y="586.55" class="cls-28" rx="2.18" ry="2.18"/><path d="M695.48 612.24q-7.305.825-14.61 0a3.07 3.07 0 0 1-3.07-3.07q-.78-7.275 0-14.61c0-1.7 1.38-3.07 3.07-3.07 4.97-.43 9.85-.45 14.61 0 1.7 0 3.07 1.38 3.07 3.07.62 4.96.64 9.84 0 14.61 0 1.7-1.38 3.07-3.07 3.07" class="cls-17"/><rect width="30.64" height="30.64" x="673.53" y="413.9" class="cls-24" rx="2.18" ry="2.18"/><path d="M696.15 439.6q-7.305.825-14.61 0a3.07 3.07 0 0 1-3.07-3.07q-.78-7.275 0-14.61c0-1.7 1.38-3.07 3.07-3.07 4.97-.43 9.85-.45 14.61 0 1.7 0 3.07 1.38 3.07 3.07.62 4.96.64 9.84 0 14.61 0 1.7-1.38 3.07-3.07 3.07" class="cls-7"/><rect width="30.64" height="30.64" x="607.2" y="413.94" class="cls-24" rx="2.18" ry="2.18"/><path d="M629.83 439.64q-7.305.825-14.61 0a3.07 3.07 0 0 1-3.07-3.07q-.78-7.275 0-14.61c0-1.7 1.38-3.07 3.07-3.07 4.97-.43 9.85-.45 14.61 0 1.7 0 3.07 1.38 3.07 3.07.62 4.96.64 9.84 0 14.61 0 1.7-1.38 3.07-3.07 3.07" class="cls-7"/><rect width="30.64" height="30.64" x="640.37" y="413.9" class="cls-26" rx="2.18" ry="2.18"/><path d="M662.99 439.6q-7.305.825-14.61 0a3.07 3.07 0 0 1-3.07-3.07q-.78-7.275 0-14.61c0-1.7 1.38-3.07 3.07-3.07 4.97-.43 9.85-.45 14.61 0 1.7 0 3.07 1.38 3.07 3.07.62 4.96.64 9.84 0 14.61 0 1.7-1.38 3.07-3.07 3.07" class="cls-30"/><rect width="42.33" height="30.64" x="531.52" y="455.86" class="cls-24" rx="2.56" ry="2.56"/><path d="M564.32 481.52c-7.68.55-15.35.55-23.03 0-2.67 0-4.84-1.38-4.84-3.07q-1.23-7.275 0-14.61c0-1.7 2.17-3.07 4.84-3.07 7.84-.43 15.52-.45 23.03 0 2.67 0 4.84 1.38 4.84 3.07.97 4.96 1.01 9.84 0 14.61 0 1.7-2.17 3.07-4.84 3.07" class="cls-7"/><path d="M743.88 550.74h205.31v47.97H743.88z" class="cls-8"/><path d="M760.25 555.26h61.27v8.89h-61.27z" class="cls-25"/><path d="M760.25 570.18h61.27v8.89h-61.27z" class="cls-22"/><path d="M743.88 493.12h205.31v51.43H743.88z" class="cls-8"/><path d="M774.1 524.65h146.89v10.66H774.1zm136.28 57.56h17.67v8.53h-17.67z" class="cls-22"/><path d="M820.48 585.02v6.82h-59.2v-6.82zm1.04-1.03h-61.27v8.89h61.27z" class="cls-12"/><path d="M821.15 559.88h98.18v19.11" style="fill:none;stroke-miterlimit:10;stroke-width:.77px;stroke:#4fa679"/><path d="M881.26 556.63h24.82v17.27h-24.82z" class="cls-25"/><path d="M905.55 557.15v16.23h-23.77v-16.23zm1.05-1.05h-25.86v18.32h25.86z" class="cls-12"/><path d="M821.15 574.2h18.82v9.57h18.71" style="fill:none;stroke-miterlimit:10;stroke-width:.77px;stroke:#e7665d"/><path d="M821.15 588.88h37.53" style="stroke:#fff;fill:none;stroke-miterlimit:10;stroke-width:.77px"/><path d="M930.49 579.53v14.25h-71.37v-14.25zm.78-.78h-72.93v15.82h72.93z" class="cls-12"/><path d="M906.52 585.94v4.39H864.1v-4.39zm.77-.77h-43.97v5.94h43.97z" class="cls-12"/><path d="M70.72 401.42h505.76v40.56H70.72z" class="cls-8"/><path d="M743.88 424.73h205.31v68.39H743.88z" style="fill:#3f3f3f"/><rect width="154.35" height="58.11" x="769.12" y="432.26" class="cls-15" rx="2.53" ry="2.53"/><rect width="39.21" height="22.06" x="827.73" y="466.78" rx="1.01" ry="1.01" style="fill:#e0e0e0"/><circle cx="882.2" cy="476.89" r="8.87" class="cls-8"/><circle cx="811.19" cy="476.89" r="8.87" class="cls-8"/><circle cx="811.19" cy="476.89" r="2.37" class="cls-23"/><circle cx="882.32" cy="476.89" r="2.37" class="cls-23"/><path d="M811.19 494.84V506h72.84v-11.16m-76.28 5.77h6.87m32.89 10.89v-16.66M864.99 506v-11.16m-3.5 10.87v-3.41m-3.49 3.41v-3.41m-3.5 3.41v-3.41m-3.5 3.41v-3.41m-6.95 3.41v-3.41m-3.46 3.41v-3.41m-3.46 3.41v-3.41m-3.47 3.41v-3.41m-3.46 3.7v-11.16m50.4 5.77h6.87" style="fill:none;stroke-miterlimit:10;stroke-width:1.03px;stroke:#e0e0e0"/><path d="M746.27 414.84h200.52a2.39 2.39 0 0 1 2.39 2.39v7.5H743.87v-7.5a2.39 2.39 0 0 1 2.39-2.39Z" class="cls-15"/><rect width="43.49" height="13.57" x="774.86" y="394.49" rx=".73" ry=".73" style="fill:none;stroke-miterlimit:10;stroke:#141414;stroke-width:1.03px"/><path d="M807.54 395.75h5.07v11.05h-5.07z" style="fill:#1e1e1e"/><path d="M782.08 395.75h5.07v11.05h-5.07zm5.6 0h5.07v11.05h-5.07zm5.48 0h5.07v11.05h-5.07z" class="cls-8"/><rect width="35.33" height="11.94" x="489.05" y="422.02" class="cls-19" rx="1.03" ry="1.03"/><path d="M492.85 423.74h8.08v3.46h-9.91v-1.64c0-1.01.82-1.83 1.83-1.83Zm-1.83 4.71h9.91v3.46h-8.08a1.83 1.83 0 0 1-1.83-1.83v-1.64Z" style="fill:#ce545b"/><path d="M522.65 427.21h-9.91v-3.46h8.08c1.01 0 1.83.82 1.83 1.83v1.64Zm-1.83 4.7h-8.08v-3.46h9.91v1.64c0 1.01-.82 1.83-1.83 1.83Z" style="fill:#175af1"/><path d="M501.86 423.74h9.91v3.46h-9.91zm0 4.71h9.91v3.46h-9.91z" style="fill:#3bc38e"/><path d="M49.01 362.25h2.94v11.38h-2.94zm437.11 0h2.93v11.38h-2.93zm-12.14 0h2.92v11.38h-2.92zm-12.15 0h2.93v11.38h-2.93zm-12.14 0h2.94v11.38h-2.94zm-12.14 0h2.93v11.38h-2.93zm-12.15 0h2.94v11.38h-2.94zm-12.13 0h2.93v11.38h-2.93zm-12.15 0h2.93v11.38h-2.93zm-12.14 0h2.93v11.38h-2.93zm-12.14 0h2.93v11.38h-2.93zm-12.14 0h2.92v11.38h-2.92zm-12.15 0h2.93v11.38h-2.93zm-12.13 0h2.92v11.38h-2.92zm-12.15 0h2.93v11.38h-2.93zm-12.14 0h2.93v11.38h-2.93zm-12.14 0h2.93v11.38h-2.93zm-12.15 0h2.94v11.38h-2.94zm-12.14 0h2.93v11.38h-2.93zm315.69 0h2.94v11.38h-2.94zm-12.14 0h2.93v11.38h-2.93zm-12.15 0h2.94v11.38h-2.94zm-12.13 0h2.93v11.38h-2.93zm-364.26 0h2.94v11.38h-2.94zm-12.14 0h2.93v11.38h-2.93zm-12.15 0h2.94v11.38h-2.94zm-12.13 0h2.93v11.38h-2.93zm-12.15 0h2.94v11.38h-2.94zm-12.14 0h2.93v11.38H134zm-12.13 0h2.92v11.38h-2.92zm-12.15 0h2.93v11.38h-2.93zm-12.14 0h2.92v11.38h-2.92zm-12.14 0h2.93v11.38h-2.93zm-12.15 0h2.94v11.38h-2.94zm-12.14 0h2.93v11.38h-2.93zm485.67 0h2.94v11.38h-2.94zm-12.14 0h2.93v11.38h-2.93zm-12.14 0h2.94v11.38h-2.94zm-12.14 0h2.93v11.38h-2.93zm-12.14 0h2.92v11.38h-2.92zm400.67 0h2.93v11.38h-2.93zm-12.14 0h2.94v11.38h-2.94zm-12.14 0h2.93v11.38h-2.93zm-12.14 0h2.92v11.38h-2.92zm-12.14 0h2.93v11.38h-2.93zm-12.14 0h2.92v11.38h-2.92zm-12.15 0h2.93v11.38h-2.93zm-12.14 0h2.94v11.38h-2.94zm-12.14 0h2.93v11.38h-2.93zm-24.28 0h2.93v11.38h-2.93zm-24.29 0h2.93v11.38h-2.93zm-24.28 0h2.93v11.38h-2.93zm-24.28 0h2.93v11.38h-2.93zm-24.29 0h2.93v11.38h-2.93zm-24.28 0h2.93v11.38h-2.93zm-24.28 0h2.93v11.38h-2.93zm157.83 0h2.94v11.38h-2.94zm-24.28 0h2.94v11.38h-2.94zm-24.28 0h2.94v11.38h-2.94zm-24.29 0h2.94v11.38h-2.94zm-24.28 0h2.94v11.38h-2.94zm-24.28 0h2.94v11.38h-2.94zm-24.29 0h2.94v11.38h-2.94zm-24.27 0h2.92v11.38h-2.92zm-12.15 0h2.93v11.38h-2.93zm339.97 0h2.93v11.38h-2.93zm-12.15 0h2.94v11.38h-2.94zm-12.13 0h2.93v11.38h-2.93zm-12.15 0h2.94v11.38h-2.94zm-643.51 0h2.94v11.38h-2.94zm-12.13 0h2.92v11.38h-2.92zm-12.16 0h2.94v11.38h-2.94zm-12.13 0h2.93v11.38h-2.93zm-12.15 0h2.94v11.38h-2.94zm-12.14 0h2.93v11.38h-2.93z" style="stroke-miterlimit:10;fill:#0c0c0c;stroke:#0c0c0c;stroke-width:2.07px"/><circle cx="552.87" cy="413.59" r="3.28" style="fill:#ff6170"/><circle cx="551.84" cy="412.56" r=".93" class="cls-19"/></g><g id="TEXT"><path d="M98.1 431.7c-.18-.19-.3-.56-.33-1.02-.06-1.65-.09-2.33-.15-3.44-.12-2.04-.6-2.74-1.72-2.74h-.64v7.2h-4.81v-18.42h6.71c3.45 0 5.44 1.67 5.44 4.7 0 2.59-.79 4.19-3.36 4.87v.07c2.51.44 3.02 1.72 3.02 4.12v1.38c0 1.72.18 2.71.45 3.27h-4.63Zm-1.88-15.41h-.97v5.16h.91c1.24 0 1.72-.75 1.72-2.81 0-1.87-.67-2.35-1.66-2.35m19.35 10.83c0 3.46-2.87 4.87-6.11 4.87s-6.2-1.41-6.2-4.87v-9.18c0-3.61 2.93-4.97 6.2-4.97s6.11 1.31 6.11 4.97zm-4.83-10.06c0-.75-.54-1.19-1.3-1.19-.82 0-1.33.41-1.33 1.19v10.9c0 .78.54 1.19 1.36 1.19s1.27-.39 1.27-1.16zm23.46 14.64h-4.81v-10.03h-.15l-2.51 10.03h-3.02l-2.57-9.96h-.18v9.96h-4.2v-18.42h6.11l2.51 10.61h.15l2.72-10.61h5.96v18.42Zm18.81 0h-4.81v-10.03h-.15l-2.51 10.03h-3.02l-2.57-9.96h-.18v9.96h-4.2v-18.42h6.11l2.51 10.61h.15l2.72-10.61h5.96v18.42Zm13-4.48c0 2.91-2.6 4.77-6.08 4.77-3.69 0-5.72-1.62-5.72-4.58 0-1.02.09-1.74.21-2.23l3.6.19c-.09.36-.15.97-.15 1.77 0 1.53.73 1.96 1.75 1.96s1.6-.68 1.6-1.53v-.27c0-1.33-.79-2.25-3.21-4.12-2.42-1.84-3.75-3.39-3.75-5.45v-.17c0-2.3 2.15-4.6 6.02-4.6s5.78 2.06 5.78 4.58c0 .75-.06 1.53-.18 2.21l-3.54-.19c.09-.41.18-1.09.18-1.74 0-1.58-.79-1.94-1.84-1.94s-1.63.48-1.63 1.38v.12c0 1.02.67 1.89 2.69 3.34 2.51 1.79 4.26 3.8 4.26 6.18v.31Zm12.88-10.93h-3.93v15.41h-4.84v-15.41h-3.9v-3h12.67zm8.05 15.41c-.18-.19-.3-.56-.33-1.02-.06-1.65-.09-2.33-.15-3.44-.12-2.04-.6-2.74-1.72-2.74h-.64v7.2h-4.81v-18.42H186c3.45 0 5.44 1.67 5.44 4.7 0 2.59-.79 4.19-3.36 4.87v.07c2.51.44 3.02 1.72 3.02 4.12v1.38c0 1.72.18 2.71.45 3.27h-4.63Zm-1.88-15.41h-.97v5.16h.91c1.24 0 1.72-.75 1.72-2.81 0-1.87-.67-2.35-1.66-2.35" class="cls-14"/><path d="M204.32 431.7h-4.9l-.36-2.3h-3.48l-.33 2.3h-4.11l3.81-18.42h5.5zm-5.8-5.31-1.15-8.04h-.18l-1.21 8.04zm18.29.85c0 3.05-2.21 4.46-5.96 4.46h-6.32v-18.42h6.2c3.99 0 6.08 1.62 6.08 4.87zm-4.81-9.18c0-1.31-.42-1.77-1.78-1.77h-.88v12.41h.88c1.18 0 1.78-.39 1.78-1.36z" class="cls-14"/><path d="m426.46 422.34 2.1 9.37 2.08-9.59c.12-.54.32-.82.59-.82-.01 0 .21.04.67.11.14.02.29.04.45.04.19 0 .46-.03.81-.1s.62-.1.81-.1c.21 0 .38.07.52.21s.2.32.2.53c0 .18-.06.33-.18.46s-.26.19-.44.19c-.07 0-.17-.02-.28-.05-.16-.05-.27-.08-.33-.08q-.45 0-.54 1.41v7.21c.06.93.24 1.39.54 1.39.02 0 .14-.01.33-.04.06-.02.15-.04.28-.04.17 0 .32.06.44.18s.18.26.18.44c0 .21-.07.39-.2.53-.14.14-.31.21-.52.21-.2 0-.49-.04-.86-.11-.38-.07-.67-.11-.86-.11s-.44.04-.77.11-.58.11-.75.11a.54.54 0 0 1-.42-.21.75.75 0 0 1-.18-.5c0-.43.22-.65.67-.65h.25s.08.06.15.06q.48 0 .51-.84l.04-.78v-8.55l-2.42 11.12c-.07.33-.32.5-.74.5-.45 0-.71-.17-.78-.5l-2.45-10.95v6.66c0 1.48.03 2.4.09 2.78s.21.57.45.57c.06 0 .15 0 .28-.03s.22-.03.28-.03c.41 0 .61.22.61.65 0 .47-.21.71-.63.71-.14 0-.36-.04-.67-.11s-.61-.11-.89-.11c-.2 0-.49.04-.87.11s-.68.11-.87.11c-.47 0-.71-.25-.71-.74 0-.41.2-.61.59-.61.12 0 .22.01.28.04.2.02.31.04.33.04.24 0 .38-.18.45-.55.06-.37.09-1.26.09-2.69v-3.42c0-1.43-.03-2.32-.09-2.69s-.21-.55-.45-.55c-.02 0-.14.01-.33.04-.06.02-.16.04-.28.04-.4 0-.59-.2-.59-.61 0-.21.07-.39.2-.53.14-.14.3-.21.5-.21.09 0 .29.02.59.06.11.02.33.04.65.04.17 0 .42-.02.74-.06s.56-.06.71-.06c.22 0 .38.12.48.35.02.07.08.29.17.65Zm13.16 1.73v5.22c0 1.43.03 2.32.09 2.69s.21.55.45.55c.04 0 .14-.01.32-.04.07-.02.17-.04.3-.04.4 0 .6.2.6.61 0 .21-.07.39-.2.53-.14.14-.3.21-.5.21-.11 0-.4-.04-.87-.13-.33-.06-.63-.09-.87-.09-.2 0-.49.04-.86.11s-.65.11-.83.11c-.2 0-.37-.07-.5-.21a.72.72 0 0 1-.2-.53c0-.41.2-.61.61-.61.11 0 .2.01.28.04.17.02.28.04.33.04.24 0 .38-.18.44-.55s.08-1.26.08-2.69v-4.38c0-1.04-.05-1.69-.15-1.96q-.15-.39-.78-.39c-.63 0-.73.06-.89.2-.16.13-.24.38-.24.73 0 .12.01.45.04.97.02.52.04.87.04 1.04 0 .66-.22.99-.65.99-.41 0-.61-.27-.61-.81 0 .01 0-.18.02-.57.02-.59.03-1.05.03-1.37 0-.2-.01-.56-.04-1.07-.01-.26-.02-.49-.02-.7 0-.43.19-.65.56-.65q.165 0 .81.06c.645.06 1.09.06 1.96.06H440c.53-.02.91-.04 1.15-.07q.63-.06 1.17-.06c.54 0 .56.21.56.63 0 .07 0 .28-.02.61q-.03.765-.03 1.32c0 .29.01.69.04 1.21.01.26.02.45.02.58 0 .56-.22.84-.65.84-.41 0-.61-.31-.61-.93 0-.04 0-.16.02-.36.01-.2.02-.37.02-.49v-1.12c0-.38-.07-.65-.21-.8s-.39-.22-.74-.22c-.51 0-.83.14-.95.41-.06.15-.09.51-.09 1.1Zm11.94.45q0 2.31-1.92 2.88c.54.21.9.45 1.06.72s.26.77.3 1.52v.86l.04.76c.02.85.22 1.28.58 1.28.06 0 .17-.02.32-.06s.23-.06.24-.06c.4 0 .6.22.6.65 0 .47-.26.71-.78.71h-.19l-.45-.06-.48-.02c-.46-.01-.77-.23-.93-.64-.16-.42-.25-1.24-.28-2.46v-.87c-.01-.66-.15-1.1-.41-1.33s-.76-.34-1.49-.34h-.15l-.93.04c-.17.01-.29.06-.33.15-.05.09-.07.29-.07.61v.45c0 1.43.03 2.32.09 2.69s.21.55.45.55c.02 0 .14-.02.33-.06.06-.04.15-.06.28-.06.4 0 .59.2.59.61 0 .21-.07.39-.2.53-.14.14-.3.21-.5.21-.17 0-.46-.03-.85-.09-.4-.06-.7-.09-.91-.09-.2 0-.48.03-.86.09q-.555.09-.84.09c-.2 0-.36-.07-.49-.21a.76.76 0 0 1-.2-.53c0-.41.2-.61.59-.61.12 0 .22.02.28.06q.3.06.33.06c.24 0 .38-.18.45-.55.06-.37.09-1.26.09-2.69v-3.54c0-1.44-.03-2.34-.09-2.71s-.21-.55-.45-.55q-.09 0-.3.06c-.14.04-.24.06-.32.06-.4 0-.59-.21-.59-.63 0-.48.24-.73.71-.73.2 0 .5.03.9.1s.71.1.92.1c.32 0 .81-.02 1.45-.06s1.13-.06 1.45-.06c.94 0 1.67.28 2.18.83s.77 1.34.77 2.37Zm-5.28 1.82c0 .27.13.42.39.43l.37.02s.1.02.19.02c.06 0 .17 0 .32-.02.56-.04 1-.07 1.34-.11.4-.1.71-.33.95-.71.24-.37.35-.82.35-1.36 0-1.41-.72-2.12-2.16-2.12-.64 0-1.1.07-1.36.2s-.39.37-.39.69zm17.28-2.82v7.73l-1.71 2.22h-3.93l-1.23-1.6 1.37-1.78.82 1.07h2.01l.67-.87v-2.43l-.86 1.12h-2.64l-1.51-1.95v-3.5l1.64-2.13h3.72l1.64 2.13Zm-1.99 2.22v-1.26l-.6-.78h-1.81l-.6.78v1.58l.52.67h1.72zm10.4 5.41v2.31h-6.57v-2.31h2.29v-7.14l-1.97 1.56-.93-1.97 2.79-2.22h2.11v9.77h2.29Zm8.05-7.63v7.73l-1.71 2.22h-3.93l-1.23-1.6 1.37-1.78.82 1.07h2.01l.67-.87v-2.43l-.86 1.12h-2.64l-1.51-1.95v-3.5l1.64-2.13h3.72l1.64 2.13Zm-1.99 2.22v-1.26l-.6-.78h-1.81l-.6.78v1.58l.52.67h1.72z" class="cls-19"/></g></svg>