<?xml version="1.0" encoding="UTF-8"?>
<svg xmlns="http://www.w3.org/2000/svg" viewBox="0 0 1000 1000">
  <defs>
    <style>
      .cls-1 {
        stroke: #fff;
      }

      .cls-1, .cls-2, .cls-3, .cls-4, .cls-5 {
        fill: none;
      }

      .cls-1, .cls-2, .cls-3, .cls-4, .cls-5, .cls-6 {
        stroke-miterlimit: 10;
      }

      .cls-1, .cls-2, .cls-4 {
        stroke-width: .77px;
      }

      .cls-7 {
        fill: #2c2c2c;
      }

      .cls-8 {
        fill: #141414;
      }

      .cls-9 {
        fill: #ff6170;
      }

      .cls-10 {
        fill: #3f3f3f;
      }

      .cls-11, .cls-6 {
        fill: #0c0c0c;
      }

      .cls-12 {
        fill: #fff;
      }

      .cls-13 {
        fill: #1e1e1e;
      }

      .cls-14 {
        fill: #cecece;
      }

      .cls-15 {
        fill: #262626;
      }

      .cls-16 {
        fill: #e0e0e0;
      }

      .cls-17 {
        fill: #0e59bd;
      }

      .cls-18 {
        fill: #8a3836;
      }

      .cls-19 {
        fill: #d3d3d3;
      }

      .cls-20 {
        fill: #ce545b;
      }

      .cls-21 {
        fill: #6e2120;
      }

      .cls-22 {
        fill: #e7665d;
      }

      .cls-2 {
        stroke: #4fa679;
      }

      .cls-23 {
        fill: #a8a8a8;
      }

      .cls-24 {
        fill: #191919;
      }

      .cls-25 {
        fill: #4fa679;
      }

      .cls-26 {
        fill: #307731;
      }

      .cls-3 {
        stroke: #141414;
      }

      .cls-3, .cls-5 {
        stroke-width: 1.03px;
      }

      .cls-27 {
        fill: #3bc38e;
      }

      .cls-28 {
        fill: #0a3d8d;
      }

      .cls-29 {
        fill: #175af1;
      }

      .cls-4 {
        stroke: #e7665d;
      }

      .cls-5 {
        stroke: #e0e0e0;
      }

      .cls-6 {
        stroke: #0c0c0c;
        stroke-width: 2.07px;
      }

      .cls-30 {
        fill: #458e45;
      }
    </style>
  </defs>
  <g id="Words">
    <path class="cls-15" d="M984.6,365.53v268.96c0,2.38-1.93,4.3-4.3,4.3H19.69c-2.38,0-4.3-1.92-4.3-4.3v-268.96c0-2.38,1.92-4.31,4.3-4.31h960.61c2.37,0,4.3,1.93,4.3,4.31Z"/>
    <rect class="cls-11" x="70.76" y="453.7" width="505.72" height="132.81" rx="2.8" ry="2.8"/>
    <rect class="cls-11" x="605.45" y="486.5" width="99.9" height="132.37" rx="1.24" ry="1.24"/>
    <rect class="cls-11" x="637.84" y="379.17" width="35.69" height="100.75" rx="2.8" ry="2.8"/>
    <rect class="cls-11" x="637.84" y="379.69" width="35.69" height="100.75" rx="2.8" ry="2.8" transform="translate(225.62 1085.75) rotate(-90)"/>
    <rect class="cls-11" x="177.04" y="586.46" width="328.28" height="32.78" rx="1.12" ry="1.12"/>
    <path class="cls-8" d="M954.57,606.46v32.32h-213.48v-32.32c0-2.72,2.22-4.91,4.98-4.91h203.53c2.74,0,4.98,2.19,4.98,4.91Z"/>
    <g>
      <rect class="cls-21" x="72.93" y="455.86" width="30.64" height="30.64" rx="2.18" ry="2.18"/>
      <path class="cls-18" d="M95.56,481.56c-4.87.55-9.74.55-14.61,0-1.7,0-3.07-1.38-3.07-3.07-.52-4.85-.52-9.72,0-14.61,0-1.7,1.38-3.07,3.07-3.07,4.97-.43,9.85-.45,14.61,0,1.7,0,3.07,1.38,3.07,3.07.62,4.96.64,9.84,0,14.61,0,1.7-1.38,3.07-3.07,3.07Z"/>
    </g>
    <g>
      <rect class="cls-24" x="105.74" y="455.86" width="30.64" height="30.64" rx="2.18" ry="2.18"/>
      <path class="cls-7" d="M128.36,481.56c-4.87.55-9.74.55-14.61,0-1.7,0-3.07-1.38-3.07-3.07-.52-4.85-.52-9.72,0-14.61,0-1.7,1.38-3.07,3.07-3.07,4.97-.43,9.85-.45,14.61,0,1.7,0,3.07,1.38,3.07,3.07.62,4.96.64,9.84,0,14.61,0,1.7-1.38,3.07-3.07,3.07Z"/>
    </g>
    <g>
      <rect class="cls-24" x="138.54" y="455.86" width="30.64" height="30.64" rx="2.18" ry="2.18"/>
      <path class="cls-7" d="M161.16,481.56c-4.87.55-9.74.55-14.61,0-1.7,0-3.07-1.38-3.07-3.07-.52-4.85-.52-9.72,0-14.61,0-1.7,1.38-3.07,3.07-3.07,4.97-.43,9.85-.45,14.61,0,1.7,0,3.07,1.38,3.07,3.07.62,4.96.64,9.84,0,14.61,0,1.7-1.38,3.07-3.07,3.07Z"/>
    </g>
    <g>
      <rect class="cls-24" x="171.34" y="455.86" width="30.64" height="30.64" rx="2.18" ry="2.18"/>
      <path class="cls-7" d="M193.97,481.56c-4.87.55-9.74.55-14.61,0-1.7,0-3.07-1.38-3.07-3.07-.52-4.85-.52-9.72,0-14.61,0-1.7,1.38-3.07,3.07-3.07,4.97-.43,9.85-.45,14.61,0,1.7,0,3.07,1.38,3.07,3.07.62,4.96.64,9.84,0,14.61,0,1.7-1.38,3.07-3.07,3.07Z"/>
    </g>
    <g>
      <rect class="cls-24" x="204.15" y="455.86" width="30.64" height="30.64" rx="2.18" ry="2.18"/>
      <path class="cls-7" d="M226.77,481.56c-4.87.55-9.74.55-14.61,0-1.7,0-3.07-1.38-3.07-3.07-.52-4.85-.52-9.72,0-14.61,0-1.7,1.38-3.07,3.07-3.07,4.97-.43,9.85-.45,14.61,0,1.7,0,3.07,1.38,3.07,3.07.62,4.96.64,9.84,0,14.61,0,1.7-1.38,3.07-3.07,3.07Z"/>
    </g>
    <g>
      <rect class="cls-24" x="236.95" y="455.86" width="30.64" height="30.64" rx="2.18" ry="2.18"/>
      <path class="cls-7" d="M259.58,481.56c-4.87.55-9.74.55-14.61,0-1.7,0-3.07-1.38-3.07-3.07-.52-4.85-.52-9.72,0-14.61,0-1.7,1.38-3.07,3.07-3.07,4.97-.43,9.85-.45,14.61,0,1.7,0,3.07,1.38,3.07,3.07.62,4.96.64,9.84,0,14.61,0,1.7-1.38,3.07-3.07,3.07Z"/>
    </g>
    <g>
      <rect class="cls-21" x="749.9" y="602.9" width="30.64" height="30.64" rx="2.18" ry="2.18"/>
      <path class="cls-18" d="M772.53,628.59c-4.87.55-9.74.55-14.61,0-1.7,0-3.07-1.38-3.07-3.07-.52-4.85-.52-9.72,0-14.61,0-1.7,1.38-3.07,3.07-3.07,4.97-.43,9.85-.45,14.61,0,1.7,0,3.07,1.38,3.07,3.07.62,4.96.64,9.84,0,14.61,0,1.7-1.38,3.07-3.07,3.07Z"/>
    </g>
    <g>
      <rect class="cls-24" x="782.71" y="602.9" width="30.64" height="30.64" rx="2.18" ry="2.18"/>
      <path class="cls-7" d="M805.33,628.59c-4.87.55-9.74.55-14.61,0-1.7,0-3.07-1.38-3.07-3.07-.52-4.85-.52-9.72,0-14.61,0-1.7,1.38-3.07,3.07-3.07,4.97-.43,9.85-.45,14.61,0,1.7,0,3.07,1.38,3.07,3.07.62,4.96.64,9.84,0,14.61,0,1.7-1.38,3.07-3.07,3.07Z"/>
    </g>
    <g>
      <rect class="cls-24" x="815.51" y="602.9" width="30.64" height="30.64" rx="2.18" ry="2.18"/>
      <path class="cls-7" d="M838.14,628.59c-4.87.55-9.74.55-14.61,0-1.7,0-3.07-1.38-3.07-3.07-.52-4.85-.52-9.72,0-14.61,0-1.7,1.38-3.07,3.07-3.07,4.97-.43,9.85-.45,14.61,0,1.7,0,3.07,1.38,3.07,3.07.62,4.96.64,9.84,0,14.61,0,1.7-1.38,3.07-3.07,3.07Z"/>
    </g>
    <g>
      <rect class="cls-24" x="848.31" y="602.9" width="30.64" height="30.64" rx="2.18" ry="2.18"/>
      <path class="cls-7" d="M870.94,628.59c-4.87.55-9.74.55-14.61,0-1.7,0-3.07-1.38-3.07-3.07-.52-4.85-.52-9.72,0-14.61,0-1.7,1.38-3.07,3.07-3.07,4.97-.43,9.85-.45,14.61,0,1.7,0,3.07,1.38,3.07,3.07.62,4.96.64,9.84,0,14.61,0,1.7-1.38,3.07-3.07,3.07Z"/>
    </g>
    <g>
      <rect class="cls-24" x="881.12" y="602.9" width="30.64" height="30.64" rx="2.18" ry="2.18"/>
      <path class="cls-7" d="M903.74,628.59c-4.87.55-9.74.55-14.61,0-1.7,0-3.07-1.38-3.07-3.07-.52-4.85-.52-9.72,0-14.61,0-1.7,1.38-3.07,3.07-3.07,4.97-.43,9.85-.45,14.61,0,1.7,0,3.07,1.38,3.07,3.07.62,4.96.64,9.84,0,14.61,0,1.7-1.38,3.07-3.07,3.07Z"/>
    </g>
    <g>
      <rect class="cls-24" x="913.92" y="602.9" width="30.64" height="30.64" rx="2.18" ry="2.18"/>
      <path class="cls-7" d="M936.55,628.59c-4.87.55-9.74.55-14.61,0-1.7,0-3.07-1.38-3.07-3.07-.52-4.85-.52-9.72,0-14.61,0-1.7,1.38-3.07,3.07-3.07,4.97-.43,9.85-.45,14.61,0,1.7,0,3.07,1.38,3.07,3.07.62,4.96.64,9.84,0,14.61,0,1.7-1.38,3.07-3.07,3.07Z"/>
    </g>
    <g>
      <rect class="cls-24" x="269.76" y="455.86" width="30.64" height="30.64" rx="2.18" ry="2.18"/>
      <path class="cls-7" d="M292.38,481.56c-4.87.55-9.74.55-14.61,0-1.7,0-3.07-1.38-3.07-3.07-.52-4.85-.52-9.72,0-14.61,0-1.7,1.38-3.07,3.07-3.07,4.97-.43,9.85-.45,14.61,0,1.7,0,3.07,1.38,3.07,3.07.62,4.96.64,9.84,0,14.61,0,1.7-1.38,3.07-3.07,3.07Z"/>
    </g>
    <g>
      <rect class="cls-24" x="302.56" y="455.86" width="30.64" height="30.64" rx="2.18" ry="2.18"/>
      <path class="cls-7" d="M325.18,481.56c-4.87.55-9.74.55-14.61,0-1.7,0-3.07-1.38-3.07-3.07-.52-4.85-.52-9.72,0-14.61,0-1.7,1.38-3.07,3.07-3.07,4.97-.43,9.85-.45,14.61,0,1.7,0,3.07,1.38,3.07,3.07.62,4.96.64,9.84,0,14.61,0,1.7-1.38,3.07-3.07,3.07Z"/>
    </g>
    <g>
      <rect class="cls-24" x="335.36" y="455.86" width="30.64" height="30.64" rx="2.18" ry="2.18"/>
      <path class="cls-7" d="M357.99,481.56c-4.87.55-9.74.55-14.61,0-1.7,0-3.07-1.38-3.07-3.07-.52-4.85-.52-9.72,0-14.61,0-1.7,1.38-3.07,3.07-3.07,4.97-.43,9.85-.45,14.61,0,1.7,0,3.07,1.38,3.07,3.07.62,4.96.64,9.84,0,14.61,0,1.7-1.38,3.07-3.07,3.07Z"/>
    </g>
    <g>
      <rect class="cls-24" x="368.17" y="455.86" width="30.64" height="30.64" rx="2.18" ry="2.18"/>
      <path class="cls-7" d="M390.79,481.56c-4.87.55-9.74.55-14.61,0-1.7,0-3.07-1.38-3.07-3.07-.52-4.85-.52-9.72,0-14.61,0-1.7,1.38-3.07,3.07-3.07,4.97-.43,9.85-.45,14.61,0,1.7,0,3.07,1.38,3.07,3.07.62,4.96.64,9.84,0,14.61,0,1.7-1.38,3.07-3.07,3.07Z"/>
    </g>
    <g>
      <rect class="cls-24" x="400.97" y="455.86" width="30.64" height="30.64" rx="2.18" ry="2.18"/>
      <path class="cls-7" d="M423.6,481.56c-4.87.55-9.74.55-14.61,0-1.7,0-3.07-1.38-3.07-3.07-.52-4.85-.52-9.72,0-14.61,0-1.7,1.38-3.07,3.07-3.07,4.97-.43,9.85-.45,14.61,0,1.7,0,3.07,1.38,3.07,3.07.62,4.96.64,9.84,0,14.61,0,1.7-1.38,3.07-3.07,3.07Z"/>
    </g>
    <g>
      <rect class="cls-24" x="433.77" y="455.86" width="30.64" height="30.64" rx="2.18" ry="2.18"/>
      <path class="cls-7" d="M456.4,481.56c-4.87.55-9.74.55-14.61,0-1.7,0-3.07-1.38-3.07-3.07-.52-4.85-.52-9.72,0-14.61,0-1.7,1.38-3.07,3.07-3.07,4.97-.43,9.85-.45,14.61,0,1.7,0,3.07,1.38,3.07,3.07.62,4.96.64,9.84,0,14.61,0,1.7-1.38,3.07-3.07,3.07Z"/>
    </g>
    <g>
      <rect class="cls-24" x="466.58" y="455.86" width="30.64" height="30.64" rx="2.18" ry="2.18"/>
      <path class="cls-7" d="M489.2,481.56c-4.87.55-9.74.55-14.61,0-1.7,0-3.07-1.38-3.07-3.07-.52-4.85-.52-9.72,0-14.61,0-1.7,1.38-3.07,3.07-3.07,4.97-.43,9.85-.45,14.61,0,1.7,0,3.07,1.38,3.07,3.07.62,4.96.64,9.84,0,14.61,0,1.7-1.38,3.07-3.07,3.07Z"/>
    </g>
    <g>
      <rect class="cls-24" x="122.14" y="488.51" width="30.64" height="30.64" rx="2.18" ry="2.18"/>
      <path class="cls-7" d="M144.76,514.21c-4.87.55-9.74.55-14.61,0-1.7,0-3.07-1.38-3.07-3.07-.52-4.85-.52-9.72,0-14.61,0-1.7,1.38-3.07,3.07-3.07,4.97-.43,9.85-.45,14.61,0,1.7,0,3.07,1.38,3.07,3.07.62,4.96.64,9.84,0,14.61,0,1.7-1.38,3.07-3.07,3.07Z"/>
    </g>
    <g>
      <rect class="cls-24" x="154.94" y="488.51" width="30.64" height="30.64" rx="2.18" ry="2.18"/>
      <path class="cls-7" d="M177.57,514.21c-4.87.55-9.74.55-14.61,0-1.7,0-3.07-1.38-3.07-3.07-.52-4.85-.52-9.72,0-14.61,0-1.7,1.38-3.07,3.07-3.07,4.97-.43,9.85-.45,14.61,0,1.7,0,3.07,1.38,3.07,3.07.62,4.96.64,9.84,0,14.61,0,1.7-1.38,3.07-3.07,3.07Z"/>
    </g>
    <g>
      <rect class="cls-24" x="187.75" y="488.51" width="30.64" height="30.64" rx="2.18" ry="2.18"/>
      <path class="cls-7" d="M210.37,514.21c-4.87.55-9.74.55-14.61,0-1.7,0-3.07-1.38-3.07-3.07-.52-4.85-.52-9.72,0-14.61,0-1.7,1.38-3.07,3.07-3.07,4.97-.43,9.85-.45,14.61,0,1.7,0,3.07,1.38,3.07,3.07.62,4.96.64,9.84,0,14.61,0,1.7-1.38,3.07-3.07,3.07Z"/>
    </g>
    <g>
      <rect class="cls-24" x="220.55" y="488.51" width="30.64" height="30.64" rx="2.18" ry="2.18"/>
      <path class="cls-7" d="M243.17,514.21c-4.87.55-9.74.55-14.61,0-1.7,0-3.07-1.38-3.07-3.07-.52-4.85-.52-9.72,0-14.61,0-1.7,1.38-3.07,3.07-3.07,4.97-.43,9.85-.45,14.61,0,1.7,0,3.07,1.38,3.07,3.07.62,4.96.64,9.84,0,14.61,0,1.7-1.38,3.07-3.07,3.07Z"/>
    </g>
    <g>
      <rect class="cls-24" x="253.35" y="488.51" width="30.64" height="30.64" rx="2.18" ry="2.18"/>
      <path class="cls-7" d="M275.98,514.21c-4.87.55-9.74.55-14.61,0-1.7,0-3.07-1.38-3.07-3.07-.52-4.85-.52-9.72,0-14.61,0-1.7,1.38-3.07,3.07-3.07,4.97-.43,9.85-.45,14.61,0,1.7,0,3.07,1.38,3.07,3.07.62,4.96.64,9.84,0,14.61,0,1.7-1.38,3.07-3.07,3.07Z"/>
    </g>
    <g>
      <rect class="cls-24" x="286.16" y="488.51" width="30.64" height="30.64" rx="2.18" ry="2.18"/>
      <path class="cls-7" d="M308.78,514.21c-4.87.55-9.74.55-14.61,0-1.7,0-3.07-1.38-3.07-3.07-.52-4.85-.52-9.72,0-14.61,0-1.7,1.38-3.07,3.07-3.07,4.97-.43,9.85-.45,14.61,0,1.7,0,3.07,1.38,3.07,3.07.62,4.96.64,9.84,0,14.61,0,1.7-1.38,3.07-3.07,3.07Z"/>
    </g>
    <g>
      <rect class="cls-24" x="318.96" y="488.51" width="30.64" height="30.64" rx="2.18" ry="2.18"/>
      <path class="cls-7" d="M341.59,514.21c-4.87.55-9.74.55-14.61,0-1.7,0-3.07-1.38-3.07-3.07-.52-4.85-.52-9.72,0-14.61,0-1.7,1.38-3.07,3.07-3.07,4.97-.43,9.85-.45,14.61,0,1.7,0,3.07,1.38,3.07,3.07.62,4.96.64,9.84,0,14.61,0,1.7-1.38,3.07-3.07,3.07Z"/>
    </g>
    <g>
      <rect class="cls-24" x="351.76" y="488.51" width="30.64" height="30.64" rx="2.18" ry="2.18"/>
      <path class="cls-7" d="M374.39,514.21c-4.87.55-9.74.55-14.61,0-1.7,0-3.07-1.38-3.07-3.07-.52-4.85-.52-9.72,0-14.61,0-1.7,1.38-3.07,3.07-3.07,4.97-.43,9.85-.45,14.61,0,1.7,0,3.07,1.38,3.07,3.07.62,4.96.64,9.84,0,14.61,0,1.7-1.38,3.07-3.07,3.07Z"/>
    </g>
    <g>
      <rect class="cls-24" x="384.57" y="488.51" width="30.64" height="30.64" rx="2.18" ry="2.18"/>
      <path class="cls-7" d="M407.19,514.21c-4.87.55-9.74.55-14.61,0-1.7,0-3.07-1.38-3.07-3.07-.52-4.85-.52-9.72,0-14.61,0-1.7,1.38-3.07,3.07-3.07,4.97-.43,9.85-.45,14.61,0,1.7,0,3.07,1.38,3.07,3.07.62,4.96.64,9.84,0,14.61,0,1.7-1.38,3.07-3.07,3.07Z"/>
    </g>
    <g>
      <rect class="cls-24" x="417.37" y="488.51" width="30.64" height="30.64" rx="2.18" ry="2.18"/>
      <path class="cls-7" d="M440,514.21c-4.87.55-9.74.55-14.61,0-1.7,0-3.07-1.38-3.07-3.07-.52-4.85-.52-9.72,0-14.61,0-1.7,1.38-3.07,3.07-3.07,4.97-.43,9.85-.45,14.61,0,1.7,0,3.07,1.38,3.07,3.07.62,4.96.64,9.84,0,14.61,0,1.7-1.38,3.07-3.07,3.07Z"/>
    </g>
    <g>
      <rect class="cls-24" x="450.18" y="488.51" width="30.64" height="30.64" rx="2.18" ry="2.18"/>
      <path class="cls-7" d="M472.8,514.21c-4.87.55-9.74.55-14.61,0-1.7,0-3.07-1.38-3.07-3.07-.52-4.85-.52-9.72,0-14.61,0-1.7,1.38-3.07,3.07-3.07,4.97-.43,9.85-.45,14.61,0,1.7,0,3.07,1.38,3.07,3.07.62,4.96.64,9.84,0,14.61,0,1.7-1.38,3.07-3.07,3.07Z"/>
    </g>
    <g>
      <rect class="cls-24" x="482.98" y="488.51" width="30.64" height="30.64" rx="2.18" ry="2.18"/>
      <path class="cls-7" d="M505.61,514.21c-4.87.55-9.74.55-14.61,0-1.7,0-3.07-1.38-3.07-3.07-.52-4.85-.52-9.72,0-14.61,0-1.7,1.38-3.07,3.07-3.07,4.97-.43,9.85-.45,14.61,0,1.7,0,3.07,1.38,3.07,3.07.62,4.96.64,9.84,0,14.61,0,1.7-1.38,3.07-3.07,3.07Z"/>
    </g>
    <g>
      <rect class="cls-24" x="130.23" y="521.16" width="30.64" height="30.64" rx="2.18" ry="2.18"/>
      <path class="cls-7" d="M152.86,546.86c-4.87.55-9.74.55-14.61,0-1.7,0-3.07-1.38-3.07-3.07-.52-4.85-.52-9.72,0-14.61,0-1.7,1.38-3.07,3.07-3.07,4.97-.43,9.85-.45,14.61,0,1.7,0,3.07,1.38,3.07,3.07.62,4.96.64,9.84,0,14.61,0,1.7-1.38,3.07-3.07,3.07Z"/>
    </g>
    <g>
      <rect class="cls-24" x="163.04" y="521.16" width="30.64" height="30.64" rx="2.18" ry="2.18"/>
      <path class="cls-7" d="M185.66,546.86c-4.87.55-9.74.55-14.61,0-1.7,0-3.07-1.38-3.07-3.07-.52-4.85-.52-9.72,0-14.61,0-1.7,1.38-3.07,3.07-3.07,4.97-.43,9.85-.45,14.61,0,1.7,0,3.07,1.38,3.07,3.07.62,4.96.64,9.84,0,14.61,0,1.7-1.38,3.07-3.07,3.07Z"/>
    </g>
    <g>
      <rect class="cls-24" x="195.84" y="521.16" width="30.64" height="30.64" rx="2.18" ry="2.18"/>
      <path class="cls-7" d="M218.46,546.86c-4.87.55-9.74.55-14.61,0-1.7,0-3.07-1.38-3.07-3.07-.52-4.85-.52-9.72,0-14.61,0-1.7,1.38-3.07,3.07-3.07,4.97-.43,9.85-.45,14.61,0,1.7,0,3.07,1.38,3.07,3.07.62,4.96.64,9.84,0,14.61,0,1.7-1.38,3.07-3.07,3.07Z"/>
    </g>
    <g>
      <rect class="cls-24" x="228.64" y="521.16" width="30.64" height="30.64" rx="2.18" ry="2.18"/>
      <path class="cls-7" d="M251.27,546.86c-4.87.55-9.74.55-14.61,0-1.7,0-3.07-1.38-3.07-3.07-.52-4.85-.52-9.72,0-14.61,0-1.7,1.38-3.07,3.07-3.07,4.97-.43,9.85-.45,14.61,0,1.7,0,3.07,1.38,3.07,3.07.62,4.96.64,9.84,0,14.61,0,1.7-1.38,3.07-3.07,3.07Z"/>
    </g>
    <g>
      <rect class="cls-24" x="261.45" y="521.16" width="30.64" height="30.64" rx="2.18" ry="2.18"/>
      <path class="cls-7" d="M284.07,546.86c-4.87.55-9.74.55-14.61,0-1.7,0-3.07-1.38-3.07-3.07-.52-4.85-.52-9.72,0-14.61,0-1.7,1.38-3.07,3.07-3.07,4.97-.43,9.85-.45,14.61,0,1.7,0,3.07,1.38,3.07,3.07.62,4.96.64,9.84,0,14.61,0,1.7-1.38,3.07-3.07,3.07Z"/>
    </g>
    <g>
      <rect class="cls-24" x="294.25" y="521.16" width="30.64" height="30.64" rx="2.18" ry="2.18"/>
      <path class="cls-7" d="M316.88,546.86c-4.87.55-9.74.55-14.61,0-1.7,0-3.07-1.38-3.07-3.07-.52-4.85-.52-9.72,0-14.61,0-1.7,1.38-3.07,3.07-3.07,4.97-.43,9.85-.45,14.61,0,1.7,0,3.07,1.38,3.07,3.07.62,4.96.64,9.84,0,14.61,0,1.7-1.38,3.07-3.07,3.07Z"/>
    </g>
    <g>
      <rect class="cls-24" x="327.06" y="521.16" width="30.64" height="30.64" rx="2.18" ry="2.18"/>
      <path class="cls-7" d="M349.68,546.86c-4.87.55-9.74.55-14.61,0-1.7,0-3.07-1.38-3.07-3.07-.52-4.85-.52-9.72,0-14.61,0-1.7,1.38-3.07,3.07-3.07,4.97-.43,9.85-.45,14.61,0,1.7,0,3.07,1.38,3.07,3.07.62,4.96.64,9.84,0,14.61,0,1.7-1.38,3.07-3.07,3.07Z"/>
    </g>
    <g>
      <rect class="cls-24" x="359.86" y="521.16" width="30.64" height="30.64" rx="2.18" ry="2.18"/>
      <path class="cls-7" d="M382.48,546.86c-4.87.55-9.74.55-14.61,0-1.7,0-3.07-1.38-3.07-3.07-.52-4.85-.52-9.72,0-14.61,0-1.7,1.38-3.07,3.07-3.07,4.97-.43,9.85-.45,14.61,0,1.7,0,3.07,1.38,3.07,3.07.62,4.96.64,9.84,0,14.61,0,1.7-1.38,3.07-3.07,3.07Z"/>
    </g>
    <g>
      <rect class="cls-24" x="392.66" y="521.16" width="30.64" height="30.64" rx="2.18" ry="2.18"/>
      <path class="cls-7" d="M415.29,546.86c-4.87.55-9.74.55-14.61,0-1.7,0-3.07-1.38-3.07-3.07-.52-4.85-.52-9.72,0-14.61,0-1.7,1.38-3.07,3.07-3.07,4.97-.43,9.85-.45,14.61,0,1.7,0,3.07,1.38,3.07,3.07.62,4.96.64,9.84,0,14.61,0,1.7-1.38,3.07-3.07,3.07Z"/>
    </g>
    <g>
      <rect class="cls-24" x="425.47" y="521.16" width="30.64" height="30.64" rx="2.18" ry="2.18"/>
      <path class="cls-7" d="M448.09,546.86c-4.87.55-9.74.55-14.61,0-1.7,0-3.07-1.38-3.07-3.07-.52-4.85-.52-9.72,0-14.61,0-1.7,1.38-3.07,3.07-3.07,4.97-.43,9.85-.45,14.61,0,1.7,0,3.07,1.38,3.07,3.07.62,4.96.64,9.84,0,14.61,0,1.7-1.38,3.07-3.07,3.07Z"/>
    </g>
    <g>
      <rect class="cls-24" x="458.27" y="521.16" width="30.64" height="30.64" rx="2.18" ry="2.18"/>
      <path class="cls-7" d="M480.9,546.86c-4.87.55-9.74.55-14.61,0-1.7,0-3.07-1.38-3.07-3.07-.52-4.85-.52-9.72,0-14.61,0-1.7,1.38-3.07,3.07-3.07,4.97-.43,9.85-.45,14.61,0,1.7,0,3.07,1.38,3.07,3.07.62,4.96.64,9.84,0,14.61,0,1.7-1.38,3.07-3.07,3.07Z"/>
    </g>
    <g>
      <rect class="cls-24" x="144.17" y="553.81" width="30.64" height="30.64" rx="2.18" ry="2.18"/>
      <path class="cls-7" d="M166.8,579.51c-4.87.55-9.74.55-14.61,0-1.7,0-3.07-1.38-3.07-3.07-.52-4.85-.52-9.72,0-14.61,0-1.7,1.38-3.07,3.07-3.07,4.97-.43,9.85-.45,14.61,0,1.7,0,3.07,1.38,3.07,3.07.62,4.96.64,9.84,0,14.61,0,1.7-1.38,3.07-3.07,3.07Z"/>
    </g>
    <g>
      <rect class="cls-24" x="176.98" y="553.81" width="30.64" height="30.64" rx="2.18" ry="2.18"/>
      <path class="cls-7" d="M199.6,579.51c-4.87.55-9.74.55-14.61,0-1.7,0-3.07-1.38-3.07-3.07-.52-4.85-.52-9.72,0-14.61,0-1.7,1.38-3.07,3.07-3.07,4.97-.43,9.85-.45,14.61,0,1.7,0,3.07,1.38,3.07,3.07.62,4.96.64,9.84,0,14.61,0,1.7-1.38,3.07-3.07,3.07Z"/>
    </g>
    <g>
      <rect class="cls-24" x="209.78" y="553.81" width="30.64" height="30.64" rx="2.18" ry="2.18"/>
      <path class="cls-7" d="M232.4,579.51c-4.87.55-9.74.55-14.61,0-1.7,0-3.07-1.38-3.07-3.07-.52-4.85-.52-9.72,0-14.61,0-1.7,1.38-3.07,3.07-3.07,4.97-.43,9.85-.45,14.61,0,1.7,0,3.07,1.38,3.07,3.07.62,4.96.64,9.84,0,14.61,0,1.7-1.38,3.07-3.07,3.07Z"/>
    </g>
    <g>
      <rect class="cls-24" x="242.58" y="553.81" width="30.64" height="30.64" rx="2.18" ry="2.18"/>
      <path class="cls-7" d="M265.21,579.51c-4.87.55-9.74.55-14.61,0-1.7,0-3.07-1.38-3.07-3.07-.52-4.85-.52-9.72,0-14.61,0-1.7,1.38-3.07,3.07-3.07,4.97-.43,9.85-.45,14.61,0,1.7,0,3.07,1.38,3.07,3.07.62,4.96.64,9.84,0,14.61,0,1.7-1.38,3.07-3.07,3.07Z"/>
    </g>
    <g>
      <rect class="cls-24" x="275.39" y="553.81" width="30.64" height="30.64" rx="2.18" ry="2.18"/>
      <path class="cls-7" d="M298.01,579.51c-4.87.55-9.74.55-14.61,0-1.7,0-3.07-1.38-3.07-3.07-.52-4.85-.52-9.72,0-14.61,0-1.7,1.38-3.07,3.07-3.07,4.97-.43,9.85-.45,14.61,0,1.7,0,3.07,1.38,3.07,3.07.62,4.96.64,9.84,0,14.61,0,1.7-1.38,3.07-3.07,3.07Z"/>
    </g>
    <g>
      <rect class="cls-24" x="308.19" y="553.81" width="30.64" height="30.64" rx="2.18" ry="2.18"/>
      <path class="cls-7" d="M330.82,579.51c-4.87.55-9.74.55-14.61,0-1.7,0-3.07-1.38-3.07-3.07-.52-4.85-.52-9.72,0-14.61,0-1.7,1.38-3.07,3.07-3.07,4.97-.43,9.85-.45,14.61,0,1.7,0,3.07,1.38,3.07,3.07.62,4.96.64,9.84,0,14.61,0,1.7-1.38,3.07-3.07,3.07Z"/>
    </g>
    <g>
      <rect class="cls-24" x="341" y="553.81" width="30.64" height="30.64" rx="2.18" ry="2.18"/>
      <path class="cls-7" d="M363.62,579.51c-4.87.55-9.74.55-14.61,0-1.7,0-3.07-1.38-3.07-3.07-.52-4.85-.52-9.72,0-14.61,0-1.7,1.38-3.07,3.07-3.07,4.97-.43,9.85-.45,14.61,0,1.7,0,3.07,1.38,3.07,3.07.62,4.96.64,9.84,0,14.61,0,1.7-1.38,3.07-3.07,3.07Z"/>
    </g>
    <g>
      <rect class="cls-24" x="373.8" y="553.81" width="30.64" height="30.64" rx="2.18" ry="2.18"/>
      <path class="cls-7" d="M396.42,579.51c-4.87.55-9.74.55-14.61,0-1.7,0-3.07-1.38-3.07-3.07-.52-4.85-.52-9.72,0-14.61,0-1.7,1.38-3.07,3.07-3.07,4.97-.43,9.85-.45,14.61,0,1.7,0,3.07,1.38,3.07,3.07.62,4.96.64,9.84,0,14.61,0,1.7-1.38,3.07-3.07,3.07Z"/>
    </g>
    <g>
      <rect class="cls-24" x="406.6" y="553.81" width="30.64" height="30.64" rx="2.18" ry="2.18"/>
      <path class="cls-7" d="M429.23,579.51c-4.87.55-9.74.55-14.61,0-1.7,0-3.07-1.38-3.07-3.07-.52-4.85-.52-9.72,0-14.61,0-1.7,1.38-3.07,3.07-3.07,4.97-.43,9.85-.45,14.61,0,1.7,0,3.07,1.38,3.07,3.07.62,4.96.64,9.84,0,14.61,0,1.7-1.38,3.07-3.07,3.07Z"/>
    </g>
    <g>
      <rect class="cls-24" x="439.41" y="553.81" width="30.64" height="30.64" rx="2.18" ry="2.18"/>
      <path class="cls-7" d="M462.03,579.51c-4.87.55-9.74.55-14.61,0-1.7,0-3.07-1.38-3.07-3.07-.52-4.85-.52-9.72,0-14.61,0-1.7,1.38-3.07,3.07-3.07,4.97-.43,9.85-.45,14.61,0,1.7,0,3.07,1.38,3.07,3.07.62,4.96.64,9.84,0,14.61,0,1.7-1.38,3.07-3.07,3.07Z"/>
    </g>
    <g>
      <rect class="cls-24" x="472.21" y="553.81" width="30.64" height="30.64" rx="2.18" ry="2.18"/>
      <path class="cls-7" d="M494.84,579.51c-4.87.55-9.74.55-14.61,0-1.7,0-3.07-1.38-3.07-3.07-.52-4.85-.52-9.72,0-14.61,0-1.7,1.38-3.07,3.07-3.07,4.97-.43,9.85-.45,14.61,0,1.7,0,3.07,1.38,3.07,3.07.62,4.96.64,9.84,0,14.61,0,1.7-1.38,3.07-3.07,3.07Z"/>
    </g>
    <rect class="cls-26" x="472.25" y="586.5" width="30.64" height="30.64" rx="2.18" ry="2.18"/>
    <rect class="cls-26" x="504.38" y="553.81" width="69.47" height="30.64" rx="3.28" ry="3.28"/>
    <path class="cls-28" d="M570.84,488.6h-.59c-.14-.01-.27-.04-.41-.04h-42.45c-.14,0-.27.03-.41.04h-8.88c-1.66,0-3.01,1.35-3.01,3.01v24.61c0,1.66,1.35,3.01,3.01,3.01h5.27v28.51c0,2.22,1.8,4.01,4.01,4.01h42.45c2.22,0,4.01-1.8,4.01-4.01v-56.14c0-1.66-1.35-3.01-3.01-3.01Z"/>
    <path class="cls-17" d="M565.24,494.78h-.46c-.11,0-.21-.03-.32-.03h-33.44c-.11,0-.21.02-.32.03h-6.99c-1.31,0-2.37.91-2.37,2.03v16.61c0,1.12,1.06,2.03,2.37,2.03h4.15v19.25c0,1.5,1.42,2.71,3.16,2.71h33.44c1.75,0,3.16-1.21,3.16-2.71v-37.9c0-1.12-1.06-2.03-2.37-2.03Z"/>
    <rect class="cls-30" x="509.78" y="558.34" width="58.68" height="21.59" rx="2.53" ry="2.53"/>
    <rect class="cls-17" x="527.85" y="525.27" width="39.76" height="19.88" rx="2" ry="2"/>
    <rect class="cls-26" x="72.93" y="553.81" width="69.47" height="30.64" rx="3.28" ry="3.28"/>
    <rect class="cls-30" x="78.33" y="558.34" width="58.68" height="21.59" rx="2.53" ry="2.53"/>
    <rect class="cls-26" x="179.18" y="586.46" width="290.86" height="30.64" rx="1.98" ry="1.98"/>
    <rect class="cls-30" x="184.11" y="590.99" width="281.47" height="21.59" rx="2.61" ry="2.61"/>
    <rect class="cls-26" x="72.93" y="521.16" width="55.85" height="30.64" rx="2.94" ry="2.94"/>
    <rect class="cls-30" x="77.27" y="525.69" width="47.17" height="21.59" rx="2.27" ry="2.27"/>
    <rect class="cls-26" x="72.93" y="488.51" width="47.46" height="30.64" rx="2.71" ry="2.71"/>
    <rect class="cls-30" x="76.62" y="493.04" width="40.09" height="21.59" rx="2.09" ry="2.09"/>
    <path class="cls-30" d="M494.88,612.2c-4.87.55-9.74.55-14.61,0-1.7,0-3.07-1.38-3.07-3.07-.52-4.85-.52-9.72,0-14.61,0-1.7,1.38-3.07,3.07-3.07,4.97-.43,9.85-.45,14.61,0,1.7,0,3.07,1.38,3.07,3.07.62,4.96.64,9.84,0,14.61,0,1.7-1.38,3.07-3.07,3.07Z"/>
    <g>
      <rect class="cls-24" x="491.07" y="521.16" width="30.64" height="30.64" rx="2.18" ry="2.18"/>
      <path class="cls-7" d="M513.7,546.86c-4.87.55-9.74.55-14.61,0-1.7,0-3.07-1.38-3.07-3.07-.52-4.85-.52-9.72,0-14.61,0-1.7,1.38-3.07,3.07-3.07,4.97-.43,9.85-.45,14.61,0,1.7,0,3.07,1.38,3.07,3.07.62,4.96.64,9.84,0,14.61,0,1.7-1.38,3.07-3.07,3.07Z"/>
    </g>
    <g>
      <rect class="cls-24" x="499.38" y="455.86" width="30.64" height="30.64" rx="2.18" ry="2.18"/>
      <path class="cls-7" d="M522.01,481.56c-4.87.55-9.74.55-14.61,0-1.7,0-3.07-1.38-3.07-3.07-.52-4.85-.52-9.72,0-14.61,0-1.7,1.38-3.07,3.07-3.07,4.97-.43,9.85-.45,14.61,0,1.7,0,3.07,1.38,3.07,3.07.62,4.96.64,9.84,0,14.61,0,1.7-1.38,3.07-3.07,3.07Z"/>
    </g>
    <g>
      <rect class="cls-24" x="640.41" y="381.15" width="30.64" height="30.64" rx="2.18" ry="2.18"/>
      <path class="cls-7" d="M663.03,406.84c-4.87.55-9.74.55-14.61,0-1.7,0-3.07-1.38-3.07-3.07-.52-4.85-.52-9.72,0-14.61,0-1.7,1.38-3.07,3.07-3.07,4.97-.43,9.85-.45,14.61,0,1.7,0,3.07,1.38,3.07,3.07.62,4.96.64,9.84,0,14.61,0,1.7-1.38,3.07-3.07,3.07Z"/>
    </g>
    <g>
      <rect class="cls-24" x="640.37" y="446.65" width="30.64" height="30.64" rx="2.18" ry="2.18"/>
      <path class="cls-7" d="M662.99,472.35c-4.87.55-9.74.55-14.61,0-1.7,0-3.07-1.38-3.07-3.07-.52-4.85-.52-9.72,0-14.61,0-1.7,1.38-3.07,3.07-3.07,4.97-.43,9.85-.45,14.61,0,1.7,0,3.07,1.38,3.07,3.07.62,4.96.64,9.84,0,14.61,0,1.7-1.38,3.07-3.07,3.07Z"/>
    </g>
    <g>
      <rect class="cls-24" x="607.2" y="488.51" width="30.64" height="30.64" rx="2.18" ry="2.18"/>
      <path class="cls-7" d="M629.83,514.21c-4.87.55-9.74.55-14.61,0-1.7,0-3.07-1.38-3.07-3.07-.52-4.85-.52-9.72,0-14.61,0-1.7,1.38-3.07,3.07-3.07,4.97-.43,9.85-.45,14.61,0,1.7,0,3.07,1.38,3.07,3.07.62,4.96.64,9.84,0,14.61,0,1.7-1.38,3.07-3.07,3.07Z"/>
    </g>
    <g>
      <rect class="cls-24" x="607.2" y="521.16" width="30.64" height="30.64" rx="2.18" ry="2.18"/>
      <path class="cls-7" d="M629.83,546.86c-4.87.55-9.74.55-14.61,0-1.7,0-3.07-1.38-3.07-3.07-.52-4.85-.52-9.72,0-14.61,0-1.7,1.38-3.07,3.07-3.07,4.97-.43,9.85-.45,14.61,0,1.7,0,3.07,1.38,3.07,3.07.62,4.96.64,9.84,0,14.61,0,1.7-1.38,3.07-3.07,3.07Z"/>
    </g>
    <g>
      <rect class="cls-24" x="607.2" y="553.81" width="30.64" height="30.64" rx="2.18" ry="2.18"/>
      <path class="cls-7" d="M629.83,579.51c-4.87.55-9.74.55-14.61,0-1.7,0-3.07-1.38-3.07-3.07-.52-4.85-.52-9.72,0-14.61,0-1.7,1.38-3.07,3.07-3.07,4.97-.43,9.85-.45,14.61,0,1.7,0,3.07,1.38,3.07,3.07.62,4.96.64,9.84,0,14.61,0,1.7-1.38,3.07-3.07,3.07Z"/>
    </g>
    <g>
      <rect class="cls-24" x="607.2" y="586.46" width="30.64" height="30.64" rx="2.18" ry="2.18"/>
      <path class="cls-7" d="M629.83,612.16c-4.87.55-9.74.55-14.61,0-1.7,0-3.07-1.38-3.07-3.07-.52-4.85-.52-9.72,0-14.61,0-1.7,1.38-3.07,3.07-3.07,4.97-.43,9.85-.45,14.61,0,1.7,0,3.07,1.38,3.07,3.07.62,4.96.64,9.84,0,14.61,0,1.7-1.38,3.07-3.07,3.07Z"/>
    </g>
    <g>
      <rect class="cls-24" x="639.97" y="586.5" width="30.64" height="30.64" rx="2.18" ry="2.18"/>
      <path class="cls-7" d="M662.59,612.2c-4.87.55-9.74.55-14.61,0-1.7,0-3.07-1.38-3.07-3.07-.52-4.85-.52-9.72,0-14.61,0-1.7,1.38-3.07,3.07-3.07,4.97-.43,9.85-.45,14.61,0,1.7,0,3.07,1.38,3.07,3.07.62,4.96.64,9.84,0,14.61,0,1.7-1.38,3.07-3.07,3.07Z"/>
    </g>
    <g>
      <rect class="cls-24" x="639.97" y="553.81" width="30.64" height="30.64" rx="2.18" ry="2.18"/>
      <path class="cls-7" d="M662.59,579.51c-4.87.55-9.74.55-14.61,0-1.7,0-3.07-1.38-3.07-3.07-.52-4.85-.52-9.72,0-14.61,0-1.7,1.38-3.07,3.07-3.07,4.97-.43,9.85-.45,14.61,0,1.7,0,3.07,1.38,3.07,3.07.62,4.96.64,9.84,0,14.61,0,1.7-1.38,3.07-3.07,3.07Z"/>
    </g>
    <g>
      <rect class="cls-24" x="640.01" y="521.12" width="30.64" height="30.64" rx="2.18" ry="2.18"/>
      <path class="cls-7" d="M662.63,546.82c-4.87.55-9.74.55-14.61,0-1.7,0-3.07-1.38-3.07-3.07-.52-4.85-.52-9.72,0-14.61,0-1.7,1.38-3.07,3.07-3.07,4.97-.43,9.85-.45,14.61,0,1.7,0,3.07,1.38,3.07,3.07.62,4.96.64,9.84,0,14.61,0,1.7-1.38,3.07-3.07,3.07Z"/>
    </g>
    <g>
      <rect class="cls-24" x="640.01" y="488.55" width="30.64" height="30.64" rx="2.18" ry="2.18"/>
      <path class="cls-7" d="M662.63,514.25c-4.87.55-9.74.55-14.61,0-1.7,0-3.07-1.38-3.07-3.07-.52-4.85-.52-9.72,0-14.61,0-1.7,1.38-3.07,3.07-3.07,4.97-.43,9.85-.45,14.61,0,1.7,0,3.07,1.38,3.07,3.07.62,4.96.64,9.84,0,14.61,0,1.7-1.38,3.07-3.07,3.07Z"/>
    </g>
    <g>
      <rect class="cls-24" x="672.86" y="488.55" width="30.64" height="30.64" rx="2.18" ry="2.18"/>
      <path class="cls-7" d="M695.48,514.25c-4.87.55-9.74.55-14.61,0-1.7,0-3.07-1.38-3.07-3.07-.52-4.85-.52-9.72,0-14.61,0-1.7,1.38-3.07,3.07-3.07,4.97-.43,9.85-.45,14.61,0,1.7,0,3.07,1.38,3.07,3.07.62,4.96.64,9.84,0,14.61,0,1.7-1.38,3.07-3.07,3.07Z"/>
    </g>
    <g>
      <rect class="cls-24" x="672.86" y="521.12" width="30.64" height="30.64" rx="2.18" ry="2.18"/>
      <path class="cls-7" d="M695.48,546.82c-4.87.55-9.74.55-14.61,0-1.7,0-3.07-1.38-3.07-3.07-.52-4.85-.52-9.72,0-14.61,0-1.7,1.38-3.07,3.07-3.07,4.97-.43,9.85-.45,14.61,0,1.7,0,3.07,1.38,3.07,3.07.62,4.96.64,9.84,0,14.61,0,1.7-1.38,3.07-3.07,3.07Z"/>
    </g>
    <g>
      <rect class="cls-24" x="672.86" y="553.69" width="30.64" height="30.64" rx="2.18" ry="2.18"/>
      <path class="cls-7" d="M695.48,579.39c-4.87.55-9.74.55-14.61,0-1.7,0-3.07-1.38-3.07-3.07-.52-4.85-.52-9.72,0-14.61,0-1.7,1.38-3.07,3.07-3.07,4.97-.43,9.85-.45,14.61,0,1.7,0,3.07,1.38,3.07,3.07.62,4.96.64,9.84,0,14.61,0,1.7-1.38,3.07-3.07,3.07Z"/>
    </g>
    <rect class="cls-28" x="672.86" y="586.55" width="30.64" height="30.64" rx="2.18" ry="2.18"/>
    <path class="cls-17" d="M695.48,612.24c-4.87.55-9.74.55-14.61,0-1.7,0-3.07-1.38-3.07-3.07-.52-4.85-.52-9.72,0-14.61,0-1.7,1.38-3.07,3.07-3.07,4.97-.43,9.85-.45,14.61,0,1.7,0,3.07,1.38,3.07,3.07.62,4.96.64,9.84,0,14.61,0,1.7-1.38,3.07-3.07,3.07Z"/>
    <g>
      <rect class="cls-24" x="673.53" y="413.9" width="30.64" height="30.64" rx="2.18" ry="2.18"/>
      <path class="cls-7" d="M696.15,439.6c-4.87.55-9.74.55-14.61,0-1.7,0-3.07-1.38-3.07-3.07-.52-4.85-.52-9.72,0-14.61,0-1.7,1.38-3.07,3.07-3.07,4.97-.43,9.85-.45,14.61,0,1.7,0,3.07,1.38,3.07,3.07.62,4.96.64,9.84,0,14.61,0,1.7-1.38,3.07-3.07,3.07Z"/>
    </g>
    <g>
      <rect class="cls-24" x="607.2" y="413.94" width="30.64" height="30.64" rx="2.18" ry="2.18"/>
      <path class="cls-7" d="M629.83,439.64c-4.87.55-9.74.55-14.61,0-1.7,0-3.07-1.38-3.07-3.07-.52-4.85-.52-9.72,0-14.61,0-1.7,1.38-3.07,3.07-3.07,4.97-.43,9.85-.45,14.61,0,1.7,0,3.07,1.38,3.07,3.07.62,4.96.64,9.84,0,14.61,0,1.7-1.38,3.07-3.07,3.07Z"/>
    </g>
    <rect class="cls-26" x="640.37" y="413.9" width="30.64" height="30.64" rx="2.18" ry="2.18"/>
    <path class="cls-30" d="M662.99,439.6c-4.87.55-9.74.55-14.61,0-1.7,0-3.07-1.38-3.07-3.07-.52-4.85-.52-9.72,0-14.61,0-1.7,1.38-3.07,3.07-3.07,4.97-.43,9.85-.45,14.61,0,1.7,0,3.07,1.38,3.07,3.07.62,4.96.64,9.84,0,14.61,0,1.7-1.38,3.07-3.07,3.07Z"/>
    <g>
      <rect class="cls-24" x="531.52" y="455.86" width="42.33" height="30.64" rx="2.56" ry="2.56"/>
      <path class="cls-7" d="M564.32,481.52c-7.68.55-15.35.55-23.03,0-2.67,0-4.84-1.38-4.84-3.07-.82-4.85-.82-9.72,0-14.61,0-1.7,2.17-3.07,4.84-3.07,7.84-.43,15.52-.45,23.03,0,2.67,0,4.84,1.38,4.84,3.07.97,4.96,1.01,9.84,0,14.61,0,1.7-2.17,3.07-4.84,3.07Z"/>
    </g>
    <rect class="cls-8" x="743.88" y="550.74" width="205.31" height="47.97"/>
    <rect class="cls-25" x="760.25" y="555.26" width="61.27" height="8.89"/>
    <rect class="cls-22" x="760.25" y="570.18" width="61.27" height="8.89"/>
    <rect class="cls-8" x="743.88" y="493.12" width="205.31" height="51.43"/>
    <rect class="cls-22" x="774.1" y="524.65" width="146.89" height="10.66"/>
    <rect class="cls-22" x="910.38" y="582.21" width="17.67" height="8.53"/>
    <path class="cls-12" d="M820.48,585.02v6.82h-59.2v-6.82h59.2M821.52,583.99h-61.27v8.89h61.27v-8.89h0Z"/>
    <polyline class="cls-2" points="821.15 559.88 919.33 559.88 919.33 578.99"/>
    <g>
      <rect class="cls-25" x="881.26" y="556.63" width="24.82" height="17.27"/>
      <path class="cls-12" d="M905.55,557.15v16.23h-23.77v-16.23h23.77M906.6,556.1h-25.86v18.32h25.86v-18.32h0Z"/>
    </g>
    <polyline class="cls-4" points="821.15 574.2 839.97 574.2 839.97 583.77 858.68 583.77"/>
    <line class="cls-1" x1="821.15" y1="588.88" x2="858.68" y2="588.88"/>
    <path class="cls-12" d="M930.49,579.53v14.25h-71.37v-14.25h71.37M931.27,578.75h-72.93v15.82h72.93v-15.82h0Z"/>
    <path class="cls-12" d="M906.52,585.94v4.39h-42.42v-4.39h42.42M907.29,585.17h-43.97v5.94h43.97v-5.94h0Z"/>
    <rect class="cls-8" x="70.72" y="401.42" width="505.76" height="40.56"/>
    <rect class="cls-10" x="743.88" y="424.73" width="205.31" height="68.39"/>
    <rect class="cls-15" x="769.12" y="432.26" width="154.35" height="58.11" rx="2.53" ry="2.53"/>
    <rect class="cls-16" x="827.73" y="466.78" width="39.21" height="22.06" rx="1.01" ry="1.01"/>
    <circle class="cls-8" cx="882.2" cy="476.89" r="8.87"/>
    <circle class="cls-8" cx="811.19" cy="476.89" r="8.87"/>
    <circle class="cls-23" cx="811.19" cy="476.89" r="2.37"/>
    <circle class="cls-23" cx="882.32" cy="476.89" r="2.37"/>
    <polyline class="cls-5" points="811.19 494.84 811.19 506 884.03 506 884.03 494.84"/>
    <line class="cls-5" x1="807.75" y1="500.61" x2="814.62" y2="500.61"/>
    <line class="cls-5" x1="847.51" y1="511.5" x2="847.51" y2="494.84"/>
    <line class="cls-5" x1="864.99" y1="506" x2="864.99" y2="494.84"/>
    <line class="cls-5" x1="861.49" y1="505.71" x2="861.49" y2="502.3"/>
    <line class="cls-5" x1="858" y1="505.71" x2="858" y2="502.3"/>
    <line class="cls-5" x1="854.5" y1="505.71" x2="854.5" y2="502.3"/>
    <line class="cls-5" x1="851" y1="505.71" x2="851" y2="502.3"/>
    <line class="cls-5" x1="844.05" y1="505.71" x2="844.05" y2="502.3"/>
    <line class="cls-5" x1="840.59" y1="505.71" x2="840.59" y2="502.3"/>
    <line class="cls-5" x1="837.13" y1="505.71" x2="837.13" y2="502.3"/>
    <line class="cls-5" x1="833.66" y1="505.71" x2="833.66" y2="502.3"/>
    <line class="cls-5" x1="830.2" y1="506" x2="830.2" y2="494.84"/>
    <line class="cls-5" x1="880.6" y1="500.61" x2="887.47" y2="500.61"/>
    <path class="cls-15" d="M746.27,414.84h200.52c1.32,0,2.39,1.07,2.39,2.39v7.5h-205.31v-7.5c0-1.32,1.07-2.39,2.39-2.39Z"/>
    <rect class="cls-3" x="774.86" y="394.49" width="43.49" height="13.57" rx=".73" ry=".73"/>
    <rect class="cls-13" x="807.54" y="395.75" width="5.07" height="11.05"/>
    <rect class="cls-8" x="782.08" y="395.75" width="5.07" height="11.05"/>
    <rect class="cls-8" x="787.68" y="395.75" width="5.07" height="11.05"/>
    <rect class="cls-8" x="793.16" y="395.75" width="5.07" height="11.05"/>
    <rect class="cls-19" x="489.05" y="422.02" width="35.33" height="11.94" rx="1.03" ry="1.03"/>
    <path class="cls-20" d="M492.85,423.74h8.08v3.46h-9.91v-1.64c0-1.01.82-1.83,1.83-1.83Z"/>
    <path class="cls-20" d="M491.02,428.45h9.91v3.46h-8.08c-1.01,0-1.83-.82-1.83-1.83v-1.64h0Z"/>
    <path class="cls-29" d="M512.75,423.74h9.91v3.46h-8.08c-1.01,0-1.83-.82-1.83-1.83v-1.64h0Z" transform="translate(1035.4 850.95) rotate(-180)"/>
    <path class="cls-29" d="M514.58,428.45h8.08v3.46h-9.91v-1.64c0-1.01.82-1.83,1.83-1.83Z" transform="translate(1035.4 860.36) rotate(-180)"/>
    <rect class="cls-27" x="501.86" y="423.74" width="9.91" height="3.46"/>
    <rect class="cls-27" x="501.86" y="428.45" width="9.91" height="3.46"/>
    <g>
      <rect class="cls-6" x="49.01" y="362.25" width="2.94" height="11.38"/>
      <rect class="cls-6" x="486.12" y="362.25" width="2.93" height="11.38"/>
      <rect class="cls-6" x="473.98" y="362.25" width="2.92" height="11.38"/>
      <rect class="cls-6" x="461.83" y="362.25" width="2.93" height="11.38"/>
      <rect class="cls-6" x="449.69" y="362.25" width="2.94" height="11.38"/>
      <rect class="cls-6" x="437.55" y="362.25" width="2.93" height="11.38"/>
      <rect class="cls-6" x="425.4" y="362.25" width="2.94" height="11.38"/>
      <rect class="cls-6" x="413.27" y="362.25" width="2.93" height="11.38"/>
      <rect class="cls-6" x="401.12" y="362.25" width="2.93" height="11.38"/>
      <rect class="cls-6" x="388.98" y="362.25" width="2.93" height="11.38"/>
      <rect class="cls-6" x="376.84" y="362.25" width="2.93" height="11.38"/>
      <rect class="cls-6" x="364.7" y="362.25" width="2.92" height="11.38"/>
      <rect class="cls-6" x="352.55" y="362.25" width="2.93" height="11.38"/>
      <rect class="cls-6" x="340.42" y="362.25" width="2.92" height="11.38"/>
      <rect class="cls-6" x="328.27" y="362.25" width="2.93" height="11.38"/>
      <rect class="cls-6" x="316.13" y="362.25" width="2.93" height="11.38"/>
      <rect class="cls-6" x="303.99" y="362.25" width="2.93" height="11.38"/>
      <rect class="cls-6" x="291.84" y="362.25" width="2.94" height="11.38"/>
      <rect class="cls-6" x="279.7" y="362.25" width="2.93" height="11.38"/>
      <rect class="cls-6" x="595.39" y="362.25" width="2.94" height="11.38"/>
      <rect class="cls-6" x="583.25" y="362.25" width="2.93" height="11.38"/>
      <rect class="cls-6" x="571.1" y="362.25" width="2.94" height="11.38"/>
      <rect class="cls-6" x="558.97" y="362.25" width="2.93" height="11.38"/>
      <rect class="cls-6" x="194.71" y="362.25" width="2.94" height="11.38"/>
      <rect class="cls-6" x="182.57" y="362.25" width="2.93" height="11.38"/>
      <rect class="cls-6" x="170.42" y="362.25" width="2.94" height="11.38"/>
      <rect class="cls-6" x="158.29" y="362.25" width="2.93" height="11.38"/>
      <rect class="cls-6" x="146.14" y="362.25" width="2.94" height="11.38"/>
      <rect class="cls-6" x="134" y="362.25" width="2.93" height="11.38"/>
      <rect class="cls-6" x="121.87" y="362.25" width="2.92" height="11.38"/>
      <rect class="cls-6" x="109.72" y="362.25" width="2.93" height="11.38"/>
      <rect class="cls-6" x="97.58" y="362.25" width="2.92" height="11.38"/>
      <rect class="cls-6" x="85.44" y="362.25" width="2.93" height="11.38"/>
      <rect class="cls-6" x="73.29" y="362.25" width="2.94" height="11.38"/>
      <rect class="cls-6" x="61.15" y="362.25" width="2.93" height="11.38"/>
      <rect class="cls-6" x="546.82" y="362.25" width="2.94" height="11.38"/>
      <rect class="cls-6" x="534.68" y="362.25" width="2.93" height="11.38"/>
      <rect class="cls-6" x="522.54" y="362.25" width="2.94" height="11.38"/>
      <rect class="cls-6" x="510.4" y="362.25" width="2.93" height="11.38"/>
      <rect class="cls-6" x="498.26" y="362.25" width="2.92" height="11.38"/>
      <rect class="cls-6" x="898.93" y="362.25" width="2.93" height="11.38"/>
      <rect class="cls-6" x="886.79" y="362.25" width="2.94" height="11.38"/>
      <rect class="cls-6" x="874.65" y="362.25" width="2.93" height="11.38"/>
      <rect class="cls-6" x="862.51" y="362.25" width="2.92" height="11.38"/>
      <rect class="cls-6" x="850.37" y="362.25" width="2.93" height="11.38"/>
      <rect class="cls-6" x="838.23" y="362.25" width="2.92" height="11.38"/>
      <rect class="cls-6" x="826.08" y="362.25" width="2.93" height="11.38"/>
      <rect class="cls-6" x="813.94" y="362.25" width="2.94" height="11.38"/>
      <rect class="cls-6" x="801.8" y="362.25" width="2.93" height="11.38"/>
      <rect class="cls-6" x="777.52" y="362.25" width="2.93" height="11.38"/>
      <rect class="cls-6" x="753.23" y="362.25" width="2.93" height="11.38"/>
      <rect class="cls-6" x="728.95" y="362.25" width="2.93" height="11.38"/>
      <rect class="cls-6" x="704.67" y="362.25" width="2.93" height="11.38"/>
      <rect class="cls-6" x="680.38" y="362.25" width="2.93" height="11.38"/>
      <rect class="cls-6" x="656.1" y="362.25" width="2.93" height="11.38"/>
      <rect class="cls-6" x="631.82" y="362.25" width="2.93" height="11.38"/>
      <rect class="cls-6" x="789.65" y="362.25" width="2.94" height="11.38"/>
      <rect class="cls-6" x="765.37" y="362.25" width="2.94" height="11.38"/>
      <rect class="cls-6" x="741.09" y="362.25" width="2.94" height="11.38"/>
      <rect class="cls-6" x="716.8" y="362.25" width="2.94" height="11.38"/>
      <rect class="cls-6" x="692.52" y="362.25" width="2.94" height="11.38"/>
      <rect class="cls-6" x="668.24" y="362.25" width="2.94" height="11.38"/>
      <rect class="cls-6" x="643.95" y="362.25" width="2.94" height="11.38"/>
      <rect class="cls-6" x="619.68" y="362.25" width="2.92" height="11.38"/>
      <rect class="cls-6" x="607.53" y="362.25" width="2.93" height="11.38"/>
      <rect class="cls-6" x="947.5" y="362.25" width="2.93" height="11.38"/>
      <rect class="cls-6" x="935.35" y="362.25" width="2.94" height="11.38"/>
      <rect class="cls-6" x="923.22" y="362.25" width="2.93" height="11.38"/>
      <rect class="cls-6" x="911.07" y="362.25" width="2.94" height="11.38"/>
      <rect class="cls-6" x="267.56" y="362.25" width="2.94" height="11.38"/>
      <rect class="cls-6" x="255.43" y="362.25" width="2.92" height="11.38"/>
      <rect class="cls-6" x="243.27" y="362.25" width="2.94" height="11.38"/>
      <rect class="cls-6" x="231.14" y="362.25" width="2.93" height="11.38"/>
      <rect class="cls-6" x="218.99" y="362.25" width="2.94" height="11.38"/>
      <rect class="cls-6" x="206.85" y="362.25" width="2.93" height="11.38"/>
    </g>
    <circle class="cls-9" cx="552.87" cy="413.59" r="3.28"/>
    <circle class="cls-19" cx="551.84" cy="412.56" r=".93"/>
  </g>
  <g id="TEXT">
    <g>
      <path class="cls-14" d="M98.1,431.7c-.18-.19-.3-.56-.33-1.02-.06-1.65-.09-2.33-.15-3.44-.12-2.04-.6-2.74-1.72-2.74h-.64v7.2h-4.81v-18.42h6.71c3.45,0,5.44,1.67,5.44,4.7,0,2.59-.79,4.19-3.36,4.87v.07c2.51.44,3.02,1.72,3.02,4.12v1.38c0,1.72.18,2.71.45,3.27h-4.63ZM96.22,416.29h-.97v5.16h.91c1.24,0,1.72-.75,1.72-2.81,0-1.87-.67-2.35-1.66-2.35Z"/>
      <path class="cls-14" d="M115.57,427.12c0,3.46-2.87,4.87-6.11,4.87s-6.2-1.41-6.2-4.87v-9.18c0-3.61,2.93-4.97,6.2-4.97s6.11,1.31,6.11,4.97v9.18ZM110.74,417.06c0-.75-.54-1.19-1.3-1.19-.82,0-1.33.41-1.33,1.19v10.9c0,.78.54,1.19,1.36,1.19s1.27-.39,1.27-1.16v-10.93Z"/>
      <path class="cls-14" d="M134.2,431.7h-4.81v-10.03h-.15l-2.51,10.03h-3.02l-2.57-9.96h-.18v9.96h-4.2v-18.42h6.11l2.51,10.61h.15l2.72-10.61h5.96v18.42Z"/>
      <path class="cls-14" d="M153.01,431.7h-4.81v-10.03h-.15l-2.51,10.03h-3.02l-2.57-9.96h-.18v9.96h-4.2v-18.42h6.11l2.51,10.61h.15l2.72-10.61h5.96v18.42Z"/>
      <path class="cls-14" d="M166.01,427.22c0,2.91-2.6,4.77-6.08,4.77-3.69,0-5.72-1.62-5.72-4.58,0-1.02.09-1.74.21-2.23l3.6.19c-.09.36-.15.97-.15,1.77,0,1.53.73,1.96,1.75,1.96s1.6-.68,1.6-1.53v-.27c0-1.33-.79-2.25-3.21-4.12-2.42-1.84-3.75-3.39-3.75-5.45v-.17c0-2.3,2.15-4.6,6.02-4.6s5.78,2.06,5.78,4.58c0,.75-.06,1.53-.18,2.21l-3.54-.19c.09-.41.18-1.09.18-1.74,0-1.58-.79-1.94-1.84-1.94s-1.63.48-1.63,1.38v.12c0,1.02.67,1.89,2.69,3.34,2.51,1.79,4.26,3.8,4.26,6.18v.31Z"/>
      <path class="cls-14" d="M178.89,416.29h-3.93v15.41h-4.84v-15.41h-3.9v-3h12.67v3Z"/>
      <path class="cls-14" d="M186.94,431.7c-.18-.19-.3-.56-.33-1.02-.06-1.65-.09-2.33-.15-3.44-.12-2.04-.6-2.74-1.72-2.74h-.64v7.2h-4.81v-18.42h6.71c3.45,0,5.44,1.67,5.44,4.7,0,2.59-.79,4.19-3.36,4.87v.07c2.51.44,3.02,1.72,3.02,4.12v1.38c0,1.72.18,2.71.45,3.27h-4.63ZM185.06,416.29h-.97v5.16h.91c1.24,0,1.72-.75,1.72-2.81,0-1.87-.67-2.35-1.66-2.35Z"/>
      <path class="cls-14" d="M204.32,431.7h-4.9l-.36-2.3h-3.48l-.33,2.3h-4.11l3.81-18.42h5.5l3.87,18.42ZM198.52,426.39l-1.15-8.04h-.18l-1.21,8.04h2.54Z"/>
      <path class="cls-14" d="M216.81,427.24c0,3.05-2.21,4.46-5.96,4.46h-6.32v-18.42h6.2c3.99,0,6.08,1.62,6.08,4.87v9.09ZM212,418.06c0-1.31-.42-1.77-1.78-1.77h-.88v12.41h.88c1.18,0,1.78-.39,1.78-1.36v-9.28Z"/>
    </g>
    <g>
      <path class="cls-19" d="M426.46,422.34l2.1,9.37,2.08-9.59c.12-.54.32-.82.59-.82-.01,0,.21.04.67.11.14.02.29.04.45.04.19,0,.46-.03.81-.1.35-.07.62-.1.81-.1.21,0,.38.07.52.21.14.14.2.32.2.53,0,.18-.06.33-.18.46-.12.13-.26.19-.44.19-.07,0-.17-.02-.28-.05-.16-.05-.27-.08-.33-.08-.3,0-.48.47-.54,1.41,0-.01,0,.6,0,1.84v5.37c.06.93.24,1.39.54,1.39.02,0,.14-.01.33-.04.06-.02.15-.04.28-.04.17,0,.32.06.44.18.12.12.18.26.18.44,0,.21-.07.39-.2.53-.14.14-.31.21-.52.21-.2,0-.49-.04-.86-.11-.38-.07-.67-.11-.86-.11-.19,0-.44.04-.77.11s-.58.11-.75.11c-.16,0-.3-.07-.42-.21-.12-.14-.18-.31-.18-.5,0-.43.22-.65.67-.65h.25s.08.06.15.06c.32,0,.49-.28.51-.84l.04-.78v-8.55l-2.42,11.12c-.07.33-.32.5-.74.5-.45,0-.71-.17-.78-.5l-2.45-10.95v6.66c0,1.48.03,2.4.09,2.78s.21.57.45.57c.06,0,.15,0,.28-.03s.22-.03.28-.03c.41,0,.61.22.61.65,0,.47-.21.71-.63.71-.14,0-.36-.04-.67-.11-.31-.07-.61-.11-.89-.11-.2,0-.49.04-.87.11s-.68.11-.87.11c-.47,0-.71-.25-.71-.74,0-.41.2-.61.59-.61.12,0,.22.01.28.04.2.02.31.04.33.04.24,0,.38-.18.45-.55.06-.37.09-1.26.09-2.69v-3.42c0-1.43-.03-2.32-.09-2.69-.06-.37-.21-.55-.45-.55-.02,0-.14.01-.33.04-.06.02-.16.04-.28.04-.4,0-.59-.2-.59-.61,0-.21.07-.39.2-.53.14-.14.3-.21.5-.21.09,0,.29.02.59.06.11.02.33.04.65.04.17,0,.42-.02.74-.06s.56-.06.71-.06c.22,0,.38.12.48.35.02.07.08.29.17.65Z"/>
      <path class="cls-19" d="M439.62,424.07v5.22c0,1.43.03,2.32.09,2.69s.21.55.45.55c.04,0,.14-.01.32-.04.07-.02.17-.04.3-.04.4,0,.6.2.6.61,0,.21-.07.39-.2.53-.14.14-.3.21-.5.21-.11,0-.4-.04-.87-.13-.33-.06-.63-.09-.87-.09-.2,0-.49.04-.86.11s-.65.11-.83.11c-.2,0-.37-.07-.5-.21-.14-.14-.2-.32-.2-.53,0-.41.2-.61.61-.61.11,0,.2.01.28.04.17.02.28.04.33.04.24,0,.38-.18.44-.55s.08-1.26.08-2.69v-4.38c0-1.04-.05-1.69-.15-1.96-.1-.26-.36-.39-.78-.39s-.73.06-.89.2c-.16.13-.24.38-.24.73,0,.12.01.45.04.97.02.52.04.87.04,1.04,0,.66-.22.99-.65.99-.41,0-.61-.27-.61-.81,0,.01,0-.18.02-.57.02-.59.03-1.05.03-1.37,0-.2-.01-.56-.04-1.07-.01-.26-.02-.49-.02-.7,0-.43.19-.65.56-.65.11,0,.38.02.81.06s1.09.06,1.96.06h1.63c.53-.02.91-.04,1.15-.07.42-.04.81-.06,1.17-.06s.56.21.56.63c0,.07,0,.28-.02.61-.02.51-.03.95-.03,1.32,0,.29.01.69.04,1.21.01.26.02.45.02.58,0,.56-.22.84-.65.84-.41,0-.61-.31-.61-.93,0-.04,0-.16.02-.36.01-.2.02-.37.02-.49v-1.12c0-.38-.07-.65-.21-.8-.14-.15-.39-.22-.74-.22-.51,0-.83.14-.95.41-.06.15-.09.51-.09,1.1Z"/>
      <path class="cls-19" d="M451.56,424.52c0,1.54-.64,2.5-1.92,2.88.54.21.9.45,1.06.72s.26.77.3,1.52v.86l.04.76c.02.85.22,1.28.58,1.28.06,0,.17-.02.32-.06s.23-.06.24-.06c.4,0,.6.22.6.65,0,.47-.26.71-.78.71h-.19l-.45-.06-.48-.02c-.46-.01-.77-.23-.93-.64-.16-.42-.25-1.24-.28-2.46v-.87c-.01-.66-.15-1.1-.41-1.33-.26-.23-.76-.34-1.49-.34h-.15l-.93.04c-.17.01-.29.06-.33.15-.05.09-.07.29-.07.61v.45c0,1.43.03,2.32.09,2.69s.21.55.45.55c.02,0,.14-.02.33-.06.06-.04.15-.06.28-.06.4,0,.59.2.59.61,0,.21-.07.39-.2.53-.14.14-.3.21-.5.21-.17,0-.46-.03-.85-.09-.4-.06-.7-.09-.91-.09-.2,0-.48.03-.86.09-.37.06-.65.09-.84.09-.2,0-.36-.07-.49-.21-.13-.14-.2-.32-.2-.53,0-.41.2-.61.59-.61.12,0,.22.02.28.06.2.04.31.06.33.06.24,0,.38-.18.45-.55.06-.37.09-1.26.09-2.69v-3.54c0-1.44-.03-2.34-.09-2.71-.06-.37-.21-.55-.45-.55-.06,0-.16.02-.3.06-.14.04-.24.06-.32.06-.4,0-.59-.21-.59-.63,0-.48.24-.73.71-.73.2,0,.5.03.9.1.4.07.71.1.92.1.32,0,.81-.02,1.45-.06.64-.04,1.13-.06,1.45-.06.94,0,1.67.28,2.18.83.51.55.77,1.34.77,2.37ZM446.28,426.34c0,.27.13.42.39.43l.37.02s.1.02.19.02c.06,0,.17,0,.32-.02.56-.04,1-.07,1.34-.11.4-.1.71-.33.95-.71.24-.37.35-.82.35-1.36,0-1.41-.72-2.12-2.16-2.12-.64,0-1.1.07-1.36.2s-.39.37-.39.69v2.96Z"/>
    </g>
    <g>
      <path class="cls-19" d="M463.56,423.52v7.73l-1.71,2.22h-3.93l-1.23-1.6,1.37-1.78.82,1.07h2.01l.67-.87v-2.43l-.86,1.12h-2.64l-1.51-1.95v-3.5l1.64-2.13h3.72l1.64,2.13ZM461.57,425.74v-1.26l-.6-.78h-1.81l-.6.78v1.58l.52.67h1.72l.77-.99Z"/>
      <path class="cls-19" d="M471.97,431.15v2.31h-6.57v-2.31h2.29v-7.14l-1.97,1.56-.93-1.97,2.79-2.22h2.11v9.77h2.29Z"/>
      <path class="cls-19" d="M480.02,423.52v7.73l-1.71,2.22h-3.93l-1.23-1.6,1.37-1.78.82,1.07h2.01l.67-.87v-2.43l-.86,1.12h-2.64l-1.51-1.95v-3.5l1.64-2.13h3.72l1.64,2.13ZM478.03,425.74v-1.26l-.6-.78h-1.81l-.6.78v1.58l.52.67h1.72l.77-.99Z"/>
    </g>
  </g>
</svg>