<svg xmlns="http://www.w3.org/2000/svg" viewBox="0 0 1000 1000"><defs><style>.cls-1{fill:#5e5f5f}.cls-2{fill:#d8c9be}.cls-3{fill:#403d3f}.cls-6{fill:#efeee9}.cls-7{fill:#e0dfe5}.cls-10{fill:#f68d36}.cls-11{fill:#3d393a}.cls-12{fill:#9f2d22}.cls-14{fill:#787678}.cls-15{fill:#282828}.cls-17{fill:#676163}.cls-18{fill:#7d8390}.cls-19{fill:#cfc9c5}.cls-20{fill:#bcb8b5}.cls-23{fill:#e8e7e2}.cls-25{fill:#1c1517}.cls-26{fill:#332d2e}.cls-27{fill:#ac9789}.cls-29{fill:#dcdbdb}</style></defs><path id="Joystick" d="M182.8 989.94h-9.15c-3.38 0-6.17-2.65-6.34-6.03l-4.03-80.02h15.19z" class="cls-2"/><g id="Words"><path d="M234.95 13.35h-10.03l-29.16 61.06v92.66l1.67 18.84 10.48 421.51-58.33 303.04 3.28 68.96h23.15l16.98-136.1 38.5-147.03 11.66-133.37z" style="fill:#e5e2d6"/><path d="M765.05 13.1h10.03l29.16 61.07v92.66l-1.67 18.83-10.48 421.52 58.33 303.04-3.28 68.96h-23.15l-16.98-136.1-38.5-147.04-11.66-133.37z" style="fill:#aa968c"/><path d="M227.33 813.02h.01c-.01.05-.01.1-.01.15z" class="cls-7"/><path d="M227.33 813.02h.01c-.01.05-.01.1-.01.15z" class="cls-18"/><path d="m827.42 878.14-20.41-104.07H465.72v.25H192.99l-20.41 104.07h361.7v-.25z" class="cls-7"/><path d="m660.15 872 119.11.19c4.53 0 7.92-4.15 7-8.59l-12.49-74.61a14.106 14.106 0 0 0-13.72-11.24l-109.03-.76c-5.15-.04-9.16 4.46-8.53 9.57l3.96 73.3c.85 6.92 6.72 12.13 13.69 12.14Z" class="cls-18"/><path d="M807.01 774.07H465.72v-36.7h334.66l1.17 6.5 4.4 24.34z" class="cls-3"/><path d="M801.55 743.87H465.72v-6.5h334.66zm5.46 30.2H465.72v-5.86h340.23z" class="cls-10"/><path d="M800.38 728.37v9H465.72v-9.34l311.26.32z" class="cls-25"/><path d="M465.72 9.7H232.31l-1.5 3.65-29.42 71.46h332.89v-.25h264.33L769.19 13.1l-1.5-3.65" class="cls-17"/><path d="m701.87 68.2-8.22.08-4.15.04-82.57.75-2.32-26.7-1.63-18.83h87.19zm-398.44 0 8.22.08 4.15.04 82.57.75 2.32-26.7 1.63-18.83h-87.19z" class="cls-14"/><path d="m693.65 68.27-86.72.79-2.32-26.7h82.89zm-382 .01 86.72.79 2.32-26.7H317.8z" class="cls-1"/><path d="m598.95 69.05-92.2.04-.55-45.57h88.86zm-192.6 0 92.19.04.56-45.57h-88.86z" class="cls-14"/><path d="M802.57 77.04h15.19v94.78h-15.19z" class="cls-2"/><path d="m406.35 69.19 92.19-.1.56-25.81h-90.55zm192.6 0-92.2-.1-.31-25.81h90.31z" class="cls-1"/><path d="M837.38 990.88h9.15c3.38 0 6.17-2.65 6.34-6.03l4.03-80.02h-15.19zm-674.73.24h-9.15c-3.38 0-6.17-2.65-6.34-6.03l-4.03-80.02h15.19z" class="cls-2"/><path d="M841.71 904.83h15.19l-55.35-297.65h-15.19z" class="cls-6"/><path d="M786.55 607.18h15.19l11.09-425.49h-15.19z" class="cls-2"/><path d="M797.64 181.69h15.19l4.93-9.87h-15.19z" class="cls-27"/><path d="M802.57 77.04h15.19L786.32 7.31a2.48 2.48 0 0 0-2.27-1.51h-9.83c-1.77 0-2.96 1.8-2.27 3.43l30.63 67.81Z" class="cls-6"/><path d="M227.34 813.02c-.01.05-.01.1-.01.15v-.15z" class="cls-27"/><path d="m683.57 790.34.18 8.58c.01.48.24.91.63 1.2l23.87 16.3c.92.67 2.01.99 3.09.94 1.15-.02 2.28-.44 3.19-1.23l19.2-15.73c.33-.29.52-.7.52-1.14v-8.93h-50.68Z" class="cls-2"/><path d="m683.57 790.34.18 8.58c.01.48.24.91.63 1.2l23.87 16.3c.92.67 2.01.99 3.09.94v-27.02h-27.76Z" class="cls-27"/><path d="m684.33 791.27 26.08 17.35c.63.42 1.46.39 2.06-.08l21.1-16.67c.94-.74.87-2.19-.13-2.85l-26.09-16.96a1.76 1.76 0 0 0-2.03.08l-21.1 16.29c-.95.73-.9 2.18.1 2.85Z" class="cls-6"/><path d="m721.73 814.72.18 8.58c.01.48.24.91.63 1.2l23.87 16.3c.92.67 2.01.99 3.09.94 1.15-.02 2.28-.44 3.19-1.23l19.2-15.73c.33-.29.52-.7.52-1.14v-8.93h-50.68Z" class="cls-2"/><path d="m721.73 814.72.18 8.58c.01.48.24.91.63 1.2l23.87 16.3c.92.67 2.01.99 3.09.94v-27.02h-27.76Z" class="cls-27"/><path d="M722.49 815.65 748.57 833c.63.42 1.46.39 2.06-.08l21.1-16.67c.94-.74.87-2.19-.13-2.85l-26.09-16.96a1.76 1.76 0 0 0-2.03.08l-21.1 16.29c-.95.73-.9 2.18.1 2.85Z" class="cls-6"/><path d="m652.58 814.72.18 8.58c.01.48.24.91.63 1.2l23.87 16.3c.92.67 2.01.99 3.09.94 1.15-.02 2.28-.44 3.19-1.23l19.2-15.73c.33-.29.52-.7.52-1.14v-8.93h-50.68Z" class="cls-2"/><path d="m652.58 814.72.18 8.58c.01.48.24.91.63 1.2l23.87 16.3c.92.67 2.01.99 3.09.94v-27.02h-27.76Z" class="cls-27"/><path d="M653.34 815.65 679.42 833c.63.42 1.46.39 2.06-.08l21.1-16.67c.94-.74.87-2.19-.13-2.85l-26.09-16.96a1.76 1.76 0 0 0-2.03.08l-21.1 16.29c-.95.73-.9 2.18.1 2.85Z" class="cls-6"/><path d="m690.63 839.33.18 8.58c.01.48.24.91.63 1.2l23.87 16.3c.92.67 2.01.99 3.09.94 1.15-.02 2.28-.44 3.19-1.23l19.2-15.73c.33-.29.52-.7.52-1.14v-8.93h-50.68Z" class="cls-2"/><path d="m690.63 839.33.18 8.58c.01.48.24.91.63 1.2l23.87 16.3c.92.67 2.01.99 3.09.94v-27.02h-27.76Z" class="cls-27"/><path d="m691.39 840.26 26.08 17.35c.63.42 1.46.39 2.06-.08l21.1-16.67c.94-.74.87-2.19-.13-2.85l-26.09-16.96a1.76 1.76 0 0 0-2.03.08l-21.1 16.29c-.95.73-.9 2.18.1 2.85Z" class="cls-6"/><path d="M593.24 863.31c.16 4.62-3.55 8.45-8.17 8.45l-119.35-.14v-47.43c-.6-1.1-1.1-2.24-1.48-3.41-.64-1.93-.98-3.95-.98-6.02 0-3.33.87-6.51 2.46-9.43v-33.7h116.2c.51 0 1.01.05 1.49.14a8.35 8.35 0 0 1 4.45 2.3 8.37 8.37 0 0 1 2.53 5.75z" class="cls-11"/><path d="M536.33 814.76c0 14.41-16.36 26.09-36.53 26.09-15.52 0-28.79-6.91-34.08-16.66-.6-1.1-1.1-2.24-1.48-3.41-.64-1.93-.98-3.95-.98-6.02 0-3.33.87-6.51 2.46-9.43 3.85-7.08 11.9-12.66 21.96-15.18 3.79-.95 7.87-1.47 12.12-1.47s8.06.48 11.74 1.38c5.11 1.23 9.71 3.26 13.52 5.87 6.94 4.74 11.27 11.43 11.27 18.83" class="cls-15"/><path d="m701.87 68.19-8.22.08-3.35-14.32-2.8-11.59 2.67-18.83z" style="fill:#3a3436"/><ellipse cx="499.14" cy="814.83" class="cls-29" rx="22.28" ry="15.72"/><path d="m512.07 738.45-.78 76.48c-1.95 3.57-6.67 5.7-11.49 5.82-4.78.14-9.67-1.7-12.04-6.05l-.24-76.4 12.28.08z" class="cls-19"/><path d="M499.8 738.38v82.37c-4.78.14-9.67-1.7-12.04-6.05l-.24-76.4z" class="cls-20"/><ellipse cx="499.8" cy="738.39" class="cls-29" rx="8.26" ry="12.27" transform="rotate(-87.65 499.805 738.392)"/><path d="m465.72 97.16-264.33.25.26 5.78.71 15.42 1.03 22.79.63 13.74.42 9.22h329.84v-.25h261.28l.42-9.22.63-13.74 1.03-22.79.71-15.42.26-5.78z" style="fill:#9e8f89"/><path d="M772.67 813.27h-.01c.01.05.01.1.01.15z" class="cls-7"/><path d="M832.42 907.46c-.57-6.53-1.49-10.91-1.49-10.91l-3.25-15.91c-.3-1.46-1.58-2.5-3.06-2.5h-358.9v.24H175.38c-1.48 0-2.76 1.04-3.06 2.5l-3.25 15.91s-.92 4.38-1.49 10.91c-.26 2.94-.45 6.32-.45 9.94v65.77c0 5.96 4.83 10.79 10.79 10.79l356.36-.24h287.79c5.96 0 10.79-4.83 10.79-10.79V917.4c0-3.62-.19-7-.45-9.94Z" style="fill:#231c1d"/><path d="m830.93 896.55-3.25-15.91c-.3-1.46-1.58-2.5-3.06-2.5H175.38c-1.48 0-2.76 1.04-3.06 2.5l-3.25 15.91s-.92 4.38-1.49 10.91h664.83c-.57-6.53-1.49-10.91-1.49-10.91Z" class="cls-26"/><path d="M772.67 813.27h-.01c.01.05.01.1.01.15zm-432.82 58.98-119.11.19c-4.53 0-7.92-4.15-7-8.59l12.49-74.61c1.35-6.51 7.07-11.2 13.72-11.24l109.03-.76c5.15-.04 9.16 4.46 8.53 9.57l-3.96 73.3c-.85 6.92-6.72 12.13-13.69 12.14Z" class="cls-18"/><path d="M192.99 774.32h341.29v-36.7H199.62l-1.17 6.5-4.4 24.34z" class="cls-3"/><path d="m198.45 744.12 335.83-.25v-6.25H199.62zm-5.46 30.2h341.29v-6.11l-340.23.25z" class="cls-10"/><path d="M199.62 728.62v9l334.66-.25v-9.09l-311.26.32zm266.1-564.51v.05l-261.27.19s.16 2.58.38 8.27c.23 5.7 4.18 6.08 4.18 6.08s9.91 331.75 10.82 385.22c.32 18.69.07 33.05-.38 43.82-.8 18.74-2.23 26.61-2.41 27.54v.03l-.02.07h317.27v-.24h248.7s0-.02-.02-.07v-.03c-.18-.93-1.61-8.8-2.41-27.54-.45-10.77-.7-25.13-.38-43.82.91-53.47 10.82-385.22 10.82-385.22s3.95-.38 4.18-6.08c.22-5.69.38-8.27.38-8.27z" class="cls-25"/><path d="M762.37 193.53a18.84 18.84 0 0 0-12.79-4.97H465.72v.24H250.43c-4.94 0-9.42 1.88-12.79 4.97-3.9 3.57-6.3 8.77-6.14 14.5l8.21 295.84c.09 3.38 1.07 6.53 2.7 9.23.84 1.39 1.85 2.66 3 3.79 3.42 3.34 8.09 5.39 13.23 5.39l275.65-.24h207.08c5.14 0 9.81-2.05 13.23-5.39 1.15-1.13 2.16-2.4 3-3.79 1.63-2.7 2.61-5.85 2.7-9.23l8.21-295.84c.16-5.73-2.24-10.93-6.14-14.5" class="cls-17"/><path d="M762.37 193.53a18.84 18.84 0 0 0-12.79-4.97H250.42c-4.94 0-9.42 1.88-12.79 4.97-2.74 2.51 141.95 54.16 228.08 84.59v37.1l257.15 179.52 9.88 6.9 21.85 15.25c1.15-1.13 2.16-2.4 3-3.79 1.63-2.7 2.61-5.85 2.7-9.23l8.21-295.84c.16-5.73-2.24-10.93-6.14-14.5Z" style="fill:#221d1e"/><path d="M716.91 205.04H465.72v.07l-182.62.18c-7.28 0-13.18 5.91-13.18 13.19v264.74c0 5.13 2.94 9.59 7.22 11.77 1.79.91 3.82 1.42 5.96 1.42l251.19-.24h182.62c2.14 0 4.17-.51 5.96-1.42 4.28-2.18 7.22-6.64 7.22-11.77V218.23c0-7.28-5.9-13.19-13.18-13.19" style="fill:#2a1112"/><path d="M782.97 635.04c-.18-.93-1.61-8.8-2.41-27.54H465.72v.05l-246.27.19c-.8 18.74-2.23 26.61-2.41 27.54v.03h317.25v-.24h248.68z" class="cls-17"/><path d="m800.38 728.37-17.39-93.23H534.28v-.07l-317.27.32-17.39 93.23 23.4-.02 311.26-.5 242.7.25z" class="cls-26"/><path d="M590.15 651.87a5.08 5.08 0 0 0-5.07-4.88h-170.1c-2.72 0-4.96 2.15-5.07 4.88l-1.98 51.91c-.18 4.88 3.73 8.94 8.61 8.94h166.98c4.88 0 8.79-4.06 8.61-8.94z" class="cls-25"/><path d="M579.68 657.77H465.72v.15l-45.39.1c-.54 0-.98.44-.98.98v43.92c0 .54.44.98.98.98l113.96-.24h45.39c.54 0 .98-.44.98-.98v-43.92c0-.54-.44-.98-.98-.98Z" style="fill:#120f10"/><path d="M465.72 102.94v.05l-264.07.2.7 15.42 1.04 22.79.63 13.74 330.26-.25h261.7l.63-13.74 1.04-22.79.7-15.42z" style="fill:#f15e23"/><path d="M465.72 118.36v.05l-263.37.2.99 22.79 330.94-.25h262.38l.99-22.79z" class="cls-12"/><path d="M465.72 84.56v.05l-264.33.2v12.6l264.33-.25h332.89v-12.6z" style="fill:#383334"/><path d="M197.42 172.06h-15.19V77.28h15.19z" class="cls-2"/><path d="M158.29 905.07H143.1l55.35-297.65h15.19z" class="cls-6"/><path d="M213.45 607.42h-15.19l-11.09-425.48h15.19z" class="cls-2"/><path d="M202.36 181.94h-15.19l-4.93-9.88h15.19z" class="cls-27"/><path d="M197.43 77.28h-15.19l31.44-69.73c.39-.91 1.28-1.51 2.27-1.51h9.83c1.77 0 2.96 1.8 2.27 3.43l-30.63 67.81Z" class="cls-6"/><path d="M772.66 813.27c.01.05.01.1.01.15v-.15zm-456.23-22.69-.18 8.58c-.01.48-.24.91-.63 1.2l-23.87 16.3c-.92.67-2.01.99-3.09.94a5 5 0 0 1-3.19-1.23l-19.2-15.73c-.33-.29-.52-.7-.52-1.14v-8.93h50.68Z" class="cls-27"/><path d="m316.43 790.58-.18 8.58c-.01.48-.24.91-.63 1.2l-23.87 16.3c-.92.67-2.01.99-3.09.94v-27.02h27.76Z" class="cls-2"/><path d="m315.67 791.52-26.08 17.35c-.63.42-1.46.39-2.06-.08l-21.1-16.67c-.94-.74-.87-2.19.13-2.85l26.09-16.96a1.76 1.76 0 0 1 2.03.08l21.1 16.29c.95.73.9 2.18-.1 2.85Z" class="cls-6"/><path d="m278.27 814.96-.18 8.58c-.01.48-.24.91-.63 1.2l-23.87 16.3c-.92.67-2.01.99-3.09.94a5 5 0 0 1-3.19-1.23l-19.2-15.73c-.33-.29-.52-.7-.52-1.14v-8.93h50.68Z" class="cls-27"/><path d="m278.27 814.96-.18 8.58c-.01.48-.24.91-.63 1.2l-23.87 16.3c-.92.67-2.01.99-3.09.94v-27.02h27.76Z" class="cls-2"/><path d="m277.51 815.9-26.08 17.35c-.63.42-1.46.39-2.06-.08l-21.1-16.67c-.94-.74-.87-2.19.13-2.85l26.09-16.96a1.76 1.76 0 0 1 2.03.08l21.1 16.29c.95.73.9 2.18-.1 2.85Z" class="cls-6"/><path d="m347.42 814.96-.18 8.58c-.01.48-.24.91-.63 1.2l-23.87 16.3c-.92.67-2.01.99-3.09.94a5 5 0 0 1-3.19-1.23l-19.2-15.73c-.33-.29-.52-.7-.52-1.14v-8.93h50.68Z" class="cls-27"/><path d="m347.42 814.96-.18 8.58c-.01.48-.24.91-.63 1.2l-23.87 16.3c-.92.67-2.01.99-3.09.94v-27.02h27.76Z" class="cls-2"/><path d="m346.66 815.9-26.08 17.35c-.63.42-1.46.39-2.06-.08l-21.1-16.67c-.94-.74-.87-2.19.13-2.85l26.09-16.96a1.76 1.76 0 0 1 2.03.08l21.1 16.29c.95.73.9 2.18-.1 2.85Z" class="cls-6"/><path d="m309.37 839.57-.18 8.58c-.01.48-.24.91-.63 1.2l-23.87 16.3c-.92.67-2.01.99-3.09.94a5 5 0 0 1-3.19-1.23l-19.2-15.73c-.33-.29-.52-.7-.52-1.14v-8.93h50.68Z" class="cls-27"/><path d="m309.37 839.57-.18 8.58c-.01.48-.24.91-.63 1.2l-23.87 16.3c-.92.67-2.01.99-3.09.94v-27.02h27.76Z" class="cls-2"/><path d="m308.61 840.5-26.08 17.35c-.63.42-1.46.39-2.06-.08l-21.1-16.67c-.94-.74-.87-2.19.13-2.85l26.09-16.96a1.76 1.76 0 0 1 2.03.08l21.1 16.29c.95.73.9 2.18-.1 2.85Z" class="cls-6"/><path d="M406.76 863.56c-.16 4.62 3.55 8.45 8.17 8.45l119.35-.14v-47.43c.6-1.1 1.1-2.24 1.48-3.41.64-1.93.98-3.95.98-6.02 0-3.33-.87-6.51-2.46-9.43v-33.94l-116.2.24c-.51 0-1.01.05-1.49.14a8.35 8.35 0 0 0-4.45 2.3 8.37 8.37 0 0 0-2.53 5.75z" class="cls-11"/><path d="M590.46 780.07a8.37 8.37 0 0 0-2.53-5.75 8.35 8.35 0 0 0-4.45-2.3l-.26.43-4.58 1.87-6.35 2.59-15.29 6.25-31.87 13.02-13.63 5.57-.26.1-11.2 4.58-11.2-4.58-.26-.1-13.63-5.57-31.87-13.02-15.29-6.25-6.35-2.59-4.58-1.87-.26-.43a8.35 8.35 0 0 0-4.45 2.3 8.37 8.37 0 0 0-2.53 5.75l-2.85 83.49c-.16 4.62 3.55 8.45 8.17 8.45l119.35-.06 50.86.06c4.62 0 8.33-3.83 8.17-8.45l-2.85-83.49Z" class="cls-17"/><path d="M585.04 774.07a1.89 1.89 0 0 0-1.89-1.87H465.72v.14l-48.86.1c-1.03 0-1.88.83-1.89 1.86s-1.39 83.05-1.39 83.05a3.654 3.654 0 0 0 3.65 3.72l117.01-.18 48.55-.06c2.04 0 3.68-1.67 3.65-3.72l-1.39-83.04Z" style="fill:#524c51"/><path d="M463.67 815.01c0 14.41 16.36 26.09 36.53 26.09 15.52 0 28.79-6.91 34.08-16.66.6-1.1 1.1-2.24 1.48-3.41.64-1.93.98-3.95.98-6.02 0-3.33-.87-6.51-2.46-9.43-3.85-7.08-11.9-12.66-21.96-15.18-3.79-.95-7.87-1.47-12.12-1.47s-8.06.48-11.74 1.38c-5.11 1.23-9.71 3.26-13.52 5.87-6.94 4.74-11.27 11.43-11.27 18.83" class="cls-15"/><path d="M566.13 778.88a7.32 7.32 0 0 1 7.36 7.17l1.61 60.69c.05 2-.69 3.9-2.09 5.33a7.3 7.3 0 0 1-5.3 2.23l-137.2-.49c-2.08 0-4.01-.86-5.41-2.4a7.28 7.28 0 0 1-1.9-5.61v-.1l.01-.1 1.25-60.09a7.32 7.32 0 0 1 7.33-6.63h134.33m.01-3H431.8c-5.37 0-9.86 4.11-10.33 9.46l-1.26 60.2c-.53 6.04 4.22 11.24 10.29 11.27l137.2.49h.04c5.83 0 10.52-4.81 10.36-10.64l-1.61-60.69c-.15-5.61-4.74-10.09-10.36-10.09" class="cls-15"/><path d="M551.38 784.53c3.03 0 5.56 2.77 5.64 6.17l1.26 51.43c.05 1.84-.63 3.62-1.84 4.86-1.04 1.07-2.39 1.66-3.82 1.66l-106.99-.42c-1.46 0-2.85-.64-3.9-1.78-1.23-1.34-1.85-3.21-1.7-5.13v-.14l1.1-50.94c.29-3.21 2.74-5.71 5.61-5.71h104.63m.01-2.44H446.75c-4.19 0-7.69 3.48-8.05 8.02l-1.1 51.02c-.41 5.12 3.29 9.53 8.02 9.55l106.99.42h.03c4.55 0 8.2-4.07 8.08-9.02l-1.26-51.43c-.12-4.76-3.7-8.55-8.08-8.55Z" class="cls-15"/><path d="M523.14 815.07c0 8.68-9.98 15.72-22.28 15.72-12.31 0-22.28-7.04-22.28-15.72s9.98-15.72 22.28-15.72c12.31 0 22.28 7.04 22.28 15.72" class="cls-29"/><path d="m513.79 738.7-.78 76.48c-1.95 3.57-6.67 5.7-11.49 5.82-4.78.14-9.67-1.7-12.04-6.05l-.24-76.4 12.28.08z" class="cls-19"/><path d="M501.52 738.63V821c-4.78.14-9.67-1.7-12.04-6.05l-.24-76.4z" class="cls-20"/><ellipse cx="501.52" cy="738.63" class="cls-29" rx="8.26" ry="12.27" transform="rotate(-87.65 501.526 738.633)"/><path d="M722.73 109.43v19.8l-11.42-17.68-1.43-2.12h-10.04v9.81c-3.85-5.9-10.49-9.81-18.03-9.81s-13.96 3.77-17.83 9.49v-9.48h-11.47v5.89a13.55 13.55 0 0 0-11.23-5.89c-4.13 0-7.83 1.85-10.34 4.77v-4.77h-16.43l-8.19 23.39-8.19-23.39H586.3l15.08 43.06h9.87l8.23-23.48v23.48h11.47v-5.89c2.45 3.57 6.55 5.89 11.23 5.89 4.13 0 7.83-1.85 10.34-4.77v4.77h11.47v-9.48c3.87 5.72 10.42 9.48 17.83 9.48s14.19-3.91 18.03-9.8v9.8h11.47v-19.8l11.42 17.68 1.36 2.17 10.1-.05v-43.06h-11.47Zm-40.92 11.17c5.71 0 10.36 4.65 10.36 10.37s-4.65 10.36-10.36 10.36-10.37-4.65-10.37-10.36 4.65-10.37 10.37-10.37m-40.53 4.5c-1.12 0-2.03-.91-2.03-2.03s.91-2.03 2.03-2.03c1.05 0 1.93.83 2 1.9l.15 2.36c-.69-.1-1.35-.17-2.04-.19h-.12Zm.9 11.73c1.12 0 2.03.91 2.03 2.03s-.91 2.03-2.03 2.03c-1.05 0-1.93-.83-2-1.9l-.15-2.36c.69.1 1.36.17 2.04.19h.12Zm10.33-7.36-1.89-1.33a10 10 0 0 0-.66-.47c-1.26-.88-2.65-1.53-4.12-1.94l6.67.02zm-21.57 2.99 1.89 1.32c.11.09.33.25.66.47 1.26.88 2.65 1.53 4.12 1.94l-6.67-.02v-3.72Zm-62.86 4.19h13.07v-11.47h-13.07v-4.28h13.07v-11.47h-24.54v6.42c-3.11-4.44-8.49-6.46-11.89-6.51h-8.69l-6.56.03v.05h-9.06v28.85c0 .01.03 1.52-.81 2.39-.54.56-1.45.84-2.71.84s-2.18-.28-2.72-.85c-.85-.88-.83-2.39-.83-2.4l.06-1.28-.05-.06v-27.5h-42.88v19.8l-11.42-17.68-1.41-2.12h-10.06v.05h-23.7l-13.08 21.71v-21.71h-8.06v-.05h-10.6l-8.19 23.39-8.19-23.39H356.6l-8.19 23.39-8.19-23.39h-10.6v8.72c-3.93-5.31-10.21-8.77-17.3-8.77-7.55 0-14.18 3.91-18.03 9.81-2.31-6.78-9.41-9.78-13.57-9.84h-8.69l-6.56.03v43.07h11.47v-11.4l8.5 11.4h14.32l-12.2-16.34c1.12-.61 2.31-1.42 3.41-2.47 1.34 10.59 10.39 18.81 21.34 18.81 7.09 0 13.37-3.46 17.3-8.77v8.81h11.47v-6.81l2.39 6.81h9.87l2.39-6.81v6.81h20.9v-6.81l2.39 6.81h9.87l2.39-6.81v6.81h8.06v.05h5.47v.23l.14-.23h5.49l15-23.82v23.82h24.53v-.05h9.1v-19.8l11.42 17.68 1.37 2.12h10.1v-31.6h4.89v31.6h11.47v-31.6h3.58v17.17c-.03.89-.04 6.19 3.69 10.15 2.67 2.84 6.49 4.28 11.35 4.28 6.92 0 10.53-2.99 12.34-5.5.08-.12.15-.23.22-.35v5.8h11.47v-11.4l6.99 9.37 1.53 2.04h7.14v.05h24.54v-11.47H568.1v-4.38Zm-255.75 4.63c-5.72 0-10.37-4.65-10.37-10.36s4.65-10.37 10.37-10.37 10.36 4.65 10.36 10.37-4.65 10.36-10.36 10.36m-32.04-13.42h-3.34v-8.12h3.59c.03 0 3.32.3 3.32 4.08 0 3.18-2.57 3.88-3.54 4.03h-.02Zm156.61 8.84h10.69v4.38H436.9zm0-11.47v-4.28h10.69v4.28zm107.39 2.63h-3.34v-8.12h3.59c.03 0 3.32.3 3.32 4.08 0 3.18-2.57 3.88-3.54 4.03h-.02Zm12.32 14.99-5.03-6.74c1.72-.94 3.59-2.32 5.03-4.32z" class="cls-12"/><path d="M473.48 112.43v26.98l-17.42-26.97v-.01h-5.47v37.07h5.47v-26.98l17.42 26.97v.01h5.47v-37.07zm28.97 0h-20.89v5.47h8.28v31.6h5.47v-31.6h7.14zm-108.17 0-10.32 29.47-10.32-29.47h-5.47v37.07h5.47v-21.46l7.51 21.46h5.62l7.51-21.46v21.46h5.47v-37.07zm-35.54 0-10.32 29.47-10.33-29.47h-5.47v37.07h5.47v-21.46l7.52 21.46h5.61l7.52-21.46v21.46h5.47v-37.07zm88.23 5.52v-5.47h-18.54v37.06h18.54v-5.47H433.9V133.7h13.07v-5.47H433.9v-10.28zm118.11 26.08v-10.38h13.07v-5.47h-13.07V117.9h13.07v-5.47h-18.54v37.07h18.54v-5.47z" class="cls-23"/><path d="m425.59 112.48-17.78 29.5v-29.5h-5.46v37.06h6.43l23.34-37.06zM291.81 146.8l-1.65-2.21-.46-.61-2.77-3.72-.59-.79-3.47-4.66c2.4-.67 9.19-3.25 9.19-10.97 0-8.64-8.32-11.45-11.35-11.49h-11.72v.03h-.5v37.07h5.47v-17.42h.02l2.01 2.7 10.36 13.89.59.79.03.04h6.83l-1.98-2.65Zm-17.86-30.05c1.87-.01 5.6-.01 6.67 0 1.24.02 6.24 1.33 6.24 7.08 0 6.36-6.3 7.03-6.35 7.03h-.19c-1.14.01-4.58.01-6.37 0zm281.86 30.05-1.65-2.21-.46-.61-2.77-3.72-.59-.79-3.47-4.66c2.4-.67 9.19-3.25 9.19-10.97 0-8.64-8.32-11.45-11.35-11.49h-11.72v.03h-.5v37.07h5.47v-17.42h.02l2.01 2.7 10.36 13.89.59.79.03.04h6.83l-1.98-2.65Zm-17.86-30.05c1.87-.01 5.6-.01 6.67 0 1.24.02 6.24 1.33 6.24 7.08 0 6.36-6.3 7.03-6.35 7.03h-.19c-1.14.01-4.58.01-6.37 0zm-9.06 21.38v-25.7h-5.47v25.7s.41 6.38-6.52 6.38-6.55-6.38-6.55-6.38v-25.7h-5.47v25.7s-.69 11.37 12.04 11.37 11.97-11.37 11.97-11.37m-216.56-25.75c-10.24 0-18.53 8.3-18.53 18.54s8.29 18.53 18.53 18.53 18.53-8.3 18.53-18.53-8.3-18.54-18.53-18.54m0 31.9c-7.38 0-13.37-5.98-13.37-13.36s5.99-13.37 13.37-13.37 13.36 5.98 13.36 13.37-5.98 13.36-13.36 13.36m413.4-31.85v26.98l-17.42-26.97v-.01h-5.46v37.07h5.46v-26.98l17.42 26.97v.01h5.47v-37.07zm-97.79 37.07h-5.47v-37.06h5.47zm-11.31-37.07-10.32 29.47-10.32-29.47h-5.47l12.98 37.07h5.62l12.98-37.07zm44.35 37.07h-5.47v-37.06h5.47zm20.83-37.07c-10.24 0-18.53 8.3-18.53 18.54s8.29 18.53 18.53 18.53 18.53-8.3 18.53-18.53-8.3-18.54-18.53-18.54m0 31.9c-7.38 0-13.37-5.98-13.37-13.36s5.99-13.37 13.37-13.37 13.36 5.98 13.36 13.37-5.98 13.36-13.36 13.36m-33-13.77.01-.01s-.19-.16-.54-.39a10.6 10.6 0 0 0-5.18-1.89q-.855-.135-1.83-.18c-2.78 0-5.03-2.25-5.03-5.03s2.25-5.03 5.03-5.03 4.83 2.08 5 4.7h5.62c-.17-5.71-4.85-10.31-10.62-10.31s-10.63 4.76-10.63 10.63c0 3.36 1.56 6.35 4 8.3l-.01.01s.19.16.54.39c1.49 1.05 3.26 1.72 5.18 1.89q.855.135 1.83.18c2.78 0 5.03 2.25 5.03 5.03s-2.25 5.03-5.03 5.03-4.83-2.08-5-4.7h-5.62c.17 5.71 4.85 10.31 10.62 10.31s10.63-4.76 10.63-10.63c0-3.36-1.56-6.35-4-8.3" class="cls-23"/></g></svg>