<?xml version="1.0" encoding="UTF-8"?>
<svg xmlns="http://www.w3.org/2000/svg" viewBox="0 0 1000 1000">
  <defs>
    <style>
      .cls-1 {
        fill: #5e5f5f;
      }

      .cls-2 {
        fill: #d8c9be;
      }

      .cls-3 {
        fill: #403d3f;
      }

      .cls-4 {
        fill: #231c1d;
      }

      .cls-5 {
        fill: #221d1e;
      }

      .cls-6 {
        fill: #efeee9;
      }

      .cls-7 {
        fill: #e0dfe5;
      }

      .cls-8 {
        fill: #e5e2d6;
      }

      .cls-9 {
        fill: #aa968c;
      }

      .cls-10 {
        fill: #f68d36;
      }

      .cls-11 {
        fill: #3d393a;
      }

      .cls-12 {
        fill: #9f2d22;
      }

      .cls-13 {
        fill: #524c51;
      }

      .cls-14 {
        fill: #787678;
      }

      .cls-15 {
        fill: #282828;
      }

      .cls-16 {
        fill: #3a3436;
      }

      .cls-17 {
        fill: #676163;
      }

      .cls-18 {
        fill: #7d8390;
      }

      .cls-19 {
        fill: #cfc9c5;
      }

      .cls-20 {
        fill: #bcb8b5;
      }

      .cls-21 {
        fill: #f15e23;
      }

      .cls-22 {
        fill: #120f10;
      }

      .cls-23 {
        fill: #e8e7e2;
      }

      .cls-24 {
        fill: #383334;
      }

      .cls-25 {
        fill: #1c1517;
      }

      .cls-26 {
        fill: #332d2e;
      }

      .cls-27 {
        fill: #ac9789;
      }

      .cls-28 {
        fill: #9e8f89;
      }

      .cls-29 {
        fill: #dcdbdb;
      }

      .cls-30 {
        fill: #2a1112;
      }
    </style>
  </defs>
  <g id="Joystick">
    <path class="cls-2" d="M182.8,989.94h-9.15c-3.38,0-6.17-2.65-6.34-6.03l-4.03-80.02h15.19s4.33,86.05,4.33,86.05Z"/>
  </g>
  <g id="Words">
    <polygon class="cls-8" points="234.95 13.35 224.92 13.35 195.76 74.41 195.76 93.55 195.76 167.07 197.43 185.91 207.91 607.42 149.58 910.46 152.86 979.42 176.01 979.42 192.99 843.32 231.49 696.29 243.15 562.92 234.95 13.35"/>
    <polygon class="cls-9" points="765.05 13.1 775.08 13.1 804.24 74.17 804.24 93.31 804.24 166.83 802.57 185.66 792.09 607.18 850.42 910.22 847.14 979.18 823.99 979.18 807.01 843.08 768.51 696.04 756.85 562.67 765.05 13.1"/>
    <path class="cls-7" d="M227.33,813.02h.01c-.01.05-.01.1-.01.15v-.15Z"/>
    <path class="cls-18" d="M227.33,813.02h.01c-.01.05-.01.1-.01.15v-.15Z"/>
    <polygon class="cls-7" points="827.42 878.14 807.01 774.07 465.72 774.07 465.72 774.32 192.99 774.32 172.58 878.39 534.28 878.39 534.28 878.14 827.42 878.14"/>
    <path class="cls-18" d="M660.15,872l119.11.19c4.53,0,7.92-4.15,7-8.59l-12.49-74.61c-1.35-6.51-7.07-11.2-13.72-11.24l-109.03-.76c-5.15-.04-9.16,4.46-8.53,9.57l3.96,73.3c.85,6.92,6.72,12.13,13.69,12.14Z"/>
    <polygon class="cls-3" points="807.01 774.07 465.72 774.07 465.72 737.37 800.38 737.37 801.55 743.87 805.95 768.21 807.01 774.07"/>
    <polygon class="cls-10" points="801.55 743.87 465.72 743.87 465.72 737.37 800.38 737.37 801.55 743.87"/>
    <polygon class="cls-10" points="807.01 774.07 465.72 774.07 465.72 768.21 805.95 768.21 807.01 774.07"/>
    <polygon class="cls-25" points="800.38 728.37 800.38 737.37 465.72 737.37 465.72 728.03 776.98 728.35 800.38 728.37"/>
    <polyline class="cls-17" points="465.72 9.7 232.31 9.7 230.81 13.35 201.39 84.81 534.28 84.81 534.28 84.56 798.61 84.56 769.19 13.1 767.69 9.45"/>
    <polygon class="cls-14" points="701.87 68.2 693.65 68.28 689.5 68.32 606.93 69.07 604.61 42.37 602.98 23.54 690.17 23.54 701.87 68.2"/>
    <polygon class="cls-14" points="303.43 68.2 311.65 68.28 315.8 68.32 398.37 69.07 400.69 42.37 402.32 23.54 315.13 23.54 303.43 68.2"/>
    <polygon class="cls-1" points="693.65 68.27 606.93 69.06 604.61 42.36 687.5 42.36 693.65 68.27"/>
    <polygon class="cls-1" points="311.65 68.28 398.37 69.07 400.69 42.37 317.8 42.37 311.65 68.28"/>
    <polygon class="cls-14" points="598.95 69.05 506.75 69.09 506.2 23.52 595.06 23.52 598.95 69.05"/>
    <polygon class="cls-14" points="406.35 69.05 498.54 69.09 499.1 23.52 410.24 23.52 406.35 69.05"/>
    <rect class="cls-2" x="802.57" y="77.04" width="15.19" height="94.78"/>
    <polygon class="cls-1" points="406.35 69.19 498.54 69.09 499.1 43.28 408.55 43.28 406.35 69.19"/>
    <polygon class="cls-1" points="598.95 69.19 506.75 69.09 506.44 43.28 596.75 43.28 598.95 69.19"/>
    <path class="cls-2" d="M837.38,990.88h9.15c3.38,0,6.17-2.65,6.34-6.03l4.03-80.02h-15.19l-4.33,86.05Z"/>
    <path class="cls-2" d="M162.65,991.12h-9.15c-3.38,0-6.17-2.65-6.34-6.03l-4.03-80.02h15.19s4.33,86.05,4.33,86.05Z"/>
    <polygon class="cls-6" points="841.71 904.83 856.9 904.83 801.55 607.18 786.36 607.18 841.71 904.83"/>
    <polygon class="cls-2" points="786.55 607.18 801.74 607.18 812.83 181.69 797.64 181.69 786.55 607.18"/>
    <polygon class="cls-27" points="797.64 181.69 812.83 181.69 817.76 171.82 802.57 171.82 797.64 181.69"/>
    <path class="cls-6" d="M802.57,77.04h15.19l-31.44-69.73c-.39-.91-1.28-1.51-2.27-1.51h-9.83c-1.77,0-2.96,1.8-2.27,3.43l30.63,67.81Z"/>
    <path class="cls-27" d="M227.34,813.02c-.01.05-.01.1-.01.15v-.15h.01Z"/>
    <path class="cls-2" d="M683.57,790.34l.18,8.58c.01.48.24.91.63,1.2l23.87,16.3c.92.67,2.01.99,3.09.94,1.15-.02,2.28-.44,3.19-1.23l19.2-15.73c.33-.29.52-.7.52-1.14v-8.93s-50.68,0-50.68,0Z"/>
    <path class="cls-27" d="M683.57,790.34l.18,8.58c.01.48.24.91.63,1.2l23.87,16.3c.92.67,2.01.99,3.09.94v-27.02s-27.76,0-27.76,0Z"/>
    <path class="cls-6" d="M684.33,791.27l26.08,17.35c.63.42,1.46.39,2.06-.08l21.1-16.67c.94-.74.87-2.19-.13-2.85l-26.09-16.96c-.62-.41-1.44-.37-2.03.08l-21.1,16.29c-.95.73-.9,2.18.1,2.85Z"/>
    <path class="cls-2" d="M721.73,814.72l.18,8.58c.01.48.24.91.63,1.2l23.87,16.3c.92.67,2.01.99,3.09.94,1.15-.02,2.28-.44,3.19-1.23l19.2-15.73c.33-.29.52-.7.52-1.14v-8.93s-50.68,0-50.68,0Z"/>
    <path class="cls-27" d="M721.73,814.72l.18,8.58c.01.48.24.91.63,1.2l23.87,16.3c.92.67,2.01.99,3.09.94v-27.02s-27.76,0-27.76,0Z"/>
    <path class="cls-6" d="M722.49,815.65l26.08,17.35c.63.42,1.46.39,2.06-.08l21.1-16.67c.94-.74.87-2.19-.13-2.85l-26.09-16.96c-.62-.41-1.44-.37-2.03.08l-21.1,16.29c-.95.73-.9,2.18.1,2.85Z"/>
    <path class="cls-2" d="M652.58,814.72l.18,8.58c.01.48.24.91.63,1.2l23.87,16.3c.92.67,2.01.99,3.09.94,1.15-.02,2.28-.44,3.19-1.23l19.2-15.73c.33-.29.52-.7.52-1.14v-8.93s-50.68,0-50.68,0Z"/>
    <path class="cls-27" d="M652.58,814.72l.18,8.58c.01.48.24.91.63,1.2l23.87,16.3c.92.67,2.01.99,3.09.94v-27.02s-27.76,0-27.76,0Z"/>
    <path class="cls-6" d="M653.34,815.65l26.08,17.35c.63.42,1.46.39,2.06-.08l21.1-16.67c.94-.74.87-2.19-.13-2.85l-26.09-16.96c-.62-.41-1.44-.37-2.03.08l-21.1,16.29c-.95.73-.9,2.18.1,2.85Z"/>
    <path class="cls-2" d="M690.63,839.33l.18,8.58c.01.48.24.91.63,1.2l23.87,16.3c.92.67,2.01.99,3.09.94,1.15-.02,2.28-.44,3.19-1.23l19.2-15.73c.33-.29.52-.7.52-1.14v-8.93s-50.68,0-50.68,0Z"/>
    <path class="cls-27" d="M690.63,839.33l.18,8.58c.01.48.24.91.63,1.2l23.87,16.3c.92.67,2.01.99,3.09.94v-27.02s-27.76,0-27.76,0Z"/>
    <path class="cls-6" d="M691.39,840.26l26.08,17.35c.63.42,1.46.39,2.06-.08l21.1-16.67c.94-.74.87-2.19-.13-2.85l-26.09-16.96c-.62-.41-1.44-.37-2.03.08l-21.1,16.29c-.95.73-.9,2.18.1,2.85Z"/>
    <path class="cls-11" d="M593.24,863.31c.16,4.62-3.55,8.45-8.17,8.45l-119.35-.14v-47.43c-.6-1.1-1.1-2.24-1.48-3.41-.64-1.93-.98-3.95-.98-6.02,0-3.33.87-6.51,2.46-9.43v-33.7h116.2c.51,0,1.01.05,1.49.14,1.72.3,3.26,1.12,4.45,2.3,1.5,1.46,2.46,3.49,2.53,5.75l2.85,83.49Z"/>
    <path class="cls-15" d="M536.33,814.76c0,14.41-16.36,26.09-36.53,26.09-15.52,0-28.79-6.91-34.08-16.66-.6-1.1-1.1-2.24-1.48-3.41-.64-1.93-.98-3.95-.98-6.02,0-3.33.87-6.51,2.46-9.43,3.85-7.08,11.9-12.66,21.96-15.18,3.79-.95,7.87-1.47,12.12-1.47s8.06.48,11.74,1.38c5.11,1.23,9.71,3.26,13.52,5.87,6.94,4.74,11.27,11.43,11.27,18.83Z"/>
    <polygon class="cls-16" points="701.87 68.19 693.65 68.27 693.65 68.27 690.3 53.95 687.5 42.36 690.17 23.53 701.87 68.19"/>
    <ellipse class="cls-29" cx="499.14" cy="814.83" rx="22.28" ry="15.72"/>
    <path class="cls-19" d="M512.07,738.45l-.78,76.48c-1.95,3.57-6.67,5.7-11.49,5.82-4.78.14-9.67-1.7-12.04-6.05l-.24-76.4,12.28.08,12.27.07Z"/>
    <path class="cls-20" d="M499.8,738.38v82.37c-4.78.14-9.67-1.7-12.04-6.05l-.24-76.4,12.28.08Z"/>
    <ellipse class="cls-29" cx="499.8" cy="738.39" rx="8.26" ry="12.27" transform="translate(-258.46 1207.5) rotate(-87.65)"/>
    <polygon class="cls-28" points="465.72 97.16 201.39 97.41 201.65 103.19 202.36 118.61 203.39 141.4 204.02 155.14 204.44 164.36 534.28 164.36 534.28 164.11 795.56 164.11 795.98 154.89 796.61 141.15 797.64 118.36 798.35 102.94 798.61 97.16 465.72 97.16"/>
    <path class="cls-7" d="M772.67,813.27h-.01c.01.05.01.1.01.15v-.15Z"/>
    <path class="cls-4" d="M832.42,907.46c-.57-6.53-1.49-10.91-1.49-10.91l-3.25-15.91c-.3-1.46-1.58-2.5-3.06-2.5h-358.9v.24H175.38c-1.48,0-2.76,1.04-3.06,2.5l-3.25,15.91s-.92,4.38-1.49,10.91c-.26,2.94-.45,6.32-.45,9.94v65.77c0,5.96,4.83,10.79,10.79,10.79l356.36-.24h287.79c5.96,0,10.79-4.83,10.79-10.79v-65.77c0-3.62-.19-7-.45-9.94Z"/>
    <path class="cls-26" d="M830.93,896.55l-3.25-15.91c-.3-1.46-1.58-2.5-3.06-2.5H175.38c-1.48,0-2.76,1.04-3.06,2.5l-3.25,15.91s-.92,4.38-1.49,10.91h664.83c-.57-6.53-1.49-10.91-1.49-10.91Z"/>
    <path class="cls-18" d="M772.67,813.27h-.01c.01.05.01.1.01.15v-.15Z"/>
    <path class="cls-18" d="M339.85,872.25l-119.11.19c-4.53,0-7.92-4.15-7-8.59l12.49-74.61c1.35-6.51,7.07-11.2,13.72-11.24l109.03-.76c5.15-.04,9.16,4.46,8.53,9.57l-3.96,73.3c-.85,6.92-6.72,12.13-13.69,12.14Z"/>
    <polygon class="cls-3" points="192.99 774.32 534.28 774.32 534.28 737.62 199.62 737.62 198.45 744.12 194.05 768.46 192.99 774.32"/>
    <polygon class="cls-10" points="198.45 744.12 534.28 743.87 534.28 737.62 199.62 737.62 198.45 744.12"/>
    <polygon class="cls-10" points="192.99 774.32 534.28 774.32 534.28 768.21 194.05 768.46 192.99 774.32"/>
    <polygon class="cls-25" points="199.62 728.62 199.62 737.62 534.28 737.37 534.28 728.28 223.02 728.6 199.62 728.62"/>
    <path class="cls-25" d="M465.72,164.11v.05l-261.27.19s.16,2.58.38,8.27c.23,5.7,4.18,6.08,4.18,6.08,0,0,9.91,331.75,10.82,385.22.32,18.69.07,33.05-.38,43.82-.8,18.74-2.23,26.61-2.41,27.54v.03s-.02.07-.02.07h317.27v-.24h248.7s0-.02-.02-.07v-.03c-.18-.93-1.61-8.8-2.41-27.54-.45-10.77-.7-25.13-.38-43.82.91-53.47,10.82-385.22,10.82-385.22,0,0,3.95-.38,4.18-6.08.22-5.69.38-8.27.38-8.27h-329.84Z"/>
    <path class="cls-17" d="M762.37,193.53c-3.37-3.09-7.85-4.97-12.79-4.97h-283.86v.24h-215.29c-4.94,0-9.42,1.88-12.79,4.97-3.9,3.57-6.3,8.77-6.14,14.5l8.21,295.84c.09,3.38,1.07,6.53,2.7,9.23.84,1.39,1.85,2.66,3,3.79,3.42,3.34,8.09,5.39,13.23,5.39l275.65-.24h207.08c5.14,0,9.81-2.05,13.23-5.39,1.15-1.13,2.16-2.4,3-3.79,1.63-2.7,2.61-5.85,2.7-9.23l8.21-295.84c.16-5.73-2.24-10.93-6.14-14.5Z"/>
    <path class="cls-5" d="M762.37,193.53c-3.37-3.09-7.85-4.97-12.79-4.97H250.42c-4.94,0-9.42,1.88-12.79,4.97-2.74,2.51,141.95,54.16,228.08,84.59v37.1l257.15,179.52,9.88,6.9,21.85,15.25c1.15-1.13,2.16-2.4,3-3.79,1.63-2.7,2.61-5.85,2.7-9.23l8.21-295.84c.16-5.73-2.24-10.93-6.14-14.5Z"/>
    <path class="cls-30" d="M716.91,205.04h-251.19v.07l-182.62.18c-7.28,0-13.18,5.91-13.18,13.19v264.74c0,5.13,2.94,9.59,7.22,11.77,1.79.91,3.82,1.42,5.96,1.42l251.19-.24h182.62c2.14,0,4.17-.51,5.96-1.42,4.28-2.18,7.22-6.64,7.22-11.77V218.23c0-7.28-5.9-13.19-13.18-13.19Z"/>
    <path class="cls-17" d="M782.97,635.04c-.18-.93-1.61-8.8-2.41-27.54h-314.84v.05l-246.27.19c-.8,18.74-2.23,26.61-2.41,27.54v.03h317.25v-.24h248.68v-.03Z"/>
    <polygon class="cls-26" points="800.38 728.37 782.99 635.14 534.28 635.14 534.28 635.07 217.01 635.39 199.62 728.62 223.02 728.6 534.28 728.1 534.28 728.1 776.98 728.35 800.38 728.37"/>
    <path class="cls-25" d="M590.15,651.87c-.11-2.73-2.35-4.88-5.07-4.88h-170.1c-2.72,0-4.96,2.15-5.07,4.88l-1.98,51.91c-.18,4.88,3.73,8.94,8.61,8.94h166.98c4.88,0,8.79-4.06,8.61-8.94l-1.98-51.91Z"/>
    <path class="cls-22" d="M579.68,657.77h-113.96v.15l-45.39.1c-.54,0-.98.44-.98.98v43.92c0,.54.44.98.98.98l113.96-.24h45.39c.54,0,.98-.44.98-.98v-43.92c0-.54-.44-.98-.98-.98Z"/>
    <polygon class="cls-21" points="465.72 102.94 465.72 102.99 201.65 103.19 202.35 118.61 203.39 141.4 204.02 155.14 534.28 154.89 795.98 154.89 796.61 141.15 797.65 118.36 798.35 102.94 465.72 102.94"/>
    <polygon class="cls-12" points="465.72 118.36 465.72 118.41 202.35 118.61 203.34 141.4 534.28 141.15 796.66 141.15 797.65 118.36 465.72 118.36"/>
    <polygon class="cls-24" points="465.72 84.56 465.72 84.61 201.39 84.81 201.39 97.41 465.72 97.16 798.61 97.16 798.61 84.56 465.72 84.56"/>
    <rect class="cls-2" x="182.24" y="77.28" width="15.19" height="94.78" transform="translate(379.66 249.34) rotate(-180)"/>
    <polygon class="cls-6" points="158.29 905.07 143.1 905.07 198.45 607.42 213.64 607.42 158.29 905.07"/>
    <polygon class="cls-2" points="213.45 607.42 198.26 607.42 187.17 181.94 202.36 181.94 213.45 607.42"/>
    <polygon class="cls-27" points="202.36 181.94 187.17 181.94 182.24 172.06 197.43 172.06 202.36 181.94"/>
    <path class="cls-6" d="M197.43,77.28h-15.19S213.68,7.55,213.68,7.55c.39-.91,1.28-1.51,2.27-1.51h9.83c1.77,0,2.96,1.8,2.27,3.43l-30.63,67.81Z"/>
    <path class="cls-27" d="M772.66,813.27c.01.05.01.1.01.15v-.15h-.01Z"/>
    <path class="cls-27" d="M316.43,790.58l-.18,8.58c-.01.48-.24.91-.63,1.2l-23.87,16.3c-.92.67-2.01.99-3.09.94-1.15-.02-2.28-.44-3.19-1.23l-19.2-15.73c-.33-.29-.52-.7-.52-1.14v-8.93h50.68Z"/>
    <path class="cls-2" d="M316.43,790.58l-.18,8.58c-.01.48-.24.91-.63,1.2l-23.87,16.3c-.92.67-2.01.99-3.09.94v-27.02h27.76Z"/>
    <path class="cls-6" d="M315.67,791.52l-26.08,17.35c-.63.42-1.46.39-2.06-.08l-21.1-16.67c-.94-.74-.87-2.19.13-2.85l26.09-16.96c.62-.41,1.44-.37,2.03.08l21.1,16.29c.95.73.9,2.18-.1,2.85Z"/>
    <path class="cls-27" d="M278.27,814.96l-.18,8.58c-.01.48-.24.91-.63,1.2l-23.87,16.3c-.92.67-2.01.99-3.09.94-1.15-.02-2.28-.44-3.19-1.23l-19.2-15.73c-.33-.29-.52-.7-.52-1.14v-8.93h50.68Z"/>
    <path class="cls-2" d="M278.27,814.96l-.18,8.58c-.01.48-.24.91-.63,1.2l-23.87,16.3c-.92.67-2.01.99-3.09.94v-27.02h27.76Z"/>
    <path class="cls-6" d="M277.51,815.9l-26.08,17.35c-.63.42-1.46.39-2.06-.08l-21.1-16.67c-.94-.74-.87-2.19.13-2.85l26.09-16.96c.62-.41,1.44-.37,2.03.08l21.1,16.29c.95.73.9,2.18-.1,2.85Z"/>
    <path class="cls-27" d="M347.42,814.96l-.18,8.58c-.01.48-.24.91-.63,1.2l-23.87,16.3c-.92.67-2.01.99-3.09.94-1.15-.02-2.28-.44-3.19-1.23l-19.2-15.73c-.33-.29-.52-.7-.52-1.14v-8.93h50.68Z"/>
    <path class="cls-2" d="M347.42,814.96l-.18,8.58c-.01.48-.24.91-.63,1.2l-23.87,16.3c-.92.67-2.01.99-3.09.94v-27.02h27.76Z"/>
    <path class="cls-6" d="M346.66,815.9l-26.08,17.35c-.63.42-1.46.39-2.06-.08l-21.1-16.67c-.94-.74-.87-2.19.13-2.85l26.09-16.96c.62-.41,1.44-.37,2.03.08l21.1,16.29c.95.73.9,2.18-.1,2.85Z"/>
    <path class="cls-27" d="M309.37,839.57l-.18,8.58c-.01.48-.24.91-.63,1.2l-23.87,16.3c-.92.67-2.01.99-3.09.94-1.15-.02-2.28-.44-3.19-1.23l-19.2-15.73c-.33-.29-.52-.7-.52-1.14v-8.93h50.68Z"/>
    <path class="cls-2" d="M309.37,839.57l-.18,8.58c-.01.48-.24.91-.63,1.2l-23.87,16.3c-.92.67-2.01.99-3.09.94v-27.02h27.76Z"/>
    <path class="cls-6" d="M308.61,840.5l-26.08,17.35c-.63.42-1.46.39-2.06-.08l-21.1-16.67c-.94-.74-.87-2.19.13-2.85l26.09-16.96c.62-.41,1.44-.37,2.03.08l21.1,16.29c.95.73.9,2.18-.1,2.85Z"/>
    <path class="cls-11" d="M406.76,863.56c-.16,4.62,3.55,8.45,8.17,8.45l119.35-.14v-47.43c.6-1.1,1.1-2.24,1.48-3.41.64-1.93.98-3.95.98-6.02,0-3.33-.87-6.51-2.46-9.43v-33.94l-116.2.24c-.51,0-1.01.05-1.49.14-1.72.3-3.26,1.12-4.45,2.3-1.5,1.46-2.46,3.49-2.53,5.75l-2.85,83.49Z"/>
    <path class="cls-17" d="M590.46,780.07c-.07-2.26-1.03-4.29-2.53-5.75-1.19-1.18-2.73-2-4.45-2.3l-.26.43-4.58,1.87-6.35,2.59-15.29,6.25-31.87,13.02-13.63,5.57-.26.1-11.2,4.58-11.2-4.58-.26-.1-13.63-5.57-31.87-13.02-15.29-6.25-6.35-2.59-4.58-1.87-.26-.43c-1.72.3-3.26,1.12-4.45,2.3-1.5,1.46-2.46,3.49-2.53,5.75l-2.85,83.49c-.16,4.62,3.55,8.45,8.17,8.45l119.35-.06h0l50.86.06c4.62,0,8.33-3.83,8.17-8.45l-2.85-83.49Z"/>
    <path class="cls-13" d="M585.04,774.07h0c-.01-1.04-.86-1.87-1.89-1.87h-117.43v.14l-48.86.1c-1.03,0-1.88.83-1.89,1.86h0s-1.39,83.05-1.39,83.05c-.03,2.05,1.61,3.72,3.65,3.72l117.01-.18,48.55-.06c2.04,0,3.68-1.67,3.65-3.72l-1.39-83.04Z"/>
    <path class="cls-15" d="M463.67,815.01c0,14.41,16.36,26.09,36.53,26.09,15.52,0,28.79-6.91,34.08-16.66.6-1.1,1.1-2.24,1.48-3.41.64-1.93.98-3.95.98-6.02,0-3.33-.87-6.51-2.46-9.43-3.85-7.08-11.9-12.66-21.96-15.18-3.79-.95-7.87-1.47-12.12-1.47s-8.06.48-11.74,1.38c-5.11,1.23-9.71,3.26-13.52,5.87-6.94,4.74-11.27,11.43-11.27,18.83Z"/>
    <path class="cls-15" d="M566.13,778.88c4.02,0,7.26,3.15,7.36,7.17l1.61,60.69c.05,2-.69,3.9-2.09,5.33-1.4,1.44-3.27,2.23-5.3,2.23l-137.2-.49c-2.08,0-4.01-.86-5.41-2.4-1.41-1.54-2.08-3.53-1.9-5.61v-.1s.01-.1.01-.1l1.25-60.09c.38-3.79,3.51-6.63,7.33-6.63h134.33M566.13,775.88h-134.33c-5.37,0-9.86,4.11-10.33,9.46l-1.26,60.2c-.53,6.04,4.22,11.24,10.29,11.27l137.2.49s.03,0,.04,0c5.83,0,10.52-4.81,10.36-10.64l-1.61-60.69c-.15-5.61-4.74-10.09-10.36-10.09h0Z"/>
    <path class="cls-15" d="M551.38,784.53c3.03,0,5.56,2.77,5.64,6.17l1.26,51.43c.05,1.84-.63,3.62-1.84,4.86-1.04,1.07-2.39,1.66-3.82,1.66l-106.99-.42c-1.46,0-2.85-.64-3.9-1.78-1.23-1.34-1.85-3.21-1.7-5.13v-.07s0-.07,0-.07l1.1-50.94c.29-3.21,2.74-5.71,5.61-5.71h104.63M551.38,782.09h-104.63c-4.19,0-7.69,3.48-8.05,8.02l-1.1,51.02c-.41,5.12,3.29,9.53,8.02,9.55l106.99.42s.02,0,.03,0c4.55,0,8.2-4.07,8.08-9.02l-1.26-51.43c-.12-4.76-3.7-8.55-8.08-8.55h0Z"/>
    <g>
      <path class="cls-29" d="M523.14,815.07c0,8.68-9.98,15.72-22.28,15.72-12.31,0-22.28-7.04-22.28-15.72s9.98-15.72,22.28-15.72c12.31,0,22.28,7.04,22.28,15.72Z"/>
      <path class="cls-19" d="M513.79,738.7l-.78,76.48c-1.95,3.57-6.67,5.7-11.49,5.82-4.78.14-9.67-1.7-12.04-6.05l-.24-76.4,12.28.08,12.27.07Z"/>
      <path class="cls-20" d="M501.52,738.63v82.37c-4.78.14-9.67-1.7-12.04-6.05l-.24-76.4,12.28.08Z"/>
      <ellipse class="cls-29" cx="501.52" cy="738.63" rx="8.26" ry="12.27" transform="translate(-257.05 1209.45) rotate(-87.65)"/>
    </g>
    <g>
      <path class="cls-12" d="M722.73,109.43v19.8l-11.42-17.68-1.43-2.12h-10.04v9.81c-3.85-5.9-10.49-9.81-18.03-9.81s-13.96,3.77-17.83,9.49v-9.48h-11.47v5.89c-2.45-3.57-6.55-5.89-11.23-5.89-4.13,0-7.83,1.85-10.34,4.77v-4.77h-16.43l-8.19,23.39-8.19-23.39h-11.83l15.08,43.06h9.87l8.23-23.48v23.48h11.47v-5.89c2.45,3.57,6.55,5.89,11.23,5.89,4.13,0,7.83-1.85,10.34-4.77v4.77h11.47v-9.48c3.87,5.72,10.42,9.48,17.83,9.48s14.19-3.91,18.03-9.8v9.8h11.47v-19.8l11.42,17.68,1.36,2.17,10.1-.05v-43.06h-11.47ZM681.81,120.6c5.71,0,10.36,4.65,10.36,10.37s-4.65,10.36-10.36,10.36-10.37-4.65-10.37-10.36,4.65-10.37,10.37-10.37ZM641.28,125.1c-1.12,0-2.03-.91-2.03-2.03s.91-2.03,2.03-2.03c1.05,0,1.93.83,2,1.9l.15,2.36c-.69-.1-1.35-.17-2.04-.19h-.12ZM642.18,136.83c1.12,0,2.03.91,2.03,2.03s-.91,2.03-2.03,2.03c-1.05,0-1.93-.83-2-1.9l-.15-2.36c.69.1,1.36.17,2.04.19h.12ZM652.51,129.47l-1.89-1.33c-.11-.09-.33-.25-.66-.47-1.26-.88-2.65-1.53-4.12-1.94l6.67.02v3.72ZM630.94,132.46l1.89,1.32c.11.09.33.25.66.47,1.26.88,2.65,1.53,4.12,1.94l-6.67-.02v-3.72Z"/>
      <path class="cls-12" d="M568.08,136.65h13.07v-11.47h-13.07v-4.28h13.07v-11.47h-24.54s0,6.42,0,6.42c-3.11-4.44-8.49-6.46-11.89-6.51-1.11,0-4.13,0-6.74,0-.69,0-1.35,0-1.95,0l-6.56.03v.05h-9.06v28.7s0,.15,0,.15c0,.01.03,1.52-.81,2.39-.54.56-1.45.84-2.71.84s-2.18-.28-2.72-.85c-.85-.88-.83-2.39-.83-2.4l.06-1.28-.05-.06v-27.5h-11.47s-19.94,0-19.94,0h-11.47v19.8l-11.42-17.68-1.41-2.12h-10.06v.05h-23.7l-13.08,21.71v-21.71h-8.06v-.05h-10.6l-8.19,23.39-8.19-23.39h-19.16l-8.19,23.39-8.19-23.39h-10.6v8.72c-3.93-5.31-10.21-8.77-17.3-8.77-7.55,0-14.18,3.91-18.03,9.81-2.31-6.78-9.41-9.78-13.57-9.84-1.11,0-4.13,0-6.74,0-.69,0-1.35,0-1.95,0l-6.56.03v43.07h11.47v-11.4l8.5,11.4h14.32l-12.2-16.34c1.12-.61,2.31-1.42,3.41-2.47,1.34,10.59,10.39,18.81,21.34,18.81,7.09,0,13.37-3.46,17.3-8.77v8.81h11.47v-6.81l2.39,6.81h9.87l2.39-6.81v6.81h20.9v-6.81l2.39,6.81h9.87l2.39-6.81v6.81h8.06v.05h5.47v.23l.14-.23h5.49l15-23.82v23.82h24.53v-.05h9.1v-19.8l11.42,17.68,1.37,2.12h10.1v-31.6h4.89v31.6h11.47v-31.6h3.58v17.17c-.03.89-.04,6.19,3.69,10.15,2.67,2.84,6.49,4.28,11.35,4.28,6.92,0,10.53-2.99,12.34-5.5.08-.12.15-.23.22-.35v5.8h11.47v-11.4l6.99,9.37,1.53,2.04h7.14v.05h24.54v-11.47h-13.07v-4.38ZM312.33,141.28c-5.72,0-10.37-4.65-10.37-10.36s4.65-10.37,10.37-10.37,10.36,4.65,10.36,10.37-4.65,10.36-10.36,10.36ZM280.29,127.86c-.63,0-1.98,0-3.34,0v-8.12c1.51,0,3.01,0,3.59,0,.03,0,3.32.3,3.32,4.08,0,3.18-2.57,3.88-3.54,4.03h-.02ZM436.9,136.7h10.69v4.38h-10.69v-4.38ZM436.9,125.23v-4.28h10.69v4.28h-10.69ZM544.29,127.86c-.63,0-1.97,0-3.34,0v-8.12c1.51,0,3.01,0,3.59,0,.03,0,3.32.3,3.32,4.08,0,3.18-2.57,3.88-3.54,4.03h-.02ZM556.61,142.85l-5.03-6.74c1.72-.94,3.59-2.32,5.03-4.32v11.06Z"/>
    </g>
    <g>
      <polygon class="cls-23" points="473.48 112.43 473.48 139.41 456.06 112.44 456.06 112.43 450.59 112.43 450.59 149.5 456.06 149.5 456.06 122.52 473.48 149.49 473.48 149.5 478.95 149.5 478.95 112.43 473.48 112.43"/>
      <polygon class="cls-23" points="502.45 112.43 495.31 112.43 489.84 112.43 481.56 112.43 481.56 117.9 489.84 117.9 489.84 149.5 495.31 149.5 495.31 117.9 502.45 117.9 502.45 112.43"/>
      <polygon class="cls-23" points="394.28 112.43 383.96 141.9 373.64 112.43 368.17 112.43 368.17 149.5 373.64 149.5 373.64 128.04 381.15 149.5 381.3 149.5 386.62 149.5 386.77 149.5 394.28 128.04 394.28 149.5 399.75 149.5 399.75 112.43 394.28 112.43"/>
      <polygon class="cls-23" points="358.74 112.43 348.42 141.9 338.09 112.43 332.62 112.43 332.62 149.5 338.09 149.5 338.09 128.04 345.61 149.5 345.75 149.5 351.08 149.5 351.22 149.5 358.74 128.04 358.74 149.5 364.21 149.5 364.21 112.43 358.74 112.43"/>
      <polygon class="cls-23" points="446.97 117.95 446.97 112.48 433.9 112.48 431.17 112.48 428.43 112.48 428.43 149.54 431.17 149.54 433.9 149.54 446.97 149.54 446.97 144.07 433.9 144.07 433.9 133.7 446.97 133.7 446.97 128.23 433.9 128.23 433.9 117.95 446.97 117.95"/>
      <polygon class="cls-23" points="565.08 144.03 565.08 133.65 578.15 133.65 578.15 128.18 565.08 128.18 565.08 117.9 578.15 117.9 578.15 112.43 565.08 112.43 565.08 112.43 559.61 112.43 559.61 149.5 562.35 149.5 565.08 149.5 578.15 149.5 578.15 144.03 565.08 144.03"/>
      <polygon class="cls-23" points="425.59 112.48 407.81 141.98 407.81 112.48 402.35 112.48 402.35 149.54 403.26 149.54 407.81 149.54 408.78 149.54 432.12 112.48 425.59 112.48"/>
      <path class="cls-23" d="M291.81,146.8l-1.65-2.21-.46-.61-2.77-3.72-.59-.79-3.47-4.66c2.4-.67,9.19-3.25,9.19-10.97,0-8.64-8.32-11.45-11.35-11.49h0c-1.1,0-4.11,0-6.74,0-.72,0-1.42,0-2.04,0h-2.94v.03h-.5v37.07h5.47v-17.42s.01,0,.02,0l2.01,2.7,10.36,13.89.59.79.03.04h6.83l-1.98-2.65ZM273.95,116.75h0c1.87-.01,5.6-.01,6.67,0,1.24.02,6.24,1.33,6.24,7.08,0,6.36-6.3,7.03-6.35,7.03h-.19c-1.14.01-4.58.01-6.37,0h0v-14.11Z"/>
      <path class="cls-23" d="M555.81,146.8l-1.65-2.21-.46-.61-2.77-3.72-.59-.79-3.47-4.66c2.4-.67,9.19-3.25,9.19-10.97,0-8.64-8.32-11.45-11.35-11.49h0c-1.1,0-4.11,0-6.74,0-.72,0-1.42,0-2.04,0h-2.94v.03h-.5v37.07h5.47v-17.42s.01,0,.02,0l2.01,2.7,10.36,13.89.59.79.03.04h6.83l-1.98-2.65ZM537.95,116.75h0c1.87-.01,5.6-.01,6.67,0,1.24.02,6.24,1.33,6.24,7.08,0,6.36-6.3,7.03-6.35,7.03h-.19c-1.14.01-4.58.01-6.37,0h0v-14.11Z"/>
      <path class="cls-23" d="M528.89,138.13h0v-25.7h-5.47v25.7h0s.41,6.38-6.52,6.38-6.55-6.38-6.55-6.38h0v-25.7h-5.47v25.7h0s-.69,11.37,12.04,11.37,11.97-11.37,11.97-11.37Z"/>
      <path class="cls-23" d="M312.33,112.38c-10.24,0-18.53,8.3-18.53,18.54s8.29,18.53,18.53,18.53,18.53-8.3,18.53-18.53-8.3-18.54-18.53-18.54ZM312.33,144.28c-7.38,0-13.37-5.98-13.37-13.36s5.99-13.37,13.37-13.37,13.36,5.98,13.36,13.37-5.98,13.36-13.36,13.36Z"/>
    </g>
    <g>
      <polygon class="cls-23" points="725.73 112.43 725.73 139.41 708.31 112.44 708.31 112.43 702.85 112.43 702.85 149.5 708.31 149.5 708.31 122.52 725.73 149.49 725.73 149.5 731.2 149.5 731.2 112.43 725.73 112.43"/>
      <rect class="cls-23" x="622.47" y="112.43" width="5.47" height="37.06" transform="translate(1250.41 261.93) rotate(180)"/>
      <polygon class="cls-23" points="616.63 112.43 606.31 141.9 595.99 112.43 590.52 112.43 603.5 149.5 603.65 149.5 608.97 149.5 609.12 149.5 622.1 112.43 616.63 112.43"/>
      <rect class="cls-23" x="655.51" y="112.43" width="5.47" height="37.06" transform="translate(1316.49 261.93) rotate(180)"/>
      <path class="cls-23" d="M681.81,112.43c-10.24,0-18.53,8.3-18.53,18.54s8.29,18.53,18.53,18.53,18.53-8.3,18.53-18.53-8.3-18.54-18.53-18.54ZM681.81,144.33c-7.38,0-13.37-5.98-13.37-13.36s5.99-13.37,13.37-13.37,13.36,5.98,13.36,13.37-5.98,13.36-13.36,13.36Z"/>
      <path class="cls-23" d="M648.81,130.56s0,0,.01-.01c0,0-.19-.16-.54-.39-1.49-1.05-3.26-1.72-5.18-1.89-.57-.09-1.18-.15-1.83-.18-2.78,0-5.03-2.25-5.03-5.03s2.25-5.03,5.03-5.03,4.83,2.08,5,4.7h5.62c-.17-5.71-4.85-10.31-10.62-10.31s-10.63,4.76-10.63,10.63c0,3.36,1.56,6.35,4,8.3,0,0,0,0-.01.01,0,0,.19.16.54.39,1.49,1.05,3.26,1.72,5.18,1.89.57.09,1.18.15,1.83.18,2.78,0,5.03,2.25,5.03,5.03s-2.25,5.03-5.03,5.03-4.83-2.08-5-4.7h-5.62c.17,5.71,4.85,10.31,10.62,10.31s10.63-4.76,10.63-10.63c0-3.36-1.56-6.35-4-8.3Z"/>
    </g>
  </g>
</svg>