<?xml version="1.0" encoding="UTF-8"?>
<svg xmlns="http://www.w3.org/2000/svg" viewBox="0 0 1000 1000">
  <defs>
    <style>
      .cls-1 {
        fill: #f2efee;
      }

      .cls-2 {
        fill: #e0d9d1;
      }

      .cls-3 {
        fill: #46546e;
      }

      .cls-4 {
        fill: none;
        stroke: #6c84a6;
        stroke-miterlimit: 10;
        stroke-width: 9px;
      }
    </style>
  </defs>
  <g id="Layer_1" data-name="Layer 1">
    <path class="cls-2" d="M522.89,19.92c-15.57-.68-31.15-.73-46.72-.13-34.27,1.33-83.05,3.86-116.3,5.77-44.07,2.52-54.17,34.43-54.17,48.66s-4.59,210.7-4.59,228.83-11.2,102.14-11.2,109.48v473.72c0,21.04,22.59,69.77,66.05,78.95,15.08,3.19,41.95,7.07,68.15,10.53,48.2,6.36,97,6.51,145.24.51,28.93-3.6,58.95-7.72,74.67-11.04,43.46-9.18,66.05-57.91,66.05-78.95v-473.72c0-7.34-11.2-91.35-11.2-109.48s-4.59-214.6-4.59-228.83-10.1-46.13-54.17-48.66c-32.34-1.85-86.26-4.28-117.24-5.64Z"/>
    <rect class="cls-1" x="60.19" y="336.92" width="879.62" height="312.66" rx="57.02" ry="57.02" transform="translate(6.75 993.25) rotate(-90)"/>
    <polygon class="cls-3" points="499.98 143.12 482.33 160.78 482.39 160.84 482.39 193.05 482.36 193.08 489.72 200.44 489.72 319.58 489.38 319.92 499.98 330.53 510.59 319.92 510.55 319.89 510.55 200.2 517.67 193.08 517.64 193.05 517.64 160.78 499.98 143.12"/>
  </g>
  <g id="TEXT">
    <g>
      <g>
        <path class="cls-4" d="M492.35,857.86l-2.28,11.81c-5.32-1.43-9.15-3.79-11.48-7.09-2.33-3.29-3.5-8.03-3.5-14.21,0-5.5.68-9.7,2.04-12.6,1.36-2.9,3.2-4.97,5.54-6.21,2.33-1.24,6.58-1.86,12.73-1.86l16.28.11c4.57,0,7.97-.21,10.2-.62,2.23-.41,4.61-1.19,7.12-2.32v12.88l-5.75,1.7c2.32,2.22,4.06,4.6,5.23,7.15,1.17,2.54,1.76,5.25,1.76,8.11,0,4.78-1.42,8.7-4.25,11.75-2.83,3.05-6.6,4.58-11.3,4.58-2.98,0-5.58-.62-7.8-1.86-2.22-1.24-3.99-2.99-5.31-5.25-1.32-2.26-2.5-5.88-3.53-10.85-1.22-6.03-2.37-10.22-3.43-12.6-2.93,0-4.85.24-5.76.71-.91.47-1.66,1.34-2.24,2.6-.58,1.26-.87,3.04-.87,5.34s.46,4.17,1.39,5.51c.93,1.34,2.66,2.42,5.21,3.25ZM503.71,840.46c.6,1.66,1.29,4.24,2.09,7.74.93,4.03,1.96,6.67,3.08,7.91,1.13,1.24,2.59,1.86,4.38,1.86,2.02,0,3.72-.69,5.1-2.06,1.38-1.37,2.07-3.1,2.07-5.17,0-1.84-.55-3.67-1.67-5.48-1.11-1.81-2.43-3.06-3.96-3.76-1.52-.7-4.29-1.04-8.31-1.04h-2.79Z"/>
        <path class="cls-4" d="M469.19,823.95h-12.9v-13.05h12.9v13.05ZM529.01,823.95h-52.68v-13.05h52.68v13.05Z"/>
        <path class="cls-4" d="M529.01,794.23v13.05h-52.68v-12.09h7.49c-3.5-2.07-5.84-3.93-6.99-5.56-1.16-1.64-1.74-3.53-1.74-5.68,0-2.97.88-5.82,2.63-8.53l12.15,4.07c-1.52,2.15-2.28,4.18-2.28,6.1,0,1.81.59,3.4,1.76,4.77,1.18,1.38,3.3,2.36,6.38,2.97s8.74.9,16.98.9h16.29Z"/>
        <path class="cls-4" d="M529.01,749.24v13.05h-52.68v-12.09h7.49c-3.5-2.07-5.84-3.93-6.99-5.56-1.16-1.64-1.74-3.53-1.74-5.68,0-2.97.88-5.82,2.63-8.53l12.15,4.07c-1.52,2.15-2.28,4.18-2.28,6.1,0,1.81.59,3.4,1.76,4.77,1.18,1.38,3.3,2.36,6.38,2.97s8.74.9,16.98.9h16.29Z"/>
        <path class="cls-4" d="M501.92,737.02c-5.17,0-9.87-1.17-14.11-3.5s-7.42-5.39-9.54-9.15c-2.12-3.77-3.18-8-3.18-12.71,0-7.91,2.73-14.12,8.17-18.64,5.45-4.52,11.82-6.78,19.11-6.78,5.43,0,10.34,1.18,14.71,3.53,4.37,2.35,7.66,5.44,9.86,9.26,2.2,3.82,3.3,8.01,3.3,12.57,0,7.31-2.45,13.37-7.35,18.19-4.9,4.82-11.89,7.23-20.97,7.23ZM502.67,723.69c5.34,0,9.38-1.19,12.12-3.57s4.1-5.25,4.1-8.61-1.38-6.1-4.13-8.44-6.82-3.51-12.19-3.51-9.24,1.19-11.99,3.57-4.13,5.23-4.13,8.55,1.38,6.11,4.13,8.47,6.78,3.54,12.09,3.54Z"/>
        <path class="cls-4" d="M476.33,686.17v-11.98h7.19c-2.81-2.15-4.92-4.5-6.32-7.06-1.41-2.56-2.11-5.33-2.11-8.3,0-3.16.69-5.9,2.08-8.22s3.49-4.21,6.3-5.68c-2.81-2.18-4.91-4.53-6.3-7.03s-2.08-5.17-2.08-7.99c0-3.35.7-6.24,2.11-8.67,1.41-2.43,3.42-4.27,6.03-5.54,2.62-1.26,6.64-1.89,12.06-1.89h33.71v13.05h-30.14c-5.26,0-8.76.53-10.5,1.58-1.74,1.05-2.61,2.83-2.61,5.31,0,2.9,1.22,5.24,3.65,7,2.43,1.77,7.19,2.66,14.28,2.66h25.33v13.05h-28.9c-5.73,0-9.42.36-11.07,1.07-2.18.94-3.28,2.84-3.28,5.71,0,1.92.56,3.69,1.69,5.31s2.77,2.79,4.94,3.5c2.17.72,5.84,1.07,11,1.07h25.62v13.05h-52.68Z"/>
        <path class="cls-4" d="M476.33,610.97v-11.98h7.19c-2.81-2.15-4.92-4.5-6.32-7.06-1.41-2.56-2.11-5.33-2.11-8.3,0-3.16.69-5.9,2.08-8.22s3.49-4.21,6.3-5.68c-2.81-2.18-4.91-4.53-6.3-7.03s-2.08-5.17-2.08-7.99c0-3.35.7-6.24,2.11-8.67,1.41-2.43,3.42-4.27,6.03-5.54,2.62-1.26,6.64-1.89,12.06-1.89h33.71v13.05h-30.14c-5.26,0-8.76.53-10.5,1.58-1.74,1.05-2.61,2.83-2.61,5.31,0,2.9,1.22,5.24,3.65,7,2.43,1.77,7.19,2.66,14.28,2.66h25.33v13.05h-28.9c-5.73,0-9.42.36-11.07,1.07-2.18.94-3.28,2.84-3.28,5.71,0,1.92.56,3.69,1.69,5.31s2.77,2.79,4.94,3.5c2.17.72,5.84,1.07,11,1.07h25.62v13.05h-52.68Z"/>
        <path class="cls-4" d="M514.03,539.32l-2.13-13.05c5.52-1.13,8.28-4.63,8.28-10.51,0-3.13-.53-5.46-1.59-7-1.06-1.54-2.43-2.32-4.12-2.32-1.16,0-2.07.34-2.73,1.02-.66.72-1.24,2.13-1.73,4.25-2.5,10.69-4.87,17.48-7.12,20.38-2.82,3.62-6.68,5.42-11.58,5.42s-8.83-1.77-11.78-5.31c-2.95-3.54-4.42-8.68-4.42-15.42s1.1-11.33,3.3-14.69c2.2-3.35,5.75-5.71,10.64-7.06l2.43,12.26c-4.23,1.09-6.35,4.18-6.35,9.26,0,3.2.41,5.48,1.22,6.83.81,1.36,1.86,2.03,3.16,2.03,1.16,0,2.12-.62,2.88-1.86.79-1.24,2-5.1,3.6-11.57,1.81-7.26,3.99-12.2,6.53-14.8,2.55-2.56,5.94-3.85,10.17-3.85,5.09,0,9.3,1.99,12.61,5.96,3.31,3.97,4.96,9.46,4.96,16.47,0,6.37-1.38,11.56-4.14,15.59-2.76,4.03-6.79,6.69-12.08,7.96Z"/>
        <path class="cls-4" d="M501.92,494.18c-5.17,0-9.87-1.17-14.11-3.5-4.24-2.33-7.42-5.38-9.54-9.15-2.12-3.77-3.18-8-3.18-12.71,0-7.91,2.73-14.12,8.17-18.64,5.45-4.52,11.82-6.78,19.11-6.78,5.43,0,10.34,1.18,14.71,3.53,4.37,2.35,7.66,5.44,9.86,9.26,2.2,3.82,3.3,8.01,3.3,12.57,0,7.31-2.45,13.37-7.35,18.19-4.9,4.82-11.89,7.23-20.97,7.23ZM502.67,480.84c5.34,0,9.38-1.19,12.12-3.57s4.1-5.25,4.1-8.61-1.38-6.1-4.13-8.44c-2.75-2.34-6.82-3.51-12.19-3.51s-9.24,1.19-11.99,3.57-4.13,5.23-4.13,8.55,1.38,6.11,4.13,8.47,6.78,3.54,12.09,3.54Z"/>
        <path class="cls-4" d="M529.01,442.31h-72.72v-13.05h72.72v13.05Z"/>
        <path class="cls-4" d="M512.29,396.48l2.33-12.94c5.29,1.74,9.22,4.43,11.78,8.09,2.56,3.66,3.84,8.11,3.84,13.35,0,7.28-2.14,12.9-6.41,16.86-4.97,4.68-11.93,7.01-20.87,7.01s-15.87-2.35-21.17-7.06c-4.47-3.99-6.71-9.15-6.71-15.48,0-7.04,2.29-12.56,6.86-16.55,5.23-4.59,12.95-6.89,23.15-6.89l1.59.06v32.6c4.18-.08,7.42-1.14,9.71-3.2s3.43-4.54,3.43-7.45c0-4.19-2.51-6.99-7.54-8.39ZM498.15,395.8c-4.12.11-7.21,1.11-9.29,2.99-2.07,1.88-3.11,4.12-3.11,6.72,0,2.75,1.08,5.07,3.24,6.95,2.19,1.92,5.25,2.86,9.16,2.82v-19.49Z"/>
      </g>
      <g>
        <path class="cls-1" d="M492.29,857.86l-2.28,11.81c-5.32-1.43-9.15-3.79-11.48-7.09-2.33-3.29-3.5-8.03-3.5-14.21,0-5.5.68-9.7,2.04-12.6,1.36-2.9,3.2-4.97,5.54-6.21,2.33-1.24,6.58-1.86,12.73-1.86l16.28.11c4.57,0,7.97-.21,10.2-.62,2.23-.41,4.61-1.19,7.12-2.32v12.88l-5.75,1.7c2.32,2.22,4.06,4.6,5.23,7.15,1.17,2.54,1.76,5.25,1.76,8.11,0,4.78-1.42,8.7-4.25,11.75-2.83,3.05-6.6,4.58-11.3,4.58-2.98,0-5.58-.62-7.8-1.86-2.22-1.24-3.99-2.99-5.31-5.25-1.32-2.26-2.5-5.88-3.53-10.85-1.22-6.03-2.37-10.22-3.43-12.6-2.93,0-4.85.24-5.76.71-.91.47-1.66,1.34-2.24,2.6-.58,1.26-.87,3.04-.87,5.34s.46,4.17,1.39,5.51c.93,1.34,2.66,2.42,5.21,3.25ZM503.64,840.46c.6,1.66,1.29,4.24,2.09,7.74.93,4.03,1.96,6.67,3.08,7.91,1.13,1.24,2.59,1.86,4.38,1.86,2.02,0,3.72-.69,5.1-2.06,1.38-1.37,2.07-3.1,2.07-5.17,0-1.84-.55-3.67-1.67-5.48-1.11-1.81-2.43-3.06-3.96-3.76-1.52-.7-4.29-1.04-8.31-1.04h-2.79Z"/>
        <path class="cls-1" d="M469.12,823.95h-12.9v-13.05h12.9v13.05ZM528.94,823.95h-52.68v-13.05h52.68v13.05Z"/>
        <path class="cls-1" d="M528.94,794.23v13.05h-52.68v-12.09h7.49c-3.5-2.07-5.84-3.93-6.99-5.56-1.16-1.64-1.74-3.53-1.74-5.68,0-2.97.88-5.82,2.63-8.53l12.15,4.07c-1.52,2.15-2.28,4.18-2.28,6.1,0,1.81.59,3.4,1.76,4.77,1.18,1.38,3.3,2.36,6.38,2.97s8.74.9,16.98.9h16.29Z"/>
        <path class="cls-1" d="M528.94,749.24v13.05h-52.68v-12.09h7.49c-3.5-2.07-5.84-3.93-6.99-5.56-1.16-1.64-1.74-3.53-1.74-5.68,0-2.97.88-5.82,2.63-8.53l12.15,4.07c-1.52,2.15-2.28,4.18-2.28,6.1,0,1.81.59,3.4,1.76,4.77,1.18,1.38,3.3,2.36,6.38,2.97s8.74.9,16.98.9h16.29Z"/>
        <path class="cls-1" d="M501.86,737.02c-5.17,0-9.87-1.17-14.11-3.5s-7.42-5.39-9.54-9.15c-2.12-3.77-3.18-8-3.18-12.71,0-7.91,2.73-14.12,8.17-18.64,5.45-4.52,11.82-6.78,19.11-6.78,5.43,0,10.34,1.18,14.71,3.53,4.37,2.35,7.66,5.44,9.86,9.26,2.2,3.82,3.3,8.01,3.3,12.57,0,7.31-2.45,13.37-7.35,18.19-4.9,4.82-11.89,7.23-20.97,7.23ZM502.6,723.69c5.34,0,9.38-1.19,12.12-3.57s4.1-5.25,4.1-8.61-1.38-6.1-4.13-8.44-6.82-3.51-12.19-3.51-9.24,1.19-11.99,3.57-4.13,5.23-4.13,8.55,1.38,6.11,4.13,8.47,6.78,3.54,12.09,3.54Z"/>
        <path class="cls-1" d="M476.26,686.17v-11.98h7.19c-2.81-2.15-4.92-4.5-6.32-7.06-1.41-2.56-2.11-5.33-2.11-8.3,0-3.16.69-5.9,2.08-8.22s3.49-4.21,6.3-5.68c-2.81-2.18-4.91-4.53-6.3-7.03s-2.08-5.17-2.08-7.99c0-3.35.7-6.24,2.11-8.67,1.41-2.43,3.42-4.27,6.03-5.54,2.62-1.26,6.64-1.89,12.06-1.89h33.71v13.05h-30.14c-5.26,0-8.76.53-10.5,1.58-1.74,1.05-2.61,2.83-2.61,5.31,0,2.9,1.22,5.24,3.65,7,2.43,1.77,7.19,2.66,14.28,2.66h25.33v13.05h-28.9c-5.73,0-9.42.36-11.07,1.07-2.18.94-3.28,2.84-3.28,5.71,0,1.92.56,3.69,1.69,5.31s2.77,2.79,4.94,3.5c2.17.72,5.84,1.07,11,1.07h25.62v13.05h-52.68Z"/>
        <path class="cls-1" d="M476.26,610.97v-11.98h7.19c-2.81-2.15-4.92-4.5-6.32-7.06-1.41-2.56-2.11-5.33-2.11-8.3,0-3.16.69-5.9,2.08-8.22s3.49-4.21,6.3-5.68c-2.81-2.18-4.91-4.53-6.3-7.03s-2.08-5.17-2.08-7.99c0-3.35.7-6.24,2.11-8.67,1.41-2.43,3.42-4.27,6.03-5.54,2.62-1.26,6.64-1.89,12.06-1.89h33.71v13.05h-30.14c-5.26,0-8.76.53-10.5,1.58-1.74,1.05-2.61,2.83-2.61,5.31,0,2.9,1.22,5.24,3.65,7,2.43,1.77,7.19,2.66,14.28,2.66h25.33v13.05h-28.9c-5.73,0-9.42.36-11.07,1.07-2.18.94-3.28,2.84-3.28,5.71,0,1.92.56,3.69,1.69,5.31s2.77,2.79,4.94,3.5c2.17.72,5.84,1.07,11,1.07h25.62v13.05h-52.68Z"/>
        <path class="cls-1" d="M513.96,539.32l-2.13-13.05c5.52-1.13,8.28-4.63,8.28-10.51,0-3.13-.53-5.46-1.59-7-1.06-1.54-2.43-2.32-4.12-2.32-1.16,0-2.07.34-2.73,1.02-.66.72-1.24,2.13-1.73,4.25-2.5,10.69-4.87,17.48-7.12,20.38-2.82,3.62-6.68,5.42-11.58,5.42s-8.83-1.77-11.78-5.31c-2.95-3.54-4.42-8.68-4.42-15.42s1.1-11.33,3.3-14.69c2.2-3.35,5.75-5.71,10.64-7.06l2.43,12.26c-4.23,1.09-6.35,4.18-6.35,9.26,0,3.2.41,5.48,1.22,6.83.81,1.36,1.86,2.03,3.16,2.03,1.16,0,2.12-.62,2.88-1.86.79-1.24,2-5.1,3.6-11.57,1.81-7.26,3.99-12.2,6.53-14.8,2.55-2.56,5.94-3.85,10.17-3.85,5.09,0,9.3,1.99,12.61,5.96,3.31,3.97,4.96,9.46,4.96,16.47,0,6.37-1.38,11.56-4.14,15.59-2.76,4.03-6.79,6.69-12.08,7.96Z"/>
        <path class="cls-1" d="M501.86,494.18c-5.17,0-9.87-1.17-14.11-3.5-4.24-2.33-7.42-5.38-9.54-9.15-2.12-3.77-3.18-8-3.18-12.71,0-7.91,2.73-14.12,8.17-18.64,5.45-4.52,11.82-6.78,19.11-6.78,5.43,0,10.34,1.18,14.71,3.53,4.37,2.35,7.66,5.44,9.86,9.26,2.2,3.82,3.3,8.01,3.3,12.57,0,7.31-2.45,13.37-7.35,18.19-4.9,4.82-11.89,7.23-20.97,7.23ZM502.6,480.84c5.34,0,9.38-1.19,12.12-3.57s4.1-5.25,4.1-8.61-1.38-6.1-4.13-8.44c-2.75-2.34-6.82-3.51-12.19-3.51s-9.24,1.19-11.99,3.57-4.13,5.23-4.13,8.55,1.38,6.11,4.13,8.47,6.78,3.54,12.09,3.54Z"/>
        <path class="cls-1" d="M528.94,442.31h-72.72v-13.05h72.72v13.05Z"/>
        <path class="cls-1" d="M512.23,396.48l2.33-12.94c5.29,1.74,9.22,4.43,11.78,8.09,2.56,3.66,3.84,8.11,3.84,13.35,0,7.28-2.14,12.9-6.41,16.86-4.97,4.68-11.93,7.01-20.87,7.01s-15.87-2.35-21.17-7.06c-4.47-3.99-6.71-9.15-6.71-15.48,0-7.04,2.29-12.56,6.86-16.55,5.23-4.59,12.95-6.89,23.15-6.89l1.59.06v32.6c4.18-.08,7.42-1.14,9.71-3.2s3.43-4.54,3.43-7.45c0-4.19-2.51-6.99-7.54-8.39ZM498.09,395.8c-4.12.11-7.21,1.11-9.29,2.99-2.07,1.88-3.11,4.12-3.11,6.72,0,2.75,1.08,5.07,3.24,6.95,2.19,1.92,5.25,2.86,9.16,2.82v-19.49Z"/>
      </g>
    </g>
  </g>
</svg>