<svg xmlns="http://www.w3.org/2000/svg" viewBox="0 0 1000 1000"><defs><style>.cls-1{fill:#29313c}.cls-4{fill:#1f242d}.cls-7{fill:#69788b}.cls-8{fill:#3c505e}.cls-9{fill:#848b91}.cls-11{fill:#bac2d2}</style></defs><g id="Layer_1" data-name="Layer 1"><path d="M626.42 252.11v-13.85c0-2.68 2.18-4.86 4.86-4.86h254.2l102.51 31.46-52.55 4.42-309.02-17.18Z" class="cls-4"/><path d="m987.99 264.87-13.95 415L36.02 467.15l-24.01-5.45v-50.97l134.9-153.46h53.82l13.18 12.02h721.52l8.02-8.59z" style="fill:#8e2d39"/><path d="M172.68 346.6 36.02 467.15l-24.01-5.45v-50.97l134.9-153.46z" style="fill:#af4556"/><path d="M12.01 766.91h873.85l88.18-87.04-8.59-370.5H163.76L12.01 461.7z" style="fill:#b72c36"/><path d="m965.45 309.37 22.54-44.5-13.95 415z" style="fill:#691428"/><path d="M420.04 249.9v-11.87c0-2.73-2.21-4.94-4.94-4.94H239.77l-92.86 24.18h53.82l56.47-12.63 162.84 5.25Z" class="cls-4"/><path d="m200.73 257.27 56.47-12.63v24.65h-43.29z" class="cls-1"/><path d="M257.2 244.64h157.59c2.9 0 5.25 2.35 5.25 5.25v19.39H257.2v-24.65Zm369.22 24.65v-17.18c0-3.83 3.1-6.93 6.93-6.93h252.13v24.11z" style="fill:#434851"/><path d="m885.48 245.18 57.97 15.52-8.02 8.59h-49.95z" class="cls-1"/><path d="M178.75 406.25h692.93v51.16h24.62v58.56h-16.67v49.92h-19.87v53.03H727.87v52.84H314.31v-52.84H169.46V517.09H152.3v-61.1h26.85z" style="fill:#121212"/><rect width="49.13" height="49.13" x="183.21" y="410.92" class="cls-9" rx="1.69" ry="1.69"/><path d="M223.01 449.56a95.5 95.5 0 0 1-30.46 0 2.87 2.87 0 0 1-2.87-2.87v-30.46a2.87 2.87 0 0 1 2.87-2.87h30.46a2.87 2.87 0 0 1 2.87 2.87v30.46a2.87 2.87 0 0 1-2.87 2.87" class="cls-11"/><rect width="49.13" height="49.13" x="553.24" y="410.92" class="cls-9" rx="1.69" ry="1.69"/><path d="M593.04 449.56a95.5 95.5 0 0 1-30.46 0 2.87 2.87 0 0 1-2.87-2.87v-30.46a2.87 2.87 0 0 1 2.87-2.87h30.46a2.87 2.87 0 0 1 2.87 2.87v30.46a2.87 2.87 0 0 1-2.87 2.87" class="cls-11"/><rect width="49.13" height="49.13" x="500.38" y="410.92" class="cls-9" rx="1.69" ry="1.69"/><path d="M540.18 449.56a95.5 95.5 0 0 1-30.46 0 2.87 2.87 0 0 1-2.87-2.87v-30.46a2.87 2.87 0 0 1 2.87-2.87h30.46a2.87 2.87 0 0 1 2.87 2.87v30.46a2.87 2.87 0 0 1-2.87 2.87" class="cls-11"/><rect width="49.13" height="49.13" x="447.52" y="410.92" class="cls-9" rx="1.69" ry="1.69"/><path d="M487.32 449.56a95.5 95.5 0 0 1-30.46 0 2.87 2.87 0 0 1-2.87-2.87v-30.46a2.87 2.87 0 0 1 2.87-2.87h30.46a2.87 2.87 0 0 1 2.87 2.87v30.46a2.87 2.87 0 0 1-2.87 2.87" class="cls-11"/><rect width="49.13" height="49.13" x="394.66" y="410.92" class="cls-9" rx="1.69" ry="1.69"/><path d="M434.46 449.56a95.5 95.5 0 0 1-30.46 0 2.87 2.87 0 0 1-2.87-2.87v-30.46a2.87 2.87 0 0 1 2.87-2.87h30.46a2.87 2.87 0 0 1 2.87 2.87v30.46a2.87 2.87 0 0 1-2.87 2.87" class="cls-11"/><rect width="49.13" height="49.13" x="341.8" y="410.92" class="cls-9" rx="1.69" ry="1.69"/><path d="M381.6 449.56a95.5 95.5 0 0 1-30.46 0 2.87 2.87 0 0 1-2.87-2.87v-30.46a2.87 2.87 0 0 1 2.87-2.87h30.46a2.87 2.87 0 0 1 2.87 2.87v30.46a2.87 2.87 0 0 1-2.87 2.87" class="cls-11"/><rect width="49.13" height="49.13" x="288.94" y="410.92" class="cls-9" rx="1.69" ry="1.69"/><path d="M328.73 449.56a95.5 95.5 0 0 1-30.46 0 2.87 2.87 0 0 1-2.87-2.87v-30.46a2.87 2.87 0 0 1 2.87-2.87h30.46a2.87 2.87 0 0 1 2.87 2.87v30.46a2.87 2.87 0 0 1-2.87 2.87" class="cls-11"/><rect width="49.13" height="49.13" x="236.08" y="410.92" class="cls-9" rx="1.69" ry="1.69"/><path d="M275.87 449.56a95.5 95.5 0 0 1-30.46 0 2.87 2.87 0 0 1-2.87-2.87v-30.46a2.87 2.87 0 0 1 2.87-2.87h30.46a2.87 2.87 0 0 1 2.87 2.87v30.46a2.87 2.87 0 0 1-2.87 2.87" class="cls-11"/><rect width="49.13" height="49.13" x="208.95" y="462.81" class="cls-9" rx="1.69" ry="1.69"/><path d="M248.75 501.45a95.5 95.5 0 0 1-30.46 0 2.87 2.87 0 0 1-2.87-2.87v-30.46a2.87 2.87 0 0 1 2.87-2.87h30.46a2.87 2.87 0 0 1 2.87 2.87v30.46a2.87 2.87 0 0 1-2.87 2.87" class="cls-11"/><rect width="49.13" height="49.13" x="156.01" y="462.81" class="cls-8" rx="1.69" ry="1.69"/><path d="M195.81 501.45a95.5 95.5 0 0 1-30.46 0 2.87 2.87 0 0 1-2.87-2.87v-30.46a2.87 2.87 0 0 1 2.87-2.87h30.46a2.87 2.87 0 0 1 2.87 2.87v30.46a2.87 2.87 0 0 1-2.87 2.87" class="cls-7"/><rect width="49.13" height="49.13" x="578.98" y="462.81" class="cls-9" rx="1.69" ry="1.69"/><path d="M618.78 501.45a95.5 95.5 0 0 1-30.46 0 2.87 2.87 0 0 1-2.87-2.87v-30.46a2.87 2.87 0 0 1 2.87-2.87h30.46a2.87 2.87 0 0 1 2.87 2.87v30.46a2.87 2.87 0 0 1-2.87 2.87" class="cls-11"/><rect width="49.13" height="49.13" x="526.12" y="462.81" class="cls-9" rx="1.69" ry="1.69"/><path d="M565.92 501.45a95.5 95.5 0 0 1-30.46 0 2.87 2.87 0 0 1-2.87-2.87v-30.46a2.87 2.87 0 0 1 2.87-2.87h30.46a2.87 2.87 0 0 1 2.87 2.87v30.46a2.87 2.87 0 0 1-2.87 2.87" class="cls-11"/><rect width="49.13" height="49.13" x="473.26" y="462.81" class="cls-9" rx="1.69" ry="1.69"/><path d="M513.06 501.45a95.5 95.5 0 0 1-30.46 0 2.87 2.87 0 0 1-2.87-2.87v-30.46a2.87 2.87 0 0 1 2.87-2.87h30.46a2.87 2.87 0 0 1 2.87 2.87v30.46a2.87 2.87 0 0 1-2.87 2.87" class="cls-11"/><rect width="49.13" height="49.13" x="420.4" y="462.81" class="cls-9" rx="1.69" ry="1.69"/><path d="M460.2 501.45a95.5 95.5 0 0 1-30.46 0 2.87 2.87 0 0 1-2.87-2.87v-30.46a2.87 2.87 0 0 1 2.87-2.87h30.46a2.87 2.87 0 0 1 2.87 2.87v30.46a2.87 2.87 0 0 1-2.87 2.87" class="cls-11"/><rect width="49.13" height="49.13" x="367.54" y="462.81" class="cls-9" rx="1.69" ry="1.69"/><path d="M407.34 501.45a95.5 95.5 0 0 1-30.46 0 2.87 2.87 0 0 1-2.87-2.87v-30.46a2.87 2.87 0 0 1 2.87-2.87h30.46a2.87 2.87 0 0 1 2.87 2.87v30.46a2.87 2.87 0 0 1-2.87 2.87" class="cls-11"/><rect width="49.13" height="49.13" x="314.68" y="462.81" class="cls-9" rx="1.69" ry="1.69"/><path d="M354.47 501.45a95.5 95.5 0 0 1-30.46 0 2.87 2.87 0 0 1-2.87-2.87v-30.46a2.87 2.87 0 0 1 2.87-2.87h30.46a2.87 2.87 0 0 1 2.87 2.87v30.46a2.87 2.87 0 0 1-2.87 2.87" class="cls-11"/><rect width="49.13" height="49.13" x="261.81" y="462.81" class="cls-9" rx="1.69" ry="1.69"/><path d="M301.61 501.45a95.5 95.5 0 0 1-30.46 0 2.87 2.87 0 0 1-2.87-2.87v-30.46a2.87 2.87 0 0 1 2.87-2.87h30.46a2.87 2.87 0 0 1 2.87 2.87v30.46a2.87 2.87 0 0 1-2.87 2.87" class="cls-11"/><rect width="49.13" height="49.13" x="227.78" y="514.71" class="cls-9" rx="1.69" ry="1.69"/><path d="M267.58 553.34a95.5 95.5 0 0 1-30.46 0 2.87 2.87 0 0 1-2.87-2.87v-30.46a2.87 2.87 0 0 1 2.87-2.87h30.46a2.87 2.87 0 0 1 2.87 2.87v30.46a2.87 2.87 0 0 1-2.87 2.87" class="cls-11"/><rect width="73.61" height="49.13" x="780.36" y="566.6" class="cls-8" rx="2.06" ry="2.06"/><path d="M843.99 605.24a295 295 0 0 1-53.64 0c-2.79 0-5.04-1.28-5.04-2.87v-30.46c0-1.58 2.26-2.87 5.04-2.87h53.64c2.79 0 5.04 1.28 5.04 2.87v30.46c0 1.58-2.26 2.87-5.04 2.87" class="cls-7"/><rect width="73.61" height="49.13" x="174.84" y="566.6" class="cls-8" rx="2.06" ry="2.06"/><path d="M238.47 605.24a295 295 0 0 1-53.64 0c-2.79 0-5.04-1.28-5.04-2.87v-30.46c0-1.58 2.26-2.87 5.04-2.87h53.64c2.79 0 5.04 1.28 5.04 2.87v30.46c0 1.58-2.26 2.87-5.04 2.87" class="cls-7"/><rect width="49.13" height="49.13" x="174.84" y="514.71" class="cls-8" rx="1.69" ry="1.69"/><path d="M214.64 553.34a95.5 95.5 0 0 1-30.46 0 2.87 2.87 0 0 1-2.87-2.87v-30.46a2.87 2.87 0 0 1 2.87-2.87h30.46a2.87 2.87 0 0 1 2.87 2.87v30.46a2.87 2.87 0 0 1-2.87 2.87" class="cls-7"/><rect width="49.13" height="49.13" x="764.69" y="410.92" class="cls-9" rx="1.69" ry="1.69"/><path d="M804.49 449.56a95.5 95.5 0 0 1-30.46 0 2.87 2.87 0 0 1-2.87-2.87v-30.46a2.87 2.87 0 0 1 2.87-2.87h30.46a2.87 2.87 0 0 1 2.87 2.87v30.46a2.87 2.87 0 0 1-2.87 2.87" class="cls-11"/><rect width="49.13" height="49.13" x="711.83" y="410.92" class="cls-9" rx="1.69" ry="1.69"/><path d="M751.63 449.56a95.5 95.5 0 0 1-30.46 0 2.87 2.87 0 0 1-2.87-2.87v-30.46a2.87 2.87 0 0 1 2.87-2.87h30.46a2.87 2.87 0 0 1 2.87 2.87v30.46a2.87 2.87 0 0 1-2.87 2.87" class="cls-11"/><rect width="49.13" height="49.13" x="817.17" y="410.92" class="cls-9" rx="1.69" ry="1.69"/><path d="M856.96 449.56a95.5 95.5 0 0 1-30.46 0 2.87 2.87 0 0 1-2.87-2.87v-30.46a2.87 2.87 0 0 1 2.87-2.87h30.46a2.87 2.87 0 0 1 2.87 2.87v30.46a2.87 2.87 0 0 1-2.87 2.87" class="cls-11"/><rect width="49.13" height="49.13" x="658.97" y="410.92" class="cls-9" rx="1.69" ry="1.69"/><path d="M698.77 449.56a95.5 95.5 0 0 1-30.46 0 2.87 2.87 0 0 1-2.87-2.87v-30.46a2.87 2.87 0 0 1 2.87-2.87h30.46a2.87 2.87 0 0 1 2.87 2.87v30.46a2.87 2.87 0 0 1-2.87 2.87" class="cls-11"/><rect width="49.13" height="49.13" x="606.11" y="410.92" class="cls-9" rx="1.69" ry="1.69"/><path d="M645.9 449.56a95.5 95.5 0 0 1-30.46 0 2.87 2.87 0 0 1-2.87-2.87v-30.46a2.87 2.87 0 0 1 2.87-2.87h30.46a2.87 2.87 0 0 1 2.87 2.87v30.46a2.87 2.87 0 0 1-2.87 2.87" class="cls-11"/><rect width="49.13" height="49.13" x="790.43" y="462.81" class="cls-9" rx="1.69" ry="1.69"/><path d="M830.23 501.45a95.5 95.5 0 0 1-30.46 0 2.87 2.87 0 0 1-2.87-2.87v-30.46a2.87 2.87 0 0 1 2.87-2.87h30.46a2.87 2.87 0 0 1 2.87 2.87v30.46a2.87 2.87 0 0 1-2.87 2.87" class="cls-11"/><rect width="49.13" height="49.13" x="737.57" y="462.81" class="cls-9" rx="1.69" ry="1.69"/><path d="M777.37 501.45a95.5 95.5 0 0 1-30.46 0 2.87 2.87 0 0 1-2.87-2.87v-30.46a2.87 2.87 0 0 1 2.87-2.87h30.46a2.87 2.87 0 0 1 2.87 2.87v30.46a2.87 2.87 0 0 1-2.87 2.87" class="cls-11"/><rect width="49.13" height="49.13" x="842.91" y="462.81" class="cls-9" rx="1.69" ry="1.69"/><path d="M882.7 501.45a95.5 95.5 0 0 1-30.46 0 2.87 2.87 0 0 1-2.87-2.87v-30.46a2.87 2.87 0 0 1 2.87-2.87h30.46a2.87 2.87 0 0 1 2.87 2.87v30.46a2.87 2.87 0 0 1-2.87 2.87" class="cls-11"/><rect width="49.13" height="49.13" x="684.71" y="462.81" class="cls-9" rx="1.69" ry="1.69"/><path d="M724.51 501.45a95.5 95.5 0 0 1-30.46 0 2.87 2.87 0 0 1-2.87-2.87v-30.46a2.87 2.87 0 0 1 2.87-2.87h30.46a2.87 2.87 0 0 1 2.87 2.87v30.46a2.87 2.87 0 0 1-2.87 2.87" class="cls-11"/><rect width="49.13" height="49.13" x="631.85" y="462.81" class="cls-9" rx="1.69" ry="1.69"/><path d="M671.64 501.45a95.5 95.5 0 0 1-30.46 0 2.87 2.87 0 0 1-2.87-2.87v-30.46a2.87 2.87 0 0 1 2.87-2.87h30.46a2.87 2.87 0 0 1 2.87 2.87v30.46a2.87 2.87 0 0 1-2.87 2.87" class="cls-11"/><rect width="64.37" height="49.13" x="756.4" y="514.71" class="cls-8" rx="1.93" ry="1.93"/><path d="M810.81 553.34a202.7 202.7 0 0 1-44.46 0c-2.31 0-4.18-1.28-4.18-2.87v-30.46c0-1.58 1.87-2.87 4.18-2.87h44.46c2.31 0 4.18 1.28 4.18 2.87v30.46c0 1.58-1.87 2.87-4.18 2.87" class="cls-7"/><rect width="49.13" height="49.13" x="703.54" y="514.71" class="cls-9" rx="1.69" ry="1.69"/><path d="M743.33 553.34a95.5 95.5 0 0 1-30.46 0 2.87 2.87 0 0 1-2.87-2.87v-30.46a2.87 2.87 0 0 1 2.87-2.87h30.46a2.87 2.87 0 0 1 2.87 2.87v30.46a2.87 2.87 0 0 1-2.87 2.87" class="cls-11"/><rect width="49.13" height="49.13" x="824.81" y="514.71" class="cls-9" rx="1.69" ry="1.69"/><path d="M864.61 553.34a95.5 95.5 0 0 1-30.46 0 2.87 2.87 0 0 1-2.87-2.87v-30.46a2.87 2.87 0 0 1 2.87-2.87h30.46a2.87 2.87 0 0 1 2.87 2.87v30.46a2.87 2.87 0 0 1-2.87 2.87" class="cls-11"/><rect width="49.13" height="49.13" x="650.67" y="514.71" class="cls-9" rx="1.69" ry="1.69"/><path d="M690.47 553.34a95.5 95.5 0 0 1-30.46 0 2.87 2.87 0 0 1-2.87-2.87v-30.46a2.87 2.87 0 0 1 2.87-2.87h30.46a2.87 2.87 0 0 1 2.87 2.87v30.46a2.87 2.87 0 0 1-2.87 2.87" class="cls-11"/><rect width="49.13" height="49.13" x="597.81" y="514.71" class="cls-9" rx="1.69" ry="1.69"/><path d="M637.61 553.34a95.5 95.5 0 0 1-30.46 0 2.87 2.87 0 0 1-2.87-2.87v-30.46a2.87 2.87 0 0 1 2.87-2.87h30.46a2.87 2.87 0 0 1 2.87 2.87v30.46a2.87 2.87 0 0 1-2.87 2.87" class="cls-11"/><rect width="49.13" height="49.13" x="544.95" y="514.71" class="cls-9" rx="1.69" ry="1.69"/><path d="M584.75 553.34a95.5 95.5 0 0 1-30.46 0 2.87 2.87 0 0 1-2.87-2.87v-30.46a2.87 2.87 0 0 1 2.87-2.87h30.46a2.87 2.87 0 0 1 2.87 2.87v30.46a2.87 2.87 0 0 1-2.87 2.87" class="cls-11"/><rect width="49.13" height="49.13" x="492.09" y="514.71" class="cls-9" rx="1.69" ry="1.69"/><path d="M531.89 553.34a95.5 95.5 0 0 1-30.46 0 2.87 2.87 0 0 1-2.87-2.87v-30.46a2.87 2.87 0 0 1 2.87-2.87h30.46a2.87 2.87 0 0 1 2.87 2.87v30.46a2.87 2.87 0 0 1-2.87 2.87" class="cls-11"/><rect width="49.13" height="49.13" x="439.23" y="514.71" class="cls-9" rx="1.69" ry="1.69"/><path d="M479.03 553.34a95.5 95.5 0 0 1-30.46 0 2.87 2.87 0 0 1-2.87-2.87v-30.46a2.87 2.87 0 0 1 2.87-2.87h30.46a2.87 2.87 0 0 1 2.87 2.87v30.46a2.87 2.87 0 0 1-2.87 2.87" class="cls-11"/><rect width="49.13" height="49.13" x="386.37" y="514.71" class="cls-9" rx="1.69" ry="1.69"/><path d="M426.16 553.34a95.5 95.5 0 0 1-30.46 0 2.87 2.87 0 0 1-2.87-2.87v-30.46a2.87 2.87 0 0 1 2.87-2.87h30.46a2.87 2.87 0 0 1 2.87 2.87v30.46a2.87 2.87 0 0 1-2.87 2.87" class="cls-11"/><rect width="49.13" height="49.13" x="333.51" y="514.71" class="cls-9" rx="1.69" ry="1.69"/><path d="M373.3 553.34a95.5 95.5 0 0 1-30.46 0 2.87 2.87 0 0 1-2.87-2.87v-30.46a2.87 2.87 0 0 1 2.87-2.87h30.46a2.87 2.87 0 0 1 2.87 2.87v30.46a2.87 2.87 0 0 1-2.87 2.87" class="cls-11"/><rect width="49.13" height="49.13" x="280.64" y="514.71" class="cls-9" rx="1.69" ry="1.69"/><path d="M320.44 553.34a95.5 95.5 0 0 1-30.46 0 2.87 2.87 0 0 1-2.87-2.87v-30.46a2.87 2.87 0 0 1 2.87-2.87h30.46a2.87 2.87 0 0 1 2.87 2.87v30.46a2.87 2.87 0 0 1-2.87 2.87" class="cls-11"/><rect width="49.13" height="49.13" x="252.35" y="566.6" class="cls-9" rx="1.69" ry="1.69"/><path d="M292.14 605.24a95.5 95.5 0 0 1-30.46 0 2.87 2.87 0 0 1-2.87-2.87v-30.46a2.87 2.87 0 0 1 2.87-2.87h30.46a2.87 2.87 0 0 1 2.87 2.87v30.46a2.87 2.87 0 0 1-2.87 2.87" class="cls-11"/><rect width="49.13" height="49.13" x="728.1" y="566.6" class="cls-9" rx="1.69" ry="1.69"/><path d="M767.9 605.24a95.5 95.5 0 0 1-30.46 0 2.87 2.87 0 0 1-2.87-2.87v-30.46a2.87 2.87 0 0 1 2.87-2.87h30.46a2.87 2.87 0 0 1 2.87 2.87v30.46a2.87 2.87 0 0 1-2.87 2.87" class="cls-11"/><rect width="49.13" height="49.13" x="675.24" y="566.6" class="cls-9" rx="1.69" ry="1.69"/><path d="M715.04 605.24a95.5 95.5 0 0 1-30.46 0 2.87 2.87 0 0 1-2.87-2.87v-30.46a2.87 2.87 0 0 1 2.87-2.87h30.46a2.87 2.87 0 0 1 2.87 2.87v30.46a2.87 2.87 0 0 1-2.87 2.87" class="cls-11"/><rect width="49.13" height="49.13" x="622.38" y="566.6" class="cls-9" rx="1.69" ry="1.69"/><path d="M662.18 605.24a95.5 95.5 0 0 1-30.46 0 2.87 2.87 0 0 1-2.87-2.87v-30.46a2.87 2.87 0 0 1 2.87-2.87h30.46a2.87 2.87 0 0 1 2.87 2.87v30.46a2.87 2.87 0 0 1-2.87 2.87" class="cls-11"/><rect width="49.13" height="49.13" x="569.52" y="566.6" class="cls-9" rx="1.69" ry="1.69"/><path d="M609.31 605.24a95.5 95.5 0 0 1-30.46 0 2.87 2.87 0 0 1-2.87-2.87v-30.46a2.87 2.87 0 0 1 2.87-2.87h30.46a2.87 2.87 0 0 1 2.87 2.87v30.46a2.87 2.87 0 0 1-2.87 2.87" class="cls-11"/><rect width="49.13" height="49.13" x="516.66" y="566.6" class="cls-9" rx="1.69" ry="1.69"/><path d="M556.45 605.24a95.5 95.5 0 0 1-30.46 0 2.87 2.87 0 0 1-2.87-2.87v-30.46a2.87 2.87 0 0 1 2.87-2.87h30.46a2.87 2.87 0 0 1 2.87 2.87v30.46a2.87 2.87 0 0 1-2.87 2.87" class="cls-11"/><rect width="49.13" height="49.13" x="463.79" y="566.6" class="cls-9" rx="1.69" ry="1.69"/><path d="M503.59 605.24a95.5 95.5 0 0 1-30.46 0 2.87 2.87 0 0 1-2.87-2.87v-30.46a2.87 2.87 0 0 1 2.87-2.87h30.46a2.87 2.87 0 0 1 2.87 2.87v30.46a2.87 2.87 0 0 1-2.87 2.87" class="cls-11"/><rect width="49.13" height="49.13" x="410.93" y="566.6" class="cls-9" rx="1.69" ry="1.69"/><path d="M450.73 605.24a95.5 95.5 0 0 1-30.46 0 2.87 2.87 0 0 1-2.87-2.87v-30.46a2.87 2.87 0 0 1 2.87-2.87h30.46a2.87 2.87 0 0 1 2.87 2.87v30.46a2.87 2.87 0 0 1-2.87 2.87" class="cls-11"/><rect width="49.13" height="49.13" x="358.07" y="566.6" class="cls-9" rx="1.69" ry="1.69"/><path d="M397.87 605.24a95.5 95.5 0 0 1-30.46 0 2.87 2.87 0 0 1-2.87-2.87v-30.46a2.87 2.87 0 0 1 2.87-2.87h30.46a2.87 2.87 0 0 1 2.87 2.87v30.46a2.87 2.87 0 0 1-2.87 2.87" class="cls-11"/><rect width="49.13" height="49.13" x="305.21" y="566.6" class="cls-9" rx="1.69" ry="1.69"/><path d="M345.01 605.24a95.5 95.5 0 0 1-30.46 0 2.87 2.87 0 0 1-2.87-2.87v-30.46a2.87 2.87 0 0 1 2.87-2.87h30.46a2.87 2.87 0 0 1 2.87 2.87v30.46a2.87 2.87 0 0 1-2.87 2.87" class="cls-11"/><rect width="403.24" height="49.13" x="321.13" y="618.49" class="cls-9" rx="2.2" ry="2.2"/><path d="M715.2 661.31c-129.91 1.5-258.81 1.5-386.69 0-1.71 0-3.1-1.25-3.1-2.79v-33.07c0-1.54 1.39-2.79 3.1-2.79H715.2c1.71 0 3.1 1.25 3.1 2.79v33.07c0 1.54-1.39 2.79-3.1 2.79" class="cls-11"/></g><path id="TEXT" d="M767.39 390.45c0 2.89.21 3.08 2.06 3.24v1.04h-8.47v-1.04c1.9-.16 2.12-.35 2.12-3.24v-8.84c0-2.89-.21-3.08-2.01-3.24v-1.04h8.36c2.09 0 3.48.24 4.53.91 1.07.67 1.88 1.88 1.88 3.46 0 2.36-1.47 3.75-3.46 4.53.38.75 1.37 2.6 2.14 3.83.91 1.42 1.5 2.33 1.93 2.87.48.56.91.91 1.58 1.12l-.05.94-1.15-.03c-3.8-.08-4.69-.88-5.76-2.44-.8-1.15-1.55-2.81-2.22-4.31-.24-.56-.62-.96-1.12-.96h-.35v3.22Zm0-4.47h.38c.86 0 1.5-.08 2.01-.46 1.1-.86 1.5-2.12 1.5-3.43 0-2.57-1.63-3.43-2.68-3.43-1.12 0-1.21.08-1.21 1.15v6.16Zm23.38 2.62c0 4.29-3.19 6.46-6.48 6.46-4.21 0-6.4-3-6.4-6.06 0-4.31 3.3-6.59 6.59-6.59 3.96 0 6.3 2.79 6.3 6.19Zm-4.69 1.61c0-4.8-.86-6.51-1.98-6.51-.83 0-1.53 1.34-1.53 3.86 0 3.22.7 6.22 2.06 6.22.7 0 1.45-.7 1.45-3.56Zm11.68 1.69c0 1.53.13 1.63 1.04 1.8v1.04h-6.99v-1.04c1.61-.16 1.74-.27 1.74-1.8v-5.81c0-1.61-.05-1.63-1.55-1.74v-.91c1.96-.19 3.91-.56 5.76-1.02v1.66l1.21-.75c.96-.62 1.55-.91 2.54-.91 1.58 0 2.68.7 3.22 1.82l1.39-.91c.96-.62 1.55-.91 2.57-.91 2.49 0 3.8 1.53 3.8 3.59v5.89c0 1.53.13 1.63 1.39 1.8v1.04h-6.81v-1.04c1.1-.16 1.21-.27 1.21-1.8v-5.12c0-1.58-.67-2.09-1.61-2.09-.56 0-1.1.27-1.58.75.03.16.03.35.03.56v5.89c0 1.53.13 1.63 1.04 1.8v1.04h-6.46v-1.04c1.1-.16 1.21-.27 1.21-1.8v-5.12c0-1.58-.62-2.09-1.45-2.09s-1.26.35-1.71.78v6.43Zm22.64 0c0 1.53.13 1.63 1.04 1.8v1.04h-6.99v-1.04c1.61-.16 1.74-.27 1.74-1.8v-5.81c0-1.61-.05-1.63-1.55-1.74v-.91c1.96-.19 3.91-.56 5.76-1.02v1.66l1.21-.75c.96-.62 1.55-.91 2.55-.91 1.58 0 2.68.7 3.21 1.82l1.39-.91c.96-.62 1.55-.91 2.57-.91 2.49 0 3.8 1.53 3.8 3.59v5.89c0 1.53.13 1.63 1.39 1.8v1.04h-6.81v-1.04c1.1-.16 1.21-.27 1.21-1.8v-5.12c0-1.58-.67-2.09-1.61-2.09-.56 0-1.1.27-1.58.75.03.16.03.35.03.56v5.89c0 1.53.13 1.63 1.04 1.8v1.04h-6.46v-1.04c1.1-.16 1.21-.27 1.21-1.8v-5.12c0-1.58-.62-2.09-1.45-2.09s-1.26.35-1.71.78v6.43Zm24.89 2.22c3.8-.94 6.3-3.59 7.07-6.46l-.88.38c-.86.35-1.39.54-1.69.54-3.32 0-5.25-2.2-5.25-4.93s2.14-5.95 6.43-5.95c3.78 0 6.06 3.08 6.06 6.94 0 4.47-2.6 8.01-6.7 9.67-.99.4-3.38.8-4.88.83zm7.21-7.77c.16-.67.19-1.55.19-2.14 0-2.38-.75-5.17-2.28-5.17-1.21 0-1.58 1.42-1.58 3.27 0 2.44 1.29 4.18 2.89 4.18.27 0 .54-.03.78-.13Zm18.05.03c0 3.91-1.47 8.68-6.19 8.68-4.29 0-6.19-4.77-6.19-8.68s1.47-8.68 6.19-8.68 6.19 4.77 6.19 8.68m-8.09 0c0 3.72.51 7.34 1.9 7.34 1.5 0 1.96-3.62 1.9-7.34-.05-3.72-.51-7.34-1.9-7.34s-1.9 3.62-1.9 7.34" style="fill:#f0e9ed"/></svg>