<?xml version="1.0" encoding="UTF-8"?>
<svg xmlns="http://www.w3.org/2000/svg" viewBox="0 0 1000 1000">
  <defs>
    <style>
      .cls-1 {
        fill: #29313c;
      }

      .cls-2 {
        fill: #f0e9ed;
      }

      .cls-3 {
        fill: #121212;
      }

      .cls-4 {
        fill: #1f242d;
      }

      .cls-5 {
        fill: #8e2d39;
      }

      .cls-6 {
        fill: #b72c36;
      }

      .cls-7 {
        fill: #69788b;
      }

      .cls-8 {
        fill: #3c505e;
      }

      .cls-9 {
        fill: #848b91;
      }

      .cls-10 {
        fill: #691428;
      }

      .cls-11 {
        fill: #bac2d2;
      }

      .cls-12 {
        fill: #af4556;
      }

      .cls-13 {
        fill: #434851;
      }
    </style>
  </defs>
  <g id="Layer_1" data-name="Layer 1">
    <path class="cls-4" d="M626.42,252.11v-13.85c0-2.68,2.18-4.86,4.86-4.86h254.2l102.51,31.46-52.55,4.42-309.02-17.18Z"/>
    <polygon class="cls-5" points="987.99 264.87 974.04 679.87 36.02 467.15 12.01 461.7 12.01 410.73 146.91 257.27 200.73 257.27 213.91 269.29 935.43 269.29 943.45 260.7 987.99 264.87"/>
    <polygon class="cls-12" points="172.68 346.6 36.02 467.15 12.01 461.7 12.01 410.73 146.91 257.27 172.68 346.6"/>
    <polygon class="cls-6" points="12.01 766.91 885.86 766.91 974.04 679.87 965.45 309.37 163.76 309.37 12.01 461.7 12.01 766.91"/>
    <polygon class="cls-10" points="965.45 309.37 987.99 264.87 974.04 679.87 965.45 309.37"/>
    <path class="cls-4" d="M420.04,249.9v-11.87c0-2.73-2.21-4.94-4.94-4.94h-175.33l-92.86,24.18h53.82l56.47-12.63,162.84,5.25Z"/>
    <polygon class="cls-1" points="200.73 257.27 257.2 244.64 257.2 269.29 213.91 269.29 200.73 257.27"/>
    <path class="cls-13" d="M257.2,244.64h157.59c2.9,0,5.25,2.35,5.25,5.25v19.39h-162.84v-24.65Z"/>
    <path class="cls-13" d="M626.42,269.29v-17.18c0-3.83,3.1-6.93,6.93-6.93h252.13v24.11h-259.06Z"/>
    <polygon class="cls-1" points="885.48 245.18 943.45 260.7 935.43 269.29 885.48 269.29 885.48 245.18"/>
    <polygon class="cls-3" points="178.75 406.25 871.68 406.25 871.68 457.41 896.3 457.41 896.3 515.97 879.63 515.97 879.63 565.89 859.76 565.89 859.76 618.92 727.87 618.92 727.87 671.76 314.31 671.76 314.31 618.92 169.46 618.92 169.46 517.09 152.3 517.09 152.3 455.99 179.15 455.99 178.75 406.25"/>
    <rect class="cls-9" x="183.21" y="410.92" width="49.13" height="49.13" rx="1.69" ry="1.69"/>
    <path class="cls-11" d="M223.01,449.56c-10.15,1.63-20.31,1.63-30.46,0-1.58,0-2.87-1.28-2.87-2.87v-30.46c0-1.58,1.28-2.87,2.87-2.87h30.46c1.58,0,2.87,1.28,2.87,2.87v30.46c0,1.58-1.28,2.87-2.87,2.87Z"/>
    <rect class="cls-9" x="553.24" y="410.92" width="49.13" height="49.13" rx="1.69" ry="1.69"/>
    <path class="cls-11" d="M593.04,449.56c-10.15,1.63-20.31,1.63-30.46,0-1.58,0-2.87-1.28-2.87-2.87v-30.46c0-1.58,1.28-2.87,2.87-2.87h30.46c1.58,0,2.87,1.28,2.87,2.87v30.46c0,1.58-1.28,2.87-2.87,2.87Z"/>
    <rect class="cls-9" x="500.38" y="410.92" width="49.13" height="49.13" rx="1.69" ry="1.69"/>
    <path class="cls-11" d="M540.18,449.56c-10.15,1.63-20.31,1.63-30.46,0-1.58,0-2.87-1.28-2.87-2.87v-30.46c0-1.58,1.28-2.87,2.87-2.87h30.46c1.58,0,2.87,1.28,2.87,2.87v30.46c0,1.58-1.28,2.87-2.87,2.87Z"/>
    <rect class="cls-9" x="447.52" y="410.92" width="49.13" height="49.13" rx="1.69" ry="1.69"/>
    <path class="cls-11" d="M487.32,449.56c-10.15,1.63-20.31,1.63-30.46,0-1.58,0-2.87-1.28-2.87-2.87v-30.46c0-1.58,1.28-2.87,2.87-2.87h30.46c1.58,0,2.87,1.28,2.87,2.87v30.46c0,1.58-1.28,2.87-2.87,2.87Z"/>
    <rect class="cls-9" x="394.66" y="410.92" width="49.13" height="49.13" rx="1.69" ry="1.69"/>
    <path class="cls-11" d="M434.46,449.56c-10.15,1.63-20.31,1.63-30.46,0-1.58,0-2.87-1.28-2.87-2.87v-30.46c0-1.58,1.28-2.87,2.87-2.87h30.46c1.58,0,2.87,1.28,2.87,2.87v30.46c0,1.58-1.28,2.87-2.87,2.87Z"/>
    <rect class="cls-9" x="341.8" y="410.92" width="49.13" height="49.13" rx="1.69" ry="1.69"/>
    <path class="cls-11" d="M381.6,449.56c-10.15,1.63-20.31,1.63-30.46,0-1.58,0-2.87-1.28-2.87-2.87v-30.46c0-1.58,1.28-2.87,2.87-2.87h30.46c1.58,0,2.87,1.28,2.87,2.87v30.46c0,1.58-1.28,2.87-2.87,2.87Z"/>
    <rect class="cls-9" x="288.94" y="410.92" width="49.13" height="49.13" rx="1.69" ry="1.69"/>
    <path class="cls-11" d="M328.73,449.56c-10.15,1.63-20.31,1.63-30.46,0-1.58,0-2.87-1.28-2.87-2.87v-30.46c0-1.58,1.28-2.87,2.87-2.87h30.46c1.58,0,2.87,1.28,2.87,2.87v30.46c0,1.58-1.28,2.87-2.87,2.87Z"/>
    <rect class="cls-9" x="236.08" y="410.92" width="49.13" height="49.13" rx="1.69" ry="1.69"/>
    <path class="cls-11" d="M275.87,449.56c-10.15,1.63-20.31,1.63-30.46,0-1.58,0-2.87-1.28-2.87-2.87v-30.46c0-1.58,1.28-2.87,2.87-2.87h30.46c1.58,0,2.87,1.28,2.87,2.87v30.46c0,1.58-1.28,2.87-2.87,2.87Z"/>
    <rect class="cls-9" x="208.95" y="462.81" width="49.13" height="49.13" rx="1.69" ry="1.69"/>
    <path class="cls-11" d="M248.75,501.45c-10.15,1.63-20.31,1.63-30.46,0-1.58,0-2.87-1.28-2.87-2.87v-30.46c0-1.58,1.28-2.87,2.87-2.87h30.46c1.58,0,2.87,1.28,2.87,2.87v30.46c0,1.58-1.28,2.87-2.87,2.87Z"/>
    <rect class="cls-8" x="156.01" y="462.81" width="49.13" height="49.13" rx="1.69" ry="1.69"/>
    <path class="cls-7" d="M195.81,501.45c-10.15,1.63-20.31,1.63-30.46,0-1.58,0-2.87-1.28-2.87-2.87v-30.46c0-1.58,1.28-2.87,2.87-2.87h30.46c1.58,0,2.87,1.28,2.87,2.87v30.46c0,1.58-1.28,2.87-2.87,2.87Z"/>
    <rect class="cls-9" x="578.98" y="462.81" width="49.13" height="49.13" rx="1.69" ry="1.69"/>
    <path class="cls-11" d="M618.78,501.45c-10.15,1.63-20.31,1.63-30.46,0-1.58,0-2.87-1.28-2.87-2.87v-30.46c0-1.58,1.28-2.87,2.87-2.87h30.46c1.58,0,2.87,1.28,2.87,2.87v30.46c0,1.58-1.28,2.87-2.87,2.87Z"/>
    <rect class="cls-9" x="526.12" y="462.81" width="49.13" height="49.13" rx="1.69" ry="1.69"/>
    <path class="cls-11" d="M565.92,501.45c-10.15,1.63-20.31,1.63-30.46,0-1.58,0-2.87-1.28-2.87-2.87v-30.46c0-1.58,1.28-2.87,2.87-2.87h30.46c1.58,0,2.87,1.28,2.87,2.87v30.46c0,1.58-1.28,2.87-2.87,2.87Z"/>
    <rect class="cls-9" x="473.26" y="462.81" width="49.13" height="49.13" rx="1.69" ry="1.69"/>
    <path class="cls-11" d="M513.06,501.45c-10.15,1.63-20.31,1.63-30.46,0-1.58,0-2.87-1.28-2.87-2.87v-30.46c0-1.58,1.28-2.87,2.87-2.87h30.46c1.58,0,2.87,1.28,2.87,2.87v30.46c0,1.58-1.28,2.87-2.87,2.87Z"/>
    <rect class="cls-9" x="420.4" y="462.81" width="49.13" height="49.13" rx="1.69" ry="1.69"/>
    <path class="cls-11" d="M460.2,501.45c-10.15,1.63-20.31,1.63-30.46,0-1.58,0-2.87-1.28-2.87-2.87v-30.46c0-1.58,1.28-2.87,2.87-2.87h30.46c1.58,0,2.87,1.28,2.87,2.87v30.46c0,1.58-1.28,2.87-2.87,2.87Z"/>
    <rect class="cls-9" x="367.54" y="462.81" width="49.13" height="49.13" rx="1.69" ry="1.69"/>
    <path class="cls-11" d="M407.34,501.45c-10.15,1.63-20.31,1.63-30.46,0-1.58,0-2.87-1.28-2.87-2.87v-30.46c0-1.58,1.28-2.87,2.87-2.87h30.46c1.58,0,2.87,1.28,2.87,2.87v30.46c0,1.58-1.28,2.87-2.87,2.87Z"/>
    <rect class="cls-9" x="314.68" y="462.81" width="49.13" height="49.13" rx="1.69" ry="1.69"/>
    <path class="cls-11" d="M354.47,501.45c-10.15,1.63-20.31,1.63-30.46,0-1.58,0-2.87-1.28-2.87-2.87v-30.46c0-1.58,1.28-2.87,2.87-2.87h30.46c1.58,0,2.87,1.28,2.87,2.87v30.46c0,1.58-1.28,2.87-2.87,2.87Z"/>
    <rect class="cls-9" x="261.81" y="462.81" width="49.13" height="49.13" rx="1.69" ry="1.69"/>
    <path class="cls-11" d="M301.61,501.45c-10.15,1.63-20.31,1.63-30.46,0-1.58,0-2.87-1.28-2.87-2.87v-30.46c0-1.58,1.28-2.87,2.87-2.87h30.46c1.58,0,2.87,1.28,2.87,2.87v30.46c0,1.58-1.28,2.87-2.87,2.87Z"/>
    <rect class="cls-9" x="227.78" y="514.71" width="49.13" height="49.13" rx="1.69" ry="1.69"/>
    <path class="cls-11" d="M267.58,553.34c-10.15,1.63-20.31,1.63-30.46,0-1.58,0-2.87-1.28-2.87-2.87v-30.46c0-1.58,1.28-2.87,2.87-2.87h30.46c1.58,0,2.87,1.28,2.87,2.87v30.46c0,1.58-1.28,2.87-2.87,2.87Z"/>
    <rect class="cls-8" x="780.36" y="566.6" width="73.61" height="49.13" rx="2.06" ry="2.06"/>
    <path class="cls-7" d="M843.99,605.24c-17.88,1.63-35.76,1.63-53.64,0-2.79,0-5.04-1.28-5.04-2.87v-30.46c0-1.58,2.26-2.87,5.04-2.87h53.64c2.79,0,5.04,1.28,5.04,2.87v30.46c0,1.58-2.26,2.87-5.04,2.87Z"/>
    <rect class="cls-8" x="174.84" y="566.6" width="73.61" height="49.13" rx="2.06" ry="2.06"/>
    <path class="cls-7" d="M238.47,605.24c-17.88,1.63-35.76,1.63-53.64,0-2.79,0-5.04-1.28-5.04-2.87v-30.46c0-1.58,2.26-2.87,5.04-2.87h53.64c2.79,0,5.04,1.28,5.04,2.87v30.46c0,1.58-2.26,2.87-5.04,2.87Z"/>
    <rect class="cls-8" x="174.84" y="514.71" width="49.13" height="49.13" rx="1.69" ry="1.69"/>
    <path class="cls-7" d="M214.64,553.34c-10.15,1.63-20.31,1.63-30.46,0-1.58,0-2.87-1.28-2.87-2.87v-30.46c0-1.58,1.28-2.87,2.87-2.87h30.46c1.58,0,2.87,1.28,2.87,2.87v30.46c0,1.58-1.28,2.87-2.87,2.87Z"/>
    <rect class="cls-9" x="764.69" y="410.92" width="49.13" height="49.13" rx="1.69" ry="1.69"/>
    <path class="cls-11" d="M804.49,449.56c-10.15,1.63-20.31,1.63-30.46,0-1.58,0-2.87-1.28-2.87-2.87v-30.46c0-1.58,1.28-2.87,2.87-2.87h30.46c1.58,0,2.87,1.28,2.87,2.87v30.46c0,1.58-1.28,2.87-2.87,2.87Z"/>
    <rect class="cls-9" x="711.83" y="410.92" width="49.13" height="49.13" rx="1.69" ry="1.69"/>
    <path class="cls-11" d="M751.63,449.56c-10.15,1.63-20.31,1.63-30.46,0-1.58,0-2.87-1.28-2.87-2.87v-30.46c0-1.58,1.28-2.87,2.87-2.87h30.46c1.58,0,2.87,1.28,2.87,2.87v30.46c0,1.58-1.28,2.87-2.87,2.87Z"/>
    <rect class="cls-9" x="817.17" y="410.92" width="49.13" height="49.13" rx="1.69" ry="1.69"/>
    <path class="cls-11" d="M856.96,449.56c-10.15,1.63-20.31,1.63-30.46,0-1.58,0-2.87-1.28-2.87-2.87v-30.46c0-1.58,1.28-2.87,2.87-2.87h30.46c1.58,0,2.87,1.28,2.87,2.87v30.46c0,1.58-1.28,2.87-2.87,2.87Z"/>
    <rect class="cls-9" x="658.97" y="410.92" width="49.13" height="49.13" rx="1.69" ry="1.69"/>
    <path class="cls-11" d="M698.77,449.56c-10.15,1.63-20.31,1.63-30.46,0-1.58,0-2.87-1.28-2.87-2.87v-30.46c0-1.58,1.28-2.87,2.87-2.87h30.46c1.58,0,2.87,1.28,2.87,2.87v30.46c0,1.58-1.28,2.87-2.87,2.87Z"/>
    <rect class="cls-9" x="606.11" y="410.92" width="49.13" height="49.13" rx="1.69" ry="1.69"/>
    <path class="cls-11" d="M645.9,449.56c-10.15,1.63-20.31,1.63-30.46,0-1.58,0-2.87-1.28-2.87-2.87v-30.46c0-1.58,1.28-2.87,2.87-2.87h30.46c1.58,0,2.87,1.28,2.87,2.87v30.46c0,1.58-1.28,2.87-2.87,2.87Z"/>
    <rect class="cls-9" x="790.43" y="462.81" width="49.13" height="49.13" rx="1.69" ry="1.69"/>
    <path class="cls-11" d="M830.23,501.45c-10.15,1.63-20.31,1.63-30.46,0-1.58,0-2.87-1.28-2.87-2.87v-30.46c0-1.58,1.28-2.87,2.87-2.87h30.46c1.58,0,2.87,1.28,2.87,2.87v30.46c0,1.58-1.28,2.87-2.87,2.87Z"/>
    <rect class="cls-9" x="737.57" y="462.81" width="49.13" height="49.13" rx="1.69" ry="1.69"/>
    <path class="cls-11" d="M777.37,501.45c-10.15,1.63-20.31,1.63-30.46,0-1.58,0-2.87-1.28-2.87-2.87v-30.46c0-1.58,1.28-2.87,2.87-2.87h30.46c1.58,0,2.87,1.28,2.87,2.87v30.46c0,1.58-1.28,2.87-2.87,2.87Z"/>
    <rect class="cls-9" x="842.91" y="462.81" width="49.13" height="49.13" rx="1.69" ry="1.69"/>
    <path class="cls-11" d="M882.7,501.45c-10.15,1.63-20.31,1.63-30.46,0-1.58,0-2.87-1.28-2.87-2.87v-30.46c0-1.58,1.28-2.87,2.87-2.87h30.46c1.58,0,2.87,1.28,2.87,2.87v30.46c0,1.58-1.28,2.87-2.87,2.87Z"/>
    <rect class="cls-9" x="684.71" y="462.81" width="49.13" height="49.13" rx="1.69" ry="1.69"/>
    <path class="cls-11" d="M724.51,501.45c-10.15,1.63-20.31,1.63-30.46,0-1.58,0-2.87-1.28-2.87-2.87v-30.46c0-1.58,1.28-2.87,2.87-2.87h30.46c1.58,0,2.87,1.28,2.87,2.87v30.46c0,1.58-1.28,2.87-2.87,2.87Z"/>
    <rect class="cls-9" x="631.85" y="462.81" width="49.13" height="49.13" rx="1.69" ry="1.69"/>
    <path class="cls-11" d="M671.64,501.45c-10.15,1.63-20.31,1.63-30.46,0-1.58,0-2.87-1.28-2.87-2.87v-30.46c0-1.58,1.28-2.87,2.87-2.87h30.46c1.58,0,2.87,1.28,2.87,2.87v30.46c0,1.58-1.28,2.87-2.87,2.87Z"/>
    <rect class="cls-8" x="756.4" y="514.71" width="64.37" height="49.13" rx="1.93" ry="1.93"/>
    <path class="cls-7" d="M810.81,553.34c-14.82,1.63-29.64,1.63-44.46,0-2.31,0-4.18-1.28-4.18-2.87v-30.46c0-1.58,1.87-2.87,4.18-2.87h44.46c2.31,0,4.18,1.28,4.18,2.87v30.46c0,1.58-1.87,2.87-4.18,2.87Z"/>
    <rect class="cls-9" x="703.54" y="514.71" width="49.13" height="49.13" rx="1.69" ry="1.69"/>
    <path class="cls-11" d="M743.33,553.34c-10.15,1.63-20.31,1.63-30.46,0-1.58,0-2.87-1.28-2.87-2.87v-30.46c0-1.58,1.28-2.87,2.87-2.87h30.46c1.58,0,2.87,1.28,2.87,2.87v30.46c0,1.58-1.28,2.87-2.87,2.87Z"/>
    <rect class="cls-9" x="824.81" y="514.71" width="49.13" height="49.13" rx="1.69" ry="1.69"/>
    <path class="cls-11" d="M864.61,553.34c-10.15,1.63-20.31,1.63-30.46,0-1.58,0-2.87-1.28-2.87-2.87v-30.46c0-1.58,1.28-2.87,2.87-2.87h30.46c1.58,0,2.87,1.28,2.87,2.87v30.46c0,1.58-1.28,2.87-2.87,2.87Z"/>
    <rect class="cls-9" x="650.67" y="514.71" width="49.13" height="49.13" rx="1.69" ry="1.69"/>
    <path class="cls-11" d="M690.47,553.34c-10.15,1.63-20.31,1.63-30.46,0-1.58,0-2.87-1.28-2.87-2.87v-30.46c0-1.58,1.28-2.87,2.87-2.87h30.46c1.58,0,2.87,1.28,2.87,2.87v30.46c0,1.58-1.28,2.87-2.87,2.87Z"/>
    <rect class="cls-9" x="597.81" y="514.71" width="49.13" height="49.13" rx="1.69" ry="1.69"/>
    <path class="cls-11" d="M637.61,553.34c-10.15,1.63-20.31,1.63-30.46,0-1.58,0-2.87-1.28-2.87-2.87v-30.46c0-1.58,1.28-2.87,2.87-2.87h30.46c1.58,0,2.87,1.28,2.87,2.87v30.46c0,1.58-1.28,2.87-2.87,2.87Z"/>
    <rect class="cls-9" x="544.95" y="514.71" width="49.13" height="49.13" rx="1.69" ry="1.69"/>
    <path class="cls-11" d="M584.75,553.34c-10.15,1.63-20.31,1.63-30.46,0-1.58,0-2.87-1.28-2.87-2.87v-30.46c0-1.58,1.28-2.87,2.87-2.87h30.46c1.58,0,2.87,1.28,2.87,2.87v30.46c0,1.58-1.28,2.87-2.87,2.87Z"/>
    <rect class="cls-9" x="492.09" y="514.71" width="49.13" height="49.13" rx="1.69" ry="1.69"/>
    <path class="cls-11" d="M531.89,553.34c-10.15,1.63-20.31,1.63-30.46,0-1.58,0-2.87-1.28-2.87-2.87v-30.46c0-1.58,1.28-2.87,2.87-2.87h30.46c1.58,0,2.87,1.28,2.87,2.87v30.46c0,1.58-1.28,2.87-2.87,2.87Z"/>
    <rect class="cls-9" x="439.23" y="514.71" width="49.13" height="49.13" rx="1.69" ry="1.69"/>
    <path class="cls-11" d="M479.03,553.34c-10.15,1.63-20.31,1.63-30.46,0-1.58,0-2.87-1.28-2.87-2.87v-30.46c0-1.58,1.28-2.87,2.87-2.87h30.46c1.58,0,2.87,1.28,2.87,2.87v30.46c0,1.58-1.28,2.87-2.87,2.87Z"/>
    <rect class="cls-9" x="386.37" y="514.71" width="49.13" height="49.13" rx="1.69" ry="1.69"/>
    <path class="cls-11" d="M426.16,553.34c-10.15,1.63-20.31,1.63-30.46,0-1.58,0-2.87-1.28-2.87-2.87v-30.46c0-1.58,1.28-2.87,2.87-2.87h30.46c1.58,0,2.87,1.28,2.87,2.87v30.46c0,1.58-1.28,2.87-2.87,2.87Z"/>
    <rect class="cls-9" x="333.51" y="514.71" width="49.13" height="49.13" rx="1.69" ry="1.69"/>
    <path class="cls-11" d="M373.3,553.34c-10.15,1.63-20.31,1.63-30.46,0-1.58,0-2.87-1.28-2.87-2.87v-30.46c0-1.58,1.28-2.87,2.87-2.87h30.46c1.58,0,2.87,1.28,2.87,2.87v30.46c0,1.58-1.28,2.87-2.87,2.87Z"/>
    <rect class="cls-9" x="280.64" y="514.71" width="49.13" height="49.13" rx="1.69" ry="1.69"/>
    <path class="cls-11" d="M320.44,553.34c-10.15,1.63-20.31,1.63-30.46,0-1.58,0-2.87-1.28-2.87-2.87v-30.46c0-1.58,1.28-2.87,2.87-2.87h30.46c1.58,0,2.87,1.28,2.87,2.87v30.46c0,1.58-1.28,2.87-2.87,2.87Z"/>
    <rect class="cls-9" x="252.35" y="566.6" width="49.13" height="49.13" rx="1.69" ry="1.69"/>
    <path class="cls-11" d="M292.14,605.24c-10.15,1.63-20.31,1.63-30.46,0-1.58,0-2.87-1.28-2.87-2.87v-30.46c0-1.58,1.28-2.87,2.87-2.87h30.46c1.58,0,2.87,1.28,2.87,2.87v30.46c0,1.58-1.28,2.87-2.87,2.87Z"/>
    <rect class="cls-9" x="728.1" y="566.6" width="49.13" height="49.13" rx="1.69" ry="1.69"/>
    <path class="cls-11" d="M767.9,605.24c-10.15,1.63-20.31,1.63-30.46,0-1.58,0-2.87-1.28-2.87-2.87v-30.46c0-1.58,1.28-2.87,2.87-2.87h30.46c1.58,0,2.87,1.28,2.87,2.87v30.46c0,1.58-1.28,2.87-2.87,2.87Z"/>
    <rect class="cls-9" x="675.24" y="566.6" width="49.13" height="49.13" rx="1.69" ry="1.69"/>
    <path class="cls-11" d="M715.04,605.24c-10.15,1.63-20.31,1.63-30.46,0-1.58,0-2.87-1.28-2.87-2.87v-30.46c0-1.58,1.28-2.87,2.87-2.87h30.46c1.58,0,2.87,1.28,2.87,2.87v30.46c0,1.58-1.28,2.87-2.87,2.87Z"/>
    <rect class="cls-9" x="622.38" y="566.6" width="49.13" height="49.13" rx="1.69" ry="1.69"/>
    <path class="cls-11" d="M662.18,605.24c-10.15,1.63-20.31,1.63-30.46,0-1.58,0-2.87-1.28-2.87-2.87v-30.46c0-1.58,1.28-2.87,2.87-2.87h30.46c1.58,0,2.87,1.28,2.87,2.87v30.46c0,1.58-1.28,2.87-2.87,2.87Z"/>
    <rect class="cls-9" x="569.52" y="566.6" width="49.13" height="49.13" rx="1.69" ry="1.69"/>
    <path class="cls-11" d="M609.31,605.24c-10.15,1.63-20.31,1.63-30.46,0-1.58,0-2.87-1.28-2.87-2.87v-30.46c0-1.58,1.28-2.87,2.87-2.87h30.46c1.58,0,2.87,1.28,2.87,2.87v30.46c0,1.58-1.28,2.87-2.87,2.87Z"/>
    <rect class="cls-9" x="516.66" y="566.6" width="49.13" height="49.13" rx="1.69" ry="1.69"/>
    <path class="cls-11" d="M556.45,605.24c-10.15,1.63-20.31,1.63-30.46,0-1.58,0-2.87-1.28-2.87-2.87v-30.46c0-1.58,1.28-2.87,2.87-2.87h30.46c1.58,0,2.87,1.28,2.87,2.87v30.46c0,1.58-1.28,2.87-2.87,2.87Z"/>
    <rect class="cls-9" x="463.79" y="566.6" width="49.13" height="49.13" rx="1.69" ry="1.69"/>
    <path class="cls-11" d="M503.59,605.24c-10.15,1.63-20.31,1.63-30.46,0-1.58,0-2.87-1.28-2.87-2.87v-30.46c0-1.58,1.28-2.87,2.87-2.87h30.46c1.58,0,2.87,1.28,2.87,2.87v30.46c0,1.58-1.28,2.87-2.87,2.87Z"/>
    <rect class="cls-9" x="410.93" y="566.6" width="49.13" height="49.13" rx="1.69" ry="1.69"/>
    <path class="cls-11" d="M450.73,605.24c-10.15,1.63-20.31,1.63-30.46,0-1.58,0-2.87-1.28-2.87-2.87v-30.46c0-1.58,1.28-2.87,2.87-2.87h30.46c1.58,0,2.87,1.28,2.87,2.87v30.46c0,1.58-1.28,2.87-2.87,2.87Z"/>
    <rect class="cls-9" x="358.07" y="566.6" width="49.13" height="49.13" rx="1.69" ry="1.69"/>
    <path class="cls-11" d="M397.87,605.24c-10.15,1.63-20.31,1.63-30.46,0-1.58,0-2.87-1.28-2.87-2.87v-30.46c0-1.58,1.28-2.87,2.87-2.87h30.46c1.58,0,2.87,1.28,2.87,2.87v30.46c0,1.58-1.28,2.87-2.87,2.87Z"/>
    <rect class="cls-9" x="305.21" y="566.6" width="49.13" height="49.13" rx="1.69" ry="1.69"/>
    <path class="cls-11" d="M345.01,605.24c-10.15,1.63-20.31,1.63-30.46,0-1.58,0-2.87-1.28-2.87-2.87v-30.46c0-1.58,1.28-2.87,2.87-2.87h30.46c1.58,0,2.87,1.28,2.87,2.87v30.46c0,1.58-1.28,2.87-2.87,2.87Z"/>
    <rect class="cls-9" x="321.13" y="618.49" width="403.24" height="49.13" rx="2.2" ry="2.2"/>
    <path class="cls-11" d="M715.2,661.31c-129.91,1.5-258.81,1.5-386.69,0-1.71,0-3.1-1.25-3.1-2.79v-33.07c0-1.54,1.39-2.79,3.1-2.79h386.69c1.71,0,3.1,1.25,3.1,2.79v33.07c0,1.54-1.39,2.79-3.1,2.79Z"/>
  </g>
  <g id="TEXT">
    <g>
      <path class="cls-2" d="M767.39,390.45c0,2.89.21,3.08,2.06,3.24v1.04h-8.47v-1.04c1.9-.16,2.12-.35,2.12-3.24v-8.84c0-2.89-.21-3.08-2.01-3.24v-1.04h8.36c2.09,0,3.48.24,4.53.91,1.07.67,1.88,1.88,1.88,3.46,0,2.36-1.47,3.75-3.46,4.53.38.75,1.37,2.6,2.14,3.83.91,1.42,1.5,2.33,1.93,2.87.48.56.91.91,1.58,1.12l-.05.94-1.15-.03c-3.8-.08-4.69-.88-5.76-2.44-.8-1.15-1.55-2.81-2.22-4.31-.24-.56-.62-.96-1.12-.96h-.35v3.22ZM767.39,385.98h.38c.86,0,1.5-.08,2.01-.46,1.1-.86,1.5-2.12,1.5-3.43,0-2.57-1.63-3.43-2.68-3.43-1.12,0-1.21.08-1.21,1.15v6.16Z"/>
      <path class="cls-2" d="M790.77,388.6c0,4.29-3.19,6.46-6.48,6.46-4.21,0-6.4-3-6.4-6.06,0-4.31,3.3-6.59,6.59-6.59,3.96,0,6.3,2.79,6.3,6.19ZM786.08,390.21c0-4.8-.86-6.51-1.98-6.51-.83,0-1.53,1.34-1.53,3.86,0,3.22.7,6.22,2.06,6.22.7,0,1.45-.7,1.45-3.56Z"/>
      <path class="cls-2" d="M797.76,391.9c0,1.53.13,1.63,1.04,1.8v1.04h-6.99v-1.04c1.61-.16,1.74-.27,1.74-1.8v-5.81c0-1.61-.05-1.63-1.55-1.74v-.91c1.96-.19,3.91-.56,5.76-1.02v1.66l1.21-.75c.96-.62,1.55-.91,2.54-.91,1.58,0,2.68.7,3.22,1.82l1.39-.91c.96-.62,1.55-.91,2.57-.91,2.49,0,3.8,1.53,3.8,3.59v5.89c0,1.53.13,1.63,1.39,1.8v1.04h-6.81v-1.04c1.1-.16,1.21-.27,1.21-1.8v-5.12c0-1.58-.67-2.09-1.61-2.09-.56,0-1.1.27-1.58.75.03.16.03.35.03.56v5.89c0,1.53.13,1.63,1.04,1.8v1.04h-6.46v-1.04c1.1-.16,1.21-.27,1.21-1.8v-5.12c0-1.58-.62-2.09-1.45-2.09s-1.26.35-1.71.78v6.43Z"/>
      <path class="cls-2" d="M820.4,391.9c0,1.53.13,1.63,1.04,1.8v1.04h-6.99v-1.04c1.61-.16,1.74-.27,1.74-1.8v-5.81c0-1.61-.05-1.63-1.55-1.74v-.91c1.96-.19,3.91-.56,5.76-1.02v1.66l1.21-.75c.96-.62,1.55-.91,2.55-.91,1.58,0,2.68.7,3.21,1.82l1.39-.91c.96-.62,1.55-.91,2.57-.91,2.49,0,3.8,1.53,3.8,3.59v5.89c0,1.53.13,1.63,1.39,1.8v1.04h-6.81v-1.04c1.1-.16,1.21-.27,1.21-1.8v-5.12c0-1.58-.67-2.09-1.61-2.09-.56,0-1.1.27-1.58.75.03.16.03.35.03.56v5.89c0,1.53.13,1.63,1.04,1.8v1.04h-6.46v-1.04c1.1-.16,1.21-.27,1.21-1.8v-5.12c0-1.58-.62-2.09-1.45-2.09s-1.26.35-1.71.78v6.43Z"/>
    </g>
    <g>
      <path class="cls-2" d="M845.29,394.12c3.8-.94,6.3-3.59,7.07-6.46l-.88.38c-.86.35-1.39.54-1.69.54-3.32,0-5.25-2.2-5.25-4.93s2.14-5.95,6.43-5.95c3.78,0,6.06,3.08,6.06,6.94,0,4.47-2.6,8.01-6.7,9.67-.99.4-3.38.8-4.88.83l-.16-1.02ZM852.5,386.35c.16-.67.19-1.55.19-2.14,0-2.38-.75-5.17-2.28-5.17-1.21,0-1.58,1.42-1.58,3.27,0,2.44,1.29,4.18,2.89,4.18.27,0,.54-.03.78-.13Z"/>
      <path class="cls-2" d="M870.55,386.38c0,3.91-1.47,8.68-6.19,8.68-4.29,0-6.19-4.77-6.19-8.68s1.47-8.68,6.19-8.68,6.19,4.77,6.19,8.68ZM862.46,386.38c0,3.72.51,7.34,1.9,7.34,1.5,0,1.96-3.62,1.9-7.34-.05-3.72-.51-7.34-1.9-7.34s-1.9,3.62-1.9,7.34Z"/>
    </g>
  </g>
</svg>