<?xml version="1.0" encoding="UTF-8"?>
<svg id="Layer_1" data-name="Layer 1" xmlns="http://www.w3.org/2000/svg" viewBox="0 0 1000 1000">
  <defs>
    <style>
      .cls-1 {
        fill: #555851;
      }

      .cls-2 {
        fill: #232323;
      }

      .cls-3 {
        fill: #15100d;
      }

      .cls-4 {
        fill: #f8f2e7;
      }

      .cls-5 {
        fill: #18180f;
      }

      .cls-6 {
        fill: #cfcfce;
      }

      .cls-7 {
        fill: #e5e5e5;
      }

      .cls-8 {
        fill: #75b8d1;
      }

      .cls-9 {
        fill: #8c8c8c;
      }

      .cls-10 {
        fill: #931a21;
      }

      .cls-11 {
        fill: #ee3342;
      }

      .cls-12 {
        fill: #dcdbdb;
      }
    </style>
  </defs>
  <rect class="cls-3" x="61.9" y="675.42" width="884.48" height="31.52" rx="7.56" ry="7.56"/>
  <g>
    <path class="cls-1" d="M16.47,298.03h967.06c.38,0,.68.3.68.68v388.68c0,.38-.3.68-.68.68H16.47c-.38,0-.68-.3-.68-.68v-388.68c0-.38.3-.68.68-.68Z"/>
    <path class="cls-8" d="M979.23,303.01v380.09H20.77v-380.09h958.47M983.53,293.05H16.47c-3.12,0-5.66,2.53-5.66,5.66v388.68c0,3.12,2.53,5.66,5.66,5.66h967.06c3.12,0,5.66-2.53,5.66-5.66v-388.68c0-3.12-2.53-5.66-5.66-5.66h0Z"/>
  </g>
  <rect class="cls-12" x="20.73" y="633.38" width="958.5" height="49.69"/>
  <g>
    <circle class="cls-10" cx="862.91" cy="368.71" r="4.77"/>
    <ellipse class="cls-7" cx="860.72" cy="366.36" rx="1.41" ry=".62" transform="translate(-6.96 715.93) rotate(-45)"/>
  </g>
  <g>
    <circle class="cls-10" cx="826.94" cy="368.71" r="4.77"/>
    <ellipse class="cls-7" cx="824.75" cy="366.36" rx="1.41" ry=".62" transform="translate(-17.49 690.49) rotate(-45)"/>
  </g>
  <g>
    <circle class="cls-10" cx="790.94" cy="368.71" r="4.77"/>
    <ellipse class="cls-7" cx="788.75" cy="366.36" rx="1.41" ry=".62" transform="translate(-28.04 665.04) rotate(-45)"/>
  </g>
  <g>
    <circle class="cls-10" cx="738.41" cy="368.71" r="4.77"/>
    <ellipse class="cls-7" cx="736.22" cy="366.36" rx="1.41" ry=".62" transform="translate(-43.42 627.89) rotate(-45)"/>
  </g>
  <g>
    <circle class="cls-10" cx="702.07" cy="368.71" r="4.77"/>
    <ellipse class="cls-7" cx="699.88" cy="366.36" rx="1.41" ry=".62" transform="translate(-54.07 602.2) rotate(-45)"/>
  </g>
  <g>
    <circle class="cls-10" cx="667.43" cy="368.71" r="4.77"/>
    <ellipse class="cls-7" cx="665.25" cy="366.36" rx="1.41" ry=".62" transform="translate(-64.21 577.71) rotate(-45)"/>
  </g>
  <g>
    <circle class="cls-10" cx="614.86" cy="368.71" r="4.77"/>
    <ellipse class="cls-7" cx="612.67" cy="366.36" rx="1.41" ry=".62" transform="translate(-79.61 540.53) rotate(-45)"/>
  </g>
  <g>
    <circle class="cls-10" cx="579.38" cy="368.71" r="4.77"/>
    <ellipse class="cls-7" cx="577.19" cy="366.36" rx="1.41" ry=".62" transform="translate(-90 515.44) rotate(-45)"/>
  </g>
  <g>
    <circle class="cls-10" cx="862.91" cy="440.5" r="4.77"/>
    <ellipse class="cls-7" cx="860.72" cy="438.15" rx="1.41" ry=".62" transform="translate(-57.72 736.96) rotate(-45)"/>
  </g>
  <g>
    <circle class="cls-10" cx="826.94" cy="440.5" r="4.77"/>
    <ellipse class="cls-7" cx="824.75" cy="438.15" rx="1.41" ry=".62" transform="translate(-68.26 711.52) rotate(-45)"/>
  </g>
  <g>
    <circle class="cls-10" cx="790.94" cy="440.5" r="4.77"/>
    <ellipse class="cls-7" cx="788.75" cy="438.15" rx="1.41" ry=".62" transform="translate(-78.8 686.07) rotate(-45)"/>
  </g>
  <g>
    <circle class="cls-10" cx="738.41" cy="440.5" r="4.77"/>
    <ellipse class="cls-7" cx="736.22" cy="438.15" rx="1.41" ry=".62" transform="translate(-94.19 648.92) rotate(-45)"/>
  </g>
  <g>
    <circle class="cls-10" cx="702.07" cy="440.5" r="4.77"/>
    <ellipse class="cls-7" cx="699.88" cy="438.15" rx="1.41" ry=".62" transform="translate(-104.83 623.22) rotate(-45)"/>
  </g>
  <circle class="cls-11" cx="667.43" cy="440.5" r="4.77"/>
  <ellipse class="cls-7" cx="665.25" cy="438.15" rx="1.41" ry=".62" transform="translate(-114.98 598.73) rotate(-45)"/>
  <g>
    <circle class="cls-10" cx="494.56" cy="440.5" r="4.77"/>
    <ellipse class="cls-7" cx="492.38" cy="438.15" rx="1.41" ry=".62" transform="translate(-165.61 476.5) rotate(-45)"/>
  </g>
  <g>
    <circle class="cls-10" cx="458.59" cy="440.5" r="4.77"/>
    <ellipse class="cls-7" cx="456.41" cy="438.15" rx="1.41" ry=".62" transform="translate(-176.14 451.06) rotate(-45)"/>
  </g>
  <g>
    <circle class="cls-10" cx="422.59" cy="440.5" r="4.77"/>
    <ellipse class="cls-7" cx="420.41" cy="438.15" rx="1.41" ry=".62" transform="translate(-186.69 425.6) rotate(-45)"/>
  </g>
  <g>
    <circle class="cls-10" cx="370.06" cy="440.5" r="4.77"/>
    <ellipse class="cls-7" cx="367.88" cy="438.15" rx="1.41" ry=".62" transform="translate(-202.07 388.46) rotate(-45)"/>
  </g>
  <g>
    <circle class="cls-10" cx="333.72" cy="440.5" r="4.77"/>
    <ellipse class="cls-7" cx="331.53" cy="438.15" rx="1.41" ry=".62" transform="translate(-212.72 362.76) rotate(-45)"/>
  </g>
  <g>
    <circle class="cls-10" cx="299.09" cy="440.5" r="4.77"/>
    <ellipse class="cls-7" cx="296.9" cy="438.15" rx="1.41" ry=".62" transform="translate(-222.86 338.27) rotate(-45)"/>
  </g>
  <g>
    <circle class="cls-10" cx="250.58" cy="440.5" r="4.77"/>
    <ellipse class="cls-7" cx="248.39" cy="438.15" rx="1.41" ry=".62" transform="translate(-237.07 303.97) rotate(-45)"/>
  </g>
  <circle class="cls-11" cx="181.2" cy="440.5" r="4.77"/>
  <ellipse class="cls-7" cx="179.02" cy="438.15" rx="1.41" ry=".62" transform="translate(-257.39 254.92) rotate(-45)"/>
  <g>
    <circle class="cls-10" cx="146.29" cy="440.5" r="4.77"/>
    <ellipse class="cls-7" cx="144.11" cy="438.15" rx="1.41" ry=".62" transform="translate(-267.61 230.23) rotate(-45)"/>
  </g>
  <g>
    <circle class="cls-10" cx="614.86" cy="440.5" r="4.77"/>
    <ellipse class="cls-7" cx="612.67" cy="438.15" rx="1.41" ry=".62" transform="translate(-130.37 561.56) rotate(-45)"/>
  </g>
  <circle class="cls-11" cx="579.38" cy="440.5" r="4.77"/>
  <ellipse class="cls-7" cx="577.19" cy="438.15" rx="1.41" ry=".62" transform="translate(-140.77 536.47) rotate(-45)"/>
  <g>
    <circle class="cls-10" cx="545.66" cy="440.5" r="4.77"/>
    <ellipse class="cls-7" cx="543.47" cy="438.15" rx="1.41" ry=".62" transform="translate(-150.64 512.62) rotate(-45)"/>
  </g>
  <g>
    <circle class="cls-10" cx="178.62" cy="368.71" r="4.77"/>
    <ellipse class="cls-7" cx="176.44" cy="366.36" rx="1.41" ry=".62" transform="translate(-207.38 232.06) rotate(-45)"/>
  </g>
  <g>
    <circle class="cls-10" cx="214.05" cy="368.71" r="4.77"/>
    <ellipse class="cls-7" cx="211.87" cy="366.36" rx="1.41" ry=".62" transform="translate(-197 257.12) rotate(-45)"/>
  </g>
  <g>
    <circle class="cls-10" cx="248.68" cy="368.71" r="4.77"/>
    <ellipse class="cls-7" cx="246.5" cy="366.36" rx="1.41" ry=".62" transform="translate(-186.86 281.61) rotate(-45)"/>
  </g>
  <circle class="cls-11" cx="283.46" cy="368.71" r="4.77"/>
  <ellipse class="cls-7" cx="281.27" cy="366.36" rx="1.41" ry=".62" transform="translate(-176.67 306.19) rotate(-45)"/>
  <g>
    <circle class="cls-10" cx="318.2" cy="368.71" r="4.77"/>
    <ellipse class="cls-7" cx="316.02" cy="366.36" rx="1.41" ry=".62" transform="translate(-166.5 330.76) rotate(-45)"/>
  </g>
  <g>
    <circle class="cls-10" cx="353.77" cy="368.71" r="4.77"/>
    <ellipse class="cls-7" cx="351.58" cy="366.36" rx="1.41" ry=".62" transform="translate(-156.08 355.91) rotate(-45)"/>
  </g>
  <g>
    <circle class="cls-10" cx="387.41" cy="368.71" r="4.77"/>
    <ellipse class="cls-7" cx="385.22" cy="366.36" rx="1.41" ry=".62" transform="translate(-146.23 379.7) rotate(-45)"/>
  </g>
  <g>
    <circle class="cls-10" cx="422.73" cy="368.71" r="4.77"/>
    <ellipse class="cls-7" cx="420.54" cy="366.36" rx="1.41" ry=".62" transform="translate(-135.88 404.67) rotate(-45)"/>
  </g>
  <g>
    <circle class="cls-10" cx="457.69" cy="368.71" r="4.77"/>
    <ellipse class="cls-7" cx="455.5" cy="366.36" rx="1.41" ry=".62" transform="translate(-125.64 429.39) rotate(-45)"/>
  </g>
  <g>
    <circle class="cls-10" cx="143.71" cy="368.71" r="4.77"/>
    <ellipse class="cls-7" cx="141.52" cy="366.36" rx="1.41" ry=".62" transform="translate(-217.6 207.38) rotate(-45)"/>
  </g>
  <g>
    <path class="cls-2" d="M138.98,667.96c-.6,0-1.06.17-1.39.51-.21.26-.49.82-.85,1.67l-1.03,2.49c-.33.8-.75,1.21-1.25,1.21-.9,0-1.34-.36-1.34-1.09,0-.13.09-.42.27-.86l10.29-24.91c.42-1.04.95-1.56,1.61-1.56s1.15.52,1.57,1.56l8.86,21.64c.42,1.01.63,1.79.63,2.33,0,.91-.37,1.64-1.1,2.2-.73.56-1.66.84-2.8.84-1.52,0-2.73-1.1-3.62-3.31l-.22-.54c-.36-.86-.67-1.43-.94-1.73-.27-.3-.7-.45-1.3-.45h-7.38ZM140.45,665.79h4.3c.95,0,1.43-.38,1.43-1.13,0-.03-.13-.36-.4-1.01l-1.66-4.01c-.42-1.04-.93-1.56-1.52-1.56s-1.1.52-1.52,1.56l-1.66,4.01c-.27.65-.4.99-.4,1.01,0,.75.48,1.13,1.43,1.13Z"/>
    <path class="cls-2" d="M158.3,649.75c0-1.5.28-2.6.85-3.29.57-.69,1.55-1.03,2.95-1.03s2.43.34,3,1.03c.57.69.85,1.78.85,3.29v17.94c0,1.35.31,2.3.94,2.86.63.56,1.66.84,3.09.84h2.33c1.19,0,1.79.4,1.79,1.21s-.6,1.21-1.79,1.21h-10.02c-2.66,0-3.98-1.22-3.98-3.66v-20.4Z"/>
    <path class="cls-2" d="M180.32,649.75c0-.91-.22-1.44-.67-1.6-.27-.08-.7-.12-1.3-.12h-3.53c-1.19,0-1.79-.4-1.79-1.21s.6-1.25,1.79-1.25h18.39c1.19,0,1.79.42,1.79,1.25s-.6,1.21-1.79,1.21h-3.53c-1.01,0-1.61.18-1.79.54-.12.23-.18.62-.18,1.17v19.97c-.03.05-.04.09-.04.12,0,1.48-.24,2.52-.71,3.11-.53.7-1.48,1.05-2.85,1.05s-2.37-.35-2.94-1.05c-.56-.7-.84-1.8-.84-3.31v-19.89Z"/>
    <path class="cls-2" d="M195.93,651.11c0-1.69.57-3,1.7-3.93,1.4-1.17,3.64-1.75,6.71-1.75,5.52,0,8.28,2.31,8.28,6.93v14.67c0,4.65-2.76,6.97-8.28,6.97-3.01,0-5.25-.6-6.71-1.79-1.13-.93-1.7-2.23-1.7-3.89v-17.2ZM210.12,666.95v-14.75c0-1.4-.27-2.42-.81-3.06-.54-.64-1.45-.95-2.73-.95s-2.26.31-2.75.92c-.49.61-.74,1.56-.74,2.86v15.22c0,1.3.22,2.23.67,2.8.54.65,1.48.97,2.82.97s2.19-.32,2.73-.95c.54-.64.81-1.65.81-3.06Z"/>
    <path class="cls-2" d="M219.74,667.96c-.6,0-1.06.17-1.39.51-.21.26-.49.82-.85,1.67l-1.03,2.49c-.33.8-.75,1.21-1.25,1.21-.9,0-1.34-.36-1.34-1.09,0-.13.09-.42.27-.86l10.29-24.91c.42-1.04.95-1.56,1.61-1.56s1.15.52,1.57,1.56l8.86,21.64c.42,1.01.63,1.79.63,2.33,0,.91-.37,1.64-1.1,2.2-.73.56-1.66.84-2.8.84-1.52,0-2.73-1.1-3.62-3.31l-.22-.54c-.36-.86-.67-1.43-.94-1.73-.27-.3-.7-.45-1.3-.45h-7.38ZM221.21,665.79h4.3c.95,0,1.43-.38,1.43-1.13,0-.03-.13-.36-.4-1.01l-1.66-4.01c-.42-1.04-.93-1.56-1.52-1.56s-1.1.52-1.52,1.56l-1.66,4.01c-.27.65-.4.99-.4,1.01,0,.75.48,1.13,1.43,1.13Z"/>
    <path class="cls-2" d="M255.84,652.36v.78c0,1.22-.28,2.1-.83,2.65-.55.54-1.51.82-2.89.82s-2.34-.27-2.91-.82c-.57-.54-.85-1.43-.85-2.65v-1.09c0-2.57-1.15-3.85-3.45-3.85-1.04,0-1.89.27-2.53.8-.64.53-.96,1.24-.96,2.12,0,1.35.78,2.43,2.33,3.23l8.77,4.59c1.34.7,2.23,1.4,2.66,2.08.43.69.65,1.63.65,2.82v3.27c0,4.59-2.83,6.89-8.5,6.89s-8.5-2.32-8.5-6.97v-.62c0-1.22.28-2.1.83-2.65.55-.54,1.51-.82,2.89-.82s2.34.27,2.91.82c.57.54.85,1.43.85,2.65v.93c0,2.57,1.15,3.85,3.45,3.85,1.04,0,1.89-.26,2.53-.78.64-.52.96-1.22.96-2.1,0-1.4-.76-2.49-2.28-3.27l-8.77-4.55c-1.52-.78-2.49-1.6-2.91-2.45-.3-.6-.45-1.62-.45-3.07v-3.15c0-1.97.58-3.45,1.75-4.44,1.52-1.3,3.77-1.95,6.76-1.95,5.67,0,8.5,2.31,8.5,6.93Z"/>
    <path class="cls-2" d="M263.99,649.75c0-.91-.22-1.44-.67-1.6-.27-.08-.7-.12-1.3-.12h-3.53c-1.19,0-1.79-.4-1.79-1.21s.6-1.25,1.79-1.25h18.39c1.19,0,1.79.42,1.79,1.25s-.6,1.21-1.79,1.21h-3.53c-1.01,0-1.61.18-1.79.54-.12.23-.18.62-.18,1.17v19.97c-.03.05-.04.09-.04.12,0,1.48-.24,2.52-.71,3.11-.53.7-1.48,1.05-2.85,1.05s-2.37-.35-2.94-1.05c-.56-.7-.84-1.8-.84-3.31v-19.89Z"/>
    <path class="cls-2" d="M294.41,659.13l-3.89-6.42c-.6-.99-.9-1.8-.9-2.45,0-1.25.77-2.36,2.3-3.35,1.54-.99,3.47-1.48,5.79-1.48,2.54,0,4.61.54,6.22,1.64,1.52,1.04,2.28,2.32,2.28,3.85,0,1.35-.42,2.66-1.25,3.93l-3.49,5.29,4.03,6.54c.6.96.9,1.79.9,2.49,0,1.25-.76,2.33-2.28,3.27-1.64,1.04-3.65,1.56-6.04,1.56-2.66,0-4.78-.53-6.38-1.6-1.6-1.06-2.39-2.45-2.39-4.17,0-1.25.42-2.46,1.25-3.66l3.85-5.45ZM295.66,661.74l-3.18,4.48c-.39.54-.58,1.21-.58,1.98,0,.86.32,1.57.96,2.14.64.57,1.48.86,2.53.86s1.95-.28,2.64-.84c.69-.56,1.03-1.27,1.03-2.12,0-.73-.21-1.43-.63-2.1l-2.77-4.4ZM300.18,657.34l3.04-4.44c.42-.6.63-1.26.63-1.99,0-.83-.34-1.52-1.03-2.06-.69-.54-1.57-.82-2.64-.82-1.01,0-1.86.28-2.53.84-.67.56-1.01,1.25-1.01,2.08,0,.6.21,1.22.63,1.87l2.91,4.52Z"/>
    <path class="cls-2" d="M314.28,659.13l-3.89-6.42c-.6-.99-.9-1.8-.9-2.45,0-1.25.77-2.36,2.3-3.35,1.54-.99,3.47-1.48,5.79-1.48,2.54,0,4.61.54,6.22,1.64,1.52,1.04,2.28,2.32,2.28,3.85,0,1.35-.42,2.66-1.25,3.93l-3.49,5.29,4.03,6.54c.6.96.9,1.79.9,2.49,0,1.25-.76,2.33-2.28,3.27-1.64,1.04-3.65,1.56-6.04,1.56-2.66,0-4.78-.53-6.38-1.6-1.6-1.06-2.39-2.45-2.39-4.17,0-1.25.42-2.46,1.25-3.66l3.85-5.45ZM315.53,661.74l-3.18,4.48c-.39.54-.58,1.21-.58,1.98,0,.86.32,1.57.96,2.14.64.57,1.48.86,2.53.86s1.95-.28,2.64-.84c.69-.56,1.03-1.27,1.03-2.12,0-.73-.21-1.43-.63-2.1l-2.77-4.4ZM320.05,657.34l3.04-4.44c.42-.6.63-1.26.63-1.99,0-.83-.34-1.52-1.03-2.06-.69-.54-1.57-.82-2.64-.82-1.01,0-1.86.28-2.53.84-.67.56-1.01,1.25-1.01,2.08,0,.6.21,1.22.63,1.87l2.91,4.52Z"/>
    <path class="cls-2" d="M329.26,651.11c0-1.69.57-3,1.7-3.93,1.4-1.17,3.64-1.75,6.71-1.75,5.52,0,8.28,2.31,8.28,6.93v14.67c0,4.65-2.76,6.97-8.28,6.97-3.01,0-5.25-.6-6.71-1.79-1.13-.93-1.7-2.23-1.7-3.89v-17.2ZM343.45,666.95v-14.75c0-1.4-.27-2.42-.81-3.06-.54-.64-1.45-.95-2.73-.95s-2.26.31-2.75.92c-.49.61-.74,1.56-.74,2.86v15.22c0,1.3.22,2.23.67,2.8.54.65,1.48.97,2.82.97s2.19-.32,2.73-.95c.54-.64.81-1.65.81-3.06Z"/>
    <path class="cls-2" d="M349.13,651.11c0-1.69.57-3,1.7-3.93,1.4-1.17,3.64-1.75,6.71-1.75,5.52,0,8.28,2.31,8.28,6.93v14.67c0,4.65-2.76,6.97-8.28,6.97-3.01,0-5.25-.6-6.71-1.79-1.13-.93-1.7-2.23-1.7-3.89v-17.2ZM363.31,666.95v-14.75c0-1.4-.27-2.42-.81-3.06-.54-.64-1.45-.95-2.73-.95s-2.26.31-2.75.92c-.49.61-.74,1.56-.74,2.86v15.22c0,1.3.22,2.23.67,2.8.54.65,1.48.97,2.82.97s2.19-.32,2.73-.95c.54-.64.81-1.65.81-3.06Z"/>
  </g>
  <g>
    <path class="cls-2" d="M402.56,652.93v2.1c0,1.31-.22,2.25-.65,2.8-.49.62-1.29.93-2.42.93s-1.92-.31-2.38-.93c-.46-.56-.69-1.49-.69-2.8v-1.74c0-1.11-.19-1.91-.57-2.4-.46-.56-1.27-.83-2.44-.83-1.09,0-1.87.27-2.33.82-.46.55-.69,1.42-.69,2.62v12.65c0,1.2.23,2.07.69,2.62.46.54,1.23.82,2.33.82,1.17,0,1.98-.28,2.44-.83.38-.49.57-1.29.57-2.4v-1.6c0-1.29.23-2.23.69-2.82.46-.59,1.25-.88,2.38-.88s1.92.29,2.38.88c.46.59.69,1.53.69,2.82v2.2c0,3.49-2.34,5.24-7.02,5.24s-7.29-1.99-7.29-5.97v-12.58c0-3.96,2.42-5.94,7.25-5.94s7.06,1.75,7.06,5.24Z"/>
    <path class="cls-2" d="M405.28,652.56c0-1.45.49-2.57,1.46-3.37,1.2-1,3.12-1.5,5.75-1.5,4.73,0,7.1,1.98,7.1,5.94v12.58c0,3.98-2.37,5.97-7.1,5.97-2.58,0-4.5-.51-5.75-1.54-.97-.8-1.46-1.91-1.46-3.34v-14.75ZM417.44,666.14v-12.65c0-1.2-.23-2.07-.69-2.62-.46-.54-1.24-.82-2.34-.82s-1.94.26-2.36.78c-.42.52-.63,1.34-.63,2.45v13.05c0,1.11.19,1.91.58,2.4.46.56,1.27.83,2.42.83s1.88-.27,2.34-.82.69-1.42.69-2.62Z"/>
    <path class="cls-2" d="M422.54,670.81v-19.42c0-1.29.22-2.23.67-2.82.45-.59,1.23-.88,2.36-.88s1.88.3,2.42.9c.36.42.82,1.36,1.38,2.8l3.3,8.61c.33.87.73,1.3,1.19,1.3s.87-.43,1.23-1.3l3.53-8.61c.61-1.51,1.06-2.44,1.34-2.77.51-.62,1.32-.93,2.42-.93s1.92.29,2.38.88c.46.59.69,1.53.69,2.82v17.05c0,1.29-.22,2.24-.67,2.84s-1.25.9-2.4.9-1.92-.31-2.38-.93c-.46-.56-.69-1.49-.69-2.8v-7.27c0-.47-.05-.79-.15-.98-.1-.19-.37-.28-.8-.28-.41,0-.73.17-.96.5-.13.18-.33.61-.61,1.3l-3.63,9.14c-.36.89-.77,1.33-1.22,1.33-.43,0-.83-.45-1.19-1.33l-3.48-8.41c-.28-.67-.48-1.1-.61-1.3-.25-.31-.59-.47-.99-.47-.43,0-.7.09-.8.27-.1.18-.15.5-.15.97v8.91c0,.91-.37,1.37-1.09,1.37s-1.05-.46-1.05-1.37Z"/>
    <path class="cls-2" d="M454.91,668.44c0,1.31-.23,2.25-.69,2.8-.49.62-1.32.93-2.49.93s-2.01-.3-2.49-.9c-.49-.6-.73-1.54-.73-2.84v-14.81c0-3.96,2.43-5.94,7.29-5.94s7.29,1.88,7.29,5.64v6.17c0,2.02-.62,3.46-1.86,4.32-1.24.86-3.34,1.3-6.31,1.32v3.3ZM450.65,659.04c0,1.2.22,2.07.67,2.6.45.53,1.22.8,2.32.8,1.18,0,1.99-.28,2.45-.83.38-.47.58-1.26.58-2.37v-5.34c0-1.29-.22-2.22-.67-2.8-.45-.58-1.23-.87-2.36-.87s-1.96.3-2.42.9c-.38.51-.58,1.37-.58,2.57v5.34Z"/>
    <path class="cls-2" d="M465.84,651.39c0-1.31.24-2.26.71-2.84.47-.58,1.3-.87,2.47-.87s2.01.29,2.49.88c.49.59.73,1.53.73,2.82v14.95c0,1.11.19,1.91.58,2.4.46.56,1.27.83,2.42.83s1.88-.27,2.34-.82c.46-.54.69-1.42.69-2.62v-17.12c0-.89.36-1.33,1.07-1.33s1.07.45,1.07,1.33v17.18c0,3.98-2.48,5.97-7.44,5.97s-7.13-1.75-7.13-5.24v-15.55Z"/>
    <path class="cls-2" d="M487.39,651.39c0-.78-.19-1.23-.58-1.37-.23-.07-.6-.1-1.11-.1h-3.03c-1.02,0-1.53-.34-1.53-1.03s.51-1.07,1.53-1.07h15.76c1.02,0,1.53.36,1.53,1.07s-.51,1.03-1.53,1.03h-3.03c-.87,0-1.38.16-1.53.47-.1.2-.15.53-.15,1v17.12s-.04.08-.04.1c0,1.27-.2,2.16-.61,2.67-.46.6-1.27.9-2.44.9s-2.03-.3-2.52-.9c-.48-.6-.72-1.54-.72-2.84v-17.05Z"/>
    <path class="cls-2" d="M504.42,672.01c-2.28,0-3.41-1.04-3.41-3.14v-17.88c0-1,.31-1.78.92-2.34.61-.56,1.44-.83,2.49-.83h8.74c1.05,0,1.57.32,1.57.97s-.52.97-1.57.97h-3.91c-.97,0-1.51.23-1.61.7-.05.18-.08.43-.08.77v6.31c0,.78.19,1.23.58,1.37.23.07.6.1,1.11.1h3.91c1.05,0,1.57.32,1.57.97s-.52.97-1.57.97h-3.91c-.97,0-1.51.23-1.61.7-.05.18-.08.43-.08.77v4.37c0,1.16.27,1.97.81,2.45.54.48,1.42.72,2.65.72h3.6c1.02,0,1.53.34,1.53,1.03s-.51,1.03-1.53,1.03h-10.2Z"/>
    <path class="cls-2" d="M530.19,660c1.43.67,2.15,2.02,2.15,4.07v6.74c0,.91-.35,1.37-1.05,1.37s-1.05-.46-1.05-1.37v-6.74c0-1.16-.28-1.97-.83-2.44-.56-.47-1.44-.7-2.65-.7h-2.8v7.51c0,1.31-.23,2.25-.7,2.8-.49.62-1.33.93-2.52.93s-2.02-.3-2.5-.9c-.48-.6-.72-1.54-.72-2.84v-14.81c0-3.96,2.44-5.94,7.33-5.94s7.36,1.98,7.36,5.94v2.3c0,1.85-.67,3.2-1.99,4.07ZM523.94,659.07h2.61c1.25,0,2.15-.23,2.68-.7.54-.47.8-1.28.8-2.44v-2.64c0-1.11-.2-1.91-.61-2.4-.49-.56-1.3-.83-2.45-.83s-1.91.27-2.36.82c-.45.55-.67,1.42-.67,2.62v5.57Z"/>
  </g>
  <g>
    <g>
      <path class="cls-5" d="M86.51,588.94c-4.08,0-7.4-3.32-7.4-7.4s3.32-7.4,7.4-7.4,7.4,3.32,7.4,7.4-3.32,7.4-7.4,7.4Z"/>
      <path class="cls-4" d="M86.51,574.85c3.7,0,6.69,3,6.69,6.69s-3,6.69-6.69,6.69-6.69-3-6.69-6.69,3-6.69,6.69-6.69M86.51,573.43c-4.47,0-8.11,3.64-8.11,8.11s3.64,8.11,8.11,8.11,8.11-3.64,8.11-8.11-3.64-8.11-8.11-8.11h0Z"/>
    </g>
    <rect class="cls-9" x="83.66" y="579.8" width="5.7" height="8.33" rx="2.85" ry="2.85"/>
    <circle class="cls-6" cx="86.51" cy="586.13" r="2.85"/>
  </g>
  <g>
    <g>
      <path class="cls-5" d="M253.45,588.94c-4.08,0-7.4-3.32-7.4-7.4s3.32-7.4,7.4-7.4,7.4,3.32,7.4,7.4-3.32,7.4-7.4,7.4Z"/>
      <path class="cls-4" d="M253.45,574.85c3.7,0,6.69,3,6.69,6.69s-3,6.69-6.69,6.69-6.69-3-6.69-6.69,3-6.69,6.69-6.69M253.45,573.43c-4.47,0-8.11,3.64-8.11,8.11s3.64,8.11,8.11,8.11,8.11-3.64,8.11-8.11-3.64-8.11-8.11-8.11h0Z"/>
    </g>
    <rect class="cls-9" x="250.6" y="579.8" width="5.7" height="8.33" rx="2.85" ry="2.85"/>
    <circle class="cls-6" cx="253.45" cy="586.13" r="2.85"/>
  </g>
  <g>
    <g>
      <path class="cls-5" d="M250.6,521.62c-4.08,0-7.4-3.32-7.4-7.4s3.32-7.4,7.4-7.4,7.4,3.32,7.4,7.4-3.32,7.4-7.4,7.4Z"/>
      <path class="cls-4" d="M250.6,507.53c3.7,0,6.69,3,6.69,6.69s-3,6.69-6.69,6.69-6.69-3-6.69-6.69,3-6.69,6.69-6.69M250.6,506.12c-4.47,0-8.11,3.64-8.11,8.11s3.64,8.11,8.11,8.11,8.11-3.64,8.11-8.11-3.64-8.11-8.11-8.11h0Z"/>
    </g>
    <rect class="cls-9" x="247.76" y="512.48" width="5.7" height="8.33" rx="2.85" ry="2.85"/>
    <circle class="cls-6" cx="250.6" cy="518.81" r="2.85"/>
  </g>
  <g>
    <g>
      <path class="cls-5" d="M303.59,521.62c-4.08,0-7.4-3.32-7.4-7.4s3.32-7.4,7.4-7.4,7.4,3.32,7.4,7.4-3.32,7.4-7.4,7.4Z"/>
      <path class="cls-4" d="M303.59,507.53c3.7,0,6.69,3,6.69,6.69s-3,6.69-6.69,6.69-6.69-3-6.69-6.69,3-6.69,6.69-6.69M303.59,506.12c-4.47,0-8.11,3.64-8.11,8.11s3.64,8.11,8.11,8.11,8.11-3.64,8.11-8.11-3.64-8.11-8.11-8.11h0Z"/>
    </g>
    <rect class="cls-9" x="300.74" y="512.48" width="5.7" height="8.33" rx="2.85" ry="2.85"/>
    <circle class="cls-6" cx="303.59" cy="518.81" r="2.85"/>
  </g>
  <g>
    <g>
      <path class="cls-5" d="M338.49,521.62c-4.08,0-7.4-3.32-7.4-7.4s3.32-7.4,7.4-7.4,7.4,3.32,7.4,7.4-3.32,7.4-7.4,7.4Z"/>
      <path class="cls-4" d="M338.49,507.53c3.7,0,6.69,3,6.69,6.69s-3,6.69-6.69,6.69-6.69-3-6.69-6.69,3-6.69,6.69-6.69M338.49,506.12c-4.47,0-8.11,3.64-8.11,8.11s3.64,8.11,8.11,8.11,8.11-3.64,8.11-8.11-3.64-8.11-8.11-8.11h0Z"/>
    </g>
    <rect class="cls-9" x="335.64" y="512.48" width="5.7" height="8.33" rx="2.85" ry="2.85"/>
    <circle class="cls-6" cx="338.49" cy="518.81" r="2.85"/>
  </g>
  <g>
    <g>
      <path class="cls-5" d="M371.98,521.62c-4.08,0-7.4-3.32-7.4-7.4s3.32-7.4,7.4-7.4,7.4,3.32,7.4,7.4-3.32,7.4-7.4,7.4Z"/>
      <path class="cls-4" d="M371.98,507.53c3.7,0,6.69,3,6.69,6.69s-3,6.69-6.69,6.69-6.69-3-6.69-6.69,3-6.69,6.69-6.69M371.98,506.12c-4.47,0-8.11,3.64-8.11,8.11s3.64,8.11,8.11,8.11,8.11-3.64,8.11-8.11-3.64-8.11-8.11-8.11h0Z"/>
    </g>
    <rect class="cls-9" x="369.14" y="512.48" width="5.7" height="8.33" rx="2.85" ry="2.85"/>
    <circle class="cls-6" cx="371.98" cy="518.81" r="2.85"/>
  </g>
  <g>
    <g>
      <path class="cls-5" d="M424.4,521.62c-4.08,0-7.4-3.32-7.4-7.4s3.32-7.4,7.4-7.4,7.4,3.32,7.4,7.4-3.32,7.4-7.4,7.4Z"/>
      <path class="cls-4" d="M424.4,507.53c3.7,0,6.69,3,6.69,6.69s-3,6.69-6.69,6.69-6.69-3-6.69-6.69,3-6.69,6.69-6.69M424.4,506.12c-4.47,0-8.11,3.64-8.11,8.11s3.64,8.11,8.11,8.11,8.11-3.64,8.11-8.11-3.64-8.11-8.11-8.11h0Z"/>
    </g>
    <rect class="cls-9" x="421.55" y="512.48" width="5.7" height="8.33" rx="2.85" ry="2.85"/>
    <circle class="cls-6" cx="424.4" cy="518.81" r="2.85"/>
  </g>
  <g>
    <g>
      <path class="cls-5" d="M459.29,521.62c-4.08,0-7.4-3.32-7.4-7.4s3.32-7.4,7.4-7.4,7.4,3.32,7.4,7.4-3.32,7.4-7.4,7.4Z"/>
      <path class="cls-4" d="M459.29,507.53c3.7,0,6.69,3,6.69,6.69s-3,6.69-6.69,6.69-6.69-3-6.69-6.69,3-6.69,6.69-6.69M459.29,506.12c-4.47,0-8.11,3.64-8.11,8.11s3.64,8.11,8.11,8.11,8.11-3.64,8.11-8.11-3.64-8.11-8.11-8.11h0Z"/>
    </g>
    <rect class="cls-9" x="456.44" y="512.48" width="5.7" height="8.33" rx="2.85" ry="2.85"/>
    <circle class="cls-6" cx="459.29" cy="518.81" r="2.85"/>
  </g>
  <g>
    <g>
      <path class="cls-5" d="M492.79,521.62c-4.08,0-7.4-3.32-7.4-7.4s3.32-7.4,7.4-7.4,7.4,3.32,7.4,7.4-3.32,7.4-7.4,7.4Z"/>
      <path class="cls-4" d="M492.79,507.53c3.7,0,6.69,3,6.69,6.69s-3,6.69-6.69,6.69-6.69-3-6.69-6.69,3-6.69,6.69-6.69M492.79,506.12c-4.47,0-8.11,3.64-8.11,8.11s3.64,8.11,8.11,8.11,8.11-3.64,8.11-8.11-3.64-8.11-8.11-8.11h0Z"/>
    </g>
    <rect class="cls-9" x="489.94" y="512.48" width="5.7" height="8.33" rx="2.85" ry="2.85"/>
    <circle class="cls-6" cx="492.79" cy="518.81" r="2.85"/>
  </g>
  <g>
    <g>
      <circle class="cls-5" cx="545.18" cy="514.22" r="7.4"/>
      <path class="cls-4" d="M545.18,507.53c3.7,0,6.69,3,6.69,6.69s-3,6.69-6.69,6.69-6.69-3-6.69-6.69,3-6.69,6.69-6.69M545.18,506.12c-4.47,0-8.11,3.64-8.11,8.11s3.64,8.11,8.11,8.11,8.11-3.64,8.11-8.11-3.64-8.11-8.11-8.11h0Z"/>
    </g>
    <rect class="cls-9" x="542.33" y="512.48" width="5.7" height="8.33" rx="2.85" ry="2.85"/>
    <circle class="cls-6" cx="545.18" cy="518.81" r="2.85"/>
  </g>
  <g>
    <g>
      <circle class="cls-5" cx="580.07" cy="514.22" r="7.4"/>
      <path class="cls-4" d="M580.07,507.53c3.7,0,6.69,3,6.69,6.69s-3,6.69-6.69,6.69-6.69-3-6.69-6.69,3-6.69,6.69-6.69M580.07,506.12c-4.47,0-8.11,3.64-8.11,8.11s3.64,8.11,8.11,8.11,8.11-3.64,8.11-8.11-3.64-8.11-8.11-8.11h0Z"/>
    </g>
    <rect class="cls-9" x="577.23" y="512.48" width="5.7" height="8.33" rx="2.85" ry="2.85"/>
    <circle class="cls-6" cx="580.07" cy="518.81" r="2.85"/>
  </g>
  <g>
    <g>
      <circle class="cls-5" cx="613.57" cy="514.22" r="7.4"/>
      <path class="cls-4" d="M613.57,507.53c3.7,0,6.69,3,6.69,6.69s-3,6.69-6.69,6.69-6.69-3-6.69-6.69,3-6.69,6.69-6.69M613.57,506.12c-4.47,0-8.11,3.64-8.11,8.11s3.64,8.11,8.11,8.11,8.11-3.64,8.11-8.11-3.64-8.11-8.11-8.11h0Z"/>
    </g>
    <rect class="cls-9" x="610.72" y="512.48" width="5.7" height="8.33" rx="2.85" ry="2.85"/>
    <circle class="cls-6" cx="613.57" cy="518.81" r="2.85"/>
  </g>
  <g>
    <g>
      <path class="cls-5" d="M667.87,521.62c-4.08,0-7.4-3.32-7.4-7.4s3.32-7.4,7.4-7.4,7.4,3.32,7.4,7.4-3.32,7.4-7.4,7.4Z"/>
      <path class="cls-4" d="M667.87,507.53c3.7,0,6.69,3,6.69,6.69s-3,6.69-6.69,6.69-6.69-3-6.69-6.69,3-6.69,6.69-6.69M667.87,506.12c-4.47,0-8.11,3.64-8.11,8.11s3.64,8.11,8.11,8.11,8.11-3.64,8.11-8.11-3.64-8.11-8.11-8.11h0Z"/>
    </g>
    <rect class="cls-9" x="665.02" y="512.48" width="5.7" height="8.33" rx="2.85" ry="2.85"/>
    <circle class="cls-6" cx="667.87" cy="518.81" r="2.85"/>
  </g>
  <g>
    <g>
      <path class="cls-5" d="M702.76,521.62c-4.08,0-7.4-3.32-7.4-7.4s3.32-7.4,7.4-7.4,7.4,3.32,7.4,7.4-3.32,7.4-7.4,7.4Z"/>
      <path class="cls-4" d="M702.76,507.53c3.7,0,6.69,3,6.69,6.69s-3,6.69-6.69,6.69-6.69-3-6.69-6.69,3-6.69,6.69-6.69M702.76,506.12c-4.47,0-8.11,3.64-8.11,8.11s3.64,8.11,8.11,8.11,8.11-3.64,8.11-8.11-3.64-8.11-8.11-8.11h0Z"/>
    </g>
    <rect class="cls-9" x="699.92" y="512.48" width="5.7" height="8.33" rx="2.85" ry="2.85"/>
    <circle class="cls-6" cx="702.76" cy="518.81" r="2.85"/>
  </g>
  <g>
    <g>
      <path class="cls-5" d="M736.26,521.62c-4.08,0-7.4-3.32-7.4-7.4s3.32-7.4,7.4-7.4,7.4,3.32,7.4,7.4-3.32,7.4-7.4,7.4Z"/>
      <path class="cls-4" d="M736.26,507.53c3.7,0,6.69,3,6.69,6.69s-3,6.69-6.69,6.69-6.69-3-6.69-6.69,3-6.69,6.69-6.69M736.26,506.12c-4.47,0-8.11,3.64-8.11,8.11s3.64,8.11,8.11,8.11,8.11-3.64,8.11-8.11-3.64-8.11-8.11-8.11h0Z"/>
    </g>
    <rect class="cls-9" x="733.41" y="512.48" width="5.7" height="8.33" rx="2.85" ry="2.85"/>
    <circle class="cls-6" cx="736.26" cy="518.81" r="2.85"/>
  </g>
  <g>
    <g>
      <path class="cls-5" d="M792.74,521.62c-4.08,0-7.4-3.32-7.4-7.4s3.32-7.4,7.4-7.4,7.4,3.32,7.4,7.4-3.32,7.4-7.4,7.4Z"/>
      <path class="cls-4" d="M792.74,507.53c3.7,0,6.69,3,6.69,6.69s-3,6.69-6.69,6.69-6.69-3-6.69-6.69,3-6.69,6.69-6.69M792.74,506.12c-4.47,0-8.11,3.64-8.11,8.11s3.64,8.11,8.11,8.11,8.11-3.64,8.11-8.11-3.64-8.11-8.11-8.11h0Z"/>
    </g>
    <rect class="cls-9" x="789.89" y="512.48" width="5.7" height="8.33" rx="2.85" ry="2.85"/>
    <circle class="cls-6" cx="792.74" cy="518.81" r="2.85"/>
  </g>
  <g>
    <g>
      <path class="cls-5" d="M827.64,521.62c-4.08,0-7.4-3.32-7.4-7.4s3.32-7.4,7.4-7.4,7.4,3.32,7.4,7.4-3.32,7.4-7.4,7.4Z"/>
      <path class="cls-4" d="M827.64,507.53c3.7,0,6.69,3,6.69,6.69s-3,6.69-6.69,6.69-6.69-3-6.69-6.69,3-6.69,6.69-6.69M827.64,506.12c-4.47,0-8.11,3.64-8.11,8.11s3.64,8.11,8.11,8.11,8.11-3.64,8.11-8.11-3.64-8.11-8.11-8.11h0Z"/>
    </g>
    <rect class="cls-9" x="824.79" y="512.48" width="5.7" height="8.33" rx="2.85" ry="2.85"/>
    <circle class="cls-6" cx="827.64" cy="518.81" r="2.85"/>
  </g>
  <g>
    <g>
      <path class="cls-5" d="M861.13,521.62c-4.08,0-7.4-3.32-7.4-7.4s3.32-7.4,7.4-7.4,7.4,3.32,7.4,7.4-3.32,7.4-7.4,7.4Z"/>
      <path class="cls-4" d="M861.13,507.53c3.7,0,6.69,3,6.69,6.69s-3,6.69-6.69,6.69-6.69-3-6.69-6.69,3-6.69,6.69-6.69M861.13,506.12c-4.47,0-8.11,3.64-8.11,8.11s3.64,8.11,8.11,8.11,8.11-3.64,8.11-8.11-3.64-8.11-8.11-8.11h0Z"/>
    </g>
    <rect class="cls-9" x="858.29" y="512.48" width="5.7" height="8.33" rx="2.85" ry="2.85"/>
    <circle class="cls-6" cx="861.13" cy="518.81" r="2.85"/>
  </g>
  <g>
    <g>
      <path class="cls-5" d="M322.4,588.94c-4.08,0-7.4-3.32-7.4-7.4s3.32-7.4,7.4-7.4,7.4,3.32,7.4,7.4-3.32,7.4-7.4,7.4Z"/>
      <path class="cls-4" d="M322.4,574.85c3.7,0,6.69,3,6.69,6.69s-3,6.69-6.69,6.69-6.69-3-6.69-6.69,3-6.69,6.69-6.69M322.4,573.43c-4.47,0-8.11,3.64-8.11,8.11s3.64,8.11,8.11,8.11,8.11-3.64,8.11-8.11-3.64-8.11-8.11-8.11h0Z"/>
    </g>
    <rect class="cls-9" x="319.55" y="579.8" width="5.7" height="8.33" rx="2.85" ry="2.85"/>
    <circle class="cls-6" cx="322.4" cy="586.13" r="2.85"/>
  </g>
  <g>
    <g>
      <path class="cls-5" d="M391.61,588.94c-4.08,0-7.4-3.32-7.4-7.4s3.32-7.4,7.4-7.4,7.4,3.32,7.4,7.4-3.32,7.4-7.4,7.4Z"/>
      <path class="cls-4" d="M391.61,574.85c3.7,0,6.69,3,6.69,6.69s-3,6.69-6.69,6.69-6.69-3-6.69-6.69,3-6.69,6.69-6.69M391.61,573.43c-4.47,0-8.11,3.64-8.11,8.11s3.64,8.11,8.11,8.11,8.11-3.64,8.11-8.11-3.64-8.11-8.11-8.11h0Z"/>
    </g>
    <rect class="cls-9" x="388.77" y="579.8" width="5.7" height="8.33" rx="2.85" ry="2.85"/>
    <circle class="cls-6" cx="391.61" cy="586.13" r="2.85"/>
  </g>
  <g>
    <g>
      <path class="cls-5" d="M458.59,588.94c-4.08,0-7.4-3.32-7.4-7.4s3.32-7.4,7.4-7.4,7.4,3.32,7.4,7.4-3.32,7.4-7.4,7.4Z"/>
      <path class="cls-4" d="M458.59,574.85c3.7,0,6.69,3,6.69,6.69s-3,6.69-6.69,6.69-6.69-3-6.69-6.69,3-6.69,6.69-6.69M458.59,573.43c-4.47,0-8.11,3.64-8.11,8.11s3.64,8.11,8.11,8.11,8.11-3.64,8.11-8.11-3.64-8.11-8.11-8.11h0Z"/>
    </g>
    <rect class="cls-9" x="455.74" y="579.8" width="5.7" height="8.33" rx="2.85" ry="2.85"/>
    <circle class="cls-6" cx="458.59" cy="586.13" r="2.85"/>
  </g>
  <g>
    <g>
      <path class="cls-5" d="M529.04,588.94c-4.08,0-7.4-3.32-7.4-7.4s3.32-7.4,7.4-7.4,7.4,3.32,7.4,7.4-3.32,7.4-7.4,7.4Z"/>
      <path class="cls-4" d="M529.04,574.85c3.7,0,6.69,3,6.69,6.69s-3,6.69-6.69,6.69-6.69-3-6.69-6.69,3-6.69,6.69-6.69M529.04,573.43c-4.47,0-8.11,3.64-8.11,8.11s3.64,8.11,8.11,8.11,8.11-3.64,8.11-8.11-3.64-8.11-8.11-8.11h0Z"/>
    </g>
    <rect class="cls-9" x="526.19" y="579.8" width="5.7" height="8.33" rx="2.85" ry="2.85"/>
    <circle class="cls-6" cx="529.04" cy="586.13" r="2.85"/>
  </g>
  <g>
    <g>
      <path class="cls-5" d="M598.61,588.94c-4.08,0-7.4-3.32-7.4-7.4s3.32-7.4,7.4-7.4,7.4,3.32,7.4,7.4-3.32,7.4-7.4,7.4Z"/>
      <path class="cls-4" d="M598.61,574.85c3.7,0,6.69,3,6.69,6.69s-3,6.69-6.69,6.69-6.69-3-6.69-6.69,3-6.69,6.69-6.69M598.61,573.43c-4.47,0-8.11,3.64-8.11,8.11s3.64,8.11,8.11,8.11,8.11-3.64,8.11-8.11-3.64-8.11-8.11-8.11h0Z"/>
    </g>
    <rect class="cls-9" x="595.76" y="579.8" width="5.7" height="8.33" rx="2.85" ry="2.85"/>
    <circle class="cls-6" cx="598.61" cy="586.13" r="2.85"/>
  </g>
  <g>
    <g>
      <path class="cls-5" d="M667.43,588.94c-4.08,0-7.4-3.32-7.4-7.4s3.32-7.4,7.4-7.4,7.4,3.32,7.4,7.4-3.32,7.4-7.4,7.4Z"/>
      <path class="cls-4" d="M667.43,574.85c3.7,0,6.69,3,6.69,6.69s-3,6.69-6.69,6.69-6.69-3-6.69-6.69,3-6.69,6.69-6.69M667.43,573.43c-4.47,0-8.11,3.64-8.11,8.11s3.64,8.11,8.11,8.11,8.11-3.64,8.11-8.11-3.64-8.11-8.11-8.11h0Z"/>
    </g>
    <rect class="cls-9" x="664.59" y="579.8" width="5.7" height="8.33" rx="2.85" ry="2.85"/>
    <circle class="cls-6" cx="667.43" cy="586.13" r="2.85"/>
  </g>
  <g>
    <g>
      <circle class="cls-5" cx="738.41" cy="581.54" r="7.4"/>
      <path class="cls-4" d="M738.41,574.85c3.7,0,6.69,3,6.69,6.69s-3,6.69-6.69,6.69-6.69-3-6.69-6.69,3-6.69,6.69-6.69M738.41,573.43c-4.47,0-8.11,3.64-8.11,8.11s3.64,8.11,8.11,8.11,8.11-3.64,8.11-8.11-3.64-8.11-8.11-8.11h0Z"/>
    </g>
    <rect class="cls-9" x="735.56" y="579.8" width="5.7" height="8.33" rx="2.85" ry="2.85"/>
    <circle class="cls-6" cx="738.41" cy="586.13" r="2.85"/>
  </g>
</svg>