<svg xmlns="http://www.w3.org/2000/svg" id="Layer_1" data-name="Layer 1" viewBox="0 0 1000 1000"><defs><style>.cls-2{fill:#a3a3a3}.cls-3{fill:#787878}.cls-5{fill:#f8f2e7}.cls-6{fill:#18180f}.cls-7{fill:#e0e0de}.cls-10{fill:#e5e5e5}.cls-13{fill:#931a21}.cls-14{fill:#ef3848}</style></defs><rect width="872.66" height="31.1" x="62.73" y="679.85" rx="7.46" ry="7.46" style="fill:#15100d"/><rect width="957.21" height="398.2" x="21.39" y="294.05" rx="5.11" ry="5.11" style="fill:#555851"/><path d="M973.5 299.05c.06 0 .11.05.11.11v387.98c0 .06-.05.11-.11.11h-947c-.06 0-.11-.05-.11-.11V299.16c0-.06.05-.11.11-.11h946.99m.01-10h-947c-5.58 0-10.11 4.53-10.11 10.11v387.98c0 5.58 4.53 10.11 10.11 10.11h946.99c5.58 0 10.11-4.53 10.11-10.11V299.16c0-5.58-4.53-10.11-10.11-10.11Z" style="fill:#75b8d1"/><path d="M75.18 335.66c0 .62-.04 1.22-.13 1.82-.88 6.02-6.06 10.63-12.32 10.63s-11.45-4.61-12.33-10.63c-.09-.6-.13-1.2-.13-1.82s.04-1.23.13-1.82c.88-6.02 6.07-10.64 12.33-10.64s11.44 4.62 12.32 10.64c.09.59.13 1.2.13 1.82" class="cls-7"/><path d="M75.18 335.66c0 .62-.04 1.22-.13 1.82H50.4c-.09-.6-.13-1.2-.13-1.82s.04-1.23.13-1.82h24.65c.09.59.13 1.2.13 1.82" class="cls-2"/><path d="M947.84 335.66c0 .62-.04 1.22-.13 1.82-.88 6.02-6.06 10.63-12.32 10.63s-11.45-4.61-12.33-10.63c-.09-.6-.13-1.2-.13-1.82s.04-1.23.13-1.82c.88-6.02 6.07-10.64 12.33-10.64s11.44 4.62 12.32 10.64c.09.59.13 1.2.13 1.82" class="cls-7"/><path d="M947.84 335.66c0 .62-.04 1.22-.13 1.82h-24.65c-.09-.6-.13-1.2-.13-1.82s.04-1.23.13-1.82h24.65c.09.59.13 1.2.13 1.82" class="cls-2"/><path d="M947.84 654.19c0 .62-.04 1.22-.13 1.82-.88 6.02-6.06 10.63-12.32 10.63s-11.45-4.61-12.33-10.63c-.09-.6-.13-1.2-.13-1.82s.04-1.23.13-1.82c.88-6.02 6.07-10.64 12.33-10.64s11.44 4.62 12.32 10.64c.09.59.13 1.2.13 1.82" class="cls-7"/><path d="M947.84 654.19c0 .62-.04 1.22-.13 1.82h-24.65c-.09-.6-.13-1.2-.13-1.82s.04-1.23.13-1.82h24.65c.09.59.13 1.2.13 1.82" class="cls-2"/><path d="M75.18 654.19c0 .62-.04 1.22-.13 1.82-.88 6.02-6.06 10.63-12.32 10.63s-11.45-4.61-12.33-10.63c-.09-.6-.13-1.2-.13-1.82s.04-1.23.13-1.82c.88-6.02 6.07-10.64 12.33-10.64s11.44 4.62 12.32 10.64c.09.59.13 1.2.13 1.82" class="cls-7"/><path d="M75.18 654.19c0 .62-.04 1.22-.13 1.82H50.4c-.09-.6-.13-1.2-.13-1.82s.04-1.23.13-1.82h24.65c.09.59.13 1.2.13 1.82" class="cls-2"/><circle cx="92.62" cy="373.1" r="10.48" class="cls-14"/><ellipse cx="87.81" cy="367.94" class="cls-10" rx="3.09" ry="1.37" transform="rotate(-45 87.814 367.936)"/><circle cx="142.51" cy="373.1" r="10.48" class="cls-13"/><ellipse cx="137.71" cy="367.94" class="cls-10" rx="3.09" ry="1.37" transform="rotate(-45 137.706 367.94)"/><circle cx="193.78" cy="373.1" r="10.48" class="cls-13"/><ellipse cx="188.98" cy="367.94" class="cls-10" rx="3.09" ry="1.37" transform="rotate(-45 188.974 367.935)"/><circle cx="512.9" cy="373.1" r="10.48" class="cls-13"/><ellipse cx="508.1" cy="367.94" class="cls-10" rx="3.09" ry="1.37" transform="rotate(-45 508.104 367.936)"/><circle cx="562.8" cy="373.1" r="10.48" class="cls-13"/><ellipse cx="558" cy="367.94" class="cls-10" rx="3.09" ry="1.37" transform="rotate(-45 557.996 367.94)"/><circle cx="614.07" cy="373.1" r="10.48" class="cls-14"/><ellipse cx="609.26" cy="367.94" class="cls-10" rx="3.09" ry="1.37" transform="rotate(-45 609.264 367.935)"/><circle cx="665.1" cy="373.1" r="10.48" class="cls-13"/><ellipse cx="660.3" cy="367.94" class="cls-10" rx="3.09" ry="1.37" transform="rotate(-45 660.303 367.934)"/><circle cx="715" cy="373.1" r="10.48" class="cls-13"/><ellipse cx="710.2" cy="367.94" class="cls-10" rx="3.09" ry="1.37" transform="rotate(-45 710.195 367.938)"/><circle cx="766.27" cy="373.1" r="10.48" class="cls-13"/><ellipse cx="761.47" cy="367.94" class="cls-10" rx="3.09" ry="1.37" transform="rotate(-45 761.462 367.932)"/><circle cx="817.53" cy="373.1" r="10.48" class="cls-14"/><ellipse cx="812.73" cy="367.94" class="cls-10" rx="3.09" ry="1.37" transform="rotate(-45 812.725 367.938)"/><circle cx="868.8" cy="373.1" r="10.48" class="cls-13"/><ellipse cx="864" cy="367.94" class="cls-10" rx="3.09" ry="1.37" transform="rotate(-45 863.993 367.933)"/><circle cx="512.9" cy="506.62" r="10.48" class="cls-13"/><ellipse cx="508.1" cy="501.45" class="cls-10" rx="3.09" ry="1.37" transform="rotate(-45 508.097 501.45)"/><circle cx="562.8" cy="506.62" r="10.48" class="cls-13"/><ellipse cx="558" cy="501.45" class="cls-10" rx="3.09" ry="1.37" transform="rotate(-45 558 501.458)"/><circle cx="614.07" cy="506.62" r="10.48" class="cls-13"/><ellipse cx="609.26" cy="501.45" class="cls-10" rx="3.09" ry="1.37" transform="rotate(-45 609.269 501.453)"/><circle cx="665.1" cy="506.62" r="10.48" class="cls-14"/><ellipse cx="660.3" cy="501.45" class="cls-10" rx="3.09" ry="1.37" transform="rotate(-45 660.308 501.451)"/><circle cx="715" cy="506.62" r="10.48" class="cls-13"/><ellipse cx="710.2" cy="501.45" class="cls-10" rx="3.09" ry="1.37" transform="rotate(-45 710.2 501.456)"/><circle cx="766.27" cy="506.62" r="10.48" class="cls-13"/><ellipse cx="761.47" cy="501.45" class="cls-10" rx="3.09" ry="1.37" transform="rotate(-45 761.467 501.45)"/><circle cx="817.53" cy="506.62" r="10.48" class="cls-13"/><ellipse cx="812.73" cy="501.45" class="cls-10" rx="3.09" ry="1.37" transform="rotate(-45 812.73 501.456)"/><circle cx="868.8" cy="506.62" r="10.48" class="cls-13"/><ellipse cx="864" cy="501.45" class="cls-10" rx="3.09" ry="1.37" transform="rotate(-45 863.998 501.45)"/><circle cx="92.62" cy="506.62" r="10.48" class="cls-13"/><ellipse cx="87.81" cy="501.45" class="cls-10" rx="3.09" ry="1.37" transform="rotate(-45 87.807 501.45)"/><circle cx="142.51" cy="506.62" r="10.48" class="cls-13"/><ellipse cx="137.71" cy="501.45" class="cls-10" rx="3.09" ry="1.37" transform="rotate(-45 137.71 501.458)"/><circle cx="193.78" cy="506.62" r="10.48" class="cls-13"/><ellipse cx="188.98" cy="501.45" class="cls-10" rx="3.09" ry="1.37" transform="rotate(-45 188.978 501.453)"/><circle cx="244.82" cy="506.62" r="10.48" class="cls-13"/><ellipse cx="240.01" cy="501.45" class="cls-10" rx="3.09" ry="1.37" transform="rotate(-45 240.018 501.451)"/><circle cx="294.72" cy="506.62" r="10.48" class="cls-13"/><ellipse cx="289.91" cy="501.45" class="cls-10" rx="3.09" ry="1.37" transform="rotate(-45 289.91 501.455)"/><circle cx="345.98" cy="506.62" r="10.48" class="cls-13"/><ellipse cx="341.18" cy="501.45" class="cls-10" rx="3.09" ry="1.37" transform="rotate(-45 341.177 501.45)"/><circle cx="397.25" cy="506.62" r="10.48" class="cls-13"/><ellipse cx="392.44" cy="501.45" class="cls-10" rx="3.09" ry="1.37" transform="rotate(-45 392.44 501.456)"/><circle cx="448.51" cy="506.62" r="10.48" class="cls-13"/><ellipse cx="443.71" cy="501.45" class="cls-10" rx="3.09" ry="1.37" transform="rotate(-45 443.708 501.45)"/><path d="M94.4 447.84c-5.3 0-9.62-4.31-9.62-9.62s4.31-9.62 9.62-9.62 9.62 4.31 9.62 9.62-4.31 9.62-9.62 9.62" class="cls-6"/><path d="M94.4 429.53c4.8 0 8.7 3.89 8.7 8.7s-3.89 8.7-8.7 8.7-8.7-3.89-8.7-8.7 3.89-8.7 8.7-8.7m0-1.84c-5.81 0-10.54 4.73-10.54 10.54s4.73 10.54 10.54 10.54 10.54-4.73 10.54-10.54-4.73-10.54-10.54-10.54" class="cls-5"/><path d="M144.3 447.84c-5.3 0-9.62-4.31-9.62-9.62s4.31-9.62 9.62-9.62 9.62 4.31 9.62 9.62-4.31 9.62-9.62 9.62" class="cls-6"/><path d="M144.3 429.53c4.8 0 8.7 3.89 8.7 8.7s-3.89 8.7-8.7 8.7-8.7-3.89-8.7-8.7 3.89-8.7 8.7-8.7m0-1.84c-5.81 0-10.54 4.73-10.54 10.54s4.73 10.54 10.54 10.54 10.54-4.73 10.54-10.54-4.73-10.54-10.54-10.54" class="cls-5"/><path d="M193.78 447.84c-5.3 0-9.62-4.31-9.62-9.62s4.31-9.62 9.62-9.62 9.62 4.31 9.62 9.62-4.31 9.62-9.62 9.62" class="cls-6"/><path d="M193.78 429.53c4.8 0 8.7 3.89 8.7 8.7s-3.89 8.7-8.7 8.7-8.7-3.89-8.7-8.7 3.89-8.7 8.7-8.7m0-1.84c-5.81 0-10.54 4.73-10.54 10.54s4.73 10.54 10.54 10.54 10.54-4.73 10.54-10.54-4.73-10.54-10.54-10.54" class="cls-5"/><path d="M512.9 447.84c-5.3 0-9.62-4.31-9.62-9.62s4.31-9.62 9.62-9.62 9.62 4.31 9.62 9.62-4.31 9.62-9.62 9.62" class="cls-6"/><path d="M512.9 429.53c4.8 0 8.7 3.89 8.7 8.7s-3.89 8.7-8.7 8.7-8.7-3.89-8.7-8.7 3.89-8.7 8.7-8.7m0-1.84c-5.81 0-10.54 4.73-10.54 10.54s4.73 10.54 10.54 10.54 10.54-4.73 10.54-10.54-4.73-10.54-10.54-10.54" class="cls-5"/><path d="M562.8 447.84c-5.3 0-9.62-4.31-9.62-9.62s4.31-9.62 9.62-9.62 9.62 4.31 9.62 9.62-4.31 9.62-9.62 9.62" class="cls-6"/><path d="M562.8 429.53c4.8 0 8.7 3.89 8.7 8.7s-3.89 8.7-8.7 8.7-8.7-3.89-8.7-8.7 3.89-8.7 8.7-8.7m0-1.84c-5.81 0-10.54 4.73-10.54 10.54s4.73 10.54 10.54 10.54 10.54-4.73 10.54-10.54-4.73-10.54-10.54-10.54" class="cls-5"/><path d="M614.07 447.84c-5.3 0-9.62-4.31-9.62-9.62s4.31-9.62 9.62-9.62 9.62 4.31 9.62 9.62-4.31 9.62-9.62 9.62" class="cls-6"/><path d="M614.07 429.53c4.8 0 8.7 3.89 8.7 8.7s-3.89 8.7-8.7 8.7-8.7-3.89-8.7-8.7 3.89-8.7 8.7-8.7m0-1.84c-5.81 0-10.54 4.73-10.54 10.54s4.73 10.54 10.54 10.54 10.54-4.73 10.54-10.54-4.73-10.54-10.54-10.54" class="cls-5"/><path d="M665.1 447.84c-5.3 0-9.62-4.31-9.62-9.62s4.31-9.62 9.62-9.62 9.62 4.31 9.62 9.62-4.31 9.62-9.62 9.62" class="cls-6"/><path d="M665.1 429.53c4.8 0 8.7 3.89 8.7 8.7s-3.89 8.7-8.7 8.7-8.7-3.89-8.7-8.7 3.89-8.7 8.7-8.7m0-1.84c-5.81 0-10.54 4.73-10.54 10.54s4.73 10.54 10.54 10.54 10.54-4.73 10.54-10.54-4.73-10.54-10.54-10.54" class="cls-5"/><path d="M715 447.84c-5.3 0-9.62-4.31-9.62-9.62s4.31-9.62 9.62-9.62 9.62 4.31 9.62 9.62-4.31 9.62-9.62 9.62" class="cls-6"/><path d="M715 429.53c4.8 0 8.7 3.89 8.7 8.7s-3.89 8.7-8.7 8.7-8.7-3.89-8.7-8.7 3.89-8.7 8.7-8.7m0-1.84c-5.81 0-10.54 4.73-10.54 10.54s4.73 10.54 10.54 10.54 10.54-4.73 10.54-10.54-4.73-10.54-10.54-10.54" class="cls-5"/><path d="M766.27 447.84c-5.3 0-9.62-4.31-9.62-9.62s4.31-9.62 9.62-9.62 9.62 4.31 9.62 9.62-4.31 9.62-9.62 9.62" class="cls-6"/><path d="M766.27 429.53c4.8 0 8.7 3.89 8.7 8.7s-3.89 8.7-8.7 8.7-8.7-3.89-8.7-8.7 3.89-8.7 8.7-8.7m0-1.84c-5.81 0-10.54 4.73-10.54 10.54s4.73 10.54 10.54 10.54 10.54-4.73 10.54-10.54-4.73-10.54-10.54-10.54" class="cls-5"/><path d="M817.54 447.84c-5.3 0-9.62-4.31-9.62-9.62s4.31-9.62 9.62-9.62 9.62 4.31 9.62 9.62-4.31 9.62-9.62 9.62" class="cls-6"/><path d="M817.53 429.53c4.8 0 8.7 3.89 8.7 8.7s-3.89 8.7-8.7 8.7-8.7-3.89-8.7-8.7 3.89-8.7 8.7-8.7m0-1.84c-5.81 0-10.54 4.73-10.54 10.54s4.73 10.54 10.54 10.54 10.54-4.73 10.54-10.54-4.73-10.54-10.54-10.54" class="cls-5"/><path d="M868.8 447.84c-5.3 0-9.62-4.31-9.62-9.62s4.31-9.62 9.62-9.62 9.62 4.31 9.62 9.62-4.31 9.62-9.62 9.62" class="cls-6"/><path d="M868.8 429.53c4.8 0 8.7 3.89 8.7 8.7s-3.89 8.7-8.7 8.7-8.7-3.89-8.7-8.7 3.89-8.7 8.7-8.7m0-1.84c-5.81 0-10.54 4.73-10.54 10.54s4.73 10.54 10.54 10.54 10.54-4.73 10.54-10.54-4.73-10.54-10.54-10.54" class="cls-5"/><path d="M868.8 578.02c-5.3 0-9.62-4.31-9.62-9.62s4.31-9.62 9.62-9.62 9.62 4.31 9.62 9.62-4.31 9.62-9.62 9.62" class="cls-6"/><path d="M868.8 559.71c4.8 0 8.7 3.89 8.7 8.7s-3.89 8.7-8.7 8.7-8.7-3.89-8.7-8.7 3.89-8.7 8.7-8.7m0-1.84c-5.81 0-10.54 4.73-10.54 10.54s4.73 10.54 10.54 10.54 10.54-4.73 10.54-10.54-4.73-10.54-10.54-10.54" class="cls-5"/><path d="M817.54 578.02c-5.3 0-9.62-4.31-9.62-9.62s4.31-9.62 9.62-9.62 9.62 4.31 9.62 9.62-4.31 9.62-9.62 9.62" class="cls-6"/><path d="M817.53 559.71c4.8 0 8.7 3.89 8.7 8.7s-3.89 8.7-8.7 8.7-8.7-3.89-8.7-8.7 3.89-8.7 8.7-8.7m0-1.84c-5.81 0-10.54 4.73-10.54 10.54s4.73 10.54 10.54 10.54 10.54-4.73 10.54-10.54-4.73-10.54-10.54-10.54" class="cls-5"/><path d="M766.27 578.02c-5.3 0-9.62-4.31-9.62-9.62s4.31-9.62 9.62-9.62 9.62 4.31 9.62 9.62-4.31 9.62-9.62 9.62" class="cls-6"/><path d="M766.27 559.71c4.8 0 8.7 3.89 8.7 8.7s-3.89 8.7-8.7 8.7-8.7-3.89-8.7-8.7 3.89-8.7 8.7-8.7m0-1.84c-5.81 0-10.54 4.73-10.54 10.54s4.73 10.54 10.54 10.54 10.54-4.73 10.54-10.54-4.73-10.54-10.54-10.54" class="cls-5"/><path d="M715 578.02c-5.3 0-9.62-4.31-9.62-9.62s4.31-9.62 9.62-9.62 9.62 4.31 9.62 9.62-4.31 9.62-9.62 9.62" class="cls-6"/><path d="M715 559.71c4.8 0 8.7 3.89 8.7 8.7s-3.89 8.7-8.7 8.7-8.7-3.89-8.7-8.7 3.89-8.7 8.7-8.7m0-1.84c-5.81 0-10.54 4.73-10.54 10.54s4.73 10.54 10.54 10.54 10.54-4.73 10.54-10.54-4.73-10.54-10.54-10.54" class="cls-5"/><path d="M665.1 578.02c-5.3 0-9.62-4.31-9.62-9.62s4.31-9.62 9.62-9.62 9.62 4.31 9.62 9.62-4.31 9.62-9.62 9.62" class="cls-6"/><path d="M665.1 559.71c4.8 0 8.7 3.89 8.7 8.7s-3.89 8.7-8.7 8.7-8.7-3.89-8.7-8.7 3.89-8.7 8.7-8.7m0-1.84c-5.81 0-10.54 4.73-10.54 10.54s4.73 10.54 10.54 10.54 10.54-4.73 10.54-10.54-4.73-10.54-10.54-10.54" class="cls-5"/><path d="M614.07 578.02c-5.3 0-9.62-4.31-9.62-9.62s4.31-9.62 9.62-9.62 9.62 4.31 9.62 9.62-4.31 9.62-9.62 9.62" class="cls-6"/><path d="M614.07 559.71c4.8 0 8.7 3.89 8.7 8.7s-3.89 8.7-8.7 8.7-8.7-3.89-8.7-8.7 3.89-8.7 8.7-8.7m0-1.84c-5.81 0-10.54 4.73-10.54 10.54s4.73 10.54 10.54 10.54 10.54-4.73 10.54-10.54-4.73-10.54-10.54-10.54" class="cls-5"/><path d="M562.48 578.02c-5.3 0-9.62-4.31-9.62-9.62s4.31-9.62 9.62-9.62 9.62 4.31 9.62 9.62-4.31 9.62-9.62 9.62" class="cls-6"/><path d="M562.48 559.71c4.8 0 8.7 3.89 8.7 8.7s-3.89 8.7-8.7 8.7-8.7-3.89-8.7-8.7 3.89-8.7 8.7-8.7m0-1.84c-5.81 0-10.54 4.73-10.54 10.54s4.73 10.54 10.54 10.54 10.54-4.73 10.54-10.54-4.73-10.54-10.54-10.54" class="cls-5"/><path d="M512.9 578.02c-5.3 0-9.62-4.31-9.62-9.62s4.31-9.62 9.62-9.62 9.62 4.31 9.62 9.62-4.31 9.62-9.62 9.62" class="cls-6"/><path d="M512.9 559.71c4.8 0 8.7 3.89 8.7 8.7s-3.89 8.7-8.7 8.7-8.7-3.89-8.7-8.7 3.89-8.7 8.7-8.7m0-1.84c-5.81 0-10.54 4.73-10.54 10.54s4.73 10.54 10.54 10.54 10.54-4.73 10.54-10.54-4.73-10.54-10.54-10.54" class="cls-5"/><path d="M448.51 578.02c-5.3 0-9.62-4.31-9.62-9.62s4.31-9.62 9.62-9.62 9.62 4.31 9.62 9.62-4.31 9.62-9.62 9.62" class="cls-6"/><path d="M448.51 559.71c4.8 0 8.7 3.89 8.7 8.7s-3.89 8.7-8.7 8.7-8.7-3.89-8.7-8.7 3.89-8.7 8.7-8.7m0-1.84c-5.81 0-10.54 4.73-10.54 10.54s4.73 10.54 10.54 10.54 10.54-4.73 10.54-10.54-4.73-10.54-10.54-10.54" class="cls-5"/><path d="M398.24 578.02c-5.3 0-9.62-4.31-9.62-9.62s4.31-9.62 9.62-9.62 9.62 4.31 9.62 9.62-4.31 9.62-9.62 9.62" class="cls-6"/><path d="M398.24 559.71c4.8 0 8.7 3.89 8.7 8.7s-3.89 8.7-8.7 8.7-8.7-3.89-8.7-8.7 3.89-8.7 8.7-8.7m0-1.84c-5.81 0-10.54 4.73-10.54 10.54s4.73 10.54 10.54 10.54 10.54-4.73 10.54-10.54-4.73-10.54-10.54-10.54" class="cls-5"/><path d="M345.98 578.02c-5.3 0-9.62-4.31-9.62-9.62s4.31-9.62 9.62-9.62 9.62 4.31 9.62 9.62-4.31 9.62-9.62 9.62" class="cls-6"/><path d="M345.98 559.71c4.8 0 8.7 3.89 8.7 8.7s-3.89 8.7-8.7 8.7-8.7-3.89-8.7-8.7 3.89-8.7 8.7-8.7m0-1.84c-5.81 0-10.54 4.73-10.54 10.54s4.73 10.54 10.54 10.54 10.54-4.73 10.54-10.54-4.73-10.54-10.54-10.54" class="cls-5"/><path d="M294.72 578.02c-5.3 0-9.62-4.31-9.62-9.62s4.31-9.62 9.62-9.62 9.62 4.31 9.62 9.62-4.31 9.62-9.62 9.62" class="cls-6"/><path d="M294.72 559.71c4.8 0 8.7 3.89 8.7 8.7s-3.89 8.7-8.7 8.7-8.7-3.89-8.7-8.7 3.89-8.7 8.7-8.7m0-1.84c-5.81 0-10.54 4.73-10.54 10.54s4.73 10.54 10.54 10.54 10.54-4.73 10.54-10.54-4.73-10.54-10.54-10.54" class="cls-5"/><path d="M244.82 578.02c-5.3 0-9.62-4.31-9.62-9.62s4.31-9.62 9.62-9.62 9.62 4.31 9.62 9.62-4.31 9.62-9.62 9.62" class="cls-6"/><path d="M244.82 559.71c4.8 0 8.7 3.89 8.7 8.7s-3.89 8.7-8.7 8.7-8.7-3.89-8.7-8.7 3.89-8.7 8.7-8.7m0-1.84c-5.81 0-10.54 4.73-10.54 10.54s4.73 10.54 10.54 10.54 10.54-4.73 10.54-10.54-4.73-10.54-10.54-10.54" class="cls-5"/><path d="M193.78 578.02c-5.3 0-9.62-4.31-9.62-9.62s4.31-9.62 9.62-9.62 9.62 4.31 9.62 9.62-4.31 9.62-9.62 9.62" class="cls-6"/><path d="M193.78 559.71c4.8 0 8.7 3.89 8.7 8.7s-3.89 8.7-8.7 8.7-8.7-3.89-8.7-8.7 3.89-8.7 8.7-8.7m0-1.84c-5.81 0-10.54 4.73-10.54 10.54s4.73 10.54 10.54 10.54 10.54-4.73 10.54-10.54-4.73-10.54-10.54-10.54" class="cls-5"/><path d="M142.51 578.02c-5.3 0-9.62-4.31-9.62-9.62s4.31-9.62 9.62-9.62 9.62 4.31 9.62 9.62-4.31 9.62-9.62 9.62" class="cls-6"/><path d="M142.51 559.71c4.8 0 8.7 3.89 8.7 8.7s-3.89 8.7-8.7 8.7-8.7-3.89-8.7-8.7 3.89-8.7 8.7-8.7m0-1.84c-5.81 0-10.54 4.73-10.54 10.54s4.73 10.54 10.54 10.54 10.54-4.73 10.54-10.54-4.73-10.54-10.54-10.54" class="cls-5"/><path d="M92.62 578.02c-5.3 0-9.62-4.31-9.62-9.62s4.31-9.62 9.62-9.62 9.62 4.31 9.62 9.62-4.31 9.62-9.62 9.62" class="cls-6"/><path d="M92.62 559.71c4.8 0 8.7 3.89 8.7 8.7s-3.89 8.7-8.7 8.7-8.7-3.89-8.7-8.7 3.89-8.7 8.7-8.7m0-1.84c-5.81 0-10.54 4.73-10.54 10.54s4.73 10.54 10.54 10.54 10.54-4.73 10.54-10.54-4.73-10.54-10.54-10.54" class="cls-5"/><rect width="19.29" height="10.94" x="84.75" y="431.96" class="cls-10" rx="5.47" ry="5.47"/><rect width="19.29" height="10.94" x="184.13" y="431.96" class="cls-10" rx="5.47" ry="5.47"/><path d="M520.22 581.27c-2.98-4.78-4.53-14.03-4.53-14.03h-5.27s-1.86 9.25-4.83 14.03c-2.98 4.78-2.25 12-2.25 12h19.14s.72-7.23-2.25-12Zm-114.67 0c-2.98-4.78-4.53-14.03-4.53-14.03h-5.27s-1.86 9.25-4.83 14.03c-2.98 4.78-2.25 12-2.25 12h19.14s.72-7.23-2.25-12Zm-52.23 0c-2.98-4.78-4.53-14.03-4.53-14.03h-5.27s-1.86 9.25-4.83 14.03c-2.98 4.78-2.25 12-2.25 12h19.14s.72-7.23-2.25-12Z" style="fill:#bebdbb"/><path d="M570.12 560.65c-2.98 3.6-4.53 10.58-4.53 10.58h-5.27s-1.86-6.98-4.83-10.58c-2.98-3.6-2.25-9.05-2.25-9.05h19.14s.72 5.45-2.25 9.05Zm-49.9-132.18c-2.98 3.77-4.53 11.07-4.53 11.07h-5.27s-1.86-7.3-4.83-11.07c-2.98-3.77-2.25-9.48-2.25-9.48h19.14s.72 5.71-2.25 9.48Zm49.57-.53c-2.98 3.95-4.53 11.61-4.53 11.61h-5.27s-1.86-7.66-4.83-11.61c-2.98-3.95-2.25-9.94-2.25-9.94h19.14s.72 5.98-2.25 9.94Zm51.59.64c-2.98 3.73-4.53 10.96-4.53 10.96h-5.27s-1.86-7.23-4.83-10.96c-2.98-3.73-2.25-9.38-2.25-9.38h19.14s.72 5.65-2.25 9.38Zm51.04 0c-2.98 3.73-4.53 10.96-4.53 10.96h-5.27s-1.86-7.23-4.83-10.96c-2.98-3.73-2.25-9.38-2.25-9.38h19.14s.72 5.65-2.25 9.38Zm49.9-.64c-2.98 3.95-4.53 11.61-4.53 11.61h-5.27s-1.86-7.66-4.83-11.61c-2.98-3.95-2.25-9.94-2.25-9.94h19.14s.72 5.98-2.25 9.94Zm51.28-.34c-2.98 4.07-4.53 11.95-4.53 11.95h-5.27s-1.86-7.88-4.83-11.95c-2.98-4.07-2.25-10.22-2.25-10.22h19.14s.72 6.16-2.25 10.22Zm51.26.98c-2.98 3.73-4.53 10.96-4.53 10.96h-5.27s-1.86-7.23-4.83-10.96c-2.98-3.73-2.25-9.38-2.25-9.38h19.14s.72 5.65-2.25 9.38Zm51.26 0c-2.98 3.73-4.53 10.96-4.53 10.96h-5.27s-1.86-7.23-4.83-10.96c-2.98-3.73-2.25-9.38-2.25-9.38h19.14s.72 5.65-2.25 9.38ZM455.83 561.59c-2.98 3.28-4.53 9.65-4.53 9.65h-5.27s-1.86-6.36-4.83-9.65c-2.98-3.28-2.25-8.26-2.25-8.26h19.14s.72 4.97-2.25 8.26Zm-153.8 0c-2.98 3.28-4.53 9.65-4.53 9.65h-5.27s-1.86-6.36-4.83-9.65c-2.98-3.28-2.25-8.26-2.25-8.26h19.14s.72 4.97-2.25 8.26Zm319.35-.4c-2.98 3.42-4.53 10.04-4.53 10.04h-5.27s-1.86-6.62-4.83-10.04c-2.98-3.42-2.25-8.59-2.25-8.59h19.14s.72 5.17-2.25 8.59Zm51.04 1.08c-2.98 3.05-4.53 8.96-4.53 8.96h-5.27s-1.86-5.91-4.83-8.96c-2.98-3.05-2.25-7.67-2.25-7.67h19.14s.72 4.62-2.25 7.67Zm49.93 0c-2.98 3.05-4.53 8.96-4.53 8.96h-5.27s-1.86-5.91-4.83-8.96c-2.98-3.05-2.25-7.67-2.25-7.67h19.14s.72 4.62-2.25 7.67Zm51.25 0c-2.98 3.05-4.53 8.96-4.53 8.96h-5.27s-1.86-5.91-4.83-8.96c-2.98-3.05-2.25-7.67-2.25-7.67h19.14s.72 4.62-2.25 7.67Zm51.25 0c-2.98 3.05-4.53 8.96-4.53 8.96h-5.27s-1.86-5.91-4.83-8.96c-2.98-3.05-2.25-7.67-2.25-7.67h19.14s.72 4.62-2.25 7.67Zm51.27 0c-2.98 3.05-4.53 8.96-4.53 8.96h-5.27s-1.86-5.91-4.83-8.96c-2.98-3.05-2.25-7.67-2.25-7.67h19.14s.72 4.62-2.25 7.67Z" class="cls-3"/><rect width="19.29" height="10.94" x="503.26" y="587.81" class="cls-10" rx="5.47" ry="5.47"/><rect width="19.29" height="10.94" x="553.15" y="546.8" class="cls-10" rx="5.47" ry="5.47"/><rect width="19.29" height="10.94" x="604.42" y="547.86" class="cls-10" rx="5.47" ry="5.47"/><rect width="19.29" height="10.94" x="655.46" y="548.77" class="cls-10" rx="5.47" ry="5.47"/><rect width="19.29" height="10.94" x="705.36" y="548.77" class="cls-10" rx="5.47" ry="5.47"/><rect width="19.29" height="10.94" x="756.62" y="548.77" class="cls-10" rx="5.47" ry="5.47"/><rect width="19.29" height="10.94" x="807.89" y="550.29" class="cls-10" rx="5.47" ry="5.47"/><rect width="19.29" height="10.94" x="859.15" y="548.77" class="cls-10" rx="5.47" ry="5.47"/><rect width="19.29" height="10.94" x="438.87" y="547.86" class="cls-10" rx="5.47" ry="5.47"/><rect width="19.29" height="10.94" x="388.59" y="587.81" class="cls-10" rx="5.47" ry="5.47"/><rect width="19.29" height="10.94" x="336.34" y="587.81" class="cls-10" rx="5.47" ry="5.47"/><rect width="19.29" height="10.94" x="285.07" y="547.86" class="cls-10" rx="5.47" ry="5.47"/><path d="M252.13 562.08c-2.98 3.12-4.53 9.16-4.53 9.16h-5.27s-1.86-6.04-4.83-9.16c-2.98-3.12-2.25-7.84-2.25-7.84h19.14s.72 4.72-2.25 7.84Zm-51.04 0c-2.98 3.12-4.53 9.16-4.53 9.16h-5.27s-1.86-6.04-4.83-9.16c-2.98-3.12-2.25-7.84-2.25-7.84h19.14s.72 4.72-2.25 7.84Zm-51.26 0c-2.98 3.12-4.53 9.16-4.53 9.16h-5.27s-1.86-6.04-4.83-9.16c-2.98-3.12-2.25-7.84-2.25-7.84h19.14s.72 4.72-2.25 7.84Zm-49.9-1.56c-2.98 3.65-4.53 10.71-4.53 10.71h-5.27s-1.86-7.07-4.83-10.71c-2.98-3.65-2.25-9.17-2.25-9.17h19.14s.72 5.52-2.25 9.17Zm51.68-132.03c-2.98 3.65-4.53 10.71-4.53 10.71h-5.27s-1.86-7.07-4.83-10.71c-2.98-3.65-2.25-9.17-2.25-9.17h19.14s.72 5.52-2.25 9.17Z" class="cls-3"/><rect width="19.29" height="10.94" x="235.17" y="548.77" class="cls-10" rx="5.47" ry="5.47"/><rect width="19.29" height="10.94" x="184.13" y="548.77" class="cls-10" rx="5.47" ry="5.47"/><rect width="19.29" height="10.94" x="132.87" y="548.77" class="cls-10" rx="5.47" ry="5.47"/><rect width="19.29" height="10.94" x="82.97" y="545.88" class="cls-10" rx="5.47" ry="5.47"/><rect width="19.29" height="10.94" x="503.26" y="413.73" class="cls-10" rx="5.47" ry="5.47"/><rect width="19.29" height="10.94" x="552.83" y="412.53" class="cls-10" rx="5.47" ry="5.47"/><rect width="19.29" height="10.94" x="604.42" y="413.73" class="cls-10" rx="5.47" ry="5.47"/><rect width="19.29" height="10.94" x="655.46" y="413.73" class="cls-10" rx="5.47" ry="5.47"/><rect width="19.29" height="10.94" x="705.36" y="411.91" class="cls-10" rx="5.47" ry="5.47"/><rect width="19.29" height="10.94" x="756.62" y="411.91" class="cls-10" rx="5.47" ry="5.47"/><rect width="19.29" height="10.94" x="807.89" y="413.73" class="cls-10" rx="5.47" ry="5.47"/><rect width="19.29" height="10.94" x="859.15" y="413.73" class="cls-10" rx="5.47" ry="5.47"/><rect width="19.29" height="10.94" x="134.65" y="413.73" class="cls-10" rx="5.47" ry="5.47"/><path d="M160.92 660.9c0-5.61.04-10.98.16-13.85h-.12c-1.15 3.85-6.96 17.99-10.61 27.04h-2.17c-2.75-7.01-8.77-22.74-10.08-27.08h-.08c.21 3.28.29 9.96.29 14.87v12.21h-2.21v-28.68h3.32c3.93 9.83 8.89 22.7 9.96 25.93h.08c.66-2.09 6.39-16.39 10.41-25.93h3.28v28.68h-2.21V660.9Zm16.11-13.44h-9.63v-2.05h21.55v2.05h-9.67v26.63h-2.25zm18.43 13.23v13.4h-2.25v-28.68h10.28c5.65 0 8.65 3.03 8.65 7.54 0 3.65-2.17 6.02-5.37 6.72 2.95.7 4.92 2.62 4.92 7.5v1.11c0 2.01-.16 4.71.37 5.82h-2.25c-.53-1.23-.41-3.52-.41-5.98v-.74c0-4.71-1.39-6.68-6.88-6.68h-7.05Zm0-2.05h6.92c5.04 0 7.37-1.88 7.37-5.65 0-3.52-2.29-5.53-6.76-5.53h-7.54v11.19Z" style="fill:none;stroke:#f4f4f5"/><path d="M241.31 669.3c-.75 0-1.33.2-1.74.59-.26.3-.62.96-1.07 1.96l-1.29 2.93c-.41.94-.94 1.42-1.57 1.42-1.12 0-1.69-.43-1.69-1.28 0-.15.11-.49.34-1l12.93-29.25c.52-1.22 1.2-1.83 2.02-1.83s1.44.61 1.97 1.83l11.13 25.41c.52 1.19.79 2.1.79 2.74q0 1.605-1.38 2.58c-.92.66-2.09.98-3.51.98-1.91 0-3.43-1.29-4.55-3.88l-.28-.64c-.45-1-.84-1.68-1.18-2.03s-.88-.53-1.63-.53h-9.28Zm1.86-2.56h5.4c1.2 0 1.8-.44 1.8-1.33 0-.03-.17-.43-.51-1.19l-2.08-4.71c-.53-1.22-1.16-1.83-1.91-1.83s-1.39.61-1.91 1.83l-2.08 4.71c-.34.76-.51 1.16-.51 1.19 0 .88.6 1.33 1.8 1.33m22.43-18.83c0-1.77.36-3.05 1.07-3.86s1.95-1.21 3.71-1.21 3.05.4 3.77 1.21c.71.81 1.07 2.1 1.07 3.86v21.07c0 1.58.39 2.7 1.18 3.36s2.08.98 3.88.98h2.92c1.5 0 2.25.47 2.25 1.42s-.75 1.42-2.25 1.42h-12.6c-3.34 0-5-1.43-5-4.3zm27.66 0c0-1.07-.28-1.69-.84-1.87-.34-.09-.88-.14-1.63-.14h-4.44c-1.5 0-2.25-.47-2.25-1.42s.75-1.46 2.25-1.46h23.11c1.5 0 2.25.49 2.25 1.46s-.75 1.42-2.25 1.42h-4.44c-1.27 0-2.02.21-2.25.64-.15.27-.22.73-.22 1.37v23.45c-.04.06-.06.11-.06.14 0 1.74-.3 2.96-.89 3.66-.67.82-1.86 1.23-3.58 1.23s-2.98-.41-3.69-1.23-1.06-2.12-1.06-3.88v-23.36Zm19.63 1.6c0-1.98.71-3.52 2.14-4.62 1.76-1.37 4.57-2.06 8.43-2.06 6.93 0 10.4 2.71 10.4 8.14v17.23c0 5.46-3.47 8.18-10.4 8.18q-5.685 0-8.43-2.1c-1.43-1.1-2.14-2.62-2.14-4.57zm17.82 18.6v-17.32c0-1.65-.34-2.84-1.01-3.59s-1.82-1.12-3.43-1.12-2.84.36-3.46 1.07q-.93 1.08-.93 3.36v17.87c0 1.52.28 2.62.84 3.29.67.76 1.86 1.14 3.54 1.14s2.76-.37 3.43-1.12 1.01-1.94 1.01-3.59Zm12.09 1.19c-.75 0-1.33.2-1.74.59-.26.3-.62.96-1.07 1.96l-1.29 2.93c-.41.94-.94 1.42-1.57 1.42-1.12 0-1.69-.43-1.69-1.28 0-.15.11-.49.34-1l12.93-29.25c.52-1.22 1.2-1.83 2.02-1.83s1.44.61 1.97 1.83l11.13 25.41c.52 1.19.79 2.1.79 2.74q0 1.605-1.38 2.58c-.92.66-2.09.98-3.51.98-1.91 0-3.43-1.29-4.55-3.88l-.28-.64c-.45-1-.84-1.68-1.18-2.03s-.88-.53-1.63-.53h-9.28Zm1.86-2.56h5.4c1.2 0 1.8-.44 1.8-1.33 0-.03-.17-.43-.51-1.19l-2.08-4.71c-.53-1.22-1.16-1.83-1.91-1.83s-1.39.61-1.91 1.83l-2.08 4.71c-.34.76-.51 1.16-.51 1.19 0 .88.6 1.33 1.8 1.33m43.52-15.77v.91c0 1.43-.35 2.47-1.04 3.11q-1.035.96-3.63.96c-2.595 0-2.94-.32-3.65-.96s-1.07-1.68-1.07-3.11v-1.28c0-3.02-1.44-4.53-4.33-4.53-1.31 0-2.37.31-3.18.94-.81.62-1.21 1.46-1.21 2.49 0 1.58.97 2.85 2.92 3.79l11.02 5.39c1.69.82 2.8 1.64 3.35 2.45.54.81.81 1.91.81 3.31v3.84c0 5.39-3.56 8.09-10.68 8.09s-10.68-2.73-10.68-8.18v-.73c0-1.43.35-2.47 1.04-3.11q1.035-.96 3.63-.96c2.595 0 2.94.32 3.65.96s1.07 1.68 1.07 3.11v1.1c0 3.02 1.44 4.53 4.33 4.53 1.31 0 2.37-.3 3.18-.91s1.21-1.43 1.21-2.47c0-1.65-.96-2.92-2.87-3.84l-11.02-5.35c-1.91-.92-3.13-1.87-3.66-2.88-.38-.7-.56-1.9-.56-3.61v-3.7c0-2.32.73-4.05 2.19-5.21 1.91-1.52 4.74-2.29 8.49-2.29 7.12 0 10.68 2.71 10.68 8.14Zm10.23-3.06c0-1.07-.28-1.69-.84-1.87-.34-.09-.88-.14-1.63-.14h-4.44c-1.5 0-2.25-.47-2.25-1.42s.75-1.46 2.25-1.46h23.11c1.5 0 2.25.49 2.25 1.46s-.75 1.42-2.25 1.42h-4.44c-1.27 0-2.02.21-2.25.64-.15.27-.22.73-.22 1.37v23.45c-.04.06-.06.11-.06.14 0 1.74-.3 2.96-.89 3.66-.67.82-1.86 1.23-3.58 1.23s-2.98-.41-3.69-1.23-1.06-2.12-1.06-3.88v-23.36Zm45.83-1.78c.82-1.16 1.5-1.94 2.02-2.33.71-.58 1.57-.87 2.59-.87 1.2 0 2.31.34 3.32 1.03s1.52 1.5 1.52 2.45c0 .82-.49 1.94-1.46 3.34l-8.21 11.76 4.55 6.68c.75 1.1 1.12 2.03 1.12 2.79 0 1.37-.92 2.59-2.75 3.66-1.99 1.16-4.46 1.74-7.42 1.74-3.26 0-5.86-.62-7.79-1.85-1.93-1.24-2.9-2.83-2.9-4.78 0-1.16.51-2.46 1.52-3.89zm-7.71 16.54-3.82 4.98c-.49.64-.73 1.39-.73 2.24 0 .94.4 1.74 1.21 2.38q1.215.96 3.06.96c1.31 0 2.39-.31 3.23-.94.84-.62 1.27-1.41 1.27-2.35 0-.79-.26-1.57-.79-2.33zm25.08-3.74-4.89-7.54c-.75-1.16-1.12-2.12-1.12-2.88 0-1.46.96-2.77 2.9-3.93 1.93-1.16 4.36-1.74 7.28-1.74 3.19 0 5.79.64 7.82 1.92 1.91 1.22 2.87 2.73 2.87 4.52 0 1.58-.53 3.12-1.57 4.62l-4.39 6.22 5.06 7.68c.75 1.13 1.12 2.1 1.12 2.92 0 1.46-.96 2.74-2.87 3.84q-3.09 1.83-7.59 1.83c-3.34 0-6.01-.62-8.01-1.87-2.01-1.25-3.01-2.88-3.01-4.89 0-1.46.52-2.89 1.57-4.3l4.84-6.4Zm1.57 3.06-3.99 5.26c-.49.64-.73 1.42-.73 2.33 0 1.01.4 1.84 1.21 2.51s1.86 1.01 3.18 1.01 2.46-.33 3.32-.98 1.29-1.49 1.29-2.49c0-.85-.26-1.68-.79-2.47zm5.68-5.17 3.82-5.21c.52-.7.79-1.48.79-2.33 0-.97-.43-1.78-1.29-2.42s-1.97-.96-3.32-.96c-1.27 0-2.33.33-3.18.98-.84.66-1.27 1.47-1.27 2.45 0 .7.26 1.43.79 2.19l3.65 5.3Zm11.59-7.31c0-1.98.71-3.52 2.14-4.62 1.76-1.37 4.57-2.06 8.44-2.06 6.93 0 10.4 2.71 10.4 8.14v17.23c0 5.46-3.47 8.18-10.4 8.18-3.79 0-6.6-.7-8.44-2.1-1.43-1.1-2.14-2.62-2.14-4.57zm17.82 18.6v-17.32c0-1.65-.34-2.84-1.01-3.59s-1.82-1.12-3.43-1.12-2.84.36-3.46 1.07q-.93 1.08-.93 3.36v17.87c0 1.52.28 2.62.84 3.29q1.02 1.14 3.54 1.14c2.52 0 2.76-.37 3.43-1.12.68-.75 1.01-1.94 1.01-3.59Z" style="fill:#4fb9de"/></svg>