<?xml version="1.0" encoding="UTF-8"?>
<svg id="Layer_1" data-name="Layer 1" xmlns="http://www.w3.org/2000/svg" viewBox="0 0 1000 1000">
  <defs>
    <style>
      .cls-1 {
        fill: #555851;
      }

      .cls-2 {
        fill: #a3a3a3;
      }

      .cls-3 {
        fill: #787878;
      }

      .cls-4 {
        fill: #15100d;
      }

      .cls-5 {
        fill: #f8f2e7;
      }

      .cls-6 {
        fill: #18180f;
      }

      .cls-7 {
        fill: #e0e0de;
      }

      .cls-8 {
        fill: #bebdbb;
      }

      .cls-9 {
        fill: none;
        stroke: #f4f4f5;
      }

      .cls-10 {
        fill: #e5e5e5;
      }

      .cls-11 {
        fill: #75b8d1;
      }

      .cls-12 {
        fill: #4fb9de;
      }

      .cls-13 {
        fill: #931a21;
      }

      .cls-14 {
        fill: #ef3848;
      }
    </style>
  </defs>
  <rect class="cls-4" x="62.73" y="679.85" width="872.66" height="31.1" rx="7.46" ry="7.46"/>
  <g>
    <rect class="cls-1" x="21.39" y="294.05" width="957.21" height="398.2" rx="5.11" ry="5.11"/>
    <path class="cls-11" d="M973.5,299.05c.06,0,.11.05.11.11v387.98c0,.06-.05.11-.11.11H26.5c-.06,0-.11-.05-.11-.11v-387.98c0-.06.05-.11.11-.11h946.99M973.5,289.05H26.5c-5.58,0-10.11,4.53-10.11,10.11v387.98c0,5.58,4.53,10.11,10.11,10.11h946.99c5.58,0,10.11-4.53,10.11-10.11v-387.98c0-5.58-4.53-10.11-10.11-10.11h0Z"/>
  </g>
  <g>
    <path class="cls-7" d="M75.18,335.66c0,.62-.04,1.22-.13,1.82-.88,6.02-6.06,10.63-12.32,10.63s-11.45-4.61-12.33-10.63c-.09-.6-.13-1.2-.13-1.82s.04-1.23.13-1.82c.88-6.02,6.07-10.64,12.33-10.64s11.44,4.62,12.32,10.64c.09.59.13,1.2.13,1.82Z"/>
    <path class="cls-2" d="M75.18,335.66c0,.62-.04,1.22-.13,1.82h-24.65c-.09-.6-.13-1.2-.13-1.82s.04-1.23.13-1.82h24.65c.09.59.13,1.2.13,1.82Z"/>
  </g>
  <g>
    <path class="cls-7" d="M947.84,335.66c0,.62-.04,1.22-.13,1.82-.88,6.02-6.06,10.63-12.32,10.63s-11.45-4.61-12.33-10.63c-.09-.6-.13-1.2-.13-1.82s.04-1.23.13-1.82c.88-6.02,6.07-10.64,12.33-10.64s11.44,4.62,12.32,10.64c.09.59.13,1.2.13,1.82Z"/>
    <path class="cls-2" d="M947.84,335.66c0,.62-.04,1.22-.13,1.82h-24.65c-.09-.6-.13-1.2-.13-1.82s.04-1.23.13-1.82h24.65c.09.59.13,1.2.13,1.82Z"/>
  </g>
  <g>
    <path class="cls-7" d="M947.84,654.19c0,.62-.04,1.22-.13,1.82-.88,6.02-6.06,10.63-12.32,10.63s-11.45-4.61-12.33-10.63c-.09-.6-.13-1.2-.13-1.82s.04-1.23.13-1.82c.88-6.02,6.07-10.64,12.33-10.64s11.44,4.62,12.32,10.64c.09.59.13,1.2.13,1.82Z"/>
    <path class="cls-2" d="M947.84,654.19c0,.62-.04,1.22-.13,1.82h-24.65c-.09-.6-.13-1.2-.13-1.82s.04-1.23.13-1.82h24.65c.09.59.13,1.2.13,1.82Z"/>
  </g>
  <g>
    <path class="cls-7" d="M75.18,654.19c0,.62-.04,1.22-.13,1.82-.88,6.02-6.06,10.63-12.32,10.63s-11.45-4.61-12.33-10.63c-.09-.6-.13-1.2-.13-1.82s.04-1.23.13-1.82c.88-6.02,6.07-10.64,12.33-10.64s11.44,4.62,12.32,10.64c.09.59.13,1.2.13,1.82Z"/>
    <path class="cls-2" d="M75.18,654.19c0,.62-.04,1.22-.13,1.82h-24.65c-.09-.6-.13-1.2-.13-1.82s.04-1.23.13-1.82h24.65c.09.59.13,1.2.13,1.82Z"/>
  </g>
  <circle class="cls-14" cx="92.62" cy="373.1" r="10.48"/>
  <ellipse class="cls-10" cx="87.81" cy="367.94" rx="3.09" ry="1.37" transform="translate(-234.45 169.86) rotate(-45)"/>
  <g>
    <circle class="cls-13" cx="142.51" cy="373.1" r="10.48"/>
    <ellipse class="cls-10" cx="137.71" cy="367.94" rx="3.09" ry="1.37" transform="translate(-219.84 205.14) rotate(-45)"/>
  </g>
  <g>
    <circle class="cls-13" cx="193.78" cy="373.1" r="10.48"/>
    <ellipse class="cls-10" cx="188.98" cy="367.94" rx="3.09" ry="1.37" transform="translate(-204.82 241.39) rotate(-45)"/>
  </g>
  <g>
    <circle class="cls-13" cx="512.9" cy="373.1" r="10.48"/>
    <ellipse class="cls-10" cx="508.1" cy="367.94" rx="3.09" ry="1.37" transform="translate(-111.35 467.05) rotate(-45)"/>
  </g>
  <g>
    <circle class="cls-13" cx="562.8" cy="373.1" r="10.48"/>
    <ellipse class="cls-10" cx="558" cy="367.94" rx="3.09" ry="1.37" transform="translate(-96.74 502.33) rotate(-45)"/>
  </g>
  <circle class="cls-14" cx="614.07" cy="373.1" r="10.48"/>
  <ellipse class="cls-10" cx="609.26" cy="367.94" rx="3.09" ry="1.37" transform="translate(-81.72 538.58) rotate(-45)"/>
  <g>
    <circle class="cls-13" cx="665.1" cy="373.1" r="10.48"/>
    <ellipse class="cls-10" cx="660.3" cy="367.94" rx="3.09" ry="1.37" transform="translate(-66.77 574.67) rotate(-45)"/>
  </g>
  <g>
    <circle class="cls-13" cx="715" cy="373.1" r="10.48"/>
    <ellipse class="cls-10" cx="710.2" cy="367.94" rx="3.09" ry="1.37" transform="translate(-52.16 609.95) rotate(-45)"/>
  </g>
  <g>
    <circle class="cls-13" cx="766.27" cy="373.1" r="10.48"/>
    <ellipse class="cls-10" cx="761.47" cy="367.94" rx="3.09" ry="1.37" transform="translate(-37.14 646.2) rotate(-45)"/>
  </g>
  <circle class="cls-14" cx="817.53" cy="373.1" r="10.48"/>
  <ellipse class="cls-10" cx="812.73" cy="367.94" rx="3.09" ry="1.37" transform="translate(-22.13 682.45) rotate(-45)"/>
  <g>
    <circle class="cls-13" cx="868.8" cy="373.1" r="10.48"/>
    <ellipse class="cls-10" cx="864" cy="367.94" rx="3.09" ry="1.37" transform="translate(-7.11 718.7) rotate(-45)"/>
  </g>
  <g>
    <circle class="cls-13" cx="512.9" cy="506.62" r="10.48"/>
    <ellipse class="cls-10" cx="508.1" cy="501.45" rx="3.09" ry="1.37" transform="translate(-205.76 506.15) rotate(-45)"/>
  </g>
  <g>
    <circle class="cls-13" cx="562.8" cy="506.62" r="10.48"/>
    <ellipse class="cls-10" cx="558" cy="501.45" rx="3.09" ry="1.37" transform="translate(-191.15 541.44) rotate(-45)"/>
  </g>
  <g>
    <circle class="cls-13" cx="614.07" cy="506.62" r="10.48"/>
    <ellipse class="cls-10" cx="609.26" cy="501.45" rx="3.09" ry="1.37" transform="translate(-176.13 577.69) rotate(-45)"/>
  </g>
  <circle class="cls-14" cx="665.1" cy="506.62" r="10.48"/>
  <ellipse class="cls-10" cx="660.3" cy="501.45" rx="3.09" ry="1.37" transform="translate(-161.18 613.78) rotate(-45)"/>
  <g>
    <circle class="cls-13" cx="715" cy="506.62" r="10.48"/>
    <ellipse class="cls-10" cx="710.2" cy="501.45" rx="3.09" ry="1.37" transform="translate(-146.57 649.06) rotate(-45)"/>
  </g>
  <g>
    <circle class="cls-13" cx="766.27" cy="506.62" r="10.48"/>
    <ellipse class="cls-10" cx="761.47" cy="501.45" rx="3.09" ry="1.37" transform="translate(-131.55 685.31) rotate(-45)"/>
  </g>
  <g>
    <circle class="cls-13" cx="817.53" cy="506.62" r="10.48"/>
    <ellipse class="cls-10" cx="812.73" cy="501.45" rx="3.09" ry="1.37" transform="translate(-116.54 721.56) rotate(-45)"/>
  </g>
  <g>
    <circle class="cls-13" cx="868.8" cy="506.62" r="10.48"/>
    <ellipse class="cls-10" cx="864" cy="501.45" rx="3.09" ry="1.37" transform="translate(-101.52 757.81) rotate(-45)"/>
  </g>
  <g>
    <circle class="cls-13" cx="92.62" cy="506.62" r="10.48"/>
    <ellipse class="cls-10" cx="87.81" cy="501.45" rx="3.09" ry="1.37" transform="translate(-328.86 208.96) rotate(-45)"/>
  </g>
  <g>
    <circle class="cls-13" cx="142.51" cy="506.62" r="10.48"/>
    <ellipse class="cls-10" cx="137.71" cy="501.45" rx="3.09" ry="1.37" transform="translate(-314.25 244.25) rotate(-45)"/>
  </g>
  <g>
    <circle class="cls-13" cx="193.78" cy="506.62" r="10.48"/>
    <ellipse class="cls-10" cx="188.98" cy="501.45" rx="3.09" ry="1.37" transform="translate(-299.23 280.5) rotate(-45)"/>
  </g>
  <g>
    <circle class="cls-13" cx="244.82" cy="506.62" r="10.48"/>
    <ellipse class="cls-10" cx="240.01" cy="501.45" rx="3.09" ry="1.37" transform="translate(-284.28 316.59) rotate(-45)"/>
  </g>
  <g>
    <circle class="cls-13" cx="294.72" cy="506.62" r="10.48"/>
    <ellipse class="cls-10" cx="289.91" cy="501.45" rx="3.09" ry="1.37" transform="translate(-269.67 351.87) rotate(-45)"/>
  </g>
  <g>
    <circle class="cls-13" cx="345.98" cy="506.62" r="10.48"/>
    <ellipse class="cls-10" cx="341.18" cy="501.45" rx="3.09" ry="1.37" transform="translate(-254.65 388.12) rotate(-45)"/>
  </g>
  <g>
    <circle class="cls-13" cx="397.25" cy="506.62" r="10.48"/>
    <ellipse class="cls-10" cx="392.44" cy="501.45" rx="3.09" ry="1.37" transform="translate(-239.64 424.37) rotate(-45)"/>
  </g>
  <g>
    <circle class="cls-13" cx="448.51" cy="506.62" r="10.48"/>
    <ellipse class="cls-10" cx="443.71" cy="501.45" rx="3.09" ry="1.37" transform="translate(-224.62 460.62) rotate(-45)"/>
  </g>
  <g>
    <path class="cls-6" d="M94.4,447.84c-5.3,0-9.62-4.31-9.62-9.62s4.31-9.62,9.62-9.62,9.62,4.31,9.62,9.62-4.31,9.62-9.62,9.62Z"/>
    <path class="cls-5" d="M94.4,429.53c4.8,0,8.7,3.89,8.7,8.7s-3.89,8.7-8.7,8.7-8.7-3.89-8.7-8.7,3.89-8.7,8.7-8.7M94.4,427.69c-5.81,0-10.54,4.73-10.54,10.54s4.73,10.54,10.54,10.54,10.54-4.73,10.54-10.54-4.73-10.54-10.54-10.54h0Z"/>
  </g>
  <g>
    <path class="cls-6" d="M144.3,447.84c-5.3,0-9.62-4.31-9.62-9.62s4.31-9.62,9.62-9.62,9.62,4.31,9.62,9.62-4.31,9.62-9.62,9.62Z"/>
    <path class="cls-5" d="M144.3,429.53c4.8,0,8.7,3.89,8.7,8.7s-3.89,8.7-8.7,8.7-8.7-3.89-8.7-8.7,3.89-8.7,8.7-8.7M144.3,427.69c-5.81,0-10.54,4.73-10.54,10.54s4.73,10.54,10.54,10.54,10.54-4.73,10.54-10.54-4.73-10.54-10.54-10.54h0Z"/>
  </g>
  <g>
    <path class="cls-6" d="M193.78,447.84c-5.3,0-9.62-4.31-9.62-9.62s4.31-9.62,9.62-9.62,9.62,4.31,9.62,9.62-4.31,9.62-9.62,9.62Z"/>
    <path class="cls-5" d="M193.78,429.53c4.8,0,8.7,3.89,8.7,8.7s-3.89,8.7-8.7,8.7-8.7-3.89-8.7-8.7,3.89-8.7,8.7-8.7M193.78,427.69c-5.81,0-10.54,4.73-10.54,10.54s4.73,10.54,10.54,10.54,10.54-4.73,10.54-10.54-4.73-10.54-10.54-10.54h0Z"/>
  </g>
  <g>
    <path class="cls-6" d="M512.9,447.84c-5.3,0-9.62-4.31-9.62-9.62s4.31-9.62,9.62-9.62,9.62,4.31,9.62,9.62-4.31,9.62-9.62,9.62Z"/>
    <path class="cls-5" d="M512.9,429.53c4.8,0,8.7,3.89,8.7,8.7s-3.89,8.7-8.7,8.7-8.7-3.89-8.7-8.7,3.89-8.7,8.7-8.7M512.9,427.69c-5.81,0-10.54,4.73-10.54,10.54s4.73,10.54,10.54,10.54,10.54-4.73,10.54-10.54-4.73-10.54-10.54-10.54h0Z"/>
  </g>
  <g>
    <path class="cls-6" d="M562.8,447.84c-5.3,0-9.62-4.31-9.62-9.62s4.31-9.62,9.62-9.62,9.62,4.31,9.62,9.62-4.31,9.62-9.62,9.62Z"/>
    <path class="cls-5" d="M562.8,429.53c4.8,0,8.7,3.89,8.7,8.7s-3.89,8.7-8.7,8.7-8.7-3.89-8.7-8.7,3.89-8.7,8.7-8.7M562.8,427.69c-5.81,0-10.54,4.73-10.54,10.54s4.73,10.54,10.54,10.54,10.54-4.73,10.54-10.54-4.73-10.54-10.54-10.54h0Z"/>
  </g>
  <g>
    <path class="cls-6" d="M614.07,447.84c-5.3,0-9.62-4.31-9.62-9.62s4.31-9.62,9.62-9.62,9.62,4.31,9.62,9.62-4.31,9.62-9.62,9.62Z"/>
    <path class="cls-5" d="M614.07,429.53c4.8,0,8.7,3.89,8.7,8.7s-3.89,8.7-8.7,8.7-8.7-3.89-8.7-8.7,3.89-8.7,8.7-8.7M614.07,427.69c-5.81,0-10.54,4.73-10.54,10.54s4.73,10.54,10.54,10.54,10.54-4.73,10.54-10.54-4.73-10.54-10.54-10.54h0Z"/>
  </g>
  <g>
    <path class="cls-6" d="M665.1,447.84c-5.3,0-9.62-4.31-9.62-9.62s4.31-9.62,9.62-9.62,9.62,4.31,9.62,9.62-4.31,9.62-9.62,9.62Z"/>
    <path class="cls-5" d="M665.1,429.53c4.8,0,8.7,3.89,8.7,8.7s-3.89,8.7-8.7,8.7-8.7-3.89-8.7-8.7,3.89-8.7,8.7-8.7M665.1,427.69c-5.81,0-10.54,4.73-10.54,10.54s4.73,10.54,10.54,10.54,10.54-4.73,10.54-10.54-4.73-10.54-10.54-10.54h0Z"/>
  </g>
  <g>
    <path class="cls-6" d="M715,447.84c-5.3,0-9.62-4.31-9.62-9.62s4.31-9.62,9.62-9.62,9.62,4.31,9.62,9.62-4.31,9.62-9.62,9.62Z"/>
    <path class="cls-5" d="M715,429.53c4.8,0,8.7,3.89,8.7,8.7s-3.89,8.7-8.7,8.7-8.7-3.89-8.7-8.7,3.89-8.7,8.7-8.7M715,427.69c-5.81,0-10.54,4.73-10.54,10.54s4.73,10.54,10.54,10.54,10.54-4.73,10.54-10.54-4.73-10.54-10.54-10.54h0Z"/>
  </g>
  <g>
    <path class="cls-6" d="M766.27,447.84c-5.3,0-9.62-4.31-9.62-9.62s4.31-9.62,9.62-9.62,9.62,4.31,9.62,9.62-4.31,9.62-9.62,9.62Z"/>
    <path class="cls-5" d="M766.27,429.53c4.8,0,8.7,3.89,8.7,8.7s-3.89,8.7-8.7,8.7-8.7-3.89-8.7-8.7,3.89-8.7,8.7-8.7M766.27,427.69c-5.81,0-10.54,4.73-10.54,10.54s4.73,10.54,10.54,10.54,10.54-4.73,10.54-10.54-4.73-10.54-10.54-10.54h0Z"/>
  </g>
  <g>
    <path class="cls-6" d="M817.54,447.84c-5.3,0-9.62-4.31-9.62-9.62s4.31-9.62,9.62-9.62,9.62,4.31,9.62,9.62-4.31,9.62-9.62,9.62Z"/>
    <path class="cls-5" d="M817.53,429.53c4.8,0,8.7,3.89,8.7,8.7s-3.89,8.7-8.7,8.7-8.7-3.89-8.7-8.7,3.89-8.7,8.7-8.7M817.53,427.69c-5.81,0-10.54,4.73-10.54,10.54s4.73,10.54,10.54,10.54,10.54-4.73,10.54-10.54-4.73-10.54-10.54-10.54h0Z"/>
  </g>
  <g>
    <path class="cls-6" d="M868.8,447.84c-5.3,0-9.62-4.31-9.62-9.62s4.31-9.62,9.62-9.62,9.62,4.31,9.62,9.62-4.31,9.62-9.62,9.62Z"/>
    <path class="cls-5" d="M868.8,429.53c4.8,0,8.7,3.89,8.7,8.7s-3.89,8.7-8.7,8.7-8.7-3.89-8.7-8.7,3.89-8.7,8.7-8.7M868.8,427.69c-5.81,0-10.54,4.73-10.54,10.54s4.73,10.54,10.54,10.54,10.54-4.73,10.54-10.54-4.73-10.54-10.54-10.54h0Z"/>
  </g>
  <g>
    <path class="cls-6" d="M868.8,578.02c-5.3,0-9.62-4.31-9.62-9.62s4.31-9.62,9.62-9.62,9.62,4.31,9.62,9.62-4.31,9.62-9.62,9.62Z"/>
    <path class="cls-5" d="M868.8,559.71c4.8,0,8.7,3.89,8.7,8.7s-3.89,8.7-8.7,8.7-8.7-3.89-8.7-8.7,3.89-8.7,8.7-8.7M868.8,557.87c-5.81,0-10.54,4.73-10.54,10.54s4.73,10.54,10.54,10.54,10.54-4.73,10.54-10.54-4.73-10.54-10.54-10.54h0Z"/>
  </g>
  <g>
    <path class="cls-6" d="M817.54,578.02c-5.3,0-9.62-4.31-9.62-9.62s4.31-9.62,9.62-9.62,9.62,4.31,9.62,9.62-4.31,9.62-9.62,9.62Z"/>
    <path class="cls-5" d="M817.53,559.71c4.8,0,8.7,3.89,8.7,8.7s-3.89,8.7-8.7,8.7-8.7-3.89-8.7-8.7,3.89-8.7,8.7-8.7M817.53,557.87c-5.81,0-10.54,4.73-10.54,10.54s4.73,10.54,10.54,10.54,10.54-4.73,10.54-10.54-4.73-10.54-10.54-10.54h0Z"/>
  </g>
  <g>
    <path class="cls-6" d="M766.27,578.02c-5.3,0-9.62-4.31-9.62-9.62s4.31-9.62,9.62-9.62,9.62,4.31,9.62,9.62-4.31,9.62-9.62,9.62Z"/>
    <path class="cls-5" d="M766.27,559.71c4.8,0,8.7,3.89,8.7,8.7s-3.89,8.7-8.7,8.7-8.7-3.89-8.7-8.7,3.89-8.7,8.7-8.7M766.27,557.87c-5.81,0-10.54,4.73-10.54,10.54s4.73,10.54,10.54,10.54,10.54-4.73,10.54-10.54-4.73-10.54-10.54-10.54h0Z"/>
  </g>
  <g>
    <path class="cls-6" d="M715,578.02c-5.3,0-9.62-4.31-9.62-9.62s4.31-9.62,9.62-9.62,9.62,4.31,9.62,9.62-4.31,9.62-9.62,9.62Z"/>
    <path class="cls-5" d="M715,559.71c4.8,0,8.7,3.89,8.7,8.7s-3.89,8.7-8.7,8.7-8.7-3.89-8.7-8.7,3.89-8.7,8.7-8.7M715,557.87c-5.81,0-10.54,4.73-10.54,10.54s4.73,10.54,10.54,10.54,10.54-4.73,10.54-10.54-4.73-10.54-10.54-10.54h0Z"/>
  </g>
  <g>
    <path class="cls-6" d="M665.1,578.02c-5.3,0-9.62-4.31-9.62-9.62s4.31-9.62,9.62-9.62,9.62,4.31,9.62,9.62-4.31,9.62-9.62,9.62Z"/>
    <path class="cls-5" d="M665.1,559.71c4.8,0,8.7,3.89,8.7,8.7s-3.89,8.7-8.7,8.7-8.7-3.89-8.7-8.7,3.89-8.7,8.7-8.7M665.1,557.87c-5.81,0-10.54,4.73-10.54,10.54s4.73,10.54,10.54,10.54,10.54-4.73,10.54-10.54-4.73-10.54-10.54-10.54h0Z"/>
  </g>
  <g>
    <path class="cls-6" d="M614.07,578.02c-5.3,0-9.62-4.31-9.62-9.62s4.31-9.62,9.62-9.62,9.62,4.31,9.62,9.62-4.31,9.62-9.62,9.62Z"/>
    <path class="cls-5" d="M614.07,559.71c4.8,0,8.7,3.89,8.7,8.7s-3.89,8.7-8.7,8.7-8.7-3.89-8.7-8.7,3.89-8.7,8.7-8.7M614.07,557.87c-5.81,0-10.54,4.73-10.54,10.54s4.73,10.54,10.54,10.54,10.54-4.73,10.54-10.54-4.73-10.54-10.54-10.54h0Z"/>
  </g>
  <g>
    <path class="cls-6" d="M562.48,578.02c-5.3,0-9.62-4.31-9.62-9.62s4.31-9.62,9.62-9.62,9.62,4.31,9.62,9.62-4.31,9.62-9.62,9.62Z"/>
    <path class="cls-5" d="M562.48,559.71c4.8,0,8.7,3.89,8.7,8.7s-3.89,8.7-8.7,8.7-8.7-3.89-8.7-8.7,3.89-8.7,8.7-8.7M562.48,557.87c-5.81,0-10.54,4.73-10.54,10.54s4.73,10.54,10.54,10.54,10.54-4.73,10.54-10.54-4.73-10.54-10.54-10.54h0Z"/>
  </g>
  <g>
    <path class="cls-6" d="M512.9,578.02c-5.3,0-9.62-4.31-9.62-9.62s4.31-9.62,9.62-9.62,9.62,4.31,9.62,9.62-4.31,9.62-9.62,9.62Z"/>
    <path class="cls-5" d="M512.9,559.71c4.8,0,8.7,3.89,8.7,8.7s-3.89,8.7-8.7,8.7-8.7-3.89-8.7-8.7,3.89-8.7,8.7-8.7M512.9,557.87c-5.81,0-10.54,4.73-10.54,10.54s4.73,10.54,10.54,10.54,10.54-4.73,10.54-10.54-4.73-10.54-10.54-10.54h0Z"/>
  </g>
  <g>
    <path class="cls-6" d="M448.51,578.02c-5.3,0-9.62-4.31-9.62-9.62s4.31-9.62,9.62-9.62,9.62,4.31,9.62,9.62-4.31,9.62-9.62,9.62Z"/>
    <path class="cls-5" d="M448.51,559.71c4.8,0,8.7,3.89,8.7,8.7s-3.89,8.7-8.7,8.7-8.7-3.89-8.7-8.7,3.89-8.7,8.7-8.7M448.51,557.87c-5.81,0-10.54,4.73-10.54,10.54s4.73,10.54,10.54,10.54,10.54-4.73,10.54-10.54-4.73-10.54-10.54-10.54h0Z"/>
  </g>
  <g>
    <path class="cls-6" d="M398.24,578.02c-5.3,0-9.62-4.31-9.62-9.62s4.31-9.62,9.62-9.62,9.62,4.31,9.62,9.62-4.31,9.62-9.62,9.62Z"/>
    <path class="cls-5" d="M398.24,559.71c4.8,0,8.7,3.89,8.7,8.7s-3.89,8.7-8.7,8.7-8.7-3.89-8.7-8.7,3.89-8.7,8.7-8.7M398.24,557.87c-5.81,0-10.54,4.73-10.54,10.54s4.73,10.54,10.54,10.54,10.54-4.73,10.54-10.54-4.73-10.54-10.54-10.54h0Z"/>
  </g>
  <g>
    <path class="cls-6" d="M345.98,578.02c-5.3,0-9.62-4.31-9.62-9.62s4.31-9.62,9.62-9.62,9.62,4.31,9.62,9.62-4.31,9.62-9.62,9.62Z"/>
    <path class="cls-5" d="M345.98,559.71c4.8,0,8.7,3.89,8.7,8.7s-3.89,8.7-8.7,8.7-8.7-3.89-8.7-8.7,3.89-8.7,8.7-8.7M345.98,557.87c-5.81,0-10.54,4.73-10.54,10.54s4.73,10.54,10.54,10.54,10.54-4.73,10.54-10.54-4.73-10.54-10.54-10.54h0Z"/>
  </g>
  <g>
    <path class="cls-6" d="M294.72,578.02c-5.3,0-9.62-4.31-9.62-9.62s4.31-9.62,9.62-9.62,9.62,4.31,9.62,9.62-4.31,9.62-9.62,9.62Z"/>
    <path class="cls-5" d="M294.72,559.71c4.8,0,8.7,3.89,8.7,8.7s-3.89,8.7-8.7,8.7-8.7-3.89-8.7-8.7,3.89-8.7,8.7-8.7M294.72,557.87c-5.81,0-10.54,4.73-10.54,10.54s4.73,10.54,10.54,10.54,10.54-4.73,10.54-10.54-4.73-10.54-10.54-10.54h0Z"/>
  </g>
  <g>
    <path class="cls-6" d="M244.82,578.02c-5.3,0-9.62-4.31-9.62-9.62s4.31-9.62,9.62-9.62,9.62,4.31,9.62,9.62-4.31,9.62-9.62,9.62Z"/>
    <path class="cls-5" d="M244.82,559.71c4.8,0,8.7,3.89,8.7,8.7s-3.89,8.7-8.7,8.7-8.7-3.89-8.7-8.7,3.89-8.7,8.7-8.7M244.82,557.87c-5.81,0-10.54,4.73-10.54,10.54s4.73,10.54,10.54,10.54,10.54-4.73,10.54-10.54-4.73-10.54-10.54-10.54h0Z"/>
  </g>
  <g>
    <path class="cls-6" d="M193.78,578.02c-5.3,0-9.62-4.31-9.62-9.62s4.31-9.62,9.62-9.62,9.62,4.31,9.62,9.62-4.31,9.62-9.62,9.62Z"/>
    <path class="cls-5" d="M193.78,559.71c4.8,0,8.7,3.89,8.7,8.7s-3.89,8.7-8.7,8.7-8.7-3.89-8.7-8.7,3.89-8.7,8.7-8.7M193.78,557.87c-5.81,0-10.54,4.73-10.54,10.54s4.73,10.54,10.54,10.54,10.54-4.73,10.54-10.54-4.73-10.54-10.54-10.54h0Z"/>
  </g>
  <g>
    <path class="cls-6" d="M142.51,578.02c-5.3,0-9.62-4.31-9.62-9.62s4.31-9.62,9.62-9.62,9.62,4.31,9.62,9.62-4.31,9.62-9.62,9.62Z"/>
    <path class="cls-5" d="M142.51,559.71c4.8,0,8.7,3.89,8.7,8.7s-3.89,8.7-8.7,8.7-8.7-3.89-8.7-8.7,3.89-8.7,8.7-8.7M142.51,557.87c-5.81,0-10.54,4.73-10.54,10.54s4.73,10.54,10.54,10.54,10.54-4.73,10.54-10.54-4.73-10.54-10.54-10.54h0Z"/>
  </g>
  <g>
    <path class="cls-6" d="M92.62,578.02c-5.3,0-9.62-4.31-9.62-9.62s4.31-9.62,9.62-9.62,9.62,4.31,9.62,9.62-4.31,9.62-9.62,9.62Z"/>
    <path class="cls-5" d="M92.62,559.71c4.8,0,8.7,3.89,8.7,8.7s-3.89,8.7-8.7,8.7-8.7-3.89-8.7-8.7,3.89-8.7,8.7-8.7M92.62,557.87c-5.81,0-10.54,4.73-10.54,10.54s4.73,10.54,10.54,10.54,10.54-4.73,10.54-10.54-4.73-10.54-10.54-10.54h0Z"/>
  </g>
  <rect class="cls-10" x="84.75" y="431.96" width="19.29" height="10.94" rx="5.47" ry="5.47"/>
  <rect class="cls-10" x="184.13" y="431.96" width="19.29" height="10.94" rx="5.47" ry="5.47"/>
  <path class="cls-8" d="M520.22,581.27c-2.98-4.78-4.53-14.03-4.53-14.03h-5.27s-1.86,9.25-4.83,14.03c-2.98,4.78-2.25,12-2.25,12h19.14s.72-7.23-2.25-12Z"/>
  <path class="cls-8" d="M405.55,581.27c-2.98-4.78-4.53-14.03-4.53-14.03h-5.27s-1.86,9.25-4.83,14.03c-2.98,4.78-2.25,12-2.25,12h19.14s.72-7.23-2.25-12Z"/>
  <path class="cls-8" d="M353.32,581.27c-2.98-4.78-4.53-14.03-4.53-14.03h-5.27s-1.86,9.25-4.83,14.03c-2.98,4.78-2.25,12-2.25,12h19.14s.72-7.23-2.25-12Z"/>
  <path class="cls-3" d="M570.12,560.65c-2.98,3.6-4.53,10.58-4.53,10.58h-5.27s-1.86-6.98-4.83-10.58c-2.98-3.6-2.25-9.05-2.25-9.05h19.14s.72,5.45-2.25,9.05Z"/>
  <path class="cls-3" d="M520.22,428.47c-2.98,3.77-4.53,11.07-4.53,11.07h-5.27s-1.86-7.3-4.83-11.07c-2.98-3.77-2.25-9.48-2.25-9.48h19.14s.72,5.71-2.25,9.48Z"/>
  <path class="cls-3" d="M569.79,427.94c-2.98,3.95-4.53,11.61-4.53,11.61h-5.27s-1.86-7.66-4.83-11.61c-2.98-3.95-2.25-9.94-2.25-9.94h19.14s.72,5.98-2.25,9.94Z"/>
  <path class="cls-3" d="M621.38,428.58c-2.98,3.73-4.53,10.96-4.53,10.96h-5.27s-1.86-7.23-4.83-10.96c-2.98-3.73-2.25-9.38-2.25-9.38h19.14s.72,5.65-2.25,9.38Z"/>
  <path class="cls-3" d="M672.42,428.58c-2.98,3.73-4.53,10.96-4.53,10.96h-5.27s-1.86-7.23-4.83-10.96c-2.98-3.73-2.25-9.38-2.25-9.38h19.14s.72,5.65-2.25,9.38Z"/>
  <path class="cls-3" d="M722.32,427.94c-2.98,3.95-4.53,11.61-4.53,11.61h-5.27s-1.86-7.66-4.83-11.61c-2.98-3.95-2.25-9.94-2.25-9.94h19.14s.72,5.98-2.25,9.94Z"/>
  <path class="cls-3" d="M773.6,427.6c-2.98,4.07-4.53,11.95-4.53,11.95h-5.27s-1.86-7.88-4.83-11.95c-2.98-4.07-2.25-10.22-2.25-10.22h19.14s.72,6.16-2.25,10.22Z"/>
  <path class="cls-3" d="M824.86,428.58c-2.98,3.73-4.53,10.96-4.53,10.96h-5.27s-1.86-7.23-4.83-10.96c-2.98-3.73-2.25-9.38-2.25-9.38h19.14s.72,5.65-2.25,9.38Z"/>
  <path class="cls-3" d="M876.12,428.58c-2.98,3.73-4.53,10.96-4.53,10.96h-5.27s-1.86-7.23-4.83-10.96c-2.98-3.73-2.25-9.38-2.25-9.38h19.14s.72,5.65-2.25,9.38Z"/>
  <path class="cls-3" d="M455.83,561.59c-2.98,3.28-4.53,9.65-4.53,9.65h-5.27s-1.86-6.36-4.83-9.65c-2.98-3.28-2.25-8.26-2.25-8.26h19.14s.72,4.97-2.25,8.26Z"/>
  <path class="cls-3" d="M302.03,561.59c-2.98,3.28-4.53,9.65-4.53,9.65h-5.27s-1.86-6.36-4.83-9.65c-2.98-3.28-2.25-8.26-2.25-8.26h19.14s.72,4.97-2.25,8.26Z"/>
  <path class="cls-3" d="M621.38,561.19c-2.98,3.42-4.53,10.04-4.53,10.04h-5.27s-1.86-6.62-4.83-10.04c-2.98-3.42-2.25-8.59-2.25-8.59h19.14s.72,5.17-2.25,8.59Z"/>
  <path class="cls-3" d="M672.42,562.27c-2.98,3.05-4.53,8.96-4.53,8.96h-5.27s-1.86-5.91-4.83-8.96c-2.98-3.05-2.25-7.67-2.25-7.67h19.14s.72,4.62-2.25,7.67Z"/>
  <path class="cls-3" d="M722.35,562.27c-2.98,3.05-4.53,8.96-4.53,8.96h-5.27s-1.86-5.91-4.83-8.96c-2.98-3.05-2.25-7.67-2.25-7.67h19.14s.72,4.62-2.25,7.67Z"/>
  <path class="cls-3" d="M773.6,562.27c-2.98,3.05-4.53,8.96-4.53,8.96h-5.27s-1.86-5.91-4.83-8.96c-2.98-3.05-2.25-7.67-2.25-7.67h19.14s.72,4.62-2.25,7.67Z"/>
  <path class="cls-3" d="M824.85,562.27c-2.98,3.05-4.53,8.96-4.53,8.96h-5.27s-1.86-5.91-4.83-8.96c-2.98-3.05-2.25-7.67-2.25-7.67h19.14s.72,4.62-2.25,7.67Z"/>
  <path class="cls-3" d="M876.12,562.27c-2.98,3.05-4.53,8.96-4.53,8.96h-5.27s-1.86-5.91-4.83-8.96c-2.98-3.05-2.25-7.67-2.25-7.67h19.14s.72,4.62-2.25,7.67Z"/>
  <rect class="cls-10" x="503.26" y="587.81" width="19.29" height="10.94" rx="5.47" ry="5.47"/>
  <rect class="cls-10" x="553.15" y="546.8" width="19.29" height="10.94" rx="5.47" ry="5.47"/>
  <rect class="cls-10" x="604.42" y="547.86" width="19.29" height="10.94" rx="5.47" ry="5.47"/>
  <rect class="cls-10" x="655.46" y="548.77" width="19.29" height="10.94" rx="5.47" ry="5.47"/>
  <rect class="cls-10" x="705.36" y="548.77" width="19.29" height="10.94" rx="5.47" ry="5.47"/>
  <rect class="cls-10" x="756.62" y="548.77" width="19.29" height="10.94" rx="5.47" ry="5.47"/>
  <rect class="cls-10" x="807.89" y="550.29" width="19.29" height="10.94" rx="5.47" ry="5.47"/>
  <rect class="cls-10" x="859.15" y="548.77" width="19.29" height="10.94" rx="5.47" ry="5.47"/>
  <rect class="cls-10" x="438.87" y="547.86" width="19.29" height="10.94" rx="5.47" ry="5.47"/>
  <rect class="cls-10" x="388.59" y="587.81" width="19.29" height="10.94" rx="5.47" ry="5.47"/>
  <rect class="cls-10" x="336.34" y="587.81" width="19.29" height="10.94" rx="5.47" ry="5.47"/>
  <rect class="cls-10" x="285.07" y="547.86" width="19.29" height="10.94" rx="5.47" ry="5.47"/>
  <path class="cls-3" d="M252.13,562.08c-2.98,3.12-4.53,9.16-4.53,9.16h-5.27s-1.86-6.04-4.83-9.16c-2.98-3.12-2.25-7.84-2.25-7.84h19.14s.72,4.72-2.25,7.84Z"/>
  <path class="cls-3" d="M201.09,562.08c-2.98,3.12-4.53,9.16-4.53,9.16h-5.27s-1.86-6.04-4.83-9.16c-2.98-3.12-2.25-7.84-2.25-7.84h19.14s.72,4.72-2.25,7.84Z"/>
  <path class="cls-3" d="M149.83,562.08c-2.98,3.12-4.53,9.16-4.53,9.16h-5.27s-1.86-6.04-4.83-9.16c-2.98-3.12-2.25-7.84-2.25-7.84h19.14s.72,4.72-2.25,7.84Z"/>
  <path class="cls-3" d="M99.93,560.52c-2.98,3.65-4.53,10.71-4.53,10.71h-5.27s-1.86-7.07-4.83-10.71c-2.98-3.65-2.25-9.17-2.25-9.17h19.14s.72,5.52-2.25,9.17Z"/>
  <path class="cls-3" d="M151.61,428.49c-2.98,3.65-4.53,10.71-4.53,10.71h-5.27s-1.86-7.07-4.83-10.71c-2.98-3.65-2.25-9.17-2.25-9.17h19.14s.72,5.52-2.25,9.17Z"/>
  <rect class="cls-10" x="235.17" y="548.77" width="19.29" height="10.94" rx="5.47" ry="5.47"/>
  <rect class="cls-10" x="184.13" y="548.77" width="19.29" height="10.94" rx="5.47" ry="5.47"/>
  <rect class="cls-10" x="132.87" y="548.77" width="19.29" height="10.94" rx="5.47" ry="5.47"/>
  <rect class="cls-10" x="82.97" y="545.88" width="19.29" height="10.94" rx="5.47" ry="5.47"/>
  <rect class="cls-10" x="503.26" y="413.73" width="19.29" height="10.94" rx="5.47" ry="5.47"/>
  <rect class="cls-10" x="552.83" y="412.53" width="19.29" height="10.94" rx="5.47" ry="5.47"/>
  <rect class="cls-10" x="604.42" y="413.73" width="19.29" height="10.94" rx="5.47" ry="5.47"/>
  <rect class="cls-10" x="655.46" y="413.73" width="19.29" height="10.94" rx="5.47" ry="5.47"/>
  <rect class="cls-10" x="705.36" y="411.91" width="19.29" height="10.94" rx="5.47" ry="5.47"/>
  <rect class="cls-10" x="756.62" y="411.91" width="19.29" height="10.94" rx="5.47" ry="5.47"/>
  <rect class="cls-10" x="807.89" y="413.73" width="19.29" height="10.94" rx="5.47" ry="5.47"/>
  <rect class="cls-10" x="859.15" y="413.73" width="19.29" height="10.94" rx="5.47" ry="5.47"/>
  <rect class="cls-10" x="134.65" y="413.73" width="19.29" height="10.94" rx="5.47" ry="5.47"/>
  <g>
    <path class="cls-9" d="M160.92,660.9c0-5.61.04-10.98.16-13.85h-.12c-1.15,3.85-6.96,17.99-10.61,27.04h-2.17c-2.75-7.01-8.77-22.74-10.08-27.08h-.08c.21,3.28.29,9.96.29,14.87v12.21h-2.21v-28.68h3.32c3.93,9.83,8.89,22.7,9.96,25.93h.08c.66-2.09,6.39-16.39,10.41-25.93h3.28v28.68h-2.21v-13.19Z"/>
    <path class="cls-9" d="M177.03,647.46h-9.63v-2.05h21.55v2.05h-9.67v26.63h-2.25v-26.63Z"/>
    <path class="cls-9" d="M195.46,660.69v13.4h-2.25v-28.68h10.28c5.65,0,8.65,3.03,8.65,7.54,0,3.65-2.17,6.02-5.37,6.72,2.95.7,4.92,2.62,4.92,7.5v1.11c0,2.01-.16,4.71.37,5.82h-2.25c-.53-1.23-.41-3.52-.41-5.98v-.74c0-4.71-1.39-6.68-6.88-6.68h-7.05ZM195.46,658.64h6.92c5.04,0,7.37-1.88,7.37-5.65,0-3.52-2.29-5.53-6.76-5.53h-7.54v11.19Z"/>
  </g>
  <g>
    <path class="cls-12" d="M241.31,669.3c-.75,0-1.33.2-1.74.59-.26.3-.62.96-1.07,1.96l-1.29,2.93c-.41.94-.94,1.42-1.57,1.42-1.12,0-1.69-.43-1.69-1.28,0-.15.11-.49.34-1l12.93-29.25c.52-1.22,1.2-1.83,2.02-1.83s1.44.61,1.97,1.83l11.13,25.41c.52,1.19.79,2.1.79,2.74,0,1.07-.46,1.93-1.38,2.58-.92.66-2.09.98-3.51.98-1.91,0-3.43-1.29-4.55-3.88l-.28-.64c-.45-1-.84-1.68-1.18-2.03-.34-.35-.88-.53-1.63-.53h-9.28ZM243.17,666.74h5.4c1.2,0,1.8-.44,1.8-1.33,0-.03-.17-.43-.51-1.19l-2.08-4.71c-.53-1.22-1.16-1.83-1.91-1.83s-1.39.61-1.91,1.83l-2.08,4.71c-.34.76-.51,1.16-.51,1.19,0,.88.6,1.33,1.8,1.33Z"/>
    <path class="cls-12" d="M265.6,647.91c0-1.77.36-3.05,1.07-3.86.71-.81,1.95-1.21,3.71-1.21s3.05.4,3.77,1.21c.71.81,1.07,2.1,1.07,3.86v21.07c0,1.58.39,2.7,1.18,3.36s2.08.98,3.88.98h2.92c1.5,0,2.25.47,2.25,1.42s-.75,1.42-2.25,1.42h-12.6c-3.34,0-5-1.43-5-4.3v-23.95Z"/>
    <path class="cls-12" d="M293.26,647.91c0-1.07-.28-1.69-.84-1.87-.34-.09-.88-.14-1.63-.14h-4.44c-1.5,0-2.25-.47-2.25-1.42s.75-1.46,2.25-1.46h23.11c1.5,0,2.25.49,2.25,1.46s-.75,1.42-2.25,1.42h-4.44c-1.27,0-2.02.21-2.25.64-.15.27-.22.73-.22,1.37v23.45c-.04.06-.06.11-.06.14,0,1.74-.3,2.96-.89,3.66-.67.82-1.86,1.23-3.58,1.23s-2.98-.41-3.69-1.23c-.71-.82-1.06-2.12-1.06-3.88v-23.36Z"/>
    <path class="cls-12" d="M312.89,649.51c0-1.98.71-3.52,2.14-4.62,1.76-1.37,4.57-2.06,8.43-2.06,6.93,0,10.4,2.71,10.4,8.14v17.23c0,5.46-3.47,8.18-10.4,8.18-3.79,0-6.6-.7-8.43-2.1-1.43-1.1-2.14-2.62-2.14-4.57v-20.2ZM330.71,668.11v-17.32c0-1.65-.34-2.84-1.01-3.59-.67-.75-1.82-1.12-3.43-1.12s-2.84.36-3.46,1.07c-.62.72-.93,1.84-.93,3.36v17.87c0,1.52.28,2.62.84,3.29.67.76,1.86,1.14,3.54,1.14s2.76-.37,3.43-1.12c.67-.75,1.01-1.94,1.01-3.59Z"/>
    <path class="cls-12" d="M342.8,669.3c-.75,0-1.33.2-1.74.59-.26.3-.62.96-1.07,1.96l-1.29,2.93c-.41.94-.94,1.42-1.57,1.42-1.12,0-1.69-.43-1.69-1.28,0-.15.11-.49.34-1l12.93-29.25c.52-1.22,1.2-1.83,2.02-1.83s1.44.61,1.97,1.83l11.13,25.41c.52,1.19.79,2.1.79,2.74,0,1.07-.46,1.93-1.38,2.58-.92.66-2.09.98-3.51.98-1.91,0-3.43-1.29-4.55-3.88l-.28-.64c-.45-1-.84-1.68-1.18-2.03-.34-.35-.88-.53-1.63-.53h-9.28ZM344.66,666.74h5.4c1.2,0,1.8-.44,1.8-1.33,0-.03-.17-.43-.51-1.19l-2.08-4.71c-.53-1.22-1.16-1.83-1.91-1.83s-1.39.61-1.91,1.83l-2.08,4.71c-.34.76-.51,1.16-.51,1.19,0,.88.6,1.33,1.8,1.33Z"/>
    <path class="cls-12" d="M388.18,650.97v.91c0,1.43-.35,2.47-1.04,3.11-.69.64-1.9.96-3.63.96s-2.94-.32-3.65-.96c-.71-.64-1.07-1.68-1.07-3.11v-1.28c0-3.02-1.44-4.53-4.33-4.53-1.31,0-2.37.31-3.18.94-.81.62-1.21,1.46-1.21,2.49,0,1.58.97,2.85,2.92,3.79l11.02,5.39c1.69.82,2.8,1.64,3.35,2.45.54.81.81,1.91.81,3.31v3.84c0,5.39-3.56,8.09-10.68,8.09s-10.68-2.73-10.68-8.18v-.73c0-1.43.35-2.47,1.04-3.11.69-.64,1.9-.96,3.63-.96s2.94.32,3.65.96c.71.64,1.07,1.68,1.07,3.11v1.1c0,3.02,1.44,4.53,4.33,4.53,1.31,0,2.37-.3,3.18-.91.81-.61,1.21-1.43,1.21-2.47,0-1.65-.96-2.92-2.87-3.84l-11.02-5.35c-1.91-.92-3.13-1.87-3.66-2.88-.38-.7-.56-1.9-.56-3.61v-3.7c0-2.32.73-4.05,2.19-5.21,1.91-1.52,4.74-2.29,8.49-2.29,7.12,0,10.68,2.71,10.68,8.14Z"/>
    <path class="cls-12" d="M398.41,647.91c0-1.07-.28-1.69-.84-1.87-.34-.09-.88-.14-1.63-.14h-4.44c-1.5,0-2.25-.47-2.25-1.42s.75-1.46,2.25-1.46h23.11c1.5,0,2.25.49,2.25,1.46s-.75,1.42-2.25,1.42h-4.44c-1.27,0-2.02.21-2.25.64-.15.27-.22.73-.22,1.37v23.45c-.04.06-.06.11-.06.14,0,1.74-.3,2.96-.89,3.66-.67.82-1.86,1.23-3.58,1.23s-2.98-.41-3.69-1.23c-.71-.82-1.06-2.12-1.06-3.88v-23.36Z"/>
    <path class="cls-12" d="M444.24,646.13c.82-1.16,1.5-1.94,2.02-2.33.71-.58,1.57-.87,2.59-.87,1.2,0,2.31.34,3.32,1.03,1.01.69,1.52,1.5,1.52,2.45,0,.82-.49,1.94-1.46,3.34l-8.21,11.76,4.55,6.68c.75,1.1,1.12,2.03,1.12,2.79,0,1.37-.92,2.59-2.75,3.66-1.99,1.16-4.46,1.74-7.42,1.74-3.26,0-5.86-.62-7.79-1.85-1.93-1.24-2.9-2.83-2.9-4.78,0-1.16.51-2.46,1.52-3.89l13.89-19.73ZM436.53,662.67l-3.82,4.98c-.49.64-.73,1.39-.73,2.24,0,.94.4,1.74,1.21,2.38.81.64,1.83.96,3.06.96,1.31,0,2.39-.31,3.23-.94.84-.62,1.27-1.41,1.27-2.35,0-.79-.26-1.57-.79-2.33l-3.43-4.94Z"/>
    <path class="cls-12" d="M461.61,658.93l-4.89-7.54c-.75-1.16-1.12-2.12-1.12-2.88,0-1.46.96-2.77,2.9-3.93,1.93-1.16,4.36-1.74,7.28-1.74,3.19,0,5.79.64,7.82,1.92,1.91,1.22,2.87,2.73,2.87,4.52,0,1.58-.53,3.12-1.57,4.62l-4.39,6.22,5.06,7.68c.75,1.13,1.12,2.1,1.12,2.92,0,1.46-.96,2.74-2.87,3.84-2.06,1.22-4.59,1.83-7.59,1.83-3.34,0-6.01-.62-8.01-1.87-2.01-1.25-3.01-2.88-3.01-4.89,0-1.46.52-2.89,1.57-4.3l4.84-6.4ZM463.18,661.99l-3.99,5.26c-.49.64-.73,1.42-.73,2.33,0,1.01.4,1.84,1.21,2.51.81.67,1.86,1.01,3.18,1.01s2.46-.33,3.32-.98,1.29-1.49,1.29-2.49c0-.85-.26-1.68-.79-2.47l-3.49-5.17ZM468.86,656.82l3.82-5.21c.52-.7.79-1.48.79-2.33,0-.97-.43-1.78-1.29-2.42-.86-.64-1.97-.96-3.32-.96-1.27,0-2.33.33-3.18.98-.84.66-1.27,1.47-1.27,2.45,0,.7.26,1.43.79,2.19l3.65,5.3Z"/>
    <path class="cls-12" d="M480.45,649.51c0-1.98.71-3.52,2.14-4.62,1.76-1.37,4.57-2.06,8.44-2.06,6.93,0,10.4,2.71,10.4,8.14v17.23c0,5.46-3.47,8.18-10.4,8.18-3.79,0-6.6-.7-8.44-2.1-1.43-1.1-2.14-2.62-2.14-4.57v-20.2ZM498.27,668.11v-17.32c0-1.65-.34-2.84-1.01-3.59-.67-.75-1.82-1.12-3.43-1.12s-2.84.36-3.46,1.07c-.62.72-.93,1.84-.93,3.36v17.87c0,1.52.28,2.62.84,3.29.68.76,1.86,1.14,3.54,1.14s2.76-.37,3.43-1.12c.68-.75,1.01-1.94,1.01-3.59Z"/>
  </g>
</svg>