<svg xmlns="http://www.w3.org/2000/svg" data-name="Layer 1" viewBox="0 0 1000 1000"><path d="M976.61 517.16c.96 131.8-51.7 251.49-137.53 338.38a474 474 0 0 1-39.78 35.97 479 479 0 0 1-48.01 34.12c-76.59 18.8-161.99 29.61-252.09 30.26-84.98.62-165.9-7.85-239.29-23.66a472 472 0 0 1-46.68-31.15 465 465 0 0 1-35.28-29.41C83.93 785.39 24.63 661.76 23.63 524.07c-.17-23.14 1.31-45.9 4.35-68.18C59.34 224.79 256.63 45.87 496.66 44.12c242.04-1.76 443.23 177.26 475.45 410.76 2.82 20.37 4.34 41.16 4.5 62.28" style="fill:#2a3144"/><path d="M975.93 494.99c-24.29 65.73-72.23 130.2-138.13 185.99-62.31 52.78-140.66 97.79-230.23 128.76-201.34 69.61-401.9 48.45-514.58-41.35-43.44-71.23-68.73-154.8-69.38-244.31-.13-18.01.74-35.81 2.57-53.31.52-4.97 1.11-9.93 1.78-14.87C58.12 233.77 241.54 59.86 468.87 45.12c9.19-.59 18.46-.93 27.79-1 124.23-.9 237.7 45.81 323.07 123.08 80.97 73.27 136.7 174.02 152.38 287.67 1.83 13.2 3.11 26.58 3.82 40.11Z" style="fill:#545b75"/><path d="M839.07 855.54a474 474 0 0 1-39.78 35.97c-70.49 22.3-173.31 35.98-287.45 37.51-3.29.05-6.57.09-9.85.11-106.82.78-209.26-9.38-288.78-28.05a465 465 0 0 1-35.28-29.41c83.58 25.73 205.67 39.85 333.64 38.09 139.26-1.87 260.64-21.82 324.69-53.35.91-.44 1.86-.73 2.81-.88Z" style="fill:#0179f4"/><path d="M301.8 907.15c121.34 16.51 265.07 15.81 380.5-.55" style="fill:none;stroke:#01ffff;stroke-linecap:round;stroke-miterlimit:10;stroke-width:19.26px"/><path d="M975.93 494.99c-24.29 65.73-72.23 130.2-138.13 185.99.29-2.85 43.75-450.36-368.94-635.86 9.19-.59 18.46-.93 27.79-1 124.23-.9 237.7 45.81 323.07 123.08 80.97 73.27 136.7 174.02 152.38 287.67 1.83 13.2 3.11 26.58 3.82 40.11Z" style="fill:#4b546d"/></svg>