<?xml version="1.0" encoding="UTF-8"?>
<svg id="Layer_1" data-name="Layer 1" xmlns="http://www.w3.org/2000/svg" viewBox="0 0 1000 1000">
  <defs>
    <style>
      .cls-1 {
        fill: #4b546d;
      }

      .cls-2 {
        fill: none;
        stroke: #01ffff;
        stroke-linecap: round;
        stroke-miterlimit: 10;
        stroke-width: 19.26px;
      }

      .cls-3 {
        fill: #545b75;
      }

      .cls-4 {
        fill: #0179f4;
      }

      .cls-5 {
        fill: #2a3144;
      }
    </style>
  </defs>
  <path class="cls-5" d="M976.61,517.16c.96,131.8-51.7,251.49-137.53,338.38-12.57,12.73-25.85,24.74-39.78,35.97-15.26,12.32-31.29,23.73-48.01,34.12-76.59,18.8-161.99,29.61-252.09,30.26-84.98.62-165.9-7.85-239.29-23.66-16.2-9.47-31.78-19.87-46.68-31.15-12.23-9.22-24.01-19.02-35.28-29.41-94.02-86.28-153.32-209.91-154.32-347.6-.17-23.14,1.31-45.9,4.35-68.18C59.34,224.79,256.63,45.87,496.66,44.12c242.04-1.76,443.23,177.26,475.45,410.76,2.82,20.37,4.34,41.16,4.5,62.28Z"/>
  <path class="cls-3" d="M975.93,494.99c-24.29,65.73-72.23,130.2-138.13,185.99-62.31,52.78-140.66,97.79-230.23,128.76-201.34,69.61-401.9,48.45-514.58-41.35-43.44-71.23-68.73-154.8-69.38-244.31-.13-18.01.74-35.81,2.57-53.31.52-4.97,1.11-9.93,1.78-14.87C58.12,233.77,241.54,59.86,468.87,45.12c9.19-.59,18.46-.93,27.79-1,124.23-.9,237.7,45.81,323.07,123.08,80.97,73.27,136.7,174.02,152.38,287.67,1.83,13.2,3.11,26.58,3.82,40.11Z"/>
  <path class="cls-4" d="M839.07,855.54c-12.57,12.73-25.85,24.74-39.78,35.97-70.49,22.3-173.31,35.98-287.45,37.51-3.29.05-6.57.09-9.85.11-106.82.78-209.26-9.38-288.78-28.05-12.23-9.22-24.01-19.02-35.28-29.41,83.58,25.73,205.67,39.85,333.64,38.09,139.26-1.87,260.64-21.82,324.69-53.35.91-.44,1.86-.73,2.81-.88Z"/>
  <path class="cls-2" d="M301.8,907.15c121.34,16.51,265.07,15.81,380.5-.55"/>
  <path class="cls-1" d="M975.93,494.99c-24.29,65.73-72.23,130.2-138.13,185.99.29-2.85,43.75-450.36-368.94-635.86,9.19-.59,18.46-.93,27.79-1,124.23-.9,237.7,45.81,323.07,123.08,80.97,73.27,136.7,174.02,152.38,287.67,1.83,13.2,3.11,26.58,3.82,40.11Z"/>
</svg>