<svg xmlns="http://www.w3.org/2000/svg" id="Layer_1" data-name="Layer 1" viewBox="0 0 1000 1000"><defs><style>.cls-2{fill:#3c3b39}.cls-3{fill:#0c0c0c}.cls-5{fill:#232221}</style></defs><path d="M627.54 865.57v79.14c-.35.42-.72.84-1.08 1.25-24.09 27.1-71.41 45.52-125.84 45.52s-101.43-18.3-125.6-45.25c-.89-.98-1.75-1.98-2.56-3v-76.18c23.27-28.59 71.92-48.25 128.16-48.25s103.21 18.99 126.93 46.77Z" style="fill:#2d2c2c"/><path d="M627.54 46.55v890.8c-.36.07-.72.13-1.08.2-83.4 15.69-167.22 15.54-251.44.27-.86-.15-1.7-.32-2.56-.47V46.55c0-5.53 3.29-10.56 8.38-12.72C460.28.08 539.73.08 619.18 33.83c5.09 2.16 8.37 7.19 8.37 12.72Z" class="cls-2"/><rect width="10.63" height="21.25" x="495.22" y="33.71" class="cls-3" rx="5.31" ry="5.31"/><circle cx="500.53" cy="121.23" r="29.11" class="cls-5"/><circle cx="575.42" cy="435.6" r="29.11" class="cls-5"/><circle cx="500.53" cy="435.6" r="29.11" class="cls-5"/><circle cx="424.86" cy="435.6" r="29.11" class="cls-5"/><circle cx="575.42" cy="544.01" r="29.11" class="cls-5"/><circle cx="500.53" cy="544.01" r="29.11" class="cls-5"/><circle cx="424.86" cy="544.01" r="29.11" class="cls-5"/><path d="M603.15 278.42c0 56.67-45.95 102.62-102.62 102.62-11.44 0-22.44-1.87-32.71-5.32a102.5 102.5 0 0 1-31.35-17.12c-23.5-18.81-38.56-47.74-38.56-80.18 0-56.67 45.95-102.62 102.62-102.62 24.33 0 46.69 8.47 64.28 22.64 2.25 1.81 4.41 3.71 6.5 5.7 19.62 18.67 31.84 45.05 31.84 74.28" class="cls-3"/><path d="M571.31 204.14C556.1 286.7 510.02 337.01 436.47 358.6c-23.5-18.81-38.56-47.74-38.56-80.18 0-56.67 45.95-102.62 102.62-102.62 24.33 0 46.69 8.47 64.28 22.64 2.25 1.81 4.41 3.71 6.5 5.7" style="fill:#636363"/><circle cx="500.53" cy="278.89" r="60.32" class="cls-2"/></svg>