<?xml version="1.0" encoding="UTF-8"?>
<svg id="Buttons" xmlns="http://www.w3.org/2000/svg" viewBox="0 0 256 256">
  <defs>
    <style>
      .cls-1 {
        fill: #f15a55;
      }

      .cls-2 {
        fill: #ffdb4f;
      }

      .cls-3 {
        fill: none;
        stroke: #383838;
        stroke-linecap: round;
        stroke-width: 5.89px;
      }

      .cls-3, .cls-4 {
        stroke-miterlimit: 10;
      }

      .cls-5 {
        fill: #232323;
      }

      .cls-6 {
        fill: #565656;
      }

      .cls-7 {
        fill: #6b6b6b;
      }

      .cls-8 {
        fill: #383838;
      }

      .cls-9 {
        fill: #71c7b0;
      }

      .cls-4 {
        fill: #e7e7e6;
        stroke: #e7e7e6;
        stroke-width: .32px;
      }

      .cls-10 {
        fill: #398ccb;
      }
    </style>
  </defs>
  <rect class="cls-8" x="178.68" y="78.37" width="36.57" height="6.63" rx="2.01" ry="2.01" transform="translate(-.74 1.8) rotate(-.52)"/>
  <rect class="cls-8" x="40.88" y="78.64" width="36.57" height="6.63" rx="2.01" ry="2.01" transform="translate(118.63 163.7) rotate(179.8)"/>
  <path class="cls-7" d="M241.89,145.53c-.05,4.45-.48,10.97-9.67,16.53-8.33,4.27-38.23,9.71-43.69,10.44-.15.02-.44.07-.86.15-.1.02-.2.03-.31.05-.09.01-.18.03-.28.05l-.57.1-.25.04c-7.42,1.26-31.22,4.99-58.26,4.89-27.48.11-51.63-3.75-58.61-4.95-.26-.04-.49-.08-.71-.12-.62-.11-1.03-.18-1.21-.21-5.46-.73-35.36-6.17-43.69-10.44-9.18-5.56-9.62-12.08-9.67-16.53,1.01-8.89,2.08-15.95,4.01-25.37,1.69-9.38,7.83-26.1,9.86-29.92,2.03-3.82,7.73-7.88,12.28-8.65h36.83s3.14.19,4.98,1.69c7.06,5.8,3.14,12.61,3.14,12.61-2.26,4.37-5.1,13.77-5.97,16.73-.17.58-.26.91-.26.91.37.06.78.13,1.2.19,9.5,1.45,31.56,3.74,47.83,3.85,16.23-.11,38.24-2.38,47.77-3.84.45-.07.87-.13,1.26-.2,0,0-.09-.3-.24-.83-.84-2.86-3.71-12.4-5.99-16.81,0,0-3.92-6.82,3.14-12.61,1.84-1.5,4.98-1.69,4.98-1.69h36.83c4.54.77,10.25,4.83,12.28,8.65s8.17,20.54,9.86,29.92c1.93,9.42,3,16.48,4.01,25.37Z"/>
  <path class="cls-6" d="M74.98,117.28c-7.86,19.7-6.54,47.78-5.76,54.24.02.14.05.26.08.38.07.24.15.55.08.93,0,0,0,0,0,0l-1.41-.25c.01-.07,0-.13-.05-.31-.04-.15-.09-.34-.12-.58-.8-6.56-2.13-35.12,5.92-55.12l.07-.17.14-.12c1.41-1.15,3.65-1.87,5.03-2.75-.17.58,0,0,0,0,.37.06.78.13,1.2.19-1.27.8-3.76,2.42-5.19,3.56Z"/>
  <path class="cls-6" d="M187.76,171.9v.02c-.09.34-.13.52-.09.73h0s-.31.05-.31.05c-.09.01-.18.03-.28.05l-.57.1-.25.04c-.09-.51.01-.92.11-1.31v-.02c.79-3.2,1.28-12.06.64-22.17-.55-8.74-2.11-21.38-6.4-32.12-.46-.37-1-.78-1.6-1.22-.51-.37-1.05-.75-1.62-1.15-.51-.35-1.24-.9-1.62-1.18.45-.07.87-.13,1.26-.2h0s4.12,2.33,4.63,2.75l.14.12.07.17c4.41,10.95,6,23.84,6.56,32.73.65,10.36.16,19.21-.67,22.6Z"/>
  <rect class="cls-6" x="193.35" y="102.29" width="22.8" height="14.36" transform="translate(-22.16 60.31) rotate(-15.91)"/>
  <rect class="cls-6" x="200.07" y="123.27" width="22.8" height="14.36" transform="translate(-27.65 62.95) rotate(-15.91)"/>
  <path class="cls-6" d="M68.65,142.69c40.32,7.01,79.79,7.28,118.29,0l.46,5.91c-38.62,7.61-78.45,6.96-119.21,0l.46-5.91Z"/>
  <circle class="cls-9" cx="194.44" cy="112.37" r="7.29"/>
  <circle class="cls-2" cx="215.75" cy="106.38" r="7.29"/>
  <circle class="cls-10" cx="221.73" cy="127.48" r="7.29"/>
  <circle class="cls-1" cx="200.42" cy="133.46" r="9.08"/>
  <circle class="cls-8" cx="47.85" cy="118.51" r="16.64"/>
  <path class="cls-3" d="M144.62,150.8c3.92-.23,18.75-1.33,24.1-2.19"/>
  <circle class="cls-5" cx="50.82" cy="107.03" r="2.17"/>
  <circle class="cls-5" cx="59.17" cy="121.83" r="2.17"/>
  <circle class="cls-5" cx="44.45" cy="130.45" r="2.17"/>
  <circle class="cls-5" cx="35.9" cy="115.37" r="2.17"/>
  <g>
    <g>
      <path class="cls-4" d="M114.3,139.46v-1.37c0-1.61,1.09-2.37,3.41-2.37s3.28.69,3.35,2.14h-1.54c-.05-.84-.59-1.22-1.79-1.22-1.29,0-1.82.43-1.82,1.46v1.34c0,1.02.53,1.46,1.82,1.46,1.2,0,1.74-.37,1.79-1.21h1.54c-.07,1.44-1.15,2.14-3.35,2.14-2.32,0-3.41-.76-3.41-2.37Z"/>
      <path class="cls-4" d="M128.87,138.13v1.29c0,1.59-1.05,2.31-3.44,2.31h-3.22v-5.9h3.22c2.39,0,3.44.73,3.44,2.31ZM127.26,138.15c0-1.02-.55-1.4-2.04-1.4h-1.4v4.05h1.4c1.49,0,2.04-.38,2.04-1.4v-1.25Z"/>
    </g>
    <g>
      <path class="cls-1" d="M130.72,138.26l-.02-.53s.04-.04.1-.05l1.19-.04c.05,0,.11.02.11.04l.02.48s.01.03.07.02l1.08-.04c.05,0,.07,0,.07-.03l-.03-1.02s-.01-.03-.07-.02l-1.04.03c-.08,0-.11-.02-.11-.04l-.02-.45s.04-.04.1-.04l1.04-.03c.05,0,.07,0,.06-.03l-.03-1.01s-.01-.03-.07-.02l-1.08.04c-.05,0-.07,0-.06.03v.43s-.04.04-.09.04l-1.19.04c-.08,0-.11-.02-.11-.04l-.02-.48c-.01-.32.34-.52,1.31-.56l1.34-.04c.98-.03,1.34.14,1.35.46l.03.89c0,.28-.17.39-.41.47.24.07.43.17.44.45l.03.88c.01.32-.27.52-1.3.56l-1.33.04c-1.05.04-1.36-.14-1.37-.46Z"/>
      <path class="cls-1" d="M135.28,138.55l-.04-1.21c0-.14.11-.25.4-.38l1.78-.83c.27-.12.34-.18.33-.36v-.4s-.03-.03-.08-.02l-1.08.04c-.05,0-.07,0-.06.03l.02.49s-.05.04-.1.04l-1.19.04c-.07,0-.11,0-.11-.03l-.02-.53c-.01-.32.34-.52,1.31-.55l1.36-.05c.99-.03,1.32.14,1.33.47l.02.57c0,.25-.2.4-.55.56l-1.78.84c-.13.06-.18.12-.18.21l.02.53s.01.03.07.02l2.39-.08c.08,0,.11.02.11.04l.02.45s-.04.04-.1.04l-3.74.12c-.07,0-.11,0-.11-.03Z"/>
    </g>
    <g>
      <path class="cls-1" d="M77.9,137.59c.07.37.12.6.15.68.03.08.06.14.09.17.03.03.13.07.29.1,0,.01.01.02.02.04l-.08.18s-.03.01-.05.02c-.17-.04-.38-.08-.61-.12-.23-.04-.46-.07-.7-.09-.2-1.42-.36-2.43-.51-3.03.03-.05.04-.07.07-.12.07.02.14.03.21.04.41.07.77.01,1.08-.17.31-.18.53-.48.67-.9.18-.55-.01-.86-.59-.96-.24-.04-.44-.05-.58-.03-.59,1.13-.88,1.7-1.49,2.82-.45.83-.7,1.31-.75,1.43-.01.03-.02.05-.03.08-.03.07-.03.12,0,.16.02.04.1.07.22.1.15.04.22.05.37.09,0,.01,0,.02.01.03-.04.07-.05.11-.09.18-.02,0-.03.01-.04.02-.4-.08-.79-.15-1.18-.22-.39-.07-.77-.12-1.14-.17,0-.01-.01-.02-.02-.03.04-.08.06-.11.1-.19.02,0,.03-.01.05-.02.07,0,.11,0,.18.02.14.02.25.03.32.03.07,0,.17-.1.3-.29.13-.2.29-.47.48-.82.43-.77.64-1.16,1.05-1.94.39-.72.61-1.17.67-1.35.03-.09.03-.14,0-.17-.03-.03-.11-.06-.23-.09-.12-.03-.18-.05-.3-.08,0-.02,0-.02-.01-.04.04-.08.06-.12.1-.19.02,0,.03-.01.05-.02.29.06.65.13,1.08.21.55.08.83.12,1.38.19.6.1.95.27,1.05.53.11.25.12.52.02.81-.11.33-.32.61-.63.84-.31.23-.76.36-1.34.39.14.75.22,1.12.36,1.87Z"/>
      <path class="cls-1" d="M79.78,136.88c.06-.2.18-.46.34-.78.16-.32.38-.65.65-.96.27-.32.57-.58.91-.79.33-.21.68-.35,1.04-.43.36-.07.73-.09,1.11-.03.3.04.57.12.81.24.25.12.45.3.61.54.16.24.25.5.26.8.01.3-.03.62-.13.98-.26.94-.76,1.7-1.52,2.27-.75.58-1.61.8-2.55.67-.48-.07-.86-.21-1.14-.43-.28-.22-.46-.51-.52-.85-.06-.35-.01-.75.14-1.22ZM80.71,137.27c-.1.33-.15.62-.14.87.01.26.12.46.31.62.19.16.42.26.68.29.39.06.75-.02,1.08-.22.33-.2.67-.59,1.03-1.16.36-.57.62-1.12.77-1.65.17-.59.16-1.02,0-1.3-.17-.28-.45-.45-.83-.5-.35-.05-.67,0-.95.15-.28.15-.56.4-.83.76-.28.36-.51.74-.7,1.13-.19.4-.33.73-.42,1Z"/>
      <path class="cls-1" d="M91.76,134.94c.34.06.54.1.6.1.41.03.61.04,1.01.06,0,.01.01.02.02.03-.03.08-.04.12-.07.2-.02.01-.03.02-.05.03-.02,0-.08,0-.18,0-.1,0-.17,0-.22.02-.05.01-.1.03-.14.07-.04.04-.08.09-.12.17-.04.08-.1.22-.19.44-.47,1.21-.71,1.82-1.21,3.03-.18.45-.28.72-.3.8-.02.07,0,.13.03.16.03.04.11.06.23.09.14.03.2.04.34.07,0,.01.01.02.02.03-.03.08-.05.12-.08.19-.02,0-.02.01-.04.02-.38-.05-.76-.1-1.13-.14-.35-.04-.72-.07-1.11-.1,0-.01-.01-.02-.02-.03.03-.07.04-.11.07-.18.01,0,.02-.01.04-.02.28-.01.45-.02.51-.03.06-.01.12-.08.19-.21.07-.13.21-.43.4-.91.28-.67.41-1,.68-1.67.21-.56.32-.84.53-1.4-1.39,1.62-2.51,2.88-3.28,3.79-.21.25-.32.38-.54.63-.08,0-.12-.01-.2-.02.02-.83.04-1.24.06-2.06.02-1,.03-1.5.05-2.49-.46.91-.69,1.36-1.16,2.27-.43.83-.66,1.3-.7,1.42-.03.09-.02.16.01.2.03.04.2.09.51.14,0,.01.01.02.02.03-.03.07-.05.11-.08.18-.01.01-.02.02-.04.03-.25-.05-.52-.09-.79-.12-.28-.04-.54-.06-.79-.08,0-.01-.01-.02-.02-.03.03-.07.04-.11.07-.18.02-.01.03-.02.05-.03.25,0,.4-.02.45-.06.05-.04.18-.24.39-.59.2-.35.47-.81.78-1.4.35-.65.52-.97.86-1.62.2-.39.31-.63.34-.73.04-.14,0-.23-.13-.27-.12-.04-.28-.07-.47-.11,0-.02,0-.03,0-.04.03-.08.04-.12.07-.19.01-.01.02-.02.04-.03.36.06.63.1.82.12.21.03.46.05.74.06-.02.7-.03,1.05-.04,1.76-.01.95-.02,1.42-.04,2.37.29-.32.47-.52.53-.59.82-.93,1.22-1.4,2-2.34.28-.34.42-.51.69-.85Z"/>
      <path class="cls-1" d="M98.66,135.57c.35.05.55.08.6.08.41.01.61.02,1.02.03.01.01.02.02.03.03-.02.08-.03.12-.05.2-.02.01-.03.02-.05.03-.02,0-.09,0-.18,0-.1,0-.17.01-.22.02-.05.01-.1.04-.14.07-.04.04-.07.1-.11.17-.04.08-.09.23-.17.44-.41,1.23-.61,1.84-1.04,3.06-.15.45-.24.72-.25.8-.01.07,0,.13.03.16.04.03.12.06.24.08.14.02.21.04.34.06l.02.03c-.03.08-.04.12-.07.19-.02,0-.02.01-.04.02-.39-.04-.77-.08-1.15-.11-.35-.03-.73-.05-1.12-.07,0-.01-.01-.02-.02-.03.02-.07.04-.11.06-.19.01,0,.02-.01.04-.02.28-.02.45-.03.51-.05.06-.01.12-.08.18-.21.06-.13.18-.44.35-.92.24-.67.36-1.01.59-1.69.18-.57.28-.85.46-1.41-1.31,1.65-2.36,2.94-3.09,3.88-.2.26-.3.39-.5.64-.08,0-.12-.01-.21-.02-.02-.83-.03-1.24-.05-2.06-.04-1-.05-1.5-.09-2.49-.41.92-.62,1.38-1.04,2.3-.38.84-.59,1.31-.62,1.44-.02.09-.01.16.02.2.04.04.21.08.52.13.01.01.02.02.03.03-.03.07-.04.11-.07.19-.01.01-.02.02-.04.03-.26-.04-.52-.07-.8-.1-.28-.03-.55-.05-.8-.05,0-.01-.01-.02-.02-.03.02-.07.04-.11.06-.19.02-.01.03-.02.04-.03.25,0,.4-.03.45-.07.05-.04.17-.24.36-.6.18-.35.42-.83.7-1.42.31-.66.47-.98.78-1.64.18-.4.28-.64.3-.74.03-.14-.02-.23-.15-.26-.13-.04-.28-.07-.47-.1,0-.02,0-.03-.01-.04.02-.08.04-.12.06-.19.01-.01.02-.02.03-.03.36.05.64.08.83.1.21.02.46.04.74.04.02.7.03,1.05.05,1.76.04.95.06,1.42.1,2.37.28-.33.44-.53.5-.61.77-.95,1.14-1.43,1.88-2.39.26-.35.39-.52.65-.87Z"/>
      <path class="cls-1" d="M99.16,141.14s-.01-.02-.02-.03c.02-.08.03-.11.05-.19l.04-.03s.08,0,.17,0c.21,0,.34,0,.39-.03.05-.03.09-.08.14-.16.05-.08.17-.41.36-1,.27-.81.41-1.22.67-2.03.25-.77.38-1.23.4-1.4,0-.05,0-.08,0-.11-.01-.03-.03-.05-.07-.07-.03-.02-.11-.03-.22-.05-.13-.02-.2-.03-.33-.04,0-.01-.01-.02-.02-.03.02-.08.04-.12.06-.21.02-.01.02-.02.04-.03.32.04.7.07,1.14.1.18.01.57.03,1.17.04,0,.01.01.02.02.03-.02.08-.04.13-.06.21-.01.01-.02.02-.04.03-.28,0-.43,0-.47,0-.04,0-.07.03-.1.05-.03.02-.06.06-.08.1-.04.08-.13.33-.26.74-.36,1.16-.54,1.74-.92,2.9-.14.44-.21.71-.23.81-.01.08,0,.14.05.18.05.04.12.06.23.07.16.02.23.03.39.04,0,.01.01.02.02.03-.02.08-.03.11-.05.19-.02.01-.02.02-.04.03-.29-.04-.7-.07-1.23-.11-.41-.03-.81-.05-1.18-.06Z"/>
      <path class="cls-1" d="M107.22,141.2s-.02.02-.03.03c-.13.02-.34.07-.63.16-.41.12-.73.19-.97.22-.24.03-.46.03-.67.02-.7-.03-1.22-.25-1.56-.63-.34-.39-.46-.93-.36-1.63.05-.38.16-.76.32-1.12.16-.36.35-.67.57-.93.22-.26.53-.51.91-.75.39-.24.73-.41,1.04-.49.31-.09.63-.12.95-.11.28.01.56.06.84.14.28.08.49.18.62.28,0,.02.01.03.02.06-.09.26-.14.39-.23.65-.06.16-.12.36-.18.6-.01.01-.02.02-.04.03-.08,0-.13,0-.21,0,0-.01-.01-.02-.02-.03.05-.28.08-.53.1-.74-.31-.31-.72-.47-1.23-.49-.32-.01-.62.03-.88.13-.26.1-.5.28-.7.55-.21.27-.39.61-.54,1.03-.15.41-.26.82-.31,1.23-.08.58-.01,1.03.2,1.35.21.32.56.49,1.03.52.34.02.66-.05.93-.19.09-.24.13-.36.21-.59.04-.11.08-.25.13-.42.05-.17.07-.27.08-.32,0-.04,0-.08-.02-.11-.02-.03-.04-.05-.07-.06-.03,0-.12-.02-.26-.03-.14-.01-.27-.03-.38-.03,0-.01-.01-.02-.02-.03.02-.08.04-.12.06-.21.02-.01.02-.02.04-.03.47.04.82.06,1.03.07.1,0,.49.01,1.15.02,0,.01.01.02.02.04-.02.08-.03.12-.05.21-.02.01-.02.02-.04.03-.14,0-.23,0-.3.03-.06.02-.11.06-.15.11-.04.05-.09.18-.15.39-.04.13-.06.2-.11.33-.06.2-.1.33-.12.39-.02.06-.03.12-.03.19,0,.05,0,.11,0,.16Z"/>
      <path class="cls-1" d="M107.92,141.62s-.01-.02-.02-.04c.02-.08.03-.12.05-.2.02-.01.02-.02.04-.03.2,0,.31-.02.34-.02.03,0,.06-.02.09-.04.03-.02.07-.06.1-.1.03-.04.15-.21.34-.49.21-.3.31-.45.51-.76.49-.74.74-1.11,1.21-1.85.29-.44.44-.67.72-1.11.21-.32.36-.57.46-.75.28,0,.43,0,.71.02.03.46.05.7.08,1.16.04.51.06.77.1,1.28.03.42.05.63.08,1.05.03.31.04.47.06.79.02.19.03.28.04.47.01.21.05.35.1.41.06.06.23.1.54.1,0,.01.01.02.02.04-.01.08-.02.12-.04.2-.02.01-.02.02-.04.03-.57-.03-.96-.05-1.15-.05-.17,0-.54,0-1.11,0-.01-.01-.02-.02-.03-.04.02-.08.03-.12.05-.2.02-.01.02-.02.04-.03.25,0,.4,0,.48-.05.07-.04.11-.1.12-.18.01-.18,0-.73-.06-1.64-.23,0-.38-.01-.45-.01-.23,0-.34,0-.57-.01-.27,0-.4-.01-.67-.02-.17.26-.35.55-.55.87-.2.32-.32.53-.36.62-.04.09-.06.15-.06.18,0,.05.02.09.07.12s.23.06.56.08c0,.01.01.02.02.04-.02.08-.03.12-.04.2-.02.01-.02.02-.04.03,0,0-.1,0-.28-.02-.24-.02-.43-.03-.55-.03-.07,0-.38,0-.92,0ZM110.29,139.2c.12,0,.19,0,.22,0,.77.02,1.19.03,1.25.03-.06-.84-.08-1.26-.14-2.11-.52.83-.78,1.24-1.32,2.07Z"/>
    </g>
  </g>
</svg>