<svg xmlns="http://www.w3.org/2000/svg" viewBox="0 0 1000 1000"><defs><style>.cls-6{fill:#7a7577}.cls-9{fill:#9d907b}.cls-10{fill:#1b1b1b}.cls-12{fill:#9e977c}.cls-14{fill:#b4a68c}.cls-17{fill:#847c66}</style></defs><g id="Layer_1" data-name="Layer 1"><path d="M978.64 804.91c-.14 6.65-5.58 11.96-12.23 11.93l-926.85-2.88c-9.24 0-16.77-7.42-16.9-16.66l-7.07-291.22h968.37l-5.33 298.84Z" style="fill:#b39f84"/><path d="M976.94 447.56H24.73l13.16-97.8.32-2.43 1.17-8.65.32-2.43 1.17-8.65.33-2.43 1.16-8.65.33-2.43 1.16-8.65.33-2.43 1.16-8.65.33-2.43 1.16-8.65.33-2.43 1.16-8.65.33-2.43 1.16-8.65.33-2.43 2.83-21.04h896.26l8.37 63.39-6.89.86 8.08 64.94 7.37-.92z" style="fill:#d8c1ab"/><path d="M803.28 561.97H968.5v200.48H803.28z" class="cls-10"/><rect width="79.2" height="37.34" x="805.75" y="722.66" class="cls-12" rx="1.87" ry="1.87"/><path d="M874.76 752.03a466 466 0 0 1-58.82 0c-3.06 0-5.53-.97-5.53-2.18V726.7c0-1.2 2.48-2.18 5.53-2.18h58.82c3.06 0 5.53.97 5.53 2.18v23.15c0 1.2-2.48 2.18-5.53 2.18" class="cls-14"/><rect width="38.6" height="37.34" x="805.87" y="564.51" class="cls-17" rx="1.3" ry="1.3"/><path d="M837.39 593.88a80.7 80.7 0 0 1-24.43 0c-1.27 0-2.3-.97-2.3-2.18v-23.15c0-1.2 1.03-2.18 2.3-2.18h24.43c1.27 0 2.3.97 2.3 2.18v23.15c0 1.2-1.03 2.18-2.3 2.18" class="cls-9"/><rect width="38.6" height="37.34" x="846.47" y="564.51" class="cls-17" rx="1.3" ry="1.3"/><path d="M877.99 593.88a80.7 80.7 0 0 1-24.43 0c-1.27 0-2.3-.97-2.3-2.18v-23.15c0-1.2 1.03-2.18 2.3-2.18h24.43c1.27 0 2.3.97 2.3 2.18v23.15c0 1.2-1.03 2.18-2.3 2.18" class="cls-9"/><rect width="38.6" height="37.34" x="887.33" y="564.51" class="cls-17" rx="1.3" ry="1.3"/><path d="M918.85 593.88a80.7 80.7 0 0 1-24.43 0c-1.27 0-2.3-.97-2.3-2.18v-23.15c0-1.2 1.03-2.18 2.3-2.18h24.43c1.27 0 2.3.97 2.3 2.18v23.15c0 1.2-1.03 2.18-2.3 2.18" class="cls-9"/><rect width="38.6" height="37.34" x="928.06" y="564.51" class="cls-17" rx="1.3" ry="1.3"/><path d="M959.58 593.88a80.7 80.7 0 0 1-24.43 0c-1.27 0-2.3-.97-2.3-2.18v-23.15c0-1.2 1.03-2.18 2.3-2.18h24.43c1.27 0 2.3.97 2.3 2.18v23.15c0 1.2-1.03 2.18-2.3 2.18" class="cls-9"/><rect width="38.6" height="37.34" x="928.06" y="604.05" class="cls-17" rx="1.3" ry="1.3"/><path d="M959.58 633.41a80.7 80.7 0 0 1-24.43 0c-1.27 0-2.3-.97-2.3-2.18v-23.15c0-1.2 1.03-2.18 2.3-2.18h24.43c1.27 0 2.3.97 2.3 2.18v23.15c0 1.2-1.03 2.18-2.3 2.18" class="cls-9"/><rect width="38.6" height="37.34" x="928.06" y="643.24" class="cls-17" rx="1.3" ry="1.3"/><path d="M959.58 672.61a80.7 80.7 0 0 1-24.43 0c-1.27 0-2.3-.97-2.3-2.18v-23.15c0-1.2 1.03-2.18 2.3-2.18h24.43c1.27 0 2.3.97 2.3 2.18v23.15c0 1.2-1.03 2.18-2.3 2.18" class="cls-9"/><rect width="38.6" height="77.56" x="928.06" y="682.44" class="cls-17" rx="1.88" ry="1.88"/><path d="M959.58 750.05c-7.96 2.67-16.13 2.69-24.43 0-1.27 0-2.3-2.26-2.3-5.05v-53.66c0-2.79 1.03-5.05 2.3-5.05h24.43c1.27 0 2.3 2.26 2.3 5.05V745c0 2.79-1.03 5.05-2.3 5.05" class="cls-9"/><rect width="38.09" height="37.34" x="805.87" y="604.05" class="cls-12" rx="1.29" ry="1.29"/><path d="M836.73 633.41a75.5 75.5 0 0 1-23.62 0c-1.23 0-2.22-.97-2.22-2.18v-23.15c0-1.2.99-2.18 2.22-2.18h23.62c1.23 0 2.22.97 2.22 2.18v23.15c0 1.2-.99 2.18-2.22 2.18" class="cls-14"/><rect width="38.09" height="37.34" x="887.84" y="604.05" class="cls-12" rx="1.29" ry="1.29"/><path d="M918.69 633.41a75.5 75.5 0 0 1-23.62 0c-1.23 0-2.22-.97-2.22-2.18v-23.15c0-1.2.99-2.18 2.22-2.18h23.62c1.23 0 2.22.97 2.22 2.18v23.15c0 1.2-.99 2.18-2.22 2.18" class="cls-14"/><rect width="38.09" height="37.34" x="846.86" y="604.05" class="cls-12" rx="1.29" ry="1.29"/><path d="M877.71 633.41a75.5 75.5 0 0 1-23.62 0c-1.23 0-2.22-.97-2.22-2.18v-23.15c0-1.2.99-2.18 2.22-2.18h23.62c1.23 0 2.22.97 2.22 2.18v23.15c0 1.2-.99 2.18-2.22 2.18" class="cls-14"/><rect width="38.09" height="37.34" x="805.75" y="643.59" class="cls-12" rx="1.29" ry="1.29"/><path d="M836.6 672.95a75.5 75.5 0 0 1-23.62 0c-1.23 0-2.22-.97-2.22-2.18v-23.15c0-1.2.99-2.18 2.22-2.18h23.62c1.23 0 2.22.97 2.22 2.18v23.15c0 1.2-.99 2.18-2.22 2.18" class="cls-14"/><rect width="38.09" height="37.34" x="887.71" y="643.59" class="cls-12" rx="1.29" ry="1.29"/><path d="M918.57 672.95a75.5 75.5 0 0 1-23.62 0c-1.23 0-2.22-.97-2.22-2.18v-23.15c0-1.2.99-2.18 2.22-2.18h23.62c1.23 0 2.22.97 2.22 2.18v23.15c0 1.2-.99 2.18-2.22 2.18" class="cls-14"/><rect width="38.09" height="37.34" x="846.73" y="643.59" class="cls-12" rx="1.29" ry="1.29"/><path d="M877.58 672.95a75.5 75.5 0 0 1-23.62 0c-1.23 0-2.22-.97-2.22-2.18v-23.15c0-1.2.99-2.18 2.22-2.18h23.62c1.23 0 2.22.97 2.22 2.18v23.15c0 1.2-.99 2.18-2.22 2.18" class="cls-14"/><rect width="38.09" height="37.34" x="805.75" y="683.13" class="cls-12" rx="1.29" ry="1.29"/><path d="M836.6 712.49a75.5 75.5 0 0 1-23.62 0c-1.23 0-2.22-.97-2.22-2.18v-23.15c0-1.2.99-2.18 2.22-2.18h23.62c1.23 0 2.22.97 2.22 2.18v23.15c0 1.2-.99 2.18-2.22 2.18" class="cls-14"/><rect width="38.09" height="37.34" x="887.71" y="683.13" class="cls-12" rx="1.29" ry="1.29"/><path d="M918.57 712.49a75.5 75.5 0 0 1-23.62 0c-1.23 0-2.22-.97-2.22-2.18v-23.15c0-1.2.99-2.18 2.22-2.18h23.62c1.23 0 2.22.97 2.22 2.18v23.15c0 1.2-.99 2.18-2.22 2.18" class="cls-14"/><rect width="38.09" height="37.34" x="887.59" y="722.66" class="cls-12" rx="1.29" ry="1.29"/><path d="M918.44 752.03a75.5 75.5 0 0 1-23.62 0c-1.23 0-2.22-.97-2.22-2.18V726.7c0-1.2.99-2.18 2.22-2.18h23.62c1.23 0 2.22.97 2.22 2.18v23.15c0 1.2-.99 2.18-2.22 2.18" class="cls-14"/><rect width="38.09" height="37.34" x="846.73" y="683.13" class="cls-12" rx="1.29" ry="1.29"/><path d="M877.58 712.49a75.5 75.5 0 0 1-23.62 0c-1.23 0-2.22-.97-2.22-2.18v-23.15c0-1.2.99-2.18 2.22-2.18h23.62c1.23 0 2.22.97 2.22 2.18v23.15c0 1.2-.99 2.18-2.22 2.18" class="cls-14"/><path d="M34.61 508.99h42.57v42.57H34.61zm628.29 57.19h125.13v42.57H662.9zm3.91 114.33h120.66v42.57H666.81z" class="cls-10"/><path d="M706.08 641.87h42.11v42.57h-42.11zM93.33 508.99h251.1v42.57H93.33zM68.91 718.51H619.6v42.57H68.91z" class="cls-10"/><path d="M33.78 565.46h615.09V722.2H33.78zm323.18-56.47h251.91v42.57H356.96z" class="cls-10"/><rect width="36.56" height="36.56" x="490.42" y="569.19" class="cls-12" rx="1.25" ry="1.25"/><path d="M520.04 597.94a71.2 71.2 0 0 1-22.67 0c-1.18 0-2.13-.95-2.13-2.13v-22.67c0-1.18.95-2.13 2.13-2.13h22.67c1.18 0 2.13.95 2.13 2.13v22.67c0 1.18-.95 2.13-2.13 2.13" class="cls-14"/><rect width="36.56" height="36.56" x="451.08" y="569.19" class="cls-12" rx="1.25" ry="1.25"/><path d="M480.7 597.94a71.2 71.2 0 0 1-22.67 0c-1.18 0-2.13-.95-2.13-2.13v-22.67c0-1.18.95-2.13 2.13-2.13h22.67c1.18 0 2.13.95 2.13 2.13v22.67c0 1.18-.95 2.13-2.13 2.13" class="cls-14"/><rect width="36.56" height="36.56" x="568.81" y="569.19" class="cls-12" rx="1.25" ry="1.25"/><path d="M598.42 597.94a71.2 71.2 0 0 1-22.67 0c-1.18 0-2.13-.95-2.13-2.13v-22.67c0-1.18.95-2.13 2.13-2.13h22.67c1.18 0 2.13.95 2.13 2.13v22.67c0 1.18-.95 2.13-2.13 2.13" class="cls-14"/><rect width="37.8" height="36.56" x="607.57" y="569.19" class="cls-17" rx="1.28" ry="1.28"/><path d="M638.43 597.94a79.3 79.3 0 0 1-23.92 0c-1.24 0-2.25-.95-2.25-2.13v-22.67c0-1.18 1.01-2.13 2.25-2.13h23.92c1.24 0 2.25.95 2.25 2.13v22.67c0 1.18-1.01 2.13-2.25 2.13" class="cls-9"/><rect width="37.8" height="36.56" x="37" y="511.99" class="cls-17" rx="1.28" ry="1.28"/><path d="M67.86 540.75a79.3 79.3 0 0 1-23.92 0c-1.24 0-2.25-.95-2.25-2.13v-22.67c0-1.18 1.01-2.13 2.25-2.13h23.92c1.24 0 2.25.95 2.25 2.13v22.67c0 1.18-1.01 2.13-2.25 2.13" class="cls-9"/><rect width="37.8" height="36.56" x="86.41" y="644.87" class="cls-17" rx="1.28" ry="1.28"/><path d="M117.27 673.62a79.3 79.3 0 0 1-23.92 0c-1.24 0-2.25-.95-2.25-2.13v-22.67c0-1.18 1.01-2.13 2.25-2.13h23.92c1.24 0 2.25.95 2.25 2.13v22.67c0 1.18-1.01 2.13-2.25 2.13" class="cls-9"/><rect width="47.28" height="36.56" x="569.51" y="722.21" class="cls-17" rx="1.43" ry="1.43"/><rect width="47.28" height="53.02" x="598.08" y="628.41" class="cls-17" rx="1.72" ry="1.72"/><rect width="56.75" height="36.56" x="588.61" y="607.03" class="cls-17" rx="1.56" ry="1.56"/><path d="M610.23 750.96a161 161 0 0 1-34.15 0c-1.77 0-3.21-.95-3.21-2.13v-22.67c0-1.18 1.44-2.13 3.21-2.13h34.15c1.77 0 3.21.95 3.21 2.13v22.67c0 1.18-1.44 2.13-3.21 2.13m27.41-78.37c-10.77 2.29-21.55 2.29-32.32 0-1.68 0-3.04-1.81-3.04-4.03v-42.88c0-2.23 1.36-4.03 3.04-4.03h32.32c1.68 0 3.04 1.81 3.04 4.03v42.88c0 2.23-1.36 4.03-3.04 4.03" class="cls-9"/><path d="M636.96 635.41a216 216 0 0 1-39.55 0c-2.05 0-3.72-.95-3.72-2.13v-22.67c0-1.18 1.67-2.13 3.72-2.13h39.55c2.05 0 3.72.95 3.72 2.13v22.67c0 1.18-1.67 2.13-3.72 2.13" class="cls-9"/><rect width="47.28" height="36.56" x="520.36" y="722.21" class="cls-17" rx="1.43" ry="1.43"/><path d="M561.07 750.96a161 161 0 0 1-34.15 0c-1.77 0-3.21-.95-3.21-2.13v-22.67c0-1.18 1.44-2.13 3.21-2.13h34.15c1.77 0 3.21.95 3.21 2.13v22.67c0 1.18-1.44 2.13-3.21 2.13" class="cls-9"/><rect width="47.28" height="36.56" x="120.85" y="721.51" class="cls-17" rx="1.43" ry="1.43"/><path d="M161.57 750.26a161 161 0 0 1-34.15 0c-1.77 0-3.21-.95-3.21-2.13v-22.67c0-1.18 1.44-2.13 3.21-2.13h34.15c1.77 0 3.21.95 3.21 2.13v22.67c0 1.18-1.44 2.13-3.21 2.13" class="cls-9"/><rect width="47.28" height="36.56" x="36.37" y="644.87" class="cls-17" rx="1.43" ry="1.43"/><path d="M77.09 673.62a161 161 0 0 1-34.15 0c-1.77 0-3.21-.95-3.21-2.13v-22.67c0-1.18 1.44-2.13 3.21-2.13h34.15c1.77 0 3.21.95 3.21 2.13v22.67c0 1.18-1.44 2.13-3.21 2.13" class="cls-9"/><rect width="47.28" height="36.56" x="95.34" y="511.99" class="cls-17" rx="1.43" ry="1.43"/><path d="M136.06 540.75a161 161 0 0 1-34.15 0c-1.77 0-3.21-.95-3.21-2.13v-22.67c0-1.18 1.44-2.13 3.21-2.13h34.15c1.77 0 3.21.95 3.21 2.13v22.67c0 1.18-1.44 2.13-3.21 2.13" class="cls-9"/><rect width="47.28" height="36.56" x="145.27" y="511.99" class="cls-17" rx="1.43" ry="1.43"/><path d="M185.99 540.75a161 161 0 0 1-34.15 0c-1.77 0-3.21-.95-3.21-2.13v-22.67c0-1.18 1.44-2.13 3.21-2.13h34.15c1.77 0 3.21.95 3.21 2.13v22.67c0 1.18-1.44 2.13-3.21 2.13" class="cls-9"/><rect width="47.28" height="36.56" x="194.94" y="511.99" class="cls-17" rx="1.43" ry="1.43"/><path d="M235.66 540.75a161 161 0 0 1-34.15 0c-1.77 0-3.21-.95-3.21-2.13v-22.67c0-1.18 1.44-2.13 3.21-2.13h34.15c1.77 0 3.21.95 3.21 2.13v22.67c0 1.18-1.44 2.13-3.21 2.13" class="cls-9"/><rect width="47.28" height="36.56" x="245" y="511.99" class="cls-17" rx="1.43" ry="1.43"/><path d="M285.72 540.75a161 161 0 0 1-34.15 0c-1.77 0-3.21-.95-3.21-2.13v-22.67c0-1.18 1.44-2.13 3.21-2.13h34.15c1.77 0 3.21.95 3.21 2.13v22.67c0 1.18-1.44 2.13-3.21 2.13" class="cls-9"/><rect width="47.28" height="36.56" x="295.19" y="511.99" class="cls-17" rx="1.43" ry="1.43"/><path d="M335.9 540.75a161 161 0 0 1-34.15 0c-1.77 0-3.21-.95-3.21-2.13v-22.67c0-1.18 1.44-2.13 3.21-2.13h34.15c1.77 0 3.21.95 3.21 2.13v22.67c0 1.18-1.44 2.13-3.21 2.13" class="cls-9"/><rect width="47.28" height="36.56" x="359.27" y="511.99" class="cls-17" rx="1.43" ry="1.43"/><path d="M399.98 540.75a161 161 0 0 1-34.15 0c-1.77 0-3.21-.95-3.21-2.13v-22.67c0-1.18 1.44-2.13 3.21-2.13h34.15c1.77 0 3.21.95 3.21 2.13v22.67c0 1.18-1.44 2.13-3.21 2.13" class="cls-9"/><rect width="47.28" height="36.56" x="409.2" y="511.99" class="cls-17" rx="1.43" ry="1.43"/><path d="M449.91 540.75a161 161 0 0 1-34.15 0c-1.77 0-3.21-.95-3.21-2.13v-22.67c0-1.18 1.44-2.13 3.21-2.13h34.15c1.77 0 3.21.95 3.21 2.13v22.67c0 1.18-1.44 2.13-3.21 2.13" class="cls-9"/><rect width="47.28" height="36.56" x="458.87" y="511.99" class="cls-17" rx="1.43" ry="1.43"/><path d="M499.58 540.75a161 161 0 0 1-34.15 0c-1.77 0-3.21-.95-3.21-2.13v-22.67c0-1.18 1.44-2.13 3.21-2.13h34.15c1.77 0 3.21.95 3.21 2.13v22.67c0 1.18-1.44 2.13-3.21 2.13" class="cls-9"/><rect width="47.28" height="36.56" x="508.93" y="511.99" class="cls-17" rx="1.43" ry="1.43"/><path d="M549.64 540.75a161 161 0 0 1-34.15 0c-1.77 0-3.21-.95-3.21-2.13v-22.67c0-1.18 1.44-2.13 3.21-2.13h34.15c1.77 0 3.21.95 3.21 2.13v22.67c0 1.18-1.44 2.13-3.21 2.13" class="cls-9"/><rect width="47.28" height="36.56" x="559.11" y="511.99" class="cls-17" rx="1.43" ry="1.43"/><path d="M599.83 540.75a161 161 0 0 1-34.15 0c-1.77 0-3.21-.95-3.21-2.13v-22.67c0-1.18 1.44-2.13 3.21-2.13h34.15c1.77 0 3.21.95 3.21 2.13v22.67c0 1.18-1.44 2.13-3.21 2.13" class="cls-9"/><rect width="58.39" height="36.56" x="36.37" y="569.19" class="cls-17" rx="1.58" ry="1.58"/><path d="M87.8 597.94a273 273 0 0 1-44.46 0c-2.31 0-4.18-.95-4.18-2.13v-22.67c0-1.18 1.87-2.13 4.18-2.13H87.8c2.31 0 4.18.95 4.18 2.13v22.67c0 1.18-1.87 2.13-4.18 2.13" class="cls-9"/><rect width="68.94" height="36.56" x="36.37" y="683.51" class="cls-17" rx="1.72" ry="1.72"/><rect width="78.24" height="36.56" x="36.37" y="607.03" class="cls-17" rx="1.83" ry="1.83"/><path d="M108.72 635.63c-22.15 3.04-44.3 3.04-66.46 0-.81 0-1.47-.66-1.47-1.47v-23.6c0-.81.66-1.47 1.47-1.47h66.46c.81 0 1.47.66 1.47 1.47v23.6c0 .81-.66 1.47-1.47 1.47" class="cls-9"/><rect width="105.71" height="36.56" x="539.65" y="682.65" class="cls-17" rx="2.13" ry="2.13"/><path d="M639.17 711.26a478.6 478.6 0 0 1-93.32 0c-1.14 0-2.07-.66-2.07-1.47v-23.6c0-.81.93-1.47 2.07-1.47h93.32c1.14 0 2.07.66 2.07 1.47v23.6c0 .81-.93 1.47-2.07 1.47m-541.69 1.01a391.5 391.5 0 0 1-53.28 0c-2.77 0-5.01-.95-5.01-2.13v-22.67c0-1.18 2.24-2.13 5.01-2.13h53.28c2.77 0 5.01.95 5.01 2.13v22.67c0 1.18-2.24 2.13-5.01 2.13" class="cls-9"/><rect width="47.28" height="36.56" x="71.7" y="721.51" class="cls-17" rx="1.43" ry="1.43"/><path d="M112.41 750.26a161 161 0 0 1-34.15 0c-1.77 0-3.21-.95-3.21-2.13v-22.67c0-1.18 1.44-2.13 3.21-2.13h34.15c1.77 0 3.21.95 3.21 2.13v22.67c0 1.18-1.44 2.13-3.21 2.13" class="cls-9"/><rect width="57.63" height="36.56" x="666.81" y="569.19" class="cls-17" rx="1.57" ry="1.57"/><path d="M716.19 597.94a233.5 233.5 0 0 1-41.13 0c-2.14 0-3.87-.95-3.87-2.13v-22.67c0-1.18 1.73-2.13 3.87-2.13h41.13c2.14 0 3.87.95 3.87 2.13v22.67c0 1.18-1.73 2.13-3.87 2.13" class="cls-9"/><rect width="57.63" height="36.56" x="727.14" y="569.19" class="cls-17" rx="1.57" ry="1.57"/><path d="M776.52 597.94a233.5 233.5 0 0 1-41.13 0c-2.14 0-3.87-.95-3.87-2.13v-22.67c0-1.18 1.73-2.13 3.87-2.13h41.13c2.14 0 3.87.95 3.87 2.13v22.67c0 1.18-1.73 2.13-3.87 2.13" class="cls-9"/><rect width="36.56" height="36.56" x="529.47" y="569.19" class="cls-12" rx="1.25" ry="1.25"/><path d="M559.09 597.94a71.2 71.2 0 0 1-22.67 0c-1.18 0-2.13-.95-2.13-2.13v-22.67c0-1.18.95-2.13 2.13-2.13h22.67c1.18 0 2.13.95 2.13 2.13v22.67c0 1.18-.95 2.13-2.13 2.13" class="cls-14"/><rect width="36.56" height="36.56" x="411.75" y="569.19" class="cls-12" rx="1.25" ry="1.25"/><path d="M441.36 597.94a71.2 71.2 0 0 1-22.67 0c-1.18 0-2.13-.95-2.13-2.13v-22.67c0-1.18.95-2.13 2.13-2.13h22.67c1.18 0 2.13.95 2.13 2.13v22.67c0 1.18-.95 2.13-2.13 2.13" class="cls-14"/><rect width="36.56" height="36.56" x="372.41" y="569.19" class="cls-12" rx="1.25" ry="1.25"/><path d="M402.03 597.94a71.2 71.2 0 0 1-22.67 0c-1.18 0-2.13-.95-2.13-2.13v-22.67c0-1.18.95-2.13 2.13-2.13h22.67c1.18 0 2.13.95 2.13 2.13v22.67c0 1.18-.95 2.13-2.13 2.13" class="cls-14"/><rect width="36.56" height="36.56" x="333.07" y="569.19" class="cls-12" rx="1.25" ry="1.25"/><path d="M362.69 597.94a71.2 71.2 0 0 1-22.67 0c-1.18 0-2.13-.95-2.13-2.13v-22.67c0-1.18.95-2.13 2.13-2.13h22.67c1.18 0 2.13.95 2.13 2.13v22.67c0 1.18-.95 2.13-2.13 2.13" class="cls-14"/><rect width="36.56" height="36.56" x="293.74" y="569.19" class="cls-12" rx="1.25" ry="1.25"/><path d="M323.35 597.94a71.2 71.2 0 0 1-22.67 0c-1.18 0-2.13-.95-2.13-2.13v-22.67c0-1.18.95-2.13 2.13-2.13h22.67c1.18 0 2.13.95 2.13 2.13v22.67c0 1.18-.95 2.13-2.13 2.13" class="cls-14"/><rect width="36.56" height="36.56" x="254.4" y="569.19" class="cls-12" rx="1.25" ry="1.25"/><path d="M284.02 597.94a71.2 71.2 0 0 1-22.67 0c-1.18 0-2.13-.95-2.13-2.13v-22.67c0-1.18.95-2.13 2.13-2.13h22.67c1.18 0 2.13.95 2.13 2.13v22.67c0 1.18-.95 2.13-2.13 2.13" class="cls-14"/><rect width="36.56" height="36.56" x="215.06" y="569.19" class="cls-12" rx="1.25" ry="1.25"/><path d="M244.68 597.94a71.2 71.2 0 0 1-22.67 0c-1.18 0-2.13-.95-2.13-2.13v-22.67c0-1.18.95-2.13 2.13-2.13h22.67c1.18 0 2.13.95 2.13 2.13v22.67c0 1.18-.95 2.13-2.13 2.13" class="cls-14"/><rect width="36.56" height="36.56" x="175.73" y="569.19" class="cls-12" rx="1.25" ry="1.25"/><path d="M205.34 597.94a71.2 71.2 0 0 1-22.67 0c-1.18 0-2.13-.95-2.13-2.13v-22.67c0-1.18.95-2.13 2.13-2.13h22.67c1.18 0 2.13.95 2.13 2.13v22.67c0 1.18-.95 2.13-2.13 2.13" class="cls-14"/><rect width="36.56" height="36.56" x="136.39" y="569.19" class="cls-12" rx="1.25" ry="1.25"/><path d="M166.01 597.94a71.2 71.2 0 0 1-22.67 0c-1.18 0-2.13-.95-2.13-2.13v-22.67c0-1.18.95-2.13 2.13-2.13h22.67c1.18 0 2.13.95 2.13 2.13v22.67c0 1.18-.95 2.13-2.13 2.13" class="cls-14"/><rect width="36.56" height="36.56" x="97.05" y="569.19" class="cls-12" rx="1.25" ry="1.25"/><path d="M126.67 597.94a71.2 71.2 0 0 1-22.67 0c-1.18 0-2.13-.95-2.13-2.13v-22.67c0-1.18.95-2.13 2.13-2.13h22.67c1.18 0 2.13.95 2.13 2.13v22.67c0 1.18-.95 2.13-2.13 2.13" class="cls-14"/><rect width="36.56" height="36.56" x="748.2" y="683.51" class="cls-12" rx="1.25" ry="1.25"/><path d="M777.81 712.27a71.2 71.2 0 0 1-22.67 0c-1.18 0-2.13-.95-2.13-2.13v-22.67c0-1.18.95-2.13 2.13-2.13h22.67c1.18 0 2.13.95 2.13 2.13v22.67c0 1.18-.95 2.13-2.13 2.13" class="cls-14"/><rect width="36.56" height="36.56" x="708.86" y="683.51" class="cls-12" rx="1.25" ry="1.25"/><path d="M738.48 712.27a71.2 71.2 0 0 1-22.67 0c-1.18 0-2.13-.95-2.13-2.13v-22.67c0-1.18.95-2.13 2.13-2.13h22.67c1.18 0 2.13.95 2.13 2.13v22.67c0 1.18-.95 2.13-2.13 2.13" class="cls-14"/><rect width="36.56" height="36.56" x="708.86" y="644.87" class="cls-12" rx="1.25" ry="1.25"/><path d="M738.48 673.62a71.2 71.2 0 0 1-22.67 0c-1.18 0-2.13-.95-2.13-2.13v-22.67c0-1.18.95-2.13 2.13-2.13h22.67c1.18 0 2.13.95 2.13 2.13v22.67c0 1.18-.95 2.13-2.13 2.13" class="cls-14"/><rect width="36.56" height="36.56" x="669.52" y="683.51" class="cls-12" rx="1.25" ry="1.25"/><path d="M699.14 712.27a71.2 71.2 0 0 1-22.67 0c-1.18 0-2.13-.95-2.13-2.13v-22.67c0-1.18.95-2.13 2.13-2.13h22.67c1.18 0 2.13.95 2.13 2.13v22.67c0 1.18-.95 2.13-2.13 2.13" class="cls-14"/><rect width="36.56" height="36.56" x="510.7" y="607.03" class="cls-12" rx="1.25" ry="1.25"/><path d="M540.32 635.78a71.2 71.2 0 0 1-22.67 0c-1.18 0-2.13-.95-2.13-2.13v-22.67c0-1.18.95-2.13 2.13-2.13h22.67c1.18 0 2.13.95 2.13 2.13v22.67c0 1.18-.95 2.13-2.13 2.13" class="cls-14"/><rect width="36.56" height="36.56" x="471.36" y="607.03" class="cls-12" rx="1.25" ry="1.25"/><path d="M500.98 635.78a71.2 71.2 0 0 1-22.67 0c-1.18 0-2.13-.95-2.13-2.13v-22.67c0-1.18.95-2.13 2.13-2.13h22.67c1.18 0 2.13.95 2.13 2.13v22.67c0 1.18-.95 2.13-2.13 2.13" class="cls-14"/><rect width="36.56" height="36.56" x="549.75" y="607.03" class="cls-12" rx="1.25" ry="1.25"/><path d="M579.37 635.78a71.2 71.2 0 0 1-22.67 0c-1.18 0-2.13-.95-2.13-2.13v-22.67c0-1.18.95-2.13 2.13-2.13h22.67c1.18 0 2.13.95 2.13 2.13v22.67c0 1.18-.95 2.13-2.13 2.13" class="cls-14"/><rect width="36.56" height="36.56" x="432.03" y="607.03" class="cls-12" rx="1.25" ry="1.25"/><path d="M461.64 635.78a71.2 71.2 0 0 1-22.67 0c-1.18 0-2.13-.95-2.13-2.13v-22.67c0-1.18.95-2.13 2.13-2.13h22.67c1.18 0 2.13.95 2.13 2.13v22.67c0 1.18-.95 2.13-2.13 2.13" class="cls-14"/><rect width="36.56" height="36.56" x="392.69" y="607.03" class="cls-12" rx="1.25" ry="1.25"/><path d="M422.31 635.78a71.2 71.2 0 0 1-22.67 0c-1.18 0-2.13-.95-2.13-2.13v-22.67c0-1.18.95-2.13 2.13-2.13h22.67c1.18 0 2.13.95 2.13 2.13v22.67c0 1.18-.95 2.13-2.13 2.13" class="cls-14"/><rect width="36.56" height="36.56" x="353.35" y="607.03" class="cls-12" rx="1.25" ry="1.25"/><path d="M382.97 635.78a71.2 71.2 0 0 1-22.67 0c-1.18 0-2.13-.95-2.13-2.13v-22.67c0-1.18.95-2.13 2.13-2.13h22.67c1.18 0 2.13.95 2.13 2.13v22.67c0 1.18-.95 2.13-2.13 2.13" class="cls-14"/><rect width="36.56" height="36.56" x="314.02" y="607.03" class="cls-12" rx="1.25" ry="1.25"/><path d="M343.63 635.78a71.2 71.2 0 0 1-22.67 0c-1.18 0-2.13-.95-2.13-2.13v-22.67c0-1.18.95-2.13 2.13-2.13h22.67c1.18 0 2.13.95 2.13 2.13v22.67c0 1.18-.95 2.13-2.13 2.13" class="cls-14"/><rect width="36.56" height="36.56" x="274.68" y="607.03" class="cls-12" rx="1.25" ry="1.25"/><path d="M304.3 635.78a71.2 71.2 0 0 1-22.67 0c-1.18 0-2.13-.95-2.13-2.13v-22.67c0-1.18.95-2.13 2.13-2.13h22.67c1.18 0 2.13.95 2.13 2.13v22.67c0 1.18-.95 2.13-2.13 2.13" class="cls-14"/><rect width="36.56" height="36.56" x="235.34" y="607.03" class="cls-12" rx="1.25" ry="1.25"/><path d="M264.96 635.78a71.2 71.2 0 0 1-22.67 0c-1.18 0-2.13-.95-2.13-2.13v-22.67c0-1.18.95-2.13 2.13-2.13h22.67c1.18 0 2.13.95 2.13 2.13v22.67c0 1.18-.95 2.13-2.13 2.13" class="cls-14"/><rect width="36.56" height="36.56" x="196.01" y="607.03" class="cls-12" rx="1.25" ry="1.25"/><path d="M225.62 635.78a71.2 71.2 0 0 1-22.67 0c-1.18 0-2.13-.95-2.13-2.13v-22.67c0-1.18.95-2.13 2.13-2.13h22.67c1.18 0 2.13.95 2.13 2.13v22.67c0 1.18-.95 2.13-2.13 2.13" class="cls-14"/><rect width="36.56" height="36.56" x="156.67" y="607.03" class="cls-12" rx="1.25" ry="1.25"/><path d="M186.29 635.78a71.2 71.2 0 0 1-22.67 0c-1.18 0-2.13-.95-2.13-2.13v-22.67c0-1.18.95-2.13 2.13-2.13h22.67c1.18 0 2.13.95 2.13 2.13v22.67c0 1.18-.95 2.13-2.13 2.13" class="cls-14"/><rect width="36.56" height="36.56" x="117.33" y="607.03" class="cls-12" rx="1.25" ry="1.25"/><path d="M146.95 635.78a71.2 71.2 0 0 1-22.67 0c-1.18 0-2.13-.95-2.13-2.13v-22.67c0-1.18.95-2.13 2.13-2.13h22.67c1.18 0 2.13.95 2.13 2.13v22.67c0 1.18-.95 2.13-2.13 2.13" class="cls-14"/><rect width="36.56" height="36.56" x="520.36" y="644.87" class="cls-12" rx="1.25" ry="1.25"/><path d="M549.97 673.62a71.2 71.2 0 0 1-22.67 0c-1.18 0-2.13-.95-2.13-2.13v-22.67c0-1.18.95-2.13 2.13-2.13h22.67c1.18 0 2.13.95 2.13 2.13v22.67c0 1.18-.95 2.13-2.13 2.13" class="cls-14"/><rect width="36.56" height="36.56" x="481.02" y="644.87" class="cls-12" rx="1.25" ry="1.25"/><path d="M510.64 673.62a71.2 71.2 0 0 1-22.67 0c-1.18 0-2.13-.95-2.13-2.13v-22.67c0-1.18.95-2.13 2.13-2.13h22.67c1.18 0 2.13.95 2.13 2.13v22.67c0 1.18-.95 2.13-2.13 2.13" class="cls-14"/><rect width="36.56" height="36.56" x="559.41" y="644.87" class="cls-12" rx="1.25" ry="1.25"/><path d="M589.02 673.62a71.2 71.2 0 0 1-22.67 0c-1.18 0-2.13-.95-2.13-2.13v-22.67c0-1.18.95-2.13 2.13-2.13h22.67c1.18 0 2.13.95 2.13 2.13v22.67c0 1.18-.95 2.13-2.13 2.13" class="cls-14"/><rect width="36.56" height="36.56" x="441.68" y="644.87" class="cls-12" rx="1.25" ry="1.25"/><path d="M471.3 673.62a71.2 71.2 0 0 1-22.67 0c-1.18 0-2.13-.95-2.13-2.13v-22.67c0-1.18.95-2.13 2.13-2.13h22.67c1.18 0 2.13.95 2.13 2.13v22.67c0 1.18-.95 2.13-2.13 2.13" class="cls-14"/><rect width="36.56" height="36.56" x="402.35" y="644.87" class="cls-12" rx="1.25" ry="1.25"/><path d="M431.96 673.62a71.2 71.2 0 0 1-22.67 0c-1.18 0-2.13-.95-2.13-2.13v-22.67c0-1.18.95-2.13 2.13-2.13h22.67c1.18 0 2.13.95 2.13 2.13v22.67c0 1.18-.95 2.13-2.13 2.13" class="cls-14"/><rect width="36.56" height="36.56" x="363.01" y="644.87" class="cls-12" rx="1.25" ry="1.25"/><path d="M392.63 673.62a71.2 71.2 0 0 1-22.67 0c-1.18 0-2.13-.95-2.13-2.13v-22.67c0-1.18.95-2.13 2.13-2.13h22.67c1.18 0 2.13.95 2.13 2.13v22.67c0 1.18-.95 2.13-2.13 2.13" class="cls-14"/><rect width="36.56" height="36.56" x="323.67" y="644.87" class="cls-12" rx="1.25" ry="1.25"/><path d="M353.29 673.62a71.2 71.2 0 0 1-22.67 0c-1.18 0-2.13-.95-2.13-2.13v-22.67c0-1.18.95-2.13 2.13-2.13h22.67c1.18 0 2.13.95 2.13 2.13v22.67c0 1.18-.95 2.13-2.13 2.13" class="cls-14"/><rect width="36.56" height="36.56" x="284.34" y="644.87" class="cls-12" rx="1.25" ry="1.25"/><path d="M313.95 673.62a71.2 71.2 0 0 1-22.67 0c-1.18 0-2.13-.95-2.13-2.13v-22.67c0-1.18.95-2.13 2.13-2.13h22.67c1.18 0 2.13.95 2.13 2.13v22.67c0 1.18-.95 2.13-2.13 2.13" class="cls-14"/><rect width="36.56" height="36.56" x="245" y="644.87" class="cls-12" rx="1.25" ry="1.25"/><path d="M274.62 673.62a71.2 71.2 0 0 1-22.67 0c-1.18 0-2.13-.95-2.13-2.13v-22.67c0-1.18.95-2.13 2.13-2.13h22.67c1.18 0 2.13.95 2.13 2.13v22.67c0 1.18-.95 2.13-2.13 2.13" class="cls-14"/><rect width="36.56" height="36.56" x="205.66" y="644.87" class="cls-12" rx="1.25" ry="1.25"/><path d="M235.28 673.62a71.2 71.2 0 0 1-22.67 0c-1.18 0-2.13-.95-2.13-2.13v-22.67c0-1.18.95-2.13 2.13-2.13h22.67c1.18 0 2.13.95 2.13 2.13v22.67c0 1.18-.95 2.13-2.13 2.13" class="cls-14"/><rect width="36.56" height="36.56" x="166.33" y="644.87" class="cls-12" rx="1.25" ry="1.25"/><path d="M195.94 673.62a71.2 71.2 0 0 1-22.67 0c-1.18 0-2.13-.95-2.13-2.13v-22.67c0-1.18.95-2.13 2.13-2.13h22.67c1.18 0 2.13.95 2.13 2.13v22.67c0 1.18-.95 2.13-2.13 2.13" class="cls-14"/><rect width="36.56" height="36.56" x="126.99" y="644.87" class="cls-12" rx="1.25" ry="1.25"/><path d="M156.6 673.62a71.2 71.2 0 0 1-22.67 0c-1.18 0-2.13-.95-2.13-2.13v-22.67c0-1.18.95-2.13 2.13-2.13h22.67c1.18 0 2.13.95 2.13 2.13v22.67c0 1.18-.95 2.13-2.13 2.13" class="cls-14"/><rect width="36.56" height="36.56" x="461.5" y="683.51" class="cls-12" rx="1.25" ry="1.25"/><path d="M491.11 712.27a71.2 71.2 0 0 1-22.67 0c-1.18 0-2.13-.95-2.13-2.13v-22.67c0-1.18.95-2.13 2.13-2.13h22.67c1.18 0 2.13.95 2.13 2.13v22.67c0 1.18-.95 2.13-2.13 2.13" class="cls-14"/><rect width="36.56" height="36.56" x="422.16" y="683.51" class="cls-12" rx="1.25" ry="1.25"/><path d="M451.77 712.27a71.2 71.2 0 0 1-22.67 0c-1.18 0-2.13-.95-2.13-2.13v-22.67c0-1.18.95-2.13 2.13-2.13h22.67c1.18 0 2.13.95 2.13 2.13v22.67c0 1.18-.95 2.13-2.13 2.13" class="cls-14"/><rect width="36.56" height="36.56" x="500.55" y="683.51" class="cls-12" rx="1.25" ry="1.25"/><path d="M530.16 712.27a71.2 71.2 0 0 1-22.67 0c-1.18 0-2.13-.95-2.13-2.13v-22.67c0-1.18.95-2.13 2.13-2.13h22.67c1.18 0 2.13.95 2.13 2.13v22.67c0 1.18-.95 2.13-2.13 2.13" class="cls-14"/><rect width="36.56" height="36.56" x="382.82" y="683.51" class="cls-12" rx="1.25" ry="1.25"/><path d="M412.44 712.27a71.2 71.2 0 0 1-22.67 0c-1.18 0-2.13-.95-2.13-2.13v-22.67c0-1.18.95-2.13 2.13-2.13h22.67c1.18 0 2.13.95 2.13 2.13v22.67c0 1.18-.95 2.13-2.13 2.13" class="cls-14"/><rect width="36.56" height="36.56" x="343.49" y="683.51" class="cls-12" rx="1.25" ry="1.25"/><path d="M373.1 712.27a71.2 71.2 0 0 1-22.67 0c-1.18 0-2.13-.95-2.13-2.13v-22.67c0-1.18.95-2.13 2.13-2.13h22.67c1.18 0 2.13.95 2.13 2.13v22.67c0 1.18-.95 2.13-2.13 2.13" class="cls-14"/><rect width="36.56" height="36.56" x="304.15" y="683.51" class="cls-12" rx="1.25" ry="1.25"/><path d="M333.76 712.27a71.2 71.2 0 0 1-22.67 0c-1.18 0-2.13-.95-2.13-2.13v-22.67c0-1.18.95-2.13 2.13-2.13h22.67c1.18 0 2.13.95 2.13 2.13v22.67c0 1.18-.95 2.13-2.13 2.13" class="cls-14"/><rect width="36.56" height="36.56" x="264.81" y="683.51" class="cls-12" rx="1.25" ry="1.25"/><path d="M294.43 712.27a71.2 71.2 0 0 1-22.67 0c-1.18 0-2.13-.95-2.13-2.13v-22.67c0-1.18.95-2.13 2.13-2.13h22.67c1.18 0 2.13.95 2.13 2.13v22.67c0 1.18-.95 2.13-2.13 2.13" class="cls-14"/><rect width="36.56" height="36.56" x="225.48" y="683.51" class="cls-12" rx="1.25" ry="1.25"/><path d="M255.09 712.27a71.2 71.2 0 0 1-22.67 0c-1.18 0-2.13-.95-2.13-2.13v-22.67c0-1.18.95-2.13 2.13-2.13h22.67c1.18 0 2.13.95 2.13 2.13v22.67c0 1.18-.95 2.13-2.13 2.13" class="cls-14"/><rect width="36.56" height="36.56" x="186.14" y="683.51" class="cls-12" rx="1.25" ry="1.25"/><path d="M215.75 712.27a71.2 71.2 0 0 1-22.67 0c-1.18 0-2.13-.95-2.13-2.13v-22.67c0-1.18.95-2.13 2.13-2.13h22.67c1.18 0 2.13.95 2.13 2.13v22.67c0 1.18-.95 2.13-2.13 2.13" class="cls-14"/><rect width="36.56" height="36.56" x="146.8" y="683.51" class="cls-12" rx="1.25" ry="1.25"/><path d="M176.42 712.27a71.2 71.2 0 0 1-22.67 0c-1.18 0-2.13-.95-2.13-2.13v-22.67c0-1.18.95-2.13 2.13-2.13h22.67c1.18 0 2.13.95 2.13 2.13v22.67c0 1.18-.95 2.13-2.13 2.13" class="cls-14"/><rect width="36.56" height="36.56" x="107.46" y="683.51" class="cls-12" rx="1.25" ry="1.25"/><path d="M137.08 712.27a71.2 71.2 0 0 1-22.67 0c-1.18 0-2.13-.95-2.13-2.13v-22.67c0-1.18.95-2.13 2.13-2.13h22.67c1.18 0 2.13.95 2.13 2.13v22.67c0 1.18-.95 2.13-2.13 2.13" class="cls-14"/><rect width="347.58" height="35.87" x="170.62" y="722.21" class="cls-12" rx="1.74" ry="1.74"/><path d="M509.48 753.47c-111.43 1.1-221.98 1.09-331.67 0-1.47 0-2.66-.91-2.66-2.04v-24.14c0-1.13 1.19-2.04 2.66-2.04h331.67c1.47 0 2.66.91 2.66 2.04v24.14c0 1.13-1.19 2.04-2.66 2.04" class="cls-14"/><path d="M919.64 258.69v2.43H49.81l.33-2.43zm1.03 11.08v2.43H48.32l.33-2.43zm1.02 11.08v2.43H46.83l.33-2.43zm1.03 11.08v2.43H45.34l.33-2.43zm1.02 11.08v2.43H43.85l.33-2.43zm1.03 11.08v2.43H42.36l.33-2.43zm1.02 11.08v2.43H40.87l.33-2.43zm1.03 11.08v2.43H39.38l.32-2.43zm1.02 11.08v2.43H37.89l.32-2.43z" style="fill:#776143"/><rect width="975.59" height="58.51" x="12.2" y="447.56" rx="4.74" ry="4.74" style="fill:#ccb59a"/><path d="M65.57 190.34H935.7v47.31H65.57z" style="fill:#ddc7b6"/><path d="M69.11 183.16h2.82v55.18h-2.82zm456.14 0h2.82v55.18h-2.82zm-12.67 0h2.81v55.18h-2.81zm-12.67 0h2.82v55.18h-2.82zm-12.67 0h2.81v55.18h-2.81zm-12.67 0h2.81v55.18h-2.81zm-12.67 0h2.81v55.18h-2.81zm-12.67 0h2.81v55.18h-2.81zm-12.67 0h2.81v55.18h-2.81zm-12.67 0h2.81v55.18h-2.81zm-12.68 0h2.82v55.18h-2.82zm-12.66 0h2.81v55.18h-2.81zm-12.68 0h2.82v55.18h-2.82zm-12.66 0h2.81v55.18h-2.81zm-12.68 0h2.82v55.18h-2.82zm-12.67 0h2.82v55.18h-2.82zm-12.67 0h2.82v55.18h-2.82zm-12.67 0h2.82v55.18h-2.82zm-12.67 0h2.82v55.18h-2.82zm342.1 0h2.82v55.18h-2.82zm-25.34 0h2.82v55.18h-2.82zm-12.67 0h2.82v55.18h-2.82zm-12.67 0h2.82v55.18h-2.82zm-380.11 0h2.82v55.18h-2.82zm-12.67 0h2.82v55.18h-2.82zm-12.67 0h2.82v55.18h-2.82zm-12.67 0h2.81v55.18h-2.81zm-12.67 0h2.81v55.18h-2.81zm-12.67 0h2.81v55.18h-2.81zm-12.67 0h2.81v55.18h-2.81zm-12.67 0h2.81v55.18h-2.81zm-12.67 0h2.81v55.18h-2.81zm-12.67 0h2.81v55.18h-2.81zm-12.68 0h2.82v55.18h-2.82zm-12.67 0h2.82v55.18h-2.82zm506.82 0h2.82v55.18h-2.82zm-12.67 0h2.82v55.18h-2.82zm-12.67 0h2.82v55.18h-2.82zm-12.67 0h2.82v55.18h-2.82zm-12.67 0h2.81v55.18h-2.81zm342.1 0h2.82v55.18h-2.82zm-12.67 0h2.82v55.18h-2.82zm-12.67 0h2.82v55.18h-2.82zm-12.67 0h2.81v55.18h-2.81zm-12.67 0h2.82v55.18h-2.82zm-12.67 0h2.81v55.18h-2.81zm-12.67 0h2.81v55.18H804zm-12.67 0h2.81v55.18h-2.81zm-12.67 0h2.81v55.18h-2.81zm-12.67 0h2.81v55.18h-2.81zm-12.67 0h2.81v55.18h-2.81zm-12.67 0h2.81v55.18h-2.81zm-12.67 0h2.81v55.18h-2.81zm-12.68 0h2.82v55.18h-2.82zm-12.66 0h2.81v55.18h-2.81zm-12.68 0h2.82v55.18h-2.82zm-12.67 0h2.82v55.18h-2.82zm-12.66 0h2.81v55.18h-2.81zm-25.35 0h2.82v55.18h-2.82zm291.42 0h2.82v55.18h-2.82zm-12.67 0h2.82v55.18h-2.82zm-12.67 0h2.82v55.18h-2.82zm-12.67 0h2.82v55.18h-2.82zm-595.51 0H300v55.18h-2.82zm-12.66 0h2.8v55.18h-2.8zm-12.68 0h2.82v55.18h-2.82zm-12.66 0h2.8v55.18h-2.8zm-12.68 0h2.82v55.18h-2.82zm-12.67 0h2.82v55.18h-2.82z" style="fill:#c4b094"/><path d="M913.9 517.72h34.66v4.44H913.9zm0 16.1h34.66v4.44H913.9z" style="fill:#5f5f5f"/><rect width="142.81" height="29.92" x="805.75" y="461.8" rx="1.88" ry="1.88" style="fill:#b7ada1"/><path d="M829.75 475.6h5.43l3.1-1.98h-8.53zm-.17 5.07h5.43l3.1 1.99h-8.53z" style="stroke-miterlimit:10;stroke:#7a7577;fill:#7a7577;stroke-width:2.79px"/><path d="M820.78 475.5c.54 0 1.05-.08 1.51-.25s.86-.41 1.19-.72.59-.71.77-1.17c.19-.47.28-1 .28-1.6s-.08-1.12-.25-1.57-.41-.83-.73-1.13-.7-.53-1.16-.68-.97-.23-1.55-.23c-.41 0-.84.03-1.27.09s-.83.15-1.21.26v-1.59c.38-.1.79-.18 1.24-.24.44-.06.9-.09 1.37-.09.93 0 1.74.12 2.45.37.7.24 1.29.59 1.76 1.03.47.45.83.98 1.06 1.6.24.62.36 1.31.36 2.06s-.13 1.48-.38 2.14-.62 1.23-1.1 1.71-1.08.86-1.79 1.14q-1.08.42-2.43.42-.69 0-1.32-.09c-.42-.06-.79-.14-1.12-.25v-1.57a8.5 8.5 0 0 0 2.33.34Z" style="stroke-miterlimit:10;stroke:#7a7577;fill:#7a7577;stroke-width:2.02px"/><path d="m820.92 487-1.67-2.39-.08-1.98 2.63 3.76z" style="stroke-width:3.04px;stroke-miterlimit:10;stroke:#7a7577;fill:#7a7577"/><path d="M844.81 477.07h95.28v.57h-95.28z" class="cls-6"/></g><g id="TEXT"><path d="M675.32 410.77c1.44 2.49 2.37 4.01 2.79 4.57q.63.825 1.11 1.11c.32.18 1.11.32 2.35.42l.25.22-.14 1.36-.28.22c-1.37-.11-2.94-.17-4.72-.17s-3.52.06-5.33.17c-5.05-9.65-8.92-16.46-11.61-20.45l.22-.91c.54.04 1.08.06 1.64.06 3.24 0 5.79-.81 7.64-2.42s2.78-3.94 2.78-6.99c0-4-2.3-6-6.89-6-1.94 0-3.43.15-4.47.44l-3.69 21.3c-1.11 6.31-1.67 9.9-1.67 10.79v.61c0 .5.14.87.42 1.12s.92.4 1.92.46l2.92.19.17.22-.17 1.36-.25.22c-3.07-.11-6.12-.17-9.14-.17s-5.92.06-8.72.17l-.22-.17.17-1.41.28-.22 1.33-.11c1.09-.06 1.9-.12 2.43-.21s.98-.88 1.36-2.39.8-3.6 1.26-6.25l2.55-14.66c.94-5.46 1.42-8.84 1.42-10.15 0-.63-.16-1.02-.47-1.19s-.99-.28-2.03-.33l-2.5-.17-.22-.25.22-1.47.28-.22c2.35.11 5.28.17 8.78.17l10.97-.22q7.17 0 9.33 2.49c2.16 2.49 2.17 3.53 2.17 5.62 0 2.4-.88 4.57-2.65 6.52s-4.77 3.34-9.01 4.19l7.44 12.56Zm12.1-6.97c0-1.44.2-3.37.61-5.8s1.25-4.89 2.53-7.39 2.93-4.65 4.97-6.46 4.33-3.15 6.89-4.04 5.35-1.33 8.39-1.33c2.35 0 4.6.31 6.73.93 2.14.62 4.06 1.68 5.78 3.2 1.71 1.51 2.92 3.31 3.64 5.38.71 2.08 1.07 4.4 1.07 6.99 0 6.81-2.13 12.58-6.4 17.32s-9.98 7.11-17.15 7.11c-3.61 0-6.71-.63-9.3-1.88s-4.53-3.05-5.82-5.4c-1.29-2.34-1.93-5.22-1.93-8.63Zm7.78 1.74c0 2.38.36 4.45 1.07 6.23s1.94 3.11 3.69 4.03c1.75.91 3.64 1.37 5.68 1.37 2.98 0 5.44-.87 7.39-2.61 1.94-1.74 3.63-4.77 5.05-9.08s2.14-8.41 2.14-12.3q0-6.39-2.85-9.09c-1.9-1.8-4.36-2.7-7.37-2.7q-4.215 0-6.9 1.95c-1.79 1.3-3.31 3.34-4.57 6.13a34 34 0 0 0-2.61 8.63q-.72 4.455-.72 7.44Zm78.39-26.09c2.72.18 4.29.28 4.72.28l7.86-.28.22.22-.17 1.47-.33.25c-.19.02-.64.06-1.38.14-.73.07-1.29.17-1.68.28s-.7.31-.94.59c-.24.29-.45.72-.62 1.3s-.41 1.66-.71 3.22l-3.89 22.27c-.54 3.3-.81 5.25-.81 5.84 0 .54.16.91.47 1.13s.93.37 1.86.44l2.61.25.19.22-.25 1.41-.28.17c-2.91-.11-5.75-.17-8.53-.17-2.63 0-5.4.06-8.3.17l-.22-.22.17-1.36.22-.17c2.04-.29 3.26-.5 3.67-.62s.75-.66 1.04-1.62q.435-1.44 1.32-6.72l2.11-12.28 1.58-10.26c-7.79 12.43-13.67 22.18-17.63 29.24l-2.72 4.87h-1.53l-3.55-14.55-4.47-17.57-4.22 16.93c-1.5 6.16-2.25 9.68-2.25 10.57 0 .68.16 1.15.49 1.4q.48.375 3.99.57l.25.22-.2 1.36-.22.22c-1.93-.11-3.93-.17-6.03-.17s-4.08.06-5.91.17l-.22-.22.11-1.36.28-.22c1.79-.2 2.85-.48 3.15-.83s.85-1.84 1.62-4.47c.78-2.63 1.75-6.12 2.92-10.47l3.22-12.12q1.14-4.365 1.14-5.4c0-1.01-.5-1.6-1.51-1.77s-2.26-.29-3.76-.36l-.17-.3.17-1.41.22-.22c2.85.11 5.02.17 6.5.17 1.67 0 3.58-.06 5.75-.17l3 12.4 4.22 16.68c1.55-2.51 2.5-4.04 2.83-4.59l10.8-18.04 3.8-6.5Zm53.68 0c2.72.18 4.29.28 4.72.28l7.86-.28.22.22-.17 1.47-.33.25c-.19.02-.64.06-1.37.14-.73.07-1.29.17-1.68.28s-.7.31-.94.59c-.24.29-.45.72-.62 1.3s-.41 1.66-.71 3.22l-3.89 22.27c-.54 3.3-.81 5.25-.81 5.84 0 .54.16.91.47 1.13s.94.37 1.86.44l2.61.25.2.22-.25 1.41-.28.17c-2.91-.11-5.75-.17-8.53-.17-2.63 0-5.4.06-8.3.17l-.22-.22.17-1.36.22-.17c2.04-.29 3.26-.5 3.67-.62s.75-.66 1.04-1.62q.435-1.44 1.32-6.72l2.11-12.28 1.58-10.26c-7.79 12.43-13.67 22.18-17.63 29.24l-2.72 4.87h-1.53l-3.55-14.55-4.47-17.57-4.22 16.93c-1.5 6.16-2.25 9.68-2.25 10.57 0 .68.16 1.15.49 1.4.32.25 1.65.44 3.98.57l.25.22-.19 1.36-.22.22a106 106 0 0 0-11.95 0l-.22-.22.11-1.36.28-.22c1.8-.2 2.85-.48 3.15-.83q.465-.525 1.62-4.47c1.155-3.945 1.75-6.12 2.92-10.47l3.22-12.12q1.14-4.365 1.14-5.4c0-1.01-.5-1.6-1.51-1.77s-2.26-.29-3.76-.36l-.17-.3.17-1.41.22-.22c2.85.11 5.02.17 6.5.17 1.67 0 3.58-.06 5.75-.17l3 12.4 4.22 16.68c1.56-2.51 2.5-4.04 2.83-4.59l10.8-18.04 3.8-6.5Zm10.86 39.23-.2-.22.17-1.38.25-.25c.17-.02.59-.05 1.28-.08 1.56-.06 2.49-.18 2.79-.39.31-.2.58-.6.82-1.19s.73-3.02 1.47-7.28l2.58-14.72c.96-5.55 1.44-8.93 1.44-10.13 0-.33-.06-.6-.18-.8s-.32-.36-.6-.47-.85-.19-1.72-.25l-2.55-.14-.19-.22.22-1.49.25-.25c2.52.13 5.44.19 8.78.19 1.37 0 4.37-.06 9-.19l.17.22-.25 1.52-.25.22c-2.11.07-3.3.15-3.55.22-.3.09-.54.22-.74.39s-.37.42-.51.77c-.24.59-.65 2.39-1.22 5.4l-3.64 21c-.5 3.15-.75 5.11-.75 5.87 0 .59.19 1.01.58 1.25s.97.38 1.75.42l2.89.14.19.22-.17 1.38-.25.25c-2.15-.13-5.19-.19-9.14-.19-3.04 0-5.94.06-8.72.19Zm58.96-2.76-.19.19c-.93.18-2.42.63-4.47 1.33-2.87.98-5.17 1.6-6.89 1.85s-3.33.39-4.83.39c-5.13 0-9.15-1.3-12.07-3.91s-4.37-6.42-4.37-11.44c0-2.75.4-5.44 1.21-8.08.8-2.64 1.92-4.92 3.35-6.83 1.43-1.92 3.49-3.8 6.18-5.66q4.035-2.775 7.47-3.87a23.4 23.4 0 0 1 7.15-1.09c2.15 0 4.31.25 6.5.75 2.18.5 3.83 1.12 4.94 1.85l.22.39-1.28 4.68c-.33 1.18-.63 2.63-.89 4.34l-.25.22h-1.58l-.2-.22c.15-2.01.22-3.77.22-5.28-2.54-2.08-5.78-3.13-9.72-3.13-2.48 0-4.68.4-6.58 1.19-1.91.79-3.52 2.19-4.83 4.19s-2.35 4.5-3.11 7.5-1.14 5.94-1.14 8.84c0 4.13.93 7.29 2.8 9.49s4.55 3.29 8.05 3.29c2.54 0 4.76-.54 6.66-1.63l1.06-4.29c.2-.79.4-1.8.6-3.02s.29-1.97.29-2.27-.08-.55-.25-.76-.36-.35-.58-.4c-.22-.06-.88-.11-1.96-.17s-2.03-.09-2.85-.11l-.19-.22.28-1.49.25-.25c3.55.13 6.14.19 7.75.19.78 0 3.63-.06 8.55-.19l.19.25-.22 1.49-.28.22c-1 .02-1.73.11-2.18.28s-.8.45-1.03.84c-.23.4-.5 1.34-.79 2.84l-.53 2.41q-.45 2.16-.54 2.79c-.07.42-.1.88-.1 1.36 0 .37.06.76.17 1.16Zm5.5 2.79-.2-.25.2-1.44.28-.22q2.16-.165 2.49-.24c.21-.05.43-.15.65-.32s.44-.41.67-.73c.22-.32.93-1.52 2.14-3.58l3.25-5.51 7.86-13.47 4.8-8.05c1.41-2.32 2.44-4.14 3.11-5.45h5.42l1.14 8.24 1.3 9.13 1.08 7.47.86 5.59.56 3.35c.2 1.51.52 2.48.94 2.91s1.75.65 3.97.66l.2.25-.17 1.41-.28.25c-4.18-.15-6.98-.22-8.39-.22-1.22 0-3.92.07-8.11.22l-.22-.25.22-1.41.28-.25c1.79 0 2.94-.14 3.44-.42s.75-.72.75-1.33c0-1.29-.45-5.17-1.33-11.65-1.68-.02-2.79-.03-3.3-.03l-4.25.03h-5c-1.09 1.88-2.25 4-3.47 6.35s-1.95 3.85-2.18 4.48c-.23.64-.35 1.07-.35 1.29 0 .33.19.61.58.84s1.76.37 4.11.43l.2.25-.2 1.44-.28.22s-.69-.04-2.03-.11c-1.78-.07-3.13-.11-4.05-.11-.54 0-2.77.07-6.69.22Zm15.69-17.82c.89.02 1.43.03 1.61.03 5.76 0 8.86 0 9.3-.03l-2.17-14.97-8.75 14.97Z" style="stroke-miterlimit:10;fill:#bca991;stroke:#b39f84;stroke-width:.25px"/><path d="M850.47 475.65c-.11 0-.2-.04-.27-.11s-.11-.16-.11-.27v-9.89c0-.11.04-.2.11-.27a.37.37 0 0 1 .27-.11h4.14c1.32 0 2.35.3 3.11.91s1.13 1.46 1.13 2.56c0 .72-.17 1.33-.52 1.83-.34.5-.8.87-1.37 1.13l2.08 3.74c.03.06.05.12.05.17 0 .08-.03.15-.1.22s-.14.1-.22.1h-2.02c-.19 0-.33-.05-.43-.14-.09-.1-.16-.19-.2-.27l-1.74-3.35h-1.55v3.38c0 .1-.04.19-.11.27s-.17.11-.28.11h-1.96Zm2.36-5.93h1.75c.48 0 .83-.12 1.07-.35s.36-.55.36-.94-.11-.72-.34-.96-.59-.37-1.09-.37h-1.75zm10.67 6.08c-.85 0-1.57-.14-2.15-.41a3.03 3.03 0 0 1-1.34-1.18c-.31-.51-.49-1.12-.53-1.83 0-.2-.02-.43-.02-.69s0-.48.02-.68c.04-.72.22-1.33.55-1.84s.78-.9 1.36-1.17 1.29-.41 2.11-.41 1.54.14 2.12.41 1.04.66 1.36 1.17c.33.51.51 1.12.55 1.84 0 .19.02.42.02.68s0 .49-.02.69c-.04.71-.22 1.32-.52 1.83-.31.51-.76.91-1.34 1.18s-1.31.41-2.17.41m0-1.86c.46 0 .79-.14 1-.41s.33-.69.36-1.23c0-.15.02-.35.02-.61s0-.46-.02-.61q-.045-.81-.36-1.23c-.315-.42-.54-.42-1-.42s-.76.14-.98.42q-.33.42-.36 1.23c0 .15-.01.36-.01.61s0 .46.01.61q.03.825.36 1.23c.22.27.54.41.98.41m5.36 1.71a.37.37 0 0 1-.27-.11.4.4 0 0 1-.11-.27v-7.15c0-.11.04-.2.11-.27a.37.37 0 0 1 .27-.11h1.66c.11 0 .2.04.27.11s.11.16.11.27v.52c.2-.27.49-.51.85-.72s.8-.32 1.29-.33c1.18-.03 1.98.41 2.42 1.31.23-.39.57-.7 1-.94s.91-.37 1.42-.37 1 .12 1.42.36.76.6 1.01 1.1c.25.49.38 1.13.38 1.91v4.32c0 .1-.04.19-.11.27s-.16.11-.27.11h-1.77c-.11 0-.21-.04-.28-.11a.35.35 0 0 1-.11-.27v-4.22c0-.35-.05-.64-.15-.84a.95.95 0 0 0-.41-.45 1.2 1.2 0 0 0-1.13 0c-.18.09-.32.24-.43.45s-.16.49-.16.84v4.22c0 .1-.04.19-.11.27s-.16.11-.27.11h-1.77a.37.37 0 0 1-.27-.11.4.4 0 0 1-.11-.27v-4.22c0-.35-.06-.64-.17-.84a1 1 0 0 0-.43-.45 1.19 1.19 0 0 0-1.12 0c-.18.09-.32.24-.43.45s-.16.48-.16.83v4.23c0 .1-.04.19-.11.27s-.17.11-.27.11h-1.81Zm13.36 0a.37.37 0 0 1-.27-.11.4.4 0 0 1-.11-.27v-7.15c0-.11.04-.2.11-.27a.37.37 0 0 1 .27-.11h1.66c.11 0 .2.04.27.11s.11.16.11.27v.52c.2-.27.49-.51.85-.72s.8-.32 1.29-.33c1.18-.03 1.98.41 2.42 1.31.23-.39.57-.7 1-.94s.91-.37 1.42-.37 1 .12 1.42.36.76.6 1.01 1.1c.25.49.38 1.13.38 1.91v4.32c0 .1-.04.19-.11.27s-.16.11-.27.11h-1.77c-.11 0-.21-.04-.28-.11a.35.35 0 0 1-.11-.27v-4.22c0-.35-.05-.64-.15-.84a.95.95 0 0 0-.41-.45 1.2 1.2 0 0 0-1.13 0c-.18.09-.32.24-.43.45s-.16.49-.16.84v4.22c0 .1-.04.19-.11.27s-.16.11-.27.11h-1.77a.37.37 0 0 1-.27-.11.4.4 0 0 1-.11-.27v-4.22c0-.35-.06-.64-.17-.84a1 1 0 0 0-.43-.45 1.19 1.19 0 0 0-1.12 0c-.18.09-.32.24-.43.45s-.16.48-.16.83v4.23c0 .1-.04.19-.11.27s-.17.11-.27.11h-1.81Zm16.73.15c-.85 0-1.57-.14-2.15-.41a3.03 3.03 0 0 1-1.34-1.18c-.31-.51-.49-1.12-.53-1.83 0-.2-.02-.43-.02-.69s0-.48.02-.68c.04-.72.22-1.33.55-1.84s.78-.9 1.36-1.17 1.29-.41 2.11-.41 1.54.14 2.12.41 1.04.66 1.36 1.17c.33.51.51 1.12.55 1.84 0 .19.02.42.02.68s0 .49-.02.69c-.04.71-.22 1.32-.52 1.83-.31.51-.76.91-1.34 1.18s-1.31.41-2.17.41m0-1.86c.46 0 .79-.14 1-.41s.33-.69.36-1.23c0-.15.02-.35.02-.61s0-.46-.02-.61q-.045-.81-.36-1.23c-.315-.42-.54-.42-1-.42s-.76.14-.98.42q-.33.42-.36 1.23c0 .15-.01.36-.01.61s0 .46.01.61q.03.825.36 1.23c.22.27.54.41.98.41m7.93 1.86q-.735 0-1.32-.24c-.585-.24-.73-.39-1-.7-.28-.31-.49-.69-.65-1.13s-.24-.95-.26-1.51c0-.2-.02-.38-.02-.54s0-.34.02-.54c.02-.54.11-1.03.26-1.47s.37-.82.64-1.13.61-.55 1-.72c.4-.17.84-.25 1.32-.25s.94.08 1.31.25.67.38.93.65v-3.26c0-.11.04-.2.11-.27a.37.37 0 0 1 .27-.11h1.86c.1 0 .19.04.27.11s.11.16.11.27v10.05c0 .1-.04.19-.11.27-.08.08-.17.11-.27.11h-1.72c-.11 0-.2-.04-.27-.11s-.11-.16-.11-.27v-.49c-.24.29-.56.54-.94.73-.39.19-.86.29-1.43.29Zm.84-2.04c.33 0 .6-.07.8-.22s.34-.34.44-.57.15-.49.16-.76c0-.2.01-.4.01-.58s0-.37-.01-.56c-.01-.25-.07-.49-.17-.71s-.25-.4-.46-.53q-.3-.21-.78-.21c-.33 0-.6.07-.8.21s-.34.33-.43.58c-.09.24-.14.51-.16.81-.03.31-.03.63 0 .94.02.29.07.56.16.81.09.24.23.44.43.58s.46.21.8.21Zm8.98 2.04c-.85 0-1.57-.14-2.15-.41a3.03 3.03 0 0 1-1.34-1.18c-.31-.51-.49-1.12-.53-1.83 0-.2-.02-.43-.02-.69s0-.48.02-.68c.04-.72.22-1.33.55-1.84s.78-.9 1.36-1.17 1.29-.41 2.11-.41 1.54.14 2.12.41 1.04.66 1.36 1.17c.33.51.51 1.12.55 1.84 0 .19.02.42.02.68s0 .49-.02.69c-.04.71-.22 1.32-.52 1.83-.31.51-.76.91-1.34 1.18s-1.31.41-2.17.41m0-1.86c.46 0 .79-.14 1-.41s.33-.69.36-1.23c0-.15.02-.35.02-.61s0-.46-.02-.61q-.045-.81-.36-1.23c-.315-.42-.54-.42-1-.42s-.76.14-.98.42q-.33.42-.36 1.23c0 .15-.01.36-.01.61s0 .46.01.61q.03.825.36 1.23c.22.27.54.41.98.41m5.35 1.71a.37.37 0 0 1-.27-.11.4.4 0 0 1-.11-.27v-7.15c0-.1.04-.19.11-.27s.16-.11.27-.11h1.75c.11 0 .21.04.28.11s.11.17.11.27v.61c.26-.31.59-.56.97-.73s.81-.26 1.29-.26h.67c.11 0 .2.04.27.11s.11.16.11.27v1.57c0 .1-.04.19-.11.27s-.16.11-.27.11h-1.48c-.42 0-.74.11-.97.34s-.34.55-.34.97v3.9c0 .1-.04.19-.11.27s-.17.11-.28.11h-1.89Zm9.55.15c-1.2 0-2.15-.32-2.86-.97s-1.08-1.61-1.11-2.89v-.53c.03-.8.21-1.49.54-2.06s.79-1.01 1.37-1.31 1.27-.45 2.05-.45c.89 0 1.63.18 2.21.53.58.36 1.02.84 1.32 1.45.29.61.44 1.3.44 2.09v.37c0 .11-.04.2-.11.27a.37.37 0 0 1-.27.11h-4.87v.11c.01.29.06.56.16.81.1.24.24.44.43.58q.285.21.69.21c.2 0 .37-.03.51-.1s.25-.14.34-.23.16-.16.21-.22c.09-.11.17-.18.22-.21.06-.02.14-.04.27-.04h1.89c.1 0 .19.03.25.09.07.06.09.14.08.24 0 .17-.1.38-.26.62s-.4.48-.71.72-.7.43-1.16.59-1.01.23-1.63.23Zm-1.3-4.92h2.57v-.03c0-.33-.05-.62-.14-.86-.1-.24-.24-.42-.44-.56-.2-.13-.43-.2-.71-.2s-.49.07-.69.2c-.19.13-.34.32-.44.56s-.15.53-.15.86zm-65.41 19.28c0 .06-.07.09-.22.09h-2.58c-.14 0-.22-.03-.22-.09 0-.07.1-.1.3-.1.35 0 .56-.04.64-.11.03-.03.05-.27.05-.69v-5.35l-.11.36q-.42 1.245-1.2 3.75l-.48 1.64q-.15.48-.21.48c-.05 0-.1-.08-.16-.25-.2-.63-.76-2.19-1.68-4.69l-.41-1.1v3.89c0 1.26 0 1.9.03 1.91.05.09.21.13.5.13.23 0 .34.03.34.1 0 .08-.07.11-.22.11-.09 0-.17 0-.25-.02-.1-.01-.18-.02-.26-.02l-1.19.04c-.12 0-.19-.03-.19-.09 0-.07.2-.11.59-.11.17 0 .26-.03.29-.08s.04-.23.04-.54v-4.95c0-.57 0-.88-.02-.93a.3.3 0 0 0-.18-.2c-.09-.03-.28-.06-.58-.08-.11 0-.17-.04-.17-.09 0-.08.1-.11.3-.11h1.59q.045.135.6 1.62c.16.41.6 1.62 1.32 3.61.13-.45.26-.89.4-1.32l1.09-3.42c.06-.19.12-.35.17-.48h1.56c.23 0 .36 0 .39.02s.05.05.05.09c0 .07-.06.1-.18.1-.19 0-.32 0-.39.02-.17.03-.28.08-.34.17-.03.05-.05.45-.05 1.21v4.81c0 .28.03.44.08.49.09.06.31.09.67.09h.06q.21 0 .21.09Zm3.06-.02q0 .09-.12.09h-.1s-.51-.03-1.4-.03c-.17 0-.34 0-.52.02-.09 0-.23.01-.41.01-.09 0-.13-.03-.13-.09q0-.09.27-.09c.28 0 .44-.04.49-.1s.07-.26.07-.6v-5.44c0-.34-.02-.53-.05-.57-.04-.07-.23-.11-.58-.12-.13 0-.2-.03-.2-.07 0-.05.04-.08.12-.08h1.4c.1 0 .31 0 .6.01h.39c.11-.01.17.02.17.08 0 .05-.15.08-.46.1-.17 0-.28.04-.32.09s-.06.2-.06.43v5.51c0 .39.02.61.05.64.08.08.3.12.67.13.08 0 .11.03.11.09Zm5.98-.72c0 .18 0 .47-.03.89h-.11s-.14 0-.3-.02a9 9 0 0 0-.54-.02l-4.28-.03q-.18 0-.18-.09c0-.05.09-.08.28-.09.26-.01.42-.04.47-.09.05-.04.08-.17.08-.39v-5.8c0-.25-.03-.4-.08-.44s-.24-.06-.55-.06c-.13 0-.2-.04-.2-.11q0-.09.12-.09h.09q.345.03 1.35.03c.06 0 .18 0 .36-.02s.33-.02.44-.02h.11c.12 0 .19.03.19.1 0 .04-.02.07-.06.08q-.06.015-.36.03c-.3.015-.32.04-.36.1q-.06.09-.06.54v6.09c.19 0 .44.01.77.01.8 0 1.37-.04 1.7-.12s.55-.24.67-.46.19-.53.21-.92c0-.09.05-.13.12-.13.09 0 .12.05.12.15v.9Zm7.26.73c0 .06-.05.09-.14.09h-2.66c-.13 0-.2-.03-.2-.08s.09-.08.26-.1q.54-.045.54-.18c0-.09-.94-1.21-2.82-3.35v2.97c0 .24.04.39.11.45.08.06.28.09.61.09.08 0 .11.03.11.1 0 .06-.05.09-.14.09h-2.39c-.1 0-.16-.03-.16-.09 0-.07.13-.1.38-.11.23 0 .37-.06.41-.15.02-.03.03-.25.03-.65v-5.75c0-.14-.2-.22-.57-.22-.17 0-.25-.04-.25-.11q0-.09.18-.09c.04 0 .08 0 .14.01.11.01.42.02.92.02.54 0 .88 0 1.03-.02.08 0 .16-.01.24-.01.12 0 .19.04.19.11 0 .04-.02.07-.06.08s-.16.02-.36.03-.32.03-.36.08-.06.2-.06.46v2.52l.88-.88c1.33-1.33 1.99-2.03 1.99-2.08q0-.135-.48-.12c-.21 0-.31-.03-.31-.1 0-.05.05-.08.14-.08.1 0 .43-.01 1-.01h.57c.24 0 .38 0 .41.01.07.01.1.05.1.1 0 .08-.08.11-.23.11-.32 0-.52 0-.61.02s-.18.08-.27.17c-.45.47-1.12 1.17-2.04 2.11l-.28.26-.13.15s.21.23.52.56q.87.9 2.49 2.88c.23.28.38.44.47.5s.25.09.5.1c.2.01.3.05.3.1Zm5.61-5.24c0 .09-.04.13-.12.13s-.14-.09-.18-.27c-.01-.12-.03-.25-.04-.37q-.075-.375-.24-.63c-.14-.23-.38-.37-.71-.43-.21-.04-.38-.06-.52-.05-.32 0-.52.02-.59.02v6.23c0 .25.07.4.2.46.07.03.26.06.58.06.08 0 .12.04.12.09 0 .06-.06.09-.17.09-.06 0-.1 0-.14-.01-.41-.01-.71-.02-.88-.02-.23 0-.44 0-.64.02-.2.01-.45.02-.76.02-.16 0-.24-.03-.24-.08 0-.06.15-.1.44-.1.21 0 .35-.04.41-.13.03-.06.05-.2.05-.42v-6.19c-.68 0-1.1.04-1.27.1-.43.16-.69.58-.76 1.27-.02.21-.07.31-.14.31-.08 0-.12-.07-.12-.22v-.23l.02-.24c.02-.32.05-.73.09-1.25h.46l2.1.03h1.16l1.71-.03c.01.39.06.96.13 1.71v.08c0 .03.01.05.01.06Zm7.15 1.78c0 1.02-.31 1.89-.92 2.6-.62.71-1.37 1.06-2.26 1.06-.95 0-1.75-.36-2.39-1.08-.65-.72-.97-1.6-.97-2.66s.31-1.95.93-2.64c.62-.68 1.42-1.03 2.39-1.03.92 0 1.68.36 2.3 1.07.62.72.93 1.6.93 2.66Zm-1.16.05c0-1.26-.26-2.25-.77-2.95q-.48-.66-1.35-.66c-.87 0-.98.17-1.28.51-.56.62-.83 1.63-.83 3.03 0 1.11.19 1.97.58 2.59.39.61.93.92 1.63.92.65 0 1.15-.29 1.48-.87.36-.64.55-1.5.55-2.57Zm8.27 3.42c0 .06-.05.09-.16.09-.07 0-.13 0-.19-.01l-1.31-.04-1.31.04s-.1.01-.16.01c-.14 0-.21-.04-.21-.11 0-.08.09-.12.28-.12.61 0 .91-.07.91-.18 0 0 0-.03-.02-.08l-.08-.27-.05-.14c-.06-.21-.21-.69-.45-1.41h-2.21c-.41 1.1-.62 1.73-.62 1.9 0 .1.04.15.12.18.02 0 .19.02.52.04.2 0 .3.04.3.1 0 .07-.09.1-.27.1-.32 0-.68-.01-1.1-.04-.1 0-.21-.01-.32-.01s-.22.01-.32.03c-.06.01-.1.02-.13.02-.1 0-.14-.03-.14-.09s.11-.1.33-.1.37-.04.47-.1.17-.17.23-.34c.88-2.54 1.61-4.58 2.16-6.12.02-.08.05-.17.1-.27l.04-.19c.02-.08.05-.11.08-.11.02 0 .04.02.05.06.09.27.29.83.61 1.68.25.67.86 2.34 1.85 5.02.06.16.13.25.21.3s.26.07.53.07c.18 0 .27.04.27.1Zm-2.8-2.47c-.11-.31-.3-.82-.56-1.54l-.5-1.43q-.435 1.14-1.05 2.97h2.1Zm7.17.53c0 .59-.23 1.1-.68 1.51-.45.42-.99.62-1.62.62-.37 0-.82-.11-1.33-.34a.9.9 0 0 0-.31-.09c-.08 0-.13.1-.15.29 0 .1-.05.15-.13.15-.07 0-.1-.04-.1-.12v-.12c.06-.42.08-.81.08-1.17 0-.07 0-.26-.02-.58 0-.04-.01-.1-.01-.17q0-.15.12-.15c.07 0 .12.08.14.25.18 1.24.76 1.85 1.74 1.85.42 0 .75-.12.98-.36s.35-.57.35-1.01c0-.39-.11-.71-.34-.99-.22-.27-.61-.54-1.15-.81-.65-.32-1.11-.64-1.36-.94s-.38-.68-.38-1.12c0-.57.18-1.04.55-1.41s.83-.56 1.4-.56c.23 0 .56.08.97.24.14.06.25.08.32.08.08 0 .13-.01.15-.04s.05-.1.07-.22c.01-.07.05-.1.11-.1.07 0 .1.04.1.12 0 .06 0 .1-.01.12-.02.17-.03.36-.03.6 0 .33.02.59.05.78v.17c.02.08-.01.11-.08.11q-.12 0-.15-.24c-.08-.41-.25-.74-.54-1.02-.28-.27-.6-.41-.95-.41s-.62.11-.82.33-.3.52-.3.9c0 .44.15.79.44 1.06.17.15.52.36 1.07.64.65.32 1.11.65 1.39.99q.42.495.42 1.14Zm6.19-3.31c0 .09-.04.13-.12.13s-.14-.09-.18-.27c-.01-.12-.03-.25-.04-.37q-.075-.375-.24-.63c-.14-.23-.38-.37-.71-.43-.21-.04-.38-.06-.52-.05-.32 0-.52.02-.59.02v6.23c0 .25.07.4.2.46.07.03.26.06.58.06.08 0 .12.04.12.09 0 .06-.06.09-.17.09-.06 0-.1 0-.14-.01-.41-.01-.71-.02-.88-.02-.23 0-.44 0-.64.02-.2.01-.45.02-.76.02-.16 0-.24-.03-.24-.08 0-.06.15-.1.44-.1.21 0 .35-.04.41-.13.03-.06.05-.2.05-.42v-6.19c-.68 0-1.1.04-1.27.1-.43.16-.69.58-.76 1.27-.02.21-.07.31-.14.31-.08 0-.12-.07-.12-.22v-.23l.02-.24c.02-.32.05-.73.09-1.25h.46l2.1.03h1.16l1.71-.03c.01.39.06.96.13 1.71v.08c0 .03.01.05.01.06Zm6.28 5.01c0 .29-.24.43-.72.43-.54 0-.96-.22-1.26-.67-.13-.19-.21-.38-.25-.56s-.09-.63-.17-1.36q-.06-.66-.42-.93c-.24-.18-.63-.28-1.18-.29v3.25c0 .14.11.22.33.26.06 0 .22.01.47.02.09 0 .13.03.13.08q0 .09-.18.09h-2.42c-.15 0-.23-.03-.23-.09 0-.05.1-.08.3-.08.32 0 .5-.05.53-.12.03-.03.04-.17.04-.4v-5.7c0-.27-.03-.44-.09-.5s-.24-.09-.53-.09c-.17 0-.26-.03-.26-.09 0-.07.06-.1.17-.1.02 0 .05 0 .09.01l1.37.03c.14 0 .33 0 .58-.01.28-.02.47-.03.58-.03.64 0 1.15.14 1.52.43s.56.67.56 1.16-.19.88-.58 1.19-.91.5-1.57.55c-.06 0-.1.02-.1.03 0 .03.03.04.1.04.72.12 1.22.38 1.49.76q.405.57.54 2.07c.05.57.25.85.58.85q.15 0 .15-.06v-.02a.4.4 0 0 1-.05-.19c0-.14.08-.22.23-.22.17 0 .25.09.25.26m-2.13-5.17c0-.98-.43-1.48-1.28-1.48-.23 0-.38.03-.46.09q-.12.09-.12.33v2.62c.66 0 1.14-.11 1.43-.36s.44-.65.44-1.21Z" class="cls-6"/><path d="M924.52 490.16c0 .06-.05.09-.16.09-.07 0-.13 0-.19-.01l-1.31-.04-1.31.04s-.1.01-.16.01c-.14 0-.21-.04-.21-.11 0-.08.09-.12.28-.12.61 0 .91-.07.91-.18 0 0 0-.03-.02-.08l-.08-.27-.05-.14c-.06-.21-.21-.69-.45-1.41h-2.21c-.41 1.1-.62 1.73-.62 1.9 0 .1.04.15.12.18.02 0 .19.02.52.04.2 0 .3.04.3.1 0 .07-.09.1-.27.1-.32 0-.68-.01-1.1-.04-.1 0-.21-.01-.32-.01s-.22.01-.32.03c-.06.01-.1.02-.13.02-.1 0-.14-.03-.14-.09s.11-.1.33-.1.37-.04.47-.1.17-.17.23-.34c.88-2.54 1.61-4.58 2.16-6.12.02-.08.05-.17.1-.27l.04-.19c.02-.08.05-.11.08-.11.02 0 .04.02.05.06.09.27.29.83.61 1.68.25.67.86 2.34 1.85 5.02.06.16.13.25.21.3s.26.07.53.07c.18 0 .27.04.27.1Zm-2.8-2.47c-.11-.31-.3-.82-.56-1.54l-.5-1.43q-.435 1.14-1.05 2.97h2.1Zm8.23-2.78c0 .09-.04.13-.12.13s-.14-.09-.18-.27c-.01-.12-.03-.25-.04-.37q-.075-.375-.24-.63c-.14-.23-.38-.37-.71-.43-.21-.04-.38-.06-.52-.05-.32 0-.52.02-.59.02v6.23c0 .25.07.4.2.46.07.03.26.06.58.06.08 0 .12.04.12.09 0 .06-.06.09-.17.09-.06 0-.1 0-.14-.01-.41-.01-.71-.02-.88-.02-.23 0-.44 0-.64.02-.2.01-.45.02-.76.02-.16 0-.24-.03-.24-.08 0-.06.15-.1.44-.1.21 0 .35-.04.41-.13.03-.06.05-.2.05-.42v-6.19c-.68 0-1.1.04-1.27.1-.43.16-.69.58-.76 1.27-.02.21-.07.31-.14.31-.08 0-.12-.07-.12-.22v-.23l.02-.24c.02-.32.05-.73.09-1.25h.46l2.1.03h1.16l1.71-.03c.01.39.06.96.13 1.71v.08c0 .03.01.05.01.06Z" class="cls-6"/></g></svg>