<?xml version="1.0" encoding="UTF-8"?>
<svg id="Buttons" xmlns="http://www.w3.org/2000/svg" viewBox="0 0 256 256">
  <defs>
    <style>
      .cls-1 {
        fill: #f15a55;
      }

      .cls-2 {
        fill: #ffdb4f;
      }

      .cls-3 {
        fill: #232323;
      }

      .cls-4 {
        fill: #565656;
      }

      .cls-5 {
        fill: #6b6b6b;
      }

      .cls-6 {
        fill: #e7e7e6;
        stroke: #e7e7e6;
        stroke-width: .35px;
      }

      .cls-6, .cls-7 {
        stroke-miterlimit: 10;
      }

      .cls-8 {
        fill: #383838;
      }

      .cls-7 {
        fill: none;
        stroke: #383838;
        stroke-linecap: round;
        stroke-width: 6.45px;
      }

      .cls-9 {
        fill: #71c7b0;
      }

      .cls-10 {
        fill: #398ccb;
      }
    </style>
  </defs>
  <rect class="cls-8" x="183.54" y="73.62" width="40.08" height="7.27" rx="2.21" ry="2.21" transform="translate(-.7 1.86) rotate(-.52)"/>
  <rect class="cls-8" x="32.53" y="73.9" width="40.08" height="7.27" rx="2.21" ry="2.21" transform="translate(105.41 154.89) rotate(179.8)"/>
  <path class="cls-5" d="M252.81,147.21c-.05,4.87-.53,12.02-10.59,18.11-9.13,4.68-41.9,10.64-47.88,11.44-.16.03-.48.08-.94.16-.11.02-.22.04-.34.06-.1.02-.2.03-.31.05l-.62.11-.27.05c-8.13,1.38-34.22,5.47-63.84,5.36-30.12.12-56.58-4.11-64.23-5.42-.28-.05-.54-.09-.77-.13-.67-.12-1.12-.2-1.33-.23-5.98-.8-38.75-6.76-47.88-11.44-10.06-6.09-10.54-13.24-10.59-18.11,1.11-9.75,2.28-17.48,4.4-27.81,1.85-10.27,8.58-28.6,10.81-32.78,2.22-4.18,8.47-8.63,13.45-9.48h40.36s3.44.21,5.46,1.85c7.73,6.35,3.44,13.82,3.44,13.82-2.48,4.78-5.59,15.09-6.54,18.33-.19.63-.29,1-.29,1,.41.07.85.14,1.32.21,10.41,1.59,34.59,4.09,52.41,4.21,17.79-.12,41.91-2.61,52.35-4.21.49-.07.95-.15,1.38-.22,0,0-.09-.33-.26-.91-.92-3.13-4.06-13.59-6.57-18.42,0,0-4.29-7.47,3.44-13.82,2.01-1.64,5.46-1.85,5.46-1.85h40.36c4.98.85,11.23,5.3,13.45,9.48s8.95,22.51,10.8,32.78c2.12,10.33,3.28,18.06,4.4,27.81Z"/>
  <path class="cls-4" d="M69.9,116.25c-8.61,21.59-7.17,52.36-6.31,59.43.02.15.05.28.09.42.07.27.16.6.09,1.02,0,0,0,0,0,0l-1.54-.28c.01-.07,0-.14-.06-.34-.05-.17-.1-.37-.13-.63-.87-7.18-2.33-38.49,6.49-60.4l.07-.19.16-.13c1.54-1.26,4-2.05,5.52-3.02-.19.63,0,0,0,0,.41.07.85.14,1.32.21-1.39.88-4.12,2.66-5.69,3.9Z"/>
  <path class="cls-4" d="M193.49,176.11v.02c-.1.37-.14.56-.1.8h0s-.34.06-.34.06c-.1.02-.2.03-.31.05l-.62.11-.27.05c-.1-.56.01-1.01.12-1.43v-.02c.86-3.51,1.4-13.22.7-24.29-.6-9.58-2.31-23.43-7.01-35.19-.51-.41-1.1-.86-1.75-1.34-.55-.4-1.15-.83-1.77-1.26-.56-.38-1.36-.98-1.78-1.3.49-.07.95-.15,1.38-.22h0s4.51,2.56,5.07,3.02l.16.13.08.19c4.83,12,6.58,26.13,7.19,35.87.72,11.35.17,21.05-.74,24.77Z"/>
  <rect class="cls-4" x="199.62" y="99.83" width="24.98" height="15.74" transform="translate(-21.39 62.26) rotate(-15.91)"/>
  <rect class="cls-4" x="206.98" y="122.81" width="24.98" height="15.74" transform="translate(-27.41 65.16) rotate(-15.91)"/>
  <path class="cls-4" d="M62.96,144.1c44.19,7.69,87.44,7.97,129.63,0l.5,6.48c-42.32,8.34-85.97,7.63-130.64,0l.5-6.48Z"/>
  <circle class="cls-9" cx="200.81" cy="110.87" r="7.98"/>
  <circle class="cls-2" cx="224.16" cy="104.31" r="7.98"/>
  <circle class="cls-10" cx="230.72" cy="127.43" r="7.98"/>
  <circle class="cls-1" cx="207.36" cy="133.99" r="9.95"/>
  <circle class="cls-8" cx="40.17" cy="117.6" r="18.23"/>
  <path class="cls-7" d="M146.21,152.98c4.29-.26,20.54-1.45,26.41-2.4"/>
  <circle class="cls-3" cx="43.42" cy="105.02" r="2.38"/>
  <circle class="cls-3" cx="52.57" cy="121.23" r="2.38"/>
  <circle class="cls-3" cx="36.44" cy="130.68" r="2.38"/>
  <circle class="cls-3" cx="27.07" cy="114.16" r="2.38"/>
  <g>
    <g>
      <path class="cls-6" d="M112.99,140.56v-1.5c0-1.76,1.2-2.6,3.74-2.6s3.6.76,3.67,2.35h-1.69c-.06-.92-.65-1.33-1.97-1.33-1.42,0-1.99.48-1.99,1.6v1.47c0,1.12.58,1.6,1.99,1.6,1.31,0,1.91-.41,1.97-1.32h1.69c-.07,1.58-1.26,2.34-3.67,2.34-2.54,0-3.74-.84-3.74-2.6Z"/>
      <path class="cls-6" d="M128.96,139.1v1.41c0,1.74-1.16,2.53-3.77,2.53h-3.53v-6.47h3.53c2.62,0,3.77.8,3.77,2.53ZM127.19,139.12c0-1.11-.61-1.53-2.24-1.53h-1.53v4.44h1.53c1.63,0,2.24-.42,2.24-1.53v-1.37Z"/>
    </g>
    <g>
      <path class="cls-1" d="M130.98,139.25l-.02-.58s.04-.05.11-.05l1.3-.04c.06,0,.12.02.12.04l.02.53s.02.03.07.03l1.18-.04c.06,0,.07,0,.07-.03l-.04-1.11s-.02-.03-.07-.03l-1.14.04c-.09,0-.12-.02-.12-.04l-.02-.49s.04-.04.11-.04l1.14-.04c.06,0,.07,0,.07-.03l-.04-1.11s-.02-.03-.07-.03l-1.18.04c-.06,0-.07,0-.07.03l.02.48s-.06.05-.11.05l-1.3.04c-.09,0-.12-.02-.12-.04l-.02-.52c-.01-.36.37-.58,1.44-.61l1.47-.05c1.07-.04,1.47.16,1.48.51l.03.98c.01.3-.19.42-.45.52.26.08.47.18.48.49l.03.97c.01.36-.3.57-1.42.61l-1.46.05c-1.16.04-1.49-.16-1.51-.5Z"/>
      <path class="cls-1" d="M135.98,139.56l-.04-1.33c0-.15.12-.27.44-.42l1.95-.91c.3-.14.37-.2.36-.39v-.44s-.03-.03-.09-.03l-1.18.04c-.06,0-.07,0-.07.03l.02.53s-.06.04-.11.04l-1.3.04c-.07,0-.12,0-.12-.04l-.02-.58c-.01-.35.37-.57,1.44-.61l1.49-.05c1.08-.04,1.45.16,1.46.51l.02.62c0,.28-.22.44-.6.62l-1.95.93c-.14.06-.2.13-.2.22l.02.58s.02.03.07.03l2.61-.09c.09,0,.12.02.12.04l.02.49s-.04.04-.11.04l-4.1.14c-.07,0-.12,0-.12-.04Z"/>
    </g>
    <g>
      <path class="cls-1" d="M73.09,138.51c.08.4.13.65.16.74.03.09.07.16.1.19.04.03.14.07.31.11.01.02.02.02.03.04-.04.08-.05.12-.09.2-.02.01-.03.02-.05.03-.19-.05-.41-.09-.67-.13-.25-.04-.5-.07-.77-.1-.21-1.56-.4-2.66-.56-3.32.03-.05.05-.08.08-.13.07.02.15.03.22.05.45.07.85.01,1.19-.19.34-.2.59-.53.74-.98.2-.6-.01-.95-.64-1.05-.27-.04-.48-.05-.64-.03-.64,1.24-.97,1.86-1.63,3.09-.5.91-.77,1.44-.82,1.57-.01.04-.02.05-.03.09-.03.07-.03.13,0,.18.03.04.11.08.25.11.16.04.24.06.4.1,0,.01,0,.02.01.04-.04.08-.06.12-.1.2-.02.01-.03.02-.05.03-.43-.09-.86-.17-1.29-.24-.43-.07-.85-.14-1.25-.19,0-.01-.01-.02-.02-.03.04-.08.06-.12.1-.21.02-.01.03-.02.05-.03.08,0,.12.01.19.02.16.02.28.03.36.03.08,0,.19-.11.33-.32.14-.22.31-.52.53-.9.47-.85.7-1.27,1.15-2.12.42-.79.67-1.28.74-1.48.03-.09.03-.16,0-.19-.03-.03-.12-.06-.26-.1-.13-.03-.2-.05-.33-.08,0-.02-.01-.03-.02-.04.04-.09.07-.13.11-.21.02-.01.03-.02.05-.03.31.07.71.15,1.19.23.6.09.9.13,1.51.21.65.11,1.04.3,1.15.58.12.28.13.58.02.89-.12.36-.35.67-.69.92-.34.25-.83.4-1.47.43.16.82.24,1.23.4,2.05Z"/>
      <path class="cls-1" d="M75.16,137.73c.07-.22.19-.5.37-.86.17-.36.41-.71.71-1.06.3-.35.63-.64.99-.87.37-.23.74-.39,1.14-.47.39-.08.8-.1,1.22-.04.33.05.62.13.89.27.27.13.49.33.67.59.17.26.27.55.28.88.01.33-.03.68-.14,1.07-.29,1.03-.84,1.86-1.66,2.49-.82.63-1.76.88-2.79.73-.52-.07-.94-.23-1.25-.48-.31-.24-.5-.56-.57-.93-.07-.38-.02-.82.15-1.34ZM76.17,138.15c-.11.36-.16.68-.15.96.02.28.13.51.33.68.21.17.46.28.75.32.43.06.82-.02,1.18-.24.36-.22.74-.65,1.13-1.27.39-.62.67-1.22.84-1.81.18-.64.18-1.12,0-1.42-.19-.31-.49-.49-.91-.55-.39-.05-.74,0-1.04.16-.31.16-.61.44-.92.83-.3.39-.56.81-.77,1.24-.21.43-.36.8-.46,1.1Z"/>
      <path class="cls-1" d="M88.28,135.61c.38.07.59.1.65.11.45.03.67.04,1.11.07,0,.01.01.02.02.04-.03.09-.04.13-.07.22-.02.01-.03.02-.05.03-.03,0-.09,0-.2,0-.11,0-.19,0-.25.02-.06.01-.11.04-.15.08-.04.04-.09.1-.13.19-.04.09-.11.25-.21.48-.52,1.33-.78,2-1.33,3.32-.19.49-.31.78-.33.87-.02.08,0,.14.03.18.04.04.12.07.26.1.15.03.22.05.37.08,0,.01.01.02.02.04-.03.08-.05.13-.09.21-.02,0-.03.01-.05.02-.42-.06-.84-.11-1.24-.15-.39-.04-.79-.08-1.22-.11,0-.02-.01-.02-.02-.04.03-.08.05-.12.08-.2.02,0,.02-.01.04-.02.31-.01.49-.02.56-.04.06-.01.13-.09.21-.23.08-.14.23-.47.44-1,.3-.73.45-1.1.74-1.83.24-.61.35-.92.58-1.53-1.53,1.77-2.75,3.15-3.6,4.15-.23.28-.35.41-.59.69-.09-.01-.13-.02-.22-.03.03-.9.04-1.36.07-2.26.02-1.09.03-1.64.06-2.73-.5,1-.76,1.49-1.28,2.48-.47.9-.73,1.42-.76,1.56-.03.1-.02.18.01.22.04.04.22.1.55.16.01.02.02.02.03.04-.03.08-.05.12-.08.2-.02.01-.02.02-.04.03-.28-.05-.57-.1-.87-.13-.31-.04-.59-.07-.86-.08,0-.01-.01-.02-.02-.04.03-.08.04-.12.07-.2.02-.01.03-.02.05-.03.27,0,.43-.02.49-.07.06-.05.2-.26.43-.64.22-.38.51-.89.85-1.53.38-.71.57-1.06.95-1.77.22-.43.35-.69.37-.8.04-.15,0-.25-.14-.29-.13-.04-.3-.08-.51-.12,0-.02,0-.03-.01-.05.03-.08.05-.13.08-.21.02-.01.02-.02.04-.03.39.07.69.11.9.14.23.03.5.05.81.07-.02.77-.03,1.16-.05,1.93-.02,1.04-.02,1.56-.04,2.59.32-.35.51-.57.58-.65.89-1.02,1.33-1.54,2.2-2.56.31-.37.46-.56.76-.93Z"/>
      <path class="cls-1" d="M95.85,136.29c.38.06.6.09.66.09.45.02.67.02,1.12.04.01.01.02.02.03.04-.02.09-.04.13-.06.22-.02.01-.03.02-.05.03-.03,0-.09,0-.2,0-.11,0-.19.01-.25.03-.06.01-.11.04-.15.08-.04.04-.08.11-.12.19-.04.09-.1.25-.18.49-.45,1.34-.67,2.02-1.14,3.36-.17.5-.26.79-.28.88-.01.08,0,.14.04.18.04.04.13.07.26.09.15.03.23.04.38.07,0,.01.01.02.02.04-.03.09-.04.13-.07.21-.02,0-.03.01-.05.02-.43-.05-.85-.09-1.26-.12-.39-.03-.8-.05-1.23-.07-.01-.01-.02-.02-.03-.04.03-.08.04-.12.07-.2.02,0,.02-.01.04-.02.31-.02.49-.04.56-.05.06-.01.13-.09.2-.23.07-.14.2-.48.38-1.01.26-.74.39-1.11.65-1.85.2-.62.3-.93.5-1.55-1.43,1.81-2.58,3.22-3.38,4.25-.22.28-.33.42-.55.71-.09,0-.13-.01-.22-.02-.02-.9-.04-1.36-.06-2.26-.04-1.09-.06-1.64-.1-2.73-.45,1.01-.68,1.51-1.14,2.52-.42.92-.65,1.44-.68,1.58-.02.1-.02.18.02.22.04.04.23.09.56.14.01.01.02.02.03.04-.03.08-.04.12-.07.2-.02.01-.02.02-.04.03-.28-.04-.57-.08-.88-.11-.31-.03-.6-.05-.87-.06,0-.01-.01-.02-.02-.04.03-.08.04-.12.06-.2.02-.01.03-.02.05-.03.27,0,.43-.03.49-.08.06-.05.19-.27.39-.65.2-.39.46-.9.77-1.55.34-.72.51-1.08.85-1.8.2-.43.31-.7.33-.81.03-.15-.02-.25-.16-.29-.14-.04-.31-.07-.52-.11,0-.02,0-.03-.01-.05.03-.09.04-.13.07-.21.02-.01.02-.02.04-.03.4.05.7.09.91.11.24.02.51.04.81.05.02.77.04,1.16.06,1.93.04,1.04.06,1.56.11,2.59.3-.36.48-.58.55-.66.84-1.05,1.25-1.57,2.06-2.62.29-.38.43-.57.71-.95Z"/>
      <path class="cls-1" d="M96.4,142.4s-.01-.02-.02-.04c.02-.08.04-.13.06-.21.02-.01.03-.02.04-.04.03,0,.09,0,.19,0,.23,0,.37,0,.42-.03.05-.03.1-.09.15-.17.05-.09.18-.45.4-1.1.3-.89.44-1.33.73-2.22.27-.84.41-1.35.44-1.53,0-.05,0-.09,0-.12-.01-.03-.04-.06-.07-.08-.04-.02-.12-.04-.24-.05-.14-.02-.22-.03-.36-.05,0-.01-.01-.02-.02-.04.03-.09.04-.14.07-.23.02-.01.02-.02.04-.04.35.04.77.08,1.24.11.19.01.62.03,1.29.05,0,.01.01.02.02.04-.03.09-.04.14-.07.23-.02.01-.02.02-.04.03-.3,0-.47,0-.51,0-.04.01-.08.03-.11.05-.03.02-.06.06-.09.11-.05.09-.14.36-.29.81-.39,1.27-.59,1.91-1.01,3.18-.15.48-.23.77-.25.89-.01.09,0,.16.06.2.05.04.13.07.25.08.17.02.26.03.43.05,0,.01.01.02.02.04-.02.08-.03.13-.06.21-.02.01-.03.02-.04.04-.32-.04-.77-.08-1.35-.12-.45-.03-.88-.05-1.3-.06Z"/>
      <path class="cls-1" d="M105.22,142.47s-.02.02-.03.03c-.14.02-.37.08-.69.18-.45.13-.8.21-1.06.24-.26.03-.5.04-.73.02-.77-.04-1.34-.27-1.71-.69-.38-.42-.51-1.02-.4-1.79.06-.42.17-.83.35-1.23.17-.4.38-.74.62-1.02.24-.28.58-.55,1-.82.42-.26.8-.44,1.14-.54.34-.1.69-.14,1.04-.12.31.01.62.07.92.15.31.09.53.19.68.31.01.02.02.04.03.06-.1.28-.15.43-.25.71-.06.18-.13.4-.19.66-.02.01-.02.02-.04.03-.09,0-.14,0-.23,0,0-.01-.01-.02-.02-.04.05-.31.09-.58.11-.81-.34-.33-.78-.51-1.35-.54-.36-.02-.68.03-.97.14-.29.11-.54.31-.77.61-.23.3-.42.67-.59,1.12-.17.45-.28.9-.34,1.34-.08.63-.01,1.12.22,1.48.23.35.61.54,1.13.56.38.02.72-.05,1.02-.2.09-.26.14-.39.24-.65.04-.12.09-.28.14-.46.05-.18.08-.3.08-.35,0-.05,0-.08-.02-.12-.02-.03-.05-.06-.08-.06-.03,0-.13-.02-.29-.04-.16-.02-.3-.03-.42-.04,0-.01-.01-.02-.02-.04.03-.09.04-.14.07-.23.02-.01.02-.02.04-.04.52.04.9.07,1.13.08.11,0,.53.01,1.26.02.01.02.02.02.03.04-.02.09-.03.14-.06.23-.02.01-.03.02-.04.03-.15,0-.26,0-.33.03-.07.02-.12.06-.16.12-.04.06-.1.2-.16.43-.05.15-.07.22-.12.37-.07.22-.11.36-.13.42-.02.06-.03.13-.04.21,0,.06,0,.12,0,.18Z"/>
      <path class="cls-1" d="M106,142.93s-.02-.02-.03-.04c.02-.09.03-.13.05-.22.02-.01.03-.02.05-.03.22,0,.34-.02.38-.02.03,0,.07-.02.1-.05.04-.02.07-.06.11-.11.04-.05.16-.23.37-.54.23-.33.34-.5.56-.83.54-.81.81-1.22,1.33-2.03.32-.49.48-.73.79-1.22.23-.35.4-.63.5-.83.31,0,.47.01.78.02.04.51.05.76.09,1.27.04.56.06.84.1,1.41.03.46.05.69.09,1.15.03.34.04.52.07.86.02.21.03.31.05.52.01.23.05.38.11.45.06.07.26.1.59.11.01.02.02.02.03.04-.02.09-.02.13-.04.22-.02.01-.03.02-.04.04-.63-.03-1.05-.05-1.26-.06-.18,0-.59,0-1.22,0-.01-.02-.02-.02-.03-.04.02-.09.03-.13.05-.22.02-.01.03-.02.04-.04.27,0,.44-.01.52-.05.08-.04.12-.11.13-.2.02-.2,0-.8-.06-1.79-.25,0-.41-.01-.49-.02-.25,0-.38,0-.63-.01-.3,0-.44-.01-.74-.02-.18.28-.39.6-.6.96-.21.36-.35.58-.39.68-.04.1-.07.16-.07.2,0,.05.02.1.07.13.05.04.26.07.61.09.01.02.02.02.03.04-.02.09-.03.13-.05.22-.02.01-.03.02-.05.03,0,0-.1-.01-.3-.03-.26-.02-.47-.03-.61-.04-.08,0-.42,0-1.01,0ZM108.59,140.27c.13,0,.21,0,.24.01.85.02,1.31.03,1.37.03-.06-.92-.09-1.38-.16-2.31-.57.91-.86,1.36-1.45,2.26Z"/>
    </g>
  </g>
</svg>