<?xml version="1.0" encoding="UTF-8"?>
<svg id="Layer_1" data-name="Layer 1" xmlns="http://www.w3.org/2000/svg" viewBox="0 0 1000 1000">
  <defs>
    <style>
      .cls-1 {
        fill: #b5a78c;
      }

      .cls-2 {
        fill: #606060;
      }

      .cls-3 {
        fill: #9e977c;
      }

      .cls-4 {
        fill: #c6bca7;
      }

      .cls-5 {
        fill: #786144;
      }

      .cls-6, .cls-7 {
        fill: #454442;
      }

      .cls-6, .cls-8 {
        fill-rule: evenodd;
      }

      .cls-9 {
        fill: #857c67;
      }

      .cls-10 {
        fill: #1b1b1b;
      }

      .cls-11 {
        fill: #9d907b;
      }

      .cls-12 {
        fill: #bab09d;
      }

      .cls-13 {
        fill: #c0ad90;
      }

      .cls-14 {
        fill: #c3c0b8;
      }

      .cls-15 {
        fill: #8bc756;
      }

      .cls-8 {
        fill: #9d9796;
      }
    </style>
  </defs>
  <path class="cls-12" d="M988.43,572.38c0,.95-.77,1.73-1.72,1.73l-960.87,6.57h-6.93c-.96,0-1.73-.77-1.73-1.73l-.45-232.04c0-.96.77-1.74,1.73-1.74h960.92c.96,0,1.73.78,1.73,1.73v50.47c0,.98-.81,1.77-1.79,1.73l-2.79-.1c-.98-.04-1.79.75-1.79,1.73v152.86c0,.96.78,1.73,1.73,1.73h10.23c.96,0,1.73.78,1.73,1.73v15.32Z"/>
  <path class="cls-4" d="M973.17,823.86l-944.84-1.68c-2.38,0-4.31-1.94-4.31-4.32v-350.6c0-2.39,1.94-4.32,4.32-4.32h944.84c2.39,0,4.32,1.94,4.32,4.32v352.28c0,2.39-1.94,4.33-4.33,4.32Z"/>
  <g>
    <rect class="cls-10" x="803.28" y="571.64" width="165.22" height="200.48"/>
    <rect class="cls-3" x="805.75" y="732.34" width="79.2" height="37.34" rx="1.87" ry="1.87"/>
    <path class="cls-1" d="M874.76,761.7c-19.61,1.24-39.21,1.24-58.82,0-3.06,0-5.53-.97-5.53-2.18v-23.15c0-1.2,2.48-2.18,5.53-2.18h58.82c3.06,0,5.53.97,5.53,2.18v23.15c0,1.2-2.48,2.18-5.53,2.18Z"/>
    <rect class="cls-9" x="805.87" y="574.19" width="38.6" height="37.34" rx="1.3" ry="1.3"/>
    <path class="cls-11" d="M837.39,603.55c-8.14,1.24-16.29,1.24-24.43,0-1.27,0-2.3-.97-2.3-2.18v-23.15c0-1.2,1.03-2.18,2.3-2.18h24.43c1.27,0,2.3.97,2.3,2.18v23.15c0,1.2-1.03,2.18-2.3,2.18Z"/>
    <rect class="cls-9" x="846.47" y="574.19" width="38.6" height="37.34" rx="1.3" ry="1.3"/>
    <path class="cls-11" d="M877.99,603.55c-8.14,1.24-16.29,1.24-24.43,0-1.27,0-2.3-.97-2.3-2.18v-23.15c0-1.2,1.03-2.18,2.3-2.18h24.43c1.27,0,2.3.97,2.3,2.18v23.15c0,1.2-1.03,2.18-2.3,2.18Z"/>
    <rect class="cls-9" x="887.33" y="574.19" width="38.6" height="37.34" rx="1.3" ry="1.3"/>
    <path class="cls-11" d="M918.85,603.55c-8.14,1.24-16.29,1.24-24.43,0-1.27,0-2.3-.97-2.3-2.18v-23.15c0-1.2,1.03-2.18,2.3-2.18h24.43c1.27,0,2.3.97,2.3,2.18v23.15c0,1.2-1.03,2.18-2.3,2.18Z"/>
    <rect class="cls-9" x="928.06" y="574.19" width="38.6" height="37.34" rx="1.3" ry="1.3"/>
    <path class="cls-11" d="M959.58,603.55c-8.14,1.24-16.29,1.24-24.43,0-1.27,0-2.3-.97-2.3-2.18v-23.15c0-1.2,1.03-2.18,2.3-2.18h24.43c1.27,0,2.3.97,2.3,2.18v23.15c0,1.2-1.03,2.18-2.3,2.18Z"/>
    <rect class="cls-9" x="928.06" y="613.73" width="38.6" height="37.34" rx="1.3" ry="1.3"/>
    <path class="cls-11" d="M959.58,643.09c-8.14,1.24-16.29,1.24-24.43,0-1.27,0-2.3-.97-2.3-2.18v-23.15c0-1.2,1.03-2.18,2.3-2.18h24.43c1.27,0,2.3.97,2.3,2.18v23.15c0,1.2-1.03,2.18-2.3,2.18Z"/>
    <rect class="cls-9" x="928.06" y="652.92" width="38.6" height="37.34" rx="1.3" ry="1.3"/>
    <path class="cls-11" d="M959.58,682.28c-8.14,1.24-16.29,1.24-24.43,0-1.27,0-2.3-.97-2.3-2.18v-23.15c0-1.2,1.03-2.18,2.3-2.18h24.43c1.27,0,2.3.97,2.3,2.18v23.15c0,1.2-1.03,2.18-2.3,2.18Z"/>
    <rect class="cls-9" x="928.06" y="692.11" width="38.6" height="77.56" rx="1.88" ry="1.88"/>
    <path class="cls-11" d="M959.58,759.73c-7.96,2.67-16.13,2.69-24.43,0-1.27,0-2.3-2.26-2.3-5.05v-53.66c0-2.79,1.03-5.05,2.3-5.05h24.43c1.27,0,2.3,2.26,2.3,5.05v53.66c0,2.79-1.03,5.05-2.3,5.05Z"/>
    <g>
      <rect class="cls-3" x="805.87" y="613.73" width="38.09" height="37.34" rx="1.29" ry="1.29"/>
      <path class="cls-1" d="M836.73,643.09c-7.87,1.24-15.75,1.24-23.62,0-1.23,0-2.22-.97-2.22-2.18v-23.15c0-1.2.99-2.18,2.22-2.18h23.62c1.23,0,2.22.97,2.22,2.18v23.15c0,1.2-.99,2.18-2.22,2.18Z"/>
    </g>
    <g>
      <rect class="cls-3" x="887.84" y="613.73" width="38.09" height="37.34" rx="1.29" ry="1.29"/>
      <path class="cls-1" d="M918.69,643.09c-7.87,1.24-15.75,1.24-23.62,0-1.23,0-2.22-.97-2.22-2.18v-23.15c0-1.2.99-2.18,2.22-2.18h23.62c1.23,0,2.22.97,2.22,2.18v23.15c0,1.2-.99,2.18-2.22,2.18Z"/>
    </g>
    <g>
      <rect class="cls-3" x="846.86" y="613.73" width="38.09" height="37.34" rx="1.29" ry="1.29"/>
      <path class="cls-1" d="M877.71,643.09c-7.87,1.24-15.75,1.24-23.62,0-1.23,0-2.22-.97-2.22-2.18v-23.15c0-1.2.99-2.18,2.22-2.18h23.62c1.23,0,2.22.97,2.22,2.18v23.15c0,1.2-.99,2.18-2.22,2.18Z"/>
    </g>
    <g>
      <rect class="cls-3" x="805.75" y="653.27" width="38.09" height="37.34" rx="1.29" ry="1.29"/>
      <path class="cls-1" d="M836.6,682.63c-7.87,1.24-15.75,1.24-23.62,0-1.23,0-2.22-.97-2.22-2.18v-23.15c0-1.2.99-2.18,2.22-2.18h23.62c1.23,0,2.22.97,2.22,2.18v23.15c0,1.2-.99,2.18-2.22,2.18Z"/>
    </g>
    <g>
      <rect class="cls-3" x="887.71" y="653.27" width="38.09" height="37.34" rx="1.29" ry="1.29"/>
      <path class="cls-1" d="M918.57,682.63c-7.87,1.24-15.75,1.24-23.62,0-1.23,0-2.22-.97-2.22-2.18v-23.15c0-1.2.99-2.18,2.22-2.18h23.62c1.23,0,2.22.97,2.22,2.18v23.15c0,1.2-.99,2.18-2.22,2.18Z"/>
    </g>
    <g>
      <rect class="cls-3" x="846.73" y="653.27" width="38.09" height="37.34" rx="1.29" ry="1.29"/>
      <path class="cls-1" d="M877.58,682.63c-7.87,1.24-15.75,1.24-23.62,0-1.23,0-2.22-.97-2.22-2.18v-23.15c0-1.2.99-2.18,2.22-2.18h23.62c1.23,0,2.22.97,2.22,2.18v23.15c0,1.2-.99,2.18-2.22,2.18Z"/>
    </g>
    <g>
      <rect class="cls-3" x="805.75" y="692.8" width="38.09" height="37.34" rx="1.29" ry="1.29"/>
      <path class="cls-1" d="M836.6,722.17c-7.87,1.24-15.75,1.24-23.62,0-1.23,0-2.22-.97-2.22-2.18v-23.15c0-1.2.99-2.18,2.22-2.18h23.62c1.23,0,2.22.97,2.22,2.18v23.15c0,1.2-.99,2.18-2.22,2.18Z"/>
    </g>
    <g>
      <rect class="cls-3" x="887.71" y="692.8" width="38.09" height="37.34" rx="1.29" ry="1.29"/>
      <path class="cls-1" d="M918.57,722.17c-7.87,1.24-15.75,1.24-23.62,0-1.23,0-2.22-.97-2.22-2.18v-23.15c0-1.2.99-2.18,2.22-2.18h23.62c1.23,0,2.22.97,2.22,2.18v23.15c0,1.2-.99,2.18-2.22,2.18Z"/>
    </g>
    <g>
      <rect class="cls-3" x="887.59" y="732.34" width="38.09" height="37.34" rx="1.29" ry="1.29"/>
      <path class="cls-1" d="M918.44,761.7c-7.87,1.24-15.75,1.24-23.62,0-1.23,0-2.22-.97-2.22-2.18v-23.15c0-1.2.99-2.18,2.22-2.18h23.62c1.23,0,2.22.97,2.22,2.18v23.15c0,1.2-.99,2.18-2.22,2.18Z"/>
    </g>
    <g>
      <rect class="cls-3" x="846.73" y="692.8" width="38.09" height="37.34" rx="1.29" ry="1.29"/>
      <path class="cls-1" d="M877.58,722.17c-7.87,1.24-15.75,1.24-23.62,0-1.23,0-2.22-.97-2.22-2.18v-23.15c0-1.2.99-2.18,2.22-2.18h23.62c1.23,0,2.22.97,2.22,2.18v23.15c0,1.2-.99,2.18-2.22,2.18Z"/>
    </g>
    <rect class="cls-10" x="34.61" y="518.67" width="42.57" height="42.57"/>
    <rect class="cls-10" x="662.9" y="575.86" width="125.13" height="42.57"/>
    <rect class="cls-10" x="666.81" y="690.19" width="120.66" height="42.57"/>
    <rect class="cls-10" x="706.08" y="651.55" width="42.11" height="42.57"/>
    <rect class="cls-10" x="93.33" y="518.67" width="251.1" height="42.57"/>
    <rect class="cls-10" x="68.91" y="728.19" width="550.69" height="42.57"/>
    <rect class="cls-10" x="33.78" y="575.14" width="615.09" height="156.74"/>
    <rect class="cls-10" x="356.96" y="518.67" width="251.91" height="42.57"/>
    <g>
      <g>
        <rect class="cls-3" x="490.42" y="578.86" width="36.56" height="36.56" rx="1.25" ry="1.25"/>
        <path class="cls-1" d="M520.04,607.62c-7.56,1.21-15.11,1.21-22.67,0-1.18,0-2.13-.95-2.13-2.13v-22.67c0-1.18.95-2.13,2.13-2.13h22.67c1.18,0,2.13.95,2.13,2.13v22.67c0,1.18-.95,2.13-2.13,2.13Z"/>
      </g>
      <g>
        <rect class="cls-3" x="451.08" y="578.86" width="36.56" height="36.56" rx="1.25" ry="1.25"/>
        <path class="cls-1" d="M480.7,607.62c-7.56,1.21-15.11,1.21-22.67,0-1.18,0-2.13-.95-2.13-2.13v-22.67c0-1.18.95-2.13,2.13-2.13h22.67c1.18,0,2.13.95,2.13,2.13v22.67c0,1.18-.95,2.13-2.13,2.13Z"/>
      </g>
      <g>
        <rect class="cls-3" x="568.81" y="578.86" width="36.56" height="36.56" rx="1.25" ry="1.25"/>
        <path class="cls-1" d="M598.42,607.62c-7.56,1.21-15.11,1.21-22.67,0-1.18,0-2.13-.95-2.13-2.13v-22.67c0-1.18.95-2.13,2.13-2.13h22.67c1.18,0,2.13.95,2.13,2.13v22.67c0,1.18-.95,2.13-2.13,2.13Z"/>
      </g>
      <g>
        <rect class="cls-9" x="607.57" y="578.86" width="37.8" height="36.56" rx="1.28" ry="1.28"/>
        <path class="cls-11" d="M638.43,607.62c-7.97,1.21-15.95,1.21-23.92,0-1.24,0-2.25-.95-2.25-2.13v-22.67c0-1.18,1.01-2.13,2.25-2.13h23.92c1.24,0,2.25.95,2.25,2.13v22.67c0,1.18-1.01,2.13-2.25,2.13Z"/>
      </g>
      <g>
        <rect class="cls-9" x="37" y="521.67" width="37.8" height="36.56" rx="1.28" ry="1.28"/>
        <path class="cls-11" d="M67.86,550.43c-7.97,1.21-15.95,1.21-23.92,0-1.24,0-2.25-.95-2.25-2.13v-22.67c0-1.18,1.01-2.13,2.25-2.13h23.92c1.24,0,2.25.95,2.25,2.13v22.67c0,1.18-1.01,2.13-2.25,2.13Z"/>
      </g>
      <g>
        <rect class="cls-9" x="86.41" y="654.55" width="37.8" height="36.56" rx="1.28" ry="1.28"/>
        <path class="cls-11" d="M117.27,683.3c-7.97,1.21-15.95,1.21-23.92,0-1.24,0-2.25-.95-2.25-2.13v-22.67c0-1.18,1.01-2.13,2.25-2.13h23.92c1.24,0,2.25.95,2.25,2.13v22.67c0,1.18-1.01,2.13-2.25,2.13Z"/>
      </g>
      <rect class="cls-9" x="569.51" y="731.88" width="47.28" height="36.56" rx="1.43" ry="1.43"/>
      <rect class="cls-9" x="598.08" y="638.09" width="47.28" height="53.02" rx="1.72" ry="1.72"/>
      <rect class="cls-9" x="588.61" y="616.71" width="56.75" height="36.56" rx="1.56" ry="1.56"/>
      <path class="cls-11" d="M610.23,760.64c-11.38,1.21-22.77,1.21-34.15,0-1.77,0-3.21-.95-3.21-2.13v-22.67c0-1.18,1.44-2.13,3.21-2.13h34.15c1.77,0,3.21.95,3.21,2.13v22.67c0,1.18-1.44,2.13-3.21,2.13Z"/>
      <path class="cls-11" d="M637.64,682.27c-10.77,2.29-21.55,2.29-32.32,0-1.68,0-3.04-1.81-3.04-4.03v-42.88c0-2.23,1.36-4.03,3.04-4.03h32.32c1.68,0,3.04,1.81,3.04,4.03v42.88c0,2.23-1.36,4.03-3.04,4.03Z"/>
      <path class="cls-11" d="M636.96,645.09c-13.18,1.21-26.37,1.21-39.55,0-2.05,0-3.72-.95-3.72-2.13v-22.67c0-1.18,1.67-2.13,3.72-2.13h39.55c2.05,0,3.72.95,3.72,2.13v22.67c0,1.18-1.67,2.13-3.72,2.13Z"/>
      <rect class="cls-9" x="520.36" y="731.88" width="47.28" height="36.56" rx="1.43" ry="1.43"/>
      <path class="cls-11" d="M561.07,760.64c-11.38,1.21-22.77,1.21-34.15,0-1.77,0-3.21-.95-3.21-2.13v-22.67c0-1.18,1.44-2.13,3.21-2.13h34.15c1.77,0,3.21.95,3.21,2.13v22.67c0,1.18-1.44,2.13-3.21,2.13Z"/>
      <rect class="cls-9" x="120.85" y="731.19" width="47.28" height="36.56" rx="1.43" ry="1.43"/>
      <path class="cls-11" d="M161.57,759.94c-11.38,1.21-22.77,1.21-34.15,0-1.77,0-3.21-.95-3.21-2.13v-22.67c0-1.18,1.44-2.13,3.21-2.13h34.15c1.77,0,3.21.95,3.21,2.13v22.67c0,1.18-1.44,2.13-3.21,2.13Z"/>
      <rect class="cls-9" x="36.37" y="654.55" width="47.28" height="36.56" rx="1.43" ry="1.43"/>
      <path class="cls-11" d="M77.09,683.3c-11.38,1.21-22.77,1.21-34.15,0-1.77,0-3.21-.95-3.21-2.13v-22.67c0-1.18,1.44-2.13,3.21-2.13h34.15c1.77,0,3.21.95,3.21,2.13v22.67c0,1.18-1.44,2.13-3.21,2.13Z"/>
      <rect class="cls-9" x="95.34" y="521.67" width="47.28" height="36.56" rx="1.43" ry="1.43"/>
      <path class="cls-11" d="M136.06,550.43c-11.38,1.21-22.77,1.21-34.15,0-1.77,0-3.21-.95-3.21-2.13v-22.67c0-1.18,1.44-2.13,3.21-2.13h34.15c1.77,0,3.21.95,3.21,2.13v22.67c0,1.18-1.44,2.13-3.21,2.13Z"/>
      <rect class="cls-9" x="145.27" y="521.67" width="47.28" height="36.56" rx="1.43" ry="1.43"/>
      <path class="cls-11" d="M185.99,550.43c-11.38,1.21-22.77,1.21-34.15,0-1.77,0-3.21-.95-3.21-2.13v-22.67c0-1.18,1.44-2.13,3.21-2.13h34.15c1.77,0,3.21.95,3.21,2.13v22.67c0,1.18-1.44,2.13-3.21,2.13Z"/>
      <rect class="cls-9" x="194.94" y="521.67" width="47.28" height="36.56" rx="1.43" ry="1.43"/>
      <path class="cls-11" d="M235.66,550.43c-11.38,1.21-22.77,1.21-34.15,0-1.77,0-3.21-.95-3.21-2.13v-22.67c0-1.18,1.44-2.13,3.21-2.13h34.15c1.77,0,3.21.95,3.21,2.13v22.67c0,1.18-1.44,2.13-3.21,2.13Z"/>
      <rect class="cls-9" x="245" y="521.67" width="47.28" height="36.56" rx="1.43" ry="1.43"/>
      <path class="cls-11" d="M285.72,550.43c-11.38,1.21-22.77,1.21-34.15,0-1.77,0-3.21-.95-3.21-2.13v-22.67c0-1.18,1.44-2.13,3.21-2.13h34.15c1.77,0,3.21.95,3.21,2.13v22.67c0,1.18-1.44,2.13-3.21,2.13Z"/>
      <rect class="cls-9" x="295.19" y="521.67" width="47.28" height="36.56" rx="1.43" ry="1.43"/>
      <path class="cls-11" d="M335.9,550.43c-11.38,1.21-22.77,1.21-34.15,0-1.77,0-3.21-.95-3.21-2.13v-22.67c0-1.18,1.44-2.13,3.21-2.13h34.15c1.77,0,3.21.95,3.21,2.13v22.67c0,1.18-1.44,2.13-3.21,2.13Z"/>
      <rect class="cls-9" x="359.27" y="521.67" width="47.28" height="36.56" rx="1.43" ry="1.43"/>
      <path class="cls-11" d="M399.98,550.43c-11.38,1.21-22.77,1.21-34.15,0-1.77,0-3.21-.95-3.21-2.13v-22.67c0-1.18,1.44-2.13,3.21-2.13h34.15c1.77,0,3.21.95,3.21,2.13v22.67c0,1.18-1.44,2.13-3.21,2.13Z"/>
      <rect class="cls-9" x="409.2" y="521.67" width="47.28" height="36.56" rx="1.43" ry="1.43"/>
      <path class="cls-11" d="M449.91,550.43c-11.38,1.21-22.77,1.21-34.15,0-1.77,0-3.21-.95-3.21-2.13v-22.67c0-1.18,1.44-2.13,3.21-2.13h34.15c1.77,0,3.21.95,3.21,2.13v22.67c0,1.18-1.44,2.13-3.21,2.13Z"/>
      <rect class="cls-9" x="458.87" y="521.67" width="47.28" height="36.56" rx="1.43" ry="1.43"/>
      <path class="cls-11" d="M499.58,550.43c-11.38,1.21-22.77,1.21-34.15,0-1.77,0-3.21-.95-3.21-2.13v-22.67c0-1.18,1.44-2.13,3.21-2.13h34.15c1.77,0,3.21.95,3.21,2.13v22.67c0,1.18-1.44,2.13-3.21,2.13Z"/>
      <rect class="cls-9" x="508.93" y="521.67" width="47.28" height="36.56" rx="1.43" ry="1.43"/>
      <path class="cls-11" d="M549.64,550.43c-11.38,1.21-22.77,1.21-34.15,0-1.77,0-3.21-.95-3.21-2.13v-22.67c0-1.18,1.44-2.13,3.21-2.13h34.15c1.77,0,3.21.95,3.21,2.13v22.67c0,1.18-1.44,2.13-3.21,2.13Z"/>
      <rect class="cls-9" x="559.11" y="521.67" width="47.28" height="36.56" rx="1.43" ry="1.43"/>
      <path class="cls-11" d="M599.83,550.43c-11.38,1.21-22.77,1.21-34.15,0-1.77,0-3.21-.95-3.21-2.13v-22.67c0-1.18,1.44-2.13,3.21-2.13h34.15c1.77,0,3.21.95,3.21,2.13v22.67c0,1.18-1.44,2.13-3.21,2.13Z"/>
      <rect class="cls-9" x="36.37" y="578.86" width="58.39" height="36.56" rx="1.58" ry="1.58"/>
      <path class="cls-11" d="M87.8,607.62c-14.82,1.21-29.64,1.21-44.46,0-2.31,0-4.18-.95-4.18-2.13v-22.67c0-1.18,1.87-2.13,4.18-2.13h44.46c2.31,0,4.18.95,4.18,2.13v22.67c0,1.18-1.87,2.13-4.18,2.13Z"/>
      <rect class="cls-9" x="36.37" y="693.19" width="68.94" height="36.56" rx="1.72" ry="1.72"/>
      <rect class="cls-9" x="36.37" y="616.71" width="78.24" height="36.56" rx="1.83" ry="1.83"/>
      <path class="cls-11" d="M108.72,645.31c-22.15,3.04-44.3,3.04-66.46,0-.81,0-1.47-.66-1.47-1.47v-23.6c0-.81.66-1.47,1.47-1.47h66.46c.81,0,1.47.66,1.47,1.47v23.6c0,.81-.66,1.47-1.47,1.47Z"/>
      <rect class="cls-9" x="539.65" y="692.33" width="105.71" height="36.56" rx="2.13" ry="2.13"/>
      <path class="cls-11" d="M639.17,720.94c-31.11,3.04-62.21,3.04-93.32,0-1.14,0-2.07-.66-2.07-1.47v-23.6c0-.81.93-1.47,2.07-1.47h93.32c1.14,0,2.07.66,2.07,1.47v23.6c0,.81-.93,1.47-2.07,1.47Z"/>
      <path class="cls-11" d="M97.48,721.95c-17.76,1.21-35.52,1.21-53.28,0-2.77,0-5.01-.95-5.01-2.13v-22.67c0-1.18,2.24-2.13,5.01-2.13h53.28c2.77,0,5.01.95,5.01,2.13v22.67c0,1.18-2.24,2.13-5.01,2.13Z"/>
      <rect class="cls-9" x="71.7" y="731.19" width="47.28" height="36.56" rx="1.43" ry="1.43"/>
      <path class="cls-11" d="M112.41,759.94c-11.38,1.21-22.77,1.21-34.15,0-1.77,0-3.21-.95-3.21-2.13v-22.67c0-1.18,1.44-2.13,3.21-2.13h34.15c1.77,0,3.21.95,3.21,2.13v22.67c0,1.18-1.44,2.13-3.21,2.13Z"/>
      <rect class="cls-9" x="666.81" y="578.86" width="57.63" height="36.56" rx="1.57" ry="1.57"/>
      <path class="cls-11" d="M716.19,607.62c-13.71,1.21-27.42,1.21-41.13,0-2.14,0-3.87-.95-3.87-2.13v-22.67c0-1.18,1.73-2.13,3.87-2.13h41.13c2.14,0,3.87.95,3.87,2.13v22.67c0,1.18-1.73,2.13-3.87,2.13Z"/>
      <rect class="cls-9" x="727.14" y="578.86" width="57.63" height="36.56" rx="1.57" ry="1.57"/>
      <path class="cls-11" d="M776.52,607.62c-13.71,1.21-27.42,1.21-41.13,0-2.14,0-3.87-.95-3.87-2.13v-22.67c0-1.18,1.73-2.13,3.87-2.13h41.13c2.14,0,3.87.95,3.87,2.13v22.67c0,1.18-1.73,2.13-3.87,2.13Z"/>
      <g>
        <rect class="cls-3" x="529.47" y="578.86" width="36.56" height="36.56" rx="1.25" ry="1.25"/>
        <path class="cls-1" d="M559.09,607.62c-7.56,1.21-15.11,1.21-22.67,0-1.18,0-2.13-.95-2.13-2.13v-22.67c0-1.18.95-2.13,2.13-2.13h22.67c1.18,0,2.13.95,2.13,2.13v22.67c0,1.18-.95,2.13-2.13,2.13Z"/>
      </g>
      <g>
        <rect class="cls-3" x="411.75" y="578.86" width="36.56" height="36.56" rx="1.25" ry="1.25"/>
        <path class="cls-1" d="M441.36,607.62c-7.56,1.21-15.11,1.21-22.67,0-1.18,0-2.13-.95-2.13-2.13v-22.67c0-1.18.95-2.13,2.13-2.13h22.67c1.18,0,2.13.95,2.13,2.13v22.67c0,1.18-.95,2.13-2.13,2.13Z"/>
      </g>
      <g>
        <rect class="cls-3" x="372.41" y="578.86" width="36.56" height="36.56" rx="1.25" ry="1.25"/>
        <path class="cls-1" d="M402.03,607.62c-7.56,1.21-15.11,1.21-22.67,0-1.18,0-2.13-.95-2.13-2.13v-22.67c0-1.18.95-2.13,2.13-2.13h22.67c1.18,0,2.13.95,2.13,2.13v22.67c0,1.18-.95,2.13-2.13,2.13Z"/>
      </g>
      <g>
        <rect class="cls-3" x="333.07" y="578.86" width="36.56" height="36.56" rx="1.25" ry="1.25"/>
        <path class="cls-1" d="M362.69,607.62c-7.56,1.21-15.11,1.21-22.67,0-1.18,0-2.13-.95-2.13-2.13v-22.67c0-1.18.95-2.13,2.13-2.13h22.67c1.18,0,2.13.95,2.13,2.13v22.67c0,1.18-.95,2.13-2.13,2.13Z"/>
      </g>
      <g>
        <rect class="cls-3" x="293.74" y="578.86" width="36.56" height="36.56" rx="1.25" ry="1.25"/>
        <path class="cls-1" d="M323.35,607.62c-7.56,1.21-15.11,1.21-22.67,0-1.18,0-2.13-.95-2.13-2.13v-22.67c0-1.18.95-2.13,2.13-2.13h22.67c1.18,0,2.13.95,2.13,2.13v22.67c0,1.18-.95,2.13-2.13,2.13Z"/>
      </g>
      <g>
        <rect class="cls-3" x="254.4" y="578.86" width="36.56" height="36.56" rx="1.25" ry="1.25"/>
        <path class="cls-1" d="M284.02,607.62c-7.56,1.21-15.11,1.21-22.67,0-1.18,0-2.13-.95-2.13-2.13v-22.67c0-1.18.95-2.13,2.13-2.13h22.67c1.18,0,2.13.95,2.13,2.13v22.67c0,1.18-.95,2.13-2.13,2.13Z"/>
      </g>
      <g>
        <rect class="cls-3" x="215.06" y="578.86" width="36.56" height="36.56" rx="1.25" ry="1.25"/>
        <path class="cls-1" d="M244.68,607.62c-7.56,1.21-15.11,1.21-22.67,0-1.18,0-2.13-.95-2.13-2.13v-22.67c0-1.18.95-2.13,2.13-2.13h22.67c1.18,0,2.13.95,2.13,2.13v22.67c0,1.18-.95,2.13-2.13,2.13Z"/>
      </g>
      <g>
        <rect class="cls-3" x="175.73" y="578.86" width="36.56" height="36.56" rx="1.25" ry="1.25"/>
        <path class="cls-1" d="M205.34,607.62c-7.56,1.21-15.11,1.21-22.67,0-1.18,0-2.13-.95-2.13-2.13v-22.67c0-1.18.95-2.13,2.13-2.13h22.67c1.18,0,2.13.95,2.13,2.13v22.67c0,1.18-.95,2.13-2.13,2.13Z"/>
      </g>
      <g>
        <rect class="cls-3" x="136.39" y="578.86" width="36.56" height="36.56" rx="1.25" ry="1.25"/>
        <path class="cls-1" d="M166.01,607.62c-7.56,1.21-15.11,1.21-22.67,0-1.18,0-2.13-.95-2.13-2.13v-22.67c0-1.18.95-2.13,2.13-2.13h22.67c1.18,0,2.13.95,2.13,2.13v22.67c0,1.18-.95,2.13-2.13,2.13Z"/>
      </g>
      <g>
        <rect class="cls-3" x="97.05" y="578.86" width="36.56" height="36.56" rx="1.25" ry="1.25"/>
        <path class="cls-1" d="M126.67,607.62c-7.56,1.21-15.11,1.21-22.67,0-1.18,0-2.13-.95-2.13-2.13v-22.67c0-1.18.95-2.13,2.13-2.13h22.67c1.18,0,2.13.95,2.13,2.13v22.67c0,1.18-.95,2.13-2.13,2.13Z"/>
      </g>
      <g>
        <rect class="cls-3" x="748.2" y="693.19" width="36.56" height="36.56" rx="1.25" ry="1.25"/>
        <path class="cls-1" d="M777.81,721.95c-7.56,1.21-15.11,1.21-22.67,0-1.18,0-2.13-.95-2.13-2.13v-22.67c0-1.18.95-2.13,2.13-2.13h22.67c1.18,0,2.13.95,2.13,2.13v22.67c0,1.18-.95,2.13-2.13,2.13Z"/>
      </g>
      <g>
        <rect class="cls-3" x="708.86" y="693.19" width="36.56" height="36.56" rx="1.25" ry="1.25"/>
        <path class="cls-1" d="M738.48,721.95c-7.56,1.21-15.11,1.21-22.67,0-1.18,0-2.13-.95-2.13-2.13v-22.67c0-1.18.95-2.13,2.13-2.13h22.67c1.18,0,2.13.95,2.13,2.13v22.67c0,1.18-.95,2.13-2.13,2.13Z"/>
      </g>
      <g>
        <rect class="cls-3" x="708.86" y="654.55" width="36.56" height="36.56" rx="1.25" ry="1.25"/>
        <path class="cls-1" d="M738.48,683.3c-7.56,1.21-15.11,1.21-22.67,0-1.18,0-2.13-.95-2.13-2.13v-22.67c0-1.18.95-2.13,2.13-2.13h22.67c1.18,0,2.13.95,2.13,2.13v22.67c0,1.18-.95,2.13-2.13,2.13Z"/>
      </g>
      <g>
        <rect class="cls-3" x="669.52" y="693.19" width="36.56" height="36.56" rx="1.25" ry="1.25"/>
        <path class="cls-1" d="M699.14,721.95c-7.56,1.21-15.11,1.21-22.67,0-1.18,0-2.13-.95-2.13-2.13v-22.67c0-1.18.95-2.13,2.13-2.13h22.67c1.18,0,2.13.95,2.13,2.13v22.67c0,1.18-.95,2.13-2.13,2.13Z"/>
      </g>
      <g>
        <rect class="cls-3" x="510.7" y="616.71" width="36.56" height="36.56" rx="1.25" ry="1.25"/>
        <path class="cls-1" d="M540.32,645.46c-7.56,1.21-15.11,1.21-22.67,0-1.18,0-2.13-.95-2.13-2.13v-22.67c0-1.18.95-2.13,2.13-2.13h22.67c1.18,0,2.13.95,2.13,2.13v22.67c0,1.18-.95,2.13-2.13,2.13Z"/>
      </g>
      <g>
        <rect class="cls-3" x="471.36" y="616.71" width="36.56" height="36.56" rx="1.25" ry="1.25"/>
        <path class="cls-1" d="M500.98,645.46c-7.56,1.21-15.11,1.21-22.67,0-1.18,0-2.13-.95-2.13-2.13v-22.67c0-1.18.95-2.13,2.13-2.13h22.67c1.18,0,2.13.95,2.13,2.13v22.67c0,1.18-.95,2.13-2.13,2.13Z"/>
      </g>
      <g>
        <rect class="cls-3" x="549.75" y="616.71" width="36.56" height="36.56" rx="1.25" ry="1.25"/>
        <path class="cls-1" d="M579.37,645.46c-7.56,1.21-15.11,1.21-22.67,0-1.18,0-2.13-.95-2.13-2.13v-22.67c0-1.18.95-2.13,2.13-2.13h22.67c1.18,0,2.13.95,2.13,2.13v22.67c0,1.18-.95,2.13-2.13,2.13Z"/>
      </g>
      <g>
        <rect class="cls-3" x="432.03" y="616.71" width="36.56" height="36.56" rx="1.25" ry="1.25"/>
        <path class="cls-1" d="M461.64,645.46c-7.56,1.21-15.11,1.21-22.67,0-1.18,0-2.13-.95-2.13-2.13v-22.67c0-1.18.95-2.13,2.13-2.13h22.67c1.18,0,2.13.95,2.13,2.13v22.67c0,1.18-.95,2.13-2.13,2.13Z"/>
      </g>
      <g>
        <rect class="cls-3" x="392.69" y="616.71" width="36.56" height="36.56" rx="1.25" ry="1.25"/>
        <path class="cls-1" d="M422.31,645.46c-7.56,1.21-15.11,1.21-22.67,0-1.18,0-2.13-.95-2.13-2.13v-22.67c0-1.18.95-2.13,2.13-2.13h22.67c1.18,0,2.13.95,2.13,2.13v22.67c0,1.18-.95,2.13-2.13,2.13Z"/>
      </g>
      <g>
        <rect class="cls-3" x="353.35" y="616.71" width="36.56" height="36.56" rx="1.25" ry="1.25"/>
        <path class="cls-1" d="M382.97,645.46c-7.56,1.21-15.11,1.21-22.67,0-1.18,0-2.13-.95-2.13-2.13v-22.67c0-1.18.95-2.13,2.13-2.13h22.67c1.18,0,2.13.95,2.13,2.13v22.67c0,1.18-.95,2.13-2.13,2.13Z"/>
      </g>
      <g>
        <rect class="cls-3" x="314.02" y="616.71" width="36.56" height="36.56" rx="1.25" ry="1.25"/>
        <path class="cls-1" d="M343.63,645.46c-7.56,1.21-15.11,1.21-22.67,0-1.18,0-2.13-.95-2.13-2.13v-22.67c0-1.18.95-2.13,2.13-2.13h22.67c1.18,0,2.13.95,2.13,2.13v22.67c0,1.18-.95,2.13-2.13,2.13Z"/>
      </g>
      <g>
        <rect class="cls-3" x="274.68" y="616.71" width="36.56" height="36.56" rx="1.25" ry="1.25"/>
        <path class="cls-1" d="M304.3,645.46c-7.56,1.21-15.11,1.21-22.67,0-1.18,0-2.13-.95-2.13-2.13v-22.67c0-1.18.95-2.13,2.13-2.13h22.67c1.18,0,2.13.95,2.13,2.13v22.67c0,1.18-.95,2.13-2.13,2.13Z"/>
      </g>
      <g>
        <rect class="cls-3" x="235.34" y="616.71" width="36.56" height="36.56" rx="1.25" ry="1.25"/>
        <path class="cls-1" d="M264.96,645.46c-7.56,1.21-15.11,1.21-22.67,0-1.18,0-2.13-.95-2.13-2.13v-22.67c0-1.18.95-2.13,2.13-2.13h22.67c1.18,0,2.13.95,2.13,2.13v22.67c0,1.18-.95,2.13-2.13,2.13Z"/>
      </g>
      <g>
        <rect class="cls-3" x="196.01" y="616.71" width="36.56" height="36.56" rx="1.25" ry="1.25"/>
        <path class="cls-1" d="M225.62,645.46c-7.56,1.21-15.11,1.21-22.67,0-1.18,0-2.13-.95-2.13-2.13v-22.67c0-1.18.95-2.13,2.13-2.13h22.67c1.18,0,2.13.95,2.13,2.13v22.67c0,1.18-.95,2.13-2.13,2.13Z"/>
      </g>
      <g>
        <rect class="cls-3" x="156.67" y="616.71" width="36.56" height="36.56" rx="1.25" ry="1.25"/>
        <path class="cls-1" d="M186.29,645.46c-7.56,1.21-15.11,1.21-22.67,0-1.18,0-2.13-.95-2.13-2.13v-22.67c0-1.18.95-2.13,2.13-2.13h22.67c1.18,0,2.13.95,2.13,2.13v22.67c0,1.18-.95,2.13-2.13,2.13Z"/>
      </g>
      <g>
        <rect class="cls-3" x="117.33" y="616.71" width="36.56" height="36.56" rx="1.25" ry="1.25"/>
        <path class="cls-1" d="M146.95,645.46c-7.56,1.21-15.11,1.21-22.67,0-1.18,0-2.13-.95-2.13-2.13v-22.67c0-1.18.95-2.13,2.13-2.13h22.67c1.18,0,2.13.95,2.13,2.13v22.67c0,1.18-.95,2.13-2.13,2.13Z"/>
      </g>
      <g>
        <rect class="cls-3" x="520.36" y="654.55" width="36.56" height="36.56" rx="1.25" ry="1.25"/>
        <path class="cls-1" d="M549.97,683.3c-7.56,1.21-15.11,1.21-22.67,0-1.18,0-2.13-.95-2.13-2.13v-22.67c0-1.18.95-2.13,2.13-2.13h22.67c1.18,0,2.13.95,2.13,2.13v22.67c0,1.18-.95,2.13-2.13,2.13Z"/>
      </g>
      <g>
        <rect class="cls-3" x="481.02" y="654.55" width="36.56" height="36.56" rx="1.25" ry="1.25"/>
        <path class="cls-1" d="M510.64,683.3c-7.56,1.21-15.11,1.21-22.67,0-1.18,0-2.13-.95-2.13-2.13v-22.67c0-1.18.95-2.13,2.13-2.13h22.67c1.18,0,2.13.95,2.13,2.13v22.67c0,1.18-.95,2.13-2.13,2.13Z"/>
      </g>
      <g>
        <rect class="cls-3" x="559.41" y="654.55" width="36.56" height="36.56" rx="1.25" ry="1.25"/>
        <path class="cls-1" d="M589.02,683.3c-7.56,1.21-15.11,1.21-22.67,0-1.18,0-2.13-.95-2.13-2.13v-22.67c0-1.18.95-2.13,2.13-2.13h22.67c1.18,0,2.13.95,2.13,2.13v22.67c0,1.18-.95,2.13-2.13,2.13Z"/>
      </g>
      <g>
        <rect class="cls-3" x="441.68" y="654.55" width="36.56" height="36.56" rx="1.25" ry="1.25"/>
        <path class="cls-1" d="M471.3,683.3c-7.56,1.21-15.11,1.21-22.67,0-1.18,0-2.13-.95-2.13-2.13v-22.67c0-1.18.95-2.13,2.13-2.13h22.67c1.18,0,2.13.95,2.13,2.13v22.67c0,1.18-.95,2.13-2.13,2.13Z"/>
      </g>
      <g>
        <rect class="cls-3" x="402.35" y="654.55" width="36.56" height="36.56" rx="1.25" ry="1.25"/>
        <path class="cls-1" d="M431.96,683.3c-7.56,1.21-15.11,1.21-22.67,0-1.18,0-2.13-.95-2.13-2.13v-22.67c0-1.18.95-2.13,2.13-2.13h22.67c1.18,0,2.13.95,2.13,2.13v22.67c0,1.18-.95,2.13-2.13,2.13Z"/>
      </g>
      <g>
        <rect class="cls-3" x="363.01" y="654.55" width="36.56" height="36.56" rx="1.25" ry="1.25"/>
        <path class="cls-1" d="M392.63,683.3c-7.56,1.21-15.11,1.21-22.67,0-1.18,0-2.13-.95-2.13-2.13v-22.67c0-1.18.95-2.13,2.13-2.13h22.67c1.18,0,2.13.95,2.13,2.13v22.67c0,1.18-.95,2.13-2.13,2.13Z"/>
      </g>
      <g>
        <rect class="cls-3" x="323.67" y="654.55" width="36.56" height="36.56" rx="1.25" ry="1.25"/>
        <path class="cls-1" d="M353.29,683.3c-7.56,1.21-15.11,1.21-22.67,0-1.18,0-2.13-.95-2.13-2.13v-22.67c0-1.18.95-2.13,2.13-2.13h22.67c1.18,0,2.13.95,2.13,2.13v22.67c0,1.18-.95,2.13-2.13,2.13Z"/>
      </g>
      <g>
        <rect class="cls-3" x="284.34" y="654.55" width="36.56" height="36.56" rx="1.25" ry="1.25"/>
        <path class="cls-1" d="M313.95,683.3c-7.56,1.21-15.11,1.21-22.67,0-1.18,0-2.13-.95-2.13-2.13v-22.67c0-1.18.95-2.13,2.13-2.13h22.67c1.18,0,2.13.95,2.13,2.13v22.67c0,1.18-.95,2.13-2.13,2.13Z"/>
      </g>
      <g>
        <rect class="cls-3" x="245" y="654.55" width="36.56" height="36.56" rx="1.25" ry="1.25"/>
        <path class="cls-1" d="M274.62,683.3c-7.56,1.21-15.11,1.21-22.67,0-1.18,0-2.13-.95-2.13-2.13v-22.67c0-1.18.95-2.13,2.13-2.13h22.67c1.18,0,2.13.95,2.13,2.13v22.67c0,1.18-.95,2.13-2.13,2.13Z"/>
      </g>
      <g>
        <rect class="cls-3" x="205.66" y="654.55" width="36.56" height="36.56" rx="1.25" ry="1.25"/>
        <path class="cls-1" d="M235.28,683.3c-7.56,1.21-15.11,1.21-22.67,0-1.18,0-2.13-.95-2.13-2.13v-22.67c0-1.18.95-2.13,2.13-2.13h22.67c1.18,0,2.13.95,2.13,2.13v22.67c0,1.18-.95,2.13-2.13,2.13Z"/>
      </g>
      <g>
        <rect class="cls-3" x="166.33" y="654.55" width="36.56" height="36.56" rx="1.25" ry="1.25"/>
        <path class="cls-1" d="M195.94,683.3c-7.56,1.21-15.11,1.21-22.67,0-1.18,0-2.13-.95-2.13-2.13v-22.67c0-1.18.95-2.13,2.13-2.13h22.67c1.18,0,2.13.95,2.13,2.13v22.67c0,1.18-.95,2.13-2.13,2.13Z"/>
      </g>
      <g>
        <rect class="cls-3" x="126.99" y="654.55" width="36.56" height="36.56" rx="1.25" ry="1.25"/>
        <path class="cls-1" d="M156.6,683.3c-7.56,1.21-15.11,1.21-22.67,0-1.18,0-2.13-.95-2.13-2.13v-22.67c0-1.18.95-2.13,2.13-2.13h22.67c1.18,0,2.13.95,2.13,2.13v22.67c0,1.18-.95,2.13-2.13,2.13Z"/>
      </g>
      <g>
        <rect class="cls-3" x="461.5" y="693.19" width="36.56" height="36.56" rx="1.25" ry="1.25"/>
        <path class="cls-1" d="M491.11,721.95c-7.56,1.21-15.11,1.21-22.67,0-1.18,0-2.13-.95-2.13-2.13v-22.67c0-1.18.95-2.13,2.13-2.13h22.67c1.18,0,2.13.95,2.13,2.13v22.67c0,1.18-.95,2.13-2.13,2.13Z"/>
      </g>
      <g>
        <rect class="cls-3" x="422.16" y="693.19" width="36.56" height="36.56" rx="1.25" ry="1.25"/>
        <path class="cls-1" d="M451.77,721.95c-7.56,1.21-15.11,1.21-22.67,0-1.18,0-2.13-.95-2.13-2.13v-22.67c0-1.18.95-2.13,2.13-2.13h22.67c1.18,0,2.13.95,2.13,2.13v22.67c0,1.18-.95,2.13-2.13,2.13Z"/>
      </g>
      <g>
        <rect class="cls-3" x="500.55" y="693.19" width="36.56" height="36.56" rx="1.25" ry="1.25"/>
        <path class="cls-1" d="M530.16,721.95c-7.56,1.21-15.11,1.21-22.67,0-1.18,0-2.13-.95-2.13-2.13v-22.67c0-1.18.95-2.13,2.13-2.13h22.67c1.18,0,2.13.95,2.13,2.13v22.67c0,1.18-.95,2.13-2.13,2.13Z"/>
      </g>
      <g>
        <rect class="cls-3" x="382.82" y="693.19" width="36.56" height="36.56" rx="1.25" ry="1.25"/>
        <path class="cls-1" d="M412.44,721.95c-7.56,1.21-15.11,1.21-22.67,0-1.18,0-2.13-.95-2.13-2.13v-22.67c0-1.18.95-2.13,2.13-2.13h22.67c1.18,0,2.13.95,2.13,2.13v22.67c0,1.18-.95,2.13-2.13,2.13Z"/>
      </g>
      <g>
        <rect class="cls-3" x="343.49" y="693.19" width="36.56" height="36.56" rx="1.25" ry="1.25"/>
        <path class="cls-1" d="M373.1,721.95c-7.56,1.21-15.11,1.21-22.67,0-1.18,0-2.13-.95-2.13-2.13v-22.67c0-1.18.95-2.13,2.13-2.13h22.67c1.18,0,2.13.95,2.13,2.13v22.67c0,1.18-.95,2.13-2.13,2.13Z"/>
      </g>
      <g>
        <rect class="cls-3" x="304.15" y="693.19" width="36.56" height="36.56" rx="1.25" ry="1.25"/>
        <path class="cls-1" d="M333.76,721.95c-7.56,1.21-15.11,1.21-22.67,0-1.18,0-2.13-.95-2.13-2.13v-22.67c0-1.18.95-2.13,2.13-2.13h22.67c1.18,0,2.13.95,2.13,2.13v22.67c0,1.18-.95,2.13-2.13,2.13Z"/>
      </g>
      <g>
        <rect class="cls-3" x="264.81" y="693.19" width="36.56" height="36.56" rx="1.25" ry="1.25"/>
        <path class="cls-1" d="M294.43,721.95c-7.56,1.21-15.11,1.21-22.67,0-1.18,0-2.13-.95-2.13-2.13v-22.67c0-1.18.95-2.13,2.13-2.13h22.67c1.18,0,2.13.95,2.13,2.13v22.67c0,1.18-.95,2.13-2.13,2.13Z"/>
      </g>
      <g>
        <rect class="cls-3" x="225.48" y="693.19" width="36.56" height="36.56" rx="1.25" ry="1.25"/>
        <path class="cls-1" d="M255.09,721.95c-7.56,1.21-15.11,1.21-22.67,0-1.18,0-2.13-.95-2.13-2.13v-22.67c0-1.18.95-2.13,2.13-2.13h22.67c1.18,0,2.13.95,2.13,2.13v22.67c0,1.18-.95,2.13-2.13,2.13Z"/>
      </g>
      <g>
        <rect class="cls-3" x="186.14" y="693.19" width="36.56" height="36.56" rx="1.25" ry="1.25"/>
        <path class="cls-1" d="M215.75,721.95c-7.56,1.21-15.11,1.21-22.67,0-1.18,0-2.13-.95-2.13-2.13v-22.67c0-1.18.95-2.13,2.13-2.13h22.67c1.18,0,2.13.95,2.13,2.13v22.67c0,1.18-.95,2.13-2.13,2.13Z"/>
      </g>
      <g>
        <rect class="cls-3" x="146.8" y="693.19" width="36.56" height="36.56" rx="1.25" ry="1.25"/>
        <path class="cls-1" d="M176.42,721.95c-7.56,1.21-15.11,1.21-22.67,0-1.18,0-2.13-.95-2.13-2.13v-22.67c0-1.18.95-2.13,2.13-2.13h22.67c1.18,0,2.13.95,2.13,2.13v22.67c0,1.18-.95,2.13-2.13,2.13Z"/>
      </g>
      <g>
        <rect class="cls-3" x="107.46" y="693.19" width="36.56" height="36.56" rx="1.25" ry="1.25"/>
        <path class="cls-1" d="M137.08,721.95c-7.56,1.21-15.11,1.21-22.67,0-1.18,0-2.13-.95-2.13-2.13v-22.67c0-1.18.95-2.13,2.13-2.13h22.67c1.18,0,2.13.95,2.13,2.13v22.67c0,1.18-.95,2.13-2.13,2.13Z"/>
      </g>
      <rect class="cls-3" x="170.62" y="731.88" width="347.58" height="35.87" rx="1.74" ry="1.74"/>
      <path class="cls-1" d="M509.48,763.15c-111.43,1.1-221.98,1.09-331.67,0-1.47,0-2.66-.91-2.66-2.04v-24.14c0-1.13,1.19-2.04,2.66-2.04h331.67c1.47,0,2.66.91,2.66,2.04v24.14c0,1.13-1.19,2.04-2.66,2.04Z"/>
    </g>
  </g>
  <rect class="cls-2" x="901.63" y="536.4" width="34.66" height="4.44"/>
  <rect class="cls-2" x="901.63" y="519.7" width="34.66" height="4.44"/>
  <rect class="cls-15" x="901.63" y="553.11" width="34.66" height="4.44"/>
  <rect class="cls-14" x="39.19" y="477.71" width="101.68" height="26.29" rx="1.48" ry="1.48"/>
  <rect class="cls-7" x="67.68" y="490.13" width="69.07" height=".57"/>
  <g>
    <path class="cls-13" d="M650.4,559.91l-.19-.25.19-1.44.28-.22c1.44-.11,2.27-.19,2.49-.24.21-.05.43-.15.65-.32.22-.17.44-.41.67-.73.22-.32.93-1.52,2.14-3.58l3.25-5.51,7.86-13.47,4.8-8.05c1.41-2.32,2.44-4.14,3.11-5.45h5.42l1.14,8.25,1.3,9.13,1.08,7.47.86,5.59.56,3.35c.2,1.51.52,2.48.94,2.91.43.42,1.75.65,3.97.66l.19.25-.17,1.41-.28.25c-4.18-.15-6.98-.22-8.39-.22-1.22,0-3.92.07-8.11.22l-.22-.25.22-1.41.28-.25c1.79,0,2.94-.14,3.44-.42s.75-.72.75-1.33c0-1.29-.44-5.17-1.33-11.65-1.68-.02-2.79-.03-3.3-.03l-4.25.03h-5c-1.09,1.88-2.25,4-3.47,6.35s-1.95,3.85-2.18,4.48c-.23.64-.35,1.07-.35,1.29,0,.33.19.61.58.84s1.76.37,4.11.43l.19.25-.19,1.44-.28.22s-.69-.04-2.03-.11c-1.78-.07-3.13-.11-4.05-.11-.54,0-2.77.07-6.69.22ZM666.09,542.09c.89.02,1.43.03,1.61.03,5.76,0,8.86,0,9.3-.03l-2.17-14.97-8.75,14.97Z"/>
    <path class="cls-13" d="M736.21,520.65c2.72.18,4.29.28,4.72.28l7.86-.28.22.22-.17,1.47-.33.25c-.19.02-.64.07-1.38.14-.73.07-1.29.17-1.68.28-.39.11-.7.31-.94.59-.24.29-.45.72-.62,1.3s-.41,1.66-.71,3.22l-3.89,22.27c-.54,3.3-.81,5.25-.81,5.84,0,.54.16.91.47,1.13.32.22.94.37,1.86.44l2.61.25.19.22-.25,1.41-.28.17c-2.91-.11-5.75-.17-8.53-.17-2.63,0-5.4.06-8.3.17l-.22-.22.17-1.36.22-.17c2.04-.29,3.26-.5,3.67-.62s.75-.66,1.04-1.62c.29-.96.73-3.2,1.32-6.72l2.11-12.28,1.58-10.26c-7.79,12.43-13.67,22.18-17.63,29.24l-2.72,4.87h-1.53l-3.55-14.55-4.47-17.57-4.22,16.93c-1.5,6.16-2.25,9.68-2.25,10.57,0,.68.16,1.15.49,1.4.32.25,1.65.44,3.99.57l.25.22-.19,1.36-.22.22c-1.93-.11-3.93-.17-6.03-.17s-4.08.06-5.92.17l-.22-.22.11-1.36.28-.22c1.79-.2,2.85-.48,3.15-.83s.85-1.84,1.62-4.47c.78-2.63,1.75-6.12,2.92-10.47l3.22-12.12c.76-2.91,1.14-4.71,1.14-5.4,0-1.01-.5-1.6-1.51-1.77-1.01-.17-2.26-.29-3.76-.36l-.17-.3.17-1.41.22-.22c2.85.11,5.02.17,6.5.17,1.67,0,3.58-.06,5.75-.17l3,12.39,4.22,16.68c1.55-2.51,2.5-4.04,2.83-4.59l10.8-18.04,3.8-6.5Z"/>
    <path class="cls-13" d="M747.06,559.88l-.19-.22.17-1.38.25-.25c.17-.02.59-.05,1.28-.08,1.56-.05,2.49-.18,2.79-.39s.58-.6.82-1.19c.24-.59.73-3.02,1.47-7.28l2.58-14.72c.96-5.55,1.44-8.93,1.44-10.13,0-.33-.06-.6-.18-.8-.12-.2-.32-.36-.6-.47-.28-.11-.85-.19-1.72-.25l-2.55-.14-.19-.22.22-1.49.25-.25c2.52.13,5.44.19,8.78.19,1.37,0,4.37-.06,9-.19l.17.22-.25,1.52-.25.22c-2.11.07-3.3.15-3.55.22-.3.09-.54.22-.74.39s-.37.42-.51.77c-.24.59-.65,2.39-1.22,5.39l-3.64,21c-.5,3.15-.75,5.11-.75,5.87,0,.59.19,1.01.58,1.25s.97.38,1.75.42l2.89.14.19.22-.17,1.38-.25.25c-2.15-.13-5.19-.19-9.14-.19-3.04,0-5.94.06-8.72.19Z"/>
    <path class="cls-13" d="M806.02,557.11l-.19.19c-.93.18-2.42.63-4.47,1.33-2.87.98-5.17,1.59-6.89,1.85-1.72.26-3.33.39-4.83.39-5.13,0-9.15-1.3-12.07-3.91-2.92-2.61-4.37-6.42-4.37-11.44,0-2.75.4-5.44,1.21-8.08s1.92-4.92,3.35-6.83c1.42-1.92,3.49-3.8,6.18-5.66,2.69-1.85,5.18-3.14,7.47-3.87,2.29-.73,4.67-1.09,7.15-1.09,2.15,0,4.31.25,6.5.75s3.83,1.12,4.94,1.85l.22.39-1.28,4.68c-.33,1.18-.63,2.63-.89,4.34l-.25.22h-1.58l-.19-.22c.15-2.01.22-3.77.22-5.28-2.54-2.08-5.78-3.13-9.72-3.13-2.48,0-4.67.4-6.58,1.19-1.91.79-3.52,2.19-4.83,4.19-1.32,2-2.35,4.5-3.11,7.5-.76,3-1.14,5.94-1.14,8.84,0,4.13.93,7.29,2.8,9.49,1.87,2.2,4.55,3.29,8.05,3.29,2.54,0,4.76-.54,6.67-1.63l1.06-4.29c.2-.79.4-1.8.6-3.02.19-1.22.29-1.97.29-2.27s-.08-.55-.25-.76-.36-.35-.58-.4c-.22-.06-.88-.11-1.96-.17s-2.03-.09-2.85-.11l-.19-.22.28-1.49.25-.25c3.55.13,6.14.19,7.75.19.78,0,3.63-.06,8.55-.19l.19.25-.22,1.49-.28.22c-1,.02-1.73.11-2.18.28-.45.17-.8.45-1.03.84-.23.4-.5,1.34-.79,2.84l-.53,2.41c-.3,1.44-.48,2.37-.54,2.79-.06.42-.1.88-.1,1.36,0,.37.06.76.17,1.16Z"/>
    <path class="cls-13" d="M811.52,559.91l-.19-.25.19-1.44.28-.22c1.44-.11,2.27-.19,2.49-.24.21-.05.43-.15.65-.32.22-.17.44-.41.67-.73.22-.32.93-1.52,2.14-3.58l3.25-5.51,7.86-13.47,4.8-8.05c1.41-2.32,2.44-4.14,3.11-5.45h5.42l1.14,8.25,1.3,9.13,1.08,7.47.86,5.59.56,3.35c.2,1.51.52,2.48.94,2.91.43.42,1.75.65,3.97.66l.19.25-.17,1.41-.28.25c-4.18-.15-6.98-.22-8.39-.22-1.22,0-3.92.07-8.11.22l-.22-.25.22-1.41.28-.25c1.79,0,2.94-.14,3.44-.42s.75-.72.75-1.33c0-1.29-.44-5.17-1.33-11.65-1.68-.02-2.79-.03-3.3-.03l-4.25.03h-5c-1.09,1.88-2.25,4-3.47,6.35s-1.95,3.85-2.18,4.48c-.23.64-.35,1.07-.35,1.29,0,.33.19.61.58.84s1.76.37,4.11.43l.19.25-.19,1.44-.28.22s-.69-.04-2.03-.11c-1.78-.07-3.13-.11-4.05-.11-.54,0-2.77.07-6.69.22ZM827.21,542.09c.89.02,1.43.03,1.61.03,5.76,0,8.86,0,9.3-.03l-2.17-14.97-8.75,14.97Z"/>
  </g>
  <g>
    <path class="cls-7" d="M91.85,498.5h-3.42l-.9,2.53h-.48l3-8.32h.94l2.88,8.32h-1.14l-.87-2.53ZM88.58,498.07h3.13l-1.53-4.48-1.59,4.48Z"/>
    <path class="cls-7" d="M93.89,493.69l2.09-1.08h.27v8.43h-1.03v-7.48l-1.25.38-.08-.25Z"/>
    <path class="cls-7" d="M102.8,494.81c0,1.45-1.3,2.82-2.75,4.22l-1.27,1.22h3.09c.29,0,.81,0,1.11-.12l-.15.89h-4.98v-.29l1.46-1.58c1.31-1.44,2.39-2.94,2.39-4.27,0-1.09-.57-1.71-1.54-1.71-.88,0-1.6.5-2.04,1.22l-.24-.13c.44-.84,1.21-1.68,2.54-1.68,1.46,0,2.39.88,2.39,2.21Z"/>
    <path class="cls-7" d="M106.99,501.15c-1.89,0-2.81-2-2.81-4.33s.92-4.22,2.81-4.22,2.81,1.89,2.81,4.22-.92,4.33-2.81,4.33ZM106.99,500.79c1.16,0,1.68-1.97,1.68-3.97s-.5-3.86-1.68-3.86-1.66,1.93-1.66,3.85.51,3.98,1.66,3.98Z"/>
    <path class="cls-7" d="M113.89,501.15c-1.89,0-2.81-2-2.81-4.33s.92-4.22,2.81-4.22,2.81,1.89,2.81,4.22-.92,4.33-2.81,4.33ZM113.89,500.79c1.16,0,1.68-1.97,1.68-3.97s-.5-3.86-1.68-3.86-1.66,1.93-1.66,3.85.51,3.98,1.66,3.98Z"/>
  </g>
  <path class="cls-8" d="M56.23,495.94c-.83.49-1.83.79-2.8.79-2.99,0-5.44-2.44-5.44-5.44s2.44-5.44,5.44-5.44c.97,0,1.97.3,2.8.78v-5.84c-.89-.21-1.87-.38-2.8-.38-5.99,0-10.87,4.89-10.87,10.87s4.89,10.87,10.87,10.87c.93,0,1.91-.17,2.8-.38v-5.84h0ZM56.23,490.83h4.57l4.07-4.07h-8.65v4.07Z"/>
  <path class="cls-8" d="M64.88,495.83l-4.07-4.07h-4.57v4.07h8.65Z"/>
  <path class="cls-6" d="M81.91,484.16c-.31,0-.56.12-.75.37-.19.25-.29.57-.29.99s.09.73.29.98c.19.25.44.37.75.37s.57-.12.76-.37c.19-.25.28-.57.28-.99s-.09-.75-.28-.99c-.19-.25-.44-.37-.76-.37h0ZM129.14,486.95c.12.02.26.03.41.03.24,0,.49-.03.76-.1.28-.07.56-.17.82-.3v1.17c-.27.1-.54.17-.84.22-.28.05-.59.07-.9.07-.08,0-.17,0-.25,0-.75-.04-1.35-.27-1.79-.68-.49-.46-.73-1.1-.73-1.92,0-.74.23-1.33.68-1.77s1.06-.66,1.83-.66h.01c.77,0,1.36.23,1.77.68.42.45.63,1.09.63,1.92v.4h-3.35c.03.31.17.55.4.72.15.11.33.18.54.22h0ZM129.14,485.05h.96c-.03-.32-.13-.57-.31-.76s-.39-.28-.65-.28h0c-.27,0-.48.09-.65.28-.17.18-.28.43-.31.76h.96ZM119.13,486.88c.31,0,.57-.12.75-.37.19-.25.28-.57.28-.99s-.09-.75-.28-.99c-.19-.25-.44-.37-.75-.37s-.56.12-.75.37c-.19.25-.29.57-.29.99s.1.73.29.98c.19.25.44.37.75.37ZM119.13,483.01c.86,0,1.53.23,2.01.67.49.44.73,1.06.73,1.85s-.24,1.4-.73,1.84c-.48.45-1.15.67-2.01.67s-1.53-.22-2.01-.67c-.49-.44-.73-1.06-.73-1.84s.24-1.4.73-1.85c.48-.44,1.15-.67,2.01-.67ZM126.25,483.07l-.08,1.41c-.07-.03-.15-.05-.22-.06-.1-.01-.19-.02-.29-.02-.39,0-.68.12-.88.37s-.3.62-.3,1.11v2.03h-1.64v-4.77h1.46v.91c.16-.35.36-.61.6-.78.24-.17.52-.26.85-.26.08,0,.24.02.46.05h.03ZM112.8,486.77c.31,0,.55-.12.73-.34.18-.23.27-.54.27-.94s-.09-.7-.28-.93c-.18-.22-.42-.33-.72-.34h-.04c-.28,0-.51.12-.69.36-.18.25-.27.56-.27.94s.09.7.27.92c.18.23.42.34.72.34,0,0,0,0,0,0h0ZM112.8,483.09c.11.03.23.07.33.12.27.13.49.33.68.59v-2.84h1.64v6.96h-1.47v-.95c-.18.33-.42.59-.72.76-.14.09-.3.15-.46.2-.18.05-.36.07-.55.07-.63,0-1.14-.23-1.54-.69s-.58-1.08-.58-1.83.19-1.34.57-1.78.89-.66,1.54-.66c.19,0,.38.02.56.07h0ZM106.61,486.88c.31,0,.57-.12.76-.37.19-.25.28-.57.28-.99s-.09-.75-.28-.99c-.19-.25-.44-.37-.76-.37s-.56.12-.75.37c-.19.25-.28.57-.28.99s.09.73.28.98c.2.25.45.37.75.37ZM106.61,483.01c.86,0,1.53.23,2.02.67s.73,1.06.73,1.85-.24,1.4-.73,1.84c-.49.45-1.16.67-2.02.67s-1.53-.22-2.01-.67c-.49-.44-.73-1.06-.73-1.84s.24-1.4.73-1.85c.48-.44,1.15-.67,2.01-.67ZM81.91,488.03c-.86,0-1.53-.22-2.01-.67-.48-.44-.72-1.06-.72-1.84s.24-1.4.72-1.85c.49-.44,1.15-.67,2.01-.67s1.53.23,2.02.67c.48.44.73,1.06.73,1.85s-.25,1.4-.73,1.84c-.49.45-1.16.67-2.02.67ZM90.32,484.03c.19-.32.42-.57.71-.74.29-.17.62-.26.96-.26.56,0,.99.18,1.29.54.3.36.45.88.45,1.56v2.79h-1.61v-2.45c0-.37-.06-.64-.19-.82-.12-.17-.31-.26-.57-.26s-.48.11-.63.33c-.15.23-.23.53-.23.91v2.29h-1.63v-2.45c0-.37-.06-.64-.18-.82-.12-.17-.31-.26-.57-.26s-.47.11-.63.33c-.16.23-.24.53-.24.91v2.29h-1.62v-4.77h1.46v.86c.19-.31.42-.56.7-.72.29-.17.62-.25.95-.25.37,0,.69.09.96.26.27.17.47.42.61.74h0ZM99.58,484.03c.19-.32.42-.57.71-.74.29-.17.62-.26.96-.26.56,0,.99.18,1.28.54.3.36.45.88.45,1.56v2.79h-1.61v-2.45c0-.37-.06-.64-.19-.82-.12-.17-.31-.26-.57-.26s-.47.11-.63.33c-.15.23-.23.53-.23.91v2.29h-1.63v-2.45c0-.37-.06-.64-.18-.82-.12-.17-.31-.26-.57-.26s-.47.11-.63.33c-.16.23-.24.53-.24.91v2.29h-1.62v-4.77h1.47v.86c.18-.31.41-.56.7-.72.29-.17.6-.25.95-.25s.68.09.95.26c.27.17.47.42.61.74h0ZM78.43,481.67l-.15,1.35c-.23-.14-.49-.25-.75-.32-.26-.07-.53-.11-.8-.11-.64,0-1.15.19-1.53.57-.38.37-.57.87-.57,1.51s.2,1.14.58,1.52c.39.37.9.56,1.55.56.25,0,.51-.03.78-.09.28-.07.54-.16.8-.28l.1,1.44c-.31.08-.61.15-.92.19-.31.04-.62.06-.93.06-1.17,0-2.08-.3-2.73-.9-.65-.6-.98-1.44-.98-2.51s.32-1.84.97-2.44c.64-.6,1.52-.9,2.62-.9.37,0,.72.03,1.05.09.33.06.63.15.91.27h0Z"/>
  <g>
    <rect class="cls-5" x="37" y="362.97" width="924.88" height="5.16"/>
    <rect class="cls-5" x="37" y="436.79" width="924.88" height="5.16"/>
    <rect class="cls-5" x="37" y="424.48" width="924.88" height="5.16"/>
    <rect class="cls-5" x="37" y="412.18" width="924.88" height="5.16"/>
    <rect class="cls-5" x="37" y="399.88" width="924.88" height="5.16"/>
    <rect class="cls-5" x="37" y="387.57" width="924.88" height="5.16"/>
    <rect class="cls-5" x="37" y="375.27" width="924.88" height="5.16"/>
  </g>
</svg>