<svg xmlns="http://www.w3.org/2000/svg" id="Layer_1" data-name="Layer 1" viewBox="0 0 1000 1000"><defs><style>.cls-1{fill:#c1c1c1}.cls-5{fill:#161616}</style></defs><rect width="453.4" height="974.58" x="269.58" y="12.71" class="cls-5" rx="62.36" ry="62.36"/><path d="M707.06 81.99v791.04c0 32.06-26 58.04-58.05 58.04H343.09c-13.77 0-26.42-4.8-36.37-12.82-13.22-10.63-21.67-26.93-21.67-45.22V81.99c0-32.06 25.98-58.04 58.04-58.04h305.92c14.74 0 28.2 5.5 38.44 14.55 12.03 10.63 19.61 26.17 19.61 43.49" style="fill:#353535"/><path d="m359.27 890.27 15.95-9.39-.1 19.21z" class="cls-1"/><circle cx="493.53" cy="890.49" r="9.6" class="cls-1"/><rect width="19.21" height="19.21" x="610.22" y="880.88" class="cls-1" rx="1.22" ry="1.22"/><path d="M687.45 38.51 306.72 918.26c-13.22-10.63-21.67-26.93-21.67-45.22V81.99c0-32.06 25.98-58.04 58.04-58.04h305.92c14.74 0 28.2 5.5 38.44 14.55Z" style="fill:#494949"/><circle cx="501.31" cy="38.41" r="14.46" class="cls-5"/><path d="M486.85 38.41c-1.15-11.35-9.26-14.17-19.43-14.46h33.89v14.46z" class="cls-5"/><path d="M515.77 38.41c1.15-11.35 9.26-14.17 19.43-14.46h-33.89v14.46z" class="cls-5"/><circle cx="501.57" cy="38.88" r="7.29" style="fill:#a0a0a0"/><rect width="18.36" height="155.73" x="712.06" y="252.79" class="cls-5" rx="6.18" ry="6.18"/><rect width="18.36" height="76.33" x="712.06" y="442.68" class="cls-5" rx="4.33" ry="4.33"/></svg>