<?xml version="1.0" encoding="UTF-8"?>
<svg id="Knob" xmlns="http://www.w3.org/2000/svg" viewBox="0 0 1000 1000">
  <defs>
    <style>
      .cls-1 {
        fill: #141414;
      }

      .cls-2 {
        fill: #cc3e56;
      }

      .cls-3 {
        fill: #cecece;
      }

      .cls-4 {
        fill: #1c1c1c;
      }

      .cls-5 {
        fill: #212121;
      }

      .cls-6 {
        fill: #c9cacc;
      }

      .cls-7 {
        fill: #2b2b2b;
      }

      .cls-8 {
        fill: #ddd;
      }

      .cls-9 {
        fill: #333;
      }

      .cls-10 {
        fill: #79add1;
      }

      .cls-11 {
        fill: #3d3d3d;
      }
    </style>
  </defs>
  <path class="cls-2" d="M558.98,125.25h-117.97V13.96c0-2.96,2.98-4.4,5.76-3.4,36.99,13.37,72.53,13.15,106.44,0,2.76-1.07,5.76.44,5.76,3.4v111.29Z"/>
  <rect class="cls-4" x="255.94" y="55.59" width="488.11" height="934.19" rx="14.88" ry="14.88"/>
  <g>
    <rect class="cls-9" x="275.66" y="572.12" width="448.68" height="385.85"/>
    <path class="cls-7" d="M717.87,578.59v372.9h-435.74v-372.9h435.74M730.81,565.65h-461.62v398.79h461.62v-398.79h0Z"/>
  </g>
  <rect class="cls-9" x="269.19" y="80.95" width="461.62" height="398.79"/>
  <rect class="cls-11" x="269.19" y="479.73" width="461.62" height="85.91"/>
  <g>
    <rect class="cls-3" x="317.67" y="611.19" width="65.11" height="56.36" rx="6.48" ry="6.48"/>
    <rect class="cls-3" x="420.26" y="611.19" width="65.11" height="56.36" rx="6.48" ry="6.48"/>
    <rect class="cls-3" x="516.77" y="611.19" width="65.11" height="56.36" rx="6.48" ry="6.48"/>
    <rect class="cls-3" x="617.22" y="611.19" width="65.11" height="56.36" rx="6.48" ry="6.48"/>
    <rect class="cls-3" x="317.67" y="736.86" width="65.11" height="56.36" rx="6.48" ry="6.48"/>
    <rect class="cls-3" x="420.26" y="736.86" width="65.11" height="56.36" rx="6.48" ry="6.48"/>
    <rect class="cls-3" x="516.77" y="736.86" width="65.11" height="56.36" rx="6.48" ry="6.48"/>
    <rect class="cls-10" x="617.22" y="736.86" width="65.11" height="56.36" rx="6.48" ry="6.48"/>
    <rect class="cls-3" x="317.67" y="862.52" width="65.11" height="56.36" rx="6.48" ry="6.48"/>
    <rect class="cls-3" x="420.26" y="862.52" width="65.11" height="56.36" rx="6.48" ry="6.48"/>
    <rect class="cls-3" x="516.77" y="862.52" width="65.11" height="56.36" rx="6.48" ry="6.48"/>
    <rect class="cls-10" x="617.22" y="862.52" width="65.11" height="56.36" rx="6.48" ry="6.48"/>
  </g>
  <circle class="cls-1" cx="500" cy="267.27" r="147.46"/>
  <circle class="cls-5" cx="500" cy="267.27" r="117.22"/>
  <circle class="cls-6" cx="500" cy="267.27" r="92.32"/>
  <path class="cls-8" d="M453.61,347.11c-27.47-16-45.93-45.76-45.93-79.84,0-50.99,41.33-92.32,92.32-92.32,18.66,0,36.04,5.54,50.56,15.06"/>
  <g>
    <path class="cls-5" d="M520.25,203.32l-19.95-20.97c-.1-.11-.24-.14-.37-.13-.13-.01-.27.02-.37.13l-19.95,20.97c-.06.07-.1.15-.1.24v26.54c0,.35.49.51.75.24l19.67-20.68,19.67,20.68c.26.27.75.11.75-.24v-26.54c0-.09-.04-.18-.1-.24Z"/>
    <rect class="cls-5" x="489.75" y="220.68" width="8.69" height="30.2"/>
    <rect class="cls-5" x="501.93" y="220.68" width="8.69" height="30.2"/>
  </g>
  <g>
    <path class="cls-5" d="M480.12,331.22l19.95,20.97c.1.11.24.14.37.13.13.01.27-.02.37-.13l19.95-20.97c.06-.07.1-.15.1-.24v-26.54c0-.35-.49-.51-.75-.24l-19.67,20.68-19.67-20.68c-.26-.27-.75-.11-.75.24v26.54c0,.09.04.18.1.24Z"/>
    <rect class="cls-5" x="501.93" y="283.66" width="8.69" height="30.2"/>
    <rect class="cls-5" x="489.75" y="283.66" width="8.69" height="30.2"/>
  </g>
  <g>
    <path class="cls-5" d="M564.52,287.85l20.97-19.95c.11-.1.14-.24.13-.37.01-.13-.02-.27-.13-.37l-20.97-19.95c-.07-.06-.15-.1-.24-.1h-26.54c-.35,0-.51.49-.24.75l20.68,19.67-20.68,19.67c-.27.26-.11.75.24.75h26.54c.09,0,.18-.04.24-.1Z"/>
    <rect class="cls-5" x="516.95" y="257.35" width="30.2" height="8.69"/>
    <rect class="cls-5" x="516.95" y="269.53" width="30.2" height="8.69"/>
  </g>
  <g>
    <path class="cls-5" d="M435.48,247.22l-20.97,19.95c-.11.1-.14.24-.13.37-.01.13.02.27.13.37l20.97,19.95c.07.06.15.1.24.1h26.54c.35,0,.51-.49.24-.75l-20.68-19.67,20.68-19.67c.27-.26.11-.75-.24-.75h-26.54c-.09,0-.18.04-.24.1Z"/>
    <rect class="cls-5" x="452.84" y="269.03" width="30.2" height="8.69"/>
    <rect class="cls-5" x="452.84" y="256.84" width="30.2" height="8.69"/>
  </g>
  <path class="cls-5" d="M507.24,263.78c0,1.13-.37,2.09-1.1,2.88s-1.87,1.37-3.4,1.75v.05l5.66,6.67h-4.18l-5.17-6.28h-2.39v6.28h-3.48v-16.21h5.78c.96,0,1.85.05,2.67.14.82.09,1.53.23,2.12.42,1.12.36,1.98.9,2.59,1.62.61.71.91,1.61.91,2.7ZM498.37,266.36c.8,0,1.47-.03,2.02-.09s1.02-.15,1.4-.27c.7-.23,1.19-.54,1.46-.93.27-.39.4-.84.4-1.35,0-.44-.11-.82-.32-1.16-.21-.34-.58-.6-1.09-.79-.33-.13-.75-.22-1.25-.28-.5-.06-1.12-.09-1.86-.09h-2.49v4.97h1.72Z"/>
</svg>