<?xml version="1.0" encoding="UTF-8"?>
<svg xmlns="http://www.w3.org/2000/svg" viewBox="0 0 1000 1000">
  <defs>
    <style>
      .cls-1 {
        fill: #141414;
      }

      .cls-2 {
        fill: #cc3e56;
      }

      .cls-3 {
        fill: #cecece;
      }

      .cls-4 {
        fill: #1c1c1c;
      }

      .cls-5 {
        fill: #212121;
      }

      .cls-6 {
        fill: #c9cacc;
      }

      .cls-7 {
        fill: #2b2b2b;
      }

      .cls-8 {
        fill: #ddd;
      }

      .cls-9 {
        fill: #333;
      }

      .cls-10 {
        fill: #79add1;
      }

      .cls-11 {
        fill: #3d3d3d;
      }
    </style>
  </defs>
  <g id="Body">
    <path class="cls-2" d="M511.99,151.31h-91.16v-86c0-2.29,2.3-3.4,4.45-2.62,28.58,10.33,56.04,10.16,82.25,0,2.13-.83,4.45.34,4.45,2.62v86Z"/>
    <rect class="cls-4" x="277.83" y="97.49" width="377.17" height="721.86" rx="11.5" ry="11.5"/>
    <g>
      <rect class="cls-9" x="293.07" y="496.61" width="346.7" height="298.15"/>
      <path class="cls-7" d="M634.76,501.61v288.15h-336.7v-288.15h336.7M644.76,491.61h-356.7v308.15h356.7v-308.15h0Z"/>
    </g>
    <rect class="cls-9" x="288.07" y="117.08" width="356.7" height="308.15"/>
    <rect class="cls-11" x="288.07" y="425.23" width="356.7" height="66.39"/>
  </g>
  <g id="Buttons">
    <g>
      <rect class="cls-3" x="325.53" y="526.81" width="50.31" height="43.55" rx="5.01" ry="5.01"/>
      <rect class="cls-3" x="404.8" y="526.81" width="50.31" height="43.55" rx="5.01" ry="5.01"/>
      <rect class="cls-3" x="479.37" y="526.81" width="50.31" height="43.55" rx="5.01" ry="5.01"/>
      <rect class="cls-3" x="556.99" y="526.81" width="50.31" height="43.55" rx="5.01" ry="5.01"/>
      <rect class="cls-3" x="325.53" y="623.91" width="50.31" height="43.55" rx="5.01" ry="5.01"/>
      <rect class="cls-3" x="404.8" y="623.91" width="50.31" height="43.55" rx="5.01" ry="5.01"/>
      <rect class="cls-3" x="479.37" y="623.91" width="50.31" height="43.55" rx="5.01" ry="5.01"/>
      <rect class="cls-10" x="556.99" y="623.91" width="50.31" height="43.55" rx="5.01" ry="5.01"/>
      <rect class="cls-3" x="325.53" y="721.01" width="50.31" height="43.55" rx="5.01" ry="5.01"/>
      <rect class="cls-3" x="404.8" y="721.01" width="50.31" height="43.55" rx="5.01" ry="5.01"/>
      <rect class="cls-3" x="479.37" y="721.01" width="50.31" height="43.55" rx="5.01" ry="5.01"/>
      <rect class="cls-10" x="556.99" y="721.01" width="50.31" height="43.55" rx="5.01" ry="5.01"/>
    </g>
  </g>
  <g id="Knob">
    <circle class="cls-1" cx="466.41" cy="261.05" r="113.94"/>
    <circle class="cls-5" cx="466.41" cy="261.05" r="90.57"/>
    <circle class="cls-6" cx="466.41" cy="261.05" r="71.34"/>
    <path class="cls-8" d="M430.57,322.75c-21.23-12.36-35.49-35.36-35.49-61.69,0-39.4,31.94-71.34,71.34-71.34,14.42,0,27.85,4.28,39.07,11.64"/>
    <g>
      <path class="cls-5" d="M482.06,211.64l-15.42-16.21c-.08-.08-.18-.11-.28-.1-.1,0-.21.02-.28.1l-15.42,16.21c-.05.05-.08.12-.08.19v20.5c0,.27.38.4.58.19l15.2-15.98,15.2,15.98c.2.21.58.08.58-.19v-20.5c0-.07-.03-.14-.08-.19Z"/>
      <rect class="cls-5" x="458.49" y="225.05" width="6.71" height="23.34"/>
      <rect class="cls-5" x="467.91" y="225.05" width="6.71" height="23.34"/>
    </g>
    <g>
      <path class="cls-5" d="M451.06,310.47l15.42,16.21c.08.08.18.11.28.1.1,0,.21-.02.28-.1l15.42-16.21c.05-.05.08-.12.08-.19v-20.5c0-.27-.38-.4-.58-.19l-15.2,15.98-15.2-15.98c-.2-.21-.58-.08-.58.19v20.5c0,.07.03.14.08.19Z"/>
      <rect class="cls-5" x="467.91" y="273.71" width="6.71" height="23.34"/>
      <rect class="cls-5" x="458.49" y="273.71" width="6.71" height="23.34"/>
    </g>
    <g>
      <path class="cls-5" d="M516.27,276.95l16.21-15.42c.08-.08.11-.18.1-.28,0-.1-.02-.21-.1-.28l-16.21-15.42c-.05-.05-.12-.08-.19-.08h-20.5c-.27,0-.4.38-.19.58l15.98,15.2-15.98,15.2c-.21.2-.08.58.19.58h20.5c.07,0,.14-.03.19-.08Z"/>
      <rect class="cls-5" x="479.52" y="253.39" width="23.34" height="6.71"/>
      <rect class="cls-5" x="479.52" y="262.8" width="23.34" height="6.71"/>
    </g>
    <g>
      <path class="cls-5" d="M416.56,245.56l-16.21,15.42c-.08.08-.11.18-.1.28,0,.1.02.21.1.28l16.21,15.42c.05.05.12.08.19.08h20.5c.27,0,.4-.38.19-.58l-15.98-15.2,15.98-15.2c.21-.2.08-.58-.19-.58h-20.5c-.07,0-.14.03-.19.08Z"/>
      <rect class="cls-5" x="429.97" y="262.41" width="23.34" height="6.71"/>
      <rect class="cls-5" x="429.97" y="253" width="23.34" height="6.71"/>
    </g>
    <path class="cls-5" d="M472.01,258.35c0,.87-.28,1.62-.85,2.22-.57.61-1.44,1.06-2.63,1.35v.04l4.37,5.15h-3.23l-4-4.85h-1.84v4.85h-2.69v-12.53h4.47c.74,0,1.43.04,2.06.11s1.18.18,1.64.32c.86.28,1.53.7,2,1.25.47.55.7,1.25.7,2.08ZM465.16,260.35c.62,0,1.14-.02,1.56-.07.43-.05.79-.12,1.08-.21.54-.17.92-.41,1.12-.72.21-.3.31-.65.31-1.04,0-.34-.08-.64-.25-.89-.16-.26-.44-.46-.84-.61-.26-.1-.58-.17-.97-.22s-.87-.07-1.44-.07h-1.92v3.84h1.33Z"/>
  </g>
</svg>