<svg xmlns="http://www.w3.org/2000/svg" id="Knob" viewBox="0 0 1000 1000"><defs><style>.cls-3{fill:#cecece}.cls-5{fill:#212121}.cls-9{fill:#333}.cls-10{fill:#79add1}</style></defs><path d="M558.98 125.25H441.01V13.96c0-2.96 2.98-4.4 5.76-3.4 36.99 13.37 72.53 13.15 106.44 0 2.76-1.07 5.76.44 5.76 3.4v111.29Z" style="fill:#cc3e56"/><rect width="488.11" height="934.19" x="255.94" y="55.59" rx="14.88" ry="14.88" style="fill:#1c1c1c"/><path d="M275.66 572.12h448.68v385.85H275.66z" class="cls-9"/><path d="M717.87 578.59v372.9H282.13v-372.9zm12.94-12.94H269.19v398.79h461.62z" style="fill:#2b2b2b"/><path d="M269.19 80.95h461.62v398.79H269.19z" class="cls-9"/><path d="M269.19 479.73h461.62v85.91H269.19z" style="fill:#3d3d3d"/><rect width="65.11" height="56.36" x="317.67" y="611.19" class="cls-3" rx="6.48" ry="6.48"/><rect width="65.11" height="56.36" x="420.26" y="611.19" class="cls-3" rx="6.48" ry="6.48"/><rect width="65.11" height="56.36" x="516.77" y="611.19" class="cls-3" rx="6.48" ry="6.48"/><rect width="65.11" height="56.36" x="617.22" y="611.19" class="cls-3" rx="6.48" ry="6.48"/><rect width="65.11" height="56.36" x="317.67" y="736.86" class="cls-3" rx="6.48" ry="6.48"/><rect width="65.11" height="56.36" x="420.26" y="736.86" class="cls-3" rx="6.48" ry="6.48"/><rect width="65.11" height="56.36" x="516.77" y="736.86" class="cls-3" rx="6.48" ry="6.48"/><rect width="65.11" height="56.36" x="617.22" y="736.86" class="cls-10" rx="6.48" ry="6.48"/><rect width="65.11" height="56.36" x="317.67" y="862.52" class="cls-3" rx="6.48" ry="6.48"/><rect width="65.11" height="56.36" x="420.26" y="862.52" class="cls-3" rx="6.48" ry="6.48"/><rect width="65.11" height="56.36" x="516.77" y="862.52" class="cls-3" rx="6.48" ry="6.48"/><rect width="65.11" height="56.36" x="617.22" y="862.52" class="cls-10" rx="6.48" ry="6.48"/><circle cx="500" cy="267.27" r="147.46" style="fill:#141414"/><circle cx="500" cy="267.27" r="117.22" class="cls-5"/><circle cx="500" cy="267.27" r="92.32" style="fill:#c9cacc"/><path d="M453.61 347.11c-27.47-16-45.93-45.76-45.93-79.84 0-50.99 41.33-92.32 92.32-92.32 18.66 0 36.04 5.54 50.56 15.06" style="fill:#ddd"/><path d="m520.25 203.32-19.95-20.97a.44.44 0 0 0-.37-.13.44.44 0 0 0-.37.13l-19.95 20.97c-.06.07-.1.15-.1.24v26.54c0 .35.49.51.75.24l19.67-20.68 19.67 20.68c.26.27.75.11.75-.24v-26.54a.35.35 0 0 0-.1-.24" class="cls-5"/><path d="M489.75 220.68h8.69v30.2h-8.69zm12.18 0h8.69v30.2h-8.69zm-21.81 110.54 19.95 20.97c.1.11.24.14.37.13.13.01.27-.02.37-.13l19.95-20.97c.06-.07.1-.15.1-.24v-26.54c0-.35-.49-.51-.75-.24l-19.67 20.68-19.67-20.68c-.26-.27-.75-.11-.75.24v26.54c0 .09.04.18.1.24" class="cls-5"/><path d="M501.93 283.66h8.69v30.2h-8.69zm-12.18 0h8.69v30.2h-8.69zm74.77 4.19 20.97-19.95c.11-.1.14-.24.13-.37a.44.44 0 0 0-.13-.37l-20.97-19.95a.37.37 0 0 0-.24-.1h-26.54c-.35 0-.51.49-.24.75l20.68 19.67-20.68 19.67c-.27.26-.11.75.24.75h26.54c.09 0 .18-.04.24-.1" class="cls-5"/><path d="M516.95 257.35h30.2v8.69h-30.2zm0 12.18h30.2v8.69h-30.2zm-81.47-22.31-20.97 19.95a.44.44 0 0 0-.13.37c-.01.13.02.27.13.37l20.97 19.95c.07.06.15.1.24.1h26.54c.35 0 .51-.49.24-.75l-20.68-19.67 20.68-19.67c.27-.26.11-.75-.24-.75h-26.54a.35.35 0 0 0-.24.1" class="cls-5"/><path d="M452.84 269.03h30.2v8.69h-30.2zm0-12.19h30.2v8.69h-30.2zm54.4 6.94c0 1.13-.37 2.09-1.1 2.88s-1.87 1.37-3.4 1.75v.05l5.66 6.67h-4.18l-5.17-6.28h-2.39v6.28h-3.48v-16.21h5.78c.96 0 1.85.05 2.67.14s1.53.23 2.12.42c1.12.36 1.98.9 2.59 1.62.61.71.91 1.61.91 2.7Zm-8.87 2.58c.8 0 1.47-.03 2.02-.09s1.02-.15 1.4-.27c.7-.23 1.19-.54 1.46-.93s.4-.84.4-1.35c0-.44-.11-.82-.32-1.16s-.58-.6-1.09-.79c-.33-.13-.75-.22-1.25-.28q-.75-.09-1.86-.09h-2.49v4.97h1.72Z" class="cls-5"/></svg>