<?xml version="1.0" encoding="UTF-8"?>
<svg id="Layer_1" data-name="Layer 1" xmlns="http://www.w3.org/2000/svg" viewBox="0 0 1000 1000">
  <defs>
    <style>
      .cls-1 {
        fill: #825045;
      }

      .cls-2 {
        fill: #838a91;
      }

      .cls-3 {
        fill: #8e5749;
      }

      .cls-4 {
        fill: #f16156;
      }

      .cls-5 {
        fill: #ba4c43;
      }

      .cls-6 {
        fill: #9b5d4c;
      }

      .cls-7 {
        fill: #b9c1d1;
      }

      .cls-8 {
        fill: #ad6a55;
      }

      .cls-9 {
        fill: #6d433c;
      }

      .cls-10 {
        fill: #443532;
      }
    </style>
  </defs>
  <polygon class="cls-3" points="877.61 74.5 116.06 74.5 72.75 483.23 928.3 483.23 877.61 74.5"/>
  <polygon class="cls-6" points="928.3 483.23 72.75 483.23 45.65 843.44 954.13 843.44 928.3 483.23"/>
  <polygon class="cls-8" points="956.2 865.07 44.25 865.07 45.65 843.44 954.13 843.44 956.2 865.07"/>
  <polygon class="cls-1" points="943.47 919.49 53.43 919.49 44.57 865.07 955.56 865.07 943.47 919.49"/>
  <polygon class="cls-1" points="50.34 935.98 20.82 935.98 12.92 885.26 43.01 886.19 50.34 935.98"/>
  <polygon class="cls-1" points="946.35 935.98 975.87 935.98 986.81 880.49 956.73 881.42 946.35 935.98"/>
  <path class="cls-1" d="M72.75,483.23h-30.06L85.94,78.27c.87-8.14,7.76-14.29,15.94-14.25l10.89.06c2.36.01,4.19,2.06,3.94,4.4l-43.96,414.75Z"/>
  <path class="cls-1" d="M928.32,483.23l30.06-.54-50.48-404.12c-1.01-8.12-8.01-14.15-16.19-13.96l-10.88.25c-2.36.05-4.15,2.13-3.86,4.47l51.36,413.9Z"/>
  <polygon class="cls-8" points="986.81 880.49 956.73 881.42 928.3 483.23 958.38 482.69 986.81 880.49"/>
  <polygon class="cls-8" points="12.92 885.26 43.01 886.19 72.75 483.23 42.69 483.23 12.92 885.26"/>
  <polygon class="cls-9" points="43.01 886.19 44.57 865.07 53.43 919.49 50.34 935.98 43.01 886.19"/>
  <polygon class="cls-9" points="955.56 865.07 956.73 881.42 946.35 935.98 943.47 919.49 955.56 865.07"/>
  <rect class="cls-10" x="209.26" y="567.8" width="573.81" height="42.54"/>
  <rect class="cls-10" x="189.96" y="610.25" width="616.9" height="42.54"/>
  <rect class="cls-10" x="202.78" y="652.7" width="616.75" height="42.54"/>
  <rect class="cls-10" x="227.81" y="695.15" width="528.7" height="42.54"/>
  <rect class="cls-10" x="258.88" y="737.6" width="453.44" height="44.31"/>
  <rect class="cls-2" x="212.96" y="567.8" width="40.74" height="40.74" rx="1.4" ry="1.4"/>
  <path class="cls-7" d="M245.96,598.18c-8.42,1.35-16.84,1.35-25.26,0-1.31,0-2.38-1.06-2.38-2.38v-25.26c0-1.31,1.06-2.38,2.38-2.38h25.26c1.31,0,2.38,1.06,2.38,2.38v25.26c0,1.31-1.06,2.38-2.38,2.38Z"/>
  <rect class="cls-2" x="519.77" y="567.8" width="40.74" height="40.74" rx="1.4" ry="1.4"/>
  <path class="cls-7" d="M552.77,598.18c-8.42,1.35-16.84,1.35-25.26,0-1.31,0-2.38-1.06-2.38-2.38v-25.26c0-1.31,1.06-2.38,2.38-2.38h25.26c1.31,0,2.38,1.06,2.38,2.38v25.26c0,1.31-1.06,2.38-2.38,2.38Z"/>
  <rect class="cls-2" x="475.94" y="567.8" width="40.74" height="40.74" rx="1.4" ry="1.4"/>
  <path class="cls-7" d="M508.94,598.18c-8.42,1.35-16.84,1.35-25.26,0-1.31,0-2.38-1.06-2.38-2.38v-25.26c0-1.31,1.06-2.38,2.38-2.38h25.26c1.31,0,2.38,1.06,2.38,2.38v25.26c0,1.31-1.06,2.38-2.38,2.38Z"/>
  <rect class="cls-2" x="432.11" y="567.8" width="40.74" height="40.74" rx="1.4" ry="1.4"/>
  <path class="cls-7" d="M465.11,598.18c-8.42,1.35-16.84,1.35-25.26,0-1.31,0-2.38-1.06-2.38-2.38v-25.26c0-1.31,1.06-2.38,2.38-2.38h25.26c1.31,0,2.38,1.06,2.38,2.38v25.26c0,1.31-1.06,2.38-2.38,2.38Z"/>
  <rect class="cls-2" x="388.28" y="567.8" width="40.74" height="40.74" rx="1.4" ry="1.4"/>
  <path class="cls-7" d="M421.28,598.18c-8.42,1.35-16.84,1.35-25.26,0-1.31,0-2.38-1.06-2.38-2.38v-25.26c0-1.31,1.06-2.38,2.38-2.38h25.26c1.31,0,2.38,1.06,2.38,2.38v25.26c0,1.31-1.06,2.38-2.38,2.38Z"/>
  <rect class="cls-2" x="344.45" y="567.8" width="40.74" height="40.74" rx="1.4" ry="1.4"/>
  <path class="cls-7" d="M377.45,598.18c-8.42,1.35-16.84,1.35-25.26,0-1.31,0-2.38-1.06-2.38-2.38v-25.26c0-1.31,1.06-2.38,2.38-2.38h25.26c1.31,0,2.38,1.06,2.38,2.38v25.26c0,1.31-1.06,2.38-2.38,2.38Z"/>
  <rect class="cls-2" x="300.62" y="567.8" width="40.74" height="40.74" rx="1.4" ry="1.4"/>
  <path class="cls-7" d="M333.62,598.18c-8.42,1.35-16.84,1.35-25.26,0-1.31,0-2.38-1.06-2.38-2.38v-25.26c0-1.31,1.06-2.38,2.38-2.38h25.26c1.31,0,2.38,1.06,2.38,2.38v25.26c0,1.31-1.06,2.38-2.38,2.38Z"/>
  <rect class="cls-2" x="256.79" y="567.8" width="40.74" height="40.74" rx="1.4" ry="1.4"/>
  <path class="cls-7" d="M289.79,598.18c-8.42,1.35-16.84,1.35-25.26,0-1.31,0-2.38-1.06-2.38-2.38v-25.26c0-1.31,1.06-2.38,2.38-2.38h25.26c1.31,0,2.38,1.06,2.38,2.38v25.26c0,1.31-1.06,2.38-2.38,2.38Z"/>
  <rect class="cls-2" x="695.09" y="567.8" width="40.74" height="40.74" rx="1.4" ry="1.4"/>
  <path class="cls-7" d="M728.09,598.18c-8.42,1.35-16.84,1.35-25.26,0-1.31,0-2.38-1.06-2.38-2.38v-25.26c0-1.31,1.06-2.38,2.38-2.38h25.26c1.31,0,2.38,1.06,2.38,2.38v25.26c0,1.31-1.06,2.38-2.38,2.38Z"/>
  <rect class="cls-2" x="651.26" y="567.8" width="40.74" height="40.74" rx="1.4" ry="1.4"/>
  <path class="cls-7" d="M684.26,598.18c-8.42,1.35-16.84,1.35-25.26,0-1.31,0-2.38-1.06-2.38-2.38v-25.26c0-1.31,1.06-2.38,2.38-2.38h25.26c1.31,0,2.38,1.06,2.38,2.38v25.26c0,1.31-1.06,2.38-2.38,2.38Z"/>
  <rect class="cls-2" x="738.6" y="567.8" width="40.74" height="40.74" rx="1.4" ry="1.4"/>
  <path class="cls-7" d="M771.6,598.18c-8.42,1.35-16.84,1.35-25.26,0-1.31,0-2.38-1.06-2.38-2.38v-25.26c0-1.31,1.06-2.38,2.38-2.38h25.26c1.31,0,2.38,1.06,2.38,2.38v25.26c0,1.31-1.06,2.38-2.38,2.38Z"/>
  <rect class="cls-2" x="607.43" y="567.8" width="40.74" height="40.74" rx="1.4" ry="1.4"/>
  <path class="cls-7" d="M640.43,598.18c-8.42,1.35-16.84,1.35-25.26,0-1.31,0-2.38-1.06-2.38-2.38v-25.26c0-1.31,1.06-2.38,2.38-2.38h25.26c1.31,0,2.38,1.06,2.38,2.38v25.26c0,1.31-1.06,2.38-2.38,2.38Z"/>
  <rect class="cls-2" x="563.6" y="567.8" width="40.74" height="40.74" rx="1.4" ry="1.4"/>
  <path class="cls-7" d="M596.6,598.18c-8.42,1.35-16.84,1.35-25.26,0-1.31,0-2.38-1.06-2.38-2.38v-25.26c0-1.31,1.06-2.38,2.38-2.38h25.26c1.31,0,2.38,1.06,2.38,2.38v25.26c0,1.31-1.06,2.38-2.38,2.38Z"/>
  <rect class="cls-2" x="193.61" y="610.35" width="40.74" height="40.74" rx="1.4" ry="1.4"/>
  <path class="cls-7" d="M226.61,640.73c-8.42,1.35-16.84,1.35-25.26,0-1.31,0-2.38-1.06-2.38-2.38v-25.26c0-1.31,1.06-2.38,2.38-2.38h25.26c1.31,0,2.38,1.06,2.38,2.38v25.26c0,1.31-1.06,2.38-2.38,2.38Z"/>
  <rect class="cls-2" x="500.42" y="610.35" width="40.74" height="40.74" rx="1.4" ry="1.4"/>
  <path class="cls-7" d="M533.42,640.73c-8.42,1.35-16.84,1.35-25.26,0-1.31,0-2.38-1.06-2.38-2.38v-25.26c0-1.31,1.06-2.38,2.38-2.38h25.26c1.31,0,2.38,1.06,2.38,2.38v25.26c0,1.31-1.06,2.38-2.38,2.38Z"/>
  <rect class="cls-2" x="456.59" y="610.35" width="40.74" height="40.74" rx="1.4" ry="1.4"/>
  <path class="cls-7" d="M489.59,640.73c-8.42,1.35-16.84,1.35-25.26,0-1.31,0-2.38-1.06-2.38-2.38v-25.26c0-1.31,1.06-2.38,2.38-2.38h25.26c1.31,0,2.38,1.06,2.38,2.38v25.26c0,1.31-1.06,2.38-2.38,2.38Z"/>
  <rect class="cls-2" x="412.76" y="610.35" width="40.74" height="40.74" rx="1.4" ry="1.4"/>
  <path class="cls-7" d="M445.76,640.73c-8.42,1.35-16.84,1.35-25.26,0-1.31,0-2.38-1.06-2.38-2.38v-25.26c0-1.31,1.06-2.38,2.38-2.38h25.26c1.31,0,2.38,1.06,2.38,2.38v25.26c0,1.31-1.06,2.38-2.38,2.38Z"/>
  <rect class="cls-2" x="368.93" y="610.35" width="40.74" height="40.74" rx="1.4" ry="1.4"/>
  <path class="cls-7" d="M401.93,640.73c-8.42,1.35-16.84,1.35-25.26,0-1.31,0-2.38-1.06-2.38-2.38v-25.26c0-1.31,1.06-2.38,2.38-2.38h25.26c1.31,0,2.38,1.06,2.38,2.38v25.26c0,1.31-1.06,2.38-2.38,2.38Z"/>
  <rect class="cls-2" x="325.1" y="610.35" width="40.74" height="40.74" rx="1.4" ry="1.4"/>
  <path class="cls-7" d="M358.1,640.73c-8.42,1.35-16.84,1.35-25.26,0-1.31,0-2.38-1.06-2.38-2.38v-25.26c0-1.31,1.06-2.38,2.38-2.38h25.26c1.31,0,2.38,1.06,2.38,2.38v25.26c0,1.31-1.06,2.38-2.38,2.38Z"/>
  <rect class="cls-2" x="281.27" y="610.35" width="40.74" height="40.74" rx="1.4" ry="1.4"/>
  <path class="cls-7" d="M314.27,640.73c-8.42,1.35-16.84,1.35-25.26,0-1.31,0-2.38-1.06-2.38-2.38v-25.26c0-1.31,1.06-2.38,2.38-2.38h25.26c1.31,0,2.38,1.06,2.38,2.38v25.26c0,1.31-1.06,2.38-2.38,2.38Z"/>
  <rect class="cls-2" x="237.44" y="610.35" width="40.74" height="40.74" rx="1.4" ry="1.4"/>
  <path class="cls-7" d="M270.44,640.73c-8.42,1.35-16.84,1.35-25.26,0-1.31,0-2.38-1.06-2.38-2.38v-25.26c0-1.31,1.06-2.38,2.38-2.38h25.26c1.31,0,2.38,1.06,2.38,2.38v25.26c0,1.31-1.06,2.38-2.38,2.38Z"/>
  <rect class="cls-2" x="675.74" y="610.35" width="40.74" height="40.74" rx="1.4" ry="1.4"/>
  <path class="cls-7" d="M708.74,640.73c-8.42,1.35-16.84,1.35-25.26,0-1.31,0-2.38-1.06-2.38-2.38v-25.26c0-1.31,1.06-2.38,2.38-2.38h25.26c1.31,0,2.38,1.06,2.38,2.38v25.26c0,1.31-1.06,2.38-2.38,2.38Z"/>
  <rect class="cls-2" x="631.91" y="610.35" width="40.74" height="40.74" rx="1.4" ry="1.4"/>
  <path class="cls-7" d="M664.91,640.73c-8.42,1.35-16.84,1.35-25.26,0-1.31,0-2.38-1.06-2.38-2.38v-25.26c0-1.31,1.06-2.38,2.38-2.38h25.26c1.31,0,2.38,1.06,2.38,2.38v25.26c0,1.31-1.06,2.38-2.38,2.38Z"/>
  <rect class="cls-2" x="719.25" y="610.35" width="40.74" height="40.74" rx="1.4" ry="1.4"/>
  <path class="cls-7" d="M752.25,640.73c-8.42,1.35-16.84,1.35-25.26,0-1.31,0-2.38-1.06-2.38-2.38v-25.26c0-1.31,1.06-2.38,2.38-2.38h25.26c1.31,0,2.38,1.06,2.38,2.38v25.26c0,1.31-1.06,2.38-2.38,2.38Z"/>
  <rect class="cls-2" x="762.71" y="610.35" width="40.74" height="40.74" rx="1.4" ry="1.4"/>
  <path class="cls-7" d="M795.71,640.73c-8.42,1.35-16.84,1.35-25.26,0-1.31,0-2.38-1.06-2.38-2.38v-25.26c0-1.31,1.06-2.38,2.38-2.38h25.26c1.31,0,2.38,1.06,2.38,2.38v25.26c0,1.31-1.06,2.38-2.38,2.38Z"/>
  <rect class="cls-2" x="588.08" y="610.35" width="40.74" height="40.74" rx="1.4" ry="1.4"/>
  <path class="cls-7" d="M621.08,640.73c-8.42,1.35-16.84,1.35-25.26,0-1.31,0-2.38-1.06-2.38-2.38v-25.26c0-1.31,1.06-2.38,2.38-2.38h25.26c1.31,0,2.38,1.06,2.38,2.38v25.26c0,1.31-1.06,2.38-2.38,2.38Z"/>
  <rect class="cls-2" x="544.25" y="610.35" width="40.74" height="40.74" rx="1.4" ry="1.4"/>
  <path class="cls-7" d="M577.25,640.73c-8.42,1.35-16.84,1.35-25.26,0-1.31,0-2.38-1.06-2.38-2.38v-25.26c0-1.31,1.06-2.38,2.38-2.38h25.26c1.31,0,2.38,1.06,2.38,2.38v25.26c0,1.31-1.06,2.38-2.38,2.38Z"/>
  <rect class="cls-2" x="206.4" y="652.89" width="40.74" height="40.74" rx="1.4" ry="1.4"/>
  <path class="cls-7" d="M239.39,683.27c-8.42,1.35-16.84,1.35-25.26,0-1.31,0-2.38-1.06-2.38-2.38v-25.26c0-1.31,1.06-2.38,2.38-2.38h25.26c1.31,0,2.38,1.06,2.38,2.38v25.26c0,1.31-1.06,2.38-2.38,2.38Z"/>
  <rect class="cls-2" x="513.21" y="652.89" width="40.74" height="40.74" rx="1.4" ry="1.4"/>
  <path class="cls-7" d="M546.2,683.27c-8.42,1.35-16.84,1.35-25.26,0-1.31,0-2.38-1.06-2.38-2.38v-25.26c0-1.31,1.06-2.38,2.38-2.38h25.26c1.31,0,2.38,1.06,2.38,2.38v25.26c0,1.31-1.06,2.38-2.38,2.38Z"/>
  <rect class="cls-2" x="469.38" y="652.89" width="40.74" height="40.74" rx="1.4" ry="1.4"/>
  <path class="cls-7" d="M502.37,683.27c-8.42,1.35-16.84,1.35-25.26,0-1.31,0-2.38-1.06-2.38-2.38v-25.26c0-1.31,1.06-2.38,2.38-2.38h25.26c1.31,0,2.38,1.06,2.38,2.38v25.26c0,1.31-1.06,2.38-2.38,2.38Z"/>
  <rect class="cls-2" x="425.55" y="652.89" width="40.74" height="40.74" rx="1.4" ry="1.4"/>
  <path class="cls-7" d="M458.54,683.27c-8.42,1.35-16.84,1.35-25.26,0-1.31,0-2.38-1.06-2.38-2.38v-25.26c0-1.31,1.06-2.38,2.38-2.38h25.26c1.31,0,2.38,1.06,2.38,2.38v25.26c0,1.31-1.06,2.38-2.38,2.38Z"/>
  <rect class="cls-2" x="381.72" y="652.89" width="40.74" height="40.74" rx="1.4" ry="1.4"/>
  <path class="cls-7" d="M414.71,683.27c-8.42,1.35-16.84,1.35-25.26,0-1.31,0-2.38-1.06-2.38-2.38v-25.26c0-1.31,1.06-2.38,2.38-2.38h25.26c1.31,0,2.38,1.06,2.38,2.38v25.26c0,1.31-1.06,2.38-2.38,2.38Z"/>
  <rect class="cls-2" x="337.89" y="652.89" width="40.74" height="40.74" rx="1.4" ry="1.4"/>
  <path class="cls-7" d="M370.88,683.27c-8.42,1.35-16.84,1.35-25.26,0-1.31,0-2.38-1.06-2.38-2.38v-25.26c0-1.31,1.06-2.38,2.38-2.38h25.26c1.31,0,2.38,1.06,2.38,2.38v25.26c0,1.31-1.06,2.38-2.38,2.38Z"/>
  <rect class="cls-2" x="294.06" y="652.89" width="40.74" height="40.74" rx="1.4" ry="1.4"/>
  <path class="cls-7" d="M327.05,683.27c-8.42,1.35-16.84,1.35-25.26,0-1.31,0-2.38-1.06-2.38-2.38v-25.26c0-1.31,1.06-2.38,2.38-2.38h25.26c1.31,0,2.38,1.06,2.38,2.38v25.26c0,1.31-1.06,2.38-2.38,2.38Z"/>
  <rect class="cls-2" x="250.23" y="652.89" width="40.74" height="40.74" rx="1.4" ry="1.4"/>
  <path class="cls-7" d="M283.22,683.27c-8.42,1.35-16.84,1.35-25.26,0-1.31,0-2.38-1.06-2.38-2.38v-25.26c0-1.31,1.06-2.38,2.38-2.38h25.26c1.31,0,2.38,1.06,2.38,2.38v25.26c0,1.31-1.06,2.38-2.38,2.38Z"/>
  <rect class="cls-2" x="688.52" y="652.89" width="40.74" height="40.74" rx="1.4" ry="1.4"/>
  <path class="cls-7" d="M721.52,683.27c-8.42,1.35-16.84,1.35-25.26,0-1.31,0-2.38-1.06-2.38-2.38v-25.26c0-1.31,1.06-2.38,2.38-2.38h25.26c1.31,0,2.38,1.06,2.38,2.38v25.26c0,1.31-1.06,2.38-2.38,2.38Z"/>
  <rect class="cls-2" x="644.69" y="652.89" width="40.74" height="40.74" rx="1.4" ry="1.4"/>
  <path class="cls-7" d="M677.69,683.27c-8.42,1.35-16.84,1.35-25.26,0-1.31,0-2.38-1.06-2.38-2.38v-25.26c0-1.31,1.06-2.38,2.38-2.38h25.26c1.31,0,2.38,1.06,2.38,2.38v25.26c0,1.31-1.06,2.38-2.38,2.38Z"/>
  <rect class="cls-2" x="732.03" y="652.89" width="40.74" height="40.74" rx="1.4" ry="1.4"/>
  <path class="cls-7" d="M765.03,683.27c-8.42,1.35-16.84,1.35-25.26,0-1.31,0-2.38-1.06-2.38-2.38v-25.26c0-1.31,1.06-2.38,2.38-2.38h25.26c1.31,0,2.38,1.06,2.38,2.38v25.26c0,1.31-1.06,2.38-2.38,2.38Z"/>
  <rect class="cls-2" x="775.49" y="652.89" width="40.74" height="40.74" rx="1.4" ry="1.4"/>
  <path class="cls-7" d="M808.49,683.27c-8.42,1.35-16.84,1.35-25.26,0-1.31,0-2.38-1.06-2.38-2.38v-25.26c0-1.31,1.06-2.38,2.38-2.38h25.26c1.31,0,2.38,1.06,2.38,2.38v25.26c0,1.31-1.06,2.38-2.38,2.38Z"/>
  <rect class="cls-2" x="600.86" y="652.89" width="40.74" height="40.74" rx="1.4" ry="1.4"/>
  <path class="cls-7" d="M633.86,683.27c-8.42,1.35-16.84,1.35-25.26,0-1.31,0-2.38-1.06-2.38-2.38v-25.26c0-1.31,1.06-2.38,2.38-2.38h25.26c1.31,0,2.38,1.06,2.38,2.38v25.26c0,1.31-1.06,2.38-2.38,2.38Z"/>
  <rect class="cls-2" x="557.04" y="652.89" width="40.74" height="40.74" rx="1.4" ry="1.4"/>
  <path class="cls-7" d="M590.03,683.27c-8.42,1.35-16.84,1.35-25.26,0-1.31,0-2.38-1.06-2.38-2.38v-25.26c0-1.31,1.06-2.38,2.38-2.38h25.26c1.31,0,2.38,1.06,2.38,2.38v25.26c0,1.31-1.06,2.38-2.38,2.38Z"/>
  <rect class="cls-2" x="450.03" y="695.44" width="40.74" height="40.74" rx="1.4" ry="1.4"/>
  <path class="cls-7" d="M483.03,725.82c-8.42,1.35-16.84,1.35-25.26,0-1.31,0-2.38-1.06-2.38-2.38v-25.26c0-1.31,1.06-2.38,2.38-2.38h25.26c1.31,0,2.38,1.06,2.38,2.38v25.26c0,1.31-1.06,2.38-2.38,2.38Z"/>
  <rect class="cls-2" x="406.2" y="695.44" width="40.74" height="40.74" rx="1.4" ry="1.4"/>
  <path class="cls-7" d="M439.2,725.82c-8.42,1.35-16.84,1.35-25.26,0-1.31,0-2.38-1.06-2.38-2.38v-25.26c0-1.31,1.06-2.38,2.38-2.38h25.26c1.31,0,2.38,1.06,2.38,2.38v25.26c0,1.31-1.06,2.38-2.38,2.38Z"/>
  <rect class="cls-2" x="362.37" y="695.44" width="40.74" height="40.74" rx="1.4" ry="1.4"/>
  <path class="cls-7" d="M395.37,725.82c-8.42,1.35-16.84,1.35-25.26,0-1.31,0-2.38-1.06-2.38-2.38v-25.26c0-1.31,1.06-2.38,2.38-2.38h25.26c1.31,0,2.38,1.06,2.38,2.38v25.26c0,1.31-1.06,2.38-2.38,2.38Z"/>
  <rect class="cls-2" x="318.54" y="695.44" width="40.74" height="40.74" rx="1.4" ry="1.4"/>
  <path class="cls-7" d="M351.54,725.82c-8.42,1.35-16.84,1.35-25.26,0-1.31,0-2.38-1.06-2.38-2.38v-25.26c0-1.31,1.06-2.38,2.38-2.38h25.26c1.31,0,2.38,1.06,2.38,2.38v25.26c0,1.31-1.06,2.38-2.38,2.38Z"/>
  <rect class="cls-2" x="274.71" y="695.44" width="40.74" height="40.74" rx="1.4" ry="1.4"/>
  <path class="cls-7" d="M307.71,725.82c-8.42,1.35-16.84,1.35-25.26,0-1.31,0-2.38-1.06-2.38-2.38v-25.26c0-1.31,1.06-2.38,2.38-2.38h25.26c1.31,0,2.38,1.06,2.38,2.38v25.26c0,1.31-1.06,2.38-2.38,2.38Z"/>
  <rect class="cls-2" x="230.88" y="695.44" width="40.74" height="40.74" rx="1.4" ry="1.4"/>
  <path class="cls-7" d="M263.88,725.82c-8.42,1.35-16.84,1.35-25.26,0-1.31,0-2.38-1.06-2.38-2.38v-25.26c0-1.31,1.06-2.38,2.38-2.38h25.26c1.31,0,2.38,1.06,2.38,2.38v25.26c0,1.31-1.06,2.38-2.38,2.38Z"/>
  <rect class="cls-2" x="261.94" y="738.97" width="40.74" height="40.74" rx="1.4" ry="1.4"/>
  <rect class="cls-2" x="305.98" y="738.97" width="359.08" height="40.74" rx="1.51" ry="1.51"/>
  <path class="cls-7" d="M655.81,769.33c-109.84,1.26-223.38.98-340.52,0-1.48,0-2.69-1.2-2.69-2.69v-21.77c0-1.48,1.2-2.69,2.69-2.69h340.52c1.48,0,2.69,1.2,2.69,2.69v21.77c0,1.48-1.2,2.69-2.69,2.69Z"/>
  <path class="cls-7" d="M294.94,769.35c-8.42,1.35-16.84,1.35-25.26,0-1.31,0-2.38-1.06-2.38-2.38v-25.26c0-1.31,1.06-2.38,2.38-2.38h25.26c1.31,0,2.38,1.06,2.38,2.38v25.26c0,1.31-1.06,2.38-2.38,2.38Z"/>
  <rect class="cls-5" x="668.16" y="738.97" width="40.74" height="40.74" rx="1.4" ry="1.4"/>
  <path class="cls-4" d="M701.15,769.35c-8.42,1.35-16.84,1.35-25.26,0-1.31,0-2.38-1.06-2.38-2.38v-25.26c0-1.31,1.06-2.38,2.38-2.38h25.26c1.31,0,2.38,1.06,2.38,2.38v25.26c0,1.31-1.06,2.38-2.38,2.38Z"/>
  <rect class="cls-2" x="625.35" y="695.44" width="40.74" height="40.74" rx="1.4" ry="1.4"/>
  <path class="cls-7" d="M658.35,725.82c-8.42,1.35-16.84,1.35-25.26,0-1.31,0-2.38-1.06-2.38-2.38v-25.26c0-1.31,1.06-2.38,2.38-2.38h25.26c1.31,0,2.38,1.06,2.38,2.38v25.26c0,1.31-1.06,2.38-2.38,2.38Z"/>
  <rect class="cls-2" x="581.52" y="695.44" width="40.74" height="40.74" rx="1.4" ry="1.4"/>
  <path class="cls-7" d="M614.52,725.82c-8.42,1.35-16.84,1.35-25.26,0-1.31,0-2.38-1.06-2.38-2.38v-25.26c0-1.31,1.06-2.38,2.38-2.38h25.26c1.31,0,2.38,1.06,2.38,2.38v25.26c0,1.31-1.06,2.38-2.38,2.38Z"/>
  <rect class="cls-2" x="668.86" y="695.44" width="40.74" height="40.74" rx="1.4" ry="1.4"/>
  <path class="cls-7" d="M701.86,725.82c-8.42,1.35-16.84,1.35-25.26,0-1.31,0-2.38-1.06-2.38-2.38v-25.26c0-1.31,1.06-2.38,2.38-2.38h25.26c1.31,0,2.38,1.06,2.38,2.38v25.26c0,1.31-1.06,2.38-2.38,2.38Z"/>
  <rect class="cls-2" x="712.32" y="695.44" width="40.74" height="40.74" rx="1.4" ry="1.4"/>
  <path class="cls-7" d="M745.31,725.82c-8.42,1.35-16.84,1.35-25.26,0-1.31,0-2.38-1.06-2.38-2.38v-25.26c0-1.31,1.06-2.38,2.38-2.38h25.26c1.31,0,2.38,1.06,2.38,2.38v25.26c0,1.31-1.06,2.38-2.38,2.38Z"/>
  <rect class="cls-2" x="537.69" y="695.44" width="40.74" height="40.74" rx="1.4" ry="1.4"/>
  <path class="cls-7" d="M570.69,725.82c-8.42,1.35-16.84,1.35-25.26,0-1.31,0-2.38-1.06-2.38-2.38v-25.26c0-1.31,1.06-2.38,2.38-2.38h25.26c1.31,0,2.38,1.06,2.38,2.38v25.26c0,1.31-1.06,2.38-2.38,2.38Z"/>
  <rect class="cls-2" x="493.86" y="695.44" width="40.74" height="40.74" rx="1.4" ry="1.4"/>
  <path class="cls-7" d="M526.86,725.82c-8.42,1.35-16.84,1.35-25.26,0-1.31,0-2.38-1.06-2.38-2.38v-25.26c0-1.31,1.06-2.38,2.38-2.38h25.26c1.31,0,2.38,1.06,2.38,2.38v25.26c0,1.31-1.06,2.38-2.38,2.38Z"/>
</svg>