<svg xmlns="http://www.w3.org/2000/svg" id="Layer_1" data-name="Layer 1" viewBox="0 0 1000 1000"><defs><style>.cls-2{fill:#838a91}.cls-7{fill:#b9c1d1}.cls-8{fill:#ad6a55}.cls-10{fill:#443532}</style></defs><path d="M877.61 74.5H116.06L72.75 483.23H928.3z" style="fill:#8e5749"/><path d="M928.3 483.23H72.75l-27.1 360.21h908.48z" style="fill:#9b5d4c"/><path d="M956.2 865.07H44.25l1.4-21.63h908.48z" class="cls-8"/><path d="M943.47 919.49H53.43l-8.86-54.42h910.99zM50.34 935.98H20.82l-7.9-50.72 30.09.93zm896.01 0h29.52l10.94-55.49-30.08.93zM72.75 483.23H42.69L85.94 78.27c.87-8.14 7.76-14.29 15.94-14.25l10.89.06a3.98 3.98 0 0 1 3.94 4.4zm855.57 0 30.06-.54L907.9 78.57c-1.01-8.12-8.01-14.15-16.19-13.96l-10.88.25a3.976 3.976 0 0 0-3.86 4.47l51.36 413.9Z" style="fill:#825045"/><path d="m986.81 880.49-30.08.93-28.43-398.19 30.08-.54zm-973.89 4.77 30.09.93 29.74-402.96H42.69z" class="cls-8"/><path d="m43.01 886.19 1.56-21.12 8.86 54.42-3.09 16.49zm912.55-21.12 1.17 16.35-10.38 54.56-2.88-16.49z" style="fill:#6d433c"/><path d="M209.26 567.8h573.81v42.54H209.26z" class="cls-10"/><path d="M189.96 610.25h616.9v42.54h-616.9z" class="cls-10"/><path d="M202.78 652.7h616.75v42.54H202.78z" class="cls-10"/><path d="M227.81 695.15h528.7v42.54h-528.7z" class="cls-10"/><path d="M258.88 737.6h453.44v44.31H258.88z" class="cls-10"/><rect width="40.74" height="40.74" x="212.96" y="567.8" class="cls-2" rx="1.4" ry="1.4"/><path d="M245.96 598.18a79.3 79.3 0 0 1-25.26 0 2.38 2.38 0 0 1-2.38-2.38v-25.26a2.38 2.38 0 0 1 2.38-2.38h25.26a2.38 2.38 0 0 1 2.38 2.38v25.26a2.38 2.38 0 0 1-2.38 2.38" class="cls-7"/><rect width="40.74" height="40.74" x="519.77" y="567.8" class="cls-2" rx="1.4" ry="1.4"/><path d="M552.77 598.18a79.3 79.3 0 0 1-25.26 0 2.38 2.38 0 0 1-2.38-2.38v-25.26a2.38 2.38 0 0 1 2.38-2.38h25.26a2.38 2.38 0 0 1 2.38 2.38v25.26a2.38 2.38 0 0 1-2.38 2.38" class="cls-7"/><rect width="40.74" height="40.74" x="475.94" y="567.8" class="cls-2" rx="1.4" ry="1.4"/><path d="M508.94 598.18a79.3 79.3 0 0 1-25.26 0 2.38 2.38 0 0 1-2.38-2.38v-25.26a2.38 2.38 0 0 1 2.38-2.38h25.26a2.38 2.38 0 0 1 2.38 2.38v25.26a2.38 2.38 0 0 1-2.38 2.38" class="cls-7"/><rect width="40.74" height="40.74" x="432.11" y="567.8" class="cls-2" rx="1.4" ry="1.4"/><path d="M465.11 598.18a79.3 79.3 0 0 1-25.26 0 2.38 2.38 0 0 1-2.38-2.38v-25.26a2.38 2.38 0 0 1 2.38-2.38h25.26a2.38 2.38 0 0 1 2.38 2.38v25.26a2.38 2.38 0 0 1-2.38 2.38" class="cls-7"/><rect width="40.74" height="40.74" x="388.28" y="567.8" class="cls-2" rx="1.4" ry="1.4"/><path d="M421.28 598.18a79.3 79.3 0 0 1-25.26 0 2.38 2.38 0 0 1-2.38-2.38v-25.26a2.38 2.38 0 0 1 2.38-2.38h25.26a2.38 2.38 0 0 1 2.38 2.38v25.26a2.38 2.38 0 0 1-2.38 2.38" class="cls-7"/><rect width="40.74" height="40.74" x="344.45" y="567.8" class="cls-2" rx="1.4" ry="1.4"/><path d="M377.45 598.18a79.3 79.3 0 0 1-25.26 0 2.38 2.38 0 0 1-2.38-2.38v-25.26a2.38 2.38 0 0 1 2.38-2.38h25.26a2.38 2.38 0 0 1 2.38 2.38v25.26a2.38 2.38 0 0 1-2.38 2.38" class="cls-7"/><rect width="40.74" height="40.74" x="300.62" y="567.8" class="cls-2" rx="1.4" ry="1.4"/><path d="M333.62 598.18a79.3 79.3 0 0 1-25.26 0 2.38 2.38 0 0 1-2.38-2.38v-25.26a2.38 2.38 0 0 1 2.38-2.38h25.26a2.38 2.38 0 0 1 2.38 2.38v25.26a2.38 2.38 0 0 1-2.38 2.38" class="cls-7"/><rect width="40.74" height="40.74" x="256.79" y="567.8" class="cls-2" rx="1.4" ry="1.4"/><path d="M289.79 598.18a79.3 79.3 0 0 1-25.26 0 2.38 2.38 0 0 1-2.38-2.38v-25.26a2.38 2.38 0 0 1 2.38-2.38h25.26a2.38 2.38 0 0 1 2.38 2.38v25.26a2.38 2.38 0 0 1-2.38 2.38" class="cls-7"/><rect width="40.74" height="40.74" x="695.09" y="567.8" class="cls-2" rx="1.4" ry="1.4"/><path d="M728.09 598.18a79.3 79.3 0 0 1-25.26 0 2.38 2.38 0 0 1-2.38-2.38v-25.26a2.38 2.38 0 0 1 2.38-2.38h25.26a2.38 2.38 0 0 1 2.38 2.38v25.26a2.38 2.38 0 0 1-2.38 2.38" class="cls-7"/><rect width="40.74" height="40.74" x="651.26" y="567.8" class="cls-2" rx="1.4" ry="1.4"/><path d="M684.26 598.18a79.3 79.3 0 0 1-25.26 0 2.38 2.38 0 0 1-2.38-2.38v-25.26a2.38 2.38 0 0 1 2.38-2.38h25.26a2.38 2.38 0 0 1 2.38 2.38v25.26a2.38 2.38 0 0 1-2.38 2.38" class="cls-7"/><rect width="40.74" height="40.74" x="738.6" y="567.8" class="cls-2" rx="1.4" ry="1.4"/><path d="M771.6 598.18a79.3 79.3 0 0 1-25.26 0 2.38 2.38 0 0 1-2.38-2.38v-25.26a2.38 2.38 0 0 1 2.38-2.38h25.26a2.38 2.38 0 0 1 2.38 2.38v25.26a2.38 2.38 0 0 1-2.38 2.38" class="cls-7"/><rect width="40.74" height="40.74" x="607.43" y="567.8" class="cls-2" rx="1.4" ry="1.4"/><path d="M640.43 598.18a79.3 79.3 0 0 1-25.26 0 2.38 2.38 0 0 1-2.38-2.38v-25.26a2.38 2.38 0 0 1 2.38-2.38h25.26a2.38 2.38 0 0 1 2.38 2.38v25.26a2.38 2.38 0 0 1-2.38 2.38" class="cls-7"/><rect width="40.74" height="40.74" x="563.6" y="567.8" class="cls-2" rx="1.4" ry="1.4"/><path d="M596.6 598.18a79.3 79.3 0 0 1-25.26 0 2.38 2.38 0 0 1-2.38-2.38v-25.26a2.38 2.38 0 0 1 2.38-2.38h25.26a2.38 2.38 0 0 1 2.38 2.38v25.26a2.38 2.38 0 0 1-2.38 2.38" class="cls-7"/><rect width="40.74" height="40.74" x="193.61" y="610.35" class="cls-2" rx="1.4" ry="1.4"/><path d="M226.61 640.73a79.3 79.3 0 0 1-25.26 0 2.38 2.38 0 0 1-2.38-2.38v-25.26a2.38 2.38 0 0 1 2.38-2.38h25.26a2.38 2.38 0 0 1 2.38 2.38v25.26a2.38 2.38 0 0 1-2.38 2.38" class="cls-7"/><rect width="40.74" height="40.74" x="500.42" y="610.35" class="cls-2" rx="1.4" ry="1.4"/><path d="M533.42 640.73a79.3 79.3 0 0 1-25.26 0 2.38 2.38 0 0 1-2.38-2.38v-25.26a2.38 2.38 0 0 1 2.38-2.38h25.26a2.38 2.38 0 0 1 2.38 2.38v25.26a2.38 2.38 0 0 1-2.38 2.38" class="cls-7"/><rect width="40.74" height="40.74" x="456.59" y="610.35" class="cls-2" rx="1.4" ry="1.4"/><path d="M489.59 640.73a79.3 79.3 0 0 1-25.26 0 2.38 2.38 0 0 1-2.38-2.38v-25.26a2.38 2.38 0 0 1 2.38-2.38h25.26a2.38 2.38 0 0 1 2.38 2.38v25.26a2.38 2.38 0 0 1-2.38 2.38" class="cls-7"/><rect width="40.74" height="40.74" x="412.76" y="610.35" class="cls-2" rx="1.4" ry="1.4"/><path d="M445.76 640.73a79.3 79.3 0 0 1-25.26 0 2.38 2.38 0 0 1-2.38-2.38v-25.26a2.38 2.38 0 0 1 2.38-2.38h25.26a2.38 2.38 0 0 1 2.38 2.38v25.26a2.38 2.38 0 0 1-2.38 2.38" class="cls-7"/><rect width="40.74" height="40.74" x="368.93" y="610.35" class="cls-2" rx="1.4" ry="1.4"/><path d="M401.93 640.73a79.3 79.3 0 0 1-25.26 0 2.38 2.38 0 0 1-2.38-2.38v-25.26a2.38 2.38 0 0 1 2.38-2.38h25.26a2.38 2.38 0 0 1 2.38 2.38v25.26a2.38 2.38 0 0 1-2.38 2.38" class="cls-7"/><rect width="40.74" height="40.74" x="325.1" y="610.35" class="cls-2" rx="1.4" ry="1.4"/><path d="M358.1 640.73a79.3 79.3 0 0 1-25.26 0 2.38 2.38 0 0 1-2.38-2.38v-25.26a2.38 2.38 0 0 1 2.38-2.38h25.26a2.38 2.38 0 0 1 2.38 2.38v25.26a2.38 2.38 0 0 1-2.38 2.38" class="cls-7"/><rect width="40.74" height="40.74" x="281.27" y="610.35" class="cls-2" rx="1.4" ry="1.4"/><path d="M314.27 640.73a79.3 79.3 0 0 1-25.26 0 2.38 2.38 0 0 1-2.38-2.38v-25.26a2.38 2.38 0 0 1 2.38-2.38h25.26a2.38 2.38 0 0 1 2.38 2.38v25.26a2.38 2.38 0 0 1-2.38 2.38" class="cls-7"/><rect width="40.74" height="40.74" x="237.44" y="610.35" class="cls-2" rx="1.4" ry="1.4"/><path d="M270.44 640.73a79.3 79.3 0 0 1-25.26 0 2.38 2.38 0 0 1-2.38-2.38v-25.26a2.38 2.38 0 0 1 2.38-2.38h25.26a2.38 2.38 0 0 1 2.38 2.38v25.26a2.38 2.38 0 0 1-2.38 2.38" class="cls-7"/><rect width="40.74" height="40.74" x="675.74" y="610.35" class="cls-2" rx="1.4" ry="1.4"/><path d="M708.74 640.73a79.3 79.3 0 0 1-25.26 0 2.38 2.38 0 0 1-2.38-2.38v-25.26a2.38 2.38 0 0 1 2.38-2.38h25.26a2.38 2.38 0 0 1 2.38 2.38v25.26a2.38 2.38 0 0 1-2.38 2.38" class="cls-7"/><rect width="40.74" height="40.74" x="631.91" y="610.35" class="cls-2" rx="1.4" ry="1.4"/><path d="M664.91 640.73a79.3 79.3 0 0 1-25.26 0 2.38 2.38 0 0 1-2.38-2.38v-25.26a2.38 2.38 0 0 1 2.38-2.38h25.26a2.38 2.38 0 0 1 2.38 2.38v25.26a2.38 2.38 0 0 1-2.38 2.38" class="cls-7"/><rect width="40.74" height="40.74" x="719.25" y="610.35" class="cls-2" rx="1.4" ry="1.4"/><path d="M752.25 640.73a79.3 79.3 0 0 1-25.26 0 2.38 2.38 0 0 1-2.38-2.38v-25.26a2.38 2.38 0 0 1 2.38-2.38h25.26a2.38 2.38 0 0 1 2.38 2.38v25.26a2.38 2.38 0 0 1-2.38 2.38" class="cls-7"/><rect width="40.74" height="40.74" x="762.71" y="610.35" class="cls-2" rx="1.4" ry="1.4"/><path d="M795.71 640.73a79.3 79.3 0 0 1-25.26 0 2.38 2.38 0 0 1-2.38-2.38v-25.26a2.38 2.38 0 0 1 2.38-2.38h25.26a2.38 2.38 0 0 1 2.38 2.38v25.26a2.38 2.38 0 0 1-2.38 2.38" class="cls-7"/><rect width="40.74" height="40.74" x="588.08" y="610.35" class="cls-2" rx="1.4" ry="1.4"/><path d="M621.08 640.73a79.3 79.3 0 0 1-25.26 0 2.38 2.38 0 0 1-2.38-2.38v-25.26a2.38 2.38 0 0 1 2.38-2.38h25.26a2.38 2.38 0 0 1 2.38 2.38v25.26a2.38 2.38 0 0 1-2.38 2.38" class="cls-7"/><rect width="40.74" height="40.74" x="544.25" y="610.35" class="cls-2" rx="1.4" ry="1.4"/><path d="M577.25 640.73a79.3 79.3 0 0 1-25.26 0 2.38 2.38 0 0 1-2.38-2.38v-25.26a2.38 2.38 0 0 1 2.38-2.38h25.26a2.38 2.38 0 0 1 2.38 2.38v25.26a2.38 2.38 0 0 1-2.38 2.38" class="cls-7"/><rect width="40.74" height="40.74" x="206.4" y="652.89" class="cls-2" rx="1.4" ry="1.4"/><path d="M239.39 683.27a79.3 79.3 0 0 1-25.26 0 2.38 2.38 0 0 1-2.38-2.38v-25.26a2.38 2.38 0 0 1 2.38-2.38h25.26a2.38 2.38 0 0 1 2.38 2.38v25.26a2.38 2.38 0 0 1-2.38 2.38" class="cls-7"/><rect width="40.74" height="40.74" x="513.21" y="652.89" class="cls-2" rx="1.4" ry="1.4"/><path d="M546.2 683.27a79.3 79.3 0 0 1-25.26 0 2.38 2.38 0 0 1-2.38-2.38v-25.26a2.38 2.38 0 0 1 2.38-2.38h25.26a2.38 2.38 0 0 1 2.38 2.38v25.26a2.38 2.38 0 0 1-2.38 2.38" class="cls-7"/><rect width="40.74" height="40.74" x="469.38" y="652.89" class="cls-2" rx="1.4" ry="1.4"/><path d="M502.37 683.27a79.3 79.3 0 0 1-25.26 0 2.38 2.38 0 0 1-2.38-2.38v-25.26a2.38 2.38 0 0 1 2.38-2.38h25.26a2.38 2.38 0 0 1 2.38 2.38v25.26a2.38 2.38 0 0 1-2.38 2.38" class="cls-7"/><rect width="40.74" height="40.74" x="425.55" y="652.89" class="cls-2" rx="1.4" ry="1.4"/><path d="M458.54 683.27a79.3 79.3 0 0 1-25.26 0 2.38 2.38 0 0 1-2.38-2.38v-25.26a2.38 2.38 0 0 1 2.38-2.38h25.26a2.38 2.38 0 0 1 2.38 2.38v25.26a2.38 2.38 0 0 1-2.38 2.38" class="cls-7"/><rect width="40.74" height="40.74" x="381.72" y="652.89" class="cls-2" rx="1.4" ry="1.4"/><path d="M414.71 683.27a79.3 79.3 0 0 1-25.26 0 2.38 2.38 0 0 1-2.38-2.38v-25.26a2.38 2.38 0 0 1 2.38-2.38h25.26a2.38 2.38 0 0 1 2.38 2.38v25.26a2.38 2.38 0 0 1-2.38 2.38" class="cls-7"/><rect width="40.74" height="40.74" x="337.89" y="652.89" class="cls-2" rx="1.4" ry="1.4"/><path d="M370.88 683.27a79.3 79.3 0 0 1-25.26 0 2.38 2.38 0 0 1-2.38-2.38v-25.26a2.38 2.38 0 0 1 2.38-2.38h25.26a2.38 2.38 0 0 1 2.38 2.38v25.26a2.38 2.38 0 0 1-2.38 2.38" class="cls-7"/><rect width="40.74" height="40.74" x="294.06" y="652.89" class="cls-2" rx="1.4" ry="1.4"/><path d="M327.05 683.27a79.3 79.3 0 0 1-25.26 0 2.38 2.38 0 0 1-2.38-2.38v-25.26a2.38 2.38 0 0 1 2.38-2.38h25.26a2.38 2.38 0 0 1 2.38 2.38v25.26a2.38 2.38 0 0 1-2.38 2.38" class="cls-7"/><rect width="40.74" height="40.74" x="250.23" y="652.89" class="cls-2" rx="1.4" ry="1.4"/><path d="M283.22 683.27a79.3 79.3 0 0 1-25.26 0 2.38 2.38 0 0 1-2.38-2.38v-25.26a2.38 2.38 0 0 1 2.38-2.38h25.26a2.38 2.38 0 0 1 2.38 2.38v25.26a2.38 2.38 0 0 1-2.38 2.38" class="cls-7"/><rect width="40.74" height="40.74" x="688.52" y="652.89" class="cls-2" rx="1.4" ry="1.4"/><path d="M721.52 683.27a79.3 79.3 0 0 1-25.26 0 2.38 2.38 0 0 1-2.38-2.38v-25.26a2.38 2.38 0 0 1 2.38-2.38h25.26a2.38 2.38 0 0 1 2.38 2.38v25.26a2.38 2.38 0 0 1-2.38 2.38" class="cls-7"/><rect width="40.74" height="40.74" x="644.69" y="652.89" class="cls-2" rx="1.4" ry="1.4"/><path d="M677.69 683.27a79.3 79.3 0 0 1-25.26 0 2.38 2.38 0 0 1-2.38-2.38v-25.26a2.38 2.38 0 0 1 2.38-2.38h25.26a2.38 2.38 0 0 1 2.38 2.38v25.26a2.38 2.38 0 0 1-2.38 2.38" class="cls-7"/><rect width="40.74" height="40.74" x="732.03" y="652.89" class="cls-2" rx="1.4" ry="1.4"/><path d="M765.03 683.27a79.3 79.3 0 0 1-25.26 0 2.38 2.38 0 0 1-2.38-2.38v-25.26a2.38 2.38 0 0 1 2.38-2.38h25.26a2.38 2.38 0 0 1 2.38 2.38v25.26a2.38 2.38 0 0 1-2.38 2.38" class="cls-7"/><rect width="40.74" height="40.74" x="775.49" y="652.89" class="cls-2" rx="1.4" ry="1.4"/><path d="M808.49 683.27a79.3 79.3 0 0 1-25.26 0 2.38 2.38 0 0 1-2.38-2.38v-25.26a2.38 2.38 0 0 1 2.38-2.38h25.26a2.38 2.38 0 0 1 2.38 2.38v25.26a2.38 2.38 0 0 1-2.38 2.38" class="cls-7"/><rect width="40.74" height="40.74" x="600.86" y="652.89" class="cls-2" rx="1.4" ry="1.4"/><path d="M633.86 683.27a79.3 79.3 0 0 1-25.26 0 2.38 2.38 0 0 1-2.38-2.38v-25.26a2.38 2.38 0 0 1 2.38-2.38h25.26a2.38 2.38 0 0 1 2.38 2.38v25.26a2.38 2.38 0 0 1-2.38 2.38" class="cls-7"/><rect width="40.74" height="40.74" x="557.04" y="652.89" class="cls-2" rx="1.4" ry="1.4"/><path d="M590.03 683.27a79.3 79.3 0 0 1-25.26 0 2.38 2.38 0 0 1-2.38-2.38v-25.26a2.38 2.38 0 0 1 2.38-2.38h25.26a2.38 2.38 0 0 1 2.38 2.38v25.26a2.38 2.38 0 0 1-2.38 2.38" class="cls-7"/><rect width="40.74" height="40.74" x="450.03" y="695.44" class="cls-2" rx="1.4" ry="1.4"/><path d="M483.03 725.82a79.3 79.3 0 0 1-25.26 0 2.38 2.38 0 0 1-2.38-2.38v-25.26a2.38 2.38 0 0 1 2.38-2.38h25.26a2.38 2.38 0 0 1 2.38 2.38v25.26a2.38 2.38 0 0 1-2.38 2.38" class="cls-7"/><rect width="40.74" height="40.74" x="406.2" y="695.44" class="cls-2" rx="1.4" ry="1.4"/><path d="M439.2 725.82a79.3 79.3 0 0 1-25.26 0 2.38 2.38 0 0 1-2.38-2.38v-25.26a2.38 2.38 0 0 1 2.38-2.38h25.26a2.38 2.38 0 0 1 2.38 2.38v25.26a2.38 2.38 0 0 1-2.38 2.38" class="cls-7"/><rect width="40.74" height="40.74" x="362.37" y="695.44" class="cls-2" rx="1.4" ry="1.4"/><path d="M395.37 725.82a79.3 79.3 0 0 1-25.26 0 2.38 2.38 0 0 1-2.38-2.38v-25.26a2.38 2.38 0 0 1 2.38-2.38h25.26a2.38 2.38 0 0 1 2.38 2.38v25.26a2.38 2.38 0 0 1-2.38 2.38" class="cls-7"/><rect width="40.74" height="40.74" x="318.54" y="695.44" class="cls-2" rx="1.4" ry="1.4"/><path d="M351.54 725.82a79.3 79.3 0 0 1-25.26 0 2.38 2.38 0 0 1-2.38-2.38v-25.26a2.38 2.38 0 0 1 2.38-2.38h25.26a2.38 2.38 0 0 1 2.38 2.38v25.26a2.38 2.38 0 0 1-2.38 2.38" class="cls-7"/><rect width="40.74" height="40.74" x="274.71" y="695.44" class="cls-2" rx="1.4" ry="1.4"/><path d="M307.71 725.82a79.3 79.3 0 0 1-25.26 0 2.38 2.38 0 0 1-2.38-2.38v-25.26a2.38 2.38 0 0 1 2.38-2.38h25.26a2.38 2.38 0 0 1 2.38 2.38v25.26a2.38 2.38 0 0 1-2.38 2.38" class="cls-7"/><rect width="40.74" height="40.74" x="230.88" y="695.44" class="cls-2" rx="1.4" ry="1.4"/><path d="M263.88 725.82a79.3 79.3 0 0 1-25.26 0 2.38 2.38 0 0 1-2.38-2.38v-25.26a2.38 2.38 0 0 1 2.38-2.38h25.26a2.38 2.38 0 0 1 2.38 2.38v25.26a2.38 2.38 0 0 1-2.38 2.38" class="cls-7"/><rect width="40.74" height="40.74" x="261.94" y="738.97" class="cls-2" rx="1.4" ry="1.4"/><rect width="359.08" height="40.74" x="305.98" y="738.97" class="cls-2" rx="1.51" ry="1.51"/><path d="M655.81 769.33c-109.84 1.26-223.38.98-340.52 0a2.69 2.69 0 0 1-2.69-2.69v-21.77c0-1.48 1.2-2.69 2.69-2.69h340.52c1.48 0 2.69 1.2 2.69 2.69v21.77c0 1.48-1.2 2.69-2.69 2.69m-360.87.02a79.3 79.3 0 0 1-25.26 0 2.38 2.38 0 0 1-2.38-2.38v-25.26a2.38 2.38 0 0 1 2.38-2.38h25.26a2.38 2.38 0 0 1 2.38 2.38v25.26a2.38 2.38 0 0 1-2.38 2.38" class="cls-7"/><rect width="40.74" height="40.74" x="668.16" y="738.97" rx="1.4" ry="1.4" style="fill:#ba4c43"/><path d="M701.15 769.35a79.3 79.3 0 0 1-25.26 0 2.38 2.38 0 0 1-2.38-2.38v-25.26a2.38 2.38 0 0 1 2.38-2.38h25.26a2.38 2.38 0 0 1 2.38 2.38v25.26a2.38 2.38 0 0 1-2.38 2.38" style="fill:#f16156"/><rect width="40.74" height="40.74" x="625.35" y="695.44" class="cls-2" rx="1.4" ry="1.4"/><path d="M658.35 725.82a79.3 79.3 0 0 1-25.26 0 2.38 2.38 0 0 1-2.38-2.38v-25.26a2.38 2.38 0 0 1 2.38-2.38h25.26a2.38 2.38 0 0 1 2.38 2.38v25.26a2.38 2.38 0 0 1-2.38 2.38" class="cls-7"/><rect width="40.74" height="40.74" x="581.52" y="695.44" class="cls-2" rx="1.4" ry="1.4"/><path d="M614.52 725.82a79.3 79.3 0 0 1-25.26 0 2.38 2.38 0 0 1-2.38-2.38v-25.26a2.38 2.38 0 0 1 2.38-2.38h25.26a2.38 2.38 0 0 1 2.38 2.38v25.26a2.38 2.38 0 0 1-2.38 2.38" class="cls-7"/><rect width="40.74" height="40.74" x="668.86" y="695.44" class="cls-2" rx="1.4" ry="1.4"/><path d="M701.86 725.82a79.3 79.3 0 0 1-25.26 0 2.38 2.38 0 0 1-2.38-2.38v-25.26a2.38 2.38 0 0 1 2.38-2.38h25.26a2.38 2.38 0 0 1 2.38 2.38v25.26a2.38 2.38 0 0 1-2.38 2.38" class="cls-7"/><rect width="40.74" height="40.74" x="712.32" y="695.44" class="cls-2" rx="1.4" ry="1.4"/><path d="M745.31 725.82a79.3 79.3 0 0 1-25.26 0 2.38 2.38 0 0 1-2.38-2.38v-25.26a2.38 2.38 0 0 1 2.38-2.38h25.26a2.38 2.38 0 0 1 2.38 2.38v25.26a2.38 2.38 0 0 1-2.38 2.38" class="cls-7"/><rect width="40.74" height="40.74" x="537.69" y="695.44" class="cls-2" rx="1.4" ry="1.4"/><path d="M570.69 725.82a79.3 79.3 0 0 1-25.26 0 2.38 2.38 0 0 1-2.38-2.38v-25.26a2.38 2.38 0 0 1 2.38-2.38h25.26a2.38 2.38 0 0 1 2.38 2.38v25.26a2.38 2.38 0 0 1-2.38 2.38" class="cls-7"/><rect width="40.74" height="40.74" x="493.86" y="695.44" class="cls-2" rx="1.4" ry="1.4"/><path d="M526.86 725.82a79.3 79.3 0 0 1-25.26 0 2.38 2.38 0 0 1-2.38-2.38v-25.26a2.38 2.38 0 0 1 2.38-2.38h25.26a2.38 2.38 0 0 1 2.38 2.38v25.26a2.38 2.38 0 0 1-2.38 2.38" class="cls-7"/></svg>