<?xml version="1.0" encoding="UTF-8"?>
<svg id="TEXT" xmlns="http://www.w3.org/2000/svg" viewBox="0 0 1000 1000">
  <defs>
    <style>
      .cls-1 {
        fill: #c9bc99;
      }

      .cls-2 {
        fill: #1f7bd1;
      }

      .cls-3 {
        fill: #3e3a25;
      }

      .cls-4 {
        fill: #ebd13f;
      }

      .cls-5 {
        fill: #4f4c46;
      }

      .cls-6 {
        fill: #e97aa2;
      }

      .cls-7 {
        fill: #dccfa8;
      }

      .cls-8 {
        fill: #69604c;
      }

      .cls-9 {
        fill: #e2d4ae;
      }

      .cls-10 {
        fill: #fff;
      }

      .cls-11 {
        fill: #afa387;
      }

      .cls-12 {
        fill: #e43f21;
      }

      .cls-13 {
        fill: #1bb2b2;
      }

      .cls-14 {
        fill: #f0e4bf;
      }

      .cls-15 {
        fill: #c5332e;
      }

      .cls-16 {
        fill: none;
        stroke: #727272;
        stroke-miterlimit: 10;
      }

      .cls-17 {
        fill: #161616;
      }

      .cls-18 {
        fill: #efe7ce;
      }
    </style>
  </defs>
  <path class="cls-9" d="M933.82,412.9H64.91l5.44-46.14,1.11-9.43.86-7.3,1.11-9.43.88-7.46h0s1.11-9.43,1.11-9.43l.88-7.4h0s1.11-9.43,1.11-9.43l.87-7.37h0s1.11-9.44,1.11-9.44l.87-7.39h0s1.11-9.43,1.11-9.43h0s.87-7.37.87-7.37l1.11-9.43.88-7.4h0s1.11-9.43,1.11-9.43l.87-7.39,1.11-9.43.87-7.39,1.11-9.42h0s.87-7.36.87-7.36l1.11-9.42h0s.87-7.41.87-7.41l1.12-9.44.87-7.37h0s1.11-9.44,1.11-9.44l.87-7.39h0s1.11-9.44,1.11-9.44l.87-7.36,1.11-9.43.87-7.4,1.12-9.43.87-7.39,1.11-9.43.87-7.39.25-2.13.82-6.99.04-.3.87-7.35.26-2.23.82-7,.03-.21.21-1.78c0-19.56,15.85-35.41,35.41-35.41h711.59c19.56,0,35.42,15.85,35.42,35.41l44.05,360Z"/>
  <polygon class="cls-14" points="952.9 713.61 45.82 713.61 64.91 412.9 933.82 412.9 952.9 713.61"/>
  <path class="cls-1" d="M908.98,580.51H89.75c-17.39,0-31.49-15.04-31.49-33.59l6.65-145.2h868.91l6.65,145.2c0,18.55-14.1,33.59-31.49,33.59Z"/>
  <path class="cls-9" d="M901.68,564.35H99.04c-17.75,0-33.14-14.39-33.14-32.14l10.63-130.49h848l9.28,130.49c0,17.75-14.39,32.14-32.14,32.14Z"/>
  <path class="cls-7" d="M928.2,982.51H71.8c-22.03,0-39.53-18.52-38.28-40.51l16.04-283.57c1.15-20.3,17.95-36.18,38.28-36.18h824.05c20.32,0,37.11,15.85,38.28,36.14l16.3,283.57c1.27,22-16.24,40.54-38.28,40.54Z"/>
  <path class="cls-14" d="M932.7,965.16H69.07c-13.15,0-23.62-11.02-22.93-24.16l14.64-281.05c.71-13.61,11.95-24.28,25.58-24.28h829.72c13.65,0,24.91,10.71,25.59,24.35l13.96,281.04c.65,13.11-9.81,24.1-22.94,24.1Z"/>
  <path class="cls-9" d="M894.57,921.61H105.34c-8.88,0-15.96-7.4-15.58-16.27l9.17-210.45c.45-10.27,8.9-18.37,19.18-18.37h763.89c10.29,0,18.75,8.11,19.18,18.38l8.96,210.45c.38,8.86-6.71,16.26-15.58,16.26Z"/>
  <path class="cls-11" d="M117.84,55.6l-11.55,6.29.82-7,11.56-6.29"/>
  <path class="cls-11" d="M115.83,72.44l-11.53,6.32.82-6.99,11.54-6.33"/>
  <path class="cls-11" d="M113.82,89.27l-11.5,6.33.82-7,11.52-6.34"/>
  <path class="cls-11" d="M111.81,106.11l-11.48,6.29.83-7.01,11.49-6.28"/>
  <path class="cls-11" d="M109.8,122.95l-11.45,6.28.82-7,11.46-6.28"/>
  <path class="cls-11" d="M107.79,139.78l-11.41,6.25.82-7,11.43-6.25"/>
  <path class="cls-11" d="M105.78,156.62l-11.39,6.2.82-7,11.4-6.19"/>
  <path class="cls-11" d="M103.76,173.45l-11.34,6.13.83-7.01,11.37-6.13"/>
  <path class="cls-11" d="M101.77,190.29l-11.33,6.08.83-7,11.34-6.08"/>
  <path class="cls-11" d="M99.76,207.13l-11.3,5.99.83-7,11.3-5.98"/>
  <path class="cls-11" d="M97.75,223.96l-11.27,5.97.82-7,11.27-5.97"/>
  <path class="cls-11" d="M95.74,240.8l-11.25,5.96.83-7,11.25-5.95"/>
  <path class="cls-11" d="M93.73,257.64l-11.22,5.94.82-7,11.22-5.94"/>
  <path class="cls-11" d="M91.72,274.46l-11.2,5.93.83-7,11.2-5.93"/>
  <path class="cls-11" d="M89.72,291.3l-11.17,5.92.82-7,11.17-5.91"/>
  <path class="cls-11" d="M87.71,308.11l-11.14,5.9.83-7,11.14-5.9"/>
  <path class="cls-11" d="M85.69,324.94l-11.11,5.89.83-7,11.11-5.88"/>
  <path class="cls-11" d="M83.71,341.8l-11.11,5.89.82-7,11.12-5.88"/>
  <path class="cls-11" d="M81.68,358.65l-11.07,5.86.82-7,11.07-5.86"/>
  <path class="cls-11" d="M874.67,55.6l16.53,8.99-.86-7.02-16.68-8.98"/>
  <path class="cls-11" d="M877.11,72.46l16.13,8.77-.86-7.02-16.28-8.76"/>
  <path class="cls-11" d="M879.55,89.25l15.72,8.54-.86-7.02-15.87-8.54"/>
  <path class="cls-11" d="M881.94,106.09l15.36,8.35-.86-7.01-15.51-8.32"/>
  <path class="cls-11" d="M884.37,122.94l14.96,8.11-.86-7.01-15.12-8.11"/>
  <path class="cls-11" d="M886.81,139.79l14.55,7.89-.86-7.01-14.71-7.89"/>
  <path class="cls-11" d="M889.23,156.63l14.17,7.68-.82-6.72-14.36-7.97"/>
  <path class="cls-11" d="M891.65,173.45l13.78,7.46-.82-6.72-13.96-7.75"/>
  <path class="cls-11" d="M894.07,190.31l13.4,7.26-.82-6.73-13.58-7.54"/>
  <path class="cls-11" d="M896.49,207.14l13.01,7.05-.82-6.73-13.19-7.32"/>
  <path class="cls-11" d="M898.91,223.95l12.63,6.84-.82-6.74-12.8-7.1"/>
  <path class="cls-11" d="M901.34,240.81l12.24,6.63-.83-6.75-12.41-6.89"/>
  <path class="cls-11" d="M903.76,257.64l11.85,6.42-.83-6.75-12.02-6.67"/>
  <path class="cls-11" d="M906.2,274.49l11.44,6.19-.83-6.76-11.61-6.45"/>
  <path class="cls-11" d="M908.61,291.31l11.06,5.99-.83-6.76-11.23-6.23"/>
  <path class="cls-11" d="M911.05,308.16l10.66,5.77-.83-6.77-10.83-6.01"/>
  <path class="cls-11" d="M913.47,324.99l10.27,5.56-.83-6.77-10.44-5.8"/>
  <path class="cls-11" d="M915.89,341.83l9.89,5.36-.83-6.78-10.06-5.58"/>
  <path class="cls-11" d="M918.33,358.67l9.48,5.13-.83-6.79-9.65-5.36"/>
  <path class="cls-18" d="M924.53,401.72H76.54l5.14-43.08.84-7,1.17-9.83.83-7,1.18-9.83.83-7.01,1.18-9.83.83-7,1.17-9.84.84-7,1.17-9.83.84-7,1.17-9.84.84-7,1.17-9.83.84-7,1.17-9.84.83-7,1.18-9.83.83-7,1.18-9.84.83-7,1.18-9.84.83-7,1.17-9.83.84-7,1.17-9.84.84-7,1.17-9.83.84-7,1.17-9.84.84-7,1.17-9.84.84-7,1.17-9.83.83-7,1.18-9.84.83-7,.95-7.94c1.47-12.32,11.92-21.59,24.32-21.59h704.24c12.18,0,22.51,8.94,24.25,21l1.23,8.52,1.01,7.01,1.41,9.84,1.01,7,1.42,9.82,1.01,7.01,1.41,9.84,1.01,7,1.42,9.83,1.01,7,1.42,9.84,1,7,1.42,9.84,1.01,7,1.42,9.83,1.01,7,1.41,9.84,1.01,7,1.42,9.84,1.01,7,1.41,9.83,1.01,7.01,1.42,9.83,1.01,7,1.41,9.83,1.01,7,1.42,9.84,1.01,7.01,1.41,9.82,1.01,7,1.42,9.84,1.01,7.01,1.42,9.83,1.01,7,1.41,9.84,1.01,7,1.42,9.83,1.01,7,6.2,43.07Z"/>
  <g>
    <path class="cls-9" d="M137.58,52.06c0,1.94-1.56,3.51-3.49,3.51l-16.25.03.83-7,15.4-.03h.01c1.93,0,3.49,1.56,3.5,3.49Z"/>
    <path class="cls-9" d="M135.83,68.9c0,1.93-1.56,3.5-3.49,3.51l-16.51.03.83-7,15.66-.03h.01c1.93,0,3.5,1.56,3.5,3.49Z"/>
    <path class="cls-9" d="M132.99,85.73c0,1.94-1.56,3.51-3.49,3.51l-15.68.03.84-7,14.82-.03h.01c1.93,0,3.49,1.56,3.5,3.49Z"/>
    <path class="cls-9" d="M131.02,102.57c0,1.93-1.56,3.5-3.49,3.51l-15.72.03.84-7,14.86-.03h.01c1.93,0,3.5,1.56,3.5,3.49Z"/>
    <path class="cls-9" d="M129.27,119.41c0,1.93-1.56,3.5-3.49,3.5l-15.98.04.84-7,15.12-.04h.01c1.93,0,3.5,1.57,3.5,3.5Z"/>
    <path class="cls-9" d="M127.43,136.24c0,1.93-1.56,3.5-3.49,3.51l-16.15.03.84-7,15.29-.03h0c1.93,0,3.49,1.56,3.5,3.49Z"/>
    <path class="cls-9" d="M126.2,153.08c.01,1.93-1.56,3.5-3.49,3.5l-16.93.04.84-7,16.07-.04h.01c1.93,0,3.5,1.57,3.5,3.5Z"/>
    <path class="cls-9" d="M123.45,169.91c.01,1.94-1.56,3.51-3.49,3.51l-16.18.03.83-7,15.33-.03h.01c1.93,0,3.5,1.56,3.5,3.49Z"/>
    <path class="cls-9" d="M121.61,186.75c0,1.93-1.56,3.5-3.49,3.51l-16.35.03.83-7,15.5-.03h.01c1.93,0,3.5,1.56,3.5,3.49Z"/>
    <path class="cls-9" d="M119.64,203.58c.01,1.94-1.56,3.51-3.49,3.51l-16.39.04.83-7,15.54-.04h.01c1.93,0,3.5,1.56,3.5,3.49Z"/>
    <path class="cls-9" d="M117.89,220.42c.01,1.93-1.56,3.5-3.49,3.51l-16.65.03.83-7,15.81-.03c.97,0,1.84.39,2.47,1.02.64.63,1.03,1.5,1.03,2.47Z"/>
    <path class="cls-9" d="M115.05,237.26c0,1.93-1.56,3.5-3.49,3.5l-15.82.04.84-7,14.96-.04h.01c1.93,0,3.5,1.57,3.5,3.5Z"/>
    <path class="cls-9" d="M111.69,254.09c0,1.93-1.56,3.51-3.49,3.51l-14.47.03.84-7,13.61-.03h.01c1.93,0,3.49,1.56,3.5,3.49Z"/>
    <path class="cls-9" d="M110.46,270.93c.01,1.93-1.56,3.5-3.49,3.51l-15.25.03.84-7,14.39-.03h.01c1.93,0,3.5,1.56,3.5,3.49Z"/>
    <path class="cls-9" d="M107.71,287.76c.01,1.94-1.56,3.51-3.49,3.51l-14.51.03.84-7,13.66-.03c.97,0,1.84.39,2.47,1.02.64.63,1.03,1.5,1.03,2.47Z"/>
    <path class="cls-9" d="M105.87,304.6c.01,1.93-1.56,3.5-3.49,3.51l-14.67.03.83-7,13.82-.03h0c1.93,0,3.5,1.56,3.5,3.49Z"/>
    <path class="cls-9" d="M103.9,321.44c.01,1.93-1.56,3.5-3.49,3.5l-14.71.04.83-7.01,13.87-.03c.96,0,1.84.39,2.47,1.02.64.63,1.03,1.51,1.03,2.48Z"/>
    <path class="cls-9" d="M102.15,338.27c.01,1.93-1.56,3.5-3.49,3.51l-14.97.03.83-7,14.13-.03c.97,0,1.84.39,2.47,1.02.64.63,1.03,1.51,1.03,2.47Z"/>
    <path class="cls-9" d="M99.31,355.11c.01,1.93-1.56,3.5-3.49,3.5l-14.14.03.84-7,13.28-.03h0c1.93,0,3.5,1.57,3.5,3.5Z"/>
  </g>
  <g>
    <path class="cls-9" d="M874.67,55.6l-12.67-.03c-1.93,0-3.5-1.57-3.49-3.51,0-1.93,1.57-3.49,3.5-3.49h.01l11.64.02,1.01,7.01Z"/>
    <path class="cls-9" d="M877.09,72.44l-13.34-.03c-1.93-.01-3.5-1.58-3.49-3.51,0-1.93,1.57-3.49,3.5-3.49h.01l12.31.03,1.01,7Z"/>
    <path class="cls-9" d="M879.52,89.27l-12.93-.03c-1.93,0-3.49-1.57-3.49-3.51s1.57-3.49,3.5-3.49h.01l11.9.02,1.01,7.01Z"/>
    <path class="cls-9" d="M881.94,106.11l-13.38-.03c-1.93,0-3.5-1.58-3.49-3.51,0-1.93,1.57-3.49,3.5-3.49h.01l12.35.03,1.01,7Z"/>
    <path class="cls-9" d="M884.37,122.94l-14.06-.03c-1.93,0-3.5-1.57-3.49-3.5,0-1.93,1.57-3.5,3.5-3.5h.01l13.03.03,1.01,7Z"/>
    <path class="cls-9" d="M886.79,139.78l-14.64-.03c-1.93-.01-3.49-1.58-3.49-3.51s1.57-3.49,3.5-3.49h.01l13.62.03,1,7Z"/>
    <path class="cls-9" d="M889.22,156.62l-15.84-.04c-1.93,0-3.5-1.57-3.49-3.5,0-.97.39-1.84,1.03-2.47.63-.64,1.5-1.03,2.47-1.03l14.82.04,1.01,7Z"/>
    <path class="cls-9" d="M891.65,173.45l-15.52-.03c-1.94,0-3.5-1.57-3.49-3.51,0-.96.39-1.84,1.03-2.47.63-.63,1.51-1.02,2.47-1.02l14.5.03,1.01,7Z"/>
    <path class="cls-9" d="M894.07,190.29l-16.1-.03c-1.93,0-3.5-1.58-3.49-3.51,0-1.93,1.57-3.49,3.5-3.49h.01l15.07.03,1.01,7Z"/>
    <path class="cls-9" d="M896.5,207.13l-16.56-.04c-1.94,0-3.5-1.57-3.49-3.51,0-.97.39-1.84,1.03-2.47.63-.63,1.5-1.02,2.47-1.02l15.54.04,1.01,7Z"/>
    <path class="cls-9" d="M898.92,223.97l-17.23-.04c-1.94-.01-3.5-1.58-3.5-3.51.01-1.93,1.57-3.49,3.5-3.49h.01l16.21.03,1.01,7.01Z"/>
    <path class="cls-9" d="M901.35,240.8l-16.82-.04c-1.93,0-3.5-1.57-3.49-3.5,0-.97.39-1.84,1.03-2.47.63-.64,1.51-1.03,2.47-1.03l15.8.04,1.01,7Z"/>
    <path class="cls-9" d="M903.77,257.63l-15.88-.03c-1.93,0-3.5-1.58-3.49-3.51,0-1.93,1.57-3.49,3.5-3.49h.01l14.85.03,1.01,7Z"/>
    <path class="cls-9" d="M906.2,274.48l-17.08-.04c-1.93-.01-3.5-1.58-3.49-3.51,0-.96.39-1.84,1.03-2.47.63-.63,1.5-1.02,2.47-1.02l16.06.03,1.01,7.01Z"/>
    <path class="cls-9" d="M908.62,291.3l-16.75-.03c-1.94,0-3.5-1.57-3.5-3.51.01-1.93,1.57-3.49,3.5-3.49h.01l15.73.03,1.01,7Z"/>
    <path class="cls-9" d="M911.05,308.15l-17.34-.04c-1.93-.01-3.5-1.58-3.49-3.51,0-.97.39-1.84,1.03-2.47.63-.63,1.51-1.02,2.47-1.02l16.32.03,1.01,7.01Z"/>
    <path class="cls-9" d="M913.48,324.98l-17.8-.04c-1.94,0-3.5-1.57-3.5-3.5.01-1.94,1.58-3.5,3.5-3.5h.01l16.78.04,1.01,7Z"/>
    <path class="cls-9" d="M915.9,341.82l-18.47-.04c-1.94-.01-3.5-1.58-3.5-3.51.01-1.93,1.57-3.49,3.5-3.49h.01l17.45.04,1.01,7Z"/>
    <path class="cls-9" d="M918.33,358.65l-18.06-.04c-1.93,0-3.5-1.57-3.49-3.5,0-.96.39-1.84,1.03-2.47.63-.64,1.51-1.03,2.47-1.03l17.04.04,1.01,7Z"/>
  </g>
  <path class="cls-9" d="M863.92,368.81H136.23c-8.91,0-15.84-7.74-14.85-16.59l31.92-287.3c.81-7.3,6.98-12.82,14.33-12.82h659.47c7.24,0,13.36,5.37,14.29,12.56l37.36,287.29c1.16,8.94-5.8,16.87-14.82,16.87Z"/>
  <path class="cls-16" d="M797.7,17.49l3.02,29.32v8.79l34.35,313.96s4.91,44.54,7.17,100.41c2.26,55.87,4.91,94,4.91,94l-2.64,17.36.64,40.91"/>
  <path class="cls-16" d="M196.97,17.49l-3.14,31.11v7l-29.01,314.76s-6.6,73.89-7.84,112.28-4.3,81.91-4.3,81.91l2.65,18.4-1.65,39.29"/>
  <rect class="cls-5" x="381.95" y="446.77" width="236.07" height="74.31" rx="13.4" ry="13.4"/>
  <rect class="cls-17" x="215.8" y="679.62" width="590.34" height="50.09"/>
  <rect class="cls-17" x="192.6" y="726.62" width="613.54" height="50.09"/>
  <rect class="cls-17" x="202.28" y="777.62" width="593.53" height="95.43"/>
  <rect class="cls-17" x="310.37" y="824.62" width="375.58" height="95.43"/>
  <rect class="cls-17" x="202.28" y="868.19" width="55.76" height="52.97"/>
  <g>
    <rect class="cls-3" x="220.28" y="681.39" width="41.86" height="41.86" rx="1.44" ry="1.44"/>
    <path class="cls-8" d="M254.19,714.32c-8.65,1.39-17.31,1.39-25.96,0-1.35,0-2.44-1.09-2.44-2.44v-25.96c0-1.35,1.09-2.44,2.44-2.44h25.96c1.35,0,2.44,1.09,2.44,2.44v25.96c0,1.35-1.09,2.44-2.44,2.44Z"/>
  </g>
  <g>
    <rect class="cls-3" x="535.58" y="681.39" width="41.86" height="41.86" rx="1.44" ry="1.44"/>
    <path class="cls-8" d="M569.49,714.32c-8.65,1.39-17.31,1.39-25.96,0-1.35,0-2.44-1.09-2.44-2.44v-25.96c0-1.35,1.09-2.44,2.44-2.44h25.96c1.35,0,2.44,1.09,2.44,2.44v25.96c0,1.35-1.09,2.44-2.44,2.44Z"/>
  </g>
  <g>
    <rect class="cls-3" x="490.54" y="681.39" width="41.86" height="41.86" rx="1.44" ry="1.44"/>
    <path class="cls-8" d="M524.45,714.32c-8.65,1.39-17.31,1.39-25.96,0-1.35,0-2.44-1.09-2.44-2.44v-25.96c0-1.35,1.09-2.44,2.44-2.44h25.96c1.35,0,2.44,1.09,2.44,2.44v25.96c0,1.35-1.09,2.44-2.44,2.44Z"/>
  </g>
  <g>
    <rect class="cls-3" x="445.49" y="681.39" width="41.86" height="41.86" rx="1.44" ry="1.44"/>
    <path class="cls-8" d="M479.4,714.32c-8.65,1.39-17.31,1.39-25.96,0-1.35,0-2.44-1.09-2.44-2.44v-25.96c0-1.35,1.09-2.44,2.44-2.44h25.96c1.35,0,2.44,1.09,2.44,2.44v25.96c0,1.35-1.09,2.44-2.44,2.44Z"/>
  </g>
  <g>
    <rect class="cls-3" x="400.45" y="681.39" width="41.86" height="41.86" rx="1.44" ry="1.44"/>
    <path class="cls-8" d="M434.36,714.32c-8.65,1.39-17.31,1.39-25.96,0-1.35,0-2.44-1.09-2.44-2.44v-25.96c0-1.35,1.09-2.44,2.44-2.44h25.96c1.35,0,2.44,1.09,2.44,2.44v25.96c0,1.35-1.09,2.44-2.44,2.44Z"/>
  </g>
  <g>
    <rect class="cls-3" x="355.41" y="681.39" width="41.86" height="41.86" rx="1.44" ry="1.44"/>
    <path class="cls-8" d="M389.32,714.32c-8.65,1.39-17.31,1.39-25.96,0-1.35,0-2.44-1.09-2.44-2.44v-25.96c0-1.35,1.09-2.44,2.44-2.44h25.96c1.35,0,2.44,1.09,2.44,2.44v25.96c0,1.35-1.09,2.44-2.44,2.44Z"/>
  </g>
  <g>
    <rect class="cls-3" x="310.37" y="681.39" width="41.86" height="41.86" rx="1.44" ry="1.44"/>
    <path class="cls-8" d="M344.28,714.32c-8.65,1.39-17.31,1.39-25.96,0-1.35,0-2.44-1.09-2.44-2.44v-25.96c0-1.35,1.09-2.44,2.44-2.44h25.96c1.35,0,2.44,1.09,2.44,2.44v25.96c0,1.35-1.09,2.44-2.44,2.44Z"/>
  </g>
  <g>
    <rect class="cls-3" x="265.32" y="681.39" width="41.86" height="41.86" rx="1.44" ry="1.44"/>
    <path class="cls-8" d="M299.23,714.32c-8.65,1.39-17.31,1.39-25.96,0-1.35,0-2.44-1.09-2.44-2.44v-25.96c0-1.35,1.09-2.44,2.44-2.44h25.96c1.35,0,2.44,1.09,2.44,2.44v25.96c0,1.35-1.09,2.44-2.44,2.44Z"/>
  </g>
  <g>
    <rect class="cls-3" x="715.75" y="681.39" width="41.86" height="41.86" rx="1.44" ry="1.44"/>
    <path class="cls-8" d="M749.66,714.32c-8.65,1.39-17.31,1.39-25.96,0-1.35,0-2.44-1.09-2.44-2.44v-25.96c0-1.35,1.09-2.44,2.44-2.44h25.96c1.35,0,2.44,1.09,2.44,2.44v25.96c0,1.35-1.09,2.44-2.44,2.44Z"/>
  </g>
  <g>
    <rect class="cls-3" x="670.71" y="681.39" width="41.86" height="41.86" rx="1.44" ry="1.44"/>
    <path class="cls-8" d="M704.62,714.32c-8.65,1.39-17.31,1.39-25.96,0-1.35,0-2.44-1.09-2.44-2.44v-25.96c0-1.35,1.09-2.44,2.44-2.44h25.96c1.35,0,2.44,1.09,2.44,2.44v25.96c0,1.35-1.09,2.44-2.44,2.44Z"/>
  </g>
  <g>
    <rect class="cls-3" x="760.46" y="681.39" width="41.86" height="41.86" rx="1.44" ry="1.44"/>
    <path class="cls-8" d="M794.37,714.32c-8.65,1.39-17.31,1.39-25.96,0-1.35,0-2.44-1.09-2.44-2.44v-25.96c0-1.35,1.09-2.44,2.44-2.44h25.96c1.35,0,2.44,1.09,2.44,2.44v25.96c0,1.35-1.09,2.44-2.44,2.44Z"/>
  </g>
  <g>
    <rect class="cls-3" x="625.66" y="681.39" width="41.86" height="41.86" rx="1.44" ry="1.44"/>
    <path class="cls-8" d="M659.57,714.32c-8.65,1.39-17.31,1.39-25.96,0-1.35,0-2.44-1.09-2.44-2.44v-25.96c0-1.35,1.09-2.44,2.44-2.44h25.96c1.35,0,2.44,1.09,2.44,2.44v25.96c0,1.35-1.09,2.44-2.44,2.44Z"/>
  </g>
  <g>
    <rect class="cls-3" x="580.62" y="681.39" width="41.86" height="41.86" rx="1.44" ry="1.44"/>
    <path class="cls-8" d="M614.53,714.32c-8.65,1.39-17.31,1.39-25.96,0-1.35,0-2.44-1.09-2.44-2.44v-25.96c0-1.35,1.09-2.44,2.44-2.44h25.96c1.35,0,2.44,1.09,2.44,2.44v25.96c0,1.35-1.09,2.44-2.44,2.44Z"/>
  </g>
  <g>
    <rect class="cls-3" x="207.49" y="778.02" width="41.86" height="41.86" rx="1.44" ry="1.44"/>
    <path class="cls-8" d="M241.4,810.94c-8.65,1.39-17.31,1.39-25.96,0-1.35,0-2.44-1.09-2.44-2.44v-25.96c0-1.35,1.09-2.44,2.44-2.44h25.96c1.35,0,2.44,1.09,2.44,2.44v25.96c0,1.35-1.09,2.44-2.44,2.44Z"/>
  </g>
  <g>
    <rect class="cls-3" x="522.79" y="778.02" width="41.86" height="41.86" rx="1.44" ry="1.44"/>
    <path class="cls-8" d="M556.7,810.94c-8.65,1.39-17.31,1.39-25.96,0-1.35,0-2.44-1.09-2.44-2.44v-25.96c0-1.35,1.09-2.44,2.44-2.44h25.96c1.35,0,2.44,1.09,2.44,2.44v25.96c0,1.35-1.09,2.44-2.44,2.44Z"/>
  </g>
  <g>
    <rect class="cls-3" x="477.74" y="778.02" width="41.86" height="41.86" rx="1.44" ry="1.44"/>
    <path class="cls-8" d="M511.66,810.94c-8.65,1.39-17.31,1.39-25.96,0-1.35,0-2.44-1.09-2.44-2.44v-25.96c0-1.35,1.09-2.44,2.44-2.44h25.96c1.35,0,2.44,1.09,2.44,2.44v25.96c0,1.35-1.09,2.44-2.44,2.44Z"/>
  </g>
  <g>
    <rect class="cls-3" x="432.7" y="778.02" width="41.86" height="41.86" rx="1.44" ry="1.44"/>
    <path class="cls-8" d="M466.61,810.94c-8.65,1.39-17.31,1.39-25.96,0-1.35,0-2.44-1.09-2.44-2.44v-25.96c0-1.35,1.09-2.44,2.44-2.44h25.96c1.35,0,2.44,1.09,2.44,2.44v25.96c0,1.35-1.09,2.44-2.44,2.44Z"/>
  </g>
  <g>
    <rect class="cls-3" x="387.66" y="778.02" width="41.86" height="41.86" rx="1.44" ry="1.44"/>
    <path class="cls-8" d="M421.57,810.94c-8.65,1.39-17.31,1.39-25.96,0-1.35,0-2.44-1.09-2.44-2.44v-25.96c0-1.35,1.09-2.44,2.44-2.44h25.96c1.35,0,2.44,1.09,2.44,2.44v25.96c0,1.35-1.09,2.44-2.44,2.44Z"/>
  </g>
  <g>
    <rect class="cls-3" x="342.62" y="778.02" width="41.86" height="41.86" rx="1.44" ry="1.44"/>
    <path class="cls-8" d="M376.53,810.94c-8.65,1.39-17.31,1.39-25.96,0-1.35,0-2.44-1.09-2.44-2.44v-25.96c0-1.35,1.09-2.44,2.44-2.44h25.96c1.35,0,2.44,1.09,2.44,2.44v25.96c0,1.35-1.09,2.44-2.44,2.44Z"/>
  </g>
  <g>
    <rect class="cls-3" x="297.58" y="778.02" width="41.86" height="41.86" rx="1.44" ry="1.44"/>
    <path class="cls-8" d="M331.49,810.94c-8.65,1.39-17.31,1.39-25.96,0-1.35,0-2.44-1.09-2.44-2.44v-25.96c0-1.35,1.09-2.44,2.44-2.44h25.96c1.35,0,2.44,1.09,2.44,2.44v25.96c0,1.35-1.09,2.44-2.44,2.44Z"/>
  </g>
  <g>
    <rect class="cls-3" x="252.53" y="778.02" width="41.86" height="41.86" rx="1.44" ry="1.44"/>
    <path class="cls-8" d="M286.44,810.94c-8.65,1.39-17.31,1.39-25.96,0-1.35,0-2.44-1.09-2.44-2.44v-25.96c0-1.35,1.09-2.44,2.44-2.44h25.96c1.35,0,2.44,1.09,2.44,2.44v25.96c0,1.35-1.09,2.44-2.44,2.44Z"/>
  </g>
  <g>
    <rect class="cls-3" x="702.96" y="778.02" width="41.86" height="41.86" rx="1.44" ry="1.44"/>
    <path class="cls-8" d="M736.87,810.94c-8.65,1.39-17.31,1.39-25.96,0-1.35,0-2.44-1.09-2.44-2.44v-25.96c0-1.35,1.09-2.44,2.44-2.44h25.96c1.35,0,2.44,1.09,2.44,2.44v25.96c0,1.35-1.09,2.44-2.44,2.44Z"/>
  </g>
  <g>
    <rect class="cls-3" x="657.91" y="778.02" width="41.86" height="41.86" rx="1.44" ry="1.44"/>
    <path class="cls-8" d="M691.82,810.94c-8.65,1.39-17.31,1.39-25.96,0-1.35,0-2.44-1.09-2.44-2.44v-25.96c0-1.35,1.09-2.44,2.44-2.44h25.96c1.35,0,2.44,1.09,2.44,2.44v25.96c0,1.35-1.09,2.44-2.44,2.44Z"/>
  </g>
  <g>
    <rect class="cls-3" x="747.67" y="778.02" width="41.86" height="41.86" rx="1.44" ry="1.44"/>
    <path class="cls-8" d="M781.58,810.94c-8.65,1.39-17.31,1.39-25.96,0-1.35,0-2.44-1.09-2.44-2.44v-25.96c0-1.35,1.09-2.44,2.44-2.44h25.96c1.35,0,2.44,1.09,2.44,2.44v25.96c0,1.35-1.09,2.44-2.44,2.44Z"/>
  </g>
  <g>
    <rect class="cls-3" x="612.87" y="778.02" width="41.86" height="41.86" rx="1.44" ry="1.44"/>
    <path class="cls-8" d="M646.78,810.94c-8.65,1.39-17.31,1.39-25.96,0-1.35,0-2.44-1.09-2.44-2.44v-25.96c0-1.35,1.09-2.44,2.44-2.44h25.96c1.35,0,2.44,1.09,2.44,2.44v25.96c0,1.35-1.09,2.44-2.44,2.44Z"/>
  </g>
  <g>
    <rect class="cls-3" x="567.83" y="778.02" width="41.86" height="41.86" rx="1.44" ry="1.44"/>
    <path class="cls-8" d="M601.74,810.94c-8.65,1.39-17.31,1.39-25.96,0-1.35,0-2.44-1.09-2.44-2.44v-25.96c0-1.35,1.09-2.44,2.44-2.44h25.96c1.35,0,2.44,1.09,2.44,2.44v25.96c0,1.35-1.09,2.44-2.44,2.44Z"/>
  </g>
  <g>
    <rect class="cls-3" x="500.27" y="826.33" width="41.86" height="41.86" rx="1.44" ry="1.44"/>
    <path class="cls-8" d="M534.18,859.25c-8.65,1.39-17.31,1.39-25.96,0-1.35,0-2.44-1.09-2.44-2.44v-25.96c0-1.35,1.09-2.44,2.44-2.44h25.96c1.35,0,2.44,1.09,2.44,2.44v25.96c0,1.35-1.09,2.44-2.44,2.44Z"/>
  </g>
  <g>
    <rect class="cls-3" x="455.22" y="826.33" width="41.86" height="41.86" rx="1.44" ry="1.44"/>
    <path class="cls-8" d="M489.13,859.25c-8.65,1.39-17.31,1.39-25.96,0-1.35,0-2.44-1.09-2.44-2.44v-25.96c0-1.35,1.09-2.44,2.44-2.44h25.96c1.35,0,2.44,1.09,2.44,2.44v25.96c0,1.35-1.09,2.44-2.44,2.44Z"/>
  </g>
  <g>
    <rect class="cls-3" x="410.18" y="826.33" width="41.86" height="41.86" rx="1.44" ry="1.44"/>
    <path class="cls-8" d="M444.09,859.25c-8.65,1.39-17.31,1.39-25.96,0-1.35,0-2.44-1.09-2.44-2.44v-25.96c0-1.35,1.09-2.44,2.44-2.44h25.96c1.35,0,2.44,1.09,2.44,2.44v25.96c0,1.35-1.09,2.44-2.44,2.44Z"/>
  </g>
  <g>
    <rect class="cls-3" x="365.14" y="826.33" width="41.86" height="41.86" rx="1.44" ry="1.44"/>
    <path class="cls-8" d="M399.05,859.25c-8.65,1.39-17.31,1.39-25.96,0-1.35,0-2.44-1.09-2.44-2.44v-25.96c0-1.35,1.09-2.44,2.44-2.44h25.96c1.35,0,2.44,1.09,2.44,2.44v25.96c0,1.35-1.09,2.44-2.44,2.44Z"/>
  </g>
  <g>
    <rect class="cls-3" x="320.1" y="826.33" width="41.86" height="41.86" rx="1.44" ry="1.44"/>
    <path class="cls-8" d="M354.01,859.25c-8.65,1.39-17.31,1.39-25.96,0-1.35,0-2.44-1.09-2.44-2.44v-25.96c0-1.35,1.09-2.44,2.44-2.44h25.96c1.35,0,2.44,1.09,2.44,2.44v25.96c0,1.35-1.09,2.44-2.44,2.44Z"/>
  </g>
  <g>
    <rect class="cls-3" x="275.05" y="826.33" width="41.86" height="41.86" rx="1.44" ry="1.44"/>
    <path class="cls-8" d="M308.96,859.25c-8.65,1.39-17.31,1.39-25.96,0-1.35,0-2.44-1.09-2.44-2.44v-25.96c0-1.35,1.09-2.44,2.44-2.44h25.96c1.35,0,2.44,1.09,2.44,2.44v25.96c0,1.35-1.09,2.44-2.44,2.44Z"/>
  </g>
  <rect class="cls-3" x="680.44" y="826.33" width="41.86" height="41.86" rx="1.44" ry="1.44"/>
  <rect class="cls-3" x="725.3" y="826.33" width="64.23" height="41.86" rx="1.78" ry="1.78"/>
  <path class="cls-8" d="M782.7,857.81c-16.85,2.41-33.71,2.41-50.56,0-.73,0-1.32-.59-1.32-1.32v-25.24c0-.73.59-1.32,1.32-1.32h50.56c.73,0,1.32.59,1.32,1.32v25.24c0,.73-.59,1.32-1.32,1.32Z"/>
  <rect class="cls-3" x="316.01" y="874.64" width="364.42" height="41.86" rx="4.24" ry="4.24"/>
  <path class="cls-8" d="M669.26,902.55c-114.02,2.17-228.04,2.19-342.07,0-2.49,0-4.51-2.02-4.51-4.51v-15.67c0-2.49,2.02-4.51,4.51-4.51h342.07c2.49,0,4.51,2.02,4.51,4.51v15.67c0,2.49-2.02,4.51-4.51,4.51Z"/>
  <rect class="cls-3" x="207.49" y="826.33" width="64.23" height="41.86" rx="1.78" ry="1.78"/>
  <path class="cls-8" d="M264.89,857.81c-16.85,2.41-33.71,2.41-50.56,0-.73,0-1.32-.59-1.32-1.32v-25.24c0-.73.59-1.32,1.32-1.32h50.56c.73,0,1.32.59,1.32,1.32v25.24c0,.73-.59,1.32-1.32,1.32Z"/>
  <rect class="cls-3" x="737.09" y="729.71" width="64.23" height="41.86" rx="1.78" ry="1.78"/>
  <path class="cls-8" d="M794.49,761.18c-16.85,2.41-33.71,2.41-50.56,0-.73,0-1.32-.59-1.32-1.32v-25.24c0-.73.59-1.32,1.32-1.32h50.56c.73,0,1.32.59,1.32,1.32v25.24c0,.73-.59,1.32-1.32,1.32Z"/>
  <path class="cls-8" d="M714.35,859.25c-8.65,1.39-17.31,1.39-25.96,0-1.35,0-2.44-1.09-2.44-2.44v-25.96c0-1.35,1.09-2.44,2.44-2.44h25.96c1.35,0,2.44,1.09,2.44,2.44v25.96c0,1.35-1.09,2.44-2.44,2.44Z"/>
  <g>
    <rect class="cls-3" x="635.39" y="826.33" width="41.86" height="41.86" rx="1.44" ry="1.44"/>
    <path class="cls-8" d="M669.3,859.25c-8.65,1.39-17.31,1.39-25.96,0-1.35,0-2.44-1.09-2.44-2.44v-25.96c0-1.35,1.09-2.44,2.44-2.44h25.96c1.35,0,2.44,1.09,2.44,2.44v25.96c0,1.35-1.09,2.44-2.44,2.44Z"/>
  </g>
  <g>
    <rect class="cls-3" x="590.35" y="826.33" width="41.86" height="41.86" rx="1.44" ry="1.44"/>
    <path class="cls-8" d="M624.26,859.25c-8.65,1.39-17.31,1.39-25.96,0-1.35,0-2.44-1.09-2.44-2.44v-25.96c0-1.35,1.09-2.44,2.44-2.44h25.96c1.35,0,2.44,1.09,2.44,2.44v25.96c0,1.35-1.09,2.44-2.44,2.44Z"/>
  </g>
  <g>
    <rect class="cls-3" x="545.31" y="826.33" width="41.86" height="41.86" rx="1.44" ry="1.44"/>
    <path class="cls-8" d="M579.22,859.25c-8.65,1.39-17.31,1.39-25.96,0-1.35,0-2.44-1.09-2.44-2.44v-25.96c0-1.35,1.09-2.44,2.44-2.44h25.96c1.35,0,2.44,1.09,2.44,2.44v25.96c0,1.35-1.09,2.44-2.44,2.44Z"/>
  </g>
  <g>
    <rect class="cls-3" x="196.77" y="729.71" width="41.86" height="41.86" rx="1.44" ry="1.44"/>
    <path class="cls-8" d="M230.68,762.63c-8.65,1.39-17.31,1.39-25.96,0-1.35,0-2.44-1.09-2.44-2.44v-25.96c0-1.35,1.09-2.44,2.44-2.44h25.96c1.35,0,2.44,1.09,2.44,2.44v25.96c0,1.35-1.09,2.44-2.44,2.44Z"/>
  </g>
  <g>
    <rect class="cls-3" x="512.07" y="729.71" width="41.86" height="41.86" rx="1.44" ry="1.44"/>
    <path class="cls-8" d="M545.98,762.63c-8.65,1.39-17.31,1.39-25.96,0-1.35,0-2.44-1.09-2.44-2.44v-25.96c0-1.35,1.09-2.44,2.44-2.44h25.96c1.35,0,2.44,1.09,2.44,2.44v25.96c0,1.35-1.09,2.44-2.44,2.44Z"/>
  </g>
  <g>
    <rect class="cls-3" x="467.02" y="729.71" width="41.86" height="41.86" rx="1.44" ry="1.44"/>
    <path class="cls-8" d="M500.94,762.63c-8.65,1.39-17.31,1.39-25.96,0-1.35,0-2.44-1.09-2.44-2.44v-25.96c0-1.35,1.09-2.44,2.44-2.44h25.96c1.35,0,2.44,1.09,2.44,2.44v25.96c0,1.35-1.09,2.44-2.44,2.44Z"/>
  </g>
  <g>
    <rect class="cls-3" x="421.98" y="729.71" width="41.86" height="41.86" rx="1.44" ry="1.44"/>
    <path class="cls-8" d="M455.89,762.63c-8.65,1.39-17.31,1.39-25.96,0-1.35,0-2.44-1.09-2.44-2.44v-25.96c0-1.35,1.09-2.44,2.44-2.44h25.96c1.35,0,2.44,1.09,2.44,2.44v25.96c0,1.35-1.09,2.44-2.44,2.44Z"/>
  </g>
  <g>
    <rect class="cls-3" x="376.94" y="729.71" width="41.86" height="41.86" rx="1.44" ry="1.44"/>
    <path class="cls-8" d="M410.85,762.63c-8.65,1.39-17.31,1.39-25.96,0-1.35,0-2.44-1.09-2.44-2.44v-25.96c0-1.35,1.09-2.44,2.44-2.44h25.96c1.35,0,2.44,1.09,2.44,2.44v25.96c0,1.35-1.09,2.44-2.44,2.44Z"/>
  </g>
  <g>
    <rect class="cls-3" x="331.9" y="729.71" width="41.86" height="41.86" rx="1.44" ry="1.44"/>
    <path class="cls-8" d="M365.81,762.63c-8.65,1.39-17.31,1.39-25.96,0-1.35,0-2.44-1.09-2.44-2.44v-25.96c0-1.35,1.09-2.44,2.44-2.44h25.96c1.35,0,2.44,1.09,2.44,2.44v25.96c0,1.35-1.09,2.44-2.44,2.44Z"/>
  </g>
  <g>
    <rect class="cls-3" x="286.86" y="729.71" width="41.86" height="41.86" rx="1.44" ry="1.44"/>
    <path class="cls-8" d="M320.77,762.63c-8.65,1.39-17.31,1.39-25.96,0-1.35,0-2.44-1.09-2.44-2.44v-25.96c0-1.35,1.09-2.44,2.44-2.44h25.96c1.35,0,2.44,1.09,2.44,2.44v25.96c0,1.35-1.09,2.44-2.44,2.44Z"/>
  </g>
  <g>
    <rect class="cls-3" x="241.81" y="729.71" width="41.86" height="41.86" rx="1.44" ry="1.44"/>
    <path class="cls-8" d="M275.72,762.63c-8.65,1.39-17.31,1.39-25.96,0-1.35,0-2.44-1.09-2.44-2.44v-25.96c0-1.35,1.09-2.44,2.44-2.44h25.96c1.35,0,2.44,1.09,2.44,2.44v25.96c0,1.35-1.09,2.44-2.44,2.44Z"/>
  </g>
  <g>
    <rect class="cls-3" x="692.24" y="729.71" width="41.86" height="41.86" rx="1.44" ry="1.44"/>
    <path class="cls-8" d="M726.15,762.63c-8.65,1.39-17.31,1.39-25.96,0-1.35,0-2.44-1.09-2.44-2.44v-25.96c0-1.35,1.09-2.44,2.44-2.44h25.96c1.35,0,2.44,1.09,2.44,2.44v25.96c0,1.35-1.09,2.44-2.44,2.44Z"/>
  </g>
  <g>
    <rect class="cls-3" x="647.19" y="729.71" width="41.86" height="41.86" rx="1.44" ry="1.44"/>
    <path class="cls-8" d="M681.1,762.63c-8.65,1.39-17.31,1.39-25.96,0-1.35,0-2.44-1.09-2.44-2.44v-25.96c0-1.35,1.09-2.44,2.44-2.44h25.96c1.35,0,2.44,1.09,2.44,2.44v25.96c0,1.35-1.09,2.44-2.44,2.44Z"/>
  </g>
  <g>
    <rect class="cls-3" x="602.15" y="729.71" width="41.86" height="41.86" rx="1.44" ry="1.44"/>
    <path class="cls-8" d="M636.06,762.63c-8.65,1.39-17.31,1.39-25.96,0-1.35,0-2.44-1.09-2.44-2.44v-25.96c0-1.35,1.09-2.44,2.44-2.44h25.96c1.35,0,2.44,1.09,2.44,2.44v25.96c0,1.35-1.09,2.44-2.44,2.44Z"/>
  </g>
  <g>
    <rect class="cls-3" x="557.11" y="729.71" width="41.86" height="41.86" rx="1.44" ry="1.44"/>
    <path class="cls-8" d="M591.02,762.63c-8.65,1.39-17.31,1.39-25.96,0-1.35,0-2.44-1.09-2.44-2.44v-25.96c0-1.35,1.09-2.44,2.44-2.44h25.96c1.35,0,2.44,1.09,2.44,2.44v25.96c0,1.35-1.09,2.44-2.44,2.44Z"/>
  </g>
  <rect class="cls-10" x="207.49" y="873.05" width="45.04" height="45.04" rx="1.27" ry="1.27"/>
  <g>
    <rect class="cls-10" x="546.28" y="470.18" width="6.82" height="26.35"/>
    <path class="cls-10" d="M450.09,485.18v.29h6.37v-1.53c0-6.04-4.89-10.93-10.93-10.93h0c-2.93,0-5.55,1.29-7.33,3.33-1.49,1.71-2.4,3.95-2.4,6.4v14.26h6.8c0-.93,0-11.81,0-11.81,0,0-.31-4.9,3.53-4.9,4.27,0,3.96,4.9,3.96,4.9Z"/>
    <path class="cls-10" d="M573.98,489.14l5.11-7.35v-5.88h-13.16c-6.04,0-10.93,4.31-10.93,10.74,0,3.11,1.29,5.9,3.33,7.8,1.71,1.59,3.95,2.55,6.4,2.55h14.26v-6.34c-.93,0-11.81,0-11.81,0,0,0-5.72.56-5.72-4.65,0-4.55,5.72-4.21,5.72-4.21h4.53l-5.11,7.35h7.38Z"/>
    <path class="cls-10" d="M502.19,474.77c-2.43,0-4.57.84-6.16,2.37-1.58-1.53-3.73-2.37-6.16-2.37-4.99,0-8.94,3.79-8.94,9.71v11.69h5.66v-10.58s-.28-4.35,3.52-4.35c3.41,0,3.13,4.35,3.13,4.35,0,0,.01,9.66,0,10.49h5.57c0-.83,0-10.49,0-10.49,0,0-.28-4.35,3.13-4.35,3.79,0,3.52,4.35,3.52,4.35v10.58h5.66v-11.69c0-5.92-3.95-9.71-8.94-9.71Z"/>
    <path class="cls-10" d="M534.55,474.77c-2.43,0-4.57.84-6.16,2.37-1.58-1.53-3.73-2.37-6.16-2.37-4.99,0-8.94,3.79-8.94,9.71v11.69h5.66v-10.58s-.28-4.35,3.52-4.35c3.41,0,3.13,4.35,3.13,4.35,0,0,.01,9.66,0,10.49h5.57c0-.83,0-10.49,0-10.49,0,0-.28-4.35,3.13-4.35,3.79,0,3.52,4.35,3.52,4.35v10.58h5.66v-11.69c0-5.92-3.95-9.71-8.94-9.71Z"/>
    <path class="cls-10" d="M468.13,476.34c-5.7,0-10.33,4.63-10.33,10.33s4.63,10.33,10.33,10.33,10.33-4.63,10.33-10.33-4.63-10.33-10.33-10.33ZM472.82,486.66c0,2.59-2.11,4.69-4.69,4.69s-4.69-2.11-4.69-4.69,2.11-4.69,4.69-4.69,4.69,2.11,4.69,4.69Z"/>
  </g>
  <g>
    <g>
      <path class="cls-2" d="M427.86,486.64c0,1.66-.22,3.26-.64,4.79-.55,2.06-1.45,3.98-2.64,5.68-3.31,4.8-8.85,7.94-15.12,7.94s-11.58-3.01-14.93-7.64c.25-.09.5-.19.75-.3,2.47-1.1,4.43-3.15,5.42-5.68.46-1.17.71-2.45.71-3.78,0-.67-.06-1.32-.19-1.96-.46-2.4-1.76-4.52-3.57-6.02-1.32-1.1-2.93-1.87-4.69-2.21.62-1.44,1.4-2.79,2.3-3.94,2-2.56,4.66-4.23,7.83-4.15,2.75.08,6.11,2.35,6.11,2.35,0,0,3.31-2.47,6.26-2.47,3.25,0,5.98,1.7,8.04,4.27,1.39,1.74,2.49,3.87,3.22,6.15.64,1.96,1.02,4.01,1.1,6.02.02.32.03.64.03.95Z"/>
      <path class="cls-2" d="M409.32,470.73c-3.09-2.58-7.89-3.43-7.24-8.5,4.38-.82,6.1,3.31,7.24,8.5Z"/>
    </g>
    <path class="cls-6" d="M427.86,486.64c0,10.17-8.24,18.41-18.4,18.41-6.14,0-11.58-3.01-14.93-7.64,4.01-1.43,6.89-5.26,6.89-9.77,0-5.06-3.63-9.28-8.45-10.19.62-1.44,1.4-2.79,2.3-3.94h28.24c2.78,3.45,4.35,8.5,4.35,13.13Z"/>
    <path class="cls-15" d="M427.86,486.64c0,10.17-8.24,18.41-18.4,18.41-6.14,0-11.58-3.01-14.93-7.64,4.01-1.43,6.89-5.26,6.89-9.77,0-3.21-1.46-6.08-3.76-7.99h29.08c.74,2.27,1.13,4.67,1.13,6.98Z"/>
    <path class="cls-12" d="M427.86,486.64c0,10.17-8.24,18.41-18.4,18.41-6.14,0-11.58-3.01-14.93-7.64,4.01-1.43,6.89-5.26,6.89-9.77,0-.67-.06-1.32-.19-1.96h26.61c.02.32.03.64.03.95Z"/>
    <path class="cls-4" d="M427.22,491.43c-2.1,7.85-9.26,13.62-17.77,13.62-6.14,0-11.58-3.01-14.93-7.64,2.82-1,5.08-3.2,6.17-5.98h26.52Z"/>
    <path class="cls-13" d="M424.58,497.12c-3.31,4.8-8.85,7.94-15.12,7.94s-11.58-3.01-14.93-7.64c.25-.09.5-.19.75-.3h29.3Z"/>
  </g>
  <g>
    <rect class="cls-10" x="599.13" y="467.86" width="7.62" height="29.45"/>
    <rect class="cls-10" x="601.46" y="487.88" width="7.14" height="11.72" transform="translate(1098.77 -111.29) rotate(90)"/>
    <rect class="cls-10" x="601.46" y="465.57" width="7.14" height="11.72" transform="translate(1076.47 -133.59) rotate(90)"/>
    <g>
      <rect class="cls-10" x="590.07" y="467.86" width="7.62" height="29.45" transform="translate(1187.77 965.18) rotate(-180)"/>
      <rect class="cls-10" x="588.23" y="487.88" width="7.14" height="11.72" transform="translate(1085.54 -98.06) rotate(90)"/>
      <rect class="cls-10" x="588.23" y="465.57" width="7.14" height="11.72" transform="translate(1063.23 -120.36) rotate(90)"/>
    </g>
  </g>
</svg>