<?xml version="1.0" encoding="UTF-8"?>
<svg id="Layer_1" data-name="Layer 1" xmlns="http://www.w3.org/2000/svg" viewBox="0 0 1000 1000">
  <defs>
    <style>
      .cls-1 {
        fill: #d35b44;
      }

      .cls-1, .cls-2, .cls-3, .cls-4, .cls-5, .cls-6, .cls-7 {
        fill-rule: evenodd;
      }

      .cls-8 {
        fill: #8c8c80;
      }

      .cls-9 {
        fill: #545554;
      }

      .cls-10, .cls-3 {
        fill: #fff;
      }

      .cls-11 {
        fill: #b5b5b1;
      }

      .cls-2 {
        fill: #9fc54e;
      }

      .cls-12 {
        fill: #4a494a;
      }

      .cls-4 {
        fill: #e09344;
      }

      .cls-13 {
        fill: #acacaa;
      }

      .cls-14 {
        fill: #999;
      }

      .cls-5 {
        fill: #90569e;
      }

      .cls-6 {
        fill: #2296d3;
      }

      .cls-15 {
        fill: #c6c8c6;
      }

      .cls-7 {
        fill: #f3e253;
      }

      .cls-16 {
        fill: #666053;
      }

      .cls-17 {
        fill: none;
        stroke: #737374;
        stroke-miterlimit: 10;
        stroke-width: .96px;
      }

      .cls-18 {
        fill: #171717;
      }
    </style>
  </defs>
  <path class="cls-8" d="M915.08,416.67H83.71l5.2-44.15,1.06-9.02.82-6.98,1.06-9.02.84-7.14h0s1.06-9.02,1.06-9.02l.84-7.08h0s1.06-9.02,1.06-9.02l.83-7.05h0s1.06-9.03,1.06-9.03l.83-7.07h0s1.06-9.02,1.06-9.02h0s.83-7.05.83-7.05l1.06-9.02.84-7.08h0s1.06-9.02,1.06-9.02l.83-7.07,1.06-9.02.83-7.07,1.06-9.01h0s.83-7.04.83-7.04l1.06-9.01h0s.83-7.09.83-7.09l1.07-9.03.83-7.05h0s1.06-9.03,1.06-9.03l.83-7.07h0s1.06-9.03,1.06-9.03l.83-7.04,1.06-9.02.83-7.08,1.07-9.02.83-7.07,1.06-9.02.83-7.07.24-2.04.78-6.69.04-.29.83-7.03.25-2.13.78-6.7.03-.2.2-1.7c0-18.71,15.17-33.88,33.88-33.88h680.85c18.71,0,33.89,15.17,33.89,33.88l42.15,344.45Z"/>
  <polygon class="cls-13" points="933.33 704.38 65.44 704.38 83.71 416.66 915.07 416.66 933.33 704.38"/>
  <path class="cls-8" d="M891.31,577.03H107.47c-16.64,0-30.13-14.39-30.13-32.13l6.36-128.23h831.37l6.36,128.23c0,17.75-13.49,32.13-30.13,32.13Z"/>
  <path class="cls-15" d="M884.33,561.57H116.37c-16.98,0-31.7-13.77-31.7-30.75l10.17-124.85h811.36l8.88,124.85c0,16.98-13.77,30.75-30.75,30.75Z"/>
  <path class="cls-8" d="M909.7,961.66H90.3c-21.08,0-37.82-17.72-36.63-38.76l15.35-271.32c1.1-19.43,17.17-34.61,36.63-34.61h788.44c19.44,0,35.51,15.17,36.63,34.58l15.6,271.32c1.21,21.05-15.54,38.79-36.63,38.79Z"/>
  <path class="cls-15" d="M914,945.06H87.69c-12.58,0-22.6-10.55-21.94-23.11l14.01-268.9c.68-13.02,11.44-23.24,24.48-23.24h793.87c13.06,0,23.83,10.25,24.48,23.29l13.36,268.9c.62,12.55-9.38,23.06-21.94,23.06Z"/>
  <path class="cls-11" d="M877.53,903.39H122.39c-8.49,0-15.27-7.08-14.9-15.57l8.77-201.36c.43-9.83,8.52-17.57,18.35-17.57h730.88c9.84,0,17.94,7.76,18.36,17.59l8.58,201.36c.36,8.48-6.42,15.55-14.91,15.55Z"/>
  <polygon class="cls-18" points="811.08 900.03 187.16 900.03 186.89 674.87 810.64 674.87 811.08 900.03"/>
  <g>
    <polyline class="cls-16" points="134.35 74.8 123.3 80.82 124.08 74.12 135.14 68.11"/>
    <polyline class="cls-16" points="132.43 90.92 121.4 96.96 122.18 90.27 133.22 84.22"/>
    <polyline class="cls-16" points="130.5 107.02 119.5 113.08 120.29 106.38 131.31 100.32"/>
    <polyline class="cls-16" points="128.58 123.13 117.6 129.15 118.4 122.45 129.38 116.43"/>
    <polyline class="cls-16" points="126.66 139.24 115.7 145.25 116.49 138.55 127.46 132.55"/>
    <polyline class="cls-16" points="124.73 155.35 113.81 161.33 114.6 154.63 125.54 148.65"/>
    <polyline class="cls-16" points="122.81 171.46 111.92 177.39 112.71 170.69 123.62 164.76"/>
    <polyline class="cls-16" points="120.87 187.56 110.02 193.43 110.82 186.72 121.69 180.86"/>
    <polyline class="cls-16" points="118.97 203.67 108.13 209.49 108.92 202.79 119.77 196.98"/>
    <polyline class="cls-16" points="117.05 219.79 106.24 225.51 107.03 218.81 117.85 213.09"/>
    <polyline class="cls-16" points="115.13 235.89 104.35 241.6 105.13 234.9 115.92 229.19"/>
    <polyline class="cls-16" points="113.21 252 102.45 257.7 103.24 251 114 245.3"/>
    <polyline class="cls-16" points="111.28 268.11 100.55 273.8 101.34 267.1 112.07 261.41"/>
    <polyline class="cls-16" points="109.36 284.21 98.65 289.88 99.44 283.18 110.16 277.51"/>
    <polyline class="cls-16" points="107.44 300.32 96.76 305.98 97.55 299.28 108.24 293.62"/>
    <polyline class="cls-16" points="105.52 316.4 94.86 322.05 95.65 315.35 106.31 309.71"/>
    <polyline class="cls-16" points="103.59 332.51 92.96 338.14 93.75 331.44 104.38 325.81"/>
    <polyline class="cls-16" points="101.69 348.64 91.06 354.27 91.85 347.57 102.49 341.94"/>
    <polyline class="cls-16" points="99.75 364.76 89.17 370.37 89.95 363.67 100.55 358.06"/>
  </g>
  <g>
    <polyline class="cls-16" points="858.48 74.8 874.3 83.4 873.48 76.69 857.52 68.1"/>
    <polyline class="cls-16" points="860.82 90.93 876.25 99.32 875.42 92.61 859.85 84.23"/>
    <polyline class="cls-16" points="863.15 107 878.19 115.17 877.36 108.46 862.18 100.29"/>
    <polyline class="cls-16" points="865.44 123.11 880.13 131.1 879.31 124.39 864.47 116.43"/>
    <polyline class="cls-16" points="867.76 139.23 882.08 147 881.26 140.29 866.79 132.53"/>
    <polyline class="cls-16" points="870.1 155.35 884.03 162.9 883.21 156.2 869.13 148.65"/>
    <polyline class="cls-16" points="872.41 171.46 885.97 178.82 885.19 172.39 871.44 164.76"/>
    <polyline class="cls-16" points="874.73 187.56 887.92 194.7 887.13 188.27 873.77 180.86"/>
    <polyline class="cls-16" points="877.04 203.69 889.87 210.63 889.08 204.19 876.09 196.98"/>
    <polyline class="cls-16" points="879.36 219.79 891.81 226.54 891.02 220.09 878.4 213.09"/>
    <polyline class="cls-16" points="881.68 235.88 893.76 242.42 892.97 235.97 880.72 229.17"/>
    <polyline class="cls-16" points="884 252.01 895.7 258.35 894.91 251.89 883.04 245.3"/>
    <polyline class="cls-16" points="886.31 268.11 897.65 274.25 896.86 267.79 885.36 261.4"/>
    <polyline class="cls-16" points="888.65 284.23 899.6 290.16 898.81 283.69 887.7 277.53"/>
    <polyline class="cls-16" points="890.96 300.33 901.54 306.06 900.75 299.59 890 293.62"/>
    <polyline class="cls-16" points="893.29 316.45 903.49 321.97 902.7 315.49 892.34 309.74"/>
    <polyline class="cls-16" points="895.61 332.56 905.44 337.88 904.64 331.4 894.65 325.85"/>
    <polyline class="cls-16" points="897.92 348.66 907.38 353.79 906.59 347.3 896.96 341.96"/>
    <polyline class="cls-16" points="900.26 364.77 909.33 369.68 908.53 363.19 899.3 358.07"/>
  </g>
  <path class="cls-13" d="M906.19,405.97H94.83l4.92-41.22.8-6.7,1.12-9.41.79-6.7,1.13-9.41.79-6.71,1.13-9.41.79-6.7,1.12-9.41.8-6.7,1.12-9.41.8-6.7,1.12-9.41.8-6.7,1.12-9.41.8-6.7,1.12-9.41.79-6.7,1.13-9.41.79-6.7,1.13-9.41.79-6.7,1.13-9.41.79-6.7,1.12-9.41.8-6.7,1.12-9.41.8-6.7,1.12-9.41.8-6.7,1.12-9.41.8-6.7,1.12-9.41.8-6.7,1.12-9.41.79-6.7,1.13-9.41.79-6.7.91-7.6c1.41-11.79,11.41-20.66,23.27-20.66h673.81c11.65,0,21.54,8.55,23.2,20.09l1.18,8.15.97,6.71,1.35,9.41.97,6.7,1.36,9.4.97,6.71,1.35,9.41.97,6.7,1.36,9.41.97,6.7,1.36,9.41.96,6.7,1.36,9.41.97,6.7,1.36,9.41.97,6.7,1.35,9.41.97,6.7,1.36,9.41.97,6.7,1.35,9.41.97,6.71,1.36,9.41.97,6.7,1.35,9.41.97,6.7,1.36,9.41.97,6.71,1.35,9.4.97,6.7,1.36,9.41.97,6.71,1.36,9.41.97,6.7,1.35,9.41.97,6.7,1.36,9.41.97,6.7,5.93,41.21Z"/>
  <g>
    <path class="cls-16" d="M153.24,71.42c0,1.86-1.49,3.36-3.34,3.36l-15.55.03.79-6.7,14.73-.03h0c1.85,0,3.34,1.49,3.35,3.34Z"/>
    <path class="cls-16" d="M151.56,87.53c0,1.85-1.49,3.35-3.34,3.36l-15.8.03.79-6.7,14.98-.03h0c1.85,0,3.35,1.49,3.35,3.34Z"/>
    <path class="cls-16" d="M148.85,103.63c0,1.86-1.49,3.36-3.34,3.36l-15,.03.8-6.7,14.18-.03h0c1.85,0,3.34,1.49,3.35,3.34Z"/>
    <path class="cls-16" d="M146.96,119.74c0,1.85-1.49,3.35-3.34,3.36l-15.04.03.8-6.7,14.22-.03h0c1.85,0,3.35,1.49,3.35,3.34Z"/>
    <path class="cls-16" d="M145.29,135.86c0,1.85-1.49,3.35-3.34,3.35l-15.29.04.8-6.7,14.47-.04h0c1.85,0,3.35,1.5,3.35,3.35Z"/>
    <path class="cls-16" d="M143.53,151.96c0,1.85-1.49,3.35-3.34,3.36l-15.45.03.8-6.7,14.63-.03h0c1.85,0,3.34,1.49,3.35,3.34Z"/>
    <path class="cls-16" d="M142.35,168.07c0,1.85-1.49,3.35-3.34,3.35l-16.2.04.8-6.7,15.38-.04h0c1.85,0,3.35,1.5,3.35,3.35Z"/>
    <path class="cls-16" d="M139.72,184.17c0,1.86-1.49,3.36-3.34,3.36l-15.48.03.79-6.7,14.67-.03h0c1.85,0,3.35,1.49,3.35,3.34Z"/>
    <path class="cls-16" d="M137.96,200.29c0,1.85-1.49,3.35-3.34,3.36l-15.64.03.79-6.7,14.83-.03h0c1.85,0,3.35,1.49,3.35,3.34Z"/>
    <path class="cls-16" d="M136.07,216.39c0,1.86-1.49,3.36-3.34,3.36l-15.68.04.79-6.7,14.87-.04h0c1.85,0,3.35,1.49,3.35,3.34Z"/>
    <path class="cls-16" d="M134.4,232.5c0,1.85-1.49,3.35-3.34,3.36l-15.93.03.79-6.7,15.13-.03c.93,0,1.76.37,2.36.98.61.6.99,1.44.99,2.36Z"/>
    <path class="cls-16" d="M131.68,248.61c0,1.85-1.49,3.35-3.34,3.35l-15.14.04.8-6.7,14.31-.04h0c1.85,0,3.35,1.5,3.35,3.35Z"/>
    <path class="cls-16" d="M128.47,264.72c0,1.85-1.49,3.36-3.34,3.36l-13.84.03.8-6.7,13.02-.03h0c1.85,0,3.34,1.49,3.35,3.34Z"/>
    <path class="cls-16" d="M127.29,280.83c0,1.85-1.49,3.35-3.34,3.36l-14.59.03.8-6.7,13.77-.03h0c1.85,0,3.35,1.49,3.35,3.34Z"/>
    <path class="cls-16" d="M124.66,296.93c0,1.86-1.49,3.36-3.34,3.36l-13.88.03.8-6.7,13.07-.03c.93,0,1.76.37,2.36.98.61.6.99,1.44.99,2.36Z"/>
    <path class="cls-16" d="M122.9,313.04c0,1.85-1.49,3.35-3.34,3.36l-14.04.03.79-6.7,13.22-.03h0c1.85,0,3.35,1.49,3.35,3.34Z"/>
    <path class="cls-16" d="M121.01,329.16c0,1.85-1.49,3.35-3.34,3.35l-14.07.04.79-6.71,13.27-.03c.92,0,1.76.37,2.36.98.61.6.99,1.44.99,2.37Z"/>
    <path class="cls-16" d="M119.34,345.26c0,1.85-1.49,3.35-3.34,3.36l-14.32.03.79-6.7,13.52-.03c.93,0,1.76.37,2.36.98.61.6.99,1.44.99,2.36Z"/>
    <path class="cls-16" d="M116.62,361.37c0,1.85-1.49,3.35-3.34,3.35l-13.53.03.8-6.7,12.71-.03h0c1.85,0,3.35,1.5,3.35,3.35Z"/>
  </g>
  <g>
    <path class="cls-16" d="M858.48,74.8l-12.12-.03c-1.85,0-3.35-1.5-3.34-3.36,0-1.85,1.5-3.34,3.35-3.34h0l11.14.02.97,6.71Z"/>
    <path class="cls-16" d="M860.8,90.92l-12.76-.03c-1.85,0-3.35-1.51-3.34-3.36,0-1.85,1.5-3.34,3.35-3.34h0l11.78.03.97,6.7Z"/>
    <path class="cls-16" d="M863.12,107.02l-12.37-.03c-1.85,0-3.34-1.5-3.34-3.36s1.5-3.34,3.35-3.34h0l11.39.02.97,6.71Z"/>
    <path class="cls-16" d="M865.44,123.13l-12.8-.03c-1.85,0-3.35-1.51-3.34-3.36,0-1.85,1.5-3.34,3.35-3.34h0l11.82.03.97,6.7Z"/>
    <path class="cls-16" d="M867.76,139.23l-13.45-.03c-1.85,0-3.35-1.5-3.34-3.35,0-1.85,1.5-3.35,3.35-3.35h0l12.47.03.97,6.7Z"/>
    <path class="cls-16" d="M870.08,155.35l-14.01-.03c-1.85,0-3.34-1.51-3.34-3.36s1.5-3.34,3.35-3.34h0l13.03.03.96,6.7Z"/>
    <path class="cls-16" d="M872.4,171.46l-15.16-.04c-1.85,0-3.35-1.5-3.34-3.35,0-.93.37-1.76.99-2.36.6-.61,1.44-.99,2.36-.99l14.18.04.97,6.7Z"/>
    <path class="cls-16" d="M874.73,187.56l-14.85-.03c-1.86,0-3.35-1.5-3.34-3.36,0-.92.37-1.76.99-2.36.6-.6,1.44-.98,2.36-.98l13.87.03.97,6.7Z"/>
    <path class="cls-16" d="M877.04,203.67l-15.4-.03c-1.85,0-3.35-1.51-3.34-3.36,0-1.85,1.5-3.34,3.35-3.34h0l14.42.03.97,6.7Z"/>
    <path class="cls-16" d="M879.37,219.79l-15.84-.04c-1.86,0-3.35-1.5-3.34-3.36,0-.93.37-1.76.99-2.36.6-.6,1.44-.98,2.36-.98l14.87.04.97,6.7Z"/>
    <path class="cls-16" d="M881.68,235.9l-16.49-.04c-1.86,0-3.35-1.51-3.35-3.36,0-1.85,1.5-3.34,3.35-3.34h0l15.51.03.97,6.71Z"/>
    <path class="cls-16" d="M884.01,252l-16.09-.04c-1.85,0-3.35-1.5-3.34-3.35,0-.93.37-1.76.99-2.36.6-.61,1.44-.99,2.36-.99l15.12.04.97,6.7Z"/>
    <path class="cls-16" d="M886.33,268.1l-15.19-.03c-1.85,0-3.35-1.51-3.34-3.36,0-1.85,1.5-3.34,3.35-3.34h0l14.21.03.97,6.7Z"/>
    <path class="cls-16" d="M888.65,284.23l-16.34-.04c-1.85,0-3.35-1.51-3.34-3.36,0-.92.37-1.76.99-2.36.6-.6,1.44-.98,2.36-.98l15.37.03.97,6.71Z"/>
    <path class="cls-16" d="M890.97,300.32l-16.03-.03c-1.86,0-3.35-1.5-3.35-3.36,0-1.85,1.5-3.34,3.35-3.34h0l15.05.03.97,6.7Z"/>
    <path class="cls-16" d="M893.29,316.44l-16.59-.04c-1.85,0-3.35-1.51-3.34-3.36,0-.93.37-1.76.99-2.36.6-.6,1.44-.98,2.36-.98l15.61.03.97,6.71Z"/>
    <path class="cls-16" d="M895.62,332.54l-17.03-.04c-1.86,0-3.35-1.5-3.35-3.35,0-1.86,1.51-3.35,3.35-3.35h0l16.06.04.97,6.7Z"/>
    <path class="cls-16" d="M897.93,348.66l-17.67-.04c-1.86,0-3.35-1.51-3.35-3.36,0-1.85,1.5-3.34,3.35-3.34h0l16.7.04.97,6.7Z"/>
    <path class="cls-16" d="M900.26,364.76l-17.28-.04c-1.85,0-3.35-1.5-3.34-3.35,0-.92.37-1.76.99-2.36.6-.61,1.44-.99,2.36-.99l16.3.04.97,6.7Z"/>
  </g>
  <path class="cls-15" d="M848.19,374.48H151.95c-8.52,0-15.15-7.41-14.21-15.88l30.54-274.89c.78-6.98,6.68-12.27,13.71-12.27h630.98c6.93,0,12.78,5.14,13.68,12.01l35.74,274.88c1.11,8.56-5.55,16.14-14.18,16.14Z"/>
  <path class="cls-17" d="M784.84,38.34l2.89,28.05v8.41l32.87,300.4s4.7,42.62,6.86,96.07c2.17,53.45,4.7,89.93,4.7,89.93l-2.53,16.61.61,39.14"/>
  <path class="cls-17" d="M210.06,38.34l-3,29.77v6.7l-27.76,301.16s-6.32,70.7-7.5,107.43c-1.18,36.73-4.12,78.37-4.12,78.37l2.54,17.61-1.58,37.6"/>
  <rect class="cls-12" x="188.02" y="474.06" width="169.93" height="66.02" rx="10.72" ry="10.72"/>
  <rect class="cls-12" x="363.88" y="474.06" width="61.46" height="66.02" rx="10.72" ry="10.72"/>
  <g>
    <rect class="cls-9" x="188.61" y="673.56" width="40.05" height="40.05" rx="1.37" ry="1.37"/>
    <path class="cls-14" d="M221.05,705.06c-8.28,1.33-16.56,1.33-24.84,0-1.29,0-2.34-1.05-2.34-2.34v-24.84c0-1.29,1.05-2.34,2.34-2.34h24.84c1.29,0,2.34,1.05,2.34,2.34v24.84c0,1.29-1.05,2.34-2.34,2.34Z"/>
  </g>
  <g>
    <rect class="cls-9" x="490.28" y="673.56" width="40.05" height="40.05" rx="1.37" ry="1.37"/>
    <path class="cls-14" d="M522.73,705.06c-8.28,1.33-16.56,1.33-24.84,0-1.29,0-2.34-1.05-2.34-2.34v-24.84c0-1.29,1.05-2.34,2.34-2.34h24.84c1.29,0,2.34,1.05,2.34,2.34v24.84c0,1.29-1.05,2.34-2.34,2.34Z"/>
  </g>
  <g>
    <rect class="cls-9" x="447.19" y="673.56" width="40.05" height="40.05" rx="1.37" ry="1.37"/>
    <path class="cls-14" d="M479.63,705.06c-8.28,1.33-16.56,1.33-24.84,0-1.29,0-2.34-1.05-2.34-2.34v-24.84c0-1.29,1.05-2.34,2.34-2.34h24.84c1.29,0,2.34,1.05,2.34,2.34v24.84c0,1.29-1.05,2.34-2.34,2.34Z"/>
  </g>
  <g>
    <rect class="cls-9" x="404.09" y="673.56" width="40.05" height="40.05" rx="1.37" ry="1.37"/>
    <path class="cls-14" d="M436.54,705.06c-8.28,1.33-16.56,1.33-24.84,0-1.29,0-2.34-1.05-2.34-2.34v-24.84c0-1.29,1.05-2.34,2.34-2.34h24.84c1.29,0,2.34,1.05,2.34,2.34v24.84c0,1.29-1.05,2.34-2.34,2.34Z"/>
  </g>
  <g>
    <rect class="cls-9" x="360.99" y="673.56" width="40.05" height="40.05" rx="1.37" ry="1.37"/>
    <path class="cls-14" d="M393.44,705.06c-8.28,1.33-16.56,1.33-24.84,0-1.29,0-2.34-1.05-2.34-2.34v-24.84c0-1.29,1.05-2.34,2.34-2.34h24.84c1.29,0,2.34,1.05,2.34,2.34v24.84c0,1.29-1.05,2.34-2.34,2.34Z"/>
  </g>
  <g>
    <rect class="cls-9" x="317.9" y="673.56" width="40.05" height="40.05" rx="1.37" ry="1.37"/>
    <path class="cls-14" d="M350.34,705.06c-8.28,1.33-16.56,1.33-24.84,0-1.29,0-2.34-1.05-2.34-2.34v-24.84c0-1.29,1.05-2.34,2.34-2.34h24.84c1.29,0,2.34,1.05,2.34,2.34v24.84c0,1.29-1.05,2.34-2.34,2.34Z"/>
  </g>
  <g>
    <rect class="cls-9" x="274.8" y="673.56" width="40.05" height="40.05" rx="1.37" ry="1.37"/>
    <path class="cls-14" d="M307.25,705.06c-8.28,1.33-16.56,1.33-24.84,0-1.29,0-2.34-1.05-2.34-2.34v-24.84c0-1.29,1.05-2.34,2.34-2.34h24.84c1.29,0,2.34,1.05,2.34,2.34v24.84c0,1.29-1.05,2.34-2.34,2.34Z"/>
  </g>
  <g>
    <rect class="cls-9" x="231.71" y="673.56" width="40.05" height="40.05" rx="1.37" ry="1.37"/>
    <path class="cls-14" d="M264.15,705.06c-8.28,1.33-16.56,1.33-24.84,0-1.29,0-2.34-1.05-2.34-2.34v-24.84c0-1.29,1.05-2.34,2.34-2.34h24.84c1.29,0,2.34,1.05,2.34,2.34v24.84c0,1.29-1.05,2.34-2.34,2.34Z"/>
  </g>
  <g>
    <rect class="cls-9" x="662.67" y="673.56" width="40.05" height="40.05" rx="1.37" ry="1.37"/>
    <path class="cls-14" d="M695.11,705.06c-8.28,1.33-16.56,1.33-24.84,0-1.29,0-2.34-1.05-2.34-2.34v-24.84c0-1.29,1.05-2.34,2.34-2.34h24.84c1.29,0,2.34,1.05,2.34,2.34v24.84c0,1.29-1.05,2.34-2.34,2.34Z"/>
  </g>
  <g>
    <rect class="cls-9" x="619.57" y="673.56" width="40.05" height="40.05" rx="1.37" ry="1.37"/>
    <path class="cls-14" d="M652.02,705.06c-8.28,1.33-16.56,1.33-24.84,0-1.29,0-2.34-1.05-2.34-2.34v-24.84c0-1.29,1.05-2.34,2.34-2.34h24.84c1.29,0,2.34,1.05,2.34,2.34v24.84c0,1.29-1.05,2.34-2.34,2.34Z"/>
  </g>
  <g>
    <rect class="cls-9" x="705.45" y="673.56" width="40.05" height="40.05" rx="1.37" ry="1.37"/>
    <path class="cls-14" d="M737.9,705.06c-8.28,1.33-16.56,1.33-24.84,0-1.29,0-2.34-1.05-2.34-2.34v-24.84c0-1.29,1.05-2.34,2.34-2.34h24.84c1.29,0,2.34,1.05,2.34,2.34v24.84c0,1.29-1.05,2.34-2.34,2.34Z"/>
  </g>
  <g>
    <rect class="cls-9" x="576.48" y="673.56" width="40.05" height="40.05" rx="1.37" ry="1.37"/>
    <path class="cls-14" d="M608.92,705.06c-8.28,1.33-16.56,1.33-24.84,0-1.29,0-2.34-1.05-2.34-2.34v-24.84c0-1.29,1.05-2.34,2.34-2.34h24.84c1.29,0,2.34,1.05,2.34,2.34v24.84c0,1.29-1.05,2.34-2.34,2.34Z"/>
  </g>
  <g>
    <rect class="cls-9" x="533.38" y="673.56" width="40.05" height="40.05" rx="1.37" ry="1.37"/>
    <path class="cls-14" d="M565.83,705.06c-8.28,1.33-16.56,1.33-24.84,0-1.29,0-2.34-1.05-2.34-2.34v-24.84c0-1.29,1.05-2.34,2.34-2.34h24.84c1.29,0,2.34,1.05,2.34,2.34v24.84c0,1.29-1.05,2.34-2.34,2.34Z"/>
  </g>
  <g>
    <rect class="cls-9" x="726.81" y="858.46" width="40.05" height="40.05" rx="1.37" ry="1.37"/>
    <path class="cls-14" d="M759.25,889.96c-8.28,1.33-16.56,1.33-24.84,0-1.29,0-2.34-1.05-2.34-2.34v-24.84c0-1.29,1.05-2.34,2.34-2.34h24.84c1.29,0,2.34,1.05,2.34,2.34v24.84c0,1.29-1.05,2.34-2.34,2.34Z"/>
  </g>
  <g>
    <rect class="cls-9" x="683.71" y="858.46" width="40.05" height="40.05" rx="1.37" ry="1.37"/>
    <path class="cls-14" d="M716.16,889.96c-8.28,1.33-16.56,1.33-24.84,0-1.29,0-2.34-1.05-2.34-2.34v-24.84c0-1.29,1.05-2.34,2.34-2.34h24.84c1.29,0,2.34,1.05,2.34,2.34v24.84c0,1.29-1.05,2.34-2.34,2.34Z"/>
  </g>
  <g>
    <rect class="cls-9" x="769.59" y="858.46" width="40.05" height="40.05" rx="1.37" ry="1.37"/>
    <path class="cls-14" d="M802.03,889.96c-8.28,1.33-16.56,1.33-24.84,0-1.29,0-2.34-1.05-2.34-2.34v-24.84c0-1.29,1.05-2.34,2.34-2.34h24.84c1.29,0,2.34,1.05,2.34,2.34v24.84c0,1.29-1.05,2.34-2.34,2.34Z"/>
  </g>
  <g>
    <rect class="cls-9" x="640.61" y="858.46" width="40.05" height="40.05" rx="1.37" ry="1.37"/>
    <path class="cls-14" d="M673.06,889.96c-8.28,1.33-16.56,1.33-24.84,0-1.29,0-2.34-1.05-2.34-2.34v-24.84c0-1.29,1.05-2.34,2.34-2.34h24.84c1.29,0,2.34,1.05,2.34,2.34v24.84c0,1.29-1.05,2.34-2.34,2.34Z"/>
  </g>
  <g>
    <rect class="cls-9" x="597.52" y="858.46" width="40.05" height="40.05" rx="1.37" ry="1.37"/>
    <path class="cls-14" d="M629.96,889.96c-8.28,1.33-16.56,1.33-24.84,0-1.29,0-2.34-1.05-2.34-2.34v-24.84c0-1.29,1.05-2.34,2.34-2.34h24.84c1.29,0,2.34,1.05,2.34,2.34v24.84c0,1.29-1.05,2.34-2.34,2.34Z"/>
  </g>
  <g>
    <rect class="cls-9" x="521.8" y="766.01" width="40.05" height="40.05" rx="1.37" ry="1.37"/>
    <path class="cls-14" d="M554.25,797.51c-8.28,1.33-16.56,1.33-24.84,0-1.29,0-2.34-1.05-2.34-2.34v-24.84c0-1.29,1.05-2.34,2.34-2.34h24.84c1.29,0,2.34,1.05,2.34,2.34v24.84c0,1.29-1.05,2.34-2.34,2.34Z"/>
  </g>
  <g>
    <rect class="cls-9" x="478.71" y="766.01" width="40.05" height="40.05" rx="1.37" ry="1.37"/>
    <path class="cls-14" d="M511.15,797.51c-8.28,1.33-16.56,1.33-24.84,0-1.29,0-2.34-1.05-2.34-2.34v-24.84c0-1.29,1.05-2.34,2.34-2.34h24.84c1.29,0,2.34,1.05,2.34,2.34v24.84c0,1.29-1.05,2.34-2.34,2.34Z"/>
  </g>
  <g>
    <rect class="cls-9" x="435.61" y="766.01" width="40.05" height="40.05" rx="1.37" ry="1.37"/>
    <path class="cls-14" d="M468.06,797.51c-8.28,1.33-16.56,1.33-24.84,0-1.29,0-2.34-1.05-2.34-2.34v-24.84c0-1.29,1.05-2.34,2.34-2.34h24.84c1.29,0,2.34,1.05,2.34,2.34v24.84c0,1.29-1.05,2.34-2.34,2.34Z"/>
  </g>
  <g>
    <rect class="cls-9" x="392.51" y="766.01" width="40.05" height="40.05" rx="1.37" ry="1.37"/>
    <path class="cls-14" d="M424.96,797.51c-8.28,1.33-16.56,1.33-24.84,0-1.29,0-2.34-1.05-2.34-2.34v-24.84c0-1.29,1.05-2.34,2.34-2.34h24.84c1.29,0,2.34,1.05,2.34,2.34v24.84c0,1.29-1.05,2.34-2.34,2.34Z"/>
  </g>
  <g>
    <rect class="cls-9" x="349.42" y="766.01" width="40.05" height="40.05" rx="1.37" ry="1.37"/>
    <path class="cls-14" d="M381.86,797.51c-8.28,1.33-16.56,1.33-24.84,0-1.29,0-2.34-1.05-2.34-2.34v-24.84c0-1.29,1.05-2.34,2.34-2.34h24.84c1.29,0,2.34,1.05,2.34,2.34v24.84c0,1.29-1.05,2.34-2.34,2.34Z"/>
  </g>
  <g>
    <rect class="cls-9" x="306.32" y="766.01" width="40.05" height="40.05" rx="1.37" ry="1.37"/>
    <path class="cls-14" d="M338.77,797.51c-8.28,1.33-16.56,1.33-24.84,0-1.29,0-2.34-1.05-2.34-2.34v-24.84c0-1.29,1.05-2.34,2.34-2.34h24.84c1.29,0,2.34,1.05,2.34,2.34v24.84c0,1.29-1.05,2.34-2.34,2.34Z"/>
  </g>
  <rect class="cls-18" x="832.2" y="678.69" width="30.8" height="29.48"/>
  <g>
    <rect class="cls-9" x="263.22" y="766.01" width="40.05" height="40.05" rx="1.37" ry="1.37"/>
    <path class="cls-14" d="M295.67,797.51c-8.28,1.33-16.56,1.33-24.84,0-1.29,0-2.34-1.05-2.34-2.34v-24.84c0-1.29,1.05-2.34,2.34-2.34h24.84c1.29,0,2.34,1.05,2.34,2.34v24.84c0,1.29-1.05,2.34-2.34,2.34Z"/>
  </g>
  <g>
    <rect class="cls-9" x="694.19" y="766.01" width="40.05" height="40.05" rx="1.37" ry="1.37"/>
    <path class="cls-14" d="M726.63,797.51c-8.28,1.33-16.56,1.33-24.84,0-1.29,0-2.34-1.05-2.34-2.34v-24.84c0-1.29,1.05-2.34,2.34-2.34h24.84c1.29,0,2.34,1.05,2.34,2.34v24.84c0,1.29-1.05,2.34-2.34,2.34Z"/>
  </g>
  <g>
    <rect class="cls-9" x="651.09" y="766.01" width="40.05" height="40.05" rx="1.37" ry="1.37"/>
    <path class="cls-14" d="M683.54,797.51c-8.28,1.33-16.56,1.33-24.84,0-1.29,0-2.34-1.05-2.34-2.34v-24.84c0-1.29,1.05-2.34,2.34-2.34h24.84c1.29,0,2.34,1.05,2.34,2.34v24.84c0,1.29-1.05,2.34-2.34,2.34Z"/>
  </g>
  <path class="cls-14" d="M860.11,707.37c-7.97.1-16.25.1-24.84,0-1.29,0-2.34-1.05-2.34-2.34v-24.84c0-1.29,1.05-2.34,2.34-2.34h24.84c1.29,0,2.34,1.05,2.34,2.34v24.84c0,1.29-1.05,2.34-2.34,2.34Z"/>
  <g>
    <rect class="cls-9" x="608" y="766.01" width="40.05" height="40.05" rx="1.37" ry="1.37"/>
    <path class="cls-14" d="M640.44,797.51c-8.28,1.33-16.56,1.33-24.84,0-1.29,0-2.34-1.05-2.34-2.34v-24.84c0-1.29,1.05-2.34,2.34-2.34h24.84c1.29,0,2.34,1.05,2.34,2.34v24.84c0,1.29-1.05,2.34-2.34,2.34Z"/>
  </g>
  <g>
    <rect class="cls-9" x="564.9" y="766.01" width="40.05" height="40.05" rx="1.37" ry="1.37"/>
    <path class="cls-14" d="M597.34,797.51c-8.28,1.33-16.56,1.33-24.84,0-1.29,0-2.34-1.05-2.34-2.34v-24.84c0-1.29,1.05-2.34,2.34-2.34h24.84c1.29,0,2.34,1.05,2.34,2.34v24.84c0,1.29-1.05,2.34-2.34,2.34Z"/>
  </g>
  <g>
    <rect class="cls-9" x="500.25" y="812.23" width="40.05" height="40.05" rx="1.37" ry="1.37"/>
    <path class="cls-14" d="M532.7,843.73c-8.28,1.33-16.56,1.33-24.84,0-1.29,0-2.34-1.05-2.34-2.34v-24.84c0-1.29,1.05-2.34,2.34-2.34h24.84c1.29,0,2.34,1.05,2.34,2.34v24.84c0,1.29-1.05,2.34-2.34,2.34Z"/>
  </g>
  <g>
    <rect class="cls-9" x="457.16" y="812.23" width="40.05" height="40.05" rx="1.37" ry="1.37"/>
    <path class="cls-14" d="M489.6,843.73c-8.28,1.33-16.56,1.33-24.84,0-1.29,0-2.34-1.05-2.34-2.34v-24.84c0-1.29,1.05-2.34,2.34-2.34h24.84c1.29,0,2.34,1.05,2.34,2.34v24.84c0,1.29-1.05,2.34-2.34,2.34Z"/>
  </g>
  <g>
    <rect class="cls-9" x="414.06" y="812.23" width="40.05" height="40.05" rx="1.37" ry="1.37"/>
    <path class="cls-14" d="M446.51,843.73c-8.28,1.33-16.56,1.33-24.84,0-1.29,0-2.34-1.05-2.34-2.34v-24.84c0-1.29,1.05-2.34,2.34-2.34h24.84c1.29,0,2.34,1.05,2.34,2.34v24.84c0,1.29-1.05,2.34-2.34,2.34Z"/>
  </g>
  <g>
    <rect class="cls-9" x="370.97" y="812.23" width="40.05" height="40.05" rx="1.37" ry="1.37"/>
    <path class="cls-14" d="M403.41,843.73c-8.28,1.33-16.56,1.33-24.84,0-1.29,0-2.34-1.05-2.34-2.34v-24.84c0-1.29,1.05-2.34,2.34-2.34h24.84c1.29,0,2.34,1.05,2.34,2.34v24.84c0,1.29-1.05,2.34-2.34,2.34Z"/>
  </g>
  <g>
    <rect class="cls-9" x="327.87" y="812.23" width="40.05" height="40.05" rx="1.37" ry="1.37"/>
    <path class="cls-14" d="M360.31,843.73c-8.28,1.33-16.56,1.33-24.84,0-1.29,0-2.34-1.05-2.34-2.34v-24.84c0-1.29,1.05-2.34,2.34-2.34h24.84c1.29,0,2.34,1.05,2.34,2.34v24.84c0,1.29-1.05,2.34-2.34,2.34Z"/>
  </g>
  <g>
    <rect class="cls-9" x="315.71" y="858.46" width="40.05" height="40.05" rx="1.37" ry="1.37"/>
    <path class="cls-14" d="M348.16,889.96c-8.28,1.33-16.56,1.33-24.84,0-1.29,0-2.34-1.05-2.34-2.34v-24.84c0-1.29,1.05-2.34,2.34-2.34h24.84c1.29,0,2.34,1.05,2.34,2.34v24.84c0,1.29-1.05,2.34-2.34,2.34Z"/>
  </g>
  <g>
    <rect class="cls-9" x="188.61" y="858.46" width="40.05" height="40.05" rx="1.37" ry="1.37"/>
    <path class="cls-14" d="M221.05,889.96c-8.28,1.33-16.56,1.33-24.84,0-1.29,0-2.34-1.05-2.34-2.34v-24.84c0-1.29,1.05-2.34,2.34-2.34h24.84c1.29,0,2.34,1.05,2.34,2.34v24.84c0,1.29-1.05,2.34-2.34,2.34Z"/>
  </g>
  <g>
    <rect class="cls-9" x="232.48" y="858.46" width="40.05" height="40.05" rx="1.37" ry="1.37"/>
    <path class="cls-14" d="M264.93,889.96c-8.28,1.33-16.56,1.33-24.84,0-1.29,0-2.34-1.05-2.34-2.34v-24.84c0-1.29,1.05-2.34,2.34-2.34h24.84c1.29,0,2.34,1.05,2.34,2.34v24.84c0,1.29-1.05,2.34-2.34,2.34Z"/>
  </g>
  <g>
    <rect class="cls-9" x="284.77" y="812.23" width="40.05" height="40.05" rx="1.37" ry="1.37"/>
    <path class="cls-14" d="M317.22,843.73c-8.28,1.33-16.56,1.33-24.84,0-1.29,0-2.34-1.05-2.34-2.34v-24.84c0-1.29,1.05-2.34,2.34-2.34h24.84c1.29,0,2.34,1.05,2.34,2.34v24.84c0,1.29-1.05,2.34-2.34,2.34Z"/>
  </g>
  <rect class="cls-9" x="672.64" y="812.23" width="40.05" height="40.05" rx="1.37" ry="1.37"/>
  <g>
    <rect class="cls-9" x="359.04" y="858.46" width="235.28" height="40.05" rx="3.33" ry="3.33"/>
    <path class="cls-14" d="M587.1,886.51c-73.61,2.2-147.23,2.21-220.84,0-1.61,0-2.91-2.04-2.91-4.56v-15.85c0-2.52,1.3-4.56,2.91-4.56h220.84c1.61,0,2.91,2.04,2.91,4.56v15.85c0,2.52-1.3,4.56-2.91,4.56Z"/>
  </g>
  <g>
    <rect class="cls-9" x="188.61" y="812.23" width="92.71" height="40.05" rx="2.09" ry="2.09"/>
    <path class="cls-14" d="M273.88,842.35c-25.95,2.31-51.89,2.31-77.84,0-1.12,0-2.03-.57-2.03-1.26v-24.15c0-.7.91-1.26,2.03-1.26h77.84c1.12,0,2.03.57,2.03,1.26v24.15c0,.7-.91,1.26-2.03,1.26Z"/>
  </g>
  <g>
    <rect class="cls-9" x="715.84" y="812.23" width="93.96" height="40.05" rx="2.1" ry="2.1"/>
    <path class="cls-14" d="M802.26,842.35c-26.3,2.31-52.59,2.31-78.89,0-1.14,0-2.06-.57-2.06-1.26v-24.15c0-.7.92-1.26,2.06-1.26h78.89c1.14,0,2.06.57,2.06,1.26v24.15c0,.7-.92,1.26-2.06,1.26Z"/>
  </g>
  <g>
    <rect class="cls-9" x="748.23" y="673.56" width="61.45" height="40.05" rx="1.7" ry="1.7"/>
    <path class="cls-14" d="M803.15,703.67c-16.13,2.31-32.25,2.31-48.38,0-.7,0-1.26-.57-1.26-1.26v-24.15c0-.7.57-1.26,1.26-1.26h48.38c.7,0,1.26.57,1.26,1.26v24.15c0,.7-.57,1.26-1.26,1.26Z"/>
  </g>
  <path class="cls-14" d="M705.09,843.73c-8.28,1.33-16.56,1.33-24.84,0-1.29,0-2.34-1.05-2.34-2.34v-24.84c0-1.29,1.05-2.34,2.34-2.34h24.84c1.29,0,2.34,1.05,2.34,2.34v24.84c0,1.29-1.05,2.34-2.34,2.34Z"/>
  <g>
    <rect class="cls-9" x="629.54" y="812.23" width="40.05" height="40.05" rx="1.37" ry="1.37"/>
    <path class="cls-14" d="M661.99,843.73c-8.28,1.33-16.56,1.33-24.84,0-1.29,0-2.34-1.05-2.34-2.34v-24.84c0-1.29,1.05-2.34,2.34-2.34h24.84c1.29,0,2.34,1.05,2.34,2.34v24.84c0,1.29-1.05,2.34-2.34,2.34Z"/>
  </g>
  <g>
    <rect class="cls-9" x="586.45" y="812.23" width="40.05" height="40.05" rx="1.37" ry="1.37"/>
    <path class="cls-14" d="M618.89,843.73c-8.28,1.33-16.56,1.33-24.84,0-1.29,0-2.34-1.05-2.34-2.34v-24.84c0-1.29,1.05-2.34,2.34-2.34h24.84c1.29,0,2.34,1.05,2.34,2.34v24.84c0,1.29-1.05,2.34-2.34,2.34Z"/>
  </g>
  <g>
    <rect class="cls-9" x="543.35" y="812.23" width="40.05" height="40.05" rx="1.37" ry="1.37"/>
    <path class="cls-14" d="M575.8,843.73c-8.28,1.33-16.56,1.33-24.84,0-1.29,0-2.34-1.05-2.34-2.34v-24.84c0-1.29,1.05-2.34,2.34-2.34h24.84c1.29,0,2.34,1.05,2.34,2.34v24.84c0,1.29-1.05,2.34-2.34,2.34Z"/>
  </g>
  <g>
    <rect class="cls-9" x="295.69" y="719.78" width="40.05" height="40.05" rx="1.37" ry="1.37"/>
    <path class="cls-14" d="M328.13,751.28c-8.28,1.33-16.56,1.33-24.84,0-1.29,0-2.34-1.05-2.34-2.34v-24.84c0-1.29,1.05-2.34,2.34-2.34h24.84c1.29,0,2.34,1.05,2.34,2.34v24.84c0,1.29-1.05,2.34-2.34,2.34Z"/>
  </g>
  <g>
    <rect class="cls-9" x="252.59" y="719.78" width="40.05" height="40.05" rx="1.37" ry="1.37"/>
    <path class="cls-14" d="M285.04,751.28c-8.28,1.33-16.56,1.33-24.84,0-1.29,0-2.34-1.05-2.34-2.34v-24.84c0-1.29,1.05-2.34,2.34-2.34h24.84c1.29,0,2.34,1.05,2.34,2.34v24.84c0,1.29-1.05,2.34-2.34,2.34Z"/>
  </g>
  <g>
    <rect class="cls-9" x="597.36" y="719.78" width="40.05" height="40.05" rx="1.37" ry="1.37"/>
    <path class="cls-14" d="M629.81,751.28c-8.28,1.33-16.56,1.33-24.84,0-1.29,0-2.34-1.05-2.34-2.34v-24.84c0-1.29,1.05-2.34,2.34-2.34h24.84c1.29,0,2.34,1.05,2.34,2.34v24.84c0,1.29-1.05,2.34-2.34,2.34Z"/>
  </g>
  <g>
    <rect class="cls-9" x="554.26" y="719.78" width="40.05" height="40.05" rx="1.37" ry="1.37"/>
    <path class="cls-14" d="M586.71,751.28c-8.28,1.33-16.56,1.33-24.84,0-1.29,0-2.34-1.05-2.34-2.34v-24.84c0-1.29,1.05-2.34,2.34-2.34h24.84c1.29,0,2.34,1.05,2.34,2.34v24.84c0,1.29-1.05,2.34-2.34,2.34Z"/>
  </g>
  <g>
    <rect class="cls-9" x="511.17" y="719.78" width="40.05" height="40.05" rx="1.37" ry="1.37"/>
    <path class="cls-14" d="M543.61,751.28c-8.28,1.33-16.56,1.33-24.84,0-1.29,0-2.34-1.05-2.34-2.34v-24.84c0-1.29,1.05-2.34,2.34-2.34h24.84c1.29,0,2.34,1.05,2.34,2.34v24.84c0,1.29-1.05,2.34-2.34,2.34Z"/>
  </g>
  <g>
    <rect class="cls-9" x="468.07" y="719.78" width="40.05" height="40.05" rx="1.37" ry="1.37"/>
    <path class="cls-14" d="M500.52,751.28c-8.28,1.33-16.56,1.33-24.84,0-1.29,0-2.34-1.05-2.34-2.34v-24.84c0-1.29,1.05-2.34,2.34-2.34h24.84c1.29,0,2.34,1.05,2.34,2.34v24.84c0,1.29-1.05,2.34-2.34,2.34Z"/>
  </g>
  <g>
    <rect class="cls-9" x="424.98" y="719.78" width="40.05" height="40.05" rx="1.37" ry="1.37"/>
    <path class="cls-14" d="M457.42,751.28c-8.28,1.33-16.56,1.33-24.84,0-1.29,0-2.34-1.05-2.34-2.34v-24.84c0-1.29,1.05-2.34,2.34-2.34h24.84c1.29,0,2.34,1.05,2.34,2.34v24.84c0,1.29-1.05,2.34-2.34,2.34Z"/>
  </g>
  <g>
    <rect class="cls-9" x="381.88" y="719.78" width="40.05" height="40.05" rx="1.37" ry="1.37"/>
    <path class="cls-14" d="M414.32,751.28c-8.28,1.33-16.56,1.33-24.84,0-1.29,0-2.34-1.05-2.34-2.34v-24.84c0-1.29,1.05-2.34,2.34-2.34h24.84c1.29,0,2.34,1.05,2.34,2.34v24.84c0,1.29-1.05,2.34-2.34,2.34Z"/>
  </g>
  <g>
    <rect class="cls-9" x="338.78" y="719.78" width="40.05" height="40.05" rx="1.37" ry="1.37"/>
    <path class="cls-14" d="M371.23,751.28c-8.28,1.33-16.56,1.33-24.84,0-1.29,0-2.34-1.05-2.34-2.34v-24.84c0-1.29,1.05-2.34,2.34-2.34h24.84c1.29,0,2.34,1.05,2.34,2.34v24.84c0,1.29-1.05,2.34-2.34,2.34Z"/>
  </g>
  <g>
    <rect class="cls-9" x="769.75" y="719.78" width="40.05" height="40.05" rx="1.37" ry="1.37"/>
    <path class="cls-14" d="M802.19,751.28c-8.28,1.33-16.56,1.33-24.84,0-1.29,0-2.34-1.05-2.34-2.34v-24.84c0-1.29,1.05-2.34,2.34-2.34h24.84c1.29,0,2.34,1.05,2.34,2.34v24.84c0,1.29-1.05,2.34-2.34,2.34Z"/>
  </g>
  <g>
    <rect class="cls-9" x="726.65" y="719.78" width="40.05" height="40.05" rx="1.37" ry="1.37"/>
    <path class="cls-14" d="M759.1,751.28c-8.28,1.33-16.56,1.33-24.84,0-1.29,0-2.34-1.05-2.34-2.34v-24.84c0-1.29,1.05-2.34,2.34-2.34h24.84c1.29,0,2.34,1.05,2.34,2.34v24.84c0,1.29-1.05,2.34-2.34,2.34Z"/>
  </g>
  <g>
    <rect class="cls-9" x="683.55" y="719.78" width="40.05" height="40.05" rx="1.37" ry="1.37"/>
    <path class="cls-14" d="M716,751.28c-8.28,1.33-16.56,1.33-24.84,0-1.29,0-2.34-1.05-2.34-2.34v-24.84c0-1.29,1.05-2.34,2.34-2.34h24.84c1.29,0,2.34,1.05,2.34,2.34v24.84c0,1.29-1.05,2.34-2.34,2.34Z"/>
  </g>
  <g>
    <rect class="cls-9" x="640.46" y="719.78" width="40.05" height="40.05" rx="1.37" ry="1.37"/>
    <path class="cls-14" d="M672.9,751.28c-8.28,1.33-16.56,1.33-24.84,0-1.29,0-2.34-1.05-2.34-2.34v-24.84c0-1.29,1.05-2.34,2.34-2.34h24.84c1.29,0,2.34,1.05,2.34,2.34v24.84c0,1.29-1.05,2.34-2.34,2.34Z"/>
  </g>
  <rect class="cls-15" x="274.56" y="858.46" width="39.13" height="43.77" rx="1.16" ry="1.16"/>
  <g>
    <rect class="cls-9" x="188.09" y="719.78" width="61.45" height="40.05" rx="1.7" ry="1.7"/>
    <path class="cls-14" d="M243.01,749.9c-16.13,2.31-32.25,2.31-48.38,0-.7,0-1.26-.57-1.26-1.26v-24.15c0-.7.57-1.26,1.26-1.26h48.38c.7,0,1.26.57,1.26,1.26v24.15c0,.7-.57,1.26-1.26,1.26Z"/>
  </g>
  <g>
    <rect class="cls-9" x="188.09" y="766.01" width="72.02" height="40.05" rx="1.84" ry="1.84"/>
    <path class="cls-14" d="M252.45,796.12c-18.9,2.31-37.8,2.31-56.7,0-.82,0-1.48-.57-1.48-1.26v-24.15c0-.7.66-1.26,1.48-1.26h56.7c.82,0,1.48.57,1.48,1.26v24.15c0,.7-.66,1.26-1.48,1.26Z"/>
  </g>
  <g>
    <rect class="cls-9" x="737.28" y="766.01" width="72.4" height="40.05" rx="1.85" ry="1.85"/>
    <path class="cls-14" d="M801.98,796.12c-19,2.31-38,2.31-57,0-.82,0-1.49-.57-1.49-1.26v-24.15c0-.7.67-1.26,1.49-1.26h57c.82,0,1.49.57,1.49,1.26v24.15c0,.7-.67,1.26-1.49,1.26Z"/>
  </g>
  <path class="cls-3" d="M316.5,512.84c-.06.75.06,1.7.59,2.27.63.61,1.74.91,2.8.91,1.13.04,2.03-.26,2.74-.77.65-.59.93-1.46.93-2.33l.14-22.83c0-.85-.55-1.66-1.07-2.23-.65-.55-1.58-.81-2.63-.77-.99,0-2.15.36-2.8.93-.65.59-.65,1.48-.65,2.23l-.06,22.6h0Z"/>
  <path class="cls-3" d="M262.58,514.76v-18.22c0-1.52-.83-1.8-2.03-1.8h-11.07c-3.61,0-11.8,2.35-11.8,10.87,0,9.55,7.64,11.66,13.79,11.66,3.04,0,2.92-6.43,0-6.43-3.22,0-6.02-.41-6.02-5.23,0-3.63,2.92-4.62,6.41-4.62s3.65.57,3.65,2.39v11.11c0,3.61,7.07,3.71,7.07.26h0Z"/>
  <path class="cls-3" d="M264.68,520.92v-24.24c0-1.52.81-1.82,2.11-1.82h10.97c3.61,0,11.86,2.39,11.86,10.87,0,9.57-7.66,11.66-13.79,11.66-3.1,0-2.92-6.35,0-6.35,3.16,0,5.98-.47,5.98-5.31,0-3.61-2.94-4.56-6.39-4.56s-3.61.53-3.61,2.33v17.09c0,3.65-7.12,3.75-7.12.32h0Z"/>
  <path class="cls-3" d="M290.75,520.92v-24.24c0-1.52.81-1.82,2.03-1.82h11.03c3.65,0,11.82,2.39,11.82,10.87,0,9.57-7.66,11.66-13.82,11.66-3.04,0-2.9-6.35,0-6.35,3.24,0,6.04-.47,6.04-5.31,0-3.61-2.92-4.56-6.43-4.56s-3.61.53-3.61,2.33v17.09c0,3.65-7.07,3.75-7.07.32h0Z"/>
  <path class="cls-3" d="M338.6,506.82c-.41.71-1.22,2.23.89,2.23h4.44c.69,0,1.52-1.11,2.52-2.74.91-1.7,2.74-4.6,2.74-4.6v-5.74c0-.95-.41-1.22-2.53-1.22h-10.58c-2.94,0-11.01,3.22-11.01,10.87s4.76,11.78,10.46,11.78h12.14c2.39,0,2.39-6.25-.14-6.25h-10.74c-1.84,0-4.36-1.92-4.36-5.31s2.52-4.54,4.64-4.54,4.85-.43,3.63,1.8c-1.22,2.23-1.99,3.63-2.11,3.73h0Z"/>
  <g>
    <path class="cls-6" d="M239.32,525.47c-1,1.68-2.01,2.93-3.22,4.09-1.39,1.21-1.75,2.3-4.92,2.71-2.21.4-4.14-.42-4.9-.75-2.21-1.02-3.39-1.37-4.73-1.37-1.3,0-2.44.33-4.63,1.35-.67.34-2.53,1.15-4.78.75-2.32-.41-3.52-1.3-4.36-2.05-1.79-1.57-3.14-3.08-4.34-4.81l35.9.09h0Z"/>
    <path class="cls-2" d="M198.37,497.7c1.06-2.34,2.41-3.93,3.78-5.01,3.49-2.86,9.17-3.06,11.78-2.37,2.14.55,3.67,1.84,6.11,1.85,2.51,0,3.96-1.29,5.97-1.84,2.63-.67,8.32-.45,12.03,2.41,1.11.82,2.11,1.97,2.68,2.58-1.31.99-2.14,1.69-2.79,2.37h-39.56s0,0,0,0Z"/>
    <path class="cls-7" d="M237.93,497.69c-.63.68-1.07,1.34-1.57,2.26-.61,1.1-1.32,2.54-1.49,4.76l-38.23.02c.02-.4.06-.8.1-1.18.35-2.35.92-4.29,1.63-5.86h39.56s0,0,0,0Z"/>
    <path class="cls-4" d="M234.88,504.71c-.05.54-.04,1.46-.01,2.04.11,1.63.67,3.44,1.39,4.9l-38.9-.07c-.52-2.35-.83-4.78-.72-6.84l38.23-.02h0Z"/>
    <path class="cls-1" d="M236.26,511.65c.34.69.72,1.29,1.1,1.77,2.57,3.27,3.66,3.28,5.67,4.3-.16.34-.29.67-.42.98l-42.99-.08c-.82-1.82-1.68-4.38-2.26-7.04l38.9.07h0Z"/>
    <path class="cls-5" d="M242.61,518.71c-1.26,2.92-2.26,5.06-3.28,6.76l-35.9-.09c-1.2-1.73-2.26-3.67-3.49-6.1-.1-.22-.21-.44-.31-.66l42.99.08h0Z"/>
    <path class="cls-2" d="M230.14,481.43c-.21,1.5-.95,3.4-2.13,4.62-1.3,1.37-3.28,2.86-4.47,3.61-.67.41-2.36.47-3.78.61-.18-1.23-.23-2.32.21-3.47.48-1.36,1.15-3.34,2.18-4.69,1.29-1.7,2.73-2.86,3.54-3.27,1.08-.54,2.86-1.35,4.42-1.62.06,1.36.26,2.92.03,4.22Z"/>
  </g>
  <g>
    <path class="cls-10" d="M380.82,522.33h-8.31v-.6c.08,0,.19,0,.33-.02s.37-.06.7-.15c.32-.09.55-.29.69-.62.14-.33.22-.88.26-1.66l.04-1.74v-17.91l-.04-1.73c-.04-.8-.11-1.36-.24-1.68-.12-.31-.37-.52-.73-.62l-.95-.15v-.6h8.26v.6l-.95.11c-.36.08-.61.26-.73.55-.12.29-.2.86-.24,1.72l-.04,1.73v18.06l.04,1.73c.04.83.12,1.39.26,1.68.13.29.38.48.75.58l.92.11v.6Z"/>
    <path class="cls-10" d="M389,522.33h-8.31v-.6c.08,0,.19,0,.33-.02s.37-.06.7-.15c.32-.09.55-.29.69-.62.14-.33.22-.88.26-1.66l.04-1.74v-17.91l-.04-1.73c-.04-.8-.11-1.36-.24-1.68-.12-.31-.37-.52-.73-.62l-.95-.15v-.6h8.26v.6l-.95.11c-.36.08-.61.26-.73.55-.12.29-.2.86-.24,1.72l-.04,1.73v18.06l.04,1.73c.04.83.12,1.39.26,1.68.13.29.38.48.75.58l.92.11v.6Z"/>
  </g>
  <g>
    <path class="cls-10" d="M405.06,513.5c-1.2.3-1.34.42-1.34,2.42v2.36c0,1.08.02,2.03.14,2.81-1.44.45-3.53,1.11-5.47,1.11-5.57,0-9.14-3.95-9.14-9.93,0-6.82,4.44-10.41,9.5-10.41,1.94,0,3.82.6,4.68.84.07,1.05.19,2.6.38,4.96l-.89.21c-.6-3.32-2.4-4.75-4.66-4.75-2.88,0-5.38,3.23-5.38,8.61,0,4.52,1.78,9.21,5.71,9.21.48,0,1.03-.09,1.34-.36.36-.27.55-.75.55-1.65v-2.84c0-2.09-.12-2.33-2.64-2.6v-1.02h7.2v1.02Z"/>
    <path class="cls-10" d="M414.95,507.2c-.5-1.88-1.39-4.1-3.36-4.1-1.34,0-2.33,1.26-2.33,2.96s.86,2.6,2.98,3.92c2.52,1.53,4.25,3.2,4.25,6.16,0,3.41-2.33,6.07-5.83,6.07-.86,0-1.7-.15-2.42-.42-.67-.24-1.13-.48-1.46-.66-.22-.75-.53-3.26-.7-5.08l.84-.33c.48,1.91,1.9,5.26,4.2,5.26,1.46,0,2.4-1.26,2.4-3.14,0-1.76-1.06-2.87-2.86-4.07-2.47-1.55-4.18-3.17-4.18-6.04,0-3.29,2.09-5.86,5.5-5.86,1.54,0,2.9.6,3.34.81.1,1.11.26,2.42.46,4.28l-.82.24Z"/>
  </g>
</svg>