<svg xmlns="http://www.w3.org/2000/svg" id="TEXT" viewBox="0 0 1000 1000"><defs><style>.cls-2{fill:#1f7bd1}.cls-3{fill:#3e3a25}.cls-8{fill:#69604c}.cls-9{fill:#e2d4ae}.cls-10{fill:#fff}.cls-14{fill:#f0e4bf}.cls-17{fill:#161616}</style></defs><path d="M933.82 412.9H64.91l5.44-46.14 1.11-9.43.86-7.3 1.11-9.43.88-7.46 1.11-9.43.88-7.4 1.11-9.43.87-7.37 1.11-9.44.87-7.39 1.11-9.43.87-7.37 1.11-9.43.88-7.4 1.11-9.43.87-7.39 1.11-9.43.87-7.39 1.11-9.42.87-7.36 1.11-9.42.87-7.41 1.12-9.44.87-7.37 1.11-9.44.87-7.39 1.11-9.44.87-7.36 1.11-9.43.87-7.4 1.12-9.43.87-7.39 1.11-9.43.87-7.39.25-2.13.82-6.99.04-.3.87-7.35.26-2.23.82-7 .03-.21.21-1.78c0-19.56 15.85-35.41 35.41-35.41h711.59c19.56 0 35.42 15.85 35.42 35.41z" class="cls-9"/><path d="M952.9 713.61H45.82L64.91 412.9h868.91z" class="cls-14"/><path d="M908.98 580.51H89.75c-17.39 0-31.49-15.04-31.49-33.59l6.65-145.2h868.91l6.65 145.2c0 18.55-14.1 33.59-31.49 33.59" style="fill:#c9bc99"/><path d="M901.68 564.35H99.04c-17.75 0-33.14-14.39-33.14-32.14l10.63-130.49h848l9.28 130.49c0 17.75-14.39 32.14-32.14 32.14Z" class="cls-9"/><path d="M928.2 982.51H71.8c-22.03 0-39.53-18.52-38.28-40.51l16.04-283.57c1.15-20.3 17.95-36.18 38.28-36.18h824.05c20.32 0 37.11 15.85 38.28 36.14l16.3 283.57c1.27 22-16.24 40.54-38.28 40.54Z" style="fill:#dccfa8"/><path d="M932.7 965.16H69.07c-13.15 0-23.62-11.02-22.93-24.16l14.64-281.05c.71-13.61 11.95-24.28 25.58-24.28h829.72c13.65 0 24.91 10.71 25.59 24.35l13.96 281.04c.65 13.11-9.81 24.1-22.94 24.1Z" class="cls-14"/><path d="M894.57 921.61H105.34c-8.88 0-15.96-7.4-15.58-16.27l9.17-210.45c.45-10.27 8.9-18.37 19.18-18.37H882c10.29 0 18.75 8.11 19.18 18.38l8.96 210.45c.38 8.86-6.71 16.26-15.58 16.26Z" class="cls-9"/><path d="m117.84 55.6-11.55 6.29.82-7 11.56-6.29m-2.84 23.84-11.53 6.32.82-6.99 11.54-6.33m-2.84 23.83-11.5 6.33.82-7 11.52-6.34m-2.85 23.85-11.48 6.29.83-7.01 11.49-6.28m-2.85 23.84-11.45 6.28.82-7 11.46-6.28m-2.84 23.83-11.41 6.25.82-7 11.43-6.25m-2.85 23.84-11.39 6.2.82-7 11.4-6.19m-2.85 23.82-11.34 6.13.83-7.01 11.37-6.13m-2.85 23.85-11.33 6.08.83-7 11.34-6.08m-2.85 23.84-11.3 5.99.83-7 11.3-5.98m-2.84 23.82-11.27 5.97.82-7 11.27-5.97m-2.83 23.84-11.25 5.96.83-7 11.25-5.95m-2.84 23.83-11.22 5.94.82-7 11.22-5.94m-2.83 23.82-11.2 5.93.83-7 11.2-5.93m-2.83 23.84-11.17 5.92.82-7 11.17-5.91m-2.83 23.8-11.14 5.9.83-7 11.14-5.9m-2.85 23.83-11.11 5.89.83-7 11.11-5.88m-2.81 23.85-11.11 5.89.82-7 11.12-5.88m-2.86 23.84-11.07 5.86.82-7 11.07-5.86M874.67 55.6l16.53 8.99-.86-7.02-16.68-8.98m3.45 23.87 16.13 8.77-.86-7.02-16.28-8.76m3.45 23.8 15.72 8.54-.86-7.02-15.87-8.54m3.4 23.86 15.36 8.35-.86-7.01-15.51-8.32m3.44 23.83 14.96 8.11-.86-7.01-15.12-8.11m3.46 23.86 14.55 7.89-.86-7.01-14.71-7.89m3.44 23.85 14.17 7.68-.82-6.72-14.36-7.97m3.43 23.83 13.78 7.46-.82-6.72-13.96-7.75m3.42 23.87 13.4 7.26-.82-6.73-13.58-7.54m3.42 23.84 13.01 7.05-.82-6.73-13.19-7.32m3.42 23.81 12.63 6.84-.82-6.74-12.8-7.1m3.42 23.86 12.24 6.63-.83-6.75-12.41-6.89m3.42 23.84 11.85 6.42-.83-6.75-12.02-6.67m3.44 23.85 11.44 6.19-.83-6.76-11.61-6.45m3.41 23.84 11.06 5.99-.83-6.76-11.23-6.23m3.44 23.85 10.66 5.77-.83-6.77-10.83-6.01m3.42 23.84 10.27 5.56-.83-6.77-10.44-5.8m3.42 23.85 9.89 5.36-.83-6.78-10.06-5.58m3.44 23.84 9.48 5.13-.83-6.79-9.65-5.36" style="fill:#afa387"/><path d="M924.53 401.72H76.54l5.14-43.08.84-7 1.17-9.83.83-7 1.18-9.83.83-7.01 1.18-9.83.83-7 1.17-9.84.84-7 1.17-9.83.84-7 1.17-9.84.84-7 1.17-9.83.84-7 1.17-9.84.83-7 1.18-9.83.83-7 1.18-9.84.83-7 1.18-9.84.83-7 1.17-9.83.84-7 1.17-9.84.84-7 1.17-9.83.84-7 1.17-9.84.84-7 1.17-9.84.84-7 1.17-9.83.83-7 1.18-9.84.83-7 .95-7.94c1.47-12.32 11.92-21.59 24.32-21.59h704.24c12.18 0 22.51 8.94 24.25 21l1.23 8.52 1.01 7.01 1.41 9.84 1.01 7 1.42 9.82 1.01 7.01 1.41 9.84 1.01 7 1.42 9.83 1.01 7 1.42 9.84 1 7 1.42 9.84 1.01 7 1.42 9.83 1.01 7 1.41 9.84 1.01 7 1.42 9.84 1.01 7 1.41 9.83 1.01 7.01 1.42 9.83 1.01 7 1.41 9.83 1.01 7 1.42 9.84 1.01 7.01 1.41 9.82 1.01 7 1.42 9.84 1.01 7.01 1.42 9.83 1.01 7 1.41 9.84 1.01 7 1.42 9.83 1.01 7z" style="fill:#efe7ce"/><path d="M137.58 52.06c0 1.94-1.56 3.51-3.49 3.51l-16.25.03.83-7 15.4-.03h.01c1.93 0 3.49 1.56 3.5 3.49m-1.75 16.84c0 1.93-1.56 3.5-3.49 3.51l-16.51.03.83-7 15.66-.03h.01c1.93 0 3.5 1.56 3.5 3.49m-2.84 16.83c0 1.94-1.56 3.51-3.49 3.51l-15.68.03.84-7 14.82-.03h.01c1.93 0 3.49 1.56 3.5 3.49m-1.97 16.84c0 1.93-1.56 3.5-3.49 3.51l-15.72.03.84-7 14.86-.03h.01c1.93 0 3.5 1.56 3.5 3.49m-1.75 16.84c0 1.93-1.56 3.5-3.49 3.5l-15.98.04.84-7 15.12-.04h.01c1.93 0 3.5 1.57 3.5 3.5m-1.84 16.83c0 1.93-1.56 3.5-3.49 3.51l-16.15.03.84-7 15.29-.03c1.93 0 3.49 1.56 3.5 3.49Zm-1.23 16.84c.01 1.93-1.56 3.5-3.49 3.5l-16.93.04.84-7 16.07-.04h.01c1.93 0 3.5 1.57 3.5 3.5m-2.75 16.83a3.49 3.49 0 0 1-3.49 3.51l-16.18.03.83-7 15.33-.03h.01c1.93 0 3.5 1.56 3.5 3.49m-1.84 16.84c0 1.93-1.56 3.5-3.49 3.51l-16.35.03.83-7 15.5-.03h.01c1.93 0 3.5 1.56 3.5 3.49m-1.97 16.83a3.49 3.49 0 0 1-3.49 3.51l-16.39.04.83-7 15.54-.04h.01c1.93 0 3.5 1.56 3.5 3.49m-1.75 16.84c.01 1.93-1.56 3.5-3.49 3.51l-16.65.03.83-7 15.81-.03c.97 0 1.84.39 2.47 1.02.64.63 1.03 1.5 1.03 2.47m-2.84 16.84c0 1.93-1.56 3.5-3.49 3.5l-15.82.04.84-7 14.96-.04h.01c1.93 0 3.5 1.57 3.5 3.5m-3.36 16.83c0 1.93-1.56 3.51-3.49 3.51l-14.47.03.84-7 13.61-.03h.01c1.93 0 3.49 1.56 3.5 3.49m-1.23 16.84c.01 1.93-1.56 3.5-3.49 3.51l-15.25.03.84-7 14.39-.03h.01c1.93 0 3.5 1.56 3.5 3.49m-2.75 16.83a3.49 3.49 0 0 1-3.49 3.51l-14.51.03.84-7 13.66-.03c.97 0 1.84.39 2.47 1.02.64.63 1.03 1.5 1.03 2.47m-1.84 16.84c.01 1.93-1.56 3.5-3.49 3.51l-14.67.03.83-7 13.82-.03c1.93 0 3.5 1.56 3.5 3.49Zm-1.97 16.84c.01 1.93-1.56 3.5-3.49 3.5l-14.71.04.83-7.01 13.87-.03c.96 0 1.84.39 2.47 1.02.64.63 1.03 1.51 1.03 2.48m-1.75 16.83c.01 1.93-1.56 3.5-3.49 3.51l-14.97.03.83-7 14.13-.03c.97 0 1.84.39 2.47 1.02a3.46 3.46 0 0 1 1.03 2.47m-2.84 16.84c.01 1.93-1.56 3.5-3.49 3.5l-14.14.03.84-7 13.28-.03c1.93 0 3.5 1.57 3.5 3.5ZM874.67 55.6 862 55.57c-1.93 0-3.5-1.57-3.49-3.51 0-1.93 1.57-3.49 3.5-3.49h.01l11.64.02zm2.42 16.84-13.34-.03c-1.93-.01-3.5-1.58-3.49-3.51 0-1.93 1.57-3.49 3.5-3.49h.01l12.31.03zm2.43 16.83-12.93-.03c-1.93 0-3.49-1.57-3.49-3.51s1.57-3.49 3.5-3.49h.01l11.9.02zm2.42 16.84-13.38-.03c-1.93 0-3.5-1.58-3.49-3.51 0-1.93 1.57-3.49 3.5-3.49h.01l12.35.03zm2.43 16.83-14.06-.03c-1.93 0-3.5-1.57-3.49-3.5 0-1.93 1.57-3.5 3.5-3.5h.01l13.03.03zm2.42 16.84-14.64-.03c-1.93-.01-3.49-1.58-3.49-3.51s1.57-3.49 3.5-3.49h.01l13.62.03zm2.43 16.84-15.84-.04c-1.93 0-3.5-1.57-3.49-3.5 0-.97.39-1.84 1.03-2.47.63-.64 1.5-1.03 2.47-1.03l14.82.04zm2.43 16.83-15.52-.03c-1.94 0-3.5-1.57-3.49-3.51 0-.96.39-1.84 1.03-2.47.63-.63 1.51-1.02 2.47-1.02l14.5.03zm2.42 16.84-16.1-.03c-1.93 0-3.5-1.58-3.49-3.51 0-1.93 1.57-3.49 3.5-3.49h.01l15.07.03zm2.43 16.84-16.56-.04c-1.94 0-3.5-1.57-3.49-3.51 0-.97.39-1.84 1.03-2.47.63-.63 1.5-1.02 2.47-1.02l15.54.04zm2.42 16.84-17.23-.04a3.51 3.51 0 0 1-3.5-3.51 3.5 3.5 0 0 1 3.5-3.49h.01l16.21.03zm2.43 16.83-16.82-.04c-1.93 0-3.5-1.57-3.49-3.5 0-.97.39-1.84 1.03-2.47a3.46 3.46 0 0 1 2.47-1.03l15.8.04zm2.42 16.83-15.88-.03c-1.93 0-3.5-1.58-3.49-3.51 0-1.93 1.57-3.49 3.5-3.49h.01l14.85.03zm2.43 16.85-17.08-.04c-1.93-.01-3.5-1.58-3.49-3.51 0-.96.39-1.84 1.03-2.47.63-.63 1.5-1.02 2.47-1.02l16.06.03zm2.42 16.82-16.75-.03a3.5 3.5 0 1 1 0-7h.01l15.73.03zm2.43 16.85-17.34-.04c-1.93-.01-3.5-1.58-3.49-3.51 0-.97.39-1.84 1.03-2.47.63-.63 1.51-1.02 2.47-1.02l16.32.03zm2.43 16.83-17.8-.04c-1.94 0-3.5-1.57-3.5-3.5a3.51 3.51 0 0 1 3.5-3.5h.01l16.78.04zm2.42 16.84-18.47-.04a3.51 3.51 0 0 1-3.5-3.51 3.5 3.5 0 0 1 3.5-3.49h.01l17.45.04zm2.43 16.83-18.06-.04c-1.93 0-3.5-1.57-3.49-3.5 0-.96.39-1.84 1.03-2.47a3.46 3.46 0 0 1 2.47-1.03l17.04.04zm-54.41 10.16H136.23c-8.91 0-15.84-7.74-14.85-16.59l31.92-287.3c.81-7.3 6.98-12.82 14.33-12.82H827.1c7.24 0 13.36 5.37 14.29 12.56l37.36 287.29c1.16 8.94-5.8 16.87-14.82 16.87Z" class="cls-9"/><path d="m797.7 17.49 3.02 29.32v8.79l34.35 313.96s4.91 44.54 7.17 100.41 4.91 94 4.91 94l-2.64 17.36.64 40.91M196.97 17.49l-3.14 31.11v7l-29.01 314.76s-6.6 73.89-7.84 112.28-4.3 81.91-4.3 81.91l2.65 18.4-1.65 39.29" style="fill:none;stroke:#727272;stroke-miterlimit:10"/><rect width="236.07" height="74.31" x="381.95" y="446.77" rx="13.4" ry="13.4" style="fill:#4f4c46"/><path d="M215.8 679.62h590.34v50.09H215.8z" class="cls-17"/><path d="M192.6 726.62h613.54v50.09H192.6zm9.68 51h593.53v95.43H202.28z" class="cls-17"/><path d="M310.37 824.62h375.58v95.43H310.37zm-108.09 43.57h55.76v52.97h-55.76z" class="cls-17"/><rect width="41.86" height="41.86" x="220.28" y="681.39" class="cls-3" rx="1.44" ry="1.44"/><path d="M254.19 714.32a81.3 81.3 0 0 1-25.96 0c-1.35 0-2.44-1.09-2.44-2.44v-25.96c0-1.35 1.09-2.44 2.44-2.44h25.96c1.35 0 2.44 1.09 2.44 2.44v25.96c0 1.35-1.09 2.44-2.44 2.44" class="cls-8"/><rect width="41.86" height="41.86" x="535.58" y="681.39" class="cls-3" rx="1.44" ry="1.44"/><path d="M569.49 714.32a81.3 81.3 0 0 1-25.96 0c-1.35 0-2.44-1.09-2.44-2.44v-25.96c0-1.35 1.09-2.44 2.44-2.44h25.96c1.35 0 2.44 1.09 2.44 2.44v25.96c0 1.35-1.09 2.44-2.44 2.44" class="cls-8"/><rect width="41.86" height="41.86" x="490.54" y="681.39" class="cls-3" rx="1.44" ry="1.44"/><path d="M524.45 714.32a81.3 81.3 0 0 1-25.96 0c-1.35 0-2.44-1.09-2.44-2.44v-25.96c0-1.35 1.09-2.44 2.44-2.44h25.96c1.35 0 2.44 1.09 2.44 2.44v25.96c0 1.35-1.09 2.44-2.44 2.44" class="cls-8"/><rect width="41.86" height="41.86" x="445.49" y="681.39" class="cls-3" rx="1.44" ry="1.44"/><path d="M479.4 714.32a81.3 81.3 0 0 1-25.96 0c-1.35 0-2.44-1.09-2.44-2.44v-25.96c0-1.35 1.09-2.44 2.44-2.44h25.96c1.35 0 2.44 1.09 2.44 2.44v25.96c0 1.35-1.09 2.44-2.44 2.44" class="cls-8"/><rect width="41.86" height="41.86" x="400.45" y="681.39" class="cls-3" rx="1.44" ry="1.44"/><path d="M434.36 714.32a81.3 81.3 0 0 1-25.96 0c-1.35 0-2.44-1.09-2.44-2.44v-25.96c0-1.35 1.09-2.44 2.44-2.44h25.96c1.35 0 2.44 1.09 2.44 2.44v25.96c0 1.35-1.09 2.44-2.44 2.44" class="cls-8"/><rect width="41.86" height="41.86" x="355.41" y="681.39" class="cls-3" rx="1.44" ry="1.44"/><path d="M389.32 714.32a81.3 81.3 0 0 1-25.96 0c-1.35 0-2.44-1.09-2.44-2.44v-25.96c0-1.35 1.09-2.44 2.44-2.44h25.96c1.35 0 2.44 1.09 2.44 2.44v25.96c0 1.35-1.09 2.44-2.44 2.44" class="cls-8"/><rect width="41.86" height="41.86" x="310.37" y="681.39" class="cls-3" rx="1.44" ry="1.44"/><path d="M344.28 714.32a81.3 81.3 0 0 1-25.96 0c-1.35 0-2.44-1.09-2.44-2.44v-25.96c0-1.35 1.09-2.44 2.44-2.44h25.96c1.35 0 2.44 1.09 2.44 2.44v25.96c0 1.35-1.09 2.44-2.44 2.44" class="cls-8"/><rect width="41.86" height="41.86" x="265.32" y="681.39" class="cls-3" rx="1.44" ry="1.44"/><path d="M299.23 714.32a81.3 81.3 0 0 1-25.96 0c-1.35 0-2.44-1.09-2.44-2.44v-25.96c0-1.35 1.09-2.44 2.44-2.44h25.96c1.35 0 2.44 1.09 2.44 2.44v25.96c0 1.35-1.09 2.44-2.44 2.44" class="cls-8"/><rect width="41.86" height="41.86" x="715.75" y="681.39" class="cls-3" rx="1.44" ry="1.44"/><path d="M749.66 714.32a81.3 81.3 0 0 1-25.96 0c-1.35 0-2.44-1.09-2.44-2.44v-25.96c0-1.35 1.09-2.44 2.44-2.44h25.96c1.35 0 2.44 1.09 2.44 2.44v25.96c0 1.35-1.09 2.44-2.44 2.44" class="cls-8"/><rect width="41.86" height="41.86" x="670.71" y="681.39" class="cls-3" rx="1.44" ry="1.44"/><path d="M704.62 714.32a81.3 81.3 0 0 1-25.96 0c-1.35 0-2.44-1.09-2.44-2.44v-25.96c0-1.35 1.09-2.44 2.44-2.44h25.96c1.35 0 2.44 1.09 2.44 2.44v25.96c0 1.35-1.09 2.44-2.44 2.44" class="cls-8"/><rect width="41.86" height="41.86" x="760.46" y="681.39" class="cls-3" rx="1.44" ry="1.44"/><path d="M794.37 714.32a81.3 81.3 0 0 1-25.96 0c-1.35 0-2.44-1.09-2.44-2.44v-25.96c0-1.35 1.09-2.44 2.44-2.44h25.96c1.35 0 2.44 1.09 2.44 2.44v25.96c0 1.35-1.09 2.44-2.44 2.44" class="cls-8"/><rect width="41.86" height="41.86" x="625.66" y="681.39" class="cls-3" rx="1.44" ry="1.44"/><path d="M659.57 714.32a81.3 81.3 0 0 1-25.96 0c-1.35 0-2.44-1.09-2.44-2.44v-25.96c0-1.35 1.09-2.44 2.44-2.44h25.96c1.35 0 2.44 1.09 2.44 2.44v25.96c0 1.35-1.09 2.44-2.44 2.44" class="cls-8"/><rect width="41.86" height="41.86" x="580.62" y="681.39" class="cls-3" rx="1.44" ry="1.44"/><path d="M614.53 714.32a81.3 81.3 0 0 1-25.96 0c-1.35 0-2.44-1.09-2.44-2.44v-25.96c0-1.35 1.09-2.44 2.44-2.44h25.96c1.35 0 2.44 1.09 2.44 2.44v25.96c0 1.35-1.09 2.44-2.44 2.44" class="cls-8"/><rect width="41.86" height="41.86" x="207.49" y="778.02" class="cls-3" rx="1.44" ry="1.44"/><path d="M241.4 810.94a81.3 81.3 0 0 1-25.96 0c-1.35 0-2.44-1.09-2.44-2.44v-25.96c0-1.35 1.09-2.44 2.44-2.44h25.96c1.35 0 2.44 1.09 2.44 2.44v25.96c0 1.35-1.09 2.44-2.44 2.44" class="cls-8"/><rect width="41.86" height="41.86" x="522.79" y="778.02" class="cls-3" rx="1.44" ry="1.44"/><path d="M556.7 810.94a81.3 81.3 0 0 1-25.96 0c-1.35 0-2.44-1.09-2.44-2.44v-25.96c0-1.35 1.09-2.44 2.44-2.44h25.96c1.35 0 2.44 1.09 2.44 2.44v25.96c0 1.35-1.09 2.44-2.44 2.44" class="cls-8"/><rect width="41.86" height="41.86" x="477.74" y="778.02" class="cls-3" rx="1.44" ry="1.44"/><path d="M511.66 810.94a81.3 81.3 0 0 1-25.96 0c-1.35 0-2.44-1.09-2.44-2.44v-25.96c0-1.35 1.09-2.44 2.44-2.44h25.96c1.35 0 2.44 1.09 2.44 2.44v25.96c0 1.35-1.09 2.44-2.44 2.44" class="cls-8"/><rect width="41.86" height="41.86" x="432.7" y="778.02" class="cls-3" rx="1.44" ry="1.44"/><path d="M466.61 810.94a81.3 81.3 0 0 1-25.96 0c-1.35 0-2.44-1.09-2.44-2.44v-25.96c0-1.35 1.09-2.44 2.44-2.44h25.96c1.35 0 2.44 1.09 2.44 2.44v25.96c0 1.35-1.09 2.44-2.44 2.44" class="cls-8"/><rect width="41.86" height="41.86" x="387.66" y="778.02" class="cls-3" rx="1.44" ry="1.44"/><path d="M421.57 810.94a81.3 81.3 0 0 1-25.96 0c-1.35 0-2.44-1.09-2.44-2.44v-25.96c0-1.35 1.09-2.44 2.44-2.44h25.96c1.35 0 2.44 1.09 2.44 2.44v25.96c0 1.35-1.09 2.44-2.44 2.44" class="cls-8"/><rect width="41.86" height="41.86" x="342.62" y="778.02" class="cls-3" rx="1.44" ry="1.44"/><path d="M376.53 810.94a81.3 81.3 0 0 1-25.96 0c-1.35 0-2.44-1.09-2.44-2.44v-25.96c0-1.35 1.09-2.44 2.44-2.44h25.96c1.35 0 2.44 1.09 2.44 2.44v25.96c0 1.35-1.09 2.44-2.44 2.44" class="cls-8"/><rect width="41.86" height="41.86" x="297.58" y="778.02" class="cls-3" rx="1.44" ry="1.44"/><path d="M331.49 810.94a81.3 81.3 0 0 1-25.96 0c-1.35 0-2.44-1.09-2.44-2.44v-25.96c0-1.35 1.09-2.44 2.44-2.44h25.96c1.35 0 2.44 1.09 2.44 2.44v25.96c0 1.35-1.09 2.44-2.44 2.44" class="cls-8"/><rect width="41.86" height="41.86" x="252.53" y="778.02" class="cls-3" rx="1.44" ry="1.44"/><path d="M286.44 810.94a81.3 81.3 0 0 1-25.96 0c-1.35 0-2.44-1.09-2.44-2.44v-25.96c0-1.35 1.09-2.44 2.44-2.44h25.96c1.35 0 2.44 1.09 2.44 2.44v25.96c0 1.35-1.09 2.44-2.44 2.44" class="cls-8"/><rect width="41.86" height="41.86" x="702.96" y="778.02" class="cls-3" rx="1.44" ry="1.44"/><path d="M736.87 810.94a81.3 81.3 0 0 1-25.96 0c-1.35 0-2.44-1.09-2.44-2.44v-25.96c0-1.35 1.09-2.44 2.44-2.44h25.96c1.35 0 2.44 1.09 2.44 2.44v25.96c0 1.35-1.09 2.44-2.44 2.44" class="cls-8"/><rect width="41.86" height="41.86" x="657.91" y="778.02" class="cls-3" rx="1.44" ry="1.44"/><path d="M691.82 810.94a81.3 81.3 0 0 1-25.96 0c-1.35 0-2.44-1.09-2.44-2.44v-25.96c0-1.35 1.09-2.44 2.44-2.44h25.96c1.35 0 2.44 1.09 2.44 2.44v25.96c0 1.35-1.09 2.44-2.44 2.44" class="cls-8"/><rect width="41.86" height="41.86" x="747.67" y="778.02" class="cls-3" rx="1.44" ry="1.44"/><path d="M781.58 810.94a81.3 81.3 0 0 1-25.96 0c-1.35 0-2.44-1.09-2.44-2.44v-25.96c0-1.35 1.09-2.44 2.44-2.44h25.96c1.35 0 2.44 1.09 2.44 2.44v25.96c0 1.35-1.09 2.44-2.44 2.44" class="cls-8"/><rect width="41.86" height="41.86" x="612.87" y="778.02" class="cls-3" rx="1.44" ry="1.44"/><path d="M646.78 810.94a81.3 81.3 0 0 1-25.96 0c-1.35 0-2.44-1.09-2.44-2.44v-25.96c0-1.35 1.09-2.44 2.44-2.44h25.96c1.35 0 2.44 1.09 2.44 2.44v25.96c0 1.35-1.09 2.44-2.44 2.44" class="cls-8"/><rect width="41.86" height="41.86" x="567.83" y="778.02" class="cls-3" rx="1.44" ry="1.44"/><path d="M601.74 810.94a81.3 81.3 0 0 1-25.96 0c-1.35 0-2.44-1.09-2.44-2.44v-25.96c0-1.35 1.09-2.44 2.44-2.44h25.96c1.35 0 2.44 1.09 2.44 2.44v25.96c0 1.35-1.09 2.44-2.44 2.44" class="cls-8"/><rect width="41.86" height="41.86" x="500.27" y="826.33" class="cls-3" rx="1.44" ry="1.44"/><path d="M534.18 859.25a81.3 81.3 0 0 1-25.96 0c-1.35 0-2.44-1.09-2.44-2.44v-25.96c0-1.35 1.09-2.44 2.44-2.44h25.96c1.35 0 2.44 1.09 2.44 2.44v25.96c0 1.35-1.09 2.44-2.44 2.44" class="cls-8"/><rect width="41.86" height="41.86" x="455.22" y="826.33" class="cls-3" rx="1.44" ry="1.44"/><path d="M489.13 859.25a81.3 81.3 0 0 1-25.96 0c-1.35 0-2.44-1.09-2.44-2.44v-25.96c0-1.35 1.09-2.44 2.44-2.44h25.96c1.35 0 2.44 1.09 2.44 2.44v25.96c0 1.35-1.09 2.44-2.44 2.44" class="cls-8"/><rect width="41.86" height="41.86" x="410.18" y="826.33" class="cls-3" rx="1.44" ry="1.44"/><path d="M444.09 859.25a81.3 81.3 0 0 1-25.96 0c-1.35 0-2.44-1.09-2.44-2.44v-25.96c0-1.35 1.09-2.44 2.44-2.44h25.96c1.35 0 2.44 1.09 2.44 2.44v25.96c0 1.35-1.09 2.44-2.44 2.44" class="cls-8"/><rect width="41.86" height="41.86" x="365.14" y="826.33" class="cls-3" rx="1.44" ry="1.44"/><path d="M399.05 859.25a81.3 81.3 0 0 1-25.96 0c-1.35 0-2.44-1.09-2.44-2.44v-25.96c0-1.35 1.09-2.44 2.44-2.44h25.96c1.35 0 2.44 1.09 2.44 2.44v25.96c0 1.35-1.09 2.44-2.44 2.44" class="cls-8"/><rect width="41.86" height="41.86" x="320.1" y="826.33" class="cls-3" rx="1.44" ry="1.44"/><path d="M354.01 859.25a81.3 81.3 0 0 1-25.96 0c-1.35 0-2.44-1.09-2.44-2.44v-25.96c0-1.35 1.09-2.44 2.44-2.44h25.96c1.35 0 2.44 1.09 2.44 2.44v25.96c0 1.35-1.09 2.44-2.44 2.44" class="cls-8"/><rect width="41.86" height="41.86" x="275.05" y="826.33" class="cls-3" rx="1.44" ry="1.44"/><path d="M308.96 859.25a81.3 81.3 0 0 1-25.96 0c-1.35 0-2.44-1.09-2.44-2.44v-25.96c0-1.35 1.09-2.44 2.44-2.44h25.96c1.35 0 2.44 1.09 2.44 2.44v25.96c0 1.35-1.09 2.44-2.44 2.44" class="cls-8"/><rect width="41.86" height="41.86" x="680.44" y="826.33" class="cls-3" rx="1.44" ry="1.44"/><rect width="64.23" height="41.86" x="725.3" y="826.33" class="cls-3" rx="1.78" ry="1.78"/><path d="M782.7 857.81a177.7 177.7 0 0 1-50.56 0c-.73 0-1.32-.59-1.32-1.32v-25.24c0-.73.59-1.32 1.32-1.32h50.56c.73 0 1.32.59 1.32 1.32v25.24c0 .73-.59 1.32-1.32 1.32" class="cls-8"/><rect width="364.42" height="41.86" x="316.01" y="874.64" class="cls-3" rx="4.24" ry="4.24"/><path d="M669.26 902.55c-114.02 2.17-228.04 2.19-342.07 0-2.49 0-4.51-2.02-4.51-4.51v-15.67c0-2.49 2.02-4.51 4.51-4.51h342.07c2.49 0 4.51 2.02 4.51 4.51v15.67c0 2.49-2.02 4.51-4.51 4.51" class="cls-8"/><rect width="64.23" height="41.86" x="207.49" y="826.33" class="cls-3" rx="1.78" ry="1.78"/><path d="M264.89 857.81a177.7 177.7 0 0 1-50.56 0c-.73 0-1.32-.59-1.32-1.32v-25.24c0-.73.59-1.32 1.32-1.32h50.56c.73 0 1.32.59 1.32 1.32v25.24c0 .73-.59 1.32-1.32 1.32" class="cls-8"/><rect width="64.23" height="41.86" x="737.09" y="729.71" class="cls-3" rx="1.78" ry="1.78"/><path d="M794.49 761.18a177.7 177.7 0 0 1-50.56 0c-.73 0-1.32-.59-1.32-1.32v-25.24c0-.73.59-1.32 1.32-1.32h50.56c.73 0 1.32.59 1.32 1.32v25.24c0 .73-.59 1.32-1.32 1.32m-80.14 98.07a81.3 81.3 0 0 1-25.96 0c-1.35 0-2.44-1.09-2.44-2.44v-25.96c0-1.35 1.09-2.44 2.44-2.44h25.96c1.35 0 2.44 1.09 2.44 2.44v25.96c0 1.35-1.09 2.44-2.44 2.44" class="cls-8"/><rect width="41.86" height="41.86" x="635.39" y="826.33" class="cls-3" rx="1.44" ry="1.44"/><path d="M669.3 859.25a81.3 81.3 0 0 1-25.96 0c-1.35 0-2.44-1.09-2.44-2.44v-25.96c0-1.35 1.09-2.44 2.44-2.44h25.96c1.35 0 2.44 1.09 2.44 2.44v25.96c0 1.35-1.09 2.44-2.44 2.44" class="cls-8"/><rect width="41.86" height="41.86" x="590.35" y="826.33" class="cls-3" rx="1.44" ry="1.44"/><path d="M624.26 859.25a81.3 81.3 0 0 1-25.96 0c-1.35 0-2.44-1.09-2.44-2.44v-25.96c0-1.35 1.09-2.44 2.44-2.44h25.96c1.35 0 2.44 1.09 2.44 2.44v25.96c0 1.35-1.09 2.44-2.44 2.44" class="cls-8"/><rect width="41.86" height="41.86" x="545.31" y="826.33" class="cls-3" rx="1.44" ry="1.44"/><path d="M579.22 859.25a81.3 81.3 0 0 1-25.96 0c-1.35 0-2.44-1.09-2.44-2.44v-25.96c0-1.35 1.09-2.44 2.44-2.44h25.96c1.35 0 2.44 1.09 2.44 2.44v25.96c0 1.35-1.09 2.44-2.44 2.44" class="cls-8"/><rect width="41.86" height="41.86" x="196.77" y="729.71" class="cls-3" rx="1.44" ry="1.44"/><path d="M230.68 762.63a81.3 81.3 0 0 1-25.96 0c-1.35 0-2.44-1.09-2.44-2.44v-25.96c0-1.35 1.09-2.44 2.44-2.44h25.96c1.35 0 2.44 1.09 2.44 2.44v25.96c0 1.35-1.09 2.44-2.44 2.44" class="cls-8"/><rect width="41.86" height="41.86" x="512.07" y="729.71" class="cls-3" rx="1.44" ry="1.44"/><path d="M545.98 762.63a81.3 81.3 0 0 1-25.96 0c-1.35 0-2.44-1.09-2.44-2.44v-25.96c0-1.35 1.09-2.44 2.44-2.44h25.96c1.35 0 2.44 1.09 2.44 2.44v25.96c0 1.35-1.09 2.44-2.44 2.44" class="cls-8"/><rect width="41.86" height="41.86" x="467.02" y="729.71" class="cls-3" rx="1.44" ry="1.44"/><path d="M500.94 762.63a81.3 81.3 0 0 1-25.96 0c-1.35 0-2.44-1.09-2.44-2.44v-25.96c0-1.35 1.09-2.44 2.44-2.44h25.96c1.35 0 2.44 1.09 2.44 2.44v25.96c0 1.35-1.09 2.44-2.44 2.44" class="cls-8"/><rect width="41.86" height="41.86" x="421.98" y="729.71" class="cls-3" rx="1.44" ry="1.44"/><path d="M455.89 762.63a81.3 81.3 0 0 1-25.96 0c-1.35 0-2.44-1.09-2.44-2.44v-25.96c0-1.35 1.09-2.44 2.44-2.44h25.96c1.35 0 2.44 1.09 2.44 2.44v25.96c0 1.35-1.09 2.44-2.44 2.44" class="cls-8"/><rect width="41.86" height="41.86" x="376.94" y="729.71" class="cls-3" rx="1.44" ry="1.44"/><path d="M410.85 762.63a81.3 81.3 0 0 1-25.96 0c-1.35 0-2.44-1.09-2.44-2.44v-25.96c0-1.35 1.09-2.44 2.44-2.44h25.96c1.35 0 2.44 1.09 2.44 2.44v25.96c0 1.35-1.09 2.44-2.44 2.44" class="cls-8"/><rect width="41.86" height="41.86" x="331.9" y="729.71" class="cls-3" rx="1.44" ry="1.44"/><path d="M365.81 762.63a81.3 81.3 0 0 1-25.96 0c-1.35 0-2.44-1.09-2.44-2.44v-25.96c0-1.35 1.09-2.44 2.44-2.44h25.96c1.35 0 2.44 1.09 2.44 2.44v25.96c0 1.35-1.09 2.44-2.44 2.44" class="cls-8"/><rect width="41.86" height="41.86" x="286.86" y="729.71" class="cls-3" rx="1.44" ry="1.44"/><path d="M320.77 762.63a81.3 81.3 0 0 1-25.96 0c-1.35 0-2.44-1.09-2.44-2.44v-25.96c0-1.35 1.09-2.44 2.44-2.44h25.96c1.35 0 2.44 1.09 2.44 2.44v25.96c0 1.35-1.09 2.44-2.44 2.44" class="cls-8"/><rect width="41.86" height="41.86" x="241.81" y="729.71" class="cls-3" rx="1.44" ry="1.44"/><path d="M275.72 762.63a81.3 81.3 0 0 1-25.96 0c-1.35 0-2.44-1.09-2.44-2.44v-25.96c0-1.35 1.09-2.44 2.44-2.44h25.96c1.35 0 2.44 1.09 2.44 2.44v25.96c0 1.35-1.09 2.44-2.44 2.44" class="cls-8"/><rect width="41.86" height="41.86" x="692.24" y="729.71" class="cls-3" rx="1.44" ry="1.44"/><path d="M726.15 762.63a81.3 81.3 0 0 1-25.96 0c-1.35 0-2.44-1.09-2.44-2.44v-25.96c0-1.35 1.09-2.44 2.44-2.44h25.96c1.35 0 2.44 1.09 2.44 2.44v25.96c0 1.35-1.09 2.44-2.44 2.44" class="cls-8"/><rect width="41.86" height="41.86" x="647.19" y="729.71" class="cls-3" rx="1.44" ry="1.44"/><path d="M681.1 762.63a81.3 81.3 0 0 1-25.96 0c-1.35 0-2.44-1.09-2.44-2.44v-25.96c0-1.35 1.09-2.44 2.44-2.44h25.96c1.35 0 2.44 1.09 2.44 2.44v25.96c0 1.35-1.09 2.44-2.44 2.44" class="cls-8"/><rect width="41.86" height="41.86" x="602.15" y="729.71" class="cls-3" rx="1.44" ry="1.44"/><path d="M636.06 762.63a81.3 81.3 0 0 1-25.96 0c-1.35 0-2.44-1.09-2.44-2.44v-25.96c0-1.35 1.09-2.44 2.44-2.44h25.96c1.35 0 2.44 1.09 2.44 2.44v25.96c0 1.35-1.09 2.44-2.44 2.44" class="cls-8"/><rect width="41.86" height="41.86" x="557.11" y="729.71" class="cls-3" rx="1.44" ry="1.44"/><path d="M591.02 762.63a81.3 81.3 0 0 1-25.96 0c-1.35 0-2.44-1.09-2.44-2.44v-25.96c0-1.35 1.09-2.44 2.44-2.44h25.96c1.35 0 2.44 1.09 2.44 2.44v25.96c0 1.35-1.09 2.44-2.44 2.44" class="cls-8"/><rect width="45.04" height="45.04" x="207.49" y="873.05" class="cls-10" rx="1.27" ry="1.27"/><path d="M546.28 470.18h6.82v26.35h-6.82zm-96.19 15v.29h6.37v-1.53c0-6.04-4.89-10.93-10.93-10.93-2.93 0-5.55 1.29-7.33 3.33a9.72 9.72 0 0 0-2.4 6.4V497h6.8v-11.81s-.31-4.9 3.53-4.9c4.27 0 3.96 4.9 3.96 4.9Zm123.89 3.96 5.11-7.35v-5.88h-13.16c-6.04 0-10.93 4.31-10.93 10.74 0 3.11 1.29 5.9 3.33 7.8 1.71 1.59 3.95 2.55 6.4 2.55h14.26v-6.34h-11.81s-5.72.56-5.72-4.65c0-4.55 5.72-4.21 5.72-4.21h4.53l-5.11 7.35h7.38Zm-71.79-14.37c-2.43 0-4.57.84-6.16 2.37-1.58-1.53-3.73-2.37-6.16-2.37-4.99 0-8.94 3.79-8.94 9.71v11.69h5.66v-10.58s-.28-4.35 3.52-4.35c3.41 0 3.13 4.35 3.13 4.35s.01 9.66 0 10.49h5.57v-10.49s-.28-4.35 3.13-4.35c3.79 0 3.52 4.35 3.52 4.35v10.58h5.66v-11.69c0-5.92-3.95-9.71-8.94-9.71Zm32.36 0c-2.43 0-4.57.84-6.16 2.37-1.58-1.53-3.73-2.37-6.16-2.37-4.99 0-8.94 3.79-8.94 9.71v11.69h5.66v-10.58s-.28-4.35 3.52-4.35c3.41 0 3.13 4.35 3.13 4.35s.01 9.66 0 10.49h5.57v-10.49s-.28-4.35 3.13-4.35c3.79 0 3.52 4.35 3.52 4.35v10.58h5.66v-11.69c0-5.92-3.95-9.71-8.94-9.71Zm-66.42 1.57c-5.7 0-10.33 4.63-10.33 10.33S462.43 497 468.13 497s10.33-4.63 10.33-10.33-4.63-10.33-10.33-10.33m4.69 10.32c0 2.59-2.11 4.69-4.69 4.69s-4.69-2.11-4.69-4.69 2.11-4.69 4.69-4.69 4.69 2.11 4.69 4.69" class="cls-10"/><path d="M427.86 486.64c0 1.66-.22 3.26-.64 4.79-.55 2.06-1.45 3.98-2.64 5.68-3.31 4.8-8.85 7.94-15.12 7.94s-11.58-3.01-14.93-7.64q.375-.135.75-.3a10.37 10.37 0 0 0 5.42-5.68c.46-1.17.71-2.45.71-3.78 0-.67-.06-1.32-.19-1.96a10.4 10.4 0 0 0-8.26-8.23c.62-1.44 1.4-2.79 2.3-3.94 2-2.56 4.66-4.23 7.83-4.15 2.75.08 6.11 2.35 6.11 2.35s3.31-2.47 6.26-2.47c3.25 0 5.98 1.7 8.04 4.27 1.39 1.74 2.49 3.87 3.22 6.15.64 1.96 1.02 4.01 1.1 6.02.02.32.03.64.03.95Z" class="cls-2"/><path d="M409.32 470.73c-3.09-2.58-7.89-3.43-7.24-8.5 4.38-.82 6.1 3.31 7.24 8.5" class="cls-2"/><path d="M427.86 486.64c0 10.17-8.24 18.41-18.4 18.41-6.14 0-11.58-3.01-14.93-7.64 4.01-1.43 6.89-5.26 6.89-9.77 0-5.06-3.63-9.28-8.45-10.19.62-1.44 1.4-2.79 2.3-3.94h28.24c2.78 3.45 4.35 8.5 4.35 13.13" style="fill:#e97aa2"/><path d="M427.86 486.64c0 10.17-8.24 18.41-18.4 18.41-6.14 0-11.58-3.01-14.93-7.64 4.01-1.43 6.89-5.26 6.89-9.77 0-3.21-1.46-6.08-3.76-7.99h29.08c.74 2.27 1.13 4.67 1.13 6.98Z" style="fill:#c5332e"/><path d="M427.86 486.64c0 10.17-8.24 18.41-18.4 18.41-6.14 0-11.58-3.01-14.93-7.64 4.01-1.43 6.89-5.26 6.89-9.77 0-.67-.06-1.32-.19-1.96h26.61c.02.32.03.64.03.95Z" style="fill:#e43f21"/><path d="M427.22 491.43c-2.1 7.85-9.26 13.62-17.77 13.62-6.14 0-11.58-3.01-14.93-7.64 2.82-1 5.08-3.2 6.17-5.98h26.52Z" style="fill:#ebd13f"/><path d="M424.58 497.12c-3.31 4.8-8.85 7.94-15.12 7.94s-11.58-3.01-14.93-7.64q.375-.135.75-.3z" style="fill:#1bb2b2"/><path d="M599.13 467.86h7.62v29.45h-7.62z" class="cls-10"/><path d="M610.89 490.17v7.14h-11.72v-7.14zm.01-22.3v7.14h-11.72v-7.14zm-13.2 29.45h-7.62v-29.45h7.62z" class="cls-10"/><path d="M597.66 490.17v7.14h-11.72v-7.14zm0-22.3v7.14h-11.72v-7.14z" class="cls-10"/></svg>