<svg xmlns="http://www.w3.org/2000/svg" id="Layer_1" data-name="Layer 1" viewBox="0 0 1000 1000"><defs><style>.cls-5{fill:#211e1e}.cls-8{fill:#353031}</style></defs><path d="M721.73 418.49c.06-5.53.07-12.98.06-19.99 0-7.01 0-14.46-.06-19.99v-.31c7.9-15.49 5.77-33.41 5.77-33.41 0-13.97-16.25-14.13-16.25-14.13h-9.27l-6.59.63-1.21 46.65h-1.07l.53 20.56-.53 20.56h1.07l1.21 46.65 6.59.63h9.27s16.25-.15 16.25-14.13c0 0 2.13-17.92-5.77-33.41zm-443.46 0c-.06-5.53-.07-12.98-.06-19.99 0-7.01 0-14.46.06-19.99v-.31c-7.9-15.49-5.77-33.41-5.77-33.41 0-13.97 16.25-14.13 16.25-14.13h9.27l6.59.63 1.21 46.65h1.07l-.53 20.56.53 20.56h-1.07l-1.21 46.65-6.59.63h-9.27s-16.25-.15-16.25-14.13c0 0-2.13-17.92 5.77-33.41z" style="fill:#bd2639"/><path d="M710.43 54.59v890.6c0 19.16-15.53 34.7-34.7 34.7H324.26c-19.16 0-34.7-15.54-34.7-34.7V54.59c0-19.16 15.54-34.7 34.7-34.7h351.47c19.17 0 34.7 15.54 34.7 34.7" style="fill:#2d2926"/><path d="M338.66 151.4h321.72v479.7H338.66z" style="fill:#a49f86"/><path d="M396.33 190.86c21.39 0 38.73 17.34 38.73 38.73s-17.34 38.73-38.73 38.73-38.73-17.34-38.73-38.73 17.34-38.73 38.73-38.73m0-4.5c-23.84 0-43.23 19.39-43.23 43.23s19.39 43.23 43.23 43.23 43.23-19.39 43.23-43.23-19.39-43.23-43.23-43.23m104.35 4.5c21.39 0 38.73 17.34 38.73 38.73s-17.34 38.73-38.73 38.73-38.73-17.34-38.73-38.73 17.34-38.73 38.73-38.73m0-4.5c-23.84 0-43.23 19.39-43.23 43.23s19.39 43.23 43.23 43.23 43.23-19.39 43.23-43.23-19.39-43.23-43.23-43.23m103.22 4.5c21.39 0 38.73 17.34 38.73 38.73s-17.34 38.73-38.73 38.73-38.73-17.34-38.73-38.73 17.34-38.73 38.73-38.73m0-4.5c-23.84 0-43.23 19.39-43.23 43.23s19.39 43.23 43.23 43.23 43.23-19.39 43.23-43.23-19.39-43.23-43.23-43.23M396.33 299.11c21.39 0 38.73 17.34 38.73 38.73s-17.34 38.73-38.73 38.73-38.73-17.34-38.73-38.73 17.34-38.73 38.73-38.73m0-4.5c-23.84 0-43.23 19.39-43.23 43.23s19.39 43.23 43.23 43.23 43.23-19.39 43.23-43.23-19.39-43.23-43.23-43.23m104.35 4.5c21.39 0 38.73 17.34 38.73 38.73s-17.34 38.73-38.73 38.73-38.73-17.34-38.73-38.73 17.34-38.73 38.73-38.73m0-4.5c-23.84 0-43.23 19.39-43.23 43.23s19.39 43.23 43.23 43.23 43.23-19.39 43.23-43.23-19.39-43.23-43.23-43.23m103.22 4.5c21.39 0 38.73 17.34 38.73 38.73s-17.34 38.73-38.73 38.73-38.73-17.34-38.73-38.73 17.34-38.73 38.73-38.73m0-4.5c-23.84 0-43.23 19.39-43.23 43.23s19.39 43.23 43.23 43.23 43.23-19.39 43.23-43.23-19.39-43.23-43.23-43.23" class="cls-8"/><path d="M710.43 54.59v64.08h-23.02v32.73H310.78v-32.73h-21.22V54.59c0-19.16 15.54-34.7 34.7-34.7h351.47c19.17 0 34.7 15.54 34.7 34.7M289.56 945.41V658.33h23.02V625.6h376.63v32.73h21.22v287.08c0 19.16-15.54 34.7-34.7 34.7H324.26c-19.17 0-34.7-15.54-34.7-34.7" class="cls-5"/><path d="M396.33 407.35c21.39 0 38.73 17.34 38.73 38.73s-17.34 38.73-38.73 38.73-38.73-17.34-38.73-38.73 17.34-38.73 38.73-38.73m0-4.5c-23.84 0-43.23 19.39-43.23 43.23s19.39 43.23 43.23 43.23 43.23-19.39 43.23-43.23-19.39-43.23-43.23-43.23m104.35 4.5c21.39 0 38.73 17.34 38.73 38.73s-17.34 38.73-38.73 38.73-38.73-17.34-38.73-38.73 17.34-38.73 38.73-38.73m0-4.5c-23.84 0-43.23 19.39-43.23 43.23s19.39 43.23 43.23 43.23 43.23-19.39 43.23-43.23-19.39-43.23-43.23-43.23m103.22 4.5c21.39 0 38.73 17.34 38.73 38.73s-17.34 38.73-38.73 38.73-38.73-17.34-38.73-38.73 17.34-38.73 38.73-38.73m0-4.5c-23.84 0-43.23 19.39-43.23 43.23s19.39 43.23 43.23 43.23 43.23-19.39 43.23-43.23-19.39-43.23-43.23-43.23M396.33 515.6c21.39 0 38.73 17.34 38.73 38.73s-17.34 38.73-38.73 38.73-38.73-17.34-38.73-38.73 17.34-38.73 38.73-38.73m0-4.5c-23.84 0-43.23 19.39-43.23 43.23s19.39 43.23 43.23 43.23 43.23-19.39 43.23-43.23-19.39-43.23-43.23-43.23m104.35 4.5c21.39 0 38.73 17.34 38.73 38.73s-17.34 38.73-38.73 38.73-38.73-17.34-38.73-38.73 17.34-38.73 38.73-38.73m0-4.5c-23.84 0-43.23 19.39-43.23 43.23s19.39 43.23 43.23 43.23 43.23-19.39 43.23-43.23-19.39-43.23-43.23-43.23m103.22 4.5c21.39 0 38.73 17.34 38.73 38.73s-17.34 38.73-38.73 38.73-38.73-17.34-38.73-38.73 17.34-38.73 38.73-38.73m0-4.5c-23.84 0-43.23 19.39-43.23 43.23s19.39 43.23 43.23 43.23 43.23-19.39 43.23-43.23-19.39-43.23-43.23-43.23" class="cls-8"/><circle cx="500.68" cy="815.77" r="136.2" style="fill:#4c4843"/><circle cx="500.68" cy="815.77" r="124.35" style="fill:#33312f"/><circle cx="500.68" cy="815.77" r="112.61" style="fill:#585949"/><circle cx="500.68" cy="815.77" r="35.04" style="fill:#3c3934"/><path d="M613.29 815.77c0 31.12-12.62 59.28-33.02 79.66l-79.66-79.66-79.59 79.59c-20.36-20.38-32.95-48.51-32.95-79.59s12.63-59.31 33.04-79.69l79.69 79.69 79.57-79.57c20.34 20.37 32.92 48.5 32.92 79.57" style="fill:#dbd8c3;opacity:.43"/><circle cx="500.68" cy="815.77" r="26.13" style="fill:#2b2928"/><path d="M400.91 246.54h-4.8v-26.63l-7.45 7.85-3.4-3.61 5.4-5.68c1.1-1.17 2.6-1.86 4.25-1.86 3.3 0 6 2.86 6 6.37v23.55Zm111.59-21.5c0 4.76-2.28 8.6-5.1 8.6h-16.39v7.57h21.05v5.51h-24.32v-9.98c0-4.76 2.28-8.6 5.1-8.6h16.39v-7.57h-21.5v-5.51h19.66c2.82 0 5.1 3.84 5.1 8.6v1.38ZM407.82 344.78h-3.44v9.64h-3.44v-9.64h-16.71c-2.19 0-3.94-2.81-3.94-6.31 0-2.12.68-3.96 1.69-5.16l8.86-10.55h5.92l-14.06 16.52h18.25v-16.52h3.44v16.52h3.44v5.51Zm104.46-.03c0 4.76-2.24 8.6-5.01 8.6h-19.32v-5.51h21.13v-7.57h-21.13v-18.58h23.47v5.51h-20.26v7.57h16.11c2.78 0 5.01 3.84 5.01 8.6zm104.28 0c0 4.76-2.24 8.6-5.01 8.6h-19.32v-5.51h21.13v-7.57h-21.13v-18.58h23.47v5.51h-20.26v7.57h16.11c2.78 0 5.01 3.84 5.01 8.6zm-211.61 98.47-15.91 20.19h-5.55l20.79-26.16h-22.7v-5.51h21.26c2.04 0 3.68 2.81 3.68 6.31 0 2.12-.64 3.96-1.57 5.16Zm107.1 12.1c0 4.47-2.24 8.09-5.01 8.09h-14.31c-2.77 0-5.01-3.61-5.01-8.09v-1.38c0-2.58.77-4.93 1.94-6.37-1.14-1.49-1.87-3.79-1.87-6.37v-1.38c0-4.47 2.17-8.09 4.95-8.09h14.31c2.77 0 4.91 3.61 4.91 8.09v1.38c0 2.58-.7 4.88-1.87 6.37 1.2 1.43 1.97 3.79 1.97 6.37v1.38Zm-3.21-10.5v-7.57h-17.92v7.57zm0 13.08v-7.57h-17.92v7.57zm107.02-3.1c0 4.76-2.27 8.6-5.01 8.6h-18.46v-5.51h20.26v-7.57h-16.11c-2.77 0-5.01-3.84-5.01-8.6v-1.38c0-4.76 2.24-8.6 5.01-8.6h14.31c2.74 0 5.01 3.84 5.01 8.6v14.45Zm-3.21-9.98v-7.57h-17.92v7.57zm-100.6 116.7c0 4.76-2.24 8.6-5.01 8.6h-14.31c-2.77 0-5.02-3.84-5.02-8.6v-14.45c0-4.76 2.24-8.6 5.02-8.6h14.31c2.78 0 5.01 3.84 5.01 8.6zm-3.21 3.1v-20.65h-17.92v20.65zM617.19 238.2c0 4.23-2.35 7.64-5.27 7.64h-20.29v-5.2h22.19v-7.15h-22.19v-5.2h22.19v-7.15h-22.19v-5.2h20.29c2.91 0 5.16 3.41 5.16 7.64v1.3c0 2.44-.74 4.6-1.93 6.01 1.23 1.35 2.04 3.58 2.04 6.01zM364.15 554.16c0-5.86 2.58-7.52 7.01-7.52 1.48 0 2.88.22 3.76.48V550c-1.05-.38-2.12-.56-3.41-.56-2.79 0-3.9 1.05-3.9 4.76s1.1 4.68 3.95 4.68c1.21 0 2.42-.16 3.47-.56v2.85c-.83.3-2.5.54-3.87.54-4.43 0-7.01-1.67-7.01-7.52Zm14.13 3.87v-17.04h3.36v16.23c0 1.34.35 1.67 1.26 1.67.27 0 .56-.03.89-.11v2.63c-.48.11-.99.16-1.61.16-2.85 0-3.9-1.08-3.9-3.55Zm20.15-3.22-9.51.62c.08 2.42 1.26 3.55 4.16 3.55 1.75 0 3.74-.48 4.73-.99v2.74c-.86.48-2.96.97-5.32.97-4.41 0-6.96-1.67-6.96-7.52s2.55-7.52 6.96-7.52c5.02 0 6.07 2.85 6.07 6.26 0 .7-.05 1.42-.13 1.91Zm-2.98-2.26c0-1.8-.38-3.33-2.96-3.33-2.71 0-3.47 1.29-3.57 3.82l6.53-.48Zm18.78-1.26v10.13h-2.98l-.35-1.85c-.7 1.24-2.53 2.12-4.84 2.12-3.31 0-4.97-1.5-4.97-4.38 0-3.41 2.12-4.62 5.88-4.62h3.9v-.64c0-1.75-.59-2.58-3.28-2.58-1.02 0-2.1.11-3.12.29v-2.88c1.1-.16 2.42-.24 3.47-.24 4.76 0 6.29 1.75 6.29 4.65m-3.36 5.69v-1.91h-3.44c-2.1 0-3.01.4-3.01 2.12 0 1.26.7 1.85 2.36 1.85 2.02 0 3.49-.81 4.08-2.07Zm15.66-10.34-.11 3.01h-.35c-1.85 0-3.65.65-4.19 3.14v8.63h-3.36v-14.51h3.36v2.61c.89-2.39 2.63-2.88 4.35-2.88zm157.74 8.17-9.51.62c.08 2.42 1.26 3.55 4.17 3.55 1.75 0 3.74-.48 4.73-.99v2.74c-.86.48-2.96.97-5.32.97-4.41 0-6.96-1.67-6.96-7.52s2.55-7.52 6.96-7.52c5.02 0 6.07 2.85 6.07 6.26 0 .7-.05 1.42-.13 1.91Zm-2.98-2.26c0-1.8-.38-3.33-2.96-3.33-2.71 0-3.47 1.29-3.57 3.82l6.53-.48Zm19.28-1.07v9.94h-3.36v-9c0-2.04-.46-2.98-2.5-2.98-1.72 0-2.96.48-3.55 2.31v9.67h-3.36v-14.51h3.36v1.83c.83-1.5 2.58-2.1 4.57-2.1 3.68 0 4.84 1.77 4.84 4.84m7.77-1.89v6.99c0 1.88.32 2.34 1.8 2.34.51 0 .91-.03 1.32-.13v2.66c-.56.08-1.18.13-1.8.13-3.47 0-4.68-.91-4.68-4.73v-7.25h-2.02v-2.69h2.02v-3.44h3.36v3.44h3.2v2.69h-3.2Zm17.94 5.22-9.51.62c.08 2.42 1.26 3.55 4.17 3.55 1.75 0 3.74-.48 4.73-.99v2.74c-.86.48-2.96.97-5.32.97-4.41 0-6.96-1.67-6.96-7.52s2.55-7.52 6.96-7.52c5.02 0 6.07 2.85 6.07 6.26 0 .7-.05 1.42-.13 1.91Zm-2.98-2.26c0-1.8-.38-3.33-2.96-3.33-2.71 0-3.47 1.29-3.57 3.82l6.53-.48Zm14.53-5.91-.11 3.01h-.35c-1.85 0-3.65.65-4.19 3.14v8.63h-3.36v-14.51h3.36v2.61c.89-2.39 2.63-2.88 4.35-2.88z" class="cls-8"/><path d="M687.41 118.67h17.4v539.66h-17.4zm-392.35 0h17.4v539.66h-17.4z" class="cls-5"/><rect width="362.13" height="81.11" x="318.55" y="39.23" rx="10.18" ry="10.18" style="fill:#c6c6c5"/><path d="M354.55 96.83h-14.07l10.65-28.86h13.73z" style="fill:#ec2027"/><path d="M374.49 96.83h-14.07l10.65-28.86h13.73z" style="fill:#8ec640"/><path d="M394.94 96.83h-14.07l10.65-28.86h13.73z" style="fill:#1e75bc"/><path d="M409.46 73.95c0-2.2 1-3.46 2.74-3.46h8.09c3.98 0 4.48 2.77 4.48 7.5 0 3.46-.35 7.84-3.34 7.84h-.15v.13l3.83 6.58h-6.03l-2.42-5.1c-.55-1.13-.9-2.05-.9-3.31v-.79c0-1.89.27-2.49 1.77-2.49h.1c1.49 0 1.74-.6 1.74-2.49s-.25-2.39-1.74-2.39h-1.72c-.75 0-1.1.44-1.1 1.39v15.18h-5.38V73.96Zm32.59 7.56c0 9.45-1.62 11.27-7.84 11.27s-7.84-1.83-7.84-11.27 1.62-11.27 7.84-11.27 7.84 1.83 7.84 11.27m-7.84 5.79c2.24 0 2.32-2.02 2.32-5.79s-.07-5.79-2.32-5.79-2.32 2.02-2.32 5.79.07 5.79 2.32 5.79m23.55 2.52c-.27 1.67-.65 2.96-3.11 2.96s-2.84-1.29-3.11-2.96l-1.69-10.65c-.07-.44-.2-.79-.32-.79-.22 0-.22.47-.22.72l.17 13.42h-5.43V74.1c0-3.87 3.14-3.87 4.03-3.87 1.49 0 3.93.06 4.48 3.65l1.67 10.71c.1.57.2.94.42.94s.32-.38.42-.94l1.67-10.71c.55-3.59 3.01-3.65 4.48-3.65 3.96 0 4.03 2.49 4.03 3.87v18.42h-5.43l.2-13.42c0-.31-.02-.72-.22-.72-.1 0-.2.22-.35.79zm23.7 0c-.27 1.67-.65 2.96-3.11 2.96s-2.84-1.29-3.11-2.96l-1.69-10.65c-.07-.44-.2-.79-.32-.79-.22 0-.22.47-.22.72l.17 13.42h-5.43V74.1c0-3.87 3.14-3.87 4.03-3.87 1.49 0 3.93.06 4.48 3.65l1.67 10.71c.1.57.2.94.42.94s.32-.38.42-.94l1.67-10.71c.55-3.59 3.01-3.65 4.48-3.65 3.96 0 4.03 2.49 4.03 3.87v18.42h-5.43l.2-13.42c0-.31-.02-.72-.22-.72-.1 0-.2.22-.35.79zm16.85 2.71c-5.73 0-7.37-3.46-7.37-11.02s1.64-11.02 7.37-11.02h4.38v5.48h-1.99c-3.24 0-4.23.82-4.23 5.54s1 5.54 4.23 5.54h2.24v5.48zm10.33-19.62c.62-2.43 1.99-2.68 3.98-2.68s3.36.25 3.98 2.68l4.96 19.62h-5.93l-.87-4.54h-4.28l-.87 4.54h-5.93zm2.54 10.23h2.89l-1.22-5.76c-.02-.19-.1-.47-.22-.47s-.2.28-.22.47l-1.22 5.76Zm14.02 9.39c-1.74 0-2.74-1.26-2.74-3.46V73.95c0-2.2 1-3.46 2.74-3.46h4.78c5.73 0 7.12 3.46 7.12 11.02s-1.39 11.02-7.12 11.02zm2.63-7.06c0 1.13.35 1.57 1.25 1.57h.25c1.25 0 2.24-.5 2.24-5.54s-1.2-5.54-2.24-5.54h-.25c-.9 0-1.25.44-1.25 1.57zm11.25 7.06V70.48h5.63v22.05zm11.48-19.62c.62-2.43 1.99-2.68 3.98-2.68s3.36.25 3.98 2.68l4.96 19.62h-5.93l-.87-4.54h-4.28l-.87 4.54h-5.93zm2.54 10.23h2.89l-1.22-5.76c-.03-.19-.1-.47-.22-.47s-.2.28-.22.47l-1.22 5.76Zm16.58-1.54h8.67v4.98h-8.67zm15.71 6.87c0-1.51.42-3.02 1.52-4.28l4.58-5.35c.5-.6.87-1.23.87-1.76 0-.95-.55-1.1-1.54-1.1h-4.91V70.5h7.84c3.24 0 3.98 1.89 3.98 5.98 0 3.5-1.25 5.01-2.39 6.42l-2.81 3.56c-.08.13-.2.22-.2.38 0 .09.02.13.17.13h5.18v5.57h-10.09c-1.87 0-2.22-2.05-2.22-4.06Zm27.64-9.33v4.54c0 7.87-1.79 9.1-7.02 9.1s-7.02-1.23-7.02-9.1v-4.54c0-7.56 1.79-8.91 7.02-8.91s7.02 1.35 7.02 8.91m-5.38 4.54v-4.54c0-1.89-.15-3.24-1.64-3.24s-1.64 1.35-1.64 3.24v4.54c0 2.21.15 3.43 1.64 3.43s1.64-1.23 1.64-3.43m20.91-4.54v4.54c0 7.87-1.79 9.1-7.02 9.1s-7.02-1.23-7.02-9.1v-4.54c0-7.56 1.79-8.91 7.02-8.91s7.02 1.35 7.02 8.91m-5.38 4.54v-4.54c0-1.89-.15-3.24-1.64-3.24s-1.64 1.35-1.64 3.24v4.54c0 2.21.15 3.43 1.64 3.43s1.64-1.23 1.64-3.43m8.54-5.89c0-.94-.05-1.83-1.04-1.83h-1.37v-5.48h5.25c1.74 0 2.79 1.39 2.79 3.59v18.46h-5.63z" style="fill:#231f20"/></svg>