<?xml version="1.0" encoding="UTF-8"?>
<svg id="Layer_1" data-name="Layer 1" xmlns="http://www.w3.org/2000/svg" viewBox="0 0 1000 1000">
  <defs>
    <style>
      .cls-1 {
        fill: #181818;
      }

      .cls-2 {
        fill: #282a2b;
      }

      .cls-3 {
        stroke-width: 4px;
      }

      .cls-3, .cls-4, .cls-5, .cls-6 {
        fill: none;
      }

      .cls-3, .cls-4, .cls-5, .cls-6, .cls-7 {
        stroke-miterlimit: 10;
      }

      .cls-3, .cls-4, .cls-6 {
        stroke: #181818;
      }

      .cls-8 {
        fill: #111212;
      }

      .cls-9 {
        fill: #181819;
      }

      .cls-10 {
        fill: #121212;
      }

      .cls-11 {
        fill: #272728;
      }

      .cls-12 {
        fill: #fff;
        opacity: .04;
      }

      .cls-13 {
        fill: #702e25;
      }

      .cls-14 {
        fill: #e2e2e2;
      }

      .cls-15 {
        fill: #929290;
      }

      .cls-4 {
        stroke-width: 4.07px;
      }

      .cls-16 {
        fill: #222123;
      }

      .cls-5 {
        stroke: #4c4c4d;
        stroke-width: .25px;
      }

      .cls-17 {
        fill: #919191;
      }

      .cls-18 {
        fill: #9c4438;
      }

      .cls-19 {
        fill: #505356;
      }

      .cls-20 {
        fill: #121112;
      }

      .cls-21 {
        fill: #ddd3c3;
      }

      .cls-22 {
        fill: #111112;
      }

      .cls-23 {
        fill: #a5a4a4;
      }

      .cls-24 {
        fill: #1d1e1e;
      }

      .cls-25 {
        fill: #353535;
      }

      .cls-26 {
        fill: #707071;
      }

      .cls-6 {
        stroke-width: 3px;
      }

      .cls-7 {
        fill: #825c24;
        stroke: #1b1b1b;
      }

      .cls-27 {
        fill: #964030;
      }

      .cls-28 {
        fill: #b0b0b0;
      }

      .cls-29 {
        fill: #212121;
      }

      .cls-30 {
        fill: #161617;
      }

      .cls-31 {
        fill: #8e867b;
      }

      .cls-32 {
        fill: #fec76e;
      }

      .cls-33 {
        fill: #38383d;
      }

      .cls-34 {
        fill: #171717;
      }
    </style>
  </defs>
  <polygon class="cls-10" points="355.33 284.89 358.85 354.72 320.8 459.37 317.34 459.44 323.27 411.11 326.61 357.64 331.83 259.21 334.13 175.29 338.15 175.29 355.33 284.89"/>
  <polygon class="cls-10" points="642.02 284.28 676.55 458.77 680.01 458.83 674.08 410.51 670.74 357.04 665.52 258.61 665.04 159.11 659.2 174.68 642.02 284.28"/>
  <rect class="cls-33" x="333.79" y="49.87" width="330.15" height="104.81"/>
  <rect class="cls-9" x="333.79" y="42.18" width="330.15" height="7.69"/>
  <rect class="cls-22" x="333.79" y="154.68" width="330.15" height="10.54"/>
  <rect class="cls-33" x="320.8" y="459.37" width="358.54" height="27.28"/>
  <rect class="cls-11" x="322.3" y="515.85" width="355.54" height="451.33"/>
  <polygon class="cls-19" points="679.3 459.44 320.77 459.44 331.83 409.1 668.24 409.1 679.3 459.44"/>
  <polygon class="cls-30" points="677.84 515.85 322.3 515.85 320.8 486.56 679.34 486.56 677.84 515.85"/>
  <polygon class="cls-1" points="642.41 284.89 355.33 284.89 333.79 165.22 663.94 165.22 642.41 284.89"/>
  <rect class="cls-15" x="677.84" y="515.85" width="8.16" height="456.27"/>
  <polygon class="cls-26" points="686 515.85 677.84 515.85 679.34 456.57 688.62 456.57 686 515.85"/>
  <polygon class="cls-25" points="654.75 42.18 663.94 27.92 663.78 42.18 654.75 42.18"/>
  <path class="cls-28" d="M679.34,456.57c-22.28-114.62-15.47-425.62-15.4-428.76l9,.2c-.07,3.13-6.41,314.88,15.68,428.56h-9.28Z"/>
  <rect class="cls-15" x="314" y="515.91" width="8.16" height="456.27" transform="translate(636.16 1488.1) rotate(-180)"/>
  <polygon class="cls-26" points="314 515.91 322.16 515.91 320.66 456.64 311.38 456.64 314 515.91"/>
  <polygon class="cls-25" points="345.25 42.25 336.06 27.98 336.22 42.25 345.25 42.25"/>
  <path class="cls-28" d="M320.66,456.64c22.28-114.62,15.47-425.62,15.4-428.76l-9,.2c.07,3.13,6.41,314.88-15.68,428.56h9.28Z"/>
  <polygon points="668.24 409.1 331.83 409.1 355.32 284.89 642.4 284.89 668.24 409.1"/>
  <rect class="cls-34" x="393.2" y="564.93" width="206.66" height="176.58" rx="26.2" ry="26.2"/>
  <path class="cls-6" d="M535.27,670.65h-82.94c-5.08,0-7.58-2.5-7.58-5.58v-21.87c0-3.08,2.5-5.58,5.58-5.58h82.94c3.08,0,5.58,2.5,5.58,5.58v21.87c0,3.08-2.5,5.58-3.58,5.58Z"/>
  <rect class="cls-3" x="408.63" y="578.83" width="176.87" height="148.56" rx="9.1" ry="9.1"/>
  <path class="cls-1" d="M587.11,653.35c0-3.26-.95-6.29-2.55-8.87v-7.9h-14.21c-9.26,0-16.77,7.51-16.77,16.77s7.51,16.77,16.77,16.77h14.21v-7.9c1.61-2.57,2.55-5.61,2.55-8.87Z"/>
  <path class="cls-2" d="M507.42,593.08h30.41v29.82c0,1.72-1.4,3.11-3.11,3.11h-24.18c-1.72,0-3.11-1.4-3.11-3.11v-29.82h0Z"/>
  <path class="cls-2" d="M445.59,593.08h30.41v29.82c0,1.72-1.4,3.11-3.11,3.11h-24.18c-1.72,0-3.11-1.4-3.11-3.11v-29.82h0Z"/>
  <circle class="cls-8" cx="570.34" cy="653.35" r="11.33"/>
  <circle class="cls-17" cx="570.34" cy="653.35" r="7.61"/>
  <circle class="cls-5" cx="570.34" cy="653.35" r="6.32"/>
  <rect class="cls-7" x="457.5" y="601.12" width="15.78" height="18.74"/>
  <rect class="cls-7" x="519.58" y="601.12" width="15.78" height="18.74"/>
  <rect class="cls-20" x="448.87" y="598.24" width="4.04" height="23.35"/>
  <ellipse class="cls-31" cx="555.02" cy="441.44" rx="16.54" ry="7.55"/>
  <rect class="cls-20" x="511.24" y="598.24" width="4.04" height="23.35"/>
  <rect class="cls-24" x="445.83" y="690.24" width="27.48" height="26.78"/>
  <rect class="cls-24" x="507.42" y="690.24" width="27.48" height="26.78"/>
  <rect class="cls-4" x="445.59" y="690.04" width="27.72" height="27.72" rx=".75" ry=".75"/>
  <rect class="cls-4" x="507.3" y="690.04" width="27.72" height="27.72" rx=".75" ry=".75"/>
  <ellipse class="cls-27" cx="441.11" cy="442.54" rx="9.34" ry="4.76"/>
  <ellipse class="cls-29" cx="396.58" cy="443.52" rx="13.96" ry="5.3"/>
  <ellipse class="cls-13" cx="441.11" cy="442.14" rx="7.58" ry="3.5"/>
  <ellipse class="cls-27" cx="441.11" cy="441.13" rx="7.58" ry="3.34"/>
  <ellipse class="cls-27" cx="479.84" cy="442.54" rx="9.34" ry="4.76"/>
  <ellipse class="cls-13" cx="479.84" cy="442.14" rx="7.58" ry="3.5"/>
  <ellipse class="cls-27" cx="479.84" cy="441.13" rx="7.58" ry="3.34"/>
  <ellipse class="cls-14" cx="619.18" cy="430.24" rx="9.34" ry="4.76"/>
  <ellipse class="cls-23" cx="619.18" cy="429.84" rx="7.58" ry="3.5"/>
  <ellipse class="cls-14" cx="619.18" cy="428.82" rx="7.58" ry="3.34"/>
  <ellipse class="cls-14" cx="623.59" cy="450.4" rx="9.34" ry="4.76"/>
  <ellipse class="cls-23" cx="623.59" cy="450.01" rx="7.58" ry="3.5"/>
  <ellipse class="cls-14" cx="623.59" cy="448.99" rx="7.58" ry="3.34"/>
  <ellipse class="cls-27" cx="460.48" cy="438.64" rx="9.34" ry="4.76"/>
  <ellipse class="cls-13" cx="460.48" cy="438.25" rx="7.58" ry="3.5"/>
  <ellipse class="cls-27" cx="460.48" cy="437.23" rx="7.58" ry="3.34"/>
  <rect class="cls-15" x="393.11" y="419.46" width="6.57" height="23.29" rx=".72" ry=".72"/>
  <path class="cls-21" d="M571.56,440.27c0,9.04-33.09,9.04-33.09,0s7.41-16.37,16.54-16.37,16.54,7.33,16.54,16.37Z"/>
  <polygon class="cls-12" points="596.89 284.89 425.03 409.1 331.83 409.1 355.32 284.89 596.89 284.89"/>
  <g>
    <path class="cls-32" d="M389.8,66.56c2.05,0,4.01.31,5.88.92,1.87.61,3.6,1.46,5.18,2.55,1.58,1.08,2.97,2.37,4.17,3.86,1.2,1.49,2.15,3.12,2.85,4.87l.26.35c.88,1.46,1.56,3.03,2.06,4.7.5,1.67.75,3.44.75,5.31v43.02h-14.57l-1.76-2.9h-.44v-13.87h-9.39v16.77h-14.4l-1.76-2.9h-.44v-43.28c0-2.69.5-5.21,1.49-7.55.99-2.34,2.37-4.39,4.13-6.15s3.8-3.15,6.15-4.17c2.34-1.02,4.86-1.54,7.55-1.54h2.28ZM389.09,68.14h-1.58c-2.46,0-4.77.47-6.94,1.4-2.17.94-4.04,2.21-5.62,3.82-1.58,1.61-2.84,3.5-3.77,5.66-.94,2.17-1.4,4.48-1.4,6.94v41.7h11.76v-16.77h14.22v16.77h11.94v-41.7c0-2.46-.47-4.77-1.4-6.94-.94-2.16-2.21-4.05-3.82-5.66-1.61-1.61-3.5-2.88-5.66-3.82-2.17-.94-4.51-1.4-7.02-1.4h-.7ZM389.75,69.02c2.33,0,4.54.45,6.61,1.36,2.07.91,3.88,2.12,5.43,3.64,1.55,1.52,2.76,3.31,3.63,5.35.88,2.05,1.31,4.24,1.31,6.58v40.82h-10.1v-16.77h-15.89v16.77h-10.1v-40.82c0-2.34.44-4.53,1.31-6.58.88-2.05,2.07-3.83,3.59-5.35,1.52-1.52,3.3-2.74,5.34-3.64,2.04-.91,4.23-1.36,6.57-1.36h2.28ZM387.57,79.2c-.87,0-1.73.18-2.58.53-.84.35-1.57.83-2.18,1.45-.61.61-1.11,1.33-1.48,2.15-.38.82-.57,1.7-.57,2.63v14.66h15.89v-14.66c0-1.87-.66-3.47-1.96-4.78-1.31-1.32-2.93-1.98-4.85-1.98h-2.27ZM389.8,80.08c1.7,0,3.12.57,4.26,1.71s1.71,2.53,1.71,4.17v13.78h-14.22v-13.78c0-1.64.6-3.03,1.8-4.17,1.2-1.14,2.59-1.71,4.17-1.71h2.28ZM384.79,98.16h9.39v-12.2c0-.29-.03-.53-.09-.7-.64-.47-1.43-.7-2.37-.7h-2.28c-1.23,0-2.31.44-3.25,1.32-.94.88-1.4,1.96-1.4,3.25v9.04Z"/>
    <path class="cls-32" d="M414.64,129.24h-.44v-62.68h23.09c4.15,0,7.86,1.14,11.1,3.42,3.25,2.28,5.57,5.24,6.98,8.87l.26.35c.88,1.46,1.56,3.03,2.06,4.7.5,1.67.75,3.44.75,5.31v5.71c0,2.05-.37,4.11-1.1,6.19-.73,2.08-1.71,3.94-2.94,5.57l.61,1.23.09.18.18.26c.94,1.52,1.7,3.2,2.28,5.05.58,1.84.88,3.64.88,5.4v13.34h-14.57l-1.76-2.9h-.44v-13.61c0-.12-.02-.26-.04-.44-.03-.18-.04-.32-.04-.44-.64-.41-1.43-.61-2.37-.61h-8.25v18h-14.57l-1.76-2.9ZM455.2,115.63c0-2.22-.4-4.36-1.19-6.41-.79-2.05-1.92-3.89-3.38-5.53,1.46-1.64,2.59-3.48,3.38-5.53.79-2.05,1.19-4.18,1.19-6.41v-5.71c0-2.46-.47-4.78-1.4-6.98-.94-2.19-2.21-4.1-3.82-5.71-1.61-1.61-3.51-2.88-5.71-3.82-2.19-.94-4.52-1.4-6.98-1.4h-21.51v59.52h11.94v-18h9.57c1.7,0,3.12.57,4.26,1.71,1.14,1.14,1.71,2.56,1.71,4.26v12.03h11.94v-12.03ZM454.23,126.78h-10.1v-11.15c0-1.93-.66-3.56-1.99-4.87-1.32-1.32-2.96-1.98-4.9-1.98h-10.5v18h-10.1v-57.76h20.58c2.33,0,4.54.45,6.61,1.36,2.07.91,3.87,2.12,5.39,3.64,1.52,1.52,2.73,3.32,3.63,5.4.91,2.08,1.36,4.29,1.36,6.63v5.71c0,2.05-.43,4.13-1.27,6.23-.85,2.11-2.03,4.01-3.56,5.71,1.52,1.7,2.71,3.59,3.56,5.66.85,2.08,1.27,4.17,1.27,6.28v11.15ZM444.14,86.05c0-1.93-.66-3.56-1.99-4.87-1.32-1.32-2.96-1.98-4.9-1.98h-10.5v19.4h10.5c1.94,0,3.57-.66,4.9-1.98,1.32-1.32,1.99-2.94,1.99-4.87v-5.71ZM443.26,91.75c0,1.7-.57,3.12-1.71,4.26-1.14,1.14-2.56,1.71-4.26,1.71h-9.57v-17.65h9.57c1.7,0,3.12.57,4.26,1.71s1.71,2.56,1.71,4.26v5.71ZM441.68,86.05c0-.12-.02-.26-.04-.44-.03-.18-.04-.32-.04-.44-.64-.41-1.43-.61-2.37-.61h-8.25v11.59h6.32c1.23,0,2.27-.42,3.12-1.27s1.27-1.89,1.27-3.12v-5.71Z"/>
    <path class="cls-32" d="M496.37,67.26l1.67,2.72v14.57h-15.36c-1.35,0-2.46.44-3.34,1.32s-1.32,1.96-1.32,3.25v24.14c.76.59,1.67.88,2.72.88h15.54v.7l1.67,2.72v14.57h-15.27c-3.51,0-6.7-.83-9.57-2.5-2.87-1.67-5.15-3.91-6.85-6.72l-.18-.26c-1.52-1.7-2.71-3.64-3.56-5.84-.85-2.19-1.27-4.52-1.27-6.98v-23.88c0-2.69.51-5.21,1.54-7.55,1.02-2.34,2.41-4.39,4.17-6.15s3.82-3.15,6.19-4.17c2.37-1.02,4.9-1.54,7.59-1.54h15.63v.7ZM494.79,68.14h-14.05c-2.46,0-4.78.47-6.98,1.4-2.19.94-4.1,2.21-5.71,3.82s-2.88,3.5-3.82,5.66c-.94,2.17-1.4,4.48-1.4,6.94v23.88c0,2.46.47,4.77,1.4,6.94.94,2.17,2.21,4.05,3.82,5.66,1.61,1.61,3.51,2.88,5.71,3.82,2.19.94,4.52,1.4,6.98,1.4h13.96v-11.94h-13.96c-1.7,0-3.12-.57-4.26-1.71-1.14-1.14-1.71-2.53-1.71-4.17v-23.88c0-1.64.57-3.03,1.71-4.17,1.14-1.14,2.56-1.71,4.26-1.71h14.05v-11.94ZM493.83,79.2h-13.17c-1.93,0-3.56.66-4.87,1.98s-1.98,2.91-1.98,4.78v23.88c0,1.87.66,3.47,1.98,4.78s2.94,1.98,4.87,1.98h13.08v10.18h-13.08c-2.34,0-4.55-.44-6.62-1.32-2.07-.88-3.86-2.09-5.37-3.64-1.51-1.55-2.71-3.35-3.61-5.4-.9-2.05-1.35-4.24-1.35-6.58v-23.88c0-2.34.45-4.53,1.35-6.58.9-2.05,2.1-3.83,3.61-5.35,1.51-1.52,3.3-2.74,5.37-3.64,2.07-.91,4.27-1.36,6.62-1.36h13.17v10.18Z"/>
    <path class="cls-32" d="M522.44,66.56c2.05,0,4.01.31,5.88.92,1.87.61,3.6,1.46,5.18,2.55,1.58,1.08,2.97,2.37,4.17,3.86,1.2,1.49,2.15,3.12,2.85,4.87l.26.35c.88,1.46,1.57,3.03,2.06,4.7.5,1.67.75,3.44.75,5.31v43.02h-14.57l-1.75-2.9h-.44v-13.87h-9.39v16.77h-14.4l-1.76-2.9h-.44v-43.28c0-2.69.5-5.21,1.49-7.55,1-2.34,2.37-4.39,4.13-6.15s3.8-3.15,6.14-4.17c2.34-1.02,4.86-1.54,7.55-1.54h2.28ZM521.74,68.14h-1.58c-2.46,0-4.77.47-6.94,1.4-2.17.94-4.04,2.21-5.62,3.82-1.58,1.61-2.84,3.5-3.78,5.66-.94,2.17-1.4,4.48-1.4,6.94v41.7h11.76v-16.77h14.22v16.77h11.94v-41.7c0-2.46-.47-4.77-1.4-6.94-.94-2.16-2.21-4.05-3.82-5.66-1.61-1.61-3.5-2.88-5.66-3.82-2.17-.94-4.51-1.4-7.02-1.4h-.7ZM522.4,69.02c2.33,0,4.54.45,6.61,1.36,2.07.91,3.88,2.12,5.43,3.64,1.55,1.52,2.76,3.31,3.63,5.35.88,2.05,1.31,4.24,1.31,6.58v40.82h-10.1v-16.77h-15.89v16.77h-10.1v-40.82c0-2.34.44-4.53,1.31-6.58.88-2.05,2.07-3.83,3.59-5.35,1.52-1.52,3.3-2.74,5.34-3.64,2.04-.91,4.23-1.36,6.57-1.36h2.28ZM520.21,79.2c-.88,0-1.73.18-2.58.53-.85.35-1.57.83-2.18,1.45-.61.61-1.11,1.33-1.48,2.15-.38.82-.57,1.7-.57,2.63v14.66h15.89v-14.66c0-1.87-.65-3.47-1.96-4.78-1.31-1.32-2.93-1.98-4.85-1.98h-2.27ZM522.44,80.08c1.7,0,3.12.57,4.26,1.71,1.14,1.14,1.71,2.53,1.71,4.17v13.78h-14.22v-13.78c0-1.64.6-3.03,1.8-4.17,1.2-1.14,2.59-1.71,4.17-1.71h2.28ZM517.44,98.16h9.39v-12.2c0-.29-.03-.53-.09-.7-.64-.47-1.44-.7-2.37-.7h-2.28c-1.23,0-2.31.44-3.25,1.32-.94.88-1.41,1.96-1.41,3.25v9.04Z"/>
    <path class="cls-32" d="M547.02,129.24h-.44v-62.68h20.1c2.22,0,4.36.32,6.41.97,2.05.65,3.93,1.57,5.66,2.77,1.73,1.2,3.25,2.62,4.56,4.26,1.32,1.64,2.38,3.42,3.21,5.35l.17.18c1,1.64,1.76,3.38,2.28,5.22.53,1.84.79,3.79.79,5.84v19.84c0,2.93-.56,5.68-1.67,8.25-1.11,2.58-2.62,4.81-4.52,6.72-1.9,1.9-4.14,3.41-6.72,4.52-2.58,1.11-5.33,1.67-8.25,1.67h-19.84l-1.76-2.9ZM586.53,87.98c0-2.75-.51-5.33-1.54-7.73-1.02-2.4-2.44-4.51-4.26-6.32-1.81-1.81-3.92-3.23-6.32-4.26-2.4-1.02-4.98-1.54-7.73-1.54h-18.52v59.52h18.52c2.75,0,5.33-.51,7.73-1.54,2.4-1.02,4.51-2.44,6.32-4.26s3.23-3.92,4.26-6.32c1.02-2.4,1.54-4.97,1.54-7.73v-19.84ZM585.56,107.82c0,2.63-.5,5.09-1.49,7.37-.99,2.28-2.35,4.29-4.07,6.01-1.72,1.73-3.72,3.09-6,4.08-2.28,1-4.73,1.49-7.36,1.49h-17.6v-57.76h17.6c2.63,0,5.08.5,7.36,1.49,2.28,1,4.28,2.36,6,4.08,1.72,1.73,3.08,3.73,4.07,6.01.99,2.28,1.49,4.74,1.49,7.37v19.84ZM559.14,79.2v37.4h7.55c1.23,0,2.37-.22,3.42-.66s1.98-1.05,2.77-1.84,1.42-1.73,1.89-2.81c.47-1.08.7-2.24.7-3.47v-19.84c0-1.23-.23-2.37-.7-3.42-.47-1.05-1.1-1.98-1.89-2.77-.79-.79-1.71-1.42-2.77-1.89-1.05-.47-2.19-.7-3.42-.7h-7.55ZM566.69,80.08c2.22,0,4.1.76,5.62,2.28,1.52,1.52,2.28,3.4,2.28,5.62v19.84c0,2.23-.76,4.1-2.28,5.62s-3.39,2.28-5.62,2.28h-6.67v-35.64h6.67ZM563.26,114.14h3.42c1.76,0,3.25-.61,4.48-1.84,1.23-1.23,1.84-2.72,1.84-4.48v-19.84c0-.82-.12-1.49-.35-2.02-1.11-.94-2.46-1.4-4.04-1.4h-5.36v29.58Z"/>
    <path class="cls-32" d="M630.25,114.84l1.67,2.73v14.56h-37.31l-1.76-2.9h-.44v-62.59h37.84v.7l1.67,2.72v14.49h-22.74v5.88h15.36v.7l1.67,2.72v14.57h-17.03v5.71h21.07v.71ZM605.93,115.81v-11.85h17.03v-11.94h-17.03v-11.94h22.74v-11.85h-34.68v59.43h34.68v-11.85h-22.74ZM627.7,126.78h-32.83v-57.68h32.83v10.18h-22.74v13.61h17.03v10.18h-17.03v13.52h22.74v10.18Z"/>
  </g>
  <circle class="cls-18" cx="396.39" cy="414.08" r="13.07"/>
  <rect class="cls-16" x="569.79" y="649.95" width=".73" height="5.05"/>
  <rect class="cls-16" x="570.16" y="651.7" width=".73" height="5.05"/>
</svg>