<svg xmlns="http://www.w3.org/2000/svg" viewBox="0 0 256 256"><defs><style>.cls-1,.cls-5,.cls-7,.cls-8{stroke-miterlimit:10}.cls-1,.cls-8{fill:none}.cls-1{stroke-width:2.64px}.cls-1,.cls-8{stroke:#e6e7e8}.cls-12{fill:#88865b}.cls-13{fill:#fff}.cls-5{stroke-width:.26px}.cls-17{fill:#231f20}.cls-21{fill:#5b5a57}.cls-22{fill:#fe2921}.cls-23{fill:#c0c2c4}.cls-24,.cls-5{fill:#c2c4c6}.cls-5{stroke:#797a7d}.cls-26{fill:#3b3b3c}.cls-7{stroke:#909578}.cls-7,.cls-8{stroke-width:1.32px}.cls-27,.cls-7{fill:#c9c7b3}.cls-29{fill:#f3ed6b}</style></defs><g id="Screen"><rect width="5.87" height="2.32" x="95.06" y="224.62" class="cls-24" rx=".92" ry=".92" transform="rotate(-90 97.99 225.78)"/><rect width="3.71" height="2.07" x="96.14" y="224.74" class="cls-29" rx=".82" ry=".82" transform="rotate(-90 98 225.78)"/><path d="M194.13 250.24s9.54.36 9.54-8.23.99-227.76.99-227.76-.57-7.24-7.63-7.18-137.9-.24-137.9-.24-7.6-.03-7.75 8.02.24 227.24.24 229.01c.02 2.5.82 6.2 7.55 6.3s134.96.08 134.96.08Z" style="stroke-miterlimit:10;stroke-width:2.64px;stroke:#e6e7e8;fill:#fff"/><circle cx="189.08" cy="22.01" r="5.79" class="cls-27"/><path d="m189.08 18.68.12-.09a.59.59 0 0 1 .82.13l.09.12.15-.05c.31-.1.64.07.74.38l.05.15h.15c.32 0 .58.26.58.58v.15l.15.05c.31.1.47.43.38.74l-.05.15.12.09c.26.19.32.56.13.82l-.09.12.09.12c.19.26.13.63-.13.82l-.12.09.05.15c.1.31-.07.64-.38.74l-.15.05v.15c0 .32-.26.58-.58.58h-.15l-.05.15c-.1.31-.43.47-.74.38l-.15-.05-.09.12a.59.59 0 0 1-.82.13l-.12-.09-.12.09a.59.59 0 0 1-.82-.13l-.09-.12-.15.05c-.31.1-.64-.07-.74-.38l-.05-.15h-.15a.58.58 0 0 1-.58-.58v-.15l-.15-.05a.595.595 0 0 1-.38-.74l.05-.15-.12-.09a.59.59 0 0 1-.13-.82l.09-.12-.09-.12a.59.59 0 0 1 .13-.82l.12-.09-.05-.15c-.1-.31.07-.64.38-.74l.15-.05v-.15c0-.32.26-.58.58-.58h.15l.05-.15c.1-.31.43-.47.74-.38l.15.05.09-.12a.59.59 0 0 1 .82-.13z" class="cls-7"/><circle cx="189.08" cy="22.01" r="1.41" class="cls-24"/><circle cx="66.78" cy="22.01" r="5.79" class="cls-27"/><path d="m66.78 18.68.12-.09a.59.59 0 0 1 .82.13l.09.12.15-.05c.31-.1.64.07.74.38l.05.15h.15c.32 0 .58.26.58.58v.15l.15.05c.31.1.47.43.38.74l-.05.15.12.09c.26.19.32.56.13.82l-.09.12.09.12c.19.26.13.63-.13.82l-.12.09.05.15c.1.31-.07.64-.38.74l-.15.05v.15c0 .32-.26.58-.58.58h-.15l-.05.15c-.1.31-.43.47-.74.38l-.15-.05-.09.12a.59.59 0 0 1-.82.13l-.12-.09-.12.09a.59.59 0 0 1-.82-.13l-.09-.12-.15.05c-.31.1-.64-.07-.74-.38l-.05-.15h-.15a.58.58 0 0 1-.58-.58v-.15l-.15-.05a.595.595 0 0 1-.38-.74l.05-.15-.12-.09a.59.59 0 0 1-.13-.82l.09-.12-.09-.12a.59.59 0 0 1 .13-.82l.12-.09-.05-.15c-.1-.31.07-.64.38-.74l.15-.05v-.15c0-.32.26-.58.58-.58h.15l.05-.15c.1-.31.43-.47.74-.38l.15.05.09-.12a.59.59 0 0 1 .82-.13z" class="cls-7"/><circle cx="66.78" cy="22.01" r="1.41" class="cls-24"/><circle cx="187.7" cy="236.11" r="7.08" class="cls-8"/><circle cx="187.7" cy="236.11" r="5.79" class="cls-27"/><path d="m187.7 232.78.12-.09a.59.59 0 0 1 .82.13l.09.12.15-.05c.31-.1.64.07.74.38l.05.15h.15c.32 0 .58.26.58.58v.15l.15.05c.31.1.47.43.38.74l-.05.15.12.09c.26.19.32.56.13.82l-.09.12.09.12c.19.26.13.63-.13.82l-.12.09.05.15c.1.31-.07.64-.38.74l-.15.05v.15c0 .32-.26.58-.58.58h-.15l-.05.15c-.1.31-.43.47-.74.38l-.15-.05-.09.12a.59.59 0 0 1-.82.13l-.12-.09-.12.09a.59.59 0 0 1-.82-.13l-.09-.12-.15.05c-.31.1-.64-.07-.74-.38l-.05-.15h-.15a.58.58 0 0 1-.58-.58v-.15l-.15-.05a.595.595 0 0 1-.38-.74l.05-.15-.12-.09a.59.59 0 0 1-.13-.82l.09-.12-.09-.12a.59.59 0 0 1 .13-.82l.12-.09-.05-.15c-.1-.31.07-.64.38-.74l.15-.05V234c0-.32.26-.58.58-.58h.15l.05-.15c.1-.31.43-.47.74-.38l.15.05.09-.12a.59.59 0 0 1 .82-.13z" class="cls-7"/><circle cx="187.7" cy="236.11" r="1.41" class="cls-24"/><circle cx="66.86" cy="235.54" r="5.79" class="cls-27"/><path d="m66.86 232.2.12-.09a.59.59 0 0 1 .82.13l.09.12.15-.05c.31-.1.64.07.74.38l.05.15h.15c.32 0 .58.26.58.58v.15l.15.05c.31.1.47.43.38.74l-.05.15.12.09c.26.19.32.56.13.82l-.09.12.09.12c.19.26.13.63-.13.82l-.12.09.05.15c.1.31-.07.64-.38.74l-.15.05v.15c0 .32-.26.58-.58.58h-.15l-.05.15c-.1.31-.43.47-.74.38l-.15-.05-.09.12a.59.59 0 0 1-.82.13l-.12-.09-.12.09a.59.59 0 0 1-.82-.13l-.09-.12-.15.05c-.31.1-.64-.07-.74-.38l-.05-.15h-.15a.58.58 0 0 1-.58-.58v-.15l-.15-.05a.595.595 0 0 1-.38-.74l.05-.15-.12-.09a.59.59 0 0 1-.13-.82l.09-.12-.09-.12a.59.59 0 0 1 .13-.82l.12-.09-.05-.15c-.1-.31.07-.64.38-.74l.15-.05v-.15c0-.32.26-.58.58-.58h.15l.05-.15c.1-.31.43-.47.74-.38l.15.05.09-.12a.59.59 0 0 1 .82-.13z" class="cls-7"/><circle cx="66.86" cy="235.54" r="1.41" class="cls-24"/><circle cx="66.86" cy="235.54" r="7.08" class="cls-8"/><circle cx="66.78" cy="22.01" r="7.08" class="cls-8"/><circle cx="189.08" cy="22.01" r="7.08" class="cls-8"/><rect width="34.8" height="24.9" x="110.23" y="225.34" class="cls-8" rx="6.65" ry="6.65"/><circle cx="154.62" cy="167.75" r="12.74" class="cls-22"/><circle cx="180.33" cy="156.27" r="12.74" class="cls-22"/><path d="M154.43 185.29c-9.67 0-17.55-7.87-17.55-17.55s7.87-17.55 17.55-17.55c3.1 0 6.12.83 8.76 2.35 1.71-7.89 8.75-13.82 17.15-13.82 9.67 0 17.55 7.87 17.55 17.55s-7.87 17.55-17.55 17.55c-3.1 0-6.12-.83-8.76-2.35-1.71 7.89-8.75 13.82-17.15 13.82Z" class="cls-1"/><path d="M124.93 157.6s-.06-6.97-.04-9.07c-.03-2.21-1.12-3.01-3.36-3.05-1.1.01-10.81.03-12.12 0s-2.08-.02-2.6.52-7.81 7.88-8.65 8.73c-1.37 1.5-1.56 1.82-1.54 2.78v-.02c-.02.96.17 1.28 1.54 2.78.84.85 8.13 8.19 8.65 8.73s1.3.54 2.6.52 11.01 0 12.12 0c2.24-.04 3.33-.84 3.36-3.05-.02-2.1.04-9.07.04-9.07m-32.67-31.7s-6.97.06-9.07.04c-2.21.03-3.01 1.12-3.05 3.36.01 1.1.03 10.81 0 12.12s-.02 2.08.52 2.6 7.88 7.81 8.73 8.65c1.5 1.37 1.82 1.56 2.78 1.54h-.02c.96.02 1.28-.17 2.78-1.54.85-.84 8.19-8.13 8.73-8.65s.54-1.3.52-2.6 0-11.01 0-12.12c-.04-2.24-.84-3.33-3.05-3.36-2.1.02-9.07-.04-9.07-.04m-32.52 31.72s.06 6.97.04 9.07c.03 2.21 1.12 3.01 3.36 3.05 1.1-.01 10.81-.03 12.12 0s2.08.02 2.6-.52 7.81-7.88 8.65-8.73c1.37-1.5 1.56-1.82 1.54-2.78v.02c.02-.96-.17-1.28-1.54-2.78-.84-.85-8.13-8.19-8.65-8.73s-1.3-.54-2.6-.52-11.01 0-12.12 0c-2.24.04-3.33.84-3.36 3.05.02 2.1-.04 9.07-.04 9.07m32.53 31.04s6.97-.06 9.07-.04c2.21-.03 3.01-1.12 3.05-3.36-.01-1.1-.03-10.81 0-12.12s.02-2.08-.52-2.6-7.88-7.81-8.73-8.65c-1.5-1.37-1.82-1.56-2.78-1.54h.02c-.96-.02-1.28.17-2.78 1.54-.85.84-8.19 8.13-8.73 8.65s-.54 1.3-.52 2.6 0 11.01 0 12.12c.04 2.24.84 3.33 3.05 3.36 2.1-.02 9.07.04 9.07.04" style="fill:#363436"/><path d="M83.14 192.98c-4.31 0-7.82-3.51-7.82-7.82v-10.8H63.08c-4.31 0-7.82-3.51-7.82-7.82v-18.06c0-4.31 3.51-7.82 7.82-7.82h12.24v-11.45c0-4.31 3.51-7.82 7.82-7.82h18.06c4.31 0 7.82 3.51 7.82 7.82v11.45h12.37c4.31 0 7.82 3.51 7.82 7.82v18.06c0 4.31-3.51 7.82-7.82 7.82h-12.37v10.8c0 4.31-3.51 7.82-7.82 7.82z" class="cls-1"/><path d="m172.324 226.027 7.375-7.375 3.062 3.062-7.375 7.375z" class="cls-24"/><rect width=".33" height="1.41" x="165.35" y="197" class="cls-23" rx=".13" ry=".13" transform="rotate(-135 165.51 197.713)"/><rect width=".33" height="1.41" x="166.34" y="198" class="cls-23" rx=".13" ry=".13" transform="rotate(-135 166.51 198.71)"/><rect width=".33" height="1.41" x="167.34" y="199" class="cls-23" rx=".13" ry=".13" transform="rotate(-135 167.509 199.708)"/><rect width=".33" height="1.41" x="168.34" y="200" class="cls-23" rx=".13" ry=".13" transform="rotate(-135 168.508 200.706)"/><rect width=".33" height="1.41" x="169.34" y="201" class="cls-23" rx=".13" ry=".13" transform="rotate(-135 169.5 201.701)"/><rect width=".33" height="1.41" x="170.34" y="201.99" class="cls-23" rx=".13" ry=".13" transform="rotate(-135 170.504 202.697)"/><rect width=".33" height="1.41" x="171.34" y="202.99" class="cls-23" rx=".13" ry=".13" transform="rotate(-135 171.498 203.697)"/><rect width=".33" height="1.41" x="172.33" y="203.99" class="cls-23" rx=".13" ry=".13" transform="rotate(-135 172.497 204.695)"/><rect width=".33" height="1.41" x="173.33" y="204.99" class="cls-23" rx=".13" ry=".13" transform="rotate(-135 173.496 205.693)"/><rect width=".33" height="1.41" x="174.33" y="205.99" class="cls-23" rx=".13" ry=".13" transform="rotate(-135 174.495 206.69)"/><rect width=".33" height="1.41" x="175.33" y="206.99" class="cls-23" rx=".13" ry=".13" transform="rotate(-135 175.495 207.689)"/><rect width=".33" height="1.41" x="176.33" y="207.98" class="cls-23" rx=".13" ry=".13" transform="rotate(-135 176.494 208.686)"/><rect width=".33" height="1.41" x="150.94" y="211.41" class="cls-23" rx=".13" ry=".13" transform="rotate(-135 151.1 212.123)"/><rect width=".33" height="1.41" x="151.93" y="212.41" class="cls-23" rx=".13" ry=".13" transform="rotate(-135 152.099 213.12)"/><rect width=".33" height="1.41" x="152.93" y="213.41" class="cls-23" rx=".13" ry=".13" transform="rotate(-135 153.098 214.119)"/><rect width=".33" height="1.41" x="153.93" y="214.41" class="cls-23" rx=".13" ry=".13" transform="rotate(-135 154.097 215.117)"/><rect width=".33" height="1.41" x="154.93" y="215.41" class="cls-23" rx=".13" ry=".13" transform="rotate(-135 155.096 216.114)"/><rect width=".33" height="1.41" x="155.93" y="216.4" class="cls-23" rx=".13" ry=".13" transform="rotate(-135 156.093 217.107)"/><rect width=".33" height="1.41" x="156.93" y="217.4" class="cls-23" rx=".13" ry=".13" transform="rotate(-135 157.087 218.107)"/><rect width=".33" height="1.41" x="157.92" y="218.4" class="cls-23" rx=".13" ry=".13" transform="rotate(-135 158.092 219.103)"/><rect width=".33" height="1.41" x="158.92" y="219.4" class="cls-23" rx=".13" ry=".13" transform="rotate(-135 159.086 220.103)"/><rect width=".33" height="1.41" x="159.92" y="220.4" class="cls-23" rx=".13" ry=".13" transform="rotate(-135 160.085 221.1)"/><rect width=".33" height="1.41" x="160.92" y="221.4" class="cls-23" rx=".13" ry=".13" transform="rotate(-135 161.084 222.099)"/><rect width=".33" height="1.41" x="161.92" y="222.39" class="cls-23" rx=".13" ry=".13" transform="rotate(-135 162.078 223.099)"/><rect width=".33" height="1.41" x="162.05" y="196.84" class="cls-23" rx=".13" ry=".13" transform="rotate(-45 162.213 197.539)"/><rect width=".33" height="1.41" x="161.05" y="197.84" class="cls-23" rx=".13" ry=".13" transform="rotate(-45 161.218 198.541)"/><rect width=".33" height="1.41" x="160.05" y="198.84" class="cls-23" rx=".13" ry=".13" transform="rotate(-45 160.211 199.538)"/><rect width=".33" height="1.41" x="159.05" y="199.83" class="cls-23" rx=".13" ry=".13" transform="rotate(-45 159.217 200.54)"/><rect width=".33" height="1.41" x="158.06" y="200.83" class="cls-23" rx=".13" ry=".13" transform="rotate(-45 158.222 201.542)"/><rect width=".33" height="1.41" x="157.06" y="201.83" class="cls-23" rx=".13" ry=".13" transform="rotate(-45 157.22 202.527)"/><rect width=".33" height="1.41" x="156.06" y="202.83" class="cls-23" rx=".13" ry=".13" transform="rotate(-45 156.225 203.53)"/><rect width=".33" height="1.41" x="155.06" y="203.83" class="cls-23" rx=".13" ry=".13" transform="rotate(-45 155.23 204.532)"/><rect width=".33" height="1.41" x="154.06" y="204.82" class="cls-23" rx=".13" ry=".13" transform="rotate(-45 154.223 205.529)"/><rect width=".33" height="1.41" x="153.06" y="205.82" class="cls-23" rx=".13" ry=".13" transform="rotate(-45 153.228 206.53)"/><rect width=".33" height="1.41" x="152.07" y="206.82" class="cls-23" rx=".13" ry=".13" transform="rotate(-45 152.233 207.533)"/><rect width=".33" height="1.41" x="151.07" y="207.82" class="cls-23" rx=".13" ry=".13" transform="rotate(-45 151.231 208.518)"/><rect width=".33" height="1.41" x="176.28" y="211.4" class="cls-23" rx=".13" ry=".13" transform="rotate(-45 176.446 212.104)"/><rect width=".33" height="1.41" x="175.29" y="212.4" class="cls-23" rx=".13" ry=".13" transform="rotate(-45 175.451 213.106)"/><rect width=".33" height="1.41" x="174.29" y="213.4" class="cls-23" rx=".13" ry=".13" transform="rotate(-45 174.456 214.108)"/><rect width=".33" height="1.41" x="173.29" y="214.4" class="cls-23" rx=".13" ry=".13" transform="rotate(-45 173.461 215.11)"/><rect width=".33" height="1.41" x="172.29" y="215.4" class="cls-23" rx=".13" ry=".13" transform="rotate(-45 172.454 216.107)"/><rect width=".33" height="1.41" x="171.29" y="216.39" class="cls-23" rx=".13" ry=".13" transform="rotate(-45 171.465 217.097)"/><rect width=".33" height="1.41" x="170.3" y="217.39" class="cls-23" rx=".13" ry=".13" transform="rotate(-45 170.458 218.094)"/><rect width=".33" height="1.41" x="169.3" y="218.39" class="cls-23" rx=".13" ry=".13" transform="rotate(-45 169.463 219.096)"/><rect width=".33" height="1.41" x="168.3" y="219.39" class="cls-23" rx=".13" ry=".13" transform="rotate(-45 168.468 220.098)"/><rect width=".33" height="1.41" x="167.3" y="220.39" class="cls-23" rx=".13" ry=".13" transform="rotate(-45 167.46 221.095)"/><rect width=".33" height="1.41" x="166.3" y="221.38" class="cls-23" rx=".13" ry=".13" transform="rotate(-45 166.47 222.086)"/><rect width=".33" height="1.41" x="165.3" y="222.38" class="cls-23" rx=".13" ry=".13" transform="rotate(-45 165.476 223.088)"/><rect width="20.22" height="20.22" x="153.67" y="200.32" rx="1.39" ry="1.39" style="fill:#373737" transform="rotate(-45 163.774 210.433)"/><rect width="8.41" height="2.32" x="102.76" y="108.51" class="cls-24" rx=".92" ry=".92"/><rect width="5.33" height="2.07" x="104.3" y="108.64" class="cls-5" rx=".82" ry=".82"/><path d="M106.13 108.51h1.68v2.32h-1.68z" class="cls-12"/><rect width="8.41" height="2.32" x="113.12" y="108.51" class="cls-24" rx=".92" ry=".92"/><rect width="5.33" height="2.07" x="114.66" y="108.64" class="cls-5" rx=".82" ry=".82"/><path d="M116.49 108.51h1.68v2.32h-1.68z" class="cls-12"/><rect width="8.41" height="2.32" x="144.2" y="108.51" class="cls-24" rx=".92" ry=".92"/><rect width="5.33" height="2.07" x="145.74" y="108.64" class="cls-5" rx=".82" ry=".82"/><path d="M147.56 108.51h1.68v2.32h-1.68z" class="cls-12"/><rect width="8.41" height="2.32" x="133.84" y="108.51" class="cls-24" rx=".92" ry=".92"/><rect width="5.33" height="2.07" x="135.38" y="108.64" class="cls-5" rx=".82" ry=".82"/><path d="M137.2 108.51h1.68v2.32h-1.68z" class="cls-12"/><rect width="8.41" height="2.32" x="123.48" y="108.51" class="cls-24" rx=".92" ry=".92"/><rect width="5.33" height="2.07" x="125.02" y="108.64" class="cls-5" rx=".82" ry=".82"/><path d="M126.84 108.51h1.68v2.32h-1.68z" class="cls-26"/><rect width="8.41" height="2.32" x="185.33" y="37.59" class="cls-24" rx=".92" ry=".92"/><rect width="5.33" height="2.07" x="186.87" y="37.72" class="cls-5" rx=".82" ry=".82"/><path d="M188.69 37.59h1.68v2.32h-1.68z" class="cls-26"/><rect width="8.41" height="2.32" x="185.33" y="43.54" class="cls-24" rx=".92" ry=".92"/><rect width="5.33" height="2.07" x="186.87" y="43.66" class="cls-5" rx=".82" ry=".82"/><path d="M188.69 43.54h1.68v2.32h-1.68z" class="cls-26"/><rect width="8.41" height="2.32" x="185.33" y="49.49" class="cls-24" rx=".92" ry=".92"/><rect width="5.33" height="2.07" x="186.87" y="49.61" class="cls-5" rx=".82" ry=".82"/><path d="M188.69 49.49h1.68v2.32h-1.68z" class="cls-26"/><rect width="8.41" height="2.32" x="60.99" y="89.43" class="cls-24" rx=".92" ry=".92"/><rect width="5.33" height="2.07" x="62.54" y="89.55" class="cls-5" rx=".82" ry=".82"/><path d="M64.36 89.43h1.68v2.32h-1.68z" class="cls-12"/><rect width="8.41" height="2.32" x="60.99" y="64.42" class="cls-24" rx=".92" ry=".92"/><rect width="5.33" height="2.07" x="62.54" y="64.55" class="cls-5" rx=".82" ry=".82"/><path d="M64.36 64.42h1.68v2.32h-1.68z" class="cls-12"/><rect width="8.41" height="2.32" x="60.99" y="33.41" class="cls-24" rx=".92" ry=".92"/><rect width="5.33" height="2.07" x="62.54" y="33.53" class="cls-5" rx=".82" ry=".82"/><path d="M64.36 33.41h1.68v2.32h-1.68z" class="cls-26"/><rect width="8.41" height="2.32" x="60.99" y="39.35" class="cls-24" rx=".92" ry=".92"/><rect width="5.33" height="2.07" x="62.54" y="39.48" class="cls-5" rx=".82" ry=".82"/><path d="M64.36 39.35h1.68v2.32h-1.68z" class="cls-26"/><rect width="8.41" height="2.32" x="60.99" y="45.3" class="cls-24" rx=".92" ry=".92"/><rect width="5.33" height="2.07" x="62.54" y="45.43" class="cls-5" rx=".82" ry=".82"/><path d="M64.36 45.3h1.68v2.32h-1.68z" class="cls-26"/><rect width="8.41" height="2.32" x="60.99" y="83.55" class="cls-24" rx=".92" ry=".92"/><rect width="5.33" height="2.07" x="62.54" y="83.67" class="cls-5" rx=".82" ry=".82"/><path d="M64.36 83.55h1.68v2.32h-1.68z" class="cls-26"/><rect width="8.41" height="2.32" x="81.83" y="216.16" class="cls-24" rx=".92" ry=".92" transform="rotate(-90 86.03 217.32)"/><rect width="5.33" height="2.07" x="83.37" y="216.29" class="cls-5" rx=".82" ry=".82" transform="rotate(-90 86.035 217.325)"/><path d="M84.87 218.16v-1.68h2.32v1.68z" class="cls-26"/><rect width="8.41" height="2.32" x="87.67" y="216.16" class="cls-24" rx=".92" ry=".92" transform="rotate(-90 91.875 217.325)"/><rect width="5.33" height="2.07" x="89.21" y="216.29" class="cls-5" rx=".82" ry=".82" transform="rotate(-90 91.875 217.325)"/><path d="M90.71 218.17v-1.68h2.32v1.68z" class="cls-26"/><rect width="8.41" height="2.32" x="93.52" y="216.16" class="cls-24" rx=".92" ry=".92" transform="rotate(-90 97.72 217.32)"/><rect width="5.33" height="2.07" x="95.06" y="216.29" class="cls-5" rx=".82" ry=".82" transform="rotate(-90 97.725 217.325)"/><path d="M96.56 218.16v-1.68h2.32v1.68z" class="cls-26"/><rect width="8.41" height="2.32" x="99.36" y="216.16" class="cls-24" rx=".92" ry=".92" transform="rotate(-90 103.565 217.325)"/><rect width="5.33" height="2.07" x="100.9" y="216.29" class="cls-5" rx=".82" ry=".82" transform="rotate(-90 103.565 217.325)"/><path d="M102.4 218.17v-1.68h2.32v1.68z" class="cls-26"/><rect width="8.41" height="2.32" x="173.33" y="195.5" class="cls-24" rx=".92" ry=".92" transform="rotate(-135 177.535 196.662)"/><rect width="5.33" height="2.07" x="174.87" y="195.63" class="cls-5" rx=".82" ry=".82" transform="rotate(-135 177.535 196.662)"/><path d="m177.304 198.075-1.188-1.188 1.64-1.64 1.188 1.187z" class="cls-26"/><rect width="8.41" height="2.32" x="159.09" y="228.68" class="cls-24" rx=".92" ry=".92"/><rect width="5.33" height="2.07" x="160.63" y="228.8" class="cls-5" rx=".82" ry=".82"/><path d="M162.45 228.68h1.68V231h-1.68z" class="cls-26"/><rect width="8.41" height="2.32" x="120.05" y="217.94" class="cls-24" rx=".92" ry=".92" transform="rotate(-90 124.25 219.1)"/><rect width="5.33" height="2.07" x="121.59" y="218.07" class="cls-5" rx=".82" ry=".82" transform="rotate(-90 124.25 219.1)"/><path d="M123.09 219.94v-1.68h2.32v1.68z" class="cls-26"/><rect width="8.41" height="2.32" x="126.12" y="217.94" class="cls-24" rx=".92" ry=".92" transform="rotate(-90 130.33 219.1)"/><rect width="5.33" height="2.07" x="127.67" y="218.07" class="cls-5" rx=".82" ry=".82" transform="rotate(-90 130.33 219.1)"/><path d="M129.17 219.94v-1.68h2.32v1.68z" class="cls-26"/><rect width="8.41" height="2.32" x="159.57" y="189.33" class="cls-24" rx=".92" ry=".92"/><rect width="5.33" height="2.07" x="161.11" y="189.46" class="cls-5" rx=".82" ry=".82"/><path d="M162.93 189.33h1.68v2.32h-1.68z" class="cls-12"/><rect width="8.41" height="2.32" x="145.72" y="195.42" class="cls-24" rx=".92" ry=".92" transform="rotate(-45 149.926 196.579)"/><rect width="5.33" height="2.07" x="147.26" y="195.54" class="cls-5" rx=".82" ry=".82" transform="rotate(-45 149.926 196.579)"/><path d="m148.508 196.357 1.188-1.188 1.64 1.64-1.187 1.189z" class="cls-12"/><rect width="8.41" height="2.32" x="139.78" y="208.76" class="cls-24" rx=".92" ry=".92" transform="rotate(-90 143.985 209.925)"/><rect width="5.33" height="2.07" x="141.32" y="208.89" class="cls-5" rx=".82" ry=".82" transform="rotate(-90 143.985 209.925)"/><path d="M142.82 210.76v-1.68h2.32v1.68z" class="cls-12"/><rect width="8.41" height="2.32" x="144.95" y="222.3" class="cls-24" rx=".92" ry=".92" transform="rotate(-135 149.154 223.461)"/><rect width="5.33" height="2.07" x="146.49" y="222.42" class="cls-5" rx=".82" ry=".82" transform="rotate(-135 149.154 223.461)"/><path d="m148.929 224.88-1.188-1.189 1.64-1.64 1.188 1.188z" class="cls-12"/><path d="M186.57 68.09h.46v1.61h-.46z" class="cls-24"/><rect width=".89" height="2.44" x="186.36" y="69.75" class="cls-5" rx=".35" ry=".35"/><path d="M188.43 68.09h.46v1.61h-.46z" class="cls-24"/><rect width=".89" height="2.44" x="188.21" y="69.75" class="cls-5" rx=".35" ry=".35"/><path d="M190.28 68.09h.46v1.61h-.46z" class="cls-24"/><rect width=".89" height="2.44" x="190.06" y="69.75" class="cls-5" rx=".35" ry=".35"/><path d="M192.13 68.09h.46v1.61h-.46z" class="cls-24"/><rect width=".89" height="2.44" x="191.92" y="69.75" class="cls-5" rx=".35" ry=".35"/><path d="M186.57 85.14h.46v1.61h-.46z" class="cls-24"/><rect width=".89" height="2.44" x="186.36" y="82.65" class="cls-5" rx=".35" ry=".35"/><path d="M188.43 85.14h.46v1.61h-.46z" class="cls-24"/><rect width=".89" height="2.44" x="188.21" y="82.65" class="cls-5" rx=".35" ry=".35"/><path d="M190.28 85.14h.46v1.61h-.46z" class="cls-24"/><rect width=".89" height="2.44" x="190.06" y="82.65" class="cls-5" rx=".35" ry=".35"/><path d="M192.13 85.14h.46v1.61h-.46z" class="cls-24"/><rect width=".89" height="2.44" x="191.92" y="82.65" class="cls-5" rx=".35" ry=".35"/><rect width="9.13" height="12.74" x="185.14" y="71.04" class="cls-17" rx="1.72" ry="1.72"/><path d="M186.5 54.51h.46v1.61h-.46z" class="cls-24"/><rect width=".89" height="2.44" x="186.28" y="56.16" class="cls-5" rx=".35" ry=".35"/><path d="M189.23 54.51h.46v1.61h-.46z" class="cls-24"/><rect width=".89" height="2.44" x="189.02" y="56.16" class="cls-5" rx=".35" ry=".35"/><path d="M191.97 54.51h.46v1.61h-.46z" class="cls-24"/><rect width=".89" height="2.44" x="191.75" y="56.16" class="cls-5" rx=".35" ry=".35"/><path d="M186.5 63.7h.46v1.61h-.46z" class="cls-24"/><rect width=".89" height="2.44" x="186.28" y="61.22" class="cls-5" rx=".35" ry=".35"/><path d="M189.23 63.7h.46v1.61h-.46z" class="cls-24"/><rect width=".89" height="2.44" x="189.02" y="61.22" class="cls-5" rx=".35" ry=".35"/><path d="M191.97 63.7h.46v1.61h-.46z" class="cls-24"/><rect width=".89" height="2.44" x="191.75" y="61.22" class="cls-5" rx=".35" ry=".35"/><rect width="9.4" height="4.93" x="184.82" y="57.48" class="cls-17" rx="1.72" ry="1.72"/><path d="M62.37 69.51h.46v1.61h-.46z" class="cls-24"/><rect width=".89" height="2.44" x="62.16" y="71.16" class="cls-5" rx=".35" ry=".35"/><path d="M65.11 69.51h.46v1.61h-.46z" class="cls-24"/><rect width=".89" height="2.44" x="64.89" y="71.16" class="cls-5" rx=".35" ry=".35"/><path d="M67.84 69.51h.46v1.61h-.46z" class="cls-24"/><rect width=".89" height="2.44" x="67.63" y="71.16" class="cls-5" rx=".35" ry=".35"/><path d="M62.37 78.7h.46v1.61h-.46z" class="cls-24"/><rect width=".89" height="2.44" x="62.16" y="76.22" class="cls-5" rx=".35" ry=".35"/><path d="M67.84 78.7h.46v1.61h-.46z" class="cls-24"/><rect width=".89" height="2.44" x="67.63" y="76.22" class="cls-5" rx=".35" ry=".35"/><rect width="9.4" height="4.93" x="60.69" y="72.48" class="cls-17" rx="1.72" ry="1.72"/><rect width="10.99" height="4.71" x="121.79" y="207.88" class="cls-24" rx=".55" ry=".55"/><path d="M124.47 207.85h5.86v4.74h-5.86z" class="cls-26"/><rect width="9.44" height="3.05" x="172.8" y="222.34" rx="1.21" ry="1.21" style="stroke-miterlimit:10;stroke-width:.26px;stroke:#797a7d;fill:#a8aaac" transform="rotate(-45 177.516 223.86)"/><path d="M88.79 5.75h3.58v5.14h-3.58z" style="stroke-miterlimit:10;fill:#c9c9c9;stroke:#fff;stroke-width:.26px"/><rect width="5.87" height="2.32" x="83.1" y="224.62" class="cls-24" rx=".92" ry=".92" transform="rotate(-90 86.03 225.78)"/><rect width="3.71" height="2.07" x="84.17" y="224.74" class="cls-29" rx=".82" ry=".82" transform="rotate(-90 86.03 225.78)"/><rect width="5.87" height="2.32" x="89.08" y="224.62" class="cls-24" rx=".92" ry=".92" transform="rotate(-90 92.01 225.78)"/><rect width="3.71" height="2.07" x="90.16" y="224.74" class="cls-29" rx=".82" ry=".82" transform="rotate(-90 92.01 225.78)"/><path d="M63.9 53.8h3.04v4.85H63.9z" style="fill:#0081c0"/><path d="M87.96 239.61v1.4h1.15v1.24l1.52 1.56h2.38l1.56-1.48v-1.24h1.2v-1.48z" class="cls-26"/><rect width="8.03" height="5.59" x="87.86" y="234.92" rx="2.21" ry="2.21" style="stroke-miterlimit:10;stroke-width:.26px;fill:#5b5940;stroke:#44432e"/><path d="M123.44 227.79h.46v1.61h-.46z" class="cls-24"/><rect width=".89" height="2.44" x="123.23" y="229.45" class="cls-5" rx=".35" ry=".35"/><path d="M125.29 227.79h.46v1.61h-.46z" class="cls-24"/><rect width=".89" height="2.44" x="125.08" y="229.45" class="cls-5" rx=".35" ry=".35"/><path d="M127.15 227.79h.46v1.61h-.46z" class="cls-24"/><rect width=".89" height="2.44" x="126.93" y="229.45" class="cls-5" rx=".35" ry=".35"/><path d="M129 227.79h.46v1.61H129z" class="cls-24"/><rect width=".89" height="2.44" x="128.79" y="229.45" class="cls-5" rx=".35" ry=".35"/><path d="M130.95 227.79h.46v1.61h-.46z" class="cls-24"/><rect width=".89" height="2.44" x="130.74" y="229.45" class="cls-5" rx=".35" ry=".35"/><path d="m117.44 250.02.15-20.36h3.1l1.39 1.6h11.25l1.43-1.64h3.08v20.4z" class="cls-21"/><path d="M119.32 241.47c0 1.89-.3 3.45 1.26 3.45s1.38-1.14 1.38-3.45m11.24.24c0 1.89-.3 3.45 1.26 3.45s1.38-1.14 1.38-3.45" style="stroke-miterlimit:10;fill:none;stroke:#6e6f5e;stroke-width:.53px"/><path d="M136.93 229.62h.85c.28 0 .5-.32.5-.68h.81v3.01h-.69v8.73h.69v2.86h-.63v6.49h-1.65l.12-20.4Zm-19.16 0h-.85c-.28 0-.5-.32-.5-.68h-.81v3.01h.69v8.73h-.69v2.86h.63v6.49h1.64l-.11-20.4Z" style="fill:#6e6f5e"/><path d="M139.09 228.94h.89v-1.15h1.5v3.06h-2.39z" class="cls-21"/><path d="M139.09 231.92h.89v1.15h1.5v-3.06h-2.39zm0 8.75h.89v-1.1h1.5v2.94h-2.39z" class="cls-21"/><path d="M139.09 243.53h.89v1.1h1.5v-2.93h-2.39zm-23.48-14.59h-.89v-1.15h-1.51v3.06h2.4z" class="cls-21"/><path d="M115.61 231.92h-.89v1.15h-1.51v-3.06h2.4z" class="cls-21"/><path d="M76.86 92.68H178.9" class="cls-1"/><path d="M115.61 240.67h-.89v-1.1h-1.51v2.94h2.4z" class="cls-21"/><path d="M115.61 243.53h-.89v1.1h-1.51v-2.93h2.4z" class="cls-21"/><path d="M52 105.06h151.31" class="cls-1"/><rect width="103.23" height="82.66" x="76.11" y="22.4" class="cls-1" rx="9.16" ry="9.16"/><rect width="4.79" height="2.32" x="79.77" y="16.55" class="cls-24" rx=".92" ry=".92" transform="rotate(90 82.165 17.705)"/><rect width="3.03" height="2.07" x="80.65" y="16.67" class="cls-5" rx=".82" ry=".82" transform="rotate(90 82.165 17.705)"/><path d="M83.32 17.23v.96H81v-.96z" class="cls-26"/><rect width="4.79" height="2.32" x="84.31" y="16.55" class="cls-24" rx=".92" ry=".92" transform="rotate(90 86.7 17.71)"/><rect width="3.03" height="2.07" x="85.18" y="16.67" class="cls-5" rx=".82" ry=".82" transform="rotate(90 86.7 17.71)"/><path d="M87.86 17.23v.96h-2.32v-.96z" class="cls-26"/><rect width="4.79" height="2.32" x="93.23" y="16.55" class="cls-24" rx=".92" ry=".92" transform="rotate(90 95.62 17.71)"/><rect width="3.03" height="2.07" x="94.11" y="16.67" class="cls-5" rx=".82" ry=".82" transform="rotate(90 95.62 17.71)"/><path d="M96.78 17.23v.96h-2.32v-.96z" class="cls-26"/><path d="M98.53 11.19h-1.75V9.66H80.8v1.53h-1.57v4.68h1.57v1.84h15.98v-2.32h1.75z" style="fill:#97999b"/><path d="m90.63 243.81-.94 5.87h4.36l-1.04-5.87z" style="fill:#e6e7e8"/><rect width="5.87" height="2.32" x="94.66" y="224.62" class="cls-24" rx=".92" ry=".92" transform="rotate(-90 97.6 225.78)"/><rect width="3.71" height="2.07" x="95.74" y="224.74" class="cls-29" rx=".82" ry=".82" transform="rotate(-90 97.6 225.78)"/><path d="M122.33 180.37h.46v1.61h-.46z" class="cls-24"/><rect width=".89" height="2.44" x="122.12" y="182.02" class="cls-5" rx=".35" ry=".35"/><path d="M126.09 180.37h.46v1.61h-.46z" class="cls-24"/><rect width=".89" height="2.44" x="125.88" y="182.02" class="cls-5" rx=".35" ry=".35"/><path d="M129.85 180.37h.46v1.61h-.46z" class="cls-24"/><rect width=".89" height="2.44" x="129.63" y="182.02" class="cls-5" rx=".35" ry=".35"/><path d="M133.6 180.37h.46v1.61h-.46z" class="cls-24"/><rect width=".89" height="2.44" x="133.39" y="182.02" class="cls-5" rx=".35" ry=".35"/><path d="M122.13 202.74h.46v1.61h-.46z" class="cls-24"/><rect width=".89" height="2.44" x="121.92" y="200.26" class="cls-5" rx=".35" ry=".35"/><path d="M125.89 202.74h.46v1.61h-.46z" class="cls-24"/><rect width=".89" height="2.44" x="125.68" y="200.26" class="cls-5" rx=".35" ry=".35"/><path d="M129.65 202.74h.46v1.61h-.46z" class="cls-24"/><rect width=".89" height="2.44" x="129.43" y="200.26" class="cls-5" rx=".35" ry=".35"/><path d="M133.4 202.74h.46v1.61h-.46z" class="cls-24"/><rect width=".89" height="2.44" x="133.19" y="200.26" class="cls-5" rx=".35" ry=".35"/><rect width="16.04" height="20.01" x="120.11" y="182.37" class="cls-17" rx="1.35" ry="1.35"/><rect width="34.2" height="7.65" x="110.61" y="90.59" rx="3.03" ry="3.03" style="fill:#a67f3a"/><path d="M113.02 93.61h29.38v4.63h-29.38zm63.47-14.78H78.93V28.97h97.56z" class="cls-17"/><rect width="86.27" height="43.01" x="84.81" y="32.34" class="cls-17" rx="3.93" ry="3.93"/><path d="M78.93 79.07v7.81c0 4.03 2.73 5.59 5.29 5.59h26.37v1.14h22.72l.27-14.78H78.93z" class="cls-17"/><path d="M176.49 79.07v7.81c0 4.03-2.73 5.59-5.29 5.59h-26.37v1.14h-22.72l-.27-14.78h54.65z" class="cls-17"/><path d="m122.74 198.53.96-.13-.49-.2-.47-.23v-.64l1.74.89v.56l-.65.12.65.33v.57l-1.74.3v-.64l.48-.08.49-.05-.96-.45v-.37Zm-.67-1.54a.42.42 0 0 1-.1-.28c0-.08.02-.15.07-.21s.12-.08.2-.08q.165 0 .27.12c.07.08.1.17.1.28 0 .08-.02.15-.07.21s-.11.09-.2.09c-.11 0-.21-.04-.27-.12Zm2.4-.16-1.7-.29v.61l1.7.28v-.61Zm0-1.48-.95-.16c-.1-.02-.17 0-.22.03a.18.18 0 0 0-.07.15c0 .08.03.15.09.22.06.06.14.1.25.12l.91.15v.6l-1.73-.29v-.54h.19a.68.68 0 0 1-.23-.55c0-.19.07-.34.19-.43.13-.1.33-.12.62-.07l.96.16v.61Zm-1.58-1.82c-.12-.12-.19-.28-.19-.48s.07-.36.2-.48.31-.18.53-.18q.465 0 .75.24c.19.16.29.39.31.67 0 .1-.01.2-.05.29-.03.09-.09.16-.17.22l.19.06v.54l-2.45-.41v-.61l.87.14Zm.47.03c.09.07.2.11.31.11.08 0 .16-.02.21-.07.06-.05.09-.12.09-.2 0-.11-.04-.2-.12-.28a.45.45 0 0 0-.33-.12c-.1 0-.17.02-.23.07s-.08.12-.08.2c0 .12.05.21.14.29Zm-.62-2.8v-.57l1.73.29v.56h-.19c.08.07.14.17.17.27.04.11.05.21.05.3-.01.2-.08.35-.21.46s-.3.16-.51.16c-.3 0-.55-.09-.76-.28s-.31-.41-.31-.69c0-.23.07-.38.22-.44zm.61.73q.12.12.33.12c.09 0 .17-.03.22-.08a.28.28 0 0 0 .08-.2c0-.11-.04-.21-.13-.29a.47.47 0 0 0-.32-.12c-.09 0-.17.02-.22.07-.06.05-.08.12-.08.21 0 .11.04.2.13.28Zm1.12-2.48-.95-.16c-.1-.02-.17 0-.22.03a.18.18 0 0 0-.07.15c0 .08.03.15.09.22.06.06.14.1.25.12l.91.15v.6l-1.73-.29v-.54h.19a.68.68 0 0 1-.23-.55c0-.19.07-.34.19-.43.13-.1.33-.12.62-.07l.96.16v.61Zm-2.45-2.53v-.61l2.45.41v.54h-.19c.08.07.14.16.17.27.04.1.05.21.05.3-.01.2-.08.35-.2.46s-.29.16-.5.16c-.31 0-.57-.09-.78-.28s-.31-.42-.31-.69c0-.21.06-.35.19-.42l-.87-.15Zm1.33.8q.12.12.33.12c.1 0 .17-.02.22-.07a.28.28 0 0 0 .08-.2c0-.11-.04-.21-.13-.28s-.19-.11-.31-.11a.35.35 0 0 0-.23.07c-.06.05-.09.11-.09.2 0 .11.04.2.13.28Zm5.82 10.77v.21h-.05c.04.23.06.36.06.38 0 .09-.03.17-.1.22-.06.06-.15.08-.24.08h-.97c-.1 0-.19-.03-.25-.1s-.1-.14-.1-.24v-.35h-1.01v-.21h2.66Zm-.21.22h-1.25v.3c0 .12.06.18.19.18h.88c.13 0 .19-.06.19-.18 0-.03 0-.13-.02-.3Zm.01-1.45c.13 0 .19.06.19.18v.52c0 .12-.06.18-.19.18h-1.27c-.13 0-.19-.06-.19-.18V197c0-.12.06-.18.19-.18h.6l.08.07v.6h.6v-.46h-.3v-.21h.3Zm-.77.21h-.5v.46h.5zm.77-1.41c.13 0 .19.06.19.18v.49c0 .12-.06.18-.19.18h-.38v-.21h.37v-.43h-.33l-.49.56a.22.22 0 0 1-.18.08h-.28c-.13 0-.19-.06-.19-.18v-.49c0-.12.06-.18.19-.18h.33v.21h-.33v.43h.29l.48-.57c.04-.05.1-.08.18-.08h.31Zm-1.82-.57v.22h-.29v-.22zm2.02 0v.21h-1.65v-.21zm.43-1.26c.13 0 .19.06.19.18v.51c0 .12-.08.19-.24.19h-.17v-.21h.22v-.45h-.44v.35c0 .1-.03.18-.1.24s-.15.1-.25.1h-.97c-.1 0-.18-.03-.24-.08a.3.3 0 0 1-.1-.22c0-.02.02-.15.06-.38h-.05v-.21h2.09Zm-.63.22h-1.25c-.01.17-.02.27-.02.3 0 .12.06.18.19.18h.89c.13 0 .19-.06.19-.18zm.2-1.47v.21h-1.45v.47h1.45v.22h-1.65v-.22h.05c-.01-.08-.02-.17-.04-.25-.01-.1-.02-.19-.02-.26 0-.12.06-.18.19-.18h1.48Zm-.2-1.23c.13 0 .19.06.19.18v.52c0 .12-.06.18-.19.18h-1.27c-.13 0-.19-.06-.19-.18v-.52c0-.12.06-.18.19-.18h.6l.08.07v.6h.6v-.46h-.3v-.21h.3Zm-.77.21h-.5v.46h.5zm.97-1.46v.21h-.05c.04.23.06.36.06.38 0 .09-.03.17-.1.22-.06.06-.15.08-.24.08h-.97c-.1 0-.19-.03-.25-.1s-.1-.14-.1-.24v-.35h-1.01v-.21h2.66Zm-.21.21h-1.25v.3c0 .12.06.18.19.18h.88c.13 0 .19-.06.19-.18 0-.03 0-.13-.02-.3Zm-.15-2.12c.1 0 .19.03.25.1s.1.14.1.24v.57h-2.66v-.22h1.05l-.03-.25c-.01-.11-.02-.19-.02-.25 0-.12.06-.18.19-.18h1.12Zm-.03.22h-1.06v.47h1.25v-.3c0-.12-.06-.18-.19-.18Zm-1.27-1.45 1.64.38.64.16v.21l-.64-.16-1.64.39v-.22l1.3-.27-1.3-.27zm5.84 10.68v.21h-1.45v.47h1.45v.21h-1.45v.47h1.45v.22h-1.65v-.22h.05c-.01-.08-.02-.17-.04-.25-.01-.1-.02-.19-.02-.25s.02-.11.06-.15c-.01-.09-.03-.18-.04-.27-.02-.12-.02-.21-.02-.27 0-.12.06-.18.19-.18h1.48Zm-2.02-.58v.22h-.29v-.22zm2.02.01v.21h-1.65v-.21zm0-.59v.21h-2.66v-.21zm0-1.25v.23l-.84.43h.84v.22h-2.66v-.22h1.69l-.68-.4v-.23l.73.46zm0-.79v.31c0 .12-.06.18-.19.18h-1.26v.19h-.2v-.19h-.52v-.21h.52v-.28h.2v.28h1.26v-.28h.2Zm-.2-1.18c.13 0 .19.06.19.18v.54c0 .12-.06.18-.19.18h-1.27c-.13 0-.19-.06-.19-.18v-.54c0-.12.06-.18.19-.18zm0 .21h-1.26v.47h1.26zm.2-1.45v.21h-.05c.01.08.02.17.04.26.01.11.02.19.02.25q0 .18-.18.18h-.6c-.13 0-.19-.06-.19-.18v-.51h-.5v.46h.28v.21h-.28c-.13 0-.19-.06-.19-.18v-.52c0-.12.06-.18.19-.18zm-.21.21h-.58v.48h.6v-.48Zm.01-1.41c.13 0 .19.06.19.18v.49c0 .12-.06.18-.19.18h-.38v-.21h.37v-.43h-.33l-.48.56c-.05.05-.1.08-.18.08h-.28c-.13 0-.19-.06-.19-.18v-.49c0-.12.06-.18.19-.18h.33v.21h-.33v.43h.29l.48-.57c.04-.05.1-.08.18-.08h.31Zm.2-.91v.31c0 .12-.06.18-.19.18h-1.26v.19h-.2v-.19h-.52v-.21h.52v-.28h.2v.28h1.26v-.28h.2Zm-1.11-1.09v.21h-.34v.4h1.45v.22h-1.65v-.22h.05c-.01-.07-.02-.14-.04-.21-.01-.09-.02-.16-.02-.21 0-.12.06-.18.19-.18h.37Zm1.11-1.17v.21h-.05c.01.08.02.17.04.26.01.11.02.19.02.25q0 .18-.18.18h-.6c-.13 0-.19-.06-.19-.18v-.51h-.5v.46h.28v.21h-.28c-.13 0-.19-.06-.19-.18v-.52c0-.12.06-.18.19-.18zm-.21.21h-.58v.48h.6v-.48Zm.21-1.13v.31c0 .12-.06.18-.19.18h-1.26v.19h-.2v-.19h-.52v-.21h.52v-.28h.2v.28h1.26v-.28h.2Z" style="fill:#5a4952"/><path d="m158.87 212.19-.21.21-2.17-1.34-.03-.09.35-.35-1.21-1.21-.5.5 3.02 3.02-.2.2-3.28-3.28.74-.74s.1-.06.18-.05c.07.01.14.06.21.12l1.24 1.24c.16.16.17.31.02.45-.01.01-.04.03-.07.06s-.05.04-.06.06c.65.39 1.3.79 1.95 1.19Zm1-1.46q.105.105.12.21c.01.07 0 .13-.05.18l-.62.62s-.11.06-.18.05a.6.6 0 0 1-.21-.12l-2.81-2.81a.4.4 0 0 1-.12-.21c-.01-.07 0-.13.05-.18l.62-.62s.11-.06.18-.05q.105.015.21.12zm-.22.17-2.76-2.76-.54.54 2.76 2.76zm1.9-1.38-.19.19-2.08-2.08s-.11-.12-.24-.28l1.66 2.39-.04.04-2.39-1.66c.16.13.25.21.28.24l2.08 2.08-.19.19-3.28-3.28.18-.18 2.49 1.77s.05.04.1.09c-.02-.02-.05-.05-.09-.1l-1.77-2.49.18-.18 3.28 3.28Zm1.45-1.45-.19.19-2.08-2.08s-.11-.12-.24-.28l1.66 2.39-.04.04-2.39-1.66c.16.13.25.21.28.24l2.08 2.08-.18.18-3.28-3.28.18-.18 2.49 1.77s.05.04.1.09c-.02-.02-.05-.05-.09-.1l-1.77-2.49.18-.18 3.28 3.28Z" class="cls-13" style="opacity:.36"/><path d="M160.88 214.14c-.22-.22-.43-.44-.54-.56.09.22.33 1.11.49 1.67l-.12.12c-.43-.13-1.39-.42-1.64-.52.14.12.41.38.61.58l.49.49-.12.12-1.14-1.14.18-.18c.61.17 1.4.41 1.58.48-.05-.12-.3-1.01-.45-1.62l.18-.18 1.14 1.14-.12.12-.52-.52Zm.37-1.43-.54.54-.08-.08 1.2-1.2.08.08-.54.54 1.06 1.06-.13.13-1.06-1.06Zm1.55-.5.53.53-.12.12-1.14-1.14.57-.57c.31-.31.6-.36.78-.18.14.14.12.36-.03.56.19-.14.38-.17.57.02l.04.04c.08.08.18.2.25.21l-.13.13c-.08-.02-.16-.12-.26-.21l-.03-.03c-.19-.19-.34-.19-.65.12l-.39.39Zm-.08-.08.38-.38c.28-.28.33-.49.18-.64-.14-.14-.35-.09-.6.16l-.42.42.45.45Zm1.8-.58c-.13-.14-.14-.46 0-.93.12-.4.14-.51 0-.65-.12-.12-.31-.13-.53.09s-.24.38-.12.58l-.12.12c-.15-.21-.12-.49.16-.77.3-.3.58-.28.73-.14.17.17.12.32 0 .76-.09.35-.12.59-.07.74l.84-.84.06.1-.95.95Zm1.62-2.7c.25.25.47.65.07 1.05s-.78.2-1.04-.07-.45-.66-.06-1.05.78-.19 1.03.07m-.84.86c.21.21.54.41.84.12s.11-.62-.12-.85c-.21-.21-.53-.41-.83-.11s-.13.61.11.85Zm1.62-.55c-.13-.14-.14-.46 0-.93.12-.4.14-.52 0-.65-.12-.12-.31-.13-.53.09s-.24.38-.12.58l-.12.12c-.15-.21-.12-.49.16-.77.3-.3.58-.28.73-.14.17.17.12.32 0 .76-.09.35-.12.59-.07.74l.84-.84.06.1-.95.95Zm1.06-3.05-.64.64c.09.12.25.37.29.46 0-.13.07-.28.24-.45.26-.26.57-.32.8-.09.21.21.24.54-.1.87-.25.25-.53.32-.75.19l.12-.12c.15.08.36.05.56-.15.24-.24.24-.47.05-.66-.16-.16-.38-.18-.61.05-.21.21-.23.36-.2.53l-.14.09c-.1-.19-.34-.54-.45-.69l.76-.76.06.1Zm-5.62 10.4-.81.81.48.48.89-.89.06.1-.99.99-1.14-1.14.98-.98.08.08-.85.85.42.42.81-.81.08.08Zm.76-.43.19.6-.12.12-.56-1.73.15-.15 1.75.53-.13.13-.6-.19-.67.67Zm.55-.71c-.52-.16-.77-.23-.88-.28.05.13.15.43.29.87zm.86-.52c.2.1.43.05.69-.21.29-.29.3-.51.17-.63s-.29-.13-.7.16c-.4.28-.62.34-.79.18-.15-.15-.14-.44.2-.78s.65-.35.81-.23l-.13.13c-.16-.09-.36-.06-.61.19-.23.23-.28.43-.15.56s.28.07.62-.17c.53-.37.72-.31.86-.17.17.17.14.48-.23.85-.4.4-.71.38-.89.25l.13-.13Zm.9-2.4-.54.54-.08-.08 1.2-1.2.08.08-.54.54 1.06 1.06-.12.12zm-1.71 7.59.05-2.02-.98.98-.08-.08 1.12-1.12.08.08-.04 2.01 1.05-1.05.06.1-1.18 1.18-.07-.07Zm.51-2.64.69.69c.3.3.62.14.84-.08.27-.27.38-.54.08-.85l-.69-.69.12-.12.69.69c.36.36.2.73-.13 1.06-.31.31-.71.46-1.04.13l-.7-.7.13-.13Zm1.5-1.5.12-.12.59.59c.04-.22.19-.98.27-1.46l.16-.16-.23 1.2 1.41-.1-.15.15-1.29.09-.08.37.45.45-.12.12-1.14-1.14Zm3.28-2.15c.31.31.36.83-.13 1.32-.45.45-.97.45-1.3.12s-.33-.84.14-1.31c.44-.44.95-.46 1.29-.13m-1.3 1.31c.26.26.71.31 1.1-.08.41-.41.34-.83.07-1.1s-.7-.3-1.08.08c-.41.41-.35.83-.09 1.09Zm1.93-2.93.08.08c-.02.53.15 1.2.38 1.61l-.12.12c-.22-.37-.39-1.08-.38-1.6l-.82.82-.08-.08.95-.95Zm1.25.89c-.13-.14-.14-.46 0-.93.12-.4.14-.52 0-.65-.12-.12-.31-.13-.53.09s-.24.38-.12.58l-.12.12c-.15-.21-.12-.49.16-.77.3-.3.58-.28.72-.14.17.17.12.32 0 .76-.09.35-.12.58-.07.74l.84-.84.06.1-.95.95Zm1.82-1.82-.3-.3-.72.72-.08-.08.03-1.41.12-.12.69.69.2-.2.06.09-.19.19.3.3-.12.12Zm-.7-.7c-.06-.06-.19-.2-.26-.27.02.14 0 .84 0 1.18l.59-.59-.32-.32Z" class="cls-13" style="opacity:.32"/></g><g id="TEXT"><path d="m142.13 154.7-.25.11c-.02-.14.01-.26.09-.33.08-.08.12-.15.15-.2-.04-.03-.06-.05-.07-.07s-.03-.03-.05-.04l.15-.17-.06-.13-.02-.12c.13-.8.35-1.6.68-2.4l-.05-.04h.03l.04-.1c.01-.03.03-.05.04-.07.02-.02.02-.06.02-.12l-.11.08-.09-.03c-.02.23-.08.46-.19.71-.18.3-.26.59-.24.86-.02 0-.05.03-.08.06-.04.03-.05.05-.04.07l.06-.03v.03l-.11.06c-.03-.23.02-.48.14-.75.1-.15.14-.34.12-.55v-.26s.05.01.07.01.06-.01.1-.03v-.07l.05-.22h-.1l-.05-.02v-.03l.06-.17-.02-.05.1-.02.07-.1s0-.03.02-.04h-.07s-.04 0-.04-.01l-.06-.04a.31.31 0 0 0 .11-.25v-.03l.05-.03v.03h.09l-.03-.05v-.16l-.05-.11.09-.04v.03l.04-.01v-.07h-.07v-.03s.03-.05.08-.08c.05-.02.08-.05.08-.07s0-.05.02-.07c.03-.15.04-.31.03-.5l.02-.21-.09.04-.05.06-.06-.04-.02-.05-.06.03v.07l-.07.03c0-.13 0-.26.03-.39s.03-.27.01-.42l-.09.04v.07l-.04.01.03.05s-.03.06-.05.09-.03.07 0 .1l.1.22-.04.15c-.1.22-.15.41-.15.56l-.09.04-.03-.31c.08-.1.09-.21.04-.31l.17-.11-.1-.21s.05-.11.13-.19c-.04.02-.06.02-.07 0l.09-.04a.22.22 0 0 1 0-.16v-.03l-.04.01-.03-.05s0-.04.01-.05c.02-.02.02-.03.02-.04v-.03c0-.01.02-.03.03-.06.03 0 .05.02.06.02h.09c.05 0 .09-.03.13-.04l-.05-.11a.7.7 0 0 0-.17.11l.03-.34-.08-.09s.09-.12.18-.26c.08-.14.11-.25.07-.34l-.06-.04c.06-.09.1-.17.13-.24a.26.26 0 0 0-.02-.24l.15-.07v-.3s.06-.09.05-.15l-.09.04v-.03l.14-.07c-.03 0-.05-.03-.06-.05-.01-.03-.04-.05-.07-.08h.07l.09-.04c0-.02-.01-.04-.02-.08 0-.03 0-.07.03-.13l-.06.03s-.07.02-.07 0l.12-.06s0-.03.02-.04v-.03l.02-.08h-.03l-.01-.01c-.04.02-.07.02-.07 0 .12-.17.18-.31.17-.44h-.07l-.01-.03c-.01-.08 0-.17.06-.27.05-.1.1-.17.13-.21-.02 0-.05-.02-.08-.09l.08-.07s.02-.05.03-.06v-.05l-.02-.12h.03c.06-.04.09-.07.08-.08v-.03c.01-.05.02-.12 0-.2.02-.27.1-.46.22-.56-.03-.23-.01-.48.05-.78.05-.42.15-.82.29-1.21-.06.03-.1.03-.1.01l-.06.03s.05-.08.05-.14c0-.05.02-.1.05-.14v.1s.04.02.08 0c0-.09.05-.18.13-.27q.12-.135.06-.27l-.06-.13s.01-.04.06-.08c.05-.03.08-.08.11-.13l-.05-.11v-.09c-.1.05-.25.14-.44.27s-.37.25-.55.35l-.43.2-.02-.05.2-.22-.15.07v.03s-.02 0-.03-.01v-.07l.04-.01c-.1.05-.26.15-.48.32v.03l.27-.09v-.05c0-.02.01-.03.03-.06l.09-.04v.03l-.07.14-.11.08-.15.07.07.07h-.03s0 .05-.05.07q-.09-.03-.15 0c-.04.02-.07.02-.07 0l.18-.18v-.03c-.18.08-.28.11-.33.12.08-.04.14-.08.19-.12.04-.04.08-.08.11-.12s.05-.07.07-.1l-.03-.05-.09.04c-.1.11-.25.24-.47.4-.21.15-.43.29-.65.41-.22.1-.37.16-.44.17.06-.09.09-.17.11-.25.02-.07.04-.14.06-.19.03-.05.08-.12.18-.18l-.03-.05s-.05.05-.11.08l-.04-.08s-.03 0-.04-.01v-.03l.14-.07v.03l-.04.06h.07s.02-.09.05-.14q.045-.075.09-.12h.03l.02.04.06-.03.04-.08.06-.03-.02-.05-.19.15s0-.03.02-.04c.1-.16.21-.27.34-.35.12-.08.24-.17.33-.28v-.03l-.2.08c-.07.07-.29.24-.66.5l-.06-.04-.06.03-.06-.04c.09-.07.19-.18.29-.33l-.02.04-.02-.05h.03l.01.01c.03 0 .08 0 .17-.04v-.14l.23-.1c.07-.07.08-.14.06-.19l.11-.08s.08-.02.1-.02c.14-.07.24-.13.28-.2-.84.43-1.62 1-2.34 1.7-.2.22-.41.38-.63.49v-.03s-.06-.02-.08-.03-.06 0-.12.02c-.02.05-.07.11-.13.16s-.12.1-.17.15c0-.02 0-.03.02-.04q.18-.27 1.11-1.14c.36-.34.57-.53.62-.56s.09-.06.12-.07.05-.04.05-.09l-.06.03s.03-.02.02-.04h.03c-.06.01-.11.02-.13.02-.06.03-.09.05-.1.08q0 .03-.03.06c-.02.02-.03.05-.03.1q-.06.03-.09-.03v-.03h-.09q-.06.09-.18.18c-.1.05-.18.07-.23.07l.06-.03c.07-.07.15-.13.25-.18.16-.14.26-.25.29-.33l-.12.06-.9.64.06-.19c.1-.05.31-.21.63-.49l.45-.4-.02-.05h.03l-.01-.04-.36.2c-.18.08-.35.2-.49.34s-.3.27-.48.37l.07-.17-.04-.08.21-.1-.02-.12-.37.17.08-.07-.02-.05.02-.04-.11.04h-.1q.045-.06.21-.18c.11-.08.22-.18.33-.28q.165-.165.21-.24l-.15.07-.02.04-.12.06-.03-.05s.03-.02.02-.04a.55.55 0 0 1 .39-.05c.05-.05.09-.08.12-.1a.3.3 0 0 0 .09-.12c.04-.06.05-.09.04-.1s0-.02.03-.03l.21-.1c.08-.04.27-.21.57-.53l.53-.47c.07-.06.16-.11.25-.15q.135-.06.18-.18c.03-.08.05-.13.08-.15s.22-.12.59-.29c0-.04.01-.08.02-.11s.01-.05 0-.07c.32-.32.66-.57 1-.73l.03.05-.05.05.21-.03s.03-.02.02-.04c.09-.08.13-.17.14-.26l-.14.1-.14.03.44-.33a.8.8 0 0 1 .23-.07l-.12.06v.07l.09-.04.04-.08.09-.04-.05-.11v-.07l-.04-.01-.06.03c-.05.05-.12.09-.2.14s-.15.09-.2.13c-.06.04-.11.07-.16.11q-.075.045-.06.06c.015.015 0 .02-.02.03v.03s-.01.05-.03.07-.04.04-.08.06l-.06-.04c-.02-.05-.03-.08 0-.09.02 0 .04-.03.05-.06l.05-.05c.16-.08.43-.25.8-.53l.39-.28.02.05h-.03c-.05.06-.1.1-.15.13s-.08.08-.11.13c.03 0 .06.01.08.01.03 0 .08-.02.16-.06.1-.11.24-.21.42-.29l.25-.11s.07-.06.09-.14c-.18.08-.35.12-.51.11l.12-.06c.04-.08.08-.15.13-.21s.1-.1.17-.13c.06.02.12.02.19 0l.08-.14.15-.07-.07-.16q-.09.045-.21.03c.17-.17.26-.4.27-.71l.06-.03v.03l.09-.07c.04-.08.06-.15.06-.19 0-.05.03-.08.07-.1.03 0 .06 0 .1-.02a.27.27 0 0 0 .1-.11l.05-.05v-.03a.3.3 0 0 1-.13-.06.5.5 0 0 1-.08-.14c.08-.1.14-.25.18-.46.04-.2.07-.41.07-.61l-.05.06-.03-.05c-.06.14-.11.22-.15.23l-.02-.05c.1-.16.15-.31.16-.47l.09-.04.04.08s-.05.07-.05.09v.06l-.02.04.18-.08a.22.22 0 0 0-.12-.11l.09-.04v-.33s.05.02.06.02.03.02.03.03a.17.17 0 0 0 0-.1c0-.04-.01-.09-.02-.16 0-.06 0-.11.01-.14.02.05.08.08.15.09v-.03c.06-.12.08-.25.07-.4l-.09.04s0 .04-.03.06-.05.05-.08.07-.05.04-.07.05v-.14l.04-.01c0-.02-.02-.02-.04-.01l-.03-.05.07-.16.09-.04s.06.04.09.03c.04-.02.07-.05.08-.1s.01-.09 0-.13l-.07-.07a.7.7 0 0 1-.07-.23v-.03l.02-.01c0-.02 0-.04.01-.06.02-.02.02-.04 0-.08l.09-.04c.06-.03.09-.05.07-.08s-.02-.05 0-.06c0-.01.01-.03.02-.04 0-.01.01-.04.03-.06-.03 0-.06-.01-.08-.01s-.04 0-.05-.03l-.09.04c-.16.25-.4.45-.73.6-.21.09-.42.22-.65.37-.15.11-.32.22-.51.34-.3.21-.54.38-.72.53l-.21.1c-.14.07-.3.18-.47.35-.69.56-1.09.86-1.21.92-.08.04-.15.06-.2.06l-.06.03s-.05.07-.05.09v.06c-.05 0-.08 0-.09-.03l-.1.11v.03s-.1.06-.13.1l-.03-.05h-.1c-.02.07-.08.13-.18.2l-.04-.08.2-.22c-.08 0-.14 0-.18.02l.41-.32.03.05-.09.04v.03l-.09.02v.03l.04-.01-.02.04v.03l.07-.03c.03-.05.06-.1.11-.13q.075-.045.09-.09c-.02 0-.04 0-.04-.01l-.06.03v-.03l.05-.1-.06.03v-.03l-.29.19-.02-.05c.16-.09.26-.19.32-.28l-.06-.04h.03l-.02-.07h.04l.18-.07.1-.11h-.07s.12-.17.4-.41c.23-.15.39-.3.5-.46-.03 0-.09.01-.2.06-.07.07-.14.14-.23.19a1 1 0 0 0-.21.15c-.1.16-.38.42-.83.78l-.03-.05h.03c.37-.34.59-.54.65-.61l-.22.17c-.21.19-.4.32-.56.39l-.03-.05h-.15l-.12.06h-.03s-.04.02-.04 0l.15-.07h.07l-.04-.08.02-.04c.08-.04.19-.11.33-.2.14-.1.24-.19.3-.29l-.37.17s-.04.05-.08.07v-.03l.09-.11v-.07l-.06.03c-.01.03-.04.07-.1.11-.05.05-.12.09-.2.13l-.02-.12h-.07c-.02.06-.08.1-.16.14l-.32.11.03.05-.07.1v.03c.05-.02.1-.03.14-.04s.08-.01.11 0h-.03c-.08.12-.25.26-.51.45l-.12.06c.06-.07.14-.15.23-.22.09-.08.16-.13.21-.18v-.03c-.07.03-.12.04-.16.05h-.07c-.01 0-.03-.01-.05-.03a.06.06 0 0 0-.06 0l.39-.37-.03-.05-.09.04v.03l.03.03c-.01.03-.06.06-.14.1-.02-.05-.04-.09-.03-.12 0-.02 0-.05.02-.07.01-.03.01-.05 0-.07.06-.07.15-.13.25-.18h.04l.03.07.06-.03s.04-.05.07-.08c.04-.03.08-.07.13-.11v-.03l-.17.07-.07.1v-.1l.09-.04v-.07l-.04-.01v-.07l-.12.06.05-.05.25-.11v-.14l-.02.01v-.03l-.31.17-.04-.08.06-.03v-.03l-.1.04-.18.18-.02-.12c.09-.07.17-.14.22-.21a.7.7 0 0 1 .19-.2l-.02-.05-.11.08c-.12.06-.2.08-.23.07.04-.08.16-.19.37-.33l.02.05h.03l.01.01-.09.04-.02.04.42-.22s.06-.04.05-.06h-.04l.09-.05.02-.04-.13.03-.06-.04c.14-.07.27-.15.37-.25s.18-.18.23-.22l.05-.06v-.03l-.17.07c-.04.06-.2.18-.47.35l-.02-.05s-.04 0-.04-.01l.12-.06v-.07l.07-.03-.03-.05-.09.04c-.1.05-.18.07-.23.07.17-.12.27-.22.32-.31s.04-.19-.02-.32l-.09.04c.24-.46.78-.97 1.63-1.54.02-.06.03-.1.01-.14l-.12.06c.22-.1.41-.21.56-.32l-.04-.08c.12-.06.2-.1.23-.14s.07-.08.13-.13v.03l-.13.1-.05.05v.03l.04-.01.26-.15s0-.04.05-.05l-.04-.08.11-.08q.09.03.15 0c.02 0 .05-.03.08-.07s.07-.06.11-.08l-.05-.11c.27-.12.4-.2.4-.22v-.07c0-.02.01-.04.03-.05.03 0 .08 0 .17-.04.1-.05.16-.09.17-.12 0-.04.02-.06.04-.08s.04-.04.08-.07.06-.02.08.01l.09-.04s.08-.1.14-.18a.54.54 0 0 1 .25-.19l.18-.08a.32.32 0 0 0 .15-.17l.15-.07c.06-.03.1-.06.11-.08v-.03l.04-.06h.04s.02.02.05.03l.06-.03s.02.02.04.01c.07-.06.12-.11.15-.17q.03-.075.12-.15c.05-.05.12-.09.2-.14s.14-.09.2-.14l.05.11.04-.08v-.03l.05-.03.05-.05s.16-.08.36-.2c.2-.11.35-.21.45-.31l-.04-.08-.12.06q-.06.12-.24.21l-.06.03c.06-.14.18-.25.37-.33l.66-.5.46-.38c.35-.27.53-.43.56-.48h.11c.03 0 .06-.01.1-.03l.11-.08-.07-.16-.11.08-.06-.13.2-.22v.03c0 .07 0 .14.03.19.02.05.06.09.09.12l.06-.03v.03l.07-.03c0-.02-.01-.04-.01-.06q0-.03.03-.06c.02-.02.04-.05.06-.11l.2-.06c.27-.12.46-.24.58-.37a1 1 0 0 1 0-.23c.02-.07.03-.14.04-.2 0-.06.03-.09.05-.1.02 0 .03 0 .04.01h.03l-.02-.07.02-.04-.06-.04s-.03 0-.04-.01c.02-.05.04-.1.06-.14s.07-.1.16-.19l-.02-.05h.03l.01.01c0 .02.02.02.04.01l-.06.03.07.23c-.03.1-.03.22-.02.37-.09.07-.15.11-.17.12-.02.02-.03.04-.04.07 0 .02.03.03.06.04.03 0 .06 0 .1-.02l.08-.07.12-.06v-.14s.07.04.07.05.04 0 .1-.03l.41-.32c.38-.26.66-.43.84-.52.08-.04.14-.05.17-.04h-.03c-.07.09-.14.14-.22.18l-.25.11.04.08h.03l-.02.03c-.1.11-.19.19-.28.23s-.17.1-.24.17l.06.04.05.11.07-.1c.01-.03.03-.05.06-.08.03-.02.07-.06.12-.1v.23s.08 0 .16-.04v-.14l.17-.07c.09-.08.27-.22.55-.42.78-.56 1.22-.86 1.3-.89.25-.11.41-.21.49-.31a.8.8 0 0 1 .18-.17c.08-.04.15-.06.2-.06q-.045-.105-.09-.12l-.25.11c-.09.13-.24.25-.46.38q-.69.45-1.02.6l-.02-.05c.65-.37 1.2-.71 1.66-1.04s.97-.65 1.55-.96l-.02-.05-.17.04c-.04.07-.12.12-.22.17h-.03l-.04-.07c.22-.1.44-.21.63-.32.2-.11.48-.25.85-.42h.07l-.01-.03h.03l-.01-.04.02-.04s0-.03.01-.05l.1-.1.21-.1v.03l-.25.15.04.08q1.2-.615 2.04-1.14c.63-.4 1.49-.87 2.58-1.42v.03s-.03.05-.08.08c-.05.02-.1.06-.16.11l.02.05s.06-.04.05-.06c.06-.03.11-.04.14-.03-.03.04-.07.11-.12.22l.39-.21v.03l.07-.03v-.16l-.34.16c.04-.02.07-.04.08-.07l.15-.17-.13.03c.12-.06.2-.1.23-.14l.15-.07v.07l.03.08c.07-.07.13-.12.19-.15v-.03l.08-.04.9-.48v.03l.12-.08v.1l-.09.04-.05.06s0-.03.02-.04v-.03l.02-.01v-.03c-.08.07-.1.13-.08.16v.03s.04.02.07 0c.03-.01.06-.02.09 0l-.36.2v-.03l-.11.04-.02.04.52-.17c.05-.05.08-.07.07-.08 0 0 0-.03.01-.05l.08-.07h.07l.01.03-.09.04-.05.05c.06-.03.13-.05.2-.06s.13-.02.18-.02v.03l-.02.08.06.04c.06-.03.11-.05.16-.06s.1-.02.17-.03l-.05-.04v-.03l-.04.01-.02-.05c.07 0 .12 0 .15.01.03.02.07.04.1.07l.08-.07.3-.07c.18-.04.34-.09.49-.16.05 0 .08 0 .09.03l-.06.03c-.07.07-.16.14-.28.2s-.25.11-.4.15q-.21.06-.33.12h-.03l.01.04.09-.04c.13 0 .59-.14 1.39-.45l.64-.23s0 .03-.02.04c-.06.09-.09.14-.09.16 0 .01-.02.03-.04.04-.21-.03-.63.09-1.24.38l-.42.22v.03l.48-.12.03.05-.32.12-.21.1-.06-.04-.06.03s-.05-.05-.1-.05v.1c0 .02-.06.06-.19.12l-.23.07-.33.18s.02.02.04.01c.15 0 .45-.11.9-.32.18-.08.33-.14.44-.17h-.03s0 .05-.05.07l.02.05-.07.1-.23.07-.34.22v.03c.06 0 .11 0 .15-.02.04-.01.08-.01.11 0-.13.08-.37.2-.69.35l.06.13a.7.7 0 0 0-.17.11h-.03l.01.04.18-.08c.13-.04.27-.11.41-.2.14-.1.25-.16.32-.2.07-.03.15-.09.24-.17.21-.18.61-.41 1.21-.69l.49-.23v.07c-.33.17-.49.26-.49.27s-.02.02-.04.03h-.04s-.07.03-.08.06v.03c.04.05.02.09-.04.12h-.07l-.05.06c.04-.02.09-.03.13-.03.05 0 .28-.09.69-.28.15-.05.28-.1.4-.15s.2-.08.27-.09l-.06.03c-.12.17-.42.39-.88.67-.21.09-.37.19-.5.29l.06.04h.12c.21-.02.37-.06.5-.12.12-.06.22-.09.29-.1-.14.07-.26.14-.34.22l.06-.03c.07 0 .17-.04.29-.1l.05-.12.17-.11.03.05s.02.02.04.01l.03.05.17-.11s.02.02.04.01h.07l-.05.06v.03l.04-.01.03.05c-.21.09-.34.18-.41.25l.27-.06-.06.03c-.02.06-.07.11-.15.17l.06.04s.03.05.05.04l.04.08h-.28c-.09 0-.15-.02-.19-.04l.03.05-.07.1v-.03l-.06.05.04.08c-.14.18-.5.42-1.08.73l-.62.35v.03h.09v.03c.04.05.05.1.04.15h-.07l-.01-.03-.12.06.06.04-.18.18.09-.04s.02.02.04.01c-.04.02-.06.04-.05.05h-.03l-.1.13-.05-.11s.03-.02.02-.04c.01-.03.04-.05.07-.08.04-.03.07-.06.1-.1v-.03l-.23.1v-.14l-.14.07c0 .02 0 .03-.02.04 0 .02.02.02.04.01l.02.05-.02.04c-.02.06-.07.11-.15.17.04.03.06.04.06.05h.04v.03s.04.02.06.01c-.12.06-.22.11-.29.17-.28.2-.64.39-1.07.59l-.03-.05.08-.07v-.03l.02-.01-.22.17.07.07-.02.2.06-.03v-.03s.02-.02.01-.03 0-.03.01-.06v-.07l.47-.21.29-.1c.21-.09.39-.21.55-.35l.04.08c-.22.17-.46.31-.73.44l-.38.14v.03s.06.04.09.01c.04-.03.06-.05.08-.06s.04-.01.05 0c.01 0 .04.02.08.05-.37.17-.6.33-.71.49l.7-.42s0 .04-.02.08c-.02.03-.16.14-.43.33-.26.19-.44.3-.55.35.02 0 .03-.02.02-.04 0-.02 0-.04.03-.06s.06-.06.1-.1.08-.08.11-.12c-.05 0-.13.02-.23.07l-.04.08-.06.03q-.09-.03-.15 0v.03l-.02.01v.03l-.1.08h-.03v-.05c.01-.03 0-.06 0-.1l-.06.03.03.05s-.02.05-.03.06c0 .01-.02.04-.03.06-.01.03-.04.05-.08.07-.03 0-.06 0-.1.02l-.06.03s-.07.06-.1.11l-.05-.04v-.03l-.45.17.05.11s.08-.04.1-.06c.03-.02.05-.05.06-.08l.04.08-.23.14v-.03s-.01-.08-.04-.15l-.18.08c-.05.05-.1.08-.13.11-.04.03-.1.06-.18.1l.04.08c.06-.03.11-.06.14-.1h.03l.04-.09h.03s.09-.03.15-.02v.1c-.14.13-.6.41-1.4.84-.4.21-.71.38-.91.52v.03l-.04.06-.23.07-.25.11c-.93.67-1.89 1.3-2.89 1.89-.76.44-1.43.86-1.99 1.25-.26.19-.53.34-.81.47s-.52.26-.73.4c-.07.38-.17.75-.3 1.12-.14.46-.24.88-.3 1.28h-.03l-.06-.03-.06.03s.02.07 0 .1c-.01.03-.02.06-.02.11l.13-.03-.02.21s.04 0 .04.01h-.03l.04.09c-.03.15-.08.3-.16.47l-.13.45.03.05s.04 0 .04.01c-.04.02-.07.04-.09.08s-.04.05-.06.06c-.03.1-.05.19-.07.26q-.03.105 0 .18v.12c.2-.09.33-.14.38-.14l-.42.29.03.05.29-.17.46-.21s.02.02.04.01l-.06.03a.3.3 0 0 1-.05.1c0 .01-.02.03-.03.05-.02.02-.06.04-.12.07h-.03c-.1.12-.21.21-.32.28-.12.07-.22.13-.32.2l.13.04.06-.03c.13-.19.54-.47 1.22-.83.26-.14.47-.27.64-.39 1.16-.77 2.67-1.65 4.56-2.63 0 .02 0 .03-.02.04l.04.08-.13.03-.16.14-.13.03.03.05-.02.04c-.08.04-.14.05-.17.04h-.15s-.02.05-.03.06v.05l-.05.06c-.08.04-.15.06-.2.06l.04.08.02-.04h.16q.12-.03.27-.09c.06-.03.11-.05.13-.08.03-.02.09-.09.19-.2l.1-.02v.03s.03.03.05.03c.01 0 .06-.01.14-.05l-.05-.11.11-.08c.03.07.09.09.17.05.1-.05.15-.08.14-.1v-.07c.05-.06.16-.13.32-.21 0 .02.02.02.04.01v.07l-.04.01c.02.05.05.09.08.09.15-.11.37-.24.68-.38l-.06.03v.03l-.05.03c.02.05.02.09-.02.11v.03s-.03.01-.04 0c-.01 0-.04-.01-.06-.02l-.07.1s.03.02.07 0v.03l-.04.05c-.25.11-.38.17-.39.16-.01 0-.03-.02-.03-.03v-.03c-.05.02-.08.05-.09.08 0 .04-.02.06-.04.07h-.07l-.03-.05-.13.03s0 .04-.01.05c-.02.02-.03.04-.05.06s-.02.04-.01.05l-.05-.11c-.13.15-.31.3-.53.47l-.04-.08-.06.03s-.02-.02-.04-.01v-.03l.02-.01h-.03v.08l-.02.04-.06.03c-.05.05-.07.1-.04.15l.07.07v.07l-.03-.05c-.02 0-.04 0-.04-.01-.02 0-.02.03 0 .07l-.15.17-.02-.05h-.03s-.03.02-.04 0c0 .02.02.05.02.09s0 .09-.03.14l.68-.38.55-.25.04-.08.13-.13c.08-.04.12-.07.11-.08h.03l-.02-.14.02-.04.18-.09c.03-.05.08-.1.16-.14l.14-.03c-.16.08-.31.16-.44.27l.05.11.15-.07-.17.11v.07l.27-.13c.05-.05.12-.1.19-.15.07-.06.19-.14.35-.24.16-.11.32-.2.49-.27s.28-.11.36-.1l-.21.1.06.2c-.06.03-.11.06-.14.1a.5.5 0 0 0-.13-.09c-.04-.01-.13 0-.25.06-.03.06-.08.1-.16.14-.23.1-.36.17-.39.2-.04.03-.06.05-.06.08 0 .02-.05.09-.15.2v.03s0 .05-.01.06-.02.02-.04.03v.03s-.05.04-.07.07v-.03l.04-.12v-.03l-.17.07.05.11s-.07.09-.24.21l-.37.08.02.05-.05.05-.08.07c-.06-.02-.1-.02-.12-.01-.02 0-.04.03-.04.07s-.02.06-.04.07c-.02 0-.04.02-.06.03l-.09.04.04.08c-.1 0-.2.03-.3.07-.01.03-.02.05-.01.05 0 0 0 .02-.02.03v.1l.28-.13c.2-.09.44-.24.69-.43.26-.2.52-.35.79-.48h.22c.06-.03.11-.08.14-.15s.08-.14.14-.21c.22-.1.39-.17.49-.19s.21-.05.32-.08l-.05-.11.15-.07v.03l-.08.04.02.05s.04.01.1-.02l.05.11s-.08.03-.13.04l-.13.03c-.04.01-.07.03-.06.06 0 .03 0 .06.02.07l-.17.11-.25.11s-.1.02-.17.04c.04.09.04.14 0 .16s-.09.05-.14.1v-.03l-.04.01v-.03l.05-.1v-.03l.04-.06-.12.06-.05.06-.06.03.06.13s.01.04.02.07c0 .03 0 .06-.01.09q-.24.12-.33.09l-.24.28.02.05.06-.03c.09-.08.16-.14.22-.17.14-.07.23-.12.26-.15.03-.04.05-.06.04-.07s0-.02 0-.03.01-.03.02-.04q0-.015.03-.06l.03.05v.07s.05.04.07.09c-.25.11-.43.25-.55.42l.09-.04v.03c.07-.03.11-.06.12-.08l.12-.06.05.11.09-.04-.04-.08.06-.03s.06 0 .1-.02.08-.02.11-.02c0-.05 0-.07.01-.09s0-.03.01-.06c0-.02.02-.05.05-.09h.03l.06-.04.05-.05-.04.08.03.05.04-.15h.07l.09-.04c-.01.03-.02.05-.01.06s0 .02-.02.03l-.02.11s.06-.05.07-.1l.08-.07s.02.02.04.01c-.02.06-.05.09-.08.12s-.06.04-.1.06h-.07s-.06.04-.11.08c-.05.05-.08.08-.08.1v.07c0 .02-.02.05-.05.09l-.02-.05v-.1l-.17.11c-.26.19-.54.36-.84.52l.03.05h-.03l.01.04.81-.5.17-.11.02.05-.06.03v.1l.67-.34.02.05-.28.2c-.16.14-.38.28-.66.43v-.07l.04-.01-.03-.05s-.04.05-.08.07l-.05.05c-.02.06-.04.09-.04.12v.1l.11-.08c.16-.08.26-.11.29-.1-.21.09-.31.19-.32.28l.25-.11-.04.08c-.23.15-.53.32-.91.52v.1l.23-.14.28-.13s.03.03.06.02h.1l.02.12-.06.03c-.02-.05-.05-.08-.08-.09l-.17.21c-.08.04-.15.06-.2.06l.04.08h.03l-.02.03-.12.06c-.09.08-.23.18-.42.29l-.49.23.03.15c-.63.4-1.23.83-1.79 1.28-.47.37-.83.64-1.08.8-.16.08-.33.18-.48.32-.51.39-1.06.77-1.63 1.15l-1.32.94c-.17.12-.4.27-.7.45s-.57.35-.8.52-.37.29-.39.4l-.05.05h.03l.03.04.05-.06.13-.03-.06.03v.03l-.04.06-.09.04-.02.11c.08-.04.15-.06.2-.06-.25.16-.35.36-.29.59 0 .17-.07.41-.21.7-.15.3-.23.6-.23.91l-.12.06c-.04.08-.04.15-.02.19.02.05.03.08.01.11l-.06.03s-.07.11-.1.27v.63l-.04.01h.03l-.01-.04h-.12l-.01-.04-.18.08.04.18.09-.04.06.04-.2.13.1.21s.06.05.09.12l-.06.03-.04-.08-.12.06c.02.15 0 .33-.08.56-.15.59-.28.98-.39 1.16 0 .02.02.02.04.01v.03l.04-.01-.02.04c-.02.12-.07.27-.16.47v.03s-.02 0-.03-.01h.03l-.01-.04-.06.03v.1l.09-.04s-.01.04-.06.08q-.075.045-.09.09c-.01.03-.04.06-.07.1l-.02-.12-.05.06-.06.03s-.02.04-.03.05c0 0-.01.02 0 .03l.03.15.08-.07.06.04c-.07.12-.11.25-.12.4 0 .15-.09.29-.25.43.03.18.01.43-.07.74s-.18.56-.29.74l-.09-.03v.03c-.03.13-.05.24-.05.35l-.06.03.05-.54c0-.31.06-.54.16-.7.02 0 .04 0 .04.01h.07c-.04-.09-.05-.15-.02-.17s.05-.05.06-.08v-.03l.02-.01c-.03 0-.05-.02-.07-.03s-.04-.04-.05-.07v-.07l.07-.03c.01-.03 0-.06 0-.09s-.02-.08-.02-.12c-.02 0-.03.02-.02.04-.06.14-.12.24-.19.32l-.02.04q.075.165-.09.93l-.06.03s-.04.06-.07.08q-.06.045-.06.06v.05l.08.09h.03s-.03.03-.05.04c-.02 0-.03.02-.02.04l-.06.03v.07l.06-.03v.03l.04-.01h-.03.03v.03l-.11.06c-.04.02-.06.05-.07.09-.07.12-.12.3-.16.53-.15.59-.21.98-.17 1.16l.15-.07s.02.03.03.03h.13c-.02.05-.04.09-.04.1s-.01.03-.01.05v.13l.11-.08.05.04h-.03c0 .08-.02.14-.06.21a.25.25 0 0 0-.15 0h-.03l-.05-.09h-.04c-.08.13-.17.26-.27.37.04.09.06.2.04.34l-.13.52s-.07.02-.07 0h-.04l-.06.02c.02.04 0 .11-.05.22-.1.05-.16.05-.18.02l.06-.03v-.03l.09-.01v-.03l-.04.01.05-.05-.03-.05-.11.08-.02-.05.05-.06-.02-.12-.08.07.06.04c-.06.14-.1.33-.13.57-.02.24-.05.46-.09.65s-.1.33-.18.41v-.03s-.07-.02-.09-.05a1 1 0 0 1-.11-.2h-.04l.08-.08c.02 0 .03-.02.02-.03s0-.02 0-.03.01-.04.01-.09l-.2.12s-.06-.05-.09-.12c.06-.03.1-.06.11-.08v-.03l.02-.08-.03-.05c-.06-.13-.02-.34.11-.64.03-.04.05-.08.05-.12l-.12.06v.03l-.03-.01-.06.03c0 .2-.04.37-.1.51s-.11.27-.15.4l.06-.03v.03h.09l-.15.07.11.15c-.06.09-.1.19-.13.29q-.12.285-.27.39a.66.66 0 0 1-.11.48l-.09.04v.07l.05-.03-.18.25-.15.4h-.07l-.09.04a.3.3 0 0 0-.01-.19c.13-.19.2-.33.18-.41l-.06.03-.02-.05h.07s.06-.04.05-.06h.03l-.15-.01v-.19l-.04-.05c0-.02-.02-.04-.03-.05v-.07c.02-.12.06-.22.12-.31s.1-.22.12-.38l-.09.04.05-.06c.04-.08.07-.18.09-.29a.8.8 0 0 1 .12-.3l-.13-.04s.03-.05.06-.08c.03-.02.03-.05.02-.09-.02 0-.04 0-.04-.01l-.05.05c-.08.15-.12.38-.13.68l-.29.17.04-.31-.32.12c.03.05.03.09.02.12s-.02.06-.02.11 0 .1.03.15l-.15.07c.03.27-.03.55-.17.83-.07.16-.12.31-.15.44s-.03.23 0 .28c-.02.12-.06.24-.13.36-.13.3-.19.52-.17.67.02.14 0 .28-.04.41l-.02.11q-.015.21-.18.57l-.06.03s-.03.05-.06.06-.05.06-.07.13l.06-.03v.03Z"/><path d="M158.42 147.7c-.07.02-.1.01-.11 0h.03l.01-.1c.02 0 .03-.02.03-.04s.01-.04.05-.06.07-.04.07-.06.02-.05.05-.09a.17.17 0 0 1 .1-.07l-.05-.2s.03-.12.12-.24l.1-.18c.07-.1.13-.17.19-.23.14-.08.22-.21.22-.39l.23-.05.03-.16v-.06l.05-.02.05-.07v-.12l-.07.02s-.03.04-.04.05c0 .01-.02.02-.03.04 0 .01-.03.02-.06.03s-.05.03-.06.06-.02.07-.06.11-.08.1-.13.18-.1.16-.15.23l-.06.04s.02-.08 0-.15c.02 0 .04-.02.06-.03.02-.02.03-.03.04-.05 0-.02.02-.05.04-.07l-.24.03v.03h.14v.03l-.12.03c-.14.2-.24.36-.3.5q-.105.03-.12.06h-.03c0 .09-.02.15-.04.2q-.03.075-.12.15l-.04-.02s0-.03.03-.04v-.03l.07-.11-.04-.02-.06-.11h.11v.03l.07-.02s0-.08.03-.11c.03-.04.05-.08.07-.12.02-.05.03-.09.02-.13h-.03l-.03-.14.03-.04.04.02s.07.05.11.04l.08-.11-.02-.09-.07.02-.02.07-.09.05-.03-.12c.14-.11.22-.25.25-.4l-.13.03c-.05.07-.08.12-.09.14s-.01.06-.02.13l-.39.27-.16.04v-.06l-.05-.02c.02-.02.04-.07.08-.12.03-.06.07-.13.12-.23.05-.09.06-.18.04-.26q.06-.045.12-.06c.04-.01.08-.02.11-.04s.06-.06.09-.11a.7.7 0 0 0 .06-.24c0-.1.03-.2.05-.29.03.01.04.03.05.05 0 .02.01.03.03.04h.05l.02-.07.02-.07-.1.02s-.04 0-.04-.02l-.04-.02.17-.16v-.06l-.11-.1c.07-.1.13-.2.18-.32.05-.11.1-.21.13-.27h-.11l-.05-.06q.06-.045.06-.09t.06-.12h.03v-.04h.03v.12c-.02 0-.03.02-.03.04s0 .04-.02.07l.16-.04v-.06c.09-.15.15-.25.16-.31l-.15.1v.03l-.03-.02-.1.02v-.06c.04-.05.09-.12.12-.18l-.07.02v.03s-.05.05-.05.07h-.03s0 .04-.02.06-.05.03-.09.04v-.03h.03c.05-.07.07-.15.05-.23q.105-.15.24-.24c.09-.06.14-.12.15-.16h-.03c-.01-.05-.06-.07-.15-.05-.03.09-.07.18-.14.28l-.1.02s0-.08.04-.13v-.12c.02 0 .08-.07.16-.19.17-.25.32-.5.44-.78l.16-.22h.03l.02.08h.07l-.01-.04h.03l.04-.14h-.11l-.02-.09c.07-.08.11-.14.11-.19s0-.11-.03-.19c-.04-.15.04-.37.23-.63.11-.13.21-.28.31-.47l.2-.05h.07l.36-.5v-.12c-.06.02-.11.02-.13 0l-.07.02c-.03.07-.07.13-.13.18l-.03-.12c.15-.07.22-.14.23-.21a.36.36 0 0 1-.22-.12.55.55 0 0 1-.11-.23c.1-.08.14-.19.14-.31h-.03c-.14.21-.24.33-.29.38v-.06c.06-.1.12-.21.19-.32s.14-.23.23-.33v.06l.04-.04v.03s-.02.04-.03.05c0 .01-.02.03-.02.05v.09h.03l-.01-.07c.26-.28.39-.58.41-.89l.04-.13.17-.04.03-.04s.03-.02.03-.04l-.12-.06.16-.04-.05-.2s.03-.05.04-.07c0-.02.02-.04.04-.06s.04-.04.07-.06a.6.6 0 0 1 .09-.07c.03-.02.05-.04.05-.07s.01-.07.03-.11c.28-.27.54-.6.77-.98l.07-.02v.12c-.09.04-.18.14-.28.31-.29.42-.46.71-.49.88l.13-.03-.03-.12.46-.57c.59-.75.93-1.24 1.04-1.47a.4.4 0 0 1-.07-.14c.02-.02.02-.06.01-.09l.16-.04-.05-.2c.09-.08.17-.19.24-.32.06-.13.17-.23.31-.3v-.12c.36-.37.67-.76.94-1.17.05-.07.11-.14.18-.2s.2-.22.39-.49q.105-.27.33-.51c.06-.05.15-.17.27-.34.31-.36.49-.63.53-.83l.22-.11c.13-.34.37-.69.72-1.06s.58-.73.68-1.08l-.17.04-.12.09-.21-.16.02-.07.06-.04s.02.07.04.08l.04.04h.05v-.06a.39.39 0 0 1-.22-.29c-.04.03-.07.05-.09.05s-.04.02-.06.04h-.03c-.05-.1-.11-.2-.19-.3a1.3 1.3 0 0 1-.19-.28l-.09-.38-.1.02-.08-.04s.02-.07 0-.12l-.2-.26c-.07.02-.1.01-.11 0q-.03-.12 0-.15l-.23.06v-.12a.45.45 0 0 0-.1-.21.7.7 0 0 1-.12-.26l.17-.04.06-.04.08.19h.03l.04-.14a1.24 1.24 0 0 1-.5-.49c-.2-.36-.32-.62-.36-.77a.44.44 0 0 0-.15-.12c-.06-.03-.11-.05-.14-.09-.05-.19-.06-.31-.05-.35l-.06.04v.06l-.03-.02c-.02 0-.04 0-.04-.02-.02 0-.04 0-.04-.02l.17-.04c-.01-.06-.03-.09-.06-.11l-.06.04h-.03c-.04-.15-.16-.3-.35-.46l.12-.09v-.09l-.35.21v-.09c.13-.07.19-.13.18-.19s-.02-.1-.01-.12c0-.02.03-.05.07-.08 0 .02.01.04.03.05l.04.04h.05v.03l.11-.3a.46.46 0 0 1-.14-.17.7.7 0 0 0-.14-.16l.13-.03.06-.04.16-.04.03.12h.03l.03.11.16-.04c-.08-.16-.19-.3-.3-.4a.84.84 0 0 1-.26-.38c.01-.04.02-.08.02-.13v-.22c0-.04.03-.09.09-.14.03.03.06.06.09.07s.06.02.09.02q.06 0 .15.06c.07.03.15.11.24.22s.18.23.26.37c.08.13.15.25.22.36l.06-.04v-.08c0-.03.01-.06.03-.08-.16-.1-.28-.28-.33-.53-.09-.1-.23-.22-.4-.36-.31-.25-.5-.43-.55-.54-.01-.06 0-.12.06-.2.05-.07.06-.17.04-.28l-.07.02-.03-.12s.04.03.04.04c0 0 .01.01.04 0v.06l.2-.11.13-.03v.06l-.07.08.16-.04.12.06h.03l.08.03-.05.07v.12s.04-.1.03-.16l.26.06s0-.07.01-.09h-.03.03c0-.02.01-.04.05-.07.02.08.1.13.25.16l-.1.02v.03l.11-.02.02-.07.06-.04a2 2 0 0 1-.27-.24c.02-.02.05-.04.09-.05v-.06h.02l-.1.02v.03l-.05.04-.04-.02-.06.03c-.02.02-.03.03-.04.05v.05s0 .03-.02.05a.3.3 0 0 0-.09-.02h-.08c.03-.05.05-.09.04-.13l-.09-.1.06-.04.1-.02h.07l-.03-.1-.15-.03-.1.02v.06l-.04.07-.05-.05s-.05-.03-.08-.04-.06-.09-.09-.22h.03v.02l-.02.07s.05.02.08.03c.02 0 .04.01.04.02s.02.02.04.04l.1-.02-.05-.2.13-.03s.02.03.04.02l.02.09v-.12c0-.02 0-.04.02-.05l.04-.04c0-.01.02-.03.04-.06v.06c.13.1.24.22.35.38l.05.08.1-.02s.02-.06 0-.12l-.08-.04v-.06l.12-.03-.02.07.08-.08a.52.52 0 0 1-.25-.34q-.03-.15 0-.3l.06-.02.03-.04v.03s-.03.04-.05.04c.34.08.57.33.67.76l.07-.02s0-.03.03-.04c.02 0 .05-.02.09-.05v-.13c-.02 0-.05-.07-.09-.22a.23.23 0 0 1-.06-.12q-.015-.075-.06-.09c-.13.03-.2.04-.2.02l-.05-.05s.04-.11.02-.19a.4.4 0 0 1-.07-.14l.13-.03.06-.04v-.03h-.04v-.03h-.04l.12-.06c.04.07.09.12.15.13.06.02.13.03.2.04s.15.05.23.11l-.13.03-.03.04c.11.06.21.09.3.11l-.02-.09h-.03l.06-.04.05.05.13-.03-.02-.09.09-.05c.04.16.07.24.1.27.03.02.06.06.1.11l.07-.02.02-.07c-.01-.06-.03-.08-.05-.08s-.04 0-.04-.02l-.02-.09.07-.02-.05-.05.07-.02q.03.12.09.15c.04.02.08.04.12.05s.08.04.14.09l-.03.16c.06.05.15.08.27.11.12.02.19.05.2.09l-.06.2.17-.04v.03s.05.03.07.06.03.06.04.11.07.08.16.1l.23-.06v-.15c.02 0 .05 0 .08.04.03.03.05.06.07.08.01.02.03.03.04.04.01 0 .04.01.07.01h.16l.07.17v.09s-.05 0-.05-.02q-.135-.15-.15-.21l-.06.02.02.09q0 .15.06.18c.04.02.06.05.07.09.01.06 0 .12-.02.19l.17-.04c.05.23.15.39.27.48.13.09.21.19.26.3l.15-.1.13-.03c.03.13.15.23.35.28v-.09l.09.32c.03.03.09.08.19.14.09.06.16.16.19.29l.07-.02c.07-.02.1 0 .11.03 0 .04.02.07.04.08.02.02.07.04.17.08-.02.02-.03.04-.04.06 0 .01-.02.02-.03.04 0 .01-.02.03-.02.05v.09c.15.05.27.18.37.4.13.34.33.52.62.56v-.03c-.09-.06-.17-.14-.25-.23a.7.7 0 0 1-.15-.25l.07-.02v.03c.09.04.15.11.21.21s.16.15.3.16l.02-.07.06-.04.07.17.02.24-.36-.04.05.23.3-.07c.01-.25.22-.54.62-.88.27-.23.47-.48.59-.75l.02-.07h-.05c-.01 0-.04-.03-.07-.06.02 0 .03-.02.03-.04l.11.03.07-.02s.03-.02.03-.04 0-.04.02-.07v-.06l-.11.05c0-.02-.02-.04-.05-.05a.2.2 0 0 1-.06-.03c-.01 0-.02-.02-.03-.05 0-.03-.03-.06-.06-.09v.05c0 .01-.02.03-.04.04s-.04.02-.05.03c-.01 0-.06.05-.16.13v.09h-.05v-.05c0-.01.02-.03.04-.05l-.07.02c.05-.09.12-.19.21-.28s.17-.2.24-.32c.04-.01.07 0 .07.01l.06-.02c.08.02.14.06.18.09.04.04.1.07.18.1.04-.03.08-.05.12-.08.04-.02.05-.09.02-.2l.03-.04-.07-.14s-.05-.02-.08-.03q-.03 0-.06-.03c-.02-.02-.02-.03-.03-.06l.02-.07.05-.07.07-.02.09-.05s.05.05.07.06c.01 0 .03.05.05.13l.13-.03.05.05v.03h.11l-.03-.12.03-.04-.1.02-.04-.02.1-.02q.135-.3.45-.72c.36-.51.63-.81.81-.89s.26-.14.25-.18c0-.04 0-.07.01-.09l.29-.22q.075-.105.21-.42l.26-.21c.34-.33.51-.56.53-.71l-.11-.04c.2-.15.34-.24.42-.28l-.03-.14s.08.01.1 0c.02 0 .05 0 .07.01l.1-.02v-.06c-.06.01-.08 0-.09-.01l.07-.02v-.03l.02-.04c0-.02.01-.03.06-.04 0 .02.03.03.08.03s.09 0 .14-.02v-.06h.02q-.015-.09 0-.12l.2-.05c-.01-.06-.02-.1-.01-.13 0-.03 0-.06.02-.08 0-.02.03-.04.05-.06.03-.02.06-.05.08-.1s.05-.1.08-.16.09-.1.16-.12c.08-.02.13-.04.16-.05a.2.2 0 0 0 .06-.06c0-.02.01-.04.02-.07 0-.02.02-.04.04-.06a.2.2 0 0 0 .06-.06h.03s.03-.05.04-.05.04-.03.08-.08a.4.4 0 0 0 .1-.18c.02-.07.13-.14.34-.23l.02.09-.16.04s.03.02.07.01l-.09.05c-.03.09-.09.2-.2.32l-.21.29-.02.06.07-.02q.15-.225.36-.39.36-.27.48-.6l-.1.02s-.04.05-.07.06-.08.03-.15.05l.03-.04-.02-.09c.11-.11.22-.18.31-.23.09-.04.2-.08.31-.1.11-.03.24-.08.38-.15l.04.17c-.06.04-.14.08-.25.12s-.2.1-.28.16l.19.08c-.32.1-.52.26-.58.48.09 0 .15.01.19.05q.045.045.12.06c.14-.09.31-.25.52-.46l1.11-1.18.56-.56.2-.05.07-.14c.09-.18.21-.31.34-.39.13-.07.39-.29.77-.64.29-.31.64-.61 1.04-.89l-.05.07c-.14.11-.24.27-.31.47l-.05.07.07-.02h.07s.02.04.04.04c.03-.17.25-.41.66-.71.02 0 .03-.04.01-.09l.16-.19c.17-.16.35-.38.54-.65l.1-.02s.02.03.04.02l-.33.38c-.13.23-.3.42-.53.55l.02.09-.12.09v.06l-.25.21c-.27.31-.43.5-.46.57v.06s-.01.04 0 .09c-.19.09-.38.26-.57.53l-.36.36.03.12-.17.04v.08c0 .03-.02.06-.05.07-.03.02-.04.04-.03.08-.06.05-.15.1-.28.13 0 .04 0 .06-.02.07l.02.09-.02.07.2-.05s.06-.05.12-.07c.06-.03.12-.14.16-.33l.07-.14.1-.02h.07c.27-.13.45-.33.55-.58l.06-.02s.02.03.04.02v.03h.04q.03 0 .06-.03c.02-.01.03-.03.02-.05v-.06l.01-.04.07-.02v.03s.04-.02.03-.04h.03c.16-.23.24-.37.25-.43l.15.03.13-.18.07-.02.02-.07.04.02.13-.03s-.04-.05-.08-.04h-.07l.07-.03.02-.07s.09-.1.17-.16c.16-.12.23-.19.23-.22s0-.06.02-.08l.13-.03c.11-.03.22-.11.32-.26l.12-.15c.04-.05.07-.09.06-.11l-.13.03v-.03l.09-.02v-.03h.03q.12.03.18.03c.05 0 .13-.02.27-.05.02.08.09.18.21.32 0 .02.02.03.04.02l.13-.03.05.05q-.225.21-.3.48c-.05.18-.14.33-.28.45l-.1.02h-.11c-.07.09-.12.15-.15.17s-.06.04-.1.07l.24-.03.05.05c-.12.07-.21.13-.25.2-.04.06-.09.12-.15.17q.045.015.06.03h.05c0 .02-.01.04-.05.06s-.07.03-.1.04l-.16.04.09.07s0 .03-.03.04h-.31l.01.07.07-.02v.06l-.17.1v.03h.25c.07-.02.1-.03.09-.05v-.09c.06 0 .12 0 .18-.01.07-.02.1-.01.1 0h.03s0 .06-.05.07c-.13.13-.28.25-.44.35h.11s0 .04-.02.06c-.02.01-.03.03-.04.05 0 .02-.01.04-.02.07 0 .02-.02.05-.04.07l-.1.02v-.03l.14-.13-.2.05c-.06.14-.15.29-.28.45-.12.16-.27.28-.43.36v-.03h.03l.05-.07v-.12l-.06.02a.2.2 0 0 0-.07.08c0 .02-.01.04-.02.05 0 .01-.02.03-.02.05s.01.13.06.32h-.07l-.22.07.04.33-.25-.03-.07.02v.09s0 .03.03.04.04.02.04.04l.09-.05.13-.03s.01.04.03.05.03.03.04.03.03.02.04.02h.05q.045-.135.09-.21l-.07-.14-.04-.17c.2-.05.38-.19.56-.44l.16-.19v-.06l-.08.02-.05-.05c.17-.04.29-.1.34-.19s.11-.16.18-.24l.46-.26.02.09c-.12.07-.21.15-.25.24s-.13.17-.25.24v.06s.06-.04.11-.05h.11l.01.06-.79.62.05.05v.03l-.14.12a.7.7 0 0 0-.22.39c-.26.16-.44.31-.52.43h.03l.01.05c-.07.02-.12.04-.16.07l-.39.27s.02.03.04.02v.06l-.16.16-.13.03.12.06-.1.02c-.09.12-.22.24-.41.34l.02.09c.09-.02.15-.05.19-.09s.1-.09.19-.14.17-.1.23-.13v.03l-.05.07.02.09c-.17.08-.29.2-.37.36l-.1.02v-.03l.05-.04c-.04.01-.1 0-.16-.02a.25.25 0 0 0-.19-.01l-.11.12h.03l.01.05-.02.07c-.1.17-.24.32-.41.46v.03l.17-.04v.06h.05c-.12.07-.18.12-.17.16l.04.14c.08-.04.16-.09.24-.16s.17-.15.29-.24l-.18.29c-.06.13-.16.26-.29.37l.09.1.02.09-.1.02v.06l-.05.02c0 .02 0 .03-.03.04v-.06l.01-.04.07-.02-.02-.09h-.11s0 .04-.02.08c-.01.03-.08.14-.2.31h.03v.02h.03l-.03.03c-.19.35-.45.68-.78.98q-.345.33-.42.51c-.05.12-.1.22-.16.28-.05.06-.1.12-.13.17-.04.05-.1.12-.2.2q.015.09 0 .12c-.24.06-.46.29-.67.71-.1.17-.19.3-.29.4v-.03c-.19.23-.32.43-.42.62l-.14.31h-.05c-.01 0-.02-.02-.03-.04h-.03s-.14.16-.3.44c-.15.28-.42.59-.8.92-.68.57-1.06.98-1.16 1.25h-.03l-.03-.11h-.07c-.07.06-.16.14-.26.2a.8.8 0 0 0-.25.24l.13-.03s0 .03-.04.04-.06.03-.08.05l-.06.06c-.02.02-.04.03-.06.04-.02.02-.04.04-.05.09l-.05-.05-.1.02c.01.06 0 .11-.04.15s-.09.09-.16.14c-.07.06-.13.15-.19.29l.06-.02-.06.04s-.04.05-.07.08-.05.05-.07.08a.6.6 0 0 0-.06.2l.13-.03.08-.23.26-.09v.06c-.1.09-.2.18-.27.27s-.09.21-.05.36l.13-.03c.01.06.1.16.25.31.42.41.68.63.79.67l-.02.07.07-.02v-.03l.05-.05v-.03s-.01-.03 0-.05c0-.01.02-.03.04-.05h.03l.03.11c-.08.06-.15.17-.2.32v.03c.08 0 .18.06.32.17.38.34.59.58.63.74l.06.11v.14c-.01.05 0 .13.02.22.03.03.12.05.26.06v-.06h.02c0 .02.02.03.04.04.02 0 .08.03.15.07l.08.35c.07.09.14.16.23.22.17.14.28.28.31.42-.1.08-.13.17-.12.24.04.16.15.28.33.38 0 .02.02.03.04.02.17.22.34.42.52.59s.34.34.47.51c.13.07.21.12.25.15v.18s-.06-.04-.12-.09q-.09-.075-.15-.12c-.04-.03-.07-.04-.1-.04l-.06.04c.06.05.11.09.17.13s.11.09.16.16.09.16.12.28c-.06.04-.1.07-.12.1s-.03.05-.05.06h-.07c-.03 0-.04-.01-.06-.03s-.03-.03-.03-.05h-.03l-.05.08v.03l-.01.07q.24.12.57.48c.22.23.35.45.4.64h.03l.05.04h-.03l-.05-.04-.2.05.04-.13v-.03l-.07.02c0 .02 0 .03-.03.04h-.03v.13l.05.05v.03l-.06.02-.09-.1-.07.02s-.02-.03-.04-.02l-.02.22c-.13.03-.21.06-.22.08l-.07.02.12.06v.06s-.01.06-.01.1 0 .09-.02.16l.07-.02.11-.12.1-.02-.03-.14.06-.04c-.01-.06-.03-.08-.05-.08l-.05-.05s.03 0 .04.02l.07-.02.17.11c.12.09.22.23.31.41l-.06.02-.05-.05s-.04-.03-.04-.04c0 0-.02-.02-.04-.02s-.04-.02-.04-.04l-.16.04s-.05-.05-.06-.11c-.04.03-.07.06-.1.08s-.06.06-.08.1a.8.8 0 0 1-.16.14l.2.11.06.11c.09-.02.14-.02.17 0l.03.14.07-.02-.02-.09.09-.05v.03h.04v.03h.04v.06l-.05.02v.06h.05-.03l.01.06c-.01.04-.04.07-.08.08a.7.7 0 0 0-.17-.14.4.4 0 0 1-.14-.15l-.13.03s-.05-.05-.07-.06h-.05l-.03.04-.07.02.23.22.09-.05s.02.03.04.02v.15c.07-.02.11-.02.14-.02.02 0 .04.03.05.07v.15h.04v.03h.04l.05.05-.1.02v-.06c-.21-.04-.45-.19-.75-.47a2 2 0 0 0-.35-.31l-.15-.03-.03.04h-.07c-.02 0-.06-.02-.12-.05l.07-.02.02-.07.02-.07-.1.02c-.15.04-.25-.01-.28-.15l.07-.02v.03h.04-.03.07c0 .02.02.03.04.02l-.05-.05v-.03s-.08-.02-.15-.07a.4.4 0 0 0-.25-.08c0 .04.03.06.05.06s.04.02.06.03c.01.02.04.03.06.05l-.16.04h.07l-.02.08h.07l.05.09.07-.02-.03.04c.11.08.22.16.32.24.1.09.22.17.35.24-.02.02-.04.05-.07.08s-.04.05-.04.05 0 .03.01.04c0 .02.04.02.11 0v-.03l.06-.02.12.09q.225.225.27.24l.04.02.07-.02.05.05-.03.04s.02.03.04.02c.02 0 .04 0 .04.02h.03l-.03.03c.03.12.03.24.02.36 0 .02.01.03.03.04h.09c.04-.01.07.01.09.07l-.12.06a.15.15 0 0 0-.15-.06c0-.04 0-.06.02-.07v-.06l-.02-.03c-.03-.01-.05-.02-.07-.01l-.16.04s-.02.08-.03.1c0 .02-.03.04-.06.06s-.07.04-.11.07l-.12-.06.03.12.09.07-.1.02-.14.13c-.15-.17-.35-.31-.57-.44-.23-.13-.43-.32-.61-.59h-.03l.01.06h-.03l-.01.1.06-.04s.05.05.07.17h-.03s-.03-.05-.05-.06-.05-.01-.08-.03h-.03l.04.3c.04 0 .06-.04.05-.07l.03-.04.07-.02s0 .07-.04.1v.03s-.04.04-.08.05c0-.02-.02-.03-.04-.02l.02.09h.03v.02h-.03c-.08.05-.13.08-.15.1l-.07.02c-.05-.03-.12-.05-.19-.08a.6.6 0 0 1-.2-.1c-.01.04-.02.07-.02.08v.05c0 .02-.02.03-.03.04-.01 0-.03.02-.04.04a.5.5 0 0 0-.21-.15c-.08-.03-.18-.04-.32-.03 0 .02.02.03.04.02v.06c.16.03.27.08.33.17l-.13.03s-.06-.01-.11 0l-.07.02q-.555-.18-.69-.69h.07v.04h.03l-.24-.29h-.03v.13c.03.01.06.02.11 0v.03l.05.05-.07.02v-.03c-.22-.03-.38-.11-.48-.25q-.15-.21-.27-.27c-.07.02-.11.02-.14.02-.02 0-.05-.02-.08-.06.04-.01.08 0 .11 0l.02-.06a.55.55 0 0 1-.28-.16 3 3 0 0 1-.2-.26c-.07-.1-.15-.19-.24-.29-.72-.58-1.41-1.17-2.09-1.76.02 0 .03-.02.03-.04h.07V133l-.09.05-.07.02-.04-.02h.03l-.01-.07c.04 0 .07-.03.09-.05l.06-.04c-.32-.09-.6-.33-.83-.72a.2.2 0 0 0-.07.08c0 .02-.02.04-.04.04h-.05c-.01 0-.03-.02-.06-.03l-.1.02.04-.13.15.03v-.12a.4.4 0 0 1-.18-.11c-.05-.05-.08-.08-.11-.1-.02 0-.03.02-.03.04h-.03v.04c-.14.09-.23.2-.29.33-.05.12-.16.25-.31.36l-.05-.05s.02-.04.07-.08c.05-.03.15-.16.31-.38l.17-.32v-.03a.24.24 0 0 0-.27-.09c-.06.05-.09.09-.09.11s-.06.07-.15.16l-.02-.09.12-.09.04-.1-.12.06c-.05.07-.12.16-.22.25-.09.09-.17.21-.23.34l.1-.02c.04-.11.11-.2.21-.26.02-.02.05-.04.09-.05l-.06.04c-.38.72-.92 1.4-1.6 2.03a.34.34 0 0 0-.07.15c0 .05-.04.09-.07.12l.05.05v.03c-.05.04-.09.08-.1.12s-.03.09-.05.13c-.02.05-.04.1-.05.16l-.13.03.03-.04s.02-.05.02-.07l-.05-.08c.01.06-.04.12-.16.19l.05.08c.04.05.02.14-.04.25l.07-.02c.07-.18.26-.38.55-.59v.06c-.35.33-.61.64-.77.92l-.14-.03s-.03.02-.03.04q-.21.135-.3.27c-.06.09-.11.15-.16.21-.05.05-.12.11-.22.17v-.06l.01-.04c.16-.1.33-.25.5-.47.17-.21.27-.4.3-.55l-.18.13h-.03c-.07.09-.12.17-.15.26s-.15.2-.37.33l-.07.29h-.03l-.01-.05c-.02 0-.04 0-.04-.02v.15l.02.09h.03l.01.05-.1.02.05-.07v-.03c-.07.03-.12.07-.15.11-.04.04-.08.07-.12.1l.06.11.03.12c-.06.05-.11.11-.15.17q-.06.09-.18.18l-.03-.12-.08-.04-.1.02s-.01.03-.06.04l.05.2s-.05-.02-.08-.03c-.03 0-.04-.02-.04-.04.02.08.04.12.05.14s.04.03.06.05c.07-.1.14-.18.22-.24v.03a1 1 0 0 0-.15.22c-.03.07-.08.13-.15.17a.7.7 0 0 1-.22.11c-.07.03-.13.06-.17.09h-.03s.02.07.04.09c.01.02.03.02.06.02l.04.02v.03s-.06.06-.06.08v.06c0 .02 0 .03-.03.04l-.1-.13s-.03.04-.04.06c0 .01-.02.03-.03.04v.09c0 .05.01.09 0 .14l-.1.02c-.06.02-.08.08-.06.2l.04.02v.1l-.14.03a.33.33 0 0 0 .02-.22l-.07.02.02.09-.05.1s.02.03.04.02c.02.08 0 .13-.03.16a.5.5 0 0 1-.15.08c-.06.03-.11.05-.15.08 0 .04-.04.13-.14.28v-.03.06c0 .02-.11.14-.32.35l-.29.38s.02.03.04.02v.03l-.01.07c-.05.17-.1.3-.16.37-.05.07-.13.14-.23.21s-.15.12-.15.17v.15c0 .05-.11.16-.32.33q-.165.195-.18.21c-.015.015-.01.03 0 .05l.1-.02v.06c-.08.1-.19.27-.32.51-.13.23-.24.42-.32.56v.03l-.25-.06c.12-.15.21-.3.26-.44s.13-.27.24-.38l.04.02v.06h.12v-.08c0-.01.02-.03.04-.05v-.06s.02-.02.01-.04h-.07l-.05-.06c.18-.12.29-.26.32-.41 0-.04 0-.07.01-.09l-.02-.09s.08-.08.15-.11c.06-.03.12-.06.16-.12.05-.05.07-.09.06-.11l-.06-.11h.03v-.04l.06-.04v-.03l-.03.04v-.06h-.05l-.22.39c-.06.12-.12.22-.18.32-.06.09-.11.16-.15.19h-.03s-.08.02-.11 0l-.07.02s-.02.05-.02.08v.1c0 .04-.02.09-.06.14l-.2.05c0 .06-.01.12-.01.17s0 .08-.03.1c-.02.02-.07.04-.15.08l.02-.07h-.03c-.04.22-.17.47-.4.74-.22.28-.36.54-.42.8-.09.02-.13.05-.14.08s-.01.07-.03.11l.03.12-.2.05v-.03c.1-.13.21-.38.34-.75h-.07l.01.04c-.07.08-.14.18-.18.32a.7.7 0 0 1-.25.33v.06h-.02l-.03-.12h-.03v.04h.03l-.06.04-.02.07.17.05c.06.02.13.04.2.04l-.14.13-.02.07h-.03l.03.15h.03l.05.07-.07.02-.06-.03c-.01 0-.03-.02-.04-.02s-.03-.06-.05-.16l.1-.02s.02-.07 0-.12l-.17.04s-.05.12-.1.22q-.09.165-.06.24l-.1.02v-.03l.09-.02a.3.3 0 0 1 0-.14c.02-.04.02-.06.02-.08s-.03-.04-.09-.07v.06s-.06.11-.12.17c-.05.06-.1.13-.13.2.08.02.13.06.17.11l.07.29-.3.07c0 .2-.06.39-.18.56l-.02.07s-.07-.02-.08-.04l-.1.02-.12.09s0-.07.03-.08.05-.03.06-.04.02-.03.04-.06h-.14l-.05-.05.02-.07v-.03l-.3.1.02-.07h-.07s-.06.08-.08.11c-.01.04-.04.07-.06.11a.44.44 0 0 1-.16.12l-.05-.05-.07.02.02.09s-.02.11-.09.21l-.02-.09-.07.02v.12l.13-.03c-.02.02-.04.04-.05.06-.02.01-.06.03-.11.06-.05.02-.15.07-.29.15v-.05c0-.01.03-.04.07-.09l.06-.04v-.03s-.05-.02-.06-.02h-.23c.02-.13.05-.23.1-.31s.08-.16.09-.22l-.13.03s-.06.13-.2.32c-.02.02-.05.04-.09.05-.04 0-.08.03-.12.06-.03.15-.11.3-.23.44a.87.87 0 0 0-.21.49l-.13.03c0 .18-.13.33-.38.43l.03.12Z"/><path d="m140.27 146.24-1.03.52-2.77-5.52.52-.26-.28-.55.52-.26-.28-.55.52-.26-.28-.55.52-.26-.28-.55 1.03-.52.28.55.52-.26.28.55.52-.26.28.55.52-.26.28.55.51-.26 2.77 5.52-1.03.52-1.11-2.21-3.09 1.55 1.11 2.21Zm-1.66-3.32 3.09-1.55-.83-1.66-.52.26-.28-.55-.52.26-.28-.55-1.03.52.28.55-.52.26.28.55-.52.26.83 1.66Zm6.7-3.36-.52.26 1.66 3.31-1.03.52-3.87-7.72 4.12-2.07.28.55.51-.26.28.55.52-.26 1.11 2.21-.52.26.28.55-.51.26.28.55-1.03.52.28.55.52-.26.28.55.52-.26.28.55.52-.26.28.55.52-.26.55 1.1-1.03.52-.28-.55-.52.26-.28-.55-.52.26-.28-.55-.51.26-.28-.55-.51.26-.28-.55-.52.26-.28-.55Zm-2.18-3.05 1.11 2.21 2.58-1.29-.28-.55.52-.26-.55-1.1-.51.26-.28-.55-2.58 1.29Zm8.48 4.04-3.87-7.72 4.12-2.07.28.55.52-.26.28.55.52-.26 2.77 5.52-.52.26.28.55-.52.26.28.55-4.12 2.07Zm-2.29-7.14 2.77 5.52 2.58-1.29-.28-.55.52-.26-2.21-4.41-.52.26-.28-.55-2.58 1.29Zm8.43 2.67-.51.26-3.32-6.62 1.03-.52 3.04 6.07.52-.26.28.55 2.06-1.03-.28-.55.52-.26-3.04-6.07 1.03-.52 3.32 6.62-.52.26.28.55-.52.26.28.55-3.09 1.55-.28-.55-.52.26zm6.11-5.82-.52.26 1.66 3.31-1.03.52-3.88-7.72 4.12-2.07.28.55.51-.26.28.55.52-.26 1.11 2.21-.52.26.28.55-.51.26.28.55-1.03.52.28.55.52-.26.28.55.52-.26.28.55.52-.26.28.55.52-.26.55 1.1-1.03.52-.28-.55-.52.26-.28-.55-.52.26-.28-.55-.51.26-.28-.55-.51.26-.28-.55-.52.26-.28-.55Zm-2.17-3.05 1.11 2.21 2.58-1.29-.28-.55.52-.26-.55-1.1-.51.26-.28-.55-2.58 1.29Zm5.91-3.66-.28-.55 3.09-1.55.28.55.52-.26.28.55.52-.26 2.77 5.52-.52.26.28.55-.52.26.28.55-3.09 1.55-.28-.55-.52.26-.28-.55-.51.26-2.77-5.52.52-.26-.28-.55.52-.26Zm2.85-.74-2.06 1.03.28.55-.52.26 2.21 4.41.51-.26.28.55 2.06-1.03-.28-.55.52-.26-2.21-4.41-.51.26zm6.93 4.81-1.03.52-3.87-7.72 1.03-.52.55 1.1.52-.26.28.55.52-.26.28.55 1.03-.52-.28-.55.52-.26-.28-.55.52-.26-.55-1.1 1.03-.52 3.87 7.72-1.03.52-2.49-4.97-.52.26.28.55-.52.26.55 1.1-1.03.52-.55-1.1-.52.26-.28-.55-.52.26zm6.19-3.1-1.03.52-3.88-7.72 1.03-.52.55 1.1.51-.26.28.55.52-.26.28.55 1.03-.52-.28-.55.51-.26-.28-.55.52-.26-.55-1.1 1.03-.52 3.87 7.72-1.03.52-2.49-4.97-.52.26.28.55-.51.26.55 1.1-1.03.52-.55-1.1-.52.26-.28-.55-.51.26 2.49 4.97Z" style="fill:#cfac32"/></g></svg>