<?xml version="1.0" encoding="UTF-8"?>
<svg id="Screen" xmlns="http://www.w3.org/2000/svg" viewBox="0 0 256 256">
  <defs>
    <style>
      .cls-1 {
        fill: #363436;
      }

      .cls-2 {
        stroke: #909578;
      }

      .cls-2, .cls-3, .cls-4, .cls-5, .cls-6, .cls-7, .cls-8, .cls-9, .cls-10, .cls-11 {
        stroke-miterlimit: 10;
      }

      .cls-2, .cls-5 {
        stroke-width: 1.22px;
      }

      .cls-2, .cls-12 {
        fill: #c9c7b3;
      }

      .cls-13 {
        fill: #cfac32;
      }

      .cls-14 {
        fill: #88865b;
      }

      .cls-15, .cls-11 {
        fill: #fff;
      }

      .cls-3 {
        fill: #a8aaac;
      }

      .cls-3, .cls-4, .cls-7, .cls-9, .cls-10 {
        stroke-width: .24px;
      }

      .cls-3, .cls-7, .cls-9 {
        stroke: #797a7d;
      }

      .cls-16 {
        fill: #0081c0;
      }

      .cls-17 {
        fill: #a67f3a;
      }

      .cls-18 {
        opacity: .36;
      }

      .cls-19 {
        fill: #231f20;
      }

      .cls-20 {
        fill: #373737;
      }

      .cls-21 {
        fill: #6e6f5e;
      }

      .cls-22 {
        fill: #5b5a57;
      }

      .cls-23 {
        fill: #fe2921;
      }

      .cls-24 {
        fill: #c0c2c4;
      }

      .cls-4 {
        fill: #5b5940;
        stroke: #44432e;
      }

      .cls-5, .cls-6, .cls-8 {
        fill: none;
      }

      .cls-5, .cls-6, .cls-11 {
        stroke: #e6e7e8;
      }

      .cls-25 {
        fill: #5a4952;
      }

      .cls-26, .cls-9 {
        fill: #c2c4c6;
      }

      .cls-27 {
        fill: #3b3b3c;
      }

      .cls-6, .cls-11 {
        stroke-width: 2.45px;
      }

      .cls-7 {
        fill: #97999b;
      }

      .cls-8 {
        stroke: #6e6f5e;
        stroke-width: .49px;
      }

      .cls-28 {
        opacity: .32;
      }

      .cls-29 {
        fill: #f3ed6b;
      }

      .cls-10 {
        fill: #efeff0;
        stroke: #fff;
      }

      .cls-30 {
        fill: #e6e7e8;
      }
    </style>
  </defs>
  <g>
    <rect class="cls-26" x="97.58" y="218" width="5.45" height="2.16" rx=".85" ry=".85" transform="translate(-118.77 319.37) rotate(-90)"/>
    <rect class="cls-29" x="98.58" y="218.11" width="3.45" height="1.92" rx=".76" ry=".76" transform="translate(-118.77 319.37) rotate(-90)"/>
  </g>
  <path class="cls-11" d="M189.58,241.79s8.86.34,8.86-7.64.92-211.52.92-211.52c0,0-.53-6.73-7.09-6.67-6.56.06-128.07-.22-128.07-.22,0,0-7.06-.03-7.2,7.45s.22,211.04.22,212.68c.02,2.33.76,5.76,7.01,5.85,6.25.09,125.34.07,125.34.07Z"/>
  <g>
    <circle class="cls-12" cx="184.89" cy="29.84" r="5.37"/>
    <path class="cls-2" d="M184.89,26.74l.12-.08c.24-.18.58-.12.76.12l.08.11.14-.04c.29-.09.59.06.68.35l.04.14h.14c.3,0,.54.24.54.54v.14s.14.04.14.04c.28.09.44.4.35.68l-.04.14.11.08c.24.18.3.52.12.76l-.08.12.08.12c.18.24.12.58-.12.76l-.11.08.04.14c.09.29-.06.59-.35.68l-.14.04v.14c0,.3-.24.54-.54.54h-.14s-.04.14-.04.14c-.09.28-.4.44-.68.35l-.14-.04-.08.11c-.18.24-.52.3-.76.12l-.12-.08-.12.08c-.24.18-.58.12-.76-.12l-.08-.11-.14.04c-.29.09-.59-.06-.68-.35l-.04-.14h-.14c-.3,0-.54-.24-.54-.54v-.14s-.14-.04-.14-.04c-.28-.09-.44-.4-.35-.68l.04-.14-.11-.08c-.24-.18-.3-.52-.12-.76l.08-.12-.08-.12c-.18-.24-.12-.58.12-.76l.11-.08-.04-.14c-.09-.29.06-.59.35-.68l.14-.04v-.14c0-.3.24-.54.54-.54h.14s.04-.14.04-.14c.09-.28.4-.44.68-.35l.14.04.08-.11c.18-.24.52-.3.76-.12l.12.08Z"/>
    <circle class="cls-26" cx="184.89" cy="29.84" r="1.31"/>
  </g>
  <g>
    <circle class="cls-12" cx="71.31" cy="29.84" r="5.37"/>
    <path class="cls-2" d="M71.31,26.74l.12-.08c.24-.18.58-.12.76.12l.08.11.14-.04c.29-.09.59.06.68.35l.04.14h.14c.3,0,.54.24.54.54v.14s.14.04.14.04c.28.09.44.4.35.68l-.04.14.11.08c.24.18.3.52.12.76l-.08.12.08.12c.18.24.12.58-.12.76l-.11.08.04.14c.09.29-.06.59-.35.68l-.14.04v.14c0,.3-.24.54-.54.54h-.14s-.04.14-.04.14c-.09.28-.4.44-.68.35l-.14-.04-.08.11c-.18.24-.52.3-.76.12l-.12-.08-.12.08c-.24.18-.58.12-.76-.12l-.08-.11-.14.04c-.29.09-.59-.06-.68-.35l-.04-.14h-.14c-.3,0-.54-.24-.54-.54v-.14s-.14-.04-.14-.04c-.28-.09-.44-.4-.35-.68l.04-.14-.11-.08c-.24-.18-.3-.52-.12-.76l.08-.12-.08-.12c-.18-.24-.12-.58.12-.76l.11-.08-.04-.14c-.09-.29.06-.59.35-.68l.14-.04v-.14c0-.3.24-.54.54-.54h.14s.04-.14.04-.14c.09-.28.4-.44.68-.35l.14.04.08-.11c.18-.24.52-.3.76-.12l.12.08Z"/>
    <circle class="cls-26" cx="71.31" cy="29.84" r="1.31"/>
  </g>
  <circle class="cls-5" cx="183.61" cy="228.67" r="6.58"/>
  <circle class="cls-12" cx="183.61" cy="228.67" r="5.37"/>
  <path class="cls-2" d="M183.61,225.57l.12-.08c.24-.18.58-.12.76.12l.08.11.14-.04c.29-.09.59.06.68.35l.04.14h.14c.3,0,.54.24.54.54v.14s.14.04.14.04c.28.09.44.4.35.68l-.04.14.11.08c.24.18.3.52.12.76l-.08.12.08.12c.18.24.12.58-.12.76l-.11.08.04.14c.09.29-.06.59-.35.68l-.14.04v.14c0,.3-.24.54-.54.54h-.14s-.04.14-.04.14c-.09.28-.4.44-.68.35l-.14-.04-.08.11c-.18.24-.52.3-.76.12l-.12-.08-.12.08c-.24.18-.58.12-.76-.12l-.08-.11-.14.04c-.29.09-.59-.06-.68-.35l-.04-.14h-.14c-.3,0-.54-.24-.54-.54v-.14s-.14-.04-.14-.04c-.28-.09-.44-.4-.35-.68l.04-.14-.11-.08c-.24-.18-.3-.52-.12-.76l.08-.12-.08-.12c-.18-.24-.12-.58.12-.76l.11-.08-.04-.14c-.09-.29.06-.59.35-.68l.14-.04v-.14c0-.3.24-.54.54-.54h.14s.04-.14.04-.14c.09-.28.4-.44.68-.35l.14.04.08-.11c.18-.24.52-.3.76-.12l.12.08Z"/>
  <circle class="cls-26" cx="183.61" cy="228.67" r="1.31"/>
  <circle class="cls-12" cx="71.38" cy="228.13" r="5.37"/>
  <path class="cls-2" d="M71.38,225.04l.12-.08c.24-.18.58-.12.76.12l.08.11.14-.04c.29-.09.59.06.68.35l.04.14h.14c.3,0,.54.24.54.54v.14s.14.04.14.04c.28.09.44.4.35.68l-.04.14.11.08c.24.18.3.52.12.76l-.08.12.08.12c.18.24.12.58-.12.76l-.11.08.04.14c.09.29-.06.59-.35.68l-.14.04v.14c0,.3-.24.54-.54.54h-.14s-.04.14-.04.14c-.09.28-.4.44-.68.35l-.14-.04-.08.11c-.18.24-.52.3-.76.12l-.12-.08-.12.08c-.24.18-.58.12-.76-.12l-.08-.11-.14.04c-.29.09-.59-.06-.68-.35l-.04-.14h-.14c-.3,0-.54-.24-.54-.54v-.14s-.14-.04-.14-.04c-.28-.09-.44-.4-.35-.68l.04-.14-.11-.08c-.24-.18-.3-.52-.12-.76l.08-.12-.08-.12c-.18-.24-.12-.58.12-.76l.11-.08-.04-.14c-.09-.29.06-.59.35-.68l.14-.04v-.14c0-.3.24-.54.54-.54h.14s.04-.14.04-.14c.09-.28.4-.44.68-.35l.14.04.08-.11c.18-.24.52-.3.76-.12l.12.08Z"/>
  <circle class="cls-26" cx="71.38" cy="228.13" r="1.31"/>
  <circle class="cls-5" cx="71.38" cy="228.13" r="6.58"/>
  <circle class="cls-5" cx="71.31" cy="29.84" r="6.58"/>
  <circle class="cls-5" cx="184.89" cy="29.84" r="6.58"/>
  <rect class="cls-5" x="111.66" y="218.67" width="32.31" height="23.12" rx="6.17" ry="6.17"/>
  <path d="M141.29,153.06l-.23.11c-.02-.13,0-.24.08-.31.07-.07.12-.14.14-.19-.03-.02-.06-.04-.06-.06s-.03-.03-.05-.04l.14-.15-.06-.12-.02-.11c.12-.74.33-1.49.63-2.23l-.05-.04h.03s.03-.09.03-.09c.01-.03.02-.05.04-.06.01-.02.02-.05.02-.11l-.1.08-.08-.02c-.02.21-.08.43-.18.66-.17.28-.24.55-.22.8-.02,0-.04.03-.08.05s-.05.05-.04.06l.06-.03v.03s-.1.05-.1.05c-.03-.21.01-.44.13-.7.09-.15.13-.31.11-.51v-.24s.04.01.07.01.05,0,.09-.03v-.06s.05-.2.05-.2l-.1.02-.05-.04v-.03s.06-.15.06-.15l-.02-.05h.1s.06-.1.06-.1c0-.02,0-.03.02-.04h-.07s-.03,0-.04,0l-.05-.04c.07-.05.1-.13.1-.23v-.03s.04-.03.04-.03v.03s.08,0,.08,0l-.02-.05s0-.07,0-.09c0-.02,0-.04,0-.06l-.05-.1.08-.04v.03s.04-.01.04-.01v-.06s-.06,0-.06,0v-.02s.03-.05.08-.07c.05-.02.07-.04.07-.06,0-.02,0-.04.02-.07.03-.13.04-.29.03-.47l.02-.19-.08.04-.05.05-.05-.04-.02-.05-.06.03v.06s-.06.03-.06.03c0-.12,0-.24.02-.36.02-.12.03-.25.01-.39l-.08.04v.06s-.03.01-.03.01l.02.05s-.03.05-.05.08c-.02.03-.02.06,0,.1l.09.2-.04.14c-.09.2-.14.38-.14.52l-.09.04-.03-.29c.07-.09.08-.19.04-.29l.16-.11-.09-.2s.04-.1.12-.18c-.04.02-.06.02-.07,0l.09-.04s-.02-.1,0-.15v-.02s-.04.01-.04.01l-.02-.05s0-.03.01-.05c.02-.02.02-.03.02-.04,0,0,0-.02,0-.03,0-.01.01-.03.02-.06.03,0,.05.01.06.02.01,0,.04,0,.08,0,.04,0,.08-.02.12-.04l-.05-.1c-.08.04-.13.07-.16.1l.03-.32-.08-.09s.08-.12.17-.24c.08-.13.1-.23.06-.32l-.05-.04c.05-.09.09-.16.12-.22s.02-.14-.02-.22l.14-.07v-.28s.05-.08.05-.14l-.09.04v-.02s.13-.07.13-.07c-.03,0-.05-.03-.06-.05-.01-.02-.04-.05-.07-.07h.07s.09-.04.09-.04c0-.02-.01-.04-.01-.07,0-.03,0-.07.03-.12l-.06.03s-.06.02-.07,0l.11-.05s0-.03.02-.04v-.03s.02-.08.02-.08h-.03s-.01-.01-.01-.01c-.04.02-.06.02-.07,0,.11-.15.17-.29.16-.41h-.07s-.01-.02-.01-.02c-.01-.08,0-.16.06-.25.05-.09.09-.16.12-.19-.02,0-.04-.02-.07-.09l.07-.06s.02-.04.03-.06c0-.01,0-.03,0-.04l-.02-.11h.03c.06-.04.08-.06.07-.08v-.03c.01-.05.02-.11,0-.19.02-.25.09-.43.21-.52-.03-.21-.01-.45.05-.72.05-.39.14-.76.27-1.13-.06.03-.09.03-.1.01l-.06.03s.04-.08.04-.13c0-.05.01-.09.04-.13v.09s.04.02.08,0c0-.08.05-.17.12-.25.08-.08.09-.17.06-.25l-.06-.13s.01-.04.05-.07c.04-.03.08-.07.1-.12l-.05-.1s0-.05,0-.09c-.09.04-.23.13-.4.25-.17.12-.34.23-.51.33l-.4.18-.02-.05.18-.21-.14.07v.02s-.02,0-.03-.01v-.06s.03-.01.03-.01c-.09.04-.25.14-.45.3v.03s.25-.08.25-.08c0-.02,0-.03,0-.04,0-.01.01-.03.03-.06l.09-.04v.02s-.07.13-.07.13l-.1.08-.14.07.06.06h-.03s0,.05-.04.07c-.05-.02-.1-.02-.14,0s-.06.02-.07,0l.17-.17v-.02c-.16.07-.26.11-.31.11.08-.04.13-.07.17-.11.04-.04.07-.08.11-.11.03-.03.05-.06.06-.09l-.02-.05-.08.04c-.09.1-.24.23-.44.37-.2.14-.4.27-.6.38-.21.1-.35.15-.41.16.05-.08.09-.16.1-.23s.03-.13.06-.18c.02-.05.08-.11.17-.17l-.02-.05s-.04.05-.1.08l-.03-.07s-.03,0-.04-.01v-.03s.13-.07.13-.07v.03s-.03.05-.03.05h.07s.02-.09.04-.13c.03-.04.05-.08.08-.11h.03s.02.04.02.04l.06-.03.03-.08.06-.03-.02-.05-.18.14s0-.03.02-.04c.09-.14.2-.25.32-.33.12-.07.22-.16.31-.26v-.02s-.18.08-.18.08c-.06.07-.27.22-.62.46l-.05-.04-.06.03-.05-.04c.09-.06.18-.16.27-.31l-.02.04-.02-.05h.03s.01.01.01.01c.03,0,.08,0,.15-.04v-.13s.21-.09.21-.09c.06-.07.08-.13.06-.18l.1-.08s.07-.02.1-.01c.13-.06.22-.12.26-.18-.78.4-1.51.93-2.17,1.58-.18.2-.38.35-.59.45v-.02s-.06-.02-.08-.03c-.02-.01-.05,0-.11.02-.02.05-.06.1-.12.15-.06.05-.11.09-.16.14,0-.02,0-.03.02-.04.11-.17.45-.52,1.03-1.05.34-.32.53-.49.57-.52.04-.03.08-.05.11-.07.03-.01.04-.04.05-.08l-.06.03s.02-.02.02-.04h.03c-.06.01-.1.02-.12.01-.06.03-.09.05-.09.07,0,.02,0,.04-.03.06-.01.02-.02.05-.03.09-.04.02-.06,0-.08-.02v-.03s-.08,0-.08,0c-.04.06-.1.12-.17.17-.09.04-.17.07-.21.07l.06-.03c.06-.07.14-.12.23-.17.15-.13.24-.23.27-.31l-.11.05-.83.6.06-.18c.09-.04.29-.19.59-.45l.41-.38-.02-.05h.03s-.01-.04-.01-.04l-.33.18c-.17.08-.32.18-.46.32-.13.13-.28.25-.45.34l.07-.15-.04-.08.2-.09-.02-.11-.34.16.07-.06-.02-.05.02-.04s-.07.03-.11.03c-.03,0-.06,0-.09,0,.03-.03.1-.09.2-.17.1-.08.21-.17.31-.26.1-.1.17-.17.19-.22l-.14.07-.02.04-.11.05-.02-.05s.02-.02.02-.04c.13-.06.25-.08.36-.04.05-.04.09-.08.11-.1.03-.02.05-.06.08-.11.03-.06.05-.09.04-.1,0,0,0-.02.02-.03l.2-.09c.08-.04.25-.2.53-.49l.49-.44c.07-.05.14-.1.23-.14.08-.04.14-.09.17-.17.02-.07.05-.12.07-.14.03-.02.21-.11.55-.27,0-.04.01-.08.02-.1.01-.03.01-.05,0-.06.3-.3.61-.53.93-.67l.02.05-.04.05.19-.03s.02-.02.02-.04c.08-.08.12-.16.13-.24l-.13.09-.12.03.41-.31c.08-.04.15-.06.21-.07l-.11.05v.06s.08-.04.08-.04l.03-.08.08-.04-.05-.1v-.06s-.04-.01-.04-.01l-.06.03s-.11.09-.18.13c-.07.04-.13.08-.19.12-.05.04-.1.07-.14.1-.04.03-.06.05-.06.06,0,0,0,.02-.02.03v.03s-.01.05-.03.06c-.01.02-.04.04-.08.05l-.05-.04c-.02-.05-.02-.08,0-.09s.03-.03.04-.05l.05-.05c.15-.07.4-.23.74-.49l.36-.26.02.05h-.03c-.05.06-.1.09-.14.12-.04.03-.08.07-.1.12.03,0,.05.01.07,0,.02,0,.07-.02.15-.05.09-.1.22-.19.39-.27l.23-.11s.06-.06.08-.13c-.17.08-.33.11-.47.1l.11-.05c.03-.08.07-.14.12-.19.04-.05.1-.09.15-.12.05.02.11.02.18,0l.08-.13.14-.07-.07-.15c-.06.03-.12.04-.19.03.16-.15.24-.37.25-.66l.06-.03v.03s.08-.07.08-.07c.03-.08.05-.13.06-.18,0-.04.02-.07.06-.09.03,0,.06,0,.1-.01s.07-.05.09-.1l.04-.05v-.03c-.06-.01-.1-.03-.12-.05s-.05-.06-.08-.13c.07-.09.13-.24.17-.43s.06-.38.07-.56l-.05.05-.02-.05c-.06.13-.1.2-.14.22l-.02-.05c.09-.15.14-.29.15-.43l.08-.04.03.07s-.05.06-.05.08c0,.02,0,.04,0,.06l-.02.04.17-.08c-.02-.05-.06-.08-.12-.1l.09-.04v-.3s.04.01.06.02c.01,0,.02.02.03.03,0-.03.01-.06,0-.1,0-.04-.01-.09-.02-.14s0-.1.01-.13c.02.05.07.08.14.09v-.03c.05-.11.08-.23.06-.37l-.09.04s0,.04-.03.06c-.02.02-.05.04-.07.06s-.05.04-.07.04v-.13s.04-.01.04-.01c0-.02-.02-.02-.04-.01l-.02-.05.07-.15.09-.04s.06.03.08.02c.04-.02.06-.05.08-.1.01-.05.01-.09,0-.12l-.06-.06c-.04-.08-.06-.15-.06-.21v-.03s.02-.01.02-.01c0-.02,0-.03.01-.05.02-.02.02-.04,0-.08l.08-.04c.06-.03.08-.05.07-.08s-.01-.04,0-.06c0-.01.01-.03.02-.04,0-.01.01-.03.02-.06-.03,0-.05-.01-.07-.01-.02,0-.04,0-.05-.03l-.09.04c-.15.23-.37.42-.68.56-.19.09-.39.2-.6.34-.14.1-.3.21-.48.31-.28.19-.5.35-.67.49l-.2.09c-.13.06-.28.17-.44.32-.64.52-1.01.8-1.13.86-.08.04-.14.05-.18.05l-.06.03s-.05.06-.05.08c0,.02,0,.04,0,.06-.04,0-.07,0-.08-.02l-.09.1v.03s-.09.06-.12.09l-.02-.05-.1.02c-.02.05-.08.11-.16.17l-.04-.08.18-.21c-.07,0-.13,0-.17.02l.38-.3.02.05-.08.04v.03s-.09.01-.09.01v.03s.04-.01.04-.01l-.02.04v.02s.07-.03.07-.03c.02-.05.06-.09.1-.12.04-.03.07-.06.08-.08-.02,0-.03,0-.04-.01l-.06.03v-.03s.05-.09.05-.09l-.06.03v-.03s-.27.18-.27.18l-.02-.05c.14-.09.24-.17.3-.26l-.05-.04h.03s-.02-.06-.02-.06h.04s.17-.07.17-.07l.09-.1h-.07s.11-.16.38-.38c.21-.14.37-.28.46-.43-.03,0-.09.01-.18.05-.06.07-.13.13-.21.17-.08.05-.15.09-.2.14-.09.14-.35.38-.77.72l-.02-.05h.03c.35-.31.55-.5.61-.57l-.21.16c-.2.17-.37.29-.52.36l-.02-.05h-.14s-.11.05-.11.05h-.03s-.03.02-.04,0l.14-.07h.07s-.03-.08-.03-.08l.02-.04c.08-.04.18-.1.31-.19.13-.09.22-.18.28-.26l-.34.16s-.04.05-.07.06v-.02s.08-.1.08-.1v-.06s-.05.03-.05.03c-.01.03-.04.06-.09.1-.05.04-.11.08-.19.12l-.02-.11h-.07c-.02.05-.07.09-.15.13l-.3.11.02.05-.06.09v.03s.09-.03.13-.04c.04,0,.08,0,.1,0h-.03c-.07.11-.23.24-.47.41l-.11.05c.06-.07.13-.14.21-.21s.15-.12.2-.17v-.03c-.07.03-.11.04-.15.05-.03,0-.05,0-.07,0-.01,0-.03-.01-.05-.02-.02-.01-.04-.01-.05,0l.36-.35-.02-.05-.08.04v.03s.02.02.02.02c-.01.03-.06.06-.13.09-.02-.05-.04-.09-.03-.11,0-.02,0-.04.02-.07.01-.03.01-.05,0-.06.06-.07.14-.12.23-.17h.04s.02.06.02.06l.06-.03s.03-.05.07-.08c.03-.03.08-.06.12-.1v-.03s-.15.07-.15.07l-.06.09v-.06s0-.03,0-.03l.08-.04v-.06s-.03-.01-.03-.01v-.06s-.11.05-.11.05l.05-.05.23-.11v-.13s-.02.01-.02.01v-.03s-.29.16-.29.16l-.03-.07.06-.03v-.03s-.1.04-.1.04l-.16.17-.02-.11c.09-.06.15-.13.2-.2.05-.07.11-.13.17-.19l-.02-.05-.1.08c-.11.05-.18.07-.21.07.03-.08.15-.18.34-.31l.02.05h.03s.01.01.01.01l-.09.04-.02.04.39-.21s.05-.03.05-.05h-.04s.09-.05.09-.05l.02-.04-.13.03-.05-.04c.13-.06.25-.14.34-.23.09-.09.17-.16.22-.21l.04-.05v-.02s-.15.07-.15.07c-.04.06-.19.17-.44.32l-.02-.05s-.03,0-.04-.01l.11-.05v-.06s.06-.03.06-.03l-.02-.05-.08.04c-.1.04-.17.07-.21.07.16-.11.25-.21.3-.29.04-.08.04-.18-.02-.3l-.08.04c.22-.42.72-.9,1.52-1.43.02-.05.03-.09.01-.13l-.11.05c.21-.1.38-.2.52-.3l-.03-.08c.11-.05.19-.1.22-.13.03-.03.07-.07.12-.12v.02s-.12.09-.12.09l-.05.05v.03s.04-.01.04-.01l.24-.14s0-.03.05-.05l-.04-.08.1-.08c.05.02.1.02.14,0,.02,0,.04-.03.07-.06.03-.03.06-.06.1-.08l-.05-.1c.25-.11.37-.18.37-.2,0-.02,0-.04,0-.06,0-.02.01-.04.03-.05.03,0,.08,0,.15-.04.09-.04.14-.08.15-.12,0-.03.02-.06.03-.08.01-.02.04-.04.07-.06.03-.03.06-.02.07.01l.08-.04s.07-.09.13-.17c.06-.08.13-.14.23-.18l.17-.08c.06-.03.1-.08.14-.15l.14-.07c.06-.03.09-.05.1-.08v-.02s.03-.05.03-.05c.02,0,.03,0,.03,0,0,0,.02.02.05.02l.06-.03s.02.02.04.01c.07-.05.11-.1.14-.15.02-.05.06-.1.11-.14.05-.04.11-.08.18-.13.07-.04.13-.09.18-.13l.05.1.03-.08v-.03s.05-.03.05-.03l.05-.05s.15-.08.33-.18c.18-.1.32-.2.42-.29l-.04-.08-.11.05c-.04.08-.11.14-.22.19l-.06.03c.06-.13.17-.23.34-.31l.61-.46.43-.35c.32-.25.49-.4.52-.45.05,0,.08,0,.1,0,.02,0,.05,0,.09-.03l.1-.08-.07-.15-.1.08-.06-.12.18-.21v.02c0,.07,0,.13.02.18.02.05.05.09.09.11l.06-.03v.02s.07-.03.07-.03c0-.02-.01-.03,0-.06,0-.02,0-.04.03-.06.01-.02.03-.05.06-.1l.18-.05c.25-.11.42-.23.54-.34-.01-.08-.01-.15,0-.21.01-.07.03-.13.04-.18,0-.05.02-.09.04-.1s.03,0,.04.01h.03s-.02-.06-.02-.06l.02-.04-.05-.04s-.03,0-.04-.01c.02-.05.04-.1.06-.13.02-.04.07-.1.15-.17l-.02-.05h.03s.01.01.01.01c0,.02.02.02.04.01l-.06.03.06.21c-.03.09-.03.21-.01.34-.09.06-.14.1-.15.12-.02.02-.03.04-.04.06,0,.02.02.03.05.04.03,0,.06,0,.1-.02l.07-.06.11-.05v-.13s.06.04.07.05c0,0,.03,0,.09-.03l.38-.3c.35-.24.61-.4.78-.48.08-.04.13-.05.15-.04h-.03c-.06.08-.13.13-.21.17l-.23.11.04.08h.03s-.02.02-.02.02c-.09.1-.18.17-.26.21-.09.04-.16.09-.22.16l.05.04.05.1s.05-.06.06-.09c.01-.03.03-.05.05-.07.03-.02.06-.05.11-.1v.22s.07,0,.15-.04v-.13s.15-.07.15-.07c.08-.08.25-.21.51-.39.73-.52,1.13-.8,1.21-.83.23-.11.38-.2.46-.29.08-.09.13-.14.17-.16.08-.03.14-.05.18-.05-.03-.07-.06-.1-.09-.11l-.23.11c-.08.12-.23.24-.43.35-.42.28-.74.46-.95.56l-.02-.05c.6-.34,1.12-.66,1.54-.97.42-.31.9-.6,1.44-.89l-.02-.05-.15.04c-.04.06-.11.11-.2.16h-.03s-.03-.06-.03-.06c.21-.1.4-.2.59-.3.18-.1.44-.24.79-.39h.07s-.01-.03-.01-.03h.03s-.01-.04-.01-.04l.02-.04s0-.03.01-.05c.01-.02.05-.05.1-.09l.2-.09v.02s-.23.15-.23.15l.04.07c.74-.38,1.38-.74,1.9-1.06.59-.37,1.39-.81,2.4-1.32v.03s-.03.05-.08.07c-.05.02-.1.05-.15.1l.02.05s.05-.04.04-.05c.06-.03.1-.04.13-.03-.03.03-.07.1-.11.2l.36-.2v.03s.07-.03.07-.03v-.15l-.31.14s.06-.04.07-.07l.14-.15-.13.03c.11-.05.19-.1.22-.13l.14-.07v.06s.03.07.03.07c.06-.07.12-.12.18-.14v-.02s.07-.04.07-.04l.83-.45v.03s.11-.08.11-.08v.03s0,.06,0,.06l-.08.04-.05.05s0-.03.02-.04v-.02s.02-.01.02-.01v-.03c-.07.07-.09.12-.08.15v.03s.04.02.07,0c.03-.01.05-.02.08,0l-.33.18v-.03s-.1.04-.1.04l-.02.04.48-.16s.07-.07.07-.08c0,0,0-.02.01-.05l.07-.06h.07s.01.02.01.02l-.08.04-.05.05c.06-.03.12-.04.18-.05.06,0,.12-.01.17-.02v.03s-.02.08-.02.08l.05.04c.06-.03.11-.04.15-.05.04,0,.1-.02.16-.03l-.05-.04v-.02s-.04.01-.04.01l-.02-.05c.07,0,.11,0,.14,0,.03.02.06.04.1.06l.07-.06.28-.07c.17-.04.32-.08.45-.15.05,0,.07,0,.08.02l-.06.03c-.06.07-.15.13-.26.18s-.24.1-.37.14c-.13.04-.24.08-.31.11h-.03s.01.04.01.04l.09-.04c.12,0,.55-.13,1.29-.42l.59-.21s0,.03-.02.04c-.05.08-.08.13-.09.15,0,.01-.02.02-.04.03-.2-.03-.58.09-1.15.35l-.39.21v.03s.45-.11.45-.11l.02.05-.3.11-.2.09-.05-.04-.06.03s-.05-.05-.09-.05c0,.04,0,.08,0,.09,0,.02-.06.06-.17.11l-.21.07-.3.17s.02.02.04.01c.14,0,.42-.1.83-.29.17-.08.31-.13.41-.16h-.03s0,.05-.05.06l.02.05-.06.09-.21.07-.32.21v.03c.06,0,.1,0,.14-.01.04,0,.08-.01.1,0-.13.08-.34.19-.64.33l.06.12c-.08.04-.13.07-.16.11h-.03s.01.04.01.04l.17-.08c.12-.04.25-.1.38-.19.13-.09.23-.15.29-.18.07-.03.14-.08.22-.16.2-.17.57-.38,1.12-.64l.46-.21v.06c-.3.16-.45.24-.46.25,0,.01-.02.02-.04.03h-.04s-.06.03-.07.05v.03c.03.05.02.09-.04.11h-.07s-.04.05-.04.05c.04-.02.08-.03.12-.03.05,0,.26-.09.64-.26.14-.04.26-.09.37-.14.1-.05.19-.08.25-.09l-.06.03c-.11.15-.39.36-.82.62-.19.09-.34.18-.46.27l.05.04h.11c.19-.02.35-.06.46-.11.11-.05.2-.08.27-.09-.13.06-.24.13-.32.21l.06-.03c.06,0,.15-.04.27-.09l.05-.11.16-.1.02.05s.02.02.04.01l.02.05.16-.1s.02.02.04.01c.02,0,.04,0,.07,0l-.05.05v.03s.04-.01.04-.01l.02.05c-.19.09-.32.17-.38.24l.25-.06-.06.03c-.02.05-.07.1-.14.15l.05.04s.03.05.05.04l.04.08c-.09,0-.18,0-.26,0-.08,0-.14-.02-.17-.04l.02.05-.06.09v-.03s-.06.05-.06.05l.03.08c-.13.16-.47.39-1,.67l-.58.33v.03s.08,0,.08,0v.02c.04.05.04.1.04.14h-.07s-.01-.02-.01-.02l-.11.05.05.04-.16.17.08-.04s.02.02.04.01c-.04.02-.05.04-.04.05h-.03s-.09.12-.09.12l-.05-.1s.02-.02.02-.04c.01-.03.03-.05.07-.08.03-.02.07-.06.1-.09v-.03s-.21.09-.21.09v-.13s-.13.07-.13.07c0,.02,0,.03-.02.04,0,.02.02.02.04.01l.02.05-.02.04c-.02.05-.07.1-.14.15.03.03.05.04.06.05,0,0,.02,0,.04,0v.03s.03.02.05.01c-.11.05-.21.11-.27.16-.26.18-.59.37-.99.55l-.02-.05.07-.06v-.02s.02-.01.02-.01l-.21.15.06.06-.02.19.06-.03v-.03s.02-.02.01-.03c0,0,0-.02.01-.05v-.06s.43-.2.43-.2l.27-.09c.19-.09.36-.2.51-.33l.04.08c-.21.15-.43.29-.68.4l-.35.13v.02s.05.04.09.01c.03-.03.06-.04.08-.05.02,0,.04-.01.05,0,.01,0,.04.02.07.04-.34.16-.56.31-.65.46l.65-.39s0,.04-.02.07c-.02.03-.15.13-.4.3-.24.17-.41.28-.51.33.02,0,.03-.02.02-.04,0-.02,0-.04.02-.06s.06-.05.1-.09c.04-.04.08-.07.11-.11-.05,0-.12.02-.21.07l-.03.08-.06.03c-.05-.02-.1-.02-.14,0v.03s-.02.01-.02.01v.02s-.09.08-.09.08h-.03s0-.02,0-.05c.01-.03,0-.05,0-.09l-.06.03.02.05s-.02.04-.03.06c0,.01-.01.03-.03.06-.01.03-.04.05-.07.06-.03,0-.06,0-.1.01l-.06.03s-.07.05-.09.1l-.05-.04v-.02s-.42.16-.42.16l.05.1s.07-.04.09-.06c.02-.02.04-.04.05-.07l.03.08-.22.13v-.02s0-.07-.04-.14l-.17.08s-.09.08-.12.1c-.03.03-.09.06-.17.09l.03.08c.06-.03.1-.06.13-.09h.03s.03-.09.03-.09h.03s.08-.03.14-.02v.03s0,.06,0,.06c-.13.12-.56.38-1.3.78-.37.19-.66.35-.85.48v.03s-.03.05-.03.05l-.21.07-.23.11c-.87.62-1.76,1.21-2.68,1.75-.71.41-1.33.79-1.85,1.16-.24.17-.49.32-.75.44-.26.12-.48.24-.67.37-.07.36-.16.7-.28,1.04-.13.42-.22.82-.28,1.19h-.03s-.05-.02-.05-.02l-.06.03s.02.06,0,.09c-.01.03-.02.06-.02.1l.12-.03-.02.19s.03,0,.04.01h-.03s.04.09.04.09c-.03.14-.08.28-.15.43l-.12.42.02.05s.03,0,.04.01c-.04.02-.07.04-.09.07-.02.03-.04.05-.06.06-.03.09-.05.17-.06.24-.02.07-.02.12,0,.17,0,.05,0,.08,0,.11.19-.09.31-.13.35-.13l-.39.27.02.05.27-.16.43-.2s.02.02.04.01l-.06.03c-.02.05-.04.08-.04.1,0,.01-.02.03-.03.04-.01.02-.05.04-.11.07h-.03c-.09.12-.19.2-.3.26-.11.06-.21.12-.3.18l.12.04.06-.03c.12-.18.5-.43,1.13-.77.24-.13.44-.25.59-.36,1.07-.72,2.48-1.53,4.23-2.44,0,.02,0,.03-.02.04l.04.08-.13.03-.15.13-.13.03.02.05-.02.04c-.08.04-.13.05-.15.04h-.14s-.02.05-.03.06c0,.01,0,.03,0,.04l-.04.05c-.08.04-.14.05-.18.05l.04.08.02-.04s.08,0,.15,0c.07-.01.16-.04.25-.09.06-.03.1-.05.12-.07s.08-.08.17-.19l.1-.02v.02s.03.03.04.03.06-.01.13-.05l-.05-.1.1-.08c.03.07.08.08.16.05.09-.04.14-.07.13-.09v-.06c.05-.06.14-.12.3-.2,0,.02.02.02.04.01v.06s-.03.01-.03.01c.02.05.05.08.07.09.14-.1.35-.22.63-.35l-.06.03v.03s-.05.03-.05.03c.02.05.02.08-.02.1v.03s-.02.01-.04,0c-.01,0-.03,0-.06-.02l-.06.09s.03.02.07,0v.03s-.03.05-.03.05c-.23.1-.35.16-.36.15-.01,0-.02-.01-.03-.03v-.02s-.07.04-.08.08c0,.03-.02.05-.04.06h-.07s-.02-.05-.02-.05l-.13.03s0,.03-.01.05c-.02.02-.03.04-.05.05-.01.02-.02.03-.01.05l-.05-.1c-.12.14-.28.28-.49.44l-.04-.08-.06.03s-.02-.02-.04-.01v-.03s.02-.01.02-.01h-.03s0,.08,0,.08l-.02.04-.06.03s-.06.09-.04.14l.06.06v.06s-.03-.05-.03-.05c-.02,0-.03,0-.04-.01-.02,0-.02.03,0,.06l-.14.15-.02-.05h-.03s-.03.02-.04,0c0,.02.01.04.02.08,0,.04,0,.08-.02.13l.63-.35.51-.24.03-.08.12-.12c.08-.03.11-.06.1-.08h.03s-.02-.13-.02-.13l.02-.04.17-.08c.02-.05.07-.09.15-.13l.13-.03c-.15.07-.29.15-.4.25l.05.1.14-.07-.16.1v.06s.25-.12.25-.12c.05-.04.11-.09.18-.14.07-.05.18-.13.33-.23.15-.1.3-.18.45-.25.15-.07.26-.1.34-.09l-.2.09.05.19c-.06.03-.1.06-.13.09-.04-.04-.08-.07-.12-.08-.04-.01-.12,0-.23.06-.02.05-.07.09-.15.13-.21.1-.33.16-.36.18-.03.03-.05.05-.05.07,0,.02-.05.08-.14.19v.03s0,.04-.01.06c0,.01-.02.02-.04.03v.03s-.05.04-.06.06v-.02s.04-.11.04-.11v-.03s-.15.07-.15.07l.05.1s-.07.08-.22.19l-.35.07.02.05-.05.05-.07.06c-.05-.01-.09-.02-.11,0s-.03.03-.04.06c0,.03-.02.06-.04.06s-.04.02-.06.03l-.08.04.04.07c-.09,0-.18.02-.28.07-.01.03-.02.04-.01.05,0,0,0,.02-.02.03v.03s0,.06,0,.06l.26-.12c.19-.09.4-.22.64-.4.24-.18.48-.33.73-.44h.21c.06-.03.1-.07.13-.14.03-.06.07-.13.13-.2.21-.1.36-.16.45-.18.09-.02.19-.05.29-.08l-.05-.1.14-.07v.03s-.07.04-.07.04l.02.05s.04.01.1-.01l.05.1s-.08.03-.12.04c-.04,0-.08.02-.13.03-.04.01-.06.03-.06.06s0,.05.01.07l-.16.1-.23.1s-.1.01-.15.04c.04.08.04.13,0,.15s-.08.05-.13.09v-.03s-.04.01-.04.01v-.02s.05-.09.05-.09v-.02s.03-.05.03-.05l-.11.05-.05.05-.06.03.06.12s.01.04.01.07,0,.06-.01.08c-.15.07-.25.1-.31.08l-.23.26.02.05.06-.03c.08-.08.15-.13.21-.15.13-.06.21-.11.25-.14.03-.03.04-.06.04-.06s0-.02,0-.03c0-.01.01-.02.02-.04s.01-.03.03-.06l.02.05v.06s.05.04.07.09c-.23.1-.4.23-.51.39l.08-.04v.02c.07-.03.1-.05.11-.08l.11-.05.05.1.08-.04-.03-.08.06-.03s.06,0,.1-.01.07-.02.1-.02c0-.04,0-.07.01-.08,0-.01,0-.03.01-.05,0-.02.02-.05.05-.08h.03s.06-.04.06-.04l.05-.05-.03.08.02.05.04-.14h.07s.09-.04.09-.04c-.01.03-.01.04-.01.05,0,0,0,.02-.02.03l-.02.1s.06-.05.06-.09l.07-.07s.02.02.04.01c-.02.05-.05.09-.07.11-.02.02-.06.04-.09.06h-.07s-.05.04-.1.08c-.05.04-.08.07-.08.1,0,.02,0,.04,0,.06,0,.02-.02.05-.05.08l-.02-.05v-.06s0-.03,0-.03l-.16.1c-.24.17-.5.33-.78.48l.02.05h-.03s.01.04.01.04l.75-.47.16-.1.02.05-.06.03v.09s.62-.31.62-.31l.02.05-.26.18c-.15.13-.35.26-.61.4v-.06s.03-.01.03-.01l-.02-.05s-.04.05-.07.06l-.04.05c-.02.05-.04.09-.04.11,0,.02,0,.05,0,.09l.1-.08c.15-.07.24-.1.27-.09-.19.09-.29.17-.3.26l.23-.11-.03.08c-.21.14-.5.3-.85.48v.03s0,.06,0,.06l.22-.13.26-.12s.03.02.06.02c.03,0,.06,0,.09,0l.02.11-.06.03c-.02-.05-.05-.08-.07-.09l-.15.19c-.08.04-.14.05-.18.05l.04.08h.03s-.02.02-.02.02l-.11.05c-.08.08-.21.17-.39.27l-.46.21.03.14c-.59.37-1.14.77-1.66,1.19-.44.35-.78.59-1.01.74-.15.07-.3.17-.45.3-.48.36-.98.72-1.51,1.06l-1.22.87c-.16.11-.37.25-.65.42-.28.17-.53.33-.75.48-.22.15-.34.27-.37.37l-.05.05h.03s.02.04.02.04l.05-.05.13-.03-.06.03v.02s-.03.05-.03.05l-.08.04-.02.1c.08-.04.14-.05.18-.05-.23.15-.32.33-.27.55,0,.16-.06.38-.2.65-.14.28-.21.56-.22.84l-.11.05c-.03.08-.04.14-.02.18.02.04.02.07.01.1l-.06.03s-.07.1-.09.25v.58s-.04.01-.04.01h.03s-.01-.04-.01-.04h-.11s-.01-.04-.01-.04l-.17.08.04.16.09-.04.05.04-.19.12.09.2s.06.04.09.11l-.06.03-.03-.07-.11.05c.02.13,0,.31-.07.52-.14.55-.26.91-.37,1.08,0,.02.02.02.04.01v.02s.04-.01.04-.01l-.02.04c-.02.11-.07.25-.15.43v.03s-.02,0-.03-.01h.03s-.01-.04-.01-.04l-.06.03v.06s0,.03,0,.03l.08-.04s0,.04-.05.07c-.04.03-.07.06-.08.08-.01.03-.03.06-.06.09l-.02-.11-.04.05-.06.03s-.02.04-.03.04c0,0,0,.02,0,.03l.03.14.07-.07.05.04c-.06.11-.1.23-.11.37,0,.13-.08.27-.23.4.03.17,0,.4-.06.68-.08.29-.17.52-.27.69l-.08-.02v.02c-.03.12-.04.23-.04.33l-.06.03.04-.51c0-.29.06-.5.15-.65.02,0,.03,0,.04.01h.07c-.04-.08-.04-.14-.02-.16.03-.02.04-.04.05-.07v-.03s.02-.01.02-.01c-.03,0-.05-.02-.07-.03-.02-.01-.03-.04-.05-.07v-.06s.06-.03.06-.03c.01-.03,0-.05,0-.09-.02-.03-.02-.07-.02-.11-.02,0-.02.02-.02.04-.06.13-.12.23-.18.29l-.02.04c.05.1.02.39-.09.86l-.06.03s-.03.05-.07.08c-.03.03-.05.04-.06.06,0,.01,0,.03,0,.04l.07.09h.03s-.03.03-.05.04c-.02,0-.02.02-.02.04l-.06.03v.06s.05-.03.05-.03v.02s.04-.01.04-.01h-.03s.03,0,.03,0v.03s-.1.05-.1.05c-.04.02-.06.05-.06.09-.06.11-.11.28-.15.5-.14.55-.19.91-.16,1.08l.14-.07s.02.03.03.03c.01,0,.05,0,.12,0-.02.05-.04.08-.04.1s0,.03-.01.05c0,.02,0,.06,0,.12l.1-.08.05.04h-.03c0,.07-.01.13-.06.19-.05-.02-.1-.02-.14,0h-.03s-.05-.09-.05-.09h-.04c-.08.12-.16.24-.25.35.04.08.05.19.04.32l-.12.48s-.06.02-.07,0h-.04s-.06.01-.06.01c.02.03,0,.1-.05.2-.09.04-.15.05-.17.02l.06-.03v-.03s.09-.01.09-.01v-.03s-.04.01-.04.01l.05-.05-.02-.05-.1.08-.02-.05.05-.05-.02-.11-.07.06.05.04c-.06.13-.1.3-.12.53-.02.22-.05.42-.09.6-.03.18-.09.3-.17.38v-.03s-.06-.02-.08-.04c-.02-.02-.05-.08-.1-.18h-.04s.07-.08.07-.08c.02,0,.03-.02.02-.03,0,0,0-.02,0-.03,0-.01,0-.04.01-.08l-.19.12s-.06-.05-.09-.11c.06-.03.09-.05.1-.08v-.02s.02-.08.02-.08l-.02-.05c-.05-.12-.02-.31.11-.59.03-.04.05-.07.05-.11l-.11.05v.02s-.03-.01-.03-.01l-.06.03c0,.18-.04.34-.09.47-.06.13-.1.25-.14.37l.06-.03v.03s.08,0,.08,0l-.14.07.1.14c-.05.08-.09.17-.12.27-.08.18-.16.3-.25.36.02.15-.01.3-.11.45l-.08.04v.06s.05-.03.05-.03l-.17.23-.14.37h-.07s-.09.04-.09.04c.02-.07.01-.13-.01-.18.12-.18.18-.31.17-.38l-.06.03-.02-.05h.07s.05-.04.04-.05h.03s-.14-.01-.14-.01v-.18s-.04-.05-.04-.05c0-.02-.02-.03-.02-.05,0-.02,0-.04,0-.06.02-.11.05-.21.11-.29.05-.08.09-.2.11-.36l-.09.04.05-.05c.03-.08.06-.17.08-.27.02-.1.06-.19.11-.28l-.12-.04s.03-.05.05-.07c.02-.02.03-.05.01-.08-.02,0-.03,0-.04-.01l-.04.05c-.08.14-.12.35-.12.63l-.27.16.04-.29-.3.11s.03.09.02.11c-.01.03-.02.06-.02.1,0,.04,0,.09.03.14l-.14.07c.02.25-.03.51-.16.77-.07.15-.11.29-.14.41-.02.12-.02.21,0,.26-.02.11-.06.22-.12.33-.12.28-.18.49-.16.62.02.13,0,.26-.03.38l-.02.1c-.01.13-.07.3-.17.53l-.06.03s-.03.04-.06.06c-.03.01-.05.05-.07.12l.06-.03v.02Z"/>
  <path d="M156.42,146.56c-.06.01-.09.01-.1,0h.03s.01-.1.01-.1c.02,0,.03-.02.02-.03,0-.02.01-.04.05-.05.04-.02.06-.04.07-.06s.02-.05.04-.08c.02-.03.06-.06.1-.07l-.04-.19s.03-.11.11-.22l.09-.16c.06-.09.12-.16.18-.21.13-.07.2-.19.2-.36l.21-.05.03-.15v-.05s.05-.01.05-.01l.05-.07v-.05s0-.06,0-.06h-.06s-.03.05-.04.07c0,.01-.02.02-.02.03,0,.01-.03.02-.06.03-.03,0-.05.02-.05.05,0,.03-.02.06-.06.1-.03.04-.07.09-.12.17-.05.08-.09.15-.14.22l-.05.04s.01-.07,0-.14c.02,0,.04-.01.06-.03.02-.01.03-.03.04-.05,0-.02.02-.04.03-.06l-.22.02v.03s.14,0,.14,0v.03s-.12.03-.12.03c-.13.18-.22.33-.28.46-.06.01-.1.03-.12.06h-.03c0,.08-.02.14-.04.19-.02.04-.06.09-.11.14l-.04-.02s0-.03.02-.04v-.03s.07-.1.07-.1l-.04-.02-.06-.1h.1s0,.03,0,.03h.06c0-.05,0-.09.02-.12.02-.04.05-.07.07-.12.02-.04.03-.08.02-.12h-.03s-.03-.13-.03-.13l.02-.03.04.02s.06.04.1.03l.07-.1-.02-.08h-.06s-.02.08-.02.08l-.08.05-.03-.11c.12-.11.2-.23.23-.37l-.12.03c-.05.07-.08.11-.08.13,0,.02-.01.06-.02.12l-.36.26-.15.04v-.05s-.05-.02-.05-.02c.02-.02.04-.06.07-.12.03-.05.07-.12.11-.21.04-.09.06-.17.04-.24.04-.03.08-.05.12-.06.04,0,.08-.02.1-.04.03-.02.06-.05.09-.11.03-.05.05-.13.06-.23,0-.1.03-.19.05-.27.03.01.04.03.04.05,0,.02.01.03.02.04.01,0,.03,0,.05,0l.02-.06.02-.06-.09.02s-.03,0-.04-.02l-.04-.02.16-.15v-.05s-.1-.09-.1-.09c.06-.09.12-.19.17-.3.05-.11.09-.19.12-.25h-.1s-.04-.05-.04-.05c.04-.03.06-.06.06-.09,0-.03.02-.07.05-.11h.03s0-.03,0-.03h.03s0,.11,0,.11c-.02,0-.03.02-.02.03s0,.04-.02.06l.15-.04v-.05c.08-.14.14-.23.14-.29l-.14.09v.03s-.03-.02-.03-.02l-.09.02v-.05s.08-.11.11-.17h-.06s0,.04,0,.04c-.04.03-.05.05-.05.07h-.03s0,.04-.02.05c-.02.01-.05.03-.09.04v-.03s.02,0,.02,0c.05-.07.06-.14.05-.21.07-.09.14-.16.22-.22s.13-.11.14-.15h-.03s-.06-.06-.14-.04c-.02.08-.07.17-.13.26l-.09.02s0-.08.04-.12v-.03s0-.09,0-.09c.02,0,.07-.06.15-.18.16-.23.3-.47.41-.72l.15-.21h.03s.02.07.02.07h.07s-.01-.04-.01-.04h.03s.04-.13.04-.13h-.1s-.02-.09-.02-.09c.07-.07.1-.13.1-.18,0-.05,0-.11-.03-.18-.03-.14.04-.34.21-.59.1-.12.2-.26.28-.44l.18-.04h.07s.34-.46.34-.46v-.11c-.06.01-.1.02-.12,0h-.06c-.03.08-.07.14-.12.19l-.03-.11c.13-.07.21-.13.21-.19-.09-.02-.16-.05-.2-.11-.04-.06-.08-.13-.1-.22.09-.08.13-.17.13-.28h-.03c-.13.19-.22.3-.27.35v-.05c.05-.09.11-.19.17-.3s.13-.21.22-.31v.05s.04-.03.04-.03v.03s-.02.04-.03.05c0,.01-.01.03-.02.05,0,.02,0,.05,0,.08h.03s-.01-.06-.01-.06c.24-.26.37-.54.38-.83l.04-.12.15-.04.02-.03s.03-.02.03-.03l-.11-.06.15-.04-.04-.19s.03-.04.03-.06c0-.02.02-.04.04-.05.02-.01.04-.03.07-.06.03-.02.05-.04.08-.06.03-.02.04-.04.05-.07,0-.03.01-.06.02-.1.26-.25.5-.55.72-.91h.06s0,.1,0,.1c-.08.04-.16.13-.25.29-.27.39-.42.66-.45.82l.12-.03-.03-.11.42-.53c.54-.7.87-1.15.97-1.36-.03-.03-.05-.07-.06-.13.02-.02.02-.05.01-.09l.15-.04-.04-.19c.09-.08.16-.17.22-.29.06-.12.15-.21.29-.28v-.11c.33-.34.62-.7.88-1.08.05-.07.1-.13.17-.18.06-.05.18-.2.36-.45.07-.17.17-.33.31-.47.05-.05.13-.16.25-.32.29-.33.45-.59.49-.77l.2-.1c.12-.31.34-.64.67-.98.33-.34.54-.68.63-1l-.15.04-.11.08-.2-.15.02-.06.05-.04s.02.06.03.08c.01.02.03.03.04.03.01,0,.03,0,.05,0v-.05c-.11-.05-.17-.14-.2-.27-.04.03-.07.04-.09.05-.02,0-.04.02-.05.04h-.03c-.05-.1-.11-.19-.18-.28-.07-.09-.13-.17-.17-.26l-.08-.35-.09.02-.07-.04s.02-.06,0-.11l-.19-.24c-.06.01-.09.01-.1,0-.02-.07-.02-.12,0-.14l-.21.05v-.11c-.01-.07-.04-.13-.09-.19-.05-.05-.08-.14-.11-.24l.15-.04.05-.04.08.18h.03s.04-.13.04-.13c-.2-.1-.35-.26-.46-.46-.19-.33-.3-.57-.33-.71-.03-.05-.08-.08-.14-.11-.06-.02-.1-.05-.13-.08-.04-.18-.06-.29-.05-.33l-.05.04v.05s-.02-.02-.02-.02c-.02,0-.03,0-.04-.02-.02,0-.03,0-.04-.02l.15-.04c-.01-.05-.03-.09-.06-.1l-.05.04h-.03c-.03-.14-.14-.28-.33-.43l.11-.08v-.09s-.33.19-.33.19v-.09c.12-.06.18-.12.16-.18s-.02-.09-.01-.11c0-.02.03-.04.06-.07,0,.02.01.04.03.05.01.02.03.03.04.03.01,0,.03,0,.05,0v.03s.1-.28.1-.28c-.05-.04-.1-.09-.13-.15-.04-.06-.08-.11-.13-.15l.12-.03.05-.04.15-.04.03.11h.03s.03.1.03.1l.15-.04c-.08-.15-.17-.27-.28-.37-.11-.1-.19-.21-.25-.35.01-.04.02-.08.02-.12,0-.04,0-.07,0-.1,0-.03,0-.06,0-.1,0-.04.03-.08.08-.13.03.03.06.05.08.06.02.01.05.02.08.02.03,0,.08.02.14.05.06.03.14.1.23.2.09.1.17.21.24.34.07.12.14.24.21.33l.06-.04s0-.04,0-.07c0-.03.01-.06.03-.08-.15-.1-.25-.26-.31-.49-.09-.09-.21-.21-.37-.34-.29-.23-.46-.4-.51-.5-.01-.05,0-.11.05-.18.05-.07.06-.16.03-.26h-.06s-.03-.09-.03-.09c.02.01.04.02.04.03,0,0,.01.01.03,0v.05s.18-.1.18-.1l.12-.03v.05s-.07.07-.07.07l.15-.04.11.06h.03s.07.03.07.03l-.05.07v.11s.04-.1.02-.15l.24.06s0-.06.01-.09h-.03s.03,0,.03,0c0-.02.01-.04.05-.07.02.07.09.12.23.15l-.09.02v.03s.1-.02.1-.02l.02-.06.05-.04s-.13-.1-.25-.22c.02-.02.04-.04.08-.05v-.05s.02,0,.02,0l-.09.02v.03s-.05.04-.05.04l-.04-.02s-.04.01-.06.03c-.02.01-.03.03-.04.05,0,.02,0,.04,0,.04,0,0,0,.02-.02.05-.02-.01-.05-.02-.09-.02-.03,0-.06,0-.08,0,.03-.04.04-.09.04-.12l-.09-.09.05-.04.09-.02h.07s-.03-.09-.03-.09l-.14-.02-.09.02v.05s-.04.07-.04.07l-.04-.05s-.05-.03-.07-.04c-.02-.01-.05-.08-.08-.21h.03s0,.02,0,.02l-.02.06s.05.02.07.03c.02,0,.04.01.04.02,0,0,.01.02.04.03l.09-.02-.04-.19.12-.03s.02.02.04.02l.02.08c0-.06,0-.1,0-.11,0-.02,0-.03.02-.05.02-.01.03-.03.04-.04,0-.01.02-.03.04-.05v.05c.12.09.22.21.32.35l.05.07.09-.02s.02-.06,0-.11l-.07-.04v-.05s.11-.03.11-.03l-.02.06.08-.08c-.13-.08-.21-.19-.24-.31-.02-.09-.02-.18,0-.28h.06s.02-.05.02-.05v.03s-.03.04-.05.04c.32.08.52.31.62.7h.06s0-.04.02-.05c.02,0,.05-.02.08-.05v-.05s0-.06,0-.06c-.02,0-.05-.06-.08-.21-.03-.03-.05-.07-.06-.12-.01-.04-.03-.07-.05-.08-.12.03-.19.03-.19.02l-.04-.05s.04-.1.02-.18c-.03-.03-.05-.07-.06-.13l.12-.03.05-.04v-.03s-.04,0-.04,0v-.03s-.04,0-.04,0l.12-.06c.04.07.08.11.14.12.06.02.12.03.19.04.07.01.14.05.22.1l-.12.03-.02.03c.1.05.19.09.28.1l-.02-.08h-.03s.05-.03.05-.03l.04.05.12-.03-.02-.08.09-.05c.03.14.06.23.09.25.03.02.06.06.09.11h.06s.02-.07.02-.07c-.01-.05-.03-.08-.05-.07-.02,0-.03,0-.04-.02l-.02-.08h.06s-.04-.06-.04-.06h.06c.02.06.04.1.08.12.04.02.07.03.11.05.04.01.08.04.13.08l-.03.15c.05.04.14.08.25.1.11.02.17.05.18.08l-.05.18.15-.04v.03s.05.03.07.06c.02.02.03.06.04.1,0,.04.06.08.15.09l.21-.05v-.11s0-.03,0-.03c.02,0,.04,0,.07.04.03.03.05.05.07.07.01.02.03.03.04.03.01,0,.04.01.07.01.03,0,.08,0,.15,0l.07.16v.09s-.04,0-.05-.02c-.09-.09-.13-.16-.14-.19h-.06s.02.1.02.1c0,.09.02.15.06.17.04.02.06.05.07.08.01.05,0,.11-.02.18l.15-.04c.05.21.13.36.25.45.12.09.2.18.24.28l.14-.09.12-.03c.03.13.14.21.32.26v-.09s.08.29.08.29c.03.03.09.07.18.13s.15.14.18.27h.06c.06-.03.1-.02.1.02s.02.06.03.08c.01.02.07.04.16.07-.02.02-.03.04-.04.05,0,.01-.02.02-.02.03,0,.01-.01.03-.02.05,0,.02,0,.05,0,.08.14.04.25.17.35.37.12.31.31.48.57.52v-.03c-.08-.06-.16-.13-.24-.21-.07-.09-.12-.17-.14-.24h.06s0,.01,0,.01c.07.04.14.11.19.2.05.09.15.14.28.15l.02-.06.05-.04.07.15.02.22-.33-.04.05.21.27-.07c0-.23.2-.5.58-.82.25-.21.43-.44.54-.7l.02-.06s-.04,0-.05,0c-.01,0-.03-.03-.06-.06.02,0,.03-.02.02-.03l.11.03h.06s.03-.03.02-.05c0-.02,0-.04.02-.06v-.05s-.1.05-.1.05c0-.02-.02-.03-.04-.05s-.04-.02-.05-.03c-.01,0-.02-.02-.03-.05,0-.03-.02-.06-.05-.09,0,.02,0,.03,0,.04,0,.01-.02.02-.04.04-.02.01-.03.02-.04.02,0,0-.06.04-.15.12v.09s-.04,0-.04,0c0-.02,0-.03,0-.04s.02-.03.04-.05h-.06c.04-.07.11-.16.2-.25.09-.09.16-.18.22-.29.04,0,.06,0,.07.01h.06c.07,0,.12.04.17.07.04.04.1.07.17.09.04-.03.07-.05.11-.07.04-.02.04-.08.02-.19l.02-.03-.06-.13s-.05-.02-.07-.03c-.02,0-.04-.01-.05-.03-.02-.02-.02-.03-.03-.05l.02-.06.05-.07h.06s.08-.06.08-.06c.03.03.05.05.06.06.01,0,.03.05.04.12l.12-.03.04.05v.03s.1,0,.1,0l-.03-.11.03-.03-.09.02-.04-.02.09-.02c.08-.19.23-.41.42-.67.34-.48.59-.75.75-.83.17-.08.24-.13.23-.17s0-.06.01-.09l.27-.21c.05-.07.12-.2.2-.39l.24-.2c.32-.3.48-.52.49-.65l-.11-.03c.18-.14.31-.23.39-.26l-.03-.13s.08.01.1,0c.02,0,.04,0,.07.01l.09-.02v-.05c-.05,0-.08,0-.08-.01h.06s0-.04,0-.04l.02-.03s.01-.03.05-.04c0,.02.03.03.07.03s.08,0,.12-.02v-.05s.02,0,.02,0c-.01-.05-.01-.09,0-.11l.18-.04c-.01-.05-.02-.1-.01-.13,0-.03,0-.05.02-.07,0-.02.02-.04.05-.05s.05-.05.08-.09c.02-.04.05-.09.08-.15.03-.05.08-.09.15-.11s.12-.03.15-.05c.03-.02.05-.03.05-.05,0-.02.01-.04.02-.06,0-.02.02-.04.04-.05.02-.01.03-.03.05-.05h.03s.03-.04.04-.05c0,0,.04-.03.08-.08.04-.05.07-.1.09-.16.02-.06.12-.13.32-.22l.02.08-.15.04s.03.02.07.01l-.08.05c-.02.08-.09.18-.19.3l-.19.27-.02.06h.06c.1-.15.21-.27.33-.38.22-.17.37-.35.45-.56l-.09.02s-.04.04-.07.06c-.03.02-.07.03-.13.05l.02-.03-.02-.08c.1-.1.2-.17.29-.21.09-.04.18-.07.28-.1.1-.02.22-.07.35-.14l.04.16c-.06.03-.13.07-.23.11-.1.04-.18.09-.26.15l.18.07c-.3.09-.48.24-.54.44.09,0,.14.01.17.04.03.03.07.05.11.06.13-.09.29-.23.48-.43l1.03-1.1.52-.52.18-.04.07-.13c.09-.17.19-.29.32-.36.12-.07.36-.27.71-.59.27-.29.6-.57.96-.82l-.05.07c-.12.1-.22.25-.28.44l-.05.07h.06s.07,0,.07,0c0,.02.02.02.04.02.03-.16.23-.38.62-.66.02,0,.02-.03.01-.09l.15-.18c.16-.15.33-.35.5-.6l.09-.02s.02.02.04.02l-.3.35c-.12.22-.28.39-.49.51l.02.08-.11.08v.05s-.23.2-.23.2c-.25.29-.4.46-.42.53v.05s-.01.03,0,.09c-.17.08-.35.24-.53.49l-.34.34.03.11-.15.04s0,.04,0,.07-.02.05-.05.07c-.03.02-.04.04-.03.08-.05.05-.14.09-.26.12,0,.04,0,.06-.02.06l.02.08-.02.06.18-.04s.05-.05.11-.07c.06-.02.11-.13.15-.31l.07-.13.09-.02h.07c.25-.12.42-.3.52-.54h.06s.02,0,.04,0v.03s.04,0,.04,0c.02,0,.04-.01.06-.03.02-.01.03-.03.02-.05v-.05s.01-.03.01-.03h.06s0,.01,0,.01c.02,0,.03-.02.02-.03h.03c.15-.21.22-.34.23-.4l.13.02.12-.17h.06s.02-.08.02-.08l.04.02.12-.03s-.03-.05-.07-.04h-.07s.06-.03.06-.03l.02-.06s.08-.1.16-.15c.15-.11.21-.18.21-.21,0-.03,0-.05.01-.07l.12-.03c.1-.02.2-.1.3-.24.03-.04.07-.09.11-.14.04-.05.06-.08.06-.1l-.12.03v-.03s.08-.02.08-.02v-.03s.02,0,.02,0c.07.02.13.03.17.03.04,0,.12-.02.25-.04.02.07.08.17.2.29,0,.02.02.02.04.02l.12-.03.04.04c-.14.13-.23.28-.28.45-.04.17-.13.31-.26.42l-.09.02h-.1c-.06.09-.11.14-.14.15-.03.02-.06.04-.1.07l.22-.02.04.05c-.11.06-.19.13-.23.18-.04.06-.09.11-.14.16.02.01.04.02.05.03.01,0,.03,0,.05,0,0,.02-.01.04-.05.05-.04.02-.07.03-.09.04l-.15.04.08.07s0,.03-.02.03h-.29s.01.07.01.07h.06s.01.04.01.04l-.17.1v.03s.23,0,.23,0c.06-.01.09-.03.08-.05v-.09c.06,0,.11,0,.17,0,.06-.01.09-.01.1,0h.03s0,.05-.05.06c-.12.12-.26.23-.41.32h.1s0,.04-.02.05c-.02.01-.03.03-.04.05,0,.02-.01.04-.02.06,0,.02-.02.04-.03.06l-.09.02v-.03s.13-.12.13-.12l-.18.04c-.06.13-.14.27-.26.42-.12.15-.25.26-.4.34v-.03s.02,0,.02,0l.05-.07v-.11s-.06.01-.06.01c-.04.03-.06.05-.06.07,0,.02-.01.04-.02.05s-.01.03-.02.05c0,.02.01.12.05.3h-.07s-.21.07-.21.07l.04.3-.23-.03h-.06s-.01.1-.01.1c0,.02.02.03.04.03.02,0,.04.02.04.03l.08-.05.12-.03s.01.04.03.05c.01.02.03.03.04.03.01,0,.02.01.04.02.01,0,.03,0,.05,0,.02-.08.05-.14.08-.19l-.06-.13-.04-.16c.18-.04.35-.18.52-.41l.15-.18v-.05s-.07.01-.07.01l-.04-.05c.16-.04.27-.1.31-.17s.1-.15.17-.23l.43-.24.02.08c-.11.07-.19.14-.24.23-.04.09-.12.16-.24.23v.05s.06-.04.1-.05h.1s.01.06.01.06l-.74.57.04.05v.03s-.13.12-.13.12c-.12.12-.19.24-.2.36-.24.15-.41.29-.49.4h.03s.01.05.01.05c-.06.01-.11.04-.15.06l-.36.26s.02.02.04.02v.05s-.14.15-.14.15l-.12.03.11.06-.09.02c-.08.12-.21.22-.38.32l.02.08c.08-.02.14-.05.17-.08.03-.04.09-.08.18-.13.09-.05.16-.09.21-.12v.03s-.04.07-.04.07l.02.08c-.16.07-.27.19-.34.34l-.09.02v-.03s.05-.04.05-.04c-.04,0-.09,0-.15-.02-.06-.02-.12-.03-.18-.01l-.1.11h.03s.01.05.01.05l-.02.06c-.09.15-.22.3-.38.43v.03s.16-.04.16-.04v.05s.04,0,.04,0c-.11.07-.17.12-.16.15l.03.13c.08-.04.15-.09.22-.15.07-.06.16-.14.27-.22l-.16.27c-.05.13-.15.24-.27.35l.09.09.02.08-.09.02v.05s-.05.01-.05.01c0,.02,0,.03-.02.03v-.05s.01-.03.01-.03h.06s-.02-.09-.02-.09h-.1s0,.04-.01.07-.08.13-.19.29h.03s0,.02,0,.02h.03s-.02.03-.02.03c-.18.33-.42.63-.72.91-.21.2-.34.36-.39.48-.05.12-.1.2-.15.26-.05.06-.09.11-.12.16s-.09.11-.18.18c.01.05.01.09,0,.11-.22.05-.43.27-.62.66-.09.15-.18.28-.27.37v-.03c-.17.21-.3.4-.39.57l-.13.29s-.04,0-.05,0c-.01,0-.02-.02-.02-.04h-.03s-.13.15-.27.41c-.14.26-.39.55-.75.86-.63.53-.99.92-1.08,1.16h-.03s-.03-.1-.03-.1h-.07c-.07.06-.15.13-.24.19-.09.06-.17.14-.24.23l.12-.03s0,.03-.04.04-.05.02-.07.04c-.02.02-.03.04-.05.06-.02.01-.04.03-.05.04-.02.01-.03.04-.05.08l-.04-.05-.09.02c.01.05,0,.1-.03.14-.04.04-.08.08-.15.13-.06.05-.12.14-.18.27h.06s-.06.03-.06.03c-.02.02-.04.05-.06.07-.03.03-.05.05-.06.07-.02.02-.03.08-.05.18l.12-.03.08-.22.24-.09v.05c-.1.08-.19.17-.25.25-.07.08-.08.19-.05.34l.12-.03c.01.05.09.15.23.29.39.38.63.59.73.62l-.02.06h.06s0-.04,0-.04l.05-.04v-.03s0-.03,0-.04c0-.01.02-.03.04-.05h.03s.03.1.03.1c-.07.06-.14.16-.19.3v.03c.07,0,.17.06.3.16.35.31.55.54.58.68l.06.1s0,.08,0,.13c0,.05,0,.12.02.21.03.03.11.05.24.06v-.05s.02,0,.02,0c0,.02.02.03.04.03.02,0,.07.03.14.07l.08.32c.06.08.13.15.21.21.16.13.25.26.28.38-.09.08-.12.15-.11.22.03.14.14.26.31.35,0,.02.02.03.04.02.16.21.32.39.49.55.17.16.31.32.44.48.12.07.2.11.23.14v.17s-.06-.04-.11-.08c-.05-.04-.1-.08-.14-.11s-.07-.04-.09-.04l-.05.04c.05.04.11.08.16.12.05.04.1.09.15.15.05.06.08.15.11.26-.06.03-.09.07-.11.1s-.03.05-.05.05c-.02,0-.04,0-.06,0-.02,0-.04-.01-.06-.03s-.02-.03-.03-.05h-.03s-.05.08-.05.08v.03s-.01.06-.01.06c.15.08.32.23.52.44.2.22.33.41.37.59h.03s.04.04.04.04h-.03s-.04-.04-.04-.04l-.18.04.04-.12v-.03s-.07.01-.07.01c0,.02,0,.03-.02.03h-.03s0,.12,0,.12l.04.05v.03s-.05.01-.05.01l-.09-.09h-.06s-.02-.01-.04,0l-.02.2c-.12.03-.19.06-.21.08h-.06s.11.07.11.07v.05s-.01.05-.01.09c0,.04,0,.09-.01.15h.06s.1-.12.1-.12l.09-.02-.03-.13.05-.04c-.01-.05-.03-.08-.05-.07l-.04-.05s.03,0,.04.02h.06s.15.09.15.09c.11.09.2.22.29.38h-.06s-.04-.03-.04-.03c-.02-.01-.04-.02-.04-.03,0,0-.02-.01-.04-.02-.02,0-.04-.01-.04-.03l-.15.04s-.04-.05-.06-.1c-.04.03-.07.05-.09.08-.03.02-.05.05-.08.09-.02.03-.07.08-.15.13l.18.1.06.1c.08-.02.13-.02.16,0l.03.13h.06s-.02-.09-.02-.09l.08-.05v.03s.04,0,.04,0v.03s.04,0,.04,0v.05s-.05.01-.05.01v.05s.04,0,.04,0h-.03s.01.06.01.06c-.01.04-.04.07-.08.08-.06-.06-.11-.11-.16-.13-.05-.03-.09-.07-.13-.14l-.12.03s-.05-.05-.06-.06c-.01,0-.03,0-.05,0l-.02.04h-.06s.21.22.21.22l.09-.05s.02.03.04.02v.14c.06-.01.1-.02.13-.02.02,0,.04.03.05.06v.14s.03,0,.03,0v.03s.04,0,.04,0l.04.05-.09.02v-.05c-.19-.03-.42-.18-.7-.43-.12-.12-.22-.22-.33-.29l-.14-.02-.02.03s-.04,0-.06,0c-.02,0-.06-.02-.11-.05h.06s.02-.07.02-.07l.02-.06-.09.02c-.14.03-.23-.01-.26-.14h.06s0,.01,0,.01h.03s-.03,0-.03,0h.06s.02,0,.04,0l-.04-.05v-.03s-.07-.02-.14-.07c-.07-.05-.14-.07-.23-.07,0,.04.02.06.05.06s.04.01.06.03c.01.02.03.03.06.04l-.15.04h.07s-.02.07-.02.07h.07s.05.08.05.08h.06s-.02.02-.02.02c.1.07.2.14.3.23s.2.16.33.22c-.02.02-.04.05-.06.07-.03.03-.04.04-.04.05,0,0,0,.02,0,.04,0,.02.04.02.1,0v-.03s.05-.01.05-.01l.12.09c.14.14.22.21.25.22l.04.02h.06s.04.03.04.03l-.02.03s.02.02.04.02c.02,0,.03,0,.04.02h.03s-.02.03-.02.03c.03.11.03.22.02.34,0,.02.01.03.02.04.01,0,.04,0,.08,0s.07.01.08.07l-.12.05s-.08-.07-.14-.05c0-.04,0-.05.02-.06v-.05s-.02-.03-.02-.03c-.03-.01-.05-.02-.07-.01l-.15.04s-.02.07-.03.09c0,.02-.02.04-.05.05-.03.02-.06.04-.1.07l-.11-.06.03.11.08.07-.09.02-.13.12c-.14-.15-.32-.29-.53-.41-.21-.12-.4-.3-.57-.54h-.03s.01.06.01.06h-.03s-.01.1-.01.1l.05-.04s.04.05.07.15h-.03s-.02-.05-.05-.05c-.02,0-.05-.01-.07-.03h-.03s.03.28.03.28c.04,0,.06-.03.05-.07l.03-.03h.06s0,.05-.04.08v.03s-.04.04-.08.05c0-.02-.02-.02-.04-.02l.02.08h.03s0,.02,0,.02h-.03c-.08.04-.12.08-.14.1h-.06s-.11-.04-.18-.06c-.07-.02-.13-.05-.18-.1-.01.04-.02.07-.01.08,0,0,0,.02,0,.04s-.01.03-.02.03c-.01,0-.02.02-.04.04-.06-.06-.12-.11-.19-.14-.07-.03-.17-.04-.3-.03,0,.02.02.02.04.02v.05c.15.02.25.08.31.16l-.12.03s-.06-.02-.1,0h-.06c-.35-.09-.56-.3-.64-.63h.07s0,.04,0,.04h.03s-.22-.26-.22-.26h-.03s0,.12,0,.12c.02.01.06.01.1,0v.03s.05.05.05.05h-.06s0-.01,0-.01c-.2-.03-.35-.1-.44-.23-.1-.13-.18-.21-.25-.25-.06.01-.1.02-.12.02-.02,0-.05-.02-.08-.05.04,0,.07,0,.1,0l.02-.06c-.11-.03-.2-.08-.26-.15-.06-.07-.12-.15-.19-.24-.07-.09-.14-.18-.23-.27-.67-.54-1.31-1.09-1.94-1.64.02,0,.03-.02.02-.03h.06s0-.04,0-.04l-.09.05h-.06s-.04,0-.04,0h.03s-.01-.06-.01-.06c.04,0,.07-.03.08-.05l.05-.04c-.3-.08-.56-.3-.77-.67-.04.03-.06.05-.06.07,0,.02-.02.03-.04.04-.02,0-.04,0-.05,0-.01,0-.03-.02-.06-.03l-.09.02.04-.12.13.03v-.11c-.06-.02-.12-.06-.16-.1-.04-.05-.08-.08-.1-.09-.02,0-.03.02-.02.03h-.03s0,.03,0,.03c-.13.09-.22.19-.27.3-.05.12-.15.23-.29.34l-.04-.04s.02-.04.06-.07c.05-.03.14-.15.29-.35l.16-.29v-.03c-.07-.08-.15-.11-.25-.09-.05.05-.08.09-.09.11,0,.02-.05.07-.14.15l-.02-.08.11-.08.04-.1-.12.05c-.05.07-.12.15-.2.23-.09.09-.16.19-.21.32l.09-.02c.04-.1.11-.19.2-.25.02-.02.04-.04.08-.05l-.05.04c-.36.67-.85,1.3-1.49,1.88-.03.05-.05.09-.06.14,0,.05-.03.09-.07.12l.04.05v.03s-.08.07-.1.11c-.01.04-.03.08-.05.13-.02.04-.04.09-.04.15l-.12.03.02-.03s.02-.04.02-.06l-.05-.07c.01.05-.04.11-.15.18l.05.07s.02.13-.04.24h.06c.07-.18.24-.36.51-.56v.05c-.32.31-.57.59-.72.85l-.13-.02s-.03.02-.02.03c-.13.09-.22.17-.28.25-.06.08-.11.14-.15.19-.04.05-.11.1-.2.16v-.05s.01-.03.01-.03c.15-.09.3-.24.46-.44.16-.2.25-.37.28-.51l-.16.12h-.03c-.07.08-.12.16-.14.24s-.14.18-.35.31l-.06.27h-.03s-.01-.05-.01-.05c-.02,0-.03,0-.04-.02v.14s.02.08.02.08h.03s.01.05.01.05l-.09.02.05-.07v-.03c-.06.03-.11.07-.14.1-.04.04-.07.07-.11.1l.05.1.03.11c-.05.05-.1.1-.14.16-.04.06-.1.11-.17.17l-.03-.11-.07-.04-.09.02s-.01.03-.05.04l.04.19s-.05-.02-.07-.03c-.02,0-.04-.01-.04-.03.02.07.03.12.05.13.01.02.03.03.06.04.06-.09.13-.16.21-.22v.03c-.06.07-.11.14-.14.21-.03.06-.08.12-.14.16-.07.04-.13.08-.2.1-.07.03-.12.05-.16.08h-.03s.02.07.03.08c.01.02.03.02.05.02l.04.02v.03s-.05.05-.06.07c0,.02,0,.04,0,.06,0,.02,0,.03-.02.03l-.09-.12s-.03.04-.04.05c0,.01-.02.02-.03.03,0,.01,0,.04,0,.08s0,.09,0,.13l-.09.02c-.06.01-.08.08-.05.18l.04.02v.09s-.13.03-.13.03c.03-.06.03-.13.02-.2h-.06s.02.1.02.1l-.04.09s.02.02.04.02c.02.07,0,.12-.03.15-.04.03-.08.05-.14.08s-.11.05-.14.08c0,.04-.04.12-.13.26v-.03s0,.04,0,.06c0,.02-.1.13-.29.32l-.27.35s.02.02.04.02v.03s-.01.06-.01.06c-.05.16-.09.28-.14.35-.05.07-.12.13-.21.19-.09.06-.14.11-.14.16,0,.05,0,.09,0,.14,0,.05-.1.15-.3.31-.1.12-.15.18-.16.2,0,.01,0,.03,0,.04l.09-.02v.05c-.07.1-.17.25-.29.47-.12.22-.22.39-.29.52v.03s-.23-.06-.23-.06c.12-.14.2-.28.24-.41.04-.13.12-.25.22-.35l.04.02v.05s.11,0,.11,0c0-.04,0-.06,0-.07,0-.01.02-.03.04-.05v-.05s.02-.02.01-.03h-.07s-.04-.06-.04-.06c.17-.11.27-.24.3-.38,0-.04,0-.06.01-.09l-.02-.08s.08-.08.14-.1c.06-.02.11-.06.15-.11.04-.05.06-.08.06-.1l-.06-.1h.03s0-.03,0-.03l.05-.04v-.03s-.03.04-.03.04v-.05s-.04,0-.04,0l-.2.36c-.06.11-.12.21-.17.3-.05.09-.1.15-.14.17h-.03s-.07.02-.1,0h-.06s-.02.06-.02.09c0,.03,0,.06,0,.1,0,.04-.02.08-.05.13l-.18.04c0,.06-.01.11-.01.16,0,.05,0,.08-.03.09-.02.01-.07.04-.14.08l.02-.06h-.03c-.04.21-.16.43-.37.69-.21.26-.34.5-.39.74-.08.02-.12.04-.13.07,0,.03-.01.06-.02.11l.03.11-.18.04v-.03c.09-.12.2-.35.31-.7h-.07s.01.04.01.04c-.07.07-.13.17-.17.3-.05.12-.12.23-.23.31v.05s-.02,0-.02,0l-.03-.11h-.03s0,.03,0,.03h.03s-.05.03-.05.03l-.02.06s.1.02.16.05c.06.02.12.04.19.04l-.13.12-.02.06h-.03s.03.14.03.14h.03s.05.07.05.07h-.06s-.04,0-.06-.02c-.01,0-.02-.01-.04-.02-.01,0-.03-.05-.05-.14l.09-.02s.02-.06,0-.11l-.15.04s-.04.11-.1.21c-.05.1-.07.17-.06.23l-.09.02v-.03s.08-.02.08-.02c-.01-.05-.01-.1,0-.13.01-.03.02-.06.01-.07,0-.02-.03-.04-.08-.07v.05s-.06.1-.11.16c-.05.06-.09.12-.12.18.07.02.12.06.15.11l.06.27-.28.07c0,.19-.05.36-.17.52l-.02.06s-.07-.02-.07-.04l-.09.02-.11.08s0-.06.03-.08c.03-.02.05-.03.05-.04,0-.01.02-.03.04-.05h-.13s-.04-.04-.04-.04l.02-.06v-.03s-.28.09-.28.09l.02-.06h-.07s-.05.07-.07.1c-.01.03-.03.06-.06.1s-.07.07-.15.11l-.04-.05h-.06s.02.1.02.1c0,.04-.02.1-.08.19l-.02-.08h-.06s0,.13,0,.13l.12-.03s-.03.04-.05.05c-.02.01-.05.03-.1.05-.05.02-.14.07-.27.14,0-.02,0-.03,0-.04s.03-.04.06-.08l.05-.04v-.03s-.05-.02-.06-.02c-.01,0-.08,0-.21,0,.02-.12.05-.22.09-.29.05-.08.07-.15.08-.2l-.12.03s-.06.12-.19.3c-.02.02-.04.04-.09.05-.04,0-.08.03-.12.06-.03.14-.1.27-.21.4-.11.13-.17.28-.2.46l-.12.03c0,.17-.12.3-.36.4l.03.11Z"/>
  <g>
    <path class="cls-13" d="M138.5,141.89l-.48.24,1.54,3.07-.96.48-3.6-7.17,3.83-1.92.26.51.48-.24.26.51.48-.24,1.03,2.05-.48.24.26.51-.48.24.26.51-.96.48.26.51.48-.24.26.51.48-.24.26.51.48-.24.26.51.48-.24.51,1.03-.96.48-.26-.51-.48.24-.26-.51-.48.24-.26-.51-.48.24-.26-.51-.48.24-.26-.51-.48.24-.26-.51ZM136.47,139.05l1.03,2.05,2.39-1.2-.26-.51.48-.24-.51-1.03-.48.24-.26-.51-2.39,1.2Z"/>
    <path class="cls-13" d="M145.53,133.22l.51,1.02-3.83,1.92,1.03,2.05,2.87-1.44.51,1.03-2.87,1.44,1.03,2.05,3.83-1.92.51,1.03-4.79,2.4-3.6-7.17,4.79-2.4Z"/>
    <path class="cls-13" d="M148.92,132.81l-1.92.96-.51-1.02,4.79-2.4.51,1.02-1.92.96,3.08,6.15-.96.48-3.08-6.15Z"/>
    <path class="cls-13" d="M155.73,133.24l-.48.24,1.54,3.07-.96.48-3.6-7.17,3.83-1.92.26.51.48-.24.26.51.48-.24,1.03,2.05-.48.24.26.51-.48.24.26.51-.96.48.26.51.48-.24.26.51.48-.24.26.51.48-.24.26.51.48-.24.51,1.03-.96.48-.26-.51-.48.24-.26-.51-.48.24-.26-.51-.48.24-.26-.51-.48.24-.26-.51-.48.24-.26-.51ZM153.71,130.41l1.03,2.05,2.39-1.2-.26-.51.48-.24-.51-1.03-.48.24-.26-.51-2.39,1.2Z"/>
    <path class="cls-13" d="M159.2,127.01l-.26-.51,2.87-1.44.26.51.48-.24.26.51.48-.24,2.57,5.12-.48.24.26.51-.48.24.26.51-2.87,1.44-.26-.51-.48.24-.26-.51-.48.24-2.57-5.12.48-.24-.26-.51.48-.24ZM161.85,126.33l-1.91.96.26.51-.48.24,2.06,4.1.48-.24.26.51,1.92-.96-.26-.51.48-.24-2.06-4.1-.48.24-.26-.51Z"/>
    <path class="cls-13" d="M167.32,131.27l-3.6-7.17,3.83-1.92.26.51.48-.24.26.51.48-.24,1.03,2.05-.48.24.51,1.03.48-.24,1.03,2.05-.48.24.26.51-.48.24.26.51-3.83,1.92ZM166.22,126.69l2.39-1.2-.26-.51.48-.24-.51-1.03-.48.24-.26-.51-2.39,1.2,1.03,2.05ZM167.77,129.77l2.39-1.2-.26-.51.48-.24-.51-1.03-.48.24-.26-.51-2.39,1.2,1.03,2.05Z"/>
    <path class="cls-13" d="M170.68,121.25l-.26-.51,2.87-1.44.26.51.48-.24.26.51.48-.24,2.57,5.12-.48.24.26.51-.48.24.26.51-2.87,1.44-.26-.51-.48.24-.26-.51-.48.24-2.57-5.12.48-.24-.26-.51.48-.24ZM173.33,120.56l-1.92.96.26.51-.48.24,2.06,4.1.48-.24.26.51,1.92-.96-.26-.51.48-.24-2.06-4.1-.48.24-.26-.51Z"/>
    <path class="cls-13" d="M181.68,124.07l-.96.48-1.29-2.56-.48.24-.26-.51-.48.24-.26-.51-.48.24-.26-.51-.48.24-1.54-3.07.96-.48,1.29,2.56.48-.24.26.51.48-.24.26.51.96-.48-.26-.51.48-.24-.26-.51.48-.24-1.29-2.56.96-.48,1.54,3.07-.48.24.26.51-.48.24.26.51-.48.24.26.51-.48.24,1.29,2.56Z"/>
  </g>
  <circle class="cls-23" cx="152.89" cy="165.18" r="11.83"/>
  <circle class="cls-23" cx="176.77" cy="154.52" r="11.83"/>
  <path class="cls-6" d="M152.71,181.47c-8.99,0-16.3-7.31-16.3-16.3s7.31-16.3,16.3-16.3c2.88,0,5.68.77,8.13,2.18,1.59-7.33,8.13-12.83,15.93-12.83,8.99,0,16.3,7.31,16.3,16.3s-7.31,16.3-16.3,16.3c-2.88,0-5.68-.77-8.13-2.18-1.59,7.33-8.13,12.83-15.93,12.83Z"/>
  <g>
    <path class="cls-1" d="M125.31,155.76s-.06-6.47-.04-8.42c-.03-2.05-1.04-2.8-3.12-2.83-1.02.01-10.04.02-11.25,0s-1.93-.02-2.42.48-7.25,7.32-8.03,8.11c-1.27,1.39-1.45,1.69-1.43,2.59v-.02c-.02.89.16,1.19,1.43,2.59.78.79,7.55,7.61,8.03,8.11s1.21.5,2.42.48,10.23,0,11.25,0c2.08-.03,3.1-.78,3.12-2.83-.02-1.95.04-8.42.04-8.42"/>
    <path class="cls-1" d="M94.97,126.13s-6.47.06-8.42.04c-2.05.03-2.8,1.04-2.83,3.12.01,1.02.02,10.04,0,11.25s-.02,1.93.48,2.42,7.32,7.25,8.11,8.03c1.39,1.27,1.69,1.45,2.59,1.43h-.02c.89.02,1.19-.16,2.59-1.43.79-.78,7.61-7.55,8.11-8.03s.5-1.21.48-2.42,0-10.23,0-11.25c-.03-2.08-.78-3.1-2.83-3.12-1.95.02-8.42-.04-8.42-.04"/>
    <path class="cls-1" d="M64.59,155.58s.06,6.47.04,8.42c.03,2.05,1.04,2.8,3.12,2.83,1.02-.01,10.04-.02,11.25,0s1.93.02,2.42-.48,7.25-7.32,8.03-8.11c1.27-1.39,1.45-1.69,1.43-2.59v.02c.02-.89-.16-1.19-1.43-2.59-.78-.79-7.55-7.61-8.03-8.11s-1.21-.5-2.42-.48-10.23,0-11.25,0c-2.08.03-3.1.78-3.12,2.83.02,1.95-.04,8.42-.04,8.42"/>
    <path class="cls-1" d="M94.8,184.6s6.47-.06,8.42-.04c2.05-.03,2.8-1.04,2.83-3.12-.01-1.02-.02-10.04,0-11.25s.02-1.93-.48-2.42-7.32-7.25-8.11-8.03c-1.39-1.27-1.69-1.45-2.59-1.43h.02c-.89-.02-1.19.16-2.59,1.43-.79.78-7.61,7.55-8.11,8.03s-.5,1.21-.48,2.42,0,10.23,0,11.25c.03,2.08.78,3.1,2.83,3.12,1.95-.02,8.42.04,8.42.04"/>
  </g>
  <path class="cls-6" d="M86.5,188.61c-4,0-7.26-3.26-7.26-7.26v-10.03h-11.37c-4,0-7.26-3.26-7.26-7.26v-16.78c0-4,3.26-7.26,7.26-7.26h11.37v-10.63c0-4,3.26-7.26,7.26-7.26h16.78c4,0,7.26,3.26,7.26,7.26v10.63h11.49c4,0,7.26,3.26,7.26,7.26v16.78c0,4-3.26,7.26-7.26,7.26h-11.49v10.03c0,4-3.26,7.26-7.26,7.26h-16.78Z"/>
  <rect class="cls-26" x="169.33" y="215.28" width="9.69" height="4.02" transform="translate(-102.63 186.8) rotate(-45)"/>
  <g>
    <rect class="cls-24" x="162.85" y="192.35" width=".31" height="1.31" rx=".12" ry=".12" transform="translate(141.79 444.74) rotate(-135)"/>
    <rect class="cls-24" x="163.78" y="193.28" width=".31" height="1.31" rx=".12" ry=".12" transform="translate(142.71 446.98) rotate(-135)"/>
    <rect class="cls-24" x="164.7" y="194.2" width=".31" height="1.31" rx=".12" ry=".12" transform="translate(143.64 449.22) rotate(-135)"/>
    <rect class="cls-24" x="165.63" y="195.13" width=".31" height="1.31" rx=".12" ry=".12" transform="translate(144.57 451.45) rotate(-135)"/>
    <rect class="cls-24" x="166.56" y="196.06" width=".31" height="1.31" rx=".12" ry=".12" transform="translate(145.5 453.69) rotate(-135)"/>
    <rect class="cls-24" x="167.48" y="196.98" width=".31" height="1.31" rx=".12" ry=".12" transform="translate(146.42 455.93) rotate(-135)"/>
    <rect class="cls-24" x="168.41" y="197.91" width=".31" height="1.31" rx=".12" ry=".12" transform="translate(147.35 458.17) rotate(-135)"/>
    <rect class="cls-24" x="169.34" y="198.84" width=".31" height="1.31" rx=".12" ry=".12" transform="translate(148.28 460.41) rotate(-135)"/>
    <rect class="cls-24" x="170.27" y="199.77" width=".31" height="1.31" rx=".12" ry=".12" transform="translate(149.21 462.64) rotate(-135)"/>
    <rect class="cls-24" x="171.19" y="200.69" width=".31" height="1.31" rx=".12" ry=".12" transform="translate(150.13 464.88) rotate(-135)"/>
    <rect class="cls-24" x="172.12" y="201.62" width=".31" height="1.31" rx=".12" ry=".12" transform="translate(151.06 467.12) rotate(-135)"/>
    <rect class="cls-24" x="173.05" y="202.55" width=".31" height="1.31" rx=".12" ry=".12" transform="translate(151.99 469.36) rotate(-135)"/>
  </g>
  <g>
    <rect class="cls-24" x="149.47" y="205.73" width=".31" height="1.31" rx=".12" ry=".12" transform="translate(109.48 458.12) rotate(-135)"/>
    <rect class="cls-24" x="150.39" y="206.66" width=".31" height="1.31" rx=".12" ry=".12" transform="translate(110.41 460.36) rotate(-135)"/>
    <rect class="cls-24" x="151.32" y="207.59" width=".31" height="1.31" rx=".12" ry=".12" transform="translate(111.34 462.6) rotate(-135)"/>
    <rect class="cls-24" x="152.25" y="208.51" width=".31" height="1.31" rx=".12" ry=".12" transform="translate(112.26 464.84) rotate(-135)"/>
    <rect class="cls-24" x="153.17" y="209.44" width=".31" height="1.31" rx=".12" ry=".12" transform="translate(113.19 467.07) rotate(-135)"/>
    <rect class="cls-24" x="154.1" y="210.37" width=".31" height="1.31" rx=".12" ry=".12" transform="translate(114.12 469.31) rotate(-135)"/>
    <rect class="cls-24" x="155.03" y="211.29" width=".31" height="1.31" rx=".12" ry=".12" transform="translate(115.04 471.55) rotate(-135)"/>
    <rect class="cls-24" x="155.96" y="212.22" width=".31" height="1.31" rx=".12" ry=".12" transform="translate(115.97 473.79) rotate(-135)"/>
    <rect class="cls-24" x="156.88" y="213.15" width=".31" height="1.31" rx=".12" ry=".12" transform="translate(116.9 476.03) rotate(-135)"/>
    <rect class="cls-24" x="157.81" y="214.07" width=".31" height="1.31" rx=".12" ry=".12" transform="translate(117.82 478.26) rotate(-135)"/>
    <rect class="cls-24" x="158.74" y="215" width=".31" height="1.31" rx=".12" ry=".12" transform="translate(118.75 480.5) rotate(-135)"/>
    <rect class="cls-24" x="159.66" y="215.93" width=".31" height="1.31" rx=".12" ry=".12" transform="translate(119.68 482.74) rotate(-135)"/>
  </g>
  <g>
    <rect class="cls-24" x="159.79" y="192.2" width=".31" height="1.31" rx=".12" ry=".12" transform="translate(-89.52 169.58) rotate(-45)"/>
    <rect class="cls-24" x="158.86" y="193.12" width=".31" height="1.31" rx=".12" ry=".12" transform="translate(-90.45 169.2) rotate(-45)"/>
    <rect class="cls-24" x="157.93" y="194.05" width=".31" height="1.31" rx=".12" ry=".12" transform="translate(-91.38 168.81) rotate(-45)"/>
    <rect class="cls-24" x="157.01" y="194.98" width=".31" height="1.31" rx=".12" ry=".12" transform="translate(-92.3 168.43) rotate(-45)"/>
    <rect class="cls-24" x="156.08" y="195.9" width=".31" height="1.31" rx=".12" ry=".12" transform="translate(-93.23 168.04) rotate(-45)"/>
    <rect class="cls-24" x="155.15" y="196.83" width=".31" height="1.31" rx=".12" ry=".12" transform="translate(-94.16 167.66) rotate(-45)"/>
    <rect class="cls-24" x="154.22" y="197.76" width=".31" height="1.31" rx=".12" ry=".12" transform="translate(-95.08 167.27) rotate(-45)"/>
    <rect class="cls-24" x="153.3" y="198.68" width=".31" height="1.31" rx=".12" ry=".12" transform="translate(-96.01 166.89) rotate(-45)"/>
    <rect class="cls-24" x="152.37" y="199.61" width=".31" height="1.31" rx=".12" ry=".12" transform="translate(-96.94 166.51) rotate(-45)"/>
    <rect class="cls-24" x="151.44" y="200.54" width=".31" height="1.31" rx=".12" ry=".12" transform="translate(-97.86 166.12) rotate(-45)"/>
    <rect class="cls-24" x="150.52" y="201.47" width=".31" height="1.31" rx=".12" ry=".12" transform="translate(-98.79 165.74) rotate(-45)"/>
    <rect class="cls-24" x="149.59" y="202.39" width=".31" height="1.31" rx=".12" ry=".12" transform="translate(-99.72 165.35) rotate(-45)"/>
  </g>
  <g>
    <rect class="cls-24" x="173.01" y="205.72" width=".31" height="1.31" rx=".12" ry=".12" transform="translate(-95.21 182.89) rotate(-45)"/>
    <rect class="cls-24" x="172.08" y="206.65" width=".31" height="1.31" rx=".12" ry=".12" transform="translate(-96.14 182.51) rotate(-45)"/>
    <rect class="cls-24" x="171.15" y="207.58" width=".31" height="1.31" rx=".12" ry=".12" transform="translate(-97.07 182.12) rotate(-45)"/>
    <rect class="cls-24" x="170.23" y="208.5" width=".31" height="1.31" rx=".12" ry=".12" transform="translate(-97.99 181.74) rotate(-45)"/>
    <rect class="cls-24" x="169.3" y="209.43" width=".31" height="1.31" rx=".12" ry=".12" transform="translate(-98.92 181.36) rotate(-45)"/>
    <rect class="cls-24" x="168.37" y="210.36" width=".31" height="1.31" rx=".12" ry=".12" transform="translate(-99.85 180.97) rotate(-45)"/>
    <rect class="cls-24" x="167.45" y="211.28" width=".31" height="1.31" rx=".12" ry=".12" transform="translate(-100.78 180.59) rotate(-45)"/>
    <rect class="cls-24" x="166.52" y="212.21" width=".31" height="1.31" rx=".12" ry=".12" transform="translate(-101.7 180.2) rotate(-45)"/>
    <rect class="cls-24" x="165.59" y="213.14" width=".31" height="1.31" rx=".12" ry=".12" transform="translate(-102.63 179.82) rotate(-45)"/>
    <rect class="cls-24" x="164.66" y="214.06" width=".31" height="1.31" rx=".12" ry=".12" transform="translate(-103.56 179.44) rotate(-45)"/>
    <rect class="cls-24" x="163.74" y="214.99" width=".31" height="1.31" rx=".12" ry=".12" transform="translate(-104.48 179.05) rotate(-45)"/>
    <rect class="cls-24" x="162.81" y="215.92" width=".31" height="1.31" rx=".12" ry=".12" transform="translate(-105.41 178.67) rotate(-45)"/>
  </g>
  <rect class="cls-20" x="152" y="195.43" width="18.78" height="18.78" rx="1.29" ry="1.29" transform="translate(-97.56 174.11) rotate(-45)"/>
  <g>
    <rect class="cls-26" x="104.73" y="110.17" width="7.81" height="2.16" rx=".85" ry=".85"/>
    <rect class="cls-9" x="106.16" y="110.28" width="4.95" height="1.92" rx=".76" ry=".76"/>
    <rect class="cls-14" x="107.85" y="110.17" width="1.56" height="2.16"/>
  </g>
  <g>
    <rect class="cls-26" x="114.35" y="110.17" width="7.81" height="2.16" rx=".85" ry=".85"/>
    <rect class="cls-9" x="115.78" y="110.28" width="4.95" height="1.92" rx=".76" ry=".76"/>
    <rect class="cls-14" x="117.47" y="110.17" width="1.56" height="2.16"/>
  </g>
  <g>
    <rect class="cls-26" x="143.21" y="110.17" width="7.81" height="2.16" rx=".85" ry=".85"/>
    <rect class="cls-9" x="144.64" y="110.28" width="4.95" height="1.92" rx=".76" ry=".76"/>
    <rect class="cls-14" x="146.33" y="110.17" width="1.56" height="2.16"/>
  </g>
  <g>
    <rect class="cls-26" x="133.59" y="110.17" width="7.81" height="2.16" rx=".85" ry=".85"/>
    <rect class="cls-9" x="135.02" y="110.28" width="4.95" height="1.92" rx=".76" ry=".76"/>
    <rect class="cls-14" x="136.71" y="110.17" width="1.56" height="2.16"/>
  </g>
  <g>
    <rect class="cls-26" x="123.97" y="110.17" width="7.81" height="2.16" rx=".85" ry=".85"/>
    <rect class="cls-9" x="125.4" y="110.28" width="4.95" height="1.92" rx=".76" ry=".76"/>
    <rect class="cls-27" x="127.09" y="110.17" width="1.56" height="2.16"/>
  </g>
  <g>
    <rect class="cls-26" x="181.41" y="44.3" width="7.81" height="2.16" rx=".85" ry=".85"/>
    <rect class="cls-9" x="182.84" y="44.42" width="4.95" height="1.92" rx=".76" ry=".76"/>
    <rect class="cls-27" x="184.53" y="44.3" width="1.56" height="2.16"/>
  </g>
  <g>
    <rect class="cls-26" x="181.41" y="49.82" width="7.81" height="2.16" rx=".85" ry=".85"/>
    <rect class="cls-9" x="182.84" y="49.94" width="4.95" height="1.92" rx=".76" ry=".76"/>
    <rect class="cls-27" x="184.53" y="49.82" width="1.56" height="2.16"/>
  </g>
  <g>
    <rect class="cls-26" x="181.41" y="55.35" width="7.81" height="2.16" rx=".85" ry=".85"/>
    <rect class="cls-9" x="182.84" y="55.47" width="4.95" height="1.92" rx=".76" ry=".76"/>
    <rect class="cls-27" x="184.53" y="55.35" width="1.56" height="2.16"/>
  </g>
  <g>
    <rect class="cls-26" x="65.94" y="92.44" width="7.81" height="2.16" rx=".85" ry=".85"/>
    <rect class="cls-9" x="67.37" y="92.56" width="4.95" height="1.92" rx=".76" ry=".76"/>
    <rect class="cls-14" x="69.06" y="92.44" width="1.56" height="2.16"/>
  </g>
  <g>
    <rect class="cls-26" x="65.94" y="69.22" width="7.81" height="2.16" rx=".85" ry=".85"/>
    <rect class="cls-9" x="67.37" y="69.34" width="4.95" height="1.92" rx=".76" ry=".76"/>
    <rect class="cls-14" x="69.06" y="69.22" width="1.56" height="2.16"/>
  </g>
  <g>
    <rect class="cls-26" x="65.94" y="40.41" width="7.81" height="2.16" rx=".85" ry=".85"/>
    <rect class="cls-9" x="67.37" y="40.53" width="4.95" height="1.92" rx=".76" ry=".76"/>
    <rect class="cls-27" x="69.06" y="40.41" width="1.56" height="2.16"/>
  </g>
  <g>
    <rect class="cls-26" x="65.94" y="45.94" width="7.81" height="2.16" rx=".85" ry=".85"/>
    <rect class="cls-9" x="67.37" y="46.05" width="4.95" height="1.92" rx=".76" ry=".76"/>
    <rect class="cls-27" x="69.06" y="45.94" width="1.56" height="2.16"/>
  </g>
  <g>
    <rect class="cls-26" x="65.94" y="51.46" width="7.81" height="2.16" rx=".85" ry=".85"/>
    <rect class="cls-9" x="67.37" y="51.58" width="4.95" height="1.92" rx=".76" ry=".76"/>
    <rect class="cls-27" x="69.06" y="51.46" width="1.56" height="2.16"/>
  </g>
  <g>
    <rect class="cls-26" x="65.94" y="86.98" width="7.81" height="2.16" rx=".85" ry=".85"/>
    <rect class="cls-9" x="67.37" y="87.1" width="4.95" height="1.92" rx=".76" ry=".76"/>
    <rect class="cls-27" x="69.06" y="86.98" width="1.56" height="2.16"/>
  </g>
  <g>
    <rect class="cls-26" x="85.28" y="210.14" width="7.81" height="2.16" rx=".85" ry=".85" transform="translate(-122.03 300.41) rotate(-90)"/>
    <rect class="cls-9" x="86.72" y="210.26" width="4.95" height="1.92" rx=".76" ry=".76" transform="translate(-122.03 300.41) rotate(-90)"/>
    <rect class="cls-27" x="88.41" y="210.14" width="1.56" height="2.16" transform="translate(-122.03 300.41) rotate(-90)"/>
  </g>
  <g>
    <rect class="cls-26" x="90.71" y="210.14" width="7.81" height="2.16" rx=".85" ry=".85" transform="translate(-116.6 305.84) rotate(-90)"/>
    <rect class="cls-9" x="92.14" y="210.26" width="4.95" height="1.92" rx=".76" ry=".76" transform="translate(-116.6 305.84) rotate(-90)"/>
    <rect class="cls-27" x="93.84" y="210.14" width="1.56" height="2.16" transform="translate(-116.6 305.84) rotate(-90)"/>
  </g>
  <g>
    <rect class="cls-26" x="96.14" y="210.14" width="7.81" height="2.16" rx=".85" ry=".85" transform="translate(-111.18 311.27) rotate(-90)"/>
    <rect class="cls-9" x="97.57" y="210.26" width="4.95" height="1.92" rx=".76" ry=".76" transform="translate(-111.17 311.27) rotate(-90)"/>
    <rect class="cls-27" x="99.26" y="210.14" width="1.56" height="2.16" transform="translate(-111.18 311.27) rotate(-90)"/>
  </g>
  <g>
    <rect class="cls-26" x="101.57" y="210.14" width="7.81" height="2.16" rx=".85" ry=".85" transform="translate(-105.75 316.69) rotate(-90)"/>
    <rect class="cls-9" x="103" y="210.26" width="4.95" height="1.92" rx=".76" ry=".76" transform="translate(-105.75 316.69) rotate(-90)"/>
    <rect class="cls-27" x="104.69" y="210.14" width="1.56" height="2.16" transform="translate(-105.75 316.69) rotate(-90)"/>
  </g>
  <g>
    <rect class="cls-26" x="170.27" y="190.95" width="7.81" height="2.16" rx=".85" ry=".85" transform="translate(161.54 450.98) rotate(-135)"/>
    <rect class="cls-9" x="171.7" y="191.07" width="4.95" height="1.92" rx=".76" ry=".76" transform="translate(161.54 450.98) rotate(-135)"/>
    <rect class="cls-27" x="173.39" y="190.95" width="1.56" height="2.16" transform="translate(161.54 450.98) rotate(-135)"/>
  </g>
  <g>
    <rect class="cls-26" x="157.04" y="221.76" width="7.81" height="2.16" rx=".85" ry=".85"/>
    <rect class="cls-9" x="158.47" y="221.88" width="4.95" height="1.92" rx=".76" ry=".76"/>
    <rect class="cls-27" x="160.16" y="221.76" width="1.56" height="2.16"/>
  </g>
  <g>
    <rect class="cls-26" x="120.78" y="211.79" width="7.81" height="2.16" rx=".85" ry=".85" transform="translate(-88.19 337.56) rotate(-90)"/>
    <rect class="cls-9" x="122.21" y="211.91" width="4.95" height="1.92" rx=".76" ry=".76" transform="translate(-88.19 337.56) rotate(-90)"/>
    <rect class="cls-27" x="123.9" y="211.79" width="1.56" height="2.16" transform="translate(-88.19 337.56) rotate(-90)"/>
  </g>
  <g>
    <rect class="cls-26" x="126.42" y="211.79" width="7.81" height="2.16" rx=".85" ry=".85" transform="translate(-82.54 343.2) rotate(-90)"/>
    <rect class="cls-9" x="127.86" y="211.91" width="4.95" height="1.92" rx=".76" ry=".76" transform="translate(-82.54 343.2) rotate(-90)"/>
    <rect class="cls-27" x="129.55" y="211.79" width="1.56" height="2.16" transform="translate(-82.54 343.2) rotate(-90)"/>
  </g>
  <g>
    <rect class="cls-26" x="157.48" y="185.22" width="7.81" height="2.16" rx=".85" ry=".85"/>
    <rect class="cls-9" x="158.92" y="185.34" width="4.95" height="1.92" rx=".76" ry=".76"/>
    <rect class="cls-14" x="160.61" y="185.22" width="1.56" height="2.16"/>
  </g>
  <g>
    <rect class="cls-26" x="144.62" y="190.87" width="7.81" height="2.16" rx=".85" ry=".85" transform="translate(-92.23 161.25) rotate(-45)"/>
    <rect class="cls-9" x="146.06" y="190.99" width="4.95" height="1.92" rx=".76" ry=".76" transform="translate(-92.23 161.25) rotate(-45)"/>
    <rect class="cls-14" x="147.75" y="190.87" width="1.56" height="2.16" transform="translate(-92.23 161.25) rotate(-45)"/>
  </g>
  <g>
    <rect class="cls-26" x="139.11" y="203.27" width="7.81" height="2.16" rx=".85" ry=".85" transform="translate(-61.34 347.36) rotate(-90)"/>
    <rect class="cls-9" x="140.54" y="203.39" width="4.95" height="1.92" rx=".76" ry=".76" transform="translate(-61.33 347.36) rotate(-90)"/>
    <rect class="cls-14" x="142.23" y="203.27" width="1.56" height="2.16" transform="translate(-61.34 347.36) rotate(-90)"/>
  </g>
  <g>
    <rect class="cls-26" x="143.91" y="215.84" width="7.81" height="2.16" rx=".85" ry=".85" transform="translate(98.95 474.82) rotate(-135)"/>
    <rect class="cls-9" x="145.34" y="215.96" width="4.95" height="1.92" rx=".76" ry=".76" transform="translate(98.95 474.82) rotate(-135)"/>
    <rect class="cls-14" x="147.03" y="215.84" width="1.56" height="2.16" transform="translate(98.95 474.82) rotate(-135)"/>
  </g>
  <g>
    <rect class="cls-26" x="182.56" y="72.63" width=".43" height="1.5"/>
    <rect class="cls-9" x="182.36" y="74.17" width=".83" height="2.27" rx=".33" ry=".33"/>
  </g>
  <g>
    <rect class="cls-26" x="184.28" y="72.63" width=".43" height="1.5"/>
    <rect class="cls-9" x="184.08" y="74.17" width=".83" height="2.27" rx=".33" ry=".33"/>
  </g>
  <g>
    <rect class="cls-26" x="186.01" y="72.63" width=".43" height="1.5"/>
    <rect class="cls-9" x="185.81" y="74.17" width=".83" height="2.27" rx=".33" ry=".33"/>
  </g>
  <g>
    <rect class="cls-26" x="187.73" y="72.63" width=".43" height="1.5"/>
    <rect class="cls-9" x="187.53" y="74.17" width=".83" height="2.27" rx=".33" ry=".33"/>
  </g>
  <g>
    <rect class="cls-26" x="182.56" y="88.46" width=".43" height="1.5"/>
    <rect class="cls-9" x="182.36" y="86.15" width=".83" height="2.27" rx=".33" ry=".33"/>
  </g>
  <g>
    <rect class="cls-26" x="184.28" y="88.46" width=".43" height="1.5"/>
    <rect class="cls-9" x="184.08" y="86.15" width=".83" height="2.27" rx=".33" ry=".33"/>
  </g>
  <g>
    <rect class="cls-26" x="186.01" y="88.46" width=".43" height="1.5"/>
    <rect class="cls-9" x="185.81" y="86.15" width=".83" height="2.27" rx=".33" ry=".33"/>
  </g>
  <g>
    <rect class="cls-26" x="187.73" y="88.46" width=".43" height="1.5"/>
    <rect class="cls-9" x="187.53" y="86.15" width=".83" height="2.27" rx=".33" ry=".33"/>
  </g>
  <rect class="cls-19" x="181.23" y="75.37" width="8.48" height="11.83" rx="1.59" ry="1.59"/>
  <g>
    <rect class="cls-26" x="182.49" y="60.01" width=".43" height="1.5"/>
    <rect class="cls-9" x="182.29" y="61.55" width=".83" height="2.27" rx=".33" ry=".33"/>
  </g>
  <g>
    <rect class="cls-26" x="185.03" y="60.01" width=".43" height="1.5"/>
    <rect class="cls-9" x="184.83" y="61.55" width=".83" height="2.27" rx=".33" ry=".33"/>
  </g>
  <g>
    <rect class="cls-26" x="187.57" y="60.01" width=".43" height="1.5"/>
    <rect class="cls-9" x="187.37" y="61.55" width=".83" height="2.27" rx=".33" ry=".33"/>
  </g>
  <g>
    <rect class="cls-26" x="182.49" y="68.55" width=".43" height="1.5"/>
    <rect class="cls-9" x="182.29" y="66.24" width=".83" height="2.27" rx=".33" ry=".33"/>
  </g>
  <g>
    <rect class="cls-26" x="185.03" y="68.55" width=".43" height="1.5"/>
    <rect class="cls-9" x="184.83" y="66.24" width=".83" height="2.27" rx=".33" ry=".33"/>
  </g>
  <g>
    <rect class="cls-26" x="187.57" y="68.55" width=".43" height="1.5"/>
    <rect class="cls-9" x="187.37" y="66.24" width=".83" height="2.27" rx=".33" ry=".33"/>
  </g>
  <rect class="cls-19" x="180.93" y="62.77" width="8.73" height="4.57" rx="1.59" ry="1.59"/>
  <g>
    <rect class="cls-26" x="67.22" y="73.94" width=".43" height="1.5"/>
    <rect class="cls-9" x="67.02" y="75.48" width=".83" height="2.27" rx=".33" ry=".33"/>
  </g>
  <g>
    <rect class="cls-26" x="69.76" y="73.94" width=".43" height="1.5"/>
    <rect class="cls-9" x="69.56" y="75.48" width=".83" height="2.27" rx=".33" ry=".33"/>
  </g>
  <g>
    <rect class="cls-26" x="72.3" y="73.94" width=".43" height="1.5"/>
    <rect class="cls-9" x="72.1" y="75.48" width=".83" height="2.27" rx=".33" ry=".33"/>
  </g>
  <g>
    <rect class="cls-26" x="67.22" y="82.48" width=".43" height="1.5"/>
    <rect class="cls-9" x="67.02" y="80.17" width=".83" height="2.27" rx=".33" ry=".33"/>
  </g>
  <g>
    <rect class="cls-26" x="72.3" y="82.48" width=".43" height="1.5"/>
    <rect class="cls-9" x="72.1" y="80.17" width=".83" height="2.27" rx=".33" ry=".33"/>
  </g>
  <rect class="cls-19" x="65.66" y="76.7" width="8.73" height="4.57" rx="1.59" ry="1.59"/>
  <rect class="cls-26" x="122.4" y="202.45" width="10.21" height="4.37" rx=".51" ry=".51"/>
  <rect class="cls-27" x="124.89" y="202.42" width="5.44" height="4.4"/>
  <rect class="cls-3" x="169.77" y="215.88" width="8.76" height="2.83" rx="1.12" ry="1.12" transform="translate(-102.64 186.79) rotate(-45)"/>
  <rect class="cls-10" x="91.75" y="14.73" width="3.33" height="4.78"/>
  <g>
    <rect class="cls-26" x="86.47" y="218" width="5.45" height="2.16" rx=".85" ry=".85" transform="translate(-129.88 308.26) rotate(-90)"/>
    <rect class="cls-29" x="87.46" y="218.11" width="3.45" height="1.92" rx=".76" ry=".76" transform="translate(-129.88 308.26) rotate(-90)"/>
  </g>
  <g>
    <rect class="cls-26" x="92.02" y="218" width="5.45" height="2.16" rx=".85" ry=".85" transform="translate(-124.33 313.82) rotate(-90)"/>
    <rect class="cls-29" x="93.02" y="218.11" width="3.45" height="1.92" rx=".76" ry=".76" transform="translate(-124.33 313.82) rotate(-90)"/>
  </g>
  <ellipse class="cls-9" cx="71.93" cy="60.23" rx="1.02" ry=".62" transform="translate(-17.02 30.4) rotate(-21.4)"/>
  <ellipse class="cls-9" cx="71.78" cy="62.82" rx=".62" ry="1.02" transform="translate(-12.9 106.72) rotate(-68.6)"/>
  <ellipse class="cls-9" cx="68.18" cy="60.23" rx=".62" ry="1.02" transform="translate(-12.78 101.72) rotate(-68.6)"/>
  <ellipse class="cls-9" cx="68.23" cy="62.82" rx="1.02" ry=".62" transform="translate(-18.22 29.23) rotate(-21.4)"/>
  <rect class="cls-16" x="68.64" y="59.36" width="2.83" height="4.5"/>
  <polygon class="cls-27" points="90.98 231.92 90.98 233.22 92.05 233.22 92.05 234.37 93.46 235.82 95.67 235.82 97.11 234.45 97.11 233.29 98.24 233.29 98.24 231.92 90.98 231.92"/>
  <rect class="cls-4" x="90.89" y="227.57" width="7.46" height="5.19" rx="2.06" ry="2.06"/>
  <g>
    <rect class="cls-26" x="123.93" y="220.94" width=".43" height="1.5"/>
    <rect class="cls-9" x="123.73" y="222.48" width=".83" height="2.27" rx=".33" ry=".33"/>
  </g>
  <g>
    <rect class="cls-26" x="125.65" y="220.94" width=".43" height="1.5"/>
    <rect class="cls-9" x="125.45" y="222.48" width=".83" height="2.27" rx=".33" ry=".33"/>
  </g>
  <g>
    <rect class="cls-26" x="127.37" y="220.94" width=".43" height="1.5"/>
    <rect class="cls-9" x="127.17" y="222.48" width=".83" height="2.27" rx=".33" ry=".33"/>
  </g>
  <g>
    <rect class="cls-26" x="129.1" y="220.94" width=".43" height="1.5"/>
    <rect class="cls-9" x="128.9" y="222.48" width=".83" height="2.27" rx=".33" ry=".33"/>
  </g>
  <g>
    <rect class="cls-26" x="130.91" y="220.94" width=".43" height="1.5"/>
    <rect class="cls-9" x="130.71" y="222.48" width=".83" height="2.27" rx=".33" ry=".33"/>
  </g>
  <polygon class="cls-22" points="118.36 241.59 118.5 222.68 121.38 222.68 122.67 224.16 133.12 224.16 134.45 222.64 137.3 222.64 137.3 241.59 118.36 241.59"/>
  <path class="cls-8" d="M120.11,233.64c0,1.76-.28,3.21,1.17,3.21s1.28-1.06,1.28-3.21"/>
  <path class="cls-8" d="M132.99,233.87c0,1.76-.28,3.21,1.17,3.21s1.28-1.06,1.28-3.21"/>
  <path class="cls-21" d="M136.46,222.64s.47,0,.79,0c.26,0,.47-.3.47-.63h.75v2.8h-.64v8.11h.64v2.65h-.59v6.03h-1.53l.11-18.95Z"/>
  <path class="cls-21" d="M118.67,222.64s-.47,0-.79,0c-.26,0-.47-.3-.47-.63h-.75s0,2.8,0,2.8h.64s0,8.11,0,8.11h-.64s0,2.65,0,2.65h.59s0,6.03,0,6.03h1.53s-.1-18.95-.1-18.95Z"/>
  <g>
    <polyline class="cls-22" points="138.46 222 139.29 222 139.29 220.94 140.69 220.94 140.69 223.32 140.69 223.78 138.46 223.78 138.46 222"/>
    <polyline class="cls-22" points="138.46 224.78 139.29 224.78 139.29 225.84 140.69 225.84 140.69 223.46 140.69 223 138.46 223 138.46 224.78"/>
  </g>
  <g>
    <polyline class="cls-22" points="138.46 232.9 139.29 232.9 139.29 231.88 140.69 231.88 140.69 234.16 140.69 234.61 138.46 234.61 138.46 232.9"/>
    <polyline class="cls-22" points="138.46 235.56 139.29 235.56 139.29 236.58 140.69 236.58 140.69 234.3 140.69 233.86 138.46 233.86 138.46 235.56"/>
  </g>
  <g>
    <polyline class="cls-22" points="116.66 222 115.83 222 115.83 220.94 114.43 220.94 114.43 223.32 114.43 223.78 116.66 223.78 116.66 222"/>
    <polyline class="cls-22" points="116.66 224.78 115.83 224.78 115.83 225.84 114.43 225.84 114.43 223.46 114.43 223 116.66 223 116.66 224.78"/>
  </g>
  <polyline class="cls-6" points="80.67 95.46 95.97 95.46 175.43 95.46"/>
  <g>
    <polyline class="cls-22" points="116.66 232.9 115.83 232.9 115.83 231.88 114.43 231.88 114.43 234.16 114.43 234.61 116.66 234.61 116.66 232.9"/>
    <polyline class="cls-22" points="116.66 235.56 115.83 235.56 115.83 236.58 114.43 236.58 114.43 234.3 114.43 233.86 116.66 233.86 116.66 235.56"/>
  </g>
  <polyline class="cls-6" points="57.58 106.96 80.27 106.96 198.1 106.96"/>
  <rect class="cls-6" x="79.97" y="30.19" width="95.87" height="76.77" rx="8.51" ry="8.51"/>
  <ellipse class="cls-9" cx="100.34" cy="20.15" rx="1.43" ry=".86"/>
  <ellipse class="cls-9" cx="100.14" cy="23.76" rx="1.43" ry=".86"/>
  <ellipse class="cls-9" cx="83.23" cy="20.29" rx="1.43" ry=".86"/>
  <ellipse class="cls-9" cx="83.44" cy="23.91" rx="1.43" ry=".86"/>
  <g>
    <rect class="cls-26" x="83.38" y="24.76" width="4.44" height="2.16" rx=".85" ry=".85" transform="translate(111.43 -59.76) rotate(90)"/>
    <rect class="cls-9" x="84.19" y="24.87" width="2.82" height="1.92" rx=".76" ry=".76" transform="translate(111.43 -59.76) rotate(90)"/>
    <rect class="cls-27" x="85.15" y="24.76" width=".89" height="2.16" transform="translate(111.43 -59.76) rotate(90)"/>
  </g>
  <g>
    <rect class="cls-26" x="87.59" y="24.76" width="4.44" height="2.16" rx=".85" ry=".85" transform="translate(115.65 -63.98) rotate(90)"/>
    <rect class="cls-9" x="88.4" y="24.87" width="2.82" height="1.92" rx=".76" ry=".76" transform="translate(115.64 -63.98) rotate(90)"/>
    <rect class="cls-27" x="89.37" y="24.76" width=".89" height="2.16" transform="translate(115.65 -63.98) rotate(90)"/>
  </g>
  <g>
    <rect class="cls-26" x="95.87" y="24.76" width="4.44" height="2.16" rx=".85" ry=".85" transform="translate(123.93 -72.26) rotate(90)"/>
    <rect class="cls-9" x="96.69" y="24.87" width="2.82" height="1.92" rx=".76" ry=".76" transform="translate(123.93 -72.26) rotate(90)"/>
    <rect class="cls-27" x="97.65" y="24.76" width=".89" height="2.16" transform="translate(123.93 -72.26) rotate(90)"/>
  </g>
  <polygon class="cls-7" points="100.8 19.78 99.17 19.78 99.17 18.36 84.33 18.36 84.33 19.78 82.87 19.78 82.87 24.13 84.33 24.13 84.33 25.83 99.17 25.83 99.17 23.68 100.8 23.68 100.8 19.78"/>
  <polygon class="cls-30" points="93.46 235.82 92.59 241.27 96.64 241.27 95.67 235.82 93.46 235.82"/>
  <g>
    <rect class="cls-26" x="97.21" y="218" width="5.45" height="2.16" rx=".85" ry=".85" transform="translate(-119.14 319) rotate(-90)"/>
    <rect class="cls-29" x="98.21" y="218.11" width="3.45" height="1.92" rx=".76" ry=".76" transform="translate(-119.14 319) rotate(-90)"/>
  </g>
  <g>
    <rect class="cls-26" x="122.9" y="176.9" width=".43" height="1.5"/>
    <rect class="cls-9" x="122.7" y="178.43" width=".83" height="2.27" rx=".33" ry=".33"/>
  </g>
  <g>
    <rect class="cls-26" x="126.39" y="176.9" width=".43" height="1.5"/>
    <rect class="cls-9" x="126.19" y="178.43" width=".83" height="2.27" rx=".33" ry=".33"/>
  </g>
  <g>
    <rect class="cls-26" x="129.88" y="176.9" width=".43" height="1.5"/>
    <rect class="cls-9" x="129.68" y="178.43" width=".83" height="2.27" rx=".33" ry=".33"/>
  </g>
  <g>
    <rect class="cls-26" x="133.37" y="176.9" width=".43" height="1.5"/>
    <rect class="cls-9" x="133.17" y="178.43" width=".83" height="2.27" rx=".33" ry=".33"/>
  </g>
  <g>
    <rect class="cls-26" x="122.72" y="197.68" width=".43" height="1.5"/>
    <rect class="cls-9" x="122.52" y="195.37" width=".83" height="2.27" rx=".33" ry=".33"/>
  </g>
  <g>
    <rect class="cls-26" x="126.21" y="197.68" width=".43" height="1.5"/>
    <rect class="cls-9" x="126.01" y="195.37" width=".83" height="2.27" rx=".33" ry=".33"/>
  </g>
  <g>
    <rect class="cls-26" x="129.7" y="197.68" width=".43" height="1.5"/>
    <rect class="cls-9" x="129.5" y="195.37" width=".83" height="2.27" rx=".33" ry=".33"/>
  </g>
  <g>
    <rect class="cls-26" x="133.18" y="197.68" width=".43" height="1.5"/>
    <rect class="cls-9" x="132.98" y="195.37" width=".83" height="2.27" rx=".33" ry=".33"/>
  </g>
  <rect class="cls-19" x="120.84" y="178.76" width="14.9" height="18.58" rx="1.25" ry="1.25"/>
  <rect class="cls-17" x="112.02" y="93.52" width="31.76" height="7.1" rx="2.81" ry="2.81"/>
  <rect class="cls-19" x="114.25" y="96.33" width="27.28" height="4.3"/>
  <polygon class="cls-19" points="173.2 82.6 82.59 82.6 82.59 81.38 82.59 36.3 173.2 36.3 173.2 82.6"/>
  <rect class="cls-19" x="88.06" y="39.42" width="80.12" height="39.95" rx="3.65" ry="3.65"/>
  <path class="cls-19" d="M82.59,82.83v7.25c0,3.74,2.54,5.19,4.91,5.19h24.49v1.06h21.1l.25-13.72h-50.75v.22Z"/>
  <path class="cls-19" d="M173.2,82.83v7.25c0,3.74-2.54,5.19-4.91,5.19s-24.49,0-24.49,0v1.06h-21.1s-.25-13.72-.25-13.72h50.75v.22Z"/>
  <g>
    <path class="cls-25" d="M123.29,193.77l.89-.12-.45-.19-.44-.21v-.59l1.61.82v.52l-.6.11.6.31v.52l-1.61.28v-.59l.44-.07.45-.04-.89-.41v-.34Z"/>
    <path class="cls-25" d="M122.67,192.34c-.06-.08-.09-.16-.09-.26,0-.08.02-.14.07-.19.05-.05.11-.08.19-.08.11,0,.19.04.25.11.06.08.09.16.09.26,0,.08-.02.14-.07.19-.04.05-.11.08-.19.08-.11,0-.19-.04-.25-.11ZM124.88,192.18l-1.57-.26v.57l1.57.26v-.57Z"/>
    <path class="cls-25" d="M124.88,190.82l-.88-.15c-.09-.02-.16,0-.2.03-.04.03-.06.08-.06.14,0,.07.03.14.08.2.05.06.13.1.23.11l.84.14v.56l-1.6-.27v-.5h.17c-.15-.14-.22-.31-.21-.51,0-.18.06-.31.18-.4.12-.09.31-.11.57-.07l.89.15v.56Z"/>
    <path class="cls-25" d="M123.42,189.13c-.11-.11-.17-.26-.17-.45s.06-.34.19-.45c.13-.11.29-.17.49-.17.28,0,.52.08.69.23s.27.36.29.62c0,.09,0,.18-.04.27-.03.08-.09.15-.16.2l.17.05v.5l-2.26-.38v-.56l.8.13ZM123.86,189.15c.09.07.18.1.29.1.08,0,.14-.02.2-.07.06-.05.08-.11.08-.19,0-.1-.04-.19-.11-.26s-.18-.11-.3-.11c-.09,0-.16.02-.21.07s-.08.11-.08.18c0,.11.04.2.13.27Z"/>
    <path class="cls-25" d="M123.29,186.55v-.53l1.6.27v.52h-.17c.07.07.13.15.16.25.03.1.05.19.04.28-.01.18-.08.33-.2.42-.12.1-.28.15-.47.15-.28,0-.51-.09-.7-.26-.19-.17-.29-.38-.29-.63,0-.21.07-.35.21-.41l-.17-.05ZM123.85,187.23c.08.07.18.11.3.11.09,0,.15-.02.21-.07.05-.05.08-.11.08-.18,0-.11-.04-.2-.12-.27-.08-.07-.18-.11-.3-.11-.09,0-.15.02-.21.07s-.08.11-.08.19c0,.1.04.19.12.26Z"/>
    <path class="cls-25" d="M124.88,184.92l-.88-.15c-.09-.02-.16,0-.2.03-.04.03-.06.08-.06.14,0,.07.03.14.08.2.05.06.13.1.23.11l.84.14v.56l-1.6-.27v-.5h.17c-.15-.14-.22-.31-.21-.51,0-.18.06-.31.18-.4.12-.09.31-.11.57-.07l.89.15v.56Z"/>
    <path class="cls-25" d="M122.62,182.58v-.56l2.26.38v.5h-.17c.07.07.13.15.16.25.03.1.05.19.04.28-.01.19-.07.33-.19.43-.11.1-.27.15-.47.15-.29,0-.53-.09-.72-.26s-.29-.38-.29-.64c0-.19.06-.32.17-.39l-.8-.13ZM123.85,183.32c.08.07.18.11.3.11.09,0,.16-.02.21-.07.05-.05.07-.11.07-.18,0-.1-.04-.19-.12-.26-.08-.07-.18-.11-.28-.11-.08,0-.15.02-.21.06s-.09.11-.09.19c0,.1.04.19.12.26Z"/>
  </g>
  <g>
    <path class="cls-25" d="M129.25,193.32v.2h-.04c.04.21.05.33.05.36,0,.08-.03.15-.09.21s-.14.08-.23.08h-.9c-.09,0-.17-.03-.24-.09-.06-.06-.09-.13-.09-.22v-.33h-.94v-.2h2.47ZM129.06,193.52h-1.16v.28c0,.11.06.17.18.17h.82c.12,0,.18-.05.18-.17,0-.03,0-.12-.02-.28Z"/>
    <path class="cls-25" d="M129.07,192.18c.12,0,.18.06.18.17v.48c0,.11-.06.17-.18.17h-1.18c-.12,0-.18-.06-.18-.17v-.48c0-.11.06-.17.18-.17h.55l.07.07v.56h.56v-.43h-.28v-.19h.28ZM128.35,192.37h-.46v.43h.46v-.43Z"/>
    <path class="cls-25" d="M129.07,191.06c.12,0,.18.06.18.17v.46c0,.11-.06.17-.18.17h-.35v-.2h.35v-.4h-.31l-.45.52c-.04.05-.1.08-.16.08h-.26c-.12,0-.18-.06-.18-.17v-.45c0-.11.06-.17.18-.17h.31v.19h-.3v.4h.27l.45-.53s.1-.07.17-.07h.29Z"/>
    <path class="cls-25" d="M127.38,190.53v.2h-.27v-.2h.27ZM129.25,190.54v.2h-1.54v-.2h1.54Z"/>
    <path class="cls-25" d="M129.65,189.37c.12,0,.18.06.18.17v.47c0,.12-.08.17-.23.17-.02,0-.04,0-.08,0-.04,0-.06,0-.08,0v-.2h.2v-.42h-.4v.33c0,.09-.03.16-.09.22-.06.06-.14.09-.24.09h-.9c-.09,0-.17-.03-.23-.08s-.09-.12-.09-.21c0-.02.02-.14.05-.36h-.04v-.2h1.94ZM129.07,189.57h-1.16c-.01.16-.02.25-.02.28,0,.11.06.17.18.17h.82c.12,0,.18-.05.18-.17v-.28Z"/>
    <path class="cls-25" d="M129.25,188.2v.2h-1.35v.44h1.35v.2h-1.54v-.2h.04c-.01-.08-.02-.16-.03-.24-.01-.1-.02-.18-.02-.24,0-.11.06-.17.17-.17h1.37Z"/>
    <path class="cls-25" d="M129.07,187.06c.12,0,.18.06.18.17v.48c0,.11-.06.17-.18.17h-1.18c-.12,0-.18-.06-.18-.17v-.48c0-.11.06-.17.18-.17h.55l.07.07v.56h.56v-.43h-.28v-.19h.28ZM128.35,187.25h-.46v.43h.46v-.43Z"/>
    <path class="cls-25" d="M129.25,185.9v.2h-.04c.04.21.05.33.05.36,0,.08-.03.15-.09.21s-.14.08-.23.08h-.9c-.09,0-.17-.03-.24-.09-.06-.06-.09-.13-.09-.22v-.33h-.94v-.2h2.47ZM129.06,186.1h-1.16v.28c0,.11.06.17.18.17h.82c.12,0,.18-.05.18-.17,0-.03,0-.12-.02-.28Z"/>
    <path class="cls-25" d="M128.92,184.13c.09,0,.17.03.24.09.06.06.09.13.09.22v.53h-2.47v-.2h.98c-.01-.08-.02-.16-.03-.24-.01-.1-.02-.18-.02-.24,0-.11.06-.17.17-.17h1.04ZM128.89,184.33h-.99v.44h1.16v-.28c0-.11-.06-.16-.18-.16Z"/>
    <path class="cls-25" d="M127.71,182.98l1.52.35.6.15v.2l-.6-.15-1.52.36v-.21l1.21-.25-1.21-.25v-.2Z"/>
    <path class="cls-25" d="M133.13,192.9v.2h-1.35v.44h1.35v.2h-1.35v.44h1.35v.2h-1.54v-.2h.04c-.01-.08-.02-.16-.03-.23-.01-.09-.02-.17-.02-.24s.02-.11.06-.14c-.01-.08-.02-.17-.04-.25-.01-.11-.02-.19-.02-.25,0-.11.06-.17.17-.17h1.37Z"/>
    <path class="cls-25" d="M131.26,192.37v.2h-.27v-.2h.27ZM133.13,192.37v.2h-1.54v-.2h1.54Z"/>
    <path class="cls-25" d="M133.13,191.82v.2h-2.47v-.2h2.47Z"/>
    <path class="cls-25" d="M133.13,190.66v.22l-.78.4h.78v.2h-2.47v-.2h1.57l-.63-.38v-.21h0l.68.42.85-.46Z"/>
    <path class="cls-25" d="M133.13,189.93v.28c0,.11-.06.17-.18.17h-1.17v.18h-.19v-.18h-.48v-.2h.48v-.26h.19v.26h1.17v-.26h.18Z"/>
    <path class="cls-25" d="M132.95,188.83c.12,0,.18.06.18.17v.5c0,.11-.06.17-.18.17h-1.18c-.12,0-.18-.06-.18-.17v-.5c0-.11.06-.17.18-.17h1.18ZM132.95,189.03h-1.17v.44h1.17v-.44Z"/>
    <path class="cls-25" d="M133.13,187.68v.2h-.04c.01.08.02.16.03.24.01.1.02.18.02.24,0,.11-.06.16-.17.16h-.56c-.12,0-.18-.06-.18-.17v-.47h-.46v.43h.26v.19h-.26c-.12,0-.18-.06-.18-.17v-.48c0-.11.06-.17.18-.17h1.36ZM132.94,187.88h-.54v.45h.55v-.45Z"/>
    <path class="cls-25" d="M132.95,186.57c.12,0,.18.06.18.17v.46c0,.11-.06.17-.18.17h-.35v-.2h.35v-.4h-.31l-.45.52c-.04.05-.1.08-.16.08h-.26c-.12,0-.18-.06-.18-.17v-.45c0-.11.06-.17.18-.17h.31v.19h-.3v.4h.27l.45-.53s.1-.07.17-.07h.29Z"/>
    <path class="cls-25" d="M133.13,185.73v.28c0,.11-.06.17-.18.17h-1.17v.18h-.19v-.18h-.48v-.2h.48v-.26h.19v.26h1.17v-.26h.18Z"/>
    <path class="cls-25" d="M132.1,184.71v.2h-.32v.37h1.35v.2h-1.54v-.2h.04c-.01-.07-.02-.13-.03-.2-.01-.08-.02-.15-.02-.2,0-.11.06-.17.17-.17h.34Z"/>
    <path class="cls-25" d="M133.13,183.63v.2h-.04c.01.08.02.16.03.24.01.1.02.18.02.24,0,.11-.06.16-.17.16h-.56c-.12,0-.18-.06-.18-.17v-.47h-.46v.43h.26v.19h-.26c-.12,0-.18-.06-.18-.17v-.48c0-.11.06-.17.18-.17h1.36ZM132.94,183.82h-.54v.45h.55v-.45Z"/>
    <path class="cls-25" d="M133.13,182.77v.28c0,.11-.06.17-.18.17h-1.17v.18h-.19v-.18h-.48v-.2h.48v-.26h.19v.26h1.17v-.26h.18Z"/>
  </g>
  <g class="cls-18">
    <path class="cls-15" d="M156.82,206.48l-.19.19-2.01-1.25-.03-.08.33-.33-1.12-1.12-.47.47,2.8,2.8-.18.18-3.04-3.04.69-.69s.1-.06.17-.04.13.05.2.11l1.16,1.16c.15.15.15.29.02.42-.01.01-.03.03-.06.06-.03.02-.05.04-.06.05.6.37,1.21.74,1.81,1.11Z"/>
    <path class="cls-15" d="M157.58,205.27c.15.15.17.27.07.37l-.44.44c-.1.1-.22.07-.37-.07l-1.45-1.45c-.15-.15-.17-.27-.07-.37l.44-.44c.1-.1.22-.08.37.07l1.45,1.45ZM157.4,205.44l-1.44-1.44-.38.38,1.44,1.44.38-.38Z"/>
    <path class="cls-15" d="M159.37,203.92l-.17.17-1.66-1.66-.37.4,1.65,1.65-.17.17-1.66-1.66-.37.4,1.65,1.65-.17.17-1.89-1.89.17-.17.05.05c.06-.08.11-.16.16-.25.07-.1.13-.17.18-.23s.12-.07.19-.05c.06-.09.12-.18.17-.26.08-.11.14-.19.19-.24.1-.1.22-.07.36.07l1.69,1.69Z"/>
    <path class="cls-15" d="M160.69,202.6l-.17.17-1.93-1.93s-.1-.11-.22-.26l1.54,2.22-.04.04-2.22-1.54c.15.12.23.2.26.22l1.93,1.93-.17.17-3.04-3.04.17-.17,2.31,1.65s.04.04.09.08c-.02-.02-.05-.05-.08-.09l-1.65-2.31.17-.17,3.04,3.04Z"/>
  </g>
  <g class="cls-28">
    <path class="cls-15" d="M158.7,208.26c-.21-.21-.41-.41-.51-.52h0c.08.21.31,1.03.46,1.56l-.11.11c-.4-.12-1.3-.39-1.53-.48h0c.13.11.38.36.57.54l.45.45-.11.11-1.06-1.06.17-.17c.57.16,1.3.38,1.48.45h0c-.04-.12-.28-.94-.43-1.5l.17-.17,1.06,1.06-.11.11-.49-.49Z"/>
    <path class="cls-15" d="M159.04,206.93l-.5.5-.08-.08,1.11-1.11.08.08-.5.5.99.99-.12.12-.99-.99Z"/>
    <path class="cls-15" d="M160.48,206.47l.5.5-.12.12-1.06-1.06.53-.53c.29-.29.56-.33.73-.17.14.14.11.34-.03.53.18-.13.35-.16.53.02l.04.04c.07.07.17.18.24.2l-.12.12c-.07-.02-.15-.11-.24-.2l-.03-.03c-.18-.18-.32-.18-.6.11l-.36.36ZM160.4,206.39l.36-.36c.26-.26.31-.45.17-.59-.13-.13-.32-.09-.55.14l-.39.39.42.42Z"/>
    <path class="cls-15" d="M162.08,205.86h0c-.12-.13-.13-.43,0-.86.11-.38.13-.48,0-.61-.11-.11-.29-.12-.49.08-.19.19-.22.35-.11.54l-.11.11c-.14-.19-.11-.46.15-.72.28-.28.54-.26.67-.13.16.16.12.3.01.71-.08.33-.11.55-.06.69l.78-.78.06.09-.88.88Z"/>
    <path class="cls-15" d="M163.58,203.35c.23.23.44.61.07.98s-.72.18-.97-.07-.42-.62-.06-.98.72-.17.96.06ZM162.8,204.14c.19.19.5.39.78.11s.1-.58-.12-.79c-.19-.19-.49-.38-.77-.11-.29.29-.12.57.1.79Z"/>
    <path class="cls-15" d="M164.31,203.64h0c-.12-.13-.13-.43,0-.86.11-.38.13-.48,0-.61-.11-.11-.29-.12-.49.08-.19.19-.23.35-.12.54l-.11.11c-.14-.19-.11-.46.15-.72.28-.28.54-.26.67-.13.16.16.12.3.01.71-.08.33-.11.55-.06.69l.78-.78.05.09-.88.88Z"/>
    <path class="cls-15" d="M165.29,200.8l-.6.6c.08.11.23.34.28.42,0-.12.06-.26.22-.42.24-.24.53-.3.74-.08.2.2.22.5-.09.81-.23.23-.49.3-.7.17l.11-.11c.14.07.33.04.52-.14.22-.22.22-.44.05-.61-.15-.15-.35-.17-.57.04-.19.19-.22.33-.18.49l-.13.08c-.09-.18-.32-.51-.42-.64l.7-.7.06.09Z"/>
    <path class="cls-15" d="M160.08,210.46l-.75.75.45.45.83-.83.06.09-.92.92-1.06-1.06.91-.91.08.08-.79.79.39.39.75-.75.08.08Z"/>
    <path class="cls-15" d="M160.78,210.07l.18.56-.12.12-.52-1.61.14-.14,1.63.5-.12.12-.56-.17-.62.62ZM161.29,209.4c-.48-.15-.72-.22-.82-.26h0c.04.12.14.4.28.81l.55-.55Z"/>
    <path class="cls-15" d="M162.09,208.92c.19.1.4.05.64-.19.27-.27.28-.47.16-.59s-.27-.12-.65.15c-.37.26-.58.32-.73.17-.14-.14-.13-.41.19-.73s.61-.32.75-.21l-.12.12c-.15-.08-.33-.06-.57.17-.21.21-.26.4-.14.52s.26.07.58-.16c.49-.34.67-.28.8-.16.16.16.13.45-.21.79-.37.37-.66.35-.83.24l.12-.12Z"/>
    <path class="cls-15" d="M162.92,206.69l-.5.5-.08-.08,1.11-1.11.08.08-.5.5.99.99-.12.12-.99-.99Z"/>
    <path class="cls-15" d="M161.34,213.75l.04-1.88-.91.91-.08-.08,1.04-1.04.07.07-.04,1.87.97-.97.06.09-1.1,1.1-.07-.07Z"/>
    <path class="cls-15" d="M161.81,211.29l.65.65c.28.28.58.13.79-.08.25-.25.36-.51.08-.79l-.65-.65.12-.12.64.64c.33.33.19.68-.12.99s-.66.43-.97.12l-.65-.65.12-.12Z"/>
    <path class="cls-15" d="M163.2,209.89l.11-.11.55.55c.04-.2.17-.91.25-1.36l.15-.15-.21,1.12,1.31-.09-.14.14-1.2.08-.08.34.42.42-.11.11-1.07-1.07Z"/>
    <path class="cls-15" d="M166.25,207.9c.29.29.34.77-.12,1.23-.42.42-.9.42-1.21.11s-.31-.78.13-1.22c.41-.41.89-.43,1.2-.12ZM165.04,209.11c.25.25.66.29,1.02-.07.38-.38.32-.77.07-1.02s-.65-.28-1,.07c-.38.38-.32.77-.08,1.01Z"/>
    <path class="cls-15" d="M166.83,206.39l.08.08c-.01.5.14,1.12.36,1.5l-.11.11c-.21-.35-.37-1.01-.36-1.49l-.76.76-.08-.08.88-.88Z"/>
    <path class="cls-15" d="M168,207.23h0c-.12-.13-.13-.43-.01-.87.11-.38.13-.48,0-.6-.11-.11-.29-.12-.49.08s-.23.35-.12.54l-.11.11c-.14-.19-.11-.46.15-.72.28-.28.54-.26.67-.13.16.16.12.3,0,.71-.08.33-.11.55-.06.69l.78-.78.06.09-.88.88Z"/>
    <path class="cls-15" d="M169.69,205.53l-.28-.28-.67.67-.07-.07.02-1.32.11-.11.65.65.19-.19.06.09-.17.17.28.28-.11.11ZM169.03,204.88c-.06-.06-.18-.18-.24-.25.02.13,0,.78,0,1.1l.54-.54-.3-.3Z"/>
  </g>
</svg>