<?xml version="1.0" encoding="UTF-8"?>
<svg id="Layer_1" data-name="Layer 1" xmlns="http://www.w3.org/2000/svg" viewBox="0 0 1000 1000">
  <defs>
    <style>
      .cls-1 {
        fill: #333;
      }

      .cls-2 {
        fill: #565559;
      }

      .cls-3 {
        fill: #282828;
      }

      .cls-4 {
        fill: #dc493a;
      }

      .cls-5 {
        fill: #e2ac32;
      }

      .cls-6 {
        fill: #1c1e1e;
      }

      .cls-7 {
        fill: none;
        stroke: #3a3a3a;
        stroke-miterlimit: 10;
        stroke-width: 10.96px;
      }

      .cls-8 {
        fill: #171717;
      }
    </style>
  </defs>
  <rect class="cls-1" x="56.31" y="20" width="887.37" height="960" rx="104.52" ry="104.52"/>
  <rect class="cls-3" x="77.06" y="42.44" width="845.88" height="915.11" rx="82.75" ry="82.75"/>
  <circle class="cls-6" cx="493.07" cy="529.28" r="290.16"/>
  <circle class="cls-7" cx="493.07" cy="529.28" r="146.73"/>
  <circle class="cls-7" cx="493.07" cy="529.28" r="198.08"/>
  <circle class="cls-7" cx="493.07" cy="529.28" r="237.74"/>
  <path class="cls-8" d="M832.22,441.67c-23.41-90.58-80.69-166.64-161.28-214.15-80.6-47.51-174.88-60.78-265.47-37.38-8.38,2.16-16.63,4.62-24.75,7.36l-71.53-93.34c-39.8-51.94-114.17-61.78-166.11-21.98h0c-51.94,39.8-61.78,114.17-21.98,166.11l74.11,96.71c-1.31,2.13-2.62,4.26-3.89,6.42-47.51,80.6-60.78,174.88-37.38,265.47,23.4,90.59,80.68,166.64,161.29,214.15,54.61,32.19,115.49,48.66,177.26,48.66,29.4,0,59-3.73,88.21-11.28,90.59-23.4,166.64-80.68,214.15-161.28,47.51-80.6,60.78-174.88,37.38-265.47ZM731.46,669.79c-37.53,63.68-97.61,108.93-169.18,127.41-23.13,5.97-46.32,8.83-69.17,8.83-123.12,0-235.77-82.93-267.96-207.53-38.16-147.73,50.97-298.97,198.71-337.14,23.13-5.97,46.32-8.83,69.17-8.83,123.12,0,235.77,82.93,267.96,207.53,18.49,71.56,8,146.04-29.53,209.72Z"/>
  <path class="cls-5" d="M492.85,852.25c-6.46,0-13.01-.2-19.46-.59l1.14-18.75c12.67.77,25.56.73,38.2-.1l1.23,18.74c-6.99.46-14.1.7-21.12.7ZM433.14,846.63c-13.24-2.51-26.46-5.89-39.29-10.05l5.79-17.87c12.08,3.92,24.53,7.1,37,9.46l-3.5,18.45ZM554.19,846.35l-3.58-18.44c6.19-1.2,12.42-2.61,18.52-4.18,6.21-1.6,12.42-3.42,18.47-5.39l5.82,17.86c-6.41,2.09-13,4.01-19.59,5.72-6.48,1.67-13.09,3.17-19.65,4.44ZM356.13,821.7c-12.19-5.72-24.16-12.27-35.56-19.47l10.03-15.88c10.74,6.78,22.01,12.96,33.5,18.34l-7.98,17.01ZM631.11,821.24l-8.01-16.99c11.49-5.42,22.74-11.62,33.43-18.43l10.09,15.84c-11.36,7.24-23.31,13.82-35.51,19.57ZM287.72,778.49c-10.41-8.57-20.38-17.87-29.62-27.66l13.65-12.9c8.71,9.22,18.09,17.98,27.9,26.05l-11.93,14.5ZM699.35,777.78l-12-14.44c9.75-8.1,19.09-16.91,27.76-26.19l13.72,12.82c-9.21,9.85-19.12,19.21-29.47,27.81ZM232.18,719.67c-7.95-10.89-15.28-22.39-21.79-34.19l16.45-9.07c6.13,11.11,13.03,21.94,20.52,32.19l-15.17,11.08ZM754.59,718.68l-15.22-11.01c7.44-10.28,14.31-21.14,20.41-32.28l16.47,9.03c-6.48,11.82-13.77,23.35-21.66,34.26ZM193.08,648.81c-4.96-12.48-9.19-25.45-12.58-38.53l18.18-4.71c3.2,12.33,7.18,24.55,11.85,36.31l-17.46,6.93ZM793.48,647.72l-17.47-6.9c4.67-11.81,8.63-24.04,11.78-36.33l18.19,4.66c-3.34,13.05-7.55,26.03-12.51,38.57ZM172.79,570.48c-1.74-13.39-2.64-27-2.68-40.47l18.78-.06c.04,12.67.89,25.49,2.52,38.1l-18.63,2.42ZM813.56,569.29l-18.64-2.33c1.55-12.38,2.33-24.99,2.33-37.46v-.69h18.78v.69c0,13.25-.83,26.64-2.48,39.79ZM191.2,491.83l-18.64-2.32c1.66-13.37,4.2-26.78,7.54-39.86l18.2,4.65c-3.14,12.32-5.53,24.94-7.1,37.53ZM794.76,490.73c-1.62-12.55-4.06-25.17-7.25-37.51l-.11-.43,18.17-4.75.14.55c3.36,13.02,5.95,26.41,7.67,39.73l-18.63,2.41ZM210.05,417.96l-17.47-6.89c4.94-12.54,10.73-24.89,17.2-36.71l16.48,9.01c-6.1,11.14-11.55,22.78-16.21,34.59ZM775.52,416.47c-4.7-11.81-10.19-23.42-16.32-34.51l16.44-9.09c6.51,11.78,12.34,24.11,17.33,36.65l-17.45,6.94ZM246.64,351.08l-15.23-11c7.89-10.93,16.55-21.46,25.74-31.31l13.73,12.81c-8.65,9.28-16.81,19.2-24.25,29.49ZM738.66,349.78c-7.48-10.23-15.7-20.09-24.42-29.32l13.64-12.91c9.27,9.8,17.99,20.27,25.94,31.14l-15.16,11.09ZM298.62,295.37l-12.02-14.43c10.36-8.62,21.37-16.67,32.72-23.91l10.1,15.83c-10.69,6.82-21.05,14.39-30.8,22.51ZM686.32,294.44c-9.8-8.05-20.22-15.57-30.96-22.35l10.02-15.89c11.4,7.19,22.46,15.17,32.87,23.72l-11.92,14.51ZM362.84,254.41l-8.02-16.98c12.16-5.74,24.83-10.78,37.67-14.98l5.83,17.85c-12.09,3.95-24.03,8.7-35.48,14.11ZM621.83,253.77c-11.5-5.39-23.46-10.09-35.54-14l5.77-17.87c12.82,4.14,25.51,9.14,37.73,14.86l-7.96,17.01ZM435.3,230.7l-3.59-18.44c13.27-2.58,26.79-4.34,40.21-5.24l1.25,18.74c-12.64.84-25.38,2.5-37.87,4.93ZM549.28,230.34c-12.48-2.36-25.23-3.94-37.9-4.7l1.12-18.75c13.46.81,27,2.49,40.26,4.99l-3.48,18.46Z"/>
  <polygon class="cls-2" points="492.53 447 568.9 488.64 569 570.18 492.54 612.3 416.07 570.16 418.66 487.81 492.53 447"/>
  <circle class="cls-4" cx="214.71" cy="175.48" r="87.01"/>
  <path class="cls-5" d="M786.47,144.4c0,9.85-.05,19.76.05,29.61,4.28-.05,8.61,0,12.95,0v-92.85h-13c0,21.05,0,42.15,0,63.24Z"/>
  <path class="cls-5" d="M845.12,158.79c-6.5-2.12-12.48-5.67-17.44-10.42-5.16-4.9-9.13-11.04-11.86-17.59-2.89-6.81-4.18-14.13-5.11-21.41-1.13-9.39-1.44-18.83-1.39-28.27h-7.02v15.22c-.05,8.98.26,17.95,1.03,26.88.41,4.13.88,8.31,1.96,12.33,1.08,4.02,2.68,7.89,4.75,11.56,2.63,4.64,6.14,8.77,10.06,12.43,2.37,2.17,4.85,4.28,7.58,6.04,3.71,2.42,7.79,4.33,12.02,5.78,3.56,1.19,7.17,2.17,10.88,2.63v-13.88c-1.81-.26-3.66-.72-5.47-1.29Z"/>
</svg>