<svg xmlns="http://www.w3.org/2000/svg" id="Layer_1" data-name="Layer 1" viewBox="0 0 1000 1000"><defs><linearGradient id="linear-gradient" x1="507.61" x2="507.61" y1="846.05" y2="559.57" gradientUnits="userSpaceOnUse"><stop offset="0" stop-color="#feee40"/><stop offset=".08" stop-color="#e88324"/><stop offset=".11" stop-color="#e97224"/><stop offset=".15" stop-color="#ea5724"/><stop offset=".19" stop-color="#ec4124"/><stop offset=".24" stop-color="#ed3224"/><stop offset=".3" stop-color="#ed2924"/><stop offset=".39" stop-color="#ee2724"/><stop offset=".43" stop-color="#eb2725"/><stop offset=".46" stop-color="#e3272b"/><stop offset=".49" stop-color="#d52736"/><stop offset=".51" stop-color="#c02844"/><stop offset=".52" stop-color="#a62957"/><stop offset=".54" stop-color="#872a6e"/><stop offset=".56" stop-color="#622b8a"/><stop offset=".56" stop-color="#612c8b"/><stop offset=".62" stop-color="#49439a"/><stop offset=".68" stop-color="#3b51a3"/><stop offset=".74" stop-color="#3657a7"/><stop offset="1" stop-color="#1c6a36"/></linearGradient><style>.cls-1{fill:#181818}.cls-9{fill:#ee3024}.cls-12{fill:#c32527}.cls-16{fill:#db2c27}.cls-18{fill:#212121}.cls-20{fill:#e41e26}</style></defs><path d="M609.49 247.41v683.96c0 5.27-2.08 10.06-5.46 13.58-3.57 3.73-8.6 6.05-14.17 6.05H335.8c-5.57 0-10.6-2.32-14.17-6.05a19.55 19.55 0 0 1-5.46-13.58V247.41z" class="cls-18"/><path d="m636.53 274.95-27.04 653.69V247.41zm-320.36-27.54v681.23l-27.03-653.69z" class="cls-1"/><path d="M609.49 247.41H316.17l18.84-181.48h255.65z" style="fill:#1b1b1b"/><path d="m636.53 274.95-27.04-27.54-18.83-181.48 30 18.38zM335.01 65.93l-18.84 181.48-27.03 27.54 15.87-190.64zm255.65 0H335.01l2.96-6.46h249.72z" style="fill:#151515"/><path d="m620.66 84.31-30-18.38-2.97-6.46zM337.97 59.47l-2.96 6.46-30 18.38z" style="fill:#0b0b0b"/><path d="M350.35 65.93h224.98v178.1H350.35z" class="cls-18"/><path d="M354.09 65.93h217.5v12.28h-217.5zm0 17.7h217.5v6.11h-217.5zm0 12.62h217.5v6.11h-217.5zm0 12.62h217.5v6.11h-217.5zm0 12.62h217.5v6.11h-217.5zm0 12.62h217.5v6.11h-217.5zm0 12.63h217.5v6.11h-217.5zm0 12.62h217.5v6.11h-217.5zm0 12.62h217.5v6.11h-217.5zm0 12.62h217.5v6.11h-217.5zm0 12.62h217.5v6.11h-217.5zm0 12.62h217.5v6.11h-217.5zm0 12.62h217.5v6.11h-217.5zm0 12.62h217.5v6.11h-217.5zm-3.74 8.94h224.98v700.93H350.35zm253.68 700.93c-3.57 3.73-8.6 6.05-14.17 6.05H335.8c-5.57 0-10.6-2.32-14.17-6.05z" class="cls-1"/><path d="m353.59 944.95-1.16-478.2h220.83l-1.17 478.2z" style="fill:#d6d6d6"/><path d="M474.38 635.54v-16.68l-57.11 16.68c-5.63 1.66-9.45 5.12-9.45 11.33s3.82 9.68 9.45 11.34l57.11 16.68v-16.68l-12.2-3.33v-16.01zm-26.83 15.34-14.66-4 14.66-4.01zm-39.14-96.36v15.84h65.97v-15.84zm65.96 16.12-29.27 16.78c-1.46-3.61-3.4-6.56-6.72-8.75-3.14-2.04-6.73-3-10.47-3-6.64 0-12.92 2.74-16.6 8.42-1.72 2.68-2.9 6.01-2.9 9.22v12.87c0 7.89 5.16 12.26 12.86 12.26h53.1v-15.85h-25.45l25.45-14.92zm-51.3 31.95v-4.84c0-3.65 2.27-6.61 6.09-6.61 1.98 0 4.05.7 5.5 2.07 2.51 2.36 2.58 6.19 2.6 9.38zm45.09 229.61c-8.17-12.5-22.1-17.69-36.55-17.69h-25.74v7.82h20.8c10.12 0 20.01 3.93 26.93 11.45 4.35 4.72 7.09 10.38 9.05 16.43h11.73c-.89-6.45-2.61-12.5-6.22-18.01Zm-5.51-67.37c-1.65 5.12-3.82 9.94-7.15 14.2-6.93 8.84-17.68 13.68-28.83 13.68h-20.8v7.82h25.74c13 0 26.08-4.35 34.44-14.76 4.93-6.16 7.28-13.26 8.33-20.94zm-56.78 37.35v10.7h68.51v-10.7zm68.51-90.08v-16.68l-57.11 16.68c-5.63 1.65-9.45 5.12-9.45 11.33s3.82 9.71 9.45 11.34l57.11 16.7v-16.7l-12.2-3.33v-15.99zm-26.83 15.36-14.66-4.03 14.66-4zm-24.48-50.26v-12.24h-14.66v40.32h14.66v-12.24h51.31V677.2z" style="fill:#eaeaea;stroke:#c6c6c5;stroke-miterlimit:10;fill-rule:evenodd"/><path d="M498.07 554.97h19.06v295.69h-19.06z" style="stroke-width:1.87px;fill:#eaeaea;stroke:#c6c6c5;stroke-miterlimit:10"/><path d="M503.35 559.57h8.51v286.48h-8.51z" style="fill:url(#linear-gradient)"/><path d="M303.71 108.72h25.86l-12.93 118.59h-30.81z" class="cls-9"/><path d="m329.57 108.72-15.79-9.65-10.07 9.65z" class="cls-16"/><path d="m313.78 99.07-17.55 6.84 7.48 2.81zm-27.95 128.24-8.32 18.95 12.53 14.47 26.6-33.42z" class="cls-12"/><path d="M296.23 105.91c-.37 29.33-7.95 80.1-18.72 140.35l8.32-18.95 17.89-118.59-7.48-2.81Z" class="cls-20"/><path d="M621.72 108.72h-25.86l12.93 118.59h30.82z" class="cls-9"/><path d="m595.86 108.72 15.8-9.65 10.06 9.65z" class="cls-16"/><path d="m611.66 99.07 17.54 6.84-7.48 2.81zm27.95 128.24 8.32 18.95-12.54 14.47-26.6-33.42z" class="cls-12"/><path d="M629.2 105.91c.37 29.33 7.95 80.1 18.72 140.35l-8.32-18.95-17.89-118.59 7.48-2.81Z" class="cls-20"/><path d="m564.83 464.95-38.53-30.1 16.86-16.86 30.1 38.53zm-203.97 0 38.53-30.1-16.86-16.86-30.1 38.53zm0-218.69 38.53 30.11-16.86 16.86-30.1-38.54zm203.97 0-38.53 30.11 16.86 16.86 30.1-38.54z" class="cls-1"/><path d="M543.16 293.23v124.76l30.1 38.53V254.69zm-160.63 0v124.76l-30.1 38.53V254.69z" style="fill:#1e1e1e"/><path d="M360.86 246.26h203.97l-38.53 30.11H399.39zm38.53 188.59H526.3l38.53 30.1H360.86z" style="fill:#0d0d0d"/><path d="M586.01 352.77c0 1.46-.03 2.91-.09 4.36-.06 2.16-.2 4.31-.39 6.44-.25 2.88-.6 5.73-1.06 8.55-3.05 19.08-10.55 36.66-21.42 51.67-1.67 2.33-3.44 4.6-5.29 6.8-1.37 1.65-2.8 3.27-4.27 4.84-1.95 2.1-3.97 4.13-6.07 6.08-1.61 1.5-3.25 2.96-4.94 4.36-2.2 1.85-4.46 3.61-6.79 5.28-15.01 10.87-32.59 18.37-51.67 21.42-2.82.46-5.67.81-8.55 1.06-2.18.2-4.37.33-6.58.4-1.4.06-2.81.08-4.22.08s-2.92-.03-4.37-.09c-2.16-.06-4.31-.2-6.44-.39-2.88-.25-5.73-.6-8.55-1.07-19.08-3.04-36.67-10.55-51.67-21.41-2.33-1.67-4.59-3.43-6.79-5.28-1.65-1.37-3.27-2.8-4.84-4.27-2.1-1.95-4.13-3.97-6.08-6.07-1.5-1.61-2.96-3.25-4.36-4.94-1.85-2.2-3.62-4.47-5.29-6.8-10.87-15.01-18.37-32.59-21.42-51.67a115 115 0 0 1-1.06-8.55c-.19-2.13-.33-4.28-.39-6.44-.06-1.45-.09-2.9-.09-4.36s.02-2.83.08-4.23c.07-2.21.2-4.4.4-6.58.25-2.88.6-5.73 1.06-8.54 3.05-19.08 10.56-36.68 21.42-51.68 1.67-2.33 3.44-4.59 5.28-6.79 1.41-1.69 2.87-3.34 4.37-4.94 1.95-2.1 3.98-4.13 6.08-6.07 1.57-1.47 3.19-2.9 4.84-4.27 2.2-1.85 4.46-3.61 6.79-5.28 15-10.86 32.59-18.37 51.67-21.41 2.82-.47 5.67-.82 8.55-1.07 2.13-.19 4.28-.33 6.44-.39 1.45-.06 2.91-.09 4.37-.09s2.82.02 4.22.08c2.21.07 4.4.2 6.58.4 2.88.25 5.73.6 8.55 1.06 19.08 3.05 36.66 10.55 51.67 21.42 2.33 1.67 4.59 3.43 6.79 5.28 1.69 1.4 3.33 2.86 4.94 4.36 2.1 1.95 4.12 3.98 6.07 6.08 1.48 1.57 2.9 3.19 4.28 4.84 1.84 2.2 3.61 4.46 5.28 6.79 10.86 15 18.37 32.6 21.42 51.68.46 2.81.81 5.66 1.06 8.54.2 2.18.33 4.37.4 6.58.06 1.4.08 2.81.08 4.23" style="fill:#3a3a3a"/><circle cx="464.67" cy="352.77" r="99.43" style="fill:#262626"/><circle cx="464.67" cy="352.77" r="71.96" style="stroke-miterlimit:10;fill:none;stroke:#181818;stroke-width:4.91px"/><path d="m469.4 458.58-.51 15.45c-1.4.06-2.81.08-4.22.08s-2.92-.03-4.37-.09l-.37-15.44c0-2.62 2.12-4.74 4.74-4.74 1.31 0 2.49.53 3.34 1.39.86.85 1.39 2.04 1.39 3.35m-13.65-.61c0 .14 0 .28-.02.42l-1.87 15.24c-2.88-.25-5.73-.6-8.55-1.07l.98-15.01a4.746 4.746 0 0 1 5.14-4.3c2.47.23 4.32 2.3 4.32 4.72m28.27 14.6c-2.82.46-5.67.81-8.55 1.06l-1.87-15.24c-.01-.14-.02-.28-.02-.42 0-2.42 1.85-4.49 4.32-4.72 2.6-.23 4.9 1.69 5.14 4.3zM469.4 246.96c0 1.3-.53 2.49-1.39 3.35-.85.86-2.03 1.39-3.34 1.39-2.62 0-4.74-2.13-4.74-4.74l.37-15.44c1.45-.06 2.91-.09 4.37-.09s2.82.02 4.22.08zm-13.65.6c0 2.43-1.85 4.5-4.32 4.72-2.6.24-4.9-1.69-5.14-4.29l-.98-15.01c2.82-.47 5.67-.82 8.55-1.07l1.87 15.23c.01.14.02.28.02.42m28.27-14.59-.98 15.02c-.24 2.6-2.54 4.53-5.14 4.29a4.74 4.74 0 0 1-4.3-5.14l1.87-15.23c2.88.25 5.73.6 8.55 1.06m101.99 119.8c0 1.46-.03 2.91-.09 4.36l-15.44.37c-2.62 0-4.74-2.12-4.74-4.73 0-1.31.53-2.49 1.39-3.35.85-.86 2.04-1.39 3.35-1.39l15.45.51c.06 1.4.08 2.81.08 4.23m-.48 10.8c-.25 2.88-.6 5.73-1.06 8.55l-15.02-.98a4.735 4.735 0 0 1-4.3-5.14 4.74 4.74 0 0 1 5.14-4.3zm0-21.61-15.24 1.87c-.15 0-.29.02-.44.02-2.41 0-4.48-1.86-4.7-4.31a4.735 4.735 0 0 1 4.3-5.14l15.02-.98c.46 2.81.81 5.66 1.06 8.54m-221.94 10.81c0 2.61-2.12 4.73-4.73 4.73l-15.45-.37c-.06-1.45-.09-2.9-.09-4.36s.02-2.83.08-4.23l15.46-.51c1.3 0 2.49.53 3.34 1.39.86.86 1.39 2.04 1.39 3.35m.59 13.23c.23 2.61-1.69 4.91-4.29 5.14l-15.03.98a115 115 0 0 1-1.06-8.55l15.24-1.87c.14-.01.28-.02.42-.02 2.43 0 4.5 1.85 4.72 4.32m0-26.46a4.734 4.734 0 0 1-4.7 4.31c-.15 0-.29-.01-.44-.02l-15.24-1.87c.25-2.88.6-5.73 1.06-8.54l15.03.98c2.6.23 4.52 2.53 4.29 5.14m189.31-69.43-10.66 11.19a4.74 4.74 0 0 1-6.7 0c-.92-.92-1.38-2.14-1.38-3.35s.46-2.43 1.38-3.35l11.29-10.57c2.1 1.95 4.12 3.98 6.07 6.08m9.56 11.63-11.3 9.93a4.73 4.73 0 0 1-6.67-.6c-.74-.89-1.1-1.97-1.1-3.04 0-1.35.57-2.69 1.69-3.63l12.1-9.45c1.84 2.2 3.61 4.46 5.28 6.79m-20.57-22.07-9.44 12.09a4.75 4.75 0 0 1-6.68.6c-2-1.68-2.27-4.67-.59-6.67l9.92-11.3c2.33 1.67 4.59 3.43 6.79 5.28M393.2 430.94l-11.19 10.66c-2.1-1.95-4.13-3.97-6.08-6.07l10.57-11.29c.92-.92 2.14-1.39 3.35-1.39s2.43.47 3.35 1.39a4.74 4.74 0 0 1 0 6.7m10.37 8.91-9.93 11.3c-2.33-1.67-4.59-3.43-6.79-5.28l9.45-12.09c.93-1.12 2.28-1.7 3.63-1.7 1.08 0 2.15.36 3.04 1.1a4.74 4.74 0 0 1 .6 6.67m-18.21-22.35c0 1.36-.58 2.7-1.7 3.64l-12.09 9.45c-1.85-2.2-3.62-4.47-5.29-6.8l11.3-9.92a4.742 4.742 0 0 1 7.78 3.63m7.84-136.2c-.92.92-2.14 1.39-3.35 1.39s-2.43-.47-3.35-1.39l-10.57-11.29c1.95-2.1 3.98-4.13 6.08-6.07l11.19 10.66a4.74 4.74 0 0 1 0 6.7m9.77-8.94c-.89.74-1.96 1.1-3.04 1.1-1.35 0-2.7-.58-3.63-1.7l-9.45-12.09c2.2-1.85 4.46-3.61 6.79-5.28l9.93 11.3a4.74 4.74 0 0 1-.6 6.67m-17.61 15.67a4.742 4.742 0 0 1-7.78 3.64l-11.3-9.93c1.67-2.33 3.44-4.59 5.28-6.79l12.1 9.45c1.12.94 1.7 2.28 1.7 3.63m168.13 147.4c-1.95 2.1-3.97 4.13-6.07 6.08l-11.29-10.57c-.92-.92-1.38-2.14-1.38-3.35s.46-2.43 1.38-3.35a4.74 4.74 0 0 1 6.7 0zm9.56-11.64c-1.67 2.33-3.44 4.6-5.29 6.8l-12.09-9.45a4.72 4.72 0 0 1-1.69-3.64c0-1.07.36-2.15 1.1-3.03a4.73 4.73 0 0 1 6.67-.6zm-20.57 22.08c-2.2 1.85-4.46 3.61-6.79 5.28l-9.92-11.3a4.74 4.74 0 0 1 .59-6.67 4.75 4.75 0 0 1 6.68.6z" style="fill:#303030"/><path d="M571.08 950.27H354.61l-1.02-5.32h218.5z" style="fill:#c6c6c5"/></svg>