<svg xmlns="http://www.w3.org/2000/svg" id="Layer_1" data-name="Layer 1" viewBox="0 0 1000 1000"><defs><style>.cls-5{fill:#e2ac32}.cls-7{fill:none;stroke:#3a3a3a;stroke-miterlimit:10;stroke-width:10.96px}</style></defs><rect width="887.37" height="960" x="56.31" y="20" rx="104.52" ry="104.52" style="fill:#333"/><rect width="845.88" height="915.11" x="77.06" y="42.44" rx="82.75" ry="82.75" style="fill:#282828"/><circle cx="493.07" cy="529.28" r="290.16" style="fill:#1c1e1e"/><circle cx="493.07" cy="529.28" r="146.73" class="cls-7"/><circle cx="493.07" cy="529.28" r="198.08" class="cls-7"/><circle cx="493.07" cy="529.28" r="237.74" class="cls-7"/><path d="M832.22 441.67c-23.41-90.58-80.69-166.64-161.28-214.15-80.6-47.51-174.88-60.78-265.47-37.38-8.38 2.16-16.63 4.62-24.75 7.36l-71.53-93.34c-39.8-51.94-114.17-61.78-166.11-21.98S81.3 196.35 121.1 248.29L195.21 345c-1.31 2.13-2.62 4.26-3.89 6.42-47.51 80.6-60.78 174.88-37.38 265.47s80.68 166.64 161.29 214.15c54.61 32.19 115.49 48.66 177.26 48.66 29.4 0 59-3.73 88.21-11.28 90.59-23.4 166.64-80.68 214.15-161.28s60.78-174.88 37.38-265.47ZM731.46 669.79c-37.53 63.68-97.61 108.93-169.18 127.41-23.13 5.97-46.32 8.83-69.17 8.83-123.12 0-235.77-82.93-267.96-207.53-38.16-147.73 50.97-298.97 198.71-337.14 23.13-5.97 46.32-8.83 69.17-8.83 123.12 0 235.77 82.93 267.96 207.53 18.49 71.56 8 146.04-29.53 209.72Z" style="fill:#171717"/><path d="M492.85 852.25c-6.46 0-13.01-.2-19.46-.59l1.14-18.75c12.67.77 25.56.73 38.2-.1l1.23 18.74c-6.99.46-14.1.7-21.12.7Zm-59.71-5.62a323 323 0 0 1-39.29-10.05l5.79-17.87c12.08 3.92 24.53 7.1 37 9.46l-3.5 18.45Zm121.05-.28-3.58-18.44c6.19-1.2 12.42-2.61 18.52-4.18 6.21-1.6 12.42-3.42 18.47-5.39l5.82 17.86c-6.41 2.09-13 4.01-19.59 5.72-6.48 1.67-13.09 3.17-19.65 4.44ZM356.13 821.7a327 327 0 0 1-35.56-19.47l10.03-15.88a306 306 0 0 0 33.5 18.34l-7.98 17.01Zm274.98-.46-8.01-16.99a303 303 0 0 0 33.43-18.43l10.09 15.84a321 321 0 0 1-35.51 19.57Zm-343.39-42.75a324 324 0 0 1-29.62-27.66l13.65-12.9c8.71 9.22 18.09 17.98 27.9 26.05l-11.93 14.5Zm411.63-.71-12-14.44a304 304 0 0 0 27.76-26.19l13.72 12.82a324 324 0 0 1-29.47 27.81Zm-467.17-58.11a322 322 0 0 1-21.79-34.19l16.45-9.07a302 302 0 0 0 20.52 32.19l-15.17 11.08Zm522.41-.99-15.22-11.01a306 306 0 0 0 20.41-32.28l16.47 9.03a327 327 0 0 1-21.66 34.26m-561.51-69.87a327 327 0 0 1-12.58-38.53l18.18-4.71a309 309 0 0 0 11.85 36.31l-17.46 6.93Zm600.4-1.09-17.47-6.9c4.67-11.81 8.63-24.04 11.78-36.33l18.19 4.66a323 323 0 0 1-12.51 38.57Zm-620.69-77.24c-1.74-13.39-2.64-27-2.68-40.47l18.78-.06c.04 12.67.89 25.49 2.52 38.1l-18.63 2.42Zm640.77-1.19-18.64-2.33c1.55-12.38 2.33-24.99 2.33-37.46v-.69h18.78v.69c0 13.25-.83 26.64-2.48 39.79ZM191.2 491.83l-18.64-2.32c1.66-13.37 4.2-26.78 7.54-39.86l18.2 4.65a306 306 0 0 0-7.1 37.53m603.56-1.1a308 308 0 0 0-7.25-37.51l-.11-.43 18.17-4.75.14.55c3.36 13.02 5.95 26.41 7.67 39.73l-18.63 2.41Zm-584.71-72.77-17.47-6.89a324 324 0 0 1 17.2-36.71l16.48 9.01a307 307 0 0 0-16.21 34.59m565.47-1.49a304 304 0 0 0-16.32-34.51l16.44-9.09a323 323 0 0 1 17.33 36.65l-17.45 6.94Zm-528.88-65.39-15.23-11a324 324 0 0 1 25.74-31.31l13.73 12.81c-8.65 9.28-16.81 19.2-24.25 29.49Zm492.02-1.3a305 305 0 0 0-24.42-29.32l13.64-12.91c9.27 9.8 17.99 20.27 25.94 31.14zm-440.04-54.41-12.02-14.43a323 323 0 0 1 32.72-23.91l10.1 15.83a303 303 0 0 0-30.8 22.51m387.7-.93c-9.8-8.05-20.22-15.57-30.96-22.35l10.02-15.89c11.4 7.19 22.46 15.17 32.87 23.72l-11.92 14.51Zm-323.48-40.03-8.02-16.98a326 326 0 0 1 37.67-14.98l5.83 17.85c-12.09 3.95-24.03 8.7-35.48 14.11m258.99-.64a306 306 0 0 0-35.54-14l5.77-17.87c12.82 4.14 25.51 9.14 37.73 14.86zM435.3 230.7l-3.59-18.44a326 326 0 0 1 40.21-5.24l1.25 18.74c-12.64.84-25.38 2.5-37.87 4.93Zm113.98-.36a302 302 0 0 0-37.9-4.7l1.12-18.75c13.46.81 27 2.49 40.26 4.99z" class="cls-5"/><path d="m492.53 447 76.37 41.64.1 81.54-76.46 42.12-76.47-42.14 2.59-82.35z" style="fill:#565559"/><circle cx="214.71" cy="175.48" r="87.01" style="fill:#dc493a"/><path d="M786.47 144.4c0 9.85-.05 19.76.05 29.61 4.28-.05 8.61 0 12.95 0V81.16h-13zm58.65 14.39a45.7 45.7 0 0 1-17.44-10.42c-5.16-4.9-9.13-11.04-11.86-17.59-2.89-6.81-4.18-14.13-5.11-21.41-1.13-9.39-1.44-18.83-1.39-28.27h-7.02v15.22c-.05 8.98.26 17.95 1.03 26.88.41 4.13.88 8.31 1.96 12.33s2.68 7.89 4.75 11.56c2.63 4.64 6.14 8.77 10.06 12.43 2.37 2.17 4.85 4.28 7.58 6.04 3.71 2.42 7.79 4.33 12.02 5.78 3.56 1.19 7.17 2.17 10.88 2.63v-13.88c-1.81-.26-3.66-.72-5.47-1.29Z" class="cls-5"/></svg>