<?xml version="1.0" encoding="UTF-8"?>
<svg id="Layer_1" data-name="Layer 1" xmlns="http://www.w3.org/2000/svg" viewBox="0 0 1000 1000">
  <defs>
    <style>
      .cls-1 {
        fill: #89938f;
      }

      .cls-2 {
        fill: #7c7c74;
      }

      .cls-3 {
        fill: #6b6664;
        stroke: #93938c;
        stroke-miterlimit: 10;
        stroke-width: 1.5px;
      }

      .cls-4 {
        fill: #393c72;
      }

      .cls-5 {
        fill: #60625d;
      }

      .cls-6 {
        fill: #4d4d4e;
      }

      .cls-7 {
        fill: #8c8c85;
      }

      .cls-8 {
        fill: #d0dadd;
      }

      .cls-9 {
        fill: #060604;
      }

      .cls-10 {
        fill: #5c5b52;
      }

      .cls-11 {
        fill: #94938a;
      }

      .cls-12 {
        fill: #93938c;
      }
    </style>
  </defs>
  <rect class="cls-10" x="57.16" y="473.81" width="886.33" height="106.63"/>
  <rect class="cls-2" x="44.74" y="567.28" width="911.85" height="216.42" rx="4.95" ry="4.95"/>
  <rect class="cls-7" x="44.74" y="485.64" width="911.85" height="74.78" rx="4.95" ry="4.95"/>
  <rect class="cls-9" x="778.55" y="585.83" width="145.82" height="179.81" rx="2.28" ry="2.28"/>
  <path class="cls-9" d="M557.2,765.49H122.53c-.45,0-.82-.36-.82-.82-.01-4.76-.08-28.91-.08-33.28,0-.38-.31-.68-.68-.68l-44.33.08c-.62,0-1.12-.5-1.13-1.11l-1.27-141.72c0-1.26,1.02-2.28,2.28-2.28h561.37c1.26,0,2.28,1.02,2.28,2.28v106.75h-62.41c-.72,0-1.3.58-1.3,1.3l-.07,32.3c0,.72-.58,1.3-1.3,1.3h-15.32c-.72,0-1.3.58-1.3,1.3l.07,33.29c0,.72-.58,1.3-1.3,1.3Z"/>
  <rect class="cls-9" x="654.65" y="585.83" width="108.86" height="108.86" rx="2.28" ry="2.28"/>
  <path class="cls-9" d="M679.04,524.57H103.24c-.34,0-.66.14-.88.4l-31.37,35.5c-.67.76-.13,1.96.88,1.96h575.8c.34,0,.66-.14.88-.4l31.37-35.5c.67-.76.13-1.96-.88-1.96Z"/>
  <g>
    <path class="cls-1" d="M736.19,525.05c-.12,0-.22-.06-.27-.18-.1-.26.09-.74.43-1.07l19.4-18.66c.16-.16.33-.24.47-.24h180.98c.12,0,.22.06.27.18.1.26-.09.74-.43,1.07l-19.4,18.67c-.16.16-.33.24-.47.24h-180.98Z"/>
    <path class="cls-6" d="M937.2,505.02c.32,0,.17.63-.25,1.03l-19.4,18.66c-.14.13-.28.21-.38.21h-180.98c-.32,0-.17-.63.25-1.03l19.4-18.66c.14-.13.28-.21.38-.21h180.98M937.2,504.77h-180.98c-.22,0-.42.15-.56.28l-19.4,18.66c-.33.32-.6.86-.46,1.2.06.16.21.26.38.26h180.98c.22,0,.43-.15.56-.28l19.4-18.66c.33-.32.6-.86.46-1.2-.06-.16-.21-.26-.38-.26h0Z"/>
  </g>
  <polygon class="cls-7" points="158 526.7 103.92 526.7 74.15 560.42 128.23 560.42 158 526.7"/>
  <polygon class="cls-7" points="215.65 526.7 161.58 526.7 131.81 560.42 185.88 560.42 215.65 526.7"/>
  <polygon class="cls-7" points="273.31 526.7 219.23 526.7 189.46 560.42 243.54 560.42 273.31 526.7"/>
  <polygon class="cls-7" points="676.89 526.7 622.81 526.7 593.04 560.42 647.11 560.42 676.89 526.7"/>
  <polygon class="cls-7" points="619.23 526.7 565.16 526.7 535.38 560.42 589.46 560.42 619.23 526.7"/>
  <polygon class="cls-7" points="561.58 526.7 507.5 526.7 477.73 560.42 531.81 560.42 561.58 526.7"/>
  <polygon class="cls-7" points="503.92 526.7 449.85 526.7 420.08 560.42 474.15 560.42 503.92 526.7"/>
  <polygon class="cls-7" points="446.27 526.7 392.19 526.7 362.42 560.42 416.5 560.42 446.27 526.7"/>
  <polygon class="cls-7" points="388.62 526.7 334.54 526.7 304.77 560.42 358.84 560.42 388.62 526.7"/>
  <polygon class="cls-7" points="330.96 526.7 276.89 526.7 247.11 560.42 301.19 560.42 330.96 526.7"/>
  <g>
    <rect class="cls-5" x="475.02" y="588.21" width="33.6" height="33.6" rx="1.15" ry="1.15"/>
    <path class="cls-11" d="M502.24,614.64c-6.95,1.11-13.89,1.11-20.83,0-1.08,0-1.96-.87-1.96-1.96v-20.83c0-1.08.87-1.96,1.96-1.96h20.83c1.08,0,1.96.87,1.96,1.96v20.83c0,1.08-.87,1.96-1.96,1.96Z"/>
  </g>
  <g>
    <rect class="cls-5" x="438.87" y="588.21" width="33.6" height="33.6" rx="1.15" ry="1.15"/>
    <path class="cls-11" d="M466.09,614.64c-6.95,1.11-13.89,1.11-20.83,0-1.08,0-1.96-.87-1.96-1.96v-20.83c0-1.08.87-1.96,1.96-1.96h20.83c1.08,0,1.96.87,1.96,1.96v20.83c0,1.08-.87,1.96-1.96,1.96Z"/>
  </g>
  <g>
    <rect class="cls-5" x="547.06" y="588.21" width="33.6" height="33.6" rx="1.15" ry="1.15"/>
    <path class="cls-11" d="M574.27,614.64c-6.95,1.11-13.89,1.11-20.83,0-1.08,0-1.96-.87-1.96-1.96v-20.83c0-1.08.87-1.96,1.96-1.96h20.83c1.08,0,1.96.87,1.96,1.96v20.83c0,1.08-.87,1.96-1.96,1.96Z"/>
  </g>
  <g>
    <rect class="cls-5" x="603.95" y="623.5" width="33.6" height="33.6" rx="1.15" ry="1.15"/>
    <path class="cls-11" d="M631.16,649.93c-6.95,1.11-13.89,1.11-20.83,0-1.08,0-1.96-.87-1.96-1.96v-20.83c0-1.08.87-1.96,1.96-1.96h20.83c1.08,0,1.96.87,1.96,1.96v20.83c0,1.08-.87,1.96-1.96,1.96Z"/>
  </g>
  <path class="cls-5" d="M600.44,623.5h-31.15c-.68,0-1.22.55-1.22,1.22v34.06h-19.27c-.81,0-1.46.65-1.46,1.46v30.68c0,.81.65,1.46,1.46,1.46h51.41c.81,0,1.46-.65,1.46-1.46v-66.2c0-.68-.55-1.22-1.22-1.22Z"/>
  <g>
    <rect class="cls-5" x="603.95" y="658.78" width="33.6" height="33.6" rx="1.15" ry="1.15"/>
    <path class="cls-11" d="M631.16,685.21c-6.95,1.11-13.89,1.11-20.83,0-1.08,0-1.96-.87-1.96-1.96v-20.83c0-1.08.87-1.96,1.96-1.96h20.83c1.08,0,1.96.87,1.96,1.96v20.83c0,1.08-.87,1.96-1.96,1.96Z"/>
  </g>
  <g>
    <rect class="cls-5" x="583.22" y="588.21" width="54.33" height="33.6" rx="1.46" ry="1.46"/>
    <path class="cls-11" d="M629.82,614.64c-12.97,1.11-25.92,1.11-38.88,0-2.02,0-3.65-.87-3.65-1.96v-20.83c0-1.08,1.63-1.96,3.65-1.96h38.88c2.02,0,3.65.87,3.65,1.96v20.83c0,1.08-1.63,1.96-3.65,1.96Z"/>
  </g>
  <g>
    <rect class="cls-5" x="77.38" y="623.5" width="54.95" height="33.6" rx="1.42" ry="1.42"/>
    <path class="cls-11" d="M124.51,649.93c-13.11,1.11-26.21,1.11-39.33,0-2.05,0-3.7-.87-3.7-1.96v-20.83c0-1.08,1.65-1.96,3.7-1.96h39.33c2.05,0,3.7.87,3.7,1.96v20.83c0,1.08-1.65,1.96-3.7,1.96Z"/>
  </g>
  <rect class="cls-5" x="77.37" y="659.1" width="69.75" height="33.6" rx="1.62" ry="1.62"/>
  <path class="cls-11" d="M138.5,685.53c-17.51,1.11-35,1.11-52.52,0-2.73,0-4.93-.87-4.93-1.96v-20.83c0-1.08,2.2-1.96,4.93-1.96h52.52c2.73,0,4.93.87,4.93,1.96v20.83c0,1.08-2.2,1.96-4.93,1.96Z"/>
  <rect class="cls-5" x="780.48" y="729.35" width="69.75" height="33.6" rx="1.66" ry="1.66"/>
  <rect class="cls-5" x="870.45" y="712.14" width="69.75" height="33.6" rx="1.66" ry="1.66" transform="translate(1634.27 -176.39) rotate(90)"/>
  <path class="cls-11" d="M841.61,755.78c-17.51,1.11-35,1.11-52.52,0-2.73,0-4.93-.87-4.93-1.96v-20.83c0-1.08,2.2-1.96,4.93-1.96h52.52c2.73,0,4.93.87,4.93,1.96v20.83c0,1.08-2.2,1.96-4.93,1.96Z"/>
  <rect class="cls-5" x="77.76" y="694.7" width="82.84" height="33.6" rx="1.77" ry="1.77"/>
  <path class="cls-11" d="M150.35,721.13c-20.8,1.11-41.57,1.11-62.37,0-3.25,0-5.86-.87-5.86-1.96v-20.83c0-1.08,2.61-1.96,5.86-1.96h62.37c3.25,0,5.86.87,5.86,1.96v20.83c0,1.08-2.61,1.96-5.86,1.96Z"/>
  <g>
    <rect class="cls-5" x="510.91" y="588.21" width="33.6" height="33.6" rx="1.15" ry="1.15"/>
    <path class="cls-11" d="M538.13,614.64c-6.95,1.11-13.89,1.11-20.83,0-1.08,0-1.96-.87-1.96-1.96v-20.83c0-1.08.87-1.96,1.96-1.96h20.83c1.08,0,1.96.87,1.96,1.96v20.83c0,1.08-.87,1.96-1.96,1.96Z"/>
  </g>
  <g>
    <rect class="cls-5" x="816.67" y="588.21" width="33.6" height="33.6" rx="1.15" ry="1.15"/>
    <path class="cls-11" d="M843.89,614.64c-6.95,1.11-13.89,1.11-20.83,0-1.08,0-1.96-.87-1.96-1.96v-20.83c0-1.08.87-1.96,1.96-1.96h20.83c1.08,0,1.96.87,1.96,1.96v20.83c0,1.08-.87,1.96-1.96,1.96Z"/>
  </g>
  <g>
    <rect class="cls-5" x="780.52" y="588.21" width="33.6" height="33.6" rx="1.15" ry="1.15"/>
    <path class="cls-11" d="M807.74,614.64c-6.95,1.11-13.89,1.11-20.83,0-1.08,0-1.96-.87-1.96-1.96v-20.83c0-1.08.87-1.96,1.96-1.96h20.83c1.08,0,1.96.87,1.96,1.96v20.83c0,1.08-.87,1.96-1.96,1.96Z"/>
  </g>
  <g>
    <rect class="cls-5" x="888.71" y="588.21" width="33.6" height="33.6" rx="1.15" ry="1.15"/>
    <path class="cls-11" d="M915.92,614.64c-6.95,1.11-13.89,1.11-20.83,0-1.08,0-1.96-.87-1.96-1.96v-20.83c0-1.08.87-1.96,1.96-1.96h20.83c1.08,0,1.96.87,1.96,1.96v20.83c0,1.08-.87,1.96-1.96,1.96Z"/>
  </g>
  <g>
    <rect class="cls-5" x="852.56" y="588.21" width="33.6" height="33.6" rx="1.15" ry="1.15"/>
    <path class="cls-11" d="M879.78,614.64c-6.95,1.11-13.89,1.11-20.83,0-1.08,0-1.96-.87-1.96-1.96v-20.83c0-1.08.87-1.96,1.96-1.96h20.83c1.08,0,1.96.87,1.96,1.96v20.83c0,1.08-.87,1.96-1.96,1.96Z"/>
  </g>
  <g>
    <rect class="cls-5" x="816.8" y="623.5" width="33.6" height="33.6" rx="1.15" ry="1.15"/>
    <path class="cls-11" d="M844.02,649.93c-6.95,1.11-13.89,1.11-20.83,0-1.08,0-1.96-.87-1.96-1.96v-20.83c0-1.08.87-1.96,1.96-1.96h20.83c1.08,0,1.96.87,1.96,1.96v20.83c0,1.08-.87,1.96-1.96,1.96Z"/>
  </g>
  <g>
    <rect class="cls-5" x="780.65" y="623.5" width="33.6" height="33.6" rx="1.15" ry="1.15"/>
    <path class="cls-11" d="M807.87,649.93c-6.95,1.11-13.89,1.11-20.83,0-1.08,0-1.96-.87-1.96-1.96v-20.83c0-1.08.87-1.96,1.96-1.96h20.83c1.08,0,1.96.87,1.96,1.96v20.83c0,1.08-.87,1.96-1.96,1.96Z"/>
  </g>
  <g>
    <rect class="cls-5" x="888.84" y="623.5" width="33.6" height="33.6" rx="1.15" ry="1.15"/>
    <path class="cls-11" d="M916.05,649.93c-6.95,1.11-13.89,1.11-20.83,0-1.08,0-1.96-.87-1.96-1.96v-20.83c0-1.08.87-1.96,1.96-1.96h20.83c1.08,0,1.96.87,1.96,1.96v20.83c0,1.08-.87,1.96-1.96,1.96Z"/>
  </g>
  <g>
    <rect class="cls-5" x="852.69" y="623.5" width="33.6" height="33.6" rx="1.15" ry="1.15"/>
    <path class="cls-11" d="M879.91,649.93c-6.95,1.11-13.89,1.11-20.83,0-1.08,0-1.96-.87-1.96-1.96v-20.83c0-1.08.87-1.96,1.96-1.96h20.83c1.08,0,1.96.87,1.96,1.96v20.83c0,1.08-.87,1.96-1.96,1.96Z"/>
  </g>
  <g>
    <rect class="cls-5" x="816.8" y="658.78" width="33.6" height="33.6" rx="1.15" ry="1.15"/>
    <path class="cls-11" d="M844.02,685.21c-6.95,1.11-13.89,1.11-20.83,0-1.08,0-1.96-.87-1.96-1.96v-20.83c0-1.08.87-1.96,1.96-1.96h20.83c1.08,0,1.96.87,1.96,1.96v20.83c0,1.08-.87,1.96-1.96,1.96Z"/>
  </g>
  <g>
    <rect class="cls-5" x="780.65" y="658.78" width="33.6" height="33.6" rx="1.15" ry="1.15"/>
    <path class="cls-11" d="M807.87,685.21c-6.95,1.11-13.89,1.11-20.83,0-1.08,0-1.96-.87-1.96-1.96v-20.83c0-1.08.87-1.96,1.96-1.96h20.83c1.08,0,1.96.87,1.96,1.96v20.83c0,1.08-.87,1.96-1.96,1.96Z"/>
  </g>
  <g>
    <rect class="cls-5" x="888.84" y="658.78" width="33.6" height="33.6" rx="1.15" ry="1.15"/>
    <path class="cls-11" d="M916.05,685.21c-6.95,1.11-13.89,1.11-20.83,0-1.08,0-1.96-.87-1.96-1.96v-20.83c0-1.08.87-1.96,1.96-1.96h20.83c1.08,0,1.96.87,1.96,1.96v20.83c0,1.08-.87,1.96-1.96,1.96Z"/>
  </g>
  <g>
    <rect class="cls-5" x="852.69" y="658.78" width="33.6" height="33.6" rx="1.15" ry="1.15"/>
    <path class="cls-11" d="M879.91,685.21c-6.95,1.11-13.89,1.11-20.83,0-1.08,0-1.96-.87-1.96-1.96v-20.83c0-1.08.87-1.96,1.96-1.96h20.83c1.08,0,1.96.87,1.96,1.96v20.83c0,1.08-.87,1.96-1.96,1.96Z"/>
  </g>
  <g>
    <rect class="cls-5" x="816.63" y="694.06" width="33.6" height="33.6" rx="1.15" ry="1.15"/>
    <path class="cls-11" d="M843.85,720.49c-6.95,1.11-13.89,1.11-20.83,0-1.08,0-1.96-.87-1.96-1.96v-20.83c0-1.08.87-1.96,1.96-1.96h20.83c1.08,0,1.96.87,1.96,1.96v20.83c0,1.08-.87,1.96-1.96,1.96Z"/>
  </g>
  <g>
    <rect class="cls-5" x="780.48" y="694.06" width="33.6" height="33.6" rx="1.15" ry="1.15"/>
    <path class="cls-11" d="M807.7,720.49c-6.95,1.11-13.89,1.11-20.83,0-1.08,0-1.96-.87-1.96-1.96v-20.83c0-1.08.87-1.96,1.96-1.96h20.83c1.08,0,1.96.87,1.96,1.96v20.83c0,1.08-.87,1.96-1.96,1.96Z"/>
  </g>
  <g>
    <rect class="cls-5" x="852.52" y="694.06" width="33.6" height="33.6" rx="1.15" ry="1.15"/>
    <path class="cls-11" d="M879.74,720.49c-6.95,1.11-13.89,1.11-20.83,0-1.08,0-1.96-.87-1.96-1.96v-20.83c0-1.08.87-1.96,1.96-1.96h20.83c1.08,0,1.96.87,1.96,1.96v20.83c0,1.08-.87,1.96-1.96,1.96Z"/>
    <path class="cls-11" d="M915.75,695.75h-20.83c-1.08,0-1.96.87-1.96,1.96v56.12c0,1.08.87,1.96,1.96,1.96,6.95,1.11,13.89,1.11,20.83,0,1.08,0,1.96-.87,1.96-1.96v-56.12c0-1.08-.87-1.96-1.96-1.96Z"/>
  </g>
  <g>
    <rect class="cls-5" x="852.52" y="729.35" width="33.6" height="33.6" rx="1.15" ry="1.15"/>
    <path class="cls-11" d="M879.74,755.78c-6.95,1.11-13.89,1.11-20.83,0-1.08,0-1.96-.87-1.96-1.96v-20.83c0-1.08.87-1.96,1.96-1.96h20.83c1.08,0,1.96.87,1.96,1.96v20.83c0,1.08-.87,1.96-1.96,1.96Z"/>
  </g>
  <g>
    <rect class="cls-5" x="656.33" y="623.5" width="33.6" height="33.6" rx="1.15" ry="1.15"/>
    <path class="cls-11" d="M683.55,649.93c-6.95,1.11-13.89,1.11-20.83,0-1.08,0-1.96-.87-1.96-1.96v-20.83c0-1.08.87-1.96,1.96-1.96h20.83c1.08,0,1.96.87,1.96,1.96v20.83c0,1.08-.87,1.96-1.96,1.96Z"/>
  </g>
  <g>
    <rect class="cls-5" x="728.37" y="623.5" width="33.6" height="33.6" rx="1.15" ry="1.15"/>
    <path class="cls-11" d="M755.58,649.93c-6.95,1.11-13.89,1.11-20.83,0-1.08,0-1.96-.87-1.96-1.96v-20.83c0-1.08.87-1.96,1.96-1.96h20.83c1.08,0,1.96.87,1.96,1.96v20.83c0,1.08-.87,1.96-1.96,1.96Z"/>
  </g>
  <g>
    <rect class="cls-5" x="692.22" y="623.5" width="33.6" height="33.6" rx="1.15" ry="1.15"/>
    <path class="cls-11" d="M719.44,649.93c-6.95,1.11-13.89,1.11-20.83,0-1.08,0-1.96-.87-1.96-1.96v-20.83c0-1.08.87-1.96,1.96-1.96h20.83c1.08,0,1.96.87,1.96,1.96v20.83c0,1.08-.87,1.96-1.96,1.96Z"/>
  </g>
  <g>
    <rect class="cls-5" x="656.2" y="658.78" width="33.6" height="33.6" rx="1.15" ry="1.15"/>
    <path class="cls-11" d="M683.42,685.21c-6.95,1.11-13.89,1.11-20.83,0-1.08,0-1.96-.87-1.96-1.96v-20.83c0-1.08.87-1.96,1.96-1.96h20.83c1.08,0,1.96.87,1.96,1.96v20.83c0,1.08-.87,1.96-1.96,1.96Z"/>
  </g>
  <g>
    <rect class="cls-5" x="728.23" y="658.78" width="33.6" height="33.6" rx="1.15" ry="1.15"/>
    <path class="cls-11" d="M755.45,685.21c-6.95,1.11-13.89,1.11-20.83,0-1.08,0-1.96-.87-1.96-1.96v-20.83c0-1.08.87-1.96,1.96-1.96h20.83c1.08,0,1.96.87,1.96,1.96v20.83c0,1.08-.87,1.96-1.96,1.96Z"/>
  </g>
  <g>
    <rect class="cls-5" x="692.08" y="658.78" width="33.6" height="33.6" rx="1.15" ry="1.15"/>
    <path class="cls-11" d="M719.3,685.21c-6.95,1.11-13.89,1.11-20.83,0-1.08,0-1.96-.87-1.96-1.96v-20.83c0-1.08.87-1.96,1.96-1.96h20.83c1.08,0,1.96.87,1.96,1.96v20.83c0,1.08-.87,1.96-1.96,1.96Z"/>
  </g>
  <g>
    <rect class="cls-5" x="402.73" y="588.21" width="33.6" height="33.6" rx="1.15" ry="1.15"/>
    <path class="cls-11" d="M429.94,614.64c-6.95,1.11-13.89,1.11-20.83,0-1.08,0-1.96-.87-1.96-1.96v-20.83c0-1.08.87-1.96,1.96-1.96h20.83c1.08,0,1.96.87,1.96,1.96v20.83c0,1.08-.87,1.96-1.96,1.96Z"/>
  </g>
  <g>
    <rect class="cls-5" x="366.58" y="588.21" width="33.6" height="33.6" rx="1.15" ry="1.15"/>
    <path class="cls-11" d="M393.8,614.64c-6.95,1.11-13.89,1.11-20.83,0-1.08,0-1.96-.87-1.96-1.96v-20.83c0-1.08.87-1.96,1.96-1.96h20.83c1.08,0,1.96.87,1.96,1.96v20.83c0,1.08-.87,1.96-1.96,1.96Z"/>
  </g>
  <g>
    <rect class="cls-5" x="330.42" y="588.21" width="33.6" height="33.6" rx="1.15" ry="1.15"/>
    <path class="cls-11" d="M357.64,614.64c-6.95,1.11-13.89,1.11-20.83,0-1.08,0-1.96-.87-1.96-1.96v-20.83c0-1.08.87-1.96,1.96-1.96h20.83c1.08,0,1.96.87,1.96,1.96v20.83c0,1.08-.87,1.96-1.96,1.96Z"/>
  </g>
  <g>
    <rect class="cls-5" x="294.28" y="588.21" width="33.6" height="33.6" rx="1.15" ry="1.15"/>
    <path class="cls-11" d="M321.49,614.64c-6.95,1.11-13.89,1.11-20.83,0-1.08,0-1.96-.87-1.96-1.96v-20.83c0-1.08.87-1.96,1.96-1.96h20.83c1.08,0,1.96.87,1.96,1.96v20.83c0,1.08-.87,1.96-1.96,1.96Z"/>
  </g>
  <g>
    <rect class="cls-5" x="258.13" y="588.21" width="33.6" height="33.6" rx="1.15" ry="1.15"/>
    <path class="cls-11" d="M285.35,614.64c-6.95,1.11-13.89,1.11-20.83,0-1.08,0-1.96-.87-1.96-1.96v-20.83c0-1.08.87-1.96,1.96-1.96h20.83c1.08,0,1.96.87,1.96,1.96v20.83c0,1.08-.87,1.96-1.96,1.96Z"/>
  </g>
  <g>
    <rect class="cls-5" x="221.98" y="588.21" width="33.6" height="33.6" rx="1.15" ry="1.15"/>
    <path class="cls-11" d="M249.2,614.64c-6.95,1.11-13.89,1.11-20.83,0-1.08,0-1.96-.87-1.96-1.96v-20.83c0-1.08.87-1.96,1.96-1.96h20.83c1.08,0,1.96.87,1.96,1.96v20.83c0,1.08-.87,1.96-1.96,1.96Z"/>
  </g>
  <g>
    <rect class="cls-5" x="185.83" y="588.21" width="33.6" height="33.6" rx="1.15" ry="1.15"/>
    <path class="cls-11" d="M213.04,614.64c-6.95,1.11-13.89,1.11-20.83,0-1.08,0-1.96-.87-1.96-1.96v-20.83c0-1.08.87-1.96,1.96-1.96h20.83c1.08,0,1.96.87,1.96,1.96v20.83c0,1.08-.87,1.96-1.96,1.96Z"/>
  </g>
  <g>
    <rect class="cls-5" x="149.68" y="588.21" width="33.6" height="33.6" rx="1.15" ry="1.15"/>
    <path class="cls-11" d="M176.9,614.64c-6.95,1.11-13.89,1.11-20.83,0-1.08,0-1.96-.87-1.96-1.96v-20.83c0-1.08.87-1.96,1.96-1.96h20.83c1.08,0,1.96.87,1.96,1.96v20.83c0,1.08-.87,1.96-1.96,1.96Z"/>
  </g>
  <g>
    <rect class="cls-5" x="113.53" y="588.21" width="33.6" height="33.6" rx="1.15" ry="1.15"/>
    <path class="cls-11" d="M140.75,614.64c-6.95,1.11-13.89,1.11-20.83,0-1.08,0-1.96-.87-1.96-1.96v-20.83c0-1.08.87-1.96,1.96-1.96h20.83c1.08,0,1.96.87,1.96,1.96v20.83c0,1.08-.87,1.96-1.96,1.96Z"/>
  </g>
  <g>
    <rect class="cls-5" x="496.29" y="623.5" width="33.6" height="33.6" rx="1.15" ry="1.15"/>
    <path class="cls-11" d="M523.51,649.93c-6.95,1.11-13.89,1.11-20.83,0-1.08,0-1.96-.87-1.96-1.96v-20.83c0-1.08.87-1.96,1.96-1.96h20.83c1.08,0,1.96.87,1.96,1.96v20.83c0,1.08-.87,1.96-1.96,1.96Z"/>
  </g>
  <g>
    <rect class="cls-5" x="460.14" y="623.5" width="33.6" height="33.6" rx="1.15" ry="1.15"/>
    <path class="cls-11" d="M487.36,649.93c-6.95,1.11-13.89,1.11-20.83,0-1.08,0-1.96-.87-1.96-1.96v-20.83c0-1.08.87-1.96,1.96-1.96h20.83c1.08,0,1.96.87,1.96,1.96v20.83c0,1.08-.87,1.96-1.96,1.96Z"/>
  </g>
  <g>
    <rect class="cls-5" x="532.18" y="623.5" width="33.6" height="33.6" rx="1.15" ry="1.15"/>
    <path class="cls-11" d="M559.4,649.93c-6.95,1.11-13.89,1.11-20.83,0-1.08,0-1.96-.87-1.96-1.96v-20.83c0-1.08.87-1.96,1.96-1.96h20.83c1.08,0,1.96.87,1.96,1.96v20.83c0,1.08-.87,1.96-1.96,1.96Z"/>
  </g>
  <path class="cls-11" d="M595.28,625.41h-20.83c-1.08,0-1.96,1.61-1.96,3.61v31.45h-17.47c-2.01,0-3.63.87-3.63,1.96v20.83c0,1.08,1.62,1.96,3.63,1.96,12.87,1.11,25.72,1.11,38.6,0,2.01,0,3.63-.87,3.63-1.96v-54.24c0-2-.87-3.61-1.96-3.61Z"/>
  <g>
    <rect class="cls-5" x="424" y="623.5" width="33.6" height="33.6" rx="1.15" ry="1.15"/>
    <path class="cls-11" d="M451.21,649.93c-6.95,1.11-13.89,1.11-20.83,0-1.08,0-1.96-.87-1.96-1.96v-20.83c0-1.08.87-1.96,1.96-1.96h20.83c1.08,0,1.96.87,1.96,1.96v20.83c0,1.08-.87,1.96-1.96,1.96Z"/>
  </g>
  <g>
    <rect class="cls-5" x="387.84" y="623.5" width="33.6" height="33.6" rx="1.15" ry="1.15"/>
    <path class="cls-11" d="M415.06,649.93c-6.95,1.11-13.89,1.11-20.83,0-1.08,0-1.96-.87-1.96-1.96v-20.83c0-1.08.87-1.96,1.96-1.96h20.83c1.08,0,1.96.87,1.96,1.96v20.83c0,1.08-.87,1.96-1.96,1.96Z"/>
  </g>
  <g>
    <rect class="cls-5" x="351.69" y="623.5" width="33.6" height="33.6" rx="1.15" ry="1.15"/>
    <path class="cls-11" d="M378.91,649.93c-6.95,1.11-13.89,1.11-20.83,0-1.08,0-1.96-.87-1.96-1.96v-20.83c0-1.08.87-1.96,1.96-1.96h20.83c1.08,0,1.96.87,1.96,1.96v20.83c0,1.08-.87,1.96-1.96,1.96Z"/>
  </g>
  <g>
    <rect class="cls-5" x="315.55" y="623.5" width="33.6" height="33.6" rx="1.15" ry="1.15"/>
    <path class="cls-11" d="M342.76,649.93c-6.95,1.11-13.89,1.11-20.83,0-1.08,0-1.96-.87-1.96-1.96v-20.83c0-1.08.87-1.96,1.96-1.96h20.83c1.08,0,1.96.87,1.96,1.96v20.83c0,1.08-.87,1.96-1.96,1.96Z"/>
  </g>
  <g>
    <rect class="cls-5" x="279.4" y="623.5" width="33.6" height="33.6" rx="1.15" ry="1.15"/>
    <path class="cls-11" d="M306.62,649.93c-6.95,1.11-13.89,1.11-20.83,0-1.08,0-1.96-.87-1.96-1.96v-20.83c0-1.08.87-1.96,1.96-1.96h20.83c1.08,0,1.96.87,1.96,1.96v20.83c0,1.08-.87,1.96-1.96,1.96Z"/>
  </g>
  <g>
    <rect class="cls-5" x="243.24" y="623.5" width="33.6" height="33.6" rx="1.15" ry="1.15"/>
    <path class="cls-11" d="M270.46,649.93c-6.95,1.11-13.89,1.11-20.83,0-1.08,0-1.96-.87-1.96-1.96v-20.83c0-1.08.87-1.96,1.96-1.96h20.83c1.08,0,1.96.87,1.96,1.96v20.83c0,1.08-.87,1.96-1.96,1.96Z"/>
  </g>
  <g>
    <rect class="cls-5" x="207.1" y="623.5" width="33.6" height="33.6" rx="1.15" ry="1.15"/>
    <path class="cls-11" d="M234.31,649.93c-6.95,1.11-13.89,1.11-20.83,0-1.08,0-1.96-.87-1.96-1.96v-20.83c0-1.08.87-1.96,1.96-1.96h20.83c1.08,0,1.96.87,1.96,1.96v20.83c0,1.08-.87,1.96-1.96,1.96Z"/>
  </g>
  <g>
    <rect class="cls-5" x="170.95" y="623.5" width="33.6" height="33.6" rx="1.15" ry="1.15"/>
    <path class="cls-11" d="M198.17,649.93c-6.95,1.11-13.89,1.11-20.83,0-1.08,0-1.96-.87-1.96-1.96v-20.83c0-1.08.87-1.96,1.96-1.96h20.83c1.08,0,1.96.87,1.96,1.96v20.83c0,1.08-.87,1.96-1.96,1.96Z"/>
  </g>
  <g>
    <rect class="cls-5" x="134.79" y="623.5" width="33.6" height="33.6" rx="1.15" ry="1.15"/>
    <path class="cls-11" d="M162.01,649.93c-6.95,1.11-13.89,1.11-20.83,0-1.08,0-1.96-.87-1.96-1.96v-20.83c0-1.08.87-1.96,1.96-1.96h20.83c1.08,0,1.96.87,1.96,1.96v20.83c0,1.08-.87,1.96-1.96,1.96Z"/>
  </g>
  <g>
    <rect class="cls-5" x="511.17" y="658.78" width="33.6" height="33.6" rx="1.15" ry="1.15"/>
    <path class="cls-11" d="M538.39,685.21c-6.95,1.11-13.89,1.11-20.83,0-1.08,0-1.96-.87-1.96-1.96v-20.83c0-1.08.87-1.96,1.96-1.96h20.83c1.08,0,1.96.87,1.96,1.96v20.83c0,1.08-.87,1.96-1.96,1.96Z"/>
  </g>
  <g>
    <rect class="cls-5" x="475.02" y="658.78" width="33.6" height="33.6" rx="1.15" ry="1.15"/>
    <path class="cls-11" d="M502.24,685.21c-6.95,1.11-13.89,1.11-20.83,0-1.08,0-1.96-.87-1.96-1.96v-20.83c0-1.08.87-1.96,1.96-1.96h20.83c1.08,0,1.96.87,1.96,1.96v20.83c0,1.08-.87,1.96-1.96,1.96Z"/>
  </g>
  <g>
    <rect class="cls-5" x="438.88" y="658.78" width="33.6" height="33.6" rx="1.15" ry="1.15"/>
    <path class="cls-11" d="M466.09,685.21c-6.95,1.11-13.89,1.11-20.83,0-1.08,0-1.96-.87-1.96-1.96v-20.83c0-1.08.87-1.96,1.96-1.96h20.83c1.08,0,1.96.87,1.96,1.96v20.83c0,1.08-.87,1.96-1.96,1.96Z"/>
  </g>
  <g>
    <rect class="cls-5" x="402.72" y="658.78" width="33.6" height="33.6" rx="1.15" ry="1.15"/>
    <path class="cls-11" d="M429.94,685.21c-6.95,1.11-13.89,1.11-20.83,0-1.08,0-1.96-.87-1.96-1.96v-20.83c0-1.08.87-1.96,1.96-1.96h20.83c1.08,0,1.96.87,1.96,1.96v20.83c0,1.08-.87,1.96-1.96,1.96Z"/>
  </g>
  <g>
    <rect class="cls-5" x="366.57" y="658.78" width="33.6" height="33.6" rx="1.15" ry="1.15"/>
    <path class="cls-11" d="M393.79,685.21c-6.95,1.11-13.89,1.11-20.83,0-1.08,0-1.96-.87-1.96-1.96v-20.83c0-1.08.87-1.96,1.96-1.96h20.83c1.08,0,1.96.87,1.96,1.96v20.83c0,1.08-.87,1.96-1.96,1.96Z"/>
  </g>
  <g>
    <rect class="cls-5" x="330.43" y="658.78" width="33.6" height="33.6" rx="1.15" ry="1.15"/>
    <path class="cls-11" d="M357.64,685.21c-6.95,1.11-13.89,1.11-20.83,0-1.08,0-1.96-.87-1.96-1.96v-20.83c0-1.08.87-1.96,1.96-1.96h20.83c1.08,0,1.96.87,1.96,1.96v20.83c0,1.08-.87,1.96-1.96,1.96Z"/>
  </g>
  <g>
    <rect class="cls-5" x="294.28" y="658.78" width="33.6" height="33.6" rx="1.15" ry="1.15"/>
    <path class="cls-11" d="M321.5,685.21c-6.95,1.11-13.89,1.11-20.83,0-1.08,0-1.96-.87-1.96-1.96v-20.83c0-1.08.87-1.96,1.96-1.96h20.83c1.08,0,1.96.87,1.96,1.96v20.83c0,1.08-.87,1.96-1.96,1.96Z"/>
  </g>
  <g>
    <rect class="cls-5" x="258.12" y="658.78" width="33.6" height="33.6" rx="1.15" ry="1.15"/>
    <path class="cls-11" d="M285.34,685.21c-6.95,1.11-13.89,1.11-20.83,0-1.08,0-1.96-.87-1.96-1.96v-20.83c0-1.08.87-1.96,1.96-1.96h20.83c1.08,0,1.96.87,1.96,1.96v20.83c0,1.08-.87,1.96-1.96,1.96Z"/>
  </g>
  <g>
    <rect class="cls-5" x="221.98" y="658.78" width="33.6" height="33.6" rx="1.15" ry="1.15"/>
    <path class="cls-11" d="M249.19,685.21c-6.95,1.11-13.89,1.11-20.83,0-1.08,0-1.96-.87-1.96-1.96v-20.83c0-1.08.87-1.96,1.96-1.96h20.83c1.08,0,1.96.87,1.96,1.96v20.83c0,1.08-.87,1.96-1.96,1.96Z"/>
  </g>
  <g>
    <rect class="cls-5" x="185.83" y="658.78" width="33.6" height="33.6" rx="1.15" ry="1.15"/>
    <path class="cls-11" d="M213.05,685.21c-6.95,1.11-13.89,1.11-20.83,0-1.08,0-1.96-.87-1.96-1.96v-20.83c0-1.08.87-1.96,1.96-1.96h20.83c1.08,0,1.96.87,1.96,1.96v20.83c0,1.08-.87,1.96-1.96,1.96Z"/>
  </g>
  <g>
    <rect class="cls-5" x="149.67" y="658.78" width="33.6" height="33.6" rx="1.15" ry="1.15"/>
    <path class="cls-11" d="M176.89,685.21c-6.95,1.11-13.89,1.11-20.83,0-1.08,0-1.96-.87-1.96-1.96v-20.83c0-1.08.87-1.96,1.96-1.96h20.83c1.08,0,1.96.87,1.96,1.96v20.83c0,1.08-.87,1.96-1.96,1.96Z"/>
  </g>
  <g>
    <rect class="cls-5" x="523.92" y="694.7" width="50.77" height="33.6" rx="1.41" ry="1.41"/>
    <path class="cls-11" d="M567.17,721.13c-11.91,1.11-23.81,1.11-35.72,0-1.86,0-3.36-.87-3.36-1.96v-20.83c0-1.08,1.5-1.96,3.36-1.96h35.72c1.86,0,3.36.87,3.36,1.96v20.83c0,1.08-1.5,1.96-3.36,1.96Z"/>
  </g>
  <g>
    <rect class="cls-5" x="656.2" y="588.21" width="51.59" height="33.6" rx="1.42" ry="1.42"/>
    <path class="cls-11" d="M700.15,614.64c-12.11,1.11-24.19,1.11-36.3,0-1.89,0-3.41-.87-3.41-1.96v-20.83c0-1.08,1.52-1.96,3.41-1.96h36.3c1.89,0,3.41.87,3.41,1.96v20.83c0,1.08-1.52,1.96-3.41,1.96Z"/>
  </g>
  <g>
    <rect class="cls-5" x="710.25" y="588.21" width="51.59" height="33.6" rx="1.42" ry="1.42"/>
    <path class="cls-11" d="M754.2,614.64c-12.11,1.11-24.19,1.11-36.3,0-1.89,0-3.41-.87-3.41-1.96v-20.83c0-1.08,1.52-1.96,3.41-1.96h36.3c1.89,0,3.41.87,3.41,1.96v20.83c0,1.08-1.52,1.96-3.41,1.96Z"/>
  </g>
  <g>
    <rect class="cls-5" x="505.9" y="729.59" width="50.77" height="33.6" rx="1.41" ry="1.41"/>
    <path class="cls-11" d="M549.15,756.02c-11.91,1.11-23.81,1.11-35.72,0-1.86,0-3.36-.87-3.36-1.96v-20.83c0-1.08,1.5-1.96,3.36-1.96h35.72c1.86,0,3.36.87,3.36,1.96v20.83c0,1.08-1.5,1.96-3.36,1.96Z"/>
  </g>
  <g>
    <rect class="cls-5" x="123.74" y="729.59" width="50.77" height="33.6" rx="1.41" ry="1.41"/>
    <path class="cls-11" d="M166.99,756.02c-11.91,1.11-23.81,1.11-35.72,0-1.86,0-3.36-.87-3.36-1.96v-20.83c0-1.08,1.5-1.96,3.36-1.96h35.72c1.86,0,3.36.87,3.36,1.96v20.83c0,1.08-1.5,1.96-3.36,1.96Z"/>
  </g>
  <g>
    <rect class="cls-5" x="487.76" y="694.7" width="33.6" height="33.6" rx="1.15" ry="1.15"/>
    <path class="cls-11" d="M514.98,721.13c-6.95,1.11-13.89,1.11-20.83,0-1.08,0-1.96-.87-1.96-1.96v-20.83c0-1.08.87-1.96,1.96-1.96h20.83c1.08,0,1.96.87,1.96,1.96v20.83c0,1.08-.87,1.96-1.96,1.96Z"/>
  </g>
  <g>
    <rect class="cls-5" x="451.62" y="694.7" width="33.6" height="33.6" rx="1.15" ry="1.15"/>
    <path class="cls-11" d="M478.83,721.13c-6.95,1.11-13.89,1.11-20.83,0-1.08,0-1.96-.87-1.96-1.96v-20.83c0-1.08.87-1.96,1.96-1.96h20.83c1.08,0,1.96.87,1.96,1.96v20.83c0,1.08-.87,1.96-1.96,1.96Z"/>
  </g>
  <g>
    <rect class="cls-5" x="415.47" y="694.7" width="33.6" height="33.6" rx="1.15" ry="1.15"/>
    <path class="cls-11" d="M442.69,721.13c-6.95,1.11-13.89,1.11-20.83,0-1.08,0-1.96-.87-1.96-1.96v-20.83c0-1.08.87-1.96,1.96-1.96h20.83c1.08,0,1.96.87,1.96,1.96v20.83c0,1.08-.87,1.96-1.96,1.96Z"/>
  </g>
  <g>
    <rect class="cls-5" x="379.32" y="694.7" width="33.6" height="33.6" rx="1.15" ry="1.15"/>
    <path class="cls-11" d="M406.54,721.13c-6.95,1.11-13.89,1.11-20.83,0-1.08,0-1.96-.87-1.96-1.96v-20.83c0-1.08.87-1.96,1.96-1.96h20.83c1.08,0,1.96.87,1.96,1.96v20.83c0,1.08-.87,1.96-1.96,1.96Z"/>
  </g>
  <g>
    <rect class="cls-5" x="343.17" y="694.7" width="33.6" height="33.6" rx="1.15" ry="1.15"/>
    <path class="cls-11" d="M370.38,721.13c-6.95,1.11-13.89,1.11-20.83,0-1.08,0-1.96-.87-1.96-1.96v-20.83c0-1.08.87-1.96,1.96-1.96h20.83c1.08,0,1.96.87,1.96,1.96v20.83c0,1.08-.87,1.96-1.96,1.96Z"/>
  </g>
  <g>
    <rect class="cls-5" x="307.02" y="694.7" width="33.6" height="33.6" rx="1.15" ry="1.15"/>
    <path class="cls-11" d="M334.24,721.13c-6.95,1.11-13.89,1.11-20.83,0-1.08,0-1.96-.87-1.96-1.96v-20.83c0-1.08.87-1.96,1.96-1.96h20.83c1.08,0,1.96.87,1.96,1.96v20.83c0,1.08-.87,1.96-1.96,1.96Z"/>
  </g>
  <g>
    <rect class="cls-5" x="270.87" y="694.7" width="33.6" height="33.6" rx="1.15" ry="1.15"/>
    <path class="cls-11" d="M298.09,721.13c-6.95,1.11-13.89,1.11-20.83,0-1.08,0-1.96-.87-1.96-1.96v-20.83c0-1.08.87-1.96,1.96-1.96h20.83c1.08,0,1.96.87,1.96,1.96v20.83c0,1.08-.87,1.96-1.96,1.96Z"/>
  </g>
  <g>
    <rect class="cls-5" x="234.72" y="694.7" width="33.6" height="33.6" rx="1.15" ry="1.15"/>
    <path class="cls-11" d="M261.94,721.13c-6.95,1.11-13.89,1.11-20.83,0-1.08,0-1.96-.87-1.96-1.96v-20.83c0-1.08.87-1.96,1.96-1.96h20.83c1.08,0,1.96.87,1.96,1.96v20.83c0,1.08-.87,1.96-1.96,1.96Z"/>
  </g>
  <g>
    <rect class="cls-5" x="198.57" y="694.7" width="33.6" height="33.6" rx="1.15" ry="1.15"/>
    <path class="cls-11" d="M225.79,721.13c-6.95,1.11-13.89,1.11-20.83,0-1.08,0-1.96-.87-1.96-1.96v-20.83c0-1.08.87-1.96,1.96-1.96h20.83c1.08,0,1.96.87,1.96,1.96v20.83c0,1.08-.87,1.96-1.96,1.96Z"/>
  </g>
  <g>
    <rect class="cls-5" x="162.42" y="694.7" width="33.6" height="33.6" rx="1.15" ry="1.15"/>
    <path class="cls-11" d="M189.64,721.13c-6.95,1.11-13.89,1.11-20.83,0-1.08,0-1.96-.87-1.96-1.96v-20.83c0-1.08.87-1.96,1.96-1.96h20.83c1.08,0,1.96.87,1.96,1.96v20.83c0,1.08-.87,1.96-1.96,1.96Z"/>
  </g>
  <g>
    <rect class="cls-5" x="77.37" y="588.21" width="33.6" height="33.6" rx="1.15" ry="1.15"/>
    <path class="cls-11" d="M104.59,614.64c-6.95,1.11-13.89,1.11-20.83,0-1.08,0-1.96-.87-1.96-1.96v-20.83c0-1.08.87-1.96,1.96-1.96h20.83c1.08,0,1.96.87,1.96,1.96v20.83c0,1.08-.87,1.96-1.96,1.96Z"/>
  </g>
  <g>
    <rect class="cls-5" x="177.42" y="729.59" width="325.56" height="33.6" rx="1.63" ry="1.63"/>
    <path class="cls-11" d="M494.81,758.88c-104.37,1.03-207.92,1.02-310.66,0-1.38,0-2.49-.85-2.49-1.91v-22.61c0-1.06,1.11-1.91,2.49-1.91h310.66c1.38,0,2.49.85,2.49,1.91v22.61c0,1.06-1.11,1.91-2.49,1.91Z"/>
  </g>
  <rect class="cls-8" x="761.28" y="506.45" width="2.4" height="16.32"/>
  <path class="cls-8" d="M759.56,506.45c.04,1.58,0,7.48-1.66,9.96-1.66,2.49-3.57,3.8-5.67,4.12v2.46c2.79-.24,6.05-2.58,7.21-4.81,1.18-2.26,1.37-4.11,1.37-11.74h-1.26Z"/>
  <path class="cls-8" d="M767.12,516.41c-1.67-2.48-1.72-8.38-1.66-9.96h-1.26c-.02,7.63.18,9.48,1.37,11.74,1.14,2.22,4.41,4.56,7.21,4.81v-2.46c-2.12-.32-4.02-1.63-5.67-4.12Z"/>
  <rect class="cls-4" x="816.03" y="506.96" width="2.45" height="15.8"/>
  <polygon class="cls-4" points="784.55 506.96 784.55 509.29 787.86 509.29 787.86 522.76 790.31 522.76 790.31 509.29 793.49 509.29 793.49 506.96 784.55 506.96"/>
  <path class="cls-4" d="M799.86,508.55c-.39-1.5-1.27-1.62-1.84-1.59-.65-.02-1.53.09-1.96,1.59l-4.04,14.21h2.45l1.1-3.92h4.78l1.1,3.92h2.45l-4.04-14.21ZM796.31,516.52l1.71-6,1.72,6h-3.43Z"/>
  <path class="cls-4" d="M811.5,517.25c-.27-.51-.39-.82.12-1.22.95-.48,2.71-1.28,2.69-4.41.01-3.22-2.32-4.68-4.29-4.65h-2.57c-1.63-.02-2.28.7-2.33,2.33v13.47h2.45v-12.74c-.03-.52.2-.71.61-.73h1.72c.86.02,2.05.48,2.08,2.45-.04,2.01-2.32,2.64-2.82,2.94-.78.37-1.08,1.52-.37,2.57l3.55,5.51h2.82l-3.67-5.51Z"/>
  <path class="cls-4" d="M782.1,508.55c-.36-1.5-1.24-1.62-1.84-1.59-.63-.02-1.51.09-1.96,1.59l-4.04,14.21h2.45l1.1-3.92h4.78l1.1,3.92h2.45l-4.04-14.21ZM778.55,516.52l1.72-6,1.72,6h-3.43Z"/>
  <path class="cls-8" d="M859.78,508.69s0-.1-.01-.15c0-.05-.02-.09-.03-.14-.01-.04-.02-.08-.04-.12-.02-.05-.04-.1-.06-.14-.01-.02-.02-.05-.03-.07,0-.01-.02-.02-.03-.04-.03-.04-.06-.09-.09-.13-.03-.03-.05-.06-.08-.09-.03-.03-.07-.07-.1-.1-.03-.03-.06-.06-.1-.08-.04-.03-.08-.05-.12-.07-.04-.02-.07-.04-.11-.06-.04-.02-.09-.03-.13-.05-.04-.01-.08-.03-.12-.04-.04-.01-.09-.02-.13-.02-.05,0-.1-.01-.14-.01-.02,0-.03,0-.05,0-.03,0-.05,0-.08,0-.05,0-.1,0-.15.01-.05,0-.09.02-.13.03-.04.01-.08.02-.13.04-.05.02-.09.04-.14.06-.02.01-.05.02-.07.03l-3.08,1.78,1.4,2.42.99-.57v11.34h2.79v-13.76s0-.05,0-.08Z"/>
  <path class="cls-8" d="M869.78,508.83c-.94-.94-2.23-1.52-3.66-1.52-2.85,0-5.17,2.32-5.17,5.17v4.82c0,2.85,2.32,5.17,5.17,5.17s5.17-2.32,5.17-5.17v-4.82c0-1.42-.58-2.72-1.51-3.65ZM868.87,517.26c0,1.52-1.23,2.75-2.75,2.75s-2.75-1.23-2.75-2.75v-4.58c0-1.52,1.23-2.75,2.75-2.75.76,0,1.45.31,1.94.81.5.49.81,1.18.81,1.94v4.58Z"/>
  <path class="cls-8" d="M891.43,508.83c-.94-.94-2.23-1.52-3.66-1.52-2.85,0-5.17,2.32-5.17,5.17v4.82c0,2.85,2.32,5.17,5.17,5.17s5.17-2.32,5.17-5.17v-4.82c0-1.42-.58-2.72-1.51-3.65ZM890.52,517.26c0,1.52-1.23,2.75-2.75,2.75s-2.75-1.23-2.75-2.75v-4.58c0-1.52,1.23-2.75,2.75-2.75.76,0,1.45.31,1.94.81.5.49.81,1.18.81,1.94v4.58Z"/>
  <path class="cls-8" d="M881.76,515.46h0v-8.31h-2.79v8.31h-4.14l.34-.69,3.66-7.6-2.79-.02-3.87,8.33h0c-.11.25-.17.52-.17.81,0,1.08.87,1.96,1.95,1.96h5.02v3.63h2.79v-3.63h0v-2.79Z"/>
  <path class="cls-8" d="M906.21,508.27l-.05,4.57c-.99-.89-3.72-1.85-4.94-1.85-.61,0-1.08.35-1.08.82s.28.66,1.71,1.01c1.08.28,1.97.63,2.54,1.03,1.06.7,1.71,2.07,1.71,3.5,0,3.14-3.05,5.7-6.83,5.7-1.46,0-2.26-.39-3.78-1.1-.33-.16-.82-.4-1.45-.75v-4.63c.94,1.15,3.6,2.23,5.07,2.23.8,0,1.31-.35,1.31-.92s-.45-.87-1.48-1.1c-2.26-.44-2.75-.99-2.23-.7-1.48-.73-2.25-2.04-2.25-3.85,0-3.12,2.86-5.61,6.43-5.61,1.6,0,2.76.4,4.33,1.13.24.12.56.28.99.52Z"/>
  <rect class="cls-8" x="910.2" y="506.91" width="5.41" height="16.08"/>
  <rect class="cls-8" x="910.48" y="503.19" width="4.86" height="12.3" transform="translate(403.57 1422.25) rotate(-90)"/>
  <path class="cls-8" d="M921.19,512.77c.05-.56.09-1.01.1-1.36.03-.57.07-1.39.1-2.45.03-.79.04-1.34.04-1.67v-.4c.82,0,1.54,0,2.16,0h1.21s.72,0,.72,0c-.03.43-.05.74-.05.93l-.62-.02h-.25s-.34,0-.34,0h-1.54s-.05,1.55-.05,1.55h.73c.56.01.91.01,1.07,0h.59c-.02.32-.03.63-.04.9-.5-.01-.9-.02-1.19-.02-.37,0-.78,0-1.21.02l-.05,1.9v.39s0,.22,0,.22h-.66s-.27,0-.71,0Z"/>
  <g>
    <path class="cls-3" d="M87.07,239.69l-13.06,12.15v-17.91c3.73-2.16,8.12-2.85,11.39-.72.54.35.94.77,1.23,1.24,1.39,2.18.44,5.24.44,5.24Z"/>
    <path class="cls-3" d="M100.55,239.69l-26.54,24.69v-18.51l7.07-6.58,3.22-3.01c.72-.67,1.5-1.29,2.33-1.83,3.9-2.56,8.74-3.53,12.25-1.24.54.35.94.78,1.23,1.25,1.39,2.18.44,5.23.44,5.23Z"/>
    <path class="cls-3" d="M114.04,239.69l-40.03,37.23v-18.51l20.55-19.12,3.23-3.01c.72-.67,1.5-1.28,2.32-1.82,3.9-2.57,8.73-3.55,12.26-1.25.54.35.94.78,1.23,1.25,1.39,2.18.44,5.23.44,5.23Z"/>
    <path class="cls-3" d="M127.52,239.69l-53.51,49.77v-18.51l34.04-31.66,3.23-3.01c.72-.67,1.5-1.28,2.32-1.82,3.89-2.57,8.73-3.55,12.25-1.25.54.35.94.78,1.23,1.25,1.39,2.18.44,5.23.44,5.23Z"/>
    <path class="cls-3" d="M141.01,239.69l-67,62.32v-18.52l47.52-44.2,3.23-3.01c.72-.67,1.5-1.28,2.32-1.82,3.9-2.57,8.74-3.55,12.26-1.25.54.35.94.78,1.23,1.25,1.39,2.18.44,5.23.44,5.23Z"/>
    <path class="cls-3" d="M154.49,239.69l-80.48,74.86v-18.51l61.01-56.75,3.23-3.01c.72-.67,1.5-1.28,2.32-1.82,3.89-2.57,8.73-3.55,12.25-1.25.54.35.94.78,1.24,1.24,1.39,2.19.43,5.24.43,5.24Z"/>
    <path class="cls-3" d="M167.98,239.69l-93.97,87.41v-18.52l74.49-69.29,3.23-3.01c.72-.67,1.5-1.29,2.33-1.83,3.9-2.56,8.74-3.53,12.25-1.24.54.35.94.78,1.23,1.25,1.39,2.18.44,5.23.44,5.23Z"/>
    <path class="cls-3" d="M181.46,239.69l-107.45,99.95v-18.51l87.98-81.84,3.23-3.01c.72-.67,1.5-1.28,2.32-1.82,3.89-2.57,8.73-3.55,12.26-1.25.54.35.94.78,1.23,1.24,1.39,2.19.43,5.24.43,5.24Z"/>
    <path class="cls-3" d="M194.95,239.69l-120.94,112.5v-18.52l101.46-94.38,3.23-3.01c.72-.67,1.5-1.29,2.33-1.83,3.9-2.56,8.74-3.53,12.25-1.24.54.35.94.78,1.23,1.25,1.39,2.18.44,5.23.44,5.23Z"/>
    <path class="cls-3" d="M208.43,239.69l-134.42,125.04v-18.51l114.95-106.93,3.23-3.01c.72-.67,1.5-1.28,2.32-1.82,3.9-2.57,8.73-3.55,12.26-1.25.54.35.94.78,1.23,1.24,1.39,2.19.43,5.24.43,5.24Z"/>
    <path class="cls-3" d="M221.92,239.69l-147.91,137.58v-18.51l128.44-119.47,3.22-3.01c.72-.67,1.5-1.29,2.33-1.83,3.9-2.56,8.74-3.53,12.25-1.24.54.35.94.78,1.23,1.25,1.39,2.18.44,5.23.44,5.23Z"/>
    <path class="cls-3" d="M235.41,239.69l-161.4,150.13v-18.51l141.92-132.02,3.23-3.01c.72-.67,1.5-1.28,2.32-1.82,3.9-2.57,8.73-3.55,12.26-1.25.54.35.94.78,1.23,1.25,1.39,2.18.44,5.23.44,5.23Z"/>
    <path class="cls-3" d="M248.89,239.69l-174.88,162.67v-18.51l155.41-144.56,3.23-3.01c.72-.67,1.5-1.28,2.32-1.82,3.89-2.57,8.73-3.55,12.25-1.25.54.35.94.78,1.23,1.25,1.39,2.18.44,5.23.44,5.23Z"/>
    <path class="cls-3" d="M262.38,239.69l-188.37,175.21v-18.51l168.89-157.1,3.23-3.01c.72-.67,1.5-1.28,2.32-1.82,3.9-2.57,8.74-3.55,12.26-1.25.54.35.94.78,1.23,1.25,1.39,2.18.44,5.23.44,5.23Z"/>
    <path class="cls-3" d="M275.86,239.69l-201.85,187.76v-18.51l182.38-169.65,3.23-3.01c.72-.67,1.5-1.28,2.32-1.82,3.89-2.57,8.73-3.55,12.25-1.25.54.35.94.78,1.24,1.24,1.39,2.19.43,5.24.43,5.24Z"/>
    <path class="cls-3" d="M289.35,239.69l-206.22,191.82h-5.62c-.24,0-.48-.02-.71-.07-1.59-.33-2.79-1.73-2.79-3.42v-6.54l195.86-182.19,3.23-3.01c.72-.67,1.5-1.29,2.33-1.83,3.9-2.56,8.74-3.53,12.25-1.24.54.35.94.78,1.23,1.25,1.39,2.18.44,5.23.44,5.23Z"/>
    <path class="cls-3" d="M302.83,239.69l-206.22,191.82h-19.1c-.24,0-.48-.02-.71-.07l206.56-192.15,3.23-3.01c.72-.67,1.5-1.28,2.32-1.82,3.89-2.57,8.73-3.55,12.25-1.25.54.35.94.78,1.24,1.24,1.39,2.19.43,5.24.43,5.24Z"/>
    <path class="cls-3" d="M316.32,239.69l-206.22,191.82h-19.9l206.64-192.22,3.23-3.01c.72-.67,1.5-1.29,2.33-1.83,3.9-2.56,8.74-3.53,12.25-1.24.54.35.94.78,1.23,1.25,1.39,2.18.44,5.23.44,5.23Z"/>
    <path class="cls-3" d="M329.8,239.69l-206.22,191.82h-19.89l206.64-192.22,3.23-3.01c.72-.67,1.5-1.28,2.32-1.82,3.9-2.57,8.73-3.55,12.26-1.25.54.35.94.78,1.23,1.24,1.39,2.19.43,5.24.43,5.24Z"/>
    <path class="cls-3" d="M343.29,239.69l-206.22,191.82h-19.9l206.65-192.22,3.22-3.01c.72-.67,1.5-1.29,2.33-1.83,3.9-2.56,8.74-3.53,12.25-1.24.54.35.94.78,1.23,1.25,1.39,2.18.44,5.23.44,5.23Z"/>
    <path class="cls-3" d="M356.78,239.69l-206.22,191.82h-19.9l206.64-192.22,3.23-3.01c.72-.67,1.5-1.28,2.32-1.82,3.9-2.57,8.73-3.55,12.26-1.25.54.35.94.78,1.23,1.25,1.39,2.18.44,5.23.44,5.23Z"/>
    <path class="cls-3" d="M370.26,239.69l-206.22,191.82h-19.9l206.65-192.22,3.23-3.01c.72-.67,1.5-1.28,2.32-1.82,3.89-2.57,8.73-3.55,12.25-1.25.54.35.94.78,1.23,1.25,1.39,2.18.44,5.23.44,5.23Z"/>
    <path class="cls-3" d="M383.75,239.69l-206.22,191.82h-19.9l206.64-192.22,3.23-3.01c.72-.67,1.5-1.28,2.32-1.82,3.9-2.57,8.73-3.55,12.26-1.25.54.35.94.78,1.23,1.25,1.39,2.18.44,5.23.44,5.23Z"/>
    <path class="cls-3" d="M397.23,239.69l-206.22,191.82h-19.9l206.65-192.22,3.23-3.01c.72-.67,1.5-1.28,2.32-1.82,3.89-2.57,8.73-3.55,12.25-1.25.54.35.94.78,1.24,1.24,1.39,2.19.43,5.24.43,5.24Z"/>
    <path class="cls-3" d="M410.72,239.69l-206.22,191.82h-19.9l206.64-192.22,3.23-3.01c.72-.67,1.5-1.29,2.33-1.83,3.9-2.56,8.74-3.53,12.25-1.24.54.35.94.78,1.23,1.25,1.39,2.18.44,5.23.44,5.23Z"/>
    <path class="cls-3" d="M424.2,239.69l-206.22,191.82h-19.89l206.64-192.22,3.23-3.01c.72-.67,1.5-1.28,2.32-1.82,3.89-2.57,8.73-3.55,12.25-1.25.54.35.94.78,1.24,1.24,1.39,2.19.43,5.24.43,5.24Z"/>
    <path class="cls-3" d="M437.69,239.69l-206.22,191.82h-19.9l206.64-192.22,3.23-3.01c.72-.67,1.5-1.29,2.33-1.83,3.9-2.56,8.74-3.53,12.25-1.24.54.35.94.78,1.23,1.25,1.39,2.18.44,5.23.44,5.23Z"/>
    <path class="cls-3" d="M451.17,239.69l-206.22,191.82h-19.89l206.64-192.22,3.23-3.01c.72-.67,1.5-1.28,2.32-1.82,3.9-2.57,8.73-3.55,12.26-1.25.54.35.94.78,1.23,1.24,1.39,2.19.43,5.24.43,5.24Z"/>
    <path class="cls-3" d="M464.66,239.69l-206.22,191.82h-19.9l206.65-192.22,3.22-3.01c.72-.67,1.5-1.29,2.33-1.83,3.9-2.56,8.74-3.53,12.25-1.24.54.35.94.78,1.23,1.25,1.39,2.18.44,5.23.44,5.23Z"/>
    <path class="cls-3" d="M478.15,239.69l-206.22,191.82h-19.9l206.64-192.22,3.23-3.01c.72-.67,1.5-1.28,2.32-1.82,3.9-2.57,8.73-3.55,12.26-1.25.54.35.94.77,1.23,1.24,1.39,2.18.44,5.24.44,5.24Z"/>
    <path class="cls-3" d="M491.63,239.69l-206.22,191.82h-19.9l206.65-192.22,3.22-3.01c.72-.67,1.5-1.29,2.33-1.83,3.9-2.56,8.74-3.53,12.25-1.24.54.35.94.78,1.23,1.25,1.39,2.18.44,5.23.44,5.23Z"/>
    <path class="cls-3" d="M505.12,239.69l-206.22,191.82h-19.9l206.64-192.22,3.23-3.01c.72-.67,1.5-1.28,2.32-1.82,3.9-2.57,8.73-3.55,12.26-1.25.54.35.94.78,1.23,1.25,1.39,2.18.44,5.23.44,5.23Z"/>
    <path class="cls-3" d="M518.6,239.69l-206.22,191.82h-19.9l206.65-192.22,3.23-3.01c.72-.67,1.5-1.28,2.32-1.82,3.89-2.57,8.73-3.55,12.25-1.25.54.35.94.78,1.23,1.25,1.39,2.18.44,5.23.44,5.23Z"/>
    <path class="cls-3" d="M532.09,239.69l-206.22,191.82h-19.9l206.64-192.22,3.23-3.01c.72-.67,1.5-1.28,2.32-1.82,3.9-2.57,8.74-3.55,12.26-1.25.54.35.94.78,1.23,1.25,1.39,2.18.44,5.23.44,5.23Z"/>
    <path class="cls-3" d="M545.57,239.69l-206.22,191.82h-19.89l206.64-192.22,3.23-3.01c.72-.67,1.5-1.28,2.32-1.82,3.89-2.57,8.73-3.55,12.25-1.25.54.35.94.78,1.24,1.24,1.39,2.19.43,5.24.43,5.24Z"/>
    <path class="cls-3" d="M559.06,239.69l-206.22,191.82h-19.9l206.64-192.22,3.23-3.01c.72-.67,1.5-1.29,2.33-1.83,3.9-2.56,8.74-3.53,12.25-1.24.54.35.94.78,1.23,1.25,1.39,2.18.44,5.23.44,5.23Z"/>
    <path class="cls-3" d="M572.54,239.69l-206.22,191.82h-19.89l206.64-192.22,3.23-3.01c.72-.67,1.5-1.28,2.32-1.82,3.89-2.57,8.73-3.55,12.26-1.25.54.35.94.78,1.23,1.24,1.39,2.19.43,5.24.43,5.24Z"/>
    <path class="cls-3" d="M586.03,239.69l-206.22,191.82h-19.9l206.64-192.22,3.23-3.01c.72-.67,1.5-1.29,2.33-1.83,3.9-2.56,8.74-3.53,12.25-1.24.54.35.94.78,1.23,1.25,1.39,2.18.44,5.23.44,5.23Z"/>
    <path class="cls-3" d="M599.51,239.69l-206.22,191.82h-19.89l206.64-192.22,3.23-3.01c.72-.67,1.5-1.28,2.32-1.82,3.9-2.57,8.73-3.55,12.26-1.25.54.35.94.78,1.23,1.24,1.39,2.19.43,5.24.43,5.24Z"/>
    <path class="cls-3" d="M613,239.69l-206.22,191.82h-19.9l206.65-192.22,3.22-3.01c.72-.67,1.5-1.29,2.33-1.83,3.9-2.56,8.74-3.53,12.25-1.24.54.35.94.78,1.23,1.25,1.39,2.18.44,5.23.44,5.23Z"/>
    <path class="cls-3" d="M626.49,239.69l-206.22,191.82h-19.9l206.64-192.22,3.23-3.01c.72-.67,1.5-1.28,2.32-1.82,3.9-2.57,8.73-3.55,12.26-1.25.54.35.94.78,1.23,1.25,1.39,2.18.44,5.23.44,5.23Z"/>
    <path class="cls-3" d="M639.97,239.69l-206.22,191.82h-19.9l206.65-192.22,3.23-3.01c.72-.67,1.5-1.28,2.32-1.82,3.89-2.57,8.73-3.55,12.25-1.25.54.35.94.78,1.23,1.25,1.39,2.18.44,5.23.44,5.23Z"/>
    <path class="cls-3" d="M653.46,239.69l-206.22,191.82h-19.9l206.64-192.22,3.23-3.01c.72-.67,1.5-1.28,2.32-1.82,3.9-2.57,8.74-3.55,12.26-1.25.54.35.94.78,1.23,1.25,1.39,2.18.44,5.23.44,5.23Z"/>
    <path class="cls-3" d="M666.94,239.69l-206.22,191.82h-19.9l206.65-192.22,3.23-3.01c.72-.67,1.5-1.28,2.32-1.82,3.89-2.57,8.73-3.55,12.25-1.25.54.35.94.78,1.24,1.24,1.39,2.19.43,5.24.43,5.24Z"/>
    <path class="cls-3" d="M680.43,239.69l-206.22,191.82h-19.9l206.64-192.22,3.23-3.01c.72-.67,1.5-1.29,2.33-1.83,3.9-2.56,8.74-3.53,12.25-1.24.54.35.94.78,1.23,1.25,1.39,2.18.44,5.23.44,5.23Z"/>
    <path class="cls-3" d="M693.91,239.69l-206.22,191.82h-19.89l206.64-192.22,3.23-3.01c.72-.67,1.5-1.28,2.32-1.82,3.89-2.57,8.73-3.55,12.25-1.25.54.35.94.78,1.24,1.24,1.39,2.19.43,5.24.43,5.24Z"/>
    <path class="cls-3" d="M707.4,239.69l-206.22,191.82h-19.9l206.64-192.22,3.23-3.01c.72-.67,1.5-1.29,2.33-1.83,3.9-2.56,8.74-3.53,12.25-1.24.54.35.94.78,1.23,1.25,1.39,2.18.44,5.23.44,5.23Z"/>
    <path class="cls-3" d="M720.88,239.69l-206.22,191.82h-19.89l206.64-192.22,3.23-3.01c.72-.67,1.5-1.28,2.32-1.82,3.9-2.57,8.73-3.55,12.26-1.25.54.35.94.78,1.23,1.24,1.39,2.19.43,5.24.43,5.24Z"/>
    <path class="cls-3" d="M734.37,239.69l-206.22,191.82h-19.9l206.65-192.22,3.22-3.01c.72-.67,1.5-1.29,2.33-1.83,3.9-2.56,8.74-3.53,12.25-1.24.54.35.94.78,1.23,1.25,1.39,2.18.44,5.23.44,5.23Z"/>
    <path class="cls-3" d="M747.86,239.69l-206.22,191.82h-19.9l206.64-192.22,3.23-3.01c.72-.67,1.5-1.28,2.32-1.82,3.9-2.57,8.73-3.55,12.26-1.25.54.35.94.78,1.23,1.25,1.39,2.18.44,5.23.44,5.23Z"/>
    <path class="cls-3" d="M761.34,239.69l-206.22,191.82h-19.9l206.65-192.22,3.23-3.01c.72-.67,1.5-1.28,2.32-1.82,3.89-2.57,8.73-3.55,12.25-1.25.54.35.94.78,1.23,1.25,1.39,2.18.44,5.23.44,5.23Z"/>
    <path class="cls-3" d="M774.83,239.69l-206.22,191.82h-19.9l206.64-192.22,3.23-3.01c.72-.67,1.5-1.28,2.32-1.82,3.9-2.57,8.73-3.55,12.26-1.25.54.35.94.78,1.23,1.25,1.39,2.18.44,5.23.44,5.23Z"/>
    <path class="cls-3" d="M788.31,239.69l-206.22,191.82h-19.9l206.65-192.22,3.23-3.01c.72-.67,1.5-1.28,2.32-1.82,3.89-2.57,8.73-3.55,12.25-1.25.54.35.94.78,1.24,1.24,1.39,2.19.43,5.24.43,5.24Z"/>
    <path class="cls-3" d="M801.8,239.69l-206.22,191.82h-19.9l206.64-192.22,3.23-3.01c.72-.67,1.5-1.29,2.33-1.83,3.9-2.56,8.74-3.53,12.25-1.24.54.35.94.78,1.23,1.25,1.39,2.18.44,5.23.44,5.23Z"/>
    <path class="cls-3" d="M815.28,239.69l-206.22,191.82h-19.89l206.64-192.22,3.23-3.01c.72-.67,1.5-1.28,2.32-1.82,3.89-2.57,8.73-3.55,12.25-1.25.54.35.94.78,1.24,1.24,1.39,2.19.43,5.24.43,5.24Z"/>
    <path class="cls-3" d="M828.77,239.69l-206.22,191.82h-19.9l206.64-192.22,3.23-3.01c.72-.67,1.5-1.29,2.33-1.83,3.9-2.56,8.74-3.53,12.25-1.24.54.35.94.78,1.23,1.25,1.39,2.18.44,5.23.44,5.23Z"/>
    <path class="cls-3" d="M842.25,239.69l-206.22,191.82h-19.89l206.64-192.22,3.23-3.01c.72-.67,1.5-1.28,2.32-1.82,3.9-2.57,8.73-3.55,12.26-1.25.54.35.94.78,1.23,1.24,1.39,2.19.43,5.24.43,5.24Z"/>
    <path class="cls-3" d="M855.74,239.69l-206.22,191.82h-19.9l206.65-192.22,3.22-3.01c.72-.67,1.5-1.29,2.33-1.83,3.9-2.56,8.74-3.53,12.25-1.24.54.35.94.78,1.23,1.25,1.39,2.18.44,5.23.44,5.23Z"/>
    <path class="cls-3" d="M869.23,239.69l-206.22,191.82h-19.9l206.64-192.22,3.23-3.01c.72-.67,1.5-1.28,2.32-1.82,3.9-2.57,8.73-3.55,12.26-1.25.54.35.94.77,1.23,1.24,1.39,2.18.44,5.24.44,5.24Z"/>
    <path class="cls-3" d="M882.71,239.69l-206.22,191.82h-19.9l206.65-192.22,3.22-3.01c.72-.67,1.5-1.29,2.33-1.83,3.9-2.56,8.74-3.53,12.25-1.24.54.35.94.78,1.23,1.25,1.39,2.18.44,5.23.44,5.23Z"/>
    <path class="cls-3" d="M896.2,239.69l-206.22,191.82h-19.9l206.64-192.22,3.23-3.01c.72-.67,1.5-1.28,2.32-1.82,3.9-2.57,8.73-3.55,12.26-1.25.54.35.94.78,1.23,1.25,1.39,2.18.44,5.23.44,5.23Z"/>
    <path class="cls-3" d="M909.68,239.69l-206.22,191.82h-19.9l206.65-192.22,3.23-3.01c.72-.67,1.5-1.28,2.32-1.82,3.89-2.57,8.73-3.55,12.25-1.25.54.35.94.78,1.23,1.25,1.39,2.18.44,5.23.44,5.23Z"/>
    <path class="cls-3" d="M923.17,239.69l-206.22,191.82h-19.9l206.64-192.22,3.23-3.01c.72-.67,1.5-1.28,2.32-1.82,3.9-2.57,8.74-3.55,12.26-1.25.54.35.94.78,1.23,1.25,1.39,2.18.44,5.23.44,5.23Z"/>
    <path class="cls-3" d="M924.38,233.5v17.6l-193.95,180.41h-19.89l206.64-192.22,3.23-3.01c.72-.67,1.5-1.28,2.32-1.82.53-.35,1.08-.68,1.65-.96Z"/>
    <polygon class="cls-3" points="924.38 245.13 924.38 263.65 743.92 431.51 724.02 431.51 924.38 245.13"/>
    <polygon class="cls-3" points="924.38 257.68 924.38 276.19 757.4 431.51 737.51 431.51 924.38 257.68"/>
    <polygon class="cls-3" points="924.38 270.22 924.38 288.74 770.89 431.51 750.99 431.51 924.38 270.22"/>
    <polygon class="cls-3" points="924.38 282.77 924.38 301.28 784.37 431.51 764.48 431.51 924.38 282.77"/>
    <polygon class="cls-3" points="924.38 295.31 924.38 313.83 797.86 431.51 777.96 431.51 924.38 295.31"/>
    <polygon class="cls-3" points="924.38 307.86 924.38 326.37 811.35 431.51 791.45 431.51 924.38 307.86"/>
    <polygon class="cls-3" points="924.38 320.4 924.38 338.91 824.83 431.51 804.93 431.51 924.38 320.4"/>
    <polygon class="cls-3" points="924.38 332.94 924.38 351.46 838.32 431.51 818.42 431.51 924.38 332.94"/>
    <polygon class="cls-3" points="924.38 345.49 924.38 364 851.8 431.51 831.9 431.51 924.38 345.49"/>
    <polygon class="cls-3" points="924.38 358.03 924.38 376.54 865.29 431.51 845.39 431.51 924.38 358.03"/>
    <polygon class="cls-3" points="924.38 370.58 924.38 389.09 878.77 431.51 858.88 431.51 924.38 370.58"/>
    <polygon class="cls-3" points="924.38 383.12 924.38 401.63 892.26 431.51 872.36 431.51 924.38 383.12"/>
    <polygon class="cls-3" points="924.38 395.67 924.38 414.18 905.74 431.51 885.85 431.51 924.38 395.67"/>
    <polygon class="cls-3" points="924.38 408.21 924.38 426.72 919.23 431.51 899.33 431.51 924.38 408.21"/>
    <path class="cls-3" d="M924.38,420.76v7.26c0,1.93-1.57,3.49-3.5,3.49h-8.06l11.56-10.75Z"/>
  </g>
  <path class="cls-12" d="M951.64,476.56H49.69c-2.73,0-4.95-2.25-4.95-5.03v-234.59c0-2.78,2.21-5.03,4.95-5.03h25.32v197.84h848.37v-197.84h28.26c2.73,0,4.95,2.25,4.95,5.03v234.59c0,2.78-2.21,5.03-4.95,5.03Z"/>
</svg>