<?xml version="1.0" encoding="UTF-8"?>
<svg id="Layer_1" data-name="Layer 1" xmlns="http://www.w3.org/2000/svg" viewBox="0 0 1000 1000">
  <defs>
    <style>
      .cls-1, .cls-2, .cls-3, .cls-4 {
        fill-rule: evenodd;
      }

      .cls-1, .cls-5 {
        fill: #2e2e30;
      }

      .cls-6 {
        fill: #474748;
      }

      .cls-7 {
        fill: #2b2b2b;
      }

      .cls-8, .cls-3 {
        fill: #3d3d3d;
      }

      .cls-9 {
        fill: #e0e0e0;
      }

      .cls-10 {
        fill: #fff;
        opacity: .37;
      }

      .cls-2 {
        fill: #c2472a;
      }

      .cls-11 {
        fill: #969696;
      }

      .cls-12 {
        fill: #dfe1df;
      }

      .cls-13 {
        fill: #1b1b1b;
      }

      .cls-14 {
        fill: #1e1e1e;
      }

      .cls-4 {
        fill: #262626;
      }

      .cls-15 {
        fill: #212121;
      }
    </style>
  </defs>
  <path class="cls-1" d="M133.59,239.51v-16.24c0-10.94,8.4-17.32,11.13-19.59s39.65-29.32,61.37-39.04c21.72-9.72,50.58-20.96,57.87-22.18s11.54,0,13.52,3.04,5.92,10.94,5.92,10.94l-149.82,83.07Z"/>
  <path class="cls-1" d="M866.09,239.51v-16.24c0-10.94-8.4-17.32-11.13-19.59s-39.65-29.32-61.37-39.04c-21.72-9.72-50.58-20.96-57.87-22.18s-11.54,0-13.52,3.04-5.92,10.94-5.92,10.94l149.82,83.07Z"/>
  <path class="cls-15" d="M950.51,387.52c-72.61-210.31-218.35-232.55-238.86-237.86-20.51-5.32-42.08-7.37-56.51-8.58-14.43-1.22-16.9,3.49-20.24,6.97-3.34,3.48,0,15.06,0,15.06h-269.8s3.34-11.58,0-15.06c-3.34-3.48-5.81-8.18-20.24-6.97-14.43,1.22-36,3.27-56.51,8.58-20.51,5.32-166.25,27.55-238.86,237.86-72.61,210.31,16.14,436.83,28.86,463.98,1.82,3.89,2.39,7.61,11.28,7.61h820.74c8.89,0,9.46-3.72,11.28-7.61,12.72-27.16,101.47-253.67,28.86-463.98Z"/>
  <path class="cls-5" d="M315.37,499.97h374.05c7.92,0,14.34,6.43,14.34,14.34v326.28h-402.74v-326.28c0-7.92,6.43-14.34,14.34-14.34Z"/>
  <path class="cls-5" d="M912.95,367.63c-6.15-53.54-35.77-96.61-49.9-117.8s-61.44-61.29-103.42-80.17c-41.97-18.88-95.12-24.56-103.17-25.62-8.05-1.06-12.91-.53-16.1.61-3.19,1.14-10.86,7.52-17.54,13.44s-8.51,5.01-16.41,5.01h-212.15c-7.9,0-9.72.91-16.41-5.01-6.68-5.92-14.35-12.3-17.54-13.44-3.19-1.14-8.05-1.67-16.1-.61-8.05,1.06-61.19,6.74-103.17,25.62s-89.29,58.98-103.42,80.17-43.75,64.25-49.9,117.8c-6.15,53.54,5.23,90.67,12.18,97.4s12.65,11.74,30.88,11.74h739.08c18.23,0,23.92-5.01,30.88-11.74,6.96-6.73,18.33-43.85,12.18-97.4Z"/>
  <g>
    <circle class="cls-13" cx="501.88" cy="556.53" r="25.33"/>
    <g>
      <path class="cls-11" d="M478.95,545.4h45.85c6.09,0,11.04,4.95,11.04,11.04v.18c0,6.09-4.95,11.04-11.04,11.04h-45.85c-6.09,0-11.04-4.95-11.04-11.04v-.18c0-6.09,4.95-11.04,11.04-11.04Z"/>
      <path class="cls-14" d="M524.8,546.4c5.54,0,10.04,4.49,10.04,10.04v.18c0,5.54-4.49,10.04-10.04,10.04h-45.85c-5.54,0-10.04-4.49-10.04-10.04v-.18c0-5.54,4.49-10.04,10.04-10.04h45.85M524.8,544.4h-45.85c-6.64,0-12.04,5.4-12.04,12.04v.18c0,6.64,5.4,12.04,12.04,12.04h45.85c6.64,0,12.04-5.4,12.04-12.04v-.18c0-6.64-5.4-12.04-12.04-12.04h0Z"/>
    </g>
  </g>
  <g>
    <circle class="cls-13" cx="382.8" cy="556.1" r="25.33"/>
    <g>
      <path class="cls-11" d="M359.87,544.98h45.85c6.09,0,11.04,4.95,11.04,11.04v.18c0,6.09-4.95,11.04-11.04,11.04h-45.85c-6.09,0-11.04-4.95-11.04-11.04v-.18c0-6.09,4.95-11.04,11.04-11.04Z"/>
      <path class="cls-14" d="M405.72,545.98c5.54,0,10.04,4.49,10.04,10.04v.18c0,5.54-4.49,10.04-10.04,10.04h-45.85c-5.54,0-10.04-4.49-10.04-10.04v-.18c0-5.54,4.49-10.04,10.04-10.04h45.85M405.72,543.98h-45.85c-6.64,0-12.04,5.4-12.04,12.04v.18c0,6.64,5.4,12.04,12.04,12.04h45.85c6.64,0,12.04-5.4,12.04-12.04v-.18c0-6.64-5.4-12.04-12.04-12.04h0Z"/>
    </g>
  </g>
  <rect class="cls-11" x="414.3" y="377.57" width="65.92" height="19.9" rx="9.95" ry="9.95" transform="translate(-143.4 424.04) rotate(-44.44)"/>
  <rect class="cls-11" x="484.77" y="379.27" width="65.92" height="19.9" rx="9.95" ry="9.95" transform="translate(-124.43 473.87) rotate(-44.44)"/>
  <g>
    <circle class="cls-13" cx="620.87" cy="556.53" r="25.33"/>
    <g>
      <path class="cls-11" d="M597.95,545.4h45.85c6.09,0,11.04,4.95,11.04,11.04v.18c0,6.09-4.95,11.04-11.04,11.04h-45.85c-6.09,0-11.04-4.95-11.04-11.04v-.18c0-6.09,4.95-11.04,11.04-11.04Z"/>
      <path class="cls-14" d="M643.79,546.4c5.54,0,10.04,4.49,10.04,10.04v.18c0,5.54-4.49,10.04-10.04,10.04h-45.85c-5.54,0-10.04-4.49-10.04-10.04v-.18c0-5.54,4.49-10.04,10.04-10.04h45.85M643.79,544.4h-45.85c-6.64,0-12.04,5.4-12.04,12.04v.18c0,6.64,5.4,12.04,12.04,12.04h45.85c6.64,0,12.04-5.4,12.04-12.04v-.18c0-6.64-5.4-12.04-12.04-12.04h0Z"/>
    </g>
  </g>
  <g>
    <circle class="cls-13" cx="501.88" cy="632.63" r="25.33"/>
    <g>
      <path class="cls-11" d="M478.95,621.5h45.85c6.09,0,11.04,4.95,11.04,11.04v.18c0,6.09-4.95,11.04-11.04,11.04h-45.85c-6.09,0-11.04-4.95-11.04-11.04v-.18c0-6.09,4.95-11.04,11.04-11.04Z"/>
      <path class="cls-14" d="M524.8,622.5c5.54,0,10.04,4.49,10.04,10.04v.18c0,5.54-4.49,10.04-10.04,10.04h-45.85c-5.54,0-10.04-4.49-10.04-10.04v-.18c0-5.54,4.49-10.04,10.04-10.04h45.85M524.8,620.5h-45.85c-6.64,0-12.04,5.4-12.04,12.04v.18c0,6.64,5.4,12.04,12.04,12.04h45.85c6.64,0,12.04-5.4,12.04-12.04v-.18c0-6.64-5.4-12.04-12.04-12.04h0Z"/>
    </g>
  </g>
  <g>
    <circle class="cls-13" cx="382.8" cy="632.2" r="25.33"/>
    <g>
      <path class="cls-11" d="M359.87,621.08h45.85c6.09,0,11.04,4.95,11.04,11.04v.18c0,6.09-4.95,11.04-11.04,11.04h-45.85c-6.09,0-11.04-4.95-11.04-11.04v-.18c0-6.09,4.95-11.04,11.04-11.04Z"/>
      <path class="cls-14" d="M405.72,622.08c5.54,0,10.04,4.49,10.04,10.04v.18c0,5.54-4.49,10.04-10.04,10.04h-45.85c-5.54,0-10.04-4.49-10.04-10.04v-.18c0-5.54,4.49-10.04,10.04-10.04h45.85M405.72,620.08h-45.85c-6.64,0-12.04,5.4-12.04,12.04v.18c0,6.64,5.4,12.04,12.04,12.04h45.85c6.64,0,12.04-5.4,12.04-12.04v-.18c0-6.64-5.4-12.04-12.04-12.04h0Z"/>
    </g>
  </g>
  <g>
    <circle class="cls-13" cx="620.87" cy="632.63" r="25.33"/>
    <g>
      <path class="cls-11" d="M597.95,621.5h45.85c6.09,0,11.04,4.95,11.04,11.04v.18c0,6.09-4.95,11.04-11.04,11.04h-45.85c-6.09,0-11.04-4.95-11.04-11.04v-.18c0-6.09,4.95-11.04,11.04-11.04Z"/>
      <path class="cls-14" d="M643.79,622.5c5.54,0,10.04,4.49,10.04,10.04v.18c0,5.54-4.49,10.04-10.04,10.04h-45.85c-5.54,0-10.04-4.49-10.04-10.04v-.18c0-5.54,4.49-10.04,10.04-10.04h45.85M643.79,620.5h-45.85c-6.64,0-12.04,5.4-12.04,12.04v.18c0,6.64,5.4,12.04,12.04,12.04h45.85c6.64,0,12.04-5.4,12.04-12.04v-.18c0-6.64-5.4-12.04-12.04-12.04h0Z"/>
    </g>
  </g>
  <g>
    <circle class="cls-13" cx="501.88" cy="709.16" r="25.33"/>
    <g>
      <path class="cls-11" d="M478.95,698.03h45.85c6.09,0,11.04,4.95,11.04,11.04v.18c0,6.09-4.95,11.04-11.04,11.04h-45.85c-6.09,0-11.04-4.95-11.04-11.04v-.18c0-6.09,4.95-11.04,11.04-11.04Z"/>
      <path class="cls-14" d="M524.8,699.03c5.54,0,10.04,4.49,10.04,10.04v.18c0,5.54-4.49,10.04-10.04,10.04h-45.85c-5.54,0-10.04-4.49-10.04-10.04v-.18c0-5.54,4.49-10.04,10.04-10.04h45.85M524.8,697.03h-45.85c-6.64,0-12.04,5.4-12.04,12.04v.18c0,6.64,5.4,12.04,12.04,12.04h45.85c6.64,0,12.04-5.4,12.04-12.04v-.18c0-6.64-5.4-12.04-12.04-12.04h0Z"/>
    </g>
  </g>
  <g>
    <circle class="cls-13" cx="382.8" cy="708.73" r="25.33"/>
    <g>
      <path class="cls-11" d="M359.87,697.61h45.85c6.09,0,11.04,4.95,11.04,11.04v.18c0,6.09-4.95,11.04-11.04,11.04h-45.85c-6.09,0-11.04-4.95-11.04-11.04v-.18c0-6.09,4.95-11.04,11.04-11.04Z"/>
      <path class="cls-14" d="M405.72,698.61c5.54,0,10.04,4.49,10.04,10.04v.18c0,5.54-4.49,10.04-10.04,10.04h-45.85c-5.54,0-10.04-4.49-10.04-10.04v-.18c0-5.54,4.49-10.04,10.04-10.04h45.85M405.72,696.61h-45.85c-6.64,0-12.04,5.4-12.04,12.04v.18c0,6.64,5.4,12.04,12.04,12.04h45.85c6.64,0,12.04-5.4,12.04-12.04v-.18c0-6.64-5.4-12.04-12.04-12.04h0Z"/>
    </g>
  </g>
  <g>
    <circle class="cls-13" cx="620.87" cy="709.16" r="25.33"/>
    <g>
      <path class="cls-11" d="M597.95,698.03h45.85c6.09,0,11.04,4.95,11.04,11.04v.18c0,6.09-4.95,11.04-11.04,11.04h-45.85c-6.09,0-11.04-4.95-11.04-11.04v-.18c0-6.09,4.95-11.04,11.04-11.04Z"/>
      <path class="cls-14" d="M643.79,699.03c5.54,0,10.04,4.49,10.04,10.04v.18c0,5.54-4.49,10.04-10.04,10.04h-45.85c-5.54,0-10.04-4.49-10.04-10.04v-.18c0-5.54,4.49-10.04,10.04-10.04h45.85M643.79,697.03h-45.85c-6.64,0-12.04,5.4-12.04,12.04v.18c0,6.64,5.4,12.04,12.04,12.04h45.85c6.64,0,12.04-5.4,12.04-12.04v-.18c0-6.64-5.4-12.04-12.04-12.04h0Z"/>
    </g>
  </g>
  <g>
    <circle class="cls-13" cx="501.88" cy="785.03" r="25.33"/>
    <g>
      <path class="cls-11" d="M478.95,773.91h45.85c6.09,0,11.04,4.95,11.04,11.04v.18c0,6.09-4.95,11.04-11.04,11.04h-45.85c-6.09,0-11.04-4.95-11.04-11.04v-.18c0-6.09,4.95-11.04,11.04-11.04Z"/>
      <path class="cls-14" d="M524.8,774.9c5.54,0,10.04,4.49,10.04,10.04v.18c0,5.54-4.49,10.04-10.04,10.04h-45.85c-5.54,0-10.04-4.49-10.04-10.04v-.18c0-5.54,4.49-10.04,10.04-10.04h45.85M524.8,772.9h-45.85c-6.64,0-12.04,5.4-12.04,12.04v.18c0,6.64,5.4,12.04,12.04,12.04h45.85c6.64,0,12.04-5.4,12.04-12.04v-.18c0-6.64-5.4-12.04-12.04-12.04h0Z"/>
    </g>
  </g>
  <g>
    <circle class="cls-13" cx="382.8" cy="784.61" r="25.33"/>
    <g>
      <path class="cls-11" d="M359.87,773.48h45.85c6.09,0,11.04,4.95,11.04,11.04v.18c0,6.09-4.95,11.04-11.04,11.04h-45.85c-6.09,0-11.04-4.95-11.04-11.04v-.18c0-6.09,4.95-11.04,11.04-11.04Z"/>
      <path class="cls-14" d="M405.72,774.48c5.54,0,10.04,4.49,10.04,10.04v.18c0,5.54-4.49,10.04-10.04,10.04h-45.85c-5.54,0-10.04-4.49-10.04-10.04v-.18c0-5.54,4.49-10.04,10.04-10.04h45.85M405.72,772.48h-45.85c-6.64,0-12.04,5.4-12.04,12.04v.18c0,6.64,5.4,12.04,12.04,12.04h45.85c6.64,0,12.04-5.4,12.04-12.04v-.18c0-6.64-5.4-12.04-12.04-12.04h0Z"/>
    </g>
  </g>
  <g>
    <circle class="cls-13" cx="620.87" cy="785.03" r="25.33"/>
    <g>
      <path class="cls-11" d="M597.95,773.91h45.85c6.09,0,11.04,4.95,11.04,11.04v.18c0,6.09-4.95,11.04-11.04,11.04h-45.85c-6.09,0-11.04-4.95-11.04-11.04v-.18c0-6.09,4.95-11.04,11.04-11.04Z"/>
      <path class="cls-14" d="M643.79,774.9c5.54,0,10.04,4.49,10.04,10.04v.18c0,5.54-4.49,10.04-10.04,10.04h-45.85c-5.54,0-10.04-4.49-10.04-10.04v-.18c0-5.54,4.49-10.04,10.04-10.04h45.85M643.79,772.9h-45.85c-6.64,0-12.04,5.4-12.04,12.04v.18c0,6.64,5.4,12.04,12.04,12.04h45.85c6.64,0,12.04-5.4,12.04-12.04v-.18c0-6.64-5.4-12.04-12.04-12.04h0Z"/>
    </g>
  </g>
  <path class="cls-6" d="M300.39,169.42l-2.07-1.91c.62.67,1.31,1.31,2.07,1.91Z"/>
  <polygon class="cls-10" points="298.32 167.51 298.32 167.51 298.32 167.51 298.32 167.51"/>
  <g>
    <path class="cls-13" d="M376.44,323.5c0,14.2-2.66,27.77-7.5,40.26-.01.04-.03.1-.06.14-11.16,28.66-33.87,51.55-62.38,62.98-.1.04-.2.07-.3.11-12.71,5.05-26.58,7.83-41.07,7.83s-28.33-2.77-41.03-7.81c-.11-.04-.23-.08-.34-.13-28.52-11.43-51.22-34.32-62.38-62.98-.04-.1-.08-.2-.11-.31-4.81-12.43-7.45-25.96-7.45-40.09,0-14.91,2.93-29.12,8.25-42.11h0c.03-.08.07-.17.1-.24,11.43-27.74,33.73-49.86,61.6-61h0c12.8-5.14,26.76-7.95,41.37-7.95s28.57,2.82,41.37,7.94h0c27.87,11.16,50.17,33.28,61.6,61.02,0,0,.01,0,.01.01h0c5.38,13.06,8.33,27.36,8.33,42.34Z"/>
    <path class="cls-7" d="M346.63,323.48c0,10.35-1.94,20.25-5.47,29.35-.01.03-.02.07-.04.1-8.14,20.89-24.69,37.58-45.48,45.91-.07.03-.14.05-.22.08-9.27,3.68-19.37,5.71-29.94,5.71s-20.66-2.02-29.91-5.7c-.08-.03-.16-.06-.25-.09-20.79-8.33-37.34-25.02-45.48-45.91-.03-.07-.06-.14-.08-.23-3.51-9.06-5.43-18.92-5.43-29.23,0-10.87,2.13-21.23,6.01-30.7h0c.02-.06.05-.12.07-.17,8.33-20.23,24.59-36.35,44.91-44.48h0c9.33-3.75,19.51-5.8,30.16-5.8s20.83,2.05,30.16,5.79h0c20.32,8.14,36.57,24.26,44.91,44.49,0,0,.01,0,.01.01h0c3.92,9.52,6.08,19.95,6.08,30.87Z"/>
    <path class="cls-15" d="M341.16,352.78v.1h-.04l-28.5,2.33c-8.32,0-15.06,6.75-15.06,15.08l-1.92,25.71-.22,2.88h-59.86s-.25-3.24-.25-3.24l-1.92-25.35c0-8.32-6.74-15.08-15.06-15.08l-26.06-2.33-2.52-.23.58-59.93h0s2.78-.17,2.78-.17l25.21-1.49c8.32,0,15.06-6.75,15.06-15.08l1.92-27.91h60.32l1.92,27.91c0,8.32,6.74,15.08,15.06,15.08l27.74,1.49h.19v.02l.61,60.21Z"/>
    <path class="cls-15" d="M346.63,323.48c0,10.35-1.94,20.25-5.47,29.35v.1h-38.6c-3.83,0-6.93,3.1-6.93,6.92v39c-.07.03-.14.05-.22.08-9.27,3.68-19.37,5.71-29.94,5.71s-20.66-2.02-29.91-5.7c-.08-.03-.16-.06-.25-.09v-39c0-3.82-3.1-6.92-6.93-6.92h-38.55c-.03-.07-.06-.14-.08-.23-3.51-9.06-5.43-18.92-5.43-29.23,0-10.87,2.13-21.23,6.01-30.7h0c.02-.06.05-.12.07-.17h37.98c3.83,0,6.93-3.1,6.93-6.93v-37.56c9.33-3.74,19.51-5.79,30.16-5.79s20.83,2.05,30.16,5.79v37.56c0,3.83,3.1,6.93,6.93,6.93h37.98s.01,0,.01.01h0c3.92,9.52,6.08,19.95,6.08,30.87Z"/>
  </g>
  <g>
    <path class="cls-9" d="M454.99,409.01l2.76-2.86c1.77-1.83,3.85-2.67,5.87-.72,1.95,1.89,1.38,4.22-.33,5.98l-.99,1.03,2.82,2.73-1.82,1.88-8.31-8.04ZM461.7,410.08c1-1.03,1.01-1.97.15-2.81-.87-.84-1.72-.59-2.7.43l-.84.87,2.51,2.43.89-.92Z"/>
    <path class="cls-9" d="M462.69,401.04l2.18-2.25,10.84,5.43-1.92,1.99-5.26-2.99c-1.05-.57-2.25-1.3-3.33-1.92l-.05.05c.68,1.05,1.44,2.21,2.05,3.25l3.15,5.17-1.86,1.92-5.79-10.65ZM466.71,406.65l3.87-4,1.46,1.41-3.87,4-1.46-1.41Z"/>
    <path class="cls-9" d="M472.02,400.33l-4.46-4.32,1.82-1.88,4.65,4.5c1.63,1.58,2.69,1.61,3.59.68.9-.93.86-2.02-.77-3.59l-4.65-4.5,1.75-1.81,4.46,4.32c2.79,2.7,2.91,5.01.83,7.16s-4.43,2.15-7.22-.55Z"/>
    <path class="cls-9" d="M481.9,395.73l-.24-2.33c1.09-.09,2.18-.52,2.84-1.2.76-.78.82-1.47.33-1.94-.52-.51-1.15-.2-2.15.24l-1.51.63c-1.18.52-2.68.65-3.89-.51-1.38-1.33-1.29-3.63.39-5.36.93-.96,2.27-1.59,3.68-1.62l.27,2.1c-.95.14-1.68.44-2.32,1.09-.63.65-.76,1.32-.28,1.78.51.49,1.22.13,2.21-.32l1.45-.64c1.39-.62,2.68-.6,3.86.54,1.38,1.34,1.46,3.64-.45,5.62-1.05,1.08-2.57,1.83-4.18,1.92Z"/>
    <path class="cls-9" d="M481.48,381.63l5.04-5.21,1.58,1.52-3.22,3.33,1.67,1.62,2.74-2.83,1.58,1.53-2.74,2.83,1.92,1.85,3.34-3.46,1.58,1.53-5.16,5.34-8.31-8.04Z"/>
  </g>
  <g>
    <path class="cls-9" d="M529.6,416.49c-2.89-2.79-2.96-6.02-.66-8.41,2.31-2.38,5.55-2.4,8.42.38,2.89,2.79,3.04,6.1.74,8.48-2.3,2.38-5.61,2.34-8.5-.46ZM535.38,410.51c-1.77-1.71-3.55-1.97-4.72-.76-1.17,1.21-.86,2.98.92,4.69s3.63,2.04,4.79.83c1.17-1.21.78-3.05-.99-4.77Z"/>
    <path class="cls-9" d="M534.03,403.15l2.94-3.04c1.88-1.94,4.09-2.84,6.24-.76,2.08,2.01,1.46,4.48-.35,6.35l-1.06,1.09,3,2.9-1.93,2-8.83-8.55ZM541.16,404.29c1.06-1.1,1.08-2.09.16-2.98-.92-.89-1.83-.62-2.87.46l-.89.92,2.67,2.58.94-.97Z"/>
    <path class="cls-9" d="M544.45,395.73l-2.35,2.43-1.67-1.62,6.64-6.86,1.67,1.62-2.35,2.43,7.16,6.93-1.93,2-7.16-6.93Z"/>
    <path class="cls-9" d="M547.83,388.89l1.93-2,8.83,8.55-1.93,2-8.83-8.55Z"/>
    <path class="cls-9" d="M555.18,390.05c-2.89-2.79-2.96-6.02-.66-8.41,2.31-2.38,5.55-2.4,8.42.38,2.89,2.79,3.04,6.1.74,8.48-2.3,2.38-5.61,2.34-8.5-.46ZM560.97,384.07c-1.77-1.71-3.55-1.97-4.72-.76s-.86,2.98.92,4.69,3.63,2.04,4.79.83.78-3.05-.99-4.77Z"/>
    <path class="cls-9" d="M559.62,376.7l1.98-2.05,6.62,1.95,2.79,1,.05-.05c-1.02-.81-2.42-1.85-3.46-2.85l-3.12-3.02,1.84-1.9,8.83,8.55-1.98,2.05-6.63-1.96-2.78-.99-.05.05c1.07.85,2.4,1.83,3.45,2.84l3.13,3.03-1.84,1.9-8.83-8.55Z"/>
  </g>
  <path class="cls-9" d="M698.11,414.45c-4.31-4.17-4.05-9.43-.87-12.71,1.62-1.68,3.72-2.27,5.46-2.27l.39,3.37c-1.24.06-2.34.35-3.25,1.29-1.72,1.78-1.51,4.7,1.09,7.22,2.67,2.58,5.42,2.84,7.25.94,1.03-1.07,1.32-2.41,1.24-3.71l3.34.23c.21,2.29-.53,4.36-2.15,6.04-3.19,3.29-8.13,3.83-12.5-.4Z"/>
  <path class="cls-9" d="M762.78,341.46l3.85-3.78c2.34-2.29,4.78-3.43,6.89-1.28.99,1.01,1.48,2.64.9,3.88l.07.07c1.44-.83,3.16-.85,4.64.65,2.25,2.29,1.32,5.21-1.13,7.61l-4.17,4.09-11.04-11.25ZM770.93,342.3c1.23-1.21,1.27-2.27.47-3.09-.85-.87-1.76-.64-2.94.52l-1.21,1.19,2.5,2.54,1.19-1.17ZM775.85,346.86c1.39-1.36,1.62-2.56.62-3.58-.97-.99-2.07-.7-3.46.67l-1.42,1.39,2.85,2.91,1.42-1.39Z"/>
  <path class="cls-9" d="M843.76,282.1l3.54-2.88,14.74,9.76-3.13,2.54-7.1-5.24c-1.43-1.01-3.03-2.28-4.49-3.36l-.08.07c.81,1.64,1.7,3.46,2.4,5.06l3.66,8.03-3.03,2.46-6.52-16.43ZM848.59,290.91l6.3-5.11,1.87,2.3-6.3,5.11-1.87-2.3Z"/>
  <path class="cls-9" d="M644.92,350.98l-1.31-12.93-5.01,4.06-1.93-2.37,8.5-6.9,1.39,1.71,1.31,12.93,5.58-4.53,1.93,2.37-9.07,7.36-1.39-1.71Z"/>
  <path class="cls-9" d="M708.87,286.78l-9.35-4.53,2.75-2.23,3.13,1.78c.99.6,1.93,1.15,2.97,1.77l.07-.06c-.39-1.14-.71-2.19-1.08-3.3l-1.1-3.43,2.68-2.18,2.51,10.08,3.29,4.05-2.57,2.08-3.29-4.05Z"/>
  <path class="cls-9" d="M779.08,234.41l-7.11-2.98,2.74-2.22,2.61,1.29c.65.3,1.34.67,2.2,1.1l.07-.05c-.3-.89-.53-1.63-.72-2.31l-.81-2.75,2.62-2.13,1.55,7.68,7.45,3.04-2.74,2.22-2.87-1.34c-.73-.34-1.43-.7-2.27-1.13l-.07.05c.28.88.5,1.64.71,2.4l.78,3.04-2.62,2.13-1.54-8.03Z"/>
  <path class="cls-12" d="M382.8,584.44h-.04l-2.26,1.13-.41-1.76,3.01-1.48h1.95v12.35h-2.26v-10.24Z"/>
  <path class="cls-12" d="M497.46,594.68v-1.42l1.46-1.36c2.9-2.69,4.27-4.17,4.29-5.8,0-1.12-.59-2.08-2.21-2.08-1.09,0-2.02.55-2.64,1.03l-.69-1.66c.89-.71,2.24-1.27,3.79-1.27,2.74,0,4.08,1.72,4.08,3.74,0,2.17-1.56,3.92-3.72,5.91l-1.07.94v.04h5.06v1.93h-8.37Z"/>
  <path class="cls-12" d="M616.43,592.27c.49.28,1.64.76,2.81.76,1.78,0,2.5-1.01,2.5-1.98-.01-1.46-1.38-2.09-2.81-2.09h-1.07v-1.71h1.04c1.08,0,2.44-.49,2.44-1.72,0-.85-.61-1.55-1.97-1.55-1,0-2.01.43-2.53.77l-.53-1.69c.7-.48,2.08-.95,3.55-.95,2.55,0,3.85,1.41,3.85,3.02,0,1.29-.76,2.34-2.27,2.88v.04c1.5.28,2.71,1.41,2.71,3.08,0,2.09-1.75,3.74-4.8,3.74-1.51,0-2.79-.42-3.46-.86l.52-1.77Z"/>
  <path class="cls-12" d="M623.03,661.52c-.34-.01-.72,0-1.19.06-2.59.3-3.84,1.88-4.14,3.6h.05c.6-.69,1.54-1.19,2.78-1.19,2.13,0,3.78,1.52,3.78,4.01,0,2.37-1.73,4.41-4.36,4.41-3,0-4.66-2.27-4.66-5.33,0-2.38.86-4.3,2.14-5.53,1.13-1.07,2.63-1.68,4.39-1.82.51-.06.89-.06,1.18-.05v1.84ZM621.94,668.13c0-1.43-.79-2.44-2.15-2.44-.88,0-1.66.54-2.02,1.28-.09.18-.15.41-.15.73.04,1.63.81,2.96,2.32,2.96,1.21,0,2-1.05,2-2.54Z"/>
  <path class="cls-12" d="M505.79,661.8h-4.75l-.36,2.47c.28-.03.52-.05.89-.05,1.08,0,2.17.24,2.99.79.94.59,1.62,1.64,1.62,3.13,0,2.35-1.95,4.28-4.98,4.28-1.43,0-2.63-.36-3.28-.73l.48-1.77c.53.29,1.6.65,2.72.65,1.36,0,2.68-.78,2.67-2.25,0-1.41-1.04-2.35-3.51-2.35-.69,0-1.21.05-1.69.12l.8-6.23h6.4v1.94Z"/>
  <path class="cls-12" d="M384.15,672.21v-3.14h-5.59v-1.52l5.04-7.69h2.76v7.44h1.59v1.77h-1.59v3.14h-2.21ZM384.15,667.3v-3.36c0-.7.03-1.41.07-2.14h-.07c-.39.77-.71,1.4-1.09,2.08l-2.26,3.38v.04s3.35,0,3.35,0Z"/>
  <path class="cls-12" d="M388.38,736.37v1.5l-5.22,10.85h-2.46l5.2-10.38v-.04h-5.83v-1.93h8.3Z"/>
  <path class="cls-12" d="M497.24,745.54c0-1.52.89-2.58,2.31-3.2v-.05c-1.28-.63-1.87-1.66-1.87-2.74,0-2.03,1.78-3.39,4.12-3.39,2.67,0,3.87,1.59,3.87,3.11,0,1.06-.55,2.14-1.9,2.8v.05c1.35.53,2.37,1.58,2.37,3.12,0,2.2-1.86,3.68-4.51,3.68-2.88,0-4.38-1.66-4.38-3.39ZM503.74,745.44c0-1.26-.92-1.94-2.29-2.32-1.17.33-1.82,1.14-1.82,2.15-.03,1.05.77,2.01,2.08,2.01,1.23,0,2.04-.79,2.04-1.84ZM499.89,739.45c0,1.02.83,1.62,2.02,1.95.84-.26,1.53-.94,1.53-1.88,0-.86-.51-1.75-1.77-1.75-1.16,0-1.78.77-1.78,1.67Z"/>
  <path class="cls-12" d="M506.65,819.31c0,3.98-1.55,6.47-4.51,6.47s-4.35-2.59-4.38-6.35c0-3.84,1.63-6.42,4.52-6.42s4.37,2.67,4.37,6.3ZM500.11,819.42c0,3.01.82,4.57,2.11,4.57,1.38,0,2.09-1.67,2.09-4.63s-.68-4.56-2.09-4.56c-1.24,0-2.11,1.54-2.11,4.62Z"/>
  <path class="cls-12" d="M616.42,826.73l1.3-4.17h-1.83l.29-1.68h2.09l.91-2.88h-1.91l.28-1.67h2.15l1.29-4.08h1.65l-1.28,4.08h1.98l1.29-4.08h1.66l-1.28,4.08h1.82l-.28,1.67h-2.06l-.9,2.88h1.89l-.29,1.67h-2.15l-1.29,4.17h-1.68l1.3-4.17h-1.97l-1.29,4.17h-1.68ZM621.91,820.89l.9-2.88h-1.97l-.9,2.88h1.97Z"/>
  <path class="cls-12" d="M616.38,747.05c.37.04.73.02,1.29-.03.92-.08,1.82-.4,2.5-.95.81-.64,1.36-1.57,1.59-2.74h-.05c-.62.68-1.5,1.08-2.68,1.08-2.15,0-3.75-1.55-3.75-3.82s1.83-4.42,4.46-4.42c2.88,0,4.41,2.26,4.41,5.27,0,2.64-.86,4.52-2.15,5.74-1.07,1-2.56,1.58-4.21,1.69-.53.06-1.05.07-1.41.04v-1.85ZM617.61,740.44c0,1.28.74,2.27,2.03,2.27.94,0,1.63-.45,1.98-1.03.09-.16.14-.35.14-.67,0-1.67-.62-3.1-2.13-3.1-1.18,0-2.03,1.04-2.02,2.54Z"/>
  <path class="cls-12" d="M380.95,821.51l-3.23-2.35c-.37-.27-.18-.85.28-.85h4l1.24-3.8c.14-.43.75-.43.89,0l1.24,3.8h4c.45,0,.64.58.28.85l-3.23,2.35,1.24,3.8c.14.43-.35.79-.72.52l-3.23-2.35-3.23,2.35c-.37.27-.86-.09-.72-.52l1.24-3.8Z"/>
  <path class="cls-3" d="M532.23,194.61c-.77-2.61-2.38-4.38-5.26-4.38s-4.49,1.77-5.26,4.38l-7.74,26.49h7.74l1.54-5.66h7.43l1.54,5.66h7.74l-7.74-26.49ZM525.12,208.65l1.86-6.8,1.86,6.8h-3.71ZM562.46,190.5v30.6h7.35v-30.6h-7.35ZM554.55,207.52c1.67-.68,3.04-1.58,4.06-3.12.95-1.46,1.39-3.12,1.39-4.86,0-3.08-1.27-5.99-3.91-7.7-1.24-.8-2.78-1.35-4.28-1.35h-5.97c-3.66,0-5.69,2.4-5.69,5.97v24.63h7.35v-11.81l6.92,11.81h7.9l-7.78-13.58ZM551.86,202.67c-1.09,1.17-2.87,1.2-4.35,1.21v-6.58h2.25c1.69,0,3.07,1.06,3.07,2.83,0,.92-.33,1.88-.96,2.55ZM445.59,189.32v9.65c0,4.7-1.82,9.28-5.31,12.49-2.19,2.02-4.81,3.29-7.62,4.2v5.44c2.99-.41,5.8-1.21,8.35-2.88,5.8-3.79,8.2-10.25,8.2-16.96v-11.94h-3.63ZM465.68,212.35c-4.1-3.22-6.35-8.2-6.35-13.37v-9.65h-3.63v11.94c0,6.03,2.02,12.1,6.84,15.97,2.86,2.29,6.15,3.38,9.71,3.86v-5.44c-2.37-.77-4.61-1.77-6.58-3.31ZM449.97,189.32v31.78h4.96v-31.78h-4.96ZM496.72,194.61c-.77-2.61-2.37-4.38-5.26-4.38s-4.5,1.77-5.26,4.38l-7.75,26.49h7.75l1.54-5.66h7.41l1.55,5.66h7.74l-7.74-26.49ZM489.6,208.65l1.87-6.8,1.86,6.8h-3.72ZM499.88,190.5v6.8h5.68v23.8h7.35v-23.8h5.68v-6.8h-18.7Z"/>
  <g>
    <path class="cls-2" d="M649.39,449.48c-21.46,0-38.92-17.46-38.92-38.92s17.46-38.92,38.92-38.92,38.92,17.46,38.92,38.92-17.46,38.92-38.92,38.92Z"/>
    <path d="M649.39,371.83c21.39,0,38.73,17.34,38.73,38.73s-17.34,38.73-38.73,38.73-38.73-17.34-38.73-38.73,17.34-38.73,38.73-38.73M649.39,371.46c-21.56,0-39.11,17.54-39.11,39.11s17.54,39.11,39.11,39.11,39.11-17.54,39.11-39.11-17.54-39.11-39.11-39.11h0Z"/>
  </g>
  <g>
    <path class="cls-2" d="M601.44,359.1c-15.85,0-28.74-12.89-28.74-28.74s12.89-28.74,28.74-28.74,28.74,12.89,28.74,28.74-12.89,28.74-28.74,28.74Z"/>
    <path d="M601.44,301.8c15.77,0,28.56,12.79,28.56,28.56s-12.79,28.56-28.56,28.56-28.56-12.79-28.56-28.56,12.79-28.56,28.56-28.56M601.44,301.43c-15.95,0-28.93,12.98-28.93,28.93s12.98,28.93,28.93,28.93,28.93-12.98,28.93-28.93-12.98-28.93-28.93-28.93h0Z"/>
  </g>
  <g>
    <path class="cls-2" d="M664.63,301.99c-15.85,0-28.74-12.89-28.74-28.74s12.89-28.74,28.74-28.74,28.74,12.89,28.74,28.74-12.89,28.74-28.74,28.74Z"/>
    <path d="M664.63,244.69c15.77,0,28.56,12.79,28.56,28.56s-12.79,28.56-28.56,28.56-28.56-12.79-28.56-28.56,12.79-28.56,28.56-28.56M664.63,244.32c-15.95,0-28.93,12.98-28.93,28.93s12.98,28.93,28.93,28.93,28.93-12.98,28.93-28.93-12.98-28.93-28.93-28.93h0Z"/>
  </g>
  <g>
    <path class="cls-2" d="M735.42,251.26c-15.85,0-28.74-12.89-28.74-28.74s12.89-28.74,28.74-28.74,28.74,12.89,28.74,28.74-12.89,28.74-28.74,28.74Z"/>
    <path d="M735.42,193.96c15.77,0,28.56,12.79,28.56,28.56s-12.79,28.56-28.56,28.56-28.56-12.79-28.56-28.56,12.79-28.56,28.56-28.56M735.42,193.58c-15.95,0-28.93,12.98-28.93,28.93s12.98,28.93,28.93,28.93,28.93-12.98,28.93-28.93-12.98-28.93-28.93-28.93h0Z"/>
  </g>
  <g>
    <path class="cls-2" d="M720.02,382.5c-21.46,0-38.92-17.46-38.92-38.92s17.46-38.92,38.92-38.92,38.92,17.46,38.92,38.92-17.46,38.92-38.92,38.92Z"/>
    <path d="M720.02,304.84c21.39,0,38.73,17.34,38.73,38.73s-17.34,38.73-38.73,38.73-38.73-17.34-38.73-38.73,17.34-38.73,38.73-38.73M720.02,304.47c-21.56,0-39.11,17.54-39.11,39.11s17.54,39.11,39.11,39.11,39.11-17.54,39.11-39.11-17.54-39.11-39.11-39.11h0Z"/>
  </g>
  <g>
    <path class="cls-2" d="M799.77,328.72c-21.46,0-38.92-17.46-38.92-38.92s17.46-38.92,38.92-38.92,38.92,17.46,38.92,38.92-17.46,38.92-38.92,38.92Z"/>
    <path d="M799.77,251.07c21.39,0,38.73,17.34,38.73,38.73s-17.34,38.73-38.73,38.73-38.73-17.34-38.73-38.73,17.34-38.73,38.73-38.73M799.77,250.7c-21.56,0-39.11,17.54-39.11,39.11s17.54,39.11,39.11,39.11,39.11-17.54,39.11-39.11-17.54-39.11-39.11-39.11h0Z"/>
  </g>
  <polygon class="cls-4" points="585.97 239.22 415.24 239.22 371.2 177.09 418.27 233.9 583.69 233.15 630 177.09 585.97 239.22"/>
  <path class="cls-3" d="M823.2,840.59h-102.42l1.02-341.76h62.7l-1.02,3.1-.06,27.04-.05,24.81v.1l-.05,19.64v.11l-.06,26.73-.05,23.7-.06,26.37v.06l-.06,26.37-.03,15.4c.14,2.04.29,4.05.45,6.03,0,.11.01.21.02.32.58,7.52,1.24,14.64,2,21.42,1,8.93,2.16,17.28,3.52,25.21,1.35,7.87,2.91,15.32,4.7,22.51.12.47.24.94.36,1.41,2.12,8.31,4.56,16.28,7.39,24.15,3.07,8.54,6.59,16.96,10.65,25.57,3.31,7.05,6.98,14.23,11.05,21.71Z"/>
  <path class="cls-3" d="M284.01,498.83v341.76h-102.41c4.07-7.48,7.74-14.66,11.05-21.71,4.06-8.61,7.58-17.03,10.65-25.57,2.83-7.87,5.27-15.84,7.39-24.15.12-.47.24-.94.36-1.41,1.79-7.19,3.35-14.64,4.7-22.51,1.36-7.93,2.52-16.28,3.52-25.21.76-6.78,1.42-13.9,2-21.42,0-.11.02-.21.02-.32.16-1.98.31-3.99.45-6.03l-.03-15.4-.06-26.37v-.06l-.06-26.37-.05-23.7-.06-26.73v-.11l-.05-19.64v-.1l-.05-24.81-.06-27.04v-3.1h62.69Z"/>
  <polygon class="cls-13" points="284.01 519.74 284.01 540.93 221.38 540.93 221.32 519.74 284.01 519.74"/>
  <polygon class="cls-13" points="783.48 519.74 783.42 540.93 720.78 540.93 720.78 519.74 783.48 519.74"/>
  <polygon class="cls-8" points="284.01 540.93 284.01 561.21 221.43 561.21 221.43 561.13 221.38 540.93 284.01 540.93"/>
  <polygon class="cls-8" points="783.42 540.93 783.37 561.13 783.37 561.21 720.78 561.21 720.78 540.93 783.42 540.93"/>
  <polygon class="cls-13" points="284.01 561.21 284.01 582.33 221.48 582.33 221.48 582.21 221.43 561.31 221.43 561.21 284.01 561.21"/>
  <polygon class="cls-13" points="783.37 561.21 783.37 561.31 783.32 582.21 783.32 582.33 720.78 582.33 720.78 561.21 783.37 561.21"/>
  <polygon class="cls-8" points="284.01 582.39 284.01 604.3 221.54 604.3 221.48 582.48 221.48 582.39 284.01 582.39"/>
  <polygon class="cls-8" points="783.32 582.39 783.32 582.48 783.26 604.3 720.78 604.3 720.78 582.39 783.32 582.39"/>
  <polygon class="cls-13" points="284.01 604.3 284.01 628 221.59 628 221.54 604.3 284.01 604.3"/>
  <polygon class="cls-13" points="783.26 604.3 783.21 628 720.78 628 720.78 604.3 783.26 604.3"/>
  <polygon class="cls-8" points="284.01 628.12 284.01 650.49 221.65 650.49 221.65 650.44 221.59 628.12 284.01 628.12"/>
  <polygon class="cls-8" points="783.21 628.12 783.15 650.44 783.15 650.49 720.78 650.49 720.78 628.12 783.21 628.12"/>
  <polygon class="cls-13" points="284.01 650.43 284.01 676.86 221.71 676.86 221.65 650.49 221.65 650.43 284.01 650.43"/>
  <polygon class="cls-13" points="783.15 650.43 783.15 650.49 783.09 676.86 720.78 676.86 720.78 650.43 783.15 650.43"/>
  <path class="cls-8" d="M284.01,676.86v21.75h-62.74c0-.11.02-.21.02-.32.16-1.98.31-3.99.45-6.03l-.03-15.4h62.3Z"/>
  <path class="cls-8" d="M783.53,698.61h-62.75v-21.75h62.31l-.03,15.4c.14,2.04.29,4.05.45,6.03,0,.11.01.21.02.32Z"/>
  <path class="cls-13" d="M284.01,698.29v21.74h-64.74c.76-6.78,1.42-13.9,2-21.42,0-.11.02-.21.02-.32h62.72Z"/>
  <path class="cls-13" d="M785.53,720.03h-64.75v-21.74h62.73c0,.11.01.21.02.32.58,7.52,1.24,14.64,2,21.42Z"/>
  <path class="cls-8" d="M284.01,720.03v25.21h-68.26c1.36-7.93,2.52-16.28,3.52-25.21h64.74Z"/>
  <path class="cls-8" d="M789.05,745.24h-68.27v-25.21h64.75c1,8.93,2.16,17.28,3.52,25.21Z"/>
  <path class="cls-13" d="M284.01,745.24v23.92h-73.32c.12-.47.24-.94.36-1.41,1.79-7.19,3.35-14.64,4.7-22.51h68.26Z"/>
  <path class="cls-13" d="M794.11,769.16h-73.33v-23.92h68.27c1.35,7.87,2.91,15.32,4.7,22.51.12.47.24.94.36,1.41Z"/>
  <path class="cls-8" d="M284.01,767.75v25.56h-80.71c2.83-7.87,5.27-15.84,7.39-24.15.12-.47.24-.94.36-1.41h72.96Z"/>
  <path class="cls-8" d="M801.5,793.31h-80.72v-25.56h72.97c.12.47.24.94.36,1.41,2.12,8.31,4.56,16.28,7.39,24.15Z"/>
  <path class="cls-13" d="M284.01,793.31v25.57h-91.36c4.06-8.61,7.58-17.03,10.65-25.57h80.71Z"/>
  <path class="cls-13" d="M812.15,818.88h-91.37v-25.57h80.72c3.07,8.54,6.59,16.96,10.65,25.57Z"/>
  <path class="cls-8" d="M192.65,818.88h91.36v21.71h-102.41c4.07-7.48,7.74-14.66,11.05-21.71Z"/>
  <path class="cls-8" d="M823.2,840.59h-102.42v-21.71h91.37c3.31,7.05,6.98,14.23,11.05,21.71Z"/>
</svg>