<?xml version="1.0" encoding="UTF-8"?>
<svg id="Layer_1" data-name="Layer 1" xmlns="http://www.w3.org/2000/svg" viewBox="0 0 1000 1000">
  <defs>
    <style>
      .cls-1 {
        fill: #181818;
      }

      .cls-2 {
        fill: #aaaba4;
      }

      .cls-3 {
        fill: #333;
      }

      .cls-4 {
        fill: #845422;
      }

      .cls-5 {
        fill: #cd8d2a;
      }

      .cls-6 {
        fill: #4c4c4d;
      }

      .cls-7 {
        fill: #8c8b8a;
      }

      .cls-8 {
        stroke: #422626;
        stroke-width: 1.2px;
      }

      .cls-8, .cls-9, .cls-10 {
        stroke-miterlimit: 10;
      }

      .cls-8, .cls-10 {
        fill: none;
      }

      .cls-11 {
        fill: #a7a79e;
      }

      .cls-12 {
        fill: #1b1c1b;
      }

      .cls-13 {
        fill: #99988f;
      }

      .cls-14 {
        fill: #cc9c2b;
      }

      .cls-15 {
        fill: #cc9a2b;
      }

      .cls-9 {
        stroke: #2d2b28;
        stroke-width: .75px;
      }

      .cls-9, .cls-16 {
        fill: #9c9c91;
      }

      .cls-17 {
        fill: #adaca2;
      }

      .cls-18 {
        fill: #8d6226;
      }

      .cls-19 {
        fill: #8c8c8c;
      }

      .cls-20 {
        fill: #ae782b;
      }

      .cls-21 {
        fill: #2d2b28;
      }

      .cls-22 {
        fill: #bbbcb7;
      }

      .cls-23 {
        fill: #dbdada;
      }

      .cls-24 {
        fill: #564f45;
      }

      .cls-10 {
        stroke: #564f45;
        stroke-width: .5px;
      }

      .cls-25 {
        fill: #262622;
      }

      .cls-26 {
        fill: #c0c1bc;
      }

      .cls-27 {
        fill: #d6af29;
      }

      .cls-28 {
        fill: #38342e;
        opacity: .12;
      }

      .cls-29 {
        fill: #bdbbaf;
      }
    </style>
  </defs>
  <path class="cls-22" d="M161.91,139.23H39.92c-4.73,0-8.55,3.84-8.51,8.57l2.86,402.42h.03s1.16,327.6,1.16,327.6l65.57,5.72,48.69-392.69-16.2,7.22,8.92-111,19.48-247.84Z"/>
  <path class="cls-22" d="M968.9,147.93c.04-4.8-4.28-8.7-9.61-8.7h-132.42l26.89,366.15,16.26,7.41,94.7,365.17,1.01-327.73h0l3.18-402.3Z"/>
  <path class="cls-17" d="M864.85,500H135.14l-83.57,48.36-16.29,329.6c-.56,11.26,7.76,20.42,18.59,20.42h892.25c10.82,0,19.14-9.15,18.59-20.42l-16.29-329.6-83.57-48.36Z"/>
  <rect class="cls-13" x="422.02" y="562.96" width="147.39" height="22.94"/>
  <rect class="cls-12" x="826.24" y="614.37" width="70.78" height="217.25"/>
  <rect class="cls-17" x="422.02" y="585.9" width="147.39" height="22.94"/>
  <polyline class="cls-10" points="422.02 562.96 422.02 608.84 569.4 608.84 569.4 562.96"/>
  <polygon points="107.59 606.22 790.21 606.22 790.21 699.72 779.36 699.72 779.35 786.53 718.42 787.15 676.7 787.15 636.77 787.21 636.77 831.11 289.23 830.96 233.56 831.62 233.56 786.31 180.76 786.31 122.55 786.39 123 699.72 108.53 699.72 107.59 606.22"/>
  <g>
    <rect class="cls-1" x="676.43" y="653.55" width="41.99" height="41.99" rx="1.44" ry="1.44"/>
    <path class="cls-25" d="M710.44,686.58c-8.68,1.4-17.36,1.4-26.04,0-1.35,0-2.45-1.1-2.45-2.45v-26.04c0-1.35,1.1-2.45,2.45-2.45h26.04c1.35,0,2.45,1.1,2.45,2.45v26.04c0,1.35-1.1,2.45-2.45,2.45Z"/>
  </g>
  <g>
    <rect class="cls-1" x="179.47" y="653.55" width="41.99" height="41.99" rx="1.44" ry="1.44"/>
    <path class="cls-25" d="M213.49,686.58c-8.68,1.4-17.36,1.4-26.04,0-1.35,0-2.45-1.1-2.45-2.45v-26.04c0-1.35,1.1-2.45,2.45-2.45h26.04c1.35,0,2.45,1.1,2.45,2.45v26.04c0,1.35-1.1,2.45-2.45,2.45Z"/>
  </g>
  <g>
    <rect class="cls-1" x="631.24" y="653.55" width="41.99" height="41.99" rx="1.44" ry="1.44"/>
    <path class="cls-25" d="M665.26,686.58c-8.68,1.4-17.36,1.4-26.04,0-1.35,0-2.45-1.1-2.45-2.45v-26.04c0-1.35,1.1-2.45,2.45-2.45h26.04c1.35,0,2.45,1.1,2.45,2.45v26.04c0,1.35-1.1,2.45-2.45,2.45Z"/>
  </g>
  <g>
    <rect class="cls-1" x="586.07" y="653.55" width="41.99" height="41.99" rx="1.44" ry="1.44"/>
    <path class="cls-25" d="M620.08,686.58c-8.68,1.4-17.36,1.4-26.04,0-1.35,0-2.45-1.1-2.45-2.45v-26.04c0-1.35,1.1-2.45,2.45-2.45h26.04c1.35,0,2.45,1.1,2.45,2.45v26.04c0,1.35-1.1,2.45-2.45,2.45Z"/>
  </g>
  <g>
    <rect class="cls-1" x="540.9" y="653.55" width="41.99" height="41.99" rx="1.44" ry="1.44"/>
    <path class="cls-25" d="M574.91,686.58c-8.68,1.4-17.36,1.4-26.04,0-1.35,0-2.45-1.1-2.45-2.45v-26.04c0-1.35,1.1-2.45,2.45-2.45h26.04c1.35,0,2.45,1.1,2.45,2.45v26.04c0,1.35-1.1,2.45-2.45,2.45Z"/>
  </g>
  <g>
    <rect class="cls-1" x="495.71" y="653.55" width="41.99" height="41.99" rx="1.44" ry="1.44"/>
    <path class="cls-25" d="M529.73,686.58c-8.68,1.4-17.36,1.4-26.04,0-1.35,0-2.45-1.1-2.45-2.45v-26.04c0-1.35,1.1-2.45,2.45-2.45h26.04c1.35,0,2.45,1.1,2.45,2.45v26.04c0,1.35-1.1,2.45-2.45,2.45Z"/>
  </g>
  <g>
    <rect class="cls-1" x="450.54" y="653.55" width="41.99" height="41.99" rx="1.44" ry="1.44"/>
    <path class="cls-25" d="M484.55,686.58c-8.68,1.4-17.36,1.4-26.04,0-1.35,0-2.45-1.1-2.45-2.45v-26.04c0-1.35,1.1-2.45,2.45-2.45h26.04c1.35,0,2.45,1.1,2.45,2.45v26.04c0,1.35-1.1,2.45-2.45,2.45Z"/>
  </g>
  <g>
    <rect class="cls-1" x="405.36" y="653.55" width="41.99" height="41.99" rx="1.44" ry="1.44"/>
    <path class="cls-25" d="M439.37,686.58c-8.68,1.4-17.36,1.4-26.04,0-1.35,0-2.45-1.1-2.45-2.45v-26.04c0-1.35,1.1-2.45,2.45-2.45h26.04c1.35,0,2.45,1.1,2.45,2.45v26.04c0,1.35-1.1,2.45-2.45,2.45Z"/>
  </g>
  <g>
    <rect class="cls-1" x="360.19" y="653.55" width="41.99" height="41.99" rx="1.44" ry="1.44"/>
    <path class="cls-25" d="M394.2,686.58c-8.68,1.4-17.36,1.4-26.04,0-1.35,0-2.45-1.1-2.45-2.45v-26.04c0-1.35,1.1-2.45,2.45-2.45h26.04c1.35,0,2.45,1.1,2.45,2.45v26.04c0,1.35-1.1,2.45-2.45,2.45Z"/>
  </g>
  <g>
    <rect class="cls-1" x="315" y="653.55" width="41.99" height="41.99" rx="1.44" ry="1.44"/>
    <path class="cls-25" d="M349.01,686.58c-8.68,1.4-17.36,1.4-26.04,0-1.35,0-2.45-1.1-2.45-2.45v-26.04c0-1.35,1.1-2.45,2.45-2.45h26.04c1.35,0,2.45,1.1,2.45,2.45v26.04c0,1.35-1.1,2.45-2.45,2.45Z"/>
  </g>
  <g>
    <rect class="cls-1" x="269.83" y="653.55" width="41.99" height="41.99" rx="1.44" ry="1.44"/>
    <path class="cls-25" d="M303.84,686.58c-8.68,1.4-17.36,1.4-26.04,0-1.35,0-2.45-1.1-2.45-2.45v-26.04c0-1.35,1.1-2.45,2.45-2.45h26.04c1.35,0,2.45,1.1,2.45,2.45v26.04c0,1.35-1.1,2.45-2.45,2.45Z"/>
  </g>
  <g>
    <rect class="cls-1" x="224.65" y="653.55" width="41.99" height="41.99" rx="1.44" ry="1.44"/>
    <path class="cls-25" d="M258.67,686.58c-8.68,1.4-17.36,1.4-26.04,0-1.35,0-2.45-1.1-2.45-2.45v-26.04c0-1.35,1.1-2.45,2.45-2.45h26.04c1.35,0,2.45,1.1,2.45,2.45v26.04c0,1.35-1.1,2.45-2.45,2.45Z"/>
  </g>
  <g>
    <rect class="cls-1" x="608.66" y="609.48" width="41.99" height="41.99" rx="1.44" ry="1.44"/>
    <path class="cls-25" d="M642.67,642.5c-8.68,1.4-17.36,1.4-26.04,0-1.35,0-2.45-1.1-2.45-2.45v-26.04c0-1.35,1.1-2.45,2.45-2.45h26.04c1.35,0,2.45,1.1,2.45,2.45v26.04c0,1.35-1.1,2.45-2.45,2.45Z"/>
  </g>
  <g>
    <rect class="cls-1" x="111.71" y="609.48" width="41.99" height="41.99" rx="1.44" ry="1.44"/>
    <path class="cls-25" d="M145.72,642.5c-8.68,1.4-17.36,1.4-26.04,0-1.35,0-2.45-1.1-2.45-2.45v-26.04c0-1.35,1.1-2.45,2.45-2.45h26.04c1.35,0,2.45,1.1,2.45,2.45v26.04c0,1.35-1.1,2.45-2.45,2.45Z"/>
  </g>
  <g>
    <rect class="cls-1" x="563.48" y="609.48" width="41.99" height="41.99" rx="1.44" ry="1.44"/>
    <path class="cls-25" d="M597.49,642.5c-8.68,1.4-17.36,1.4-26.04,0-1.35,0-2.45-1.1-2.45-2.45v-26.04c0-1.35,1.1-2.45,2.45-2.45h26.04c1.35,0,2.45,1.1,2.45,2.45v26.04c0,1.35-1.1,2.45-2.45,2.45Z"/>
  </g>
  <g>
    <rect class="cls-1" x="698.68" y="609.48" width="41.99" height="41.99" rx="1.44" ry="1.44"/>
    <path class="cls-25" d="M732.69,642.5c-8.68,1.4-17.36,1.4-26.04,0-1.35,0-2.45-1.1-2.45-2.45v-26.04c0-1.35,1.1-2.45,2.45-2.45h26.04c1.35,0,2.45,1.1,2.45,2.45v26.04c0,1.35-1.1,2.45-2.45,2.45Z"/>
  </g>
  <g>
    <rect class="cls-1" x="722.02" y="653.55" width="64.59" height="41.99" rx="1.79" ry="1.79"/>
    <path class="cls-25" d="M777.98,686.58c-15.78,1.4-31.55,1.4-47.33,0-2.46,0-4.45-1.1-4.45-2.45v-26.04c0-1.35,1.99-2.45,4.45-2.45h47.33c2.46,0,4.45,1.1,4.45,2.45v26.04c0,1.35-1.99,2.45-4.45,2.45Z"/>
  </g>
  <rect class="cls-18" x="829.11" y="651.47" width="64.59" height="41.99" rx="1.79" ry="1.79"/>
  <path class="cls-20" d="M885.06,684.49c-15.78,1.4-31.55,1.4-47.33,0-2.46,0-4.45-1.1-4.45-2.45v-26.04c0-1.35,1.99-2.45,4.45-2.45h47.33c2.46,0,4.45,1.1,4.45,2.45v26.04c0,1.35-1.99,2.45-4.45,2.45Z"/>
  <rect class="cls-5" x="829.11" y="696" width="64.59" height="41.99" rx="1.79" ry="1.79"/>
  <path class="cls-15" d="M885.06,729.02c-15.78,1.4-31.55,1.4-47.33,0-2.46,0-4.45-1.1-4.45-2.45v-26.04c0-1.35,1.99-2.45,4.45-2.45h47.33c2.46,0,4.45,1.1,4.45,2.45v26.04c0,1.35-1.99,2.45-4.45,2.45Z"/>
  <rect class="cls-14" x="829.11" y="740.49" width="64.59" height="41.99" rx="1.79" ry="1.79"/>
  <path class="cls-27" d="M885.06,773.51c-15.78,1.4-31.55,1.4-47.33,0-2.46,0-4.45-1.1-4.45-2.45v-26.04c0-1.35,1.99-2.45,4.45-2.45h47.33c2.46,0,4.45,1.1,4.45,2.45v26.04c0,1.35-1.99,2.45-4.45,2.45Z"/>
  <rect class="cls-11" x="829.11" y="784.78" width="64.59" height="41.99" rx="1.79" ry="1.79"/>
  <path class="cls-29" d="M885.06,817.8c-15.78,1.4-31.55,1.4-47.33,0-2.46,0-4.45-1.1-4.45-2.45v-26.04c0-1.35,1.99-2.45,4.45-2.45h47.33c2.46,0,4.45,1.1,4.45,2.45v26.04c0,1.35-1.99,2.45-4.45,2.45Z"/>
  <rect class="cls-1" x="238.53" y="786.41" width="394.32" height="41.99" rx="2.01" ry="2.01"/>
  <rect class="cls-1" x="111.71" y="653.55" width="64.59" height="41.99" rx="1.79" ry="1.79"/>
  <path class="cls-25" d="M167.66,686.58c-15.78,1.4-31.55,1.4-47.33,0-2.46,0-4.45-1.1-4.45-2.45v-26.04c0-1.35,1.99-2.45,4.45-2.45h47.33c2.46,0,4.45,1.1,4.45,2.45v26.04c0,1.35-1.99,2.45-4.45,2.45Z"/>
  <rect class="cls-1" x="743.2" y="609.48" width="43.41" height="41.99" rx="1.47" ry="1.47"/>
  <path class="cls-25" d="M778.64,642.5c-9.16,1.4-18.31,1.4-27.48,0-1.43,0-2.58-1.1-2.58-2.45v-26.04c0-1.35,1.16-2.45,2.58-2.45h27.48c1.43,0,2.58,1.1,2.58,2.45v26.04c0,1.35-1.16,2.45-2.58,2.45Z"/>
  <rect class="cls-1" x="125.43" y="741.71" width="86.05" height="41.99" rx="2.07" ry="2.07"/>
  <path class="cls-25" d="M201.88,774.73c-22.29,1.4-44.57,1.4-66.86,0-3.48,0-6.29-1.1-6.29-2.45v-26.04c0-1.35,2.81-2.45,6.29-2.45h66.86c3.48,0,6.29,1.1,6.29,2.45v26.04c0,1.35-2.81,2.45-6.29,2.45Z"/>
  <rect class="cls-1" x="125.43" y="697.63" width="63.54" height="41.99" rx="1.78" ry="1.78"/>
  <path class="cls-25" d="M181.19,730.65c-15.99,1.4-32,1.4-47.99,0-2.49,0-4.52-1.1-4.52-2.45v-26.04c0-1.35,2.02-2.45,4.52-2.45h47.99c2.49,0,4.52,1.1,4.52,2.45v26.04c0,1.35-2.02,2.45-4.52,2.45h0Z"/>
  <rect class="cls-1" x="710.85" y="741.71" width="64.85" height="41.99" rx="1.79" ry="1.79"/>
  <g>
    <rect class="cls-1" x="653.51" y="609.48" width="41.99" height="41.99" rx="1.44" ry="1.44"/>
    <path class="cls-25" d="M687.52,642.5c-8.68,1.4-17.36,1.4-26.04,0-1.35,0-2.45-1.1-2.45-2.45v-26.04c0-1.35,1.1-2.45,2.45-2.45h26.04c1.35,0,2.45,1.1,2.45,2.45v26.04c0,1.35-1.1,2.45-2.45,2.45Z"/>
  </g>
  <g>
    <rect class="cls-1" x="518.31" y="609.48" width="41.99" height="41.99" rx="1.44" ry="1.44"/>
    <path class="cls-25" d="M552.32,642.5c-8.68,1.4-17.36,1.4-26.04,0-1.35,0-2.45-1.1-2.45-2.45v-26.04c0-1.35,1.1-2.45,2.45-2.45h26.04c1.35,0,2.45,1.1,2.45,2.45v26.04c0,1.35-1.1,2.45-2.45,2.45Z"/>
  </g>
  <g>
    <rect class="cls-1" x="473.12" y="609.48" width="41.99" height="41.99" rx="1.44" ry="1.44"/>
    <path class="cls-25" d="M507.13,642.5c-8.68,1.4-17.36,1.4-26.04,0-1.35,0-2.45-1.1-2.45-2.45v-26.04c0-1.35,1.1-2.45,2.45-2.45h26.04c1.35,0,2.45,1.1,2.45,2.45v26.04c0,1.35-1.1,2.45-2.45,2.45Z"/>
  </g>
  <g>
    <rect class="cls-1" x="427.95" y="609.48" width="41.99" height="41.99" rx="1.44" ry="1.44"/>
    <path class="cls-25" d="M461.96,642.5c-8.68,1.4-17.36,1.4-26.04,0-1.35,0-2.45-1.1-2.45-2.45v-26.04c0-1.35,1.1-2.45,2.45-2.45h26.04c1.35,0,2.45,1.1,2.45,2.45v26.04c0,1.35-1.1,2.45-2.45,2.45Z"/>
  </g>
  <g>
    <rect class="cls-1" x="382.77" y="609.48" width="41.99" height="41.99" rx="1.44" ry="1.44"/>
    <path class="cls-25" d="M416.79,642.5c-8.68,1.4-17.36,1.4-26.04,0-1.35,0-2.45-1.1-2.45-2.45v-26.04c0-1.35,1.1-2.45,2.45-2.45h26.04c1.35,0,2.45,1.1,2.45,2.45v26.04c0,1.35-1.1,2.45-2.45,2.45Z"/>
  </g>
  <g>
    <rect class="cls-1" x="337.59" y="609.48" width="41.99" height="41.99" rx="1.44" ry="1.44"/>
    <path class="cls-25" d="M371.61,642.5c-8.68,1.4-17.36,1.4-26.04,0-1.35,0-2.45-1.1-2.45-2.45v-26.04c0-1.35,1.1-2.45,2.45-2.45h26.04c1.35,0,2.45,1.1,2.45,2.45v26.04c0,1.35-1.1,2.45-2.45,2.45Z"/>
  </g>
  <g>
    <rect class="cls-1" x="292.41" y="609.48" width="41.99" height="41.99" rx="1.44" ry="1.44"/>
    <path class="cls-25" d="M326.43,642.5c-8.68,1.4-17.36,1.4-26.04,0-1.35,0-2.45-1.1-2.45-2.45v-26.04c0-1.35,1.1-2.45,2.45-2.45h26.04c1.35,0,2.45,1.1,2.45,2.45v26.04c0,1.35-1.1,2.45-2.45,2.45Z"/>
  </g>
  <g>
    <rect class="cls-1" x="247.24" y="609.48" width="41.99" height="41.99" rx="1.44" ry="1.44"/>
    <path class="cls-25" d="M281.25,642.5c-8.68,1.4-17.36,1.4-26.04,0-1.35,0-2.45-1.1-2.45-2.45v-26.04c0-1.35,1.1-2.45,2.45-2.45h26.04c1.35,0,2.45,1.1,2.45,2.45v26.04c0,1.35-1.1,2.45-2.45,2.45Z"/>
  </g>
  <g>
    <rect class="cls-1" x="202.07" y="609.48" width="41.99" height="41.99" rx="1.44" ry="1.44"/>
    <path class="cls-25" d="M236.08,642.5c-8.68,1.4-17.36,1.4-26.04,0-1.35,0-2.45-1.1-2.45-2.45v-26.04c0-1.35,1.1-2.45,2.45-2.45h26.04c1.35,0,2.45,1.1,2.45,2.45v26.04c0,1.35-1.1,2.45-2.45,2.45Z"/>
  </g>
  <g>
    <rect class="cls-1" x="156.88" y="609.48" width="41.99" height="41.99" rx="1.44" ry="1.44"/>
    <path class="cls-25" d="M190.89,642.5c-8.68,1.4-17.36,1.4-26.04,0-1.35,0-2.45-1.1-2.45-2.45v-26.04c0-1.35,1.1-2.45,2.45-2.45h26.04c1.35,0,2.45,1.1,2.45,2.45v26.04c0,1.35-1.1,2.45-2.45,2.45Z"/>
  </g>
  <g>
    <rect class="cls-1" x="191.57" y="697.63" width="41.99" height="41.99" rx="1.44" ry="1.44"/>
    <path class="cls-25" d="M225.58,730.65c-8.68,1.4-17.36,1.4-26.04,0-1.35,0-2.45-1.1-2.45-2.45v-26.04c0-1.35,1.1-2.45,2.45-2.45h26.04c1.35,0,2.45,1.1,2.45,2.45v26.04c0,1.35-1.1,2.45-2.45,2.45Z"/>
  </g>
  <g>
    <rect class="cls-1" x="643.35" y="697.63" width="41.99" height="41.99" rx="1.44" ry="1.44"/>
    <path class="cls-25" d="M677.36,730.65c-8.68,1.4-17.36,1.4-26.04,0-1.35,0-2.45-1.1-2.45-2.45v-26.04c0-1.35,1.1-2.45,2.45-2.45h26.04c1.35,0,2.45,1.1,2.45,2.45v26.04c0,1.35-1.1,2.45-2.45,2.45Z"/>
  </g>
  <g>
    <rect class="cls-1" x="598.17" y="697.63" width="41.99" height="41.99" rx="1.44" ry="1.44"/>
    <path class="cls-25" d="M632.19,730.65c-8.68,1.4-17.36,1.4-26.04,0-1.35,0-2.45-1.1-2.45-2.45v-26.04c0-1.35,1.1-2.45,2.45-2.45h26.04c1.35,0,2.45,1.1,2.45,2.45v26.04c0,1.35-1.1,2.45-2.45,2.45Z"/>
  </g>
  <g>
    <rect class="cls-1" x="733.7" y="697.63" width="41.99" height="41.99" rx="1.44" ry="1.44"/>
    <path class="cls-25" d="M767.71,730.65c-8.68,1.4-17.36,1.4-26.04,0-1.35,0-2.45-1.1-2.45-2.45v-26.04c0-1.35,1.1-2.45,2.45-2.45h26.04c1.35,0,2.45,1.1,2.45,2.45v26.04c0,1.35-1.1,2.45-2.45,2.45Z"/>
  </g>
  <g>
    <rect class="cls-1" x="688.52" y="697.63" width="41.99" height="41.99" rx="1.44" ry="1.44"/>
    <path class="cls-25" d="M722.53,730.65c-8.68,1.4-17.36,1.4-26.04,0-1.35,0-2.45-1.1-2.45-2.45v-26.04c0-1.35,1.1-2.45,2.45-2.45h26.04c1.35,0,2.45,1.1,2.45,2.45v26.04c0,1.35-1.1,2.45-2.45,2.45Z"/>
  </g>
  <g>
    <rect class="cls-1" x="552.99" y="697.63" width="41.99" height="41.99" rx="1.44" ry="1.44"/>
    <path class="cls-25" d="M587,730.65c-8.68,1.4-17.36,1.4-26.04,0-1.35,0-2.45-1.1-2.45-2.45v-26.04c0-1.35,1.1-2.45,2.45-2.45h26.04c1.35,0,2.45,1.1,2.45,2.45v26.04c0,1.35-1.1,2.45-2.45,2.45Z"/>
  </g>
  <g>
    <rect class="cls-1" x="507.81" y="697.63" width="41.99" height="41.99" rx="1.44" ry="1.44"/>
    <path class="cls-25" d="M541.83,730.65c-8.68,1.4-17.36,1.4-26.04,0-1.35,0-2.45-1.1-2.45-2.45v-26.04c0-1.35,1.1-2.45,2.45-2.45h26.04c1.35,0,2.45,1.1,2.45,2.45v26.04c0,1.35-1.1,2.45-2.45,2.45Z"/>
  </g>
  <g>
    <rect class="cls-1" x="462.64" y="697.63" width="41.99" height="41.99" rx="1.44" ry="1.44"/>
    <path class="cls-25" d="M496.65,730.65c-8.68,1.4-17.36,1.4-26.04,0-1.35,0-2.45-1.1-2.45-2.45v-26.04c0-1.35,1.1-2.45,2.45-2.45h26.04c1.35,0,2.45,1.1,2.45,2.45v26.04c0,1.35-1.1,2.45-2.45,2.45Z"/>
  </g>
  <g>
    <rect class="cls-1" x="417.45" y="697.63" width="41.99" height="41.99" rx="1.44" ry="1.44"/>
    <path class="cls-25" d="M451.47,730.65c-8.68,1.4-17.36,1.4-26.04,0-1.35,0-2.45-1.1-2.45-2.45v-26.04c0-1.35,1.1-2.45,2.45-2.45h26.04c1.35,0,2.45,1.1,2.45,2.45v26.04c0,1.35-1.1,2.45-2.45,2.45Z"/>
  </g>
  <g>
    <rect class="cls-1" x="372.28" y="697.63" width="41.99" height="41.99" rx="1.44" ry="1.44"/>
    <path class="cls-25" d="M406.29,730.65c-8.68,1.4-17.36,1.4-26.04,0-1.35,0-2.45-1.1-2.45-2.45v-26.04c0-1.35,1.1-2.45,2.45-2.45h26.04c1.35,0,2.45,1.1,2.45,2.45v26.04c0,1.35-1.1,2.45-2.45,2.45Z"/>
  </g>
  <g>
    <rect class="cls-1" x="327.11" y="697.63" width="41.99" height="41.99" rx="1.44" ry="1.44"/>
    <path class="cls-25" d="M361.12,730.65c-8.68,1.4-17.36,1.4-26.04,0-1.35,0-2.45-1.1-2.45-2.45v-26.04c0-1.35,1.1-2.45,2.45-2.45h26.04c1.35,0,2.45,1.1,2.45,2.45v26.04c0,1.35-1.1,2.45-2.45,2.45Z"/>
  </g>
  <g>
    <rect class="cls-1" x="281.93" y="697.63" width="41.99" height="41.99" rx="1.44" ry="1.44"/>
    <path class="cls-25" d="M315.94,730.65c-8.68,1.4-17.36,1.4-26.04,0-1.35,0-2.45-1.1-2.45-2.45v-26.04c0-1.35,1.1-2.45,2.45-2.45h26.04c1.35,0,2.45,1.1,2.45,2.45v26.04c0,1.35-1.1,2.45-2.45,2.45Z"/>
  </g>
  <g>
    <rect class="cls-1" x="236.75" y="697.63" width="41.99" height="41.99" rx="1.44" ry="1.44"/>
    <path class="cls-25" d="M270.76,730.65c-8.68,1.4-17.36,1.4-26.04,0-1.35,0-2.45-1.1-2.45-2.45v-26.04c0-1.35,1.1-2.45,2.45-2.45h26.04c1.35,0,2.45,1.1,2.45,2.45v26.04c0,1.35-1.1,2.45-2.45,2.45Z"/>
  </g>
  <g>
    <rect class="cls-1" x="214.16" y="741.71" width="41.99" height="41.99" rx="1.44" ry="1.44"/>
    <path class="cls-25" d="M248.17,774.73c-8.68,1.4-17.36,1.4-26.04,0-1.35,0-2.45-1.1-2.45-2.45v-26.04c0-1.35,1.1-2.45,2.45-2.45h26.04c1.35,0,2.45,1.1,2.45,2.45v26.04c0,1.35-1.1,2.45-2.45,2.45Z"/>
  </g>
  <g>
    <rect class="cls-1" x="620.76" y="741.71" width="41.99" height="41.99" rx="1.44" ry="1.44"/>
    <path class="cls-25" d="M654.77,774.73c-8.68,1.4-17.36,1.4-26.04,0-1.35,0-2.45-1.1-2.45-2.45v-26.04c0-1.35,1.1-2.45,2.45-2.45h26.04c1.35,0,2.45,1.1,2.45,2.45v26.04c0,1.35-1.1,2.45-2.45,2.45Z"/>
  </g>
  <g>
    <rect class="cls-1" x="666.1" y="741.71" width="41.99" height="41.99" rx="1.44" ry="1.44"/>
    <path class="cls-25" d="M700.12,774.73c-8.68,1.4-17.36,1.4-26.04,0-1.35,0-2.45-1.1-2.45-2.45v-26.04c0-1.35,1.1-2.45,2.45-2.45h26.04c1.35,0,2.45,1.1,2.45,2.45v26.04c0,1.35-1.1,2.45-2.45,2.45Z"/>
  </g>
  <g>
    <rect class="cls-1" x="575.58" y="741.71" width="41.99" height="41.99" rx="1.44" ry="1.44"/>
    <path class="cls-25" d="M609.59,774.73c-8.68,1.4-17.36,1.4-26.04,0-1.35,0-2.45-1.1-2.45-2.45v-26.04c0-1.35,1.1-2.45,2.45-2.45h26.04c1.35,0,2.45,1.1,2.45,2.45v26.04c0,1.35-1.1,2.45-2.45,2.45Z"/>
  </g>
  <g>
    <rect class="cls-1" x="530.4" y="741.71" width="41.99" height="41.99" rx="1.44" ry="1.44"/>
    <path class="cls-25" d="M564.41,774.73c-8.68,1.4-17.36,1.4-26.04,0-1.35,0-2.45-1.1-2.45-2.45v-26.04c0-1.35,1.1-2.45,2.45-2.45h26.04c1.35,0,2.45,1.1,2.45,2.45v26.04c0,1.35-1.1,2.45-2.45,2.45Z"/>
  </g>
  <g>
    <rect class="cls-1" x="485.23" y="741.71" width="41.99" height="41.99" rx="1.44" ry="1.44"/>
    <path class="cls-25" d="M519.24,774.73c-8.68,1.4-17.36,1.4-26.04,0-1.35,0-2.45-1.1-2.45-2.45v-26.04c0-1.35,1.1-2.45,2.45-2.45h26.04c1.35,0,2.45,1.1,2.45,2.45v26.04c0,1.35-1.1,2.45-2.45,2.45Z"/>
  </g>
  <g>
    <rect class="cls-1" x="440.05" y="741.71" width="41.99" height="41.99" rx="1.44" ry="1.44"/>
    <path class="cls-25" d="M474.07,774.73c-8.68,1.4-17.36,1.4-26.04,0-1.35,0-2.45-1.1-2.45-2.45v-26.04c0-1.35,1.1-2.45,2.45-2.45h26.04c1.35,0,2.45,1.1,2.45,2.45v26.04c0,1.35-1.1,2.45-2.45,2.45Z"/>
  </g>
  <g>
    <rect class="cls-1" x="394.87" y="741.71" width="41.99" height="41.99" rx="1.44" ry="1.44"/>
    <path class="cls-25" d="M428.88,774.73c-8.68,1.4-17.36,1.4-26.04,0-1.35,0-2.45-1.1-2.45-2.45v-26.04c0-1.35,1.1-2.45,2.45-2.45h26.04c1.35,0,2.45,1.1,2.45,2.45v26.04c0,1.35-1.1,2.45-2.45,2.45Z"/>
  </g>
  <g>
    <rect class="cls-1" x="349.69" y="741.71" width="41.99" height="41.99" rx="1.44" ry="1.44"/>
    <path class="cls-25" d="M383.71,774.73c-8.68,1.4-17.36,1.4-26.04,0-1.35,0-2.45-1.1-2.45-2.45v-26.04c0-1.35,1.1-2.45,2.45-2.45h26.04c1.35,0,2.45,1.1,2.45,2.45v26.04c0,1.35-1.1,2.45-2.45,2.45Z"/>
  </g>
  <rect class="cls-1" x="304.52" y="741.71" width="41.99" height="41.99" rx="1.44" ry="1.44"/>
  <path class="cls-25" d="M338.53,774.73c-8.68,1.4-17.36,1.4-26.04,0-1.35,0-2.45-1.1-2.45-2.45v-26.04c0-1.35,1.1-2.45,2.45-2.45h26.04c1.35,0,2.45,1.1,2.45,2.45v26.04c0,1.35-1.1,2.45-2.45,2.45Z"/>
  <g>
    <rect class="cls-1" x="259.33" y="741.71" width="41.99" height="41.99" rx="1.44" ry="1.44"/>
    <path class="cls-25" d="M293.35,774.73c-8.68,1.4-17.36,1.4-26.04,0-1.35,0-2.45-1.1-2.45-2.45v-26.04c0-1.35,1.1-2.45,2.45-2.45h26.04c1.35,0,2.45,1.1,2.45,2.45v26.04c0,1.35-1.1,2.45-2.45,2.45Z"/>
  </g>
  <path class="cls-25" d="M622.94,823.02c-126.41,1.28-251.82,1.28-376.26,0-1.66,0-3.02-1.06-3.02-2.39v-28.26c0-1.31,1.34-2.39,3.02-2.39h376.26c1.66,0,3.02,1.06,3.02,2.39v28.26c0,1.31-1.34,2.39-3.02,2.39Z"/>
  <path class="cls-25" d="M767.71,778.26c-16.79,1.36-32.85,1.33-48.24,0-.51,0-.92-.91-.92-2.02v-28.52c0-1.11.41-2.02.92-2.02h48.24c.51,0,.92.91.92,2.02v28.52c0,1.11-.41,2.02-.92,2.02Z"/>
  <rect class="cls-4" x="829.11" y="618.57" width="64.59" height="27.99" rx="1.78" ry="1.78"/>
  <rect class="cls-7" x="826.86" y="617.13" width="69.49" height="1.44"/>
  <rect class="cls-7" x="826.86" y="646.56" width="69.49" height="1.44"/>
  <g>
    <path class="cls-16" d="M173.51,563.21c-7.94,0-15.13-4.7-18.34-11.97l-22.53-51.14c-.03-.08-.03-.17.02-.24.05-.07.12-.11.21-.11h732.24c.08,0,.16.04.21.11.05.07.05.16.02.24l-22.53,51.14c-3.2,7.27-10.4,11.97-18.33,11.97H173.51Z"/>
    <path class="cls-21" d="M865.12,500l-22.53,51.15c-3.16,7.18-10.27,11.82-18.11,11.82H173.51c-7.84,0-14.94-4.64-18.11-11.82l-22.53-51.15h732.24M865.12,499.5H132.88c-.17,0-.33.09-.42.23-.09.14-.11.32-.04.47l22.53,51.15c3.24,7.36,10.53,12.12,18.56,12.12h650.97c8.04,0,15.32-4.76,18.56-12.12l22.53-51.15c.07-.15.05-.33-.04-.47-.09-.14-.25-.23-.42-.23h0Z"/>
  </g>
  <polygon class="cls-2" points="161.91 139.23 837.55 139.23 857.03 387.07 142.69 387.09 161.91 139.23"/>
  <polygon class="cls-28" points="822.97 195.46 177.03 195.46 181.47 146.55 818.53 146.55 822.97 195.46"/>
  <polygon class="cls-28" points="826.64 313.64 761.02 313.64 752.91 209.74 818.53 209.74 826.64 313.64"/>
  <polygon class="cls-28" points="238.58 313.49 172.96 313.49 181.47 209.74 247.09 209.74 238.58 313.49"/>
  <g>
    <polygon class="cls-24" points="142.43 387.07 144.84 387.07 164.19 139.23 161.91 139.23 142.43 387.07"/>
    <polygon class="cls-24" points="536.89 387.07 539.3 387.07 537.15 139.23 534.86 139.23 536.89 387.07"/>
    <polygon class="cls-24" points="525.93 387.07 528.34 387.07 526.78 139.23 524.5 139.23 525.93 387.07"/>
    <polygon class="cls-24" points="514.97 387.07 517.39 387.07 516.42 139.23 514.14 139.23 514.97 387.07"/>
    <polygon class="cls-24" points="504.02 387.07 506.43 387.07 506.06 139.23 503.78 139.23 504.02 387.07"/>
    <polygon class="cls-24" points="493.06 387.07 495.47 387.07 495.7 139.23 493.42 139.23 493.06 387.07"/>
    <polygon class="cls-24" points="482.1 387.07 484.51 387.07 485.34 139.23 483.06 139.23 482.1 387.07"/>
    <polygon class="cls-24" points="471.14 387.07 473.56 387.07 474.98 139.23 472.7 139.23 471.14 387.07"/>
    <polygon class="cls-24" points="460.19 387.07 462.6 387.07 464.62 139.23 462.34 139.23 460.19 387.07"/>
    <polygon class="cls-24" points="449.23 387.07 451.64 387.07 454.26 139.23 451.98 139.23 449.23 387.07"/>
    <polygon class="cls-24" points="438.27 387.07 440.68 387.07 443.9 139.23 441.62 139.23 438.27 387.07"/>
    <polygon class="cls-24" points="427.32 387.07 429.73 387.07 433.55 139.23 431.27 139.23 427.32 387.07"/>
    <polygon class="cls-24" points="416.36 387.07 418.78 387.07 423.19 139.23 420.91 139.23 416.36 387.07"/>
    <polygon class="cls-24" points="405.41 387.07 407.82 387.07 412.83 139.23 410.55 139.23 405.41 387.07"/>
    <polygon class="cls-24" points="394.45 387.07 396.86 387.07 402.47 139.23 400.19 139.23 394.45 387.07"/>
    <polygon class="cls-24" points="385.9 387.07 392.11 139.23 389.83 139.23 383.49 387.07 385.9 387.07"/>
    <polygon class="cls-24" points="374.95 387.07 381.75 139.23 379.47 139.23 372.53 387.07 374.95 387.07"/>
    <polygon class="cls-24" points="363.99 387.09 371.39 139.23 369.11 139.23 361.58 387.09 363.99 387.09"/>
    <polygon class="cls-24" points="353.02 387.09 361.02 139.23 358.74 139.23 350.61 387.09 353.02 387.09"/>
    <polygon class="cls-24" points="635.5 387.07 637.91 387.07 630.38 139.23 628.1 139.23 635.5 387.07"/>
    <polygon class="cls-24" points="624.55 387.07 626.96 387.07 620.03 139.23 617.75 139.23 624.55 387.07"/>
    <polygon class="cls-24" points="613.59 387.07 616.01 387.07 609.67 139.23 607.39 139.23 613.59 387.07"/>
    <polygon class="cls-24" points="602.64 387.07 605.05 387.07 599.31 139.23 597.03 139.23 602.64 387.07"/>
    <polygon class="cls-24" points="276.33 387.07 288.51 139.23 286.22 139.23 273.92 387.07 276.33 387.07"/>
    <polygon class="cls-24" points="265.37 387.07 278.15 139.23 275.86 139.23 262.96 387.07 265.37 387.07"/>
    <polygon class="cls-24" points="254.41 387.07 267.79 139.23 265.5 139.23 252 387.07 254.41 387.07"/>
    <polygon class="cls-24" points="243.45 387.07 257.42 139.23 255.14 139.23 241.04 387.07 243.45 387.07"/>
    <polygon class="cls-24" points="232.51 387.07 247.07 139.23 244.79 139.23 230.09 387.07 232.51 387.07"/>
    <polygon class="cls-24" points="221.55 387.07 236.71 139.23 234.43 139.23 219.14 387.07 221.55 387.07"/>
    <polygon class="cls-24" points="210.59 387.07 226.35 139.23 224.07 139.23 208.18 387.07 210.59 387.07"/>
    <polygon class="cls-24" points="199.62 387.09 215.98 139.23 213.7 139.23 197.21 387.09 199.62 387.09"/>
    <polygon class="cls-24" points="188.67 387.09 205.62 139.23 203.35 139.23 186.26 387.09 188.67 387.09"/>
    <polygon class="cls-24" points="177.71 387.09 195.26 139.23 192.98 139.23 175.3 387.09 177.71 387.09"/>
    <polygon class="cls-24" points="166.76 387.07 184.91 139.23 182.63 139.23 164.35 387.07 166.76 387.07"/>
    <polygon class="cls-24" points="153.39 387.07 155.8 387.07 174.55 139.23 172.27 139.23 153.39 387.07"/>
    <polygon class="cls-24" points="591.68 387.07 594.09 387.07 588.95 139.23 586.67 139.23 591.68 387.07"/>
    <polygon class="cls-24" points="580.72 387.07 583.13 387.07 578.59 139.23 576.31 139.23 580.72 387.07"/>
    <polygon class="cls-24" points="569.76 387.07 572.17 387.07 568.23 139.23 565.95 139.23 569.76 387.07"/>
    <polygon class="cls-24" points="558.81 387.07 561.22 387.07 557.87 139.23 555.58 139.23 558.81 387.07"/>
    <polygon class="cls-24" points="547.85 387.07 550.26 387.07 547.51 139.23 545.22 139.23 547.85 387.07"/>
    <polygon class="cls-24" points="810.79 387.07 813.2 387.07 796.11 139.23 793.83 139.23 810.79 387.07"/>
    <polygon class="cls-24" points="799.83 387.07 802.24 387.07 785.75 139.23 783.47 139.23 799.83 387.07"/>
    <polygon class="cls-24" points="788.87 387.07 791.29 387.07 775.39 139.23 773.11 139.23 788.87 387.07"/>
    <polygon class="cls-24" points="777.92 387.07 780.33 387.07 765.03 139.23 762.75 139.23 777.92 387.07"/>
    <polygon class="cls-24" points="766.96 387.07 769.37 387.07 754.67 139.23 752.39 139.23 766.96 387.07"/>
    <polygon class="cls-24" points="756 387.07 758.41 387.07 744.31 139.23 742.03 139.23 756 387.07"/>
    <polygon class="cls-24" points="745.04 387.07 747.46 387.07 733.95 139.23 731.67 139.23 745.04 387.07"/>
    <polygon class="cls-24" points="734.09 387.07 736.5 387.07 723.59 139.23 721.31 139.23 734.09 387.07"/>
    <polygon class="cls-24" points="723.13 387.07 725.54 387.07 713.23 139.23 710.95 139.23 723.13 387.07"/>
    <polygon class="cls-24" points="712.17 387.07 714.58 387.07 702.87 139.23 700.59 139.23 712.17 387.07"/>
    <polygon class="cls-24" points="701.21 387.07 703.63 387.07 692.51 139.23 690.23 139.23 701.21 387.07"/>
    <polygon class="cls-24" points="690.26 387.07 692.67 387.07 682.15 139.23 679.87 139.23 690.26 387.07"/>
    <polygon class="cls-24" points="679.31 387.07 681.72 387.07 671.8 139.23 669.52 139.23 679.31 387.07"/>
    <polygon class="cls-24" points="668.35 387.07 670.76 387.07 661.44 139.23 659.16 139.23 668.35 387.07"/>
    <polygon class="cls-24" points="657.39 387.07 659.8 387.07 651.08 139.23 648.8 139.23 657.39 387.07"/>
    <polygon class="cls-24" points="646.43 387.07 648.85 387.07 640.72 139.23 638.44 139.23 646.43 387.07"/>
    <polygon class="cls-24" points="854.62 387.07 857.03 387.07 837.55 139.23 835.27 139.23 854.62 387.07"/>
    <polygon class="cls-24" points="843.66 387.07 846.07 387.07 827.19 139.23 824.91 139.23 843.66 387.07"/>
    <polygon class="cls-24" points="832.7 387.07 835.12 387.07 816.83 139.23 814.55 139.23 832.7 387.07"/>
    <polygon class="cls-24" points="821.75 387.07 824.16 387.07 806.47 139.23 804.19 139.23 821.75 387.07"/>
    <polygon class="cls-24" points="342.07 387.09 350.67 139.23 348.39 139.23 339.66 387.09 342.07 387.09"/>
    <polygon class="cls-24" points="331.12 387.07 340.31 139.23 338.03 139.23 328.7 387.07 331.12 387.07"/>
    <polygon class="cls-24" points="320.16 387.07 329.95 139.23 327.67 139.23 317.75 387.07 320.16 387.07"/>
    <polygon class="cls-24" points="309.2 387.07 319.59 139.23 317.31 139.23 306.79 387.07 309.2 387.07"/>
    <polygon class="cls-24" points="298.24 387.07 309.23 139.23 306.95 139.23 295.83 387.07 298.24 387.07"/>
    <polygon class="cls-24" points="287.29 387.07 298.87 139.23 296.59 139.23 284.87 387.07 287.29 387.07"/>
  </g>
  <g>
    <polygon class="cls-26" points="855.73 387.09 142.69 387.09 132.32 500 865.42 500 855.73 387.09"/>
    <line class="cls-9" x1="142.69" y1="387.09" x2="132.55" y2="500"/>
    <line class="cls-9" x1="856.61" y1="387.09" x2="865.42" y2="500"/>
  </g>
  <g>
    <path class="cls-6" d="M209.25,540.1h-36.32c-1.18,0-2.22-.75-2.6-1.86l-7.42-21.91c-.6-1.78.72-3.62,2.6-3.62h38.29c1.26,0,2.36.86,2.66,2.08l5.45,21.91c.43,1.73-.88,3.41-2.66,3.41Z"/>
    <polygon class="cls-23" points="188.62 537.03 193.29 537.03 186.88 514.84 181.99 514.84 188.62 537.03"/>
    <path class="cls-23" d="M178.5,514.84h2.56c3.19,10.63,3.56,13.14,2.16,16.17-1.37,2.95-6.76,6-12.07,6.32l-1.08-3.21c3.97-.42,7.13-2.16,9.36-5.48,2.23-3.36-.17-11.55-.94-13.79Z"/>
    <path class="cls-23" d="M190.49,514.84h-2.56c3.01,10.63,4.12,13.14,7.34,16.17,3.06,2.95,10.25,6,15.78,6.32l-.81-3.21c-4.25-.42-8.44-2.16-12.58-5.48-4.25-3.36-6.65-11.55-7.16-13.79Z"/>
  </g>
  <path class="cls-19" d="M484.18,544.67l-259.41-1.01c-1.45,0-2.69-1.03-2.98-2.45l-5.99-29.4c-.39-1.89,1.06-3.67,2.99-3.67h266.26c1.72,0,3.1,1.42,3.05,3.14l-.85,30.41c-.05,1.66-1.41,2.98-3.07,2.97Z"/>
  <polygon class="cls-3" points="316.74 537.79 321.6 537.8 318.53 514.45 313.58 514.45 316.74 537.79"/>
  <polygon class="cls-3" points="250.32 514.41 250.98 517.88 257.57 517.89 261.2 537.62 266 537.64 262.45 517.9 268.81 517.9 268.2 514.42 250.32 514.41"/>
  <path class="cls-3" d="M281.37,516.81c-1.14-2.25-2.94-2.42-4.08-2.39-1.32-.04-3.06.14-3.53,2.38l-4.4,20.84h4.81s1.2-5.66,1.2-5.66l9.45.02,3.09,5.69h4.83s-11.38-20.89-11.38-20.89ZM275.52,527.72l1.92-8.87,4.89,8.88h-6.81Z"/>
  <path class="cls-3" d="M297.2,519.03l2.81,18.71h-4.84s-3.06-19.81-3.06-19.81c-.28-2.43.87-3.53,4.15-3.49h5.18c3.96-.03,8.98,2.16,9.62,6.98.67,4.64-2.69,5.82-4.47,6.52-.93.59-.64,1.04.01,1.8l8.43,8.05-5.58-.02-8.22-8.04c-1.65-1.54-1.3-3.23.17-3.78.93-.44,5.37-1.36,5.01-4.34-.49-2.94-2.98-3.63-4.71-3.66h-3.45c-.82.03-1.23.31-1.06,1.09h0Z"/>
  <path class="cls-3" d="M245.89,516.78c-1.15-2.24-2.94-2.42-4.12-2.38-1.26-.04-2.98.14-3.43,2.37l-3.72,20.76h4.78s1.01-5.64,1.01-5.64l9.38.02,3.25,5.67h4.8s-11.95-20.81-11.95-20.81ZM240.41,527.65l1.63-8.84,5.13,8.85h-6.76Z"/>
  <g>
    <g>
      <path class="cls-8" d="M376.43,526.45c.49,5.89-5.6,10.6-13.59,10.57-7.97-.02-14.93-4.76-15.57-10.63-.64-5.93,5.41-10.78,13.52-10.77,8.13,0,15.14,4.88,15.63,10.82Z"/>
      <path class="cls-8" d="M371.49,526.44c.34,3.9-3.69,7.04-8.99,7.02s-9.91-3.16-10.31-7.06,3.6-7.11,8.96-7.11,10,3.22,10.34,7.14Z"/>
    </g>
    <g>
      <path class="cls-8" d="M408.05,526.5c.33,5.91-5.93,10.63-13.97,10.61s-14.9-4.77-15.37-10.66,5.74-10.81,13.91-10.81c8.18,0,15.1,4.89,15.43,10.86Z"/>
      <path class="cls-8" d="M403.08,526.5c.23,3.91-3.91,7.06-9.24,7.04-5.33-.01-9.88-3.17-10.18-7.08s3.82-7.14,9.21-7.13c5.4,0,9.97,3.23,10.21,7.17Z"/>
    </g>
    <g>
      <path class="cls-8" d="M337.21,521.3c.13,1.09-.97,1.98-2.45,1.98s-2.78-.89-2.91-1.98.96-1.98,2.45-1.98,2.79.89,2.92,1.99Z"/>
      <path class="cls-8" d="M340.86,529.73c.25,2.15-1.93,3.89-4.87,3.88s-5.52-1.75-5.78-3.91,1.91-3.91,4.86-3.91,5.54,1.77,5.79,3.93Z"/>
      <path class="cls-8" d="M341.33,523.81c.51-.79.75-1.7.64-2.67-.34-3.05-3.97-5.54-8.11-5.54-4.13,0-7.17,2.48-6.79,5.52.12.97.58,1.88,1.27,2.67-2.07,1.37-3.24,3.44-2.95,5.74.52,4.09,5.44,7.39,11,7.41s9.72-3.27,9.27-7.37c-.25-2.31-1.92-4.38-4.32-5.77Z"/>
    </g>
  </g>
</svg>