<?xml version="1.0" encoding="UTF-8"?>
<svg id="Layer_1" data-name="Layer 1" xmlns="http://www.w3.org/2000/svg" xmlns:xlink="http://www.w3.org/1999/xlink" viewBox="0 0 1000 1000">
  <defs>
    <style>
      .cls-1 {
        fill: #181818;
      }

      .cls-2 {
        fill: #0b0b0b;
      }

      .cls-3 {
        fill: #262626;
      }

      .cls-4 {
        stroke-width: 1.87px;
      }

      .cls-4, .cls-5 {
        fill: #eaeaea;
        stroke: #c6c6c5;
      }

      .cls-4, .cls-5, .cls-6 {
        stroke-miterlimit: 10;
      }

      .cls-7 {
        fill: #303030;
      }

      .cls-8 {
        fill: #0d0d0d;
      }

      .cls-5 {
        fill-rule: evenodd;
      }

      .cls-9 {
        fill: #ee3024;
      }

      .cls-10 {
        fill: #c6c6c5;
      }

      .cls-11 {
        fill: #151515;
      }

      .cls-12 {
        fill: #c32527;
      }

      .cls-13 {
        fill: #1b1b1b;
      }

      .cls-14 {
        fill: #3a3a3a;
      }

      .cls-15 {
        fill: #1e1e1e;
      }

      .cls-16 {
        fill: #db2c27;
      }

      .cls-17 {
        fill: #d6d6d6;
      }

      .cls-18 {
        fill: #212121;
      }

      .cls-19 {
        fill: url(#linear-gradient);
      }

      .cls-6 {
        fill: none;
        stroke: #181818;
        stroke-width: 4.91px;
      }

      .cls-20 {
        fill: #e41e26;
      }
    </style>
    <linearGradient id="linear-gradient" x1="507.61" y1="846.05" x2="507.61" y2="559.57" gradientUnits="userSpaceOnUse">
      <stop offset="0" stop-color="#feee40"/>
      <stop offset=".08" stop-color="#e88324"/>
      <stop offset=".11" stop-color="#e97224"/>
      <stop offset=".15" stop-color="#ea5724"/>
      <stop offset=".19" stop-color="#ec4124"/>
      <stop offset=".24" stop-color="#ed3224"/>
      <stop offset=".3" stop-color="#ed2924"/>
      <stop offset=".39" stop-color="#ee2724"/>
      <stop offset=".43" stop-color="#eb2725"/>
      <stop offset=".46" stop-color="#e3272b"/>
      <stop offset=".49" stop-color="#d52736"/>
      <stop offset=".51" stop-color="#c02844"/>
      <stop offset=".52" stop-color="#a62957"/>
      <stop offset=".54" stop-color="#872a6e"/>
      <stop offset=".56" stop-color="#622b8a"/>
      <stop offset=".56" stop-color="#612c8b"/>
      <stop offset=".62" stop-color="#49439a"/>
      <stop offset=".68" stop-color="#3b51a3"/>
      <stop offset=".74" stop-color="#3657a7"/>
      <stop offset="1" stop-color="#1c6a36"/>
    </linearGradient>
  </defs>
  <g>
    <path class="cls-18" d="M609.49,247.41v683.96c0,5.27-2.08,10.06-5.46,13.58-3.57,3.73-8.6,6.05-14.17,6.05h-254.06c-5.57,0-10.6-2.32-14.17-6.05-3.38-3.52-5.46-8.31-5.46-13.58V247.41h293.32Z"/>
    <polygon class="cls-1" points="636.53 274.95 609.49 928.64 609.49 247.41 636.53 274.95"/>
    <polygon class="cls-1" points="316.17 247.41 316.17 928.64 289.14 274.95 316.17 247.41"/>
    <polygon class="cls-13" points="609.49 247.41 316.17 247.41 335.01 65.93 590.66 65.93 609.49 247.41"/>
    <polygon class="cls-11" points="636.53 274.95 609.49 247.41 590.66 65.93 620.66 84.31 636.53 274.95"/>
    <polygon class="cls-11" points="335.01 65.93 316.17 247.41 289.14 274.95 305.01 84.31 335.01 65.93"/>
    <polygon class="cls-11" points="590.66 65.93 335.01 65.93 337.97 59.47 587.69 59.47 590.66 65.93"/>
    <polygon class="cls-2" points="620.66 84.31 590.66 65.93 587.69 59.47 620.66 84.31"/>
    <polygon class="cls-2" points="337.97 59.47 335.01 65.93 305.01 84.31 337.97 59.47"/>
  </g>
  <rect class="cls-18" x="350.35" y="65.93" width="224.98" height="178.1"/>
  <g>
    <rect class="cls-1" x="354.09" y="65.93" width="217.5" height="12.28"/>
    <rect class="cls-1" x="354.09" y="83.63" width="217.5" height="6.11"/>
    <rect class="cls-1" x="354.09" y="96.25" width="217.5" height="6.11"/>
    <rect class="cls-1" x="354.09" y="108.87" width="217.5" height="6.11"/>
    <rect class="cls-1" x="354.09" y="121.49" width="217.5" height="6.11"/>
    <rect class="cls-1" x="354.09" y="134.11" width="217.5" height="6.11"/>
    <rect class="cls-1" x="354.09" y="146.74" width="217.5" height="6.11"/>
    <rect class="cls-1" x="354.09" y="159.36" width="217.5" height="6.11"/>
    <rect class="cls-1" x="354.09" y="171.98" width="217.5" height="6.11"/>
    <rect class="cls-1" x="354.09" y="184.6" width="217.5" height="6.11"/>
    <rect class="cls-1" x="354.09" y="197.22" width="217.5" height="6.11"/>
    <rect class="cls-1" x="354.09" y="209.84" width="217.5" height="6.11"/>
    <rect class="cls-1" x="354.09" y="222.46" width="217.5" height="6.11"/>
    <rect class="cls-1" x="354.09" y="235.08" width="217.5" height="6.11"/>
  </g>
  <rect class="cls-1" x="350.35" y="244.02" width="224.98" height="700.93"/>
  <path class="cls-1" d="M604.03,944.95c-3.57,3.73-8.6,6.05-14.17,6.05h-254.06c-5.57,0-10.6-2.32-14.17-6.05h282.4Z"/>
  <polygon class="cls-17" points="353.59 944.95 352.43 466.75 573.26 466.75 572.09 944.95 353.59 944.95"/>
  <path class="cls-5" d="M474.38,635.54v-16.68l-57.11,16.68c-5.63,1.66-9.45,5.12-9.45,11.33s3.82,9.68,9.45,11.34l57.11,16.68v-16.68l-12.2-3.33v-16.01l12.2-3.33ZM447.55,650.88l-14.66-4,14.66-4.01v8.01ZM408.41,554.52v15.84h65.97v-15.84h-65.97ZM474.37,570.64l-29.27,16.78c-1.46-3.61-3.4-6.56-6.72-8.75-3.14-2.04-6.73-3-10.47-3-6.64,0-12.92,2.74-16.6,8.42-1.72,2.68-2.9,6.01-2.9,9.22v12.87c0,7.89,5.16,12.26,12.86,12.26h53.1v-15.85h-25.45l25.45-14.92v-17.03ZM423.07,602.59v-4.84c0-3.65,2.27-6.61,6.09-6.61,1.98,0,4.05.7,5.5,2.07,2.51,2.36,2.58,6.19,2.6,9.38h-14.19ZM468.16,832.2c-8.17-12.5-22.1-17.69-36.55-17.69h-25.74v7.82h20.8c10.12,0,20.01,3.93,26.93,11.45,4.35,4.72,7.09,10.38,9.05,16.43h11.73c-.89-6.45-2.61-12.5-6.22-18.01ZM462.65,764.83c-1.65,5.12-3.82,9.94-7.15,14.2-6.93,8.84-17.68,13.68-28.83,13.68h-20.8v7.82h25.74c13,0,26.08-4.35,34.44-14.76,4.93-6.16,7.28-13.26,8.33-20.94h-11.73ZM405.87,802.18v10.7h68.51v-10.7h-68.51ZM474.38,712.1v-16.68l-57.11,16.68c-5.63,1.65-9.45,5.12-9.45,11.33s3.82,9.71,9.45,11.34l57.11,16.7v-16.7l-12.2-3.33v-15.99l12.2-3.35ZM447.55,727.46l-14.66-4.03,14.66-4v8.03ZM423.07,677.2v-12.24h-14.66v40.32h14.66v-12.24h51.31v-15.84h-51.31Z"/>
  <rect class="cls-4" x="498.07" y="554.97" width="19.06" height="295.69"/>
  <rect class="cls-19" x="503.35" y="559.57" width="8.51" height="286.48"/>
  <g>
    <g>
      <polygon class="cls-9" points="303.71 108.72 329.57 108.72 316.64 227.31 285.83 227.31 303.71 108.72"/>
      <polygon class="cls-16" points="329.57 108.72 313.78 99.07 303.71 108.72 329.57 108.72"/>
      <polygon class="cls-12" points="313.78 99.07 296.23 105.91 303.71 108.72 313.78 99.07"/>
      <polygon class="cls-12" points="285.83 227.31 277.51 246.26 290.04 260.73 316.64 227.31 285.83 227.31"/>
      <path class="cls-20" d="M296.23,105.91c-.37,29.33-7.95,80.1-18.72,140.35l8.32-18.95,17.89-118.59-7.48-2.81Z"/>
    </g>
    <g>
      <polygon class="cls-9" points="621.72 108.72 595.86 108.72 608.79 227.31 639.61 227.31 621.72 108.72"/>
      <polygon class="cls-16" points="595.86 108.72 611.66 99.07 621.72 108.72 595.86 108.72"/>
      <polygon class="cls-12" points="611.66 99.07 629.2 105.91 621.72 108.72 611.66 99.07"/>
      <polygon class="cls-12" points="639.61 227.31 647.93 246.26 635.39 260.73 608.79 227.31 639.61 227.31"/>
      <path class="cls-20" d="M629.2,105.91c.37,29.33,7.95,80.1,18.72,140.35l-8.32-18.95-17.89-118.59,7.48-2.81Z"/>
    </g>
  </g>
  <polygon class="cls-1" points="564.83 464.95 526.3 434.85 543.16 417.99 573.26 456.52 564.83 464.95"/>
  <polygon class="cls-1" points="360.86 464.95 399.39 434.85 382.53 417.99 352.43 456.52 360.86 464.95"/>
  <polygon class="cls-1" points="360.86 246.26 399.39 276.37 382.53 293.23 352.43 254.69 360.86 246.26"/>
  <polygon class="cls-1" points="564.83 246.26 526.3 276.37 543.16 293.23 573.26 254.69 564.83 246.26"/>
  <polygon class="cls-15" points="543.16 293.23 543.16 417.99 573.26 456.52 573.26 254.69 543.16 293.23"/>
  <polygon class="cls-15" points="382.53 293.23 382.53 417.99 352.43 456.52 352.43 254.69 382.53 293.23"/>
  <polygon class="cls-8" points="360.86 246.26 564.83 246.26 526.3 276.37 399.39 276.37 360.86 246.26"/>
  <polygon class="cls-8" points="399.39 434.85 526.3 434.85 564.83 464.95 360.86 464.95 399.39 434.85"/>
  <g>
    <path class="cls-14" d="M586.01,352.77c0,1.46-.03,2.91-.09,4.36-.06,2.16-.2,4.31-.39,6.44-.25,2.88-.6,5.73-1.06,8.55-3.05,19.08-10.55,36.66-21.42,51.67-1.67,2.33-3.44,4.6-5.29,6.8-1.37,1.65-2.8,3.27-4.27,4.84-1.95,2.1-3.97,4.13-6.07,6.08-1.61,1.5-3.25,2.96-4.94,4.36-2.2,1.85-4.46,3.61-6.79,5.28-15.01,10.87-32.59,18.37-51.67,21.42-2.82.46-5.67.81-8.55,1.06-2.18.2-4.37.33-6.58.4-1.4.06-2.81.08-4.22.08s-2.92-.03-4.37-.09c-2.16-.06-4.31-.2-6.44-.39-2.88-.25-5.73-.6-8.55-1.07-19.08-3.04-36.67-10.55-51.67-21.41-2.33-1.67-4.59-3.43-6.79-5.28-1.65-1.37-3.27-2.8-4.84-4.27-2.1-1.95-4.13-3.97-6.08-6.07-1.5-1.61-2.96-3.25-4.36-4.94-1.85-2.2-3.62-4.47-5.29-6.8-10.87-15.01-18.37-32.59-21.42-51.67-.46-2.82-.81-5.67-1.06-8.55-.19-2.13-.33-4.28-.39-6.44-.06-1.45-.09-2.9-.09-4.36s.02-2.83.08-4.23c.07-2.21.2-4.4.4-6.58.25-2.88.6-5.73,1.06-8.54,3.05-19.08,10.56-36.68,21.42-51.68,1.67-2.33,3.44-4.59,5.28-6.79,1.41-1.69,2.87-3.34,4.37-4.94,1.95-2.1,3.98-4.13,6.08-6.07,1.57-1.47,3.19-2.9,4.84-4.27,2.2-1.85,4.46-3.61,6.79-5.28,15-10.86,32.59-18.37,51.67-21.41,2.82-.47,5.67-.82,8.55-1.07,2.13-.19,4.28-.33,6.44-.39,1.45-.06,2.91-.09,4.37-.09s2.82.02,4.22.08c2.21.07,4.4.2,6.58.4,2.88.25,5.73.6,8.55,1.06,19.08,3.05,36.66,10.55,51.67,21.42,2.33,1.67,4.59,3.43,6.79,5.28,1.69,1.4,3.33,2.86,4.94,4.36,2.1,1.95,4.12,3.98,6.07,6.08,1.48,1.57,2.9,3.19,4.28,4.84,1.84,2.2,3.61,4.46,5.28,6.79,10.86,15,18.37,32.6,21.42,51.68.46,2.81.81,5.66,1.06,8.54.2,2.18.33,4.37.4,6.58.06,1.4.08,2.81.08,4.23Z"/>
    <circle class="cls-3" cx="464.67" cy="352.77" r="99.43"/>
    <circle class="cls-6" cx="464.67" cy="352.77" r="71.96"/>
    <g>
      <g>
        <g>
          <path class="cls-7" d="M469.4,458.58l-.51,15.45c-1.4.06-2.81.08-4.22.08s-2.92-.03-4.37-.09l-.37-15.44c0-2.62,2.12-4.74,4.74-4.74,1.31,0,2.49.53,3.34,1.39.86.85,1.39,2.04,1.39,3.35Z"/>
          <path class="cls-7" d="M455.75,457.97c0,.14,0,.28-.02.42l-1.87,15.24c-2.88-.25-5.73-.6-8.55-1.07l.98-15.01c.24-2.61,2.54-4.53,5.14-4.3,2.47.23,4.32,2.3,4.32,4.72Z"/>
          <path class="cls-7" d="M484.02,472.57c-2.82.46-5.67.81-8.55,1.06l-1.87-15.24c-.01-.14-.02-.28-.02-.42,0-2.42,1.85-4.49,4.32-4.72,2.6-.23,4.9,1.69,5.14,4.3l.98,15.02Z"/>
        </g>
        <g>
          <path class="cls-7" d="M469.4,246.96c0,1.3-.53,2.49-1.39,3.35-.85.86-2.03,1.39-3.34,1.39-2.62,0-4.74-2.13-4.74-4.74l.37-15.44c1.45-.06,2.91-.09,4.37-.09s2.82.02,4.22.08l.51,15.45Z"/>
          <path class="cls-7" d="M455.75,247.56c0,2.43-1.85,4.5-4.32,4.72-2.6.24-4.9-1.69-5.14-4.29l-.98-15.01c2.82-.47,5.67-.82,8.55-1.07l1.87,15.23c.01.14.02.28.02.42Z"/>
          <path class="cls-7" d="M484.02,232.97l-.98,15.02c-.24,2.6-2.54,4.53-5.14,4.29-2.47-.22-4.32-2.29-4.32-4.72,0-.14.01-.28.02-.42l1.87-15.23c2.88.25,5.73.6,8.55,1.06Z"/>
        </g>
      </g>
      <g>
        <g>
          <path class="cls-7" d="M586.01,352.77c0,1.46-.03,2.91-.09,4.36l-15.44.37c-2.62,0-4.74-2.12-4.74-4.73,0-1.31.53-2.49,1.39-3.35.85-.86,2.04-1.39,3.35-1.39l15.45.51c.06,1.4.08,2.81.08,4.23Z"/>
          <path class="cls-7" d="M585.53,363.57c-.25,2.88-.6,5.73-1.06,8.55l-15.02-.98c-2.61-.23-4.53-2.53-4.3-5.14.22-2.47,2.29-4.32,4.72-4.32.14,0,.28.01.42.02l15.24,1.87Z"/>
          <path class="cls-7" d="M585.53,341.96l-15.24,1.87c-.15,0-.29.02-.44.02-2.41,0-4.48-1.86-4.7-4.31-.23-2.61,1.69-4.91,4.3-5.14l15.02-.98c.46,2.81.81,5.66,1.06,8.54Z"/>
        </g>
        <g>
          <path class="cls-7" d="M363.59,352.77c0,2.61-2.12,4.73-4.73,4.73l-15.45-.37c-.06-1.45-.09-2.9-.09-4.36s.02-2.83.08-4.23l15.46-.51c1.3,0,2.49.53,3.34,1.39.86.86,1.39,2.04,1.39,3.35Z"/>
          <path class="cls-7" d="M364.18,366c.23,2.61-1.69,4.91-4.29,5.14l-15.03.98c-.46-2.82-.81-5.67-1.06-8.55l15.24-1.87c.14-.01.28-.02.42-.02,2.43,0,4.5,1.85,4.72,4.32Z"/>
          <path class="cls-7" d="M364.18,339.54c-.22,2.45-2.28,4.31-4.7,4.31-.15,0-.29-.01-.44-.02l-15.24-1.87c.25-2.88.6-5.73,1.06-8.54l15.03.98c2.6.23,4.52,2.53,4.29,5.14Z"/>
        </g>
      </g>
      <g>
        <g>
          <path class="cls-7" d="M553.49,270.11l-10.66,11.19c-1.85,1.85-4.85,1.85-6.7,0-.92-.92-1.38-2.14-1.38-3.35s.46-2.43,1.38-3.35l11.29-10.57c2.1,1.95,4.12,3.98,6.07,6.08Z"/>
          <path class="cls-7" d="M563.05,281.74l-11.3,9.93c-2.01,1.68-5,1.41-6.67-.6-.74-.89-1.1-1.97-1.1-3.04,0-1.35.57-2.69,1.69-3.63l12.1-9.45c1.84,2.2,3.61,4.46,5.28,6.79Z"/>
          <path class="cls-7" d="M542.48,259.67l-9.44,12.09c-.94,1.12-2.29,1.7-3.64,1.7-1.08,0-2.15-.36-3.04-1.1-2-1.68-2.27-4.67-.59-6.67l9.92-11.3c2.33,1.67,4.59,3.43,6.79,5.28Z"/>
        </g>
        <g>
          <path class="cls-7" d="M393.2,430.94l-11.19,10.66c-2.1-1.95-4.13-3.97-6.08-6.07l10.57-11.29c.92-.92,2.14-1.39,3.35-1.39s2.43.47,3.35,1.39c1.85,1.85,1.85,4.85,0,6.7Z"/>
          <path class="cls-7" d="M403.57,439.85l-9.93,11.3c-2.33-1.67-4.59-3.43-6.79-5.28l9.45-12.09c.93-1.12,2.28-1.7,3.63-1.7,1.08,0,2.15.36,3.04,1.1,2.01,1.68,2.27,4.66.6,6.67Z"/>
          <path class="cls-7" d="M385.36,417.5c0,1.36-.58,2.7-1.7,3.64l-12.09,9.45c-1.85-2.2-3.62-4.47-5.29-6.8l11.3-9.92c2.01-1.68,5-1.41,6.68.6.74.88,1.1,1.96,1.1,3.03Z"/>
        </g>
      </g>
      <g>
        <g>
          <path class="cls-7" d="M393.2,281.3c-.92.92-2.14,1.39-3.35,1.39s-2.43-.47-3.35-1.39l-10.57-11.29c1.95-2.1,3.98-4.13,6.08-6.07l11.19,10.66c1.85,1.85,1.85,4.85,0,6.7Z"/>
          <path class="cls-7" d="M402.97,272.36c-.89.74-1.96,1.1-3.04,1.1-1.35,0-2.7-.58-3.63-1.7l-9.45-12.09c2.2-1.85,4.46-3.61,6.79-5.28l9.93,11.3c1.67,2,1.41,4.99-.6,6.67Z"/>
          <path class="cls-7" d="M385.36,288.03c0,1.07-.36,2.15-1.1,3.04-1.68,2.01-4.67,2.28-6.68.6l-11.3-9.93c1.67-2.33,3.44-4.59,5.28-6.79l12.1,9.45c1.12.94,1.7,2.28,1.7,3.63Z"/>
        </g>
        <g>
          <path class="cls-7" d="M553.49,435.43c-1.95,2.1-3.97,4.13-6.07,6.08l-11.29-10.57c-.92-.92-1.38-2.14-1.38-3.35s.46-2.43,1.38-3.35c1.85-1.85,4.85-1.85,6.7,0l10.66,11.19Z"/>
          <path class="cls-7" d="M563.05,423.79c-1.67,2.33-3.44,4.6-5.29,6.8l-12.09-9.45c-1.12-.94-1.69-2.28-1.69-3.64,0-1.07.36-2.15,1.1-3.03,1.67-2.01,4.66-2.28,6.67-.6l11.3,9.92Z"/>
          <path class="cls-7" d="M542.48,445.87c-2.2,1.85-4.46,3.61-6.79,5.28l-9.92-11.3c-1.68-2.01-1.41-4.99.59-6.67.89-.74,1.96-1.1,3.04-1.1,1.35,0,2.7.58,3.64,1.7l9.44,12.09Z"/>
        </g>
      </g>
    </g>
  </g>
  <polygon class="cls-10" points="571.08 950.27 354.61 950.27 353.59 944.95 572.09 944.95 571.08 950.27"/>
</svg>