<?xml version="1.0" encoding="UTF-8"?>
<svg id="Layer_1" data-name="Layer 1" xmlns="http://www.w3.org/2000/svg" viewBox="0 0 1000 1000">
  <defs>
    <style>
      .cls-1 {
        font-family: AcuminProWide-Light, 'Acumin Pro Wide';
        font-size: 119.6px;
        font-weight: 300;
      }

      .cls-1, .cls-2 {
        fill: #ccc;
      }

      .cls-3 {
        fill: #232323;
      }

      .cls-4 {
        fill: #3d3d3d;
      }

      .cls-5 {
        fill: #231f20;
        font-family: CalifornianFB-Bold, 'Californian FB';
      }

      .cls-5, .cls-2 {
        font-size: 70.17px;
        font-weight: 700;
      }

      .cls-2 {
        font-family: BerlinSansFB-Bold, 'Berlin Sans FB';
      }

      .cls-6 {
        fill: #969696;
      }

      .cls-7 {
        fill: #151515;
      }

      .cls-8 {
        fill: #1b1b1b;
      }

      .cls-9 {
        fill: #ededed;
      }

      .cls-10 {
        fill: #262628;
      }

      .cls-11 {
        fill: #d6d6d6;
      }

      .cls-12 {
        fill: #212121;
      }

      .cls-13 {
        fill: #e0e0df;
      }

      .cls-14 {
        fill: #878787;
      }
    </style>
  </defs>
  <polygon class="cls-6" points="709.76 296.72 709.76 294.24 706.18 294.24 706.18 281.46 293.82 281.46 293.82 294.24 290.24 294.24 290.24 296.72 293.82 296.72 293.82 300.27 290.24 300.27 290.24 302.75 293.82 302.75 293.82 306.3 290.24 306.3 290.24 308.78 293.82 308.78 293.82 312.33 290.24 312.33 290.24 314.81 293.82 314.81 293.82 318.37 290.24 318.37 290.24 320.84 293.82 320.84 293.82 324.4 290.24 324.4 290.24 326.87 293.82 326.87 293.82 330.43 290.24 330.43 290.24 332.91 293.82 332.91 293.82 336.46 290.24 336.46 290.24 338.94 293.82 338.94 293.82 342.49 290.24 342.49 290.24 344.97 293.82 344.97 293.82 348.52 290.24 348.52 290.24 351 293.82 351 293.82 354.55 290.24 354.55 290.24 357.03 293.82 357.03 293.82 360.58 290.24 360.58 290.24 363.06 293.82 363.06 293.82 376.46 706.18 376.46 706.18 363.06 709.76 363.06 709.76 360.58 706.18 360.58 706.18 357.03 709.76 357.03 709.76 354.55 706.18 354.55 706.18 351 709.76 351 709.76 348.52 706.18 348.52 706.18 344.97 709.76 344.97 709.76 342.49 706.18 342.49 706.18 338.94 709.76 338.94 709.76 336.46 706.18 336.46 706.18 332.91 709.76 332.91 709.76 330.43 706.18 330.43 706.18 326.87 709.76 326.87 709.76 324.4 706.18 324.4 706.18 320.84 709.76 320.84 709.76 318.37 706.18 318.37 706.18 314.81 709.76 314.81 709.76 312.33 706.18 312.33 706.18 308.78 709.76 308.78 709.76 306.3 706.18 306.3 706.18 302.75 709.76 302.75 709.76 300.27 706.18 300.27 706.18 296.72 709.76 296.72"/>
  <rect class="cls-14" x="307.3" y="281.46" width="385.39" height="94.99"/>
  <path class="cls-7" d="M680.63,281.46c1.5,0,2.95-.58,4.03-1.63l20.4-19.67c1.13-1.09,1.77-2.6,1.77-4.18V38.5c0-5.63-4.56-10.19-10.19-10.19h-393.86c-5.63,0-10.19,4.56-10.19,10.19v217.48c0,1.58.64,3.08,1.77,4.18l20.4,19.67c1.08,1.04,2.53,1.63,4.03,1.63h13.56v94.99h-16.64c-1.93,0-3.77.84-5.05,2.29l-15.33,17.52c-1.07,1.22-1.66,2.79-1.66,4.42v557.81c0,5.1,4.13,9.22,9.23,9.22h393.79c5.09,0,9.22-4.12,9.22-9.22V400.68c0-1.63-.58-3.2-1.66-4.42l-15.33-17.52c-1.27-1.44-3.11-2.29-5.04-2.29h-16.19v-94.99h12.93Z"/>
  <polygon class="cls-3" points="663.79 376.46 663.79 281.46 568.13 281.46 431.45 282.54 335.79 281.46 335.79 376.46 318.17 408.39 318.17 939.87 439.71 939.87 559.87 939.87 681.41 939.87 681.41 408.39 663.79 376.46"/>
  <rect class="cls-11" x="454.17" y="499.33" width="94.7" height="94.7" rx="7.57" ry="7.57"/>
  <rect class="cls-11" x="563.59" y="499.33" width="94.7" height="94.7" rx="7.57" ry="7.57"/>
  <rect class="cls-11" x="344.74" y="499.33" width="94.7" height="94.7" rx="7.57" ry="7.57"/>
  <rect class="cls-11" x="454.17" y="609.99" width="94.7" height="94.7" rx="7.57" ry="7.57"/>
  <rect class="cls-11" x="563.59" y="609.99" width="94.7" height="94.7" rx="7.57" ry="7.57"/>
  <rect class="cls-11" x="344.74" y="609.99" width="94.7" height="94.7" rx="7.57" ry="7.57"/>
  <rect class="cls-11" x="454.17" y="720.65" width="94.7" height="94.7" rx="7.57" ry="7.57"/>
  <rect class="cls-11" x="563.59" y="720.65" width="94.7" height="94.7" rx="7.57" ry="7.57"/>
  <rect class="cls-11" x="344.74" y="720.65" width="94.7" height="94.7" rx="7.57" ry="7.57"/>
  <rect class="cls-11" x="454.17" y="831.31" width="94.7" height="94.7" rx="7.57" ry="7.57"/>
  <rect class="cls-7" x="563.59" y="831.31" width="94.7" height="94.7" rx="7.57" ry="7.57"/>
  <rect class="cls-7" x="344.74" y="831.31" width="94.7" height="94.7" rx="7.57" ry="7.57"/>
  <path class="cls-10" d="M615.44,162.1c0,13.99-2.5,27.37-7.1,39.77-1.57,4.24-3.38,8.37-5.43,12.36-18.96,37.04-57.52,62.39-101.99,62.39-63.24,0-114.51-51.27-114.51-114.52,0-40.72,21.26-76.48,53.28-96.77,17.71-11.24,38.72-17.74,61.23-17.74,63.25,0,114.52,51.27,114.52,114.51Z"/>
  <path class="cls-4" d="M607.73,162.1c0,13.05-2.33,25.53-6.62,37.09-1.46,3.96-3.16,7.8-5.07,11.53-17.68,34.54-53.65,58.19-95.13,58.19-58.98,0-106.8-47.82-106.8-106.81,0-37.98,19.83-71.33,49.69-90.25,16.52-10.49,36.11-16.55,57.11-16.55,58.99,0,106.81,47.82,106.81,106.8Z"/>
  <path class="cls-13" d="M591.4,162.1c0,11.05-1.97,21.63-5.61,31.42-1.24,3.35-2.67,6.61-4.29,9.77-14.98,29.26-45.45,49.29-80.58,49.29-49.96,0-90.47-40.51-90.47-90.48,0-32.17,16.8-60.42,42.09-76.45,13.99-8.88,30.59-14.02,48.38-14.02,49.97,0,90.48,40.51,90.48,90.47Z"/>
  <path class="cls-9" d="M500.92,71.63v90.47l-48.38-76.45c13.99-8.88,30.59-14.02,48.38-14.02Z"/>
  <path class="cls-9" d="M540.82,243.29l-39.92-81.19-9.68,89.96c16.48,1.8,33.63-.92,49.6-8.77Z"/>
  <path class="cls-9" d="M585.79,193.52c-1.24,3.35-2.67,6.61-4.29,9.77l-80.58-41.19,84.87,31.42Z"/>
  <path class="cls-9" d="M413.73,137.83c.96-3.44,2.12-6.81,3.47-10.09l83.72,34.37-87.19-24.28Z"/>
  <rect class="cls-8" x="694.9" y="491.85" width="11.28" height="102.17"/>
  <rect class="cls-8" x="694.9" y="827" width="11.28" height="102.18"/>
  <path class="cls-8" d="M706.18,653.93v114.73c-12.78-2.24-22.85-27.06-22.85-57.37s10.07-55.12,22.85-57.36Z"/>
  <rect class="cls-7" x="421.24" y="307.22" width="161.56" height="31.69"/>
  <path class="cls-12" d="M431.46,303.33h141.12c9.45,0,14.23,1.04,14.23,9.96v19.4c0,9.19-5.31,9.96-14.23,9.96h-141.12c-9.45,0-14.49-.77-14.49-9.95v-19.4c0-9.18,5.43-9.96,14.49-9.96ZM431.46,338.91h141.12c5.95,0,10.22-.39,10.22-6.2v-19.41c0-5.43-3.88-6.08-10.22-6.08h-141.12c-5.69,0-10.22.13-10.22,6.08v19.4c0,5.56,3.88,6.21,10.22,6.21ZM566.36,313.29c8.15,0,10.35,1.17,10.35,9.57,0,10.48-2.2,10.48-16.42,10.48-8.41,0-10.09-1.42-10.09-10.22,0-9.83,2.2-9.83,16.17-9.83h0ZM563.4,328.43c6.6,0,7.37-.26,7.37-4.66,0-5.3-.9-5.3-7.24-5.3s-7.37,0-7.37,5.18c0,4.66,1.16,4.78,7.24,4.78ZM548.51,320.93h-5.43c-.77-2.2-1.42-2.46-4.92-2.46q-7.89,0-7.89,6.73c0,2.2.9,3.36,3.1,3.36,9.19,0,9.31,0,9.7-2.72h5.43c0,7.11-.26,7.63-13.58,7.63-9.83,0-10.73-.91-10.73-11.38,0-7.5,2.46-8.54,10.87-8.54,11.9,0,13.45,0,13.45,7.37h0ZM451.12,320.93h-5.43c-.65-2.19-1.29-2.45-4.78-2.45-7.89,0-8.02,0-8.02,6.73,0,2.33.9,3.36,3.1,3.36,9.18,0,9.44,0,9.7-2.72h5.43c0,7.11-.13,7.63-13.45,7.63-9.83,0-10.74-1.04-10.74-11.26,0-8.28,2.46-8.67,12.94-8.67,9.31,0,11.25.26,11.25,7.37h0ZM501.82,332.7v-19.4h21.22v4.52h-15.52v3.1h14.49v4.01h-14.49v3.23h15.52v4.53h-21.22ZM481.26,313.29h5.95v14.36h12.94v5.04h-18.89v-19.4h0ZM453.18,323.78c0-10.09,1.81-10.22,16.94-10.22,7.11,0,8.93,1.68,8.93,8.79s-.39,11.12-6.6,11.12c-17.21,0-19.28,0-19.28-9.7h0ZM466.12,328.43c6.6,0,7.37-.26,7.37-4.79,0-5.3-.91-5.18-7.24-5.18s-7.37,0-7.37,5.18c0,4.66,1.17,4.79,7.25,4.79h0Z"/>
  <polygon points="400.55 521.67 399.25 565.43 392.35 565.43 393.71 528.51 384.52 533.75 380.05 531.26 400.55 521.67"/>
  <path d="M404.67,745.99l-22.04,42.24c-1.68.15-7.96,1.43-6.67-1.87l21.87-34.9h-21.89v-5.47h28.72Z"/>
  <path d="M494.94,559.97h20.52v5.47h-30.09c7.57-10.07,24.74-21.06,19.91-35.65-3.03-9.17-15.41-5.05-14.45,4.19l-3.45-5.49c6.95-10.55,25.07-9.11,25.47,4.8.34,12.02-11.84,18.06-17.9,26.68Z"/>
  <path d="M512.73,633.83v5.47s-17.77.02-17.77.02l-1.37,12.29c23.94-8.41,28.63,24.77,4.73,26.05-5.18.28-16-1.79-9.53-8.24,19.56,18.3,28.37-23.14,2.05-13.7v-21.89h21.89Z"/>
  <path d="M615.32,540.83c2.54,1.3,4.26,2.36,6.11,4.13,7.08,6.76,1.11,18.34-7.08,20.19-5.72,1.29-19.48,2.37-16.8-6.55,3.17-.6,3.89,3.05,6.42,3.82,16.57,5.01,18.28-21.82.41-18.88-1.04-5.27,7.2-1.06,9.69-5.01,6.94-10.98-6.86-20.71-13.1-8.67-6.98-6.38,5.63-8.74,10.94-8.26,11.98,1.09,14.57,15.35,3.42,19.23Z"/>
  <path d="M374.57,665.29c-.5-2.11-1.11-.56,1.65-4.5s14.02-20,18.09-25.68,5.07-4.09,5.03.65-.17,25.42-.17,25.42h5.69l1.16,4.1-6.83.02-.1,10.52-5.37,1.78v-12.31h-19.16ZM393.72,661.19v-19.15l-12.79,19.15h12.79Z"/>
  <path d="M619.41,633.84c.5,4.56.96,2.12-2.55,2.17-10.6,1.45-12.44,8.79-13.85,18.34,25.78-17.42,30.59,29.13,3.69,22.96-18.74-4.29-10.91-50.88,12.7-43.47ZM606.06,673.16c9.15,9.22,17.57-13.11,8.34-18.6-11.51-3.96-13.65,13.25-8.34,18.6Z"/>
  <path d="M617.59,785.2c-3.94,3.83-12.65,6.43-17.35,2.51l.04-3.42c11.08,7.77,15.88-5.11,17.79-14.34-4.34-.6-6.14,2.71-11.53,2-15.17-1.99-12.55-30.1,6.62-27.28,16.17,2.38,13.77,31.44,4.43,40.52ZM606.06,749.06c-4.86,4.86-4.06,19.42,5.27,19.57,13.22-3.89,4.38-29.24-5.27-19.57Z"/>
  <text class="cls-5" transform="translate(481.73 789.98)"><tspan x="0" y="0">8</tspan></text>
  <text class="cls-5" transform="translate(480.74 901.35)"><tspan x="0" y="0">0</tspan></text>
  <text class="cls-2" transform="translate(584.3 901.35)"><tspan x="0" y="0">#</tspan></text>
  <text class="cls-1" transform="translate(364.82 939.87)"><tspan x="0" y="0">*</tspan></text>
</svg>