<svg xmlns="http://www.w3.org/2000/svg" viewBox="0 0 1000 1000"><defs><style>.cls-1,.cls-3{fill:#e4d8be}.cls-3{stroke-miterlimit:10;stroke:#e4d8be;stroke-width:2.7px}.cls-10{fill:#ac9c7f}.cls-11{fill:#5e5e5b}</style></defs><g id="Buttons"><path d="M950.43 642.02c-309.56 24.25-610.2 25.88-900.46 1.24-28.52-2.36-41.16-19.71-40.36-42.21l8.37-235.25c0-14.79 11.99-26.78 26.78-26.78h909.76c14.79 0 26.78 11.99 26.78 26.78l9.11 235.5c0 21.01-17.98 38.5-39.98 40.73Z" style="fill:#8c857c"/><path d="M407.67 339.08h184.67v12.42a3.82 3.82 0 0 1-3.82 3.82H411.49a3.82 3.82 0 0 1-3.82-3.82z" style="fill:#2d2d2d"/><path d="M982.02 384.27H788.15v-6.7h193.61zm.52 13.38H788.15v-6.69h194.13zm.52 13.39H788.15v-6.69h194.66zm.52 13.39H788.15v-6.69h195.17zm-773.8-40.16H17.33l.25-6.7h192.2zm0 13.38H16.84l.24-6.69h192.7zm0 13.39H16.39l.23-6.69h193.16zm0 13.39H15.91l.23-6.69h193.64z" class="cls-11"/><path d="m201.97 636.44 7.81-283.04 10.41-8.55-7.07 302.01s-11.37-2.59-11.16-10.41Zm595.29 0-7.81-283.04-10.41-8.55 7.07 302.01s11.37-2.59 11.16-10.41Z" style="fill:#afa498"/><path d="M779.03 344.84h178.35c12.65 0 18.22 11.9 18.6 15.99-8.28-6.82-11.32-5.66-18.97-5.95-13.39.37-167.56-1.49-167.56-1.49l-10.41-8.55Zm-558.83 0H41.85c-12.65 0-18.22 11.9-18.6 15.99 6.65-4.77 7.67-5.52 18.97-5.95 13.39.37 167.56-1.49 167.56-1.49l10.41-8.55Zm557.18 271.61c-187.98 10.68-373.93 10.81-557.78 0-1.52-.07-1.66-2.1-1.66-3.1l4.45-232.27c0-1 .81-1.81 1.81-1.81h547.21c1 0 1.81.81 1.81 1.81l6.07 232.21c0 1-.11 3.04-1.92 3.16Z" style="fill:#706b65"/><path d="M241.33 426.27h519.6m-220.12 99.54h31.61m-70.11-35.24h192.91m24.64 2.17h41.07m-52.44 101.4v-135.4m-218.46 135.4v-135.4m134.4 67.07h31.62m-132.54 8.4v45.62c0 1.98.25 2.85 1.86 2.85h148.28c1.36 0 2.6-.62 2.6-2.36v-48.1" style="stroke-miterlimit:10;fill:none;stroke:#cebb9d;stroke-linecap:round;stroke-width:1.63px"/><circle cx="935.31" cy="519" r="28.17" class="cls-11"/><circle cx="844.93" cy="519" r="28.17" class="cls-11"/><path d="M168.39 515.69s.22-12.52.35-16.3c.05-3.97-1.87-5.47-5.9-5.64-1.98-.03-19.43-.46-21.77-.56s-3.74-.13-4.7.81-14.39 13.79-15.95 15.28c-2.53 2.63-2.89 3.2-2.9 4.93v-.04c-.08 1.73.25 2.31 2.64 5.07 1.48 1.57 14.22 15.1 15.13 16.09.91 1 2.31 1.03 4.65 1.06s19.79.5 21.77.58c4.03.04 6.03-1.36 6.19-5.32.06-3.78.5-16.3.5-16.3m-57.21-58.51s-12.52-.22-16.3-.35c-3.97-.05-5.47 1.87-5.64 5.9-.03 1.98-.46 19.43-.56 21.77s-.13 3.74.81 4.7 13.79 14.39 15.28 15.95c2.63 2.53 3.2 2.89 4.93 2.9h-.04c1.73.08 2.31-.25 5.07-2.64 1.57-1.48 15.1-14.22 16.09-15.13 1-.91 1.03-2.31 1.06-4.65.02-2.34.5-19.79.58-21.77.04-4.03-1.36-6.03-5.32-6.19-3.78-.06-16.3-.5-16.3-.5m-59.93 55.46s-.22 12.52-.35 16.3c-.05 3.97 1.87 5.47 5.9 5.64 1.98.03 19.43.46 21.77.56s3.74.13 4.7-.81 14.39-13.79 15.95-15.28c2.53-2.63 2.89-3.2 2.9-4.93v.04c.08-1.73-.25-2.31-2.64-5.07-1.48-1.57-14.22-15.1-15.13-16.09s-2.31-1.03-4.65-1.06c-2.34-.02-19.79-.5-21.77-.58-4.03-.04-6.03 1.36-6.19 5.32-.06 3.78-.5 16.3-.5 16.3m57 57.32s12.52.22 16.3.35c3.97.05 5.47-1.87 5.64-5.9.03-1.98.46-19.43.56-21.77s.13-3.74-.81-4.7-13.79-14.39-15.28-15.95c-2.63-2.53-3.2-2.89-4.93-2.9h.04c-1.73-.08-2.31.25-5.07 2.64-1.57 1.48-15.1 14.22-16.09 15.13s-1.03 2.31-1.06 4.65c-.02 2.34-.5 19.79-.58 21.77-.04 4.03 1.36 6.03 5.32 6.19 3.78.06 16.3.5 16.3.5" class="cls-11"/><rect width="39.18" height="19.59" x="304.69" y="459.89" class="cls-10" rx="2.3" ry="2.3"/><rect width="39.18" height="19.59" x="371.14" y="459.89" class="cls-10" rx="2.3" ry="2.3"/><rect width="39.18" height="19.59" x="437.35" y="459.89" class="cls-10" rx="2.3" ry="2.3"/><rect width="39.18" height="19.59" x="502.81" y="459.89" class="cls-10" rx="2.3" ry="2.3"/><rect width="39.18" height="19.59" x="502.81" y="516.02" class="cls-10" rx="2.3" ry="2.3"/><rect width="39.18" height="19.59" x="656.05" y="516.02" class="cls-10" rx="2.3" ry="2.3"/><rect width="39.18" height="19.59" x="721.75" y="516.02" class="cls-10" rx="2.3" ry="2.3"/><rect width="39.18" height="19.59" x="721.75" y="572.15" class="cls-10" rx="2.3" ry="2.3"/><rect width="39.18" height="19.59" x="635.22" y="459.89" rx="2.3" ry="2.3" style="fill:#f05954"/><rect width="39.18" height="19.59" x="569.51" y="459.89" class="cls-10" rx="2.3" ry="2.3"/><rect width="39.18" height="19.59" x="238.73" y="459.89" class="cls-10" rx="2.3" ry="2.3"/><rect width="39.18" height="19.59" x="238.73" y="516.02" class="cls-10" rx="2.3" ry="2.3"/><rect width="39.18" height="19.59" x="238.73" y="572.15" class="cls-10" rx="2.3" ry="2.3"/><rect width="39.18" height="19.59" x="303.7" y="572.15" class="cls-10" rx="2.3" ry="2.3"/><rect width="39.18" height="19.59" x="303.7" y="516.02" class="cls-10" rx="2.3" ry="2.3"/><rect width="39.18" height="19.59" x="371.14" y="572.15" class="cls-10" rx="2.3" ry="2.3"/><rect width="39.18" height="19.59" x="371.14" y="516.02" class="cls-10" rx="2.3" ry="2.3"/><rect width="39.18" height="19.59" x="436.11" y="572.15" class="cls-10" rx="2.3" ry="2.3"/><rect width="39.18" height="19.59" x="436.11" y="516.02" class="cls-10" rx="2.3" ry="2.3"/><rect width="60.5" height="19.59" x="569.01" y="572.15" class="cls-10" rx="2.3" ry="2.3"/><rect width="60.5" height="19.59" x="569.01" y="516.02" class="cls-10" rx="2.3" ry="2.3"/><path d="M717.92 459.08h42.12v24.48h-42.12z" style="fill:#564f44"/><path d="m726.17 459.08-2.61 3.08v18.35h17.78l3.15-3.11h-18.32z" style="fill:#897d68"/><path d="M726.17 459.08h18.32v18.32h-18.32z" class="cls-10"/><path d="M729.52 459.4v17.74m3.94-17.74v17.74m3.94-17.74v17.74m3.94-17.74v17.74" style="stroke:#897d68;stroke-linecap:square;stroke-width:.61px;stroke-miterlimit:10;fill:none"/></g><g id="TEXT"><path d="M274.27 416.22q-.315 0-.51-.21c-.195-.21-.2-.31-.2-.49v-18.36c0-.21.07-.38.2-.51s.3-.2.51-.2h7.68q3.675 0 5.76 1.68c1.39 1.12 2.09 2.71 2.09 4.76q0 2.01-.96 3.39c-.64.92-1.49 1.62-2.54 2.09l3.87 6.95c.06.11.08.22.08.31 0 .15-.06.29-.18.41a.57.57 0 0 1-.41.18h-3.76c-.36 0-.62-.09-.79-.27s-.29-.34-.37-.49l-3.22-6.21h-2.88v6.27c0 .19-.07.35-.21.49s-.32.21-.52.21zm4.37-10.99h3.25c.89 0 1.55-.22 1.99-.65s.66-1.02.66-1.75-.21-1.33-.64-1.78c-.42-.45-1.1-.68-2.02-.68h-3.25v4.86Zm19.8 11.27c-1.58 0-2.91-.25-4-.76q-1.62-.765-2.49-2.19c-.57-.95-.9-2.08-.97-3.4q-.03-.57-.03-1.29c0-.72 0-.9.03-1.26q.105-2.01 1.02-3.42c.6-.94 1.45-1.67 2.53-2.17 1.08-.51 2.39-.76 3.91-.76s2.86.25 3.94.76 1.93 1.23 2.53 2.17q.9 1.41 1.02 3.42.03.54.03 1.26c0 .72 0 .91-.03 1.29-.08 1.32-.4 2.45-.97 3.4q-.855 1.425-2.49 2.19c-1.08.51-2.42.76-4.03.76m0-3.45c.85 0 1.46-.25 1.85-.76s.61-1.27.66-2.29c.02-.28.03-.66.03-1.13s0-.85-.03-1.13c-.06-1-.28-1.76-.66-2.27-.39-.52-1-.78-1.85-.78s-1.42.26-1.82.78-.63 1.28-.66 2.27c-.02.28-.03.66-.03 1.13s0 .85.03 1.13c.04 1.02.26 1.78.66 2.29s1.01.76 1.82.76m9.95 3.17q-.315 0-.51-.21a.7.7 0 0 1-.2-.49v-13.28c0-.21.07-.38.2-.51s.3-.2.51-.2h3.08c.21 0 .38.07.51.2s.2.3.2.51v.96c.38-.51.9-.96 1.58-1.34.68-.39 1.48-.59 2.4-.61 2.18-.06 3.68.75 4.49 2.43.43-.72 1.05-1.3 1.85-1.75s1.68-.68 2.64-.68 1.86.22 2.64.66 1.41 1.12 1.88 2.03.71 2.1.71 3.54v8.02c0 .19-.07.35-.2.49q-.195.21-.51.21h-3.28c-.21 0-.38-.07-.52-.21s-.21-.31-.21-.49v-7.82c0-.66-.09-1.18-.28-1.57s-.44-.66-.76-.83-.69-.25-1.1-.25c-.34 0-.67.08-1 .25s-.59.45-.79.83-.3.91-.3 1.57v7.82c0 .19-.07.35-.2.49q-.195.21-.51.21h-3.28q-.315 0-.51-.21a.7.7 0 0 1-.2-.49v-7.82c0-.66-.1-1.18-.31-1.57s-.47-.66-.79-.83-.67-.25-1.04-.25-.7.08-1.03.25-.59.45-.79.83-.3.9-.3 1.54v7.85c0 .19-.07.35-.21.49s-.31.21-.49.21h-3.36Zm24.8 0q-.315 0-.51-.21a.7.7 0 0 1-.2-.49v-13.28c0-.21.07-.38.2-.51s.3-.2.51-.2h3.08c.21 0 .38.07.51.2s.2.3.2.51v.96c.38-.51.9-.96 1.58-1.34.68-.39 1.48-.59 2.4-.61 2.18-.06 3.68.75 4.49 2.43.43-.72 1.05-1.3 1.85-1.75s1.68-.68 2.64-.68 1.86.22 2.64.66 1.41 1.12 1.88 2.03.71 2.1.71 3.54v8.02c0 .19-.07.35-.2.49q-.195.21-.51.21h-3.28c-.21 0-.38-.07-.52-.21s-.21-.31-.21-.49v-7.82c0-.66-.09-1.18-.28-1.57s-.44-.66-.76-.83-.69-.25-1.1-.25c-.34 0-.67.08-1 .25s-.59.45-.79.83-.3.91-.3 1.57v7.82c0 .19-.07.35-.2.49q-.195.21-.51.21h-3.28q-.315 0-.51-.21a.7.7 0 0 1-.2-.49v-7.82c0-.66-.1-1.18-.31-1.57s-.47-.66-.79-.83-.67-.25-1.04-.25-.7.08-1.03.25-.59.45-.79.83-.3.9-.3 1.54v7.85c0 .19-.07.35-.21.49s-.31.21-.49.21h-3.36Zm31.04.28c-1.58 0-2.91-.25-4-.76q-1.62-.765-2.49-2.19c-.57-.95-.9-2.08-.97-3.4q-.03-.57-.03-1.29c0-.72 0-.9.03-1.26q.105-2.01 1.02-3.42c.6-.94 1.45-1.67 2.53-2.17 1.08-.51 2.39-.76 3.91-.76s2.86.25 3.94.76 1.93 1.23 2.53 2.17q.9 1.41 1.02 3.42.03.54.03 1.26c0 .72 0 .91-.03 1.29-.08 1.32-.4 2.45-.97 3.4q-.855 1.425-2.49 2.19c-1.08.51-2.42.76-4.03.76m0-3.45c.85 0 1.46-.25 1.85-.76s.61-1.27.66-2.29c.02-.28.03-.66.03-1.13s0-.85-.03-1.13c-.06-1-.28-1.76-.66-2.27-.39-.52-1-.78-1.85-.78s-1.42.26-1.82.78-.63 1.28-.66 2.27c-.02.28-.03.66-.03 1.13s0 .85.03 1.13c.04 1.02.26 1.78.66 2.29s1.01.76 1.82.76m14.71 3.45c-.9 0-1.72-.15-2.44-.44-.73-.29-1.35-.72-1.86-1.3-.52-.57-.92-1.27-1.2-2.09s-.44-1.76-.48-2.81c-.02-.38-.03-.71-.03-1s0-.63.03-1q.06-1.5.48-2.73c.28-.82.68-1.52 1.19-2.09s1.13-1.02 1.86-1.33 1.55-.47 2.46-.47 1.75.16 2.43.47 1.25.71 1.72 1.2v-6.04c0-.21.07-.38.2-.51s.3-.2.51-.2h3.45c.19 0 .35.07.49.2q.21.195.21.51v18.64c0 .19-.07.35-.21.49s-.31.21-.49.21h-3.19q-.315 0-.51-.21a.7.7 0 0 1-.2-.49v-.9c-.45.55-1.04 1-1.75 1.36-.72.36-1.6.54-2.66.54Zm1.56-3.79c.62 0 1.12-.14 1.48-.41.37-.27.64-.63.82-1.06q.27-.645.3-1.41c.02-.38.03-.73.03-1.07s0-.69-.03-1.04a3.4 3.4 0 0 0-.31-1.31c-.19-.4-.47-.73-.85-.99-.38-.25-.86-.38-1.44-.38-.62 0-1.12.13-1.48.4-.37.26-.63.62-.79 1.07a5.7 5.7 0 0 0-.3 1.5 8.5 8.5 0 0 0 0 1.75c.04.55.14 1.04.3 1.5.16.45.42.81.79 1.07s.86.4 1.48.4Zm16.66 3.79c-1.58 0-2.91-.25-4-.76q-1.62-.765-2.49-2.19c-.57-.95-.9-2.08-.97-3.4q-.03-.57-.03-1.29c0-.72 0-.9.03-1.26q.105-2.01 1.02-3.42c.6-.94 1.45-1.67 2.53-2.17 1.08-.51 2.39-.76 3.91-.76s2.86.25 3.94.76 1.93 1.23 2.53 2.17q.9 1.41 1.02 3.42.03.54.03 1.26c0 .72 0 .91-.03 1.29-.08 1.32-.4 2.45-.97 3.4q-.855 1.425-2.49 2.19c-1.08.51-2.42.76-4.03.76m0-3.45c.85 0 1.46-.25 1.85-.76s.61-1.27.66-2.29c.02-.28.03-.66.03-1.13s0-.85-.03-1.13c-.06-1-.28-1.76-.66-2.27-.39-.52-1-.78-1.85-.78s-1.42.26-1.82.78-.63 1.28-.66 2.27c-.02.28-.03.66-.03 1.13s0 .85.03 1.13c.04 1.02.26 1.78.66 2.29s1.01.76 1.82.76m9.94 3.17q-.315 0-.51-.21a.7.7 0 0 1-.2-.49v-13.28c0-.19.07-.35.2-.49q.195-.21.51-.21h3.25c.21 0 .38.07.52.21s.21.31.21.49v1.13c.49-.58 1.09-1.04 1.79-1.36s1.5-.48 2.39-.48h1.24c.21 0 .38.07.51.2s.2.3.2.51v2.91c0 .19-.07.35-.2.49q-.195.21-.51.21h-2.74c-.77 0-1.37.21-1.79.64-.42.42-.64 1.02-.64 1.79v7.23c0 .19-.07.35-.21.49s-.32.21-.52.21h-3.5Zm17.71.28c-2.22 0-3.99-.6-5.31-1.81-1.32-1.2-2.01-2.99-2.06-5.37v-.99c.06-1.49.39-2.76 1-3.83a6.13 6.13 0 0 1 2.54-2.43c1.08-.56 2.35-.83 3.8-.83q2.49 0 4.11.99c1.62.99 1.9 1.55 2.44 2.68.55 1.13.82 2.42.82 3.87v.68c0 .21-.07.38-.2.51s-.3.2-.51.2h-9.04v.2c.02.55.12 1.04.3 1.5.18.45.44.81.79 1.07s.78.4 1.29.4c.38 0 .69-.06.95-.18.25-.12.47-.26.64-.42s.3-.3.4-.41c.17-.21.31-.33.41-.38s.27-.07.49-.07h3.5c.19 0 .34.06.47.17.12.11.17.26.16.45-.02.32-.18.71-.48 1.16s-.74.9-1.31 1.34-1.29.8-2.16 1.09c-.87.28-1.87.42-3.02.42Zm-2.4-9.13h4.77v-.06c0-.62-.09-1.15-.27-1.6-.18-.44-.45-.79-.82-1.03s-.8-.37-1.31-.37-.91.12-1.27.37-.63.59-.82 1.03-.28.97-.28 1.6z" class="cls-1"/><path d="M255.89 404.81h5.26l3-1.92h-8.26zm-.17 4.91h5.26l3 1.92h-8.26z" class="cls-3"/><path d="M246.94 405.65c.48 0 .93-.07 1.34-.22s.76-.36 1.05-.64.52-.63.69-1.04.25-.89.25-1.42-.08-.99-.23-1.39-.37-.73-.65-1-.62-.47-1.03-.61c-.4-.14-.86-.2-1.38-.2-.37 0-.74.03-1.13.08-.38.05-.74.13-1.08.23v-1.41a9.6 9.6 0 0 1 2.32-.29c.82 0 1.55.11 2.17.33.63.22 1.15.52 1.57.92s.73.87.94 1.42.32 1.16.32 1.83-.11 1.32-.34 1.9c-.23.59-.55 1.09-.97 1.52s-.96.77-1.59 1.01c-.64.25-1.36.37-2.16.38-.41 0-.8-.03-1.17-.08s-.7-.12-1-.22v-1.39c.39.11.75.19 1.08.23s.66.07.98.07Z" style="fill:#e4d8be;stroke-miterlimit:10;stroke-width:1.8px;stroke:#e4d8be"/><path d="m247.07 415.87-1.49-2.13-.07-1.76 2.34 3.34z" class="cls-3"/><path d="m448.75 411.26 1.92.21c-.39 2.22-1.77 3.33-4.13 3.33-1.53 0-2.67-.47-3.43-1.4s-1.13-2.18-1.13-3.74c0-1.68.4-2.97 1.19-3.87s1.94-1.35 3.44-1.35c2.31 0 3.67 1.14 4.07 3.41l-1.94.23c-.21-1.51-.92-2.27-2.12-2.27-1.61 0-2.42 1.32-2.42 3.95 0 2.45.81 3.67 2.42 3.67.65 0 1.13-.19 1.44-.56.32-.37.54-.91.68-1.61Zm3.46-6.64h2.84c1.38 0 2.48.19 3.3.58s1.45.96 1.87 1.72.63 1.61.63 2.53q0 1.47-.57 2.61c-.57 1.14-.96 1.38-1.74 1.85s-1.89.7-3.34.7h-3v-9.99Zm2.09 1.33v7.34h.87c1.22 0 2.1-.33 2.65-1s.82-1.56.82-2.67c0-2.45-1.16-3.67-3.47-3.67zm6.75-1.33h7.71v1.41h-2.82v8.59h-2.09v-8.59h-2.8zm8.09 0h2.2l2.4 7.97 2.41-7.97h1.84l-3.33 10.01-2.26-.02zm13.14 0h3.8c1.37 0 2.39.25 3.04.74s.98 1.2.98 2.12c0 1.23-.64 2.1-1.93 2.61l2.39 4.52h-2.27l-1.96-4.17h-1.97v4.17h-2.09v-9.99Zm2.09 1.28v3.26h1.6c.71 0 1.24-.16 1.58-.47s.5-.72.5-1.22c0-1.04-.69-1.57-2.06-1.57zm7.71-1.28h7.23v1.32h-5.14v2.85h4.03v1.33h-4.03v3.13h5.22v1.35h-7.31v-9.99Zm8.48 0h3.1l2.52 7.2 2.58-7.2h2.97v9.99h-1.96v-8.53l-3 8.53h-1.52l-2.94-8.53v8.53h-1.75zm22.04 5c0 1.71-.38 3-1.16 3.87-.77.87-1.89 1.31-3.36 1.31s-2.6-.44-3.38-1.31-1.17-2.16-1.17-3.88.39-2.98 1.17-3.86 1.9-1.31 3.38-1.31 2.58.44 3.36 1.31 1.16 2.16 1.16 3.87m-2.19 0c0-1.19-.17-2.12-.52-2.8q-.525-1.02-1.83-1.02c-1.305 0-1.48.34-1.82 1.03-.34.68-.52 1.62-.52 2.8s.17 2.09.51 2.78.96 1.04 1.86 1.04c.84 0 1.44-.34 1.79-1.01s.53-1.61.53-2.82m2.56-5h7.71v1.41h-2.82v8.59h-2.09v-8.59h-2.8zm8.43 0h7.23v1.32h-5.14v2.85h4.03v1.33h-4.03v3.13h5.22v1.35h-7.31v-9.99Zm18.2 6.64 1.92.21c-.39 2.22-1.77 3.33-4.13 3.33-1.53 0-2.67-.47-3.43-1.4s-1.13-2.18-1.13-3.74c0-1.68.4-2.97 1.19-3.87s1.94-1.35 3.43-1.35c2.31 0 3.67 1.14 4.07 3.41l-1.94.23c-.21-1.51-.92-2.27-2.12-2.27-1.61 0-2.42 1.32-2.42 3.95 0 2.45.81 3.67 2.42 3.67.65 0 1.13-.19 1.44-.56.32-.37.54-.91.68-1.61Zm12.11-1.64c0 1.71-.38 3-1.16 3.87-.77.87-1.89 1.31-3.36 1.31s-2.6-.44-3.38-1.31-1.17-2.16-1.17-3.88.39-2.98 1.17-3.86 1.9-1.31 3.38-1.31 2.58.44 3.36 1.31 1.16 2.16 1.16 3.87m-2.19 0c0-1.19-.17-2.12-.52-2.8q-.525-1.02-1.83-1.02c-1.305 0-1.48.34-1.82 1.03-.34.68-.52 1.62-.52 2.8s.17 2.09.51 2.78.96 1.04 1.86 1.04c.84 0 1.44-.34 1.79-1.01s.53-1.61.53-2.82m3.93-5h2.46l4.15 7.2v-7.2h1.75v9.99h-1.95l-4.66-8v8h-1.75zm9 0h7.71v1.41h-2.82v8.59h-2.09v-8.59h-2.8zm8.43 0h3.8c1.37 0 2.39.25 3.04.74s.98 1.2.98 2.12c0 1.23-.64 2.1-1.93 2.61l2.39 4.52h-2.27l-1.96-4.17h-1.97v4.17h-2.09v-9.99Zm2.09 1.28v3.26h1.6c.71 0 1.24-.16 1.58-.47s.5-.72.5-1.22c0-1.04-.69-1.57-2.06-1.57zm16.19 3.72c0 1.71-.38 3-1.16 3.87-.77.87-1.89 1.31-3.36 1.31s-2.6-.44-3.38-1.31-1.17-2.16-1.17-3.88.39-2.98 1.17-3.86 1.9-1.31 3.38-1.31 2.58.44 3.36 1.31 1.16 2.16 1.16 3.87m-2.19 0c0-1.19-.17-2.12-.52-2.8q-.525-1.02-1.83-1.02c-1.305 0-1.48.34-1.82 1.03-.34.68-.52 1.62-.52 2.8s.17 2.09.51 2.78.96 1.04 1.86 1.04c.84 0 1.44-.34 1.79-1.01s.53-1.61.53-2.82m4-5h2.09v8.59h4.46v1.4h-6.55zm7.55 0h2.09v8.59h4.46v1.4h-6.55zm7.55 0h7.23v1.32h-5.14v2.85h4.03v1.33h-4.03v3.13h5.22v1.35h-7.31v-9.99Zm8.51 0h3.8c1.37 0 2.39.25 3.04.74s.98 1.2.98 2.12c0 1.23-.64 2.1-1.93 2.61l2.39 4.52h-2.27l-1.96-4.17h-1.97v4.17h-2.09v-9.99Zm2.09 1.28v3.26h1.6c.71 0 1.24-.16 1.58-.47s.5-.72.5-1.22c0-1.04-.69-1.57-2.06-1.57z" class="cls-1"/></g></svg>