<?xml version="1.0" encoding="UTF-8"?>
<svg xmlns="http://www.w3.org/2000/svg" viewBox="0 0 1000 1000">
  <defs>
    <style>
      .cls-1, .cls-2, .cls-3 {
        fill: #e4d8be;
      }

      .cls-4 {
        fill: #706b65;
      }

      .cls-5 {
        stroke: #897d68;
        stroke-linecap: square;
        stroke-width: .61px;
      }

      .cls-5, .cls-2, .cls-3, .cls-6 {
        stroke-miterlimit: 10;
      }

      .cls-5, .cls-6 {
        fill: none;
      }

      .cls-7 {
        fill: #2d2d2d;
      }

      .cls-8 {
        fill: #8c857c;
      }

      .cls-2 {
        stroke-width: 1.8px;
      }

      .cls-2, .cls-3 {
        stroke: #e4d8be;
      }

      .cls-3 {
        stroke-width: 2.7px;
      }

      .cls-6 {
        stroke: #cebb9d;
        stroke-linecap: round;
        stroke-width: 1.63px;
      }

      .cls-9 {
        fill: #897d68;
      }

      .cls-10 {
        fill: #ac9c7f;
      }

      .cls-11 {
        fill: #5e5e5b;
      }

      .cls-12 {
        fill: #564f44;
      }

      .cls-13 {
        fill: #f05954;
      }

      .cls-14 {
        fill: #afa498;
      }
    </style>
  </defs>
  <g id="Buttons">
    <path class="cls-8" d="M950.43,642.02c-309.56,24.25-610.2,25.88-900.46,1.24-28.52-2.36-41.16-19.71-40.36-42.21l8.37-235.25c0-14.79,11.99-26.78,26.78-26.78h909.76c14.79,0,26.78,11.99,26.78,26.78l9.11,235.5c0,21.01-17.98,38.5-39.98,40.73Z"/>
    <path class="cls-7" d="M407.67,339.08h184.67v12.42c0,2.11-1.71,3.82-3.82,3.82h-177.03c-2.11,0-3.82-1.71-3.82-3.82v-12.42h0Z"/>
    <polygon class="cls-11" points="982.02 384.27 788.15 384.27 788.15 377.57 981.76 377.57 982.02 384.27"/>
    <polygon class="cls-11" points="982.54 397.65 788.15 397.65 788.15 390.96 982.28 390.96 982.54 397.65"/>
    <polygon class="cls-11" points="983.06 411.04 788.15 411.04 788.15 404.35 982.81 404.35 983.06 411.04"/>
    <polygon class="cls-11" points="983.58 424.43 788.15 424.43 788.15 417.74 983.32 417.74 983.58 424.43"/>
    <polygon class="cls-11" points="209.78 384.27 17.33 384.27 17.58 377.57 209.78 377.57 209.78 384.27"/>
    <polygon class="cls-11" points="209.78 397.65 16.84 397.65 17.08 390.96 209.78 390.96 209.78 397.65"/>
    <polygon class="cls-11" points="209.78 411.04 16.39 411.04 16.62 404.35 209.78 404.35 209.78 411.04"/>
    <polygon class="cls-11" points="209.78 424.43 15.91 424.43 16.14 417.74 209.78 417.74 209.78 424.43"/>
    <path class="cls-14" d="M201.97,636.44l7.81-283.04,10.41-8.55-7.07,302.01s-11.37-2.59-11.16-10.41Z"/>
    <path class="cls-14" d="M797.26,636.44l-7.81-283.04-10.41-8.55,7.07,302.01s11.37-2.59,11.16-10.41Z"/>
    <path class="cls-4" d="M779.03,344.84s163.84,0,178.35,0c12.65,0,18.22,11.9,18.6,15.99-8.28-6.82-11.32-5.66-18.97-5.95-13.39.37-167.56-1.49-167.56-1.49l-10.41-8.55Z"/>
    <path class="cls-4" d="M220.2,344.84s-163.84,0-178.35,0c-12.65,0-18.22,11.9-18.6,15.99,6.65-4.77,7.67-5.52,18.97-5.95,13.39.37,167.56-1.49,167.56-1.49l10.41-8.55Z"/>
    <path class="cls-4" d="M777.38,616.45c-187.98,10.68-373.93,10.81-557.78,0-1.52-.07-1.66-2.1-1.66-3.1l4.45-232.27c0-1,.81-1.81,1.81-1.81h547.21c1,0,1.81.81,1.81,1.81l6.07,232.21c0,1-.11,3.04-1.92,3.16Z"/>
    <line class="cls-6" x1="241.33" y1="426.27" x2="760.93" y2="426.27"/>
    <line class="cls-6" x1="540.81" y1="525.81" x2="572.42" y2="525.81"/>
    <line class="cls-6" x1="502.31" y1="490.57" x2="695.22" y2="490.57"/>
    <line class="cls-6" x1="719.86" y1="492.74" x2="760.93" y2="492.74"/>
    <line class="cls-6" x1="708.49" y1="594.14" x2="708.49" y2="458.74"/>
    <line class="cls-6" x1="490.03" y1="594.14" x2="490.03" y2="458.74"/>
    <line class="cls-6" x1="624.43" y1="525.81" x2="656.05" y2="525.81"/>
    <path class="cls-6" d="M523.51,534.21v45.62c0,1.98.25,2.85,1.86,2.85h148.28c1.36,0,2.6-.62,2.6-2.36v-48.1"/>
    <circle class="cls-11" cx="935.31" cy="519" r="28.17"/>
    <circle class="cls-11" cx="844.93" cy="519" r="28.17"/>
    <g>
      <path class="cls-11" d="M168.39,515.69s.22-12.52.35-16.3c.05-3.97-1.87-5.47-5.9-5.64-1.98-.03-19.43-.46-21.77-.56s-3.74-.13-4.7.81-14.39,13.79-15.95,15.28c-2.53,2.63-2.89,3.2-2.9,4.93v-.04c-.08,1.73.25,2.31,2.64,5.07,1.48,1.57,14.22,15.1,15.13,16.09.91,1,2.31,1.03,4.65,1.06s19.79.5,21.77.58c4.03.04,6.03-1.36,6.19-5.32.06-3.78.5-16.3.5-16.3"/>
      <path class="cls-11" d="M111.19,456.84s-12.52-.22-16.3-.35c-3.97-.05-5.47,1.87-5.64,5.9-.03,1.98-.46,19.43-.56,21.77s-.13,3.74.81,4.7,13.79,14.39,15.28,15.95c2.63,2.53,3.2,2.89,4.93,2.9h-.04c1.73.08,2.31-.25,5.07-2.64,1.57-1.48,15.1-14.22,16.09-15.13,1-.91,1.03-2.31,1.06-4.65.02-2.34.5-19.79.58-21.77.04-4.03-1.36-6.03-5.32-6.19-3.78-.06-16.3-.5-16.3-.5"/>
      <path class="cls-11" d="M50.92,512.29s-.22,12.52-.35,16.3c-.05,3.97,1.87,5.47,5.9,5.64,1.98.03,19.43.46,21.77.56,2.34.1,3.74.13,4.7-.81s14.39-13.79,15.95-15.28c2.53-2.63,2.89-3.2,2.9-4.93v.04c.08-1.73-.25-2.31-2.64-5.07-1.48-1.57-14.22-15.1-15.13-16.09s-2.31-1.03-4.65-1.06c-2.34-.02-19.79-.5-21.77-.58-4.03-.04-6.03,1.36-6.19,5.32-.06,3.78-.5,16.3-.5,16.3"/>
      <path class="cls-11" d="M107.91,569.95s12.52.22,16.3.35c3.97.05,5.47-1.87,5.64-5.9.03-1.98.46-19.43.56-21.77.1-2.34.13-3.74-.81-4.7s-13.79-14.39-15.28-15.95c-2.63-2.53-3.2-2.89-4.93-2.9h.04c-1.73-.08-2.31.25-5.07,2.64-1.57,1.48-15.1,14.22-16.09,15.13s-1.03,2.31-1.06,4.65c-.02,2.34-.5,19.79-.58,21.77-.04,4.03,1.36,6.03,5.32,6.19,3.78.06,16.3.5,16.3.5"/>
    </g>
    <rect class="cls-10" x="304.69" y="459.89" width="39.18" height="19.59" rx="2.3" ry="2.3"/>
    <rect class="cls-10" x="371.14" y="459.89" width="39.18" height="19.59" rx="2.3" ry="2.3"/>
    <rect class="cls-10" x="437.35" y="459.89" width="39.18" height="19.59" rx="2.3" ry="2.3"/>
    <rect class="cls-10" x="502.81" y="459.89" width="39.18" height="19.59" rx="2.3" ry="2.3"/>
    <rect class="cls-10" x="502.81" y="516.02" width="39.18" height="19.59" rx="2.3" ry="2.3"/>
    <rect class="cls-10" x="656.05" y="516.02" width="39.18" height="19.59" rx="2.3" ry="2.3"/>
    <rect class="cls-10" x="721.75" y="516.02" width="39.18" height="19.59" rx="2.3" ry="2.3"/>
    <rect class="cls-10" x="721.75" y="572.15" width="39.18" height="19.59" rx="2.3" ry="2.3"/>
    <rect class="cls-13" x="635.22" y="459.89" width="39.18" height="19.59" rx="2.3" ry="2.3"/>
    <rect class="cls-10" x="569.51" y="459.89" width="39.18" height="19.59" rx="2.3" ry="2.3"/>
    <rect class="cls-10" x="238.73" y="459.89" width="39.18" height="19.59" rx="2.3" ry="2.3"/>
    <rect class="cls-10" x="238.73" y="516.02" width="39.18" height="19.59" rx="2.3" ry="2.3"/>
    <rect class="cls-10" x="238.73" y="572.15" width="39.18" height="19.59" rx="2.3" ry="2.3"/>
    <rect class="cls-10" x="303.7" y="572.15" width="39.18" height="19.59" rx="2.3" ry="2.3"/>
    <rect class="cls-10" x="303.7" y="516.02" width="39.18" height="19.59" rx="2.3" ry="2.3"/>
    <rect class="cls-10" x="371.14" y="572.15" width="39.18" height="19.59" rx="2.3" ry="2.3"/>
    <rect class="cls-10" x="371.14" y="516.02" width="39.18" height="19.59" rx="2.3" ry="2.3"/>
    <rect class="cls-10" x="436.11" y="572.15" width="39.18" height="19.59" rx="2.3" ry="2.3"/>
    <rect class="cls-10" x="436.11" y="516.02" width="39.18" height="19.59" rx="2.3" ry="2.3"/>
    <rect class="cls-10" x="569.01" y="572.15" width="60.5" height="19.59" rx="2.3" ry="2.3"/>
    <rect class="cls-10" x="569.01" y="516.02" width="60.5" height="19.59" rx="2.3" ry="2.3"/>
    <rect class="cls-12" x="717.92" y="459.08" width="42.12" height="24.48"/>
    <polygon class="cls-9" points="726.17 459.08 723.56 462.16 723.56 480.51 741.34 480.51 744.49 477.4 726.17 477.4 726.17 459.08"/>
    <rect class="cls-10" x="726.17" y="459.08" width="18.32" height="18.32"/>
    <g>
      <line class="cls-5" x1="729.52" y1="459.4" x2="729.52" y2="477.14"/>
      <line class="cls-5" x1="733.46" y1="459.4" x2="733.46" y2="477.14"/>
      <line class="cls-5" x1="737.4" y1="459.4" x2="737.4" y2="477.14"/>
      <line class="cls-5" x1="741.34" y1="459.4" x2="741.34" y2="477.14"/>
    </g>
  </g>
  <g id="TEXT">
    <g>
      <path class="cls-1" d="M274.27,416.22c-.21,0-.38-.07-.51-.21s-.2-.31-.2-.49v-18.36c0-.21.07-.38.2-.51s.3-.2.51-.2h7.68c2.45,0,4.37.56,5.76,1.68,1.39,1.12,2.09,2.71,2.09,4.76,0,1.34-.32,2.47-.96,3.39-.64.92-1.49,1.62-2.54,2.09l3.87,6.95c.06.11.08.22.08.31,0,.15-.06.29-.18.41-.12.12-.26.18-.41.18h-3.76c-.36,0-.62-.09-.79-.27-.17-.18-.29-.34-.37-.49l-3.22-6.21h-2.88v6.27c0,.19-.07.35-.21.49s-.32.21-.52.21h-3.64ZM278.64,405.23h3.25c.89,0,1.55-.22,1.99-.65.44-.43.66-1.02.66-1.75s-.21-1.33-.64-1.78c-.42-.45-1.1-.68-2.02-.68h-3.25v4.86Z"/>
      <path class="cls-1" d="M298.44,416.5c-1.58,0-2.91-.25-4-.76-1.08-.51-1.91-1.24-2.49-2.19-.57-.95-.9-2.08-.97-3.4-.02-.38-.03-.81-.03-1.29s0-.9.03-1.26c.07-1.34.41-2.48,1.02-3.42.6-.94,1.45-1.67,2.53-2.17,1.08-.51,2.39-.76,3.91-.76s2.86.25,3.94.76c1.08.51,1.93,1.23,2.53,2.17.6.94.94,2.08,1.02,3.42.02.36.03.78.03,1.26s0,.91-.03,1.29c-.08,1.32-.4,2.45-.97,3.4-.57.95-1.4,1.68-2.49,2.19-1.08.51-2.42.76-4.03.76ZM298.44,413.05c.85,0,1.46-.25,1.85-.76s.61-1.27.66-2.29c.02-.28.03-.66.03-1.13s0-.85-.03-1.13c-.06-1-.28-1.76-.66-2.27-.39-.52-1-.78-1.85-.78s-1.42.26-1.82.78c-.4.52-.63,1.28-.66,2.27-.02.28-.03.66-.03,1.13s0,.85.03,1.13c.04,1.02.26,1.78.66,2.29s1.01.76,1.82.76Z"/>
      <path class="cls-1" d="M308.39,416.22c-.21,0-.38-.07-.51-.21-.13-.14-.2-.31-.2-.49v-13.28c0-.21.07-.38.2-.51.13-.13.3-.2.51-.2h3.08c.21,0,.38.07.51.2.13.13.2.3.2.51v.96c.38-.51.9-.96,1.58-1.34.68-.39,1.48-.59,2.4-.61,2.18-.06,3.68.75,4.49,2.43.43-.72,1.05-1.3,1.85-1.75.8-.45,1.68-.68,2.64-.68s1.86.22,2.64.66c.78.44,1.41,1.12,1.88,2.03.47.91.71,2.1.71,3.54v8.02c0,.19-.07.35-.2.49-.13.14-.3.21-.51.21h-3.28c-.21,0-.38-.07-.52-.21s-.21-.31-.21-.49v-7.82c0-.66-.09-1.18-.28-1.57-.19-.39-.44-.66-.76-.83-.32-.17-.69-.25-1.1-.25-.34,0-.67.08-1,.25-.33.17-.59.45-.79.83s-.3.91-.3,1.57v7.82c0,.19-.07.35-.2.49-.13.14-.3.21-.51.21h-3.28c-.21,0-.38-.07-.51-.21-.13-.14-.2-.31-.2-.49v-7.82c0-.66-.1-1.18-.31-1.57-.21-.39-.47-.66-.79-.83-.32-.17-.67-.25-1.04-.25s-.7.08-1.03.25-.59.45-.79.83-.3.9-.3,1.54v7.85c0,.19-.07.35-.21.49-.14.14-.31.21-.49.21h-3.36Z"/>
      <path class="cls-1" d="M333.19,416.22c-.21,0-.38-.07-.51-.21-.13-.14-.2-.31-.2-.49v-13.28c0-.21.07-.38.2-.51.13-.13.3-.2.51-.2h3.08c.21,0,.38.07.51.2.13.13.2.3.2.51v.96c.38-.51.9-.96,1.58-1.34.68-.39,1.48-.59,2.4-.61,2.18-.06,3.68.75,4.49,2.43.43-.72,1.05-1.3,1.85-1.75.8-.45,1.68-.68,2.64-.68s1.86.22,2.64.66c.78.44,1.41,1.12,1.88,2.03.47.91.71,2.1.71,3.54v8.02c0,.19-.07.35-.2.49-.13.14-.3.21-.51.21h-3.28c-.21,0-.38-.07-.52-.21s-.21-.31-.21-.49v-7.82c0-.66-.09-1.18-.28-1.57-.19-.39-.44-.66-.76-.83-.32-.17-.69-.25-1.1-.25-.34,0-.67.08-1,.25-.33.17-.59.45-.79.83s-.3.91-.3,1.57v7.82c0,.19-.07.35-.2.49-.13.14-.3.21-.51.21h-3.28c-.21,0-.38-.07-.51-.21-.13-.14-.2-.31-.2-.49v-7.82c0-.66-.1-1.18-.31-1.57-.21-.39-.47-.66-.79-.83-.32-.17-.67-.25-1.04-.25s-.7.08-1.03.25-.59.45-.79.83-.3.9-.3,1.54v7.85c0,.19-.07.35-.21.49-.14.14-.31.21-.49.21h-3.36Z"/>
      <path class="cls-1" d="M364.23,416.5c-1.58,0-2.91-.25-4-.76-1.08-.51-1.91-1.24-2.49-2.19-.57-.95-.9-2.08-.97-3.4-.02-.38-.03-.81-.03-1.29s0-.9.03-1.26c.07-1.34.41-2.48,1.02-3.42.6-.94,1.45-1.67,2.53-2.17,1.08-.51,2.39-.76,3.91-.76s2.86.25,3.94.76c1.08.51,1.93,1.23,2.53,2.17.6.94.94,2.08,1.02,3.42.02.36.03.78.03,1.26s0,.91-.03,1.29c-.08,1.32-.4,2.45-.97,3.4-.57.95-1.4,1.68-2.49,2.19-1.08.51-2.42.76-4.03.76ZM364.23,413.05c.85,0,1.46-.25,1.85-.76s.61-1.27.66-2.29c.02-.28.03-.66.03-1.13s0-.85-.03-1.13c-.06-1-.28-1.76-.66-2.27-.39-.52-1-.78-1.85-.78s-1.42.26-1.82.78c-.4.52-.63,1.28-.66,2.27-.02.28-.03.66-.03,1.13s0,.85.03,1.13c.04,1.02.26,1.78.66,2.29s1.01.76,1.82.76Z"/>
      <path class="cls-1" d="M378.94,416.5c-.9,0-1.72-.15-2.44-.44-.73-.29-1.35-.72-1.86-1.3-.52-.57-.92-1.27-1.2-2.09-.28-.82-.44-1.76-.48-2.81-.02-.38-.03-.71-.03-1s0-.63.03-1c.04-1,.2-1.91.48-2.73.28-.82.68-1.52,1.19-2.09.51-.57,1.13-1.02,1.86-1.33.73-.31,1.55-.47,2.46-.47s1.75.16,2.43.47c.68.31,1.25.71,1.72,1.2v-6.04c0-.21.07-.38.2-.51s.3-.2.51-.2h3.45c.19,0,.35.07.49.2.14.13.21.3.21.51v18.64c0,.19-.07.35-.21.49s-.31.21-.49.21h-3.19c-.21,0-.38-.07-.51-.21-.13-.14-.2-.31-.2-.49v-.9c-.45.55-1.04,1-1.75,1.36-.72.36-1.6.54-2.66.54ZM380.5,412.71c.62,0,1.12-.14,1.48-.41.37-.27.64-.63.82-1.06.18-.43.28-.9.3-1.41.02-.38.03-.73.03-1.07s0-.69-.03-1.04c-.02-.47-.12-.91-.31-1.31-.19-.4-.47-.73-.85-.99-.38-.25-.86-.38-1.44-.38-.62,0-1.12.13-1.48.4-.37.26-.63.62-.79,1.07-.16.45-.26.95-.3,1.5-.06.58-.06,1.17,0,1.75.04.55.14,1.04.3,1.5.16.45.42.81.79,1.07.37.26.86.4,1.48.4Z"/>
      <path class="cls-1" d="M397.16,416.5c-1.58,0-2.91-.25-4-.76-1.08-.51-1.91-1.24-2.49-2.19-.57-.95-.9-2.08-.97-3.4-.02-.38-.03-.81-.03-1.29s0-.9.03-1.26c.07-1.34.41-2.48,1.02-3.42.6-.94,1.45-1.67,2.53-2.17,1.08-.51,2.39-.76,3.91-.76s2.86.25,3.94.76c1.08.51,1.93,1.23,2.53,2.17.6.94.94,2.08,1.02,3.42.02.36.03.78.03,1.26s0,.91-.03,1.29c-.08,1.32-.4,2.45-.97,3.4-.57.95-1.4,1.68-2.49,2.19-1.08.51-2.42.76-4.03.76ZM397.16,413.05c.85,0,1.46-.25,1.85-.76s.61-1.27.66-2.29c.02-.28.03-.66.03-1.13s0-.85-.03-1.13c-.06-1-.28-1.76-.66-2.27-.39-.52-1-.78-1.85-.78s-1.42.26-1.82.78c-.4.52-.63,1.28-.66,2.27-.02.28-.03.66-.03,1.13s0,.85.03,1.13c.04,1.02.26,1.78.66,2.29s1.01.76,1.82.76Z"/>
      <path class="cls-1" d="M407.1,416.22c-.21,0-.38-.07-.51-.21-.13-.14-.2-.31-.2-.49v-13.28c0-.19.07-.35.2-.49.13-.14.3-.21.51-.21h3.25c.21,0,.38.07.52.21s.21.31.21.49v1.13c.49-.58,1.09-1.04,1.79-1.36s1.5-.48,2.39-.48h1.24c.21,0,.38.07.51.2.13.13.2.3.2.51v2.91c0,.19-.07.35-.2.49-.13.14-.3.21-.51.21h-2.74c-.77,0-1.37.21-1.79.64-.42.42-.64,1.02-.64,1.79v7.23c0,.19-.07.35-.21.49-.14.14-.32.21-.52.21h-3.5Z"/>
      <path class="cls-1" d="M424.81,416.5c-2.22,0-3.99-.6-5.31-1.81-1.32-1.2-2.01-2.99-2.06-5.37v-.99c.06-1.49.39-2.76,1-3.83.61-1.06,1.46-1.87,2.54-2.43,1.08-.56,2.35-.83,3.8-.83,1.66,0,3.03.33,4.11.99s1.9,1.55,2.44,2.68c.55,1.13.82,2.42.82,3.87v.68c0,.21-.07.38-.2.51-.13.13-.3.2-.51.2h-9.04v.2c.02.55.12,1.04.3,1.5.18.45.44.81.79,1.07s.78.4,1.29.4c.38,0,.69-.06.95-.18.25-.12.47-.26.64-.42.17-.16.3-.3.4-.41.17-.21.31-.33.41-.38.1-.05.27-.07.49-.07h3.5c.19,0,.34.06.47.17.12.11.17.26.16.45-.02.32-.18.71-.48,1.16-.3.45-.74.9-1.31,1.34s-1.29.8-2.16,1.09c-.87.28-1.87.42-3.02.42ZM422.41,407.37h4.77v-.06c0-.62-.09-1.15-.27-1.6-.18-.44-.45-.79-.82-1.03-.37-.24-.8-.37-1.31-.37s-.91.12-1.27.37c-.36.25-.63.59-.82,1.03-.19.44-.28.97-.28,1.6v.06Z"/>
    </g>
    <polygon class="cls-3" points="255.89 404.81 261.15 404.81 264.15 402.89 255.89 402.89 255.89 404.81"/>
    <polygon class="cls-3" points="255.72 409.72 260.98 409.72 263.98 411.64 255.72 411.64 255.72 409.72"/>
    <path class="cls-2" d="M246.94,405.65c.48,0,.93-.07,1.34-.22s.76-.36,1.05-.64.52-.63.69-1.04c.17-.41.25-.89.25-1.42s-.08-.99-.23-1.39c-.15-.4-.37-.73-.65-1-.28-.27-.62-.47-1.03-.61-.4-.14-.86-.2-1.38-.2-.37,0-.74.03-1.13.08-.38.05-.74.13-1.08.23v-1.41c.34-.09.71-.16,1.1-.21s.8-.08,1.22-.08c.82,0,1.55.11,2.17.33.63.22,1.15.52,1.57.92s.73.87.94,1.42c.21.55.32,1.16.32,1.83s-.11,1.32-.34,1.9c-.23.59-.55,1.09-.97,1.52-.42.43-.96.77-1.59,1.01-.64.25-1.36.37-2.16.38-.41,0-.8-.03-1.17-.08-.37-.05-.7-.12-1-.22v-1.39c.39.11.75.19,1.08.23.33.04.66.07.98.07Z"/>
    <polygon class="cls-3" points="247.07 415.87 245.58 413.74 245.51 411.98 247.85 415.32 247.07 415.87"/>
    <g>
      <path class="cls-1" d="M448.75,411.26l1.92.21c-.39,2.22-1.77,3.33-4.13,3.33-1.53,0-2.67-.47-3.43-1.4s-1.13-2.18-1.13-3.74c0-1.68.4-2.97,1.19-3.87.79-.9,1.94-1.35,3.44-1.35,2.31,0,3.67,1.14,4.07,3.41l-1.94.23c-.21-1.51-.92-2.27-2.12-2.27-1.61,0-2.42,1.32-2.42,3.95,0,2.45.81,3.67,2.42,3.67.65,0,1.13-.19,1.44-.56.32-.37.54-.91.68-1.61Z"/>
      <path class="cls-1" d="M452.21,404.62h2.84c1.38,0,2.48.19,3.3.58.82.39,1.45.96,1.87,1.72.42.76.63,1.61.63,2.53,0,.98-.19,1.85-.57,2.61s-.96,1.38-1.74,1.85c-.78.47-1.89.7-3.34.7h-3v-9.99ZM454.3,405.95v7.34h.87c1.22,0,2.1-.33,2.65-1,.55-.67.82-1.56.82-2.67,0-2.45-1.16-3.67-3.47-3.67h-.87Z"/>
      <path class="cls-1" d="M461.05,404.62h7.71v1.41h-2.82v8.59h-2.09v-8.59h-2.8v-1.41Z"/>
      <path class="cls-1" d="M469.14,404.62h2.2l2.4,7.97,2.41-7.97h1.84l-3.33,10.01-2.26-.02-3.26-9.99Z"/>
      <path class="cls-1" d="M482.28,404.62h3.8c1.37,0,2.39.25,3.04.74.65.49.98,1.2.98,2.12,0,1.23-.64,2.1-1.93,2.61l2.39,4.52h-2.27l-1.96-4.17h-1.97v4.17h-2.09v-9.99ZM484.37,405.9v3.26h1.6c.71,0,1.24-.16,1.58-.47.34-.31.5-.72.5-1.22,0-1.04-.69-1.57-2.06-1.57h-1.62Z"/>
      <path class="cls-1" d="M492.08,404.62h7.23v1.32h-5.14v2.85h4.03v1.33h-4.03v3.13h5.22v1.35h-7.31v-9.99Z"/>
      <path class="cls-1" d="M500.56,404.62h3.1l2.52,7.2,2.58-7.2h2.97v9.99h-1.96v-8.53l-3,8.53h-1.52l-2.94-8.53v8.53h-1.75v-9.99Z"/>
      <path class="cls-1" d="M522.6,409.62c0,1.71-.38,3-1.16,3.87-.77.87-1.89,1.31-3.36,1.31s-2.6-.44-3.38-1.31-1.17-2.16-1.17-3.88.39-2.98,1.17-3.86,1.9-1.31,3.38-1.31,2.58.44,3.36,1.31,1.16,2.16,1.16,3.87ZM520.41,409.62c0-1.19-.17-2.12-.52-2.8-.35-.68-.96-1.02-1.83-1.02s-1.48.34-1.82,1.03c-.34.68-.52,1.62-.52,2.8s.17,2.09.51,2.78.96,1.04,1.86,1.04c.84,0,1.44-.34,1.79-1.01.35-.67.53-1.61.53-2.82Z"/>
      <path class="cls-1" d="M522.97,404.62h7.71v1.41h-2.82v8.59h-2.09v-8.59h-2.8v-1.41Z"/>
      <path class="cls-1" d="M531.4,404.62h7.23v1.32h-5.14v2.85h4.03v1.33h-4.03v3.13h5.22v1.35h-7.31v-9.99Z"/>
      <path class="cls-1" d="M549.6,411.26l1.92.21c-.39,2.22-1.77,3.33-4.13,3.33-1.53,0-2.67-.47-3.43-1.4s-1.13-2.18-1.13-3.74c0-1.68.4-2.97,1.19-3.87.79-.9,1.94-1.35,3.43-1.35,2.31,0,3.67,1.14,4.07,3.41l-1.94.23c-.21-1.51-.92-2.27-2.12-2.27-1.61,0-2.42,1.32-2.42,3.95,0,2.45.81,3.67,2.42,3.67.65,0,1.13-.19,1.44-.56.32-.37.54-.91.68-1.61Z"/>
      <path class="cls-1" d="M561.71,409.62c0,1.71-.38,3-1.16,3.87-.77.87-1.89,1.31-3.36,1.31s-2.6-.44-3.38-1.31-1.17-2.16-1.17-3.88.39-2.98,1.17-3.86,1.9-1.31,3.38-1.31,2.58.44,3.36,1.31,1.16,2.16,1.16,3.87ZM559.52,409.62c0-1.19-.17-2.12-.52-2.8-.35-.68-.96-1.02-1.83-1.02s-1.48.34-1.82,1.03c-.34.68-.52,1.62-.52,2.8s.17,2.09.51,2.78.96,1.04,1.86,1.04c.84,0,1.44-.34,1.79-1.01.35-.67.53-1.61.53-2.82Z"/>
      <path class="cls-1" d="M563.45,404.62h2.46l4.15,7.2v-7.2h1.75v9.99h-1.95l-4.66-8v8h-1.75v-9.99Z"/>
      <path class="cls-1" d="M572.45,404.62h7.71v1.41h-2.82v8.59h-2.09v-8.59h-2.8v-1.41Z"/>
      <path class="cls-1" d="M580.88,404.62h3.8c1.37,0,2.39.25,3.04.74.65.49.98,1.2.98,2.12,0,1.23-.64,2.1-1.93,2.61l2.39,4.52h-2.27l-1.96-4.17h-1.97v4.17h-2.09v-9.99ZM582.97,405.9v3.26h1.6c.71,0,1.24-.16,1.58-.47.34-.31.5-.72.5-1.22,0-1.04-.69-1.57-2.06-1.57h-1.62Z"/>
      <path class="cls-1" d="M599.16,409.62c0,1.71-.38,3-1.16,3.87-.77.87-1.89,1.31-3.36,1.31s-2.6-.44-3.38-1.31-1.17-2.16-1.17-3.88.39-2.98,1.17-3.86,1.9-1.31,3.38-1.31,2.58.44,3.36,1.31,1.16,2.16,1.16,3.87ZM596.97,409.62c0-1.19-.17-2.12-.52-2.8-.35-.68-.96-1.02-1.83-1.02s-1.48.34-1.82,1.03c-.34.68-.52,1.62-.52,2.8s.17,2.09.51,2.78.96,1.04,1.86,1.04c.84,0,1.44-.34,1.79-1.01.35-.67.53-1.61.53-2.82Z"/>
      <path class="cls-1" d="M600.97,404.62h2.09v8.59h4.46v1.4h-6.55v-9.99Z"/>
      <path class="cls-1" d="M608.52,404.62h2.09v8.59h4.46v1.4h-6.55v-9.99Z"/>
      <path class="cls-1" d="M616.07,404.62h7.23v1.32h-5.14v2.85h4.03v1.33h-4.03v3.13h5.22v1.35h-7.31v-9.99Z"/>
      <path class="cls-1" d="M624.58,404.62h3.8c1.37,0,2.39.25,3.04.74.65.49.98,1.2.98,2.12,0,1.23-.64,2.1-1.93,2.61l2.39,4.52h-2.27l-1.96-4.17h-1.97v4.17h-2.09v-9.99ZM626.67,405.9v3.26h1.6c.71,0,1.24-.16,1.58-.47.34-.31.5-.72.5-1.22,0-1.04-.69-1.57-2.06-1.57h-1.62Z"/>
    </g>
  </g>
</svg>