<svg xmlns="http://www.w3.org/2000/svg" id="Buttons" viewBox="0 0 256 256"><defs><style>.cls-1,.cls-2{fill:#e4d8be}.cls-2{stroke-miterlimit:10;stroke-width:.57px;stroke:#e4d8be}.cls-10{fill:#ac9c7f}.cls-11{fill:#5e5e5b}</style></defs><path d="M233.34 161.21c-72.4 5.67-142.71 6.05-210.59.29-6.67-.55-9.63-4.61-9.44-9.87l1.96-55.02c0-3.46 2.8-6.26 6.26-6.26H234.3c3.46 0 6.26 2.8 6.26 6.26l2.13 55.08c0 4.91-4.2 9-9.35 9.52" style="fill:#8c857c"/><path d="M106.41 90.36h43.19v1.17c0 1.45-1.18 2.62-2.62 2.62h-37.94c-1.45 0-2.62-1.18-2.62-2.62v-1.17Z" style="fill:#2d2d2d"/><path d="M240.73 100.93h-45.34v-1.56h45.28zm.12 3.13h-45.46v-1.56h45.4zm.12 3.14h-45.58v-1.57h45.53zm.13 3.13h-45.71v-1.57h45.64zm-180.97-9.4H15.12l.06-1.56h44.95zm0 3.13H15l.06-1.56h45.07zm0 3.14H14.9l.05-1.57h45.18zm0 3.13H14.78l.06-1.57h45.29z" class="cls-11"/><path d="m58.3 159.91 1.83-66.2 2.44-2-1.65 70.63s-2.66-.61-2.61-2.44Zm139.22 0-1.83-66.2-2.44-2 1.65 70.63s2.66-.61 2.61-2.44Z" style="fill:#afa498"/><path d="M193.26 91.71h41.71c2.96 0 4.26 2.78 4.35 3.74-1.94-1.59-2.65-1.32-4.44-1.39-3.13.09-39.19-.35-39.19-.35l-2.44-2Zm-130.7 0H20.85c-2.96 0-4.26 2.78-4.35 3.74 1.56-1.12 1.79-1.29 4.44-1.39 3.13.09 39.19-.35 39.19-.35l2.44-2Zm130.31 63.53c-43.96 2.5-87.45 2.53-130.45 0-.36-.02-.39-.49-.39-.73l1.04-54.32c0-.23.19-.42.42-.42h127.98c.23 0 .42.19.42.42l1.42 54.31c0 .23-.03.71-.45.74Z" style="fill:#706b65"/><path d="M67.5 110.76h121.52m-51.48 23.28h7.4m-16.4-8.25h45.12m5.76.51h9.6m-12.26 23.72v-31.67m-51.09 31.67v-31.67m31.43 15.69h7.39M133.5 136v10.67c0 .46.06.67.43.67h34.68c.32 0 .61-.14.61-.55v-11.25" style="fill:none;stroke-miterlimit:10;stroke:#cebb9d;stroke-linecap:round;stroke-width:.38px"/><path d="M75.21 108.4s-.09-.02-.12-.05a.17.17 0 0 1-.05-.12v-4.29s.01-.09.05-.12c.03-.03.07-.05.12-.05h1.8q.855 0 1.35.39c.33.26.49.63.49 1.11 0 .31-.08.58-.22.79s-.35.38-.59.49l.91 1.62s.02.05.02.07c0 .04-.01.07-.04.1s-.06.04-.1.04h-.88c-.08 0-.15-.02-.19-.06a.5.5 0 0 1-.09-.12l-.75-1.45h-.67v1.47s-.02.08-.05.12c-.03.03-.07.05-.12.05h-.85Zm1.02-2.57h.76c.21 0 .36-.05.47-.15.1-.1.16-.24.16-.41s-.05-.31-.15-.42-.26-.16-.47-.16h-.76v1.14Zm4.63 2.64q-.555 0-.93-.18c-.375-.18-.45-.29-.58-.51s-.21-.49-.23-.8v-.59c.02-.31.1-.58.24-.8s.34-.39.59-.51.56-.18.92-.18.67.06.92.18.45.29.59.51.22.49.24.8v.59c-.02.31-.09.57-.23.8-.13.22-.33.39-.58.51s-.57.18-.94.18Zm0-.81c.2 0 .34-.06.43-.18s.14-.3.16-.53v-.52c-.01-.23-.06-.41-.16-.53-.09-.12-.23-.18-.43-.18s-.33.06-.43.18-.15.3-.16.53v.52c0 .24.06.42.16.53.09.12.24.18.43.18m2.33.74s-.09-.02-.12-.05a.17.17 0 0 1-.05-.12v-3.1s.02-.09.05-.12.07-.05.12-.05h.72s.09.02.12.05.05.07.05.12v.22c.09-.12.21-.22.37-.31s.35-.14.56-.14q.765-.015 1.05.57c.1-.17.25-.3.43-.41.19-.11.39-.16.62-.16s.43.05.62.16.33.26.44.48c.11.21.17.49.17.83v1.88s-.02.08-.05.12c-.03.03-.07.05-.12.05h-.77s-.09-.02-.12-.05a.17.17 0 0 1-.05-.12v-1.83c0-.15-.02-.28-.07-.37-.04-.09-.1-.16-.18-.19s-.16-.06-.26-.06c-.08 0-.16.02-.23.06s-.14.1-.18.19c-.05.09-.07.21-.07.37v1.83s-.02.08-.05.12c-.03.03-.07.05-.12.05h-.77s-.09-.02-.12-.05a.17.17 0 0 1-.05-.12v-1.83c0-.15-.02-.28-.07-.37s-.11-.16-.18-.19-.16-.06-.24-.06-.16.02-.24.06-.14.1-.19.19-.07.21-.07.36v1.84s-.02.08-.05.12c-.03.03-.07.05-.12.05h-.79Zm5.8 0s-.09-.02-.12-.05a.17.17 0 0 1-.05-.12v-3.1s.02-.09.05-.12.07-.05.12-.05h.72s.09.02.12.05.05.07.05.12v.22c.09-.12.21-.22.37-.31s.35-.14.56-.14q.765-.015 1.05.57c.1-.17.25-.3.43-.41.19-.11.39-.16.62-.16s.43.05.62.16.33.26.44.48c.11.21.17.49.17.83v1.88s-.02.08-.05.12c-.03.03-.07.05-.12.05h-.77s-.09-.02-.12-.05a.17.17 0 0 1-.05-.12v-1.83c0-.15-.02-.28-.07-.37-.04-.09-.1-.16-.18-.19s-.16-.06-.26-.06c-.08 0-.16.02-.23.06s-.14.1-.18.19c-.05.09-.07.21-.07.37v1.83s-.02.08-.05.12c-.03.03-.07.05-.12.05h-.77s-.09-.02-.12-.05a.17.17 0 0 1-.05-.12v-1.83c0-.15-.02-.28-.07-.37s-.11-.16-.18-.19-.16-.06-.24-.06-.16.02-.24.06-.14.1-.19.19-.07.21-.07.36v1.84s-.02.08-.05.12c-.03.03-.07.05-.12.05h-.79Zm7.26.07q-.555 0-.93-.18c-.375-.18-.45-.29-.58-.51s-.21-.49-.23-.8v-.59c.02-.31.1-.58.24-.8s.34-.39.59-.51.56-.18.92-.18.67.06.92.18.45.29.59.51.22.49.24.8v.59c-.02.31-.09.57-.23.8-.13.22-.33.39-.58.51s-.57.18-.94.18Zm0-.81c.2 0 .34-.06.43-.18s.14-.3.16-.53v-.52c-.01-.23-.06-.41-.16-.53-.09-.12-.23-.18-.43-.18s-.33.06-.43.18-.15.3-.16.53v.52c0 .24.06.42.16.53.09.12.24.18.43.18m3.44.81c-.21 0-.4-.03-.57-.1s-.31-.17-.44-.3-.21-.3-.28-.49-.1-.41-.11-.66v-.46c0-.23.05-.45.11-.64.07-.19.16-.35.28-.49.12-.13.26-.24.44-.31s.36-.11.57-.11.41.04.57.11.29.17.4.28v-1.41s.02-.09.05-.12.07-.05.12-.05h.81s.08.02.12.05c.03.03.05.07.05.12v4.36s-.02.08-.05.12c-.03.03-.07.05-.12.05h-.75s-.09-.02-.12-.05a.17.17 0 0 1-.05-.12v-.21c-.11.13-.24.23-.41.32-.17.08-.37.13-.62.13Zm.36-.88a.54.54 0 0 0 .54-.35c.04-.1.06-.21.07-.33v-.49c0-.11-.03-.21-.07-.31s-.11-.17-.2-.23a.6.6 0 0 0-.34-.09c-.14 0-.26.03-.35.09s-.15.15-.18.25c-.04.11-.06.22-.07.35-.01.14-.01.27 0 .41 0 .13.03.24.07.35s.1.19.18.25.2.09.35.09Zm3.9.88q-.555 0-.93-.18c-.375-.18-.45-.29-.58-.51s-.21-.49-.23-.8v-.59c.02-.31.1-.58.24-.8s.34-.39.59-.51.56-.18.92-.18.67.06.92.18.45.29.59.51.22.49.24.8v.59c-.02.31-.09.57-.23.8-.13.22-.33.39-.58.51s-.57.18-.94.18Zm0-.81c.2 0 .34-.06.43-.18s.14-.3.16-.53v-.52c-.01-.23-.06-.41-.16-.53-.09-.12-.23-.18-.43-.18s-.33.06-.43.18-.15.3-.16.53v.52c0 .24.06.42.16.53.09.12.24.18.43.18m2.32.74s-.09-.02-.12-.05a.17.17 0 0 1-.05-.12v-3.1s.02-.08.05-.12c.03-.03.07-.05.12-.05h.76s.09.02.12.05.05.07.05.12v.26c.11-.14.25-.24.42-.32.17-.07.35-.11.56-.11h.29s.09.02.12.05.05.07.05.12v.68s-.02.08-.05.12c-.03.03-.07.05-.12.05h-.64q-.27 0-.42.15t-.15.42v1.69s-.02.08-.05.12c-.03.03-.07.05-.12.05h-.82Zm4.15.07c-.52 0-.93-.14-1.24-.42s-.47-.7-.48-1.25v-.23c.01-.35.09-.65.23-.9s.34-.44.59-.57.55-.19.89-.19c.39 0 .71.08.96.23q.375.225.57.63c.13.26.19.57.19.91v.16s-.02.09-.05.12-.07.05-.12.05h-2.11v.05c0 .13.03.24.07.35s.1.19.18.25q.12.09.3.09c.09 0 .16-.01.22-.04a.6.6 0 0 0 .15-.1c.04-.04.07-.07.09-.1.04-.05.07-.08.1-.09.02-.01.06-.02.12-.02h.82s.08.01.11.04.04.06.04.11a.5.5 0 0 1-.11.27c-.07.11-.17.21-.31.31-.13.1-.3.19-.51.25-.2.07-.44.1-.71.1Zm-.57-2.13h1.12c0-.16-.02-.28-.06-.39a.57.57 0 0 0-.19-.24c-.09-.06-.19-.09-.31-.09s-.21.03-.3.09c-.08.06-.15.14-.19.24s-.07.23-.07.37Z" class="cls-1"/><path d="M71.32 105.48h1.12l.63-.41h-1.75zm-.04 1.04h1.12l.64.41h-1.76z" class="cls-2"/><path d="M69.42 105.66c.1 0 .2-.02.28-.05s.16-.08.22-.14.11-.13.15-.22a.94.94 0 0 0 0-.6.5.5 0 0 0-.14-.21c-.06-.06-.13-.1-.22-.13s-.18-.04-.29-.04c-.08 0-.16 0-.24.02-.08.01-.16.03-.23.05v-.3c.07-.02.15-.03.23-.04s.17-.02.26-.02c.17 0 .33.02.46.07s.24.11.33.2.16.18.2.3.07.25.07.39-.02.28-.07.4-.12.23-.21.32-.2.16-.34.21-.29.08-.46.08c-.09 0-.17 0-.25-.02a1 1 0 0 1-.21-.05v-.3c.08.02.16.04.23.05.07 0 .14.01.21.01Z" style="fill:#e4d8be;stroke-miterlimit:10;stroke:#e4d8be;stroke-width:.38px"/><path d="m69.45 107.82-.32-.45-.01-.37.49.71z" class="cls-2"/><path d="m116.01 107.25.45.05q-.135.78-.96.78c-.36 0-.63-.11-.8-.33s-.26-.51-.26-.88c0-.39.09-.7.28-.91s.45-.31.8-.31c.54 0 .86.27.95.8l-.45.05c-.05-.35-.21-.53-.5-.53-.38 0-.56.31-.56.92 0 .57.19.86.56.86.15 0 .26-.04.34-.13s.13-.21.16-.38Zm.81-1.56h.66c.32 0 .58.05.77.14s.34.22.44.4.15.38.15.59c0 .23-.04.43-.13.61s-.22.32-.41.43c-.18.11-.44.16-.78.16h-.7v-2.34Zm.49.31v1.72h.2c.28 0 .49-.08.62-.23.13-.16.19-.36.19-.62 0-.57-.27-.86-.81-.86h-.2Zm1.58-.31h1.8v.33h-.66v2.01h-.49v-2.01h-.66v-.33Zm1.89 0h.51l.56 1.86.56-1.86h.43l-.78 2.34h-.53l-.76-2.34Zm3.07 0h.89c.32 0 .56.06.71.17a.6.6 0 0 1 .23.5c0 .29-.15.49-.45.61l.56 1.06h-.53l-.46-.98h-.46v.98h-.49zm.49.3v.76h.37c.17 0 .29-.04.37-.11a.37.37 0 0 0 .12-.29c0-.24-.16-.37-.48-.37h-.38Zm1.81-.3h1.69v.31h-1.2v.67h.94v.31h-.94v.73h1.22v.32h-1.71zm1.98 0h.72l.59 1.68.6-1.68h.69v2.34h-.46v-1.99l-.7 1.99h-.36l-.69-2v2h-.41v-2.34Zm5.16 1.17c0 .4-.09.7-.27.91-.18.2-.44.31-.78.31s-.61-.1-.79-.31c-.18-.2-.28-.51-.28-.91s.09-.7.27-.9.45-.31.79-.31.6.1.79.31q.27.3.27.9m-.52 0q0-.42-.12-.66c-.08-.16-.22-.24-.43-.24s-.34.08-.43.24c-.08.16-.12.38-.12.65s.04.49.12.65.22.24.43.24q.3 0 .42-.24t.12-.66Zm.6-1.17h1.8v.33h-.66v2.01h-.49v-2.01h-.66v-.33Zm1.97 0h1.69v.31h-1.2v.67h.94v.31h-.94v.73h1.22v.32h-1.71zm4.26 1.56.45.05q-.135.78-.96.78c-.36 0-.63-.11-.8-.33s-.26-.51-.26-.88c0-.39.09-.7.28-.91s.45-.31.8-.31c.54 0 .86.27.95.8l-.45.05c-.05-.35-.21-.53-.5-.53-.38 0-.56.31-.56.92 0 .57.19.86.56.86.15 0 .26-.04.34-.13s.13-.21.16-.38Zm2.83-.39c0 .4-.09.7-.27.91-.18.2-.44.31-.78.31s-.61-.1-.79-.31c-.18-.2-.28-.51-.28-.91s.09-.7.27-.9.45-.31.79-.31.6.1.79.31q.27.3.27.9m-.51 0q0-.42-.12-.66c-.08-.16-.22-.24-.43-.24s-.34.08-.43.24c-.08.16-.12.38-.12.65s.04.49.12.65.22.24.43.24q.3 0 .42-.24t.12-.66Zm.92-1.17h.58l.97 1.68v-1.68h.41v2.34h-.46l-1.09-1.87v1.87h-.41zm2.1 0h1.8v.33h-.66v2.01h-.49v-2.01h-.66v-.33Zm1.97 0h.89c.32 0 .56.06.71.17a.6.6 0 0 1 .23.5c0 .29-.15.49-.45.61l.56 1.06h-.53l-.46-.98h-.46v.98h-.49zm.49.3v.76h.37c.17 0 .29-.04.37-.11a.37.37 0 0 0 .12-.29c0-.24-.16-.37-.48-.37h-.38Zm3.79.87c0 .4-.09.7-.27.91-.18.2-.44.31-.78.31s-.61-.1-.79-.31c-.18-.2-.28-.51-.28-.91s.09-.7.27-.9.45-.31.79-.31.6.1.79.31q.27.3.27.9m-.51 0q0-.42-.12-.66c-.08-.16-.22-.24-.43-.24s-.34.08-.43.24c-.08.16-.12.38-.12.65s.04.49.12.65.22.24.43.24q.3 0 .42-.24t.12-.66Zm.93-1.17h.49v2.01h1.04v.33h-1.53zm1.77 0h.49v2.01h1.04v.33h-1.53zm1.76 0h1.69v.31h-1.2v.67h.94v.31h-.94v.73h1.22v.32h-1.71zm2 0h.89c.32 0 .56.06.71.17a.6.6 0 0 1 .23.5c0 .29-.15.49-.45.61l.56 1.06h-.53l-.46-.98h-.46v.98h-.49zm.48.3v.76h.37c.17 0 .29-.04.37-.11a.37.37 0 0 0 .12-.29c0-.24-.16-.37-.48-.37h-.38Z" class="cls-1"/><circle cx="229.81" cy="132.44" r="6.59" class="cls-11"/><circle cx="208.67" cy="132.44" r="6.59" class="cls-11"/><path d="M50.45 131.67s.05-2.93.08-3.81c.01-.93-.44-1.28-1.38-1.32-.46 0-4.54-.11-5.09-.13s-.87-.03-1.1.19-3.37 3.23-3.73 3.57c-.59.62-.68.75-.68 1.15-.02.39.06.53.62 1.18.35.37 3.33 3.53 3.54 3.76s.54.24 1.09.25 4.63.12 5.09.14c.94 0 1.41-.32 1.45-1.24.01-.88.12-3.81.12-3.81m-13.39-13.69s-2.93-.05-3.81-.08c-.93-.01-1.28.44-1.32 1.38 0 .46-.11 4.54-.13 5.09s-.03.87.19 1.1 3.23 3.37 3.57 3.73c.62.59.75.68 1.15.68h-.01c.4.02.54-.06 1.19-.62.37-.35 3.53-3.33 3.76-3.54s.24-.54.25-1.09.12-4.63.14-5.09c0-.94-.32-1.41-1.24-1.45-.88-.01-3.81-.12-3.81-.12m-14.03 12.98s-.05 2.93-.08 3.81c-.01.93.44 1.28 1.38 1.32.46 0 4.54.11 5.09.13s.87.03 1.1-.19 3.37-3.23 3.73-3.57c.59-.62.68-.75.68-1.15.02-.39-.06-.53-.62-1.18-.35-.37-3.33-3.53-3.54-3.76s-.54-.24-1.09-.25-4.63-.12-5.09-.14c-.94 0-1.41.32-1.45 1.24-.01.88-.12 3.81-.12 3.81m13.34 13.41s2.93.05 3.81.08c.93.01 1.28-.44 1.32-1.38 0-.46.11-4.54.13-5.09s.03-.87-.19-1.1-3.23-3.37-3.57-3.73c-.62-.59-.75-.68-1.15-.68h.01c-.4-.02-.54.06-1.19.62-.37.35-3.53 3.33-3.76 3.54s-.24.54-.25 1.09-.12 4.63-.14 5.09c0 .94.32 1.41 1.24 1.45.88.01 3.81.12 3.81.12" class="cls-11"/><rect width="9.16" height="4.58" x="82.32" y="118.62" class="cls-10" rx="1.58" ry="1.58"/><rect width="9.16" height="4.58" x="97.86" y="118.62" class="cls-10" rx="1.58" ry="1.58"/><rect width="9.16" height="4.58" x="113.35" y="118.62" class="cls-10" rx="1.58" ry="1.58"/><rect width="9.16" height="4.58" x="128.66" y="118.62" class="cls-10" rx="1.58" ry="1.58"/><rect width="9.16" height="4.58" x="128.66" y="131.75" class="cls-10" rx="1.58" ry="1.58"/><rect width="9.16" height="4.58" x="164.49" y="131.75" class="cls-10" rx="1.58" ry="1.58"/><rect width="9.16" height="4.58" x="179.86" y="131.75" class="cls-10" rx="1.58" ry="1.58"/><rect width="9.16" height="4.58" x="179.86" y="144.87" class="cls-10" rx="1.58" ry="1.58"/><rect width="9.16" height="4.58" x="159.62" y="118.62" rx="1.58" ry="1.58" style="fill:#f05954"/><rect width="9.16" height="4.58" x="144.26" y="118.62" class="cls-10" rx="1.58" ry="1.58"/><rect width="9.16" height="4.58" x="66.9" y="118.62" class="cls-10" rx="1.58" ry="1.58"/><rect width="9.16" height="4.58" x="66.9" y="131.75" class="cls-10" rx="1.58" ry="1.58"/><rect width="9.16" height="4.58" x="66.9" y="144.87" class="cls-10" rx="1.58" ry="1.58"/><rect width="9.16" height="4.58" x="82.09" y="144.87" class="cls-10" rx="1.58" ry="1.58"/><rect width="9.16" height="4.58" x="82.09" y="131.75" class="cls-10" rx="1.58" ry="1.58"/><rect width="9.16" height="4.58" x="97.86" y="144.87" class="cls-10" rx="1.58" ry="1.58"/><rect width="9.16" height="4.58" x="97.86" y="131.75" class="cls-10" rx="1.58" ry="1.58"/><rect width="9.16" height="4.58" x="113.06" y="144.87" class="cls-10" rx="1.58" ry="1.58"/><rect width="9.16" height="4.58" x="113.06" y="131.75" class="cls-10" rx="1.58" ry="1.58"/><rect width="14.15" height="4.58" x="144.14" y="144.87" class="cls-10" rx="1.58" ry="1.58"/><rect width="14.15" height="4.58" x="144.14" y="131.75" class="cls-10" rx="1.58" ry="1.58"/><path d="M178.97 118.43h9.85v5.73h-9.85z" style="fill:#564f44"/><path d="m180.89 118.43-.6.72v4.29h4.15l.74-.73h-4.29z" style="fill:#897d68"/><path d="M180.89 118.43h4.28v4.28h-4.28z" class="cls-10"/><path d="M181.68 118.5v4.15m.92-4.15v4.15m.92-4.15v4.15m.92-4.15v4.15" style="stroke:#897d68;stroke-linecap:square;stroke-width:.14px;fill:none;stroke-miterlimit:10"/></svg>