<?xml version="1.0" encoding="UTF-8"?>
<svg id="Buttons" xmlns="http://www.w3.org/2000/svg" viewBox="0 0 256 256">
  <defs>
    <style>
      .cls-1, .cls-2, .cls-3 {
        fill: #e4d8be;
      }

      .cls-4 {
        fill: #706b65;
      }

      .cls-5 {
        fill: #2d2d2d;
      }

      .cls-6 {
        stroke: #897d68;
        stroke-linecap: square;
        stroke-width: .14px;
      }

      .cls-6, .cls-7 {
        fill: none;
      }

      .cls-6, .cls-7, .cls-2, .cls-3 {
        stroke-miterlimit: 10;
      }

      .cls-7 {
        stroke: #cebb9d;
        stroke-linecap: round;
        stroke-width: .38px;
      }

      .cls-8 {
        fill: #8c857c;
      }

      .cls-2 {
        stroke-width: .57px;
      }

      .cls-2, .cls-3 {
        stroke: #e4d8be;
      }

      .cls-9 {
        fill: #897d68;
      }

      .cls-10 {
        fill: #ac9c7f;
      }

      .cls-11 {
        fill: #5e5e5b;
      }

      .cls-12 {
        fill: #564f44;
      }

      .cls-13 {
        fill: #f05954;
      }

      .cls-14 {
        fill: #afa498;
      }

      .cls-3 {
        stroke-width: .38px;
      }
    </style>
  </defs>
  <path class="cls-8" d="M233.34,161.21c-72.4,5.67-142.71,6.05-210.59.29-6.67-.55-9.63-4.61-9.44-9.87l1.96-55.02c0-3.46,2.8-6.26,6.26-6.26h212.77c3.46,0,6.26,2.8,6.26,6.26l2.13,55.08c0,4.91-4.2,9-9.35,9.52Z"/>
  <path class="cls-5" d="M106.41,90.36h43.19v1.17c0,1.45-1.18,2.62-2.62,2.62h-37.94c-1.45,0-2.62-1.18-2.62-2.62v-1.17h0Z"/>
  <polygon class="cls-11" points="240.73 100.93 195.39 100.93 195.39 99.37 240.67 99.37 240.73 100.93"/>
  <polygon class="cls-11" points="240.85 104.06 195.39 104.06 195.39 102.5 240.79 102.5 240.85 104.06"/>
  <polygon class="cls-11" points="240.97 107.2 195.39 107.2 195.39 105.63 240.92 105.63 240.97 107.2"/>
  <polygon class="cls-11" points="241.1 110.33 195.39 110.33 195.39 108.76 241.03 108.76 241.1 110.33"/>
  <polygon class="cls-11" points="60.13 100.93 15.12 100.93 15.18 99.37 60.13 99.37 60.13 100.93"/>
  <polygon class="cls-11" points="60.13 104.06 15 104.06 15.06 102.5 60.13 102.5 60.13 104.06"/>
  <polygon class="cls-11" points="60.13 107.2 14.9 107.2 14.95 105.63 60.13 105.63 60.13 107.2"/>
  <polygon class="cls-11" points="60.13 110.33 14.78 110.33 14.84 108.76 60.13 108.76 60.13 110.33"/>
  <path class="cls-14" d="M58.3,159.91l1.83-66.2,2.44-2-1.65,70.63s-2.66-.61-2.61-2.44Z"/>
  <path class="cls-14" d="M197.52,159.91l-1.83-66.2-2.44-2,1.65,70.63s2.66-.61,2.61-2.44Z"/>
  <path class="cls-4" d="M193.26,91.71s38.32,0,41.71,0c2.96,0,4.26,2.78,4.35,3.74-1.94-1.59-2.65-1.32-4.44-1.39-3.13.09-39.19-.35-39.19-.35l-2.44-2Z"/>
  <path class="cls-4" d="M62.56,91.71s-38.32,0-41.71,0c-2.96,0-4.26,2.78-4.35,3.74,1.56-1.12,1.79-1.29,4.44-1.39,3.13.09,39.19-.35,39.19-.35l2.44-2Z"/>
  <path class="cls-4" d="M192.87,155.24c-43.96,2.5-87.45,2.53-130.45,0-.36-.02-.39-.49-.39-.73l1.04-54.32c0-.23.19-.42.42-.42h127.98c.23,0,.42.19.42.42l1.42,54.31c0,.23-.03.71-.45.74Z"/>
  <line class="cls-7" x1="67.5" y1="110.76" x2="189.02" y2="110.76"/>
  <line class="cls-7" x1="137.54" y1="134.04" x2="144.94" y2="134.04"/>
  <line class="cls-7" x1="128.54" y1="125.79" x2="173.66" y2="125.79"/>
  <line class="cls-7" x1="179.42" y1="126.3" x2="189.02" y2="126.3"/>
  <line class="cls-7" x1="176.76" y1="150.02" x2="176.76" y2="118.35"/>
  <line class="cls-7" x1="125.67" y1="150.02" x2="125.67" y2="118.35"/>
  <line class="cls-7" x1="157.1" y1="134.04" x2="164.49" y2="134.04"/>
  <path class="cls-7" d="M133.5,136v10.67c0,.46.06.67.43.67h34.68c.32,0,.61-.14.61-.55v-11.25"/>
  <g>
    <path class="cls-1" d="M75.21,108.4s-.09-.02-.12-.05c-.03-.03-.05-.07-.05-.12v-4.29s.01-.09.05-.12c.03-.03.07-.05.12-.05h1.8c.57,0,1.02.13,1.35.39.33.26.49.63.49,1.11,0,.31-.08.58-.22.79s-.35.38-.59.49l.91,1.62s.02.05.02.07c0,.04-.01.07-.04.1-.03.03-.06.04-.1.04h-.88c-.08,0-.15-.02-.19-.06-.04-.04-.07-.08-.09-.12l-.75-1.45h-.67v1.47s-.02.08-.05.12c-.03.03-.07.05-.12.05h-.85ZM76.23,105.83h.76c.21,0,.36-.05.47-.15.1-.1.16-.24.16-.41s-.05-.31-.15-.42c-.1-.11-.26-.16-.47-.16h-.76v1.14Z"/>
    <path class="cls-1" d="M80.86,108.47c-.37,0-.68-.06-.93-.18s-.45-.29-.58-.51c-.13-.22-.21-.49-.23-.8,0-.09,0-.19,0-.3s0-.21,0-.29c.02-.31.1-.58.24-.8.14-.22.34-.39.59-.51.25-.12.56-.18.92-.18s.67.06.92.18c.25.12.45.29.59.51s.22.49.24.8c0,.08,0,.18,0,.29s0,.21,0,.3c-.02.31-.09.57-.23.8-.13.22-.33.39-.58.51s-.57.18-.94.18ZM80.86,107.66c.2,0,.34-.06.43-.18.09-.12.14-.3.16-.53,0-.07,0-.15,0-.26s0-.2,0-.26c-.01-.23-.06-.41-.16-.53-.09-.12-.23-.18-.43-.18s-.33.06-.43.18-.15.3-.16.53c0,.07,0,.15,0,.26s0,.2,0,.26c0,.24.06.42.16.53.09.12.24.18.43.18Z"/>
    <path class="cls-1" d="M83.19,108.4s-.09-.02-.12-.05c-.03-.03-.05-.07-.05-.12v-3.1s.02-.09.05-.12c.03-.03.07-.05.12-.05h.72s.09.02.12.05c.03.03.05.07.05.12v.22c.09-.12.21-.22.37-.31.16-.09.35-.14.56-.14.51-.01.86.18,1.05.57.1-.17.25-.3.43-.41.19-.11.39-.16.62-.16s.43.05.62.16.33.26.44.48c.11.21.17.49.17.83v1.88s-.02.08-.05.12c-.03.03-.07.05-.12.05h-.77s-.09-.02-.12-.05c-.03-.03-.05-.07-.05-.12v-1.83c0-.15-.02-.28-.07-.37-.04-.09-.1-.16-.18-.19s-.16-.06-.26-.06c-.08,0-.16.02-.23.06s-.14.1-.18.19c-.05.09-.07.21-.07.37v1.83s-.02.08-.05.12c-.03.03-.07.05-.12.05h-.77s-.09-.02-.12-.05c-.03-.03-.05-.07-.05-.12v-1.83c0-.15-.02-.28-.07-.37-.05-.09-.11-.16-.18-.19s-.16-.06-.24-.06-.16.02-.24.06-.14.1-.19.19c-.05.09-.07.21-.07.36v1.84s-.02.08-.05.12c-.03.03-.07.05-.12.05h-.79Z"/>
    <path class="cls-1" d="M88.99,108.4s-.09-.02-.12-.05c-.03-.03-.05-.07-.05-.12v-3.1s.02-.09.05-.12c.03-.03.07-.05.12-.05h.72s.09.02.12.05c.03.03.05.07.05.12v.22c.09-.12.21-.22.37-.31.16-.09.35-.14.56-.14.51-.01.86.18,1.05.57.1-.17.25-.3.43-.41.19-.11.39-.16.62-.16s.43.05.62.16.33.26.44.48c.11.21.17.49.17.83v1.88s-.02.08-.05.12c-.03.03-.07.05-.12.05h-.77s-.09-.02-.12-.05c-.03-.03-.05-.07-.05-.12v-1.83c0-.15-.02-.28-.07-.37-.04-.09-.1-.16-.18-.19s-.16-.06-.26-.06c-.08,0-.16.02-.23.06s-.14.1-.18.19c-.05.09-.07.21-.07.37v1.83s-.02.08-.05.12c-.03.03-.07.05-.12.05h-.77s-.09-.02-.12-.05c-.03-.03-.05-.07-.05-.12v-1.83c0-.15-.02-.28-.07-.37-.05-.09-.11-.16-.18-.19s-.16-.06-.24-.06-.16.02-.24.06-.14.1-.19.19c-.05.09-.07.21-.07.36v1.84s-.02.08-.05.12c-.03.03-.07.05-.12.05h-.79Z"/>
    <path class="cls-1" d="M96.25,108.47c-.37,0-.68-.06-.93-.18s-.45-.29-.58-.51c-.13-.22-.21-.49-.23-.8,0-.09,0-.19,0-.3s0-.21,0-.29c.02-.31.1-.58.24-.8.14-.22.34-.39.59-.51.25-.12.56-.18.92-.18s.67.06.92.18c.25.12.45.29.59.51s.22.49.24.8c0,.08,0,.18,0,.29s0,.21,0,.3c-.02.31-.09.57-.23.8-.13.22-.33.39-.58.51s-.57.18-.94.18ZM96.25,107.66c.2,0,.34-.06.43-.18.09-.12.14-.3.16-.53,0-.07,0-.15,0-.26s0-.2,0-.26c-.01-.23-.06-.41-.16-.53-.09-.12-.23-.18-.43-.18s-.33.06-.43.18-.15.3-.16.53c0,.07,0,.15,0,.26s0,.2,0,.26c0,.24.06.42.16.53.09.12.24.18.43.18Z"/>
    <path class="cls-1" d="M99.69,108.47c-.21,0-.4-.03-.57-.1-.17-.07-.31-.17-.44-.3s-.21-.3-.28-.49c-.07-.19-.1-.41-.11-.66,0-.09,0-.17,0-.23s0-.15,0-.23c0-.23.05-.45.11-.64.07-.19.16-.35.28-.49.12-.13.26-.24.44-.31s.36-.11.57-.11.41.04.57.11.29.17.4.28v-1.41s.02-.09.05-.12c.03-.03.07-.05.12-.05h.81s.08.02.12.05c.03.03.05.07.05.12v4.36s-.02.08-.05.12c-.03.03-.07.05-.12.05h-.75s-.09-.02-.12-.05c-.03-.03-.05-.07-.05-.12v-.21c-.11.13-.24.23-.41.32-.17.08-.37.13-.62.13ZM100.05,107.59c.15,0,.26-.03.35-.1.09-.06.15-.15.19-.25s.06-.21.07-.33c0-.09,0-.17,0-.25s0-.16,0-.24c0-.11-.03-.21-.07-.31s-.11-.17-.2-.23c-.09-.06-.2-.09-.34-.09-.14,0-.26.03-.35.09s-.15.15-.18.25c-.04.11-.06.22-.07.35-.01.14-.01.27,0,.41,0,.13.03.24.07.35.04.11.1.19.18.25s.2.09.35.09Z"/>
    <path class="cls-1" d="M103.95,108.47c-.37,0-.68-.06-.93-.18s-.45-.29-.58-.51c-.13-.22-.21-.49-.23-.8,0-.09,0-.19,0-.3s0-.21,0-.29c.02-.31.1-.58.24-.8.14-.22.34-.39.59-.51.25-.12.56-.18.92-.18s.67.06.92.18c.25.12.45.29.59.51s.22.49.24.8c0,.08,0,.18,0,.29s0,.21,0,.3c-.02.31-.09.57-.23.8-.13.22-.33.39-.58.51s-.57.18-.94.18ZM103.95,107.66c.2,0,.34-.06.43-.18.09-.12.14-.3.16-.53,0-.07,0-.15,0-.26s0-.2,0-.26c-.01-.23-.06-.41-.16-.53-.09-.12-.23-.18-.43-.18s-.33.06-.43.18-.15.3-.16.53c0,.07,0,.15,0,.26s0,.2,0,.26c0,.24.06.42.16.53.09.12.24.18.43.18Z"/>
    <path class="cls-1" d="M106.27,108.4s-.09-.02-.12-.05c-.03-.03-.05-.07-.05-.12v-3.1s.02-.08.05-.12c.03-.03.07-.05.12-.05h.76s.09.02.12.05c.03.03.05.07.05.12v.26c.11-.14.25-.24.42-.32.17-.07.35-.11.56-.11h.29s.09.02.12.05c.03.03.05.07.05.12v.68s-.02.08-.05.12c-.03.03-.07.05-.12.05h-.64c-.18,0-.32.05-.42.15-.1.1-.15.24-.15.42v1.69s-.02.08-.05.12c-.03.03-.07.05-.12.05h-.82Z"/>
    <path class="cls-1" d="M110.42,108.47c-.52,0-.93-.14-1.24-.42-.31-.28-.47-.7-.48-1.25v-.23c.01-.35.09-.65.23-.9.14-.25.34-.44.59-.57s.55-.19.89-.19c.39,0,.71.08.96.23.25.15.44.36.57.63.13.26.19.57.19.91v.16s-.02.09-.05.12c-.03.03-.07.05-.12.05h-2.11v.05c0,.13.03.24.07.35.04.11.1.19.18.25.08.06.18.09.3.09.09,0,.16-.01.22-.04.06-.03.11-.06.15-.1.04-.04.07-.07.09-.1.04-.05.07-.08.1-.09.02-.01.06-.02.12-.02h.82s.08.01.11.04.04.06.04.11c0,.08-.04.17-.11.27-.07.11-.17.21-.31.31-.13.1-.3.19-.51.25-.2.07-.44.1-.71.1ZM109.85,106.34h1.12c0-.16-.02-.28-.06-.39-.04-.1-.11-.18-.19-.24-.09-.06-.19-.09-.31-.09s-.21.03-.3.09c-.08.06-.15.14-.19.24s-.07.23-.07.37h0Z"/>
  </g>
  <polygon class="cls-2" points="71.32 105.48 72.44 105.48 73.07 105.07 71.32 105.07 71.32 105.48"/>
  <polygon class="cls-2" points="71.28 106.52 72.4 106.52 73.04 106.93 71.28 106.93 71.28 106.52"/>
  <path class="cls-3" d="M69.42,105.66c.1,0,.2-.02.28-.05s.16-.08.22-.14c.06-.06.11-.13.15-.22.03-.09.05-.19.05-.3s-.02-.21-.05-.3c-.03-.08-.08-.16-.14-.21-.06-.06-.13-.1-.22-.13s-.18-.04-.29-.04c-.08,0-.16,0-.24.02-.08.01-.16.03-.23.05v-.3c.07-.02.15-.03.23-.04.08-.01.17-.02.26-.02.17,0,.33.02.46.07.13.05.24.11.33.2s.16.18.2.3.07.25.07.39-.02.28-.07.4c-.05.12-.12.23-.21.32-.09.09-.2.16-.34.21-.14.05-.29.08-.46.08-.09,0-.17,0-.25-.02-.08-.01-.15-.03-.21-.05v-.3c.08.02.16.04.23.05.07,0,.14.01.21.01Z"/>
  <polygon class="cls-2" points="69.45 107.82 69.13 107.37 69.12 107 69.61 107.71 69.45 107.82"/>
  <g>
    <path class="cls-1" d="M116.01,107.25l.45.05c-.09.52-.41.78-.96.78-.36,0-.63-.11-.8-.33s-.26-.51-.26-.88c0-.39.09-.7.28-.91.19-.21.45-.31.8-.31.54,0,.86.27.95.8l-.45.05c-.05-.35-.21-.53-.5-.53-.38,0-.56.31-.56.92,0,.57.19.86.56.86.15,0,.26-.04.34-.13s.13-.21.16-.38Z"/>
    <path class="cls-1" d="M116.82,105.69h.66c.32,0,.58.05.77.14.19.09.34.22.44.4.1.18.15.38.15.59,0,.23-.04.43-.13.61-.09.18-.22.32-.41.43-.18.11-.44.16-.78.16h-.7v-2.34ZM117.31,106v1.72h.2c.28,0,.49-.08.62-.23.13-.16.19-.36.19-.62,0-.57-.27-.86-.81-.86h-.2Z"/>
    <path class="cls-1" d="M118.89,105.69h1.8v.33h-.66v2.01h-.49v-2.01h-.66v-.33Z"/>
    <path class="cls-1" d="M120.78,105.69h.51l.56,1.86.56-1.86h.43l-.78,2.34h-.53s-.76-2.34-.76-2.34Z"/>
    <path class="cls-1" d="M123.85,105.69h.89c.32,0,.56.06.71.17.15.12.23.28.23.5,0,.29-.15.49-.45.61l.56,1.06h-.53l-.46-.98h-.46v.98h-.49v-2.34ZM124.34,105.99v.76h.37c.17,0,.29-.04.37-.11.08-.07.12-.17.12-.29,0-.24-.16-.37-.48-.37h-.38Z"/>
    <path class="cls-1" d="M126.15,105.69h1.69v.31h-1.2v.67h.94v.31h-.94v.73h1.22v.32h-1.71v-2.34Z"/>
    <path class="cls-1" d="M128.13,105.69h.72l.59,1.68.6-1.68h.69v2.34h-.46v-1.99l-.7,1.99h-.36l-.69-2v2h-.41v-2.34Z"/>
    <path class="cls-1" d="M133.29,106.86c0,.4-.09.7-.27.91-.18.2-.44.31-.78.31s-.61-.1-.79-.31c-.18-.2-.28-.51-.28-.91s.09-.7.27-.9c.18-.2.45-.31.79-.31s.6.1.79.31c.18.2.27.5.27.9ZM132.77,106.86c0-.28-.04-.5-.12-.66-.08-.16-.22-.24-.43-.24s-.34.08-.43.24c-.08.16-.12.38-.12.65s.04.49.12.65.22.24.43.24c.2,0,.34-.08.42-.24.08-.16.12-.38.12-.66Z"/>
    <path class="cls-1" d="M133.37,105.69h1.8v.33h-.66v2.01h-.49v-2.01h-.66v-.33Z"/>
    <path class="cls-1" d="M135.34,105.69h1.69v.31h-1.2v.67h.94v.31h-.94v.73h1.22v.32h-1.71v-2.34Z"/>
    <path class="cls-1" d="M139.6,107.25l.45.05c-.09.52-.41.78-.96.78-.36,0-.63-.11-.8-.33s-.26-.51-.26-.88c0-.39.09-.7.28-.91.19-.21.45-.31.8-.31.54,0,.86.27.95.8l-.45.05c-.05-.35-.21-.53-.5-.53-.38,0-.56.31-.56.92,0,.57.19.86.56.86.15,0,.26-.04.34-.13s.13-.21.16-.38Z"/>
    <path class="cls-1" d="M142.43,106.86c0,.4-.09.7-.27.91-.18.2-.44.31-.78.31s-.61-.1-.79-.31c-.18-.2-.28-.51-.28-.91s.09-.7.27-.9c.18-.2.45-.31.79-.31s.6.1.79.31c.18.2.27.5.27.9ZM141.92,106.86c0-.28-.04-.5-.12-.66-.08-.16-.22-.24-.43-.24s-.34.08-.43.24c-.08.16-.12.38-.12.65s.04.49.12.65.22.24.43.24c.2,0,.34-.08.42-.24.08-.16.12-.38.12-.66Z"/>
    <path class="cls-1" d="M142.84,105.69h.58l.97,1.68v-1.68h.41v2.34h-.46l-1.09-1.87v1.87h-.41v-2.34Z"/>
    <path class="cls-1" d="M144.94,105.69h1.8v.33h-.66v2.01h-.49v-2.01h-.66v-.33Z"/>
    <path class="cls-1" d="M146.91,105.69h.89c.32,0,.56.06.71.17.15.12.23.28.23.5,0,.29-.15.49-.45.61l.56,1.06h-.53l-.46-.98h-.46v.98h-.49v-2.34ZM147.4,105.99v.76h.37c.17,0,.29-.04.37-.11.08-.07.12-.17.12-.29,0-.24-.16-.37-.48-.37h-.38Z"/>
    <path class="cls-1" d="M151.19,106.86c0,.4-.09.7-.27.91-.18.2-.44.31-.78.31s-.61-.1-.79-.31c-.18-.2-.28-.51-.28-.91s.09-.7.27-.9c.18-.2.45-.31.79-.31s.6.1.79.31c.18.2.27.5.27.9ZM150.68,106.86c0-.28-.04-.5-.12-.66-.08-.16-.22-.24-.43-.24s-.34.08-.43.24c-.08.16-.12.38-.12.65s.04.49.12.65.22.24.43.24c.2,0,.34-.08.42-.24.08-.16.12-.38.12-.66Z"/>
    <path class="cls-1" d="M151.61,105.69h.49v2.01h1.04v.33h-1.53v-2.34Z"/>
    <path class="cls-1" d="M153.38,105.69h.49v2.01h1.04v.33h-1.53v-2.34Z"/>
    <path class="cls-1" d="M155.14,105.69h1.69v.31h-1.2v.67h.94v.31h-.94v.73h1.22v.32h-1.71v-2.34Z"/>
    <path class="cls-1" d="M157.14,105.69h.89c.32,0,.56.06.71.17.15.12.23.28.23.5,0,.29-.15.49-.45.61l.56,1.06h-.53l-.46-.98h-.46v.98h-.49v-2.34ZM157.62,105.99v.76h.37c.17,0,.29-.04.37-.11.08-.07.12-.17.12-.29,0-.24-.16-.37-.48-.37h-.38Z"/>
  </g>
  <circle class="cls-11" cx="229.81" cy="132.44" r="6.59"/>
  <circle class="cls-11" cx="208.67" cy="132.44" r="6.59"/>
  <g>
    <path class="cls-11" d="M50.45,131.67s.05-2.93.08-3.81c.01-.93-.44-1.28-1.38-1.32-.46,0-4.54-.11-5.09-.13s-.87-.03-1.1.19-3.37,3.23-3.73,3.57c-.59.62-.68.75-.68,1.15h0c-.02.39.06.53.62,1.18.35.37,3.33,3.53,3.54,3.76s.54.24,1.09.25,4.63.12,5.09.14c.94,0,1.41-.32,1.45-1.24.01-.88.12-3.81.12-3.81"/>
    <path class="cls-11" d="M37.07,117.91s-2.93-.05-3.81-.08c-.93-.01-1.28.44-1.32,1.38,0,.46-.11,4.54-.13,5.09s-.03.87.19,1.1,3.23,3.37,3.57,3.73c.62.59.75.68,1.15.68h-.01c.4.02.54-.06,1.19-.62.37-.35,3.53-3.33,3.76-3.54s.24-.54.25-1.09.12-4.63.14-5.09c0-.94-.32-1.41-1.24-1.45-.88-.01-3.81-.12-3.81-.12"/>
    <path class="cls-11" d="M22.97,130.88s-.05,2.93-.08,3.81c-.01.93.44,1.28,1.38,1.32.46,0,4.54.11,5.09.13s.87.03,1.1-.19,3.37-3.23,3.73-3.57c.59-.62.68-.75.68-1.15h0c.02-.39-.06-.53-.62-1.18-.35-.37-3.33-3.53-3.54-3.76s-.54-.24-1.09-.25-4.63-.12-5.09-.14c-.94,0-1.41.32-1.45,1.24-.01.88-.12,3.81-.12,3.81"/>
    <path class="cls-11" d="M36.3,144.36s2.93.05,3.81.08c.93.01,1.28-.44,1.32-1.38,0-.46.11-4.54.13-5.09s.03-.87-.19-1.1-3.23-3.37-3.57-3.73c-.62-.59-.75-.68-1.15-.68h.01c-.4-.02-.54.06-1.19.62-.37.35-3.53,3.33-3.76,3.54s-.24.54-.25,1.09-.12,4.63-.14,5.09c0,.94.32,1.41,1.24,1.45.88.01,3.81.12,3.81.12"/>
  </g>
  <rect class="cls-10" x="82.32" y="118.62" width="9.16" height="4.58" rx="1.58" ry="1.58"/>
  <rect class="cls-10" x="97.86" y="118.62" width="9.16" height="4.58" rx="1.58" ry="1.58"/>
  <rect class="cls-10" x="113.35" y="118.62" width="9.16" height="4.58" rx="1.58" ry="1.58"/>
  <rect class="cls-10" x="128.66" y="118.62" width="9.16" height="4.58" rx="1.58" ry="1.58"/>
  <rect class="cls-10" x="128.66" y="131.75" width="9.16" height="4.58" rx="1.58" ry="1.58"/>
  <rect class="cls-10" x="164.49" y="131.75" width="9.16" height="4.58" rx="1.58" ry="1.58"/>
  <rect class="cls-10" x="179.86" y="131.75" width="9.16" height="4.58" rx="1.58" ry="1.58"/>
  <rect class="cls-10" x="179.86" y="144.87" width="9.16" height="4.58" rx="1.58" ry="1.58"/>
  <rect class="cls-13" x="159.62" y="118.62" width="9.16" height="4.58" rx="1.58" ry="1.58"/>
  <rect class="cls-10" x="144.26" y="118.62" width="9.16" height="4.58" rx="1.58" ry="1.58"/>
  <rect class="cls-10" x="66.9" y="118.62" width="9.16" height="4.58" rx="1.58" ry="1.58"/>
  <rect class="cls-10" x="66.9" y="131.75" width="9.16" height="4.58" rx="1.58" ry="1.58"/>
  <rect class="cls-10" x="66.9" y="144.87" width="9.16" height="4.58" rx="1.58" ry="1.58"/>
  <rect class="cls-10" x="82.09" y="144.87" width="9.16" height="4.58" rx="1.58" ry="1.58"/>
  <rect class="cls-10" x="82.09" y="131.75" width="9.16" height="4.58" rx="1.58" ry="1.58"/>
  <rect class="cls-10" x="97.86" y="144.87" width="9.16" height="4.58" rx="1.58" ry="1.58"/>
  <rect class="cls-10" x="97.86" y="131.75" width="9.16" height="4.58" rx="1.58" ry="1.58"/>
  <rect class="cls-10" x="113.06" y="144.87" width="9.16" height="4.58" rx="1.58" ry="1.58"/>
  <rect class="cls-10" x="113.06" y="131.75" width="9.16" height="4.58" rx="1.58" ry="1.58"/>
  <rect class="cls-10" x="144.14" y="144.87" width="14.15" height="4.58" rx="1.58" ry="1.58"/>
  <rect class="cls-10" x="144.14" y="131.75" width="14.15" height="4.58" rx="1.58" ry="1.58"/>
  <rect class="cls-12" x="178.97" y="118.43" width="9.85" height="5.73"/>
  <polygon class="cls-9" points="180.89 118.43 180.29 119.15 180.29 123.44 184.44 123.44 185.18 122.71 180.89 122.71 180.89 118.43"/>
  <rect class="cls-10" x="180.89" y="118.43" width="4.28" height="4.28"/>
  <g>
    <line class="cls-6" x1="181.68" y1="118.5" x2="181.68" y2="122.65"/>
    <line class="cls-6" x1="182.6" y1="118.5" x2="182.6" y2="122.65"/>
    <line class="cls-6" x1="183.52" y1="118.5" x2="183.52" y2="122.65"/>
    <line class="cls-6" x1="184.44" y1="118.5" x2="184.44" y2="122.65"/>
  </g>
</svg>