<?xml version="1.0" encoding="UTF-8"?>
<svg id="Layer_1" data-name="Layer 1" xmlns="http://www.w3.org/2000/svg" xmlns:xlink="http://www.w3.org/1999/xlink" viewBox="0 0 1000 1000">
  <defs>
    <style>
      .cls-1 {
        fill: #939393;
      }

      .cls-2 {
        fill: #f37365;
      }

      .cls-2, .cls-3, .cls-4, .cls-5, .cls-6, .cls-7 {
        stroke-miterlimit: 10;
      }

      .cls-2, .cls-4, .cls-6, .cls-7 {
        stroke: #9e9d9e;
        stroke-width: 2.07px;
      }

      .cls-8 {
        fill: #7b7b7b;
      }

      .cls-9 {
        fill: #ba6551;
      }

      .cls-10 {
        fill: #318dc1;
      }

      .cls-3 {
        fill: #ababab;
        stroke: #9b9a9a;
      }

      .cls-3, .cls-5 {
        stroke-width: 1.03px;
      }

      .cls-4 {
        fill: #f6e467;
      }

      .cls-5 {
        fill: #b8bcc5;
        stroke: #ababab;
      }

      .cls-11 {
        fill: #bcbcbc;
      }

      .cls-12 {
        fill: #e0e0e0;
      }

      .cls-13 {
        fill: #cfcfce;
      }

      .cls-14 {
        fill: #c4c4c4;
      }

      .cls-15 {
        fill: #e9eceb;
      }

      .cls-16 {
        fill: #ddc74c;
      }

      .cls-17 {
        fill: #eaeaea;
      }

      .cls-18 {
        fill: #239e69;
      }

      .cls-6 {
        fill: #52a0d5;
      }

      .cls-19 {
        fill: #b5b5b6;
      }

      .cls-20 {
        fill: #999;
      }

      .cls-21 {
        fill: #8e8e8e;
      }

      .cls-7 {
        fill: #3db484;
      }

      .cls-22 {
        fill: #de5d54;
      }

      .cls-23 {
        fill: #c4c8c6;
      }

      .cls-24 {
        fill: #dcdbdb;
      }

      .cls-25 {
        fill: #3f6d67;
      }

      .cls-26 {
        fill: url(#linear-gradient);
      }

      .cls-27 {
        fill: #878787;
      }
    </style>
    <linearGradient id="linear-gradient" x1="500.66" y1="766.71" x2="500.66" y2="695.96" gradientUnits="userSpaceOnUse">
      <stop offset="0" stop-color="#e0e0e0"/>
      <stop offset=".28" stop-color="#e3e4e4"/>
      <stop offset="1" stop-color="#e9eceb"/>
    </linearGradient>
  </defs>
  <path class="cls-14" d="M183.07,980s13.5-1.69,20.57-8.06c11.55-9.9,17.45-26.65,25.94-59.66,8.49-33.01,12.03-50.46,18.39-58.95s21.13-28.53,56.83-30.66-73.1-35.14-73.1-35.14l-67.68,133.23,19.04,59.23Z"/>
  <path class="cls-14" d="M817.17,979.61s-13.5-1.69-20.57-8.06c-11.55-9.9-17.45-26.65-25.94-59.66-8.49-33.01-12.03-50.46-18.39-58.95s-21.13-28.53-56.83-30.66,73.1-35.14,73.1-35.14l67.68,133.23-19.04,59.23Z"/>
  <path class="cls-12" d="M724.66,590.27l-168.32-14.93c-.79-6.26-1.3-9.83-1.3-9.83l-54.79,4.86-54.79-4.86s-.52,3.57-1.3,9.83l-168.32,14.93-76.09,282.08h21.81s19.7-31.48,47.36-38.4c23.87-5.97,131.48-24.81,210.04-26.83,7.38-.21,14.51-.25,21.29-.11l21.29.11c78.56,2.02,186.17,20.85,210.03,26.83,27.67,6.91,47.37,38.4,47.37,38.4h21.81l-76.09-282.08Z"/>
  <path class="cls-15" d="M953.61,439.2c-9.44,165.43-45.59,340.79-60.69,402.41-13.1,53.52-54.18,118.17-64.77,134.27-1.55,2.36-4.18,3.77-7,3.77h-4.22c-3.77,0-7.07-2.52-8.07-6.15-63.6-230.61-110.65-284.21-119.99-301.67-.88-1.65-3.05-3.79-6.28-6.31-1.57-1.24-3.4-2.58-5.46-3.98-38.62-26.62-155.86-81.91-155.86-81.91l-21.08,68.89v1.51l-.23-.76-.12.39v-.8l-21.08-68.88s-117.77,55.54-156.12,82.08c-2.06,1.42-3.88,2.75-5.45,4.01-3.08,2.43-5.16,4.5-6.02,6.11-9.36,17.46-56.39,71.06-119.99,301.67-1,3.63-4.31,6.15-8.07,6.15h-4.22c-2.83,0-5.44-1.41-7-3.77-10.59-16.09-51.67-80.75-64.78-134.27-15.09-61.62-51.24-236.98-60.68-402.4-9.43-165.43,33.96-216.37,33.96-216.37,0,0,61.39-30.71,121.51-45.16,2.89-.69,5.76-1.35,8.64-1.96,26.58-5.67,52.31-7.69,71.7-1.94,63.39,18.82,209.71,15.31,217.61,15.1v-.36s152.81,4.24,217.97-15.09c18.99-5.64,44.07-3.82,70.07,1.59,2.87.59,5.74,1.22,8.62,1.9,60.64,14.26,123.17,45.55,123.17,45.55,0,0,43.39,50.93,33.96,216.36Z"/>
  <g>
    <path class="cls-15" d="M844.76,365.36c0,125.75-67.2,235.78-167.64,296.17-51.91,31.21-112.71,49.17-177.7,49.17s-125.09-17.75-176.8-48.63c-100.95-60.27-168.55-170.59-168.55-296.71,0-69.88,20.76-134.92,56.45-189.27,33.22-50.61,79.37-91.96,133.76-119.34,1.03-.52,2.07-1.03,3.1-1.54,45.88-22.54,97.48-35.2,152.05-35.2s107.31,12.94,153.57,35.94c1.03.52,2.07,1.03,3.1,1.56,53.48,27.26,98.9,68.07,131.77,117.88,35.96,54.5,56.9,119.79,56.9,189.97Z"/>
    <path class="cls-14" d="M797.68,179.18c-.39-.63-.79-1.25-1.2-1.88-2.88-.68-5.75-1.31-8.62-1.9,35.96,54.5,56.9,119.79,56.9,189.97,0,125.75-67.2,235.78-167.64,296.17-51.91,31.21-112.71,49.17-177.7,49.17s-125.09-17.75-176.8-48.63c-100.95-60.27-168.55-170.59-168.55-296.71,0-69.88,20.76-134.92,56.45-189.27-2.88.61-5.75,1.26-8.64,1.96-.09.13-.18.27-.26.4-35.17,55.91-53.76,120.54-53.76,186.91,0,47.45,9.29,93.5,27.63,136.84,17.71,41.86,43.05,79.46,75.33,111.74,20.14,20.13,42.33,37.57,66.34,52.13,14.5,8.8,29.65,16.54,45.41,23.2,43.34,18.34,89.39,27.63,136.84,27.63s93.5-9.29,136.84-27.63c16.09-6.8,31.56-14.74,46.32-23.76,23.66-14.45,45.55-31.7,65.42-51.57,32.28-32.28,57.64-69.88,75.33-111.74,18.34-43.34,27.63-89.39,27.63-136.84,0-66.06-18.42-130.44-53.29-186.18Z"/>
  </g>
  <g>
    <path class="cls-13" d="M652.98,55.94v304.34c0,84.39-68.41,152.81-152.8,152.81s-152.81-68.42-152.81-152.81V55.2c45.88-22.54,97.48-35.2,152.05-35.2s107.31,12.94,153.57,35.94Z"/>
    <path class="cls-8" d="M652.98,55.94v304.34c0,84.39-68.41,152.81-152.8,152.81s-152.81-68.42-152.81-152.81V55.2c-1.03.51-2.07,1.02-3.1,1.54v303.54c0,41.65,16.22,80.8,45.66,110.24s68.61,45.67,110.25,45.67,80.8-16.22,110.24-45.67c29.44-29.44,45.66-68.6,45.66-110.24V57.51c-1.03-.53-2.07-1.05-3.1-1.56Z"/>
  </g>
  <path class="cls-5" d="M553.92,93.14h-17.18s0-7.63,0-11.73c0-20.71-16.79-37.49-37.49-37.49s-37.49,16.79-37.49,37.49c0,4.1-.09,11.73-.09,11.73h-16.33c-4.53,0-8.19,3.67-8.19,8.19v17.45c0,4.53,3.67,8.19,8.19,8.19h108.59c4.53,0,8.19-3.67,8.19-8.19v-17.45c0-4.53-3.67-8.19-8.19-8.19Z"/>
  <g>
    <path class="cls-27" d="M489.8,118.9c-.14.05-.43.32-.56.36-.39.13-.68.3-.94.34-.35.05-.68.08-.99.08-.51,0-.98-.12-1.3-.35-.33-.23-.33-.11-.58-.45-.25-.34-.61-.85-.63-1.31-.01-.3-.02-.58.07-.86.07-.22.15-.42.34-.64.19-.22.43-.5.72-.69.29-.19.6-.24,1.11-.42.24-.09.63-.16,1.22-.23.28-.04.96-.06,1.15-.13.2-.07.42-.09.58-.17.16-.08.34-.14.47-.23.13-.09.25-.16.5-.39v2.5s-.08,1.05-.44,1.67-.72.92-.72.92h0ZM484.05,110.46c.55-.25.97-.43,1.33-.56.37-.12.81-.23,1.32-.32.51-.09.92-.15,1.41-.15.53,0,1.19.19,1.58.31.39.12.69.53.94.83.25.3.27.43.29.84,0,.17.03.25-.02.42-.05.17-.12.23-.23.39-.11.16-.23.31-.36.42-.13.11-.29.21-.46.3-.18.09-.38.17-.61.26-.23.09-.51.07-.84.15-1.08.15-1.92.21-2.38.38-.46.17-.78.24-1.12.41-.34.17-.53.32-.84.58-.31.26-.43.46-.59.72-.16.26-.29.56-.38.88-.09.32-.2.71-.19,1.1.03.65.09,1.16.4,1.72.31.55.79,1.03,1.39,1.31.59.27,1.35.59,2.39.59.31,0,.64-.01.98-.04.35-.03.67-.15,1.22-.27.25-.16.66-.4,1.05-.73.4-.33.59-.55.59-.55v1.31c.45-.02.81.02,1.06.02.26,0,.79-.04,1.2-.02-.19-.97-.28-1.03-.28-1.74.01-1.17-.07-3.69-.05-5.06.02-1.38,0-.99-.03-1.58-.02-.47-.22-1.27-.37-1.68-.14-.41-.41-.71-.7-1.14-.28-.41-1.03-.94-1.63-1.08-.6-.14-1.03-.29-1.71-.29-.63,0-1.62.06-2.28.15-.66.09-1.14.22-2.04.48-.04.73,0,1.27-.05,1.65M532.86,118.74c-.14.05-.43.32-.56.36-.39.13-.68.3-.94.34-.35.05-.68.08-1,.08-.51,0-.98-.12-1.3-.35-.33-.23-.33-.11-.59-.45-.25-.34-.61-.85-.63-1.31-.01-.3-.02-.59.07-.86.07-.22.15-.42.34-.64.19-.22.43-.5.72-.69.29-.19.6-.24,1.11-.43.24-.09.63-.16,1.22-.23.28-.03.96-.06,1.15-.13.2-.07.4-.11.57-.19.16-.08.36-.12.49-.21.13-.09.25-.16.5-.39v2.5s-.08,1.05-.44,1.67c-.36.63-.73.92-.73.92h0ZM527.1,110.29c.55-.25.97-.43,1.34-.56.37-.12.81-.23,1.33-.32.52-.09.92-.15,1.41-.15.53,0,1.19.19,1.58.31.39.12.69.53.94.83.25.3.27.53.29.95,0,.17.03.25-.02.42-.05.17-.12.12-.23.29-.11.16-.23.31-.36.42-.13.12-.29.22-.46.3-.2.1-.4.18-.61.26-.23.09-.51.07-.84.15-1.08.15-1.92.21-2.38.38-.46.16-.78.24-1.13.41-.34.17-.53.31-.84.58-.31.26-.43.46-.59.73-.16.26-.29.55-.38.88-.09.32-.2.71-.19,1.1.02.65.09,1.16.4,1.72.31.56.79,1.03,1.39,1.3.59.27,1.35.59,2.39.59.31,0,.64-.01.98-.04.35-.03.67-.15,1.22-.27.25-.16.66-.4,1.06-.73.4-.33.6-.55.6-.55v1.31c.45-.02.81.02,1.06.02.26,0,.79-.04,1.2-.02-.19-.97-.28-1.03-.28-1.75.01-1.17-.08-3.69-.05-5.06.02-1.38,0-1-.03-1.58-.02-.47-.22-1.27-.37-1.68-.15-.41-.42-.71-.7-1.14-.28-.41-1.03-.94-1.63-1.08-.6-.14-1.03-.29-1.71-.29-.64,0-1.62.05-2.29.15-.67.1-1.14.22-2.04.48-.04.73,0,1.27-.05,1.65M495.06,120.75l.27-.88c0-.39.02-1.65.02-2.49l-.13-7.1c-.02-.64-.36-1.39-.37-1.72.35,0,1.14-.12,1.51-.25.3-.11.63-.11.93-.12v1.65c.23-.47.66-.53.86-.81.2-.28.41-.27.74-.5.33-.24.53-.25.98-.31.54-.08.88-.1,1.35-.1.32,0,.65.04.97.13.32.09.62.2.89.36.27.15.51.33.71.52.2.19.41.3.59.64.06.11.54-.54,1.22-.93.68-.39,1.47-.69,2.32-.69.54,0,1.76.07,2.28.27.52.19,1.25.47,1.57.84.32.37.41.53.69.83.35.37.46,1.31.48,1.71.02.41.06,1.03.06,1.85v5.84c0,.56.17.63.27,1.27-.4-.02-.93-.03-1.16-.03-.24,0-.81,0-1.29.03.31-1,.25-.66.28-1.27l.02-5.3c0-.76,0-1.2-.02-1.76-.02-.5-.16-1.05-.26-1.32-.1-.28-.6-.79-.81-1.02-.21-.22-.52-.27-.82-.38s-.78-.14-1.16-.14c-.3,0-.68.05-.94.13-.24.08-.47.13-.69.28-.24.16-.46.25-.65.49-.19.23-.34.49-.47.78-.13.3-.14.74-.16,1.22-.03.52.03,1.19,0,1.93-.02.79-.02,3.91,0,5.2l.36,1.15c-.44-.02-1.09-.03-1.31-.03-.2,0-.76,0-1.24.03.04-1.05.16-.09.17-1.2l.02-4.79c0-.95-.01-1.76-.04-2.43-.02-.43-.07-.59-.15-.89-.09-.3-.24-.69-.46-.94-.22-.25-.69-.66-.99-.79-.3-.13-.72-.23-1.08-.23-.39,0-.64.04-.97.19-.33.15-.63.22-.91.51-.28.29-.5.32-.68.74-.18.42-.31.33-.39,1.01-.08.68-.12,3.16-.12,4.85,0,1,.01,1.91.03,2.73.01.56.24.76.26,1.24-.41-.01-.81-.02-1.22-.03-.2,0-.87,0-1.36.03M525.01,118.48c0,.14-.08.44-.13.81-.05.37-.15.68-.18,1.04-.54.14-1.13.3-1.63.35-.5.05-1.88.14-2.26.14-.81,0-1.76-.17-2.45-.41-.7-.25-1.57-.71-2.1-1.28-.53-.56-1.14-1.12-1.41-1.96-.27-.83-.47-1.64-.5-2.56-.05-1.25.15-1.67.5-2.78.35-1.12,1.23-1.93,2.05-2.56.82-.64,2.71-1.17,4.16-1.17,1.07,0,2.32.18,3.35.49.07.73.1,1.12.15,1.59-.72-.25-1.38-.55-1.84-.65-.46-.09-1.03-.17-1.41-.17-.66,0-2.07.29-2.58.56-.51.27-.94.66-1.29,1.16-.35.5-.63,1.2-.77,1.88s-.19.74-.16,1.45c.04.96.2,1.8.49,2.52.29.72.77,1.42,1.44,1.81.67.39,1.46.78,2.28.78s2.47-.08,4.29-1.05M537.79,120.28l-.17-.84c0-.1-.23-.66-.32-1.2,1.41.78,2.9,1.32,3.97,1.32.56,0,1.12-.16,1.5-.31.38-.15.75-.42.94-.71.18-.29.38-.57.45-.87.04-.17.09-.39.05-.55-.05-.18-.13-.66-.25-.82-.11-.16-.55-.53-.77-.72-.22-.19-.8-.48-1.56-.79-.77-.32-1.75-.63-2.11-.93-.36-.3-1-.65-1.26-.97-.26-.32-.45-.64-.58-.96-.13-.32-.03-.81-.05-1.14-.02-.53.31-1.08.62-1.57.31-.49.85-.77,1.47-1.02.62-.24,1.35-.37,2.2-.37.95,0,1.85.19,3,.41.06.64-.08,1.09,0,1.63-.82-.55-1.74-.82-2.63-.82-.49,0-.98.07-1.39.2-.41.13-.86.53-1.05.79-.18.25-.28.5-.27.8,0,.2.07.53.14.71.07.18.56.69.81.8.34.15.21.13.53.2.36.08,1.24.53,2.08.93.87.41,1.67.93,1.94,1.21.28.27.54.65.8,1.23.14.32.22.71.22.98,0,.47-.13.53-.11.83.02.58-.12.79-.44,1.28-.32.5-.92.97-1.58,1.24-.66.27-1.37.5-2.21.5-.35,0-1.18.04-1.66,0-.48-.04-.89-.21-1.22-.27-.34-.06-.55-.08-1.05-.2"/>
    <path class="cls-27" d="M553.19,119.24c-.07.41-.18.64-.25,1.32-.51.14-.73.18-1.03.21-.3.04-.58-.05-.85-.05-.67,0-1.21-.1-1.63-.29-.42-.19-.74-.5-.98-.92-.23-.42-.4-1.46-.43-2.18,0-.09,0-.26,0-.5,0-.24-.02-.47,0-1.88l-.05-5.48h-1.52c.02-.36.02-.46.01-1.13l1.55-.05c.01-.32-.03-1.34-.03-2.14,0-.39-.19-.74-.35-.94.7-.16,1.77-.48,2.26-.62,0,1.26.08,3.05.1,3.7l3.15.05c-.02.54.04.73.05,1.22l-.87-.1h-2.32l-.04,6.94-.02.58c.02.62.1,1.4.24,1.71.14.31.33.43.58.56.25.13.54.17.81.17.19,0,.47,0,.69,0s.37-.02.92-.17"/>
    <path class="cls-27" d="M481.35,118.53c-.07.46-.22,1.06-.29,1.78-.72.2-1.9.66-2.43.73-.53.07-1.06.09-1.58.09-.94,0-1.88-.23-2.64-.49-.76-.25-1.52-.78-2.08-1.41-.56-.63-1.11-1.32-1.38-2.13-.26-.81-.33-1.64-.37-2.54-.05-1.26.15-1.73.54-2.82.39-1.08,1.2-1.86,2.04-2.48.84-.62,1.92-.93,3.25-.93.69,0,1.47.05,2.1.28.64.23,1.17.46,1.6.92.43.46.8.92,1.05,1.59.25.68.31.69.45,1.47.06.37.11.94.08,1.23l-8.98.05c-.01.47-.04.69-.03.94.03.89.19,1.76.55,2.51.36.75.85,1.23,1.51,1.62.66.38,1.55.72,2.39.72.97,0,2.75-.41,4.21-1.14h0ZM473.05,112.55h6.61c-.03-.53,0-.36-.07-.65-.06-.29-.14-.53-.3-.85-.15-.32-.43-.54-.68-.77-.25-.23-.55-.41-.9-.53-.35-.12-.87-.19-1.26-.19-.43,0-.81.13-1.19.27-.38.14-.72.32-1,.56-.29.23-.53.51-.72.83-.19.32-.34.62-.43.92-.04.12-.04.13-.04.13,0,0,.02-.01-.02.29M462.86,121.06c0-.24.24-.58.25-.81.06-3.97-.03-7.04-.12-9.6l-.04-1.08-.38-.92c.39-.04.9-.09,1.15-.14.27-.06.94-.15,1.3-.16v2.27c.27-.52.28-.49.49-.76.2-.27.53-.57.8-.74.26-.17.55-.42.89-.52.34-.1.65-.24,1.02-.26.29-.01.57-.05,1.33.03.76.08,1.16.25,1.33.3.01.3-.56,1.7-.56,1.7,0,0-.54-.05-1.04-.25-.47-.14-.79-.14-1.16-.14-.44,0-.96.1-1.31.27-.35.16-.68.36-.94.7-.27.34-.44.68-.61,1.15-.14.38-.09.06-.14.66-.05.59,0,6.27.04,7.55l.23.74c-.41-.02-1,0-1.25,0-.23,0-.79,0-1.26.03"/>
    <path class="cls-27" d="M444.25,121.14l.46-1.21-.04-15.01c0-.44-.21-.89-.43-1.64,1.03.02,2.76-.08,3.49-.08.46,0,1.13.07,2.09.05.95-.02,1.8,0,2.18.03,1.36.13,1.7.2,2.64.43.71.17,2.05.88,2.65,1.31.6.43,1.2.91,1.68,1.6.48.69.72.91,1.05,1.71.44,1.08.69,2.25.73,3.33.06,1.48-.1,2.62-.53,3.99-.43,1.36-1.37,2.38-2.29,3.29-.91.91-1.91,1.46-3.08,1.75-1.17.29-2.48.57-3.94.57l-3.41-.03-3.25-.08ZM447.37,119.71c1,.03,1.84.02,2.7.02.72,0,1.56-.04,2.3-.11.74-.08,1.27-.34,1.85-.55s1.18-.55,1.73-1.08c.55-.53.99-1.13,1.33-1.8.34-.67.58-1.42.72-2.25.15-.83.2-1.68.17-2.53-.04-.96-.29-1.67-.56-2.49-.26-.82-.75-1.84-1.43-2.4-.74-.61-1.28-1.05-2.04-1.27-.76-.22-1.84-.55-3.08-.55-.75,0-1.75.05-2.25.11-.51.06-.97.12-1.61.14l.17,14.76Z"/>
  </g>
  <path class="cls-9" d="M500.24,82.59c0-1.87-.9-1.67-1.49-1.76-.67-.1-2.18.19-3.61-.1-1.65-.33-2.53-2.66-2.25-3.78.83-3.22,2.92-3.67,4.39-3.58,1.11.07,3.21.14,5.75,2.4,1.17,1.04,1.91,3.73,1.93,5.25.03,1.92-.04,4.07-1.16,5.28-1.82,1.96-6.65,3.67-9.32,3.54-10.58-1.09-10.25-11.1-10.25-11.1,0,0-.83-4.26,2.75-8.86.29-.38.78-1.24,1.14-1.62.4-.42.66-.52,1.11-.88.44-.35.9-.57,1.37-.86,1.15-.7,2.4-1.33,3.63-1.72,1.82-.57,3.62-.73,5.09-.68,4.4.15,9.14,2.55,11.55,6.22.35.53.65.87.96,1.38.31.51.76,1.39,1.16,2.46.57,1.56.4.92.98,3.37.4,1.7.6,2.77.71,3.92.05.51.1,1.05.12,1.64.05,1.93.3,2.39-.09,3.87-.67,2.52-2.28,5.03-3.58,6.31-2.31,2.28-4.47,3-5.73,3.65-1.25.65-1.78.75-3.42,1.33-1.64.58-2.52.68-5.4.66-2.88-.02-5.19-.18-5.9-.37-5.06-1.38-6.88-2.31-9.11-4.08-5.69-4.5-6.83-13.28-6.83-13.28,0,0-.63-4.47.38-9.11.54-2.49,3.01-7,4.46-8.82,1.22-1.54,4.02-3.79,5.69-4.84,1.67-1.05,4.08-2.44,6.83-3.32,1.34-.43,2.36-.64,5.45-.78,3.51-.15,8.74.78,11.82,1.72,3.22.99,6.17,3.09,7.69,4.74,1.52,1.65,4.94,6.65,5.51,7.68.57,1.03,2.22,6.5,2.37,7.21.15.71.41,3.2,2.85,3.03,2.23-.15,1.58-2.76,1.52-3.23-.06-.46-.87-4.71-1.23-5.86-.36-1.15-2.08-4.25-2.47-4.87-.22-.36-1.77-2.91-3.35-4.93-1.15-1.47-2.28-2.97-3.54-3.73-2.35-1.54-5.38-2.91-5.38-2.91,0,0-5.19-1.77-7.91-2.09-2.32-.27-4.83-.79-8.98-.51-4.15.28-6.46,1.41-7.97,2.02-1.51.62-4.96,2.13-7.53,4.24-2.57,2.11-1.78,1.04-3.16,2.59-1.39,1.55-1.77,1.96-2.72,3.29-.95,1.33-2.93,5.28-3.67,7.9-.31,1.1-.79,2.7-1.03,4.3-.21,1.35-.22,2.69-.1,3.73.26,2.31.13,2.32.13,2.32,0,0,1.09,4.47,1.66,6.21.58,1.75,1.37,4.32,4.98,8.3,3.62,3.98,6.95,5.04,8.21,5.55,1.26.51,5.5,1.99,11.1,2.09,6.47.11,8.16-1.33,9.35-1.8,1.19-.47,5.18-2.17,8.35-5.17,3.17-3,4.18-6.19,4.27-6.45.9-2.51,1.19-6.5.38-10.43-.54-2.63-.98-4.96-1.51-6.6-.89-2.78-2.05-4.37-2.86-5.6-.78-1.19-3.1-2.95-4.56-3.83-.71-.43-1.35-.94-2.25-1.32-.95-.41-2.17-.69-3.63-1.05-1.33-.33-3.09-.61-4.6-.72-1.31-.1-2.43-.03-2.9-.03-.66,0-2.87.37-5.9,1.97-1.65.87-3.44,1.91-5.44,3.91-.61.61-1.15,1.43-1.62,2.07-4.44,6.08-2.8,12.82-2.8,12.82,0,0,.76,9.15,8.83,11.76,2.84.92,5.3.96,7.41.7,3.5-.43,6.04-1.88,7.78-2.79,1.79-.94,3.08-2.43,3.79-4.03.67-1.5.82-3.1.76-4.41-.03-.77-.03-1.75-.21-2.79-.45-2.63-1.41-5.23-3.7-7.2-.08-.05-.56-.38-.68-.47-.4-.27-.78-.44-1.15-.64-1.96-1.05-3.85-1.4-6.52-1.55-.98.04-2.43.24-3.22.64-3.14,1.57-4.86,4.35-4.73,8.02.13,3.48,3.34,5.31,3.89,5.79.08.07,7.21,1.9,7.38-1.37"/>
  <circle class="cls-24" cx="150.63" cy="336.04" r="101.87"/>
  <circle class="cls-3" cx="150.63" cy="336.04" r="68.85"/>
  <circle class="cls-14" cx="150.63" cy="336.04" r="56.24"/>
  <circle class="cls-7" cx="820.28" cy="324.47" r="37.38"/>
  <circle class="cls-2" cx="820.28" cy="488.6" r="37.38"/>
  <circle class="cls-4" cx="738.22" cy="406.54" r="37.38"/>
  <circle class="cls-6" cx="902.34" cy="406.54" r="37.38"/>
  <path class="cls-20" d="M601.74,406.57c-70,18.87-138.45,19.4-205.25.33-12.52-3.57-21.19-14.96-21.19-27.98v-167.71c0-13.05,8.72-24.44,21.28-28,68.58-19.43,137.09-19.43,205.54,0,12.55,3.56,21.26,14.95,21.26,27.99v167.28c0,13.19-8.9,24.66-21.63,28.09Z"/>
  <path class="cls-25" d="M581.01,395.93c-55.09,5.53-109.52,5.72-163.23.14-12.73-1.32-22.44-11.98-22.44-24.78v-136.22c0-13.05,10.07-23.91,23.08-24.84,53.23-3.82,107.17-3.7,161.75.09,13.04.9,23.16,11.77,23.16,24.85v135.99c0,12.75-9.63,23.5-22.32,24.77Z"/>
  <polygon class="cls-26" points="468.78 695.96 532.15 695.96 563.15 766.71 438.17 766.71 468.78 695.96"/>
  <g>
    <path class="cls-23" d="M499.11,758.65c-12.24,0-24.66-1.63-36.89-4.83-1.51-.4-2.81-1.41-3.55-2.79-.74-1.37-.89-3.01-.4-4.49,7.61-22.85,19.62-44.19,36.74-65.23,1.09-1.33,2.7-2.1,4.42-2.1,1.54,0,2.98.61,4.05,1.71,20.72,21.34,32.91,43,37.28,66.21.54,2.9-1.27,5.77-4.14,6.53-12.44,3.31-25.06,4.99-37.5,4.99h0Z"/>
    <path class="cls-1" d="M499.42,680.32c1.18,0,2.36.45,3.25,1.37,19.41,19.99,32.48,41.67,36.98,65.64.44,2.35-1.02,4.63-3.33,5.25-12.41,3.3-24.81,4.96-37.22,4.96s-24.41-1.6-36.61-4.8c-2.55-.67-4-3.35-3.17-5.85,7.88-23.67,20.46-45.11,36.55-64.88.91-1.12,2.23-1.69,3.55-1.69M499.42,678.09c-2.06,0-3.98.92-5.28,2.51-17.2,21.15-29.28,42.61-36.93,65.58-.59,1.77-.42,3.73.47,5.37.89,1.64,2.44,2.86,4.25,3.33,12.33,3.23,24.84,4.87,37.18,4.87s25.26-1.69,37.79-5.03c3.43-.91,5.6-4.34,4.95-7.81-4.41-23.44-16.7-45.28-37.57-66.78-1.28-1.32-3-2.05-4.85-2.05h0Z"/>
  </g>
  <g>
    <circle class="cls-11" cx="150.63" cy="352.27" r="1.87"/>
    <circle class="cls-11" cx="150.63" cy="319.8" r="1.87"/>
    <circle class="cls-11" cx="150.63" cy="308.98" r="1.87"/>
    <circle class="cls-11" cx="150.63" cy="298.16" r="1.87"/>
    <circle class="cls-11" cx="150.63" cy="287.34" r="1.87"/>
    <circle class="cls-11" cx="150.63" cy="384.73" r="1.87"/>
    <circle class="cls-11" cx="150.63" cy="373.91" r="1.87"/>
    <circle class="cls-11" cx="150.63" cy="363.09" r="1.87"/>
    <circle class="cls-11" cx="150.63" cy="352.27" r="1.87"/>
    <circle class="cls-11" cx="199.32" cy="336.04" r="1.87"/>
    <circle class="cls-11" cx="188.5" cy="336.04" r="1.87"/>
    <circle class="cls-11" cx="177.68" cy="336.04" r="1.87"/>
    <circle class="cls-11" cx="166.86" cy="336.04" r="1.87"/>
    <circle class="cls-11" cx="134.4" cy="336.04" r="1.87"/>
    <circle class="cls-11" cx="123.58" cy="336.04" r="1.87"/>
    <circle class="cls-11" cx="112.75" cy="336.04" r="1.87"/>
    <circle class="cls-11" cx="101.93" cy="336.04" r="1.87"/>
    <circle class="cls-11" cx="163.06" cy="325.6" r="1.87"/>
    <circle class="cls-11" cx="171.35" cy="318.65" r="1.87"/>
    <circle class="cls-11" cx="179.64" cy="311.69" r="1.87"/>
    <circle class="cls-11" cx="187.93" cy="304.73" r="1.87"/>
    <circle class="cls-11" cx="113.33" cy="367.34" r="1.87"/>
    <circle class="cls-11" cx="121.62" cy="360.38" r="1.87"/>
    <circle class="cls-11" cx="129.91" cy="353.43" r="1.87"/>
    <circle class="cls-11" cx="138.19" cy="346.47" r="1.87"/>
    <circle class="cls-11" cx="187.93" cy="367.34" r="1.87"/>
    <circle class="cls-11" cx="179.64" cy="360.38" r="1.87"/>
    <circle class="cls-11" cx="171.35" cy="353.43" r="1.87"/>
    <circle class="cls-11" cx="163.06" cy="346.47" r="1.87"/>
    <circle class="cls-11" cx="138.19" cy="325.6" r="1.87"/>
    <circle class="cls-11" cx="129.91" cy="318.65" r="1.87"/>
    <circle class="cls-11" cx="121.62" cy="311.69" r="1.87"/>
    <circle class="cls-11" cx="113.33" cy="304.73" r="1.87"/>
    <circle class="cls-11" cx="138.19" cy="346.47" r="1.87"/>
    <circle class="cls-11" cx="163.06" cy="325.6" r="1.87"/>
    <circle class="cls-11" cx="162.06" cy="311.52" r="1.87"/>
    <circle class="cls-11" cx="166.64" cy="301.71" r="1.87"/>
    <circle class="cls-11" cx="171.21" cy="291.9" r="1.87"/>
    <circle class="cls-11" cx="130.05" cy="380.17" r="1.87"/>
    <circle class="cls-11" cx="134.62" cy="370.36" r="1.87"/>
    <circle class="cls-11" cx="139.2" cy="360.55" r="1.87"/>
    <circle class="cls-11" cx="143.77" cy="350.75" r="1.87"/>
    <circle class="cls-11" cx="157.49" cy="321.32" r="1.87"/>
    <circle class="cls-11" cx="162.06" cy="311.52" r="1.87"/>
    <circle class="cls-11" cx="166.64" cy="301.71" r="1.87"/>
    <circle class="cls-11" cx="171.21" cy="291.9" r="1.87"/>
    <circle class="cls-11" cx="130.05" cy="380.17" r="1.87"/>
    <circle class="cls-11" cx="134.62" cy="370.36" r="1.87"/>
    <circle class="cls-11" cx="139.2" cy="360.55" r="1.87"/>
    <circle class="cls-11" cx="143.77" cy="350.75" r="1.87"/>
    <circle class="cls-11" cx="157.49" cy="321.32" r="1.87"/>
    <circle class="cls-11" cx="139.2" cy="311.52" r="1.87"/>
    <circle class="cls-11" cx="134.62" cy="301.71" r="1.87"/>
    <circle class="cls-11" cx="130.05" cy="291.9" r="1.87"/>
    <circle class="cls-11" cx="171.21" cy="380.17" r="1.87"/>
    <circle class="cls-11" cx="166.64" cy="370.36" r="1.87"/>
    <circle class="cls-11" cx="162.06" cy="360.55" r="1.87"/>
    <circle class="cls-11" cx="157.49" cy="350.75" r="1.87"/>
    <circle class="cls-11" cx="143.77" cy="321.32" r="1.87"/>
    <circle class="cls-11" cx="125.21" cy="326.78" r="1.87"/>
    <circle class="cls-11" cx="115.04" cy="323.08" r="1.87"/>
    <circle class="cls-11" cx="104.87" cy="319.38" r="1.87"/>
    <circle class="cls-11" cx="196.39" cy="352.69" r="1.87"/>
    <circle class="cls-11" cx="186.22" cy="348.99" r="1.87"/>
    <circle class="cls-11" cx="176.05" cy="345.29" r="1.87"/>
    <circle class="cls-11" cx="165.88" cy="341.59" r="1.87"/>
    <circle class="cls-11" cx="135.38" cy="330.48" r="1.87"/>
    <circle class="cls-11" cx="176.05" cy="326.78" r="1.87"/>
    <circle class="cls-11" cx="186.22" cy="323.08" r="1.87"/>
    <circle class="cls-11" cx="196.39" cy="319.38" r="1.87"/>
    <circle class="cls-11" cx="104.87" cy="352.69" r="1.87"/>
    <circle class="cls-11" cx="115.04" cy="348.99" r="1.87"/>
    <circle class="cls-11" cx="125.21" cy="345.29" r="1.87"/>
    <circle class="cls-11" cx="135.38" cy="341.59" r="1.87"/>
    <circle class="cls-11" cx="165.88" cy="330.48" r="1.87"/>
    <circle class="cls-11" cx="134.4" cy="336.04" r="1.87"/>
    <circle class="cls-11" cx="166.86" cy="336.04" r="1.87"/>
    <circle class="cls-11" cx="163.06" cy="346.47" r="1.87"/>
    <circle class="cls-11" cx="138.19" cy="325.6" r="1.87"/>
  </g>
  <g>
    <path class="cls-23" d="M189.71,623.7c-2.31,0-4.19-1.88-4.19-4.19v-47.77c0-1.1-.9-2-2-2h-47.77c-2.31,0-4.19-1.88-4.19-4.19v-41.11c0-2.31,1.88-4.19,4.19-4.19h47.77c1.1,0,2-.9,2-2v-47.77c0-2.31,1.88-4.19,4.19-4.19h41.11c2.31,0,4.19,1.88,4.19,4.19v47.77c0,1.1.9,2,2,2h47.77c2.31,0,4.19,1.88,4.19,4.19v41.11c0,2.31-1.88,4.19-4.19,4.19h-47.77c-1.1,0-2,.9-2,2v47.77c0,2.31-1.88,4.19-4.19,4.19h-41.11Z"/>
    <path class="cls-21" d="M230.82,468.35c1.17,0,2.12.95,2.12,2.12v47.77c0,2.25,1.82,4.07,4.07,4.07h47.77c1.17,0,2.12.95,2.12,2.12v41.11c0,1.17-.95,2.12-2.12,2.12h-47.77c-2.25,0-4.07,1.82-4.07,4.07v47.77c0,1.17-.95,2.12-2.12,2.12h-41.11c-1.17,0-2.12-.95-2.12-2.12v-47.77c0-2.25-1.82-4.07-4.07-4.07h-47.77c-1.17,0-2.12-.95-2.12-2.12v-41.11c0-1.17.95-2.12,2.12-2.12h47.77c2.25,0,4.07-1.82,4.07-4.07v-47.77c0-1.17.95-2.12,2.12-2.12h41.11M230.82,464.21h-41.11c-3.45,0-6.26,2.81-6.26,6.26v47.7h-47.7c-3.45,0-6.26,2.81-6.26,6.26v41.11c0,3.45,2.81,6.26,6.26,6.26h47.7v47.7c0,3.45,2.81,6.26,6.26,6.26h41.11c3.45,0,6.26-2.81,6.26-6.26v-47.7h47.7c3.45,0,6.26-2.81,6.26-6.26v-41.11c0-3.45-2.81-6.26-6.26-6.26h-47.7v-47.7c0-3.45-2.81-6.26-6.26-6.26h0Z"/>
  </g>
  <circle class="cls-19" cx="210.27" cy="544.99" r="20.52"/>
  <g>
    <path class="cls-17" d="M482.92,775.18c0,.76-.14,1.43-.43,2-.28.58-.67,1.05-1.15,1.44-.49.38-1.05.67-1.7.87-.65.19-1.34.29-2.08.29-.5,0-.96-.04-1.39-.12-.43-.08-.81-.18-1.14-.3-.33-.12-.6-.24-.82-.36s-.38-.24-.48-.34-.17-.24-.21-.42-.06-.45-.06-.79c0-.23,0-.42.02-.58.01-.16.04-.28.07-.38.03-.1.08-.17.13-.21s.12-.06.2-.06c.1,0,.25.06.44.18.19.12.44.26.73.41.3.15.65.29,1.07.41.41.12.89.19,1.44.19.36,0,.68-.04.96-.13.28-.09.52-.21.72-.36s.35-.35.45-.58.16-.49.16-.77c0-.33-.09-.61-.27-.84-.18-.24-.41-.44-.7-.63-.29-.18-.61-.35-.98-.51s-.74-.33-1.13-.51c-.39-.18-.77-.38-1.13-.61s-.69-.5-.98-.82c-.29-.32-.52-.69-.7-1.13-.18-.43-.27-.95-.27-1.56,0-.69.13-1.3.39-1.83.26-.53.6-.96,1.04-1.31.44-.35.95-.61,1.55-.78.59-.17,1.22-.26,1.89-.26.34,0,.69.03,1.03.08.34.05.66.12.96.21.3.09.56.19.79.3.23.11.38.21.46.28.07.08.12.14.15.19s.05.12.07.21.03.19.04.32.01.29.01.49c0,.22,0,.4-.02.55s-.03.27-.06.37c-.03.1-.06.17-.11.21-.05.04-.11.07-.2.07s-.21-.05-.39-.16c-.18-.1-.4-.22-.66-.34-.26-.12-.56-.24-.91-.34-.34-.1-.72-.15-1.13-.15-.32,0-.6.04-.84.12-.24.08-.44.19-.6.33-.16.14-.28.3-.36.5-.08.19-.12.4-.12.62,0,.32.09.6.26.83s.41.44.71.63c.29.18.63.36,1,.52.37.16.75.33,1.14.51.39.18.77.38,1.14.61.37.23.71.5,1,.82s.53.69.71,1.12c.18.43.27.93.27,1.52Z"/>
    <path class="cls-17" d="M494.59,766.25c0,.22,0,.4-.03.55s-.05.28-.08.37c-.04.09-.08.16-.14.21-.06.04-.12.07-.18.07h-3.63v11.68c0,.08-.02.14-.07.2-.05.06-.13.11-.24.15-.11.04-.26.07-.45.09s-.43.03-.71.03-.52-.01-.71-.03-.34-.05-.45-.09c-.11-.04-.19-.09-.24-.15-.05-.06-.07-.13-.07-.2v-11.68h-3.63c-.07,0-.14-.02-.19-.07-.05-.04-.1-.11-.13-.21-.04-.09-.07-.22-.08-.37-.02-.15-.03-.34-.03-.55s0-.41.03-.57c.02-.16.05-.28.08-.38.04-.09.08-.16.13-.2s.12-.06.19-.06h10.21c.07,0,.13.02.18.06.06.04.1.11.14.2.04.09.07.22.08.38.02.16.03.35.03.57Z"/>
    <path class="cls-17" d="M506.37,778.43c.09.27.15.48.17.64.02.16,0,.27-.09.35s-.23.13-.44.15-.5.03-.86.03-.68,0-.89-.02c-.21-.01-.38-.03-.49-.07-.11-.03-.19-.08-.24-.14-.04-.06-.08-.14-.11-.23l-.97-2.91h-5.44l-.92,2.83c-.03.11-.07.19-.12.26-.05.07-.13.13-.24.17s-.26.07-.46.08c-.2.01-.46.02-.78.02-.34,0-.61-.01-.81-.03-.19-.02-.33-.08-.4-.16s-.1-.21-.08-.36c.02-.16.08-.37.17-.63l4.47-12.86c.04-.13.1-.23.16-.31.06-.08.15-.14.29-.18.13-.04.31-.07.54-.08.23-.01.54-.02.92-.02.44,0,.79,0,1.05.02.26.01.46.04.61.08.14.04.25.1.31.19.06.08.12.19.16.34l4.48,12.84ZM499.72,767.8h-.01l-2.05,6.16h4.11l-2.05-6.16Z"/>
    <path class="cls-17" d="M519.15,779.15c0,.08-.01.15-.04.21-.03.06-.1.1-.21.14-.11.04-.28.06-.49.08-.22.01-.51.02-.88.02-.31,0-.56,0-.75-.02-.19-.02-.33-.04-.44-.08s-.18-.09-.23-.16-.08-.14-.11-.23l-1.3-3.24c-.16-.37-.31-.69-.46-.97-.15-.28-.32-.52-.5-.71-.18-.19-.39-.33-.63-.43-.24-.1-.52-.15-.83-.15h-.92v5.52c0,.08-.02.14-.07.2-.05.06-.13.11-.24.15-.11.04-.26.07-.45.09s-.43.03-.72.03-.52-.01-.71-.03-.34-.05-.45-.09c-.11-.04-.19-.09-.24-.15-.04-.06-.07-.13-.07-.2v-13.16c0-.33.08-.57.25-.71s.38-.22.62-.22h3.75c.38,0,.69,0,.94.02.25.01.47.03.67.06.58.08,1.11.22,1.57.43.47.2.86.46,1.19.79s.57.71.75,1.15c.17.44.26.95.26,1.53,0,.49-.06.93-.19,1.33-.12.4-.3.76-.54,1.07s-.53.59-.88.82c-.35.23-.75.42-1.2.56.22.11.42.23.61.38s.37.33.54.54c.17.21.33.46.48.73s.29.58.44.92l1.22,2.86c.11.28.19.49.22.62.04.13.06.23.06.31ZM515.35,769.31c0-.48-.11-.88-.32-1.21s-.57-.56-1.06-.69c-.15-.04-.32-.07-.51-.09s-.45-.03-.79-.03h-1.32v4.11h1.5c.42,0,.78-.05,1.1-.15.31-.1.58-.24.78-.43s.37-.4.47-.66.16-.54.16-.85Z"/>
    <path class="cls-17" d="M530.73,766.25c0,.22,0,.4-.03.55s-.05.28-.08.37c-.04.09-.08.16-.14.21-.06.04-.12.07-.19.07h-3.63v11.68c0,.08-.02.14-.07.2-.05.06-.13.11-.24.15-.11.04-.26.07-.45.09s-.43.03-.71.03-.52-.01-.71-.03-.34-.05-.45-.09c-.11-.04-.19-.09-.24-.15-.05-.06-.07-.13-.07-.2v-11.68h-3.63c-.08,0-.14-.02-.19-.07-.05-.04-.1-.11-.13-.21-.04-.09-.07-.22-.08-.37s-.03-.34-.03-.55,0-.41.03-.57c.02-.16.05-.28.08-.38.04-.09.08-.16.13-.2.05-.04.12-.06.19-.06h10.21c.07,0,.13.02.19.06.06.04.1.11.14.2.04.09.07.22.08.38.02.16.03.35.03.57Z"/>
  </g>
  <path class="cls-22" d="M837.73,505.92c.16.43.24.77.25,1.03,0,.26-.06.46-.22.59-.16.14-.41.22-.77.26-.36.04-.84.06-1.44.06s-1.08-.01-1.44-.04-.63-.08-.81-.15c-.18-.07-.32-.16-.41-.28s-.17-.26-.25-.44l-3.22-9.15h-15.62l-3.08,9.03c-.06.17-.14.32-.23.45s-.24.23-.42.32c-.18.09-.45.15-.78.19-.34.04-.78.06-1.32.06s-1.02-.02-1.38-.07c-.36-.05-.61-.14-.75-.28-.15-.14-.21-.33-.2-.6,0-.26.09-.6.25-1.03l12.6-34.91c.08-.21.18-.39.3-.52.13-.14.31-.24.55-.32s.55-.13.93-.16c.38-.03.86-.04,1.44-.04.62,0,1.13.01,1.54.04.41.03.74.08.99.16.25.08.45.19.58.33.13.15.24.32.32.54l12.6,34.91ZM821.55,475.11h-.03l-6.48,18.73h13.07l-6.56-18.73Z"/>
  <path class="cls-10" d="M916.47,415.04c0,1.18-.15,2.27-.45,3.27-.3,1-.72,1.89-1.26,2.69-.54.79-1.2,1.49-1.96,2.09s-1.63,1.1-2.58,1.51c-.96.41-1.99.71-3.08.92-1.09.2-2.35.3-3.76.3h-9.82c-.45,0-.87-.15-1.26-.45-.4-.3-.59-.83-.59-1.58v-33.51c0-.75.2-1.28.59-1.58.4-.3.82-.45,1.26-.45h8.54c2.25,0,4.08.21,5.52.64,1.43.43,2.63,1.05,3.59,1.86.96.81,1.68,1.81,2.16,2.99.48,1.18.73,2.52.73,4.01,0,.89-.11,1.74-.32,2.56-.21.81-.53,1.56-.94,2.25-.42.69-.94,1.3-1.57,1.84s-1.35.99-2.16,1.34c1.03.19,1.98.55,2.88,1.06.89.51,1.67,1.17,2.34,1.96.67.79,1.2,1.72,1.58,2.79.39,1.06.58,2.24.58,3.51ZM908.95,398.22c0-.91-.13-1.73-.38-2.47s-.65-1.36-1.19-1.87-1.25-.9-2.12-1.18c-.87-.27-2.02-.41-3.45-.41h-5.16v12.17h5.68c1.29,0,2.34-.17,3.13-.51s1.45-.79,1.97-1.37c.52-.57.9-1.24,1.14-2,.24-.76.36-1.55.36-2.37ZM911.21,415.33c0-1.12-.18-2.11-.54-2.96-.36-.85-.88-1.57-1.56-2.15-.69-.58-1.55-1.02-2.58-1.32-1.03-.3-2.33-.45-3.9-.45h-5.97v13.24h7.25c1.14,0,2.13-.14,2.99-.41.85-.27,1.6-.67,2.25-1.21.65-.53,1.15-1.2,1.52-1.99.37-.79.55-1.71.55-2.76Z"/>
  <path class="cls-18" d="M823.32,330.76v13.85c0,.16-.04.29-.12.41s-.21.21-.4.28c-.19.07-.45.13-.78.17s-.72.07-1.18.07-.88-.02-1.2-.07c-.32-.05-.58-.11-.78-.17-.2-.07-.34-.16-.42-.28s-.12-.25-.12-.41v-13.85l-10.63-21.2c-.21-.45-.34-.79-.39-1.05-.05-.25,0-.45.15-.58.15-.14.41-.22.78-.26.38-.04.89-.06,1.52-.06.58,0,1.05.02,1.41.06.36.04.64.09.86.16.21.07.37.17.48.29.11.13.21.29.3.48l5.2,10.8c.48,1.03.96,2.1,1.45,3.22.48,1.12.97,2.26,1.47,3.4h.06c.44-1.1.9-2.2,1.37-3.3s.95-2.17,1.43-3.24l5.23-10.86c.06-.19.14-.36.25-.49.11-.14.25-.24.44-.31.18-.07.44-.12.77-.16.33-.04.75-.06,1.25-.06.7,0,1.24.02,1.64.07.4.05.67.14.83.28.15.14.21.33.16.58-.05.25-.18.59-.39,1.02l-10.63,21.2Z"/>
  <path class="cls-16" d="M752.07,424.01c.25.43.4.76.45,1.02.05.25-.01.45-.19.6-.17.15-.46.24-.86.29-.4.05-.92.07-1.58.07-.62,0-1.1-.01-1.45-.04-.35-.03-.62-.08-.83-.16s-.36-.17-.46-.28-.2-.25-.28-.42l-8.36-14.96-8.45,14.96c-.1.17-.2.32-.32.44s-.28.21-.48.28c-.2.07-.48.12-.83.15-.35.03-.81.04-1.39.04-.64,0-1.14-.02-1.51-.07-.37-.05-.62-.15-.77-.29-.14-.15-.19-.34-.14-.6.05-.25.2-.59.45-1.02l10.25-17.28-9.79-16.7c-.23-.43-.38-.77-.45-1.03-.07-.26-.02-.46.13-.61.16-.15.43-.24.81-.28.39-.04.92-.06,1.6-.06.58,0,1.06.01,1.42.04.37.03.66.08.87.15.21.07.37.16.46.29s.2.27.32.42l8.07,14.06,8.01-14.06c.1-.15.19-.29.29-.42.1-.13.24-.22.42-.29.18-.07.44-.12.77-.15.33-.03.77-.04,1.34-.04.6,0,1.09.02,1.47.07.38.05.65.14.81.28.16.14.23.33.19.6-.04.26-.17.61-.41,1.03l-9.76,16.58,10.16,17.4Z"/>
</svg>