<svg xmlns="http://www.w3.org/2000/svg" id="Layer_1" data-name="Layer 1" viewBox="0 0 1000 1000"><defs><clipPath id="clippath"><path d="M147.23 599.36h107.15v75.02H147.23z" style="fill:none"/></clipPath><style>.cls-4{fill:#e2e2e2}.cls-5{fill:#0d0d0d}.cls-11{fill:#606161}.cls-17{fill:#2d3133}.cls-11{opacity:.07}.cls-20{fill:#171717}</style></defs><path d="m201.89 256.02 1.74-1.67 1.64 1.77 1.85-1.55 1.52 1.87 1.94-1.44 1.4 1.97 2.03-1.31 1.28 2.05 2.1-1.18 1.15 2.12 2.17-1.04 1.01 2.19 2.24-.91.87 2.26 2.29-.77.73 2.3 2.33-.62.58 2.35 2.37-.48.43 2.38 2.39-.33.28 2.4 2.41-.17.13 2.41 2.42-.02-.02 2.42 2.41.13-.17 2.4 2.4.29-.33 2.39 2.38.43-.48 2.37 2.35.58-.62 2.33 2.3.73-.77 2.29 2.26.87-.91 2.24 2.19 1.01-1.04 2.17 2.12 1.15-1.18 2.1 2.05 1.28-1.31 2.03 1.97 1.4-1.44 1.94 1.87 1.52-1.55 1.85 1.77 1.64-1.67 1.74 1.67 1.75-1.77 1.64 1.55 1.84-1.87 1.53 1.44 1.94-1.97 1.4 1.31 2.03-2.05 1.28 1.18 2.1-2.12 1.15 1.04 2.17-2.19 1.01.91 2.24-2.26.87.77 2.29-2.3.72.62 2.34-2.35.58.48 2.37-2.38.43.33 2.39-2.4.28.17 2.41-2.41.13.02 2.42-2.42-.02-.13 2.41-2.41-.18-.28 2.4-2.39-.32-.43 2.38-2.37-.48-.58 2.35-2.33-.62-.73 2.3-2.29-.77-.87 2.26-2.24-.91-1.01 2.19-2.17-1.05-1.15 2.13-2.1-1.18-1.28 2.05-2.03-1.31-1.4 1.96-1.94-1.43-1.52 1.87-1.85-1.55-1.64 1.77-1.74-1.67-1.75 1.67-1.64-1.77-1.85 1.55-1.52-1.87-1.94 1.43-1.4-1.96-2.03 1.31-1.28-2.05-2.1 1.18-1.15-2.13-2.17 1.05-1.01-2.19-2.24.91-.87-2.26-2.29.77-.73-2.3-2.33.62-.58-2.35-2.37.48-.43-2.38-2.39.32-.28-2.4-2.41.18-.13-2.41-2.42.02.02-2.42-2.41-.13.17-2.41-2.39-.28.32-2.39-2.38-.43.48-2.37-2.35-.58.62-2.34-2.3-.72.77-2.29-2.26-.87.91-2.24-2.19-1.01 1.05-2.17-2.13-1.15 1.18-2.1-2.05-1.28 1.31-2.03-1.96-1.4 1.43-1.94-1.87-1.53 1.55-1.84-1.77-1.64 1.67-1.75-1.67-1.74 1.77-1.64-1.55-1.85 1.87-1.52-1.43-1.94 1.96-1.4-1.31-2.03 2.05-1.28-1.18-2.1 2.13-1.15-1.05-2.17 2.19-1.01-.91-2.24 2.26-.87-.77-2.29 2.3-.73-.62-2.33 2.35-.58-.48-2.37 2.38-.43-.32-2.39 2.39-.29-.17-2.4 2.41-.13-.02-2.42 2.42.02.13-2.41 2.41.17.28-2.4 2.39.33.43-2.38 2.37.48.58-2.35 2.33.62.73-2.3 2.29.77.87-2.26 2.24.91 1.01-2.19 2.17 1.04 1.15-2.12 2.1 1.18 1.28-2.05 2.03 1.31 1.4-1.97 1.94 1.44 1.52-1.87 1.85 1.55 1.64-1.77z" style="fill:#1b1b1b"/><path d="M866.78 263.6v5.96c0 3.51-2.85 6.36-6.36 6.36H841.2c-3.51 0-6.36-2.85-6.36-6.36v-5.96c0-3.52 2.85-6.36 6.36-6.36h.65c1.03 0 2.02.38 2.8 1.05 2.44 2.14 2.84 3.73 6.16 3.73s3.38-1.22 5.99-3.65c.78-.73 1.82-1.14 2.88-1.14h.74c3.51 0 6.36 2.84 6.36 6.36Z" style="fill:#f15859"/><path d="M873.9 728.57c-254.32 27.47-507.24 26.53-750.55-1.05-40.03-4.54-70.1-39.23-76.57-78.99-13.51-83.01-7.4-214.8 14.84-352.12 2.34-14.45 14.1-25.78 28.69-26.89 269.49-20.53 549.51-20.07 818.03.05 14.29 1.07 25.88 12.01 28.53 26.1C962.9 434 967.12 568.42 950.33 653.02c-7.62 38.42-37.5 71.36-76.44 75.56Z" style="fill:#33383b"/><path d="M233.87 481.39c0 60.21-45.49 109.03-101.61 109.03-6.43 0-12.71-.64-18.81-1.87.35.01.7.01 1.05.01 56.11 0 101.61-46.29 101.61-103.4s-45.5-103.4-101.61-103.4c-12.1 0-23.71 2.15-34.48 6.11 15.26-9.84 33.14-15.5 52.24-15.5 56.12 0 101.61 48.81 101.61 109.02" class="cls-17"/><path d="M222.32 483.6c0 7.9-1.2 15.51-3.43 22.68-7.43 23.89-26.29 42.75-50.18 50.18-7.17 2.23-14.78 3.43-22.68 3.43s-15.51-1.2-22.68-3.43c-23.66-7.36-42.39-25.93-49.96-49.5a76.1 76.1 0 0 1-3.65-23.36c0-7.65 1.13-15.03 3.22-22 7.28-24.21 26.27-43.36 50.39-50.86 7.17-2.23 14.78-3.43 22.68-3.43s15.51 1.2 22.68 3.43c23.89 7.43 42.75 26.29 50.18 50.18a76.2 76.2 0 0 1 3.43 22.68" style="fill:#070808"/><path d="m146.03 485.61 20.68 21.49v47.87c-6.69 1.94-13.64 2.92-20.68 2.92s-13.99-.98-20.68-2.92V507.1l20.68-21.5m0-2.88-.34.35-.54.57-.29.3-21.51 22.36v50.16c7.17 2.23 14.78 3.43 22.68 3.43s15.51-1.2 22.68-3.43v-50.18l-.13-.12-21.38-22.22z" class="cls-20"/><path d="M950.34 456.08c-8.52 21.91-31.78 69.76-59.39 97.37-46.15 46.15-95.7 71.42-110.67 56.45-7.95-7.94-4.56-25.63 7.27-47.37-5.73 14.72-6.21 26.32-.19 32.33 14.97 14.98 64.52-10.3 110.67-56.45 21.66-21.66 41.85-63.1 52.31-82.33" class="cls-17"/><path d="M146.03 409.31c7.04 0 13.99.98 20.68 2.92v48.54l-20.68 21.51-20.68-21.51v-48.54a74.2 74.2 0 0 1 20.68-2.92m0-2c-7.9 0-15.51 1.2-22.68 3.43v50.83l.25.26 21.25 22.11 1.17 1.22.34-.35.54-.57.29-.3 21.51-22.37v-50.83a76.2 76.2 0 0 0-22.68-3.43Z" class="cls-20"/><path d="M831.23 264.01S732.96 539.56 722.9 560.02s-30.51 66.16-67.2 68.34c-36.68 2.18-277.79 2.18-314.47 0-3.75-.22-7.34-.9-10.75-1.97-30.01-9.3-47.41-48-56.45-66.37-10.06-20.46-109.32-296.01-109.32-296.01 181.77-13.32 360.64-16.37 536.34-8.19 43.59 2.03 86.99 4.76 130.18 8.19" style="fill:#232326"/><path d="M785.37 319.83c-12.15-25.69-77.47-33.24-99.34-35.67s-353.24-2.43-375.12 0c-21.87 2.43-87.19 9.98-99.34 35.67s2.73 51.06 9.11 69.21 58.33 167.93 67.75 182.21 28.56 46.18 62.89 47.7 259.98 1.52 294.31 0 53.47-33.42 62.89-47.7 61.37-164.05 67.75-182.21c6.38-18.15 21.27-43.52 9.11-69.21Zm57.93 43.13c-5.93 18.99-23.95 24.23-41.62 21.48-4.07-.63-11.49-5.98-9.99-10.15 5.29-14.69 14.71-40.91 19.42-54.02 1.36-3.8 9.82-1.36 13.22.28 15.9 7.66 25.02 23.05 18.98 42.41Z" class="cls-5"/><path d="M840.77 361.45c-4.97 15.94-23.65 21.11-39.6 18.45-3.68-.61-6.79-4.29-5.54-7.8 4.72-13.25 12.73-35.24 16.9-46.79 1.15-3.2 5.56-3.8 8.64-2.35 14.44 6.77 24.68 22.24 19.61 38.49Z" style="fill:#4656a5"/><rect width="308.51" height="243.8" x="345.16" y="312.26" rx="22.78" ry="22.78" style="fill:#2d2d2d"/><path d="M361.11 330.03h275.24v207.34H361.11z" style="fill:#394441"/><circle cx="811.23" cy="529.51" r="49.22" class="cls-5"/><circle cx="880.5" cy="442.93" r="49.22" class="cls-5"/><path d="M856.45 529.51c0 24.97-20.25 45.22-45.22 45.22a45 45 0 0 1-29.52-10.97c-9.61-8.29-15.69-20.56-15.69-34.25 0-24.97 20.24-45.21 45.21-45.21a45 45 0 0 1 20.76 5.04c14.53 7.51 24.46 22.68 24.46 40.17m69.26-86.58c0 24.97-20.24 45.21-45.21 45.21-11.28 0-21.61-4.14-29.53-10.97-9.61-8.29-15.69-20.56-15.69-34.24 0-24.97 20.25-45.21 45.22-45.21 7.5 0 14.57 1.83 20.8 5.07 14.5 7.52 24.41 22.67 24.41 40.14" style="fill:#101010"/><path d="M847.69 523.59c0 24.97-20.25 45.21-45.22 45.21a45 45 0 0 1-20.76-5.04c-9.61-8.29-15.69-20.56-15.69-34.25 0-24.97 20.24-45.21 45.21-45.21a45 45 0 0 1 20.76 5.04c9.61 8.29 15.7 20.56 15.7 34.25m69.26-86.58c0 24.97-20.24 45.21-45.21 45.21-7.49 0-14.55-1.82-20.77-5.05-9.61-8.29-15.69-20.56-15.69-34.24 0-24.97 20.25-45.21 45.22-45.21 7.5 0 14.57 1.83 20.8 5.07 9.58 8.29 15.65 20.54 15.65 34.22" class="cls-11"/><g style="clip-path:url(#clippath)"><circle id="_Grid_Repeat_" cx="151.7" cy="603.83" r="4.47" data-name="&amp;lt;Grid Repeat&amp;gt;"/><circle id="_Grid_Repeat_-2" cx="169.87" cy="603.83" r="4.47" data-name="&amp;lt;Grid Repeat&amp;gt;"/><circle id="_Grid_Repeat_-3" cx="188.04" cy="603.83" r="4.47" data-name="&amp;lt;Grid Repeat&amp;gt;"/><circle id="_Grid_Repeat_-4" cx="206.22" cy="603.83" r="4.47" data-name="&amp;lt;Grid Repeat&amp;gt;"/><circle id="_Grid_Repeat_-5" cx="224.39" cy="603.83" r="4.47" data-name="&amp;lt;Grid Repeat&amp;gt;"/><circle id="_Grid_Repeat_-6" cx="242.56" cy="603.83" r="4.47" data-name="&amp;lt;Grid Repeat&amp;gt;"/><circle id="_Grid_Repeat_-7" cx="151.7" cy="619.21" r="4.47" data-name="&amp;lt;Grid Repeat&amp;gt;"/><circle id="_Grid_Repeat_-8" cx="169.87" cy="619.21" r="4.47" data-name="&amp;lt;Grid Repeat&amp;gt;"/><circle id="_Grid_Repeat_-9" cx="188.04" cy="619.21" r="4.47" data-name="&amp;lt;Grid Repeat&amp;gt;"/><circle id="_Grid_Repeat_-10" cx="206.22" cy="619.21" r="4.47" data-name="&amp;lt;Grid Repeat&amp;gt;"/><circle id="_Grid_Repeat_-11" cx="224.39" cy="619.21" r="4.47" data-name="&amp;lt;Grid Repeat&amp;gt;"/><circle id="_Grid_Repeat_-12" cx="242.56" cy="619.21" r="4.47" data-name="&amp;lt;Grid Repeat&amp;gt;"/><circle id="_Grid_Repeat_-13" cx="151.7" cy="634.59" r="4.47" data-name="&amp;lt;Grid Repeat&amp;gt;"/><circle id="_Grid_Repeat_-14" cx="169.87" cy="634.59" r="4.47" data-name="&amp;lt;Grid Repeat&amp;gt;"/><circle id="_Grid_Repeat_-15" cx="188.04" cy="634.59" r="4.47" data-name="&amp;lt;Grid Repeat&amp;gt;"/><circle id="_Grid_Repeat_-16" cx="206.22" cy="634.59" r="4.47" data-name="&amp;lt;Grid Repeat&amp;gt;"/><circle id="_Grid_Repeat_-17" cx="224.39" cy="634.59" r="4.47" data-name="&amp;lt;Grid Repeat&amp;gt;"/><circle id="_Grid_Repeat_-18" cx="242.56" cy="634.59" r="4.47" data-name="&amp;lt;Grid Repeat&amp;gt;"/><circle id="_Grid_Repeat_-19" cx="151.7" cy="649.97" r="4.47" data-name="&amp;lt;Grid Repeat&amp;gt;"/><circle id="_Grid_Repeat_-20" cx="169.87" cy="649.97" r="4.47" data-name="&amp;lt;Grid Repeat&amp;gt;"/><circle id="_Grid_Repeat_-21" cx="188.04" cy="649.97" r="4.47" data-name="&amp;lt;Grid Repeat&amp;gt;"/><circle id="_Grid_Repeat_-22" cx="206.22" cy="649.97" r="4.47" data-name="&amp;lt;Grid Repeat&amp;gt;"/><circle id="_Grid_Repeat_-23" cx="224.39" cy="649.97" r="4.47" data-name="&amp;lt;Grid Repeat&amp;gt;"/><circle id="_Grid_Repeat_-24" cx="242.56" cy="649.97" r="4.47" data-name="&amp;lt;Grid Repeat&amp;gt;"/><circle id="_Grid_Repeat_-25" cx="151.7" cy="665.35" r="4.47" data-name="&amp;lt;Grid Repeat&amp;gt;"/><circle id="_Grid_Repeat_-26" cx="169.87" cy="665.35" r="4.47" data-name="&amp;lt;Grid Repeat&amp;gt;"/><circle id="_Grid_Repeat_-27" cx="188.04" cy="665.35" r="4.47" data-name="&amp;lt;Grid Repeat&amp;gt;"/><circle id="_Grid_Repeat_-28" cx="206.22" cy="665.35" r="4.47" data-name="&amp;lt;Grid Repeat&amp;gt;"/><circle id="_Grid_Repeat_-29" cx="224.39" cy="665.35" r="4.47" data-name="&amp;lt;Grid Repeat&amp;gt;"/><circle id="_Grid_Repeat_-30" cx="242.56" cy="665.35" r="4.47" data-name="&amp;lt;Grid Repeat&amp;gt;"/></g><circle cx="133.73" cy="619.07" r="4.47" class="cls-20"/><circle cx="133.73" cy="633.8" r="4.47" class="cls-20"/><circle cx="133.73" cy="648.53" r="4.47" class="cls-20"/><circle cx="260.41" cy="619.07" r="4.47" class="cls-20"/><circle cx="260.41" cy="633.8" r="4.47" class="cls-20"/><circle cx="260.41" cy="648.53" r="4.47" class="cls-20"/><path d="M217.4 462.92c1.94 6.69 2.92 13.64 2.92 20.68s-.98 13.99-2.92 20.68h-47.89L148 483.6l21.51-20.68h47.9m1.48-2H168.7l-22.67 21.8-.35.34-.57.54.04.04 1.22 1.17h.01l22.2 21.35.12.12h50.19c2.23-7.17 3.43-14.78 3.43-22.68s-1.2-15.51-3.43-22.68" class="cls-20"/><path d="m122.55 463.6 21.51 20.68-21.51 20.68H74.86a74.3 74.3 0 0 1-3.12-21.36c0-6.78.92-13.5 2.72-20zm.81-2h-50.4a76.5 76.5 0 0 0-3.22 22c0 8.15 1.28 16 3.65 23.36h49.97l22.67-21.8.35-.34.57-.54-.04-.04-1.22-1.17h-.01l-22.07-21.23z" class="cls-20"/><g id="g3"><path id="path5" d="M260.51 361.97c-1.37 1.86-2.67 2.21-3.37 2.6-.69.39-1.44.58-2.22.58-2.2 0-3.92-.72-5.16-2.15-1.24-1.44-1.85-3.45-1.85-6.06 0-3.09.78-5.71 2.34-7.87s3.64-3.23 6.22-3.23c1.96 0 3.57.55 4.82 1.66 1.26 1.1 1.88 2.83 1.88 5.19h-3.79c0-1.13-.25-1.92-.75-2.38-.5-.45-1.21-.68-2.14-.68-1.52 0-2.7.75-3.54 2.23-.83 1.49-1.26 3.18-1.26 5.08 0 1.3.28 2.36.81 3.18.54.83 1.36 1.24 2.44 1.24s2-.32 2.63-.96c.62-.63 1.09-1.45 1.38-2.45h-3.53l.57-3.44h6.89l-.58 3.33s-.44 2.27-1.8 4.13Z" class="cls-4"/><path id="path7" d="M276.68 381.74c-1.36 1.86-2.67 2.21-3.36 2.6-.7.39-1.44.58-2.23.58q-3.3 0-5.16-2.16c-1.23-1.43-1.85-3.45-1.85-6.06 0-3.09.78-5.71 2.34-7.87s3.64-3.24 6.22-3.24c1.97 0 3.57.55 4.83 1.66 1.25 1.11 1.88 2.83 1.88 5.19h-3.8q0-1.695-.75-2.37c-.49-.46-1.21-.68-2.14-.68-1.52 0-2.69.75-3.53 2.24-.84 1.48-1.26 3.18-1.26 5.08q0 1.95.81 3.18c.54.82 1.36 1.23 2.44 1.23s2-.32 2.63-.95c.62-.64 1.09-1.46 1.39-2.46h-3.54l.58-3.44h6.89l-.58 3.33s-.44 2.27-1.81 4.14" class="cls-4"/><path id="polygon9" d="m293.27 346.32-3.08 18.38h-3.32l2.61-14.24-5.76 14.24H281l-1.26-14.24-1.98 14.24h-3.35l3.06-18.38h4.71l1.06 12.95 5.29-12.98z" class="cls-4"/><path id="polygon11" d="M296.78 353.44h5.42l-.57 3.56h-5.42l-.69 3.92h6.11l-.6 3.78h-9.64l3.05-18.4h9.52l-.58 3.81h-6z" class="cls-4"/><path id="path13" d="m267.9 346.29-7.41 18.42h3.61l1.32-3.59h4.73l.31 3.59h3.5l-2.09-18.42h-3.96Zm-1.33 11.68 2.69-7.33.62 7.33z" class="cls-4"/><path id="polygon15" d="M283.76 373.21h5.41l-.56 3.55h-5.41l-.71 3.92h6.12l-.6 3.79h-9.64l3.05-18.41h9.52l-.58 3.81h-6z" class="cls-4"/><path id="path17" d="m295.74 366.05-7.41 18.42h3.62l1.32-3.59H298l.31 3.59h3.49l-2.1-18.42zm-1.32 11.68 2.68-7.33.63 7.33z" class="cls-4"/><path id="path19" d="m307.39 374.15.81-4.53h1.93c.71 0 1.24.13 1.6.38.36.26.53.78.53 1.56 0 .87-.29 1.52-.86 1.95-.58.43-1.31.64-2.2.64zm-2.18-8.09-3.05 18.41h3.53l1.18-7.02h1.63l2.73 7.02h4.04l-3.02-7.77c1.05-.54 1.96-1.43 2.59-2.36q.99-1.44.99-3.36c0-1.74-.39-2.99-1.18-3.76-.78-.77-1.89-1.15-3.31-1.15h-6.13Z" class="cls-4"/></g><path id="path21" d="M257.57 324.48c5.64-6.47 12.44-9.93 15.18-7.76 2.74 2.18.39 9.19-5.26 15.65-5.64 6.47-12.44 9.93-15.17 7.75-2.75-2.18-.39-9.19 5.25-15.65Z" style="fill:#ed2224"/><path d="M208.03 473.84c0 42.28-34.29 76.56-76.57 76.56-12.68 0-24.62-3.08-35.15-8.53-16.27-14.04-26.57-34.82-26.57-58 0-42.28 34.27-76.56 76.56-76.56 12.68 0 24.62 3.08 35.15 8.53 16.27 14.04 26.59 34.82 26.59 58Z" class="cls-11"/><path id="path23" d="M279.99 324.5c5.79-6.42 12.77-9.87 15.59-7.7 2.81 2.17.4 9.13-5.4 15.55-5.79 6.43-12.77 9.88-15.58 7.71s-.4-9.13 5.39-15.56" style="fill:#42bb93"/><path id="path25" d="M301.77 324.5c5.79-6.42 12.78-9.87 15.59-7.7s.4 9.13-5.39 15.55c-5.79 6.43-12.78 9.88-15.59 7.71s-.4-9.13 5.39-15.56" style="fill:#4890cd"/><path d="M679.83 355.21h11.7c4.79-.01 8.67-3.88 8.67-8.65s-3.88-8.65-8.67-8.65l-3.04.02c-.24 0-.43-.2-.43-.44s.19-.44.43-.44h11.68v-3.66h-11.69c-2.26 0-4.1 1.84-4.1 4.09s1.84 4.09 4.1 4.09l3.05.04c2.74 0 4.96 2.21 4.96 4.94s-2.22 4.95-4.96 4.95h-11.71v3.71Z" class="cls-4"/><path d="M679.84 350.64h11.71c2.27 0 4.1-1.83 4.1-4.09s-1.83-4.08-4.1-4.08l-3.05-.03c-2.74 0-4.96-2.22-4.96-4.95s2.22-4.94 4.96-4.94h11.69v-3.68h-11.68c-4.78 0-8.67 3.86-8.67 8.64s3.89 8.64 8.67 8.64h3.02c.23 0 .42.19.42.43s-.19.42-.42.42h-11.69v3.66Zm29.44.89c-2.03 0-3.69-1.62-3.69-3.68v-11.69c0-1.99 1.66-3.62 3.69-3.62h12.49v-3.67h-12.49c-4.07 0-7.36 3.28-7.36 7.33v11.65c0 4.05 3.29 7.34 7.36 7.34h12.44v-3.66z" class="cls-4"/><path d="M706.48 336.19c0-1.55 1.25-2.81 2.8-2.81h12.49v3.68h-10.76c-.86 0-.87.86-.87.86h8.98v3.66h-12.64zm2.8 14.44c-1.55 0-2.8-1.25-2.8-2.79v-5.39h12.64v3.67h-8.98c.01.86.87.87.87.87h10.71v3.65h-12.44Zm21.25.89a3.69 3.69 0 0 1-3.68-3.68v-11.65c0-2.03 1.64-3.66 3.67-3.66h12.1v-3.67h-12.13c-4.06 0-7.36 3.28-7.36 7.33v11.65c0 4.05 3.32 7.34 7.39 7.34h12.1v-17.26h-10.4v3.66h6.72v9.94h-8.42Z" class="cls-4"/><path d="M727.71 347.84c0 1.55 1.26 2.82 2.81 2.82h7.56v-8.21h-5.85v3.67h2.17v.86h-2.15c-.47 0-.86-.39-.86-.86l-.02-8.2s0-.85.87-.87h10.39v-3.66h-12.11c-1.55 0-2.81 1.26-2.81 2.81v11.65m26.28-14.52a1.2 1.2 0 0 1 2.26 0l5.87 17.35h-8.6v-4.08h2.88l-1.29-3.85-4.22 12.43h-4.34l7.43-21.85Z" class="cls-4"/><path d="M763.31 351.52h-9.77v3.67h14.87l-7.73-22.88c-.68-2.23-2.91-3.87-5.56-3.87s-4.88 1.63-5.56 3.86l-7.8 22.89h3.89l7.58-22.25a2.05 2.05 0 0 1 3.78-.01l6.31 18.59Z" class="cls-4"/><path d="M701.05 255.82 330.48 626.39c-30.01-9.3-47.41-48-56.45-66.37-10.06-20.46-109.32-296.01-109.32-296.01 181.77-13.32 360.64-16.37 536.34-8.19" style="opacity:.06;fill:#606161"/></svg>