<?xml version="1.0" encoding="UTF-8"?>
<svg id="Layer_1" data-name="Layer 1" xmlns="http://www.w3.org/2000/svg" xmlns:xlink="http://www.w3.org/1999/xlink" viewBox="0 0 1000 1000">
  <defs>
    <style>
      .cls-1 {
        fill: #f15859;
      }

      .cls-2 {
        fill: #070808;
      }

      .cls-3 {
        fill: #232326;
      }

      .cls-4 {
        fill: #e2e2e2;
      }

      .cls-5 {
        fill: #0d0d0d;
      }

      .cls-6 {
        fill: none;
      }

      .cls-7 {
        fill: #101010;
      }

      .cls-8 {
        fill: #4890cd;
      }

      .cls-9 {
        fill: #33383b;
      }

      .cls-10 {
        opacity: .06;
      }

      .cls-10, .cls-11 {
        fill: #606161;
      }

      .cls-12 {
        fill: #1b1b1b;
      }

      .cls-13 {
        fill: #ed2224;
      }

      .cls-14 {
        fill: #42bb93;
      }

      .cls-15 {
        fill: #394441;
      }

      .cls-16 {
        fill: #4656a5;
      }

      .cls-17 {
        fill: #2d3133;
      }

      .cls-18 {
        fill: #2d2d2d;
      }

      .cls-19 {
        clip-path: url(#clippath);
      }

      .cls-11 {
        opacity: .07;
      }

      .cls-20 {
        fill: #171717;
      }
    </style>
    <clipPath id="clippath">
      <rect class="cls-6" x="147.23" y="599.36" width="107.15" height="75.02"/>
    </clipPath>
  </defs>
  <polygon class="cls-12" points="201.89 256.02 203.63 254.35 205.27 256.12 207.12 254.57 208.64 256.44 210.58 255 211.98 256.97 214.01 255.66 215.29 257.71 217.39 256.53 218.54 258.65 220.71 257.61 221.72 259.8 223.96 258.89 224.83 261.15 227.12 260.38 227.85 262.68 230.18 262.06 230.76 264.41 233.13 263.93 233.56 266.31 235.95 265.98 236.23 268.38 238.64 268.21 238.77 270.62 241.19 270.6 241.17 273.02 243.58 273.15 243.41 275.55 245.81 275.84 245.48 278.23 247.86 278.66 247.38 281.03 249.73 281.61 249.11 283.94 251.41 284.67 250.64 286.96 252.9 287.83 251.99 290.07 254.18 291.08 253.14 293.25 255.26 294.4 254.08 296.5 256.13 297.78 254.82 299.81 256.79 301.21 255.35 303.15 257.22 304.67 255.67 306.52 257.44 308.16 255.77 309.9 257.44 311.65 255.67 313.29 257.22 315.13 255.35 316.66 256.79 318.6 254.82 320 256.13 322.03 254.08 323.31 255.26 325.41 253.14 326.56 254.18 328.73 251.99 329.74 252.9 331.98 250.64 332.85 251.41 335.14 249.11 335.86 249.73 338.2 247.38 338.78 247.86 341.15 245.48 341.58 245.81 343.97 243.41 344.25 243.58 346.66 241.17 346.79 241.19 349.21 238.77 349.19 238.64 351.6 236.23 351.42 235.95 353.82 233.56 353.5 233.13 355.88 230.76 355.4 230.18 357.75 227.85 357.13 227.12 359.43 224.83 358.66 223.96 360.92 221.72 360.01 220.71 362.2 218.54 361.15 217.39 363.28 215.29 362.1 214.01 364.15 211.98 362.84 210.58 364.8 208.64 363.37 207.12 365.24 205.27 363.69 203.63 365.46 201.89 363.79 200.14 365.46 198.5 363.69 196.65 365.24 195.13 363.37 193.19 364.8 191.79 362.84 189.76 364.15 188.48 362.1 186.38 363.28 185.23 361.15 183.06 362.2 182.05 360.01 179.81 360.92 178.94 358.66 176.65 359.43 175.92 357.13 173.59 357.75 173.01 355.4 170.64 355.88 170.21 353.5 167.82 353.82 167.54 351.42 165.13 351.6 165 349.19 162.58 349.21 162.6 346.79 160.19 346.66 160.36 344.25 157.97 343.97 158.29 341.58 155.91 341.15 156.39 338.78 154.04 338.2 154.66 335.86 152.36 335.14 153.13 332.85 150.87 331.98 151.78 329.74 149.59 328.73 150.64 326.56 148.51 325.41 149.69 323.31 147.64 322.03 148.95 320 146.99 318.6 148.42 316.66 146.55 315.13 148.1 313.29 146.33 311.65 148 309.9 146.33 308.16 148.1 306.52 146.55 304.67 148.42 303.15 146.99 301.21 148.95 299.81 147.64 297.78 149.69 296.5 148.51 294.4 150.64 293.25 149.59 291.08 151.78 290.07 150.87 287.83 153.13 286.96 152.36 284.67 154.66 283.94 154.04 281.61 156.39 281.03 155.91 278.66 158.29 278.23 157.97 275.84 160.36 275.55 160.19 273.15 162.6 273.02 162.58 270.6 165 270.62 165.13 268.21 167.54 268.38 167.82 265.98 170.21 266.31 170.64 263.93 173.01 264.41 173.59 262.06 175.92 262.68 176.65 260.38 178.94 261.15 179.81 258.89 182.05 259.8 183.06 257.61 185.23 258.65 186.38 256.53 188.48 257.71 189.76 255.66 191.79 256.97 193.19 255 195.13 256.44 196.65 254.57 198.5 256.12 200.14 254.35 201.89 256.02"/>
  <path class="cls-1" d="M866.78,263.6v5.96c0,3.51-2.85,6.36-6.36,6.36h-19.22c-3.51,0-6.36-2.85-6.36-6.36v-5.96c0-3.52,2.85-6.36,6.36-6.36h.65c1.03,0,2.02.38,2.8,1.05,2.44,2.14,2.84,3.73,6.16,3.73s3.38-1.22,5.99-3.65c.78-.73,1.82-1.14,2.88-1.14h.74c3.51,0,6.36,2.84,6.36,6.36Z"/>
  <path class="cls-9" d="M873.9,728.57c-254.32,27.47-507.24,26.53-750.55-1.05-40.03-4.54-70.1-39.23-76.57-78.99-13.51-83.01-7.4-214.8,14.84-352.12,2.34-14.45,14.1-25.78,28.69-26.89,269.49-20.53,549.51-20.07,818.03.05,14.29,1.07,25.88,12.01,28.53,26.1,26.03,138.33,30.25,272.75,13.46,357.35-7.62,38.42-37.5,71.36-76.44,75.56Z"/>
  <path class="cls-17" d="M233.87,481.39c0,60.21-45.49,109.03-101.61,109.03-6.43,0-12.71-.64-18.81-1.87.35.01.7.01,1.05.01,56.11,0,101.61-46.29,101.61-103.4s-45.5-103.4-101.61-103.4c-12.1,0-23.71,2.15-34.48,6.11,15.26-9.84,33.14-15.5,52.24-15.5,56.12,0,101.61,48.81,101.61,109.02Z"/>
  <path class="cls-2" d="M222.32,483.6c0,7.9-1.2,15.51-3.43,22.68-7.43,23.89-26.29,42.75-50.18,50.18-7.17,2.23-14.78,3.43-22.68,3.43s-15.51-1.2-22.68-3.43c-23.66-7.36-42.39-25.93-49.96-49.5-2.37-7.36-3.65-15.21-3.65-23.36,0-7.65,1.13-15.03,3.22-22,7.28-24.21,26.27-43.36,50.39-50.86,7.17-2.23,14.78-3.43,22.68-3.43s15.51,1.2,22.68,3.43c23.89,7.43,42.75,26.29,50.18,50.18,2.23,7.17,3.43,14.78,3.43,22.68Z"/>
  <path class="cls-20" d="M146.03,485.61l20.68,21.49v47.87c-6.69,1.94-13.64,2.92-20.68,2.92s-13.99-.98-20.68-2.92v-47.87l20.68-21.5M146.03,482.72l-.34.35-.54.57-.29.3-21.51,22.36v50.16c7.17,2.23,14.78,3.43,22.68,3.43s15.51-1.2,22.68-3.43v-50.18s-.13-.12-.13-.12l-21.38-22.22-1.17-1.22h0Z"/>
  <path class="cls-17" d="M950.34,456.08c-8.52,21.91-31.78,69.76-59.39,97.37-46.15,46.15-95.7,71.42-110.67,56.45-7.95-7.94-4.56-25.63,7.27-47.37-5.73,14.72-6.21,26.32-.19,32.33,14.97,14.98,64.52-10.3,110.67-56.45,21.66-21.66,41.85-63.1,52.31-82.33Z"/>
  <path class="cls-20" d="M146.03,409.31c7.04,0,13.99.98,20.68,2.92v48.54l-20.68,21.51-20.68-21.51v-48.54c6.69-1.94,13.64-2.92,20.68-2.92M146.03,407.31c-7.9,0-15.51,1.2-22.68,3.43v50.83l.25.26h0s21.25,22.11,21.25,22.11l1.17,1.22.34-.35.54-.57.29-.3,21.51-22.37v-50.83c-7.17-2.23-14.78-3.43-22.68-3.43h0Z"/>
  <path class="cls-3" d="M831.23,264.01s-98.27,275.55-108.33,296.01c-10.06,20.46-30.51,66.16-67.2,68.34-36.68,2.18-277.79,2.18-314.47,0-3.75-.22-7.34-.9-10.75-1.97-30.01-9.3-47.41-48-56.45-66.37-10.06-20.46-109.32-296.01-109.32-296.01,181.77-13.32,360.64-16.37,536.34-8.19,43.59,2.03,86.99,4.76,130.18,8.19Z"/>
  <path class="cls-5" d="M785.37,319.83c-12.15-25.69-77.47-33.24-99.34-35.67-21.87-2.43-353.24-2.43-375.12,0-21.87,2.43-87.19,9.98-99.34,35.67-12.15,25.69,2.73,51.06,9.11,69.21,6.38,18.15,58.33,167.93,67.75,182.21s28.56,46.18,62.89,47.7c34.33,1.52,259.98,1.52,294.31,0,34.33-1.52,53.47-33.42,62.89-47.7s61.37-164.05,67.75-182.21c6.38-18.15,21.27-43.52,9.11-69.21Z"/>
  <path class="cls-5" d="M843.3,362.96c-5.93,18.99-23.95,24.23-41.62,21.48-4.07-.63-11.49-5.98-9.99-10.15,5.29-14.69,14.71-40.91,19.42-54.02,1.36-3.8,9.82-1.36,13.22.28,15.9,7.66,25.02,23.05,18.98,42.41Z"/>
  <path class="cls-16" d="M840.77,361.45c-4.97,15.94-23.65,21.11-39.6,18.45-3.68-.61-6.79-4.29-5.54-7.8,4.72-13.25,12.73-35.24,16.9-46.79,1.15-3.2,5.56-3.8,8.64-2.35,14.44,6.77,24.68,22.24,19.61,38.49Z"/>
  <rect class="cls-18" x="345.16" y="312.26" width="308.51" height="243.8" rx="22.78" ry="22.78"/>
  <rect class="cls-15" x="361.11" y="330.03" width="275.24" height="207.34"/>
  <circle class="cls-5" cx="811.23" cy="529.51" r="49.22"/>
  <circle class="cls-5" cx="880.5" cy="442.93" r="49.22"/>
  <path class="cls-7" d="M856.45,529.51c0,24.97-20.25,45.22-45.22,45.22-11.29,0-21.6-4.13-29.52-10.97-9.61-8.29-15.69-20.56-15.69-34.25,0-24.97,20.24-45.21,45.21-45.21,7.49,0,14.54,1.82,20.76,5.04,14.53,7.51,24.46,22.68,24.46,40.17Z"/>
  <path class="cls-7" d="M925.71,442.93c0,24.97-20.24,45.21-45.21,45.21-11.28,0-21.61-4.14-29.53-10.97-9.61-8.29-15.69-20.56-15.69-34.24,0-24.97,20.25-45.21,45.22-45.21,7.5,0,14.57,1.83,20.8,5.07,14.5,7.52,24.41,22.67,24.41,40.14Z"/>
  <path class="cls-11" d="M847.69,523.59c0,24.97-20.25,45.21-45.22,45.21-7.49,0-14.54-1.82-20.76-5.04-9.61-8.29-15.69-20.56-15.69-34.25,0-24.97,20.24-45.21,45.21-45.21,7.49,0,14.54,1.82,20.76,5.04,9.61,8.29,15.7,20.56,15.7,34.25Z"/>
  <path class="cls-11" d="M916.95,437.01c0,24.97-20.24,45.21-45.21,45.21-7.49,0-14.55-1.82-20.77-5.05-9.61-8.29-15.69-20.56-15.69-34.24,0-24.97,20.25-45.21,45.22-45.21,7.5,0,14.57,1.83,20.8,5.07,9.58,8.29,15.65,20.54,15.65,34.22Z"/>
  <g class="cls-19">
    <g>
      <g id="_Grid_Repeat_" data-name="&amp;lt;Grid Repeat&amp;gt;">
        <circle cx="151.7" cy="603.83" r="4.47"/>
      </g>
      <g id="_Grid_Repeat_-2" data-name="&amp;lt;Grid Repeat&amp;gt;">
        <circle cx="169.87" cy="603.83" r="4.47"/>
      </g>
      <g id="_Grid_Repeat_-3" data-name="&amp;lt;Grid Repeat&amp;gt;">
        <circle cx="188.04" cy="603.83" r="4.47"/>
      </g>
      <g id="_Grid_Repeat_-4" data-name="&amp;lt;Grid Repeat&amp;gt;">
        <circle cx="206.22" cy="603.83" r="4.47"/>
      </g>
      <g id="_Grid_Repeat_-5" data-name="&amp;lt;Grid Repeat&amp;gt;">
        <circle cx="224.39" cy="603.83" r="4.47"/>
      </g>
      <g id="_Grid_Repeat_-6" data-name="&amp;lt;Grid Repeat&amp;gt;">
        <circle cx="242.56" cy="603.83" r="4.47"/>
      </g>
      <g id="_Grid_Repeat_-7" data-name="&amp;lt;Grid Repeat&amp;gt;">
        <circle cx="151.7" cy="619.21" r="4.47"/>
      </g>
      <g id="_Grid_Repeat_-8" data-name="&amp;lt;Grid Repeat&amp;gt;">
        <circle cx="169.87" cy="619.21" r="4.47"/>
      </g>
      <g id="_Grid_Repeat_-9" data-name="&amp;lt;Grid Repeat&amp;gt;">
        <circle cx="188.04" cy="619.21" r="4.47"/>
      </g>
      <g id="_Grid_Repeat_-10" data-name="&amp;lt;Grid Repeat&amp;gt;">
        <circle cx="206.22" cy="619.21" r="4.47"/>
      </g>
      <g id="_Grid_Repeat_-11" data-name="&amp;lt;Grid Repeat&amp;gt;">
        <circle cx="224.39" cy="619.21" r="4.47"/>
      </g>
      <g id="_Grid_Repeat_-12" data-name="&amp;lt;Grid Repeat&amp;gt;">
        <circle cx="242.56" cy="619.21" r="4.47"/>
      </g>
      <g id="_Grid_Repeat_-13" data-name="&amp;lt;Grid Repeat&amp;gt;">
        <circle cx="151.7" cy="634.59" r="4.47"/>
      </g>
      <g id="_Grid_Repeat_-14" data-name="&amp;lt;Grid Repeat&amp;gt;">
        <circle cx="169.87" cy="634.59" r="4.47"/>
      </g>
      <g id="_Grid_Repeat_-15" data-name="&amp;lt;Grid Repeat&amp;gt;">
        <circle cx="188.04" cy="634.59" r="4.47"/>
      </g>
      <g id="_Grid_Repeat_-16" data-name="&amp;lt;Grid Repeat&amp;gt;">
        <circle cx="206.22" cy="634.59" r="4.47"/>
      </g>
      <g id="_Grid_Repeat_-17" data-name="&amp;lt;Grid Repeat&amp;gt;">
        <circle cx="224.39" cy="634.59" r="4.47"/>
      </g>
      <g id="_Grid_Repeat_-18" data-name="&amp;lt;Grid Repeat&amp;gt;">
        <circle cx="242.56" cy="634.59" r="4.47"/>
      </g>
      <g id="_Grid_Repeat_-19" data-name="&amp;lt;Grid Repeat&amp;gt;">
        <circle cx="151.7" cy="649.97" r="4.47"/>
      </g>
      <g id="_Grid_Repeat_-20" data-name="&amp;lt;Grid Repeat&amp;gt;">
        <circle cx="169.87" cy="649.97" r="4.47"/>
      </g>
      <g id="_Grid_Repeat_-21" data-name="&amp;lt;Grid Repeat&amp;gt;">
        <circle cx="188.04" cy="649.97" r="4.47"/>
      </g>
      <g id="_Grid_Repeat_-22" data-name="&amp;lt;Grid Repeat&amp;gt;">
        <circle cx="206.22" cy="649.97" r="4.47"/>
      </g>
      <g id="_Grid_Repeat_-23" data-name="&amp;lt;Grid Repeat&amp;gt;">
        <circle cx="224.39" cy="649.97" r="4.47"/>
      </g>
      <g id="_Grid_Repeat_-24" data-name="&amp;lt;Grid Repeat&amp;gt;">
        <circle cx="242.56" cy="649.97" r="4.47"/>
      </g>
      <g id="_Grid_Repeat_-25" data-name="&amp;lt;Grid Repeat&amp;gt;">
        <circle cx="151.7" cy="665.35" r="4.47"/>
      </g>
      <g id="_Grid_Repeat_-26" data-name="&amp;lt;Grid Repeat&amp;gt;">
        <circle cx="169.87" cy="665.35" r="4.47"/>
      </g>
      <g id="_Grid_Repeat_-27" data-name="&amp;lt;Grid Repeat&amp;gt;">
        <circle cx="188.04" cy="665.35" r="4.47"/>
      </g>
      <g id="_Grid_Repeat_-28" data-name="&amp;lt;Grid Repeat&amp;gt;">
        <circle cx="206.22" cy="665.35" r="4.47"/>
      </g>
      <g id="_Grid_Repeat_-29" data-name="&amp;lt;Grid Repeat&amp;gt;">
        <circle cx="224.39" cy="665.35" r="4.47"/>
      </g>
      <g id="_Grid_Repeat_-30" data-name="&amp;lt;Grid Repeat&amp;gt;">
        <circle cx="242.56" cy="665.35" r="4.47"/>
      </g>
    </g>
  </g>
  <circle class="cls-20" cx="133.73" cy="619.07" r="4.47"/>
  <circle class="cls-20" cx="133.73" cy="633.8" r="4.47"/>
  <circle class="cls-20" cx="133.73" cy="648.53" r="4.47"/>
  <circle class="cls-20" cx="260.41" cy="619.07" r="4.47"/>
  <circle class="cls-20" cx="260.41" cy="633.8" r="4.47"/>
  <circle class="cls-20" cx="260.41" cy="648.53" r="4.47"/>
  <path class="cls-20" d="M217.4,462.92c1.94,6.69,2.92,13.64,2.92,20.68s-.98,13.99-2.92,20.68h-47.89l-21.51-20.68,21.51-20.68h47.9M218.89,460.92h-50.19l-22.67,21.8-.35.34-.57.54.04.04,1.22,1.17h.01s22.2,21.35,22.2,21.35l.12.12h50.19c2.23-7.17,3.43-14.78,3.43-22.68s-1.2-15.51-3.43-22.68h0Z"/>
  <path class="cls-20" d="M122.55,463.6l21.51,20.68-21.51,20.68h-47.69c-2.07-6.9-3.12-14.08-3.12-21.36,0-6.78.92-13.5,2.72-20h48.09M123.36,461.6h-50.4c-2.09,6.97-3.22,14.35-3.22,22,0,8.15,1.28,16,3.65,23.36h49.97l22.67-21.8.35-.34.57-.54-.04-.04-1.22-1.17h-.01s-22.07-21.23-22.07-21.23l-.25-.24h0Z"/>
  <g id="g3">
    <path id="path5" class="cls-4" d="M260.51,361.97c-1.37,1.86-2.67,2.21-3.37,2.6-.69.39-1.44.58-2.22.58-2.2,0-3.92-.72-5.16-2.15-1.24-1.44-1.85-3.45-1.85-6.06,0-3.09.78-5.71,2.34-7.87,1.56-2.16,3.64-3.23,6.22-3.23,1.96,0,3.57.55,4.82,1.66,1.26,1.1,1.88,2.83,1.88,5.19h-3.79c0-1.13-.25-1.92-.75-2.38-.5-.45-1.21-.68-2.14-.68-1.52,0-2.7.75-3.54,2.23-.83,1.49-1.26,3.18-1.26,5.08,0,1.3.28,2.36.81,3.18.54.83,1.36,1.24,2.44,1.24s2-.32,2.63-.96c.62-.63,1.09-1.45,1.38-2.45h-3.53l.57-3.44h6.89l-.58,3.33s-.44,2.27-1.8,4.13h0Z"/>
    <path id="path7" class="cls-4" d="M276.68,381.74c-1.36,1.86-2.67,2.21-3.36,2.6-.7.39-1.44.58-2.23.58-2.2,0-3.92-.72-5.16-2.16-1.23-1.43-1.85-3.45-1.85-6.06,0-3.09.78-5.71,2.34-7.87,1.56-2.16,3.64-3.24,6.22-3.24,1.97,0,3.57.55,4.83,1.66,1.25,1.11,1.88,2.83,1.88,5.19h-3.8c0-1.13-.25-1.92-.75-2.37-.49-.46-1.21-.68-2.14-.68-1.52,0-2.69.75-3.53,2.24-.84,1.48-1.26,3.18-1.26,5.08,0,1.3.27,2.36.81,3.18.54.82,1.36,1.23,2.44,1.23s2-.32,2.63-.95c.62-.64,1.09-1.46,1.39-2.46h-3.54l.58-3.44h6.89l-.58,3.33s-.44,2.27-1.81,4.14h0Z"/>
    <polygon id="polygon9" class="cls-4" points="293.27 346.32 290.19 364.7 286.87 364.7 289.48 350.46 283.72 364.7 281 364.7 279.74 350.46 277.76 364.7 274.41 364.7 277.47 346.32 282.18 346.32 283.24 359.27 288.53 346.29 293.27 346.32"/>
    <polygon id="polygon11" class="cls-4" points="296.78 353.44 302.2 353.44 301.63 357 296.21 357 295.52 360.92 301.63 360.92 301.03 364.7 291.39 364.7 294.44 346.3 303.96 346.3 303.38 350.11 297.38 350.11 296.78 353.44"/>
    <path id="path13" class="cls-4" d="M267.9,346.29l-7.41,18.42h3.61l1.32-3.59h4.73l.31,3.59h3.5l-2.09-18.42h-3.96ZM266.57,357.97l2.69-7.33.62,7.33h-3.31Z"/>
    <polygon id="polygon15" class="cls-4" points="283.76 373.21 289.17 373.21 288.61 376.76 283.2 376.76 282.49 380.68 288.61 380.68 288.01 384.47 278.37 384.47 281.42 366.06 290.94 366.06 290.36 369.87 284.36 369.87 283.76 373.21"/>
    <path id="path17" class="cls-4" d="M295.74,366.05l-7.41,18.42h3.62l1.32-3.59h4.73l.31,3.59h3.49l-2.1-18.42h-3.96ZM294.42,377.73l2.68-7.33.63,7.33h-3.31Z"/>
    <path id="path19" class="cls-4" d="M307.39,374.15l.81-4.53h1.93c.71,0,1.24.13,1.6.38.36.26.53.78.53,1.56,0,.87-.29,1.52-.86,1.95-.58.43-1.31.64-2.2.64h-1.81ZM305.21,366.06l-3.05,18.41h3.53l1.18-7.02h1.63l2.73,7.02h4.04l-3.02-7.77c1.05-.54,1.96-1.43,2.59-2.36.66-.96.99-2.08.99-3.36,0-1.74-.39-2.99-1.18-3.76-.78-.77-1.89-1.15-3.31-1.15h-6.13Z"/>
  </g>
  <path id="path21" class="cls-13" d="M257.57,324.48c5.64-6.47,12.44-9.93,15.18-7.76,2.74,2.18.39,9.19-5.26,15.65-5.64,6.47-12.44,9.93-15.17,7.75-2.75-2.18-.39-9.19,5.25-15.65Z"/>
  <path class="cls-11" d="M208.03,473.84c0,42.28-34.29,76.56-76.57,76.56-12.68,0-24.62-3.08-35.15-8.53-16.27-14.04-26.57-34.82-26.57-58,0-42.28,34.27-76.56,76.56-76.56,12.68,0,24.62,3.08,35.15,8.53,16.27,14.04,26.59,34.82,26.59,58Z"/>
  <path id="path23" class="cls-14" d="M279.99,324.5c5.79-6.42,12.77-9.87,15.59-7.7,2.81,2.17.4,9.13-5.4,15.55-5.79,6.43-12.77,9.88-15.58,7.71-2.81-2.17-.4-9.13,5.39-15.56Z"/>
  <path id="path25" class="cls-8" d="M301.77,324.5c5.79-6.42,12.78-9.87,15.59-7.7,2.81,2.17.4,9.13-5.39,15.55-5.79,6.43-12.78,9.88-15.59,7.71-2.81-2.17-.4-9.13,5.39-15.56Z"/>
  <g>
    <path class="cls-4" d="M679.83,355.21h11.7c4.79-.01,8.67-3.88,8.67-8.65s-3.88-8.65-8.67-8.65l-3.04.02c-.24,0-.43-.2-.43-.44s.19-.44.43-.44h11.68s0-3.66,0-3.66h-11.69c-2.26,0-4.1,1.84-4.1,4.09s1.84,4.09,4.1,4.09l3.05.04c2.74,0,4.96,2.21,4.96,4.94s-2.22,4.95-4.96,4.95h-11.71v3.71Z"/>
    <path class="cls-4" d="M679.84,350.64h11.71c2.27,0,4.1-1.83,4.1-4.09s-1.83-4.08-4.1-4.08l-3.05-.03c-2.74,0-4.96-2.22-4.96-4.95s2.22-4.94,4.96-4.94h11.69s0-3.68,0-3.68h-11.68c-4.78,0-8.67,3.86-8.67,8.64s3.89,8.64,8.67,8.64h3.02c.23,0,.42.19.42.43s-.19.42-.42.42h-11.69s0,3.66,0,3.66ZM709.28,351.53c-2.03,0-3.69-1.62-3.69-3.68v-11.69c0-1.99,1.66-3.62,3.69-3.62h12.49s0-3.67,0-3.67h-12.49c-4.07,0-7.36,3.28-7.36,7.33v11.65c0,4.05,3.29,7.34,7.36,7.34h12.44s0-3.66,0-3.66h-12.44Z"/>
    <path class="cls-4" d="M706.48,336.19c0-1.55,1.25-2.81,2.8-2.81h12.49v3.68h-10.76c-.86,0-.87.86-.87.86h8.98v3.66h-12.64v-5.39ZM709.28,350.63c-1.55,0-2.8-1.25-2.8-2.79v-5.39h12.64v3.67h-8.98c.01.86.87.87.87.87h10.71v3.65s-12.44,0-12.44,0ZM730.53,351.52c-2.02,0-3.68-1.65-3.68-3.68v-11.65c0-2.03,1.64-3.66,3.67-3.66h12.1v-3.67h-12.13c-4.06,0-7.36,3.28-7.36,7.33v11.65c0,4.05,3.32,7.34,7.39,7.34h12.1s0-17.26,0-17.26h-10.4v3.66h6.72v9.94h-8.42Z"/>
    <path class="cls-4" d="M727.71,347.84c0,1.55,1.26,2.82,2.81,2.82h7.56v-8.21h-5.85v3.67h2.17v.86s-2.15,0-2.15,0c-.47,0-.86-.39-.86-.86l-.02-8.2s0-.85.87-.87h10.39v-3.66s-12.11,0-12.11,0c-1.55,0-2.81,1.26-2.81,2.81v11.65M753.99,333.33c.22-.62.9-.95,1.53-.73.34.12.61.39.73.73l5.87,17.35h-8.6v-4.08h2.88l-1.29-3.85-4.22,12.43h-4.34l7.43-21.85Z"/>
    <path class="cls-4" d="M763.31,351.52h-9.77v3.67h14.87l-7.73-22.88c-.68-2.23-2.91-3.87-5.56-3.87s-4.88,1.63-5.56,3.86l-7.8,22.89h3.89l7.58-22.25c.32-.76,1.06-1.26,1.89-1.26.82,0,1.57.49,1.89,1.25l6.31,18.59Z"/>
  </g>
  <path class="cls-10" d="M701.05,255.82l-370.57,370.57c-30.01-9.3-47.41-48-56.45-66.37-10.06-20.46-109.32-296.01-109.32-296.01,181.77-13.32,360.64-16.37,536.34-8.19Z"/>
</svg>