<svg xmlns="http://www.w3.org/2000/svg" id="Layer_1" data-name="Layer 1" viewBox="0 0 1000 1000"><defs><style>.cls-2{fill:#433a63}.cls-3{fill:#1a134a}.cls-5{fill:#8b2e63}.cls-7{fill:#981c51}.cls-9{fill:#8b8a86}.cls-12{fill:#bfbeb8}.cls-13{fill:#353533}</style></defs><path d="M790.18 44.42v802.83c0 72.29-58.6 130.89-130.9 130.89H233.09c-12.46 0-22.56-10.09-22.56-22.55V44.42c0-12.45 10.1-22.55 22.56-22.55h534.53c12.46 0 22.56 10.1 22.56 22.55" style="fill:#d8d6d6"/><path d="M272.19 98.71h451.27c10.15 0 18.39 8.24 18.39 18.39v277.21c0 41.25-33.49 74.75-74.75 74.75H272.19c-10.15 0-18.39-8.24-18.39-18.39V117.1c0-10.15 8.24-18.39 18.39-18.39" style="fill:#7b7883"/><circle cx="713.37" cy="637.5" r="35.09" class="cls-7"/><circle cx="618.13" cy="682.16" r="35.09" class="cls-7"/><path d="M343.48 138.22h313.75v283.67H343.48z" style="fill:#9ca93a"/><circle cx="290.05" cy="238.61" r="7.39" class="cls-13"/><path d="M394.49 646.33h-38.76c-2.3 0-4.17-1.87-4.17-4.17V603.4c0-2.3-1.87-4.17-4.17-4.17h-35.41c-2.3 0-4.17 1.87-4.17 4.17v38.76c0 2.3-1.87 4.17-4.17 4.17h-38.76c-2.3 0-4.17 1.87-4.17 4.17v35.41c0 2.3 1.87 4.17 4.17 4.17h38.76c2.3 0 4.17 1.87 4.17 4.17v38.76c0 2.3 1.87 4.17 4.17 4.17h35.41c2.3 0 4.17-1.87 4.17-4.17v-38.76c0-2.3 1.87-4.17 4.17-4.17h38.76c2.3 0 4.17-1.87 4.17-4.17V650.5c0-2.3-1.87-4.17-4.17-4.17" class="cls-13"/><rect width="70.29" height="18.01" x="387.38" y="800.72" class="cls-9" rx="8.61" ry="8.61" transform="rotate(-27.14 422.462 809.65)"/><rect width="70.29" height="18.01" x="484.59" y="800.72" class="cls-9" rx="8.61" ry="8.61" transform="rotate(-27.14 519.662 809.656)"/><rect width="99.91" height="14.69" x="690.76" y="826.14" class="cls-12" rx="7.34" ry="7.34" transform="rotate(60 740.716 833.477)"/><rect width="99.91" height="14.69" x="662.18" y="841.92" class="cls-12" rx="7.34" ry="7.34" transform="rotate(60 712.135 849.274)"/><rect width="99.91" height="14.69" x="633.6" y="858.3" class="cls-12" rx="7.34" ry="7.34" transform="rotate(60 683.557 865.635)"/><rect width="99.91" height="14.69" x="605.03" y="875.65" class="cls-12" rx="7.34" ry="7.34" transform="rotate(60 654.975 882.99)"/><rect width="99.91" height="14.69" x="576.45" y="891.96" class="cls-12" rx="7.34" ry="7.34" transform="rotate(60 626.403 899.302)"/><rect width="99.91" height="14.69" x="547.87" y="908.64" class="cls-12" rx="7.34" ry="7.34" transform="rotate(60 597.821 915.977)"/><path d="M789.47 820.65v26.6c0 72.29-58.6 130.89-130.9 130.89H518.35z" style="fill:#6e6a58;opacity:.06"/><path d="M276.66 112.34h130.03v3.49H276.66z" class="cls-5"/><path d="M276.66 121.11h130.03v3.49H276.66z" class="cls-3"/><path d="M666.78 112.34h56.62v3.49h-56.62z" class="cls-5"/><path d="M666.78 121.11h56.62v3.49h-56.62z" class="cls-3"/><path d="M747.51 62.09V21.86h-10.03v40.23H263.1V21.86h-10.02v40.23h-43.26v10.02h579.65V62.09z" style="fill:#cccccb"/><path d="M242.35 490.98h6.81c4.73 0 8.28 1.53 8.28 4.9 0 2.4-1.88 3.88-4.68 4.53l6.08 8.08h-5.36l-5.73-7.73h-.7v7.73h-4.7v-17.52Zm4.71 1.18v7.43h1.15c2.7 0 4.38-1.18 4.38-3.65s-1.68-3.78-4.35-3.78z" class="cls-2"/><path d="M265.33 508.75c-4.45 0-7.36-2.35-7.36-6.36s2.93-6.13 7.36-6.13 7.36 2.13 7.36 6.13-2.85 6.36-7.36 6.36m0-.78c1.73 0 2.9-1.6 2.9-5.58s-1.18-5.35-2.9-5.35-2.9 1.38-2.9 5.35 1.18 5.58 2.9 5.58m26.06.53v-7.93c0-2.03-.48-3.23-1.65-3.23-1.25 0-2.63.9-2.63 4.28v6.88h-4.45v-8.16c0-1.88-.33-3-1.65-3-1.1 0-2.55 1.18-2.63 3.93v7.23H274v-11.96h4.38v1.9c.43-1.33 2.13-2.18 4.28-2.18 1.63 0 3.45.63 4.15 2.28.5-1.28 1.7-2.28 4.15-2.28s4.85.98 4.85 4.8v7.43h-4.43Zm23.75 0v-7.93c0-2.03-.48-3.23-1.65-3.23-1.25 0-2.63.9-2.63 4.28v6.88h-4.45v-8.16c0-1.88-.33-3-1.65-3-1.1 0-2.55 1.18-2.63 3.93v7.23h-4.38v-11.96h4.38v1.9c.43-1.33 2.13-2.18 4.28-2.18 1.63 0 3.45.63 4.15 2.28.5-1.28 1.7-2.28 4.15-2.28s4.85.98 4.85 4.8v7.43h-4.43Zm11.62-11.96h3.33v1.05h-3.33v7.71c0 2 .83 2.43 1.68 2.43.53 0 1.28-.15 1.88-.5l.35.65c-1.25.63-1.9.88-3.43.88-3.28 0-4.9-1.2-4.9-4.1v-7.06h-1.8v-1.05h1.8l3.5-4.13h.93v4.13Zm17.69 5.53v.6h-9.43c.05 3.3 1.5 4.78 3.88 4.78 2.2 0 3.63-.75 4.83-1.78l.63.43c-1.08 1.25-2.75 2.65-6.21 2.65-4.55 0-7.51-2.15-7.51-6.28 0-3.73 2.4-6.21 6.93-6.21s6.88 2.38 6.88 5.81m-9.43-.25h5.18c-.05-3.43-1.1-4.8-2.63-4.8s-2.45 1.35-2.55 4.8m15.17-3.16c.58-1.48 1.73-2.4 3.83-2.4 3.08 0 5.03 1.43 5.03 4.35v7.88h-4.43v-7.66c0-2.65-.4-3.5-1.6-3.5-1.58 0-2.68 1.45-2.83 4.13v7.03h-4.43v-11.96h4.43zm20.9 9.84-.48-2.3c-.7 1.93-2.1 2.58-4.25 2.58-3.75 0-6.08-2-6.08-6.26s2.33-6.26 6.08-6.26c1.9 0 3.23.53 3.98 1.98v-8.51h4.43v18.77zm-6.14-5.98c0 3.68.78 5.18 2.55 5.18s2.8-1.5 2.8-5.18-.98-5.18-2.8-5.18-2.55 1.5-2.55 5.18m18.5 6.23c-4.45 0-7.36-2.35-7.36-6.36s2.93-6.13 7.36-6.13 7.36 2.13 7.36 6.13-2.85 6.36-7.36 6.36m0-.78c1.73 0 2.9-1.6 2.9-5.58s-1.18-5.35-2.9-5.35-2.9 1.38-2.9 5.35 1.18 5.58 2.9 5.58m18.58-27.1c.04-.4.4-.76.76-.76h9.02c4.41 0 7.25 3.53 7.25 7.81 0 3.89-2.64 7.69-6.57 8.94l3.49 10.14c.2.52-.08 1.16-.68 1.16h-1.96c-.24 0-.48-.2-.52-.36l-3.29-10.62h-6.73l-1.44 10.22c-.04.4-.4.76-.76.76h-1.72c-.4 0-.64-.36-.56-.76l3.73-26.53Zm7.73 13.66c3.41 0 6.13-2.93 6.13-6.57 0-2.64-1.84-4.93-4.49-4.93h-6.53l-1.64 11.5zm10.81-.36c1.16-8.01 7.45-14.46 15.03-14.46 7.05 0 12.3 6.45 11.14 14.46-1.12 8.01-7.37 14.38-15.03 14.38-7.05 0-12.22-6.37-11.14-14.38m23.33 0c.92-6.37-2.96-11.66-8.61-11.66s-10.94 5.29-11.86 11.66c-.88 6.37 2.97 11.58 8.62 11.58s10.98-5.21 11.86-11.58Zm11.41-13.9c.12-.4.44-.56.84-.56h.56c.4 0 .68.2.72.44l3.89 22h.08l10.14-22c.12-.24.36-.44.76-.44h.56c.4 0 .72.24.72.56l.88 26.93c0 .56-.32.96-.92.96h-1.4c-.48 0-.72-.28-.72-.56l-.4-20.04h-.04l-9.42 20.56c-.12.24-.44.44-.76.44h-.52c-.44 0-.68-.2-.72-.44l-3.69-20.92h-.04l-6.05 20.4c-.08.28-.36.56-.84.56h-1.4c-.6 0-.76-.44-.6-.96zm29.57 0c.12-.4.44-.56.84-.56h.56c.4 0 .68.2.72.44l3.89 22h.08l10.14-22c.12-.24.36-.44.76-.44h.56c.4 0 .72.24.72.56l.88 26.93c0 .56-.32.96-.92.96h-1.4c-.48 0-.72-.28-.72-.56l-.4-20.04h-.04l-9.42 20.56c-.12.24-.44.44-.76.44h-.52c-.44 0-.68-.2-.72-.44l-3.69-20.92h-.04l-6.05 20.4c-.08.28-.36.56-.84.56h-1.4c-.6 0-.76-.44-.6-.96zm33.45.6c.08-.4.4-.76.8-.76h7.97c3.97 0 6.45 2.89 6.45 6.37 0 3.73-2.52 6.21-4.57 7.41 1.6.8 3.53 2.56 3.53 5.61 0 4.93-3.49 8.66-9.02 8.66h-8.29c-.4 0-.64-.36-.6-.76zm5.73 24.6c2.77 0 5.09-2.56 5.09-5.69 0-2.48-1.84-4.33-4.29-4.33h-5.61l-1.4 10.02zm1.2-12.78c2.97 0 4.89-2.64 4.89-5.89 0-2.32-1.2-3.93-3.53-3.93h-5.53l-1.4 9.82zm10.38 1.48c1.16-8.01 7.45-14.46 15.03-14.46 7.05 0 12.3 6.45 11.14 14.46-1.12 8.01-7.37 14.38-15.03 14.38-7.05 0-12.22-6.37-11.14-14.38m23.32 0c.92-6.37-2.96-11.66-8.62-11.66s-10.94 5.29-11.86 11.66c-.88 6.37 2.96 11.58 8.62 11.58s10.98-5.21 11.86-11.58m11.06.48-6.81-13.58c-.24-.48 0-.96.56-.96h1.84c.28 0 .48.2.56.36l5.57 11.42h.08l8.89-11.42c.12-.16.36-.36.64-.36h1.92c.6 0 .76.64.4 1.16l-10.58 13.34-1.8 12.78c-.04.4-.44.76-.8.76h-1.68c-.4 0-.64-.36-.6-.76l1.8-12.74Z" class="cls-2"/><path d="M416.36 113.7h3.89c.88 0 1.66.15 2.37.44.7.29 1.27.69 1.69 1.19.43.5.75 1.06.98 1.67.22.62.34 1.26.34 1.93s-.11 1.37-.32 2.01-.53 1.22-.95 1.74-.99.94-1.69 1.25c-.71.31-1.51.47-2.4.47h-3.89v-10.7Zm6.91 8.14c.69-.82 1.03-1.79 1.03-2.92s-.35-2-1.05-2.78c-.7-.77-1.7-1.16-2.99-1.16h-2.56v8.09h2.56c1.32 0 2.33-.41 3.01-1.23m12.46-6.66c.95 1.09 1.42 2.39 1.41 3.91 0 .71-.11 1.39-.34 2.04s-.56 1.24-.99 1.76-1 .94-1.7 1.25-1.5.47-2.38.47-1.68-.16-2.39-.47-1.28-.73-1.71-1.25-.76-1.11-.99-1.75c-.23-.65-.34-1.33-.34-2.05 0-1.59.5-2.91 1.49-3.97s2.31-1.59 3.96-1.59q2.565.015 3.99 1.65Zm-.33 1.83c-.28-.64-.75-1.17-1.38-1.59s-1.4-.65-2.28-.66c-1.3 0-2.31.41-3.04 1.24s-1.08 1.86-1.08 3.09.36 2.19 1.07 3.02 1.73 1.25 3.05 1.25 2.32-.42 3.02-1.27 1.05-1.85 1.05-3.01c.01-.75-.13-1.45-.41-2.08Zm1.52-2.1v-1.19h8.61v1.19h-3.65v9.49h-1.31v-9.49zm17.52 6.13h-.27l-3.88-5.43v8.79h-1.31v-10.68h1.59l3.75 5.49 3.72-5.49h1.59v10.68h-1.31v-8.76zm12.31-7.32 4.79 10.68h-1.43l-1.05-2.35h-6.1l-1.04 2.35h-1.45l4.79-10.68h1.5Zm-.75 1.34-2.53 5.77h5.07l-2.53-5.77Zm4.22-.15v-1.19h8.61v1.19h-3.65v9.49h-1.31v-9.49zm13.36 5.65h-2.59v3.85h-1.33v-10.68h4.85c1.14 0 2.03.34 2.66 1.01.64.67.95 1.47.95 2.41 0 .88-.24 1.62-.75 2.25s-1.28.98-2.32 1.06l3.53 3.95h-1.68l-3.33-3.85Zm2.62-1.81c.4-.41.6-.94.6-1.58 0-.59-.19-1.11-.6-1.57s-.97-.69-1.69-.69h-3.53v4.46h3.46c.76 0 1.35-.21 1.75-.62Zm3.48-5.03h1.33v10.68h-1.33zm11.23.01v.05l-3.62 5.17 3.83 5.42v.03h-1.53l-3.16-4.49-3.16 4.49h-1.53v-.03l3.83-5.42-3.62-5.17v-.05h1.54l2.93 4.32 2.96-4.32h1.51Zm3.89-.01 2.95 8.83 2.96-8.83h.85l2.99 8.83 2.91-8.83h1.51l-3.74 10.7h-1.33l-2.78-8-2.76 8h-1.34l-3.72-10.7zm15.15 0h1.33v10.68h-1.33zm2.16 1.19v-1.19h8.61v1.19h-3.65v9.49h-1.31v-9.49zm16.87 4.67h-6.1v4.82h-1.33v-10.68h1.33v4.62h6.1v-4.62h1.33v10.68h-1.33zm11.86-4.54a4.7 4.7 0 0 0-1.77-.36c-.76 0-1.42.15-1.98.47-.55.31-.83.77-.83 1.37q0 .405.21.72c.14.2.36.37.66.5s.59.24.89.31c.3.08.68.15 1.14.22.53.08.96.16 1.28.23.33.07.7.19 1.12.34s.75.34.98.54.43.48.6.83.25.76.25 1.23q0 .855-.39 1.5c-.26.43-.6.76-1.04.99s-.89.41-1.38.52-1 .17-1.54.17q-1.53 0-2.73-.6c-1.2-.6-1.4-1.02-1.79-1.87l1.1-.64c.33.6.81 1.06 1.44 1.39.64.33 1.3.49 1.99.49.36 0 .7-.03 1.03-.09s.65-.16.96-.31c.31-.14.56-.35.75-.62s.28-.59.28-.97c0-.32-.08-.59-.24-.82s-.39-.42-.71-.56-.63-.25-.95-.34c-.32-.08-.71-.16-1.18-.23-.49-.07-.9-.15-1.23-.22-.33-.08-.69-.19-1.08-.34s-.7-.32-.93-.52-.43-.46-.59-.78a2.45 2.45 0 0 1-.24-1.11c-.01-.53.11-.99.36-1.4s.58-.71.99-.94c.41-.22.85-.39 1.31-.5s.94-.16 1.43-.16c.92 0 1.71.14 2.38.41s1.23.78 1.66 1.53l-1.01.63c-.28-.45-.69-.79-1.24-1.01Zm2.66-.13v-1.19h8.61v1.19h-3.65v9.49h-1.31v-9.49zm9.44-1.19h7.51v1.22h-6.2v3.34h5.94v1.24h-5.94v3.62h6.44v1.27h-7.75v-10.68Zm13.02 6.84h-2.59v3.85h-1.33v-10.68h4.85c1.14 0 2.03.34 2.66 1.01.64.67.95 1.47.95 2.41 0 .88-.24 1.62-.75 2.25s-1.28.98-2.32 1.06l3.53 3.95h-1.68l-3.33-3.85Zm2.61-1.81c.4-.41.6-.94.6-1.58 0-.59-.19-1.11-.6-1.57s-.97-.69-1.69-.69h-3.52v4.46h3.46c.76 0 1.35-.21 1.75-.62m3.49-5.03h7.51v1.22h-6.2v3.34h5.94v1.24h-5.94v3.62h6.44v1.27h-7.75v-10.68Zm17.73 1.46c.95 1.09 1.42 2.39 1.41 3.91 0 .71-.11 1.39-.34 2.04s-.56 1.24-.99 1.76-1 .94-1.7 1.25-1.5.47-2.38.47-1.68-.16-2.39-.47-1.28-.73-1.71-1.25-.76-1.11-.99-1.75c-.23-.65-.34-1.33-.34-2.05 0-1.59.5-2.91 1.49-3.97s2.31-1.59 3.96-1.59q2.565.015 3.99 1.65Zm-.33 1.83q-.435-.96-1.38-1.59c-.945-.63-1.4-.65-2.28-.66-1.3 0-2.31.41-3.04 1.24q-1.08 1.245-1.08 3.09c0 1.845.36 2.19 1.07 3.02s1.73 1.25 3.05 1.25 2.32-.42 3.02-1.27c.7-.84 1.05-1.85 1.05-3.01 0-.75-.13-1.45-.41-2.08Zm11.59-1.97a4.7 4.7 0 0 0-1.77-.36c-.76 0-1.42.15-1.98.47-.55.31-.83.77-.83 1.37q0 .405.21.72c.14.2.36.37.66.5s.59.24.89.31c.3.08.68.15 1.14.22.53.08.96.16 1.28.23.33.07.7.19 1.12.34s.75.34.98.54.43.48.6.83.25.76.25 1.23q0 .855-.39 1.5c-.26.43-.6.76-1.04.99s-.89.41-1.38.52-1 .17-1.54.17q-1.53 0-2.73-.6c-1.2-.6-1.4-1.02-1.79-1.87l1.1-.64c.33.6.81 1.06 1.44 1.39.64.33 1.3.49 1.99.49.36 0 .7-.03 1.03-.09s.65-.16.96-.31c.31-.14.56-.35.75-.62s.28-.59.28-.97c0-.32-.08-.59-.24-.82s-.39-.42-.71-.56-.63-.25-.95-.34c-.32-.08-.71-.16-1.18-.23-.49-.07-.9-.15-1.23-.22-.33-.08-.69-.19-1.08-.34s-.7-.32-.93-.52-.43-.46-.59-.78a2.45 2.45 0 0 1-.24-1.11c-.01-.53.11-.99.36-1.4s.58-.71.99-.94c.41-.22.85-.39 1.31-.5s.94-.16 1.43-.16c.92 0 1.71.14 2.38.41s1.23.78 1.66 1.53l-1.01.63c-.28-.45-.69-.79-1.24-1.01Zm12.6.14c.95 1.09 1.42 2.39 1.41 3.91 0 .71-.11 1.39-.34 2.04s-.56 1.24-.99 1.76-1 .94-1.7 1.25-1.5.47-2.38.47-1.68-.16-2.39-.47-1.28-.73-1.71-1.25-.76-1.11-.99-1.75c-.23-.65-.34-1.33-.34-2.05 0-1.59.5-2.91 1.49-3.97s2.31-1.59 3.96-1.59q2.565.015 3.99 1.65Zm-.33 1.83q-.435-.96-1.38-1.59c-.945-.63-1.4-.65-2.28-.66-1.3 0-2.31.41-3.04 1.24q-1.08 1.245-1.08 3.09c0 1.845.36 2.19 1.07 3.02s1.73 1.25 3.05 1.25 2.32-.42 3.02-1.27c.7-.84 1.05-1.85 1.05-3.01 0-.75-.13-1.45-.41-2.08Zm11.65-3.28v6.41c0 1.41-.41 2.51-1.24 3.29q-1.245 1.17-3.09 1.17c-1.845 0-2.25-.39-3.1-1.16s-1.27-1.87-1.27-3.3v-6.41h1.31v6.41c0 1.02.29 1.81.88 2.38s1.32.85 2.18.85 1.58-.29 2.16-.87.86-1.37.86-2.38v-6.41h1.3l.02.02Zm2.81-.01 6.55 8.18v-8.18h1.31v10.68h-.92l-6.56-8.15v8.15h-1.31v-10.68zm9.85-.02h3.89c.88 0 1.66.15 2.37.44.7.29 1.27.69 1.69 1.19.43.5.75 1.06.98 1.67.22.62.33 1.26.33 1.93s-.11 1.37-.32 2.01-.53 1.22-.95 1.74-.99.94-1.69 1.25c-.71.31-1.51.47-2.4.47h-3.89v-10.7Zm6.9 8.14c.69-.82 1.03-1.79 1.03-2.92s-.35-2-1.05-2.78c-.7-.77-1.7-1.16-2.99-1.16h-2.56v8.09h2.56c1.32 0 2.33-.41 3.01-1.23M276.35 260.12c.68 0 1.25.17 1.7.51s.68.83.68 1.47c0 .33-.09.62-.27.88s-.44.45-.78.58c.41.11.72.34.94.66.22.33.33.67.33 1.03s-.07.68-.21.94-.34.47-.59.61-.53.24-.82.31c-.29.06-.62.1-.98.1h-3.1v-7.09zm-2.22 3.05h2.26c.45 0 .8-.09 1.07-.26s.4-.44.4-.8c0-.39-.14-.68-.42-.89s-.64-.31-1.09-.31h-2.22v2.25Zm0 3.21h2.22c.21 0 .41-.02.59-.05s.36-.09.55-.17c.18-.08.33-.2.43-.35.1-.16.16-.35.16-.58 0-.41-.18-.72-.52-.94-.34-.21-.73-.32-1.17-.32h-2.26zm9.72-6.26 3.18 7.09h-.95l-.7-1.56h-4.05l-.69 1.56h-.96l3.18-7.09zm-.5.89-1.68 3.83h3.36zm3.55-.1v-.79h5.71v.79h-2.42v6.3h-.87v-6.3zm6.25 0v-.79h5.71v.79h-2.42v6.3h-.87v-6.3zm7.02-.79h4.98v.81h-4.11v2.22h3.94v.82h-3.94v2.4h4.28v.84h-5.15zm9.39 4.54h-1.72v2.55h-.88v-7.09h3.22c.76 0 1.35.22 1.77.67s.63.98.63 1.6c0 .58-.16 1.08-.5 1.49-.34.42-.85.65-1.54.7l2.34 2.62h-1.11l-2.21-2.55Zm1.74-1.2c.27-.27.4-.62.4-1.05 0-.39-.12-.74-.4-1.04-.27-.3-.65-.46-1.12-.46h-2.34v2.96h2.3c.51 0 .89-.14 1.16-.41m2-3.31v-.03h1.07l2.13 3.36 2.18-3.36h1.07v.03l-2.8 4.18v2.88h-.91v-2.88l-2.75-4.18Z" style="fill:#e5e5e5"/></svg>