<?xml version="1.0" encoding="UTF-8"?>
<svg id="Layer_1" data-name="Layer 1" xmlns="http://www.w3.org/2000/svg" viewBox="0 0 1000 1000">
  <defs>
    <style>
      .cls-1 {
        fill: #cccccb;
      }

      .cls-2 {
        fill: #433a63;
      }

      .cls-3 {
        fill: #1a134a;
      }

      .cls-4 {
        fill: #9ca93a;
      }

      .cls-5 {
        fill: #8b2e63;
      }

      .cls-6 {
        fill: #e5e5e5;
      }

      .cls-7 {
        fill: #981c51;
      }

      .cls-8 {
        fill: #6e6a58;
        opacity: .06;
      }

      .cls-9 {
        fill: #8b8a86;
      }

      .cls-10 {
        fill: #7b7883;
      }

      .cls-11 {
        fill: #d8d6d6;
      }

      .cls-12 {
        fill: #bfbeb8;
      }

      .cls-13 {
        fill: #353533;
      }
    </style>
  </defs>
  <path class="cls-11" d="M790.18,44.42v802.83c0,72.29-58.6,130.89-130.9,130.89H233.09c-12.46,0-22.56-10.09-22.56-22.55V44.42c0-12.45,10.1-22.55,22.56-22.55h534.53c12.46,0,22.56,10.1,22.56,22.55Z"/>
  <path class="cls-10" d="M272.19,98.71h451.27c10.15,0,18.39,8.24,18.39,18.39v277.21c0,41.25-33.49,74.75-74.75,74.75h-394.91c-10.15,0-18.39-8.24-18.39-18.39V117.1c0-10.15,8.24-18.39,18.39-18.39Z"/>
  <circle class="cls-7" cx="713.37" cy="637.5" r="35.09"/>
  <circle class="cls-7" cx="618.13" cy="682.16" r="35.09"/>
  <rect class="cls-4" x="343.48" y="138.22" width="313.75" height="283.67"/>
  <circle class="cls-13" cx="290.05" cy="238.61" r="7.39"/>
  <path class="cls-13" d="M394.49,646.33h-38.76c-2.3,0-4.17-1.87-4.17-4.17v-38.76c0-2.3-1.87-4.17-4.17-4.17h-35.41c-2.3,0-4.17,1.87-4.17,4.17v38.76c0,2.3-1.87,4.17-4.17,4.17h-38.76c-2.3,0-4.17,1.87-4.17,4.17v35.41c0,2.3,1.87,4.17,4.17,4.17h38.76c2.3,0,4.17,1.87,4.17,4.17v38.76c0,2.3,1.87,4.17,4.17,4.17h35.41c2.3,0,4.17-1.87,4.17-4.17v-38.76c0-2.3,1.87-4.17,4.17-4.17h38.76c2.3,0,4.17-1.87,4.17-4.17v-35.41c0-2.3-1.87-4.17-4.17-4.17Z"/>
  <rect class="cls-9" x="387.38" y="800.72" width="70.29" height="18.01" rx="8.61" ry="8.61" transform="translate(-322.82 281.86) rotate(-27.14)"/>
  <rect class="cls-9" x="484.59" y="800.72" width="70.29" height="18.01" rx="8.61" ry="8.61" transform="translate(-312.12 326.2) rotate(-27.14)"/>
  <rect class="cls-12" x="690.76" y="826.14" width="99.91" height="14.69" rx="7.34" ry="7.34" transform="translate(1092.17 -224.74) rotate(60)"/>
  <rect class="cls-12" x="662.18" y="841.92" width="99.91" height="14.69" rx="7.34" ry="7.34" transform="translate(1091.56 -192.09) rotate(60)"/>
  <rect class="cls-12" x="633.6" y="858.3" width="99.91" height="14.69" rx="7.34" ry="7.34" transform="translate(1091.44 -159.16) rotate(60)"/>
  <rect class="cls-12" x="605.03" y="875.65" width="99.91" height="14.69" rx="7.34" ry="7.34" transform="translate(1092.18 -125.73) rotate(60)"/>
  <rect class="cls-12" x="576.45" y="891.96" width="99.91" height="14.69" rx="7.34" ry="7.34" transform="translate(1092.02 -92.83) rotate(60)"/>
  <rect class="cls-12" x="547.87" y="908.64" width="99.91" height="14.69" rx="7.34" ry="7.34" transform="translate(1092.17 -59.74) rotate(60)"/>
  <path class="cls-8" d="M789.47,820.65v26.6c0,72.29-58.6,130.89-130.9,130.89h-140.22l271.12-157.49Z"/>
  <rect class="cls-5" x="276.66" y="112.34" width="130.03" height="3.49"/>
  <rect class="cls-3" x="276.66" y="121.11" width="130.03" height="3.49"/>
  <rect class="cls-5" x="666.78" y="112.34" width="56.62" height="3.49"/>
  <rect class="cls-3" x="666.78" y="121.11" width="56.62" height="3.49"/>
  <polygon class="cls-1" points="747.51 62.09 747.51 21.86 737.48 21.86 737.48 62.09 263.1 62.09 263.1 21.86 253.08 21.86 253.08 62.09 209.82 62.09 209.82 72.11 789.47 72.11 789.47 62.09 747.51 62.09"/>
  <g>
    <path class="cls-2" d="M242.35,490.98h6.81c4.73,0,8.28,1.53,8.28,4.9,0,2.4-1.88,3.88-4.68,4.53l6.08,8.08h-5.36l-5.73-7.73h-.7v7.73h-4.7v-17.52ZM247.06,492.16v7.43h1.15c2.7,0,4.38-1.18,4.38-3.65s-1.68-3.78-4.35-3.78h-1.18Z"/>
    <path class="cls-2" d="M265.33,508.75c-4.45,0-7.36-2.35-7.36-6.36s2.93-6.13,7.36-6.13,7.36,2.13,7.36,6.13-2.85,6.36-7.36,6.36ZM265.33,507.97c1.73,0,2.9-1.6,2.9-5.58s-1.18-5.35-2.9-5.35-2.9,1.38-2.9,5.35,1.18,5.58,2.9,5.58Z"/>
    <path class="cls-2" d="M291.39,508.5v-7.93c0-2.03-.48-3.23-1.65-3.23-1.25,0-2.63.9-2.63,4.28v6.88h-4.45v-8.16c0-1.88-.33-3-1.65-3-1.1,0-2.55,1.18-2.63,3.93v7.23h-4.38v-11.96h4.38v1.9c.43-1.33,2.13-2.18,4.28-2.18,1.63,0,3.45.63,4.15,2.28.5-1.28,1.7-2.28,4.15-2.28s4.85.98,4.85,4.8v7.43h-4.43Z"/>
    <path class="cls-2" d="M315.14,508.5v-7.93c0-2.03-.48-3.23-1.65-3.23-1.25,0-2.63.9-2.63,4.28v6.88h-4.45v-8.16c0-1.88-.33-3-1.65-3-1.1,0-2.55,1.18-2.63,3.93v7.23h-4.38v-11.96h4.38v1.9c.43-1.33,2.13-2.18,4.28-2.18,1.63,0,3.45.63,4.15,2.28.5-1.28,1.7-2.28,4.15-2.28s4.85.98,4.85,4.8v7.43h-4.43Z"/>
    <path class="cls-2" d="M326.76,496.54h3.33v1.05h-3.33v7.71c0,2,.83,2.43,1.68,2.43.53,0,1.28-.15,1.88-.5l.35.65c-1.25.63-1.9.88-3.43.88-3.28,0-4.9-1.2-4.9-4.1v-7.06h-1.8v-1.05h1.8l3.5-4.13h.93v4.13Z"/>
    <path class="cls-2" d="M344.45,502.07v.6h-9.43c.05,3.3,1.5,4.78,3.88,4.78,2.2,0,3.63-.75,4.83-1.78l.63.43c-1.08,1.25-2.75,2.65-6.21,2.65-4.55,0-7.51-2.15-7.51-6.28,0-3.73,2.4-6.21,6.93-6.21s6.88,2.38,6.88,5.81ZM335.02,501.82h5.18c-.05-3.43-1.1-4.8-2.63-4.8s-2.45,1.35-2.55,4.8Z"/>
    <path class="cls-2" d="M350.19,498.66c.58-1.48,1.73-2.4,3.83-2.4,3.08,0,5.03,1.43,5.03,4.35v7.88h-4.43v-7.66c0-2.65-.4-3.5-1.6-3.5-1.58,0-2.68,1.45-2.83,4.13v7.03h-4.43v-11.96h4.43v2.13Z"/>
    <path class="cls-2" d="M371.09,508.5l-.48-2.3c-.7,1.93-2.1,2.58-4.25,2.58-3.75,0-6.08-2-6.08-6.26s2.33-6.26,6.08-6.26c1.9,0,3.23.53,3.98,1.98v-8.51h4.43v18.77h-3.68ZM364.95,502.52c0,3.68.78,5.18,2.55,5.18s2.8-1.5,2.8-5.18-.98-5.18-2.8-5.18-2.55,1.5-2.55,5.18Z"/>
    <path class="cls-2" d="M383.45,508.75c-4.45,0-7.36-2.35-7.36-6.36s2.93-6.13,7.36-6.13,7.36,2.13,7.36,6.13-2.85,6.36-7.36,6.36ZM383.45,507.97c1.73,0,2.9-1.6,2.9-5.58s-1.18-5.35-2.9-5.35-2.9,1.38-2.9,5.35,1.18,5.58,2.9,5.58Z"/>
  </g>
  <g>
    <path class="cls-2" d="M402.03,480.87c.04-.4.4-.76.76-.76h9.02c4.41,0,7.25,3.53,7.25,7.81,0,3.89-2.64,7.69-6.57,8.94l3.49,10.14c.2.52-.08,1.16-.68,1.16h-1.96c-.24,0-.48-.2-.52-.36l-3.29-10.62h-6.73l-1.44,10.22c-.04.4-.4.76-.76.76h-1.72c-.4,0-.64-.36-.56-.76l3.73-26.53ZM409.76,494.53c3.41,0,6.13-2.93,6.13-6.57,0-2.64-1.84-4.93-4.49-4.93h-6.53l-1.64,11.5h6.53Z"/>
    <path class="cls-2" d="M420.57,494.17c1.16-8.01,7.45-14.46,15.03-14.46,7.05,0,12.3,6.45,11.14,14.46-1.12,8.01-7.37,14.38-15.03,14.38-7.05,0-12.22-6.37-11.14-14.38ZM443.9,494.17c.92-6.37-2.96-11.66-8.61-11.66s-10.94,5.29-11.86,11.66c-.88,6.37,2.97,11.58,8.62,11.58s10.98-5.21,11.86-11.58Z"/>
    <path class="cls-2" d="M455.31,480.27c.12-.4.44-.56.84-.56h.56c.4,0,.68.2.72.44l3.89,22h.08l10.14-22c.12-.24.36-.44.76-.44h.56c.4,0,.72.24.72.56l.88,26.93c0,.56-.32.96-.92.96h-1.4c-.48,0-.72-.28-.72-.56l-.4-20.04h-.04l-9.42,20.56c-.12.24-.44.44-.76.44h-.52c-.44,0-.68-.2-.72-.44l-3.69-20.92h-.04l-6.05,20.4c-.08.28-.36.56-.84.56h-1.4c-.6,0-.76-.44-.6-.96l8.37-26.93Z"/>
    <path class="cls-2" d="M484.88,480.27c.12-.4.44-.56.84-.56h.56c.4,0,.68.2.72.44l3.89,22h.08l10.14-22c.12-.24.36-.44.76-.44h.56c.4,0,.72.24.72.56l.88,26.93c0,.56-.32.96-.92.96h-1.4c-.48,0-.72-.28-.72-.56l-.4-20.04h-.04l-9.42,20.56c-.12.24-.44.44-.76.44h-.52c-.44,0-.68-.2-.72-.44l-3.69-20.92h-.04l-6.05,20.4c-.08.28-.36.56-.84.56h-1.4c-.6,0-.76-.44-.6-.96l8.37-26.93Z"/>
    <path class="cls-2" d="M518.33,480.87c.08-.4.4-.76.8-.76h7.97c3.97,0,6.45,2.89,6.45,6.37,0,3.73-2.52,6.21-4.57,7.41,1.6.8,3.53,2.56,3.53,5.61,0,4.93-3.49,8.66-9.02,8.66h-8.29c-.4,0-.64-.36-.6-.76l3.73-26.53ZM524.06,505.47c2.77,0,5.09-2.56,5.09-5.69,0-2.48-1.84-4.33-4.29-4.33h-5.61l-1.4,10.02h6.21ZM525.26,492.69c2.97,0,4.89-2.64,4.89-5.89,0-2.32-1.2-3.93-3.53-3.93h-5.53l-1.4,9.82h5.57Z"/>
    <path class="cls-2" d="M535.64,494.17c1.16-8.01,7.45-14.46,15.03-14.46,7.05,0,12.3,6.45,11.14,14.46-1.12,8.01-7.37,14.38-15.03,14.38-7.05,0-12.22-6.37-11.14-14.38ZM558.96,494.17c.92-6.37-2.96-11.66-8.62-11.66s-10.94,5.29-11.86,11.66c-.88,6.37,2.96,11.58,8.62,11.58s10.98-5.21,11.86-11.58Z"/>
    <path class="cls-2" d="M570.02,494.65l-6.81-13.58c-.24-.48,0-.96.56-.96h1.84c.28,0,.48.2.56.36l5.57,11.42h.08l8.89-11.42c.12-.16.36-.36.64-.36h1.92c.6,0,.76.64.4,1.16l-10.58,13.34-1.8,12.78c-.04.4-.44.76-.8.76h-1.68c-.4,0-.64-.36-.6-.76l1.8-12.74Z"/>
  </g>
  <g>
    <path class="cls-6" d="M416.36,113.7h3.89c.88,0,1.66.15,2.37.44.7.29,1.27.69,1.69,1.19.43.5.75,1.06.98,1.67.22.62.34,1.26.34,1.93s-.11,1.37-.32,2.01c-.21.64-.53,1.22-.95,1.74-.42.52-.99.94-1.69,1.25-.71.31-1.51.47-2.4.47h-3.89v-10.7ZM423.27,121.84c.69-.82,1.03-1.79,1.03-2.92s-.35-2-1.05-2.78c-.7-.77-1.7-1.16-2.99-1.16h-2.56v8.09h2.56c1.32,0,2.33-.41,3.01-1.23Z"/>
    <path class="cls-6" d="M435.73,115.18c.95,1.09,1.42,2.39,1.41,3.91,0,.71-.11,1.39-.34,2.04-.23.65-.56,1.24-.99,1.76-.43.52-1,.94-1.7,1.25-.7.31-1.5.47-2.38.47s-1.68-.16-2.39-.47c-.71-.31-1.28-.73-1.71-1.25-.43-.52-.76-1.11-.99-1.75-.23-.65-.34-1.33-.34-2.05,0-1.59.5-2.91,1.49-3.97s2.31-1.59,3.96-1.59c1.71.01,3.04.56,3.99,1.65ZM435.4,117.01c-.28-.64-.75-1.17-1.38-1.59s-1.4-.65-2.28-.66c-1.3,0-2.31.41-3.04,1.24s-1.08,1.86-1.08,3.09.36,2.19,1.07,3.02c.71.83,1.73,1.25,3.05,1.25s2.32-.42,3.02-1.27,1.05-1.85,1.05-3.01c.01-.75-.13-1.45-.41-2.08Z"/>
    <path class="cls-6" d="M436.92,114.91v-1.19h8.61v1.19h-3.65v9.49h-1.31v-9.49h-3.65Z"/>
    <path class="cls-6" d="M454.44,121.04h-.27l-3.88-5.43v8.79h-1.31v-10.68h1.59l3.75,5.49,3.72-5.49h1.59v10.68h-1.31v-8.76l-3.88,5.4Z"/>
    <path class="cls-6" d="M466.75,113.72l4.79,10.68h-1.43l-1.05-2.35h-6.1l-1.04,2.35h-1.45l4.79-10.68h1.5ZM466,115.06l-2.53,5.77h5.07l-2.53-5.77Z"/>
    <path class="cls-6" d="M470.22,114.91v-1.19h8.61v1.19h-3.65v9.49h-1.31v-9.49h-3.65Z"/>
    <path class="cls-6" d="M483.58,120.56h-2.59v3.85h-1.33v-10.68h4.85c1.14,0,2.03.34,2.66,1.01.64.67.95,1.47.95,2.41,0,.88-.24,1.62-.75,2.25-.51.63-1.28.98-2.32,1.06l3.53,3.95h-1.68l-3.33-3.85ZM486.2,118.75c.4-.41.6-.94.6-1.58,0-.59-.19-1.11-.6-1.57-.41-.46-.97-.69-1.69-.69h-3.53v4.46h3.46c.76,0,1.35-.21,1.75-.62Z"/>
    <path class="cls-6" d="M489.68,113.72h1.33v10.68h-1.33v-10.68Z"/>
    <path class="cls-6" d="M500.91,113.73v.05l-3.62,5.17,3.83,5.42v.03h-1.53l-3.16-4.49-3.16,4.49h-1.53v-.03l3.83-5.42-3.62-5.17v-.05h1.54l2.93,4.32,2.96-4.32h1.51Z"/>
    <path class="cls-6" d="M504.8,113.72l2.95,8.83,2.96-8.83h.85l2.99,8.83,2.91-8.83h1.51l-3.74,10.7h-1.33l-2.78-8-2.76,8h-1.34l-3.72-10.7h1.5Z"/>
    <path class="cls-6" d="M519.95,113.72h1.33v10.68h-1.33v-10.68Z"/>
    <path class="cls-6" d="M522.11,114.91v-1.19h8.61v1.19h-3.65v9.49h-1.31v-9.49h-3.65Z"/>
    <path class="cls-6" d="M538.98,119.58h-6.1v4.82h-1.33v-10.68h1.33v4.62h6.1v-4.62h1.33v10.68h-1.33v-4.82Z"/>
    <path class="cls-6" d="M550.84,115.04c-.55-.23-1.14-.35-1.77-.36-.76,0-1.42.15-1.98.47-.55.31-.83.77-.83,1.37,0,.27.07.51.21.72.14.2.36.37.66.5s.59.24.89.31c.3.08.68.15,1.14.22.53.08.96.16,1.28.23.33.07.7.19,1.12.34s.75.34.98.54c.23.2.43.48.6.83s.25.76.25,1.23c0,.57-.13,1.07-.39,1.5-.26.43-.6.76-1.04.99s-.89.41-1.38.52-1,.17-1.54.17c-1.02,0-1.93-.2-2.73-.6s-1.4-1.02-1.79-1.87l1.1-.64c.33.6.81,1.06,1.44,1.39.64.33,1.3.49,1.99.49.36,0,.7-.03,1.03-.09.33-.06.65-.16.96-.31.31-.14.56-.35.75-.62s.28-.59.28-.97c0-.32-.08-.59-.24-.82-.16-.23-.39-.42-.71-.56s-.63-.25-.95-.34c-.32-.08-.71-.16-1.18-.23-.49-.07-.9-.15-1.23-.22-.33-.08-.69-.19-1.08-.34-.39-.15-.7-.32-.93-.52-.23-.2-.43-.46-.59-.78-.16-.32-.24-.69-.24-1.11-.01-.53.11-.99.36-1.4s.58-.71.99-.94c.41-.22.85-.39,1.31-.5.46-.11.94-.16,1.43-.16.92,0,1.71.14,2.38.41.67.27,1.23.78,1.66,1.53l-1.01.63c-.28-.45-.69-.79-1.24-1.01Z"/>
    <path class="cls-6" d="M553.5,114.91v-1.19h8.61v1.19h-3.65v9.49h-1.31v-9.49h-3.65Z"/>
    <path class="cls-6" d="M562.94,113.72h7.51v1.22h-6.2v3.34h5.94v1.24h-5.94v3.62h6.44v1.27h-7.75v-10.68Z"/>
    <path class="cls-6" d="M575.96,120.56h-2.59v3.85h-1.33v-10.68h4.85c1.14,0,2.03.34,2.66,1.01.64.67.95,1.47.95,2.41,0,.88-.24,1.62-.75,2.25-.51.63-1.28.98-2.32,1.06l3.53,3.95h-1.68l-3.33-3.85ZM578.57,118.75c.4-.41.6-.94.6-1.58,0-.59-.19-1.11-.6-1.57-.41-.46-.97-.69-1.69-.69h-3.52v4.46h3.46c.76,0,1.35-.21,1.75-.62Z"/>
    <path class="cls-6" d="M582.06,113.72h7.51v1.22h-6.2v3.34h5.94v1.24h-5.94v3.62h6.44v1.27h-7.75v-10.68Z"/>
    <path class="cls-6" d="M599.79,115.18c.95,1.09,1.42,2.39,1.41,3.91,0,.71-.11,1.39-.34,2.04-.23.65-.56,1.24-.99,1.76s-1,.94-1.7,1.25c-.7.31-1.5.47-2.38.47s-1.68-.16-2.39-.47c-.71-.31-1.28-.73-1.71-1.25s-.76-1.11-.99-1.75c-.23-.65-.34-1.33-.34-2.05,0-1.59.5-2.91,1.49-3.97s2.31-1.59,3.96-1.59c1.71.01,3.04.56,3.99,1.65ZM599.46,117.01c-.29-.64-.75-1.17-1.38-1.59s-1.4-.65-2.28-.66c-1.3,0-2.31.41-3.04,1.24-.72.83-1.08,1.86-1.08,3.09s.36,2.19,1.07,3.02c.71.83,1.73,1.25,3.05,1.25s2.32-.42,3.02-1.27c.7-.84,1.05-1.85,1.05-3.01,0-.75-.13-1.45-.41-2.08Z"/>
    <path class="cls-6" d="M611.05,115.04c-.55-.23-1.14-.35-1.77-.36-.76,0-1.42.15-1.98.47-.55.31-.83.77-.83,1.37,0,.27.07.51.21.72.14.2.36.37.66.5s.59.24.89.31c.3.08.68.15,1.14.22.53.08.96.16,1.28.23.33.07.7.19,1.12.34s.75.34.98.54c.23.2.43.48.6.83s.25.76.25,1.23c0,.57-.13,1.07-.39,1.5-.26.43-.6.76-1.04.99s-.89.41-1.38.52-1,.17-1.54.17c-1.02,0-1.93-.2-2.73-.6s-1.4-1.02-1.79-1.87l1.1-.64c.33.6.81,1.06,1.44,1.39.64.33,1.3.49,1.99.49.36,0,.7-.03,1.03-.09.33-.06.65-.16.96-.31.31-.14.56-.35.75-.62s.28-.59.28-.97c0-.32-.08-.59-.24-.82-.16-.23-.39-.42-.71-.56s-.63-.25-.95-.34c-.32-.08-.71-.16-1.18-.23-.49-.07-.9-.15-1.23-.22-.33-.08-.69-.19-1.08-.34-.39-.15-.7-.32-.93-.52-.23-.2-.43-.46-.59-.78-.16-.32-.24-.69-.24-1.11-.01-.53.11-.99.36-1.4s.58-.71.99-.94c.41-.22.85-.39,1.31-.5.46-.11.94-.16,1.43-.16.92,0,1.71.14,2.38.41.67.27,1.23.78,1.66,1.53l-1.01.63c-.28-.45-.69-.79-1.24-1.01Z"/>
    <path class="cls-6" d="M623.65,115.18c.95,1.09,1.42,2.39,1.41,3.91,0,.71-.11,1.39-.34,2.04-.23.65-.56,1.24-.99,1.76s-1,.94-1.7,1.25c-.7.31-1.5.47-2.38.47s-1.68-.16-2.39-.47c-.71-.31-1.28-.73-1.71-1.25s-.76-1.11-.99-1.75c-.23-.65-.34-1.33-.34-2.05,0-1.59.5-2.91,1.49-3.97s2.31-1.59,3.96-1.59c1.71.01,3.04.56,3.99,1.65ZM623.32,117.01c-.29-.64-.75-1.17-1.38-1.59s-1.4-.65-2.28-.66c-1.3,0-2.31.41-3.04,1.24-.72.83-1.08,1.86-1.08,3.09s.36,2.19,1.07,3.02c.71.83,1.73,1.25,3.05,1.25s2.32-.42,3.02-1.27c.7-.84,1.05-1.85,1.05-3.01,0-.75-.13-1.45-.41-2.08Z"/>
    <path class="cls-6" d="M634.97,113.73v6.41c0,1.41-.41,2.51-1.24,3.29-.83.78-1.86,1.17-3.09,1.17s-2.25-.39-3.1-1.16c-.85-.77-1.27-1.87-1.27-3.3v-6.41h1.31v6.41c0,1.02.29,1.81.88,2.38.59.57,1.32.85,2.18.85s1.58-.29,2.16-.87c.58-.58.86-1.37.86-2.38v-6.41h1.3l.02.02Z"/>
    <path class="cls-6" d="M637.78,113.72l6.55,8.18v-8.18h1.31v10.68h-.92l-6.56-8.15v8.15h-1.31v-10.68h.93Z"/>
    <path class="cls-6" d="M647.63,113.7h3.89c.88,0,1.66.15,2.37.44.7.29,1.27.69,1.69,1.19.43.5.75,1.06.98,1.67.22.62.33,1.26.33,1.93s-.11,1.37-.32,2.01c-.21.64-.53,1.22-.95,1.74s-.99.94-1.69,1.25c-.71.31-1.51.47-2.4.47h-3.89v-10.7ZM654.53,121.84c.69-.82,1.03-1.79,1.03-2.92s-.35-2-1.05-2.78c-.7-.77-1.7-1.16-2.99-1.16h-2.56v8.09h2.56c1.32,0,2.33-.41,3.01-1.23Z"/>
  </g>
  <g>
    <path class="cls-6" d="M276.35,260.12c.68,0,1.25.17,1.7.51.45.34.68.83.68,1.47,0,.33-.09.62-.27.88-.18.26-.44.45-.78.58.41.11.72.34.94.66.22.33.33.67.33,1.03s-.07.68-.21.94c-.14.26-.34.47-.59.61-.25.14-.53.24-.82.31-.29.06-.62.1-.98.1h-3.1v-7.09h3.1ZM274.13,263.17h2.26c.45,0,.8-.09,1.07-.26.27-.17.4-.44.4-.8,0-.39-.14-.68-.42-.89s-.64-.31-1.09-.31h-2.22v2.25ZM274.13,266.38h2.22c.21,0,.41-.02.59-.05.18-.03.36-.09.55-.17.18-.08.33-.2.43-.35.1-.16.16-.35.16-.58,0-.41-.18-.72-.52-.94-.34-.21-.73-.32-1.17-.32h-2.26v2.41Z"/>
    <path class="cls-6" d="M283.85,260.12l3.18,7.09h-.95l-.7-1.56h-4.05l-.69,1.56h-.96l3.18-7.09h.99ZM283.35,261.01l-1.68,3.83h3.36l-1.68-3.83Z"/>
    <path class="cls-6" d="M286.9,260.91v-.79h5.71v.79h-2.42v6.3h-.87v-6.3h-2.42Z"/>
    <path class="cls-6" d="M293.15,260.91v-.79h5.71v.79h-2.42v6.3h-.87v-6.3h-2.42Z"/>
    <path class="cls-6" d="M300.17,260.12h4.98v.81h-4.11v2.22h3.94v.82h-3.94v2.4h4.28v.84h-5.15v-7.09Z"/>
    <path class="cls-6" d="M309.56,264.66h-1.72v2.55h-.88v-7.09h3.22c.76,0,1.35.22,1.77.67.42.45.63.98.63,1.6,0,.58-.16,1.08-.5,1.49-.34.42-.85.65-1.54.7l2.34,2.62h-1.11l-2.21-2.55ZM311.3,263.46c.27-.27.4-.62.4-1.05,0-.39-.12-.74-.4-1.04-.27-.3-.65-.46-1.12-.46h-2.34v2.96h2.3c.51,0,.89-.14,1.16-.41Z"/>
    <path class="cls-6" d="M313.3,260.15v-.03h1.07l2.13,3.36,2.18-3.36h1.07v.03l-2.8,4.18v2.88h-.91v-2.88l-2.75-4.18Z"/>
  </g>
</svg>