<svg xmlns="http://www.w3.org/2000/svg" id="Layer_1" data-name="Layer 1" viewBox="0 0 1000 1000"><defs><style>.cls-1{fill:#505085}.cls-2{fill:#191919}.cls-9{fill:#f0efef}.cls-12{fill:#d8dae9}.cls-13{fill:#1a1d40}</style></defs><path d="M940.83 335.62s-3-9.5 5.43-12.99c1.03-.3 1.78-3.08 0-6.72s-13.12-38.68-50.03-44.51c0 0-88.56-14.9-106.25-16.49-17.7-1.59-19.59-1.73-25.03-1.78s95.58 84.64 95.58 84.64l80.3-2.14Zm-882.2-.01s3-9.5-5.43-12.99c-1.03-.3-1.78-3.08 0-6.72s13.12-38.68 50.03-44.51c0 0 88.56-14.9 106.25-16.49 17.7-1.59 19.59-1.73 25.03-1.78s-95.58 84.64-95.58 84.64l-80.3-2.14Zm883.99 8.13s9.95-.2 10.8 5.55 10.42 73.8 13.61 120.28 6.23 83.85 6.38 127.75-1.06 55.59-18.38 77.16-26.28 24.91-35.85 25.37-8.35.3-11.39-3.95-5.16-8.05-5.16-8.05zm-887.14 0s-9.95-.2-10.8 5.55-10.42 73.8-13.61 120.28-6.23 83.85-6.38 127.75 1.06 55.59 18.38 77.16 26.28 24.91 35.85 25.37 8.35.3 11.39-3.95 5.16-8.05 5.16-8.05z" style="fill:#c2c4d4"/><path d="M959.75 484.73c-6.68-88.26-20.5-157.5-20.5-157.5-4.54-26.28-29.47-24.93-58.18-29.95-27.47-4.79-64.71-19.29-102.53-37.82s-54.23-19.75-69.42-20.05c-9.65-.19-44.52-.26-79.02-.37-19.79-.05-39.46-.12-54.19-.24-31.27-.23-137.9.04-184.54.18-1.4 0-2.82 0-4.24.01-1.51 0-2.95.01-4.29.01-4.49.02-9.05.03-13.62.04-34.46.11-69.25.18-78.89.37-15.19.3-31.59 1.52-69.42 20.05-37.82 18.53-75.06 33.03-102.53 37.82-28.71 5.02-53.64 3.67-58.17 29.95 0 0-13.83 69.24-20.51 157.5-6.68 88.25-8.77 155.96 1.37 170.2s25.17 32.47 49.1 39.53c23.92 7.06 76.85 17.79 76.85 17.79l233.76 7.16.4 6.04 98.55-3.02 98.54 3.02.4-6.04 233.77-7.16s52.92-10.73 76.85-17.79c23.92-7.06 38.96-25.29 49.1-39.53s8.05-81.95 1.36-170.2" style="fill:#6a69a8"/><path d="M954.29 558.1c-.76-30.84-9.57-123.65-11.54-141.99s-10.03-63.95-12.08-77.85-5.92-23.13-17.89-24.84-16.52-3.04-44.32-8.28-75.42-25.29-105.72-42.15-70.41-15.27-89.77-15.27H326.79c-19.37 0-59.47-1.59-89.77 15.27S159.1 299.9 131.3 305.14s-32.35 6.57-44.32 8.28-15.84 10.94-17.89 24.84-10.1 59.51-12.08 77.85c-1.97 18.34-10.78 111.15-11.54 141.99s-5.47 74.13 5.92 96.91 28.1 29.01 36.61 32.66 85.29 26.47 100.78 30.86c15.49 4.38 38.51 15.78 56.96 22.61 17.88 6.62 65.71 17.95 131.47 23 26.6 2.69 74.09 3.95 122.66 3.84 48.57.11 96.07-1.15 122.66-3.84 65.76-5.05 113.59-16.38 131.47-23 18.46-6.84 41.47-18.23 56.96-22.61s92.28-27.21 100.78-30.86c8.51-3.65 25.22-9.87 36.61-32.66s6.68-66.08 5.92-96.91Z" style="fill:#5d5894"/><path d="M207.23 440.53h-33.29c-1.98 0-3.58-1.6-3.58-3.58v-33.29c0-1.98-1.6-3.58-3.58-3.58h-30.42c-1.98 0-3.58 1.6-3.58 3.58v33.29c0 1.98-1.6 3.58-3.58 3.58H95.91c-1.98 0-3.58 1.6-3.58 3.58v30.42c0 1.98 1.6 3.58 3.58 3.58h33.29c1.98 0 3.58 1.6 3.58 3.58v33.29c0 1.98 1.6 3.58 3.58 3.58h30.42c1.98 0 3.58-1.6 3.58-3.58v-33.29c0-1.98 1.6-3.58 3.58-3.58h33.29c1.98 0 3.58-1.6 3.58-3.58v-30.42c0-1.98-1.6-3.58-3.58-3.58" class="cls-12"/><circle cx="804.71" cy="475.35" r="29.62" class="cls-12"/><circle cx="151.57" cy="459.32" r="14.04" style="fill:#c9cad7"/><circle cx="891.29" cy="445.73" r="29.62" class="cls-12"/><circle cx="804.71" cy="331.88" r="9.13" style="fill:#78c143"/><rect width="105.27" height="33.85" x="127.03" y="564.38" class="cls-1" rx="16.92" ry="16.92" transform="rotate(14.49 179.713 581.483)"/><circle cx="214.58" cy="590.33" r="14.04" class="cls-12"/><rect width="105.27" height="33.85" x="127.03" y="618.76" class="cls-1" rx="16.92" ry="16.92" transform="rotate(14.49 179.675 635.882)"/><circle cx="214.58" cy="644.71" r="14.04" class="cls-12"/><rect width="108.41" height="7.77" x="772.14" y="566.84" class="cls-13" rx="3.41" ry="3.41" transform="rotate(-14.12 826.37 570.753)"/><rect width="108.41" height="7.77" x="772.14" y="586.86" class="cls-13" rx="3.41" ry="3.41" transform="rotate(-14.12 826.352 590.754)"/><rect width="108.41" height="7.77" x="772.14" y="606.89" class="cls-13" rx="3.41" ry="3.41" transform="rotate(-14.12 826.375 610.761)"/><rect width="108.41" height="7.77" x="772.14" y="626.91" class="cls-13" rx="3.41" ry="3.41" transform="rotate(-14.12 826.352 630.803)"/><rect width="108.41" height="7.77" x="772.14" y="646.93" class="cls-13" rx="3.41" ry="3.41" transform="rotate(-14.12 826.375 650.81)"/><path d="M746.17 453.87c-1.14-24.38-5.93-78.76-8.81-110.81-2.89-32.05-25.07-33.87-36.92-35.69-11.84-1.83-29.77-3.35-67.13-6.38-17.74-1.44-51.36-2.64-85.43-3.41-36.98-.83-74.48-1.16-92.79-.72l-1.09.03c-34.65 1.1-69.11 2.63-87.14 4.1-37.37 3.03-55.29 4.55-67.14 6.38-11.85 1.82-34.03 3.64-36.91 35.69-2.89 32.05-7.67 86.43-8.81 110.81s-5.7 126-5.47 158.81-.52 63.94 46.93 81.12c39.51 14.3 92.97 25.36 204.62 24.7 111.65.66 165.79-10.9 204.62-24.7 46.94-16.69 46.71-48.31 46.93-81.12.23-32.81-4.32-134.43-5.46-158.81" style="fill:#262827"/><path d="M296.72 341.01h406.71v269.76H296.72z" style="fill:#72736f"/><path d="M452.53 264.37h4.38c3.04 0 5.33 1.14 5.33 3.66 0 1.79-1.21 2.9-3.01 3.38l3.91 6.04h-3.45l-3.69-5.78h-.45v5.78h-3.03v-13.08Zm3.03.88v5.55h.74c1.74 0 2.82-.88 2.82-2.73s-1.08-2.82-2.8-2.82z" class="cls-1"/><path d="M467.31 277.64c-2.87 0-4.73-1.76-4.73-4.75s1.88-4.58 4.73-4.58 4.73 1.59 4.73 4.58-1.83 4.75-4.73 4.75m0-.58c1.11 0 1.87-1.2 1.87-4.17s-.76-4-1.87-4-1.87 1.03-1.87 4 .76 4.17 1.87 4.17m16.77.39v-5.93c0-1.51-.31-2.41-1.06-2.41-.8 0-1.69.67-1.69 3.2v5.14h-2.87v-6.09c0-1.4-.21-2.24-1.06-2.24-.71 0-1.64.88-1.69 2.93v5.4h-2.82v-8.93h2.82v1.42c.27-.99 1.37-1.63 2.75-1.63 1.05 0 2.22.47 2.67 1.7.32-.95 1.09-1.7 2.67-1.7s3.12.73 3.12 3.59v5.55h-2.85Zm15.28 0v-5.93c0-1.51-.31-2.41-1.06-2.41-.8 0-1.69.67-1.69 3.2v5.14h-2.87v-6.09c0-1.4-.21-2.24-1.06-2.24-.71 0-1.64.88-1.69 2.93v5.4h-2.82v-8.93h2.82v1.42c.27-.99 1.37-1.63 2.75-1.63 1.05 0 2.22.47 2.67 1.7.32-.95 1.09-1.7 2.67-1.7s3.12.73 3.12 3.59v5.55h-2.85Zm7.47-8.93h2.14v.78h-2.14v5.76c0 1.5.53 1.81 1.08 1.81.34 0 .82-.11 1.21-.37l.23.49c-.8.47-1.22.65-2.21.65-2.11 0-3.16-.9-3.16-3.07v-5.27h-1.16v-.78h1.16l2.25-3.08h.6zm11.38 4.13v.45h-6.07c.03 2.47.97 3.57 2.5 3.57 1.42 0 2.33-.56 3.11-1.33l.4.32c-.69.93-1.77 1.98-3.99 1.98-2.93 0-4.83-1.61-4.83-4.69 0-2.79 1.55-4.64 4.46-4.64s4.43 1.78 4.43 4.34Zm-6.07-.19h3.33c-.03-2.56-.71-3.59-1.69-3.59s-1.58 1.01-1.64 3.59m9.76-2.35c.37-1.1 1.11-1.79 2.46-1.79 1.98 0 3.24 1.07 3.24 3.25v5.89h-2.85v-5.72c0-1.98-.26-2.62-1.03-2.62-1.01 0-1.72 1.08-1.82 3.08v5.25h-2.85v-8.93h2.85zm13.45 7.34-.31-1.72c-.45 1.44-1.35 1.93-2.74 1.93-2.42 0-3.91-1.5-3.91-4.67s1.5-4.67 3.91-4.67c1.22 0 2.08.39 2.56 1.48v-6.36h2.85v14.02h-2.37Zm-3.95-4.46c0 2.75.5 3.87 1.64 3.87s1.8-1.12 1.8-3.87-.63-3.87-1.8-3.87-1.64 1.12-1.64 3.87m11.9 4.65c-2.87 0-4.73-1.76-4.73-4.75s1.88-4.58 4.73-4.58 4.73 1.59 4.73 4.58-1.83 4.75-4.73 4.75m0-.58c1.11 0 1.87-1.2 1.87-4.17s-.76-4-1.87-4-1.87 1.03-1.87 4 .76 4.17 1.87 4.17" class="cls-1"/><path d="M545.44 259.67c6.39 0 11.58 5.2 11.58 11.58s-5.2 11.58-11.58 11.58h-90.68c-6.39 0-11.58-5.2-11.58-11.58s5.2-11.58 11.58-11.58zm0-3h-90.68c-8.05 0-14.58 6.53-14.58 14.58s6.53 14.58 14.58 14.58h90.68c8.05 0 14.58-6.53 14.58-14.58s-6.53-14.58-14.58-14.58" class="cls-1"/><path d="M382.04 657.87h111.08v13.89H382.04z" class="cls-2"/><path d="M377.65 667.06c2.04-1.33 3.38-3.63 3.38-7.05 0-1.43-.28-2.64-.83-3.61-1.02-1.86-2.99-2.84-5.73-2.84h-5.68l-3.41 21.96h5.01l1.08-7h.34l3.33 7h5.53l-3.95-7.95q.48-.225.93-.51m-4.39-2.99h-1.09l.83-5.45h1.11c1.37 0 1.99.77 1.99 2.03 0 2.3-1.19 3.42-2.84 3.42" class="cls-9"/><path d="M386.31 679.03h-25.02l4.49-28.97h8.68c6.11 0 10.06 3.91 10.06 9.95 0 3.54-1.19 6.56-3.35 8.68z" class="cls-2"/><path d="M401.43 658.88c-1.59-3.57-4.94-6.03-9.04-6.03-3.16 0-6.14 1.57-8.25 4.08a13.22 13.22 0 0 0-3.08 8.49c0 1.04.13 2.04.37 2.99 1.17 4.5 4.9 7.82 9.72 7.82 2.17 0 4.24-.74 6.01-2.01 3.11-2.23 5.27-6.13 5.27-10.56 0-1.72-.35-3.34-1-4.78m-9.99 12.11c-2.97 0-5.4-2.44-5.4-5.8 0-3.95 2.87-7.1 6.02-7.1 2.91 0 5.34 2.44 5.34 5.83 0 3.92-2.87 7.07-5.96 7.07" class="cls-9"/><path d="M405.12 658.68c-.56-1.63-1.38-3.1-2.41-4.38-2.46-3.05-6.14-4.95-10.32-4.95-3.76 0-7.25 1.61-9.89 4.21-.86.85-1.63 1.8-2.3 2.84-1.66 2.59-2.64 5.7-2.64 9.02 0 .55.03 1.1.09 1.64.56 5.43 3.9 9.86 8.54 11.72 1.53.62 3.2.95 4.96.95 1.64 0 3.23-.31 4.72-.88 1.91-.72 3.65-1.87 5.13-3.33 3.01-2.97 4.93-7.22 4.93-11.86 0-1.76-.29-3.44-.81-4.98m-13.68 8.81c-1.1 0-1.9-.97-1.9-2.3 0-2.2 1.49-3.6 2.52-3.6s1.84.98 1.84 2.33c0 2.15-1.48 3.57-2.46 3.57" class="cls-2"/><path d="m423.29 674.84-.62-10.81-.61-10.47h-4.62l-4.34 12.31-1.96-12.31h-4.6l-1.42 5.12-4.69 16.84h5.11l2.94-12.13 1.89 12.13h3.2l4.31-11.98.36 11.98h5.09z" class="cls-9"/><path d="M427.03 679.02h-31.21l.05-.17 1.29-4.63 4.27-15.34 1.28-4.58 1.18-4.24h10.24l.26 1.63.57-1.63h10.41l.2 3.54v.01l.62 10.81.64 11.1z" class="cls-2"/><path d="M444.73 653.56h-4.62l-4.33 12.31-1.97-12.31h-4.59l-3.03 10.86-2.9 10.42-.19.68h5.11l2.94-12.13 1.89 12.13h3.2l4.31-11.98.36 11.98H446z" class="cls-9"/><path d="M449.71 679.02h-31.22l.98-3.5 3.2-11.49v-.01l2.9-10.41v-.01l.99-3.54h10.24l.26 1.63.58-1.63h10.4l.52 8.97v.01z" class="cls-2"/><path d="M462.4 664.04c1.78-1.21 2.79-3.18 2.79-5.51 0-.9-.19-1.76-.57-2.51-.73-1.44-2.18-2.46-4.39-2.46h-7.28l-3.41 21.96h7.83c2.63 0 4.78-1.24 6-3.16.7-1.11 1.1-2.45 1.1-3.9 0-1.68-.7-3.36-2.07-4.42m-5.86 6.95h-1.29l.75-4.74h1.21c1.68 0 2.27.73 2.27 1.91 0 1.62-1.08 2.83-2.94 2.83m1.06-8.63h-1.01l.67-4.27h1.06c1.65 0 2.27.71 2.27 1.77 0 1.65-.9 2.5-2.99 2.5" class="cls-9"/><path d="M467 664.29c.62 1.27.97 2.7.97 4.17 0 1.32-.22 2.56-.62 3.71-.43 1.2-1.06 2.29-1.86 3.23-1.91 2.24-4.79 3.62-8.12 3.62h-11.91l.54-3.5 2.56-16.48 1.39-8.98h10.28c2.86 0 5.26 1.21 6.76 3.19.75.98 1.27 2.14 1.52 3.44.12.59.18 1.2.18 1.84 0 2.14-.6 4.12-1.69 5.76" class="cls-2"/><path d="M482.12 654.6c-1.57-1.11-3.47-1.75-5.57-1.75-3.06 0-5.95 1.47-8.04 3.84a13.15 13.15 0 0 0-3.29 8.73c0 2.55.78 4.9 2.13 6.75 1.81 2.47 4.63 4.06 7.96 4.06 4.67 0 8.93-3.44 10.58-8.25.46-1.35.71-2.8.71-4.32 0-3.78-1.73-7.12-4.48-9.06m-6.52 16.39c-2.97 0-5.4-2.44-5.4-5.8 0-3.95 2.87-7.1 6.02-7.1 2.91 0 5.34 2.44 5.34 5.83 0 3.92-2.86 7.07-5.96 7.07" class="cls-9"/><path d="M486.24 653.56a13.3 13.3 0 0 0-5.39-3.5c-1.34-.46-2.78-.71-4.29-.71-3.61 0-6.96 1.48-9.56 3.9-.89.82-1.68 1.75-2.37 2.77a16.65 16.65 0 0 0-2.9 9.4c0 2.54.59 4.9 1.65 6.94.57 1.12 1.29 2.14 2.12 3.04 2.45 2.68 5.92 4.33 9.82 4.33s7.16-1.58 9.78-4.13c2.09-2.03 3.66-4.67 4.44-7.63.37-1.37.57-2.82.57-4.31 0-3.98-1.46-7.53-3.86-10.1Zm-10.02 8.03c1.07 0 1.84.98 1.84 2.33 0 2.15-1.48 3.57-2.46 3.57-1.1 0-1.9-.97-1.9-2.3 0-2.2 1.49-3.6 2.52-3.6" class="cls-2"/><path d="m498.37 653.56-5.47 9.63-2.19-9.63h-5.25l4.07 14.41.17.6-1.06 6.95h5.01l1.03-6.89 8.96-15.07z" class="cls-9"/><path d="M496.66 679.03h-12.09l1.56-10.23-5.29-18.74h12.66l.81 3.56 2.03-3.56h13.45l-11.75 19.77z" class="cls-2"/><path d="M368.79 653.56h5.68c4.16 0 6.56 2.27 6.56 6.45 0 3.92-1.76 6.36-4.31 7.57l3.95 7.95h-5.52l-3.33-7.01h-.34l-1.08 7.01h-5.01l3.41-21.97Zm4.21 5.06-.83 5.45h1.08c1.65 0 2.84-1.12 2.84-3.42 0-1.27-.62-2.03-1.99-2.03h-1.11Zm29.44 5.04c0 6.95-5.32 12.58-11.28 12.58s-10.09-4.86-10.09-10.81c0-6.92 5.34-12.57 11.33-12.57s10.04 4.86 10.04 10.81Zm-16.4 1.53c0 3.36 2.43 5.8 5.4 5.8s5.96-3.15 5.96-7.07c0-3.39-2.43-5.83-5.34-5.83-3.15 0-6.02 3.15-6.02 7.1m20.51-11.63h4.6l1.96 12.31 4.34-12.31h4.62l1.27 21.97h-5.09l-.36-11.99-4.31 11.99h-3.2l-1.88-12.13-2.94 12.13h-5.11l6.12-21.97Z" class="cls-9"/><path d="M429.22 653.56h4.6l1.96 12.31 4.34-12.31h4.62l1.27 21.97h-5.09l-.36-11.99-4.31 11.99h-3.2l-1.88-12.13-2.94 12.13h-5.11l6.12-21.97Zm23.73 0h7.28c3.36 0 4.96 2.36 4.96 4.98 0 2.33-1.01 4.3-2.79 5.51 1.37 1.06 2.07 2.74 2.07 4.42 0 3.98-2.94 7.07-7.1 7.07h-7.82l3.41-21.97Zm3.05 12.69-.75 4.74h1.29c1.86 0 2.94-1.21 2.94-2.83 0-1.18-.59-1.91-2.27-1.91zm1.26-8.16-.67 4.27h1.01c2.09 0 2.99-.85 2.99-2.5 0-1.06-.62-1.77-2.27-1.77zm29.34 5.57c0 6.95-5.32 12.58-11.28 12.58s-10.09-4.86-10.09-10.81c0-6.92 5.34-12.57 11.33-12.57s10.04 4.86 10.04 10.81Zm-16.4 1.53c0 3.36 2.43 5.8 5.4 5.8s5.96-3.15 5.96-7.07c0-3.39-2.43-5.83-5.34-5.83-3.15 0-6.02 3.15-6.02 7.1" class="cls-9"/><path d="m494.68 668.63-1.03 6.89h-5.01l1.06-6.95-4.23-15.02h5.24l2.19 9.63 5.47-9.63h5.27z" class="cls-9"/><path d="M518.14 665.02v-3.35h-8.77v11.49h-4.63v-11.27c0-.55.08-1.07.25-1.56s.4-.91.69-1.28c.29-.36.63-.65 1.02-.86s.81-.32 1.25-.32h11.59c.43 0 .83.1 1.21.31s.72.48 1.01.82c.29.35.53.75.7 1.22q.27.705.27 1.5v11.43h-4.6v-4.57h-6.17v-3.56h6.17Zm4.89 8.14v-9.07h4.65v5.26h8.72v-7.68h-13.37v-3.8h14.81c.43 0 .83.11 1.22.32s.73.5 1.02.86.53.79.7 1.28q.27.735.27 1.56v7.26c0 .53-.09 1.04-.27 1.52s-.41.9-.7 1.28c-.29.37-.63.67-1.02.89s-.8.33-1.22.33h-14.81Zm29.14 0h-4.09l-7.26-15.29h4.87l4.41 9.65 4.47-9.65h4.87l-7.26 15.29Zm20.41-8.14v-3.35h-8.77v11.49h-4.63v-11.27c0-.55.08-1.07.25-1.56s.4-.91.69-1.28c.29-.36.63-.65 1.02-.86s.81-.32 1.25-.32h11.59c.43 0 .83.1 1.21.31s.72.48 1.01.82c.29.35.53.75.7 1.22q.27.705.27 1.5v11.43h-4.6v-4.57h-6.17v-3.56h6.17Zm9.52-3.35v11.49h-4.63v-15.29h14.81c.43 0 .83.1 1.21.31s.72.48 1.01.82c.29.35.53.75.7 1.22q.27.705.27 1.5v11.43h-4.6v-11.49h-8.77Zm31.67 7.69v3.8h-14.78c-.44 0-.86-.11-1.25-.32s-.73-.5-1.02-.86a4.2 4.2 0 0 1-.69-1.28c-.17-.49-.25-1.01-.25-1.56v-7.26c0-.55.08-1.07.25-1.56s.4-.91.69-1.28c.29-.36.63-.65 1.02-.86s.81-.32 1.25-.32h14.78v3.8H600.4v7.68h13.37Zm4.89 0h13.37v3.8h-14.78c-.44 0-.86-.11-1.25-.32s-.73-.5-1.02-.86a4.2 4.2 0 0 1-.69-1.28c-.17-.49-.25-1.01-.25-1.56v-7.26c0-.55.08-1.07.25-1.56s.4-.91.69-1.28c.29-.36.63-.65 1.02-.86s.81-.32 1.25-.32h14.78v3.8h-13.37v7.68Zm12.41-2.05h-9.81v-3.56h9.81z" style="stroke:#191919;stroke-miterlimit:10;stroke-width:9px;fill:#f0efef"/><path d="M518.14 665.02v-3.35h-8.77v11.49h-4.63v-11.27c0-.55.08-1.07.25-1.56s.4-.91.69-1.28c.29-.36.63-.65 1.02-.86s.81-.32 1.25-.32h11.59c.43 0 .83.1 1.21.31s.72.48 1.01.82c.29.35.53.75.7 1.22q.27.705.27 1.5v11.43h-4.6v-4.57h-6.17v-3.56h6.17Zm4.89 8.14v-9.07h4.65v5.26h8.72v-7.68h-13.37v-3.8h14.81c.43 0 .83.11 1.22.32s.73.5 1.02.86.53.79.7 1.28q.27.735.27 1.56v7.26c0 .53-.09 1.04-.27 1.52s-.41.9-.7 1.28c-.29.37-.63.67-1.02.89s-.8.33-1.22.33h-14.81Zm29.14 0h-4.09l-7.26-15.29h4.87l4.41 9.65 4.47-9.65h4.87l-7.26 15.29Zm20.41-8.14v-3.35h-8.77v11.49h-4.63v-11.27c0-.55.08-1.07.25-1.56s.4-.91.69-1.28c.29-.36.63-.65 1.02-.86s.81-.32 1.25-.32h11.59c.43 0 .83.1 1.21.31s.72.48 1.01.82c.29.35.53.75.7 1.22q.27.705.27 1.5v11.43h-4.6v-4.57h-6.17v-3.56h6.17Zm9.52-3.35v11.49h-4.63v-15.29h14.81c.43 0 .83.1 1.21.31s.72.48 1.01.82c.29.35.53.75.7 1.22q.27.705.27 1.5v11.43h-4.6v-11.49h-8.77Zm31.67 7.69v3.8h-14.78c-.44 0-.86-.11-1.25-.32s-.73-.5-1.02-.86a4.2 4.2 0 0 1-.69-1.28c-.17-.49-.25-1.01-.25-1.56v-7.26c0-.55.08-1.07.25-1.56s.4-.91.69-1.28c.29-.36.63-.65 1.02-.86s.81-.32 1.25-.32h14.78v3.8H600.4v7.68h13.37Zm4.89 0h13.37v3.8h-14.78c-.44 0-.86-.11-1.25-.32s-.73-.5-1.02-.86a4.2 4.2 0 0 1-.69-1.28c-.17-.49-.25-1.01-.25-1.56v-7.26c0-.55.08-1.07.25-1.56s.4-.91.69-1.28c.29-.36.63-.65 1.02-.86s.81-.32 1.25-.32h14.78v3.8h-13.37v7.68Zm12.41-2.05h-9.81v-3.56h9.81z" class="cls-9"/></svg>