<svg xmlns="http://www.w3.org/2000/svg" id="Layer_1" data-name="Layer 1" viewBox="0 0 1000 1000"><defs><style>.cls-8{fill:#1a1a1a}.cls-10{fill:#026793}.cls-13{fill:#04556c}.cls-14{fill:#f0efef}</style></defs><path d="M738.14 943.6c-133.91 36.1-357.34 38.99-477.68 1.84-20.48-6.32-34.49-25.2-34.49-46.63V50.43c0-12.4 10.05-22.45 22.45-22.45h503.15c12.4 0 22.45 10.05 22.45 22.45v846.14c0 21.97-14.67 41.31-35.89 47.03Z" style="fill:#007398"/><path d="M728.33 485.45c-150.75 20.28-301.63 20.3-452.63 0-10.67-1.43-18.62-10.57-18.62-21.34V78.41c0-8.43 6.83-15.27 15.27-15.27h459.34c8.43 0 15.27 6.83 15.27 15.27v385.7c0 10.77-7.95 19.9-18.62 21.34Z" style="fill:#273035"/><rect width="319.9" height="289.37" x="341.31" y="112.58" rx="4.78" ry="4.78" style="fill:#151b19"/><circle cx="598.85" cy="669.89" r="33.42" class="cls-8"/><circle cx="646.55" cy="816.7" r="4.94" class="cls-8"/><circle cx="662.42" cy="814.42" r="4.94" class="cls-13"/><circle cx="662.42" cy="845.98" r="4.94" class="cls-13"/><circle cx="678.14" cy="827.55" r="4.94" class="cls-13"/><circle cx="694.09" cy="808.95" r="4.94" class="cls-13"/><circle cx="709.93" cy="821.83" r="4.94" class="cls-13"/><circle cx="725.92" cy="802.7" r="4.94" class="cls-13"/><circle cx="725.92" cy="834.32" r="4.94" class="cls-13"/><circle cx="725.92" cy="866.12" r="4.94" class="cls-13"/><circle cx="725.92" cy="897.98" r="4.94" class="cls-13"/><circle cx="742.09" cy="815.48" r="4.94" class="cls-13"/><circle cx="742.09" cy="846.74" r="4.94" class="cls-13"/><circle cx="742.09" cy="878.26" r="4.94" class="cls-13"/><circle cx="709.93" cy="853.52" r="4.94" class="cls-13"/><circle cx="709.93" cy="885.22" r="4.94" class="cls-13"/><circle cx="709.93" cy="916.93" r="4.94" class="cls-13"/><circle cx="694.09" cy="841.04" r="4.94" class="cls-13"/><circle cx="694.09" cy="872.62" r="4.94" class="cls-13"/><circle cx="694.09" cy="904.42" r="4.94" class="cls-13"/><circle cx="678.14" cy="859.45" r="4.94" class="cls-13"/><circle cx="678.14" cy="891.27" r="4.94" class="cls-13"/><circle cx="678.14" cy="922.71" r="4.94" class="cls-13"/><circle cx="662.42" cy="877.56" r="4.94" class="cls-13"/><circle cx="662.42" cy="909.21" r="4.94" class="cls-13"/><circle cx="630.6" cy="850.31" r="4.94" class="cls-13"/><circle cx="646.55" cy="832.49" r="4.94" class="cls-13"/><circle cx="646.55" cy="864.07" r="4.94" class="cls-13"/><circle cx="646.55" cy="895.65" r="4.94" class="cls-13"/><circle cx="646.55" cy="927.24" r="4.94" class="cls-13"/><circle cx="630.6" cy="881.83" r="4.94" class="cls-13"/><circle cx="630.6" cy="913.5" r="4.94" class="cls-13"/><circle cx="678.3" cy="811.76" r="4.94" class="cls-8"/><circle cx="709.89" cy="805.99" r="4.94" class="cls-8"/><circle cx="630.6" cy="834.62" r="4.94" class="cls-8"/><circle cx="662.35" cy="830.29" r="4.94" class="cls-8"/><circle cx="662.35" cy="861.66" r="4.94" class="cls-8"/><circle cx="662.35" cy="893.46" r="4.94" class="cls-8"/><circle cx="662.35" cy="924.96" r="4.94" class="cls-8"/><circle cx="693.94" cy="825.36" r="4.94" class="cls-8"/><circle cx="693.94" cy="856.72" r="4.94" class="cls-8"/><circle cx="693.94" cy="888.52" r="4.94" class="cls-8"/><circle cx="693.94" cy="920.32" r="4.94" class="cls-8"/><circle cx="725.92" cy="818.45" r="4.94" class="cls-8"/><circle cx="725.92" cy="850.19" r="4.94" class="cls-8"/><circle cx="725.92" cy="882.05" r="4.94" class="cls-8"/><circle cx="725.92" cy="913.91" r="4.94" class="cls-8"/><circle cx="646.55" cy="848.28" r="4.94" class="cls-8"/><circle cx="646.55" cy="879.86" r="4.94" class="cls-8"/><circle cx="646.55" cy="911.45" r="4.94" class="cls-8"/><circle cx="630.6" cy="865.99" r="4.94" class="cls-8"/><circle cx="630.6" cy="897.66" r="4.94" class="cls-8"/><circle cx="678.3" cy="843.34" r="4.94" class="cls-8"/><circle cx="678.3" cy="875.55" r="4.94" class="cls-8"/><circle cx="678.3" cy="906.99" r="4.94" class="cls-8"/><circle cx="709.76" cy="837.68" r="4.94" class="cls-8"/><circle cx="709.76" cy="869.37" r="4.94" class="cls-8"/><circle cx="709.76" cy="901.08" r="4.94" class="cls-8"/><circle cx="741.49" cy="830.98" r="4.94" class="cls-8"/><circle cx="741.49" cy="862.5" r="4.94" class="cls-8"/><circle cx="741.49" cy="894.02" r="4.94" class="cls-8"/><circle cx="700.02" cy="637.53" r="33.42" class="cls-8"/><path d="M477.58 821.55a99.3 99.3 0 0 1-33.52 0c-4.43-.75-7.65-4.64-7.65-9.14 0-4.54 3.28-8.46 7.77-9.16a107.4 107.4 0 0 1 33.28 0c4.49.7 7.77 4.62 7.77 9.16 0 4.49-3.22 8.39-7.65 9.14m82.25 0a99.3 99.3 0 0 1-33.52 0c-4.43-.75-7.65-4.64-7.65-9.14 0-4.54 3.28-8.46 7.77-9.16a107.4 107.4 0 0 1 33.28 0c4.49.7 7.77 4.62 7.77 9.16 0 4.49-3.22 8.39-7.65 9.14M401.89 633.38H365.2c-2.18 0-3.94-1.77-3.94-3.94v-36.69c0-2.18-1.77-3.94-3.94-3.94h-33.53c-2.18 0-3.94 1.77-3.94 3.94v36.69c0 2.18-1.77 3.94-3.94 3.94h-36.69c-2.18 0-3.94 1.77-3.94 3.94v33.53c0 2.18 1.77 3.94 3.94 3.94h36.69c2.18 0 3.94 1.77 3.94 3.94v36.69c0 2.18 1.77 3.94 3.94 3.94h33.53c2.18 0 3.94-1.77 3.94-3.94v-36.69c0-2.18 1.77-3.94 3.94-3.94h36.69c2.18 0 3.94-1.77 3.94-3.94v-33.53c0-2.18-1.77-3.94-3.94-3.94" style="fill:#262626"/><circle cx="340.55" cy="654.09" r="18.92" style="fill:#303030"/><path d="M438.81 544.95h5.82c4.05 0 7.09 1.51 7.09 4.87 0 2.38-1.61 3.85-4 4.5l5.2 8.02h-4.58l-4.9-7.68h-.6v7.68h-4.02v-17.39Zm4.02 1.17v7.38h.98c2.31 0 3.75-1.17 3.75-3.63s-1.43-3.75-3.72-3.75z" class="cls-10"/><path d="M458.46 562.58c-3.81 0-6.29-2.33-6.29-6.31s2.5-6.09 6.29-6.09 6.29 2.11 6.29 6.09-2.44 6.31-6.29 6.31m0-.76c1.48 0 2.48-1.59 2.48-5.54s-1.01-5.32-2.48-5.32-2.48 1.37-2.48 5.32 1.01 5.54 2.48 5.54m22.29.52v-7.88c0-2.01-.41-3.2-1.41-3.2-1.07 0-2.25.89-2.25 4.25v6.83h-3.81v-8.1c0-1.86-.28-2.98-1.41-2.98-.94 0-2.18 1.17-2.25 3.9v7.18h-3.75v-11.87h3.75v1.89c.36-1.32 1.82-2.16 3.66-2.16 1.39 0 2.95.62 3.55 2.26.43-1.27 1.46-2.26 3.55-2.26s4.15.97 4.15 4.77v7.38h-3.79Zm20.32 0v-7.88c0-2.01-.41-3.2-1.41-3.2-1.07 0-2.25.89-2.25 4.25v6.83h-3.81v-8.1c0-1.86-.28-2.98-1.41-2.98-.94 0-2.18 1.17-2.25 3.9v7.18h-3.75v-11.87h3.75v1.89c.36-1.32 1.82-2.16 3.66-2.16 1.39 0 2.95.62 3.55 2.26.43-1.27 1.46-2.26 3.55-2.26s4.15.97 4.15 4.77v7.38h-3.79Zm9.93-11.88h2.85v1.04H511v7.65c0 1.99.71 2.41 1.43 2.41.45 0 1.09-.15 1.61-.5l.3.65c-1.07.62-1.63.87-2.93.87-2.8 0-4.2-1.19-4.2-4.07v-7.01h-1.54v-1.04h1.54l3-4.1h.79zm15.14 5.49v.6h-8.07c.04 3.28 1.29 4.75 3.32 4.75 1.88 0 3.1-.75 4.13-1.76l.54.42c-.92 1.24-2.35 2.63-5.31 2.63-3.9 0-6.42-2.14-6.42-6.23 0-3.7 2.05-6.16 5.93-6.16s5.89 2.36 5.89 5.76Zm-8.07-.25h4.43c-.04-3.4-.94-4.77-2.25-4.77s-2.1 1.34-2.18 4.77m12.97-3.13c.49-1.47 1.48-2.38 3.28-2.38 2.63 0 4.3 1.42 4.3 4.32v7.83h-3.79v-7.6c0-2.63-.34-3.48-1.37-3.48-1.35 0-2.29 1.44-2.42 4.1v6.98h-3.79v-11.87h3.79v2.11Zm17.88 9.77-.41-2.29c-.6 1.91-1.8 2.56-3.64 2.56-3.21 0-5.2-1.99-5.2-6.21s1.99-6.21 5.2-6.21c1.63 0 2.76.52 3.4 1.96v-8.45h3.79v18.63h-3.15Zm-5.25-5.94c0 3.65.66 5.14 2.18 5.14s2.4-1.49 2.4-5.14-.83-5.14-2.4-5.14-2.18 1.49-2.18 5.14m15.83 6.18c-3.81 0-6.29-2.33-6.29-6.31s2.5-6.09 6.29-6.09 6.29 2.11 6.29 6.09-2.44 6.31-6.29 6.31m0-.76c1.48 0 2.48-1.59 2.48-5.54s-1.01-5.32-2.48-5.32-2.48 1.37-2.48 5.32 1.01 5.54 2.48 5.54" class="cls-10"/><path d="M562.02 538.87c8.49 0 15.39 6.9 15.39 15.39s-6.9 15.39-15.39 15.39h-120.5c-8.49 0-15.39-6.9-15.39-15.39s6.9-15.39 15.39-15.39zm0-3.99h-120.5c-10.7 0-19.38 8.68-19.38 19.38s8.68 19.38 19.38 19.38h120.5c10.7 0 19.38-8.68 19.38-19.38s-8.68-19.38-19.38-19.38" class="cls-10"/><path d="M367.46 433.75h6.57c4.81 0 7.58 2.62 7.58 7.46 0 4.53-2.03 7.35-4.98 8.75l4.57 9.19h-6.39l-3.85-8.1h-.39l-1.25 8.1h-5.79l3.94-25.4Zm4.86 5.85-.96 6.3h1.25c1.91 0 3.28-1.29 3.28-3.95 0-1.46-.72-2.35-2.3-2.35h-1.28Zm34.03 5.82c0 8.03-6.15 14.54-13.04 14.54s-11.67-5.62-11.67-12.49c0-8 6.18-14.54 13.1-14.54s11.61 5.62 11.61 12.49m-18.96 1.77c0 3.88 2.81 6.71 6.24 6.71s6.89-3.64 6.89-8.17c0-3.92-2.81-6.74-6.18-6.74-3.64 0-6.95 3.64-6.95 8.2m23.7-13.44h5.31l2.27 14.23 5.01-14.23h5.34l1.46 25.4h-5.88l-.42-13.86-4.98 13.86h-3.7l-2.18-14.03-3.4 14.03h-5.91l7.07-25.4Z" class="cls-14"/><path d="M437.29 433.75h5.31l2.27 14.23 5.01-14.23h5.34l1.46 25.4h-5.88l-.42-13.86-4.98 13.86h-3.7l-2.18-14.03-3.4 14.03h-5.91l7.07-25.4Zm27.42 0h8.42c3.88 0 5.73 2.72 5.73 5.75 0 2.69-1.16 4.97-3.22 6.37 1.58 1.23 2.39 3.17 2.39 5.11 0 4.6-3.4 8.17-8.21 8.17h-9.04l3.94-25.4Zm3.52 14.67-.87 5.48h1.49c2.15 0 3.4-1.4 3.4-3.27 0-1.36-.69-2.21-2.63-2.21h-1.4Zm1.47-9.43-.78 4.94h1.16c2.42 0 3.46-.99 3.46-2.89 0-1.23-.72-2.04-2.63-2.04h-1.22Zm33.9 6.43c0 8.03-6.15 14.54-13.04 14.54s-11.67-5.62-11.67-12.49c0-8 6.18-14.54 13.1-14.54s11.61 5.62 11.61 12.49m-18.96 1.77c0 3.88 2.81 6.71 6.24 6.71s6.89-3.64 6.89-8.17c0-3.92-2.81-6.74-6.18-6.74-3.64 0-6.95 3.64-6.95 8.2" class="cls-14"/><path d="m512.93 451.18-1.19 7.97h-5.79l1.22-8.03-4.9-17.36h6.06l2.54 11.13 6.33-11.13h6.09l-10.36 17.43Z" class="cls-14"/><path d="M557.71 460.03c-3.11 0-5.75-.89-7.94-2.66-2.33-1.9-3.5-4.35-3.5-7.36 0-3.54 1.12-6.77 3.35-9.69q3.765-4.92 9.48-4.92c5.715 0 6.41.83 8.24 2.5s2.74 4.17 2.74 7.51c0 3.54-1.03 6.75-3.09 9.62-2.37 3.32-5.47 4.98-9.29 4.98Zm1.41-20.38c-2.34 0-4.35 1.12-6.01 3.37-1.56 2.1-2.35 4.44-2.35 7 0 1.73.68 3.13 2.03 4.22 1.3 1.04 2.94 1.56 4.93 1.56 2.31 0 4.24-1.12 5.78-3.37 1.42-2.05 2.13-4.38 2.13-7 0-2.19-.49-3.71-1.48-4.56-.94-.81-2.62-1.22-5.02-1.22Z" style="fill:#7e76b7"/><path d="M546.21 439.46c-1.31 0-2.27-.65-2.89-1.94-.29-.61-.58-.98-.87-1.1-.22-.1-.79-.14-1.72-.14-1.83 0-3.94 1.33-6.33 4-3.35 3.73-5.02 7.22-5.02 10.47q0 2.22 1.59 3.81t3.81 1.59c2.22 0 2.89-.35 4.37-1.06.52-.26 1.62-.92 3.31-2 1.13-.71 1.99-1.06 2.57-1.06q1.305 0 2.22.9c.57.56.85 1.2.85 1.92 0 .8-.38 1.5-1.13 2.1-3.99 3.16-8.05 4.73-12.18 4.73-3.26 0-6.02-1.12-8.26-3.35-2.15-2.15-3.22-4.68-3.22-7.59 0-4.56 2.12-9.21 6.37-13.95 3.61-4.03 7.3-6.04 11.07-6.04.64 0 1.22.02 1.73.06.52.04.97.1 1.36.18.64-.58 1.41-.88 2.31-.88 1.48 0 2.39.8 2.74 2.39.25 1.14.37 2.48.37 4q0 1.02-.63 1.86c-.55.73-1.35 1.1-2.39 1.1Z" style="fill:#e22a73"/><path d="M596.97 460.03c-3.11 0-5.75-.86-7.94-2.57-2.33-1.84-3.5-4.21-3.5-7.13 0-3.43 1.12-6.56 3.35-9.38q3.765-4.77 9.48-4.77c5.715 0 6.41.81 8.24 2.42s2.74 4.04 2.74 7.28c0 3.43-1.03 6.54-3.09 9.32-2.37 3.22-5.47 4.83-9.29 4.83Zm1.4-19.74c-2.34 0-4.35 1.09-6.01 3.27-1.56 2.04-2.35 4.3-2.35 6.78 0 1.67.68 3.04 2.03 4.09 1.3 1.01 2.94 1.51 4.93 1.51 2.31 0 4.24-1.09 5.78-3.27q2.13-2.985 2.13-6.78c0-2.12-.49-3.59-1.48-4.42-.94-.79-2.62-1.18-5.02-1.18Z" style="fill:#d5c129"/><path d="M586.5 456.49c-1.12.82-2.93 1.69-5.41 2.59-2.27.83-4.16 1.37-5.66 1.6-2.54.4-4.02-.7-4.43-3.31q.045.315-.6-5.82c-.56-5.31-1.36-11.2-2.38-17.66-.11-.69 0-1.31.34-1.86.33-.55.81-.88 1.43-.97s1.18.06 1.67.48.79.98.9 1.67c1.02 6.47 1.82 12.45 2.41 17.95.06.99.2 2.49.41 4.51 2.45-.44 5.49-1.64 9.12-3.61q.345-.18.66-.24c.65-.1 1.23.09 1.72.59q.66.66.81 1.59c.17 1.04-.17 1.87-.99 2.49" style="fill:#7ec242"/><path d="M630.09 460.74c-.68 0-1.31-.27-1.87-.81q-5.73-5.445-12.6-7.56c.14 3.72.21 5.79.21 6.19 0 .73-.25 1.35-.76 1.85s-1.14.76-1.89.76-1.39-.25-1.89-.76-.76-1.12-.76-1.85c0-.96.01-2.39.04-4.31.02-1.91.04-3.35.04-4.31l.04-15.48c0-.83.25-1.59.74-2.26q.96-1.305 2.67-1.17 4.605.345 4.71.36 2.655.33 4.5 1.29c5.39 2.75 8.08 6.16 8.08 10.22 0 1.68-.56 3.15-1.69 4.44s-2.82 2.37-5.08 3.25c3.34 1.89 5.86 3.82 7.55 5.79q.66.765.66 1.71c0 .72-.26 1.33-.79 1.85q-.795.78-1.89.78Zm-12.13-24.13c-.1-.01-.84-.06-2.21-.15v10.18c.32.01.59.02.83.02q4.635 0 6.87-1.17.96-.495 1.77-1.32c.54-.55.81-.97.81-1.25 0-1.43-.9-2.81-2.69-4.14-1.7-1.25-3.5-1.98-5.37-2.17Z" style="fill:#36a3b8"/></svg>