<svg xmlns="http://www.w3.org/2000/svg" id="Layer_1" data-name="Layer 1" viewBox="0 0 1000 1000"><defs><style>.cls-1{fill:#181818}.cls-4{fill:#b7b7af}.cls-5{fill:#101010}.cls-8{fill:#111}</style></defs><path d="M968.16 473.21C956.77 347.44 850.13 300.96 723 256.75c-41.03-14.27-84.43-22.88-125.95-27.78-19.55-2.7-54.37-5.69-97.04-5.62-42.68-.07-77.49 2.92-97.04 5.62-41.52 4.9-84.92 13.51-125.95 27.78-127.14 44.2-233.77 90.68-245.16 216.46-11.39 125.77 73.82 224.66 73.82 224.66s69.27 94.33 138.08 76.56 52.86-68.81 92.51-98.43c28.41-21.23 63.72-38.53 120.96-43.91 2.18-.02 4.35-.11 6.5-.3 5.54-.47 10.92-.85 16.18-1.15 16.98-.61 35.68-.28 56.42 1.15 3.75.26 7.7.72 11.39 1.05 54.29 5.82 88.49 22.56 116.06 43.16 39.65 29.62 23.7 80.66 92.51 98.43s138.08-76.56 138.08-76.56 85.22-98.89 73.82-224.66Z" class="cls-8"/><path d="M392.84 459.94c0 12.78-1.55 25.2-4.52 37.07-14.26 57.68-61.06 102.51-119.79 113.93-9.57 1.87-19.44 2.84-29.56 2.84-11.96 0-23.63-1.36-34.8-3.96-57.61-13.32-102.84-59.01-115.49-116.88-2.34-10.64-3.56-21.67-3.56-33.01 0-10.74 1.1-21.24 3.21-31.37 12.45-60.11 59.93-107.38 120.16-119.48 9.85-1.97 20.04-3.02 30.48-3.02 11.65 0 22.98 1.29 33.88 3.75 59.95 13.46 106.68 61.94 117.56 122.83 1.6 8.86 2.42 17.98 2.42 27.29Z"/><path d="M360.83 459.94c0 10.12-1.23 19.95-3.58 29.36-11.3 45.68-48.36 81.18-94.87 90.23-7.58 1.48-15.4 2.25-23.41 2.25-9.47 0-18.71-1.08-27.56-3.13-45.62-10.55-81.44-46.73-91.45-92.56-1.85-8.42-2.82-17.16-2.82-26.14 0-8.51.87-16.82 2.54-24.84 9.86-47.6 47.46-85.03 95.16-94.62 7.8-1.56 15.87-2.39 24.14-2.39 9.22 0 18.2 1.02 26.83 2.97 47.47 10.66 84.48 49.05 93.1 97.27 1.27 7.01 1.92 14.24 1.92 21.61Z" class="cls-5"/><path d="M327.22 459.94c0 7.33-.89 14.45-2.59 21.26-8.18 33.08-35.02 58.79-68.7 65.34a88.5 88.5 0 0 1-16.95 1.63c-6.86 0-13.55-.78-19.96-2.27-33.04-7.64-58.98-33.84-66.23-67.03a88 88 0 0 1-2.04-18.93c0-6.16.63-12.18 1.84-17.99 7.14-34.47 34.37-61.58 68.91-68.52a89 89 0 0 1 17.48-1.73c6.68 0 13.18.74 19.43 2.15 34.38 7.72 61.18 35.52 67.42 70.44.92 5.08 1.39 10.31 1.39 15.65" style="fill:#212121"/><path d="M635.34 431.66c45.09-40.82 129.25-80.32 181.82-83.39 77.36-4.53 94.33 29.16 106.18 52.41 11.85 23.24 14.13 78.38-15.49 95.7s-51.95 17.32-91.14 36-71.01 58.14-113.41 66.95-90.22-15.33-104.15-37.76-31-69.07 36.19-129.9Z"/><rect width="323.69" height="121.1" x="596.16" y="412.48" class="cls-5" rx="60.55" ry="60.55" transform="rotate(-26.3 757.93 473.008)"/><path d="M327.22 459.94c0 7.33-.89 14.45-2.59 21.26l-49.53-.53c-10.11-.18-18.45 7.86-18.63 17.97l-.54 47.9a88.5 88.5 0 0 1-16.95 1.63c-6.86 0-13.55-.78-19.96-2.27l.55-47.92c.18-10.1-7.87-18.44-17.97-18.62l-48.81-.49a88 88 0 0 1-2.04-18.93c0-6.16.63-12.18 1.84-17.99l49.66.5c10.11.18 18.45-7.86 18.63-17.97l.62-51.05a89 89 0 0 1 17.48-1.73c6.68 0 13.18.74 19.43 2.15l-.63 51.29c-.18 10.1 7.87 18.44 17.97 18.62l50.08.53c.92 5.08 1.39 10.31 1.39 15.65" class="cls-1"/><circle cx="663.91" cy="517.7" r="47.39" class="cls-1"/><circle cx="758.11" cy="472.33" r="47.39" class="cls-1"/><circle cx="852.29" cy="426.43" r="47.39" class="cls-1"/><rect width="103.47" height="34.06" x="648.01" y="313.84" rx="17.03" ry="17.03" style="fill:#0b0b0b" transform="rotate(-23.73 699.719 330.867)"/><rect width="81.57" height="18.07" x="658.96" y="321.83" class="cls-4" rx="8.2" ry="8.2" transform="rotate(-23.73 699.719 330.867)"/><path d="M620.9 355.47h-58.33l-15.04-24.6h-66.46l-15.04 24.6h-58.32l-12.08 7.97v18.69l11.01 6.91h215.32l11.01-6.91v-18.69z" class="cls-4"/><path d="M424.02 382.46c-6.94 0-11.51-1.33-14.21-2.7V365.3c2.7-1.36 7.26-2.7 14.21-2.7 7.67 0 11.13 1.3 13.19 2.06v2.06H419.9v11.6h8.09v-4.34h-4.44v-3.01h13.67v9.42c-2.06.76-5.52 2.06-13.19 2.06Zm32.6 0c-6.34 0-11.35-1.4-13.73-2.7V365.3c2.7-1.36 7.26-2.7 14.21-2.7 7.67 0 11.13 1.3 13.19 2.06v2.06h-17.31v3.9h17.31v3.65h-17.31v4.06h17.31v2.03c-2.5.89-5.83 2.09-13.67 2.09Zm43.78-.32c-3.3 0-5.14-1.11-5.14-1.11v-14.3h-9.89v14.3s-1.87 1.11-5.23 1.11-4.85-1.11-4.85-1.11v-15.41s4.6-3.01 15.03-3.01 15.03 3.01 15.03 3.01v15.41s-1.84 1.11-4.95 1.11m24.39.32c-6.34 0-11.35-1.4-13.73-2.7V365.3c2.7-1.36 7.26-2.7 14.21-2.7 7.67 0 11.13 1.3 13.19 2.06v2.06h-17.31v3.9h17.31v3.65h-17.31v4.06h17.31v2.03c-2.5.89-5.83 2.09-13.67 2.09Zm31.52 0c-9.26 0-12.84-2.06-12.84-2.06v-2.06h16.96v-4.03h-16.96v-9s4.19-2.7 14.21-2.7c8.34 0 12.84 2.06 12.84 2.06v2.06h-16.96v4.03h16.96v9s-4 2.7-14.21 2.7m24.96-.32c-3.33 0-5.04-1.11-5.04-1.11v-17s1.84-1.11 5.07-1.11 5.01 1.11 5.01 1.11v17s-1.81 1.11-5.04 1.11m23.62.32c-9.26 0-12.84-2.06-12.84-2.06v-2.06h16.96v-4.03h-16.96v-9s4.19-2.7 14.21-2.7c8.34 0 12.84 2.06 12.84 2.06v2.06h-16.96v4.03h16.96v9s-4 2.7-14.21 2.7" class="cls-8"/><path d="M488.08 347.33c-.05-.1-.03-.23.08-.28.1-.05.21-.03.28.1l3.35 5.93c.15.26.26.34.52.34h.26c.21 0 .28-.13.15-.34l-2.94-5.13c-.31-.54-.1-.98.54-.98h.15c.49 0 .7.15.98.64l3.12 5.47c.16.26.26.34.52.34h.26c.21 0 .28-.13.16-.34l-3.07-5.44c-.36-.62-.21-1.11.28-1.42 1.52-.98 2.5-2.58 2.5-4.59 0-3.07-2.32-5.44-5.7-5.44h-5.54c-.52 0-.72.21-.72.72v16.17c0 .26.08.34.33.34h.21c.26 0 .33-.08.33-.34v-15.19c0-.57.23-.83.83-.83h4.56c2.91 0 4.82 1.96 4.82 4.56s-1.91 4.56-4.82 4.56h-.7c-.57 0-.83-.23-.83-.83v-.05c0-.59.26-.83.83-.83h.7c1.96 0 3.12-1.21 3.12-2.86s-1.16-2.86-3.12-2.86h-3.27c-.31 0-.41.1-.41.41v13.9c0 .26.08.34.33.34h.21c.26 0 .33-.08.33-.34v-12.87c0-.39.15-.57.57-.57h2.24c1.5 0 2.24.8 2.24 1.99s-.75 1.99-2.24 1.99h-1.31c-.13 0-.21-.08-.21-.21s.08-.21.21-.21h1.31c1.26 0 1.83-.62 1.83-1.57s-.57-1.57-1.83-1.57h-2.24q-.15 0-.15.15v12.87c0 .54-.23.75-.75.75h-.21c-.52 0-.75-.21-.75-.75v-13.9c0-.57.23-.83.83-.83h3.27c2.19 0 3.53 1.39 3.53 3.28s-1.34 3.27-3.53 3.27h-.7c-.31 0-.41.1-.41.41v.05c0 .31.1.41.41.41h.7c2.68 0 4.41-1.78 4.41-4.15s-1.73-4.15-4.41-4.15h-4.56c-.31 0-.41.1-.41.41v15.19c0 .54-.23.75-.75.75h-.21c-.52 0-.75-.21-.75-.75v-16.17c0-.75.39-1.13 1.13-1.13h5.54c3.61 0 6.11 2.55 6.11 5.85 0 2.11-1.11 3.79-2.73 4.95-.28.21-.34.46-.08.9l3.02 5.36c.31.54.1.98-.54.98h-.15c-.49 0-.7-.15-.98-.64l-3.12-5.47c-.15-.26-.26-.33-.52-.33h-.26c-.21 0-.28.13-.15.33l2.94 5.13c.31.54.1.98-.54.98h-.15c-.49 0-.7-.15-.98-.64l-3.3-5.85Zm17.67-4.41c0-2.01-.88-3.12-2.22-3.12s-2.22 1.11-2.22 3.12v1.37c0 .13-.08.21-.21.21s-.21-.08-.21-.21v-1.37c0-2.27 1.03-3.53 2.63-3.53s2.63 1.26 2.63 3.53v.83c0 .26.08.34.33.34h.21c.26 0 .33-.08.33-.34v-.83c0-2.84-1.39-4.41-3.51-4.41s-3.51 1.57-3.51 4.41v.83c0 .54-.23.75-.75.75h-.21c-.52 0-.75-.21-.75-.75v-.83c0-3.92 2.04-6.11 5.21-6.11s5.21 2.19 5.21 6.11v.83c0 .26.08.34.33.34h.21c.26 0 .33-.08.33-.34v-.83c0-4.49-2.37-6.99-6.08-6.99s-6.09 2.5-6.09 6.99v1.37c0 .13-.08.21-.21.21s-.21-.08-.21-.21v-1.37c0-4.74 2.53-7.4 6.5-7.4s6.5 2.66 6.5 7.4v.83c0 .54-.23.75-.75.75h-.21c-.52 0-.75-.21-.75-.75v-.83c0-3.66-1.88-5.7-4.8-5.7s-4.8 2.04-4.8 5.7v.83c0 .26.08.34.33.34h.21c.26 0 .33-.08.33-.34v-.83c0-3.09 1.55-4.82 3.92-4.82s3.92 1.73 3.92 4.82v.83c0 .54-.23.75-.75.75h-.21c-.52 0-.75-.21-.75-.75v-.83Zm-4.44 3.76c0 2.01.88 3.12 2.22 3.12s2.22-1.11 2.22-3.12v-1.34c0-.13.08-.21.21-.21s.21.08.21.21v1.34c0 2.27-1.03 3.53-2.63 3.53s-2.63-1.26-2.63-3.53v-.8c0-.26-.08-.34-.33-.34h-.21c-.26 0-.34.08-.34.34v.8c0 2.84 1.39 4.41 3.51 4.41s3.51-1.57 3.51-4.41v-.8c0-.54.23-.75.75-.75h.21c.52 0 .75.21.75.75v.8c0 3.92-2.04 6.11-5.21 6.11s-5.21-2.19-5.21-6.11v-.8c0-.26-.08-.34-.33-.34h-.21c-.26 0-.33.08-.33.34v.8c0 4.49 2.37 6.99 6.09 6.99s6.08-2.5 6.08-6.99v-1.34c0-.13.08-.21.21-.21s.21.08.21.21v1.34c0 4.74-2.53 7.4-6.5 7.4s-6.5-2.66-6.5-7.4v-.8c0-.54.23-.75.75-.75h.21c.52 0 .75.21.75.75v.8c0 3.66 1.88 5.7 4.8 5.7s4.8-2.04 4.8-5.7v-.8c0-.26-.08-.34-.33-.34h-.21c-.26 0-.34.08-.34.34v.8c0 3.09-1.55 4.82-3.92 4.82s-3.92-1.73-3.92-4.82v-.8c0-.54.23-.75.75-.75h.21c.52 0 .75.21.75.75v.8Zm22.26-3.14c0-.13-.1-.15-.15-.03l-2.99 5.96c-.16.31-.31.44-.52.44s-.36-.13-.52-.44l-2.99-5.96c-.05-.13-.15-.1-.15.03v9.54c0 .54-.23.75-.75.75h-.21c-.52 0-.75-.21-.75-.75V339.1c0-.44.15-.75.67-.75.36 0 .54.13.7.41l3.87 7.66c.05.1.08.13.13.13s.08-.03.13-.13l3.87-7.66c.16-.28.34-.41.7-.41.52 0 .67.31.67.75v13.98c0 .26.08.34.33.34h.21c.26 0 .34-.08.34-.34v-15.19c0-.31-.1-.41-.41-.41h-1.73c-.36 0-.52.1-.7.49l-2.89 5.73c-.16.31-.31.44-.52.44s-.36-.13-.52-.44l-2.89-5.73c-.18-.39-.33-.49-.7-.49h-1.73c-.31 0-.41.1-.41.41v15.19c0 .54-.23.75-.75.75h-.21c-.52 0-.75-.21-.75-.75v-16.17c0-.75.39-1.13 1.13-1.13h3.2c.75 0 1.08.1 1.47.88l2.01 3.97c.05.1.08.13.13.13s.08-.03.13-.13l2.01-3.97c.39-.77.72-.88 1.47-.88h3.2c.75 0 1.13.39 1.13 1.13v16.71c0 .13-.08.21-.21.21s-.21-.08-.21-.21v-16.71c0-.52-.21-.72-.72-.72h-3.22c-.59 0-.8.13-1.06.65l-2.01 3.97c-.16.31-.31.44-.52.44s-.36-.13-.52-.44l-2.01-3.97c-.26-.52-.46-.65-1.06-.65h-3.22c-.52 0-.72.21-.72.72v16.17c0 .26.08.34.33.34h.21c.26 0 .34-.08.34-.34v-15.19c0-.57.23-.83.83-.83h1.73c.57 0 .8.15 1.08.72l2.89 5.72c.05.1.08.13.13.13s.08-.03.13-.13l2.89-5.72c.28-.57.52-.72 1.08-.72h1.73c.59 0 .83.26.83.83v15.19c0 .54-.23.75-.75.75h-.21c-.52 0-.75-.21-.75-.75V339.1c0-.26-.08-.33-.28-.33-.15 0-.23.08-.39.36l-3.76 7.48c-.16.31-.31.44-.52.44s-.36-.13-.52-.44l-3.76-7.48c-.15-.28-.23-.36-.39-.36-.21 0-.28.08-.28.33v13.98c0 .26.08.34.34.34h.21c.26 0 .33-.08.33-.34v-9.59c0-.33.13-.52.41-.52.23 0 .39.1.54.41l2.99 5.91c.05.1.08.13.13.13s.08-.03.13-.13l2.99-5.91c.15-.31.31-.41.54-.41.28 0 .41.18.41.52v10.13c0 .13-.08.21-.21.21s-.21-.08-.21-.21v-10.08Zm18.21 0c0-.13-.1-.15-.15-.03l-2.99 5.96c-.16.31-.31.44-.52.44s-.36-.13-.52-.44l-2.99-5.96c-.05-.13-.15-.1-.15.03v9.54c0 .54-.23.75-.75.75h-.21c-.52 0-.75-.21-.75-.75V339.1c0-.44.15-.75.67-.75.36 0 .54.13.7.41l3.87 7.66c.05.1.08.13.13.13s.08-.03.13-.13l3.87-7.66c.16-.28.34-.41.7-.41.52 0 .67.31.67.75v13.98c0 .26.08.34.33.34h.21c.26 0 .34-.08.34-.34v-15.19c0-.31-.1-.41-.41-.41h-1.73c-.36 0-.52.1-.7.49l-2.89 5.73c-.16.31-.31.44-.52.44s-.36-.13-.52-.44l-2.89-5.73c-.18-.39-.34-.49-.7-.49h-1.73c-.31 0-.41.1-.41.41v15.19c0 .54-.23.75-.75.75h-.21c-.52 0-.75-.21-.75-.75v-16.17c0-.75.39-1.13 1.13-1.13h3.2c.75 0 1.08.1 1.47.88l2.01 3.97c.05.1.08.13.13.13s.08-.03.13-.13l2.01-3.97c.39-.77.72-.88 1.47-.88h3.2c.75 0 1.13.39 1.13 1.13v16.71c0 .13-.08.21-.21.21s-.21-.08-.21-.21v-16.71c0-.52-.21-.72-.72-.72h-3.22c-.59 0-.8.13-1.06.65l-2.01 3.97c-.16.31-.31.44-.52.44s-.36-.13-.52-.44l-2.01-3.97c-.26-.52-.46-.65-1.06-.65h-3.22c-.52 0-.72.21-.72.72v16.17c0 .26.08.34.33.34h.21c.26 0 .34-.08.34-.34v-15.19c0-.57.23-.83.83-.83H534c.57 0 .8.15 1.08.72l2.89 5.72c.05.1.08.13.13.13s.08-.03.13-.13l2.89-5.72c.28-.57.52-.72 1.08-.72h1.73c.59 0 .83.26.83.83v15.19c0 .54-.23.75-.75.75h-.21c-.52 0-.75-.21-.75-.75V339.1c0-.26-.08-.33-.28-.33-.16 0-.23.08-.39.36l-3.76 7.48c-.16.31-.31.44-.52.44s-.36-.13-.52-.44l-3.76-7.48c-.15-.28-.23-.36-.39-.36-.21 0-.28.08-.28.33v13.98c0 .26.08.34.34.34h.21c.26 0 .33-.08.33-.34v-9.59c0-.33.13-.52.41-.52.23 0 .39.1.54.41l2.99 5.91c.05.1.08.13.13.13s.08-.03.13-.13l2.99-5.91c.15-.31.31-.41.54-.41.28 0 .41.18.41.52v10.13c0 .13-.08.21-.21.21s-.21-.08-.21-.21v-10.08Z" style="fill:#231f20;stroke:#111;stroke-miterlimit:10;stroke-width:.5px"/><circle cx="238.98" cy="459.94" r="15.8"/><path d="m238.87 604.45 5.93-13.22h-11.62zm0-289.03 5.93 13.22h-11.62zM383.5 460.05l-13.22-5.93v11.63zm-289.03 0 13.22-5.93v11.63zm758.39-18.67c-.59.29-1.2.41-1.84.36a3.84 3.84 0 0 1-1.76-.59 3.37 3.37 0 0 1-1.24-1.4l-5.09-10.3c-.29-.59-.41-1.2-.36-1.84s.25-1.22.6-1.76.81-.95 1.4-1.24l13.5-6.67 1.53 3.1-12.84 6.35c-.25.12-.41.29-.49.5s-.05.45.08.72l4.42 8.95c.12.25.29.41.52.49s.46.05.7-.07l12.84-6.35 1.53 3.1-13.5 6.67Zm-104.91 27.96 12.87-6.36c.59-.29 1.2-.41 1.84-.36.63.05 1.22.25 1.76.59s.95.81 1.24 1.4l1.62 3.29c.1.2.18.4.24.61.06.2.09.41.1.62.44.23.84.5 1.19.8.36.31.63.66.82 1.05l1.79 3.61c.29.59.41 1.2.36 1.84s-.25 1.22-.61 1.76c-.35.54-.82.96-1.41 1.25l-13.52 6.68zm6.66 5.03 9.37-4.63c.08-.04.13-.1.15-.17.02-.08 0-.16-.03-.23l-1.5-3.03a.3.3 0 0 0-.17-.16.27.27 0 0 0-.23.01l-9.37 4.63c-.08.04-.13.1-.16.18a.3.3 0 0 0 .02.24l1.5 3.03c.04.08.1.13.18.16s.16.02.24-.02Zm3.46 7 10.02-4.95c.08-.04.13-.1.17-.18s.03-.17 0-.24l-1.65-3.33a.27.27 0 0 0-.19-.15.36.36 0 0 0-.25.02l-10.02 4.95c-.08.04-.13.1-.16.18s-.02.16.02.24l1.65 3.33c.04.08.1.13.18.16s.16.02.24-.02Zm-104.15 38.46c-.29-.59-.41-1.2-.36-1.84.05-.63.25-1.22.6-1.76s.81-.95 1.4-1.24l10.28-5.08c.59-.29 1.21-.41 1.85-.36s1.23.25 1.77.59.95.81 1.24 1.4l6.69 13.54-3.1 1.53-2.79-5.64-10.61 5.24 2.79 5.64-3.08 1.52-6.69-13.54Zm16.07-1.93-2.32-4.69a.27.27 0 0 0-.19-.15.36.36 0 0 0-.25.02l-10.02 4.95c-.08.04-.13.1-.16.18a.3.3 0 0 0 .02.24l2.32 4.69L670 517.9Z" style="fill:#a31d21"/></svg>