<?xml version="1.0" encoding="UTF-8"?>
<svg id="Layer_1" data-name="Layer 1" xmlns="http://www.w3.org/2000/svg" viewBox="0 0 1000 1000">
  <defs>
    <style>
      .cls-1 {
        fill: #bba460;
      }

      .cls-2 {
        fill: #38312b;
      }

      .cls-3 {
        fill: #101010;
      }

      .cls-4 {
        stroke-width: 1.97px;
      }

      .cls-4, .cls-5 {
        fill: none;
        stroke: #151515;
        stroke-miterlimit: 10;
      }

      .cls-6 {
        fill: #ceb578;
      }

      .cls-7 {
        fill: #1e1c1a;
      }

      .cls-8 {
        fill: #c1ac76;
      }

      .cls-9 {
        fill: #2d2d2d;
      }

      .cls-5 {
        stroke-width: 2.07px;
      }

      .cls-10 {
        fill: #171717;
      }
    </style>
  </defs>
  <rect class="cls-10" x="265.07" y="311.44" width="469.85" height="61.45"/>
  <rect class="cls-10" x="265.07" y="422.52" width="469.85" height="61.45"/>
  <rect class="cls-7" x="279.61" y="17.5" width="442.44" height="964.99" rx="20.92" ry="20.92"/>
  <rect class="cls-9" x="299.96" y="141.9" width="401.66" height="510.27" rx="57.32" ry="57.32"/>
  <rect class="cls-5" x="309.57" y="154.11" width="382.43" height="485.84" rx="54.58" ry="54.58"/>
  <rect class="cls-4" x="319.06" y="166.16" width="363.46" height="461.74" rx="51.87" ry="51.87"/>
  <rect class="cls-6" x="338.66" y="191.06" width="324.26" height="411.95" rx="11.7" ry="11.7"/>
  <circle class="cls-9" cx="499.95" cy="815.16" r="139.06"/>
  <circle cx="499.95" cy="815.16" r="120.5"/>
  <circle class="cls-9" cx="499.95" cy="815.16" r="115.34"/>
  <path class="cls-1" d="M609.42,815.16c0,13.4-2.41,26.23-6.81,38.1-1.5,4.07-3.26,8.02-5.22,11.85-10.79,20.99-28.15,38.05-49.39,48.43-14.5,7.11-30.81,11.09-48.05,11.09-4.07,0-8.08-.22-12.03-.66-54.79-5.99-97.43-52.41-97.43-108.8,0-10.14,1.38-19.97,3.97-29.29,1.14-4.17,2.54-8.24,4.17-12.19,8.62-21.05,23.61-38.82,42.57-50.9,16.9-10.77,36.95-17.02,58.45-17.08h.3c60.45,0,109.46,49.01,109.46,109.46Z"/>
  <g>
    <rect class="cls-2" x="360.06" y="209.36" width="80.36" height="80.36" rx="8.11" ry="8.11"/>
    <rect class="cls-1" x="367" y="216.29" width="66.49" height="66.49" rx="10.64" ry="10.64"/>
    <circle class="cls-6" cx="400.24" cy="249.54" r="30.7"/>
    <rect class="cls-2" x="460.27" y="209.36" width="80.36" height="80.36" rx="8.11" ry="8.11"/>
    <rect class="cls-1" x="467.21" y="216.29" width="66.49" height="66.49" rx="10.64" ry="10.64"/>
    <circle class="cls-6" cx="500.45" cy="249.54" r="30.7"/>
    <rect class="cls-2" x="560.48" y="209.36" width="80.36" height="80.36" rx="8.11" ry="8.11"/>
    <rect class="cls-1" x="567.42" y="216.29" width="66.49" height="66.49" rx="10.64" ry="10.64"/>
    <circle class="cls-6" cx="600.66" cy="249.54" r="30.7"/>
  </g>
  <g>
    <rect class="cls-2" x="360.06" y="307.68" width="80.36" height="80.36" rx="8.11" ry="8.11"/>
    <rect class="cls-1" x="367" y="314.61" width="66.49" height="66.49" rx="10.64" ry="10.64"/>
    <circle class="cls-6" cx="400.24" cy="347.85" r="30.7"/>
    <rect class="cls-2" x="460.27" y="307.68" width="80.36" height="80.36" rx="8.11" ry="8.11"/>
    <rect class="cls-1" x="467.21" y="314.61" width="66.49" height="66.49" rx="10.64" ry="10.64"/>
    <circle class="cls-6" cx="500.45" cy="347.85" r="30.7"/>
    <rect class="cls-2" x="560.48" y="307.68" width="80.36" height="80.36" rx="8.11" ry="8.11"/>
    <rect class="cls-1" x="567.42" y="314.61" width="66.49" height="66.49" rx="10.64" ry="10.64"/>
    <circle class="cls-6" cx="600.66" cy="347.85" r="30.7"/>
  </g>
  <g>
    <rect class="cls-2" x="360.06" y="405.99" width="80.36" height="80.36" rx="8.11" ry="8.11"/>
    <rect class="cls-1" x="367" y="412.93" width="66.49" height="66.49" rx="10.64" ry="10.64"/>
    <circle class="cls-6" cx="400.24" cy="446.17" r="30.7"/>
    <rect class="cls-2" x="460.27" y="405.99" width="80.36" height="80.36" rx="8.11" ry="8.11"/>
    <rect class="cls-1" x="467.21" y="412.93" width="66.49" height="66.49" rx="10.64" ry="10.64"/>
    <circle class="cls-6" cx="500.45" cy="446.17" r="30.7"/>
    <rect class="cls-2" x="560.48" y="405.99" width="80.36" height="80.36" rx="8.11" ry="8.11"/>
    <rect class="cls-1" x="567.42" y="412.93" width="66.49" height="66.49" rx="10.64" ry="10.64"/>
    <circle class="cls-6" cx="600.66" cy="446.17" r="30.7"/>
  </g>
  <g>
    <rect class="cls-2" x="360.06" y="504.31" width="80.36" height="80.36" rx="8.11" ry="8.11"/>
    <rect class="cls-1" x="367" y="511.25" width="66.49" height="66.49" rx="10.64" ry="10.64"/>
    <circle class="cls-6" cx="400.24" cy="544.49" r="30.7"/>
    <rect class="cls-2" x="460.27" y="504.31" width="80.36" height="80.36" rx="8.11" ry="8.11"/>
    <rect class="cls-1" x="467.21" y="511.25" width="66.49" height="66.49" rx="10.64" ry="10.64"/>
    <circle class="cls-6" cx="500.45" cy="544.49" r="30.7"/>
    <rect class="cls-2" x="560.48" y="504.31" width="80.36" height="80.36" rx="8.11" ry="8.11"/>
    <rect class="cls-1" x="567.42" y="511.25" width="66.49" height="66.49" rx="10.64" ry="10.64"/>
    <circle class="cls-6" cx="600.66" cy="544.49" r="30.7"/>
  </g>
  <path class="cls-8" d="M499.65,705.7v109.45l-58.45-92.37c16.9-10.77,36.95-17.02,58.45-17.08Z"/>
  <path class="cls-8" d="M548,913.54c-14.5,7.11-30.81,11.09-48.05,11.09-4.07,0-8.08-.22-12.03-.66l11.7-108.81,48.38,98.39Z"/>
  <path class="cls-8" d="M602.6,853.26c-1.5,4.07-3.26,8.02-5.22,11.85l-97.73-49.96,102.95,38.11Z"/>
  <path class="cls-8" d="M499.62,815.15l-105.16-29.28c1.14-4.17,2.54-8.24,4.17-12.19l100.99,41.47Z"/>
  <path class="cls-2" d="M495.51,352.01v2.98h10.77v-5.57h-16.16v-13.36h20.6v4.77h-15.21v4.4h12.59c2.55,0,3.6,1.38,3.6,4.11v5.79c0,2.47-1.17,4.59-4.51,4.59h-12.34c-3.24,0-4.73-1.86-4.73-4.66v-3.06h5.39Z"/>
  <path class="cls-2" d="M489.8,262.14v-4.29l15.47-12.01v-2.84h-10.01v2.95h-5.46v-2.8c0-3.13,1.2-4.66,4.33-4.66h11.39c4.18,0,5.2,1.38,5.2,4.73v2.07c0,1.93-.36,2.73-2.22,4.04l-11.06,8.3h13.47v4.51h-21.11Z"/>
  <path class="cls-2" d="M590.11,257.77v-3.28h5.5v3.13h10.3v-5.57h-9.57v-4.04h9.24v-5.02h-9.97v2.51h-5.5v-2.26c0-3.24,1.24-4.77,6.11-4.77h8.48c5.42,0,6.33,1.64,6.33,4.33v3.82c0,1.67-.36,2.69-1.24,3.24,1.09.51,1.6,1.53,1.6,3.38v4.15c0,2.84-1.24,4.73-5.75,4.73h-9.83c-4.44,0-5.71-2.15-5.71-4.37Z"/>
  <path class="cls-2" d="M404.59,238.49v23.65h-5.53v-16.41c-.73,1.13-2.55,1.86-4.55,1.89v-4.55c2.55-.15,4.55-1.71,4.55-4.59h5.53Z"/>
  <path class="cls-2" d="M589.33,356.06v-14.27c0-3.46,1.53-4.73,4.26-4.73h15.87v4.77h-14.7v4.4h12.56c2.58,0,3.64,1.38,3.64,4.11v5.79c0,2.47-1.2,4.59-4.51,4.59h-12.34c-3.28,0-4.77-1.86-4.77-4.66ZM605.52,350.42h-10.77v5.57h10.77v-5.57Z"/>
  <path class="cls-2" d="M403.46,359.72v-3.86h-14.88v-4.29l13.36-15.5h7.06v15.28h3.09v4.51h-3.09v3.86h-5.53ZM403.46,344.29c0-.47.04-2.07.04-2.62-.29.36-.76.91-1.06,1.27l-7.35,8.41h8.37v-7.06Z"/>
  <path class="cls-2" d="M489.72,453.48v-4.95c0-1.86.51-2.88,1.6-3.38-.87-.55-1.24-1.56-1.24-3.24v-3.82c0-2.77.95-4.33,4-4.33h12.81c3.09,0,4,1.64,4,4.33v3.82c0,1.67-.36,2.69-1.24,3.24,1.09.51,1.6,1.53,1.6,3.38v4.95c0,2.07-1.31,3.93-4.37,3.93h-12.85c-3.06,0-4.33-1.89-4.33-3.93ZM505.77,452.9v-5.57h-10.56v5.57h10.56ZM505.41,443.29v-5.02h-9.86v5.02h9.86Z"/>
  <path class="cls-2" d="M489.98,552.49v-15.87c0-2.55,1.56-3.6,3.82-3.6h14.85c2.88,0,3.71,1.82,3.71,4.77v14.41c0,2.26-1.67,4.48-4.62,4.48h-13.28c-2.37,0-4.48-1.24-4.48-4.19ZM506.9,551.87v-14.01h-11.5v14.01h11.5Z"/>
  <path class="cls-2" d="M610.87,439.41v14.27c0,3.46-1.53,4.73-4.26,4.73h-15.87v-4.77h14.7v-4.4h-12.55c-2.58,0-3.64-1.38-3.64-4.11v-5.79c0-2.47,1.2-4.59,4.51-4.59h12.34c3.28,0,4.77,1.86,4.77,4.66ZM594.68,445.05h10.77v-5.57h-10.77v5.57Z"/>
  <path class="cls-2" d="M394.8,454.83c0-6.48,3.53-12.48,8.73-16.34h-14.85v-4.73h21.11v4.73c-6.19,4.51-8.95,10.04-8.95,16.34v2.58h-6.04v-2.58Z"/>
  <g>
    <path class="cls-2" d="M386.32,550.56c-.55.26-1.81.68-3.45.68-3.47,0-5.72-2.26-5.72-5.4,0-3.32,2.44-5.66,6.16-5.66,1.32,0,2.47.33,3.06.64l-.46,1.51c-.55-.3-1.37-.58-2.59-.58-2.64,0-4.15,1.73-4.14,3.96,0,2.44,1.78,3.94,4.07,3.94,1.28,0,2.13-.33,2.72-.58l.36,1.49Z"/>
    <path class="cls-2" d="M388.82,535.38h1.99v15.6h-1.99v-15.6Z"/>
    <path class="cls-2" d="M395.3,546.13c.05,2.38,1.81,3.57,3.98,3.57,1.59,0,2.5-.27,3.31-.59l.36,1.41c-.7.3-1.96.73-3.91.73-3.48,0-5.64-2.19-5.64-5.33s2.02-5.73,5.43-5.73c3.87,0,4.78,3.27,4.78,5.06,0,.4-.03.69-.08.88h-8.22ZM401.68,544.7c.02-.91-.4-3.12-3-3.12-2.24,0-3.17,1.83-3.35,3.12h6.35Z"/>
    <path class="cls-2" d="M412.58,550.98l-.19-1.4h-.06c-.62.83-1.89,1.66-3.59,1.66-2.37,0-3.46-1.62-3.46-3.03,0-2.53,2.31-4.01,6.94-3.96v-.19c0-.67-.2-2.46-2.64-2.44-1.09,0-2.26.32-3.08.87l-.46-1.31c1.02-.64,2.39-1,3.82-1,3.59,0,4.34,2.48,4.34,4.5v3.73c0,.94.05,1.83.17,2.57h-1.8ZM412.27,545.63c-2.48-.06-4.97.38-4.97,2.33,0,1.22.87,1.83,1.95,1.83,1.61,0,2.57-.98,2.91-1.83.07-.21.1-.42.1-.6v-1.73Z"/>
    <path class="cls-2" d="M417.55,543.91c0-1.36-.02-2.43-.09-3.47h1.74l.07,2.21h.07c.54-1.55,1.79-2.47,3.18-2.47.23,0,.39.01.59.07v1.83c-.23-.05-.45-.07-.75-.07-1.45,0-2.45,1.03-2.74,2.54-.05.27-.08.58-.08.87v5.56h-1.99v-7.07Z"/>
  </g>
  <g>
    <path class="cls-2" d="M576.98,546.27c.05,2.38,1.81,3.57,3.98,3.57,1.59,0,2.5-.27,3.31-.59l.36,1.41c-.7.3-1.96.73-3.91.73-3.48,0-5.63-2.19-5.63-5.33s2.02-5.73,5.43-5.73c3.87,0,4.78,3.27,4.78,5.06,0,.4-.03.69-.08.88h-8.22ZM583.35,544.85c.02-.91-.4-3.12-3-3.12-2.24,0-3.17,1.83-3.34,3.12h6.35Z"/>
    <path class="cls-2" d="M587.86,543.48c0-1.05-.03-2.01-.09-2.89h1.77l.11,1.89h.06c.54-1.04,1.89-2.15,3.84-2.15,1.44,0,4.1.8,4.1,4.78v6.02h-1.99v-5.84c0-1.85-.78-3.34-2.76-3.34-1.44,0-2.53,1-2.92,2.05-.09.23-.15.57-.15.87v6.25h-1.99v-7.65Z"/>
    <path class="cls-2" d="M603.35,537.48v3.11h3v1.51h-3v5.48c0,1.29.34,2.16,1.57,2.16.57,0,.98-.07,1.25-.16l.09,1.51c-.4.16-1.06.3-1.87.3-.95,0-1.73-.33-2.21-.87-.56-.61-.78-1.62-.78-2.78v-5.63h-1.75v-1.51h1.75v-2.61l1.95-.5Z"/>
    <path class="cls-2" d="M609.67,546.27c.05,2.38,1.81,3.57,3.98,3.57,1.59,0,2.5-.27,3.31-.59l.36,1.41c-.7.3-1.96.73-3.91.73-3.48,0-5.63-2.19-5.63-5.33s2.02-5.73,5.43-5.73c3.87,0,4.78,3.27,4.78,5.06,0,.4-.03.69-.08.88h-8.22ZM616.05,544.85c.02-.91-.4-3.12-3-3.12-2.24,0-3.17,1.83-3.34,3.12h6.35Z"/>
    <path class="cls-2" d="M620.55,544.06c0-1.36-.02-2.43-.09-3.47h1.74l.07,2.21h.07c.54-1.55,1.79-2.47,3.18-2.47.23,0,.39.01.59.07v1.83c-.23-.05-.45-.07-.75-.07-1.45,0-2.45,1.03-2.74,2.54-.05.27-.08.58-.08.87v5.56h-1.99v-7.07Z"/>
  </g>
  <rect class="cls-3" x="305.8" y="18.45" width="391.7" height="16.07"/>
</svg>