<svg xmlns="http://www.w3.org/2000/svg" id="Layer_1" data-name="Layer 1" viewBox="0 0 1000 1000"><defs><style>.cls-1{fill:#333}.cls-3{fill:#474748}.cls-7{fill:#c2472a}.cls-9{fill:#d34e3c}.cls-10{fill:#383838}.cls-12{fill:#1e1e1e}.cls-14{fill:#2d2d2d}.cls-15{fill:#171717}</style></defs><path d="M968.8 506.26c-10.48-157.67-83.77-253.9-125.7-288.3-41.92-34.41-104.13-55.82-131.7-55.82H288.58c-27.57 0-89.77 21.42-131.7 55.82-41.92 34.41-115.22 130.63-125.7 288.3S70.37 793.12 84.95 827.3s36 42.15 62.89 43.06c4.05.14 47.89-.16 57.99-.24 1.14 0 2.05-.95 2.03-2.09l-.07-3.94h76.43c4.52 0 8.24-3.57 8.42-8.09l.11-2.73h414.68v2.14c0 4.8 3.89 8.68 8.68 8.68h76.27l-.09 4.49c-.02 1.15.9 2.1 2.05 2.09 10.13-.03 53.74-.18 57.79-.31 26.89-.91 48.3-8.89 62.89-43.06 14.58-34.18 64.25-163.37 53.77-321.04Z" class="cls-1"/><path d="M908.9 313.18C874.27 248.47 828.99 207 778.26 187.41s-130.4-28.71-175.1-28.71H396.84c-44.7 0-124.37 9.11-175.1 28.71-50.73 19.59-96 61.06-130.64 125.77-34.63 64.71-2.72 125.92 2.51 134.35 4.22 6.8 31.78 19.59 66.3 19.59h680.17c34.52 0 62.09-12.8 66.3-19.59 5.23-8.44 37.14-69.65 2.51-134.35Zm-56.84 189.74c0-12.76-11.35-26.58-22.86-26.58H171.01c-11.51 0-22.86 13.82-22.86 26.58s-3.04 57.11-3.34 131.24 63 229.94 63 229.94h80.89c2.03 0 3.7-1.6 3.78-3.63l.29-7.19h414.68v7.04c0 2.09 1.69 3.78 3.78 3.78h81.17s63.3-155.81 63-229.94-3.34-118.48-3.34-131.24" style="fill:#3f4040"/><path d="M611.5 450.67c-8.57 0-16.12-4.5-20.19-12.04-4.08-7.54-3.71-16.32.99-23.49l32.02-48.92a22.36 22.36 0 0 1 18.76-10.14c3.73 0 7.44.95 10.73 2.75l49.3 26.94c4.52 2.47 7.75 6.57 9.08 11.55s.59 10.14-2.09 14.54l-18.99 31.16c-2.88 4.72-8.1 7.65-13.62 7.65h-65.98Z" class="cls-7"/><path d="M643.07 356.33c3.6 0 7.24.88 10.61 2.72l49.3 26.94c9.23 5.04 12.37 16.77 6.9 25.75l-18.99 31.16a15.69 15.69 0 0 1-13.41 7.53H611.5c-18.05 0-28.88-20.04-19-35.14l32.02-48.92c4.23-6.46 11.3-10.02 18.55-10.03m0-.51c-7.68 0-14.77 3.83-18.97 10.25L592.08 415c-4.74 7.25-5.12 16.12-1 23.75 4.12 7.62 11.75 12.17 20.41 12.17h65.98c5.61 0 10.92-2.98 13.84-7.77l18.99-31.16c2.72-4.46 3.47-9.69 2.12-14.74-1.35-5.04-4.62-9.2-9.2-11.71l-49.3-26.94a22.66 22.66 0 0 0-10.85-2.78Z"/><ellipse cx="653.12" cy="407.35" class="cls-9" rx="34.18" ry="27.34"/><path d="M307.11 527.9h385.97c7.92 0 14.35 6.43 14.35 14.35v316.94H292.75V542.25c0-7.92 6.43-14.35 14.35-14.35Z" class="cls-3"/><path d="M725.84 371.37c-3.57 0-7.11-.93-10.23-2.68l-50.66-28.38a13.8 13.8 0 0 1-6.87-9.63c-.74-4.09.37-8.26 3.05-11.43l27.76-32.86c3.72-4.4 9.15-6.92 14.92-6.92 3.3 0 6.57.85 9.47 2.46l44.68 24.82c4.8 2.66 8.2 7.27 9.34 12.64s-.1 10.96-3.39 15.34l-21.29 28.3c-3.94 5.24-10.21 8.36-16.76 8.36Z" class="cls-7"/><path d="M703.8 279.71c3.19 0 6.4.79 9.35 2.42l44.68 24.82c9.93 5.52 12.7 18.53 5.87 27.61l-21.29 28.3a20.714 20.714 0 0 1-26.67 5.62l-50.66-28.38c-7.47-4.19-9.28-14.14-3.75-20.69l27.76-32.86c3.77-4.46 9.2-6.83 14.73-6.83m-.02-.51c-5.84 0-11.34 2.56-15.11 7.01l-27.76 32.86a14.1 14.1 0 0 0-3.11 11.64c.75 4.16 3.31 7.74 7 9.81l50.66 28.38c3.16 1.77 6.74 2.71 10.36 2.71 6.64 0 12.98-3.16 16.96-8.46l21.29-28.3a19.2 19.2 0 0 0 3.44-15.54c-1.16-5.44-4.6-10.1-9.46-12.8l-44.68-24.82a19.8 19.8 0 0 0-9.59-2.49"/><path d="M792.11 299.51c-3.49 0-6.95-.89-10.02-2.57l-51.53-28.28c-4.69-2.57-7.76-7.09-8.43-12.39s1.17-10.44 5.07-14.11l29.66-27.9c3.38-3.18 7.79-4.93 12.43-4.93 3.03 0 6.04.77 8.7 2.23l49.94 27.36c4.68 2.56 7.86 7.05 8.73 12.31s-.7 10.53-4.31 14.46l-24.86 27.07a20.9 20.9 0 0 1-15.36 6.74Z" class="cls-7"/><path d="M769.27 209.57c2.93 0 5.89.72 8.58 2.2l49.94 27.36c9.67 5.3 11.81 18.27 4.35 26.39l-24.86 27.07a20.59 20.59 0 0 1-25.07 4.12l-51.53-28.28c-9.68-5.31-11.36-18.53-3.32-26.1l29.66-27.9c3.4-3.2 7.8-4.86 12.25-4.86m0-.5c-4.7 0-9.18 1.77-12.6 4.99l-29.66 27.9c-3.95 3.72-5.83 8.94-5.14 14.32.68 5.38 3.81 9.97 8.56 12.58l51.53 28.28c3.1 1.7 6.61 2.6 10.14 2.6 5.89 0 11.56-2.49 15.54-6.82l24.86-27.07c3.66-3.99 5.25-9.33 4.37-14.67s-4.11-9.89-8.85-12.49l-49.94-27.36a18.4 18.4 0 0 0-8.82-2.26Z"/><ellipse cx="716.37" cy="323.3" class="cls-9" rx="30.08" ry="24.95"/><ellipse cx="779.94" cy="251.53" class="cls-9" rx="30.08" ry="24.95"/><rect width="65.92" height="19.9" x="467.46" y="562.97" class="cls-12" rx="9.95" ry="9.95"/><rect width="65.92" height="19.9" x="347.73" y="562.97" class="cls-12" rx="9.95" ry="9.95"/><path d="M422.06 418.72c-2.4 0-4.7-.74-6.66-2.14-5.13-3.67-6.32-10.84-2.65-15.97l26.79-37.43c2.15-3 5.63-4.79 9.32-4.79 2.4 0 4.7.74 6.66 2.14 2.49 1.78 4.13 4.42 4.63 7.44s-.21 6.05-1.99 8.54l-26.79 37.43c-2.15 3-5.63 4.79-9.32 4.79Z" class="cls-12"/><path d="M448.86 359.9c2 0 4.03.6 5.78 1.86 4.47 3.2 5.5 9.41 2.3 13.88l-26.79 37.43c-1.94 2.71-5 4.16-8.1 4.16-2 0-4.03-.6-5.78-1.86a9.945 9.945 0 0 1-2.3-13.88l26.79-37.43c1.94-2.71 5-4.16 8.1-4.16m0-3c-4.17 0-8.11 2.02-10.54 5.41l-26.79 37.43a12.9 12.9 0 0 0-2.25 9.65c.57 3.41 2.43 6.4 5.24 8.41 2.21 1.58 4.82 2.42 7.53 2.42 4.17 0 8.11-2.02 10.54-5.41l26.79-37.43c2.01-2.81 2.81-6.24 2.25-9.65-.57-3.41-2.43-6.4-5.24-8.41a12.9 12.9 0 0 0-7.53-2.42" class="cls-14"/><path d="M493.6 418.72c-2.4 0-4.7-.74-6.66-2.14a11.36 11.36 0 0 1-4.63-7.44c-.5-3.02.21-6.05 1.99-8.54l26.79-37.43c2.15-3 5.63-4.79 9.32-4.79 2.4 0 4.7.74 6.66 2.14 2.49 1.78 4.13 4.42 4.63 7.44s-.21 6.05-1.99 8.54l-26.79 37.43c-2.15 3-5.63 4.79-9.32 4.79" class="cls-12"/><path d="M520.41 359.9c2 0 4.03.6 5.78 1.86 4.47 3.2 5.5 9.41 2.3 13.88l-26.79 37.43c-1.94 2.71-5 4.16-8.1 4.16-2 0-4.03-.6-5.78-1.86a9.945 9.945 0 0 1-2.3-13.88l26.79-37.43c1.94-2.71 5-4.16 8.1-4.16m0-3c-4.17 0-8.11 2.02-10.54 5.41l-26.79 37.43a12.9 12.9 0 0 0-2.25 9.65c.57 3.41 2.43 6.4 5.24 8.41 2.21 1.58 4.82 2.42 7.53 2.42 4.17 0 8.11-2.02 10.54-5.41l26.79-37.43c2.01-2.81 2.81-6.24 2.25-9.65-.57-3.41-2.43-6.4-5.24-8.41a12.9 12.9 0 0 0-7.53-2.42" class="cls-14"/><rect width="65.92" height="19.9" x="587.2" y="562.97" class="cls-12" rx="9.95" ry="9.95"/><rect width="65.92" height="19.9" x="467.46" y="637.93" class="cls-12" rx="9.95" ry="9.95"/><rect width="65.92" height="19.9" x="347.73" y="637.93" class="cls-12" rx="9.95" ry="9.95"/><rect width="65.92" height="19.9" x="587.2" y="637.93" class="cls-12" rx="9.95" ry="9.95"/><rect width="65.92" height="19.9" x="467.46" y="712.9" class="cls-12" rx="9.95" ry="9.95"/><rect width="65.92" height="19.9" x="347.73" y="712.9" class="cls-12" rx="9.95" ry="9.95"/><rect width="65.92" height="19.9" x="587.2" y="712.9" class="cls-12" rx="9.95" ry="9.95"/><rect width="65.92" height="19.9" x="467.46" y="787.86" class="cls-12" rx="9.95" ry="9.95"/><rect width="65.92" height="19.9" x="347.73" y="787.86" class="cls-12" rx="9.95" ry="9.95"/><path d="M362.79 322.11c0 13.84-2.59 27.06-7.31 39.23-.01.04-.03.1-.05.14-10.88 27.93-33 50.23-60.79 61.37-.1.04-.19.07-.29.11-12.39 4.92-25.9 7.63-40.02 7.63s-27.61-2.7-39.98-7.61l-.33-.12c-27.79-11.14-49.91-33.44-60.79-61.37-.04-.1-.08-.19-.11-.3-4.69-12.11-7.26-25.29-7.26-39.06 0-14.53 2.85-28.38 8.04-41.04.03-.08.07-.16.1-.23 11.14-27.03 32.86-48.58 60.02-59.45 12.47-5.01 26.07-7.75 40.31-7.75s27.84 2.74 40.31 7.74c27.16 10.88 48.89 32.43 60.02 59.46 0 0 .01 0 .01.01 5.24 12.73 8.12 26.66 8.12 41.26Z" class="cls-3"/><rect width="65.92" height="19.9" x="587.2" y="787.86" class="cls-12" rx="9.95" ry="9.95"/><rect width="656.66" height="17.07" x="171.77" y="491.52" class="cls-1" rx="8.54" ry="8.54"/><path d="M690.32 211.57H310.66c-.77 0-1.5 1.06-1.08 1.56l13.58 15.84 8.69 10.14c4.62 5.39 11.46 8.35 19.44 8.35H649.7c7.98 0 14.82-2.96 19.44-8.35l12.5-14.59 9.77-11.39c.43-.5-.31-1.56-1.08-1.56Z" class="cls-14"/><path d="M690.32 211.57H310.66c-.77 0-1.28.88-.75 1.29l16.55 12.9 10.31 8.03c5.39 4.2 12.46 6.48 20.14 6.48H644.1c7.68 0 14.75-2.28 20.14-6.48l14.89-11.61 11.96-9.32c.53-.41.01-1.29-.75-1.29Z" class="cls-3"/><path d="M649.7 249.04H351.27c-.6 0-.7 1.17-.15 1.72l16.91 16.6 10.05 9.86c5.11 5.02 10.91 7.71 16.57 7.71h211.68c5.66 0 11.45-2.69 16.57-7.71l14.63-14.36 12.32-12.1c.56-.55.46-1.72-.15-1.72" class="cls-14"/><path d="M649.7 249.04H351.27c-.6 0-.61.97-.01 1.43l18.03 13.65 10.57 8c5.34 4.04 11.18 6.2 16.74 6.2h207.77c5.55 0 11.4-2.16 16.74-6.2l15.43-11.68 13.17-9.97c.6-.45.59-1.43-.01-1.43" class="cls-3"/><path d="M601.59 286.74H396.71c-.42 0 1.11 1.43 2.22 2.08 1.34.9 2.73 1.76 4.11 2.62 54.16 33.55 139.12 34.86 194.05.6 1.67-1.04 3.33-2.11 4.94-3.22 1.11-.65 2.64-2.08 2.22-2.08h-2.67Z" class="cls-14"/><path d="M601.59 286.74H396.71c-.42 0 1.11 1 2.22 1.46 1.34.63 2.73 1.24 4.11 1.84 54.16 23.57 139.12 24.49 194.05.42 1.67-.73 3.33-1.48 4.94-2.26 1.11-.46 2.64-1.46 2.22-1.46h-2.67Zm-302.44-92.18-2.07-1.91c.62.67 1.31 1.31 2.07 1.91" class="cls-3"/><path d="M707.82 193.18c0 3.64-2.11 7.19-5.47 10.09-4.8 4.13-12.17 6.98-19.75 6.98H318.37c-6.41 0-12.67-2.04-17.35-5.17l-2.39-1.81c-3.37-2.9-5.48-6.45-5.47-10.09v-6.32l.01-2.11c.09 1.43.48 2.82 1.11 4.15.63 1.32 1.5 2.59 2.59 3.76l2.07 1.91c4.15 3.31 10.13 5.48 16.63 5.48h369.81c7.69 0 14.64-3.03 18.7-7.39 2.25-2.42 3.62-5.25 3.73-8.21v8.73Z" class="cls-14"/><path d="m296.88 192.65 2.07 1.91c4.15 3.31 10.12 5.48 16.63 5.48h369.81c7.69 0 14.64-3.03 18.7-7.4 2.84-3.05 4.27-6.75 3.56-10.53l-1.23-6.57-2.06-10.98-.55-2.95c-1.41-7.5-8.07-10.72-14.25-14.79-35.48-23.35-326.12-23.35-378.14-.01-6.76 3.03-12.83 7.29-14.24 14.78l-.39 2.07-2.24 11.96-1.22 6.49c-.08.41-.12.81-.14 1.21q-.045.705 0 1.41c.19 2.85 1.53 5.57 3.7 7.9Z" class="cls-3"/><path d="M333.74 322.09c0 10.09-1.89 19.73-5.33 28.6-.01.03-.02.07-.04.1-7.93 20.36-24.06 36.62-44.32 44.74-.07.03-.14.05-.21.08-9.03 3.59-18.88 5.56-29.18 5.56s-20.13-1.97-29.15-5.55l-.24-.09c-20.26-8.12-36.39-24.38-44.32-44.74-.03-.07-.06-.14-.08-.22-3.42-8.83-5.29-18.44-5.29-28.48 0-10.59 2.08-20.69 5.86-29.92.02-.06.05-.12.07-.17 8.12-19.71 23.96-35.42 43.76-43.34 9.09-3.65 19.01-5.65 29.39-5.65s20.3 2 29.39 5.64c19.8 7.93 35.64 23.64 43.76 43.35 0 0 .01 0 .01.01 3.82 9.28 5.92 19.44 5.92 30.08" style="fill:#2b2b2b"/><path d="M328.41 350.64v.1h-.04l-27.77 2.27c-8.11 0-14.68 6.58-14.68 14.69l-1.87 25.05-.21 2.81h-58.33l-.24-3.16-1.87-24.7c0-8.11-6.57-14.69-14.68-14.69l-25.39-2.27-2.46-.22.57-58.4 2.71-.17 24.57-1.45c8.11 0 14.68-6.58 14.68-14.69l1.87-27.2h58.78l1.87 27.2c0 8.11 6.57 14.69 14.68 14.69l27.03 1.45h.19v.02z" class="cls-15"/><path d="M333.74 322.09c0 10.09-1.89 19.73-5.33 28.6v.1H290.8c-3.73 0-6.75 3.02-6.75 6.74v38c-.07.03-.14.05-.21.08-9.03 3.59-18.88 5.56-29.18 5.56s-20.13-1.97-29.15-5.55l-.24-.09v-38c0-3.72-3.02-6.74-6.75-6.74h-37.57c-.03-.07-.06-.14-.08-.22-3.42-8.83-5.29-18.44-5.29-28.48 0-10.59 2.08-20.69 5.86-29.92.02-.06.05-.12.07-.17h37.01c3.73 0 6.75-3.02 6.75-6.75v-36.6c9.09-3.64 19.01-5.64 29.39-5.64s20.3 2 29.39 5.64v36.6c0 3.73 3.02 6.75 6.75 6.75h37.01s.01 0 .01.01c3.82 9.28 5.92 19.44 5.92 30.08" style="fill:#212121"/><circle cx="346.71" cy="322.09" r="8.29" class="cls-10"/><circle cx="162.61" cy="322.09" r="8.29" class="cls-10"/><circle cx="254.66" cy="230.04" r="8.29" class="cls-10"/><circle cx="254.66" cy="414.14" r="8.29" class="cls-10"/><circle cx="187.51" cy="386.6" r="3.41" class="cls-15"/><circle cx="321.73" cy="386.6" r="3.41" class="cls-15"/><circle cx="187.51" cy="259.58" r="3.41" class="cls-15"/><circle cx="321.73" cy="259.58" r="3.41" class="cls-15"/><path d="m393.46 391.66 2.87-4.01c1.84-2.57 4.24-3.98 7.07-1.95 2.74 1.96 2.46 4.93.69 7.4l-1.03 1.44 3.96 2.83-1.89 2.64zm8.42.09c1.04-1.45.88-2.6-.33-3.47-1.22-.87-2.22-.41-3.24 1.02l-.87 1.21 3.52 2.52.92-1.29Zm-.42-11.27 2.26-3.16 14.29 4.69-2 2.79-7-2.7c-1.4-.51-3-1.19-4.44-1.75l-.05.07c1.03 1.16 2.17 2.45 3.11 3.61l4.81 5.76-1.93 2.7-9.05-12.02Zm5.94 6.14 4.02-5.61 2.05 1.47-4.02 5.61zm5.37-8.72-6.26-4.48 1.89-2.64 6.53 4.67c2.29 1.63 3.59 1.48 4.52.17.94-1.31.69-2.63-1.6-4.27l-6.53-4.67 1.82-2.54 6.26 4.48c3.92 2.8 4.48 5.62 2.32 8.64s-5.04 3.44-8.96.64Zm11.29-7.45-.73-2.81c1.32-.31 2.58-1.03 3.27-1.99.79-1.1.74-1.95.05-2.45-.74-.53-1.45-.03-2.59.69l-1.73 1.05c-1.36.86-3.17 1.29-4.87.08-1.93-1.38-2.24-4.22-.5-6.65.96-1.34 2.5-2.37 4.22-2.66l.71 2.52c-1.14.35-1.99.85-2.65 1.77-.65.91-.69 1.76-.02 2.24.72.51 1.52-.06 2.66-.79l1.67-1.06c1.6-1.01 3.18-1.22 4.83-.04 1.94 1.39 2.46 4.2.47 6.99-1.09 1.52-2.82 2.72-4.78 3.11Zm-3.08-17.24 5.23-7.31 2.21 1.58-3.35 4.67 2.34 1.68 2.85-3.98 2.21 1.58-2.85 3.98 2.69 1.92 3.47-4.85 2.21 1.58-5.36 7.49-11.67-8.35ZM465.47 402c-3.81-2.73-4.46-6.45-2.21-9.59 2.25-3.15 5.99-3.72 9.79-1.01 3.81 2.73 4.56 6.52 2.31 9.67s-6.08 3.66-9.89.93m5.66-7.89c-2.34-1.68-4.44-1.66-5.58-.07s-.48 3.58 1.86 5.26c2.34 1.67 4.54 1.73 5.68.14s.38-3.66-1.96-5.33m-2.83-8.28 2.87-4.01c1.84-2.57 4.24-3.98 7.07-1.95 2.74 1.96 2.46 4.93.69 7.4l-1.03 1.44 3.96 2.83-1.89 2.64zm8.43.09c1.04-1.45.88-2.6-.33-3.47-1.22-.87-2.22-.41-3.24 1.02l-.87 1.21 3.52 2.52.92-1.29Zm2.33-10.44-2.3 3.21-2.21-1.58 6.49-9.06 2.21 1.58-2.3 3.21 9.46 6.77-1.89 2.64zm2.73-8.49 1.89-2.64 11.67 8.35-1.89 2.64zm8.69.07c-3.81-2.73-4.46-6.45-2.21-9.59 2.25-3.15 5.99-3.72 9.79-1.01 3.81 2.73 4.56 6.52 2.31 9.67s-6.08 3.66-9.89.93m5.65-7.89c-2.34-1.68-4.44-1.66-5.58-.07s-.48 3.58 1.86 5.26c2.34 1.67 4.54 1.73 5.68.14s.38-3.66-1.96-5.33m-2.82-8.28 1.94-2.7 7.98 1.11 3.39.68.05-.07c-1.32-.76-3.11-1.72-4.49-2.7l-4.12-2.95 1.8-2.51 11.67 8.35-1.94 2.7-8-1.12-3.38-.67-.05.07c1.38.8 3.09 1.7 4.47 2.69l4.14 2.96-1.8 2.51-11.67-8.35Zm113.13 13.03c-4.87-3.49-5.39-8.73-2.74-12.44 1.36-1.9 3.35-2.79 5.07-3.05l.88 3.27c-1.21.25-2.26.69-3.02 1.76-1.44 2.01-.8 4.88 2.14 6.98 3.02 2.16 5.78 2.01 7.31-.14.86-1.21.95-2.58.68-3.85l3.34-.26c.55 2.24.12 4.39-1.24 6.29-2.67 3.72-7.47 4.99-12.42 1.44m52.08-84.93 3.6-5.03c2.18-3.05 4.71-4.82 7.52-2.81 1.32.94 2.19 2.68 1.79 4.2l.09.06c1.46-1.22 3.4-1.59 5.36-.18 2.99 2.14 2.52 5.62.23 8.82l-3.9 5.45zm9.37-.66c1.15-1.61.98-2.81-.08-3.58-1.13-.81-2.11-.37-3.22 1.17l-1.13 1.58 3.32 2.38zm6.46 4.16c1.3-1.81 1.32-3.21-.02-4.16-1.29-.92-2.47-.38-3.78 1.45l-1.33 1.85 3.79 2.71 1.33-1.86Zm55.97-80.05 3.29-3.62 17.18 7.95-2.91 3.2-8.36-4.4c-1.67-.84-3.58-1.92-5.3-2.83l-.07.08c1.12 1.6 2.36 3.38 3.35 4.97l5.17 7.91-2.81 3.09-9.55-16.34Zm6.53 8.55 5.84-6.43 2.35 2.13-5.84 6.43z" style="fill:#e0e0e0"/><path d="m379.94 552.19 3.35-15.97q-2.16 1.695-6.09 2.73l.49-2.37c1.3-.52 2.58-1.2 3.85-2.03q1.89-1.26 2.85-2.19c.38-.38.75-.85 1.1-1.4H387l-4.43 21.24h-2.63Zm113.68 0c.27-1.26.64-2.32 1.12-3.17s1.11-1.66 1.9-2.42 2.31-2.05 4.56-3.85c1.37-1.09 2.3-1.89 2.8-2.41.72-.75 1.25-1.49 1.57-2.21.22-.49.33-1.02.33-1.6 0-.97-.34-1.8-1.03-2.47-.69-.68-1.53-1.02-2.53-1.02s-1.86.34-2.6 1.03-1.27 1.79-1.59 3.31l-2.55-.38q.375-2.82 2.19-4.44c1.815-1.62 2.71-1.62 4.51-1.62q1.8 0 3.27.75c.98.5 1.71 1.2 2.2 2.11s.74 1.84.74 2.8c0 1.4-.5 2.76-1.5 4.05-.62.81-2.42 2.4-5.43 4.78-1.29 1.02-2.25 1.86-2.88 2.51s-1.1 1.27-1.42 1.85h9.47l-.51 2.4h-12.61Zm118.4-5.54 2.54-.32c.19 1.48.62 2.54 1.28 3.18s1.52.96 2.59.96c1.29 0 2.4-.46 3.34-1.39.94-.92 1.41-1.98 1.41-3.17q0-1.56-1.05-2.58c-.7-.68-1.64-1.02-2.83-1.02q-.195 0-.84.06l.45-2.18q.375.06.72.06c1.49 0 2.64-.36 3.44-1.09s1.21-1.62 1.21-2.68c0-.97-.33-1.79-.99-2.45s-1.46-1-2.42-1-1.77.34-2.52 1.02-1.22 1.64-1.44 2.88l-2.57-.52c.42-1.74 1.24-3.09 2.44-4.04s2.63-1.43 4.27-1.43c1.73 0 3.13.52 4.21 1.57 1.07 1.05 1.61 2.34 1.61 3.87 0 1.12-.29 2.09-.87 2.92s-1.45 1.52-2.62 2.07c.83.49 1.45 1.08 1.85 1.78.41.69.61 1.49.61 2.38 0 1.89-.71 3.54-2.13 4.93s-3.11 2.08-5.09 2.08-3.46-.54-4.64-1.61-1.83-2.5-1.97-4.29Zm4.32 68.15c.73-.61 1.46-1.06 2.19-1.36q1.095-.45 2.16-.45c1.61 0 2.93.55 3.98 1.64 1.05 1.1 1.57 2.57 1.57 4.43 0 2.39-.78 4.45-2.34 6.16-1.35 1.47-2.98 2.21-4.91 2.21-1.75 0-3.21-.64-4.38-1.93-1.17-1.28-1.75-3.11-1.75-5.49 0-2.13.38-4.32 1.12-6.59.58-1.74 1.29-3.18 2.14-4.31s1.76-1.96 2.71-2.49 2.04-.79 3.24-.79q2.16 0 3.54 1.35c.91.9 1.43 2.19 1.56 3.86l-2.42.23c-.13-1.14-.46-1.97-.97-2.48s-1.14-.76-1.88-.76c-.78 0-1.56.3-2.35.91s-1.47 1.5-2.03 2.69q-.855 1.785-1.17 3.18Zm-.9 6.32c0 1.19.37 2.2 1.11 3.01s1.58 1.22 2.51 1.22c.65 0 1.35-.25 2.08-.74.73-.5 1.35-1.25 1.86-2.26s.76-2.02.76-3.02c0-1.29-.35-2.32-1.06-3.1-.71-.77-1.56-1.16-2.56-1.16-1.15 0-2.23.57-3.22 1.7s-1.49 2.58-1.49 4.35Zm-122.3-.1 2.65-.26c-.02.38-.03.6-.03.68q0 .945.48 1.92c.32.64.76 1.14 1.31 1.48s1.14.51 1.75.51c.81 0 1.63-.28 2.47-.84s1.51-1.37 2.03-2.44.78-2.13.78-3.17c0-1.18-.35-2.13-1.05-2.84s-1.61-1.07-2.75-1.07c-.76 0-1.48.18-2.16.55s-1.31.91-1.9 1.64l-2.28-.16 3.19-10.82h10.33l-.51 2.4h-8.04l-1.59 5.38c.6-.43 1.21-.76 1.84-.97.63-.22 1.28-.33 1.94-.33 1.62 0 2.94.53 3.98 1.6s1.56 2.53 1.56 4.39c0 1.63-.36 3.12-1.07 4.49s-1.69 2.42-2.94 3.16-2.59 1.1-4.03 1.1c-1.21 0-2.29-.27-3.22-.82s-1.63-1.3-2.1-2.26-.7-1.92-.7-2.89c0-.1 0-.24.01-.43Zm-111.24 6.05 1.14-5.4h-8.63l.55-2.58 11.85-13.17h2.14l-2.81 13.45h2.97l-.48 2.31h-2.97l-1.14 5.4h-2.61Zm1.62-7.71 1.85-8.83-7.88 8.83zm-5.9 83.91c.23-1.42.72-3.14 1.47-5.14.89-2.41 2.07-4.81 3.52-7.19s3.07-4.43 4.85-6.14h-10.55l.51-2.4h13.51l-.49 2.4c-2.29 2.01-4.29 4.6-6 7.78-1.99 3.67-3.35 7.23-4.08 10.69h-2.73Zm120.77-11.6c-.79-.43-1.38-.99-1.77-1.67-.4-.68-.59-1.41-.59-2.19 0-1.28.46-2.46 1.39-3.55 1.23-1.47 2.9-2.21 5.01-2.21 1.86 0 3.32.5 4.39 1.49 1.07 1 1.6 2.21 1.6 3.66 0 1.03-.29 1.96-.87 2.78-.58.83-1.48 1.49-2.71 1.98.85.53 1.45 1.09 1.82 1.69.47.78.71 1.69.71 2.73 0 1.89-.67 3.58-2.01 5.06s-3.13 2.22-5.36 2.22c-1.78 0-3.23-.55-4.36-1.64-1.13-1.1-1.69-2.47-1.69-4.11q0-2.325 1.2-3.99c.8-1.11 1.89-1.86 3.26-2.26Zm-1.84 6.47c0 .59.14 1.15.43 1.69.28.54.71.97 1.29 1.28s1.24.48 1.98.48c1.41 0 2.56-.66 3.43-1.99.69-1.04 1.04-2.16 1.04-3.36 0-.98-.32-1.78-.96-2.41-.64-.62-1.48-.94-2.52-.94-1.31 0-2.42.49-3.33 1.46s-1.36 2.24-1.36 3.79m2.04-10.2q0 1.35.87 2.19c.58.55 1.38.83 2.4.83 1.19 0 2.16-.36 2.91-1.09.74-.73 1.12-1.62 1.12-2.68q0-1.335-.87-2.19c-.87-.855-1.38-.84-2.4-.84-.77 0-1.48.18-2.12.53-.65.36-1.12.84-1.44 1.45-.31.61-.47 1.21-.47 1.8m-4.78 82.84c0-1.79.27-3.61.8-5.45.53-1.85 1.13-3.32 1.78-4.43s1.33-1.97 2.03-2.6 1.39-1.08 2.07-1.38c.68-.29 1.43-.44 2.26-.44 1.62 0 2.96.6 4.05 1.8s1.62 2.94 1.62 5.21-.38 4.65-1.13 6.94c-.88 2.71-2.12 4.75-3.69 6.1-1.21 1.03-2.59 1.54-4.14 1.54s-2.93-.62-4.02-1.87-1.64-3.06-1.64-5.43Zm2.53.67c0 1.3.22 2.31.65 3.04.59 1.01 1.46 1.52 2.61 1.52 1.01 0 1.93-.46 2.76-1.37 1.19-1.29 2.09-3.18 2.69-5.66s.9-4.52.9-6.1-.29-2.62-.87-3.29-1.35-1.01-2.3-1.01c-.69 0-1.34.18-1.94.53-.6.36-1.18.97-1.72 1.83-.78 1.22-1.46 3.05-2.03 5.48-.49 2.08-.74 3.75-.74 5.02Zm116.61 7.04 1.2-5.88h-2.33v-2.05h2.74l1.02-5.01h-3.76v-2.06H616l1.2-5.92h2.07l-1.2 5.92h4.34l1.2-5.92h2.08l-1.2 5.92h2.39v2.06h-2.8l-1.03 5.01h3.83v2.05h-4.25l-1.2 5.88h-2.07l1.19-5.88h-4.33l-1.2 5.88zm3.68-7.93h4.33l1.04-5.01h-4.34l-1.02 5.01Zm-4.54-72.11 2.45-.25c.16 1.18.5 2.03 1.01 2.53s1.12.75 1.82.75c1 0 1.93-.43 2.78-1.3 1.26-1.27 2.19-3.09 2.79-5.47-.88.65-1.65 1.12-2.33 1.4s-1.37.42-2.08.42c-1.29 0-2.44-.43-3.46-1.3-1.35-1.13-2.02-2.74-2.02-4.85 0-2.38.78-4.43 2.34-6.13q2.01-2.19 4.92-2.19c1.75 0 3.2.65 4.36 1.94 1.15 1.29 1.73 3.12 1.73 5.49s-.38 4.57-1.15 6.81c-.91 2.64-2.15 4.58-3.71 5.83q-1.905 1.53-4.29 1.53c-1.46 0-2.66-.45-3.59-1.36s-1.45-2.19-1.57-3.84Zm3.47-8.37c0 1.33.35 2.39 1.06 3.17.71.79 1.55 1.18 2.52 1.18.72 0 1.44-.25 2.15-.74s1.32-1.22 1.83-2.2.76-1.98.76-3.01c0-.81-.17-1.56-.5-2.25s-.8-1.21-1.38-1.57c-.58-.35-1.17-.53-1.77-.53s-1.14.15-1.7.46-1.07.76-1.55 1.36-.83 1.28-1.07 2.06c-.24.77-.35 1.46-.35 2.06Zm-234.85 78.57-3.23-2.35a.47.47 0 0 1 .28-.85h4l1.24-3.8c.14-.43.75-.43.89 0l1.24 3.8h4c.45 0 .64.58.28.85l-3.23 2.35 1.24 3.8c.14.43-.35.79-.72.52l-3.23-2.35-3.23 2.35a.466.466 0 0 1-.72-.52l1.24-3.8Z" class="cls-1"/><path d="M619.87 530c6.49 0 11.75 5.26 11.75 11.75s-5.26 11.75-11.75 11.75-11.75-5.26-11.75-11.75S613.38 530 619.87 530m0-.54c-6.77 0-12.29 5.51-12.29 12.29s5.51 12.29 12.29 12.29 12.29-5.51 12.29-12.29-5.51-12.29-12.29-12.29m-119.51.54c6.49 0 11.75 5.26 11.75 11.75s-5.26 11.75-11.75 11.75-11.75-5.26-11.75-11.75S493.87 530 500.36 530m0-.54c-6.77 0-12.29 5.51-12.29 12.29s5.51 12.29 12.29 12.29 12.29-5.51 12.29-12.29-5.51-12.29-12.29-12.29m-116.93.54c6.49 0 11.75 5.26 11.75 11.75s-5.26 11.75-11.75 11.75-11.75-5.26-11.75-11.75S376.94 530 383.43 530m0-.54c-6.77 0-12.29 5.51-12.29 12.29s5.51 12.29 12.29 12.29 12.29-5.51 12.29-12.29-5.51-12.29-12.29-12.29m236.44 75.3c6.49 0 11.75 5.26 11.75 11.75s-5.26 11.75-11.75 11.75-11.75-5.26-11.75-11.75 5.26-11.75 11.75-11.75m0-.54c-6.77 0-12.29 5.51-12.29 12.29s5.51 12.29 12.29 12.29 12.29-5.51 12.29-12.29-5.51-12.29-12.29-12.29m-119.51.54c6.49 0 11.75 5.26 11.75 11.75s-5.26 11.75-11.75 11.75-11.75-5.26-11.75-11.75 5.26-11.75 11.75-11.75m0-.54c-6.77 0-12.29 5.51-12.29 12.29s5.51 12.29 12.29 12.29 12.29-5.51 12.29-12.29-5.51-12.29-12.29-12.29m-116.93.54c6.49 0 11.75 5.26 11.75 11.75s-5.26 11.75-11.75 11.75-11.75-5.26-11.75-11.75 5.26-11.75 11.75-11.75m0-.54c-6.77 0-12.29 5.51-12.29 12.29s5.51 12.29 12.29 12.29 12.29-5.51 12.29-12.29-5.51-12.29-12.29-12.29m236.44 76.33c6.49 0 11.75 5.26 11.75 11.75s-5.26 11.75-11.75 11.75-11.75-5.26-11.75-11.75 5.26-11.75 11.75-11.75m0-.54c-6.77 0-12.29 5.51-12.29 12.29s5.51 12.29 12.29 12.29 12.29-5.51 12.29-12.29-5.51-12.29-12.29-12.29m-119.51.54c6.49 0 11.75 5.26 11.75 11.75s-5.26 11.75-11.75 11.75-11.75-5.26-11.75-11.75 5.26-11.75 11.75-11.75m0-.54c-6.77 0-12.29 5.51-12.29 12.29s5.51 12.29 12.29 12.29 12.29-5.51 12.29-12.29-5.51-12.29-12.29-12.29m-116.93.54c6.49 0 11.75 5.26 11.75 11.75s-5.26 11.75-11.75 11.75-11.75-5.26-11.75-11.75 5.26-11.75 11.75-11.75m0-.54c-6.77 0-12.29 5.51-12.29 12.29s5.51 12.29 12.29 12.29 12.29-5.51 12.29-12.29-5.51-12.29-12.29-12.29m236.44 76.01c6.49 0 11.75 5.26 11.75 11.75s-5.26 11.75-11.75 11.75-11.75-5.26-11.75-11.75 5.26-11.75 11.75-11.75m0-.54c-6.77 0-12.29 5.51-12.29 12.29s5.51 12.29 12.29 12.29 12.29-5.51 12.29-12.29-5.51-12.29-12.29-12.29m-119.51.54c6.49 0 11.75 5.26 11.75 11.75s-5.26 11.75-11.75 11.75-11.75-5.26-11.75-11.75 5.26-11.75 11.75-11.75m0-.54c-6.77 0-12.29 5.51-12.29 12.29s5.51 12.29 12.29 12.29 12.29-5.51 12.29-12.29-5.51-12.29-12.29-12.29m-116.93.54c6.49 0 11.75 5.26 11.75 11.75s-5.26 11.75-11.75 11.75-11.75-5.26-11.75-11.75 5.26-11.75 11.75-11.75m0-.54c-6.77 0-12.29 5.51-12.29 12.29s5.51 12.29 12.29 12.29 12.29-5.51 12.29-12.29-5.51-12.29-12.29-12.29" style="fill:#3d3d3d"/><path d="M527.82 169.43c-.69-2.34-2.13-3.93-4.72-3.93s-4.03 1.59-4.72 3.93l-6.95 23.78h6.95l1.39-5.08h6.67l1.39 5.08h6.95l-6.95-23.78Zm-6.39 12.61 1.67-6.1 1.67 6.1h-3.33Zm33.53-16.3v27.47h6.6v-27.47zm-7.1 15.28c1.5-.61 2.73-1.41 3.64-2.8.85-1.31 1.25-2.8 1.25-4.36 0-2.76-1.14-5.38-3.51-6.91-1.11-.72-2.5-1.21-3.84-1.21h-5.36c-3.29 0-5.11 2.15-5.11 5.36v22.11h6.6v-10.6l6.21 10.6h7.09l-6.99-12.19Zm-2.42-4.35c-.98 1.05-2.58 1.08-3.9 1.09v-5.91h2.02c1.52 0 2.75.95 2.75 2.54 0 .82-.29 1.69-.86 2.29Zm-95.39-11.98v8.66c0 4.22-1.64 8.33-4.77 11.21-1.97 1.81-4.32 2.96-6.84 3.77v4.88c2.68-.37 5.2-1.08 7.5-2.59 5.2-3.4 7.36-9.2 7.36-15.22v-10.72h-3.25Zm18.03 20.66c-3.68-2.89-5.7-7.36-5.7-12v-8.66h-3.26v10.72c0 5.41 1.81 10.86 6.14 14.34 2.57 2.05 5.52 3.03 8.72 3.47v-4.88c-2.13-.69-4.14-1.59-5.91-2.98Zm-14.09-20.66v28.52h4.46v-28.52zm41.95 4.74c-.69-2.34-2.13-3.93-4.72-3.93s-4.04 1.59-4.72 3.93l-6.96 23.78h6.96l1.39-5.08h6.66l1.4 5.08h6.95l-6.95-23.78Zm-6.39 12.61 1.68-6.1 1.67 6.1h-3.34Zm9.23-16.3v6.1h5.1v21.36h6.6v-21.36h5.1v-6.1h-16.79Z" style="fill:#333;fill-rule:evenodd"/></svg>