<svg xmlns="http://www.w3.org/2000/svg" id="Layer_1" data-name="Layer 1" viewBox="0 0 2169 2500"><defs><style>.cls-7{fill:#fff}</style></defs><path d="M527.15 1938.6c-96.48-138.49-115.15-589.75 109.7-867.52C748.11 938.05 776.9 845.46 785.46 720.19c6.22-142.38-100.37-566.41 301.09-598.31 406.92-32.68 384.35 368.78 382.02 581.19-1.55 178.94 131.5 280.87 223.3 420.92 168.83 256.75 154.83 698.66-31.9 938.3-236.52 299.54-438.81 169.61-573.41 180.5-252.08 14.78-260.64 148.61-559.4-304.21Z"/><path d="M1509.02 1150.45c70.03 64.58 251.31 353.22-35.79 533.74-101.14 63.02 90.26 302.65 182.06 186.73 162.62-208.51 59.14-541.51-38.9-660.55-65.36-84.02-166.5-116.7-107.37-59.9Z" class="cls-7"/><path d="M1489.58 1111.55c115.14 93.37 324.43 420.13 18.67 633.31-100.37 66.14 88.69 275.43 195.29 168.83 369.56-371.9-9.34-799.04-140.05-946.09-116.7-128.37-220.18 29.57-73.91 143.94Z" style="stroke-miterlimit:33.89;stroke-width:8.28px;stroke:#000"/><path d="M986.96 578.6c3.9 69.25-28.78 127.6-73.91 129.93-45.13 2.34-84.81-51.34-88.7-120.59s28.79-127.6 73.92-129.93c45.13-2.34 84.81 51.34 88.69 120.59m81.7 5.45c1.56 80.13 53.69 143.93 115.93 142.38 62.24-1.56 111.25-67.7 109.7-148.61-1.56-80.13-53.68-143.93-115.93-142.37-62.24 1.55-112.03 68.46-109.7 148.6" class="cls-7"/><path d="M1120.01 601.94c-.78 44.35 21.01 80.13 49.79 80.13s52.13-35.79 52.91-79.35c.77-44.35-21.01-80.14-49.8-80.14s-52.12 35.8-52.9 79.36m-179.72.78c3.89 36.57-10.12 67.69-30.35 70.8-20.22 2.34-39.68-24.89-43.57-61.46-3.9-36.57 10.12-67.7 30.34-70.81 20.23-2.33 39.69 24.9 43.57 61.47Z"/><path d="M678.08 1347.3c55.24-125.27 172.72-345.45 175.06-515.84 0-135.38 405.36-168.06 438.04-32.67 32.67 135.38 115.14 337.66 168.05 435.7 52.91 97.25 206.18 407.69 42.8 678.44-147.05 239.64-592.86 429.48-830.94-32.67-80.91-160.28-66.14-358.67 7-532.96Z" class="cls-7"/><path d="M628.29 1253.93c-47.46 89.47-145.49 324.44 94.15 452.82 257.53 136.94 256.75 417.8-52.91 283.98-283.2-120.59-157.94-609.2-78.58-725.9 51.34-81.69 129.15-182.06 37.34-10.9" class="cls-7"/><path d="M668.75 1152.79c-75.47 122.93-255.97 412.36-14 563.3 325.21 199.95 233.4 399.13-63.8 219.4-418.58-250.52-50.58-756.24 116.7-949.19 191.4-216.3 36.57 39.68-38.91 166.49Z" style="stroke-miterlimit:33.89;stroke:#000;stroke-width:10.59px"/><path d="M515.48 2303.5c-174.28-92.59-427.14 17.89-335.33-232.63 18.67-56.8-27.23-142.38 2.33-197.62 35.02-67.69 110.48-52.9 155.61-98.03 44.35-46.68 72.36-127.6 155.61-115.14 82.47 12.44 137.71 113.58 195.29 238.07 42.79 88.69 193.73 213.96 183.62 313.55-12.45 152.49-185.96 181.28-357.12 91.81Z" style="stroke-width:52.95px;stroke-miterlimit:33.89;fill:#ffde17;stroke:#e68c3f"/><path d="M1784.45 1715.31c-26.45 49.79-136.94 129.93-210.85 108.92-74.69-20.23-108.92-133.83-94.14-220.19 14.01-96.47 94.14-101.93 195.29-53.68 108.92 53.68 141.6 98.81 109.7 164.95" class="cls-7"/><path d="M1723.76 2260.7c127.6-154.82 411.58-122.92 220.19-335.32-40.46-45.9-28.01-143.94-77.8-185.95-58.35-51.35-122.93-9.34-182.06-35.79-59.13-28.79-121.37-84.03-193.73-45.13-72.36 39.69-80.14 142.38-87.14 277.76-6.23 97.26-94.92 259.86-47.46 349.34 68.47 138.49 246.64 119.82 368.01-24.89Z" style="stroke-miterlimit:33.89;fill:#ffde17;stroke:#e68c3f;stroke-width:52.96px"/><path d="M1767.34 1712.97c-23.34 40.47-118.26 104.26-181.28 87.14-64.58-16.34-94.15-107.37-80.91-175.83 11.67-77.8 80.91-81.69 168.05-42.79 92.59 42.01 121.38 77.8 94.15 131.48Z"/><path d="M899.05 675.08c31.12-28.79 106.59-116.7 249.75-24.9 26.45 17.11 48.23 18.67 98.81 40.46 101.93 42.02 53.68 143.16-55.24 177.39-46.68 14.78-88.69 71.59-172.72 66.14-72.36-3.9-91.03-51.34-135.38-77.02-78.58-44.35-90.25-104.26-47.46-136.16 42.8-31.9 59.14-43.57 62.25-45.9Z" style="stroke-miterlimit:33.89;fill:#ffde17;stroke:#e68c3f;stroke-width:31.77px"/><path d="M1249.17 756.77c-42.79 2.33-135.38 94.92-232.63 94.92s-155.61-90.25-170.39-90.25" style="stroke-miterlimit:33.89;stroke:#e68c3f;fill:none;stroke-width:21.18px"/></svg>