<?xml version="1.0" encoding="UTF-8"?>
<svg id="Layer_1" data-name="Layer 1" xmlns="http://www.w3.org/2000/svg" viewBox="0 0 1000 1000">
  <defs>
    <style>
      .cls-1 {
        stroke-width: 5.13px;
      }

      .cls-1, .cls-2, .cls-3 {
        fill: none;
        stroke-miterlimit: 10;
      }

      .cls-1, .cls-3 {
        stroke: #2d2d2d;
        stroke-linecap: round;
      }

      .cls-4 {
        letter-spacing: -.04em;
      }

      .cls-5 {
        font-size: 8.57px;
      }

      .cls-5, .cls-6, .cls-7, .cls-8, .cls-9, .cls-10 {
        fill: #d67c28;
      }

      .cls-5, .cls-7, .cls-11, .cls-12, .cls-8, .cls-9, .cls-10 {
        font-family: FranklinGothic-DemiCond, 'Franklin Gothic Demi Cond';
        font-weight: 300;
      }

      .cls-13 {
        fill: #121212;
      }

      .cls-14 {
        letter-spacing: -.02em;
      }

      .cls-15 {
        letter-spacing: -.04em;
      }

      .cls-16 {
        fill: #303030;
      }

      .cls-2 {
        stroke: #fff;
      }

      .cls-17 {
        letter-spacing: -.05em;
      }

      .cls-18 {
        fill: #444545;
      }

      .cls-7, .cls-8 {
        font-size: 10.98px;
      }

      .cls-7, .cls-19 {
        letter-spacing: -.04em;
      }

      .cls-11 {
        font-size: 15.44px;
      }

      .cls-11, .cls-12 {
        fill: #231f20;
      }

      .cls-20 {
        fill: #131313;
      }

      .cls-21 {
        letter-spacing: -.05em;
      }

      .cls-12 {
        font-size: 15.44px;
      }

      .cls-22 {
        letter-spacing: -.04em;
      }

      .cls-23 {
        letter-spacing: -.04em;
      }

      .cls-9, .cls-24 {
        letter-spacing: -.04em;
      }

      .cls-9, .cls-10 {
        font-size: 11.76px;
      }

      .cls-25 {
        fill: #6b6b6b;
      }

      .cls-26 {
        fill: #151515;
      }

      .cls-27 {
        letter-spacing: -.04em;
      }

      .cls-28 {
        fill: #ef3736;
      }

      .cls-29 {
        fill: #1b1b1b;
      }

      .cls-30 {
        fill: #1e1e1e;
      }

      .cls-31 {
        letter-spacing: -.04em;
      }

      .cls-3 {
        stroke-width: 5px;
      }

      .cls-32 {
        letter-spacing: -.01em;
      }

      .cls-33 {
        letter-spacing: -.04em;
      }

      .cls-34 {
        fill: #7a8988;
        fill-rule: evenodd;
      }

      .cls-35 {
        fill: #2d2d2d;
      }
    </style>
  </defs>
  <path class="cls-18" d="M774.56,710.65h147.9c7.75,0,14.73-4.74,17.52-11.97,53.66-139.45,53.56-278.61,0-417.51-2.79-7.22-9.77-11.96-17.51-11.96h-147.91s-46.93,13.33-46.93,13.33v414.73l46.93,13.38Z"/>
  <path class="cls-18" d="M225.44,710.63H77.54c-7.75,0-14.73-4.74-17.52-11.97-53.66-139.45-53.56-278.61,0-417.51,2.79-7.22,9.77-11.96,17.51-11.96h147.91s46.93,13.33,46.93,13.33v414.73s-46.93,13.38-46.93,13.38Z"/>
  <path class="cls-30" d="M727.69,696.95h-455.35c-54.29-136.19-52.72-274.49,0-414.73h455.35c57.07,138.24,57.07,276.48,0,414.73Z"/>
  <rect class="cls-26" x="845.5" y="288.62" width="65.7" height="60.42" rx="7.1" ry="7.1" transform="translate(-53.4 248.18) rotate(-15.61)"/>
  <rect class="cls-26" x="764.44" y="611.51" width="65.7" height="60.42" rx="7.1" ry="7.1" transform="translate(201.84 -190.69) rotate(15.59)"/>
  <rect class="cls-26" x="846.35" y="634.36" width="65.7" height="60.42" rx="7.1" ry="7.1" transform="translate(211 -211.87) rotate(15.59)"/>
  <g id="g10">
    <g id="g12">
      <path id="path30" class="cls-6" d="M461,309.21l10.39,7.39-8.84,5.38-19.24-12.71,17.69-.07Z"/>
      <path id="path18" class="cls-6" d="M570.46,323.66l-18.16,6.73h18.16l6.55-3.51-6.55-3.21Z"/>
      <path id="path20" class="cls-6" d="M550.35,308.32h21.44l26.67,13.52-9.27-.42-7.87-3.62-4.85,1.97-26.12-11.46"/>
      <path id="path22" class="cls-6" d="M607.66,309.44h-18.16l-6.17,3.7,6.79,3.58,17.54-7.28Z"/>
      <path id="path24" class="cls-6" d="M607.14,330.38h-21.44l-23.1-11.71,7.07-.73,6.54,3.01,4.85-1.97,26.07,11.41"/>
      <path id="path26" class="cls-6" d="M414.3,323.36h12.97v-15.13h-12.97v15.13Z"/>
      <path id="path28" class="cls-6" d="M414.3,330.38h31.61v-5.52h-31.61v5.52Z"/>
      <path id="path32" class="cls-6" d="M463.18,330.38h13.24v-7.92l21.77-14.23-11-.03-24.01,14.83v7.35Z"/>
      <path id="path34" class="cls-6" d="M503.65,310.45l13.03,8.86v11.08h-13.03v-19.94Z"/>
      <path id="path36" class="cls-6" d="M503.65,308.21l32.55,22.18h9.24v-22.18h-6.19v15.6l-23.18-15.59h-10.32"/>
    </g>
  </g>
  <circle class="cls-16" cx="881.73" cy="318.46" r="24.77"/>
  <circle class="cls-16" cx="799.33" cy="642.72" r="24.77"/>
  <circle class="cls-16" cx="881.02" cy="665.01" r="24.77"/>
  <path class="cls-26" d="M187.63,462.82h-26.9c-3.98,0-7.21-3.23-7.21-7.21v-26.9c0-2.51-2.04-4.55-4.55-4.55h-45.75c-2.51,0-4.55,2.04-4.55,4.55v26.9c0,3.98-3.23,7.21-7.21,7.21h-26.9c-2.51,0-4.55,2.04-4.55,4.55v45.75c0,2.51,2.04,4.55,4.55,4.55h26.9c3.98,0,7.21,3.23,7.21,7.21v26.9c0,2.51,2.04,4.55,4.55,4.55h45.75c2.51,0,4.55-2.04,4.55-4.55v-26.9c0-3.98,3.23-7.21,7.21-7.21h26.9c2.51,0,4.55-2.04,4.55-4.55v-45.75c0-2.51-2.04-4.55-4.55-4.55Z"/>
  <rect class="cls-26" x="764.48" y="311.27" width="65.7" height="60.42" rx="7.1" ry="7.1" transform="translate(-62.49 227.21) rotate(-15.61)"/>
  <circle class="cls-16" cx="799.33" cy="341.29" r="24.77"/>
  <path class="cls-16" d="M164.98,468.13h-16.77v-16.77c0-12.21-9.9-22.12-22.12-22.12h0c-12.21,0-22.12,9.9-22.12,22.12v16.77h-16.77c-12.21,0-22.12,9.9-22.12,22.12s9.9,22.12,22.12,22.12h16.77v16.77c0,12.21,9.9,22.12,22.12,22.12h0c12.21,0,22.12-9.9,22.12-22.12v-16.77h16.77c12.21,0,22.12-9.9,22.12-22.12s-9.9-22.12-22.12-22.12Z"/>
  <circle class="cls-28" cx="295.65" cy="316.12" r="4.46"/>
  <g>
    <path class="cls-18" d="M657.59,635.62h-315.82c-12.64,0-23.58-8.87-25.96-21.2-15.68-81.45-15.64-164.29.12-248.52,2.32-12.4,13.28-21.36,25.99-21.36h315.67c12.28,0,22.94,8.4,25.76,20.26,19.88,83.52,19.88,167.03,0,250.55-2.82,11.87-13.48,20.26-25.76,20.26Z"/>
    <rect class="cls-25" x="339.23" y="383.6" width="323.9" height="212.96" rx="12.13" ry="12.13"/>
    <rect class="cls-29" x="348.15" y="393.23" width="306.06" height="193.7" rx="4.62" ry="4.62"/>
  </g>
  <path class="cls-3" d="M218.24,575.54c-8.34-62.26-8.82-117.45,0-166.68"/>
  <path class="cls-1" d="M205.21,580.09c-8.34-65.66-8.82-123.86,0-175.77"/>
  <path class="cls-3" d="M783.08,408.87c8.34,62.26,8.82,117.45,0,166.68"/>
  <path class="cls-1" d="M794.59,404.32c8.34,65.66,8.82,123.86,0,175.77"/>
  <path class="cls-35" d="M815.31,496.54c.01,3.01,0,5.98-.02,8.95-.02,2.95-.07,5.89-.15,8.8-.06,3-.16,5.96-.28,8.91-.1,3.04-.24,6.06-.41,9.04-.16,2.89-.34,5.76-.53,8.61-1.07,15.46-2.77,30.31-5.08,44.66-.22,1.35-1.39,2.33-2.72,2.33-.15,0-.29-.02-.44-.04-1.51-.24-2.54-1.66-2.28-3.16,2.35-14.54,4.06-29.63,5.1-45.34.19-2.75.36-5.51.49-8.3.16-2.91.29-5.85.4-8.8.1-2.83.19-5.67.25-8.54.07-2.84.12-5.71.15-8.59.02-2.86.02-5.74.01-8.66-.01-2.78-.04-5.57-.09-8.38-.04-2.9-.1-5.82-.2-8.76-.07-2.76-.17-5.52-.28-8.31-.13-2.94-.26-5.91-.42-8.9-.16-3.08-.34-6.18-.54-9.3-.18-2.99-.39-6-.62-9.03-1.05-14-2.46-28.44-4.26-43.36-.18-1.51.9-2.89,2.41-3.07,1.53-.18,2.89.9,3.07,2.41,1.77,14.65,3.18,28.86,4.21,42.64.24,3.11.46,6.2.66,9.27.21,3.2.4,6.36.56,9.51.17,3.09.31,6.16.44,9.21.12,2.86.22,5.71.29,8.54.09,3.04.17,6.06.21,9.04.05,2.89.08,5.77.09,8.62Z"/>
  <path class="cls-35" d="M835.94,507.12h0c-.03,3.22-.08,6.4-.17,9.57-.08,3.47-.2,6.91-.35,10.31-.13,3.32-.29,6.62-.48,9.89-.19,3.31-.4,6.59-.65,9.84-1.07,14.61-2.66,28.7-4.78,42.34-.21,1.36-1.39,2.34-2.72,2.34-.15,0-.28-.01-.43-.03-1.51-.23-2.54-1.65-2.31-3.14,2.15-13.85,3.75-28.2,4.82-43.07.23-3.14.43-6.32.61-9.51s.34-6.42.45-9.67c.15-3.29.25-6.6.32-9.93.08-3.1.14-6.21.17-9.36.04-3.24.05-6.5.03-9.78,0-3.08-.03-6.18-.08-9.3-.05-3.25-.13-6.53-.23-9.83-.07-3.03-.18-6.08-.3-9.16-.14-3.33-.28-6.69-.47-10.07-.17-3.34-.36-6.72-.58-10.11-.21-3.29-.44-6.61-.69-9.95-1.02-13.72-2.37-27.85-4.06-42.41-.18-1.52.91-2.89,2.42-3.06,1.52-.18,2.88.91,3.06,2.42,1.66,14.29,2.99,28.17,4,41.65.26,3.43.5,6.83.71,10.21.23,3.47.43,6.91.61,10.32.19,3.49.36,6.96.49,10.38.13,3.15.24,6.28.31,9.38.12,3.41.19,6.78.24,10.12.05,3.21.08,6.39.08,9.55.02,3.38.01,6.74-.04,10.07Z"/>
  <path class="cls-35" d="M857.46,497.58c0,3.76-.04,7.5-.14,11.23-.06,3.46-.18,6.91-.32,10.33-.16,3.93-.37,7.83-.62,11.71-.22,3.59-.49,7.17-.81,10.72-.3,3.68-.66,7.33-1.06,10.97-1.53,14.11-3.67,27.98-6.39,41.63-.26,1.31-1.41,2.22-2.7,2.22-.18,0-.37-.02-.54-.05-1.5-.3-2.46-1.75-2.17-3.25,2.77-13.8,4.9-27.82,6.42-42.1.38-3.53.72-7.08,1.02-10.66.3-3.48.56-6.97.78-10.49.24-3.76.44-7.54.59-11.35.15-3.36.25-6.74.31-10.13.08-3.63.13-7.26.13-10.93,0-3.41-.03-6.82-.09-10.26-.05-3.63-.16-7.27-.29-10.94-.13-3.32-.27-6.66-.45-10.03-.2-3.72-.44-7.47-.72-11.24-.25-3.6-.54-7.23-.88-10.89-.31-3.58-.67-7.18-1.06-10.8-1.46-13.74-3.37-27.75-5.75-42.07-.25-1.51.76-2.92,2.26-3.17,1.52-.25,2.92.76,3.17,2.27,2.35,14.15,4.25,28.01,5.71,41.59.4,3.71.76,7.39,1.09,11.05.35,3.72.65,7.41.91,11.09.29,3.88.53,7.72.74,11.56.19,3.44.35,6.85.46,10.25.15,3.76.25,7.51.31,11.23.07,3.52.09,7.02.09,10.5Z"/>
  <path class="cls-35" d="M885.56,498.29c-.05,4.24-.17,8.49-.32,12.74-.13,3.78-.3,7.57-.52,11.34-.26,4.53-.57,9.04-.94,13.56-.31,3.95-.68,7.89-1.09,11.82-.44,4.18-.92,8.35-1.46,12.51-1.81,14.22-4.2,28.22-7.15,41.82-.27,1.3-1.41,2.18-2.69,2.18-.19,0-.39-.02-.59-.06-1.49-.32-2.43-1.79-2.11-3.28,2.98-13.72,5.36-27.85,7.18-42.2.51-4.06.97-8.12,1.39-12.21.4-3.86.75-7.72,1.06-11.59.36-4.39.66-8.79.91-13.19.21-3.71.38-7.43.51-11.14.15-4.15.25-8.3.3-12.44.05-3.85.06-7.68.03-11.52-.03-4.15-.1-8.29-.24-12.42-.1-3.74-.26-7.47-.45-11.18-.22-4.31-.5-8.59-.83-12.85-.3-4.01-.66-8.01-1.07-11.97-.41-4.03-.86-8.04-1.37-12.01-1.83-14.5-4.31-28.56-7.43-41.99-.35-1.49.59-2.98,2.06-3.31,1.49-.35,2.98.58,3.32,2.06,3.11,13.38,5.59,27.4,7.44,41.85.52,4.04.98,8.13,1.4,12.25.42,4.03.79,8.09,1.1,12.18.34,4.36.63,8.75.85,13.16.21,3.78.37,7.59.48,11.4.14,4.22.21,8.46.24,12.71.03,3.91.02,7.83-.03,11.76Z"/>
  <path class="cls-35" d="M914.49,499.01c-.06,4.77-.2,9.55-.39,14.3-.16,4.15-.37,8.28-.62,12.4-.31,5.19-.71,10.35-1.17,15.48-.4,4.36-.84,8.69-1.34,12.98-.56,4.76-1.17,9.47-1.85,14.13-2.21,15.05-5.09,29.47-8.66,42.83-.34,1.24-1.45,2.05-2.67,2.05-.23,0-.47-.03-.71-.09-1.47-.39-2.35-1.91-1.96-3.37,3.57-13.39,6.45-27.85,8.64-42.95.66-4.55,1.27-9.16,1.8-13.81.48-4.21.92-8.47,1.31-12.75.45-5.01.83-10.05,1.13-15.12.25-4.04.46-8.12.61-12.2.19-4.65.31-9.33.38-14,.05-4.26.06-8.54.03-12.8-.04-4.65-.15-9.29-.3-13.92-.15-4.14-.34-8.27-.57-12.36-.28-4.86-.63-9.68-1.04-14.46-.38-4.39-.81-8.75-1.3-13.05-.5-4.46-1.07-8.88-1.69-13.22-2.24-15.56-5.24-30.28-9-43.68-.41-1.47.45-3,1.92-3.41,1.47-.42,2.99.44,3.41,1.91,3.77,13.44,6.79,28.22,9.05,43.81.64,4.42,1.22,8.92,1.74,13.46.49,4.37.93,8.79,1.32,13.26.43,4.88.78,9.8,1.07,14.76.24,4.17.43,8.37.58,12.58.17,4.72.27,9.46.31,14.21.03,4.34.02,8.69-.03,13.05Z"/>
  <path class="cls-2" d="M747.03,387.33h4.15c2.29,9.77,3.88,20.12,4.95,30.9-12.89.74-29.1,2.81-48.16,6.02l2.41,28.76h5.35"/>
  <path class="cls-2" d="M715.59,457.29h-5.08l.67,29.03h19.4v3.88h-19.26c.1,10.13-.11,20.11-.8,29.83h5.22"/>
  <path class="cls-2" d="M746.99,592.16h4.16l4.58-32c-16.48-1.44-32.48-3.57-47.89-6.55,1.36-7.65,2.28-17.32,2.68-29.43h5.35"/>
  <g>
    <path class="cls-30" d="M731.65,467.44h15.7c1.73,0,3.14,1.41,3.14,3.14v40.67c0,1.73-1.41,3.14-3.14,3.14h-15.7c-1.73,0-3.14-1.41-3.14-3.14v-40.67c0-1.73,1.41-3.14,3.14-3.14Z"/>
    <path class="cls-20" d="M747.35,468.44c1.18,0,2.14.96,2.14,2.14v40.67c0,1.18-.96,2.14-2.14,2.14h-15.7c-1.18,0-2.14-.96-2.14-2.14v-40.67c0-1.18.96-2.14,2.14-2.14h15.7M747.35,466.44h-15.7c-2.28,0-4.14,1.86-4.14,4.14v40.67c0,2.28,1.86,4.14,4.14,4.14h15.7c2.28,0,4.14-1.86,4.14-4.14v-40.67c0-2.28-1.86-4.14-4.14-4.14h0Z"/>
  </g>
  <g>
    <path class="cls-30" d="M728.37,447.58c-1.62,0-2.97-1.22-3.12-2.84l-3.88-40.48c-.17-1.72,1.1-3.26,2.83-3.43l15.62-1.5c.1,0,.2-.01.3-.01,1.62,0,2.97,1.22,3.12,2.84l3.88,40.48c.08.83-.17,1.65-.7,2.3-.53.65-1.29,1.05-2.12,1.13l-15.62,1.5c-.1,0-.2.01-.3.01Z"/>
    <path class="cls-20" d="M740.12,400.32c1.09,0,2.02.83,2.13,1.94l3.88,40.48c.11,1.18-.75,2.22-1.93,2.33l-15.62,1.5c-.07,0-.14,0-.21,0-1.09,0-2.02-.83-2.13-1.94l-3.88-40.48c-.11-1.18.75-2.22,1.93-2.33l15.62-1.5c.07,0,.14,0,.21,0M740.12,398.32c-.13,0-.26,0-.4.02l-15.62,1.5c-2.27.22-3.94,2.24-3.73,4.52l3.88,40.48c.2,2.14,1.98,3.75,4.12,3.75.13,0,.26,0,.4-.02l15.62-1.5c1.1-.11,2.09-.63,2.8-1.49.7-.85,1.03-1.93.93-3.03l-3.88-40.48c-.2-2.14-1.98-3.75-4.12-3.75h0Z"/>
  </g>
  <g>
    <path class="cls-30" d="M739.44,582.73c-.14,0-.28,0-.42-.03l-15.56-2.09c-.83-.11-1.57-.54-2.08-1.21-.51-.67-.73-1.49-.62-2.32l5.41-40.3c.21-1.55,1.54-2.72,3.11-2.72.14,0,.28,0,.42.03l15.56,2.09c1.72.23,2.92,1.81,2.69,3.53l-5.41,40.3c-.21,1.55-1.54,2.72-3.11,2.72h0Z"/>
    <path class="cls-20" d="M729.29,535.06c.09,0,.19,0,.29.02l15.56,2.09c1.17.16,1.99,1.23,1.84,2.41l-5.41,40.3c-.14,1.08-1.06,1.86-2.12,1.86-.09,0-.19,0-.29-.02l-15.56-2.09c-1.17-.16-1.99-1.23-1.84-2.41l5.41-40.3c.14-1.08,1.06-1.86,2.12-1.86M729.29,533.06c-2.06,0-3.83,1.54-4.1,3.59l-5.41,40.3c-.3,2.26,1.29,4.35,3.55,4.65l15.56,2.09c.18.02.37.04.55.04,2.06,0,3.83-1.54,4.1-3.59l5.41-40.3c.3-2.26-1.29-4.35-3.55-4.65l-15.56-2.09c-.18-.02-.37-.04-.55-.04h0Z"/>
  </g>
  <rect class="cls-30" x="249.68" y="392.91" width="34.08" height="59.31" rx="9.29" ry="9.29" transform="translate(58.5 -31.69) rotate(7.63)"/>
  <path class="cls-2" d="M298.37,384.39h5.72c-2.17,6.39-4.35,18.61-6.52,36.65l-19.71-2.01v3.54l18.91,2.22c-1.67,16.55-2.55,36.95-2.81,60.33h-23.14v4.28h22.87c.05,8.94.55,19.81,1.47,32.51h-5.22"/>
  <g>
    <path class="cls-30" d="M253.73,467.44h15.7c1.73,0,3.14,1.41,3.14,3.14v40.67c0,1.73-1.41,3.14-3.14,3.14h-15.69c-1.73,0-3.14-1.41-3.14-3.14v-40.67c0-1.73,1.41-3.14,3.14-3.14Z"/>
    <path class="cls-20" d="M269.43,468.44c1.18,0,2.14.96,2.14,2.14v40.67c0,1.18-.96,2.14-2.14,2.14h-15.7c-1.18,0-2.14-.96-2.14-2.14v-40.67c0-1.18.96-2.14,2.14-2.14h15.7M269.43,466.44h-15.7c-2.28,0-4.14,1.86-4.14,4.14v40.67c0,2.28,1.86,4.14,4.14,4.14h15.7c2.28,0,4.14-1.86,4.14-4.14v-40.67c0-2.28-1.86-4.14-4.14-4.14h0Z"/>
  </g>
  <g>
    <path class="cls-30" d="M261.64,582.73c-1.56,0-2.9-1.17-3.11-2.72l-5.41-40.3c-.23-1.72.98-3.3,2.7-3.53l15.56-2.09c.14-.02.28-.03.42-.03,1.56,0,2.9,1.17,3.11,2.72l5.41,40.3c.11.83-.11,1.66-.62,2.32-.51.67-1.25,1.09-2.08,1.21l-15.56,2.09c-.14.02-.28.03-.42.03Z"/>
    <path class="cls-20" d="M271.8,535.06c1.06,0,1.97.78,2.12,1.86l5.41,40.3c.16,1.17-.67,2.25-1.84,2.41l-15.56,2.09c-.1.01-.19.02-.29.02-1.06,0-1.97-.78-2.12-1.86l-5.41-40.3c-.16-1.17.67-2.25,1.84-2.41l15.56-2.09c.1-.01.19-.02.29-.02M271.8,533.06c-.18,0-.37.01-.55.04l-15.56,2.09c-2.26.3-3.86,2.39-3.55,4.65l5.41,40.3c.27,2.05,2.04,3.59,4.1,3.59.18,0,.37-.01.55-.04l15.56-2.09c1.1-.15,2.07-.71,2.74-1.59s.96-1.97.81-3.06l-5.41-40.3c-.27-2.05-2.04-3.59-4.1-3.59h0Z"/>
  </g>
  <path class="cls-13" d="M261.64,399.24c.09,0,.19,0,.29.02l15.56,2.09c1.17.16,1.99,1.23,1.84,2.41l-5.4,40.31c-.14,1.08-1.06,1.86-2.12,1.86-.09,0-.19,0-.29-.02l-15.56-2.09c-1.17-.16-1.99-1.23-1.84-2.41l5.4-40.31c.14-1.08,1.06-1.86,2.12-1.86M261.64,397.24h0c-2.06,0-3.83,1.54-4.1,3.59l-5.4,40.31c-.15,1.1.14,2.18.81,3.06s1.64,1.44,2.74,1.59l15.56,2.09c.18.02.37.04.55.04,2.06,0,3.83-1.54,4.1-3.59l5.4-40.31c.3-2.26-1.29-4.35-3.55-4.65l-15.56-2.09c-.18-.02-.37-.04-.55-.04h0Z"/>
  <path class="cls-2" d="M255.03,557.75h-6.55c1.05,11.59,2.77,22.62,5.08,33.17h5.08"/>
  <line class="cls-2" x1="760.94" y1="486.85" x2="760.94" y2="492.21"/>
  <line class="cls-2" x1="764.08" y1="486.85" x2="764.08" y2="492.21"/>
  <path class="cls-34" d="M479.1,650.18h1.79v5.04c0,4.23,2.9,7.78,6.82,8.77v2.86c-4.89-.81-8.62-5.07-8.62-10.19v-6.48s0,0,0,0ZM475.69,650.18h-1.79v5.04c0,4.23-2.9,7.78-6.82,8.77v2.86c4.89-.81,8.62-5.07,8.62-10.19v-6.48s0,0,0,0ZM476.11,650.18h2.56v16.68h-2.56v-16.68ZM516.72,660.38l-1.59-5.18-1.42,5.17h3.01ZM513,662.97l-1.06,3.87h-2.94l4.1-14.86c.26-.88,1.08-1.49,2-1.49.92,0,1.74.61,2.01,1.49l4.5,14.88-2.91-.02-1.18-3.86h-4.52s0,0,0,0ZM498.74,660.38l-1.59-5.18-1.42,5.17h3.01ZM495.01,662.97l-1.06,3.87h-2.94l4.1-14.86c.26-.88,1.08-1.49,2-1.49.92,0,1.74.61,2.01,1.49l4.5,14.88-2.91-.02-1.18-3.86h-4.52s0,0,0,0ZM528.89,660.14c1.85-.71,3.17-2.51,3.17-4.61,0-2.73-2.21-4.94-4.94-4.94h-1.91c-1.77-.02-2.8.92-2.8,2.79v13.38h2.8v-13.46h1.72c1.31,0,2.38,1.06,2.38,2.37,0,1.16-.82,2.15-1.96,2.35-.2.05-.39.11-.58.22-.97.59-1.29,1.85-.7,2.82l3.51,5.8h2.95l-3.82-6.28c-.08-.14-.04-.31.1-.4,0,0,0,0,0,0,.02-.01.05-.02.08-.03h-.01ZM501.37,653.38v-2.77h9.76v2.77h-3.47v13.48h-2.81v-13.46h-3.48s0-.01,0-.01ZM533.37,650.6h2.79v16.26h-2.79v-16.26Z"/>
  <text class="cls-12" transform="translate(835.73 291.62) rotate(-17.97)"><tspan x="0" y="0">A</tspan></text>
  <text class="cls-12" transform="translate(751.52 313.16) rotate(-17.97)"><tspan x="0" y="0">B</tspan></text>
  <text class="cls-11" transform="translate(843.58 696.25) rotate(-164.41)"><tspan x="0" y="0">A</tspan></text>
  <text class="cls-11" transform="translate(760.77 673.15) rotate(-164.41)"><tspan x="0" y="0">B</tspan></text>
  <text class="cls-10" transform="translate(280.82 332.49)"><tspan class="cls-24" x="0" y="0">P</tspan><tspan class="cls-27" x="5.59" y="0">O</tspan><tspan class="cls-23" x="11.74" y="0">WER</tspan></text>
  <text class="cls-5" transform="translate(257.6 460.93)"><tspan class="cls-4" x="0" y="0">P</tspan><tspan class="cls-15" x="4.07" y="0">O</tspan><tspan class="cls-22" x="8.55" y="0">WER</tspan></text>
  <text class="cls-9" transform="translate(281.53 389.03)"><tspan x="0" y="0">ON</tspan></text>
  <text class="cls-9" transform="translate(268.6 525.3)"><tspan x="0" y="0">OFF</tspan></text>
  <text class="cls-8" transform="translate(261.6 594.08)"><tspan class="cls-31" x="0" y="0">B</tspan><tspan class="cls-17" x="5.78" y="0">A</tspan><tspan class="cls-31" x="10.89" y="0">CKLIGHT</tspan></text>
  <text class="cls-7" transform="translate(706.52 595.51)"><tspan x="0" y="0">OPTION 2</tspan></text>
  <text class="cls-7" transform="translate(719.58 525.77)"><tspan x="0" y="0">FLIP</tspan></text>
  <text class="cls-8" transform="translate(718.98 458.9)"><tspan class="cls-33" x="0" y="0">RE</tspan><tspan class="cls-32" x="10.43" y="0">S</tspan><tspan class="cls-21" x="15.89" y="0">T</tspan><tspan class="cls-19" x="19.65" y="0">A</tspan><tspan class="cls-14" x="24.87" y="0">R</tspan><tspan class="cls-19" x="30.66" y="0">T</tspan></text>
  <text class="cls-7" transform="translate(708.14 391.12)"><tspan x="0" y="0">OPTION 1</tspan></text>
  <path class="cls-30" d="M813.71,451.6l-5.47,1.14c-.18-2.99-.39-6-.62-9.03l5.43-1.38c.24,3.11.46,6.2.66,9.27Z"/>
  <path class="cls-30" d="M833.53,437.09c.26,3.43.5,6.83.71,10.21l-5.45,1.14c-.21-3.29-.44-6.61-.69-9.95l5.43-1.39Z"/>
  <path class="cls-30" d="M853.85,431.9c.4,3.71.76,7.39,1.09,11.05l-5.43,1.13c-.31-3.58-.67-7.18-1.06-10.8l5.4-1.38Z"/>
  <path class="cls-30" d="M881.52,424.83c.52,4.04.98,8.13,1.4,12.25l-5.43,1.14c-.41-4.03-.86-8.04-1.37-12.01l5.4-1.38Z"/>
  <path class="cls-30" d="M911.24,431.15l-5.43,1.13c-.5-4.46-1.07-8.88-1.69-13.22l5.38-1.37c.64,4.42,1.22,8.92,1.74,13.46Z"/>
  <path class="cls-30" d="M814.71,470.33l-5.5.62c-.13-2.94-.26-5.91-.42-8.9l5.48-.93c.17,3.09.31,6.16.44,9.21Z"/>
  <path class="cls-30" d="M834.85,457.62c.19,3.49.36,6.96.49,10.38l-5.5.62c-.14-3.33-.28-6.69-.47-10.07l5.48-.93Z"/>
  <path class="cls-30" d="M855.85,454.05c.29,3.88.53,7.72.74,11.56l-5.48.62c-.2-3.72-.44-7.47-.72-11.24l5.46-.93Z"/>
  <path class="cls-30" d="M884.02,449.26c.34,4.36.63,8.75.85,13.16l-5.48.62c-.22-4.31-.5-8.59-.83-12.85l5.46-.93Z"/>
  <path class="cls-30" d="M913.63,459.17l-5.48.62c-.28-4.86-.63-9.68-1.04-14.46l5.45-.92c.43,4.88.78,9.8,1.07,14.76Z"/>
  <path class="cls-30" d="M815.21,487.91l-5.52.1c-.04-2.9-.1-5.82-.2-8.76l5.51-.39c.09,3.04.17,6.06.21,9.04Z"/>
  <path class="cls-30" d="M835.66,477.38c.12,3.41.19,6.78.24,10.12l-5.52.1c-.05-3.25-.13-6.53-.23-9.83l5.51-.4Z"/>
  <path class="cls-30" d="M857.05,475.85c.15,3.76.25,7.51.31,11.23l-5.51.1c-.05-3.63-.16-7.27-.29-10.94l5.49-.4Z"/>
  <path class="cls-30" d="M885.36,473.82c.14,4.22.21,8.46.24,12.71l-5.51.1c-.03-4.15-.1-8.29-.24-12.42l5.51-.4Z"/>
  <path class="cls-30" d="M914.52,485.96l-5.5.1c-.04-4.65-.15-9.29-.3-13.92l5.49-.4c.17,4.72.27,9.46.31,14.21Z"/>
  <path class="cls-30" d="M815.31,496.54c.01,3.01,0,5.98-.02,8.95l-5.51-.43c.02-2.86.02-5.74.01-8.66l5.52.14Z"/>
  <path class="cls-30" d="M835.98,497.05c.02,3.38.01,6.74-.04,10.07l-5.51-.43c.04-3.24.05-6.5.03-9.78l5.52.14Z"/>
  <path class="cls-30" d="M851.95,497.45l5.51.14c0,3.76-.04,7.5-.14,11.23l-5.5-.44c.08-3.63.13-7.26.13-10.93Z"/>
  <path class="cls-30" d="M880.05,498.15l5.51.14c-.05,4.24-.17,8.49-.32,12.74l-5.49-.44c.15-4.15.25-8.3.3-12.44Z"/>
  <path class="cls-30" d="M914.49,499.01c-.06,4.77-.2,9.55-.39,14.3l-5.49-.44c.19-4.65.31-9.33.38-14l5.5.14Z"/>
  <path class="cls-30" d="M815.14,514.29c-.06,3-.16,5.96-.28,8.91l-5.48-1.01c.1-2.83.19-5.67.25-8.54l5.51.64Z"/>
  <path class="cls-30" d="M830.26,516.05l5.51.64c-.08,3.47-.2,6.91-.35,10.31l-5.49-1.02c.15-3.29.25-6.6.32-9.93Z"/>
  <path class="cls-30" d="M851.51,518.51l5.49.64c-.16,3.93-.37,7.83-.62,11.71l-5.46-1.01c.24-3.76.44-7.54.59-11.35Z"/>
  <path class="cls-30" d="M879.24,521.73l5.48.64c-.26,4.53-.57,9.04-.94,13.56l-5.45-1.01c.36-4.39.66-8.79.91-13.19Z"/>
  <path class="cls-30" d="M913.48,525.71c-.31,5.19-.71,10.35-1.17,15.48l-5.44-1c.45-5.01.83-10.05,1.13-15.12l5.48.64Z"/>
  <path class="cls-30" d="M814.45,532.24c-.16,2.89-.34,5.76-.53,8.61l-5.43-1.56c.19-2.75.36-5.51.49-8.3l5.47,1.25Z"/>
  <path class="cls-30" d="M829.48,535.65l5.46,1.24c-.19,3.31-.4,6.59-.65,9.84l-5.42-1.56c.23-3.14.43-6.32.61-9.51Z"/>
  <path class="cls-30" d="M850.15,540.35l5.43,1.24c-.3,3.68-.66,7.33-1.06,10.97l-5.39-1.55c.38-3.53.72-7.08,1.02-10.66Z"/>
  <path class="cls-30" d="M877.27,546.51l5.42,1.24c-.44,4.18-.92,8.35-1.46,12.51l-5.35-1.54c.51-4.06.97-8.12,1.39-12.21Z"/>
  <path class="cls-30" d="M910.96,554.17c-.56,4.76-1.17,9.47-1.85,14.13l-5.35-1.54c.66-4.55,1.27-9.16,1.8-13.81l5.41,1.23Z"/>
</svg>