<svg xmlns="http://www.w3.org/2000/svg" viewBox="0 0 1000 1000"><defs><style>.cls-1{fill:#3bc0c4}.cls-3{fill:#0baeb6}.cls-4{fill:#b0b0b1}.cls-5{fill:#414141}.cls-6{fill:#c4c4c4}</style></defs><g id="Body"><path d="M743.15 331.61c9.13 44.59 10.62 91.31 3.07 140.91l-27.83 8.1-5.47-144.91 30.23-4.09Zm-486.33 0c-9.13 44.59-10.62 91.31-3.07 140.91l27.83 8.1 5.47-144.91-30.23-4.09Z" style="fill:#302e2f"/><path d="M759.37 789.7V547.57c-.11-6.61-1.25-18.57-2.28-23.35s-1.94-7.86-6.49-27.91c-4.56-20.05-5.81-35.66-8.77-57.87-2.96-22.22-2.01-60.19-1.86-69.38s2.66-33.49 3.19-37.44.68-25.59.68-25.59-3.87-129.04-4.18-141.72c-.53-11.92-7.25-36.99-28.56-53.28-21.3-16.29-37.25-15.38-58.56-15.84-19.11-.41-127.91-.82-150.07-.9s-.7-.01-1.98 0h-1.98c-22.16.09-130.95.5-150.07.91-21.3.46-37.25-.46-58.56 15.84-21.3 16.29-28.03 41.35-28.56 53.28-.3 12.68-4.18 141.72-4.18 141.72s.15 21.65.68 25.59c.53 3.95 3.04 28.25 3.19 37.44s1.1 47.16-1.86 69.38-4.22 37.82-8.77 57.87c-4.56 20.05-5.47 23.13-6.49 27.91s-2.16 16.75-2.28 23.35v242.13s-1.41 38.28 33.34 70.97 78.95 38.39 109.14 41.13 78.84 5.44 112.9 5.11l3.49-.03 3.49.03c34.06.33 82.71-2.38 112.9-5.11s74.39-8.43 109.14-41.13 33.34-70.97 33.34-70.97Z" style="fill:#d6d6d6"/><path d="M523.36 705.46c57.14 1.47 116.99-4.42 176.37-17.62" style="fill:none;stroke-linecap:round;stroke-miterlimit:10;stroke:#b0b0b0;stroke-width:26px"/><rect width="199.59" height="94.83" x="510.49" y="538.82" class="cls-6" rx="47.41" ry="47.41" transform="rotate(-6.46 610.157 586.12)"/><rect width="22.59" height="38.37" x="498.89" y="781.62" class="cls-6" rx="11.29" ry="11.29" transform="rotate(30 510.192 800.794)"/><rect width="22.59" height="97.02" x="535.04" y="777.93" class="cls-6" rx="11.29" ry="11.29" transform="rotate(30 546.346 826.447)"/><rect width="22.59" height="97.02" x="587.65" y="773.53" class="cls-6" rx="11.29" ry="11.29" transform="rotate(30 598.943 822.034)"/><rect width="22.59" height="97.02" x="640.67" y="766.39" class="cls-6" rx="11.29" ry="11.29" transform="rotate(30 651.954 814.91)"/><rect width="22.59" height="38.36" x="675.84" y="821" class="cls-6" rx="11.29" ry="11.29" transform="rotate(30 687.146 840.18)"/><path d="m339.76 775.56-2.7 2.43c-2.79-2.52-4.95-6.47-6.47-11.87-2.07-7.01-3.46-11.19-4.18-12.54-1.08.9-2.43 2.83-4.05 5.8-1.98 3.51-3.37 5.8-4.18 6.88h-5.8c-2.43-6.02-4.99-10.97-7.69-14.83-1.53 2.43-2.29 5.85-2.29 10.25 0 1.26.07 3.22.2 5.87s.2 4.61.2 5.87q0 6.615-2.7 9.84c-1.17 0-2.38-.81-3.64-2.43 0-1.62-.4-4.7-1.21-9.24s-1.21-7.21-1.21-8.02c0-2.97.94-8.23 2.83-15.78 1.71-7.28 3.01-11.73 3.91-13.35 3.32 1.44 6.16 4.72 8.5 9.84 3.86 8.27 6.07 12.77 6.61 13.49 1.62-2.34 3.19-5.39 4.72-9.17 1.35-3.15 2.65-6.34 3.91-9.58.18-.45.09-.94-.27-1.48l-.81-1.48c.54-1.26 1.44-3.19 2.7-5.8h3.78c2.07 1.71 3.1 4 3.1 6.88 0 14.12 2.25 25.76 6.74 34.93v3.51Zm28.32-4.85c-4.58 1.44-7.73 2.16-9.44 2.16-6.56 0-11.64-2.16-15.24-6.47-3.06-3.78-4.58-8.36-4.58-13.75 0-2.97 1.89-7.39 5.66-13.28 3.78-5.89 6.74-8.83 8.9-8.83s4.16.99 5.73 2.97 2.36 4.14 2.36 6.47c0 3.78-2.38 7.37-7.15 10.79-3.33 1.98-6.61 3.91-9.84 5.8.45 3.42 2.97 6.61 7.55 9.57 3.96 2.61 7.24 3.91 9.84 3.91 1.35-.54 2.29-.81 2.83-.81 1.17 0 2.29.5 3.37 1.48Zm-12.28-29.4-2.29-2.29c-1.17.54-2.54 1.78-4.11 3.71s-2.54 3.49-2.9 4.65c3.33-1.17 6.43-3.19 9.31-6.07Z" class="cls-5"/><path d="M389.25 762.21c0 10.07-.76 16.99-2.29 20.77-1.8 4.58-4.14 8.77-7.01 12.54-3.87 5.03-7.55 7.55-11.06 7.55-1.17 0-2.68-.97-4.52-2.9s-2.58-3.62-2.23-5.06q.405.135 3.24 1.35c1.44.63 2.61.94 3.51.94 3.96 0 7.33-2.79 10.11-8.36 2.07-3.96 3.73-9.12 4.99-15.51.54-2.88 1.03-5.75 1.48-8.63l-2.43-2.43c-2.43 1.89-5.26 2.83-8.5 2.83-2.25 0-4.09-1.3-5.53-3.91-.99-2.07-1.48-4.05-1.48-5.93 0-3.24 1.21-7.42 3.64-12.54 3.15-6.38 6.79-9.58 10.92-9.58q1.35 0 2.16.54t1.08.54v4.32c-1.44.18-3.33.94-5.66 2.29-4.32 5.58-6.52 9.4-6.61 11.46v6.47c.18 0 .49.11.94.34.45.22 1.12.34 2.02.34 1.26 0 2.38-.81 3.37-2.43q.27-2.43 4.32-10.65h5.26c0 1.8.04 4.7.13 8.7s.13 6.32.13 6.95Zm28.05 12.41q-.405 0-2.16.54c-1.17.36-1.93.54-2.29.54-.99-1.98-2.2-5.75-3.64-11.33-.09.09-1.93 1.62-5.53 4.58-2.52 1.98-4.23 2.97-5.12 2.97-2.52 0-4.23-.99-5.12-2.97-1.44-3.05-2.25-4.67-2.43-4.85.09-.36.49-2.61 1.21-6.74.45-2.88 1.08-4.85 1.89-5.93 2.88-3.78 7.91-6.88 15.1-9.3.81.36 1.84.99 3.1 1.89q.945 10.515 1.62 15.51c.81 5.58 1.93 10.61 3.37 15.1Zm-11.33-15.24v-10.92h-3.37c-1.71 1.35-3.28 3.44-4.72 6.27q-2.16 4.245-2.16 6.81c0 .81.18 1.75.54 2.83q.54 1.62.54 1.89h3.24q1.485-.81 3.78-3.24c1.53-1.62 2.25-2.83 2.16-3.64Zm-51.49 80.96q0 1.485-1.62 4.05c-1.08 1.71-2.11 2.79-3.1 3.24-.72-.63-2.74-1.62-6.07-2.97-3.78-1.44-6.74-2.83-8.9-4.18-3.51-2.16-6.29-4.76-8.36-7.82-.72 1.17-1.08 2.74-1.08 4.72v4.72c0 3.69-1.06 6.56-3.18 8.63-1.68-1.26-2.69-2.92-3.04-4.99-.53-2.97-.88-4.63-1.06-4.99q.54-.945.81-4.86l-.81-1.08.81-1.48q0-3.105-.81-4.32c-.09-3.78.13-9.48.67-17.13.63-3.24 4.54-8.85 11.73-16.86q1.215-.54 2.97-.54c3.24 0 5.62 1.75 7.15 5.26.9 2.07 1.35 4.05 1.35 5.93 0 2.97-.18 4.81-.54 5.53-.72 1.62-2.52 4.5-5.39 8.63-2.43 3.42-3.64 5.58-3.64 6.47 0 .99.36 1.96 1.08 2.9s1.48 1.82 2.29 2.63c2.16 2.97 6.92 5.17 14.29 6.61 1.98 1.26 3.46 1.89 4.45 1.89Zm-18.07-33.04c0-1.89-.44-3.32-1.33-4.32h-3.46c-2.75 2.16-4.44 5.66-5.06 10.52-.27 3.6-.53 7.15-.8 10.65 1.86-1.98 3.9-4.49 6.13-7.55 3.02-4.22 4.53-7.33 4.53-9.31Zm46.26 10.79c0 3.42-2.29 7.55-6.88 12.41-4.58 4.85-8.59 7.28-12 7.28-2.97 0-5.39-2.29-7.28-6.88-1.44-3.33-2.16-5.89-2.16-7.69 0-.9.9-3.01 2.7-6.34 2.25-4.32 3.64-7.06 4.18-8.23l7.28 1.35c-1.8.99-3.51 3.15-5.12 6.47-1.62 3.33-2.43 5.89-2.43 7.69 0 1.89.47 3.53 1.42 4.92.94 1.39 2.18 2.09 3.71 2.09 2.43 0 5.08-2.11 7.96-6.34 2.61-3.78 3.91-6.34 3.91-7.69 0-.99-.72-2.65-2.16-4.99-2.16-3.69-3.33-5.71-3.51-6.07 1.44-.27 2.16-.67 2.16-1.21 1.44.99 3.42 2.74 5.93 5.26.09.72.49 2 1.21 3.84s1.08 3.22 1.08 4.11Zm49.35 30.75c-1.35 1.35-2.56 2.02-3.64 2.02q.135-1.62-.54-4.05c-.63-2.16-1.03-3.73-1.21-4.72-.45-4.59-.9-9.12-1.35-13.62-.63-5.48-1.75-9.93-3.37-13.35q.54-.81-1.62-.81c-.9 0-3.28 2.79-7.15 8.36-5.12 7.28-8.36 11.69-9.71 13.22-2.07-.45-3.64-3.15-4.72-8.09q-2.565-11.865-4.05-15.51c-.9-.09-1.57.18-2.02.81-.09.72-.4 5.44-.94 14.16-.27 5.75-1.4 9.22-3.37 10.38h-5.12c1.08-1.08 1.62-2.83 1.62-5.26 0-.63-.18-2.74-.54-6.34-.09-2.61-.5-11.15-1.21-25.62.99-.54 2.29-.81 3.91-.81 1.71 0 2.79.5 3.24 1.48.99-.99 1.48-1.93 1.48-2.83h3.37c1.89 2.25 3.59 6.43 5.12 12.54 1.8 7.19 3.19 11.82 4.18 13.89 2.43-1.35 5.19-4.65 8.29-9.91s5.6-8.56 7.48-9.91l3.91 2.29c2.34 3.42 4 7.64 4.99 12.68.54 3.06 1.03 7.87 1.48 14.43s.94 11.42 1.48 14.56Zm45.72-3.64-2.7 2.43c-2.79-2.52-4.95-6.47-6.47-11.87-2.07-7.01-3.46-11.19-4.18-12.54-1.08.9-2.43 2.83-4.05 5.8-1.98 3.51-3.37 5.8-4.18 6.88h-5.8c-2.43-6.02-4.99-10.97-7.69-14.83-1.53 2.43-2.29 5.85-2.29 10.25 0 1.26.07 3.22.2 5.87s.2 4.61.2 5.87q0 6.615-2.7 9.84c-1.17 0-2.38-.81-3.64-2.43 0-1.62-.4-4.7-1.21-9.24s-1.21-7.21-1.21-8.02c0-2.97.94-8.23 2.83-15.78 1.71-7.28 3.01-11.73 3.91-13.35 3.32 1.44 6.16 4.72 8.5 9.84 3.86 8.27 6.07 12.77 6.61 13.49 1.62-2.34 3.19-5.39 4.72-9.17 1.35-3.15 2.65-6.34 3.91-9.58.18-.45.09-.94-.27-1.48l-.81-1.48c.54-1.26 1.44-3.19 2.7-5.8h3.78c2.07 1.71 3.1 4 3.1 6.88 0 14.12 2.25 25.76 6.74 34.93v3.51Z" class="cls-5"/><path d="M708.1 172.09c-4.63-23.11-24.62-28.43-33.88-29.09s-49.26-1.33-61.66-1.66c-9.41-.25-73.24-.89-103.5-1.18v-.15s-2.96.03-7.93.07c-4.97-.05-7.92-.07-7.92-.07v.15c-30.27.29-94.1.93-103.51 1.18-12.4.33-52.4 1-61.66 1.66s-29.25 5.98-33.88 29.09-5.75 107.65-4.1 148.38 3.64 77.97 7.6 113.54c3.97 35.58 29.09 45.22 36.04 48.88 6.94 3.66 72.08 16.96 103.65 18.29 11.82.5 23.19 1.16 34.54 1.72l-.05.77c10.12.41 19.81.45 29.29.29 9.48.17 19.17.12 29.29-.29l-.05-.77c11.34-.56 22.72-1.22 34.54-1.72 31.57-1.33 96.71-14.63 103.65-18.29s32.07-13.3 36.04-48.88 5.95-72.81 7.6-113.54.53-125.27-4.1-148.38" class="cls-6"/><path d="M689.94 186.65c-4.25-21.11-22.62-25.97-31.13-26.58s-45.27-1.22-56.66-1.52c-8.64-.23-67.3-.81-95.1-1.08v-.14s-2.72.03-7.29.07c-4.56-.04-7.28-.07-7.28-.07v.14c-27.81.27-86.47.85-95.11 1.08-11.39.3-48.15.91-56.66 1.52s-26.88 5.47-31.13 26.58-5.29 98.36-3.77 135.58 3.34 71.24 6.99 103.75 26.73 41.32 33.11 44.66 66.23 15.49 95.24 16.71c10.86.45 21.31 1.06 31.74 1.57l-.04.71c9.3.37 18.2.41 26.91.26 8.71.15 17.61.11 26.91-.26l-.04-.71c10.42-.51 20.88-1.12 31.74-1.57 29.01-1.22 88.86-13.37 95.24-16.71s29.47-12.15 33.11-44.66c3.65-32.51 5.47-66.53 6.99-103.75s.48-114.47-3.77-135.58" style="fill:#252525"/><path d="M357.32 115.84c98.42-3.97 194.53-4.22 285.36 0" style="fill:none;stroke-linecap:round;stroke-miterlimit:10;stroke:#b0b0b1;stroke-width:8px"/><path d="M367.56 182.83h264.88v264.88H367.56z" style="fill:#253025"/><circle cx="665.87" cy="115.41" r="4.75" class="cls-4"/><circle cx="723.45" cy="214.77" r="4.75" class="cls-4"/><circle cx="276.48" cy="214.77" r="4.75" class="cls-4"/><circle cx="334.23" cy="115.6" r="4.96" class="cls-4"/><circle cx="443.71" cy="883.16" r="4.75" class="cls-4"/><path d="M336.88 115.24h-5.61V95.67c1.85-.12 3.72-.21 5.61-.26v19.82Zm-58.21 96.73v5.61H259.8c0-1.97.11-3.8.17-5.61zm443.66 0v5.61h18.87c0-1.97-.11-3.8-.17-5.61zM440.9 905.6l5.61.25V885.1c-1.97.01-3.8.12-5.61.19z" class="cls-4"/></g><g id="Buttons"><path d="m623.56 700.21 72.86-10.35M525.46 706.7l73.49-3.96" style="stroke:#4b4a4b;stroke-width:15px;fill:none;stroke-linecap:round;stroke-miterlimit:10"/><circle cx="664.86" cy="581.28" r="34.86" class="cls-3"/><circle cx="559.6" cy="592.9" r="34.86" class="cls-3"/><circle cx="372.62" cy="625.1" r="61.72" class="cls-3"/><circle cx="372.62" cy="625.1" r="42.69" style="fill:#00a1b3"/><rect width="50.47" height="27.23" x="398.84" y="611.27" class="cls-1" rx="13.61" ry="13.61"/><rect width="50.47" height="27.23" x="295.28" y="611.27" class="cls-1" rx="13.61" ry="13.61"/><rect width="50.47" height="27.23" x="346.89" y="559.43" class="cls-1" rx="13.61" ry="13.61" transform="rotate(-90 372.125 573.045)"/><rect width="50.47" height="27.23" x="346.89" y="662.65" class="cls-1" rx="13.61" ry="13.61" transform="rotate(-90 372.12 676.26)"/></g></svg>