<svg xmlns="http://www.w3.org/2000/svg" viewBox="0 0 1000 1000"><defs><style>.cls-1{fill:#3bc0c4}.cls-3{fill:#0baeb6}.cls-7{fill:#b0b0b1}.cls-8{fill:#414141}.cls-9{fill:#c4c4c4}</style></defs><g id="Buttons"><path d="M789.98 298.05c10.91 53.28 12.69 109.12 3.67 168.39l-33.26 9.68-6.53-173.17 36.12-4.89Zm-581.18 0c-10.91 53.28-12.69 109.12-3.67 168.39l33.26 9.68 6.53-173.17-36.12-4.89Z" style="fill:#302e2f"/><path d="M809.36 845.47V556.12c-.14-7.9-1.5-22.19-2.72-27.91s-2.31-9.39-7.76-33.35-6.94-42.61-10.48-69.16-2.41-71.93-2.22-82.91 3.18-40.03 3.81-44.75c.64-4.72.82-30.59.82-30.59s-4.63-154.2-4.99-169.36c-.64-14.25-8.67-44.2-34.13-63.67s-44.52-18.38-69.98-18.92c-22.84-.49-152.85-.98-179.33-1.07v-.02h-4.73v.02c-26.48.1-156.49.58-179.33 1.07-25.46.54-44.52-.54-69.98 18.92-25.46 19.47-33.49 49.42-34.13 63.67-.36 15.16-4.99 169.36-4.99 169.36s.18 25.87.82 30.59 3.63 33.76 3.81 44.75c.18 10.98 1.32 56.36-2.22 82.91s-5.04 45.2-10.48 69.16c-5.45 23.96-6.53 27.64-7.76 33.35s-2.59 20.01-2.72 27.91v289.35s-1.68 45.74 39.84 84.82 94.35 45.88 130.42 49.15 94.21 6.51 134.92 6.11c1.43-.01 2.81-.03 4.17-.04 1.36.01 2.74.03 4.17.04 40.71.39 98.84-2.84 134.92-6.11s88.9-10.07 130.42-49.15 39.84-84.82 39.84-84.82Z" style="fill:#d6d6d6"/><path d="M527.31 744.8c68.28 1.76 139.81-5.29 210.76-21.06" style="fill:none;stroke-linecap:round;stroke-miterlimit:10;stroke:#b0b0b0;stroke-width:31.07px"/><rect width="238.52" height="113.32" x="511.94" y="545.67" class="cls-9" rx="56.66" ry="56.66" transform="rotate(-6.46 631.024 602.23)"/><rect width="26.99" height="45.85" x="498.08" y="835.81" class="cls-9" rx="13.5" ry="13.5" transform="rotate(30 511.58 858.743)"/><rect width="26.99" height="115.95" x="541.28" y="831.41" class="cls-9" rx="13.5" ry="13.5" transform="rotate(30 554.771 889.39)"/><rect width="26.99" height="115.95" x="604.15" y="826.14" class="cls-9" rx="13.5" ry="13.5" transform="rotate(30 617.64 884.124)"/><rect width="26.99" height="115.95" x="667.5" y="817.61" class="cls-9" rx="13.5" ry="13.5" transform="rotate(30 680.993 875.588)"/><rect width="26.99" height="45.84" x="709.54" y="882.88" class="cls-9" rx="13.5" ry="13.5" transform="rotate(30 723.03 905.805)"/><path d="M748.09 107.42c-5.53-27.61-29.42-33.97-40.49-34.77s-58.87-1.59-73.69-1.99c-11.24-.3-87.53-1.06-123.69-1.41v-.18s-3.54.03-9.48.09c-5.94-.06-9.47-.09-9.47-.09v.18c-36.17.35-112.45 1.11-123.7 1.41-14.82.4-62.62 1.19-73.69 1.99-11.06.79-34.95 7.15-40.49 34.77-5.53 27.61-6.88 128.65-4.9 177.32s4.35 93.17 9.09 135.69c4.74 42.51 34.77 54.04 43.07 58.41s86.13 20.26 123.87 21.85c14.12.59 27.72 1.38 41.27 2.06l-.05.92c12.1.49 23.67.54 35 .34 11.33.2 22.9.14 35-.34l-.05-.92c13.56-.67 27.15-1.46 41.27-2.06 37.73-1.59 115.57-17.48 123.87-21.85s38.33-15.89 43.07-58.41c4.74-42.51 7.11-87.02 9.09-135.69s.63-149.71-4.9-177.32" class="cls-9"/><path d="M726.39 124.82c-5.08-25.23-27.04-31.04-37.2-31.77-10.17-.73-54.09-1.45-67.71-1.82-10.33-.28-80.43-.97-113.65-1.29v-.16l-8.71.08-8.7-.08v.16c-33.23.32-103.33 1.01-113.66 1.29-13.61.36-57.54 1.09-67.71 1.82s-32.12 6.53-37.2 31.77c-5.08 25.23-6.32 117.55-4.5 162.02s3.99 85.13 8.35 123.98 31.95 49.37 39.57 53.37c7.62 3.99 79.14 18.52 113.81 19.97 12.98.54 25.47 1.26 37.92 1.88l-.05.84c11.12.44 21.75.5 32.16.31 10.41.18 21.05.13 32.16-.31l-.05-.84c12.46-.61 24.95-1.34 37.92-1.88 34.67-1.45 106.19-15.97 113.81-19.97 7.62-3.99 35.22-14.52 39.57-53.37 4.36-38.85 6.53-79.51 8.35-123.98s.58-136.79-4.5-162.02Z" style="fill:#252525"/><path d="M328.9 40.2c117.61-4.75 232.47-5.05 341.01 0" style="stroke:#b0b0b1;stroke-width:9.56px;fill:none;stroke-linecap:round;stroke-miterlimit:10"/><path d="M341.13 120.25h316.54v316.54H341.13z" style="fill:#253025"/><circle cx="697.63" cy="39.68" r="5.68" class="cls-7"/><circle cx="766.43" cy="158.42" r="5.68" class="cls-7"/><circle cx="232.3" cy="158.42" r="5.68" class="cls-7"/><circle cx="301.3" cy="39.9" r="5.93" class="cls-7"/><circle cx="432.13" cy="957.16" r="5.68" class="cls-7"/><path d="M304.47 39.47h-6.7V16.09c2.21-.14 4.44-.25 6.7-.31zm-69.56 115.59v6.7h-22.55c.01-2.35.13-4.54.21-6.7h22.35Zm530.18 0v6.7h22.55c-.01-2.35-.13-4.54-.21-6.7h-22.35ZM428.78 983.97l6.7.3v-24.8c-2.35.01-4.54.15-6.7.23z" class="cls-7"/><path d="m647.05 738.53 87.08-12.37m-204.31 20.12 87.83-4.73" style="fill:none;stroke-linecap:round;stroke-miterlimit:10;stroke:#4b4a4b;stroke-width:17.93px"/><circle cx="696.42" cy="596.41" r="41.66" class="cls-3"/><circle cx="570.62" cy="610.3" r="41.66" class="cls-3"/><circle cx="347.18" cy="648.77" r="73.75" class="cls-3"/><circle cx="347.18" cy="648.77" r="51.02" style="fill:#00a1b3"/><rect width="60.31" height="32.54" x="378.51" y="632.24" class="cls-1" rx="16.27" ry="16.27"/><rect width="60.31" height="32.54" x="254.76" y="632.24" class="cls-1" rx="16.27" ry="16.27"/><rect width="60.31" height="32.54" x="316.43" y="570.3" class="cls-1" rx="16.27" ry="16.27" transform="rotate(-90 346.585 586.565)"/><rect width="60.31" height="32.54" x="316.43" y="693.64" class="cls-1" rx="16.27" ry="16.27" transform="rotate(-90 346.59 709.91)"/></g><g id="TEXT"><path d="M318.33 910.08c0 1.15-.63 2.72-1.88 4.71-1.26 1.99-2.46 3.25-3.61 3.77-.84-.73-3.19-1.88-7.07-3.45-4.4-1.67-7.85-3.3-10.36-4.87-4.08-2.51-7.33-5.55-9.74-9.11-.84 1.36-1.26 3.19-1.26 5.5v5.5c0 4.29-1.23 7.64-3.7 10.05-1.95-1.46-3.14-3.4-3.55-5.81-.62-3.45-1.03-5.39-1.23-5.81.42-.73.73-2.62.94-5.65l-.94-1.26.94-1.73c0-2.41-.31-4.08-.94-5.03-.11-4.4.16-11.04.79-19.94.73-3.77 5.28-10.31 13.66-19.63.94-.42 2.09-.63 3.46-.63 3.77 0 6.54 2.04 8.32 6.12 1.05 2.41 1.57 4.71 1.57 6.91 0 3.46-.21 5.6-.63 6.44-.84 1.88-2.93 5.24-6.28 10.05-2.83 3.98-4.24 6.49-4.24 7.54 0 1.15.42 2.28 1.26 3.38q1.26 1.65 2.67 3.06c2.51 3.46 8.06 6.02 16.65 7.69 2.3 1.47 4.03 2.2 5.18 2.2Zm-21.04-38.47c0-2.2-.52-3.87-1.55-5.03h-4.03c-3.2 2.51-5.17 6.6-5.89 12.25-.31 4.19-.62 8.32-.93 12.41 2.17-2.3 4.55-5.23 7.13-8.79 3.51-4.92 5.27-8.53 5.27-10.83Zm53.86 12.56c0 3.98-2.67 8.79-8.01 14.45-5.34 5.65-10 8.48-13.98 8.48-3.46 0-6.28-2.67-8.48-8.01-1.68-3.87-2.51-6.85-2.51-8.95 0-1.04 1.04-3.51 3.14-7.38 2.62-5.02 4.24-8.22 4.87-9.58l8.48 1.57c-2.1 1.15-4.08 3.67-5.97 7.54-1.88 3.87-2.83 6.86-2.83 8.95q0 3.3 1.65 5.73t4.32 2.43c2.83 0 5.91-2.46 9.26-7.38 3.04-4.4 4.55-7.38 4.55-8.95 0-1.15-.84-3.09-2.51-5.81-2.51-4.29-3.87-6.65-4.08-7.07 1.67-.31 2.51-.79 2.51-1.41 1.67 1.15 3.98 3.2 6.91 6.12.1.84.57 2.33 1.41 4.48s1.26 3.74 1.26 4.79Zm57.47 35.8c-1.57 1.57-2.98 2.36-4.24 2.36q.15-1.89-.63-4.71c-.73-2.51-1.21-4.34-1.41-5.5-.52-5.34-1.05-10.62-1.57-15.86-.73-6.38-2.04-11.57-3.93-15.55.42-.63-.21-.94-1.88-.94-1.05 0-3.82 3.25-8.32 9.74q-8.955 12.72-11.31 15.39c-2.41-.52-4.24-3.66-5.5-9.42q-2.985-13.815-4.71-18.06c-1.05-.1-1.83.21-2.36.94-.11.84-.47 6.33-1.1 16.49q-.465 10.05-3.93 12.09h-5.97c1.26-1.26 1.88-3.3 1.88-6.12q0-1.095-.63-7.38c-.11-3.04-.58-12.98-1.41-29.84 1.15-.63 2.67-.94 4.55-.94 1.99 0 3.24.58 3.77 1.73 1.15-1.15 1.73-2.25 1.73-3.3h3.93c2.2 2.62 4.19 7.49 5.97 14.6 2.09 8.38 3.71 13.77 4.87 16.17 2.83-1.57 6.05-5.42 9.66-11.54s6.52-9.97 8.72-11.54l4.55 2.67c2.72 3.98 4.66 8.9 5.81 14.76.63 3.56 1.2 9.16 1.73 16.8.52 7.64 1.1 13.3 1.73 16.96m53.24-4.24-3.14 2.83c-3.25-2.93-5.76-7.54-7.54-13.82-2.41-8.17-4.03-13.03-4.87-14.6q-1.89 1.575-4.71 6.75c-2.3 4.08-3.93 6.75-4.87 8.01h-6.75c-2.83-7.01-5.81-12.77-8.95-17.27-1.78 2.83-2.67 6.81-2.67 11.93 0 1.47.08 3.74.24 6.83s.24 5.37.24 6.83c0 5.13-1.05 8.95-3.14 11.46-1.36 0-2.77-.94-4.24-2.83 0-1.88-.47-5.47-1.41-10.76-.94-5.28-1.41-8.4-1.41-9.34 0-3.46 1.1-9.58 3.3-18.37 1.99-8.48 3.51-13.66 4.55-15.55 3.87 1.68 7.17 5.5 9.89 11.46 4.5 9.63 7.07 14.87 7.69 15.7 1.88-2.72 3.71-6.28 5.5-10.68 1.57-3.66 3.09-7.38 4.55-11.15.21-.52.1-1.1-.31-1.73l-.94-1.73c.63-1.46 1.67-3.71 3.14-6.75h4.4c2.41 1.99 3.61 4.66 3.61 8.01 0 16.44 2.62 29.99 7.85 40.67v4.08Zm-153.95-87.15-3.22 2.9c-3.33-3.01-5.91-7.74-7.74-14.18-2.47-8.38-4.14-13.38-5-14.99-1.29 1.08-2.9 3.38-4.83 6.93-2.36 4.19-4.03 6.93-5 8.22h-6.93c-2.9-7.2-5.96-13.11-9.19-17.73-1.83 2.9-2.74 6.99-2.74 12.25 0 1.51.08 3.84.24 7.01s.24 5.51.24 7.01c0 5.27-1.08 9.19-3.22 11.76-1.4 0-2.85-.97-4.35-2.9 0-1.93-.48-5.61-1.45-11.04-.97-5.42-1.45-8.62-1.45-9.59 0-3.55 1.13-9.83 3.38-18.86 2.04-8.7 3.6-14.02 4.67-15.95 3.97 1.72 7.36 5.64 10.15 11.76 4.62 9.89 7.25 15.26 7.9 16.12 1.93-2.79 3.81-6.45 5.64-10.96 1.61-3.76 3.17-7.57 4.67-11.44.21-.54.11-1.13-.32-1.77l-.97-1.77c.64-1.5 1.72-3.81 3.22-6.93h4.51c2.47 2.04 3.71 4.78 3.71 8.22 0 16.87 2.68 30.78 8.06 41.74v4.19Zm33.84-5.8q-8.22 2.58-11.28 2.58c-7.84 0-13.92-2.58-18.21-7.74-3.65-4.51-5.48-9.99-5.48-16.44 0-3.55 2.26-8.84 6.77-15.87 4.51-7.04 8.06-10.56 10.64-10.56s4.97 1.18 6.85 3.54c1.88 2.37 2.82 4.94 2.82 7.74 0 4.51-2.85 8.81-8.54 12.89q-5.97 3.54-11.76 6.93c.54 4.08 3.55 7.9 9.02 11.44 4.73 3.12 8.65 4.67 11.76 4.67 1.61-.64 2.74-.97 3.38-.97 1.4 0 2.74.59 4.03 1.77Zm-14.66-35.14-2.74-2.74c-1.4.65-3.04 2.12-4.92 4.43s-3.04 4.16-3.46 5.56c3.97-1.4 7.68-3.81 11.12-7.25" class="cls-8"/><path d="M367.05 812.62c0 12.03-.91 20.31-2.74 24.82-2.15 5.48-4.94 10.47-8.38 14.99-4.62 6.02-9.02 9.02-13.21 9.02-1.4 0-3.2-1.16-5.4-3.46-2.2-2.31-3.09-4.33-2.66-6.04.32.11 1.61.64 3.87 1.61 1.72.75 3.11 1.13 4.19 1.13q7.095 0 12.09-9.99c2.47-4.73 4.46-10.9 5.96-18.53.64-3.44 1.23-6.87 1.77-10.31l-2.9-2.9c-2.9 2.26-6.29 3.38-10.15 3.38-2.69 0-4.89-1.56-6.61-4.67-1.18-2.47-1.77-4.83-1.77-7.09 0-3.87 1.45-8.86 4.35-14.99 3.76-7.63 8.11-11.44 13.05-11.44 1.07 0 1.93.22 2.58.64.64.43 1.07.65 1.29.65v5.16c-1.72.22-3.98 1.13-6.77 2.74-5.16 6.66-7.79 11.23-7.9 13.7v7.74c.21 0 .59.14 1.13.4.54.27 1.34.4 2.42.4 1.5 0 2.85-.97 4.03-2.9.21-1.93 1.93-6.18 5.16-12.73h6.29c0 2.15.05 5.62.16 10.39.11 4.78.16 7.55.16 8.3Zm33.52 14.83c-.32 0-1.18.22-2.58.64-1.4.43-2.31.64-2.74.64-1.18-2.36-2.63-6.87-4.35-13.54-.11.11-2.31 1.93-6.61 5.48-3.01 2.36-5.05 3.55-6.12 3.55-3.01 0-5.05-1.18-6.12-3.55-1.72-3.65-2.69-5.58-2.9-5.8.11-.43.59-3.12 1.45-8.06.54-3.44 1.29-5.8 2.26-7.09 3.44-4.51 9.45-8.22 18.05-11.12.97.43 2.2 1.18 3.71 2.26.75 8.38 1.4 14.56 1.93 18.53.97 6.66 2.31 12.68 4.03 18.05Zm-13.54-18.21v-13.05H383c-2.04 1.61-3.92 4.11-5.64 7.49s-2.58 6.1-2.58 8.14c0 .97.21 2.09.64 3.38s.64 2.04.64 2.26h3.87c1.18-.65 2.68-1.93 4.51-3.87 1.83-1.93 2.68-3.38 2.58-4.35Z" class="cls-8"/></g></svg>