<svg xmlns="http://www.w3.org/2000/svg" id="MAIN" viewBox="0 0 1000 1000"><defs><style>.cls-2{fill:#efeeed}.cls-9{fill:#f5c93c}.cls-11{fill:#6d6d6d}.cls-15{fill:#c4c6cc}</style></defs><g id="Body"><path d="M896.24 231.23H692.58V109.05c78.95 12.41 162.34 16.22 196.51 49.27 2.03 1.96 3.27 4.61 3.43 7.43zm-791.55 0h203.66V109.05c-78.95 12.41-162.34 16.22-196.51 49.27a11.23 11.23 0 0 0-3.43 7.43z" class="cls-11"/><path d="M235.1 509.74c-13.83.29-20.87 10.64-22.62 17.85 0 0-52.39 188.38-66.37 209.04s-23.85 29.77-42.23 29.62-46.18-10.94-54.53-42.53-31.78-132.64-27.67-214.89 22.14-169.52 22.14-169.52zm521.69.15c13.83.29 29.41 10.48 31.16 17.69 0 0 52.39 188.38 66.37 209.04s23.85 29.77 42.23 29.62 46.18-10.94 54.53-42.53 31.78-132.64 27.67-214.89c-4.1-82.25-22.14-169.52-22.14-169.52z" class="cls-15"/><path d="M704.87 127.2s-8.77-.01-23.72-.03V86.41c-32.9-52.6-316.34-51.43-361.37 0v40.65c-12.07.03-20.39.08-23.72.13-187.43 3.28-252.21 93.08-252.22 202.78v17.34c0 84.52 93.81 162.06 202.77 162.77h.92c27.73 2.61 105.66-1.34 117.96 71.88s46.41 242.43 54.91 271.9c.44 1.51 1.04 3.16 1.78 4.91 9.67 36.99 28.57 96.47 75.77 102.37.24.27.38.43.38.43s.13-.12.36-.34c1.43.16 2.87.28 4.35.34 51.65 2.13 69.42-78.23 77.92-107.7 8.51-29.47 42.61-198.68 54.91-271.9s90.23-69.27 117.96-71.88c89.23-5.51 199.96-60.03 202.77-162.77v-17.34c0-111.99-69.8-198.9-251.72-202.78Z" style="fill:#d0d3db"/><path d="m681.15 86.41-16.83 168.84 40.56-128.05s-7.97-3.87-10.48-12.53-9.63-27.34-13.24-28.25Zm-361.38 0 16.83 168.84-40.56-128.05s7.97-3.87 10.48-12.53 9.63-27.34 13.24-28.25Z" style="fill:#b6b6ba"/><ellipse cx="500" cy="559.07" class="cls-11" rx="102.34" ry="101.86"/><path d="m503.7 500.21 35.07 15.43c2.08.91 3.74 2.57 4.65 4.65l15.43 35.07a9.2 9.2 0 0 1 0 7.41l-15.43 35.07a9.02 9.02 0 0 1-4.65 4.65l-35.07 15.43a9.2 9.2 0 0 1-7.41 0l-35.07-15.43a9.02 9.02 0 0 1-4.65-4.65l-15.43-35.07a9.2 9.2 0 0 1 0-7.41l15.43-35.07a9.02 9.02 0 0 1 4.65-4.65l35.07-15.43a9.2 9.2 0 0 1 7.41 0" style="fill:#4c4c4d"/><ellipse cx="501.01" cy="368.38" rx="44.82" ry="44.61" style="fill:#bababa"/><ellipse cx="821.47" cy="304.7" rx="69.6" ry="69.28" style="fill:none;stroke-miterlimit:10;stroke:#aaaaab;stroke-width:3px"/><ellipse cx="203.96" cy="338.15" class="cls-15" rx="102.57" ry="102.09"/><path d="M685.42 391.74h54.68v7.43h-54.68z" style="fill:#aaaaab" transform="rotate(47.25 712.749 395.447)"/></g><g id="Buttons"><circle cx="821.47" cy="249.56" r="28.27" class="cls-9"/><circle cx="821.47" cy="359.84" r="28.27" class="cls-9"/><circle cx="748.36" cy="429.9" r="36.82" style="fill:#3567b2"/><circle cx="681.15" cy="362.23" r="36.82" style="fill:#12ab7e"/><circle cx="501.01" cy="368.38" r="36.82" style="fill:#e34048"/><circle cx="876.61" cy="304.7" r="28.27" class="cls-9"/><circle cx="766.33" cy="304.7" r="28.27" class="cls-9"/><ellipse cx="500" cy="559.07" rx="44.59" ry="44.38" style="fill:#cccccb"/><path d="M500 526.56c18.02 0 32.67 14.58 32.67 32.51s-14.66 32.51-32.67 32.51-32.67-14.58-32.67-32.51 14.66-32.51 32.67-32.51m0-3.08c-19.75 0-35.76 15.94-35.76 35.6s16.01 35.6 35.76 35.6 35.76-15.94 35.76-35.6-16.01-35.6-35.76-35.6" class="cls-2"/><path d="M500 537.84c11.77 0 21.35 9.52 21.35 21.23S511.77 580.3 500 580.3s-21.35-9.52-21.35-21.23 9.58-21.23 21.35-21.23m0-3.09c-13.5 0-24.43 10.89-24.43 24.32s10.94 24.32 24.43 24.32 24.43-10.89 24.43-24.32-10.94-24.32-24.43-24.32" class="cls-2"/><path d="M500 549.18c5.49 0 9.95 4.44 9.95 9.89s-4.47 9.89-9.95 9.89-9.95-4.44-9.95-9.89 4.47-9.89 9.95-9.89m0-3.09c-7.2 0-13.04 5.81-13.04 12.98s5.84 12.98 13.04 12.98 13.04-5.81 13.04-12.98-5.84-12.98-13.04-12.98" class="cls-2"/><path d="M276.34 313.44h-42.96c-2.54 0-4.6-2.05-4.6-4.58v-42.75c0-2.53-2.06-4.58-4.6-4.58h-40.45c-2.54 0-4.6 2.05-4.6 4.58v42.75c0 2.53-2.06 4.58-4.6 4.58h-42.96c-2.54 0-4.6 2.05-4.6 4.58v40.26c0 2.53 2.06 4.58 4.6 4.58h42.96c2.54 0 4.6 2.05 4.6 4.58v42.75c0 2.53 2.06 4.58 4.6 4.58h40.45c2.54 0 4.6-2.05 4.6-4.58v-42.75c0-2.53 2.06-4.58 4.6-4.58h42.96c2.54 0 4.6-2.05 4.6-4.58v-40.26c0-2.53-2.06-4.58-4.6-4.58" class="cls-11"/></g><g id="TEXT"><rect width="204.68" height="47.39" x="397.66" y="123.44" rx="23.7" ry="23.7" style="stroke:#c4c6cc;stroke-width:5px;fill:none;stroke-miterlimit:10"/><path d="M416.98 148.63v8.21h-5.12v-21.33h11.61c4.94 0 7.76 2.42 7.76 6.09 0 2.76-1.61 4.36-3.73 5.03.88.36 3.15 1.21 3.15 5.03v1.06c0 1.48 0 3.12.27 4.12h-5.3c-.36-.94-.39-2.21-.39-4.45v-.73c0-2.15-.79-3.03-3.91-3.03h-4.33Zm0-3.9h5.33c2.52 0 3.61-.91 3.61-2.7s-1.12-2.64-3.58-2.64h-5.36v5.33Zm33.48 4.27c0 4.82-3.33 8.27-9.15 8.27s-8.82-3.91-8.82-8.27 3.09-8.24 9-8.24 8.97 4.36 8.97 8.24m-12.94 0c0 2.45 1.36 4.55 3.94 4.55s3.91-2.06 3.91-4.45-1.18-4.58-3.94-4.58-3.91 2.09-3.91 4.48m14.91-3.76c0-1.36 0-2.7-.03-4.06h4.73c.09.61.12 1.3.12 1.85.82-1.12 2.3-2.27 4.79-2.27 2.76 0 4.09 1.21 4.73 2.58.82-1.15 2.27-2.58 5.27-2.58 3.27 0 5.85 1.97 5.85 6.64v9.46h-4.88v-9.33c0-1.36-.45-3-2.52-3-1.79 0-2.85 1.12-2.85 3.7v8.64h-4.91v-9.36c0-1.55-.58-2.97-2.55-2.97s-2.88 1.42-2.88 3.7v8.64h-4.88v-11.61Zm28.42 0c0-1.36 0-2.7-.03-4.06h4.73c.09.61.12 1.3.12 1.85.82-1.12 2.3-2.27 4.79-2.27 2.76 0 4.09 1.21 4.73 2.58.82-1.15 2.27-2.58 5.27-2.58 3.27 0 5.85 1.97 5.85 6.64v9.46h-4.88v-9.33c0-1.36-.45-3-2.51-3-1.79 0-2.85 1.12-2.85 3.7v8.64h-4.91v-9.36c0-1.55-.58-2.97-2.55-2.97s-2.88 1.42-2.88 3.7v8.64h-4.88v-11.61Zm26.48-4.06h2.82v-4.61h4.97v4.61h3.64v3.61h-3.64v6.61c0 1.33.27 1.94 1.79 1.94.42 0 .91 0 1.33-.09v3.39c-.85.24-1.97.33-3.12.33-3.85 0-4.97-1.67-4.97-4.73v-7.45h-2.82zm16.84 9.03c.12 1.91 1.49 3.39 3.85 3.39 1.85 0 2.73-.58 3.3-1.55h4.97c-.97 2.79-3.3 5.21-8.33 5.21-6.42 0-8.73-4.24-8.73-8.24 0-4.39 2.97-8.27 8.7-8.27 6.09 0 8.55 4.21 8.55 8.27 0 .39 0 .7-.03 1.18h-12.27Zm7.28-3.03c-.09-1.18-.73-2.94-3.55-2.94-2.58 0-3.55 1.39-3.67 2.94h7.21Zm6.87-2.03c0-1.33 0-2.85-.03-3.97h4.82c.06.45.12 1.39.15 2.03.73-1.09 2.15-2.45 5.21-2.45 3.85 0 6.12 2.39 6.12 6.42v9.67h-5v-8.88c0-1.79-.7-3.36-2.91-3.36-2.33 0-3.39 1.61-3.39 4.42v7.82h-4.97zm36.03-10.88v18.18c0 1.45 0 2.94.03 4.39h-4.88c-.06-.45-.09-1.21-.12-1.82-.88 1.21-1.97 2.24-5.21 2.24-4.36 0-7.61-3.24-7.61-8.12 0-5.27 4.18-8.39 8.06-8.39 3.06 0 4.3 1.03 4.76 1.64v-8.12zm-8.73 19.12c2.54 0 3.88-1.67 3.88-4.36s-1.06-4.42-3.88-4.42c-2.67 0-3.97 2.12-3.97 4.42 0 2.48 1.42 4.36 3.97 4.36m28.67-4.39c0 4.82-3.33 8.27-9.15 8.27s-8.82-3.91-8.82-8.27 3.09-8.24 9-8.24 8.97 4.36 8.97 8.24m-12.94 0c0 2.45 1.36 4.55 3.94 4.55s3.91-2.06 3.91-4.45-1.18-4.58-3.94-4.58-3.91 2.09-3.91 4.48" class="cls-15"/></g></svg>