<?xml version="1.0" encoding="UTF-8"?>
<svg id="Layer_1" data-name="Layer 1" xmlns="http://www.w3.org/2000/svg" viewBox="0 0 1000 1000">
  <defs>
    <style>
      .cls-1 {
        fill: #a9a8a9;
      }

      .cls-2 {
        fill: #474748;
      }

      .cls-3 {
        fill: #4c4c4d;
      }

      .cls-4 {
        fill: #a3a3a3;
      }

      .cls-5 {
        fill: #a7a8aa;
      }

      .cls-6 {
        fill: #303336;
      }

      .cls-7 {
        fill: #101010;
      }

      .cls-8 {
        fill: #40403f;
      }

      .cls-9 {
        fill: #6bbd45;
      }

      .cls-10 {
        fill: #92969b;
      }

      .cls-11 {
        fill: #2a2a2b;
      }

      .cls-12 {
        fill: #808284;
      }

      .cls-13 {
        fill: #727373;
      }

      .cls-14 {
        fill: #b0b0b0;
      }

      .cls-15 {
        fill: #1e1d1e;
      }

      .cls-16 {
        fill: #bcbec1;
      }

      .cls-17 {
        fill: #353638;
      }

      .cls-18 {
        fill: #b0b0b1;
        stroke: #a7a8aa;
        stroke-miterlimit: 10;
        stroke-width: 2px;
      }
    </style>
  </defs>
  <path class="cls-17" d="M64.94,449.06h21.74c.1,0,.18.08.18.18v60.61c0,.1-.08.18-.18.18H30.08c-.1,0-.18-.08-.18-.18v-25.75c0-19.34,15.7-35.04,35.04-35.04Z"/>
  <path class="cls-17" d="M912.59,449.06h56.6c.1,0,.18.08.18.18v60.61c0,.1-.08.18-.18.18h-21.74c-19.34,0-35.04-15.7-35.04-35.04v-25.75c0-.1.08-.18.18-.18Z" transform="translate(1881.77 959.08) rotate(-180)"/>
  <g>
    <rect class="cls-10" x="33.37" y="444.68" width="933.27" height="533.16" rx="56.04" ry="56.04"/>
    <rect class="cls-16" x="41.47" y="451.96" width="913.87" height="517.67" rx="50.27" ry="50.27"/>
    <path class="cls-18" d="M956.93,524.43v373.67h-198.91c-5.15,0-9.33-4.18-9.33-9.33v-355.01c0-5.15,4.18-9.33,9.33-9.33h198.91Z"/>
    <path class="cls-18" d="M252.45,533.76v355.01c0,5.15-4.18,9.33-9.33,9.33H43.07v-373.67h200.05c5.15,0,9.33,4.18,9.33,9.33Z"/>
    <rect class="cls-3" x="668.19" y="931.85" width="5.47" height="16.56" rx=".84" ry=".84"/>
    <rect class="cls-8" x="301.59" y="931.85" width="5.47" height="16.56" rx=".84" ry=".84"/>
    <rect class="cls-9" x="691.05" y="931.85" width="5.47" height="16.56" rx=".84" ry=".84"/>
    <rect class="cls-4" x="828.29" y="619.2" width="56.96" height="160.9" rx="28.26" ry="28.26" transform="translate(157.12 1556.43) rotate(-90)"/>
    <circle class="cls-17" cx="806.19" cy="699.63" r="22.1"/>
    <circle class="cls-17" cx="907.36" cy="699.63" r="22.1"/>
    <rect class="cls-4" x="828.29" y="619.2" width="56.96" height="160.9" rx="28.26" ry="28.26"/>
    <path class="cls-1" d="M291.78,513.53c-71.34-.81-142.7-2.03-214.08-3.68-14.28-.33-25.69-12.1-25.69-26.48V69.11c0-25.93,20.88-46.95,46.63-46.95h800.82c25.75,0,46.63,21.02,46.63,46.95v414.26c0,14.39-11.41,26.15-25.69,26.48-71.14,1.64-142.3,2.87-213.48,3.69"/>
    <path class="cls-16" d="M925.39,78.32v395.07c0,13.72-10.88,24.94-24.5,25.25-67.84,1.57-125.71,2.74-193.59,3.51v-54.84h-415.91v54.83c-68.04-.77-126.09-1.94-194.16-3.5-13.62-.32-24.5-11.54-24.5-25.25V78.32c0-24.73,19.91-44.78,44.47-44.78h763.72c24.56,0,44.47,20.05,44.47,44.78Z"/>
    <circle class="cls-17" cx="856.78" cy="649.05" r="22.1"/>
    <circle class="cls-17" cx="856.78" cy="750.22" r="22.1"/>
    <rect class="cls-4" x="787.74" y="547.73" width="137.62" height="31.9" rx="15.95" ry="15.95"/>
    <path class="cls-17" d="M804.14,551.99h46.18v23.09h-46.18c-6.37,0-11.54-5.17-11.54-11.54h0c0-6.37,5.17-11.54,11.54-11.54Z"/>
    <rect class="cls-5" x="203.5" y="55.2" width="25.97" height="25.97" rx="3.7" ry="3.7"/>
    <rect class="cls-5" x="770.38" y="55.2" width="25.97" height="25.97" rx="3.7" ry="3.7"/>
    <rect class="cls-5" x="770.38" y="429.78" width="25.97" height="25.97" rx="3.7" ry="3.7"/>
    <rect class="cls-5" x="203.5" y="429.78" width="25.97" height="25.97" rx="3.7" ry="3.7"/>
    <path class="cls-17" d="M875.66,551.99h46.18v23.09h-46.18c-6.37,0-11.54-5.17-11.54-11.54h0c0-6.37,5.17-11.54,11.54-11.54Z" transform="translate(1785.96 1127.06) rotate(180)"/>
    <rect class="cls-4" x="96.07" y="546.59" width="91.14" height="35.54"/>
    <path class="cls-14" d="M723.59,533.7v355.14c0,3.05-1.48,5.76-3.76,7.44-1.54,1.14-3.45,1.82-5.51,1.82h-428.66c-5.11,0-9.26-4.15-9.26-9.26v-355.14c0-5.12,4.15-9.27,9.26-9.27h428.66c1.41,0,2.74.31,3.94.88,3.15,1.48,5.33,4.68,5.33,8.39Z"/>
    <rect class="cls-17" x="109.96" y="552.75" width="62.2" height="22.78"/>
    <path class="cls-12" d="M723.59,533.7v355.14c0,3.05-1.48,5.76-3.76,7.44h-.01l-23.02-64.01-23.45-34.2.1-1.07,19.76-213.22,4.47-48.22h0s20.57-10.25,20.57-10.25h.01c3.15,1.48,5.33,4.68,5.33,8.39Z"/>
    <path class="cls-5" d="M723.59,533.7v355.14c0,3.05-1.48,5.76-3.76,7.44h-.01l-23.02-64.01-23.45-34.2.1-1.07,19.76-213.22,4.47-48.22h0s20.57-10.25,20.57-10.25h.01c3.15,1.48,5.33,4.68,5.33,8.39Z"/>
    <path class="cls-5" d="M276.38,533.7v355.14c0,3.05,1.48,5.76,3.76,7.44h.01l23.02-64.01,23.45-34.2-.1-1.07-19.76-213.22-4.47-48.22h0s-20.57-10.25-20.57-10.25h-.01c-3.15,1.48-5.33,4.68-5.33,8.39Z"/>
    <rect class="cls-7" x="301.01" y="533.23" width="397.97" height="300.46" rx="6.08" ry="6.08"/>
    <rect class="cls-15" x="306.78" y="537.25" width="386.43" height="259.75"/>
    <rect class="cls-7" x="294.14" y="108.04" width="409.82" height="306.85"/>
    <rect class="cls-6" x="271.93" y="82.91" width="454.25" height="351.19" rx="10.73" ry="10.73"/>
    <rect class="cls-7" x="294.14" y="108.04" width="409.82" height="306.85"/>
    <rect class="cls-15" x="304.32" y="115.56" width="389.47" height="290.51"/>
    <path class="cls-4" d="M217.47,700.23c0,8.72-1.46,17.1-4.16,24.91h-46.58v47.06c-8.02,2.87-16.66,4.43-25.67,4.43s-18.41-1.7-26.73-4.81v-46.68h-45.52c-2.69-7.81-4.15-16.19-4.15-24.91,0-9.69,1.8-18.97,5.1-27.5h44.57v-44.1c8.32-3.11,17.33-4.81,26.73-4.81s17.65,1.56,25.67,4.43v44.48h45.64c3.3,8.53,5.1,17.81,5.1,27.5Z"/>
    <path class="cls-11" d="M213.83,700.23c0,7.62-1.28,14.94-3.63,21.76h-46.7v47.12c-7.01,2.51-14.56,3.87-22.43,3.87s-16.08-1.49-23.35-4.2v-46.78h-45.77c-2.35-6.82-3.63-14.15-3.63-21.76,0-8.47,1.57-16.57,4.46-24.03h44.94v-44.53c7.27-2.72,15.14-4.2,23.35-4.2s15.42,1.36,22.43,3.87v44.86h45.88c2.88,7.45,4.46,15.56,4.46,24.03Z"/>
    <g>
      <circle class="cls-2" cx="760.93" cy="312.42" r="3.04"/>
      <circle class="cls-2" cx="760.93" cy="342.3" r="3.04"/>
      <circle class="cls-2" cx="760.93" cy="372.17" r="3.04"/>
      <circle class="cls-2" cx="760.93" cy="402.04" r="3.04"/>
      <circle class="cls-2" cx="783.37" cy="312.42" r="3.04"/>
      <circle class="cls-2" cx="783.37" cy="342.3" r="3.04"/>
      <circle class="cls-2" cx="783.37" cy="372.17" r="3.04"/>
      <circle class="cls-2" cx="783.37" cy="402.04" r="3.04"/>
      <circle class="cls-2" cx="804.79" cy="312.42" r="3.04"/>
      <circle class="cls-2" cx="804.79" cy="342.3" r="3.04"/>
      <circle class="cls-2" cx="804.79" cy="372.17" r="3.04"/>
      <circle class="cls-2" cx="804.79" cy="402.04" r="3.04"/>
      <circle class="cls-2" cx="826.02" cy="312.42" r="3.04"/>
      <circle class="cls-2" cx="826.02" cy="342.3" r="3.04"/>
      <circle class="cls-2" cx="826.02" cy="372.17" r="3.04"/>
      <circle class="cls-2" cx="826.02" cy="402.04" r="3.04"/>
      <circle class="cls-2" cx="847.28" cy="312.42" r="3.04"/>
      <circle class="cls-2" cx="847.28" cy="342.3" r="3.04"/>
      <circle class="cls-2" cx="847.28" cy="372.17" r="3.04"/>
      <circle class="cls-2" cx="847.28" cy="402.04" r="3.04"/>
      <circle class="cls-2" cx="869.15" cy="312.42" r="3.04"/>
      <circle class="cls-2" cx="869.15" cy="342.3" r="3.04"/>
      <circle class="cls-2" cx="869.15" cy="372.17" r="3.04"/>
      <circle class="cls-2" cx="869.15" cy="402.04" r="3.04"/>
      <circle class="cls-2" cx="889.96" cy="312.42" r="3.04"/>
      <circle class="cls-2" cx="889.96" cy="342.3" r="3.04"/>
      <circle class="cls-2" cx="889.96" cy="372.17" r="3.04"/>
      <circle class="cls-2" cx="889.96" cy="402.04" r="3.04"/>
    </g>
    <g>
      <circle class="cls-2" cx="109.16" cy="312.42" r="3.04"/>
      <circle class="cls-2" cx="109.16" cy="342.3" r="3.04"/>
      <circle class="cls-2" cx="109.16" cy="372.17" r="3.04"/>
      <circle class="cls-2" cx="109.16" cy="402.04" r="3.04"/>
      <circle class="cls-2" cx="131.6" cy="312.42" r="3.04"/>
      <circle class="cls-2" cx="131.6" cy="342.3" r="3.04"/>
      <circle class="cls-2" cx="131.6" cy="372.17" r="3.04"/>
      <circle class="cls-2" cx="131.6" cy="402.04" r="3.04"/>
      <circle class="cls-2" cx="153.02" cy="312.42" r="3.04"/>
      <circle class="cls-2" cx="153.02" cy="342.3" r="3.04"/>
      <circle class="cls-2" cx="153.02" cy="372.17" r="3.04"/>
      <circle class="cls-2" cx="153.02" cy="402.04" r="3.04"/>
      <circle class="cls-2" cx="174.25" cy="312.42" r="3.04"/>
      <circle class="cls-2" cx="174.25" cy="342.3" r="3.04"/>
      <circle class="cls-2" cx="174.25" cy="372.17" r="3.04"/>
      <circle class="cls-2" cx="174.25" cy="402.04" r="3.04"/>
      <circle class="cls-2" cx="195.51" cy="312.42" r="3.04"/>
      <circle class="cls-2" cx="195.51" cy="342.3" r="3.04"/>
      <circle class="cls-2" cx="195.51" cy="372.17" r="3.04"/>
      <circle class="cls-2" cx="195.51" cy="402.04" r="3.04"/>
      <circle class="cls-2" cx="217.39" cy="312.42" r="3.04"/>
      <circle class="cls-2" cx="217.39" cy="342.3" r="3.04"/>
      <circle class="cls-2" cx="217.39" cy="372.17" r="3.04"/>
      <circle class="cls-2" cx="217.39" cy="402.04" r="3.04"/>
      <circle class="cls-2" cx="238.2" cy="312.42" r="3.04"/>
      <circle class="cls-2" cx="238.2" cy="342.3" r="3.04"/>
      <circle class="cls-2" cx="238.2" cy="372.17" r="3.04"/>
      <circle class="cls-2" cx="238.2" cy="402.04" r="3.04"/>
    </g>
    <rect class="cls-13" x="291.78" y="447.65" width="415.14" height="65.88"/>
    <rect class="cls-16" x="642.91" y="442.77" width="33.11" height="69.4"/>
    <rect class="cls-16" x="293.62" y="449.06" width="28.1" height="65.13"/>
    <rect class="cls-16" x="678.07" y="449.06" width="26.85" height="66"/>
    <rect class="cls-16" x="323.62" y="444.68" width="176.38" height="67.49"/>
    <rect class="cls-16" x="502.48" y="449.06" width="138.23" height="66"/>
    <rect class="cls-1" x="293.62" y="502.16" width="28.1" height="11.34"/>
    <rect class="cls-1" x="678.07" y="502.24" width="26.85" height="11.32"/>
    <rect class="cls-1" x="642.91" y="502.24" width="33.11" height="9.93"/>
    <rect class="cls-1" x="323.62" y="502.16" width="176.38" height="10.01"/>
    <rect class="cls-1" x="502.48" y="502.16" width="138.23" height="11.4"/>
  </g>
</svg>