<svg xmlns="http://www.w3.org/2000/svg" id="Layer_1" data-name="Layer 1" viewBox="0 0 1000 1000"><defs><style>.cls-1{fill:#a9a8a9}.cls-2{fill:#474748}.cls-4{fill:#a3a3a3}.cls-5{fill:#a7a8aa}.cls-7{fill:#101010}.cls-15{fill:#1e1d1e}.cls-16{fill:#bcbec1}.cls-17{fill:#353638}</style></defs><path d="M64.94 449.06h21.74c.1 0 .18.08.18.18v60.61c0 .1-.08.18-.18.18h-56.6a.18.18 0 0 1-.18-.18V484.1c0-19.34 15.7-35.04 35.04-35.04m904.24 60.96h-56.6a.18.18 0 0 1-.18-.18v-60.61c0-.1.08-.18.18-.18h21.74c19.34 0 35.04 15.7 35.04 35.04v25.75c0 .1-.08.18-.18.18" class="cls-17"/><rect width="933.27" height="533.16" x="33.37" y="444.68" rx="56.04" ry="56.04" style="fill:#92969b"/><rect width="913.87" height="517.67" x="41.47" y="451.96" class="cls-16" rx="50.27" ry="50.27"/><path d="M956.93 524.43V898.1H758.02c-5.15 0-9.33-4.18-9.33-9.33V533.76c0-5.15 4.18-9.33 9.33-9.33zm-704.48 9.33v355.01c0 5.15-4.18 9.33-9.33 9.33H43.07V524.43h200.05c5.15 0 9.33 4.18 9.33 9.33Z" style="fill:#b0b0b1;stroke:#a7a8aa;stroke-miterlimit:10;stroke-width:2px"/><rect width="5.47" height="16.56" x="668.19" y="931.85" rx=".84" ry=".84" style="fill:#4c4c4d"/><rect width="5.47" height="16.56" x="301.59" y="931.85" rx=".84" ry=".84" style="fill:#40403f"/><rect width="5.47" height="16.56" x="691.05" y="931.85" rx=".84" ry=".84" style="fill:#6bbd45"/><rect width="56.96" height="160.9" x="828.29" y="619.2" class="cls-4" rx="28.26" ry="28.26" transform="rotate(-90 856.775 699.655)"/><circle cx="806.19" cy="699.63" r="22.1" class="cls-17"/><circle cx="907.36" cy="699.63" r="22.1" class="cls-17"/><rect width="56.96" height="160.9" x="828.29" y="619.2" class="cls-4" rx="28.26" ry="28.26"/><path d="M291.78 513.53c-71.34-.81-142.7-2.03-214.08-3.68-14.28-.33-25.69-12.1-25.69-26.48V69.11c0-25.93 20.88-46.95 46.63-46.95h800.82c25.75 0 46.63 21.02 46.63 46.95v414.26c0 14.39-11.41 26.15-25.69 26.48q-106.71 2.46-213.48 3.69" class="cls-1"/><path d="M925.39 78.32v395.07c0 13.72-10.88 24.94-24.5 25.25-67.84 1.57-125.71 2.74-193.59 3.51v-54.84H291.39v54.83c-68.04-.77-126.09-1.94-194.16-3.5-13.62-.32-24.5-11.54-24.5-25.25V78.32c0-24.73 19.91-44.78 44.47-44.78h763.72c24.56 0 44.47 20.05 44.47 44.78" class="cls-16"/><circle cx="856.78" cy="649.05" r="22.1" class="cls-17"/><circle cx="856.78" cy="750.22" r="22.1" class="cls-17"/><rect width="137.62" height="31.9" x="787.74" y="547.73" class="cls-4" rx="15.95" ry="15.95"/><path d="M804.14 551.99h46.18v23.09h-46.18c-6.37 0-11.54-5.17-11.54-11.54S797.77 552 804.14 552Z" class="cls-17"/><rect width="25.97" height="25.97" x="203.5" y="55.2" class="cls-5" rx="3.7" ry="3.7"/><rect width="25.97" height="25.97" x="770.38" y="55.2" class="cls-5" rx="3.7" ry="3.7"/><rect width="25.97" height="25.97" x="770.38" y="429.78" class="cls-5" rx="3.7" ry="3.7"/><rect width="25.97" height="25.97" x="203.5" y="429.78" class="cls-5" rx="3.7" ry="3.7"/><path d="M910.3 575.07h-46.18v-23.09h46.18c6.37 0 11.54 5.17 11.54 11.54s-5.17 11.54-11.54 11.54Z" class="cls-17"/><path d="M96.07 546.59h91.14v35.54H96.07z" class="cls-4"/><path d="M723.59 533.7v355.14c0 3.05-1.48 5.76-3.76 7.44a9.24 9.24 0 0 1-5.51 1.82H285.66c-5.11 0-9.26-4.15-9.26-9.26V533.7c0-5.12 4.15-9.27 9.26-9.27h428.66c1.41 0 2.74.31 3.94.88a9.27 9.27 0 0 1 5.33 8.39" style="fill:#b0b0b0"/><path d="M109.96 552.75h62.2v22.78h-62.2z" class="cls-17"/><path d="M723.59 533.7v355.14c0 3.05-1.48 5.76-3.76 7.44h-.01l-23.02-64.01-23.45-34.2.1-1.07 19.76-213.22 4.47-48.22 20.57-10.25h.01a9.27 9.27 0 0 1 5.33 8.39" style="fill:#808284"/><path d="M723.59 533.7v355.14c0 3.05-1.48 5.76-3.76 7.44h-.01l-23.02-64.01-23.45-34.2.1-1.07 19.76-213.22 4.47-48.22 20.57-10.25h.01a9.27 9.27 0 0 1 5.33 8.39m-447.21 0v355.14c0 3.05 1.48 5.76 3.76 7.44h.01l23.02-64.01 23.45-34.2-.1-1.07-19.76-213.22-4.47-48.22-20.57-10.25h-.01a9.27 9.27 0 0 0-5.33 8.39" class="cls-5"/><rect width="397.97" height="300.46" x="301.01" y="533.23" class="cls-7" rx="6.08" ry="6.08"/><path d="M306.78 537.25h386.43V797H306.78z" class="cls-15"/><path d="M294.14 108.04h409.82v306.85H294.14z" class="cls-7"/><rect width="454.25" height="351.19" x="271.93" y="82.91" rx="10.73" ry="10.73" style="fill:#303336"/><path d="M294.14 108.04h409.82v306.85H294.14z" class="cls-7"/><path d="M304.32 115.56h389.47v290.51H304.32z" class="cls-15"/><path d="M217.47 700.23c0 8.72-1.46 17.1-4.16 24.91h-46.58v47.06c-8.02 2.87-16.66 4.43-25.67 4.43s-18.41-1.7-26.73-4.81v-46.68H68.81a76.4 76.4 0 0 1-4.15-24.91c0-9.69 1.8-18.97 5.1-27.5h44.57v-44.1c8.32-3.11 17.33-4.81 26.73-4.81s17.65 1.56 25.67 4.43v44.48h45.64c3.3 8.53 5.1 17.81 5.1 27.5" class="cls-4"/><path d="M213.83 700.23c0 7.62-1.28 14.94-3.63 21.76h-46.7v47.12c-7.01 2.51-14.56 3.87-22.43 3.87s-16.08-1.49-23.35-4.2V722H71.95a66.7 66.7 0 0 1-3.63-21.76c0-8.47 1.57-16.57 4.46-24.03h44.94v-44.53c7.27-2.72 15.14-4.2 23.35-4.2s15.42 1.36 22.43 3.87v44.86h45.88a66.5 66.5 0 0 1 4.46 24.03Z" style="fill:#2a2a2b"/><circle cx="760.93" cy="312.42" r="3.04" class="cls-2"/><circle cx="760.93" cy="342.3" r="3.04" class="cls-2"/><circle cx="760.93" cy="372.17" r="3.04" class="cls-2"/><circle cx="760.93" cy="402.04" r="3.04" class="cls-2"/><circle cx="783.37" cy="312.42" r="3.04" class="cls-2"/><circle cx="783.37" cy="342.3" r="3.04" class="cls-2"/><circle cx="783.37" cy="372.17" r="3.04" class="cls-2"/><circle cx="783.37" cy="402.04" r="3.04" class="cls-2"/><circle cx="804.79" cy="312.42" r="3.04" class="cls-2"/><circle cx="804.79" cy="342.3" r="3.04" class="cls-2"/><circle cx="804.79" cy="372.17" r="3.04" class="cls-2"/><circle cx="804.79" cy="402.04" r="3.04" class="cls-2"/><circle cx="826.02" cy="312.42" r="3.04" class="cls-2"/><circle cx="826.02" cy="342.3" r="3.04" class="cls-2"/><circle cx="826.02" cy="372.17" r="3.04" class="cls-2"/><circle cx="826.02" cy="402.04" r="3.04" class="cls-2"/><circle cx="847.28" cy="312.42" r="3.04" class="cls-2"/><circle cx="847.28" cy="342.3" r="3.04" class="cls-2"/><circle cx="847.28" cy="372.17" r="3.04" class="cls-2"/><circle cx="847.28" cy="402.04" r="3.04" class="cls-2"/><circle cx="869.15" cy="312.42" r="3.04" class="cls-2"/><circle cx="869.15" cy="342.3" r="3.04" class="cls-2"/><circle cx="869.15" cy="372.17" r="3.04" class="cls-2"/><circle cx="869.15" cy="402.04" r="3.04" class="cls-2"/><circle cx="889.96" cy="312.42" r="3.04" class="cls-2"/><circle cx="889.96" cy="342.3" r="3.04" class="cls-2"/><circle cx="889.96" cy="372.17" r="3.04" class="cls-2"/><circle cx="889.96" cy="402.04" r="3.04" class="cls-2"/><circle cx="109.16" cy="312.42" r="3.04" class="cls-2"/><circle cx="109.16" cy="342.3" r="3.04" class="cls-2"/><circle cx="109.16" cy="372.17" r="3.04" class="cls-2"/><circle cx="109.16" cy="402.04" r="3.04" class="cls-2"/><circle cx="131.6" cy="312.42" r="3.04" class="cls-2"/><circle cx="131.6" cy="342.3" r="3.04" class="cls-2"/><circle cx="131.6" cy="372.17" r="3.04" class="cls-2"/><circle cx="131.6" cy="402.04" r="3.04" class="cls-2"/><circle cx="153.02" cy="312.42" r="3.04" class="cls-2"/><circle cx="153.02" cy="342.3" r="3.04" class="cls-2"/><circle cx="153.02" cy="372.17" r="3.04" class="cls-2"/><circle cx="153.02" cy="402.04" r="3.04" class="cls-2"/><circle cx="174.25" cy="312.42" r="3.04" class="cls-2"/><circle cx="174.25" cy="342.3" r="3.04" class="cls-2"/><circle cx="174.25" cy="372.17" r="3.04" class="cls-2"/><circle cx="174.25" cy="402.04" r="3.04" class="cls-2"/><circle cx="195.51" cy="312.42" r="3.04" class="cls-2"/><circle cx="195.51" cy="342.3" r="3.04" class="cls-2"/><circle cx="195.51" cy="372.17" r="3.04" class="cls-2"/><circle cx="195.51" cy="402.04" r="3.04" class="cls-2"/><circle cx="217.39" cy="312.42" r="3.04" class="cls-2"/><circle cx="217.39" cy="342.3" r="3.04" class="cls-2"/><circle cx="217.39" cy="372.17" r="3.04" class="cls-2"/><circle cx="217.39" cy="402.04" r="3.04" class="cls-2"/><circle cx="238.2" cy="312.42" r="3.04" class="cls-2"/><circle cx="238.2" cy="342.3" r="3.04" class="cls-2"/><circle cx="238.2" cy="372.17" r="3.04" class="cls-2"/><circle cx="238.2" cy="402.04" r="3.04" class="cls-2"/><path d="M291.78 447.65h415.14v65.88H291.78z" style="fill:#727373"/><path d="M642.91 442.77h33.11v69.4h-33.11zm-349.29 6.29h28.1v65.13h-28.1zm384.45 0h26.85v66h-26.85zm-354.45-4.38H500v67.49H323.62zm178.86 4.38h138.23v66H502.48z" class="cls-16"/><path d="M293.62 502.16h28.1v11.34h-28.1zm384.45.08h26.85v11.32h-26.85zm-35.16 0h33.11v9.93h-33.11zm-319.29-.08H500v10.01H323.62zm178.86 0h138.23v11.4H502.48z" class="cls-1"/></svg>