<svg xmlns="http://www.w3.org/2000/svg" id="Layer_1" data-name="Layer 1" viewBox="0 0 1000 1000"><defs><style>.cls-1{fill:#f4f4f5}.cls-3{fill:#262626}.cls-4{fill:#cfcfce}.cls-5{fill:#101010}.cls-7{fill:#565656}.cls-11{fill:#e8e8e8}.cls-13{fill:#f0efef}</style></defs><path d="M43.13 532.36h913.75v412.4c0 18.94-15.38 34.32-34.32 34.32H77.45c-18.94 0-34.32-15.38-34.32-34.32zM77.29 28.92h845.42c18.85 0 34.16 15.31 34.16 34.16V471.4H43.13V63.08c0-18.85 15.31-34.16 34.16-34.16" class="cls-1"/><path d="M151.4 415.4h696.71v62.58H151.4z" class="cls-1"/><path d="M268.28 76.11h464.7c3.16 0 5.73 2.57 5.73 5.73v356.02c0 3.16-2.57 5.73-5.73 5.73h-464.7c-3.16 0-5.73-2.57-5.73-5.73V81.83c0-3.16 2.57-5.73 5.73-5.73Z" class="cls-13"/><path d="M732.98 77.11c2.61 0 4.73 2.12 4.73 4.73v356.02c0 2.61-2.12 4.73-4.73 4.73h-464.7c-2.61 0-4.73-2.12-4.73-4.73V81.83c0-2.61 2.12-4.73 4.73-4.73h464.7m0-1.99h-464.7c-3.71 0-6.73 3.02-6.73 6.73v356.02c0 3.71 3.02 6.73 6.73 6.73h464.7c3.71 0 6.73-3.02 6.73-6.73V81.83c0-3.71-3.02-6.73-6.73-6.73Z" class="cls-4"/><path d="M289.87 99.19h421.52c2.46 0 4.46 2 4.46 4.46V415.8c0 2.46-2 4.47-4.47 4.47H289.86c-2.46 0-4.47-2-4.47-4.47V103.65c0-2.46 2-4.47 4.47-4.47Z" class="cls-3"/><path d="M711.39 99.43a4.22 4.22 0 0 1 4.22 4.22V415.8a4.22 4.22 0 0 1-4.22 4.22H289.87a4.22 4.22 0 0 1-4.22-4.22V103.65a4.22 4.22 0 0 1 4.22-4.22zm0-.5H289.87c-2.6 0-4.72 2.12-4.72 4.72V415.8c0 2.6 2.12 4.72 4.72 4.72h421.52c2.6 0 4.72-2.12 4.72-4.72V103.65c0-2.6-2.12-4.72-4.72-4.72" class="cls-5"/><path d="M268.28 554.79h464.7c3.16 0 5.73 2.57 5.73 5.73v356.02c0 3.16-2.57 5.73-5.73 5.73h-464.7c-3.16 0-5.73-2.57-5.73-5.73V560.52c0-3.16 2.57-5.73 5.73-5.73" class="cls-13"/><path d="M732.98 555.79c2.61 0 4.73 2.12 4.73 4.73v356.02c0 2.61-2.12 4.73-4.73 4.73h-464.7c-2.61 0-4.73-2.12-4.73-4.73V560.52c0-2.61 2.12-4.73 4.73-4.73zm0-2h-464.7c-3.71 0-6.73 3.02-6.73 6.73v356.02c0 3.71 3.02 6.73 6.73 6.73h464.7c3.71 0 6.73-3.02 6.73-6.73V560.52c0-3.71-3.02-6.73-6.73-6.73" class="cls-4"/><path d="M289.87 577.87h421.52c2.46 0 4.47 2 4.47 4.47v312.15c0 2.46-2 4.47-4.47 4.47H289.87c-2.46 0-4.47-2-4.47-4.47V582.34c0-2.46 2-4.47 4.47-4.47" class="cls-3"/><path d="M711.39 578.12a4.22 4.22 0 0 1 4.22 4.22v312.15a4.22 4.22 0 0 1-4.22 4.22H289.87a4.22 4.22 0 0 1-4.22-4.22V582.34a4.22 4.22 0 0 1 4.22-4.22zm0-.5H289.87c-2.6 0-4.72 2.12-4.72 4.72v312.15c0 2.6 2.12 4.72 4.72 4.72h421.52c2.6 0 4.72-2.12 4.72-4.72V582.34c0-2.6-2.12-4.72-4.72-4.72" class="cls-5"/><circle cx="814.64" cy="251.26" r="4.86"/><circle cx="849.42" cy="251.26" r="4.86"/><circle cx="884.21" cy="251.26" r="4.86"/><circle cx="814.64" cy="285.89" r="4.86"/><circle cx="849.42" cy="285.89" r="4.86"/><circle cx="884.21" cy="285.89" r="4.86"/><circle cx="116.62" cy="251.26" r="4.86"/><circle cx="151.4" cy="251.26" r="4.86"/><circle cx="186.19" cy="251.26" r="4.86"/><path d="M137.3 474.34h751.76v58.02H137.3z" style="fill:#707071"/><circle cx="116.62" cy="285.89" r="4.86"/><circle cx="151.4" cy="285.89" r="4.86"/><path d="M151.64 474.34h696.71v58.02H151.64z" class="cls-11"/><path d="M852.06 474.34h75.8c16.01 0 29.01 13 29.01 29.01s-13 29.01-29.01 29.01h-75.8zm-704.13 58.02h-75.8c-16.01 0-29.01-13-29.01-29.01s13-29.01 29.01-29.01h75.8z" style="fill:#dcdbdb"/><circle cx="186.19" cy="285.89" r="4.86"/><rect width="8.66" height="25.86" x="496.49" y="488.18" rx="4.33" ry="4.33"/><rect width="7.58" height="43.06" x="892.26" y="481.06" rx="3.79" ry="3.79" style="fill:#5b5d5e"/><rect width="7.58" height="43.06" x="908.66" y="481.06" rx="3.79" ry="3.79" style="fill:#73bf44"/><path d="M785.32 862.79c-7.23 0-13.12-5.88-13.12-13.12s5.88-13.12 13.12-13.12 13.12 5.88 13.12 13.12-5.88 13.12-13.12 13.12" class="cls-13"/><path d="M785.32 837.26c6.86 0 12.42 5.56 12.42 12.42s-5.56 12.42-12.42 12.42-12.42-5.56-12.42-12.42 5.56-12.42 12.42-12.42m0-1.4c-7.62 0-13.82 6.2-13.82 13.82s6.2 13.82 13.82 13.82 13.82-6.2 13.82-13.82-6.2-13.82-13.82-13.82" class="cls-7"/><path d="M785.32 915.88c-7.23 0-13.12-5.88-13.12-13.12s5.88-13.12 13.12-13.12 13.12 5.88 13.12 13.12-5.88 13.12-13.12 13.12" class="cls-13"/><path d="M785.32 890.35c6.86 0 12.42 5.56 12.42 12.42s-5.56 12.42-12.42 12.42-12.42-5.56-12.42-12.42 5.56-12.42 12.42-12.42m0-1.4c-7.62 0-13.82 6.2-13.82 13.82s6.2 13.82 13.82 13.82 13.82-6.2 13.82-13.82-6.2-13.82-13.82-13.82" class="cls-7"/><path d="M129.86 761.99c-2.83 0-5.12-2.3-5.12-5.12v-35.96H88.77a5.13 5.13 0 0 1-5.12-5.12v-32.66c0-2.83 2.3-5.12 5.12-5.12h35.97v-35.97c0-2.83 2.3-5.12 5.12-5.12h32.66c2.83 0 5.12 2.3 5.12 5.12v35.97h35.96c2.83 0 5.12 2.3 5.12 5.12v32.66c0 2.83-2.3 5.12-5.12 5.12h-35.96v35.96c0 2.83-2.3 5.12-5.12 5.12z" class="cls-13"/><path d="M162.52 638.16c2.14 0 3.87 1.73 3.87 3.87v37.22h37.22c2.14 0 3.87 1.73 3.87 3.87v32.66c0 2.14-1.73 3.87-3.87 3.87h-37.22v37.22c0 2.14-1.73 3.87-3.87 3.87h-32.66c-2.14 0-3.87-1.73-3.87-3.87v-37.22H88.77c-2.14 0-3.87-1.73-3.87-3.87v-32.66c0-2.14 1.73-3.87 3.87-3.87h37.22v-37.22c0-2.14 1.73-3.87 3.87-3.87zm0-2.5h-32.66a6.38 6.38 0 0 0-6.37 6.37v34.72H88.77a6.38 6.38 0 0 0-6.37 6.37v32.66a6.38 6.38 0 0 0 6.37 6.37h34.72v34.72a6.38 6.38 0 0 0 6.37 6.37h32.66a6.38 6.38 0 0 0 6.37-6.37v-34.72h34.72a6.38 6.38 0 0 0 6.37-6.37v-32.66a6.38 6.38 0 0 0-6.37-6.37h-34.72v-34.72a6.38 6.38 0 0 0-6.37-6.37" style="fill:#727373"/><rect width="25.18" height="24.04" x="155.15" y="434.68" class="cls-11" rx="5.3" ry="5.3"/><rect width="25.18" height="24.04" x="819.5" y="434.68" class="cls-11" rx="5.3" ry="5.3"/><rect width="25.18" height="24.04" x="819.5" y="68.6" class="cls-11" rx="5.3" ry="5.3"/><rect width="25.18" height="24.04" x="156.26" y="68.6" class="cls-11" rx="5.3" ry="5.3"/><path d="M849.79 652.53c-14.46 0-26.22-11.76-26.22-26.22s11.76-26.22 26.22-26.22 26.22 11.76 26.22 26.22-11.76 26.22-26.22 26.22" class="cls-13"/><path d="M849.78 600.33c14.35 0 25.97 11.63 25.97 25.97s-11.63 25.97-25.97 25.97-25.97-11.63-25.97-25.97 11.63-25.97 25.97-25.97m0-.5c-14.6 0-26.47 11.88-26.47 26.47s11.88 26.47 26.47 26.47 26.47-11.88 26.47-26.47-11.88-26.47-26.47-26.47" class="cls-7"/><path d="M849.79 757.34c-14.46 0-26.22-11.76-26.22-26.22s11.76-26.22 26.22-26.22 26.22 11.76 26.22 26.22-11.76 26.22-26.22 26.22" class="cls-13"/><path d="M849.78 705.14c14.35 0 25.97 11.63 25.97 25.97s-11.63 25.97-25.97 25.97-25.97-11.63-25.97-25.97 11.63-25.97 25.97-25.97m0-.5c-14.6 0-26.47 11.88-26.47 26.47s11.88 26.47 26.47 26.47 26.47-11.88 26.47-26.47-11.88-26.47-26.47-26.47" class="cls-7"/><path d="M797.38 704.94c-14.46 0-26.22-11.76-26.22-26.23s11.76-26.22 26.22-26.22 26.22 11.76 26.22 26.22-11.76 26.23-26.22 26.23" class="cls-13"/><path d="M797.38 652.74c14.35 0 25.97 11.63 25.97 25.97s-11.63 25.97-25.97 25.97-25.97-11.63-25.97-25.97 11.63-25.97 25.97-25.97m0-.5c-14.6 0-26.47 11.88-26.47 26.47s11.88 26.47 26.47 26.47 26.47-11.88 26.47-26.47-11.88-26.47-26.47-26.47" class="cls-7"/><path d="M902.19 704.94c-14.46 0-26.22-11.76-26.22-26.23s11.76-26.22 26.22-26.22 26.23 11.76 26.23 26.22-11.76 26.23-26.23 26.23" class="cls-13"/><path d="M902.19 652.74c14.35 0 25.97 11.63 25.97 25.97s-11.63 25.97-25.97 25.97-25.97-11.63-25.97-25.97 11.63-25.97 25.97-25.97m0-.5c-14.6 0-26.47 11.88-26.47 26.47s11.88 26.47 26.47 26.47 26.47-11.88 26.47-26.47-11.88-26.47-26.47-26.47" class="cls-7"/><path d="M144.3 650.54h3.34v23.39h-3.34zm0 74.43h3.34v23.39h-3.34zm-47.24-27.19h23.39v3.34H97.06zm74.43 0h23.39v3.34h-23.39z" style="fill:#bababa"/></svg>