<svg xmlns="http://www.w3.org/2000/svg" id="Layer_1" data-name="Layer 1" viewBox="0 0 1000 1000"><defs><style>.cls-1{fill:#181818}.cls-2{fill:#cccccb}.cls-3{fill:#e71d2f}.cls-4{fill:#232323}.cls-6{fill:#2d2d31}.cls-9{fill:#596b93}.cls-10{fill:#7482a8}.cls-16{fill:#646d82}</style></defs><path d="M968.6 225.39v441.93c0 43.39-35.17 78.57-78.56 78.57-260.48 25.27-520.5 25.36-780.08 0-43.39 0-78.57-35.18-78.57-78.57V225.24c0-10.14 7.84-18.57 17.96-19.27 147.81-10.23 754.68-9.07 901.16.14 10.17.63 18.08 9.08 18.08 19.28Z" style="fill:#808daf"/><path d="M968.6 225.39v419.43c-9.52 3.51-19.81 5.42-30.55 5.42-293.2 28.46-585.91 28.55-878.1 0-9.99 0-19.6-1.66-28.55-4.71V225.24c0-10.14 7.84-18.57 17.96-19.27 147.81-10.23 754.68-9.07 901.16.14 10.17.63 18.08 9.08 18.08 19.28" class="cls-10"/><path d="M714.62 647.03a3741 3741 0 0 1-438.92 0c-3.16 0-5.71-2.56-5.71-5.71V226.63c0-3.16 2.56-5.71 5.71-5.71h438.92c3.16 0 5.71 2.56 5.71 5.71v414.69c0 3.16-2.56 5.71-5.71 5.71" style="fill:#151515"/><rect width="380.5" height="354.49" x="304.9" y="256.68" rx="4.79" ry="4.79" style="fill:#7a8486"/><rect width="78.24" height="38.15" x="73.69" y="243.64" class="cls-16" rx="19.07" ry="19.07"/><rect width="60.39" height="19.48" x="82.61" y="252.97" class="cls-6" rx="9.74" ry="9.74"/><circle cx="900.92" cy="261.74" r="22.97" class="cls-16"/><circle cx="900.92" cy="261.74" r="16.24" class="cls-6"/><circle cx="203.55" cy="261.58" r="11.48" class="cls-16"/><circle cx="203.55" cy="261.58" r="6.04" style="fill:#cd3b3a"/><path id="path826" d="M444.37 649.71h-1.1l-5.73-8.24v8.24h-1.13v-9.93h1.38l5.46 7.88v-7.88h1.12z" class="cls-2"/><path id="path833" d="M450.98 649.71h-5.54l-.02-9.93h5.54v1.12h-4.43v3.14h4.14v1.11h-4.14v3.62h4.44v.93Z" class="cls-2"/><path id="path837" d="M456.65 639.49a5.25 5.25 0 1 0 0 10.5 5.25 5.25 0 1 0 0-10.5m.02 1.16a4.11 4.11 0 1 1 0 8.22 4.11 4.11 0 0 1 0-8.22" class="cls-2"/><path id="path837-2" d="M484.79 639.49a5.25 5.25 0 1 0 0 10.5 5.25 5.25 0 1 0 0-10.5m.02 1.16a4.11 4.11 0 1 1 0 8.22 4.11 4.11 0 0 1 0-8.22" class="cls-2"/><g id="g879"><path id="path861" d="M467.78 639.44c-.56 0-1.13.11-1.68.3-2.53.9-3.99 3.57-3.39 6.2s3.08 4.39 5.75 4.08 4.69-2.8 4.69-5.1h-1.25c0 1.74-1.54 3.63-3.59 3.86s-3.93-1.1-4.4-3.12c-.46-2.02.65-4.06 2.59-4.75 1.74-.62 3.63.02 4.66 1.49h1.44a5.29 5.29 0 0 0-4.59-2.97h-.24Z" class="cls-2"/><path id="path871" d="M473.16 644.92h-6.95v1.12h6.09z" class="cls-2"/></g><path id="path833-0" d="M479.34 649.71h-5.54l-.02-9.93h5.54v1.12h-4.43v3.14h4.14v1.11h-4.14v3.62h4.44v.93Z" class="cls-2"/><path id="path837-2-9" d="M513.15 639.43c-2.92 0-5.29 2.37-5.29 5.29s2.37 5.29 5.29 5.29 5.29-2.37 5.29-5.29-2.37-5.29-5.29-5.29m.01 1.16c2.29 0 4.14 1.85 4.14 4.14s-1.85 4.14-4.14 4.14-4.14-1.85-4.14-4.14 1.85-4.14 4.14-4.14" class="cls-2"/><path id="path861-6" d="M524.83 639.38c-.57 0-1.14.11-1.7.31-2.55.91-4.03 3.6-3.42 6.25a5.35 5.35 0 0 0 5.8 4.12c1.87-.21 3.43-1.5 4.2-3.04h-1.44c-.65.93-1.69 1.65-2.91 1.79a4.06 4.06 0 0 1-4.43-3.15c-.47-2.04.66-4.09 2.61-4.78 1.75-.62 3.66.02 4.69 1.51h1.45a5.34 5.34 0 0 0-4.63-2.99h-.24Z" class="cls-2"/><path id="path833-1" d="M546.69 649.73h-5.59l-.02-10.01h5.59v1.13h-4.46v3.17h4.17v1.12h-4.17v3.65h4.47v.94Z" class="cls-2"/><g id="g955"><path id="rect945" d="M531 639.71h1.14v10.01H531z" class="cls-2"/><path id="path947" d="M537.79 649.73h1.5l-5.19-5.39-.94.71 4.62 4.68Z" class="cls-2"/><path id="path949" d="M537.76 639.71h1.48l-7.69 7.97.31-2.07z" class="cls-2"/></g><g id="g965"><path id="rect957" d="M548.45 639.71h8.17v1.13h-8.17z" class="cls-2"/><path id="rect960" d="M551.94 639.71h1.16v10.01h-1.16z" class="cls-2"/></g><path id="path990" d="m496.55 637.42 2.19-6.31 5.81.02.05 2.83-3.84-.03-.78 2.91 3.94 2.85c1.94-.8 3.33-2.53 3.61-4.52a5.09 5.09 0 0 0-2.25-5.02c-1.67-1.11-3.87-1.18-5.75-.24l-6.33 3.14 9.54 19.22-2.48 1.23-10.83-21.82 9.01-4.47c2.95-1.46 6.46-1.11 8.97.91s3.55 5.32 2.65 8.44c-.89 3.12-3.67 5.43-6.62 6.36l-6.89-5.47Z" class="cls-3"/><path id="path1001" d="m503.82 616-1.01 7.51 1.9.37 2.67-7.36z" class="cls-3"/><path id="path1003" d="m511.26 618.36-3.74 6.5 1.65 1.1 4.72-5.73-2.64-1.87Z" class="cls-3"/><path id="path1005" d="m516.26 622.87-5.42 4.84 1.26 1.87 5.98-3.74-1.81-2.97Z" class="cls-3"/><path d="M147.46 258.82h48.05v5.52h-48.05z" class="cls-16"/><circle cx="781.71" cy="542.99" r="5.37" class="cls-9"/><circle cx="842.4" cy="537.62" r="5.37" class="cls-9"/><circle cx="903.08" cy="530.67" r="5.37" class="cls-9"/><circle cx="903.08" cy="588.54" r="5.37" class="cls-9"/><circle cx="903.08" cy="646.41" r="5.37" class="cls-9"/><circle cx="842.4" cy="595.18" r="5.37" class="cls-9"/><circle cx="842.4" cy="651.78" r="5.37" class="cls-9"/><circle cx="781.71" cy="600.55" r="5.37" class="cls-9"/><circle cx="781.71" cy="657.16" r="5.37" class="cls-9"/><circle cx="132.86" cy="573" r="4.55" class="cls-1"/><circle cx="132.86" cy="590.05" r="4.55" class="cls-1"/><circle cx="132.86" cy="607.09" r="4.55" class="cls-1"/><circle cx="132.86" cy="624.14" r="4.55" class="cls-1"/><circle cx="149.9" cy="573" r="4.55" class="cls-1"/><circle cx="149.9" cy="590.05" r="4.55" class="cls-1"/><circle cx="149.9" cy="607.09" r="4.55" class="cls-1"/><circle cx="149.9" cy="624.14" r="4.55" class="cls-1"/><circle cx="167.27" cy="573" r="4.55" class="cls-1"/><circle cx="167.27" cy="590.05" r="4.55" class="cls-1"/><circle cx="167.27" cy="607.09" r="4.55" class="cls-1"/><circle cx="167.27" cy="624.14" r="4.55" class="cls-1"/><circle cx="183.99" cy="573" r="4.55" class="cls-1"/><circle cx="183.99" cy="590.05" r="4.55" class="cls-1"/><circle cx="183.99" cy="607.09" r="4.55" class="cls-1"/><circle cx="183.99" cy="624.14" r="4.55" class="cls-1"/><circle cx="200.87" cy="573" r="4.55" class="cls-1"/><circle cx="200.87" cy="590.05" r="4.55" class="cls-1"/><circle cx="200.87" cy="607.09" r="4.55" class="cls-1"/><ellipse cx="847.16" cy="405.21" rx="103.38" ry="69.47" style="fill:#6d7da0" transform="rotate(-36.89 847.098 405.19)"/><circle cx="200.87" cy="624.14" r="4.55" class="cls-1"/><circle cx="798.73" cy="439.57" r="34.41" class="cls-4"/><circle cx="893.12" cy="374.96" r="34.41" class="cls-4"/><path d="M252.74 406.22c0 .81-.01 1.62-.04 2.44-.61 22.37-9.78 42.6-24.34 57.56-.53.57-1.08 1.11-1.65 1.65-14.95 14.57-35.19 23.74-57.56 24.34-.81.03-1.62.04-2.44.04s-1.61-.01-2.43-.04c-22.37-.61-42.61-9.78-57.56-24.34l-1.65-1.65c-14.57-14.96-23.74-35.19-24.34-57.56-.03-.81-.04-1.62-.04-2.44s.01-1.62.04-2.44c.61-22.37 9.78-42.6 24.34-57.55.53-.57 1.08-1.11 1.65-1.65 14.95-14.57 35.19-23.74 57.56-24.34.81-.03 1.61-.04 2.43-.04s1.62.01 2.44.04c22.37.61 42.61 9.78 57.56 24.34.57.53 1.11 1.08 1.65 1.65 14.57 14.95 23.74 35.18 24.34 57.55.03.81.04 1.62.04 2.44" style="fill:#6b7a9b"/><path d="M169.15 320.25v17.22h-4.86v-17.22c.81-.03 1.61-.04 2.43-.04s1.62.01 2.44.04Zm-4.87 154.73h4.86v17.23h-4.86zm-83.54-71.19h17.22v4.87H80.74zm172 2.43c0 .81-.01 1.62-.04 2.44h-17.22v-4.87h17.22c.03.81.04 1.62.04 2.44Zm-133.82-49.43-1.65 1.64-12.19-12.18c.53-.57 1.08-1.11 1.65-1.65zm109.43 109.43c-.53.57-1.08 1.11-1.65 1.65l-12.19-12.19 1.65-1.65zm0-119.98-12.19 12.18-1.65-1.64 12.19-12.19c.57.53 1.11 1.08 1.65 1.65M105.084 466.213l12.19-12.19 1.648 1.647-12.19 12.19z" style="fill:#3f4556"/><circle cx="166.71" cy="406.22" r="71.65" style="fill:#454d63"/><circle cx="166.71" cy="406.22" r="44.95" class="cls-1"/><circle cx="166.71" cy="406.22" r="30.09" style="fill:none;stroke:#232323;stroke-miterlimit:10;stroke-width:4.27px"/><path d="M435.33 713.21c0 4.93 3.28 8.91 7.35 8.91h20.41c.47 0 .94.47.94 1.09s-.39 1.09-.94 1.09h-27.84v7.9h31.12c4.07 0 7.35-4.07 7.35-8.99s-3.28-8.99-7.35-8.99h-20.33c-.47 0-.94-.47-.94-1.09s.39-1.09.94-1.09h27.6v-7.74h-30.97c-4.07 0-7.35 3.99-7.35 8.91Zm69.36-8.92v17.36l-18.61-17.36h-10.17v27.76h9.77v-17.44l18.61 17.44h10.17v-27.76zm50.36 0H542.3l-15.8 12.2v-12.2h-9.93v27.76h9.93v-12.28l15.8 12.28h12.75l-17.99-13.84z" class="cls-10"/></svg>