<?xml version="1.0" encoding="UTF-8"?>
<svg id="Layer_1" data-name="Layer 1" xmlns="http://www.w3.org/2000/svg" viewBox="0 0 1000 1000">
  <defs>
    <style>
      .cls-1 {
        fill: #181818;
      }

      .cls-2 {
        fill: #cccccb;
      }

      .cls-3 {
        fill: #27282b;
      }

      .cls-4 {
        fill: #3d4049;
      }

      .cls-5 {
        fill: #232323;
      }

      .cls-6 {
        fill: #1d1d1e;
      }

      .cls-7 {
        fill: #474b54;
      }

      .cls-8 {
        fill: #343843;
      }

      .cls-9 {
        fill: #151515;
      }

      .cls-10 {
        fill: #292b30;
      }

      .cls-11 {
        fill: #cd3b3a;
      }

      .cls-12 {
        fill: #7a8486;
      }

      .cls-13 {
        fill: #e71d2f;
        opacity: .65;
      }

      .cls-14 {
        fill: none;
        stroke: #232323;
        stroke-miterlimit: 10;
        stroke-width: 4.27px;
      }

      .cls-15 {
        fill: #424651;
      }
    </style>
  </defs>
  <path class="cls-4" d="M968.6,225.39v441.93c0,43.39-35.17,78.57-78.56,78.57-260.48,25.27-520.5,25.36-780.08,0-43.39,0-78.57-35.18-78.57-78.57V225.24c0-10.14,7.84-18.57,17.96-19.27,147.81-10.23,754.68-9.07,901.16.14,10.17.63,18.08,9.08,18.08,19.28Z"/>
  <path class="cls-15" d="M968.6,225.39v419.43c-9.52,3.51-19.81,5.42-30.55,5.42-293.2,28.46-585.91,28.55-878.1,0-9.99,0-19.6-1.66-28.55-4.71V225.24c0-10.14,7.84-18.57,17.96-19.27,147.81-10.23,754.68-9.07,901.16.14,10.17.63,18.08,9.08,18.08,19.28Z"/>
  <path class="cls-9" d="M714.62,647.03c-146.31,8.59-292.62,8.59-438.92,0-3.16,0-5.71-2.56-5.71-5.71V226.63c0-3.16,2.56-5.71,5.71-5.71h438.92c3.16,0,5.71,2.56,5.71,5.71v414.69c0,3.16-2.56,5.71-5.71,5.71Z"/>
  <rect class="cls-12" x="304.9" y="256.68" width="380.5" height="354.49" rx="4.79" ry="4.79"/>
  <rect class="cls-8" x="73.69" y="243.64" width="78.24" height="38.15" rx="19.07" ry="19.07"/>
  <rect class="cls-6" x="82.61" y="252.97" width="60.39" height="19.48" rx="9.74" ry="9.74"/>
  <circle class="cls-8" cx="900.92" cy="261.74" r="22.97"/>
  <circle class="cls-6" cx="900.92" cy="261.74" r="16.24"/>
  <circle class="cls-8" cx="203.55" cy="261.58" r="11.48"/>
  <circle class="cls-11" cx="203.55" cy="261.58" r="6.04"/>
  <g>
    <path id="path826" class="cls-2" d="M444.37,649.71h-1.1l-5.73-8.24v8.24h-1.13v-9.93h1.38l5.46,7.88v-7.88h1.12v9.93Z"/>
    <path id="path833" class="cls-2" d="M450.98,649.71h-5.54l-.02-9.93h5.54v1.12h-4.43v3.14h4.14v1.11h-4.14v3.62h4.44v.93Z"/>
    <path id="path837" class="cls-2" d="M456.65,639.49c-2.9,0-5.25,2.35-5.25,5.25h0c0,2.9,2.35,5.25,5.25,5.25h0c2.9,0,5.25-2.35,5.25-5.25h0c0-2.9-2.35-5.25-5.25-5.25h0ZM456.67,640.65c2.27,0,4.11,1.84,4.11,4.11h0c0,2.27-1.84,4.11-4.11,4.11-2.27,0-4.11-1.84-4.11-4.11,0-2.27,1.84-4.11,4.11-4.11Z"/>
    <path id="path837-2" class="cls-2" d="M484.79,639.49c-2.9,0-5.25,2.35-5.25,5.25h0c0,2.9,2.35,5.25,5.25,5.25h0c2.9,0,5.25-2.35,5.25-5.25h0c0-2.9-2.35-5.25-5.25-5.25h0ZM484.81,640.65c2.27,0,4.11,1.84,4.11,4.11h0c0,2.27-1.84,4.11-4.11,4.11-2.27,0-4.11-1.84-4.11-4.11,0-2.27,1.84-4.11,4.11-4.11Z"/>
    <g id="g879">
      <path id="path861" class="cls-2" d="M467.78,639.44c-.56,0-1.13.11-1.68.3-2.53.9-3.99,3.57-3.39,6.2s3.08,4.39,5.75,4.08,4.69-2.8,4.69-5.1h-1.25c0,1.74-1.54,3.63-3.59,3.86-2.05.23-3.93-1.1-4.4-3.12-.46-2.02.65-4.06,2.59-4.75,1.74-.62,3.63.02,4.66,1.49h1.44c-.88-1.81-2.68-2.91-4.59-2.97-.08,0-.16,0-.24,0h0Z"/>
      <path id="path871" class="cls-2" d="M473.16,644.92h-6.95v1.12h6.09l.86-1.12Z"/>
    </g>
    <path id="path833-0" class="cls-2" d="M479.34,649.71h-5.54l-.02-9.93h5.54v1.12h-4.43v3.14h4.14v1.11h-4.14v3.62h4.44v.93Z"/>
  </g>
  <g>
    <path id="path837-2-9" class="cls-2" d="M513.15,639.43c-2.92,0-5.29,2.37-5.29,5.29h0c0,2.92,2.37,5.29,5.29,5.29h0c2.92,0,5.29-2.37,5.29-5.29h0c0-2.92-2.37-5.29-5.29-5.29h0ZM513.16,640.59c2.29,0,4.14,1.85,4.14,4.14h0c0,2.29-1.85,4.14-4.14,4.14-2.29,0-4.14-1.85-4.14-4.14,0-2.29,1.85-4.14,4.14-4.14h0Z"/>
    <path id="path861-6" class="cls-2" d="M524.83,639.38h0c-.57,0-1.14.11-1.7.31-2.55.91-4.03,3.6-3.42,6.25.61,2.65,3.11,4.42,5.8,4.12,1.87-.21,3.43-1.5,4.2-3.04h-1.44c-.65.93-1.69,1.65-2.91,1.79-2.06.24-3.97-1.11-4.43-3.15-.47-2.04.66-4.09,2.61-4.78,1.75-.62,3.66.02,4.69,1.51h1.45c-.89-1.82-2.7-2.93-4.63-2.99-.08,0-.16,0-.24,0h0Z"/>
    <path id="path833-1" class="cls-2" d="M546.69,649.73h-5.59l-.02-10.01h5.59v1.13h-4.46v3.17h4.17v1.12h-4.17v3.65h4.47v.94Z"/>
    <g id="g955">
      <path id="rect945" class="cls-2" d="M531,639.71h1.14v10.01h-1.14v-10.01Z"/>
      <path id="path947" class="cls-2" d="M537.79,649.73h1.5l-5.19-5.39-.94.71,4.62,4.68Z"/>
      <path id="path949" class="cls-2" d="M537.76,639.71h1.48l-7.69,7.97.31-2.07,5.9-5.9Z"/>
    </g>
    <g id="g965">
      <path id="rect957" class="cls-2" d="M548.45,639.71h8.17v1.13h-8.17v-1.13Z"/>
      <path id="rect960" class="cls-2" d="M551.94,639.71h1.16v10.01h-1.16v-10.01Z"/>
    </g>
  </g>
  <path id="path990" class="cls-13" d="M496.55,637.42l2.19-6.31,5.81.02.05,2.83-3.84-.03-.78,2.91,3.94,2.85c1.94-.8,3.33-2.53,3.61-4.52.29-1.99-.58-3.92-2.25-5.02-1.67-1.11-3.87-1.18-5.75-.24l-6.33,3.14,9.54,19.22-2.48,1.23-10.83-21.82,9.01-4.47c2.95-1.46,6.46-1.11,8.97.91,2.51,2.02,3.55,5.32,2.65,8.44-.89,3.12-3.67,5.43-6.62,6.36l-6.89-5.47Z"/>
  <path id="path1001" class="cls-13" d="M503.82,616l-1.01,7.51,1.9.37,2.67-7.36-3.56-.52Z"/>
  <path id="path1003" class="cls-13" d="M511.26,618.36l-3.74,6.5,1.65,1.1,4.72-5.73-2.64-1.87Z"/>
  <path id="path1005" class="cls-13" d="M516.26,622.87l-5.42,4.84,1.26,1.87,5.98-3.74-1.81-2.97Z"/>
  <rect class="cls-8" x="147.46" y="258.82" width="48.05" height="5.52"/>
  <circle class="cls-8" cx="781.71" cy="542.99" r="5.37"/>
  <circle class="cls-8" cx="842.4" cy="537.62" r="5.37"/>
  <circle class="cls-8" cx="903.08" cy="530.67" r="5.37"/>
  <circle class="cls-8" cx="903.08" cy="588.54" r="5.37"/>
  <circle class="cls-8" cx="903.08" cy="646.41" r="5.37"/>
  <circle class="cls-8" cx="842.4" cy="595.18" r="5.37"/>
  <circle class="cls-8" cx="842.4" cy="651.78" r="5.37"/>
  <circle class="cls-8" cx="781.71" cy="600.55" r="5.37"/>
  <circle class="cls-8" cx="781.71" cy="657.16" r="5.37"/>
  <circle class="cls-1" cx="132.86" cy="573" r="4.55"/>
  <circle class="cls-1" cx="132.86" cy="590.05" r="4.55"/>
  <circle class="cls-1" cx="132.86" cy="607.09" r="4.55"/>
  <circle class="cls-1" cx="132.86" cy="624.14" r="4.55"/>
  <circle class="cls-1" cx="149.9" cy="573" r="4.55"/>
  <circle class="cls-1" cx="149.9" cy="590.05" r="4.55"/>
  <circle class="cls-1" cx="149.9" cy="607.09" r="4.55"/>
  <circle class="cls-1" cx="149.9" cy="624.14" r="4.55"/>
  <circle class="cls-1" cx="167.27" cy="573" r="4.55"/>
  <circle class="cls-1" cx="167.27" cy="590.05" r="4.55"/>
  <circle class="cls-1" cx="167.27" cy="607.09" r="4.55"/>
  <circle class="cls-1" cx="167.27" cy="624.14" r="4.55"/>
  <circle class="cls-1" cx="183.99" cy="573" r="4.55"/>
  <circle class="cls-1" cx="183.99" cy="590.05" r="4.55"/>
  <circle class="cls-1" cx="183.99" cy="607.09" r="4.55"/>
  <circle class="cls-1" cx="183.99" cy="624.14" r="4.55"/>
  <circle class="cls-1" cx="200.87" cy="573" r="4.55"/>
  <circle class="cls-1" cx="200.87" cy="590.05" r="4.55"/>
  <circle class="cls-1" cx="200.87" cy="607.09" r="4.55"/>
  <circle class="cls-1" cx="200.87" cy="624.14" r="4.55"/>
  <circle class="cls-5" cx="798.73" cy="439.57" r="34.41"/>
  <circle class="cls-5" cx="893.12" cy="374.96" r="34.41"/>
  <path class="cls-8" d="M252.74,406.22c0,.81-.01,1.62-.04,2.44-.61,22.37-9.78,42.6-24.34,57.56-.53.57-1.08,1.11-1.65,1.65-14.95,14.57-35.19,23.74-57.56,24.34-.81.03-1.62.04-2.44.04s-1.61-.01-2.43-.04c-22.37-.61-42.61-9.78-57.56-24.34l-1.65-1.65c-14.57-14.96-23.74-35.19-24.34-57.56-.03-.81-.04-1.62-.04-2.44s.01-1.62.04-2.44c.61-22.37,9.78-42.6,24.34-57.55.53-.57,1.08-1.11,1.65-1.65,14.95-14.57,35.19-23.74,57.56-24.34.81-.03,1.61-.04,2.43-.04s1.62.01,2.44.04c22.37.61,42.61,9.78,57.56,24.34.57.53,1.11,1.08,1.65,1.65,14.57,14.95,23.74,35.18,24.34,57.55.03.81.04,1.62.04,2.44Z"/>
  <g>
    <path class="cls-3" d="M169.15,320.25v17.22h-4.86v-17.22c.81-.03,1.61-.04,2.43-.04s1.62.01,2.44.04Z"/>
    <rect class="cls-3" x="164.28" y="474.98" width="4.86" height="17.23"/>
    <rect class="cls-3" x="80.74" y="403.79" width="17.22" height="4.87"/>
    <path class="cls-3" d="M252.74,406.22c0,.81-.01,1.62-.04,2.44h-17.22v-4.87h17.22c.03.81.04,1.62.04,2.44Z"/>
    <path class="cls-3" d="M118.92,356.79l-1.65,1.64-12.19-12.18c.53-.57,1.08-1.11,1.65-1.65l12.19,12.19Z"/>
    <path class="cls-3" d="M228.35,466.22c-.53.57-1.08,1.11-1.65,1.65l-12.19-12.19,1.65-1.65,12.19,12.19Z"/>
    <path class="cls-3" d="M228.35,346.24l-12.19,12.18-1.65-1.64,12.19-12.19c.57.53,1.11,1.08,1.65,1.65Z"/>
    <rect class="cls-3" x="103.38" y="459.78" width="17.24" height="2.33" transform="translate(-293.13 214.2) rotate(-45)"/>
  </g>
  <circle class="cls-10" cx="166.71" cy="406.22" r="71.65"/>
  <circle class="cls-1" cx="166.71" cy="406.22" r="44.95"/>
  <circle class="cls-14" cx="166.71" cy="406.22" r="30.09"/>
  <path class="cls-7" d="M435.33,713.21c0,4.93,3.28,8.91,7.35,8.91h20.41c.47,0,.94.47.94,1.09s-.39,1.09-.94,1.09h-27.84v7.9h31.12c4.07,0,7.35-4.07,7.35-8.99s-3.28-8.99-7.35-8.99h-20.33c-.47,0-.94-.47-.94-1.09s.39-1.09.94-1.09h27.6v-7.74h-30.97c-4.07,0-7.35,3.99-7.35,8.91h0ZM504.69,704.29v17.36l-18.61-17.36h-10.17v27.76h9.77v-17.44l18.61,17.44h10.17v-27.76h-9.77ZM555.05,704.29h-12.75l-15.8,12.2v-12.2h-9.93v27.76h9.93v-12.28l15.8,12.28h12.75l-17.99-13.84,17.99-13.92Z"/>
  <g>
    <path class="cls-3" d="M84.46,225.61c.83-.15,1.92-.27,3.31-.27,1.69,0,2.94.39,3.73,1.11.72.64,1.17,1.6,1.17,2.79s-.36,2.16-1.04,2.85c-.92.97-2.39,1.46-4.07,1.46-.52,0-.99-.02-1.39-.12v5.34h-1.72v-13.16ZM86.18,232.03c.38.11.86.15,1.43.15,2.09,0,3.35-1.02,3.35-2.84s-1.26-2.62-3.15-2.62c-.76,0-1.32.07-1.63.14v5.18Z"/>
    <path class="cls-3" d="M106.03,231.98c0,4.57-2.78,7.01-6.18,7.01s-5.99-2.74-5.99-6.76,2.61-6.99,6.17-6.99,6,2.79,6,6.74ZM95.68,232.19c0,2.85,1.55,5.4,4.26,5.4s4.27-2.51,4.27-5.54c0-2.65-1.38-5.42-4.25-5.42s-4.28,2.64-4.28,5.55Z"/>
    <path class="cls-3" d="M110.13,238.77l-3.38-13.32h1.82l1.59,6.74c.38,1.67.74,3.32.98,4.6h.05c.22-1.32.63-2.91,1.08-4.62l1.79-6.72h1.78l1.63,6.75c.37,1.6.73,3.16.93,4.57h.04c.27-1.46.64-2.94,1.05-4.6l1.76-6.72h1.77l-3.78,13.32h-1.8l-1.68-6.93c-.42-1.71-.7-3.01-.88-4.36h-.04c-.22,1.34-.53,2.63-1.03,4.35l-1.89,6.93h-1.81Z"/>
    <path class="cls-3" d="M131.23,232.52h-5.16v4.81h5.77v1.43h-7.5v-13.32h7.2v1.43h-5.47v4.22h5.16v1.42Z"/>
    <path class="cls-3" d="M133.73,225.63c.87-.17,2.13-.29,3.31-.29,1.83,0,3.03.35,3.86,1.1.66.58,1.04,1.49,1.04,2.53,0,1.75-1.12,2.91-2.51,3.39v.05c1.02.36,1.63,1.32,1.95,2.7.44,1.86.75,3.13,1.02,3.66h-1.78c-.21-.39-.51-1.52-.88-3.19-.4-1.82-1.12-2.53-2.67-2.58h-1.63v5.77h-1.72v-13.14ZM135.45,231.7h1.76c1.84,0,3.01-1,3.01-2.53,0-1.73-1.25-2.48-3.06-2.48-.83,0-1.41.08-1.7.15v4.86Z"/>
  </g>
  <g>
    <path class="cls-3" d="M819.21,262.27c0,4.57-2.79,7.01-6.18,7.01s-5.99-2.74-5.99-6.76,2.61-6.99,6.17-6.99,6,2.79,6,6.74ZM808.86,262.48c0,2.85,1.55,5.4,4.26,5.4s4.27-2.51,4.27-5.54c0-2.65-1.38-5.42-4.25-5.42s-4.28,2.64-4.28,5.55Z"/>
    <path class="cls-3" d="M821.1,255.9c.83-.15,1.92-.27,3.31-.27,1.69,0,2.94.39,3.73,1.11.72.64,1.17,1.6,1.17,2.79s-.36,2.16-1.04,2.85c-.92.97-2.39,1.46-4.07,1.46-.52,0-.99-.02-1.39-.12v5.34h-1.72v-13.16ZM822.82,262.32c.38.11.86.15,1.43.15,2.09,0,3.35-1.02,3.35-2.84s-1.26-2.62-3.15-2.62c-.76,0-1.32.07-1.63.14v5.18Z"/>
    <path class="cls-3" d="M833.82,257.2h-4.06v-1.45h9.86v1.45h-4.08v11.87h-1.73v-11.87Z"/>
    <path class="cls-3" d="M842.49,255.74v13.32h-1.73v-13.32h1.73Z"/>
    <path class="cls-3" d="M856.54,262.27c0,4.57-2.79,7.01-6.18,7.01s-5.99-2.74-5.99-6.76,2.61-6.99,6.17-6.99,6,2.79,6,6.74ZM846.2,262.48c0,2.85,1.55,5.4,4.26,5.4s4.27-2.51,4.27-5.54c0-2.65-1.38-5.42-4.25-5.42s-4.28,2.64-4.28,5.55Z"/>
    <path class="cls-3" d="M858.43,269.06v-13.32h1.89l4.27,6.73c.97,1.56,1.75,2.96,2.38,4.34l.04-.02c-.16-1.78-.19-3.4-.19-5.46v-5.58h1.62v13.32h-1.75l-4.23-6.75c-.92-1.49-1.81-3.01-2.48-4.46l-.06.02c.1,1.69.13,3.29.13,5.49v5.7h-1.62Z"/>
  </g>
  <path class="cls-3" d="M793.12,381.58l-2.27,6.92h-2.95l7.49-22.01h3.42l7.52,22.01h-3.04l-2.36-6.92h-7.8ZM800.35,379.36l-2.18-6.33c-.48-1.44-.81-2.75-1.13-4.02h-.08c-.32,1.29-.66,2.63-1.09,3.98l-2.17,6.37h6.65Z"/>
  <path class="cls-3" d="M887.15,302.34c1.26-.27,3.22-.47,5.19-.47,2.85,0,4.68.48,6.04,1.6,1.14.86,1.84,2.17,1.84,3.9,0,2.13-1.42,4-3.72,4.82v.09c2.09.5,4.54,2.23,4.54,5.52,0,1.88-.75,3.33-1.88,4.38-1.51,1.42-3.99,2.07-7.6,2.07-1.97,0-3.46-.14-4.41-.24v-21.66ZM889.99,311.35h2.6c2.98,0,4.74-1.58,4.74-3.72,0-2.55-1.93-3.58-4.81-3.58-1.32,0-2.07.1-2.53.2v7.1ZM889.99,321.88c.58.12,1.37.15,2.39.15,2.95,0,5.66-1.08,5.66-4.28,0-2.99-2.59-4.25-5.69-4.25h-2.37v8.39Z"/>
</svg>