<?xml version="1.0" encoding="UTF-8"?>
<svg id="Layer_1" data-name="Layer 1" xmlns="http://www.w3.org/2000/svg" xmlns:xlink="http://www.w3.org/1999/xlink" viewBox="0 0 1000 1000">
  <defs>
    <style>
      .cls-1 {
        fill: #181818;
      }

      .cls-2 {
        fill: #cccccb;
      }

      .cls-3 {
        fill: url(#linear-gradient-2);
      }

      .cls-4 {
        fill: #fff;
      }

      .cls-5 {
        fill: #232323;
      }

      .cls-6 {
        fill: #808daf;
      }

      .cls-7 {
        fill: #e71d2f;
        opacity: .78;
      }

      .cls-8 {
        fill: #2d2d31;
      }

      .cls-9 {
        fill: #454d63;
      }

      .cls-10 {
        fill: #6b7a9b;
      }

      .cls-11 {
        fill: #5e6e8c;
      }

      .cls-12 {
        fill: #596b93;
      }

      .cls-13 {
        fill: #7482a8;
      }

      .cls-14 {
        fill: #151515;
      }

      .cls-15 {
        fill: #cd3b3a;
      }

      .cls-16 {
        fill: #6d7da0;
      }

      .cls-17 {
        fill: #7a8486;
      }

      .cls-18 {
        opacity: .7;
      }

      .cls-19 {
        fill: none;
        stroke: #232323;
        stroke-miterlimit: 10;
        stroke-width: 4.27px;
      }

      .cls-20 {
        fill: #646d82;
      }

      .cls-21 {
        fill: url(#linear-gradient);
      }
    </style>
    <linearGradient id="linear-gradient" x1="38.06" y1="207.05" x2="38.06" y2="678.02" gradientUnits="userSpaceOnUse">
      <stop offset=".36" stop-color="#647393"/>
      <stop offset=".63" stop-color="#637191" stop-opacity=".99"/>
      <stop offset=".72" stop-color="#606e8c" stop-opacity=".94"/>
      <stop offset=".79" stop-color="#5a6782" stop-opacity=".86"/>
      <stop offset=".85" stop-color="#535d75" stop-opacity=".75"/>
      <stop offset=".89" stop-color="#495164" stop-opacity=".6"/>
      <stop offset=".94" stop-color="#3d414f" stop-opacity=".41"/>
      <stop offset=".97" stop-color="#2f2f36" stop-opacity=".2"/>
      <stop offset="1" stop-color="#231f20" stop-opacity="0"/>
    </linearGradient>
    <linearGradient id="linear-gradient-2" x1="961.97" y1="207.05" x2="961.97" y2="678.02" gradientTransform="translate(1923.94) rotate(-180) scale(1 -1)" xlink:href="#linear-gradient"/>
  </defs>
  <path class="cls-6" d="M968.6,225.39v441.93c0,16.18-4.88,31.21-13.26,43.7-14.09,21.03-38.07,34.87-65.29,34.87-260.48,25.27-520.51,25.36-780.09,0-43.38,0-78.56-35.18-78.56-78.57V225.24c0-10.14,7.84-18.57,17.96-19.26,147.81-10.23,754.68-9.08,901.16.14,1.68.11,3.29.42,4.82.93,7.75,2.53,13.26,9.83,13.26,18.34Z"/>
  <path class="cls-13" d="M968.6,225.39v419.43c-4.27,1.58-8.7,2.83-13.26,3.73-5.59,1.11-11.37,1.69-17.29,1.69-293.2,28.46-585.91,28.56-878.1,0-9.99,0-19.6-1.65-28.55-4.71V225.24c0-10.14,7.84-18.57,17.96-19.26,147.81-10.23,754.68-9.08,901.16.14,1.68.11,3.29.42,4.82.93,7.75,2.53,13.26,9.83,13.26,18.34Z"/>
  <path class="cls-14" d="M720.33,226.63v414.69c0,3.15-2.56,5.71-5.71,5.71-51.99,3.05-103.98,5.02-155.97,5.9-42.3.72-84.61.72-126.91,0-52.02-.88-104.04-2.85-156.05-5.9-3.15,0-5.71-2.56-5.71-5.71V226.63c0-3.16,2.56-5.72,5.71-5.72h438.93c3.15,0,5.71,2.56,5.71,5.72Z"/>
  <rect x="295.02" y="256.68" width="400.27" height="372.91" rx="6.93" ry="6.93"/>
  <rect class="cls-17" x="317.45" y="277.57" width="355.41" height="331.11" rx="4.47" ry="4.47"/>
  <path d="M558.65,609.95v42.98c-42.3.72-84.61.72-126.91,0v-42.98h126.91Z"/>
  <rect class="cls-20" x="73.69" y="264.64" width="78.24" height="38.15" rx="19.07" ry="19.07"/>
  <rect class="cls-8" x="82.61" y="273.97" width="60.39" height="19.48" rx="9.74" ry="9.74"/>
  <circle class="cls-20" cx="900.92" cy="261.74" r="22.97"/>
  <circle class="cls-8" cx="900.92" cy="261.74" r="16.24"/>
  <circle class="cls-20" cx="203.55" cy="282.58" r="11.48"/>
  <circle class="cls-15" cx="203.55" cy="282.58" r="6.04"/>
  <g>
    <path id="path826" class="cls-2" d="M444.37,649.71h-1.1l-5.73-8.24v8.24h-1.13v-9.93h1.38l5.46,7.88v-7.88h1.12v9.93Z"/>
    <path id="path833" class="cls-2" d="M450.98,649.71h-5.54l-.02-9.93h5.54v1.12h-4.43v3.14h4.14v1.11h-4.14v3.62h4.44v.93Z"/>
    <path id="path837" class="cls-2" d="M456.65,639.49c-2.9,0-5.25,2.35-5.25,5.25h0c0,2.9,2.35,5.25,5.25,5.25h0c2.9,0,5.25-2.35,5.25-5.25h0c0-2.9-2.35-5.25-5.25-5.25h0ZM456.67,640.65c2.27,0,4.11,1.84,4.11,4.11h0c0,2.27-1.84,4.11-4.11,4.11-2.27,0-4.11-1.84-4.11-4.11,0-2.27,1.84-4.11,4.11-4.11Z"/>
    <path id="path837-2" class="cls-2" d="M484.79,639.49c-2.9,0-5.25,2.35-5.25,5.25h0c0,2.9,2.35,5.25,5.25,5.25h0c2.9,0,5.25-2.35,5.25-5.25h0c0-2.9-2.35-5.25-5.25-5.25h0ZM484.81,640.65c2.27,0,4.11,1.84,4.11,4.11h0c0,2.27-1.84,4.11-4.11,4.11-2.27,0-4.11-1.84-4.11-4.11,0-2.27,1.84-4.11,4.11-4.11Z"/>
    <g id="g879">
      <path id="path861" class="cls-2" d="M467.78,639.44c-.56,0-1.13.11-1.68.3-2.53.9-3.99,3.57-3.39,6.2s3.08,4.39,5.75,4.08,4.69-2.8,4.69-5.1h-1.25c0,1.74-1.54,3.63-3.59,3.86-2.05.23-3.93-1.1-4.4-3.12-.46-2.02.65-4.06,2.59-4.75,1.74-.62,3.63.02,4.66,1.49h1.44c-.88-1.81-2.68-2.91-4.59-2.97-.08,0-.16,0-.24,0h0Z"/>
      <path id="path871" class="cls-2" d="M473.16,644.92h-6.95v1.12h6.09l.86-1.12Z"/>
    </g>
    <path id="path833-0" class="cls-2" d="M479.34,649.71h-5.54l-.02-9.93h5.54v1.12h-4.43v3.14h4.14v1.11h-4.14v3.62h4.44v.93Z"/>
  </g>
  <g>
    <path id="path837-2-9" class="cls-2" d="M513.15,639.43c-2.92,0-5.29,2.37-5.29,5.29h0c0,2.92,2.37,5.29,5.29,5.29h0c2.92,0,5.29-2.37,5.29-5.29h0c0-2.92-2.37-5.29-5.29-5.29h0ZM513.16,640.59c2.29,0,4.14,1.85,4.14,4.14h0c0,2.29-1.85,4.14-4.14,4.14-2.29,0-4.14-1.85-4.14-4.14,0-2.29,1.85-4.14,4.14-4.14h0Z"/>
    <path id="path861-6" class="cls-2" d="M524.83,639.38h0c-.57,0-1.14.11-1.7.31-2.55.91-4.03,3.6-3.42,6.25.61,2.65,3.11,4.42,5.8,4.12,1.87-.21,3.43-1.5,4.2-3.04h-1.44c-.65.93-1.69,1.65-2.91,1.79-2.06.24-3.97-1.11-4.43-3.15-.47-2.04.66-4.09,2.61-4.78,1.75-.62,3.66.02,4.69,1.51h1.45c-.89-1.82-2.7-2.93-4.63-2.99-.08,0-.16,0-.24,0h0Z"/>
    <path id="path833-1" class="cls-2" d="M546.69,649.73h-5.59l-.02-10.01h5.59v1.13h-4.46v3.17h4.17v1.12h-4.17v3.65h4.47v.94Z"/>
    <g id="g955">
      <path id="rect945" class="cls-2" d="M531,639.71h1.14v10.01h-1.14v-10.01Z"/>
      <path id="path947" class="cls-2" d="M537.79,649.73h1.5l-5.19-5.39-.94.71,4.62,4.68Z"/>
      <path id="path949" class="cls-2" d="M537.76,639.71h1.48l-7.69,7.97.31-2.07,5.9-5.9Z"/>
    </g>
    <g id="g965">
      <path id="rect957" class="cls-2" d="M548.45,639.71h8.17v1.13h-8.17v-1.13Z"/>
      <path id="rect960" class="cls-2" d="M551.94,639.71h1.16v10.01h-1.16v-10.01Z"/>
    </g>
  </g>
  <path id="path990" class="cls-7" d="M496.55,637.42l2.19-6.31,5.81.02.05,2.83-3.84-.03-.78,2.91,3.94,2.85c1.94-.8,3.33-2.53,3.61-4.52.29-1.99-.58-3.92-2.25-5.02-1.67-1.11-3.87-1.18-5.75-.24l-6.33,3.14,9.54,19.22-2.48,1.23-10.83-21.82,9.01-4.47c2.95-1.46,6.46-1.11,8.97.91,2.51,2.02,3.55,5.32,2.65,8.44-.89,3.12-3.67,5.43-6.62,6.36l-6.89-5.47Z"/>
  <path id="path1001" class="cls-7" d="M503.82,616l-1.01,7.51,1.9.37,2.67-7.36-3.56-.52Z"/>
  <path id="path1003" class="cls-7" d="M511.26,618.36l-3.74,6.5,1.65,1.1,4.72-5.73-2.64-1.87Z"/>
  <path id="path1005" class="cls-7" d="M516.26,622.87l-5.42,4.84,1.26,1.87,5.98-3.74-1.81-2.97Z"/>
  <rect class="cls-20" x="147.46" y="279.82" width="48.05" height="5.52"/>
  <circle class="cls-12" cx="781.71" cy="542.99" r="5.37"/>
  <circle class="cls-12" cx="842.4" cy="537.62" r="5.37"/>
  <circle class="cls-12" cx="903.08" cy="530.67" r="5.37"/>
  <circle class="cls-12" cx="903.08" cy="588.54" r="5.37"/>
  <circle class="cls-12" cx="903.08" cy="646.41" r="5.37"/>
  <circle class="cls-12" cx="842.4" cy="595.18" r="5.37"/>
  <circle class="cls-12" cx="842.4" cy="651.78" r="5.37"/>
  <circle class="cls-12" cx="781.71" cy="600.55" r="5.37"/>
  <circle class="cls-12" cx="781.71" cy="657.16" r="5.37"/>
  <circle class="cls-1" cx="132.86" cy="573" r="4.55"/>
  <circle class="cls-1" cx="132.86" cy="590.05" r="4.55"/>
  <circle class="cls-1" cx="132.86" cy="607.09" r="4.55"/>
  <circle class="cls-1" cx="132.86" cy="624.14" r="4.55"/>
  <circle class="cls-1" cx="149.9" cy="573" r="4.55"/>
  <circle class="cls-1" cx="149.9" cy="590.05" r="4.55"/>
  <circle class="cls-1" cx="149.9" cy="607.09" r="4.55"/>
  <circle class="cls-1" cx="149.9" cy="624.14" r="4.55"/>
  <circle class="cls-1" cx="167.27" cy="573" r="4.55"/>
  <circle class="cls-1" cx="167.27" cy="590.05" r="4.55"/>
  <circle class="cls-1" cx="167.27" cy="607.09" r="4.55"/>
  <circle class="cls-1" cx="167.27" cy="624.14" r="4.55"/>
  <circle class="cls-1" cx="183.99" cy="573" r="4.55"/>
  <circle class="cls-1" cx="183.99" cy="590.05" r="4.55"/>
  <circle class="cls-1" cx="183.99" cy="607.09" r="4.55"/>
  <circle class="cls-1" cx="183.99" cy="624.14" r="4.55"/>
  <circle class="cls-1" cx="200.87" cy="573" r="4.55"/>
  <circle class="cls-1" cx="200.87" cy="590.05" r="4.55"/>
  <circle class="cls-1" cx="200.87" cy="607.09" r="4.55"/>
  <ellipse class="cls-16" cx="847.16" cy="405.21" rx="103.38" ry="69.47" transform="translate(-73.63 589.62) rotate(-36.89)"/>
  <circle class="cls-1" cx="200.87" cy="624.14" r="4.55"/>
  <circle class="cls-5" cx="798.73" cy="439.57" r="34.41"/>
  <circle class="cls-5" cx="893.12" cy="374.96" r="34.41"/>
  <path class="cls-10" d="M240.47,421.39c0,.81-.01,1.62-.04,2.44-.61,22.37-9.78,42.6-24.34,57.56-.53.57-1.08,1.11-1.65,1.65-14.95,14.57-35.19,23.74-57.56,24.34-.81.03-1.62.04-2.44.04s-1.61-.01-2.43-.04c-22.37-.61-42.61-9.78-57.56-24.34l-1.65-1.65c-14.57-14.96-23.74-35.19-24.34-57.56-.03-.81-.04-1.62-.04-2.44s.01-1.62.04-2.44c.61-22.37,9.78-42.6,24.34-57.55.53-.57,1.08-1.11,1.65-1.65,14.95-14.57,35.19-23.74,57.56-24.34.81-.03,1.61-.04,2.43-.04s1.62.01,2.44.04c22.37.61,42.61,9.78,57.56,24.34.57.53,1.11,1.08,1.65,1.65,14.57,14.95,23.74,35.18,24.34,57.55.03.81.04,1.62.04,2.44Z"/>
  <g>
    <path class="cls-11" d="M156.88,335.42v17.22h-4.86v-17.22c.81-.03,1.61-.04,2.43-.04s1.62.01,2.44.04Z"/>
    <rect class="cls-11" x="152.01" y="490.15" width="4.86" height="17.23"/>
    <rect class="cls-11" x="68.47" y="418.96" width="17.22" height="4.87"/>
    <path class="cls-11" d="M240.47,421.39c0,.81-.01,1.62-.04,2.44h-17.22v-4.87h17.22c.03.81.04,1.62.04,2.44Z"/>
    <path class="cls-11" d="M106.65,371.96l-1.65,1.64-12.19-12.18c.53-.57,1.08-1.11,1.65-1.65l12.19,12.19Z"/>
    <path class="cls-11" d="M216.08,481.39c-.53.57-1.08,1.11-1.65,1.65l-12.19-12.19,1.65-1.65,12.19,12.19Z"/>
    <path class="cls-11" d="M216.08,361.41l-12.19,12.18-1.65-1.64,12.19-12.19c.57.53,1.11,1.08,1.65,1.65Z"/>
    <rect class="cls-11" x="91.11" y="474.95" width="17.24" height="2.33" transform="translate(-307.45 209.97) rotate(-45)"/>
  </g>
  <circle class="cls-9" cx="154.44" cy="421.39" r="71.65"/>
  <circle class="cls-1" cx="154.44" cy="421.39" r="44.95"/>
  <circle class="cls-19" cx="154.44" cy="421.39" r="30.09"/>
  <path class="cls-13" d="M435.33,713.21c0,4.93,3.28,8.91,7.35,8.91h20.41c.47,0,.94.47.94,1.09s-.39,1.09-.94,1.09h-27.84v7.9h31.12c4.07,0,7.35-4.07,7.35-8.99s-3.28-8.99-7.35-8.99h-20.33c-.47,0-.94-.47-.94-1.09s.39-1.09.94-1.09h27.6v-7.74h-30.97c-4.07,0-7.35,3.99-7.35,8.91h0ZM504.69,704.29v17.36l-18.61-17.36h-10.17v27.76h9.77v-17.44l18.61,17.44h10.17v-27.76h-9.77ZM555.05,704.29h-12.75l-15.8,12.2v-12.2h-9.93v27.76h9.93v-12.28l15.8,12.28h12.75l-17.99-13.84,17.99-13.92Z"/>
  <g>
    <path class="cls-7" d="M584.87,248.76c-4.55,0-5.38-.76-4.1-3.69l2.96-6.77c1.59-3.65,4.92-3.77,7.35-3.77l2.38.3-.55,1.25h-2.47c-2.4,0-2.69.59-3.42,2.26l-2.91,6.66c-.76,1.74-.75,2.21,1.47,2.21h2.47s-.55,1.25-.55,1.25l-2.64.3Z"/>
    <path class="cls-7" d="M614.27,245.03c-.92,2.12-2.26,3.69-6.61,3.69h-.98c-3.41,0-4.59-1.29-3.55-3.69l2.93-6.72c1.04-2.39,3.35-3.68,6.76-3.68h.83c3.41,0,4.58,1.3,3.54,3.69l-2.92,6.71ZM613.94,238.21c.83-1.91.41-2.27-1.23-2.27h-.15c-1.6,0-2.33.36-3.16,2.26l-3.02,6.93c-.83,1.91-.36,2.25,1.2,2.25h.15c1.56,0,2.36-.34,3.19-2.25l3.02-6.93Z"/>
    <path class="cls-7" d="M636.08,248.61h-7.28s6.02-13.86,6.02-13.86h3.33s-5.4,12.45-5.4,12.45h3.95s-.62,1.42-.62,1.42Z"/>
    <path class="cls-7" d="M660.9,245.05c-.91,2.11-2.24,3.68-6.58,3.68h-.98c-3.4,0-4.58-1.29-3.54-3.68l2.91-6.7c1.04-2.39,3.33-3.67,6.72-3.67h.83c3.39,0,4.56,1.29,3.53,3.68l-2.9,6.7ZM660.56,238.24c.82-1.9.4-2.26-1.22-2.26h-.14c-1.59,0-2.32.36-3.15,2.26l-3,6.91c-.83,1.9-.36,2.24,1.2,2.24h.14c1.55,0,2.35-.34,3.17-2.24l2.99-6.91Z"/>
    <path class="cls-7" d="M679.96,248.61l-.66-6.57.33-.76c2.63,0,3.43-.53,4.03-1.9l.41-.95c.67-1.56.42-2.22-1.46-2.22h-1.76s-5.32,12.39-5.32,12.39h-3.35s5.98-13.83,5.98-13.83h5.98c3.38.01,4.63,1.21,3.61,3.58l-.34.78c-.76,1.75-2.5,3.12-4.64,3.25l-.34.04,1.36,6.19h-3.82Z"/>
  </g>
  <g class="cls-18">
    <path class="cls-4" d="M300.81,238.63v-6.07h.49l1.54,3.13c.37.77.78,1.58,1.07,2.32h.02c-.08-1.15-.08-1.76-.08-2.77v-2.68h.46v6.07h-.49l-1.63-3.29c-.34-.68-.65-1.31-.98-2.21h-.02c.08.94.08,1.6.08,2.94v2.56h-.46Z"/>
    <path class="cls-4" d="M308.94,235.61h-2.01v2.67h2.3v.34h-2.79v-6.07h2.64v.34h-2.16v2.37h2.01v.34Z"/>
    <path class="cls-4" d="M314.58,235.59c0,2.26-.95,3.11-2.04,3.11-.98,0-1.93-.84-1.93-3.11s.96-3.11,2.07-3.11c.97,0,1.91.83,1.91,3.11ZM311.11,235.59c0,1.17.29,2.75,1.49,2.75s1.47-1.58,1.47-2.75-.29-2.75-1.48-2.75-1.48,1.57-1.48,2.75Z"/>
    <path class="cls-4" d="M319.86,238.47c-.32.12-.78.21-1.21.21-.54,0-1.14-.12-1.66-.59-.49-.44-.87-1.24-.87-2.39,0-2.46,1.48-3.2,2.64-3.2.42,0,.76.06.99.16l-.16.34c-.19-.08-.45-.15-.88-.15-.91,0-2.09.64-2.09,2.7s1,2.77,2.07,2.77c.38,0,.6-.05.68-.09v-2.3h-1.16v-.33h1.65v2.87Z"/>
    <path class="cls-4" d="M324.31,235.61h-2.01v2.67h2.3v.34h-2.79v-6.07h2.64v.34h-2.16v2.37h2.01v.34Z"/>
    <path class="cls-4" d="M329.94,235.59c0,2.26-.95,3.11-2.04,3.11-.98,0-1.93-.84-1.93-3.11s.96-3.11,2.07-3.11c.97,0,1.91.83,1.91,3.11ZM326.47,235.59c0,1.17.29,2.75,1.49,2.75s1.47-1.58,1.47-2.75-.29-2.75-1.48-2.75-1.48,1.57-1.48,2.75Z"/>
    <path class="cls-4" d="M331.78,232.65c.3-.07.62-.12,1.08-.12.59,0,1.12.15,1.45.43.32.27.51.68.51,1.22,0,.5-.12.81-.35,1.1-.38.49-1.05.74-1.76.74-.18,0-.3,0-.44-.02v2.63h-.49v-5.98ZM332.27,235.66c.11.02.23.03.41.03.91,0,1.64-.46,1.64-1.49,0-.68-.35-1.32-1.49-1.32-.24,0-.42.02-.55.04v2.75Z"/>
    <path class="cls-4" d="M340.29,235.59c0,2.26-.95,3.11-2.04,3.11-.98,0-1.93-.84-1.93-3.11s.96-3.11,2.07-3.11c.97,0,1.91.83,1.91,3.11ZM336.83,235.59c0,1.17.29,2.75,1.49,2.75s1.47-1.58,1.47-2.75-.29-2.75-1.48-2.75-1.48,1.57-1.48,2.75Z"/>
    <path class="cls-4" d="M345.25,238.51c-.25.11-.61.17-1.06.17-1.2,0-2.35-.76-2.35-3.02,0-2.46,1.42-3.15,2.46-3.15.42,0,.73.06.89.14l-.16.34c-.19-.07-.37-.13-.81-.13-.79,0-1.87.67-1.87,2.73s.96,2.75,1.92,2.75c.37,0,.67-.07.85-.15l.14.33Z"/>
    <path class="cls-4" d="M346.93,232.56h.49v2.98h.02c.2-.25.37-.49.53-.7l1.67-2.28h.55l-1.96,2.56,2.03,3.51h-.53l-1.83-3.18-.49.63v2.55h-.49v-6.07Z"/>
    <path class="cls-4" d="M354.35,235.61h-2.01v2.67h2.3v.34h-2.79v-6.07h2.64v.34h-2.16v2.37h2.01v.34Z"/>
    <path class="cls-4" d="M357.23,232.89h-1.42v-.33h3.33v.33h-1.42v5.73h-.49v-5.73Z"/>
    <path class="cls-4" d="M366.36,238.51c-.25.11-.61.17-1.06.17-1.2,0-2.35-.76-2.35-3.02,0-2.46,1.42-3.15,2.46-3.15.42,0,.73.06.89.14l-.16.34c-.19-.07-.37-.13-.81-.13-.79,0-1.87.67-1.87,2.73s.96,2.75,1.92,2.75c.37,0,.67-.07.85-.15l.14.33Z"/>
    <path class="cls-4" d="M371.5,235.59c0,2.26-.95,3.11-2.04,3.11-.98,0-1.93-.84-1.93-3.11s.96-3.11,2.07-3.11c.97,0,1.91.83,1.91,3.11ZM368.03,235.59c0,1.17.29,2.75,1.49,2.75s1.47-1.58,1.47-2.75-.29-2.75-1.48-2.75-1.48,1.57-1.48,2.75Z"/>
    <path class="cls-4" d="M373.34,232.56h.49v5.73h2.26v.33h-2.74v-6.07Z"/>
    <path class="cls-4" d="M380.8,235.59c0,2.26-.95,3.11-2.04,3.11-.98,0-1.93-.84-1.93-3.11s.96-3.11,2.07-3.11c.97,0,1.91.83,1.91,3.11ZM377.33,235.59c0,1.17.29,2.75,1.49,2.75s1.47-1.58,1.47-2.75-.29-2.75-1.48-2.75-1.48,1.57-1.48,2.75Z"/>
    <path class="cls-4" d="M382.64,232.65c.3-.09.68-.12,1.03-.12.71,0,1.17.14,1.51.42.33.28.5.68.5,1.13,0,.85-.5,1.31-1.25,1.59v.02c.59.12.9.58,1.08,1.46.19.93.32,1.3.41,1.47h-.49c-.11-.19-.25-.74-.42-1.53-.19-.88-.58-1.25-1.47-1.25h-.42v2.78h-.49v-5.98ZM383.13,235.54h.43c.94,0,1.61-.53,1.61-1.38s-.42-1.3-1.52-1.3c-.2,0-.38,0-.52.04v2.64Z"/>
    <path class="cls-4" d="M389.64,238.99l2.29-6.5h.46l-2.29,6.5h-.46Z"/>
    <path class="cls-4" d="M397.07,238.51c-.25.11-.61.17-1.06.17-1.2,0-2.35-.76-2.35-3.02,0-2.46,1.42-3.15,2.46-3.15.42,0,.73.06.89.14l-.16.34c-.19-.07-.37-.13-.81-.13-.79,0-1.87.67-1.87,2.73s.96,2.75,1.92,2.75c.37,0,.67-.07.85-.15l.14.33Z"/>
    <path class="cls-4" d="M401.36,236.47c0,1.59-.8,2.23-1.64,2.23-.77,0-1.57-.64-1.57-2.23s.8-2.23,1.65-2.23c.77,0,1.56.64,1.56,2.23ZM398.66,236.47c0,.7.17,1.89,1.11,1.89s1.08-1.19,1.08-1.89-.17-1.89-1.11-1.89-1.08,1.19-1.08,1.89Z"/>
    <path class="cls-4" d="M403.15,232.4h.49v6.23h-.49v-6.23Z"/>
    <path class="cls-4" d="M408.75,236.47c0,1.59-.8,2.23-1.64,2.23-.77,0-1.57-.64-1.57-2.23s.8-2.23,1.65-2.23c.77,0,1.56.64,1.56,2.23ZM406.06,236.47c0,.7.17,1.89,1.11,1.89s1.08-1.19,1.08-1.89-.17-1.89-1.11-1.89-1.08,1.19-1.08,1.89Z"/>
    <path class="cls-4" d="M410.54,235.3c0-.32-.03-.73-.04-1h.46l.02.7h.02c.14-.38.61-.77,1.17-.77h.1v.42h-.09c-.7,0-1.11.55-1.15,1.08-.01.13-.01.24-.01.37v2.52h-.49v-3.32Z"/>
    <path class="cls-4" d="M416.76,232.56v2.71h2.5v-2.71h.49v6.07h-.49v-3.02h-2.5v3.02h-.49v-6.07h.49Z"/>
    <path class="cls-4" d="M422.45,233.2c0,.21-.12.33-.38.33-.2,0-.35-.13-.35-.33s.15-.33.36-.33c.25,0,.37.14.37.33ZM421.84,238.63v-4.32h.49v4.32h-.49Z"/>
    <path class="cls-4" d="M427.28,234.3c-.01.23-.04.58-.04,1.33v2.39c0,1.27-.16,1.66-.46,1.95-.28.29-.76.45-1.24.45-.44,0-.87-.1-1.1-.22l.16-.32c.18.08.55.2.99.2.65,0,1.16-.31,1.16-1.49v-.55h-.02c-.18.38-.59.58-1.07.58-.8,0-1.54-.74-1.54-2.16,0-1.69.96-2.23,1.64-2.23s.88.38,1.02.59h.02l.02-.51h.46ZM426.75,235.74c0-.11,0-.22-.03-.32-.11-.36-.34-.85-.98-.85-.69,0-1.11.74-1.11,1.85,0,1.3.53,1.85,1.12,1.85.32,0,.75-.11.96-.81.05-.16.05-.3.05-.42v-1.31Z"/>
    <path class="cls-4" d="M429.29,232.4h.49v2.38h.02c.11-.15.28-.3.45-.39.19-.1.38-.15.71-.15.5,0,1.2.28,1.2,1.37v3.02h-.49v-2.89c0-.6-.18-1.17-.86-1.17-.5,0-.87.31-1.02.86-.02.11-.02.22-.02.32v2.87h-.49v-6.23Z"/>
    <path class="cls-4" d="M436.74,232.65c.3-.09.68-.12,1.03-.12.71,0,1.17.14,1.51.42.33.28.5.68.5,1.13,0,.85-.5,1.31-1.25,1.59v.02c.59.12.9.58,1.08,1.46.19.93.32,1.3.41,1.47h-.49c-.11-.19-.25-.74-.42-1.53-.19-.88-.58-1.25-1.47-1.25h-.42v2.78h-.49v-5.98ZM437.23,235.54h.43c.94,0,1.61-.53,1.61-1.38s-.42-1.3-1.52-1.3c-.2,0-.38,0-.52.04v2.64Z"/>
    <path class="cls-4" d="M441.9,236.3c0,1.74.76,2.03,1.37,2.03.35,0,.63-.07.81-.17l.11.3c-.26.14-.65.22-1.02.22-1.19,0-1.77-.89-1.77-2.2s.62-2.25,1.61-2.25c1.07,0,1.37,1.05,1.37,1.82v.25h-2.48ZM443.87,235.99c.02-1.06-.53-1.41-.93-1.41-.63,0-.97.72-1.03,1.41h1.95Z"/>
    <path class="cls-4" d="M446.25,238.63v-3.99h-.65v-.33h.65v-.28c0-.55.16-1.04.58-1.37.28-.22.64-.33,1.15-.33.34,0,.78.09,1.04.22v6.09h-.49v-5.84c-.18-.07-.43-.12-.68-.12-.86,0-1.12.63-1.12,1.32v.31h1.03v.33h-1.03v3.99h-.49Z"/>
    <path class="cls-4" d="M451.29,236.3c0,1.74.76,2.03,1.37,2.03.35,0,.63-.07.81-.17l.11.3c-.26.14-.65.22-1.02.22-1.19,0-1.77-.89-1.77-2.2s.62-2.25,1.61-2.25c1.07,0,1.37,1.05,1.37,1.82v.25h-2.48ZM453.26,235.99c.02-1.06-.53-1.41-.93-1.41-.63,0-.97.72-1.03,1.41h1.95Z"/>
    <path class="cls-4" d="M457.92,238.5c-.21.11-.52.18-.88.18-1.06,0-1.81-.77-1.81-2.21,0-1.18.67-2.24,1.93-2.24.26,0,.58.06.75.15l-.16.34c-.11-.05-.35-.14-.67-.14-.97,0-1.34,1.01-1.34,1.92,0,1.15.53,1.84,1.39,1.84.25,0,.46-.04.68-.14l.11.3Z"/>
    <path class="cls-4" d="M460.29,233.16v1.14h1.03v.33h-1.03v2.94c0,.6.25.77.58.77.14,0,.25,0,.33-.03l.06.3c-.12.04-.26.06-.49.06-.29,0-.55-.07-.72-.25-.17-.18-.24-.44-.24-.99v-2.8h-.68v-.33h.68v-.99l.49-.15Z"/>
    <path class="cls-4" d="M463.48,233.2c0,.21-.12.33-.38.33-.2,0-.35-.13-.35-.33s.15-.33.36-.33c.25,0,.37.14.37.33ZM462.87,238.63v-4.32h.49v4.32h-.49Z"/>
    <path class="cls-4" d="M465.44,234.3l.86,2.74c.08.23.18.62.25.95h.03c.06-.31.16-.67.24-.95l.82-2.74h.5l-1.4,4.32h-.41l-1.38-4.32h.49Z"/>
    <path class="cls-4" d="M469.83,236.3c0,1.74.76,2.03,1.37,2.03.35,0,.63-.07.81-.17l.11.3c-.26.14-.65.22-1.02.22-1.19,0-1.77-.89-1.77-2.2s.62-2.25,1.61-2.25c1.07,0,1.37,1.05,1.37,1.82v.25h-2.48ZM471.8,235.99c.02-1.06-.53-1.41-.93-1.41-.63,0-.97.72-1.03,1.41h1.95Z"/>
    <path class="cls-4" d="M476.92,232.89h-1.42v-.33h3.33v.33h-1.42v5.73h-.49v-5.73Z"/>
    <path class="cls-4" d="M480.46,232.56h2.64v.34h-2.16v2.48h2.01v.34h-2.01v2.91h-.49v-6.07Z"/>
    <path class="cls-4" d="M485.68,232.89h-1.42v-.33h3.33v.33h-1.42v5.73h-.49v-5.73Z"/>
    <path class="cls-4" d="M491.7,232.56h.49v5.73h2.26v.33h-2.74v-6.07Z"/>
    <path class="cls-4" d="M496.64,233.2c0,.21-.12.33-.38.33-.2,0-.35-.13-.35-.33s.15-.33.36-.33c.25,0,.37.14.37.33ZM496.03,238.63v-4.32h.49v4.32h-.49Z"/>
    <path class="cls-4" d="M500.95,238.13h-.04c-.16.31-.54.57-1.05.57-.77,0-1.54-.63-1.54-2.21s.81-2.25,1.64-2.25c.33,0,.75.12,1.02.6h.02l.02-.53h.46c-.01.23-.05.58-.05,1.33v4.72h-.49v-2.22ZM500.95,235.93c0-.1,0-.21-.01-.31-.06-.57-.49-1.05-.97-1.05-.86,0-1.14.93-1.14,1.91s.3,1.87,1.12,1.87c.31,0,.73-.14.97-.93.03-.13.03-.29.03-.42v-1.07Z"/>
    <path class="cls-4" d="M506.29,237.54c0,.49.03.82.04,1.09h-.44l-.04-.45h-.02c-.11.16-.51.52-1.11.52-.89,0-1.24-.58-1.24-1.59v-2.8h.49v2.72c0,.75.14,1.34.85,1.34s.94-.52.97-.76c.02-.14.02-.26.02-.4v-2.91h.49v3.23Z"/>
    <path class="cls-4" d="M508.94,233.2c0,.21-.12.33-.38.33-.2,0-.35-.13-.35-.33s.15-.33.36-.33c.25,0,.37.14.37.33ZM508.33,238.63v-4.32h.49v4.32h-.49Z"/>
    <path class="cls-4" d="M513.73,232.4v5.35c0,.22.03.72.04.88h-.42l-.04-.58h-.04c-.16.31-.52.65-1.14.65-.77,0-1.51-.65-1.51-2.21s.79-2.25,1.57-2.25c.35,0,.78.12,1.04.56h.02v-2.4h.49ZM513.24,235.93c0-.1,0-.21-.01-.31-.04-.57-.49-1.05-.98-1.05-.85,0-1.13.93-1.13,1.89s.3,1.89,1.06,1.89c.32,0,.79-.14,1.04-.96.02-.09.02-.2.02-.3v-1.16Z"/>
    <path class="cls-4" d="M521.42,238.51c-.25.11-.61.17-1.06.17-1.2,0-2.35-.76-2.35-3.02,0-2.46,1.42-3.15,2.46-3.15.42,0,.73.06.89.14l-.16.34c-.19-.07-.37-.13-.81-.13-.79,0-1.87.67-1.87,2.73s.96,2.75,1.92,2.75c.37,0,.67-.07.85-.15l.14.33Z"/>
    <path class="cls-4" d="M522.94,235.3c0-.32-.03-.73-.05-1h.46l.02.7h.02c.13-.38.61-.77,1.17-.77h.1v.42h-.09c-.7,0-1.11.55-1.15,1.08-.01.13-.01.24-.01.37v2.52h-.49v-3.32Z"/>
    <path class="cls-4" d="M526.51,234.3l.84,2.63c.12.39.18.7.27,1h.02c.07-.26.19-.64.29-1l.77-2.63h.5l-.75,2.42c-.38,1.26-.77,2.44-1.43,3.16-.33.36-.64.56-.81.64l-.25-.32c.26-.14.54-.36.8-.66.24-.28.43-.64.51-.86.04-.13.06-.17.06-.23,0-.05,0-.11-.02-.16l-1.29-3.98h.5Z"/>
    <path class="cls-4" d="M530.58,238.11c.18.1.47.23.81.23.56,0,.94-.31.94-.78,0-.39-.15-.68-.73-1.01-.6-.34-1.09-.67-1.09-1.22,0-.66.63-1.09,1.32-1.09.41,0,.7.13.88.23l-.21.31c-.2-.13-.42-.21-.7-.21-.52,0-.8.33-.8.67,0,.35.15.55.7.87.52.3,1.14.66,1.14,1.33,0,.85-.71,1.23-1.46,1.23-.36,0-.75-.1-.97-.25l.18-.31Z"/>
    <path class="cls-4" d="M535.2,233.16v1.14h1.03v.33h-1.03v2.94c0,.6.25.77.58.77.14,0,.25,0,.33-.03l.06.3c-.12.04-.26.06-.49.06-.29,0-.55-.07-.72-.25-.17-.18-.24-.44-.24-.99v-2.8h-.68v-.33h.68v-.99l.49-.15Z"/>
    <path class="cls-4" d="M539.74,238.63l-.04-.48h-.03c-.2.33-.55.55-1.02.55-.67,0-1.2-.45-1.2-1.19,0-1.04.98-1.53,2.21-1.54v-.16c0-.74-.15-1.23-.94-1.23-.27,0-.55.08-.77.21l-.14-.3c.18-.13.6-.25,1.01-.25.73,0,1.32.34,1.32,1.38v2.04c0,.31,0,.7.05.97h-.45ZM539.66,236.3c-.42,0-1.71.03-1.71,1.18,0,.65.4.87.76.87.46,0,.82-.3.93-.82.02-.1.02-.2.02-.28v-.95Z"/>
    <path class="cls-4" d="M542.21,232.4h.49v6.23h-.49v-6.23Z"/>
    <path class="cls-4" d="M547.39,232.65c.3-.09.62-.12.96-.12.7,0,1.21.14,1.58.41.55.37,1.05,1.14,1.05,2.47,0,1.49-.44,2.17-.82,2.56-.47.48-1.2.69-1.95.69-.28,0-.59,0-.81-.05v-5.95ZM547.88,238.29c.16.02.29.02.37.02,1.11,0,2.22-.55,2.22-2.85,0-1.7-.7-2.59-2.12-2.59-.16,0-.34.02-.47.04v5.39Z"/>
    <path class="cls-4" d="M553.46,233.2c0,.21-.12.33-.38.33-.2,0-.35-.13-.35-.33s.15-.33.36-.33c.25,0,.37.14.37.33ZM552.84,238.63v-4.32h.49v4.32h-.49Z"/>
    <path class="cls-4" d="M555.18,238.11c.18.1.47.23.81.23.56,0,.94-.31.94-.78,0-.39-.15-.68-.73-1.01-.6-.34-1.09-.67-1.09-1.22,0-.66.63-1.09,1.32-1.09.41,0,.7.13.88.23l-.21.31c-.2-.13-.42-.21-.7-.21-.52,0-.8.33-.8.67,0,.35.15.55.7.87.52.3,1.14.66,1.14,1.33,0,.85-.71,1.23-1.46,1.23-.36,0-.75-.1-.97-.25l.18-.31Z"/>
    <path class="cls-4" d="M559.14,235.64c0-.76-.03-1.1-.05-1.33h.46l.02.58h.02c.34-.53.78-.65,1.15-.65.79,0,1.5.65,1.5,2.21,0,1.65-.82,2.25-1.63,2.25-.55,0-.84-.28-.98-.55h-.02v2.21h-.49v-4.72ZM559.63,237.03c0,.12,0,.23.02.35.2.84.71.97.99.97.85,0,1.11-.9,1.11-1.89s-.28-1.89-1.13-1.89c-.5,0-.94.53-.98,1.04-.01.12-.01.23-.01.34v1.07Z"/>
    <path class="cls-4" d="M564.06,232.4h.49v6.23h-.49v-6.23Z"/>
    <path class="cls-4" d="M568.68,238.63l-.04-.48h-.03c-.2.33-.55.55-1.02.55-.67,0-1.2-.45-1.2-1.19,0-1.04.98-1.53,2.21-1.54v-.16c0-.74-.15-1.23-.94-1.23-.27,0-.55.08-.77.21l-.14-.3c.18-.13.6-.25,1-.25.73,0,1.32.34,1.32,1.38v2.04c0,.31,0,.7.05.97h-.45ZM568.61,236.3c-.42,0-1.71.03-1.71,1.18,0,.65.4.87.76.87.46,0,.82-.3.93-.82.02-.1.02-.2.02-.28v-.95Z"/>
    <path class="cls-4" d="M571.1,234.3l.83,2.63c.12.39.18.7.27,1h.02c.07-.26.19-.64.29-1l.77-2.63h.5l-.75,2.42c-.38,1.26-.77,2.44-1.43,3.16-.33.36-.64.56-.81.64l-.25-.32c.26-.14.54-.36.8-.66.24-.28.43-.64.51-.86.04-.13.06-.17.06-.23,0-.05,0-.11-.02-.16l-1.29-3.98h.5Z"/>
  </g>
  <g class="cls-18">
    <path class="cls-4" d="M300.78,242.67c.29-.09.59-.12.92-.12.67,0,1.16.14,1.51.4.53.37,1.01,1.14,1.01,2.47,0,1.49-.42,2.17-.79,2.56-.45.48-1.15.69-1.87.69-.27,0-.56,0-.78-.05v-5.95ZM301.25,248.32c.15.02.28.02.36.02,1.06,0,2.13-.55,2.13-2.85,0-1.7-.67-2.59-2.03-2.59-.15,0-.32.02-.45.04v5.39Z"/>
    <path class="cls-4" d="M306.59,243.22c0,.21-.12.33-.37.33-.19,0-.34-.13-.34-.33s.14-.33.35-.33c.24,0,.36.14.36.33ZM306.01,248.65v-4.32h.47v4.32h-.47Z"/>
    <path class="cls-4" d="M308.24,248.14c.17.1.45.23.78.23.54,0,.9-.31.9-.78,0-.39-.14-.68-.7-1.01-.57-.34-1.05-.67-1.05-1.22,0-.66.61-1.09,1.27-1.09.39,0,.67.13.84.23l-.21.31c-.19-.13-.4-.21-.67-.21-.5,0-.77.33-.77.67,0,.35.14.55.67.87.5.3,1.09.66,1.09,1.33,0,.85-.68,1.23-1.4,1.23-.35,0-.71-.1-.93-.25l.17-.31Z"/>
    <path class="cls-4" d="M312.04,245.66c0-.76-.03-1.1-.04-1.33h.44l.02.58h.02c.32-.53.75-.65,1.1-.65.76,0,1.44.65,1.44,2.21,0,1.65-.79,2.25-1.56,2.25-.53,0-.8-.28-.94-.55h-.02v2.21h-.47v-4.72ZM312.51,247.06c0,.12,0,.23.02.35.19.84.68.97.95.97.81,0,1.06-.9,1.06-1.89s-.27-1.89-1.08-1.89c-.48,0-.9.53-.94,1.04-.01.12-.01.23-.01.34v1.07Z"/>
    <path class="cls-4" d="M316.74,242.42h.47v6.23h-.47v-6.23Z"/>
    <path class="cls-4" d="M321.18,248.65l-.04-.48h-.03c-.19.33-.53.55-.97.55-.64,0-1.15-.45-1.15-1.19,0-1.04.94-1.53,2.12-1.54v-.16c0-.74-.14-1.23-.9-1.23-.26,0-.53.08-.74.21l-.13-.3c.17-.13.57-.25.96-.25.7,0,1.27.34,1.27,1.38v2.04c0,.31,0,.7.04.97h-.43ZM321.1,246.33c-.4,0-1.63.03-1.63,1.18,0,.65.38.87.72.87.44,0,.79-.3.89-.82.02-.1.02-.2.02-.28v-.95Z"/>
    <path class="cls-4" d="M323.49,244.33l.8,2.63c.12.39.17.7.26,1h.02c.06-.26.18-.64.28-1l.74-2.63h.48l-.71,2.42c-.37,1.26-.74,2.44-1.37,3.16-.31.36-.62.56-.78.64l-.24-.32c.25-.14.52-.36.77-.66.23-.28.41-.64.49-.86.04-.13.05-.17.05-.23,0-.05,0-.11-.02-.16l-1.23-3.98h.48Z"/>
    <path class="cls-4" d="M329.74,248.65v-.23l.52-.63c.8-.97,1.94-2.25,1.94-3.51,0-.76-.36-1.2-1.06-1.2-.55,0-.87.26-1,.34l-.17-.28c.19-.16.62-.41,1.25-.41.94,0,1.45.63,1.45,1.54,0,1.1-.89,2.29-1.8,3.4l-.5.61v.02h2.46v.35h-3.09Z"/>
    <path class="cls-4" d="M334.48,248.36c0-.22.15-.37.38-.37.25,0,.38.15.38.37s-.13.36-.38.36c-.23,0-.38-.14-.38-.36Z"/>
    <path class="cls-4" d="M339.69,243.09c-.12,0-.25.02-.44.05-1.31.29-1.79,1.46-1.95,2.46h.02c.29-.37.69-.62,1.25-.62.87,0,1.47.68,1.47,1.79s-.58,1.95-1.56,1.95c-1.17,0-1.67-1.08-1.67-2.36,0-1.04.27-1.93.76-2.58.4-.54,1.06-.88,1.7-1,.15-.03.3-.04.41-.05v.36ZM339.57,246.86c0-1.12-.49-1.54-1.13-1.54-.42,0-.87.23-1.11.77-.02.05-.05.14-.05.25.01,1.47.56,2.03,1.22,2.03.48,0,1.07-.31,1.07-1.52Z"/>
    <path class="cls-4" d="M344.68,243.22c0,.21-.12.33-.37.33-.19,0-.34-.13-.34-.33s.14-.33.35-.33c.24,0,.36.14.36.33ZM344.09,248.65v-4.32h.47v4.32h-.47Z"/>
    <path class="cls-4" d="M346.54,245.33c0-.53-.03-.69-.04-1h.42l.02.53h.02c.19-.35.6-.6,1.15-.6s1.18.31,1.18,1.4v2.99h-.47v-2.84c0-.61-.13-1.22-.85-1.22-.42,0-.83.31-.94.9-.02.12-.02.24-.02.38v2.78h-.47v-3.32Z"/>
    <path class="cls-4" d="M353.58,248.52c-.21.11-.5.18-.84.18-1.02,0-1.73-.77-1.73-2.21,0-1.18.64-2.24,1.85-2.24.25,0,.55.06.71.15l-.15.34c-.11-.05-.34-.14-.64-.14-.93,0-1.29,1.01-1.29,1.92,0,1.15.51,1.84,1.33,1.84.24,0,.44-.04.65-.14l.11.3Z"/>
    <path class="cls-4" d="M355.09,242.42h.47v2.38h.02c.11-.15.27-.3.43-.39.18-.1.37-.15.68-.15.48,0,1.15.28,1.15,1.37v3.02h-.47v-2.89c0-.6-.17-1.17-.82-1.17-.48,0-.83.31-.97.86-.02.11-.02.22-.02.32v2.87h-.47v-6.23Z"/>
    <path class="cls-4" d="M360.03,246.33c0,1.74.73,2.03,1.31,2.03.34,0,.61-.07.78-.17l.11.3c-.25.14-.63.22-.97.22-1.14,0-1.7-.89-1.7-2.2s.6-2.25,1.55-2.25c1.03,0,1.31,1.05,1.31,1.82v.25h-2.38ZM361.92,246.01c.02-1.06-.51-1.41-.89-1.41-.61,0-.93.72-.98,1.41h1.87Z"/>
    <path class="cls-4" d="M363.86,248.14c.17.1.45.23.78.23.54,0,.9-.31.9-.78,0-.39-.14-.68-.7-1.01-.57-.34-1.05-.67-1.05-1.22,0-.66.61-1.09,1.27-1.09.39,0,.67.13.84.23l-.21.31c-.19-.13-.4-.21-.67-.21-.5,0-.77.33-.77.67,0,.35.14.55.67.87.5.3,1.09.66,1.09,1.33,0,.85-.68,1.23-1.4,1.23-.35,0-.71-.1-.93-.25l.17-.31Z"/>
    <path class="cls-4" d="M370.66,243.19v1.14h.98v.33h-.98v2.94c0,.6.24.77.55.77.13,0,.24,0,.31-.03l.05.3c-.12.04-.25.06-.46.06-.28,0-.53-.07-.69-.25-.16-.18-.23-.44-.23-.99v-2.8h-.65v-.33h.65v-.99l.47-.15Z"/>
    <path class="cls-4" d="M373.31,244.33l.8,2.63c.12.39.17.7.26,1h.02c.06-.26.18-.64.28-1l.74-2.63h.48l-.71,2.42c-.37,1.26-.74,2.44-1.37,3.16-.31.36-.62.56-.78.64l-.24-.32c.25-.14.52-.36.77-.66.23-.28.41-.64.49-.86.04-.13.05-.17.05-.23,0-.05,0-.11-.02-.16l-1.23-3.98h.48Z"/>
    <path class="cls-4" d="M377.41,245.66c0-.76-.03-1.1-.04-1.33h.44l.02.58h.02c.32-.53.75-.65,1.1-.65.76,0,1.44.65,1.44,2.21,0,1.65-.79,2.25-1.56,2.25-.53,0-.8-.28-.94-.55h-.02v2.21h-.47v-4.72ZM377.88,247.06c0,.12,0,.23.02.35.19.84.68.97.95.97.81,0,1.06-.9,1.06-1.89s-.27-1.89-1.08-1.89c-.48,0-.9.53-.94,1.04-.01.12-.01.23-.01.34v1.07Z"/>
    <path class="cls-4" d="M382.33,246.33c0,1.74.73,2.03,1.31,2.03.34,0,.61-.07.78-.17l.11.3c-.25.14-.63.22-.97.22-1.14,0-1.7-.89-1.7-2.2s.6-2.25,1.55-2.25c1.03,0,1.31,1.05,1.31,1.82v.25h-2.38ZM384.22,246.01c.02-1.06-.51-1.41-.89-1.41-.61,0-.93.72-.98,1.41h1.87Z"/>
    <path class="cls-4" d="M388.39,249.01l2.2-6.5h.44l-2.2,6.5h-.44Z"/>
    <path class="cls-4" d="M394.9,242.67c.29-.07.59-.12,1.04-.12.56,0,1.07.15,1.38.43.3.27.49.68.49,1.22,0,.5-.12.81-.34,1.1-.37.49-1.01.74-1.69.74-.17,0-.29,0-.42-.02v2.63h-.46v-5.98ZM395.36,245.68c.11.02.22.03.39.03.88,0,1.57-.46,1.57-1.49,0-.68-.34-1.32-1.43-1.32-.23,0-.4.02-.53.04v2.75Z"/>
    <path class="cls-4" d="M399.98,243.22c0,.21-.12.33-.37.33-.19,0-.34-.13-.34-.33s.14-.33.35-.33c.24,0,.36.14.36.33ZM399.4,248.65v-4.32h.47v4.32h-.47Z"/>
    <path class="cls-4" d="M401.91,244.33l.58,1.03c.14.24.26.49.4.77h.02c.14-.31.29-.55.41-.77l.56-1.03h.51l-1.28,2.13,1.24,2.19h-.51l-.58-1.08c-.13-.23-.24-.46-.4-.79h-.02c-.13.29-.27.53-.41.79l-.58,1.08h-.5l1.29-2.19-1.23-2.13h.5Z"/>
    <path class="cls-4" d="M405.91,246.33c0,1.74.73,2.03,1.31,2.03.34,0,.61-.07.78-.17l.11.3c-.25.14-.63.22-.97.22-1.14,0-1.7-.89-1.7-2.2s.6-2.25,1.55-2.25c1.03,0,1.31,1.05,1.31,1.82v.25h-2.38ZM407.79,246.01c.02-1.06-.51-1.41-.89-1.41-.61,0-.93.72-.98,1.41h1.87Z"/>
    <path class="cls-4" d="M409.94,242.42h.47v6.23h-.47v-6.23Z"/>
    <path class="cls-4" d="M414.91,242.58h2.53v.34h-2.07v2.48h1.93v.34h-1.93v2.91h-.46v-6.07Z"/>
    <path class="cls-4" d="M421.62,246.49c0,1.59-.77,2.23-1.57,2.23-.74,0-1.5-.64-1.5-2.23s.77-2.23,1.58-2.23c.74,0,1.49.64,1.49,2.23ZM419.04,246.49c0,.7.16,1.89,1.06,1.89s1.04-1.19,1.04-1.89-.16-1.89-1.06-1.89-1.04,1.19-1.04,1.89Z"/>
    <path class="cls-4" d="M423.33,245.33c0-.32-.03-.73-.04-1h.44l.02.7h.02c.13-.38.58-.77,1.13-.77h.1v.42h-.09c-.67,0-1.06.55-1.1,1.08-.01.13-.01.24-.01.37v2.52h-.47v-3.32Z"/>
    <path class="cls-4" d="M426.38,245.33c0-.53-.03-.69-.04-1h.42l.02.55h.02c.19-.37.56-.62,1.13-.62.42,0,.85.17,1.06.7h.02c.14-.24.31-.42.5-.53.21-.12.44-.17.71-.17.56,0,1.19.31,1.19,1.45v2.94h-.47v-2.81c0-.61-.12-1.25-.88-1.25-.41,0-.78.31-.91.81-.03.14-.03.29-.03.44v2.81h-.47v-2.92c0-.58-.14-1.14-.87-1.14-.42,0-.83.31-.93.9-.02.14-.02.26-.02.4v2.76h-.47v-3.32Z"/>
    <path class="cls-4" d="M435.27,248.65l-.04-.48h-.03c-.19.33-.53.55-.97.55-.64,0-1.15-.45-1.15-1.19,0-1.04.94-1.53,2.12-1.54v-.16c0-.74-.14-1.23-.9-1.23-.26,0-.53.08-.74.21l-.13-.3c.17-.13.57-.25.96-.25.7,0,1.27.34,1.27,1.38v2.04c0,.31,0,.7.04.97h-.43ZM435.19,246.33c-.4,0-1.63.03-1.63,1.18,0,.65.38.87.72.87.44,0,.79-.3.89-.82.02-.1.02-.2.02-.28v-.95Z"/>
    <path class="cls-4" d="M438.16,243.19v1.14h.98v.33h-.98v2.94c0,.6.24.77.55.77.13,0,.24,0,.31-.03l.05.3c-.12.04-.25.06-.46.06-.28,0-.53-.07-.69-.25-.16-.18-.23-.44-.23-.99v-2.8h-.65v-.33h.65v-.99l.47-.15Z"/>
    <path class="cls-4" d="M444.46,243.25h-.02l-1.16.59-.12-.31,1.41-.74h.35v5.85h-.45v-5.4Z"/>
    <path class="cls-4" d="M450.17,243.09c-.12,0-.25.02-.44.05-1.31.29-1.79,1.46-1.95,2.46h.02c.29-.37.69-.62,1.25-.62.87,0,1.47.68,1.47,1.79s-.58,1.95-1.56,1.95c-1.17,0-1.67-1.08-1.67-2.36,0-1.04.27-1.93.76-2.58.4-.54,1.06-.88,1.7-1,.15-.03.3-.04.41-.05v.36ZM450.05,246.86c0-1.12-.49-1.54-1.13-1.54-.42,0-.87.23-1.11.77-.02.05-.05.14-.05.25.01,1.47.56,2.03,1.22,2.03.48,0,1.07-.31,1.07-1.52Z"/>
    <path class="cls-4" d="M455.14,245.73c0,2.15-.75,3-1.7,3-.82,0-1.57-.85-1.57-3s.75-3,1.7-3c.82,0,1.57.85,1.57,3ZM452.34,245.73c0,1.44.35,2.66,1.17,2.66s1.15-1.22,1.15-2.66-.35-2.66-1.16-2.66-1.16,1.22-1.16,2.66Z"/>
    <path class="cls-4" d="M461.89,248.65l-.79-1.67c-.15-.32-.29-.63-.49-1.05h-.03c-.19.41-.35.76-.5,1.06l-.78,1.66h-.51l1.58-3.09-1.54-2.98h.49l.8,1.58c.14.26.28.53.49.96h.02c.19-.46.31-.71.44-.99l.74-1.55h.5l-1.46,2.91,1.54,3.16h-.5Z"/>
    <path class="cls-4" d="M467.84,243.25h-.02l-1.16.59-.12-.31,1.41-.74h.35v5.85h-.45v-5.4Z"/>
    <path class="cls-4" d="M473.73,243.15h-1.92l-.37,1.87c.1-.03.17-.03.29-.03.42,0,1,.15,1.34.44.37.31.58.73.58,1.33,0,1.18-.87,1.95-1.94,1.95-.39,0-.84-.09-1.12-.27l.17-.31c.18.1.57.24.96.24.73,0,1.45-.5,1.45-1.57s-.66-1.48-1.63-1.48c-.29,0-.45.02-.58.04l.49-2.57h2.27v.35Z"/>
    <path class="cls-4" d="M475.34,248.65v-.23l.52-.63c.8-.97,1.94-2.25,1.94-3.51,0-.76-.36-1.2-1.06-1.2-.55,0-.87.26-1,.34l-.17-.28c.19-.16.62-.41,1.25-.41.94,0,1.45.63,1.45,1.54,0,1.1-.89,2.29-1.8,3.4l-.5.61v.02h2.46v.35h-3.09Z"/>
    <path class="cls-4" d="M482.19,249.01l2.2-6.5h.44l-2.2,6.5h-.44Z"/>
    <path class="cls-4" d="M488.7,242.67c.29-.07.59-.12,1.04-.12.56,0,1.07.15,1.38.43.3.27.49.68.49,1.22,0,.5-.12.81-.34,1.1-.37.49-1.01.74-1.69.74-.17,0-.29,0-.42-.02v2.63h-.46v-5.98ZM489.17,245.68c.11.02.22.03.39.03.88,0,1.57-.46,1.57-1.49,0-.68-.34-1.32-1.43-1.32-.23,0-.4.02-.53.04v2.75Z"/>
    <path class="cls-4" d="M493.78,243.22c0,.21-.12.33-.37.33-.19,0-.34-.13-.34-.33s.14-.33.35-.33c.24,0,.36.14.36.33ZM493.2,248.65v-4.32h.47v4.32h-.47Z"/>
    <path class="cls-4" d="M495.71,244.33l.58,1.03c.14.24.26.49.4.77h.02c.14-.31.29-.55.41-.77l.56-1.03h.51l-1.28,2.13,1.24,2.19h-.51l-.58-1.08c-.13-.23-.24-.46-.4-.79h-.02c-.13.29-.27.53-.41.79l-.58,1.08h-.5l1.29-2.19-1.23-2.13h.5Z"/>
    <path class="cls-4" d="M499.71,246.33c0,1.74.73,2.03,1.31,2.03.33,0,.61-.07.78-.17l.11.3c-.25.14-.63.22-.97.22-1.14,0-1.7-.89-1.7-2.2s.6-2.25,1.55-2.25c1.03,0,1.31,1.05,1.31,1.82v.25h-2.38ZM501.59,246.01c.02-1.06-.51-1.41-.89-1.41-.61,0-.93.72-.98,1.41h1.87Z"/>
    <path class="cls-4" d="M503.75,242.42h.46v6.23h-.46v-6.23Z"/>
    <path class="cls-4" d="M508.71,242.67c.29-.07.59-.12,1.04-.12.56,0,1.07.15,1.38.43.3.27.49.68.49,1.22,0,.5-.12.81-.34,1.1-.37.49-1.01.74-1.69.74-.17,0-.29,0-.42-.02v2.63h-.46v-5.98ZM509.17,245.68c.11.02.22.03.39.03.88,0,1.57-.46,1.57-1.49,0-.68-.33-1.32-1.43-1.32-.23,0-.4.02-.53.04v2.75Z"/>
    <path class="cls-4" d="M513.79,243.22c0,.21-.12.33-.37.33-.19,0-.33-.13-.33-.33s.14-.33.35-.33c.24,0,.36.14.36.33ZM513.21,248.65v-4.32h.46v4.32h-.46Z"/>
    <path class="cls-4" d="M516.27,243.19v1.14h.98v.33h-.98v2.94c0,.6.24.77.55.77.13,0,.24,0,.31-.03l.05.3c-.12.04-.25.06-.47.06-.28,0-.53-.07-.69-.25-.16-.18-.23-.44-.23-.99v-2.8h-.65v-.33h.65v-.99l.46-.15Z"/>
    <path class="cls-4" d="M520.94,248.52c-.21.11-.5.18-.84.18-1.02,0-1.73-.77-1.73-2.21,0-1.18.64-2.24,1.85-2.24.25,0,.55.06.71.15l-.15.34c-.11-.05-.33-.14-.64-.14-.93,0-1.29,1.01-1.29,1.92,0,1.15.51,1.84,1.33,1.84.24,0,.44-.04.65-.14l.11.3Z"/>
    <path class="cls-4" d="M522.45,242.42h.46v2.38h.02c.11-.15.27-.3.43-.39.18-.1.37-.15.68-.15.48,0,1.15.28,1.15,1.37v3.02h-.46v-2.89c0-.6-.17-1.17-.82-1.17-.48,0-.83.31-.97.86-.02.11-.02.22-.02.32v2.87h-.46v-6.23Z"/>
    <path class="cls-4" d="M532.5,245.73c0,2.15-.75,3-1.7,3-.82,0-1.57-.85-1.57-3s.75-3,1.7-3c.82,0,1.57.85,1.57,3ZM529.71,245.73c0,1.44.35,2.66,1.17,2.66s1.15-1.22,1.15-2.66-.35-2.66-1.16-2.66-1.16,1.22-1.16,2.66Z"/>
    <path class="cls-4" d="M534.06,248.36c0-.22.15-.37.38-.37.25,0,.38.15.38.37s-.13.36-.38.36c-.23,0-.38-.14-.38-.36Z"/>
    <path class="cls-4" d="M536.56,248.13c.18.1.54.25,1,.25.76,0,1.31-.49,1.31-1.36s-.56-1.39-1.48-1.39h-.2v-.31h.17c.49,0,1.32-.4,1.32-1.22,0-.69-.41-1.04-1-1.04-.37,0-.67.17-.88.31l-.17-.3c.24-.18.65-.35,1.15-.35.84,0,1.37.55,1.37,1.31,0,.58-.36,1.12-1.07,1.4v.02c.59.12,1.25.56,1.25,1.57s-.69,1.7-1.81,1.7c-.39,0-.88-.11-1.15-.28l.17-.31Z"/>
    <path class="cls-4" d="M546.4,248.65l-.79-1.67c-.15-.32-.29-.63-.49-1.05h-.03c-.2.41-.35.76-.5,1.06l-.78,1.66h-.51l1.58-3.09-1.54-2.98h.49l.8,1.58c.14.26.28.53.49.96h.02c.2-.46.31-.71.44-.99l.74-1.55h.5l-1.46,2.91,1.54,3.16h-.5Z"/>
    <path class="cls-4" d="M553.83,245.73c0,2.15-.75,3-1.7,3-.82,0-1.57-.85-1.57-3s.75-3,1.7-3c.82,0,1.57.85,1.57,3ZM551.04,245.73c0,1.44.35,2.66,1.17,2.66s1.15-1.22,1.15-2.66-.35-2.66-1.16-2.66-1.16,1.22-1.16,2.66Z"/>
    <path class="cls-4" d="M555.38,248.36c0-.22.15-.37.38-.37.25,0,.38.15.38.37s-.13.36-.38.36c-.23,0-.38-.14-.38-.36Z"/>
    <path class="cls-4" d="M557.88,248.13c.18.1.54.25,1,.25.76,0,1.31-.49,1.31-1.36s-.56-1.39-1.48-1.39h-.2v-.31h.17c.49,0,1.32-.4,1.32-1.22,0-.69-.41-1.04-1-1.04-.37,0-.67.17-.88.31l-.17-.3c.24-.18.65-.35,1.15-.35.84,0,1.37.55,1.37,1.31,0,.58-.36,1.12-1.07,1.4v.02c.59.12,1.25.56,1.25,1.57s-.69,1.7-1.81,1.7c-.39,0-.88-.11-1.15-.28l.17-.31Z"/>
    <path class="cls-4" d="M562.62,245.33c0-.53-.03-.69-.04-1h.42l.02.55h.02c.19-.37.56-.62,1.12-.62.42,0,.85.17,1.06.7h.02c.14-.24.31-.42.5-.53.21-.12.44-.17.71-.17.56,0,1.19.31,1.19,1.45v2.94h-.46v-2.81c0-.61-.12-1.25-.88-1.25-.41,0-.78.31-.91.81-.03.14-.03.29-.03.44v2.81h-.46v-2.92c0-.58-.14-1.14-.87-1.14-.42,0-.83.31-.93.9-.02.14-.02.26-.02.4v2.76h-.46v-3.32Z"/>
    <path class="cls-4" d="M569.62,245.33c0-.53-.03-.69-.04-1h.42l.02.55h.02c.19-.37.56-.62,1.12-.62.42,0,.85.17,1.06.7h.02c.14-.24.31-.42.5-.53.21-.12.44-.17.71-.17.56,0,1.19.31,1.19,1.45v2.94h-.46v-2.81c0-.61-.12-1.25-.88-1.25-.41,0-.78.31-.91.81-.03.14-.03.29-.03.44v2.81h-.46v-2.92c0-.58-.14-1.14-.87-1.14-.42,0-.83.31-.93.9-.02.14-.02.26-.02.4v2.76h-.46v-3.32Z"/>
  </g>
  <g>
    <path class="cls-20" d="M82.97,241.3c.83-.15,1.92-.27,3.31-.27,1.69,0,2.94.39,3.73,1.11.72.64,1.17,1.6,1.17,2.79s-.36,2.16-1.04,2.85c-.92.97-2.39,1.46-4.07,1.46-.52,0-.99-.02-1.39-.12v5.34h-1.72v-13.16ZM84.69,247.71c.38.11.86.15,1.43.15,2.09,0,3.35-1.02,3.35-2.84s-1.26-2.62-3.15-2.62c-.76,0-1.32.07-1.63.14v5.18Z"/>
    <path class="cls-20" d="M104.54,247.66c0,4.57-2.78,7.01-6.18,7.01s-5.99-2.74-5.99-6.76,2.61-6.99,6.17-6.99,6,2.79,6,6.74ZM94.19,247.87c0,2.85,1.55,5.4,4.26,5.4s4.27-2.51,4.27-5.54c0-2.65-1.38-5.42-4.25-5.42s-4.28,2.64-4.28,5.55Z"/>
    <path class="cls-20" d="M108.64,254.45l-3.38-13.32h1.82l1.59,6.74c.38,1.67.74,3.32.98,4.6h.05c.22-1.32.63-2.91,1.08-4.62l1.79-6.72h1.78l1.63,6.75c.37,1.6.73,3.16.93,4.57h.04c.27-1.46.64-2.94,1.05-4.6l1.76-6.72h1.77l-3.78,13.32h-1.8l-1.68-6.93c-.42-1.71-.7-3.01-.88-4.36h-.04c-.22,1.34-.53,2.63-1.03,4.35l-1.89,6.93h-1.81Z"/>
    <path class="cls-20" d="M129.74,248.21h-5.16v4.81h5.77v1.43h-7.5v-13.32h7.2v1.43h-5.47v4.22h5.16v1.42Z"/>
    <path class="cls-20" d="M132.24,241.32c.87-.17,2.13-.29,3.31-.29,1.83,0,3.03.35,3.86,1.1.66.58,1.04,1.49,1.04,2.53,0,1.75-1.12,2.91-2.51,3.39v.05c1.02.36,1.63,1.32,1.95,2.7.44,1.86.75,3.13,1.02,3.66h-1.78c-.21-.39-.51-1.52-.88-3.19-.4-1.82-1.12-2.53-2.67-2.58h-1.63v5.77h-1.72v-13.14ZM133.96,247.38h1.76c1.84,0,3.01-1,3.01-2.53,0-1.73-1.25-2.48-3.06-2.48-.83,0-1.41.08-1.7.15v4.86Z"/>
  </g>
  <g>
    <path class="cls-20" d="M819.78,261.3c0,4.57-2.78,7.01-6.18,7.01s-5.99-2.74-5.99-6.76,2.61-6.99,6.17-6.99,6,2.79,6,6.74ZM809.43,261.51c0,2.85,1.55,5.4,4.26,5.4s4.27-2.51,4.27-5.54c0-2.65-1.38-5.42-4.25-5.42s-4.28,2.64-4.28,5.55Z"/>
    <path class="cls-20" d="M821.67,254.94c.83-.15,1.92-.27,3.31-.27,1.69,0,2.94.39,3.73,1.11.72.64,1.17,1.6,1.17,2.79s-.36,2.16-1.04,2.85c-.92.97-2.39,1.46-4.07,1.46-.52,0-.99-.02-1.39-.12v5.34h-1.72v-13.16ZM823.39,261.35c.38.11.86.15,1.43.15,2.09,0,3.35-1.02,3.35-2.84s-1.26-2.62-3.14-2.62c-.76,0-1.32.07-1.63.14v5.18Z"/>
    <path class="cls-20" d="M834.39,256.23h-4.06v-1.45h9.86v1.45h-4.08v11.87h-1.73v-11.87Z"/>
    <path class="cls-20" d="M843.06,254.77v13.32h-1.73v-13.32h1.73Z"/>
    <path class="cls-20" d="M857.11,261.3c0,4.57-2.78,7.01-6.18,7.01s-5.99-2.74-5.99-6.76,2.61-6.99,6.17-6.99,6,2.79,6,6.74ZM846.76,261.51c0,2.85,1.55,5.4,4.26,5.4s4.27-2.51,4.27-5.54c0-2.65-1.38-5.42-4.25-5.42s-4.28,2.64-4.28,5.55Z"/>
    <path class="cls-20" d="M859,268.09v-13.32h1.89l4.27,6.73c.97,1.56,1.75,2.96,2.38,4.34l.04-.02c-.16-1.78-.19-3.4-.19-5.46v-5.58h1.62v13.32h-1.75l-4.23-6.75c-.92-1.49-1.81-3.01-2.48-4.46l-.06.02c.1,1.69.13,3.29.13,5.49v5.7h-1.62Z"/>
  </g>
  <path class="cls-20" d="M753.29,363.41l-2.27,6.92h-2.95l7.49-22.01h3.42l7.52,22.01h-3.04l-2.36-6.92h-7.8ZM760.51,361.19l-2.18-6.33c-.48-1.44-.81-2.75-1.13-4.02h-.08c-.32,1.29-.66,2.63-1.09,3.98l-2.17,6.37h6.65Z"/>
  <path class="cls-20" d="M855.38,287.75c1.26-.27,3.22-.47,5.19-.47,2.85,0,4.68.48,6.04,1.6,1.14.86,1.84,2.17,1.84,3.9,0,2.13-1.42,4-3.72,4.82v.09c2.09.5,4.54,2.23,4.54,5.52,0,1.88-.75,3.33-1.88,4.38-1.51,1.42-3.99,2.07-7.6,2.07-1.97,0-3.46-.14-4.41-.24v-21.66ZM858.22,296.77h2.6c2.98,0,4.74-1.58,4.74-3.72,0-2.55-1.93-3.58-4.81-3.58-1.32,0-2.07.1-2.53.2v7.1ZM858.22,307.29c.58.12,1.37.15,2.39.15,2.95,0,5.66-1.08,5.66-4.28,0-2.99-2.59-4.25-5.69-4.25h-2.37v8.39Z"/>
  <path class="cls-21" d="M31.43,225.39v428.93c0,16.18,4.85,20.19,13.26,23.7V207.05c-7.75,2.53-13.26,9.83-13.26,18.34Z"/>
  <path class="cls-3" d="M968.6,225.39v428.93c0,16.18-4.85,20.19-13.26,23.7V207.05c7.75,2.53,13.26,9.83,13.26,18.34Z"/>
</svg>