<?xml version="1.0" encoding="UTF-8"?>
<svg id="Layer_1" data-name="Layer 1" xmlns="http://www.w3.org/2000/svg" viewBox="0 0 1000 1000">
  <defs>
    <style>
      .cls-1, .cls-2 {
        opacity: .85;
      }

      .cls-3 {
        opacity: .05;
      }

      .cls-3, .cls-2, .cls-4, .cls-5, .cls-6, .cls-7 {
        fill: #fff;
      }

      .cls-8 {
        fill: #333;
      }

      .cls-5 {
        opacity: .08;
      }

      .cls-9 {
        fill: #191919;
      }

      .cls-10 {
        fill: #1c1c1c;
      }

      .cls-6 {
        opacity: .14;
      }

      .cls-7 {
        opacity: .19;
      }

      .cls-11 {
        fill: #272626;
        stroke: #010101;
        stroke-miterlimit: 10;
        stroke-width: 4.41px;
      }

      .cls-12 {
        fill: #a39760;
      }

      .cls-13 {
        fill: #010101;
      }

      .cls-14 {
        fill: #080808;
      }

      .cls-15 {
        fill: #232221;
      }
    </style>
  </defs>
  <rect class="cls-15" x="24.89" y="178.07" width="950.22" height="643.86" rx="9.04" ry="9.04"/>
  <circle class="cls-9" cx="291.16" cy="417.8" r="122.21"/>
  <circle class="cls-14" cx="291.16" cy="417.8" r="60.94"/>
  <g>
    <path class="cls-9" d="M559.35,574.53c-31.27,0-56.7-25.44-56.7-56.7,0-5.07.68-10.14,2.04-15.05l.36-1.3h-.02c1.85-6.74,11.88-39.9,40.8-82.67,18.98-28.05,42.25-54.69,69.18-79.17,33.67-30.61,73.18-57.91,117.43-81.15,1.06-.6,2-1.09,2.91-1.54l.13-.07.04-.02c7.74-3.76,16.06-5.66,24.72-5.66,31.27,0,56.7,25.44,56.7,56.7,0,21.11-11.62,40.34-30.32,50.19l-.12.06c-1.93,1.01-3.94,1.92-5.97,2.7l-.11.05c-23.59,11.42-105.58,58.32-170.36,182.3-.33.66-.66,1.3-1,1.92l-.15.27c-10.02,17.97-29.01,29.14-49.55,29.14Z"/>
    <path class="cls-8" d="M760.24,252.66c30.46,0,55.23,24.78,55.23,55.23,0,20.55-11.31,39.27-29.51,48.87h-.01s-.13.07-.13.07c-1.88.98-3.84,1.87-5.82,2.63l-.12.04-.11.05c-23.69,11.47-106.04,58.56-171.04,182.99-.33.65-.63,1.23-.92,1.76l-.2.35c-9.76,17.51-28.26,28.39-48.27,28.39-30.46,0-55.23-24.78-55.23-55.23,0-4.94.67-9.87,1.98-14.66l.69-2.53h0c2.54-8.81,12.94-40.65,40.35-81.14,18.92-27.94,42.11-54.47,68.95-78.85,33.56-30.49,72.93-57.7,117.04-80.86l.04-.02.04-.02c1-.56,1.91-1.05,2.8-1.48l.03-.02.03-.02.09-.05h.02c7.54-3.67,15.64-5.53,24.08-5.53M760.24,249.72c-9.09,0-17.7,2.09-25.36,5.81h0c-.06.03-.12.06-.18.09-1,.49-1.98,1.01-2.95,1.56-194.65,102.24-228.49,245.2-228.49,245.2h0c-1.35,4.92-2.09,10.1-2.09,15.44,0,32.13,26.04,58.17,58.17,58.17,21.86,0,40.9-12.07,50.83-29.89h0s.04-.07.05-.1c.39-.7.76-1.41,1.12-2.13,64.75-123.93,146.71-170.53,169.7-181.66,2.1-.81,4.15-1.73,6.13-2.77.08-.03.13-.05.13-.05h0c18.49-9.75,31.11-29.15,31.11-51.5,0-32.13-26.04-58.17-58.17-58.17h0Z"/>
  </g>
  <circle class="cls-11" cx="561.09" cy="517.16" r="40.21"/>
  <circle class="cls-11" cx="609.63" cy="432.45" r="40.21"/>
  <circle class="cls-11" cx="677.27" cy="362.14" r="40.21"/>
  <circle class="cls-11" cx="760.64" cy="308.57" r="40.21"/>
  <g>
    <path class="cls-10" d="M544.21,281.73c-6.31,0-11.67-4.72-12.47-10.99-.88-6.88,4-13.2,10.88-14.09l34.7-4.45c.54-.07,1.08-.1,1.62-.1,6.31,0,11.67,4.72,12.47,10.99.88,6.88-4,13.2-10.88,14.09l-34.7,4.45c-.54.07-1.08.1-1.62.1Z"/>
    <path class="cls-13" d="M578.94,253.56c5.51,0,10.29,4.09,11.01,9.7h0c.78,6.09-3.52,11.66-9.61,12.44l-34.7,4.45c-.48.06-.96.09-1.43.09-5.51,0-10.29-4.09-11.01-9.7h0c-.78-6.09,3.52-11.66,9.61-12.44l34.7-4.45c.48-.06.96-.09,1.43-.09M578.94,250.62h0c-.6,0-1.21.04-1.8.12l-34.7,4.45c-7.69.99-13.14,8.04-12.15,15.73.9,6.99,6.89,12.27,13.93,12.27.6,0,1.21-.04,1.8-.12l34.7-4.45c7.69-.99,13.14-8.04,12.15-15.73-.9-6.99-6.89-12.27-13.93-12.27h0Z"/>
  </g>
  <rect class="cls-5" x="536.96" y="259.68" width="48.22" height="4.24" rx="2.12" ry="2.12" transform="translate(-28.77 73.57) rotate(-7.32)"/>
  <g>
    <path class="cls-10" d="M454.89,281.73c-.54,0-1.08-.03-1.62-.1l-34.7-4.45c-3.33-.43-6.3-2.13-8.36-4.79-2.06-2.66-2.95-5.96-2.52-9.3.8-6.26,6.17-10.99,12.47-10.99.54,0,1.08.03,1.62.1l34.7,4.45c3.33.43,6.3,2.13,8.36,4.79,2.06,2.66,2.95,5.96,2.52,9.3-.8,6.26-6.17,10.99-12.47,10.99h0Z"/>
    <path class="cls-13" d="M420.16,253.56c.47,0,.95.03,1.43.09l34.7,4.45c6.09.78,10.39,6.35,9.61,12.44h0c-.72,5.61-5.5,9.7-11.01,9.7-.47,0-.95-.03-1.43-.09l-34.7-4.45c-6.09-.78-10.39-6.35-9.61-12.44h0c.72-5.61,5.5-9.7,11.01-9.7M420.16,250.62c-7.04,0-13.03,5.27-13.93,12.27-.99,7.69,4.46,14.75,12.15,15.73l34.7,4.45c.6.08,1.2.12,1.8.12,7.04,0,13.03-5.27,13.93-12.27.99-7.69-4.46-14.75-12.15-15.73l-34.7-4.45c-.6-.08-1.2-.12-1.8-.12h0Z"/>
  </g>
  <rect class="cls-5" x="413.93" y="259.68" width="48.22" height="4.24" rx="2.12" ry="2.12" transform="translate(839.18 577.25) rotate(-172.68)"/>
  <ellipse class="cls-7" cx="274.61" cy="391.41" rx="33.22" ry="20.83" transform="translate(-158.91 189.75) rotate(-30)"/>
  <ellipse class="cls-3" cx="554.97" cy="506.59" rx="22.06" ry="13.83" transform="translate(-178.94 345.36) rotate(-30)"/>
  <ellipse class="cls-3" cx="603.19" cy="420.21" rx="22.06" ry="13.83" transform="translate(-129.29 357.89) rotate(-30)"/>
  <ellipse class="cls-3" cx="669.81" cy="350.56" rx="22.06" ry="13.83" transform="translate(-85.54 381.87) rotate(-30)"/>
  <ellipse class="cls-3" cx="754.18" cy="296.1" rx="22.06" ry="13.83" transform="translate(-47.01 416.76) rotate(-30)"/>
  <path class="cls-2" d="M73.6,234.07h7.55v-12.16l13.66,12.16h7.51v-20.34h-7.55v12.16l-13.66-12.16h-7.51v20.34ZM103.16,234.07h7.55v-9.64l11.36,9.64h8.98l-12.24-10.47,12.03-9.87h-8.98l-11.15,9.01v-9.01h-7.55v20.34ZM72.34,219.39v-5.66h-22.01c-3.83-.07-6.29,2.91-6.29,6.5s2.36,6.57,6.29,6.5h13.94c.52,0,.94.37.94.84s-.42.84-.94.84h-20.02v5.66h22.01c3.83.07,6.29-2.91,6.29-6.5s-2.36-6.57-6.29-6.5h-13.94c-.52,0-.94-.37-.94-.84s.42-.84.94-.84h20.02Z"/>
  <g class="cls-1">
    <g>
      <g>
        <path class="cls-12" d="M527.79,711.44h.57c.53,0,1.45.12,1.83.37.38.25.63.52.74.83.12.31.18.98.18,2.02v4.09c0,1.23-1.16,1.86-1.72,2-.56.14-1.11.2-1.64.2-1.53,0-2.85-.45-3.97-1.34-1.11-.9-1.92-2.3-2.42-4.21-.5-1.91-.75-4.13-.75-6.66,0-2.09.23-4.13.69-6.12.46-1.99,1.24-3.54,2.34-4.65,1.1-1.11,2.48-1.67,4.13-1.67s2.74.49,4.02,1.98c1.3,1.52,2.55,3.25,3.28,5.79h1.07v-9.31h-.61c-.22.75-.46,1.25-.72,1.52-.26.27-.55.4-.85.4-.2,0-.83-.24-1.9-.73-1.07-.49-1.85-.78-2.33-.88-.88-.21-1.57-.31-2.67-.31-3.55,0-6.5,1.37-8.84,4.11-2.34,2.74-3.51,6.1-3.51,10.07,0,2.22.38,4.23,1.14,6.02.6,1.39,1.43,2.64,2.49,3.75,1.06,1.11,2.29,2.01,3.68,2.69,1.39.68,3.13,1.02,5.24,1.02,1.64,0,3.23-.19,4.76-.57,1.53-.38,3-.95,4.42-1.7v-5.49c0-.96.05-1.57.15-1.82.17-.47.42-.8.74-1.01.32-.2,1.19-.33,2.01-.4v-.9h-11.55v.9h0Z"/>
        <path class="cls-12" d="M554.35,718.55c-1.32,1.13-3.07,1.7-5.25,1.7h-1.25c-.67,0-1.15-.1-1.45-.31-.3-.21-.5-.47-.61-.79-.11-.32-.16-1.2-.16-2.65v-7.38c1.12,0,2.44.16,3.03.49.59.33,1.11.97,1.55,1.93.45.95.74,2.01.88,3.5h.95v-13.58h-.95c-.19,2.04-.61,3.41-1.28,4.46-.67,1.05-1.75,1.57-3.24,1.57h-.93v-9.11c0-1.58,1.25-1.4,1.25-1.4h1.47c1.78,0,2.98.12,3.63.35,1.11.39,1.96.99,2.57,1.82.61.83,1.07,2.18,1.41,4.08h.79v-7.76h-19.75v1.06h.62c.76,0,1.36.18,1.79.54.31.24.52.59.64,1.04.06.27.09,1,.09,2.18v16.41c0,1.31-.06,2.12-.19,2.44-.16.44-.39.75-.69.93-.41.27-.96.41-1.64.41h-.62v1.23h20.09l1.21-8.34h-1.1c-.58,2.32-1.52,4.05-2.84,5.18"/>
        <path class="cls-12" d="M569.9,695.06c-3.37-.16-6.2,1.08-8.51,3.7-2.31,2.62-3.46,5.9-3.46,9.83,0,3.5.89,6.53,2.66,9.08,2.24,3.23,5.42,4.84,9.53,4.84s7.27-1.69,9.51-5.08c1.69-2.55,2.54-5.5,2.54-8.86,0-3.93-1.14-7.2-3.41-9.82-2.27-2.62-5.23-3.85-8.86-3.69M575.27,716.06c-.55,1.83-1.32,3.16-2.31,3.99-.77.65-1.74.98-2.9.98-1.72,0-3.05-.75-4.01-2.26-1.37-2.16-2.05-5.49-2.05-10.01,0-3.8.44-6.71,1.33-8.74,1.09-2.47,2.68-3.71,4.76-3.71,1.13,0,2.13.36,3,1.07.87.72,1.58,1.94,2.15,3.68.56,1.74.84,4.35.84,7.85,0,2.94-.27,5.32-.83,7.15"/>
      </g>
      <path class="cls-12" d="M495.31,722.35c4.09,0,7.27-1.69,9.51-5.08,1.69-2.55,2.54-5.5,2.54-8.86,0-3.93-1.14-7.2-3.41-9.82-2.27-2.62-5.23-3.85-8.86-3.69-3.37-.16-6.2,1.08-8.51,3.7-2.31,2.62-3.46,5.9-3.46,9.83,0,3.5.89,6.53,2.66,9.08,2.24,3.23,5.42,4.84,9.53,4.84M490.5,699.88c1.09-2.47,2.68-3.71,4.76-3.71,1.13,0,2.13.36,3,1.07.87.72,1.58,1.94,2.15,3.68.56,1.74.84,4.35.84,7.85,0,2.94-.27,5.32-.83,7.15-.55,1.83-1.32,3.16-2.31,3.99-.77.65-1.74.98-2.9.98-1.72,0-3.05-.75-4.01-2.26-1.37-2.16-2.05-5.49-2.05-10.01,0-3.8.44-6.71,1.33-8.74"/>
      <path class="cls-12" d="M483.45,713.16h-1.1c-.58,2.32-1.52,4.05-2.84,5.18-1.32,1.13-3.07,1.7-5.25,1.7h-1.25c-.67,0-1.15-.1-1.45-.31-.3-.21-.5-.47-.61-.79-.11-.32-.16-1.2-.16-2.65v-7.38c1.12,0,2.44.16,3.03.49.59.33,1.11.97,1.55,1.92.45.95.74,2.01.88,3.5h.95v-13.58h-.95c-.19,2.04-.61,3.41-1.28,4.46-.67,1.05-1.75,1.57-3.24,1.57h-.93v-9.11c0-1.58,1.25-1.4,1.25-1.4h1.47c1.78,0,2.99.12,3.63.35,1.11.39,1.96.99,2.57,1.82.61.83,1.07,2.19,1.41,4.08h.79v-7.76h-19.75v1.07h.62c.76,0,1.36.18,1.79.54.31.24.52.59.64,1.04.06.27.09,1,.09,2.18v16.41c0,1.31-.06,2.12-.19,2.43-.16.44-.39.75-.69.93-.41.27-.96.41-1.64.41h-.62v1.23h20.09l1.21-8.34h0Z"/>
      <path class="cls-12" d="M445.54,720.25h-.53c-.76,0-1.44-.26-2.04-.79-.59-.53-.89-1.54-.89-3.05v-15.85l15.28,21.4h.99s0-21.83,0-21.83c0-1.24.09-1.6.27-2.11.18-.51.44-.88.76-1.11.33-.23.97-.41,1.92-.55v-1.11h-7.58v1.11c1.25-.03,2.14.34,2.67,1.09.39.56.58,1.11.58,2.69v11.43l-11.9-16.31h-7.24v.88c.69.03.71.28,1.08.5l1.94,2.19v17.58c0,1.39-.25,2.37-.74,2.95-.49.58-1.35.87-2.6.89v1.06h8.01v-1.06h0Z"/>
      <path class="cls-12" d="M513.89,708.63c0,1.74-1.26,3.16-2.81,3.16s-2.81-1.41-2.81-3.16,1.26-3.16,2.81-3.16,2.81,1.41,2.81,3.16Z"/>
    </g>
  </g>
  <g class="cls-1">
    <path class="cls-4" d="M414.38,297.66c0,1.18.5,1.74,1.33,1.85.78.1,1.28-.27,1.37-.98.09-.69-.26-1.34-1.05-2.11l-1.06-1.05c-1.05-.99-1.42-2.01-1.28-3.05.21-1.62,1.5-2.5,3.2-2.28,1.68.22,2.49,1.35,2.49,2.98h-1.64c.03-.87-.29-1.48-1.07-1.58-.68-.09-1.2.28-1.29,1.02-.09.68.3,1.28,1.05,1.99l1.04,1.05c1.02.95,1.45,2.03,1.3,3.16-.21,1.63-1.46,2.49-3.24,2.26-1.79-.23-2.77-1.42-2.74-3.27h1.61Z"/>
    <path class="cls-4" d="M421.95,296.67l-.45,3.48,3.23.42-.17,1.34-4.88-.63.15-1.07,1.08-8.38.12-1.08,4.82.62-.17,1.34-3.17-.41-.39,3.02,2.55.33-.17,1.35-2.55-.33Z"/>
    <path class="cls-4" d="M425.92,302.07l.15-1.07,1.08-8.38.12-1.08,1.67.21-.15,1.07-1.04,8.11,2.93.38-.17,1.34-4.58-.59Z"/>
    <path class="cls-4" d="M433.83,298.19l-.45,3.48,3.24.42-.17,1.34-4.88-.63.15-1.07,1.08-8.38.12-1.08,4.82.62-.17,1.34-3.17-.41-.39,3.02,2.55.33-.17,1.35-2.55-.33Z"/>
    <path class="cls-4" d="M438.65,303.32c-.53-.55-.74-1.37-.49-3.36l.42-3.3c.25-1.97.67-2.71,1.32-3.11.46-.29,1.15-.42,1.99-.31.78.1,1.39.37,1.8.8.58.6.74,1.49.53,3.14v.03s-1.65-.21-1.65-.21v-.03c.15-1.15.28-2.16-.88-2.31-1.16-.15-1.29.87-1.42,1.9l-.51,3.95c-.14,1.1-.26,2.06.89,2.21,1.19.15,1.32-.83,1.5-2.25v-.03s1.65.21,1.65.21v.03c-.27,2.06-.71,2.74-1.36,3.13-.47.28-1.12.42-1.96.32-.84-.11-1.48-.41-1.85-.81Z"/>
    <path class="cls-4" d="M448.68,295.66l-1.04,8.11-.12,1.08-1.67-.21.15-1.07,1.04-8.11-2.02-.26.17-1.34,5.66.73-.17,1.34-2.01-.26Z"/>
  </g>
  <g class="cls-1">
    <path class="cls-4" d="M550.33,301.96c.27,1.01.82,1.37,1.54,1.28.68-.09,1.03-.52.95-1.14-.08-.61-.52-1.08-1.37-1.57l-1.14-.66c-1.12-.61-1.66-1.4-1.78-2.32-.18-1.43.72-2.47,2.22-2.66,1.48-.19,2.42.6,2.79,1.99l-1.4.37c-.17-.74-.58-1.19-1.26-1.1-.6.08-.96.51-.88,1.15.08.6.54,1.02,1.34,1.46l1.12.66c1.08.59,1.69,1.41,1.82,2.41.18,1.44-.7,2.45-2.26,2.65-1.58.2-2.68-.59-3.07-2.18l1.38-.35Z"/>
    <path class="cls-4" d="M557.17,295.44l.92,7.15.14.95-1.47.19-.11-.95-.92-7.15-1.78.23-.15-1.18,4.99-.64.15,1.18-1.78.23Z"/>
    <path class="cls-4" d="M561.34,303.14l-1.48.19.63-9.52,1.96-.25,3.01,9.05-1.45.19-.64-2-1.92.25-.1,2.1ZM561.5,299.8l1.5-.19-.93-2.93c-.12-.41-.25-.97-.33-1.28h-.08c.01.33.02.91,0,1.33l-.15,3.07Z"/>
    <path class="cls-4" d="M567.34,298.38l.38,2.97.14.95-1.47.19-.11-.95-.95-7.39-.14-.95,2.17-.28c2.25-.29,2.95.85,3.14,2.33v.02c.13,1.03-.08,1.97-.97,2.53l2.05,4.01-1.54.2-1.86-3.75-.85.11ZM567.2,297.24l.63-.08c1.09-.14,1.31-.84,1.21-1.69v-.02c-.11-.84-.48-1.47-1.68-1.32l-.54.07.39,3.04Z"/>
    <path class="cls-4" d="M573.84,293.29l.92,7.15.14.95-1.47.19-.11-.95-.92-7.15-1.78.23-.15-1.18,4.99-.64.15,1.18-1.78.23Z"/>
  </g>
  <g class="cls-1">
    <path class="cls-4" d="M647.08,273.63v-7.75s2.13,0,2.13,0c2.23,0,2.77,1.12,2.77,2.51v.02c0,1.4-.54,2.51-2.77,2.51h-.71v3.58s-1.44,0-1.44,0v-.88ZM649.04,269.84c1.19,0,1.47-.63,1.47-1.42v-.02c0-.8-.28-1.41-1.47-1.41h-.54v2.86h.54Z"/>
    <path class="cls-4" d="M653.45,274.51h-1.47l1.8-8.63h1.94l1.8,8.63h-1.44l-.37-1.91h-1.9l-.36,1.91ZM654.02,271.48h1.48l-.54-2.79c-.07-.39-.12-.92-.17-1.21h-.08c-.03.29-.1.82-.17,1.21l-.53,2.79Z"/>
    <path class="cls-4" d="M662.5,266.37c.6.43.86,1.06.86,2.45v2.74c0,1.39-.26,2.02-.86,2.45-.46.34-1.04.49-1.72.49h-2.33v-.88s.01-6.87.01-6.87v-.88s2.31,0,2.31,0c.68,0,1.26.16,1.72.5ZM659.89,266.98v6.43h.67c.46,0,.69-.1.87-.23.35-.25.48-.63.48-1.28v-3.42c0-.65-.14-1.03-.48-1.28-.18-.13-.42-.23-.87-.23h-.67Z"/>
    <path class="cls-4" d="M672.97,266.37c.6.43.86,1.06.86,2.45v2.74c0,1.39-.26,2.02-.86,2.45-.46.34-1.04.49-1.72.49h-2.33v-.88s.01-6.87.01-6.87v-.88s2.31,0,2.31,0c.68,0,1.26.16,1.72.5ZM670.37,266.98v6.43h.67c.46,0,.69-.1.87-.23.35-.25.48-.63.48-1.28v-3.42c0-.65-.14-1.03-.48-1.28-.18-.13-.42-.23-.87-.23h-.67Z"/>
  </g>
  <g class="cls-1">
    <path class="cls-4" d="M566.37,336.05v-7.75s2.13,0,2.13,0c2.23,0,2.77,1.12,2.77,2.51v.02c0,1.4-.54,2.51-2.77,2.51h-.71v3.58s-1.44,0-1.44,0v-.88ZM568.33,332.26c1.19,0,1.47-.63,1.47-1.42v-.02c0-.8-.28-1.41-1.47-1.41h-.54v2.86h.54Z"/>
    <path class="cls-4" d="M572.74,336.93h-1.47l1.8-8.63h1.94l1.8,8.63h-1.44l-.37-1.91h-1.9l-.36,1.91ZM573.31,333.9h1.48l-.54-2.79c-.07-.39-.12-.92-.17-1.21h-.08c-.03.29-.1.82-.17,1.21l-.53,2.79Z"/>
    <path class="cls-4" d="M581.79,328.8c.6.43.86,1.06.86,2.45v2.74c0,1.39-.26,2.02-.86,2.45-.46.34-1.04.49-1.72.49h-2.33v-.88s.01-6.87.01-6.87v-.88s2.31,0,2.31,0c.68,0,1.26.16,1.72.5ZM579.18,329.4v6.43h.67c.46,0,.69-.1.87-.23.35-.25.48-.63.48-1.28v-3.42c0-.65-.14-1.03-.48-1.28-.18-.13-.42-.23-.87-.23h-.67Z"/>
    <path class="cls-4" d="M588.92,336.62c-.51-.39-.79-1.03-.79-2.66v-2.7c0-1.62.28-2.26.79-2.64.36-.28.94-.46,1.68-.46.68,0,1.23.16,1.63.46.57.42.8,1.12.8,2.47v.02h-1.44v-.02c0-.94,0-1.77-1.01-1.77s-1.01.83-1.01,1.68v3.23c0,.91,0,1.69,1.01,1.69s1.04-.81,1.04-1.97v-.02h1.44v.02c0,1.69-.3,2.28-.82,2.67-.37.28-.91.46-1.65.46s-1.32-.18-1.68-.46Z"/>
  </g>
  <g class="cls-1">
    <path class="cls-4" d="M498.17,412.43v-7.75s2.13,0,2.13,0c2.23,0,2.77,1.12,2.77,2.51v.02c0,1.4-.54,2.51-2.77,2.51h-.71v3.58s-1.44,0-1.44,0v-.88ZM500.14,408.64c1.19,0,1.47-.63,1.47-1.42v-.02c0-.8-.28-1.41-1.47-1.41h-.54v2.86h.54Z"/>
    <path class="cls-4" d="M504.55,413.31h-1.47l1.8-8.63h1.94l1.8,8.63h-1.44l-.37-1.91h-1.9l-.36,1.91ZM505.11,410.28h1.48l-.54-2.79c-.07-.39-.12-.92-.17-1.21h-.08c-.03.29-.1.82-.17,1.21l-.53,2.79Z"/>
    <path class="cls-4" d="M513.59,405.17c.6.43.86,1.06.86,2.45v2.74c0,1.39-.26,2.02-.86,2.45-.46.34-1.04.49-1.72.49h-2.33v-.88s.01-6.87.01-6.87v-.88s2.31,0,2.31,0c.68,0,1.26.16,1.72.5ZM510.99,405.78v6.43h.67c.46,0,.69-.1.87-.23.35-.25.48-.63.48-1.28v-3.42c0-.65-.14-1.03-.48-1.28-.18-.13-.42-.23-.87-.23h-.67Z"/>
    <path class="cls-4" d="M520.02,413.31v-.88s.01-6.87.01-6.87v-.88s2.11,0,2.11,0c1.79,0,2.69.84,2.69,2.15v.02c0,.94-.46,1.57-1.25,1.91v.05c.9.3,1.47.98,1.47,1.97v.02c0,1.64-1.01,2.51-2.87,2.51h-2.16ZM521.46,408.26h.64c.83,0,1.29-.56,1.29-1.3v-.04c0-.72-.44-1.15-1.36-1.15h-.57v2.49ZM522.06,412.21c1.09,0,1.5-.51,1.5-1.47v-.02c0-.86-.51-1.36-1.44-1.36h-.65v2.86h.6Z"/>
  </g>
  <g class="cls-1">
    <path class="cls-4" d="M448.16,512.23v-7.75s2.13,0,2.13,0c2.23,0,2.77,1.12,2.77,2.51v.02c0,1.4-.54,2.51-2.77,2.51h-.71v3.58s-1.44,0-1.44,0v-.88ZM450.13,508.44c1.19,0,1.47-.63,1.47-1.42v-.02c0-.8-.28-1.41-1.47-1.41h-.54v2.86h.54Z"/>
    <path class="cls-4" d="M454.53,513.11h-1.47l1.8-8.63h1.94l1.8,8.63h-1.44l-.37-1.91h-1.9l-.36,1.91ZM455.1,510.08h1.48l-.54-2.79c-.07-.39-.12-.92-.17-1.21h-.08c-.03.29-.1.82-.17,1.21l-.53,2.79Z"/>
    <path class="cls-4" d="M463.58,504.97c.6.43.86,1.06.86,2.45v2.74c0,1.39-.26,2.02-.86,2.45-.46.34-1.04.5-1.72.5h-2.33v-.88s.01-6.87.01-6.87v-.88s2.31,0,2.31,0c.68,0,1.26.16,1.72.5ZM460.98,505.58v6.43h.67c.46,0,.69-.1.87-.23.35-.25.48-.63.48-1.28v-3.42c0-.65-.14-1.03-.48-1.28-.18-.13-.42-.23-.87-.23h-.67Z"/>
    <path class="cls-4" d="M470.65,513.11h-1.47l1.8-8.63h1.94l1.8,8.63h-1.44l-.37-1.91h-1.9l-.36,1.91ZM471.21,510.08h1.48l-.54-2.79c-.07-.39-.12-.92-.17-1.21h-.08c-.03.29-.1.82-.17,1.21l-.53,2.79Z"/>
  </g>
  <g class="cls-1">
    <path class="cls-4" d="M427.75,762.06h-1.46l1.8-7.59h1.93l1.8,7.59h-1.44l-.37-1.68h-1.89l-.36,1.68ZM428.31,759.39h1.48l-.54-2.45c-.07-.34-.12-.81-.17-1.06h-.08c-.03.25-.1.72-.17,1.06l-.52,2.45Z"/>
    <path class="cls-4" d="M436.77,754.9c.59.38.86.93.86,2.16v2.41c0,1.22-.26,1.77-.86,2.16-.46.3-1.04.44-1.71.44h-2.32v-.78s.01-6.04.01-6.04v-.78s2.31,0,2.31,0c.68,0,1.26.14,1.71.44ZM434.17,755.43v5.66h.66c.46,0,.69-.08.87-.2.35-.22.48-.55.48-1.13v-3.01c0-.57-.14-.9-.48-1.12-.18-.12-.41-.2-.87-.2h-.66Z"/>
    <path class="cls-4" d="M442.5,754.46h1.42l-1.96,7.59h-1.57l-1.97-7.59h1.46l1.09,4.51c.07.34.15.81.19,1.14h.06c.03-.33.11-.8.18-1.14l1.1-4.51Z"/>
    <path class="cls-4" d="M445.41,762.06h-1.46l1.8-7.59h1.93l1.8,7.59h-1.44l-.37-1.68h-1.89l-.36,1.68ZM445.98,759.39h1.48l-.54-2.45c-.07-.34-.12-.81-.17-1.06h-.08c-.03.25-.1.72-.17,1.06l-.52,2.45Z"/>
    <path class="cls-4" d="M451.88,754.46l2.08,4c.21.4.32.68.43.95h.06c-.03-.28-.07-.7-.07-1v-3.95s1.38,0,1.38,0v.78s-.01,6.04-.01,6.04v.78s-1.3,0-1.3,0l-2.24-4.37c-.21-.39-.33-.68-.44-.94h-.06c.03.28.07.7.07,1v4.31s-1.38,0-1.38,0v-.78s.01-6.04.01-6.04v-.78s1.46,0,1.46,0Z"/>
    <path class="cls-4" d="M458.01,761.78c-.51-.34-.79-.9-.79-2.34v-2.38c0-1.42.28-1.99.79-2.33.36-.24.94-.4,1.67-.4.68,0,1.23.14,1.63.4.57.37.8.99.8,2.18v.02h-1.44v-.02c0-.83,0-1.56-1.01-1.56s-1.01.73-1.01,1.48v2.85c0,.8,0,1.49,1.01,1.49s1.04-.71,1.04-1.73v-.02h1.44v.02c0,1.49-.3,2.01-.81,2.35-.37.24-.91.4-1.64.4s-1.31-.16-1.67-.4Z"/>
    <path class="cls-4" d="M464.8,758.58v2.51h2.82v.97h-4.25v-.78s.01-6.04.01-6.04v-.78s4.18,0,4.18,0v.97h-2.76v2.18h2.22v.98h-2.22Z"/>
    <path class="cls-4" d="M472.83,754.9c.59.38.86.93.86,2.16v2.41c0,1.22-.26,1.77-.86,2.16-.46.3-1.04.44-1.71.44h-2.32v-.78s.01-6.04.01-6.04v-.78s2.31,0,2.31,0c.68,0,1.26.14,1.71.44ZM470.23,755.43v5.66h.66c.46,0,.69-.08.87-.2.35-.22.48-.55.48-1.13v-3.01c0-.57-.14-.9-.48-1.12-.18-.12-.41-.2-.87-.2h-.66Z"/>
    <path class="cls-4" d="M478.63,758.58v2.51h2.82v.97h-4.25v-.78s.01-6.04.01-6.04v-.78s4.18,0,4.18,0v.97h-2.76v2.18h2.22v.98h-2.22Z"/>
    <path class="cls-4" d="M484.09,754.46l2.08,4c.21.4.32.68.43.95h.06c-.03-.28-.07-.7-.07-1v-3.95s1.38,0,1.38,0v.78s-.01,6.04-.01,6.04v.78s-1.3,0-1.3,0l-2.24-4.37c-.21-.39-.33-.68-.44-.94h-.06c.03.28.07.7.07,1v4.31s-1.38,0-1.38,0v-.78s.01-6.04.01-6.04v-.78s1.46,0,1.46,0Z"/>
    <path class="cls-4" d="M492.09,755.43v6.63s-1.44,0-1.44,0v-.78s.01-5.85.01-5.85h-1.75v-.97h4.93v.97h-1.75Z"/>
    <path class="cls-4" d="M496.23,758.58v2.51h2.82v.97h-4.25v-.78s.01-6.04.01-6.04v-.78s4.18,0,4.18,0v.97h-2.76v2.18h2.22v.98h-2.22Z"/>
    <path class="cls-4" d="M501.66,758.85v3.21s-1.44,0-1.44,0v-.78s.01-6.04.01-6.04v-.78s2.13,0,2.13,0c2.22,0,2.76.99,2.76,2.2v.02c0,.84-.33,1.57-1.26,1.93l1.49,3.44h-1.52l-1.34-3.21h-.84ZM501.66,757.91h.62c1.08,0,1.38-.54,1.38-1.23v-.02c0-.69-.28-1.23-1.46-1.23h-.54v2.49Z"/>
    <path class="cls-4" d="M508.61,755.43v6.63s-1.44,0-1.44,0v-.78s.01-5.85.01-5.85h-1.75v-.97h4.93v.97h-1.75Z"/>
    <path class="cls-4" d="M511.7,762.06h-1.46l1.79-7.59h1.93l1.79,7.59h-1.44l-.37-1.68h-1.89l-.36,1.68ZM512.27,759.39h1.48l-.54-2.45c-.07-.34-.12-.81-.17-1.06h-.08c-.03.25-.1.72-.17,1.06l-.53,2.45Z"/>
    <path class="cls-4" d="M518.14,754.46v.78s-.01,6.04-.01,6.04v.78s-1.44,0-1.44,0v-.78s.01-6.04.01-6.04v-.78s1.44,0,1.44,0Z"/>
    <path class="cls-4" d="M521.31,754.46l2.08,4c.21.4.32.68.43.95h.05c-.03-.28-.07-.7-.07-1v-3.95s1.38,0,1.38,0v.78s-.01,6.04-.01,6.04v.78s-1.3,0-1.3,0l-2.24-4.37c-.21-.39-.33-.68-.44-.94h-.06c.03.28.07.7.07,1v4.31s-1.38,0-1.38,0v-.78s.01-6.04.01-6.04v-.78s1.46,0,1.46,0Z"/>
    <path class="cls-4" d="M526.91,761.28v-6.82s1.92,0,1.92,0l1.23,4.37c.08.28.15.69.18.97h.05c.03-.28.1-.69.18-.97l1.22-4.37h1.92v.78s-.01,6.04-.01,6.04v.78s-1.3,0-1.3,0v-.78s.01-4.02.01-4.02c0-.3.04-.71.06-.98h-.06c-.06.27-.12.67-.21.96l-1.33,4.82h-1.06l-1.31-4.82c-.08-.29-.17-.69-.21-.96h-.05c.01.27.04.68.04.98v4.8s-1.28,0-1.28,0v-.78Z"/>
    <path class="cls-4" d="M536.74,758.58v2.51h2.82v.97h-4.25v-.78s.01-6.04.01-6.04v-.78s4.18,0,4.18,0v.97h-2.76v2.18h2.22v.98h-2.22Z"/>
    <path class="cls-4" d="M542.21,754.46l2.08,4c.21.4.32.68.43.95h.05c-.03-.28-.07-.7-.07-1v-3.95s1.38,0,1.38,0v.78s-.01,6.04-.01,6.04v.78s-1.3,0-1.3,0l-2.24-4.37c-.21-.39-.33-.68-.44-.94h-.06c.03.28.07.7.07,1v4.31s-1.38,0-1.38,0v-.78s.01-6.04.01-6.04v-.78s1.46,0,1.46,0Z"/>
    <path class="cls-4" d="M550.2,755.43v6.63s-1.44,0-1.44,0v-.78s.01-5.85.01-5.85h-1.75v-.97h4.93v.97h-1.75Z"/>
    <path class="cls-4" d="M555.59,759.97c.14.84.62,1.19,1.34,1.19.68,0,1.06-.31,1.06-.82s-.37-.92-1.13-1.4l-1.02-.65c-1.01-.61-1.44-1.3-1.44-2.05,0-1.17,1.01-1.91,2.49-1.91s2.28.73,2.46,1.89l-1.41.15c-.07-.62-.42-1.02-1.09-1.02-.59,0-1,.31-1,.84,0,.49.4.88,1.12,1.32l1.01.65c.98.58,1.46,1.31,1.46,2.12,0,1.18-.98,1.9-2.53,1.9s-2.53-.75-2.71-2.07l1.38-.14Z"/>
    <path class="cls-4" d="M562.41,757.52h.04l1.28-3.06h1.41l-2,4.48v3.11s-1.45,0-1.45,0v-.78s.01-2.34.01-2.34l-2.02-4.48h1.44l1.29,3.06Z"/>
    <path class="cls-4" d="M566.72,759.97c.14.84.62,1.19,1.34,1.19.68,0,1.06-.31,1.06-.82s-.37-.92-1.13-1.4l-1.02-.65c-1.01-.61-1.44-1.3-1.44-2.05,0-1.17,1.01-1.91,2.49-1.91s2.28.73,2.46,1.89l-1.41.15c-.07-.62-.42-1.02-1.09-1.02-.59,0-1,.31-1,.84,0,.49.4.88,1.12,1.32l1.01.65c.98.58,1.46,1.31,1.46,2.12,0,1.18-.98,1.9-2.53,1.9s-2.53-.75-2.71-2.07l1.38-.14Z"/>
    <path class="cls-4" d="M574.18,755.43v6.63s-1.44,0-1.44,0v-.78s.01-5.85.01-5.85h-1.75v-.97h4.93v.97h-1.75Z"/>
    <path class="cls-4" d="M578.32,758.58v2.51h2.82v.97h-4.25v-.78s.01-6.04.01-6.04v-.78s4.18,0,4.18,0v.97h-2.76v2.18h2.22v.98h-2.22Z"/>
    <path class="cls-4" d="M582.33,761.28v-6.82s1.92,0,1.92,0l1.23,4.37c.08.28.15.69.18.97h.05c.03-.28.1-.69.18-.97l1.22-4.37h1.92v.78s-.01,6.04-.01,6.04v.78s-1.3,0-1.3,0v-.78s.01-4.02.01-4.02c0-.3.04-.71.06-.98h-.06c-.06.27-.12.67-.21.96l-1.33,4.82h-1.06l-1.31-4.82c-.08-.29-.17-.69-.21-.96h-.05c.01.27.04.68.04.98v4.8s-1.28,0-1.28,0v-.78Z"/>
  </g>
  <g class="cls-1">
    <path class="cls-4" d="M473.11,749.84v-6.82s2.13,0,2.13,0c2.22,0,2.76.99,2.76,2.21v.02c0,1.23-.54,2.21-2.76,2.21h-.7v3.15s-1.44,0-1.44,0v-.78ZM475.07,746.5c1.19,0,1.46-.55,1.46-1.25v-.02c0-.7-.28-1.24-1.46-1.24h-.54v2.52h.54Z"/>
    <path class="cls-4" d="M480.4,747.41v3.21s-1.44,0-1.44,0v-.78s.01-6.04.01-6.04v-.78s2.13,0,2.13,0c2.22,0,2.76.99,2.76,2.2v.02c0,.84-.33,1.57-1.26,1.93l1.49,3.44h-1.52l-1.34-3.21h-.84ZM480.4,746.47h.62c1.08,0,1.38-.54,1.38-1.23v-.02c0-.69-.28-1.23-1.46-1.23h-.54v2.49Z"/>
    <path class="cls-4" d="M485.9,750.34c-.51-.34-.8-.86-.8-2.33v-2.39c0-1.47.29-1.99.8-2.33.4-.25.95-.4,1.64-.4s1.26.15,1.64.4c.51.34.81.86.81,2.33v2.39c0,1.46-.3,1.99-.81,2.33-.39.27-.95.4-1.64.4s-1.24-.14-1.64-.4ZM488.56,748.24v-2.86c0-.76,0-1.48-1.02-1.48s-1.01.71-1.01,1.48v2.86c0,.76,0,1.48,1.01,1.48s1.02-.71,1.02-1.48Z"/>
    <path class="cls-4" d="M491.28,746.93h2.64v1.02h-2.64v-1.02Z"/>
    <path class="cls-4" d="M497.7,746.69h2.49v3.92h-.69l-.29-.63h-.03c-.35.5-.88.73-1.67.73-.61,0-1.13-.14-1.51-.38-.51-.34-.79-.9-.79-2.33v-2.39c0-1.37.25-1.96.8-2.33.4-.27.95-.4,1.64-.4.65,0,1.23.13,1.64.4.51.34.8.87.8,2.18v.02h-1.44v-.02c0-.86,0-1.56-1.01-1.56s-1.01.7-1.01,1.48v2.86c0,.81,0,1.48.99,1.48,1.15,0,1.15-.88,1.15-1.62v-.42h-1.09v-.99Z"/>
    <path class="cls-4" d="M503.13,747.14v2.51h2.82v.97h-4.25v-.78s.01-6.04.01-6.04v-.78s4.18,0,4.18,0v.97h-2.76v2.18h2.22v.98h-2.22Z"/>
    <path class="cls-4" d="M507.96,750.61h-1.46l1.79-7.59h1.93l1.79,7.59h-1.44l-.37-1.68h-1.89l-.36,1.68ZM508.53,747.95h1.48l-.54-2.45c-.07-.34-.12-.81-.17-1.06h-.08c-.03.25-.1.72-.17,1.06l-.53,2.45Z"/>
    <path class="cls-4" d="M514.39,747.41v3.21s-1.44,0-1.44,0v-.78s.01-6.04.01-6.04v-.78s2.13,0,2.13,0c2.22,0,2.76.99,2.76,2.2v.02c0,.84-.33,1.57-1.26,1.93l1.49,3.44h-1.52l-1.34-3.21h-.84ZM514.39,746.47h.62c1.08,0,1.38-.54,1.38-1.23v-.02c0-.69-.28-1.23-1.46-1.23h-.54v2.49Z"/>
    <path class="cls-4" d="M522.08,748.53c.14.84.62,1.19,1.34,1.19.68,0,1.06-.31,1.06-.82s-.37-.92-1.13-1.4l-1.02-.65c-1.01-.61-1.44-1.3-1.44-2.05,0-1.17,1.01-1.91,2.49-1.91s2.28.73,2.46,1.89l-1.41.15c-.07-.62-.42-1.02-1.09-1.02-.59,0-1,.31-1,.84,0,.49.4.88,1.12,1.32l1.01.65c.98.58,1.46,1.31,1.46,2.12,0,1.18-.98,1.9-2.53,1.9s-2.53-.75-2.71-2.07l1.38-.14Z"/>
    <path class="cls-4" d="M527.04,749.84v-6.82s2.13,0,2.13,0c2.22,0,2.76.99,2.76,2.21v.02c0,1.23-.54,2.21-2.76,2.21h-.71v3.15s-1.44,0-1.44,0v-.78ZM529,746.5c1.19,0,1.46-.55,1.46-1.25v-.02c0-.7-.28-1.24-1.46-1.24h-.54v2.52h.54Z"/>
    <path class="cls-4" d="M534.33,747.14v2.51h2.82v.97h-4.25v-.78s.01-6.04.01-6.04v-.78s4.18,0,4.18,0v.97h-2.76v2.18h2.22v.98h-2.22Z"/>
    <path class="cls-4" d="M539.02,750.34c-.51-.34-.79-.9-.79-2.34v-2.38c0-1.42.28-1.99.79-2.33.36-.24.94-.4,1.67-.4.68,0,1.23.14,1.63.4.57.37.8.99.8,2.18v.02h-1.44v-.02c0-.83,0-1.56-1.01-1.56s-1.01.73-1.01,1.48v2.85c0,.8,0,1.49,1.01,1.49s1.04-.71,1.04-1.73v-.02h1.44v.02c0,1.49-.3,2.01-.81,2.35-.37.24-.91.4-1.64.4s-1.31-.16-1.67-.4Z"/>
  </g>
  <g class="cls-1">
    <path class="cls-4" d="M471.55,738.39v-6.82s2.73,0,2.73,0l.98,3.39c.08.3.17.71.22,1h.06c.06-.29.14-.7.22-1l.98-3.39h2.72v.78s-.01,6.04-.01,6.04v.78s-1.82,0-1.82,0v-.78s.01-3.2.01-3.2c0-.31.01-.73.04-1.01h-.06c-.07.28-.15.69-.23.99l-1.13,3.99h-1.52l-1.15-3.99c-.08-.3-.18-.71-.23-.99h-.06c.01.28.04.7.04,1.01v3.97s-1.81,0-1.81,0v-.78Z"/>
    <path class="cls-4" d="M482.24,739.17h-2.07l1.82-7.59h2.82l1.81,7.59h-2.04l-.3-1.43h-1.74l-.29,1.43ZM482.82,736.35h1.16l-.36-1.74c-.07-.38-.15-.89-.18-1.19h-.08c-.03.3-.1.81-.18,1.19l-.36,1.74Z"/>
    <path class="cls-4" d="M489.88,736.78l-1.02,2.39h-2.17l1.96-4.04-1.84-3.56h2.17l.94,2.16h.06l.93-2.16h2.14l-1.84,3.56,1.97,4.04h-2.22l-1.02-2.39h-.06Z"/>
    <path class="cls-4" d="M497.5,736.82v.02c0,.59,0,1.14.76,1.14.8,0,.8-.58.8-1.07-.01-.78-.35-1-1.16-1h-.41v-1.37h.41c.77,0,1.02-.18,1.04-.92,0-.35,0-.85-.66-.85-.72,0-.72.57-.72,1.03v.02h-1.91v-.02c0-1.04.4-1.54.87-1.87.46-.32,1.06-.48,1.78-.48.83,0,1.42.21,1.81.47.5.34.77.85.79,1.61,0,.96-.43,1.33-1.17,1.6v.05c.9.25,1.33.82,1.34,1.78,0,.96-.33,1.49-.84,1.84-.47.32-1.13.49-1.95.49s-1.46-.18-1.89-.47c-.46-.31-.81-.84-.81-1.99v-.02h1.93Z"/>
    <path class="cls-4" d="M503.72,736.82v.02c0,.59,0,1.14.76,1.14.8,0,.8-.58.8-1.07-.01-.78-.35-1-1.16-1h-.41v-1.37h.41c.77,0,1.02-.18,1.04-.92,0-.35,0-.85-.66-.85-.72,0-.72.57-.72,1.03v.02h-1.91v-.02c0-1.04.4-1.54.87-1.87.46-.32,1.06-.48,1.78-.48.83,0,1.42.21,1.81.47.5.34.77.85.79,1.61,0,.96-.43,1.33-1.17,1.6v.05c.9.25,1.33.82,1.34,1.78,0,.96-.33,1.49-.84,1.84-.47.32-1.13.49-1.95.49s-1.46-.18-1.89-.47c-.46-.31-.82-.84-.82-1.99v-.02h1.93Z"/>
    <path class="cls-4" d="M509.09,738.81c-.61-.41-.86-1.05-.86-2.52v-1.84c0-1.46.25-2.09.86-2.52.47-.32,1.13-.49,1.92-.49s1.45.17,1.92.49c.62.42.87,1.05.87,2.52v1.84c0,1.47-.25,2.09-.87,2.52-.47.33-1.12.49-1.92.49s-1.45-.16-1.92-.49ZM511.8,736.64v-2.54c0-.74,0-1.32-.79-1.32s-.77.57-.77,1.32v2.54c0,.74,0,1.32.77,1.32s.79-.57.79-1.32Z"/>
    <path class="cls-4" d="M517.07,738.39v-6.82s2.73,0,2.73,0l.98,3.39c.08.3.17.71.22,1h.05c.06-.29.14-.7.22-1l.98-3.39h2.72v.78s-.01,6.04-.01,6.04v.78s-1.82,0-1.82,0v-.78s.01-3.2.01-3.2c0-.31.01-.73.04-1.01h-.05c-.07.28-.15.69-.24.99l-1.13,3.99h-1.52l-1.15-3.99c-.08-.3-.18-.71-.24-.99h-.05c.01.28.04.7.04,1.01v3.97s-1.81,0-1.81,0v-.78Z"/>
    <path class="cls-4" d="M528.48,735.9v1.91h2.69v1.36h-4.75v-.78s.01-6.04.01-6.04v-.78s4.68,0,4.68,0v1.36h-2.64v1.58h2.13v1.38h-2.13Z"/>
    <path class="cls-4" d="M535,735.11h2.89v4.06h-.92l-.4-.56h-.03c-.41.42-.91.68-1.81.68-.73,0-1.33-.17-1.75-.46-.59-.4-.9-1.03-.9-2.56v-1.79c0-1.5.29-2.16.9-2.56.43-.29,1.09-.47,1.97-.47.8,0,1.46.15,1.96.47.57.37.91.95.91,2.35v.03h-2.1v-.03c0-.81,0-1.39-.79-1.39s-.79.58-.79,1.27v2.45c0,.66,0,1.27.84,1.27.91,0,.91-.72.91-1.35v-.03h-.9v-1.38Z"/>
    <path class="cls-4" d="M540.6,739.17h-2.07l1.82-7.59h2.82l1.81,7.59h-2.04l-.3-1.43h-1.74l-.29,1.43ZM541.18,736.35h1.16l-.36-1.74c-.07-.38-.15-.89-.18-1.19h-.08c-.03.3-.1.81-.18,1.19l-.36,1.74Z"/>
  </g>
  <path class="cls-6" d="M965.9,178.07H34.1c128.91,20.09,207.92,22.54,379.35,44.18,34.75,5.33,73.34,5.37,86.38,5.38h0c.05,0,.11,0,.17,0h.17c13.05,0,51.63-.04,86.38-5.38,171.43-21.63,250.45-24.09,379.35-44.18Z"/>
</svg>