<svg xmlns="http://www.w3.org/2000/svg" id="Layer_1" data-name="Layer 1" viewBox="0 0 1000 1000"><defs><style>.cls-1{fill:#4d4c4d}.cls-1,.cls-2{stroke:#000;stroke-miterlimit:10}.cls-5{fill:#dad9df}.cls-7{fill:#e2e2e2}.cls-2{fill:#e3403d;stroke-width:2px}.cls-12{fill:#2d2d2d}.cls-13{fill:#171717}</style></defs><rect width="950.13" height="397.37" x="24.94" y="301.32" class="cls-5" rx="15.27" ry="15.27"/><rect width="895.9" height="307.75" x="53.19" y="366.82" rx="10.41" ry="10.41" style="fill:#2a2a2a"/><rect width="264" height="91.45" x="334.24" y="538.84" class="cls-5" rx="10.18" ry="10.18"/><rect width="102.23" height="98.81" x="642.48" y="536.29" class="cls-5" rx="11.35" ry="11.35"/><rect width="102.23" height="98.81" x="766.47" y="536.29" class="cls-5" rx="11.35" ry="11.35"/><path d="M349.13 548.66h234.23c2.63 0 4.77 2.14 4.77 4.77v61.97c0 2.63-2.14 4.77-4.77 4.77H349.13c-2.63 0-4.77-2.14-4.77-4.77v-61.98c0-2.63 2.14-4.77 4.77-4.77Z" style="fill:#c7c6cc"/><path d="M583.35 549.66c2.08 0 3.77 1.69 3.77 3.77v61.97c0 2.08-1.69 3.77-3.77 3.77H349.12c-2.08 0-3.77-1.69-3.77-3.77v-61.97c0-2.08 1.69-3.77 3.77-3.77zm0-2H349.12c-3.19 0-5.77 2.58-5.77 5.77v61.97c0 3.19 2.58 5.77 5.77 5.77h234.23c3.19 0 5.77-2.58 5.77-5.77v-61.97c0-3.19-2.58-5.77-5.77-5.77" style="fill:#97969b"/><rect width="77.47" height="25.97" x="366.9" y="571.71" class="cls-1" rx="12.99" ry="12.99"/><rect width="77.47" height="25.97" x="490.39" y="571.71" class="cls-1" rx="12.99" ry="12.99"/><path d="M735.79 586.39c0 23.28-18.87 42.15-42.15 42.15-10.88 0-20.8-4.12-28.28-10.89-8.52-7.71-13.88-18.86-13.88-31.26 0-23.28 18.88-42.15 42.16-42.15 11.68 0 22.25 4.75 29.88 12.43 7.58 7.61 12.27 18.12 12.27 29.72Z" class="cls-2"/><rect width="62.9" height="171.8" x="162.43" y="452.94" class="cls-12" rx="5.36" ry="5.36" transform="rotate(-90 193.89 538.84)"/><rect width="75.04" height="177.24" x="153.89" y="451.9" class="cls-7" rx="11.92" ry="11.92" transform="rotate(-90 191.405 540.515)"/><rect width="73.52" height="173.65" x="154.65" y="453.69" class="cls-7" rx="11.67" ry="11.67"/><path d="M859.74 586.39c0 23.28-18.87 42.15-42.15 42.15-10.74 0-20.55-4.02-28-10.64-8.69-7.72-14.16-18.97-14.16-31.51 0-23.28 18.88-42.15 42.16-42.15 12.05 0 22.91 5.05 30.6 13.16a42 42 0 0 1 11.55 28.99Z" class="cls-2"/><path d="M163.94 620.48v-51.95h-51.95v-54.58h51.95V462h54.58v51.95h51.95v54.58h-51.95v51.95z" class="cls-12"/><path d="M216.52 464v51.95h51.95v50.58h-51.95v51.95h-50.58v-51.95h-51.95v-50.58h51.95V464zm4-4h-58.58v51.95h-51.95v58.58h51.95v51.95h58.58v-51.95h51.95v-58.58h-51.95z"/><path d="M329.53 366.82h270.08v30.53c0 5.95-4.83 10.78-10.78 10.78H340.32c-5.95 0-10.78-4.83-10.78-10.78v-30.53Zm12.46 54.08h245.47c6.79 0 12.3 5.51 12.3 12.3v21.77c0 6.24-5.06 11.3-11.3 11.3H340.99c-6.24 0-11.3-5.06-11.3-11.3V433.2c0-6.79 5.51-12.3 12.3-12.3m0 56.75h245.47c6.79 0 12.3 5.51 12.3 12.3v21.77c0 6.24-5.06 11.3-11.3 11.3H340.99c-6.24 0-11.3-5.06-11.3-11.3v-21.77c0-6.79 5.51-12.3 12.3-12.3m-2.64 168.91h250.74c5.33 0 9.67 4.33 9.67 9.67v18.34H329.68v-18.34c0-5.33 4.33-9.67 9.67-9.67" style="fill:#93938e"/><circle cx="192.11" cy="541.41" r="20.35" class="cls-13"/><path d="m210.89 489.8-16.77-15.81a2.94 2.94 0 0 0-4.02 0l-16.77 15.81c-.57.53-.19 1.49.59 1.49h5.21v14.16c0 .75.61 1.35 1.35 1.35h23.24c.75 0 1.35-.61 1.35-1.35v-14.16h5.21c.78 0 1.16-.95.59-1.49Zm-37.56 103.23 16.77 15.81a2.94 2.94 0 0 0 4.02 0l16.77-15.81c.57-.53.19-1.49-.59-1.49h-5.21v-14.16c0-.75-.61-1.35-1.35-1.35H180.5c-.75 0-1.35.61-1.35 1.35v14.16h-5.21c-.78 0-1.16.95-.59 1.49Zm70.4-32.84 15.81-16.77a2.94 2.94 0 0 0 0-4.02l-15.81-16.77c-.53-.57-1.49-.19-1.49.59v5.21h-14.16c-.75 0-1.35.61-1.35 1.35v23.24c0 .75.61 1.35 1.35 1.35h14.16v5.21c0 .78.95 1.16 1.49.59Zm-103.24-37.55-15.81 16.77a2.94 2.94 0 0 0 0 4.02l15.81 16.77c.53.57 1.49.19 1.49-.59v-5.21h14.16c.75 0 1.35-.61 1.35-1.35v-23.24c0-.75-.61-1.35-1.35-1.35h-14.16v-5.21c0-.78-.95-1.16-1.49-.59Z" class="cls-13"/><path d="M216.52 464v49.6l-52.93 52.93h-49.6v-50.58h51.95V464z" style="opacity:.07;fill:#dad9df"/><path d="M848.19 557.4c-7.05 27.41-26.31 47.74-58.6 60.5-8.69-7.72-14.16-18.97-14.16-31.51 0-23.28 18.88-42.15 42.16-42.15 12.05 0 22.91 5.05 30.6 13.16m-124.67-.73c-6.86 27.6-25.97 48.09-58.16 60.98-8.52-7.71-13.88-18.86-13.88-31.26 0-23.28 18.88-42.15 42.16-42.15 11.68 0 22.25 4.75 29.88 12.43" style="fill:#dad9df;opacity:.1"/><path d="M670.74 442.82v9.51h-5.12v-24.72h11.61c4.94 0 7.76 2.81 7.76 7.06 0 3.19-1.61 5.06-3.73 5.83.88.42 3.15 1.4 3.15 5.83v1.23c0 1.72 0 3.62.27 4.78h-5.3c-.36-1.09-.39-2.56-.39-5.16v-.84c0-2.49-.79-3.51-3.91-3.51h-4.33Zm0-4.53h5.33c2.51 0 3.61-1.05 3.61-3.12s-1.12-3.05-3.58-3.05h-5.36v6.18Zm33.48 4.95c0 5.58-3.33 9.58-9.15 9.58s-8.82-4.53-8.82-9.58 3.09-9.55 9-9.55 8.97 5.06 8.97 9.55m-12.94 0c0 2.84 1.36 5.27 3.94 5.27s3.91-2.39 3.91-5.16-1.18-5.3-3.94-5.3-3.91 2.42-3.91 5.2Zm14.91-4.35c0-1.58 0-3.12-.03-4.71h4.73c.09.7.12 1.51.12 2.14.82-1.3 2.3-2.63 4.79-2.63 2.76 0 4.09 1.4 4.73 2.98.82-1.33 2.27-2.98 5.27-2.98 3.27 0 5.85 2.28 5.85 7.69v10.95h-4.88v-10.81c0-1.58-.45-3.48-2.51-3.48-1.79 0-2.85 1.3-2.85 4.28v10.01h-4.91v-10.85c0-1.79-.58-3.44-2.55-3.44s-2.88 1.65-2.88 4.28v10.01h-4.88v-13.45Zm28.42 0c0-1.58 0-3.12-.03-4.71h4.73c.09.7.12 1.51.12 2.14.82-1.3 2.3-2.63 4.79-2.63 2.76 0 4.09 1.4 4.73 2.98.82-1.33 2.27-2.98 5.27-2.98 3.27 0 5.85 2.28 5.85 7.69v10.95h-4.88v-10.81c0-1.58-.45-3.48-2.51-3.48-1.79 0-2.85 1.3-2.85 4.28v10.01h-4.91v-10.85c0-1.79-.58-3.44-2.55-3.44s-2.88 1.65-2.88 4.28v10.01h-4.88v-13.45Zm26.48-4.71h2.82v-5.34h4.97v5.34h3.64v4.18h-3.64v7.65c0 1.54.27 2.25 1.79 2.25.42 0 .91 0 1.33-.1v3.93c-.85.28-1.97.39-3.12.39-3.85 0-4.97-1.93-4.97-5.48v-8.64h-2.82zm16.85 10.46c.12 2.21 1.49 3.93 3.85 3.93 1.85 0 2.73-.67 3.3-1.79h4.97c-.97 3.23-3.3 6.04-8.33 6.04-6.42 0-8.73-4.92-8.73-9.55 0-5.09 2.97-9.58 8.7-9.58 6.09 0 8.55 4.88 8.55 9.58 0 .46 0 .81-.03 1.37h-12.27Zm7.27-3.51c-.09-1.37-.73-3.41-3.55-3.41-2.58 0-3.55 1.61-3.67 3.41h7.21Zm6.87-2.35c0-1.54 0-3.3-.03-4.6h4.82c.06.53.12 1.62.15 2.35.73-1.26 2.15-2.84 5.21-2.84 3.85 0 6.12 2.77 6.12 7.44v11.2h-5v-10.29c0-2.07-.7-3.9-2.91-3.9-2.33 0-3.39 1.86-3.39 5.13v9.06h-4.97zm36.03-12.6v21.07c0 1.69 0 3.41.03 5.09h-4.88c-.06-.53-.09-1.4-.12-2.11-.88 1.4-1.97 2.6-5.21 2.6-4.36 0-7.61-3.76-7.61-9.41 0-6.11 4.18-9.73 8.06-9.73 3.06 0 4.3 1.19 4.76 1.9v-9.41zm-8.72 22.15c2.54 0 3.88-1.93 3.88-5.06s-1.06-5.13-3.88-5.13c-2.67 0-3.97 2.46-3.97 5.13 0 2.88 1.42 5.06 3.97 5.06m28.66-5.09c0 5.58-3.33 9.58-9.15 9.58s-8.82-4.53-8.82-9.58 3.09-9.55 9-9.55 8.97 5.06 8.97 9.55m-12.94 0c0 2.84 1.36 5.27 3.94 5.27s3.91-2.39 3.91-5.16-1.18-5.3-3.94-5.3-3.91 2.42-3.91 5.2Zm-339.86 59.05h-11.12c-.49 0-.94-.11-1.37-.34-.43-.22-.8-.53-1.12-.91s-.57-.83-.76-1.35a4.9 4.9 0 0 1-.28-1.64v-1.49c0-.58.09-1.13.28-1.64.18-.51.44-.96.76-1.35.32-.38.69-.69 1.12-.91s.88-.34 1.37-.34h16.18v4.01h-14.67v2.19h11.15c.48 0 .94.11 1.37.34s.8.52 1.12.9c.32.37.57.82.76 1.33.18.51.28 1.06.28 1.64v1.49c0 .58-.09 1.13-.28 1.64s-.44.96-.76 1.34-.69.69-1.12.91-.88.34-1.37.34h-16.18v-4.01h14.64v-2.16Zm25.76-9.95v4.01h-7.25v12.11h-5.09v-12.11h-7.25v-4.01H521Zm6.17 11.3v4.82h-5.06v-11.88c0-.58.09-1.13.28-1.64.18-.51.44-.96.76-1.35.32-.38.69-.69 1.12-.91s.88-.34 1.37-.34h12.69c.47 0 .91.11 1.32.32q.63.315 1.11.87c.32.36.58.79.77 1.29s.29 1.02.29 1.58v12.05h-5.03v-4.82h-9.6Zm0-3.76h9.6v-3.53h-9.6zm30.43-.95v-2.58h-9.6v12.11h-5.06v-16.11h15.74c.48 0 .96.1 1.44.31.47.21.9.5 1.28.87s.68.82.9 1.33.33 1.08.33 1.7v1.93c0 .56-.12 1.1-.36 1.61q-.36.765-.93 1.35c-.38.38-.8.69-1.27.92s-.91.35-1.34.35l3.7 5.74H557l-5.99-9.53h6.61Zm25.76-6.59v4.01h-7.25v12.11h-5.09v-12.11h-7.25v-4.01h19.58Zm-226.59 9.95h-10.3c-.45 0-.87-.11-1.27-.34-.4-.22-.74-.53-1.04-.91s-.53-.83-.7-1.35a5.2 5.2 0 0 1-.26-1.64v-1.49c0-.58.08-1.13.26-1.64.17-.51.4-.96.7-1.35.3-.38.64-.69 1.04-.91s.82-.34 1.27-.34h14.99v4.01h-13.59v2.19h10.33c.45 0 .87.11 1.27.34.4.22.74.52 1.04.9.3.37.53.82.7 1.33s.26 1.06.26 1.64v1.49c0 .58-.09 1.13-.26 1.64s-.4.96-.7 1.34-.64.69-1.04.91-.82.34-1.27.34h-14.99v-4.01h13.56v-2.16Zm10.4 2.16h13.56v4.01h-14.99c-.45 0-.87-.11-1.27-.34-.4-.22-.74-.53-1.04-.91s-.53-.83-.7-1.34a5.2 5.2 0 0 1-.26-1.64v-7.65c0-.58.08-1.13.26-1.64.17-.51.4-.96.7-1.35.3-.38.64-.69 1.04-.91s.82-.34 1.27-.34h14.99v4.01h-13.56v2.19h12.59v3.76h-12.59v2.16Zm32.85 0v4.01h-14.99c-.45 0-.87-.11-1.27-.34-.4-.22-.74-.53-1.04-.91s-.53-.83-.7-1.34a5.2 5.2 0 0 1-.26-1.64v-11.88h4.69v12.11h13.56Zm5.71 0h13.56v4.01h-14.99c-.45 0-.87-.11-1.27-.34-.4-.22-.74-.53-1.04-.91s-.53-.83-.7-1.34a5.2 5.2 0 0 1-.26-1.64v-7.65c0-.58.08-1.13.26-1.64.17-.51.4-.96.7-1.35.3-.38.64-.69 1.04-.91s.82-.34 1.27-.34h14.99v4.01h-13.56v2.19h12.59v3.76h-12.59v2.16Zm32.85 0v4.01H423.6c-.45 0-.87-.11-1.27-.34-.4-.22-.74-.53-1.04-.91s-.53-.83-.7-1.34a5.2 5.2 0 0 1-.26-1.64v-7.65c0-.58.08-1.13.26-1.64.17-.51.4-.96.7-1.35.3-.38.64-.69 1.04-.91s.82-.34 1.27-.34h14.99v4.01h-13.56v8.1zm19.17-12.11v4.01h-6.71v12.11h-4.72v-12.11h-6.71v-4.01h18.15Z" style="fill:#c5443e"/></svg>