<svg xmlns="http://www.w3.org/2000/svg" id="Layer_1" data-name="Layer 1" viewBox="0 0 1000 1000"><defs><style>.cls-1{fill:#a32e38}.cls-3{fill:#741213}.cls-5{fill:#1f1e1e}.cls-6{fill:#515251}.cls-7{fill:#4a494a}.cls-9{fill:#a33845}.cls-12{fill:#282828}.cls-14{fill:#a42842}.cls-16{fill:#ae283b}.cls-18{fill:#8f2936}.cls-20{opacity:.65}.cls-23{fill:#6f0f11}.cls-27{fill:#931a2a}.cls-28{fill:#e1e1e1}</style></defs><path d="M130.92 473.77H880.5v54.27H130.92z" style="fill:#381418"/><path d="M847.62 976.84H152.33c-49.99 0-90.51-40.52-90.51-90.51v-358.3h876.3v358.3c0 49.99-40.52 90.51-90.51 90.51Z" class="cls-1"/><path d="M136.94 815.08a4.31 4.31 0 0 1-4.31-4.31v-29.04h-29.04a4.31 4.31 0 0 1-4.31-4.31v-26.51a4.31 4.31 0 0 1 4.31-4.31h29.04v-29.04a4.31 4.31 0 0 1 4.31-4.31h26.51a4.31 4.31 0 0 1 4.31 4.31v29.04h29.04a4.31 4.31 0 0 1 4.31 4.31v26.51a4.31 4.31 0 0 1-4.31 4.31h-29.04v29.04a4.31 4.31 0 0 1-4.31 4.31z" class="cls-16"/><path d="M163.45 714.42c1.74 0 3.14 1.41 3.14 3.14v30.21h30.21c1.74 0 3.14 1.41 3.14 3.14v26.51c0 1.74-1.41 3.14-3.14 3.14h-30.21v30.21c0 1.74-1.41 3.14-3.14 3.14h-26.51c-1.74 0-3.14-1.41-3.14-3.14v-30.21h-30.21c-1.74 0-3.14-1.41-3.14-3.14v-26.51c0-1.74 1.41-3.14 3.14-3.14h30.21v-30.21c0-1.74 1.41-3.14 3.14-3.14zm0-2.33h-26.51c-3.02 0-5.47 2.46-5.47 5.47v27.88h-27.88c-3.02 0-5.47 2.46-5.47 5.47v26.51c0 3.02 2.46 5.47 5.47 5.47h27.88v27.88c0 3.02 2.46 5.47 5.47 5.47h26.51c3.02 0 5.47-2.46 5.47-5.47v-27.88h27.88c3.02 0 5.47-2.46 5.47-5.47v-26.51c0-3.02-2.46-5.47-5.47-5.47h-27.88v-27.88c0-3.02-2.46-5.47-5.47-5.47" class="cls-3"/><g class="cls-20"><path d="M148.66 724.47h2.71v18.99h-2.71z" class="cls-28"/></g><g class="cls-20"><path d="M148.66 784.88h2.71v18.99h-2.71z" class="cls-28"/></g><g class="cls-20"><path d="M110.32 762.81h18.99v2.71h-18.99z" class="cls-28"/></g><g class="cls-20"><path d="M170.73 762.81h18.99v2.71h-18.99z" class="cls-28"/></g><path d="M848.28 650.17c-5.8 0-11.33-2.17-15.58-6.11a23 23 0 0 1-7.35-16.81c0-12.64 10.29-22.93 22.93-22.93 4.42 0 8.71 1.26 12.4 3.65 6.59 4.24 10.52 11.44 10.52 19.28 0 12.64-10.28 22.92-22.92 22.92" class="cls-16"/><path d="M848.28 604.82c4.47 0 8.63 1.31 12.13 3.57 6.19 3.98 10.29 10.94 10.29 18.86 0 12.38-10.04 22.42-22.42 22.42-5.88 0-11.24-2.27-15.24-5.97a22.36 22.36 0 0 1-7.19-16.45c0-12.39 10.04-22.43 22.43-22.43m0-1c-12.92 0-23.43 10.51-23.43 23.43 0 6.5 2.74 12.76 7.51 17.18 4.34 4.02 10 6.24 15.92 6.24 12.91 0 23.42-10.51 23.42-23.42 0-8.01-4.02-15.37-10.75-19.7a23.3 23.3 0 0 0-12.67-3.73" class="cls-23"/><path d="M848.28 740.66c-12.64 0-22.92-10.28-22.92-22.92s10.28-22.92 22.92-22.92 22.92 10.28 22.92 22.92-10.28 22.92-22.92 22.92" class="cls-16"/><path d="M848.28 695.31c12.38 0 22.42 10.04 22.42 22.42s-10.04 22.42-22.42 22.42-22.42-10.04-22.42-22.42 10.04-22.42 22.42-22.42m0-1c-12.92 0-23.42 10.51-23.42 23.42s10.51 23.42 23.42 23.42 23.42-10.51 23.42-23.42-10.51-23.42-23.42-23.42" class="cls-23"/><path d="M941.56 114.99c0-50.72-40.52-91.83-90.51-91.83H148.91c-49.99 0-90.51 41.11-90.51 91.83V471.2h85.84v9.16h711.68v-9.16h85.64z" class="cls-1"/><path d="M800.28 832.1c-7.98 0-14.47-6.49-14.47-14.47s6.49-14.47 14.47-14.47 14.47 6.49 14.47 14.47-6.49 14.47-14.47 14.47" class="cls-27"/><path d="M800.28 803.65c7.72 0 13.97 6.26 13.97 13.97s-6.26 13.97-13.97 13.97-13.97-6.26-13.97-13.97 6.26-13.97 13.97-13.97m0-1c-8.26 0-14.97 6.72-14.97 14.97s6.72 14.97 14.97 14.97 14.97-6.72 14.97-14.97-6.72-14.97-14.97-14.97" class="cls-23"/><path d="M709.14 60.08c-6.01 0-10.9-4.89-10.9-10.91s4.89-10.91 10.9-10.91 10.91 4.89 10.91 10.91-4.89 10.91-10.91 10.91" class="cls-16"/><path d="M709.14 38.77c5.75 0 10.41 4.66 10.41 10.41s-4.66 10.41-10.41 10.41-10.41-4.66-10.41-10.41 4.66-10.41 10.41-10.41m0-1c-6.29 0-11.41 5.12-11.41 11.41s5.12 11.41 11.41 11.41 11.41-5.12 11.41-11.41-5.12-11.41-11.41-11.41" class="cls-23"/><path d="M290.12 60.08c-6.01 0-10.91-4.89-10.91-10.91s4.89-10.91 10.91-10.91 10.9 4.89 10.9 10.91-4.89 10.91-10.9 10.91" class="cls-16"/><path d="M290.12 38.77c5.75 0 10.41 4.66 10.41 10.41s-4.66 10.41-10.41 10.41-10.41-4.66-10.41-10.41 4.66-10.41 10.41-10.41m0-1c-6.29 0-11.41 5.12-11.41 11.41s5.12 11.41 11.41 11.41 11.41-5.12 11.41-11.41-5.12-11.41-11.41-11.41" class="cls-23"/><path d="M800.28 592.91c-8.93 0-16.19-7.26-16.19-16.19s7.26-16.19 16.19-16.19 16.19 7.26 16.19 16.19-7.26 16.19-16.19 16.19" style="fill:#918d8e"/><path d="M800.28 561.52c8.39 0 15.19 6.8 15.19 15.19s-6.8 15.19-15.19 15.19-15.19-6.8-15.19-15.19 6.8-15.19 15.19-15.19m0-2c-9.48 0-17.19 7.71-17.19 17.19s7.71 17.19 17.19 17.19 17.19-7.71 17.19-17.19-7.71-17.19-17.19-17.19" style="fill:#232323"/><path d="M800.28 887.7c-7.98 0-14.47-6.49-14.47-14.47s6.49-14.47 14.47-14.47 14.47 6.49 14.47 14.47-6.49 14.47-14.47 14.47" class="cls-27"/><path d="M800.28 859.25c7.72 0 13.97 6.26 13.97 13.97s-6.26 13.97-13.97 13.97-13.97-6.26-13.97-13.97 6.26-13.97 13.97-13.97m0-1c-8.26 0-14.97 6.72-14.97 14.97s6.72 14.97 14.97 14.97 14.97-6.72 14.97-14.97-6.72-14.97-14.97-14.97" class="cls-23"/><path d="M803.03 695.42c-12.64 0-22.92-10.28-22.92-22.92s10.28-22.92 22.92-22.92 22.92 10.28 22.92 22.92-10.28 22.92-22.92 22.92" class="cls-16"/><path d="M803.03 650.07c12.38 0 22.42 10.04 22.42 22.42s-10.04 22.42-22.42 22.42-22.42-10.04-22.42-22.42 10.04-22.42 22.42-22.42m0-1c-12.92 0-23.42 10.51-23.42 23.42s10.51 23.42 23.42 23.42 23.42-10.51 23.42-23.42-10.51-23.42-23.42-23.42" class="cls-23"/><path d="M893.52 695.42c-12.64 0-22.92-10.28-22.92-22.92s10.28-22.92 22.92-22.92 22.92 10.28 22.92 22.92-10.28 22.92-22.92 22.92" class="cls-16"/><path d="M893.52 650.07c12.38 0 22.42 10.04 22.42 22.42s-10.04 22.42-22.42 22.42-22.42-10.04-22.42-22.42 10.04-22.42 22.42-22.42m0-1c-12.92 0-23.42 10.51-23.42 23.42s10.51 23.42 23.42 23.42 23.42-10.51 23.42-23.42-10.51-23.42-23.42-23.42" class="cls-23"/><path d="M151.37 684.78c-32.73 0-59.36-26.63-59.36-59.36s26.63-59.36 59.36-59.36 59.36 26.63 59.36 59.36-26.63 59.36-59.36 59.36" class="cls-1"/><path d="M151.37 567.56c31.95 0 57.86 25.9 57.86 57.86s-25.9 57.86-57.86 57.86-57.86-25.9-57.86-57.86 25.9-57.86 57.86-57.86m0-3c-33.56 0-60.86 27.3-60.86 60.86s27.3 60.86 60.86 60.86 60.86-27.3 60.86-60.86-27.3-60.86-60.86-60.86" style="fill:#7b3438"/><circle cx="151.37" cy="625.42" r="40.25" style="fill:#a5a4a4"/><path d="M726.68 970.97H271.9c-17.87 0-32.35-14.49-32.35-32.35V528.04h519.49v410.58c0 17.87-14.49 32.35-32.35 32.35Z" class="cls-9"/><circle cx="151.37" cy="625.42" r="32.04" style="fill:#bcbbc1"/><path d="M486.83 965.24c-9.2 0-16.68-7.48-16.68-16.68s7.48-16.68 16.68-16.68h27.11c9.2 0 16.68 7.48 16.68 16.68s-7.48 16.68-16.68 16.68z" style="fill:#892f3f"/><path d="M513.95 932.39c8.93 0 16.18 7.24 16.18 16.18 0 8.93-7.24 16.18-16.18 16.18h-27.11c-8.93 0-16.18-7.24-16.18-16.18 0-8.93 7.24-16.18 16.18-16.18zm0-1h-27.11c-9.47 0-17.18 7.71-17.18 17.18s7.71 17.18 17.18 17.18h27.11c9.47 0 17.18-7.71 17.18-17.18s-7.71-17.18-17.18-17.18" class="cls-9"/><rect width="483.01" height="366.27" x="258.86" y="551.84" class="cls-5" rx="4.19" ry="4.19"/><path d="M810.06 470.24H189.88c-2.31 0-4.19-1.87-4.19-4.19V96.64c0-11.33 9.18-20.51 20.51-20.51h587.54c11.33 0 20.51 9.18 20.51 20.51v369.41c0 2.31-1.87 4.19-4.19 4.19" class="cls-18"/><rect width="597.27" height="361.59" x="201.34" y="92.39" class="cls-5" rx="4.19" ry="4.19"/><rect width="20.51" height="20.51" x="865.06" y="72.41" class="cls-18" rx="5.35" ry="5.35"/><rect width="20.51" height="20.51" x="865.06" y="437.42" class="cls-18" rx="5.35" ry="5.35"/><rect width="20.51" height="20.51" x="115.9" y="437.42" class="cls-18" rx="5.35" ry="5.35"/><rect width="20.51" height="20.51" x="115.9" y="437.42" class="cls-18" rx="5.35" ry="5.35"/><rect width="20.51" height="20.51" x="115.9" y="71.88" class="cls-18" rx="5.35" ry="5.35"/><circle cx="876.81" cy="236.65" r="3.68"/><circle cx="852.24" cy="236.65" r="3.68"/><circle cx="901.39" cy="236.65" r="3.68"/><circle cx="876.81" cy="261.23" r="3.68"/><circle cx="876.81" cy="212.08" r="3.68"/><circle cx="123.34" cy="236.65" r="3.68"/><circle cx="98.76" cy="236.65" r="3.68"/><circle cx="147.92" cy="236.65" r="3.68"/><circle cx="123.34" cy="261.23" r="3.68"/><circle cx="123.34" cy="212.08" r="3.68"/><path d="M84.02 473.77h60.22v54.27H84.02c-14.47 0-26.22-11.75-26.22-26.22V500c0-14.47 11.75-26.22 26.22-26.22Zm832.09 54.26h-60.22v-54.27h60.22c14.47 0 26.22 11.75 26.22 26.22v1.82c0 14.47-11.75 26.22-26.22 26.22Zm-771.18-54.26H855.2v54.27H144.93z" style="fill:#8f2835"/><ellipse cx="805.55" cy="518.61" rx="24.94" ry="7.42" style="fill:#722635"/><path d="M892.52 494.34h10.79v10.79h-10.79z" style="fill:#606161"/><path d="M835.12 962.47h7.52v14.35h-7.52z" style="fill:#b1d235"/><path d="M752.54 962.47h7.52v14.35h-7.52z" style="fill:#27a5da"/><path d="M793.78 962.47h7.52v14.35h-7.52z" class="cls-6"/><path d="M930.79 307.56h10.71v27.84h-10.71c-.91 0-1.65-.74-1.65-1.65v-24.54c0-.91.74-1.65 1.65-1.65Z" style="stroke-width:.35px;fill:#bcb8c4;stroke:#7c797a;stroke-miterlimit:10"/><rect width="13.73" height="4.32" x="929.14" y="318.92" rx="1.37" ry="1.37" style="fill:#bcb8c4;stroke:#7c797a;stroke-miterlimit:10;stroke-width:.41px"/><path d="M934.76 335.58h6.84v60.68h-6.84z" class="cls-7"/><path d="M58 333.4v-28.84h11.21c1.18 0 2.15.96 2.15 2.15v24.54c0 1.18-.96 2.15-2.15 2.15z" class="cls-14"/><path d="M69.21 305.06c.91 0 1.65.74 1.65 1.65v24.54c0 .91-.74 1.65-1.65 1.65H58.5v-27.84zm0-1H57.5v29.84h11.71c1.46 0 2.65-1.19 2.65-2.65v-24.54c0-1.46-1.19-2.65-2.65-2.65" class="cls-3"/><rect width="14.73" height="5.32" x="56.63" y="315.93" class="cls-14" rx="1.87" ry="1.87"/><path d="M69.48 316.43c.76 0 1.37.62 1.37 1.37v1.57c0 .76-.62 1.37-1.37 1.37H58.5c-.76 0-1.37-.62-1.37-1.37v-1.57c0-.76.62-1.37 1.37-1.37zm0-1H58.5c-1.31 0-2.37 1.07-2.37 2.37v1.57c0 1.31 1.07 2.37 2.37 2.37h10.98c1.31 0 2.37-1.07 2.37-2.37v-1.57c0-1.31-1.07-2.37-2.37-2.37" class="cls-3"/><path d="M65.24 393.75H58.4v-59.79h6.84z" class="cls-7"/><circle cx="492.93" cy="46.49" r="16.11" class="cls-12"/><circle cx="492.93" cy="46.49" r="9.99" class="cls-6"/><circle cx="523.16" cy="46.49" r="6.84" class="cls-12"/></svg>