<?xml version="1.0" encoding="UTF-8"?>
<svg id="TEXT" xmlns="http://www.w3.org/2000/svg" viewBox="0 0 1000 1000">
  <defs>
    <style>
      .cls-1 {
        fill: #cccccb;
      }

      .cls-2 {
        fill: #c1c3c4;
      }

      .cls-3 {
        fill: #efeeed;
      }

      .cls-4 {
        fill: #4c4c4d;
      }

      .cls-5 {
        fill: #515193;
      }

      .cls-6 {
        fill: #f9b23f;
      }

      .cls-7 {
        fill: #59598f;
      }

      .cls-8 {
        fill: #485daa;
      }

      .cls-9 {
        fill: #66669e;
      }

      .cls-10 {
        fill: #e5e5e5;
      }

      .cls-11 {
        fill: #bbbdbf;
      }

      .cls-12 {
        fill: #8c8c8c;
      }

      .cls-13 {
        fill: #41bfba;
      }

      .cls-14 {
        fill: #ed1f32;
      }

      .cls-15 {
        fill: #fee23a;
      }
    </style>
  </defs>
  <ellipse class="cls-10" cx="199.93" cy="294.52" rx="107.02" ry="145.52"/>
  <ellipse class="cls-10" cx="790.78" cy="294.52" rx="107.02" ry="145.52"/>
  <path class="cls-8" d="M867.54,240.28l-129.37-60.45c-5.52-2.58-7.9-9.13-5.31-14.63l2.12-8.14c2.19-4.65,7.23-5.69,12.38-6.07,42.35-3.16,110.14,23.38,140.85,55.32,3.1,3.22,3.75,8.07,1.85,12.1l-7.82,16.57c-2.59,5.5-9.17,7.86-14.69,5.28Z"/>
  <path class="cls-5" d="M34.97,360.21s-18.62,208.71-17.7,272.2,3.66,137.62,36.02,178.94,90.65,19.75,104.39-42.53c20.15-63.49,25.03-198.08,50.97-211.14S52.98,351.7,52.98,351.7l-18.01,8.51Z"/>
  <path class="cls-5" d="M959.49,360.21s18.62,208.71,17.7,272.2-3.66,137.62-36.02,178.94c-32.35,41.32-90.65,19.75-104.39-42.53-20.15-63.49-25.03-198.08-50.97-211.14-25.94-13.06,155.67-205.97,155.67-205.97l18.01,8.51Z"/>
  <path class="cls-5" d="M834.29,512.33c-227.73-117.26-458.8-114.03-692.94,0l8.09-312.59c229.81-111.16,467.02-109.29,699.35,4.1l-14.5,308.49Z"/>
  <path class="cls-9" d="M957.08,359.98c0-94.76-77.18-171.57-172.38-171.57s-172.38,76.81-172.38,171.57c0,3.89.14,7.74.4,11.57h-.01c1.1,33.48,1.16,65.42-37.54,98.37h0c-29.62,22.75-48.7,58.43-48.7,98.54,0,68.71,55.96,124.41,124.99,124.41,60.21,0,110.47-42.38,122.33-98.8h0c5.86-24.09,28.88-47.75,85.97-79.6h0c57.59-27.78,97.31-86.51,97.31-154.49Z"/>
  <path class="cls-9" d="M33.48,364.42c-1.77-94.74,73.96-172.97,169.15-174.73,95.18-1.76,173.78,73.61,175.55,168.35.07,3.89,0,7.75-.18,11.57h.01c-.48,33.5.06,65.43,39.37,97.66h0c30.04,22.2,49.78,57.52,50.53,97.63,1.28,68.7-53.63,125.42-122.65,126.69-60.2,1.11-111.24-40.33-124.16-96.52h0c-6.31-23.98-29.77-47.21-87.44-78h0c-58.1-26.71-98.9-84.7-100.17-152.66Z"/>
  <ellipse class="cls-5" cx="201.54" cy="351.09" rx="110.04" ry="109.52"/>
  <ellipse class="cls-7" cx="337.17" cy="567.94" rx="75.11" ry="74.75"/>
  <ellipse class="cls-5" cx="786.3" cy="357.29" rx="110.04" ry="109.52"/>
  <path class="cls-4" d="M206.58,270.46l48.39,21.03c2.89,1.25,5.19,3.55,6.45,6.43l21.09,48.09c1.42,3.24,1.42,6.93,0,10.16l-21.09,48.09c-1.26,2.88-3.57,5.18-6.45,6.43l-48.39,21.03c-3.22,1.4-6.87,1.4-10.08,0l-48.39-21.03c-2.89-1.25-5.19-3.55-6.45-6.43l-21.09-48.09c-1.42-3.24-1.42-6.93,0-10.16l21.09-48.09c1.26-2.88,3.57-5.18,6.45-6.43l48.39-21.03c3.22-1.4,6.87-1.4,10.08,0Z"/>
  <path class="cls-4" d="M657.66,488.2l47.76,20.75c2.85,1.24,5.12,3.5,6.37,6.35l20.82,47.46c1.4,3.2,1.4,6.83,0,10.03l-20.82,47.46c-1.25,2.84-3.52,5.11-6.37,6.35l-47.76,20.75c-3.17,1.38-6.78,1.38-9.95,0l-47.76-20.75c-2.85-1.24-5.12-3.5-6.37-6.35l-20.82-47.46c-1.4-3.2-1.4-6.83,0-10.03l20.82-47.46c1.25-2.84,3.52-5.11,6.37-6.35l47.76-20.75c3.17-1.38,6.78-1.38,9.95,0Z"/>
  <ellipse class="cls-10" cx="494.36" cy="361.8" rx="22.97" ry="22.86"/>
  <ellipse class="cls-14" cx="679.85" cy="411.01" rx="37.46" ry="37.28"/>
  <ellipse class="cls-6" cx="652.69" cy="567.77" rx="74.94" ry="74.59"/>
  <ellipse class="cls-15" cx="652.69" cy="567.77" rx="42.06" ry="41.86"/>
  <ellipse class="cls-12" cx="201.54" cy="351.09" rx="68.34" ry="68.02"/>
  <ellipse class="cls-1" cx="201.54" cy="351.09" rx="57.87" ry="57.6"/>
  <path class="cls-3" d="M201.54,308.91c23.38,0,42.4,18.93,42.4,42.19s-19.02,42.19-42.4,42.19-42.4-18.93-42.4-42.19,19.02-42.19,42.4-42.19M201.54,304.9c-25.63,0-46.41,20.68-46.41,46.2s20.78,46.2,46.41,46.2,46.41-20.68,46.41-46.2-20.78-46.2-46.41-46.2h0Z"/>
  <path class="cls-3" d="M201.54,323.54c15.28,0,27.7,12.36,27.7,27.55s-12.43,27.55-27.7,27.55-27.7-12.36-27.7-27.55,12.43-27.55,27.7-27.55M201.54,319.53c-17.51,0-31.71,14.13-31.71,31.56s14.2,31.56,31.71,31.56,31.71-14.13,31.71-31.56-14.2-31.56-31.71-31.56h0Z"/>
  <path class="cls-3" d="M201.54,338.25c7.12,0,12.92,5.76,12.92,12.84s-5.8,12.84-12.92,12.84-12.92-5.76-12.92-12.84,5.8-12.84,12.92-12.84M201.54,334.24c-9.35,0-16.93,7.54-16.93,16.85s7.58,16.85,16.93,16.85,16.93-7.54,16.93-16.85-7.58-16.85-16.93-16.85h0Z"/>
  <ellipse class="cls-13" cx="786.3" cy="357.29" rx="57.1" ry="56.83"/>
  <path class="cls-1" d="M730.47,290.49c-8.25,0-16.33-4.04-21.14-11.46-7.52-11.61-2.6-25.09,7.5-34.56,18.23-17.09,41.97-23.69,71.44-18.79,13.68,2.28,24.48,12.51,23.74,26.3-.74,13.79-12.57,24.36-26.43,23.63-15.48-.83-28.67,2.63-41.53,10.89-4.21,2.7-8.92,3.99-13.59,3.99Z"/>
  <path class="cls-1" d="M855.1,303.47c0-8.21,4.06-16.26,11.51-21.04,11.66-7.48,25.21-2.58,34.72,7.47,17.17,18.15,23.8,41.78,18.88,71.11-2.29,13.62-12.57,24.37-26.43,23.63-13.85-.74-24.48-12.51-23.74-26.3.83-15.4-2.65-28.54-10.94-41.34-2.71-4.19-4.01-8.88-4.01-13.52Z"/>
  <path class="cls-1" d="M396.57,547.66h-35.25c-2.09,0-3.78-1.68-3.78-3.76v-35.09c0-2.08-1.69-3.76-3.78-3.76h-33.19c-2.09,0-3.78,1.68-3.78,3.76v35.09c0,2.08-1.69,3.76-3.78,3.76h-35.25c-2.09,0-3.78,1.68-3.78,3.76v33.04c0,2.08,1.69,3.76,3.78,3.76h35.25c2.09,0,3.78,1.68,3.78,3.76v35.09c0,2.08,1.69,3.76,3.78,3.76h33.19c2.09,0,3.78-1.68,3.78-3.76v-35.09c0-2.08,1.69-3.76,3.78-3.76h35.25c2.09,0,3.78-1.68,3.78-3.76v-33.04c0-2.08-1.69-3.76-3.78-3.76Z"/>
  <g>
    <path class="cls-2" d="M385.17,210.12v-3.79h-13.65v17.78h-7.2v-23.67h22.37c.69,0,1.37.15,2.05.45.68.3,1.28.73,1.82,1.28.54.55.96,1.2,1.28,1.96.32.75.48,1.58.48,2.49v2.84c0,.82-.17,1.61-.52,2.37-.34.75-.79,1.41-1.32,1.98-.54.56-1.14,1.02-1.8,1.36-.66.34-1.3.51-1.9.51l5.25,8.44h-15.05v-13.99h8.19Z"/>
    <path class="cls-2" d="M400.72,200.44h17.91c.69,0,1.34.17,1.96.51.62.34,1.16.8,1.61,1.36.45.56.82,1.22,1.1,1.98.28.75.41,1.54.41,2.37v11.24c0,.88-.14,1.69-.41,2.45-.28.76-.64,1.41-1.1,1.96-.46.55-.99.99-1.61,1.32-.62.33-1.28.49-1.96.49h-17.91c-.69,0-1.34-.16-1.94-.49-.61-.33-1.14-.77-1.59-1.32-.46-.55-.81-1.2-1.08-1.96-.26-.75-.39-1.57-.39-2.45v-11.24c0-.85.13-1.66.39-2.43.26-.77.62-1.43,1.08-1.98.45-.55.99-.99,1.59-1.32.61-.33,1.25-.49,1.94-.49ZM416.47,218.22v-11.89h-13.56v11.89h13.56Z"/>
    <path class="cls-2" d="M448.31,206.33v17.78h-7.24v-17.78h-6.82v17.78h-7.19v-17.7c0-.82.14-1.6.41-2.33.28-.73.64-1.36,1.1-1.89.45-.54.98-.96,1.57-1.28.59-.31,1.22-.47,1.88-.47h30.35v23.67h-7.24v-17.78h-6.82Z"/>
    <path class="cls-2" d="M486.98,206.33v17.78h-7.24v-17.78h-6.82v17.78h-7.19v-17.7c0-.82.14-1.6.41-2.33.28-.73.64-1.36,1.1-1.89.45-.54.98-.96,1.57-1.28.59-.31,1.22-.47,1.88-.47h30.35v23.67h-7.24v-17.78h-6.82Z"/>
    <path class="cls-2" d="M532.42,218.22v5.89h-22.99c-.69,0-1.34-.16-1.94-.49-.61-.33-1.14-.78-1.59-1.34-.45-.56-.81-1.22-1.08-1.98-.26-.75-.39-1.56-.39-2.41v-11.24c0-.85.13-1.65.39-2.41.26-.75.62-1.41,1.08-1.98.46-.56.99-1.01,1.59-1.34.61-.33,1.25-.49,1.94-.49h22.99v5.89h-20.8v11.89h20.8Z"/>
    <path class="cls-2" d="M556.53,218.22v-17.78h7.24v23.67h-22.99c-.69,0-1.34-.16-1.94-.49-.61-.33-1.14-.77-1.59-1.32-.45-.55-.81-1.2-1.08-1.96-.26-.75-.39-1.57-.39-2.45v-17.45h7.2v17.78h13.56Z"/>
    <path class="cls-2" d="M567.16,209.58h20.84v-3.25h-20.84v-5.89h22.37c.69,0,1.37.15,2.05.45.68.3,1.28.73,1.82,1.28.54.55.96,1.2,1.28,1.96.32.75.48,1.58.48,2.49v2.22c0,.55-.12,1.15-.35,1.81s-.56,1.21-.97,1.65c.47.44.81.99,1.01,1.65.21.66.31,1.26.31,1.81v2.18c0,.91-.16,1.74-.48,2.49-.32.75-.74,1.41-1.28,1.96-.54.55-1.14.97-1.82,1.28-.68.3-1.36.45-2.05.45h-22.37v-14.53ZM574.35,215.06v3.17h13.65v-3.17h-13.65Z"/>
    <path class="cls-2" d="M605.74,218.22h20.8v5.89h-22.99c-.69,0-1.34-.16-1.94-.49-.61-.33-1.14-.78-1.59-1.34-.45-.56-.81-1.22-1.08-1.98-.26-.75-.39-1.56-.39-2.41v-11.24c0-.85.13-1.65.39-2.41.26-.75.62-1.41,1.08-1.98.46-.56.99-1.01,1.59-1.34.61-.33,1.25-.49,1.94-.49h22.99v5.89h-20.8v11.89ZM625.05,215.06h-15.26v-5.52h15.26v5.52Z"/>
  </g>
  <g>
    <path class="cls-11" d="M392.62,196.2h-4.2l-4.7-8.96h-.35v8.96h-4.05v-19.1h5.6c4.57,0,6.85,1.63,6.85,4.89,0,1.48-.34,2.59-1.01,3.34-.68.75-1.77,1.31-3.3,1.69l5.16,9.17ZM383.37,185.48c1.57-.02,2.7-.26,3.4-.71.7-.46,1.05-1.28,1.05-2.48s-.32-1.97-.95-2.46c-.64-.49-1.72-.73-3.26-.73h-.24v6.39Z"/>
    <path class="cls-11" d="M403.65,186.6c0-4.14.64-6.83,1.92-8.04,1.28-1.22,3.39-1.83,6.32-1.83,3.36,0,5.59.68,6.7,2.04s1.66,3.82,1.66,7.36c0,3.18-.25,5.38-.74,6.61-.49,1.23-1.35,2.13-2.57,2.71-1.22.58-2.87.87-4.96.87s-3.8-.27-4.95-.8c-1.15-.53-2-1.4-2.55-2.6-.56-1.2-.84-3.31-.84-6.32ZM416.01,186.75c0-3.62-.33-5.86-1-6.72-.67-.85-1.67-1.28-3.01-1.28-1.57,0-2.65.51-3.24,1.54-.58,1.02-.87,2.75-.87,5.17v1.05c0,2.71.24,4.68.71,5.92.47,1.24,1.61,1.86,3.4,1.86,1.1,0,2.05-.35,2.83-1.05.79-.7,1.18-2.63,1.18-5.8v-.7Z"/>
    <path class="cls-11" d="M453.41,196.2h-3.74l-1.52-12.22h-.09l-4.09,12.22h-2.52l-3.87-12.22h-.12l-1.58,12.22h-3.79l2.94-19.1h3.5l4.18,13.39h.09l4.27-13.39h3.5l2.83,19.1Z"/>
    <path class="cls-11" d="M485.28,196.2h-3.74l-1.52-12.22h-.09l-4.09,12.22h-2.52l-3.87-12.22h-.12l-1.58,12.22h-3.79l2.94-19.1h3.5l4.18,13.39h.09l4.27-13.39h3.5l2.83,19.1Z"/>
    <path class="cls-11" d="M508.43,179.27h-4.59v16.93h-4.05v-16.93h-4.57v-2.17h13.21v2.17Z"/>
    <path class="cls-11" d="M530.71,196.2h-10.86v-19.1h10.67v2.17h-6.66v6.06h6.17v2.17h-6.17v6.58h6.85v2.11Z"/>
    <path class="cls-11" d="M556.9,196.2h-3.18l-7.65-13.11h-.09v13.11h-3.63v-19.1h3.23l7.68,13.11h.09s0-13.11,0-13.11h3.56v19.1Z"/>
    <path class="cls-11" d="M570.26,177.1h5.84c2.76,0,4.94.66,6.53,1.99,1.59,1.32,2.39,3.82,2.39,7.47s-.7,6.02-2.1,7.47c-1.4,1.45-3.91,2.17-7.54,2.17h-5.13v-19.1ZM574.31,179.06v15.2c1.7,0,2.98-.2,3.86-.6.88-.4,1.53-1.14,1.97-2.23s.65-2.72.65-4.9c0-2.78-.4-4.72-1.21-5.82-.81-1.1-2.38-1.65-4.72-1.65h-.54Z"/>
    <path class="cls-11" d="M597.28,186.6c0-4.14.64-6.83,1.92-8.04,1.28-1.22,3.39-1.83,6.32-1.83,3.36,0,5.59.68,6.7,2.04,1.11,1.36,1.66,3.82,1.66,7.36,0,3.18-.25,5.38-.74,6.61-.49,1.23-1.35,2.13-2.57,2.71-1.22.58-2.87.87-4.96.87s-3.8-.27-4.95-.8c-1.15-.53-2-1.4-2.55-2.6-.56-1.2-.84-3.31-.84-6.32ZM609.64,186.75c0-3.62-.33-5.86-1-6.72s-1.67-1.28-3.01-1.28c-1.57,0-2.65.51-3.24,1.54-.58,1.02-.87,2.75-.87,5.17v1.05c0,2.71.24,4.68.71,5.92.47,1.24,1.61,1.86,3.4,1.86,1.1,0,2.05-.35,2.83-1.05.79-.7,1.18-2.63,1.18-5.8v-.7Z"/>
  </g>
</svg>