<svg xmlns="http://www.w3.org/2000/svg" id="TEXT" viewBox="0 0 1000 1000"><defs><style>.cls-1{fill:#cccccb}.cls-3{fill:#efeeed}.cls-5{fill:#515193}.cls-10{fill:#e5e5e5}</style></defs><ellipse cx="199.93" cy="294.52" class="cls-10" rx="107.02" ry="145.52"/><ellipse cx="790.78" cy="294.52" class="cls-10" rx="107.02" ry="145.52"/><path d="m867.54 240.28-129.37-60.45c-5.52-2.58-7.9-9.13-5.31-14.63l2.12-8.14c2.19-4.65 7.23-5.69 12.38-6.07 42.35-3.16 110.14 23.38 140.85 55.32 3.1 3.22 3.75 8.07 1.85 12.1l-7.82 16.57c-2.59 5.5-9.17 7.86-14.69 5.28Z" style="fill:#485daa"/><path d="M34.97 360.21s-18.62 208.71-17.7 272.2 3.66 137.62 36.02 178.94 90.65 19.75 104.39-42.53c20.15-63.49 25.03-198.08 50.97-211.14S52.98 351.7 52.98 351.7zm924.52 0s18.62 208.71 17.7 272.2-3.66 137.62-36.02 178.94c-32.35 41.32-90.65 19.75-104.39-42.53-20.15-63.49-25.03-198.08-50.97-211.14s155.67-205.97 155.67-205.97l18.01 8.51Z" class="cls-5"/><path d="M834.29 512.33c-227.73-117.26-458.8-114.03-692.94 0l8.09-312.59c229.81-111.16 467.02-109.29 699.35 4.1z" class="cls-5"/><path d="M957.08 359.98c0-94.76-77.18-171.57-172.38-171.57s-172.38 76.81-172.38 171.57c0 3.89.14 7.74.4 11.57h-.01c1.1 33.48 1.16 65.42-37.54 98.37-29.62 22.75-48.7 58.43-48.7 98.54 0 68.71 55.96 124.41 124.99 124.41 60.21 0 110.47-42.38 122.33-98.8 5.86-24.09 28.88-47.75 85.97-79.6 57.59-27.78 97.31-86.51 97.31-154.49Zm-923.6 4.44c-1.77-94.74 73.96-172.97 169.15-174.73 95.18-1.76 173.78 73.61 175.55 168.35.07 3.89 0 7.75-.18 11.57h.01c-.48 33.5.06 65.43 39.37 97.66 30.04 22.2 49.78 57.52 50.53 97.63 1.28 68.7-53.63 125.42-122.65 126.69-60.2 1.11-111.24-40.33-124.16-96.52-6.31-23.98-29.77-47.21-87.44-78-58.1-26.71-98.9-84.7-100.17-152.66Z" style="fill:#66669e"/><ellipse cx="201.54" cy="351.09" class="cls-5" rx="110.04" ry="109.52"/><ellipse cx="337.17" cy="567.94" rx="75.11" ry="74.75" style="fill:#59598f"/><ellipse cx="786.3" cy="357.29" class="cls-5" rx="110.04" ry="109.52"/><path d="m206.58 270.46 48.39 21.03c2.89 1.25 5.19 3.55 6.45 6.43l21.09 48.09c1.42 3.24 1.42 6.93 0 10.16l-21.09 48.09a12.46 12.46 0 0 1-6.45 6.43l-48.39 21.03c-3.22 1.4-6.87 1.4-10.08 0l-48.39-21.03a12.43 12.43 0 0 1-6.45-6.43l-21.09-48.09a12.65 12.65 0 0 1 0-10.16l21.09-48.09c1.26-2.88 3.57-5.18 6.45-6.43l48.39-21.03c3.22-1.4 6.87-1.4 10.08 0M657.66 488.2l47.76 20.75c2.85 1.24 5.12 3.5 6.37 6.35l20.82 47.46c1.4 3.2 1.4 6.83 0 10.03l-20.82 47.46a12.34 12.34 0 0 1-6.37 6.35l-47.76 20.75a12.47 12.47 0 0 1-9.95 0l-47.76-20.75c-2.85-1.24-5.12-3.5-6.37-6.35l-20.82-47.46c-1.4-3.2-1.4-6.83 0-10.03l20.82-47.46c1.25-2.84 3.52-5.11 6.37-6.35l47.76-20.75c3.17-1.38 6.78-1.38 9.95 0" style="fill:#4c4c4d"/><ellipse cx="494.36" cy="361.8" class="cls-10" rx="22.97" ry="22.86"/><ellipse cx="679.85" cy="411.01" rx="37.46" ry="37.28" style="fill:#ed1f32"/><ellipse cx="652.69" cy="567.77" rx="74.94" ry="74.59" style="fill:#f9b23f"/><ellipse cx="652.69" cy="567.77" rx="42.06" ry="41.86" style="fill:#fee23a"/><ellipse cx="201.54" cy="351.09" rx="68.34" ry="68.02" style="fill:#8c8c8c"/><ellipse cx="201.54" cy="351.09" class="cls-1" rx="57.87" ry="57.6"/><path d="M201.54 308.91c23.38 0 42.4 18.93 42.4 42.19s-19.02 42.19-42.4 42.19-42.4-18.93-42.4-42.19 19.02-42.19 42.4-42.19m0-4.01c-25.63 0-46.41 20.68-46.41 46.2s20.78 46.2 46.41 46.2 46.41-20.68 46.41-46.2-20.78-46.2-46.41-46.2" class="cls-3"/><path d="M201.54 323.54c15.28 0 27.7 12.36 27.7 27.55s-12.43 27.55-27.7 27.55-27.7-12.36-27.7-27.55 12.43-27.55 27.7-27.55m0-4.01c-17.51 0-31.71 14.13-31.71 31.56s14.2 31.56 31.71 31.56 31.71-14.13 31.71-31.56-14.2-31.56-31.71-31.56" class="cls-3"/><path d="M201.54 338.25c7.12 0 12.92 5.76 12.92 12.84s-5.8 12.84-12.92 12.84-12.92-5.76-12.92-12.84 5.8-12.84 12.92-12.84m0-4.01c-9.35 0-16.93 7.54-16.93 16.85s7.58 16.85 16.93 16.85 16.93-7.54 16.93-16.85-7.58-16.85-16.93-16.85" class="cls-3"/><ellipse cx="786.3" cy="357.29" rx="57.1" ry="56.83" style="fill:#41bfba"/><path d="M730.47 290.49c-8.25 0-16.33-4.04-21.14-11.46-7.52-11.61-2.6-25.09 7.5-34.56 18.23-17.09 41.97-23.69 71.44-18.79 13.68 2.28 24.48 12.51 23.74 26.3s-12.57 24.36-26.43 23.63c-15.48-.83-28.67 2.63-41.53 10.89-4.21 2.7-8.92 3.99-13.59 3.99Zm124.63 12.98c0-8.21 4.06-16.26 11.51-21.04 11.66-7.48 25.21-2.58 34.72 7.47 17.17 18.15 23.8 41.78 18.88 71.11-2.29 13.62-12.57 24.37-26.43 23.63-13.85-.74-24.48-12.51-23.74-26.3.83-15.4-2.65-28.54-10.94-41.34a24.8 24.8 0 0 1-4.01-13.52ZM396.57 547.66h-35.25c-2.09 0-3.78-1.68-3.78-3.76v-35.09c0-2.08-1.69-3.76-3.78-3.76h-33.19c-2.09 0-3.78 1.68-3.78 3.76v35.09c0 2.08-1.69 3.76-3.78 3.76h-35.25c-2.09 0-3.78 1.68-3.78 3.76v33.04c0 2.08 1.69 3.76 3.78 3.76h35.25c2.09 0 3.78 1.68 3.78 3.76v35.09c0 2.08 1.69 3.76 3.78 3.76h33.19c2.09 0 3.78-1.68 3.78-3.76v-35.09c0-2.08 1.69-3.76 3.78-3.76h35.25c2.09 0 3.78-1.68 3.78-3.76v-33.04c0-2.08-1.69-3.76-3.78-3.76" class="cls-1"/><path d="M385.17 210.12v-3.79h-13.65v17.78h-7.2v-23.67h22.37c.69 0 1.37.15 2.05.45s1.28.73 1.82 1.28.96 1.2 1.28 1.96q.48 1.125.48 2.49v2.84c0 .82-.17 1.61-.52 2.37-.34.75-.79 1.41-1.32 1.98a6.9 6.9 0 0 1-1.8 1.36c-.66.34-1.3.51-1.9.51l5.25 8.44h-15.05v-13.99h8.19Zm15.55-9.68h17.91c.69 0 1.34.17 1.96.51s1.16.8 1.61 1.36.82 1.22 1.1 1.98c.28.75.41 1.54.41 2.37v11.24c0 .88-.14 1.69-.41 2.45-.28.76-.64 1.41-1.1 1.96s-.99.99-1.61 1.32-1.28.49-1.96.49h-17.91c-.69 0-1.34-.16-1.94-.49q-.915-.495-1.59-1.32c-.46-.55-.81-1.2-1.08-1.96-.26-.75-.39-1.57-.39-2.45v-11.24q0-1.275.39-2.43t1.08-1.98c.45-.55.99-.99 1.59-1.32.61-.33 1.25-.49 1.94-.49m15.75 17.78v-11.89h-13.56v11.89zm31.84-11.89v17.78h-7.24v-17.78h-6.82v17.78h-7.19v-17.7c0-.82.14-1.6.41-2.33.28-.73.64-1.36 1.1-1.89.45-.54.98-.96 1.57-1.28a4 4 0 0 1 1.88-.47h30.35v23.67h-7.24v-17.78zm38.67 0v17.78h-7.24v-17.78h-6.82v17.78h-7.19v-17.7c0-.82.14-1.6.41-2.33.28-.73.64-1.36 1.1-1.89.45-.54.98-.96 1.57-1.28a4 4 0 0 1 1.88-.47h30.35v23.67h-7.24v-17.78zm45.44 11.89v5.89h-22.99c-.69 0-1.34-.16-1.94-.49-.61-.33-1.14-.78-1.59-1.34q-.675-.84-1.08-1.98c-.26-.75-.39-1.56-.39-2.41v-11.24c0-.85.13-1.65.39-2.41q.39-1.125 1.08-1.98c.46-.56.99-1.01 1.59-1.34.61-.33 1.25-.49 1.94-.49h22.99v5.89h-20.8v11.89h20.8Zm24.11 0v-17.78h7.24v23.67h-22.99c-.69 0-1.34-.16-1.94-.49q-.915-.495-1.59-1.32c-.45-.55-.81-1.2-1.08-1.96-.26-.75-.39-1.57-.39-2.45v-17.45h7.2v17.78h13.56Zm10.63-8.64H588v-3.25h-20.84v-5.89h22.37c.69 0 1.37.15 2.05.45s1.28.73 1.82 1.28.96 1.2 1.28 1.96q.48 1.125.48 2.49v2.22c0 .55-.12 1.15-.35 1.81s-.56 1.21-.97 1.65c.47.44.81.99 1.01 1.65.21.66.31 1.26.31 1.81v2.18q0 1.365-.48 2.49c-.32.75-.74 1.41-1.28 1.96s-1.14.97-1.82 1.28c-.68.3-1.36.45-2.05.45h-22.37v-14.53Zm7.19 5.48v3.17H588v-3.17zm31.39 3.16h20.8v5.89h-22.99c-.69 0-1.34-.16-1.94-.49-.61-.33-1.14-.78-1.59-1.34q-.675-.84-1.08-1.98c-.26-.75-.39-1.56-.39-2.41v-11.24c0-.85.13-1.65.39-2.41q.39-1.125 1.08-1.98c.46-.56.99-1.01 1.59-1.34.61-.33 1.25-.49 1.94-.49h22.99v5.89h-20.8v11.89Zm19.31-3.16h-15.26v-5.52h15.26z" style="fill:#c1c3c4"/><path d="M392.62 196.2h-4.2l-4.7-8.96h-.35v8.96h-4.05v-19.1h5.6c4.57 0 6.85 1.63 6.85 4.89 0 1.48-.34 2.59-1.01 3.34-.68.75-1.77 1.31-3.3 1.69l5.16 9.17Zm-9.25-10.72c1.57-.02 2.7-.26 3.4-.71.7-.46 1.05-1.28 1.05-2.48s-.32-1.97-.95-2.46c-.64-.49-1.72-.73-3.26-.73h-.24v6.39Zm20.28 1.12c0-4.14.64-6.83 1.92-8.04 1.28-1.22 3.39-1.83 6.32-1.83 3.36 0 5.59.68 6.7 2.04s1.66 3.82 1.66 7.36c0 3.18-.25 5.38-.74 6.61s-1.35 2.13-2.57 2.71-2.87.87-4.96.87-3.8-.27-4.95-.8-2-1.4-2.55-2.6c-.56-1.2-.84-3.31-.84-6.32Zm12.36.15c0-3.62-.33-5.86-1-6.72-.67-.85-1.67-1.28-3.01-1.28-1.57 0-2.65.51-3.24 1.54-.58 1.02-.87 2.75-.87 5.17v1.05c0 2.71.24 4.68.71 5.92s1.61 1.86 3.4 1.86c1.1 0 2.05-.35 2.83-1.05.79-.7 1.18-2.63 1.18-5.8v-.7Zm37.4 9.45h-3.74l-1.52-12.22h-.09l-4.09 12.22h-2.52l-3.87-12.22h-.12l-1.58 12.22h-3.79l2.94-19.1h3.5l4.18 13.39h.09l4.27-13.39h3.5l2.83 19.1Zm31.87 0h-3.74l-1.52-12.22h-.09l-4.09 12.22h-2.52l-3.87-12.22h-.12l-1.58 12.22h-3.79l2.94-19.1h3.5l4.18 13.39h.09l4.27-13.39h3.5l2.83 19.1Zm23.15-16.93h-4.59v16.93h-4.05v-16.93h-4.57v-2.17h13.21zm22.28 16.93h-10.86v-19.1h10.67v2.17h-6.66v6.06h6.17v2.17h-6.17v6.58h6.85v2.11Zm26.19 0h-3.18l-7.65-13.11h-.09v13.11h-3.63v-19.1h3.23l7.68 13.11h.09V177.1h3.56v19.1Zm13.36-19.1h5.84c2.76 0 4.94.66 6.53 1.99 1.59 1.32 2.39 3.82 2.39 7.47s-.7 6.02-2.1 7.47-3.91 2.17-7.54 2.17h-5.13v-19.1Zm4.05 1.96v15.2c1.7 0 2.98-.2 3.86-.6s1.53-1.14 1.97-2.23.65-2.72.65-4.9c0-2.78-.4-4.72-1.21-5.82s-2.38-1.65-4.72-1.65h-.54Zm22.97 7.54c0-4.14.64-6.83 1.92-8.04 1.28-1.22 3.39-1.83 6.32-1.83 3.36 0 5.59.68 6.7 2.04s1.66 3.82 1.66 7.36c0 3.18-.25 5.38-.74 6.61s-1.35 2.13-2.57 2.71-2.87.87-4.96.87-3.8-.27-4.95-.8-2-1.4-2.55-2.6c-.56-1.2-.84-3.31-.84-6.32Zm12.36.15c0-3.62-.33-5.86-1-6.72s-1.67-1.28-3.01-1.28c-1.57 0-2.65.51-3.24 1.54-.58 1.02-.87 2.75-.87 5.17v1.05c0 2.71.24 4.68.71 5.92s1.61 1.86 3.4 1.86c1.1 0 2.05-.35 2.83-1.05.79-.7 1.18-2.63 1.18-5.8v-.7Z" style="fill:#bbbdbf"/></svg>