<?xml version="1.0" encoding="UTF-8"?>
<svg id="Layer_1" data-name="Layer 1" xmlns="http://www.w3.org/2000/svg" viewBox="0 0 1000 1000">
  <defs>
    <style>
      .cls-1 {
        fill: #181818;
      }

      .cls-2 {
        fill: #cccccb;
      }

      .cls-3 {
        fill: #e71d2f;
      }

      .cls-4 {
        fill: #232323;
      }

      .cls-5 {
        fill: #808daf;
      }

      .cls-6 {
        fill: #2d2d31;
      }

      .cls-7 {
        fill: #454d63;
      }

      .cls-8 {
        fill: #6b7a9b;
      }

      .cls-9 {
        fill: #596b93;
      }

      .cls-10 {
        fill: #7482a8;
      }

      .cls-11 {
        fill: #151515;
      }

      .cls-12 {
        fill: #cd3b3a;
      }

      .cls-13 {
        fill: #6d7da0;
      }

      .cls-14 {
        fill: #7a8486;
      }

      .cls-15 {
        fill: none;
        stroke: #232323;
        stroke-miterlimit: 10;
        stroke-width: 4.27px;
      }

      .cls-16 {
        fill: #646d82;
      }

      .cls-17 {
        fill: #3f4556;
      }
    </style>
  </defs>
  <path class="cls-5" d="M968.6,225.39v441.93c0,43.39-35.17,78.57-78.56,78.57-260.48,25.27-520.5,25.36-780.08,0-43.39,0-78.57-35.18-78.57-78.57V225.24c0-10.14,7.84-18.57,17.96-19.27,147.81-10.23,754.68-9.07,901.16.14,10.17.63,18.08,9.08,18.08,19.28Z"/>
  <path class="cls-10" d="M968.6,225.39v419.43c-9.52,3.51-19.81,5.42-30.55,5.42-293.2,28.46-585.91,28.55-878.1,0-9.99,0-19.6-1.66-28.55-4.71V225.24c0-10.14,7.84-18.57,17.96-19.27,147.81-10.23,754.68-9.07,901.16.14,10.17.63,18.08,9.08,18.08,19.28Z"/>
  <path class="cls-11" d="M714.62,647.03c-146.31,8.59-292.62,8.59-438.92,0-3.16,0-5.71-2.56-5.71-5.71V226.63c0-3.16,2.56-5.71,5.71-5.71h438.92c3.16,0,5.71,2.56,5.71,5.71v414.69c0,3.16-2.56,5.71-5.71,5.71Z"/>
  <rect class="cls-14" x="304.9" y="256.68" width="380.5" height="354.49" rx="4.79" ry="4.79"/>
  <rect class="cls-16" x="73.69" y="243.64" width="78.24" height="38.15" rx="19.07" ry="19.07"/>
  <rect class="cls-6" x="82.61" y="252.97" width="60.39" height="19.48" rx="9.74" ry="9.74"/>
  <circle class="cls-16" cx="900.92" cy="261.74" r="22.97"/>
  <circle class="cls-6" cx="900.92" cy="261.74" r="16.24"/>
  <circle class="cls-16" cx="203.55" cy="261.58" r="11.48"/>
  <circle class="cls-12" cx="203.55" cy="261.58" r="6.04"/>
  <g>
    <path id="path826" class="cls-2" d="M444.37,649.71h-1.1l-5.73-8.24v8.24h-1.13v-9.93h1.38l5.46,7.88v-7.88h1.12v9.93Z"/>
    <path id="path833" class="cls-2" d="M450.98,649.71h-5.54l-.02-9.93h5.54v1.12h-4.43v3.14h4.14v1.11h-4.14v3.62h4.44v.93Z"/>
    <path id="path837" class="cls-2" d="M456.65,639.49c-2.9,0-5.25,2.35-5.25,5.25h0c0,2.9,2.35,5.25,5.25,5.25h0c2.9,0,5.25-2.35,5.25-5.25h0c0-2.9-2.35-5.25-5.25-5.25h0ZM456.67,640.65c2.27,0,4.11,1.84,4.11,4.11h0c0,2.27-1.84,4.11-4.11,4.11-2.27,0-4.11-1.84-4.11-4.11,0-2.27,1.84-4.11,4.11-4.11Z"/>
    <path id="path837-2" class="cls-2" d="M484.79,639.49c-2.9,0-5.25,2.35-5.25,5.25h0c0,2.9,2.35,5.25,5.25,5.25h0c2.9,0,5.25-2.35,5.25-5.25h0c0-2.9-2.35-5.25-5.25-5.25h0ZM484.81,640.65c2.27,0,4.11,1.84,4.11,4.11h0c0,2.27-1.84,4.11-4.11,4.11-2.27,0-4.11-1.84-4.11-4.11,0-2.27,1.84-4.11,4.11-4.11Z"/>
    <g id="g879">
      <path id="path861" class="cls-2" d="M467.78,639.44c-.56,0-1.13.11-1.68.3-2.53.9-3.99,3.57-3.39,6.2s3.08,4.39,5.75,4.08,4.69-2.8,4.69-5.1h-1.25c0,1.74-1.54,3.63-3.59,3.86-2.05.23-3.93-1.1-4.4-3.12-.46-2.02.65-4.06,2.59-4.75,1.74-.62,3.63.02,4.66,1.49h1.44c-.88-1.81-2.68-2.91-4.59-2.97-.08,0-.16,0-.24,0h0Z"/>
      <path id="path871" class="cls-2" d="M473.16,644.92h-6.95v1.12h6.09l.86-1.12Z"/>
    </g>
    <path id="path833-0" class="cls-2" d="M479.34,649.71h-5.54l-.02-9.93h5.54v1.12h-4.43v3.14h4.14v1.11h-4.14v3.62h4.44v.93Z"/>
  </g>
  <g>
    <path id="path837-2-9" class="cls-2" d="M513.15,639.43c-2.92,0-5.29,2.37-5.29,5.29h0c0,2.92,2.37,5.29,5.29,5.29h0c2.92,0,5.29-2.37,5.29-5.29h0c0-2.92-2.37-5.29-5.29-5.29h0ZM513.16,640.59c2.29,0,4.14,1.85,4.14,4.14h0c0,2.29-1.85,4.14-4.14,4.14-2.29,0-4.14-1.85-4.14-4.14,0-2.29,1.85-4.14,4.14-4.14h0Z"/>
    <path id="path861-6" class="cls-2" d="M524.83,639.38h0c-.57,0-1.14.11-1.7.31-2.55.91-4.03,3.6-3.42,6.25.61,2.65,3.11,4.42,5.8,4.12,1.87-.21,3.43-1.5,4.2-3.04h-1.44c-.65.93-1.69,1.65-2.91,1.79-2.06.24-3.97-1.11-4.43-3.15-.47-2.04.66-4.09,2.61-4.78,1.75-.62,3.66.02,4.69,1.51h1.45c-.89-1.82-2.7-2.93-4.63-2.99-.08,0-.16,0-.24,0h0Z"/>
    <path id="path833-1" class="cls-2" d="M546.69,649.73h-5.59l-.02-10.01h5.59v1.13h-4.46v3.17h4.17v1.12h-4.17v3.65h4.47v.94Z"/>
    <g id="g955">
      <path id="rect945" class="cls-2" d="M531,639.71h1.14v10.01h-1.14v-10.01Z"/>
      <path id="path947" class="cls-2" d="M537.79,649.73h1.5l-5.19-5.39-.94.71,4.62,4.68Z"/>
      <path id="path949" class="cls-2" d="M537.76,639.71h1.48l-7.69,7.97.31-2.07,5.9-5.9Z"/>
    </g>
    <g id="g965">
      <path id="rect957" class="cls-2" d="M548.45,639.71h8.17v1.13h-8.17v-1.13Z"/>
      <path id="rect960" class="cls-2" d="M551.94,639.71h1.16v10.01h-1.16v-10.01Z"/>
    </g>
  </g>
  <path id="path990" class="cls-3" d="M496.55,637.42l2.19-6.31,5.81.02.05,2.83-3.84-.03-.78,2.91,3.94,2.85c1.94-.8,3.33-2.53,3.61-4.52.29-1.99-.58-3.92-2.25-5.02-1.67-1.11-3.87-1.18-5.75-.24l-6.33,3.14,9.54,19.22-2.48,1.23-10.83-21.82,9.01-4.47c2.95-1.46,6.46-1.11,8.97.91,2.51,2.02,3.55,5.32,2.65,8.44-.89,3.12-3.67,5.43-6.62,6.36l-6.89-5.47Z"/>
  <path id="path1001" class="cls-3" d="M503.82,616l-1.01,7.51,1.9.37,2.67-7.36-3.56-.52Z"/>
  <path id="path1003" class="cls-3" d="M511.26,618.36l-3.74,6.5,1.65,1.1,4.72-5.73-2.64-1.87Z"/>
  <path id="path1005" class="cls-3" d="M516.26,622.87l-5.42,4.84,1.26,1.87,5.98-3.74-1.81-2.97Z"/>
  <rect class="cls-16" x="147.46" y="258.82" width="48.05" height="5.52"/>
  <circle class="cls-9" cx="781.71" cy="542.99" r="5.37"/>
  <circle class="cls-9" cx="842.4" cy="537.62" r="5.37"/>
  <circle class="cls-9" cx="903.08" cy="530.67" r="5.37"/>
  <circle class="cls-9" cx="903.08" cy="588.54" r="5.37"/>
  <circle class="cls-9" cx="903.08" cy="646.41" r="5.37"/>
  <circle class="cls-9" cx="842.4" cy="595.18" r="5.37"/>
  <circle class="cls-9" cx="842.4" cy="651.78" r="5.37"/>
  <circle class="cls-9" cx="781.71" cy="600.55" r="5.37"/>
  <circle class="cls-9" cx="781.71" cy="657.16" r="5.37"/>
  <circle class="cls-1" cx="132.86" cy="573" r="4.55"/>
  <circle class="cls-1" cx="132.86" cy="590.05" r="4.55"/>
  <circle class="cls-1" cx="132.86" cy="607.09" r="4.55"/>
  <circle class="cls-1" cx="132.86" cy="624.14" r="4.55"/>
  <circle class="cls-1" cx="149.9" cy="573" r="4.55"/>
  <circle class="cls-1" cx="149.9" cy="590.05" r="4.55"/>
  <circle class="cls-1" cx="149.9" cy="607.09" r="4.55"/>
  <circle class="cls-1" cx="149.9" cy="624.14" r="4.55"/>
  <circle class="cls-1" cx="167.27" cy="573" r="4.55"/>
  <circle class="cls-1" cx="167.27" cy="590.05" r="4.55"/>
  <circle class="cls-1" cx="167.27" cy="607.09" r="4.55"/>
  <circle class="cls-1" cx="167.27" cy="624.14" r="4.55"/>
  <circle class="cls-1" cx="183.99" cy="573" r="4.55"/>
  <circle class="cls-1" cx="183.99" cy="590.05" r="4.55"/>
  <circle class="cls-1" cx="183.99" cy="607.09" r="4.55"/>
  <circle class="cls-1" cx="183.99" cy="624.14" r="4.55"/>
  <circle class="cls-1" cx="200.87" cy="573" r="4.55"/>
  <circle class="cls-1" cx="200.87" cy="590.05" r="4.55"/>
  <circle class="cls-1" cx="200.87" cy="607.09" r="4.55"/>
  <ellipse class="cls-13" cx="847.16" cy="405.21" rx="103.38" ry="69.47" transform="translate(-73.63 589.62) rotate(-36.89)"/>
  <circle class="cls-1" cx="200.87" cy="624.14" r="4.55"/>
  <circle class="cls-4" cx="798.73" cy="439.57" r="34.41"/>
  <circle class="cls-4" cx="893.12" cy="374.96" r="34.41"/>
  <path class="cls-8" d="M252.74,406.22c0,.81-.01,1.62-.04,2.44-.61,22.37-9.78,42.6-24.34,57.56-.53.57-1.08,1.11-1.65,1.65-14.95,14.57-35.19,23.74-57.56,24.34-.81.03-1.62.04-2.44.04s-1.61-.01-2.43-.04c-22.37-.61-42.61-9.78-57.56-24.34l-1.65-1.65c-14.57-14.96-23.74-35.19-24.34-57.56-.03-.81-.04-1.62-.04-2.44s.01-1.62.04-2.44c.61-22.37,9.78-42.6,24.34-57.55.53-.57,1.08-1.11,1.65-1.65,14.95-14.57,35.19-23.74,57.56-24.34.81-.03,1.61-.04,2.43-.04s1.62.01,2.44.04c22.37.61,42.61,9.78,57.56,24.34.57.53,1.11,1.08,1.65,1.65,14.57,14.95,23.74,35.18,24.34,57.55.03.81.04,1.62.04,2.44Z"/>
  <g>
    <path class="cls-17" d="M169.15,320.25v17.22h-4.86v-17.22c.81-.03,1.61-.04,2.43-.04s1.62.01,2.44.04Z"/>
    <rect class="cls-17" x="164.28" y="474.98" width="4.86" height="17.23"/>
    <rect class="cls-17" x="80.74" y="403.79" width="17.22" height="4.87"/>
    <path class="cls-17" d="M252.74,406.22c0,.81-.01,1.62-.04,2.44h-17.22v-4.87h17.22c.03.81.04,1.62.04,2.44Z"/>
    <path class="cls-17" d="M118.92,356.79l-1.65,1.64-12.19-12.18c.53-.57,1.08-1.11,1.65-1.65l12.19,12.19Z"/>
    <path class="cls-17" d="M228.35,466.22c-.53.57-1.08,1.11-1.65,1.65l-12.19-12.19,1.65-1.65,12.19,12.19Z"/>
    <path class="cls-17" d="M228.35,346.24l-12.19,12.18-1.65-1.64,12.19-12.19c.57.53,1.11,1.08,1.65,1.65Z"/>
    <rect class="cls-17" x="103.38" y="459.78" width="17.24" height="2.33" transform="translate(-293.13 214.2) rotate(-45)"/>
  </g>
  <circle class="cls-7" cx="166.71" cy="406.22" r="71.65"/>
  <circle class="cls-1" cx="166.71" cy="406.22" r="44.95"/>
  <circle class="cls-15" cx="166.71" cy="406.22" r="30.09"/>
  <path class="cls-10" d="M435.33,713.21c0,4.93,3.28,8.91,7.35,8.91h20.41c.47,0,.94.47.94,1.09s-.39,1.09-.94,1.09h-27.84v7.9h31.12c4.07,0,7.35-4.07,7.35-8.99s-3.28-8.99-7.35-8.99h-20.33c-.47,0-.94-.47-.94-1.09s.39-1.09.94-1.09h27.6v-7.74h-30.97c-4.07,0-7.35,3.99-7.35,8.91h0ZM504.69,704.29v17.36l-18.61-17.36h-10.17v27.76h9.77v-17.44l18.61,17.44h10.17v-27.76h-9.77ZM555.05,704.29h-12.75l-15.8,12.2v-12.2h-9.93v27.76h9.93v-12.28l15.8,12.28h12.75l-17.99-13.84,17.99-13.92Z"/>
</svg>