<?xml version="1.0" encoding="UTF-8"?>
<svg id="Layer_1" data-name="Layer 1" xmlns="http://www.w3.org/2000/svg" viewBox="0 0 1000 1000">
  <defs>
    <style>
      .cls-1 {
        fill: #2b2b2b;
      }

      .cls-2 {
        fill: #ed3827;
      }

      .cls-3 {
        fill: #303030;
      }

      .cls-4 {
        fill: #101010;
      }

      .cls-5 {
        fill: #282828;
      }

      .cls-6 {
        fill: #a71e22;
      }

      .cls-7 {
        fill: #cf2827;
      }

      .cls-8 {
        fill: #010101;
      }

      .cls-9 {
        fill: #131212;
      }

      .cls-10 {
        fill: #232221;
      }

      .cls-11 {
        fill: #161616;
      }
    </style>
  </defs>
  <rect class="cls-10" x="147.85" y="20" width="704.3" height="960" rx="38.51" ry="38.51"/>
  <rect class="cls-1" x="219.45" y="88.2" width="561.1" height="801.8" rx="45.11" ry="45.11"/>
  <g>
    <path class="cls-10" d="M266.49,100h467.03c19.79,0,35.85,16.06,35.85,35.85v707.84c0,19.79-16.06,35.85-35.85,35.85h-467.03c-19.79,0-35.85-16.06-35.85-35.85V135.85c0-19.79,16.06-35.85,35.85-35.85Z"/>
    <path class="cls-9" d="M733.51,106.08c16.44,0,29.77,13.33,29.77,29.77v707.84c0,16.44-13.33,29.77-29.77,29.77h-467.03c-16.44,0-29.77-13.33-29.77-29.77V135.85c0-16.44,13.33-29.77,29.77-29.77h467.03M733.51,93.92h-467.03c-23.12,0-41.93,18.81-41.93,41.93v707.84c0,23.12,18.81,41.93,41.93,41.93h467.03c23.12,0,41.93-18.81,41.93-41.93V135.85c0-23.12-18.81-41.93-41.93-41.93h0Z"/>
  </g>
  <g>
    <path class="cls-10" d="M273.72,300.49h452.57c13.07,0,23.68,10.61,23.68,23.68v331.21c0,13.07-10.61,23.68-23.68,23.68h-452.57c-13.07,0-23.68-10.61-23.68-23.68v-331.21c0-13.07,10.61-23.68,23.68-23.68Z"/>
    <path class="cls-3" d="M726.28,304.14c11.06,0,20.03,8.97,20.03,20.03v331.21c0,11.06-8.97,20.03-20.03,20.03h-452.57c-11.06,0-20.03-8.97-20.03-20.03v-331.21c0-11.06,8.97-20.03,20.03-20.03h452.57M726.28,296.84h-452.57c-15.07,0-27.33,12.26-27.33,27.33v331.21c0,15.07,12.26,27.33,27.33,27.33h452.57c15.07,0,27.33-12.26,27.33-27.33v-331.21c0-15.07-12.26-27.33-27.33-27.33h0Z"/>
  </g>
  <path class="cls-1" d="M561.27,394.19l15.1.48c11.76.37,21.11,10.02,21.11,21.79v15.1c0,12.61,4.8,24.75,13.44,33.95l10.34,11.01c8.05,8.58,7.84,22.01-.48,30.33l-10.68,10.68c-8.92,8.92-14.11,20.9-14.51,33.51l-.48,15.1c-.37,11.76-10.02,21.11-21.79,21.11h-15.1c-12.61,0-24.75,4.8-33.95,13.44l-11.01,10.34c-8.58,8.05-22.01,7.84-30.33-.48l-10.68-10.68c-8.92-8.92-20.9-14.11-33.51-14.51l-15.1-.48c-11.76-.37-21.11-10.02-21.11-21.79v-15.1c0-12.61-4.8-24.75-13.44-33.95l-10.34-11.01c-8.05-8.58-7.84-22.01.48-30.33l10.68-10.68c8.92-8.92,14.11-20.9,14.51-33.51l.48-15.1c.37-11.76,10.02-21.11,21.79-21.11h15.1c12.61,0,24.75-4.8,33.95-13.44l11.01-10.34c8.58-8.05,22.01-7.84,30.33.48l10.68,10.68c8.92,8.92,20.9,14.11,33.51,14.51Z"/>
  <path class="cls-11" d="M544.19,403.69l31.87,1.01c6.34.2,11.38,5.4,11.38,11.75v31.89c0,4.39,1.67,8.62,4.68,11.82l21.82,23.25c4.34,4.63,4.23,11.87-.26,16.35l-22.55,22.55c-3.11,3.11-4.91,7.28-5.05,11.67l-1.01,31.87c-.2,6.34-5.4,11.38-11.75,11.38h-31.89c-4.39,0-8.62,1.67-11.82,4.68l-23.25,21.82c-4.63,4.34-11.87,4.23-16.35-.26l-22.55-22.55c-3.11-3.11-7.28-4.91-11.67-5.05l-31.87-1.01c-6.34-.2-11.38-5.4-11.38-11.75v-31.89c0-4.39-1.67-8.62-4.68-11.82l-21.82-23.25c-4.34-4.63-4.23-11.87.26-16.35l22.55-22.55c3.11-3.11,4.91-7.28,5.05-11.67l1.01-31.87c.2-6.34,5.4-11.38,11.75-11.38h31.89c4.39,0,8.62-1.67,11.82-4.68l23.25-21.82c4.63-4.34,11.87-4.23,16.35.26l22.55,22.55c3.11,3.11,7.28,4.91,11.67,5.05Z"/>
  <circle class="cls-8" cx="500" cy="489.77" r="59.45"/>
  <circle class="cls-5" cx="500" cy="489.77" r="41.57"/>
  <path class="cls-7" d="M266.54,93.91h141.5v192.01h-183.47v-150.04c0-23.17,18.81-41.97,41.97-41.97Z"/>
  <path class="cls-2" d="M275.97,106.08h132.07v179.84h-171.33v-140.59c0-21.66,17.59-39.25,39.25-39.25Z"/>
  <rect class="cls-4" x="409.71" y="121.85" width="326.26" height="5.82"/>
  <rect class="cls-4" x="409.71" y="273.77" width="326.26" height="5.82"/>
  <rect class="cls-4" x="409.71" y="252.07" width="326.26" height="5.82"/>
  <rect class="cls-4" x="409.71" y="230.37" width="326.26" height="5.82"/>
  <rect class="cls-4" x="409.71" y="208.66" width="326.26" height="5.82"/>
  <rect class="cls-4" x="409.71" y="186.96" width="326.26" height="5.82"/>
  <rect class="cls-4" x="409.71" y="165.26" width="326.26" height="5.82"/>
  <rect class="cls-4" x="409.71" y="143.56" width="326.26" height="5.82"/>
  <rect class="cls-6" x="264.67" y="121.85" width="143.37" height="5.82"/>
  <rect class="cls-6" x="264.67" y="273.77" width="143.37" height="5.82"/>
  <rect class="cls-6" x="264.67" y="252.07" width="143.37" height="5.82"/>
  <rect class="cls-6" x="264.67" y="230.37" width="143.37" height="5.82"/>
  <rect class="cls-6" x="264.67" y="165.26" width="143.37" height="5.82"/>
  <rect class="cls-6" x="264.67" y="143.56" width="143.37" height="5.82"/>
  <rect class="cls-4" x="264.67" y="699.96" width="471.29" height="5.82"/>
  <rect class="cls-4" x="264.67" y="851.88" width="471.29" height="5.82"/>
  <rect class="cls-4" x="264.67" y="830.17" width="471.29" height="5.82"/>
  <rect class="cls-4" x="264.67" y="808.47" width="471.29" height="5.82"/>
  <rect class="cls-4" x="264.67" y="786.77" width="471.29" height="5.82"/>
  <rect class="cls-4" x="264.67" y="765.07" width="471.29" height="5.82"/>
  <rect class="cls-4" x="264.67" y="743.36" width="471.29" height="5.82"/>
  <rect class="cls-4" x="264.67" y="721.66" width="471.29" height="5.82"/>
  <g>
    <path class="cls-6" d="M267.79,206.82l-2.76,7.58h-2.4l8.45-23.33h2.89l8.81,23.33h-2.57l-2.83-7.58h-9.6ZM276.7,204.71c-2.43-6.57-3.71-9.87-4.2-11.53h-.03c-.57,1.86-2.01,5.91-3.97,11.53h8.2Z"/>
    <path class="cls-6" d="M304.32,207.99c-1.07,3.82-3.9,6.68-9,6.68-6.82,0-10.35-5.31-10.35-11.89s3.49-12.05,10.42-12.05c5.24,0,8.22,2.95,8.95,6.85h-2.38c-.96-2.81-2.8-4.77-6.68-4.77-5.5,0-7.79,5.02-7.79,9.91s2.22,9.87,7.92,9.87c3.71,0,5.48-2.01,6.52-4.6h2.39Z"/>
    <path class="cls-6" d="M314.13,193.18h-7.7v-2.11h17.83v2.11h-7.72v21.22h-2.41v-21.22Z"/>
    <path class="cls-6" d="M330.04,191.07v23.33h-2.38v-23.33h2.38Z"/>
    <path class="cls-6" d="M356.35,202.58c0,6.39-3.49,12.15-10.75,12.15-6.7,0-10.53-5.3-10.53-12s3.79-12,10.78-12c6.47,0,10.5,4.99,10.5,11.85ZM337.58,202.63c0,5.22,2.79,9.99,8.13,9.99,5.75,0,8.12-4.72,8.12-10.01s-2.68-9.78-8.08-9.78c-5.68,0-8.17,4.66-8.17,9.79Z"/>
    <path class="cls-6" d="M361.34,214.4v-23.33h3.31c3.5,5.53,11.47,17.92,12.86,20.45h.04c-.21-3.2-.18-6.74-.18-10.55v-9.91h2.33v23.33h-3.09c-3.29-5.25-11.47-18.32-13.05-20.91h-.04c.17,2.88.15,6.53.15,10.75v10.16h-2.33Z"/>
  </g>
</svg>