<svg xmlns="http://www.w3.org/2000/svg" id="Layer_1" data-name="Layer 1" viewBox="0 0 1000 1000"><defs><style>.cls-7{fill:#7d7f82}.cls-9{fill:#4f4f4f}.cls-10{fill:#b0b0b0}.cls-11{fill:#bfbfbf}.cls-12{fill:#222323}.cls-13{fill:#b7b7b7}</style></defs><path d="M265.96 343.96h461.45v221.51H265.96z" style="fill:#a4a3a4"/><path d="m301.38 313.49-149.32-7.3 13.53-97.79c1.85-27.91 110.31-23.96 118.1-3.37l17.69 108.47Zm551.86 0-149.32-7.3 13.53-97.79c1.85-27.91 110.31-23.96 118.1-3.37l17.69 108.47Z" style="fill:#66686a"/><path d="m323.74 335.36-200.05-7.3 18.13-97.79c16.59-37.91 139.91-39.15 158.23-3.37l23.7 108.47Zm554.87 0-200.05-7.3 18.13-97.79c16.59-37.91 139.91-39.15 158.23-3.37l23.7 108.47Z" class="cls-13"/><path d="M312.37 294.95h374.49v221.51H312.37z" style="fill:#c6c6c5"/><path d="M325.76 308.95h347.71v234.49H325.76z" class="cls-13"/><path d="M364.51 497.01 59.52 398.06 19.36 677.12c-1.65 7.61-2.53 15.51-2.53 23.62 0 61.16 49.58 110.73 110.73 110.73 41.2 0 77.14-22.5 96.21-55.88S364.5 497 364.5 497Zm274.05 5.3 301.91-104.25 40.16 279.06c1.65 7.61 2.53 15.51 2.53 23.62 0 61.16-49.58 110.73-110.73 110.73-41.2 0-77.14-22.5-96.21-55.88S638.56 502.3 638.56 502.3Z" class="cls-10"/><circle cx="778.58" cy="418.46" r="163.19" class="cls-11"/><circle cx="221.44" cy="418.46" r="163.19" class="cls-11"/><path d="M330.13 373.89h-57.08c-3.33 0-6.04-2.7-6.04-6.04v-57.08c0-6.8-5.51-12.3-12.3-12.3h-66.53c-6.8 0-12.3 5.51-12.3 12.3v57.08c0 3.33-2.7 6.04-6.04 6.04h-57.08c-6.8 0-12.3 5.51-12.3 12.3v66.53c0 6.8 5.51 12.3 12.3 12.3h57.08c3.33 0 6.04 2.7 6.04 6.04v57.08c0 6.8 5.51 12.3 12.3 12.3h66.53c6.8 0 12.3-5.51 12.3-12.3v-57.08c0-3.33 2.7-6.04 6.04-6.04h57.08c6.8 0 12.3-5.51 12.3-12.3v-66.53c0-6.8-5.51-12.3-12.3-12.3" class="cls-10"/><path d="M247.34 462.04c-.45-.58-.98-1.09-1.57-1.51l-16.41-15.77c-4.51-4.34-11.64-4.34-16.16-.02l-17.42 16.67a7.55 7.55 0 0 0-2.14 5.29v27.46c0 4.19 3.4 7.59 7.59 7.59h40.14c4.19 0 7.59-3.4 7.59-7.59V466.7c0-1.76-.6-3.37-1.6-4.65Zm0-83.37c-.45.58-.98 1.09-1.57 1.51l-16.41 15.77c-4.51 4.34-11.64 4.34-16.16.02l-17.42-16.67a7.55 7.55 0 0 1-2.14-5.29v-27.46c0-4.19 3.4-7.59 7.59-7.59h40.14c4.19 0 7.59 3.4 7.59 7.59v27.46c0 1.76-.6 3.37-1.6 4.65Zm15.62 15.63c-.58.45-1.09.98-1.51 1.57l-15.77 16.41c-4.34 4.51-4.34 11.64-.02 16.16l16.67 17.42a7.55 7.55 0 0 0 5.29 2.14h27.46c4.19 0 7.59-3.4 7.59-7.59v-40.14c0-4.19-3.4-7.59-7.59-7.59h-27.46c-1.76 0-3.37.6-4.65 1.6Zm-83.37 0c.58.45 1.09.98 1.51 1.57l15.77 16.41c4.34 4.51 4.34 11.64.02 16.16l-16.67 17.42a7.55 7.55 0 0 1-5.29 2.14h-27.46c-4.19 0-7.59-3.4-7.59-7.59v-40.14c0-4.19 3.4-7.59 7.59-7.59h27.46c1.76 0 3.37.6 4.65 1.6Z" class="cls-9"/><path d="M900.27 373.89h-68.08c-3.33 0-6.04-2.7-6.04-6.04v-59.08c0-6.8-5.51-12.3-12.3-12.3h-66.53c-6.8 0-12.3 5.51-12.3 12.3v59.08c0 3.33-2.7 6.04-6.04 6.04H663.9c-6.8 0-12.3 5.51-12.3 12.3v66.53c0 6.8 5.51 12.3 12.3 12.3h65.08c3.33 0 6.04 2.7 6.04 6.04v60.08c0 6.8 5.51 12.3 12.3 12.3h66.53c6.8 0 12.3-5.51 12.3-12.3v-60.08c0-3.33 2.7-6.04 6.04-6.04h68.08c6.8 0 12.3-5.51 12.3-12.3v-66.53c0-6.8-5.51-12.3-12.3-12.3" class="cls-10"/><circle cx="779.58" cy="341.7" r="35.15" class="cls-9"/><circle cx="779.58" cy="497.45" r="35.15" class="cls-9"/><circle cx="695.71" cy="419.57" r="35.15" class="cls-9"/><circle cx="864.46" cy="419.57" r="35.15" class="cls-9"/><path d="M864.46 398.42c11.66 0 21.15 9.49 21.15 21.15s-9.49 21.15-21.15 21.15-21.15-9.49-21.15-21.15 9.49-21.15 21.15-21.15m0-3.7c-13.73 0-24.85 11.13-24.85 24.85s11.13 24.85 24.85 24.85 24.85-11.13 24.85-24.85-11.13-24.85-24.85-24.85" style="fill:#f79571"/><path d="M755.31 355.87h48.55l-24.28-41.01z" style="fill:none;stroke-miterlimit:10;stroke-width:4px;stroke:#7eced0"/><path d="M677.02 400.76h37.38v37.38h-37.38z" style="stroke:#eb9cc4;fill:none;stroke-miterlimit:10;stroke-width:4px"/><path d="m800.71 479.15-2.83-2.83-18.3 18.3-18.29-18.3-2.83 2.83 18.29 18.3-18.29 18.29 2.83 2.83 18.29-18.29 18.3 18.29 2.83-2.83-18.3-18.29z" style="fill:#adc3e5"/><path d="M533.61 471.9v22.31c0 4.59 4.4 7.93 8.89 6.75l42.71-11.16c7.02-1.83 7.02-11.67 0-13.51l-42.71-11.16c-4.49-1.17-8.89 2.17-8.89 6.75Z" class="cls-12"/><path d="M537.42 471.14v23.83c0 1.62 1.54 2.81 3.11 2.39l45.03-11.92c2.45-.65 2.45-4.13 0-4.78l-45.03-11.92c-1.57-.42-3.11.77-3.11 2.39Z" class="cls-9"/><rect width="49.47" height="30.66" x="415.02" y="467.72" class="cls-12" rx="5.56" ry="5.56"/><rect width="42.38" height="23.24" x="418.57" y="471.44" class="cls-9" rx="2.35" ry="2.35"/><path d="M434.01 360.43c-.91 0-1.47-.31-1.55-.96v-1.83c-.04-1.62-.05-1.9-.14-2.58-.15-1.21-.56-1.98-1.08-2.64-.87-1.08-2.31-1.55-4.57-1.91 4.45-.39 7.81-1.8 8.15-5.72.02-.22.03-.44.03-.67s0-.46-.03-.68c-.4-4.47-4.77-5.99-9.78-5.99h-20.56v3.22h3.49c.79 0 1.44.49 1.44 1.1v17.53c0 .6-.65 1.13-1.44 1.13h-1.49v3.18h12.32v-3.18h-1.26c-.98 0-1.58-.34-1.58-1.1v-7.38h6.05c.79 0 1.44.18 1.95.47.9.51 1.38 1.38 1.5 2.22l-.06 4.58c0 .6-.61 1.14-1.4 1.14l-1.9.08v3.18h13.18v-3.18h-1.26Zm-11.2-11.73h-6.85v-8.03h6.01c3.37 0 6.02.83 6.02 3.86s-2.15 4.17-5.18 4.17m31.14-12.23c9.81 0 16.24 5.49 16.24 13.82s-6.36 14.01-16.62 14.01c-9.12 0-16.28-5.26-16.28-13.78s5.75-14.04 16.66-14.04Zm-.34 24.5c7.76 0 9.24-5.53 9.24-10.56s-1.32-10.64-9.01-10.64-9.43 5.75-9.43 10.68 1.51 10.52 9.2 10.52m51.75-1.86v-17.57l-10.18 22.07h-3.48l-10.07-22.03v17.75c0 .76.64 1.1 1.59 1.1h3.07v3.18h-13.52v-3.18h3.45c.79 0 1.44-.53 1.44-1.14v-17.07c0-.95-.61-1.55-1.55-1.55h-3.33v-3.22h13.63l8.29 18.02 8.44-18.02h13.63v3.22h-3.18c-1.1 0-1.67.38-1.67 1.29v17.19c0 .95.64 1.29 1.63 1.29h3.26v3.18h-16.17v-3.18h3.29c.8 0 1.44-.53 1.44-1.32Zm47.06 0v-17.57l-10.18 22.07h-3.48l-10.07-22.03v17.75c0 .76.64 1.1 1.59 1.1h3.07v3.18h-13.51v-3.18h3.44c.79 0 1.44-.53 1.44-1.14v-17.07c0-.95-.61-1.55-1.55-1.55h-3.33v-3.22h13.63l8.29 18.02 8.44-18.02h13.63v3.22h-3.18c-1.1 0-1.67.38-1.67 1.29v17.19c0 .95.64 1.29 1.63 1.29h3.26v3.18H547.7v-3.18h3.29c.79 0 1.44-.53 1.44-1.32Zm20.79 1.33h3.41c1.59 0 1.48-1.1 1.48-2.54v-4.66l-9.16-11.55c-.72-.91-1.1-1.02-2.61-1.02h-1.17v-3.22h15.18v3.22h-3.22c-.68 0-.98.3-.98.79 0 1.1 3.18 4.28 6.32 8.29 3.45-4.01 6.32-7.19 6.32-8.29 0-.72-.76-.79-2.16-.79h-1.78v-3.22h12.79v3.22h-1.17c-1.67 0-2.04.15-3.52 1.97l-8.29 10.26v6.21c0 1.14.76 1.32 1.82 1.32h3.1v3.18h-16.35v-3.18Zm-72.8 59.05 10.47 2.66 3.85.94-5.98 4.66-3.81-1.09-26.73-7.37-3.11-.82 7.97-4.99c6.67-4.17 12.38-4.25 17.52-3.12l.09.02c3.3.73 5.45 1.89 5.05 3.76l19.18 1.03-5.65 4.4-17.13-1.29-1.72 1.22Zm-5.71-1.45 1.15-.78c2.68-1.82 1.36-2.63-.88-3.17l-.09-.02c-2.19-.52-4.54-.57-7.13 1.09l-1.23.8z" class="cls-7"/><path d="m502.58 426.51-2.42-14.54-.72-.18-.25 9.65-.06 4.1-6.36-1.77.09-3.8.39-28.55.02-4.53 8.16 1.62c6.15 1.22 8.95 5.84 8.56 14.11v.11c-.21 4.3-1.37 7.19-3.45 8.58l3 17.14zm-2.25-21.74c.28.07.54.1.78.1.9 0 1.83-.43 1.94-3.62v-.11c.11-3.05-.69-4.59-2.59-5l-.61-.13-.22 8.59z" class="cls-7"/><path d="m493.78 387.5 7.56 1.5c6.96 1.38 8.46 7.19 8.16 13.59v.11c-.19 3.89-1.17 7.01-3.5 8.36l2.93 16.69-5.89-1.64-2.42-14.55-1.65-.41-.26 10.28-.05 3.46-5.36-1.49.08-3.41.39-28.55.02-3.93m7.31 17.86c1.89 0 2.37-1.81 2.44-4.1v-.11c.09-2.64-.42-4.96-2.99-5.51l-1.2-.26-.24 9.6 1.1.26c.33.08.62.11.89.11m-8.32-19.08v1.21l-.02 3.93-.39 28.54-.08 3.4-.02.78.75.21 5.36 1.49 1.25.35.02-1.3.05-3.46.2-8.02 2.14 12.85.1.63.61.17 5.89 1.64 1.53.43-.27-1.56-2.81-16.05c2.05-1.54 3.19-4.49 3.4-8.78v-.11c.41-8.56-2.52-13.34-8.95-14.62l-7.56-1.5-1.19-.24Zm7.36 17.93.19-7.58h.02c1.16.25 2.33.98 2.2 4.5v.11c-.11 3.14-.98 3.14-1.45 3.14-.19 0-.42-.03-.66-.09l-.31-.07Z" class="cls-13"/><path d="M453.59 442.87c1.55 0 2.18-1.09 2.18-3.03 0-2.05-.55-2.61-1.92-2.61-.94 0-1.28.46-1.28 1.39v10.07c0 .35 0 .54-.5.54h-1.64c-.39 0-.52-.07-.52-.54v-9.87c0-1.57.78-2.98 4.14-2.98 2.75 0 4.45 1.03 4.45 3.55s-.98 3.58-2.75 4.14l1.53 2.29c1.39 2.07 1.9 2.33 1.9 2.88 0 .44-.54.65-1.09.65-.83 0-1.64-.33-2.96-2.14-.57-.79-1.48-2.22-2.01-3.6-.09-.24-.11-.39-.11-.46 0-.26.11-.28.22-.28h.35Zm11.26 6.54c-2.16 0-4.21-.7-4.21-4.82s1.96-4.58 4.25-4.58 4.18.5 4.18 4.58-2.03 4.82-4.21 4.82Zm1.57-5.16c0-2.57-.46-3.07-1.57-3.07s-1.59.5-1.59 3.03v1.04c0 2.18.57 2.97 1.59 2.97s1.57-.79 1.57-2.94v-1.04Zm17.37 4.45c0 .33 0 .52-.48.52h-1.61c-.35 0-.46-.07-.46-.52v-5.84c0-.96-.11-1.42-1.46-1.42-.5 0-1.04.26-1.04.65v6.62c0 .33 0 .52-.48.52h-1.61c-.35 0-.46-.07-.46-.52v-5.88c0-.92-.26-1.48-1.15-1.48-.59 0-1.13.13-1.35.35v7c0 .33 0 .52-.5.52h-1.57c-.35 0-.48-.07-.48-.52v-8c0-.44.24-.5.59-.5.24 0 1.16.24 1.46.24.5 0 1.37-.44 2.46-.44 1.53 0 2.09.39 2.42.72 1.02-.54 1.87-.72 2.7-.72 2.35 0 3.01 1.16 3.01 2.72v5.99Zm15.01 0c0 .33 0 .52-.48.52h-1.61c-.35 0-.46-.07-.46-.52v-5.84c0-.96-.11-1.42-1.46-1.42-.5 0-1.04.26-1.04.65v6.62c0 .33 0 .52-.48.52h-1.61c-.35 0-.46-.07-.46-.52v-5.88c0-.92-.26-1.48-1.15-1.48-.59 0-1.13.13-1.35.35v7c0 .33 0 .52-.5.52h-1.57c-.35 0-.48-.07-.48-.52v-8c0-.44.24-.5.59-.5.24 0 1.16.24 1.46.24.5 0 1.37-.44 2.46-.44 1.53 0 2.09.39 2.42.72 1.02-.54 1.87-.72 2.7-.72 2.35 0 3.01 1.16 3.01 2.72v5.99Zm5.46.71c-2.05 0-3.49-.61-3.49-1.75 0-.52.09-.94.77-.94s1.59 1.51 3.07 1.51c.78 0 1.2-.3 1.2-1s-.15-.87-2.14-1.59c-2.11-.76-2.77-1.31-2.77-2.85 0-1.81 1.24-2.79 3.42-2.79 1.98 0 3.21.48 3.21 1.57 0 .67-.35.94-.72.94-.7 0-1.48-1.33-2.88-1.33-.61 0-.87.31-.87.81 0 .76.46.98 1.92 1.46 2.62.87 2.94 1.42 2.94 2.9 0 1.79-1.2 3.05-3.66 3.05Zm8.34-2.89c0 .78.13 1.22.76 1.22.44 0 1-.13 1.18-.13.2 0 .24.24.24.37 0 .55-.79 1.39-2.77 1.39-1.42 0-1.94-.81-1.94-2.14v-5.71c-.78 0-.89-.02-.89-.52 0-.41.59-.79 1.4-2.16.74-1.24.79-1.83 1.42-1.83.48 0 .59.15.59.52v2.64h1.87c.22 0 .31.11.31.33 0 .39-.07 1.02-.54 1.02h-1.64v5.01Zm11.2 1.04c0 .87-.78 1.83-3.95 1.83s-3.77-1.51-3.77-3.09c0-1.96.98-2.77 3.46-2.77 1.16 0 1.74.07 1.74.07v-.76c0-1.26-.35-1.66-1.15-1.66-.57 0-.89.18-1.5.76-.7.65-.96.76-1.22.76-.44 0-.74-.37-.74-.89 0-1.05 1.18-1.81 3.47-1.81s3.66.24 3.66 2.7zm-2.53-2.92c-.31-.05-.7-.07-1.09-.07-.98 0-1.5.72-1.5 1.96 0 .92.37 1.68 1.5 1.68.74 0 1.09-.2 1.09-.74zm7.61 1.88c0 .78.13 1.22.76 1.22.44 0 1-.13 1.18-.13.2 0 .24.24.24.37 0 .55-.79 1.39-2.77 1.39-1.42 0-1.94-.81-1.94-2.14v-5.71c-.78 0-.89-.02-.89-.52 0-.41.59-.79 1.4-2.16.74-1.24.79-1.83 1.42-1.83.48 0 .59.15.59.52v2.64h1.87c.22 0 .31.11.31.33 0 .39-.07 1.02-.54 1.02h-1.64v5.01Zm5.09-7.96c-1.09 0-1.37-.72-1.37-1.39 0-.74.22-1.44 1.37-1.44.96 0 1.35.63 1.35 1.44 0 .74-.28 1.39-1.35 1.39m1.33 10.14c0 .33 0 .52-.48.52h-1.57c-.37 0-.5-.07-.5-.52v-8.04c0-.31.07-.5.37-.5h1.7c.35 0 .48.07.48.5zm6.19.71c-2.16 0-4.21-.7-4.21-4.82s1.96-4.58 4.25-4.58 4.18.5 4.18 4.58-2.03 4.82-4.21 4.82Zm1.57-5.16c0-2.57-.46-3.07-1.57-3.07s-1.59.5-1.59 3.03v1.04c0 2.18.57 2.97 1.59 2.97s1.57-.79 1.57-2.94v-1.04Zm12.64 4.45c0 .33 0 .52-.48.52h-1.61c-.35 0-.46-.07-.46-.52v-6.13c0-.79-.42-1.18-1.31-1.18s-1.18.13-1.5.33v6.98c0 .33 0 .52-.5.52h-1.57c-.35 0-.48-.07-.48-.52v-8c0-.44.24-.5.48-.5.37 0 .87.24 1.46.24.46 0 1.48-.44 2.85-.44 2.59 0 3.12 1.07 3.12 2.44z" class="cls-7"/></svg>