<svg xmlns="http://www.w3.org/2000/svg" id="Layer_1" data-name="Layer 1" viewBox="0 0 1000 1000"><defs><style>.cls-3{fill:#181818}.cls-6{fill:#2b2b2b}.cls-7{fill:#121212}.cls-8{fill:#232323}.cls-11{fill:#4f5251}.cls-12{fill:#7d7f82}.cls-15{fill:#3a3a3a}.cls-16{fill:#4f4f4f}.cls-17{fill:#212121}</style></defs><path d="m638.02 502.29 297.94-103.88 41.55 277.36c1.64 7.56 2.51 15.4 2.51 23.44 0 60.69-49.2 109.9-109.9 109.9-40.88 0-76.55-22.33-95.48-55.45S638.02 502.29 638.02 502.29m-272.99-5.25L57.26 398.83 22.5 675.78c-1.64 7.56-2.51 15.4-2.51 23.44 0 60.69 49.2 109.9 109.9 109.9 40.88 0 76.55-22.33 95.48-55.45s139.67-256.63 139.67-256.63Z" class="cls-17"/><circle cx="362.03" cy="573.17" r="99.76" class="cls-15"/><circle cx="633.47" cy="573.17" r="99.76" class="cls-15"/><path d="M267.23 345.14h457.96v254.51H267.23z" class="cls-3"/><path d="m286.59 314.9-132.65-7.25 12.02-97.05c1.64-27.7 97.99-23.78 104.92-3.35zm565.59 0-135.77-7.25 12.3-97.05c1.68-27.7 100.3-23.78 107.38-3.35l16.08 107.65Z" style="fill:#474745"/><path d="m306.46 336.61-177.72-7.25 16.1-97.05c14.74-37.62 124.29-38.86 140.57-3.35zm568.78 0-181.9-7.25 16.48-97.05c15.08-37.62 127.21-38.86 143.87-3.35z" style="fill:#242625"/><path d="M313.29 296.5h371.66v219.84H313.29z" style="fill:#515251"/><path d="M326.58 310.4h345.08v268.29H326.58z" class="cls-17"/><circle cx="787.6" cy="401.02" r="148.37" class="cls-6"/><circle cx="205.62" cy="401.02" r="148.37" class="cls-6"/><path d="M313.48 356.29h-56.64c-3.31 0-5.99-2.68-5.99-5.99v-56.64c0-6.74-5.47-12.21-12.21-12.21h-66.03c-6.74 0-12.21 5.47-12.21 12.21v56.64c0 3.31-2.68 5.99-5.99 5.99H97.77c-6.74 0-12.21 5.47-12.21 12.21v66.03c0 6.74 5.47 12.21 12.21 12.21h56.64c3.31 0 5.99 2.68 5.99 5.99v56.64c0 6.74 5.47 12.21 12.21 12.21h66.03c6.74 0 12.21-5.47 12.21-12.21v-56.64c0-3.31 2.68-5.99 5.99-5.99h56.64c6.74 0 12.21-5.47 12.21-12.21V368.5c0-6.74-5.47-12.21-12.21-12.21" class="cls-8"/><path d="M231.31 443.78c-.45-.57-.97-1.08-1.56-1.5l-16.28-15.65c-4.48-4.3-11.55-4.31-16.04-.02l-17.29 16.54a7.5 7.5 0 0 0-2.13 5.25v27.25c0 4.16 3.37 7.53 7.53 7.53h39.83c4.16 0 7.53-3.37 7.53-7.53V448.4c0-1.74-.6-3.34-1.59-4.62m0-82.74c-.45.57-.97 1.08-1.56 1.5l-16.28 15.65c-4.48 4.3-11.55 4.31-16.04.02l-17.29-16.54a7.5 7.5 0 0 1-2.13-5.25v-27.25c0-4.16 3.37-7.53 7.53-7.53h39.83c4.16 0 7.53 3.37 7.53 7.53v27.25c0 1.74-.6 3.34-1.59 4.62m15.51 15.51c-.57.45-1.08.97-1.5 1.56l-15.65 16.28c-4.3 4.48-4.31 11.55-.02 16.04l16.54 17.29a7.5 7.5 0 0 0 5.25 2.13h27.25c4.16 0 7.53-3.37 7.53-7.53v-39.83c0-4.16-3.37-7.53-7.53-7.53h-27.25c-1.74 0-3.34.6-4.62 1.59m-82.74 0c.57.45 1.08.97 1.5 1.56l15.65 16.28c4.3 4.48 4.31 11.55.02 16.04l-16.54 17.29a7.5 7.5 0 0 1-5.25 2.13h-27.25c-4.16 0-7.53-3.37-7.53-7.53v-39.83c0-4.16 3.37-7.53 7.53-7.53h27.25c1.74 0 3.34.6 4.62 1.59" class="cls-16"/><path d="M907.37 355.79h-67.56c-3.31 0-5.99-2.68-5.99-5.99v-58.63c0-6.74-5.47-12.21-12.21-12.21h-66.03c-6.74 0-12.21 5.47-12.21 12.21v58.63c0 3.31-2.68 5.99-5.99 5.99H672.8c-6.74 0-12.21 5.47-12.21 12.21v66.03c0 6.74 5.47 12.21 12.21 12.21h64.58c3.31 0 5.99 2.68 5.99 5.99v59.62c0 6.74 5.47 12.21 12.21 12.21h66.03c6.74 0 12.21-5.47 12.21-12.21v-59.62c0-3.31 2.68-5.99 5.99-5.99h67.56c6.74 0 12.21-5.47 12.21-12.21V368c0-6.74-5.47-12.21-12.21-12.21" class="cls-8"/><circle cx="787.6" cy="323.85" r="34.88" class="cls-16"/><circle cx="787.6" cy="478.42" r="34.88" class="cls-16"/><circle cx="704.36" cy="401.14" r="34.88" class="cls-16"/><circle cx="871.83" cy="401.14" r="34.88" class="cls-16"/><path d="M871.83 380.17c11.56 0 20.97 9.41 20.97 20.97s-9.41 20.97-20.97 20.97-20.97-9.41-20.97-20.97 9.41-20.97 20.97-20.97m0-3.7c-13.62 0-24.66 11.04-24.66 24.66s11.04 24.66 24.66 24.66 24.66-11.04 24.66-24.66-11.04-24.66-24.66-24.66" style="fill:#f79571"/><path d="M763.51 337.91h48.18l-24.09-40.7z" style="fill:none;stroke-miterlimit:10;stroke-width:4px;stroke:#7eced0"/><path d="M685.81 382.47h37.1v37.1h-37.1z" style="stroke:#eb9cc4;fill:none;stroke-miterlimit:10;stroke-width:4px"/><path d="m808.56 460.26-2.8-2.8-18.16 18.15-18.16-18.15-2.8 2.8 18.15 18.16-18.15 18.16 2.8 2.8 18.16-18.15 18.16 18.15 2.8-2.8-18.15-18.16z" style="fill:#adc3e5"/><path d="M558.87 398.13v22.14c0 4.55 4.36 7.87 8.82 6.7l42.38-11.07c6.97-1.82 6.97-11.59 0-13.41l-42.38-11.07c-4.46-1.16-8.82 2.15-8.82 6.7Z" class="cls-7"/><path d="M562.65 397.38v23.65c0 1.61 1.53 2.79 3.08 2.37l44.69-11.83c2.44-.64 2.44-4.1 0-4.75l-44.69-11.83c-1.56-.41-3.08.76-3.08 2.37Z" class="cls-16"/><rect width="49.1" height="30.43" x="384.41" y="395.81" class="cls-7" rx="5.52" ry="5.52"/><rect width="42.06" height="23.06" x="387.93" y="399.5" class="cls-16" rx="2.34" ry="2.34"/><rect width="71.71" height="32.73" x="461.01" y="480.94" class="cls-3" rx="6.92" ry="6.92"/><rect width="42.06" height="23.06" x="475.83" y="485.78" class="cls-16" rx="2.34" ry="2.34"/><rect width="39.48" height="10.13" x="477.12" y="534.17" rx="1.5" ry="1.5" style="fill:#662726"/><path d="m499.91 392.1 10.39 2.64 3.82.93-5.94 4.62-3.78-1.08-26.53-7.31-3.08-.81 7.91-4.95c6.62-4.14 12.29-4.22 17.39-3.1l.09.02c3.27.72 5.41 1.88 5.01 3.73l19.04 1.02-5.61 4.37-17-1.28-1.71 1.21Zm-5.67-1.44 1.14-.78c2.66-1.81 1.35-2.61-.87-3.14l-.09-.02c-2.18-.52-4.51-.57-7.07 1.09l-1.22.79z" class="cls-12"/><path d="m502.06 399.07-2.4-14.43-.71-.18-.24 9.58-.06 4.08-6.32-1.76.09-3.78.39-28.33.02-4.5 8.1 1.61c6.1 1.21 8.88 5.79 8.49 14v.1c-.21 4.27-1.35 7.13-3.42 8.51l2.98 17.02-6.92-1.93Zm-2.23-21.59c.28.07.54.1.77.1.89 0 1.82-.43 1.93-3.59v-.11c.11-3.03-.69-4.56-2.57-4.96l-.6-.13-.22 8.52.69.16Z" class="cls-12"/><path d="m493.33 360.35 7.5 1.49c6.91 1.37 8.39 7.14 8.09 13.49v.11c-.19 3.86-1.16 6.96-3.47 8.29l2.9 16.57-5.85-1.63-2.4-14.44-1.63-.41-.26 10.2-.05 3.44-5.32-1.48.08-3.39.39-28.34zm7.27 17.73c1.87 0 2.35-1.8 2.43-4.07v-.1c.09-2.62-.42-4.92-2.97-5.47l-1.19-.25-.24 9.53 1.09.26c.32.08.62.11.88.11m-8.27-18.96v1.21l-.02 3.9-.39 28.33-.08 3.38-.02.78.75.21 5.32 1.48 1.25.35.02-1.3.05-3.44.2-7.88 2.11 12.67.1.63.61.17 5.85 1.63 1.53.43-.27-1.56-2.79-15.92c2.04-1.53 3.17-4.46 3.37-8.72v-.11c.41-8.5-2.5-13.25-8.89-14.52l-7.5-1.49-1.19-.24Zm7.31 17.8.19-7.51h.01c1.15.25 2.3.97 2.18 4.46v.1c-.11 3.11-.97 3.11-1.43 3.11q-.285 0-.66-.09l-.3-.07Z" class="cls-17"/><circle cx="641.55" cy="550.17" r="99.76" class="cls-8"/><circle cx="641.55" cy="550.17" r="69.23" class="cls-11"/><circle cx="352.03" cy="550.17" r="99.76" class="cls-8"/><circle cx="352.03" cy="550.17" r="69.23" class="cls-11"/><path d="M433.19 346.58c-.91 0-1.46-.31-1.54-.96v-1.81c-.03-1.61-.05-1.89-.14-2.56-.15-1.2-.55-1.96-1.07-2.62-.86-1.07-2.29-1.54-4.54-1.9 4.42-.39 7.75-1.79 8.09-5.68q.03-.33.03-.66c0-.33 0-.46-.03-.67-.4-4.44-4.73-5.94-9.71-5.94h-20.4v3.2h3.46c.78 0 1.43.49 1.43 1.09v17.4c0 .6-.65 1.12-1.43 1.12h-1.48v3.16h12.23v-3.16h-1.25c-.97 0-1.57-.34-1.57-1.09v-7.32h6c.78 0 1.43.18 1.94.47.89.51 1.37 1.37 1.49 2.2l-.06 4.54c0 .6-.61 1.13-1.39 1.13l-1.89.08v3.16h13.08v-3.16h-1.25Zm-11.12-11.64h-6.8v-7.97h5.96c3.34 0 5.97.82 5.97 3.83s-2.13 4.14-5.14 4.14Zm30.9-12.14c9.73 0 16.12 5.45 16.12 13.71s-6.31 13.9-16.49 13.9c-9.05 0-16.16-5.22-16.16-13.68s5.71-13.94 16.53-13.94Zm-.34 24.31c7.7 0 9.17-5.49 9.17-10.48s-1.31-10.56-8.94-10.56-9.35 5.71-9.35 10.6 1.5 10.44 9.13 10.44Zm51.37-1.84v-17.43l-10.11 21.9h-3.46l-9.99-21.87v17.62c0 .75.64 1.09 1.58 1.09h3.04v3.16h-13.41v-3.16h3.42c.79 0 1.43-.53 1.43-1.13v-16.94c0-.94-.6-1.54-1.54-1.54h-3.31v-3.19h13.53l8.23 17.88 8.38-17.88h13.53v3.19h-3.16c-1.09 0-1.65.38-1.65 1.28v17.06c0 .94.64 1.28 1.62 1.28h3.23v3.16h-16.04v-3.16h3.27c.79 0 1.43-.53 1.43-1.31Zm46.7 0v-17.43l-10.11 21.9h-3.46l-9.99-21.87v17.62c0 .75.64 1.09 1.58 1.09h3.04v3.16h-13.41v-3.16h3.42c.79 0 1.43-.53 1.43-1.13v-16.94c0-.94-.6-1.54-1.54-1.54h-3.31v-3.19h13.52l8.23 17.88 8.38-17.88H562v3.19h-3.16c-1.09 0-1.65.38-1.65 1.28v17.06c0 .94.64 1.28 1.62 1.28h3.23v3.16H546v-3.16h3.27c.79 0 1.43-.53 1.43-1.31Zm20.63 1.31h3.38c1.58 0 1.47-1.09 1.47-2.52v-4.62l-9.09-11.46c-.71-.9-1.09-1.01-2.59-1.01h-1.16v-3.19h15.07v3.19h-3.19c-.68 0-.98.3-.98.79 0 1.09 3.16 4.25 6.27 8.23 3.42-3.98 6.27-7.14 6.27-8.23 0-.71-.75-.79-2.14-.79h-1.77v-3.19h12.7v3.19h-1.16c-1.65 0-2.03.15-3.49 1.95l-8.23 10.18v6.16c0 1.13.75 1.31 1.8 1.31h3.08v3.16h-16.23v-3.16Zm-114.39 63.33c1.23 0 1.73-.86 1.73-2.4 0-1.63-.44-2.07-1.52-2.07-.75 0-1.01.37-1.01 1.1v7.98c0 .28 0 .42-.4.42h-1.3c-.31 0-.41-.06-.41-.42v-7.82c0-1.25.62-2.36 3.28-2.36 2.18 0 3.53.82 3.53 2.81s-.78 2.84-2.18 3.28l1.22 1.82c1.1 1.64 1.51 1.85 1.51 2.29 0 .35-.42.51-.86.51-.66 0-1.3-.26-2.34-1.7-.45-.63-1.17-1.76-1.6-2.86-.07-.19-.09-.31-.09-.37 0-.21.09-.22.18-.22h.28Zm8.92 5.18c-1.71 0-3.34-.56-3.34-3.82s1.55-3.63 3.37-3.63 3.31.4 3.31 3.63-1.61 3.82-3.34 3.82m1.25-4.08c0-2.04-.37-2.43-1.25-2.43s-1.26.4-1.26 2.4v.82c0 1.73.45 2.36 1.26 2.36s1.25-.63 1.25-2.33zm13.77 3.53c0 .26 0 .41-.38.41h-1.27c-.28 0-.37-.06-.37-.41v-4.63c0-.76-.09-1.13-1.16-1.13-.4 0-.82.21-.82.51v5.24c0 .26 0 .41-.38.41h-1.27c-.28 0-.37-.06-.37-.41v-4.66c0-.73-.21-1.17-.91-1.17-.47 0-.89.1-1.07.28v5.55c0 .26 0 .41-.4.41h-1.25c-.28 0-.38-.06-.38-.41v-6.34c0-.35.19-.4.47-.4.19 0 .92.19 1.16.19.4 0 1.08-.35 1.95-.35 1.22 0 1.66.31 1.92.57.81-.42 1.48-.57 2.14-.57 1.86 0 2.39.92 2.39 2.15v4.75Zm11.9 0c0 .26 0 .41-.38.41h-1.27c-.28 0-.37-.06-.37-.41v-4.63c0-.76-.09-1.13-1.16-1.13-.4 0-.82.21-.82.51v5.24c0 .26 0 .41-.38.41h-1.27c-.28 0-.37-.06-.37-.41v-4.66c0-.73-.21-1.17-.91-1.17-.47 0-.89.1-1.07.28v5.55c0 .26 0 .41-.4.41h-1.25c-.28 0-.38-.06-.38-.41v-6.34c0-.35.19-.4.47-.4.19 0 .92.19 1.16.19.4 0 1.08-.35 1.95-.35 1.22 0 1.66.31 1.92.57.81-.42 1.48-.57 2.14-.57 1.86 0 2.39.92 2.39 2.15v4.75Zm4.32.55c-1.63 0-2.77-.48-2.77-1.39 0-.41.07-.75.62-.75s1.26 1.2 2.43 1.2c.62 0 .95-.23.95-.79s-.12-.69-1.7-1.26c-1.67-.6-2.2-1.04-2.2-2.26 0-1.44.98-2.21 2.71-2.21 1.57 0 2.55.38 2.55 1.25 0 .53-.28.75-.57.75-.56 0-1.17-1.05-2.29-1.05-.48 0-.69.25-.69.64 0 .6.37.78 1.52 1.16 2.08.69 2.33 1.13 2.33 2.3 0 1.42-.95 2.42-2.9 2.42Zm6.61-2.28c0 .62.1.97.6.97.35 0 .79-.1.94-.1.16 0 .19.19.19.29 0 .44-.63 1.1-2.2 1.1-1.13 0-1.54-.64-1.54-1.7v-4.53c-.61 0-.7-.01-.7-.41 0-.32.47-.63 1.11-1.71.59-.98.63-1.45 1.13-1.45.38 0 .47.12.47.41v2.09h1.48c.18 0 .25.09.25.26 0 .31-.06.81-.43.81h-1.3zm8.88.82c0 .69-.62 1.45-3.13 1.45s-2.99-1.2-2.99-2.45c0-1.55.78-2.2 2.74-2.2.92 0 1.38.06 1.38.06v-.6c0-1-.28-1.32-.91-1.32-.45 0-.7.15-1.19.6-.56.51-.76.6-.97.6-.35 0-.59-.29-.59-.7 0-.83.94-1.44 2.75-1.44s2.9.19 2.9 2.14v3.85Zm-2.01-2.32c-.25-.04-.56-.06-.86-.06-.78 0-1.19.57-1.19 1.55 0 .73.29 1.33 1.19 1.33.59 0 .86-.16.86-.59v-2.24Zm6.04 1.5c0 .62.1.97.6.97.35 0 .79-.1.94-.1.16 0 .19.19.19.29 0 .44-.63 1.1-2.2 1.1-1.13 0-1.54-.64-1.54-1.7v-4.53c-.62 0-.7-.01-.7-.41 0-.32.47-.63 1.11-1.71.59-.98.63-1.45 1.13-1.45.38 0 .47.12.47.41v2.09h1.48c.18 0 .25.09.25.26 0 .31-.06.81-.42.81h-1.3v3.97Zm4.03-6.31c-.86 0-1.08-.57-1.08-1.1 0-.59.18-1.14 1.08-1.14.76 0 1.07.5 1.07 1.14 0 .59-.22 1.1-1.07 1.1m1.05 8.04c0 .26 0 .41-.38.41h-1.25c-.29 0-.4-.06-.4-.41v-6.37c0-.25.06-.4.29-.4h1.35c.28 0 .38.06.38.4v6.37Zm4.91.55c-1.71 0-3.34-.56-3.34-3.82s1.55-3.63 3.37-3.63 3.31.4 3.31 3.63-1.61 3.82-3.34 3.82m1.24-4.08c0-2.04-.37-2.43-1.25-2.43s-1.26.4-1.26 2.4v.82c0 1.73.45 2.36 1.26 2.36s1.25-.63 1.25-2.33zm10.02 3.53c0 .26 0 .41-.38.41h-1.27c-.28 0-.37-.06-.37-.41v-4.86c0-.63-.34-.94-1.04-.94s-.94.1-1.19.26v5.54c0 .26 0 .41-.4.41h-1.25c-.28 0-.38-.06-.38-.41v-6.34c0-.35.19-.4.38-.4.29 0 .69.19 1.16.19.37 0 1.17-.35 2.26-.35 2.05 0 2.48.85 2.48 1.93z" class="cls-12"/></svg>