<svg xmlns="http://www.w3.org/2000/svg" id="Layer_1" data-name="Layer 1" viewBox="0 0 1000 1000"><defs><style>.cls-3{fill:#181818}.cls-4{fill:#2b2b2b}.cls-7{fill:#121212}.cls-8{fill:#232323}.cls-9{fill:#101010}.cls-13{fill:#4f5251}.cls-16{fill:#c6c6c5}.cls-17{fill:#3a3a3a}.cls-19{fill:#4f4f4f}.cls-20{fill:#212121}</style></defs><path d="M277.7 294.98h485.77V526H277.7z" class="cls-3"/><path d="m635.74 507.19 295.05-97.8 38.83 260.02a98.5 98.5 0 0 1 2.47 21.92c0 56.75-48.39 102.76-108.08 102.76-40.21 0-75.29-20.88-93.9-51.85S635.75 507.2 635.75 507.2Zm-268.48-4.92L68.62 410.44 30.38 669.4a98.5 98.5 0 0 0-2.47 21.92c0 56.75 48.39 102.76 108.08 102.76 40.21 0 75.29-20.88 93.9-51.85s137.36-239.96 137.36-239.96Z" class="cls-20"/><circle cx="640.98" cy="583.45" r="94.31" class="cls-17"/><circle cx="358.19" cy="583.45" r="94.31" class="cls-17"/><path d="M271.07 357.63h450.4v250.31h-450.4z" class="cls-3"/><path d="m290.11 327.89-130.46-7.13 11.82-95.45c1.62-27.24 96.38-23.39 103.19-3.29zm556.26 0-133.53-7.13 12.1-95.45c1.66-27.24 98.64-23.39 105.61-3.29z" style="fill:#474745"/><path d="m309.66 349.24-174.79-7.13 15.84-95.45c14.49-37 122.24-38.22 138.25-3.29zm559.39 0-178.9-7.13 16.21-95.45c14.84-37 125.11-38.22 141.5-3.29z" style="fill:#242625"/><path d="M265.89 323.46h466.47v263.86H265.89z" class="cls-20"/><circle cx="782.85" cy="434.59" r="150.04" class="cls-4"/><circle cx="217.91" cy="436.11" r="151.46" class="cls-4"/><path d="M336.33 398.31v65.81c0 6.72-5.45 12.17-12.17 12.17H267.7c-3.3 0-5.97 2.68-5.97 5.97v56.46c0 6.72-5.45 12.17-12.17 12.17h-65.81c-6.72 0-12.17-5.45-12.17-12.17v-56.46c0-1.36-.46-2.63-1.25-3.64a5.94 5.94 0 0 0-4.73-2.33h-56.45c-6.73 0-12.17-5.45-12.17-12.17v-65.81c0-6.72 5.44-12.17 12.17-12.17h56.45c3.3 0 5.98-2.67 5.98-5.97v-56.46c0-6.72 5.45-12.17 12.17-12.17h65.81c6.72 0 12.17 5.45 12.17 12.17v56.46c0 1.93.91 3.64 2.33 4.72 1.01.79 2.27 1.25 3.64 1.25h56.46c6.72 0 12.17 5.45 12.17 12.17" class="cls-9"/><path d="M242.27 473.33c-.44-.57-.97-1.07-1.56-1.5l-16.23-15.59c-4.46-4.29-11.52-4.3-15.99-.02l-17.24 16.49a7.5 7.5 0 0 0-2.12 5.23v27.16c0 4.15 3.36 7.51 7.51 7.51h39.7c4.15 0 7.51-3.36 7.51-7.51v-27.16c0-1.74-.59-3.33-1.58-4.6Zm0-82.46c-.44.57-.97 1.07-1.56 1.5l-16.23 15.59c-4.46 4.29-11.52 4.3-15.99.02l-17.24-16.49a7.5 7.5 0 0 1-2.12-5.23V359.1c0-4.15 3.36-7.51 7.51-7.51h39.7c4.15 0 7.51 3.36 7.51 7.51v27.16c0 1.74-.59 3.33-1.58 4.6Zm15.45 15.45c-.57.44-1.07.97-1.5 1.56l-15.59 16.23c-4.29 4.46-4.3 11.52-.02 15.99l16.49 17.24a7.5 7.5 0 0 0 5.23 2.12h27.16c4.15 0 7.51-3.36 7.51-7.51v-39.7c0-4.15-3.36-7.51-7.51-7.51h-27.16c-1.74 0-3.33.59-4.6 1.58Zm-82.47 0c.57.44 1.07.97 1.5 1.56l15.59 16.23c4.29 4.46 4.3 11.52.02 15.99l-16.49 17.24a7.5 7.5 0 0 1-5.23 2.12h-27.16c-4.15 0-7.51-3.36-7.51-7.51v-39.7c0-4.15 3.36-7.51 7.51-7.51h27.16c1.74 0 3.33.59 4.6 1.58Z" class="cls-19"/><path d="M910.22 401.64v64.94c0 6.63-5.38 12-12.01 12h-66.45c-3.25 0-5.89 2.64-5.89 5.9v58.64c0 6.63-5.38 12-12.01 12h-64.94c-6.63 0-12.01-5.37-12.01-12v-58.64c0-1.06-.28-2.06-.78-2.92a5.87 5.87 0 0 0-5.11-2.98H667.5c-6.63 0-12.01-5.37-12.01-12v-64.94c0-6.64 5.38-12.01 12.01-12.01h63.52c3.25 0 5.89-2.64 5.89-5.9v-57.66c0-6.63 5.38-12.01 12.01-12.01h64.94c6.63 0 12.01 5.38 12.01 12.01v57.66c0 2.19 1.2 4.11 2.97 5.12.86.5 1.86.78 2.92.78h66.45c6.63 0 12.01 5.37 12.01 12.01" class="cls-9"/><circle cx="782.85" cy="357.39" r="34.3" class="cls-19"/><circle cx="782.85" cy="509.41" r="34.3" class="cls-19"/><circle cx="700.99" cy="433.4" r="34.3" class="cls-19"/><circle cx="865.69" cy="433.4" r="34.3" class="cls-19"/><path d="M865.69 412.78c11.37 0 20.62 9.25 20.62 20.62s-9.25 20.62-20.62 20.62-20.62-9.25-20.62-20.62 9.25-20.62 20.62-20.62m0-3.63c-13.4 0-24.26 10.86-24.26 24.26s10.86 24.26 24.26 24.26 24.26-10.86 24.26-24.26-10.86-24.26-24.26-24.26" style="fill:#f79571"/><path d="M759.16 371.22h47.39l-23.7-40.03z" style="stroke:#7eced0;fill:none;stroke-miterlimit:10;stroke-width:3.93px"/><path d="M682.75 415.04h36.49v36.49h-36.49z" style="fill:none;stroke-miterlimit:10;stroke-width:3.93px;stroke:#eb9cc4"/><path d="m803.47 491.55-2.76-2.76-17.86 17.86L765 488.79l-2.76 2.76 17.85 17.86-17.85 17.86 2.76 2.76 17.85-17.86 17.86 17.86 2.76-2.76-17.86-17.86z" style="fill:#adc3e5"/><path d="M562.28 425.71v21.78c0 4.48 4.29 7.74 8.68 6.59l41.68-10.89c6.85-1.79 6.85-11.39 0-13.18l-41.68-10.89c-4.38-1.14-8.68 2.12-8.68 6.59" class="cls-7"/><path d="M566 424.97v23.26c0 1.58 1.5 2.74 3.03 2.33l43.95-11.63c2.4-.63 2.4-4.03 0-4.67l-43.95-11.63a2.41 2.41 0 0 0-3.03 2.33Z" class="cls-19"/><rect width="48.29" height="29.93" x="389.78" y="421.64" class="cls-7" rx="5.43" ry="5.43"/><rect width="41.36" height="22.68" x="393.24" y="425.26" class="cls-19" rx="2.3" ry="2.3"/><path d="M530.88 490.05c0 16.53-13.39 29.93-29.92 29.93-8.5 0-16.16-3.54-21.6-9.23a29.76 29.76 0 0 1-8.32-20.7c0-16.52 13.39-29.92 29.92-29.92 9.45 0 17.87 4.38 23.35 11.22a29.76 29.76 0 0 1 6.57 18.7"/><path d="m501.31 499.66 9.29 2.36 3.42.83-5.31 4.13-3.38-.97-23.71-6.53-2.76-.73 7.07-4.43c5.91-3.7 10.98-3.77 15.54-2.77l.08.02c2.92.64 4.84 1.68 4.48 3.34l17.01.91-5.01 3.9-15.2-1.14-1.53 1.08Zm-5.06-1.28 1.02-.69c2.38-1.62 1.2-2.34-.78-2.81l-.08-.02c-1.95-.47-4.03-.51-6.32.97l-1.09.71z" class="cls-16"/><path d="m503.24 505.89-2.14-12.9-.63-.16-.22 8.56-.05 3.65-5.65-1.57.08-3.38.35-25.32.02-4.02 7.24 1.44c5.46 1.08 7.94 5.18 7.59 12.52-.18 3.91-1.21 6.47-3.06 7.7l2.67 15.21-6.19-1.72Zm-2-19.29q.375.09.69.09c.8 0 1.62-.38 1.72-3.21.1-2.8-.61-4.17-2.3-4.53l-.54-.11-.19 7.61z" class="cls-16"/><path d="m495.43 471.29 6.71 1.33c6.18 1.23 7.5 6.38 7.23 12.06v.09c-.17 3.45-1.04 6.22-3.11 7.41l2.6 14.81-5.23-1.46-2.15-12.91-1.46-.36-.23 9.12-.05 3.07-4.75-1.32.07-3.03.35-25.33v-3.49m6.52 15.86c1.67 0 2.1-1.61 2.17-3.64v-.09c.08-2.34-.37-4.4-2.65-4.89l-1.06-.23-.22 8.52.97.23c.29.07.55.1.79.1m-7.39-16.94v1.08l-.02 3.49-.35 25.32-.07 3.02-.02.7.67.19 4.75 1.32 1.12.31.02-1.16.05-3.07.18-7.04 1.88 11.33.09.56.55.15 5.23 1.46 1.36.38-.24-1.4-2.49-14.23c1.82-1.37 2.83-3.99 3.01-7.79v-.09c.36-7.6-2.24-11.84-7.95-12.98l-6.71-1.33-1.06-.21Zm6.54 15.9.17-6.71c1.02.22 2.06.87 1.95 3.98v.09c-.1 2.78-.87 2.78-1.28 2.78-.17 0-.37-.03-.59-.08l-.27-.06Z"/><circle cx="644.52" cy="572.25" r="93.96" class="cls-8"/><circle cx="355.61" cy="572.47" r="93.96" class="cls-8"/><circle cx="644.52" cy="572.47" r="68.08" class="cls-13"/><circle cx="355.61" cy="572.25" r="68.08" class="cls-13"/><path d="M434.29 365.04c-.89 0-1.44-.3-1.51-.94v-1.78c-.03-1.58-.05-1.86-.14-2.52-.15-1.18-.54-1.93-1.05-2.57-.85-1.05-2.25-1.51-4.46-1.86 4.34-.38 7.62-1.76 7.95-5.58.02-.21.03-.43.03-.65s0-.45-.03-.66c-.39-4.36-4.66-5.85-9.55-5.85h-20.07v3.14h3.41c.77 0 1.41.48 1.41 1.07v17.11c0 .59-.63 1.1-1.41 1.1h-1.45v3.1h12.02v-3.1h-1.23c-.96 0-1.54-.33-1.54-1.07v-7.2h5.91c.77 0 1.41.18 1.9.46.88.5 1.35 1.35 1.46 2.17l-.06 4.47c0 .59-.6 1.11-1.37 1.11l-1.86.07v3.1h12.86v-3.1h-1.23Zm-10.93-11.44h-6.69v-7.84h5.87c3.29 0 5.88.81 5.88 3.77s-2.1 4.07-5.06 4.07m30.39-11.94c9.57 0 15.85 5.36 15.85 13.49s-6.21 13.67-16.22 13.67c-8.91 0-15.89-5.14-15.89-13.45s5.62-13.71 16.26-13.71m-.33 23.9c7.57 0 9.02-5.39 9.02-10.31s-1.29-10.38-8.79-10.38-9.2 5.62-9.2 10.42 1.48 10.27 8.98 10.27Zm50.51-1.81V346.6l-9.94 21.54h-3.4l-9.83-21.51v17.33c0 .74.63 1.07 1.55 1.07h2.99v3.1h-13.19v-3.1h3.36c.78 0 1.4-.52 1.4-1.11v-16.66c0-.92-.59-1.52-1.52-1.52h-3.25v-3.14h13.3l8.09 17.59 8.24-17.59h13.3v3.14h-3.1c-1.07 0-1.63.37-1.63 1.26v16.78c0 .92.63 1.26 1.59 1.26h3.18v3.1h-15.78v-3.1h3.21c.78 0 1.4-.52 1.4-1.29Zm45.93 0V346.6l-9.94 21.54h-3.4l-9.83-21.51v17.33c0 .74.63 1.07 1.55 1.07h2.99v3.1h-13.19v-3.1h3.36c.78 0 1.4-.52 1.4-1.11v-16.66c0-.92-.59-1.52-1.51-1.52h-3.25v-3.14h13.3l8.09 17.59 8.24-17.59h13.3v3.14h-3.1c-1.07 0-1.63.37-1.63 1.26v16.78c0 .92.63 1.26 1.59 1.26h3.18v3.1h-15.78v-3.1h3.22c.78 0 1.4-.52 1.4-1.29Zm20.29 1.3h3.33c1.55 0 1.44-1.07 1.44-2.48v-4.55l-8.94-11.27c-.7-.89-1.07-1-2.55-1h-1.15v-3.14h14.82v3.14h-3.14c-.66 0-.96.3-.96.78 0 1.07 3.1 4.18 6.17 8.09 3.36-3.92 6.17-7.02 6.17-8.09 0-.7-.74-.78-2.11-.78h-1.74v-3.14h12.49v3.14h-1.14c-1.63 0-2 .15-3.44 1.92l-8.09 10.01v6.06c0 1.11.74 1.29 1.77 1.29h3.03v3.1h-15.96v-3.1Z" style="fill:#7d7f82"/><path d="M421.72 307.53h4.34v4.34h-4.34z" style="fill:#d33a39"/><path d="M393.82 307.53h4.34v4.34h-4.34zm-27.9 0h4.34v4.34h-4.34zm-27.9 0h4.34v4.34h-4.34z" style="fill:#351b1b"/><path d="m264.06 384.89-93.73 93.73a5.94 5.94 0 0 0-4.73-2.33h-56.45c-6.73 0-12.17-5.45-12.17-12.17v-65.81c0-6.72 5.44-12.17 12.17-12.17h56.45c3.3 0 5.98-2.67 5.98-5.97v-56.46c0-6.72 5.45-12.17 12.17-12.17h65.81c6.72 0 12.17 5.45 12.17 12.17v56.46c0 1.93.91 3.64 2.33 4.72m564.78 3.96-92.71 92.71a5.87 5.87 0 0 0-5.11-2.98H667.5c-6.63 0-12.01-5.37-12.01-12v-64.94c0-6.64 5.38-12.01 12.01-12.01h63.52c3.25 0 5.89-2.64 5.89-5.9v-57.66c0-6.63 5.38-12.01 12.01-12.01h64.94c6.63 0 12.01 5.38 12.01 12.01v57.66c0 2.19 1.2 4.11 2.97 5.12m-304.53 82.5c-12.26 16.22-27.55 29.69-44.95 39.4a29.76 29.76 0 0 1-8.32-20.7c0-16.52 13.39-29.92 29.92-29.92 9.45 0 17.87 4.38 23.35 11.22" style="fill:#fff;opacity:.06"/></svg>