<svg xmlns="http://www.w3.org/2000/svg" id="Layer_1" data-name="Layer 1" viewBox="0 0 1000 1000"><defs><pattern id="Dot_Matrix" width="8" height="8" x="0" y="0" data-name="Dot Matrix" patternTransform="translate(-20.34 -46.5)" patternUnits="userSpaceOnUse" viewBox="0 0 8 8"><path d="M0 0h8v8H0z" style="fill:none"/><circle cx="4" cy="4" r="1.29" style="fill:#5a5a64"/></pattern><style>.cls-6{stroke-miterlimit:10}.cls-7{fill:#121212}.cls-10{fill:#0d0d0d}.cls-11{fill:#4a494a}.cls-12{fill:#28282d}.cls-14{opacity:.06}.cls-15{fill:#c6c6c5}.cls-6{fill:#252526;stroke:#000;stroke-width:3px}.cls-16{fill:#383838}.cls-17{fill:#151515}.cls-19{fill:#444445}.cls-14{fill:#fff}.cls-20{fill:#4f4f4f}</style></defs><path d="M149.27 186.66s48.99-22.86 78.76-17.24 39.42 9.95 39.42 9.95l-55.52 20.58z" class="cls-19"/><path d="m267.45 214.61-118.18-1.52v-26.43c28.44-9.54 67.5-12.19 118.18-7.29z" class="cls-17"/><path d="M856.39 186.66s-48.99-22.86-78.76-17.24-39.42 9.95-39.42 9.95l55.52 20.58z" class="cls-19"/><path d="m738.21 214.61 118.18-1.52v-26.43c-28.44-9.54-67.5-12.19-118.18-7.29z" class="cls-17"/><path d="M978.1 649.6c-1.76 25.18-5.28 50.23-10.33 61.18-8.05 17.47-33.27 49.37-58.79 56.66s-54.38 9.57-82.17-14.58c-19.38-16.84-34.94-40.08-46.5-63.42-5.03-10.15-9.3-20.31-12.8-29.98-11.55-31.9-24.27-64.26-24.27-64.26l-9.76-29.71s-.88-3.63-6.39-7.12c-6.09-3.3-15.27-5.59-18.52-6.34-.95-.18-1.52-.27-1.52-.27H296.33s-.56.09-1.52.27c-3.25.75-12.42 3.04-18.52 6.34-5.51 3.49-6.39 7.12-6.39 7.12l-9.75 29.71s-12.73 32.36-24.27 64.26c-11.55 31.9-31.5 69.24-59.3 93.4-27.8 24.15-56.66 21.87-82.18 14.58s-50.73-39.19-58.78-56.66-12.23-70.79-11.55-103.29c.69-32.51 11.09-94.33 14.58-114.99 3.5-20.66 30.69-129.57 36.16-152.35 5.46-22.79 12.15-46.79 19.44-64.71 7.29-17.93 26.83-45.69 28.59-48.02 1.77-2.34 16.21-27.66 17.41-28.74 1.19-1.08 2.27-1.88 10.25-3.93 7.97-2.05 54.8-4.56 73.48-4.21 18.68.34 50.01 5.24 52.29 6s5.47 3.19 9.27 4.63c3.79 1.44 13.59 1.21 13.59 1.21h405.12s9.8.23 13.6-1.21c3.79-1.44 6.98-3.87 9.26-4.63s33.61-5.66 52.29-6c18.69-.35 65.51 2.16 73.48 4.21 7.98 2.05 9.06 2.85 10.26 3.93 1.19 1.08 15.63 26.4 17.4 28.74 1.77 2.33 21.3 30.09 28.59 48.02 7.3 17.92 13.98 41.92 19.45 64.71 5.47 22.78 32.66 131.69 36.15 152.35s13.9 82.48 14.58 114.99c.26 12.12-.16 27.14-1.21 42.11" style="fill:#1d1d1e"/><path d="M741.08 460.45c-4.55-10.95-24.31-20.35-24.31-20.35s-105.15-48.87-136.57 2c-34.44 60.36 14.04 109.65 14.04 109.65h.39-7.24c17.58 16.36 41.15 26.37 67.06 26.37s47.16-7.8 64.53-23.17l-4.9-1.52c37.71-32.78 31.55-82.05 27-92.99Zm-474.83-1.04c4.55-10.95 53.59-39.08 53.59-39.08s75.31-29.72 106.73 21.15c34.44 60.36-17.58 110.27-17.58 110.27h-.39 7.24c-17.58 16.36-41.15 26.37-67.06 26.37-25.01 0-47.16-7.8-64.53-23.17l4.9-1.52c-37.71-32.78-27.45-83.09-22.9-94.03Z" style="fill:#171717"/><circle cx="657.4" cy="479.65" r="85.83" class="cls-12"/><path d="M528.37 485.62c0 13.45-10.89 24.35-24.34 24.35-6.91 0-13.15-2.88-17.57-7.51-4.2-4.37-6.77-10.3-6.77-16.84 0-13.44 10.89-24.34 24.34-24.34 7.69 0 14.54 3.56 18.99 9.13 3.34 4.16 5.34 9.45 5.34 15.21Z"/><path d="m504.32 493.44 7.56 1.92 2.78.68-4.32 3.36-2.75-.79-19.29-5.32-2.24-.59 5.75-3.6c4.81-3.01 8.94-3.07 12.64-2.25h.06c2.38.54 3.94 1.38 3.64 2.73l13.84.74-4.08 3.17-12.36-.93-1.24.88Zm-4.12-1.04.83-.56c1.93-1.32.98-1.9-.63-2.29l-.06-.02c-1.58-.38-3.28-.41-5.14.79l-.89.58 5.9 1.5Z" class="cls-15"/><path d="m505.88 498.51-1.75-10.49-.52-.13-.18 6.96-.04 2.96-4.59-1.28.07-2.75.28-20.6v-3.27l5.9 1.17c4.44.88 6.46 4.21 6.18 10.18-.15 3.18-.99 5.26-2.49 6.27l2.17 12.37-5.03-1.4Zm-1.62-15.69c.2.05.39.07.56.07.65 0 1.32-.31 1.4-2.61.08-2.28-.5-3.39-1.87-3.68l-.44-.09-.16 6.19.5.12Z" class="cls-15"/><path d="m499.53 470.36 5.45 1.09c5.02 1 6.1 5.19 5.88 9.81v.08c-.14 2.81-.84 5.06-2.53 6.03l2.11 12.05-4.25-1.19-1.75-10.5-1.19-.29-.19 7.42-.04 2.5-3.87-1.08.06-2.46.28-20.6v-2.84m5.33 12.87c1.36 0 1.71-1.31 1.76-2.96v-.08c.07-1.91-.3-3.58-2.16-3.97l-.86-.18-.18 6.93.79.19c.24.06.45.08.64.08m-6-13.78v.88l-.01 2.84-.28 20.6-.06 2.45v.57l.53.15 3.87 1.08.91.25v-.94l.05-2.5.15-5.73 1.53 9.21.08.46.45.12 4.25 1.19 1.11.31-.2-1.14-2.03-11.58c1.48-1.12 2.3-3.24 2.45-6.34v-.08c.3-6.18-1.82-9.63-6.47-10.56l-5.45-1.09-.87-.17Zm5.31 12.93.14-5.46c.83.18 1.67.7 1.59 3.24v.08c-.08 2.26-.7 2.26-1.04 2.26q-.21 0-.48-.06l-.22-.05Z"/><path d="M523.02 470.41c-9.97 13.19-22.41 24.15-36.57 32.05-4.2-4.37-6.77-10.3-6.77-16.84 0-13.44 10.89-24.34 24.34-24.34 7.69 0 14.54 3.56 18.99 9.13Z" class="cls-14"/><rect width="35.39" height="56.51" x="290.45" y="225.42" class="cls-6" rx="17.7" ry="17.7"/><rect width="35.39" height="56.51" x="682.78" y="225.42" class="cls-6" rx="17.7" ry="17.7"/><circle cx="469.68" cy="407.11" r="4.56" class="cls-10"/><circle cx="486.9" cy="407.11" r="4.56" class="cls-10"/><circle cx="504.12" cy="407.11" r="4.56" class="cls-10"/><circle cx="538.55" cy="407.11" r="4.56" class="cls-10"/><circle cx="521.33" cy="407.11" r="4.56" class="cls-10"/><circle cx="478.29" cy="420.32" r="4.56" class="cls-10"/><circle cx="495.51" cy="420.32" r="4.56" class="cls-10"/><circle cx="529.94" cy="420.32" r="4.56" class="cls-10"/><circle cx="512.72" cy="420.32" r="4.56" class="cls-10"/><circle cx="486.9" cy="433.54" r="4.56" class="cls-10"/><circle cx="521.33" cy="433.54" r="4.56" class="cls-10"/><circle cx="349.68" cy="479.65" r="85.83" class="cls-12"/><circle cx="504.12" cy="433.54" r="4.56" class="cls-10"/><path d="M917.3 347.7c0 62.27-50.48 112.75-112.75 112.75-32.48 0-61.75-13.73-82.31-35.71-18.88-20.16-30.43-47.25-30.43-77.04 0-62.27 50.48-112.74 112.74-112.74 35.48 0 67.14 16.39 87.8 42.01 15.61 19.34 24.95 43.94 24.95 70.73m-599.93 0c0 62.27-50.48 112.75-112.75 112.75-32.36 0-61.53-13.63-82.07-35.46-19.02-20.19-30.67-47.37-30.67-77.29 0-62.27 50.47-112.74 112.74-112.74 34.95 0 66.19 15.9 86.87 40.87 16.17 19.51 25.88 44.55 25.88 71.87"/><path d="M892.35 276.97 722.24 424.74c-18.88-20.16-30.43-47.25-30.43-77.04 0-62.27 50.48-112.74 112.74-112.74 35.48 0 67.14 16.39 87.8 42.01m-600.86-1.14L122.55 424.99c-19.02-20.19-30.67-47.37-30.67-77.29 0-62.27 50.47-112.74 112.74-112.74 34.95 0 66.19 15.9 86.87 40.87" class="cls-14"/><circle cx="804.55" cy="280.09" r="30.14" class="cls-20"/><circle cx="804.55" cy="413.67" r="30.14" class="cls-20"/><circle cx="732.62" cy="346.88" r="30.14" class="cls-20"/><circle cx="877.35" cy="346.88" r="30.14" class="cls-20"/><path d="M877.35 328.76c9.99 0 18.12 8.13 18.12 18.12S887.34 365 877.35 365s-18.12-8.13-18.12-18.12 8.13-18.12 18.12-18.12m0-3.19c-11.77 0-21.31 9.54-21.31 21.31s9.54 21.31 21.31 21.31 21.31-9.54 21.31-21.31-9.54-21.31-21.31-21.31" style="fill:#f79571"/><path d="M783.73 292.24h41.64l-20.82-35.17z" style="stroke:#7eced0;fill:none;stroke-width:3.46px;stroke-miterlimit:10"/><path d="M716.59 330.75h32.06v32.06h-32.06z" style="fill:none;stroke-width:3.46px;stroke-miterlimit:10;stroke:#eb9cc4"/><circle cx="349.68" cy="479.65" r="61.57" class="cls-7"/><circle cx="349.68" cy="479.65" r="56.67" class="cls-16"/><path d="m822.67 397.98-2.43-2.43-15.69 15.7-15.69-15.7-2.42 2.43 15.69 15.69-15.69 15.69 2.42 2.43 15.69-15.69 15.69 15.69 2.43-2.43-15.69-15.69z" style="fill:#adc3e5"/><circle cx="349.68" cy="479.65" r="38.18" class="cls-11"/><circle cx="657.4" cy="479.65" r="61.57" class="cls-7"/><circle cx="657.4" cy="479.65" r="56.67" class="cls-16"/><circle cx="657.4" cy="479.65" r="38.18" class="cls-11"/><path d="m223.6 319.26-15.41 14.63c-2.96 2.81-7.63 2.75-10.51-.14l-14.7-14.7c-1.95-1.95-3.05-4.6-3.05-7.36l-2-29.33c0-6.25 5.07-11.32 11.32-11.32h28.46c6.25 0 11.32 5.07 11.32 11.32l-2 28.92c0 3.02-1.24 5.9-3.42 7.97Zm0 59.39-15.41-14.63c-2.96-2.81-7.63-2.75-10.51.14l-14.7 14.7c-1.95 1.95-3.05 4.6-3.05 7.36l-2 29.33c0 6.25 5.07 11.32 11.32 11.32h28.46c6.25 0 11.32-5.07 11.32-11.32l-2-28.92c0-3.02-1.24-5.9-3.42-7.97Zm-49.82-49.82 14.63 15.41c2.81 2.96 2.75 7.63-.14 10.51l-14.7 14.7c-1.95 1.95-4.6 3.05-7.36 3.05l-29.33 2c-6.25 0-11.32-5.07-11.32-11.32v-28.46c0-6.25 5.07-11.32 11.32-11.32l28.92 2c3.02 0 5.9 1.24 7.97 3.42Zm59.4 0-14.63 15.41c-2.81 2.96-2.75 7.63.14 10.51l14.7 14.7c1.95 1.95 4.6 3.05 7.36 3.05l29.33 2c6.25 0 11.32-5.07 11.32-11.32v-28.46c0-6.25-5.07-11.32-11.32-11.32l-28.92 2c-3.02 0-5.9 1.24-7.97 3.42Z" style="fill:#1e1e1e"/><path d="M978.1 649.6c-1.76 25.18-5.28 50.23-10.33 61.18-8.05 17.47-33.27 49.37-58.79 56.66s-54.38 9.57-82.17-14.58c-19.38-16.84-34.94-40.08-46.5-63.42 17.47 13.23 49.13 26.87 99.98 15.36 60.19-13.63 87.04-40.24 97.81-55.2m-952.81 0c1.76 25.18 5.28 50.23 10.33 61.18 8.05 17.47 33.27 49.37 58.79 56.66s54.38 9.57 82.17-14.58c19.38-16.84 34.94-40.08 46.5-63.42-17.47 13.23-49.13 26.87-99.98 15.36-60.19-13.63-87.04-40.24-97.81-55.2" class="cls-12"/><path d="M663.82 205.15c0-.17-.01-.33-.03-.49a7 7 0 0 0-.19-1.05 6.5 6.5 0 0 0-.47-1.23H342.2c-.2.39-.36.8-.47 1.23-.03.15-.07.29-.1.44q-.06.3-.09.6c-.02.17-.03.33-.03.5-.01.09-.01.18-.01.27v155.61c0 .34.01.67.02 1.01.14 4.67 1.64 9.01 4.14 12.61.17.26.36.51.54.76.43.57.87 1.12 1.34 1.65.32.36.65.71.98 1.04.27.27.54.53.82.78a23.68 23.68 0 0 0 13.72 5.98c.33.03.66.05.99.07.3.01.59.02.89.02h275.45c.27 0 .55 0 .82-.02a23.64 23.64 0 0 0 13.22-4.76c.26-.2.52-.41.78-.62.41-.33.81-.69 1.19-1.07.19-.17.38-.35.56-.54.26-.27.52-.55.78-.83q.705-.795 1.35-1.65c.37-.5.72-1.02 1.06-1.55 2.21-3.45 3.53-7.51 3.66-11.87.01-.33.02-.67.02-1.01V205.42c0-.09 0-.18-.01-.27" style="fill:#17171a"/><path d="M663.82 205.15c0-.17-.01-.33-.03-.49a7 7 0 0 0-.19-1.05 6.5 6.5 0 0 0-.48-1.23h-2.36c.66.82 1.07 1.88 1.07 3.04v155.61c0 12.06-9.62 21.88-21.44 21.88H364.94c-11.82 0-21.44-9.82-21.44-21.88V205.42c0-1.16.4-2.22 1.07-3.04h-2.36c-.19.39-.36.8-.48 1.23-.03.15-.07.29-.1.44q-.06.3-.09.6c-.02.17-.03.33-.03.5-.01.09-.01.18-.01.27v155.61c0 .34.01.67.02 1.01.19 4.67 1.69 9 4.14 12.61.17.26.36.51.54.76.43.57.87 1.12 1.34 1.65.32.36.65.71.98 1.04.27.27.54.53.82.78.26.24.53.47.8.69 3.58 2.99 8.03 4.91 12.92 5.29.33.03.66.05.99.07.3.01.59.02.89.02h275.45c.27 0 .55 0 .82-.02a22.92 22.92 0 0 0 13.22-4.76c.26-.2.52-.41.78-.62.41-.33.81-.69 1.19-1.07.19-.17.38-.35.56-.54.26-.27.52-.55.78-.83q.705-.795 1.35-1.65c.37-.5.72-1.02 1.06-1.55a24.17 24.17 0 0 0 3.68-12.88V205.42c0-.09 0-.18-.01-.27"/><path d="M345.5 217.3h313.9v160.02H345.5z" style="fill:url(#Dot_Matrix);opacity:.06"/></svg>