<svg xmlns="http://www.w3.org/2000/svg" id="Layer_1" data-name="Layer 1" viewBox="0 0 1000 1000"><defs><style>.cls-1{fill:#dbdee6}.cls-4{fill:#32363d}.cls-5{fill:#121212}.cls-6{fill:#3d3d3d}.cls-8{fill:#0d0d0d}.cls-9{fill:#28282d}.cls-10{fill:#40403f}.cls-12{stroke:#000;stroke-miterlimit:10;stroke-width:1.25px}.cls-12,.cls-13{fill:#2a2a2d}.cls-14{fill:#b5b5b6}.cls-17{fill:#353535}</style></defs><path d="M307.79 590.99c5.91.38 22.08 5.28 41.22 5.28s285.04-.46 304.86-.34 24.16-4.86 38.85-4.94 22.59 2.81 22.59 2.81 26.58 9.42 35.47 21.95 22.63 33.95 28.1 49.82c4.88 14.17 53.17 120.47 63.47 143.11a6.08 6.08 0 0 0 6.51 3.48l53.59-8.82-70.18-248.14-120.91-147.3-53.47-102.64-360 8.2-110.05 255.88L95.6 794.45l8.06 9.27 49.47 8.07c1.33.22 2.66-.4 3.35-1.55l4.72-7.83 12.35-23.39 46.1-109.33s18.15-41.47 28.56-51.65 20.58-18.15 24-19.22 13.25-5.41 15.72-5.87 8.73-1.71 10.29-1.77 5.09-.34 6.08-.32 3.47.11 3.47.11Z" style="fill:#1a1c1d"/><path d="M145.09 215.8s30.87-23.87 61.75-26.83 58.44.17 59.35 2.34l.91 2.16z" class="cls-4"/><path d="m269.38 209.18-126.52 21.98 2.23-15.36c40.12-9.34 80.79-16.78 122.01-22.33z" class="cls-13"/><path d="M856.29 215.8s-30.87-23.87-61.75-26.83-58.44.17-59.35 2.34l-.91 2.16z" class="cls-4"/><path d="m732 209.18 126.52 21.98-2.23-15.36c-40.12-9.34-80.79-16.78-122.01-22.33z" class="cls-13"/><path d="M275.98 211.32c151.05-21.31 299.76-22.03 445.87 0l-6.5 56.64-458.21 10.51z" style="fill:#ccd1d8"/><path d="M698.26 234.68 671.18 368.2c-5.08 25.06-26.67 43.02-51.7 43.02H381.77c-24.95 0-46.5-17.85-51.67-42.8l-27.66-133.63c-3.47-16.78 9.05-32.56 25.83-32.56 116.36-9.4 231.12-9.68 344.14 0 16.73 0 29.24 15.7 25.85 32.45" style="fill:#3b3d3f"/><path d="M619.48 397.04H381.77c-24.95 0-46.5-16.68-51.66-40l-27.66-124.87c-3.47-15.68 9.05-30.43 25.82-30.43 116.36-8.78 231.12-9.04 344.15 0 16.73 0 29.24 14.68 25.85 30.33L671.2 356.83c-5.08 23.41-26.67 40.2-51.71 40.2Z" style="fill:#537bbd"/><path d="M854.24 230.61s17.32 3.19 18.08 4.1 33.57 63.95 48.61 110.13 41.92 143.41 48.91 223.26.61 167.04-17.92 196.51-42.23 43.14-52.86 40.1-17.62-14.28-24-30.38-30.38-97.82-54.08-150.38-67.14-138.4-92.96-169.15-48.3-54.44-53.77-78.75 16.71-107.85 18.84-120.61 6.76-32.81 18.42-40.22 21.57-6.61 35.93-4.9 106.82 20.28 106.82 20.28Zm-708.48 0s-17.32 3.19-18.08 4.1-33.57 63.95-48.61 110.13S37.15 488.25 30.16 568.1s-.61 167.04 17.92 196.51 42.23 43.14 52.86 40.1 17.62-14.28 24-30.38 30.38-97.82 54.08-150.38 67.14-138.4 92.96-169.15 48.3-54.44 53.77-78.75-16.71-107.85-18.84-120.61-6.76-32.81-18.42-40.22-21.57-6.61-35.93-4.9c-14.35 1.71-106.82 20.28-106.82 20.28Z" class="cls-1"/><path d="M864.53 397.54c-16.9 0-30.64-13.75-30.64-30.64s13.75-30.64 30.64-30.64 30.64 13.75 30.64 30.64-13.75 30.64-30.64 30.64" class="cls-1"/><path d="M864.53 336.76c16.65 0 30.14 13.5 30.14 30.14s-13.5 30.14-30.14 30.14-30.14-13.5-30.14-30.14 13.5-30.14 30.14-30.14m0-1c-17.17 0-31.14 13.97-31.14 31.14s13.97 31.14 31.14 31.14 31.14-13.97 31.14-31.14-13.97-31.14-31.14-31.14" class="cls-6"/><path d="M864.53 348.78c9.99 0 18.12 8.13 18.12 18.12s-8.13 18.12-18.12 18.12-18.12-8.13-18.12-18.12 8.13-18.12 18.12-18.12m0-3.19c-11.77 0-21.31 9.54-21.31 21.31s9.54 21.31 21.31 21.31 21.31-9.54 21.31-21.31-9.54-21.31-21.31-21.31" class="cls-14"/><path d="M794.73 328.75c-16.9 0-30.64-13.75-30.64-30.64s13.75-30.64 30.64-30.64 30.64 13.75 30.64 30.64-13.75 30.64-30.64 30.64" class="cls-1"/><path d="M794.73 267.97c16.65 0 30.14 13.5 30.14 30.14s-13.5 30.14-30.14 30.14-30.14-13.5-30.14-30.14 13.5-30.14 30.14-30.14m0-1c-17.17 0-31.14 13.97-31.14 31.14s13.97 31.14 31.14 31.14 31.14-13.97 31.14-31.14-13.97-31.14-31.14-31.14" class="cls-6"/><path d="M818.58 311.99h-47.7l23.85-40.3zm-41.63-3.46h35.57l-17.79-30.05-17.79 30.05Z" class="cls-14"/><path d="M725.8 397.54c-16.9 0-30.64-13.75-30.64-30.64s13.75-30.64 30.64-30.64 30.64 13.75 30.64 30.64-13.75 30.64-30.64 30.64" class="cls-1"/><path d="M725.8 336.76c16.65 0 30.14 13.5 30.14 30.14s-13.5 30.14-30.14 30.14-30.14-13.5-30.14-30.14 13.5-30.14 30.14-30.14m0-1c-17.17 0-31.14 13.97-31.14 31.14s13.97 31.14 31.14 31.14 31.14-13.97 31.14-31.14-13.97-31.14-31.14-31.14" class="cls-6"/><path d="M743.56 384.56h-35.52v-35.52h35.52zm-32.06-3.46h28.6v-28.6h-28.6z" class="cls-14"/><path d="M794.73 467.33c-16.9 0-30.64-13.75-30.64-30.64s13.75-30.64 30.64-30.64 30.64 13.75 30.64 30.64-13.75 30.64-30.64 30.64" class="cls-1"/><path d="M794.73 406.55c16.65 0 30.14 13.5 30.14 30.14s-13.5 30.14-30.14 30.14-30.14-13.5-30.14-30.14 13.5-30.14 30.14-30.14m0-1c-17.17 0-31.14 13.97-31.14 31.14s13.97 31.14 31.14 31.14 31.14-13.97 31.14-31.14-13.97-31.14-31.14-31.14" class="cls-6"/><path d="m812.85 421-2.43-2.43-15.69 15.69-15.69-15.69-2.42 2.43 15.69 15.69-15.69 15.69 2.42 2.43 15.69-15.7 15.69 15.7 2.43-2.43-15.69-15.69z" class="cls-14"/><path d="M205 354.4c-2.15 0-4.16-.84-5.68-2.35l-14.7-14.7c-2.06-2.06-3.2-4.8-3.2-7.71l-2-29.3c0-6.55 5.3-11.85 11.82-11.85h28.46c6.52 0 11.82 5.3 11.82 11.82l-2 28.96c0 3.1-1.3 6.14-3.58 8.3l-15.4 14.63a8 8 0 0 1-5.53 2.21Z" class="cls-1"/><path d="M219.69 288.99c6.25 0 11.32 5.07 11.32 11.32l-2 28.92c0 3.02-1.24 5.9-3.42 7.97l-15.41 14.63c-1.46 1.38-3.32 2.07-5.19 2.07s-3.86-.74-5.33-2.21l-14.7-14.7c-1.95-1.95-3.05-4.6-3.05-7.36l-2-29.33c0-6.25 5.07-11.32 11.32-11.32h28.46m0-.99h-28.46c-6.79 0-12.32 5.53-12.32 12.32v.07l2 29.3c0 3.03 1.2 5.89 3.34 8.03l14.7 14.7c1.61 1.61 3.75 2.5 6.03 2.5s4.28-.83 5.87-2.35l15.41-14.63c2.37-2.25 3.73-5.4 3.74-8.66l2-28.89v-.06c0-6.79-5.53-12.32-12.32-12.32Z" class="cls-6"/><path d="M191.24 445.31c-6.52 0-11.82-5.3-11.82-11.82l2-29.37c0-2.88 1.13-5.62 3.19-7.68l14.7-14.7c1.52-1.52 3.53-2.35 5.68-2.35s4.03.78 5.53 2.21l15.4 14.63a11.53 11.53 0 0 1 3.58 8.34l2 28.89c0 6.55-5.3 11.85-11.82 11.85h-28.46Z" class="cls-1"/><path d="M205 379.9c1.86 0 3.73.69 5.19 2.07l15.41 14.63c2.19 2.08 3.42 4.96 3.42 7.97l2 28.92c0 6.25-5.07 11.32-11.32 11.32h-28.46c-6.25 0-11.32-5.07-11.32-11.32l2-29.33c0-2.76 1.1-5.41 3.05-7.36l14.7-14.7a7.52 7.52 0 0 1 5.33-2.21m0-.99c-2.28 0-4.42.89-6.03 2.5l-14.7 14.7c-2.15 2.15-3.33 5-3.34 8.03l-2 29.3v.06c0 6.79 5.53 12.32 12.32 12.32h28.46c6.79 0 12.32-5.53 12.32-12.32v-.07l-2-28.89c0-3.26-1.37-6.42-3.74-8.66l-15.41-14.63a8.5 8.5 0 0 0-5.88-2.35Z" class="cls-6"/><path d="M138.87 392.94c-6.52 0-11.82-5.3-11.82-11.82v-28.46c0-6.52 5.3-11.82 11.82-11.82l28.96 2c3.1 0 6.14 1.3 8.3 3.58l14.63 15.4a7.983 7.983 0 0 1-.15 11.21l-14.7 14.7c-2.06 2.06-4.8 3.2-7.72 3.2l-29.32 2h-.02Z" class="cls-1"/><path d="m138.87 341.36 28.92 2c3.02 0 5.9 1.24 7.97 3.42l14.63 15.41a7.53 7.53 0 0 1-.14 10.51l-14.7 14.7c-1.95 1.95-4.6 3.05-7.36 3.05l-29.33 2c-6.25 0-11.32-5.07-11.32-11.32v-28.46c0-6.25 5.07-11.32 11.32-11.32m.04-.99h-.03c-6.79 0-12.32 5.53-12.32 12.32v28.46c0 6.79 5.53 12.32 12.32 12.32h.07l29.3-2c3.03 0 5.89-1.2 8.03-3.34l14.7-14.7c3.3-3.3 3.36-8.53.15-11.91l-14.63-15.41c-2.25-2.37-5.4-3.73-8.66-3.74l-28.89-2h-.03Z" class="cls-6"/><path d="M242.69 390.94c-2.88 0-5.62-1.13-7.68-3.19l-14.7-14.7a7.993 7.993 0 0 1-.15-11.21l14.63-15.4a11.53 11.53 0 0 1 8.34-3.58l28.89-2c6.55 0 11.85 5.3 11.85 11.82v28.46c0 6.52-5.3 11.82-11.82 11.82l-29.37-2Z" class="cls-1"/><path d="M272.06 341.36c6.25 0 11.32 5.07 11.32 11.32v28.46c0 6.25-5.07 11.32-11.32 11.32l-29.33-2c-2.76 0-5.41-1.1-7.36-3.05l-14.7-14.7a7.53 7.53 0 0 1-.14-10.51l14.63-15.41c2.08-2.19 4.96-3.42 7.97-3.42l28.92-2m.01-1.01h-.07l-28.89 2c-3.26 0-6.42 1.37-8.66 3.74l-14.63 15.41a8.494 8.494 0 0 0 .15 11.91l14.7 14.7c2.15 2.15 5 3.33 8.03 3.34l29.3 2h.06c6.79 0 12.32-5.53 12.32-12.32v-28.46c0-6.79-5.53-12.32-12.32-12.32Z" class="cls-6"/><circle cx="466.18" cy="427.24" r="4.48" class="cls-8"/><circle cx="483.1" cy="427.24" r="4.48" class="cls-8"/><circle cx="500.01" cy="427.24" r="4.48" class="cls-8"/><circle cx="533.85" cy="427.24" r="4.48" class="cls-8"/><circle cx="516.93" cy="427.24" r="4.48" class="cls-8"/><circle cx="474.98" cy="442.45" r="4.42" class="cls-8"/><circle cx="491.67" cy="442.45" r="4.42" class="cls-8"/><circle cx="525.05" cy="442.45" r="4.42" class="cls-8"/><circle cx="508.36" cy="442.45" r="4.42" class="cls-8"/><circle cx="653.04" cy="495.6" r="72.5" class="cls-9"/><circle cx="653.04" cy="495.6" r="59.6" class="cls-5"/><circle cx="653.04" cy="495.6" r="55" class="cls-10"/><path d="M212.88 313.46h-14.83l7.42-6.82 7.42 6.82Zm-7.41 110.18-7.42-6.82h14.83l-7.42 6.82Zm-51.68-65.92v14.83l-6.82-7.42 6.82-7.42Zm110.18 7.42-6.82 7.42v-14.83l6.82 7.42Z" class="cls-14"/><circle cx="653.04" cy="495.6" r="32.44" class="cls-17"/><circle cx="350.79" cy="495.6" r="72.5" class="cls-9"/><circle cx="350.79" cy="495.6" r="59.6" class="cls-5"/><circle cx="350.79" cy="495.6" r="55" class="cls-10"/><circle cx="350.79" cy="495.6" r="32.44" class="cls-17"/><path d="m502.41 505.64 12.96 3.29 4.77 1.16-7.4 5.76-4.71-1.35-33.09-9.12-3.84-1.01 9.87-6.18c8.25-5.16 15.33-5.27 21.69-3.86l.11.02c4.08.9 6.75 2.34 6.25 4.65l23.74 1.27-7 5.44-21.2-1.6-2.13 1.51Zm-7.07-1.79 1.42-.97c3.32-2.26 1.68-3.26-1.08-3.92l-.11-.03c-2.72-.65-5.62-.71-8.82 1.36l-1.53.99z" class="cls-12"/><path d="m500.61 495.32-.32 12.72-.06 4.28-6.63-1.85.1-4.22.48-35.34.02-4.87 9.36 1.86c8.62 1.71 10.47 8.9 10.09 16.82v.13c-.23 4.82-1.44 8.68-4.33 10.34l3.62 20.66-7.3-2.03-2.99-18.01-2.04-.51Zm.19-7.62 1.36.32c3.26.77 4.02-1.7 4.13-4.94v-.13c.12-3.27-.52-6.14-3.7-6.82l-1.48-.32-.3 11.88Z" class="cls-12"/><rect width="45.8" height="10.48" x="477.08" y="541.86" class="cls-12" rx="5.24" ry="5.24"/><path d="M281.75 285.98c-5.63 0-10.43-3.84-11.67-9.33l-4.66-20.57c-.71-3.12-.16-6.33 1.55-9.04s4.36-4.59 7.49-5.3c.88-.2 1.77-.3 2.66-.3 5.63 0 10.43 3.84 11.67 9.33l4.66 20.57c.71 3.12.16 6.33-1.55 9.04a11.9 11.9 0 0 1-7.49 5.3c-.88.2-1.77.3-2.66.3" class="cls-1"/><path d="M277.11 241.95c5.24 0 9.98 3.62 11.19 8.94l4.66 20.57c1.4 6.18-2.47 12.33-8.66 13.73-.85.19-1.71.29-2.55.29-5.24 0-9.98-3.62-11.19-8.94l-4.66-20.57c-1.4-6.18 2.47-12.33 8.66-13.73.85-.19 1.71-.29 2.55-.29m0-1c-.93 0-1.86.1-2.77.31-3.25.74-6.02 2.7-7.8 5.52s-2.35 6.16-1.61 9.41l4.66 20.57c1.3 5.72 6.3 9.72 12.16 9.72.93 0 1.86-.1 2.77-.31 3.25-.74 6.02-2.7 7.8-5.52s2.35-6.16 1.61-9.41l-4.66-20.57c-1.3-5.72-6.3-9.72-12.16-9.72" class="cls-6"/><path d="M719.53 285.98c-.89 0-1.78-.1-2.66-.3-3.12-.71-5.78-2.59-7.49-5.3a11.9 11.9 0 0 1-1.55-9.04l4.66-20.57c1.25-5.5 6.05-9.33 11.67-9.33.89 0 1.78.1 2.66.3 6.44 1.46 10.5 7.89 9.03 14.33l-4.66 20.57c-1.25 5.5-6.05 9.33-11.67 9.33Z" class="cls-1"/><path d="M724.17 241.95c.84 0 1.69.09 2.55.29 6.18 1.4 10.06 7.55 8.66 13.73l-4.66 20.57c-1.21 5.33-5.94 8.94-11.19 8.94-.84 0-1.69-.09-2.55-.29-6.18-1.4-10.06-7.55-8.66-13.73l4.66-20.57c1.21-5.33 5.94-8.94 11.19-8.94m0-1c-5.86 0-10.86 4-12.16 9.72l-4.66 20.57c-.74 3.25-.16 6.59 1.61 9.41 1.78 2.82 4.55 4.78 7.8 5.52.91.21 1.84.31 2.77.31 5.86 0 10.86-4 12.16-9.72l4.66-20.57c.74-3.25.16-6.59-1.61-9.41a12.43 12.43 0 0 0-7.8-5.52c-.91-.21-1.84-.31-2.77-.31" class="cls-6"/><path d="M614.13 399.45H387.1c-23.83 0-44.41-16.88-49.34-40.47l-26.42-126.35c-3.32-15.86 8.64-30.79 24.66-30.79 111.13-8.89 220.74-9.15 328.68 0 15.98 0 27.93 14.85 24.68 30.69L663.5 358.78c-4.85 23.69-25.48 40.68-49.39 40.68Z" class="cls-1"/><path d="M527.35 411.22h-54.67c.58-3.68 12.6-6.63 27.34-6.63s26.75 2.95 27.34 6.63Z" style="fill:#616566"/><path d="M507.14 411.22h-14.25c.15-3.68 3.28-6.63 7.12-6.63s6.97 2.95 7.12 6.63Z" style="fill:#e9ecf7;opacity:.88"/><path d="M177.01 784.09c6.84-13.1 33.06-77.62 40.78-99.91 6.38-18.41 24.49-92.51 90-93.19 0 0-49.1-6.61-78.15 52.75s-43.86 91.48-54.11 119.16-17.03 42.84-14.35 42.84c8.56-2.28 15.84-21.65 15.84-21.65Zm646.5 0c-6.84-13.1-33.06-77.62-40.78-99.91-6.38-18.41-24.49-92.51-90-93.19 0 0 49.1-6.61 78.15 52.75s43.86 91.48 54.11 119.16 17.03 42.84 14.35 42.84c-8.56-2.28-15.84-21.65-15.84-21.65Z" style="fill:#e9ecf7"/></svg>