<svg xmlns="http://www.w3.org/2000/svg" id="Layer_1" data-name="Layer 1" viewBox="0 0 1000 1000"><defs><style>.cls-9{fill:#c6c6c5}.cls-12{fill:#8696b2}.cls-13{fill:#282627}.cls-14{opacity:.45}.cls-15{fill:#fcb97e}.cls-17{fill:#76c7a7}.cls-18{fill:#1a1c1d}.cls-19{fill:#f0efef}</style></defs><g class="cls-14"><path d="M201.49 319.55v63.98l-141.06-1.56c6.8-9.73 44.62-62.16 69.33-62.16s64.93-.22 71.73-.26m1-1.01s-44.78.26-72.73.26-71.22 64.14-71.22 64.14l143.95 1.59z" class="cls-12"/></g><g style="opacity:.07"><path d="M796.93 318.51c5.02.03 46.18.26 72.23.26s65.25 55.89 70.28 63.15l-142.51 1.58z" style="fill:#e1e8f4"/><path d="M797.43 319.01c6.8.04 46.41.26 71.73.26s62.53 52.43 69.33 62.16l-141.06 1.56zm-1-1.01v65.99l143.95-1.59s-43.27-64.14-71.22-64.14-72.73-.26-72.73-.26" style="fill:#fff"/></g><path d="M59.44 647.1s26.32 64.51 66.74 65.73c27.94.85 72.73.26 72.73.26V647.1zm105.42 56.08h-34.14c-7.54 0-14.82-2.75-20.47-7.74l-8.86-6.69c-1.98-1.74-.74-5 1.89-5l41.37 1c4.64 0 9.08 1.9 12.29 5.25l9.94 8.43c1.71 1.79.44 4.75-2.03 4.75Z" style="fill:#a5a4a4"/><g class="cls-14"><path d="M797.43 319.01c6.8.04 46.41.26 71.73.26s62.53 52.43 69.33 62.16l-141.06 1.56zm-1-1.01v65.99l143.95-1.59s-43.27-64.14-71.22-64.14-72.73-.26-72.73-.26" class="cls-12"/></g><path d="M973.36 498.19c-1.59-89.33-52.65-145.53-56.53-145.75s-33.25-.55-56.6-.55-35.54-18.46-41.81-27.11c-5.77-6.77-12.38-6.8-12.38-6.8H689.38l-28.9.05-350.76.52H193.06s-7.15.28-12.38 6.8c-6.27 8.66-18.46 27.11-41.81 27.11s-52.73.32-56.6.55-54.93 56.42-56.53 145.75c-1.59 89.33 19.44 124.61 25.82 135.85S71 670.46 73.43 673.8s9.2 3.95 14.97 3.95c0 0 48.67-.46 58.92 1.82s21.04 13.06 30 22.48 12.61 11.01 12.61 11.01l508.81-.57h110.4s3.65-1.59 12.61-11.01 19.75-20.2 30-22.48 58.92-1.82 58.92-1.82c5.77 0 12.54-.61 14.97-3.95s15.49-27.95 21.87-39.19 27.42-46.52 25.82-135.85Z" style="fill:#060707"/><circle cx="874.06" cy="494.41" r="62.26" style="stroke-width:3.44px;stroke:#212123;fill:none;stroke-miterlimit:10"/><path d="M154.82 535.03v24.87c0 .41-.04.8-.11 1.19-7.68 2.78-15.97 4.29-24.61 4.29s-17.44-1.61-25.32-4.55c-.05-.3-.07-.61-.07-.93v-24.87c0-1.86.74-3.55 1.95-4.79l15.78-15.09c4.1-3.92 10.55-3.91 14.64.01l14.86 14.28c.54.39 1.02.85 1.43 1.38a6.8 6.8 0 0 1 1.45 4.21m0-108.81v24.87c0 1.59-.54 3.05-1.45 4.21-.41.53-.89.99-1.43 1.38l-14.86 14.28a10.583 10.583 0 0 1-14.64.01l-15.78-15.09a6.84 6.84 0 0 1-1.95-4.79v-24.87c0-.37.03-.74.1-1.09 7.87-2.94 16.39-4.54 25.29-4.54s16.91 1.51 24.59 4.28c.08.44.13.89.13 1.35m47.67 66.77c0 8.77-1.56 17.18-4.42 24.96-.47.11-.96.16-1.46.16h-24.87a6.87 6.87 0 0 1-4.79-1.94l-15.1-15.78c-3.91-4.1-3.91-10.56.02-14.64l14.28-14.86c.39-.54.85-1.02 1.37-1.43h.01a6.8 6.8 0 0 1 4.21-1.45h24.87c.52 0 1.03.06 1.52.17a72.3 72.3 0 0 1 4.36 24.81m-94.81 7.4-15.1 15.78a6.83 6.83 0 0 1-4.79 1.94H62.93a5 5 0 0 1-.77-.05c-2.89-7.81-4.46-16.26-4.46-25.07s1.55-17.15 4.4-24.92c.27-.04.55-.06.83-.06h24.86c1.59 0 3.05.54 4.22 1.45.53.41.99.89 1.37 1.43l14.28 14.86c3.93 4.08 3.94 10.54.02 14.64" class="cls-13"/><circle cx="875.83" cy="436.94" r="24.72" class="cls-13"/><circle cx="874.92" cy="549.18" r="24.72" class="cls-13"/><circle cx="819.57" cy="492.87" r="24.72" class="cls-13"/><circle cx="932.19" cy="491.37" r="24.72" class="cls-13"/><path d="M932.19 483.18c4.52 0 8.19 3.67 8.19 8.19s-3.67 8.19-8.19 8.19-8.19-3.67-8.19-8.19 3.67-8.19 8.19-8.19m0-1.44c-5.32 0-9.63 4.31-9.63 9.63s4.31 9.63 9.63 9.63 9.63-4.31 9.63-9.63-4.31-9.63-9.63-9.63m-47.96-38.84h-16.8l8.4-14.19zm-14.66-1.22h12.53l-6.26-10.58-6.26 10.58Zm-41.97 59.13h-16.06v-16.06h16.06zm-14.5-1.56h12.93v-12.93H813.1zm69.14 43.59-.98-.98-6.34 6.34-6.34-6.34-.98.98 6.34 6.34-6.34 6.34.98.98 6.34-6.34 6.34 6.34.98-.98-6.34-6.34z" class="cls-19"/><circle cx="133.97" cy="618.45" r="32.35" style="fill:#202023"/><path d="M257.3 677.7c0 13.21-10.71 23.93-23.93 23.93s-23.94-10.72-23.94-23.93h47.88Zm471.95-.29c0 1.64-.16 3.25-.47 4.8-2.24 11.24-12.16 19.71-24.05 19.71-13.54 0-24.52-10.98-24.52-24.52h49.04Zm62.33 0c0 13.54-10.98 24.52-24.52 24.52-11.9 0-21.81-8.47-24.04-19.71-.32-1.55-.48-3.16-.48-4.8h49.04Z" class="cls-13"/><circle cx="50.56" cy="589.52" r="4.41" class="cls-15"/><circle cx="67.42" cy="632.05" r="4.41" class="cls-17"/><circle cx="932.96" cy="632.33" r="4.41" class="cls-15"/><circle cx="949.21" cy="589.04" r="4.41" class="cls-17"/><rect width="27.68" height="16.18" x="172.38" y="398.69" class="cls-18" rx="8.09" ry="8.09"/><rect width="27.68" height="16.18" x="801.55" y="398.69" class="cls-18" rx="8.09" ry="8.09"/><rect width="30.99" height="23.09" x="287.99" y="680.09" class="cls-13" rx="11.54" ry="11.54"/><rect width="30.99" height="23.09" x="351.18" y="680.09" class="cls-13" rx="11.54" ry="11.54"/><rect width="30.99" height="23.09" x="588.14" y="680.09" class="cls-13" rx="11.54" ry="11.54"/><rect width="30.99" height="23.09" x="630.97" y="680.09" class="cls-13" rx="11.54" ry="11.54"/><rect width="551.39" height="314.89" x="225.55" y="346.45" rx="5.47" ry="5.47" style="fill:#323233"/><path d="M202.49 492.99c0 8.77-1.56 17.18-4.42 24.96-7.35 20.02-23.29 35.89-43.36 43.14-7.68 2.78-15.97 4.29-24.61 4.29s-17.44-1.61-25.32-4.55c-19.7-7.35-35.34-23.04-42.62-42.77-2.89-7.81-4.46-16.26-4.46-25.07s1.55-17.15 4.4-24.92c7.27-19.82 22.95-35.58 42.71-42.94 7.87-2.94 16.39-4.54 25.29-4.54s16.91 1.51 24.59 4.28c20.13 7.27 36.11 23.21 43.44 43.31a72.3 72.3 0 0 1 4.36 24.81Z" style="stroke:#212123;fill:none;stroke-miterlimit:10;stroke-width:4px"/><path d="M815.6 386.06c-.36 0-.58-.13-.61-.4v-.75c-.01-.67-.02-.78-.06-1.06-.06-.5-.22-.81-.42-1.08-.34-.44-.9-.64-1.79-.78 1.74-.16 3.06-.74 3.19-2.35 0-.09.01-.18.01-.28s0-.19-.01-.28c-.16-1.84-1.87-2.46-3.83-2.46h-8.05v1.32h1.37c.31 0 .56.2.56.45v7.2c0 .25-.25.46-.56.46h-.58v1.31h4.82v-1.31h-.49c-.38 0-.62-.14-.62-.45v-3.03h2.37c.31 0 .56.07.76.19.35.21.54.57.59.91l-.02 1.88c0 .25-.24.47-.55.47l-.75.03v1.31h5.16v-1.31h-.49Zm-4.39-4.82h-2.68v-3.3h2.35c1.32 0 2.36.34 2.36 1.59s-.84 1.71-2.03 1.71m13.55-5.03c3.84 0 6.36 2.26 6.36 5.68s-2.49 5.76-6.51 5.76c-3.57 0-6.37-2.16-6.37-5.66s2.25-5.77 6.52-5.77Zm-.13 10.07c3.04 0 3.62-2.27 3.62-4.34s-.52-4.37-3.53-4.37-3.69 2.37-3.69 4.39.59 4.33 3.6 4.33Zm20.72-.76v-7.22l-3.99 9.07H840l-3.94-9.06v7.3c0 .31.25.45.62.45h1.2v1.31h-5.29v-1.31h1.35c.31 0 .56-.22.56-.47v-7.02c0-.39-.24-.64-.61-.64h-1.3v-1.32h5.34l3.25 7.41 3.31-7.41h5.34v1.32h-1.25c-.43 0-.65.16-.65.53v7.06c0 .39.25.53.64.53h1.27v1.31h-6.33v-1.31h1.29c.31 0 .56-.22.56-.54Zm19.7 0v-7.22l-3.99 9.07h-1.36l-3.94-9.06v7.3c0 .31.25.45.62.45h1.2v1.31h-5.29v-1.31h1.35c.31 0 .56-.22.56-.47v-7.02c0-.39-.24-.64-.61-.64h-1.3v-1.32h5.34l3.25 7.41 3.31-7.41h5.34v1.32h-1.25c-.43 0-.65.16-.65.53v7.06c0 .39.25.53.64.53h1.27v1.31h-6.33v-1.31h1.29c.31 0 .56-.22.56-.54Zm9.93.54h1.33c.62 0 .58-.45.58-1.04v-1.91l-3.59-4.75c-.28-.37-.43-.42-1.02-.42h-.46v-1.32h5.94v1.32h-1.26c-.27 0-.39.12-.39.33 0 .45 1.25 1.76 2.48 3.41 1.35-1.65 2.48-2.96 2.48-3.41 0-.3-.3-.33-.84-.33h-.7v-1.32h5.01v1.32h-.46c-.65 0-.8.06-1.38.81l-3.25 4.22v2.55c0 .47.3.54.71.54h1.22v1.31h-6.4z" style="fill:#bcbcbc"/><path d="M445.8 676.41h34.4v10.72h-34.4v15.05m81.89-25.77h30v10.72h-30v15.05m-81.89-15.05 34.4 15.05m44.71-25.69h-20.72v25.61h-21.22" style="fill:none;stroke-miterlimit:10;stroke:#a5a4a4;stroke-width:1.76px"/><path d="M138.16 444.65h-16.8l8.4-9.67zm-14.66-.83h12.53l-6.26-7.21-6.26 7.21Zm-2.13 98.14h16.8l-8.4 9.67zm14.66.83H123.5l6.26 7.21 6.26-7.21Zm-54.92-57.88v16.8l-9.67-8.4zm-.83 14.66v-12.53l-7.21 6.26 7.21 6.26Zm98.14 2.13v-16.8l9.67 8.4zm.83-14.66v12.53l7.21-6.26-7.21-6.26Z" class="cls-19"/><path d="m97.07 392.22 7.39 1.88 2.72.66-4.22 3.28-2.69-.77-18.86-5.2-2.19-.58 5.63-3.52c4.7-2.94 8.74-3 12.36-2.2h.06c2.33.53 3.85 1.35 3.56 2.67l13.53.72-3.99 3.1-12.09-.91-1.22.86Zm-4.03-1.02.81-.55c1.89-1.29.96-1.86-.62-2.23h-.06c-1.55-.38-3.21-.42-5.03.76l-.87.56 5.77 1.47Z" class="cls-9"/><path d="m98.6 397.18-1.71-10.26-.5-.13-.17 6.81-.04 2.9-4.49-1.25.06-2.68.28-20.14v-3.2l5.77 1.15c4.34.86 6.32 4.12 6.04 9.96-.15 3.11-.96 5.15-2.43 6.13l2.12 12.1-4.92-1.37Zm-1.59-15.35c.2.05.38.07.55.07.63 0 1.29-.3 1.37-2.55.08-2.23-.49-3.31-1.83-3.6l-.43-.09-.15 6.06.49.12Z" class="cls-9"/><path d="m92.39 369.65 5.33 1.06c4.91.98 5.97 5.07 5.75 9.59v.07c-.13 2.75-.82 4.95-2.47 5.9l2.06 11.78-4.16-1.16-1.71-10.27-1.16-.29-.18 7.25-.04 2.44-3.78-1.05.06-2.41.28-20.15v-2.77m5.19 12.62c1.33 0 1.67-1.28 1.72-2.89v-.07c.07-1.87-.3-3.5-2.11-3.89l-.85-.18-.17 6.77.77.18c.23.05.44.08.63.08m-5.87-13.48v.86l-.01 2.77-.28 20.14-.06 2.4v.55l.52.15 3.78 1.05.89.25v-.92l.05-2.44.14-5.6 1.5 9.01.07.45.44.12 4.16 1.16 1.09.3-.19-1.11-1.98-11.32c1.45-1.09 2.25-3.17 2.4-6.2v-.07c.29-6.04-1.78-9.42-6.32-10.32l-5.33-1.06-.85-.17Zm5.2 12.65.14-5.34c.81.18 1.64.69 1.55 3.17v.07c-.08 2.21-.69 2.21-1.02 2.21-.14 0-.29-.02-.47-.06l-.21-.05Z"/></svg>