<?xml version="1.0" encoding="UTF-8"?>
<svg id="Layer_1" data-name="Layer 1" xmlns="http://www.w3.org/2000/svg" viewBox="0 0 1000 1000">
  <defs>
    <style>
      .cls-1 {
        fill: #181818;
      }

      .cls-2 {
        fill: #0b0b0b;
      }

      .cls-3 {
        fill: #2b2b2b;
      }

      .cls-4 {
        fill: #919190;
      }

      .cls-5 {
        fill: #b7b7af;
      }

      .cls-6 {
        fill: #fff;
      }

      .cls-7 {
        fill: #101010;
      }

      .cls-8 {
        fill: #606161;
      }

      .cls-9 {
        fill: #1e1e1e;
      }
    </style>
  </defs>
  <path d="M813.14,429.33l-137.13-70.02c-5.29-2.7-7.43-9.09-4.79-14.27l29.73-58.24c2.41-4.73,7.99-6.74,13.13-5.03,51.54,17.06,98.22,40.64,139.67,71.21,4.33,3.19,5.93,8.84,3.53,13.53l-29.78,58.33c-2.64,5.18-9.08,7.19-14.37,4.49Z"/>
  <path class="cls-9" d="M965.8,648.17c-33.27,70.63-88.11,92.81-136.11,96.45-48,3.65-98.73-46.02-142.63-66.22-43.9-20.21-134.12-54.99-245.31-38.28-111.19,16.71-181.98,70.48-195.04,79.74-13.07,9.27-41.93,27.65-85.67,25.52-43.75-2.12-106.16-46.6-125.32-92.05-19.16-45.45-23.62-102.03,18.53-181.15,14.3-26.85,35.86-52.15,58.1-73.87,54.55-53.25,121.19-92.51,193.9-115.41,4.8-1.51,9.73-3,14.8-4.45,47.48-13.62,106.82-24.28,176.86-24,62.09.25,123.47,8.62,179.85,23.9,85.65,23.18,159.77,62.25,207.33,112.81,78.88,83.84,113.97,186.38,80.71,257.01Z"/>
  <ellipse cx="731.44" cy="492.7" rx="150.7" ry="188.97" transform="translate(-39.99 920.08) rotate(-62.95)"/>
  <ellipse class="cls-7" cx="725.4" cy="489.12" rx="117.01" ry="143.18" transform="translate(-40.1 912.75) rotate(-62.95)"/>
  <ellipse cx="262.84" cy="489.12" rx="174.68" ry="140.16" transform="translate(-263.02 310.8) rotate(-43.02)"/>
  <ellipse class="cls-7" cx="263.84" cy="482.77" rx="135.83" ry="111.5" transform="translate(-258.42 309.78) rotate(-43.02)"/>
  <circle class="cls-1" cx="659.26" cy="556.53" r="43.76"/>
  <circle class="cls-1" cx="746.79" cy="508.83" r="43.76"/>
  <circle class="cls-1" cx="841.33" cy="483.2" r="43.76"/>
  <circle class="cls-4" cx="629.49" cy="454.73" r="30.45"/>
  <circle class="cls-4" cx="708.4" cy="418.99" r="30.45"/>
  <circle class="cls-4" cx="788.31" cy="398.99" r="30.45"/>
  <path d="M839.15,493.12c-.56.24-1.13.32-1.71.25-.58-.08-1.12-.29-1.59-.63-.48-.34-.84-.79-1.08-1.35l-4.22-9.74c-.24-.56-.32-1.13-.25-1.71.08-.58.29-1.11.63-1.59.34-.48.79-.84,1.35-1.08l12.76-5.52,1.27,2.93-12.14,5.25c-.23.1-.39.25-.48.44s-.07.42.04.66l3.66,8.46c.1.24.25.39.45.47.2.08.42.07.65-.03l12.14-5.25,1.27,2.93-12.76,5.52Z"/>
  <path class="cls-8" d="M784.9,409.95l-1.37-3.17,7.39-14.79-11.61,5.03-1.27-2.93,15.86-6.87,1.37,3.17-7.39,14.79,11.61-5.03,1.27,2.93-15.86,6.87Z"/>
  <path d="M737.51,505.59l12.16-5.26c.56-.24,1.13-.32,1.71-.24.58.08,1.12.29,1.59.63.48.34.84.79,1.08,1.35l1.35,3.11c.08.19.15.38.19.57.05.19.07.38.06.57.4.23.75.49,1.06.79.31.3.55.63.71,1l1.48,3.42c.24.56.32,1.13.24,1.71-.08.58-.29,1.12-.64,1.6-.35.48-.8.84-1.36,1.09l-12.78,5.53-6.87-15.86ZM743.42,510.54l8.86-3.83c.07-.03.12-.08.14-.15.02-.07.02-.14-.01-.22l-1.24-2.86c-.03-.07-.08-.13-.15-.16s-.13-.03-.21,0l-8.86,3.83c-.07.03-.12.08-.15.16-.03.07-.03.15,0,.22l1.24,2.86c.03.07.08.12.16.15.07.03.15.03.22,0ZM746.29,517.16l9.47-4.1c.07-.03.13-.09.17-.16.04-.08.04-.15,0-.23l-1.36-3.15c-.03-.07-.09-.12-.17-.15-.08-.03-.16-.02-.23,0l-9.47,4.1c-.07.03-.12.08-.15.16-.03.07-.03.15,0,.22l1.36,3.15c.03.07.08.12.16.15.07.03.15.03.22,0Z"/>
  <path class="cls-8" d="M711.28,427.85l-2.58-5.95-11.61-6.75,3.44-1.49,8.26,4.4,2.38-9.01,3.5-1.52-3.04,13.11,2.56,5.93-2.93,1.27Z"/>
  <path d="M649.91,558.03c-.24-.56-.32-1.13-.24-1.71.08-.58.29-1.12.63-1.59.34-.48.79-.84,1.35-1.08l9.72-4.21c.56-.24,1.13-.32,1.72-.25.59.08,1.13.28,1.61.63.48.34.84.79,1.08,1.35l5.54,12.8-2.93,1.27-2.31-5.33-10.03,4.34,2.31,5.33-2.91,1.26-5.54-12.8ZM664.82,556.99l-1.92-4.43c-.03-.07-.09-.12-.17-.15-.08-.03-.16-.02-.23,0l-9.47,4.1c-.07.03-.12.08-.15.16-.03.07-.03.15,0,.22l1.92,4.43,10.03-4.34Z"/>
  <path class="cls-8" d="M621.56,466.76l-.35-.82,5.31-10.75-11.47-3.49-.35-.81,4.43-1.92,9.13,2.75,4.18-8.51,4.46-1.93.35.81-5.34,10.76,11.49,3.45.36.84-4.46,1.93-9.09-2.74-4.22,8.5-4.43,1.92Z"/>
  <rect class="cls-2" x="447.72" y="424.1" width="87.28" height="34.06" rx="15.64" ry="15.64"/>
  <path class="cls-3" d="M347.7,476.78c0,7.33-.89,14.45-2.59,21.26-8.18,33.08-35.02,58.79-68.7,65.34-5.49,1.07-11.15,1.63-16.95,1.63-6.86,0-13.55-.78-19.96-2.27-33.04-7.64-58.98-33.84-66.23-67.03-1.34-6.1-2.04-12.43-2.04-18.93,0-6.16.63-12.18,1.84-17.99,7.14-34.47,34.37-61.58,68.91-68.52,5.65-1.13,11.49-1.73,17.48-1.73,6.68,0,13.18.74,19.43,2.15,34.38,7.72,61.18,35.52,67.42,70.44.92,5.08,1.39,10.31,1.39,15.65Z"/>
  <path class="cls-1" d="M347.7,476.78c0,7.33-.89,14.45-2.59,21.26l-49.53-.53c-10.11-.18-18.45,7.86-18.63,17.97l-.54,47.9c-5.49,1.07-11.15,1.63-16.95,1.63-6.86,0-13.55-.78-19.96-2.27l.55-47.92c.18-10.1-7.87-18.44-17.97-18.62l-48.81-.49c-1.34-6.1-2.04-12.43-2.04-18.93,0-6.16.63-12.18,1.84-17.99l49.66.5c10.11.18,18.45-7.86,18.63-17.97l.62-51.05c5.65-1.13,11.49-1.73,17.48-1.73,6.68,0,13.18.74,19.43,2.15l-.63,51.29c-.18,10.1,7.87,18.44,17.97,18.62l50.08.53c.92,5.08,1.39,10.31,1.39,15.65Z"/>
  <circle cx="259.47" cy="476.77" r="15.8"/>
  <path d="M499.49,254.45c-.27,0-.52,0-.79,0-.27,0-.52,0-.79,0-70.04-.28-129.38,10.38-176.86,24l17.12,14.95c1.12.98,2.22,1.99,3.22,3.09,1.8,1.97,7.21,6.28,18.43,3.66,14.03-3.28,54.87-16.46,138.88-16.46s124.86,13.18,138.88,16.46c11.22,2.62,16.62-1.69,18.43-3.66.72-.79,1.47-1.56,2.27-2.26l18.49-16.15c-47.48-13.62-107.24-23.91-177.28-23.63Z"/>
  <rect class="cls-5" x="452.58" y="430.76" width="77.56" height="20.74" rx="10.37" ry="10.37"/>
  <g>
    <path class="cls-6" d="M439.77,355.85l15.5-.02c6.34,0,11.48-5.12,11.48-11.44s-5.14-11.45-11.48-11.45l-4.03.02c-.32,0-.57-.26-.57-.58s.26-.58.57-.58h15.47s0-4.85,0-4.85h-15.48c-2.99,0-5.43,2.43-5.43,5.42s2.44,5.41,5.43,5.41l4.04.05c3.63,0,6.57,2.93,6.57,6.55s-2.94,6.56-6.57,6.56h-15.51v4.91Z"/>
    <path class="cls-6" d="M439.78,349.81h15.51c3,0,5.43-2.42,5.43-5.42s-2.43-5.41-5.43-5.41l-4.04-.04c-3.63,0-6.57-2.93-6.57-6.56s2.94-6.55,6.57-6.55h15.48s0-4.88,0-4.88h-15.47c-6.34,0-11.48,5.12-11.48,11.44s5.15,11.44,11.48,11.44h4c.3,0,.56.25.56.57s-.26.56-.56.56h-15.48s0,4.85,0,4.85ZM478.78,350.98c-2.69,0-4.89-2.14-4.89-4.88v-15.49c0-2.63,2.2-4.8,4.89-4.8h16.55s0-4.86,0-4.86h-16.55c-5.38,0-9.75,4.35-9.75,9.71v15.43c0,5.37,4.36,9.72,9.75,9.72h16.48s0-4.84,0-4.84h-16.47Z"/>
    <path class="cls-6" d="M475.07,330.67c0-2.05,1.65-3.72,3.71-3.72h16.55v4.87h-14.26c-1.14,0-1.16,1.13-1.16,1.13h11.89v4.85h-16.74v-7.14ZM478.78,349.8c-2.05,0-3.71-1.65-3.71-3.7v-7.14h16.74v4.86h-11.89c.02,1.14,1.16,1.15,1.16,1.15h14.19v4.83s-16.48,0-16.48,0ZM506.92,350.97c-2.68,0-4.87-2.18-4.87-4.87v-15.43c0-2.69,2.17-4.85,4.86-4.85h16.03v-4.86h-16.06c-5.38,0-9.74,4.35-9.74,9.71v15.43c0,5.37,4.4,9.72,9.78,9.72h16.03s0-22.86,0-22.86h-13.77v4.85h8.91v13.16h-11.15Z"/>
    <path class="cls-6" d="M503.19,346.1c0,2.06,1.66,3.73,3.72,3.73h10.01v-10.88h-7.75v4.86h2.87v1.14s-2.85,0-2.85,0c-.62,0-1.14-.52-1.14-1.14l-.03-10.86s0-1.13,1.15-1.16h13.76v-4.85s-16.03,0-16.03,0c-2.05,0-3.72,1.66-3.72,3.72v15.43M537.99,326.88c.29-.83,1.19-1.26,2.02-.97.46.16.81.52.97.97l7.78,22.98h-11.39v-5.41h3.82l-1.71-5.09-5.58,16.46h-5.74l9.84-28.94Z"/>
    <path class="cls-6" d="M550.33,350.97h-12.94v4.85h19.69l-10.24-30.3c-.9-2.96-3.86-5.13-7.36-5.13s-6.46,2.16-7.36,5.12l-10.34,30.32h5.16l10.04-29.47c.42-1.01,1.41-1.66,2.5-1.66,1.09,0,2.07.65,2.5,1.66l8.36,24.62Z"/>
  </g>
</svg>