<?xml version="1.0" encoding="UTF-8"?>
<svg id="Layer_1" data-name="Layer 1" xmlns="http://www.w3.org/2000/svg" viewBox="0 0 1000 1000">
  <defs>
    <style>
      .cls-1 {
        fill: #181818;
      }

      .cls-2 {
        fill: #7ec246;
      }

      .cls-3 {
        fill: #282827;
      }

      .cls-4 {
        opacity: .24;
      }

      .cls-4, .cls-5, .cls-6 {
        fill: #353535;
      }

      .cls-7 {
        fill: #121212;
      }

      .cls-8 {
        fill: #eaca1b;
      }

      .cls-9 {
        fill: #303030;
      }

      .cls-10 {
        fill: #eeeff2;
      }

      .cls-11 {
        opacity: .65;
      }

      .cls-12 {
        fill: #2d2d2c;
      }

      .cls-13 {
        fill: #be2926;
      }

      .cls-14 {
        fill: #212121;
      }

      .cls-6 {
        opacity: .22;
      }

      .cls-15 {
        fill: #379cd0;
      }

      .cls-16 {
        fill: #171717;
      }
    </style>
  </defs>
  <g>
    <path d="M835.36,237.26l-1.69,9.91-75.12,15.81-35.93-6.15-224.44-38.45-28.14,4.82-10.83,1.86-221.4,37.92-33.98-7.15-41.09-8.65h-.04s0-.05,0-.05l-1.69-9.87s5.82-15.66,8.1-19.54c2.27-3.87,5.08-8.43,9.83-11.85,4.75-3.41,26.47-18.53,55.29-28.1s49.35-14.01,58.86-15.89c1.84-.36,3.78-.72,5.76-1.06,8.28-1.41,17.26-2.39,22.27-1.33,6.21,1.31,21.47,8.94,29.96,14.01,8.49,5.07,11.95,5.24,27.34,5.36,1.77.01,4.91.02,9.07.03v-.03h92.51s7.15,0,18.19.01c7.6-.01,13.35-.01,16.2-.01h94.5v.03c4.17-.01,7.31-.02,9.07-.03,15.4-.12,18.86-.29,27.34-5.36,8.49-5.07,23.76-12.7,29.97-14.01,6.21-1.31,18.51.51,28.02,2.39s30.04,6.32,58.86,15.89c10.36,3.44,19.8,7.6,27.87,11.67,14.38,7.26,24.38,14.25,27.42,16.43,4.75,3.42,7.56,7.98,9.84,11.85,2.28,3.88,8.09,19.54,8.09,19.54Z"/>
    <path class="cls-4" d="M298.84,160.82l-95.01,95.01-41.13-8.66-1.7-9.91s5.82-15.66,8.1-19.54c2.27-3.87,5.08-8.43,9.83-11.85,4.75-3.41,26.47-18.53,55.29-28.1s49.35-14.01,58.86-15.89c1.84-.36,3.78-.72,5.76-1.06Z"/>
    <path class="cls-4" d="M790.01,189.44l-67.39,67.39-61.88-10.6,16.33-87.02c6.58-.7,17.55.96,26.21,2.67,9.51,1.88,30.04,6.32,58.86,15.89,10.36,3.44,19.8,7.6,27.87,11.67Z"/>
    <path class="cls-4" d="M514.38,178.86l-143.77,143.77-10.38-145.01c4.24,1.08,9.16,1.17,18.18,1.24,1.77.01,4.91.02,9.07.03v-.03h92.51s7.15,0,18.19.01c7.6-.01,13.35-.01,16.2-.01Z"/>
  </g>
  <path class="cls-14" d="M961.61,770.96c-6.61,12.31-21.19,36.69-53.09,51.5-31.9,14.81-27.57,12.79-48.68-.88-21.12-13.67-55.9-58.17-62.28-67.29-6.38-9.11-49.83-68.35-69.57-84.3-19.75-15.95-31.63-27.02-80.73-26.91-31.02.07-101.61.06-149.39.03-47.77.03-118.36.04-149.38-.03-49.1-.11-60.98,10.96-80.73,26.91-19.74,15.95-63.19,75.19-69.57,84.3-6.38,9.12-41.16,53.62-62.28,67.29-21.11,13.67-16.78,15.69-48.68.88s-46.48-39.19-53.09-51.5c-6.61-12.3-17.79-47.2-16.88-84.87.91-37.67,2.7-63.36,24.34-155.87,21.65-92.5,85.22-251.66,88.29-258.61,3.08-6.95,20.63-27.77,20.63-27.77,42.94-38.5,110.5-57.15,137.62-62.05,27.11-4.9,47.73-4.9,47.73-4.9h324.01s20.62,0,47.73,4.9c27.12,4.9,94.67,23.55,137.62,62.05,0,0,17.55,20.82,20.62,27.77,3.08,6.95,66.65,166.11,88.3,258.61,21.64,92.51,23.43,118.2,24.34,155.87.91,37.67-10.27,72.57-16.88,84.87Z"/>
  <path class="cls-10" d="M536.01,245.89c0,8.63-2.88,16.59-7.76,22.95-.23.31-.46.61-.71.91-.41.5-.84.99-1.27,1.47l-.13.14h0c-.28.32-.57.62-.86.92-6.87,7.04-16.45,11.41-27.06,11.41s-20.18-4.36-27.06-11.4c-.29-.3-.57-.6-.85-.91-.49-.53-.95-1.07-1.41-1.63-.25-.3-.49-.6-.71-.91-4.89-6.35-7.77-14.32-7.77-22.95,0-10.73,4.47-20.43,11.66-27.31.13-.13.28-.26.42-.39,1.15-1.06,2.37-2.06,3.64-2.99.55-.39,1.1-.76,1.66-1.13,5.88-3.79,12.9-5.98,20.42-5.98s14.54,2.19,20.42,5.98c.57.36,1.12.73,1.66,1.13,1.27.93,2.49,1.92,3.64,2.99.14.13.29.27.43.4,7.17,6.88,11.64,16.57,11.64,27.3Z"/>
  <g>
    <path class="cls-16" d="M498.21,236.64c-.06.06-.13.11-.21.17-24.06,18.43-27.28,31.6-27.7,34.57-.49-.53-.95-1.07-1.41-1.63-.25-.3-.49-.6-.71-.91-2.56-15.63,20-40.73,20-40.73-9.05-8.53-13.99-9.77-15.7-9.92,1.15-1.06,2.37-2.06,3.64-2.99.55-.39,1.1-.76,1.66-1.13.13.01.29.01.43.02,11.28.48,18.58,4.7,19.99,5.59.18.11.26.18.26.18,0,0,26.85-4.06-.27,16.78Z"/>
    <path class="cls-16" d="M528.25,268.84c2.55-15.63-20.01-40.73-20.01-40.73,9.05-8.52,13.98-9.77,15.7-9.92-1.15-1.06-2.37-2.06-3.64-2.99-.55-.39-1.1-.76-1.66-1.13-.14.01-.29.01-.43.02-11.26.46-18.54,4.69-19.97,5.59-.18.11-.27.18-.27.18,0,0-26.86-4.06.26,16.78.06.06.13.11.21.17,24,18.39,27.27,31.53,27.71,34.55h0s2.12-2.52,2.12-2.52Z"/>
  </g>
  <circle class="cls-12" cx="427.4" cy="344.62" r="21.65"/>
  <circle class="cls-12" cx="569.12" cy="344.62" r="21.65"/>
  <path class="cls-7" d="M784.51,280.37c0,18.79-15.23,34.02-34.02,34.02-16.06,0-29.52-11.12-33.1-26.09-.61-2.54-.93-5.2-.93-7.93,0-18.79,15.24-34.03,34.03-34.03,10.19,0,19.33,4.48,25.57,11.58,5.26,5.99,8.45,13.85,8.45,22.45Z"/>
  <circle class="cls-7" cx="750.49" cy="410.94" r="34.03"/>
  <circle class="cls-7" cx="685.21" cy="345.65" r="34.03"/>
  <circle class="cls-7" cx="815.78" cy="345.65" r="34.03"/>
  <path class="cls-2" d="M743.25,418.78l-4.54,13.74h-5.83l14.84-43.67h6.8l14.9,43.67h-6.02l-4.67-13.74h-15.48ZM757.57,414.37l-4.28-12.57c-.97-2.85-1.62-5.44-2.27-7.97h-.13c-.65,2.59-1.36,5.25-2.2,7.9l-4.28,12.63h13.15Z"/>
  <path class="cls-13" d="M804.63,329.18c2.46-.52,6.35-.91,10.3-.91,5.64,0,9.26.97,11.99,3.17,2.27,1.68,3.63,4.28,3.63,7.71,0,4.21-2.79,7.9-7.39,9.59v.13c4.15,1.04,9.01,4.47,9.01,10.95,0,3.76-1.49,6.61-3.69,8.75-3.05,2.79-7.97,4.08-15.1,4.08-3.89,0-6.87-.26-8.75-.52v-42.96ZM810.27,347.06h5.12c5.96,0,9.46-3.11,9.46-7.32,0-5.12-3.89-7.13-9.59-7.13-2.59,0-4.08.19-4.99.39v14.06ZM810.27,367.99c1.1.19,2.72.26,4.73.26,5.83,0,11.21-2.14,11.21-8.49,0-5.96-5.12-8.42-11.27-8.42h-4.67v16.65Z"/>
  <path class="cls-8" d="M748.16,306.65v-18.53l-13.8-25.14h6.42l6.15,12.05c1.68,3.3,2.98,5.96,4.34,9.01h.13c1.23-2.85,2.72-5.7,4.41-9.01l6.29-12.05h6.41l-14.64,25.07v18.59h-5.7Z"/>
  <path class="cls-15" d="M696.19,371.27l-5.57-9.65c-2.27-3.69-3.69-6.09-5.05-8.62h-.13c-1.23,2.53-2.46,4.86-4.73,8.68l-5.25,9.59h-6.48l13.35-22.09-12.83-21.57h6.54l5.77,10.24c1.62,2.85,2.85,5.05,4.02,7.39h.19c1.23-2.59,2.33-4.6,3.95-7.39l5.96-10.24h6.48l-13.28,21.25,13.61,22.42h-6.54Z"/>
  <path class="cls-11" d="M451.3,503.43c0,7.46-1,14.68-2.9,21.53-7.37,26.8-28.15,48.05-54.67,56.07-7.43,2.25-15.32,3.45-23.48,3.45s-16.06-1.2-23.49-3.46c-26.52-8.01-47.31-29.26-54.66-56.06-1.89-6.85-2.9-14.07-2.9-21.53,0-8.88,1.42-17.43,4.07-25.42,8.23-24.95,28.26-44.55,53.49-52.16,7.43-2.26,15.32-3.46,23.49-3.46s16.05,1.2,23.48,3.45c25.22,7.63,45.27,27.22,53.5,52.17,2.65,7.99,4.07,16.54,4.07,25.42Z"/>
  <path class="cls-3" d="M447.72,503.43c0,7.13-.96,14.03-2.77,20.58-7.04,25.62-26.91,45.93-52.26,53.59-7.1,2.15-14.64,3.3-22.44,3.3s-15.35-1.15-22.45-3.31c-25.35-7.66-45.22-27.97-52.25-53.58-1.81-6.55-2.77-13.45-2.77-20.58,0-8.49,1.36-16.66,3.89-24.3,7.87-23.85,27.01-42.58,51.13-49.86,7.1-2.16,14.64-3.31,22.45-3.31s15.34,1.15,22.44,3.3c24.11,7.29,43.27,26.02,51.14,49.87,2.53,7.64,3.89,15.81,3.89,24.3Z"/>
  <path class="cls-3" d="M317.2,343.33c0,6.39-.86,12.56-2.48,18.43-6.3,22.94-24.1,41.13-46.8,47.99-6.36,1.93-13.11,2.96-20.1,2.96s-13.75-1.03-20.1-2.96c-22.7-6.86-40.5-25.05-46.79-47.98-1.62-5.87-2.48-12.04-2.48-18.43,0-7.6,1.22-14.92,3.48-21.76,7.05-21.36,24.19-38.13,45.79-44.65,6.36-1.93,13.11-2.96,20.1-2.96s13.74,1.03,20.1,2.96c21.59,6.53,38.75,23.3,45.8,44.66,2.27,6.84,3.48,14.16,3.48,21.76Z"/>
  <path class="cls-11" d="M308.69,343.33c0,5.6-.75,11.02-2.18,16.17-5.53,20.13-21.14,36.09-41.06,42.11-5.58,1.69-11.5,2.59-17.63,2.59s-12.06-.9-17.64-2.6c-19.92-6.02-35.53-21.98-41.05-42.1-1.42-5.15-2.18-10.57-2.18-16.17,0-6.67,1.07-13.09,3.06-19.09,6.18-18.74,21.22-33.46,40.17-39.18,5.58-1.7,11.5-2.6,17.64-2.6s12.05.9,17.63,2.59c18.94,5.73,34,20.44,40.18,39.18,1.99,6,3.06,12.42,3.06,19.09Z"/>
  <path class="cls-1" d="M302.16,343.33c0,5-.67,9.84-1.94,14.44-4.94,17.97-18.88,32.22-36.66,37.59-4.98,1.51-10.27,2.31-15.74,2.31s-10.77-.81-15.75-2.32c-17.78-5.37-31.72-19.62-36.65-37.58-1.27-4.59-1.94-9.43-1.94-14.44,0-5.96.95-11.69,2.73-17.04,5.52-16.73,18.95-29.87,35.86-34.97,4.98-1.52,10.27-2.32,15.75-2.32s10.76.81,15.74,2.31c16.91,5.11,30.35,18.25,35.87,34.98,1.77,5.36,2.73,11.09,2.73,17.04Z"/>
  <path class="cls-9" d="M283.33,343.33c0,3.27-.44,6.43-1.27,9.43-3.23,11.74-12.33,21.05-23.95,24.56-3.25.99-6.71,1.51-10.28,1.51s-7.03-.53-10.29-1.52c-11.62-3.51-20.72-12.82-23.95-24.55-.83-3-1.27-6.16-1.27-9.43,0-3.89.62-7.64,1.78-11.14,3.61-10.93,12.38-19.51,23.43-22.85,3.25-.99,6.71-1.52,10.29-1.52s7.03.53,10.28,1.51c11.05,3.34,19.83,11.92,23.44,22.85,1.16,3.5,1.78,7.25,1.78,11.14Z"/>
  <path class="cls-3" d="M695.2,489.87c0,6.39-.86,12.56-2.48,18.43-6.3,22.94-24.1,41.13-46.8,47.99-6.36,1.93-13.11,2.96-20.1,2.96s-13.75-1.03-20.1-2.96c-22.7-6.86-40.5-25.05-46.79-47.98-1.62-5.87-2.48-12.04-2.48-18.43,0-7.6,1.22-14.92,3.48-21.76,7.05-21.36,24.19-38.13,45.79-44.65,6.36-1.93,13.11-2.96,20.1-2.96s13.74,1.03,20.1,2.96c21.59,6.53,38.75,23.3,45.8,44.66,2.27,6.84,3.48,14.16,3.48,21.76Z"/>
  <path class="cls-11" d="M686.69,489.87c0,5.6-.75,11.02-2.18,16.17-5.53,20.13-21.14,36.09-41.06,42.11-5.58,1.69-11.5,2.59-17.63,2.59s-12.06-.9-17.64-2.6c-19.92-6.02-35.53-21.98-41.05-42.1-1.42-5.15-2.18-10.57-2.18-16.17,0-6.67,1.07-13.09,3.06-19.09,6.18-18.74,21.22-33.46,40.17-39.18,5.58-1.7,11.5-2.6,17.64-2.6s12.05.9,17.63,2.59c18.94,5.73,34,20.44,40.18,39.18,1.99,6,3.06,12.42,3.06,19.09Z"/>
  <path class="cls-1" d="M680.16,489.87c0,5-.67,9.84-1.94,14.44-4.94,17.97-18.88,32.22-36.66,37.59-4.98,1.51-10.27,2.31-15.74,2.31s-10.77-.81-15.75-2.32c-17.78-5.37-31.72-19.62-36.65-37.58-1.27-4.59-1.94-9.43-1.94-14.44,0-5.96.95-11.69,2.73-17.04,5.52-16.73,18.95-29.87,35.86-34.97,4.98-1.52,10.27-2.32,15.75-2.32s10.76.81,15.74,2.31c16.91,5.11,30.35,18.25,35.87,34.98,1.77,5.36,2.73,11.09,2.73,17.04Z"/>
  <path class="cls-9" d="M661.33,489.87c0,3.27-.44,6.43-1.27,9.43-3.23,11.74-12.33,21.05-23.95,24.56-3.25.99-6.71,1.51-10.28,1.51s-7.03-.53-10.29-1.52c-11.62-3.51-20.72-12.82-23.95-24.55-.83-3-1.27-6.16-1.27-9.43,0-3.89.62-7.64,1.78-11.14,3.61-10.93,12.38-19.51,23.43-22.85,3.25-.99,6.71-1.52,10.29-1.52s7.03.53,10.28,1.51c11.05,3.34,19.83,11.92,23.44,22.85,1.16,3.5,1.78,7.25,1.78,11.14Z"/>
  <path d="M447.72,503.43c0,5.9-.66,11.64-1.91,17.16-.45,2-2.25,3.42-4.3,3.42h-44.41c-.65,0-1.27.14-1.82.4-1.06.47-1.89,1.35-2.3,2.45-.19.48-.29,1.01-.29,1.56v45.83c0,2.01-1.36,3.78-3.31,4.27-6.12,1.56-12.53,2.38-19.13,2.38s-13.02-.82-19.14-2.39c-1.95-.49-3.31-2.26-3.31-4.27v-45.82c0-.55-.1-1.08-.29-1.56-.31-.85-.89-1.57-1.62-2.08-.21-.14-.43-.27-.66-.37-.56-.26-1.18-.4-1.84-.4h-44.4c-2.05,0-3.85-1.42-4.3-3.42-1.25-5.52-1.91-11.26-1.91-17.16,0-7.32,1.01-14.4,2.91-21.11.54-1.89,2.28-3.19,4.24-3.19h43.46c.66,0,1.28-.14,1.84-.41.87-.39,1.59-1.07,2.05-1.91.33-.62.52-1.33.52-2.09v-42.1c0-2.01,1.36-3.78,3.31-4.27,6.12-1.57,12.53-2.39,19.14-2.39s13.01.82,19.13,2.38c1.95.49,3.31,2.26,3.31,4.27v42.11c0,.75.19,1.47.53,2.09.07.14.15.27.24.4.45.66,1.08,1.2,1.82,1.52.55.26,1.17.4,1.82.4h43.47c1.96,0,3.7,1.3,4.24,3.19,1.9,6.71,2.91,13.79,2.91,21.11Z"/>
  <path class="cls-6" d="M393.46,477.21l-47.57,47.57c-.71-.49-1.57-.77-2.5-.77h-44.4c-2.05,0-3.85-1.42-4.3-3.42-1.25-5.52-1.91-11.26-1.91-17.16,0-7.32,1.01-14.4,2.91-21.11.54-1.89,2.28-3.19,4.24-3.19h43.46c2.44,0,4.41-1.97,4.41-4.41v-42.1c0-2.01,1.36-3.78,3.31-4.27,6.12-1.57,12.53-2.39,19.14-2.39s13.01.82,19.13,2.38c1.95.49,3.31,2.26,3.31,4.27v42.11c0,.92.28,1.78.77,2.49Z"/>
  <path class="cls-6" d="M776.06,257.92c-9.06,18.41-28,31.07-49.91,31.07-2.98,0-5.9-.23-8.76-.69-.61-2.54-.93-5.2-.93-7.93,0-18.79,15.24-34.03,34.03-34.03,10.19,0,19.33,4.48,25.57,11.58Z"/>
  <path class="cls-6" d="M710.78,323.21c-9.06,18.41-28,31.07-49.91,31.07-2.98,0-5.9-.23-8.76-.69-.61-2.54-.93-5.2-.93-7.93,0-18.79,15.24-34.03,34.03-34.03,10.19,0,19.33,4.48,25.57,11.58Z"/>
  <path class="cls-6" d="M776.06,388.49c-9.06,18.41-28,31.07-49.91,31.07-2.98,0-5.9-.23-8.76-.69-.61-2.54-.93-5.2-.93-7.93,0-18.79,15.24-34.03,34.03-34.03,10.19,0,19.33,4.48,25.57,11.58Z"/>
  <path class="cls-6" d="M841.35,323.21c-9.06,18.41-28,31.07-49.91,31.07-2.98,0-5.9-.23-8.76-.69-.61-2.54-.93-5.2-.93-7.93,0-18.79,15.24-34.03,34.03-34.03,10.19,0,19.33,4.48,25.57,11.58Z"/>
  <rect class="cls-12" x="471.43" y="381.43" width="53.92" height="33.57" rx="16.78" ry="16.78"/>
  <path class="cls-5" d="M395.28,478.73v45.68c-1.06.47-1.89,1.35-2.3,2.45h-45.47c-.31-.85-.89-1.57-1.62-2.08-.21-.14-.43-.27-.66-.37v-45.69c.87-.39,1.59-1.07,2.05-1.91h45.94c.07.14.15.27.24.4.45.66,1.08,1.2,1.82,1.52Z"/>
</svg>