<svg xmlns="http://www.w3.org/2000/svg" id="Layer_1" data-name="Layer 1" viewBox="0 0 1000 1000"><defs><style>.cls-3{fill:#56595f}.cls-11{fill:#cccacb}.cls-12{fill:#dad9df;opacity:.1}.cls-13{fill:#413b59}</style></defs><path d="M138.3 343.47V324.9c0-1.37.75-2.63 1.95-3.28 7.94-4.26 40.03-19.4 95.43-19.4h99.03a3.73 3.73 0 0 1 3.73 3.73v24.82zm723.72 0V324.9c0-1.37-.75-2.63-1.95-3.28-7.94-4.26-40.03-19.4-95.43-19.4h-99.03a3.73 3.73 0 0 0-3.73 3.73v24.82z" style="fill:#b1b0b7"/><path d="M774.64 309.3H227.03c-107.03 0-196.1 87.57-195.9 194.6.19 107.11 87.08 193.89 194.24 193.89 31.21 0 60.69-7.36 86.82-20.44 7.51-3.76 15.79-5.69 24.19-5.69h327.25c8.4 0 16.68 1.94 24.19 5.7 26.11 13.07 55.56 20.43 86.74 20.44 106.78.04 194.13-87.13 194.31-193.91.18-107.43-86.86-194.57-194.24-194.57Z" class="cls-11"/><circle cx="775.42" cy="503.17" r="178.06" style="fill:#878688"/><circle cx="225.96" cy="498.1" r="110.05" style="fill:none;stroke:#9393a7;stroke-miterlimit:10;stroke-width:2px"/><rect width="206" height="91" x="717.39" y="488.2" class="cls-11" rx="45.5" ry="45.5" transform="rotate(-37.01 820.417 533.71)"/><path d="M902.59 500.7c0 20.57-16.68 37.25-37.25 37.25-9.49 0-18.16-3.55-24.75-9.4-7.68-6.82-12.51-16.76-12.51-27.85 0-20.57 16.69-37.25 37.26-37.25 10.65 0 20.25 4.46 27.04 11.63a37.1 37.1 0 0 1 10.21 25.62" style="fill:#c3423f"/><path d="M892.39 475.08c-6.23 24.22-23.25 42.19-51.79 53.47-7.68-6.82-12.51-16.76-12.51-27.85 0-20.57 16.69-37.25 37.26-37.25 10.65 0 20.25 4.46 27.04 11.63" class="cls-12"/><path d="M813.05 569.05c0 20.57-16.68 37.25-37.25 37.25-9.49 0-18.16-3.55-24.75-9.4-7.68-6.82-12.51-16.76-12.51-27.85 0-20.57 16.69-37.25 37.26-37.25 10.65 0 20.25 4.46 27.04 11.63a37.1 37.1 0 0 1 10.21 25.62" style="fill:#f9dd4c"/><path d="M802.84 543.43c-6.23 24.22-23.25 42.19-51.79 53.47-7.68-6.82-12.51-16.76-12.51-27.85 0-20.57 16.69-37.25 37.26-37.25 10.65 0 20.25 4.46 27.04 11.63" class="cls-12"/><rect width="206" height="91" x="627.37" y="421.69" class="cls-11" rx="45.5" ry="45.5" transform="rotate(-37.01 730.394 467.198)"/><path d="M722.14 500.7c0 20.57-16.68 37.25-37.25 37.25-9.49 0-18.16-3.55-24.75-9.4-7.68-6.82-12.51-16.76-12.51-27.85 0-20.57 16.69-37.25 37.26-37.25 10.65 0 20.25 4.46 27.04 11.63a37.1 37.1 0 0 1 10.21 25.62" style="fill:#4c9f74"/><path d="M711.93 475.08c-6.23 24.22-23.25 42.19-51.79 53.47-7.68-6.82-12.51-16.76-12.51-27.85 0-20.57 16.69-37.25 37.26-37.25 10.65 0 20.25 4.46 27.04 11.63" class="cls-12"/><path d="M812.37 433.03c0 20.57-16.68 37.25-37.25 37.25-9.49 0-18.16-3.55-24.75-9.4-7.68-6.82-12.51-16.76-12.51-27.85 0-20.57 16.69-37.25 37.26-37.25 10.65 0 20.25 4.46 27.04 11.63a37.1 37.1 0 0 1 10.21 25.62" style="fill:#3d6fb7"/><path d="M802.16 407.41c-6.23 24.22-23.25 42.19-51.79 53.47-7.68-6.82-12.51-16.76-12.51-27.85 0-20.57 16.69-37.25 37.26-37.25 10.65 0 20.25 4.46 27.04 11.63" class="cls-12"/><path d="M205.18 578.34c-3.43 0-6.23-2.78-6.23-6.21V528.2c0-1.77-1.45-3.21-3.23-3.21h-44.14c-3.43 0-6.23-2.78-6.23-6.21v-41.36c0-3.42 2.79-6.21 6.23-6.21h44.14c1.78 0 3.23-1.44 3.23-3.21v-43.93c0-3.42 2.79-6.21 6.23-6.21h41.56c3.43 0 6.23 2.78 6.23 6.21V468c0 1.77 1.45 3.21 3.23 3.21h44.14c3.43 0 6.23 2.78 6.23 6.21v41.36c0 3.42-2.79 6.21-6.23 6.21H256.2c-1.78 0-3.23 1.44-3.23 3.21v43.93c0 3.42-2.79 6.21-6.23 6.21z" style="fill:#56585d"/><path d="M246.74 419.37c2.61 0 4.73 2.11 4.73 4.71v43.93c0 2.6 2.12 4.71 4.73 4.71h44.14c2.61 0 4.73 2.11 4.73 4.71v41.36c0 2.6-2.12 4.71-4.73 4.71H256.2c-2.61 0-4.73 2.11-4.73 4.71v43.93c0 2.6-2.12 4.71-4.73 4.71h-41.56c-2.61 0-4.73-2.11-4.73-4.71v-43.93c0-2.6-2.12-4.71-4.73-4.71h-44.14c-2.61 0-4.73-2.11-4.73-4.71v-41.36c0-2.6 2.12-4.71 4.73-4.71h44.14c2.61 0 4.73-2.11 4.73-4.71v-43.93c0-2.6 2.12-4.71 4.73-4.71zm0-3h-41.56c-4.26 0-7.73 3.46-7.73 7.71v43.93c0 .94-.78 1.71-1.73 1.71h-44.14c-4.26 0-7.73 3.46-7.73 7.71v41.36c0 4.25 3.47 7.71 7.73 7.71h44.14c.95 0 1.73.77 1.73 1.71v43.93c0 4.25 3.47 7.71 7.73 7.71h41.56c4.26 0 7.73-3.46 7.73-7.71v-43.93c0-.94.78-1.71 1.73-1.71h44.14c4.26 0 7.73-3.46 7.73-7.71v-41.36c0-4.25-3.47-7.71-7.73-7.71H256.2c-.95 0-1.73-.77-1.73-1.71v-43.93c0-4.25-3.47-7.71-7.73-7.71" style="fill:#191919"/><rect width="84.08" height="30.3" x="372.23" y="514.06" class="cls-3" rx="15.15" ry="15.15" transform="rotate(-37.01 414.282 529.218)"/><rect width="84.08" height="30.3" x="476.35" y="514.06" class="cls-3" rx="15.15" ry="15.15" transform="rotate(-37.01 518.41 529.216)"/><path d="m379.7 586.57 2.38-.16c.03.98.16 1.65.39 1.99.37.56 1.04.84 2.03.84.82 0 1.41-.19 1.78-.57s.55-.84.55-1.38c0-.47-.15-.86-.45-1.18-.21-.24-.79-.62-1.73-1.15s-1.63-.97-2.07-1.33c-.43-.36-.78-.82-1.03-1.38s-.37-1.23-.37-1.99c0-1.33.37-2.43 1.11-3.31s1.81-1.31 3.22-1.31 2.53.43 3.32 1.3c.78.87 1.21 2.02 1.29 3.47l-2.4.14c-.06-.75-.27-1.33-.63-1.73q-.54-.6-1.59-.6c-1.05 0-1.19.16-1.48.47-.3.32-.44.71-.44 1.2 0 .45.14.83.41 1.12.27.3.87.71 1.8 1.24 1.4.78 2.29 1.42 2.67 1.91.57.72.85 1.64.85 2.77 0 1.39-.42 2.58-1.27 3.57s-2.03 1.48-3.55 1.48c-1.05 0-1.95-.23-2.72-.68-.77-.46-1.31-1.09-1.62-1.9-.32-.81-.46-1.74-.44-2.8Zm12.66 5.12 2.54-15.79h9.02l-.42 2.64h-6.52l-.58 3.59h6.3l-.42 2.64h-6.3l-.76 4.29h7.08l-.43 2.64h-9.5Zm13.1 0 2.55-15.79h2.5l-2.12 13.15h6.19l-.42 2.64zm12.02 0 2.54-15.79h9.02l-.42 2.64h-6.52l-.58 3.59h6.3l-.42 2.64h-6.3l-.76 4.29h7.08l-.43 2.64h-9.5Zm21.85-5.69 2.52.5c-.49 1.77-1.23 3.13-2.22 4.07-.98.94-2.14 1.41-3.46 1.41-1.49 0-2.65-.58-3.49-1.75-.84-1.16-1.26-2.85-1.26-5.06 0-1.79.28-3.44.84-4.93q.84-2.235 2.34-3.42c1-.79 2.08-1.18 3.25-1.18 1.32 0 2.38.46 3.2 1.37.81.92 1.29 2.16 1.44 3.74l-2.4.3c-.13-.92-.39-1.58-.77-2-.38-.41-.88-.62-1.52-.62-.69 0-1.34.27-1.94.82-.6.54-1.08 1.4-1.44 2.56a11.7 11.7 0 0 0-.54 3.47c0 1.26.23 2.24.7 2.93s1.05 1.03 1.75 1.03c.65 0 1.24-.27 1.78-.82s.94-1.35 1.21-2.42Zm10.46 5.69h-2.51l2.12-13.15h-3.57l.42-2.64h9.59l-.42 2.64h-3.52l-2.12 13.15Zm38-5.12 2.38-.16c.03.98.16 1.65.39 1.99.37.56 1.04.84 2.03.84.82 0 1.41-.19 1.78-.57s.55-.84.55-1.38c0-.47-.15-.86-.45-1.18-.21-.24-.79-.62-1.73-1.15s-1.63-.97-2.07-1.33c-.43-.36-.78-.82-1.03-1.38s-.37-1.23-.37-1.99c0-1.33.37-2.43 1.11-3.31s1.81-1.31 3.22-1.31 2.53.43 3.32 1.3 1.21 2.02 1.29 3.47l-2.4.14c-.06-.75-.27-1.33-.63-1.73q-.54-.6-1.59-.6c-1.05 0-1.19.16-1.48.47-.3.32-.44.71-.44 1.2 0 .45.14.83.41 1.12.27.3.87.71 1.8 1.24 1.4.78 2.29 1.42 2.67 1.91.57.72.86 1.64.86 2.77 0 1.39-.42 2.58-1.27 3.57s-2.03 1.48-3.55 1.48c-1.05 0-1.95-.23-2.72-.68-.77-.46-1.31-1.09-1.62-1.9-.32-.81-.46-1.74-.44-2.8Zm17.96 5.12h-2.51l2.12-13.15h-3.57l.42-2.64h9.59l-.42 2.64h-3.52l-2.12 13.15Zm13.49-3.49h-4.82l-1.46 3.49h-2.57l6.88-15.79h2.78l1.98 15.79h-2.37l-.41-3.49Zm-.3-2.63-.71-6.35-2.94 6.35h3.64Zm8.87 6.12h-2.51l2.55-15.79h5.4c.93 0 1.65.12 2.17.37s.93.7 1.25 1.36q.48.99.48 2.4c0 1.34-.31 2.45-.93 3.32s-1.56 1.41-2.81 1.62q.48.555.9 1.47c.56 1.24 1.18 2.98 1.87 5.23h-2.69c-.22-.89-.64-2.28-1.27-4.17-.34-1.02-.71-1.71-1.1-2.06-.24-.21-.65-.31-1.25-.31h-1.02l-1.05 6.54Zm1.43-8.91h1.33c1.34 0 2.24-.1 2.68-.31s.78-.53 1.03-.98.37-.91.37-1.4q0-.855-.54-1.29c-.22-.17-.7-.26-1.44-.26h-2.76l-.68 4.24Zm14.98 8.91h-2.51l2.12-13.15h-3.57l.42-2.64h9.59l-.42 2.64h-3.52l-2.12 13.15Z" style="fill:#7b7a86"/><path d="M368.71 357.91v7.57h-5.03v-19.66h11.39c4.85 0 7.61 2.23 7.61 5.61 0 2.54-1.58 4.02-3.66 4.64.86.33 3.09 1.12 3.09 4.64v.98c0 1.37 0 2.88.27 3.8h-5.2c-.36-.87-.39-2.04-.39-4.1v-.67c0-1.98-.77-2.79-3.84-2.79h-4.25Zm0-3.6h5.23c2.47 0 3.54-.84 3.54-2.49s-1.1-2.43-3.51-2.43h-5.26v4.91Zm34.85 3.94c0 4.44-3.27 7.62-8.98 7.62s-8.65-3.6-8.65-7.62 3.03-7.6 8.83-7.6 8.8 4.02 8.8 7.6m-12.7 0c0 2.26 1.34 4.19 3.87 4.19s3.84-1.9 3.84-4.1-1.16-4.22-3.87-4.22-3.84 1.93-3.84 4.13m16.62-3.46c0-1.26 0-2.48-.03-3.74h4.64c.09.56.12 1.2.12 1.7.8-1.03 2.26-2.09 4.7-2.09 2.71 0 4.01 1.12 4.64 2.37.8-1.06 2.23-2.37 5.17-2.37 3.21 0 5.74 1.82 5.74 6.12v8.71h-4.79v-8.6c0-1.26-.45-2.76-2.47-2.76-1.75 0-2.8 1.03-2.8 3.41v7.96h-4.82v-8.63c0-1.42-.57-2.74-2.5-2.74s-2.83 1.31-2.83 3.41v7.96h-4.79v-10.69Zm29.89 0c0-1.26 0-2.48-.03-3.74h4.64c.09.56.12 1.2.12 1.7.8-1.03 2.26-2.09 4.7-2.09 2.71 0 4.01 1.12 4.64 2.37.8-1.06 2.23-2.37 5.17-2.37 3.21 0 5.74 1.82 5.74 6.12v8.71h-4.79v-8.6c0-1.26-.45-2.76-2.47-2.76-1.75 0-2.8 1.03-2.8 3.41v7.96h-4.82v-8.63c0-1.42-.57-2.74-2.5-2.74s-2.83 1.31-2.83 3.41v7.96h-4.79v-10.69Zm27.98-3.75h2.77v-4.24H473v4.24h3.57v3.32H473v6.09c0 1.23.27 1.79 1.75 1.79.42 0 .89 0 1.31-.08v3.13c-.83.22-1.93.31-3.06.31-3.78 0-4.88-1.54-4.88-4.36v-6.87h-2.77v-3.32Zm18.53 8.33c.12 1.76 1.46 3.13 3.78 3.13 1.81 0 2.68-.53 3.24-1.42h4.88c-.95 2.57-3.24 4.8-8.18 4.8-6.3 0-8.56-3.91-8.56-7.6 0-4.05 2.91-7.62 8.54-7.62 5.98 0 8.39 3.88 8.39 7.62 0 .36 0 .64-.03 1.09H483.9Zm7.13-2.8c-.09-1.09-.71-2.71-3.48-2.71-2.53 0-3.48 1.28-3.6 2.71zm8.75-1.87c0-1.23 0-2.62-.03-3.66h4.73c.06.42.12 1.28.15 1.87.71-1.01 2.11-2.26 5.12-2.26 3.78 0 6.01 2.21 6.01 5.92v8.91h-4.91v-8.18c0-1.65-.68-3.1-2.86-3.1-2.29 0-3.33 1.48-3.33 4.08v7.2h-4.88zm37.35-10.02v16.75c0 1.34 0 2.71.03 4.05h-4.79c-.06-.42-.09-1.12-.12-1.68-.86 1.12-1.93 2.07-5.12 2.07-4.28 0-7.46-2.99-7.46-7.48 0-4.86 4.1-7.73 7.91-7.73 3 0 4.22.95 4.67 1.51v-7.48h4.88Zm-8.57 17.62c2.5 0 3.81-1.54 3.81-4.02s-1.04-4.08-3.81-4.08c-2.62 0-3.9 1.95-3.9 4.08 0 2.29 1.4 4.02 3.9 4.02m30.13-4.05c0 4.44-3.27 7.62-8.98 7.62s-8.65-3.6-8.65-7.62 3.03-7.6 8.83-7.6 8.8 4.02 8.8 7.6m-12.7 0c0 2.26 1.34 4.19 3.87 4.19s3.84-1.9 3.84-4.1-1.16-4.22-3.87-4.22-3.84 1.93-3.84 4.13" class="cls-13"/><ellipse cx="325.92" cy="384.35" class="cls-13" rx="12.53" ry="5.83"/><ellipse cx="305.73" cy="374.62" class="cls-13" rx="12.53" ry="5.83"/><path d="M328.61 354.22c-3.82-4.11-10.48-4.12-14.89-.03-1.98 1.84-3.16 4.19-3.52 6.6 2.98-.22 5.95.79 8.05 3.05s2.89 5.3 2.45 8.25c2.43-.18 4.86-1.19 6.85-3.03 4.41-4.1 4.89-10.75 1.08-14.86Zm20 10.48c-3.82-4.11-10.48-4.12-14.89-.03-1.98 1.84-3.16 4.19-3.52 6.6 2.98-.22 5.95.79 8.05 3.05s2.89 5.3 2.45 8.25c2.43-.18 4.86-1.19 6.85-3.03 4.41-4.1 4.89-10.75 1.08-14.86Zm16.53 23.12h6.95c1.2 0 1.84-.09 2.29-.38.61-.35.94-.97.94-1.79 0-.94-.42-1.67-1.18-2-.42-.17-1.01-.24-2.12-.24h-2.03c-1.86 0-3.06-.26-3.87-.85-1.04-.73-1.63-1.98-1.63-3.42 0-1.81.9-3.39 2.33-4.13.85-.4 1.89-.57 3.75-.57h7.07v2.36h-6.72c-1.2 0-1.84.09-2.33.31-.59.28-.97.97-.97 1.79 0 1.44.87 2 3.16 2h1.67c2.43 0 3.63.26 4.53 1.01.92.75 1.46 2.15 1.46 3.68 0 1.74-.75 3.18-2.05 3.91-.85.52-1.82.66-4.15.66h-7.12v-2.36Zm19.52-3.98c0 1.63.21 2.48.75 3.09.68.75 1.74 1.16 3.14 1.16 1.65 0 2.9-.54 3.47-1.46.31-.54.42-1.27.42-2.9v-9.27h2.88v9.19c0 2.69-.38 3.96-1.44 4.97-1.23 1.18-3.04 1.74-5.52 1.74s-4.2-.64-5.33-1.93c-.92-1.06-1.25-2.24-1.25-4.57v-9.41h2.88v9.38Zm17.66 6.34h-2.88v-15.72h7.33c2.4 0 3.44.28 4.41 1.25.97.94 1.46 2.24 1.46 3.77 0 1.65-.61 3.16-1.65 4.06-.87.75-2 1.04-4.08 1.04h-4.6v5.61Zm4.32-7.97c1.06 0 1.7-.17 2.12-.57.47-.4.78-1.27.78-2.24s-.33-1.67-.94-2.17c-.4-.31-.94-.42-1.98-.42h-4.29v5.4zm20.74-5.4h-4.48c-3.18-.07-4.55 1.18-4.67 4.31h9.15v2.36h-9.15c.14 3.02 1.58 4.36 4.67 4.34h4.48v2.36h-4.81c-2.81 0-4.5-.54-5.66-1.84-1.3-1.41-1.91-3.35-1.91-5.92 0-2.92.85-5.12 2.57-6.6 1.11-.97 2.52-1.37 4.83-1.37h4.97v2.36Zm6.61 13.37h-2.88v-15.72h7.38c2.22 0 3.58.26 4.46.85 1.13.75 1.79 2.05 1.79 3.54 0 1.32-.47 2.52-1.23 3.28-.54.5-.99.75-1.91 1.04 1.96.68 2.73 1.96 2.88 4.62.12 1.67.14 1.82.4 2.4h-3.11c-.09-.26-.14-.4-.19-.68 0-.14-.05-.42-.07-.83l-.07-.75c-.28-3.09-1.51-4.13-4.86-4.1h-2.59v6.37Zm4.57-8.72c1.13 0 1.79-.12 2.19-.42.57-.4.85-1.06.85-1.93 0-.97-.38-1.7-1.06-2.03-.35-.19-.9-.26-1.98-.26h-4.57v4.64zm19.66 8.72h-2.88v-15.72h7.38c2.22 0 3.58.26 4.46.85 1.13.75 1.79 2.05 1.79 3.54 0 1.32-.47 2.52-1.23 3.28-.54.5-.99.75-1.91 1.04 1.96.68 2.73 1.96 2.88 4.62.12 1.67.14 1.82.4 2.4H466c-.09-.26-.14-.4-.19-.68 0-.14-.05-.42-.07-.83l-.07-.75c-.28-3.09-1.51-4.13-4.86-4.1h-2.59v6.37Zm4.58-8.72c1.13 0 1.79-.12 2.19-.42.57-.4.85-1.06.85-1.93 0-.97-.38-1.7-1.06-2.03-.35-.19-.9-.26-1.98-.26h-4.57v4.64zm24.19 1.49c0 4.65-2.76 7.38-7.44 7.38s-7.47-2.58-7.47-7.2c0-2.22.69-4.26 1.89-5.58 1.29-1.44 3.12-2.13 5.73-2.13 4.68 0 7.29 2.7 7.29 7.53m-11.91 0c0 3.27 1.5 4.98 4.38 4.98s4.53-1.65 4.53-4.92-1.62-5.19-4.47-5.19-4.44 1.83-4.44 5.13m29.25-7.38c3.39-.03 4.14.12 5.31 1.05 1.11.96 1.47 2.1 1.44 4.53v9.03h-2.91v-9.03c0-2.43-.87-3.27-3.3-3.27h-2.25v12.3h-2.91v-12.3h-5.4v12.3h-2.91v-14.61zm24.89 0c3.39-.03 4.14.12 5.31 1.05 1.11.96 1.47 2.1 1.44 4.53v9.03h-2.91v-9.03c0-2.43-.87-3.27-3.3-3.27h-2.25v12.3h-2.91v-12.3h-5.4v12.3h-2.91v-14.61zm11.56-1.11h2.88v15.72h-2.88zm18.67 3.42h-4.65c-3.18 0-4.41 1.41-4.41 5.01 0 1.95.39 3.27 1.23 4.08.63.66 1.53.9 3.18.9h4.65v2.31h-4.65c-3 0-4.44-.42-5.58-1.68-1.17-1.29-1.83-3.24-1.83-5.37 0-2.28.66-4.26 1.92-5.61 1.32-1.44 2.79-1.95 5.49-1.95h4.65zm17.67 5.07c0 4.65-2.76 7.38-7.44 7.38s-7.47-2.58-7.47-7.2c0-2.22.69-4.26 1.89-5.58 1.29-1.44 3.12-2.13 5.73-2.13 4.68 0 7.29 2.7 7.29 7.53m-11.91 0c0 3.27 1.5 4.98 4.38 4.98s4.53-1.65 4.53-4.92-1.62-5.19-4.47-5.19-4.44 1.83-4.44 5.13m29.25-7.38c3.39-.03 4.14.12 5.31 1.05 1.11.96 1.47 2.1 1.44 4.53v9.03h-2.91v-9.03c0-2.43-.87-3.27-3.3-3.27h-2.25v12.3h-2.91v-12.3h-5.4v12.3h-2.91v-14.61z" class="cls-13"/></svg>