<svg xmlns="http://www.w3.org/2000/svg" id="Layer_1" data-name="Layer 1" viewBox="0 0 1000 1000"><defs><style>.cls-1{fill:#a7a1cf}.cls-2{fill:#7b7a86}.cls-4{fill:#56595f}.cls-8{fill:#59378d}.cls-9{fill:#dad9df;opacity:.1}.cls-11{fill:#bdbeca}</style></defs><path d="M138.3 343.47V324.9c0-1.37.75-2.63 1.95-3.28 7.94-4.26 40.03-19.4 95.43-19.4h99.03a3.73 3.73 0 0 1 3.73 3.73v24.82zm723.72 0V324.9c0-1.37-.75-2.63-1.95-3.28-7.94-4.26-40.03-19.4-95.43-19.4h-99.03a3.73 3.73 0 0 0-3.73 3.73v24.82z" style="fill:#b1b0b7"/><path d="M774.64 309.3H227.03c-107.03 0-196.1 87.57-195.9 194.6.19 107.11 87.08 193.89 194.24 193.89 31.21 0 60.69-7.36 86.82-20.44 7.51-3.76 15.79-5.69 24.19-5.69h327.25c8.4 0 16.68 1.94 24.19 5.7 26.11 13.07 55.56 20.43 86.74 20.44 106.78.04 194.13-87.13 194.31-193.91.18-107.43-86.86-194.57-194.24-194.57Z" class="cls-11"/><circle cx="775.42" cy="503.17" r="178.06" style="fill:#9393a7"/><circle cx="225.96" cy="498.1" r="110.05" style="fill:none;stroke:#9393a7;stroke-miterlimit:10;stroke-width:2px"/><rect width="206" height="91" x="717.39" y="488.2" class="cls-11" rx="45.5" ry="45.5" transform="rotate(-37.01 820.417 533.71)"/><path d="M902.59 500.7c0 20.57-16.68 37.25-37.25 37.25-9.49 0-18.16-3.55-24.75-9.4-7.68-6.82-12.51-16.76-12.51-27.85 0-20.57 16.69-37.25 37.26-37.25 10.65 0 20.25 4.46 27.04 11.63a37.1 37.1 0 0 1 10.21 25.62" class="cls-8"/><path d="M892.39 475.08c-6.23 24.22-23.25 42.19-51.79 53.47-7.68-6.82-12.51-16.76-12.51-27.85 0-20.57 16.69-37.25 37.26-37.25 10.65 0 20.25 4.46 27.04 11.63" class="cls-9"/><path d="M813.05 569.05c0 20.57-16.68 37.25-37.25 37.25-9.49 0-18.16-3.55-24.75-9.4-7.68-6.82-12.51-16.76-12.51-27.85 0-20.57 16.69-37.25 37.26-37.25 10.65 0 20.25 4.46 27.04 11.63a37.1 37.1 0 0 1 10.21 25.62" class="cls-8"/><path d="M802.84 543.43c-6.23 24.22-23.25 42.19-51.79 53.47-7.68-6.82-12.51-16.76-12.51-27.85 0-20.57 16.69-37.25 37.26-37.25 10.65 0 20.25 4.46 27.04 11.63" class="cls-9"/><rect width="206" height="91" x="627.37" y="421.69" class="cls-11" rx="45.5" ry="45.5" transform="rotate(-37.01 730.394 467.198)"/><path d="M722.14 500.7c0 20.57-16.68 37.25-37.25 37.25-9.49 0-18.16-3.55-24.75-9.4-7.68-6.82-12.51-16.76-12.51-27.85 0-20.57 16.69-37.25 37.26-37.25 10.65 0 20.25 4.46 27.04 11.63a37.1 37.1 0 0 1 10.21 25.62" class="cls-1"/><path d="M711.93 475.08c-6.23 24.22-23.25 42.19-51.79 53.47-7.68-6.82-12.51-16.76-12.51-27.85 0-20.57 16.69-37.25 37.26-37.25 10.65 0 20.25 4.46 27.04 11.63" class="cls-9"/><path d="M812.37 433.03c0 20.57-16.68 37.25-37.25 37.25-9.49 0-18.16-3.55-24.75-9.4-7.68-6.82-12.51-16.76-12.51-27.85 0-20.57 16.69-37.25 37.26-37.25 10.65 0 20.25 4.46 27.04 11.63a37.1 37.1 0 0 1 10.21 25.62" class="cls-1"/><path d="M802.16 407.41c-6.23 24.22-23.25 42.19-51.79 53.47-7.68-6.82-12.51-16.76-12.51-27.85 0-20.57 16.69-37.25 37.26-37.25 10.65 0 20.25 4.46 27.04 11.63" class="cls-9"/><path d="M205.18 578.34c-3.43 0-6.23-2.78-6.23-6.21V528.2c0-1.77-1.45-3.21-3.23-3.21h-44.14c-3.43 0-6.23-2.78-6.23-6.21v-41.36c0-3.42 2.79-6.21 6.23-6.21h44.14c1.78 0 3.23-1.44 3.23-3.21v-43.93c0-3.42 2.79-6.21 6.23-6.21h41.56c3.43 0 6.23 2.78 6.23 6.21V468c0 1.77 1.45 3.21 3.23 3.21h44.14c3.43 0 6.23 2.78 6.23 6.21v41.36c0 3.42-2.79 6.21-6.23 6.21H256.2c-1.78 0-3.23 1.44-3.23 3.21v43.93c0 3.42-2.79 6.21-6.23 6.21z" style="fill:#56585d"/><path d="M246.74 419.37c2.61 0 4.73 2.11 4.73 4.71v43.93c0 2.6 2.12 4.71 4.73 4.71h44.14c2.61 0 4.73 2.11 4.73 4.71v41.36c0 2.6-2.12 4.71-4.73 4.71H256.2c-2.61 0-4.73 2.11-4.73 4.71v43.93c0 2.6-2.12 4.71-4.73 4.71h-41.56c-2.61 0-4.73-2.11-4.73-4.71v-43.93c0-2.6-2.12-4.71-4.73-4.71h-44.14c-2.61 0-4.73-2.11-4.73-4.71v-41.36c0-2.6 2.12-4.71 4.73-4.71h44.14c2.61 0 4.73-2.11 4.73-4.71v-43.93c0-2.6 2.12-4.71 4.73-4.71zm0-3h-41.56c-4.26 0-7.73 3.46-7.73 7.71v43.93c0 .94-.78 1.71-1.73 1.71h-44.14c-4.26 0-7.73 3.46-7.73 7.71v41.36c0 4.25 3.47 7.71 7.73 7.71h44.14c.95 0 1.73.77 1.73 1.71v43.93c0 4.25 3.47 7.71 7.73 7.71h41.56c4.26 0 7.73-3.46 7.73-7.71v-43.93c0-.94.78-1.71 1.73-1.71h44.14c4.26 0 7.73-3.46 7.73-7.71v-41.36c0-4.25-3.47-7.71-7.73-7.71H256.2c-.95 0-1.73-.77-1.73-1.71v-43.93c0-4.25-3.47-7.71-7.73-7.71" style="fill:#191919"/><rect width="84.08" height="30.3" x="372.23" y="514.06" class="cls-4" rx="15.15" ry="15.15" transform="rotate(-37.01 414.282 529.218)"/><rect width="84.08" height="30.3" x="476.35" y="514.06" class="cls-4" rx="15.15" ry="15.15" transform="rotate(-37.01 518.41 529.216)"/><path d="m364.96 340.66-.71-1.04h-1.55l-1.06 1.04-1.64 11.15.71 1.04h4.16l2.21 3.13-2.39 15.94-3.15 3.13h-6.73l-2.17-3.13 1.24-8.28h4.25l-.93 6.2.71 1.04h1.77l1.06-1.04 1.73-11.67-.71-1.04h-4.16l-2.21-3.13 2.3-15.42 3.15-3.13h6.51l2.17 3.13-1.24 8.33h-4.25zm11.51 34.38h-7.13l-2.17-3.13 5.45-36.47h4.25l-5.14 34.28.71 1.04h2.17l1.06-1.04 5.14-34.28h4.25l-5.45 36.47-3.15 3.13Zm11.48-39.59h9.61l2.17 3.13-2.61 17.5-3.1 3.13h-5.36l-2.39 15.84h-4.25l5.94-39.59Zm5.22 18.55 1.99-13.34-.71-1.04h-2.88l-2.3 15.42h2.88zm9.31-18.55h10.5l-.62 4.27h-6.25l-1.99 13.13h5.45l-.62 4.27h-5.45l-2.08 13.65h6.33l-.62 4.27h-10.59zm12.84 0h9.83l2.17 3.13-2.44 16.46-2.79 2.76.09 17.24h-4.12l-.09-16.88h-1.82l-2.52 16.88h-4.25zm5.58 17.61 1.86-12.4-.71-1.04h-3.1l-2.17 14.48h3.1zm17.01-17.61h9.83l2.17 3.13-2.44 16.46-2.79 2.76.09 17.24h-4.12l-.09-16.88h-1.82l-2.52 16.88h-4.25zm5.59 17.61 1.86-12.4-.71-1.04h-3.1l-2.17 14.48h3.1zm16.87 18.86-3.15 3.13h-7.4l-2.17-3.13 4.96-33.34 3.15-3.13h7.4l2.17 3.13zm-2.74-32.2-1.06 1.04-4.34 28.96.71 1.04h2.44l1.06-1.04 4.34-28.96-.71-1.04zm12.22 35.32 1.33-31.05-4.65 31.05h-3.85l5.94-39.59h6.16l-1.64 31.99 7.93-31.99h6.29l-5.94 39.59h-4.03l4.65-31.05-7.97 31.05h-4.21Zm21.67 0 1.33-31.05-4.65 31.05h-3.85l5.94-39.59h6.16l-1.64 31.99 7.93-31.99h6.29l-5.94 39.59h-4.03l4.65-31.05-7.97 31.05h-4.21Zm27.02-35.42-5.32 35.42h-4.25l5.32-35.42h-4.03l.62-4.17h12.31l-.62 4.17zm6.51-4.17h10.5l-.62 4.27h-6.25l-1.99 13.13h5.45l-.62 4.27h-5.45l-2.08 13.65h6.33l-.62 4.27h-10.59zm12.85 0h4.61l.75 27.45 4.12-27.45h3.85l-5.94 39.59h-4.61l-.8-27.04-4.08 27.04h-3.85l5.94-39.59Zm28.39 3.13-4.96 33.34-3.14 3.13h-9.97l5.94-39.59h9.97l2.17 3.13Zm-8.9 31.15 4.34-28.96-.71-1.04h-3.23l-4.7 31.05h3.23l1.06-1.04Zm19.31 2.19-3.15 3.13h-7.4l-2.17-3.13 4.96-33.34 3.14-3.13h7.4l2.17 3.13-4.96 33.34Zm-2.75-32.2-1.06 1.04-4.34 28.96.71 1.04h2.44l1.06-1.04 4.34-28.96-.71-1.04zm-223.43 38.39h229.97v14.73H350.52z" class="cls-2"/><path d="m357.12 389.78 1.47-8.59h5.06l-.16.97h-4.12l-.46 2.68h4.01l-.16.97h-4.01l-.51 2.99h4.41l-.17.97h-5.35Zm11.36 0 1.46-8.59h.92l1.18 3.23c.35.95.62 1.74.82 2.38q.21.66.45 1.68c.09-.74.2-1.49.32-2.24l.88-5.05h.91l-1.47 8.59h-.93l-1.74-4.96c-.31-.88-.55-1.66-.72-2.32-.04.56-.13 1.24-.27 2.06l-.89 5.22h-.91Zm13.66 0 1.3-7.62h-2.31l.17-.97h5.54l-.16.97h-2.3l-1.3 7.62zm9.05 0 1.47-8.59h5.06l-.16.97h-4.12l-.46 2.68h4.01l-.16.97h-4.01l-.51 2.99h4.41l-.17.97h-5.35Zm11.36 0 1.47-8.59h2.92c.63 0 1.09.07 1.37.21s.49.34.62.6c.18.36.28.79.28 1.28 0 .75-.2 1.34-.59 1.78s-.98.73-1.77.86c.26.23.46.48.61.73.28.5.51 1 .68 1.51l.53 1.62h-1.05l-.5-1.6c-.19-.61-.4-1.13-.63-1.54-.15-.27-.31-.45-.47-.54s-.43-.13-.79-.13h-1.07l-.65 3.81h-.95Zm1.76-4.74h1.27c.71 0 1.19-.03 1.44-.08s.48-.16.67-.31.34-.35.45-.59.17-.5.17-.79c0-.26-.05-.48-.14-.66s-.21-.3-.35-.37-.39-.1-.75-.1h-2.25l-.5 2.9Zm11.69 4.74 1.3-7.62h-2.31l.17-.97h5.54l-.16.97h-2.3l-1.3 7.62zm7.49 0 4-8.59h1.11l1.17 8.59h-.91l-.34-2.47h-2.85l-1.13 2.47h-1.03Zm2.57-3.36h2.33l-.27-2.16c-.1-.85-.17-1.56-.2-2.14-.16.49-.39 1.08-.7 1.75l-1.16 2.54Zm9.46 3.36 1.47-8.59h.95l-1.47 8.59zm7.54 0 1.46-8.59h.92l1.18 3.23c.35.95.62 1.74.82 2.38q.21.66.45 1.68c.09-.74.2-1.49.32-2.24l.88-5.05h.91l-1.47 8.59h-.93l-1.74-4.96c-.31-.88-.55-1.66-.72-2.32-.04.56-.13 1.24-.27 2.06l-.89 5.22h-.91Zm11.9 0 1.43-8.59h1.15l.75 5.57c.1.74.16 1.44.19 2.1.2-.58.52-1.37.97-2.35l2.46-5.32h1.17l-1.39 8.59h-.92l.7-4.18c.16-.97.4-2.05.7-3.25q-.3.84-.75 1.8l-2.61 5.62h-.91l-.74-5.51c-.07-.48-.11-1.07-.15-1.76-.07.73-.15 1.33-.22 1.79l-.91 5.48h-.91Zm13 0 1.47-8.59h5.06l-.16.97h-4.12l-.46 2.68h4.01l-.16.97h-4.01l-.51 2.99h4.41l-.17.97h-5.35Zm11.36 0 1.46-8.59h.92l1.18 3.23c.35.95.62 1.74.82 2.38q.21.66.45 1.68c.09-.74.2-1.49.32-2.24l.88-5.05h.91l-1.47 8.59h-.93l-1.74-4.96c-.31-.88-.55-1.66-.72-2.32-.04.56-.13 1.24-.27 2.06l-.89 5.22h-.91Zm13.66 0 1.3-7.62h-2.31l.17-.97h5.54l-.16.97h-2.3l-1.3 7.62zm16.6-2.78.92-.11v.29c0 .38.07.72.23 1.02.12.23.32.41.6.56.28.14.61.21 1 .21.54 0 .96-.14 1.27-.43.31-.28.47-.64.47-1.06 0-.3-.09-.56-.27-.77-.18-.22-.61-.5-1.29-.86-.52-.28-.88-.49-1.07-.63q-.51-.375-.75-.84c-.24-.465-.24-.66-.24-1.05 0-.69.22-1.24.66-1.66s1.04-.63 1.81-.63q.795 0 1.35.3c.555.3.67.49.89.87s.33.79.33 1.23v.18l-.92.09v-.19c0-.28-.06-.54-.2-.78s-.34-.42-.59-.56c-.26-.13-.55-.2-.89-.2-.48 0-.85.12-1.12.35-.27.24-.4.54-.4.93q0 .525.3.81t1.5.93c.58.32.98.57 1.19.77s.37.43.49.71.17.58.17.93c0 .72-.25 1.32-.76 1.8-.5.48-1.17.72-1.98.72-.88 0-1.55-.24-2.01-.71q-.69-.705-.69-2.22m13.46 2.78.57-3.32-2.19-5.27h1.01l1.06 2.51c.22.53.44 1.12.67 1.75.23-.53.55-1.11.95-1.74l1.64-2.53h1.12l-3.32 5.36-.55 3.23h-.95Zm9.26-2.78.92-.11v.29c0 .38.07.72.23 1.02.12.23.32.41.6.56.28.14.61.21 1 .21.54 0 .96-.14 1.27-.43.31-.28.47-.64.47-1.06 0-.3-.09-.56-.27-.77-.18-.22-.61-.5-1.29-.86-.52-.28-.88-.49-1.07-.63q-.51-.375-.75-.84c-.24-.465-.24-.66-.24-1.05 0-.69.22-1.24.66-1.66s1.04-.63 1.81-.63q.795 0 1.35.3c.555.3.67.49.89.87s.33.79.33 1.23v.18l-.92.09v-.19c0-.28-.06-.54-.2-.78s-.34-.42-.59-.56c-.26-.13-.55-.2-.89-.2-.48 0-.85.12-1.12.35-.27.24-.4.54-.4.93q0 .525.3.81t1.5.93c.58.32.98.57 1.19.77s.37.43.49.71.17.58.17.93c0 .72-.25 1.32-.76 1.8-.5.48-1.17.72-1.98.72-.88 0-1.55-.24-2.01-.71q-.69-.705-.69-2.22m12.9 2.78 1.3-7.62h-2.31l.17-.97h5.54l-.16.97h-2.3l-1.3 7.62h-.95Zm9.05 0 1.47-8.59h5.06l-.16.97h-4.12l-.46 2.68h4l-.16.97h-4.01l-.51 2.99h4.41l-.17.97h-5.35Zm11.37 0 1.43-8.59h1.15l.75 5.57c.1.74.16 1.44.19 2.1.2-.58.52-1.37.97-2.35l2.46-5.32h1.17l-1.39 8.59h-.92l.7-4.18c.16-.97.4-2.05.7-3.25q-.3.84-.75 1.8l-2.61 5.62h-.91l-.74-5.51c-.07-.48-.12-1.07-.15-1.76-.07.73-.15 1.33-.22 1.79l-.91 5.48h-.91Z" style="fill:#cfd4db"/><path d="m379.7 586.57 2.38-.16c.03.98.16 1.65.39 1.99.37.56 1.04.84 2.03.84.82 0 1.41-.19 1.78-.57s.55-.84.55-1.38c0-.47-.15-.86-.45-1.18-.21-.24-.79-.62-1.73-1.15s-1.63-.97-2.07-1.33c-.43-.36-.78-.82-1.03-1.38s-.37-1.23-.37-1.99c0-1.33.37-2.43 1.11-3.31s1.81-1.31 3.22-1.31 2.53.43 3.32 1.3c.78.87 1.21 2.02 1.29 3.47l-2.4.14c-.06-.75-.27-1.33-.63-1.73q-.54-.6-1.59-.6c-1.05 0-1.19.16-1.48.47-.3.32-.44.71-.44 1.2 0 .45.14.83.41 1.12.27.3.87.71 1.8 1.24 1.4.78 2.29 1.42 2.67 1.91.57.72.85 1.64.85 2.77 0 1.39-.42 2.58-1.27 3.57s-2.03 1.48-3.55 1.48c-1.05 0-1.95-.23-2.72-.68-.77-.46-1.31-1.09-1.62-1.9-.32-.81-.46-1.74-.44-2.8Zm12.66 5.12 2.54-15.79h9.02l-.42 2.64h-6.52l-.58 3.59h6.3l-.42 2.64h-6.3l-.76 4.29h7.08l-.43 2.64h-9.5Zm13.1 0 2.55-15.79h2.5l-2.12 13.15h6.19l-.42 2.64zm12.02 0 2.54-15.79h9.02l-.42 2.64h-6.52l-.58 3.59h6.3l-.42 2.64h-6.3l-.76 4.29h7.08l-.43 2.64h-9.5Zm21.85-5.69 2.52.5c-.49 1.77-1.23 3.13-2.22 4.07-.98.94-2.14 1.41-3.46 1.41-1.49 0-2.65-.58-3.49-1.75-.84-1.16-1.26-2.85-1.26-5.06 0-1.79.28-3.44.84-4.93q.84-2.235 2.34-3.42c1-.79 2.08-1.18 3.25-1.18 1.32 0 2.38.46 3.2 1.37.81.92 1.29 2.16 1.44 3.74l-2.4.3c-.13-.92-.39-1.58-.77-2-.38-.41-.88-.62-1.52-.62-.69 0-1.34.27-1.94.82-.6.54-1.08 1.4-1.44 2.56a11.7 11.7 0 0 0-.54 3.47c0 1.26.23 2.24.7 2.93s1.05 1.03 1.75 1.03c.65 0 1.24-.27 1.78-.82s.94-1.35 1.21-2.42Zm10.46 5.69h-2.51l2.12-13.15h-3.57l.42-2.64h9.59l-.42 2.64h-3.52l-2.12 13.15Zm38-5.12 2.38-.16c.03.98.16 1.65.39 1.99.37.56 1.04.84 2.03.84.82 0 1.41-.19 1.78-.57s.55-.84.55-1.38c0-.47-.15-.86-.45-1.18-.21-.24-.79-.62-1.73-1.15s-1.63-.97-2.07-1.33c-.43-.36-.78-.82-1.03-1.38s-.37-1.23-.37-1.99c0-1.33.37-2.43 1.11-3.31s1.81-1.31 3.22-1.31 2.53.43 3.32 1.3 1.21 2.02 1.29 3.47l-2.4.14c-.06-.75-.27-1.33-.63-1.73q-.54-.6-1.59-.6c-1.05 0-1.19.16-1.48.47-.3.32-.44.71-.44 1.2 0 .45.14.83.41 1.12.27.3.87.71 1.8 1.24 1.4.78 2.29 1.42 2.67 1.91.57.72.86 1.64.86 2.77 0 1.39-.42 2.58-1.27 3.57s-2.03 1.48-3.55 1.48c-1.05 0-1.95-.23-2.72-.68-.77-.46-1.31-1.09-1.62-1.9-.32-.81-.46-1.74-.44-2.8Zm17.96 5.12h-2.51l2.12-13.15h-3.57l.42-2.64h9.59l-.42 2.64h-3.52l-2.12 13.15Zm13.49-3.49h-4.82l-1.46 3.49h-2.57l6.88-15.79h2.78l1.98 15.79h-2.37l-.41-3.49Zm-.3-2.63-.71-6.35-2.94 6.35h3.64Zm8.87 6.12h-2.51l2.55-15.79h5.4c.93 0 1.65.12 2.17.37s.93.7 1.25 1.36q.48.99.48 2.4c0 1.34-.31 2.45-.93 3.32s-1.56 1.41-2.81 1.62q.48.555.9 1.47c.56 1.24 1.18 2.98 1.87 5.23h-2.69c-.22-.89-.64-2.28-1.27-4.17-.34-1.02-.71-1.71-1.1-2.06-.24-.21-.65-.31-1.25-.31h-1.02l-1.05 6.54Zm1.43-8.91h1.33c1.34 0 2.24-.1 2.68-.31s.78-.53 1.03-.98.37-.91.37-1.4q0-.855-.54-1.29c-.22-.17-.7-.26-1.44-.26h-2.76l-.68 4.24Zm14.98 8.91h-2.51l2.12-13.15h-3.57l.42-2.64h9.59l-.42 2.64h-3.52l-2.12 13.15Z" class="cls-2"/></svg>