<?xml version="1.0" encoding="UTF-8"?>
<svg xmlns="http://www.w3.org/2000/svg" viewBox="0 0 1000 1000">
  <defs>
    <style>
      .cls-1 {
        fill: #969792;
      }

      .cls-2 {
        fill: none;
        stroke: #262c34;
        stroke-miterlimit: 10;
      }

      .cls-3 {
        fill: #20252d;
      }

      .cls-4 {
        fill: #31363e;
      }

      .cls-5 {
        fill: #28aecb;
      }

      .cls-6 {
        fill: #1c2129;
      }

      .cls-7 {
        fill: #e15a56;
      }
    </style>
  </defs>
  <g id="Joycons">
    <g>
      <path class="cls-6" d="M842.7,304.3v-2.78c0-.78.63-1.41,1.41-1.41,4.57.04,18.98.15,24.54.15.09,0,.17,0,.26,0,20.43,1.26,32.98,7.95,42.91,15.61,12.19,9.4,23.57,23.27,26.39,31.86.3.92-.38,1.86-1.35,1.86-4.06,0-4.89,0-4.54,0l-88.85-44.04c-.48-.24-.78-.73-.78-1.26Z"/>
      <path class="cls-7" d="M822.6,303.95h39.18c44.96,0,81.46,36.5,81.46,81.46v208.29c0,43.42-35.25,78.68-78.68,78.68h-41.96c-2,0-3.61-1.62-3.61-3.61v-361.2c0-2,1.62-3.61,3.61-3.61Z"/>
      <circle class="cls-6" cx="877.67" cy="423.9" r="13.97"/>
      <g>
        <path class="cls-6" d="M856.28,582.07c-7.13,0-12.93-5.8-12.93-12.93s5.8-12.93,12.93-12.93,12.93,5.8,12.93,12.93-5.8,12.93-12.93,12.93Z"/>
        <path class="cls-1" d="M856.28,557.71c6.31,0,11.43,5.12,11.43,11.43s-5.12,11.43-11.43,11.43-11.43-5.12-11.43-11.43,5.12-11.43,11.43-11.43M856.28,554.71c-7.96,0-14.43,6.47-14.43,14.43s6.47,14.43,14.43,14.43,14.43-6.47,14.43-14.43-6.47-14.43-14.43-14.43h0Z"/>
      </g>
      <circle class="cls-6" cx="877.67" cy="369.82" r="13.97"/>
      <circle class="cls-6" cx="848.96" cy="397.77" r="13.97"/>
      <circle class="cls-6" cx="904.79" cy="397.77" r="13.97"/>
      <rect class="cls-6" x="829.79" y="337.47" width="19.75" height="6.08"/>
      <rect class="cls-6" x="829.79" y="337.47" width="19.75" height="6.08" transform="translate(499.15 1180.18) rotate(-90)"/>
      <circle class="cls-6" cx="876.8" cy="499.91" r="27.87"/>
      <g>
        <circle class="cls-2" cx="876.8" cy="499.67" r="20.53"/>
        <line class="cls-2" x1="876.8" y1="479.14" x2="876.8" y2="475.13"/>
        <line class="cls-2" x1="876.8" y1="524.7" x2="876.8" y2="520.68"/>
        <line class="cls-2" x1="856.28" y1="499.67" x2="852.26" y2="499.67"/>
        <line class="cls-2" x1="901.35" y1="499.67" x2="897.33" y2="499.67"/>
      </g>
    </g>
    <g>
      <path class="cls-6" d="M161.39,304.3v-2.78c0-.78-.63-1.41-1.41-1.41-4.57.04-18.98.15-24.54.15-.09,0-.17,0-.26,0-20.43,1.26-32.98,7.95-42.91,15.61-12.19,9.4-23.57,23.27-26.39,31.86-.3.92.38,1.86,1.35,1.86,4.06,0,4.89,0,4.54,0l88.85-44.04c.48-.24.78-.73.78-1.26Z"/>
      <path class="cls-5" d="M64.47,303.95h41.96c43.42,0,78.68,35.25,78.68,78.68v208.29c0,44.96-36.5,81.46-81.46,81.46h-39.18c-2,0-3.61-1.62-3.61-3.61v-361.2c0-2,1.62-3.61,3.61-3.61Z" transform="translate(245.96 976.33) rotate(-180)"/>
      <rect class="cls-6" x="136.05" y="557.71" width="22.86" height="22.86" rx="4.82" ry="4.82"/>
      <circle class="cls-6" cx="127.49" cy="526.04" r="13.97"/>
      <circle class="cls-6" cx="127.49" cy="471.96" r="13.97"/>
      <circle class="cls-6" cx="98.78" cy="499.91" r="13.97"/>
      <circle class="cls-6" cx="154.61" cy="499.91" r="13.97"/>
      <rect class="cls-6" x="154.2" y="337.73" width="19.75" height="6.08"/>
      <circle class="cls-6" cx="126.66" cy="397.77" r="27.87"/>
      <g>
        <circle class="cls-2" cx="126.66" cy="397.53" r="20.53"/>
        <line class="cls-2" x1="126.66" y1="377" x2="126.66" y2="372.99"/>
        <line class="cls-2" x1="126.66" y1="422.56" x2="126.66" y2="418.54"/>
        <line class="cls-2" x1="106.13" y1="397.53" x2="102.11" y2="397.53"/>
        <line class="cls-2" x1="151.2" y1="397.53" x2="147.18" y2="397.53"/>
      </g>
    </g>
  </g>
  <g id="Screen">
    <rect class="cls-3" x="269.85" y="302.18" width="16.75" height="5.7" rx="1.44" ry="1.44"/>
    <rect class="cls-3" x="305.51" y="302.18" width="16.75" height="5.7" rx="1.44" ry="1.44"/>
    <rect class="cls-3" x="280.88" y="303.43" width="27.95" height="5.7" rx="1.86" ry="1.86"/>
    <path class="cls-4" d="M818.97,317.46c-7.46,0-13.52-6.05-13.52-13.51H198.54c-.08,7.38-6.05,13.33-13.44,13.38v355.05h633.87v-354.92s0,0,0,0Z"/>
    <rect class="cls-6" x="203.75" y="316.95" width="596.51" height="343.82" rx="13.22" ry="13.22"/>
    <rect class="cls-3" x="247.65" y="345.13" width="508.78" height="287.09"/>
  </g>
</svg>