<svg xmlns="http://www.w3.org/2000/svg" viewBox="0 0 1000 1000"><defs><style>.cls-2{fill:none;stroke:#262c34;stroke-miterlimit:10}.cls-3{fill:#20252d}.cls-6{fill:#1c2129}</style></defs><g id="Joycons"><path d="M842.7 304.3v-2.78c0-.78.63-1.41 1.41-1.41 4.57.04 18.98.15 24.54.15h.26c20.43 1.26 32.98 7.95 42.91 15.61 12.19 9.4 23.57 23.27 26.39 31.86.3.92-.38 1.86-1.35 1.86h-4.54l-88.85-44.04a1.41 1.41 0 0 1-.78-1.26Z" class="cls-6"/><path d="M822.6 303.95h39.18c44.96 0 81.46 36.5 81.46 81.46V593.7c0 43.42-35.25 78.68-78.68 78.68H822.6c-2 0-3.61-1.62-3.61-3.61v-361.2c0-2 1.62-3.61 3.61-3.61Z" style="fill:#e15a56"/><circle cx="877.67" cy="423.9" r="13.97" class="cls-6"/><path d="M856.28 582.07c-7.13 0-12.93-5.8-12.93-12.93s5.8-12.93 12.93-12.93 12.93 5.8 12.93 12.93-5.8 12.93-12.93 12.93" class="cls-6"/><path d="M856.28 557.71c6.31 0 11.43 5.12 11.43 11.43s-5.12 11.43-11.43 11.43-11.43-5.12-11.43-11.43 5.12-11.43 11.43-11.43m0-3c-7.96 0-14.43 6.47-14.43 14.43s6.47 14.43 14.43 14.43 14.43-6.47 14.43-14.43-6.47-14.43-14.43-14.43" style="fill:#969792"/><circle cx="877.67" cy="369.82" r="13.97" class="cls-6"/><circle cx="848.96" cy="397.77" r="13.97" class="cls-6"/><circle cx="904.79" cy="397.77" r="13.97" class="cls-6"/><path d="M829.79 337.47h19.75v6.08h-19.75z" class="cls-6"/><path d="M836.62 350.39v-19.75h6.08v19.75z" class="cls-6"/><circle cx="876.8" cy="499.91" r="27.87" class="cls-6"/><circle cx="876.8" cy="499.67" r="20.53" class="cls-2"/><path d="M876.8 479.14v-4.01m0 49.57v-4.02m-20.52-21.01h-4.02m49.09 0h-4.02" class="cls-2"/><path d="M161.39 304.3v-2.78c0-.78-.63-1.41-1.41-1.41-4.57.04-18.98.15-24.54.15h-.26c-20.43 1.26-32.98 7.95-42.91 15.61-12.19 9.4-23.57 23.27-26.39 31.86-.3.92.38 1.86 1.35 1.86h4.54l88.85-44.04c.48-.24.78-.73.78-1.26Z" class="cls-6"/><path d="M64.47 303.95h41.96c43.42 0 78.68 35.25 78.68 78.68v208.29c0 44.96-36.5 81.46-81.46 81.46H64.47c-2 0-3.61-1.62-3.61-3.61v-361.2c0-2 1.62-3.61 3.61-3.61Z" style="fill:#28aecb" transform="rotate(-180 122.98 488.165)"/><rect width="22.86" height="22.86" x="136.05" y="557.71" class="cls-6" rx="4.82" ry="4.82"/><circle cx="127.49" cy="526.04" r="13.97" class="cls-6"/><circle cx="127.49" cy="471.96" r="13.97" class="cls-6"/><circle cx="98.78" cy="499.91" r="13.97" class="cls-6"/><circle cx="154.61" cy="499.91" r="13.97" class="cls-6"/><path d="M154.2 337.73h19.75v6.08H154.2z" class="cls-6"/><circle cx="126.66" cy="397.77" r="27.87" class="cls-6"/><circle cx="126.66" cy="397.53" r="20.53" class="cls-2"/><path d="M126.66 377v-4.01m0 49.57v-4.02m-20.53-21.01h-4.02m49.09 0h-4.02" class="cls-2"/></g><g id="Screen"><rect width="16.75" height="5.7" x="269.85" y="302.18" class="cls-3" rx="1.44" ry="1.44"/><rect width="16.75" height="5.7" x="305.51" y="302.18" class="cls-3" rx="1.44" ry="1.44"/><rect width="27.95" height="5.7" x="280.88" y="303.43" class="cls-3" rx="1.86" ry="1.86"/><path d="M818.97 317.46c-7.46 0-13.52-6.05-13.52-13.51H198.54c-.08 7.38-6.05 13.33-13.44 13.38v355.05h633.87z" style="fill:#31363e"/><rect width="596.51" height="343.82" x="203.75" y="316.95" class="cls-6" rx="13.22" ry="13.22"/><path d="M247.65 345.13h508.78v287.09H247.65z" class="cls-3"/></g></svg>