<?xml version="1.0" encoding="UTF-8"?>
<svg id="Joycons" xmlns="http://www.w3.org/2000/svg" viewBox="0 0 1000 1000">
  <defs>
    <style>
      .cls-1 {
        fill: #969792;
      }

      .cls-2 {
        stroke-width: 2.08px;
      }

      .cls-2, .cls-3 {
        fill: none;
        stroke: #262c34;
        stroke-miterlimit: 10;
      }

      .cls-4 {
        fill: #31363e;
      }

      .cls-3 {
        stroke-width: 2.08px;
      }

      .cls-5 {
        fill: #28aecb;
      }

      .cls-6 {
        fill: #1c2129;
      }

      .cls-7 {
        fill: #e15a56;
      }
    </style>
  </defs>
  <g>
    <g>
      <path class="cls-6" d="M313.96,122.18v-5.77c0-1.62-1.31-2.94-2.93-2.92-9.49.08-39.42.31-50.97.32-.18,0-.35,0-.53.02-42.42,2.62-68.49,16.51-89.11,32.41-25.32,19.52-48.94,48.33-54.81,66.16-.63,1.9.79,3.86,2.79,3.86,8.42,0,10.15,0,9.43,0l184.5-91.46c1-.49,1.63-1.51,1.63-2.62Z"/>
      <path class="cls-5" d="M112.71,121.44h87.14c90.17,0,163.38,73.21,163.38,163.38v432.53c0,93.36-75.8,169.16-169.16,169.16h-81.35c-4.14,0-7.51-3.36-7.51-7.51V128.95c0-4.14,3.36-7.51,7.51-7.51Z" transform="translate(468.43 1007.95) rotate(-180)"/>
      <rect class="cls-6" x="261.34" y="648.39" width="47.47" height="47.47" rx="10.01" ry="10.01"/>
      <circle class="cls-6" cx="243.58" cy="582.62" r="29.02"/>
      <circle class="cls-6" cx="243.58" cy="470.33" r="29.02"/>
      <circle class="cls-6" cx="183.97" cy="528.37" r="29.02"/>
      <circle class="cls-6" cx="299.89" cy="528.37" r="29.02"/>
      <rect class="cls-6" x="299.03" y="191.59" width="41.01" height="12.62"/>
      <circle class="cls-6" cx="241.85" cy="316.27" r="57.88"/>
      <g>
        <circle class="cls-3" cx="241.85" cy="315.77" r="42.62"/>
        <line class="cls-3" x1="241.85" y1="273.15" x2="241.85" y2="264.81"/>
        <line class="cls-3" x1="241.85" y1="367.74" x2="241.85" y2="359.4"/>
        <line class="cls-3" x1="199.22" y1="315.77" x2="190.88" y2="315.77"/>
        <line class="cls-3" x1="292.81" y1="315.77" x2="284.47" y2="315.77"/>
      </g>
    </g>
    <rect class="cls-6" x="437.38" y="271.47" width="35.54" height="107.54" rx="5.98" ry="5.98" transform="translate(910.3 650.48) rotate(-180)"/>
    <rect class="cls-6" x="437.38" y="574.35" width="35.54" height="107.54" rx="5.88" ry="5.88" transform="translate(910.3 1256.25) rotate(-180)"/>
    <path class="cls-4" d="M383.97,854.42c-1.29-1.59-3.34-6.68-10.71-7.9-9.11-1.67-7.55-3.12-9.42-8.13-.2-.37-.41-.65-.61-.86V121.44h0c55.16,0,99.88,44.72,99.88,99.88v50.15c-11.39,43.8-9.84,80.79,0,107.54v195.34c-10.02,35.49-9.59,70.96,0,107.54v94.14c0,45.62-32.56,84.72-75.22,94.61-1.3.3-2.53-.73-2.43-2.06.32-4.16.12-11.38-1.49-14.17Z"/>
    <rect class="cls-6" x="392.66" y="191.06" width="41.01" height="12.62" transform="translate(826.33 394.74) rotate(-180)"/>
  </g>
  <path class="cls-6" d="M686.04,122.18v-5.77c0-1.62,1.31-2.94,2.93-2.92,9.49.08,39.42.31,50.97.32.18,0,.35,0,.53.02,42.42,2.62,68.49,16.51,89.11,32.41,25.32,19.52,48.94,48.33,54.81,66.16.63,1.9-.79,3.86-2.79,3.86-8.42,0-10.15,0-9.43,0l-184.5-91.46c-1-.49-1.63-1.51-1.63-2.62Z"/>
  <path class="cls-7" d="M644.28,121.44h81.35c93.36,0,169.16,75.8,169.16,169.16v432.53c0,90.17-73.21,163.38-163.38,163.38h-87.14c-4.14,0-7.51-3.36-7.51-7.51V128.95c0-4.14,3.36-7.51,7.51-7.51Z"/>
  <rect class="cls-6" x="527.08" y="271.47" width="35.54" height="107.54" rx="5.98" ry="5.98"/>
  <rect class="cls-6" x="527.08" y="574.35" width="35.54" height="107.54" rx="5.88" ry="5.88"/>
  <circle class="cls-6" cx="758.65" cy="370.53" r="29.02"/>
  <g>
    <path class="cls-6" d="M714.23,698.98c-14.81,0-26.85-12.04-26.85-26.85s12.05-26.85,26.85-26.85,26.85,12.04,26.85,26.85-12.04,26.85-26.85,26.85Z"/>
    <path class="cls-1" d="M714.23,648.39c13.11,0,23.74,10.63,23.74,23.74s-10.63,23.74-23.74,23.74-23.74-10.63-23.74-23.74,10.63-23.74,23.74-23.74M714.23,642.16c-16.52,0-29.97,13.44-29.97,29.97s13.44,29.97,29.97,29.97,29.97-13.44,29.97-29.97-13.44-29.97-29.97-29.97h0Z"/>
  </g>
  <circle class="cls-6" cx="758.65" cy="258.24" r="29.02"/>
  <circle class="cls-6" cx="699.04" cy="316.27" r="29.02"/>
  <circle class="cls-6" cx="814.95" cy="316.27" r="29.02"/>
  <rect class="cls-6" x="659.23" y="191.06" width="41.01" height="12.62"/>
  <rect class="cls-6" x="659.23" y="191.06" width="41.01" height="12.62" transform="translate(482.36 877.1) rotate(-90)"/>
  <circle class="cls-6" cx="756.85" cy="528.37" r="57.88"/>
  <g>
    <circle class="cls-2" cx="756.85" cy="527.87" r="42.62"/>
    <line class="cls-2" x1="756.85" y1="485.25" x2="756.85" y2="476.91"/>
    <line class="cls-2" x1="756.85" y1="579.84" x2="756.85" y2="571.5"/>
    <line class="cls-2" x1="714.23" y1="527.87" x2="705.88" y2="527.87"/>
    <line class="cls-2" x1="807.81" y1="527.87" x2="799.47" y2="527.87"/>
  </g>
  <path class="cls-4" d="M616.04,854.42c1.29-1.59,3.34-6.68,10.71-7.9,9.11-1.67,7.55-3.12,9.42-8.13.2-.37.41-.65.61-.86V121.44h0c-55.16,0-99.88,44.72-99.88,99.88v50.15c11.39,43.8,9.84,80.79,0,107.54v195.34c10.02,35.49,9.59,70.96,0,107.54v94.14c0,45.62,32.56,84.72,75.22,94.61,1.3.3,2.53-.73,2.43-2.06-.32-4.16-.12-11.38,1.49-14.17Z"/>
  <rect class="cls-6" x="566.34" y="191.06" width="41.01" height="12.62"/>
  <rect class="cls-6" x="566.34" y="191.06" width="41.01" height="12.62" transform="translate(389.47 784.21) rotate(-90)"/>
  <path class="cls-4" d="M613.55,788.61c-3.68-.21-7.34-.55-11-.92-1.29.13-2.58.23-3.86.29-4.67.21-9.57-.52-14.37-1.93-.93-.05-1.85-.11-2.78-.15-13.09-.52-26.3-1.37-39.14-4.07-1.78-.37-3.53-.83-5.26-1.35,3.48,52,46.76,93.11,99.65,93.11h0v-84.79c-7.73.31-15.48.25-23.23-.2Z"/>
  <path class="cls-4" d="M386.45,788.61c3.68-.21,7.34-.55,11-.92,1.29.13,2.58.23,3.86.29,4.67.21,9.57-.52,14.37-1.93.93-.05,1.85-.11,2.78-.15,13.09-.52,26.3-1.37,39.14-4.07,1.78-.37,3.53-.83,5.26-1.35-3.48,52-46.76,93.11-99.65,93.11h0v-84.79c7.73.31,15.48.25,23.23-.2Z"/>
</svg>