<svg xmlns="http://www.w3.org/2000/svg" id="Joycons" viewBox="0 0 1000 1000"><defs><style>.cls-2{stroke-width:2.56px}.cls-2,.cls-3{fill:none;stroke:#262c34;stroke-miterlimit:10}.cls-4{fill:#31363e}.cls-3{stroke-width:2.56px}.cls-6{fill:#1c2129}</style></defs><path d="M270.3 33.5v-7.12c0-2.01-1.62-3.63-3.62-3.61-11.72.1-48.67.39-62.93.39-.22 0-.44 0-.66.02-52.38 3.23-84.57 20.39-110.02 40.01C61.8 87.3 32.64 122.86 25.4 144.88c-.77 2.35.97 4.77 3.45 4.77H40.5L268.31 36.73a3.61 3.61 0 0 0 2.01-3.23Z" class="cls-6"/><path d="M21.81 32.59H129.4c111.33 0 201.72 90.39 201.72 201.72v534.05c0 115.28-93.59 208.87-208.87 208.87H21.81a9.27 9.27 0 0 1-9.27-9.27V41.86a9.27 9.27 0 0 1 9.27-9.27" style="fill:#28aecb" transform="rotate(-180 171.83 504.91)"/><rect width="58.61" height="58.61" x="205.32" y="683.22" class="cls-6" rx="12.37" ry="12.37"/><circle cx="183.4" cy="602.02" r="35.83" class="cls-6"/><circle cx="183.4" cy="463.37" r="35.83" class="cls-6"/><circle cx="109.79" cy="535.03" r="35.83" class="cls-6"/><circle cx="252.91" cy="535.03" r="35.83" class="cls-6"/><path d="M251.86 119.2h50.63v15.58h-50.63z" class="cls-6"/><circle cx="181.25" cy="273.15" r="71.47" class="cls-6"/><circle cx="181.25" cy="272.53" r="52.63" class="cls-2"/><path d="M181.25 219.9v-10.3m0 127.1v-10.3m-52.62-53.87h-10.3m125.85 0h-10.3" class="cls-2"/><rect width="43.89" height="132.79" x="422.68" y="217.83" class="cls-6" rx="7.38" ry="7.38" transform="rotate(-180 444.625 284.22)"/><rect width="43.89" height="132.79" x="422.68" y="591.81" class="cls-6" rx="7.26" ry="7.26" transform="rotate(-180 444.625 658.2)"/><path d="M356.73 937.61c-1.59-1.97-4.13-8.25-13.22-9.75-11.25-2.06-9.32-3.86-11.63-10.03-.25-.46-.5-.8-.76-1.07V32.59c68.11 0 123.32 55.21 123.32 123.32v61.92c-14.06 54.09-12.14 99.75 0 132.79v241.19c-12.38 43.82-11.84 87.61 0 132.79v116.24c0 56.33-40.2 104.6-92.88 116.82-1.61.37-3.13-.9-3-2.55.4-5.14.15-14.05-1.84-17.49Z" class="cls-4"/><path d="M418.1 134.13h-50.63v-15.58h50.63zM729.7 33.5v-7.12c0-2.01 1.62-3.63 3.62-3.61 11.72.1 48.67.39 62.93.39.22 0 .44 0 .66.02 52.38 3.23 84.57 20.39 110.02 40.01 31.27 24.11 60.43 59.67 67.67 81.69.77 2.35-.97 4.77-3.45 4.77H959.5L731.69 36.73a3.61 3.61 0 0 1-2.01-3.23Z" class="cls-6"/><path d="M678.15 32.59h100.44c115.28 0 208.87 93.59 208.87 208.87v534.05c0 111.33-90.39 201.72-201.72 201.72H678.15a9.27 9.27 0 0 1-9.27-9.27V41.86a9.27 9.27 0 0 1 9.27-9.27" style="fill:#e15a56"/><rect width="43.89" height="132.79" x="533.44" y="217.83" class="cls-6" rx="7.38" ry="7.38"/><rect width="43.89" height="132.79" x="533.44" y="591.81" class="cls-6" rx="7.26" ry="7.26"/><circle cx="819.36" cy="340.14" r="35.83" class="cls-6"/><path d="M764.51 745.68c-18.28 0-33.15-14.87-33.15-33.15s14.87-33.15 33.15-33.15 33.15 14.87 33.15 33.15-14.87 33.15-33.15 33.15" class="cls-6"/><path d="M764.51 683.22c16.19 0 29.31 13.12 29.31 29.31s-13.12 29.31-29.31 29.31-29.31-13.12-29.31-29.31 13.12-29.31 29.31-29.31m0-7.69c-20.4 0-37 16.6-37 37s16.6 37 37 37 37-16.6 37-37-16.6-37-37-37" style="fill:#969792"/><circle cx="819.36" cy="201.49" r="35.83" class="cls-6"/><circle cx="745.75" cy="273.15" r="35.83" class="cls-6"/><circle cx="888.88" cy="273.15" r="35.83" class="cls-6"/><path d="M696.6 118.55h50.63v15.58H696.6z" class="cls-6"/><path d="M714.13 151.65v-50.63h15.58v50.63z" class="cls-6"/><circle cx="817.14" cy="535.03" r="71.47" class="cls-6"/><circle cx="817.14" cy="534.41" r="52.63" class="cls-3"/><path d="M817.14 481.79v-10.3m0 127.09v-10.3m-52.63-53.87h-10.3m125.86 0h-10.31" class="cls-3"/><path d="M643.27 937.61c1.59-1.97 4.13-8.25 13.22-9.75 11.25-2.06 9.32-3.86 11.63-10.03.25-.46.5-.8.76-1.07V32.59c-68.11 0-123.32 55.21-123.32 123.32v61.92c14.06 54.09 12.14 99.75 0 132.79v241.19c12.38 43.82 11.84 87.61 0 132.79v116.24c0 56.33 40.2 104.6 92.88 116.82 1.61.37 3.13-.9 3-2.55-.4-5.14-.15-14.05 1.84-17.49Z" class="cls-4"/><path d="M581.91 118.55h50.63v15.58h-50.63z" class="cls-6"/><path d="M599.43 151.65v-50.63h15.58v50.63z" class="cls-6"/><path d="M640.2 856.35c-4.54-.26-9.07-.68-13.58-1.13-1.59.16-3.18.28-4.76.35-5.77.26-11.82-.64-17.74-2.38-1.14-.07-2.29-.14-3.43-.18-16.16-.64-32.47-1.69-48.33-5.03-2.19-.46-4.36-1.02-6.49-1.66 4.3 64.21 57.74 114.97 123.04 114.97V856.6c-9.55.39-19.12.31-28.68-.25Zm-280.4 0c4.54-.26 9.07-.68 13.58-1.13 1.59.16 3.18.28 4.76.35 5.77.26 11.82-.64 17.74-2.38 1.14-.07 2.29-.14 3.43-.18 16.16-.64 32.47-1.69 48.33-5.03 2.19-.46 4.36-1.02 6.49-1.66-4.3 64.21-57.74 114.97-123.04 114.97V856.6c9.55.39 19.12.31 28.68-.25Z" class="cls-4"/></svg>