<?xml version="1.0" encoding="UTF-8"?>
<svg xmlns="http://www.w3.org/2000/svg" viewBox="0 0 1000 1000">
  <defs>
    <style>
      .cls-1 {
        fill: none;
        stroke: #262c34;
        stroke-miterlimit: 10;
      }

      .cls-2 {
        fill: #20252d;
      }

      .cls-3 {
        fill: #31363e;
      }

      .cls-4 {
        fill: #479fb9;
      }

      .cls-5 {
        fill: #1c2129;
      }

      .cls-6 {
        fill: #c46e69;
      }
    </style>
  </defs>
  <g id="Layer_1" data-name="Layer 1">
    <g id="Joycons">
      <g>
        <path class="cls-5" d="M63.54,400.8h-3.53s3.65-41.01,26.09-62.09,50.7-26.54,75.87-26.77v15.84l-98.43,73.02Z"/>
        <rect class="cls-4" x="170.48" y="339.85" width="10.03" height="332.2" rx="5.01" ry="5.01"/>
        <path class="cls-3" d="M62.59,315.69h23.86c49.14,0,89.04,39.9,89.04,89.04v193.75c0,51.84-42.09,93.94-93.94,93.94h-18.96c-.55,0-.99-.44-.99-.99v-374.74c0-.55.44-.99.99-.99Z" transform="translate(237.09 1008.1) rotate(-180)"/>
        <rect class="cls-5" x="143.25" y="352.34" width="19.75" height="6.08"/>
        <circle class="cls-4" cx="119.78" cy="410.62" r="32.2"/>
        <circle class="cls-5" cx="119.78" cy="410.62" r="27.87"/>
        <g>
          <circle class="cls-1" cx="119.78" cy="410.38" r="20.53"/>
          <line class="cls-1" x1="119.78" y1="389.86" x2="119.78" y2="385.84"/>
          <line class="cls-1" x1="119.78" y1="435.41" x2="119.78" y2="431.39"/>
          <line class="cls-1" x1="99.25" y1="410.38" x2="95.24" y2="410.38"/>
          <line class="cls-1" x1="144.32" y1="410.38" x2="140.31" y2="410.38"/>
        </g>
        <rect class="cls-5" x="132.92" y="564.54" width="20.51" height="20.51"/>
        <circle class="cls-5" cx="119.78" cy="533.36" r="13.97"/>
        <circle class="cls-5" cx="119.78" cy="479.29" r="13.97"/>
        <circle class="cls-5" cx="91.07" cy="507.24" r="13.97"/>
        <circle class="cls-5" cx="146.89" cy="507.24" r="13.97"/>
      </g>
      <g>
        <path class="cls-5" d="M950.65,400.8h3.53s-3.65-41.01-26.09-62.09c-22.44-21.08-50.7-26.54-75.87-26.77v15.84s98.43,73.02,98.43,73.02Z"/>
        <rect class="cls-6" x="832.83" y="339.85" width="10.03" height="332.2" rx="5.01" ry="5.01"/>
        <path class="cls-3" d="M839.83,315.69h18.96c51.84,0,93.94,42.09,93.94,93.94v193.75c0,49.14-39.9,89.04-89.04,89.04h-23.86c-.55,0-.99-.44-.99-.99v-374.74c0-.55.44-.99.99-.99Z"/>
        <rect class="cls-5" x="849.35" y="352.34" width="19.75" height="6.08"/>
        <rect class="cls-5" x="849.35" y="352.34" width="19.75" height="6.08" transform="translate(503.85 1214.6) rotate(-90)"/>
        <circle class="cls-6" cx="893.68" cy="506.56" r="32.2"/>
        <circle class="cls-5" cx="893.68" cy="506.56" r="27.87"/>
        <g>
          <circle class="cls-1" cx="893.68" cy="506.32" r="20.53"/>
          <line class="cls-1" x1="893.68" y1="485.79" x2="893.68" y2="481.78"/>
          <line class="cls-1" x1="893.68" y1="531.34" x2="893.68" y2="527.33"/>
          <line class="cls-1" x1="873.15" y1="506.32" x2="869.13" y2="506.32"/>
          <line class="cls-1" x1="918.22" y1="506.32" x2="914.2" y2="506.32"/>
        </g>
        <rect class="cls-5" x="859.44" y="603.27" width="20.51" height="20.51"/>
        <circle class="cls-5" cx="869.13" cy="574.6" r="13.22"/>
        <circle class="cls-5" cx="894.47" cy="437.42" r="13.97"/>
        <circle class="cls-5" cx="894.47" cy="383.34" r="13.97"/>
        <circle class="cls-5" cx="865.76" cy="411.29" r="13.97"/>
        <circle class="cls-5" cx="921.59" cy="411.29" r="13.97"/>
      </g>
    </g>
  </g>
  <g id="Screen">
    <g>
      <rect class="cls-2" x="261.21" y="313.11" width="21.42" height="5.16" rx="1.95" ry="1.95"/>
      <rect class="cls-2" x="289.77" y="313.11" width="21.42" height="5.16" rx="1.95" ry="1.95"/>
    </g>
    <rect class="cls-3" x="177.59" y="315.55" width="659.39" height="376.86" rx="4.96" ry="4.96"/>
    <rect class="cls-5" x="185.14" y="327.78" width="642.84" height="353.62" rx="1.06" ry="1.06"/>
    <rect class="cls-2" x="219.82" y="342.13" width="573.57" height="322.94"/>
  </g>
</svg>