<?xml version="1.0" encoding="UTF-8"?>
<svg id="Layer_1" data-name="Layer 1" xmlns="http://www.w3.org/2000/svg" viewBox="0 0 1000 1000">
  <defs>
    <style>
      .cls-1 {
        stroke-width: 2.03px;
      }

      .cls-1, .cls-2 {
        fill: none;
        stroke: #262c34;
        stroke-miterlimit: 10;
      }

      .cls-3 {
        fill: #7cc355;
      }

      .cls-4 {
        fill: #7c828a;
      }

      .cls-5 {
        fill: #31363e;
      }

      .cls-6 {
        fill: #3c8191;
      }

      .cls-7 {
        fill: #479fb9;
      }

      .cls-2 {
        stroke-width: 2.03px;
      }

      .cls-8 {
        fill: #aa5a58;
      }

      .cls-9 {
        fill: #1c2129;
      }

      .cls-10 {
        fill: #c46e69;
      }
    </style>
  </defs>
  <g id="Joycons">
    <g>
      <g>
        <rect class="cls-9" x="536.08" y="805.87" width="11.91" height="74.54"/>
        <rect class="cls-9" x="536.08" y="123.53" width="11.91" height="92.29"/>
        <path class="cls-9" d="M809.23,294.03h7.18s-7.41-83.33-53-126.15c-45.6-42.82-103-53.93-154.15-54.39v32.18s199.98,148.35,199.98,148.35Z"/>
        <path class="cls-5" d="M584.08,121.12h38.52c105.33,0,190.85,85.52,190.85,190.85v393.64c0,99.84-81.06,180.9-180.9,180.9h-48.47c-1.11,0-2.01-.9-2.01-2.01V123.13c0-1.11.9-2.01,2.01-2.01Z"/>
        <g>
          <rect class="cls-9" x="603.42" y="195.58" width="40.12" height="12.34"/>
          <rect class="cls-9" x="603.42" y="195.58" width="40.12" height="12.34" transform="translate(421.73 825.22) rotate(-90)"/>
        </g>
        <circle class="cls-10" cx="693.47" cy="508.91" r="65.43"/>
        <circle class="cls-9" cx="693.47" cy="508.91" r="56.63"/>
        <g>
          <circle class="cls-1" cx="693.47" cy="508.42" r="41.7"/>
          <line class="cls-1" x1="693.47" y1="466.72" x2="693.47" y2="458.56"/>
          <line class="cls-1" x1="693.47" y1="559.27" x2="693.47" y2="551.1"/>
          <line class="cls-1" x1="651.77" y1="508.42" x2="643.61" y2="508.42"/>
          <line class="cls-1" x1="743.34" y1="508.42" x2="735.17" y2="508.42"/>
        </g>
        <rect class="cls-9" x="623.92" y="705.41" width="41.66" height="41.66"/>
        <circle class="cls-9" cx="643.61" cy="647.16" r="26.85"/>
        <circle class="cls-9" cx="695.09" cy="368.44" r="28.39"/>
        <circle class="cls-9" cx="695.09" cy="258.57" r="28.39"/>
        <circle class="cls-9" cx="636.76" cy="315.36" r="28.39"/>
        <circle class="cls-9" cx="750.18" cy="315.36" r="28.39"/>
        <rect class="cls-8" x="544.66" y="632.38" width="13.06" height="128.07" rx="2.82" ry="2.82"/>
        <rect class="cls-8" x="544.66" y="245.57" width="13.06" height="131.35" rx="2.85" ry="2.85"/>
        <path class="cls-10" d="M572.45,116.03h-25.87c-8.2,0-8.2,7.84-8.2,7.84v98.74c3.65,15.11,6.67,17.38,11.23,25.96v127.5c-3.24,5.89-7,19.98-7,19.98v216.18c0,7.17,7,20.11,7,20.11v121.63s-11.23,18.39-11.23,42.4v82.3s0,7.84,8.2,7.84h21.12c7.94,0,14.37-6.43,14.37-14.37V125.66c0-5.32-4.31-9.62-9.62-9.62Z"/>
        <g>
          <rect class="cls-8" x="544.92" y="203.92" width="30.38" height="9.35"/>
          <rect class="cls-8" x="544.92" y="203.92" width="30.38" height="9.35" transform="translate(351.52 768.71) rotate(-90)"/>
        </g>
        <rect class="cls-3" x="556.48" y="460.17" width="10.07" height="10.07"/>
        <rect class="cls-4" x="556.48" y="486.3" width="10.07" height="10.07"/>
        <rect class="cls-4" x="556.48" y="512.42" width="10.07" height="10.07"/>
        <rect class="cls-4" x="556.48" y="538.55" width="10.07" height="10.07"/>
      </g>
      <g>
        <path class="cls-9" d="M190.77,294.03h-7.18s7.41-83.33,53-126.15c45.6-42.82,103-53.93,154.15-54.39v32.18l-199.98,148.35Z"/>
        <path class="cls-5" d="M188.84,121.12h48.47c99.84,0,180.9,81.06,180.9,180.9v393.64c0,105.33-85.52,190.85-190.85,190.85h-38.52c-1.11,0-2.01-.9-2.01-2.01V123.13c0-1.11.9-2.01,2.01-2.01Z" transform="translate(605.04 1007.62) rotate(-180)"/>
        <rect class="cls-9" x="352.71" y="195.58" width="40.12" height="12.34"/>
        <circle class="cls-7" cx="305.03" cy="314" r="65.43"/>
        <circle class="cls-9" cx="305.03" cy="314" r="56.63"/>
        <g>
          <circle class="cls-2" cx="305.03" cy="313.5" r="41.7"/>
          <line class="cls-2" x1="305.03" y1="271.8" x2="305.03" y2="263.64"/>
          <line class="cls-2" x1="305.03" y1="364.35" x2="305.03" y2="356.19"/>
          <line class="cls-2" x1="263.33" y1="313.5" x2="255.16" y2="313.5"/>
          <line class="cls-2" x1="354.89" y1="313.5" x2="346.73" y2="313.5"/>
        </g>
        <rect class="cls-9" x="331.72" y="626.71" width="41.66" height="41.66"/>
        <circle class="cls-9" cx="305.03" cy="563.37" r="28.39"/>
        <circle class="cls-9" cx="305.03" cy="453.5" r="28.39"/>
        <circle class="cls-9" cx="246.7" cy="510.29" r="28.39"/>
        <circle class="cls-9" cx="360.12" cy="510.29" r="28.39"/>
        <rect class="cls-9" x="452.17" y="805.87" width="11.91" height="74.54" transform="translate(916.25 1686.27) rotate(-180)"/>
        <rect class="cls-9" x="452.17" y="123.53" width="11.91" height="92.29" transform="translate(916.25 339.34) rotate(-180)"/>
        <rect class="cls-6" x="442.44" y="632.38" width="13.06" height="128.07" rx="2.82" ry="2.82" transform="translate(897.94 1392.82) rotate(-180)"/>
        <rect class="cls-6" x="442.44" y="245.57" width="13.06" height="131.35" rx="2.85" ry="2.85" transform="translate(897.94 622.5) rotate(-180)"/>
        <path class="cls-7" d="M427.72,116.03h10.16s12.68,0,12.68,0h3.03c8.2,0,8.2,7.84,8.2,7.84,0,0,0,53.28,0,82.3,0,5.57,0,8.5,0,16.44-3.65,15.11-6.67,17.38-11.23,25.96,0,1.22,0,55.23,0,127.5,3.24,5.89,7,19.98,7,19.98,0,0,0,209.01,0,216.18,0,7.17-7,20.11-7,20.11,0,70.13,0,121.63,0,121.63,0,0,11.23,18.39,11.23,42.4,0,29.03,0,82.3,0,82.3,0,0,0,7.84-8.2,7.84h-3.03s-12.68,0-12.68,0h-5.41c-7.94,0-14.37-6.43-14.37-14.37V125.66c0-5.32,4.31-9.62,9.62-9.62Z"/>
        <rect class="cls-6" x="424.86" y="203.92" width="30.38" height="9.35" transform="translate(880.1 417.19) rotate(-180)"/>
        <rect class="cls-3" x="433.6" y="460.17" width="10.07" height="10.07" transform="translate(877.28 930.42) rotate(-180)"/>
        <rect class="cls-4" x="433.6" y="486.3" width="10.07" height="10.07" transform="translate(877.28 982.67) rotate(-180)"/>
        <rect class="cls-4" x="433.6" y="512.42" width="10.07" height="10.07" transform="translate(877.28 1034.92) rotate(-180)"/>
        <rect class="cls-4" x="433.6" y="538.55" width="10.07" height="10.07" transform="translate(877.28 1087.17) rotate(-180)"/>
      </g>
    </g>
  </g>
</svg>