<?xml version="1.0" encoding="UTF-8"?>
<svg id="Layer_1" data-name="Layer 1" xmlns="http://www.w3.org/2000/svg" viewBox="0 0 1000 1000">
  <defs>
    <style>
      .cls-1 {
        stroke-width: 2.57px;
      }

      .cls-1, .cls-2 {
        fill: none;
        stroke: #262c34;
        stroke-miterlimit: 10;
      }

      .cls-3 {
        fill: #7cc355;
      }

      .cls-4 {
        fill: #7c828a;
      }

      .cls-2 {
        stroke-width: 2.57px;
      }

      .cls-5 {
        fill: #31363e;
      }

      .cls-6 {
        fill: #28aecb;
      }

      .cls-7 {
        fill: #3c8191;
      }

      .cls-8 {
        fill: #1c2129;
      }

      .cls-9 {
        fill: #e15a56;
      }

      .cls-10 {
        fill: #b84242;
      }
    </style>
  </defs>
  <g id="Joycons">
    <g>
      <rect class="cls-8" x="545.58" y="886.41" width="15.05" height="94.16"/>
      <rect class="cls-8" x="545.58" y="24.39" width="15.05" height="116.6"/>
      <path class="cls-8" d="M890.65,239.8h9.06s-9.36-105.27-66.96-159.36c-57.6-54.1-130.12-68.13-194.74-68.72,0,27.78,0,40.66,0,40.66l252.64,187.42Z"/>
      <path class="cls-5" d="M606.22,21.35h48.67c133.07,0,241.1,108.03,241.1,241.1v497.3c0,126.13-102.4,228.53-228.53,228.53h-61.24c-1.4,0-2.54-1.14-2.54-2.54V23.9c0-1.4,1.14-2.54,2.54-2.54Z"/>
      <g>
        <rect class="cls-8" x="630.65" y="115.42" width="50.68" height="15.6"/>
        <rect class="cls-8" x="630.65" y="115.42" width="50.68" height="15.6" transform="translate(532.77 779.2) rotate(-90)"/>
      </g>
      <circle class="cls-9" cx="744.41" cy="511.26" r="82.65"/>
      <circle class="cls-8" cx="744.41" cy="511.26" r="71.54"/>
      <g>
        <circle class="cls-2" cx="744.41" cy="510.64" r="52.68"/>
        <line class="cls-2" x1="744.41" y1="457.96" x2="744.41" y2="447.64"/>
        <line class="cls-2" x1="744.41" y1="574.87" x2="744.41" y2="564.56"/>
        <line class="cls-2" x1="691.73" y1="510.64" x2="681.42" y2="510.64"/>
        <line class="cls-2" x1="807.41" y1="510.64" x2="797.1" y2="510.64"/>
      </g>
      <rect class="cls-8" x="656.55" y="759.49" width="52.63" height="52.63"/>
      <circle class="cls-8" cx="681.42" cy="685.91" r="33.92"/>
      <circle class="cls-8" cx="746.46" cy="333.8" r="35.87"/>
      <circle class="cls-8" cx="746.46" cy="195" r="35.87"/>
      <circle class="cls-8" cx="672.77" cy="266.74" r="35.87"/>
      <circle class="cls-8" cx="816.05" cy="266.74" r="35.87"/>
      <rect class="cls-10" x="556.42" y="667.24" width="16.5" height="161.79" rx="3.56" ry="3.56"/>
      <rect class="cls-10" x="556.42" y="178.58" width="16.5" height="165.94" rx="3.6" ry="3.6"/>
      <path class="cls-9" d="M591.52,14.93h-32.68c-10.35,0-10.35,9.9-10.35,9.9v124.74c4.61,19.09,8.43,21.96,14.18,32.8v161.08c-4.1,7.44-8.84,25.24-8.84,25.24v273.1c0,9.06,8.84,25.4,8.84,25.4v153.66s-14.18,23.23-14.18,53.56v103.98s0,9.9,10.35,9.9h26.68c10.03,0,18.15-8.13,18.15-18.15V27.09c0-6.71-5.44-12.16-12.16-12.16Z"/>
      <g>
        <rect class="cls-10" x="556.75" y="125.96" width="38.38" height="11.81"/>
        <rect class="cls-10" x="556.75" y="125.96" width="38.38" height="11.81" transform="translate(444.07 707.81) rotate(-90)"/>
      </g>
      <rect class="cls-3" x="571.36" y="449.68" width="12.73" height="12.73"/>
      <rect class="cls-4" x="571.36" y="482.69" width="12.73" height="12.73"/>
      <rect class="cls-4" x="571.36" y="515.69" width="12.73" height="12.73"/>
      <rect class="cls-4" x="571.36" y="548.7" width="12.73" height="12.73"/>
      <path class="cls-8" d="M109.35,239.8h-9.06s9.36-105.27,66.96-159.36C224.85,26.34,297.37,12.31,361.99,11.72v40.66L109.35,239.8Z"/>
      <path class="cls-5" d="M106.91,21.35h61.24c126.13,0,228.53,102.4,228.53,228.53v497.3c0,133.07-108.03,241.1-241.1,241.1h-48.67c-1.4,0-2.54-1.14-2.54-2.54V23.9c0-1.4,1.14-2.54,2.54-2.54Z" transform="translate(501.04 1009.63) rotate(-180)"/>
      <rect class="cls-8" x="313.93" y="115.42" width="50.68" height="15.6"/>
      <circle class="cls-6" cx="253.69" cy="265.02" r="82.65"/>
      <circle class="cls-8" cx="253.69" cy="265.02" r="71.54"/>
      <g>
        <circle class="cls-1" cx="253.69" cy="264.4" r="52.68"/>
        <line class="cls-1" x1="253.69" y1="211.72" x2="253.69" y2="201.4"/>
        <line class="cls-1" x1="253.69" y1="328.63" x2="253.69" y2="318.32"/>
        <line class="cls-1" x1="201.01" y1="264.4" x2="190.7" y2="264.4"/>
        <line class="cls-1" x1="316.68" y1="264.4" x2="306.37" y2="264.4"/>
      </g>
      <rect class="cls-8" x="287.41" y="660.08" width="52.63" height="52.63"/>
      <circle class="cls-8" cx="253.69" cy="580.05" r="35.87"/>
      <circle class="cls-8" cx="253.69" cy="441.26" r="35.87"/>
      <circle class="cls-8" cx="180" cy="512.99" r="35.87"/>
      <circle class="cls-8" cx="323.28" cy="512.99" r="35.87"/>
      <rect class="cls-8" x="439.58" y="886.41" width="15.05" height="94.16" transform="translate(894.2 1866.97) rotate(-180)"/>
      <rect class="cls-8" x="439.58" y="24.39" width="15.05" height="116.6" transform="translate(894.2 165.39) rotate(-180)"/>
      <rect class="cls-7" x="427.28" y="667.24" width="16.5" height="161.79" rx="3.56" ry="3.56" transform="translate(871.07 1496.26) rotate(-180)"/>
      <rect class="cls-7" x="427.28" y="178.58" width="16.5" height="165.94" rx="3.6" ry="3.6" transform="translate(871.07 523.1) rotate(-180)"/>
      <path class="cls-6" d="M408.68,14.93h12.83s16.02,0,16.02,0h3.83c10.35,0,10.35,9.9,10.35,9.9,0,0,0,67.3,0,103.98,0,7.03,0,10.73,0,20.76-4.61,19.09-8.43,21.96-14.18,32.8,0,1.54,0,69.77,0,161.08,4.1,7.44,8.84,25.24,8.84,25.24,0,0,0,264.04,0,273.1,0,9.06-8.84,25.4-8.84,25.4,0,88.59,0,153.66,0,153.66,0,0,14.18,23.23,14.18,53.56,0,36.67,0,103.98,0,103.98,0,0,0,9.9-10.35,9.9-1.3,0-2.58,0-3.83,0h-16.02s-6.83,0-6.83,0c-10.03,0-18.15-8.13-18.15-18.15V27.09c0-6.71,5.44-12.16,12.16-12.16Z"/>
      <rect class="cls-7" x="405.07" y="125.96" width="38.38" height="11.81" transform="translate(848.52 263.73) rotate(-180)"/>
      <rect class="cls-3" x="416.12" y="449.68" width="12.73" height="12.73" transform="translate(844.96 912.09) rotate(-180)"/>
      <rect class="cls-4" x="416.12" y="482.69" width="12.73" height="12.73" transform="translate(844.96 978.1) rotate(-180)"/>
      <rect class="cls-4" x="416.12" y="515.69" width="12.73" height="12.73" transform="translate(844.96 1044.11) rotate(-180)"/>
      <rect class="cls-4" x="416.12" y="548.7" width="12.73" height="12.73" transform="translate(844.96 1110.12) rotate(-180)"/>
    </g>
  </g>
</svg>