<svg xmlns="http://www.w3.org/2000/svg" viewBox="0 0 1000 1000"><defs><style>.cls-1{fill:none;stroke:#262c34;stroke-miterlimit:10}.cls-2{fill:#20252d}.cls-3{fill:#31363e}.cls-4{fill:#479fb9}.cls-5{fill:#1c2129}.cls-6{fill:#c46e69}</style></defs><g id="Layer_1" data-name="Layer 1"><g id="Joycons"><path d="M63.54 400.8h-3.53s3.65-41.01 26.09-62.09 50.7-26.54 75.87-26.77v15.84z" class="cls-5"/><rect width="10.03" height="332.2" x="170.48" y="339.85" class="cls-4" rx="5.01" ry="5.01"/><path d="M174.5 692.41h-23.86c-49.14 0-89.04-39.9-89.04-89.04V409.62c0-51.84 42.09-93.94 93.94-93.94h18.96c.55 0 .99.44.99.99v374.74c0 .55-.44.99-.99.99Z" class="cls-3"/><path d="M143.25 352.34H163v6.08h-19.75z" class="cls-5"/><circle cx="119.78" cy="410.62" r="32.2" class="cls-4"/><circle cx="119.78" cy="410.62" r="27.87" class="cls-5"/><circle cx="119.78" cy="410.38" r="20.53" class="cls-1"/><path d="M119.78 389.86v-4.02m0 49.57v-4.02m-20.53-21.01h-4.01m49.08 0h-4.01" class="cls-1"/><path d="M132.92 564.54h20.51v20.51h-20.51z" class="cls-5"/><circle cx="119.78" cy="533.36" r="13.97" class="cls-5"/><circle cx="119.78" cy="479.29" r="13.97" class="cls-5"/><circle cx="91.07" cy="507.24" r="13.97" class="cls-5"/><circle cx="146.89" cy="507.24" r="13.97" class="cls-5"/><path d="M950.65 400.8h3.53s-3.65-41.01-26.09-62.09-50.7-26.54-75.87-26.77v15.84z" class="cls-5"/><rect width="10.03" height="332.2" x="832.83" y="339.85" class="cls-6" rx="5.01" ry="5.01"/><path d="M839.83 315.69h18.96c51.84 0 93.94 42.09 93.94 93.94v193.75c0 49.14-39.9 89.04-89.04 89.04h-23.86c-.55 0-.99-.44-.99-.99V316.69c0-.55.44-.99.99-.99Z" class="cls-3"/><path d="M849.35 352.34h19.75v6.08h-19.75z" class="cls-5"/><path d="M856.19 365.25V345.5h6.08v19.75z" class="cls-5"/><circle cx="893.68" cy="506.56" r="32.2" class="cls-6"/><circle cx="893.68" cy="506.56" r="27.87" class="cls-5"/><circle cx="893.68" cy="506.32" r="20.53" class="cls-1"/><path d="M893.68 485.79v-4.01m0 49.56v-4.01m-20.53-21.01h-4.02m49.09 0h-4.02" class="cls-1"/><path d="M859.44 603.27h20.51v20.51h-20.51z" class="cls-5"/><circle cx="869.13" cy="574.6" r="13.22" class="cls-5"/><circle cx="894.47" cy="437.42" r="13.97" class="cls-5"/><circle cx="894.47" cy="383.34" r="13.97" class="cls-5"/><circle cx="865.76" cy="411.29" r="13.97" class="cls-5"/><circle cx="921.59" cy="411.29" r="13.97" class="cls-5"/></g></g><g id="Screen"><rect width="21.42" height="5.16" x="261.21" y="313.11" class="cls-2" rx="1.95" ry="1.95"/><rect width="21.42" height="5.16" x="289.77" y="313.11" class="cls-2" rx="1.95" ry="1.95"/><rect width="659.39" height="376.86" x="177.59" y="315.55" class="cls-3" rx="4.96" ry="4.96"/><rect width="642.84" height="353.62" x="185.14" y="327.78" class="cls-5" rx="1.06" ry="1.06"/><path d="M219.82 342.13h573.57v322.94H219.82z" class="cls-2"/></g></svg>