<svg xmlns="http://www.w3.org/2000/svg" id="Layer_1" data-name="Layer 1" viewBox="0 0 1000 1000"><defs><style>.cls-1{stroke-width:2.57px}.cls-1,.cls-2{fill:none;stroke:#262c34;stroke-miterlimit:10}.cls-3{fill:#7cc355}.cls-4{fill:#7c828a}.cls-2{stroke-width:2.57px}.cls-5{fill:#31363e}.cls-6{fill:#28aecb}.cls-7{fill:#3c8191}.cls-8{fill:#1c2129}.cls-9{fill:#e15a56}.cls-10{fill:#b84242}</style></defs><g id="Joycons"><path d="M545.58 886.41h15.05v94.16h-15.05zm0-862.02h15.05v116.6h-15.05zM890.65 239.8h9.06s-9.36-105.27-66.96-159.36c-57.6-54.1-130.12-68.13-194.74-68.72v40.66z" class="cls-8"/><path d="M606.22 21.35h48.67c133.07 0 241.1 108.03 241.1 241.1v497.3c0 126.13-102.4 228.53-228.53 228.53h-61.24c-1.4 0-2.54-1.14-2.54-2.54V23.9c0-1.4 1.14-2.54 2.54-2.54Z" class="cls-5"/><path d="M630.65 115.42h50.68v15.6h-50.68z" class="cls-8"/><path d="M648.19 148.55V97.87h15.6v50.68z" class="cls-8"/><circle cx="744.41" cy="511.26" r="82.65" class="cls-9"/><circle cx="744.41" cy="511.26" r="71.54" class="cls-8"/><circle cx="744.41" cy="510.64" r="52.68" class="cls-2"/><path d="M744.41 457.96v-10.32m0 127.23v-10.31m-52.68-53.92h-10.31m125.99 0H797.1" class="cls-2"/><path d="M656.55 759.49h52.63v52.63h-52.63z" class="cls-8"/><circle cx="681.42" cy="685.91" r="33.92" class="cls-8"/><circle cx="746.46" cy="333.8" r="35.87" class="cls-8"/><circle cx="746.46" cy="195" r="35.87" class="cls-8"/><circle cx="672.77" cy="266.74" r="35.87" class="cls-8"/><circle cx="816.05" cy="266.74" r="35.87" class="cls-8"/><rect width="16.5" height="161.79" x="556.42" y="667.24" class="cls-10" rx="3.56" ry="3.56"/><rect width="16.5" height="165.94" x="556.42" y="178.58" class="cls-10" rx="3.6" ry="3.6"/><path d="M591.52 14.93h-32.68c-10.35 0-10.35 9.9-10.35 9.9v124.74c4.61 19.09 8.43 21.96 14.18 32.8v161.08c-4.1 7.44-8.84 25.24-8.84 25.24v273.1c0 9.06 8.84 25.4 8.84 25.4v153.66s-14.18 23.23-14.18 53.56v103.98s0 9.9 10.35 9.9h26.68c10.03 0 18.15-8.13 18.15-18.15V27.09c0-6.71-5.44-12.16-12.16-12.16Z" class="cls-9"/><path d="M556.75 125.96h38.38v11.81h-38.38z" class="cls-10"/><path d="M570.03 151.06v-38.38h11.81v38.38z" class="cls-10"/><path d="M571.36 449.68h12.73v12.73h-12.73z" class="cls-3"/><path d="M571.36 482.69h12.73v12.73h-12.73zm0 33h12.73v12.73h-12.73zm0 33.01h12.73v12.73h-12.73z" class="cls-4"/><path d="M109.35 239.8h-9.06s9.36-105.27 66.96-159.36c57.6-54.1 130.12-68.13 194.74-68.72v40.66z" class="cls-8"/><path d="M394.13 988.28h-61.24c-126.13 0-228.53-102.4-228.53-228.53v-497.3c0-133.07 108.03-241.1 241.1-241.1h48.67c1.4 0 2.54 1.14 2.54 2.54v961.84c0 1.4-1.14 2.54-2.54 2.54Z" class="cls-5"/><path d="M313.93 115.42h50.68v15.6h-50.68z" class="cls-8"/><circle cx="253.69" cy="265.02" r="82.65" class="cls-6"/><circle cx="253.69" cy="265.02" r="71.54" class="cls-8"/><circle cx="253.69" cy="264.4" r="52.68" class="cls-1"/><path d="M253.69 211.72V201.4m0 127.23v-10.31m-52.68-53.92H190.7m125.98 0h-10.31" class="cls-1"/><path d="M287.41 660.08h52.63v52.63h-52.63z" class="cls-8"/><circle cx="253.69" cy="580.05" r="35.87" class="cls-8"/><circle cx="253.69" cy="441.26" r="35.87" class="cls-8"/><circle cx="180" cy="512.99" r="35.87" class="cls-8"/><circle cx="323.28" cy="512.99" r="35.87" class="cls-8"/><path d="M454.62 980.56h-15.05V886.4h15.05zm0-839.56h-15.05V24.4h15.05z" class="cls-8"/><rect width="16.5" height="161.79" x="427.28" y="667.24" class="cls-7" rx="3.56" ry="3.56" transform="rotate(-180 435.535 748.13)"/><rect width="16.5" height="165.94" x="427.28" y="178.58" class="cls-7" rx="3.6" ry="3.6" transform="rotate(-180 435.535 261.55)"/><path d="M408.68 14.93h32.68c10.35 0 10.35 9.9 10.35 9.9v124.74c-4.61 19.09-8.43 21.96-14.18 32.8v161.08c4.1 7.44 8.84 25.24 8.84 25.24v273.1c0 9.06-8.84 25.4-8.84 25.4v153.66s14.18 23.23 14.18 53.56v103.98s0 9.9-10.35 9.9h-26.68c-10.03 0-18.15-8.13-18.15-18.15V27.09c0-6.71 5.44-12.16 12.16-12.16Z" class="cls-6"/><path d="M443.45 137.77h-38.38v-11.81h38.38z" class="cls-7"/><path d="M428.84 462.41h-12.73v-12.73h12.73z" class="cls-3"/><path d="M428.84 495.41h-12.73v-12.73h12.73zm0 33.01h-12.73v-12.73h12.73zm0 33h-12.73v-12.73h12.73z" class="cls-4"/></g></svg>