<?xml version="1.0" encoding="UTF-8"?>
<svg id="Screen" xmlns="http://www.w3.org/2000/svg" viewBox="0 0 1000 1000">
  <defs>
    <style>
      .cls-1 {
        fill: none;
        stroke: #262c34;
        stroke-miterlimit: 10;
        stroke-width: 1.11px;
      }

      .cls-2 {
        fill: #969792;
      }

      .cls-3 {
        fill: #20252d;
      }

      .cls-4 {
        fill: #31363e;
      }

      .cls-5 {
        fill: #28aecb;
      }

      .cls-6 {
        fill: #1c2129;
      }

      .cls-7 {
        fill: #e15a56;
      }
    </style>
  </defs>
  <g>
    <path class="cls-6" d="M877.56,298.34v-3.08c0-.87.7-1.57,1.57-1.56,5.07.04,21.04.17,27.2.17.1,0,.19,0,.29,0,22.64,1.4,36.56,8.81,47.56,17.3,13.52,10.42,26.12,25.8,29.25,35.31.33,1.02-.42,2.06-1.49,2.06-4.49,0-5.42,0-5.03,0l-98.48-48.81c-.53-.26-.87-.81-.87-1.4Z"/>
    <path class="cls-7" d="M855.28,297.95h43.42c49.83,0,90.29,40.46,90.29,90.29v230.86c0,48.13-39.07,87.2-87.2,87.2h-46.51c-2.21,0-4.01-1.8-4.01-4.01v-400.33c0-2.21,1.8-4.01,4.01-4.01Z"/>
    <circle class="cls-6" cx="916.32" cy="430.89" r="15.49"/>
    <g>
      <path class="cls-6" d="M892.61,606.2c-7.9,0-14.33-6.43-14.33-14.33s6.43-14.33,14.33-14.33,14.33,6.43,14.33,14.33-6.43,14.33-14.33,14.33Z"/>
      <path class="cls-2" d="M892.61,579.2c7,0,12.67,5.67,12.67,12.67s-5.67,12.67-12.67,12.67-12.67-5.67-12.67-12.67,5.67-12.67,12.67-12.67M892.61,575.88c-8.82,0-15.99,7.17-15.99,15.99s7.17,15.99,15.99,15.99,15.99-7.17,15.99-15.99-7.17-15.99-15.99-15.99h0Z"/>
    </g>
    <circle class="cls-6" cx="916.32" cy="370.96" r="15.49"/>
    <circle class="cls-6" cx="884.5" cy="401.94" r="15.49"/>
    <circle class="cls-6" cx="946.37" cy="401.94" r="15.49"/>
    <rect class="cls-6" x="863.25" y="335.11" width="21.89" height="6.73"/>
    <rect class="cls-6" x="863.25" y="335.11" width="21.89" height="6.73" transform="translate(535.72 1212.67) rotate(-90)"/>
    <circle class="cls-6" cx="915.36" cy="515.14" r="30.89"/>
    <g>
      <circle class="cls-1" cx="915.36" cy="514.88" r="22.75"/>
      <line class="cls-1" x1="915.36" y1="492.13" x2="915.36" y2="487.67"/>
      <line class="cls-1" x1="915.36" y1="542.61" x2="915.36" y2="538.16"/>
      <line class="cls-1" x1="892.61" y1="514.88" x2="888.16" y2="514.88"/>
      <line class="cls-1" x1="942.56" y1="514.88" x2="938.11" y2="514.88"/>
    </g>
  </g>
  <g>
    <path class="cls-6" d="M122.44,298.34v-3.08c0-.87-.7-1.57-1.57-1.56-5.07.04-21.04.17-27.2.17-.1,0-.19,0-.29,0-22.64,1.4-36.56,8.81-47.56,17.3-13.52,10.42-26.12,25.8-29.25,35.31-.33,1.02.42,2.06,1.49,2.06,4.49,0,5.42,0,5.03,0l98.48-48.81c.53-.26.87-.81.87-1.4Z"/>
    <path class="cls-5" d="M15.02,297.95h46.51c48.13,0,87.2,39.07,87.2,87.2v230.86c0,49.83-40.46,90.29-90.29,90.29H15.02c-2.21,0-4.01-1.8-4.01-4.01v-400.33c0-2.21,1.8-4.01,4.01-4.01Z" transform="translate(159.74 1004.24) rotate(-180)"/>
    <rect class="cls-6" x="94.35" y="579.2" width="25.34" height="25.34" rx="5.35" ry="5.35"/>
    <circle class="cls-6" cx="84.87" cy="544.1" r="15.49"/>
    <circle class="cls-6" cx="84.87" cy="484.17" r="15.49"/>
    <circle class="cls-6" cx="53.05" cy="515.14" r="15.49"/>
    <circle class="cls-6" cx="114.92" cy="515.14" r="15.49"/>
    <rect class="cls-6" x="114.47" y="335.39" width="21.89" height="6.73"/>
    <circle class="cls-6" cx="83.94" cy="401.94" r="30.89"/>
    <g>
      <circle class="cls-1" cx="83.94" cy="401.67" r="22.75"/>
      <line class="cls-1" x1="83.94" y1="378.92" x2="83.94" y2="374.47"/>
      <line class="cls-1" x1="83.94" y1="429.41" x2="83.94" y2="424.95"/>
      <line class="cls-1" x1="61.19" y1="401.67" x2="56.74" y2="401.67"/>
      <line class="cls-1" x1="111.15" y1="401.67" x2="106.69" y2="401.67"/>
    </g>
  </g>
  <rect class="cls-3" x="242.65" y="295.99" width="18.56" height="6.31" rx="1.6" ry="1.6"/>
  <rect class="cls-3" x="282.17" y="295.99" width="18.56" height="6.31" rx="1.6" ry="1.6"/>
  <rect class="cls-3" x="254.88" y="297.38" width="30.98" height="6.31" rx="2.07" ry="2.07"/>
  <path class="cls-4" d="M851.26,312.93c-8.27,0-14.98-6.7-14.98-14.98H163.62c-.08,8.18-6.71,14.78-14.89,14.82v393.52h702.55v-393.37s0,0-.01,0Z"/>
  <rect class="cls-6" x="169.39" y="312.36" width="661.13" height="381.07" rx="14.65" ry="14.65"/>
  <rect class="cls-3" x="218.05" y="343.59" width="563.91" height="318.19"/>
</svg>