<svg xmlns="http://www.w3.org/2000/svg" id="Screen" viewBox="0 0 1000 1000"><defs><style>.cls-1{fill:none;stroke:#262c34;stroke-miterlimit:10;stroke-width:1.11px}.cls-3{fill:#20252d}.cls-6{fill:#1c2129}</style></defs><path d="M877.56 298.34v-3.08c0-.87.7-1.57 1.57-1.56 5.07.04 21.04.17 27.2.17h.29c22.64 1.4 36.56 8.81 47.56 17.3 13.52 10.42 26.12 25.8 29.25 35.31.33 1.02-.42 2.06-1.49 2.06h-5.03l-98.48-48.81c-.53-.26-.87-.81-.87-1.4Z" class="cls-6"/><path d="M855.28 297.95h43.42c49.83 0 90.29 40.46 90.29 90.29V619.1c0 48.13-39.07 87.2-87.2 87.2h-46.51c-2.21 0-4.01-1.8-4.01-4.01V301.96c0-2.21 1.8-4.01 4.01-4.01" style="fill:#e15a56"/><circle cx="916.32" cy="430.89" r="15.49" class="cls-6"/><path d="M892.61 606.2c-7.9 0-14.33-6.43-14.33-14.33s6.43-14.33 14.33-14.33 14.33 6.43 14.33 14.33-6.43 14.33-14.33 14.33" class="cls-6"/><path d="M892.61 579.2c7 0 12.67 5.67 12.67 12.67s-5.67 12.67-12.67 12.67-12.67-5.67-12.67-12.67 5.67-12.67 12.67-12.67m0-3.32c-8.82 0-15.99 7.17-15.99 15.99s7.17 15.99 15.99 15.99 15.99-7.17 15.99-15.99-7.17-15.99-15.99-15.99" style="fill:#969792"/><circle cx="916.32" cy="370.96" r="15.49" class="cls-6"/><circle cx="884.5" cy="401.94" r="15.49" class="cls-6"/><circle cx="946.37" cy="401.94" r="15.49" class="cls-6"/><path d="M863.25 335.11h21.89v6.73h-21.89z" class="cls-6"/><path d="M870.83 349.42v-21.89h6.73v21.89z" class="cls-6"/><circle cx="915.36" cy="515.14" r="30.89" class="cls-6"/><circle cx="915.36" cy="514.88" r="22.75" class="cls-1"/><path d="M915.36 492.13v-4.46m0 54.94v-4.45m-22.75-23.28h-4.45m54.4 0h-4.45" class="cls-1"/><path d="M122.44 298.34v-3.08c0-.87-.7-1.57-1.57-1.56-5.07.04-21.04.17-27.2.17h-.29c-22.64 1.4-36.56 8.81-47.56 17.3-13.52 10.42-26.12 25.8-29.25 35.31-.33 1.02.42 2.06 1.49 2.06h5.03l98.48-48.81c.53-.26.87-.81.87-1.4Z" class="cls-6"/><path d="M15.02 297.95h46.51c48.13 0 87.2 39.07 87.2 87.2v230.86c0 49.83-40.46 90.29-90.29 90.29H15.02c-2.21 0-4.01-1.8-4.01-4.01V301.96c0-2.21 1.8-4.01 4.01-4.01" style="fill:#28aecb" transform="rotate(-180 79.87 502.12)"/><rect width="25.34" height="25.34" x="94.35" y="579.2" class="cls-6" rx="5.35" ry="5.35"/><circle cx="84.87" cy="544.1" r="15.49" class="cls-6"/><circle cx="84.87" cy="484.17" r="15.49" class="cls-6"/><circle cx="53.05" cy="515.14" r="15.49" class="cls-6"/><circle cx="114.92" cy="515.14" r="15.49" class="cls-6"/><path d="M114.47 335.39h21.89v6.73h-21.89z" class="cls-6"/><circle cx="83.94" cy="401.94" r="30.89" class="cls-6"/><circle cx="83.94" cy="401.67" r="22.75" class="cls-1"/><path d="M83.94 378.92v-4.45m0 54.94v-4.46m-22.75-23.28h-4.45m54.41 0h-4.46" class="cls-1"/><rect width="18.56" height="6.31" x="242.65" y="295.99" class="cls-3" rx="1.6" ry="1.6"/><rect width="18.56" height="6.31" x="282.17" y="295.99" class="cls-3" rx="1.6" ry="1.6"/><rect width="30.98" height="6.31" x="254.88" y="297.38" class="cls-3" rx="2.07" ry="2.07"/><path d="M851.26 312.93c-8.27 0-14.98-6.7-14.98-14.98H163.62c-.08 8.18-6.71 14.78-14.89 14.82v393.52h702.55V312.92h-.01Z" style="fill:#31363e"/><rect width="661.13" height="381.07" x="169.39" y="312.36" class="cls-6" rx="14.65" ry="14.65"/><path d="M218.05 343.59h563.91v318.19H218.05z" class="cls-3"/></svg>