<?xml version="1.0" encoding="UTF-8"?>
<svg id="Layer_1" data-name="Layer 1" xmlns="http://www.w3.org/2000/svg" viewBox="0 0 1000 1000">
  <defs>
    <style>
      .cls-1 {
        fill: #181818;
      }

      .cls-2 {
        fill: #333;
      }

      .cls-3 {
        fill: #474748;
      }

      .cls-4, .cls-5 {
        fill: #5e5e5e;
      }

      .cls-4, .cls-6, .cls-7 {
        fill-rule: evenodd;
      }

      .cls-8 {
        fill: #101010;
      }

      .cls-9, .cls-7 {
        fill: #bbc45e;
      }

      .cls-10 {
        fill: #1e1e1e;
      }

      .cls-11 {
        fill: #353535;
      }

      .cls-12, .cls-6 {
        fill: #ce604a;
      }

      .cls-13 {
        fill: #585858;
      }

      .cls-14 {
        fill: #4f4f4f;
      }

      .cls-15 {
        fill: #4b4a4b;
      }

      .cls-16 {
        fill: #2d2d2d;
      }
    </style>
  </defs>
  <path class="cls-16" d="M50.06,351.38h906.38c8.55,0,15.49,6.94,15.49,15.49v343.14c0,9.05-7.35,16.41-16.41,16.41H50.97c-9.05,0-16.41-7.35-16.41-16.41v-343.14c0-8.55,6.94-15.49,15.49-15.49Z"/>
  <path class="cls-1" d="M910.7,628.41c-2.39,24.83-14.7,42.15-26.77,51.49-12.08,9.34-24.16,13.67-38.28,13.67H252.1c-14.09,0-17.56-10.56-17.56-15.57s2.22-7.86,9.68-14.81c7.47-6.95,55.14-54.85,20.36-119.87-34.79-65.01-105.42-50.64-120.91-43.32-24.38,10.23-31.45,3.7-31.45-17.95s1.2-33.34,1.2-33.34c0,0,.76-28.01.76-37.58s11.16-26.43,26.2-26.43h157.44c.31,0,.92,0,1.79,0,18.11,0,32.59,14.78,32.55,32.89,0,.11,0,.23,0,.34,0,94.63,76.72,171.34,171.35,171.34s171.34-76.71,171.34-171.34c0-1.76-.03-3.52-.08-5.26-.46-15.18,11.74-27.72,26.93-27.72.03,0,.06,0,.08,0h157.31c16.52,0,35.89,9.57,35.89,28.25v167.59s18.11,22.78,15.72,47.62Z"/>
  <g>
    <circle class="cls-12" cx="763.63" cy="445.6" r="5.92"/>
    <circle class="cls-12" cx="763.63" cy="466.79" r="4.1"/>
    <circle class="cls-12" cx="763.63" cy="485.01" r="2.28"/>
    <circle class="cls-12" cx="779.12" cy="485.01" r="2.28"/>
    <circle class="cls-12" cx="794.61" cy="485.01" r="2.28"/>
    <circle class="cls-12" cx="779.12" cy="466.79" r="4.1"/>
    <circle class="cls-12" cx="794.61" cy="466.79" r="4.1"/>
    <circle class="cls-12" cx="779.12" cy="445.6" r="5.92"/>
    <circle class="cls-12" cx="794.61" cy="445.6" r="5.92"/>
  </g>
  <rect class="cls-9" x="834.83" y="521.81" width="6.04" height="43.97" rx="3.02" ry="3.02"/>
  <rect class="cls-9" x="732.98" y="521.81" width="6.04" height="43.97" rx="3.02" ry="3.02"/>
  <rect class="cls-9" x="723.07" y="521.81" width="6.04" height="43.97" rx="3.02" ry="3.02"/>
  <g>
    <rect class="cls-15" x="525.27" y="612.5" width="67.35" height="26.56" rx="13.03" ry="13.03"/>
    <path class="cls-8" d="M579.59,613.25c6.78,0,12.28,5.5,12.28,12.28v.5c0,6.78-5.5,12.28-12.28,12.28h-41.29c-6.78,0-12.28-5.5-12.28-12.28v-.5c0-6.78,5.5-12.28,12.28-12.28h41.29M579.59,611.75h-41.29c-7.6,0-13.78,6.18-13.78,13.78v.5c0,7.6,6.18,13.78,13.78,13.78h41.29c7.6,0,13.78-6.18,13.78-13.78v-.5c0-7.6-6.18-13.78-13.78-13.78h0Z"/>
  </g>
  <polygon class="cls-2" points="45.07 352.21 507.59 296.24 961.43 352.21 45.07 352.21"/>
  <g>
    <rect class="cls-15" x="414.31" y="612.5" width="67.35" height="26.56" rx="13.03" ry="13.03"/>
    <path class="cls-8" d="M468.63,613.25c6.78,0,12.28,5.5,12.28,12.28v.5c0,6.78-5.5,12.28-12.28,12.28h-41.29c-6.78,0-12.28-5.5-12.28-12.28v-.5c0-6.78,5.5-12.28,12.28-12.28h41.29M468.63,611.75h-41.29c-7.6,0-13.78,6.18-13.78,13.78v.5c0,7.6,6.18,13.78,13.78,13.78h41.29c7.6,0,13.78-6.18,13.78-13.78v-.5c0-7.6-6.18-13.78-13.78-13.78h0Z"/>
  </g>
  <g>
    <path class="cls-13" d="M731.61,661.44c-20.04,0-36.35-16.31-36.35-36.35s16.31-36.35,36.35-36.35,36.35,16.31,36.35,36.35-16.31,36.35-36.35,36.35Z"/>
    <path class="cls-8" d="M731.61,589.48c19.66,0,35.6,15.94,35.6,35.6s-15.94,35.6-35.6,35.6-35.6-15.94-35.6-35.6,15.94-35.6,35.6-35.6M731.61,587.98c-20.46,0-37.1,16.64-37.1,37.1s16.64,37.1,37.1,37.1,37.1-16.64,37.1-37.1-16.64-37.1-37.1-37.1h0Z"/>
  </g>
  <g>
    <path class="cls-13" d="M842.19,661.44c-20.04,0-36.35-16.31-36.35-36.35s16.31-36.35,36.35-36.35,36.35,16.31,36.35,36.35-16.31,36.35-36.35,36.35Z"/>
    <path class="cls-8" d="M842.19,589.48c19.66,0,35.6,15.94,35.6,35.6s-15.94,35.6-35.6,35.6-35.6-15.94-35.6-35.6,15.94-35.6,35.6-35.6M842.19,587.98c-20.46,0-37.1,16.64-37.1,37.1s16.64,37.1,37.1,37.1,37.1-16.64,37.1-37.1-16.64-37.1-37.1-37.1h0Z"/>
  </g>
  <path class="cls-11" d="M366.75,303.55v113.17c0,78.12,64.67,141.65,142.72,138.3,72.76-3.12,130.8-63.1,130.8-136.63v-114.7c0-4.11-3.33-7.44-7.44-7.44h-258.77c-4.03,0-7.3,3.27-7.3,7.3Z"/>
  <g>
    <path class="cls-3" d="M729.81,500.54c-8.38,0-15.2-6.82-15.2-15.2v-38.59c0-8.38,6.82-15.2,15.2-15.2s15.2,6.82,15.2,15.2v38.59c0,8.38-6.82,15.2-15.2,15.2Z"/>
    <path class="cls-5" d="M729.81,432.9c7.65,0,13.86,6.2,13.86,13.86v38.59c0,7.65-6.2,13.86-13.86,13.86h0c-7.65,0-13.86-6.2-13.86-13.86v-38.59c0-7.65,6.2-13.86,13.86-13.86h0M729.81,430.21c-9.12,0-16.54,7.42-16.54,16.54v38.59c0,9.12,7.42,16.54,16.54,16.54s16.54-7.42,16.54-16.54v-38.59c0-9.12-7.42-16.54-16.54-16.54h0Z"/>
  </g>
  <circle class="cls-5" cx="729.81" cy="466.79" r="11.8"/>
  <g>
    <path class="cls-3" d="M829.6,500.54c-8.38,0-15.2-6.82-15.2-15.2v-38.59c0-8.38,6.82-15.2,15.2-15.2s15.2,6.82,15.2,15.2v38.59c0,8.38-6.82,15.2-15.2,15.2Z"/>
    <path class="cls-5" d="M829.6,432.9c7.65,0,13.86,6.2,13.86,13.86v38.59c0,7.65-6.2,13.86-13.86,13.86h0c-7.65,0-13.86-6.2-13.86-13.86v-38.59c0-7.65,6.2-13.86,13.86-13.86h0M829.6,430.21c-9.12,0-16.54,7.42-16.54,16.54v38.59c0,9.12,7.42,16.54,16.54,16.54s16.54-7.42,16.54-16.54v-38.59c0-9.12-7.42-16.54-16.54-16.54h0Z"/>
  </g>
  <circle class="cls-5" cx="829.6" cy="447.36" r="11.8"/>
  <g>
    <path class="cls-14" d="M179.42,676.06c-6.58,0-13.18-.77-19.6-2.29-1.12-.26-2.14-.52-3.11-.8-.65-.17-1.32-.36-1.97-.57-26.78-8.13-47.78-28.93-56.18-55.63-.38-1.21-.74-2.45-1.06-3.68-.26-.98-.51-1.97-.73-2.98-1.28-5.61-1.98-11.39-2.08-17.15-.01-.58-.02-1.12-.02-1.66s0-1.05.02-1.58c.1-5.86.81-11.65,2.1-17.26.22-1,.46-1.98.73-2.97.35-1.31.69-2.5,1.05-3.63,8.4-26.7,29.4-47.5,56.18-55.64.65-.2,1.32-.4,1.99-.57,1-.29,2.03-.55,3.07-.8,6.37-1.51,12.96-2.27,19.61-2.27,6.12,0,12.19.65,18.06,1.92.96.21,1.92.44,2.86.68,1.6.4,3.23.88,4.98,1.44,26.18,8.38,46.73,29.03,54.97,55.25.39,1.25.74,2.47,1.05,3.63.26.98.51,1.97.74,2.97,1.4,6.14,2.12,12.47,2.12,18.83s-.71,12.69-2.12,18.82c-.22,1-.46,1.98-.72,2.96-.29,1.12-.64,2.33-1.07,3.69-8.24,26.21-28.78,46.86-54.97,55.26-1.69.54-3.36,1.02-4.99,1.42-.93.24-1.88.46-2.84.68-5.9,1.28-11.98,1.93-18.07,1.93Z"/>
    <path class="cls-10" d="M179.42,507.58c6.12,0,12.1.65,17.85,1.9.95.21,1.89.43,2.82.67,1.66.42,3.3.9,4.92,1.42,25.82,8.26,46.19,28.72,54.32,54.6.37,1.19.72,2.39,1.04,3.59.26.97.5,1.95.73,2.94,1.37,5.99,2.09,12.21,2.09,18.6s-.72,12.61-2.09,18.6c-.22.99-.46,1.96-.71,2.93-.32,1.23-.68,2.44-1.06,3.64-8.13,25.87-28.5,46.33-54.32,54.61-1.62.52-3.26.99-4.92,1.4-.93.24-1.87.46-2.82.67-5.75,1.25-11.72,1.91-17.85,1.91-6.67,0-13.15-.79-19.37-2.26-1.03-.24-2.05-.5-3.06-.79-.66-.17-1.31-.36-1.95-.56-26.38-8.01-47.26-28.71-55.52-54.98-.38-1.2-.73-2.41-1.05-3.63-.26-.97-.5-1.95-.72-2.94-1.25-5.47-1.96-11.14-2.06-16.95-.01-.54-.02-1.09-.02-1.64s.01-1.09.02-1.64c.1-5.82.81-11.5,2.07-16.98.22-.99.46-1.96.72-2.93.32-1.21.66-2.4,1.04-3.59,8.27-26.29,29.15-46.97,55.52-54.99.64-.2,1.29-.39,1.95-.56,1.01-.29,2.03-.55,3.06-.8,6.22-1.47,12.7-2.24,19.37-2.24M179.42,505.58c-6.72,0-13.39.77-19.83,2.29-1.24.3-2.23.56-3.13.82-.63.16-1.29.35-2.02.58-27.08,8.24-48.33,29.28-56.83,56.3-.36,1.14-.71,2.34-1.07,3.68-.28,1.03-.52,2.02-.74,3.01-1.3,5.67-2.02,11.52-2.12,17.38-.01.56-.02,1.12-.02,1.67s.01,1.12.02,1.68c.1,5.83.81,11.67,2.11,17.36.22,1,.47,2.02.74,3.01.32,1.24.69,2.49,1.08,3.72,8.49,27.02,29.75,48.06,56.85,56.29.71.22,1.38.41,2.01.58.98.28,2.01.55,3.13.81,6.49,1.53,13.16,2.31,19.82,2.31,6.16,0,12.31-.66,18.27-1.96,1.08-.24,2.02-.46,2.89-.69,1.63-.4,3.33-.89,5.03-1.43,26.49-8.5,47.28-29.4,55.62-55.91.44-1.38.79-2.6,1.09-3.74.3-1.16.53-2.11.73-3,1.42-6.2,2.14-12.61,2.14-19.03s-.72-12.84-2.14-19.05c-.26-1.12-.5-2.1-.75-3.01-.31-1.17-.67-2.4-1.06-3.67-8.34-26.54-29.13-47.44-55.62-55.91-1.77-.57-3.42-1.04-5.04-1.45-.86-.22-1.81-.45-2.88-.68-5.95-1.29-12.09-1.95-18.28-1.95h0Z"/>
  </g>
  <path class="cls-5" d="M263.19,591.3c0,6.39-.72,12.61-2.09,18.6-.22.99-.46,1.96-.71,2.93h-48.92c-6.29,0-11.38,5.09-11.38,11.38v48.27c-.93.24-1.87.46-2.82.67-5.75,1.25-11.72,1.91-17.85,1.91-6.67,0-13.15-.79-19.37-2.26-1.03-.24-2.05-.5-3.06-.79v-47.79c0-6.29-5.09-11.38-11.38-11.38h-47.14c-.26-.97-.5-1.95-.72-2.94-1.25-5.47-1.96-11.14-2.06-16.95-.01-.54-.02-1.09-.02-1.64s.01-1.09.02-1.64c.1-5.82.81-11.5,2.07-16.98.22-.99.46-1.96.72-2.93h47.13c6.29,0,11.38-5.11,11.38-11.39v-47.75c1.01-.29,2.03-.55,3.06-.8,6.22-1.47,12.7-2.24,19.37-2.24,6.12,0,12.1.65,17.85,1.9.95.21,1.89.43,2.82.67v48.22c0,6.28,5.09,11.39,11.38,11.39h48.9c.26.97.5,1.95.73,2.94,1.37,5.99,2.09,12.21,2.09,18.6Z"/>
  <path class="cls-14" d="M192.32,591.3c0,1.35-.21,2.65-.59,3.87-1.25,3.98-4.39,7.13-8.35,8.4-1.24.4-2.56.62-3.94.62s-2.56-.19-3.75-.56c-4.06-1.23-7.27-4.41-8.54-8.46-.39-1.22-.59-2.52-.59-3.87s.21-2.65.59-3.87c1.27-4.04,4.49-7.23,8.54-8.46,1.19-.36,2.45-.56,3.75-.56,1.37,0,2.7.21,3.94.62,3.97,1.27,7.1,4.41,8.35,8.4.39,1.22.59,2.52.59,3.87h0Z"/>
  <path class="cls-7" d="M267.08,415.18c-2.77.08-7.17-.85-7.35,3.06v30.31h3.25v-15.92h4.11v15.92h3.25v-30.13c0-2-1.29-3.25-3.25-3.25ZM266.99,429.32h-3.89v-10.78h3.89v10.78Z"/>
  <path class="cls-7" d="M249.04,431.63c1.15,0,2.68-1.48,2.68-3.47v-17.84c-.1-4.37-7.8-2.72-10.5-3.01v41.14h3.21v-16.57h1.21l3.4-.24ZM248.41,428.39h-3.85v-17.87h3.85v17.87Z"/>
  <g>
    <path class="cls-5" d="M597.29,413.34c-10.04,0-18.18,8.15-18.18,18.19s8.14,18.19,18.18,18.19,18.19-8.15,18.19-18.19-8.14-18.19-18.19-18.19ZM590.82,438.94h-5.99v-2.1h1.93v-11.07h-1.9v-2.17h4.07v13.21h1.89v2.13ZM609.76,427.62h-1.93v-1.92h-12.16v4.61h12.98l1.11,1.1v6.09l-1.38,1.37h-13.29l-1.38-1.37v-12.56l1.28-1.27h13.6l1.17,1.17v2.78Z"/>
    <path class="cls-4" d="M607.55,437.05v-4.58h-11.8v4.58h11.8Z"/>
    <path class="cls-4" d="M569.35,430.47s3.04-4.62,3.04-6.37l.02-9.96h-3.08l-.02,10.77-1.72,2.56-1.76-2.64.02-10.69h-3.11l-.02,9.89c0,1.84,3.26,6.41,3.26,6.41,0,0-3.26,4.8-3.26,6.55v10.55h3.08v-11.21l1.87-2.78,1.87,2.82v11.17h2.9v-10.59c0-1.87-3.08-6.48-3.08-6.48Z"/>
    <path class="cls-4" d="M554.26,417.1v-2.94c-2.58.22-8.2-1.17-8.33,2.88v30.49s3.31,0,3.31,0v-15.92h4.14s0-3.25,0-3.25h-4.14v-11.27h5.03Z"/>
    <path class="cls-4" d="M533.42,414.18c-2.77.08-7.17-.85-7.35,3.06v30.31h3.25v-15.92h4.11v15.92h3.25v-30.13c0-2-1.29-3.25-3.25-3.25ZM533.33,428.32h-3.89v-10.78h3.89v10.78Z"/>
    <path class="cls-4" d="M514.64,431.62c1.17,0,2.71-1.5,2.71-3.51v-10.96c-.1-4.42-7.88-2.75-10.62-3.05v33.5h3.25v-15.74h1.22l3.62,15.68h3.19l-3.37-15.92ZM513.95,428.31h-3.89v-10.99h3.89v10.99Z"/>
    <path class="cls-4" d="M492.95,424.4v2.83h1.56v17.43h-3.61v-32.9h3.53v8.16h3.11v-8.28c0-1.45-1.43-3-3-3-2.61,0-6.28-.58-6.58,3.03v32.95c.18,4.33,7.02,2.53,9.6,2.88v-23.12h-4.61Z"/>
    <path class="cls-4" d="M416.24,414.31v29.98h-3.88v-29.98h-3.36v29.94c0,1.8,1.58,3.35,3.36,3.35h3.96c1.68,0,3.32-1.37,3.32-3.31v-29.98h-3.4Z"/>
    <polygon class="cls-4" points="392.9 408.72 392.9 411.49 395.88 411.49 395.88 447.57 398.85 447.57 398.85 411.39 401.31 411.39 401.31 408.72 392.9 408.72"/>
    <path class="cls-4" d="M435.65,431.7c1.15,0,2.68-1.48,2.68-3.47v-10.84c-.1-4.37-7.8-2.72-10.5-3.01v33.14h3.21v-15.57h1.21l3.58,15.51h3.15l-3.33-15.75ZM435.01,428.46h-3.85v-10.87h3.85v10.87Z"/>
    <path class="cls-4" d="M457.64,432.45c-.02-1.49-1.46-2.43-1.46-2.43,0,0,1.46-1.02,1.46-2.43v-10.13c0-1.91-1.56-3.15-3.16-3.15h-7.35v33.13c13.99.42,9.88-.29,10.51-14.99ZM454.33,444.19h-3.86v-12.35h3.86v12.35ZM454.33,428.41h-3.86v-10.89h3.86v10.89Z"/>
    <path class="cls-4" d="M474.28,414.39c-3.04,0-7.21-.65-7.61,3.33v26.31c.39,4.3,4.99,3.5,7.95,3.53,1.73,0,3.46-1.92,3.46-3.45v-26.49c0-1.29-1.63-3.23-3.79-3.23ZM474.41,443.92h-3.96v-26.05h3.96v26.05Z"/>
  </g>
  <path class="cls-7" d="M286.53,414.68c-3.04,0-7.1,0-7.1,0v33.17s4.48-.03,7.44,0c1.73,0,3.46-1.92,3.46-3.45v-26.49c0-1.29-1.63-3.23-3.79-3.23ZM286.66,444.21h-2.96v-26.05h2.96v26.05Z"/>
  <path class="cls-6" d="M167.89,413.13v32.22h-4.17v-32.22h-3.61v32.18c0,1.93,1.7,3.6,3.61,3.6h4.26c1.8,0,3.56-1.48,3.56-3.56v-32.22h-3.65Z"/>
  <polygon class="cls-6" points="143.57 407.22 143.57 410.19 146.76 410.19 146.76 448.97 149.96 448.97 149.96 410.08 152.61 410.08 152.61 407.22 143.57 407.22"/>
  <path class="cls-6" d="M188.79,431.92c1.24,0,2.88-1.59,2.88-3.73v-11.65c-.1-4.7-8.38-2.93-11.29-3.24v35.61h3.45v-16.73h1.3l3.85,16.67h3.39l-3.58-16.93ZM188.1,428.43h-4.14v-11.69h4.14v11.69Z"/>
  <path class="cls-6" d="M211.63,432.72c-.02-1.6-1.57-2.61-1.57-2.61,0,0,1.57-1.09,1.57-2.61v-10.89c0-2.05-1.68-3.39-3.39-3.39h-7.9v35.6c15.03.45,10.61-.31,11.29-16.11ZM208.07,445.34h-4.15v-13.27h4.15v13.27ZM208.07,428.38h-4.15v-11.7h4.15v11.7Z"/>
  <path class="cls-6" d="M227.91,413.31c-3.26,0-7.75-.7-8.18,3.57v28.28c.41,4.62,5.36,3.76,8.54,3.79,1.86,0,3.72-2.06,3.72-3.71v-28.46c0-1.39-1.75-3.47-4.08-3.47ZM228.05,445.05h-4.26v-27.99h4.26v27.99Z"/>
  <g>
    <path class="cls-9" d="M428.78,670.42v-4.96h1.83v5.36h1.05v-5.64l-2.88-3.56v-5.11c0-1.08.74-1.57,2.38-1.57s2.33.5,2.33,1.57v4.28h-1.83v-4.67h-1.05v4.96l2.88,3.57v5.78c0,1.08-.71,1.57-2.33,1.57s-2.38-.5-2.38-1.57Z"/>
    <path class="cls-9" d="M436.53,670.48v-11.5c0-1.01.71-1.5,2.13-1.5s2.13.5,2.13,1.5v6.13h-2.62v5.7h.98v-4.62h1.64v4.28c0,1.01-.72,1.52-2.13,1.52s-2.13-.51-2.13-1.52ZM439.16,663.96v-5.31h-.98v5.31h.98Z"/>
    <path class="cls-9" d="M443.83,655.02h1.65v16.89h-1.65v-16.89Z"/>
    <path class="cls-9" d="M448.52,670.48v-11.5c0-1.01.71-1.5,2.13-1.5s2.13.5,2.13,1.5v6.13h-2.62v5.7h.98v-4.62h1.64v4.28c0,1.01-.72,1.52-2.13,1.52s-2.13-.51-2.13-1.52ZM451.14,663.96v-5.31h-.98v5.31h.98Z"/>
    <path class="cls-9" d="M455.81,670.48v-11.5c0-1.01.71-1.5,2.13-1.5s2.13.5,2.13,1.5v4.31h-1.64v-4.65h-.98v12.17h.98v-4.63h1.64v4.29c0,1.01-.71,1.52-2.13,1.52s-2.13-.51-2.13-1.52Z"/>
    <path class="cls-9" d="M463.39,670.5v-11.86h-.61v-1.09h.61v-1.85l1.63-.24v2.09h.93v1.09h-.93v12.17h.83v1.09h-.75c-1.12,0-1.71-.5-1.71-1.4Z"/>
  </g>
  <g>
    <path class="cls-9" d="M551.74,655.02h2.7c1.39,0,2.01.47,2.01,1.5v5.45c0,.97-.38,1.37-1.2,1.5v.02c.82.14,1.2.54,1.2,1.5v4.83c0,.69.04,1.38.22,2.07h-1.9c-.14-.69-.15-1.38-.15-2.07v-5.73h-1.05v7.8h-1.83v-16.89ZM554.62,662.85v-6.74h-1.05v6.74h1.05Z"/>
    <path class="cls-9" d="M559.5,670.71v-13.15h1.64v13.25h.98v-13.25h1.64v14.34h-1.64v-.57c-.21.4-.67.66-1.26.66-.86,0-1.37-.43-1.37-1.28Z"/>
    <path class="cls-9" d="M566.8,657.56h1.64v.72c.22-.52.68-.8,1.28-.8.9,0,1.34.43,1.34,1.28v13.14h-1.64v-13.25h-.98v13.25h-1.64v-14.34Z"/>
  </g>
</svg>