<?xml version="1.0" encoding="UTF-8"?>
<svg id="Layer_1" data-name="Layer 1" xmlns="http://www.w3.org/2000/svg" viewBox="0 0 1000 1000">
  <defs>
    <style>
      .cls-1 {
        fill: #f8f6ed;
      }

      .cls-2, .cls-3 {
        fill: none;
      }

      .cls-4, .cls-5 {
        fill: #cb3532;
      }

      .cls-6 {
        fill: #282726;
      }

      .cls-7 {
        fill: #5e5e5e;
      }

      .cls-3 {
        stroke: #cb3532;
        stroke-linecap: round;
        stroke-miterlimit: 10;
        stroke-width: 9px;
      }

      .cls-8 {
        fill: #bbc45e;
      }

      .cls-5 {
        fill-rule: evenodd;
      }

      .cls-9 {
        fill: #e2e1d5;
      }

      .cls-10 {
        fill: #1e1e1e;
      }

      .cls-11 {
        fill: #585858;
      }

      .cls-12 {
        fill: #4f4f4f;
      }

      .cls-13 {
        fill: #4b4a4b;
      }

      .cls-14 {
        fill: #201f1d;
      }

      .cls-15 {
        fill: #edecdf;
      }

      .cls-16 {
        fill: #ece9d9;
      }
    </style>
  </defs>
  <rect class="cls-2" x="335.97" y="155.27" width="31.44" height="0"/>
  <g>
    <path class="cls-15" d="M46.81,340.05h906.38c8.55,0,15.49,6.94,15.49,15.49v343.14c0,9.05-7.35,16.41-16.41,16.41H47.72c-9.05,0-16.41-7.35-16.41-16.41v-343.14c0-8.55,6.94-15.49,15.49-15.49Z"/>
    <path class="cls-6" d="M907.45,617.08c-2.39,24.83-14.7,42.15-26.77,51.49-12.08,9.34-24.16,13.67-38.28,13.67H248.85c-14.09,0-17.56-10.56-17.56-15.57s2.22-7.86,9.68-14.81c7.47-6.95,55.14-54.85,20.36-119.87-34.79-65.01-105.42-50.64-120.91-43.32-24.38,10.23-31.45,3.7-31.45-17.95s1.2-33.34,1.2-33.34c0,0,.76-28.01.76-37.58s11.16-26.43,26.2-26.43h157.44c.31,0,.92,0,1.79,0,18.11,0,32.59,14.78,32.55,32.89,0,.11,0,.23,0,.34,0,94.63,76.72,171.34,171.35,171.34s171.34-76.71,171.34-171.34c0-1.76-.03-3.52-.08-5.26-.46-15.18,11.74-27.72,26.93-27.72.03,0,.06,0,.08,0h157.31c16.52,0,35.89,9.57,35.89,28.25v167.59s18.11,22.78,15.72,47.62Z"/>
    <rect class="cls-8" x="831.58" y="510.48" width="6.04" height="43.97" rx="3.02" ry="3.02"/>
    <rect class="cls-8" x="729.73" y="510.48" width="6.04" height="43.97" rx="3.02" ry="3.02"/>
    <rect class="cls-8" x="719.82" y="510.48" width="6.04" height="43.97" rx="3.02" ry="3.02"/>
    <g>
      <rect class="cls-13" x="521.77" y="600.92" width="67.85" height="27.06" rx="13.28" ry="13.28"/>
      <path class="cls-15" d="M576.34,601.92c6.78,0,12.28,5.5,12.28,12.28v.5c0,6.78-5.5,12.28-12.28,12.28h-41.29c-6.78,0-12.28-5.5-12.28-12.28v-.5c0-6.78,5.5-12.28,12.28-12.28h41.29M576.34,599.92h-41.29c-7.87,0-14.28,6.41-14.28,14.28v.5c0,7.87,6.41,14.28,14.28,14.28h41.29c7.87,0,14.28-6.41,14.28-14.28v-.5c0-7.87-6.41-14.28-14.28-14.28h0Z"/>
    </g>
    <rect class="cls-4" x="679.73" y="566.08" width="209.16" height="95.47" rx="46.96" ry="46.96"/>
    <polygon class="cls-9" points="41.82 340.88 504.34 284.91 958.19 340.88 41.82 340.88"/>
    <g>
      <rect class="cls-13" x="410.81" y="600.92" width="67.85" height="27.06" rx="13.28" ry="13.28"/>
      <path class="cls-15" d="M465.38,601.92c6.78,0,12.28,5.5,12.28,12.28v.5c0,6.78-5.5,12.28-12.28,12.28h-41.29c-6.78,0-12.28-5.5-12.28-12.28v-.5c0-6.78,5.5-12.28,12.28-12.28h41.29M465.38,599.92h-41.29c-7.87,0-14.28,6.41-14.28,14.28v.5c0,7.87,6.41,14.28,14.28,14.28h41.29c7.87,0,14.28-6.41,14.28-14.28v-.5c0-7.87-6.41-14.28-14.28-14.28h0Z"/>
    </g>
    <g>
      <path class="cls-11" d="M728.36,650.1c-20.04,0-36.35-16.31-36.35-36.35s16.31-36.35,36.35-36.35,36.35,16.31,36.35,36.35-16.31,36.35-36.35,36.35Z"/>
      <path class="cls-16" d="M728.36,578.15c19.66,0,35.6,15.94,35.6,35.6s-15.94,35.6-35.6,35.6-35.6-15.94-35.6-35.6,15.94-35.6,35.6-35.6M728.36,576.65c-20.46,0-37.1,16.64-37.1,37.1s16.64,37.1,37.1,37.1,37.1-16.64,37.1-37.1-16.64-37.1-37.1-37.1h0Z"/>
    </g>
    <g>
      <path class="cls-11" d="M838.94,650.1c-20.04,0-36.35-16.31-36.35-36.35s16.31-36.35,36.35-36.35,36.35,16.31,36.35,36.35-16.31,36.35-36.35,36.35Z"/>
      <path class="cls-16" d="M838.94,578.15c19.66,0,35.6,15.94,35.6,35.6s-15.94,35.6-35.6,35.6-35.6-15.94-35.6-35.6,15.94-35.6,35.6-35.6M838.94,576.65c-20.46,0-37.1,16.64-37.1,37.1s16.64,37.1,37.1,37.1,37.1-16.64,37.1-37.1-16.64-37.1-37.1-37.1h0Z"/>
    </g>
    <path class="cls-1" d="M363.5,292.21v113.17c0,78.12,64.67,141.65,142.72,138.3,72.76-3.12,130.8-63.1,130.8-136.63v-114.7c0-4.11-3.33-7.44-7.44-7.44h-258.77c-4.03,0-7.3,3.27-7.3,7.3Z"/>
    <g>
      <path class="cls-12" d="M176.17,664.73c-6.59,0-13.18-.77-19.6-2.29-1.1-.26-2.12-.52-3.11-.8-.65-.17-1.32-.36-1.97-.57-26.78-8.13-47.78-28.93-56.18-55.63-.38-1.21-.74-2.44-1.06-3.68-.26-.98-.51-1.97-.73-2.98-1.28-5.61-1.98-11.39-2.08-17.15-.01-.54-.02-1.1-.02-1.66s0-1.1.02-1.66c.1-5.79.8-11.57,2.1-17.18.22-1,.46-1.98.73-2.97.35-1.31.69-2.5,1.05-3.63,8.4-26.7,29.4-47.5,56.18-55.64.65-.2,1.31-.4,1.99-.57,1-.29,2.03-.55,3.07-.8,6.37-1.51,12.96-2.27,19.61-2.27,6.12,0,12.19.65,18.06,1.92.96.21,1.92.44,2.86.68,1.6.4,3.23.87,4.98,1.44,26.18,8.38,46.73,29.03,54.97,55.25.39,1.26.74,2.48,1.05,3.63.26.98.51,1.97.74,2.97,1.4,6.14,2.12,12.47,2.12,18.83s-.71,12.69-2.12,18.82c-.22,1-.46,1.98-.72,2.96-.29,1.13-.64,2.33-1.08,3.69-8.24,26.21-28.78,46.86-54.97,55.26-1.67.54-3.35,1.01-4.99,1.42-.93.24-1.88.46-2.84.68-5.9,1.28-11.98,1.93-18.07,1.93Z"/>
      <path class="cls-10" d="M176.17,496.25c6.12,0,12.1.65,17.85,1.9.95.21,1.89.43,2.82.67,1.66.42,3.3.9,4.92,1.42,25.82,8.26,46.19,28.72,54.32,54.6.37,1.19.72,2.39,1.04,3.59.26.97.5,1.95.73,2.94,1.37,5.99,2.09,12.21,2.09,18.6s-.72,12.61-2.09,18.6c-.22.99-.46,1.96-.71,2.93-.32,1.23-.68,2.44-1.06,3.64-8.13,25.87-28.5,46.33-54.32,54.61-1.62.52-3.26.99-4.92,1.4-.93.24-1.87.46-2.82.67-5.75,1.25-11.72,1.91-17.85,1.91-6.67,0-13.15-.79-19.37-2.26-1.03-.24-2.05-.5-3.06-.79-.66-.17-1.31-.36-1.95-.56-26.38-8.01-47.26-28.71-55.52-54.98-.38-1.2-.73-2.41-1.05-3.63-.26-.97-.5-1.95-.72-2.94-1.25-5.47-1.96-11.14-2.06-16.95-.01-.54-.02-1.09-.02-1.64s.01-1.09.02-1.64c.1-5.82.81-11.5,2.07-16.98.22-.99.46-1.96.72-2.93.32-1.21.66-2.4,1.04-3.59,8.27-26.29,29.15-46.97,55.52-54.99.64-.2,1.29-.39,1.95-.56,1.01-.29,2.03-.55,3.06-.8,6.22-1.47,12.7-2.24,19.37-2.24M176.17,494.25c-6.72,0-13.39.77-19.83,2.29-1.24.3-2.23.56-3.13.82-.63.16-1.29.35-2.02.58-27.08,8.24-48.33,29.28-56.83,56.3-.36,1.14-.71,2.34-1.07,3.68-.28,1.03-.52,2.02-.74,3.01-1.3,5.67-2.02,11.52-2.12,17.38-.01.56-.02,1.12-.02,1.67s.01,1.12.02,1.68c.1,5.83.81,11.67,2.11,17.36.22,1,.47,2.02.74,3.01.32,1.24.69,2.49,1.08,3.72,8.49,27.02,29.75,48.06,56.85,56.29.71.22,1.38.41,2.01.58.98.28,2.01.55,3.13.81,6.49,1.53,13.16,2.31,19.82,2.31,6.16,0,12.31-.66,18.27-1.96,1.08-.24,2.02-.46,2.89-.69,1.63-.4,3.33-.89,5.03-1.43,26.49-8.5,47.28-29.4,55.62-55.91.44-1.38.79-2.6,1.09-3.74.3-1.16.53-2.11.73-3,1.42-6.2,2.14-12.61,2.14-19.03s-.72-12.84-2.14-19.05c-.26-1.12-.5-2.1-.75-3.01-.31-1.17-.67-2.4-1.06-3.67-8.34-26.54-29.13-47.44-55.62-55.91-1.77-.57-3.42-1.04-5.04-1.45-.86-.22-1.81-.45-2.88-.68-5.95-1.29-12.09-1.95-18.28-1.95h0Z"/>
    </g>
    <path class="cls-7" d="M259.94,579.97c0,6.39-.72,12.61-2.09,18.6-.22.99-.46,1.96-.71,2.93h-48.92c-6.29,0-11.38,5.09-11.38,11.38v48.27c-.93.24-1.87.46-2.82.67-5.75,1.25-11.72,1.91-17.85,1.91-6.67,0-13.15-.79-19.37-2.26-1.03-.24-2.05-.5-3.06-.79v-47.79c0-6.29-5.09-11.38-11.38-11.38h-47.14c-.26-.97-.5-1.95-.72-2.94-1.25-5.47-1.96-11.14-2.06-16.95-.01-.54-.02-1.09-.02-1.64s.01-1.09.02-1.64c.1-5.82.81-11.5,2.07-16.98.22-.99.46-1.96.72-2.93h47.13c6.29,0,11.38-5.11,11.38-11.39v-47.75c1.01-.29,2.03-.55,3.06-.8,6.22-1.47,12.7-2.24,19.37-2.24,6.12,0,12.1.65,17.85,1.9.95.21,1.89.43,2.82.67v48.22c0,6.28,5.09,11.39,11.38,11.39h48.9c.26.97.5,1.95.73,2.94,1.37,5.99,2.09,12.21,2.09,18.6Z"/>
    <path class="cls-12" d="M189.07,579.97c0,1.35-.21,2.65-.59,3.87-1.25,3.98-4.39,7.13-8.35,8.4-1.24.4-2.56.62-3.94.62s-2.56-.19-3.75-.56c-4.06-1.23-7.27-4.41-8.54-8.46-.39-1.22-.59-2.52-.59-3.87s.21-2.65.59-3.87c1.27-4.04,4.49-7.23,8.54-8.46,1.19-.36,2.45-.56,3.75-.56,1.37,0,2.7.21,3.94.62,3.97,1.27,7.1,4.41,8.35,8.4.39,1.22.59,2.52.59,3.87h0Z"/>
    <g>
      <path class="cls-4" d="M402.24,652.45l2.04-1.42c.68.94,2.04,1.61,3.69,1.61,1.86,0,3.15-.94,3.15-2.05,0-.73-.52-1.15-1.59-1.44l-1.47-.4c-1.88-.52-2.74-1.52-2.74-2.92,0-2.42,2.81-4.32,6.19-4.32,2.11,0,3.97.71,4.76,1.86l-1.99,1.46c-.61-.9-1.77-1.4-3.13-1.4-1.77,0-3.01.94-3.01,2.02,0,.75.52,1.21,1.59,1.5l1.47.4c1.86.5,2.74,1.48,2.74,2.86,0,2.48-2.95,4.36-6.3,4.36-2.38,0-4.55-.9-5.39-2.11Z"/>
      <path class="cls-4" d="M419.69,641.7h9.36l-.59,1.84h-6.57l-1.09,3.42h5.91l-.57,1.84h-5.94l-1.18,3.72h6.59l-.59,1.84h-9.36l4.01-12.67Z"/>
      <path class="cls-4" d="M432.08,641.7h2.79l-3.44,10.83h6.37l-.59,1.84h-9.13l4.01-12.67Z"/>
      <path class="cls-4" d="M443.46,641.7h9.36l-.59,1.84h-6.57l-1.09,3.42h5.91l-.57,1.84h-5.94l-1.18,3.72h6.59l-.59,1.84h-9.36l4.01-12.67Z"/>
      <path class="cls-4" d="M452.66,649.65c0-4.15,4.15-8.14,8.93-8.14,2.72,0,4.44,1.19,5.21,3.17l-2.47,1.11c-.59-1.54-1.47-2.28-3.1-2.28-3.26,0-5.64,3.21-5.64,6.18,0,1.86,1.09,2.88,3.1,2.88,1.56,0,3.13-.73,4.08-2.21l2.06,1.3c-1.34,1.88-3.85,2.9-6.3,2.9-3.9,0-5.87-2.21-5.87-4.91Z"/>
      <path class="cls-4" d="M472.35,643.54h-4.37l.59-1.84h11.53l-.59,1.84h-4.37l-3.42,10.83h-2.79l3.42-10.83Z"/>
    </g>
    <g>
      <path class="cls-4" d="M537.89,641.7h4.33c3.58,0,5.3,1.27,5.3,3.11,0,2.04-1.81,3.34-4.8,3.57l-.02.04c1.75.15,2.63.88,2.63,2.13,0,.27-.05.61-.16.98l-.27.84c-.11.36-.2.79-.2,1.09,0,.35.09.61.27.9h-2.9c-.14-.21-.23-.5-.23-.88,0-.35.07-.67.2-1.11l.29-.9c.14-.4.2-.73.2-1.02,0-.9-.61-1.3-2.06-1.3h-2.15l-1.65,5.22h-2.79l4.01-12.67ZM540.11,643.47l-1.27,3.99h1.79c2.58,0,3.96-.77,3.96-2.36,0-1.06-.79-1.63-2.65-1.63h-1.83Z"/>
      <path class="cls-4" d="M548.92,650.67c0-.42.07-1.02.25-1.55l2.36-7.41h2.79l-2.42,7.66c-.14.46-.2.83-.2,1.13,0,1.34.95,2.07,2.63,2.07s3.1-.75,3.74-2.76l2.56-8.1h2.79l-2.56,8.08c-1.04,3.3-3.08,4.78-6.75,4.78-3.06,0-5.17-1.33-5.17-3.9Z"/>
      <path class="cls-4" d="M566.94,641.7h2.49l3.81,9.06,2.86-9.06h2.54l-4.01,12.67h-2.49l-3.81-9.06-2.85,9.06h-2.54l4.01-12.67Z"/>
    </g>
    <path class="cls-5" d="M148.69,412.91l-12.56-15.05-5.7,6.53,2.73,2.5-3.27,18.11,6.56-2.88-3.39-3.14,1.88-9.58,13.23,15.25,4.57-20.8,4.63-2.8-5.59-3.4-3.09,15.25h0ZM159.75,400.38c.4.45.89,1.02.78,1.63l-1.54,8.13c-.12.64-.68,1.1-1.13,1.42-.44.32-.99.4-1.53.49.47.18.94.37,1.25.71s.75.83.64,1.34l-1.77,7.92c-.16.73-.91,1.19-1.44,1.59-.53.4-1.13.6-1.74.8h21.14l1.48-7.93c-.81,1.65-1.63,3.29-3.01,4.35-1.38,1.05-3.29,1.98-5.3,1.98h-3.87l1.93-9.81c.7-.24,1.49-.22,2.21.13s1.36,1.02,1.93,1.75c.57.73,1.08,1.52,1.48,2.35l2.02-10.31c-.7.76-1.46,1.45-2.29,2.06-.83.62-1.72,1.17-2.55,1.44-.83.27-1.61.27-2.33.06l2-9.66,3.12-.03c1.41-.01,2.82-.18,3.96.75,1.14.93,2.01,2.89,2.88,4.85l1.54-7.07h-21.49c.61.31,1.21.61,1.61,1.06h0ZM185.07,402.86c-1.58,1.35-3,3.14-3.96,5.09s-1.43,4.07-1.45,6.01c-.02,1.94.4,3.71,1.2,5.33.79,1.62,1.95,3.09,3.37,4.09,1.42,1,3.12,1.52,4.68,1.76s2.97.2,4.1.04c1.12-.16,1.95-.43,2.7-.85l4.46-9.27c-1.15.54-2.33,1.04-3.55,1.54-1.22.5-2.48,1.01-3.82,1.18-1.34.16-2.76-.03-4.01-.77-1.26-.75-2.35-2.05-2.92-3.52-.57-1.46-.61-3.08-.21-4.55.4-1.46,1.24-2.77,2.26-3.91,1.02-1.14,2.22-2.12,3.34-2.77s2.15-.96,3.2-1.03l3.37,4.85,3.87-1.45-2.71-6.65c-.77-.03-1.54,0-2.45.1s-1.96.27-3.06.55c-1.09.28-2.22.67-3.66,1.32-1.43.65-3.17,1.56-4.75,2.91h0Z"/>
    <path class="cls-3" d="M126.58,481.01c38.51-25.97,111.8-15.34,142.51,32.88,30.6,48.04,21.08,115.16-18.31,150.4"/>
    <path class="cls-4" d="M728.22,500.22l-19.79,13.69v37.71c0,3.23,2.62,5.85,5.85,5.85h27.88c3.23,0,5.85-2.62,5.85-5.85v-37.71l-19.79-13.69Z"/>
    <path class="cls-4" d="M838.94,500.22l-19.79,13.69v37.71c0,3.23,2.62,5.85,5.85,5.85h27.88c3.23,0,5.85-2.62,5.85-5.85v-37.71l-19.79-13.69Z"/>
    <path class="cls-14" d="M742.5,519.83v-3.29h-29.3v3.29h4.33v27.91h-4.33v3.29h29.3v-3.29h-4.85v-27.91h4.85ZM731.06,547.75h-6.94v-27.91h6.94v27.91Z"/>
    <polygon class="cls-14" points="847.44 519.83 847.44 516.54 830.45 516.54 830.45 519.83 835.65 519.83 835.65 547.75 830.45 547.75 830.45 551.04 847.44 551.04 847.44 547.75 842.24 547.75 842.24 519.83 847.44 519.83"/>
    <g>
      <path class="cls-4" d="M215.87,407.53h3.46c2.63,0,4.4,1.29,4.4,3.36,0,2.84-2.44,4.45-6.18,4.45h-1.4l-1.31,4.86h-2.36l3.4-12.67ZM217.75,409.3l-1.15,4.28h1.23c2.28,0,3.42-.94,3.42-2.51,0-1.13-.67-1.77-2.32-1.77h-1.17Z"/>
      <path class="cls-4" d="M226.93,407.53h2.36l-3.4,12.67h-2.36l3.4-12.67Z"/>
      <path class="cls-4" d="M234.61,414.61h4.86l-.46,1.75h-4.86l.46-1.75Z"/>
      <path class="cls-4" d="M248.59,407.53h3.46c2.63,0,4.4,1.29,4.4,3.36,0,2.84-2.44,4.45-6.18,4.45h-1.4l-1.31,4.86h-2.36l3.4-12.67ZM250.47,409.3l-1.15,4.28h1.23c2.28,0,3.42-.94,3.42-2.51,0-1.13-.67-1.77-2.32-1.77h-1.17Z"/>
      <path class="cls-4" d="M259.65,407.53h4.07c3.19,0,5.09,2.34,5.09,5.11,0,4.26-3.34,7.56-7.64,7.56h-4.91l3.4-12.67ZM261.53,409.33l-2.44,9.06h2.28c2.99,0,4.95-2.78,4.95-5.93,0-1.92-1.09-3.13-2.96-3.13h-1.84Z"/>
      <path class="cls-4" d="M270.09,415.78c0-3.99,2.9-8.45,6.43-8.45,2.3,0,3.63,2.02,3.63,4.61,0,3.99-2.9,8.45-6.43,8.45-2.3,0-3.63-2.02-3.63-4.61ZM277.86,411.73c0-1.55-.52-2.53-1.61-2.53-2.15,0-3.88,3.94-3.88,6.8,0,1.55.54,2.53,1.61,2.53,2.15,0,3.88-3.94,3.88-6.8Z"/>
      <path class="cls-4" d="M281.42,415.78c0-3.99,2.9-8.45,6.43-8.45,2.3,0,3.63,2.02,3.63,4.61,0,3.99-2.9,8.45-6.43,8.45-2.3,0-3.63-2.02-3.63-4.61ZM289.19,411.73c0-1.55-.52-2.53-1.61-2.53-2.15,0-3.88,3.94-3.88,6.8,0,1.55.54,2.53,1.61,2.53,2.15,0,3.88-3.94,3.88-6.8Z"/>
      <path class="cls-4" d="M297.49,411c-.92.9-2.28,1.73-3.63,2.17l-.35-1.92c1.88-.67,3.88-2.03,5.45-3.72h1.69l-3.4,12.67h-2.23l2.46-9.19Z"/>
    </g>
    <polygon class="cls-9" points="472 484.88 475.97 482.55 475.97 474.48 486.78 474.48 486.78 484.33 504.98 484.33 504.98 474.48 532.61 474.48 532.61 479.68 514.69 479.68 514.69 483.51 530.15 483.51 526.87 486.8 514.69 486.8 514.69 492.54 532.61 492.54 532.61 498.15 504.29 498.15 504.29 489.67 486.64 489.67 486.64 497.47 476.11 497.47 476.11 486.32 472 484.88"/>
    <g>
      <path class="cls-9" d="M477.47,506.3l.9-.73c.46.39,1.15.76,2.48.76,1.19,0,1.96-.3,1.96-.87,0-.41-.38-.7-1.5-.84l-1.36-.17c-1.46-.18-2.13-.86-2.13-1.6,0-1.12,1.54-1.93,3.38-1.93,1.31,0,2.42.39,2.96,1l-.9.73c-.44-.49-1.25-.81-2.25-.81s-1.67.31-1.67.9c0,.48.42.73,1.52.87l1.21.15c1.54.2,2.27.82,2.27,1.57,0,1.15-1.61,1.91-3.65,1.91-1.42,0-2.69-.37-3.21-.94Z"/>
      <path class="cls-9" d="M488.11,507l-3.4-5.94h1.61l2.61,4.76,2.67-4.76h1.44l-5.12,8.99h-1.57l1.77-3.05Z"/>
      <path class="cls-9" d="M493.33,506.3l.9-.73c.46.39,1.15.76,2.48.76,1.19,0,1.96-.3,1.96-.87,0-.41-.38-.7-1.5-.84l-1.36-.17c-1.46-.18-2.13-.86-2.13-1.6,0-1.12,1.54-1.93,3.38-1.93,1.31,0,2.42.39,2.96,1l-.9.73c-.44-.49-1.25-.81-2.25-.81s-1.67.31-1.67.9c0,.48.42.73,1.52.87l1.21.15c1.54.2,2.27.82,2.27,1.57,0,1.15-1.61,1.91-3.65,1.91-1.42,0-2.69-.37-3.21-.94Z"/>
      <path class="cls-9" d="M502.07,504.81v-2.85h-1.61v-.79h.21c1.38,0,1.69-.49,1.69-1.27v-.76h.23c.58,0,.83-.01,1.06-.08v2h3.24v.9h-3.24v3.01c0,.94.63,1.32,1.4,1.32.67,0,1.15-.24,1.48-.59l1.08.53c-.46.65-1.42,1.01-2.55,1.01-1.82,0-2.98-.96-2.98-2.43Z"/>
      <path class="cls-9" d="M507.54,504.11c0-1.71,1.88-3.19,4.11-3.19s3.94,1.39,3.94,3.37h-6.47c.04,1.11,1.09,2.01,2.86,2.01,1.19,0,1.94-.41,2.34-1.08l1.17.46c-.61.94-1.82,1.56-3.51,1.56-2.59,0-4.43-1.43-4.43-3.13ZM509.13,503.52h4.91c-.15-.93-1.08-1.73-2.46-1.73s-2.3.8-2.46,1.73Z"/>
      <path class="cls-9" d="M517.22,501.06h.52c.58,0,.83-.01,1.06-.08v1.31c.46-.84,1.5-1.36,2.98-1.36,1.4,0,2.32.53,2.65,1.45.46-.9,1.55-1.45,3.11-1.45,1.77,0,2.78.84,2.78,2.21v3.98h-1.57v-3.81c0-.97-.54-1.36-1.67-1.36-1.54,0-2.51.7-2.51,1.95v3.22h-1.57v-3.81c0-.97-.54-1.36-1.67-1.36-1.54,0-2.51.7-2.51,1.95v3.22h-1.57v-6.04Z"/>
    </g>
  </g>
</svg>