<svg xmlns="http://www.w3.org/2000/svg" id="Layer_1" data-name="Layer 1" viewBox="0 0 1000 1000"><defs><style>.cls-4{fill:#cb3532}.cls-8{fill:#bbc45e}.cls-9{fill:#e2e1d5}.cls-11{fill:#585858}.cls-12{fill:#4f4f4f}.cls-13{fill:#4b4a4b}.cls-15{fill:#edecdf}.cls-16{fill:#ece9d9}</style></defs><path d="M46.81 340.05h906.38c8.55 0 15.49 6.94 15.49 15.49v343.14c0 9.05-7.35 16.41-16.41 16.41H47.72c-9.05 0-16.41-7.35-16.41-16.41V355.54c0-8.55 6.94-15.49 15.49-15.49Z" class="cls-15"/><path d="M907.45 617.08c-2.39 24.83-14.7 42.15-26.77 51.49-12.08 9.34-24.16 13.67-38.28 13.67H248.85c-14.09 0-17.56-10.56-17.56-15.57s2.22-7.86 9.68-14.81c7.47-6.95 55.14-54.85 20.36-119.87-34.79-65.01-105.42-50.64-120.91-43.32-24.38 10.23-31.45 3.7-31.45-17.95s1.2-33.34 1.2-33.34.76-28.01.76-37.58 11.16-26.43 26.2-26.43h159.23c18.11 0 32.59 14.78 32.55 32.89v.34c0 94.63 76.72 171.34 171.35 171.34S671.6 501.23 671.6 406.6c0-1.76-.03-3.52-.08-5.26-.46-15.18 11.74-27.72 26.93-27.72h157.39c16.52 0 35.89 9.57 35.89 28.25v167.59s18.11 22.78 15.72 47.62" style="fill:#282726"/><rect width="6.04" height="43.97" x="831.58" y="510.48" class="cls-8" rx="3.02" ry="3.02"/><rect width="6.04" height="43.97" x="729.73" y="510.48" class="cls-8" rx="3.02" ry="3.02"/><rect width="6.04" height="43.97" x="719.82" y="510.48" class="cls-8" rx="3.02" ry="3.02"/><rect width="67.85" height="27.06" x="521.77" y="600.92" class="cls-13" rx="13.28" ry="13.28"/><path d="M576.34 601.92c6.78 0 12.28 5.5 12.28 12.28v.5c0 6.78-5.5 12.28-12.28 12.28h-41.29c-6.78 0-12.28-5.5-12.28-12.28v-.5c0-6.78 5.5-12.28 12.28-12.28zm0-2h-41.29c-7.87 0-14.28 6.41-14.28 14.28v.5c0 7.87 6.41 14.28 14.28 14.28h41.29c7.87 0 14.28-6.41 14.28-14.28v-.5c0-7.87-6.41-14.28-14.28-14.28" class="cls-15"/><rect width="209.16" height="95.47" x="679.73" y="566.08" class="cls-4" rx="46.96" ry="46.96"/><path d="m41.82 340.88 462.52-55.97 453.85 55.97z" class="cls-9"/><rect width="67.85" height="27.06" x="410.81" y="600.92" class="cls-13" rx="13.28" ry="13.28"/><path d="M465.38 601.92c6.78 0 12.28 5.5 12.28 12.28v.5c0 6.78-5.5 12.28-12.28 12.28h-41.29c-6.78 0-12.28-5.5-12.28-12.28v-.5c0-6.78 5.5-12.28 12.28-12.28zm0-2h-41.29c-7.87 0-14.28 6.41-14.28 14.28v.5c0 7.87 6.41 14.28 14.28 14.28h41.29c7.87 0 14.28-6.41 14.28-14.28v-.5c0-7.87-6.41-14.28-14.28-14.28" class="cls-15"/><path d="M728.36 650.1c-20.04 0-36.35-16.31-36.35-36.35s16.31-36.35 36.35-36.35 36.35 16.31 36.35 36.35-16.31 36.35-36.35 36.35" class="cls-11"/><path d="M728.36 578.15c19.66 0 35.6 15.94 35.6 35.6s-15.94 35.6-35.6 35.6-35.6-15.94-35.6-35.6 15.94-35.6 35.6-35.6m0-1.5c-20.46 0-37.1 16.64-37.1 37.1s16.64 37.1 37.1 37.1 37.1-16.64 37.1-37.1-16.64-37.1-37.1-37.1" class="cls-16"/><path d="M838.94 650.1c-20.04 0-36.35-16.31-36.35-36.35s16.31-36.35 36.35-36.35 36.35 16.31 36.35 36.35-16.31 36.35-36.35 36.35" class="cls-11"/><path d="M838.94 578.15c19.66 0 35.6 15.94 35.6 35.6s-15.94 35.6-35.6 35.6-35.6-15.94-35.6-35.6 15.94-35.6 35.6-35.6m0-1.5c-20.46 0-37.1 16.64-37.1 37.1s16.64 37.1 37.1 37.1 37.1-16.64 37.1-37.1-16.64-37.1-37.1-37.1" class="cls-16"/><path d="M363.5 292.21v113.17c0 78.12 64.67 141.65 142.72 138.3 72.76-3.12 130.8-63.1 130.8-136.63v-114.7c0-4.11-3.33-7.44-7.44-7.44H370.81c-4.03 0-7.3 3.27-7.3 7.3Z" style="fill:#f8f6ed"/><path d="M176.17 664.73a85.2 85.2 0 0 1-22.71-3.09c-.65-.17-1.32-.36-1.97-.57a84.65 84.65 0 0 1-56.18-55.63c-.38-1.21-.74-2.44-1.06-3.68-.26-.98-.51-1.97-.73-2.98a84 84 0 0 1-2.08-17.15c-.01-.54-.02-1.1-.02-1.66s0-1.1.02-1.66c.1-5.79.8-11.57 2.1-17.18.22-1 .46-1.98.73-2.97a84.68 84.68 0 0 1 57.23-59.27c.65-.2 1.31-.4 1.99-.57 1-.29 2.03-.55 3.07-.8a85 85 0 0 1 19.61-2.27c6.12 0 12.19.65 18.06 1.92.96.21 1.92.44 2.86.68 1.6.4 3.23.87 4.98 1.44 26.18 8.38 46.73 29.03 54.97 55.25a92 92 0 0 1 1.79 6.6c1.4 6.14 2.12 12.47 2.12 18.83s-.71 12.69-2.12 18.82c-.22 1-.46 1.98-.72 2.96-.29 1.13-.64 2.33-1.08 3.69-8.24 26.21-28.78 46.86-54.97 55.26-1.67.54-3.35 1.01-4.99 1.42-.93.24-1.88.46-2.84.68a85.4 85.4 0 0 1-18.07 1.93Z" class="cls-12"/><path d="M176.17 496.25c6.12 0 12.1.65 17.85 1.9.95.21 1.89.43 2.82.67 1.66.42 3.3.9 4.92 1.42 25.82 8.26 46.19 28.72 54.32 54.6.37 1.19.72 2.39 1.04 3.59a83.3 83.3 0 0 1 2.82 21.54c0 6.39-.72 12.61-2.09 18.6-.22.99-.46 1.96-.71 2.93a73 73 0 0 1-1.06 3.64c-8.13 25.87-28.5 46.33-54.32 54.61-1.62.52-3.26.99-4.92 1.4-.93.24-1.87.46-2.82.67a84 84 0 0 1-17.85 1.91c-6.67 0-13.15-.79-19.37-2.26-1.03-.24-2.05-.5-3.06-.79-.66-.17-1.31-.36-1.95-.56-26.38-8.01-47.26-28.71-55.52-54.98q-.57-1.8-1.05-3.63-.39-1.455-.72-2.94a82.4 82.4 0 0 1-2.06-16.95c-.01-.54-.02-1.09-.02-1.64s.01-1.09.02-1.64a82 82 0 0 1 2.07-16.98c.22-.99.46-1.96.72-2.93.32-1.21.66-2.4 1.04-3.59 8.27-26.29 29.15-46.97 55.52-54.99.64-.2 1.29-.39 1.95-.56 1.01-.29 2.03-.55 3.06-.8 6.22-1.47 12.7-2.24 19.37-2.24m0-2c-6.72 0-13.39.77-19.83 2.29-1.24.3-2.23.56-3.13.82-.63.16-1.29.35-2.02.58a85.7 85.7 0 0 0-56.83 56.3c-.36 1.14-.71 2.34-1.07 3.68-.28 1.03-.52 2.02-.74 3.01a84.4 84.4 0 0 0-2.12 17.38c-.01.56-.02 1.12-.02 1.67s.01 1.12.02 1.68c.1 5.83.81 11.67 2.11 17.36.22 1 .47 2.02.74 3.01.32 1.24.69 2.49 1.08 3.72a85.63 85.63 0 0 0 56.85 56.29c.71.22 1.38.41 2.01.58.98.28 2.01.55 3.13.81a86.5 86.5 0 0 0 19.82 2.31c6.16 0 12.31-.66 18.27-1.96 1.08-.24 2.02-.46 2.89-.69 1.63-.4 3.33-.89 5.03-1.43 26.49-8.5 47.28-29.4 55.62-55.91.44-1.38.79-2.6 1.09-3.74.3-1.16.53-2.11.73-3 1.42-6.2 2.14-12.61 2.14-19.03s-.72-12.84-2.14-19.05c-.26-1.12-.5-2.1-.75-3.01-.31-1.17-.67-2.4-1.06-3.67-8.34-26.54-29.13-47.44-55.62-55.91-1.77-.57-3.42-1.04-5.04-1.45-.86-.22-1.81-.45-2.88-.68a86.4 86.4 0 0 0-18.28-1.95Z" style="fill:#1e1e1e"/><path d="M259.94 579.97c0 6.39-.72 12.61-2.09 18.6-.22.99-.46 1.96-.71 2.93h-48.92c-6.29 0-11.38 5.09-11.38 11.38v48.27c-.93.24-1.87.46-2.82.67a84 84 0 0 1-17.85 1.91c-6.67 0-13.15-.79-19.37-2.26-1.03-.24-2.05-.5-3.06-.79v-47.79c0-6.29-5.09-11.38-11.38-11.38H95.22q-.39-1.455-.72-2.94a82.4 82.4 0 0 1-2.06-16.95c-.01-.54-.02-1.09-.02-1.64s.01-1.09.02-1.64a82 82 0 0 1 2.07-16.98c.22-.99.46-1.96.72-2.93h47.13c6.29 0 11.38-5.11 11.38-11.39v-47.75c1.01-.29 2.03-.55 3.06-.8 6.22-1.47 12.7-2.24 19.37-2.24 6.12 0 12.1.65 17.85 1.9.95.21 1.89.43 2.82.67v48.22c0 6.28 5.09 11.39 11.38 11.39h48.9a83.3 83.3 0 0 1 2.82 21.54" style="fill:#5e5e5e"/><path d="M189.07 579.97c0 1.35-.21 2.65-.59 3.87a12.92 12.92 0 0 1-8.35 8.4c-1.24.4-2.56.62-3.94.62s-2.56-.19-3.75-.56a12.89 12.89 0 0 1-8.54-8.46c-.39-1.22-.59-2.52-.59-3.87s.21-2.65.59-3.87c1.27-4.04 4.49-7.23 8.54-8.46 1.19-.36 2.45-.56 3.75-.56 1.37 0 2.7.21 3.94.62 3.97 1.27 7.1 4.41 8.35 8.4.39 1.22.59 2.52.59 3.87" class="cls-12"/><path d="m402.24 652.45 2.04-1.42c.68.94 2.04 1.61 3.69 1.61 1.86 0 3.15-.94 3.15-2.05 0-.73-.52-1.15-1.59-1.44l-1.47-.4c-1.88-.52-2.74-1.52-2.74-2.92 0-2.42 2.81-4.32 6.19-4.32 2.11 0 3.97.71 4.76 1.86l-1.99 1.46c-.61-.9-1.77-1.4-3.13-1.4-1.77 0-3.01.94-3.01 2.02 0 .75.52 1.21 1.59 1.5l1.47.4c1.86.5 2.74 1.48 2.74 2.86 0 2.48-2.95 4.36-6.3 4.36-2.38 0-4.55-.9-5.39-2.11Zm17.45-10.75h9.36l-.59 1.84h-6.57l-1.09 3.42h5.91l-.57 1.84h-5.94l-1.18 3.72h6.59l-.59 1.84h-9.36l4.01-12.67Zm12.39 0h2.79l-3.44 10.83h6.37l-.59 1.84h-9.13l4.01-12.67Zm11.38 0h9.36l-.59 1.84h-6.57l-1.09 3.42h5.91l-.57 1.84h-5.94l-1.18 3.72h6.59l-.59 1.84h-9.36l4.01-12.67Zm9.2 7.95c0-4.15 4.15-8.14 8.93-8.14 2.72 0 4.44 1.19 5.21 3.17l-2.47 1.11c-.59-1.54-1.47-2.28-3.1-2.28-3.26 0-5.64 3.21-5.64 6.18 0 1.86 1.09 2.88 3.1 2.88 1.56 0 3.13-.73 4.08-2.21l2.06 1.3c-1.34 1.88-3.85 2.9-6.3 2.9-3.9 0-5.87-2.21-5.87-4.91m19.69-6.11h-4.37l.59-1.84h11.53l-.59 1.84h-4.37l-3.42 10.83h-2.79zm65.54-1.84h4.33c3.58 0 5.3 1.27 5.3 3.11 0 2.04-1.81 3.34-4.8 3.57l-.02.04c1.75.15 2.63.88 2.63 2.13 0 .27-.05.61-.16.98l-.27.84c-.11.36-.2.79-.2 1.09 0 .35.09.61.27.9h-2.9c-.14-.21-.23-.5-.23-.88 0-.35.07-.67.2-1.11l.29-.9c.14-.4.2-.73.2-1.02 0-.9-.61-1.3-2.06-1.3h-2.15l-1.65 5.22h-2.79zm2.22 1.77-1.27 3.99h1.79c2.58 0 3.96-.77 3.96-2.36 0-1.06-.79-1.63-2.65-1.63zm8.81 7.2c0-.42.07-1.02.25-1.55l2.36-7.41h2.79l-2.42 7.66c-.14.46-.2.83-.2 1.13 0 1.34.95 2.07 2.63 2.07s3.1-.75 3.74-2.76l2.56-8.1h2.79l-2.56 8.08c-1.04 3.3-3.08 4.78-6.75 4.78-3.06 0-5.17-1.33-5.17-3.9Zm18.02-8.97h2.49l3.81 9.06 2.86-9.06h2.54l-4.01 12.67h-2.49l-3.81-9.06-2.85 9.06h-2.54l4.01-12.67Z" class="cls-4"/><path d="m148.69 412.91-12.56-15.05-5.7 6.53 2.73 2.5-3.27 18.11 6.56-2.88-3.39-3.14 1.88-9.58 13.23 15.25 4.57-20.8 4.63-2.8-5.59-3.4-3.09 15.25Zm11.06-12.53c.4.45.89 1.02.78 1.63l-1.54 8.13c-.12.64-.68 1.1-1.13 1.42-.44.32-.99.4-1.53.49.47.18.94.37 1.25.71s.75.83.64 1.34l-1.77 7.92c-.16.73-.91 1.19-1.44 1.59s-1.13.6-1.74.8h21.14l1.48-7.93c-.81 1.65-1.63 3.29-3.01 4.35-1.38 1.05-3.29 1.98-5.3 1.98h-3.87l1.93-9.81c.7-.24 1.49-.22 2.21.13s1.36 1.02 1.93 1.75 1.08 1.52 1.48 2.35l2.02-10.31c-.7.76-1.46 1.45-2.29 2.06-.83.62-1.72 1.17-2.55 1.44s-1.61.27-2.33.06l2-9.66 3.12-.03c1.41-.01 2.82-.18 3.96.75s2.01 2.89 2.88 4.85l1.54-7.07h-21.49c.61.31 1.21.61 1.61 1.06Zm25.32 2.48c-1.58 1.35-3 3.14-3.96 5.09s-1.43 4.07-1.45 6.01.4 3.71 1.2 5.33c.79 1.62 1.95 3.09 3.37 4.09s3.12 1.52 4.68 1.76 2.97.2 4.1.04c1.12-.16 1.95-.43 2.7-.85l4.46-9.27c-1.15.54-2.33 1.04-3.55 1.54s-2.48 1.01-3.82 1.18c-1.34.16-2.76-.03-4.01-.77-1.26-.75-2.35-2.05-2.92-3.52-.57-1.46-.61-3.08-.21-4.55.4-1.46 1.24-2.77 2.26-3.91s2.22-2.12 3.34-2.77 2.15-.96 3.2-1.03l3.37 4.85 3.87-1.45-2.71-6.65c-.77-.03-1.54 0-2.45.1s-1.96.27-3.06.55c-1.09.28-2.22.67-3.66 1.32-1.43.65-3.17 1.56-4.75 2.91" style="fill:#cb3532;fill-rule:evenodd"/><path d="M126.58 481.01c38.51-25.97 111.8-15.34 142.51 32.88 30.6 48.04 21.08 115.16-18.31 150.4" style="fill:none;stroke:#cb3532;stroke-linecap:round;stroke-miterlimit:10;stroke-width:9px"/><path d="m728.22 500.22-19.79 13.69v37.71c0 3.23 2.62 5.85 5.85 5.85h27.88c3.23 0 5.85-2.62 5.85-5.85v-37.71zm110.72 0-19.79 13.69v37.71c0 3.23 2.62 5.85 5.85 5.85h27.88c3.23 0 5.85-2.62 5.85-5.85v-37.71z" class="cls-4"/><path d="M742.5 519.83v-3.29h-29.3v3.29h4.33v27.91h-4.33v3.29h29.3v-3.29h-4.85v-27.91zm-11.44 27.92h-6.94v-27.91h6.94zm116.38-27.92v-3.29h-16.99v3.29h5.2v27.92h-5.2v3.29h16.99v-3.29h-5.2v-27.92z" style="fill:#201f1d"/><path d="M215.87 407.53h3.46c2.63 0 4.4 1.29 4.4 3.36 0 2.84-2.44 4.45-6.18 4.45h-1.4l-1.31 4.86h-2.36l3.4-12.67Zm1.88 1.77-1.15 4.28h1.23c2.28 0 3.42-.94 3.42-2.51 0-1.13-.67-1.77-2.32-1.77h-1.17Zm9.18-1.77h2.36l-3.4 12.67h-2.36zm7.68 7.08h4.86l-.46 1.75h-4.86zm13.98-7.08h3.46c2.63 0 4.4 1.29 4.4 3.36 0 2.84-2.44 4.45-6.18 4.45h-1.4l-1.31 4.86h-2.36l3.4-12.67Zm1.88 1.77-1.15 4.28h1.23c2.28 0 3.42-.94 3.42-2.51 0-1.13-.67-1.77-2.32-1.77h-1.17Zm9.18-1.77h4.07c3.19 0 5.09 2.34 5.09 5.11 0 4.26-3.34 7.56-7.64 7.56h-4.91l3.4-12.67Zm1.88 1.8-2.44 9.06h2.28c2.99 0 4.95-2.78 4.95-5.93 0-1.92-1.09-3.13-2.96-3.13h-1.84Zm8.56 6.45c0-3.99 2.9-8.45 6.43-8.45 2.3 0 3.63 2.02 3.63 4.61 0 3.99-2.9 8.45-6.43 8.45-2.3 0-3.63-2.02-3.63-4.61m7.77-4.05c0-1.55-.52-2.53-1.61-2.53-2.15 0-3.88 3.94-3.88 6.8 0 1.55.54 2.53 1.61 2.53 2.15 0 3.88-3.94 3.88-6.8m3.56 4.05c0-3.99 2.9-8.45 6.43-8.45 2.3 0 3.63 2.02 3.63 4.61 0 3.99-2.9 8.45-6.43 8.45-2.3 0-3.63-2.02-3.63-4.61m7.77-4.05c0-1.55-.52-2.53-1.61-2.53-2.15 0-3.88 3.94-3.88 6.8 0 1.55.54 2.53 1.61 2.53 2.15 0 3.88-3.94 3.88-6.8m8.3-.73c-.92.9-2.28 1.73-3.63 2.17l-.35-1.92c1.88-.67 3.88-2.03 5.45-3.72h1.69l-3.4 12.67h-2.23l2.46-9.19Z" class="cls-4"/><path d="m472 484.88 3.97-2.33v-8.07h10.81v9.85h18.2v-9.85h27.63v5.2h-17.92v3.83h15.46l-3.28 3.29h-12.18v5.74h17.92v5.61h-28.32v-8.48h-17.65v7.8h-10.53v-11.15zm5.47 21.42.9-.73c.46.39 1.15.76 2.48.76 1.19 0 1.96-.3 1.96-.87 0-.41-.38-.7-1.5-.84l-1.36-.17c-1.46-.18-2.13-.86-2.13-1.6 0-1.12 1.54-1.93 3.38-1.93 1.31 0 2.42.39 2.96 1l-.9.73c-.44-.49-1.25-.81-2.25-.81s-1.67.31-1.67.9c0 .48.42.73 1.52.87l1.21.15c1.54.2 2.27.82 2.27 1.57 0 1.15-1.61 1.91-3.65 1.91-1.42 0-2.69-.37-3.21-.94Zm10.64.7-3.4-5.94h1.61l2.61 4.76 2.67-4.76h1.44l-5.12 8.99h-1.57l1.77-3.05Zm5.22-.7.9-.73c.46.39 1.15.76 2.48.76 1.19 0 1.96-.3 1.96-.87 0-.41-.38-.7-1.5-.84l-1.36-.17c-1.46-.18-2.13-.86-2.13-1.6 0-1.12 1.54-1.93 3.38-1.93 1.31 0 2.42.39 2.96 1l-.9.73c-.44-.49-1.25-.81-2.25-.81s-1.67.31-1.67.9c0 .48.42.73 1.52.87l1.21.15c1.54.2 2.27.82 2.27 1.57 0 1.15-1.61 1.91-3.65 1.91-1.42 0-2.69-.37-3.21-.94Zm8.74-1.49v-2.85h-1.61v-.79h.21c1.38 0 1.69-.49 1.69-1.27v-.76h.23c.58 0 .83-.01 1.06-.08v2h3.24v.9h-3.24v3.01c0 .94.63 1.32 1.4 1.32.67 0 1.15-.24 1.48-.59l1.08.53c-.46.65-1.42 1.01-2.55 1.01-1.82 0-2.98-.96-2.98-2.43Zm5.47-.7c0-1.71 1.88-3.19 4.11-3.19s3.94 1.39 3.94 3.37h-6.47c.04 1.11 1.09 2.01 2.86 2.01 1.19 0 1.94-.41 2.34-1.08l1.17.46c-.61.94-1.82 1.56-3.51 1.56-2.59 0-4.43-1.43-4.43-3.13Zm1.59-.59h4.91c-.15-.93-1.08-1.73-2.46-1.73s-2.3.8-2.46 1.73Zm8.09-2.46h.52c.58 0 .83-.01 1.06-.08v1.31c.46-.84 1.5-1.36 2.98-1.36 1.4 0 2.32.53 2.65 1.45.46-.9 1.55-1.45 3.11-1.45 1.77 0 2.78.84 2.78 2.21v3.98h-1.57v-3.81c0-.97-.54-1.36-1.67-1.36-1.54 0-2.51.7-2.51 1.95v3.22H523v-3.81c0-.97-.54-1.36-1.67-1.36-1.54 0-2.51.7-2.51 1.95v3.22h-1.57v-6.04Z" class="cls-9"/></svg>