<?xml version="1.0" encoding="UTF-8"?>
<svg id="Layer_1" data-name="Layer 1" xmlns="http://www.w3.org/2000/svg" xmlns:xlink="http://www.w3.org/1999/xlink" viewBox="0 0 1000 1000">
  <defs>
    <style>
      .cls-1 {
        fill: #9083a0;
      }

      .cls-2 {
        fill: #213f7b;
      }

      .cls-3 {
        fill: #057db4;
      }

      .cls-4 {
        fill: url(#radial-gradient-3);
      }

      .cls-4, .cls-5, .cls-6, .cls-7, .cls-8, .cls-9, .cls-10, .cls-11, .cls-12, .cls-13 {
        stroke-miterlimit: 10;
      }

      .cls-4, .cls-5, .cls-7, .cls-8, .cls-10, .cls-12 {
        stroke-width: 2.11px;
      }

      .cls-4, .cls-7, .cls-8, .cls-9, .cls-10, .cls-12 {
        stroke: #4c4c4d;
      }

      .cls-5 {
        fill: #e0dbd5;
        stroke: #40403f;
      }

      .cls-14, .cls-15, .cls-16, .cls-17 {
        fill: #fff;
      }

      .cls-18 {
        fill: #303030;
      }

      .cls-15, .cls-19 {
        fill-rule: evenodd;
      }

      .cls-20 {
        fill: #f0973b;
      }

      .cls-6 {
        stroke-width: 4.76px;
      }

      .cls-6, .cls-9, .cls-11, .cls-13 {
        fill: none;
      }

      .cls-6, .cls-11 {
        stroke: #fff;
      }

      .cls-21, .cls-19 {
        fill: #eab84b;
      }

      .cls-7, .cls-22 {
        fill: #f36d21;
      }

      .cls-23 {
        fill: #81729b;
      }

      .cls-8 {
        fill: url(#radial-gradient-5);
      }

      .cls-9 {
        opacity: .29;
        stroke-width: 1.58px;
      }

      .cls-16 {
        opacity: .1;
      }

      .cls-10 {
        fill: url(#radial-gradient-6);
      }

      .cls-24 {
        opacity: .71;
      }

      .cls-11 {
        stroke-width: 1.7px;
      }

      .cls-12 {
        fill: url(#radial-gradient-4);
      }

      .cls-25 {
        fill: url(#radial-gradient-2);
      }

      .cls-25, .cls-26 {
        opacity: .56;
      }

      .cls-17 {
        opacity: .09;
      }

      .cls-26 {
        fill: url(#radial-gradient);
      }

      .cls-13 {
        stroke: #333;
        stroke-width: 2px;
      }

      .cls-27 {
        fill: #665fa8;
      }
    </style>
    <radialGradient id="radial-gradient" cx="752.68" cy="574.92" fx="752.68" fy="574.92" r="186.64" gradientUnits="userSpaceOnUse">
      <stop offset=".8" stop-color="#f36d21"/>
      <stop offset=".81" stop-color="#f36e20" stop-opacity=".98"/>
      <stop offset=".83" stop-color="#f37220" stop-opacity=".92"/>
      <stop offset=".85" stop-color="#f47820" stop-opacity=".83"/>
      <stop offset=".87" stop-color="#f5811f" stop-opacity=".69"/>
      <stop offset=".88" stop-color="#f68d1e" stop-opacity=".52"/>
      <stop offset=".89" stop-color="#f7921e" stop-opacity=".45"/>
      <stop offset=".92" stop-color="#f5851f" stop-opacity=".64"/>
      <stop offset=".94" stop-color="#f47820" stop-opacity=".83"/>
      <stop offset=".97" stop-color="#f37020" stop-opacity=".95"/>
      <stop offset=".98" stop-color="#f36d21"/>
    </radialGradient>
    <radialGradient id="radial-gradient-2" cx="752.68" fx="752.68" r="150.81" xlink:href="#radial-gradient"/>
    <radialGradient id="radial-gradient-3" cx="114.56" cy="332.08" fx="114.56" fy="332.08" r="46.66" gradientUnits="userSpaceOnUse">
      <stop offset="0" stop-color="#e51b27"/>
      <stop offset=".33" stop-color="#e21a26"/>
      <stop offset=".5" stop-color="#da1a24"/>
      <stop offset=".63" stop-color="#cd1920"/>
      <stop offset=".75" stop-color="#ba181b"/>
      <stop offset=".85" stop-color="#a11614"/>
      <stop offset=".94" stop-color="#83140c"/>
      <stop offset="1" stop-color="#6e1306"/>
    </radialGradient>
    <radialGradient id="radial-gradient-4" cx="237.29" cy="270.37" fx="237.29" fy="270.37" r="46.66" gradientUnits="userSpaceOnUse">
      <stop offset="0" stop-color="#dfaf26"/>
      <stop offset=".43" stop-color="#ddad25"/>
      <stop offset=".6" stop-color="#d5a724"/>
      <stop offset=".73" stop-color="#c99d22"/>
      <stop offset=".83" stop-color="#b88e1f"/>
      <stop offset=".92" stop-color="#a17b1b"/>
      <stop offset="1" stop-color="#876517"/>
    </radialGradient>
    <radialGradient id="radial-gradient-5" cx="366.09" cy="271.42" fx="366.09" fy="271.42" r="46.66" gradientUnits="userSpaceOnUse">
      <stop offset="0" stop-color="#417fb7"/>
      <stop offset=".28" stop-color="#3e7cb3"/>
      <stop offset=".5" stop-color="#3676aa"/>
      <stop offset=".69" stop-color="#286a99"/>
      <stop offset=".87" stop-color="#165a82"/>
      <stop offset="1" stop-color="#054c6e"/>
    </radialGradient>
    <radialGradient id="radial-gradient-6" cx="480.04" cy="332.08" fx="480.04" fy="332.08" r="46.66" gradientUnits="userSpaceOnUse">
      <stop offset="0" stop-color="#459d3d"/>
      <stop offset=".29" stop-color="#449a3c"/>
      <stop offset=".49" stop-color="#43913b"/>
      <stop offset=".65" stop-color="#408239"/>
      <stop offset=".8" stop-color="#3c6c37"/>
      <stop offset=".94" stop-color="#385134"/>
      <stop offset="1" stop-color="#364433"/>
    </radialGradient>
  </defs>
  <path class="cls-27" d="M539.2,395.43c13.6-14.12,21.92-33.36,21.77-54.55-.3-41.21-33.32-75.42-74.5-77.12-3.1-.13-6.16-.07-9.18.15-17.48,1.32-34.32-7.76-42.53-23.26-13.04-24.64-38.93-41.43-68.76-41.43-16.2,0-31.25,4.96-43.7,13.44-12.41,8.45-28.68,8.45-41.09,0-12.45-8.48-27.5-13.44-43.7-13.44-29.17,0-54.59,16.07-67.89,39.83-8.27,14.77-25,22.83-41.76,20.39-4.04-.59-8.18-.87-12.39-.81-42.44.57-76.89,35.68-76.7,78.13.09,19.68,7.49,37.62,19.63,51.26,5.32,5.98,6.34,14.67,2.6,21.75-19.86,37.59-31.01,80.49-30.74,126.03.89,146.35,120.8,265.25,267.15,264.97,147.01-.29,266.09-119.55,266.09-266.62,0-42.48-9.95-82.62-27.62-118.26-3.38-6.82-1.97-14.98,3.32-20.46Z"/>
  <path class="cls-22" d="M751.87,356.86c120.33,0,217.88,97.55,217.88,217.88s-97.55,217.88-217.88,217.88c-56.67,0-108.28-21.63-147.03-57.09,0,0-28.7-29.85-38.3-41.85-9.6-12-14.06-24.51-42.83-19.3-2.88-12-2.28-51.72,8.76-92.03s6.72-72.47,5.52-90.7.23-44.26,6.23-57.22c8.4,4.56,29.76,14.75,54-9.49,24.24-24.24,47.75-39.11,77.74-53.99s75.92-14.08,75.92-14.08Z"/>
  <path class="cls-26" d="M752.68,761.57c-102.92,0-186.64-83.73-186.64-186.64s83.73-186.64,186.64-186.64,186.64,83.73,186.64,186.64-83.73,186.64-186.64,186.64ZM752.68,426.5c-81.84,0-148.42,66.58-148.42,148.42s66.58,148.42,148.42,148.42,148.42-66.58,148.42-148.42-66.58-148.42-148.42-148.42Z"/>
  <path class="cls-25" d="M752.68,725.73c-83.15,0-150.81-67.65-150.81-150.81s67.65-150.81,150.81-150.81,150.81,67.65,150.81,150.81-67.65,150.81-150.81,150.81ZM752.68,455c-66.13,0-119.92,53.8-119.92,119.92s53.8,119.92,119.92,119.92,119.92-53.8,119.92-119.92-53.8-119.92-119.92-119.92Z"/>
  <path class="cls-5" d="M540.38,330.24c-1.27-29.3-24.35-53.43-53.56-56.04-7.51-.67-14.75.12-21.5,2.05-.06.01-.11.02-.16.03-39.38,9.44-41.32-12.03-41.32-12.03,0,0-.01,0-.02,0-3.82-28.83-28.48-51.07-58.36-51.07-18.75,0-35.44,8.77-46.23,22.43-.02.01-.04.03-.05.04-15,13.48-35.73.9-35.73.9,0,0,0,0,0,0-10.75-14.2-27.79-23.37-46.97-23.37-25.33,0-46.92,16-55.23,38.44,0,.02-.01.03-.02.04-14.6,36.32-49.19,25.84-49.19,25.84v.02c-6.74-1.91-13.95-2.68-21.43-2.01-29.43,2.65-52.58,27.16-53.54,56.69-.91,28.16,17.96,52.06,43.77,58.89h0c36.51,15.47,25.95,55.27,24.47,58.04s-18.54,48.21-18.67,79.39c-.44,99.93,81.01,181.9,180.94,182.06,100.24.17,181.55-81.04,181.55-181.24,0-14.28-1.66-28.17-4.78-41.49-.27-1.47-.65-3-1.14-4.61-.02-.06-.04-.13-.06-.19-.71-2.69-1.47-5.35-2.3-7.99-14.51-54.35,4.16-74.27,20-81.57,2.53-1.16,5.23-1.86,7.99-2.2,3.31-.41,6.53-1.09,9.65-2.02.02,0,.03,0,.03,0,0,0,0,0,0,0,25.04-7.52,43.07-31.25,41.87-59.01Z"/>
  <circle class="cls-4" cx="114.56" cy="332.08" r="46.66"/>
  <circle class="cls-12" cx="237.29" cy="270.37" r="46.66"/>
  <circle class="cls-8" cx="366.09" cy="271.42" r="46.66"/>
  <circle class="cls-10" cx="480.04" cy="332.08" r="46.66"/>
  <circle class="cls-7" cx="288.16" cy="530.88" r="144.17"/>
  <circle class="cls-9" cx="288.16" cy="530.88" r="172.26"/>
  <g>
    <path class="cls-1" d="M109.64,680.32c-15.07,0-27.34-12.26-27.34-27.34s12.26-27.34,27.34-27.34,27.34,12.26,27.34,27.34-12.26,27.34-27.34,27.34Z"/>
    <path class="cls-18" d="M109.64,626.39c14.68,0,26.59,11.9,26.59,26.59s-11.9,26.59-26.59,26.59-26.59-11.9-26.59-26.59,11.9-26.59,26.59-26.59M109.64,624.89c-15.49,0-28.09,12.6-28.09,28.09s12.6,28.09,28.09,28.09,28.09-12.6,28.09-28.09-12.6-28.09-28.09-28.09h0Z"/>
  </g>
  <g>
    <path class="cls-1" d="M159.55,730.63c-15.07,0-27.34-12.26-27.34-27.34s12.26-27.34,27.34-27.34,27.34,12.26,27.34,27.34-12.26,27.34-27.34,27.34Z"/>
    <path class="cls-18" d="M159.55,676.7c14.68,0,26.59,11.9,26.59,26.59s-11.9,26.59-26.59,26.59-26.59-11.9-26.59-26.59,11.9-26.59,26.59-26.59M159.55,675.2c-15.49,0-28.09,12.6-28.09,28.09s12.6,28.09,28.09,28.09,28.09-12.6,28.09-28.09-12.6-28.09-28.09-28.09h0Z"/>
  </g>
  <g>
    <path class="cls-1" d="M287.39,775.87c-34.84,0-51.24-26.29-57.91-41.96-1.06-2.48-.81-5.19.67-7.43,1.48-2.23,3.93-3.56,6.56-3.56.5,0,1.02.05,1.52.15,14.06,2.68,31.68,4.16,49.6,4.16s35-1.45,48.64-4.07c.51-.1,1.03-.15,1.54-.15,2.65,0,5.11,1.34,6.59,3.58,1.48,2.24,1.72,4.94.66,7.41-6.68,15.64-23.08,41.88-57.88,41.88Z"/>
    <path class="cls-18" d="M236.71,723.67c.45,0,.91.04,1.38.13,14.6,2.78,32.22,4.17,49.74,4.17s34.65-1.36,48.78-4.08c.48-.09.95-.14,1.4-.14,4.96,0,8.62,5.11,6.56,9.94-6.84,16.02-23.07,41.42-57.19,41.42s-50.4-25.49-57.22-41.51c-2.05-4.82,1.59-9.95,6.54-9.95M236.71,722.17s0,0,0,0c-2.89,0-5.57,1.46-7.19,3.9-1.62,2.45-1.89,5.42-.73,8.13,6.75,15.84,23.33,42.42,58.6,42.42s51.81-26.52,58.56-42.34c1.16-2.71.89-5.67-.72-8.12-1.62-2.45-4.31-3.91-7.21-3.91-.56,0-1.13.05-1.69.16-13.59,2.62-30.82,4.06-48.5,4.06s-35.44-1.47-49.46-4.14c-.55-.11-1.11-.16-1.67-.16h0Z"/>
  </g>
  <circle class="cls-23" cx="752.68" cy="574.92" r="111.89"/>
  <path class="cls-13" d="M523.7,674.37c-2.88-12-2.28-51.72,8.76-92.03s6.72-72.47,5.52-90.7.23-44.26,6.23-57.22"/>
  <ellipse class="cls-17" cx="717.63" cy="537.85" rx="48.31" ry="29.79" transform="translate(-179.04 553.91) rotate(-37.88)"/>
  <ellipse class="cls-17" cx="237.29" cy="461.87" rx="72.74" ry="44.85" transform="translate(-233.58 242.99) rotate(-37.88)"/>
  <ellipse class="cls-16" cx="98.59" cy="311.59" rx="20.73" ry="12.78" transform="translate(-170.54 126.18) rotate(-37.88)"/>
  <ellipse class="cls-16" cx="219.14" cy="248.73" rx="20.73" ry="12.78" transform="translate(-106.54 186.94) rotate(-37.88)"/>
  <ellipse class="cls-16" cx="347.94" cy="248.73" rx="20.73" ry="12.78" transform="translate(-79.41 266.02) rotate(-37.88)"/>
  <ellipse class="cls-16" cx="461.9" cy="311.59" rx="20.73" ry="12.78" transform="translate(-94 349.23) rotate(-37.88)"/>
  <path class="cls-14" d="M106.37,658.49c0-4.1,2.34-5.6,4.5-7.01,1.85-1.23,3.57-2.34,3.57-4.94,0-2.95-2.03-4.67-4.94-4.67s-4.98,1.72-4.98,4.76v.35h-3.92v-.48c0-5.2,3.84-8.51,9.04-8.51s9.04,3.22,9.04,8.51c0,4.63-2.6,6.13-4.89,7.5-1.85,1.1-3.53,2.12-3.53,4.5v.53h-3.88v-.53ZM105.49,665.06c0-1.68,1.23-2.91,2.91-2.91s2.91,1.23,2.91,2.91-1.23,2.91-2.91,2.91-2.91-1.24-2.91-2.91Z"/>
  <g>
    <rect class="cls-11" x="149.36" y="689.27" width="17.97" height="29.09"/>
    <path class="cls-14" d="M149.36,688.49v29.09l11.12,4.98v-29.09l-11.12-4.98ZM158.14,708.34c-.36,0-.65-.38-.65-.84s.29-.84.65-.84.65.38.65.84-.29.84-.65.84Z"/>
  </g>
  <rect class="cls-6" x="265.43" y="739.49" width="43.88" height="19.38" rx="9.2" ry="9.2"/>
  <g>
    <path class="cls-14" d="M279.55,752.52h-4.06l-.65,1.92h-2.77l3.93-10.87h3.07l3.93,10.87h-2.8l-.65-1.92ZM278.87,750.47l-1.35-3.98-1.33,3.98h2.68Z"/>
    <path class="cls-14" d="M291.93,749.8c.38.49.57,1.05.57,1.68,0,.91-.32,1.63-.95,2.16-.63.53-1.52.8-2.66.8h-5.06v-10.87h4.89c1.1,0,1.97.25,2.59.76s.94,1.19.94,2.06c0,.64-.17,1.17-.5,1.59-.34.42-.78.72-1.34.88.63.13,1.14.45,1.52.94ZM286.47,747.96h1.73c.43,0,.77-.09,1-.29s.35-.47.35-.84-.12-.66-.35-.85c-.23-.2-.56-.29-1-.29h-1.73v2.28ZM289.46,752c.24-.2.36-.49.36-.88s-.13-.68-.38-.9-.6-.33-1.05-.33h-1.92v2.4h1.95c.44,0,.79-.1,1.03-.3Z"/>
    <path class="cls-14" d="M293.91,746.11c.46-.84,1.11-1.5,1.94-1.97s1.77-.71,2.83-.71c1.29,0,2.39.34,3.31,1.02.92.68,1.53,1.61,1.84,2.79h-2.91c-.22-.45-.52-.8-.92-1.04-.4-.24-.85-.36-1.35-.36-.82,0-1.48.28-1.98.85s-.76,1.33-.76,2.28.25,1.71.76,2.28c.51.57,1.17.85,1.98.85.51,0,.96-.12,1.35-.36s.7-.58.92-1.04h2.91c-.31,1.18-.92,2.1-1.84,2.78-.92.68-2.02,1.01-3.31,1.01-1.05,0-2-.23-2.83-.7s-1.48-1.12-1.94-1.96c-.46-.84-.7-1.79-.7-2.86s.23-2.03.7-2.87Z"/>
  </g>
  <g>
    <path class="cls-21" d="M240.77,610.54l-2.06,3.63,7.61,4.33-1.92,3.37-7.61-4.33-2.24,3.93,8.61,4.9-1.99,3.5-14.29-8.13,10.2-17.92,14.29,8.13-1.99,3.5-8.61-4.9Z"/>
    <path class="cls-21" d="M308.11,620.47l.9,4.13,9.18-2.01.84,3.84-9.18,2.01.98,4.47,10.38-2.28.87,3.98-17.23,3.78-4.47-20.4,17.23-3.78.87,3.98-10.38,2.28Z"/>
    <path class="cls-21" d="M268.12,638.89l-4.86-1.38-4.61-14.71-3.52,12.4-4.86-1.38,5.71-20.1,4.86,1.38,4.59,14.76,3.54-12.46,4.86,1.38-5.71,20.1Z"/>
    <path class="cls-21" d="M296.67,618.9v4.08h-6.72v16.82h-6.18v-16.82h-6.72v-4.08h19.62Z"/>
    <path class="cls-21" d="M342.08,625.28l-7.73-4.87-1.23.59,3.36,6.98-5.12,2.46-8.9-18.48,8.59-4.14c1.66-.8,3.19-1.22,4.6-1.28,1.41-.05,2.62.22,3.63.83,1.01.61,1.77,1.46,2.29,2.54.59,1.23.73,2.52.4,3.86-.32,1.34-1.16,2.59-2.5,3.73l8.37,4.98-5.78,2.78ZM331.59,617.81l3.17-1.53c.94-.45,1.54-.99,1.82-1.62.27-.63.23-1.31-.12-2.05s-.84-1.14-1.5-1.32c-.66-.18-1.46-.04-2.4.41l-3.17,1.53,2.21,4.58Z"/>
  </g>
  <path class="cls-15" d="M253.95,439.23l-6.58-12.49h4.46c.48,0,.87.18,1.09.59l4.93,10.15,2.49-8.29c.57-1.34,1.68-2.29,3.21-2.29h5.25v3.4c-1.03,0-2.06,0-3.09,0-.55,0-1.19.26-1.34.72l-3.39,10.25h-4.11c-1.36,0-2.32-.89-2.92-2.05h0ZM274.49,441.3c-.64-.02-1.84-.16-2.68-.78-.83-.62-1.26-1.72-1.25-2.65v-14.07h4.65l.02,1.64c.01.95.44,1.57,1.23,1.88.47.19,1.11.24,1.78.23l-.05,2.82h-2.95v5.93c.24,1.85,1.49,1.63,2.98,1.52v2.94c-1.35.42-2.36.53-3.72.53h0ZM278.91,434.2c-.03-2.52.6-4.32,1.85-5.56,1.33-1.31,3.4-1.91,6.25-1.96,3.46.02,6.76,1.17,7.43,5.26.15.92.18,2.1.02,2.99h-9.98c-.42,0-.58.06-.63.55-.07.69.11,1.32.48,1.8.51.67,1.35,1.08,2.32,1.07.66,0,1.51-.18,1.92-.71.58-.77.61-1.28,1.78-1.27l3.9.04c-.28,1.68-1.18,2.9-2.38,3.68-1.45.94-3.34,1.27-5.09,1.28-2.77.02-4.86-.71-6.26-2.31-1.02-1.16-1.59-2.81-1.62-4.87h0ZM298.04,439.55c-1.66-1.43-2.21-3.22-2.21-5.34s.34-3.95,1.86-5.47c1.55-1.56,3.78-2.05,6.18-2.05,1.74,0,3.79.44,5.18,1.52.94.73,1.59,1.88,1.88,3.45h-3.77c-.87,0-1.35-.16-1.73-.83-.43-.76-1.14-.97-1.86-.96-1.21.01-1.92.85-2.28,1.87-.24.66-.34,1.39-.34,2.04,0,.88.11,2.02.54,2.91.39.81,1.02,1.41,2.05,1.44,1.27.04,1.64-.46,2.06-1.17.33-.56.79-.59,1.51-.59l3.77.04c-.35,1.8-1.13,2.96-2.34,3.72-1.55.98-3.22,1.26-4.97,1.24-2.22-.02-3.92-.43-5.54-1.83h0ZM325.07,441.19h-2.83v-9.07c0-1.67-1.47-2.18-2.52-2.2-1.83-.04-3.01.69-3.01,2.48v8.78h-4.63v-16.82c0-1.45.85-2.88,2.45-2.88h2.17v6.46c1.36-1.03,3.01-1.39,4.76-1.28,2.72.17,5.38,1.64,5.38,5.02v8c0,1.08-.89,1.5-1.78,1.5h0ZM289.89,432.41h-5.27c-.52,0-.71-.21-.67-.68.12-1.52,1.53-2.26,2.98-2.21,1.69.05,2.81.92,2.96,2.9Z"/>
  <path class="cls-19" d="M265.61,589.29l6.23-5.51s8.93,11.32,9.77,13.61c2.29-2.08,27.63-23.58,46.13-27.84-4.99,4.16-28.05,16.41-46.13,39.27-2.7-2.91-16-19.53-16-19.53Z"/>
  <g class="cls-24">
    <g>
      <path class="cls-2" d="M245.46,688.58c-1.64-.42-2.46-.63-4.1-1.09-.78-.22-1.12-1.4-.76-2.63.69-2.39,1.04-3.58,1.74-5.97.34.1.51.15.86.25-.77,2.72-1.16,4.07-1.93,6.79,1.82.52,2.73.76,4.56,1.23-.15.58-.22.86-.36,1.44Z"/>
      <path class="cls-2" d="M252.98,690.29c-2.21-.45-3.3-.69-5.5-1.22-.79-.19-1.17-1.35-.86-2.6.38-1.51.57-2.27.94-3.78.31-1.25,1.16-2.1,1.91-1.92,2.08.5,3.12.73,5.21,1.15-.12.58-.18.87-.3,1.46-2.31-.47-3.46-.73-5.75-1.28-.19.79-.29,1.19-.48,1.99,2.32.56,3.49.82,5.83,1.3-.12.58-.18.87-.3,1.46-2.36-.48-3.54-.74-5.88-1.31-.19.79-.29,1.19-.48,1.98,2.37.58,3.57.84,5.95,1.33-.12.58-.18.87-.3,1.46Z"/>
      <path class="cls-2" d="M262.39,691.92c-.46-.07-.7-.1-1.16-.17-.23-.85-.35-1.27-.57-2.12-1.9-.3-2.85-.46-4.75-.82-.49.73-.74,1.09-1.24,1.81-.46-.09-.69-.13-1.16-.23,1.99-2.79,2.95-4.2,4.82-7.04.3-.45.7-.76,1.08-.69.39.07.66.49.78,1.01.81,3.3,1.25,4.95,2.2,8.25ZM260.23,688.06c-.43-1.7-.63-2.56-1.02-4.26-.94,1.48-1.42,2.21-2.39,3.68,1.36.25,2.05.37,3.41.59Z"/>
      <path class="cls-2" d="M269.93,692.83c-.37-.04-.56-.05-.93-.09.11-1.03.16-1.55.26-2.59-2.04-.21-3.05-.33-5.08-.6-.14,1.03-.21,1.55-.35,2.58-.37-.05-.55-.07-.92-.13.47-3.38.71-5.08,1.18-8.46,2.11.3,3.16.42,5.28.65.76.08,1.27,1.17,1.15,2.45-.05.52-.07.78-.12,1.29-.07.71-.35,1.24-.73,1.51.32.34.49.92.43,1.63-.07.7-.1,1.05-.17,1.76ZM269.42,688.67c.12-1.18.18-1.77.3-2.96-1.98-.2-2.97-.32-4.94-.58-.16,1.18-.24,1.77-.4,2.94,2.01.27,3.02.39,5.04.59Z"/>
      <path class="cls-2" d="M278.5,684.87c-.13,2.8-.19,4.2-.32,7-.04.93-.54,1.65-1.12,1.62-.29-.02-.54-.22-.72-.54-1.59-2.94-2.34-4.42-3.77-7.4-.25,2.98-.38,4.47-.62,7.45-.37-.03-.56-.05-.93-.08.25-2.79.38-4.19.63-6.98.08-.93.59-1.62,1.14-1.58.27.02.51.23.67.55,1.44,2.97,2.2,4.45,3.79,7.38.15-2.99.23-4.48.39-7.46.35.02.53.03.88.04Z"/>
      <path class="cls-2" d="M280.11,693.49c-.37-.01-.56-.02-.93-.03.13-3.41.2-5.12.34-8.54.35.01.53.02.88.03-.12,3.41-.17,5.12-.29,8.54Z"/>
      <path class="cls-2" d="M288.16,685.02c.05,2.8.07,4.2.11,7.01.02.93-.44,1.68-1.02,1.69-.29,0-.55-.18-.75-.49-1.77-2.84-2.61-4.27-4.23-7.15-.06,2.99-.1,4.48-.16,7.47-.37,0-.56-.01-.93-.02.08-2.8.11-4.2.19-7.01.03-.93.49-1.66,1.04-1.65.28,0,.52.2.7.51,1.62,2.87,2.47,4.3,4.24,7.13-.03-2.99-.05-4.48-.08-7.47.35,0,.53,0,.88-.01Z"/>
      <path class="cls-2" d="M296.27,690.91c.08,1.28-.49,2.36-1.3,2.41-1.66.09-2.48.13-4.14.18-.8.03-1.48-1-1.51-2.28-.04-1.56-.05-2.34-.09-3.9-.03-1.28.56-2.33,1.32-2.36,2.12-.07,3.18-.12,5.3-.26.04.59.06.89.1,1.48-2.34.15-3.51.21-5.85.28.06,2.23.1,3.34.16,5.57,2.06-.06,3.08-.1,5.14-.23-.05-.82-.07-1.22-.12-2.04-1.06.06-1.6.09-2.66.14-.03-.59-.04-.89-.06-1.48,1.41-.06,2.12-.1,3.54-.19.07,1.07.11,1.61.18,2.69Z"/>
      <path class="cls-2" d="M306.09,687.02c-2.28,1.81-3.45,2.69-5.86,4.41,2.82-.26,4.23-.41,7.05-.79.08.59.12.88.2,1.47-2.59.35-3.88.5-6.48.74-.59.06-1.13-.66-1.21-1.6-.07-.77.21-1.39.62-1.67,2.38-1.72,3.54-2.61,5.79-4.42-2.63.35-3.95.49-6.6.73-.05-.59-.08-.89-.13-1.48,2.37-.21,3.56-.34,5.92-.64.56-.07,1.1.62,1.23,1.55.1.77-.14,1.39-.53,1.69Z"/>
      <path class="cls-2" d="M314.9,688.58c.23,1.26-.22,2.4-1.01,2.54-1.64.29-2.46.42-4.1.67-.8.12-1.59-.82-1.76-2.09-.22-1.54-.32-2.32-.54-3.86-.18-1.27.29-2.38,1.04-2.5,1.56-.23,2.34-.36,3.89-.63.75-.13,1.55.78,1.78,2.04.28,1.53.42,2.3.71,3.83ZM314.14,689.57c-.39-2.19-.59-3.29-.98-5.48-1.96.35-2.95.51-4.92.8.32,2.2.48,3.31.8,5.51,2.04-.3,3.06-.46,5.09-.83Z"/>
      <path class="cls-2" d="M321.4,680.86c.65,2.73.97,4.09,1.62,6.82.21.9-.07,1.74-.64,1.87-.29.07-.58-.06-.84-.32-2.34-2.39-3.48-3.61-5.68-6.07.58,2.93.87,4.4,1.45,7.33-.37.07-.55.11-.92.18-.53-2.75-.79-4.13-1.32-6.88-.17-.91.12-1.72.66-1.83.27-.05.55.08.79.35,2.21,2.46,3.35,3.67,5.7,6.05-.67-2.91-1.01-4.37-1.68-7.28.35-.08.52-.12.86-.2Z"/>
      <path class="cls-2" d="M331.3,687.08c-2.17.63-3.26.93-5.45,1.48-.79.2-1.67-.65-1.97-1.9-.37-1.52-.55-2.27-.92-3.79-.3-1.25.05-2.4.8-2.59,2.07-.53,3.11-.81,5.16-1.4.17.57.25.86.41,1.43-2.27.66-3.41.97-5.7,1.54.2.79.3,1.19.5,1.98,2.32-.58,3.48-.89,5.78-1.56.17.57.25.86.41,1.43-2.32.68-3.49.99-5.83,1.58.2.79.3,1.19.5,1.98,2.37-.59,3.55-.91,5.91-1.6.17.57.25.86.41,1.43Z"/>
    </g>
  </g>
  <g class="cls-24">
    <g>
      <path class="cls-2" d="M186.54,658.28c-1.74-1.42-2.59-2.14-4.27-3.63-.6-.53-.39-1.74.47-2.69,1.05-1.16,1.57-1.74,2.61-2.89.86-.95,2.01-1.31,2.57-.81,1.58,1.39,2.38,2.07,4.01,3.4-.38.46-.56.69-.94,1.15-1.8-1.47-2.69-2.22-4.42-3.77-.54.61-.82.92-1.36,1.53,1.76,1.57,2.66,2.34,4.49,3.83-.38.46-.56.69-.94,1.15-1.85-1.51-2.76-2.28-4.54-3.87-.54.61-.82.91-1.36,1.52,1.81,1.61,2.73,2.4,4.61,3.93-.38.46-.56.69-.94,1.15Z"/>
      <path class="cls-2" d="M191.96,658.74c-1.47.38-2.21.57-3.7.91-.48-.38-.72-.57-1.19-.95,2.15-.47,3.22-.73,5.33-1.28-.02-2.15,0-3.22.07-5.34.45.36.67.54,1.12.9-.04,1.46-.04,2.2-.04,3.67,0,.39-.15.86-.47,1.29-.33.43-.74.7-1.12.8ZM194.06,663.98c-.5-.35-.75-.53-1.25-.89-.07-1.53-.1-2.29-.13-3.8,0-.39.14-.86.47-1.3.33-.43.74-.7,1.11-.81,1.42-.4,2.12-.61,3.52-1.04.46.33.69.5,1.16.83-2.02.65-3.04.95-5.11,1.53.05,2.18.09,3.28.23,5.48Z"/>
      <path class="cls-2" d="M195.37,664.9c-.31-.21-.46-.32-.76-.53,1.96-2.8,2.94-4.2,4.89-7,.29.2.43.3.72.5-1.94,2.81-2.91,4.22-4.85,7.03Z"/>
      <path class="cls-2" d="M205.58,663.11c-.98-.6-1.47-.9-2.44-1.52-1.52,2.38-2.28,3.57-3.8,5.95-.31-.2-.47-.3-.78-.5,1.54-2.37,2.3-3.55,3.84-5.92-.96-.62-1.44-.94-2.39-1.59.33-.49.5-.74.84-1.23,2.16,1.47,3.27,2.18,5.51,3.54-.31.51-.46.76-.77,1.27Z"/>
    </g>
  </g>
  <g class="cls-24">
    <g>
      <path class="cls-2" d="M146.76,612.38c-.19-.32-.29-.49-.47-.81,1.22-.71,1.83-1.06,3.06-1.76-1.02-1.77-1.51-2.66-2.45-4.47-1.25.65-1.88.98-3.13,1.63-.17-.33-.26-.5-.43-.84,3.04-1.55,4.57-2.33,7.61-3.88.16.31.24.47.4.78-1.25.65-1.88.98-3.13,1.63.93,1.79,1.41,2.67,2.42,4.42,1.22-.71,1.83-1.06,3.06-1.76.17.3.26.45.44.75-2.95,1.73-4.42,2.6-7.37,4.33Z"/>
      <path class="cls-2" d="M151.17,619.32c-1.28-1.87-1.9-2.82-3.08-4.75-.43-.69.13-1.79,1.23-2.45,1.34-.8,2.01-1.2,3.34-2.01,1.1-.66,2.3-.67,2.7-.03,1.1,1.79,1.68,2.67,2.86,4.41-.49.34-.74.5-1.23.84-1.32-1.92-1.95-2.9-3.16-4.89-.7.43-1.05.64-1.74,1.06,1.24,2.03,1.88,3.02,3.22,4.98-.49.34-.74.5-1.23.84-1.36-1.98-2.01-2.99-3.26-5.05-.7.43-1.05.64-1.74,1.06,1.27,2.09,1.94,3.12,3.32,5.13-.49.34-.74.5-1.23.84Z"/>
      <path class="cls-2" d="M155.17,624.84c-1.04-1.35-1.55-2.03-2.54-3.41-.47-.66,0-1.79,1.06-2.53,2.04-1.42,3.06-2.13,5.1-3.56.2.29.3.43.5.71-2.3,1.63-3.45,2.45-5.76,4.08,1.09,1.54,1.65,2.3,2.81,3.8-.47.36-.71.54-1.18.91Z"/>
      <path class="cls-2" d="M163.93,627.72c-.96.85-2.17,1.05-2.69.45-1.21-1.4-1.8-2.12-2.95-3.56-.81.65-1.22.97-2.04,1.62-.23-.29-.35-.44-.58-.74,2.69-2.1,4.04-3.16,6.73-5.26,1.3,1.66,1.96,2.47,3.34,4.07.49.57.12,1.72-.84,2.57-.39.34-.58.52-.97.86ZM162.7,627.59c.9-.78,1.35-1.17,2.24-1.95-1.3-1.5-1.93-2.26-3.16-3.81-.93.74-1.4,1.11-2.33,1.85,1.26,1.59,1.91,2.37,3.24,3.91Z"/>
    </g>
  </g>
  <g>
    <path class="cls-3" d="M255.68,329.73c-1.3,1.9-11.82,18.9-14.42,22.87h-.34c-3.59-5.51-12.38-20.78-13.51-22.61l7.39-4.02c.72,1.54,5.66,11.94,6.72,14.25,1.04-2.34,6.4-13.15,6.89-14.25l7.27,3.76Z"/>
    <path class="cls-20" d="M265.19,346.22c2.74.1,5.73-.67,5.73-2,0-.55-.48-.89-2.77-2.19-1.78-1.01-3.83-2.43-3.83-4.79,0-3.15,4.19-6.6,11.34-7.22l.77,4.72c-3.52,0-5.3.6-5.3,1.76,0,.67.89,1.11,2.74,2,1.49.72,3.92,2,3.92,4.55,0,3.11-3.25,7.05-11.82,8.04l-.79-4.86Z"/>
    <path class="cls-20" d="M278.53,349.35c.48-1.13,6.16-15.87,7.8-19.45h.29c1.71,2.79,5.9,9.7,6.77,11.15,1.11-1.66,5.08-8.26,6.57-10.69h.29c1.95,4.17,7.61,16.97,8.38,18.52l-5.71,2.53c-.89-2.26-3.59-9.41-3.9-10.18-.34.51-3.95,6.07-6.07,9.03h-.29c-2.17-3.27-5.13-8.07-5.59-8.91-.48,1.47-2.5,8.74-3.01,10.06l-5.54-2.05Z"/>
    <path class="cls-20" d="M317.96,342.03c0,2.82.1,7.87.12,8.52h-6.55c.05-1.25.1-7.85.1-8.57v-3.06c0-.48-.1-7.73-.1-8.4h6.55c-.02.51-.12,5.08-.12,8.45v3.06Z"/>
    <path class="cls-20" d="M330.17,330.52c-.02.65-.14,6.45-.14,10.02v5.15c.67,0,4,0,6.26-.12l.02,5.25c-.67,0-10.45-.29-12.71-.29.1-1.49.1-7.54.1-8.21v-3.73c0-.46-.05-7.54-.12-8.07h6.6Z"/>
    <path class="cls-20" d="M352.37,350.82c-1.01,0-11.2-.29-12.66-.29.1-1.49.1-7.54.1-8.19v-3.76c0-.46-.05-7.25-.1-8.07,1.59,0,11.05-.43,12.09-.51l.12,4.65c-1.04,0-5.47.14-5.97.14v3.73c.55,0,3.8-.14,5.06-.26l.1,4.5c-.77,0-4.5-.12-5.13-.12v3.35c.72,0,4.98.05,6.31-.05l.1,4.86Z"/>
    <circle class="cls-3" cx="254.64" cy="349.06" r="3.35"/>
  </g>
</svg>