<?xml version="1.0" encoding="UTF-8"?>
<svg id="Layer_2" data-name="Layer 2" xmlns="http://www.w3.org/2000/svg" viewBox="0 0 1000 1000">
  <defs>
    <style>
      .cls-1 {
        fill: #eaeaea;
      }

      .cls-2 {
        fill: #f3f3f5;
      }

      .cls-3 {
        fill: #d4d4d6;
      }

      .cls-4 {
        fill: #cfcfce;
      }

      .cls-5 {
        fill: #3d3d3d;
      }

      .cls-6 {
        fill: #16b4e6;
      }

      .cls-7 {
        fill: #e8e8e8;
        stroke: #c6c6c5;
        stroke-miterlimit: 10;
        stroke-width: .5px;
      }

      .cls-8 {
        fill: #f7f7f7;
      }

      .cls-9 {
        fill: #6b6b6b;
      }

      .cls-10 {
        fill: #f3f3f3;
      }

      .cls-11 {
        fill: #e0e0e0;
      }
    </style>
  </defs>
  <path class="cls-3" d="M422.5,19.96h153.79c22.01,0,39.88,17.87,39.88,39.88v879.06c0,23.3-18.92,42.22-42.22,42.22h-149.09c-23.3,0-42.22-18.92-42.22-42.22V59.83c0-22.01,17.87-39.88,39.88-39.88Z"/>
  <path class="cls-10" d="M426.02,32.31h146.75c21.28,0,38.56,17.28,38.56,38.56v858.09c0,22.53-18.29,40.83-40.83,40.83h-142.21c-22.53,0-40.83-18.29-40.83-40.83V70.86c0-21.28,17.28-38.56,38.56-38.56Z"/>
  <circle class="cls-11" cx="438.69" cy="65.06" r="23.9"/>
  <g>
    <path class="cls-2" d="M438.69,82.14c-9.42,0-17.08-7.66-17.08-17.08s7.66-17.08,17.08-17.08,17.08,7.66,17.08,17.08-7.66,17.08-17.08,17.08Z"/>
    <path class="cls-9" d="M438.69,48.35c9.23,0,16.71,7.48,16.71,16.71s-7.48,16.71-16.71,16.71-16.71-7.48-16.71-16.71,7.48-16.71,16.71-16.71M438.69,47.6c-9.63,0-17.46,7.83-17.46,17.46s7.83,17.46,17.46,17.46,17.46-7.83,17.46-17.46-7.83-17.46-17.46-17.46h0Z"/>
  </g>
  <g>
    <path class="cls-2" d="M485.61,234.35c-2.1,0-3.81-1.71-3.81-3.81v-29.23c0-2.99-2.43-5.42-5.42-5.42h-29.23c-2.1,0-3.81-1.71-3.81-3.81v-30.24c0-2.1,1.71-3.81,3.81-3.81h29.23c2.99,0,5.42-2.43,5.42-5.42v-29.23c0-2.1,1.71-3.81,3.81-3.81h30.24c2.1,0,3.81,1.71,3.81,3.81v29.23c0,2.99,2.43,5.42,5.42,5.42h29.23c2.1,0,3.81,1.71,3.81,3.81v30.24c0,2.1-1.71,3.81-3.81,3.81h-29.23c-2.99,0-5.42,2.43-5.42,5.42v29.23c0,2.1-1.71,3.81-3.81,3.81h-30.24Z"/>
    <path class="cls-9" d="M515.84,119.96c1.9,0,3.43,1.54,3.43,3.43v29.23c0,3.2,2.59,5.79,5.79,5.79h29.23c1.9,0,3.43,1.54,3.43,3.43v30.24c0,1.9-1.54,3.43-3.43,3.43h-29.23c-3.2,0-5.79,2.59-5.79,5.79v29.23c0,1.9-1.54,3.43-3.43,3.43h-30.24c-1.9,0-3.43-1.54-3.43-3.43v-29.23c0-3.2-2.59-5.79-5.79-5.79h-29.23c-1.9,0-3.43-1.54-3.43-3.43v-30.24c0-1.9,1.54-3.43,3.43-3.43h29.23c3.2,0,5.79-2.59,5.79-5.79v-29.23c0-1.9,1.54-3.43,3.43-3.43h30.24M515.84,119.21h-30.24c-2.31,0-4.18,1.88-4.18,4.18v29.23c0,2.78-2.26,5.04-5.04,5.04h-29.23c-2.31,0-4.18,1.88-4.18,4.18v30.24c0,2.31,1.88,4.18,4.18,4.18h29.23c2.78,0,5.04,2.26,5.04,5.04v29.23c0,2.31,1.88,4.18,4.18,4.18h30.24c2.31,0,4.18-1.88,4.18-4.18v-29.23c0-2.78,2.26-5.04,5.04-5.04h29.23c2.31,0,4.18-1.88,4.18-4.18v-30.24c0-2.31-1.88-4.18-4.18-4.18h-29.23c-2.78,0-5.04-2.26-5.04-5.04v-29.23c0-2.31-1.88-4.18-4.18-4.18h0Z"/>
  </g>
  <g>
    <path class="cls-1" d="M501,359.21c-10.23,0-19.88-3.98-27.15-11.22-7.3-7.28-11.32-16.96-11.32-27.26,0-21.22,17.26-38.48,38.48-38.48,10.31,0,19.99,4.02,27.26,11.33,7.23,7.24,11.22,16.88,11.22,27.14,0,21.22-17.26,38.48-38.47,38.48Z"/>
    <path class="cls-9" d="M501,282.63c10.55,0,20.1,4.29,26.99,11.22,6.87,6.88,11.11,16.39,11.11,26.88,0,21.04-17.06,38.1-38.1,38.1-10.49,0-19.99-4.25-26.89-11.11-6.92-6.9-11.21-16.44-11.21-26.99,0-21.04,17.06-38.1,38.1-38.1M501,281.88c-21.42,0-38.85,17.43-38.85,38.85,0,10.4,4.06,20.17,11.43,27.52,7.35,7.31,17.09,11.33,27.42,11.33,21.42,0,38.85-17.43,38.85-38.85,0-10.36-4.02-20.09-11.33-27.41-7.33-7.38-17.11-11.44-27.52-11.44h0Z"/>
  </g>
  <path class="cls-8" d="M527.99,293.85l-53.88,53.87c-6.92-6.9-11.21-16.44-11.21-26.99,0-21.04,17.06-38.1,38.1-38.1,10.55,0,20.1,4.29,26.99,11.22Z"/>
  <g>
    <path class="cls-2" d="M501.63,755.5c-14.79,0-26.82-12.03-26.82-26.82s12.03-26.82,26.82-26.82,26.82,12.03,26.82,26.82-12.03,26.82-26.82,26.82Z"/>
    <path class="cls-9" d="M501.63,702.24c14.6,0,26.44,11.84,26.44,26.44s-11.84,26.44-26.44,26.44-26.44-11.84-26.44-26.44,11.84-26.44,26.44-26.44M501.63,701.49c-14.99,0-27.19,12.2-27.19,27.19s12.2,27.19,27.19,27.19,27.19-12.2,27.19-27.19-12.2-27.19-27.19-27.19h0Z"/>
  </g>
  <circle class="cls-7" cx="437.52" cy="864.66" r="1.96"/>
  <circle class="cls-7" cx="475.54" cy="864.66" r="1.96"/>
  <circle class="cls-11" cx="501.09" cy="480.38" r="23.9"/>
  <circle class="cls-7" cx="483.4" cy="864.66" r="1.96"/>
  <circle class="cls-7" cx="514.27" cy="864.66" r="1.96"/>
  <circle class="cls-7" cx="522.15" cy="864.66" r="1.96"/>
  <circle class="cls-7" cx="530.03" cy="864.66" r="1.96"/>
  <circle class="cls-7" cx="552.13" cy="864.66" r="1.96"/>
  <circle class="cls-7" cx="560.07" cy="864.66" r="1.96"/>
  <circle class="cls-7" cx="568" cy="864.66" r="1.96"/>
  <circle class="cls-7" cx="575.94" cy="864.66" r="1.96"/>
  <rect class="cls-6" x="431.59" y="873.11" width="11.85" height="11.85"/>
  <rect class="cls-9" x="473.91" y="873.11" width="11.85" height="11.85"/>
  <rect class="cls-9" x="516.23" y="873.11" width="11.85" height="11.85"/>
  <rect class="cls-9" x="558.55" y="873.11" width="11.85" height="11.85"/>
  <circle class="cls-5" cx="484.35" cy="593.14" r="4.01"/>
  <circle class="cls-5" cx="500.77" cy="593.14" r="4.01"/>
  <circle class="cls-5" cx="517.19" cy="593.14" r="4.01"/>
  <circle class="cls-5" cx="484.35" cy="610.67" r="4.01"/>
  <circle class="cls-5" cx="500.77" cy="610.67" r="4.01"/>
  <circle class="cls-5" cx="517.19" cy="610.67" r="4.01"/>
  <circle class="cls-5" cx="484.35" cy="628.21" r="3.43"/>
  <circle class="cls-5" cx="484.35" cy="646.04" r="2.45"/>
  <circle class="cls-5" cx="500.77" cy="646.04" r="2.45"/>
  <circle class="cls-5" cx="517.19" cy="646.04" r="2.45"/>
  <circle class="cls-5" cx="484.35" cy="558.05" r="2.45"/>
  <circle class="cls-5" cx="500.77" cy="558.05" r="2.45"/>
  <circle class="cls-5" cx="517.19" cy="558.05" r="2.45"/>
  <circle class="cls-5" cx="500.77" cy="628.21" r="3.43"/>
  <circle class="cls-5" cx="517.19" cy="628.21" r="3.43"/>
  <circle class="cls-5" cx="484.35" cy="575.68" r="3.43"/>
  <circle class="cls-5" cx="500.77" cy="575.68" r="3.43"/>
  <circle class="cls-5" cx="517.19" cy="575.68" r="3.43"/>
  <g>
    <path class="cls-2" d="M435.77,499.67c-10.64,0-19.29-8.65-19.29-19.29s8.65-19.29,19.29-19.29,19.29,8.65,19.29,19.29-8.65,19.29-19.29,19.29Z"/>
    <path class="cls-9" d="M435.77,461.47c10.45,0,18.92,8.47,18.92,18.92s-8.47,18.92-18.92,18.92-18.92-8.47-18.92-18.92,8.47-18.92,18.92-18.92M435.77,460.72c-10.84,0-19.67,8.82-19.67,19.67s8.82,19.67,19.67,19.67,19.67-8.82,19.67-19.67-8.82-19.67-19.67-19.67h0Z"/>
  </g>
  <g>
    <path class="cls-2" d="M566.41,499.67c-10.64,0-19.29-8.65-19.29-19.29s8.65-19.29,19.29-19.29,19.29,8.65,19.29,19.29-8.65,19.29-19.29,19.29Z"/>
    <path class="cls-9" d="M566.41,461.47c10.45,0,18.92,8.47,18.92,18.92s-8.47,18.92-18.92,18.92-18.92-8.47-18.92-18.92,8.47-18.92,18.92-18.92M566.41,460.72c-10.84,0-19.67,8.82-19.67,19.67s8.82,19.67,19.67,19.67,19.67-8.82,19.67-19.67-8.82-19.67-19.67-19.67h0Z"/>
  </g>
  <g>
    <path class="cls-2" d="M501.09,499.67c-10.64,0-19.29-8.65-19.29-19.29s8.65-19.29,19.29-19.29,19.29,8.65,19.29,19.29-8.65,19.29-19.29,19.29Z"/>
    <path class="cls-9" d="M501.09,461.47c10.45,0,18.92,8.47,18.92,18.92s-8.47,18.92-18.92,18.92-18.92-8.47-18.92-18.92,8.47-18.92,18.92-18.92M501.09,460.72c-10.84,0-19.67,8.82-19.67,19.67s8.82,19.67,19.67,19.67,19.67-8.82,19.67-19.67-8.82-19.67-19.67-19.67h0Z"/>
  </g>
  <g>
    <path class="cls-2" d="M501.63,838.81c-14.79,0-26.82-12.03-26.82-26.82s12.03-26.82,26.82-26.82,26.82,12.03,26.82,26.82-12.03,26.82-26.82,26.82Z"/>
    <path class="cls-9" d="M501.63,785.55c14.6,0,26.44,11.84,26.44,26.44s-11.84,26.44-26.44,26.44-26.44-11.84-26.44-26.44,11.84-26.44,26.44-26.44M501.63,784.8c-14.99,0-27.19,12.2-27.19,27.19s12.2,27.19,27.19,27.19,27.19-12.2,27.19-27.19-12.2-27.19-27.19-27.19h0Z"/>
  </g>
  <g>
    <rect class="cls-4" x="499.28" y="131.17" width="3.31" height="23.14" rx="1.32" ry="1.32"/>
    <rect class="cls-4" x="499.28" y="198.75" width="3.31" height="23.14" rx="1.32" ry="1.32"/>
    <rect class="cls-4" x="534.38" y="164.69" width="3.31" height="23.14" rx="1.32" ry="1.32" transform="translate(359.77 712.29) rotate(-90)"/>
    <rect class="cls-4" x="464.32" y="164.69" width="3.31" height="23.14" rx="1.32" ry="1.32" transform="translate(289.71 642.23) rotate(-90)"/>
  </g>
</svg>