<svg xmlns="http://www.w3.org/2000/svg" id="Layer_2" data-name="Layer 2" viewBox="0 0 1000 1000"><defs><style>.cls-1{fill:#ddd}.cls-2{fill:#f3f3f5}.cls-6{stroke:#e5e5e5;stroke-width:2px;fill:none;stroke-miterlimit:10}.cls-8{fill:#cfcfce}.cls-9{fill:#3d3d3d}.cls-11{fill:#121212}.cls-15{fill:#6b6b6b}</style></defs><rect width="952.84" height="292.51" x="23.55" y="259.83" rx="112.34" ry="112.34" style="fill:#d2d2d1"/><rect width="960" height="503.24" x="20" y="255.75" rx="147.01" ry="147.01" style="fill:#bcbcbc"/><path d="M167.01 255.75h665.97c81.14 0 147.01 65.87 147.01 147.01v202.8c0 81.14-65.87 147.01-147.01 147.01H167.01C85.87 752.57 20 686.7 20 605.56v-202.8c0-81.14 65.87-147.01 147.01-147.01" style="fill:#f3f3f4"/><path d="M237.77 359.75h520v294.82h-520z" style="fill:#303030"/><rect width="545.24" height="318.84" x="225.15" y="347.74" rx="14.31" ry="14.31" style="fill:none;stroke-miterlimit:10;stroke:#6a6a6a;stroke-width:1.06px"/><path d="M134.5 525.35c-1.58 0-2.87-1.29-2.87-2.87v-21.99c0-2.25-1.83-4.08-4.08-4.08h-21.99c-1.58 0-2.87-1.29-2.87-2.87v-22.75c0-1.58 1.29-2.87 2.87-2.87h21.99c2.25 0 4.08-1.83 4.08-4.08v-21.99c0-1.58 1.29-2.87 2.87-2.87h22.75c1.58 0 2.87 1.29 2.87 2.87v21.99c0 2.25 1.83 4.08 4.08 4.08h21.99c1.58 0 2.87 1.29 2.87 2.87v22.75c0 1.58-1.29 2.87-2.87 2.87H164.2c-2.25 0-4.08 1.83-4.08 4.08v21.99c0 1.58-1.29 2.87-2.87 2.87z" class="cls-2"/><path d="M157.25 439.29a2.58 2.58 0 0 1 2.58 2.58v21.99c0 2.41 1.95 4.36 4.36 4.36h21.99a2.58 2.58 0 0 1 2.58 2.58v22.75a2.58 2.58 0 0 1-2.58 2.58h-21.99c-2.41 0-4.36 1.95-4.36 4.36v21.99a2.58 2.58 0 0 1-2.58 2.58H134.5a2.58 2.58 0 0 1-2.58-2.58v-21.99c0-2.41-1.95-4.36-4.36-4.36h-21.99a2.58 2.58 0 0 1-2.58-2.58V470.8a2.58 2.58 0 0 1 2.58-2.58h21.99c2.41 0 4.36-1.95 4.36-4.36v-21.99a2.58 2.58 0 0 1 2.58-2.58zm0-.56H134.5a3.15 3.15 0 0 0-3.15 3.15v21.99c0 2.09-1.7 3.79-3.79 3.79h-21.99a3.15 3.15 0 0 0-3.15 3.15v22.75a3.15 3.15 0 0 0 3.15 3.15h21.99c2.09 0 3.79 1.7 3.79 3.79v21.99a3.15 3.15 0 0 0 3.15 3.15h22.75a3.15 3.15 0 0 0 3.15-3.15V500.5c0-2.09 1.7-3.79 3.79-3.79h21.99a3.15 3.15 0 0 0 3.15-3.15v-22.75a3.15 3.15 0 0 0-3.15-3.15h-21.99c-2.09 0-3.79-1.7-3.79-3.79v-21.99a3.15 3.15 0 0 0-3.15-3.15" class="cls-15"/><rect width="2.54" height="17.78" x="144.76" y="447.9" class="cls-8" rx="1.27" ry="1.27"/><rect width="2.54" height="17.78" x="144.76" y="499.82" class="cls-8" rx="1.27" ry="1.27"/><rect width="2.54" height="17.78" x="171.72" y="473.65" class="cls-8" rx="1.27" ry="1.27" transform="rotate(-90 172.995 482.545)"/><rect width="2.54" height="17.78" x="117.9" y="473.65" class="cls-8" rx="1.27" ry="1.27" transform="rotate(-90 119.175 482.545)"/><rect width="274.22" height="34.95" x="360.95" y="278.74" class="cls-9" rx="17.47" ry="17.47"/><circle cx="497.75" cy="297.41" r="13.6" class="cls-11"/><circle cx="497.75" cy="297.41" r="10.08" style="fill:#b1b0b7"/><circle cx="497.75" cy="297.41" r="8.12" style="fill:#d8e0ea"/><circle cx="497.75" cy="297.41" r="1.11" style="fill:#1e1e1e"/><rect width="18.65" height="7.79" x="172.36" y="706.21" class="cls-11" rx="3.9" ry="3.9"/><rect width="18.65" height="7.79" x="807.36" y="706.21" class="cls-11" rx="3.9" ry="3.9"/><path d="M498.33 730.61c-11.53 0-20.92-9.38-20.92-20.92s9.38-20.92 20.92-20.92 20.92 9.38 20.92 20.92-9.38 20.92-20.92 20.92" style="fill:#15b4e5"/><path d="M498.33 689.13c11.36 0 20.56 9.21 20.56 20.56s-9.21 20.56-20.56 20.56-20.56-9.21-20.56-20.56 9.21-20.56 20.56-20.56m0-.71c-11.73 0-21.27 9.54-21.27 21.27s9.54 21.27 21.27 21.27 21.27-9.54 21.27-21.27-9.54-21.27-21.27-21.27" style="fill:#8fd7f3"/><path d="M858.63 461.74c-10.05 0-18.23-8.18-18.23-18.23s8.18-18.23 18.23-18.23 18.23 8.18 18.23 18.23-8.18 18.23-18.23 18.23" class="cls-2"/><path d="M858.63 425.63c9.87 0 17.88 8.01 17.88 17.88s-8.01 17.88-17.88 17.88-17.88-8.01-17.88-17.88 8.01-17.88 17.88-17.88m0-.71c-10.25 0-18.59 8.34-18.59 18.59s8.34 18.59 18.59 18.59 18.59-8.34 18.59-18.59-8.34-18.59-18.59-18.59" class="cls-15"/><path d="M858.63 537.6c-10.05 0-18.23-8.18-18.23-18.23s8.18-18.23 18.23-18.23 18.23 8.18 18.23 18.23-8.18 18.23-18.23 18.23" class="cls-2"/><path d="M858.63 501.49c9.87 0 17.88 8.01 17.88 17.88s-8.01 17.88-17.88 17.88-17.88-8.01-17.88-17.88 8.01-17.88 17.88-17.88m0-.71c-10.25 0-18.59 8.34-18.59 18.59s8.34 18.59 18.59 18.59 18.59-8.34 18.59-18.59-8.34-18.59-18.59-18.59" class="cls-15"/><path d="M695.29 697.78h10.87c3.8 0 6.89 3.09 6.89 6.89v10.87c0 3.8-3.09 6.89-6.89 6.89h-10.87a6.88 6.88 0 0 1-6.88-6.88v-10.87c0-3.8 3.09-6.89 6.89-6.89Z" class="cls-2"/><path d="M706.17 698.13c3.61 0 6.53 2.92 6.53 6.53v10.87c0 3.61-2.92 6.53-6.53 6.53H695.3c-3.61 0-6.53-2.92-6.53-6.53v-10.87c0-3.61 2.92-6.53 6.53-6.53zm0-.71H695.3c-3.99 0-7.24 3.25-7.24 7.24v10.87c0 3.99 3.25 7.24 7.24 7.24h10.87c3.99 0 7.24-3.25 7.24-7.24v-10.87c0-3.99-3.25-7.24-7.24-7.24" class="cls-15"/><path d="M816.29 591.63c-6.82 0-12.37-5.55-12.37-12.37s5.55-12.37 12.37-12.37 12.37 5.55 12.37 12.37-5.55 12.37-12.37 12.37" class="cls-2"/><path d="M816.29 567.25c6.63 0 12.01 5.38 12.01 12.01s-5.38 12.01-12.01 12.01-12.01-5.38-12.01-12.01 5.38-12.01 12.01-12.01m0-.71c-7.01 0-12.72 5.71-12.72 12.72s5.71 12.72 12.72 12.72 12.72-5.71 12.72-12.72-5.71-12.72-12.72-12.72" class="cls-15"/><path d="M816.29 641.26c-6.82 0-12.37-5.55-12.37-12.37s5.55-12.37 12.37-12.37 12.37 5.55 12.37 12.37-5.55 12.37-12.37 12.37" class="cls-2"/><path d="M816.29 616.89c6.63 0 12.01 5.38 12.01 12.01s-5.38 12.01-12.01 12.01-12.01-5.38-12.01-12.01 5.38-12.01 12.01-12.01m0-.71c-7.01 0-12.72 5.71-12.72 12.72s5.71 12.72 12.72 12.72 12.72-5.71 12.72-12.72-5.71-12.72-12.72-12.72" class="cls-15"/><path d="M749.87 722.08c-6.34 0-11.5-5.16-11.5-11.5s5.16-11.5 11.5-11.5 11.5 5.16 11.5 11.5-5.16 11.5-11.5 11.5" class="cls-2"/><path d="M749.87 699.43c6.16 0 11.15 4.99 11.15 11.15s-4.99 11.15-11.15 11.15-11.15-4.99-11.15-11.15 4.99-11.15 11.15-11.15m0-.71c-6.54 0-11.86 5.32-11.86 11.86s5.32 11.86 11.86 11.86 11.86-5.32 11.86-11.86-5.32-11.86-11.86-11.86" class="cls-15"/><circle cx="651.75" cy="709.58" r="3" class="cls-11"/><circle cx="498.33" cy="709.69" r="16.03" class="cls-2"/><path d="M896.9 499.33c-10.05 0-18.23-8.18-18.23-18.23s8.18-18.23 18.23-18.23 18.23 8.18 18.23 18.23-8.18 18.23-18.23 18.23" class="cls-2"/><path d="M896.9 463.22c9.87 0 17.88 8.01 17.88 17.88s-8.01 17.88-17.88 17.88-17.88-8.01-17.88-17.88 8.01-17.88 17.88-17.88m0-.71c-10.25 0-18.59 8.34-18.59 18.59s8.34 18.59 18.59 18.59 18.59-8.34 18.59-18.59-8.34-18.59-18.59-18.59" class="cls-15"/><path d="M820.13 499.33c-10.05 0-18.23-8.18-18.23-18.23s8.18-18.23 18.23-18.23 18.23 8.18 18.23 18.23-8.18 18.23-18.23 18.23" class="cls-2"/><path d="M820.13 463.22c9.87 0 17.88 8.01 17.88 17.88s-8.01 17.88-17.88 17.88-17.88-8.01-17.88-17.88 8.01-17.88 17.88-17.88m0-.71c-10.25 0-18.59 8.34-18.59 18.59s8.34 18.59 18.59 18.59 18.59-8.34 18.59-18.59-8.34-18.59-18.59-18.59" class="cls-15"/><circle cx="441.77" cy="709.86" r="1.82" class="cls-11"/><circle cx="895.47" cy="371.9" r="46.75" class="cls-1"/><path d="M895.47 405.39c-18.47 0-33.5-15.03-33.5-33.5s15.03-33.5 33.5-33.5 33.5 15.03 33.5 33.5-15.03 33.5-33.5 33.5" class="cls-2"/><path d="M895.47 339.4c17.92 0 32.5 14.58 32.5 32.5s-14.58 32.5-32.5 32.5-32.5-14.58-32.5-32.5 14.58-32.5 32.5-32.5m0-2c-19.05 0-34.5 15.44-34.5 34.5s15.44 34.5 34.5 34.5 34.5-15.44 34.5-34.5-15.44-34.5-34.5-34.5" class="cls-9"/><circle cx="895.47" cy="371.9" r="23.74" class="cls-6"/><circle cx="102.98" cy="371.9" r="46.75" class="cls-1"/><path d="M102.98 405.39c-18.47 0-33.5-15.03-33.5-33.5s15.03-33.5 33.5-33.5 33.5 15.03 33.5 33.5-15.03 33.5-33.5 33.5" class="cls-2"/><path d="M102.98 339.4c17.92 0 32.5 14.58 32.5 32.5s-14.58 32.5-32.5 32.5-32.5-14.58-32.5-32.5 14.58-32.5 32.5-32.5m0-2c-19.05 0-34.5 15.44-34.5 34.5s15.44 34.5 34.5 34.5 34.5-15.44 34.5-34.5-15.44-34.5-34.5-34.5" class="cls-9"/><circle cx="102.98" cy="371.9" r="23.74" class="cls-6"/></svg>