<?xml version="1.0" encoding="UTF-8"?>
<svg id="Layer_1" data-name="Layer 1" xmlns="http://www.w3.org/2000/svg" viewBox="0 0 1000 1000">
  <defs>
    <style>
      .cls-1 {
        fill: #d6d7d8;
      }

      .cls-2 {
        fill: #5f935f;
      }

      .cls-3 {
        fill: #fdfefe;
        opacity: .04;
      }

      .cls-4 {
        fill: #40403f;
      }

      .cls-5 {
        fill: #727271;
        stroke: #4a494a;
      }

      .cls-5, .cls-6 {
        stroke-miterlimit: 10;
      }

      .cls-6 {
        fill: #7d93b2;
        stroke: #647178;
        stroke-width: .75px;
      }

      .cls-7 {
        fill: #a99a5d;
      }

      .cls-8 {
        fill: #ccd0d3;
      }
    </style>
  </defs>
  <path class="cls-8" d="M970.76,629.23c-1.37,78.85-22.21,90.47-77.76,107.56-55.54,17.08-129.86,37.25-229.23,32.12s-248.37-38.23-422.49-39.4c-174.11-1.17-183.74,8.17-200.83-100.28-17.09-108.44-16.4-220.73,11.62-307.11,28.03-86.37,39.25-91.84,120.45-91.84s325.09,2.73,325.09,2.73h361.19c23.11,0,80.45-8.8,97.72,57.17.57,2.15,1.09,4.38,1.56,6.69.42,2.05.81,4.17,1.16,6.36.34,2.16.65,4.39.92,6.68.26,2.17.48,4.41.67,6.71.14,1.75.26,3.54.36,5.36.02.44.05.88.07,1.32.12,2.22.24,4.46.37,6.71.11,2.22.23,4.44.35,6.68.11,2.11.22,4.23.33,6.36.12,2.22.24,4.45.35,6.69.12,2.22.23,4.45.34,6.7.12,2.22.23,4.45.34,6.69,4.64,92.27,8.6,197.7,7.42,266.1Z"/>
  <path class="cls-1" d="M224.47,700.5s449.18,11.49,578.93-23.72c45.11-12.24,104.84,20.21,138.79-66.16,0-23.6-.04-57.16,0-78.96-5.01-84.61-93.9-101.52-93.9-156.71s9.57-89.37-100.48-102.35-372.53-26.66-401.24-26.66-172.48-1.37-202.79,0-51.65,5.62-61.06,57.42-21.19,230.35-15.04,296.66c6.15,66.3.5,97.15,156.79,100.48Z"/>
  <path class="cls-4" d="M796.44,660.87c-.98,6.13-5.79,10.94-11.95,11.97-75.81,12.62-157.03,19.15-242.45,20.93-4.54.1-8.27-3.55-8.27-8.08v-6.47c0-10.53-8.57-19.07-19.15-19.07h-128.49c-3.34,0-6.49.85-9.22,2.35-.46.25-.9.52-1.33.81-5.18,3.41-8.6,9.26-8.6,15.91v5.77c0,3.54-2.97,6.37-6.52,6.22-12.82-.57-25.71-1.23-38.66-1.96-2.22-.12-4.44-.24-6.66-.37-6.91-.4-12.57-5.63-13.51-12.47-20.45-147.08-20.19-284.33,8.89-407.87,1.1-4.71,5.3-8.06,10.15-8.08,144.79-.68,277.26,6.32,405.12,24.8,17.76,2.57,35.44,5.36,53.05,8.38,2.44.42,11.13,3.34,12.58,13.29,18.41,126.4,23.72,238.26,5.02,353.94Z"/>
  <rect class="cls-2" x="330.36" y="331.2" width="430.55" height="280.94"/>
  <g>
    <path class="cls-6" d="M828.96,636.84l23.64-23.64c3.44-3.44,9.01-3.44,12.44,0l23.6,23.6c8.58,8.58,3.82,23.37-8.19,25.18-14.39,2.16-28.75,2.18-43.06.07-12.13-1.79-17.11-16.55-8.44-25.21Z"/>
    <path class="cls-6" d="M905,621.4l-23.64-23.64c-3.44-3.44-3.44-9.01,0-12.44l23.6-23.6c8.58-8.58,23.37-3.82,25.18,8.19,2.16,14.39,2.18,28.75.07,43.06-1.79,12.13-16.55,17.11-25.21,8.44Z"/>
  </g>
  <g>
    <path class="cls-6" d="M142.68,640.31l23.64-23.64c3.44-3.44,9.01-3.44,12.44,0l23.6,23.6c8.58,8.58,3.82,23.37-8.19,25.18-14.39,2.16-28.75,2.18-43.06.07-12.13-1.79-17.11-16.55-8.44-25.21Z"/>
    <path class="cls-6" d="M218.72,624.87l-23.64-23.64c-3.44-3.44-3.44-9.01,0-12.44l23.6-23.6c8.58-8.58,23.37-3.82,25.18,8.19,2.16,14.39,2.18,28.75.07,43.06-1.79,12.13-16.55,17.11-25.21,8.44Z"/>
    <path class="cls-6" d="M202.36,549.74l-23.64,23.64c-3.44,3.44-9.01,3.44-12.44,0l-23.6-23.6c-8.58-8.58-3.82-23.37,8.19-25.18,14.39-2.16,28.75-2.18,43.06-.07,12.13,1.79,17.11,16.55,8.44,25.21Z"/>
    <path class="cls-6" d="M126.32,565.18l23.64,23.64c3.44,3.44,3.44,9.01,0,12.44l-23.6,23.6c-8.58,8.58-23.37,3.82-25.18-8.19-2.16-14.39-2.18-28.75-.07-43.06,1.79-12.13,16.55-17.11,25.21-8.44Z"/>
  </g>
  <g>
    <path class="cls-6" d="M148.15,386.03l23.64-23.64c3.44-3.44,9.01-3.44,12.44,0l23.6,23.6c8.58,8.58,3.82,23.37-8.19,25.18-14.39,2.16-28.75,2.18-43.06.07-12.13-1.79-17.11-16.55-8.44-25.21Z"/>
    <path class="cls-6" d="M224.19,370.59l-23.64-23.64c-3.44-3.44-3.44-9.01,0-12.44l23.6-23.6c8.58-8.58,23.37-3.82,25.18,8.19,2.16,14.39,2.18,28.75.07,43.06-1.79,12.13-16.55,17.11-25.21,8.44Z"/>
    <path class="cls-6" d="M207.83,295.46l-23.64,23.64c-3.44,3.44-9.01,3.44-12.44,0l-23.6-23.6c-8.58-8.58-3.82-23.37,8.19-25.18,14.39-2.16,28.75-2.18,43.06-.07,12.13,1.79,17.11,16.55,8.44,25.21Z"/>
    <path class="cls-6" d="M131.79,310.9l23.64,23.64c3.44,3.44,3.44,9.01,0,12.44l-23.6,23.6c-8.58,8.58-23.37,3.82-25.18-8.19-2.16-14.39-2.18-28.75-.07-43.06,1.79-12.13,16.55-17.11,25.21-8.44Z"/>
  </g>
  <rect class="cls-5" x="379.8" y="665.39" width="56.96" height="22.78" rx="11.39" ry="11.39"/>
  <rect class="cls-5" x="467.59" y="665.39" width="56.96" height="22.78" rx="11.39" ry="11.39"/>
  <path class="cls-7" d="M630.11,313.91l4.21-4.96h-6.21l-1.55,2.49-2.17,2.05h-6.6l-5.48,3.38-1.51,5.64c-.33,1.24.76,2.24,2.44,2.24h10.69l4.55.11,2.41-9.11c.2-.75-.12-1.42-.77-1.83h0ZM622.86,323.01l-2.3.06h-3.04c-.41,0-.69-.26-.61-.56l1.48-5.64,2.74-1.69h3.07c.41,0,.69.24.6.56l-1.95,7.27M735.89,324.73l-3.76-.02,2.56-9.55h-2.29c-2.09,0-4.17,1.27-4.57,2.81l-.61,2.24c-.39,1.56.98,2.83,3.07,2.83h1.79l-2.24,1.69h-3.8c-3.37,0-5.6-2.03-4.93-4.51l.63-2.24c.7-2.48,3.96-4.49,7.32-4.49h6.09l6.17-.23-3.04,11.39-2.37.09M692.61,310.04h-8.43c-.83,0-1.75.76-2,1.71l-.24.89c-.24.96.22,1.71,1.06,1.71h6.88c2.09,0,3.31,1.94,2.64,4.34l-.48,1.71c-.66,2.4-2.93,4.34-5.03,4.34h-23.25l3-2.59h17.15c.84,0,1.73-.79,1.99-1.74l.24-.86c.26-.96-.22-1.74-1.06-1.74h-6.89c-2.09,0-3.24-1.94-2.62-4.3l.48-1.74c.65-2.37,2.9-4.3,5.03-4.3h8.35l6.46-.39-3.29,2.99M654.51,324.73h-3.82l2.11-7.87,5.48-3.39h9.15c2.52,0,4.14,1.52,3.64,3.39v.04s-2.72,1.69-2.72,1.69h-3.82l.47-1.73c.28-.95-.59-1.7-1.84-1.7h-1.54l-2.74,1.7-2.05,7.77-2.32.09M605.77,324.73h-3.82l2.11-7.87c.26-.95-.58-1.7-1.83-1.7h-3.82l-1.81,6.87-3.01,2.7h-3.82l3.08-11.51,5.99.26h7.67c2.52,0,4.15,1.52,3.64,3.39l-2.05,7.77-2.32.09M756.45,324.73h-3.83l2.11-7.87c.26-.95-.58-1.7-1.83-1.7h-3.83l-1.8,6.87-3.02,2.7h-3.82l3.08-11.51,6,.26h7.67c2.53,0,4.15,1.52,3.65,3.39l-2.05,7.77-2.32.09M637.38,322.49l.54-2.05h7.62l5.48-3.38.33-1.34c.33-1.24-.76-2.24-2.44-2.24h-10.66l-5.48,3.39-.52,1.94c-.02.06-.02.11-.04.17l-.94,3.52c-.33,1.23.76,2.24,2.44,2.24h10.37l2.74-1.69h-8.83c-.41,0-.69-.26-.6-.56h0ZM638.85,316.87l2.74-1.7h4.05c.4,0,.69.24.6.56l-.37,1.34-2.74,1.69h-4.8l.51-1.88M583.06,324.73h-10.69c-1.68,0-2.77-1.01-2.44-2.24l1.51-5.62,5.48-3.39h10.66c1.68,0,2.77,1,2.44,2.24l-1.48,5.63-5.48,3.38ZM582.43,321.36l1.5-5.63c.09-.32-.19-.56-.6-.56h-3.07l-2.74,1.7-1.48,5.62c-.08.3.2.56.6.56h3.04l2.75-1.69M713.69,324.73h-20.61l2.57-9.63,2.65-1.63,3.75-.25-2.64,9.87h1.45l2.65-1.63,1.71-6.36,2.64-1.63,3.76-.25-2.21,8.25-1.06,1.63h2.07l2.67-1.63,1.68-6.36,2.65-1.63,3.76-.25-2.22,8.25-5.28,3.26M562.6,324.74h-21.35l3.46-15.53,2.75-2.03,3.88-.26-3.53,15.8h1.51l2.74-2.03,2.57-11.47,2.74-2.03,3.88-.26-3.08,13.76-1.09,2.03h2.15l2.77-2.03,2.53-11.47,2.74-2.03,3.88-.26-3.08,13.76-5.48,4.06"/>
  <path class="cls-7" d="M376.91,662.5c-.46.25-.9.52-1.33.81l-45.06-42.87,1.03-1.08,45.36,43.14Z"/>
  <polygon class="cls-7" points="461.22 660.15 459.08 660.15 418.38 620.44 419.43 619.36 461.22 660.15"/>
  <g>
    <path class="cls-7" d="M347.42,619.42c.75,0,1.52.4,2.29,1.18.83.84,1.24,1.69,1.24,2.55,0,.75-.26,1.38-.78,1.89l-.92-.93c.32-.32.49-.7.49-1.13,0-.48-.25-.98-.76-1.5-.56-.57-1.06-.86-1.49-.86-.38,0-.69.12-.93.36-.24.24-.37.47-.37.68,0,.27.1.65.32,1.13.34.89.73,1.9,1.15,3.03.13.3.2.63.2,1.01,0,.59-.21,1.09-.61,1.49-.54.54-1.19.8-1.94.8-.81,0-1.67-.47-2.58-1.39-.88-.89-1.32-1.82-1.32-2.79,0-.7.34-1.38,1.02-2.05l.92.93c-.49.48-.73.94-.74,1.37,0,.59.3,1.2.92,1.82.56.57,1.11.85,1.65.86.43,0,.75-.1.97-.32.24-.24.37-.52.37-.85,0-.27-.08-.62-.24-1.05-.13-.4-.32-.92-.56-1.54-.27-.7-.48-1.27-.64-1.7-.13-.3-.2-.61-.2-.93,0-.48.21-.93.61-1.33.51-.51,1.15-.76,1.9-.76Z"/>
    <path class="cls-7" d="M353.55,626.19c1.13,0,2.1.42,2.9,1.23.8.81,1.2,1.78,1.19,2.91,0,1.29-.58,2.5-1.72,3.62-1.14,1.12-2.35,1.68-3.64,1.67-1.13,0-2.1-.42-2.9-1.23-.8-.81-1.2-1.78-1.19-2.91,0-1.29.58-2.5,1.72-3.62,1.14-1.12,2.35-1.68,3.64-1.67ZM353.7,627.4c-.92,0-1.86.47-2.83,1.44s-1.46,1.9-1.47,2.82c0,.81.25,1.47.76,1.98.51.51,1.17.77,1.97.78.91,0,1.86-.47,2.83-1.44s1.46-1.9,1.47-2.82c0-.81-.25-1.47-.75-1.98-.51-.51-1.17-.77-1.97-.78Z"/>
    <path class="cls-7" d="M360.74,631.92l.92.93-4.87,4.81c-.38.38-.57.8-.57,1.29,0,.59.28,1.17.84,1.74.56.57,1.14.85,1.73.86.48,0,.92-.18,1.29-.56l4.87-4.81.92.93-4.91,4.85c-.6.59-1.27.88-2.02.88-.86,0-1.75-.47-2.66-1.39-.91-.92-1.36-1.81-1.36-2.67,0-.75.3-1.42.9-2.01l4.91-4.85Z"/>
    <path class="cls-7" d="M367.32,638.58l1,1.01-2.27,8.66,5.48-5.42.92.93-6.94,6.86-1-1.02,2.27-8.66-5.48,5.42-.92-.93,6.94-6.86Z"/>
    <path class="cls-7" d="M373.86,645.2l2.41,2.44c.8.81,1.2,1.78,1.19,2.91,0,1.18-.61,2.36-1.8,3.54-1.14,1.12-2.32,1.68-3.56,1.67-1.02,0-1.95-.43-2.78-1.27l-2.41-2.44,6.94-6.86ZM374.01,646.89l-5.4,5.34,1.44,1.46c.51.51,1.08.77,1.73.78,1.02,0,1.99-.45,2.91-1.36.97-.96,1.46-1.93,1.47-2.9,0-.75-.23-1.37-.72-1.86l-1.44-1.46Z"/>
  </g>
  <g>
    <path class="cls-7" d="M434.72,619.42c.75,0,1.52.4,2.29,1.18.83.84,1.24,1.69,1.24,2.55,0,.75-.26,1.38-.78,1.89l-.92-.93c.32-.32.49-.7.49-1.13,0-.48-.25-.98-.76-1.5-.56-.57-1.06-.85-1.49-.86-.38,0-.69.12-.93.36-.24.24-.37.47-.37.68,0,.27.1.65.32,1.13.34.89.73,1.9,1.15,3.04.13.29.2.63.2,1.01,0,.59-.21,1.09-.61,1.49-.54.54-1.19.8-1.94.8-.81,0-1.67-.47-2.57-1.39-.88-.89-1.32-1.82-1.32-2.79,0-.7.35-1.38,1.02-2.05l.92.93c-.49.48-.73.94-.73,1.37,0,.59.3,1.2.92,1.82.56.57,1.11.85,1.65.86.43,0,.75-.1.97-.32.24-.24.37-.52.37-.84,0-.27-.08-.62-.24-1.05-.13-.4-.32-.92-.56-1.54-.26-.7-.48-1.27-.64-1.7-.13-.3-.2-.61-.2-.93,0-.48.21-.93.61-1.33.51-.51,1.15-.76,1.9-.75Z"/>
    <path class="cls-7" d="M440.34,624.13l5.5,5.56-.77.76-2.29-2.31-6.17,6.1-.92-.93,6.17-6.1-2.29-2.31.77-.76Z"/>
    <path class="cls-7" d="M439.3,636.96l9.75-4.18.8.81-4.29,9.7-.96-.97,1.27-2.94-2.65-2.68-2.95,1.23-.96-.97ZM448.11,634.51l-3.84,1.71,2.09,2.11,1.76-3.82Z"/>
    <path class="cls-7" d="M453.5,637.36l3.37,3.41c.53.54.8,1.16.8,1.86,0,.7-.32,1.36-.94,1.97-.62.62-1.28.92-1.98.92-.38,0-.77-.15-1.17-.45l-1.56,4.67-1-1.02,1.56-4.43-2.09-2.11-3,2.97-.92-.93,6.94-6.86ZM453.65,639.06l-2.4,2.37,2.37,2.39c.27.27.59.41.97.41.38,0,.77-.2,1.17-.6.38-.38.57-.78.57-1.21,0-.43-.14-.79-.44-1.09l-2.25-2.27Z"/>
    <path class="cls-7" d="M459.32,643.33l5.5,5.56-.77.76-2.29-2.31-6.17,6.1-.92-.93,6.17-6.1-2.29-2.31.77-.76Z"/>
  </g>
  <g>
    <path class="cls-1" d="M958.08,296.87h-92.91v-6.69h91.35c.57,2.15,1.09,4.38,1.56,6.69Z"/>
    <path class="cls-1" d="M960.16,309.91h-94.99v-6.68h94.07c.34,2.16.65,4.39.92,6.68Z"/>
    <path class="cls-1" d="M961.26,323.3h-96.09v-6.68h95.66c.14,1.75.26,3.54.36,5.36.02.44.05.88.07,1.32Z"/>
    <path class="cls-1" d="M961.98,336.69h-96.81v-6.68h96.46c.11,2.22.23,4.44.35,6.68Z"/>
    <path class="cls-1" d="M962.66,349.74h-97.49v-6.69h97.14c.12,2.22.24,4.45.35,6.69Z"/>
    <path class="cls-1" d="M963.34,363.13h-98.17v-6.69h97.83c.12,2.22.23,4.45.34,6.69Z"/>
  </g>
  <path class="cls-8" d="M193.87,345.95c.54-1.64.84-3.38.84-5.2,0-2.23-.45-4.35-1.24-6.3l40.83-49.43-50.31,40.14c-1.86-.72-3.88-1.13-6-1.13-2.45,0-4.77.54-6.87,1.49l-48.97-40.45,40.06,50.2c-.6,1.72-.94,3.56-.94,5.48,0,1.79.29,3.5.81,5.12l-40.93,49.55,49.63-39.6c2.18,1.05,4.62,1.65,7.21,1.65s5.13-.63,7.35-1.72l47.96,39.61-39.43-49.41Z"/>
  <path class="cls-8" d="M188.66,600.76c.54-1.64.84-3.38.84-5.2,0-2.23-.45-4.35-1.24-6.3l40.83-49.43-50.31,40.14c-1.86-.72-3.88-1.13-6-1.13-2.45,0-4.77.54-6.87,1.49l-48.97-40.45,40.06,50.2c-.6,1.72-.94,3.56-.94,5.48,0,1.79.29,3.5.81,5.12l-40.93,49.55,49.63-39.6c2.18,1.05,4.62,1.65,7.21,1.65s5.13-.63,7.35-1.72l47.96,39.61-39.43-49.41Z"/>
  <g>
    <path class="cls-1" d="M55.15,428.22c1.2,1.2,1.8,2.66,1.8,4.37s-.6,3.17-1.8,4.37c-1.37,1.37-3.26,2.06-5.66,2.06s-4.29-.69-5.66-2.06c-1.2-1.2-1.8-2.66-1.8-4.37s.6-3.17,1.8-4.37c1.37-1.37,3.26-2.06,5.66-2.06s4.29.69,5.66,2.06ZM54.03,429.67c-.97-.97-2.49-1.46-4.55-1.46s-3.57.48-4.55,1.46c-.86.86-1.29,1.83-1.29,2.92s.43,2.06,1.29,2.92c.97.97,2.49,1.46,4.55,1.46s3.57-.49,4.55-1.46c.86-.86,1.29-1.83,1.29-2.92s-.43-2.06-1.29-2.92Z"/>
    <path class="cls-1" d="M56.78,441.94v2.14l-11.58,6.86h11.58v1.97h-14.67v-2.14l11.58-6.86h-11.58v-1.97h14.67Z"/>
  </g>
  <g>
    <path class="cls-1" d="M52.06,497.03c1.2,1.2,1.8,2.66,1.8,4.37s-.6,3.17-1.8,4.37c-1.37,1.37-3.26,2.06-5.66,2.06s-4.29-.69-5.66-2.06c-1.2-1.2-1.8-2.66-1.8-4.37s.6-3.17,1.8-4.37c1.37-1.37,3.26-2.06,5.66-2.06s4.29.69,5.66,2.06ZM50.94,498.48c-.97-.97-2.49-1.46-4.55-1.46s-3.57.48-4.55,1.46c-.86.86-1.29,1.83-1.29,2.92s.43,2.06,1.29,2.92c.97.97,2.49,1.46,4.55,1.46s3.57-.49,4.55-1.46c.86-.86,1.29-1.83,1.29-2.92s-.43-2.06-1.29-2.92Z"/>
    <path class="cls-1" d="M53.69,510.92v9.86h-1.63v-7.89h-4.8v6.17h-1.63v-6.17h-6.6v-1.97h14.67Z"/>
    <path class="cls-1" d="M53.69,523.01v9.86h-1.63v-7.89h-4.8v6.17h-1.63v-6.17h-6.6v-1.97h14.67Z"/>
  </g>
  <path class="cls-3" d="M725.79,285.26l-403.99,403.99c-2.22-.12-4.44-.24-6.66-.37-6.91-.4-12.57-5.63-13.51-12.47-20.45-147.08-20.19-284.33,8.89-407.87,1.1-4.71,5.3-8.06,10.15-8.08,144.79-.68,277.26,6.32,405.12,24.8Z"/>
</svg>