<?xml version="1.0" encoding="UTF-8"?>
<svg id="Layer_1" data-name="Layer 1" xmlns="http://www.w3.org/2000/svg" viewBox="0 0 1000 1000">
  <defs>
    <style>
      .cls-1 {
        opacity: .81;
      }

      .cls-2 {
        fill: #2f6ab4;
      }

      .cls-3 {
        fill: #231f20;
      }

      .cls-4 {
        fill: #676471;
      }

      .cls-4, .cls-5, .cls-6, .cls-7, .cls-8, .cls-9, .cls-10, .cls-11, .cls-12, .cls-13, .cls-14 {
        opacity: .29;
      }

      .cls-15 {
        fill: #aa9b5e;
      }

      .cls-16 {
        fill: #232323;
      }

      .cls-5 {
        stroke: #30443c;
        stroke-width: 3px;
      }

      .cls-5, .cls-6, .cls-7, .cls-9, .cls-11, .cls-12, .cls-13, .cls-14 {
        fill: none;
      }

      .cls-5, .cls-9, .cls-12, .cls-13, .cls-17, .cls-18 {
        stroke-miterlimit: 10;
      }

      .cls-6, .cls-7, .cls-9, .cls-11, .cls-12, .cls-13 {
        stroke: #363147;
      }

      .cls-6, .cls-7, .cls-9, .cls-11, .cls-12, .cls-14 {
        stroke-width: 7px;
      }

      .cls-6, .cls-7, .cls-11, .cls-14 {
        stroke-linejoin: round;
      }

      .cls-19 {
        fill: #4b4a45;
      }

      .cls-20 {
        fill: #fdfeff;
        opacity: .04;
      }

      .cls-21 {
        fill: #5385b8;
      }

      .cls-22 {
        fill: #8eccc5;
      }

      .cls-23 {
        opacity: .15;
      }

      .cls-23, .cls-10, .cls-24 {
        fill: #363147;
      }

      .cls-7, .cls-12 {
        stroke-linecap: round;
      }

      .cls-8 {
        fill: #295e7f;
      }

      .cls-25 {
        fill: #23608d;
      }

      .cls-11 {
        stroke-linecap: square;
      }

      .cls-26 {
        fill: #2f378c;
      }

      .cls-13 {
        stroke-width: 10px;
      }

      .cls-17 {
        fill: #f78d35;
      }

      .cls-17, .cls-18 {
        stroke: #4a4a4a;
        stroke-width: 1.06px;
      }

      .cls-18 {
        fill: #e8e8d6;
      }

      .cls-27 {
        fill: #75aea7;
      }

      .cls-24 {
        opacity: .45;
      }

      .cls-28 {
        fill: #1d5694;
      }

      .cls-29 {
        fill: #dcdbdb;
      }

      .cls-30 {
        fill: #315746;
        opacity: .5;
      }

      .cls-14 {
        stroke: #827d93;
      }
    </style>
  </defs>
  <path class="cls-2" d="M979.07,582.91c2.57,101.38,9.49,145.62-74.15,167.85-132.93,35.32-190.73,28.11-247.76,28.25-49.9.12-163.31-19.63-163.31-19.63h-50.41c-3.74,0-7.62.1-11.62.29-44.28,2.04-103.88,14.36-153.17,14.36-53.76,0-73.1-.04-123.32,0-76.41.06-100.1-55.24-108.3-82.28-8.21-27.04-28.98-124.56-28.98-205.47s15.93-152.16,30.66-209.81c14.73-57.64,56.49-55.97,89.8-55.97s670.29,2.57,747.85,2.57,93.99,40.89,94.4,78.19c.41,37.31-4.27,180.27-1.7,281.66Z"/>
  <path class="cls-28" d="M113.64,249.35c24.5-2.59,322.23-25.49,432.8-15.35,110.56,10.14,272.25,33.85,289.9,37.2,17.65,3.35,53.36,6.3,56.02,58.42s-7.83,101.14,28.07,140.36c35.9,39.22,40.07,29.56,40.07,107.3s-16.4,110.4-122.94,123.44c-106.54,13.04-345.29,39.51-470.69,32.75-125.4-6.76-203.43-13.39-243.96-15.75s-52.17-8.15-63.73-65.44c-11.56-57.29-19.61-137.76-18.64-183.79s17.05-158.04,26.23-182.5c9.18-24.46,29.83-34.83,46.87-36.63Z"/>
  <path class="cls-30" d="M827.04,721.48c-168.69,21.16-344.86,19.98-527.75-1.31-35.78-4.16-62.86-35.69-62.86-73.22v-366.45c0-13.88,10.79-25.12,24.1-25.12h554.77c42.56,0,77.06,35.97,77.06,80.33v308.84c0,39.16-28.02,72.26-65.32,76.93Z"/>
  <circle class="cls-10" cx="234.09" cy="295.8" r="6.89"/>
  <circle class="cls-5" cx="118.75" cy="430.18" r="5.67"/>
  <polyline class="cls-14" points="916.72 485.22 934.41 485.22 969.65 485.22"/>
  <line class="cls-14" x1="916.72" y1="454.24" x2="970.56" y2="454.24"/>
  <line class="cls-14" x1="971.74" y1="514.59" x2="951.15" y2="514.83"/>
  <line class="cls-11" x1="230.49" y1="237.86" x2="230.49" y2="295.8"/>
  <line class="cls-11" x1="764.34" y1="235.68" x2="764.34" y2="293.61"/>
  <line class="cls-11" x1="798.21" y1="701.57" x2="798.21" y2="768.18"/>
  <circle class="cls-13" cx="895.97" cy="322.51" r="74.58"/>
  <circle class="cls-4" cx="149.89" cy="341" r="91.64"/>
  <circle class="cls-4" cx="144.09" cy="610.4" r="91.64"/>
  <path class="cls-29" d="M813.78,676.12c-2.19,10.2-10.54,17.95-20.89,19.32-72.45,9.61-143.28,17.03-213.05,21.71-3.73.25-6.89-2.71-6.89-6.45,0-6.61-2.68-12.6-7.01-16.93-4.33-4.33-10.32-7.01-16.94-7.01h-37.56c-3.14,0-5.59.77-7.61,2.04-.43.28-.86.57-1.25.9l-.12.08c-4.16,3.39-6.25,9.02-9.09,13.38l-1.35,2.07c-1.33,2.07-3.67,3.39-6.12,3.2-.64-.05-1.26-.19-1.86-.41-1.24-.47-2.25-1.43-2.95-2.57v-.03c-4.94-8.14-7.74-18.66-20.78-18.66h-125.45c-2.07,0-4.05.38-5.87,1.09-.56.21-1.1.46-1.63.73-5.25,2.71-8.85,8.2-8.85,14.53,0,9.28-7.53,16.74-16.7,16.74-.32,0-.63,0-.94-.02-4.47-.24-8.95-.5-13.42-.77-9.63-.59-17.85-7.25-20.36-16.57-39.43-146.54-42.73-291.89,1.23-438.3,3.25-10.85,13.04-18.45,24.37-18.9,170.41-6.94,334.83,4.55,502.3,29.02,8.43,1.24,15.35,7.38,17.52,15.64,32.84,125.01,30.26,250.75,1.27,386.19Z"/>
  <path class="cls-19" d="M764,639.46h-458.07c-10.35,0-19.2-7.39-21.16-17.59-18.2-94.87-17.47-190.63.16-287.24,1.88-10.29,10.78-17.78,21.19-17.78h457.74c10.1,0,18.85,7.05,21.03,16.94,21.42,97.16,21.81,193.47.11,288.87-2.24,9.83-10.95,16.79-21,16.79Z"/>
  <rect class="cls-16" x="311.99" y="339.45" width="445.33" height="277.4"/>
  <g>
    <g>
      <path class="cls-22" d="M871.03,681.07c-7.38,0-14.86-.55-22.23-1.64-5.3-.78-9.47-4.28-11.15-9.34-1.66-5.01-.41-10.24,3.33-13.98l25.04-25.04c1.38-1.38,3.22-2.14,5.18-2.14s3.79.76,5.18,2.14l25.01,25.01c3.75,3.75,5,9.01,3.33,14.07-1.64,4.99-5.72,8.44-10.89,9.21-7.58,1.14-15.25,1.71-22.8,1.71Z"/>
      <path class="cls-27" d="M871.2,630.93c1.42,0,2.76.55,3.76,1.56l25.01,25.01c3.21,3.21,4.27,7.7,2.85,12.03-1.4,4.26-4.88,7.2-9.29,7.86-7.48,1.12-15.05,1.69-22.5,1.69s-14.67-.54-21.94-1.62c-4.54-.67-8.11-3.66-9.54-7.99-1.41-4.28-.35-8.74,2.84-11.93l25.04-25.04c1.01-1.01,2.34-1.56,3.76-1.56M871.2,626.93c-2.39,0-4.77.91-6.59,2.73l-25.04,25.04c-9.18,9.18-3.9,24.82,8.94,26.71,7.5,1.11,15,1.66,22.52,1.66s15.39-.58,23.09-1.74c12.72-1.91,17.77-17.58,8.67-26.67l-25.01-25.01c-1.82-1.82-4.21-2.73-6.59-2.73h0Z"/>
    </g>
    <g>
      <path class="cls-22" d="M931.14,640.96c-2.54,0-6.26-.7-9.6-4.04l-25.04-25.04c-2.85-2.86-2.85-7.5,0-10.36l25.01-25.01c2.61-2.61,6.04-4.04,9.66-4.04,5.9,0,12.48,3.98,13.62,11.6,2.25,14.98,2.27,30.13.08,45.03-1.15,7.78-7.77,11.86-13.72,11.86Z"/>
      <path class="cls-27" d="M931.17,570.48v4c5.05,0,10.67,3.4,11.64,9.9,2.22,14.79,2.24,29.74.07,44.44-.98,6.66-6.65,10.15-11.74,10.15-2.16,0-5.33-.6-8.18-3.45l-25.04-25.04c-2.08-2.08-2.08-5.45,0-7.53l25.01-25.01c2.86-2.86,6.06-3.46,8.25-3.46v-4M931.17,570.48c-3.92,0-7.9,1.45-11.08,4.63l-25.01,25.01c-3.64,3.64-3.64,9.54,0,13.18l25.04,25.04c3.18,3.18,7.13,4.62,11.01,4.62,7.34,0,14.46-5.17,15.7-13.57,2.24-15.16,2.21-30.37-.08-45.62-1.24-8.27-8.31-13.3-15.6-13.3h0Z"/>
    </g>
  </g>
  <g>
    <g>
      <path class="cls-22" d="M143.94,684.75c-7.38,0-14.86-.55-22.23-1.64-5.31-.78-9.47-4.28-11.15-9.34-1.66-5.01-.41-10.24,3.33-13.98l25.04-25.04c1.38-1.38,3.22-2.14,5.18-2.14s3.79.76,5.18,2.14l25.01,25.01c3.75,3.75,5,9.01,3.33,14.07-1.65,4.99-5.72,8.44-10.89,9.21-7.58,1.14-15.25,1.71-22.8,1.71Z"/>
      <path class="cls-27" d="M144.11,634.61c1.42,0,2.76.55,3.76,1.56l25.01,25.01c3.21,3.21,4.27,7.7,2.85,12.03-1.4,4.26-4.88,7.2-9.29,7.86-7.48,1.12-15.05,1.69-22.5,1.69s-14.67-.54-21.94-1.62c-4.54-.67-8.11-3.66-9.54-7.99-1.41-4.28-.35-8.74,2.84-11.93l25.04-25.04c1.01-1.01,2.34-1.56,3.76-1.56M144.11,630.61c-2.39,0-4.77.91-6.59,2.73l-25.04,25.04c-9.18,9.18-3.9,24.82,8.94,26.71,7.5,1.11,15,1.66,22.52,1.66s15.39-.58,23.1-1.74c12.72-1.91,17.77-17.58,8.67-26.67l-25.01-25.01c-1.82-1.82-4.21-2.73-6.59-2.73h0Z"/>
    </g>
    <g>
      <path class="cls-22" d="M204.05,644.64c-2.54,0-6.26-.7-9.6-4.04l-25.04-25.04c-2.85-2.86-2.85-7.5,0-10.36l25.01-25.01c2.61-2.61,6.04-4.04,9.66-4.04,5.9,0,12.48,3.98,13.62,11.6,2.25,14.98,2.27,30.13.08,45.03-1.15,7.79-7.77,11.86-13.72,11.86Z"/>
      <path class="cls-27" d="M204.08,574.16v4c5.05,0,10.67,3.4,11.64,9.9,2.22,14.79,2.24,29.74.07,44.44-.98,6.66-6.65,10.15-11.74,10.15-2.16,0-5.33-.6-8.18-3.45l-25.04-25.04c-2.08-2.08-2.08-5.45,0-7.53l25.01-25.01c2.86-2.86,6.06-3.46,8.25-3.46v-4M204.08,574.16c-3.92,0-7.9,1.45-11.08,4.63l-25.01,25.01c-3.64,3.64-3.64,9.54,0,13.18l25.04,25.04c3.18,3.18,7.13,4.62,11.01,4.62,7.34,0,14.46-5.17,15.7-13.57,2.24-15.16,2.21-30.37-.08-45.62-1.24-8.27-8.31-13.3-15.6-13.3h0Z"/>
    </g>
    <g>
      <path class="cls-22" d="M144.08,588.19c-1.96,0-3.79-.76-5.18-2.14l-25.01-25.01c-3.75-3.75-5-9.01-3.33-14.07,1.65-4.99,5.72-8.44,10.89-9.21,7.58-1.14,15.25-1.71,22.8-1.71s14.86.55,22.23,1.64c5.31.78,9.47,4.28,11.15,9.34,1.66,5.01.41,10.23-3.33,13.98l-25.04,25.04c-1.38,1.38-3.22,2.14-5.18,2.14Z"/>
      <path class="cls-27" d="M144.25,538.05h0c7.29,0,14.67.54,21.94,1.62,4.54.67,8.11,3.66,9.54,7.99,1.41,4.28.35,8.74-2.84,11.93l-25.04,25.04c-1.01,1.01-2.34,1.56-3.76,1.56s-2.76-.55-3.76-1.56l-25.01-25.01c-3.21-3.21-4.27-7.7-2.85-12.03,1.4-4.26,4.88-7.2,9.29-7.86,7.48-1.12,15.05-1.69,22.5-1.69M144.25,534.05c-7.69,0-15.39.58-23.09,1.74-12.72,1.91-17.77,17.58-8.67,26.67l25.01,25.01c1.82,1.82,4.21,2.73,6.59,2.73s4.77-.91,6.59-2.73l25.04-25.04c9.18-9.18,3.9-24.82-8.94-26.71-7.5-1.11-15-1.66-22.52-1.66h0Z"/>
    </g>
    <g>
      <path class="cls-22" d="M84.11,644.64c-5.9,0-12.48-3.98-13.62-11.6-2.25-14.98-2.27-30.13-.08-45.03,1.15-7.79,7.77-11.86,13.72-11.86,2.54,0,6.26.7,9.6,4.04l25.04,25.04c1.38,1.38,2.14,3.22,2.14,5.18s-.76,3.79-2.14,5.18l-25.01,25.01c-2.61,2.61-6.04,4.04-9.66,4.04Z"/>
      <path class="cls-27" d="M84.14,574.16v4c2.16,0,5.33.6,8.18,3.45l25.04,25.04c2.08,2.08,2.08,5.45,0,7.53l-25.01,25.01c-2.86,2.86-6.06,3.46-8.25,3.46-5.05,0-10.67-3.4-11.64-9.9-2.22-14.79-2.24-29.74-.07-44.44.98-6.66,6.65-10.15,11.74-10.15v-4M84.13,574.16c-7.34,0-14.46,5.17-15.7,13.57-2.24,15.16-2.21,30.37.08,45.62,1.24,8.27,8.31,13.3,15.6,13.3,3.92,0,7.9-1.45,11.08-4.63l25.01-25.01c3.64-3.64,3.64-9.54,0-13.18l-25.04-25.04c-3.18-3.18-7.13-4.62-11.01-4.62h0Z"/>
    </g>
  </g>
  <g>
    <g>
      <path class="cls-22" d="M149.73,415.35c-7.39,0-14.87-.55-22.23-1.64-5.31-.78-9.47-4.28-11.15-9.34-1.66-5.01-.41-10.23,3.33-13.98l25.04-25.04c1.38-1.38,3.22-2.14,5.18-2.14s3.79.76,5.18,2.14l25.01,25.01c3.75,3.75,5,9.01,3.33,14.07-1.65,4.99-5.72,8.44-10.89,9.22-7.57,1.14-15.24,1.71-22.8,1.71Z"/>
      <path class="cls-27" d="M149.9,365.21c1.42,0,2.76.55,3.76,1.56l25.01,25.01c3.21,3.21,4.27,7.7,2.85,12.03-1.4,4.26-4.88,7.2-9.29,7.86-7.48,1.12-15.05,1.69-22.5,1.69s-14.67-.54-21.94-1.62c-4.54-.67-8.11-3.66-9.54-7.99-1.41-4.28-.35-8.74,2.84-11.93l25.04-25.04c1.01-1.01,2.34-1.56,3.76-1.56M149.9,361.21c-2.39,0-4.77.91-6.59,2.73l-25.04,25.04c-9.18,9.18-3.9,24.82,8.94,26.71,7.5,1.11,15,1.66,22.52,1.66s15.39-.58,23.09-1.74c12.72-1.91,17.77-17.58,8.67-26.67l-25.01-25.01c-1.82-1.82-4.21-2.73-6.59-2.73h0Z"/>
    </g>
    <g>
      <path class="cls-22" d="M209.84,375.24c-2.54,0-6.26-.7-9.6-4.04l-25.04-25.04c-2.85-2.85-2.85-7.5,0-10.36l25.01-25.01c2.61-2.61,6.04-4.04,9.66-4.04,5.9,0,12.48,3.98,13.62,11.6,2.25,14.98,2.27,30.13.07,45.03-1.15,7.79-7.77,11.86-13.72,11.86Z"/>
      <path class="cls-27" d="M209.87,304.76v4c5.05,0,10.67,3.4,11.64,9.9,2.22,14.79,2.24,29.74.07,44.44-.98,6.66-6.65,10.15-11.74,10.15-2.16,0-5.33-.6-8.18-3.45l-25.04-25.04c-2.08-2.08-2.08-5.45,0-7.53l25.01-25.01c2.86-2.86,6.06-3.46,8.25-3.46v-4M209.87,304.76c-3.92,0-7.9,1.45-11.08,4.63l-25.01,25.01c-3.64,3.64-3.64,9.54,0,13.18l25.04,25.04c3.18,3.18,7.13,4.62,11.01,4.62,7.34,0,14.46-5.17,15.7-13.57,2.24-15.16,2.21-30.37-.08-45.62-1.24-8.27-8.31-13.3-15.6-13.3h0Z"/>
    </g>
    <g>
      <path class="cls-22" d="M149.87,318.79c-1.96,0-3.79-.76-5.18-2.14l-25.01-25.01c-3.75-3.75-5-9.01-3.33-14.06,1.65-4.99,5.72-8.44,10.89-9.22,7.58-1.14,15.25-1.71,22.8-1.71s14.86.55,22.23,1.64c5.31.78,9.47,4.28,11.15,9.34,1.66,5.01.41,10.24-3.33,13.98l-25.04,25.04c-1.38,1.38-3.22,2.14-5.18,2.14Z"/>
      <path class="cls-27" d="M150.04,268.65h0c7.29,0,14.67.54,21.94,1.62,4.54.67,8.11,3.66,9.54,7.99,1.41,4.28.35,8.74-2.84,11.93l-25.04,25.04c-1.01,1.01-2.34,1.56-3.76,1.56s-2.76-.55-3.76-1.56l-25.01-25.01c-3.21-3.21-4.27-7.7-2.85-12.03,1.4-4.26,4.88-7.2,9.29-7.86,7.48-1.12,15.05-1.69,22.5-1.69M150.04,264.65c-7.69,0-15.39.58-23.09,1.74-12.72,1.91-17.77,17.58-8.67,26.67l25.01,25.01c1.82,1.82,4.21,2.73,6.59,2.73s4.77-.91,6.59-2.73l25.04-25.04c9.18-9.18,3.9-24.82-8.94-26.71-7.5-1.11-15-1.66-22.52-1.66h0Z"/>
    </g>
    <g>
      <path class="cls-22" d="M89.9,375.24c-5.9,0-12.48-3.98-13.62-11.6-2.25-14.98-2.27-30.13-.08-45.03,1.15-7.79,7.77-11.86,13.72-11.86,2.54,0,6.26.7,9.6,4.04l25.04,25.04c2.85,2.85,2.85,7.5,0,10.36l-25.01,25.01c-2.61,2.61-6.04,4.04-9.66,4.04Z"/>
      <path class="cls-27" d="M89.93,304.76v4c2.16,0,5.33.6,8.18,3.45l25.04,25.04c2.08,2.08,2.08,5.45,0,7.53l-25.01,25.01c-2.86,2.86-6.06,3.46-8.25,3.46-5.05,0-10.67-3.4-11.64-9.9-2.22-14.79-2.24-29.74-.07-44.44.98-6.66,6.65-10.15,11.74-10.15v-4M89.93,304.76c-7.34,0-14.46,5.17-15.7,13.57-2.24,15.16-2.21,30.37.08,45.62,1.24,8.27,8.31,13.3,15.6,13.3,3.92,0,7.9-1.45,11.08-4.63l25.01-25.01c3.64-3.64,3.64-9.54,0-13.18l-25.04-25.04c-3.18-3.18-7.13-4.62-11.01-4.62h0Z"/>
    </g>
  </g>
  <path class="cls-24" d="M338.99,692.58h33.62c9.36,0,16.96,7.6,16.96,16.96v2.02c0,9.36-7.6,16.96-16.96,16.96h-33.62c-9.36,0-16.96-7.6-16.96-16.96v-2.02c0-9.36,7.6-16.96,16.96-16.96Z"/>
  <rect class="cls-18" x="328.66" y="698.1" width="54.27" height="24.88" rx="11.74" ry="11.74"/>
  <path class="cls-24" d="M421.58,692.58h34.07c9.36,0,16.96,7.6,16.96,16.96v2.02c0,9.36-7.6,16.96-16.96,16.96h-34.07c-9.36,0-16.96-7.6-16.96-16.96v-2.02c0-9.36,7.6-16.96,16.96-16.96Z"/>
  <rect class="cls-18" x="411.48" y="698.1" width="54.27" height="24.88" rx="11.74" ry="11.74"/>
  <rect class="cls-24" x="495.42" y="692.58" width="72.02" height="35.93" rx="16.35" ry="16.35"/>
  <rect class="cls-17" x="502.1" y="698.1" width="58.66" height="24.88" rx="11.74" ry="11.74"/>
  <path class="cls-19" d="M395.7,266.45l4.02-4.53h-5.94l-1.48,2.28-2.08,1.87h-6.32l-5.25,3.09-1.44,5.15c-.32,1.13.73,2.05,2.34,2.05h10.23l4.36.1,2.3-8.33c.19-.68-.11-1.29-.74-1.67h0ZM388.76,274.77l-2.2.05h-2.91c-.4,0-.66-.24-.58-.51l1.42-5.15,2.62-1.54h2.94c.39,0,.66.22.58.51l-1.86,6.64M496.93,276.34l-3.6-.02,2.45-8.72h-2.19c-2,0-3.99,1.16-4.38,2.57l-.58,2.05c-.37,1.43.94,2.58,2.94,2.58h1.71l-2.14,1.54h-3.64c-3.22,0-5.36-1.85-4.72-4.12l.6-2.05c.67-2.27,3.79-4.11,7-4.11h5.83l5.9-.21-2.91,10.4-2.27.08M455.51,262.92h-8.07c-.8,0-1.67.69-1.91,1.56l-.23.81c-.23.87.21,1.56,1.02,1.56h6.59c2,0,3.16,1.77,2.53,3.97l-.46,1.56c-.63,2.19-2.81,3.96-4.81,3.96h-22.25l2.88-2.37h16.41c.8,0,1.65-.73,1.9-1.59l.23-.78c.25-.87-.21-1.59-1.01-1.59h-6.59c-2,0-3.1-1.77-2.51-3.93l.46-1.59c.62-2.16,2.78-3.93,4.81-3.93h7.99l6.18-.36-3.15,2.73M419.06,276.34h-3.65l2.02-7.19,5.25-3.09h8.76c2.41,0,3.96,1.38,3.48,3.09v.04s-2.61,1.54-2.61,1.54h-3.66l.45-1.58c.26-.87-.57-1.55-1.76-1.55h-1.47l-2.62,1.55-1.97,7.1-2.22.08M372.41,276.35h-3.66l2.02-7.19c.24-.87-.56-1.55-1.75-1.55h-3.66l-1.73,6.28-2.88,2.46h-3.66l2.95-10.51,5.73.23h7.34c2.41,0,3.97,1.38,3.48,3.09l-1.96,7.1-2.22.08M516.61,276.35h-3.67l2.02-7.19c.24-.87-.56-1.55-1.75-1.55h-3.67l-1.73,6.28-2.89,2.46h-3.65l2.94-10.51,5.74.23h7.34c2.42,0,3.97,1.38,3.49,3.09l-1.97,7.1-2.22.08M402.66,274.3l.51-1.87h7.29l5.25-3.09.31-1.22c.32-1.13-.73-2.05-2.34-2.05h-10.2l-5.25,3.09-.5,1.77c-.02.05-.02.1-.04.15l-.9,3.21c-.32,1.13.73,2.05,2.34,2.05h9.92l2.62-1.54h-8.45c-.39,0-.66-.23-.58-.51h0ZM404.07,269.16l2.62-1.55h3.87c.38,0,.66.22.58.51l-.35,1.22-2.62,1.54h-4.59l.48-1.72M350.67,276.35h-10.23c-1.61,0-2.65-.92-2.34-2.05l1.44-5.14,5.25-3.09h10.2c1.61,0,2.65.92,2.34,2.05l-1.42,5.14-5.24,3.09ZM350.07,273.26l1.44-5.14c.09-.29-.18-.51-.58-.51h-2.94l-2.62,1.55-1.42,5.14c-.07.28.19.51.58.51h2.91l2.63-1.55M475.69,276.35h-19.73l2.46-8.79,2.54-1.49,3.59-.23-2.52,9.02h1.39l2.54-1.49,1.63-5.81,2.53-1.49,3.6-.23-2.12,7.53-1.01,1.49h1.98l2.56-1.49,1.61-5.81,2.54-1.49,3.6-.23-2.12,7.53-5.05,2.98M331.09,276.35h-20.43l3.32-14.19,2.63-1.86,3.71-.24-3.38,14.43h1.44l2.62-1.86,2.45-10.48,2.62-1.86,3.72-.24-2.94,12.57-1.04,1.86h2.05l2.65-1.86,2.42-10.48,2.62-1.86,3.72-.24-2.94,12.57-5.25,3.71"/>
  <path class="cls-15" d="M329,687.85c-.56.21-1.1.46-1.63.73l-44.65-46.02,1.25-1.1,45.03,46.39Z"/>
  <polygon class="cls-15" points="412.29 686.76 409.96 686.76 366.83 642.24 368.09 641.12 412.29 686.76"/>
  <g>
    <path class="cls-15" d="M302.09,642.66c.86.06,1.71.54,2.54,1.46.89.97,1.3,1.93,1.24,2.87-.06.82-.4,1.49-1.02,2.01l-.99-1.08c.39-.33.6-.72.64-1.19.04-.53-.22-1.09-.76-1.69-.6-.66-1.15-1.01-1.64-1.04-.43-.03-.79.08-1.09.32-.29.24-.45.48-.47.72-.02.29.07.71.28,1.26.33.99.7,2.12,1.11,3.39.13.33.18.71.15,1.12-.05.64-.31,1.17-.8,1.58-.66.54-1.41.79-2.27.73-.92-.06-1.87-.63-2.84-1.7-.95-1.04-1.38-2.08-1.31-3.14.05-.76.49-1.48,1.31-2.16l.99,1.08c-.59.49-.9.97-.93,1.44-.05.65.26,1.33.92,2.05.6.66,1.21,1.01,1.82,1.05.49.03.87-.06,1.13-.28.29-.25.45-.54.48-.9.02-.29-.05-.68-.2-1.16-.12-.45-.3-1.02-.53-1.71-.25-.78-.46-1.42-.61-1.9-.13-.33-.19-.68-.16-1.03.04-.53.3-1,.79-1.4.62-.52,1.36-.75,2.22-.69Z"/>
    <path class="cls-15" d="M308.63,650.49c1.29.09,2.36.6,3.22,1.55.86.94,1.25,2.03,1.16,3.26-.1,1.41-.83,2.68-2.21,3.82-1.38,1.14-2.8,1.66-4.27,1.56-1.29-.09-2.36-.61-3.22-1.55-.86-.94-1.25-2.03-1.16-3.26.1-1.41.83-2.68,2.21-3.83s2.8-1.66,4.27-1.56ZM308.73,651.82c-1.04-.07-2.16.38-3.33,1.36-1.18.98-1.8,1.97-1.87,2.96-.06.88.18,1.62.73,2.22.54.6,1.28.93,2.2.99,1.04.07,2.16-.38,3.33-1.36,1.18-.98,1.8-1.97,1.87-2.96.06-.88-.18-1.62-.73-2.21-.54-.6-1.28-.93-2.2-.99Z"/>
    <path class="cls-15" d="M316.45,657.26l.99,1.08-5.89,4.9c-.46.38-.71.84-.74,1.36-.05.65.23,1.3.84,1.96.6.66,1.24,1.01,1.92,1.06.55.04,1.06-.13,1.52-.51l5.89-4.9.99,1.08-5.94,4.94c-.72.6-1.51.87-2.37.81-.98-.07-1.96-.64-2.94-1.7-.98-1.07-1.43-2.07-1.36-3.01.06-.82.44-1.53,1.17-2.13l5.94-4.94Z"/>
    <path class="cls-15" d="M323.5,664.99l1.08,1.18-3.19,9.28,6.63-5.51.99,1.08-8.4,6.98-1.08-1.18,3.19-9.28-6.63,5.51-.99-1.08,8.4-6.98Z"/>
    <path class="cls-15" d="M330.51,672.67l2.58,2.83c.86.94,1.25,2.03,1.16,3.26-.09,1.29-.86,2.53-2.3,3.73-1.38,1.14-2.77,1.66-4.18,1.57-1.17-.08-2.19-.61-3.08-1.58l-2.58-2.83,8.4-6.98ZM330.57,674.53l-6.53,5.43,1.55,1.7c.54.6,1.19.92,1.92.97,1.17.08,2.31-.34,3.42-1.27,1.18-.98,1.81-2,1.88-3.05.06-.82-.17-1.51-.69-2.08l-1.55-1.7Z"/>
  </g>
  <g>
    <path class="cls-15" d="M385.57,642.09c.86.05,1.71.52,2.55,1.42.9.96,1.32,1.92,1.27,2.85-.05.82-.38,1.5-.99,2.02l-1-1.07c.39-.33.6-.73.62-1.2.03-.53-.23-1.09-.78-1.68-.61-.65-1.16-.99-1.65-1.02-.43-.02-.79.09-1.08.33-.29.25-.44.49-.46.72-.02.29.08.71.3,1.25.34.99.73,2.12,1.15,3.38.13.33.19.7.17,1.11-.04.65-.3,1.18-.78,1.59-.65.55-1.4.8-2.26.75-.92-.05-1.88-.61-2.86-1.66-.96-1.03-1.41-2.07-1.35-3.12.04-.76.47-1.49,1.28-2.18l1,1.07c-.58.5-.89.98-.92,1.45-.04.65.28,1.33.95,2.04.61.65,1.22,1,1.84,1.03.49.03.87-.07,1.13-.29.29-.25.45-.55.47-.9.02-.29-.05-.68-.21-1.16-.13-.45-.31-1.02-.55-1.71-.26-.78-.47-1.41-.63-1.89-.14-.33-.19-.67-.17-1.02.03-.53.29-1,.77-1.41.62-.52,1.35-.76,2.21-.71Z"/>
    <path class="cls-15" d="M391.73,647.56l5.97,6.39-.92.79-2.48-2.66-7.39,6.29-1-1.07,7.39-6.29-2.48-2.66.92-.79Z"/>
    <path class="cls-15" d="M389.82,661.49l11.37-3.99.87.93-5.45,10.33-1.05-1.12,1.61-3.13-2.88-3.08-3.44,1.17-1.05-1.12ZM400.03,659.33l-4.49,1.64,2.27,2.42,2.22-4.07Z"/>
    <path class="cls-15" d="M406.03,662.76l3.66,3.92c.58.62.85,1.31.81,2.08-.04.76-.44,1.46-1.18,2.1-.75.63-1.52.93-2.32.88-.43-.02-.87-.21-1.31-.56l-2.04,5-1.09-1.17,2.03-4.74-2.27-2.42-3.6,3.06-1-1.07,8.31-7.08ZM406.1,664.62l-2.87,2.44,2.57,2.75c.29.31.65.48,1.08.5.43.02.89-.17,1.38-.58.45-.39.69-.81.72-1.28.03-.47-.12-.88-.44-1.22l-2.44-2.61Z"/>
    <path class="cls-15" d="M412.34,669.61l5.97,6.39-.92.79-2.48-2.66-7.39,6.29-1-1.07,7.39-6.29-2.48-2.66.92-.79Z"/>
  </g>
  <polygon class="cls-26" points="502.47 689.79 461.98 647.76 463.24 646.64 503.83 688.8 502.47 689.79"/>
  <g>
    <path class="cls-26" d="M475.56,641.11l3.54,3.69c.65.68.95,1.42.92,2.25-.04.82-.46,1.58-1.26,2.28-.8.7-1.6,1.03-2.4,1-.8-.04-1.55-.42-2.26-1.16l-2.52-2.63-3.22,2.81-1.02-1.06,8.22-7.18ZM475.67,642.97l-3.17,2.77,2.3,2.4c.41.43.86.66,1.36.68.55.03,1.07-.17,1.55-.59.54-.48.83-.95.85-1.42.02-.53-.17-1.01-.58-1.44l-2.3-2.4Z"/>
    <path class="cls-26" d="M482.65,650.25c1.29.06,2.38.55,3.26,1.47.88.92,1.3,2,1.24,3.23-.06,1.41-.76,2.7-2.11,3.88-1.35,1.17-2.76,1.73-4.23,1.66-1.29-.06-2.38-.55-3.26-1.47-.88-.92-1.3-2-1.25-3.23.06-1.41.77-2.7,2.11-3.88,1.35-1.18,2.76-1.73,4.23-1.66ZM482.78,651.58c-1.05-.05-2.15.43-3.3,1.44-1.15,1.01-1.75,2.01-1.79,3.01-.04.88.22,1.61.78,2.2.56.58,1.3.9,2.22.94,1.04.05,2.14-.43,3.3-1.44,1.15-1.01,1.75-2.01,1.8-3.01.04-.88-.22-1.61-.78-2.2-.56-.58-1.3-.9-2.22-.94Z"/>
    <path class="cls-26" d="M489.93,656.09l.97,1.01-4.91,6.58,7.56-3.81.97,1.01-4.64,6.85,7.3-4.09.97,1.01-9.99,5.51-.88-.92,5.13-7.45-8.23,4.22-.88-.92,6.63-9.01Z"/>
    <path class="cls-26" d="M498.99,665.54l4.86,5.07-.91.8-3.84-4.01-2.55,2.22,3.58,3.73-.91.8-3.58-3.73-2.93,2.56,4.07,4.24-.91.8-5.08-5.3,8.22-7.18Z"/>
    <path class="cls-26" d="M505.62,672.37l3.71,3.87c.59.62.87,1.3.83,2.07-.03.76-.42,1.47-1.16,2.11-.74.64-1.51.95-2.3.91-.43-.02-.87-.2-1.32-.54l-1.98,5.03-1.11-1.15,1.96-4.77-2.3-2.4-3.56,3.11-1.02-1.06,8.22-7.18ZM505.72,674.23l-2.83,2.48,2.61,2.72c.29.31.66.47,1.09.49.43.02.89-.18,1.37-.6.45-.39.68-.82.7-1.29.02-.47-.13-.87-.46-1.21l-2.47-2.58Z"/>
  </g>
  <g>
    <path class="cls-25" d="M980.43,294.51h-26.79v-7.09h26.34c.16,2.28.31,4.64.45,7.09Z"/>
    <path class="cls-25" d="M981.03,308.33h-27.39v-7.08h27.12c.1,2.29.19,4.65.27,7.08Z"/>
    <path class="cls-25" d="M981.35,322.51h-27.71v-7.08h27.58c.04,1.85.07,3.75.1,5.68,0,.47.01.93.02,1.4Z"/>
    <path class="cls-25" d="M981.55,336.7h-27.91v-7.08h27.81c.03,2.35.07,4.7.1,7.08Z"/>
    <path class="cls-25" d="M981.75,350.52h-28.11v-7.09h28.01c.03,2.35.07,4.71.1,7.09Z"/>
    <path class="cls-25" d="M981.95,364.71h-28.31v-7.09h28.21c.03,2.35.07,4.71.1,7.09Z"/>
  </g>
  <path class="cls-8" d="M166.71,346.51c.57-1.73.88-3.58.88-5.51,0-2.36-.47-4.61-1.31-6.67l43.26-52.37-53.3,42.53c-1.98-.76-4.11-1.2-6.36-1.2-2.6,0-5.05.57-7.28,1.58l-51.88-42.85,42.44,53.18c-.63,1.82-.99,3.77-.99,5.8,0,1.89.3,3.71.85,5.42l-43.36,52.49,52.58-41.96c2.31,1.11,4.9,1.75,7.64,1.75s5.43-.67,7.79-1.82l50.81,41.97-41.77-52.35Z"/>
  <path class="cls-8" d="M161.19,616.47c.57-1.73.88-3.58.88-5.51,0-2.36-.47-4.61-1.31-6.67l43.26-52.37-53.3,42.53c-1.98-.76-4.11-1.2-6.36-1.2-2.6,0-5.05.57-7.28,1.58l-51.88-42.85,42.44,53.18c-.63,1.82-.99,3.77-.99,5.8,0,1.89.3,3.71.85,5.42l-43.36,52.49,52.58-41.96c2.31,1.11,4.9,1.75,7.64,1.75s5.43-.67,7.79-1.82l50.81,41.97-41.77-52.35Z"/>
  <path class="cls-20" d="M740.76,274.56l-462.2,441.23c-2.54-.13-5.08-.26-7.62-.4-7.91-.44-14.38-6.15-15.46-13.62-23.4-160.64-23.1-310.54,10.17-445.46,1.26-5.14,6.06-8.8,11.61-8.82,165.65-.74,317.21,6.9,463.49,27.09Z"/>
  <circle class="cls-10" cx="79.37" cy="438.03" r="10.3"/>
  <circle class="cls-10" cx="66.77" cy="398.91" r="6.89"/>
  <circle class="cls-10" cx="221.41" cy="416.29" r="6.89"/>
  <circle class="cls-10" cx="79.37" cy="523.75" r="10.3"/>
  <circle class="cls-9" cx="213.94" cy="253.58" r="10.3"/>
  <circle class="cls-9" cx="798.21" cy="255.38" r="10.3"/>
  <circle class="cls-9" cx="927.03" cy="703.81" r="10.3"/>
  <circle class="cls-9" cx="193.34" cy="484.64" r="10.3"/>
  <circle class="cls-5" cx="161" cy="490.3" r="5.67"/>
  <circle class="cls-9" cx="94.85" cy="710.54" r="10.3"/>
  <path class="cls-12" d="M122.92,444.34c18.05,8.37,36.09,8.37,54.14,0"/>
  <path class="cls-12" d="M180.33,246.45c-18.05-8.37-36.09-8.37-54.14,0"/>
  <path class="cls-12" d="M120.37,711.43c18.05,8.37,36.09,8.37,54.14,0"/>
  <path class="cls-12" d="M99.18,525.55c-18.97,5.98-32.3,18.14-40,36.49"/>
  <polyline class="cls-7" points="209.54 693.95 227.2 678.82 227.2 736.76"/>
  <polyline class="cls-7" points="200.71 436.78 218.37 421.65 216.65 543.79"/>
  <path class="cls-11" d="M977.38,341s4.22,38.49-60.65,69.39v133.41h10.3c13.71,6.11,26.64,7.2,38.28,0h12.13"/>
  <line class="cls-11" x1="916.72" y1="514.35" x2="956.3" y2="514.83"/>
  <path class="cls-11" d="M916.72,423.9h14.95c10.07-5.47,19.81-5.91,29.13,0h14.81s1.83-84.45,1.83-84.45"/>
  <path class="cls-6" d="M916.72,465.26s38.93,30.9,41.82,52.63,1.72,28.49,1.72,28.49"/>
  <path class="cls-23" d="M493.85,759.37h-50.41c-3.74,0-7.62.1-11.62.29-26.61-7.58-60.65-17.17-100.43-28.18,68.83,4.22,162.46,27.9,162.46,27.9Z"/>
  <g>
    <path class="cls-21" d="M435.1,310.5c-.7-.07-2.15-.46-2.86-.68-1.76-.56-3.27-1.64-4.44-3.04-1.06.62-1.96,1.54-3.06,2.11-5.47,2.8-12.25-.21-11.13-6.94.86-5.14,3.22-10.63,4.29-15.79,1.07-3.58,6.67-5.17,6.95-.28l-4.47,16.76c-.15,1.49-.07,3.91,1.93,3.97,1.39.04,2.97-1.97,4.25-2.49-1.32-4.52,2.05-9.01,5.75-11.22,1.32-.79,6.13-3.23,6.39-.37.1,1.09-1.16,1.96-1.79,2.81-.87,1.19-1.75,2.93-2.15,4.35-.98,3.51-.52,8.19,4.27,7.44,4.38-.68,6.01-9.95,2.23-11.69-.95-.44-2.58-.36-.59-1.4,3.97-2.08,10.11-2.37,10.6,3.38.6,7.03-7.27,12.5-13.58,13.07-.68.06-1.92.07-2.6,0Z"/>
    <path class="cls-21" d="M398.4,310.5c-.65.06-1.82.06-2.46,0-10.6-1.07-11.65-11.98-3.17-17.39,1.29-.82,6.22-3.45,6.63-.72.19,1.28-1.02,1.98-1.7,2.9-1.9,2.59-4.54,9.73-.64,11.56,5.94,2.78,9.39-8.21,5.45-11.08-.56-.41-2.53-.69-1.65-1.36.3-.23,1.06-.57,1.44-.73,3.72-1.56,9.23-1.74,9.68,3.46.63,7.28-6.98,12.76-13.59,13.36Z"/>
    <path class="cls-21" d="M378.87,282.81l2.28-.05c2.36.26,4.76.29,7.09.86.17.24-.18,1.28-.27,1.63-.69,2.79-1.52,5.57-2.38,8.31-.54.72-1.38.89-2.19.53-1.97-.88-.35-4.51-1.39-6.11-1.49-2.28-4.67-1.68-6.76-.71-5.33,2.48-9.79,10.86-6.42,16.34,2.87,4.67,8.67,2.09,12.03-.48.67-.52,1.04-1.3,2.04-1.43,1.19-.15,2.34.73,2.38,1.94.05,1.59-2.6,3.29-3.88,3.93-7.52,3.73-20.31,3.15-21.95-7-1.78-11.01,9.74-17.84,19.43-17.75Z"/>
    <path class="cls-21" d="M473.67,292.01l-2.96,10.26c-1.87,1.1-1.89-1.01-2.68-1.95-.86-1.03-2.32-1.22-3.47-.59-1.51.82-4.96,5.18-5.8,6.77-1,1.9-.59,3.38-3.38,3.28-1.78-.06-3.77-.95-3.81-2.95,1.03-3.43,1.69-7.22,2.84-10.59.53-1.55,1.4-2.88,3.02-3.48,2.37-.88,4.26.74,3.94,3.22-.1.81-.63,1.7-.64,2.54,2.07-2.42,4.45-4.69,7.51-5.78.58-.21,2.07-.72,2.6-.72h2.82Z"/>
  </g>
  <g class="cls-1">
    <path class="cls-3" d="M936.78,616.85h-5.87l-.95-4.15h-5.96l-.99,4.15h-5.75l6.59-24.86h6.33l6.59,24.86ZM928.88,608.23c-.84-3.7-1.48-7.22-1.9-10.56h-.07c-.45,3.44-1.07,6.96-1.88,10.56h3.86Z"/>
  </g>
  <g class="cls-1">
    <path class="cls-3" d="M864.72,646.25h5.74c3.34,0,5.74.66,7.21,1.96s2.2,2.98,2.2,5c0,2.19-1.07,3.94-3.2,5.27,2.42.96,3.63,2.78,3.63,5.46,0,2.15-.75,3.88-2.25,5.2-1.5,1.32-3.48,1.97-5.94,1.97h-7.38v-24.86ZM870.36,651.02v5.36c2.52-.06,3.78-.94,3.78-2.63,0-1.01-.3-1.71-.9-2.1-.6-.4-1.56-.61-2.88-.63ZM870.36,660.89v5.38c1.43-.03,2.5-.25,3.21-.66s1.07-1.1,1.07-2.06c0-1.78-1.27-2.66-3.82-2.66h-.47Z"/>
  </g>
  <g class="cls-1">
    <path class="cls-3" d="M140.13,542.64l3.55,3.55c-1.3,3.12-2.08,4.89-2.32,5.3l.04.04c.11-.08.61-.31,1.48-.68l3.81-1.65,3.55,3.55-10.02,3.46-3.83,10.94-3.55-3.55c1.52-3.79,2.36-5.82,2.52-6.07l-.04-.04c-.57.33-1.18.62-1.82.87l-4.25,1.65-3.5-3.5,10.82-3.86,3.55-10.01Z"/>
    <path class="cls-3" d="M153.03,555.54l4.86,4.86-14.12,14.12-3.06-3.06,11.16-11.16-1.8-1.8,2.96-2.96Z"/>
  </g>
  <g class="cls-1">
    <path class="cls-3" d="M191.68,596.77l3.55,3.55c-1.31,3.12-2.08,4.89-2.32,5.3l.04.04c.11-.08.61-.31,1.48-.68l3.81-1.65,3.55,3.55-10.02,3.46-3.83,10.94-3.55-3.55c1.52-3.79,2.36-5.82,2.52-6.07l-.04-.04c-.57.33-1.18.62-1.82.87l-4.25,1.65-3.5-3.5,10.82-3.86,3.55-10.01Z"/>
    <path class="cls-3" d="M201.48,617.05l-3.1-3.1c1.06-1.06,1.93-1.84,2.62-2.35.69-.51,1.4-.86,2.14-1.04.74-.18,1.54-.13,2.39.17.85.3,1.68.84,2.46,1.63,1.31,1.31,1.96,2.65,1.98,4.03.01,1.38-.62,2.72-1.92,4.01-.66.66-1.51,1.24-2.54,1.74-1.03.5-2.28.94-3.73,1.32l-4.7,1.23,2.84,2.84-2.88,2.88-8.06-8.06,12.49-3.27c1.51-.38,2.65-.96,3.43-1.74.39-.39.62-.79.7-1.21.08-.42-.01-.75-.26-1.01-.4-.4-.82-.5-1.27-.31-.45.2-1.14.77-2.08,1.71l-.52.52Z"/>
  </g>
  <g class="cls-1">
    <path class="cls-3" d="M143.33,645.05l3.55,3.55c-1.31,3.12-2.08,4.89-2.32,5.3l.04.04c.11-.08.61-.31,1.48-.68l3.81-1.65,3.55,3.55-10.02,3.46-3.83,10.94-3.55-3.55c1.52-3.79,2.36-5.82,2.52-6.07l-.04-.04c-.57.33-1.18.62-1.82.87l-4.25,1.65-3.5-3.5,10.82-3.86,3.55-10.01Z"/>
    <path class="cls-3" d="M154.34,664.68l-3.09-3.09c.83-.8,1.53-1.36,2.11-1.68.58-.32,1.25-.54,2-.65.75-.11,1.52-.04,2.31.22.79.26,1.48.69,2.09,1.3,1.09,1.09,1.59,2.37,1.52,3.86s-.71,2.83-1.91,4.02c-1.4,1.4-3.03,1.95-4.91,1.67.61,1.93.08,3.73-1.61,5.42-.67.67-1.5,1.18-2.48,1.53-.98.35-1.92.38-2.82.08-.9-.3-1.75-.85-2.55-1.66-1.21-1.21-1.84-2.55-1.9-4.02-.06-1.48.5-2.87,1.69-4.16l3.04,3.04c-.85.88-.94,1.66-.26,2.34s1.59.4,2.77-.78c.55-.55.83-1.03.86-1.44.02-.41-.21-.86-.71-1.35l-.97-.97,2.93-2.93,1.06,1.06c.45.45.89.66,1.32.61.43-.04.91-.33,1.45-.87,1.16-1.16,1.41-2.06.76-2.71-.3-.3-.63-.39-.97-.25-.34.14-.82.51-1.42,1.12l-.3.3Z"/>
  </g>
  <g class="cls-1">
    <path class="cls-3" d="M88.28,593.39l3.55,3.55c-1.3,3.12-2.08,4.89-2.32,5.3l.04.04c.11-.08.61-.31,1.48-.68l3.81-1.65,3.55,3.55-10.02,3.46-3.83,10.94-3.55-3.55c1.52-3.79,2.36-5.82,2.52-6.07l-.04-.04c-.57.33-1.18.62-1.82.87l-4.25,1.65-3.5-3.5,10.82-3.86,3.55-10.01Z"/>
    <path class="cls-3" d="M104.17,609.28l3.29,3.29-8.75,8.75,1.1,1.1-2.56,2.56-1.1-1.1-2.81,2.81-2.93-2.93,2.81-2.81-4.53-4.53,2.3-2.29,13.18-4.84ZM100.22,613.86l-6.54,2.43,2.09,2.09,4.49-4.49-.04-.04Z"/>
  </g>
  <g class="cls-1">
    <path class="cls-3" d="M145.33,274.29l3.6,3.6c-1.23,2.83-2.22,4.97-2.96,6.43l.04.04c1.49-.77,3.62-1.76,6.41-2.98l3.68,3.68-11.52,3.95-6.39,6.39-3.25-3.25,6.39-6.39,4-11.47Z"/>
    <path class="cls-3" d="M158.51,287.47l4.86,4.86-14.12,14.12-3.06-3.06,11.16-11.16-1.8-1.8,2.96-2.96Z"/>
  </g>
  <g class="cls-1">
    <path class="cls-3" d="M196.87,328.43l3.6,3.6c-1.23,2.83-2.22,4.97-2.96,6.43l.04.04c1.49-.77,3.62-1.76,6.41-2.98l3.68,3.68-11.52,3.95-6.39,6.39-3.25-3.25,6.39-6.39,4-11.47Z"/>
    <path class="cls-3" d="M206.96,348.99l-3.1-3.1c1.06-1.06,1.93-1.84,2.62-2.35.69-.51,1.4-.86,2.14-1.04.74-.18,1.54-.13,2.39.17.85.3,1.68.84,2.46,1.63,1.31,1.3,1.96,2.65,1.98,4.03.01,1.38-.62,2.72-1.91,4.01-.66.66-1.51,1.24-2.54,1.74-1.03.5-2.28.94-3.73,1.32l-4.7,1.23,2.84,2.85-2.88,2.88-8.06-8.06,12.49-3.27c1.51-.38,2.65-.96,3.43-1.73.39-.39.62-.79.7-1.21.08-.42-.01-.75-.26-1-.4-.4-.83-.5-1.27-.31s-1.14.77-2.08,1.71l-.52.52Z"/>
  </g>
  <g class="cls-1">
    <path class="cls-3" d="M148.53,376.71l3.6,3.6c-1.23,2.83-2.22,4.97-2.96,6.43l.04.04c1.49-.77,3.62-1.76,6.41-2.98l3.68,3.68-11.52,3.95-6.39,6.39-3.25-3.25,6.39-6.39,4-11.47Z"/>
    <path class="cls-3" d="M159.83,396.61l-3.09-3.09c.83-.8,1.53-1.36,2.11-1.68.58-.32,1.25-.54,2-.64.75-.11,1.52-.04,2.31.22.79.26,1.48.69,2.09,1.3,1.09,1.09,1.59,2.37,1.52,3.86-.07,1.48-.71,2.83-1.91,4.02-1.4,1.4-3.03,1.95-4.91,1.67.61,1.93.08,3.73-1.61,5.42-.67.67-1.5,1.18-2.48,1.53-.98.35-1.92.38-2.82.08-.9-.3-1.75-.85-2.55-1.65-1.21-1.21-1.84-2.55-1.9-4.02-.06-1.48.5-2.86,1.69-4.16l3.04,3.04c-.85.88-.94,1.66-.26,2.34.66.66,1.59.4,2.77-.78.55-.55.84-1.03.86-1.44.02-.41-.22-.86-.71-1.35l-.97-.97,2.93-2.93,1.06,1.06c.45.45.89.66,1.32.61.43-.04.91-.33,1.45-.87,1.16-1.16,1.41-2.06.76-2.71-.3-.3-.63-.39-.97-.25s-.82.51-1.42,1.12l-.3.3Z"/>
  </g>
  <g class="cls-1">
    <path class="cls-3" d="M93.48,325.05l3.6,3.6c-1.23,2.83-2.22,4.97-2.96,6.43l.04.04c1.49-.77,3.62-1.76,6.41-2.98l3.68,3.68-11.52,3.95-6.39,6.39-3.25-3.25,6.39-6.39,4-11.47Z"/>
    <path class="cls-3" d="M109.65,341.22l3.29,3.29-8.75,8.75,1.1,1.1-2.56,2.56-1.1-1.1-2.81,2.81-2.93-2.93,2.81-2.81-4.53-4.53,2.3-2.3,13.18-4.84ZM105.7,345.8l-6.54,2.43,2.09,2.09,4.48-4.48-.04-.04Z"/>
  </g>
</svg>