<svg xmlns="http://www.w3.org/2000/svg" id="TEXT" viewBox="0 0 1000 1000"><defs><style>.cls-1{fill:#181818}.cls-4{fill:#383a39}.cls-5{fill:#2b2b2b}.cls-9{fill:#121212}.cls-10{fill:#262626}.cls-14{fill:#313332}.cls-16{fill:#343434}.cls-17{fill:#383838}.cls-20{fill:#1b1b1b}.cls-21{fill:#3a3a3a}</style></defs><path d="M714.2 258.23H284.33v-73.15c0-4.59 4.72-7.56 9.05-5.86 132.41 52.23 269.68 52.52 411.61.39 4.44-1.63 9.22 1.11 9.22 5.78v72.83Z" style="fill:#4c4c4d"/><path d="M714.2 258.23H284.33v-73.15c0-4.59 5-8.14 9.05-5.86 136.7 76.93 274.16 77.13 411.61.39 4.13-2.3 9.22 1.11 9.22 5.78v72.83Z" class="cls-20"/><path d="M311.82 183.81v89.04c0 .37-.3.67-.67.67h-5.59a.67.67 0 0 1-.67-.67v-91.44c0-.48.49-.8.93-.61 1.86.81 3.72 1.61 5.58 2.39.25.1.41.35.41.61ZM666 190.52v80.33c0 .37-.3.67-.67.67h-5.58a.67.67 0 0 1-.67-.67v-78.33c0-.28.18-.53.44-.63 1.85-.65 3.71-1.32 5.57-2 .43-.16.9.16.9.62Zm24.72-8.69a3.46 3.46 0 0 0-2.12 3.18v87.04c0 .81.66 1.46 1.46 1.46h3.98c.81 0 1.46-.66 1.46-1.46v-92.01c0-.06-.06-.11-.12-.08l-4.67 1.87Zm-54.24 16.54v70.49c0 .37-.3.67-.67.67h-5.58a.67.67 0 0 1-.67-.67v-68.84c0-.3.19-.56.48-.64 1.86-.54 3.72-1.09 5.57-1.65.43-.13.86.19.86.64Zm-29.51 6.93v62.55c0 .37-.3.67-.67.67h-5.59a.67.67 0 0 1-.67-.67v-61.26c0-.31.22-.58.52-.65q2.79-.63 5.58-1.29c.42-.1.82.22.82.65Zm-29.52 5.04v56.51c0 .37-.3.67-.67.67h-5.58a.67.67 0 0 1-.67-.67v-55.58c0-.33.24-.61.56-.66 1.85-.29 3.71-.6 5.57-.92.41-.07.78.24.78.65Zm-29.51 4.14v52.37c0 .37-.3.67-.67.67h-5.59a.67.67 0 0 1-.67-.67v-51.81c0-.34.26-.63.6-.66 1.86-.18 3.72-.36 5.58-.56.39-.04.74.27.74.66Zm-29.52 2.22v50.16c0 .37-.3.67-.67.67h-5.58a.67.67 0 0 1-.67-.67V216.9c0-.36.29-.65.65-.66 1.86-.05 3.72-.12 5.57-.2.38-.02.69.29.69.66Zm-29.51.29v49.86c0 .37-.3.67-.67.67h-5.59a.67.67 0 0 1-.67-.67v-50.03c0-.38.31-.68.69-.66 1.86.07 3.72.13 5.58.17.36 0 .65.3.65.66Zm-29.52-1.64v51.5c0 .37-.3.67-.67.67h-5.58a.67.67 0 0 1-.67-.67v-52.04c0-.39.34-.7.73-.66 1.86.19 3.72.37 5.57.53.34.03.61.32.61.66Zm-29.51-3.59v55.09c0 .37-.3.67-.67.67h-5.59a.67.67 0 0 1-.67-.67v-55.99c0-.41.37-.72.77-.66 1.86.31 3.72.61 5.58.89.32.05.56.33.56.66Zm-29.52-4.53v60.63c0 .37-.3.67-.67.67h-5.58a.67.67 0 0 1-.67-.67v-61.88c0-.43.4-.74.82-.65 1.85.43 3.71.85 5.57 1.26.31.07.52.34.52.65Zm-29.51-6.49v68.11c0 .37-.3.67-.67.67h-5.59a.67.67 0 0 1-.67-.67v-69.76c0-.45.43-.77.86-.64 1.86.56 3.72 1.11 5.58 1.64.29.08.48.34.48.64Zm-29.52-7.47v77.58c0 .37-.3.67-.67.67h-5.58a.67.67 0 0 1-.67-.67v-79.6c0-.46.46-.78.9-.62 1.86.68 3.72 1.36 5.57 2.01.27.09.44.34.44.63Z" style="fill:#1e1e1e"/><path d="M894.95 473.79c0 27.52-2.81 54.38-8.17 80.31-63.36 150.48-212.2 256.12-385.71 256.12s-328.5-110.05-389.53-265.51c-4.18-23-6.36-46.71-6.36-70.92 0-58.26 12.62-113.57 35.27-163.35 25.98-57.1 65.16-106.93 113.64-145.58 62.59 51.02 149.84 82.68 246.35 82.68S683.85 216 746.41 165.15c48.31 38.61 87.36 88.33 113.27 145.29 22.65 49.78 35.27 105.09 35.27 163.35" style="fill:#252525"/><path d="M969.26 836.84c-9.57 23.69-19.82 75.19-113.47 67.21-19.57-15.08-257.73-315.88-254.81-344.35l-.14-2.31c36.81-29.54 60.37-74.91 60.37-125.78 0-57.65-30.27-108.24-75.78-136.74l-.24-4.03c83.04-25.95 154.31-65.82 201.51-134.11 0 0 99.62 69.93 144.28 190.69s44.66 235.59 45.57 249.26c.91 13.68 2.28 216.46-7.29 240.16M338.81 433.61c0 51.28 23.94 96.96 61.26 126.49l-.09 1.6c2.93 28.47-235.24 329.27-254.81 344.35-93.65 7.98-103.9-43.52-113.47-67.21-9.57-23.7-8.2-226.48-7.29-240.16.91-13.67.91-128.5 45.57-249.26s144.28-190.69 144.28-190.69c47.21 68.29 118.47 108.16 201.52 134.11l-.2 3.42c-46.06 28.38-76.77 79.28-76.77 137.35" style="fill:#303030"/><path d="M394.09 623.67c0 61.53-49.49 111.51-110.84 112.29 43.6-57.14 85.43-114.7 105.08-147.88 3.74 11.18 5.76 23.15 5.76 35.59m307.85 91.49c-44.94-11.58-78.13-52.38-78.13-100.93 0-2.62.1-5.22.3-7.79 18.85 28.93 47.26 68.16 77.83 108.72" class="cls-5"/><circle cx="280.58" cy="617.14" r="108.79" class="cls-5"/><circle cx="212.65" cy="408.13" r="95.72" class="cls-5"/><circle cx="280.58" cy="612.14" r="102.78" class="cls-4"/><circle cx="723.01" cy="615.81" r="90.15" class="cls-5"/><circle cx="722.16" cy="611.03" r="84.26" class="cls-4"/><circle cx="207.15" cy="405.91" r="86.27" class="cls-4"/><circle cx="207.15" cy="405.91" r="65.87" class="cls-1"/><circle cx="280.49" cy="611.55" r="85.07" class="cls-1"/><circle cx="722.16" cy="611.03" r="67.92" class="cls-1"/><circle cx="500.96" cy="433.55" r="132.07" class="cls-5"/><circle cx="500.96" cy="433.55" r="121.58" class="cls-9"/><path d="m585.61 346.21-171.9 171.9c-46.29-47.57-45.88-123.65 1.19-170.72s123.15-47.48 170.72-1.18Z" class="cls-9"/><path d="m442.94 350.1 57.53 30.88 58.68-32.81-42.84 41.35 51.49 65.28-67.8-50.24-68.56 51.95 52.22-65.89z" style="fill:#9ecc3e"/><path d="m585.61 346.21-171.9 171.9c-46.29-47.57-45.88-123.65 1.19-170.72s123.15-47.48 170.72-1.18Z" style="fill:#969696;opacity:.09"/><path d="M818.71 526.97c-10.91 4.51-24.09-.85-33.53-12.35q-1.725-2.1-3.27-4.47a54.6 54.6 0 0 1-4.71-8.95c-8.37-20.25-3.37-41.54 11.17-47.56 12.11-5.01 27.02 2.15 36.51 16.38a54.6 54.6 0 0 1 5 9.39c8.37 20.25 3.37 41.54-11.17 47.56" style="fill:#43a447"/><path d="M741.85 488.71c-10.87 4.5-23.99-.81-33.42-12.22-3.2-3.86-5.97-8.43-8.09-13.55-8.37-20.25-3.37-41.54 11.17-47.56 13.46-5.56 30.37 3.89 39.46 21.37.74 1.42 1.42 2.88 2.05 4.4 8.37 20.25 3.37 41.54-11.17 47.56" style="fill:#4980c2"/><ellipse cx="805.52" cy="403.59" rx="28.5" ry="39.68" style="fill:#d93845" transform="rotate(-22.47 805.67 403.628)"/><path d="M744.28 402c-11.33 4.68-25.11-1.28-34.61-13.72-2.7-3.52-5.05-7.57-6.9-12.05-8.37-20.25-3.37-41.54 11.17-47.56 13.01-5.38 29.25 3.28 38.52 19.65 1.1 1.94 2.1 3.98 2.99 6.12 8.37 20.25 3.37 41.54-11.17 47.56" style="fill:#fcb53c"/><path d="M851.35 351.75c-9.2 3.81-20.56-1.75-27.67-12.69a40 40 0 0 1-3.51-6.67c-6.29-15.21-2.53-31.21 8.39-35.73 9.09-3.76 20.28 1.6 27.39 12.27 1.45 2.15 2.73 4.53 3.79 7.09 6.29 15.21 2.54 31.21-8.39 35.73" class="cls-20"/><path d="M774.23 312.22c-9.59 3.97-21.51-2.22-28.53-14.07-.99-1.65-1.88-3.42-2.65-5.29-6.3-15.21-2.54-31.21 8.39-35.73 8.33-3.45 18.43.78 25.55 9.73 2.21 2.78 4.14 6.02 5.63 9.63 6.29 15.21 2.53 31.21-8.39 35.73" style="fill:#e9e8e8"/><ellipse cx="561.13" cy="690.96" class="cls-14" rx="33.95" ry="24.39"/><ellipse cx="439" cy="690.96" class="cls-14" rx="33.95" ry="24.39"/><circle cx="207.15" cy="405.91" r="55.9" class="cls-5"/><circle cx="280.58" cy="612.14" r="77.53" class="cls-5"/><circle cx="207.15" cy="405.91" r="34.03" class="cls-16"/><circle cx="280.58" cy="612.14" r="68.86" class="cls-16"/><circle cx="722.16" cy="611.03" r="55.9" class="cls-5"/><ellipse cx="207.15" cy="372.07" class="cls-10" rx="3.07" ry="4.99"/><ellipse cx="206.74" cy="439.75" class="cls-10" rx="3.07" ry="4.99"/><ellipse cx="173.31" cy="404.65" class="cls-10" rx="4.99" ry="3.07"/><ellipse cx="241" cy="405.06" class="cls-10" rx="4.99" ry="3.07"/><rect width="1.8" height="73.52" x="721.26" y="574.27" class="cls-21" rx=".9" ry=".9" transform="rotate(-90 722.155 611.025)"/><rect width="1.7" height="77.61" x="721.3" y="572.22" class="cls-21" rx=".85" ry=".85" transform="rotate(-180 722.155 611.025)"/><circle cx="722.16" cy="611.03" r="16.81" class="cls-16"/><path d="m280.48 612.11 66.03-19.52a68.7 68.7 0 0 1 2.82 19.48c0 6.6-.94 13.16-2.8 19.48l-66.05-19.45Z" class="cls-17"/><path d="m280.48 612.11-19.52-66.03c6.32-1.87 12.89-2.82 19.48-2.82s13.16.94 19.48 2.8l-19.45 66.05Z" class="cls-17"/><path d="m280.68 612.17-66.03 19.52a68.7 68.7 0 0 1-2.82-19.48c0-6.6.94-13.16 2.8-19.48l66.05 19.45Z" class="cls-17"/><path d="m280.68 612.17 19.52 66.03a68.7 68.7 0 0 1-19.48 2.82c-6.6 0-13.16-.94-19.48-2.8l19.45-66.05Z" class="cls-17"/><path d="m776.99 266.86-31.29 31.29c-.99-1.65-1.88-3.42-2.65-5.29-6.3-15.21-2.54-31.21 8.39-35.73 8.33-3.45 18.43.78 25.55 9.73" style="fill:#f0efef;opacity:.09"/><path d="m855.95 308.93-32.27 30.13a40 40 0 0 1-3.51-6.67c-6.29-15.21-2.53-31.21 8.39-35.73 9.09-3.76 20.28 1.6 27.39 12.27m-103.49 39.39-42.79 39.96c-2.7-3.52-5.05-7.57-6.9-12.05-8.37-20.25-3.37-41.54 11.17-47.56 13.01-5.38 29.25 3.28 38.52 19.65m76.38 38.26-42.79 39.96c-2.7-3.52-5.05-7.57-6.9-12.05-8.37-20.25-3.37-41.54 11.17-47.56 13.01-5.38 29.25 3.28 38.52 19.65m-77.87 50.17-42.54 39.74c-3.2-3.86-5.97-8.43-8.09-13.55-8.37-20.25-3.37-41.54 11.17-47.56 13.46-5.56 30.37 3.89 39.46 21.37m73.91 33.27-42.97 40.13a54.6 54.6 0 0 1-4.71-8.95c-8.37-20.25-3.37-41.54 11.17-47.56 12.11-5.01 27.02 2.15 36.51 16.38" style="opacity:.07;fill:#f0efef"/><path d="m440.89 467.13-13 14.76 12.54 14.1h-4.6l-10.31-11.5-10.27 11.5h-4.63l12.6-14.1-13.06-14.76h4.63l10.73 12.08 10.73-12.08h4.63Zm36.14 8.21v3.13c0 4.29-2.63 7.79-5.97 8.16l5.05 9.36h-3.74l-5.02-9.32H447.3v9.32h-3.12v-28.86h26.32c3.61.04 6.53 3.71 6.53 8.2Zm-3.09 0c0-2.35-1.54-4.29-3.45-4.29h-23.2v11.71h23.2c1.9 0 3.45-1.98 3.45-4.29zm39.2 0v12.49c0 4.49-2.89 8.16-6.5 8.16h-19.82c-3.58 0-6.5-3.67-6.5-8.16v-12.49c0-4.49 2.92-8.16 6.5-8.2h19.82c3.61.04 6.5 3.71 6.5 8.2m-3.09 0c-.03-2.35-1.54-4.29-3.41-4.29h-19.82c-1.87 0-3.38 1.94-3.41 4.29v12.49c.03 2.35 1.54 4.29 3.41 4.29h19.82c1.87 0 3.38-1.94 3.41-4.29zm41.73-4.21v24.86h-3.12v-24.86s-.03-.08-.07-.08-.03 0-.07.04l-11.36 22.96c-.53 1.2-1.58 1.94-2.69 1.94h-.72c-1.15 0-2.17-.74-2.72-1.94l-11.42-22.96-.03-.04s-.03.04-.03.08v24.86h-3.12v-24.86c0-2.19 1.41-4 3.15-4 1.15 0 2.17.82 2.69 1.98l11.42 22.96s.03.04.07.04h.72l.03-.04 11.39-23.01c.59-1.11 1.51-1.94 2.69-1.94 1.74.04 3.18 1.77 3.18 4Zm38.63 0v24.86h-3.12v-24.86s-.03-.08-.07-.08-.03 0-.07.04l-11.36 22.96c-.53 1.2-1.58 1.94-2.69 1.94h-.72c-1.15 0-2.17-.74-2.72-1.94l-11.42-22.96-.03-.04s-.03.04-.03.08v24.86h-3.12v-24.86c0-2.19 1.41-4 3.15-4 1.15 0 2.17.82 2.69 1.98l11.42 22.96s.03.04.07.04h.72l.03-.04 11.39-23.01c.59-1.11 1.51-1.94 2.69-1.94 1.74.04 3.18 1.77 3.18 4Z" style="fill:#809153"/></svg>