<?xml version="1.0" encoding="UTF-8"?>
<svg id="TEXT" xmlns="http://www.w3.org/2000/svg" viewBox="0 0 1000 1000">
  <defs>
    <style>
      .cls-1 {
        fill: #181818;
      }

      .cls-2 {
        fill: #252525;
      }

      .cls-3 {
        fill: #4980c2;
      }

      .cls-4 {
        fill: #383a39;
      }

      .cls-5 {
        fill: #2b2b2b;
      }

      .cls-6 {
        opacity: .07;
      }

      .cls-6, .cls-7 {
        fill: #f0efef;
      }

      .cls-8 {
        fill: #4c4c4d;
      }

      .cls-9 {
        fill: #121212;
      }

      .cls-10 {
        fill: #262626;
      }

      .cls-11 {
        fill: #303030;
      }

      .cls-12 {
        fill: #809153;
      }

      .cls-13 {
        fill: #43a447;
      }

      .cls-14 {
        fill: #313332;
      }

      .cls-15 {
        fill: #d93845;
      }

      .cls-16 {
        fill: #343434;
      }

      .cls-17 {
        fill: #383838;
      }

      .cls-18 {
        fill: #e9e8e8;
      }

      .cls-19 {
        fill: #9ecc3e;
      }

      .cls-20 {
        fill: #1b1b1b;
      }

      .cls-21 {
        fill: #3a3a3a;
      }

      .cls-22 {
        fill: #1e1e1e;
      }

      .cls-23 {
        fill: #969696;
      }

      .cls-23, .cls-7 {
        opacity: .09;
      }

      .cls-24 {
        fill: #fcb53c;
      }
    </style>
  </defs>
  <g>
    <g>
      <path class="cls-8" d="M714.2,258.23h-429.87v-73.15c0-4.59,4.72-7.56,9.05-5.86,132.41,52.23,269.68,52.52,411.61.39,4.44-1.63,9.22,1.11,9.22,5.78v72.83Z"/>
      <path class="cls-20" d="M714.2,258.23h-429.87v-73.15c0-4.59,5-8.14,9.05-5.86,136.7,76.93,274.16,77.13,411.61.39,4.13-2.3,9.22,1.11,9.22,5.78v72.83Z"/>
      <g>
        <path class="cls-22" d="M311.82,183.81v89.04c0,.37-.3.67-.67.67h-5.59c-.37,0-.67-.3-.67-.67v-91.44c0-.48.49-.8.93-.61,1.86.81,3.72,1.61,5.58,2.39.25.1.41.35.41.61Z"/>
        <path class="cls-22" d="M666,190.52v80.33c0,.37-.3.67-.67.67h-5.58c-.37,0-.67-.3-.67-.67v-78.33c0-.28.18-.53.44-.63,1.85-.65,3.71-1.32,5.57-2,.43-.16.9.16.9.62Z"/>
        <path class="cls-22" d="M690.72,181.83c-1.28.54-2.12,1.79-2.12,3.18v87.04c0,.81.66,1.46,1.46,1.46h3.98c.81,0,1.46-.66,1.46-1.46v-92.01c0-.06-.06-.11-.12-.08l-4.67,1.87Z"/>
        <path class="cls-22" d="M636.48,198.37v70.49c0,.37-.3.67-.67.67h-5.58c-.37,0-.67-.3-.67-.67v-68.84c0-.3.19-.56.48-.64,1.86-.54,3.72-1.09,5.57-1.65.43-.13.86.19.86.64Z"/>
        <path class="cls-22" d="M606.97,205.3v62.55c0,.37-.3.67-.67.67h-5.59c-.37,0-.67-.3-.67-.67v-61.26c0-.31.22-.58.52-.65,1.86-.42,3.72-.85,5.58-1.29.42-.1.82.22.82.65Z"/>
        <path class="cls-22" d="M577.45,210.34v56.51c0,.37-.3.67-.67.67h-5.58c-.37,0-.67-.3-.67-.67v-55.58c0-.33.24-.61.56-.66,1.85-.29,3.71-.6,5.57-.92.41-.07.78.24.78.65Z"/>
        <path class="cls-22" d="M547.94,214.48v52.37c0,.37-.3.67-.67.67h-5.59c-.37,0-.67-.3-.67-.67v-51.81c0-.34.26-.63.6-.66,1.86-.18,3.72-.36,5.58-.56.39-.04.74.27.74.66Z"/>
        <path class="cls-22" d="M518.42,216.7v50.16c0,.37-.3.67-.67.67h-5.58c-.37,0-.67-.3-.67-.67v-49.96c0-.36.29-.65.65-.66,1.86-.05,3.72-.12,5.57-.2.38-.02.69.29.69.66Z"/>
        <path class="cls-22" d="M488.91,216.99v49.86c0,.37-.3.67-.67.67h-5.59c-.37,0-.67-.3-.67-.67v-50.03c0-.38.31-.68.69-.66,1.86.07,3.72.13,5.58.17.36,0,.65.3.65.66Z"/>
        <path class="cls-22" d="M459.39,215.35v51.5c0,.37-.3.67-.67.67h-5.58c-.37,0-.67-.3-.67-.67v-52.04c0-.39.34-.7.73-.66,1.86.19,3.72.37,5.57.53.34.03.61.32.61.66Z"/>
        <path class="cls-22" d="M429.88,211.76v55.09c0,.37-.3.67-.67.67h-5.59c-.37,0-.67-.3-.67-.67v-55.99c0-.41.37-.72.77-.66,1.86.31,3.72.61,5.58.89.32.05.56.33.56.66Z"/>
        <path class="cls-22" d="M400.36,207.23v60.63c0,.37-.3.67-.67.67h-5.58c-.37,0-.67-.3-.67-.67v-61.88c0-.43.4-.74.82-.65,1.85.43,3.71.85,5.57,1.26.31.07.52.34.52.65Z"/>
        <path class="cls-22" d="M370.85,200.74v68.11c0,.37-.3.67-.67.67h-5.59c-.37,0-.67-.3-.67-.67v-69.76c0-.45.43-.77.86-.64,1.86.56,3.72,1.11,5.58,1.64.29.08.48.34.48.64Z"/>
        <path class="cls-22" d="M341.33,193.27v77.58c0,.37-.3.67-.67.67h-5.58c-.37,0-.67-.3-.67-.67v-79.6c0-.46.46-.78.9-.62,1.86.68,3.72,1.36,5.57,2.01.27.09.44.34.44.63Z"/>
      </g>
      <path class="cls-2" d="M894.95,473.79c0,27.52-2.81,54.38-8.17,80.31-63.36,150.48-212.2,256.12-385.71,256.12s-328.5-110.05-389.53-265.51c-4.18-23-6.36-46.71-6.36-70.92,0-58.26,12.62-113.57,35.27-163.35,25.98-57.1,65.16-106.93,113.64-145.58,62.59,51.02,149.84,82.68,246.35,82.68s183.41-31.54,245.97-82.39c48.31,38.61,87.36,88.33,113.27,145.29,22.65,49.78,35.27,105.09,35.27,163.35Z"/>
      <path class="cls-11" d="M969.26,836.84c-9.57,23.69-19.82,75.19-113.47,67.21-19.57-15.08-257.73-315.88-254.81-344.35l-.14-2.31c36.81-29.54,60.37-74.91,60.37-125.78,0-57.65-30.27-108.24-75.78-136.74l-.24-4.03c83.04-25.95,154.31-65.82,201.51-134.11,0,0,99.62,69.93,144.28,190.69,44.66,120.76,44.66,235.59,45.57,249.26.91,13.68,2.28,216.46-7.29,240.16Z"/>
      <path class="cls-11" d="M338.81,433.61c0,51.28,23.94,96.96,61.26,126.49l-.09,1.6c2.93,28.47-235.24,329.27-254.81,344.35-93.65,7.98-103.9-43.52-113.47-67.21-9.57-23.7-8.2-226.48-7.29-240.16.91-13.67.91-128.5,45.57-249.26,44.66-120.76,144.28-190.69,144.28-190.69,47.21,68.29,118.47,108.16,201.52,134.11l-.2,3.42c-46.06,28.38-76.77,79.28-76.77,137.35Z"/>
      <path class="cls-5" d="M394.09,623.67c0,61.53-49.49,111.51-110.84,112.29,43.6-57.14,85.43-114.7,105.08-147.88,3.74,11.18,5.76,23.15,5.76,35.59Z"/>
      <path class="cls-5" d="M701.94,715.16c-44.94-11.58-78.13-52.38-78.13-100.93,0-2.62.1-5.22.3-7.79,18.85,28.93,47.26,68.16,77.83,108.72Z"/>
      <circle class="cls-5" cx="280.58" cy="617.14" r="108.79"/>
      <circle class="cls-5" cx="212.65" cy="408.13" r="95.72"/>
      <circle class="cls-4" cx="280.58" cy="612.14" r="102.78"/>
      <circle class="cls-5" cx="723.01" cy="615.81" r="90.15"/>
      <circle class="cls-4" cx="722.16" cy="611.03" r="84.26"/>
      <circle class="cls-4" cx="207.15" cy="405.91" r="86.27"/>
      <circle class="cls-1" cx="207.15" cy="405.91" r="65.87"/>
      <circle class="cls-1" cx="280.49" cy="611.55" r="85.07"/>
      <circle class="cls-1" cx="722.16" cy="611.03" r="67.92"/>
      <circle class="cls-5" cx="500.96" cy="433.55" r="132.07"/>
      <circle class="cls-9" cx="500.96" cy="433.55" r="121.58"/>
      <path class="cls-9" d="M585.61,346.21l-171.9,171.9c-46.29-47.57-45.88-123.65,1.19-170.72,47.07-47.07,123.15-47.48,170.72-1.18Z"/>
      <polygon class="cls-19" points="442.94 350.1 500.47 380.98 559.15 348.17 516.31 389.52 567.8 454.8 500 404.56 431.44 456.51 483.66 390.62 442.94 350.1"/>
      <path class="cls-23" d="M585.61,346.21l-171.9,171.9c-46.29-47.57-45.88-123.65,1.19-170.72,47.07-47.07,123.15-47.48,170.72-1.18Z"/>
    </g>
    <g>
      <path class="cls-13" d="M818.71,526.97c-10.91,4.51-24.09-.85-33.53-12.35-1.15-1.4-2.24-2.89-3.27-4.47-1.79-2.74-3.38-5.74-4.71-8.95-8.37-20.25-3.37-41.54,11.17-47.56,12.11-5.01,27.02,2.15,36.51,16.38,1.02,1.53,1.98,3.15,2.87,4.84.77,1.46,1.48,2.98,2.13,4.55,8.37,20.25,3.37,41.54-11.17,47.56Z"/>
      <path class="cls-3" d="M741.85,488.71c-10.87,4.5-23.99-.81-33.42-12.22-3.2-3.86-5.97-8.43-8.09-13.55-8.37-20.25-3.37-41.54,11.17-47.56,13.46-5.56,30.37,3.89,39.46,21.37.74,1.42,1.42,2.88,2.05,4.4,8.37,20.25,3.37,41.54-11.17,47.56Z"/>
      <ellipse class="cls-15" cx="805.52" cy="403.59" rx="28.5" ry="39.68" transform="translate(-93.1 338.57) rotate(-22.47)"/>
      <path class="cls-24" d="M744.28,402c-11.33,4.68-25.11-1.28-34.61-13.72-2.7-3.52-5.05-7.57-6.9-12.05-8.37-20.25-3.37-41.54,11.17-47.56,13.01-5.38,29.25,3.28,38.52,19.65,1.1,1.94,2.1,3.98,2.99,6.12,8.37,20.25,3.37,41.54-11.17,47.56Z"/>
      <path class="cls-20" d="M851.35,351.75c-9.2,3.81-20.56-1.75-27.67-12.69-1.34-2.04-2.52-4.27-3.51-6.67-6.29-15.21-2.53-31.21,8.39-35.73,9.09-3.76,20.28,1.6,27.39,12.27,1.45,2.15,2.73,4.53,3.79,7.09,6.29,15.21,2.54,31.21-8.39,35.73Z"/>
      <path class="cls-18" d="M774.23,312.22c-9.59,3.97-21.51-2.22-28.53-14.07-.99-1.65-1.88-3.42-2.65-5.29-6.3-15.21-2.54-31.21,8.39-35.73,8.33-3.45,18.43.78,25.55,9.73,2.21,2.78,4.14,6.02,5.63,9.63,6.29,15.21,2.53,31.21-8.39,35.73Z"/>
      <g>
        <ellipse class="cls-14" cx="561.13" cy="690.96" rx="33.95" ry="24.39"/>
        <ellipse class="cls-14" cx="439" cy="690.96" rx="33.95" ry="24.39"/>
      </g>
      <circle class="cls-5" cx="207.15" cy="405.91" r="55.9"/>
      <circle class="cls-5" cx="280.58" cy="612.14" r="77.53"/>
      <circle class="cls-16" cx="207.15" cy="405.91" r="34.03"/>
      <circle class="cls-16" cx="280.58" cy="612.14" r="68.86"/>
      <circle class="cls-5" cx="722.16" cy="611.03" r="55.9"/>
      <g>
        <ellipse class="cls-10" cx="207.15" cy="372.07" rx="3.07" ry="4.99"/>
        <ellipse class="cls-10" cx="206.74" cy="439.75" rx="3.07" ry="4.99"/>
        <ellipse class="cls-10" cx="173.31" cy="404.65" rx="4.99" ry="3.07"/>
        <ellipse class="cls-10" cx="241" cy="405.06" rx="4.99" ry="3.07"/>
      </g>
      <rect class="cls-21" x="721.26" y="574.27" width="1.8" height="73.52" rx=".9" ry=".9" transform="translate(111.13 1333.18) rotate(-90)"/>
      <rect class="cls-21" x="721.3" y="572.22" width="1.7" height="77.61" rx=".85" ry=".85" transform="translate(1444.31 1222.05) rotate(-180)"/>
      <circle class="cls-16" cx="722.16" cy="611.03" r="16.81"/>
      <g>
        <path class="cls-17" d="M280.48,612.11l66.03-19.52c1.87,6.32,2.82,12.89,2.82,19.48,0,6.6-.94,13.16-2.8,19.48l-66.05-19.45Z"/>
        <path class="cls-17" d="M280.48,612.11l-19.52-66.03c6.32-1.87,12.89-2.82,19.48-2.82s13.16.94,19.48,2.8l-19.45,66.05Z"/>
        <path class="cls-17" d="M280.68,612.17l-66.03,19.52c-1.87-6.32-2.82-12.89-2.82-19.48,0-6.6.94-13.16,2.8-19.48l66.05,19.45Z"/>
        <path class="cls-17" d="M280.68,612.17l19.52,66.03c-6.32,1.87-12.89,2.82-19.48,2.82-6.6,0-13.16-.94-19.48-2.8l19.45-66.05Z"/>
      </g>
      <path class="cls-7" d="M776.99,266.86l-31.29,31.29c-.99-1.65-1.88-3.42-2.65-5.29-6.3-15.21-2.54-31.21,8.39-35.73,8.33-3.45,18.43.78,25.55,9.73Z"/>
      <path class="cls-6" d="M855.95,308.93l-32.27,30.13c-1.34-2.04-2.52-4.27-3.51-6.67-6.29-15.21-2.53-31.21,8.39-35.73,9.09-3.76,20.28,1.6,27.39,12.27Z"/>
      <path class="cls-6" d="M752.46,348.32l-42.79,39.96c-2.7-3.52-5.05-7.57-6.9-12.05-8.37-20.25-3.37-41.54,11.17-47.56,13.01-5.38,29.25,3.28,38.52,19.65Z"/>
      <path class="cls-6" d="M828.84,386.58l-42.79,39.96c-2.7-3.52-5.05-7.57-6.9-12.05-8.37-20.25-3.37-41.54,11.17-47.56,13.01-5.38,29.25,3.28,38.52,19.65Z"/>
      <path class="cls-6" d="M750.97,436.75l-42.54,39.74c-3.2-3.86-5.97-8.43-8.09-13.55-8.37-20.25-3.37-41.54,11.17-47.56,13.46-5.56,30.37,3.89,39.46,21.37Z"/>
      <path class="cls-6" d="M824.88,470.02l-42.97,40.13c-1.79-2.74-3.38-5.74-4.71-8.95-8.37-20.25-3.37-41.54,11.17-47.56,12.11-5.01,27.02,2.15,36.51,16.38Z"/>
    </g>
  </g>
  <g>
    <path class="cls-12" d="M440.89,467.13l-13,14.76,12.54,14.1h-4.6l-10.31-11.5-10.27,11.5h-4.63l12.6-14.1-13.06-14.76h4.63l10.73,12.08,10.73-12.08h4.63Z"/>
    <path class="cls-12" d="M477.03,475.34v3.13c0,4.29-2.63,7.79-5.97,8.16l5.05,9.36h-3.74l-5.02-9.32h-20.05v9.32h-3.12v-28.86h26.32c3.61.04,6.53,3.71,6.53,8.2ZM473.94,475.34c0-2.35-1.54-4.29-3.45-4.29h-23.2v11.71h23.2c1.9,0,3.45-1.98,3.45-4.29v-3.13Z"/>
    <path class="cls-12" d="M513.14,475.34v12.49c0,4.49-2.89,8.16-6.5,8.16h-19.82c-3.58,0-6.5-3.67-6.5-8.16v-12.49c0-4.49,2.92-8.16,6.5-8.2h19.82c3.61.04,6.5,3.71,6.5,8.2ZM510.05,475.34c-.03-2.35-1.54-4.29-3.41-4.29h-19.82c-1.87,0-3.38,1.94-3.41,4.29v12.49c.03,2.35,1.54,4.29,3.41,4.29h19.82c1.87,0,3.38-1.94,3.41-4.29v-12.49Z"/>
    <path class="cls-12" d="M551.78,471.13v24.86h-3.12v-24.86s-.03-.08-.07-.08-.03,0-.07.04l-11.36,22.96c-.53,1.2-1.58,1.94-2.69,1.94h-.72c-1.15,0-2.17-.74-2.72-1.94l-11.42-22.96s-.03-.04-.03-.04c0,0-.03.04-.03.08v24.86h-3.12v-24.86c0-2.19,1.41-4,3.15-4,1.15,0,2.17.82,2.69,1.98l11.42,22.96s.03.04.07.04h.72l.03-.04,11.39-23.01c.59-1.11,1.51-1.94,2.69-1.94,1.74.04,3.18,1.77,3.18,4Z"/>
    <path class="cls-12" d="M590.41,471.13v24.86h-3.12v-24.86s-.03-.08-.07-.08-.03,0-.07.04l-11.36,22.96c-.53,1.2-1.58,1.94-2.69,1.94h-.72c-1.15,0-2.17-.74-2.72-1.94l-11.42-22.96s-.03-.04-.03-.04c0,0-.03.04-.03.08v24.86h-3.12v-24.86c0-2.19,1.41-4,3.15-4,1.15,0,2.17.82,2.69,1.98l11.42,22.96s.03.04.07.04h.72l.03-.04,11.39-23.01c.59-1.11,1.51-1.94,2.69-1.94,1.74.04,3.18,1.77,3.18,4Z"/>
  </g>
</svg>