<svg xmlns="http://www.w3.org/2000/svg" id="Layer_1" data-name="Layer 1" viewBox="0 0 1000 1000"><defs><style>.cls-3{fill:#eaeae5}.cls-4{fill:#3f484d}.cls-5{fill:#232323}.cls-17{fill:#ededed}.cls-19{fill:#4a8a3f;opacity:.38}.cls-20{fill:#4d585f}</style></defs><path d="M285.24 167.01c-53.34-6.51-101.61 7.43-145.93 37.31a8.23 8.23 0 0 0-3.44 5.17l-6.54 31.93 185.39-35.22-23.55-35.56c-1.34-2.03-3.52-3.35-5.94-3.65Zm432.13 0c53.34-6.51 101.61 7.43 145.93 37.31a8.23 8.23 0 0 1 3.44 5.17l6.54 31.93-185.39-35.22 23.55-35.56c1.34-2.03 3.52-3.35 5.94-3.65Z" style="fill:#ddd"/><path d="M707.1 624.14c-1.21-5.45-2.98-9.12-2.98-9.12l-25.49-.41-16.46-5.51-161.53 2.62-161.53-2.62-16.46 5.51-25.49.41s-1.77 3.67-2.98 9.12L90.07 692.49l8.47 134.64s50.81.3 108.87-42.81c57.13-42.42 101.6-103.73 170.98-114.55 3.68-.35 7.51-.77 11.5-1.29 40.9-5.26 78.53-7.12 110.74-7.22 32.21.11 69.85 1.96 110.74 7.22 3.99.51 7.82.94 11.5 1.29 69.38 10.81 113.85 72.13 170.98 114.55 58.07 43.11 108.87 42.81 108.87 42.81l8.47-134.64-204.11-68.35Z" style="fill:#656868"/><path d="M979.7 700.2c-6.08 96.61-56.38 171.07-142.66 96.64 0 0-31.12-23.43-55.42-46.51-24.3-23.09-86.58-85.98-150.08-97.83-32.78-6.12-85.24-8.75-131.54-9.29-46.3.54-98.76 3.17-131.55 9.29-63.49 11.85-125.77 74.74-150.07 97.83-24.31 23.08-55.42 46.51-55.42 46.51-86.28 74.43-136.58-.03-142.66-96.64s17.92-213.87 38.28-291.95c16.33-62.66 45.19-134.91 60.66-166.34 3.8-7.73 6.8-12.99 8.6-15.03 9.12-10.33 38.28-25.82 75.04-39.8 36.76-13.97 73.22-8.2 94.48-7.29 21.27.91 52.26 22.18 78.38 34.33 15.11 7.03 62.49 8.98 99.75 9.37l24.2.07c.21 0 .41-.01.62 0l24.19-.07c37.26-.39 84.64-2.34 99.75-9.37 26.13-12.15 57.12-33.42 78.38-34.33 21.27-.91 57.72-6.68 94.48 7.29 36.76 13.98 65.93 29.47 75.04 39.8 1.62 1.83 4.21 6.28 7.49 12.78 15.15 30.11 45.04 104.38 61.78 168.59 20.35 78.08 44.35 195.34 38.28 291.95" style="fill:#d8d8d8"/><path d="M879.64 239.66c-30.89-22.61-111.59-40.93-111.59-40.93-63.57-18-98.2 23.06-136.94 48.58-27.75 18.29-94.57 19.26-130.22 18.34-35.66.92-102.48-.05-130.23-18.34-38.73-25.52-73.37-66.58-136.94-48.58 0 0-86.1 19.55-114.48 43.18 3.8-7.73 6.8-12.99 8.6-15.03 9.12-10.33 38.28-25.82 75.04-39.8 36.76-13.97 73.22-8.2 94.48-7.29 21.27.91 52.26 22.18 78.38 34.33 15.11 7.03 62.49 8.98 99.75 9.37l24.2.07c.21 0 .41-.01.62 0l24.19-.07c37.26-.39 84.64-2.34 99.75-9.37 26.13-12.15 57.12-33.42 78.38-34.33 21.27-.91 57.72-6.68 94.48 7.29 36.76 13.98 65.93 29.47 75.04 39.8 1.62 1.83 4.21 6.28 7.49 12.78" style="fill:#e5e5e5"/><circle cx="638.95" cy="521.35" r="108.68" class="cls-17"/><circle cx="353.28" cy="512.35" r="108.68" class="cls-17"/><circle cx="209.74" cy="345.03" r="103.6" class="cls-17"/><circle cx="214.47" cy="339.28" r="69.07" class="cls-5"/><circle cx="640.27" cy="512.82" r="69.07" class="cls-5"/><circle cx="353.23" cy="511.13" r="86.55" class="cls-5"/><circle cx="214.47" cy="339.28" r="64.39" class="cls-20"/><circle cx="214.43" cy="339.28" r="50.81" class="cls-4"/><circle cx="259.65" cy="339.28" r="3.53" class="cls-20"/><circle cx="169.2" cy="339.28" r="3.53" class="cls-20"/><circle cx="214.43" cy="294.05" r="3.53" class="cls-20"/><circle cx="214.43" cy="384.51" r="3.53" class="cls-20"/><circle cx="640.32" cy="512.35" r="64.39" class="cls-20"/><circle cx="640.27" cy="512.35" r="50.81" class="cls-4"/><circle cx="685.5" cy="512.35" r="3.53" class="cls-20"/><circle cx="595.05" cy="512.35" r="3.53" class="cls-20"/><circle cx="640.27" cy="467.13" r="3.53" class="cls-20"/><circle cx="640.27" cy="557.58" r="3.53" class="cls-20"/><path d="M432.31 510.64c0 7.29-.99 14.36-2.84 21.06-7.37 26.74-28.43 47.81-55.17 55.18-6.71 1.85-13.78 2.84-21.07 2.84s-14.36-.99-21.07-2.84c-26.75-7.37-47.81-28.44-55.18-55.18-1.85-6.7-2.84-13.77-2.84-21.06s.99-14.36 2.84-21.07c7.37-26.74 28.44-47.81 55.18-55.18 6.71-1.85 13.77-2.84 21.07-2.84s14.36.99 21.07 2.84c26.74 7.37 47.8 28.44 55.17 55.18a79 79 0 0 1 2.84 21.07" style="fill:#606d76"/><path d="M432.31 510.64c0 7.29-.99 14.36-2.84 21.06a443 443 0 0 1-39.11 5.16c-5.82.5-10.41 5.09-10.91 10.91a447 447 0 0 1-5.15 39.11c-6.71 1.85-13.78 2.84-21.07 2.84s-14.36-.99-21.07-2.84a439 439 0 0 1-5.15-39.11c-.51-5.82-5.1-10.41-10.92-10.91a444 444 0 0 1-39.11-5.16c-1.85-6.7-2.84-13.77-2.84-21.06s.99-14.36 2.84-21.07c13.04-2.31 26.07-4.03 39.11-5.15 5.82-.51 10.41-5.1 10.92-10.92 1.12-13.04 2.84-26.07 5.15-39.11 6.71-1.85 13.77-2.84 21.07-2.84s14.36.99 21.07 2.84c2.3 13.04 4.02 26.07 5.15 39.11.5 5.82 5.09 10.41 10.91 10.92 13.04 1.12 26.08 2.84 39.11 5.15a79 79 0 0 1 2.84 21.07" style="fill:#6c787f"/><circle cx="786.1" cy="418.29" r="33.72" style="opacity:.94;fill:#7f9b50"/><circle cx="786.1" cy="266.89" r="33.72" style="opacity:.94;fill:#fbcb0b"/><circle cx="861.81" cy="342.59" r="33.72" style="opacity:.94;fill:#c12627"/><circle cx="710.4" cy="342.59" r="33.72" style="fill:#196db2;opacity:.94"/><path d="M608.66 321.63h-39.09c-4.8 0-9.26-2.47-11.81-6.54-10.82-17.25-29.61-28.98-51.22-29.99-.88-.04-1.77-.06-2.67-.07h-.4c-22.85 0-42.9 11.97-54.23 29.97-2.58 4.1-7.04 6.64-11.88 6.64h-39.09c-15.17 0-27.46 12.3-27.46 27.46 0 15.17 12.3 27.46 27.46 27.46h39.08c4.84 0 9.3 2.54 11.88 6.64 11.34 18 31.38 29.97 54.24 29.97h.4c.89-.01 1.78-.03 2.67-.07 21.61-1.02 40.41-12.75 51.23-29.99 2.55-4.07 7.01-6.54 11.81-6.54h39.08c15.17 0 27.46-12.3 27.46-27.46 0-15.17-12.3-27.46-27.46-27.46Z" style="fill:#d3d3d3"/><rect width="48.99" height="41.92" x="374.19" y="328.15" class="cls-3" rx="20.96" ry="20.96"/><rect width="48.99" height="41.92" x="581.76" y="328.15" class="cls-3" rx="20.96" ry="20.96"/><path d="M563.18 349.34c0 .31 0 .62-.01.93-.48 31.92-25.76 57.84-57.43 59.33-.83.04-1.67.06-2.51.07h-.38c-33.02 0-59.84-26.51-60.33-59.4-.01-.31-.01-.62-.01-.93 0-.52.01-1.05.02-1.57.83-32.6 27.51-58.77 60.32-58.77h.38c.84.01 1.68.03 2.51.07 31.46 1.48 56.61 27.06 57.42 58.7.01.52.02 1.05.02 1.57" style="fill:#c7d832"/><path d="M505.74 289.07V409.6c-.83.04-1.67.06-2.51.07V289c.84.01 1.68.03 2.51.07" class="cls-19"/><path d="M563.18 349.34c0 .31 0 .62-.01.93H442.52c-.01-.31-.01-.62-.01-.93 0-.52.01-1.05.02-1.57h120.63c.01.52.02 1.05.02 1.57" class="cls-19"/><path d="M549.97 349.12c0 .24 0 .48-.01.72a46.9 46.9 0 0 1-8.41 26.16 48 48 0 0 1-5.65 6.67c-7.99 7.86-18.78 12.88-30.73 13.44-.64.03-1.3.05-1.95.06h-.3c-12.86 0-24.5-5.15-32.99-13.5a47 47 0 0 1-5.64-6.68 46.7 46.7 0 0 1-8.42-26.15c-.01-.24-.01-.48-.01-.72 0-.41.01-.82.02-1.23.35-13.92 6.75-26.35 16.68-34.73 1.58-1.34 3.25-2.58 5.01-3.7 7.31-4.69 16.01-7.4 25.35-7.4h.3c.65.01 1.31.02 1.95.05 8.48.4 16.37 3.05 23.09 7.35 1.87 1.2 3.66 2.53 5.33 3.97 9.74 8.38 16.01 20.69 16.37 34.46 0 .41.01.82.01 1.23" style="fill:#fafbec"/><path d="M541.55 376a48 48 0 0 1-5.65 6.67c-12.19-24.18-24.88-41.48-32.98-47.04-8.1 5.56-20.8 22.86-32.99 47.04a47 47 0 0 1-5.64-6.68c9.04-24.85 20.5-40.63 29.09-49.13-4.46-3.95-11.89-8.64-20.82-13.7 1.58-1.34 3.25-2.58 5.01-3.7 11.33 3.79 20.55 6.98 25.35 10.26 4.8-3.28 14.01-6.47 25.34-10.26 1.87 1.2 3.66 2.53 5.33 3.97-9.06 5.16-16.66 9.83-21.14 13.43 8.6 8.5 20.07 24.29 29.1 49.14" style="fill:#a3cf61"/></svg>