<svg xmlns="http://www.w3.org/2000/svg" xml:space="preserve" width="1024" height="1024" viewBox="0 0 270.933 270.933"><path d="M250.857 250.876h522.13v522.215h-522.13z" class="background-light" style="fill:#ede5f8;fill-opacity:1;stroke-width:0;stroke-linejoin:bevel;stroke-dasharray:none" transform="translate(-130.058 -130.093)scale(.51871)"/><path d="m772.988 302.397-522.13 418.762v51.934h522.13z" class="background-dark" style="fill:#bea4e1;fill-opacity:1;stroke-width:0;stroke-linejoin:bevel;stroke-dasharray:none" transform="translate(-130.058 -130.093)scale(.51871)"/><path d="M272.491 676.872s-2.115-.002 4.585-.002c157.422 0 132.045-.964 145.066 8.047 27.763 19.214 55.323 29.911 88.688 34.423 11.025 1.49 37.291 1.734 46.972.435 56.029-7.52 102.142-34.316 135.175-78.55 22.553-30.201 35.59-66.05 37.99-104.47.728-11.659.149-28.413-1.342-38.824-6.04-42.184-24.29-79.402-53.797-109.703-13.101-13.454-27.146-24.417-44.138-34.452-3.37-1.99-3.584-2.41-4.387-8.603l-.442-3.403-7.617-3.812c-12.234-6.12-25.671-10.872-39.699-14.038-16.254-3.669-16.983-3.706-78.698-4.022-31.914-.164-58.797-.104-59.741.133-1.163.292-2.15 1.442-3.06 3.566-.74 1.725-1.986 3.48-2.77 3.899-1.084.58-162.764.9-162.777.9-.008 0-.002 348.476-.002 348.476zm395.41-150.069q-625.582-413.89 0 0" class="logo-primary" style="fill:#553e98;fill-opacity:1;stroke-width:.51" transform="translate(-141.283 -136.938)scale(.51871)"/><path d="M687.6 401.41 344.145 676.841c73.36.061 67.776.935 78.065 8.056 27.763 19.214 55.323 29.911 88.689 34.423 11.024 1.49 37.29 1.734 46.971.435 56.03-7.52 102.143-34.316 135.176-78.551 22.553-30.2 35.588-66.05 37.989-104.47.728-11.658.15-28.412-1.341-38.824-5.192-36.26-19.465-68.818-42.096-96.502z" class="logo-secondary" style="fill:#371f69;fill-opacity:1;stroke-width:.51" transform="translate(-141.283 -136.938)scale(.51871)"/><g transform="translate(-130.058 -130.093)scale(.51871)"><rect width="81.956" height="199.373" x="624.479" y="-171.248" class="stripe-primary" ry="40.978" style="fill:#371f69;fill-opacity:1;stroke-width:0;stroke-linejoin:bevel" transform="rotate(51.642)"/><rect width="81.956" height="199.373" x="731.539" y="-197.079" class="stripe-secondary" ry="40.978" style="fill:#221342;fill-opacity:1;stroke-width:0;stroke-linejoin:bevel" transform="rotate(51.642)"/><circle cx="513.278" cy="442.374" r="35.595" class="dot-light" style="fill:#e6c7a7;fill-opacity:1;stroke-width:0;stroke-linejoin:bevel;stroke-dasharray:none"/><circle cx="424.748" cy="511.845" r="35.595" class="dot-light" style="fill:#e6c7a7;fill-opacity:1;stroke-width:0;stroke-linejoin:bevel;stroke-dasharray:none"/><circle cx="511.714" cy="581.19" r="35.595" class="dot-dark" style="fill:#e1a38d;fill-opacity:1;stroke-width:0;stroke-linejoin:bevel;stroke-dasharray:none"/><circle cx="600.951" cy="509.861" r="35.595" class="dot-dark" style="fill:#e1a38d;fill-opacity:1;stroke-width:0;stroke-linejoin:bevel;stroke-dasharray:none"/></g></svg>