<svg xmlns="http://www.w3.org/2000/svg" id="Layer_1" data-name="Layer 1" viewBox="0 0 1000 1000">
  <defs>
    <style>
      .cls-1{fill:#f1f0f0}
      .cls-2{fill:#333}
      .cls-3{fill:#232323,opacity:.54}
      .cls-4{fill:#989898}
      .cls-5{fill:#676767}
      .cls-6 {fill:#232323}
      .cls-7{fill:none}
      .cls-8{opacity: .18}
      .cls-9{fill:#e8e8e8}
    </style>
    <clipPath id="logo-circle-clip">
      <circle cx="500" cy="414.09" r="382.47"/>
    </clipPath>
    <clipPath id="loading-text-clip">
      <rect x="100" y="850" width="800" height="150"/>
    </clipPath>
  </defs>
  <g class="cls-8">
    <path d="M615.42 778.72c-36.57 11.63-75.53 17.9-115.95 17.9-125.81 0-237.43-60.75-307.13-154.52l104.7-.1c93.26-.08 131.13.52 143.83 2.37 7.78 1.13 21.29 4.94 28.05 7.91 6.39 2.81 8.19 3.68 9.96 4.71 1.04.6 11.35 6.6 17.16 11.15 2.9 2.27 8.68 6.79 12.84 10.04 41.53 32.46 83.26 76.33 106.54 100.54m266.52-364.63c0 61.07-14.31 118.8-39.75 170.01-.2.4-.41.81-.61 1.21-.2.41-.4.81-.61 1.22-1.2-7.47-2.64-16.23-3.23-19.52-4.96-27.92-13.21-54.95-21.26-82.02-5.35-20.57-10.86-39.9-15.32-54.74-7.15-23.89-14.35-47.71-22.72-71.19-.65-1.26-11.49-31.66-16.51-46.28-5.89-17-12.4-33.67-18.34-50.72-12.52-33.36-24.75-66.79-38.46-99.68-.74-2.55-6.26-13.27-11.36-22.52L192.09 641.73l-.37.37h-.19l.47-.47c-47.13-63.6-75-142.31-75-227.54s27.87-163.97 75.02-227.56c.01-.04.04-.07.08-.11C261.77 92.46 373.51 31.56 499.47 31.56c85.23 0 163.95 27.89 227.54 75.04 94 69.68 154.93 181.47 154.93 307.49" class="cls-1"/>
    <path d="M881.94 414.09c0 61.07-14.31 118.8-39.75 170.01-.2.4-.41.81-.61 1.21-.2.41-.4.81-.61 1.22-.29.57-.58 1.13-.87 1.7-46.11 90.05-126.86 159.41-224.68 190.49-36.57 11.63-75.53 17.9-115.95 17.9-125.81 0-237.43-60.75-307.13-154.52-.06-.07-.12-.15-.17-.22-.04-.05-.07-.09-.1-.14-.03-.04-.06-.07-.08-.11-47.13-63.6-75-142.31-75-227.54s27.87-163.97 75.02-227.56c.01-.04.04-.07.08-.11C261.77 92.46 373.51 31.56 499.47 31.56c85.23 0 163.95 27.89 227.54 75.04 94 69.68 154.93 181.47 154.93 307.49" class="cls-7"/>
    <path d="M615.42 778.72c-36.57 11.63-75.53 17.9-115.95 17.9-125.81 0-237.43-60.75-307.13-154.52l104.7-.1c93.26-.08 131.13.52 143.83 2.37 7.78 1.13 21.29 4.94 28.05 7.91 6.39 2.81 8.19 3.68 9.96 4.71 1.04.6 11.35 6.6 17.16 11.15 2.9 2.27 8.68 6.79 12.84 10.04 41.53 32.46 83.26 76.33 106.54 100.54m-423.43-137.1 501.77-501.76-501.68 501.87-.37.37h-.19l.47-.47z" class="cls-4"/>
    <path d="M881.94 414.09c0 61.07-14.31 118.8-39.75 170.01-.2.4-.41.81-.61 1.21-.2.41-.4.81-.61 1.22-1.2-7.47-2.64-16.23-3.23-19.52-4.96-27.92-13.21-54.95-21.26-82.02-5.35-20.57-10.86-39.9-15.32-54.74-7.15-23.89-14.35-47.71-22.72-71.19-.65-1.26-11.49-31.66-16.51-46.28-5.89-17-12.4-33.67-18.34-50.72-12.52-33.36-24.75-66.79-38.46-99.68-.74-2.55-6.26-13.27-11.36-22.52s.01-.01.01-.01l33.24-33.25c94 69.68 154.93 181.47 154.93 307.49Z" class="cls-4"/>
    <path d="M881.94 414.09c0 61.07-14.31 118.8-39.75 170.01-.2.4-.41.81-.61 1.21-.2.41-.4.81-.61 1.22-.29.57-.58 1.13-.87 1.7-46.11 90.05-126.86 159.41-224.68 190.49-36.57 11.63-75.53 17.9-115.95 17.9-125.81 0-237.43-60.75-307.13-154.52-.06-.07-.12-.15-.17-.22-.04-.05-.07-.09-.1-.14-.03-.04-.06-.07-.08-.11-47.13-63.6-75-142.31-75-227.54s27.87-163.97 75.02-227.56c.01-.04.04-.07.08-.11C261.77 92.46 373.51 31.56 499.47 31.56c85.23 0 163.95 27.89 227.54 75.04 94 69.68 154.93 181.47 154.93 307.49" class="cls-7"/>
    <path d="M840.97 586.53c-.29.57-.58 1.13-.87 1.7-46.11 90.05-126.86 159.41-224.68 190.49-23.28-24.21-65.01-68.08-106.54-100.54-4.16-3.25-9.94-7.77-12.84-10.04-5.81-4.55-16.12-10.55-17.16-11.15-1.77-1.03-3.57-1.9-9.96-4.71-6.76-2.97-20.27-6.78-28.05-7.91-12.7-1.85-50.57-2.45-143.83-2.37l-104.7.1h-.82l.47-.47c-47.13-63.6-75-142.31-75-227.54s27.87-163.97 75.02-227.56c.01-.04.04-.07.08-.11l57.63.15c58.32.15 61.04-.28 70.45-4.49.94-.42 2.02-1.06 3.22-1.88.07-.05.15-.1.23-.16 24.73-17.21 100.58-112.8 120.75-121.95 8.06-3.66 17.85-5.76 26.83-5.68.1.01.2.01.3.01 2.04.04 4.02.17 5.93.46.21.03.41.06.6.08.49.07.91.14 1.24.19.09.02.17.03.24.04.02 0 .04 0 .06.01.18.03.36.06.54.1 2.36.49 9.9 1.73 16.75 2.77.18.03.36.05.53.08.01 0 .03 0 .05.01.17.03.36.06.56.09.1.02.2.03.3.05 14.92 2.25 25.7 3.96 48.69 10.04.89.23 1.79.47 2.69.71.05.02.11.03.16.05 6.97 1.87 13.9 3.89 20.65 5.98 30.96 9.6 57.91 20.51 65.21 23.59.11.04.22.09.33.14 0 .01.02.01.04.02.08.04.17.08.25.11.13.06.25.12.38.17.35.15.61.25.77.33 17.84 8.15 37.98 18.64 43.98 24.32 2.38 2.25 4.91 5.29 6.1 7.25 1.35 2.21 3.09 5.23 4.94 8.56.15.26.3.52.44.77.27.5.55 1 .83 1.51 5.1 9.26 10.62 19.98 11.36 22.53 13.71 32.89 25.94 66.32 38.46 99.68 5.94 17.05 12.45 33.72 18.34 50.72 5.02 14.62 15.86 45.02 16.51 46.28 8.37 23.48 15.57 47.3 22.72 71.19 4.46 14.84 9.97 34.17 15.32 54.74 8.05 27.07 16.3 54.1 21.26 82.02.59 3.29 2.03 12.05 3.23 19.51Z" class="cls-2"/>
    <path d="m693.77 139.84-.01.02-501.68 501.87-.37.37h-.19l.47-.47c-47.13-63.6-75-142.31-75-227.54s27.87-163.97 75.02-227.56l57.53.23c58.32.15 61.04-.28 70.45-4.5.96-.43 2.1-1.12 3.4-2.06.07-.05.15-.1.23-.16 24.14-17.54 101.91-113.91 120.6-122.38 10.2-4.63 20.15-5.42 26.98-5.25.1.01.2.01.3.01 2.78.09 5.02.34 6.53.54.49.07.91.14 1.24.19.09.02.17.03.24.04.02 0 .04 0 .06.01.17.02.31.05.4.06 2.54.4 9.94 1.52 16.75 2.77.19.03.41.07.67.12.01 0 .03 0 .05.01.17.03.36.06.56.09.1.02.2.03.3.05 6.54 1.1 26.34 4.21 48.69 10.04.89.23 1.79.47 2.69.71.05.02.11.03.16.05 6.99 1.97 13.86 3.95 20.65 5.98 22.32 6.67 43.7 13.89 65.21 23.59.11.04.22.09.33.14 0 .01.02.01.04.02.08.04.17.08.25.11.13.06.25.12.38.17.21.11.43.21.64.3 17.84 8.14 37.97 18.63 43.98 24.31 2.37 2.25 4.51 4.9 5.7 6.86 1.26 2.05 3.53 5.62 5.47 8.99a128 128 0 0 1 1.28 2.27" class="cls-5"/>
    <path d="M693.76 139.85 192.08 641.73l-.37.37h-.19l.47-.47c-47.13-63.6-75-142.31-75-227.54s27.87-163.97 75.02-227.56c.01-.04.04-.07.08-.11l57.63.15c58.32.15 61.04-.28 70.45-4.49.94-.42 2.02-1.06 3.22-1.88.07-.05.15-.1.23-.16 24.73-17.21 100.58-112.8 120.75-121.95 8.06-3.66 17.85-5.76 26.83-5.68.1.01.2.01.3.01 2.04.04 4.02.17 5.93.46.21.03.41.06.6.08.49.07.91.14 1.24.19.09.02.17.03.24.04.02 0 .04 0 .06.01.18.03.36.06.54.1 2.36.49 9.9 1.73 16.75 2.77.18.03.36.05.53.08.01 0 .03 0 .05.01.17.03.36.06.56.09.1.02.2.03.3.05 14.92 2.25 25.7 3.96 48.69 10.04.89.23 1.79.47 2.69.71.05.02.11.03.16.05 6.97 1.87 13.9 3.89 20.65 5.98 30.96 9.6 57.91 20.51 65.21 23.59.11.04.22.09.33.14 0 .01.02.01.04.02.08.04.17.08.25.11.13.06.25.12.38.17.35.15.61.25.77.33 17.84 8.15 37.98 18.64 43.98 24.32 2.38 2.25 4.91 5.29 6.1 7.25 1.35 2.21 3.09 5.23 4.94 8.56.15.26.3.52.44.77.27.5.55 1 .83 1.51" class="cls-2"/>
    <path d="m693.77 139.84-.01.02-501.68 501.87-.37.37h-.19l.47-.47c-47.13-63.6-75-142.31-75-227.54s27.87-163.97 75.02-227.56l57.53.23c58.32.15 61.04-.28 70.45-4.5.96-.43 2.1-1.12 3.4-2.06.07-.05.15-.1.23-.16 24.14-17.54 101.91-113.91 120.6-122.38 10.2-4.63 20.15-5.42 26.98-5.25.1.01.2.01.3.01 2.43.08 4.45.28 5.93.46.21.03.41.06.6.08.49.07.91.14 1.24.19.09.02.17.03.24.04.02 0 .04 0 .06.01.17.02.31.05.4.06 2.54.4 9.94 1.52 16.75 2.77.19.03.41.07.67.12.01 0 .03 0 .05.01.17.03.36.06.56.09.1.02.2.03.3.05 6.54 1.1 26.34 4.21 48.69 10.04.89.23 1.79.47 2.69.71.05.02.11.03.16.05 6.99 1.97 13.86 3.95 20.65 5.98 22.32 6.67 43.7 13.89 65.21 23.59.11.04.22.09.33.14 0 .01.02.01.04.02.08.04.17.08.25.11.13.06.25.12.38.17.21.11.43.21.64.3 17.84 8.14 37.97 18.63 43.98 24.31 2.37 2.25 4.51 4.9 5.7 6.86 1.26 2.05 3.53 5.62 5.47 8.99a128 128 0 0 1 1.28 2.27" class="cls-5"/>
    <path d="M881.94 414.09c0 61.07-14.31 118.8-39.75 170.01-.2.4-.41.81-.61 1.21-.2.41-.41.81-.62 1.21-.28.58-.57 1.15-.86 1.71-46.11 90.05-126.86 159.41-224.68 190.49-36.57 11.63-75.53 17.9-115.95 17.9-125.81 0-237.43-60.75-307.13-154.52-.06-.07-.12-.15-.17-.22l-.09-.15a.4.4 0 0 1-.09-.1c-47.13-63.6-75-142.31-75-227.54s27.87-163.97 75.02-227.56c.01-.04.04-.07.08-.11C261.77 92.46 373.51 31.56 499.47 31.56c85.23 0 163.95 27.89 227.54 75.04 94 69.68 154.93 181.47 154.93 307.49" class="cls-7"/>
    <circle cx="527.35" cy="218.73" r="47.12" class="cls-1"/>
    <circle cx="439.23" cy="306.19" r="47.12" class="cls-1"/>
    <circle cx="617.11" cy="304.55" r="47.12" class="cls-4"/>
    <circle cx="527.21" cy="395.26" r="47.12" class="cls-4"/>
    <path d="M881.94 414.09c0 61.07-14.31 118.8-39.75 170.01-.2.4-.41.81-.61 1.21-.2.41-.4.81-.61 1.22-.29.57-.58 1.13-.87 1.7-46.11 90.05-126.86 159.41-224.68 190.49-36.57 11.63-75.53 17.9-115.95 17.9-125.81 0-237.43-60.75-307.13-154.52-.06-.07-.12-.15-.17-.22-.04-.05-.07-.09-.1-.14-.03-.04-.06-.07-.08-.11-47.13-63.6-75-142.31-75-227.54s27.87-163.97 75.02-227.56c.01-.04.04-.07.08-.11C261.77 92.46 373.51 31.56 499.47 31.56c85.23 0 163.95 27.89 227.54 75.04 94 69.68 154.93 181.47 154.93 307.49" class="cls-7"/>
    <path d="M194.02 960.72v-75.39h-15.08v90.6h90.47v-15.21zm157.69-45.07v42.29h15.21v-42.29zm0 0v42.29h15.21v-42.29zm0 0v42.29h15.21v-42.29zm15.06-15.52c-.19-1.48-.58-2.9-1.16-4.26a16.8 16.8 0 0 0-2.02-3.49 16.6 16.6 0 0 0-4.54-4.27c-.2-.14-.4-.27-.61-.39-2.56-1.51-5.39-2.26-8.48-2.26h-56.55c-3.1 0-5.95.75-8.54 2.26q-.315.18-.63.39c-1.8 1.13-3.32 2.56-4.55 4.27-.35.48-.68.97-.98 1.49-.38.65-.71 1.32-.99 2-.56 1.36-.94 2.78-1.13 4.26-.09.75-.14 1.51-.14 2.29v56.54q0 1.665.3 3.24c.21 1.21.57 2.37 1.05 3.49.26.62.57 1.23.91 1.82.51.88 1.08 1.7 1.73 2.45 1.14 1.37 2.51 2.54 4.08 3.49.12.08.23.15.35.22 2.59 1.5 5.44 2.26 8.54 2.26h56.55c3.09 0 5.92-.76 8.48-2.26.12-.07.23-.14.35-.22 1.54-.95 2.89-2.12 4.05-3.49.64-.75 1.23-1.57 1.75-2.45.35-.59.67-1.2.94-1.82.49-1.12.86-2.28 1.08-3.49.21-1.05.31-2.13.31-3.24v-56.54c0-.78-.05-1.54-.15-2.29m-15.06 58.33c0 .59-.23 1.11-.69 1.57s-.98.69-1.57.69h-55.66c-.59 0-1.11-.23-1.57-.69-.47-.46-.69-.98-.69-1.57v-55.54c0-.58.22-1.11.69-1.57.46-.46.98-.69 1.57-.69h55.66c.59 0 1.11.23 1.57.69s.69.99.69 1.57zm0-42.81v42.29h15.21v-42.29zm0 0v42.29h15.21v-42.29zm0 0v42.29h15.21v-42.29zm104.55 0v11.25h15.2v-11.25zm15.06-15.52c-.2-1.48-.58-2.9-1.16-4.26a16.8 16.8 0 0 0-2.02-3.49 16.6 16.6 0 0 0-4.54-4.27c-.2-.14-.41-.27-.62-.39-2.56-1.51-5.38-2.26-8.48-2.26h-56.55c-3.1 0-5.95.75-8.54 2.26q-.315.18-.63.39c-1.8 1.13-3.32 2.56-4.55 4.27-.35.48-.68.97-.98 1.49-.38.65-.71 1.32-.99 2-.56 1.36-.94 2.78-1.13 4.26-.09.75-.14 1.51-.14 2.29v73.51h15.08v-31.04h60.19v31.04h15.2v-73.51c0-.78-.05-1.54-.14-2.29m-15.06 29.68h-60.19v-26.89c0-.58.23-1.11.69-1.57s.98-.69 1.57-.69H454c.58 0 1.11.23 1.57.69s.69.99.69 1.57zm0-14.16v11.25h15.2v-11.25zm0 0v11.25h15.2v-11.25zm0 7.76v3.49h15.2v-3.49zm105.05 0v26.77h15.2v-26.77zm0-7.76v42.29h15.2v-42.29zm15.06-15.52c-.2-1.48-.58-2.9-1.16-4.26a16.8 16.8 0 0 0-2.02-3.49 16.7 16.7 0 0 0-4.55-4.27c-.2-.14-.4-.27-.61-.39-2.56-1.51-5.38-2.26-8.48-2.26h-73.51v90.47h73.51c3.1 0 5.92-.76 8.48-2.26.12-.07.23-.14.35-.22 1.54-.95 2.9-2.12 4.05-3.49.65-.75 1.24-1.57 1.76-2.45.35-.59.67-1.2.93-1.82.5-1.12.86-2.28 1.08-3.49.21-1.05.31-2.13.31-3.24v-56.54c0-.78-.05-1.54-.14-2.29m-15.06 58.33c0 .59-.23 1.11-.69 1.57-.47.46-.99.69-1.58.69h-55.66c-.67 0-1.24-.23-1.7-.69s-.69-.98-.69-1.57v-55.54c0-.58.23-1.11.69-1.57s1.03-.69 1.7-.69h55.66c.59 0 1.11.23 1.58.69.46.46.69.99.69 1.57zm0-42.81v42.29h15.2v-42.29zm0 7.76v34.53h15.2v-34.53zm0 0v26.77h15.2v-26.77zm0 7.76v3.49h15.2v-3.49zm28.27-45.71v90.47h14.95v-90.47zm103.16 0v69.11l-.11-.13-3.58-4.26-2.94-3.5-3.58-4.26-2.94-3.5-3.57-4.26-2.94-3.49-3.58-4.27-2.93-3.49-3.58-4.26-2.94-3.5-3.58-4.26-2.94-3.5-3.58-4.26-2.94-3.5-3.58-4.26-2.93-3.49-3.58-4.27-2.23-2.65h-17.22v90.47h15.08v-69.24l1.01 1.2 2.94 3.5 3.58 4.26 2.94 3.5 3.58 4.26 2.93 3.49 3.59 4.27 2.93 3.49 3.58 4.26 2.94 3.5 3.58 4.26 2.94 3.5 3.58 4.26 2.94 3.5 3.58 4.26 2.94 3.49 3.58 4.27 2.94 3.49 2.08 2.48h17.22v-90.47zm119.6 14.67c-.19-1.48-.58-2.9-1.16-4.26a16.8 16.8 0 0 0-2.02-3.49 16.6 16.6 0 0 0-4.54-4.27c-.2-.14-.4-.27-.61-.39-2.56-1.51-5.39-2.26-8.49-2.26h-56.54c-3.1 0-5.95.75-8.54 2.26q-.315.18-.63.39c-1.8 1.13-3.32 2.56-4.55 4.27-.35.48-.68.97-.98 1.49-.38.65-.71 1.32-.99 2-.56 1.36-.94 2.78-1.13 4.26-.09.75-.14 1.51-.14 2.29v56.54q0 1.665.3 3.24c.21 1.21.57 2.37 1.05 3.49.26.62.57 1.23.91 1.82.51.88 1.08 1.7 1.73 2.45 1.14 1.37 2.51 2.54 4.08 3.49.12.08.23.15.35.22 2.59 1.5 5.44 2.26 8.54 2.26h56.54c3.1 0 5.93-.76 8.49-2.26.12-.07.23-.14.35-.22 1.54-.95 2.89-2.12 4.05-3.49.64-.75 1.23-1.57 1.75-2.45.35-.59.67-1.2.94-1.82.49-1.12.86-2.28 1.08-3.49.21-1.05.31-2.13.31-3.24v-33.42h-36.07v15.2h20.86v17.72c0 .59-.23 1.11-.69 1.57s-.98.69-1.57.69h-55.66c-.59 0-1.11-.23-1.57-.69-.47-.46-.7-.98-.7-1.57v-55.54c0-.58.23-1.11.7-1.57.46-.46.98-.69 1.57-.69h55.66c.59 0 1.11.23 1.57.69s.69.99.69 1.57v5.66h15.21v-6.16c0-.78-.05-1.54-.15-2.29m13.72 60.84v14.96h14.95v-14.96zm28.14 0v14.96h14.96v-14.96zm28.15 0v14.96h14.95v-14.96z" style="fill:#e8e8e8"/>
    <path d="M512.6 31.25h-26.38c4.38-.16 8.78-.23 13.19-.23s8.81.07 13.19.23M577.62 39H421.2c8.1-1.68 16.29-3.1 24.56-4.26h107.3A383 383 0 0 1 577.62 39m30.9 7.76H390.3c5.16-1.53 10.37-2.95 15.62-4.26H592.9c5.25 1.31 10.46 2.73 15.62 4.26m23.38 7.76H366.92c4.05-1.49 8.13-2.92 12.24-4.26h240.5c4.11 1.34 8.19 2.77 12.24 4.26m19.41 7.76H347.5c3.4-1.47 6.83-2.89 10.28-4.26h283.26c3.45 1.37 6.87 2.79 10.27 4.26m16.82 7.75H330.68c2.97-1.46 5.96-2.88 8.98-4.26h319.5c3.01 1.38 6.01 2.8 8.97 4.26m14.98 7.76h-367.4c2.65-1.45 5.33-2.88 8.02-4.26h351.35c2.7 1.38 5.37 2.8 8.03 4.26m13.53 7.76H302.18c2.41-1.45 4.83-2.88 7.28-4.26h379.9c2.45 1.39 4.87 2.81 7.28 4.26m12.38 7.76H289.8c2.2-1.45 4.42-2.86 6.65-4.26h405.92c2.23 1.4 4.45 2.82 6.65 4.26m11.41 7.76H278.38q3.06-2.16 6.15-4.26h429.75q3.105 2.1 6.15 4.26m10.59 7.75H267.8c1.89-1.44 3.79-2.86 5.71-4.26H725.3c1.92 1.4 3.83 2.82 5.72 4.26m9.89 7.76H257.9c1.77-1.44 3.55-2.86 5.35-4.26h472.32q2.685 2.1 5.34 4.26m9.26 7.76H248.64q2.49-2.16 5.01-4.26h491.51q2.535 2.1 5.01 4.26m8.71 7.76H239.94c1.55-1.44 3.12-2.85 4.7-4.26h509.53q2.37 2.115 4.71 4.26m8.2 7.76H231.73c1.47-1.44 2.96-2.86 4.45-4.26h526.46q2.235 2.1 4.44 4.26m7.73 7.75H224c1.39-1.44 2.78-2.86 4.19-4.26h542.43c1.41 1.4 2.81 2.82 4.19 4.26m7.32 7.76H216.68c1.31-1.43 2.63-2.85 3.97-4.26h557.51c1.34 1.41 2.66 2.83 3.97 4.26m6.93 7.76H209.75c1.24-1.43 2.49-2.85 3.76-4.26H785.3c1.27 1.41 2.52 2.83 3.76 4.26m6.57 7.76H203.18c1.18-1.43 2.37-2.85 3.56-4.26h585.33c1.19 1.41 2.38 2.83 3.56 4.26m6.22 7.76H196.96c1.11-1.43 2.24-2.85 3.38-4.27h598.13c1.14 1.42 2.27 2.84 3.38 4.27m5.9 7.75H191.06c1.06-1.43 2.12-2.85 3.21-4.26h610.27q1.635 2.115 3.21 4.26m5.6 7.76H185.46c1-1.43 2.01-2.85 3.04-4.26h621.81c1.03 1.41 2.05 2.83 3.04 4.26m5.32 7.76H180.14c.95-1.43 1.91-2.85 2.89-4.26h632.76q1.455 2.115 2.88 4.26m5.05 7.76H175.1c.89-1.43 1.8-2.85 2.74-4.26h643.14c.93 1.41 1.84 2.83 2.74 4.26m4.78 7.76H170.31c.85-1.43 1.72-2.85 2.6-4.27H825.9c.89 1.42 1.75 2.84 2.6 4.27m4.53 7.75H165.78q1.2-2.145 2.46-4.26h662.33q1.26 2.115 2.46 4.26m4.31 7.76H161.47c.77-1.43 1.55-2.85 2.33-4.26h671.21c.78 1.41 1.56 2.83 2.33 4.26m4.06 7.76H157.41c.72-1.42 1.46-2.84 2.2-4.26H839.2c.75 1.42 1.48 2.84 2.2 4.26m3.85 7.76H153.56c.69-1.42 1.38-2.84 2.09-4.26h687.52c.7 1.42 1.4 2.84 2.08 4.26m3.63 7.76H149.93c.65-1.43 1.31-2.85 1.98-4.27h695c.66 1.42 1.32 2.84 1.97 4.27m3.41 7.75H146.52q.915-2.13 1.86-4.26h702.06c.63 1.42 1.25 2.84 1.85 4.26m3.22 7.76h-712.2q.855-2.145 1.74-4.26h708.71c.6 1.41 1.18 2.83 1.75 4.26m3.01 7.76H140.29c.53-1.43 1.08-2.85 1.64-4.26h714.96c.56 1.41 1.1 2.83 1.63 4.26m2.84 7.76h-723.9c.5-1.42 1.01-2.84 1.52-4.26h720.85q.78 2.13 1.53 4.26m2.62 7.75H134.83c.46-1.42.94-2.84 1.42-4.26h726.31c.49 1.42.96 2.84 1.42 4.26m2.46 7.76H132.38q.645-2.145 1.32-4.26h731.41c.46 1.41.9 2.83 1.33 4.26m2.27 7.76h-738.6c.39-1.42.8-2.84 1.22-4.26h736.16c.42 1.42.83 2.84 1.22 4.26m2.1 7.76h-742.8c.36-1.42.74-2.84 1.13-4.26h740.54c.39 1.42.76 2.84 1.13 4.26m1.92 7.76H126.09c.33-1.42.68-2.84 1.04-4.26h744.56c.36 1.42.71 2.84 1.04 4.26m1.75 7.75H124.34c.3-1.42.62-2.84.94-4.26h748.26c.32 1.42.63 2.84.94 4.26m1.58 7.76h-753.3c.27-1.43.56-2.85.84-4.26h751.62q.42 2.115.84 4.26m1.41 7.76H121.35c.24-1.42.49-2.84.76-4.26h754.6c.27 1.42.52 2.84.76 4.26m1.25 7.76H120.1c.21-1.42.43-2.84.67-4.26h757.28c.24 1.42.46 2.84.67 4.26m1.09 7.76h-760.8c.19-1.43.38-2.85.58-4.26h759.64c.2 1.41.39 2.83.58 4.26m.92 7.75H118.09c.15-1.43.31-2.84.49-4.26h761.66c.18 1.42.34 2.83.49 4.26m.77 7.76H117.32c.13-1.42.26-2.84.4-4.26H881.1c.14 1.42.27 2.84.4 4.26m.6 7.76H116.72c.09-1.42.19-2.85.31-4.26h764.76c.12 1.41.22 2.84.31 4.26m.45 7.76H116.27c.06-1.42.13-2.84.23-4.26h765.82c.09 1.42.17 2.84.23 4.26m.3 7.76H115.97c.03-1.43.08-2.85.14-4.27h766.6c.06 1.42.11 2.84.14 4.27m.14 7.75H115.83c.01-1.42.02-2.84.06-4.26h767.04c.04 1.42.05 2.84.06 4.26m.02 3.5q0 2.13-.03 4.26H115.84q-.03-2.13-.03-4.26zm-.09 7.76c-.02 1.42-.06 2.84-.11 4.26h-766.8c-.05-1.42-.09-2.84-.11-4.26zm-.23 7.76c-.06 1.42-.12 2.84-.2 4.26H116.33c-.08-1.42-.14-2.84-.2-4.26zm-.4 7.75c-.08 1.43-.17 2.85-.28 4.27h-765.2c-.11-1.42-.2-2.84-.28-4.27zm-.55 7.76c-.1 1.42-.23 2.84-.36 4.26H117.44c-.13-1.42-.26-2.84-.36-4.26zm-.69 7.76c-.15 1.42-.3 2.84-.46 4.26H118.23c-.16-1.42-.31-2.84-.46-4.26zm-.87 7.76c-.17 1.42-.35 2.84-.55 4.26H119.19c-.2-1.42-.38-2.84-.55-4.26zm-1.03 7.76c-.19 1.42-.41 2.84-.63 4.26H120.3q-.345-2.13-.63-4.26zm-1.18 7.75c-.23 1.43-.47 2.85-.73 4.27H121.58c-.26-1.42-.5-2.84-.73-4.27zm-1.35 7.76c-.26 1.43-.53 2.84-.81 4.26h-752.8c-.28-1.42-.55-2.83-.81-4.26zm-1.51 7.76c-.3 1.42-.6 2.84-.91 4.26H124.62a323 323 0 0 1-.91-4.26zm-1.69 7.76c-.32 1.43-.65 2.85-1 4.26H126.4c-.35-1.41-.68-2.83-1-4.26zm-1.86 7.76c-.35 1.43-.71 2.85-1.09 4.26H128.35c-.38-1.41-.74-2.83-1.09-4.26zm-2.02 7.75c-.38 1.43-.78 2.84-1.18 4.26h-737.9c-.4-1.42-.8-2.83-1.18-4.26zm-2.2 7.76q-.63 2.13-1.29 4.26H132.76c-.43-1.42-.86-2.84-1.28-4.26zm-2.4 7.76q-.66 2.13-1.38 4.26H135.25c-.47-1.42-.94-2.84-1.38-4.26zm-2.56 7.76c-.48 1.43-.97 2.84-1.48 4.26H137.92c-.51-1.42-1.01-2.83-1.49-4.26zm-2.74 7.76c-.52 1.42-1.05 2.84-1.6 4.26H140.77c-.54-1.42-1.07-2.84-1.6-4.26zm-2.95 7.75c-.55 1.43-1.12 2.85-1.69 4.26H143.82c-.58-1.41-1.14-2.83-1.7-4.26zm-3.14 7.76c-.59 1.42-1.19 2.84-1.81 4.26H147.07c-.62-1.42-1.22-2.84-1.81-4.26zm-3.34 7.76c-.62 1.43-1.27 2.85-1.92 4.26H150.52q-.975-2.115-1.92-4.26zm-3.54 7.76q-1.005 2.145-2.04 4.26H154.18c-.69-1.41-1.36-2.83-2.03-4.26zm-3.76 7.76q-1.065 2.13-2.16 4.26H158.06a283 283 0 0 1-2.15-4.26zm-3.97 7.75c-.76 1.42-1.52 2.84-2.29 4.26H162.16c-.77-1.42-1.53-2.84-2.29-4.26zm-4.22 7.76c-.79 1.43-1.59 2.85-2.41 4.26H166.5c-.81-1.41-1.62-2.83-2.41-4.26zm-4.44 7.76q-1.26 2.145-2.55 4.26H171.08q-1.29-2.115-2.55-4.26zm-4.69 7.76c-.88 1.43-1.78 2.85-2.68 4.26h-647c-.91-1.41-1.8-2.83-2.68-4.26zm-4.94 7.75c-.93 1.43-1.87 2.85-2.83 4.27H180.99c-.95-1.42-1.9-2.84-2.82-4.27zm-5.21 7.76c-.98 1.43-1.98 2.85-2.98 4.26h-626.1c-1.01-1.41-2.01-2.83-2.98-4.26zm-5.49 7.76c-1.04 1.43-2.08 2.85-3.14 4.26H192c-1.06-1.41-2.1-2.83-3.14-4.26zm-5.8 7.76a269 269 0 0 1-3.3 4.26H197.96a269 269 0 0 1-3.3-4.26zm-6.09 7.76a359 359 0 0 1-3.49 4.26H204.24a359 359 0 0 1-3.49-4.26zm-6.43 7.75c-1.21 1.43-2.44 2.86-3.69 4.27H210.87c-1.25-1.41-2.48-2.84-3.69-4.27zm-6.79 7.76a311 311 0 0 1-3.88 4.26H217.85c-1.31-1.41-2.6-2.83-3.88-4.26zm-7.17 7.76c-1.34 1.43-2.71 2.85-4.1 4.26H225.24c-1.39-1.41-2.76-2.83-4.1-4.26zm-7.57 7.76c-1.43 1.44-2.88 2.86-4.34 4.26h-532.7q-2.19-2.1-4.35-4.26zm-8.02 7.76a264 264 0 0 1-4.6 4.26H241.33q-2.31-2.1-4.59-4.26zm-8.49 7.75c-1.62 1.44-3.26 2.87-4.91 4.27H250.14c-1.65-1.4-3.29-2.83-4.92-4.27zm-9.04 7.76a438 438 0 0 1-5.21 4.26H259.47c-1.75-1.41-3.48-2.82-5.2-4.26zm-9.65 7.76c-1.84 1.44-3.7 2.86-5.57 4.26H269.48c-1.87-1.4-3.72-2.81-5.56-4.26zm-10.31 7.76c-1.98 1.44-3.97 2.86-5.99 4.26H280.21c-2.01-1.4-4-2.81-5.98-4.26zm-11.08 7.76c-2.14 1.44-4.29 2.86-6.46 4.26H291.77c-2.17-1.4-4.32-2.82-6.46-4.26zm-11.98 7.75c-2.33 1.45-4.67 2.87-7.03 4.26H304.32a313 313 0 0 1-7.03-4.26zm-13.07 7.76q-3.825 2.175-7.71 4.26H318.07q-3.885-2.085-7.71-4.26zm-14.38 7.76c-2.83 1.46-5.69 2.88-8.57 4.26h-332.2q-4.32-2.07-8.58-4.26zm-16.06 7.76c-3.22 1.47-6.46 2.89-9.73 4.26H350.52q-4.89-2.055-9.72-4.26zm-18.31 7.76q-5.64 2.22-11.37 4.26H370.48q-5.73-2.04-11.37-4.26zm-21.59 7.75c-4.63 1.5-9.31 2.93-14.02 4.26H394.72c-4.71-1.33-9.38-2.75-14.02-4.26zm-27.29 7.76c-6.49 1.59-13.05 3.01-19.67 4.26h-143.5c-6.62-1.25-13.18-2.67-19.67-4.26zm-41.66 7.76c-16.29 2.11-32.9 3.2-49.76 3.2s-33.47-1.09-49.76-3.2zm-370.23 93.09h15.08v4.27h-15.08zm184.65 4.27h-83.9c1.23-1.71 2.75-3.14 4.55-4.27h74.81a16.6 16.6 0 0 1 4.54 4.27m104.55 0h-83.91c1.23-1.71 2.75-3.14 4.55-4.27h74.82a16.6 16.6 0 0 1 4.54 4.27m105.05 0h-87.15v-4.27h82.6c1.78 1.13 3.3 2.56 4.55 4.27m16.39-4.27h14.95v4.27h-14.95zm47.34 0 3.58 4.27h-23.03v-4.27zm55.82 0h15.21v4.27h-15.21zm116.42 4.27h-83.9c1.23-1.71 2.75-3.14 4.55-4.27h74.81a16.6 16.6 0 0 1 4.54 4.27m-630.22 3.49h15.08v4.26h-15.08zm186.67 0c.58 1.36.97 2.78 1.16 4.26h-90.18c.19-1.48.57-2.9 1.13-4.26zm104.55 0c.58 1.36.96 2.78 1.16 4.26h-90.19c.19-1.48.57-2.9 1.13-4.26zm105.05 0c.58 1.36.96 2.78 1.16 4.26h-90.33v-4.26zm14.37 0h14.95v4.26h-14.95zm53.85 0 3.58 4.26h-29.54v-4.26zm49.31 0h15.21v4.26h-15.21zm119.6 4.26h-90.18c.19-1.48.57-2.9 1.13-4.26h87.89c.58 1.36.97 2.78 1.16 4.26m-633.4 3.5h15.08v4.26h-15.08zm97.51 0h15.08v4.26h-15.08zm75.26 0h15.21v4.26h-15.21zm29.28 0h15.08v4.26h-15.08zm75.27 0h15.2v4.26h-15.2zm29.78 0h14.95v4.26h-14.95zm75.27 0h15.2v4.26h-15.2zm28.27 0h14.95v4.26h-14.95zm60.37 0 3.58 4.26h-36.06v-4.26zm42.79 0h15.21v4.26h-15.21zm29.28 0h15.07v4.26h-15.07zm75.26 0h15.21v4.26h-15.21zm-618.34 7.76h15.08v4.26h-15.08zm97.51 0h15.08v4.26h-15.08zm75.26 0h15.21v4.26h-15.21zm29.28 0h15.08v4.26h-15.08zm75.27 0h15.2v4.26h-15.2zm29.78 0h14.95v4.26h-14.95zm75.27 0h15.2v4.26h-15.2zm28.27 0h14.95v4.26h-14.95zm27.89 0h15.08v4.26h-15.08zm39 0 3.58 4.26h-19.97l-3.58-4.26zm36.27 0h15.21v4.26h-15.21zm29.28 0h15.07v4.26h-15.07zm-543.08 7.76h15.08v4.26h-15.08zm97.51 0h15.08v4.26h-15.08zm75.26 0h15.21v4.26h-15.21zm29.28 0h15.08v4.26h-15.08zm75.27 0h15.2v4.26h-15.2zm29.78 0h14.95v4.26h-14.95zm75.27 0h15.2v4.26h-15.2zm28.27 0h14.95v4.26h-14.95zm27.89 0h15.08v4.26h-15.08zm45.52 0 3.58 4.26H646.6l-3.58-4.26zm29.75 0h15.21v4.26h-15.21zm29.28 0h15.07v4.26h-15.07zm-543.08 7.75h15.08v4.27h-15.08zm97.51 0h15.08v4.27h-15.08zm75.26 0h15.21v4.27h-15.21zm104.55 0h15.2v4.27h-90.47v-4.27h15.08v2.91h60.19zm29.78 0h14.95v4.27h-14.95zm75.27 0h15.2v4.27h-15.2zm28.27 0h14.95v4.27h-14.95zm27.89 0h15.08v4.27h-15.08zm52.03 0 3.58 4.27h-19.96l-3.59-4.27zm23.24 0h15.21v4.27h-15.21zm29.28 0h15.07v4.27h-15.07zm54.4 0h36.07v4.27h-36.07zm-597.48 7.76h15.08v4.26h-15.08zm97.51 0h15.08v4.26h-15.08zm75.26 0h15.21v4.26h-15.21zm29.28 0h90.47v4.26h-90.47zm105.05 0h14.95v4.26h-14.95zm75.27 0h15.2v4.26h-15.2zm28.27 0h14.95v4.26h-14.95zm27.89 0h15.08v4.26h-15.08zm58.55 0 3.57 4.26h-19.96l-3.58-4.26zm16.72 0h15.21v4.26h-15.21zm29.28 0h15.07v4.26h-15.07zm54.4 0h36.07v4.26h-36.07zm-597.48 7.76h15.08v4.26h-15.08zm97.51 0h15.08v4.26h-15.08zm75.26 0h15.21v4.26h-15.21zm29.28 0h90.47v4.26h-15.2v-1.79h-60.19v1.79h-15.08zm105.05 0h14.95v4.26h-14.95zm75.27 0h15.2v4.26h-15.2zm28.27 0h14.95v4.26h-14.95zm27.89 0h15.08v4.26h-15.08zm65.06 0 3.58 4.26h-19.96l-3.58-4.26zm10.21 0h15.21v4.26h-15.21zm29.28 0h15.07v4.26h-15.07zm75.26 0h15.21v4.26h-15.21zm-618.34 7.76h15.08v4.26h-15.08zm97.51 0h15.08v4.26h-15.08zm75.26 0h15.21v4.26h-15.21zm29.28 0h15.08v4.26h-15.08zm75.27 0h15.2v4.26h-15.2zm29.78 0h14.95v4.26h-14.95zm75.27 0h15.2v4.26h-15.2zm28.27 0h14.95v4.26h-14.95zm27.89 0h15.08v4.26h-15.08zm71.58 0 3.58 4.26h-19.96l-3.58-4.26zm3.69 0h15.21v4.26h-15.21zm29.28 0h15.07v4.26h-15.07zm75.26 0h15.21v4.26h-15.21zm-603.26 10.54h75.39v1.48h-90.47v-4.26h15.08zm157.69-2.78h15.21v1.02c0 1.11-.1 2.19-.31 3.24h-89.86q-.3-1.575-.3-3.24v-1.02h15.08v.52c0 .59.22 1.11.69 1.57.46.46.98.69 1.57.69h55.66c.59 0 1.11-.23 1.57-.69s.69-.98.69-1.57zm29.28 0h15.08v4.26h-15.08zm75.27 0h15.2v4.26h-15.2zm105.05 0h15.2v1.02c0 1.11-.1 2.19-.31 3.24h-90.16v-4.26h14.95v.52c0 .59.23 1.11.69 1.57s1.03.69 1.7.69h55.66c.59 0 1.11-.23 1.58-.69.46-.46.69-.98.69-1.57zm28.27 0h14.95v4.26h-14.95zm27.89 0h15.08v4.26h-15.08zm58.14 0h32.34v4.26h-28.76zm136.88 0v1.02c0 1.11-.1 2.19-.31 3.24h-89.86q-.3-1.575-.3-3.24v-1.02h15.07v.52c0 .59.23 1.11.7 1.57.46.46.98.69 1.57.69h55.66c.59 0 1.11-.23 1.57-.69s.69-.98.69-1.57v-.52zm13.57 3.03h14.95v1.23h-14.95zm28.14 0h14.96v1.23H854.2zm28.15 0h14.95v1.23h-14.95zm-703.41 4.72h90.47v4.27h-90.47zm98.86 0h87.73a17 17 0 0 1-.94 1.82c-.52.88-1.11 1.7-1.75 2.45h-82.4a16 16 0 0 1-1.73-2.45c-.34-.59-.65-1.2-.91-1.82m103.19 0h15.08v4.27h-15.08zm75.27 0h15.2v4.27h-15.2zm29.78 0h89.08c-.26.62-.58 1.23-.93 1.82-.52.88-1.11 1.7-1.76 2.45h-86.39zm103.54 0h14.95v4.27h-14.95zm27.89 0h15.08v4.27h-15.08zm64.66 0h25.82v4.27h-22.24zm41.24 0h87.73a17 17 0 0 1-.94 1.82c-.52.88-1.11 1.7-1.75 2.45h-82.4a16 16 0 0 1-1.73-2.45c-.34-.59-.65-1.2-.91-1.82m102.69 0h14.95v4.27h-14.95zm28.14 0h14.96v4.27H854.2zm28.15 0h14.95v4.27h-14.95zm-703.41 7.76h90.47v2.48h-90.47zm105.58 0h74.27c-.12.08-.23.15-.35.22-2.56 1.5-5.39 2.26-8.48 2.26h-56.55c-3.1 0-5.95-.76-8.54-2.26a7 7 0 0 1-.35-.22m96.47 0h15.08v2.48h-15.08zm75.27 0h15.2v2.48h-15.2zm29.78 0h82.34c-.12.08-.23.15-.35.22-2.56 1.5-5.38 2.26-8.48 2.26h-73.51zm103.54 0h14.95v2.48h-14.95zm27.89 0h15.08v2.48h-15.08zm71.18 0h19.3v2.48h-17.22zm41.44 0h74.27c-.12.08-.23.15-.35.22-2.56 1.5-5.39 2.26-8.49 2.26h-56.54c-3.1 0-5.95-.76-8.54-2.26a7 7 0 0 1-.35-.22m95.97 0h14.95v2.48h-14.95zm28.14 0h14.96v2.48H854.2zm28.15 0h14.95v2.48h-14.95z" class="cls-3"/>
  </g>
  <rect id="crt-scan-bar-circle" x="0" y="0" width="1000" height="100" fill="#fff" opacity="0.18" clip-path="url(#logo-circle-clip)">
    <animate attributeName="y" values="0;1000;1000" dur="4.5s" repeatCount="indefinite" />
  </rect>
  <rect id="crt-scan-bar-text" x="0" y="850" width="1000" height="100" fill="#fff" opacity="0.18" clip-path="url(#loading-text-clip)">
    <animate attributeName="y" values="0;1000;1000" dur="4.5s" repeatCount="indefinite" />
  </rect>
</svg>
