<svg xmlns="http://www.w3.org/2000/svg" xml:space="preserve" width="1024" height="1024" viewBox="0 0 270.933 270.933"><path d="M258.225 256.532h511.892v511.976H258.225z" class="background-light" style="fill:#ede5f8;stroke-width:0;stroke-linejoin:bevel;stroke-dasharray:none" transform="translate(-136.606 -135.75)scale(.52916)"/><path d="M770.12 256.537 258.227 768.43v.08H770.12z" class="background-dark" style="fill:#bea4e1;stroke-width:0;stroke-linejoin:bevel;stroke-dasharray:none" transform="translate(-136.606 -135.75)scale(.52916)"/><g style="display:inline"><path d="M107.995 57.13c1.73.01 3.364-.69 3.768-2.723.033-.168.954-4.76 1.828-10.335 2.114-13.496 2.258-14.034 4.357-16.33.93-1.018 2.158-2.311 2.873-2.581 21.252-8.012 44.259-6.475 59.865-2.615 1.044.258 2.348 1.17 3.004 1.697 1.594 1.281 3.859 4.39 4.502 6.182.664 1.845 2.552 10.261 3.783 16.855l.951 5.098c19.002 12.53 38.002 33.273 38.002 66.139 0 3.905.826 10.024 7.712 57.139 11.304 77.349 11.18 76.379 11.184 87.361-.16 5.897-.418 7.918-.43 7.918-5.057.002-91.488-.056-102.127 0-.95.005-16.078-27.841-20.79-36.368l-4.833-2.92c-3.032 3.51-6.39 6.308-11.03 9.19-9.117 5.663-18.838 8.35-28.642 7.916-5.063-.223-8.059-.79-13.195-2.496-15.15-5.031-27.413-16.434-31.838-29.605l-.953-2.835-34.751-.003s-.024-4.123-.002-156.684z" class="logo-primary" style="fill:#553e98;fill-opacity:1;stroke-width:.529163" transform="translate(-1.2)"/><path d="M207.816 64.307 43.529 228.593c6.075 7.852 14.96 14.244 25.248 17.661 5.137 1.706 8.133 2.273 13.196 2.497 9.803.433 19.525-2.254 28.643-7.917 4.64-2.881 7.997-5.68 11.029-9.19l4.832 2.92c4.713 8.527 19.84 36.373 20.791 36.368 10.638-.055 97.07.001 102.127 0 .012 0 .269-2.02.43-7.918-.005-10.982.12-10.012-11.185-87.36-6.885-47.116-7.71-53.234-7.71-57.14 0-24.063-10.2-41.607-23.114-54.207" class="logo-secondary" style="fill:#371f69;fill-opacity:1;stroke-width:.529163" transform="translate(-1.2)"/></g><g style="display:inline" transform="translate(-135.407 -135.75)scale(.52916)"><circle cx="546.499" cy="406.565" r="31.529" class="dot-light" style="fill:#e6c7a7;fill-opacity:1;stroke-width:0;stroke-linejoin:bevel;stroke-dasharray:none"/><circle cx="474.097" cy="477.116" r="31.529" class="dot-light" style="fill:#e6c7a7;fill-opacity:1;stroke-width:0;stroke-linejoin:bevel;stroke-dasharray:none"/><circle cx="617.882" cy="477.435" r="31.529" class="dot-dark" style="fill:#e1a38d;fill-opacity:1;stroke-width:0;stroke-linejoin:bevel;stroke-dasharray:none"/><circle cx="547.116" cy="552.273" r="31.529" class="dot-dark" style="fill:#e1a38d;fill-opacity:1;stroke-width:0;stroke-linejoin:bevel;stroke-dasharray:none"/></g></svg>