<svg xmlns="http://www.w3.org/2000/svg" id="Layer_1" data-name="Layer 1" viewBox="0 0 2000 2000"><defs><style>.cls-2{fill:#e1a38e}.cls-6{fill:#e5c7a7}</style></defs><path d="M347.13 405.3c37.74.1 66.56.1 88.96-.11 11.02-.11 20.47-.27 28.67-.49 42.47-1.18 51.04-4.2 66.56-11.14 25.13-11.25 87.83-80.17 152.48-151.76 70.49-78.05 143.29-159.28 172.25-172.41 28.34-12.85 64.87-18.37 93.45-12.51 3.19.65 10 1.84 18.31 3.21 7.77 1.28 16.84 2.72 25.5 4.03 42.56 6.45 71.17 10.76 138.44 28.82 112.03 30.07 221.28 75.74 229.18 79.35 4.57 2.09 9.2 4.23 13.84 6.42 42.76 20.14 86.98 43.76 101.14 57.15 6.21 5.88 12.82 13.84 15.95 18.96 4.31 7.06 10.03 17.08 16.11 28.13L1790.88 0H.12v404.4l234.81.61zM.12 1596.44v194.33l194.51-194.51z" style="fill:#ede4f1"/><path d="M2000.05-.32H1791.2l-.32.32-282.92 282.93c13.36 24.25 27.88 52.43 29.82 59.12 35.85 85.98 67.81 173.4 100.54 260.6 15.55 44.6 32.57 88.18 47.96 132.62 13.12 38.23 41.47 117.71 43.16 120.99 21.89 61.41 40.7 123.68 59.4 186.14 11.68 38.8 26.07 89.32 40.06 143.1 21.05 70.78 42.62 141.45 55.58 214.45 2.8 15.47 12.75 77.36 13.46 82.25 1.7 11.82 12.8 101.06 15.04 121.4 10.25 92.96 8.4 267.52-68.89 396.4h155.96zm-975.34 1690.93c-10.88-8.5-25.98-20.32-33.57-26.26-15.19-11.9-42.14-27.58-44.85-29.15-4.65-2.68-9.35-4.97-26.04-12.31-17.68-7.77-53.01-17.74-73.34-20.7-33.2-4.82-132.21-6.4-376.05-6.18l-276.23.25L.12 1790.77V2000h1350.84c-16.63-7.99-171.94-188.81-326.25-309.39" style="fill:#bda5cf"/><path d="M1912.98 1603.6c-2.24-20.34-13.34-109.58-15.04-121.4-.71-4.89-10.66-66.78-13.46-82.25-12.96-73-34.53-143.67-55.58-214.45-13.99-53.78-28.38-104.3-40.06-143.1-18.7-62.46-37.51-124.73-59.4-186.14-1.69-3.28-30.04-82.76-43.16-120.99-15.39-44.44-32.41-88.02-47.96-132.62-32.73-87.2-64.69-174.62-100.54-260.6-1.94-6.69-16.46-34.87-29.82-59.12S194.63 1596.26 194.63 1596.26l276.23-.25c243.84-.22 342.85 1.36 376.05 6.18 20.33 2.96 55.66 12.93 73.34 20.7 16.69 7.34 21.39 9.63 26.04 12.31 2.71 1.57 29.66 17.25 44.85 29.15 7.59 5.94 22.69 17.76 33.57 26.26 154.31 120.58 309.62 301.4 326.25 309.39h493.13c77.29-128.88 79.14-303.44 68.89-396.4m-840.34-529.52c-68.03 0-123.18-55.15-123.18-123.18s55.15-123.18 123.18-123.18 123.18 55.15 123.18 123.18-55.15 123.18-123.18 123.18m235.04-237.14c-68.03 0-123.18-55.15-123.18-123.18s55.15-123.18 123.18-123.18 123.18 55.15 123.18 123.18-55.15 123.18-123.18 123.18" style="fill:#38286a"/><path d="m.12 1596.44 194.5-.17L1507.96 282.93c-6.08-11.05-11.8-21.07-16.11-28.13-3.13-5.12-9.74-13.08-15.95-18.96-14.16-13.39-58.38-37.01-101.14-57.15-4.64-2.19-9.27-4.33-13.84-6.42-7.9-3.61-117.15-49.28-229.18-79.35-67.26-18.06-95.87-22.37-138.44-28.82-8.66-1.31-17.73-2.75-25.5-4.03-8.3-1.37-15.11-2.55-18.31-3.21-28.58-5.86-65.11-.34-93.45 12.51-28.95 13.13-101.76 94.36-172.25 172.41-64.65 71.59-127.35 140.51-152.48 151.76-15.52 6.95-24.09 9.96-66.56 11.14-8.2.23-17.65.39-28.67.49-22.4.22-51.22.21-88.96.11l-112.2-.29-234.8-.6H.07c.01 269.87-.01 870.95.05 1192.04Zm719.31-878.4c0-68.03 55.15-123.18 123.18-123.18s123.18 55.15 123.18 123.18-55.15 123.18-123.18 123.18-123.18-55.15-123.18-123.18m353.56-351.86c68.03 0 123.18 55.15 123.18 123.18s-55.15 123.18-123.18 123.18-123.18-55.15-123.18-123.18 55.15-123.18 123.18-123.18" style="fill:#553f99"/><circle cx="1072.99" cy="489.36" r="123.18" class="cls-6"/><circle cx="842.61" cy="718.04" r="123.18" class="cls-6"/><circle cx="1307.68" cy="713.76" r="123.18" class="cls-2" transform="rotate(-45 1307.688 713.758)"/><circle cx="1072.64" cy="950.9" r="123.18" class="cls-2"/></svg>