<svg xmlns="http://www.w3.org/2000/svg" xml:space="preserve" width="1024" height="1024" viewBox="0 0 270.933 270.933"><path d="M255.928 256.564H767.82V768.54H255.928z" class="background-light" style="fill:#ede5f8;fill-opacity:1;stroke-width:0" transform="translate(-135.407 -135.75)scale(.52916)"/><path d="m714.366 256.564-458.44 458.44v53.536H767.82V256.564Z" class="background-dark" style="fill:#bea4e1;fill-opacity:1;stroke-width:0" transform="translate(-135.407 -135.75)scale(.52916)"/><g style="display:inline"><path d="M601.91 768.54c-2.735-.066-43.37-47.717-83.736-79.261-2.784-2.176-6.65-5.2-8.593-6.721-3.886-3.045-10.784-7.06-11.479-7.461-1.19-.687-2.393-1.272-6.665-3.15-4.524-1.99-13.567-4.542-18.772-5.298-8.498-1.236-33.84-1.639-96.251-1.582l-120.486.11c-.016-82.184-.01-236.036-.013-305.108l88.831.232c39.029.101 40.847-.189 47.144-3.008 13.443-6.019 68.906-76.53 83.114-82.973 7.254-3.29 16.603-4.702 23.918-3.202 1.581.324 6.626 1.157 11.212 1.852 10.895 1.65 18.218 2.754 35.434 7.376 28.676 7.697 56.638 19.386 58.66 20.31 11.937 5.453 25.411 12.472 29.43 16.271 1.59 1.504 3.282 3.542 4.083 4.852 3.524 5.765 11.034 19.845 11.756 22.333 9.175 22.007 17.356 44.381 25.733 66.7 3.979 11.415 8.336 22.57 12.276 33.945 3.358 9.785 10.614 30.128 11.045 30.968 5.604 15.717 10.419 31.655 15.204 47.643 2.989 9.93 6.674 22.862 10.253 36.626 5.39 18.118 10.909 36.205 14.226 54.889.718 3.96 3.264 19.802 3.445 21.053.437 3.026 3.277 25.867 3.851 31.073 2.626 23.81 2.15 68.545-17.678 101.54-.1.167-2.65.031-2.707.032-9.042.065-31.907-.03-39.664-.043-15.94-.029-83.501.005-83.508.005z" class="logo-primary" style="fill:#553e98;fill-opacity:1;stroke-width:0;stroke-dasharray:none" transform="translate(-135.407 -135.75)scale(.52916)"/><path d="M474.911 274.03c-13.227 5.997-70.704 77.822-83.133 83.387-6.296 2.82-8.115 3.11-47.143 3.008l-88.705-.358c.002 69.071-.004 222.924.012 305.107l49.995-.045 335.959-336.097c-1.417-2.623-3.478-5.85-4.512-7.543-.801-1.31-2.229-3.084-3.82-4.587-4.017-3.8-17.491-10.819-29.428-16.271-19.17-8.756-38.18-14.515-58.66-20.311-17.216-4.622-32.595-6.852-35.435-7.376-4.56-.84-9.508-1.589-11.211-1.851-1.211-.187-12.33-2.317-23.919 2.937" class="logo-secondary" style="fill:#371f69;fill-opacity:1;stroke-width:0" transform="translate(-135.407 -135.75)scale(.52916)"/></g><g style="display:inline" transform="translate(-135.407 -135.75)scale(.52916)"><circle cx="530.532" cy="381.817" r="31.529" class="dot-light" style="fill:#e6c7a7;fill-opacity:1;stroke-width:0;stroke-linejoin:bevel;stroke-dasharray:none"/><circle cx="471.565" cy="440.348" r="31.529" class="dot-light" style="fill:#e6c7a7;fill-opacity:1;stroke-width:0;stroke-linejoin:bevel;stroke-dasharray:none"/><circle cx="590.601" cy="439.252" r="31.529" class="dot-dark" style="fill:#e1a38d;fill-opacity:1;stroke-width:0;stroke-linejoin:bevel;stroke-dasharray:none"/><circle cx="530.441" cy="499.948" r="31.529" class="dot-dark" style="fill:#e1a38d;fill-opacity:1;stroke-width:0;stroke-linejoin:bevel;stroke-dasharray:none"/></g></svg>