<svg xmlns="http://www.w3.org/2000/svg" width="1612" height="1612" version="1.0" viewBox="0 0 1209 1209"><path d="M566 .3c-.3.2-4.8.7-10 1.1-12.1.8-37.7 4.1-52.8 6.7-104.2 18-199 61.5-282.2 129.2-29.6 24.1-78.2 74.6-94.9 98.5l-2.3 3.3 8.9 9c35.4 36.5 89.5 69.1 145 87.5 9 3 17 5.4 17.8 5.4s10.3-8.9 21.2-19.8c31.4-31.4 55.1-49.9 88.8-69.3 45.9-26.3 105-45.6 155-50.4 3.9-.4 8.1-.9 9.5-1.2 4.4-.9 57.3-1.2 64.5-.3 3.9.4 10.4 1.1 14.5 1.4 35.4 3.2 86.5 17 120.5 32.6 15.4 7 18.5 8.6 31.4 15.7C914.2 312.3 991 426.3 1006.6 555c.3 3 .8 6.6 1 8 .9 5 1.1 61.9.3 74-.5 6.9-1.6 17-2.5 22.5s-1.8 11.3-2.1 13c-1.3 8.4-7.8 35.5-11.3 47.2-7.6 25.1-14.6 42.6-26.5 66.3-19.3 38.7-40.7 68.3-72.3 100-21.1 21.3-30.2 29.5-43.2 39.3-58 43.7-130.6 73-197.5 79.6-5.5.6-12.7 1.3-16 1.6-8.4.8-51.3.9-61.5.1-80.8-6.4-156.3-36-219.3-85.9-47-37.1-83.5-81.5-110.2-134.1-5-9.8-7.5-13.6-8.7-13.6-1 0-7.1 1.7-13.6 3.9-39.5 13.1-73.7 30.9-101.2 52.7-16.1 12.9-42.5 40.7-49.1 51.8l-2 3.5 3.4 6.8c8.1 16.1 30.6 51.2 46 71.8 44.7 59.7 99.2 110.4 161.5 150.3 6.2 3.9 11.4 7.2 11.6 7.2s4.5 2.5 9.5 5.5c16.6 9.9 35.9 19.7 65.6 33.1 13 5.8 43 16.6 62.2 22.3 34 10.1 61.4 16 96.5 20.6 11.1 1.5 14.5 1.9 32.3 3.4 23.3 2 76 1.8 98.5-.4 7.5-.8 38.3-4.5 40.6-4.9 1.1-.2 3.9-.7 6.4-1.1 22.1-3.6 55-11.3 75.4-17.6 15.8-4.9 40.6-13.6 48.1-16.9 1.1-.5 6.5-2.8 12-5 16-6.6 54.7-26.1 71.3-35.9 59-34.7 110.9-78.6 155.3-131.3 76.9-91.1 124.9-202 138.3-319.3.8-7.2 1.8-15 2.1-17.5 1-7.2 1.4-88.6.5-98-.5-4.7-1.4-13.2-2-19-11.9-109.6-53.2-214-118.8-300-20.8-27.3-36.9-45-70.4-77.6-24.9-24.3-66.3-55.6-100.1-75.8C858.5 50.9 792.3 25 728 12c-19.9-4.1-47.2-8.3-61.5-9.5-4.4-.4-9.1-1-10.5-1.2-3.3-.6-89.4-1.5-90-1"/><path d="M535.3 302.2c-7.1.6-12.1 1.4-25.8 4.2-1.1.3-6 1.6-11 3.1-19.3 5.6-39.1 14.8-59 27.3-6.6 4.1-16.2 9.5-21.4 12-15 7.1-61.7 21.7-82.6 25.8-12.8 2.5-25.4 4.3-37 5.2-12.2 1-71.5.9-84.4-.1-40.4-3.1-95.1-14.5-139.3-29L59 345.5l-2.6 5.5c-8.3 17.3-23.9 58.4-29.9 79-17 57.9-24.9 113-24.9 173 0 28.3 2.3 65.9 4.9 80 .2 1.4.7 4.5 1 7 2.6 19.8 10.4 57.3 12.3 59.2.8.8 6-.5 17.4-4 46.6-14.6 88.3-24.1 140.8-32.2 6.9-1 15-2.2 18-2.5s6.2-.8 7-1c2.4-.6 42.2-4.4 56-5.2 25.2-1.6 85.8-.8 108.5 1.3 75.3 7.1 103.2 14.3 133.2 34.4 9.8 6.6 11.1 7.8 24.8 21.5 10.6 10.6 15.6 17.1 44 56.5 44.5 61.9 53.9 74.3 63.8 83.6 16.1 15.3 37.7 27.1 58.2 31.9 17 4 44.8 4.1 59.5.2 30-8 50.1-20.3 68.1-41.7 13.6-16.1 22.7-35.6 28.5-61.5.3-1.7.8-11.6 1-22 .5-28.1 0-30.3-18.3-80-4.7-12.7-9.3-25.3-10.3-28-7.1-19.4-63.7-169.5-76.1-201.5-8.3-21.7-16.2-42.2-17.4-45.5-6.8-18-22.4-55.6-27.4-66-12.7-26.4-29.7-46.4-51.6-60.7-20.3-13.2-49.1-23.1-71-24.3-16.4-1-32.5-1.1-41.2-.3m9.8 141.6c9.9 4.8 15.9 13.8 16.6 25.1 1.2 16.5-10.2 29.7-26.7 30.9-18 1.3-31.9-10.8-32.1-28-.2-14.7 7.3-25.4 21.1-29.9 4.7-1.5 16.2-.5 21.1 1.9m-62.9 56.5c13.4 3.5 22.5 16.8 21.2 30.9-1 10.1-6.2 18.2-15.3 23.6-3.5 2.1-5.9 2.6-12 2.8-11.9.4-15.6-.9-22.8-8.1-5-5-6.5-7.2-7.8-12-4.2-14.3 2.2-28.7 15.7-35.5 6.8-3.3 12.9-3.9 21-1.7m121.3 1.5c5.4 2.7 10.9 8.4 13.7 14.1 1.8 3.7 2.3 6.3 2.3 13.1 0 7.6-.3 9.1-3 13.8-3.5 6.4-7.1 9.7-14.4 13-4.6 2.1-6.3 2.4-13.5 2-9-.5-12.5-1.9-18.7-7.5-5.9-5.3-8.1-10.4-8.7-19.4-.8-13.9 4.8-23.7 17.1-29.5 4.6-2.2 6.2-2.5 13.2-2.1 5.5.3 9.4 1.1 12 2.5m-58.6 58.3c22.4 9.6 22.3 44.2 0 53.8-8.6 3.8-21.7 3.1-28.6-1.5-20.3-13.2-17.1-44.4 5.5-53.5 6-2.5 15.9-2 23.1 1.2"/></svg>