<svg xmlns="http://www.w3.org/2000/svg" id="Layer_1" data-name="Layer 1" viewBox="0 0 1000 1000"><defs><style>.cls-2{fill:#0b3351}.cls-3{fill:#28b9ec}</style></defs><path d="M752.22 518.13c-7.42 0-14.41-1.87-20.52-5.16a43.55 43.55 0 0 1-17.93-18.19c-3.11-5.98-4.86-12.76-4.86-19.97 0-7.91 2.12-15.32 5.81-21.7 3.8-6.54 9.25-11.99 15.8-15.78 6.39-3.7 13.8-5.82 21.71-5.82 7.33 0 14.25 1.82 20.29 5.04a272 272 0 0 0-4.34-23.5c-10.62-46.38-32.79-88.34-63.32-122.72-6.37-7.17-13.11-14-20.16-20.48-49.72-45.61-116-73.44-188.77-73.44s-139.05 27.83-188.75 73.44a280 280 0 0 0-20.16 20.48c-30.76 34.65-53.04 76.99-63.57 123.81-4.47 19.81-6.82 40.42-6.82 61.58s2.14 39.78 6.18 58.72c10.21 47.77 32.65 91.01 63.87 126.29 6.34 7.17 13.04 14 20.08 20.48 49.74 45.84 116.19 73.82 189.16 73.82s139.42-27.98 189.18-73.82c7.04-6.48 13.73-13.31 20.08-20.48 30.77-34.78 53.02-77.29 63.43-124.25 1.72-7.72 3.11-15.57 4.16-23.53a43.1 43.1 0 0 1-20.54 5.18Zm-35.56 9.62a43 43 0 0 1 4.88 19.97c0 23.92-19.38 43.32-43.3 43.32s-43.32-19.39-43.32-43.32c0-7.54 1.93-14.63 5.31-20.8 3.8-6.92 9.43-12.69 16.24-16.65a43.2 43.2 0 0 1 21.76-5.85c7.42 0 14.41 1.87 20.52 5.16a43.5 43.5 0 0 1 17.91 18.18Zm-76.29-75.62c4.07 6.59 6.41 14.36 6.41 22.68 0 7.55-1.93 14.64-5.32 20.83a43.44 43.44 0 0 1-16.24 16.65 43.15 43.15 0 0 1-21.74 5.84c-23.92 0-43.32-19.39-43.32-43.32s19.39-43.3 43.32-43.3c8.47 0 16.38 2.43 23.05 6.64a43.3 43.3 0 0 1 13.84 13.98m75.33-29.58a43.4 43.4 0 0 1-15.78 15.78c-6.37 3.7-13.77 5.81-21.68 5.81-8.47 0-16.38-2.43-23.05-6.63a43.7 43.7 0 0 1-13.86-14.02c-4.06-6.59-6.4-14.36-6.4-22.67 0-23.91 19.39-43.3 43.32-43.3s43.3 19.39 43.3 43.3c0 7.91-2.12 15.33-5.84 21.72Zm-487.16 91.4v-79.34h63.14v-63.13h79.34v63.13h63.14v79.34h-63.14v63.14h-79.34v-63.14z" class="cls-3"/><path d="M792.62 425.48c-3.84-22.93-10.36-45.29-19.48-66.87-10.39-24.58-23.86-47.43-40.22-68.28a299 299 0 0 0-17.6-20.48c-2.18-2.32-4.39-4.61-6.66-6.87-27.62-27.62-59.79-49.31-95.62-64.46-37.11-15.69-76.51-23.66-117.12-23.66s-80 7.96-117.11 23.66c-35.83 15.16-68.01 36.84-95.63 64.46-2.27 2.27-4.48 4.56-6.66 6.87-6.2 6.59-12.07 13.41-17.6 20.48-16.35 20.85-29.81 43.7-40.21 68.28-15.69 37.11-23.66 76.51-23.66 117.11s7.96 80.02 23.66 117.12c10.33 24.42 23.69 47.14 39.91 67.88a301 301 0 0 0 24.55 27.74c27.62 27.62 59.8 49.32 95.63 64.48 37.11 15.69 76.51 23.64 117.11 23.64s80.02-7.95 117.12-23.64c35.83-15.16 68-36.85 95.62-64.48 2.38-2.38 4.72-4.8 7.03-7.26 6.17-6.59 12.01-13.41 17.52-20.48 16.22-20.74 29.59-43.46 39.92-67.88 9.41-22.25 16.04-45.31 19.83-68.98 2.55-15.81 3.81-31.89 3.81-48.14s-1.38-33.75-4.16-50.24Zm-19.86 87.46c-1.05 7.96-2.44 15.81-4.16 23.53-10.41 46.96-32.65 89.47-63.43 124.25-6.35 7.17-13.04 14-20.08 20.48-49.76 45.84-116.2 73.82-189.18 73.82s-139.42-27.98-189.16-73.82a277 277 0 0 1-20.08-20.48c-31.22-35.28-53.66-78.52-63.87-126.29a281 281 0 0 1-6.18-58.72c0-21.16 2.36-41.77 6.82-61.58 10.52-46.81 32.81-89.15 63.57-123.81 6.37-7.17 13.09-14 20.16-20.48 49.7-45.61 115.98-73.44 188.75-73.44s139.05 27.83 188.77 73.44c7.05 6.48 13.79 13.31 20.16 20.48 30.53 34.38 52.7 76.34 63.32 122.72a272 272 0 0 1 4.34 23.5c13.7 7.27 23.02 21.67 23.02 38.26s-9.2 30.81-22.76 38.13Z" class="cls-2"/><path d="M809.15 290.33h-618.3c-20.77 0-37.62 16.85-37.62 37.62V623.1c0 20.77 16.85 37.62 37.62 37.62h618.31c20.78 0 37.62-16.85 37.62-37.62V327.95c0-20.77-16.85-37.62-37.62-37.62Zm-36.39 222.61c-6.11 3.3-13.11 5.18-20.54 5.18s-14.41-1.87-20.52-5.16a43.55 43.55 0 0 1-17.93-18.19c-3.11-5.98-4.86-12.76-4.86-19.97 0-7.91 2.12-15.32 5.81-21.7 3.8-6.54 9.25-11.99 15.8-15.78 6.39-3.7 13.8-5.82 21.71-5.82 7.33 0 14.25 1.82 20.29 5.04 13.7 7.27 23.02 21.67 23.02 38.26s-9.2 30.81-22.76 38.13Zm-169.28 5.19c-23.92 0-43.32-19.39-43.32-43.32s19.39-43.3 43.32-43.3c8.47 0 16.38 2.43 23.05 6.64a43.3 43.3 0 0 1 13.84 13.98c4.07 6.59 6.41 14.36 6.41 22.68 0 7.55-1.93 14.64-5.32 20.83a43.44 43.44 0 0 1-16.24 16.65 43.15 43.15 0 0 1-21.74 5.84m118.06-117.3c0 7.91-2.12 15.33-5.84 21.72a43.4 43.4 0 0 1-15.78 15.78c-6.37 3.7-13.77 5.81-21.68 5.81-8.47 0-16.38-2.43-23.05-6.63a43.7 43.7 0 0 1-13.86-14.02c-4.06-6.59-6.4-14.36-6.4-22.67 0-23.91 19.39-43.3 43.32-43.3s43.3 19.39 43.3 43.3Zm-86.62 146.89c0-7.54 1.93-14.63 5.31-20.8 3.8-6.92 9.43-12.69 16.24-16.65a43.2 43.2 0 0 1 21.76-5.85c7.42 0 14.41 1.87 20.52 5.16a43.5 43.5 0 0 1 17.91 18.18 43 43 0 0 1 4.88 19.97c0 23.92-19.38 43.32-43.3 43.32s-43.32-19.39-43.32-43.32Zm-200.75-33.77h-63.14v63.14h-79.34v-63.14h-63.14v-79.34h63.14v-63.13h79.34v63.13h63.14z" class="cls-3"/><path d="M809.15 269.85h-618.3c-32.04 0-58.1 26.06-58.1 58.1V623.1c0 32.04 26.06 58.1 58.1 58.1h618.31c32.04 0 58.1-26.06 58.1-58.1V327.95c0-32.04-26.06-58.1-58.1-58.1Zm37.63 353.25c0 20.77-16.85 37.62-37.62 37.62H190.85c-20.77 0-37.62-16.85-37.62-37.62V327.95c0-20.77 16.85-37.62 37.62-37.62h618.31c20.78 0 37.62 16.85 37.62 37.62z" class="cls-2"/><path d="M391.5 414.14v-63.13H271.2v63.13h-63.14v120.3h63.14v63.14h120.3v-63.14h63.14v-120.3zm42.67 99.81h-63.14v63.14h-79.34v-63.14h-63.14v-79.34h63.14v-63.13h79.34v63.13h63.14zm358.45-88.47c-7.05-5.77-15.36-10.09-24.45-12.43a63.6 63.6 0 0 0-15.95-2.02c-3.81 0-7.55.33-11.19.99.65-3.64.99-7.37.99-11.19 0-35.18-28.61-63.78-63.78-63.78s-63.8 28.61-63.8 63.78c0 3.87.35 7.65 1.01 11.33-3.88-.74-7.87-1.13-11.97-1.13-35.18 0-63.8 28.61-63.8 63.78s28.62 63.8 63.8 63.8c4.02 0 7.96-.37 11.78-1.09-.54 3.33-.82 6.73-.82 10.2 0 35.18 28.62 63.8 63.8 63.8s63.78-28.62 63.78-63.8c0-3.43-.27-6.8-.81-10.07 3.57.64 7.26.96 11.01.96 5.66 0 11.15-.74 16.38-2.14 9.08-2.41 17.34-6.77 24.36-12.61 14.07-11.71 23.04-29.35 23.04-49.05s-9.11-37.62-23.39-49.33Zm-114.39-67.96c23.92 0 43.3 19.39 43.3 43.3 0 7.91-2.12 15.33-5.84 21.72a43.4 43.4 0 0 1-15.78 15.78c-6.37 3.7-13.77 5.81-21.68 5.81-8.47 0-16.38-2.43-23.05-6.63a43.7 43.7 0 0 1-13.86-14.02c-4.06-6.59-6.4-14.36-6.4-22.67 0-23.91 19.39-43.3 43.32-43.3Zm-53.02 154.77a43.15 43.15 0 0 1-21.74 5.84c-23.92 0-43.32-19.39-43.32-43.32s19.39-43.3 43.32-43.3c8.47 0 16.38 2.43 23.05 6.64a43.3 43.3 0 0 1 13.84 13.98c4.07 6.59 6.41 14.36 6.41 22.68 0 7.55-1.93 14.64-5.32 20.83a43.44 43.44 0 0 1-16.24 16.65m53.02 78.75c-23.92 0-43.32-19.39-43.32-43.32 0-7.54 1.93-14.63 5.31-20.8 3.8-6.92 9.43-12.69 16.24-16.65a43.2 43.2 0 0 1 21.76-5.85c7.42 0 14.41 1.87 20.52 5.16a43.5 43.5 0 0 1 17.91 18.18 43 43 0 0 1 4.88 19.97c0 23.92-19.38 43.32-43.3 43.32Zm94.53-78.1c-6.11 3.3-13.11 5.18-20.54 5.18s-14.41-1.87-20.52-5.16a43.55 43.55 0 0 1-17.93-18.19c-3.11-5.98-4.86-12.76-4.86-19.97 0-7.91 2.12-15.32 5.81-21.7 3.8-6.54 9.25-11.99 15.8-15.78 6.39-3.7 13.8-5.82 21.71-5.82 7.33 0 14.25 1.82 20.29 5.04 13.7 7.27 23.02 21.67 23.02 38.26s-9.2 30.81-22.76 38.13Z" class="cls-2"/><path d="M946.58 817.2v11.46h11.8v11.8h-23.61V829H900.4v22.92h46.18v11.46h11.8v23.6h-11.8v11.46H888.6v-11.46h-11.46v-11.8h23.26v11.46h34.37v-22.92H888.6v-11.45h-11.46v-23.61h11.46V817.2zm-280.02 0v11.46h11.8v58.33h-11.8v11.46h-57.98v-11.46h-11.46v-58.33h11.46V817.2zM654.75 829h-34.37v57.63h34.37zM481.5 840.46v-11.8h-11.45V817.2h-35.07v11.46h-11.46v11.8h-11.8v57.98h23.61v-23.26h34.37v23.26h23.26v-57.98zm-11.8 22.91h-34.37v-22.91h11.45V829h11.46v11.46h11.46zM249.93 817.2v69.44h34.72V817.2h23.26v69.78h-11.46v11.46h-58.32v-11.46h-11.46V817.2zm-92.35 0v11.46h11.46v11.8h11.45v-11.8h11.46V817.2h23.26v81.24h-23.26v-46.17h-11.46v22.91h-11.8v-22.91h-11.11v46.17h-23.61V817.2zm-34.72 0V829H64.88v22.92h46.18v11.8H64.88v22.92h57.98v11.8H41.62V817.2zm740.55 0v69.78h-11.46v11.46h-58.32v-11.46h-11.46v-11.8h23.26v11.46h34.72V817.2zm-509.32 0v69.44h46.52v11.8h-69.78V817.2zm231.57 0V829H562.4v69.44h-23.26V829h-23.26v-11.8zm185.05 46.52v-35.06h-11.46V817.2h-69.78v81.24h23.61v-23.26h11.11v11.8h11.8v11.46h34.72v-11.8h-11.46v-11.46H747.8v-11.46zm-23.26-11.8h-11.46v11.45h-22.91V829h34.37z" style="fill:#fff"/></svg>