<?xml version="1.0" encoding="UTF-8"?>
<svg id="Layer_1" data-name="Layer 1" xmlns="http://www.w3.org/2000/svg" viewBox="0 0 1000 1000">
  <defs>
    <style>
      .cls-1 {
        fill: #fff;
      }

      .cls-2 {
        fill: #0b3351;
      }

      .cls-3 {
        fill: #28b9ec;
      }
    </style>
  </defs>
  <g>
    <g>
      <path class="cls-3" d="M752.22,518.13c-7.42,0-14.41-1.87-20.52-5.16-7.64-4.12-13.91-10.47-17.93-18.19-3.11-5.98-4.86-12.76-4.86-19.97,0-7.91,2.12-15.32,5.81-21.7,3.8-6.54,9.25-11.99,15.8-15.78,6.39-3.7,13.8-5.82,21.71-5.82,7.33,0,14.25,1.82,20.29,5.04-1.11-7.95-2.56-15.78-4.34-23.5-10.62-46.38-32.79-88.34-63.32-122.72-6.37-7.17-13.11-14-20.16-20.48-49.72-45.61-116-73.44-188.77-73.44s-139.05,27.83-188.75,73.44c-7.07,6.48-13.79,13.31-20.16,20.48-30.76,34.65-53.04,76.99-63.57,123.81-4.47,19.81-6.82,40.42-6.82,61.58s2.14,39.78,6.18,58.72c10.21,47.77,32.65,91.01,63.87,126.29,6.34,7.17,13.04,14,20.08,20.48,49.74,45.84,116.19,73.82,189.16,73.82s139.42-27.98,189.18-73.82c7.04-6.48,13.73-13.31,20.08-20.48,30.77-34.78,53.02-77.29,63.43-124.25,1.72-7.72,3.11-15.57,4.16-23.53-6.11,3.3-13.11,5.18-20.54,5.18ZM716.66,527.75c3.12,5.98,4.88,12.76,4.88,19.97,0,23.92-19.38,43.32-43.3,43.32s-43.32-19.39-43.32-43.32c0-7.54,1.93-14.63,5.31-20.8,3.8-6.92,9.43-12.69,16.24-16.65,6.39-3.71,13.82-5.85,21.76-5.85,7.42,0,14.41,1.87,20.52,5.16,7.64,4.12,13.9,10.47,17.91,18.18ZM640.37,452.13c4.07,6.59,6.41,14.36,6.41,22.68,0,7.55-1.93,14.64-5.32,20.83-3.8,6.93-9.43,12.69-16.24,16.65-6.39,3.71-13.81,5.84-21.74,5.84-23.92,0-43.32-19.39-43.32-43.32s19.39-43.3,43.32-43.3c8.47,0,16.38,2.43,23.05,6.64,5.62,3.53,10.36,8.32,13.84,13.98ZM715.7,422.55c-3.79,6.54-9.24,11.99-15.78,15.78-6.37,3.7-13.77,5.81-21.68,5.81-8.47,0-16.38-2.43-23.05-6.63-5.62-3.55-10.37-8.35-13.86-14.02-4.06-6.59-6.4-14.36-6.4-22.67,0-23.91,19.39-43.3,43.32-43.3s43.3,19.39,43.3,43.3c0,7.91-2.12,15.33-5.84,21.72ZM228.54,513.95v-79.34h63.14v-63.13h79.34v63.13h63.14v79.34h-63.14v63.14h-79.34v-63.14h-63.14Z"/>
      <path class="cls-2" d="M792.62,425.48c-3.84-22.93-10.36-45.29-19.48-66.87-10.39-24.58-23.86-47.43-40.22-68.28-5.53-7.07-11.41-13.89-17.6-20.48-2.18-2.32-4.39-4.61-6.66-6.87-27.62-27.62-59.79-49.31-95.62-64.46-37.11-15.69-76.51-23.66-117.12-23.66s-80,7.96-117.11,23.66c-35.83,15.16-68.01,36.84-95.63,64.46-2.27,2.27-4.48,4.56-6.66,6.87-6.2,6.59-12.07,13.41-17.6,20.48-16.35,20.85-29.81,43.7-40.21,68.28-15.69,37.11-23.66,76.51-23.66,117.11s7.96,80.02,23.66,117.12c10.33,24.42,23.69,47.14,39.91,67.88,5.52,7.07,11.35,13.89,17.52,20.48,2.3,2.46,4.65,4.88,7.03,7.26,27.62,27.62,59.8,49.32,95.63,64.48,37.11,15.69,76.51,23.64,117.11,23.64s80.02-7.95,117.12-23.64c35.83-15.16,68-36.85,95.62-64.48,2.38-2.38,4.72-4.8,7.03-7.26,6.17-6.59,12.01-13.41,17.52-20.48,16.22-20.74,29.59-43.46,39.92-67.88,9.41-22.25,16.04-45.31,19.83-68.98,2.55-15.81,3.81-31.89,3.81-48.14s-1.38-33.75-4.16-50.24ZM772.76,512.94c-1.05,7.96-2.44,15.81-4.16,23.53-10.41,46.96-32.65,89.47-63.43,124.25-6.35,7.17-13.04,14-20.08,20.48-49.76,45.84-116.2,73.82-189.18,73.82s-139.42-27.98-189.16-73.82c-7.04-6.48-13.75-13.31-20.08-20.48-31.22-35.28-53.66-78.52-63.87-126.29-4.04-18.93-6.18-38.57-6.18-58.72,0-21.16,2.36-41.77,6.82-61.58,10.52-46.81,32.81-89.15,63.57-123.81,6.37-7.17,13.09-14,20.16-20.48,49.7-45.61,115.98-73.44,188.75-73.44s139.05,27.83,188.77,73.44c7.05,6.48,13.79,13.31,20.16,20.48,30.53,34.38,52.7,76.34,63.32,122.72,1.78,7.72,3.23,15.55,4.34,23.5,13.7,7.27,23.02,21.67,23.02,38.26s-9.2,30.81-22.76,38.13Z"/>
    </g>
    <g>
      <path class="cls-3" d="M809.15,290.33H190.85c-20.77,0-37.62,16.85-37.62,37.62v295.15c0,20.77,16.85,37.62,37.62,37.62h618.31c20.78,0,37.62-16.85,37.62-37.62v-295.15c0-20.77-16.85-37.62-37.62-37.62ZM772.76,512.94c-6.11,3.3-13.11,5.18-20.54,5.18s-14.41-1.87-20.52-5.16c-7.64-4.12-13.91-10.47-17.93-18.19-3.11-5.98-4.86-12.76-4.86-19.97,0-7.91,2.12-15.32,5.81-21.7,3.8-6.54,9.25-11.99,15.8-15.78,6.39-3.7,13.8-5.82,21.71-5.82,7.33,0,14.25,1.82,20.29,5.04,13.7,7.27,23.02,21.67,23.02,38.26s-9.2,30.81-22.76,38.13ZM603.48,518.13c-23.92,0-43.32-19.39-43.32-43.32s19.39-43.3,43.32-43.3c8.47,0,16.38,2.43,23.05,6.64,5.62,3.53,10.36,8.32,13.84,13.98,4.07,6.59,6.41,14.36,6.41,22.68,0,7.55-1.93,14.64-5.32,20.83-3.8,6.93-9.43,12.69-16.24,16.65-6.39,3.71-13.81,5.84-21.74,5.84ZM721.54,400.83c0,7.91-2.12,15.33-5.84,21.72-3.79,6.54-9.24,11.99-15.78,15.78-6.37,3.7-13.77,5.81-21.68,5.81-8.47,0-16.38-2.43-23.05-6.63-5.62-3.55-10.37-8.35-13.86-14.02-4.06-6.59-6.4-14.36-6.4-22.67,0-23.91,19.39-43.3,43.32-43.3s43.3,19.39,43.3,43.3ZM634.92,547.72c0-7.54,1.93-14.63,5.31-20.8,3.8-6.92,9.43-12.69,16.24-16.65,6.39-3.71,13.82-5.85,21.76-5.85,7.42,0,14.41,1.87,20.52,5.16,7.64,4.12,13.9,10.47,17.91,18.18,3.12,5.98,4.88,12.76,4.88,19.97,0,23.92-19.38,43.32-43.3,43.32s-43.32-19.39-43.32-43.32ZM434.17,513.95h-63.14v63.14h-79.34v-63.14h-63.14v-79.34h63.14v-63.13h79.34v63.13h63.14v79.34Z"/>
      <path class="cls-2" d="M809.15,269.85H190.85c-32.04,0-58.1,26.06-58.1,58.1v295.15c0,32.04,26.06,58.1,58.1,58.1h618.31c32.04,0,58.1-26.06,58.1-58.1v-295.15c0-32.04-26.06-58.1-58.1-58.1ZM846.78,623.1c0,20.77-16.85,37.62-37.62,37.62H190.85c-20.77,0-37.62-16.85-37.62-37.62v-295.15c0-20.77,16.85-37.62,37.62-37.62h618.31c20.78,0,37.62,16.85,37.62,37.62v295.15Z"/>
    </g>
    <path class="cls-2" d="M391.5,414.14v-63.13h-120.3v63.13h-63.14v120.3h63.14v63.14h120.3v-63.14h63.14v-120.3h-63.14ZM434.17,513.95h-63.14v63.14h-79.34v-63.14h-63.14v-79.34h63.14v-63.13h79.34v63.13h63.14v79.34Z"/>
    <path class="cls-2" d="M792.62,425.48c-7.05-5.77-15.36-10.09-24.45-12.43-5.09-1.32-10.45-2.02-15.95-2.02-3.81,0-7.55.33-11.19.99.65-3.64.99-7.37.99-11.19,0-35.18-28.61-63.78-63.78-63.78s-63.8,28.61-63.8,63.78c0,3.87.35,7.65,1.01,11.33-3.88-.74-7.87-1.13-11.97-1.13-35.18,0-63.8,28.61-63.8,63.78s28.62,63.8,63.8,63.8c4.02,0,7.96-.37,11.78-1.09-.54,3.33-.82,6.73-.82,10.2,0,35.18,28.62,63.8,63.8,63.8s63.78-28.62,63.78-63.8c0-3.43-.27-6.8-.81-10.07,3.57.64,7.26.96,11.01.96,5.66,0,11.15-.74,16.38-2.14,9.08-2.41,17.34-6.77,24.36-12.61,14.07-11.71,23.04-29.35,23.04-49.05s-9.11-37.62-23.39-49.33ZM678.23,357.52c23.92,0,43.3,19.39,43.3,43.3,0,7.91-2.12,15.33-5.84,21.72-3.79,6.54-9.24,11.99-15.78,15.78-6.37,3.7-13.77,5.81-21.68,5.81-8.47,0-16.38-2.43-23.05-6.63-5.62-3.55-10.37-8.35-13.86-14.02-4.06-6.59-6.4-14.36-6.4-22.67,0-23.91,19.39-43.3,43.32-43.3ZM625.21,512.29c-6.39,3.71-13.81,5.84-21.74,5.84-23.92,0-43.32-19.39-43.32-43.32s19.39-43.3,43.32-43.3c8.47,0,16.38,2.43,23.05,6.64,5.62,3.53,10.36,8.32,13.84,13.98,4.07,6.59,6.41,14.36,6.41,22.68,0,7.55-1.93,14.64-5.32,20.83-3.8,6.93-9.43,12.69-16.24,16.65ZM678.23,591.04c-23.92,0-43.32-19.39-43.32-43.32,0-7.54,1.93-14.63,5.31-20.8,3.8-6.92,9.43-12.69,16.24-16.65,6.39-3.71,13.82-5.85,21.76-5.85,7.42,0,14.41,1.87,20.52,5.16,7.64,4.12,13.9,10.47,17.91,18.18,3.12,5.98,4.88,12.76,4.88,19.97,0,23.92-19.38,43.32-43.3,43.32ZM772.76,512.94c-6.11,3.3-13.11,5.18-20.54,5.18s-14.41-1.87-20.52-5.16c-7.64-4.12-13.91-10.47-17.93-18.19-3.11-5.98-4.86-12.76-4.86-19.97,0-7.91,2.12-15.32,5.81-21.7,3.8-6.54,9.25-11.99,15.8-15.78,6.39-3.7,13.8-5.82,21.71-5.82,7.33,0,14.25,1.82,20.29,5.04,13.7,7.27,23.02,21.67,23.02,38.26s-9.2,30.81-22.76,38.13Z"/>
  </g>
  <g>
    <polygon class="cls-1" points="946.58 817.2 946.58 828.66 958.38 828.66 958.38 840.46 934.77 840.46 934.77 829 900.4 829 900.4 851.92 946.58 851.92 946.58 863.38 958.38 863.38 958.38 886.98 946.58 886.98 946.58 898.44 888.6 898.44 888.6 886.98 877.14 886.98 877.14 875.18 900.4 875.18 900.4 886.64 934.77 886.64 934.77 863.72 888.6 863.72 888.6 852.27 877.14 852.27 877.14 828.66 888.6 828.66 888.6 817.2 946.58 817.2"/>
    <g>
      <path class="cls-1" d="M666.56,817.2v11.46h11.8v58.33h-11.8v11.46h-57.98v-11.46h-11.46v-58.33h11.46v-11.46h57.98ZM654.75,829h-34.37v57.63h34.37v-57.63Z"/>
      <path class="cls-1" d="M481.5,840.46v-11.8h-11.45v-11.46h-35.07v11.46h-11.46v11.8h-11.8v57.98h23.61v-23.26h34.37v23.26h23.26v-57.98h-11.46ZM469.7,863.37h-34.37v-22.91h11.45v-11.46h11.46v11.46h11.46v22.91Z"/>
      <g>
        <polygon class="cls-1" points="249.93 817.2 249.93 886.64 284.65 886.64 284.65 817.2 307.91 817.2 307.91 886.98 296.45 886.98 296.45 898.44 238.13 898.44 238.13 886.98 226.67 886.98 226.67 817.2 249.93 817.2"/>
        <g>
          <polygon class="cls-1" points="157.58 817.2 157.58 828.66 169.04 828.66 169.04 840.46 180.49 840.46 180.49 828.66 191.95 828.66 191.95 817.2 215.21 817.2 215.21 898.44 191.95 898.44 191.95 852.27 180.49 852.27 180.49 875.18 168.69 875.18 168.69 852.27 157.58 852.27 157.58 898.44 133.97 898.44 133.97 817.2 157.58 817.2"/>
          <polygon class="cls-1" points="122.86 817.2 122.86 829 64.88 829 64.88 851.92 111.06 851.92 111.06 863.72 64.88 863.72 64.88 886.64 122.86 886.64 122.86 898.44 41.62 898.44 41.62 817.2 122.86 817.2"/>
        </g>
      </g>
      <polygon class="cls-1" points="863.41 817.2 863.41 886.98 851.95 886.98 851.95 898.44 793.63 898.44 793.63 886.98 782.17 886.98 782.17 875.18 805.43 875.18 805.43 886.64 840.15 886.64 840.15 817.2 863.41 817.2"/>
      <polygon class="cls-1" points="354.09 817.2 354.09 886.64 400.61 886.64 400.61 898.44 330.83 898.44 330.83 817.2 354.09 817.2"/>
      <polygon class="cls-1" points="585.66 817.2 585.66 829 562.4 829 562.4 898.44 539.14 898.44 539.14 829 515.88 829 515.88 817.2 585.66 817.2"/>
      <path class="cls-1" d="M770.71,863.72v-35.06h-11.46v-11.46h-69.78v81.24h23.61v-23.26h11.11v11.8h11.8v11.46h34.72v-11.8h-11.46v-11.46h-11.45v-11.46h22.91ZM747.45,851.92h-11.46v11.45h-22.91v-34.37h34.37v22.92Z"/>
    </g>
  </g>
</svg>