<?xml version="1.0" encoding="UTF-8"?>
<svg id="Layer_1" data-name="Layer 1" xmlns="http://www.w3.org/2000/svg" viewBox="0 0 1000 1000">
  <defs>
    <style>
      .cls-1 {
        fill: #fff;
      }
    </style>
  </defs>
  <polygon class="cls-1" points="966 457.61 966 469.57 978.31 469.57 978.31 481.89 953.68 481.89 953.68 469.93 917.81 469.93 917.81 493.84 966 493.84 966 505.8 978.31 505.8 978.31 530.43 966 530.43 966 542.39 905.49 542.39 905.49 530.43 893.54 530.43 893.54 518.11 917.81 518.11 917.81 530.07 953.68 530.07 953.68 506.16 905.49 506.16 905.49 494.2 893.54 494.2 893.54 469.57 905.49 469.57 905.49 457.61 966 457.61"/>
  <g>
    <path class="cls-1" d="M673.8,457.61v11.96h12.32v60.86h-12.32v11.96h-60.5v-11.96h-11.96v-60.86h11.96v-11.96h60.5ZM661.48,469.93h-35.87v60.14h35.87v-60.14Z"/>
    <path class="cls-1" d="M480.7,481.89v-12.31h-11.95v-11.96h-36.59v11.96h-11.96v12.31h-12.31v60.5h24.64v-24.27h35.86v24.27h24.27v-60.5h-11.96ZM468.38,505.79h-35.86v-23.91h11.95v-11.96h11.96v11.96h11.96v23.91Z"/>
    <g>
      <polygon class="cls-1" points="239.06 457.61 239.06 530.07 275.29 530.07 275.29 457.61 299.56 457.61 299.56 530.43 287.6 530.43 287.6 542.39 226.74 542.39 226.74 530.43 214.78 530.43 214.78 457.61 239.06 457.61"/>
      <g>
        <polygon class="cls-1" points="142.69 457.61 142.69 469.57 154.64 469.57 154.64 481.89 166.6 481.89 166.6 469.57 178.56 469.57 178.56 457.61 202.83 457.61 202.83 542.39 178.56 542.39 178.56 494.2 166.6 494.2 166.6 518.11 154.28 518.11 154.28 494.2 142.69 494.2 142.69 542.39 118.05 542.39 118.05 457.61 142.69 457.61"/>
        <polygon class="cls-1" points="106.46 457.61 106.46 469.93 45.96 469.93 45.96 493.84 94.14 493.84 94.14 506.16 45.96 506.16 45.96 530.07 106.46 530.07 106.46 542.39 21.69 542.39 21.69 457.61 106.46 457.61"/>
      </g>
    </g>
    <polygon class="cls-1" points="879.21 457.61 879.21 530.43 867.26 530.43 867.26 542.39 806.39 542.39 806.39 530.43 794.44 530.43 794.44 518.11 818.71 518.11 818.71 530.07 854.94 530.07 854.94 457.61 879.21 457.61"/>
    <polygon class="cls-1" points="347.74 457.61 347.74 530.07 396.29 530.07 396.29 542.39 323.47 542.39 323.47 457.61 347.74 457.61"/>
    <polygon class="cls-1" points="589.39 457.61 589.39 469.93 565.11 469.93 565.11 542.39 540.84 542.39 540.84 469.93 516.57 469.93 516.57 457.61 589.39 457.61"/>
    <path class="cls-1" d="M782.48,506.16v-36.58h-11.96v-11.96h-72.81v84.77h24.64v-24.27h11.59v12.31h12.31v11.96h36.23v-12.31h-11.96v-11.96h-11.95v-11.96h23.91ZM758.21,493.84h-11.96v11.95h-23.91v-35.86h35.86v23.92Z"/>
  </g>
</svg>