<svg xmlns="http://www.w3.org/2000/svg" data-name="Layer 1" viewBox="0 0 1000 1000"><path d="M966 457.61v11.96h12.31v12.32h-24.63v-11.96h-35.87v23.91H966v11.96h12.31v24.63H966v11.96h-60.51v-11.96h-11.95v-12.32h24.27v11.96h35.87v-23.91h-48.19V494.2h-11.95v-24.63h11.95v-11.96zm-292.2 0v11.96h12.32v60.86H673.8v11.96h-60.5v-11.96h-11.96v-60.86h11.96v-11.96zm-12.32 12.32h-35.87v60.14h35.87zM480.7 481.89v-12.31h-11.95v-11.96h-36.59v11.96H420.2v12.31h-12.31v60.5h24.64v-24.27h35.86v24.27h24.27v-60.5zm-12.32 23.9h-35.86v-23.91h11.95v-11.96h11.96v11.96h11.96v23.91Zm-229.32-48.18v72.46h36.23v-72.46h24.27v72.82H287.6v11.96h-60.86v-11.96h-11.96v-72.82zm-96.37 0v11.96h11.95v12.32h11.96v-12.32h11.96v-11.96h24.27v84.78h-24.27V494.2H166.6v23.91h-12.32V494.2h-11.59v48.19h-24.64v-84.78zm-36.23 0v12.32h-60.5v23.91h48.18v12.32H45.96v23.91h60.5v12.32H21.69v-84.78zm772.75 0v72.82h-11.95v11.96h-60.87v-11.96h-11.95v-12.32h24.27v11.96h36.23v-72.46zm-531.47 0v72.46h48.55v12.32h-72.82v-84.78zm241.65 0v12.32h-24.28v72.46h-24.27v-72.46h-24.27v-12.32zm193.09 48.55v-36.58h-11.96v-11.96h-72.81v84.77h24.64v-24.27h11.59v12.31h12.31v11.96h36.23v-12.31h-11.96v-11.96h-11.95v-11.96zm-24.27-12.32h-11.96v11.95h-23.91v-35.86h35.86v23.92Z" style="fill:#fff"/></svg>