<?xml version="1.0" encoding="UTF-8"?>
<svg id="Layer_1" data-name="Layer 1" xmlns="http://www.w3.org/2000/svg" viewBox="0 0 1000 1000">
  <defs>
    <style>
      .cls-1 {
        fill: #0b3351;
      }

      .cls-2 {
        fill: #28b9ec;
      }
    </style>
  </defs>
  <g>
    <path class="cls-2" d="M826.4,530.6c-9.61,0-18.65-2.42-26.55-6.68-9.89-5.33-18.01-13.55-23.21-23.54-4.03-7.74-6.29-16.52-6.29-25.84,0-10.24,2.75-19.83,7.52-28.08,4.92-8.46,11.98-15.52,20.44-20.42,8.27-4.79,17.86-7.54,28.09-7.54,9.49,0,18.44,2.35,26.26,6.53-1.44-10.29-3.31-20.42-5.62-30.41-13.75-60.02-42.44-114.32-81.95-158.81-8.25-9.28-16.96-18.12-26.09-26.5-64.34-59.02-150.11-95.03-244.29-95.03s-179.95,36.01-244.27,95.03c-9.14,8.38-17.84,17.23-26.09,26.5-39.81,44.84-68.65,99.64-82.26,160.22-5.78,25.64-8.83,52.31-8.83,79.69s2.77,51.48,8,75.98c13.22,61.82,42.26,117.78,82.66,163.43,8.2,9.28,16.88,18.12,25.99,26.5,64.37,59.32,150.36,95.53,244.8,95.53s180.43-36.21,244.82-95.53c9.11-8.38,17.77-17.23,25.99-26.5,39.82-45.01,68.61-100.02,82.08-160.8,2.22-9.99,4.03-20.14,5.38-30.45-7.9,4.27-16.96,6.71-26.59,6.71ZM780.38,543.06c4.04,7.74,6.31,16.52,6.31,25.84,0,30.96-25.08,56.06-56.04,56.06s-56.06-25.1-56.06-56.06c0-9.76,2.5-18.93,6.87-26.92,4.92-8.96,12.21-16.42,21.02-21.55,8.27-4.8,17.89-7.57,28.16-7.57,9.61,0,18.65,2.42,26.55,6.68,9.89,5.33,17.99,13.55,23.17,23.52ZM681.65,445.19c5.27,8.53,8.3,18.59,8.3,29.35,0,9.77-2.5,18.95-6.89,26.95-4.92,8.96-12.21,16.42-21.02,21.55-8.27,4.8-17.87,7.55-28.13,7.55-30.96,0-56.06-25.1-56.06-56.06s25.1-56.04,56.06-56.04c10.97,0,21.2,3.15,29.83,8.6,7.27,4.57,13.4,10.77,17.91,18.09ZM779.14,406.91c-4.9,8.46-11.96,15.52-20.42,20.42-8.25,4.79-17.82,7.52-28.06,7.52-10.97,0-21.2-3.15-29.83-8.58-7.27-4.59-13.42-10.8-17.94-18.14-5.25-8.53-8.28-18.59-8.28-29.34,0-30.94,25.1-56.04,56.06-56.04s56.04,25.1,56.04,56.04c0,10.24-2.75,19.84-7.55,28.11ZM148.7,525.2v-102.67h81.72v-81.7h102.67v81.7h81.72v102.67h-81.72v81.72h-102.67v-81.72h-81.72Z"/>
    <path class="cls-1" d="M878.68,410.7c-4.97-29.67-13.4-58.61-25.21-86.54-13.45-31.81-30.88-61.37-52.05-88.36-7.16-9.14-14.76-17.97-22.78-26.5-2.82-3-5.68-5.96-8.61-8.9-35.75-35.75-77.38-63.81-123.74-83.42-48.02-20.31-99.01-30.61-151.57-30.61s-103.53,10.3-151.55,30.61c-46.37,19.61-88.01,47.67-123.76,83.42-2.93,2.93-5.8,5.9-8.61,8.9-8.02,8.53-15.62,17.36-22.78,26.5-21.15,26.98-38.58,56.55-52.03,88.36-20.31,48.02-30.61,99.01-30.61,151.55s10.3,103.55,30.61,151.57c13.37,31.61,30.66,61.01,51.65,87.84,7.14,9.14,14.69,17.97,22.68,26.5,2.98,3.18,6.01,6.31,9.09,9.39,35.75,35.75,77.39,63.83,123.76,83.44,48.02,20.31,99.01,30.6,151.55,30.6s103.55-10.29,151.57-30.6c46.37-19.61,87.99-47.69,123.74-83.44,3.08-3.08,6.11-6.21,9.09-9.39,7.98-8.53,15.54-17.36,22.68-26.5,20.99-26.84,38.3-56.24,51.67-87.84,12.18-28.79,20.76-58.64,25.66-89.27,3.3-20.46,4.94-41.26,4.94-62.3s-1.79-43.68-5.38-65.02ZM852.99,523.89c-1.36,10.3-3.16,20.46-5.38,30.45-13.47,60.78-42.26,115.79-82.08,160.8-8.22,9.28-16.88,18.12-25.99,26.5-64.39,59.32-150.38,95.53-244.82,95.53s-180.43-36.21-244.8-95.53c-9.11-8.38-17.79-17.23-25.99-26.5-40.4-45.65-69.44-101.61-82.66-163.43-5.23-24.5-8-49.91-8-75.98,0-27.38,3.05-54.05,8.83-79.69,13.62-60.58,42.46-115.38,82.26-160.22,8.25-9.28,16.95-18.12,26.09-26.5,64.32-59.02,150.1-95.03,244.27-95.03s179.95,36.01,244.29,95.03c9.13,8.38,17.84,17.23,26.09,26.5,39.51,44.49,68.2,98.79,81.95,158.81,2.3,9.99,4.17,20.13,5.62,30.41,17.72,9.41,29.78,28.04,29.78,49.51s-11.91,39.87-29.45,49.35Z"/>
  </g>
  <g>
    <path class="cls-2" d="M900.08,235.81H99.92c-26.89,0-48.68,21.8-48.68,48.68v381.96c0,26.89,21.8,48.68,48.68,48.68h800.16c26.89,0,48.68-21.8,48.68-48.68v-381.96c0-26.89-21.8-48.68-48.68-48.68ZM852.99,523.89c-7.9,4.27-16.96,6.71-26.59,6.71s-18.65-2.42-26.55-6.68c-9.89-5.33-18.01-13.55-23.21-23.54-4.03-7.74-6.29-16.52-6.29-25.84,0-10.24,2.75-19.83,7.52-28.08,4.92-8.46,11.98-15.52,20.44-20.42,8.27-4.79,17.86-7.54,28.09-7.54,9.49,0,18.44,2.35,26.26,6.53,17.72,9.41,29.78,28.04,29.78,49.51s-11.91,39.87-29.45,49.35ZM633.91,530.6c-30.96,0-56.06-25.1-56.06-56.06s25.1-56.04,56.06-56.04c10.97,0,21.2,3.15,29.83,8.6,7.27,4.57,13.4,10.77,17.91,18.09,5.27,8.53,8.3,18.59,8.3,29.35,0,9.77-2.5,18.95-6.89,26.95-4.92,8.96-12.21,16.42-21.02,21.55-8.27,4.8-17.87,7.55-28.13,7.55ZM786.69,378.8c0,10.24-2.75,19.84-7.55,28.11-4.9,8.46-11.96,15.52-20.42,20.42-8.25,4.79-17.82,7.52-28.06,7.52-10.97,0-21.2-3.15-29.83-8.58-7.27-4.59-13.42-10.8-17.94-18.14-5.25-8.53-8.28-18.59-8.28-29.34,0-30.94,25.1-56.04,56.06-56.04s56.04,25.1,56.04,56.04ZM674.6,568.9c0-9.76,2.5-18.93,6.87-26.92,4.92-8.96,12.21-16.42,21.02-21.55,8.27-4.8,17.89-7.57,28.16-7.57,9.61,0,18.65,2.42,26.55,6.68,9.89,5.33,17.99,13.55,23.17,23.52,4.04,7.74,6.31,16.52,6.31,25.84,0,30.96-25.08,56.06-56.04,56.06s-56.06-25.1-56.06-56.06ZM414.81,525.2h-81.72v81.72h-102.67v-81.72h-81.72v-102.67h81.72v-81.7h102.67v81.7h81.72v102.67Z"/>
    <path class="cls-1" d="M900.08,209.3H99.92c-41.46,0-75.19,33.73-75.19,75.19v381.96c0,41.46,33.73,75.19,75.19,75.19h800.16c41.46,0,75.19-33.73,75.19-75.19v-381.96c0-41.46-33.73-75.19-75.19-75.19ZM948.77,666.45c0,26.89-21.8,48.68-48.68,48.68H99.92c-26.89,0-48.68-21.8-48.68-48.68v-381.96c0-26.89,21.8-48.68,48.68-48.68h800.16c26.89,0,48.68,21.8,48.68,48.68v381.96Z"/>
  </g>
  <path class="cls-1" d="M359.59,396.03v-81.7h-155.68v81.7h-81.72v155.68h81.72v81.72h155.68v-81.72h81.72v-155.68h-81.72ZM414.81,525.2h-81.72v81.72h-102.67v-81.72h-81.72v-102.67h81.72v-81.7h102.67v81.7h81.72v102.67Z"/>
  <path class="cls-1" d="M878.68,410.7c-9.13-7.47-19.88-13.05-31.64-16.08-6.59-1.71-13.52-2.62-20.64-2.62-4.94,0-9.77.43-14.48,1.28.84-4.7,1.28-9.54,1.28-14.48,0-45.52-37.02-82.54-82.54-82.54s-82.56,37.02-82.56,82.54c0,5,.45,9.91,1.31,14.66-5.02-.96-10.19-1.46-15.49-1.46-45.52,0-82.56,37.02-82.56,82.54s37.04,82.56,82.56,82.56c5.2,0,10.3-.48,15.24-1.41-.7,4.31-1.06,8.71-1.06,13.2,0,45.52,37.04,82.56,82.56,82.56s82.54-37.04,82.54-82.56c0-4.44-.35-8.8-1.04-13.04,4.62.83,9.39,1.24,14.25,1.24,7.32,0,14.43-.96,21.2-2.77,11.74-3.11,22.45-8.76,31.52-16.32,18.21-15.16,29.82-37.98,29.82-63.48s-11.79-48.68-30.26-63.84ZM730.65,322.76c30.96,0,56.04,25.1,56.04,56.04,0,10.24-2.75,19.84-7.55,28.11-4.9,8.46-11.96,15.52-20.42,20.42-8.25,4.79-17.82,7.52-28.06,7.52-10.97,0-21.2-3.15-29.83-8.58-7.27-4.59-13.42-10.8-17.94-18.14-5.25-8.53-8.28-18.59-8.28-29.34,0-30.94,25.1-56.04,56.06-56.04ZM662.04,523.05c-8.27,4.8-17.87,7.55-28.13,7.55-30.96,0-56.06-25.1-56.06-56.06s25.1-56.04,56.06-56.04c10.97,0,21.2,3.15,29.83,8.6,7.27,4.57,13.4,10.77,17.91,18.09,5.27,8.53,8.3,18.59,8.3,29.35,0,9.77-2.5,18.95-6.89,26.95-4.92,8.96-12.21,16.42-21.02,21.55ZM730.65,624.96c-30.96,0-56.06-25.1-56.06-56.06,0-9.76,2.5-18.93,6.87-26.92,4.92-8.96,12.21-16.42,21.02-21.55,8.27-4.8,17.89-7.57,28.16-7.57,9.61,0,18.65,2.42,26.55,6.68,9.89,5.33,17.99,13.55,23.17,23.52,4.04,7.74,6.31,16.52,6.31,25.84,0,30.96-25.08,56.06-56.04,56.06ZM852.99,523.89c-7.9,4.27-16.96,6.71-26.59,6.71s-18.65-2.42-26.55-6.68c-9.89-5.33-18.01-13.55-23.21-23.54-4.03-7.74-6.29-16.52-6.29-25.84,0-10.24,2.75-19.83,7.52-28.08,4.92-8.46,11.98-15.52,20.44-20.42,8.27-4.79,17.86-7.54,28.09-7.54,9.49,0,18.44,2.35,26.26,6.53,17.72,9.41,29.78,28.04,29.78,49.51s-11.91,39.87-29.45,49.35Z"/>
</svg>