<svg xmlns="http://www.w3.org/2000/svg" id="Layer_1" data-name="Layer 1" viewBox="0 0 2000 2000"><defs><style>.cls-2{fill:#e1a38e}.cls-6{fill:#e5c7a7}</style></defs><path d="M1597.27 197.75 1508 287.03c-3.04-5.52-5.98-10.79-8.72-15.56-2.72-4.77-5.24-9.04-7.39-12.57-3.13-5.12-9.74-13.08-15.95-18.95-14.17-13.39-58.39-37.02-101.14-57.15a1815 1815 0 0 0-10.4-4.85c-1.15-.53-2.3-1.06-3.44-1.58-.05-.02-.11-.05-.17-.07a5 5 0 0 0-.4-.18c-.38-.17-.86-.39-1.45-.63-.48-.22-1.03-.45-1.64-.71-.04-.01-.08-.03-.13-.05-.4-.17-.83-.35-1.28-.54-.01 0-.01-.01-.01-.01q-.675-.285-1.44-.6c-.01 0-.01-.01-.01-.01-.51-.21-1.04-.44-1.6-.67-.57-.23-1.15-.48-1.77-.73-.08-.03-.16-.06-.25-.1-.76-.32-1.57-.65-2.41-1h-.01q-.825-.33-1.68-.69c-1.14-.47-2.36-.97-3.63-1.48-.64-.26-1.28-.52-1.95-.79-.11-.03-.21-.07-.31-.12-1.04-.42-2.12-.86-3.23-1.3q-1.68-.675-3.45-1.38c-.78-.32-1.59-.64-2.4-.96-.41-.16-.83-.32-1.24-.49-6.24-2.48-13.3-5.23-21.06-8.2-1.04-.4-2.08-.8-3.14-1.2-.53-.2-1.07-.4-1.6-.61-1.07-.41-2.16-.82-3.25-1.23-1.65-.63-3.31-1.25-5.01-1.89-3.39-1.27-6.88-2.57-10.46-3.9l-1.8-.66c-1.22-.45-2.45-.9-3.69-1.36-.93-.34-1.87-.68-2.81-1.03-1.88-.69-3.79-1.38-5.72-2.08-.97-.34-1.94-.7-2.92-1.05-1.04-.37-2.09-.75-3.14-1.13-.92-.33-1.84-.67-2.77-.99-.93-.33-1.86-.67-2.8-1-1.34-.48-2.69-.96-4.06-1.44-2.18-.76-4.37-1.53-6.59-2.31-4.43-1.55-8.95-3.11-13.53-4.68-2.3-.78-4.61-1.57-6.94-2.35-1.16-.39-2.33-.79-3.5-1.18-1.18-.39-2.35-.79-3.54-1.18-1.18-.39-2.36-.79-3.55-1.18-1.62-.53-3.25-1.07-4.88-1.61-8.16-2.68-16.49-5.35-24.94-7.98h-.01c-1.27-.4-2.53-.79-3.8-1.18-1.27-.4-2.55-.79-3.83-1.18-2.55-.79-5.12-1.57-7.69-2.34h-.01c-1.28-.39-2.57-.78-3.86-1.16s-2.58-.76-3.88-1.15c-2.58-.77-5.18-1.53-7.78-2.28h-.01c-3.46-1.01-6.94-2-10.42-2.98h-.01c-5.23-1.48-10.47-2.92-15.72-4.33-4.88-1.31-9.56-2.55-14.05-3.71l-4.43-1.15c-.77-.2-1.53-.39-2.28-.59-2.3-.59-4.56-1.17-6.77-1.72-.74-.18-1.47-.37-2.2-.55l-1.8-.45c-.87-.21-1.73-.43-2.58-.64q-2.565-.63-5.04-1.23c-1.65-.4-3.28-.79-4.88-1.17-1.2-.29-2.39-.57-3.56-.84s-2.33-.55-3.48-.81c-1.14-.27-2.28-.53-3.4-.78-1.12-.26-2.23-.5-3.33-.75q-1.665-.375-3.27-.72c-1.08-.24-2.15-.48-3.2-.7h-.01c-1.06-.23-2.1-.45-3.14-.68-1.03-.22-2.06-.43-3.08-.65a882 882 0 0 0-24.1-4.65c-.92-.17-1.84-.33-2.76-.49-3.06-.53-6.1-1.05-9.13-1.55l-3.65-.6c-1.22-.19-2.43-.39-3.65-.59l-5.52-.87c-1.55-.24-3.1-.48-4.66-.72-2.19-.34-4.4-.68-6.64-1.02-2.56-.39-5.17-.79-7.83-1.19a1972 1972 0 0 1-25.5-4.02c-8.31-1.37-15.12-2.55-18.31-3.21-28.58-5.86-65.11-.34-93.45 12.51-28.95 13.13-101.76 94.36-172.24 172.42-1.01 1.12-2.02 2.24-3.03 3.35-3.03 3.36-6.05 6.7-9.06 10.03l-6.01 6.64c-1.5 1.66-3 3.3-4.49 4.95s-2.99 3.29-4.47 4.92c-4.96 5.45-9.87 10.84-14.72 16.13-.96 1.06-1.93 2.11-2.9 3.16-3.16 3.45-6.31 6.87-9.42 10.23-1.6 1.73-3.19 3.45-4.77 5.15l-2.89 3.1c-1.38 1.49-2.76 2.97-4.14 4.43-1.36 1.47-2.73 2.93-4.09 4.37-.92.98-1.84 1.96-2.76 2.93-2.7 2.86-5.38 5.68-8.01 8.43-.87.92-1.75 1.83-2.62 2.73-1.68 1.75-3.35 3.48-4.99 5.18-.05.05-.1.11-.16.16-.85.88-1.69 1.75-2.54 2.61-1.26 1.29-2.51 2.57-3.75 3.83-.41.42-.82.84-1.23 1.25-.4.42-.81.83-1.23 1.24q-1.83 1.86-3.63 3.66c-1.4 1.4-2.78 2.77-4.15 4.12-.97.96-1.94 1.91-2.9 2.85-.77.75-1.53 1.49-2.28 2.21-.76.73-1.51 1.46-2.25 2.17-.74.72-1.48 1.42-2.21 2.11-.37.35-.73.7-1.09 1.03-.72.69-1.44 1.36-2.15 2.02-.71.67-1.42 1.32-2.12 1.97-.35.33-.7.65-1.04.96-.34.32-.69.63-1.03.94-.69.63-1.37 1.24-2.04 1.85q-.585.54-1.17 1.05c-.61.55-1.21 1.08-1.81 1.6l-.97.85c-.64.56-1.28 1.11-1.91 1.65s-1.25 1.07-1.87 1.59c-.53.44-1.05.87-1.56 1.3-.02.02-.04.03-.06.05-.15.12-.3.24-.44.36-.52.44-1.04.85-1.54 1.26-.07.06-.15.12-.22.18-.51.41-1.02.81-1.52 1.2-.57.44-1.13.88-1.69 1.31-.55.42-1.1.83-1.64 1.23-.53.4-1.04.78-1.55 1.14-1.87 1.34-3.63 2.53-5.28 3.53-.05.03-.1.06-.15.1-.39.24-.77.47-1.15.68-.67.39-1.32.75-1.95 1.07-.21.11-.42.22-.63.32l-.3.15q-.465.225-.9.42c-15.52 6.95-24.09 9.97-66.56 11.15-8.2.23-17.66.39-28.67.49-16.13.16-35.59.2-59.31.17-2.31 0-4.65 0-7.04-.01-7.16-.01-14.69-.03-22.61-.05l-112.21-.29-41.67-.11c165-224.88 421.76-378.24 715.12-404.9h183.38c188.48 17.13 361.85 86.56 505.48 193.65" style="fill:#ede4f1"/><path d="M2000.09 989.22v21.56c-1.67 158.62-40.27 308.38-107.61 441.1-3.04-18.75-6.49-39.7-7.96-47.82-12.96-73-34.53-143.68-55.58-214.46-13.99-53.78-28.38-104.29-40.06-143.1-18.7-62.46-37.51-124.73-59.4-186.14-1.69-3.28-30.04-82.76-43.16-120.99-15.39-44.44-32.41-88.02-47.96-132.62-32.73-87.2-64.69-174.62-100.54-260.6-1.94-6.69-16.46-34.87-29.82-59.12l89.27-89.28c241.85 180.32 399.4 467.42 402.82 791.47m-699.93 965.03c-94.72 29.76-195.51 45.8-300.06 45.8-327.04 0-617.41-156.98-799.87-399.7l270.67-.24c243.84-.22 342.85 1.36 376.05 6.19 20.33 2.95 55.66 12.92 73.34 20.69 16.69 7.34 21.39 9.63 26.04 12.32 2.71 1.56 29.66 17.25 44.85 29.14 7.59 5.94 22.69 17.76 33.57 26.26 106.73 83.41 213.94 195.63 275.41 259.54" style="fill:#bda5cf"/><path d="M1884.52 1404.06c-12.96-73-34.53-143.68-55.58-214.46-13.99-53.78-28.38-104.29-40.06-143.1-18.7-62.46-37.51-124.73-59.4-186.14-1.69-3.28-30.04-82.76-43.16-120.99-15.39-44.44-32.41-88.02-47.96-132.62-32.73-87.2-64.69-174.62-100.54-260.6-1.94-6.69-16.46-34.87-29.82-59.12L197.85 1597.18c.79 1.06 1.58 2.12 2.38 3.17l270.67-.24c243.84-.22 342.85 1.36 376.05 6.19 20.33 2.95 55.66 12.92 73.34 20.69 16.69 7.34 21.39 9.63 26.04 12.32 2.71 1.56 29.66 17.25 44.85 29.14 7.59 5.94 22.69 17.76 33.57 26.26 106.73 83.41 213.94 195.63 275.41 259.54 258.37-81.16 471.56-264.36 592.32-502.37-3.04-18.75-6.49-39.7-7.96-47.82m-811.85-325.87c-68.03 0-123.18-55.15-123.18-123.19s55.15-123.18 123.18-123.18 123.19 55.15 123.19 123.18-55.15 123.19-123.19 123.19m235.05-237.14c-68.04 0-123.19-55.15-123.19-123.18s55.15-123.19 123.19-123.19 123.18 55.15 123.18 123.19-55.15 123.18-123.18 123.18" style="fill:#38286a"/><path d="M1499.28 271.47c-2.72-4.77-5.24-9.04-7.39-12.57-3.13-5.12-9.74-13.08-15.95-18.95-14.17-13.39-58.39-37.02-101.14-57.15a1815 1815 0 0 0-10.4-4.85c-1.15-.53-2.3-1.05-3.44-1.57-.05-.02-.11-.05-.17-.08-.12-.05-.25-.11-.4-.18-.39-.16-.87-.37-1.45-.63-.48-.21-1.02-.44-1.64-.71-.04-.01-.08-.03-.13-.05-.4-.17-.83-.35-1.28-.54-.01 0-.01-.01-.01-.01q-.69-.285-1.44-.6c-.01 0-.01-.01-.01-.01-.51-.21-1.04-.43-1.6-.67-.57-.23-1.15-.48-1.77-.73-.08-.03-.16-.06-.25-.1-.76-.31-1.57-.64-2.41-1h-.01q-.825-.33-1.68-.69c-1.15-.47-2.36-.96-3.63-1.48-.64-.26-1.28-.52-1.95-.79-.11-.03-.21-.07-.31-.12-1.04-.42-2.12-.86-3.23-1.3q-1.68-.675-3.45-1.38c-.78-.31-1.59-.63-2.4-.96-.41-.16-.83-.32-1.24-.49-6.25-2.47-13.3-5.22-21.06-8.2-1.04-.39-2.09-.79-3.14-1.2-.53-.2-1.07-.4-1.6-.61-1.07-.4-2.16-.82-3.25-1.23-1.65-.62-3.31-1.25-5.01-1.89-3.39-1.27-6.88-2.57-10.46-3.9l-1.8-.66c-1.22-.45-2.45-.9-3.69-1.36-.93-.34-1.87-.68-2.81-1.03-1.89-.68-3.79-1.37-5.72-2.08-.97-.34-1.94-.7-2.92-1.05-1.04-.37-2.09-.75-3.14-1.13-.92-.33-1.84-.66-2.77-.99s-1.86-.67-2.8-1c-1.34-.47-2.7-.95-4.06-1.44-2.18-.76-4.37-1.53-6.59-2.31-4.43-1.55-8.95-3.11-13.53-4.68-2.3-.78-4.61-1.56-6.94-2.35-1.16-.39-2.33-.79-3.5-1.18-1.18-.39-2.35-.79-3.54-1.18-1.18-.39-2.36-.79-3.55-1.18-1.62-.53-3.25-1.07-4.88-1.61-8.16-2.67-16.49-5.34-24.94-7.98h-.01c-1.27-.4-2.53-.79-3.8-1.18-1.27-.4-2.55-.79-3.83-1.18-2.56-.78-5.12-1.56-7.69-2.34h-.01c-1.28-.39-2.57-.78-3.86-1.16s-2.58-.76-3.88-1.15c-2.58-.77-5.18-1.53-7.78-2.28h-.01c-3.46-1-6.94-1.99-10.42-2.98h-.01c-5.23-1.47-10.48-2.91-15.73-4.32-4.87-1.31-9.55-2.54-14.04-3.72l-4.43-1.15c-.77-.2-1.53-.39-2.28-.59-2.31-.59-4.56-1.16-6.77-1.72-.74-.18-1.47-.37-2.2-.55l-1.8-.45c-.87-.21-1.73-.43-2.58-.64q-2.565-.63-5.04-1.23c-1.65-.4-3.28-.79-4.88-1.17-1.2-.29-2.39-.57-3.56-.84s-2.33-.55-3.48-.81-2.28-.52-3.4-.78-2.23-.5-3.33-.75-2.19-.49-3.27-.72c-1.08-.24-2.14-.47-3.2-.7h-.01c-1.06-.23-2.1-.45-3.14-.68-1.03-.22-2.06-.43-3.08-.65a882 882 0 0 0-24.1-4.65c-.92-.17-1.84-.33-2.76-.49-3.06-.53-6.1-1.05-9.13-1.55l-3.65-.6c-1.22-.19-2.43-.39-3.65-.59l-5.52-.87c-1.55-.24-3.1-.48-4.66-.72-2.19-.33-4.4-.67-6.64-1.02-2.57-.38-5.18-.78-7.84-1.18-4.33-.65-8.76-1.34-13.08-2.03-4.32-.68-8.53-1.36-12.41-2-8.31-1.37-15.12-2.55-18.31-3.21-28.58-5.86-65.11-.34-93.45 12.51-28.95 13.13-101.76 94.36-172.24 172.42-1.01 1.12-2.02 2.24-3.03 3.35-3.03 3.36-6.05 6.7-9.06 10.03l-6.01 6.64c-1.5 1.66-3 3.3-4.49 4.95s-2.99 3.29-4.47 4.92c-4.96 5.45-9.87 10.84-14.72 16.13-.96 1.06-1.93 2.11-2.9 3.16-3.16 3.45-6.31 6.87-9.42 10.23-1.6 1.73-3.19 3.45-4.77 5.15l-2.89 3.1a897 897 0 0 1-4.14 4.43c-1.36 1.47-2.73 2.93-4.09 4.37-.92.98-1.84 1.96-2.76 2.93-2.7 2.86-5.38 5.68-8.01 8.43-.87.92-1.75 1.83-2.62 2.73-1.67 1.75-3.34 3.48-4.99 5.18-.05.05-.1.11-.16.16-.85.88-1.69 1.75-2.54 2.61-1.25 1.3-2.5 2.57-3.75 3.83-.41.42-.82.84-1.23 1.25-.4.42-.81.83-1.23 1.24q-1.83 1.86-3.63 3.66c-1.4 1.4-2.78 2.77-4.15 4.12-.97.97-1.94 1.92-2.9 2.85-.77.75-1.53 1.49-2.28 2.21-.76.74-1.51 1.46-2.25 2.17-.74.72-1.48 1.42-2.21 2.11-.37.35-.73.7-1.09 1.03-.72.7-1.44 1.37-2.15 2.02-.71.68-1.42 1.33-2.12 1.97-.35.33-.7.65-1.04.96-.34.32-.69.63-1.03.94-.69.63-1.37 1.25-2.04 1.85q-.585.54-1.17 1.05c-.61.55-1.21 1.08-1.81 1.6l-.97.85c-.64.57-1.28 1.12-1.91 1.65-.63.55-1.26 1.08-1.87 1.59-.53.45-1.05.89-1.56 1.3-.02.02-.04.03-.06.05-.15.12-.3.24-.44.36-.52.44-1.04.85-1.54 1.26-.07.06-.15.12-.22.18-.51.41-1.02.81-1.52 1.2-.57.45-1.13.89-1.69 1.31-.55.43-1.1.83-1.64 1.23-.53.4-1.04.78-1.55 1.14-1.87 1.34-3.63 2.53-5.28 3.53-.05.03-.1.06-.15.1-.39.24-.77.47-1.15.68-.67.39-1.32.75-1.95 1.07-.21.11-.42.22-.63.32l-.3.15q-.465.225-.9.42c-15.52 6.95-24.09 9.97-66.56 11.15-8.2.23-17.66.39-28.67.49-16.13.16-35.59.2-59.31.17-2.31 0-4.65 0-7.04-.01-7.16 0-14.69-.02-22.61-.04l-112.21-.3-41.67-.11C73.97 571.6 2.63 771.6.12 988.14v23.8c2.56 219.26 75.69 421.56 197.73 585.24L1508 287.03c-3.04-5.52-5.98-10.79-8.72-15.56M842.65 845.33c-68.04 0-123.19-55.15-123.19-123.18s55.15-123.18 123.19-123.18 123.18 55.15 123.18 123.18-55.15 123.18-123.18 123.18m230.38-228.68c-68.03 0-123.18-55.15-123.18-123.18s55.15-123.18 123.18-123.18 123.18 55.15 123.18 123.18-55.15 123.18-123.18 123.18" style="fill:#553f99"/><circle cx="1073.03" cy="493.47" r="123.18" class="cls-6"/><circle cx="842.65" cy="722.15" r="123.18" class="cls-6"/><circle cx="1307.72" cy="717.86" r="123.18" class="cls-2" transform="rotate(-45 1307.71 717.868)"/><circle cx="1072.67" cy="955" r="123.18" class="cls-2"/></svg>