<svg xmlns="http://www.w3.org/2000/svg" xmlns:xlink="http://www.w3.org/1999/xlink" width="500" zoomAndPan="magnify" viewBox="0 0 375 374.999991" height="500" preserveAspectRatio="xMidYMid meet" version="1.0"><defs><g/></defs><g fill="#a453ff" fill-opacity="1"><g transform="translate(3.792817, 220.45768)"><g><path d="M 5.035156 0 L 30.210938 0 C 31.621094 0 32.730469 -1.207031 32.730469 -2.617188 L 32.730469 -26.183594 C 32.730469 -27.59375 33.835938 -28.699219 35.246094 -28.699219 L 50.351562 -28.699219 C 51.761719 -28.699219 52.871094 -27.59375 52.871094 -26.183594 L 52.871094 -2.519531 C 52.871094 -1.109375 53.976562 0 55.386719 0 L 80.5625 0 C 81.972656 0 83.082031 -1.207031 83.082031 -2.617188 L 83.082031 -27.492188 C 83.082031 -33.433594 78.75 -37.765625 72.808594 -37.765625 L 71.902344 -37.765625 C 70.492188 -37.765625 69.386719 -38.871094 69.386719 -40.28125 C 69.386719 -41.691406 70.492188 -42.800781 71.902344 -42.800781 L 72.808594 -42.800781 C 78.75 -42.800781 83.082031 -47.128906 83.082031 -53.070312 L 83.082031 -64.148438 C 83.082031 -73.613281 76.132812 -80.5625 66.667969 -80.5625 L 5.035156 -80.5625 C 3.625 -80.5625 2.519531 -79.457031 2.519531 -78.046875 L 2.519531 -2.519531 C 2.519531 -1.109375 3.625 0 5.035156 0 Z M 35.246094 -51.863281 C 33.835938 -51.863281 32.730469 -52.96875 32.730469 -54.378906 C 32.730469 -55.789062 33.835938 -56.898438 35.246094 -56.898438 L 50.351562 -56.898438 C 51.761719 -56.898438 52.871094 -55.789062 52.871094 -54.378906 C 52.871094 -52.96875 51.761719 -51.863281 50.351562 -51.863281 Z M 35.246094 -51.863281 "/></g></g></g><g fill="#a453ff" fill-opacity="1"><g transform="translate(89.356846, 220.45768)"><g><path d="M 23.0625 0 L 47.433594 0 C 59.316406 0 67.976562 -8.660156 67.976562 -20.542969 L 67.976562 -60.019531 C 67.976562 -71.902344 59.316406 -80.5625 47.433594 -80.5625 L 23.0625 -80.5625 C 11.179688 -80.5625 2.519531 -71.902344 2.519531 -60.019531 L 2.519531 -20.542969 C 2.519531 -8.660156 11.179688 0 23.0625 0 Z M 35.246094 -23.160156 C 33.835938 -23.160156 32.730469 -24.269531 32.730469 -25.679688 L 32.730469 -54.882812 C 32.730469 -56.292969 33.835938 -57.402344 35.246094 -57.402344 C 36.65625 -57.402344 37.765625 -56.292969 37.765625 -54.882812 L 37.765625 -25.679688 C 37.765625 -24.269531 36.65625 -23.160156 35.246094 -23.160156 Z M 35.246094 -23.160156 "/></g></g></g><g fill="#a453ff" fill-opacity="1"><g transform="translate(159.821301, 220.45768)"><g><path d="M 5.136719 0 L 30.210938 0 C 31.621094 0 32.730469 -1.109375 32.730469 -2.519531 L 32.730469 -47.332031 C 32.730469 -48.742188 33.835938 -49.847656 35.246094 -49.847656 C 36.65625 -49.847656 37.765625 -48.742188 37.765625 -47.332031 L 37.765625 -2.316406 C 37.765625 -1.007812 38.972656 0 40.28125 0 L 65.457031 0 C 66.765625 0 67.976562 -1.007812 67.976562 -2.316406 L 67.976562 -47.332031 C 67.976562 -48.742188 69.082031 -49.847656 70.492188 -49.847656 C 71.902344 -49.847656 73.011719 -48.742188 73.011719 -47.332031 L 73.011719 -2.519531 C 73.011719 -1.109375 74.21875 0 75.628906 0 L 100.703125 0 C 102.113281 0 103.222656 -1.109375 103.222656 -2.519531 L 103.222656 -78.046875 C 103.222656 -79.457031 102.011719 -80.5625 100.605469 -80.5625 L 57.90625 -80.5625 C 56.496094 -80.5625 55.386719 -79.355469 55.386719 -77.945312 L 55.386719 -63.945312 C 55.386719 -62.539062 54.28125 -61.429688 52.871094 -61.429688 C 51.460938 -61.429688 50.351562 -62.539062 50.351562 -63.945312 L 50.351562 -78.046875 C 50.351562 -79.457031 49.144531 -80.5625 47.734375 -80.5625 L 5.035156 -80.5625 C 3.625 -80.5625 2.519531 -79.457031 2.519531 -78.046875 L 2.519531 -2.519531 C 2.519531 -1.109375 3.726562 0 5.136719 0 Z M 5.136719 0 "/></g></g></g><g fill="#a453ff" fill-opacity="1"><g transform="translate(265.51803, 220.45768)"><g><path d="M 5.136719 0 L 30.210938 0 C 31.621094 0 32.730469 -1.109375 32.730469 -2.519531 L 32.730469 -47.332031 C 32.730469 -48.742188 33.835938 -49.847656 35.246094 -49.847656 C 36.65625 -49.847656 37.765625 -48.742188 37.765625 -47.332031 L 37.765625 -2.316406 C 37.765625 -1.007812 38.972656 0 40.28125 0 L 65.457031 0 C 66.765625 0 67.976562 -1.007812 67.976562 -2.316406 L 67.976562 -47.332031 C 67.976562 -48.742188 69.082031 -49.847656 70.492188 -49.847656 C 71.902344 -49.847656 73.011719 -48.742188 73.011719 -47.332031 L 73.011719 -2.519531 C 73.011719 -1.109375 74.21875 0 75.628906 0 L 100.703125 0 C 102.113281 0 103.222656 -1.109375 103.222656 -2.519531 L 103.222656 -78.046875 C 103.222656 -79.457031 102.011719 -80.5625 100.605469 -80.5625 L 57.90625 -80.5625 C 56.496094 -80.5625 55.386719 -79.355469 55.386719 -77.945312 L 55.386719 -63.945312 C 55.386719 -62.539062 54.28125 -61.429688 52.871094 -61.429688 C 51.460938 -61.429688 50.351562 -62.539062 50.351562 -63.945312 L 50.351562 -78.046875 C 50.351562 -79.457031 49.144531 -80.5625 47.734375 -80.5625 L 5.035156 -80.5625 C 3.625 -80.5625 2.519531 -79.457031 2.519531 -78.046875 L 2.519531 -2.519531 C 2.519531 -1.109375 3.726562 0 5.136719 0 Z M 5.136719 0 "/></g></g></g></svg>