<svg xmlns="http://www.w3.org/2000/svg" width="481.98" height="108.14" data-name="Layer 1" viewBox="0 0 481.98 108.14"><path d="M0 108.14V.15h85.76q6.15 0 11.19 3c3.35 2 6.06 4.71 8.11 8.11s3.08 7.11 3.08 11.11v27.94c0 4.01-1.03 7.71-3.08 11.11s-4.76 6.11-8.11 8.11c-3.36 2-7.08 3-11.19 3l-62.48.15v35.45H0Zm84.56-59.03V23.43H23.28v25.68zm-.6 59.03-31.39-37.4h30.49l24.93 29.44v7.96zm52.87 0c-4.01 0-7.71-1-11.11-3-3.41-2-6.11-4.71-8.11-8.11s-3-7.11-3-11.12V22.23q0-6.15 3-11.19c2-3.35 4.71-6.03 8.11-8.04 3.4-2 7.11-3 11.11-3h63.68q6 0 11.04 3c3.35 2 6.06 4.68 8.11 8.04s3.08 7.08 3.08 11.19v63.68c0 4.01-1.03 7.71-3.08 11.12s-4.76 6.11-8.11 8.11q-5.04 3-11.04 3zm62.33-23.43V23.43h-61.28v61.28zm31.09 23.43V0h24.03l36.65 43.71L327.43 0h24.18v108.14h-23.43V35.6l-37.25 44.46-37.4-44.31v72.39zm130.37 0V0h24.03l36.65 43.71L457.8 0h24.18v108.14h-23.43V35.6L421.3 80.06l-37.4-44.31v72.39z" style="fill:#553e98"/></svg>