<?xml version="1.0" encoding="UTF-8"?>
<svg id="Layer_1" data-name="Layer 1" xmlns="http://www.w3.org/2000/svg" viewBox="0 0 500 117.57">
  <defs>
    <style>
      .cls-1 {
        fill: #553e98;
      }
    </style>
  </defs>
  <path class="cls-1" d="M8.41,113.35V5.36h85.76c4.1,0,7.83,1,11.19,3,3.35,2,6.06,4.71,8.11,8.11,2.05,3.4,3.08,7.11,3.08,11.11v27.94c0,4.01-1.03,7.71-3.08,11.11-2.05,3.4-4.76,6.11-8.11,8.11-3.36,2-7.08,3-11.19,3l-62.48.15v35.45H8.41ZM92.97,54.32v-25.68H31.69v25.68h61.28ZM92.37,113.35l-31.39-37.4h30.49l24.93,29.44v7.96h-24.03Z"/>
  <path class="cls-1" d="M145.24,113.35c-4.01,0-7.71-1-11.11-3-3.41-2-6.11-4.71-8.11-8.11-2-3.4-3-7.11-3-11.12V27.44c0-4.1,1-7.83,3-11.19,2-3.35,4.71-6.03,8.11-8.04,3.4-2,7.11-3,11.11-3h63.68c4,0,7.68,1,11.04,3,3.35,2,6.06,4.68,8.11,8.04,2.05,3.36,3.08,7.08,3.08,11.19v63.68c0,4.01-1.03,7.71-3.08,11.12-2.05,3.41-4.76,6.11-8.11,8.11-3.36,2-7.04,3-11.04,3h-63.68ZM207.57,89.92V28.64h-61.28v61.28h61.28Z"/>
  <path class="cls-1" d="M238.66,113.35V5.21h24.03l36.65,43.71,36.5-43.71h24.18v108.14h-23.43V40.81l-37.25,44.46-37.4-44.31v72.39h-23.28Z"/>
  <path class="cls-1" d="M369.03,113.35V5.21h24.03l36.65,43.71,36.5-43.71h24.18v108.14h-23.43V40.81l-37.25,44.46-37.4-44.31v72.39h-23.28Z"/>
</svg>