<svg xmlns="http://www.w3.org/2000/svg" viewBox="0 0 375 375"><defs><clipPath id="a"><path d="M36.488 0h302.25v302.25H36.488Zm0 0"/></clipPath><clipPath id="b"><path d="M187.613 0C104.13 0 36.488 67.64 36.488 151.125c0 83.484 67.64 151.125 151.125 151.125s151.125-67.64 151.125-151.125C338.738 67.641 271.098 0 187.613 0m0 252.133c-46.754 0-85.937-31.754-97.5-74.863 16.543-1.75 35.325-1.825 55.512 1.542l-.277.141c10.441 1.75 19.976 7.36 26.214 16.121l18.715 26.008c9.114 12.688 26.286 17.379 41.004 10.094 15.14-7.5 21.098-26.078 15.211-41.922-12.894-34.762-31.12-83.41-35.469-92.52-11.984-25.097-44.156-26.71-65.464-11.988-.282.207-.633.352-.91.563-.075.066-.145.066-.212.136-3.019 2.035-6.734 3.578-10.585 4.555-10.165 3.715-20.54 5.328-30.7 5.61 18.082-27.407 49.063-45.563 84.391-45.563 55.793 0 101.008 45.21 101.008 101.008 0 55.793-45.14 101.078-100.938 101.078m0 0"/></clipPath><clipPath id="d"><path d="M41.188 177.344h54.671v43.949H41.188Zm0 0"/></clipPath><clipPath id="e"><path d="M90.113 177.344c-20.328 2.097-37.363 6.726-48.925 10.722a145 145 0 0 0 5.183 16.473c.14.348.211.629.352.977 2.03 5.402 4.414 10.656 7.078 15.777 11.004-15.984 27.476-23.973 42.058-28.043-2.316-5.047-4.277-10.371-5.746-15.906m0 0"/></clipPath><clipPath id="f"><path d="M51.137 60.14h59.582v35.774H51.137Zm0 0"/></clipPath><clipPath id="g"><path d="M103.219 95.61c2.316-3.438 4.77-6.797 7.5-9.883h-.07S84.784 79.629 67.187 60.14a145 145 0 0 0-8.618 12.757l-.07.07a171 171 0 0 0-7.363 13.598c13.879 4.91 32.523 9.465 52.082 9.043m0 0"/></clipPath><linearGradient id="c" x1="284.943" x2="795.056" y1="687.257" y2="392.744" gradientTransform="translate(-190.9 -227.389)scale(.70095)" gradientUnits="userSpaceOnUse"><stop offset="0" stop-color="#3A00CD"/><stop offset=".125" stop-color="#3A00CD"/><stop offset=".133" stop-color="#3A00CD"/><stop offset=".137" stop-color="#3B00CD"/><stop offset=".141" stop-color="#3C00CE"/><stop offset=".144" stop-color="#3C00CE"/><stop offset=".148" stop-color="#3D00CE"/><stop offset=".152" stop-color="#3E00CF"/><stop offset=".156" stop-color="#3F00CF"/><stop offset=".16" stop-color="#4000CF"/><stop offset=".164" stop-color="#4100CF"/><stop offset=".168" stop-color="#4200D0"/><stop offset=".172" stop-color="#4300D0"/><stop offset=".18" stop-color="#4400D0"/><stop offset=".184" stop-color="#4500D1"/><stop offset=".188" stop-color="#4600D1"/><stop offset=".191" stop-color="#4700D1"/><stop offset=".195" stop-color="#4800D1"/><stop offset=".203" stop-color="#4800D2"/><stop offset=".207" stop-color="#4A00D2"/><stop offset=".211" stop-color="#4B00D2"/><stop offset=".215" stop-color="#4C00D2"/><stop offset=".219" stop-color="#4D00D3"/><stop offset=".223" stop-color="#4E00D3"/><stop offset=".227" stop-color="#4F00D3"/><stop offset=".231" stop-color="#5000D3"/><stop offset=".234" stop-color="#5000D4"/><stop offset=".238" stop-color="#5100D4"/><stop offset=".242" stop-color="#5200D4"/><stop offset=".246" stop-color="#5300D4"/><stop offset=".25" stop-color="#5400D5"/><stop offset=".254" stop-color="#5500D5"/><stop offset=".258" stop-color="#5600D6"/><stop offset=".266" stop-color="#5600D6"/><stop offset=".27" stop-color="#5800D6"/><stop offset=".273" stop-color="#5900D7"/><stop offset=".277" stop-color="#5A00D7"/><stop offset=".281" stop-color="#5B00D7"/><stop offset=".285" stop-color="#5C00D7"/><stop offset=".289" stop-color="#5C00D8"/><stop offset=".293" stop-color="#5D00D8"/><stop offset=".297" stop-color="#5E00D8"/><stop offset=".301" stop-color="#5F00D8"/><stop offset=".305" stop-color="#6000D9"/><stop offset=".309" stop-color="#6100D9"/><stop offset=".313" stop-color="#6200D9"/><stop offset=".316" stop-color="#6200DA"/><stop offset=".32" stop-color="#6300DA"/><stop offset=".324" stop-color="#6400DA"/><stop offset=".328" stop-color="#6500DA"/><stop offset=".332" stop-color="#6600DB"/><stop offset=".336" stop-color="#6700DB"/><stop offset=".34" stop-color="#6800DB"/><stop offset=".344" stop-color="#6900DB"/><stop offset=".348" stop-color="#6900DC"/><stop offset=".352" stop-color="#6A00DC"/><stop offset=".355" stop-color="#6B00DC"/><stop offset=".359" stop-color="#6C00DC"/><stop offset=".363" stop-color="#6D00DD"/><stop offset=".367" stop-color="#6E00DD"/><stop offset=".371" stop-color="#6E00DE"/><stop offset=".375" stop-color="#6F00DE"/><stop offset=".379" stop-color="#7000DE"/><stop offset=".383" stop-color="#7100DE"/><stop offset=".387" stop-color="#7200DF"/><stop offset=".391" stop-color="#7300DF"/><stop offset=".395" stop-color="#7400DF"/><stop offset=".398" stop-color="#7500DF"/><stop offset=".406" stop-color="#7600E0"/><stop offset=".41" stop-color="#7700E0"/><stop offset=".414" stop-color="#7800E0"/><stop offset=".418" stop-color="#7900E0"/><stop offset=".422" stop-color="#7A00E1"/><stop offset=".426" stop-color="#7B00E1"/><stop offset=".43" stop-color="#7C00E1"/><stop offset=".434" stop-color="#7C00E1"/><stop offset=".438" stop-color="#7D00E2"/><stop offset=".441" stop-color="#7E00E2"/><stop offset=".445" stop-color="#7F00E2"/><stop offset=".449" stop-color="#8000E2"/><stop offset=".453" stop-color="#8100E3"/><stop offset=".461" stop-color="#8200E3"/><stop offset=".465" stop-color="#8300E3"/><stop offset=".469" stop-color="#8400E4"/><stop offset=".473" stop-color="#8500E4"/><stop offset=".477" stop-color="#8600E4"/><stop offset=".48" stop-color="#8700E4"/><stop offset=".484" stop-color="#8800E5"/><stop offset=".488" stop-color="#8800E5"/><stop offset=".492" stop-color="#8900E6"/><stop offset=".496" stop-color="#8A00E6"/><stop offset=".5" stop-color="#8B00E6"/><stop offset=".504" stop-color="#8C00E6"/><stop offset=".508" stop-color="#8D00E7"/><stop offset=".512" stop-color="#8E00E7"/><stop offset=".516" stop-color="#8F00E7"/><stop offset=".519" stop-color="#9000E8"/><stop offset=".523" stop-color="#9000E8"/><stop offset=".527" stop-color="#9100E8"/><stop offset=".531" stop-color="#9200E8"/><stop offset=".535" stop-color="#9300E9"/><stop offset=".539" stop-color="#9400E9"/><stop offset=".543" stop-color="#9400E9"/><stop offset=".547" stop-color="#9500E9"/><stop offset=".551" stop-color="#9600EA"/><stop offset=".555" stop-color="#9700EA"/><stop offset=".559" stop-color="#9800EA"/><stop offset=".563" stop-color="#9900EA"/><stop offset=".566" stop-color="#9A00EB"/><stop offset=".57" stop-color="#9B00EB"/><stop offset=".574" stop-color="#9C00EB"/><stop offset=".578" stop-color="#9C00EB"/><stop offset=".582" stop-color="#9D00EC"/><stop offset=".586" stop-color="#9E00EC"/><stop offset=".59" stop-color="#9F00EC"/><stop offset=".594" stop-color="#A000EC"/><stop offset=".598" stop-color="#A100EC"/><stop offset=".602" stop-color="#A200ED"/><stop offset=".606" stop-color="#A200ED"/><stop offset=".609" stop-color="#A300ED"/><stop offset=".613" stop-color="#A400ED"/><stop offset=".617" stop-color="#A500EE"/><stop offset=".621" stop-color="#A600EE"/><stop offset=".625" stop-color="#A700EF"/><stop offset=".629" stop-color="#A800EF"/><stop offset=".633" stop-color="#A800EF"/><stop offset=".637" stop-color="#A900EF"/><stop offset=".641" stop-color="#AA00F0"/><stop offset=".644" stop-color="#AB00F0"/><stop offset=".648" stop-color="#AC00F0"/><stop offset=".652" stop-color="#AD00F0"/><stop offset=".656" stop-color="#AE00F1"/><stop offset=".664" stop-color="#AE00F1"/><stop offset=".668" stop-color="#B000F1"/><stop offset=".672" stop-color="#B100F2"/><stop offset=".676" stop-color="#B200F2"/><stop offset=".68" stop-color="#B300F2"/><stop offset=".684" stop-color="#B400F3"/><stop offset=".688" stop-color="#B500F3"/><stop offset=".691" stop-color="#B600F3"/><stop offset=".695" stop-color="#B600F3"/><stop offset=".699" stop-color="#B700F4"/><stop offset=".703" stop-color="#B800F4"/><stop offset=".707" stop-color="#B900F4"/><stop offset=".711" stop-color="#BA00F4"/><stop offset=".715" stop-color="#BA00F5"/><stop offset=".719" stop-color="#BB00F5"/><stop offset=".723" stop-color="#BC00F5"/><stop offset=".727" stop-color="#BD00F5"/><stop offset=".731" stop-color="#BE00F6"/><stop offset=".734" stop-color="#BF00F6"/><stop offset=".738" stop-color="#C000F7"/><stop offset=".742" stop-color="#C100F7"/><stop offset=".75" stop-color="#C200F7"/><stop offset=".754" stop-color="#C300F8"/><stop offset=".758" stop-color="#C400F8"/><stop offset=".762" stop-color="#C500F8"/><stop offset=".766" stop-color="#C600F8"/><stop offset=".769" stop-color="#C700F8"/><stop offset=".773" stop-color="#C800F9"/><stop offset=".777" stop-color="#C800F9"/><stop offset=".781" stop-color="#C900F9"/><stop offset=".785" stop-color="#CA00F9"/><stop offset=".789" stop-color="#CB00FA"/><stop offset=".793" stop-color="#CC00FA"/><stop offset=".797" stop-color="#CD00FA"/><stop offset=".801" stop-color="#CE00FA"/><stop offset=".805" stop-color="#CE00FB"/><stop offset=".809" stop-color="#CF00FB"/><stop offset=".813" stop-color="#D000FB"/><stop offset=".816" stop-color="#D100FB"/><stop offset=".82" stop-color="#D200FC"/><stop offset=".824" stop-color="#D300FC"/><stop offset=".828" stop-color="#D400FC"/><stop offset=".836" stop-color="#D400FC"/><stop offset=".84" stop-color="#D600FD"/><stop offset=".844" stop-color="#D700FD"/><stop offset=".848" stop-color="#D800FD"/><stop offset=".852" stop-color="#D900FE"/><stop offset=".856" stop-color="#DA00FE"/><stop offset=".859" stop-color="#DB00FF"/><stop offset=".863" stop-color="#DC00FF"/><stop offset=".867" stop-color="#DC00FF"/><stop offset=".875" stop-color="#DC00FF"/><stop offset="1" stop-color="#DC00FF"/></linearGradient></defs><g clip-path="url(#a)" transform="translate(0 4)"><g clip-path="url(#b)"><path fill="url(#c)" d="M36.488 0v302.25h302.25V0Zm0 0"/></g></g><path fill="#fff" d="M176.68 121.898q0 .728-.14 1.438a7.4 7.4 0 0 1-1.103 2.652q-.398.606-.914 1.117a7 7 0 0 1-1.117.915q-.602.405-1.27.68a7 7 0 0 1-1.382.417q-.708.146-1.438.145-.72.001-1.433-.145a7 7 0 0 1-1.38-.418 7.3 7.3 0 0 1-3.304-2.71 7.4 7.4 0 0 1-1.102-2.652 7.7 7.7 0 0 1-.136-1.439q.001-.722.137-1.433a7.3 7.3 0 0 1 .422-1.38q.275-.672.68-1.276.403-.598.913-1.114.516-.509 1.114-.918a8 8 0 0 1 1.277-.68 7.4 7.4 0 0 1 4.25-.418c.476.094.933.239 1.383.419a8 8 0 0 1 1.27.68q.607.408 1.116.917a7.3 7.3 0 0 1 1.594 2.39 7.3 7.3 0 0 1 .563 2.813m0 29.09a7.3 7.3 0 0 1-.563 2.817q-.275.675-.68 1.273-.398.604-.914 1.113-.508.515-1.117.918a8 8 0 0 1-1.27.68 7.4 7.4 0 0 1-2.82.559 7.4 7.4 0 0 1-2.812-.559 8 8 0 0 1-1.277-.68 7.6 7.6 0 0 1-1.114-.918 7.4 7.4 0 0 1-2.015-3.77 7.6 7.6 0 0 1 0-2.87c.093-.473.238-.93.422-1.38a7.4 7.4 0 0 1 1.594-2.387 7.3 7.3 0 0 1 2.39-1.594 7 7 0 0 1 1.379-.417 7 7 0 0 1 1.433-.144c.489 0 .965.047 1.438.144.476.094.933.23 1.383.418q.666.275 1.27.68a7 7 0 0 1 1.116.914q.516.512.914 1.117.405.6.68 1.27c.188.45.324.906.422 1.379q.14.715.14 1.437m-14.581-14.578q0 .721-.141 1.438-.142.707-.418 1.379a7.6 7.6 0 0 1-.68 1.27c-.27.401-.574.776-.918 1.116q-.51.516-1.113.914-.601.41-1.273.68a7 7 0 0 1-1.383.418q-.709.146-1.434.145c-.484 0-.96-.047-1.437-.145a7 7 0 0 1-1.38-.418 6.6 6.6 0 0 1-1.269-.68 7.2 7.2 0 0 1-2.031-2.031 6.6 6.6 0 0 1-.68-1.27 7.5 7.5 0 0 1-.421-1.378 7.4 7.4 0 0 1 0-2.871c.097-.477.234-.938.421-1.383.18-.45.407-.871.68-1.274q.4-.603.91-1.113a7.2 7.2 0 0 1 1.121-.918 7.6 7.6 0 0 1 1.27-.68c.45-.183.906-.324 1.379-.418a7.4 7.4 0 0 1 4.254.418c.449.188.87.414 1.273.68q.604.404 1.113.918.515.51.918 1.113a7.34 7.34 0 0 1 1.238 4.09m29.09 0q0 .721-.14 1.438a7.2 7.2 0 0 1-.422 1.379q-.27.669-.68 1.27a7.2 7.2 0 0 1-2.03 2.03q-.601.41-1.27.68a7 7 0 0 1-1.38.418 7 7 0 0 1-1.437.145q-.725.001-1.433-.145a7 7 0 0 1-1.383-.418 6.7 6.7 0 0 1-1.274-.68 7 7 0 0 1-1.113-.914 7.2 7.2 0 0 1-.918-1.117 7.6 7.6 0 0 1-.68-1.27 7.5 7.5 0 0 1-.418-1.378 7.4 7.4 0 0 1 0-2.871 7.34 7.34 0 0 1 2.016-3.77q.51-.514 1.113-.918a7.34 7.34 0 0 1 4.09-1.238q.724 0 1.438.14.709.142 1.379.418.669.281 1.27.68a7.2 7.2 0 0 1 2.03 2.031c.274.403.5.825.68 1.274q.28.668.422 1.383.14.708.14 1.433m0 0"/><g clip-path="url(#d)" transform="matrix(1.0078 0 0 1.00091 -.64 3.738)"><g clip-path="url(#e)"><path d="M40.764 177.344v44.09h55.095v-44.09zm0 0" style="fill:#fff"/></g></g><g clip-path="url(#f)" transform="matrix(1.00757 0 0 1.00555 -.76 3.468)"><g clip-path="url(#g)"><path d="M51.137 60.14v35.774h59.582V60.141Zm0 0" style="fill:#fff"/></g></g><path fill="#a453ff" d="M70.378 368.228h16.504c.922 0 1.649-.793 1.649-1.715v-15.45c0-.921.726-1.648 1.652-1.648h9.902c.922 0 1.649.727 1.649 1.649v15.515c0 .922.726 1.649 1.652 1.649h16.5c.926 0 1.653-.793 1.653-1.715v-16.309c0-3.894-2.84-6.73-6.735-6.73h-.594a1.635 1.635 0 0 1-1.648-1.652c0-.922.727-1.649 1.648-1.649h.594c3.895 0 6.735-2.84 6.735-6.734v-7.262c0-6.203-4.555-10.758-10.762-10.758H70.378c-.925 0-1.652.723-1.652 1.649v49.511c0 .922.727 1.649 1.652 1.649m19.805-33.996a1.636 1.636 0 0 1-1.652-1.653c0-.922.726-1.648 1.652-1.648h9.902c.922 0 1.649.726 1.649 1.648 0 .926-.727 1.653-1.649 1.653Zm48.1 33.996h15.977c7.789 0 13.465-5.676 13.465-13.465v-25.879c0-7.789-5.676-13.465-13.465-13.465h-15.977c-7.789 0-13.469 5.676-13.469 13.465v25.879c0 7.789 5.68 13.465 13.47 13.465m7.988-15.184a1.635 1.635 0 0 1-1.652-1.648V332.25c0-.926.727-1.652 1.652-1.652.922 0 1.649.726 1.649 1.652v19.145c0 .922-.727 1.648-1.649 1.648m26.451 15.185h16.438c.922 0 1.648-.727 1.648-1.649V337.2c0-.921.727-1.648 1.653-1.648.922 0 1.648.727 1.648 1.648v29.508c0 .86.793 1.52 1.653 1.52h16.503c.856 0 1.649-.66 1.649-1.52V337.2c0-.921.726-1.648 1.652-1.648.922 0 1.649.727 1.649 1.648v29.38c0 .921.793 1.648 1.714 1.648h16.438c.926 0 1.652-.727 1.652-1.649v-49.511c0-.926-.793-1.649-1.718-1.649h-27.989c-.922 0-1.648.79-1.648 1.715v9.176c0 .926-.727 1.648-1.652 1.648a1.63 1.63 0 0 1-1.649-1.648v-9.242c0-.926-.793-1.649-1.719-1.649h-27.988c-.926 0-1.652.723-1.652 1.649v49.511c0 .922.793 1.649 1.718 1.649m69.286 0h16.437c.922 0 1.649-.727 1.649-1.649V337.2c0-.921.726-1.648 1.652-1.648.922 0 1.649.727 1.649 1.648v29.508c0 .86.793 1.52 1.652 1.52h16.504c.855 0 1.648-.66 1.648-1.52V337.2c0-.921.727-1.648 1.653-1.648.922 0 1.648.727 1.648 1.648v29.38c0 .921.793 1.648 1.715 1.648h16.437c.926 0 1.653-.727 1.653-1.649v-49.511c0-.926-.793-1.649-1.719-1.649H276.6c-.922 0-1.649.79-1.649 1.715v9.176c0 .926-.726 1.648-1.652 1.648a1.63 1.63 0 0 1-1.648-1.648v-9.242c0-.926-.793-1.649-1.72-1.649h-27.987c-.926 0-1.653.723-1.653 1.649v49.511c0 .922.793 1.649 1.719 1.649m0 0"/></svg>